<?xml version="1.0" encoding="utf-8"?>
<!-- Generator: Adobe Illustrator 15.0.2, SVG Export Plug-In . SVG Version: 6.00 Build 0)  -->
<!DOCTYPE svg PUBLIC "-//W3C//DTD SVG 1.1//EN" "http://www.w3.org/Graphics/SVG/1.1/DTD/svg11.dtd">
<svg version="1.1" id="Lager_1" xmlns="http://www.w3.org/2000/svg" xmlns:xlink="http://www.w3.org/1999/xlink" x="0px" y="0px"
	 width="71.554px" height="130.259px" viewBox="0 0 71.554 130.259" enable-background="new 0 0 71.554 130.259"
	 xml:space="preserve">
<g>
	<path opacity="0.9" fill="#A28878" stroke="#A28878" stroke-width="0.9134" stroke-miterlimit="10" d="M18.842,78.354"/>
	<path opacity="0.9" fill="#A28878" stroke="#A28878" stroke-width="0.9134" stroke-miterlimit="10" d="M39.563,77.948"/>
	<g>
		<path fill="#E7503F" stroke="#E7503F" stroke-width="0.2967" stroke-miterlimit="10" d="M10.718,0.17L6.134,7.78v0.931
			c0,2.797,0.338,4.564,1.016,5.298c0.316,0.333,0.722,0.498,1.211,0.498c0.865,0,1.754-0.482,2.661-1.448v1.038
			c-0.852,0.808-1.779,1.21-2.79,1.21c-1.283,0-2.112-0.836-2.488-2.509c-0.215-0.952-0.354-2.22-0.41-3.804l-4.131,6.312h-0.93
			l4.952-7.698V6.723c0-2.048-0.188-3.511-0.562-4.391C4.505,1.956,4.271,1.633,3.96,1.359C3.651,1.086,3.279,0.948,2.847,0.948
			c-0.836,0-1.707,0.483-2.616,1.448V1.359c0.864-0.807,1.812-1.211,2.845-1.211c1.028,0,1.765,0.515,2.204,1.547
			c0.44,1.029,0.694,2.582,0.768,4.659l3.87-6.185H10.718z"/>
		<path fill="#E7503F" stroke="#E7503F" stroke-width="0.2967" stroke-miterlimit="10" d="M16.904,9.75h-5.19V8.948h5.19V9.75z"/>
		<path fill="#E7503F" stroke="#E7503F" stroke-width="0.2967" stroke-miterlimit="10" d="M20.19,5.294h-2.487v-0.8h2.487V0.926
			h0.799v3.568h2.51v0.8h-2.51v10.013H20.19V5.294z"/>
		<path fill="#E7503F" stroke="#E7503F" stroke-width="0.2967" stroke-miterlimit="10" d="M26.007,15.307h-0.799V4.494h0.799v1.579
			c0.303-0.359,0.768-0.748,1.396-1.158c0.626-0.411,1.226-0.613,1.795-0.613c0.568,0,1.066,0.159,1.492,0.482
			c0.425,0.326,0.644,0.855,0.659,1.591h-0.801c0-0.401-0.129-0.72-0.388-0.949C29.9,5.193,29.547,5.079,29.1,5.079
			c-0.445,0-0.99,0.215-1.633,0.648c-0.642,0.432-1.128,0.907-1.46,1.426V15.307z"/>
		<path fill="#E7503F" stroke="#E7503F" stroke-width="0.2967" stroke-miterlimit="10" d="M39.2,4.494H40v10.835
			c-0.865,0-1.622-0.036-2.271-0.107c-0.649-0.072-1.323-0.229-2.022-0.467s-1.272-0.558-1.719-0.962s-0.815-0.963-1.104-1.675
			c-0.288-0.714-0.431-1.518-0.431-2.412c0-0.894,0.09-1.661,0.27-2.302c0.179-0.643,0.412-1.154,0.692-1.537
			c0.28-0.381,0.595-0.695,0.94-0.939c0.604-0.447,1.203-0.671,1.796-0.671c1.08,0,2.097,0.512,3.049,1.534V4.494z M33.251,9.598
			c0,1.89,0.586,3.2,1.752,3.938c1.039,0.647,2.438,0.972,4.197,0.972V6.874c-0.49-0.562-0.964-1.007-1.417-1.331
			c-0.454-0.325-0.956-0.487-1.503-0.487c-0.909,0-1.641,0.4-2.194,1.202C33.53,7.058,33.251,8.171,33.251,9.598z"/>
		<path fill="#E7503F" stroke="#E7503F" stroke-width="0.2967" stroke-miterlimit="10" d="M43.827,20.714h-0.799V4.494h0.799v1.297
			c0.95-1.022,1.969-1.534,3.05-1.534c0.59,0,1.189,0.224,1.795,0.671c1.268,0.923,1.902,2.471,1.902,4.647
			c0,2.567-0.96,4.248-2.877,5.04c-0.979,0.403-2.271,0.635-3.87,0.691V20.714z M49.32,11.998c0.304-0.661,0.454-1.531,0.454-2.605
			c0-1.073-0.291-2.065-0.876-2.974c-0.583-0.907-1.301-1.363-2.151-1.363c-0.548,0-1.049,0.162-1.503,0.487
			c-0.453,0.324-0.928,0.769-1.417,1.331v7.633C46.726,14.507,48.557,13.671,49.32,11.998z"/>
		<path fill="#E7503F" stroke="#E7503F" stroke-width="0.2967" stroke-miterlimit="10" d="M53.689,15.307h-0.8V4.494h0.8v1.579
			c0.302-0.359,0.767-0.748,1.396-1.158c0.626-0.411,1.226-0.613,1.794-0.613s1.065,0.159,1.491,0.482
			c0.426,0.326,0.646,0.855,0.66,1.591h-0.8c0-0.401-0.129-0.72-0.388-0.949c-0.262-0.232-0.614-0.347-1.061-0.347
			c-0.448,0-0.993,0.215-1.633,0.648c-0.644,0.432-1.13,0.907-1.46,1.426V15.307z"/>
		<path fill="#E7503F" stroke="#E7503F" stroke-width="0.2967" stroke-miterlimit="10" d="M61.668,15.307H60.87V4.494h0.798V15.307z
			 M60.911,0.926h0.801v1.86h-0.801V0.926z"/>
		<path fill="#E7503F" stroke="#E7503F" stroke-width="0.2967" stroke-miterlimit="10" d="M68.255,14.204
			c0.871-0.23,1.477-0.526,1.815-0.887s0.508-0.847,0.508-1.46c0-0.612-0.229-1.092-0.692-1.438c-0.461-0.346-1.019-0.57-1.675-0.67
			c-0.657-0.102-1.313-0.214-1.968-0.337c-0.657-0.122-1.215-0.392-1.676-0.811c-0.461-0.418-0.692-1.022-0.692-1.817
			c0-1.671,1.297-2.508,3.893-2.508c0.952,0,2.053,0.102,3.309,0.303v0.846c-1.298-0.232-2.387-0.347-3.265-0.347
			c-0.88,0-1.626,0.126-2.238,0.377c-0.613,0.252-0.92,0.679-0.92,1.278c0,0.596,0.23,1.058,0.691,1.381
			c0.463,0.326,1.021,0.548,1.677,0.671s1.315,0.266,1.978,0.421c0.664,0.16,1.226,0.473,1.688,0.944
			c0.461,0.466,0.691,1.126,0.691,1.976c0,1.053-0.41,1.812-1.232,2.273c-0.404,0.23-0.794,0.412-1.168,0.55
			c-0.376,0.138-0.873,0.228-1.491,0.271c-0.982,0.085-1.917,0.128-2.812,0.128h-0.54v-0.799
			C66.008,14.551,67.383,14.436,68.255,14.204z"/>
	</g>
	<g>
		<path fill="#5A595B" d="M19.697,34.291v35.522h-2.028V51.725H2.101v18.089H0.072V44.707c0-3.946,1.261-7.181,3.783-9.701
			c2.521-2.524,5.683-3.784,9.482-3.784C16.116,31.222,18.234,32.246,19.697,34.291z M17.669,49.695V35.06
			c-1.171-1.207-2.65-1.81-4.44-1.81c-3.216,0-5.875,1.171-7.977,3.506c-2.102,2.342-3.151,5.009-3.151,8.006v4.934H17.669z
			 M4.457,24.314h2.085v3.618H4.457V24.314z M13.777,24.314h2.083v3.618h-2.083V24.314z"/>
		<path fill="#5A595B" d="M46.064,39.937l-2.028-0.054c-0.329-1.973-1.144-3.536-2.44-4.686c-1.296-1.152-2.749-1.728-4.357-1.728
			c-2.705,0-4.843,1.38-6.413,4.139c-1.572,2.761-2.358,5.929-2.358,9.51c0,7.275,1.253,12.464,3.757,15.57
			c2.502,3.105,6.439,4.804,11.812,5.097V52.711h-5.373v-2.028h7.401v19.186c-5.299,0-9.246-0.785-11.84-2.356
			c-1.024-0.622-2.056-1.498-3.099-2.631c-1.042-1.134-1.891-2.486-2.548-4.058c-1.427-3.544-2.14-8.131-2.14-13.76
			c0-2.667,0.365-5.061,1.097-7.181c0.731-2.119,1.646-3.763,2.743-4.934c2.227-2.337,4.475-3.509,6.74-3.509
			c2.267,0,4.341,0.915,6.222,2.74C45.123,36.01,46.064,37.928,46.064,39.937z"/>
		<path fill="#5A595B" d="M71.554,39.937l-2.026-0.054c-0.33-1.973-1.145-3.536-2.44-4.686c-1.298-1.152-2.75-1.728-4.358-1.728
			c-2.705,0-4.843,1.38-6.413,4.139c-1.572,2.761-2.359,5.929-2.359,9.51c0,7.275,1.253,12.464,3.758,15.57
			c2.501,3.105,6.439,4.804,11.813,5.097V52.711h-5.374v-2.028h7.4v19.186c-5.299,0-9.246-0.785-11.839-2.356
			c-1.025-0.622-2.056-1.498-3.098-2.631c-1.043-1.134-1.891-2.486-2.55-4.058c-1.426-3.544-2.138-8.131-2.138-13.76
			c0-2.667,0.365-5.061,1.096-7.181c0.731-2.119,1.646-3.763,2.742-4.934c2.227-2.337,4.477-3.509,6.741-3.509
			c2.267,0,4.34,0.915,6.223,2.74C70.614,36.01,71.554,37.928,71.554,39.937z"/>
	</g>
	<g>
		<polygon fill="#E7503F" points="30.664,87.084 37.168,74.796 43.399,87.226 56.688,83.137 52.304,96.329 64.594,102.832 
			52.164,109.065 56.254,122.353 43.06,117.971 36.555,130.259 30.325,117.829 17.035,121.918 21.419,108.725 9.132,102.223 
			21.561,95.99 17.47,82.701 		"/>
		<g>
			<g>
				<path fill="#FFFFFF" stroke="#FFFFFF" stroke-width="0.5363" stroke-miterlimit="10" d="M26.89,111.786l1.961-7.896
					c0.104-0.438,0.184-0.777,0.236-1.016c0.052-0.238,0.079-0.545,0.083-0.918c0.003-0.373-0.05-0.698-0.161-0.975
					c-0.305-0.759-0.784-1.253-1.438-1.478c-0.652-0.226-1.299-0.208-1.939,0.048c-0.64,0.258-1.36,0.951-2.163,2.079l-0.239-0.596
					c0.688-1.095,1.445-1.81,2.272-2.142c0.828-0.333,1.629-0.33,2.404,0.007c0.775,0.336,1.333,0.927,1.674,1.776
					c0.342,0.852,0.379,1.807,0.115,2.874l-1.76,7.104l4.999-2.006l0.244,0.613L26.89,111.786z"/>
				<path fill="#FFFFFF" stroke="#FFFFFF" stroke-width="0.5363" stroke-miterlimit="10" d="M39.812,99.99
					c0.73,1.82,0.983,3.343,0.757,4.567c-0.225,1.224-0.927,2.072-2.1,2.544c-1.176,0.472-2.303,0.347-3.379-0.373
					c-1.076-0.722-1.98-1.993-2.714-3.819c-0.733-1.827-0.965-3.36-0.695-4.603c0.271-1.243,1.019-2.109,2.243-2.601
					C36.319,94.745,38.28,96.174,39.812,99.99z M39.091,99.963c-0.612-1.528-1.345-2.607-2.192-3.24
					c-0.852-0.633-1.766-0.752-2.747-0.357c-0.983,0.394-1.59,1.123-1.821,2.19c-0.232,1.066-0.011,2.438,0.663,4.116
					c0.789,1.963,1.812,3.223,3.073,3.78c0.699,0.308,1.368,0.334,2.01,0.077c0.64-0.257,1.106-0.61,1.398-1.062
					c0.294-0.449,0.45-0.968,0.472-1.554C39.991,102.81,39.705,101.492,39.091,99.963z"/>
			</g>
			<g>
				<circle fill="#FFFFFF" stroke="#FFFFFF" stroke-width="0.5363" stroke-miterlimit="10" cx="42.023" cy="97.439" r="0.722"/>
				<circle fill="#FFFFFF" stroke="#FFFFFF" stroke-width="0.5363" stroke-miterlimit="10" cx="43.751" cy="101.749" r="0.722"/>
				
					<rect x="43.897" y="97.846" transform="matrix(0.928 -0.3725 0.3725 0.928 -33.2617 24.3048)" fill="#FFFFFF" stroke="#FFFFFF" stroke-width="0.5363" stroke-miterlimit="10" width="4.748" height="0.778"/>
			</g>
		</g>
	</g>
</g>
</svg>
