<?xml version="1.0" encoding="utf-8"?>
<!-- Generator: Adobe Illustrator 15.0.2, SVG Export Plug-In . SVG Version: 6.00 Build 0)  -->
<!DOCTYPE svg PUBLIC "-//W3C//DTD SVG 1.1//EN" "http://www.w3.org/Graphics/SVG/1.1/DTD/svg11.dtd">
<svg version="1.1" id="Lager_1" xmlns="http://www.w3.org/2000/svg" xmlns:xlink="http://www.w3.org/1999/xlink" x="0px" y="0px"
	 width="109.105px" height="189.962px" viewBox="0 0 109.105 189.962" enable-background="new 0 0 109.105 189.962"
	 xml:space="preserve">
<g>
	<path fill="#FFFFFF" d="M107.567,78.907h-0.055C101.649,37.949,80.168,0,54.552,0C29.073,0,7.689,37.44,1.692,78.147l0.035,0.062
		h-0.03c-1.084,7.439-1.671,14.98-1.696,22.423c-0.178,49.136,24.102,89.13,54.23,89.328c30.128,0.198,54.695-39.473,54.873-88.608
		C109.131,93.91,108.598,86.362,107.567,78.907z"/>
	<path fill="#F6F6F6" stroke="#F6F6F6" stroke-width="1.0341" stroke-miterlimit="10" d="M20.291,95.281"/>
	<path fill="#F8F8F8" d="M54.231,189.961c-30.129-0.198-54.408-40.192-54.23-89.328c0.025-7.443,0.612-14.984,1.696-22.423h0.03
		l-0.035-0.062C7.689,37.44,29.073,0,54.552,0L54.231,189.961z"/>
	<path fill="#F6F6F6" d="M107.567,78.907"/>
</g>
</svg>
