<?xml version="1.0" encoding="utf-8"?>
<!-- Generator: Adobe Illustrator 15.0.2, SVG Export Plug-In . SVG Version: 6.00 Build 0)  -->
<!DOCTYPE svg PUBLIC "-//W3C//DTD SVG 1.1//EN" "http://www.w3.org/Graphics/SVG/1.1/DTD/svg11.dtd">
<svg version="1.1" id="Lager_1" xmlns="http://www.w3.org/2000/svg" xmlns:xlink="http://www.w3.org/1999/xlink" x="0px" y="0px"
	 width="328.043px" height="63.228px" viewBox="0 0 328.043 63.228" enable-background="new 0 0 328.043 63.228"
	 xml:space="preserve">
<g>
	<g>
		<path fill="#FFFCEF" d="M328.043,45.878L316.361,6.939c0-3.833-4.264-6.939-8.097-6.939H19.777c-3.832,0-8.096,3.106-8.096,6.939
			L0,45.878v10.41h328.043V45.878z"/>
		<path fill="#FFFCEF" d="M328.043,56.288c0,3.833-3.107,6.939-6.94,6.939H6.939C3.107,63.228,0,60.121,0,56.288H328.043z"/>
		<path fill="#FFFCEF" d="M163.967,56.288H0v-10.41L11.682,6.939C11.682,3.106,15.945,0,19.777,0h144.189V56.288z"/>
	</g>
	<g>
		<g>
			<g>
				
					<path fill="#3AA8DB" stroke="#3AA8DB" stroke-width="1.1311" stroke-linecap="round" stroke-linejoin="round" stroke-miterlimit="10" d="
					M117.277,45.631h-1.744V16.067l-6.885,3.123v-1.699l8.629-3.995V45.631z"/>
				
					<path fill="#3AA8DB" stroke="#3AA8DB" stroke-width="1.1311" stroke-linecap="round" stroke-linejoin="round" stroke-miterlimit="10" d="
					M143.674,29.839c0,5.051-0.855,8.929-2.57,11.639c-1.715,2.708-4.2,4.062-7.459,4.062s-5.831-1.376-7.711-4.132
					c-1.883-2.755-2.825-6.663-2.825-11.729c0-5.065,0.919-8.951,2.755-11.66c1.836-2.708,4.453-4.062,7.85-4.062
					C140.355,13.956,143.674,19.25,143.674,29.839z M141.977,29.082c0-4.239-0.711-7.521-2.135-9.847
					c-1.424-2.325-3.497-3.49-6.221-3.49s-4.873,1.165-6.45,3.49c-1.577,2.326-2.362,5.815-2.362,10.467
					c0,5.448,1.238,9.441,3.717,11.979c1.379,1.409,2.953,2.113,4.729,2.113c1.774,0,3.228-0.398,4.36-1.193
					c1.131-0.796,2.004-1.883,2.617-3.26C141.395,36.742,141.977,33.321,141.977,29.082z"/>
			</g>
			<g>
				<path fill="#3AA8DB" d="M153.562,33.642c0.531-0.236,1.015-0.51,1.449-0.818s0.823-0.635,1.163-0.976
					c0.342-0.341,0.633-0.688,0.873-1.045c0.241-0.355,0.434-0.694,0.576-1.018c0.064-0.158,0.188-0.237,0.367-0.237
					c0.121,0,0.221,0.041,0.295,0.123c0.076,0.084,0.115,0.176,0.115,0.276c0,0.057-0.012,0.111-0.033,0.162
					c-0.158,0.352-0.359,0.716-0.604,1.093c-0.244,0.378-0.541,0.747-0.889,1.11c-0.348,0.362-0.756,0.713-1.224,1.05
					c-0.466,0.338-1.002,0.646-1.604,0.927c0.388,0.403,0.725,0.849,1.013,1.341c0.286,0.493,0.524,1.005,0.716,1.536
					s0.335,1.067,0.431,1.61c0.097,0.542,0.146,1.062,0.146,1.557c0,0.452-0.041,0.878-0.124,1.276
					c-0.083,0.399-0.204,0.745-0.366,1.039c-0.161,0.296-0.356,0.527-0.586,0.695c-0.23,0.169-0.492,0.254-0.787,0.254
					c-0.431,0-0.766-0.16-1.002-0.48c-0.238-0.319-0.412-0.761-0.522-1.324c-0.112-0.564-0.177-1.229-0.194-1.994
					c-0.018-0.765-0.027-1.596-0.027-2.492c0-0.446,0-0.966,0-1.558c0-0.593,0.002-1.228,0.006-1.907
					c0.004-0.679,0.007-1.39,0.01-2.133c0.005-0.744,0.01-1.488,0.018-2.235c0.006-0.748,0.014-1.482,0.021-2.204
					c0.006-0.722,0.018-1.406,0.031-2.053c0.021-1.235,0.066-2.337,0.13-3.308c0.064-0.969,0.169-1.788,0.312-2.456
					c0.145-0.668,0.34-1.176,0.588-1.524c0.249-0.348,0.562-0.522,0.943-0.522c0.302,0,0.557,0.084,0.766,0.252
					c0.207,0.169,0.377,0.395,0.506,0.679s0.223,0.616,0.279,0.997c0.059,0.381,0.086,0.778,0.086,1.196
					c0,0.876-0.074,1.723-0.226,2.542c-0.15,0.818-0.356,1.612-0.614,2.38c-0.258,0.77-0.562,1.52-0.91,2.253
					c-0.349,0.732-0.721,1.454-1.116,2.166c0,0.294,0,0.612,0,0.953s0,0.683,0,1.023s-0.001,0.668-0.005,0.98
					S153.562,33.412,153.562,33.642z M153.562,34.967c0,0.452-0.003,0.875-0.006,1.266c-0.003,0.393-0.006,0.749-0.006,1.073
					c0,0.668,0.005,1.327,0.012,1.981c0.007,0.653,0.042,1.241,0.103,1.762s0.154,0.94,0.28,1.261
					c0.126,0.319,0.306,0.479,0.544,0.479c0.215,0,0.392-0.097,0.528-0.29c0.136-0.194,0.241-0.425,0.317-0.69
					s0.128-0.536,0.156-0.813c0.029-0.276,0.043-0.501,0.043-0.673c0-0.438-0.041-0.898-0.123-1.379
					c-0.082-0.481-0.209-0.957-0.377-1.428c-0.17-0.471-0.376-0.925-0.619-1.362C154.168,35.714,153.885,35.318,153.562,34.967z
					 M153.594,28.212c0.295-0.553,0.565-1.136,0.814-1.751c0.247-0.613,0.461-1.247,0.641-1.9c0.18-0.654,0.319-1.321,0.42-2.005
					c0.1-0.683,0.151-1.368,0.151-2.058c0-0.345-0.017-0.657-0.049-0.938s-0.083-0.519-0.151-0.716
					c-0.068-0.198-0.154-0.353-0.259-0.463c-0.104-0.112-0.224-0.167-0.36-0.167c-0.144,0-0.27,0.085-0.377,0.258
					c-0.107,0.171-0.201,0.403-0.28,0.689c-0.079,0.287-0.146,0.618-0.199,0.991s-0.099,0.763-0.135,1.17
					c-0.036,0.405-0.065,0.811-0.087,1.216s-0.037,0.787-0.049,1.142c-0.01,0.355-0.018,0.669-0.021,0.942
					c-0.003,0.274-0.005,0.478-0.005,0.615c-0.007,0.287-0.013,0.542-0.017,0.765c-0.003,0.222-0.008,0.441-0.016,0.656
					c-0.008,0.216-0.012,0.446-0.017,0.69C153.596,27.594,153.594,27.882,153.594,28.212z"/>
				<path fill="#3AA8DB" d="M165.951,30.108c-0.028,0.058-0.088,0.177-0.177,0.359c-0.091,0.184-0.206,0.395-0.347,0.631
					c-0.139,0.237-0.302,0.485-0.49,0.744c-0.186,0.258-0.394,0.495-0.624,0.711s-0.478,0.393-0.743,0.533
					c-0.266,0.14-0.545,0.21-0.84,0.21c-0.417,0-0.768-0.133-1.051-0.399c-0.283-0.265-0.49-0.6-0.62-1.001
					c-0.244,0.409-0.534,0.734-0.872,0.976c-0.338,0.239-0.676,0.36-1.014,0.36c-0.266,0-0.506-0.048-0.721-0.146
					c-0.217-0.098-0.399-0.234-0.549-0.409c-0.152-0.177-0.269-0.383-0.351-0.62c-0.083-0.236-0.124-0.495-0.124-0.775
					c0-0.561,0.095-1.054,0.285-1.481c0.189-0.427,0.434-0.785,0.728-1.071c0.294-0.289,0.618-0.503,0.975-0.647
					s0.698-0.216,1.029-0.216c0.223,0,0.427,0.031,0.613,0.091c0.188,0.062,0.347,0.129,0.479,0.2
					c0.134,0.072,0.235,0.139,0.308,0.2c0.071,0.061,0.11,0.094,0.118,0.102c0.08,0.093,0.119,0.19,0.119,0.29
					c0,0.107-0.039,0.203-0.119,0.287c-0.078,0.081-0.172,0.123-0.279,0.123c-0.115,0-0.213-0.04-0.292-0.118
					c-0.015-0.015-0.046-0.042-0.097-0.082c-0.05-0.039-0.119-0.08-0.205-0.124c-0.085-0.042-0.188-0.08-0.307-0.112
					c-0.119-0.032-0.253-0.049-0.403-0.049c-0.224,0-0.461,0.051-0.712,0.151c-0.252,0.101-0.48,0.256-0.688,0.469
					c-0.209,0.211-0.384,0.478-0.522,0.797c-0.141,0.32-0.211,0.699-0.211,1.137c0,0.137,0.015,0.274,0.043,0.414
					c0.028,0.141,0.079,0.269,0.151,0.383c0.071,0.115,0.169,0.209,0.29,0.28c0.122,0.072,0.273,0.108,0.453,0.108
					c0.129,0,0.278-0.044,0.447-0.13c0.168-0.085,0.33-0.22,0.484-0.399c0.155-0.179,0.295-0.405,0.42-0.678
					c0.126-0.273,0.214-0.596,0.264-0.97c0.015-0.101,0.062-0.185,0.141-0.254c0.078-0.067,0.172-0.102,0.279-0.102
					c0.102,0,0.189,0.039,0.265,0.117c0.075,0.081,0.117,0.171,0.124,0.271c0.007,0.137,0.021,0.328,0.043,0.576
					s0.07,0.494,0.146,0.738c0.076,0.244,0.188,0.456,0.339,0.635c0.152,0.18,0.359,0.271,0.625,0.271
					c0.173,0,0.344-0.047,0.513-0.141c0.169-0.093,0.333-0.217,0.495-0.371c0.161-0.155,0.316-0.331,0.463-0.529
					c0.147-0.197,0.282-0.396,0.404-0.597c0.122-0.201,0.23-0.396,0.323-0.582s0.173-0.349,0.237-0.484
					c0.035-0.079,0.088-0.141,0.156-0.184s0.142-0.065,0.221-0.065c0.121,0,0.221,0.046,0.296,0.135
					c0.075,0.09,0.114,0.186,0.114,0.286C165.984,30.008,165.973,30.058,165.951,30.108z M159.811,25.853
					c0,0.151-0.055,0.279-0.162,0.388c-0.107,0.107-0.24,0.162-0.398,0.162c-0.15,0-0.28-0.055-0.387-0.162
					c-0.109-0.108-0.162-0.236-0.162-0.388c0-0.157,0.053-0.291,0.162-0.399c0.106-0.107,0.236-0.161,0.387-0.161
					c0.158,0,0.291,0.054,0.398,0.161C159.756,25.562,159.811,25.695,159.811,25.853z M161.814,25.853
					c0,0.151-0.055,0.279-0.162,0.388c-0.107,0.107-0.244,0.162-0.41,0.162c-0.15,0-0.279-0.055-0.387-0.162
					c-0.107-0.108-0.162-0.236-0.162-0.388c0-0.157,0.055-0.291,0.162-0.399c0.107-0.107,0.236-0.161,0.387-0.161
					c0.166,0,0.303,0.054,0.41,0.161C161.76,25.562,161.814,25.695,161.814,25.853z"/>
				<path fill="#3AA8DB" d="M166.339,28.687c-0.028,0.193-0.064,0.374-0.107,0.544c-0.043,0.168-0.085,0.315-0.124,0.44
					c-0.039,0.127-0.074,0.229-0.102,0.308c-0.029,0.079-0.047,0.122-0.055,0.13c-0.072,0.165-0.197,0.247-0.377,0.247
					c-0.101,0-0.194-0.037-0.28-0.112c-0.086-0.076-0.129-0.172-0.129-0.286c0-0.043,0.007-0.075,0.022-0.097
					c0.014-0.022,0.035-0.064,0.063-0.13c0.028-0.063,0.064-0.172,0.107-0.322c0.043-0.151,0.097-0.385,0.161-0.7
					c-0.121,0-0.246-0.004-0.375-0.012c-0.131-0.006-0.25-0.032-0.361-0.074c-0.111-0.044-0.203-0.111-0.275-0.205
					s-0.108-0.224-0.108-0.388c0-0.122,0.035-0.288,0.103-0.496c0.068-0.208,0.16-0.413,0.275-0.614s0.244-0.375,0.388-0.522
					s0.287-0.221,0.431-0.221c0.166,0,0.301,0.061,0.404,0.183c0.104,0.124,0.186,0.272,0.242,0.447
					c0.057,0.176,0.1,0.361,0.124,0.555c0.026,0.193,0.038,0.363,0.038,0.507c0.122,0,0.242-0.002,0.36-0.004
					c0.118-0.004,0.231-0.006,0.34-0.006c0.409,0,0.722,0.09,0.937,0.27c0.216,0.18,0.324,0.475,0.324,0.884
					c0,0.164-0.012,0.338-0.033,0.517c-0.021,0.18-0.046,0.364-0.075,0.555c-0.028,0.19-0.054,0.379-0.076,0.566
					c-0.021,0.186-0.031,0.369-0.031,0.549c0,0.259,0.036,0.473,0.107,0.642c0.071,0.168,0.161,0.303,0.271,0.403
					c0.106,0.1,0.221,0.17,0.344,0.21c0.122,0.039,0.234,0.06,0.334,0.06c0.309,0,0.6-0.101,0.872-0.302
					c0.273-0.201,0.524-0.444,0.755-0.727c0.229-0.283,0.436-0.583,0.619-0.9c0.182-0.316,0.335-0.592,0.457-0.83
					c0.035-0.063,0.086-0.115,0.151-0.15c0.063-0.035,0.134-0.054,0.204-0.054c0.131,0,0.23,0.041,0.303,0.123
					c0.072,0.084,0.107,0.176,0.107,0.276c0,0.071-0.014,0.136-0.043,0.193c-0.166,0.295-0.357,0.627-0.577,0.998
					c-0.219,0.369-0.468,0.715-0.747,1.039c-0.281,0.323-0.596,0.596-0.943,0.818s-0.73,0.334-1.148,0.334
					c-0.258,0-0.502-0.048-0.732-0.145c-0.229-0.098-0.43-0.238-0.598-0.421s-0.304-0.409-0.404-0.679
					c-0.1-0.27-0.15-0.573-0.15-0.911c0-0.358,0.037-0.716,0.107-1.071c0.072-0.355,0.109-0.694,0.109-1.018
					c0-0.137-0.032-0.239-0.092-0.308c-0.062-0.068-0.197-0.103-0.404-0.103c-0.101,0-0.211,0-0.329,0
					S166.476,28.678,166.339,28.687z M165.617,27.889c0-0.051-0.001-0.117-0.006-0.199c-0.004-0.083-0.01-0.164-0.021-0.243
					c-0.01-0.079-0.024-0.146-0.043-0.205c-0.018-0.058-0.037-0.086-0.059-0.086s-0.049,0.027-0.081,0.081s-0.065,0.118-0.103,0.193
					c-0.035,0.076-0.068,0.156-0.097,0.242c-0.029,0.087-0.05,0.159-0.063,0.216H165.617z"/>
				<path fill="#3AA8DB" d="M173.094,29.128c-0.043,0.114-0.095,0.244-0.156,0.387c-0.062,0.145-0.131,0.296-0.21,0.453
					c-0.064,0.122-0.132,0.217-0.199,0.285c-0.069,0.07-0.155,0.103-0.265,0.103c-0.121,0-0.219-0.037-0.29-0.112
					c-0.072-0.076-0.107-0.163-0.107-0.265c0-0.036,0.003-0.066,0.011-0.091c0.006-0.026,0.024-0.067,0.055-0.124
					c0.186-0.359,0.324-0.674,0.414-0.942c0.088-0.27,0.162-0.552,0.221-0.847c-0.051-0.165-0.086-0.305-0.107-0.421
					c-0.022-0.113-0.032-0.232-0.032-0.354c0-0.236,0.05-0.429,0.15-0.577c0.101-0.146,0.24-0.22,0.42-0.22
					c0.165,0,0.296,0.071,0.393,0.215c0.098,0.144,0.146,0.319,0.146,0.529c0,0.115-0.011,0.229-0.032,0.343
					c-0.021,0.117-0.051,0.26-0.086,0.432c0.165,0.411,0.33,0.772,0.496,1.089c0.165,0.315,0.312,0.605,0.442,0.867
					c0.128,0.263,0.234,0.508,0.316,0.738c0.083,0.229,0.124,0.459,0.124,0.689c0,0.302-0.062,0.59-0.184,0.862
					s-0.323,0.503-0.604,0.689c0.036,0.007,0.072,0.01,0.108,0.01s0.072,0,0.108,0c0.409,0,0.787-0.093,1.131-0.279
					c0.345-0.188,0.655-0.43,0.931-0.727c0.277-0.299,0.523-0.629,0.739-0.991c0.216-0.363,0.401-0.725,0.56-1.083
					c0.072-0.165,0.173-0.249,0.302-0.249c0.122,0,0.219,0.044,0.286,0.131c0.068,0.085,0.102,0.18,0.102,0.28
					c0,0.057-0.011,0.111-0.032,0.162c-0.078,0.193-0.182,0.414-0.307,0.662c-0.126,0.248-0.276,0.503-0.453,0.765
					c-0.177,0.263-0.379,0.52-0.609,0.771c-0.229,0.251-0.486,0.477-0.769,0.674c-0.284,0.197-0.595,0.355-0.933,0.474
					s-0.707,0.178-1.109,0.178c-0.481,0-0.929-0.085-1.342-0.253c-0.413-0.169-0.748-0.447-1.007-0.835
					c-0.043-0.065-0.064-0.133-0.064-0.205c0-0.107,0.041-0.202,0.123-0.285c0.083-0.083,0.179-0.124,0.286-0.124
					c0.114,0,0.212,0.039,0.291,0.118c0.007,0.014,0.032,0.038,0.076,0.071c0.042,0.031,0.095,0.067,0.154,0.107
					c0.062,0.04,0.134,0.072,0.216,0.103c0.083,0.028,0.168,0.042,0.254,0.042c0.172,0,0.318-0.036,0.437-0.107
					c0.118-0.072,0.213-0.159,0.286-0.264c0.07-0.104,0.123-0.216,0.155-0.335c0.033-0.117,0.049-0.221,0.049-0.307
					c0-0.18-0.029-0.359-0.086-0.539c-0.058-0.179-0.132-0.358-0.222-0.538s-0.187-0.364-0.29-0.555
					C173.275,29.536,173.181,29.335,173.094,29.128z"/>
				<path fill="#3AA8DB" d="M180.215,31.789c0.122,0.271,0.324,0.49,0.604,0.651c0.279,0.162,0.595,0.242,0.947,0.242
					c0.107,0,0.283-0.016,0.527-0.048c0.245-0.032,0.526-0.141,0.846-0.323c0.32-0.185,0.66-0.473,1.018-0.868
					c0.359-0.395,0.709-0.951,1.045-1.669c0.038-0.08,0.088-0.139,0.151-0.177c0.064-0.04,0.137-0.061,0.216-0.061
					c0.122,0,0.221,0.044,0.297,0.131c0.075,0.085,0.113,0.18,0.113,0.28c0,0.043-0.015,0.101-0.044,0.171
					c-0.251,0.525-0.531,0.993-0.84,1.406c-0.31,0.414-0.643,0.765-1.002,1.057c-0.36,0.291-0.734,0.514-1.127,0.667
					c-0.391,0.155-0.791,0.232-1.2,0.232c-0.323,0-0.627-0.05-0.911-0.151c-0.283-0.1-0.527-0.234-0.732-0.404
					c-0.204-0.168-0.365-0.358-0.484-0.57s-0.178-0.43-0.178-0.652c0-0.029,0.004-0.068,0.011-0.118
					c0.007-0.051,0.026-0.105,0.06-0.167c0.032-0.061,0.079-0.118,0.141-0.172c0.061-0.054,0.145-0.099,0.252-0.135
					c0.295-0.087,0.566-0.192,0.814-0.318c0.247-0.126,0.461-0.267,0.641-0.425s0.32-0.332,0.421-0.523
					c0.099-0.19,0.149-0.396,0.149-0.619c0-0.194-0.063-0.353-0.194-0.475c-0.129-0.122-0.287-0.183-0.474-0.183
					c-0.193,0-0.385,0.066-0.57,0.199c-0.187,0.133-0.368,0.31-0.545,0.528c-0.175,0.219-0.342,0.471-0.5,0.754
					c-0.158,0.284-0.304,0.58-0.438,0.889c-0.132,0.308-0.249,0.616-0.349,0.921c-0.101,0.305-0.185,0.587-0.249,0.845
					c-0.021,0.079-0.045,0.165-0.069,0.26c-0.025,0.094-0.063,0.181-0.113,0.263c-0.05,0.083-0.111,0.151-0.184,0.205
					s-0.164,0.081-0.279,0.081c-0.107,0-0.213-0.045-0.312-0.135c-0.101-0.09-0.15-0.243-0.15-0.459c0-0.042,0-0.207,0.005-0.495
					c0.004-0.287,0.009-0.662,0.017-1.125c0.006-0.464,0.015-0.995,0.026-1.595c0.011-0.6,0.02-1.235,0.027-1.907
					c0.007-0.671,0.017-1.363,0.032-2.073c0.014-0.712,0.024-1.404,0.031-2.08c0.008-0.675,0.017-1.315,0.027-1.922
					c0.011-0.606,0.02-1.146,0.027-1.617c0.007-0.47,0.012-0.854,0.017-1.152c0.003-0.297,0.006-0.476,0.006-0.533
					c0-0.115,0.042-0.21,0.128-0.285c0.086-0.076,0.18-0.113,0.28-0.113c0.113,0,0.212,0.037,0.291,0.113
					c0.079,0.075,0.118,0.174,0.118,0.296c0,0.015-0.002,0.156-0.005,0.425c-0.003,0.271-0.01,0.631-0.017,1.083
					c-0.007,0.452-0.017,0.98-0.026,1.584c-0.011,0.603-0.021,1.244-0.032,1.922c-0.011,0.679-0.022,1.378-0.033,2.096
					c-0.011,0.718-0.021,1.419-0.031,2.101c-0.012,0.683-0.021,1.333-0.027,1.95c-0.008,0.618-0.015,1.164-0.021,1.638
					c0.115-0.366,0.262-0.752,0.441-1.158s0.392-0.781,0.635-1.125c0.245-0.345,0.52-0.63,0.824-0.853
					c0.305-0.221,0.646-0.333,1.019-0.333c0.208,0,0.402,0.037,0.582,0.113c0.18,0.075,0.336,0.179,0.469,0.312
					c0.133,0.132,0.237,0.289,0.312,0.469s0.113,0.374,0.113,0.582c0,0.323-0.072,0.619-0.216,0.889s-0.334,0.51-0.571,0.722
					s-0.509,0.397-0.813,0.555C180.853,31.559,180.539,31.688,180.215,31.789z"/>
				<path fill="#3AA8DB" d="M193.531,30.108c-0.029,0.058-0.089,0.177-0.178,0.359c-0.09,0.184-0.205,0.395-0.345,0.631
					c-0.14,0.237-0.304,0.485-0.49,0.744c-0.187,0.258-0.396,0.495-0.625,0.711s-0.478,0.393-0.743,0.533
					c-0.267,0.14-0.547,0.21-0.841,0.21c-0.416,0-0.767-0.133-1.052-0.399c-0.283-0.265-0.489-0.6-0.618-1.001
					c-0.244,0.409-0.534,0.734-0.872,0.976c-0.338,0.239-0.676,0.36-1.013,0.36c-0.266,0-0.507-0.048-0.723-0.146
					s-0.398-0.234-0.55-0.409c-0.15-0.177-0.268-0.383-0.35-0.62c-0.083-0.236-0.123-0.495-0.123-0.775
					c0-0.561,0.095-1.054,0.284-1.481c0.19-0.427,0.434-0.785,0.728-1.071c0.294-0.289,0.62-0.503,0.976-0.647
					c0.356-0.144,0.698-0.216,1.029-0.216c0.222,0,0.427,0.031,0.613,0.091c0.186,0.062,0.347,0.129,0.479,0.2
					c0.135,0.072,0.236,0.139,0.308,0.2c0.072,0.061,0.111,0.094,0.12,0.102c0.077,0.093,0.116,0.19,0.116,0.29
					c0,0.107-0.039,0.203-0.116,0.287c-0.081,0.081-0.173,0.123-0.28,0.123c-0.116,0-0.213-0.04-0.292-0.118
					c-0.015-0.015-0.046-0.042-0.097-0.082c-0.052-0.039-0.118-0.08-0.204-0.124c-0.087-0.042-0.189-0.08-0.308-0.112
					c-0.119-0.032-0.253-0.049-0.404-0.049c-0.223,0-0.46,0.051-0.71,0.151c-0.252,0.101-0.481,0.256-0.691,0.469
					c-0.208,0.211-0.381,0.478-0.521,0.797c-0.14,0.32-0.211,0.699-0.211,1.137c0,0.137,0.015,0.274,0.044,0.414
					c0.028,0.141,0.079,0.269,0.15,0.383c0.072,0.115,0.169,0.209,0.291,0.28c0.122,0.072,0.273,0.108,0.453,0.108
					c0.129,0,0.278-0.044,0.447-0.13c0.167-0.085,0.33-0.22,0.484-0.399c0.153-0.179,0.294-0.405,0.421-0.678
					c0.125-0.273,0.213-0.596,0.263-0.97c0.015-0.101,0.062-0.185,0.14-0.254c0.08-0.067,0.174-0.102,0.28-0.102
					c0.102,0,0.188,0.039,0.265,0.117c0.075,0.081,0.116,0.171,0.123,0.271c0.008,0.137,0.022,0.328,0.044,0.576
					s0.07,0.494,0.146,0.738c0.074,0.244,0.187,0.456,0.338,0.635c0.15,0.18,0.359,0.271,0.625,0.271
					c0.171,0,0.343-0.047,0.512-0.141c0.169-0.093,0.334-0.217,0.495-0.371c0.162-0.155,0.316-0.331,0.464-0.529
					c0.146-0.197,0.281-0.396,0.404-0.597c0.122-0.201,0.229-0.396,0.323-0.582s0.172-0.349,0.237-0.484
					c0.034-0.079,0.088-0.141,0.155-0.184s0.142-0.065,0.222-0.065c0.122,0,0.22,0.046,0.296,0.135
					c0.076,0.09,0.112,0.186,0.112,0.286C193.562,30.008,193.552,30.058,193.531,30.108z"/>
				<path fill="#3AA8DB" d="M205.963,30.108c-0.028,0.058-0.088,0.177-0.178,0.359c-0.09,0.184-0.204,0.395-0.344,0.631
					c-0.141,0.237-0.305,0.485-0.49,0.744c-0.187,0.258-0.396,0.495-0.625,0.711c-0.23,0.216-0.478,0.393-0.744,0.533
					c-0.266,0.14-0.546,0.21-0.84,0.21c-0.417,0-0.767-0.133-1.05-0.399c-0.285-0.265-0.492-0.6-0.62-1.001
					c-0.244,0.409-0.535,0.734-0.872,0.976c-0.338,0.239-0.676,0.36-1.014,0.36c-0.267,0-0.506-0.048-0.722-0.146
					s-0.398-0.234-0.55-0.409c-0.15-0.177-0.268-0.383-0.35-0.62c-0.083-0.236-0.123-0.495-0.123-0.775
					c0-0.561,0.095-1.054,0.285-1.481c0.189-0.427,0.433-0.785,0.727-1.071c0.294-0.289,0.62-0.503,0.975-0.647
					c0.357-0.144,0.699-0.216,1.03-0.216c0.222,0,0.427,0.031,0.613,0.091c0.187,0.062,0.347,0.129,0.479,0.2
					c0.133,0.072,0.235,0.139,0.308,0.2c0.071,0.061,0.11,0.094,0.118,0.102c0.078,0.093,0.117,0.19,0.117,0.29
					c0,0.107-0.039,0.203-0.117,0.287c-0.079,0.081-0.172,0.123-0.281,0.123c-0.114,0-0.211-0.04-0.289-0.118
					c-0.016-0.015-0.048-0.042-0.098-0.082c-0.051-0.039-0.119-0.08-0.204-0.124c-0.086-0.042-0.188-0.08-0.308-0.112
					s-0.254-0.049-0.404-0.049c-0.223,0-0.46,0.051-0.711,0.151c-0.252,0.101-0.482,0.256-0.69,0.469
					c-0.208,0.211-0.382,0.478-0.521,0.797c-0.141,0.32-0.21,0.699-0.21,1.137c0,0.137,0.014,0.274,0.043,0.414
					c0.028,0.141,0.079,0.269,0.15,0.383c0.072,0.115,0.169,0.209,0.291,0.28c0.122,0.072,0.273,0.108,0.453,0.108
					c0.129,0,0.278-0.044,0.447-0.13c0.169-0.085,0.33-0.22,0.484-0.399c0.153-0.179,0.294-0.405,0.421-0.678
					c0.125-0.273,0.213-0.596,0.263-0.97c0.015-0.101,0.062-0.185,0.14-0.254c0.08-0.067,0.174-0.102,0.28-0.102
					c0.101,0,0.188,0.039,0.265,0.117c0.075,0.081,0.116,0.171,0.123,0.271c0.008,0.137,0.022,0.328,0.044,0.576
					s0.069,0.494,0.146,0.738c0.074,0.244,0.188,0.456,0.338,0.635c0.152,0.18,0.359,0.271,0.625,0.271
					c0.173,0,0.343-0.047,0.512-0.141c0.168-0.093,0.334-0.217,0.496-0.371c0.161-0.155,0.315-0.331,0.463-0.529
					c0.146-0.197,0.282-0.396,0.404-0.597c0.122-0.201,0.229-0.396,0.323-0.582c0.092-0.187,0.172-0.349,0.236-0.484
					c0.037-0.079,0.089-0.141,0.156-0.184c0.069-0.043,0.142-0.065,0.222-0.065c0.122,0,0.22,0.046,0.296,0.135
					c0.075,0.09,0.112,0.186,0.112,0.286C205.995,30.008,205.985,30.058,205.963,30.108z M199.823,25.853
					c0,0.151-0.055,0.279-0.163,0.388c-0.106,0.107-0.239,0.162-0.397,0.162c-0.151,0-0.28-0.055-0.389-0.162
					c-0.107-0.108-0.162-0.236-0.162-0.388c0-0.157,0.055-0.291,0.162-0.399c0.108-0.107,0.237-0.161,0.389-0.161
					c0.158,0,0.291,0.054,0.397,0.161C199.769,25.562,199.823,25.695,199.823,25.853z M201.826,25.853
					c0,0.151-0.054,0.279-0.161,0.388c-0.108,0.107-0.245,0.162-0.41,0.162c-0.149,0-0.28-0.055-0.388-0.162
					c-0.107-0.108-0.161-0.236-0.161-0.388c0-0.157,0.054-0.291,0.161-0.399c0.107-0.107,0.238-0.161,0.388-0.161
					c0.165,0,0.302,0.054,0.41,0.161C201.772,25.562,201.826,25.695,201.826,25.853z"/>
				<path fill="#3AA8DB" d="M209.12,34.17c1.351-1.76,2.287-3.222,2.812-4.385c0.036-0.079,0.084-0.139,0.146-0.179
					c0.062-0.039,0.132-0.059,0.21-0.059c0.123,0,0.224,0.041,0.303,0.123c0.079,0.084,0.117,0.179,0.117,0.286
					c0,0.051-0.011,0.101-0.031,0.151c-0.316,0.719-0.766,1.52-1.348,2.402s-1.317,1.882-2.208,2.994
					c0,0.453,0.003,0.905,0.011,1.358c0.008,0.452,0.011,0.948,0.011,1.486s-0.013,1.072-0.038,1.6s-0.07,1.03-0.136,1.508
					c-0.062,0.479-0.152,0.92-0.263,1.326c-0.111,0.405-0.255,0.757-0.431,1.056c-0.176,0.298-0.388,0.533-0.636,0.699
					c-0.248,0.17-0.541,0.254-0.879,0.254c-0.48,0-0.851-0.184-1.108-0.549c-0.26-0.366-0.389-0.888-0.389-1.562
					c0-0.359,0.035-0.748,0.103-1.169c0.069-0.42,0.167-0.853,0.296-1.298c0.13-0.446,0.286-0.896,0.469-1.353
					c0.184-0.454,0.387-0.9,0.608-1.331c0.224-0.431,0.466-0.844,0.728-1.238c0.263-0.396,0.541-0.755,0.835-1.077
					c0.007-0.503,0.013-1.002,0.017-1.498c0.003-0.495,0.013-0.951,0.027-1.368c-0.217,0.273-0.474,0.488-0.771,0.646
					s-0.594,0.237-0.888,0.237c-0.252,0-0.479-0.048-0.685-0.146c-0.204-0.098-0.379-0.234-0.521-0.409
					c-0.145-0.177-0.255-0.383-0.335-0.62c-0.08-0.236-0.118-0.495-0.118-0.775c0-0.561,0.096-1.054,0.286-1.481
					c0.189-0.427,0.433-0.785,0.727-1.071c0.294-0.289,0.62-0.503,0.975-0.647c0.355-0.144,0.699-0.216,1.028-0.216
					c0.225,0,0.429,0.028,0.615,0.086c0.186,0.058,0.347,0.122,0.479,0.194c0.133,0.071,0.236,0.14,0.308,0.204
					c0.072,0.065,0.111,0.101,0.118,0.108c0.079,0.086,0.118,0.184,0.118,0.29c0,0.107-0.039,0.203-0.118,0.287
					c-0.079,0.081-0.173,0.123-0.28,0.123c-0.101,0-0.197-0.04-0.29-0.118c-0.029-0.022-0.067-0.053-0.113-0.092
					c-0.047-0.04-0.107-0.081-0.185-0.124c-0.075-0.043-0.164-0.079-0.269-0.108c-0.104-0.028-0.228-0.043-0.371-0.043
					c-0.216,0-0.453,0.049-0.712,0.146c-0.259,0.097-0.499,0.249-0.722,0.457c-0.223,0.209-0.409,0.477-0.561,0.803
					c-0.15,0.326-0.226,0.72-0.226,1.18c0,0.345,0.075,0.623,0.226,0.835c0.151,0.212,0.385,0.318,0.7,0.318
					c0.152,0,0.311-0.044,0.481-0.13c0.167-0.085,0.331-0.22,0.489-0.399c0.157-0.179,0.296-0.405,0.415-0.678
					c0.118-0.273,0.201-0.596,0.252-0.97c0.016-0.101,0.062-0.185,0.141-0.254c0.079-0.067,0.173-0.102,0.28-0.102
					c0.122,0,0.217,0.043,0.285,0.129c0.068,0.086,0.103,0.182,0.103,0.291c0,0.008-0.004,0.116-0.011,0.328
					c-0.008,0.212-0.015,0.494-0.022,0.846c-0.007,0.353-0.015,0.76-0.025,1.224C209.136,33.162,209.126,33.652,209.12,34.17z
					 M208.301,36.529c-0.338,0.467-0.643,0.975-0.916,1.523c-0.272,0.551-0.506,1.104-0.699,1.665
					c-0.194,0.561-0.344,1.104-0.447,1.632c-0.104,0.528-0.157,1-0.157,1.417c0,0.266,0.024,0.478,0.071,0.636
					c0.047,0.159,0.103,0.28,0.172,0.366c0.067,0.086,0.144,0.144,0.226,0.173c0.083,0.028,0.16,0.042,0.232,0.042
					c0.224,0,0.417-0.089,0.581-0.27c0.166-0.179,0.306-0.418,0.422-0.716c0.113-0.298,0.207-0.641,0.279-1.029
					c0.071-0.387,0.126-0.787,0.161-1.2c0.036-0.414,0.062-0.824,0.075-1.233c0.015-0.41,0.021-0.787,0.021-1.132
					c0-0.308,0-0.617,0-0.926C208.322,37.168,208.315,36.853,208.301,36.529z"/>
				<path fill="#3AA8DB" d="M215.832,34.17c1.35-1.76,2.288-3.222,2.812-4.385c0.036-0.079,0.085-0.139,0.146-0.179
					c0.061-0.039,0.131-0.059,0.209-0.059c0.123,0,0.224,0.041,0.302,0.123c0.08,0.084,0.118,0.179,0.118,0.286
					c0,0.051-0.011,0.101-0.032,0.151c-0.316,0.719-0.765,1.52-1.347,2.402s-1.317,1.882-2.208,2.994
					c0,0.453,0.004,0.905,0.011,1.358c0.008,0.452,0.011,0.948,0.011,1.486s-0.013,1.072-0.038,1.6s-0.069,1.03-0.134,1.508
					c-0.065,0.479-0.152,0.92-0.265,1.326c-0.111,0.405-0.255,0.757-0.431,1.056c-0.176,0.298-0.388,0.533-0.637,0.699
					c-0.246,0.17-0.539,0.254-0.878,0.254c-0.481,0-0.851-0.184-1.108-0.549c-0.26-0.366-0.388-0.888-0.388-1.562
					c0-0.359,0.033-0.748,0.102-1.169c0.068-0.42,0.167-0.853,0.297-1.298c0.129-0.446,0.284-0.896,0.469-1.353
					c0.183-0.454,0.386-0.9,0.607-1.331c0.224-0.431,0.467-0.844,0.728-1.238c0.262-0.396,0.541-0.755,0.835-1.077
					c0.008-0.503,0.013-1.002,0.017-1.498c0.004-0.495,0.013-0.951,0.027-1.368c-0.216,0.273-0.474,0.488-0.771,0.646
					c-0.299,0.158-0.596,0.237-0.889,0.237c-0.252,0-0.48-0.048-0.685-0.146c-0.205-0.098-0.379-0.234-0.523-0.409
					c-0.144-0.177-0.253-0.383-0.333-0.62c-0.079-0.236-0.118-0.495-0.118-0.775c0-0.561,0.095-1.054,0.285-1.481
					c0.19-0.427,0.433-0.785,0.727-1.071c0.295-0.289,0.62-0.503,0.977-0.647c0.355-0.144,0.697-0.216,1.028-0.216
					c0.222,0,0.427,0.028,0.614,0.086c0.187,0.058,0.346,0.122,0.479,0.194c0.132,0.071,0.235,0.14,0.307,0.204
					c0.072,0.065,0.111,0.101,0.117,0.108c0.08,0.086,0.119,0.184,0.119,0.29c0,0.107-0.039,0.203-0.119,0.287
					c-0.077,0.081-0.171,0.123-0.279,0.123c-0.101,0-0.197-0.04-0.291-0.118c-0.027-0.022-0.066-0.053-0.112-0.092
					c-0.046-0.04-0.107-0.081-0.184-0.124c-0.075-0.043-0.164-0.079-0.269-0.108c-0.104-0.028-0.229-0.043-0.372-0.043
					c-0.216,0-0.454,0.049-0.711,0.146c-0.259,0.097-0.499,0.249-0.724,0.457c-0.221,0.209-0.407,0.477-0.56,0.803
					c-0.15,0.326-0.226,0.72-0.226,1.18c0,0.345,0.075,0.623,0.226,0.835c0.152,0.212,0.385,0.318,0.7,0.318
					c0.152,0,0.312-0.044,0.48-0.13c0.169-0.085,0.332-0.22,0.49-0.399c0.157-0.179,0.296-0.405,0.415-0.678
					c0.118-0.273,0.202-0.596,0.254-0.97c0.014-0.101,0.06-0.185,0.14-0.254c0.079-0.067,0.172-0.102,0.279-0.102
					c0.121,0,0.218,0.043,0.285,0.129c0.068,0.086,0.102,0.182,0.102,0.291c0,0.008-0.002,0.116-0.01,0.328
					c-0.007,0.212-0.015,0.494-0.021,0.846c-0.007,0.353-0.016,0.76-0.027,1.224C215.849,33.162,215.84,33.652,215.832,34.17z
					 M215.013,36.529c-0.337,0.467-0.642,0.975-0.917,1.523c-0.271,0.551-0.505,1.104-0.698,1.665s-0.344,1.104-0.447,1.632
					c-0.104,0.528-0.156,1-0.156,1.417c0,0.266,0.023,0.478,0.069,0.636c0.047,0.159,0.104,0.28,0.174,0.366
					c0.066,0.086,0.142,0.144,0.227,0.173c0.081,0.028,0.158,0.042,0.23,0.042c0.224,0,0.416-0.089,0.582-0.27
					c0.165-0.179,0.305-0.418,0.42-0.716c0.114-0.298,0.208-0.641,0.28-1.029c0.071-0.387,0.125-0.787,0.16-1.2
					c0.037-0.414,0.062-0.824,0.076-1.233c0.014-0.41,0.022-0.787,0.022-1.132c0-0.308,0-0.617,0-0.926
					C215.035,37.168,215.026,36.853,215.013,36.529z"/>
			</g>
		</g>
		<path fill="#3AA8DB" d="M97.268,25.275l1.654-0.248l-1.486-1.293l-0.006,0.049c-0.037-0.078-0.08-0.155-0.132-0.229
			c0.329-0.28,0.333-0.913-0.007-1.474c-0.365-0.6-0.986-0.888-1.389-0.642c-0.096,0.058-0.169,0.141-0.223,0.241
			c-0.004-0.008-0.008-0.017-0.014-0.024c-0.365-0.6-1.023-0.865-1.471-0.593c-0.448,0.274-0.516,0.98-0.15,1.579
			c0.025,0.042,0.052,0.081,0.08,0.12c-1.948,0.568-3.744,2.739-4.819,3.613c-1.251,1.016-2.646,2.137-3.661,2.058
			c-1.017-0.078-1.616-0.924-3.805-2.683c-2.189-1.761-3.076-0.132-3.076-0.132c-0.677,0.938,0.066,2.124,0.066,2.124
			c-1.213,0.222-1.916,1.643-0.079,2.932c-1.706,2.189,1.107,2.867,1.107,2.867c-0.261,0.417-0.833,2.45,1.668,2.293
			c1.251-0.078,1.811,0.442,3.284,1.146c1.542,0.737,3,1.005,3.817,1.103v2.79l-0.852,0.955c-0.144,0.161-0.13,0.408,0.031,0.552
			c0.074,0.066,0.167,0.1,0.261,0.1c0.106,0,0.214-0.044,0.291-0.131l0.724-0.811l0.767,0.941h2.218
			c0.216,0,0.392-0.175,0.392-0.391s-0.176-0.392-0.392-0.392h-1.847L89.41,40.7v-2.562c8.746,0.272,6.553-10.123,6.553-10.123
			c-0.232-1.069,0.332-1.674,1.021-2.417l-0.688,0.896c0,0-0.585,0.687-0.048,1.408c0.246,0.29,0.569,0.325,0.569,0.325
			s0.319,0.06,0.64-0.148c0.721-0.536,0.359-1.363,0.359-1.363L97.268,25.275z"/>
		<path fill="#3AA8DB" d="M230.8,25.275l-1.654-0.248l1.485-1.293l0.006,0.049c0.036-0.078,0.08-0.155,0.133-0.229
			c-0.33-0.28-0.333-0.913,0.006-1.474c0.366-0.6,0.988-0.888,1.39-0.642c0.095,0.058,0.169,0.141,0.222,0.241
			c0.005-0.008,0.009-0.017,0.014-0.024c0.366-0.6,1.024-0.865,1.472-0.593c0.448,0.274,0.515,0.98,0.15,1.579
			c-0.025,0.042-0.052,0.081-0.079,0.12c1.947,0.568,3.743,2.739,4.818,3.613c1.25,1.016,2.645,2.137,3.661,2.058
			c1.016-0.078,1.616-0.924,3.805-2.683c2.188-1.761,3.075-0.132,3.075-0.132c0.678,0.938-0.064,2.124-0.064,2.124
			c1.21,0.222,1.915,1.643,0.077,2.932c1.707,2.189-1.106,2.867-1.106,2.867c0.26,0.417,0.833,2.45-1.669,2.293
			c-1.25-0.078-1.81,0.442-3.283,1.146c-1.543,0.737-3,1.005-3.817,1.103v2.79l0.852,0.955c0.144,0.161,0.13,0.408-0.031,0.552
			c-0.075,0.066-0.168,0.1-0.26,0.1c-0.108,0-0.216-0.044-0.292-0.131l-0.725-0.811l-0.767,0.941h-2.218
			c-0.216,0-0.391-0.175-0.391-0.391s0.175-0.392,0.391-0.392h1.846l0.812-0.996v-2.562c-8.746,0.272-6.554-10.123-6.554-10.123
			c0.232-1.069-0.33-1.674-1.02-2.417l0.688,0.896c0,0,0.585,0.687,0.048,1.408c-0.247,0.29-0.57,0.325-0.57,0.325
			s-0.319,0.06-0.639-0.148c-0.722-0.536-0.359-1.363-0.359-1.363L230.8,25.275z"/>
	</g>
</g>
</svg>
