<?xml version="1.0" encoding="utf-8"?>
<!-- Generator: Adobe Illustrator 15.0.2, SVG Export Plug-In . SVG Version: 6.00 Build 0)  -->
<!DOCTYPE svg PUBLIC "-//W3C//DTD SVG 1.1//EN" "http://www.w3.org/Graphics/SVG/1.1/DTD/svg11.dtd">
<svg version="1.1" id="Lager_1" xmlns="http://www.w3.org/2000/svg" xmlns:xlink="http://www.w3.org/1999/xlink" x="0px" y="0px"
	 width="327.812px" height="103.867px" viewBox="0 0 327.812 103.867" enable-background="new 0 0 327.812 103.867"
	 xml:space="preserve">
<g>
	<g>
		<path fill="#FFFFFF" d="M129.623,34.722h-0.031C126.201,16.699,113.778,0,98.964,0C84.229,0,71.863,16.475,68.395,34.389
			l0.021,0.027h-0.018c-0.627,3.273-0.966,6.592-0.981,9.867c-0.103,21.623,13.938,39.22,31.362,39.309
			c17.423,0.086,31.631-17.37,31.733-38.992C130.527,41.325,130.219,38.003,129.623,34.722z"/>
		<path fill="#F5F5F6" stroke="#F5F5F6" stroke-width="0.5217" stroke-miterlimit="10" d="M79.15,41.928"/>
		<path fill="#F8F7F7" d="M98.778,83.592c-17.424-0.089-31.464-17.686-31.362-39.309c0.015-3.275,0.354-6.594,0.981-9.867h0.018
			l-0.021-0.027C71.863,16.475,84.229,0,98.964,0L98.778,83.592z"/>
		<path fill="#F5F5F6" d="M129.623,34.722"/>
	</g>
	<g>
		<path fill="#FFFFFF" d="M64.499,34.722h-0.032C61.077,16.699,48.654,0,33.84,0C19.105,0,6.739,16.475,3.271,34.389l0.021,0.027
			H3.273c-0.627,3.273-0.966,6.592-0.981,9.867C2.189,65.906,16.23,83.503,33.654,83.592c17.423,0.086,31.631-17.37,31.733-38.992
			C65.403,41.325,65.095,38.003,64.499,34.722z"/>
		<path fill="#F5F5F6" stroke="#F5F5F6" stroke-width="0.5217" stroke-miterlimit="10" d="M14.026,41.928"/>
		<path fill="#F8F7F7" d="M33.654,83.592C16.23,83.503,2.189,65.906,2.292,44.283c0.015-3.275,0.354-6.594,0.981-9.867h0.018
			l-0.021-0.027C6.739,16.475,19.105,0,33.84,0L33.654,83.592z"/>
		<path fill="#F5F5F6" d="M64.499,34.722"/>
	</g>
	<g>
		<path fill="#FFFFFF" d="M324.994,34.722h-0.032C321.571,16.699,309.148,0,294.334,0c-14.734,0-27.101,16.475-30.568,34.389
			l0.021,0.027h-0.019c-0.627,3.273-0.966,6.592-0.98,9.867c-0.103,21.623,13.938,39.22,31.362,39.309
			c17.423,0.086,31.631-17.37,31.733-38.992C325.897,41.325,325.59,38.003,324.994,34.722z"/>
		<path fill="#F5F5F6" stroke="#F5F5F6" stroke-width="0.5217" stroke-miterlimit="10" d="M274.521,41.928"/>
		<path fill="#F8F7F7" d="M294.149,83.592c-17.424-0.089-31.465-17.686-31.362-39.309c0.015-3.275,0.354-6.594,0.98-9.867h0.019
			l-0.021-0.027C267.233,16.475,279.6,0,294.334,0L294.149,83.592z"/>
		<path fill="#F5F5F6" d="M324.994,34.722"/>
	</g>
	<g>
		<path fill="#FFFFFF" d="M259.87,34.722h-0.032C256.447,16.699,244.023,0,229.211,0c-14.735,0-27.102,16.475-30.569,34.389
			l0.02,0.027h-0.018c-0.627,3.273-0.966,6.592-0.98,9.867c-0.103,21.623,13.938,39.22,31.362,39.309
			c17.422,0.086,31.631-17.37,31.733-38.992C260.773,41.325,260.465,38.003,259.87,34.722z"/>
		<path fill="#F5F5F6" stroke="#F5F5F6" stroke-width="0.5217" stroke-miterlimit="10" d="M209.396,41.928"/>
		<path fill="#F8F7F7" d="M229.025,83.592c-17.425-0.089-31.465-17.686-31.362-39.309c0.015-3.275,0.354-6.594,0.98-9.867h0.018
			l-0.02-0.027C202.109,16.475,214.476,0,229.211,0L229.025,83.592z"/>
		<path fill="#F5F5F6" d="M259.87,34.722"/>
	</g>
	<path fill="#FFFCEF" d="M325.267,41.797H2.546C1.14,41.797,0,42.936,0,44.342v17.187h0.166l10.018,34.701
		c1.535,4.06,4.693,7.638,8.912,7.638h27.371c4.219,0,7.328-3.519,8.912-7.638l10.019-34.701h0.332l10.019,34.701
		c1.535,4.06,4.693,7.638,8.912,7.638h27.371c4.218,0,7.327-3.519,8.911-7.638l10.019-34.701h0.332l10.019,34.701
		c1.534,4.06,4.693,7.638,8.912,7.638h27.37c4.219,0,7.328-3.519,8.911-7.638l10.02-34.701h0.332l10.019,34.701
		c1.534,4.06,4.693,7.638,8.911,7.638h27.37c4.22,0,7.328-3.519,8.912-7.638l10.018-34.701h0.332l10.018,34.701
		c1.536,4.06,4.695,7.638,8.912,7.638h27.371c4.22,0,7.328-3.519,8.911-7.638l10.019-34.701h0.167V44.342
		C327.812,42.936,326.673,41.797,325.267,41.797z"/>
</g>
</svg>
