<?xml version="1.0" encoding="utf-8"?>
<!-- Generator: Adobe Illustrator 15.0.2, SVG Export Plug-In . SVG Version: 6.00 Build 0)  -->
<!DOCTYPE svg PUBLIC "-//W3C//DTD SVG 1.1//EN" "http://www.w3.org/Graphics/SVG/1.1/DTD/svg11.dtd">
<svg version="1.1" id="Lager_1" xmlns="http://www.w3.org/2000/svg" xmlns:xlink="http://www.w3.org/1999/xlink" x="0px" y="0px"
	 width="278.63px" height="57.689px" viewBox="0 0 278.63 57.689" enable-background="new 0 0 278.63 57.689" xml:space="preserve">
<g>
	<path fill="#36A9E1" d="M33.959,14.917l2.86-0.429l-2.569-2.234l-0.01,0.083c-0.063-0.135-0.14-0.268-0.229-0.396
		c0.57-0.484,0.577-1.58-0.012-2.548c-0.632-1.037-1.706-1.534-2.401-1.111c-0.165,0.101-0.292,0.245-0.383,0.417
		c-0.008-0.014-0.015-0.028-0.023-0.042c-0.632-1.036-1.771-1.495-2.545-1.024c-0.774,0.473-0.891,1.695-0.26,2.73
		c0.043,0.072,0.09,0.141,0.138,0.206c-3.368,0.983-6.474,4.737-8.333,6.248c-2.163,1.757-4.573,3.694-6.331,3.56
		c-1.757-0.136-2.794-1.6-6.579-4.641c-3.785-3.043-5.318-0.227-5.318-0.227c-1.171,1.623,0.113,3.672,0.113,3.672
		c-2.095,0.385-3.312,2.84-0.135,5.07c-2.952,3.785,1.915,4.957,1.915,4.957c-0.45,0.722-1.441,4.236,2.884,3.966
		c2.163-0.136,3.131,0.765,5.678,1.981c2.668,1.275,5.188,1.739,6.602,1.906v4.826l-1.473,1.65
		c-0.249,0.279-0.225,0.706,0.054,0.955c0.129,0.114,0.29,0.172,0.45,0.172c0.185,0,0.37-0.076,0.504-0.227l1.252-1.402l1.325,1.629
		h3.836c0.374,0,0.677-0.303,0.677-0.676c0-0.374-0.303-0.677-0.677-0.677h-3.193l-1.403-1.724v-4.428
		c15.125,0.471,11.333-17.506,11.333-17.506c-0.403-1.848,0.573-2.895,1.763-4.179l-1.188,1.548c0,0-1.011,1.188-0.084,2.436
		c0.427,0.502,0.986,0.562,0.986,0.562s0.553,0.104,1.105-0.256c1.247-0.928,0.621-2.357,0.621-2.357L33.959,14.917z"/>
	<path fill="#36A9E1" d="M244.671,14.917l-2.86-0.429l2.569-2.234l0.01,0.083c0.063-0.135,0.14-0.268,0.229-0.396
		c-0.569-0.484-0.576-1.58,0.013-2.548c0.632-1.037,1.706-1.534,2.401-1.111c0.164,0.101,0.291,0.245,0.383,0.417
		c0.009-0.014,0.016-0.028,0.023-0.042c0.633-1.036,1.771-1.495,2.545-1.024c0.775,0.473,0.892,1.695,0.26,2.73
		c-0.043,0.072-0.09,0.141-0.137,0.206c3.367,0.983,6.474,4.737,8.332,6.248c2.163,1.757,4.573,3.694,6.331,3.56
		c1.757-0.136,2.794-1.6,6.579-4.641c3.785-3.043,5.318-0.227,5.318-0.227c1.171,1.623-0.113,3.672-0.113,3.672
		c2.095,0.385,3.312,2.84,0.135,5.07c2.951,3.785-1.914,4.957-1.914,4.957c0.449,0.722,1.441,4.236-2.885,3.966
		c-2.162-0.136-3.131,0.765-5.678,1.981c-2.668,1.275-5.188,1.739-6.602,1.906v4.826l1.473,1.65
		c0.249,0.279,0.225,0.706-0.055,0.955c-0.129,0.114-0.289,0.172-0.449,0.172c-0.186,0-0.371-0.076-0.504-0.227l-1.252-1.402
		l-1.325,1.629h-3.836c-0.374,0-0.677-0.303-0.677-0.676c0-0.374,0.303-0.677,0.677-0.677h3.192l1.403-1.724v-4.428
		c-15.125,0.471-11.333-17.506-11.333-17.506c0.403-1.848-0.572-2.895-1.763-4.179l1.188,1.548c0,0,1.012,1.188,0.084,2.436
		c-0.427,0.502-0.986,0.562-0.986,0.562s-0.553,0.104-1.105-0.256c-1.246-0.928-0.62-2.357-0.62-2.357L244.671,14.917z"/>
	<g>
		<path fill="#36A9E1" d="M102.662,0c0.51,0,1.062,0.056,1.653,0.168c0.593,0.112,1.144,0.3,1.654,0.562
			c0.51,0.263,0.93,0.615,1.26,1.058s0.495,0.994,0.495,1.654c0,0.81-0.236,1.545-0.709,2.205c-0.473,0.66-1.137,1.227-1.991,1.699
			c-0.855,0.472-1.879,0.84-3.071,1.103c-1.192,0.262-2.509,0.394-3.949,0.394c-1.619,0-3.374-0.112-5.265-0.337
			c-0.345,1.08-0.604,2.288-0.775,3.623c-0.173,1.335-0.267,2.82-0.281,4.455c0.569-0.015,1.15-0.026,1.743-0.034
			c0.593-0.007,1.204-0.011,1.834-0.011c0.839,0,1.688,0.011,2.542,0.034c0.855,0.022,1.718,0.049,2.588,0.078
			c0.255,0.015,0.454,0.109,0.596,0.282c0.143,0.172,0.214,0.371,0.214,0.596c0,0.24-0.083,0.436-0.247,0.585
			c-0.165,0.15-0.36,0.225-0.586,0.225c-0.854,0-1.705-0.015-2.553-0.044c-0.849-0.03-1.684-0.045-2.509-0.045
			c-0.63,0-1.245,0.004-1.846,0.012c-0.6,0.007-1.192,0.018-1.776,0.034c0,0.21,0.003,0.413,0.011,0.607
			c0.007,0.195,0.011,0.397,0.011,0.607c0,2.34-0.353,4.421-1.058,6.244c-0.704,1.822-1.735,3.356-3.094,4.602
			c-1.356,1.244-3.025,2.189-5.006,2.834c-1.979,0.646-4.252,0.969-6.817,0.969c-1.891,0-3.566-0.169-5.028-0.507
			c-1.463-0.337-2.745-0.784-3.849-1.339c-1.102-0.555-2.047-1.182-2.834-1.879c-0.788-0.697-1.444-1.402-1.969-2.115
			c-0.525-0.712-0.945-1.402-1.261-2.07c-0.314-0.667-0.547-1.241-0.697-1.721c-0.015-0.045-0.026-0.086-0.033-0.124
			c-0.008-0.038-0.012-0.079-0.012-0.124c0-0.225,0.083-0.423,0.248-0.596c0.164-0.173,0.375-0.259,0.63-0.259
			c0.18,0,0.341,0.052,0.483,0.157s0.244,0.248,0.304,0.428c0.135,0.42,0.338,0.922,0.607,1.507
			c0.271,0.585,0.642,1.188,1.114,1.812c0.472,0.623,1.057,1.241,1.755,1.856c0.697,0.615,1.545,1.163,2.542,1.643
			c0.998,0.479,2.153,0.869,3.466,1.17c1.312,0.299,2.823,0.449,4.533,0.449c4.71,0,8.269-1.095,10.676-3.285
			c2.408-2.19,3.611-5.422,3.611-9.697c0-0.18-0.004-0.364-0.011-0.552c-0.008-0.187-0.012-0.371-0.012-0.551
			c-1.515,0.06-2.91,0.131-4.185,0.213c-1.275,0.083-2.389,0.165-3.341,0.248c-0.953,0.082-1.722,0.149-2.307,0.202
			s-0.945,0.079-1.08,0.079c-0.255,0-0.479-0.072-0.675-0.214c-0.195-0.143-0.293-0.356-0.293-0.642c0-0.21,0.075-0.394,0.225-0.551
			c0.15-0.157,0.331-0.251,0.541-0.281c0.015,0,0.304-0.03,0.866-0.09s1.339-0.131,2.328-0.214c0.99-0.082,2.16-0.165,3.51-0.248
			c1.351-0.083,2.82-0.154,4.41-0.214c0.03-3.314,0.375-6.105,1.035-8.37c-1.635-0.24-3.3-0.529-4.995-0.866
			s-3.382-0.693-5.062-1.069c-1.68-0.375-3.334-0.746-4.961-1.114c-1.627-0.367-3.191-0.701-4.691-1.001
			c-1.5-0.3-2.91-0.541-4.229-0.721c-1.32-0.18-2.521-0.269-3.601-0.269c-1.515,0-2.925,0.153-4.229,0.461
			c-1.306,0.308-2.435,0.754-3.387,1.339s-1.702,1.301-2.249,2.148C53.076,8.036,52.803,9,52.803,10.08
			c0,0.705,0.131,1.338,0.394,1.901c0.262,0.562,0.558,1.042,0.889,1.44c0.33,0.397,0.637,0.705,0.922,0.922
			c0.285,0.218,0.443,0.334,0.473,0.349c0.135,0.075,0.232,0.18,0.293,0.315c0.06,0.135,0.09,0.27,0.09,0.405
			c0,0.254-0.087,0.461-0.259,0.618c-0.173,0.158-0.364,0.236-0.574,0.236c-0.165,0-0.322-0.052-0.473-0.157
			c-0.359-0.24-0.742-0.555-1.147-0.945c-0.404-0.39-0.775-0.836-1.113-1.338c-0.338-0.503-0.619-1.069-0.844-1.699
			c-0.226-0.63-0.338-1.312-0.338-2.047c0-1.35,0.319-2.55,0.956-3.6c0.638-1.05,1.512-1.943,2.622-2.678s2.418-1.293,3.926-1.676
			c1.508-0.382,3.139-0.574,4.894-0.574c1.035,0,2.213,0.094,3.533,0.281c1.319,0.188,2.74,0.432,4.264,0.731
			c1.522,0.3,3.12,0.638,4.792,1.012c1.673,0.375,3.379,0.754,5.118,1.136c1.74,0.383,3.488,0.747,5.243,1.091
			s3.473,0.638,5.152,0.877c0.42-1.17,1.023-2.179,1.812-3.026c0.787-0.848,1.684-1.542,2.688-2.082s2.074-0.938,3.206-1.192
			C100.453,0.127,101.566,0,102.662,0z M106.015,3.397c0-0.36-0.116-0.648-0.35-0.866c-0.232-0.217-0.521-0.39-0.866-0.518
			c-0.345-0.127-0.708-0.213-1.091-0.258s-0.731-0.067-1.046-0.067c-0.72,0-1.519,0.075-2.396,0.225
			c-0.878,0.15-1.747,0.42-2.61,0.81c-0.862,0.39-1.672,0.922-2.43,1.597s-1.376,1.538-1.856,2.587
			c1.665,0.18,3.203,0.27,4.613,0.27c1.154,0,2.223-0.094,3.206-0.281c0.982-0.188,1.829-0.446,2.542-0.776
			c0.713-0.331,1.271-0.728,1.677-1.193C105.812,4.462,106.015,3.953,106.015,3.397z"/>
		<path fill="#36A9E1" d="M115.847,27.022c-0.06,0.12-0.184,0.371-0.371,0.753s-0.428,0.821-0.72,1.316
			c-0.292,0.495-0.634,1.012-1.023,1.553c-0.391,0.539-0.825,1.035-1.306,1.484c-0.479,0.449-0.997,0.821-1.553,1.113
			c-0.555,0.293-1.14,0.439-1.755,0.439c-0.869,0-1.602-0.277-2.193-0.833c-0.593-0.556-1.024-1.253-1.294-2.093
			c-0.51,0.855-1.117,1.534-1.822,2.037c-0.705,0.502-1.41,0.754-2.115,0.754c-0.555,0-1.058-0.102-1.508-0.305
			c-0.45-0.202-0.832-0.487-1.147-0.854c-0.314-0.368-0.559-0.8-0.73-1.294c-0.173-0.494-0.259-1.035-0.259-1.62
			c0-1.17,0.198-2.201,0.596-3.094s0.904-1.639,1.519-2.238c0.615-0.6,1.294-1.05,2.036-1.35c0.743-0.3,1.459-0.45,2.149-0.45
			c0.465,0,0.893,0.064,1.282,0.191c0.39,0.127,0.724,0.267,1.001,0.416c0.278,0.151,0.491,0.289,0.642,0.417
			c0.15,0.127,0.232,0.199,0.247,0.213c0.165,0.195,0.248,0.397,0.248,0.608c0,0.225-0.083,0.423-0.248,0.596
			c-0.165,0.173-0.359,0.259-0.585,0.259c-0.239,0-0.442-0.083-0.606-0.248c-0.031-0.03-0.098-0.086-0.203-0.168
			s-0.248-0.169-0.428-0.259c-0.18-0.09-0.394-0.168-0.641-0.236c-0.248-0.067-0.529-0.101-0.844-0.101
			c-0.465,0-0.961,0.105-1.485,0.315c-0.525,0.21-1.005,0.536-1.44,0.979c-0.435,0.443-0.799,0.998-1.091,1.665
			c-0.293,0.668-0.438,1.459-0.438,2.374c0,0.285,0.029,0.574,0.09,0.866c0.06,0.292,0.165,0.559,0.314,0.798
			c0.15,0.24,0.353,0.436,0.607,0.586c0.256,0.15,0.57,0.225,0.945,0.225c0.27,0,0.581-0.09,0.934-0.27s0.69-0.457,1.013-0.833
			c0.322-0.374,0.615-0.847,0.878-1.417c0.262-0.57,0.445-1.245,0.551-2.025c0.03-0.21,0.127-0.386,0.292-0.529
			c0.166-0.142,0.36-0.213,0.586-0.213c0.21,0,0.394,0.083,0.551,0.248c0.158,0.165,0.244,0.352,0.259,0.562
			c0.016,0.285,0.045,0.687,0.09,1.204c0.045,0.518,0.146,1.031,0.304,1.541c0.158,0.51,0.394,0.953,0.709,1.328
			s0.75,0.562,1.305,0.562c0.36,0,0.717-0.098,1.069-0.293s0.697-0.453,1.035-0.775c0.337-0.323,0.659-0.69,0.967-1.104
			c0.308-0.413,0.589-0.829,0.844-1.249s0.48-0.825,0.675-1.215c0.195-0.39,0.36-0.728,0.495-1.013
			c0.075-0.165,0.185-0.292,0.327-0.382c0.142-0.09,0.296-0.135,0.461-0.135c0.255,0,0.461,0.094,0.618,0.281
			c0.158,0.188,0.236,0.386,0.236,0.596C115.914,26.812,115.892,26.917,115.847,27.022z M103.021,18.135
			c0,0.315-0.112,0.585-0.337,0.81c-0.226,0.225-0.503,0.337-0.833,0.337c-0.314,0-0.585-0.112-0.81-0.337
			c-0.226-0.225-0.338-0.495-0.338-0.81c0-0.33,0.112-0.608,0.338-0.833c0.225-0.225,0.495-0.337,0.81-0.337
			c0.33,0,0.607,0.112,0.833,0.337C102.909,17.527,103.021,17.805,103.021,18.135z M107.207,18.135c0,0.315-0.112,0.585-0.338,0.81
			c-0.225,0.225-0.51,0.337-0.854,0.337c-0.315,0-0.585-0.112-0.811-0.337c-0.225-0.225-0.338-0.495-0.338-0.81
			c0-0.33,0.113-0.608,0.338-0.833c0.226-0.225,0.495-0.337,0.811-0.337c0.345,0,0.63,0.112,0.854,0.337
			C107.095,17.527,107.207,17.805,107.207,18.135z"/>
		<path fill="#36A9E1" d="M116.657,24.052c-0.061,0.405-0.136,0.784-0.226,1.136s-0.176,0.66-0.259,0.922
			c-0.082,0.263-0.153,0.476-0.214,0.641c-0.06,0.165-0.097,0.255-0.112,0.271c-0.15,0.345-0.412,0.518-0.787,0.518
			c-0.21,0-0.405-0.079-0.585-0.236c-0.18-0.158-0.271-0.356-0.271-0.597c0-0.09,0.015-0.157,0.046-0.202
			c0.029-0.045,0.074-0.135,0.134-0.271c0.061-0.134,0.136-0.36,0.226-0.674c0.09-0.315,0.202-0.803,0.338-1.463
			c-0.255,0-0.518-0.008-0.788-0.022c-0.27-0.015-0.521-0.067-0.754-0.158c-0.232-0.09-0.423-0.232-0.573-0.427
			c-0.15-0.195-0.226-0.465-0.226-0.81c0-0.255,0.071-0.601,0.214-1.035c0.144-0.436,0.334-0.863,0.574-1.283
			c0.239-0.42,0.51-0.784,0.81-1.091s0.601-0.461,0.9-0.461c0.345,0,0.626,0.128,0.844,0.383c0.217,0.255,0.386,0.566,0.506,0.934
			c0.12,0.368,0.207,0.754,0.259,1.159c0.053,0.405,0.079,0.758,0.079,1.058c0.255,0,0.506-0.003,0.753-0.011
			c0.248-0.008,0.484-0.011,0.709-0.011c0.855,0,1.508,0.188,1.958,0.562s0.675,0.99,0.675,1.845c0,0.345-0.022,0.705-0.067,1.08
			s-0.098,0.761-0.157,1.159c-0.061,0.397-0.112,0.791-0.158,1.181c-0.045,0.39-0.067,0.773-0.067,1.147
			c0,0.541,0.075,0.986,0.226,1.339c0.149,0.353,0.337,0.633,0.562,0.844c0.225,0.209,0.465,0.355,0.72,0.438
			s0.487,0.124,0.697,0.124c0.646,0,1.253-0.211,1.822-0.631c0.57-0.42,1.096-0.926,1.575-1.518c0.48-0.593,0.911-1.219,1.294-1.879
			c0.383-0.66,0.701-1.237,0.956-1.732c0.075-0.135,0.181-0.24,0.315-0.315s0.277-0.112,0.428-0.112c0.27,0,0.479,0.086,0.63,0.258
			c0.149,0.172,0.225,0.364,0.225,0.574c0,0.15-0.03,0.285-0.09,0.405c-0.345,0.616-0.746,1.309-1.204,2.082
			c-0.457,0.772-0.979,1.496-1.563,2.172c-0.585,0.674-1.241,1.244-1.969,1.709s-1.526,0.697-2.396,0.697
			c-0.54,0-1.05-0.101-1.53-0.303c-0.479-0.203-0.896-0.495-1.248-0.878c-0.353-0.382-0.634-0.854-0.844-1.417
			s-0.315-1.196-0.315-1.902c0-0.75,0.075-1.496,0.226-2.238c0.149-0.743,0.225-1.451,0.225-2.126c0-0.285-0.064-0.499-0.191-0.641
			c-0.127-0.143-0.408-0.214-0.844-0.214c-0.21,0-0.438,0-0.686,0C117.208,24.03,116.942,24.037,116.657,24.052z M115.149,22.387
			c0-0.105-0.004-0.244-0.012-0.417c-0.007-0.172-0.021-0.341-0.045-0.506c-0.022-0.165-0.052-0.308-0.09-0.428
			s-0.078-0.18-0.124-0.18c-0.045,0-0.101,0.057-0.168,0.169c-0.067,0.112-0.139,0.247-0.214,0.405s-0.143,0.326-0.202,0.506
			c-0.061,0.18-0.105,0.33-0.136,0.45H115.149z"/>
		<path fill="#36A9E1" d="M130.765,24.975c-0.09,0.24-0.199,0.51-0.326,0.81c-0.128,0.3-0.274,0.615-0.439,0.945
			c-0.135,0.255-0.273,0.454-0.416,0.597s-0.326,0.214-0.551,0.214c-0.256,0-0.458-0.079-0.607-0.236
			c-0.15-0.158-0.226-0.341-0.226-0.552c0-0.075,0.008-0.139,0.022-0.191c0.015-0.053,0.053-0.139,0.112-0.259
			c0.391-0.75,0.679-1.406,0.866-1.969c0.188-0.562,0.342-1.151,0.462-1.766c-0.105-0.345-0.181-0.638-0.226-0.878
			s-0.067-0.487-0.067-0.742c0-0.495,0.105-0.896,0.315-1.204c0.21-0.308,0.502-0.461,0.877-0.461c0.346,0,0.619,0.15,0.821,0.45
			c0.202,0.3,0.304,0.667,0.304,1.103c0,0.24-0.022,0.48-0.067,0.72s-0.105,0.54-0.18,0.9c0.345,0.854,0.69,1.612,1.035,2.272
			c0.345,0.66,0.652,1.264,0.923,1.812c0.27,0.547,0.49,1.062,0.663,1.541c0.173,0.48,0.259,0.96,0.259,1.44
			c0,0.63-0.127,1.229-0.383,1.8c-0.254,0.57-0.674,1.051-1.26,1.44c0.075,0.015,0.15,0.022,0.225,0.022c0.076,0,0.15,0,0.226,0
			c0.854,0,1.644-0.195,2.362-0.585c0.721-0.39,1.369-0.896,1.947-1.519c0.577-0.623,1.091-1.312,1.541-2.07
			c0.449-0.758,0.84-1.511,1.17-2.261c0.148-0.345,0.359-0.518,0.629-0.518c0.256,0,0.455,0.09,0.596,0.271
			c0.143,0.18,0.215,0.375,0.215,0.584c0,0.12-0.023,0.232-0.068,0.338c-0.164,0.405-0.379,0.866-0.641,1.384
			c-0.264,0.517-0.578,1.05-0.945,1.597c-0.367,0.548-0.791,1.084-1.271,1.609s-1.017,0.994-1.609,1.406
			c-0.592,0.412-1.241,0.742-1.946,0.99c-0.705,0.247-1.477,0.371-2.316,0.371c-1.006,0-1.939-0.177-2.802-0.529
			c-0.863-0.352-1.563-0.934-2.104-1.744c-0.09-0.134-0.135-0.277-0.135-0.426c0-0.226,0.087-0.425,0.259-0.598
			c0.173-0.172,0.371-0.258,0.597-0.258c0.24,0,0.442,0.082,0.607,0.247c0.015,0.03,0.067,0.079,0.157,0.146
			s0.199,0.142,0.326,0.225c0.128,0.083,0.277,0.153,0.45,0.214c0.173,0.06,0.349,0.09,0.529,0.09c0.359,0,0.663-0.074,0.91-0.225
			c0.248-0.15,0.447-0.334,0.597-0.552c0.15-0.218,0.259-0.45,0.327-0.697c0.067-0.247,0.101-0.461,0.101-0.641
			c0-0.375-0.06-0.75-0.18-1.125s-0.274-0.75-0.462-1.125s-0.39-0.761-0.607-1.159C131.144,25.826,130.944,25.41,130.765,24.975z"/>
		<path fill="#36A9E1" d="M145.636,30.532c0.256,0.57,0.676,1.023,1.26,1.361c0.586,0.338,1.246,0.506,1.98,0.506
			c0.225,0,0.594-0.033,1.104-0.102c0.51-0.066,1.098-0.292,1.766-0.674c0.668-0.383,1.377-0.986,2.127-1.812
			c0.75-0.825,1.477-1.987,2.182-3.487c0.076-0.165,0.18-0.289,0.314-0.372c0.135-0.082,0.285-0.124,0.451-0.124
			c0.254,0,0.461,0.09,0.617,0.271c0.158,0.18,0.238,0.375,0.238,0.584c0,0.09-0.031,0.21-0.092,0.36
			c-0.525,1.095-1.109,2.074-1.754,2.937c-0.645,0.862-1.342,1.598-2.092,2.206s-1.533,1.072-2.352,1.395s-1.654,0.484-2.51,0.484
			c-0.674,0-1.309-0.105-1.9-0.316c-0.594-0.209-1.104-0.49-1.531-0.843c-0.426-0.353-0.764-0.75-1.012-1.192
			c-0.248-0.443-0.371-0.896-0.371-1.361c0-0.061,0.008-0.143,0.023-0.248c0.014-0.104,0.055-0.221,0.123-0.349
			s0.164-0.248,0.293-0.36c0.127-0.113,0.303-0.207,0.527-0.281c0.615-0.18,1.182-0.401,1.699-0.664
			c0.518-0.263,0.963-0.559,1.338-0.889c0.377-0.33,0.668-0.694,0.879-1.091c0.209-0.397,0.314-0.829,0.314-1.293
			c0-0.405-0.135-0.735-0.404-0.99c-0.271-0.255-0.6-0.383-0.99-0.383c-0.406,0-0.803,0.139-1.193,0.416
			c-0.389,0.278-0.768,0.646-1.135,1.103c-0.367,0.458-0.717,0.983-1.047,1.575s-0.635,1.211-0.91,1.856
			c-0.279,0.645-0.521,1.286-0.732,1.924c-0.211,0.637-0.383,1.227-0.518,1.766c-0.045,0.166-0.094,0.346-0.146,0.54
			c-0.053,0.196-0.131,0.379-0.236,0.552c-0.105,0.172-0.232,0.314-0.383,0.428c-0.148,0.112-0.344,0.168-0.584,0.168
			c-0.225,0-0.443-0.094-0.652-0.281c-0.211-0.188-0.315-0.506-0.315-0.955c0-0.091,0.004-0.436,0.012-1.035
			c0.007-0.601,0.019-1.385,0.034-2.352c0.015-0.967,0.033-2.077,0.056-3.33c0.022-1.252,0.041-2.58,0.057-3.982
			c0.015-1.402,0.036-2.846,0.065-4.331c0.031-1.485,0.055-2.933,0.068-4.342c0.016-1.41,0.035-2.749,0.057-4.017
			s0.041-2.392,0.057-3.375s0.025-1.785,0.033-2.408s0.012-0.994,0.012-1.114c0-0.24,0.09-0.439,0.27-0.597
			c0.18-0.157,0.375-0.236,0.584-0.236c0.24,0,0.443,0.079,0.609,0.236c0.164,0.158,0.246,0.364,0.246,0.619
			c0,0.03-0.002,0.326-0.01,0.889s-0.02,1.316-0.035,2.262c-0.014,0.944-0.033,2.047-0.055,3.307
			c-0.023,1.26-0.047,2.599-0.068,4.017c-0.023,1.417-0.045,2.876-0.066,4.376c-0.023,1.5-0.047,2.962-0.068,4.387
			c-0.023,1.425-0.043,2.783-0.057,4.073c-0.016,1.29-0.029,2.43-0.045,3.42c0.24-0.765,0.547-1.571,0.922-2.419
			c0.375-0.847,0.818-1.631,1.328-2.351c0.51-0.72,1.084-1.312,1.723-1.777c0.637-0.465,1.346-0.698,2.125-0.698
			c0.434,0,0.84,0.079,1.215,0.236s0.701,0.375,0.979,0.652s0.494,0.604,0.652,0.979c0.158,0.375,0.236,0.78,0.236,1.215
			c0,0.675-0.15,1.294-0.449,1.856c-0.301,0.562-0.699,1.065-1.193,1.507s-1.061,0.829-1.699,1.159
			C146.968,30.052,146.312,30.322,145.636,30.532z"/>
		<path fill="#36A9E1" d="M173.446,27.022c-0.061,0.12-0.184,0.371-0.371,0.753s-0.428,0.821-0.721,1.316
			c-0.291,0.495-0.633,1.012-1.023,1.553c-0.389,0.539-0.824,1.035-1.305,1.484s-0.998,0.821-1.553,1.113
			c-0.555,0.293-1.141,0.439-1.754,0.439c-0.871,0-1.602-0.277-2.195-0.833c-0.592-0.556-1.023-1.253-1.293-2.093
			c-0.51,0.855-1.117,1.534-1.822,2.037c-0.705,0.502-1.41,0.754-2.115,0.754c-0.555,0-1.059-0.102-1.508-0.305
			c-0.449-0.202-0.832-0.487-1.146-0.854c-0.314-0.368-0.561-0.8-0.732-1.294s-0.258-1.035-0.258-1.62
			c0-1.17,0.197-2.201,0.596-3.094s0.904-1.639,1.52-2.238c0.615-0.6,1.293-1.05,2.035-1.35c0.744-0.3,1.459-0.45,2.15-0.45
			c0.465,0,0.891,0.064,1.281,0.191c0.391,0.127,0.725,0.267,1.002,0.416c0.277,0.151,0.49,0.289,0.641,0.417
			c0.148,0.127,0.232,0.199,0.248,0.213c0.164,0.195,0.246,0.397,0.246,0.608c0,0.225-0.082,0.423-0.246,0.596
			c-0.166,0.173-0.361,0.259-0.586,0.259c-0.24,0-0.443-0.083-0.607-0.248c-0.029-0.03-0.098-0.086-0.203-0.168
			c-0.104-0.083-0.246-0.169-0.428-0.259c-0.18-0.09-0.393-0.168-0.641-0.236c-0.248-0.067-0.529-0.101-0.844-0.101
			c-0.465,0-0.959,0.105-1.484,0.315s-1.004,0.536-1.439,0.979c-0.436,0.443-0.799,0.998-1.092,1.665
			c-0.293,0.668-0.439,1.459-0.439,2.374c0,0.285,0.031,0.574,0.092,0.866c0.059,0.292,0.164,0.559,0.314,0.798
			c0.15,0.24,0.352,0.436,0.607,0.586c0.254,0.15,0.57,0.225,0.943,0.225c0.271,0,0.582-0.09,0.934-0.27
			c0.354-0.18,0.691-0.457,1.014-0.833c0.322-0.374,0.615-0.847,0.877-1.417c0.264-0.57,0.447-1.245,0.551-2.025
			c0.031-0.21,0.129-0.386,0.293-0.529c0.166-0.142,0.361-0.213,0.586-0.213c0.209,0,0.395,0.083,0.551,0.248
			s0.244,0.352,0.258,0.562c0.016,0.285,0.045,0.687,0.092,1.204c0.045,0.518,0.145,1.031,0.303,1.541s0.395,0.953,0.709,1.328
			s0.75,0.562,1.305,0.562c0.361,0,0.717-0.098,1.068-0.293c0.354-0.195,0.697-0.453,1.035-0.775c0.338-0.323,0.66-0.69,0.969-1.104
			c0.307-0.413,0.588-0.829,0.844-1.249c0.254-0.42,0.479-0.825,0.674-1.215c0.195-0.39,0.361-0.728,0.496-1.013
			c0.074-0.165,0.184-0.292,0.326-0.382c0.143-0.09,0.295-0.135,0.461-0.135c0.254,0,0.461,0.094,0.617,0.281
			c0.158,0.188,0.238,0.386,0.238,0.596C173.515,26.812,173.491,26.917,173.446,27.022z"/>
		<path fill="#36A9E1" d="M199.411,27.022c-0.061,0.12-0.184,0.371-0.371,0.753s-0.428,0.821-0.721,1.316
			c-0.291,0.495-0.633,1.012-1.023,1.553c-0.389,0.539-0.824,1.035-1.305,1.484s-0.998,0.821-1.553,1.113
			c-0.555,0.293-1.141,0.439-1.756,0.439c-0.869,0-1.6-0.277-2.191-0.833c-0.594-0.556-1.025-1.253-1.295-2.093
			c-0.51,0.855-1.117,1.534-1.822,2.037c-0.705,0.502-1.41,0.754-2.115,0.754c-0.555,0-1.057-0.102-1.506-0.305
			c-0.451-0.202-0.834-0.487-1.148-0.854c-0.314-0.368-0.561-0.8-0.732-1.294s-0.258-1.035-0.258-1.62
			c0-1.17,0.197-2.201,0.596-3.094s0.904-1.639,1.52-2.238c0.615-0.6,1.293-1.05,2.035-1.35c0.742-0.3,1.459-0.45,2.148-0.45
			c0.465,0,0.893,0.064,1.283,0.191c0.389,0.127,0.725,0.267,1.002,0.416c0.277,0.151,0.49,0.289,0.641,0.417
			c0.15,0.127,0.232,0.199,0.248,0.213c0.164,0.195,0.246,0.397,0.246,0.608c0,0.225-0.082,0.423-0.246,0.596
			c-0.166,0.173-0.361,0.259-0.586,0.259c-0.24,0-0.443-0.083-0.607-0.248c-0.029-0.03-0.098-0.086-0.203-0.168
			s-0.246-0.169-0.428-0.259c-0.178-0.09-0.393-0.168-0.641-0.236c-0.248-0.067-0.529-0.101-0.844-0.101
			c-0.465,0-0.959,0.105-1.484,0.315s-1.004,0.536-1.441,0.979c-0.434,0.443-0.797,0.998-1.09,1.665
			c-0.293,0.668-0.438,1.459-0.438,2.374c0,0.285,0.029,0.574,0.09,0.866c0.059,0.292,0.164,0.559,0.314,0.798
			c0.15,0.24,0.352,0.436,0.607,0.586s0.57,0.225,0.945,0.225c0.27,0,0.58-0.09,0.934-0.27c0.352-0.18,0.689-0.457,1.012-0.833
			c0.322-0.374,0.615-0.847,0.877-1.417c0.264-0.57,0.447-1.245,0.553-2.025c0.029-0.21,0.125-0.386,0.293-0.529
			c0.164-0.142,0.359-0.213,0.584-0.213c0.209,0,0.395,0.083,0.551,0.248c0.158,0.165,0.244,0.352,0.26,0.562
			c0.014,0.285,0.043,0.687,0.09,1.204c0.045,0.518,0.145,1.031,0.303,1.541s0.395,0.953,0.709,1.328s0.75,0.562,1.305,0.562
			c0.359,0,0.717-0.098,1.068-0.293c0.354-0.195,0.699-0.453,1.035-0.775c0.338-0.323,0.66-0.69,0.969-1.104
			c0.307-0.413,0.588-0.829,0.844-1.249c0.254-0.42,0.48-0.825,0.674-1.215c0.195-0.39,0.361-0.728,0.496-1.013
			c0.074-0.165,0.184-0.292,0.326-0.382c0.141-0.09,0.295-0.135,0.461-0.135c0.256,0,0.461,0.094,0.619,0.281
			c0.156,0.188,0.236,0.386,0.236,0.596C199.479,26.812,199.456,26.917,199.411,27.022z M186.585,18.135
			c0,0.315-0.111,0.585-0.336,0.81c-0.227,0.225-0.502,0.337-0.832,0.337c-0.316,0-0.586-0.112-0.811-0.337s-0.338-0.495-0.338-0.81
			c0-0.33,0.113-0.608,0.338-0.833c0.225-0.225,0.494-0.337,0.811-0.337c0.33,0,0.605,0.112,0.832,0.337
			C186.474,17.527,186.585,17.805,186.585,18.135z M190.771,18.135c0,0.315-0.111,0.585-0.336,0.81s-0.51,0.337-0.855,0.337
			c-0.316,0-0.586-0.112-0.811-0.337s-0.338-0.495-0.338-0.81c0-0.33,0.113-0.608,0.338-0.833c0.225-0.225,0.494-0.337,0.811-0.337
			c0.346,0,0.631,0.112,0.855,0.337C190.659,17.527,190.771,17.805,190.771,18.135z"/>
		<path fill="#36A9E1" d="M206.003,35.505c2.82-3.676,4.779-6.728,5.873-9.158c0.074-0.165,0.176-0.289,0.305-0.371
			c0.127-0.083,0.273-0.124,0.438-0.124c0.256,0,0.465,0.086,0.631,0.258c0.164,0.172,0.248,0.372,0.248,0.596
			c0,0.105-0.023,0.21-0.068,0.315c-0.66,1.5-1.598,3.172-2.812,5.018c-1.215,1.845-2.752,3.93-4.613,6.254
			c0,0.945,0.008,1.891,0.023,2.836s0.023,1.98,0.023,3.104c0,1.126-0.027,2.239-0.08,3.341c-0.053,1.104-0.146,2.153-0.281,3.15
			c-0.135,0.998-0.318,1.92-0.551,2.768s-0.533,1.582-0.9,2.205s-0.809,1.109-1.328,1.463c-0.518,0.352-1.127,0.528-1.832,0.528
			c-1.006,0-1.779-0.382-2.318-1.147c-0.541-0.766-0.809-1.853-0.809-3.262c0-0.751,0.07-1.564,0.213-2.441
			c0.141-0.878,0.348-1.781,0.619-2.712c0.268-0.93,0.596-1.871,0.979-2.823c0.381-0.953,0.805-1.879,1.27-2.779
			c0.467-0.9,0.973-1.762,1.52-2.588c0.547-0.824,1.129-1.574,1.744-2.25c0.016-1.049,0.025-2.092,0.033-3.127
			s0.027-1.987,0.057-2.857c-0.449,0.57-0.986,1.021-1.609,1.35c-0.621,0.33-1.24,0.496-1.855,0.496
			c-0.525,0-1.002-0.102-1.428-0.305c-0.428-0.202-0.793-0.487-1.092-0.854c-0.301-0.368-0.533-0.8-0.697-1.294
			c-0.166-0.494-0.248-1.035-0.248-1.62c0-1.17,0.199-2.201,0.596-3.094c0.398-0.893,0.904-1.639,1.52-2.238
			c0.615-0.6,1.293-1.05,2.035-1.35c0.742-0.3,1.459-0.45,2.148-0.45c0.465,0,0.893,0.06,1.283,0.18s0.725,0.254,1.002,0.405
			c0.277,0.15,0.49,0.292,0.641,0.427c0.15,0.135,0.232,0.21,0.248,0.225c0.164,0.18,0.248,0.383,0.248,0.608
			s-0.084,0.423-0.248,0.596c-0.166,0.173-0.361,0.259-0.586,0.259c-0.209,0-0.412-0.083-0.607-0.248
			c-0.059-0.045-0.139-0.108-0.236-0.191s-0.225-0.169-0.383-0.259c-0.156-0.09-0.344-0.165-0.562-0.225
			c-0.217-0.06-0.475-0.09-0.775-0.09c-0.451,0-0.945,0.101-1.486,0.303c-0.539,0.203-1.041,0.521-1.506,0.957
			c-0.467,0.435-0.855,0.994-1.17,1.677c-0.316,0.682-0.473,1.503-0.473,2.463c0,0.72,0.156,1.302,0.473,1.743
			c0.314,0.443,0.803,0.664,1.463,0.664c0.314,0,0.648-0.09,1-0.27c0.354-0.18,0.693-0.457,1.023-0.833
			c0.33-0.374,0.619-0.847,0.867-1.417c0.248-0.57,0.424-1.245,0.529-2.025c0.029-0.21,0.127-0.386,0.291-0.529
			c0.166-0.142,0.361-0.213,0.586-0.213c0.254,0,0.453,0.09,0.596,0.27s0.215,0.382,0.215,0.607c0,0.015-0.008,0.244-0.023,0.686
			c-0.016,0.443-0.029,1.032-0.045,1.767c-0.016,0.734-0.033,1.586-0.057,2.554C206.038,33.401,206.019,34.425,206.003,35.505z
			 M204.294,40.433c-0.705,0.975-1.344,2.036-1.912,3.184c-0.57,1.146-1.059,2.307-1.463,3.477s-0.717,2.306-0.934,3.408
			s-0.326,2.088-0.326,2.959c0,0.555,0.049,0.997,0.145,1.327c0.1,0.33,0.219,0.585,0.361,0.765c0.143,0.181,0.301,0.301,0.473,0.36
			s0.334,0.09,0.482,0.09c0.465,0,0.871-0.188,1.217-0.562c0.346-0.376,0.637-0.875,0.877-1.497s0.436-1.339,0.584-2.149
			c0.152-0.81,0.264-1.646,0.338-2.508c0.076-0.863,0.129-1.722,0.158-2.576c0.029-0.855,0.045-1.643,0.045-2.363
			c0-0.645,0-1.289,0-1.934C204.339,41.767,204.323,41.106,204.294,40.433z"/>
		<path fill="#36A9E1" d="M220.021,35.505c2.82-3.676,4.777-6.728,5.873-9.158c0.076-0.165,0.176-0.289,0.305-0.371
			c0.127-0.083,0.273-0.124,0.438-0.124c0.256,0,0.465,0.086,0.631,0.258c0.164,0.172,0.248,0.372,0.248,0.596
			c0,0.105-0.023,0.21-0.068,0.315c-0.66,1.5-1.598,3.172-2.812,5.018c-1.215,1.845-2.752,3.93-4.613,6.254
			c0,0.945,0.008,1.891,0.023,2.836c0.014,0.945,0.021,1.98,0.021,3.104c0,1.126-0.025,2.239-0.078,3.341
			c-0.053,1.104-0.146,2.153-0.281,3.15c-0.135,0.998-0.318,1.92-0.551,2.768s-0.533,1.582-0.9,2.205s-0.811,1.109-1.328,1.463
			c-0.518,0.352-1.129,0.528-1.834,0.528c-1.004,0-1.775-0.382-2.316-1.147c-0.539-0.766-0.811-1.853-0.811-3.262
			c0-0.751,0.072-1.564,0.215-2.441c0.143-0.878,0.348-1.781,0.617-2.712c0.271-0.93,0.598-1.871,0.979-2.823
			c0.385-0.953,0.809-1.879,1.273-2.779s0.971-1.762,1.518-2.588c0.547-0.824,1.129-1.574,1.744-2.25
			c0.014-1.049,0.025-2.092,0.033-3.127s0.027-1.987,0.057-2.857c-0.451,0.57-0.986,1.021-1.609,1.35
			c-0.621,0.33-1.24,0.496-1.855,0.496c-0.525,0-1.002-0.102-1.43-0.305c-0.428-0.202-0.791-0.487-1.09-0.854
			c-0.301-0.368-0.533-0.8-0.699-1.294c-0.164-0.494-0.246-1.035-0.246-1.62c0-1.17,0.197-2.201,0.596-3.094
			s0.904-1.639,1.518-2.238c0.617-0.6,1.295-1.05,2.037-1.35c0.742-0.3,1.459-0.45,2.148-0.45c0.467,0,0.893,0.06,1.283,0.18
			s0.723,0.254,1.002,0.405c0.275,0.15,0.49,0.292,0.641,0.427c0.15,0.135,0.232,0.21,0.248,0.225
			c0.164,0.18,0.246,0.383,0.246,0.608s-0.082,0.423-0.246,0.596c-0.166,0.173-0.359,0.259-0.586,0.259
			c-0.209,0-0.412-0.083-0.607-0.248c-0.061-0.045-0.139-0.108-0.236-0.191s-0.225-0.169-0.383-0.259
			c-0.156-0.09-0.344-0.165-0.561-0.225c-0.219-0.06-0.479-0.09-0.777-0.09c-0.449,0-0.945,0.101-1.484,0.303
			c-0.541,0.203-1.043,0.521-1.508,0.957s-0.855,0.994-1.17,1.677c-0.314,0.682-0.473,1.503-0.473,2.463
			c0,0.72,0.158,1.302,0.473,1.743c0.314,0.443,0.803,0.664,1.461,0.664c0.316,0,0.65-0.09,1.002-0.27
			c0.354-0.18,0.693-0.457,1.023-0.833c0.33-0.374,0.619-0.847,0.867-1.417c0.248-0.57,0.424-1.245,0.529-2.025
			c0.029-0.21,0.127-0.386,0.291-0.529c0.166-0.142,0.361-0.213,0.586-0.213c0.254,0,0.453,0.09,0.596,0.27s0.215,0.382,0.215,0.607
			c0,0.015-0.008,0.244-0.023,0.686c-0.016,0.443-0.029,1.032-0.045,1.767c-0.016,0.734-0.033,1.586-0.057,2.554
			C220.056,33.401,220.036,34.425,220.021,35.505z M218.312,40.433c-0.705,0.975-1.342,2.036-1.912,3.184
			c-0.57,1.146-1.059,2.307-1.463,3.477c-0.406,1.17-0.717,2.306-0.934,3.408c-0.219,1.103-0.326,2.088-0.326,2.959
			c0,0.555,0.049,0.997,0.146,1.327s0.217,0.585,0.359,0.765c0.143,0.181,0.301,0.301,0.473,0.36s0.334,0.09,0.484,0.09
			c0.465,0,0.869-0.188,1.215-0.562c0.344-0.376,0.637-0.875,0.877-1.497s0.436-1.339,0.586-2.149
			c0.148-0.81,0.262-1.646,0.336-2.508c0.076-0.863,0.129-1.722,0.158-2.576c0.029-0.855,0.045-1.643,0.045-2.363
			c0-0.645,0-1.289,0-1.934C218.356,41.767,218.341,41.106,218.312,40.433z"/>
	</g>
</g>
</svg>
