<?xml version="1.0" encoding="utf-8"?>
<!-- Generator: Adobe Illustrator 15.0.2, SVG Export Plug-In . SVG Version: 6.00 Build 0)  -->
<!DOCTYPE svg PUBLIC "-//W3C//DTD SVG 1.1//EN" "http://www.w3.org/Graphics/SVG/1.1/DTD/svg11.dtd">
<svg version="1.1" id="Lager_1" xmlns="http://www.w3.org/2000/svg" xmlns:xlink="http://www.w3.org/1999/xlink" x="0px" y="0px"
	 width="405.591px" height="208.249px" viewBox="0 0 405.591 208.249" enable-background="new 0 0 405.591 208.249"
	 xml:space="preserve">
<g>
	<rect x="118.036" y="16.454" fill="#F5F5F6" width="148.667" height="191.794"/>
	<rect x="117.87" y="0.612" fill="#D2D3D4" width="3.452" height="16.443"/>
	<rect x="154.215" y="0.612" fill="#D2D3D4" width="3.452" height="16.443"/>
	<g>
		<rect x="190.643" y="0.612" fill="#D2D3D4" width="1.727" height="16.443"/>
		<rect x="192.369" y="0.612" fill="#F5F5F6" width="1.727" height="16.443"/>
	</g>
	<rect x="192.37" fill="#F5F5F6" width="74.333" height="3.452"/>
	<rect x="117.87" fill="#D2D3D4" width="74.5" height="3.452"/>
	<rect x="226.905" y="0.612" fill="#F5F5F6" width="3.452" height="16.443"/>
	<rect x="263.25" y="0.612" fill="#F5F5F6" width="3.453" height="16.443"/>
	<rect x="118.036" y="16.454" fill="#D2D3D4" width="74.334" height="191.794"/>
</g>
<g>
	<path fill="#6F7072" stroke="#6F7072" stroke-width="0.7289" stroke-miterlimit="10" d="M148.3,84.208
		c-10.369-28.184-39.565-48.491-73.966-48.491c-34.398,0-63.598,20.307-73.966,48.491H148.3z"/>
	<path fill="#58585A" stroke="#58585A" stroke-width="0.7289" stroke-linecap="round" stroke-miterlimit="10" d="M74.297,84.208
		H0.368c10.368-28.184,39.567-48.491,73.966-48.491L74.297,84.208z"/>
	<rect y="84.274" fill="#F5F5F6" width="148.667" height="123.974"/>
	<rect y="84.274" fill="#D2D3D4" width="74.334" height="123.974"/>
</g>
<rect x="231.185" y="139.19" fill="#F5F5F6" width="174.832" height="69.058"/>
<rect x="231.185" y="139.19" fill="#D2D3D4" width="87.416" height="69.058"/>
<g>
	<path fill="#66A39E" stroke="#66A39E" stroke-linejoin="round" stroke-miterlimit="10" d="M231.548,138.71
		c-0.057-0.27,0.084-0.543,0.337-0.653l86.445-37.95c0.147-0.065,0.318-0.065,0.467,0l86.444,37.95
		c0.253,0.11,0.394,0.384,0.337,0.653H231.548z"/>
</g>
<g>
	<g>
		<path fill="#478C84" d="M318.563,138.71h-87.016c-0.057-0.27,0.084-0.543,0.337-0.653l86.445-37.95"/>
		<path fill="#478C84" d="M318.563,139.21h-87.016c-0.236,0-0.44-0.166-0.489-0.397c-0.105-0.499,0.158-1.01,0.626-1.214
			l86.444-37.95c0.032-0.014,0.064-0.024,0.099-0.031l0.336-0.049V139.21z M232.779,138.21h85.284v-37.44L232.779,138.21z"/>
	</g>
</g>
</svg>
