<?xml version="1.0" encoding="utf-8"?>
<!-- Generator: Adobe Illustrator 17.0.0, SVG Export Plug-In . SVG Version: 6.00 Build 0)  -->
<!DOCTYPE svg PUBLIC "-//W3C//DTD SVG 1.1//EN" "http://www.w3.org/Graphics/SVG/1.1/DTD/svg11.dtd">
<svg version="1.1" id="Layer_1" xmlns="http://www.w3.org/2000/svg" xmlns:xlink="http://www.w3.org/1999/xlink" x="0px" y="0px"
 viewBox="0 0 82.822 170.393" enable-background="new 0 0 82.822 170.393"
	 xml:space="preserve">
<g>
	<g>
		<g>
			<path fill="#E3E683" d="M81.777,148.272c-11.148-6.492-19.084-23.17-19.084-42.716c0-19.468,7.869-36.087,18.949-42.636h-40.54
				H0.563c11.078,6.549,18.948,23.168,18.948,42.636c0,19.546-7.936,36.224-19.085,42.716H81.777z"/>
		</g>
	</g>
	<g>
		<g>
			<path fill="#3CA036" d="M41.896,41.532"/>
		</g>
	</g>
	<g>
		<g>
			<path fill="#CCDC84" d="M41.102,147.628h40.675c-11.148-6.492-19.084-22.525-19.084-42.072c0-19.468,7.869-35.63,18.949-42.179
				h-40.54v82.833V147.628z"/>
		</g>
	</g>
	<g>
		<g>
			<path fill="#432918" stroke="#432918" stroke-miterlimit="10" d="M42.851,41.153c0-11.074,8.559-20.082,19.816-20.082v5.801
				c-8.516,0-16.418,5.951-16.418,14.281H42.851z"/>
		</g>
	</g>
	<g>
		<g>
			<g>
				<g>
					<path fill="#006633" d="M36.56,41.038c3.557-6.182,3.924-10.73,3.924-10.73C43.291,5.821,10.643,0,10.643,0
						S1.867,31.983,25.184,39.972C25.184,39.972,29.448,41.593,36.56,41.038z"/>
				</g>
			</g>
		</g>
		<g>
			<g>
				<g>
					<path fill="#007D40" d="M10.643,0c0,0-8.775,31.983,14.541,39.972c0,0,4.265,1.621,11.376,1.066"/>
				</g>
			</g>
		</g>
	</g>
	<g>
		<g>
			<g>
				<ellipse fill="#432918" stroke="#432918" stroke-miterlimit="10" cx="33.763" cy="105.343" rx="2.084" ry="4.75"/>
			</g>
		</g>
		<g>
			<g>
				<ellipse fill="#432918" stroke="#432918" stroke-miterlimit="10" cx="49.263" cy="105.343" rx="2.084" ry="4.75"/>
			</g>
		</g>
	</g>
	<g>
		<g>
			
				<path fill="#3AAA35" stroke="#3AAA35" stroke-width="0.8532" stroke-linecap="round" stroke-linejoin="round" stroke-miterlimit="10" d="
				M82.396,62.92c0-8.281-7.637-16.545-17.057-16.545c-2.555,0-4.98,0.493-7.157,1.38l-4.422,1.592
				c-7.444,2.424-12.13,2.424-12.13,2.424h-0.062c0,0-4.687,0-12.131-2.424l-4.422-1.592c-2.178-0.887-4.601-1.38-7.158-1.38
				c-9.419,0-17.056,8.264-17.056,16.545H82.396z"/>
		</g>
	</g>
	<g>
		<g>
			
				<path fill="#3AAA35" stroke="#3AAA35" stroke-width="0.8522" stroke-linecap="round" stroke-linejoin="round" stroke-miterlimit="10" d="
				M82.302,148.272c0,8.271-7.629,21.695-17.036,21.695c0,0-4.452-0.051-11.565-2.191c-6.111-1.844-11.855-1.795-12.117-1.795
				h-0.441c-0.259,0-6.003-0.049-12.115,1.795c-7.112,2.141-11.564,2.191-11.564,2.191c-9.408,0-17.036-13.424-17.036-21.695H82.302
				z"/>
		</g>
	</g>
</g>
</svg>
