<?xml version="1.0" encoding="utf-8"?>
<!-- Generator: Adobe Illustrator 15.0.2, SVG Export Plug-In . SVG Version: 6.00 Build 0)  -->
<!DOCTYPE svg PUBLIC "-//W3C//DTD SVG 1.1//EN" "http://www.w3.org/Graphics/SVG/1.1/DTD/svg11.dtd">
<svg version="1.1" id="Lager_1" xmlns="http://www.w3.org/2000/svg" xmlns:xlink="http://www.w3.org/1999/xlink" x="0px" y="0px"
	 width="216.447px" height="273.728px" viewBox="0 0 216.447 273.728" enable-background="new 0 0 216.447 273.728"
	 xml:space="preserve">
<g>
	
		<path fill="#BE1622" stroke="#BE1622" stroke-width="2" stroke-linecap="round" stroke-linejoin="round" stroke-miterlimit="10" d="
		M160.901,80.227l-1.282-0.721c-6.058-3.308-12.848-5.039-16.31-5.039c-3.899,0-7.463,0.29-10.788,1.544l-6.744,2.248
		c-8.953,2.7-15.273,2.876-17.554,2.998c-2.281-0.121-8.601-0.298-17.555-2.998l-6.744-2.248c-3.324-1.254-6.888-1.544-10.788-1.544
		c-3.462,0-10.251,1.731-16.309,5.039l-1.283,0.721C22.979,98.67,1,133.635,1,173.731c0,42.463,24.649,79.17,60.416,96.594
		l-0.007-0.058c2.737,1.515,5.667,2.396,8.715,2.396c0,0,5.542,0.829,18.475-3.501c9.671-3.239,18.941-2.868,19.354-2.868h0.54
		c0.413,0,9.684-0.371,19.354,2.868c12.934,4.33,18.475,3.501,18.475,3.501c3.049,0,5.979-0.882,8.715-2.396l-0.006,0.058
		c35.767-17.424,60.416-54.131,60.416-96.594C215.447,133.635,193.469,98.67,160.901,80.227z"/>
	<g>
		<g>
			<path fill="#3CA036" d="M109.158,66.35"/>
		</g>
	</g>
	<g>
		<g>
			<path fill="#432918" stroke="#432918" stroke-width="1.5975" stroke-miterlimit="10" d="M113.684,65.744
				c0-17.691,13.673-32.082,31.657-32.082v9.268c-13.604,0-26.228,9.506-26.228,22.814H113.684z"/>
		</g>
	</g>
	<g>
		<g>
			<g>
				<g>
					<path fill="#006633" d="M98.634,65.56c5.682-9.875,6.269-17.141,6.269-17.141C109.388,9.299,57.23,0,57.23,0
						S43.211,51.093,80.46,63.856C80.46,63.856,87.273,66.446,98.634,65.56z"/>
				</g>
			</g>
		</g>
		<g>
			<g>
				<g>
					<path fill="#007D40" d="M57.23,0c0,0-14.02,51.093,23.229,63.856c0,0,6.813,2.59,18.174,1.704"/>
				</g>
			</g>
		</g>
	</g>
	
		<path fill="#AF1926" stroke="#AF1926" stroke-width="2" stroke-linecap="round" stroke-linejoin="round" stroke-miterlimit="10" d="
		M108.493,266.295h-0.54c-0.413,0-9.684-0.371-19.354,2.868c-12.933,4.33-18.475,3.501-18.475,3.501
		c-3.048,0-5.978-0.882-8.715-2.396l0.007,0.058C25.649,252.901,1,216.194,1,173.731c0-40.097,21.979-75.062,54.545-93.504
		l1.283-0.721c6.058-3.308,12.847-5.039,16.309-5.039c3.9,0,7.464,0.29,10.788,1.544l6.744,2.248
		c8.954,2.7,15.273,2.876,17.555,2.998L108.493,266.295z"/>
	<path fill="#BE1622" stroke="#BE1622" stroke-width="0.74" stroke-miterlimit="10" d="M61.416,270.325"/>
</g>
</svg>
