<?xml version="1.0" encoding="utf-8"?>
<!-- Generator: Adobe Illustrator 17.0.0, SVG Export Plug-In . SVG Version: 6.00 Build 0)  -->
<!DOCTYPE svg PUBLIC "-//W3C//DTD SVG 1.1//EN" "http://www.w3.org/Graphics/SVG/1.1/DTD/svg11.dtd">
<svg version="1.1" id="Layer_1" xmlns="http://www.w3.org/2000/svg" xmlns:xlink="http://www.w3.org/1999/xlink" x="0px" y="0px"
	 width="159.921px" height="382.665px" viewBox="0 0 159.921 382.665" enable-background="new 0 0 159.921 382.665"
	 xml:space="preserve">
<g>
	
		<path fill="#662483" stroke="#662483" stroke-width="4.2886" stroke-linecap="round" stroke-linejoin="round" stroke-miterlimit="10" d="
		M157.776,311.911c0,37.892-35.469,68.61-73.361,68.61l0,0c-37.89,0-73.355-30.719-73.355-68.61l16.607-174.072
		c0-37.896,18.862-68.613,56.749-68.613l0,0c37.893,0,56.754,30.718,56.754,68.613L157.776,311.911z"/>
	
		<path fill="#49266A" stroke="#49266A" stroke-width="4.2886" stroke-linecap="round" stroke-linejoin="round" stroke-miterlimit="10" d="
		M84.415,69.225L84.415,69.225c-37.887,0-56.749,30.718-56.749,68.613L11.06,311.911c0,37.892,35.466,68.61,73.355,68.61l0,0V69.225
		z"/>
	<g>
		
			<path fill="#007D40" stroke="#007D40" stroke-width="3.9453" stroke-linecap="round" stroke-linejoin="round" stroke-miterlimit="10" d="
			M143.016,22.973c-34.363,0.977-51.501,12.834-51.501,12.834L90.791,1.973l-5.053,0.106l-5.059,0.108l0.878,41.127
			c0,0-22.914-20.882-57.279-20.397c27.934,12.475,33.578,21.01,33.578,21.01S20.422,45.774,1.973,71.572
			c0,0,37.499-22.341,85.455-17.447C87.428,54.125,104.285,31.564,143.016,22.973z"/>
	</g>
</g>
</svg>
