<?xml version="1.0" encoding="utf-8"?>
<!-- Generator: Adobe Illustrator 15.0.2, SVG Export Plug-In . SVG Version: 6.00 Build 0)  -->
<!DOCTYPE svg PUBLIC "-//W3C//DTD SVG 1.1//EN" "http://www.w3.org/Graphics/SVG/1.1/DTD/svg11.dtd">
<svg version="1.1" id="Lager_1" xmlns="http://www.w3.org/2000/svg" xmlns:xlink="http://www.w3.org/1999/xlink" x="0px" y="0px"
	 width="185.213px" height="450.109px" viewBox="0 0 185.213 450.109" enable-background="new 0 0 185.213 450.109"
	 xml:space="preserve">
<g>
	<g>
		<path fill="#004892" d="M26.794,414.74c2.699,0.69,5.528-0.664,6.32-3.026l0,0c0.788-2.364-0.759-4.843-3.457-5.535l-23.134-5.932
			c-2.698-0.691-5.526,0.663-6.317,3.027l0,0c-0.791,2.363,0.758,4.841,3.457,5.533L26.794,414.74z"/>
		<path d="M163.897,353.622h5.104c3.854,0,6.991-2.814,6.991-6.275v-26.293c0-3.461-3.137-6.276-6.991-6.276h-5.104
			c-3.854,0-6.99,2.815-6.99,6.276v26.293C156.907,350.806,160.043,353.622,163.897,353.622z"/>
		<path d="M16.393,353.622h5.104c3.855,0,6.992-2.814,6.992-6.275v-26.293c0-3.461-3.137-6.276-6.992-6.276h-5.104
			c-3.854,0-6.991,2.815-6.991,6.276v26.293C9.402,350.806,12.539,353.622,16.393,353.622z"/>
		<g>
			<path d="M163.897,186.304h5.104c3.854,0,6.991-2.815,6.991-6.276v-26.293c0-3.461-3.137-6.277-6.991-6.277h-5.104
				c-3.854,0-6.99,2.816-6.99,6.277v26.293C156.907,183.488,160.043,186.304,163.897,186.304z"/>
			<path d="M16.393,186.304h5.104c3.855,0,6.992-2.815,6.992-6.276v-26.293c0-3.461-3.137-6.277-6.992-6.277h-5.104
				c-3.854,0-6.991,2.816-6.991,6.277v26.293C9.402,183.488,12.539,186.304,16.393,186.304z"/>
			<path d="M163.897,118.566h5.104c3.854,0,6.991-2.815,6.991-6.276V85.997c0-3.461-3.137-6.276-6.991-6.276h-5.104
				c-3.854,0-6.99,2.815-6.99,6.276v26.293C156.907,115.751,160.043,118.566,163.897,118.566z"/>
			<path d="M16.393,118.566h5.104c3.855,0,6.992-2.815,6.992-6.276V85.997c0-3.461-3.137-6.276-6.992-6.276h-5.104
				c-3.854,0-6.991,2.815-6.991,6.276v26.293C9.402,115.751,12.539,118.566,16.393,118.566z"/>
		</g>
		<g>
			<path fill="#004892" d="M16.319,326.257V9.839c0-2.723,2.528-4.938,5.64-4.938h140.929c3.109,0,5.639,2.217,5.639,4.938v316.418
				H16.319L16.319,326.257z"/>
			<g>
				<path fill="#033B6D" d="M165.776,110.926V7.755c0-2.624-2.439-4.76-5.432-4.76H24.563c-2.995,0-5.433,2.136-5.433,4.76v103.171"
					/>
				<path fill="#021F41" d="M159.843,8.483v102.44h8.735V8.483c0-4.677-4.347-8.483-9.687-8.483H26.001
					c-5.339,0-9.683,3.808-9.683,8.483v102.44h8.735V8.483c0-0.459,0.426-0.833,0.947-0.833h132.892
					C159.417,7.65,159.843,8.024,159.843,8.483z"/>
			</g>
		</g>
		<rect x="16.343" y="322.757" fill="#033B6D" width="152.184" height="16"/>
		<path fill="#004892" d="M158.419,414.74c-2.699,0.69-5.527-0.664-6.32-3.026l0,0c-0.787-2.364,0.758-4.843,3.457-5.535
			l23.133-5.932c2.699-0.691,5.526,0.663,6.318,3.027l0,0c0.79,2.363-0.759,4.841-3.457,5.533L158.419,414.74z"/>
		<path fill="#004892" d="M16.343,424.818"/>
		<path fill="#004892" d="M16.622,426.552c0.14,0.773,0.28,1.545,0.383,2.312c0.871,6.484,17.148,13.129,17.148,13.129
			c61.024,18.261,116.497,0,116.497,0s13.526-5.09,17.125-13.129c0.328-0.735,0.516-1.513,0.621-2.312l0,0l0.158-11v-14.311v-67.043
			H16.343v67.043v14.311v6.829"/>
		<g>
			<path fill="#004892" d="M16.319,326.257V9.839c0-2.723,2.528-4.938,5.64-4.938h140.929c3.109,0,5.639,2.217,5.639,4.938v316.418
				H16.319L16.319,326.257z"/>
			<g>
				<path fill="#021F41" d="M75.597,110.926V7.755c0-2.624-0.939-4.76-2.091-4.76H21.222c-1.153,0-2.092,2.136-2.092,4.76v103.171"
					/>
				<path fill="#021F41" d="M164.265,110.926V7.755c0-2.624-1.354-4.76-3.013-4.76H85.943c-1.662,0-3.014,2.136-3.014,4.76v103.171"
					/>
				<path fill="#004892" d="M159.843,8.483v105.771h8.735V8.483c0-4.677-4.347-8.483-9.687-8.483H26.001
					c-5.339,0-9.683,3.808-9.683,8.483v105.771h8.735V8.483c0-0.459,0.426-0.833,0.947-0.833h132.892
					C159.417,7.65,159.843,8.024,159.843,8.483z"/>
			</g>
		</g>
		<rect x="25.054" y="117.336" opacity="0.52" fill="#033B6D" enable-background="new    " width="133.083" height="201.451"/>
		
			<path fill="#EFF8FB" stroke="#EFF8FB" stroke-width="1.9015" stroke-linecap="round" stroke-linejoin="round" stroke-miterlimit="10" d="
			M92.782,437.846"/>
		<path fill="none" stroke="#FFFFFF" stroke-width="4.2742" stroke-miterlimit="10" d="M168.554,426.552"/>
		<g>
			
				<path fill="#FFFFFF" stroke="#FFFFFF" stroke-width="2.1148" stroke-linecap="round" stroke-linejoin="round" stroke-miterlimit="10" d="
				M139.292,442.068l18.221-10.439l0.625,6.281c0,0-9.107,4.474-18.646,6.155C139.438,443.554,139.292,442.068,139.292,442.068z"/>
			
				<path fill="#ECEDED" stroke="#ECEDED" stroke-width="2.1148" stroke-linecap="round" stroke-linejoin="round" stroke-miterlimit="10" d="
				M139.49,444.065c-0.052-0.511-0.198-1.997-0.198-1.997l18.221-10.439L139.49,444.065z"/>
		</g>
		<g>
			
				<path fill="#FFFFFF" stroke="#FFFFFF" stroke-width="2.1148" stroke-linecap="round" stroke-linejoin="round" stroke-miterlimit="10" d="
				M45.918,442.068l-18.221-10.439l-0.625,6.281c0,0,9.108,4.474,18.647,6.155C45.77,443.554,45.918,442.068,45.918,442.068z"/>
			
				<path fill="#ECEDED" stroke="#ECEDED" stroke-width="2.1148" stroke-linecap="round" stroke-linejoin="round" stroke-miterlimit="10" d="
				M45.72,444.065c0.05-0.511,0.198-1.997,0.198-1.997l-18.221-10.439L45.72,444.065z"/>
		</g>
		<path fill="#EFF8FB" d="M39.092,411.707c59.188,15.311,103.911-0.601,103.911-0.601l3.85-57.967h9.396v69.807
			c0,0-63.411,19.872-130.349,0l-0.005-69.847h9.399L39.092,411.707z"/>
		<g>
			<polyline fill="#DFEBEF" points="143.003,411.106 146.853,353.139 156.247,353.139 156.247,422.946 			"/>
			<path fill="#8AAEB7" d="M143.101,407.378l13.108,11.493l0.038,4.155l-13.244-11.921
				C143.003,411.106,142.991,408.541,143.101,407.378z"/>
			<polygon fill="#8AAEB7" points="145.347,374.923 156.247,374.923 156.247,377.873 145.21,377.873 			"/>
		</g>
		<g>
			<polyline fill="#DFEBEF" points="39.142,411.507 35.292,353.099 25.898,353.099 25.898,423.346 			"/>
			<path fill="#8AAEB7" d="M39.044,407.778l-13.108,11.494l-0.038,4.155l13.244-11.921
				C39.142,411.507,39.154,408.941,39.044,407.778z"/>
			<polygon fill="#8AAEB7" points="36.798,375.323 25.898,375.323 25.898,378.273 36.935,378.273 			"/>
		</g>
	</g>
	<g>
		
			<path fill="#FFFFFF" stroke="#FFFFFF" stroke-width="0.5686" stroke-linecap="round" stroke-linejoin="round" stroke-miterlimit="10" d="
			M127.339,70.962c-0.021,0.2-0.033,0.404-0.033,0.61c0,2.26,1.363,4.229,3.389,5.282c0.152,2.031,2.07,3.707,4.619,4.181
			l-3.975,2.771l0.18,1.895l1.789,0.359l4.547-4.938l4.806,4.75l1.829-0.52l0.029-1.824l-4.709-2.963
			c0.928-0.4,1.701-0.977,2.24-1.667c1.805-0.74,3.126-2.271,3.42-4.102c2.391-0.794,4.145-2.771,4.391-5.145
			c1.967-1.496,3.218-3.733,3.218-6.235c0-4.488-4.022-8.13-8.993-8.152c-1.646-1.164-3.717-1.858-5.969-1.858
			c-3.006,0-5.692,1.235-7.469,3.174c-3.935,0.884-6.85,4.09-6.85,7.912C123.798,67.129,125.187,69.471,127.339,70.962z"/>
		
			<path fill="#FFFFFF" stroke="#FFFFFF" stroke-width="0.5686" stroke-linecap="round" stroke-linejoin="round" stroke-miterlimit="10" d="
			M127.339,70.962c-0.021,0.2-0.033,0.404-0.033,0.61c0,2.26,1.363,4.229,3.389,5.282c0.152,2.031,2.07,3.707,4.619,4.181
			l-3.975,2.771l0.18,1.895l1.789,0.359l4.547-4.938l4.806,4.75l1.829-0.52l0.029-1.824l-4.709-2.963
			c0.928-0.4,1.701-0.977,2.24-1.667c1.805-0.74,3.126-2.271,3.42-4.102c2.391-0.794,4.145-2.771,4.391-5.145
			c1.967-1.496,3.218-3.733,3.218-6.235c0-4.488-4.022-8.13-8.993-8.152c-1.646-1.164-3.717-1.858-5.969-1.858
			c-3.006,0-5.692,1.235-7.469,3.174c-3.935,0.884-6.85,4.09-6.85,7.912C123.798,67.129,125.187,69.471,127.339,70.962z"/>
		
			<path fill="#F6F6F6" stroke="#F6F6F6" stroke-width="0.1525" stroke-linecap="round" stroke-linejoin="round" stroke-miterlimit="10" d="
			M137.854,81.121l4.806,4.75l1.83-0.52l0.028-1.824l-4.709-2.963c0.928-0.4,1.701-0.977,2.24-1.667
			c1.805-0.74,3.126-2.271,3.42-4.102c2.391-0.794,4.146-2.771,4.391-5.145c1.967-1.496,3.218-3.733,3.218-6.235
			c0-4.488-4.022-8.13-8.993-8.152c-1.646-1.164-3.717-1.858-5.969-1.858"/>
	</g>
	<g>
		
			<path fill="#FFFFFF" stroke="#FFFFFF" stroke-width="0.5686" stroke-linecap="round" stroke-linejoin="round" stroke-miterlimit="10" d="
			M94.522,41.427c-0.155,0.127-0.308,0.264-0.451,0.41c-1.583,1.612-1.988,3.975-1.28,6.144c-1.313,1.558-1.119,4.097,0.369,6.221
			l-4.777-0.807l-1.199,1.478l1.024,1.51l6.705-0.34l0.104,6.756l1.67,0.91l1.299-1.28L96.7,57.014
			c0.941,0.363,1.896,0.494,2.767,0.38c1.806,0.733,3.82,0.568,5.312-0.531c2.263,1.106,4.898,0.924,6.738-0.598
			c2.451,0.309,4.91-0.413,6.662-2.197c3.145-3.205,2.822-8.62-0.709-12.119c-0.359-1.983-1.351-3.929-2.957-5.507
			c-2.146-2.105-4.93-3.104-7.556-2.966c-3.427-2.124-7.753-1.877-10.431,0.852C94.681,36.208,94.03,38.853,94.522,41.427z"/>
		
			<path fill="#FFFFFF" stroke="#FFFFFF" stroke-width="0.5686" stroke-linecap="round" stroke-linejoin="round" stroke-miterlimit="10" d="
			M94.522,41.427c-0.155,0.127-0.308,0.264-0.451,0.41c-1.583,1.612-1.988,3.975-1.28,6.144c-1.313,1.558-1.119,4.097,0.369,6.221
			l-4.777-0.807l-1.199,1.478l1.024,1.51l6.705-0.34l0.104,6.756l1.67,0.91l1.299-1.28L96.7,57.014
			c0.941,0.363,1.896,0.494,2.767,0.38c1.806,0.733,3.82,0.568,5.312-0.531c2.263,1.106,4.898,0.924,6.738-0.598
			c2.451,0.309,4.91-0.413,6.662-2.197c3.145-3.205,2.822-8.62-0.709-12.119c-0.359-1.983-1.351-3.929-2.957-5.507
			c-2.146-2.105-4.93-3.104-7.556-2.966c-3.427-2.124-7.753-1.877-10.431,0.852C94.681,36.208,94.03,38.853,94.522,41.427z"/>
		
			<path fill="#F6F6F6" stroke="#F6F6F6" stroke-width="0.1525" stroke-linecap="round" stroke-linejoin="round" stroke-miterlimit="10" d="
			M94.913,56.041l0.104,6.756l1.67,0.91l1.299-1.28L96.7,57.013c0.941,0.363,1.896,0.494,2.767,0.38
			c1.806,0.733,3.82,0.568,5.312-0.531c2.263,1.106,4.898,0.924,6.738-0.598c2.451,0.309,4.91-0.413,6.662-2.197
			c3.145-3.205,2.822-8.62-0.709-12.119c-0.359-1.983-1.351-3.929-2.957-5.507"/>
	</g>
	<g>
		
			<path fill="#FFFFFF" stroke="#FFFFFF" stroke-width="0.5686" stroke-linecap="round" stroke-linejoin="round" stroke-miterlimit="10" d="
			M137.84,22.364c-0.159-0.123-0.327-0.239-0.504-0.346c-1.933-1.17-4.323-1.023-6.272,0.164c-1.816-0.921-4.244-0.148-5.969,1.788
			l-0.312-4.835l-1.715-0.828l-1.232,1.344l1.87,6.447l-6.554,1.65l-0.502,1.834l1.545,0.971l4.975-2.493
			c-0.139,1-0.047,1.96,0.266,2.778c-0.301,1.928,0.322,3.851,1.736,5.049c-0.559,2.457,0.225,4.98,2.129,6.422
			c0.262,2.456,1.528,4.684,3.668,5.979c3.842,2.324,9.038,0.77,11.633-3.472c1.849-0.805,3.515-2.217,4.68-4.145
			c1.558-2.57,1.892-5.51,1.152-8.032c1.281-3.822,0.047-7.978-3.223-9.956C142.954,21.319,140.231,21.294,137.84,22.364z"/>
		
			<path fill="#FFFFFF" stroke="#FFFFFF" stroke-width="0.5686" stroke-linecap="round" stroke-linejoin="round" stroke-miterlimit="10" d="
			M137.84,22.364c-0.159-0.123-0.327-0.239-0.504-0.346c-1.933-1.17-4.323-1.023-6.272,0.164c-1.816-0.921-4.244-0.148-5.969,1.788
			l-0.312-4.835l-1.715-0.828l-1.232,1.344l1.87,6.447l-6.554,1.65l-0.502,1.834l1.545,0.971l4.975-2.493
			c-0.139,1-0.047,1.96,0.266,2.778c-0.301,1.928,0.322,3.851,1.736,5.049c-0.559,2.457,0.225,4.98,2.129,6.422
			c0.262,2.456,1.528,4.684,3.668,5.979c3.842,2.324,9.038,0.77,11.633-3.472c1.849-0.805,3.515-2.217,4.68-4.145
			c1.558-2.57,1.892-5.51,1.152-8.032c1.281-3.822,0.047-7.978-3.223-9.956C142.954,21.319,140.231,21.294,137.84,22.364z"/>
		
			<path fill="#F6F6F6" stroke="#F6F6F6" stroke-width="0.1525" stroke-linecap="round" stroke-linejoin="round" stroke-miterlimit="10" d="
			M123.705,26.099l-6.554,1.65l-0.502,1.834l1.545,0.971l4.975-2.493c-0.139,1-0.047,1.96,0.266,2.778
			c-0.301,1.928,0.322,3.851,1.736,5.049c-0.559,2.457,0.225,4.98,2.129,6.422c0.262,2.456,1.528,4.684,3.668,5.979
			c3.842,2.324,9.038,0.77,11.633-3.472c1.849-0.805,3.515-2.217,4.68-4.145"/>
	</g>
	<g>
		
			<path fill="#FFFFFF" stroke="#FFFFFF" stroke-width="0.5686" stroke-linecap="round" stroke-linejoin="round" stroke-miterlimit="10" d="
			M97.619,76.395c-0.156,0.128-0.31,0.264-0.454,0.41c-1.589,1.604-2.007,3.966-1.307,6.138c-1.32,1.551-1.139,4.092,0.342,6.221
			l-4.772-0.827l-1.207,1.474l1.02,1.515l6.705-0.312l0.072,6.756l1.668,0.919l1.305-1.276l-1.264-5.419
			c0.939,0.369,1.896,0.504,2.766,0.393c1.803,0.742,3.818,0.586,5.314-0.509c2.258,1.116,4.896,0.944,6.74-0.567
			c2.449,0.319,4.912-0.392,6.672-2.169c3.158-3.19,2.86-8.608-0.656-12.122c-0.351-1.982-1.334-3.936-2.935-5.52
			c-2.137-2.115-4.914-3.126-7.541-2.998c-3.418-2.14-7.745-1.911-10.435,0.806C97.799,71.18,97.14,73.821,97.619,76.395z"/>
		
			<path fill="#FFFFFF" stroke="#FFFFFF" stroke-width="0.5686" stroke-linecap="round" stroke-linejoin="round" stroke-miterlimit="10" d="
			M97.619,76.395c-0.156,0.128-0.31,0.264-0.454,0.41c-1.589,1.604-2.007,3.966-1.307,6.138c-1.32,1.551-1.139,4.092,0.342,6.221
			l-4.772-0.827l-1.207,1.474l1.02,1.515l6.705-0.312l0.072,6.756l1.668,0.919l1.305-1.276l-1.264-5.419
			c0.939,0.369,1.896,0.504,2.766,0.393c1.803,0.742,3.818,0.586,5.314-0.509c2.258,1.116,4.896,0.944,6.74-0.567
			c2.449,0.319,4.912-0.392,6.672-2.169c3.158-3.19,2.86-8.608-0.656-12.122c-0.351-1.982-1.334-3.936-2.935-5.52
			c-2.137-2.115-4.914-3.126-7.541-2.998c-3.418-2.14-7.745-1.911-10.435,0.806C97.799,71.18,97.14,73.821,97.619,76.395z"/>
		
			<path fill="#F6F6F6" stroke="#F6F6F6" stroke-width="0.1525" stroke-linecap="round" stroke-linejoin="round" stroke-miterlimit="10" d="
			M97.946,91.012l0.072,6.756l1.666,0.919l1.306-1.276l-1.265-5.419c0.94,0.369,1.896,0.504,2.767,0.392
			c1.803,0.743,3.817,0.587,5.313-0.508c2.258,1.116,4.896,0.944,6.741-0.567c2.449,0.319,4.912-0.392,6.673-2.169
			c3.157-3.19,2.859-8.608-0.656-12.122c-0.352-1.982-1.334-3.936-2.936-5.52"/>
	</g>
</g>
<g id="Påse" opacity="0.65">
	<g>
		<g>
			<g>
				
					<polygon fill="#CA9E64" stroke="#CA9E64" stroke-width="1.3504" stroke-linecap="round" stroke-linejoin="round" stroke-miterlimit="10" points="
					65.193,76.444 64.522,62.863 64.525,42.022 50.074,42.022 35.623,42.022 35.625,62.863 34.955,76.444 				"/>
			</g>
			<g>
				
					<polyline fill="#BF925C" stroke="#BF925C" stroke-width="1.3504" stroke-linecap="round" stroke-linejoin="round" stroke-miterlimit="10" points="
					65.193,76.444 64.522,62.863 64.525,46.205 50.074,46.205 35.623,46.205 				"/>
			</g>
			<g>
				
					<rect x="34.52" y="40.986" fill="#CA9E64" stroke="#CA9E64" stroke-width="1.3697" stroke-linecap="round" stroke-linejoin="round" stroke-miterlimit="10" width="31.108" height="5.219"/>
			</g>
		</g>
		<g>
			
				<polyline fill="#BF925C" stroke="#BF925C" stroke-width="1.3504" stroke-linecap="round" stroke-linejoin="round" stroke-miterlimit="10" points="
				65.193,76.444 64.522,62.863 64.525,46.205 50.074,46.205 35.623,46.205 			"/>
		</g>
		<g>
			
				<rect x="34.52" y="40.986" fill="#CA9E64" stroke="#CA9E64" stroke-width="1.3697" stroke-linecap="round" stroke-linejoin="round" stroke-miterlimit="10" width="31.108" height="5.219"/>
		</g>
		<g>
			
				<path fill="#9C7040" stroke="#9C7040" stroke-width="1.3504" stroke-linecap="round" stroke-linejoin="round" stroke-miterlimit="10" d="
				M64.739,67.255c0,0-3.061,0.966-5.821,0.901c-2.001-0.046-4.786-1.362-7.931-1.362c-3.173,0-4.967,1.266-8.878,1.266
				c-3.037,0-6.642-2.001-6.642-2.001l-0.513,10.385h30.238l-0.406-8.222L64.739,67.255z"/>
		</g>
		<g opacity="0.79">
			
				<path fill="#936A3D" stroke="#936A3D" stroke-width="1.3504" stroke-linecap="round" stroke-linejoin="round" stroke-miterlimit="10" d="
				M65.193,76.444l-0.406-8.222l-0.047-0.967c0,0-3.061,0.966-5.821,0.901c-0.659-0.015-1.402-0.168-2.215-0.366L65.193,76.444z"/>
		</g>
	</g>
</g>
<g>
	<g>
		<g>
			<path fill="#EEEDED" d="M45.489,25.679l-0.81-0.302l-1.5-0.561l-0.131-0.045l-1.133,0.521c-0.438,0.201-0.935,0.054-1.11-0.329
				l0,0c-0.176-0.383,0.036-0.856,0.473-1.058l0.32-0.147l0.231-0.106l-0.105-0.232l-0.145-0.321
				c-0.198-0.438-0.048-0.934,0.335-1.108l0,0c0.384-0.173,0.856,0.041,1.054,0.479l0.515,1.136l0.129,0.051l1.5,0.561l0.81,0.302
				L45.489,25.679z"/>
		</g>
		<g>
			
				<path fill="none" stroke="#CBCACA" stroke-width="1.9728" stroke-linecap="round" stroke-linejoin="round" stroke-miterlimit="10" d="
				M41.913,21.993"/>
		</g>
		<g>
			
				<path fill="#CA9E67" stroke="#CA9E67" stroke-width="1.9728" stroke-linecap="round" stroke-linejoin="round" stroke-miterlimit="10" d="
				M53.395,29.061c0.234,0.087,0.439,0.214,0.615,0.371c0.275-0.236,0.487-0.529,0.615-0.873l0.085-0.226
				c0.509-1.364-0.504-3.002-2.262-3.659c-0.88-0.328-1.779-0.349-2.522-0.117c0,0-1.996,0.711-3.591,0.116L45.9,25.836
				c1.595,0.596,2.637,2.44,2.637,2.44c0.409,0.662,1.102,1.235,1.981,1.564c0.156,0.059,0.314,0.106,0.471,0.146
				C51.436,29.126,52.464,28.714,53.395,29.061z"/>
		</g>
		<g>
			
				<path fill="#BD8855" stroke="#BD8855" stroke-width="1.9728" stroke-linecap="round" stroke-linejoin="round" stroke-miterlimit="10" d="
				M53.395,29.061c0.234,0.087,0.439,0.214,0.615,0.371c0.275-0.236,0.487-0.529,0.615-0.873l-8.507-3.305L45.9,25.836
				c1.595,0.596,2.637,2.44,2.637,2.44c0.409,0.662,1.102,1.236,1.981,1.564c0.156,0.058,0.314,0.106,0.471,0.146
				C51.436,29.126,52.464,28.714,53.395,29.061z"/>
		</g>
	</g>
	<g>
		
			<path fill="#90AFB0" stroke="#90AFB0" stroke-width="4.6247" stroke-linecap="round" stroke-linejoin="round" stroke-miterlimit="10" d="
			M43.053,29.98c0,0,3.161,2.714,6.596,1.078c1.869-3.314-0.621-6.655-0.621-6.655C46.89,28.102,43.053,29.98,43.053,29.98z"/>
	</g>
	<g>
		
			<path fill="#6F989E" stroke="#6F989E" stroke-width="4.6247" stroke-linecap="round" stroke-linejoin="round" stroke-miterlimit="10" d="
			M46.503,27.516c0.894-0.83,1.805-1.868,2.524-3.113c0,0,2.436,3.267,0.681,6.545L46.503,27.516z"/>
	</g>
	<g>
		
			<path fill="#FBD15B" stroke="#FBD15B" stroke-width="0.979" stroke-linecap="round" stroke-linejoin="round" stroke-miterlimit="10" d="
			M51.515,51.652c0.546,1.239-0.016,2.686-1.254,3.232l0,0c-1.239,0.546-2.686-0.016-3.232-1.254L35.507,27.496
			c-0.546-1.239,0.016-2.686,1.254-3.231l0,0c1.239-0.546,2.686,0.015,3.232,1.254L51.515,51.652z"/>
		<path fill="#F9B71F" stroke="#F9B71F" stroke-width="0.979" stroke-miterlimit="10" d="M36.761,24.264L36.761,24.264
			c-1.239,0.546-1.8,1.993-1.254,3.231l11.521,26.133c0.546,1.239,1.993,1.8,3.232,1.254l0,0L36.761,24.264z"/>
	</g>
	<g>
		
			<path fill="#662682" stroke="#662682" stroke-width="1.5301" stroke-linecap="round" stroke-linejoin="round" stroke-miterlimit="10" d="
			M61.616,31.15c0.792,1.798-0.248,3.998-2.045,4.79l0,0c-1.798,0.792-4.123,0.077-4.916-1.721l-2.853-8.606
			c-0.792-1.798-0.541-3.65,1.257-4.442l0,0c1.798-0.792,3.334,0.271,4.127,2.068L61.616,31.15z"/>
		
			<path fill="#492569" stroke="#492569" stroke-width="1.5301" stroke-linecap="round" stroke-linejoin="round" stroke-miterlimit="10" d="
			M53.06,21.171L53.06,21.171c-1.798,0.792-2.05,2.645-1.257,4.442l2.853,8.606c0.792,1.798,3.118,2.514,4.916,1.721l0,0
			L53.06,21.171z"/>
		<g>
			
				<path fill="#017E41" stroke="#017E41" stroke-width="1.4076" stroke-linecap="round" stroke-linejoin="round" stroke-miterlimit="10" d="
				M54.872,17.75c-1.609,0.765-2.174,1.687-2.174,1.687l-0.743-1.59l-0.237,0.111l-0.238,0.111l0.902,1.933
				c0,0-1.524-0.511-3.145,0.23c1.587,0.007,2.033,0.295,2.033,0.295s-1.737,0.87-2.073,2.48c0,0,1.312-1.844,3.689-2.615
				C52.886,20.391,53.214,18.969,54.872,17.75z"/>
		</g>
	</g>
	<g>
		<g>
			<g>
				
					<ellipse transform="matrix(-0.4039 -0.9148 0.9148 -0.4039 47.3912 88.5265)" fill="#452B1A" stroke="#452B1A" stroke-miterlimit="10" cx="52.539" cy="28.822" rx="0.29" ry="0.127"/>
			</g>
		</g>
		<g>
			<g>
				
					<ellipse transform="matrix(-0.4036 -0.915 0.915 -0.4036 48.9326 88.7806)" fill="#452B1A" stroke="#452B1A" stroke-miterlimit="10" cx="53.404" cy="28.441" rx="0.29" ry="0.127"/>
			</g>
		</g>
	</g>
	<g>
		<g>
			
				<path fill="#42AB39" stroke="#42AB39" stroke-width="0.8522" stroke-linecap="round" stroke-linejoin="round" stroke-miterlimit="10" d="
				M56.301,30.023c0.204,0.461,0.108,1.397-0.417,1.629c0,0-0.25,0.106-0.7,0.162c-0.386,0.047-0.705,0.191-0.72,0.198l-0.024,0.011
				c-0.015,0.006-0.336,0.145-0.632,0.398c-0.344,0.294-0.591,0.407-0.591,0.407c-0.525,0.231-1.28-0.33-1.483-0.791L56.301,30.023z
				"/>
		</g>
	</g>
	<g>
		
			<path fill="none" stroke="#595958" stroke-width="4.6247" stroke-linecap="round" stroke-linejoin="round" stroke-miterlimit="10" d="
			M42.036,39.024c0,0,3.173-1.317,5.044-4.197"/>
	</g>
	<g>
		
			<path fill="none" stroke="#595958" stroke-width="4.6247" stroke-linecap="round" stroke-linejoin="round" stroke-miterlimit="10" d="
			M40.961,36.705c0,0,2.591-0.984,4.282-3.179"/>
	</g>
	<g>
		
			<path fill="none" stroke="#595958" stroke-width="4.6247" stroke-linecap="round" stroke-linejoin="round" stroke-miterlimit="10" d="
			M40.405,34.248c0,0,1.934-0.648,3.242-2.212"/>
	</g>
	<g>
		
			<circle fill="#FFFFFF" stroke="#FFFFFF" stroke-width="4.6247" stroke-linecap="round" stroke-linejoin="round" stroke-miterlimit="10" cx="46.9" cy="41.062" r="0.742"/>
	</g>
	<g>
		<circle fill="#020304" cx="46.9" cy="41.062" r="0.33"/>
	</g>
	<g>
		<path fill="#FCC10D" stroke="#FCC10D" stroke-linecap="round" stroke-linejoin="round" stroke-miterlimit="10" d="M57.909,33.205"
			/>
	</g>
	<g>
		<circle fill="#655044" cx="54.066" cy="31.023" r="0.101"/>
	</g>
	<g>
		<circle fill="#655044" cx="53.926" cy="31.523" r="0.101"/>
	</g>
	<g>
		<circle fill="#655044" cx="53.713" cy="31.966" r="0.101"/>
	</g>
	<g>
		<circle fill="#655044" cx="54.043" cy="32.042" r="0.101"/>
	</g>
	<g>
		<circle fill="#655044" cx="53.875" cy="32.586" r="0.101"/>
	</g>
	<g>
		<circle fill="#655044" cx="54.217" cy="32.689" r="0.101"/>
	</g>
	<g>
		<circle fill="#655044" cx="53.655" cy="30.904" r="0.101"/>
	</g>
	<g>
		<circle fill="#655044" cx="53.79" cy="30.316" r="0.101"/>
	</g>
	
		<polygon fill="#C89D64" stroke="#C89D64" stroke-width="1.3504" stroke-linecap="round" stroke-linejoin="round" stroke-miterlimit="10" points="
		70.732,50.204 65.922,40.604 59.285,25.545 48.843,30.149 38.401,34.752 45.042,49.809 48.884,59.836 	"/>
	<g>
		<g>
			
				<path fill="#E6352B" stroke="#E6352B" stroke-width="1.1541" stroke-linecap="round" stroke-linejoin="round" stroke-miterlimit="10" d="
				M43.195,36.597c2.115-1.666,2.992-4.404,1.963-6.737s-3.195-2.519-5.696-1.729L43.195,36.597z"/>
		</g>
		<g>
			
				<path fill="#F08479" stroke="#F08479" stroke-width="0.5708" stroke-linecap="round" stroke-linejoin="round" stroke-miterlimit="10" d="
				M41.955,33.846c1.046-0.824,1.48-2.179,0.971-3.333c-0.509-1.154-1.581-1.246-2.817-0.855L41.955,33.846z"/>
		</g>
		<g>
			
				<path fill="#FFE19D" stroke="#FFE19D" stroke-width="0.1268" stroke-linecap="round" stroke-linejoin="round" stroke-miterlimit="10" d="
				M42.154,28.914c0.048-0.161,0-0.318-0.108-0.35c-0.107-0.032-0.233,0.073-0.281,0.234c-0.048,0.162-0.013,0.363,0.095,0.396
				C41.967,29.226,42.106,29.076,42.154,28.914z"/>
		</g>
		<g>
			
				<path fill="#FFE19D" stroke="#FFE19D" stroke-width="0.1268" stroke-linecap="round" stroke-linejoin="round" stroke-miterlimit="10" d="
				M43.097,29.529c0.109-0.128,0.127-0.291,0.042-0.364c-0.086-0.072-0.243-0.027-0.352,0.102c-0.108,0.129-0.158,0.328-0.072,0.4
				C42.8,29.739,42.989,29.657,43.097,29.529z"/>
		</g>
		<g>
			
				<path fill="#FFE19D" stroke="#FFE19D" stroke-width="0.1268" stroke-linecap="round" stroke-linejoin="round" stroke-miterlimit="10" d="
				M43.68,30.515c0.153-0.071,0.238-0.211,0.191-0.313c-0.048-0.102-0.21-0.126-0.362-0.055c-0.153,0.071-0.281,0.231-0.234,0.333
				C43.323,30.581,43.527,30.586,43.68,30.515z"/>
		</g>
		<g>
			
				<path fill="#FFE19D" stroke="#FFE19D" stroke-width="0.1268" stroke-linecap="round" stroke-linejoin="round" stroke-miterlimit="10" d="
				M43.724,32.384c0.151,0.073,0.235,0.215,0.186,0.316c-0.049,0.101-0.211,0.123-0.363,0.05c-0.151-0.073-0.276-0.235-0.228-0.336
				S43.572,32.31,43.724,32.384z"/>
		</g>
		<g>
			
				<path fill="#FFE19D" stroke="#FFE19D" stroke-width="0.1268" stroke-linecap="round" stroke-linejoin="round" stroke-miterlimit="10" d="
				M43.851,31.238c0.169,0.007,0.301,0.103,0.297,0.215c-0.004,0.112-0.145,0.198-0.312,0.191c-0.168-0.006-0.348-0.105-0.344-0.217
				C43.496,31.316,43.683,31.232,43.851,31.238z"/>
		</g>
	</g>
	
		<polyline fill="#BE915C" stroke="#BE915C" stroke-width="1.3504" stroke-linecap="round" stroke-linejoin="round" stroke-miterlimit="10" points="
		70.732,50.204 65.922,40.604 60.617,28.568 50.175,33.171 39.734,37.775 	"/>
	
		<rect x="37.063" y="29.225" transform="matrix(-0.915 0.4034 -0.4034 -0.915 107.1168 40.0069)" fill="#C89D64" stroke="#C89D64" stroke-width="1.3697" stroke-linecap="round" stroke-linejoin="round" stroke-miterlimit="10" width="24.564" height="4.121"/>
</g>
<g>
	<g>
		<g>
			<g>
				
					<ellipse transform="matrix(0.8822 -0.4708 0.4708 0.8822 -31.263 38.6221)" fill="#452B1A" stroke="#452B1A" stroke-miterlimit="10" cx="61.569" cy="81.801" rx="0.267" ry="0.118"/>
			</g>
		</g>
		<g>
			<g>
				
					<ellipse transform="matrix(0.8832 -0.469 0.469 0.8832 -31.4873 38.7146)" fill="#452B1A" stroke="#452B1A" stroke-miterlimit="10" cx="61.979" cy="82.57" rx="0.267" ry="0.117"/>
			</g>
		</g>
	</g>
	<g>
		<g>
			
				<path fill="#42AB39" stroke="#42AB39" stroke-width="0.8522" stroke-linecap="round" stroke-linejoin="round" stroke-miterlimit="10" d="
				M60.723,85.343c-0.41,0.219-1.278,0.195-1.526-0.271c0,0-0.116-0.222-0.198-0.631c-0.07-0.352-0.224-0.635-0.231-0.648
				l-0.012-0.021c-0.006-0.013-0.156-0.299-0.409-0.554c-0.294-0.296-0.415-0.516-0.415-0.516c-0.249-0.466,0.215-1.2,0.626-1.419
				L60.723,85.343z"/>
		</g>
	</g>
	<g>
		
			<path fill="none" stroke="#595958" stroke-width="4.6247" stroke-linecap="round" stroke-linejoin="round" stroke-miterlimit="10" d="
			M51.467,72.841c0,0,1.429,2.829,4.205,4.352"/>
	</g>
	<g>
		
			<path fill="none" stroke="#595958" stroke-width="4.6247" stroke-linecap="round" stroke-linejoin="round" stroke-miterlimit="10" d="
			M53.525,71.695c0,0,1.083,2.314,3.217,3.72"/>
	</g>
	<g>
		
			<path fill="none" stroke="#595958" stroke-width="4.6247" stroke-linecap="round" stroke-linejoin="round" stroke-miterlimit="10" d="
			M55.747,71.014c0,0,0.729,1.735,2.256,2.831"/>
	</g>
	<g>
		
			<circle fill="#FFFFFF" stroke="#FFFFFF" stroke-width="4.6247" stroke-linecap="round" stroke-linejoin="round" stroke-miterlimit="10" cx="49.926" cy="77.455" r="0.684"/>
	</g>
	<g>
		<circle fill="#020304" cx="49.926" cy="77.455" r="0.304"/>
	</g>
	<g>
		<path fill="#FCC10D" stroke="#FCC10D" stroke-linecap="round" stroke-linejoin="round" stroke-miterlimit="10" d="M57.906,87.04"
			/>
	</g>
	<g>
		<circle fill="#655044" cx="59.65" cy="83.357" r="0.093"/>
	</g>
	<g>
		<circle fill="#655044" cx="59.18" cy="83.262" r="0.093"/>
	</g>
	<g>
		<circle fill="#655044" cx="58.758" cy="83.096" r="0.093"/>
	</g>
	<g>
		<circle fill="#655044" cx="58.711" cy="83.405" r="0.093"/>
	</g>
	<g>
		<circle fill="#655044" cx="58.199" cy="83.287" r="0.093"/>
	</g>
	<g>
		<circle fill="#655044" cx="58.127" cy="83.609" r="0.093"/>
	</g>
	<g>
		<circle fill="#655044" cx="59.731" cy="82.97" r="0.093"/>
	</g>
	<g>
		<circle fill="#655044" cx="60.281" cy="83.055" r="0.093"/>
	</g>
	
		<polygon fill="#C89D64" stroke="#C89D64" stroke-width="1.3504" stroke-linecap="round" stroke-linejoin="round" stroke-miterlimit="10" points="
		43.153,99.999 51.651,94.916 65.045,87.78 60.096,78.493 55.146,69.206 41.754,76.346 32.796,80.567 	"/>
	
		<polyline fill="#BE915C" stroke="#BE915C" stroke-width="1.3504" stroke-linecap="round" stroke-linejoin="round" stroke-miterlimit="10" points="
		43.153,99.999 51.651,94.916 62.356,89.213 57.407,79.926 52.457,70.639 	"/>
	<g>
		<g>
			<g>
				<path fill="#E3E684" d="M63.292,81.9c-0.239-0.855,0.167-2.059,1.104-3.025c0.934-0.963,2.118-1.406,2.98-1.198l-2.003-1.943
					l-2.002-1.944c0.233,0.854-0.174,2.053-1.108,3.015c-0.937,0.965-2.128,1.409-2.989,1.195L63.292,81.9z"/>
			</g>
		</g>
		<g>
			<g>
				<path fill="#3CA036" d="M66.438,74.715"/>
			</g>
		</g>
		<g>
			<g>
				<path fill="#CDDD86" d="M61.313,79.92l2.01,1.949c-0.24-0.855,0.136-2.028,1.073-2.994c0.934-0.961,2.098-1.383,2.958-1.175
					l-2.002-1.943l-3.97,4.093L61.313,79.92z"/>
			</g>
		</g>
		<g>
			<g>
				<path fill="#442A19" stroke="#442A19" stroke-miterlimit="10" d="M66.503,74.742c0.531-0.548,1.386-0.583,1.942-0.043
					l-0.278,0.287c-0.421-0.408-1.097-0.492-1.495-0.081L66.503,74.742z"/>
			</g>
		</g>
		<g>
			<g>
				<g>
					<g>
						<path fill="#056734" d="M66.198,74.435c0.472-0.134,0.708-0.342,0.708-0.342c1.312-1.075-0.021-2.927-0.021-2.927
							s-1.967,1.159-1.198,2.671C65.687,73.837,65.82,74.121,66.198,74.435z"/>
					</g>
				</g>
			</g>
			<g>
				<g>
					<g>
						<path fill="#017E41" d="M66.885,71.165c0,0-1.967,1.159-1.198,2.671c0,0,0.133,0.285,0.511,0.598"/>
					</g>
				</g>
			</g>
		</g>
		<g>
			<g>
				<g>
					
						<ellipse transform="matrix(-0.7189 -0.6951 0.6951 -0.7189 54.3996 176.954)" fill="#442A19" stroke="#442A19" stroke-miterlimit="10" cx="62.977" cy="77.478" rx="0.143" ry="0.327"/>
				</g>
			</g>
			<g>
				<g>
					
						<ellipse transform="matrix(-0.7181 -0.696 0.696 -0.7181 55.0779 178.7533)" fill="#442A19" stroke="#442A19" stroke-miterlimit="10" cx="63.744" cy="78.221" rx="0.143" ry="0.327"/>
				</g>
			</g>
		</g>
		<g>
			<g>
				
					<path fill="#3EAB37" stroke="#3EAB37" stroke-width="0.8532" stroke-linecap="round" stroke-linejoin="round" stroke-miterlimit="10" d="
					M67.414,77.713c0.397-0.409,0.416-1.183-0.05-1.635c-0.125-0.123-0.27-0.214-0.42-0.274L66.65,75.67
					c-0.484-0.237-0.715-0.461-0.715-0.461l-0.003-0.003c0,0-0.232-0.224-0.483-0.701l-0.143-0.291
					c-0.065-0.148-0.161-0.289-0.287-0.411c-0.466-0.451-1.24-0.41-1.636,0L67.414,77.713z"/>
			</g>
		</g>
		<g>
			<g>
				
					<path fill="#3EAB37" stroke="#3EAB37" stroke-width="0.8522" stroke-linecap="round" stroke-linejoin="round" stroke-miterlimit="10" d="
					M63.319,81.925c-0.396,0.409-1.417,0.707-1.882,0.256c0,0-0.217-0.216-0.466-0.663c-0.213-0.384-0.5-0.657-0.513-0.669
					l-0.022-0.021c-0.013-0.012-0.294-0.29-0.685-0.492c-0.455-0.235-0.676-0.446-0.676-0.446c-0.465-0.45-0.199-1.479,0.198-1.889
					L63.319,81.925z"/>
			</g>
		</g>
	</g>
	<g>
		<polygon fill="#FFD703" points="69.459,79.386 66.914,87.74 58.121,80.429 		"/>
		<polygon fill="#FCC108" points="58.121,80.429 66.914,87.74 68.205,83.501 		"/>
		<circle fill="#FFD703" cx="60.216" cy="81.558" r="0.366"/>
		<circle fill="#FCC108" cx="65.357" cy="80.678" r="0.365"/>
		<circle fill="#FFD703" cx="66.251" cy="85.125" r="0.365"/>
		<circle fill="#FCC108" cx="65.903" cy="82.801" r="0.365"/>
		<circle fill="#FCC108" cx="62.362" cy="81.721" r="0.644"/>
		<circle fill="#FFD703" cx="64.032" cy="83.775" r="0.644"/>
		<path fill="#FFD703" d="M62.978,81.908c-0.104,0.341-0.463,0.532-0.804,0.429c-0.34-0.104-0.533-0.463-0.429-0.804L62.978,81.908z
			"/>
		<path fill="#FFD703" d="M66.253,82.908c-0.059,0.192-0.263,0.301-0.456,0.243c-0.192-0.059-0.301-0.264-0.243-0.456L66.253,82.908
			z"/>
		<polygon fill="#67A6A3" points="69.459,79.386 68.237,83.396 67.384,79.577 		"/>
		<circle fill="#67A6A3" cx="67.892" cy="82.444" r="0.555"/>
		<circle fill="#67A6A3" cx="67.548" cy="80.56" r="0.555"/>
		<path fill="#67A6A3" d="M68.337,83.07c-0.042-0.069-0.107-0.125-0.19-0.15c-0.176-0.053-0.362,0.046-0.416,0.221
			c-0.053,0.175,0.046,0.361,0.221,0.415c0.083,0.025,0.169,0.016,0.242-0.019"/>
		<path fill="#67A6A3" d="M67.463,79.57c0.058,0.053,0.098,0.127,0.106,0.212c0.02,0.182-0.113,0.345-0.296,0.364
			c-0.183,0.019-0.346-0.115-0.364-0.297c-0.008-0.086,0.017-0.169,0.065-0.233"/>
		<circle fill="#67A6A3" cx="67.935" cy="81.502" r="0.555"/>
		<polygon fill="#488E8A" points="69.425,79.392 68.203,83.402 68.249,79.5 		"/>
	</g>
	<g>
		<circle fill="#FBC717" stroke="#FBC717" stroke-width="0.9468" stroke-miterlimit="10" cx="59.229" cy="74.037" r="3.422"/>
		<path fill="#FAB61B" stroke="#FAB61B" stroke-width="0.9468" stroke-miterlimit="10" d="M56.21,75.646
			c-0.889-1.668-0.258-3.74,1.41-4.629c1.667-0.89,3.74-0.257,4.629,1.41L56.21,75.646z"/>
		<circle fill="#F9AE1B" stroke="#F9AE1B" stroke-width="1.0362" stroke-miterlimit="10" cx="62.237" cy="73.292" r="0.102"/>
		<circle fill="#F9AE1B" stroke="#F9AE1B" stroke-width="1.0362" stroke-miterlimit="10" cx="62.284" cy="73.814" r="0.102"/>
		<circle fill="#F9AE1B" stroke="#F9AE1B" stroke-width="1.0362" stroke-miterlimit="10" cx="61.754" cy="73.55" r="0.102"/>
		<circle fill="#F9AE1B" stroke="#F9AE1B" stroke-width="1.0362" stroke-miterlimit="10" cx="61.73" cy="72.992" r="0.102"/>
		<circle fill="#F9AE1B" stroke="#F9AE1B" stroke-width="1.0362" stroke-miterlimit="10" cx="61.869" cy="74.266" r="0.102"/>
		<circle fill="#F9AE1B" stroke="#F9AE1B" stroke-width="1.0362" stroke-miterlimit="10" cx="62.055" cy="74.982" r="0.102"/>
		<circle fill="#F9AE1B" stroke="#F9AE1B" stroke-width="1.0362" stroke-miterlimit="10" cx="61.605" cy="75.222" r="0.102"/>
		<circle fill="#F9AE1B" stroke="#F9AE1B" stroke-width="1.0362" stroke-miterlimit="10" cx="61.434" cy="74.685" r="0.102"/>
		<circle fill="#F9AE1B" stroke="#F9AE1B" stroke-width="1.0362" stroke-miterlimit="10" cx="61.05" cy="73.53" r="0.102"/>
		<circle fill="#F9AE1B" stroke="#F9AE1B" stroke-width="1.0362" stroke-miterlimit="10" cx="60.69" cy="74.117" r="0.101"/>
		<circle fill="#F9AE1B" stroke="#F9AE1B" stroke-width="1.0362" stroke-miterlimit="10" cx="61.31" cy="74.018" r="0.102"/>
		<circle fill="#F9AE1B" stroke="#F9AE1B" stroke-width="1.0362" stroke-miterlimit="10" cx="62.304" cy="74.502" r="0.102"/>
	</g>
	<g>
		<g>
			
				<circle fill="#017E41" stroke="#017E41" stroke-width="1.7447" stroke-linecap="round" stroke-linejoin="round" stroke-miterlimit="10" cx="58.08" cy="71.309" r="3.333"/>
			
				<path fill="#96C222" stroke="#96C222" stroke-width="1.7447" stroke-linecap="round" stroke-linejoin="round" stroke-miterlimit="10" d="
				M55.461,72.704c-0.77-1.443-0.221-3.244,1.223-4.014c1.444-0.769,3.244-0.221,4.013,1.223c0.77,1.443,0.221,3.245-1.222,4.014
				C58.031,74.697,56.23,74.148,55.461,72.704z"/>
		</g>
		<g>
			
				<path fill="#DAE49C" stroke="#DAE49C" stroke-width="1.7972" stroke-linecap="round" stroke-linejoin="round" stroke-miterlimit="10" d="
				M55.715,72.569c-0.695-1.303-0.2-2.93,1.104-3.624c1.304-0.695,2.929-0.2,3.624,1.104c0.695,1.303,0.2,2.929-1.104,3.624
				C58.036,74.368,56.41,73.872,55.715,72.569z"/>
			<g>
				<g>
					<g opacity="0.4" enable-background="new    ">
						<g>
							<g>
								<defs>
									<polyline id="SVGID_1_" points="58.812,69.281 58.25,71.103 59.961,70.196 									"/>
								</defs>
								<clipPath id="SVGID_2_">
									<use xlink:href="#SVGID_1_"  overflow="visible"/>
								</clipPath>
								
									<path clip-path="url(#SVGID_2_)" fill="#96C222" stroke="#96C222" stroke-width="1.005" stroke-linecap="round" stroke-linejoin="round" stroke-miterlimit="10" d="
									M56.926,71.804c-0.387-0.729-0.108-1.639,0.622-2.025c0.73-0.388,1.639-0.109,2.025,0.622
									c0.387,0.729,0.109,1.639-0.621,2.025C58.222,72.813,57.313,72.535,56.926,71.804z"/>
							</g>
						</g>
					</g>
					<g opacity="0.4" enable-background="new    ">
						<g>
							<g>
								<defs>
									<polyline id="SVGID_3_" points="57.152,69.356 58.05,71.037 58.611,69.183 									"/>
								</defs>
								<clipPath id="SVGID_4_">
									<use xlink:href="#SVGID_3_"  overflow="visible"/>
								</clipPath>
								
									<path clip-path="url(#SVGID_4_)" fill="#96C222" stroke="#96C222" stroke-width="1.005" stroke-linecap="round" stroke-linejoin="round" stroke-miterlimit="10" d="
									M57.617,72.471c-0.792-0.24-1.239-1.077-1-1.868c0.239-0.791,1.078-1.239,1.868-1c0.791,0.239,1.239,1.078,1,1.868
									C59.245,72.262,58.406,72.711,57.617,72.471z"/>
							</g>
						</g>
					</g>
				</g>
				<g>
					<g opacity="0.4" enable-background="new    ">
						<g>
							<g>
								<defs>
									<polyline id="SVGID_5_" points="56.058,70.572 57.88,71.134 56.972,69.423 									"/>
								</defs>
								<clipPath id="SVGID_6_">
									<use xlink:href="#SVGID_5_"  overflow="visible"/>
								</clipPath>
								
									<path clip-path="url(#SVGID_6_)" fill="#96C222" stroke="#96C222" stroke-width="1.005" stroke-linecap="round" stroke-linejoin="round" stroke-miterlimit="10" d="
									M58.582,72.458c-0.729,0.387-1.638,0.108-2.025-0.622c-0.387-0.729-0.108-1.638,0.623-2.025
									c0.729-0.387,1.638-0.108,2.025,0.622C59.59,71.162,59.311,72.071,58.582,72.458z"/>
							</g>
						</g>
					</g>
					<g opacity="0.4" enable-background="new    ">
						<g>
							<g>
								<defs>
									<polyline id="SVGID_7_" points="56.132,72.232 57.815,71.334 55.961,70.773 									"/>
								</defs>
								<clipPath id="SVGID_8_">
									<use xlink:href="#SVGID_7_"  overflow="visible"/>
								</clipPath>
								
									<path clip-path="url(#SVGID_8_)" fill="#96C222" stroke="#96C222" stroke-width="1.005" stroke-linecap="round" stroke-linejoin="round" stroke-miterlimit="10" d="
									M59.249,71.768c-0.239,0.791-1.077,1.239-1.868,1c-0.791-0.239-1.239-1.078-1-1.868c0.239-0.79,1.077-1.239,1.868-1
									C59.04,70.14,59.488,70.977,59.249,71.768z"/>
							</g>
						</g>
					</g>
				</g>
				<g>
					<g opacity="0.4" enable-background="new    ">
						<g>
							<g>
								<defs>
									<polyline id="SVGID_9_" points="57.347,73.337 57.909,71.515 56.198,72.422 									"/>
								</defs>
								<clipPath id="SVGID_10_">
									<use xlink:href="#SVGID_9_"  overflow="visible"/>
								</clipPath>
								
									<path clip-path="url(#SVGID_10_)" fill="#96C222" stroke="#96C222" stroke-width="1.005" stroke-linecap="round" stroke-linejoin="round" stroke-miterlimit="10" d="
									M59.232,70.813c0.388,0.729,0.108,1.639-0.622,2.025c-0.73,0.388-1.638,0.109-2.025-0.622
									c-0.387-0.729-0.108-1.639,0.622-2.025C57.937,69.804,58.845,70.083,59.232,70.813z"/>
							</g>
						</g>
					</g>
					<g opacity="0.4" enable-background="new    ">
						<g>
							<g>
								<defs>
									<polyline id="SVGID_11_" points="59.006,73.262 58.108,71.581 57.548,73.434 									"/>
								</defs>
								<clipPath id="SVGID_12_">
									<use xlink:href="#SVGID_11_"  overflow="visible"/>
								</clipPath>
								
									<path clip-path="url(#SVGID_12_)" fill="#96C222" stroke="#96C222" stroke-width="1.005" stroke-linecap="round" stroke-linejoin="round" stroke-miterlimit="10" d="
									M58.542,70.146c0.791,0.238,1.239,1.076,1,1.868c-0.238,0.791-1.076,1.239-1.868,1c-0.79-0.24-1.239-1.078-1-1.868
									C56.914,70.355,57.752,69.907,58.542,70.146z"/>
							</g>
						</g>
					</g>
				</g>
				<g>
					<g opacity="0.4" enable-background="new    ">
						<g>
							<g>
								<defs>
									<polyline id="SVGID_13_" points="60.101,72.046 58.279,71.484 59.187,73.195 									"/>
								</defs>
								<clipPath id="SVGID_14_">
									<use xlink:href="#SVGID_13_"  overflow="visible"/>
								</clipPath>
								
									<path clip-path="url(#SVGID_14_)" fill="#96C222" stroke="#96C222" stroke-width="1.005" stroke-linecap="round" stroke-linejoin="round" stroke-miterlimit="10" d="
									M57.578,70.16c0.729-0.387,1.638-0.108,2.024,0.622c0.387,0.73,0.108,1.638-0.621,2.025
									c-0.729,0.387-1.639,0.108-2.026-0.622S56.847,70.547,57.578,70.16z"/>
							</g>
						</g>
					</g>
					<g opacity="0.4" enable-background="new    ">
						<g>
							<g>
								<defs>
									<polyline id="SVGID_15_" points="60.026,70.385 58.344,71.284 60.198,71.844 									"/>
								</defs>
								<clipPath id="SVGID_16_">
									<use xlink:href="#SVGID_15_"  overflow="visible"/>
								</clipPath>
								
									<path clip-path="url(#SVGID_16_)" fill="#96C222" stroke="#96C222" stroke-width="1.005" stroke-linecap="round" stroke-linejoin="round" stroke-miterlimit="10" d="
									M56.91,70.85c0.24-0.791,1.077-1.24,1.867-1c0.791,0.239,1.24,1.076,1,1.868c-0.239,0.791-1.077,1.239-1.868,1
									C57.12,72.478,56.671,71.64,56.91,70.85z"/>
							</g>
						</g>
					</g>
				</g>
			</g>
		</g>
	</g>
	
		<rect x="47.757" y="77.133" transform="matrix(-0.4703 -0.8825 0.8825 -0.4703 17.1265 168.3453)" fill="#C89D64" stroke="#C89D64" stroke-width="1.3697" stroke-linecap="round" stroke-linejoin="round" stroke-miterlimit="10" width="22.653" height="3.8"/>
	<g id="Larv">
	</g>
</g>
</svg>
