<?xml version="1.0" encoding="utf-8"?>
<!-- Generator: Adobe Illustrator 15.0.2, SVG Export Plug-In . SVG Version: 6.00 Build 0)  -->
<!DOCTYPE svg PUBLIC "-//W3C//DTD SVG 1.1//EN" "http://www.w3.org/Graphics/SVG/1.1/DTD/svg11.dtd">
<svg version="1.1" id="Lager_1" xmlns="http://www.w3.org/2000/svg" xmlns:xlink="http://www.w3.org/1999/xlink" x="0px" y="0px"
	 width="185.213px" height="450.109px" viewBox="0 0 185.213 450.109" enable-background="new 0 0 185.213 450.109"
	 xml:space="preserve">
<g>
	<g>
		<path fill="#004892" d="M26.794,414.74c2.699,0.69,5.528-0.664,6.32-3.026l0,0c0.788-2.364-0.759-4.843-3.457-5.535l-23.134-5.932
			c-2.698-0.691-5.526,0.663-6.317,3.027l0,0c-0.791,2.363,0.758,4.841,3.457,5.533L26.794,414.74z"/>
		<path d="M163.897,353.622h5.104c3.854,0,6.991-2.814,6.991-6.275v-26.293c0-3.461-3.137-6.276-6.991-6.276h-5.104
			c-3.854,0-6.99,2.815-6.99,6.276v26.293C156.907,350.806,160.043,353.622,163.897,353.622z"/>
		<path d="M16.393,353.622h5.104c3.855,0,6.992-2.814,6.992-6.275v-26.293c0-3.461-3.137-6.276-6.992-6.276h-5.104
			c-3.854,0-6.991,2.815-6.991,6.276v26.293C9.402,350.806,12.539,353.622,16.393,353.622z"/>
		<g>
			<path d="M163.897,186.304h5.104c3.854,0,6.991-2.815,6.991-6.276v-26.293c0-3.461-3.137-6.277-6.991-6.277h-5.104
				c-3.854,0-6.99,2.816-6.99,6.277v26.293C156.907,183.488,160.043,186.304,163.897,186.304z"/>
			<path d="M16.393,186.304h5.104c3.855,0,6.992-2.815,6.992-6.276v-26.293c0-3.461-3.137-6.277-6.992-6.277h-5.104
				c-3.854,0-6.991,2.816-6.991,6.277v26.293C9.402,183.488,12.539,186.304,16.393,186.304z"/>
			<path d="M163.897,118.566h5.104c3.854,0,6.991-2.815,6.991-6.276V85.997c0-3.461-3.137-6.276-6.991-6.276h-5.104
				c-3.854,0-6.99,2.815-6.99,6.276v26.293C156.907,115.751,160.043,118.566,163.897,118.566z"/>
			<path d="M16.393,118.566h5.104c3.855,0,6.992-2.815,6.992-6.276V85.997c0-3.461-3.137-6.276-6.992-6.276h-5.104
				c-3.854,0-6.991,2.815-6.991,6.276v26.293C9.402,115.751,12.539,118.566,16.393,118.566z"/>
		</g>
		<g>
			<path fill="#004892" d="M16.319,326.257V9.839c0-2.723,2.528-4.938,5.64-4.938h140.929c3.109,0,5.639,2.217,5.639,4.938v316.418
				H16.319L16.319,326.257z"/>
			<g>
				<path fill="#033B6D" d="M165.776,110.926V7.755c0-2.624-2.439-4.76-5.432-4.76H24.563c-2.995,0-5.433,2.136-5.433,4.76v103.171"
					/>
				<path fill="#021F41" d="M159.843,8.483v102.44h8.735V8.483c0-4.677-4.347-8.483-9.687-8.483H26.001
					c-5.339,0-9.683,3.808-9.683,8.483v102.44h8.735V8.483c0-0.459,0.426-0.833,0.947-0.833h132.892
					C159.417,7.65,159.843,8.024,159.843,8.483z"/>
			</g>
		</g>
		<rect x="16.343" y="322.757" fill="#033B6D" width="152.184" height="16"/>
		<path fill="#004892" d="M158.419,414.74c-2.699,0.69-5.527-0.664-6.32-3.026l0,0c-0.787-2.364,0.758-4.843,3.457-5.535
			l23.133-5.932c2.699-0.691,5.526,0.663,6.318,3.027l0,0c0.79,2.363-0.759,4.841-3.457,5.533L158.419,414.74z"/>
		<path fill="#004892" d="M16.343,424.818"/>
		<path fill="#004892" d="M16.622,426.552c0.14,0.773,0.28,1.545,0.383,2.312c0.871,6.484,17.148,13.129,17.148,13.129
			c61.024,18.261,116.497,0,116.497,0s13.526-5.09,17.125-13.129c0.328-0.735,0.516-1.513,0.621-2.312l0,0l0.158-11v-14.311v-67.043
			H16.343v67.043v14.311v6.829"/>
		<g>
			<path fill="#004892" d="M16.319,326.257V9.839c0-2.723,2.528-4.938,5.64-4.938h140.929c3.109,0,5.639,2.217,5.639,4.938v316.418
				H16.319L16.319,326.257z"/>
			<g>
				<path fill="#021F41" d="M75.597,110.926V7.755c0-2.624-0.939-4.76-2.091-4.76H21.222c-1.153,0-2.092,2.136-2.092,4.76v103.171"
					/>
				<path fill="#021F41" d="M164.265,110.926V7.755c0-2.624-1.354-4.76-3.013-4.76H85.943c-1.662,0-3.014,2.136-3.014,4.76v103.171"
					/>
				<path fill="#004892" d="M159.843,8.483v105.771h8.735V8.483c0-4.677-4.347-8.483-9.687-8.483H26.001
					c-5.339,0-9.683,3.808-9.683,8.483v105.771h8.735V8.483c0-0.459,0.426-0.833,0.947-0.833h132.892
					C159.417,7.65,159.843,8.024,159.843,8.483z"/>
			</g>
		</g>
		<rect x="25.054" y="117.336" opacity="0.52" fill="#033B6D" enable-background="new    " width="133.083" height="201.451"/>
		
			<path fill="#EFF8FB" stroke="#EFF8FB" stroke-width="1.9015" stroke-linecap="round" stroke-linejoin="round" stroke-miterlimit="10" d="
			M92.782,437.846"/>
		<path fill="none" stroke="#FFFFFF" stroke-width="4.2742" stroke-miterlimit="10" d="M168.554,426.552"/>
		<g>
			
				<path fill="#FFFFFF" stroke="#FFFFFF" stroke-width="2.1148" stroke-linecap="round" stroke-linejoin="round" stroke-miterlimit="10" d="
				M139.292,442.068l18.221-10.439l0.625,6.281c0,0-9.107,4.474-18.646,6.155C139.438,443.554,139.292,442.068,139.292,442.068z"/>
			
				<path fill="#ECEDED" stroke="#ECEDED" stroke-width="2.1148" stroke-linecap="round" stroke-linejoin="round" stroke-miterlimit="10" d="
				M139.49,444.065c-0.052-0.511-0.198-1.997-0.198-1.997l18.221-10.439L139.49,444.065z"/>
		</g>
		<g>
			
				<path fill="#FFFFFF" stroke="#FFFFFF" stroke-width="2.1148" stroke-linecap="round" stroke-linejoin="round" stroke-miterlimit="10" d="
				M45.918,442.068l-18.221-10.439l-0.625,6.281c0,0,9.108,4.474,18.647,6.155C45.77,443.554,45.918,442.068,45.918,442.068z"/>
			
				<path fill="#ECEDED" stroke="#ECEDED" stroke-width="2.1148" stroke-linecap="round" stroke-linejoin="round" stroke-miterlimit="10" d="
				M45.72,444.065c0.05-0.511,0.198-1.997,0.198-1.997l-18.221-10.439L45.72,444.065z"/>
		</g>
		<path fill="#EFF8FB" d="M39.092,411.707c59.188,15.311,103.911-0.601,103.911-0.601l3.85-57.967h9.396v69.807
			c0,0-63.411,19.872-130.349,0l-0.005-69.847h9.399L39.092,411.707z"/>
		<g>
			<polyline fill="#DFEBEF" points="143.003,411.106 146.853,353.139 156.247,353.139 156.247,422.946 			"/>
			<path fill="#8AAEB7" d="M143.101,407.378l13.108,11.493l0.038,4.155l-13.244-11.921
				C143.003,411.106,142.991,408.541,143.101,407.378z"/>
			<polygon fill="#8AAEB7" points="145.347,374.923 156.247,374.923 156.247,377.873 145.21,377.873 			"/>
		</g>
		<g>
			<polyline fill="#DFEBEF" points="39.142,411.507 35.292,353.099 25.898,353.099 25.898,423.346 			"/>
			<path fill="#8AAEB7" d="M39.044,407.778l-13.108,11.494l-0.038,4.155l13.244-11.921
				C39.142,411.507,39.154,408.941,39.044,407.778z"/>
			<polygon fill="#8AAEB7" points="36.798,375.323 25.898,375.323 25.898,378.273 36.935,378.273 			"/>
		</g>
	</g>
	<g>
		
			<path fill="#FFFFFF" stroke="#FFFFFF" stroke-width="0.5686" stroke-linecap="round" stroke-linejoin="round" stroke-miterlimit="10" d="
			M127.339,70.962c-0.021,0.2-0.033,0.404-0.033,0.61c0,2.26,1.363,4.229,3.389,5.282c0.152,2.031,2.07,3.707,4.619,4.181
			l-3.975,2.771l0.18,1.895l1.789,0.359l4.547-4.938l4.806,4.75l1.829-0.52l0.029-1.824l-4.709-2.963
			c0.928-0.4,1.701-0.977,2.24-1.667c1.805-0.74,3.126-2.271,3.42-4.102c2.391-0.794,4.145-2.771,4.391-5.145
			c1.967-1.496,3.218-3.733,3.218-6.235c0-4.488-4.022-8.13-8.993-8.152c-1.646-1.164-3.717-1.858-5.969-1.858
			c-3.006,0-5.692,1.235-7.469,3.174c-3.935,0.884-6.85,4.09-6.85,7.912C123.798,67.129,125.187,69.471,127.339,70.962z"/>
		
			<path fill="#FFFFFF" stroke="#FFFFFF" stroke-width="0.5686" stroke-linecap="round" stroke-linejoin="round" stroke-miterlimit="10" d="
			M127.339,70.962c-0.021,0.2-0.033,0.404-0.033,0.61c0,2.26,1.363,4.229,3.389,5.282c0.152,2.031,2.07,3.707,4.619,4.181
			l-3.975,2.771l0.18,1.895l1.789,0.359l4.547-4.938l4.806,4.75l1.829-0.52l0.029-1.824l-4.709-2.963
			c0.928-0.4,1.701-0.977,2.24-1.667c1.805-0.74,3.126-2.271,3.42-4.102c2.391-0.794,4.145-2.771,4.391-5.145
			c1.967-1.496,3.218-3.733,3.218-6.235c0-4.488-4.022-8.13-8.993-8.152c-1.646-1.164-3.717-1.858-5.969-1.858
			c-3.006,0-5.692,1.235-7.469,3.174c-3.935,0.884-6.85,4.09-6.85,7.912C123.798,67.129,125.187,69.471,127.339,70.962z"/>
		
			<path fill="#F6F6F6" stroke="#F6F6F6" stroke-width="0.1525" stroke-linecap="round" stroke-linejoin="round" stroke-miterlimit="10" d="
			M137.854,81.121l4.806,4.75l1.83-0.52l0.028-1.824l-4.709-2.963c0.928-0.4,1.701-0.977,2.24-1.667
			c1.805-0.74,3.126-2.271,3.42-4.102c2.391-0.794,4.146-2.771,4.391-5.145c1.967-1.496,3.218-3.733,3.218-6.235
			c0-4.488-4.022-8.13-8.993-8.152c-1.646-1.164-3.717-1.858-5.969-1.858"/>
	</g>
	<g>
		
			<path fill="#FFFFFF" stroke="#FFFFFF" stroke-width="0.5686" stroke-linecap="round" stroke-linejoin="round" stroke-miterlimit="10" d="
			M40.005,79.295c-0.021,0.2-0.033,0.404-0.033,0.61c0,2.26,1.363,4.229,3.389,5.282c0.152,2.031,2.07,3.707,4.619,4.181
			l-3.975,2.771l0.18,1.895l1.789,0.359l4.547-4.938l4.806,4.75l1.829-0.52l0.029-1.824l-4.709-2.963
			c0.928-0.4,1.701-0.977,2.24-1.667c1.805-0.74,3.126-2.271,3.42-4.102c2.391-0.794,4.145-2.771,4.391-5.145
			c1.967-1.496,3.218-3.733,3.218-6.235c0-4.488-4.022-8.13-8.993-8.152c-1.646-1.164-3.717-1.858-5.969-1.858
			c-3.006,0-5.692,1.235-7.469,3.174c-3.935,0.884-6.85,4.09-6.85,7.912C36.464,75.462,37.853,77.804,40.005,79.295z"/>
		
			<path fill="#CA9E64" stroke="#CA9E64" stroke-width="0.5686" stroke-linecap="round" stroke-linejoin="round" stroke-miterlimit="10" d="
			M40.005,79.295c-0.021,0.2-0.033,0.404-0.033,0.61c0,2.26,1.363,4.229,3.389,5.282c0.152,2.031,2.07,3.707,4.619,4.181
			l-3.975,2.771l0.18,1.895l1.789,0.359l4.547-4.938l4.806,4.75l1.829-0.52l0.029-1.824l-4.709-2.963
			c0.928-0.4,1.701-0.977,2.24-1.667c1.805-0.74,3.126-2.271,3.42-4.102c2.391-0.794,4.145-2.771,4.391-5.145
			c1.967-1.496,3.218-3.733,3.218-6.235c0-4.488-4.022-8.13-8.993-8.152c-1.646-1.164-3.717-1.858-5.969-1.858
			c-3.006,0-5.692,1.235-7.469,3.174c-3.935,0.884-6.85,4.09-6.85,7.912C36.464,75.462,37.853,77.804,40.005,79.295z"/>
		
			<path fill="#BF925C" stroke="#BF925C" stroke-width="0.1525" stroke-linecap="round" stroke-linejoin="round" stroke-miterlimit="10" d="
			M50.521,89.454l4.806,4.75l1.83-0.52l0.028-1.824l-4.709-2.963c0.928-0.4,1.701-0.977,2.24-1.667
			c1.805-0.74,3.126-2.271,3.42-4.102c2.391-0.794,4.146-2.771,4.391-5.145c1.967-1.496,3.218-3.733,3.218-6.235
			c0-4.488-4.022-8.13-8.993-8.152c-1.646-1.164-3.717-1.858-5.969-1.858"/>
	</g>
	<g>
		
			<path fill="#FFFFFF" stroke="#FFFFFF" stroke-width="0.5686" stroke-linecap="round" stroke-linejoin="round" stroke-miterlimit="10" d="
			M94.522,41.427c-0.155,0.127-0.308,0.264-0.451,0.41c-1.583,1.612-1.988,3.975-1.28,6.144c-1.313,1.558-1.119,4.097,0.369,6.221
			l-4.777-0.807l-1.199,1.478l1.024,1.51l6.705-0.34l0.104,6.756l1.67,0.91l1.299-1.28L96.7,57.014
			c0.941,0.363,1.896,0.494,2.767,0.38c1.806,0.733,3.82,0.568,5.312-0.531c2.263,1.106,4.898,0.924,6.738-0.598
			c2.451,0.309,4.91-0.413,6.662-2.197c3.145-3.205,2.822-8.62-0.709-12.119c-0.359-1.983-1.351-3.929-2.957-5.507
			c-2.146-2.105-4.93-3.104-7.556-2.966c-3.427-2.124-7.753-1.877-10.431,0.852C94.681,36.208,94.03,38.853,94.522,41.427z"/>
		
			<path fill="#FFFFFF" stroke="#FFFFFF" stroke-width="0.5686" stroke-linecap="round" stroke-linejoin="round" stroke-miterlimit="10" d="
			M94.522,41.427c-0.155,0.127-0.308,0.264-0.451,0.41c-1.583,1.612-1.988,3.975-1.28,6.144c-1.313,1.558-1.119,4.097,0.369,6.221
			l-4.777-0.807l-1.199,1.478l1.024,1.51l6.705-0.34l0.104,6.756l1.67,0.91l1.299-1.28L96.7,57.014
			c0.941,0.363,1.896,0.494,2.767,0.38c1.806,0.733,3.82,0.568,5.312-0.531c2.263,1.106,4.898,0.924,6.738-0.598
			c2.451,0.309,4.91-0.413,6.662-2.197c3.145-3.205,2.822-8.62-0.709-12.119c-0.359-1.983-1.351-3.929-2.957-5.507
			c-2.146-2.105-4.93-3.104-7.556-2.966c-3.427-2.124-7.753-1.877-10.431,0.852C94.681,36.208,94.03,38.853,94.522,41.427z"/>
		
			<path fill="#F6F6F6" stroke="#F6F6F6" stroke-width="0.1525" stroke-linecap="round" stroke-linejoin="round" stroke-miterlimit="10" d="
			M94.913,56.041l0.104,6.756l1.67,0.91l1.299-1.28L96.7,57.013c0.941,0.363,1.896,0.494,2.767,0.38
			c1.806,0.733,3.82,0.568,5.312-0.531c2.263,1.106,4.898,0.924,6.738-0.598c2.451,0.309,4.91-0.413,6.662-2.197
			c3.145-3.205,2.822-8.62-0.709-12.119c-0.359-1.983-1.351-3.929-2.957-5.507"/>
	</g>
	<g>
		
			<path fill="#FFFFFF" stroke="#FFFFFF" stroke-width="0.5686" stroke-linecap="round" stroke-linejoin="round" stroke-miterlimit="10" d="
			M137.84,22.364c-0.159-0.123-0.327-0.239-0.504-0.346c-1.933-1.17-4.323-1.023-6.272,0.164c-1.816-0.921-4.244-0.148-5.969,1.788
			l-0.312-4.835l-1.715-0.828l-1.232,1.344l1.87,6.447l-6.554,1.65l-0.502,1.834l1.545,0.971l4.975-2.493
			c-0.139,1-0.047,1.96,0.266,2.778c-0.301,1.928,0.322,3.851,1.736,5.049c-0.559,2.457,0.225,4.98,2.129,6.422
			c0.262,2.456,1.528,4.684,3.668,5.979c3.842,2.324,9.038,0.77,11.633-3.472c1.849-0.805,3.515-2.217,4.68-4.145
			c1.558-2.57,1.892-5.51,1.152-8.032c1.281-3.822,0.047-7.978-3.223-9.956C142.954,21.319,140.231,21.294,137.84,22.364z"/>
		
			<path fill="#FFFFFF" stroke="#FFFFFF" stroke-width="0.5686" stroke-linecap="round" stroke-linejoin="round" stroke-miterlimit="10" d="
			M137.84,22.364c-0.159-0.123-0.327-0.239-0.504-0.346c-1.933-1.17-4.323-1.023-6.272,0.164c-1.816-0.921-4.244-0.148-5.969,1.788
			l-0.312-4.835l-1.715-0.828l-1.232,1.344l1.87,6.447l-6.554,1.65l-0.502,1.834l1.545,0.971l4.975-2.493
			c-0.139,1-0.047,1.96,0.266,2.778c-0.301,1.928,0.322,3.851,1.736,5.049c-0.559,2.457,0.225,4.98,2.129,6.422
			c0.262,2.456,1.528,4.684,3.668,5.979c3.842,2.324,9.038,0.77,11.633-3.472c1.849-0.805,3.515-2.217,4.68-4.145
			c1.558-2.57,1.892-5.51,1.152-8.032c1.281-3.822,0.047-7.978-3.223-9.956C142.954,21.319,140.231,21.294,137.84,22.364z"/>
		
			<path fill="#F6F6F6" stroke="#F6F6F6" stroke-width="0.1525" stroke-linecap="round" stroke-linejoin="round" stroke-miterlimit="10" d="
			M123.705,26.099l-6.554,1.65l-0.502,1.834l1.545,0.971l4.975-2.493c-0.139,1-0.047,1.96,0.266,2.778
			c-0.301,1.928,0.322,3.851,1.736,5.049c-0.559,2.457,0.225,4.98,2.129,6.422c0.262,2.456,1.528,4.684,3.668,5.979
			c3.842,2.324,9.038,0.77,11.633-3.472c1.849-0.805,3.515-2.217,4.68-4.145"/>
	</g>
	<g>
		
			<path fill="#FFFFFF" stroke="#FFFFFF" stroke-width="0.5686" stroke-linecap="round" stroke-linejoin="round" stroke-miterlimit="10" d="
			M97.619,76.395c-0.156,0.128-0.31,0.264-0.454,0.41c-1.589,1.604-2.007,3.966-1.307,6.138c-1.32,1.551-1.139,4.092,0.342,6.221
			l-4.772-0.827l-1.207,1.474l1.02,1.515l6.705-0.312l0.072,6.756l1.668,0.919l1.305-1.276l-1.264-5.419
			c0.939,0.369,1.896,0.504,2.766,0.393c1.803,0.742,3.818,0.586,5.314-0.509c2.258,1.116,4.896,0.944,6.74-0.567
			c2.449,0.319,4.912-0.392,6.672-2.169c3.158-3.19,2.86-8.608-0.656-12.122c-0.351-1.982-1.334-3.936-2.935-5.52
			c-2.137-2.115-4.914-3.126-7.541-2.998c-3.418-2.14-7.745-1.911-10.435,0.806C97.799,71.18,97.14,73.821,97.619,76.395z"/>
		
			<path fill="#FFFFFF" stroke="#FFFFFF" stroke-width="0.5686" stroke-linecap="round" stroke-linejoin="round" stroke-miterlimit="10" d="
			M97.619,76.395c-0.156,0.128-0.31,0.264-0.454,0.41c-1.589,1.604-2.007,3.966-1.307,6.138c-1.32,1.551-1.139,4.092,0.342,6.221
			l-4.772-0.827l-1.207,1.474l1.02,1.515l6.705-0.312l0.072,6.756l1.668,0.919l1.305-1.276l-1.264-5.419
			c0.939,0.369,1.896,0.504,2.766,0.393c1.803,0.742,3.818,0.586,5.314-0.509c2.258,1.116,4.896,0.944,6.74-0.567
			c2.449,0.319,4.912-0.392,6.672-2.169c3.158-3.19,2.86-8.608-0.656-12.122c-0.351-1.982-1.334-3.936-2.935-5.52
			c-2.137-2.115-4.914-3.126-7.541-2.998c-3.418-2.14-7.745-1.911-10.435,0.806C97.799,71.18,97.14,73.821,97.619,76.395z"/>
		
			<path fill="#F6F6F6" stroke="#F6F6F6" stroke-width="0.1525" stroke-linecap="round" stroke-linejoin="round" stroke-miterlimit="10" d="
			M97.946,91.012l0.072,6.756l1.666,0.919l1.306-1.276l-1.265-5.419c0.94,0.369,1.896,0.504,2.767,0.392
			c1.803,0.743,3.817,0.587,5.313-0.508c2.258,1.116,4.896,0.944,6.741-0.567c2.449,0.319,4.912-0.392,6.673-2.169
			c3.157-3.19,2.859-8.608-0.656-12.122c-0.352-1.982-1.334-3.936-2.936-5.52"/>
	</g>
	<g>
		
			<path fill="#FFFFFF" stroke="#FFFFFF" stroke-width="0.5686" stroke-linecap="round" stroke-linejoin="round" stroke-miterlimit="10" d="
			M60.926,45.664c0.148-0.137,0.292-0.282,0.428-0.437c1.487-1.699,1.759-4.082,0.927-6.207c1.222-1.629,0.885-4.154-0.724-6.188
			l4.814,0.532l1.114-1.545l-1.111-1.449l-6.673,0.723l-0.487-6.739l-1.722-0.814l-1.224,1.354l1.594,5.331
			c-0.96-0.311-1.923-0.386-2.784-0.222c-1.845-0.63-3.847-0.35-5.273,0.834c-2.322-0.975-4.944-0.642-6.692,0.98
			c-2.464-0.168-4.879,0.693-6.526,2.575c-2.956,3.378-2.326,8.768,1.4,12.059c0.472,1.958,1.574,3.846,3.269,5.329
			c2.263,1.98,5.097,2.818,7.711,2.529c3.543,1.925,7.848,1.431,10.365-1.446C61.067,50.88,61.563,48.204,60.926,45.664z"/>
		<path fill="#CA9E64" stroke="#CA9E64" d="M60.926,45.664c0.148-0.137,0.292-0.282,0.428-0.437
			c1.487-1.699,1.759-4.082,0.927-6.207c1.222-1.629,0.885-4.154-0.724-6.188l4.814,0.532l1.114-1.545l-1.111-1.449l-6.673,0.723
			l-0.487-6.739l-1.722-0.814l-1.224,1.354l1.594,5.331c-0.96-0.311-1.923-0.386-2.784-0.222c-1.845-0.63-3.847-0.35-5.273,0.834
			c-2.322-0.975-4.944-0.642-6.692,0.98c-2.464-0.168-4.879,0.693-6.526,2.575c-2.956,3.378-2.326,8.768,1.4,12.059
			c0.472,1.958,1.574,3.846,3.269,5.329c2.263,1.98,5.097,2.818,7.711,2.529c3.543,1.925,7.848,1.431,10.365-1.446
			C61.067,50.88,61.563,48.204,60.926,45.664z"/>
		
			<path fill="#BF925C" stroke="#BF925C" stroke-width="0.1525" stroke-linecap="round" stroke-linejoin="round" stroke-miterlimit="10" d="
			M59.701,31.094l-0.487-6.739l-1.72-0.814l-1.225,1.354l1.595,5.331c-0.961-0.311-1.924-0.386-2.785-0.221
			c-1.845-0.631-3.846-0.351-5.272,0.833c-2.322-0.976-4.945-0.642-6.693,0.98c-2.464-0.168-4.879,0.693-6.527,2.575
			c-2.955,3.378-2.325,8.768,1.4,12.059c0.473,1.957,1.574,3.846,3.27,5.329"/>
	</g>
</g>
</svg>
