<?xml version="1.0" encoding="utf-8"?>
<!-- Generator: Adobe Illustrator 15.0.2, SVG Export Plug-In . SVG Version: 6.00 Build 0)  -->
<!DOCTYPE svg PUBLIC "-//W3C//DTD SVG 1.1//EN" "http://www.w3.org/Graphics/SVG/1.1/DTD/svg11.dtd">
<svg version="1.1" id="Lager_1" xmlns="http://www.w3.org/2000/svg" xmlns:xlink="http://www.w3.org/1999/xlink" x="0px" y="0px"
	 width="185.213px" height="450.109px" viewBox="0 0 185.213 450.109" enable-background="new 0 0 185.213 450.109"
	 xml:space="preserve">
<g>
	<g>
		<path fill="#004892" d="M26.794,414.74c2.699,0.69,5.528-0.664,6.32-3.027l0,0c0.788-2.364-0.759-4.842-3.457-5.535l-23.134-5.931
			c-2.698-0.692-5.526,0.663-6.317,3.027l0,0c-0.791,2.363,0.758,4.841,3.457,5.533L26.794,414.74z"/>
		<path d="M163.897,353.622h5.105c3.855,0,6.991-2.815,6.991-6.276v-26.293c0-3.461-3.136-6.276-6.991-6.276h-5.105
			c-3.854,0-6.99,2.815-6.99,6.276v26.293C156.907,350.806,160.043,353.622,163.897,353.622z"/>
		<path d="M16.393,353.622h5.104c3.855,0,6.992-2.815,6.992-6.276v-26.293c0-3.461-3.137-6.276-6.992-6.276h-5.104
			c-3.854,0-6.991,2.815-6.991,6.276v26.293C9.402,350.806,12.539,353.622,16.393,353.622z"/>
		<g>
			<path d="M163.897,186.304h5.105c3.855,0,6.991-2.815,6.991-6.276v-26.293c0-3.461-3.136-6.277-6.991-6.277h-5.105
				c-3.854,0-6.99,2.816-6.99,6.277v26.293C156.907,183.488,160.043,186.304,163.897,186.304z"/>
			<path d="M16.393,186.304h5.104c3.855,0,6.992-2.815,6.992-6.276v-26.293c0-3.461-3.137-6.277-6.992-6.277h-5.104
				c-3.854,0-6.991,2.816-6.991,6.277v26.293C9.402,183.488,12.539,186.304,16.393,186.304z"/>
			<path d="M163.897,118.566h5.105c3.855,0,6.991-2.815,6.991-6.276V85.997c0-3.461-3.136-6.277-6.991-6.277h-5.105
				c-3.854,0-6.99,2.816-6.99,6.277v26.293C156.907,115.751,160.043,118.566,163.897,118.566z"/>
			<path d="M16.393,118.566h5.104c3.855,0,6.992-2.815,6.992-6.276V85.997c0-3.461-3.137-6.277-6.992-6.277h-5.104
				c-3.854,0-6.991,2.816-6.991,6.277v26.293C9.402,115.751,12.539,118.566,16.393,118.566z"/>
		</g>
		<g>
			<path fill="#004892" d="M16.319,326.256V9.839c0-2.723,2.528-4.939,5.64-4.939h140.928c3.11,0,5.64,2.217,5.64,4.939v316.417
				H16.319z"/>
			<g>
				<path fill="#033B6D" d="M165.776,110.926V7.755c0-2.624-2.439-4.76-5.432-4.76H24.563c-2.995,0-5.433,2.136-5.433,4.76v103.171"
					/>
				<path fill="#021F41" d="M159.843,8.483v102.441h8.735V8.483c0-4.677-4.347-8.483-9.686-8.483H26.001
					c-5.339,0-9.683,3.807-9.683,8.483v102.441h8.735V8.483c0-0.459,0.426-0.833,0.947-0.833h132.891
					C159.417,7.65,159.843,8.024,159.843,8.483z"/>
			</g>
		</g>
		<rect x="16.343" y="322.756" fill="#033B6D" width="152.183" height="16"/>
		<path fill="#004892" d="M158.419,414.74c-2.699,0.69-5.528-0.664-6.32-3.027l0,0c-0.788-2.364,0.758-4.842,3.457-5.535
			l23.133-5.931c2.699-0.692,5.526,0.663,6.318,3.027l0,0c0.79,2.363-0.759,4.841-3.457,5.533L158.419,414.74z"/>
		<path fill="#004892" d="M16.343,424.818"/>
		<path fill="#004892" d="M16.622,426.551c0.14,0.774,0.28,1.545,0.383,2.313c0.871,6.484,17.148,13.129,17.148,13.129
			c61.024,18.26,116.497,0,116.497,0s13.526-5.09,17.124-13.129c0.329-0.736,0.516-1.513,0.621-2.313l0,0l0.159-11v-14.31v-67.043
			H16.343v67.043v14.31v6.829"/>
		<g>
			<path fill="#004892" d="M16.319,326.256V9.839c0-2.723,2.528-4.939,5.64-4.939h140.928c3.11,0,5.64,2.217,5.64,4.939v316.417
				H16.319z"/>
			<g>
				<path fill="#021F41" d="M75.597,110.926V7.755c0-2.624-0.939-4.76-2.091-4.76H21.222c-1.153,0-2.092,2.136-2.092,4.76v103.171"
					/>
				<path fill="#021F41" d="M164.264,110.926V7.755c0-2.624-1.354-4.76-3.012-4.76H85.943c-1.662,0-3.014,2.136-3.014,4.76v103.171"
					/>
				<path fill="#004892" d="M159.843,8.483v105.772h8.735V8.483c0-4.677-4.347-8.483-9.686-8.483H26.001
					c-5.339,0-9.683,3.807-9.683,8.483v105.772h8.735V8.483c0-0.459,0.426-0.833,0.947-0.833h132.891
					C159.417,7.65,159.843,8.024,159.843,8.483z"/>
			</g>
		</g>
		<rect x="25.054" y="117.336" opacity="0.52" fill="#033B6D" width="133.083" height="201.451"/>
		
			<path fill="#EFF8FB" stroke="#EFF8FB" stroke-width="1.9015" stroke-linecap="round" stroke-linejoin="round" stroke-miterlimit="10" d="
			M92.782,437.846"/>
		<path fill="none" stroke="#FFFFFF" stroke-width="4.2742" stroke-miterlimit="10" d="M168.554,426.551"/>
		<g>
			
				<path fill="#FFFFFF" stroke="#FFFFFF" stroke-width="2.1148" stroke-linecap="round" stroke-linejoin="round" stroke-miterlimit="10" d="
				M139.292,442.068l18.221-10.44l0.624,6.282c0,0-9.107,4.473-18.646,6.155C139.439,443.554,139.292,442.068,139.292,442.068z"/>
			
				<path fill="#ECEDED" stroke="#ECEDED" stroke-width="2.1148" stroke-linecap="round" stroke-linejoin="round" stroke-miterlimit="10" d="
				M139.49,444.065c-0.051-0.511-0.198-1.997-0.198-1.997l18.221-10.44L139.49,444.065z"/>
		</g>
		<g>
			
				<path fill="#FFFFFF" stroke="#FFFFFF" stroke-width="2.1148" stroke-linecap="round" stroke-linejoin="round" stroke-miterlimit="10" d="
				M45.918,442.068l-18.221-10.44l-0.625,6.282c0,0,9.108,4.473,18.647,6.155C45.77,443.554,45.918,442.068,45.918,442.068z"/>
			
				<path fill="#ECEDED" stroke="#ECEDED" stroke-width="2.1148" stroke-linecap="round" stroke-linejoin="round" stroke-miterlimit="10" d="
				M45.72,444.065c0.05-0.511,0.198-1.997,0.198-1.997l-18.221-10.44L45.72,444.065z"/>
		</g>
		<path fill="#EFF8FB" d="M39.092,411.707c59.188,15.31,103.911-0.601,103.911-0.601l3.85-57.967h9.395v69.807
			c0,0-63.411,19.872-130.349,0l-0.005-69.847h9.399L39.092,411.707z"/>
		<g>
			<polyline fill="#DFEBEF" points="143.003,411.106 146.853,353.139 156.247,353.139 156.247,422.946 			"/>
			<path fill="#8AAEB7" d="M143.101,407.377l13.108,11.494l0.038,4.155l-13.244-11.921
				C143.003,411.106,142.991,408.541,143.101,407.377z"/>
			<polygon fill="#8AAEB7" points="145.347,374.922 156.247,374.922 156.247,377.873 145.21,377.873 			"/>
		</g>
		<g>
			<polyline fill="#DFEBEF" points="39.142,411.506 35.292,353.099 25.898,353.099 25.898,423.346 			"/>
			<path fill="#8AAEB7" d="M39.044,407.778l-13.108,11.494l-0.038,4.155l13.244-11.921
				C39.142,411.506,39.154,408.941,39.044,407.778z"/>
			<polygon fill="#8AAEB7" points="36.798,375.323 25.898,375.323 25.898,378.273 36.935,378.273 			"/>
		</g>
	</g>
	<g>
		
			<path fill="#FFFFFF" stroke="#FFFFFF" stroke-width="0.5686" stroke-linecap="round" stroke-linejoin="round" stroke-miterlimit="10" d="
			M127.339,70.962c-0.022,0.2-0.034,0.404-0.034,0.61c0,2.26,1.364,4.229,3.389,5.282c0.153,2.031,2.07,3.707,4.62,4.181
			l-3.975,2.771l0.179,1.895l1.789,0.359l4.547-4.938l4.806,4.75l1.83-0.52l0.029-1.824l-4.71-2.963
			c0.928-0.4,1.702-0.976,2.241-1.667c1.804-0.74,3.126-2.27,3.42-4.101c2.39-0.794,4.145-2.771,4.391-5.145
			c1.966-1.496,3.217-3.733,3.217-6.235c0-4.489-4.022-8.13-8.993-8.153c-1.646-1.164-3.717-1.858-5.969-1.858
			c-3.006,0-5.692,1.235-7.469,3.174c-3.934,0.884-6.849,4.09-6.849,7.912C123.798,67.129,125.187,69.471,127.339,70.962z"/>
		
			<path fill="#FFFFFF" stroke="#FFFFFF" stroke-width="0.5686" stroke-linecap="round" stroke-linejoin="round" stroke-miterlimit="10" d="
			M127.339,70.962c-0.022,0.2-0.034,0.404-0.034,0.61c0,2.26,1.364,4.229,3.389,5.282c0.153,2.031,2.07,3.707,4.62,4.181
			l-3.975,2.771l0.179,1.895l1.789,0.359l4.547-4.938l4.806,4.75l1.83-0.52l0.029-1.824l-4.71-2.963
			c0.928-0.4,1.702-0.976,2.241-1.667c1.804-0.74,3.126-2.27,3.42-4.101c2.39-0.794,4.145-2.771,4.391-5.145
			c1.966-1.496,3.217-3.733,3.217-6.235c0-4.489-4.022-8.13-8.993-8.153c-1.646-1.164-3.717-1.858-5.969-1.858
			c-3.006,0-5.692,1.235-7.469,3.174c-3.934,0.884-6.849,4.09-6.849,7.912C123.798,67.129,125.187,69.471,127.339,70.962z"/>
		
			<path fill="#F6F6F6" stroke="#F6F6F6" stroke-width="0.1525" stroke-linecap="round" stroke-linejoin="round" stroke-miterlimit="10" d="
			M137.854,81.121l4.806,4.75l1.83-0.52l0.029-1.824l-4.71-2.963c0.928-0.4,1.702-0.976,2.241-1.667
			c1.804-0.74,3.126-2.27,3.42-4.101c2.39-0.794,4.145-2.771,4.391-5.145c1.966-1.496,3.217-3.733,3.217-6.235
			c0-4.489-4.022-8.13-8.993-8.153c-1.646-1.164-3.717-1.858-5.969-1.858"/>
	</g>
	<g>
		
			<path fill="#FFFFFF" stroke="#FFFFFF" stroke-width="0.5686" stroke-linecap="round" stroke-linejoin="round" stroke-miterlimit="10" d="
			M94.523,41.426c-0.156,0.127-0.308,0.264-0.452,0.411c-1.582,1.612-1.988,3.974-1.28,6.143c-1.313,1.558-1.119,4.097,0.369,6.221
			l-4.777-0.807l-1.199,1.478l1.024,1.51l6.705-0.34l0.103,6.756l1.67,0.91l1.299-1.281l-1.285-5.413
			c0.941,0.364,1.896,0.495,2.767,0.38c1.806,0.734,3.82,0.569,5.312-0.531c2.262,1.106,4.898,0.924,6.737-0.598
			c2.452,0.309,4.911-0.413,6.663-2.197c3.144-3.205,2.822-8.62-0.709-12.119c-0.359-1.983-1.351-3.929-2.958-5.507
			c-2.146-2.105-4.929-3.104-7.555-2.966c-3.427-2.124-7.753-1.877-10.43,0.852C94.68,36.208,94.03,38.853,94.523,41.426z"/>
		
			<path fill="#FFFFFF" stroke="#FFFFFF" stroke-width="0.5686" stroke-linecap="round" stroke-linejoin="round" stroke-miterlimit="10" d="
			M94.523,41.426c-0.156,0.127-0.308,0.264-0.452,0.411c-1.582,1.612-1.988,3.974-1.28,6.143c-1.313,1.558-1.119,4.097,0.369,6.221
			l-4.777-0.807l-1.199,1.478l1.024,1.51l6.705-0.34l0.103,6.756l1.67,0.91l1.299-1.281l-1.285-5.413
			c0.941,0.364,1.896,0.495,2.767,0.38c1.806,0.734,3.82,0.569,5.312-0.531c2.262,1.106,4.898,0.924,6.737-0.598
			c2.452,0.309,4.911-0.413,6.663-2.197c3.144-3.205,2.822-8.62-0.709-12.119c-0.359-1.983-1.351-3.929-2.958-5.507
			c-2.146-2.105-4.929-3.104-7.555-2.966c-3.427-2.124-7.753-1.877-10.43,0.852C94.68,36.208,94.03,38.853,94.523,41.426z"/>
		
			<path fill="#F6F6F6" stroke="#F6F6F6" stroke-width="0.1525" stroke-linecap="round" stroke-linejoin="round" stroke-miterlimit="10" d="
			M94.913,56.041l0.103,6.756l1.67,0.91l1.299-1.281l-1.285-5.413c0.941,0.364,1.896,0.495,2.767,0.38
			c1.806,0.734,3.82,0.569,5.312-0.531c2.262,1.106,4.898,0.924,6.737-0.598c2.452,0.309,4.911-0.413,6.663-2.197
			c3.144-3.205,2.822-8.62-0.709-12.119c-0.359-1.983-1.351-3.929-2.958-5.507"/>
	</g>
	<g>
		
			<path fill="#FFFFFF" stroke="#FFFFFF" stroke-width="0.5686" stroke-linecap="round" stroke-linejoin="round" stroke-miterlimit="10" d="
			M137.84,22.364c-0.159-0.123-0.327-0.239-0.504-0.346c-1.933-1.17-4.324-1.023-6.272,0.164c-1.817-0.921-4.244-0.148-5.97,1.788
			l-0.312-4.835l-1.714-0.828l-1.233,1.344l1.87,6.447l-6.553,1.651l-0.503,1.834l1.546,0.97l4.974-2.493
			c-0.139,1-0.047,1.96,0.266,2.779c-0.301,1.927,0.322,3.85,1.736,5.048c-0.558,2.457,0.225,4.981,2.129,6.422
			c0.262,2.456,1.528,4.684,3.668,5.979c3.841,2.324,9.038,0.769,11.632-3.472c1.849-0.805,3.515-2.217,4.681-4.144
			c1.557-2.571,1.891-5.51,1.152-8.033c1.281-3.822,0.047-7.977-3.223-9.956C142.954,21.319,140.231,21.294,137.84,22.364z"/>
		
			<path fill="#FFFFFF" stroke="#FFFFFF" stroke-width="0.5686" stroke-linecap="round" stroke-linejoin="round" stroke-miterlimit="10" d="
			M137.84,22.364c-0.159-0.123-0.327-0.239-0.504-0.346c-1.933-1.17-4.324-1.023-6.272,0.164c-1.817-0.921-4.244-0.148-5.97,1.788
			l-0.312-4.835l-1.714-0.828l-1.233,1.344l1.87,6.447l-6.553,1.651l-0.503,1.834l1.546,0.97l4.974-2.493
			c-0.139,1-0.047,1.96,0.266,2.779c-0.301,1.927,0.322,3.85,1.736,5.048c-0.558,2.457,0.225,4.981,2.129,6.422
			c0.262,2.456,1.528,4.684,3.668,5.979c3.841,2.324,9.038,0.769,11.632-3.472c1.849-0.805,3.515-2.217,4.681-4.144
			c1.557-2.571,1.891-5.51,1.152-8.033c1.281-3.822,0.047-7.977-3.223-9.956C142.954,21.319,140.231,21.294,137.84,22.364z"/>
		
			<path fill="#F6F6F6" stroke="#F6F6F6" stroke-width="0.1525" stroke-linecap="round" stroke-linejoin="round" stroke-miterlimit="10" d="
			M123.705,26.099l-6.553,1.651l-0.503,1.834l1.546,0.97l4.974-2.493c-0.139,1-0.047,1.96,0.266,2.779
			c-0.301,1.927,0.322,3.85,1.736,5.048c-0.558,2.457,0.225,4.981,2.129,6.422c0.262,2.456,1.528,4.684,3.668,5.979
			c3.841,2.324,9.038,0.769,11.632-3.472c1.849-0.805,3.515-2.217,4.681-4.144"/>
	</g>
	<g>
		
			<path fill="#FFFFFF" stroke="#FFFFFF" stroke-width="0.5686" stroke-linecap="round" stroke-linejoin="round" stroke-miterlimit="10" d="
			M97.619,76.395c-0.156,0.128-0.31,0.264-0.454,0.41c-1.589,1.605-2.007,3.966-1.307,6.138c-1.32,1.551-1.138,4.092,0.342,6.221
			l-4.772-0.827l-1.207,1.473l1.02,1.515l6.706-0.312l0.072,6.756l1.667,0.919l1.305-1.276l-1.264-5.419
			c0.94,0.369,1.896,0.504,2.766,0.392c1.803,0.743,3.818,0.586,5.314-0.508c2.258,1.116,4.896,0.944,6.741-0.568
			c2.449,0.32,4.912-0.391,6.672-2.169c3.158-3.19,2.86-8.608-0.656-12.122c-0.351-1.982-1.334-3.935-2.935-5.519
			c-2.137-2.115-4.914-3.126-7.541-2.998c-3.418-2.14-7.745-1.911-10.434,0.805C97.799,71.18,97.139,73.821,97.619,76.395z"/>
		
			<path fill="#FFFFFF" stroke="#FFFFFF" stroke-width="0.5686" stroke-linecap="round" stroke-linejoin="round" stroke-miterlimit="10" d="
			M97.619,76.395c-0.156,0.128-0.31,0.264-0.454,0.41c-1.589,1.605-2.007,3.966-1.307,6.138c-1.32,1.551-1.138,4.092,0.342,6.221
			l-4.772-0.827l-1.207,1.473l1.02,1.515l6.706-0.312l0.072,6.756l1.667,0.919l1.305-1.276l-1.264-5.419
			c0.94,0.369,1.896,0.504,2.766,0.392c1.803,0.743,3.818,0.586,5.314-0.508c2.258,1.116,4.896,0.944,6.741-0.568
			c2.449,0.32,4.912-0.391,6.672-2.169c3.158-3.19,2.86-8.608-0.656-12.122c-0.351-1.982-1.334-3.935-2.935-5.519
			c-2.137-2.115-4.914-3.126-7.541-2.998c-3.418-2.14-7.745-1.911-10.434,0.805C97.799,71.18,97.139,73.821,97.619,76.395z"/>
		
			<path fill="#F6F6F6" stroke="#F6F6F6" stroke-width="0.1525" stroke-linecap="round" stroke-linejoin="round" stroke-miterlimit="10" d="
			M97.946,91.012l0.072,6.756l1.667,0.919l1.305-1.276l-1.264-5.419c0.94,0.369,1.896,0.504,2.766,0.392
			c1.803,0.743,3.818,0.586,5.314-0.508c2.258,1.116,4.896,0.944,6.741-0.568c2.449,0.32,4.912-0.391,6.672-2.169
			c3.158-3.19,2.86-8.608-0.656-12.122c-0.351-1.982-1.334-3.935-2.935-5.519"/>
	</g>
</g>
</svg>
