<?xml version="1.0" encoding="utf-8"?>
<!-- Generator: Adobe Illustrator 15.0.2, SVG Export Plug-In . SVG Version: 6.00 Build 0)  -->
<!DOCTYPE svg PUBLIC "-//W3C//DTD SVG 1.1//EN" "http://www.w3.org/Graphics/SVG/1.1/DTD/svg11.dtd">
<svg version="1.1" id="Lager_1" xmlns="http://www.w3.org/2000/svg" xmlns:xlink="http://www.w3.org/1999/xlink" x="0px" y="0px"
	 width="106.519px" height="61.933px" viewBox="0 0 106.519 61.933" enable-background="new 0 0 106.519 61.933"
	 xml:space="preserve">
<path fill="#868789" d="M95.744,26.354c-1.792,0.09-3.415,0.676-4.842,1.554c0.165-0.765,0.269-1.554,0.228-2.373
	c-0.255-5.056-4.561-8.944-9.611-8.685c-1.138,0.059-2.205,0.348-3.184,0.773c-0.002-0.017,0-0.04,0.001-0.059
	C77.931,9.6,71.145,3.472,63.175,3.876c-4.275,0.219-8.012,2.283-10.501,5.38c-3.487-5.833-9.99-9.599-17.248-9.231
	C25.658,0.523,18.001,8.327,17.46,17.877c-1.21-0.261-2.462-0.383-3.754-0.318c-7.965,0.409-14.093,7.194-13.687,15.16
	c0.404,7.966,7.193,14.094,15.157,13.688c0.914-0.045,1.796-0.188,2.654-0.391c-0.063,0.629-0.128,1.255-0.096,1.902
	c0.356,6.965,6.292,12.324,13.258,11.97c4.356-0.22,8.081-2.619,10.177-6.088c2.874,5.112,8.464,8.446,14.718,8.109
	c7.334-0.385,13.221-5.685,14.699-12.531c2.104,3.029,5.652,4.96,9.608,4.755c5.243-0.267,9.425-4.157,10.294-9.113
	c1.789,1.231,3.957,1.938,6.299,1.816c5.65-0.284,10.006-5.108,9.717-10.759C106.218,30.421,101.397,26.07,95.744,26.354z"/>
</svg>
