<?xml version="1.0" encoding="utf-8"?>
<!-- Generator: Adobe Illustrator 17.0.0, SVG Export Plug-In . SVG Version: 6.00 Build 0)  -->
<!DOCTYPE svg PUBLIC "-//W3C//DTD SVG 1.1//EN" "http://www.w3.org/Graphics/SVG/1.1/DTD/svg11.dtd">
<svg version="1.1" id="Layer_1" xmlns="http://www.w3.org/2000/svg" xmlns:xlink="http://www.w3.org/1999/xlink" x="0px" y="0px"
	 width="305.177px" height="218.909px" viewBox="0 0 305.177 218.909" enable-background="new 0 0 305.177 218.909"
	 xml:space="preserve">
<g>
	<g>
		<path fill="#FDC100" stroke="#FDC100" stroke-linecap="round" stroke-linejoin="round" stroke-miterlimit="10" d="
			M192.851,150.031"/>
	</g>
	<g>
		<g>
			
				<polygon fill="#634E42" stroke="#634E42" stroke-width="0.9498" stroke-linecap="round" stroke-linejoin="round" stroke-miterlimit="10" points="
				30.758,15.606 2.869,20.594 3.856,4.094 24.114,0.475 			"/>
		</g>
		<g>
			
				<polygon fill="#7B6A58" stroke="#7B6A58" stroke-width="0.9498" stroke-linecap="round" stroke-linejoin="round" stroke-miterlimit="10" points="
				30.758,15.606 24.114,0.475 3.856,4.094 			"/>
		</g>
	</g>
	<g>
		<path fill="#FFD600" stroke="#FFD600" stroke-linecap="round" stroke-linejoin="round" stroke-miterlimit="10" d="
			M294.913,124.892c-55.999,37.875-120.445,34.661-168.911,12.659c-48.47-22.003-80.933-64.815-91.608-113.074L2.499,30.211
			c-11.2,70.507,25.302,142.599,93.452,173.535c68.155,30.94,157.05,12.854,208.726-63.096L294.913,124.892z"/>
	</g>
	<g>
		<path fill="#FDC100" stroke="#FDC100" stroke-linecap="round" stroke-linejoin="round" stroke-miterlimit="10" d="M304.677,140.65
			c-49.587,73.704-136.995,95.662-208.726,63.096C27.801,172.81-8.701,100.718,2.499,30.211l13.743-2.465
			c2.42,59.431,37.466,115.345,95.321,141.611c57.858,26.266,143.401,10.916,188.698-35.827L304.677,140.65z"/>
	</g>
	<g>
		<circle fill="#634E42" cx="136.493" cy="203.632" r="1.775"/>
	</g>
	<g>
		<circle fill="#634E42" cx="144.208" cy="208.538" r="1.774"/>
	</g>
	<g>
		<circle fill="#634E42" cx="150.585" cy="214.383" r="1.775"/>
	</g>
	<g>
		<circle fill="#634E42" cx="153.542" cy="209.211" r="1.775"/>
	</g>
	<g>
		<path fill="#634E42" d="M163.596,214.452c0.204,0.962-0.407,1.902-1.363,2.108c-0.96,0.206-1.902-0.405-2.108-1.365
			c-0.204-0.957,0.405-1.9,1.365-2.106C162.448,212.885,163.392,213.495,163.596,214.452z"/>
	</g>
	<g>
		<circle fill="#634E42" cx="165.338" cy="209.588" r="1.774"/>
	</g>
	<g>
		<circle fill="#634E42" cx="132.401" cy="209.951" r="1.775"/>
	</g>
	<g>
		<path fill="#634E42" d="M124.919,204.293c0.202,0.96-0.409,1.902-1.363,2.106c-0.961,0.204-1.904-0.404-2.108-1.365
			c-0.206-0.959,0.405-1.898,1.365-2.106C123.769,202.725,124.713,203.332,124.919,204.293z"/>
	</g>
</g>
</svg>
