<?xml version="1.0" encoding="utf-8"?>
<!-- Generator: Adobe Illustrator 17.1.0, SVG Export Plug-In . SVG Version: 6.00 Build 0)  -->
<!DOCTYPE svg PUBLIC "-//W3C//DTD SVG 1.1//EN" "http://www.w3.org/Graphics/SVG/1.1/DTD/svg11.dtd">
<svg version="1.1" id="Layer_1" xmlns="http://www.w3.org/2000/svg" xmlns:xlink="http://www.w3.org/1999/xlink" x="0px" y="0px"
	 viewBox="0 0 14.012 6.731" enable-background="new 0 0 14.012 6.731" xml:space="preserve">
<g>
	
		<path fill="#575756" stroke="#575756" stroke-width="0.3376" stroke-linecap="round" stroke-linejoin="round" stroke-miterlimit="10" d="
		M5.932,2.876L5.892,2.947L5.832,2.89c0,0-2.748-2.192-4.662-1.011c-1.497,0.927-1.14,2.536-0.074,3.456
		c1.665,1.438,3.704-0.254,4.34-0.618c0,0,0.27-0.181,0.643-0.432"/>
	
		<path fill="#575756" stroke="#575756" stroke-width="0.3376" stroke-linecap="round" stroke-linejoin="round" stroke-miterlimit="10" d="
		M8.03,2.711l0.051,0.065l0.05-0.066c0,0,2.374-2.592,4.449-1.722c1.621,0.684,1.519,2.328,0.61,3.402
		C11.768,6.07,9.491,4.715,8.806,4.452c0,0-0.295-0.134-0.702-0.325"/>
	
		<ellipse transform="matrix(-0.0779 -0.997 0.997 -0.0779 4.2188 10.633)" fill="#3C3C3B" stroke="#3C3C3B" stroke-width="0.3958" stroke-linecap="round" stroke-linejoin="round" stroke-miterlimit="10" cx="7.027" cy="3.366" rx="3.176" ry="1.263"/>
</g>
</svg>
