<?xml version="1.0" encoding="utf-8"?>
<!-- Generator: Adobe Illustrator 17.0.0, SVG Export Plug-In . SVG Version: 6.00 Build 0)  -->
<!DOCTYPE svg PUBLIC "-//W3C//DTD SVG 1.1//EN" "http://www.w3.org/Graphics/SVG/1.1/DTD/svg11.dtd">
<svg version="1.1" id="Layer_1" xmlns="http://www.w3.org/2000/svg" xmlns:xlink="http://www.w3.org/1999/xlink" x="0px" y="0px"
	 width="407.44px" height="218.909px" viewBox="0 0 407.44 218.909" enable-background="new 0 0 407.44 218.909"
	 xml:space="preserve">
<g>
	<g>
		
			<path fill="#FFD600" stroke="#FFD600" stroke-width="0.566" stroke-linecap="round" stroke-linejoin="round" stroke-miterlimit="10" d="
			M125.709,51.832c15.49,29.386,14.49,66.177-5.719,95.378c-24.106,34.837-72.535,51.887-119.704,30.025l0.165-10.489
			c38.199,2.114,68.565-18.177,85.705-42.95c12.67-18.308,17.791-39.591,16.033-60.167L125.709,51.832z"/>
	</g>
	<g>
		
			<path fill="#7B6A58" stroke="#7B6A58" stroke-width="0.566" stroke-linecap="round" stroke-linejoin="round" stroke-miterlimit="10" d="
			M125.718,51.831c15.475,29.382,14.469,66.156-5.731,95.355c-25.37,36.659-74.2,51.403-119.704,30.024l0.071-4.738
			c35.586,9.53,81.592-7.881,102.057-37.453c16.362-23.648,20.129-52.265,12.749-77.899L125.718,51.831z"/>
	</g>
</g>
<g>
	<g>
		<path fill="#FDC100" stroke="#FDC100" stroke-linecap="round" stroke-linejoin="round" stroke-miterlimit="10" d="
			M295.113,150.031"/>
	</g>
	<g>
		<g>
			
				<polygon fill="#634E42" stroke="#634E42" stroke-width="0.9498" stroke-linecap="round" stroke-linejoin="round" stroke-miterlimit="10" points="
				133.02,15.606 105.131,20.594 106.118,4.094 126.377,0.475 			"/>
		</g>
		<g>
			
				<polygon fill="#7B6A58" stroke="#7B6A58" stroke-width="0.9498" stroke-linecap="round" stroke-linejoin="round" stroke-miterlimit="10" points="
				133.02,15.606 126.377,0.475 106.118,4.094 			"/>
		</g>
	</g>
	<g>
		<path fill="#FFD600" stroke="#FFD600" stroke-linecap="round" stroke-linejoin="round" stroke-miterlimit="10" d="
			M397.175,124.892c-55.999,37.875-120.445,34.661-168.911,12.659c-48.47-22.003-80.933-64.815-91.608-113.074l-31.895,5.734
			c-11.2,70.507,25.302,142.599,93.452,173.535c68.155,30.94,157.05,12.854,208.726-63.096L397.175,124.892z"/>
	</g>
	<g>
		<path fill="#FDC100" stroke="#FDC100" stroke-linecap="round" stroke-linejoin="round" stroke-miterlimit="10" d="M406.94,140.65
			c-49.587,73.704-136.995,95.662-208.726,63.096c-68.15-30.936-104.652-103.028-93.452-173.535l13.743-2.465
			c2.42,59.431,37.466,115.345,95.321,141.611c57.858,26.266,143.401,10.916,188.698-35.827L406.94,140.65z"/>
	</g>
	<g>
		<circle fill="#634E42" cx="238.755" cy="203.632" r="1.775"/>
	</g>
	<g>
		<circle fill="#634E42" cx="246.471" cy="208.538" r="1.774"/>
	</g>
	<g>
		<circle fill="#634E42" cx="252.847" cy="214.383" r="1.775"/>
	</g>
	<g>
		<circle fill="#634E42" cx="255.805" cy="209.211" r="1.775"/>
	</g>
	<g>
		<path fill="#634E42" d="M265.858,214.452c0.204,0.962-0.407,1.902-1.363,2.108c-0.96,0.206-1.902-0.405-2.108-1.365
			c-0.204-0.957,0.405-1.9,1.365-2.106C264.711,212.885,265.654,213.495,265.858,214.452z"/>
	</g>
	<g>
		<circle fill="#634E42" cx="267.601" cy="209.588" r="1.774"/>
	</g>
	<g>
		<circle fill="#634E42" cx="234.663" cy="209.951" r="1.775"/>
	</g>
	<g>
		<path fill="#634E42" d="M227.181,204.293c0.202,0.96-0.409,1.902-1.363,2.106c-0.961,0.204-1.904-0.404-2.108-1.365
			c-0.206-0.959,0.405-1.898,1.365-2.106C226.031,202.725,226.975,203.332,227.181,204.293z"/>
	</g>
</g>
</svg>
