<?xml version="1.0" encoding="utf-8"?>
<!-- Generator: Adobe Illustrator 15.0.2, SVG Export Plug-In . SVG Version: 6.00 Build 0)  -->
<!DOCTYPE svg PUBLIC "-//W3C//DTD SVG 1.1//EN" "http://www.w3.org/Graphics/SVG/1.1/DTD/svg11.dtd">
<svg version="1.1" id="Layer_1" xmlns="http://www.w3.org/2000/svg" xmlns:xlink="http://www.w3.org/1999/xlink" x="0px" y="0px"
	 width="95.836px" height="97.703px" viewBox="0 0 95.836 97.703" enable-background="new 0 0 95.836 97.703" xml:space="preserve">
<g>
	
		<path fill="#575756" stroke="#575756" stroke-width="0.3376" stroke-linecap="round" stroke-linejoin="round" stroke-miterlimit="10" d="
		M69.75,90.044l-0.11,0.101l-0.07-0.132c0,0-3.514-5.358-7.499-4.4c-3.119,0.755-3.415,3.744-2.092,5.943
		c2.065,3.436,6.559,1.664,7.866,1.395c0,0,0.571-0.159,1.358-0.383"/>
	
		<path fill="#575756" stroke="#575756" stroke-width="0.3376" stroke-linecap="round" stroke-linejoin="round" stroke-miterlimit="10" d="
		M73.476,90.95l0.052,0.142l0.125-0.086c0,0,5.583-3.139,8.682-0.453c2.419,2.104,1.308,4.894-0.876,6.236
		c-3.417,2.103-6.59-1.538-7.627-2.383c0,0-0.435-0.399-1.031-0.961"/>
	
		<ellipse transform="matrix(-0.9715 -0.2369 0.2369 -0.9715 119.0271 197.3282)" fill="#3C3C3B" stroke="#3C3C3B" stroke-width="0.3958" stroke-linecap="round" stroke-linejoin="round" stroke-miterlimit="10" cx="71.369" cy="91.513" rx="2.302" ry="5.789"/>
</g>
<g>
	
		<path fill="#575756" stroke="#575756" stroke-width="0.3376" stroke-linecap="round" stroke-linejoin="round" stroke-miterlimit="10" d="
		M21.65,44.416l-0.029,0.146l-0.135-0.064c0,0-6.012-2.218-8.646,0.924c-2.058,2.462-0.518,5.041,1.854,6.021
		c3.704,1.533,6.262-2.563,7.153-3.559c0,0,0.364-0.468,0.864-1.115"/>
	
		<path fill="#575756" stroke="#575756" stroke-width="0.3376" stroke-linecap="round" stroke-linejoin="round" stroke-miterlimit="10" d="
		M25.184,42.928l0.126,0.083l0.049-0.144c0,0,2.621-5.844,6.709-5.528c3.196,0.253,3.962,3.156,3.005,5.534
		c-1.496,3.723-6.212,2.684-7.548,2.621c0,0-0.587-0.062-1.4-0.158"/>
	
		<ellipse transform="matrix(-0.9219 0.3875 -0.3875 -0.9219 63.0829 76.5488)" fill="#3C3C3B" stroke="#3C3C3B" stroke-width="0.3958" stroke-linecap="round" stroke-linejoin="round" stroke-miterlimit="10" cx="23.825" cy="44.633" rx="2.302" ry="5.789"/>
</g>
<g>
	
		<path fill="#575756" stroke="#575756" stroke-width="0.3376" stroke-linecap="round" stroke-linejoin="round" stroke-miterlimit="10" d="
		M10.338,15.201l-0.089,0.12l-0.094-0.116c0,0-4.498-4.564-8.218-2.841c-2.91,1.353-2.613,4.342-0.883,6.238
		c2.7,2.963,6.758,0.343,7.987-0.178c0,0,0.529-0.269,1.256-0.642"/>
	
		<path fill="#575756" stroke="#575756" stroke-width="0.3376" stroke-linecap="round" stroke-linejoin="round" stroke-miterlimit="10" d="
		M14.169,15.357l0.079,0.128l0.105-0.109c0,0,4.857-4.174,8.423-2.149c2.785,1.588,2.243,4.542,0.366,6.287
		c-2.938,2.732-6.763-0.214-7.946-0.839c0,0-0.504-0.306-1.2-0.739"/>
	
		<ellipse transform="matrix(-0.9991 -0.0415 0.0415 -0.9991 23.7405 33.1374)" fill="#3C3C3B" stroke="#3C3C3B" stroke-width="0.3958" stroke-linecap="round" stroke-linejoin="round" stroke-miterlimit="10" cx="12.214" cy="16.323" rx="2.302" ry="5.789"/>
</g>
<g>
	
		<path fill="#575756" stroke="#575756" stroke-width="0.3376" stroke-linecap="round" stroke-linejoin="round" stroke-miterlimit="10" d="
		M43.596,14.909l-0.135,0.065l-0.029-0.146c0,0-1.856-6.133-5.951-6.34c-3.205-0.157-4.333,2.627-3.686,5.11
		c1.01,3.879,5.821,3.449,7.152,3.56c0,0,0.593,0.008,1.411,0.017"/>
	
		<path fill="#575756" stroke="#575756" stroke-width="0.3376" stroke-linecap="round" stroke-linejoin="round" stroke-miterlimit="10" d="
		M46.914,16.831l0.01,0.15l0.145-0.047c0,0,6.241-1.433,8.455,2.019c1.726,2.702-0.128,5.064-2.603,5.735
		c-3.872,1.051-5.886-3.337-6.643-4.441c0,0-0.303-0.505-0.718-1.212"/>
	
		<ellipse transform="matrix(-0.865 -0.5017 0.5017 -0.865 75.0124 53.7314)" fill="#3C3C3B" stroke="#3C3C3B" stroke-width="0.3958" stroke-linecap="round" stroke-linejoin="round" stroke-miterlimit="10" cx="44.734" cy="16.775" rx="2.303" ry="5.789"/>
</g>
<g>
	
		<path fill="#575756" stroke="#575756" stroke-width="0.3376" stroke-linecap="round" stroke-linejoin="round" stroke-miterlimit="10" d="
		M81.611,4.542l-0.108,0.104l-0.073-0.13c0,0-3.69-5.239-7.642-4.148c-3.092,0.858-3.288,3.856-1.893,6.01
		c2.178,3.365,6.609,1.445,7.909,1.131c0,0,0.564-0.178,1.344-0.427"/>
	
		<path fill="#575756" stroke="#575756" stroke-width="0.3376" stroke-linecap="round" stroke-linejoin="round" stroke-miterlimit="10" d="
		M85.365,5.323l0.057,0.14l0.122-0.09c0,0,5.475-3.322,8.661-0.742c2.487,2.023,1.47,4.848-0.668,6.262
		c-3.346,2.215-6.637-1.317-7.702-2.128c0,0-0.446-0.384-1.063-0.925"/>
	
		<ellipse transform="matrix(-0.9789 -0.2044 0.2044 -0.9789 163.5803 28.8108)" fill="#3C3C3B" stroke="#3C3C3B" stroke-width="0.3958" stroke-linecap="round" stroke-linejoin="round" stroke-miterlimit="10" cx="83.278" cy="5.956" rx="2.303" ry="5.789"/>
</g>
</svg>
