<?xml version="1.0" encoding="utf-8"?>
<!-- Generator: Adobe Illustrator 15.0.2, SVG Export Plug-In . SVG Version: 6.00 Build 0)  -->
<!DOCTYPE svg PUBLIC "-//W3C//DTD SVG 1.1//EN" "http://www.w3.org/Graphics/SVG/1.1/DTD/svg11.dtd">
<svg version="1.1" id="Lager_1" xmlns="http://www.w3.org/2000/svg" xmlns:xlink="http://www.w3.org/1999/xlink" x="0px" y="0px"
	 width="25.414px" height="12.876px" viewBox="0 0 25.414 12.876" enable-background="new 0 0 25.414 12.876" xml:space="preserve">
<g>
	<g>
		
			<path fill="#FFFFFF" stroke="#FFFFFF" stroke-width="0.1807" stroke-linecap="round" stroke-linejoin="round" stroke-miterlimit="10" d="
			M0.097,5.529L0.09,0.863c0.686,0.022,1.204,0.116,1.553,0.282c0.35,0.166,0.525,0.414,0.525,0.743c0,0.33-0.094,0.575-0.279,0.734
			S1.478,2.879,1.212,2.914C1.561,2.945,1.86,3.067,2.105,3.279c0.246,0.212,0.369,0.523,0.369,0.933S2.271,4.941,1.866,5.175
			C1.46,5.407,0.872,5.525,0.097,5.529z M1.922,1.885c0-0.248-0.142-0.438-0.425-0.571s-0.67-0.199-1.162-0.199v1.686
			C1.394,2.788,1.922,2.483,1.922,1.885z M2.228,4.176c0-0.23-0.064-0.423-0.192-0.578S1.734,3.333,1.517,3.266
			C1.155,3.147,0.763,3.087,0.342,3.087v2.19c0.358-0.004,0.668-0.045,0.93-0.123c0.261-0.076,0.458-0.176,0.59-0.295
			C2.106,4.634,2.228,4.406,2.228,4.176z"/>
		
			<path fill="#FFFFFF" stroke="#FFFFFF" stroke-width="0.1807" stroke-linecap="round" stroke-linejoin="round" stroke-miterlimit="10" d="
			M5.56,1.208V5.51H5.314v-2.19H3.429v2.19H3.184V2.47c0-0.478,0.152-0.87,0.458-1.175C3.948,0.989,4.33,0.836,4.791,0.836
			C5.126,0.836,5.383,0.96,5.56,1.208z M5.314,3.074V1.301c-0.141-0.146-0.32-0.219-0.537-0.219c-0.389,0-0.711,0.142-0.965,0.425
			C3.556,1.79,3.429,2.113,3.429,2.476v0.598H5.314z M3.715,0h0.252v0.438H3.715V0z M4.843,0h0.252v0.438H4.843V0z"/>
		
			<path fill="#FFFFFF" stroke="#FFFFFF" stroke-width="0.1807" stroke-linecap="round" stroke-linejoin="round" stroke-miterlimit="10" d="
			M8.089,4.807c0.199-0.173,0.3-0.383,0.3-0.631S8.316,3.729,8.172,3.582C8.029,3.433,7.855,3.322,7.652,3.25
			C7.448,3.176,7.244,3.102,7.038,3.027C6.833,2.952,6.657,2.838,6.513,2.685C6.369,2.533,6.297,2.337,6.297,2.098
			c0-0.416,0.116-0.726,0.349-0.929c0.232-0.204,0.51-0.306,0.833-0.306s0.677,0.031,1.062,0.093v0.246
			C8.196,1.14,7.873,1.109,7.572,1.109S7.025,1.192,6.833,1.361c-0.193,0.168-0.29,0.405-0.29,0.71c0,0.266,0.138,0.464,0.412,0.597
			c0.124,0.062,0.26,0.12,0.408,0.172c0.148,0.054,0.298,0.113,0.448,0.18s0.286,0.145,0.408,0.236s0.222,0.216,0.299,0.378
			s0.116,0.35,0.116,0.564s-0.05,0.404-0.149,0.567S8.262,5.059,8.116,5.151C7.97,5.244,7.799,5.32,7.605,5.377
			C7.291,5.475,6.937,5.523,6.542,5.523H6.376V5.277C7.165,5.277,7.736,5.12,8.089,4.807z"/>
		
			<path fill="#FFFFFF" stroke="#FFFFFF" stroke-width="0.1807" stroke-linecap="round" stroke-linejoin="round" stroke-miterlimit="10" d="
			M10.181,5.51H9.935V1.109H8.874V0.863h2.376v0.246h-1.068V5.51z"/>
		
			<path fill="#FFFFFF" stroke="#FFFFFF" stroke-width="0.1807" stroke-linecap="round" stroke-linejoin="round" stroke-miterlimit="10" d="
			M13.434,5.51h-0.247V0.863h2.378v0.246h-2.131v1.699h2.131v0.246h-2.131V5.51z"/>
		
			<path fill="#FFFFFF" stroke="#FFFFFF" stroke-width="0.1807" stroke-linecap="round" stroke-linejoin="round" stroke-miterlimit="10" d="
			M19.116,3.226c0,0.731-0.124,1.293-0.372,1.69c-0.247,0.396-0.605,0.594-1.075,0.594c-0.469,0-0.841-0.2-1.114-0.601
			c-0.274-0.4-0.412-0.97-0.412-1.706c0-0.737,0.135-1.317,0.404-1.739c0.271-0.422,0.646-0.634,1.129-0.634
			c0.288,0,0.532,0.074,0.733,0.222s0.352,0.349,0.448,0.601C19.03,2.118,19.116,2.642,19.116,3.226z M18.871,3.113
			c0-0.615-0.104-1.106-0.312-1.474c-0.207-0.367-0.507-0.551-0.896-0.551c-0.391,0-0.7,0.183-0.93,0.548
			c-0.23,0.365-0.346,0.889-0.346,1.57c0,0.792,0.18,1.374,0.538,1.746c0.198,0.204,0.428,0.306,0.684,0.306S18.076,5.2,18.24,5.085
			s0.29-0.274,0.378-0.478C18.787,4.227,18.871,3.729,18.871,3.113z M16.931,0h0.253v0.438h-0.253V0z M18.06,0h0.253v0.438H18.06V0z
			"/>
		
			<path fill="#FFFFFF" stroke="#FFFFFF" stroke-width="0.1807" stroke-linecap="round" stroke-linejoin="round" stroke-miterlimit="10" d="
			M22.329,5.51h-0.298l-1.289-1.972c-0.163,0.022-0.345,0.038-0.543,0.047V5.51h-0.246V0.856c1.482,0.004,2.224,0.449,2.224,1.334
			c0,0.713-0.39,1.149-1.169,1.308L22.329,5.51z M20.199,3.319l0.065,0.006c1.111-0.018,1.666-0.389,1.666-1.115
			c0-0.203-0.047-0.373-0.143-0.508c-0.096-0.135-0.202-0.24-0.322-0.315c-0.283-0.177-0.706-0.27-1.267-0.279V3.319z"/>
		
			<path fill="#FFFFFF" stroke="#FFFFFF" stroke-width="0.1807" stroke-linecap="round" stroke-linejoin="round" stroke-miterlimit="10" d="
			M22.947,5.51V0.863h2.376v0.246h-2.131v1.699h2.131v0.246h-2.131v2.21h2.131V5.51H22.947z"/>
	</g>
	<g>
		
			<path fill="#FFFFFF" stroke="#FFFFFF" stroke-width="0.1768" stroke-linecap="round" stroke-linejoin="round" stroke-miterlimit="10" d="
			M6.609,12.76H6.353V8.415L5.34,8.874V8.625l1.269-0.588V12.76z"/>
		
			<path fill="#FFFFFF" stroke="#FFFFFF" stroke-width="0.1768" stroke-linecap="round" stroke-linejoin="round" stroke-miterlimit="10" d="
			M7.237,12.76l1.801-2.496c0.099-0.14,0.175-0.248,0.227-0.324c0.051-0.076,0.104-0.18,0.157-0.311
			c0.055-0.131,0.082-0.251,0.082-0.363c0-0.311-0.099-0.552-0.296-0.723C9.008,8.371,8.78,8.287,8.519,8.287
			c-0.262,0-0.612,0.141-1.053,0.426V8.469c0.395-0.287,0.763-0.432,1.1-0.432c0.338,0,0.618,0.113,0.844,0.34
			c0.224,0.228,0.336,0.515,0.336,0.861c0,0.346-0.121,0.688-0.362,1.025l-1.62,2.246h2.038v0.25H7.237z"/>
		
			<path fill="#FFFFFF" stroke="#FFFFFF" stroke-width="0.1768" stroke-linecap="round" stroke-linejoin="round" stroke-miterlimit="10" d="
			M14.658,12.76l0.014-4.332l-1.126,2.584h-0.229l-1.127-2.584v4.332h-0.236V8.031h0.324l1.152,2.644l1.148-2.644h0.33v4.729H14.658
			z"/>
		
			<path fill="#FFFFFF" stroke="#FFFFFF" stroke-width="0.1768" stroke-linecap="round" stroke-linejoin="round" stroke-miterlimit="10" d="
			M18.308,8.389v4.371h-0.25v-2.227h-1.916v2.227h-0.249V9.67c0-0.486,0.154-0.884,0.465-1.193c0.311-0.312,0.7-0.467,1.167-0.467
			C17.867,8.01,18.128,8.136,18.308,8.389z M18.058,10.283V8.482c-0.144-0.148-0.325-0.223-0.546-0.223
			c-0.397,0-0.722,0.145-0.982,0.432c-0.258,0.287-0.388,0.616-0.388,0.984v0.607H18.058z"/>
		
			<path fill="#FFFFFF" stroke="#FFFFFF" stroke-width="0.1768" stroke-linecap="round" stroke-linejoin="round" stroke-miterlimit="10" d="
			M18.929,11.748h0.25c0.009,0.342,0.094,0.566,0.256,0.674c0.121,0.078,0.24,0.115,0.357,0.115c0.319,0,0.564-0.109,0.734-0.326
			c0.172-0.219,0.257-0.582,0.257-1.09V8.037h0.25v3.09c0,1.107-0.418,1.66-1.256,1.66c-0.169,0-0.345-0.059-0.525-0.176
			c-0.094-0.066-0.172-0.176-0.232-0.324C18.96,12.139,18.929,11.959,18.929,11.748z"/>
	</g>
</g>
</svg>
