<?xml version="1.0" encoding="utf-8"?>
<!-- Generator: Adobe Illustrator 15.0.2, SVG Export Plug-In . SVG Version: 6.00 Build 0)  -->
<!DOCTYPE svg PUBLIC "-//W3C//DTD SVG 1.1//EN" "http://www.w3.org/Graphics/SVG/1.1/DTD/svg11.dtd">
<svg version="1.1" id="Lager_1" xmlns="http://www.w3.org/2000/svg" xmlns:xlink="http://www.w3.org/1999/xlink" x="0px" y="0px"
	 width="841.891px" height="220.873px" viewBox="0 0 841.891 220.873" enable-background="new 0 0 841.891 220.873"
	 xml:space="preserve">
<g id="Träd_8_">
	<rect x="586.435" y="86.896" fill="#AF7F48" width="1.789" height="8.657"/>
	<rect x="587.327" y="86.896" fill="#905E35" width="0.896" height="8.657"/>
	
		<path fill="#53AF6F" stroke="#53AF6F" stroke-width="0.0259" stroke-linecap="round" stroke-linejoin="round" stroke-miterlimit="10" d="
		M578.35,79.977c0-2.339,1.896-4.235,4.234-4.235c0.443,0,0.871,0.068,1.271,0.194c0.143-2.211,1.979-3.96,4.227-3.96
		c2.34,0,4.235,1.896,4.235,4.236c0,0.473-0.079,0.928-0.222,1.353c2.328,0.014,4.211,1.905,4.211,4.236
		c0,2.34-1.896,4.235-4.235,4.235c-0.784,0-1.519-0.213-2.146-0.585c-0.767,1.101-2.038,1.821-3.479,1.821
		c-1.932,0-3.562-1.294-4.07-3.063C580.134,84.098,578.35,82.246,578.35,79.977z"/>
	
		<path fill="#45A260" stroke="#45A260" stroke-width="0.0259" stroke-linecap="round" stroke-linejoin="round" stroke-miterlimit="10" d="
		M588.082,71.975c2.34,0,4.235,1.896,4.235,4.236c0,0.473-0.079,0.928-0.222,1.353c2.328,0.014,4.211,1.905,4.211,4.236
		c0,2.34-1.896,4.235-4.235,4.235c-0.784,0-1.519-0.213-2.146-0.585c-0.604,0.869-1.525,1.502-2.597,1.729c0,0,0-15.045,0-15.137
		C587.603,71.963,588.082,71.975,588.082,71.975z"/>
</g>
<g>
	<g>
		<rect x="607.576" y="77.167" fill="#8E5E35" width="2.392" height="10.519"/>
		<rect x="608.773" y="77.167" fill="#7F4D28" width="1.195" height="10.519"/>
	</g>
	<g>
		<polygon fill="#54AF6C" stroke="#54AF6C" stroke-width="0.0739" stroke-miterlimit="10" points="603.765,74.983 613.666,74.983 
			608.716,67.961 		"/>
		
			<polygon fill="#45A260" stroke="#45A260" stroke-width="0.0833" stroke-linecap="round" stroke-linejoin="round" stroke-miterlimit="10" points="
			613.666,74.983 608.716,67.961 608.716,74.983 		"/>
	</g>
	<g>
		<polygon fill="#54AF6C" stroke="#54AF6C" stroke-width="0.0913" stroke-miterlimit="10" points="602.615,78.224 614.818,78.224 
			608.716,69.522 		"/>
		
			<polygon fill="#45A260" stroke="#45A260" stroke-width="0.1029" stroke-linecap="round" stroke-linejoin="round" stroke-miterlimit="10" points="
			614.818,78.224 608.716,69.522 608.716,78.224 		"/>
	</g>
	<g>
		<polygon fill="#54AF6C" stroke="#54AF6C" stroke-width="0.1064" stroke-miterlimit="10" points="601.522,81.408 615.91,81.408 
			608.716,71.385 		"/>
		
			<polygon fill="#45A260" stroke="#45A260" stroke-width="0.1199" stroke-linecap="round" stroke-linejoin="round" stroke-miterlimit="10" points="
			615.91,81.408 608.716,71.385 608.716,81.408 		"/>
	</g>
	<g>
		<polygon fill="#54AF6C" stroke="#54AF6C" stroke-width="0.1175" stroke-miterlimit="10" points="600.773,84.445 616.659,84.445 
			608.716,73.377 		"/>
		
			<polygon fill="#45A260" stroke="#45A260" stroke-width="0.1324" stroke-linecap="round" stroke-linejoin="round" stroke-miterlimit="10" points="
			616.659,84.445 608.716,73.377 608.716,84.445 		"/>
	</g>
	<g>
		<polygon fill="#54AF6C" stroke="#54AF6C" stroke-width="0.0582" stroke-miterlimit="10" points="604.877,71.998 612.555,71.998 
			608.716,66.384 		"/>
		
			<polygon fill="#45A260" stroke="#45A260" stroke-width="0.0656" stroke-linecap="round" stroke-linejoin="round" stroke-miterlimit="10" points="
			612.555,71.998 608.716,66.384 608.716,71.998 		"/>
	</g>
</g>
<g>
	<g>
		<rect x="629.997" y="73.814" fill="#8E5E35" width="3.246" height="14.283"/>
		<rect x="631.619" y="73.814" fill="#7F4D28" width="1.624" height="14.283"/>
	</g>
	<g>
		<polygon fill="#54AF6C" stroke="#54AF6C" stroke-width="0.1003" stroke-miterlimit="10" points="624.821,70.849 638.268,70.849 
			631.544,61.313 		"/>
		
			<polygon fill="#45A260" stroke="#45A260" stroke-width="0.1131" stroke-linecap="round" stroke-linejoin="round" stroke-miterlimit="10" points="
			638.268,70.849 631.544,61.313 631.544,70.849 		"/>
	</g>
	<g>
		<polygon fill="#54AF6C" stroke="#54AF6C" stroke-width="0.124" stroke-miterlimit="10" points="623.26,75.25 639.827,75.25 
			631.543,63.435 		"/>
		
			<polygon fill="#45A260" stroke="#45A260" stroke-width="0.1397" stroke-linecap="round" stroke-linejoin="round" stroke-miterlimit="10" points="
			639.827,75.25 631.543,63.435 631.543,75.25 		"/>
	</g>
	<g>
		<polygon fill="#54AF6C" stroke="#54AF6C" stroke-width="0.1445" stroke-miterlimit="10" points="621.775,79.574 641.314,79.574 
			631.544,65.964 		"/>
		
			<polygon fill="#45A260" stroke="#45A260" stroke-width="0.1629" stroke-linecap="round" stroke-linejoin="round" stroke-miterlimit="10" points="
			641.314,79.574 631.544,65.964 631.544,79.574 		"/>
	</g>
	<g>
		<polygon fill="#54AF6C" stroke="#54AF6C" stroke-width="0.1596" stroke-miterlimit="10" points="620.757,83.698 642.33,83.698 
			631.544,68.668 		"/>
		
			<polygon fill="#45A260" stroke="#45A260" stroke-width="0.1798" stroke-linecap="round" stroke-linejoin="round" stroke-miterlimit="10" points="
			642.33,83.698 631.544,68.668 631.544,83.698 		"/>
	</g>
	<g>
		<polygon fill="#54AF6C" stroke="#54AF6C" stroke-width="0.079" stroke-miterlimit="10" points="626.33,66.796 636.756,66.796 
			631.543,59.172 		"/>
		
			<polygon fill="#45A260" stroke="#45A260" stroke-width="0.089" stroke-linecap="round" stroke-linejoin="round" stroke-miterlimit="10" points="
			636.756,66.796 631.543,59.172 631.543,66.796 		"/>
	</g>
</g>
<path fill="#AED8E5" stroke="#AED8E5" stroke-width="0.024" stroke-linecap="round" stroke-linejoin="round" stroke-miterlimit="10" d="
	M736.344,97.264c0.622,0,1.221,0.096,1.781,0.271c0.177-2.742,2.218-4.97,4.867-5.448c0-0.001,0-0.009,0-0.009
	c0.386-0.11,1.058-0.093,1.058-0.093c3.276,0,5.936,2.657,5.936,5.937c0,0.664-0.108,1.3-0.31,1.896
	c3.263,0.019,5.901,2.668,5.901,5.936c0,3.279-2.656,5.937-5.937,5.937c-1.101,0-2.127-0.299-3.01-0.818
	c-0.188,0.271-0.406,0.52-0.637,0.755c-0.053,0.054-0.104,0.104-0.156,0.157c-0.233,0.221-0.48,0.428-0.747,0.609
	c-0.043,0.028-0.089,0.053-0.134,0.082c-0.244,0.156-0.5,0.293-0.766,0.412c-0.006,0.004-0.01,0.01-0.017,0.012h0.069v12.134h-1.255
	h-1.254v-11.609c-2.7-0.008-4.978-1.819-5.688-4.293c-3.145-0.153-5.644-2.75-5.644-5.93
	C730.406,99.922,733.065,97.264,736.344,97.264z"/>
<path fill="#AED8E5" stroke="#AED8E5" stroke-width="0.024" stroke-linecap="round" stroke-linejoin="round" stroke-miterlimit="10" d="
	M765.344,87.459c0.622,0,1.221,0.096,1.781,0.271c0.177-2.742,2.218-4.97,4.867-5.448c0-0.001,0-0.009,0-0.009
	c0.386-0.11,1.058-0.093,1.058-0.093c3.276,0,5.936,2.657,5.936,5.937c0,0.664-0.108,1.3-0.31,1.896
	c3.263,0.019,5.901,2.668,5.901,5.936c0,3.279-2.656,5.937-5.937,5.937c-1.101,0-2.127-0.299-3.01-0.819
	c-0.188,0.271-0.406,0.519-0.637,0.755c-0.053,0.053-0.104,0.105-0.156,0.157c-0.233,0.221-0.48,0.428-0.747,0.609
	c-0.043,0.029-0.089,0.054-0.134,0.082c-0.244,0.157-0.5,0.294-0.766,0.413c-0.006,0.004-0.01,0.009-0.017,0.011h0.069v12.133
	h-1.255h-1.254v-11.608c-2.7-0.008-4.978-1.819-5.688-4.293c-3.145-0.153-5.644-2.75-5.644-5.93
	C759.406,90.117,762.065,87.459,765.344,87.459z"/>
<path fill="#AED8E5" d="M546.449,70.2h-8.812v-5.113h-23.434V70.2h-8.812c-0.199,0.466-0.1,1.007,0.251,1.372l12.658,13.186
	c0.008,0.007,0.018,0.013,0.023,0.021v29.339h5.466c-0.315-0.436-0.509-0.967-0.509-1.547V91.002c0-1.456,1.183-2.638,2.639-2.638
	s2.638,1.182,2.638,2.638v21.569c0,0.58-0.192,1.109-0.509,1.546h5.466V84.778c0.008-0.008,0.017-0.014,0.023-0.021l12.658-13.186
	C546.551,71.207,546.65,70.666,546.449,70.2z"/>
<g>
	<path fill="#AED8EA" d="M60.222,35.631h15.688v21.556l40.438-0.125V35.631h14.405V25.287h32.012v32.792h18.407V41.684h27.21V58.08
		h9.204V23.688h28.011V58.08h12.806L268.802,0l10.404,58.079h11.204V10.491h40.016v47.588h12.806V47.682h32.165v32.964h20.184
		V67.467h27.035v19.342c4.001,0.142,20.6,0,20.6,0v-31.25h40.228v99.406l-41.228,1.291l-74.173-0.833H25.109"/>
	<path opacity="0.7" fill="#5BB5D0" enable-background="new    " d="M22.499,95.219h21.018V56.41h46.414v38.809h28.015l0.125-19.408
		l26.56-0.125v19.533h13.673V75.813h37.55v13.672h21.69V78.333h28.679v11.152h15.723V70.608h34.544v11.171h15.273V66.512h21.334
		v29.344h5.335v-9.169h19.88v15.541h6.854v-6.372h14.419v11.652h11.214v-20.49h13.35v12.684h8.012v6.719h9.478v-8.119h17.656v36.86
		h-7.642l-58.308,0.142H21.78"/>
	<path fill="#3B8655" d="M841.891,130.437c-27.248,0-33.986-23.872-59.598-19.871c-25.608,4.003-34.656,13.598-57.692,14.462
		l-0.244,0.271h-9.216c-20.342,0-37.002-17.458-52.354-26.663c-29.344-17.595-54.953-13.862-77.361-4.12
		c-27.488,11.952-41.331,17.917-64.01,15.233c-14.918-1.763-30.562-16.514-55.634-14.953c-25.641,1.596-50.366,26.812-86.646,32.323
		c0,0-17.074,2.604-37.35-1.82c-24.315-5.308-41.212-4.466-75.458,0.707c-47.138,7.122-54.243,10.423-81.454,5.472
		c-27.21-4.953-36.813-16.156-62.426-12.154c-25.607,4.003-48.36,10.271-71.397,11.137c-22.905-0.995-50.996-0.676-50.996-0.676
		L0,206.202h0.053h841.838"/>
	<path fill="#4CB37F" d="M841.891,151.437c0,0-8.195,0.5-28.945-1c-18.774-1.356-44.98-15.486-64.19-14.439
		c-25.479,1.393-38.409,13.406-66.853,16.08H640.96c-20.341,0-37.003-8.124-52.353-17.329c-29.345-17.597-54.954-13.86-77.362-4.121
		c-27.491,11.953-41.333,17.915-64.009,15.231c-14.524-1.717-39.878-13.793-65.489-12.196
		c-25.642,1.596-38.564,15.481-67.376,18.415H0v68.796h791.049l50.842,0.001"/>
	<g>
		<g>
			
				<rect x="20.425" y="52.224" fill="#EEE0CE" stroke="#EEE0CE" stroke-width="0.5112" stroke-miterlimit="10" width="85.369" height="126.854"/>
			
				<rect x="20.425" y="52.224" opacity="0.33" fill="#CBBB9F" stroke="#CBBB9F" stroke-width="0.3615" stroke-miterlimit="10" enable-background="new    " width="42.685" height="126.854"/>
		</g>
		
			<rect x="20.425" y="13.536" fill="#7B6A58" stroke="#7B6A58" stroke-width="0.2823" stroke-miterlimit="10" width="85.369" height="38.688"/>
		<path fill="#A3897B" stroke="#A3897B" stroke-width="0.3218" stroke-miterlimit="10" d="M33.002,156.369"/>
		<path fill="#C5E0EC" d="M39.478,129.465"/>
		<path fill="#A3897B" stroke="#A3897B" stroke-width="0.3218" stroke-miterlimit="10" d="M38.845,156.256"/>
		<path fill="#A3897B" stroke="#A3897B" stroke-width="0.3218" stroke-miterlimit="10" d="M53.815,156.369"/>
		<path fill="#C5E0EC" d="M60.292,129.465"/>
		<path fill="#A3897B" stroke="#A3897B" stroke-width="0.3218" stroke-miterlimit="10" d="M59.658,156.256"/>
		<g>
			
				<rect x="33.031" y="112.91" fill="#877366" stroke="#877366" stroke-width="0.4483" stroke-linecap="round" stroke-linejoin="round" stroke-miterlimit="10" width="6.198" height="7.927"/>
			
				<rect x="33.031" y="103.546" fill="#877366" stroke="#877366" stroke-width="0.4483" stroke-linecap="round" stroke-linejoin="round" stroke-miterlimit="10" width="6.198" height="7.926"/>
			
				<rect x="40.735" y="103.546" fill="#877366" stroke="#877366" stroke-width="0.4483" stroke-linecap="round" stroke-linejoin="round" stroke-miterlimit="10" width="6.197" height="7.926"/>
			
				<rect x="40.735" y="112.91" fill="#877366" stroke="#877366" stroke-width="0.4483" stroke-linecap="round" stroke-linejoin="round" stroke-miterlimit="10" width="6.197" height="7.927"/>
		</g>
		
			<rect x="56.159" y="112.91" fill="#877366" stroke="#877366" stroke-width="0.4483" stroke-linecap="round" stroke-linejoin="round" stroke-miterlimit="10" width="6.194" height="7.927"/>
		
			<rect x="56.159" y="103.546" fill="#877366" stroke="#877366" stroke-width="0.4483" stroke-linecap="round" stroke-linejoin="round" stroke-miterlimit="10" width="6.194" height="7.926"/>
		
			<rect x="63.862" y="103.546" fill="#A3897B" stroke="#A3897B" stroke-width="0.4483" stroke-linecap="round" stroke-linejoin="round" stroke-miterlimit="10" width="6.198" height="7.926"/>
		
			<rect x="63.862" y="112.91" fill="#A3897B" stroke="#A3897B" stroke-width="0.4483" stroke-linecap="round" stroke-linejoin="round" stroke-miterlimit="10" width="6.198" height="7.927"/>
		<g>
			
				<rect x="79.286" y="112.91" fill="#A3897B" stroke="#A3897B" stroke-width="0.4483" stroke-linecap="round" stroke-linejoin="round" stroke-miterlimit="10" width="6.195" height="7.927"/>
			
				<rect x="79.286" y="103.546" fill="#A3897B" stroke="#A3897B" stroke-width="0.4483" stroke-linecap="round" stroke-linejoin="round" stroke-miterlimit="10" width="6.195" height="7.926"/>
			
				<rect x="86.991" y="103.546" fill="#A3897B" stroke="#A3897B" stroke-width="0.4483" stroke-linecap="round" stroke-linejoin="round" stroke-miterlimit="10" width="6.195" height="7.926"/>
			
				<rect x="86.991" y="112.91" fill="#A3897B" stroke="#A3897B" stroke-width="0.4483" stroke-linecap="round" stroke-linejoin="round" stroke-miterlimit="10" width="6.195" height="7.927"/>
		</g>
		<g>
			
				<rect x="33.031" y="80.561" fill="#877366" stroke="#877366" stroke-width="0.4483" stroke-linecap="round" stroke-linejoin="round" stroke-miterlimit="10" width="6.198" height="7.926"/>
			
				<rect x="33.031" y="71.196" fill="#877366" stroke="#877366" stroke-width="0.4483" stroke-linecap="round" stroke-linejoin="round" stroke-miterlimit="10" width="6.198" height="7.925"/>
			
				<rect x="40.735" y="71.196" fill="#877366" stroke="#877366" stroke-width="0.4483" stroke-linecap="round" stroke-linejoin="round" stroke-miterlimit="10" width="6.197" height="7.925"/>
			
				<rect x="40.735" y="80.561" fill="#877366" stroke="#877366" stroke-width="0.4483" stroke-linecap="round" stroke-linejoin="round" stroke-miterlimit="10" width="6.197" height="7.926"/>
		</g>
		
			<rect x="56.159" y="80.561" fill="#877366" stroke="#877366" stroke-width="0.4483" stroke-linecap="round" stroke-linejoin="round" stroke-miterlimit="10" width="6.194" height="7.926"/>
		
			<rect x="56.159" y="71.196" fill="#877366" stroke="#877366" stroke-width="0.4483" stroke-linecap="round" stroke-linejoin="round" stroke-miterlimit="10" width="6.194" height="7.925"/>
		
			<rect x="63.862" y="71.196" fill="#A3897B" stroke="#A3897B" stroke-width="0.4483" stroke-linecap="round" stroke-linejoin="round" stroke-miterlimit="10" width="6.198" height="7.925"/>
		
			<rect x="63.862" y="80.561" fill="#A3897B" stroke="#A3897B" stroke-width="0.4483" stroke-linecap="round" stroke-linejoin="round" stroke-miterlimit="10" width="6.198" height="7.926"/>
		<g>
			
				<rect x="79.286" y="80.561" fill="#A3897B" stroke="#A3897B" stroke-width="0.4483" stroke-linecap="round" stroke-linejoin="round" stroke-miterlimit="10" width="6.195" height="7.926"/>
			
				<rect x="79.286" y="71.196" fill="#A3897B" stroke="#A3897B" stroke-width="0.4483" stroke-linecap="round" stroke-linejoin="round" stroke-miterlimit="10" width="6.195" height="7.925"/>
			
				<rect x="86.991" y="71.196" fill="#A3897B" stroke="#A3897B" stroke-width="0.4483" stroke-linecap="round" stroke-linejoin="round" stroke-miterlimit="10" width="6.195" height="7.925"/>
			
				<rect x="86.991" y="80.561" fill="#A3897B" stroke="#A3897B" stroke-width="0.4483" stroke-linecap="round" stroke-linejoin="round" stroke-miterlimit="10" width="6.195" height="7.926"/>
		</g>
		<g>
			
				<rect x="33.031" y="145.261" fill="#877366" stroke="#877366" stroke-width="0.4483" stroke-linecap="round" stroke-linejoin="round" stroke-miterlimit="10" width="6.198" height="7.926"/>
			
				<rect x="33.031" y="135.896" fill="#877366" stroke="#877366" stroke-width="0.4483" stroke-linecap="round" stroke-linejoin="round" stroke-miterlimit="10" width="6.198" height="7.926"/>
			
				<rect x="40.735" y="135.896" fill="#877366" stroke="#877366" stroke-width="0.4483" stroke-linecap="round" stroke-linejoin="round" stroke-miterlimit="10" width="6.197" height="7.926"/>
			
				<rect x="40.735" y="145.261" fill="#877366" stroke="#877366" stroke-width="0.4483" stroke-linecap="round" stroke-linejoin="round" stroke-miterlimit="10" width="6.197" height="7.926"/>
		</g>
		
			<rect x="56.159" y="145.261" fill="#877366" stroke="#877366" stroke-width="0.4483" stroke-linecap="round" stroke-linejoin="round" stroke-miterlimit="10" width="6.194" height="7.926"/>
		
			<rect x="56.159" y="135.896" fill="#877366" stroke="#877366" stroke-width="0.4483" stroke-linecap="round" stroke-linejoin="round" stroke-miterlimit="10" width="6.194" height="7.926"/>
		
			<rect x="63.862" y="135.896" fill="#A3897B" stroke="#A3897B" stroke-width="0.4483" stroke-linecap="round" stroke-linejoin="round" stroke-miterlimit="10" width="6.198" height="7.926"/>
		
			<rect x="63.862" y="145.261" fill="#A3897B" stroke="#A3897B" stroke-width="0.4483" stroke-linecap="round" stroke-linejoin="round" stroke-miterlimit="10" width="6.198" height="7.926"/>
		
			<rect x="79.286" y="145.261" fill="#A3897B" stroke="#A3897B" stroke-width="0.4483" stroke-linecap="round" stroke-linejoin="round" stroke-miterlimit="10" width="13.899" height="33.817"/>
		
			<rect x="79.286" y="135.896" fill="#A3897B" stroke="#A3897B" stroke-width="0.4483" stroke-linecap="round" stroke-linejoin="round" stroke-miterlimit="10" width="6.195" height="7.926"/>
		
			<rect x="86.991" y="135.896" fill="#A3897B" stroke="#A3897B" stroke-width="0.4483" stroke-linecap="round" stroke-linejoin="round" stroke-miterlimit="10" width="6.195" height="7.926"/>
		
			<rect x="20.425" y="13.536" fill="#634E42" stroke="#634E42" stroke-width="0.1996" stroke-miterlimit="10" width="42.685" height="38.688"/>
		
			<rect x="43.833" y="2.968" fill="#7B6A58" stroke="#7B6A58" stroke-width="0.2823" stroke-miterlimit="10" width="12.102" height="22.344"/>
		
			<rect x="79.286" y="145.261" fill="#877366" stroke="#877366" stroke-width="0.4483" stroke-linecap="round" stroke-linejoin="round" stroke-miterlimit="10" width="6.948" height="33.817"/>
	</g>
	<g>
		<polygon fill="#F49F97" stroke="#F49F97" stroke-width="0.2341" stroke-miterlimit="10" points="320.256,179.201 226.881,179.201 
			226.881,127.935 273.568,94.906 320.256,127.935 		"/>
		
			<polygon opacity="0.7" fill="#E7827E" stroke="#E7827E" stroke-width="0.2341" stroke-miterlimit="10" enable-background="new    " points="
			273.568,179.201 226.881,179.201 226.881,127.935 273.568,94.906 		"/>
		
			<rect x="237.581" y="150.136" fill="#A24A47" stroke="#A24A47" stroke-width="0.3352" stroke-linecap="round" stroke-linejoin="round" stroke-miterlimit="10" width="7.554" height="9.658"/>
		
			<rect x="237.581" y="138.72" fill="#A24A47" stroke="#A24A47" stroke-width="0.3352" stroke-linecap="round" stroke-linejoin="round" stroke-miterlimit="10" width="7.554" height="9.66"/>
		
			<rect x="246.972" y="138.72" fill="#A24A47" stroke="#A24A47" stroke-width="0.3352" stroke-linecap="round" stroke-linejoin="round" stroke-miterlimit="10" width="7.553" height="9.66"/>
		
			<rect x="246.972" y="150.136" fill="#A24A47" stroke="#A24A47" stroke-width="0.3352" stroke-linecap="round" stroke-linejoin="round" stroke-miterlimit="10" width="7.553" height="9.658"/>
		
			<rect x="265.36" y="150.136" fill="#A24A47" stroke="#A24A47" stroke-width="0.3352" stroke-linecap="round" stroke-linejoin="round" stroke-miterlimit="10" width="7.558" height="9.658"/>
		
			<rect x="265.36" y="138.72" fill="#A24A47" stroke="#A24A47" stroke-width="0.3352" stroke-linecap="round" stroke-linejoin="round" stroke-miterlimit="10" width="7.558" height="9.66"/>
		
			<rect x="274.752" y="138.72" fill="#B66059" stroke="#B66059" stroke-width="0.3352" stroke-linecap="round" stroke-linejoin="round" stroke-miterlimit="10" width="7.555" height="9.66"/>
		
			<rect x="274.752" y="150.136" fill="#B66059" stroke="#B66059" stroke-width="0.3352" stroke-linecap="round" stroke-linejoin="round" stroke-miterlimit="10" width="7.555" height="9.658"/>
		
			<rect x="291.135" y="138.72" fill="#B66059" stroke="#B66059" stroke-width="0.3352" stroke-linecap="round" stroke-linejoin="round" stroke-miterlimit="10" width="16.943" height="40.481"/>
		
			<rect x="291.135" y="138.72" fill="#A24A47" stroke="#A24A47" stroke-width="0.3352" stroke-linecap="round" stroke-linejoin="round" stroke-miterlimit="10" width="8.472" height="40.481"/>
		
			<polyline fill="none" stroke="#634E42" stroke-width="5.9543" stroke-linecap="round" stroke-linejoin="round" stroke-miterlimit="10" points="
			224.598,129.728 273.568,94.906 323.08,129.728 		"/>
		
			<circle fill="#B66059" stroke="#B66059" stroke-width="0.3352" stroke-linecap="round" stroke-linejoin="round" stroke-miterlimit="10" cx="273.839" cy="116.762" r="6.971"/>
		
			<path fill="#A24A47" stroke="#A24A47" stroke-width="0.3352" stroke-linecap="round" stroke-linejoin="round" stroke-miterlimit="10" d="
			M273.839,123.729c-3.853,0-6.971-3.119-6.971-6.967c0-3.852,3.118-6.972,6.971-6.972V123.729z"/>
		
			<polygon fill="#634E42" stroke="#634E42" stroke-width="1.3232" stroke-linecap="round" stroke-linejoin="round" stroke-miterlimit="10" points="
			252.89,109.794 241.054,117.916 241.054,101.675 252.89,101.675 		"/>
	</g>
	<g>
		
			<rect x="130.823" y="90.976" fill="#EDEDED" stroke="#EDEDED" stroke-width="0.6537" stroke-miterlimit="10" width="79.394" height="88.489"/>
		
			<rect x="130.823" y="54.998" fill="#575756" stroke="#575756" stroke-width="0.2626" stroke-miterlimit="10" width="79.394" height="35.978"/>
		
			<rect x="130.823" y="54.998" fill="#3C3C3B" stroke="#634E42" stroke-width="0.2626" stroke-miterlimit="10" width="39.695" height="36.069"/>
		
			<rect x="152.593" y="45.169" fill="#575756" stroke="#575756" stroke-width="0.2626" stroke-miterlimit="10" width="11.253" height="20.779"/>
		
			<rect x="130.823" y="91.172" fill="#E2E1E1" stroke="#E2E1E1" stroke-width="0.6537" stroke-miterlimit="10" width="39.695" height="88.293"/>
		<path fill="#A3897B" stroke="#A3897B" stroke-width="0.2993" stroke-miterlimit="10" d="M142.519,158.347"/>
		<path fill="#C5E0EC" d="M148.542,133.325"/>
		<path fill="#A3897B" stroke="#A3897B" stroke-width="0.2993" stroke-miterlimit="10" d="M147.952,158.241"/>
		<path fill="#A3897B" stroke="#A3897B" stroke-width="0.2993" stroke-miterlimit="10" d="M161.875,158.347"/>
		<path fill="#C5E0EC" d="M167.897,133.325"/>
		<path fill="#A3897B" stroke="#A3897B" stroke-width="0.2993" stroke-miterlimit="10" d="M167.309,158.241"/>
		<g>
			<g>
				
					<rect x="142.546" y="117.933" fill="#366986" stroke="#366986" stroke-width="0.6537" stroke-miterlimit="10" width="5.765" height="7.369"/>
				
					<rect x="142.546" y="109.222" fill="#366986" stroke="#366986" stroke-width="0.6537" stroke-miterlimit="10" width="5.765" height="7.37"/>
				
					<rect x="149.71" y="109.222" fill="#366986" stroke="#366986" stroke-width="0.6537" stroke-miterlimit="10" width="5.766" height="7.37"/>
				
					<rect x="149.71" y="117.933" fill="#366986" stroke="#366986" stroke-width="0.6537" stroke-miterlimit="10" width="5.766" height="7.369"/>
			</g>
			<g>
				
					<rect x="142.546" y="148.017" fill="#366986" stroke="#366986" stroke-width="0.6537" stroke-miterlimit="10" width="5.765" height="7.369"/>
				
					<rect x="142.546" y="139.308" fill="#366986" stroke="#366986" stroke-width="0.6537" stroke-miterlimit="10" width="5.765" height="7.369"/>
				
					<rect x="149.71" y="139.308" fill="#366986" stroke="#366986" stroke-width="0.6537" stroke-miterlimit="10" width="5.766" height="7.369"/>
				
					<rect x="149.71" y="148.017" fill="#366986" stroke="#366986" stroke-width="0.6537" stroke-miterlimit="10" width="5.766" height="7.369"/>
			</g>
		</g>
		
			<rect x="164.054" y="117.933" fill="#366986" stroke="#366986" stroke-width="0.6537" stroke-miterlimit="10" width="5.764" height="7.369"/>
		
			<rect x="164.054" y="109.222" fill="#366986" stroke="#366986" stroke-width="0.6537" stroke-miterlimit="10" width="5.764" height="7.37"/>
		
			<rect x="171.219" y="109.222" fill="#4B86AD" stroke="#4B86AD" stroke-width="0.6537" stroke-miterlimit="10" width="5.764" height="7.37"/>
		
			<rect x="171.219" y="117.933" fill="#4B86AD" stroke="#4B86AD" stroke-width="0.6537" stroke-miterlimit="10" width="5.764" height="7.369"/>
		
			<rect x="164.054" y="148.017" fill="#366986" stroke="#366986" stroke-width="0.6537" stroke-miterlimit="10" width="5.764" height="7.369"/>
		
			<rect x="164.054" y="139.308" fill="#366986" stroke="#366986" stroke-width="0.6537" stroke-miterlimit="10" width="5.764" height="7.369"/>
		
			<rect x="171.219" y="139.308" fill="#4B86AD" stroke="#4B86AD" stroke-width="0.6537" stroke-miterlimit="10" width="5.764" height="7.369"/>
		
			<rect x="171.219" y="148.017" fill="#4B86AD" stroke="#4B86AD" stroke-width="0.6537" stroke-miterlimit="10" width="5.764" height="7.369"/>
		<g>
			
				<rect x="185.563" y="117.933" fill="#4B86AD" stroke="#4B86AD" stroke-width="0.6537" stroke-miterlimit="10" width="5.767" height="7.369"/>
			
				<rect x="185.563" y="109.222" fill="#4B86AD" stroke="#4B86AD" stroke-width="0.6537" stroke-miterlimit="10" width="5.767" height="7.37"/>
			
				<rect x="192.728" y="109.222" fill="#4B86AD" stroke="#4B86AD" stroke-width="0.6537" stroke-miterlimit="10" width="5.766" height="7.37"/>
			
				<rect x="192.728" y="117.933" fill="#4B86AD" stroke="#4B86AD" stroke-width="0.6537" stroke-miterlimit="10" width="5.766" height="7.369"/>
		</g>
		
			<rect x="185.563" y="139.308" fill="#4B86AD" stroke="#4B86AD" stroke-width="0.6537" stroke-miterlimit="10" width="5.767" height="7.369"/>
		
			<rect x="192.728" y="139.308" fill="#4B86AD" stroke="#4B86AD" stroke-width="0.6537" stroke-miterlimit="10" width="5.766" height="7.369"/>
		
			<rect x="185.563" y="148.017" fill="#4B86AD" stroke="#4B86AD" stroke-width="0.6537" stroke-miterlimit="10" width="5.767" height="7.369"/>
		
			<rect x="192.728" y="148.017" fill="#4B86AD" stroke="#4B86AD" stroke-width="0.6537" stroke-miterlimit="10" width="5.766" height="7.369"/>
	</g>
</g>
<g id="Träd">
	<rect x="669.408" y="139.894" fill="#AF7F48" width="2.508" height="12.131"/>
	<rect x="670.661" y="139.894" fill="#905E35" width="1.255" height="12.131"/>
	
		<path fill="#53AF6F" stroke="#53AF6F" stroke-width="0.0382" stroke-linecap="round" stroke-linejoin="round" stroke-miterlimit="10" d="
		M658.081,130.199c0-3.276,2.656-5.935,5.935-5.935c0.621,0,1.22,0.094,1.782,0.271c0.198-3.098,2.772-5.551,5.921-5.551
		c3.277,0,5.935,2.658,5.935,5.936c0,0.664-0.109,1.301-0.311,1.896c3.263,0.019,5.9,2.668,5.9,5.934
		c0,3.279-2.655,5.936-5.936,5.936c-1.098,0-2.126-0.299-3.009-0.818c-1.071,1.542-2.854,2.551-4.875,2.551
		c-2.707,0-4.99-1.812-5.703-4.291C660.58,135.974,658.081,133.379,658.081,130.199z"/>
	
		<path fill="#45A260" stroke="#45A260" stroke-width="0.0382" stroke-linecap="round" stroke-linejoin="round" stroke-miterlimit="10" d="
		M671.719,118.987c3.277,0,5.935,2.656,5.935,5.935c0,0.664-0.109,1.302-0.311,1.897c3.263,0.018,5.9,2.666,5.9,5.933
		c0,3.278-2.655,5.937-5.936,5.937c-1.098,0-2.126-0.299-3.009-0.819c-0.847,1.218-2.138,2.104-3.638,2.422c0,0,0-21.082,0-21.209
		C671.047,118.972,671.719,118.987,671.719,118.987z"/>
</g>
<g id="Träd_2_">
	<rect x="646.934" y="138.215" fill="#AF7F48" width="2.854" height="13.812"/>
	<rect x="648.36" y="138.215" fill="#905E35" width="1.428" height="13.812"/>
	
		<path fill="#53AF6F" stroke="#53AF6F" stroke-width="0.0435" stroke-linecap="round" stroke-linejoin="round" stroke-miterlimit="10" d="
		M634.036,127.179c0-3.73,3.024-6.756,6.757-6.756c0.706,0,1.389,0.107,2.028,0.311c0.227-3.526,3.156-6.317,6.74-6.317
		c3.731,0,6.756,3.024,6.756,6.757c0,0.756-0.125,1.479-0.354,2.158c3.714,0.021,6.719,3.037,6.719,6.755
		c0,3.731-3.024,6.757-6.757,6.757c-1.251,0-2.422-0.34-3.426-0.933c-1.222,1.756-3.251,2.903-5.551,2.903
		c-3.083,0-5.682-2.063-6.492-4.887C636.883,133.752,634.036,130.798,634.036,127.179z"/>
	
		<path fill="#45A260" stroke="#45A260" stroke-width="0.0435" stroke-linecap="round" stroke-linejoin="round" stroke-miterlimit="10" d="
		M649.563,114.415c3.732,0,6.756,3.025,6.756,6.757c0,0.755-0.125,1.479-0.354,2.158c3.714,0.021,6.719,3.037,6.719,6.755
		c0,3.732-3.024,6.757-6.757,6.757c-1.251,0-2.421-0.34-3.425-0.933c-0.966,1.387-2.436,2.395-4.143,2.758c0,0,0-24.001,0-24.146
		C648.798,114.396,649.563,114.415,649.563,114.415z"/>
</g>
<g id="Träd_3_">
	<rect x="365.299" y="121.226" fill="#AF7F48" width="1.517" height="7.34"/>
	<rect x="366.057" y="121.226" fill="#905E35" width="0.758" height="7.34"/>
	
		<path fill="#53AF6F" stroke="#53AF6F" stroke-width="0.0207" stroke-linecap="round" stroke-linejoin="round" stroke-miterlimit="10" d="
		M358.445,115.36c0-1.982,1.608-3.59,3.592-3.59c0.375,0,0.737,0.058,1.077,0.164c0.121-1.875,1.679-3.358,3.583-3.358
		c1.983,0,3.592,1.608,3.592,3.59c0,0.401-0.066,0.787-0.188,1.147c1.975,0.012,3.57,1.615,3.57,3.59
		c0,1.984-1.608,3.592-3.591,3.592c-0.665,0-1.287-0.182-1.821-0.495c-0.649,0.933-1.729,1.543-2.95,1.543
		c-1.638,0-3.019-1.099-3.451-2.599C359.957,118.854,358.445,117.284,358.445,115.36z"/>
	
		<path fill="#45A260" stroke="#45A260" stroke-width="0.0207" stroke-linecap="round" stroke-linejoin="round" stroke-miterlimit="10" d="
		M366.696,108.577c1.983,0,3.592,1.608,3.592,3.59c0,0.402-0.066,0.787-0.188,1.146c1.975,0.013,3.57,1.615,3.57,3.592
		c0,1.984-1.608,3.591-3.591,3.591c-0.665,0-1.287-0.183-1.821-0.495c-0.512,0.736-1.293,1.271-2.201,1.465c0,0,0-12.755,0-12.833
		C366.289,108.566,366.696,108.577,366.696,108.577z"/>
</g>
<g id="Träd_9_">
	<rect x="343.737" y="119.097" fill="#AF7F48" width="1.518" height="7.34"/>
	<rect x="344.495" y="119.097" fill="#905E35" width="0.759" height="7.34"/>
	
		<path fill="#53AF6F" stroke="#53AF6F" stroke-width="0.0207" stroke-linecap="round" stroke-linejoin="round" stroke-miterlimit="10" d="
		M336.884,113.229c0-1.981,1.608-3.59,3.591-3.59c0.375,0,0.738,0.059,1.078,0.164c0.121-1.874,1.679-3.356,3.583-3.356
		c1.983,0,3.591,1.607,3.591,3.591c0,0.4-0.066,0.787-0.188,1.146c1.974,0.012,3.569,1.614,3.569,3.59
		c0,1.984-1.607,3.592-3.591,3.592c-0.665,0-1.287-0.182-1.821-0.495c-0.648,0.933-1.728,1.543-2.949,1.543
		c-1.639,0-3.02-1.099-3.451-2.599C338.395,116.726,336.884,115.153,336.884,113.229z"/>
	
		<path fill="#45A260" stroke="#45A260" stroke-width="0.0207" stroke-linecap="round" stroke-linejoin="round" stroke-miterlimit="10" d="
		M345.135,106.447c1.983,0,3.591,1.607,3.591,3.591c0,0.4-0.066,0.787-0.188,1.146c1.974,0.012,3.569,1.614,3.569,3.59
		c0,1.984-1.607,3.592-3.591,3.592c-0.665,0-1.287-0.182-1.821-0.495c-0.512,0.735-1.293,1.272-2.2,1.465c0,0,0-12.755,0-12.833
		C344.728,106.437,345.135,106.447,345.135,106.447z"/>
</g>
<g>
	
		<rect x="483.823" y="103.035" fill="#ECECED" stroke="#ECECED" stroke-width="0.2633" stroke-miterlimit="10" width="3.658" height="84.278"/>
	
		<rect x="483.823" y="103.035" fill="#D8D9DA" stroke="#D8D9DA" stroke-width="0.2633" stroke-miterlimit="10" width="1.829" height="84.278"/>
	<rect x="472.104" y="69.439" fill="#36A862" width="27.1" height="6.666"/>
	<rect x="472.104" y="69.439" fill="#FFFFFF" width="27.1" height="33.596"/>
	<polygon fill="#F5F5F6" points="499.202,103.035 472.104,103.035 472.104,69.439 	"/>
	<g>
		
			<path fill="#58585A" stroke="#58585A" stroke-width="0.2185" stroke-linecap="round" stroke-linejoin="round" stroke-miterlimit="10" d="
			M478.446,88.586l-0.007-4.801c0.706,0.022,1.238,0.119,1.598,0.29c0.36,0.17,0.54,0.426,0.54,0.765
			c0,0.339-0.096,0.591-0.287,0.755c-0.19,0.163-0.423,0.264-0.695,0.3c0.358,0.032,0.666,0.157,0.918,0.376
			c0.253,0.219,0.38,0.539,0.38,0.96s-0.208,0.751-0.625,0.989C479.849,88.459,479.241,88.581,478.446,88.586z M480.323,84.837
			c0-0.256-0.146-0.451-0.437-0.588c-0.292-0.137-0.69-0.205-1.195-0.205v1.734C479.78,85.766,480.323,85.451,480.323,84.837z
			 M480.638,87.192c0-0.237-0.066-0.435-0.198-0.594c-0.132-0.16-0.31-0.273-0.533-0.342c-0.373-0.123-0.774-0.185-1.208-0.185
			v2.254c0.369-0.005,0.688-0.047,0.956-0.127c0.27-0.079,0.472-0.181,0.607-0.304C480.512,87.663,480.638,87.429,480.638,87.192z"
			/>
		
			<path fill="#58585A" stroke="#58585A" stroke-width="0.2185" stroke-linecap="round" stroke-linejoin="round" stroke-miterlimit="10" d="
			M481.825,85.15l-0.007,1.804c0,0.382,0.092,0.716,0.276,1c0.184,0.284,0.413,0.427,0.688,0.427s0.579-0.189,0.911-0.566V85.15
			h0.253v3.415h-0.253v-0.41c-0.296,0.319-0.616,0.478-0.963,0.478c-0.23,0-0.471-0.108-0.717-0.327
			c-0.132-0.119-0.24-0.294-0.324-0.525c-0.084-0.232-0.126-0.506-0.126-0.82l0.006-1.81L481.825,85.15L481.825,85.15z"/>
		
			<path fill="#58585A" stroke="#58585A" stroke-width="0.2185" stroke-linecap="round" stroke-linejoin="round" stroke-miterlimit="10" d="
			M486.029,88.217c0.276-0.073,0.468-0.166,0.574-0.28c0.107-0.113,0.161-0.267,0.161-0.461c0-0.193-0.073-0.345-0.22-0.454
			c-0.146-0.109-0.321-0.18-0.528-0.212c-0.208-0.031-0.414-0.067-0.622-0.105c-0.207-0.038-0.384-0.124-0.529-0.256
			c-0.146-0.133-0.218-0.323-0.218-0.574c0-0.527,0.409-0.792,1.229-0.792c0.301,0,0.647,0.032,1.045,0.096v0.267
			c-0.409-0.073-0.753-0.109-1.031-0.109c-0.277,0-0.513,0.039-0.707,0.119c-0.193,0.08-0.29,0.214-0.29,0.403
			s0.073,0.335,0.219,0.437c0.146,0.103,0.322,0.174,0.529,0.212c0.207,0.039,0.415,0.083,0.625,0.134
			c0.21,0.05,0.387,0.148,0.532,0.297c0.146,0.147,0.219,0.355,0.219,0.625c0,0.332-0.13,0.571-0.389,0.717
			c-0.128,0.073-0.251,0.131-0.369,0.174c-0.118,0.044-0.275,0.072-0.473,0.086c-0.31,0.027-0.604,0.04-0.888,0.04h-0.171v-0.252
			C485.321,88.326,485.754,88.29,486.029,88.217z"/>
		
			<path fill="#58585A" stroke="#58585A" stroke-width="0.2185" stroke-linecap="round" stroke-linejoin="round" stroke-miterlimit="10" d="
			M488.849,88.217c0.276-0.073,0.468-0.166,0.574-0.28c0.106-0.113,0.161-0.267,0.161-0.461c0-0.193-0.073-0.345-0.221-0.454
			c-0.146-0.109-0.32-0.18-0.527-0.212c-0.207-0.031-0.414-0.067-0.621-0.105c-0.208-0.038-0.385-0.124-0.529-0.256
			c-0.146-0.133-0.219-0.323-0.219-0.574c0-0.527,0.41-0.792,1.229-0.792c0.301,0,0.649,0.032,1.045,0.096v0.267
			c-0.41-0.073-0.753-0.109-1.03-0.109s-0.515,0.039-0.707,0.119c-0.193,0.08-0.29,0.214-0.29,0.403s0.072,0.335,0.22,0.437
			c0.145,0.103,0.321,0.174,0.529,0.212c0.206,0.039,0.414,0.083,0.624,0.134c0.209,0.05,0.387,0.148,0.531,0.297
			c0.146,0.147,0.22,0.355,0.22,0.625c0,0.332-0.131,0.571-0.39,0.717c-0.128,0.073-0.251,0.131-0.369,0.174
			c-0.118,0.044-0.274,0.072-0.472,0.086c-0.309,0.027-0.604,0.04-0.887,0.04h-0.171v-0.252
			C488.141,88.326,488.573,88.29,488.849,88.217z"/>
		
			<path fill="#58585A" stroke="#58585A" stroke-width="0.2185" stroke-linecap="round" stroke-linejoin="round" stroke-miterlimit="10" d="
			M492.867,88.565h-0.26v-4.398l-1.023,0.465v-0.253l1.283-0.594V88.565z"/>
	</g>
	<rect x="472.104" y="69.439" fill="#36A862" width="27.1" height="6.666"/>
	<rect x="472.104" y="98.987" fill="#36A862" width="27.1" height="4.048"/>
	<polygon fill="#2F9859" points="477.481,76.105 472.104,76.105 472.104,69.439 472.104,69.439 	"/>
	<polygon fill="#2F9859" points="499.202,103.035 472.104,103.035 472.104,98.987 495.938,98.987 	"/>
</g>
</svg>
