<?xml version="1.0" encoding="utf-8"?>
<!-- Generator: Adobe Illustrator 15.0.2, SVG Export Plug-In . SVG Version: 6.00 Build 0)  -->
<!DOCTYPE svg PUBLIC "-//W3C//DTD SVG 1.1//EN" "http://www.w3.org/Graphics/SVG/1.1/DTD/svg11.dtd">
<svg version="1.1" id="Lager_1" xmlns="http://www.w3.org/2000/svg" xmlns:xlink="http://www.w3.org/1999/xlink" x="0px" y="0px"
	 width="841.891px" height="220.873px" viewBox="0 0 841.891 220.873" enable-background="new 0 0 841.891 220.873"
	 xml:space="preserve">
<path fill="#AED8EA" d="M441.249,156.256l-74.174-0.833H24.144l-25.109-0.458V14.139h12.59v21.312h21.406V9.058h26.226v26.573
	h15.686V2.093h40.438v33.538h14.405V25.287h32.012v32.792h18.407V41.684h27.21V58.08h9.204V23.688h28.011V58.08h12.806L267.837,0
	l10.404,58.079h11.205V10.491h40.015v47.588h12.806V47.682h32.165v32.964h20.182V67.467h27.037v19.342
	c4.001,0.142,20.598,0,20.598,0v-31.25h40.227v99.406L441.249,156.256z"/>
<polygon opacity="0.7" fill="#5BB5D0" enable-background="new    " points="441.65,135.162 383.342,135.304 -1.167,135.304 
	-1.167,72.233 32.499,72.233 32.499,95.219 53.517,95.219 53.517,56.41 99.931,56.41 99.931,95.219 118.555,95.219 118.555,80.218 
	154.63,80.218 154.63,95.219 168.303,95.219 168.303,75.813 205.853,75.813 205.853,89.485 227.543,89.485 227.543,78.333 
	256.222,78.333 256.222,89.485 271.945,89.485 271.945,70.608 306.489,70.608 306.489,81.779 321.762,81.779 321.762,66.512 
	343.096,66.512 343.096,95.856 348.431,95.856 348.431,86.687 368.311,86.687 368.311,102.228 375.163,102.228 375.163,95.856 
	389.582,95.856 389.582,107.508 400.796,107.508 400.796,87.018 414.146,87.018 414.146,99.702 422.156,99.702 422.156,106.421 
	431.633,106.421 431.633,98.302 449.29,98.302 449.29,135.162 "/>
<path fill="#3B8655" stroke="#3B8655" stroke-width="0.5059" stroke-linecap="round" stroke-linejoin="round" stroke-miterlimit="10" d="
	M842.101,122.436c-27.21-4.951-35.166-15.871-60.777-11.87c-25.609,4.003-34.657,13.598-57.693,14.462l-0.244,0.273h-9.216
	c-20.341,0-37.002-17.458-52.353-26.663c-29.344-17.595-54.953-13.862-77.363-4.12c-27.489,11.952-41.331,17.914-64.008,15.233
	c-14.918-1.763-30.562-16.514-55.634-14.953c-25.641,1.596-50.368,26.815-86.649,32.323c0,0-17.074,2.604-37.348-1.82
	c-24.317-5.308-41.211-4.466-75.458,0.707c-47.137,7.122-54.244,10.42-81.455,5.469c-27.21-4.953-36.814-16.156-62.424-12.153
	c-25.61,4.002-48.363,10.271-71.4,11.136c-23.036,0.864-50.996-0.676-50.996-0.676l-0.052,76.418h0.052h843.019"/>
<path fill="#4CB37F" d="M841.891,148.856c-9.146,0.143-17.891-1.062-28.609-2.172c-14.524-1.504-39.878-12.084-65.492-10.688
	c-25.479,1.391-38.41,13.408-66.851,16.08h-40.944c-20.339,0-37.001-8.124-52.351-17.329c-29.345-17.595-54.954-13.862-77.362-4.121
	c-27.493,11.953-41.333,17.915-64.009,15.233c-14.526-1.717-39.878-13.793-65.491-12.198c-25.64,1.596-38.565,15.483-67.376,18.415
	H-0.965v68.796h791.05h52.017"/>
<g>
	<rect x="591.505" y="57.021" fill="#F6F5F6" width="94.705" height="122.18"/>
	<rect x="591.398" y="46.929" fill="#D3D3D5" width="2.2" height="10.474"/>
	<rect x="614.552" y="46.929" fill="#D3D3D5" width="2.197" height="10.474"/>
	<g>
		<rect x="637.758" y="46.929" fill="#D3D3D5" width="1.101" height="10.474"/>
		<rect x="638.858" y="46.929" fill="#F6F5F6" width="1.099" height="10.474"/>
	</g>
	<rect x="638.858" y="46.539" fill="#F6F5F6" width="47.352" height="2.199"/>
	<rect x="591.398" y="46.539" fill="#D3D3D5" width="47.46" height="2.199"/>
	<rect x="660.858" y="46.929" fill="#F6F5F6" width="2.2" height="10.474"/>
	<rect x="684.012" y="46.929" fill="#F6F5F6" width="2.197" height="10.474"/>
	<rect x="591.505" y="57.021" fill="#D3D3D5" width="47.354" height="122.18"/>
</g>
<g>
	<path fill="#6F7072" stroke="#6F7072" stroke-width="0.6058" stroke-miterlimit="10" d="M600.82,100.182
		c-6.605-17.955-25.205-30.89-47.119-30.89s-40.515,12.936-47.118,30.89H600.82z"/>
	<path fill="#58585A" stroke="#58585A" stroke-width="0.6058" stroke-linecap="round" stroke-miterlimit="10" d="M553.678,100.182
		h-47.095c6.603-17.955,25.204-30.89,47.118-30.89L553.678,100.182z"/>
	<rect x="506.349" y="100.226" fill="#F6F5F6" width="94.705" height="78.976"/>
	<rect x="506.349" y="100.226" fill="#D3D3D5" width="47.353" height="78.976"/>
</g>
<g>
	<rect x="660.976" y="123.492" fill="#F6F5F6" width="141.037" height="55.709"/>
	<rect x="660.976" y="123.492" fill="#D3D3D5" width="70.521" height="55.709"/>
	<g>
		<path fill="#67A39E" stroke="#67A39E" stroke-width="1.0525" stroke-linejoin="round" stroke-miterlimit="10" d="M661.272,123.106
			c-0.045-0.221,0.066-0.438,0.271-0.527l69.732-30.612c0.12-0.054,0.258-0.054,0.376,0l69.732,30.612
			c0.206,0.087,0.319,0.307,0.273,0.527H661.272z"/>
	</g>
	<g>
		<g>
			<path fill="#4A8D85" d="M731.465,123.106h-70.192c-0.045-0.221,0.066-0.438,0.271-0.527l69.732-30.612"/>
			<path fill="#4A8D85" d="M731.465,123.51h-70.192c-0.192,0-0.357-0.134-0.396-0.32c-0.084-0.401,0.129-0.815,0.505-0.979
				l69.733-30.615c0.025-0.009,0.05-0.018,0.079-0.023l0.271-0.041V123.51z M662.264,122.703h68.799V92.5L662.264,122.703z"/>
		</g>
	</g>
</g>
</svg>
