<?xml version="1.0" encoding="utf-8"?>
<!-- Generator: Adobe Illustrator 15.0.2, SVG Export Plug-In . SVG Version: 6.00 Build 0)  -->
<!DOCTYPE svg PUBLIC "-//W3C//DTD SVG 1.1//EN" "http://www.w3.org/Graphics/SVG/1.1/DTD/svg11.dtd">
<svg version="1.1" id="Lager_1" xmlns="http://www.w3.org/2000/svg" xmlns:xlink="http://www.w3.org/1999/xlink" x="0px" y="0px"
	 width="841.891px" height="220.873px" viewBox="0 0 841.891 220.873" enable-background="new 0 0 841.891 220.873"
	 xml:space="preserve">
<g id="Höna_1_">
	<g>
		<path fill="#F7B234" d="M769.259,84.435c0.281-0.282,0.739-0.282,1.021,0l5.132,5.132c0.282,0.281,0.281,0.738,0,1.02
			s-0.738,0.282-1.02,0l-5.132-5.132C768.978,85.173,768.978,84.716,769.259,84.435z"/>
		<path fill="#F7B234" d="M768.971,81.665c0.121-0.121,0.284-0.199,0.469-0.209c0.398-0.023,0.738,0.281,0.761,0.678l0.21,3.691
			l-3.228-0.332l-2.409,2.409c-0.281,0.282-0.738,0.282-1.021,0c-0.281-0.281-0.281-0.738,0.001-1.02l2.894-2.894l2.227,0.229
			l-0.113-2.001C768.748,82.002,768.831,81.806,768.971,81.665z"/>
		<path fill="#BE3928" d="M787.046,115.332c-1.257-0.307-2.462,0.207-2.69,1.146c-0.064,0.267-0.042,0.538,0.049,0.798
			c-0.039-0.012-0.077-0.023-0.116-0.034c-1.258-0.305-2.443,0.131-2.648,0.974c-0.205,0.844,0.648,1.775,1.905,2.082
			c1.258,0.306,2.444-0.131,2.648-0.973c0.049-0.2,0.037-0.404-0.025-0.604c0.018,0.005,0.033,0.01,0.051,0.014
			c1.258,0.306,2.462-0.208,2.69-1.146C789.138,116.647,788.305,115.637,787.046,115.332z"/>
		<g>
			<polyline fill="#F8B518" stroke="#F8B518" stroke-width="0.1561" stroke-miterlimit="10" points="781.198,118.328 
				777.574,118.581 779.439,116.061 			"/>
		</g>
		<g>
			<path fill="#BE3928" d="M775.503,112.688c-0.239,1.642,1.311,2.246,1.311,2.246l2.651,1.191l-0.379-2.882
				c0,0-0.133-1.658-1.774-1.9c-0.7-0.058-1.166,0.319-1.166,0.319S775.651,112.001,775.503,112.688z"/>
		</g>
		<path fill="#C79C63" stroke="#C79C63" stroke-width="1.1776" stroke-miterlimit="10" d="M779.37,115.652
			c0.119,2.805,3.281,4.027,6.339,1.071c3.059-2.957,2.345-9.482,2.651-12.439c0.307-2.958,0.664-6.236,2.09-7.46
			c1.428-1.224,3.314-0.901,8.463-1.462c5.149-0.561,4.18-3.84,4.18-3.84c-0.339-2.107-2.854-2.686-2.854-2.686
			c1.292-1.869,0.356-4.64-3.722-3.925c-0.629-5.082-5.182-2.295-5.182-2.295c-0.205-0.883-2.108-4.282-5.166-0.815
			c-1.53,1.732-2.939,1.785-5.778,2.787c-4.52,1.597-7.372,4.354-7.372,4.354c-12.038,11.099,4.517,21.884,4.517,21.884
			C779.337,111.981,779.285,113.63,779.37,115.652z"/>
		<path fill="#A57A42" stroke="#A57A42" stroke-width="1.1776" stroke-miterlimit="10" d="M785.452,105.9
			c-2.005-1.054-3.263,1.086-3.263,1.086s-2.006-0.509-2.549,1.666c-2.855,0.34-2.174,2.242-2.174,2.242
			c1.801,1.156,1.749,2.805,1.835,4.826c0.117,2.806,3.279,4.028,6.338,1.071s2.396-7.631,2.701-10.587
			C788.341,106.205,787.424,103.724,785.452,105.9z"/>
		<circle fill="#1D1D1B" cx="781.631" cy="117.347" r="0.394"/>
	</g>
</g>
<g>
	<g>
		
			<rect x="653.757" y="77.107" transform="matrix(0.9532 0.3024 -0.3024 0.9532 56.6589 -194.2834)" fill="#8F5E35" width="3.964" height="17.445"/>
		
			<rect x="653.803" y="76.808" transform="matrix(0.9532 0.3025 -0.3025 0.9532 56.5361 -194.0375)" fill="#7F4D29" width="1.982" height="17.445"/>
	</g>
	
		<polygon fill="#46A260" stroke="#46A260" stroke-width="1.3344" stroke-linecap="round" stroke-linejoin="round" stroke-miterlimit="10" points="
		667.389,76.575 651.735,71.607 663.084,62.991 	"/>
	
		<polygon fill="#358656" stroke="#358656" stroke-width="1.3344" stroke-linecap="round" stroke-linejoin="round" stroke-miterlimit="10" points="
		651.735,71.607 663.084,62.991 659.562,74.091 	"/>
	
		<polygon fill="#46A260" stroke="#46A260" stroke-width="1.3344" stroke-linecap="round" stroke-linejoin="round" stroke-miterlimit="10" points="
		667.581,82.275 648.292,76.155 662.302,65.459 	"/>
	
		<polygon fill="#358656" stroke="#358656" stroke-width="1.3344" stroke-linecap="round" stroke-linejoin="round" stroke-miterlimit="10" points="
		648.292,76.155 662.302,65.459 657.937,79.215 	"/>
	
		<polygon fill="#46A260" stroke="#46A260" stroke-width="1.3344" stroke-linecap="round" stroke-linejoin="round" stroke-miterlimit="10" points="
		667.712,87.859 644.966,80.641 661.367,68.405 	"/>
	
		<polygon fill="#358656" stroke="#358656" stroke-width="1.3344" stroke-linecap="round" stroke-linejoin="round" stroke-miterlimit="10" points="
		644.966,80.641 661.367,68.405 656.34,84.25 	"/>
	
		<polygon fill="#46A260" stroke="#46A260" stroke-width="1.3344" stroke-linecap="round" stroke-linejoin="round" stroke-miterlimit="10" points="
		667.373,93.035 642.258,85.065 660.367,71.553 	"/>
	
		<polygon fill="#358656" stroke="#358656" stroke-width="1.3344" stroke-linecap="round" stroke-linejoin="round" stroke-miterlimit="10" points="
		642.258,85.065 660.367,71.553 654.815,89.05 	"/>
	
		<polygon fill="#46A260" stroke="#46A260" stroke-width="1.3344" stroke-linecap="round" stroke-linejoin="round" stroke-miterlimit="10" points="
		667.128,71.299 654.991,67.448 663.876,60.499 	"/>
	
		<polygon fill="#358656" stroke="#358656" stroke-width="1.3344" stroke-linecap="round" stroke-linejoin="round" stroke-miterlimit="10" points="
		654.991,67.448 663.876,60.499 661.06,69.374 	"/>
</g>
<g id="Träd_5_">
	
		<rect x="430.53" y="99.636" transform="matrix(0.979 -0.2039 0.2039 0.979 -12.6176 90.2844)" fill="#B18048" width="2.788" height="13.502"/>
	
		<rect x="430.543" y="99.778" transform="matrix(0.9789 -0.2042 0.2042 0.9789 -12.6662 90.294)" fill="#905E36" width="1.397" height="13.501"/>
	
		<path fill="#54B06F" stroke="#54B06F" stroke-width="0.0753" stroke-linecap="round" stroke-linejoin="round" stroke-miterlimit="10" d="
		M437.258,94.099c-0.216,2.862-2.291,5.357-5.242,5.971c-2.2,0.458-4.372-0.237-5.892-1.674c-0.843,0.768-1.896,1.327-3.093,1.576
		c-3.572,0.744-7.07-1.549-7.814-5.121c-0.741-3.558,1.533-7.044,5.085-7.806c-0.355-0.603-0.619-1.272-0.77-1.995
		c-0.744-3.571,1.547-7.07,5.121-7.814c3.431-0.714,6.792,1.374,7.711,4.704c0.573-0.32,1.203-0.559,1.881-0.7
		c3.572-0.744,7.069,1.549,7.812,5.12C442.78,89.824,440.645,93.219,437.258,94.099z"/>
	
		<path fill="#46A360" stroke="#46A360" stroke-width="0.0753" stroke-linecap="round" stroke-linejoin="round" stroke-miterlimit="10" d="
		M425.826,77.099c0.029,0.138,4.812,23.111,4.812,23.111c-1.707-0.007-3.314-0.679-4.514-1.814
		c-0.844,0.768-1.896,1.326-3.093,1.575c-3.573,0.744-7.071-1.548-7.815-5.12c-0.741-3.558,1.534-7.044,5.085-7.806
		c-0.354-0.603-0.619-1.272-0.77-1.995c-0.744-3.571,1.549-7.071,5.122-7.814C424.655,77.236,425.383,77.064,425.826,77.099z"/>
</g>
<g id="Träd_6_">
	<rect x="627.527" y="79.056" fill="#B18048" width="2.611" height="12.647"/>
	<rect x="627.526" y="79.056" fill="#905E36" width="1.308" height="12.647"/>
	
		<path fill="#54B06F" stroke="#54B06F" stroke-width="0.0753" stroke-linecap="round" stroke-linejoin="round" stroke-miterlimit="10" d="
		M636.071,75.13c-0.744,2.584-3.124,4.475-5.947,4.475c-2.105,0-3.965-1.053-5.083-2.661c-0.92,0.543-1.992,0.854-3.137,0.854
		c-3.419,0-6.188-2.77-6.188-6.188c0-3.404,2.751-6.167,6.153-6.187c-0.21-0.621-0.324-1.285-0.324-1.977
		c0-3.417,2.769-6.188,6.187-6.188c3.283,0,5.968,2.556,6.174,5.786c0.587-0.185,1.211-0.283,1.858-0.283
		c3.418,0,6.188,2.771,6.188,6.187C641.95,72.264,639.344,74.97,636.071,75.13z"/>
	
		<path fill="#46A360" stroke="#46A360" stroke-width="0.0753" stroke-linecap="round" stroke-linejoin="round" stroke-miterlimit="10" d="
		M628.833,57.357c0,0.132,0,22.113,0,22.113c-1.563-0.332-2.909-1.255-3.792-2.525c-0.921,0.543-1.992,0.854-3.137,0.854
		c-3.42,0-6.189-2.77-6.189-6.188c0-3.404,2.752-6.167,6.153-6.187c-0.209-0.621-0.324-1.285-0.324-1.977
		c0-3.417,2.771-6.188,6.188-6.188C627.732,57.259,628.433,57.241,628.833,57.357z"/>
</g>
<g id="Träd_1_">
	
		<rect x="413.3" y="102.258" transform="matrix(-0.9763 0.2163 -0.2163 -0.9763 843.1494 125.7292)" fill="#B18048" width="2.788" height="13.501"/>
	
		<rect x="414.676" y="102.107" transform="matrix(-0.9764 0.2161 -0.2161 -0.9764 844.4576 125.3735)" fill="#905E36" width="1.396" height="13.501"/>
	
		<path fill="#54B06F" stroke="#54B06F" stroke-width="0.0753" stroke-linecap="round" stroke-linejoin="round" stroke-miterlimit="10" d="
		M397.226,94.913c-0.789-3.562,1.457-7.088,5.02-7.877c0.675-0.15,1.347-0.191,2.001-0.134c-0.53-3.414,1.677-6.698,5.098-7.457
		c3.563-0.789,7.089,1.459,7.878,5.021c0.16,0.721,0.195,1.44,0.118,2.136c3.552-0.766,7.058,1.479,7.844,5.027
		c0.789,3.562-1.458,7.089-5.021,7.878c-1.192,0.265-2.383,0.188-3.466-0.166c-0.795,1.935-2.49,3.461-4.684,3.947
		c-2.942,0.652-5.86-0.77-7.232-3.291C401.333,100.587,397.991,98.368,397.226,94.913z"/>
	
		<path fill="#46A360" stroke="#46A360" stroke-width="0.0753" stroke-linecap="round" stroke-linejoin="round" stroke-miterlimit="10" d="
		M409.345,79.445c3.562-0.79,7.09,1.458,7.879,5.02c0.16,0.721,0.194,1.44,0.118,2.136c3.551-0.765,7.058,1.479,7.844,5.027
		c0.789,3.562-1.458,7.089-5.022,7.878c-1.193,0.265-2.382,0.188-3.466-0.166c-0.627,1.527-1.816,2.8-3.37,3.508
		c0,0-5.077-22.91-5.107-23.047C408.611,79.588,409.345,79.445,409.345,79.445z"/>
</g>
<g id="Träd_4_">
	<rect x="95.445" y="116.017" fill="#B18048" width="2.336" height="11.301"/>
	<rect x="95.445" y="116.017" fill="#905E36" width="1.172" height="11.301"/>
	
		<path fill="#54B06F" stroke="#54B06F" stroke-width="0.0223" stroke-linecap="round" stroke-linejoin="round" stroke-miterlimit="10" d="
		M108.336,106.983c0-3.055-2.479-5.529-5.531-5.529c-0.578,0-1.135,0.089-1.658,0.253c-0.186-2.886-2.586-5.169-5.518-5.169
		c-3.053,0-5.529,2.475-5.529,5.528c0,0.618,0.104,1.21,0.289,1.767c-3.039,0.018-5.498,2.485-5.498,5.528
		c0,3.056,2.479,5.529,5.529,5.529c1.021,0,1.979-0.279,2.805-0.764c0.998,1.438,2.66,2.377,4.543,2.377
		c2.521,0,4.648-1.689,5.312-3.998C106.008,112.362,108.336,109.944,108.336,106.983z"/>
	
		<path fill="#46A360" stroke="#46A360" stroke-width="0.0223" stroke-linecap="round" stroke-linejoin="round" stroke-miterlimit="10" d="
		M95.629,96.538c-3.054,0-5.529,2.475-5.529,5.528c0,0.618,0.104,1.21,0.289,1.767c-3.039,0.018-5.498,2.485-5.498,5.528
		c0,3.056,2.479,5.529,5.529,5.529c1.021,0,1.979-0.279,2.805-0.764c0.789,1.135,1.99,1.961,3.389,2.257c0,0,0-19.642,0-19.76
		C96.256,96.521,95.629,96.538,95.629,96.538z"/>
</g>
<g id="Träd_10_">
	<rect x="135.814" y="109.032" fill="#B18048" width="2.336" height="11.303"/>
	<rect x="135.814" y="109.032" fill="#905E36" width="1.168" height="11.303"/>
	
		<path fill="#54B06F" stroke="#54B06F" stroke-width="0.0223" stroke-linecap="round" stroke-linejoin="round" stroke-miterlimit="10" d="
		M148.702,100.002c0-3.056-2.477-5.53-5.528-5.53c-0.578,0-1.136,0.089-1.658,0.253c-0.187-2.885-2.586-5.169-5.518-5.169
		c-3.058,0-5.529,2.475-5.529,5.529c0,0.617,0.102,1.21,0.289,1.766c-3.039,0.018-5.498,2.486-5.498,5.529
		c0,3.055,2.477,5.528,5.528,5.528c1.021,0,1.98-0.278,2.804-0.764c1,1.438,2.662,2.377,4.543,2.377
		c2.521,0,4.649-1.688,5.312-3.998C146.377,105.381,148.702,102.963,148.702,100.002z"/>
	
		<path fill="#46A360" stroke="#46A360" stroke-width="0.0223" stroke-linecap="round" stroke-linejoin="round" stroke-miterlimit="10" d="
		M135.998,89.556c-3.058,0-5.529,2.475-5.529,5.529c0,0.617,0.102,1.21,0.289,1.766c-3.039,0.018-5.498,2.486-5.498,5.529
		c0,3.055,2.477,5.528,5.528,5.528c1.021,0,1.98-0.278,2.804-0.764c0.791,1.135,1.991,1.961,3.391,2.257c0,0,0-19.641,0-19.76
		C136.625,89.54,135.998,89.556,135.998,89.556z"/>
</g>
<path fill="#AFD8E6" stroke="#AFD8E6" stroke-width="0.0174" stroke-linecap="round" stroke-linejoin="round" stroke-miterlimit="10" d="
	M539.685,95.218c-0.453,0-0.887,0.069-1.295,0.197c-0.129-1.993-1.611-3.612-3.539-3.96c0-0.001,0-0.007,0-0.007
	c-0.279-0.08-0.769-0.067-0.769-0.067c-2.385,0-4.313,1.933-4.313,4.315c0,0.481,0.08,0.943,0.225,1.378
	c-2.37,0.014-4.289,1.938-4.289,4.313c0,2.385,1.935,4.315,4.314,4.315c0.799,0,1.547-0.218,2.188-0.596
	c0.138,0.196,0.295,0.377,0.463,0.549c0.037,0.038,0.072,0.076,0.111,0.114c0.17,0.159,0.353,0.311,0.543,0.441
	c0.031,0.021,0.064,0.039,0.101,0.061c0.178,0.113,0.36,0.214,0.557,0.301c0.004,0.003,0.006,0.006,0.012,0.008h-0.051v8.819h0.912
	h0.91v-8.438c1.963-0.006,3.619-1.322,4.135-3.12c2.285-0.11,4.104-1.999,4.104-4.311C543.997,97.151,542.068,95.218,539.685,95.218
	z"/>
<path fill="#AFD8E6" stroke="#AFD8E6" stroke-width="0.0174" stroke-linecap="round" stroke-linejoin="round" stroke-miterlimit="10" d="
	M351.136,108.332c-0.453,0-0.887,0.069-1.295,0.197c-0.129-1.993-1.611-3.612-3.539-3.96c0-0.001,0-0.007,0-0.007
	c-0.279-0.08-0.771-0.067-0.771-0.067c-2.383,0-4.312,1.933-4.312,4.315c0,0.481,0.08,0.943,0.225,1.378
	c-2.371,0.014-4.289,1.938-4.289,4.313c0,2.385,1.935,4.316,4.314,4.316c0.799,0,1.547-0.219,2.188-0.596
	c0.14,0.193,0.297,0.377,0.465,0.549c0.035,0.037,0.072,0.076,0.111,0.111c0.17,0.16,0.353,0.312,0.543,0.441
	c0.031,0.021,0.064,0.037,0.101,0.062c0.178,0.111,0.36,0.215,0.557,0.301c0.004,0.004,0.006,0.006,0.012,0.008h-0.051v8.82h0.912
	h0.91v-8.439c1.963-0.006,3.619-1.322,4.135-3.119c2.285-0.111,4.104-2,4.104-4.311C355.45,110.264,353.519,108.332,351.136,108.332
	z"/>
<path fill="#AFD8E6" stroke="#AFD8E6" stroke-width="0.0174" stroke-linecap="round" stroke-linejoin="round" stroke-miterlimit="10" d="
	M585.168,78.155c-0.453,0-0.89,0.068-1.298,0.196c-0.129-1.992-1.608-3.611-3.536-3.96c0-0.001,0-0.007,0-0.007
	c-0.279-0.08-0.771-0.066-0.771-0.066c-2.383,0-4.312,1.932-4.312,4.314c0,0.482,0.08,0.944,0.225,1.378
	c-2.371,0.015-4.289,1.938-4.289,4.314c0,2.384,1.932,4.314,4.314,4.314c0.799,0,1.547-0.218,2.188-0.596
	c0.137,0.197,0.295,0.377,0.463,0.549c0.037,0.038,0.074,0.076,0.113,0.114c0.17,0.16,0.35,0.312,0.543,0.442
	c0.031,0.021,0.064,0.039,0.098,0.06c0.181,0.114,0.363,0.214,0.56,0.301c0.004,0.003,0.006,0.006,0.012,0.008h-0.051v8.819h0.912
	h0.907v-8.438c1.966-0.007,3.619-1.322,4.138-3.12c2.285-0.111,4.102-1.999,4.102-4.312
	C589.482,80.085,587.551,78.155,585.168,78.155z"/>
<path fill="#AFD8E6" stroke="#AFD8E6" stroke-width="0.024" stroke-linecap="round" stroke-linejoin="round" stroke-miterlimit="10" d="
	M563.236,83.573c-0.621,0-1.221,0.096-1.781,0.271c-0.176-2.742-2.217-4.97-4.864-5.448c0-0.001,0-0.009,0-0.009
	c-0.388-0.11-1.06-0.093-1.06-0.093c-3.274,0-5.936,2.657-5.936,5.937c0,0.664,0.106,1.301,0.309,1.896
	c-3.262,0.019-5.9,2.668-5.9,5.936c0,3.279,2.656,5.938,5.938,5.938c1.101,0,2.127-0.299,3.01-0.819
	c0.188,0.271,0.406,0.52,0.637,0.755c0.054,0.054,0.104,0.105,0.156,0.157c0.232,0.221,0.48,0.428,0.746,0.609
	c0.043,0.028,0.09,0.054,0.133,0.082c0.246,0.156,0.5,0.294,0.769,0.413c0.006,0.004,0.01,0.009,0.018,0.011h-0.068v12.134h1.255
	h1.254V99.732c2.701-0.008,4.979-1.818,5.688-4.293c3.146-0.152,5.646-2.75,5.646-5.93C569.175,86.23,566.516,83.573,563.236,83.573
	z"/>
<path fill="#AFD8E6" stroke="#AFD8E6" stroke-width="0.024" stroke-linecap="round" stroke-linejoin="round" stroke-miterlimit="10" d="
	M326.236,99.192c-0.621,0-1.221,0.096-1.779,0.271c-0.178-2.742-2.219-4.97-4.866-5.448c0-0.001,0-0.009,0-0.009
	c-0.386-0.11-1.06-0.093-1.06-0.093c-3.274,0-5.936,2.657-5.936,5.937c0,0.664,0.108,1.301,0.309,1.896
	c-3.262,0.019-5.9,2.668-5.9,5.936c0,3.279,2.658,5.938,5.938,5.938c1.102,0,2.127-0.299,3.011-0.819
	c0.188,0.271,0.405,0.521,0.636,0.755c0.054,0.055,0.104,0.105,0.158,0.157c0.23,0.222,0.479,0.429,0.744,0.608
	c0.043,0.029,0.092,0.055,0.135,0.082c0.246,0.156,0.5,0.295,0.767,0.414c0.006,0.004,0.01,0.009,0.019,0.011h-0.069v12.134h1.255
	h1.254v-11.609c2.701-0.008,4.979-1.816,5.688-4.293c3.145-0.15,5.645-2.75,5.645-5.93
	C332.175,101.85,329.516,99.192,326.236,99.192z"/>
<path fill="#635646" d="M841.891,130.187c-29.232,0-35.195-21.75-60.567-19.621c-25.607,4.003-34.655,13.598-57.691,14.462
	l-0.244,0.271h-9.216c-20.343,0-37.002-17.458-52.354-26.663c-29.344-17.595-54.953-13.862-77.363-4.12
	c-27.487,11.952-41.331,17.916-64.008,15.233c-14.918-1.763-30.562-16.514-55.634-14.953c-25.641,1.596-50.368,26.813-86.647,32.323
	c0,0-17.074,2.604-37.35-1.82c-24.315-5.308-41.211-4.466-75.458,0.707c-47.412,3.68-54.662,2.508-78.412-0.07
	c-27.21-4.953-39.855-10.615-65.467-6.613c-25.608,4.003-48.362,10.271-71.398,11.137c-23.036,0.863-50.996-0.676-50.996-0.676
	l-0.054,76.418h0.054h843.019"/>
<g>
	<g>
		<g>
			<path fill="#46A360" d="M818.195,151.058v-3.584c-0.063-1.064-0.078-1.111-1.782-1.402c-4.357-0.745-3.721-6.66-3.721-6.66
				s4.315-0.012,5.641,2.771c0,0,0.571,1.364,0.571,4.362v4.515h-0.709V151.058z"/>
		</g>
	</g>
	<g>
		<g>
			<path fill="#54B06F" d="M820.25,152.058v-1.322c0.063-1.064,0.076-1.109,1.781-1.402c4.077-0.697,4.005-4.038,3.724-6.66
				c0,0-4.316-0.012-5.643,2.771c0,0-0.572,1.365-0.572,4.363v2.252h0.71V152.058z"/>
		</g>
	</g>
</g>
<g>
	<g>
		<g>
			<path fill="#46A360" d="M304.934,151.94v-3.584c-0.063-1.064-0.078-1.111-1.782-1.402c-4.357-0.745-3.721-6.66-3.721-6.66
				s4.315-0.012,5.641,2.771c0,0,0.571,1.364,0.571,4.362v4.515h-0.709V151.94z"/>
		</g>
	</g>
	<g>
		<g>
			<path fill="#54B06F" d="M306.99,152.94v-1.322c0.063-1.064,0.076-1.109,1.781-1.402c4.077-0.697,4.005-4.038,3.724-6.66
				c0,0-4.316-0.012-5.643,2.771c0,0-0.572,1.365-0.572,4.363v2.252h0.71V152.94z"/>
		</g>
	</g>
</g>
<g>
	<g>
		<g>
			<path fill="#46A360" d="M801.031,147.565v-6.797c0.122-2.024,0.146-2.109,3.379-2.664c8.267-1.414,7.059-12.633,7.059-12.633
				s-8.188-0.021-10.695,5.256c0,0-1.087,2.588-1.087,8.273v8.562h1.346L801.031,147.565L801.031,147.565z"/>
		</g>
	</g>
	<g>
		<g>
			<path fill="#54B06F" d="M797.129,147.565v-2.508c-0.122-2.023-0.146-2.108-3.378-2.662c-8.269-1.414-7.062-12.633-7.062-12.633
				s8.188-0.021,10.699,5.256c0,0,1.084,2.588,1.084,8.271v4.273h-1.344V147.565z"/>
		</g>
	</g>
</g>
<g>
	<g>
		<g>
			<path fill="#46A360" d="M286.695,151.458v-5.521c0.099-1.645,0.119-1.714,2.745-2.164c6.715-1.148,5.734-10.263,5.734-10.263
				s-6.652-0.018-8.688,4.27c0,0-0.883,2.103-0.883,6.722v6.955h1.093L286.695,151.458L286.695,151.458z"/>
		</g>
	</g>
	<g>
		<g>
			<path fill="#54B06F" d="M283.525,151.458v-2.037c-0.099-1.644-0.119-1.713-2.744-2.163c-6.717-1.148-5.737-10.262-5.737-10.262
				s6.652-0.018,8.692,4.27c0,0,0.88,2.103,0.88,6.72v3.471h-1.092V151.458z"/>
		</g>
	</g>
</g>
<g>
	<polyline fill="#EFC1D7" points="648.934,139.619 644.492,151.55 638.806,151.55 640.959,148.716 643.063,139.274 	"/>
	<polyline fill="#EFC1D7" points="674.747,132.224 684.874,139.615 684.902,148.697 683.731,151.635 689.19,151.635 
		688.918,135.451 681.229,123.665 670.075,112.649 	"/>
	<path fill="#FFFFFF" d="M681.684,105.001"/>
	<path fill="#F3DFEA" d="M613.496,121.544c0,0,3.382-3.932,4.579-5.372c5.287-6.356,11.688-6.984,19.277-8.488l27.77-2.519
		c0,0,30.752-1.598,19.156,26.976l-9.531,19.408h-5.686l2.086-2.834l4.802-9.441l-1.799-4.49c0,0-12.993,11.543-32.45,4.835
		l-4.442,11.931h-5.687l2.152-2.834l2.104-9.441c0,0-3.916-2.127-6.308-6.186c-7.566-0.947-12.955-3.98-14.928-6.392h-4.166v-5.153
		H613.496z"/>
	<polygon fill="#EFC1D7" points="623.581,120.091 618.977,107.817 629.72,110.172 	"/>
	<path fill="#1C1D1A" d="M620.615,118.655c0,0.469-0.383,0.85-0.852,0.85c-0.47,0-0.852-0.381-0.852-0.85
		c0-0.471,0.382-0.853,0.852-0.853C620.232,117.803,620.615,118.185,620.615,118.655z"/>
	<path fill="none" stroke="#F3DFEA" stroke-width="3" stroke-linecap="round" stroke-miterlimit="10" d="M684.424,112.969
		c2.105-0.276,4.725-1.034,4.45-3.12c-0.128-0.971-1.018-1.654-1.988-1.526c-0.972,0.127-1.654,1.018-1.527,1.989
		c0,0,0.238,2.793,4.432,2.793"/>
</g>
<g id="Ko">
	<g>
		<ellipse fill="#F7CDDF" cx="216.405" cy="125.104" rx="10.104" ry="7.588"/>
		<polyline fill="#ECEDED" points="216.404,102.419 203.131,115.528 193.982,129.553 193.658,151.943 200.154,151.943 
			198.761,148.448 198.793,134.509 210.845,125.713 		"/>
		<polyline fill="#ECEDED" points="242.511,125.713 239.454,148.053 239.86,151.842 245.679,151.842 244.732,148.053 
			249.007,123.867 		"/>
		<path fill="#FFFFFF" d="M248.115,148.053l0.406,3.789h5.819l-0.947-3.789l4.126-23.083c5.685-2.114,12.87-14.943,12.87-14.943
			l-5.078-16.708H202.59h-0.102l0,0c-3.587,0-6.495,2.908-6.495,6.495v18.657l14.852,33.372h6.766l-2.326-3.373l-5.869-14.365
			l4-12.258c0,0,12.352,15.173,37.743,4.609L248.115,148.053z"/>
		<path fill="#3E3D40" d="M264.628,118.643c3.416-3.89,5.761-8.616,5.761-8.616l-5.078-16.708H202.59h-0.102h42.825
			c0,0-3.343,5.971,0.447,9.101c3.789,3.13,7.172,1.777,7.578,5.431C251.984,120.719,264.627,118.643,264.628,118.643z"/>
		<path fill="#3E3D40" d="M283.61,84.371c-0.771,2.751-4.681,5.007-10.454,5.007s-9.685-2.09-10.454-5.007
			C273.156,89.377,283.61,84.371,283.61,84.371z"/>
		<path fill="#3E3D40" d="M265.072,92.896l1.348,15.427c0,2.989,2.424,3.812,5.414,3.812h1.803c2.99,0,5.414-0.823,5.414-3.812
			l1.348-15.427c4.96-0.079,7.048-2.603,7.048-4.669H274.99h-0.456h-3.599h-0.457h-12.454
			C258.025,90.293,260.111,92.817,265.072,92.896z"/>
		<path fill="#FFFFFF" d="M266.42,108.323c0,2.989,2.424,3.812,5.414,3.812h0.901h0.902c2.99,0,5.413-0.823,5.413-3.812
			c0,0-1.285-2.848-4.601-4.1v-0.002l-0.01-4.792l1.482-2.408c0,0,1.986-3.326-0.649-5.72c-1.188-0.947-2.537-0.896-2.537-0.896
			s-1.349-0.05-2.537,0.896c-2.634,2.394-0.649,5.72-0.649,5.72l1.482,2.408l-0.009,4.775v0.019
			C267.705,105.475,266.42,108.323,266.42,108.323z"/>
		<path fill="#3E3D40" d="M242.647,93.318c0,5.508-6.837,9.974-15.271,9.974s-15.271-4.466-15.271-9.974H242.647z"/>
		<path fill="#3E3D40" d="M203.02,102.842c-2.306,2.12,0,4.189,0,4.189c4.37,3.029,7.148,8.194,2.547,12.659
			c-3.934,3.819-11.51-2.375-11.51-2.375V99.916c0-3.587,2.833-6.598,6.42-6.598l0,0h0.101h6.826
			C210.094,100.181,205.103,100.928,203.02,102.842z"/>
		<path fill="#FFFFFF" d="M202.59,93.318"/>
		<polygon fill="#3E3D40" points="209.344,148.469 215.285,148.469 217.612,151.842 210.845,151.842 		"/>
		<polygon fill="#3E3D40" points="253.393,148.053 254.34,151.842 248.521,151.842 248.115,148.053 		"/>
		<polygon fill="#3E3D40" points="244.732,148.053 245.679,151.842 239.86,151.842 239.454,148.053 		"/>
		<polygon fill="#3E3D40" points="193.658,148.448 198.761,148.448 200.154,151.943 193.658,151.943 		"/>
		<path fill="#3E3D40" d="M192.045,135.476l2.675-1.976c0,0,1.085-0.73,1.187-2.003l0.011-2.705v-27.1h-1.861v27.832
			c-0.101,0.015-0.205,0.033-0.317,0.068c-1.716,0.668-1.651,2.561-1.651,2.561L192.045,135.476z"/>
		<path fill="#3E3D40" d="M224.426,121.518c-9.427,2.233-7.191-6.892-7.191-6.892c0.653-4.646,3.85-7.328,7.537-6.496
			c3.849,0.869,3.062,6.168,6.542,5.707c3.481-0.463,3.947-3.155,7.549-2.47c4.164,0.792,6.521,4.042,6.797,7.404
			c0.316,3.815-4.318,7.956-11.152,3.809C234.509,122.58,229.569,120.3,224.426,121.518z"/>
	</g>
</g>
<path fill="#FAD059" d="M449.574,159.47c-0.187,0-0.34-0.151-0.34-0.34v-23.041c0-0.188,0.153-0.341,0.34-0.341
	s0.339,0.152,0.339,0.341v23.041C449.913,159.318,449.761,159.47,449.574,159.47z"/>
<polygon fill="#F7B719" stroke="#F7B719" stroke-width="0.5" stroke-linecap="round" stroke-linejoin="round" stroke-miterlimit="10" points="
	449.099,132.919 449.099,134.986 447.196,133.394 447.196,131.325 "/>
<polygon fill="#F7B719" stroke="#F7B719" stroke-width="0.5" stroke-linecap="round" stroke-linejoin="round" stroke-miterlimit="10" points="
	449.099,129.853 449.099,131.921 447.196,130.328 447.196,128.261 "/>
<polygon fill="#F7B719" stroke="#F7B719" stroke-width="0.5" stroke-linecap="round" stroke-linejoin="round" stroke-miterlimit="10" points="
	449.099,126.787 449.099,128.854 447.196,127.262 447.196,125.194 "/>
<polygon fill="#F7B719" stroke="#F7B719" stroke-width="0.5" stroke-linecap="round" stroke-linejoin="round" stroke-miterlimit="10" points="
	449.099,123.722 449.099,125.789 447.196,124.198 447.196,122.13 "/>
<polygon fill="#FAD059" stroke="#FAD059" stroke-width="0.5" stroke-linecap="round" stroke-linejoin="round" stroke-miterlimit="10" points="
	449.965,132.919 449.965,134.986 451.87,133.394 451.87,131.325 "/>
<polygon fill="#FAD059" stroke="#FAD059" stroke-width="0.5" stroke-linecap="round" stroke-linejoin="round" stroke-miterlimit="10" points="
	449.965,129.853 449.965,131.921 451.87,130.328 451.87,128.261 "/>
<polygon fill="#FAD059" stroke="#FAD059" stroke-width="0.5" stroke-linecap="round" stroke-linejoin="round" stroke-miterlimit="10" points="
	449.965,126.787 449.965,128.854 451.87,127.262 451.87,125.194 "/>
<polygon fill="#FAD059" stroke="#FAD059" stroke-width="0.5" stroke-linecap="round" stroke-linejoin="round" stroke-miterlimit="10" points="
	449.965,123.722 449.965,125.789 451.87,124.198 451.87,122.13 "/>
<path fill="#FAD059" d="M448.884,122.255c-0.186,0-0.339-0.152-0.339-0.339v-5.54c0-0.188,0.153-0.34,0.339-0.34
	c0.187,0,0.34,0.152,0.34,0.34v5.54C449.224,122.103,449.071,122.255,448.884,122.255z"/>
<path fill="#FAD059" d="M450.247,122.255c-0.187,0-0.339-0.152-0.339-0.339v-5.54c0-0.188,0.152-0.34,0.339-0.34
	c0.188,0,0.341,0.152,0.341,0.34v5.54C450.588,122.103,450.435,122.255,450.247,122.255z"/>
<path fill="#F7B719" d="M447.522,121.294c-0.187,0-0.34-0.152-0.34-0.34v-1.809c0-0.188,0.153-0.34,0.34-0.34
	c0.186,0,0.339,0.152,0.339,0.34v1.809C447.861,121.142,447.707,121.294,447.522,121.294z"/>
<path fill="#FAD059" d="M451.612,121.294c-0.187,0-0.339-0.152-0.339-0.34v-1.809c0-0.188,0.152-0.34,0.339-0.34
	s0.34,0.152,0.34,0.34v1.809C451.951,121.142,451.798,121.294,451.612,121.294z"/>
<g>
	<path fill="#FAD059" d="M459.014,147.47c-0.186,0-0.339-0.151-0.339-0.34v-17.288c0-0.188,0.153-0.341,0.339-0.341
		c0.187,0,0.34,0.153,0.34,0.341v17.288C459.354,147.318,459.2,147.47,459.014,147.47z"/>
	
		<polygon fill="#F7B719" stroke="#F7B719" stroke-width="0.5" stroke-linecap="round" stroke-linejoin="round" stroke-miterlimit="10" points="
		458.542,126.672 458.542,128.739 456.635,127.146 456.635,125.078 	"/>
	
		<polygon fill="#F7B719" stroke="#F7B719" stroke-width="0.5" stroke-linecap="round" stroke-linejoin="round" stroke-miterlimit="10" points="
		458.542,123.606 458.542,125.675 456.635,124.081 456.635,122.014 	"/>
	
		<polygon fill="#F7B719" stroke="#F7B719" stroke-width="0.5" stroke-linecap="round" stroke-linejoin="round" stroke-miterlimit="10" points="
		458.542,120.542 458.542,122.609 456.635,121.017 456.635,118.948 	"/>
	
		<polygon fill="#F7B719" stroke="#F7B719" stroke-width="0.5" stroke-linecap="round" stroke-linejoin="round" stroke-miterlimit="10" points="
		458.542,117.476 458.542,119.543 456.635,117.95 456.635,115.883 	"/>
	
		<polygon fill="#FAD059" stroke="#FAD059" stroke-width="0.5" stroke-linecap="round" stroke-linejoin="round" stroke-miterlimit="10" points="
		459.406,126.672 459.406,128.739 461.31,127.146 461.31,125.078 	"/>
	
		<polygon fill="#FAD059" stroke="#FAD059" stroke-width="0.5" stroke-linecap="round" stroke-linejoin="round" stroke-miterlimit="10" points="
		459.406,123.606 459.406,125.675 461.31,124.081 461.31,122.014 	"/>
	
		<polygon fill="#FAD059" stroke="#FAD059" stroke-width="0.5" stroke-linecap="round" stroke-linejoin="round" stroke-miterlimit="10" points="
		459.406,120.542 459.406,122.609 461.31,121.017 461.31,118.948 	"/>
	
		<polygon fill="#FAD059" stroke="#FAD059" stroke-width="0.5" stroke-linecap="round" stroke-linejoin="round" stroke-miterlimit="10" points="
		459.406,117.476 459.406,119.543 461.31,117.95 461.31,115.883 	"/>
	<path fill="#FAD059" d="M458.324,116.008c-0.187,0-0.34-0.151-0.34-0.34v-5.538c0-0.188,0.153-0.339,0.34-0.339
		s0.34,0.152,0.34,0.339v5.538C458.664,115.856,458.511,116.008,458.324,116.008z"/>
	<path fill="#FAD059" d="M459.688,116.008c-0.187,0-0.34-0.151-0.34-0.34v-5.538c0-0.188,0.153-0.339,0.34-0.339
		s0.339,0.152,0.339,0.339v5.538C460.027,115.856,459.874,116.008,459.688,116.008z"/>
	<path fill="#F7B719" d="M456.96,115.047c-0.187,0-0.34-0.153-0.34-0.34v-1.808c0-0.188,0.153-0.339,0.34-0.339
		s0.34,0.15,0.34,0.339v1.808C457.3,114.894,457.147,115.047,456.96,115.047z"/>
	<path fill="#FAD059" d="M461.052,115.047c-0.187,0-0.34-0.153-0.34-0.34v-1.808c0-0.188,0.153-0.339,0.34-0.339
		s0.339,0.15,0.339,0.339v1.808C461.391,114.894,461.239,115.047,461.052,115.047z"/>
</g>
<g>
	<path fill="#FAD059" d="M467.667,157.324c-0.186,0-0.339-0.151-0.339-0.34v-17.288c0-0.188,0.153-0.341,0.339-0.341
		c0.187,0,0.34,0.153,0.34,0.341v17.288C468.007,157.173,467.854,157.324,467.667,157.324z"/>
	
		<polygon fill="#F7B719" stroke="#F7B719" stroke-width="0.5" stroke-linecap="round" stroke-linejoin="round" stroke-miterlimit="10" points="
		467.196,136.526 467.196,138.594 465.288,137.001 465.288,134.933 	"/>
	
		<polygon fill="#F7B719" stroke="#F7B719" stroke-width="0.5" stroke-linecap="round" stroke-linejoin="round" stroke-miterlimit="10" points="
		467.196,133.461 467.196,135.529 465.288,133.936 465.288,131.868 	"/>
	
		<polygon fill="#F7B719" stroke="#F7B719" stroke-width="0.5" stroke-linecap="round" stroke-linejoin="round" stroke-miterlimit="10" points="
		467.196,130.396 467.196,132.464 465.288,130.871 465.288,128.803 	"/>
	
		<polygon fill="#F7B719" stroke="#F7B719" stroke-width="0.5" stroke-linecap="round" stroke-linejoin="round" stroke-miterlimit="10" points="
		467.196,127.33 467.196,129.397 465.288,127.805 465.288,125.737 	"/>
	
		<polygon fill="#FAD059" stroke="#FAD059" stroke-width="0.5" stroke-linecap="round" stroke-linejoin="round" stroke-miterlimit="10" points="
		468.06,136.526 468.06,138.594 469.963,137.001 469.963,134.933 	"/>
	
		<polygon fill="#FAD059" stroke="#FAD059" stroke-width="0.5" stroke-linecap="round" stroke-linejoin="round" stroke-miterlimit="10" points="
		468.06,133.461 468.06,135.529 469.963,133.936 469.963,131.868 	"/>
	
		<polygon fill="#FAD059" stroke="#FAD059" stroke-width="0.5" stroke-linecap="round" stroke-linejoin="round" stroke-miterlimit="10" points="
		468.06,130.396 468.06,132.464 469.963,130.871 469.963,128.803 	"/>
	
		<polygon fill="#FAD059" stroke="#FAD059" stroke-width="0.5" stroke-linecap="round" stroke-linejoin="round" stroke-miterlimit="10" points="
		468.06,127.33 468.06,129.397 469.963,127.805 469.963,125.737 	"/>
	<path fill="#FAD059" d="M466.978,125.862c-0.187,0-0.34-0.151-0.34-0.34v-5.538c0-0.188,0.153-0.339,0.34-0.339
		s0.34,0.151,0.34,0.339v5.538C467.318,125.711,467.164,125.862,466.978,125.862z"/>
	<path fill="#FAD059" d="M468.341,125.862c-0.187,0-0.34-0.151-0.34-0.34v-5.538c0-0.188,0.153-0.339,0.34-0.339
		s0.339,0.151,0.339,0.339v5.538C468.68,125.711,468.528,125.862,468.341,125.862z"/>
	<path fill="#F7B719" d="M465.614,124.901c-0.187,0-0.34-0.153-0.34-0.34v-1.808c0-0.188,0.153-0.339,0.34-0.339
		s0.34,0.15,0.34,0.339v1.808C465.953,124.748,465.8,124.901,465.614,124.901z"/>
	<path fill="#FAD059" d="M469.705,124.901c-0.187,0-0.34-0.153-0.34-0.34v-1.808c0-0.188,0.153-0.339,0.34-0.339
		s0.339,0.15,0.339,0.339v1.808C470.044,124.748,469.892,124.901,469.705,124.901z"/>
</g>
<g>
	<path fill="#FAD059" d="M476.303,147.354c-0.186,0-0.339-0.151-0.339-0.34v-17.288c0-0.188,0.153-0.341,0.339-0.341
		c0.187,0,0.34,0.153,0.34,0.341v17.288C476.643,147.202,476.49,147.354,476.303,147.354z"/>
	
		<polygon fill="#F7B719" stroke="#F7B719" stroke-width="0.5" stroke-linecap="round" stroke-linejoin="round" stroke-miterlimit="10" points="
		475.831,126.556 475.831,128.623 473.924,127.03 473.924,124.962 	"/>
	
		<polygon fill="#F7B719" stroke="#F7B719" stroke-width="0.5" stroke-linecap="round" stroke-linejoin="round" stroke-miterlimit="10" points="
		475.831,123.49 475.831,125.559 473.924,123.965 473.924,121.897 	"/>
	
		<polygon fill="#F7B719" stroke="#F7B719" stroke-width="0.5" stroke-linecap="round" stroke-linejoin="round" stroke-miterlimit="10" points="
		475.831,120.426 475.831,122.493 473.924,120.9 473.924,118.832 	"/>
	
		<polygon fill="#F7B719" stroke="#F7B719" stroke-width="0.5" stroke-linecap="round" stroke-linejoin="round" stroke-miterlimit="10" points="
		475.831,117.359 475.831,119.427 473.924,117.834 473.924,115.767 	"/>
	
		<polygon fill="#FAD059" stroke="#FAD059" stroke-width="0.5" stroke-linecap="round" stroke-linejoin="round" stroke-miterlimit="10" points="
		476.696,126.556 476.696,128.623 478.599,127.03 478.599,124.962 	"/>
	
		<polygon fill="#FAD059" stroke="#FAD059" stroke-width="0.5" stroke-linecap="round" stroke-linejoin="round" stroke-miterlimit="10" points="
		476.696,123.49 476.696,125.559 478.599,123.965 478.599,121.897 	"/>
	
		<polygon fill="#FAD059" stroke="#FAD059" stroke-width="0.5" stroke-linecap="round" stroke-linejoin="round" stroke-miterlimit="10" points="
		476.696,120.426 476.696,122.493 478.599,120.9 478.599,118.832 	"/>
	
		<polygon fill="#FAD059" stroke="#FAD059" stroke-width="0.5" stroke-linecap="round" stroke-linejoin="round" stroke-miterlimit="10" points="
		476.696,117.359 476.696,119.427 478.599,117.834 478.599,115.767 	"/>
	<path fill="#FAD059" d="M475.614,115.892c-0.187,0-0.34-0.151-0.34-0.34v-5.538c0-0.188,0.153-0.339,0.34-0.339
		s0.34,0.151,0.34,0.339v5.538C475.953,115.74,475.8,115.892,475.614,115.892z"/>
	<path fill="#FAD059" d="M476.977,115.892c-0.187,0-0.34-0.151-0.34-0.34v-5.538c0-0.188,0.153-0.339,0.34-0.339
		s0.339,0.151,0.339,0.339v5.538C477.316,115.74,477.163,115.892,476.977,115.892z"/>
	<path fill="#F7B719" d="M474.249,114.931c-0.187,0-0.34-0.153-0.34-0.34v-1.808c0-0.188,0.153-0.339,0.34-0.339
		s0.34,0.15,0.34,0.339v1.808C474.589,114.777,474.436,114.931,474.249,114.931z"/>
	<path fill="#FAD059" d="M478.341,114.931c-0.187,0-0.34-0.153-0.34-0.34v-1.808c0-0.188,0.153-0.339,0.34-0.339
		s0.339,0.15,0.339,0.339v1.808C478.68,114.777,478.528,114.931,478.341,114.931z"/>
</g>
<g>
	<path fill="#FAD059" d="M484.553,155.603c-0.186,0-0.339-0.151-0.339-0.34v-17.288c0-0.188,0.153-0.341,0.339-0.341
		c0.187,0,0.34,0.153,0.34,0.341v17.288C484.893,155.451,484.74,155.603,484.553,155.603z"/>
	
		<polygon fill="#F7B719" stroke="#F7B719" stroke-width="0.5" stroke-linecap="round" stroke-linejoin="round" stroke-miterlimit="10" points="
		484.081,134.805 484.081,136.872 482.174,135.279 482.174,133.211 	"/>
	
		<polygon fill="#F7B719" stroke="#F7B719" stroke-width="0.5" stroke-linecap="round" stroke-linejoin="round" stroke-miterlimit="10" points="
		484.081,131.739 484.081,133.808 482.174,132.214 482.174,130.146 	"/>
	
		<polygon fill="#F7B719" stroke="#F7B719" stroke-width="0.5" stroke-linecap="round" stroke-linejoin="round" stroke-miterlimit="10" points="
		484.081,128.675 484.081,130.742 482.174,129.149 482.174,127.081 	"/>
	
		<polygon fill="#F7B719" stroke="#F7B719" stroke-width="0.5" stroke-linecap="round" stroke-linejoin="round" stroke-miterlimit="10" points="
		484.081,125.608 484.081,127.676 482.174,126.083 482.174,124.016 	"/>
	
		<polygon fill="#FAD059" stroke="#FAD059" stroke-width="0.5" stroke-linecap="round" stroke-linejoin="round" stroke-miterlimit="10" points="
		484.946,134.805 484.946,136.872 486.849,135.279 486.849,133.211 	"/>
	
		<polygon fill="#FAD059" stroke="#FAD059" stroke-width="0.5" stroke-linecap="round" stroke-linejoin="round" stroke-miterlimit="10" points="
		484.946,131.739 484.946,133.808 486.849,132.214 486.849,130.146 	"/>
	
		<polygon fill="#FAD059" stroke="#FAD059" stroke-width="0.5" stroke-linecap="round" stroke-linejoin="round" stroke-miterlimit="10" points="
		484.946,128.675 484.946,130.742 486.849,129.149 486.849,127.081 	"/>
	
		<polygon fill="#FAD059" stroke="#FAD059" stroke-width="0.5" stroke-linecap="round" stroke-linejoin="round" stroke-miterlimit="10" points="
		484.946,125.608 484.946,127.676 486.849,126.083 486.849,124.016 	"/>
	<path fill="#FAD059" d="M483.864,124.141c-0.187,0-0.34-0.151-0.34-0.34v-5.538c0-0.188,0.153-0.339,0.34-0.339
		s0.34,0.151,0.34,0.339v5.538C484.203,123.989,484.05,124.141,483.864,124.141z"/>
	<path fill="#FAD059" d="M485.227,124.141c-0.187,0-0.34-0.151-0.34-0.34v-5.538c0-0.188,0.153-0.339,0.34-0.339
		s0.339,0.151,0.339,0.339v5.538C485.566,123.989,485.413,124.141,485.227,124.141z"/>
	<path fill="#F7B719" d="M482.499,123.18c-0.187,0-0.34-0.153-0.34-0.34v-1.808c0-0.188,0.153-0.339,0.34-0.339
		s0.34,0.15,0.34,0.339v1.808C482.839,123.026,482.686,123.18,482.499,123.18z"/>
	<path fill="#FAD059" d="M486.591,123.18c-0.187,0-0.34-0.153-0.34-0.34v-1.808c0-0.188,0.153-0.339,0.34-0.339
		s0.339,0.15,0.339,0.339v1.808C486.93,123.026,486.778,123.18,486.591,123.18z"/>
</g>
<path fill="#786855" d="M842.102,152.187c-9.146,0.144-18.725-1.02-29.443-2.129c-14.522-1.504-39.255-15.457-64.869-14.062
	c-25.479,1.392-38.408,13.407-66.851,16.08h-40.944c-20.339,0-37.001-8.124-52.351-17.329
	c-29.345-17.596-54.954-13.861-77.362-4.121c-27.493,11.953-41.333,17.915-64.009,15.232c-14.526-1.717-39.878-13.793-65.491-12.197
	c-25.64,1.596-38.563,15.482-67.376,18.415H-0.965v68.796h791.049h52.018"/>
<g id="Höna">
	<g>
		<path fill="#F7B234" d="M34.207,149.541c0.478,0,0.866-0.388,0.866-0.864v-8.728c0-0.477-0.388-0.864-0.866-0.864
			c-0.479,0-0.867,0.388-0.867,0.864v8.728C33.34,149.153,33.728,149.541,34.207,149.541z"/>
		<path fill="#F7B234" d="M32.098,152.143c0.238,0,0.475-0.098,0.646-0.29l1.606-1.799l1.698,2.089h4.919
			c0.479,0,0.867-0.388,0.867-0.869c0-0.477-0.388-0.864-0.867-0.864h-4.095l-2.461-3.027l-2.959,3.315
			c-0.319,0.357-0.288,0.905,0.069,1.225C31.685,152.07,31.892,152.143,32.098,152.143z"/>
		<path fill="#BE3928" d="M45.35,108.159c0.809,1.331,2.269,1.917,3.262,1.313c0.281-0.171,0.493-0.423,0.635-0.718
			c0.024,0.042,0.046,0.084,0.072,0.126c0.809,1.328,2.188,1.967,3.079,1.423c0.891-0.543,0.958-2.059,0.149-3.389
			c-0.81-1.329-2.188-1.967-3.079-1.425c-0.21,0.129-0.374,0.313-0.492,0.537c-0.011-0.019-0.02-0.037-0.03-0.054
			c-0.81-1.33-2.27-1.917-3.263-1.313C44.69,105.263,44.541,106.83,45.35,108.159z"/>
		<g>
			<polyline fill="#F8B518" stroke="#F8B518" stroke-width="0.1561" stroke-miterlimit="10" points="52.87,110.585 56.163,113.449 
				52.436,114.007 			"/>
		</g>
		<g>
			<path fill="#BE3928" d="M52.917,120.218c1.599-1.191,0.794-3.023,0.794-3.023l-1.24-3.264l-2.129,2.77
				c0,0-1.296,1.522-0.108,3.123c0.547,0.644,1.264,0.722,1.264,0.722S52.207,120.677,52.917,120.218z"/>
		</g>
		<path fill="#FFFFFF" stroke="#FFFFFF" stroke-width="1.1776" stroke-miterlimit="10" d="M52.147,114.412
			c2.284-2.485,0.635-6.212-4.478-6.301c-5.113-0.083-10.053,6.068-12.827,8.321s-5.864,4.737-8.118,4.563
			c-2.253-0.172-3.583-2.05-8.437-5.951c-4.853-3.899-6.818-0.288-6.818-0.288c-1.502,2.082,0.145,4.709,0.145,4.709
			c-2.687,0.494-4.246,3.642-0.173,6.501c-3.784,4.854,2.456,6.356,2.456,6.356c-0.577,0.924-1.849,5.431,3.698,5.086
			c2.773-0.175,4.015,0.98,7.281,2.54c5.2,2.486,9.967,2.565,9.967,2.565c19.667,0.798,14.763-22.441,14.763-22.441
			C49.056,117.561,50.5,116.203,52.147,114.412z"/>
		<path fill="#C79C63" stroke="#C79C63" stroke-width="1.1776" stroke-miterlimit="10" d="M38.687,117.531
			c0.809,2.601,3.698,1.849,3.698,1.849s1.272,2.139,3.583,0.752c2.716,2.14,3.755-0.059,3.755-0.059
			c-0.548-2.513,0.896-3.87,2.542-5.661c2.284-2.485,0.636-6.212-4.478-6.298c-5.114-0.086-8.523,4.448-11.296,6.701
			C36.491,114.815,35.163,117.706,38.687,117.531z"/>
		<circle fill="#635646" cx="51.667" cy="111.05" r="0.862"/>
	</g>
</g>
<g>
	<g>
		<g>
			<path fill="#FFD93F" d="M63.137,151.58"/>
			<path fill="#FFD93F" d="M63.235,151.812c-0.004,0-0.007-0.002-0.01-0.002c-0.054-0.003-0.105-0.062-0.14-0.104
				c-1.11-1.323,0.002-2.434,0.013-2.443c0.039-0.038,0.092-0.093,0.147-0.09c0.054,0.002,0.104,0.062,0.14,0.104
				c1.109,1.322-0.003,2.433-0.014,2.442C63.334,151.755,63.286,151.812,63.235,151.812z"/>
		</g>
		<g>
			<path fill="#FFCE09" d="M63.137,151.58"/>
			<path fill="#FFCE09" d="M63.235,151.812c-0.004,0-0.007-0.002-0.01-0.002c-0.054-0.003-0.105-0.062-0.14-0.104
				c-1.11-1.323,0.002-2.434,0.013-2.443c0.039-0.038,0.092-0.093,0.147-0.09L63.235,151.812z"/>
		</g>
	</g>
	<g>
		<g>
			<path fill="#FFD93F" d="M54.379,152.885"/>
			<path fill="#FFD93F" d="M54.637,152.935c-0.003,0.004-0.005,0.006-0.009,0.011c-0.046,0.052-0.133,0.062-0.194,0.068
				c-1.923,0.248-1.871-1.554-1.87-1.573c0.004-0.062,0.005-0.15,0.051-0.201c0.046-0.052,0.133-0.062,0.194-0.069
				c1.923-0.247,1.871,1.555,1.87,1.572C54.676,152.801,54.678,152.885,54.637,152.935z"/>
		</g>
		<g>
			<path fill="#FFCE09" d="M54.379,152.885"/>
			<path fill="#FFCE09" d="M54.637,152.935c-0.003,0.004-0.005,0.006-0.009,0.011c-0.046,0.052-0.133,0.062-0.194,0.068
				c-1.923,0.248-1.871-1.554-1.87-1.573c0.004-0.062,0.005-0.15,0.051-0.201L54.637,152.935z"/>
		</g>
	</g>
	<g>
		<g>
			<path fill="#FFD93F" d="M60.876,149.003"/>
			<path fill="#FFD93F" d="M60.902,149.271c-0.004-0.001-0.009-0.004-0.012-0.007c-0.068-0.034-0.107-0.119-0.133-0.178
				c-0.846-1.87,1.051-2.195,1.071-2.196c0.066-0.012,0.158-0.027,0.226,0.007c0.067,0.036,0.106,0.12,0.132,0.18
				c0.845,1.871-1.052,2.193-1.07,2.196C61.053,149.283,60.967,149.302,60.902,149.271z"/>
		</g>
		<g>
			<path fill="#FFCE09" d="M60.876,149.003"/>
			<path fill="#FFCE09" d="M60.902,149.271c-0.004-0.001-0.009-0.004-0.012-0.007c-0.068-0.034-0.107-0.119-0.133-0.178
				c-0.846-1.87,1.051-2.195,1.071-2.196c0.066-0.012,0.158-0.027,0.226,0.007L60.902,149.271z"/>
		</g>
	</g>
	<g>
		<g>
			<path fill="#FFD93F" d="M57.114,152.999"/>
			<path fill="#FFD93F" d="M57.102,153.249c-0.002-0.002-0.006-0.002-0.009-0.005c-0.047-0.025-0.067-0.103-0.081-0.154
				c-0.43-1.672,1.052-2.194,1.067-2.199c0.051-0.017,0.123-0.043,0.171-0.018s0.067,0.104,0.081,0.153
				c0.431,1.674-1.051,2.195-1.067,2.2C57.215,153.243,57.148,153.271,57.102,153.249z"/>
		</g>
		<g>
			<path fill="#FFCE09" d="M57.114,152.999"/>
			<path fill="#FFCE09" d="M57.102,153.249c-0.002-0.002-0.006-0.002-0.009-0.005c-0.047-0.025-0.067-0.103-0.081-0.154
				c-0.43-1.672,1.052-2.194,1.067-2.199c0.051-0.017,0.123-0.043,0.171-0.018L57.102,153.249z"/>
		</g>
	</g>
	<g>
		<g>
			<path fill="#FFD93F" d="M52.865,150.158"/>
			<path fill="#FFD93F" d="M53.101,150.293c-0.004,0.004-0.009,0.005-0.013,0.007c-0.071,0.036-0.167,0.02-0.231,0.007
				c-2.067-0.383-1.159-2.139-1.15-2.157c0.031-0.059,0.075-0.147,0.146-0.182s0.166-0.02,0.231-0.006
				c2.066,0.38,1.158,2.14,1.15,2.154C53.205,150.175,53.168,150.257,53.101,150.293z"/>
		</g>
		<g>
			<path fill="#FFCE09" d="M52.865,150.158"/>
			<path fill="#FFCE09" d="M53.101,150.293c-0.004,0.004-0.009,0.005-0.013,0.007c-0.071,0.036-0.167,0.02-0.231,0.007
				c-2.067-0.383-1.159-2.139-1.15-2.157c0.031-0.059,0.075-0.147,0.146-0.182L53.101,150.293z"/>
		</g>
	</g>
	<g>
		<g>
			<path fill="#FFD93F" d="M55.747,151.151"/>
			<path fill="#FFD93F" d="M55.943,151.308c-0.002,0.002-0.005,0.003-0.008,0.004c-0.049,0.023-0.123-0.006-0.173-0.025
				c-1.606-0.633-1.161-2.138-1.155-2.153c0.016-0.052,0.037-0.127,0.085-0.149c0.049-0.022,0.122,0.006,0.173,0.026
				c1.606,0.631,1.16,2.139,1.155,2.153C56.005,151.211,55.989,151.282,55.943,151.308z"/>
		</g>
		<g>
			<path fill="#FFCE09" d="M55.747,151.151"/>
			<path fill="#FFCE09" d="M55.943,151.308c-0.002,0.002-0.005,0.003-0.008,0.004c-0.049,0.023-0.123-0.006-0.173-0.025
				c-1.606-0.633-1.161-2.138-1.155-2.153c0.016-0.052,0.037-0.127,0.085-0.149L55.943,151.308z"/>
		</g>
	</g>
	<g>
		<g>
			<path fill="#FFD93F" d="M60.998,152.398"/>
			<path fill="#FFD93F" d="M61.223,152.538c-0.003,0.003-0.007,0.003-0.011,0.005c-0.065,0.032-0.155,0.012-0.215-0.002
				c-1.948-0.446-1.16-2.138-1.153-2.155c0.029-0.058,0.066-0.141,0.131-0.173c0.066-0.033,0.154-0.012,0.216,0.002
				c1.948,0.446,1.16,2.138,1.15,2.155C61.316,152.425,61.284,152.505,61.223,152.538z"/>
		</g>
		<g>
			<path fill="#FFCE09" d="M60.998,152.398"/>
			<path fill="#FFCE09" d="M61.223,152.538c-0.003,0.003-0.007,0.003-0.011,0.005c-0.065,0.032-0.155,0.012-0.215-0.002
				c-1.948-0.446-1.16-2.138-1.153-2.155c0.029-0.058,0.066-0.141,0.131-0.173L61.223,152.538z"/>
		</g>
	</g>
	<g>
		<g>
			<path fill="#FFD93F" d="M50.4,151.929"/>
			<path fill="#FFD93F" d="M50.467,152.17c-0.003,0-0.006-0.001-0.009-0.002c-0.054-0.01-0.096-0.076-0.125-0.121
				c-0.923-1.46,0.327-2.412,0.34-2.421c0.043-0.032,0.104-0.079,0.157-0.07c0.054,0.012,0.095,0.077,0.125,0.123
				c0.923,1.459-0.327,2.411-0.34,2.422C50.573,152.128,50.517,152.177,50.467,152.17z"/>
		</g>
		<g>
			<path fill="#FFCE09" d="M50.4,151.929"/>
			<path fill="#FFCE09" d="M50.467,152.17c-0.003,0-0.006-0.001-0.009-0.002c-0.054-0.01-0.096-0.076-0.125-0.121
				c-0.923-1.46,0.327-2.412,0.34-2.421c0.043-0.032,0.104-0.079,0.157-0.07L50.467,152.17z"/>
		</g>
	</g>
	<g>
		<g>
			<path fill="#FFD93F" d="M57.251,149.884"/>
			<path fill="#FFD93F" d="M57.16,150.116c-0.002-0.001-0.005-0.004-0.007-0.005c-0.036-0.041-0.031-0.121-0.026-0.174
				c0.128-1.723,1.698-1.74,1.715-1.74c0.054,0,0.13-0.004,0.167,0.036c0.037,0.04,0.032,0.119,0.028,0.172
				c-0.128,1.723-1.699,1.741-1.715,1.741C57.27,150.146,57.196,150.151,57.16,150.116z"/>
		</g>
		<g>
			<path fill="#FFCE09" d="M57.251,149.884"/>
			<path fill="#FFCE09" d="M57.16,150.116c-0.002-0.001-0.005-0.004-0.007-0.005c-0.036-0.041-0.031-0.121-0.026-0.174
				c0.128-1.723,1.698-1.74,1.715-1.74c0.054,0,0.13-0.004,0.167,0.036L57.16,150.116z"/>
		</g>
	</g>
</g>
</svg>
