<?xml version="1.0" encoding="utf-8"?>
<!-- Generator: Adobe Illustrator 15.0.2, SVG Export Plug-In . SVG Version: 6.00 Build 0)  -->
<!DOCTYPE svg PUBLIC "-//W3C//DTD SVG 1.1//EN" "http://www.w3.org/Graphics/SVG/1.1/DTD/svg11.dtd">
<svg version="1.1" id="Lager_1" xmlns="http://www.w3.org/2000/svg" xmlns:xlink="http://www.w3.org/1999/xlink" x="0px" y="0px"
	 width="841.891px" height="220.873px" viewBox="0 0 841.891 220.873" enable-background="new 0 0 841.891 220.873"
	 xml:space="preserve">
<g id="Träd_4_">
	<rect x="95.445" y="116.017" fill="#B18048" width="2.336" height="11.301"/>
	<rect x="95.445" y="116.017" fill="#905E36" width="1.171" height="11.301"/>
	
		<path fill="#54B06F" stroke="#54B06F" stroke-width="0.0223" stroke-linecap="round" stroke-linejoin="round" stroke-miterlimit="10" d="
		M108.336,106.983c0-3.055-2.479-5.529-5.531-5.529c-0.578,0-1.135,0.089-1.658,0.253c-0.186-2.886-2.586-5.169-5.518-5.169
		c-3.053,0-5.529,2.475-5.529,5.528c0,0.618,0.104,1.21,0.289,1.767c-3.039,0.018-5.498,2.485-5.498,5.528
		c0,3.056,2.478,5.529,5.529,5.529c1.021,0,1.98-0.279,2.805-0.764c0.998,1.438,2.66,2.377,4.543,2.377
		c2.521,0,4.648-1.689,5.312-3.998C106.008,112.362,108.336,109.944,108.336,106.983z"/>
	
		<path fill="#46A360" stroke="#46A360" stroke-width="0.0223" stroke-linecap="round" stroke-linejoin="round" stroke-miterlimit="10" d="
		M95.629,96.538c-3.054,0-5.529,2.475-5.529,5.528c0,0.618,0.104,1.21,0.289,1.767c-3.039,0.018-5.498,2.485-5.498,5.528
		c0,3.056,2.478,5.529,5.529,5.529c1.021,0,1.98-0.279,2.805-0.764c0.789,1.135,1.99,1.961,3.389,2.257c0,0,0-19.642,0-19.76
		C96.256,96.521,95.629,96.538,95.629,96.538z"/>
</g>
<g id="Träd_10_">
	<rect x="135.814" y="109.032" fill="#B18048" width="2.336" height="11.303"/>
	<rect x="135.814" y="109.032" fill="#905E36" width="1.168" height="11.303"/>
	
		<path fill="#54B06F" stroke="#54B06F" stroke-width="0.0223" stroke-linecap="round" stroke-linejoin="round" stroke-miterlimit="10" d="
		M148.702,100.002c0-3.056-2.476-5.53-5.528-5.53c-0.578,0-1.136,0.089-1.658,0.253c-0.187-2.885-2.586-5.169-5.518-5.169
		c-3.057,0-5.529,2.475-5.529,5.529c0,0.617,0.102,1.21,0.289,1.766c-3.039,0.018-5.498,2.486-5.498,5.529
		c0,3.055,2.477,5.528,5.528,5.528c1.022,0,1.981-0.278,2.804-0.764c1,1.438,2.662,2.377,4.543,2.377
		c2.521,0,4.649-1.688,5.312-3.998C146.377,105.381,148.702,102.963,148.702,100.002z"/>
	
		<path fill="#46A360" stroke="#46A360" stroke-width="0.0223" stroke-linecap="round" stroke-linejoin="round" stroke-miterlimit="10" d="
		M135.998,89.556c-3.057,0-5.529,2.475-5.529,5.529c0,0.617,0.102,1.21,0.289,1.766c-3.039,0.018-5.498,2.486-5.498,5.529
		c0,3.055,2.477,5.528,5.528,5.528c1.022,0,1.981-0.278,2.804-0.764c0.791,1.135,1.991,1.961,3.391,2.257c0,0,0-19.641,0-19.76
		C136.625,89.54,135.998,89.556,135.998,89.556z"/>
</g>
<path fill="#AFD8E6" stroke="#AFD8E6" stroke-width="0.0174" stroke-linecap="round" stroke-linejoin="round" stroke-miterlimit="10" d="
	M539.685,95.218c-0.453,0-0.887,0.069-1.295,0.197c-0.129-1.993-1.611-3.612-3.539-3.96c0-0.001,0-0.007,0-0.007
	c-0.279-0.08-0.769-0.067-0.769-0.067c-2.384,0-4.313,1.933-4.313,4.315c0,0.481,0.08,0.943,0.225,1.378
	c-2.37,0.014-4.289,1.938-4.289,4.313c0,2.385,1.934,4.315,4.314,4.315c0.799,0,1.547-0.218,2.188-0.596
	c0.138,0.196,0.295,0.377,0.463,0.549c0.037,0.038,0.073,0.076,0.112,0.114c0.17,0.159,0.352,0.311,0.543,0.441
	c0.031,0.021,0.064,0.039,0.1,0.061c0.178,0.113,0.361,0.214,0.557,0.301c0.004,0.003,0.006,0.006,0.012,0.008h-0.051v8.819h0.912
	h0.91v-8.438c1.963-0.006,3.619-1.322,4.135-3.12c2.285-0.11,4.104-1.999,4.104-4.311C543.998,97.151,542.068,95.218,539.685,95.218
	z"/>
<path fill="#AFD8E6" stroke="#AFD8E6" stroke-width="0.0174" stroke-linecap="round" stroke-linejoin="round" stroke-miterlimit="10" d="
	M351.136,108.332c-0.453,0-0.887,0.069-1.295,0.197c-0.129-1.993-1.611-3.612-3.539-3.96c0-0.001,0-0.007,0-0.007
	c-0.279-0.08-0.77-0.067-0.77-0.067c-2.383,0-4.312,1.933-4.312,4.315c0,0.481,0.08,0.943,0.225,1.378
	c-2.371,0.014-4.289,1.938-4.289,4.313c0,2.385,1.934,4.316,4.314,4.316c0.799,0,1.547-0.219,2.188-0.596
	c0.139,0.194,0.296,0.377,0.464,0.549c0.036,0.037,0.073,0.076,0.112,0.112c0.17,0.16,0.352,0.312,0.543,0.441
	c0.031,0.021,0.064,0.038,0.1,0.062c0.178,0.112,0.361,0.215,0.557,0.301c0.004,0.004,0.006,0.006,0.012,0.008h-0.051v8.82h0.912
	h0.91v-8.439c1.963-0.006,3.619-1.322,4.135-3.119c2.285-0.111,4.104-2,4.104-4.311C355.45,110.264,353.519,108.332,351.136,108.332
	z"/>
<path fill="#AFD8E6" stroke="#AFD8E6" stroke-width="0.0174" stroke-linecap="round" stroke-linejoin="round" stroke-miterlimit="10" d="
	M585.168,78.155c-0.453,0-0.889,0.068-1.297,0.196c-0.129-1.992-1.609-3.611-3.537-3.96c0-0.001,0-0.007,0-0.007
	c-0.279-0.08-0.77-0.066-0.77-0.066c-2.383,0-4.312,1.932-4.312,4.314c0,0.482,0.08,0.944,0.225,1.378
	c-2.371,0.015-4.289,1.938-4.289,4.314c0,2.384,1.932,4.314,4.314,4.314c0.799,0,1.547-0.218,2.188-0.596
	c0.137,0.197,0.295,0.377,0.463,0.549c0.037,0.038,0.074,0.076,0.113,0.114c0.17,0.16,0.35,0.312,0.543,0.442
	c0.031,0.021,0.064,0.039,0.098,0.06c0.18,0.114,0.363,0.214,0.559,0.301c0.004,0.003,0.006,0.006,0.012,0.008h-0.051v8.819h0.912
	h0.908v-8.438c1.965-0.007,3.619-1.322,4.137-3.12c2.285-0.111,4.102-1.999,4.102-4.312
	C589.482,80.085,587.551,78.155,585.168,78.155z"/>
<path fill="#AFD8E6" stroke="#AFD8E6" stroke-width="0.024" stroke-linecap="round" stroke-linejoin="round" stroke-miterlimit="10" d="
	M563.236,83.573c-0.621,0-1.221,0.096-1.781,0.271c-0.176-2.742-2.217-4.97-4.865-5.448c0-0.001,0-0.009,0-0.009
	c-0.387-0.11-1.059-0.093-1.059-0.093c-3.275,0-5.936,2.657-5.936,5.937c0,0.664,0.107,1.301,0.309,1.896
	c-3.262,0.019-5.901,2.668-5.901,5.936c0,3.279,2.657,5.938,5.938,5.938c1.1,0,2.127-0.299,3.01-0.819
	c0.188,0.271,0.406,0.52,0.636,0.755c0.054,0.054,0.104,0.105,0.157,0.157c0.232,0.221,0.48,0.428,0.746,0.609
	c0.043,0.028,0.09,0.054,0.133,0.082c0.246,0.156,0.5,0.294,0.768,0.413c0.006,0.004,0.01,0.009,0.018,0.011h-0.069v12.134h1.255
	h1.254V99.732c2.701-0.008,4.979-1.818,5.688-4.293c3.145-0.152,5.645-2.75,5.645-5.93C569.175,86.23,566.516,83.573,563.236,83.573
	z"/>
<path fill="#AFD8E6" stroke="#AFD8E6" stroke-width="0.024" stroke-linecap="round" stroke-linejoin="round" stroke-miterlimit="10" d="
	M326.236,99.192c-0.621,0-1.221,0.096-1.78,0.271c-0.177-2.742-2.218-4.97-4.866-5.448c0-0.001,0-0.009,0-0.009
	c-0.386-0.11-1.059-0.093-1.059-0.093c-3.275,0-5.936,2.657-5.936,5.937c0,0.664,0.108,1.301,0.309,1.896
	c-3.262,0.019-5.901,2.668-5.901,5.936c0,3.279,2.658,5.938,5.938,5.938c1.101,0,2.127-0.299,3.01-0.819
	c0.188,0.271,0.406,0.521,0.636,0.755c0.054,0.055,0.104,0.105,0.158,0.157c0.231,0.222,0.479,0.429,0.745,0.608
	c0.043,0.029,0.091,0.055,0.134,0.082c0.246,0.156,0.5,0.295,0.767,0.414c0.006,0.004,0.01,0.009,0.018,0.011h-0.069v12.134h1.255
	h1.254v-11.609c2.701-0.008,4.979-1.817,5.688-4.293c3.145-0.151,5.645-2.75,5.645-5.93
	C332.175,101.85,329.516,99.192,326.236,99.192z"/>
<path fill="#635646" d="M841.891,130.187c-29.232,0-35.195-21.75-60.567-19.621c-25.608,4.003-34.656,13.598-57.692,14.462
	l-0.244,0.272h-9.216c-20.342,0-37.002-17.458-52.354-26.663c-29.344-17.595-54.953-13.862-77.363-4.12
	c-27.488,11.952-41.331,17.915-64.008,15.233c-14.918-1.763-30.562-16.514-55.634-14.953c-25.641,1.596-50.368,26.814-86.648,32.323
	c0,0-17.074,2.604-37.349-1.82c-24.316-5.308-41.211-4.466-75.458,0.707c-47.412,3.679-54.662,2.507-78.412-0.071
	c-27.21-4.953-39.856-10.615-65.467-6.613c-25.609,4.003-48.362,10.271-71.399,11.137c-23.036,0.863-50.996-0.676-50.996-0.676
	l-0.053,76.418h0.053h843.019"/>
<g id="Träd_5_">
	<rect x="650.109" y="122.118" fill="#B18048" width="6.672" height="32.294"/>
	<rect x="653.444" y="122.118" fill="#905E36" width="3.338" height="32.294"/>
	
		<path fill="#54B06F" stroke="#54B06F" stroke-width="0.0753" stroke-linecap="round" stroke-linejoin="round" stroke-miterlimit="10" d="
		M619.951,96.312c0-8.725,7.073-15.798,15.8-15.798c1.652,0,3.245,0.253,4.743,0.724c0.528-8.248,7.384-14.774,15.763-14.774
		c8.728,0,15.801,7.075,15.801,15.8c0,1.765-0.293,3.462-0.828,5.048c8.686,0.05,15.711,7.103,15.711,15.797
		c0,8.727-7.074,15.799-15.801,15.799c-2.923,0-5.662-0.796-8.01-2.181c-2.854,4.104-7.603,6.793-12.979,6.793
		c-7.208,0-13.286-4.83-15.183-11.429C626.606,111.685,619.951,104.774,619.951,96.312z"/>
	
		<path fill="#46A360" stroke="#46A360" stroke-width="0.0753" stroke-linecap="round" stroke-linejoin="round" stroke-miterlimit="10" d="
		M656.257,66.463c8.728,0,15.8,7.075,15.8,15.8c0,1.765-0.293,3.462-0.828,5.048c8.684,0.05,15.71,7.103,15.71,15.797
		c0,8.727-7.072,15.799-15.8,15.799c-2.924,0-5.662-0.795-8.01-2.182c-2.256,3.241-5.689,5.602-9.685,6.448c0,0,0-56.124,0-56.463
		C654.468,66.418,656.257,66.463,656.257,66.463z"/>
</g>
<g id="Träd_6_">
	<rect x="463.959" y="118.509" fill="#B18048" width="6.671" height="32.293"/>
	<rect x="467.293" y="118.509" fill="#905E36" width="3.338" height="32.293"/>
	
		<path fill="#54B06F" stroke="#54B06F" stroke-width="0.0753" stroke-linecap="round" stroke-linejoin="round" stroke-miterlimit="10" d="
		M433.8,92.701c0-8.724,7.072-15.798,15.799-15.798c1.653,0,3.247,0.253,4.744,0.724c0.527-8.247,7.382-14.774,15.763-14.774
		c8.729,0,15.801,7.075,15.801,15.801c0,1.765-0.294,3.462-0.829,5.048c8.686,0.05,15.711,7.103,15.711,15.797
		c0,8.727-7.072,15.8-15.801,15.8c-2.923,0-5.662-0.796-8.01-2.182c-2.854,4.104-7.603,6.793-12.979,6.793
		c-7.209,0-13.286-4.828-15.184-11.427C440.454,108.074,433.8,101.165,433.8,92.701z"/>
	
		<path fill="#46A360" stroke="#46A360" stroke-width="0.0753" stroke-linecap="round" stroke-linejoin="round" stroke-miterlimit="10" d="
		M470.104,62.853c8.728,0,15.802,7.075,15.802,15.801c0,1.765-0.294,3.462-0.829,5.048c8.686,0.05,15.711,7.103,15.711,15.797
		c0,8.727-7.072,15.8-15.802,15.8c-2.922,0-5.661-0.796-8.009-2.182c-2.255,3.241-5.69,5.601-9.684,6.448c0,0,0-56.125,0-56.462
		C468.316,62.808,470.104,62.853,470.104,62.853z"/>
</g>
<g id="Träd_1_">
	<rect x="219.959" y="120.366" fill="#B18048" width="6.671" height="32.293"/>
	<rect x="223.293" y="120.366" fill="#905E36" width="3.338" height="32.293"/>
	
		<path fill="#54B06F" stroke="#54B06F" stroke-width="0.0753" stroke-linecap="round" stroke-linejoin="round" stroke-miterlimit="10" d="
		M189.8,94.559c0-8.724,7.073-15.798,15.799-15.798c1.653,0,3.247,0.253,4.744,0.724c0.528-8.247,7.382-14.774,15.763-14.774
		c8.729,0,15.802,7.075,15.802,15.801c0,1.765-0.295,3.462-0.829,5.048c8.685,0.05,15.711,7.103,15.711,15.797
		c0,8.728-7.073,15.8-15.802,15.8c-2.923,0-5.661-0.797-8.01-2.182c-2.854,4.104-7.602,6.793-12.978,6.793
		c-7.209,0-13.287-4.828-15.185-11.429C196.455,109.932,189.8,103.022,189.8,94.559z"/>
	
		<path fill="#46A360" stroke="#46A360" stroke-width="0.0753" stroke-linecap="round" stroke-linejoin="round" stroke-miterlimit="10" d="
		M226.104,64.71c8.729,0,15.802,7.075,15.802,15.801c0,1.765-0.294,3.462-0.828,5.048c8.685,0.05,15.711,7.103,15.711,15.797
		c0,8.728-7.073,15.799-15.803,15.799c-2.922,0-5.66-0.795-8.009-2.182c-2.255,3.242-5.689,5.602-9.684,6.449c0,0,0-56.125,0-56.463
		C224.316,64.666,226.104,64.71,226.104,64.71z"/>
</g>
<g>
	<g>
		<g>
			<path fill="#46A360" d="M818.195,151.058v-3.584c-0.064-1.065-0.078-1.111-1.782-1.402c-4.358-0.746-3.721-6.661-3.721-6.661
				s4.315-0.011,5.641,2.771c0,0,0.571,1.365,0.571,4.363v4.514H818.195L818.195,151.058z"/>
		</g>
	</g>
	<g>
		<g>
			<path fill="#54B06F" d="M820.25,152.058v-1.322c0.064-1.065,0.077-1.11,1.782-1.403c4.077-0.697,4.005-4.038,3.723-6.66
				c0,0-4.316-0.012-5.642,2.771c0,0-0.572,1.365-0.572,4.363v2.252H820.25L820.25,152.058z"/>
		</g>
	</g>
</g>
<g>
	<g>
		<g>
			<path fill="#46A360" d="M801.031,147.565v-6.797c0.122-2.024,0.146-2.109,3.379-2.664c8.266-1.414,7.058-12.633,7.058-12.633
				s-8.188-0.021-10.695,5.256c0,0-1.087,2.588-1.087,8.274v8.562h1.346V147.565z"/>
		</g>
	</g>
	<g>
		<g>
			<path fill="#54B06F" d="M797.129,147.565v-2.508c-0.122-2.023-0.146-2.108-3.378-2.662c-8.268-1.414-7.061-12.633-7.061-12.633
				s8.188-0.021,10.699,5.256c0,0,1.084,2.588,1.084,8.272v4.274H797.129L797.129,147.565z"/>
		</g>
	</g>
</g>
<path fill="#786855" d="M842.102,152.187c-9.146,0.143-18.725-1.02-29.443-2.129c-14.523-1.504-39.255-15.457-64.869-14.062
	c-25.479,1.392-38.409,13.407-66.851,16.08h-40.944c-20.339,0-37.001-8.124-52.351-17.329
	c-29.345-17.596-54.954-13.861-77.362-4.121c-27.493,11.953-41.333,17.915-64.009,15.232c-14.526-1.717-39.878-13.793-65.491-12.197
	c-25.64,1.596-38.564,15.482-67.376,18.415H-0.965v68.796h791.049h52.018"/>
</svg>
