<?xml version="1.0" encoding="utf-8"?>
<!-- Generator: Adobe Illustrator 15.0.2, SVG Export Plug-In . SVG Version: 6.00 Build 0)  -->
<!DOCTYPE svg PUBLIC "-//W3C//DTD SVG 1.1//EN" "http://www.w3.org/Graphics/SVG/1.1/DTD/svg11.dtd">
<svg version="1.1" id="Lager_1" xmlns="http://www.w3.org/2000/svg" xmlns:xlink="http://www.w3.org/1999/xlink" x="0px" y="0px"
	 width="263.322px" height="288.452px" viewBox="0 0 263.322 288.452" enable-background="new 0 0 263.322 288.452"
	 xml:space="preserve">
<g>
	<path fill="#BF3925" d="M127.445,1.909L60.302,45.096l-0.169,0.15l6.628,43.812l-42.925,31.808
		c-5.574,3.585-7.186,11.01-3.601,16.584l93.581,145.491c3.585,5.574,11.01,7.188,16.584,3.602l127.411-81.951
		c5.574-3.586,7.186-11.01,3.601-16.584L144.029,5.51C140.444-0.064,133.019-1.677,127.445,1.909z M133.28,27.33
		c3.203,4.981,1.765,11.616-3.217,14.82L77.472,81.121l-4.851-32.06l43.775-28.157c4.981-3.204,11.616-1.763,14.819,3.218
		L133.28,27.33z"/>
	<path opacity="0.5" fill="#A02217" d="M23.836,120.866c-5.574,3.585-7.186,11.01-3.601,16.584l93.581,145.491
		c3.585,5.574,11.01,7.188,16.584,3.602l127.411-81.951c5.574-3.586,7.186-11.01,3.601-16.584L23.836,120.866z"/>
	<path fill="#3C3C3B" stroke="#3C3C3B" stroke-miterlimit="10" d="M44.341,100.39l-9.052-12.169
		c-0.988-1.33-2.869-1.605-4.197-0.617l-20.996,15.619c-1.329,0.988-1.605,2.868-0.617,4.197l9.052,12.169L44.341,100.39z"/>
	<path fill="#1E181A" stroke="#1E181A" stroke-miterlimit="10" d="M31.699,109.793l-13.167,9.795l-9.052-12.169
		c-0.989-1.329-0.712-3.208,0.617-4.197l10.493-7.806L31.699,109.793z"/>
	<g>
		
			<path fill="#432918" stroke="#432918" stroke-width="1.5396" stroke-linecap="round" stroke-linejoin="round" stroke-miterlimit="10" d="
			M15.191,245.689c0,0,4.984,0.185,9.373-3.313c9.736-8.846,2.398-19.475,2.398-19.475l-11.771-19.13L3.42,222.901
			c0,0-7.336,10.629,2.4,19.475C10.209,245.874,15.191,245.689,15.191,245.689z"/>
		
			<path fill="#5B3926" stroke="#5B3926" stroke-width="1.5396" stroke-linecap="round" stroke-linejoin="round" stroke-miterlimit="10" d="
			M15.191,245.689c0,0-4.982,0.185-9.371-3.313c-9.736-8.846-2.4-19.475-2.4-19.475l11.771-19.13V245.689z"/>
	</g>
	<g>
		
			<path fill="#432918" stroke="#432918" stroke-width="1.0652" stroke-linecap="round" stroke-linejoin="round" stroke-miterlimit="10" d="
			M15.191,188.689c0,0,3.448,0.129,6.484-2.292c6.735-6.119,1.659-13.473,1.659-13.473l-8.143-13.234l-8.143,13.234
			c0,0-5.075,7.354,1.66,13.473C11.745,188.818,15.191,188.689,15.191,188.689z"/>
		
			<path fill="#5B3926" stroke="#5B3926" stroke-width="1.0652" stroke-linecap="round" stroke-linejoin="round" stroke-miterlimit="10" d="
			M15.191,188.689c0,0-3.447,0.129-6.483-2.292c-6.735-6.119-1.66-13.473-1.66-13.473l8.143-13.234V188.689z"/>
	</g>
</g>
</svg>
