<?xml version="1.0" encoding="utf-8"?>
<!-- Generator: Adobe Illustrator 15.0.2, SVG Export Plug-In . SVG Version: 6.00 Build 0)  -->
<!DOCTYPE svg PUBLIC "-//W3C//DTD SVG 1.1//EN" "http://www.w3.org/Graphics/SVG/1.1/DTD/svg11.dtd">
<svg version="1.1" id="Lager_1" xmlns="http://www.w3.org/2000/svg" xmlns:xlink="http://www.w3.org/1999/xlink" x="0px" y="0px"
	 width="233.418px" height="596.306px" viewBox="0 0 233.418 596.306" enable-background="new 0 0 233.418 596.306"
	 xml:space="preserve">
<g>
	<g>
		<g>
			<g>
				<path fill="#53B06E" d="M110.945,478.673c-0.066,4.059-0.131,27.779-3.757,35.445c-8.913,18.879-38.183,18.879-38.183,18.879
					s-4.414-40.094,25.119-45.222c11.557-1.997,10.95-2.065,12.054-9.542v-8.767h4.767V478.673z"/>
			</g>
		</g>
		<g>
			<g>
				<path fill="#44A260" d="M115.251,494.24c0.059,4.053,0.133,27.771,3.747,35.438c8.922,18.882,38.19,18.882,38.19,18.882
					s4.414-40.092-25.124-45.218c-11.555-2.008-10.938-2.077-12.057-9.547v-24.328h-4.757V494.24z"/>
			</g>
			<g>
				<path fill="#44A260" d="M115.384,501.334c0.237,8.821,1.001,22.792,3.614,28.344c8.922,18.882,38.19,18.882,38.19,18.882"/>
			</g>
		</g>
		<g>
			<g>
				<path fill="#53B06E" d="M108.846,541.988c0.057,4.049,0.132,27.768,3.747,35.436c8.925,18.883,38.193,18.883,38.193,18.883
					s4.412-40.09-25.129-45.215c-11.556-2.013-10.938-2.076-12.057-9.547v-18.297h-4.755V541.988z"/>
			</g>
			<g>
				<path fill="#53B06E" d="M108.978,549.079c0.236,8.817,0.999,22.791,3.615,28.345c8.925,18.883,38.193,18.883,38.193,18.883"/>
			</g>
		</g>
	</g>
	<g>
		<path fill="#1B181B" d="M212.688,314.016c0-3.131,2.538-5.669,5.669-5.669h5.162c3.132,0,5.67,2.538,5.67,5.669v62.335
			c0,3.132-2.538,5.669-5.67,5.669h-5.162c-3.131,0-5.669-2.537-5.669-5.669V314.016z"/>
		<path fill="#1B181B" d="M212.688,74.894c0-3.132,2.538-5.669,5.669-5.669h5.162c3.132,0,5.67,2.537,5.67,5.669v62.334
			c0,3.132-2.538,5.67-5.67,5.67h-5.162c-3.131,0-5.669-2.538-5.669-5.67V74.894z"/>
		<path fill="#1B181B" d="M5.986,314.016c0-3.131,2.538-5.669,5.669-5.669h5.162c3.132,0,5.67,2.538,5.67,5.669v62.335
			c0,3.132-2.538,5.669-5.67,5.669h-5.162c-3.131,0-5.669-2.537-5.669-5.669V314.016z"/>
		<path fill="#1B181B" d="M5.986,74.894c0-3.132,2.538-5.669,5.669-5.669h5.162c3.132,0,5.67,2.537,5.67,5.669v62.334
			c0,3.132-2.538,5.67-5.67,5.67h-5.162c-3.131,0-5.669-2.538-5.669-5.67V74.894z"/>
		<path fill="#E7503F" d="M217.723,32.577c0.383,3.256,1.168,6.52,1.168,9.943v345.955c0,8.731-2.632,16.849-7.146,23.601
			c-4.531,6.778-10.96,12.181-18.525,15.449l-0.526,0.205c-81.956,28-152.458-0.109-152.458-0.109l-0.592-0.21
			c-7.387-3.252-13.672-8.543-18.145-15.162c-4.584-6.786-7.262-14.967-7.262-23.773V42.521c0-3.424-0.189-6.91,0.998-9.943
			c4.832-12.328,23-20.133,23-20.133s74.502-28,156.458,0C194.693,12.444,216.555,22.634,217.723,32.577z"/>
		
			<line fill="none" stroke="#233241" stroke-width="5.6915" stroke-linecap="round" stroke-linejoin="round" stroke-miterlimit="10" x1="124.62" y1="431.574" x2="108.494" y2="431.574"/>
		<path fill="#EDF7FB" d="M190.787,121.073l-12.999,90.5H55.528l-13.199-90.5C42.329,121.073,108.831,93.073,190.787,121.073z"/>
		<path fill="#EDF7FB" d="M188.787,405.851l-7.998-24.805H52.728l-8.398,24.805C44.329,405.851,107.331,436.324,188.787,405.851z"/>
		<polygon fill="#DEEAEF" points="26.532,241.544 26.532,136.124 33.733,136.124 43.698,207.574 43.698,241.544 		"/>
		<polygon fill="#DEEAEF" points="43.698,361.241 26.532,361.241 26.532,395.465 33.733,395.465 		"/>
		<rect x="26.532" y="251.266" fill="#DEEAEF" width="17.166" height="100.252"/>
		<polygon fill="#DEEAEF" points="206.586,241.544 206.586,136.124 199.384,136.124 189.419,207.574 189.419,241.544 		"/>
		<polygon fill="#DEEAEF" points="189.419,361.241 206.586,361.241 206.586,395.465 199.384,395.465 		"/>
		<rect x="189.419" y="251.266" fill="#DEEAEF" width="17.167" height="100.252"/>
		<path fill="#BE3B28" d="M31.567,133.149c3.18-0.93,6.514,0.893,7.445,4.072l0,0c0.93,3.18-0.893,6.514-4.072,7.445l-27.254,7.979
			c-3.18,0.932-6.512-0.893-7.443-4.072l0,0c-0.932-3.18,0.893-6.512,4.072-7.443L31.567,133.149z"/>
		<path fill="#BE3B28" d="M201.85,133.149c-3.18-0.93-6.513,0.893-7.444,4.072l0,0c-0.931,3.18,0.893,6.514,4.072,7.445
			l27.253,7.979c3.18,0.932,6.513-0.893,7.444-4.072l0,0c0.931-3.18-0.893-6.512-4.072-7.443L201.85,133.149z"/>
		<polygon fill="#DEEAEF" points="190.787,121.073 177.788,211.574 55.528,211.574 		"/>
		<path fill="#DEEAEF" d="M180.789,381.046l7.998,24.805c-81.456,30.473-144.458,0-144.458,0L180.789,381.046z"/>
		<g>
			
				<path fill="#FFFFFF" stroke="#FFFFFF" stroke-width="4" stroke-linecap="round" stroke-linejoin="round" stroke-miterlimit="10" d="
				M69.737,10.351L35.772,28.573V15.827c0,0,16.846-7.604,33.965-9.527C69.737,7.337,69.737,10.351,69.737,10.351z"/>
			
				<path fill="#ECECED" stroke="#ECECED" stroke-width="4" stroke-linecap="round" stroke-linejoin="round" stroke-miterlimit="10" d="
				M69.737,6.3c0,1.037,0,4.051,0,4.051L35.772,28.573L69.737,6.3z"/>
		</g>
		
			<path fill="#F19304" stroke="#F19304" stroke-width="4" stroke-linecap="round" stroke-linejoin="round" stroke-miterlimit="10" d="
			M61.987,427.657l-26.215-17.055v12.746c0,0,9.096,6.435,26.215,8.358C61.987,430.67,61.987,427.657,61.987,427.657z"/>
		
			<path fill="#F19304" stroke="#F19304" stroke-width="4" stroke-linecap="round" stroke-linejoin="round" stroke-miterlimit="10" d="
			M171.787,427.657l26.215-17.055v12.746c0,0-9.096,6.435-26.215,8.358C171.787,430.67,171.787,427.657,171.787,427.657z"/>
		<g>
			
				<path fill="#FFFFFF" stroke="#FFFFFF" stroke-width="4" stroke-linecap="round" stroke-linejoin="round" stroke-miterlimit="10" d="
				M163.601,10.351l33.965,18.223V15.827c0,0-16.846-7.604-33.965-9.527C163.601,7.337,163.601,10.351,163.601,10.351z"/>
			
				<path fill="#ECECED" stroke="#ECECED" stroke-width="4" stroke-linecap="round" stroke-linejoin="round" stroke-miterlimit="10" d="
				M163.601,6.3c0,1.037,0,4.051,0,4.051l33.965,18.223L163.601,6.3z"/>
		</g>
		<rect x="14.237" y="351.518" fill="#BE3B28" width="12.295" height="9.723"/>
		<rect x="14.237" y="241.544" fill="#BE3B28" width="12.295" height="9.722"/>
		<rect x="206.843" y="351.518" fill="#BE3B28" width="12.294" height="9.723"/>
		<rect x="206.843" y="241.544" fill="#BE3B28" width="12.294" height="9.722"/>
		<polygon opacity="0.3" fill="#BE3B28" points="177.737,224.574 177.737,370.907 52.755,370.907 		"/>
		<path opacity="0.3" fill="#BE3B28" d="M191.767,42.138c-82.486-38.836-150.416,0-150.416,0v66.492
			c0,0,66.949-27.307,150.416-0.201C191.767,68.706,191.767,42.138,191.767,42.138z"/>
	</g>
</g>
</svg>
