<?xml version="1.0" encoding="utf-8"?>
<!-- Generator: Adobe Illustrator 15.0.2, SVG Export Plug-In . SVG Version: 6.00 Build 0)  -->
<!DOCTYPE svg PUBLIC "-//W3C//DTD SVG 1.1//EN" "http://www.w3.org/Graphics/SVG/1.1/DTD/svg11.dtd">
<svg version="1.1" id="Lager_1" xmlns="http://www.w3.org/2000/svg" xmlns:xlink="http://www.w3.org/1999/xlink" x="0px" y="0px"
	 width="233.419px" height="596.307px" viewBox="0 0 233.419 596.307" enable-background="new 0 0 233.419 596.307"
	 xml:space="preserve">
<g>
	<g>
		<g>
			<g>
				<path fill="#53B06E" d="M110.946,478.673c-0.066,4.059-0.131,27.779-3.757,35.445c-8.913,18.879-38.183,18.879-38.183,18.879
					s-4.414-40.094,25.119-45.221c11.557-1.998,10.95-2.065,12.055-9.543v-8.766h4.766V478.673z"/>
			</g>
		</g>
		<g>
			<g>
				<path fill="#44A260" d="M115.251,494.24c0.06,4.052,0.134,27.771,3.747,35.438c8.922,18.881,38.191,18.881,38.191,18.881
					s4.414-40.092-25.125-45.217c-11.555-2.008-10.938-2.077-12.057-9.547v-24.328h-4.757V494.24z"/>
			</g>
			<g>
				<path fill="#44A260" d="M115.385,501.335c0.236,8.82,1,22.792,3.613,28.344c8.922,18.881,38.191,18.881,38.191,18.881"/>
			</g>
		</g>
		<g>
			<g>
				<path fill="#53B06E" d="M108.846,541.987c0.057,4.05,0.133,27.769,3.747,35.436c8.925,18.884,38.194,18.884,38.194,18.884
					s4.411-40.091-25.129-45.216c-11.557-2.012-10.938-2.076-12.058-9.547v-18.296h-4.755V541.987z"/>
			</g>
			<g>
				<path fill="#53B06E" d="M108.979,549.079c0.235,8.816,0.998,22.791,3.614,28.344c8.925,18.884,38.194,18.884,38.194,18.884"/>
			</g>
		</g>
	</g>
	<path fill="#1B181B" d="M212.689,314.017c0-3.131,2.538-5.67,5.669-5.67h5.162c3.132,0,5.67,2.539,5.67,5.67v62.334
		c0,3.132-2.538,5.67-5.67,5.67h-5.162c-3.131,0-5.669-2.538-5.669-5.67V314.017z"/>
	<path fill="#1B181B" d="M212.689,74.894c0-3.132,2.538-5.669,5.669-5.669h5.162c3.132,0,5.67,2.537,5.67,5.669v62.334
		c0,3.132-2.538,5.67-5.67,5.67h-5.162c-3.131,0-5.669-2.538-5.669-5.67V74.894z"/>
	<path fill="#1B181B" d="M5.987,314.017c0-3.131,2.538-5.67,5.669-5.67h5.162c3.132,0,5.67,2.539,5.67,5.67v62.334
		c0,3.132-2.538,5.67-5.67,5.67h-5.162c-3.131,0-5.669-2.538-5.669-5.67V314.017z"/>
	<path fill="#1B181B" d="M5.987,74.894c0-3.132,2.538-5.669,5.669-5.669h5.162c3.132,0,5.67,2.537,5.67,5.669v62.334
		c0,3.132-2.538,5.67-5.67,5.67h-5.162c-3.131,0-5.669-2.538-5.669-5.67V74.894z"/>
	<path fill="#545457" d="M217.723,32.577c0.383,3.256,1.168,6.52,1.168,9.943v345.955c0,8.73-2.631,16.848-7.145,23.6
		c-4.531,6.779-10.961,12.182-18.525,15.449l-0.527,0.205c-81.955,28-152.458-0.109-152.458-0.109l-0.592-0.209
		c-7.387-3.252-13.672-8.544-18.145-15.162c-4.584-6.787-7.262-14.968-7.262-23.773V42.521c0-3.424-0.189-6.91,0.998-9.943
		c4.832-12.328,23-20.133,23-20.133s74.503-28,156.458,0C194.694,12.444,216.555,22.634,217.723,32.577z"/>
	
		<line fill="none" stroke="#233241" stroke-width="5.6915" stroke-linecap="round" stroke-linejoin="round" stroke-miterlimit="10" x1="124.622" y1="431.573" x2="108.495" y2="431.573"/>
	<path fill="#EDF7FB" d="M190.788,121.073l-12.998,90.5H55.529l-13.199-90.5C42.33,121.073,108.833,93.073,190.788,121.073z"/>
	<path fill="#EDF7FB" d="M188.788,405.851l-7.998-24.805H52.728l-8.398,24.805C44.33,405.851,107.333,436.323,188.788,405.851z"/>
	<polygon fill="#DEEAEF" points="26.533,241.544 26.533,136.124 33.734,136.124 43.699,207.574 43.699,241.544 	"/>
	<polygon fill="#DEEAEF" points="43.699,361.24 26.533,361.24 26.533,395.466 33.734,395.466 	"/>
	<rect x="26.533" y="251.266" fill="#DEEAEF" width="17.166" height="100.252"/>
	<polygon fill="#DEEAEF" points="206.586,241.544 206.586,136.124 199.385,136.124 189.42,207.574 189.42,241.544 	"/>
	<polygon fill="#DEEAEF" points="189.42,361.24 206.586,361.24 206.586,395.466 199.385,395.466 	"/>
	<rect x="189.42" y="251.266" fill="#DEEAEF" width="17.166" height="100.252"/>
	<path fill="#3F3E40" d="M31.568,133.149c3.18-0.93,6.514,0.893,7.445,4.072l0,0c0.93,3.18-0.893,6.514-4.072,7.445l-27.254,7.979
		c-3.18,0.932-6.512-0.893-7.443-4.072l0,0c-0.932-3.18,0.893-6.512,4.072-7.443L31.568,133.149z"/>
	<path fill="#3F3E40" d="M201.85,133.149c-3.18-0.93-6.512,0.893-7.443,4.072l0,0c-0.932,3.18,0.893,6.514,4.072,7.445l27.252,7.979
		c3.18,0.932,6.514-0.893,7.445-4.072l0,0c0.93-3.18-0.893-6.512-4.072-7.443L201.85,133.149z"/>
	<polygon fill="#DEEAEF" points="190.788,121.073 177.79,211.574 55.529,211.574 	"/>
	<path fill="#DEEAEF" d="M180.79,381.046l7.998,24.805c-81.455,30.473-144.458,0-144.458,0L180.79,381.046z"/>
	<g>
		
			<path fill="#FFFFFF" stroke="#FFFFFF" stroke-width="4" stroke-linecap="round" stroke-linejoin="round" stroke-miterlimit="10" d="
			M69.738,10.351L35.773,28.573V15.827c0,0,16.846-7.604,33.965-9.527C69.738,7.337,69.738,10.351,69.738,10.351z"/>
		
			<path fill="#ECECED" stroke="#ECECED" stroke-width="4" stroke-linecap="round" stroke-linejoin="round" stroke-miterlimit="10" d="
			M69.738,6.3c0,1.037,0,4.051,0,4.051L35.773,28.573L69.738,6.3z"/>
	</g>
	
		<path fill="#F19304" stroke="#F19304" stroke-width="4" stroke-linecap="round" stroke-linejoin="round" stroke-miterlimit="10" d="
		M61.988,427.657l-26.215-17.056v12.747c0,0,9.096,6.434,26.215,8.357C61.988,430.671,61.988,427.657,61.988,427.657z"/>
	
		<path fill="#F19304" stroke="#F19304" stroke-width="4" stroke-linecap="round" stroke-linejoin="round" stroke-miterlimit="10" d="
		M171.788,427.657l26.215-17.056v12.747c0,0-9.096,6.434-26.215,8.357C171.788,430.671,171.788,427.657,171.788,427.657z"/>
	<g>
		
			<path fill="#FFFFFF" stroke="#FFFFFF" stroke-width="4" stroke-linecap="round" stroke-linejoin="round" stroke-miterlimit="10" d="
			M163.602,10.351l33.965,18.223V15.827c0,0-16.846-7.604-33.965-9.527C163.602,7.337,163.602,10.351,163.602,10.351z"/>
		
			<path fill="#ECECED" stroke="#ECECED" stroke-width="4" stroke-linecap="round" stroke-linejoin="round" stroke-miterlimit="10" d="
			M163.602,6.3c0,1.037,0,4.051,0,4.051l33.965,18.223L163.602,6.3z"/>
	</g>
	<rect x="14.238" y="351.519" fill="#3F3E40" width="12.295" height="9.722"/>
	<rect x="14.238" y="241.544" fill="#3F3E40" width="12.295" height="9.722"/>
	<rect x="206.844" y="351.519" fill="#3F3E40" width="12.293" height="9.722"/>
	<rect x="206.844" y="241.544" fill="#3F3E40" width="12.293" height="9.722"/>
	<polygon opacity="0.3" fill="#3F3E40" points="177.739,224.574 177.739,370.907 52.755,370.907 	"/>
	<path opacity="0.3" fill="#3F3E40" d="M191.768,42.138c-82.487-38.836-150.417,0-150.417,0v66.492c0,0,66.95-27.307,150.417-0.201
		C191.768,68.706,191.768,42.138,191.768,42.138z"/>
</g>
</svg>
