<?xml version="1.0" encoding="utf-8"?>
<!-- Generator: Adobe Illustrator 17.1.0, SVG Export Plug-In . SVG Version: 6.00 Build 0)  -->
<!DOCTYPE svg PUBLIC "-//W3C//DTD SVG 1.1//EN" "http://www.w3.org/Graphics/SVG/1.1/DTD/svg11.dtd">
<svg version="1.1" id="Layer_1" xmlns="http://www.w3.org/2000/svg" xmlns:xlink="http://www.w3.org/1999/xlink" x="0px" y="0px"
	 viewBox="0 0 250.236 132.517" enable-background="new 0 0 250.236 132.517" xml:space="preserve">
<g>
	
		<path fill="#E94B3D" stroke="#E94B3D" stroke-width="4" stroke-linecap="round" stroke-linejoin="round" stroke-miterlimit="10" d="
		M242.026,114.576c0-4.021,2.602-7.43,6.21-8.652v-6.767c-3.608-1.223-6.21-4.631-6.21-8.651s2.602-7.429,6.21-8.651v-6.767
		c-3.608-1.223-6.21-4.631-6.21-8.651c0-4.021,2.602-7.43,6.21-8.651v-6.768c-3.608-1.223-6.21-4.63-6.21-8.65
		c0-4.022,2.602-7.43,6.21-8.652v-6.768c-3.608-1.222-6.21-4.63-6.21-8.65c0-4.022,2.602-7.43,6.21-8.652V2.022H2v7.403
		c4,0.975,6.973,4.571,6.973,8.871c0,4.299-2.973,7.896-6.973,8.87v6.329c4,0.974,6.973,4.57,6.973,8.871
		C8.973,46.666,6,50.263,2,51.236v6.329c4,0.975,6.973,4.571,6.973,8.871c0,4.299-2.973,7.896-6.973,8.87v6.328
		c4,0.975,6.973,4.572,6.973,8.871C8.973,94.805,6,98.402,2,99.377v6.328c4,0.975,6.973,4.571,6.973,8.871
		c0,4.299-2.973,7.896-6.973,8.87v7.07h246.236v-7.29C244.628,122.005,242.026,118.597,242.026,114.576z"/>
	<g>
		<path fill="#FFFFFF" d="M58.882,0v5.656c0,0.829-0.671,1.5-1.5,1.5c-0.829,0-1.5-0.671-1.5-1.5V0H58.882z"/>
		<path fill="#FFFFFF" d="M57.382,117.156c-0.829,0-1.5-0.672-1.5-1.5v-11c0-0.828,0.671-1.5,1.5-1.5c0.829,0,1.5,0.672,1.5,1.5v11
			C58.882,116.484,58.21,117.156,57.382,117.156z M57.382,95.156c-0.829,0-1.5-0.672-1.5-1.5v-11c0-0.828,0.671-1.5,1.5-1.5
			c0.829,0,1.5,0.672,1.5,1.5v11C58.882,94.484,58.21,95.156,57.382,95.156z M57.382,73.156c-0.829,0-1.5-0.672-1.5-1.5v-11
			c0-0.828,0.671-1.5,1.5-1.5c0.829,0,1.5,0.672,1.5,1.5v11C58.882,72.484,58.21,73.156,57.382,73.156z M57.382,51.156
			c-0.829,0-1.5-0.672-1.5-1.5v-11c0-0.828,0.671-1.5,1.5-1.5c0.829,0,1.5,0.672,1.5,1.5v11
			C58.882,50.484,58.21,51.156,57.382,51.156z M57.382,29.156c-0.829,0-1.5-0.672-1.5-1.5v-11c0-0.828,0.671-1.5,1.5-1.5
			c0.829,0,1.5,0.672,1.5,1.5v11C58.882,28.484,58.21,29.156,57.382,29.156z"/>
		<path fill="#FFFFFF" d="M58.882,132.5v-5.844c0-0.828-0.671-1.5-1.5-1.5c-0.829,0-1.5,0.672-1.5,1.5v5.844H58.882z"/>
	</g>
	<g>
		<g>
			
				<rect x="72.972" y="11.906" fill="none" stroke="#C03928" stroke-width="1.5" stroke-linecap="round" stroke-linejoin="round" stroke-miterlimit="10" width="159.332" height="108.5"/>
			<g>
				
					<path fill="#FFFFFF" stroke="#FFFFFF" stroke-width="0.5572" stroke-linecap="round" stroke-linejoin="round" stroke-miterlimit="10" d="
					M120.458,66.156l-0.061-41.898c6.16,0.198,10.808,1.043,13.946,2.536c3.138,1.488,4.707,3.716,4.707,6.675
					c0,2.957-0.834,5.154-2.503,6.585c-1.668,1.431-3.693,2.304-6.077,2.619c3.138,0.281,5.81,1.373,8.014,3.278
					c2.205,1.906,3.308,4.7,3.308,8.376c0,3.677-1.819,6.552-5.454,8.638C132.704,65.056,127.41,66.117,120.458,66.156z
					 M136.846,33.438c0-2.226-1.271-3.933-3.814-5.124c-2.541-1.195-6.019-1.791-10.428-1.791v15.137
					C132.098,41.543,136.846,38.803,136.846,33.438z M139.588,53.997c0-2.066-0.577-3.792-1.729-5.185
					c-1.152-1.392-2.702-2.381-4.649-2.978c-3.259-1.077-6.775-1.609-10.548-1.609v19.666c3.218-0.039,5.999-0.407,8.344-1.102
					c2.342-0.697,4.11-1.581,5.303-2.652C138.495,58.11,139.588,56.063,139.588,53.997z"/>
				
					<path fill="#FFFFFF" stroke="#FFFFFF" stroke-width="0.5572" stroke-linecap="round" stroke-linejoin="round" stroke-miterlimit="10" d="
					M150.731,65.977h-2.204V24.379h2.204V65.977z"/>
				
					<path fill="#FFFFFF" stroke="#FFFFFF" stroke-width="0.5572" stroke-linecap="round" stroke-linejoin="round" stroke-miterlimit="10" d="
					M184.879,45.475c0,6.558-1.113,11.61-3.337,15.166c-2.226,3.556-5.444,5.335-9.654,5.335c-4.211,0-7.548-1.799-10.012-5.394
					c-2.464-3.593-3.696-8.7-3.696-15.315c0-6.615,1.212-11.82,3.635-15.617c2.425-3.793,5.801-5.688,10.132-5.688
					c2.583,0,4.777,0.664,6.587,1.998c1.806,1.329,3.147,3.128,4.023,5.393C184.106,35.524,184.879,40.233,184.879,45.475z
					 M182.675,44.463c0-5.524-0.934-9.934-2.801-13.232c-1.868-3.297-4.549-4.945-8.046-4.945c-3.497,0-6.278,1.639-8.344,4.917
					c-2.066,3.278-3.097,7.978-3.097,14.094c0,7.115,1.608,12.339,4.826,15.676c1.787,1.828,3.834,2.74,6.141,2.74
					c2.303,0,4.19-0.515,5.659-1.547c1.47-1.033,2.602-2.465,3.398-4.292C181.921,54.453,182.675,49.987,182.675,44.463z"/>
			</g>
		</g>
		<g>
			<path fill="#FFFFFF" d="M134.692,93.984c-0.033,0.067-0.106,0.203-0.217,0.409c-0.111,0.205-0.255,0.444-0.434,0.717
				c-0.178,0.271-0.389,0.561-0.633,0.866c-0.245,0.306-0.512,0.587-0.8,0.842c-0.289,0.255-0.601,0.467-0.934,0.634
				c-0.333,0.166-0.678,0.25-1.034,0.25c-0.578,0-1.067-0.104-1.467-0.309c-0.4-0.206-0.728-0.437-0.984-0.692
				c-0.178,0.389-0.394,0.745-0.65,1.067c-0.256,0.323-0.539,0.603-0.85,0.842c-0.312,0.239-0.642,0.426-0.992,0.559
				s-0.708,0.2-1.076,0.2c-0.678,0-1.256-0.2-1.734-0.601c-0.478-0.399-0.875-0.937-1.192-1.608
				c-0.316-0.673-0.564-1.453-0.741-2.343c-0.178-0.889-0.314-1.821-0.409-2.8c-0.095-0.978-0.153-1.968-0.175-2.968
				c-0.022-1-0.034-1.95-0.034-2.85c0-1.724,0.05-3.215,0.15-4.477c0.1-1.262,0.236-2.334,0.409-3.218
				c0.172-0.883,0.372-1.6,0.6-2.15c0.228-0.55,0.47-0.978,0.726-1.283c0.256-0.306,0.517-0.514,0.784-0.625
				c0.267-0.111,0.528-0.167,0.783-0.167c0.411,0,0.775,0.123,1.092,0.367c0.317,0.244,0.583,0.586,0.8,1.025
				c0.217,0.438,0.381,0.97,0.492,1.592c0.111,0.622,0.167,1.306,0.167,2.051c0,1.188-0.128,2.417-0.384,3.684
				c-0.255,1.267-0.586,2.531-0.992,3.792c-0.406,1.262-0.858,2.5-1.358,3.718c-0.5,1.217-0.995,2.37-1.484,3.459
				c0.066,0.545,0.167,1.063,0.3,1.559c0.133,0.495,0.306,0.934,0.517,1.316c0.211,0.384,0.461,0.69,0.75,0.917
				c0.289,0.228,0.623,0.342,1,0.342c0.378,0,0.734-0.107,1.067-0.324c0.334-0.218,0.622-0.5,0.867-0.851
				c0.245-0.351,0.436-0.747,0.575-1.191c0.139-0.445,0.209-0.901,0.209-1.367c0-0.312-0.031-0.625-0.092-0.942
				c-0.061-0.316-0.156-0.6-0.283-0.851c-0.128-0.249-0.287-0.452-0.475-0.607c-0.189-0.156-0.417-0.234-0.684-0.234
				c-0.2,0-0.356,0.042-0.467,0.126c-0.111,0.083-0.194,0.178-0.25,0.283c-0.056,0.105-0.089,0.209-0.1,0.309
				c-0.011,0.101-0.017,0.166-0.017,0.2c0,0.154,0.033,0.311,0.1,0.466c0.066,0.156,0.194,0.295,0.383,0.417
				c0.189,0.134,0.283,0.317,0.283,0.551c0,0.188-0.064,0.339-0.192,0.45c-0.127,0.11-0.27,0.166-0.424,0.166
				c-0.223,0-0.42-0.067-0.592-0.2c-0.172-0.133-0.319-0.303-0.441-0.508c-0.123-0.206-0.217-0.425-0.284-0.659
				c-0.066-0.233-0.1-0.449-0.1-0.649c0-0.323,0.056-0.619,0.166-0.893c0.111-0.272,0.264-0.505,0.459-0.7
				c0.194-0.194,0.417-0.345,0.667-0.449c0.25-0.105,0.514-0.158,0.792-0.158c0.478,0,0.892,0.111,1.242,0.333
				c0.35,0.223,0.642,0.517,0.875,0.883c0.233,0.367,0.406,0.784,0.517,1.251c0.111,0.466,0.167,0.938,0.167,1.417
				c0,0.277-0.017,0.55-0.05,0.816c0.044,0.089,0.116,0.205,0.217,0.351c0.1,0.145,0.233,0.282,0.399,0.417
				c0.167,0.133,0.367,0.249,0.601,0.35c0.233,0.1,0.505,0.15,0.816,0.15c0.267,0,0.542-0.103,0.825-0.309
				c0.283-0.206,0.555-0.461,0.817-0.768c0.261-0.305,0.502-0.633,0.725-0.982c0.223-0.351,0.406-0.676,0.551-0.977
				c0.055-0.111,0.133-0.197,0.233-0.258c0.1-0.061,0.211-0.092,0.334-0.092c0.189,0,0.342,0.066,0.458,0.2
				c0.117,0.134,0.175,0.284,0.175,0.45C134.759,93.784,134.737,93.873,134.692,93.984z M121.807,91.834
				c0.377-0.934,0.761-1.914,1.15-2.942c0.389-1.028,0.739-2.075,1.05-3.143c0.311-1.066,0.567-2.145,0.767-3.233
				c0.2-1.089,0.3-2.162,0.3-3.217c0-0.4-0.02-0.82-0.058-1.26c-0.039-0.438-0.108-0.842-0.208-1.208
				c-0.1-0.367-0.236-0.672-0.408-0.917c-0.173-0.245-0.392-0.366-0.659-0.366c-0.088,0-0.203,0.058-0.341,0.175
				c-0.139,0.116-0.287,0.322-0.441,0.616c-0.156,0.295-0.312,0.704-0.467,1.226c-0.155,0.522-0.297,1.187-0.425,1.992
				c-0.128,0.806-0.233,1.775-0.317,2.908c-0.083,1.135-0.125,2.468-0.125,4.002c0,0.511,0.006,1.03,0.017,1.559
				c0.011,0.528,0.025,1.03,0.042,1.508c0.017,0.479,0.036,0.918,0.059,1.316C121.762,91.25,121.784,91.578,121.807,91.834z"/>
			<path fill="#FFFFFF" d="M136.276,85.517c0,0.421-0.147,0.78-0.442,1.074c-0.294,0.295-0.652,0.442-1.075,0.442
				c-0.423,0-0.781-0.148-1.076-0.442c-0.294-0.294-0.441-0.653-0.441-1.074c0-0.212,0.039-0.409,0.117-0.593
				c0.078-0.183,0.186-0.345,0.325-0.482c0.14-0.14,0.3-0.248,0.484-0.325c0.184-0.079,0.38-0.117,0.592-0.117
				c0.211,0,0.408,0.038,0.592,0.117c0.183,0.077,0.344,0.185,0.483,0.325c0.139,0.138,0.248,0.3,0.326,0.482
				C136.237,85.107,136.276,85.305,136.276,85.517z M133.576,95.285c0-1.601,0.1-3.195,0.3-4.785
				c0.022-0.155,0.092-0.291,0.208-0.408c0.116-0.116,0.27-0.175,0.458-0.175c0.167,0,0.306,0.064,0.417,0.192
				c0.111,0.128,0.167,0.274,0.167,0.44c0,0.067-0.014,0.268-0.042,0.602c-0.028,0.333-0.061,0.73-0.1,1.191
				c-0.039,0.461-0.072,0.95-0.1,1.467c-0.027,0.517-0.042,0.991-0.042,1.426c0,0.589,0.059,1.063,0.175,1.425
				c0.117,0.361,0.267,0.642,0.45,0.842s0.378,0.334,0.583,0.399c0.205,0.067,0.403,0.101,0.592,0.101
				c0.311,0,0.633-0.11,0.967-0.333c0.333-0.223,0.675-0.533,1.025-0.934c0.35-0.4,0.703-0.881,1.058-1.441
				c0.356-0.562,0.706-1.187,1.05-1.877c0.056-0.111,0.134-0.197,0.233-0.258c0.1-0.061,0.211-0.092,0.334-0.092
				c0.178,0,0.325,0.066,0.441,0.2c0.117,0.134,0.175,0.277,0.175,0.434c0,0.111-0.023,0.206-0.067,0.283
				c-0.133,0.256-0.3,0.567-0.5,0.934c-0.2,0.367-0.428,0.744-0.683,1.134c-0.256,0.389-0.537,0.775-0.842,1.158
				c-0.306,0.384-0.631,0.729-0.976,1.033c-0.344,0.307-0.706,0.554-1.084,0.742c-0.378,0.188-0.761,0.283-1.15,0.283
				c-0.5,0-0.939-0.104-1.316-0.316c-0.378-0.211-0.698-0.495-0.958-0.851c-0.262-0.355-0.456-0.774-0.583-1.259
				C133.64,96.359,133.576,95.841,133.576,95.285z M135.342,85.517c0-0.156-0.058-0.292-0.175-0.409
				c-0.117-0.116-0.253-0.175-0.408-0.175c-0.156,0-0.289,0.059-0.4,0.175c-0.112,0.117-0.167,0.253-0.167,0.409
				c0,0.155,0.056,0.288,0.167,0.399c0.111,0.111,0.244,0.167,0.4,0.167c0.155,0,0.291-0.056,0.408-0.167
				C135.284,85.805,135.342,85.672,135.342,85.517z"/>
			<path fill="#FFFFFF" d="M150.212,93.984c-0.123,0.256-0.275,0.559-0.459,0.909c-0.184,0.35-0.392,0.714-0.625,1.092
				c-0.233,0.378-0.494,0.753-0.783,1.125c-0.289,0.372-0.603,0.705-0.942,1c-0.338,0.294-0.699,0.533-1.083,0.717
				c-0.383,0.184-0.792,0.274-1.226,0.274c-0.666,0-1.239-0.205-1.717-0.616c-0.477-0.411-0.883-0.95-1.217-1.617
				c-0.333-0.667-0.603-1.425-0.809-2.274c-0.206-0.851-0.364-1.718-0.475-2.602c-0.112-0.883-0.187-1.742-0.226-2.575
				c-0.039-0.833-0.058-1.572-0.058-2.217c0-0.935,0.03-1.9,0.092-2.9c0.061-1.001,0.158-1.979,0.291-2.935
				c0.133-0.956,0.303-1.861,0.509-2.717c0.205-0.856,0.45-1.605,0.733-2.251c0.284-0.645,0.609-1.156,0.976-1.533
				c0.366-0.378,0.783-0.567,1.25-0.567c0.367,0,0.698,0.086,0.992,0.258c0.294,0.174,0.542,0.453,0.742,0.843
				c0.2,0.39,0.355,0.895,0.466,1.518c0.111,0.621,0.167,1.384,0.167,2.282c0,1.112-0.117,2.26-0.35,3.443
				c-0.234,1.183-0.55,2.375-0.951,3.575c-0.4,1.2-0.873,2.398-1.417,3.594c-0.544,1.193-1.128,2.358-1.75,3.491
				c0.278,1.412,0.65,2.521,1.116,3.326c0.467,0.805,1.028,1.209,1.684,1.209c0.444,0,0.872-0.176,1.284-0.525
				c0.411-0.351,0.789-0.765,1.134-1.242c0.344-0.479,0.647-0.965,0.908-1.458c0.261-0.495,0.464-0.893,0.608-1.193
				c0.056-0.111,0.133-0.197,0.233-0.258c0.1-0.061,0.211-0.092,0.333-0.092c0.189,0,0.342,0.066,0.459,0.2
				c0.117,0.134,0.175,0.284,0.175,0.45C150.279,93.784,150.256,93.873,150.212,93.984z M141.86,87.283
				c0,0.712,0.017,1.394,0.05,2.05c0.034,0.656,0.078,1.284,0.134,1.884c0.467-0.899,0.912-1.858,1.333-2.875
				c0.422-1.017,0.795-2.045,1.117-3.084c0.322-1.039,0.581-2.072,0.775-3.101c0.194-1.028,0.292-2.009,0.292-2.942
				c0-1.312-0.106-2.251-0.317-2.817c-0.211-0.566-0.495-0.85-0.85-0.85c-0.234,0-0.459,0.16-0.675,0.483
				c-0.217,0.321-0.419,0.761-0.609,1.316c-0.188,0.556-0.361,1.212-0.517,1.968c-0.155,0.756-0.286,1.566-0.392,2.433
				c-0.105,0.867-0.189,1.773-0.25,2.718C141.891,85.411,141.86,86.35,141.86,87.283z"/>
			<path fill="#FFFFFF" d="M150.346,99.186c0.411-0.444,0.833-0.914,1.267-1.408c0.434-0.495,0.851-0.989,1.251-1.483
				c0.4-0.495,0.767-0.984,1.1-1.468c0.334-0.483,0.594-0.941,0.784-1.375c0.1-0.244,0.289-0.367,0.567-0.367
				c0.189,0,0.342,0.063,0.459,0.191c0.117,0.128,0.175,0.27,0.175,0.426c0,0.089-0.017,0.172-0.05,0.25
				c-0.256,0.578-0.606,1.178-1.05,1.801c-0.444,0.622-0.926,1.242-1.442,1.858c-0.517,0.616-1.044,1.217-1.583,1.801
				c-0.539,0.583-1.031,1.125-1.475,1.625c0.011,0.889,0.025,1.761,0.041,2.617c0.017,0.855,0.025,1.667,0.025,2.435
				c0,3.055-0.3,5.322-0.9,6.801c-0.6,1.478-1.495,2.217-2.684,2.217c-0.411,0-0.789-0.089-1.134-0.267
				c-0.344-0.178-0.639-0.434-0.883-0.767c-0.245-0.334-0.436-0.744-0.575-1.234c-0.139-0.488-0.208-1.044-0.208-1.666
				c0-0.689,0.092-1.443,0.275-2.26s0.477-1.68,0.883-2.592c0.406-0.911,0.931-1.854,1.576-2.825
				c0.644-0.973,1.422-1.959,2.333-2.959c0-0.956,0.005-1.909,0.017-2.858c0.011-0.951,0.031-1.862,0.059-2.734
				c0.028-0.873,0.066-1.689,0.116-2.451c0.05-0.761,0.108-1.436,0.175-2.024c0.022-0.167,0.092-0.301,0.208-0.4
				s0.258-0.15,0.425-0.15c0.166,0,0.311,0.061,0.433,0.184c0.122,0.122,0.184,0.272,0.184,0.449c0,0.067-0.02,0.284-0.058,0.65
				c-0.04,0.367-0.081,0.905-0.125,1.617c-0.045,0.711-0.086,1.593-0.125,2.643C150.365,96.51,150.346,97.752,150.346,99.186z
				 M149.162,105.986c0-0.566-0.006-1.133-0.017-1.7c-0.011-0.566-0.022-1.183-0.033-1.85c-0.689,0.833-1.275,1.656-1.759,2.468
				c-0.483,0.81-0.88,1.589-1.191,2.333c-0.311,0.744-0.536,1.45-0.675,2.117c-0.139,0.667-0.208,1.272-0.208,1.817
				c0,0.311,0.022,0.624,0.066,0.941c0.044,0.317,0.126,0.605,0.242,0.866c0.116,0.263,0.275,0.473,0.475,0.635
				c0.2,0.16,0.456,0.24,0.767,0.24c0.122,0,0.267-0.026,0.434-0.082c0.166-0.056,0.336-0.176,0.508-0.358
				c0.172-0.184,0.342-0.448,0.508-0.793c0.167-0.344,0.317-0.809,0.45-1.391c0.134-0.584,0.239-1.304,0.317-2.16
				C149.123,108.215,149.162,107.188,149.162,105.986z M151.946,85.517c0,0.421-0.147,0.78-0.442,1.074
				c-0.294,0.295-0.653,0.442-1.076,0.442c-0.422,0-0.78-0.148-1.075-0.442c-0.295-0.294-0.442-0.653-0.442-1.074
				c0-0.212,0.038-0.409,0.117-0.593c0.078-0.183,0.186-0.345,0.325-0.482c0.139-0.14,0.3-0.248,0.483-0.325
				c0.184-0.079,0.381-0.117,0.592-0.117c0.211,0,0.408,0.038,0.592,0.117c0.184,0.077,0.345,0.185,0.484,0.325
				c0.139,0.138,0.247,0.3,0.325,0.482C151.907,85.107,151.946,85.305,151.946,85.517z M150.996,85.517
				c0-0.156-0.056-0.292-0.167-0.409c-0.111-0.116-0.244-0.175-0.4-0.175c-0.156,0-0.292,0.059-0.408,0.175
				c-0.117,0.117-0.175,0.253-0.175,0.409c0,0.155,0.058,0.288,0.175,0.399c0.117,0.111,0.252,0.167,0.408,0.167
				c0.156,0,0.289-0.056,0.4-0.167C150.94,85.805,150.996,85.672,150.996,85.517z"/>
			<path fill="#FFFFFF" d="M156.747,96.769c0.233,0.321,0.533,0.581,0.9,0.774c0.367,0.195,0.817,0.293,1.35,0.293
				c0.545,0,1.04-0.132,1.484-0.393c0.444-0.261,0.85-0.603,1.217-1.025c0.367-0.422,0.694-0.894,0.983-1.417
				c0.29-0.521,0.55-1.044,0.784-1.567c0.056-0.121,0.134-0.214,0.233-0.274c0.1-0.061,0.211-0.092,0.333-0.092
				c0.189,0,0.342,0.066,0.458,0.2c0.117,0.134,0.175,0.277,0.175,0.434c0,0.056-0.005,0.103-0.017,0.142
				c-0.011,0.039-0.028,0.081-0.05,0.125c-0.767,1.69-1.604,2.962-2.509,3.817c-0.905,0.855-1.931,1.295-3.075,1.316
				c-0.733,0-1.367-0.142-1.9-0.424c-0.533-0.284-0.973-0.65-1.317-1.101c-0.345-0.45-0.6-0.959-0.767-1.525
				c-0.167-0.567-0.251-1.134-0.251-1.7c0-0.567,0.069-1.09,0.208-1.567c0.139-0.479,0.339-0.895,0.6-1.251
				c0.261-0.356,0.572-0.633,0.934-0.833c0.361-0.2,0.758-0.3,1.191-0.3c0.256,0,0.509,0.053,0.759,0.158
				c0.25,0.105,0.475,0.256,0.675,0.45c0.2,0.194,0.361,0.431,0.483,0.708c0.122,0.278,0.184,0.596,0.184,0.951
				c0,0.456-0.078,0.884-0.234,1.283c-0.155,0.4-0.369,0.772-0.642,1.117c-0.272,0.345-0.598,0.661-0.975,0.949
				C157.586,96.308,157.18,96.558,156.747,96.769z M156.246,95.685c0.345-0.145,0.659-0.328,0.942-0.551
				c0.284-0.222,0.525-0.466,0.726-0.732c0.2-0.268,0.355-0.547,0.466-0.842c0.111-0.294,0.167-0.592,0.167-0.892
				c0-0.334-0.083-0.586-0.25-0.759c-0.167-0.172-0.361-0.258-0.584-0.258c-0.299,0-0.555,0.082-0.767,0.249
				c-0.211,0.167-0.383,0.384-0.517,0.651c-0.133,0.266-0.231,0.563-0.292,0.891c-0.061,0.328-0.092,0.653-0.092,0.976
				c0,0.199,0.02,0.411,0.058,0.634C156.144,95.273,156.191,95.484,156.246,95.685z"/>
			<path fill="#FFFFFF" d="M176.968,81.916c0,0.177-0.061,0.318-0.184,0.425c-0.122,0.105-0.272,0.158-0.45,0.158h-8.451v0.183
				c0,0.679-0.05,1.401-0.15,2.167c-0.1,0.768-0.236,1.531-0.409,2.293c-0.172,0.761-0.367,1.503-0.583,2.226
				c-0.217,0.722-0.439,1.389-0.667,2c-0.228,0.612-0.453,1.143-0.675,1.592c-0.222,0.45-0.422,0.786-0.6,1.009
				c0.144,0.512,0.316,0.986,0.517,1.426c0.2,0.438,0.425,0.822,0.675,1.149c0.25,0.328,0.52,0.587,0.808,0.775
				c0.289,0.189,0.6,0.283,0.934,0.283c0.389,0,0.774-0.163,1.158-0.491c0.384-0.328,0.739-0.717,1.067-1.167
				c0.328-0.45,0.617-0.905,0.867-1.367c0.25-0.461,0.431-0.831,0.542-1.108c0.111-0.267,0.305-0.4,0.583-0.4
				c0.189,0,0.342,0.066,0.459,0.2c0.117,0.134,0.175,0.277,0.175,0.434c0,0.078-0.017,0.155-0.05,0.232
				c-0.034,0.079-0.114,0.256-0.242,0.534c-0.128,0.277-0.294,0.601-0.5,0.968c-0.206,0.366-0.444,0.752-0.717,1.158
				c-0.272,0.405-0.578,0.774-0.917,1.108c-0.339,0.334-0.703,0.611-1.092,0.834c-0.389,0.222-0.8,0.333-1.233,0.333
				c-0.767,0-1.456-0.251-2.067-0.751c-0.611-0.5-1.13-1.2-1.559-2.101c-0.428-0.899-0.753-1.966-0.975-3.2
				c-0.222-1.233-0.333-2.584-0.333-4.05c0-0.367,0.005-0.798,0.017-1.293c0.011-0.495,0.033-1.017,0.066-1.567
				c0.033-0.55,0.083-1.116,0.15-1.7c0.067-0.582,0.156-1.152,0.267-1.708h-5.984c-0.178,0-0.328-0.053-0.451-0.158
				c-0.122-0.106-0.183-0.248-0.183-0.425c0-0.179,0.061-0.32,0.183-0.426c0.123-0.105,0.273-0.158,0.451-0.158h6.268
				c0.111-0.4,0.242-0.768,0.392-1.101s0.322-0.622,0.517-0.867c0.194-0.244,0.411-0.435,0.65-0.574
				c0.239-0.14,0.503-0.209,0.792-0.209c0.277,0,0.519,0.069,0.725,0.209c0.206,0.139,0.38,0.33,0.525,0.574
				c0.144,0.245,0.258,0.534,0.342,0.867c0.083,0.333,0.147,0.7,0.191,1.101h8.518c0.178,0,0.328,0.053,0.45,0.158
				C176.907,81.596,176.968,81.737,176.968,81.916z M164.415,92.301c0.333-0.733,0.636-1.525,0.909-2.375
				c0.272-0.851,0.505-1.709,0.7-2.576c0.195-0.866,0.345-1.717,0.45-2.55c0.106-0.834,0.159-1.601,0.159-2.301h-1.967
				c-0.156,0.688-0.28,1.542-0.374,2.559c-0.095,1.017-0.142,2.254-0.142,3.71c0,0.811,0.023,1.491,0.066,2.042
				C164.259,91.358,164.326,91.856,164.415,92.301z M165.965,79.832c-0.1,0-0.244,0.107-0.434,0.325
				c-0.188,0.216-0.377,0.607-0.566,1.175h1.6c-0.055-0.467-0.136-0.833-0.242-1.101C166.218,79.965,166.099,79.832,165.965,79.832z
				"/>
			<path fill="#FFFFFF" d="M184.936,81.916c0,0.177-0.061,0.318-0.184,0.425c-0.122,0.105-0.272,0.158-0.45,0.158h-8.451v0.183
				c0,0.679-0.05,1.401-0.15,2.167c-0.1,0.768-0.236,1.531-0.408,2.293c-0.172,0.761-0.367,1.503-0.583,2.226
				c-0.217,0.722-0.439,1.389-0.667,2c-0.228,0.612-0.453,1.143-0.675,1.592c-0.222,0.45-0.422,0.786-0.6,1.009
				c0.144,0.512,0.316,0.986,0.517,1.426c0.2,0.438,0.425,0.822,0.675,1.149c0.25,0.328,0.519,0.587,0.808,0.775
				c0.289,0.189,0.6,0.283,0.934,0.283c0.389,0,0.775-0.163,1.159-0.491c0.384-0.328,0.739-0.717,1.067-1.167
				c0.328-0.45,0.617-0.905,0.867-1.367c0.251-0.461,0.431-0.831,0.542-1.108c0.111-0.267,0.305-0.4,0.583-0.4
				c0.189,0,0.342,0.066,0.459,0.2c0.117,0.134,0.175,0.277,0.175,0.434c0,0.078-0.017,0.155-0.05,0.232
				c-0.034,0.079-0.114,0.256-0.242,0.534c-0.127,0.277-0.294,0.601-0.5,0.968c-0.205,0.366-0.444,0.752-0.716,1.158
				c-0.272,0.405-0.578,0.774-0.917,1.108c-0.338,0.334-0.703,0.611-1.091,0.834c-0.389,0.222-0.801,0.333-1.234,0.333
				c-0.767,0-1.455-0.251-2.067-0.751c-0.611-0.5-1.131-1.2-1.559-2.101c-0.428-0.899-0.753-1.966-0.976-3.2
				c-0.222-1.233-0.333-2.584-0.333-4.05c0-0.367,0.005-0.798,0.017-1.293c0.011-0.495,0.033-1.017,0.066-1.567
				c0.034-0.55,0.084-1.116,0.15-1.7c0.067-0.582,0.156-1.152,0.267-1.708h-5.984c-0.178,0-0.328-0.053-0.451-0.158
				c-0.122-0.106-0.183-0.248-0.183-0.425c0-0.179,0.061-0.32,0.183-0.426c0.123-0.105,0.273-0.158,0.451-0.158h6.268
				c0.111-0.4,0.242-0.768,0.392-1.101c0.15-0.333,0.322-0.622,0.517-0.867c0.194-0.244,0.411-0.435,0.65-0.574
				c0.239-0.14,0.503-0.209,0.792-0.209c0.277,0,0.52,0.069,0.725,0.209c0.205,0.139,0.38,0.33,0.525,0.574
				c0.145,0.245,0.258,0.534,0.342,0.867c0.083,0.333,0.147,0.7,0.191,1.101h8.518c0.178,0,0.328,0.053,0.45,0.158
				C184.875,81.596,184.936,81.737,184.936,81.916z M172.383,92.301c0.334-0.733,0.636-1.525,0.909-2.375
				c0.272-0.851,0.505-1.709,0.7-2.576c0.195-0.866,0.345-1.717,0.45-2.55c0.106-0.834,0.159-1.601,0.159-2.301h-1.967
				c-0.155,0.688-0.28,1.542-0.374,2.559c-0.095,1.017-0.142,2.254-0.142,3.71c0,0.811,0.022,1.491,0.067,2.042
				C172.227,91.358,172.295,91.856,172.383,92.301z M173.934,79.832c-0.1,0-0.244,0.107-0.433,0.325
				c-0.189,0.216-0.378,0.607-0.567,1.175h1.6c-0.056-0.467-0.136-0.833-0.242-1.101C174.187,79.965,174.067,79.832,173.934,79.832z
				"/>
		</g>
	</g>
	<g>
		
			<path fill="#FFFFFF" stroke="#FFFFFF" stroke-width="0.5" stroke-linecap="round" stroke-linejoin="round" stroke-miterlimit="10" d="
			M23.317,42.864v-0.911h15.456l-1.632-3.601h0.888l2.088,4.512H23.317z"/>
		
			<path fill="#FFFFFF" stroke="#FFFFFF" stroke-width="0.5" stroke-linecap="round" stroke-linejoin="round" stroke-miterlimit="10" d="
			M31.453,46.297h8.664v7.872h-0.888v-7.057h-5.784c0.576,0.801,0.864,1.688,0.864,2.664c0,1.744-0.496,3.068-1.488,3.973
			c-0.992,0.904-2.224,1.355-3.696,1.355c-1.472,0-2.804-0.476-3.996-1.428c-1.191-0.952-1.787-2.18-1.787-3.684
			c0-1.072,0.308-2.028,0.924-2.868c0.615-0.84,1.388-1.284,2.315-1.332v0.888c-0.608,0.064-1.14,0.412-1.596,1.045
			c-0.456,0.631-0.684,1.428-0.684,2.387c0,1.217,0.479,2.197,1.44,2.94c0.96,0.744,2.056,1.116,3.288,1.116
			c1.232,0,2.271-0.376,3.12-1.128c0.848-0.753,1.271-1.849,1.271-3.288c0-0.72-0.184-1.393-0.552-2.016
			C32.5,47.112,32.029,46.633,31.453,46.297z"/>
		
			<path fill="#FFFFFF" stroke="#FFFFFF" stroke-width="0.5" stroke-linecap="round" stroke-linejoin="round" stroke-miterlimit="10" d="
			M31.573,67.944c-2.64,0-4.668-0.447-6.084-1.344c-1.416-0.896-2.124-2.195-2.124-3.9c0-1.703,0.72-3.047,2.16-4.031
			c1.44-0.984,3.483-1.477,6.132-1.477s4.68,0.48,6.096,1.441c1.416,0.96,2.124,2.328,2.124,4.104
			C39.876,66.208,37.109,67.944,31.573,67.944z M31.969,67.057c2.216,0,3.932-0.372,5.147-1.116
			c1.216-0.744,1.824-1.828,1.824-3.252c0-1.424-0.608-2.548-1.824-3.371c-1.216-0.824-3.04-1.236-5.472-1.236
			c-2.849,0-4.936,0.647-6.264,1.943c-0.736,0.721-1.104,1.545-1.104,2.473c0,0.928,0.208,1.688,0.624,2.279
			c0.416,0.592,0.984,1.049,1.704,1.368C27.964,66.753,29.752,67.057,31.969,67.057z"/>
		
			<path fill="#FFFFFF" stroke="#FFFFFF" stroke-width="0.5" stroke-linecap="round" stroke-linejoin="round" stroke-miterlimit="10" d="
			M23.317,84.36v-0.888h1.632c1.328,0,2.468-0.292,3.42-0.876c0.952-0.584,1.429-1.297,1.429-2.137c0-0.84-0.352-1.652-1.057-2.436
			l-1.464-1.393h-3.96v-0.887h18v0.887H28.573l6.769,6.504v1.225l-4.728-4.512c0.048,0.191,0.072,0.436,0.072,0.732
			c0,0.295-0.093,0.647-0.276,1.055c-0.184,0.408-0.472,0.824-0.864,1.248c-0.392,0.424-0.964,0.776-1.716,1.057
			c-0.752,0.279-1.616,0.42-2.592,0.42H23.317z"/>
		
			<path fill="#FFFFFF" stroke="#FFFFFF" stroke-width="0.5" stroke-linecap="round" stroke-linejoin="round" stroke-miterlimit="10" d="
			M23.317,87.672v-0.888h12v0.888h-1.752c0.399,0.336,0.828,0.853,1.284,1.548c0.456,0.696,0.684,1.359,0.684,1.992
			c0,0.632-0.18,1.184-0.54,1.656c-0.359,0.472-0.948,0.716-1.764,0.732v-0.889c0.447,0,0.8-0.145,1.056-0.432
			c0.256-0.288,0.384-0.681,0.384-1.176c0-0.496-0.239-1.101-0.72-1.812c-0.479-0.712-1.008-1.252-1.584-1.62H23.317z"/>
	</g>
</g>
</svg>
