<?xml version="1.0" encoding="utf-8"?>
<!-- Generator: Adobe Illustrator 15.0.2, SVG Export Plug-In . SVG Version: 6.00 Build 0)  -->
<!DOCTYPE svg PUBLIC "-//W3C//DTD SVG 1.1//EN" "http://www.w3.org/Graphics/SVG/1.1/DTD/svg11.dtd">
<svg version="1.1" id="Lager_1" xmlns="http://www.w3.org/2000/svg" xmlns:xlink="http://www.w3.org/1999/xlink" x="0px" y="0px"
	 width="250.236px" height="132.517px" viewBox="0 0 250.236 132.517" enable-background="new 0 0 250.236 132.517"
	 xml:space="preserve">
<g>
	
		<path fill="#E64D3D" stroke="#E64D3D" stroke-width="4" stroke-linecap="round" stroke-linejoin="round" stroke-miterlimit="10" d="
		M-505.974,116.271c0-4.021,2.602-7.43,6.21-8.652v-6.767c-3.608-1.223-6.21-4.631-6.21-8.651s2.602-7.429,6.21-8.651v-6.767
		c-3.608-1.223-6.21-4.631-6.21-8.651c0-4.021,2.602-7.43,6.21-8.651v-6.768c-3.608-1.223-6.21-4.63-6.21-8.65
		c0-4.022,2.602-7.43,6.21-8.652v-6.768c-3.608-1.222-6.21-4.63-6.21-8.65c0-4.021,2.602-7.43,6.21-8.652V3.717H-746v7.403
		c4,0.975,6.973,4.571,6.973,8.871c0,4.299-2.973,7.896-6.973,8.87v6.329c4,0.974,6.973,4.57,6.973,8.871
		c0,4.299-2.973,7.896-6.973,8.869v6.329c4,0.975,6.973,4.571,6.973,8.871c0,4.299-2.973,7.896-6.973,8.87v6.328
		c4,0.975,6.973,4.572,6.973,8.871s-2.973,7.896-6.973,8.871v6.328c4,0.975,6.973,4.571,6.973,8.871c0,4.299-2.973,7.896-6.973,8.87
		v7.07h246.236v-7.29C-503.373,123.699-505.974,120.291-505.974,116.271z"/>
	<g>
		<path fill="#FFFFFF" d="M-689.119,1.694v5.656c0,0.829-0.671,1.5-1.5,1.5s-1.5-0.671-1.5-1.5V1.694H-689.119z"/>
		<path fill="#FFFFFF" d="M-690.619,118.851c-0.829,0-1.5-0.672-1.5-1.5v-11c0-0.828,0.671-1.5,1.5-1.5s1.5,0.672,1.5,1.5v11
			C-689.119,118.179-689.79,118.851-690.619,118.851z M-690.619,96.851c-0.829,0-1.5-0.672-1.5-1.5v-11c0-0.828,0.671-1.5,1.5-1.5
			s1.5,0.672,1.5,1.5v11C-689.119,96.179-689.79,96.851-690.619,96.851z M-690.619,74.851c-0.829,0-1.5-0.672-1.5-1.5v-11
			c0-0.828,0.671-1.5,1.5-1.5s1.5,0.672,1.5,1.5v11C-689.119,74.179-689.79,74.851-690.619,74.851z M-690.619,52.851
			c-0.829,0-1.5-0.672-1.5-1.5v-11c0-0.828,0.671-1.5,1.5-1.5s1.5,0.672,1.5,1.5v11C-689.119,52.179-689.79,52.851-690.619,52.851z
			 M-690.619,30.851c-0.829,0-1.5-0.672-1.5-1.5v-11c0-0.828,0.671-1.5,1.5-1.5s1.5,0.672,1.5,1.5v11
			C-689.119,30.179-689.79,30.851-690.619,30.851z"/>
		<path fill="#FFFFFF" d="M-689.119,134.194v-5.844c0-0.828-0.671-1.5-1.5-1.5s-1.5,0.672-1.5,1.5v5.844H-689.119z"/>
	</g>
	<g>
		<g>
			
				<rect x="-675.029" y="13.601" fill="none" stroke="#BF3929" stroke-width="1.5" stroke-linecap="round" stroke-linejoin="round" stroke-miterlimit="10" width="159.332" height="108.5"/>
			<g>
				
					<path fill="#FFFFFF" stroke="#FFFFFF" stroke-width="0.5572" stroke-linecap="round" stroke-linejoin="round" stroke-miterlimit="10" d="
					M-627.542,67.851l-0.061-41.898c6.16,0.198,10.808,1.043,13.946,2.536c3.138,1.488,4.707,3.716,4.707,6.675
					c0,2.957-0.833,5.154-2.502,6.585c-1.668,1.431-3.693,2.304-6.077,2.619c3.138,0.281,5.81,1.373,8.014,3.278
					c2.205,1.906,3.308,4.7,3.308,8.376c0,3.677-1.819,6.552-5.454,8.638C-615.297,66.75-620.59,67.812-627.542,67.851z
					 M-611.155,35.132c0-2.226-1.271-3.933-3.814-5.124c-2.541-1.195-6.019-1.791-10.428-1.791v15.137
					C-615.903,43.237-611.155,40.497-611.155,35.132z M-608.412,55.691c0-2.066-0.577-3.792-1.729-5.185
					c-1.152-1.392-2.702-2.381-4.649-2.978c-3.259-1.077-6.775-1.609-10.548-1.609v19.666c3.218-0.039,6-0.407,8.344-1.102
					c2.342-0.697,4.11-1.581,5.303-2.652C-609.506,59.805-608.412,57.758-608.412,55.691z"/>
				
					<path fill="#FFFFFF" stroke="#FFFFFF" stroke-width="0.5572" stroke-linecap="round" stroke-linejoin="round" stroke-miterlimit="10" d="
					M-597.27,67.671h-2.204V26.073h2.204V67.671z"/>
				
					<path fill="#FFFFFF" stroke="#FFFFFF" stroke-width="0.5572" stroke-linecap="round" stroke-linejoin="round" stroke-miterlimit="10" d="
					M-563.121,47.17c0,6.558-1.113,11.61-3.336,15.166c-2.226,3.556-5.444,5.335-9.654,5.335c-4.211,0-7.548-1.799-10.012-5.394
					c-2.464-3.593-3.696-8.7-3.696-15.315s1.212-11.82,3.635-15.617c2.425-3.793,5.801-5.688,10.132-5.688
					c2.583,0,4.777,0.664,6.586,1.998c1.806,1.329,3.147,3.128,4.023,5.393C-563.895,37.219-563.121,41.928-563.121,47.17z
					 M-565.325,46.157c0-5.524-0.934-9.934-2.801-13.232c-1.868-3.297-4.549-4.945-8.046-4.945c-3.497,0-6.278,1.639-8.344,4.917
					s-3.097,7.979-3.097,14.094c0,7.115,1.608,12.339,4.826,15.676c1.787,1.828,3.834,2.74,6.141,2.74
					c2.303,0,4.19-0.515,5.659-1.547c1.47-1.033,2.602-2.465,3.398-4.292C-566.08,56.147-565.325,51.682-565.325,46.157z"/>
			</g>
		</g>
		<g>
			<path fill="#FFFFFF" d="M-613.308,95.679c-0.033,0.067-0.106,0.203-0.217,0.409c-0.111,0.205-0.255,0.444-0.434,0.717
				c-0.178,0.271-0.389,0.561-0.633,0.866c-0.245,0.306-0.512,0.587-0.8,0.842c-0.289,0.255-0.601,0.467-0.934,0.634
				c-0.333,0.166-0.678,0.25-1.034,0.25c-0.578,0-1.067-0.104-1.467-0.309c-0.4-0.206-0.728-0.437-0.984-0.692
				c-0.178,0.389-0.394,0.745-0.65,1.067c-0.256,0.323-0.539,0.603-0.85,0.842c-0.312,0.239-0.642,0.426-0.992,0.559
				s-0.708,0.2-1.076,0.2c-0.678,0-1.256-0.2-1.734-0.601c-0.478-0.399-0.875-0.937-1.192-1.608
				c-0.316-0.673-0.564-1.453-0.741-2.343c-0.178-0.889-0.314-1.821-0.409-2.8c-0.095-0.978-0.153-1.968-0.175-2.968
				c-0.022-1-0.034-1.95-0.034-2.85c0-1.724,0.05-3.215,0.15-4.477c0.1-1.262,0.236-2.334,0.409-3.218
				c0.172-0.883,0.372-1.6,0.6-2.15c0.228-0.55,0.47-0.978,0.726-1.283s0.517-0.514,0.784-0.625
				c0.267-0.111,0.528-0.167,0.783-0.167c0.411,0,0.775,0.123,1.092,0.367c0.317,0.244,0.583,0.586,0.8,1.025
				c0.217,0.438,0.381,0.97,0.492,1.592c0.111,0.622,0.167,1.306,0.167,2.051c0,1.188-0.128,2.417-0.384,3.684
				c-0.255,1.267-0.586,2.531-0.992,3.792c-0.406,1.262-0.858,2.5-1.358,3.718c-0.5,1.217-0.995,2.37-1.484,3.459
				c0.066,0.545,0.167,1.063,0.3,1.559c0.133,0.495,0.306,0.934,0.517,1.316c0.211,0.384,0.461,0.689,0.75,0.917
				c0.289,0.228,0.623,0.342,1,0.342c0.378,0,0.734-0.107,1.067-0.324c0.333-0.218,0.622-0.5,0.867-0.851s0.436-0.747,0.575-1.191
				c0.139-0.445,0.208-0.901,0.208-1.367c0-0.312-0.031-0.625-0.092-0.942c-0.061-0.316-0.156-0.6-0.283-0.851
				c-0.128-0.249-0.287-0.452-0.475-0.607c-0.189-0.156-0.417-0.234-0.684-0.234c-0.2,0-0.356,0.042-0.467,0.126
				c-0.111,0.083-0.194,0.178-0.25,0.283s-0.089,0.209-0.1,0.309c-0.011,0.101-0.017,0.166-0.017,0.2c0,0.154,0.033,0.311,0.1,0.466
				c0.066,0.156,0.194,0.295,0.383,0.417c0.189,0.134,0.283,0.317,0.283,0.551c0,0.188-0.064,0.339-0.192,0.45
				c-0.127,0.11-0.27,0.166-0.424,0.166c-0.223,0-0.42-0.067-0.592-0.2c-0.172-0.133-0.319-0.303-0.441-0.508
				c-0.123-0.206-0.217-0.425-0.284-0.659c-0.066-0.233-0.1-0.449-0.1-0.649c0-0.323,0.056-0.619,0.167-0.893
				c0.111-0.272,0.264-0.505,0.459-0.7c0.194-0.194,0.417-0.345,0.667-0.449c0.25-0.105,0.514-0.158,0.792-0.158
				c0.478,0,0.892,0.111,1.242,0.333c0.35,0.223,0.642,0.517,0.875,0.883c0.233,0.367,0.406,0.784,0.517,1.251
				c0.111,0.466,0.167,0.938,0.167,1.417c0,0.277-0.017,0.55-0.05,0.816c0.044,0.089,0.116,0.205,0.217,0.351
				c0.1,0.145,0.233,0.282,0.399,0.417c0.167,0.133,0.367,0.249,0.601,0.35c0.233,0.1,0.505,0.15,0.816,0.15
				c0.267,0,0.542-0.103,0.825-0.309s0.555-0.461,0.817-0.768c0.261-0.305,0.502-0.633,0.725-0.982
				c0.223-0.351,0.406-0.676,0.551-0.977c0.055-0.111,0.133-0.197,0.233-0.258s0.211-0.092,0.333-0.092
				c0.189,0,0.342,0.066,0.458,0.2s0.175,0.284,0.175,0.45C-613.241,95.479-613.263,95.567-613.308,95.679z M-626.194,93.528
				c0.377-0.934,0.761-1.914,1.15-2.942c0.389-1.028,0.739-2.075,1.05-3.143c0.311-1.066,0.567-2.145,0.767-3.233
				c0.2-1.089,0.3-2.162,0.3-3.217c0-0.4-0.02-0.82-0.058-1.26c-0.039-0.438-0.108-0.842-0.208-1.208
				c-0.1-0.367-0.236-0.672-0.408-0.917c-0.173-0.245-0.392-0.366-0.659-0.366c-0.088,0-0.203,0.058-0.341,0.175
				c-0.139,0.116-0.287,0.322-0.441,0.616c-0.156,0.295-0.312,0.704-0.467,1.226c-0.155,0.522-0.297,1.187-0.425,1.992
				s-0.233,1.775-0.317,2.908c-0.083,1.135-0.125,2.468-0.125,4.002c0,0.511,0.006,1.03,0.017,1.559
				c0.011,0.528,0.025,1.03,0.042,1.508c0.017,0.479,0.036,0.918,0.059,1.316C-626.239,92.944-626.217,93.272-626.194,93.528z"/>
			<path fill="#FFFFFF" d="M-611.725,87.211c0,0.421-0.147,0.78-0.442,1.074c-0.294,0.295-0.652,0.442-1.075,0.442
				c-0.423,0-0.781-0.147-1.076-0.442c-0.294-0.294-0.441-0.653-0.441-1.074c0-0.212,0.039-0.409,0.117-0.593
				c0.078-0.183,0.186-0.345,0.325-0.482c0.14-0.14,0.3-0.248,0.484-0.325c0.184-0.079,0.38-0.117,0.592-0.117
				c0.211,0,0.408,0.038,0.592,0.117c0.183,0.077,0.344,0.186,0.483,0.325c0.139,0.138,0.248,0.3,0.326,0.482
				C-611.763,86.802-611.725,86.999-611.725,87.211z M-614.425,96.979c0-1.601,0.1-3.195,0.3-4.785
				c0.022-0.155,0.092-0.291,0.208-0.408c0.116-0.116,0.27-0.175,0.458-0.175c0.167,0,0.306,0.064,0.417,0.192
				c0.111,0.128,0.167,0.274,0.167,0.44c0,0.067-0.014,0.268-0.042,0.602c-0.028,0.333-0.061,0.73-0.1,1.191
				c-0.039,0.461-0.072,0.95-0.1,1.467c-0.027,0.517-0.042,0.991-0.042,1.426c0,0.589,0.059,1.063,0.175,1.425
				s0.267,0.642,0.45,0.842s0.378,0.334,0.583,0.399c0.205,0.067,0.403,0.101,0.592,0.101c0.311,0,0.633-0.11,0.967-0.333
				c0.333-0.223,0.675-0.533,1.025-0.934c0.35-0.4,0.703-0.881,1.058-1.441c0.356-0.562,0.706-1.187,1.05-1.877
				c0.056-0.111,0.134-0.197,0.233-0.258s0.211-0.092,0.333-0.092c0.178,0,0.325,0.066,0.441,0.2
				c0.117,0.134,0.175,0.277,0.175,0.434c0,0.111-0.022,0.206-0.067,0.283c-0.133,0.256-0.3,0.567-0.5,0.934
				c-0.2,0.367-0.428,0.744-0.683,1.134c-0.256,0.389-0.537,0.775-0.842,1.158c-0.306,0.384-0.631,0.729-0.976,1.033
				c-0.344,0.307-0.706,0.554-1.083,0.742s-0.761,0.283-1.15,0.283c-0.5,0-0.939-0.104-1.316-0.316
				c-0.378-0.211-0.698-0.495-0.958-0.851c-0.262-0.355-0.456-0.774-0.583-1.259C-614.361,98.054-614.425,97.535-614.425,96.979z
				 M-612.658,87.211c0-0.156-0.058-0.292-0.175-0.409c-0.117-0.116-0.253-0.175-0.408-0.175c-0.156,0-0.289,0.059-0.4,0.175
				c-0.112,0.117-0.167,0.253-0.167,0.409c0,0.155,0.056,0.288,0.167,0.399c0.111,0.111,0.244,0.167,0.4,0.167
				c0.155,0,0.291-0.056,0.408-0.167C-612.716,87.499-612.658,87.366-612.658,87.211z"/>
			<path fill="#FFFFFF" d="M-597.788,95.679c-0.123,0.256-0.275,0.559-0.458,0.909c-0.184,0.35-0.392,0.714-0.625,1.092
				c-0.233,0.378-0.494,0.753-0.783,1.125s-0.603,0.705-0.942,1c-0.338,0.294-0.699,0.533-1.083,0.717
				c-0.383,0.184-0.792,0.274-1.226,0.274c-0.667,0-1.239-0.205-1.717-0.616c-0.478-0.411-0.883-0.95-1.217-1.617
				c-0.333-0.667-0.603-1.425-0.809-2.274c-0.206-0.851-0.364-1.718-0.475-2.602c-0.112-0.883-0.187-1.742-0.226-2.575
				s-0.058-1.572-0.058-2.217c0-0.935,0.03-1.9,0.092-2.9c0.061-1.001,0.158-1.979,0.292-2.935c0.133-0.956,0.303-1.861,0.509-2.717
				c0.205-0.856,0.45-1.605,0.733-2.251c0.284-0.645,0.609-1.156,0.976-1.533c0.366-0.378,0.783-0.567,1.25-0.567
				c0.367,0,0.698,0.086,0.992,0.258c0.294,0.174,0.542,0.453,0.742,0.843c0.2,0.39,0.355,0.895,0.466,1.518
				c0.111,0.621,0.167,1.384,0.167,2.282c0,1.112-0.117,2.26-0.35,3.443c-0.234,1.183-0.55,2.375-0.951,3.575
				s-0.873,2.398-1.417,3.594c-0.544,1.193-1.128,2.358-1.75,3.491c0.278,1.412,0.65,2.521,1.116,3.326
				c0.467,0.805,1.028,1.209,1.684,1.209c0.444,0,0.872-0.176,1.284-0.525c0.411-0.351,0.789-0.765,1.134-1.242
				c0.344-0.479,0.647-0.965,0.908-1.458c0.261-0.495,0.464-0.893,0.608-1.193c0.056-0.111,0.133-0.197,0.233-0.258
				s0.211-0.092,0.333-0.092c0.189,0,0.342,0.066,0.459,0.2c0.117,0.134,0.175,0.284,0.175,0.45
				C-597.722,95.479-597.744,95.567-597.788,95.679z M-606.14,88.978c0,0.712,0.017,1.395,0.05,2.05
				c0.034,0.656,0.078,1.284,0.134,1.884c0.467-0.899,0.912-1.858,1.333-2.875c0.422-1.017,0.795-2.045,1.117-3.084
				c0.322-1.039,0.581-2.072,0.775-3.101c0.194-1.028,0.292-2.009,0.292-2.942c0-1.312-0.106-2.251-0.317-2.817
				s-0.495-0.85-0.85-0.85c-0.234,0-0.458,0.16-0.675,0.483c-0.217,0.321-0.419,0.761-0.609,1.316
				c-0.188,0.556-0.361,1.212-0.517,1.968c-0.155,0.756-0.286,1.566-0.392,2.433c-0.105,0.867-0.188,1.773-0.25,2.718
				C-606.109,87.105-606.14,88.044-606.14,88.978z"/>
			<path fill="#FFFFFF" d="M-597.655,100.88c0.411-0.444,0.833-0.914,1.267-1.408c0.434-0.495,0.851-0.989,1.25-1.483
				c0.4-0.495,0.767-0.984,1.1-1.468c0.333-0.483,0.594-0.941,0.784-1.375c0.1-0.244,0.289-0.367,0.566-0.367
				c0.189,0,0.342,0.063,0.459,0.191c0.117,0.128,0.175,0.27,0.175,0.426c0,0.089-0.017,0.172-0.05,0.25
				c-0.256,0.578-0.606,1.178-1.05,1.801c-0.444,0.622-0.926,1.242-1.442,1.858s-1.044,1.217-1.583,1.801
				c-0.539,0.583-1.031,1.125-1.475,1.625c0.011,0.889,0.025,1.761,0.042,2.617c0.017,0.855,0.025,1.667,0.025,2.435
				c0,3.055-0.3,5.322-0.9,6.801c-0.6,1.478-1.495,2.217-2.684,2.217c-0.411,0-0.789-0.089-1.134-0.267
				c-0.344-0.178-0.639-0.434-0.883-0.767c-0.245-0.334-0.437-0.744-0.575-1.234c-0.139-0.488-0.208-1.044-0.208-1.666
				c0-0.689,0.092-1.443,0.275-2.26s0.478-1.68,0.883-2.592c0.406-0.911,0.931-1.854,1.576-2.825
				c0.645-0.973,1.422-1.959,2.333-2.959c0-0.956,0.005-1.909,0.017-2.858c0.011-0.951,0.031-1.862,0.059-2.734
				c0.028-0.873,0.066-1.689,0.116-2.451c0.05-0.761,0.108-1.436,0.175-2.024c0.022-0.167,0.092-0.301,0.208-0.4
				s0.258-0.15,0.425-0.15c0.167,0,0.311,0.061,0.433,0.184c0.122,0.122,0.184,0.272,0.184,0.449c0,0.067-0.02,0.284-0.058,0.65
				c-0.04,0.367-0.081,0.905-0.125,1.617c-0.044,0.711-0.086,1.593-0.125,2.643C-597.636,98.204-597.655,99.446-597.655,100.88z
				 M-598.838,107.681c0-0.566-0.006-1.133-0.017-1.7c-0.011-0.566-0.022-1.183-0.033-1.85c-0.689,0.833-1.275,1.656-1.759,2.468
				c-0.483,0.81-0.88,1.589-1.191,2.333c-0.312,0.744-0.536,1.45-0.675,2.117c-0.139,0.667-0.208,1.272-0.208,1.817
				c0,0.311,0.022,0.624,0.066,0.941c0.044,0.317,0.125,0.605,0.242,0.866c0.116,0.263,0.275,0.473,0.475,0.635
				c0.2,0.16,0.456,0.24,0.767,0.24c0.122,0,0.267-0.026,0.434-0.082c0.167-0.056,0.336-0.176,0.508-0.358
				c0.172-0.184,0.342-0.448,0.508-0.793c0.167-0.344,0.317-0.809,0.45-1.391c0.134-0.584,0.239-1.304,0.317-2.16
				C-598.877,109.909-598.838,108.882-598.838,107.681z M-596.054,87.211c0,0.421-0.147,0.78-0.442,1.074
				c-0.294,0.295-0.653,0.442-1.076,0.442c-0.422,0-0.78-0.147-1.075-0.442c-0.295-0.294-0.442-0.653-0.442-1.074
				c0-0.212,0.039-0.409,0.117-0.593c0.078-0.183,0.186-0.345,0.325-0.482c0.139-0.14,0.3-0.248,0.483-0.325
				c0.184-0.079,0.381-0.117,0.592-0.117c0.211,0,0.408,0.038,0.592,0.117c0.184,0.077,0.345,0.186,0.484,0.325
				c0.139,0.138,0.247,0.3,0.325,0.482C-596.094,86.802-596.054,86.999-596.054,87.211z M-597.004,87.211
				c0-0.156-0.056-0.292-0.167-0.409c-0.111-0.116-0.244-0.175-0.4-0.175s-0.292,0.059-0.408,0.175
				c-0.117,0.117-0.175,0.253-0.175,0.409c0,0.155,0.058,0.288,0.175,0.399s0.252,0.167,0.408,0.167s0.289-0.056,0.4-0.167
				C-597.06,87.499-597.004,87.366-597.004,87.211z"/>
			<path fill="#FFFFFF" d="M-591.253,98.463c0.233,0.321,0.533,0.581,0.9,0.774c0.367,0.195,0.817,0.293,1.35,0.293
				c0.545,0,1.04-0.132,1.484-0.393s0.85-0.603,1.217-1.025c0.367-0.422,0.694-0.894,0.983-1.417c0.29-0.521,0.55-1.044,0.784-1.567
				c0.056-0.121,0.134-0.214,0.233-0.274c0.1-0.061,0.211-0.092,0.333-0.092c0.189,0,0.342,0.066,0.458,0.2s0.175,0.277,0.175,0.434
				c0,0.056-0.005,0.103-0.017,0.142s-0.028,0.081-0.05,0.125c-0.767,1.689-1.604,2.962-2.509,3.817
				c-0.905,0.855-1.931,1.295-3.075,1.316c-0.733,0-1.367-0.142-1.9-0.424c-0.533-0.284-0.973-0.65-1.317-1.101
				c-0.345-0.45-0.6-0.959-0.767-1.525c-0.167-0.567-0.25-1.134-0.25-1.7c0-0.567,0.069-1.09,0.208-1.567
				c0.139-0.479,0.339-0.895,0.6-1.251c0.261-0.355,0.572-0.633,0.934-0.833c0.361-0.2,0.758-0.3,1.191-0.3
				c0.256,0,0.509,0.053,0.759,0.158s0.475,0.256,0.675,0.45c0.2,0.194,0.361,0.431,0.483,0.708
				c0.122,0.278,0.184,0.596,0.184,0.951c0,0.456-0.078,0.884-0.234,1.283c-0.155,0.4-0.369,0.772-0.642,1.117
				s-0.598,0.661-0.975,0.949C-590.415,98.002-590.82,98.252-591.253,98.463z M-591.754,97.379c0.345-0.145,0.659-0.328,0.942-0.551
				c0.284-0.222,0.525-0.466,0.726-0.732c0.2-0.268,0.355-0.547,0.466-0.842c0.111-0.294,0.167-0.592,0.167-0.892
				c0-0.334-0.083-0.586-0.25-0.759c-0.167-0.172-0.361-0.258-0.584-0.258c-0.299,0-0.555,0.082-0.767,0.249
				c-0.211,0.167-0.383,0.384-0.517,0.651c-0.133,0.266-0.231,0.563-0.292,0.891c-0.062,0.328-0.092,0.653-0.092,0.976
				c0,0.199,0.02,0.411,0.058,0.634C-591.856,96.968-591.81,97.179-591.754,97.379z"/>
			<path fill="#FFFFFF" d="M-571.033,83.61c0,0.177-0.061,0.318-0.184,0.425c-0.122,0.105-0.272,0.158-0.45,0.158h-8.451v0.183
				c0,0.679-0.05,1.401-0.15,2.167c-0.1,0.768-0.236,1.531-0.409,2.293c-0.172,0.761-0.367,1.503-0.583,2.226
				c-0.217,0.722-0.439,1.389-0.667,2c-0.228,0.612-0.453,1.143-0.675,1.592c-0.222,0.45-0.422,0.786-0.6,1.009
				c0.144,0.512,0.316,0.986,0.517,1.426c0.2,0.438,0.425,0.822,0.675,1.149c0.25,0.328,0.52,0.587,0.808,0.775
				c0.289,0.189,0.6,0.283,0.934,0.283c0.389,0,0.774-0.163,1.158-0.491s0.739-0.717,1.067-1.167s0.617-0.905,0.867-1.367
				c0.25-0.461,0.431-0.831,0.542-1.108c0.111-0.267,0.305-0.4,0.583-0.4c0.189,0,0.342,0.066,0.459,0.2
				c0.117,0.134,0.175,0.277,0.175,0.434c0,0.078-0.017,0.155-0.05,0.232c-0.034,0.079-0.114,0.256-0.242,0.534
				c-0.128,0.277-0.294,0.601-0.5,0.968c-0.206,0.366-0.444,0.752-0.717,1.158c-0.272,0.405-0.578,0.774-0.917,1.108
				c-0.339,0.334-0.703,0.611-1.092,0.834c-0.389,0.222-0.8,0.333-1.233,0.333c-0.767,0-1.456-0.251-2.067-0.751
				c-0.611-0.5-1.13-1.2-1.559-2.101c-0.428-0.899-0.753-1.966-0.975-3.2c-0.222-1.233-0.333-2.584-0.333-4.05
				c0-0.367,0.005-0.798,0.017-1.293c0.011-0.495,0.033-1.017,0.066-1.567c0.033-0.55,0.083-1.116,0.15-1.7
				c0.067-0.582,0.156-1.152,0.267-1.708h-5.984c-0.178,0-0.328-0.053-0.451-0.158c-0.122-0.106-0.183-0.248-0.183-0.425
				c0-0.179,0.061-0.32,0.183-0.426c0.123-0.105,0.272-0.158,0.451-0.158h6.268c0.111-0.4,0.242-0.768,0.392-1.101
				s0.322-0.622,0.517-0.867c0.194-0.244,0.411-0.436,0.65-0.574c0.239-0.14,0.503-0.209,0.792-0.209
				c0.277,0,0.519,0.069,0.725,0.209c0.206,0.139,0.38,0.33,0.525,0.574c0.144,0.245,0.258,0.534,0.342,0.867
				c0.083,0.333,0.147,0.7,0.191,1.101h8.519c0.178,0,0.328,0.053,0.45,0.158C-571.094,83.29-571.033,83.432-571.033,83.61z
				 M-583.585,93.995c0.333-0.733,0.636-1.525,0.909-2.375c0.272-0.851,0.505-1.709,0.7-2.576c0.195-0.866,0.345-1.717,0.45-2.55
				c0.106-0.834,0.159-1.601,0.159-2.301h-1.967c-0.156,0.688-0.28,1.542-0.375,2.559c-0.095,1.017-0.142,2.254-0.142,3.71
				c0,0.811,0.022,1.491,0.066,2.042C-583.741,93.053-583.674,93.551-583.585,93.995z M-582.035,81.526
				c-0.1,0-0.244,0.107-0.434,0.325c-0.188,0.216-0.377,0.607-0.566,1.175h1.6c-0.055-0.467-0.136-0.833-0.242-1.101
				C-581.782,81.659-581.902,81.526-582.035,81.526z"/>
			<path fill="#FFFFFF" d="M-563.064,83.61c0,0.177-0.061,0.318-0.184,0.425c-0.122,0.105-0.272,0.158-0.45,0.158h-8.451v0.183
				c0,0.679-0.05,1.401-0.15,2.167c-0.1,0.768-0.236,1.531-0.408,2.293c-0.172,0.761-0.367,1.503-0.583,2.226
				c-0.217,0.722-0.439,1.389-0.667,2c-0.228,0.612-0.453,1.143-0.675,1.592c-0.222,0.45-0.422,0.786-0.6,1.009
				c0.144,0.512,0.316,0.986,0.517,1.426c0.2,0.438,0.425,0.822,0.675,1.149c0.25,0.328,0.519,0.587,0.808,0.775
				c0.289,0.189,0.6,0.283,0.934,0.283c0.389,0,0.775-0.163,1.159-0.491c0.384-0.328,0.739-0.717,1.067-1.167
				c0.328-0.45,0.617-0.905,0.867-1.367c0.25-0.461,0.431-0.831,0.542-1.108c0.111-0.267,0.305-0.4,0.583-0.4
				c0.189,0,0.342,0.066,0.459,0.2c0.117,0.134,0.175,0.277,0.175,0.434c0,0.078-0.017,0.155-0.05,0.232
				c-0.034,0.079-0.114,0.256-0.242,0.534c-0.127,0.277-0.294,0.601-0.5,0.968c-0.206,0.366-0.444,0.752-0.716,1.158
				c-0.272,0.405-0.578,0.774-0.917,1.108c-0.338,0.334-0.703,0.611-1.091,0.834c-0.389,0.222-0.801,0.333-1.234,0.333
				c-0.767,0-1.456-0.251-2.067-0.751s-1.131-1.2-1.559-2.101c-0.428-0.899-0.753-1.966-0.976-3.2
				c-0.222-1.233-0.333-2.584-0.333-4.05c0-0.367,0.005-0.798,0.017-1.293c0.011-0.495,0.033-1.017,0.066-1.567
				c0.034-0.55,0.083-1.116,0.15-1.7c0.067-0.582,0.156-1.152,0.267-1.708h-5.984c-0.178,0-0.328-0.053-0.451-0.158
				c-0.122-0.106-0.183-0.248-0.183-0.425c0-0.179,0.061-0.32,0.183-0.426c0.123-0.105,0.273-0.158,0.451-0.158h6.268
				c0.111-0.4,0.242-0.768,0.392-1.101c0.15-0.333,0.322-0.622,0.517-0.867c0.194-0.244,0.411-0.436,0.65-0.574
				c0.239-0.14,0.502-0.209,0.792-0.209c0.277,0,0.52,0.069,0.725,0.209c0.206,0.139,0.38,0.33,0.525,0.574
				c0.145,0.245,0.258,0.534,0.342,0.867c0.083,0.333,0.147,0.7,0.191,1.101h8.518c0.178,0,0.328,0.053,0.45,0.158
				C-563.125,83.29-563.064,83.432-563.064,83.61z M-575.617,93.995c0.333-0.733,0.636-1.525,0.909-2.375
				c0.272-0.851,0.505-1.709,0.7-2.576c0.195-0.866,0.345-1.717,0.45-2.55c0.106-0.834,0.159-1.601,0.159-2.301h-1.967
				c-0.155,0.688-0.28,1.542-0.375,2.559c-0.095,1.017-0.142,2.254-0.142,3.71c0,0.811,0.022,1.491,0.067,2.042
				C-575.773,93.053-575.706,93.551-575.617,93.995z M-574.067,81.526c-0.1,0-0.244,0.107-0.433,0.325
				c-0.189,0.216-0.378,0.607-0.567,1.175h1.6c-0.056-0.467-0.136-0.833-0.242-1.101C-573.813,81.659-573.933,81.526-574.067,81.526
				z"/>
		</g>
	</g>
	<g>
		
			<path fill="#FFFFFF" stroke="#FFFFFF" stroke-width="0.5" stroke-linecap="round" stroke-linejoin="round" stroke-miterlimit="10" d="
			M-724.684,44.559v-0.911h15.456l-1.632-3.601h0.888l2.088,4.512H-724.684z"/>
		
			<path fill="#FFFFFF" stroke="#FFFFFF" stroke-width="0.5" stroke-linecap="round" stroke-linejoin="round" stroke-miterlimit="10" d="
			M-716.548,47.991h8.664v7.872h-0.888v-7.057h-5.784c0.576,0.801,0.864,1.688,0.864,2.664c0,1.744-0.496,3.068-1.488,3.973
			s-2.224,1.355-3.696,1.355c-1.472,0-2.804-0.476-3.996-1.428c-1.191-0.952-1.787-2.18-1.787-3.684
			c0-1.072,0.308-2.028,0.924-2.868c0.615-0.84,1.388-1.284,2.315-1.332v0.888c-0.608,0.064-1.14,0.412-1.596,1.045
			c-0.456,0.631-0.684,1.428-0.684,2.387c0,1.217,0.479,2.197,1.439,2.94c0.96,0.744,2.056,1.116,3.288,1.116
			s2.271-0.376,3.12-1.128c0.848-0.753,1.271-1.849,1.271-3.288c0-0.72-0.184-1.393-0.552-2.016
			C-715.5,48.807-715.972,48.327-716.548,47.991z"/>
		
			<path fill="#FFFFFF" stroke="#FFFFFF" stroke-width="0.5" stroke-linecap="round" stroke-linejoin="round" stroke-miterlimit="10" d="
			M-716.428,69.639c-2.64,0-4.668-0.447-6.084-1.344s-2.124-2.195-2.124-3.9c0-1.703,0.72-3.047,2.16-4.031s3.483-1.477,6.132-1.477
			s4.68,0.48,6.096,1.44s2.124,2.328,2.124,4.104C-708.124,67.902-710.892,69.639-716.428,69.639z M-716.031,68.751
			c2.216,0,3.932-0.372,5.147-1.116s1.824-1.828,1.824-3.252s-0.608-2.548-1.824-3.371c-1.216-0.824-3.04-1.236-5.472-1.236
			c-2.849,0-4.937,0.647-6.264,1.943c-0.736,0.721-1.104,1.545-1.104,2.473s0.208,1.688,0.624,2.279s0.984,1.049,1.704,1.368
			C-720.036,68.447-718.248,68.751-716.031,68.751z"/>
		
			<path fill="#FFFFFF" stroke="#FFFFFF" stroke-width="0.5" stroke-linecap="round" stroke-linejoin="round" stroke-miterlimit="10" d="
			M-724.684,86.055v-0.888h1.632c1.328,0,2.468-0.292,3.42-0.876s1.429-1.297,1.429-2.137s-0.353-1.652-1.057-2.436l-1.464-1.393
			h-3.96v-0.887h18v0.887h-12.744l6.769,6.504v1.225l-4.729-4.512c0.048,0.191,0.072,0.436,0.072,0.732
			c0,0.295-0.093,0.647-0.276,1.055c-0.184,0.408-0.472,0.824-0.864,1.248c-0.392,0.424-0.964,0.776-1.716,1.057
			c-0.752,0.279-1.616,0.42-2.592,0.42H-724.684z"/>
		
			<path fill="#FFFFFF" stroke="#FFFFFF" stroke-width="0.5" stroke-linecap="round" stroke-linejoin="round" stroke-miterlimit="10" d="
			M-724.684,89.366v-0.888h12v0.888h-1.752c0.399,0.336,0.828,0.853,1.284,1.548c0.456,0.696,0.684,1.359,0.684,1.992
			c0,0.632-0.18,1.184-0.54,1.656c-0.359,0.472-0.948,0.716-1.764,0.732v-0.889c0.447,0,0.8-0.145,1.056-0.432
			c0.256-0.288,0.384-0.681,0.384-1.176c0-0.496-0.239-1.101-0.72-1.812c-0.479-0.712-1.008-1.252-1.584-1.62H-724.684z"/>
	</g>
</g>
<g>
	
		<path fill="#F77A77" stroke="#F77A77" stroke-width="4" stroke-linecap="round" stroke-linejoin="round" stroke-miterlimit="10" d="
		M242.026,114.576c0-4.021,2.602-7.43,6.21-8.652v-6.767c-3.608-1.223-6.21-4.631-6.21-8.651s2.602-7.429,6.21-8.651v-6.767
		c-3.608-1.223-6.21-4.631-6.21-8.651c0-4.021,2.602-7.43,6.21-8.651v-6.768c-3.608-1.223-6.21-4.63-6.21-8.65
		c0-4.022,2.602-7.43,6.21-8.652v-6.768c-3.608-1.222-6.21-4.63-6.21-8.65c0-4.021,2.602-7.43,6.21-8.652V2.022H2v7.403
		c4,0.975,6.973,4.571,6.973,8.871c0,4.299-2.973,7.896-6.973,8.87v6.329c4,0.974,6.973,4.57,6.973,8.871
		C8.973,46.666,6,50.263,2,51.236v6.329c4,0.975,6.973,4.571,6.973,8.871c0,4.299-2.973,7.896-6.973,8.87v6.328
		c4,0.975,6.973,4.572,6.973,8.871S6,98.402,2,99.377v6.328c4,0.975,6.973,4.571,6.973,8.871c0,4.299-2.973,7.896-6.973,8.87v7.07
		h246.236v-7.29C244.628,122.005,242.026,118.597,242.026,114.576z"/>
	<g>
		<path fill="#FFFFFF" d="M58.882,0v5.656c0,0.829-0.672,1.5-1.5,1.5s-1.5-0.671-1.5-1.5V0H58.882z"/>
		<path fill="#FFFFFF" d="M57.382,117.156c-0.828,0-1.5-0.672-1.5-1.5v-11c0-0.828,0.672-1.5,1.5-1.5s1.5,0.672,1.5,1.5v11
			C58.882,116.484,58.21,117.156,57.382,117.156z M57.382,95.156c-0.828,0-1.5-0.672-1.5-1.5v-11c0-0.828,0.672-1.5,1.5-1.5
			s1.5,0.672,1.5,1.5v11C58.882,94.484,58.21,95.156,57.382,95.156z M57.382,73.156c-0.828,0-1.5-0.672-1.5-1.5v-11
			c0-0.828,0.672-1.5,1.5-1.5s1.5,0.672,1.5,1.5v11C58.882,72.484,58.21,73.156,57.382,73.156z M57.382,51.156
			c-0.828,0-1.5-0.672-1.5-1.5v-11c0-0.828,0.672-1.5,1.5-1.5s1.5,0.672,1.5,1.5v11C58.882,50.484,58.21,51.156,57.382,51.156z
			 M57.382,29.156c-0.828,0-1.5-0.672-1.5-1.5v-11c0-0.828,0.672-1.5,1.5-1.5s1.5,0.672,1.5,1.5v11
			C58.882,28.484,58.21,29.156,57.382,29.156z"/>
		<path fill="#FFFFFF" d="M58.882,132.5v-5.844c0-0.828-0.672-1.5-1.5-1.5s-1.5,0.672-1.5,1.5v5.844H58.882z"/>
	</g>
	
		<rect x="72.972" y="11.906" fill="none" stroke="#D65D5B" stroke-width="1.5" stroke-linecap="round" stroke-linejoin="round" stroke-miterlimit="10" width="159.332" height="108.5"/>
	<g>
		
			<path fill="#FFFFFF" stroke="#FFFFFF" stroke-width="0.5572" stroke-linecap="round" stroke-linejoin="round" stroke-miterlimit="10" d="
			M120.458,66.156l-0.061-41.898c6.16,0.198,10.808,1.043,13.945,2.536c3.139,1.488,4.707,3.716,4.707,6.675
			c0,2.957-0.834,5.154-2.502,6.585s-3.693,2.304-6.077,2.619c3.138,0.281,5.81,1.373,8.015,3.278
			c2.204,1.906,3.308,4.7,3.308,8.376c0,3.677-1.819,6.552-5.454,8.638C132.704,65.056,127.41,66.117,120.458,66.156z
			 M136.846,33.438c0-2.226-1.271-3.933-3.814-5.124c-2.541-1.195-6.019-1.791-10.428-1.791v15.137
			C132.098,41.543,136.846,38.803,136.846,33.438z M139.589,53.997c0-2.066-0.577-3.792-1.729-5.185
			c-1.152-1.392-2.703-2.381-4.65-2.978c-3.259-1.077-6.775-1.609-10.548-1.609v19.666c3.218-0.039,5.999-0.407,8.345-1.102
			c2.342-0.697,4.109-1.581,5.303-2.652C138.495,58.11,139.589,56.063,139.589,53.997z"/>
		
			<path fill="#FFFFFF" stroke="#FFFFFF" stroke-width="0.5572" stroke-linecap="round" stroke-linejoin="round" stroke-miterlimit="10" d="
			M150.731,65.977h-2.205V24.379h2.205V65.977z"/>
		
			<path fill="#FFFFFF" stroke="#FFFFFF" stroke-width="0.5572" stroke-linecap="round" stroke-linejoin="round" stroke-miterlimit="10" d="
			M184.88,45.476c0,6.558-1.113,11.61-3.337,15.166c-2.226,3.556-5.444,5.335-9.654,5.335c-4.212,0-7.548-1.799-10.013-5.394
			c-2.464-3.593-3.695-8.7-3.695-15.315s1.213-11.82,3.635-15.617c2.426-3.793,5.801-5.688,10.132-5.688
			c2.583,0,4.776,0.664,6.587,1.998c1.806,1.329,3.146,3.128,4.022,5.393C184.106,35.524,184.88,40.233,184.88,45.476z
			 M182.675,44.463c0-5.524-0.934-9.934-2.801-13.232c-1.867-3.297-4.549-4.945-8.046-4.945s-6.278,1.639-8.345,4.917
			c-2.065,3.278-3.097,7.979-3.097,14.094c0,7.115,1.608,12.339,4.826,15.676c1.787,1.828,3.834,2.74,6.141,2.74
			c2.303,0,4.19-0.515,5.659-1.547c1.47-1.033,2.602-2.465,3.398-4.292C181.921,54.453,182.675,49.987,182.675,44.463z"/>
	</g>
	<g>
		<path fill="#FFFFFF" d="M134.692,93.984c-0.033,0.067-0.105,0.203-0.217,0.409c-0.111,0.205-0.256,0.444-0.434,0.717
			c-0.178,0.271-0.389,0.561-0.633,0.866c-0.245,0.306-0.512,0.587-0.801,0.842s-0.6,0.467-0.934,0.634
			c-0.333,0.166-0.678,0.25-1.033,0.25c-0.578,0-1.066-0.104-1.467-0.309c-0.4-0.206-0.729-0.437-0.984-0.692
			c-0.178,0.389-0.394,0.745-0.649,1.067c-0.256,0.323-0.539,0.603-0.851,0.842c-0.311,0.239-0.641,0.426-0.991,0.559
			s-0.708,0.2-1.075,0.2c-0.678,0-1.256-0.2-1.734-0.601c-0.479-0.399-0.875-0.937-1.191-1.608
			c-0.316-0.673-0.564-1.453-0.742-2.343c-0.178-0.889-0.313-1.821-0.408-2.8c-0.095-0.978-0.152-1.968-0.175-2.968
			s-0.034-1.95-0.034-2.85c0-1.724,0.051-3.215,0.15-4.477s0.236-2.334,0.408-3.218c0.172-0.883,0.373-1.6,0.6-2.15
			c0.229-0.55,0.471-0.978,0.727-1.283s0.516-0.514,0.783-0.625c0.267-0.111,0.527-0.167,0.783-0.167
			c0.411,0,0.775,0.123,1.092,0.367s0.584,0.586,0.801,1.025c0.217,0.438,0.381,0.97,0.491,1.592
			c0.111,0.622,0.167,1.306,0.167,2.051c0,1.188-0.128,2.417-0.384,3.684c-0.255,1.267-0.586,2.531-0.991,3.792
			c-0.406,1.262-0.859,2.5-1.359,3.718c-0.5,1.217-0.994,2.37-1.483,3.459c0.066,0.545,0.167,1.063,0.3,1.559
			c0.134,0.495,0.307,0.934,0.518,1.316c0.211,0.384,0.461,0.689,0.75,0.917s0.622,0.342,1,0.342c0.377,0,0.733-0.107,1.066-0.324
			c0.334-0.218,0.623-0.5,0.867-0.851s0.436-0.747,0.575-1.191c0.139-0.445,0.208-0.901,0.208-1.367c0-0.312-0.03-0.625-0.092-0.942
			c-0.061-0.316-0.155-0.6-0.283-0.851c-0.127-0.249-0.286-0.452-0.475-0.607c-0.189-0.156-0.417-0.234-0.684-0.234
			c-0.2,0-0.355,0.042-0.467,0.126c-0.111,0.083-0.194,0.178-0.25,0.283s-0.09,0.209-0.1,0.309c-0.012,0.101-0.018,0.166-0.018,0.2
			c0,0.154,0.033,0.311,0.101,0.466c0.066,0.156,0.194,0.295,0.384,0.417c0.188,0.134,0.283,0.317,0.283,0.551
			c0,0.188-0.064,0.339-0.192,0.45c-0.128,0.11-0.27,0.166-0.425,0.166c-0.223,0-0.42-0.067-0.592-0.2s-0.319-0.303-0.441-0.508
			c-0.123-0.206-0.217-0.425-0.283-0.659c-0.066-0.233-0.101-0.449-0.101-0.649c0-0.323,0.056-0.619,0.167-0.893
			c0.111-0.272,0.264-0.505,0.459-0.7c0.193-0.194,0.416-0.345,0.666-0.449c0.25-0.105,0.514-0.158,0.792-0.158
			c0.478,0,0.892,0.111,1.241,0.333c0.351,0.223,0.643,0.517,0.875,0.883c0.234,0.367,0.406,0.784,0.518,1.251
			c0.111,0.466,0.166,0.938,0.166,1.417c0,0.277-0.016,0.55-0.049,0.816c0.043,0.089,0.115,0.205,0.217,0.351
			c0.1,0.145,0.232,0.282,0.398,0.417c0.168,0.133,0.367,0.249,0.602,0.35c0.232,0.1,0.505,0.15,0.816,0.15
			c0.267,0,0.542-0.103,0.825-0.309s0.556-0.461,0.817-0.768c0.26-0.305,0.502-0.633,0.725-0.982
			c0.223-0.351,0.405-0.676,0.551-0.977c0.055-0.111,0.133-0.197,0.232-0.258s0.211-0.092,0.334-0.092
			c0.188,0,0.342,0.066,0.458,0.2s0.175,0.284,0.175,0.45C134.759,93.784,134.737,93.873,134.692,93.984z M121.807,91.834
			c0.378-0.934,0.761-1.914,1.15-2.942c0.389-1.028,0.739-2.075,1.05-3.143c0.311-1.066,0.566-2.145,0.767-3.233
			s0.3-2.162,0.3-3.217c0-0.4-0.02-0.82-0.058-1.26c-0.039-0.438-0.108-0.842-0.208-1.208c-0.101-0.367-0.236-0.672-0.408-0.917
			c-0.174-0.245-0.393-0.366-0.66-0.366c-0.088,0-0.202,0.058-0.341,0.175c-0.14,0.116-0.286,0.322-0.441,0.616
			c-0.155,0.295-0.312,0.704-0.468,1.226c-0.154,0.522-0.297,1.187-0.424,1.992c-0.129,0.806-0.234,1.775-0.317,2.908
			c-0.083,1.135-0.125,2.468-0.125,4.002c0,0.511,0.006,1.03,0.017,1.559c0.012,0.528,0.025,1.03,0.041,1.508
			c0.018,0.479,0.037,0.918,0.059,1.316C121.762,91.25,121.784,91.578,121.807,91.834z"/>
		<path fill="#FFFFFF" d="M136.276,85.517c0,0.421-0.148,0.78-0.442,1.074c-0.294,0.295-0.652,0.442-1.075,0.442
			c-0.422,0-0.781-0.147-1.075-0.442c-0.294-0.294-0.441-0.653-0.441-1.074c0-0.212,0.039-0.409,0.116-0.593
			c0.078-0.183,0.187-0.345,0.325-0.482c0.14-0.14,0.3-0.248,0.483-0.325c0.184-0.079,0.381-0.117,0.592-0.117
			s0.408,0.038,0.592,0.117c0.184,0.077,0.345,0.186,0.483,0.325c0.14,0.138,0.247,0.3,0.325,0.482
			C136.237,85.107,136.276,85.305,136.276,85.517z M133.575,95.285c0-1.601,0.1-3.195,0.301-4.785
			c0.021-0.155,0.092-0.291,0.208-0.408c0.116-0.116,0.27-0.175,0.458-0.175c0.167,0,0.307,0.064,0.418,0.192
			c0.11,0.128,0.166,0.274,0.166,0.44c0,0.067-0.014,0.268-0.042,0.602c-0.028,0.333-0.061,0.73-0.101,1.191
			c-0.038,0.461-0.071,0.95-0.1,1.467c-0.027,0.517-0.041,0.991-0.041,1.426c0,0.589,0.059,1.063,0.175,1.425
			s0.267,0.642,0.45,0.842s0.378,0.334,0.584,0.399c0.205,0.067,0.402,0.101,0.592,0.101c0.311,0,0.633-0.11,0.967-0.333
			c0.333-0.223,0.674-0.533,1.025-0.934c0.35-0.4,0.702-0.881,1.058-1.441c0.356-0.562,0.706-1.187,1.05-1.877
			c0.057-0.111,0.135-0.197,0.234-0.258s0.211-0.092,0.333-0.092c0.178,0,0.325,0.066,0.441,0.2s0.175,0.277,0.175,0.434
			c0,0.111-0.021,0.206-0.066,0.283c-0.133,0.256-0.3,0.567-0.5,0.934c-0.2,0.367-0.428,0.744-0.684,1.134
			c-0.256,0.389-0.536,0.775-0.842,1.158c-0.305,0.384-0.631,0.729-0.975,1.033c-0.345,0.307-0.706,0.554-1.084,0.742
			s-0.762,0.283-1.15,0.283c-0.5,0-0.939-0.104-1.316-0.316c-0.378-0.211-0.697-0.495-0.959-0.851s-0.455-0.774-0.583-1.259
			C133.64,96.359,133.575,95.841,133.575,95.285z M135.343,85.517c0-0.156-0.059-0.292-0.176-0.409
			c-0.117-0.116-0.252-0.175-0.408-0.175c-0.155,0-0.289,0.059-0.399,0.175c-0.112,0.117-0.167,0.253-0.167,0.409
			c0,0.155,0.055,0.288,0.167,0.399c0.11,0.111,0.244,0.167,0.399,0.167c0.156,0,0.291-0.056,0.408-0.167
			S135.343,85.672,135.343,85.517z"/>
		<path fill="#FFFFFF" d="M150.212,93.984c-0.122,0.256-0.275,0.559-0.458,0.909c-0.184,0.35-0.392,0.714-0.626,1.092
			c-0.232,0.378-0.494,0.753-0.783,1.125s-0.603,0.705-0.941,1c-0.339,0.294-0.699,0.533-1.084,0.717
			c-0.383,0.184-0.791,0.274-1.225,0.274c-0.667,0-1.239-0.205-1.717-0.616c-0.479-0.411-0.884-0.95-1.217-1.617
			c-0.334-0.667-0.604-1.425-0.809-2.274c-0.206-0.851-0.364-1.718-0.475-2.602c-0.112-0.883-0.188-1.742-0.227-2.575
			c-0.038-0.833-0.058-1.572-0.058-2.217c0-0.935,0.03-1.9,0.092-2.9c0.061-1.001,0.158-1.979,0.292-2.935
			c0.133-0.956,0.303-1.861,0.508-2.717c0.205-0.856,0.45-1.605,0.733-2.251c0.284-0.645,0.608-1.156,0.976-1.533
			c0.366-0.378,0.783-0.567,1.25-0.567c0.367,0,0.697,0.086,0.992,0.258c0.294,0.174,0.541,0.453,0.742,0.843
			c0.199,0.39,0.355,0.895,0.466,1.518c0.111,0.621,0.167,1.384,0.167,2.282c0,1.112-0.117,2.26-0.35,3.443
			c-0.234,1.183-0.551,2.375-0.951,3.575s-0.872,2.398-1.416,3.594c-0.545,1.193-1.129,2.358-1.75,3.491
			c0.277,1.412,0.649,2.521,1.115,3.326c0.468,0.805,1.029,1.209,1.685,1.209c0.444,0,0.872-0.176,1.284-0.525
			c0.41-0.351,0.788-0.765,1.133-1.242c0.345-0.479,0.647-0.965,0.908-1.458c0.262-0.495,0.465-0.893,0.609-1.193
			c0.055-0.111,0.133-0.197,0.232-0.258c0.101-0.061,0.211-0.092,0.334-0.092c0.189,0,0.342,0.066,0.459,0.2
			c0.116,0.134,0.174,0.284,0.174,0.45C150.278,93.784,150.257,93.873,150.212,93.984z M141.86,87.283
			c0,0.712,0.018,1.395,0.05,2.05c0.034,0.656,0.078,1.284,0.134,1.884c0.467-0.899,0.912-1.858,1.334-2.875
			s0.795-2.045,1.116-3.084c0.322-1.039,0.581-2.072,0.775-3.101s0.292-2.009,0.292-2.942c0-1.312-0.105-2.251-0.316-2.817
			s-0.495-0.85-0.851-0.85c-0.233,0-0.458,0.16-0.675,0.483c-0.217,0.321-0.42,0.761-0.609,1.316
			c-0.188,0.556-0.361,1.212-0.517,1.968s-0.286,1.566-0.392,2.433c-0.105,0.867-0.188,1.773-0.25,2.718
			C141.892,85.411,141.86,86.35,141.86,87.283z"/>
		<path fill="#FFFFFF" d="M150.346,99.186c0.411-0.444,0.833-0.914,1.267-1.408c0.434-0.495,0.851-0.989,1.25-1.483
			c0.4-0.495,0.768-0.984,1.101-1.468s0.595-0.941,0.784-1.375c0.1-0.244,0.288-0.367,0.566-0.367c0.189,0,0.342,0.063,0.459,0.191
			c0.116,0.128,0.174,0.27,0.174,0.426c0,0.089-0.016,0.172-0.049,0.25c-0.256,0.578-0.606,1.178-1.051,1.801
			c-0.444,0.622-0.926,1.242-1.442,1.858s-1.044,1.217-1.583,1.801c-0.539,0.583-1.031,1.125-1.476,1.625
			c0.011,0.889,0.024,1.761,0.042,2.617c0.017,0.855,0.024,1.667,0.024,2.435c0,3.055-0.3,5.322-0.899,6.801
			c-0.601,1.478-1.496,2.217-2.685,2.217c-0.411,0-0.788-0.089-1.134-0.267c-0.344-0.178-0.639-0.434-0.883-0.767
			c-0.245-0.334-0.438-0.744-0.576-1.234c-0.139-0.488-0.207-1.044-0.207-1.666c0-0.689,0.092-1.443,0.274-2.26
			s0.478-1.68,0.884-2.592c0.405-0.911,0.93-1.854,1.575-2.825c0.645-0.973,1.423-1.959,2.333-2.959
			c0-0.956,0.006-1.909,0.018-2.858c0.011-0.951,0.03-1.862,0.059-2.734c0.027-0.873,0.066-1.689,0.115-2.451
			c0.051-0.761,0.109-1.436,0.176-2.024c0.022-0.167,0.092-0.301,0.209-0.4c0.116-0.1,0.258-0.15,0.425-0.15
			s0.312,0.061,0.433,0.184c0.123,0.122,0.184,0.272,0.184,0.449c0,0.067-0.02,0.284-0.058,0.65
			c-0.04,0.367-0.081,0.905-0.126,1.617c-0.044,0.711-0.086,1.593-0.124,2.643C150.364,96.51,150.346,97.752,150.346,99.186z
			 M149.162,105.986c0-0.566-0.006-1.133-0.017-1.7c-0.012-0.566-0.022-1.183-0.033-1.85c-0.689,0.833-1.275,1.656-1.76,2.468
			c-0.482,0.81-0.88,1.589-1.191,2.333c-0.311,0.744-0.535,1.45-0.675,2.117c-0.139,0.667-0.208,1.272-0.208,1.817
			c0,0.311,0.021,0.624,0.066,0.941c0.044,0.317,0.125,0.605,0.242,0.866c0.115,0.263,0.274,0.473,0.475,0.635
			c0.2,0.16,0.455,0.24,0.767,0.24c0.122,0,0.267-0.026,0.434-0.082s0.337-0.176,0.509-0.358c0.172-0.184,0.342-0.448,0.508-0.793
			c0.166-0.344,0.316-0.809,0.45-1.391c0.134-0.584,0.239-1.304,0.317-2.16C149.123,108.215,149.162,107.188,149.162,105.986z
			 M151.946,85.517c0,0.421-0.147,0.78-0.441,1.074c-0.295,0.295-0.654,0.442-1.076,0.442s-0.78-0.147-1.074-0.442
			c-0.295-0.294-0.442-0.653-0.442-1.074c0-0.212,0.038-0.409,0.116-0.593c0.078-0.183,0.187-0.345,0.326-0.482
			c0.139-0.14,0.299-0.248,0.482-0.325c0.184-0.079,0.381-0.117,0.592-0.117s0.408,0.038,0.592,0.117
			c0.184,0.077,0.345,0.186,0.484,0.325c0.139,0.138,0.246,0.3,0.324,0.482C151.907,85.107,151.946,85.305,151.946,85.517z
			 M150.996,85.517c0-0.156-0.056-0.292-0.167-0.409c-0.111-0.116-0.244-0.175-0.4-0.175s-0.291,0.059-0.408,0.175
			c-0.117,0.117-0.175,0.253-0.175,0.409c0,0.155,0.058,0.288,0.175,0.399s0.252,0.167,0.408,0.167s0.289-0.056,0.4-0.167
			S150.996,85.672,150.996,85.517z"/>
		<path fill="#FFFFFF" d="M156.747,96.769c0.233,0.321,0.533,0.581,0.9,0.774c0.367,0.195,0.816,0.293,1.35,0.293
			c0.545,0,1.039-0.132,1.484-0.393c0.443-0.261,0.85-0.603,1.217-1.025c0.367-0.422,0.694-0.894,0.982-1.417
			c0.29-0.521,0.551-1.044,0.784-1.567c0.056-0.121,0.134-0.214,0.233-0.274s0.211-0.092,0.334-0.092c0.188,0,0.342,0.066,0.458,0.2
			s0.175,0.277,0.175,0.434c0,0.056-0.006,0.103-0.017,0.142s-0.028,0.081-0.05,0.125c-0.768,1.689-1.604,2.962-2.51,3.817
			c-0.904,0.855-1.93,1.295-3.074,1.316c-0.734,0-1.367-0.142-1.9-0.424c-0.533-0.284-0.973-0.65-1.317-1.101
			s-0.601-0.959-0.767-1.525c-0.167-0.567-0.25-1.134-0.25-1.7c0-0.567,0.068-1.09,0.208-1.567c0.139-0.479,0.339-0.895,0.601-1.251
			c0.26-0.355,0.572-0.633,0.934-0.833c0.36-0.2,0.758-0.3,1.191-0.3c0.256,0,0.508,0.053,0.758,0.158s0.476,0.256,0.676,0.45
			c0.199,0.194,0.361,0.431,0.483,0.708c0.122,0.278,0.184,0.596,0.184,0.951c0,0.456-0.078,0.884-0.233,1.283
			c-0.156,0.4-0.369,0.772-0.643,1.117c-0.271,0.345-0.598,0.661-0.975,0.949C157.586,96.308,157.181,96.558,156.747,96.769z
			 M156.247,95.685c0.344-0.145,0.658-0.328,0.941-0.551c0.283-0.222,0.525-0.466,0.726-0.732c0.2-0.268,0.354-0.547,0.466-0.842
			c0.111-0.294,0.167-0.592,0.167-0.892c0-0.334-0.083-0.586-0.249-0.759c-0.168-0.172-0.361-0.258-0.584-0.258
			c-0.3,0-0.556,0.082-0.768,0.249c-0.211,0.167-0.383,0.384-0.516,0.651c-0.134,0.266-0.231,0.563-0.292,0.891
			c-0.062,0.328-0.092,0.653-0.092,0.976c0,0.199,0.02,0.411,0.058,0.634C156.144,95.273,156.19,95.484,156.247,95.685z"/>
		<path fill="#FFFFFF" d="M176.968,81.916c0,0.177-0.061,0.318-0.184,0.425c-0.122,0.105-0.272,0.158-0.45,0.158h-8.451v0.183
			c0,0.679-0.05,1.401-0.149,2.167c-0.101,0.768-0.236,1.531-0.41,2.293c-0.172,0.761-0.366,1.503-0.582,2.226
			c-0.217,0.722-0.439,1.389-0.668,2c-0.227,0.612-0.452,1.143-0.674,1.592c-0.223,0.45-0.423,0.786-0.601,1.009
			c0.144,0.512,0.316,0.986,0.517,1.426c0.199,0.438,0.426,0.822,0.676,1.149c0.25,0.328,0.52,0.587,0.808,0.775
			c0.289,0.189,0.601,0.283,0.935,0.283c0.389,0,0.773-0.163,1.158-0.491c0.383-0.328,0.738-0.717,1.066-1.167
			s0.617-0.905,0.867-1.367c0.25-0.461,0.43-0.831,0.541-1.108c0.111-0.267,0.306-0.4,0.584-0.4c0.189,0,0.342,0.066,0.459,0.2
			c0.116,0.134,0.174,0.277,0.174,0.434c0,0.078-0.016,0.155-0.049,0.232c-0.034,0.079-0.115,0.256-0.242,0.534
			c-0.129,0.277-0.295,0.601-0.5,0.968c-0.206,0.366-0.445,0.752-0.717,1.158c-0.272,0.405-0.578,0.774-0.918,1.108
			c-0.338,0.334-0.702,0.611-1.092,0.834c-0.389,0.222-0.8,0.333-1.232,0.333c-0.768,0-1.456-0.251-2.068-0.751
			c-0.61-0.5-1.13-1.2-1.559-2.101c-0.428-0.899-0.752-1.966-0.975-3.2c-0.223-1.233-0.333-2.584-0.333-4.05
			c0-0.367,0.005-0.798,0.017-1.293s0.033-1.017,0.066-1.567c0.033-0.55,0.084-1.116,0.15-1.7c0.066-0.582,0.155-1.152,0.267-1.708
			h-5.984c-0.179,0-0.328-0.053-0.45-0.158c-0.123-0.106-0.184-0.248-0.184-0.425c0-0.179,0.061-0.32,0.184-0.426
			c0.122-0.105,0.271-0.158,0.45-0.158h6.268c0.111-0.4,0.241-0.768,0.392-1.101s0.322-0.622,0.518-0.867
			c0.193-0.244,0.41-0.436,0.649-0.574c0.239-0.14,0.503-0.209,0.792-0.209c0.277,0,0.52,0.069,0.725,0.209
			c0.206,0.139,0.381,0.33,0.525,0.574c0.145,0.245,0.259,0.534,0.342,0.867c0.084,0.333,0.147,0.7,0.191,1.101h8.519
			c0.178,0,0.328,0.053,0.45,0.158C176.907,81.596,176.968,81.737,176.968,81.916z M164.415,92.301
			c0.334-0.733,0.637-1.525,0.908-2.375c0.273-0.851,0.506-1.709,0.7-2.576c0.194-0.866,0.345-1.717,0.45-2.55
			c0.105-0.834,0.158-1.601,0.158-2.301h-1.967c-0.156,0.688-0.28,1.542-0.375,2.559s-0.142,2.254-0.142,3.71
			c0,0.811,0.022,1.491,0.066,2.042C164.259,91.358,164.326,91.856,164.415,92.301z M165.966,79.832
			c-0.101,0-0.244,0.107-0.434,0.325c-0.189,0.216-0.378,0.607-0.566,1.175h1.6c-0.055-0.467-0.137-0.833-0.242-1.101
			C166.218,79.965,166.099,79.832,165.966,79.832z"/>
		<path fill="#FFFFFF" d="M184.937,81.916c0,0.177-0.062,0.318-0.184,0.425c-0.123,0.105-0.272,0.158-0.451,0.158h-8.451v0.183
			c0,0.679-0.05,1.401-0.15,2.167c-0.1,0.768-0.235,1.531-0.408,2.293c-0.172,0.761-0.366,1.503-0.583,2.226
			c-0.217,0.722-0.439,1.389-0.667,2c-0.229,0.612-0.453,1.143-0.675,1.592c-0.222,0.45-0.423,0.786-0.601,1.009
			c0.145,0.512,0.316,0.986,0.518,1.426c0.199,0.438,0.425,0.822,0.675,1.149c0.25,0.328,0.519,0.587,0.808,0.775
			c0.289,0.189,0.601,0.283,0.934,0.283c0.39,0,0.775-0.163,1.159-0.491s0.739-0.717,1.067-1.167
			c0.327-0.45,0.616-0.905,0.866-1.367c0.251-0.461,0.431-0.831,0.542-1.108c0.111-0.267,0.305-0.4,0.583-0.4
			c0.189,0,0.342,0.066,0.459,0.2c0.116,0.134,0.175,0.277,0.175,0.434c0,0.078-0.017,0.155-0.05,0.232
			c-0.034,0.079-0.114,0.256-0.242,0.534c-0.128,0.277-0.294,0.601-0.5,0.968c-0.206,0.366-0.444,0.752-0.716,1.158
			c-0.273,0.405-0.578,0.774-0.918,1.108c-0.338,0.334-0.703,0.611-1.092,0.834c-0.389,0.222-0.801,0.333-1.233,0.333
			c-0.767,0-1.456-0.251-2.067-0.751s-1.131-1.2-1.559-2.101c-0.428-0.899-0.753-1.966-0.975-3.2
			c-0.223-1.233-0.334-2.584-0.334-4.05c0-0.367,0.006-0.798,0.018-1.293c0.01-0.495,0.033-1.017,0.066-1.567
			c0.033-0.55,0.083-1.116,0.149-1.7c0.067-0.582,0.155-1.152,0.267-1.708h-5.984c-0.178,0-0.328-0.053-0.45-0.158
			c-0.122-0.106-0.183-0.248-0.183-0.425c0-0.179,0.061-0.32,0.183-0.426s0.272-0.158,0.45-0.158h6.268
			c0.111-0.4,0.242-0.768,0.393-1.101s0.322-0.622,0.517-0.867c0.194-0.244,0.411-0.436,0.65-0.574
			c0.239-0.14,0.503-0.209,0.792-0.209c0.277,0,0.52,0.069,0.725,0.209c0.205,0.139,0.381,0.33,0.525,0.574
			c0.145,0.245,0.258,0.534,0.342,0.867c0.083,0.333,0.146,0.7,0.191,1.101h8.518c0.179,0,0.328,0.053,0.451,0.158
			C184.875,81.596,184.937,81.737,184.937,81.916z M172.384,92.301c0.333-0.733,0.636-1.525,0.908-2.375
			c0.271-0.851,0.506-1.709,0.699-2.576c0.195-0.866,0.346-1.717,0.451-2.55c0.105-0.834,0.158-1.601,0.158-2.301h-1.967
			c-0.156,0.688-0.281,1.542-0.375,2.559c-0.096,1.017-0.143,2.254-0.143,3.71c0,0.811,0.023,1.491,0.067,2.042
			C172.228,91.358,172.295,91.856,172.384,92.301z M173.934,79.832c-0.101,0-0.244,0.107-0.433,0.325
			c-0.189,0.216-0.379,0.607-0.567,1.175h1.601c-0.057-0.467-0.137-0.833-0.242-1.101C174.187,79.965,174.067,79.832,173.934,79.832
			z"/>
	</g>
	<g>
		
			<path fill="#FFFFFF" stroke="#FFFFFF" stroke-width="0.5" stroke-linecap="round" stroke-linejoin="round" stroke-miterlimit="10" d="
			M23.317,42.864v-0.911h15.456l-1.632-3.601h0.888l2.088,4.512H23.317z"/>
		
			<path fill="#FFFFFF" stroke="#FFFFFF" stroke-width="0.5" stroke-linecap="round" stroke-linejoin="round" stroke-miterlimit="10" d="
			M31.453,46.297h8.664v7.872h-0.888v-7.057h-5.784c0.576,0.801,0.864,1.688,0.864,2.664c0,1.744-0.496,3.068-1.488,3.973
			s-2.224,1.355-3.696,1.355c-1.472,0-2.804-0.476-3.996-1.428c-1.191-0.952-1.787-2.18-1.787-3.684
			c0-1.072,0.308-2.028,0.924-2.868c0.615-0.84,1.388-1.284,2.315-1.332v0.888c-0.608,0.064-1.14,0.412-1.596,1.045
			c-0.456,0.631-0.684,1.428-0.684,2.387c0,1.217,0.479,2.197,1.439,2.94c0.96,0.744,2.056,1.116,3.288,1.116
			s2.271-0.376,3.12-1.128c0.848-0.753,1.271-1.849,1.271-3.288c0-0.72-0.184-1.393-0.552-2.016
			C32.5,47.112,32.029,46.633,31.453,46.297z"/>
		
			<path fill="#FFFFFF" stroke="#FFFFFF" stroke-width="0.5" stroke-linecap="round" stroke-linejoin="round" stroke-miterlimit="10" d="
			M31.573,67.944c-2.64,0-4.668-0.447-6.084-1.344s-2.124-2.195-2.124-3.9c0-1.703,0.72-3.047,2.16-4.031s3.483-1.477,6.132-1.477
			s4.68,0.48,6.096,1.44s2.124,2.328,2.124,4.104C39.876,66.208,37.109,67.944,31.573,67.944z M31.969,67.057
			c2.216,0,3.932-0.372,5.147-1.116s1.824-1.828,1.824-3.252s-0.608-2.548-1.824-3.371c-1.216-0.824-3.04-1.236-5.472-1.236
			c-2.849,0-4.937,0.647-6.264,1.943c-0.736,0.721-1.104,1.545-1.104,2.473s0.208,1.688,0.624,2.279s0.984,1.049,1.704,1.368
			C27.964,66.753,29.752,67.057,31.969,67.057z"/>
		
			<path fill="#FFFFFF" stroke="#FFFFFF" stroke-width="0.5" stroke-linecap="round" stroke-linejoin="round" stroke-miterlimit="10" d="
			M23.317,84.36v-0.888h1.632c1.328,0,2.468-0.292,3.42-0.876s1.429-1.297,1.429-2.137s-0.353-1.652-1.057-2.436l-1.464-1.393h-3.96
			v-0.887h18v0.887H28.573l6.769,6.504v1.225l-4.729-4.512c0.048,0.191,0.072,0.436,0.072,0.732c0,0.295-0.093,0.647-0.276,1.055
			c-0.184,0.408-0.472,0.824-0.864,1.248c-0.392,0.424-0.964,0.776-1.716,1.057c-0.752,0.279-1.616,0.42-2.592,0.42H23.317z"/>
		
			<path fill="#FFFFFF" stroke="#FFFFFF" stroke-width="0.5" stroke-linecap="round" stroke-linejoin="round" stroke-miterlimit="10" d="
			M23.317,87.672v-0.888h12v0.888h-1.752c0.399,0.336,0.828,0.853,1.284,1.548c0.456,0.696,0.684,1.359,0.684,1.992
			c0,0.632-0.18,1.184-0.54,1.656c-0.359,0.472-0.948,0.716-1.764,0.732v-0.889c0.447,0,0.8-0.145,1.056-0.432
			c0.256-0.288,0.384-0.681,0.384-1.176c0-0.496-0.239-1.101-0.72-1.812c-0.479-0.712-1.008-1.252-1.584-1.62H23.317z"/>
	</g>
</g>
</svg>
