<?xml version="1.0" encoding="utf-8"?>
<!-- Generator: Adobe Illustrator 15.0.2, SVG Export Plug-In . SVG Version: 6.00 Build 0)  -->
<!DOCTYPE svg PUBLIC "-//W3C//DTD SVG 1.1//EN" "http://www.w3.org/Graphics/SVG/1.1/DTD/svg11.dtd">
<svg version="1.1" id="Lager_1" xmlns="http://www.w3.org/2000/svg" xmlns:xlink="http://www.w3.org/1999/xlink" x="0px" y="0px"
	 width="143.795px" height="100.768px" viewBox="0 0 143.795 100.768" enable-background="new 0 0 143.795 100.768"
	 xml:space="preserve">
<path fill="#FFFFFF" d="M117.735,11.193c-7.057-0.783-13.807,1.018-19.306,4.633C92.395,7.408,82.979,1.463,71.872,0.234
	c-17.194-1.91-32.94,8.04-39.169,23.299c-16.21-1.551-30.72,10.18-32.519,26.418c-1.819,16.394,9.997,31.154,26.389,32.968
	c2.475,0.273,4.903,0.205,7.266-0.113c3.551,9.443,12.13,16.605,22.843,17.789c11.706,1.301,22.484-4.916,27.6-14.778
	c3.801,4.152,9.047,7.011,15.078,7.677c13.205,1.467,25.103-8.055,26.57-21.261c0.188-1.694,0.188-3.365,0.029-4.999
	c9.405-4.009,16.447-12.824,17.653-23.711C145.398,27.451,133.804,12.975,117.735,11.193z"/>
<g>
	<g>
		<g>
			<path fill="#368756" d="M73.305,70.224c0.044-2.653,0.085-18.166,2.457-23.179c5.827-12.346,24.968-12.346,24.968-12.346
				s2.886,26.22-16.427,29.573c-7.557,1.306-7.161,1.35-7.883,6.24v5.732h-3.115V70.224z"/>
		</g>
	</g>
	<g>
		<g>
			<path fill="#368756" d="M70.488,60.044c-0.039-2.65-0.087-18.161-2.451-23.174c-5.834-12.348-24.973-12.348-24.973-12.348
				S40.178,50.74,59.492,54.092c7.557,1.313,7.153,1.358,7.886,6.243v15.91h3.11V60.044z"/>
		</g>
		<g>
			<path fill="#368756" d="M70.401,55.405c-0.154-5.769-0.653-14.905-2.364-18.535c-5.834-12.348-24.973-12.348-24.973-12.348"/>
		</g>
	</g>
</g>
</svg>
