<?xml version="1.0" encoding="utf-8"?>
<!-- Generator: Adobe Illustrator 15.0.2, SVG Export Plug-In . SVG Version: 6.00 Build 0)  -->
<!DOCTYPE svg PUBLIC "-//W3C//DTD SVG 1.1//EN" "http://www.w3.org/Graphics/SVG/1.1/DTD/svg11.dtd">
<svg version="1.1" id="Biogasbuss" xmlns="http://www.w3.org/2000/svg" xmlns:xlink="http://www.w3.org/1999/xlink" x="0px" y="0px"
	 width="515.301px" height="143.91px" viewBox="0 0 515.301 143.91" enable-background="new 0 0 515.301 143.91"
	 xml:space="preserve">
<rect x="146.967" y="94.799" fill="#196F41" width="254.205" height="35.232"/>
<g>
	
		<path fill="#309959" stroke="#309959" stroke-width="2.9808" stroke-linecap="round" stroke-linejoin="round" stroke-miterlimit="10" d="
		M491.1,1.616v128.639h-97.284c0.738-2.447,1.139-5.039,1.139-7.725c0-14.801-12.043-26.844-26.846-26.844
		c-14.801,0-26.844,12.043-26.844,26.844c0,2.686,0.401,5.277,1.139,7.725H204.708c0.684-2.359,1.058-4.848,1.058-7.426
		c0-14.734-11.988-26.723-26.724-26.723c-14.734,0-26.722,11.988-26.722,26.723c0,2.578,0.374,5.066,1.058,7.426H86.579V1.616H491.1
		z"/>
</g>
<g>
	<circle fill="#FFFFFF" stroke="#000000" stroke-width="10.714" stroke-miterlimit="10" cx="368.202" cy="122.657" r="15.757"/>
</g>
<g>
	<circle fill="#FFFFFF" stroke="#000000" stroke-width="10.714" stroke-miterlimit="10" cx="178.913" cy="122.657" r="15.756"/>
</g>
<g>
	
		<polyline fill="none" stroke="#000000" stroke-width="3" stroke-linecap="round" stroke-linejoin="round" stroke-miterlimit="10" points="
		488.646,11.708 513.824,11.708 513.824,26.374 	"/>
</g>
<g>
	
		<path fill="#309959" stroke="#309959" stroke-width="2.9808" stroke-linecap="round" stroke-linejoin="round" stroke-miterlimit="10" d="
		M501.863,41.274c0,1.415,1.146,2.562,2.562,2.562h6.835c1.415,0,2.563-1.147,2.563-2.562V23.384c0-0.635-0.23-1.215-0.611-1.662
		c-0.471-0.551-1.171-0.901-1.952-0.901h-6.835c-1.416,0-2.562,1.147-2.562,2.563V41.274z"/>
</g>
<g>
	<g>
		<path fill="#368756" d="M67.821,117.113c-2.341-0.039-16.016-0.076-20.437-2.166c-10.884-5.139-10.884-22.014-10.884-22.014
			s23.114-2.545,26.071,14.482c1.153,6.662,1.191,6.312,5.502,6.949h5.055v2.748H67.821z"/>
	</g>
</g>
<g>
	<g>
		<path fill="#368756" d="M58.846,119.596c-2.335,0.033-16.012,0.076-20.431,2.16c-10.887,5.145-10.887,22.02-10.887,22.02
			s23.114,2.545,26.07-14.486c1.158-6.662,1.196-6.307,5.503-6.951h14.027v-2.742H58.846z"/>
	</g>
	<g>
		<path fill="#368756" d="M54.757,119.672c-5.086,0.137-13.141,0.576-16.342,2.084c-10.887,5.145-10.887,22.02-10.887,22.02"/>
	</g>
</g>
<g>
	<g>
		<path fill="#368756" d="M31.317,115.902c-2.335,0.033-16.01,0.076-20.431,2.16C0,123.209,0,140.084,0,140.084
			s23.114,2.543,26.069-14.488c1.159-6.662,1.197-6.307,5.504-6.951h10.549v-2.742H31.317z"/>
	</g>
	<g>
		<path fill="#368756" d="M27.229,115.979c-5.084,0.137-13.14,0.576-16.342,2.084C0,123.209,0,140.084,0,140.084"/>
	</g>
</g>
<g>
	<polygon fill="#DFEBEF" stroke="#000000" stroke-width="5" stroke-miterlimit="10" points="459.678,21.14 433.488,21.14 
		407.298,21.14 407.298,121.14 459.678,121.14 	"/>
</g>
<g>
	
		<rect x="459.678" y="21.14" fill="#DFEBEF" stroke="#000000" stroke-width="5" stroke-miterlimit="10" width="30.336" height="69.047"/>
</g>
<g>
	
		<rect x="329.665" y="21.14" fill="#DFEBEF" stroke="#000000" stroke-width="5" stroke-miterlimit="10" width="77.634" height="61.36"/>
</g>
<g>
	
		<rect x="252.031" y="21.14" fill="#DFEBEF" stroke="#000000" stroke-width="5" stroke-miterlimit="10" width="77.634" height="61.36"/>
</g>
<g>
	
		<rect x="96.709" y="21.14" fill="#DFEBEF" stroke="#000000" stroke-width="5" stroke-miterlimit="10" width="77.633" height="61.36"/>
</g>
<g>
	<polyline fill="#EFF8FB" points="462.223,23.532 487.515,23.532 487.515,87.688 	"/>
</g>
<g>
	<polyline fill="#EFF8FB" points="409.222,23.532 457.515,23.532 457.515,118.354 	"/>
</g>
<g>
	<polyline fill="#EFF8FB" points="332.055,23.532 404.848,23.532 404.848,80.021 	"/>
</g>
<g>
	<polyline fill="#EFF8FB" points="254.452,23.532 327.245,23.532 327.245,80.021 	"/>
</g>
<g>
	
		<rect x="174.397" y="21.14" fill="#DFEBEF" stroke="#000000" stroke-width="5" stroke-miterlimit="10" width="77.634" height="61.36"/>
</g>
<g>
	<polyline fill="#EFF8FB" points="176.818,23.532 249.611,23.532 249.611,80.021 	"/>
</g>
<g>
	<polyline fill="#EFF8FB" points="99.13,23.532 171.923,23.532 171.923,80.021 	"/>
</g>
<g>
	
		<line fill="#DFEBEF" stroke="#000000" stroke-width="3" stroke-miterlimit="10" x1="433.488" y1="21.14" x2="433.488" y2="121.14"/>
</g>
<g>
	<rect x="96.709" y="12.782" stroke="#000000" stroke-width="5" stroke-miterlimit="10" width="393.279" height="16.5"/>
</g>
<g>
	
		<rect x="482.268" y="100.921" fill="#FFFFFF" stroke="#FFFFFF" stroke-width="2.1864" stroke-linecap="round" stroke-linejoin="round" stroke-miterlimit="10" width="10.494" height="7.361"/>
</g>
<g>
	<polygon fill="#E7511E" points="85.118,109.204 96.79,109.345 96.79,99.907 85.102,99.907 	"/>
</g>
<g>
	<polygon fill="#F29400" points="96.79,109.345 96.79,99.907 85.102,99.907 	"/>
</g>
<g>
	<g>
		<path fill="#97BF0D" d="M338.471,27.06h-2.058l-0.682-0.627l0.671-0.66h1.958v-3.443l0.495-0.549l-0.495-0.518v-3.454h-1.947
			l-0.682-0.627l0.671-0.659h2.068l0.671,0.627l-0.022,0.021l0.506,0.527v3.564l-0.494,0.551l0.494,0.516v3.443h1.947l0.683,0.627
			l-0.672,0.66h-2.067l-0.539-0.494L338.471,27.06z"/>
	</g>
	<g>
		<g>
			<path fill="#97BF0D" d="M352.567,26.566l-0.649-0.704v-3.53l0.495-0.551l-0.495-0.517v-3.443h-1.947l-0.682-0.627l0.671-0.659
				h2.068l0.539,0.494l0.506-0.494h2.057l0.683,0.627l-0.672,0.659h-1.958v3.443l-0.494,0.55l0.494,0.518v3.53L352.567,26.566z"/>
		</g>
		<g>
			<path fill="#97BF0D" d="M360.548,27.072h-2.09l-0.683-0.627l0.022-0.021l-0.495-0.539v-3.542l0.495-0.55l-0.495-0.518v-3.553
				l0.616-0.693l0.011,0.012l0.528-0.506h2.09l0.539,0.494l0.506-0.494h2.09l0.682,0.627l-0.011,0.011l0.484,0.528v3.574
				l-0.495,0.551l0.495,0.517v3.542l-0.616,0.715l-0.022-0.021l-0.517,0.494h-2.09l-0.539-0.494L360.548,27.072z M358.568,25.786
				h1.98l0.539,0.494l0.506-0.494h1.979v-3.443l0.484-0.55l-0.484-0.518v-3.454h-1.979l-0.539-0.494l-0.506,0.494h-1.98v3.454
				l-0.483,0.551l0.483,0.517V25.786z"/>
		</g>
		<g>
			<path fill="#97BF0D" d="M367.572,26.566l-0.648-0.704v-3.53l0.495-0.551l-0.495-0.517v-3.542l0.616-0.693l0.011,0.012
				l0.528-0.506h2.09l0.539,0.494l0.506-0.494h2.09l0.682,0.627l-0.011,0.011l0.484,0.517v3.575l-0.618,0.693l-0.022-0.022
				l-0.519,0.495h-1.368l1.515,2.21v1.387h-0.539l-1.848-2.673v-1.066l-0.385-0.353l-0.506,0.495h-1.98v3.432L367.572,26.566z
				 M368.188,21.144h1.98l0.539,0.506l0.506-0.506h1.979v-3.322h-1.979l-0.539-0.494l-0.506,0.494h-1.98V21.144z"/>
		</g>
		<g>
			<path fill="#97BF0D" d="M379.588,27.072h-2.09l-0.683-0.627l0.022-0.021l-0.495-0.539v-3.542l0.495-0.55l-0.495-0.518v-3.553
				l0.616-0.693l0.011,0.012l0.528-0.506h2.09l0.539,0.494l0.506-0.494h2.09l0.682,0.627l-0.682,0.659h-2.09l-0.539-0.494
				l-0.506,0.494h-1.98v3.454l-0.483,0.551l0.483,0.517v3.443h1.98l0.539,0.494l0.506-0.494h1.979v-3.333h-1.979l-0.683-0.633
				l0.683-0.654h2.09l0.682,0.637l-0.021,0.021l0.495,0.527v3.534l-0.616,0.714l-0.022-0.021l-0.517,0.494h-2.09l-0.539-0.494
				L379.588,27.072z"/>
		</g>
		<g>
			<path fill="#97BF0D" d="M389.167,27.072h-2.067l-0.683-0.627l0.022-0.021l-0.495-0.539v-3.542l0.483-0.55l-0.483-0.518v-3.553
				l0.616-0.693l0.011,0.012l0.517-0.506h2.079l0.539,0.494l0.506-0.494h2.079l0.683,0.627l-0.683,0.659h-2.067l-0.539-0.494
				l-0.518,0.494h-1.958v3.345h1.958l0.539,0.495l0.506-0.495h2.079l0.683,0.633l-0.683,0.654h-2.067l-0.539-0.507l-0.518,0.507
				h-1.958v3.333h1.958l0.539,0.494l0.506-0.494h2.079l0.683,0.627l-0.683,0.659h-2.067l-0.539-0.494L389.167,27.072z"/>
		</g>
		<g>
			<path fill="#97BF0D" d="M397.927,26.566l-0.649-0.704v-3.53l0.495-0.551l-0.495-0.517v-3.443h-1.947l-0.682-0.627l0.671-0.659
				h2.068l0.539,0.494l0.506-0.494h2.057l0.683,0.627l-0.672,0.659h-1.958v3.443l-0.494,0.55l0.494,0.518v3.53L397.927,26.566z"/>
		</g>
	</g>
</g>
<g>
	
		<rect x="104.844" y="96.516" fill="#309959" stroke="#1B6F41" stroke-width="2.456" stroke-linecap="round" stroke-linejoin="round" stroke-miterlimit="10" width="25.374" height="16.882"/>
	<circle cx="110.488" cy="104.957" r="1.688"/>
</g>
</svg>
