<?xml version="1.0" encoding="utf-8"?>
<!-- Generator: Adobe Illustrator 15.0.2, SVG Export Plug-In . SVG Version: 6.00 Build 0)  -->
<!DOCTYPE svg PUBLIC "-//W3C//DTD SVG 1.1//EN" "http://www.w3.org/Graphics/SVG/1.1/DTD/svg11.dtd">
<svg version="1.1" xmlns="http://www.w3.org/2000/svg" xmlns:xlink="http://www.w3.org/1999/xlink" x="0px" y="0px"
	 width="421.125px" height="141.75px" viewBox="0 0 421.125 141.75" enable-background="new 0 0 421.125 141.75"
	 xml:space="preserve">
<g id="Flak">
	<g>
		<g>
			
				<circle fill="#673B15" stroke="#673B15" stroke-width="3" stroke-linecap="round" stroke-linejoin="round" stroke-miterlimit="10" cx="120.569" cy="39.035" r="17.787"/>
		</g>
	</g>
	<g>
		<g>
			
				<circle fill="#673B15" stroke="#673B15" stroke-width="3" stroke-linecap="round" stroke-linejoin="round" stroke-miterlimit="10" cx="167.902" cy="49.035" r="17.787"/>
		</g>
	</g>
	<g>
		<g>
			
				<circle fill="#7C4D25" stroke="#7C4D25" stroke-width="3" stroke-linecap="round" stroke-linejoin="round" stroke-miterlimit="10" cx="46.069" cy="45.842" r="17.787"/>
		</g>
	</g>
	<g>
		<g>
			
				<circle fill="#673B15" stroke="#673B15" stroke-width="3" stroke-linecap="round" stroke-linejoin="round" stroke-miterlimit="10" cx="69.569" cy="35.342" r="17.787"/>
		</g>
	</g>
	<g>
		<g>
			
				<circle fill="#673B15" stroke="#673B15" stroke-width="3" stroke-linecap="round" stroke-linejoin="round" stroke-miterlimit="10" cx="22.75" cy="45.842" r="17.787"/>
		</g>
	</g>
	<g>
		<g>
			
				<circle fill="#7C4D25" stroke="#7C4D25" stroke-width="3" stroke-linecap="round" stroke-linejoin="round" stroke-miterlimit="10" cx="91.569" cy="45.842" r="17.787"/>
		</g>
	</g>
	<g>
		<g>
			
				<circle fill="#7C4D25" stroke="#7C4D25" stroke-width="3" stroke-linecap="round" stroke-linejoin="round" stroke-miterlimit="10" cx="146.569" cy="45.842" r="17.787"/>
		</g>
	</g>
	<g>
		<g>
			
				<line fill="none" stroke="#309959" stroke-width="5" stroke-linecap="round" stroke-linejoin="round" stroke-miterlimit="10" x1="219.75" y1="101.198" x2="178.25" y2="101.198"/>
		</g>
	</g>
	<g>
		<g>
			
				<path fill="#58585A" stroke="#58585A" stroke-width="5" stroke-linecap="round" stroke-linejoin="round" stroke-miterlimit="10" d="
				M33.49,95.584"/>
		</g>
	</g>
	<g>
		<g>
			
				<path fill="#58585A" stroke="#58585A" stroke-width="5" stroke-linecap="round" stroke-linejoin="round" stroke-miterlimit="10" d="
				M33.49,95.584"/>
		</g>
	</g>
	<g>
		<g>
			
				<path fill="#309959" stroke="#309959" stroke-width="5" stroke-linecap="round" stroke-linejoin="round" stroke-miterlimit="10" d="
				M2.598,41.034v66.657h13.424c4.052-7.223,12.574-11.555,21.444-11.555c8.869,0,16.659,3.594,21.854,11.555h135.598l0.964-66.657
				H2.598z"/>
		</g>
	</g>
	<g>
		<g>
			<circle fill="none" stroke="#000000" stroke-width="8" stroke-miterlimit="10" cx="37.383" cy="123.141" r="14.633"/>
		</g>
	</g>
	<g>
		<g>
			
				<path fill="none" stroke="#309959" stroke-width="5.8693" stroke-linecap="round" stroke-linejoin="round" stroke-miterlimit="10" d="
				M12.555,114.854c3.142-10.986,13.275-19.052,25.255-19.052c11.98,0,22.114,8.064,25.255,19.051"/>
		</g>
	</g>
</g>
<g id="Traktor">
	<g>
		<g>
			
				<path fill="#309959" stroke="#309959" stroke-width="5" stroke-linecap="round" stroke-linejoin="round" stroke-miterlimit="10" d="
				M312.219,101.198h49.089c5.319-12.607,17.796-21.456,32.339-21.456c2.718,0,5.36,0.318,7.901,0.904l-4.32-29.405l-70.702-8.183
				L313.741,3.508h-61.664l-8.14,44.36c4.651-1.319,9.559-2.026,14.627-2.026c29.586,0,53.654,24.069,53.654,53.654V101.198z"/>
		</g>
		<g>
			
				<path fill="#FFFFFF" stroke="#000000" stroke-width="2" stroke-linecap="round" stroke-linejoin="round" stroke-miterlimit="10" d="
				M319.244,59.166"/>
		</g>
		<g>
			<circle fill="#FFFFFF" stroke="#000000" stroke-width="10.7784" stroke-miterlimit="10" cx="394.535" cy="115.107" r="21.248"/>
		</g>
		<g>
			<path fill="none" stroke="#000000" stroke-width="2" stroke-linecap="round" stroke-linejoin="round" stroke-miterlimit="10" d="
				M319.244,59.166"/>
		</g>
		<g>
			
				<path fill="#FFFFFF" stroke="#000000" stroke-width="2" stroke-linecap="round" stroke-linejoin="round" stroke-miterlimit="10" d="
				M241.227,53.128"/>
		</g>
		<g>
			
				<path fill="#FFFFFF" stroke="#000000" stroke-width="2" stroke-linecap="round" stroke-linejoin="round" stroke-miterlimit="10" d="
				M308.873,91.527"/>
		</g>
		<g>
			
				<path fill="#FFFFFF" stroke="#000000" stroke-width="2" stroke-linecap="round" stroke-linejoin="round" stroke-miterlimit="10" d="
				M308.873,91.527"/>
		</g>
		<g>
			<circle fill="#FFFFFF" stroke="#000000" stroke-width="17.072" stroke-miterlimit="10" cx="258.565" cy="99.496" r="33.654"/>
		</g>
		<g>
			<path fill="#EFF8FB" d="M310.459,85.837"/>
		</g>
		<g>
			
				<path fill="#DFEBEF" stroke="#000000" stroke-width="5" stroke-linecap="round" stroke-linejoin="round" stroke-miterlimit="10" d="
				M310.459,85.837l0.125,0.017h29.666L315.711,9.602h-64.752l-7.021,38.267c4.651-1.319,9.559-2.026,14.627-2.026
				C283.463,45.842,304.432,62.803,310.459,85.837"/>
		</g>
		<g>
			<polyline fill="#EFF8FB" points="336.875,83.102 315.875,12.102 253.125,11.977 			"/>
		</g>
		<g>
			<path fill="#EFF8FB" d="M310.459,85.837"/>
		</g>
		<g>
			
				<line fill="#DFEBEF" stroke="#000000" stroke-width="3" stroke-miterlimit="10" x1="277.25" y1="9.602" x2="277.25" y2="47.728"/>
		</g>
		<g>
			<path fill="none" stroke="#309959" stroke-width="9" stroke-linecap="round" stroke-linejoin="round" stroke-miterlimit="10" d="
				M231.312,53.293c7.992-4.732,17.312-7.451,27.253-7.451c29.586,0,53.654,24.069,53.654,53.654c0,4.438-0.541,8.751-1.562,12.878"
				/>
		</g>
		<g>
			
				<polygon fill="#FFFFFF" stroke="#FFFFFF" stroke-width="1.7626" stroke-linecap="round" stroke-linejoin="round" stroke-miterlimit="10" points="
				393.087,73.203 402.333,73.203 401.548,67.269 393.087,67.269 			"/>
		</g>
	</g>
</g>
</svg>
