<?xml version="1.0" encoding="utf-8"?>
<!-- Generator: Adobe Illustrator 15.0.2, SVG Export Plug-In . SVG Version: 6.00 Build 0)  -->
<!DOCTYPE svg PUBLIC "-//W3C//DTD SVG 1.1//EN" "http://www.w3.org/Graphics/SVG/1.1/DTD/svg11.dtd">
<svg version="1.1" id="Lager_1" xmlns="http://www.w3.org/2000/svg" xmlns:xlink="http://www.w3.org/1999/xlink" x="0px" y="0px"
	 width="280.77px" height="325.851px" viewBox="0 0 280.77 325.851" enable-background="new 0 0 280.77 325.851"
	 xml:space="preserve">
<g>
	<rect x="0.287" y="92.201" fill="#F6F5F8" width="280.191" height="233.65"/>
	<rect x="21.02" y="92.076" fill="#F8F8F8" width="238.727" height="214.486"/>
	<path fill="#727177" stroke="#727177" stroke-width="1.3737" stroke-miterlimit="10" d="M279.785,92.077
		c-19.543-53.119-74.568-91.39-139.4-91.39c-64.83,0-119.861,38.271-139.4,91.39H279.785z"/>
	<path fill="#5B5A5E" stroke="#5B5A5E" stroke-width="1.3737" stroke-linecap="round" stroke-miterlimit="10" d="M140.314,92.077
		H0.984c19.539-53.119,74.57-91.39,139.4-91.39L140.314,92.077z"/>
	<path fill="#B29A80" d="M163.432,149.562c-1.389-0.155-2.75-0.096-4.062,0.121c-1.887-6.383-7.443-11.338-14.475-12.118
		c-5.264-0.584-10.238,1.3-13.766,4.729c-3.076-3.766-7.568-6.378-12.787-6.956c-10.584-1.174-20.113,6.453-21.287,17.039
		c-0.109,1.002-0.117,1.991-0.076,2.971c-6.059,1.267-10.893,6.288-11.611,12.77c-0.895,8.073,4.924,15.342,12.996,16.233
		c3.271,0.364,6.402-0.388,9.041-1.937c2.061,5.998,7.402,10.592,14.123,11.335c7.092,0.782,13.635-2.943,16.787-8.88
		c2.328,3.501,6.127,5.985,10.633,6.482c8.027,0.891,15.258-4.861,16.215-12.872c5.893-1.38,10.561-6.324,11.264-12.686
		C177.322,157.722,171.502,150.454,163.432,149.562z"/>
	<path fill="#8E7D70" d="M210.854,106.378c-3.434-0.382-6.721,0.493-9.395,2.254c-2.939-4.096-7.521-6.989-12.926-7.588
		c-8.371-0.928-16.033,3.913-19.062,11.34c-7.891-0.757-14.953,4.953-15.83,12.857c-0.883,7.979,4.867,15.16,12.844,16.043
		c1.205,0.135,2.389,0.1,3.539-0.055c1.727,4.597,5.904,8.084,11.115,8.661c5.697,0.63,10.945-2.396,13.434-7.194
		c1.85,2.02,4.402,3.41,7.34,3.738c6.426,0.712,12.215-3.921,12.93-10.352c0.092-0.824,0.092-1.638,0.014-2.431
		c4.578-1.954,8.008-6.242,8.594-11.541C224.316,114.29,218.674,107.245,210.854,106.378z"/>
	<path fill="#8E7D70" d="M227.059,158.617c-3.436-0.38-6.721,0.494-9.396,2.257c-2.939-4.097-7.52-6.99-12.926-7.59
		c-8.369-0.928-16.033,3.912-19.062,11.342c-7.891-0.757-14.953,4.952-15.828,12.856c-0.885,7.977,4.865,15.161,12.844,16.043
		c1.205,0.136,2.385,0.102,3.535-0.055c1.729,4.596,5.906,8.082,11.117,8.659c5.699,0.634,10.945-2.394,13.434-7.191
		c1.85,2.019,4.404,3.409,7.338,3.736c6.428,0.714,12.219-3.921,12.932-10.35c0.094-0.824,0.094-1.638,0.016-2.432
		c4.578-1.953,8.004-6.243,8.592-11.543C240.52,166.53,234.879,159.484,227.059,158.617z"/>
	<path fill="#8E7D70" d="M92.992,109.576c-3.434-0.382-6.719,0.493-9.395,2.254c-2.938-4.098-7.52-6.989-12.926-7.589
		c-8.369-0.929-16.033,3.913-19.062,11.34c-7.891-0.757-14.951,4.953-15.828,12.858c-0.883,7.978,4.865,15.161,12.844,16.045
		c1.205,0.133,2.387,0.099,3.537-0.056c1.727,4.597,5.904,8.082,11.115,8.657c5.697,0.634,10.945-2.392,13.434-7.191
		c1.85,2.021,4.404,3.412,7.34,3.736c6.426,0.714,12.217-3.921,12.93-10.348c0.092-0.824,0.092-1.638,0.016-2.434
		c4.578-1.951,8.004-6.241,8.592-11.541C106.457,117.486,100.814,110.442,92.992,109.576z"/>
	<path fill="#8D6344" d="M59.912,242.577c0,10.744-8.703,19.453-19.447,19.453c-10.74,0-19.445-8.709-19.445-19.453
		c0-10.734,8.705-19.444,19.445-19.444C51.209,223.132,59.912,231.842,59.912,242.577z"/>
	<path fill="#8D6344" d="M223.537,242.185c0,7.475-6.057,13.538-13.533,13.538c-7.473,0-13.535-6.063-13.535-13.538
		c0-7.471,6.062-13.534,13.535-13.534C217.48,228.651,223.537,234.714,223.537,242.185z"/>
	<path fill="#8D6344" d="M259.746,240.618c0,11.51-9.324,20.846-20.836,20.846c-11.504,0-20.836-9.336-20.836-20.846
		c0-11.502,9.332-20.837,20.836-20.837C250.422,219.781,259.746,229.116,259.746,240.618z"/>
	<rect x="21.02" y="242.187" fill="#8D6344" width="238.727" height="64.375"/>
	<path fill="#8D6344" d="M144.74,236.849c0,7.477-6.057,13.54-13.533,13.54c-7.471,0-13.533-6.063-13.533-13.54
		c0-7.471,6.062-13.532,13.533-13.532C138.684,223.317,144.74,229.378,144.74,236.849z"/>
	<path fill="#8D6344" d="M121.074,236.852c0,19.239-15.6,34.836-34.836,34.836c-19.24,0-34.836-15.597-34.836-34.836
		c0-19.238,15.596-34.837,34.836-34.837C105.475,202.015,121.074,217.614,121.074,236.852z"/>
	<path fill="#8D6344" d="M204.748,252.753c0,19.238-15.596,34.837-34.838,34.837c-19.236,0-34.834-15.599-34.834-34.837
		c0-19.237,15.598-34.835,34.834-34.835C189.152,217.918,204.748,233.516,204.748,252.753z"/>
</g>
</svg>
