<?xml version="1.0" encoding="utf-8"?>
<!-- Generator: Adobe Illustrator 17.1.0, SVG Export Plug-In . SVG Version: 6.00 Build 0)  -->
<!DOCTYPE svg PUBLIC "-//W3C//DTD SVG 1.1//EN" "http://www.w3.org/Graphics/SVG/1.1/DTD/svg11.dtd">
<svg version="1.1" xmlns="http://www.w3.org/2000/svg" xmlns:xlink="http://www.w3.org/1999/xlink" x="0px" y="0px"
	 width="1800.331px" height="841.89px" viewBox="0 0 1800.331 841.89" enable-background="new 0 0 1800.331 841.89"
	 xml:space="preserve">
<g id="Blå_ljus">
	<g>
		<path fill="#3F95CD" d="M573.82,789.436c-0.008,0.002-0.023,0.002-0.037,0H531.99c-1.424,0-2.627-1.057-2.807-2.469
			c-2.701-21.24-20.902-37.258-42.338-37.258c-21.435,0-39.637,16.018-42.338,37.258c-0.18,1.412-1.383,2.469-2.805,2.469h-174.39
			c-1.423,0-2.625-1.057-2.805-2.469c-2.701-21.24-20.904-37.258-42.34-37.258c-21.434,0-39.637,16.018-42.338,37.258
			c-0.18,1.412-1.382,2.469-2.805,2.469h-28.668c-1.562,0-2.828-1.264-2.828-2.826V714.48c0-0.586,0.184-1.158,0.523-1.639
			l47.432-66.703c0.53-0.746,1.391-1.189,2.305-1.189h171.832c0.441,0,0.877,0.103,1.271,0.301
			c25.301,12.721,80.459,48.826,85.863,52.373c8.559,1.992,101.756,23.717,110.529,27.676c0.848,0.383,1.453,1.158,1.619,2.074
			c5.91,32.629,9.127,54.953,9.615,58.387c0.082,0.269,0.129,0.553,0.129,0.85C576.648,788.172,575.38,789.436,573.82,789.436z"/>
		<path fill="#EEF7FB" d="M185.04,709.246l22.132-50.713h157.855c26.779,13.941,73.439,50.336,74.014,50.713H185.04z"/>
		
			<path fill="none" stroke="#2F9859" stroke-width="9.4858" stroke-linecap="round" stroke-linejoin="round" stroke-miterlimit="10" d="
			M217.29,716.68"/>
		<g>
			<g>
				<polygon fill="#FFFFFF" points="548.134,749.035 570.32,749.035 568.044,735.07 548.134,735.07 				"/>
				<path fill="#FFFFFF" d="M571.347,751.109h-23.213c-1.144,0-2.072-0.93-2.072-2.074V735.07c0-1.145,0.928-2.074,2.072-2.074
					h19.91L571.347,751.109z"/>
			</g>
		</g>
		<polygon fill="#DEEAEF" points="436.253,709.246 185.04,709.246 207.172,658.533 		"/>
		<polygon fill="#F19300" points="163.992,750.506 145.543,750.506 145.543,733.229 153.7,733.229 		"/>
		<g>
			<circle fill="#FFFFFF" stroke="#1A171B" stroke-width="18.0105" stroke-miterlimit="10" cx="222.168" cy="793.604" r="26.486"/>
		</g>
		<g>
			<circle fill="#FFFFFF" stroke="#1A171B" stroke-width="18.0105" stroke-miterlimit="10" cx="487.445" cy="793.604" r="26.486"/>
		</g>
		<g>
			<rect x="325.269" y="654.709" fill="#3F95CD" width="5.691" height="58.332"/>
		</g>
		<g>
			<rect x="219.322" y="654.709" fill="#3F95CD" width="5.691" height="58.332"/>
		</g>
		<path opacity="0.5" fill="none" stroke="#1E77A7" stroke-width="5.6915" stroke-linejoin="round" stroke-miterlimit="10" d="
			M436.38,700.754v75.1H275.957c-7.133-23.199-28.795-39.727-53.789-39.727v-26.881"/>
		<g opacity="0.5">
			
				<line fill="none" stroke="#1E77A7" stroke-width="5.6915" stroke-linejoin="round" stroke-miterlimit="10" x1="328.115" y1="709.246" x2="328.115" y2="772.941"/>
		</g>
		
			<line fill="none" stroke="#223140" stroke-width="5.6915" stroke-linecap="round" stroke-linejoin="round" stroke-miterlimit="10" x1="236.417" y1="723.998" x2="252.543" y2="723.998"/>
		
			<line fill="none" stroke="#223140" stroke-width="5.6915" stroke-linecap="round" stroke-linejoin="round" stroke-miterlimit="10" x1="341.376" y1="723.998" x2="357.504" y2="723.998"/>
		
			<circle fill="#3F95CD" stroke="#186995" stroke-width="3.4767" stroke-linecap="round" stroke-linejoin="round" stroke-miterlimit="10" cx="183.081" cy="730.883" r="10.454"/>
		<path fill="#186995" d="M443.783,703.719c0,5.148-4.174,9.322-9.32,9.322h-13.979c-5.148,0-9.322-4.174-9.322-9.322l0,0
			c0-5.148,4.174-9.322,9.322-9.322h13.979C439.609,694.396,443.783,698.57,443.783,703.719L443.783,703.719z"/>
		<g>
			<g>
				<g>
					<path fill="#53AF6E" d="M112.836,764.975c-3.209-0.053-21.965-0.104-28.026-2.971c-14.927-7.047-14.927-30.189-14.927-30.189
						s31.702-3.49,35.756,19.861c1.579,9.137,1.633,8.658,7.545,9.531h6.932v3.768H112.836z"/>
				</g>
			</g>
			<g>
				<g>
					<path fill="#45A260" d="M100.527,768.379c-3.204,0.047-21.958,0.105-28.021,2.963c-14.93,7.055-14.93,30.197-14.93,30.197
						s31.7,3.49,35.753-19.865c1.588-9.137,1.643-8.648,7.549-9.533h19.236v-3.762H100.527z"/>
				</g>
				<g>
					<path fill="#45A260" d="M94.918,768.484c-6.975,0.188-18.021,0.791-22.411,2.857c-14.93,7.055-14.93,30.197-14.93,30.197"/>
				</g>
			</g>
			<g>
				<g>
					<path fill="#53AF6E" d="M62.774,763.315c-3.202,0.045-21.956,0.105-28.019,2.963c-14.931,7.057-14.931,30.199-14.931,30.199
						s31.699,3.488,35.751-19.869c1.591-9.137,1.642-8.648,7.549-9.533h14.467v-3.76H62.774z"/>
				</g>
				<g>
					<path fill="#53AF6E" d="M57.167,763.42c-6.972,0.186-18.021,0.789-22.412,2.857c-14.931,7.057-14.931,30.199-14.931,30.199"/>
				</g>
			</g>
		</g>
	</g>
</g>
<g id="Blå_mörk">
	<g>
		<g>
			<circle fill="#FFFFFF" stroke="#1A171B" stroke-width="18.0105" stroke-miterlimit="10" cx="222.169" cy="576.975" r="26.486"/>
		</g>
		<g>
			<circle fill="#FFFFFF" stroke="#1A171B" stroke-width="18.0105" stroke-miterlimit="10" cx="487.446" cy="576.975" r="26.486"/>
		</g>
		<g>
			<path fill="#33485D" d="M573.821,572.807c-0.008,0.002-0.023,0.002-0.037,0h-41.793c-1.424,0-2.627-1.057-2.807-2.469
				c-2.701-21.24-20.902-37.258-42.338-37.258c-21.435,0-39.637,16.018-42.338,37.258c-0.18,1.412-1.383,2.469-2.805,2.469H267.313
				c-1.423,0-2.625-1.057-2.805-2.469c-2.701-21.24-20.904-37.258-42.34-37.258c-21.434,0-39.637,16.018-42.338,37.258
				c-0.18,1.412-1.382,2.469-2.805,2.469h-28.668c-1.562,0-2.827-1.264-2.827-2.826v-72.129c0-0.588,0.184-1.16,0.522-1.639
				l47.432-66.704c0.53-0.746,1.391-1.189,2.305-1.189h171.832c0.441,0,0.877,0.104,1.271,0.301
				c25.301,12.721,80.459,48.826,85.863,52.373c8.559,1.991,101.756,23.718,110.529,27.677c0.848,0.383,1.453,1.158,1.619,2.072
				c5.91,32.631,9.127,54.955,9.615,58.389c0.082,0.269,0.129,0.553,0.129,0.85C576.649,571.543,575.381,572.807,573.821,572.807z"
				/>
			<path fill="#EEF7FB" d="M185.041,492.617l22.132-50.714h157.855c26.779,13.941,73.439,50.337,74.014,50.714H185.041z"/>
			
				<path fill="none" stroke="#2F9859" stroke-width="9.4858" stroke-linecap="round" stroke-linejoin="round" stroke-miterlimit="10" d="
				M217.291,500.051"/>
			<g>
				<g>
					<polygon fill="#FFFFFF" points="548.135,532.406 570.321,532.406 568.045,518.441 548.135,518.441 					"/>
					<path fill="#FFFFFF" d="M571.348,534.48h-23.213c-1.145,0-2.072-0.93-2.072-2.074v-13.965c0-1.146,0.928-2.074,2.072-2.074
						h19.91L571.348,534.48z"/>
				</g>
			</g>
			<polygon fill="#DEEAEF" points="436.254,492.617 185.041,492.617 207.172,441.903 			"/>
			<polygon fill="#F19300" points="163.992,533.877 145.543,533.877 145.543,516.598 153.701,516.598 			"/>
			<g>
				<rect x="325.27" y="438.079" fill="#33485D" width="5.691" height="58.333"/>
			</g>
			<g>
				<rect x="219.323" y="438.079" fill="#33485D" width="5.691" height="58.333"/>
			</g>
			<path opacity="0.5" fill="none" stroke="#223140" stroke-width="5.6915" stroke-linejoin="round" stroke-miterlimit="10" d="
				M436.381,484.124v75.101H275.958c-7.133-23.199-28.795-39.729-53.789-39.729v-26.879"/>
			<g opacity="0.5">
				
					<line fill="none" stroke="#223140" stroke-width="5.6915" stroke-linejoin="round" stroke-miterlimit="10" x1="328.116" y1="492.617" x2="328.116" y2="556.312"/>
			</g>
			
				<line fill="none" stroke="#223140" stroke-width="5.6915" stroke-linecap="round" stroke-linejoin="round" stroke-miterlimit="10" x1="236.417" y1="507.369" x2="252.544" y2="507.369"/>
			
				<line fill="none" stroke="#223140" stroke-width="5.6915" stroke-linecap="round" stroke-linejoin="round" stroke-miterlimit="10" x1="341.378" y1="507.369" x2="357.504" y2="507.369"/>
			
				<circle fill="#33485D" stroke="#223140" stroke-width="3.4767" stroke-linecap="round" stroke-linejoin="round" stroke-miterlimit="10" cx="183.082" cy="514.254" r="10.454"/>
			<path fill="#223140" d="M443.784,487.089c0,5.147-4.174,9.323-9.32,9.323h-13.978c-5.148,0-9.322-4.176-9.322-9.323l0,0
				c0-5.148,4.174-9.322,9.322-9.322h13.978C439.61,477.767,443.784,481.94,443.784,487.089L443.784,487.089z"/>
			<g>
				<g>
					<g>
						<path fill="#53AF6E" d="M112.836,548.346c-3.208-0.053-21.964-0.104-28.026-2.971c-14.927-7.047-14.927-30.189-14.927-30.189
							s31.701-3.49,35.756,19.861c1.58,9.137,1.634,8.656,7.545,9.529h6.933v3.77H112.836z"/>
					</g>
				</g>
				<g>
					<g>
						<path fill="#45A260" d="M100.528,551.75c-3.205,0.047-21.959,0.105-28.021,2.963c-14.93,7.055-14.93,30.197-14.93,30.197
							s31.7,3.49,35.753-19.865c1.588-9.137,1.642-8.648,7.548-9.533h19.237v-3.762H100.528z"/>
					</g>
					<g>
						<path fill="#45A260" d="M94.919,551.855c-6.975,0.188-18.022,0.791-22.412,2.857c-14.93,7.055-14.93,30.197-14.93,30.197"/>
					</g>
				</g>
				<g>
					<g>
						<path fill="#53AF6E" d="M62.774,546.686c-3.202,0.045-21.956,0.104-28.018,2.963c-14.931,7.057-14.931,30.199-14.931,30.199
							s31.699,3.488,35.751-19.869c1.591-9.137,1.642-8.648,7.549-9.533h14.467v-3.76H62.774z"/>
					</g>
					<g>
						<path fill="#53AF6E" d="M57.167,546.789c-6.972,0.188-18.021,0.791-22.412,2.859c-14.931,7.057-14.931,30.199-14.931,30.199"
							/>
					</g>
				</g>
			</g>
		</g>
	</g>
</g>
<g id="Grå_ljus">
	<g>
		<path fill="#BCC2C6" d="M222.169,322.175c23.176,0,42.295,17.328,45.144,39.729h174.391c2.85-22.4,21.967-39.729,45.143-39.729
			c23.174,0,42.295,17.328,45.145,39.729h41.793c0,0-3.193-23.022-9.66-58.734c-8.854-3.994-110.498-27.612-110.498-27.612
			s-59.357-39.09-86.004-52.486c-31.443,0-171.832,0-171.832,0l-47.432,66.704v72.129h28.668
			C179.876,339.503,198.995,322.175,222.169,322.175z"/>
		<path fill="#BCC2C6" d="M573.821,364.73c-0.008,0.002-0.023,0.002-0.037,0h-41.793c-1.424,0-2.627-1.057-2.807-2.469
			c-2.701-21.24-20.902-37.258-42.338-37.258c-21.435,0-39.637,16.018-42.338,37.258c-0.18,1.412-1.383,2.469-2.805,2.469H267.313
			c-1.423,0-2.625-1.057-2.805-2.469c-2.701-21.24-20.904-37.258-42.34-37.258c-21.434,0-39.637,16.018-42.338,37.258
			c-0.18,1.412-1.382,2.469-2.805,2.469h-28.668c-1.562,0-2.827-1.264-2.827-2.826v-72.129c0-0.588,0.184-1.16,0.522-1.639
			l47.432-66.704c0.53-0.746,1.391-1.189,2.305-1.189h171.832c0.441,0,0.877,0.104,1.271,0.301
			c25.301,12.721,80.459,48.826,85.863,52.373c8.559,1.991,101.756,23.717,110.529,27.676c0.848,0.383,1.453,1.158,1.619,2.072
			c5.91,32.631,9.127,54.955,9.615,58.389c0.082,0.27,0.129,0.553,0.129,0.85C576.649,363.466,575.381,364.73,573.821,364.73z"/>
		<path fill="#EEF7FB" d="M185.041,284.54l22.132-50.713h157.855c26.779,13.941,73.439,50.336,74.014,50.713H185.041z"/>
		
			<path fill="none" stroke="#2F9859" stroke-width="9.4858" stroke-linecap="round" stroke-linejoin="round" stroke-miterlimit="10" d="
			M217.291,291.974"/>
		<g>
			<g>
				<polygon fill="#FFFFFF" points="548.135,324.33 570.321,324.33 568.045,310.365 548.135,310.365 				"/>
				<path fill="#FFFFFF" d="M571.348,326.404h-23.213c-1.145,0-2.072-0.93-2.072-2.074v-13.965c0-1.147,0.928-2.074,2.072-2.074
					h19.91L571.348,326.404z"/>
			</g>
		</g>
		<polygon fill="#DEEAEF" points="436.254,284.54 185.041,284.54 207.172,233.827 		"/>
		<polygon fill="#F19300" points="163.992,325.8 145.543,325.8 145.543,308.521 153.701,308.521 		"/>
		<g>
			<circle fill="#FFFFFF" stroke="#1A171B" stroke-width="18.0105" stroke-miterlimit="10" cx="222.169" cy="368.898" r="26.486"/>
		</g>
		<g>
			<circle fill="#FFFFFF" stroke="#1A171B" stroke-width="18.0105" stroke-miterlimit="10" cx="487.446" cy="368.898" r="26.486"/>
		</g>
		<g>
			<rect x="325.27" y="230.003" fill="#BCC2C6" width="5.691" height="58.333"/>
		</g>
		<g>
			<rect x="219.323" y="230.003" fill="#BCC2C6" width="5.691" height="58.333"/>
		</g>
		<path opacity="0.5" fill="none" stroke="#929495" stroke-width="5.6915" stroke-linejoin="round" stroke-miterlimit="10" d="
			M436.381,276.048v75.1H275.958c-7.133-23.199-28.795-39.729-53.789-39.729V284.54"/>
		<g opacity="0.5">
			
				<line fill="none" stroke="#929495" stroke-width="5.6915" stroke-linejoin="round" stroke-miterlimit="10" x1="328.116" y1="284.54" x2="328.116" y2="348.236"/>
		</g>
		
			<line fill="none" stroke="#8B8D8F" stroke-width="5.6915" stroke-linecap="round" stroke-linejoin="round" stroke-miterlimit="10" x1="236.417" y1="299.293" x2="252.544" y2="299.293"/>
		
			<line fill="none" stroke="#8B8D8F" stroke-width="5.6915" stroke-linecap="round" stroke-linejoin="round" stroke-miterlimit="10" x1="341.378" y1="299.293" x2="357.504" y2="299.293"/>
		
			<circle fill="#BCC2C6" stroke="#8B8D8F" stroke-width="3.4767" stroke-linecap="round" stroke-linejoin="round" stroke-miterlimit="10" cx="183.082" cy="306.177" r="10.454"/>
		<path fill="#8B8D8F" d="M443.784,279.013c0,5.147-4.174,9.323-9.32,9.323h-13.978c-5.148,0-9.322-4.176-9.322-9.323l0,0
			c0-5.148,4.174-9.322,9.322-9.322h13.978C439.61,269.69,443.784,273.864,443.784,279.013L443.784,279.013z"/>
		<g>
			<g>
				<g>
					<path fill="#53AF6E" d="M112.836,340.269c-3.208-0.053-21.964-0.104-28.026-2.971c-14.927-7.047-14.927-30.19-14.927-30.19
						s31.701-3.49,35.756,19.861c1.58,9.137,1.634,8.656,7.545,9.529h6.933v3.77H112.836z"/>
				</g>
			</g>
			<g>
				<g>
					<path fill="#45A260" d="M100.528,343.673c-3.205,0.047-21.959,0.105-28.021,2.963c-14.93,7.055-14.93,30.197-14.93,30.197
						s31.7,3.49,35.753-19.865c1.588-9.137,1.642-8.648,7.548-9.533h19.237v-3.762H100.528z"/>
				</g>
				<g>
					<path fill="#45A260" d="M94.919,343.779c-6.975,0.188-18.022,0.791-22.412,2.857c-14.93,7.055-14.93,30.197-14.93,30.197"/>
				</g>
			</g>
			<g>
				<g>
					<path fill="#53AF6E" d="M62.774,338.609c-3.202,0.045-21.956,0.104-28.018,2.963c-14.931,7.057-14.931,30.199-14.931,30.199
						s31.699,3.488,35.751-19.869c1.591-9.137,1.642-8.648,7.549-9.533h14.467v-3.76H62.774z"/>
				</g>
				<g>
					<path fill="#53AF6E" d="M57.167,338.712c-6.972,0.188-18.021,0.791-22.412,2.859c-14.931,7.057-14.931,30.199-14.931,30.199"/>
				</g>
			</g>
		</g>
	</g>
</g>
<g id="Grå_mörk">
	<g>
		<path fill="#535456" d="M573.821,160.149c-0.008,0.002-0.023,0.002-0.037,0h-41.793c-1.424,0-2.627-1.057-2.807-2.469
			c-2.701-21.24-20.902-37.258-42.338-37.258c-21.435,0-39.637,16.018-42.338,37.258c-0.18,1.412-1.383,2.469-2.805,2.469H267.313
			c-1.423,0-2.625-1.057-2.805-2.469c-2.701-21.24-20.904-37.258-42.34-37.258c-21.434,0-39.637,16.018-42.338,37.258
			c-0.18,1.412-1.382,2.469-2.805,2.469h-28.668c-1.562,0-2.827-1.264-2.827-2.826V85.194c0-0.588,0.184-1.16,0.522-1.639
			l47.432-66.704c0.53-0.746,1.391-1.189,2.305-1.189h171.832c0.441,0,0.877,0.103,1.271,0.301
			c25.301,12.721,80.459,48.826,85.863,52.373c8.559,1.991,101.756,23.717,110.529,27.676c0.848,0.383,1.453,1.158,1.619,2.072
			c5.91,32.631,9.127,54.955,9.615,58.389c0.082,0.27,0.129,0.553,0.129,0.85C576.649,158.885,575.381,160.149,573.821,160.149z"/>
		<path fill="#EEF7FB" d="M185.041,79.959l22.132-50.713h157.855c26.779,13.941,73.439,50.336,74.014,50.713H185.041z"/>
		
			<path fill="none" stroke="#2F9859" stroke-width="9.4858" stroke-linecap="round" stroke-linejoin="round" stroke-miterlimit="10" d="
			M217.291,87.393"/>
		<g>
			<g>
				<polygon fill="#FFFFFF" points="548.135,119.749 570.321,119.749 568.045,105.784 548.135,105.784 				"/>
				<path fill="#FFFFFF" d="M571.348,121.823h-23.213c-1.145,0-2.072-0.93-2.072-2.074v-13.965c0-1.146,0.928-2.074,2.072-2.074
					h19.91L571.348,121.823z"/>
			</g>
		</g>
		<polygon fill="#DEEAEF" points="436.254,79.959 185.041,79.959 207.172,29.246 		"/>
		<polygon fill="#F19300" points="163.992,121.219 145.543,121.219 145.543,103.94 153.701,103.94 		"/>
		<g>
			<circle fill="#FFFFFF" stroke="#1A171B" stroke-width="18.0105" stroke-miterlimit="10" cx="222.169" cy="164.317" r="26.486"/>
		</g>
		<g>
			<circle fill="#FFFFFF" stroke="#1A171B" stroke-width="18.0105" stroke-miterlimit="10" cx="487.446" cy="164.317" r="26.486"/>
		</g>
		<g>
			<rect x="325.27" y="25.422" fill="#535456" width="5.691" height="58.333"/>
		</g>
		<g>
			<rect x="219.323" y="25.422" fill="#535456" width="5.691" height="58.333"/>
		</g>
		<path opacity="0.5" fill="none" stroke="#1A171B" stroke-width="5.6915" stroke-linejoin="round" stroke-miterlimit="10" d="
			M436.381,71.467v75.1H275.958c-7.133-23.199-28.795-39.729-53.789-39.729V79.959"/>
		<g opacity="0.5">
			
				<line fill="none" stroke="#1A171B" stroke-width="5.6915" stroke-linejoin="round" stroke-miterlimit="10" x1="328.116" y1="79.959" x2="328.116" y2="143.655"/>
		</g>
		
			<line fill="none" stroke="#3D3D3F" stroke-width="5.6915" stroke-linecap="round" stroke-linejoin="round" stroke-miterlimit="10" x1="236.417" y1="94.711" x2="252.544" y2="94.711"/>
		
			<line fill="none" stroke="#3D3D3F" stroke-width="5.6915" stroke-linecap="round" stroke-linejoin="round" stroke-miterlimit="10" x1="341.378" y1="94.711" x2="357.504" y2="94.711"/>
		
			<circle fill="#535456" stroke="#3D3D3F" stroke-width="3.4767" stroke-linecap="round" stroke-linejoin="round" stroke-miterlimit="10" cx="183.082" cy="101.596" r="10.454"/>
		<path fill="#3D3D3F" d="M443.784,74.432c0,5.147-4.174,9.323-9.32,9.323h-13.978c-5.148,0-9.322-4.176-9.322-9.323l0,0
			c0-5.148,4.174-9.322,9.322-9.322h13.978C439.61,65.109,443.784,69.283,443.784,74.432L443.784,74.432z"/>
		<g>
			<g>
				<g>
					<path fill="#53AF6E" d="M112.836,135.688c-3.208-0.053-21.964-0.104-28.026-2.971c-14.927-7.047-14.927-30.19-14.927-30.19
						s31.701-3.49,35.756,19.861c1.58,9.137,1.634,8.656,7.545,9.529h6.933v3.77H112.836z"/>
				</g>
			</g>
			<g>
				<g>
					<path fill="#45A260" d="M100.528,139.092c-3.205,0.047-21.959,0.105-28.021,2.963c-14.93,7.055-14.93,30.197-14.93,30.197
						s31.7,3.49,35.753-19.865c1.588-9.137,1.642-8.648,7.548-9.533h19.237v-3.762H100.528z"/>
				</g>
				<g>
					<path fill="#45A260" d="M94.919,139.198c-6.975,0.188-18.022,0.791-22.412,2.857c-14.93,7.055-14.93,30.197-14.93,30.197"/>
				</g>
			</g>
			<g>
				<g>
					<path fill="#53AF6E" d="M62.774,134.028c-3.202,0.045-21.956,0.104-28.018,2.963c-14.931,7.057-14.931,30.199-14.931,30.199
						s31.699,3.488,35.751-19.869c1.591-9.137,1.642-8.648,7.549-9.533h14.467v-3.76H62.774z"/>
				</g>
				<g>
					<path fill="#53AF6E" d="M57.167,134.131c-6.972,0.188-18.021,0.791-22.412,2.859c-14.931,7.057-14.931,30.199-14.931,30.199"/>
				</g>
			</g>
		</g>
	</g>
</g>
<g id="Röd_ljus">
	<g>
		<path fill="#E64D3D" d="M1160.291,789.436c-0.008,0.002-0.024,0.002-0.037,0h-41.793c-1.424,0-2.627-1.057-2.807-2.469
			c-2.701-21.24-20.902-37.258-42.338-37.258s-39.637,16.018-42.338,37.258c-0.18,1.412-1.383,2.469-2.805,2.469h-174.39
			c-1.424,0-2.625-1.057-2.805-2.469c-2.701-21.24-20.904-37.258-42.34-37.258c-21.434,0-39.637,16.018-42.338,37.258
			c-0.18,1.412-1.383,2.469-2.805,2.469h-28.668c-1.562,0-2.828-1.264-2.828-2.826V714.48c0-0.586,0.184-1.158,0.523-1.639
			l47.432-66.703c0.529-0.746,1.391-1.189,2.305-1.189h171.831c0.441,0,0.877,0.103,1.271,0.301
			c25.301,12.721,80.459,48.826,85.863,52.373c8.559,1.992,101.756,23.717,110.529,27.676c0.848,0.383,1.453,1.158,1.619,2.074
			c5.91,32.629,9.127,54.953,9.615,58.387c0.082,0.269,0.129,0.553,0.129,0.85C1163.119,788.172,1161.851,789.436,1160.291,789.436z
			"/>
		<path fill="#EEF7FB" d="M771.51,709.246l22.133-50.713h157.855c26.779,13.941,73.439,50.336,74.014,50.713H771.51z"/>
		
			<path fill="none" stroke="#2F9859" stroke-width="9.4858" stroke-linecap="round" stroke-linejoin="round" stroke-miterlimit="10" d="
			M803.76,716.68"/>
		<g>
			<g>
				<polygon fill="#FFFFFF" points="1134.605,749.035 1156.791,749.035 1154.515,735.07 1134.605,735.07 				"/>
				<path fill="#FFFFFF" d="M1157.818,751.109h-23.213c-1.145,0-2.072-0.93-2.072-2.074V735.07c0-1.145,0.928-2.074,2.072-2.074
					h19.91L1157.818,751.109z"/>
			</g>
		</g>
		<polygon fill="#DEEAEF" points="1022.724,709.246 771.51,709.246 793.643,658.533 		"/>
		<polygon fill="#F19300" points="750.463,750.506 732.014,750.506 732.014,733.229 740.17,733.229 		"/>
		<g>
			<circle fill="#FFFFFF" stroke="#1A171B" stroke-width="18.0105" stroke-miterlimit="10" cx="808.639" cy="793.604" r="26.486"/>
		</g>
		<g>
			<circle fill="#FFFFFF" stroke="#1A171B" stroke-width="18.0105" stroke-miterlimit="10" cx="1073.916" cy="793.604" r="26.486"/>
		</g>
		<g>
			<rect x="911.74" y="654.709" fill="#E64D3D" width="5.691" height="58.332"/>
		</g>
		<g>
			<rect x="805.794" y="654.709" fill="#E64D3D" width="5.691" height="58.332"/>
		</g>
		<path opacity="0.5" fill="none" stroke="#BF3929" stroke-width="5.6915" stroke-linejoin="round" stroke-miterlimit="10" d="
			M1022.851,700.754v75.1H862.428c-7.133-23.199-28.795-39.727-53.789-39.727v-26.881"/>
		<g opacity="0.5">
			
				<line fill="none" stroke="#BF3929" stroke-width="5.6915" stroke-linejoin="round" stroke-miterlimit="10" x1="914.586" y1="709.246" x2="914.586" y2="772.941"/>
		</g>
		
			<line fill="none" stroke="#BF3929" stroke-width="5.6915" stroke-linecap="round" stroke-linejoin="round" stroke-miterlimit="10" x1="822.887" y1="723.998" x2="839.014" y2="723.998"/>
		
			<line fill="none" stroke="#BF3929" stroke-width="5.6915" stroke-linecap="round" stroke-linejoin="round" stroke-miterlimit="10" x1="927.847" y1="723.998" x2="943.974" y2="723.998"/>
		
			<circle fill="#E64D3D" stroke="#BF3929" stroke-width="3.4767" stroke-linecap="round" stroke-linejoin="round" stroke-miterlimit="10" cx="769.552" cy="730.883" r="10.454"/>
		<path fill="#BF3929" d="M1030.253,703.719c0,5.148-4.174,9.322-9.32,9.322h-13.979c-5.148,0-9.322-4.174-9.322-9.322l0,0
			c0-5.148,4.174-9.322,9.322-9.322h13.979C1026.08,694.396,1030.253,698.57,1030.253,703.719L1030.253,703.719z"/>
		<g>
			<g>
				<g>
					<path fill="#53AF6E" d="M699.307,764.975c-3.209-0.053-21.965-0.104-28.027-2.971c-14.927-7.047-14.927-30.189-14.927-30.189
						s31.702-3.49,35.757,19.861c1.578,9.137,1.633,8.658,7.545,9.531h6.932v3.768H699.307z"/>
				</g>
			</g>
			<g>
				<g>
					<path fill="#45A260" d="M686.999,768.379c-3.205,0.047-21.959,0.105-28.021,2.963c-14.93,7.055-14.93,30.197-14.93,30.197
						s31.701,3.49,35.754-19.865c1.588-9.137,1.643-8.648,7.549-9.533h19.236v-3.762H686.999z"/>
				</g>
				<g>
					<path fill="#45A260" d="M681.389,768.484c-6.975,0.188-18.021,0.791-22.412,2.857c-14.93,7.055-14.93,30.197-14.93,30.197"/>
				</g>
			</g>
			<g>
				<g>
					<path fill="#53AF6E" d="M649.245,763.315c-3.201,0.045-21.956,0.105-28.019,2.963c-14.931,7.057-14.931,30.199-14.931,30.199
						s31.699,3.488,35.751-19.869c1.591-9.137,1.642-8.648,7.549-9.533h14.467v-3.76H649.245z"/>
				</g>
				<g>
					<path fill="#53AF6E" d="M643.637,763.42c-6.971,0.186-18.02,0.789-22.411,2.857c-14.931,7.057-14.931,30.199-14.931,30.199"/>
				</g>
			</g>
		</g>
	</g>
</g>
<g id="Röd_mörk">
	<g>
		<path fill="#BF3929" d="M1160.291,573.515c-0.008,0.002-0.024,0.002-0.037,0h-41.793c-1.424,0-2.627-1.057-2.807-2.469
			c-2.701-21.24-20.902-37.258-42.338-37.258s-39.637,16.018-42.338,37.258c-0.18,1.412-1.383,2.469-2.805,2.469h-174.39
			c-1.424,0-2.625-1.057-2.805-2.469c-2.701-21.24-20.904-37.258-42.34-37.258c-21.434,0-39.637,16.018-42.338,37.258
			c-0.18,1.412-1.383,2.469-2.805,2.469h-28.668c-1.562,0-2.828-1.264-2.828-2.826V498.56c0-0.586,0.184-1.158,0.523-1.639
			l47.432-66.703c0.529-0.746,1.391-1.19,2.305-1.19h171.831c0.441,0,0.877,0.104,1.271,0.301
			c25.301,12.721,80.459,48.826,85.863,52.373c8.559,1.992,101.756,23.717,110.529,27.676c0.848,0.383,1.453,1.158,1.619,2.074
			c5.91,32.629,9.127,54.953,9.615,58.387c0.082,0.27,0.129,0.553,0.129,0.85C1163.119,572.251,1161.851,573.515,1160.291,573.515z"
			/>
		<path fill="#EEF7FB" d="M771.51,493.325l22.133-50.713h157.855c26.779,13.941,73.439,50.336,74.014,50.713H771.51z"/>
		
			<path fill="none" stroke="#2F9859" stroke-width="9.4858" stroke-linecap="round" stroke-linejoin="round" stroke-miterlimit="10" d="
			M803.76,500.759"/>
		<g>
			<g>
				<polygon fill="#FFFFFF" points="1134.605,533.114 1156.791,533.114 1154.515,519.149 1134.605,519.149 				"/>
				<path fill="#FFFFFF" d="M1157.818,535.188h-23.213c-1.145,0-2.072-0.93-2.072-2.074v-13.965c0-1.145,0.928-2.074,2.072-2.074
					h19.91L1157.818,535.188z"/>
			</g>
		</g>
		<polygon fill="#DEEAEF" points="1022.724,493.325 771.51,493.325 793.643,442.612 		"/>
		<polygon fill="#F19300" points="750.463,534.585 732.014,534.585 732.014,517.308 740.17,517.308 		"/>
		<g>
			<circle fill="#FFFFFF" stroke="#1A171B" stroke-width="18.0105" stroke-miterlimit="10" cx="808.639" cy="577.683" r="26.486"/>
		</g>
		<g>
			<circle fill="#FFFFFF" stroke="#1A171B" stroke-width="18.0105" stroke-miterlimit="10" cx="1073.916" cy="577.683" r="26.486"/>
		</g>
		<g>
			<rect x="911.74" y="438.788" fill="#BF3929" width="5.691" height="58.332"/>
		</g>
		<g>
			<rect x="805.794" y="438.788" fill="#BF3929" width="5.691" height="58.332"/>
		</g>
		<path opacity="0.5" fill="none" stroke="#9F1E1C" stroke-width="5.6915" stroke-linejoin="round" stroke-miterlimit="10" d="
			M1022.851,484.833v75.1H862.428c-7.133-23.199-28.795-39.727-53.789-39.727v-26.881"/>
		<g opacity="0.5">
			
				<line fill="none" stroke="#9F1E1C" stroke-width="5.6915" stroke-linejoin="round" stroke-miterlimit="10" x1="914.586" y1="493.325" x2="914.586" y2="557.021"/>
		</g>
		
			<line fill="none" stroke="#9F1E1C" stroke-width="5.6915" stroke-linecap="round" stroke-linejoin="round" stroke-miterlimit="10" x1="822.887" y1="508.077" x2="839.014" y2="508.077"/>
		
			<line fill="none" stroke="#9F1E1C" stroke-width="5.6915" stroke-linecap="round" stroke-linejoin="round" stroke-miterlimit="10" x1="927.847" y1="508.077" x2="943.974" y2="508.077"/>
		
			<circle fill="#BF3929" stroke="#9F1E1C" stroke-width="3.4767" stroke-linecap="round" stroke-linejoin="round" stroke-miterlimit="10" cx="769.552" cy="514.962" r="10.454"/>
		<path fill="#9F1E1C" d="M1030.253,487.798c0,5.148-4.174,9.322-9.32,9.322h-13.979c-5.148,0-9.322-4.174-9.322-9.322l0,0
			c0-5.148,4.174-9.322,9.322-9.322h13.979C1026.08,478.476,1030.253,482.649,1030.253,487.798L1030.253,487.798z"/>
		<g>
			<g>
				<g>
					<path fill="#53AF6E" d="M699.307,549.054c-3.209-0.053-21.965-0.104-28.027-2.971c-14.927-7.047-14.927-30.189-14.927-30.189
						s31.702-3.49,35.757,19.861c1.578,9.137,1.633,8.658,7.545,9.531h6.932v3.768H699.307z"/>
				</g>
			</g>
			<g>
				<g>
					<path fill="#45A260" d="M686.999,552.458c-3.205,0.047-21.959,0.105-28.021,2.963c-14.93,7.055-14.93,30.197-14.93,30.197
						s31.701,3.49,35.754-19.865c1.588-9.137,1.643-8.648,7.549-9.533h19.236v-3.762H686.999z"/>
				</g>
				<g>
					<path fill="#45A260" d="M681.389,552.563c-6.975,0.188-18.021,0.791-22.412,2.857c-14.93,7.055-14.93,30.197-14.93,30.197"/>
				</g>
			</g>
			<g>
				<g>
					<path fill="#53AF6E" d="M649.245,547.394c-3.201,0.045-21.956,0.105-28.019,2.963c-14.931,7.057-14.931,30.199-14.931,30.199
						s31.699,3.488,35.751-19.869c1.591-9.137,1.642-8.648,7.549-9.533h14.467v-3.76H649.245z"/>
				</g>
				<g>
					<path fill="#53AF6E" d="M643.637,547.499c-6.971,0.186-18.02,0.789-22.411,2.857c-14.931,7.057-14.931,30.199-14.931,30.199"/>
				</g>
			</g>
		</g>
	</g>
</g>
<g id="Grön_ljus">
	<g>
		<path fill="#1ABC9C" d="M1160.291,358.939c-0.008,0.002-0.024,0.002-0.037,0h-41.793c-1.424,0-2.627-1.057-2.807-2.469
			c-2.701-21.24-20.902-37.258-42.338-37.258s-39.637,16.018-42.338,37.258c-0.18,1.412-1.383,2.469-2.805,2.469h-174.39
			c-1.424,0-2.625-1.057-2.805-2.469c-2.701-21.24-20.904-37.258-42.34-37.258c-21.434,0-39.637,16.018-42.338,37.258
			c-0.18,1.412-1.383,2.469-2.805,2.469h-28.668c-1.562,0-2.828-1.264-2.828-2.826v-72.129c0-0.586,0.184-1.158,0.523-1.639
			l47.432-66.703c0.529-0.746,1.391-1.189,2.305-1.189h171.831c0.441,0,0.877,0.104,1.271,0.301
			c25.301,12.721,80.459,48.826,85.863,52.373c8.559,1.992,101.756,23.717,110.529,27.676c0.848,0.383,1.453,1.158,1.619,2.074
			c5.91,32.629,9.127,54.953,9.615,58.387c0.082,0.27,0.129,0.553,0.129,0.85C1163.119,357.675,1161.851,358.939,1160.291,358.939z"
			/>
		<path fill="#EEF7FB" d="M771.51,278.749l22.133-50.713h157.855c26.779,13.941,73.439,50.336,74.014,50.713H771.51z"/>
		
			<path fill="none" stroke="#2F9859" stroke-width="9.4858" stroke-linecap="round" stroke-linejoin="round" stroke-miterlimit="10" d="
			M803.76,286.183"/>
		<g>
			<g>
				<polygon fill="#FFFFFF" points="1134.605,318.538 1156.791,318.538 1154.515,304.573 1134.605,304.573 				"/>
				<path fill="#FFFFFF" d="M1157.818,320.612h-23.213c-1.145,0-2.072-0.93-2.072-2.074v-13.965c0-1.145,0.928-2.074,2.072-2.074
					h19.91L1157.818,320.612z"/>
			</g>
		</g>
		<polygon fill="#DEEAEF" points="1022.724,278.749 771.51,278.749 793.643,228.036 		"/>
		<polygon fill="#F19300" points="750.463,320.009 732.014,320.009 732.014,302.732 740.17,302.732 		"/>
		<g>
			<circle fill="#FFFFFF" stroke="#1A171B" stroke-width="18.0105" stroke-miterlimit="10" cx="808.639" cy="363.107" r="26.486"/>
		</g>
		<g>
			<circle fill="#FFFFFF" stroke="#1A171B" stroke-width="18.0105" stroke-miterlimit="10" cx="1073.916" cy="363.107" r="26.486"/>
		</g>
		<g>
			<rect x="911.74" y="224.212" fill="#1ABC9C" width="5.691" height="58.332"/>
		</g>
		<g>
			<rect x="805.794" y="224.212" fill="#1ABC9C" width="5.691" height="58.332"/>
		</g>
		<path opacity="0.5" fill="none" stroke="#16A085" stroke-width="5.6915" stroke-linejoin="round" stroke-miterlimit="10" d="
			M1022.851,270.257v75.1H862.428c-7.133-23.199-28.795-39.727-53.789-39.727v-26.881"/>
		<g opacity="0.5">
			
				<line fill="none" stroke="#16A085" stroke-width="5.6915" stroke-linejoin="round" stroke-miterlimit="10" x1="914.586" y1="278.749" x2="914.586" y2="342.444"/>
		</g>
		
			<line fill="none" stroke="#16A085" stroke-width="5.6915" stroke-linecap="round" stroke-linejoin="round" stroke-miterlimit="10" x1="822.887" y1="293.501" x2="839.014" y2="293.501"/>
		
			<line fill="none" stroke="#16A085" stroke-width="5.6915" stroke-linecap="round" stroke-linejoin="round" stroke-miterlimit="10" x1="927.847" y1="293.501" x2="943.974" y2="293.501"/>
		
			<circle fill="#1ABC9C" stroke="#16A085" stroke-width="3.4767" stroke-linecap="round" stroke-linejoin="round" stroke-miterlimit="10" cx="769.552" cy="300.386" r="10.454"/>
		<path fill="#16A085" d="M1030.253,273.222c0,5.148-4.174,9.322-9.32,9.322h-13.979c-5.148,0-9.322-4.174-9.322-9.322l0,0
			c0-5.148,4.174-9.322,9.322-9.322h13.979C1026.08,263.899,1030.253,268.073,1030.253,273.222L1030.253,273.222z"/>
		<g>
			<g>
				<g>
					<path fill="#53AF6E" d="M699.307,334.478c-3.209-0.053-21.965-0.104-28.027-2.971c-14.927-7.047-14.927-30.189-14.927-30.189
						s31.702-3.49,35.757,19.861c1.578,9.137,1.633,8.658,7.545,9.531h6.932v3.768H699.307z"/>
				</g>
			</g>
			<g>
				<g>
					<path fill="#45A260" d="M686.999,337.882c-3.205,0.047-21.959,0.105-28.021,2.963c-14.93,7.055-14.93,30.197-14.93,30.197
						s31.701,3.49,35.754-19.865c1.588-9.137,1.643-8.648,7.549-9.533h19.236v-3.762H686.999z"/>
				</g>
				<g>
					<path fill="#45A260" d="M681.389,337.987c-6.975,0.188-18.021,0.791-22.412,2.857c-14.93,7.055-14.93,30.197-14.93,30.197"/>
				</g>
			</g>
			<g>
				<g>
					<path fill="#53AF6E" d="M649.245,332.817c-3.201,0.045-21.956,0.105-28.019,2.963c-14.931,7.057-14.931,30.199-14.931,30.199
						s31.699,3.488,35.751-19.869c1.591-9.137,1.642-8.648,7.549-9.533h14.467v-3.76H649.245z"/>
				</g>
				<g>
					<path fill="#53AF6E" d="M643.637,332.923c-6.971,0.186-18.02,0.789-22.411,2.857c-14.931,7.057-14.931,30.199-14.931,30.199"/>
				</g>
			</g>
		</g>
	</g>
</g>
<g id="Grön_mörk">
	<g>
		<path fill="#16A085" d="M1160.291,159.259c-0.008,0.002-0.024,0.002-0.037,0h-41.793c-1.424,0-2.627-1.057-2.807-2.469
			c-2.701-21.24-20.902-37.258-42.338-37.258s-39.637,16.018-42.338,37.258c-0.18,1.412-1.383,2.469-2.805,2.469h-174.39
			c-1.424,0-2.625-1.057-2.805-2.469c-2.701-21.24-20.904-37.258-42.34-37.258c-21.434,0-39.637,16.018-42.338,37.258
			c-0.18,1.412-1.383,2.469-2.805,2.469h-28.668c-1.562,0-2.828-1.264-2.828-2.826V84.304c0-0.586,0.184-1.158,0.523-1.639
			l47.432-66.703c0.529-0.746,1.391-1.189,2.305-1.189h171.831c0.441,0,0.877,0.103,1.271,0.301
			c25.301,12.721,80.459,48.826,85.863,52.373c8.559,1.992,101.756,23.717,110.529,27.676c0.848,0.383,1.453,1.158,1.619,2.074
			c5.91,32.629,9.127,54.953,9.615,58.387c0.082,0.27,0.129,0.553,0.129,0.85C1163.119,157.996,1161.851,159.259,1160.291,159.259z"
			/>
		<path fill="#EEF7FB" d="M771.51,79.07l22.133-50.713h157.855c26.779,13.941,73.439,50.336,74.014,50.713H771.51z"/>
		
			<path fill="none" stroke="#2F9859" stroke-width="9.4858" stroke-linecap="round" stroke-linejoin="round" stroke-miterlimit="10" d="
			M803.76,86.503"/>
		<g>
			<g>
				<polygon fill="#FFFFFF" points="1134.605,118.859 1156.791,118.859 1154.515,104.894 1134.605,104.894 				"/>
				<path fill="#FFFFFF" d="M1157.818,120.933h-23.213c-1.145,0-2.072-0.93-2.072-2.074v-13.965c0-1.145,0.928-2.074,2.072-2.074
					h19.91L1157.818,120.933z"/>
			</g>
		</g>
		<polygon fill="#DEEAEF" points="1022.724,79.07 771.51,79.07 793.643,28.357 		"/>
		<polygon fill="#F19300" points="750.463,120.33 732.014,120.33 732.014,103.052 740.17,103.052 		"/>
		<g>
			<circle fill="#FFFFFF" stroke="#1A171B" stroke-width="18.0105" stroke-miterlimit="10" cx="808.639" cy="163.427" r="26.486"/>
		</g>
		<g>
			<circle fill="#FFFFFF" stroke="#1A171B" stroke-width="18.0105" stroke-miterlimit="10" cx="1073.916" cy="163.427" r="26.486"/>
		</g>
		<g>
			<rect x="911.74" y="24.533" fill="#16A085" width="5.691" height="58.332"/>
		</g>
		<g>
			<rect x="805.794" y="24.533" fill="#16A085" width="5.691" height="58.332"/>
		</g>
		<path opacity="0.5" fill="none" stroke="#08846C" stroke-width="5.6915" stroke-linejoin="round" stroke-miterlimit="10" d="
			M1022.851,70.578v75.1H862.428c-7.133-23.199-28.795-39.727-53.789-39.727V79.07"/>
		<g opacity="0.5">
			
				<line fill="none" stroke="#08846C" stroke-width="5.6915" stroke-linejoin="round" stroke-miterlimit="10" x1="914.586" y1="79.07" x2="914.586" y2="142.765"/>
		</g>
		
			<line fill="none" stroke="#08846C" stroke-width="5.6915" stroke-linecap="round" stroke-linejoin="round" stroke-miterlimit="10" x1="822.887" y1="93.822" x2="839.014" y2="93.822"/>
		
			<line fill="none" stroke="#08846C" stroke-width="5.6915" stroke-linecap="round" stroke-linejoin="round" stroke-miterlimit="10" x1="927.847" y1="93.822" x2="943.974" y2="93.822"/>
		
			<circle fill="#16A085" stroke="#08846C" stroke-width="3.4767" stroke-linecap="round" stroke-linejoin="round" stroke-miterlimit="10" cx="769.552" cy="100.707" r="10.454"/>
		<path fill="#08846C" d="M1030.253,73.542c0,5.148-4.174,9.322-9.32,9.322h-13.979c-5.148,0-9.322-4.174-9.322-9.322l0,0
			c0-5.148,4.174-9.322,9.322-9.322h13.979C1026.08,64.22,1030.253,68.394,1030.253,73.542L1030.253,73.542z"/>
		<g>
			<g>
				<g>
					<path fill="#53AF6E" d="M699.307,134.798c-3.209-0.053-21.965-0.104-28.027-2.971c-14.927-7.047-14.927-30.189-14.927-30.189
						s31.702-3.49,35.757,19.861c1.578,9.137,1.633,8.658,7.545,9.531h6.932v3.768H699.307z"/>
				</g>
			</g>
			<g>
				<g>
					<path fill="#45A260" d="M686.999,138.203c-3.205,0.047-21.959,0.105-28.021,2.963c-14.93,7.055-14.93,30.197-14.93,30.197
						s31.701,3.49,35.754-19.865c1.588-9.137,1.643-8.649,7.549-9.533h19.236v-3.762H686.999z"/>
				</g>
				<g>
					<path fill="#45A260" d="M681.389,138.308c-6.975,0.188-18.021,0.791-22.412,2.857c-14.93,7.055-14.93,30.197-14.93,30.197"/>
				</g>
			</g>
			<g>
				<g>
					<path fill="#53AF6E" d="M649.245,133.138c-3.201,0.045-21.956,0.105-28.019,2.963c-14.931,7.057-14.931,30.199-14.931,30.199
						s31.699,3.488,35.751-19.869c1.591-9.137,1.642-8.648,7.549-9.533h14.467v-3.76H649.245z"/>
				</g>
				<g>
					<path fill="#53AF6E" d="M643.637,133.244c-6.971,0.186-18.02,0.789-22.411,2.857c-14.931,7.057-14.931,30.199-14.931,30.199"/>
				</g>
			</g>
		</g>
	</g>
</g>
<g id="Gul_ljus">
	<g>
		<path fill="#FFD93F" d="M1774.291,789.436c-0.008,0.002-0.024,0.002-0.037,0h-41.793c-1.424,0-2.627-1.057-2.807-2.469
			c-2.701-21.24-20.902-37.258-42.338-37.258c-21.436,0-39.637,16.018-42.338,37.258c-0.18,1.412-1.383,2.469-2.805,2.469h-174.39
			c-1.424,0-2.625-1.057-2.805-2.469c-2.701-21.24-20.904-37.258-42.34-37.258c-21.434,0-39.637,16.018-42.338,37.258
			c-0.18,1.412-1.383,2.469-2.805,2.469h-28.668c-1.562,0-2.828-1.264-2.828-2.826V714.48c0-0.586,0.184-1.158,0.524-1.639
			l47.432-66.703c0.529-0.746,1.391-1.189,2.305-1.189h171.831c0.441,0,0.877,0.103,1.271,0.301
			c25.301,12.721,80.459,48.826,85.863,52.373c8.559,1.992,101.756,23.717,110.529,27.676c0.848,0.383,1.453,1.158,1.619,2.074
			c5.91,32.629,9.127,54.953,9.615,58.387c0.082,0.269,0.129,0.553,0.129,0.85C1777.119,788.172,1775.851,789.436,1774.291,789.436z
			"/>
		<path fill="#EEF7FB" d="M1385.51,709.246l22.133-50.713h157.854c26.779,13.941,73.439,50.336,74.014,50.713H1385.51z"/>
		
			<path fill="none" stroke="#2F9859" stroke-width="9.4858" stroke-linecap="round" stroke-linejoin="round" stroke-miterlimit="10" d="
			M1417.76,716.68"/>
		<g>
			<g>
				<polygon fill="#FFFFFF" points="1748.605,749.035 1770.791,749.035 1768.515,735.07 1748.605,735.07 				"/>
				<path fill="#FFFFFF" d="M1771.818,751.109h-23.213c-1.145,0-2.072-0.93-2.072-2.074V735.07c0-1.145,0.928-2.074,2.072-2.074
					h19.91L1771.818,751.109z"/>
			</g>
		</g>
		<polygon fill="#DEEAEF" points="1636.724,709.246 1385.51,709.246 1407.643,658.533 		"/>
		<polygon fill="#F19300" points="1364.463,750.506 1346.014,750.506 1346.014,733.229 1354.17,733.229 		"/>
		<g>
			<circle fill="#FFFFFF" stroke="#1A171B" stroke-width="18.0105" stroke-miterlimit="10" cx="1422.639" cy="793.604" r="26.486"/>
		</g>
		<g>
			<circle fill="#FFFFFF" stroke="#1A171B" stroke-width="18.0105" stroke-miterlimit="10" cx="1687.916" cy="793.604" r="26.486"/>
		</g>
		<g>
			<rect x="1525.74" y="654.709" fill="#FFD93F" width="5.691" height="58.332"/>
		</g>
		<g>
			<rect x="1419.793" y="654.709" fill="#FFD93F" width="5.691" height="58.332"/>
		</g>
		<path opacity="0.5" fill="none" stroke="#F8B518" stroke-width="5.6915" stroke-linejoin="round" stroke-miterlimit="10" d="
			M1636.851,700.754v75.1h-160.423c-7.133-23.199-28.795-39.727-53.789-39.727v-26.881"/>
		<g opacity="0.5">
			
				<line fill="none" stroke="#F8B518" stroke-width="5.6915" stroke-linejoin="round" stroke-miterlimit="10" x1="1528.585" y1="709.246" x2="1528.585" y2="772.941"/>
		</g>
		
			<line fill="none" stroke="#F8B518" stroke-width="5.6915" stroke-linecap="round" stroke-linejoin="round" stroke-miterlimit="10" x1="1436.887" y1="723.998" x2="1453.014" y2="723.998"/>
		
			<line fill="none" stroke="#F8B518" stroke-width="5.6915" stroke-linecap="round" stroke-linejoin="round" stroke-miterlimit="10" x1="1541.847" y1="723.998" x2="1557.974" y2="723.998"/>
		
			<circle fill="#FFD93F" stroke="#F8B518" stroke-width="3.4767" stroke-linecap="round" stroke-linejoin="round" stroke-miterlimit="10" cx="1383.552" cy="730.883" r="10.454"/>
		<path fill="#F8B518" d="M1644.254,703.719c0,5.148-4.174,9.322-9.32,9.322h-13.979c-5.148,0-9.322-4.174-9.322-9.322l0,0
			c0-5.148,4.174-9.322,9.322-9.322h13.979C1640.08,694.396,1644.254,698.57,1644.254,703.719L1644.254,703.719z"/>
		<g>
			<g>
				<g>
					<path fill="#53AF6E" d="M1313.307,764.975c-3.209-0.053-21.965-0.104-28.027-2.971c-14.927-7.047-14.927-30.189-14.927-30.189
						s31.702-3.49,35.757,19.861c1.578,9.137,1.633,8.658,7.545,9.531h6.932v3.768H1313.307z"/>
				</g>
			</g>
			<g>
				<g>
					<path fill="#45A260" d="M1300.999,768.379c-3.205,0.047-21.959,0.105-28.022,2.963c-14.93,7.055-14.93,30.197-14.93,30.197
						s31.701,3.49,35.754-19.865c1.588-9.137,1.643-8.648,7.549-9.533h19.236v-3.762H1300.999z"/>
				</g>
				<g>
					<path fill="#45A260" d="M1295.389,768.484c-6.975,0.188-18.021,0.791-22.412,2.857c-14.93,7.055-14.93,30.197-14.93,30.197"/>
				</g>
			</g>
			<g>
				<g>
					<path fill="#53AF6E" d="M1263.245,763.315c-3.201,0.045-21.956,0.105-28.019,2.963c-14.931,7.057-14.931,30.199-14.931,30.199
						s31.699,3.488,35.751-19.869c1.591-9.137,1.642-8.648,7.549-9.533h14.467v-3.76H1263.245z"/>
				</g>
				<g>
					<path fill="#53AF6E" d="M1257.637,763.42c-6.971,0.186-18.02,0.789-22.411,2.857c-14.931,7.057-14.931,30.199-14.931,30.199"/>
				</g>
			</g>
		</g>
	</g>
</g>
<g id="Gul_mörk">
	<g>
		<path fill="#FBC013" d="M1774.291,571.879c-0.008,0.002-0.024,0.002-0.037,0h-41.793c-1.424,0-2.627-1.057-2.807-2.469
			c-2.701-21.24-20.902-37.258-42.338-37.258c-21.436,0-39.637,16.018-42.338,37.258c-0.18,1.412-1.383,2.469-2.805,2.469h-174.39
			c-1.424,0-2.625-1.057-2.805-2.469c-2.701-21.24-20.904-37.258-42.34-37.258c-21.434,0-39.637,16.018-42.338,37.258
			c-0.18,1.412-1.383,2.469-2.805,2.469h-28.668c-1.562,0-2.828-1.264-2.828-2.826v-72.129c0-0.586,0.184-1.158,0.524-1.639
			l47.432-66.703c0.529-0.746,1.391-1.189,2.305-1.189h171.831c0.441,0,0.877,0.103,1.271,0.301
			c25.301,12.721,80.459,48.826,85.863,52.373c8.559,1.992,101.756,23.717,110.529,27.676c0.848,0.383,1.453,1.158,1.619,2.074
			c5.91,32.629,9.127,54.953,9.615,58.387c0.082,0.27,0.129,0.553,0.129,0.85C1777.119,570.615,1775.851,571.879,1774.291,571.879z"
			/>
		<path fill="#EEF7FB" d="M1385.51,491.689l22.133-50.713h157.854c26.779,13.941,73.439,50.336,74.014,50.713H1385.51z"/>
		
			<path fill="none" stroke="#2F9859" stroke-width="9.4858" stroke-linecap="round" stroke-linejoin="round" stroke-miterlimit="10" d="
			M1417.76,499.123"/>
		<g>
			<g>
				<polygon fill="#FFFFFF" points="1748.605,531.479 1770.791,531.479 1768.515,517.514 1748.605,517.514 				"/>
				<path fill="#FFFFFF" d="M1771.818,533.553h-23.213c-1.145,0-2.072-0.93-2.072-2.074v-13.965c0-1.144,0.928-2.074,2.072-2.074
					h19.91L1771.818,533.553z"/>
			</g>
		</g>
		<polygon fill="#DEEAEF" points="1636.724,491.689 1385.51,491.689 1407.643,440.977 		"/>
		<polygon fill="#F19300" points="1364.463,532.949 1346.014,532.949 1346.014,515.672 1354.17,515.672 		"/>
		<g>
			<circle fill="#FFFFFF" stroke="#1A171B" stroke-width="18.0105" stroke-miterlimit="10" cx="1422.639" cy="576.047" r="26.486"/>
		</g>
		<g>
			<circle fill="#FFFFFF" stroke="#1A171B" stroke-width="18.0105" stroke-miterlimit="10" cx="1687.916" cy="576.047" r="26.486"/>
		</g>
		<g>
			<rect x="1525.74" y="437.152" fill="#FBC013" width="5.691" height="58.332"/>
		</g>
		<g>
			<rect x="1419.793" y="437.152" fill="#FBC013" width="5.691" height="58.332"/>
		</g>
		<path opacity="0.5" fill="none" stroke="#F39C12" stroke-width="5.6915" stroke-linejoin="round" stroke-miterlimit="10" d="
			M1636.851,483.197v75.1h-160.423c-7.133-23.199-28.795-39.727-53.789-39.727v-26.881"/>
		<g opacity="0.5">
			
				<line fill="none" stroke="#F39C12" stroke-width="5.6915" stroke-linejoin="round" stroke-miterlimit="10" x1="1528.585" y1="491.689" x2="1528.585" y2="555.385"/>
		</g>
		
			<line fill="none" stroke="#F39C12" stroke-width="5.6915" stroke-linecap="round" stroke-linejoin="round" stroke-miterlimit="10" x1="1436.887" y1="506.441" x2="1453.014" y2="506.441"/>
		
			<line fill="none" stroke="#F39C12" stroke-width="5.6915" stroke-linecap="round" stroke-linejoin="round" stroke-miterlimit="10" x1="1541.847" y1="506.441" x2="1557.974" y2="506.441"/>
		
			<circle fill="#FBC013" stroke="#F39C12" stroke-width="3.4767" stroke-linecap="round" stroke-linejoin="round" stroke-miterlimit="10" cx="1383.552" cy="513.326" r="10.454"/>
		<path fill="#F39C12" d="M1644.254,486.162c0,5.148-4.174,9.322-9.32,9.322h-13.979c-5.148,0-9.322-4.174-9.322-9.322l0,0
			c0-5.148,4.174-9.322,9.322-9.322h13.979C1640.08,476.84,1644.254,481.014,1644.254,486.162L1644.254,486.162z"/>
		<g>
			<g>
				<g>
					<path fill="#53AF6E" d="M1313.307,547.418c-3.209-0.053-21.965-0.103-28.027-2.971c-14.927-7.047-14.927-30.19-14.927-30.19
						s31.702-3.49,35.757,19.861c1.578,9.137,1.633,8.658,7.545,9.531h6.932v3.768H1313.307z"/>
				</g>
			</g>
			<g>
				<g>
					<path fill="#45A260" d="M1300.999,550.822c-3.205,0.047-21.959,0.105-28.022,2.963c-14.93,7.055-14.93,30.197-14.93,30.197
						s31.701,3.49,35.754-19.865c1.588-9.137,1.643-8.648,7.549-9.533h19.236v-3.762H1300.999z"/>
				</g>
				<g>
					<path fill="#45A260" d="M1295.389,550.928c-6.975,0.188-18.021,0.791-22.412,2.858c-14.93,7.055-14.93,30.197-14.93,30.197"/>
				</g>
			</g>
			<g>
				<g>
					<path fill="#53AF6E" d="M1263.245,545.758c-3.201,0.045-21.956,0.105-28.019,2.963c-14.931,7.057-14.931,30.199-14.931,30.199
						s31.699,3.488,35.751-19.869c1.591-9.137,1.642-8.648,7.549-9.533h14.467v-3.76H1263.245z"/>
				</g>
				<g>
					<path fill="#53AF6E" d="M1257.637,545.863c-6.971,0.185-18.02,0.789-22.411,2.857c-14.931,7.057-14.931,30.199-14.931,30.199"
						/>
				</g>
			</g>
		</g>
	</g>
</g>
</svg>
