<?xml version="1.0" encoding="utf-8"?>
<!-- Generator: Adobe Illustrator 15.0.2, SVG Export Plug-In . SVG Version: 6.00 Build 0)  -->
<!DOCTYPE svg PUBLIC "-//W3C//DTD SVG 1.1//EN" "http://www.w3.org/Graphics/SVG/1.1/DTD/svg11.dtd">
<svg version="1.1" id="Lager_1" xmlns="http://www.w3.org/2000/svg" xmlns:xlink="http://www.w3.org/1999/xlink" x="0px" y="0px"
	 width="156.527px" height="240.562px" viewBox="0 0 156.527 240.562" enable-background="new 0 0 156.527 240.562"
	 xml:space="preserve">
<g>
	<g>
		<rect x="0.155" fill="#F8F8F8" width="156.372" height="207.859"/>
		<rect x="0.155" fill="#575756" width="156.372" height="19.441"/>
		<rect x="0.155" fill="#3C3C3B" width="78.187" height="19.441"/>
		<rect x="0.155" y="19.441" fill="#F2F2F2" width="78.187" height="188.417"/>
		<rect x="118.979" y="170.584" fill="#E9E9E9" width="37.549" height="37.274"/>
		<polygon fill="#FFFFFF" points="156.527,170.584 118.979,170.584 118.979,207.859 		"/>
	</g>
	<g>
		<polygon fill="#F5BF9E" points="155.701,235.251 143.301,229.941 143.301,240.562 		"/>
		<rect x="11.367" y="229.941" fill="#FFD600" width="131.934" height="10.621"/>
		<polygon fill="#575756" points="155.701,235.251 149.692,237.826 149.692,232.677 		"/>
		<rect x="7.468" y="229.941" fill="#C6C6C6" width="3.899" height="10.621"/>
		<rect y="229.941" fill="#E5595B" width="7.468" height="10.621"/>
		<rect x="11.367" y="235.251" fill="#FDC100" width="131.934" height="5.311"/>
		<rect x="7.468" y="235.251" fill="#B2B2B2" width="3.899" height="5.309"/>
		<rect y="235.251" fill="#D55455" width="7.468" height="5.309"/>
	</g>
</g>
</svg>
