<?xml version="1.0" encoding="utf-8"?>
<!-- Generator: Adobe Illustrator 15.0.2, SVG Export Plug-In . SVG Version: 6.00 Build 0)  -->
<!DOCTYPE svg PUBLIC "-//W3C//DTD SVG 1.1//EN" "http://www.w3.org/Graphics/SVG/1.1/DTD/svg11.dtd">
<svg version="1.1" id="Lager_1" xmlns="http://www.w3.org/2000/svg" xmlns:xlink="http://www.w3.org/1999/xlink" x="0px" y="0px"
	 width="118.201px" height="169.801px" viewBox="0 0 118.201 169.801" enable-background="new 0 0 118.201 169.801"
	 xml:space="preserve">
<g>
	<g>
		<path fill="#54B06F" d="M62.245,157.49c0.068-5.412,0.043-37.011,4.837-47.246c11.788-25.2,50.78-25.336,50.78-25.336
			s6.078,53.384-33.252,60.375C69.222,148,70.032,148.084,68.588,158.05l0.052,11.687l-6.348,0.021L62.245,157.49z"/>
	</g>
</g>
<g>
	<g>
		<path fill="#46A360" d="M56.431,136.766c-0.091-5.39-0.308-37.003-5.165-47.201C39.286,64.448,0.286,64.588,0.286,64.588
			s-5.691,53.447,33.699,60.135c15.404,2.621,14.586,2.711,16.111,12.66l0.117,32.418l6.337-0.022L56.431,136.766z"/>
	</g>
	<g>
		<path fill="#46A360" d="M56.218,127.321c-0.358-11.755-1.435-30.371-4.952-37.756C39.286,64.448,0.286,64.588,0.286,64.588"/>
	</g>
</g>
<path fill="#905B9D" d="M90.223,0v39.623c0,17.672-12.526,31.999-27.978,31.999l0,0c-15.452,0-27.978-14.327-27.978-31.999V0
	l27.978,21.366L90.223,0z"/>
<path fill="#814893" d="M62.245,71.622L62.245,71.622c-15.452,0-27.978-14.327-27.978-31.999V0l27.978,21.366V71.622z"/>
</svg>
