<?xml version="1.0" encoding="utf-8"?>
<!-- Generator: Adobe Illustrator 15.0.2, SVG Export Plug-In . SVG Version: 6.00 Build 0)  -->
<!DOCTYPE svg PUBLIC "-//W3C//DTD SVG 1.1//EN" "http://www.w3.org/Graphics/SVG/1.1/DTD/svg11.dtd">
<svg version="1.1" id="Lager_1" xmlns="http://www.w3.org/2000/svg" xmlns:xlink="http://www.w3.org/1999/xlink" x="0px" y="0px"
	 width="153.403px" height="137.652px" viewBox="0 0 153.403 137.652" enable-background="new 0 0 153.403 137.652"
	 xml:space="preserve">
<g>
	<g>
		<path fill="#EFBB7C" stroke="#EFBB7C" stroke-width="1.3888" stroke-miterlimit="10" d="M40.896,121.857
			c-1.662,1.662-4.357,1.662-6.019,0l0,0c-1.663-1.662-1.664-4.357-0.001-6.02L105.1,45.613c1.663-1.663,4.358-1.662,6.021,0.001
			l0,0c1.662,1.661,1.662,4.356,0,6.02L40.896,121.857z"/>
		
			<line fill="none" stroke="#DD9549" stroke-width="1.0416" stroke-linecap="round" stroke-linejoin="round" stroke-miterlimit="10" x1="43.37" y1="116.45" x2="41.05" y2="118.769"/>
		
			<line fill="none" stroke="#DD9549" stroke-width="1.0416" stroke-linecap="round" stroke-linejoin="round" stroke-miterlimit="10" x1="65.142" y1="91.589" x2="62.822" y2="93.909"/>
		
			<line fill="none" stroke="#DD9549" stroke-width="1.0416" stroke-linecap="round" stroke-linejoin="round" stroke-miterlimit="10" x1="70.365" y1="89.455" x2="68.045" y2="91.774"/>
		
			<line fill="none" stroke="#DD9549" stroke-width="1.0416" stroke-linecap="round" stroke-linejoin="round" stroke-miterlimit="10" x1="84.894" y1="69.15" x2="82.573" y2="71.47"/>
		
			<line fill="none" stroke="#DD9549" stroke-width="1.0416" stroke-linecap="round" stroke-linejoin="round" stroke-miterlimit="10" x1="81.861" y1="74.972" x2="79.542" y2="77.292"/>
		
			<line fill="none" stroke="#DD9549" stroke-width="1.0416" stroke-linecap="round" stroke-linejoin="round" stroke-miterlimit="10" x1="88.771" y1="70.924" x2="86.451" y2="73.244"/>
		
			<line fill="none" stroke="#DD9549" stroke-width="1.0416" stroke-linecap="round" stroke-linejoin="round" stroke-miterlimit="10" x1="93.648" y1="60.395" x2="91.329" y2="62.715"/>
		
			<line fill="none" stroke="#DD9549" stroke-width="1.0416" stroke-linecap="round" stroke-linejoin="round" stroke-miterlimit="10" x1="101.335" y1="55.499" x2="99.016" y2="57.818"/>
		
			<line fill="none" stroke="#DD9549" stroke-width="1.0416" stroke-linecap="round" stroke-linejoin="round" stroke-miterlimit="10" x1="103.26" y1="50.785" x2="100.94" y2="53.104"/>
		
			<line fill="none" stroke="#DD9549" stroke-width="1.0416" stroke-linecap="round" stroke-linejoin="round" stroke-miterlimit="10" x1="108.886" y1="50.934" x2="106.565" y2="53.253"/>
		
			<line fill="none" stroke="#DD9549" stroke-width="1.0416" stroke-linecap="round" stroke-linejoin="round" stroke-miterlimit="10" x1="69.839" y1="84.205" x2="67.52" y2="86.524"/>
		
			<line fill="none" stroke="#DD9549" stroke-width="1.0416" stroke-linecap="round" stroke-linejoin="round" stroke-miterlimit="10" x1="48.918" y1="107.813" x2="44.728" y2="112.003"/>
		
			<line fill="none" stroke="#DD9549" stroke-width="1.0416" stroke-linecap="round" stroke-linejoin="round" stroke-miterlimit="10" x1="61.09" y1="98.73" x2="56.898" y2="102.921"/>
		
			<line fill="none" stroke="#DD9549" stroke-width="1.0416" stroke-linecap="round" stroke-linejoin="round" stroke-miterlimit="10" x1="78.315" y1="81.504" x2="74.123" y2="85.697"/>
		
			<line fill="none" stroke="#DD9549" stroke-width="1.0416" stroke-linecap="round" stroke-linejoin="round" stroke-miterlimit="10" x1="76.987" y1="77.056" x2="72.796" y2="81.249"/>
		
			<line fill="none" stroke="#DD9549" stroke-width="1.0416" stroke-linecap="round" stroke-linejoin="round" stroke-miterlimit="10" x1="92.141" y1="64.693" x2="87.948" y2="68.885"/>
		
			<line fill="none" stroke="#DD9549" stroke-width="1.0416" stroke-linecap="round" stroke-linejoin="round" stroke-miterlimit="10" x1="100.446" y1="59.249" x2="96.255" y2="63.441"/>
		
			<line fill="none" stroke="#DD9549" stroke-width="1.0416" stroke-linecap="round" stroke-linejoin="round" stroke-miterlimit="10" x1="42.802" y1="111.242" x2="40.482" y2="113.562"/>
		
			<line fill="none" stroke="#DD9549" stroke-width="1.0416" stroke-linecap="round" stroke-linejoin="round" stroke-miterlimit="10" x1="53.493" y1="106.327" x2="51.174" y2="108.646"/>
		
			<line fill="none" stroke="#DD9549" stroke-width="1.0416" stroke-linecap="round" stroke-linejoin="round" stroke-miterlimit="10" x1="59.585" y1="94.458" x2="57.266" y2="96.779"/>
		
			<line fill="none" stroke="#DD9549" stroke-width="1.0416" stroke-linecap="round" stroke-linejoin="round" stroke-miterlimit="10" x1="53.063" y1="100.98" x2="50.744" y2="103.299"/>
	</g>
	<g>
		
			<rect x="66.372" y="17.339" transform="matrix(-0.8094 0.5873 -0.5873 -0.8094 184.6455 36.0557)" fill="#EDEDED" stroke="#EDEDED" stroke-width="3.8164" stroke-linecap="round" stroke-linejoin="round" stroke-miterlimit="10" width="40.198" height="61.313"/>
		
			<rect x="84.54" y="11.394" transform="matrix(-0.8094 0.5873 -0.5873 -0.8094 195.9778 20.4853)" fill="#C6C6C6" stroke="#C6C6C6" stroke-width="3.8304" stroke-miterlimit="10" width="20.248" height="61.313"/>
		
			<line fill="none" stroke="#C6C6C6" stroke-width="3.7729" stroke-linejoin="round" stroke-miterlimit="10" x1="102.004" y1="58.379" x2="80.029" y2="74.326"/>
		
			<line fill="none" stroke="#C6C6C6" stroke-width="3.8164" stroke-linejoin="round" stroke-miterlimit="10" x1="97.367" y1="50.917" x2="74.883" y2="67.231"/>
		
			<line fill="none" stroke="#C6C6C6" stroke-width="3.8164" stroke-linejoin="round" stroke-miterlimit="10" x1="92.238" y1="43.811" x2="69.71" y2="60.158"/>
		
			<line fill="none" stroke="#C6C6C6" stroke-width="3.8164" stroke-linejoin="round" stroke-miterlimit="10" x1="87.091" y1="36.717" x2="64.569" y2="53.06"/>
		
			<line fill="none" stroke="#C6C6C6" stroke-width="3.8164" stroke-linejoin="round" stroke-miterlimit="10" x1="81.927" y1="29.637" x2="59.428" y2="45.962"/>
		
			<line fill="none" stroke="#EDEDED" stroke-width="3.1054" stroke-linejoin="round" stroke-miterlimit="10" x1="113.613" y1="49.955" x2="96.16" y2="62.619"/>
		
			<line fill="none" stroke="#EDEDED" stroke-width="3.1054" stroke-linejoin="round" stroke-miterlimit="10" x1="108.466" y1="42.862" x2="91.371" y2="55.268"/>
		
			<line fill="none" stroke="#EDEDED" stroke-width="3.1054" stroke-linejoin="round" stroke-miterlimit="10" x1="103.319" y1="35.77" x2="86.224" y2="48.175"/>
		
			<line fill="none" stroke="#EDEDED" stroke-width="3.1054" stroke-linejoin="round" stroke-miterlimit="10" x1="98.173" y1="28.676" x2="81.077" y2="41.081"/>
		
			<line fill="none" stroke="#EDEDED" stroke-width="3.1066" stroke-linejoin="round" stroke-miterlimit="10" x1="93.052" y1="21.564" x2="75.931" y2="33.988"/>
		<circle fill="#C6C6C6" stroke="#C6C6C6" stroke-width="3.0835" stroke-miterlimit="10" cx="120.085" cy="94.839" r="20.403"/>
		<circle fill="#C6C6C6" stroke="#EDEDED" stroke-width="3.8164" stroke-miterlimit="10" cx="120.085" cy="94.838" r="14.346"/>
		
			<path fill="#EDEDED" stroke="#EDEDED" stroke-width="1.2806" stroke-linecap="round" stroke-linejoin="round" stroke-miterlimit="10" d="
			M89.82,88.219c-0.214-0.296-0.147-0.708,0.147-0.923l32.781-23.787c0.295-0.214,0.709-0.15,0.922,0.146l0,0
			c0.215,0.295,0.148,0.709-0.146,0.923l-32.78,23.787C90.448,88.58,90.035,88.514,89.82,88.219L89.82,88.219z"/>
		
			<path fill="#C6C6C6" stroke="#C6C6C6" stroke-width="1.2806" stroke-linecap="round" stroke-linejoin="round" stroke-miterlimit="10" d="
			M105.755,75.841l16.994-12.332c0.295-0.214,0.709-0.15,0.922,0.146l0,0c0.215,0.295,0.148,0.709-0.146,0.923L106.53,76.91
			L105.755,75.841z"/>
		
			<path fill="#EDEDED" stroke="#EDEDED" stroke-width="1.2806" stroke-linecap="round" stroke-linejoin="round" stroke-miterlimit="10" d="
			M49.376,32.482c-0.214-0.296-0.149-0.71,0.146-0.924L82.303,7.771c0.296-0.213,0.71-0.148,0.924,0.148l0,0
			c0.214,0.294,0.147,0.708-0.147,0.923l-32.78,23.787C50.003,32.842,49.589,32.776,49.376,32.482L49.376,32.482z"/>
		
			<path fill="#C6C6C6" stroke="#C6C6C6" stroke-width="1.2806" stroke-linecap="round" stroke-linejoin="round" stroke-miterlimit="10" d="
			M65.309,20.103L82.303,7.771c0.296-0.213,0.71-0.148,0.924,0.148l0,0c0.214,0.294,0.147,0.708-0.147,0.923L66.086,21.173
			L65.309,20.103z"/>
	</g>
	<circle opacity="0.8" fill="#E94E1B" cx="104.887" cy="6.292" r="6.292"/>
	<circle opacity="0.8" fill="#E94E1B" cx="98.388" cy="129.892" r="7.76"/>
	<circle opacity="0.8" fill="#CA9E67" cx="37.571" cy="22.733" r="6.292"/>
	<circle opacity="0.8" fill="#CA9E67" cx="83.78" cy="106.794" r="6.292"/>
	<circle opacity="0.8" fill="#7D4E24" cx="14.133" cy="105.605" r="6.291"/>
	<circle opacity="0.8" fill="#7D4E24" cx="147.112" cy="68.885" r="6.291"/>
	<g>
		
			<polygon fill="#D8D9DC" stroke="#D8D9DC" stroke-width="5.8714" stroke-linecap="round" stroke-linejoin="round" stroke-miterlimit="10" points="
			27.644,88.784 17.514,82.749 14.684,75.167 18.391,63.993 		"/>
		<g>
			<polygon fill="#C1C1C7" points="27.644,88.784 17.514,82.749 16.103,78.968 23.012,76.375 			"/>
			<path fill="#C1C1C7" d="M15.784,78.119l6.91-2.594c0,0,0-0.002,0.001-0.002c0.226-0.084,0.475-0.074,0.694,0.025
				c0.22,0.1,0.391,0.283,0.475,0.509l4.631,12.409c0.13,0.347,0.035,0.738-0.239,0.988c-0.087,0.08-0.188,0.141-0.295,0.181
				c-0.228,0.085-0.484,0.077-0.712-0.032L17.12,83.568c-0.212-0.102-0.376-0.281-0.458-0.502l-1.733-4.645L15.784,78.119z
				 M18.237,82.087l7.765,4.898l-3.523-9.44l-5.207,1.956L18.237,82.087z"/>
		</g>
		
			<polygon fill="#2D7FBE" stroke="#2D7FBE" stroke-width="5.8714" stroke-linecap="round" stroke-linejoin="round" stroke-miterlimit="10" points="
			132.622,55.167 27.959,88.797 18.61,63.749 119.714,20.581 		"/>
		<g>
			<polygon fill="#296EA4" points="132.622,55.167 27.959,88.797 23.285,76.273 126.169,37.874 			"/>
			<path fill="#296EA4" d="M133.474,54.849c0.088,0.233,0.074,0.491-0.033,0.715c-0.102,0.21-0.281,0.373-0.5,0.455
				c-0.012,0.005-0.025,0.01-0.039,0.014L28.237,89.664c-0.462,0.148-0.959-0.094-1.129-0.549l-4.992-13.374l0.851-0.319
				l103.735-38.717L133.474,54.849z M28.508,87.667l102.931-33.075l-5.805-15.55L24.455,76.807L28.508,87.667z"/>
		</g>
		
			<rect x="9.108" y="76.529" transform="matrix(-0.9369 0.3496 -0.3496 -0.9369 50.0026 152.0987)" fill="#E94D3E" stroke="#E94D3E" stroke-width="2.604" stroke-linecap="round" stroke-linejoin="round" stroke-miterlimit="10" width="4.332" height="8.067"/>
		<g>
			
				<rect x="9.814" y="80.434" transform="matrix(-0.9369 0.3496 -0.3496 -0.9369 52.0288 155.5113)" fill="#D04535" width="4.332" height="4.034"/>
			<path fill="#D04535" d="M15.092,83.443c0.077,0.208-0.028,0.44-0.237,0.518l-4.059,1.516c-0.208,0.078-0.441-0.028-0.519-0.237
				L8.867,81.46c-0.078-0.209,0.029-0.44,0.237-0.519l4.437-1.655L15.092,83.443z M10.893,84.58l3.303-1.232l-1.128-3.024
				l-3.304,1.233L10.893,84.58z"/>
		</g>
		
			<rect x="6.147" y="75.972" transform="matrix(-0.9369 0.3497 -0.3497 -0.9369 43.7815 155.7925)" fill="#E94D3E" stroke="#E94D3E" stroke-width="2.769" stroke-linecap="round" stroke-linejoin="round" stroke-miterlimit="10" width="3.363" height="11.752"/>
		<g>
			<polygon fill="#296EA4" points="115.534,22.365 119.714,20.581 132.622,55.167 128.304,56.555 			"/>
			<path fill="#296EA4" d="M127.45,56.873l-12.768-34.189l-0.285-0.769l4.959-2.17c0.236-0.097,0.488-0.097,0.717,0
				c0.229,0.098,0.406,0.285,0.492,0.517l12.908,34.586c0.088,0.233,0.074,0.491-0.033,0.715c-0.102,0.21-0.281,0.373-0.5,0.455
				c-0.012,0.005-0.025,0.01-0.039,0.014l0.014-0.004l-5.168,1.66L127.45,56.873z"/>
		</g>
		
			<path fill="#286192" stroke="#286192" stroke-width="5.8714" stroke-linecap="round" stroke-linejoin="round" stroke-miterlimit="10" d="
			M128.304,56.555"/>
		<path fill="#286395" d="M126.702,36.705l6.771,18.144c0.088,0.233,0.074,0.491-0.033,0.715c-0.102,0.21-0.281,0.373-0.5,0.455
			c-0.012,0.005-0.025,0.01-0.039,0.014l0.014-0.004l-5.168,1.66l-0.297-0.815l-6.703-17.945L126.702,36.705z"/>
	</g>
	<g>
		
			<path fill="#F0F0F0" stroke="#F0F0F0" stroke-width="1.4178" stroke-linecap="round" stroke-linejoin="round" stroke-miterlimit="10" d="
			M75.956,125.554"/>
		
			<path fill="#DADADA" stroke="#DADADA" stroke-width="1.4178" stroke-linecap="round" stroke-linejoin="round" stroke-miterlimit="10" d="
			M13.824,17.81c-0.536,0.325-0.706,1.022-0.381,1.558l9.24,15.215l-2.064,1.253l-9.239-15.215
			c-0.325-0.535-1.022-0.706-1.558-0.381c-0.536,0.325-0.706,1.023-0.381,1.558l9.239,15.215l-2.438,1.481L7.002,23.279
			c-0.325-0.535-1.022-0.706-1.558-0.38c-0.535,0.325-0.706,1.022-0.38,1.558l9.239,15.215l-2.251,1.367L2.812,25.823
			c-0.325-0.536-1.022-0.706-1.558-0.381C0.719,25.768,0.549,26.465,0.874,27l9.24,15.215l0.178,0.293l6.515,10.728
			c1.565,2.578,4.286,4.017,7.095,4.073l44.301,72.954c1.3,2.142,4.09,2.823,6.231,1.522c2.141-1.3,2.823-4.09,1.523-6.231
			L31.655,52.601c1.245-2.518,1.224-5.596-0.342-8.174l-6.515-10.728l-0.178-0.293L15.381,18.19
			C15.056,17.655,14.359,17.485,13.824,17.81z"/>
		
			<path fill="#DADADA" stroke="#DADADA" stroke-width="1.4178" stroke-linecap="round" stroke-linejoin="round" stroke-miterlimit="10" d="
			M24.621,33.406"/>
		<g>
			<path fill="#BEBEBE" d="M74.433,131.786c-2.141,1.301-4.931,0.619-6.231-1.522L23.901,57.309
				c-2.809-0.056-5.53-1.495-7.095-4.073l-6.515-10.728l-0.178-0.293L0.874,27c-0.325-0.535-0.155-1.232,0.381-1.558
				c0.535-0.325,1.232-0.155,1.558,0.381l9.239,15.215l2.251-1.367L5.063,24.456c-0.325-0.535-0.155-1.232,0.38-1.558
				c0.536-0.325,1.233-0.155,1.558,0.38l9.239,15.215l1.125-0.684L74.433,131.786z"/>
			<path fill="#BEBEBE" d="M17.554,37.697l57.066,93.976c0.062,0.104,0.03,0.239-0.073,0.302c-2.241,1.36-5.172,0.645-6.533-1.597
				L23.775,57.525c-2.957-0.099-5.625-1.653-7.157-4.175L0.686,27.114c-0.387-0.637-0.183-1.472,0.455-1.859
				C1.779,24.867,2.613,25.071,3,25.709l9.125,15.027l1.876-1.139L4.875,24.57c-0.387-0.638-0.184-1.472,0.455-1.86
				c0.638-0.387,1.472-0.184,1.859,0.455l9.125,15.027l1.125-0.683L17.554,37.697z M1.369,25.63
				c-0.431,0.262-0.569,0.825-0.307,1.256l15.932,26.236c1.474,2.427,4.058,3.911,6.912,3.967c0.075,0.001,0.144,0.041,0.184,0.105
				l44.301,72.954c1.197,1.972,3.732,2.643,5.739,1.559L17.293,38.112l-0.938,0.569c-0.104,0.063-0.238,0.03-0.301-0.073
				L6.814,23.393c-0.262-0.431-0.826-0.568-1.256-0.307c-0.431,0.262-0.569,0.825-0.307,1.256l9.239,15.215
				c0.062,0.104,0.03,0.238-0.074,0.301l-2.251,1.367c-0.104,0.063-0.238,0.03-0.301-0.074L2.625,25.937
				C2.363,25.506,1.799,25.368,1.369,25.63z"/>
		</g>
	</g>
</g>
</svg>
