<?xml version="1.0" encoding="utf-8"?>
<!-- Generator: Adobe Illustrator 15.0.2, SVG Export Plug-In . SVG Version: 6.00 Build 0)  -->
<!DOCTYPE svg PUBLIC "-//W3C//DTD SVG 1.1//EN" "http://www.w3.org/Graphics/SVG/1.1/DTD/svg11.dtd">
<svg version="1.1" id="Lager_1" xmlns="http://www.w3.org/2000/svg" xmlns:xlink="http://www.w3.org/1999/xlink" x="0px" y="0px"
	 width="208.896px" height="172.195px" viewBox="0 0 208.896 172.195" enable-background="new 0 0 208.896 172.195"
	 xml:space="preserve">
<g>
	<g>
		<circle fill="#FFFFFF" stroke="#1B171B" stroke-width="6.5392" stroke-miterlimit="10" cx="39.914" cy="158.745" r="10.183"/>
	</g>
	<g>
		<path fill="#FFFFFF" stroke="#1B171B" stroke-width="6.5392" stroke-miterlimit="10" d="M158.799,158.745
			c0,5.623,4.563,10.181,10.184,10.181c5.626,0,10.183-4.558,10.183-10.181c0-5.62-4.557-10.182-10.183-10.182
			C163.363,148.563,158.799,153.125,158.799,158.745z"/>
	</g>
</g>
<g>
	<path fill="#38A963" d="M199.132,15.728l-8.293,118.323c0,4.579-3.713,8.292-8.295,8.292H26.349c-4.58,0-8.293-3.713-8.293-8.292
		L9.762,15.728H199.132z"/>
	<path fill="#38A963" d="M208.896,5.186c0,2.863-2.32,5.183-5.184,5.183H5.183C2.32,10.368,0,8.049,0,5.186l0,0
		C0,2.321,2.32,0,5.183,0h198.529C206.576,0,208.896,2.321,208.896,5.186L208.896,5.186z"/>
</g>
<g>
	<path fill="#3F9D5F" d="M104.448,142.343H26.349c-4.58,0-8.293-3.713-8.293-8.292L9.762,15.728h94.428L104.448,142.343z"/>
	<path fill="#3F9D5F" d="M104.189,10.368H5.183C2.32,10.368,0,8.049,0,5.186l0,0C0,2.321,2.32,0,5.183,0h99.006V10.368z"/>
</g>
<g opacity="0.5">
	<path fill="none" stroke="#105B34" stroke-width="4.1468" stroke-linecap="round" stroke-miterlimit="10" d="M92.442,96.793
		c-7.598-4.157-12.752-12.23-12.752-21.507c0-2.493,0.375-4.904,1.07-7.174"/>
	<path fill="none" stroke="#105B34" stroke-width="4.1468" stroke-linecap="round" stroke-miterlimit="10" d="M128.011,81.036
		c-2.584,10.757-12.271,18.754-23.822,18.754"/>
	<path fill="none" stroke="#105B34" stroke-width="4.1468" stroke-linecap="round" stroke-miterlimit="10" d="M91.192,54.52
		c3.768-2.363,8.224-3.731,12.997-3.731c10.15,0,18.857,6.17,22.578,14.964"/>
	<polygon fill="#105B34" stroke="#105B34" stroke-width="1.213" stroke-linejoin="round" stroke-miterlimit="10" points="
		86.494,72.139 73.812,63.23 86.82,58.207 	"/>
	<polygon fill="#105B34" stroke="#105B34" stroke-width="1.213" stroke-linejoin="round" stroke-miterlimit="10" points="
		119.849,65.311 135.085,62.477 129.582,75.291 	"/>
	<polygon fill="#105B34" stroke="#105B34" stroke-width="1.213" stroke-linejoin="round" stroke-miterlimit="10" points="
		110.163,92.046 109.419,107.528 98.218,99.224 	"/>
</g>
</svg>
