<?xml version="1.0" encoding="utf-8"?>
<!-- Generator: Adobe Illustrator 15.0.2, SVG Export Plug-In . SVG Version: 6.00 Build 0)  -->
<!DOCTYPE svg PUBLIC "-//W3C//DTD SVG 1.1//EN" "http://www.w3.org/Graphics/SVG/1.1/DTD/svg11.dtd">
<svg version="1.1" xmlns="http://www.w3.org/2000/svg" xmlns:xlink="http://www.w3.org/1999/xlink" x="0px" y="0px"
	 width="279.222px" height="308.901px" viewBox="0 0 279.222 308.901" enable-background="new 0 0 279.222 308.901"
	 xml:space="preserve">
<g id="Broccoli">
	<g>
		<g>
			
				<circle fill="#006633" stroke="#006633" stroke-width="3.3671" stroke-linecap="round" stroke-linejoin="round" stroke-miterlimit="10" cx="124.964" cy="57.79" r="56.105"/>
		</g>
		<g>
			
				<path fill="#3AAA35" stroke="#3AAA35" stroke-width="3.3671" stroke-linecap="round" stroke-linejoin="round" stroke-miterlimit="10" d="
				M221.433,98.956"/>
		</g>
		<g>
			
				<path fill="#3AAA35" stroke="#3AAA35" stroke-width="3.3671" stroke-linecap="round" stroke-linejoin="round" stroke-miterlimit="10" d="
				M164.578,98.956"/>
		</g>
		<g>
			
				<circle fill="#006633" stroke="#006633" stroke-width="3.3671" stroke-linecap="round" stroke-linejoin="round" stroke-miterlimit="10" cx="57.79" cy="128.621" r="56.106"/>
		</g>
		<g>
			
				<circle fill="#044924" stroke="#044924" stroke-width="3.3671" stroke-linecap="round" stroke-linejoin="round" stroke-miterlimit="10" cx="103.971" cy="142.004" r="56.106"/>
		</g>
		<g>
			
				<circle fill="#006633" stroke="#006633" stroke-width="3.3671" stroke-linecap="round" stroke-linejoin="round" stroke-miterlimit="10" cx="221.433" cy="113.895" r="56.105"/>
		</g>
		<g>
			
				<circle fill="#044924" stroke="#044924" stroke-width="3.3671" stroke-linecap="round" stroke-linejoin="round" stroke-miterlimit="10" cx="189.744" cy="150.402" r="56.105"/>
		</g>
		<g>
			
				<polygon fill="#95C11F" stroke="#95C11F" stroke-width="3.7506" stroke-linecap="round" stroke-linejoin="round" stroke-miterlimit="10" points="
				160.911,307.026 160.911,266.629 182.479,214.893 168.099,214.893 149.697,261.577 149.697,214.893 144.515,214.893 
				141.936,214.893 136.753,214.893 136.753,261.577 118.353,214.893 103.971,214.893 125.54,266.629 125.54,307.026 			"/>
		</g>
		<g>
			
				<circle fill="#006633" stroke="#006633" stroke-width="3.3671" stroke-linecap="round" stroke-linejoin="round" stroke-miterlimit="10" cx="189.744" cy="85.899" r="56.106"/>
		</g>
		<g>
			
				<circle fill="#006633" stroke="#006633" stroke-width="3.3671" stroke-linecap="round" stroke-linejoin="round" stroke-miterlimit="10" cx="113.895" cy="113.895" r="56.106"/>
		</g>
		<g>
			
				<path fill="#3AAA35" stroke="#3AAA35" stroke-width="3.3671" stroke-linecap="round" stroke-linejoin="round" stroke-miterlimit="10" d="
				M210.433,98.956"/>
		</g>
		<g>
			
				<path fill="#3AAA35" stroke="#3AAA35" stroke-width="3.3671" stroke-linecap="round" stroke-linejoin="round" stroke-miterlimit="10" d="
				M153.578,98.956"/>
		</g>
		<g>
			<g>
				<polygon fill="#79AA22" points="125.54,307.026 125.54,266.629 103.971,214.893 118.353,214.893 136.753,261.577 
					136.753,214.893 141.936,214.893 141.936,307.026 				"/>
			</g>
			<g>
				<path fill="#79AA22" d="M143.737,308.901H125.54c-1.036,0-1.875-0.839-1.875-1.875v-40.021l-21.425-51.39
					c-0.241-0.579-0.177-1.24,0.17-1.762s0.934-0.835,1.561-0.835h14.382c0.771,0,1.462,0.471,1.745,1.188l14.78,37.499v-36.812
					c0-1.036,0.84-1.875,1.875-1.875h6.984V308.901z M127.416,305.151h12.645v-88.383h-1.432v44.809c0,0.9-0.641,1.674-1.525,1.843
					c-0.888,0.16-1.764-0.317-2.095-1.155l-17.932-45.496h-10.292l20.487,49.14c0.095,0.229,0.145,0.474,0.145,0.722V305.151z"/>
			</g>
		</g>
	</g>
</g>
<g id="Larv">
</g>
</svg>
