<?xml version="1.0" encoding="utf-8"?>
<!-- Generator: Adobe Illustrator 17.1.0, SVG Export Plug-In . SVG Version: 6.00 Build 0)  -->
<!DOCTYPE svg PUBLIC "-//W3C//DTD SVG 1.1//EN" "http://www.w3.org/Graphics/SVG/1.1/DTD/svg11.dtd">
<svg version="1.1" id="Layer_1" xmlns="http://www.w3.org/2000/svg" xmlns:xlink="http://www.w3.org/1999/xlink" x="0px" y="0px"
	 width="384.974px" height="229.583px" viewBox="0 0 384.974 229.583" enable-background="new 0 0 384.974 229.583"
	 xml:space="preserve">
<rect x="0" y="50.335" fill="#3C3C3B" width="43.57" height="12.79"/>
<rect x="43.57" y="190.044" fill="#3C3C3B" width="328.808" height="31.457"/>
<rect x="43.57" y="216.794" fill="#3C3C3B" width="43.57" height="12.79"/>
<rect x="328.809" y="216.794" fill="#3C3C3B" width="43.57" height="12.79"/>
<path fill="#EDEDED" stroke="#EDEDED" stroke-width="7" stroke-linecap="round" stroke-linejoin="round" stroke-miterlimit="10" d="
	M34.474,208.827V46.02c0-23.483,19.037-42.52,42.519-42.52h261.961c23.482,0,42.52,19.037,42.52,42.52v162.807H34.474z"/>
<path fill="#DEDEDE" stroke="#DEDEDE" stroke-width="7" stroke-linecap="round" stroke-linejoin="round" stroke-miterlimit="10" d="
	M207.974,208.827h-173.5V46.02c0-23.483,19.037-42.52,42.519-42.52h130.98V208.827z"/>
<path fill="#AA151D" d="M70.516,184.016c0,4.141-3.358,7.499-7.497,7.499c-4.139,0-7.494-3.358-7.494-7.499
	c0-4.135,3.355-7.493,7.494-7.493C67.157,176.523,70.516,179.881,70.516,184.016z"/>
<path fill="#E94E1B" d="M70.516,184.016c0,4.141-3.358,7.499-7.497,7.499c-4.139,0-7.494-3.358-7.494-7.499
	c0-4.135,3.355-7.493,7.494-7.493C67.157,176.523,70.516,179.881,70.516,184.016z"/>
<path opacity="0.53" fill="#E94E1B" d="M76.041,184.01c0,7.195-5.835,13.028-13.023,13.028c-7.192,0-13.019-5.833-13.019-13.028
	c0-7.183,5.828-13.011,13.019-13.011C70.206,170.999,76.041,176.828,76.041,184.01z"/>
</svg>
