<?xml version="1.0" encoding="utf-8"?>
<!-- Generator: Adobe Illustrator 15.0.2, SVG Export Plug-In . SVG Version: 6.00 Build 0)  -->
<!DOCTYPE svg PUBLIC "-//W3C//DTD SVG 1.1//EN" "http://www.w3.org/Graphics/SVG/1.1/DTD/svg11.dtd">
<svg version="1.1" id="Lager_1" xmlns="http://www.w3.org/2000/svg" xmlns:xlink="http://www.w3.org/1999/xlink" x="0px" y="0px"
	 width="207.206px" height="212.85px" viewBox="0 0 207.206 212.85" enable-background="new 0 0 207.206 212.85"
	 xml:space="preserve">
<g>
	
		<path fill="#C6C6C6" stroke="#C6C6C6" stroke-width="1.9485" stroke-linecap="round" stroke-linejoin="round" stroke-miterlimit="10" d="
		M70.713,8.956c1.269,1.269,1.268,3.326,0,4.594L7.906,76.356c-1.268,1.268-3.324,1.268-4.593,0l0,0
		c-1.269-1.269-1.269-3.325,0-4.593L66.12,8.956C67.388,7.688,69.445,7.688,70.713,8.956L70.713,8.956z"/>
	
		<polygon fill="#E6332A" stroke="#E6332A" stroke-width="7" stroke-linecap="round" stroke-linejoin="round" stroke-miterlimit="10" points="
		198.679,132.478 126.512,204.646 21.316,99.45 12.193,84.67 78.704,18.159 93.483,27.283 	"/>
	<g>
		<path fill="#B2B2B2" d="M41.539,42.723L7.906,76.356c-1.268,1.268-3.324,1.268-4.593,0l0,0c-1.269-1.269-1.269-3.325,0-4.593
			L36.946,38.13L41.539,42.723z"/>
		<path fill="#B2B2B2" d="M42.82,42.82l-0.592,0.592L8.595,77.045c-1.646,1.646-4.324,1.646-5.971,0
			c-1.646-1.646-1.646-4.324,0-5.97l33.633-33.633l0.592-0.592l0.689,0.689l4.593,4.593L42.82,42.82z M4.002,72.452
			c-0.886,0.886-0.886,2.328,0,3.214c0.887,0.887,2.329,0.887,3.215,0.001l32.944-32.944l-3.215-3.215L4.002,72.452z"/>
	</g>
	
		<path fill="#C6C6C6" stroke="#C6C6C6" stroke-width="1.9485" stroke-linecap="round" stroke-linejoin="round" stroke-miterlimit="10" d="
		M205.281,143.524c1.268,1.268,1.268,3.325,0,4.593l-62.807,62.808c-1.268,1.268-3.325,1.267-4.593-0.001l0,0
		c-1.269-1.269-1.269-3.325-0.001-4.593l62.807-62.807C201.956,142.257,204.013,142.256,205.281,143.524L205.281,143.524z"/>
	<g>
		<path fill="#B2B2B2" d="M176.107,177.291l-33.633,33.634c-1.268,1.268-3.325,1.267-4.593-0.001l0,0
			c-1.269-1.269-1.269-3.325-0.001-4.593l33.634-33.633L176.107,177.291z"/>
		<path fill="#B2B2B2" d="M177.389,177.389l-0.592,0.592l-33.633,33.633c-1.646,1.646-4.325,1.646-5.972,0
			c-1.646-1.646-1.646-4.325,0-5.972l33.633-33.633l0.592-0.592l0.689,0.689l4.593,4.593L177.389,177.389z M138.57,207.021
			c-0.886,0.886-0.886,2.327,0.001,3.214s2.328,0.887,3.214,0.001l32.944-32.944l-3.215-3.215L138.57,207.021z"/>
	</g>
	<g>
		<polygon fill="#BE1622" points="157.592,173.565 126.512,204.646 21.316,99.45 12.193,84.67 45.448,51.415 162.596,168.562 		"/>
		<path fill="#BE1622" d="M165.07,171.036l-36.084,36.084c-1.367,1.367-3.583,1.367-4.95,0L18.841,101.925
			c-0.192-0.191-0.361-0.405-0.503-0.637l-9.124-14.78c-0.852-1.38-0.643-3.166,0.503-4.313l33.256-33.256l2.983-2.983l2.475,2.475
			l117.146,117.146l2.476,2.476L165.07,171.036z M126.512,199.695l31.134-31.134L45.448,56.364L16.625,85.187l7.454,12.077
			L126.512,199.695z"/>
	</g>
	<g>
		<path fill="#FFFFFF" d="M100.915,114.066c0.01,0.03,0.035,0.178,0.076,0.44c0.039,0.265,0.065,0.608,0.075,1.033
			c0.011,0.427-0.015,0.917-0.075,1.474c-0.062,0.559-0.198,1.15-0.41,1.777c-0.213,0.629-0.512,1.277-0.896,1.945
			c-0.386,0.668-0.896,1.321-1.535,1.959c-0.992,0.993-2.049,1.801-3.167,2.424c-1.119,0.623-2.274,1.144-3.464,1.564
			c-1.189,0.42-2.408,0.788-3.653,1.102c-1.247,0.313-2.497,0.653-3.752,1.018c0.334,1.327,0.44,2.573,0.319,3.737
			c-0.122,1.165-0.382,2.241-0.782,3.229c-0.4,0.987-0.889,1.876-1.466,2.666c-0.577,0.79-1.154,1.474-1.731,2.051
			c-0.558,0.557-1.181,1.063-1.869,1.519c-0.689,0.456-1.398,0.78-2.127,0.973c-0.729,0.193-1.458,0.218-2.188,0.076
			c-0.729-0.143-1.418-0.537-2.066-1.186c-0.607-0.607-1.017-1.296-1.23-2.065c-0.212-0.771-0.246-1.572-0.099-2.408
			c0.146-0.835,0.461-1.681,0.942-2.537c0.481-0.855,1.106-1.668,1.876-2.438c0.577-0.577,1.202-1.101,1.876-1.572
			c0.673-0.47,1.37-0.894,2.089-1.269s1.446-0.711,2.18-1.01s1.44-0.565,2.119-0.798c-0.122-0.243-0.251-0.479-0.388-0.706
			c-0.137-0.229-0.296-0.468-0.479-0.722c-0.182-0.253-0.4-0.521-0.653-0.806c-0.253-0.283-0.558-0.603-0.912-0.957
			c-0.334-0.334-0.661-0.646-0.98-0.934c-0.319-0.289-0.666-0.605-1.041-0.95c-0.375-0.344-0.795-0.733-1.261-1.17
			c-0.465-0.435-1.013-0.967-1.641-1.595c-1.448-1.448-2.625-2.908-3.532-4.383c-0.906-1.473-1.506-2.914-1.8-4.322
			c-0.294-1.407-0.261-2.762,0.099-4.063c0.359-1.301,1.091-2.504,2.195-3.608c0.668-0.668,1.41-1.197,2.226-1.587
			c0.814-0.39,1.65-0.617,2.506-0.684s1.691,0.04,2.507,0.318c0.815,0.279,1.557,0.752,2.226,1.421
			c0.365,0.364,0.693,0.795,0.987,1.291c0.293,0.497,0.517,0.999,0.668,1.504c0.152,0.507,0.22,0.98,0.205,1.421
			s-0.15,0.788-0.402,1.04c-0.143,0.143-0.31,0.229-0.501,0.259c-0.193,0.031-0.375-0.041-0.547-0.213
			c-0.122-0.121-0.198-0.253-0.228-0.395s-0.041-0.288-0.03-0.441c0.03-0.557-0.054-1.121-0.25-1.693
			c-0.198-0.572-0.55-1.112-1.056-1.618c-0.506-0.506-1.069-0.86-1.686-1.063c-0.618-0.202-1.246-0.273-1.884-0.213
			c-0.638,0.062-1.266,0.244-1.884,0.547c-0.618,0.305-1.18,0.71-1.687,1.216c-0.952,0.952-1.569,1.985-1.853,3.099
			c-0.284,1.114-0.276,2.276,0.022,3.487c0.299,1.21,0.874,2.459,1.725,3.744c0.851,1.287,1.929,2.583,3.236,3.89
			c0.627,0.627,1.188,1.172,1.678,1.633c0.491,0.461,0.942,0.881,1.353,1.261s0.797,0.737,1.162,1.071
			c0.364,0.334,0.729,0.684,1.094,1.048c0.212,0.213,0.433,0.454,0.661,0.722c0.228,0.27,0.45,0.553,0.668,0.851
			c0.218,0.3,0.418,0.606,0.6,0.919c0.182,0.315,0.334,0.613,0.456,0.896c1.175-0.363,2.365-0.693,3.57-0.987
			c1.205-0.293,2.385-0.638,3.54-1.033c1.154-0.395,2.268-0.88,3.342-1.458c1.074-0.576,2.071-1.326,2.993-2.248
			c0.81-0.811,1.39-1.634,1.739-2.469c0.35-0.836,0.569-1.598,0.66-2.287c0.092-0.688,0.109-1.252,0.054-1.693
			c-0.056-0.439-0.089-0.666-0.099-0.676c-0.071-0.294,0-0.547,0.213-0.76c0.172-0.172,0.372-0.251,0.6-0.235
			c0.228,0.015,0.413,0.094,0.555,0.235C100.813,113.783,100.885,113.915,100.915,114.066z M82.548,129.243
			c-0.648,0.224-1.317,0.472-2.005,0.744c-0.688,0.274-1.367,0.583-2.036,0.927c-0.669,0.345-1.316,0.735-1.944,1.17
			c-0.628,0.436-1.206,0.917-1.732,1.443c-0.598,0.598-1.097,1.224-1.497,1.876c-0.4,0.654-0.676,1.299-0.828,1.938
			c-0.152,0.638-0.17,1.242-0.053,1.815c0.117,0.572,0.392,1.075,0.828,1.511c0.406,0.406,0.858,0.657,1.36,0.753
			c0.501,0.097,1.02,0.073,1.557-0.068c0.537-0.142,1.076-0.387,1.618-0.737c0.542-0.349,1.056-0.768,1.542-1.253
			c0.587-0.587,1.147-1.242,1.679-1.968c0.532-0.724,0.962-1.509,1.292-2.354c0.329-0.846,0.527-1.752,0.592-2.72
			C82.986,131.353,82.861,130.327,82.548,129.243z"/>
		<path fill="#FFFFFF" d="M112.172,99.285c0.04,0.121,0.126,0.375,0.258,0.76s0.267,0.843,0.403,1.375
			c0.137,0.531,0.255,1.111,0.356,1.739c0.101,0.628,0.142,1.256,0.122,1.884c-0.021,0.628-0.12,1.229-0.297,1.8
			c-0.177,0.572-0.474,1.066-0.889,1.481c-0.588,0.588-1.269,0.895-2.043,0.919c-0.775,0.025-1.537-0.154-2.286-0.539
			c0.232,0.922,0.28,1.79,0.144,2.605c-0.137,0.816-0.442,1.461-0.919,1.937c-0.375,0.375-0.782,0.646-1.223,0.812
			c-0.44,0.168-0.891,0.234-1.352,0.198c-0.461-0.035-0.917-0.162-1.368-0.38c-0.45-0.218-0.873-0.524-1.268-0.919
			c-0.79-0.79-1.353-1.62-1.687-2.492c-0.335-0.87-0.497-1.716-0.486-2.536c0.01-0.82,0.164-1.583,0.463-2.287
			c0.3-0.703,0.682-1.288,1.147-1.754c0.313-0.313,0.646-0.559,0.995-0.737c0.35-0.177,0.668-0.309,0.957-0.395
			c0.288-0.086,0.526-0.137,0.714-0.152c0.188-0.015,0.291-0.022,0.312-0.022c0.243,0.021,0.436,0.102,0.577,0.243
			c0.152,0.151,0.23,0.342,0.235,0.569c0.005,0.229-0.068,0.418-0.22,0.569c-0.162,0.163-0.355,0.243-0.577,0.243
			c-0.041,0.001-0.125,0.009-0.251,0.023c-0.127,0.016-0.281,0.053-0.464,0.113c-0.182,0.061-0.38,0.152-0.592,0.273
			c-0.213,0.122-0.426,0.289-0.639,0.502c-0.313,0.313-0.577,0.719-0.79,1.215c-0.213,0.497-0.315,1.041-0.311,1.633
			c0.004,0.594,0.134,1.214,0.387,1.861c0.254,0.648,0.688,1.281,1.307,1.899c0.192,0.192,0.407,0.367,0.646,0.523
			c0.237,0.158,0.488,0.267,0.752,0.327c0.264,0.062,0.531,0.056,0.806-0.016c0.273-0.07,0.536-0.232,0.79-0.486
			c0.182-0.182,0.331-0.452,0.448-0.812c0.115-0.359,0.156-0.773,0.121-1.245c-0.036-0.472-0.157-0.988-0.364-1.55
			c-0.208-0.562-0.54-1.142-0.995-1.739c-0.122-0.162-0.175-0.347-0.16-0.555c0.016-0.207,0.1-0.388,0.251-0.539
			c0.142-0.142,0.322-0.21,0.539-0.205c0.218,0.004,0.403,0.073,0.555,0.205c0.202,0.183,0.494,0.433,0.874,0.752
			c0.379,0.318,0.795,0.597,1.245,0.835c0.451,0.238,0.909,0.377,1.375,0.418s0.886-0.126,1.261-0.501
			c0.243-0.243,0.418-0.55,0.524-0.92c0.105-0.369,0.165-0.776,0.175-1.223c0.01-0.445-0.021-0.911-0.092-1.397
			c-0.07-0.485-0.162-0.956-0.273-1.413c-0.111-0.455-0.232-0.881-0.364-1.276c-0.132-0.394-0.248-0.733-0.35-1.018
			c-0.061-0.161-0.073-0.321-0.038-0.479c0.035-0.156,0.108-0.291,0.221-0.402c0.172-0.172,0.375-0.248,0.607-0.228
			c0.233,0.021,0.421,0.102,0.562,0.243C112.076,99.098,112.131,99.184,112.172,99.285z M97.512,101.943
			c0.213,0.213,0.319,0.472,0.319,0.775s-0.112,0.567-0.334,0.79c-0.213,0.212-0.472,0.318-0.775,0.318s-0.562-0.106-0.774-0.318
			c-0.224-0.224-0.335-0.486-0.335-0.79s0.106-0.562,0.319-0.775c0.223-0.222,0.486-0.334,0.79-0.334S97.289,101.721,97.512,101.943
			z M100.338,99.118c0.212,0.213,0.318,0.471,0.318,0.774s-0.116,0.572-0.35,0.806c-0.212,0.212-0.471,0.318-0.774,0.318
			s-0.562-0.106-0.774-0.318c-0.224-0.224-0.335-0.486-0.335-0.79s0.106-0.562,0.319-0.775c0.232-0.232,0.501-0.349,0.806-0.349
			C99.852,98.784,100.114,98.895,100.338,99.118z"/>
		<path fill="#FFFFFF" d="M111.428,97.265c0.102,0.223,0.21,0.479,0.326,0.768s0.23,0.6,0.342,0.934
			c0.081,0.264,0.122,0.492,0.122,0.684c0,0.193-0.076,0.365-0.229,0.517c-0.172,0.173-0.362,0.257-0.569,0.251
			c-0.208-0.005-0.383-0.079-0.524-0.221c-0.05-0.05-0.088-0.098-0.113-0.144c-0.026-0.045-0.06-0.13-0.1-0.251
			c-0.242-0.77-0.491-1.407-0.744-1.914s-0.548-1.008-0.881-1.504c-0.304-0.162-0.552-0.309-0.744-0.44
			c-0.193-0.132-0.375-0.284-0.547-0.456c-0.335-0.334-0.535-0.675-0.601-1.025c-0.065-0.349,0.027-0.65,0.281-0.904
			c0.232-0.232,0.52-0.316,0.858-0.25c0.339,0.066,0.656,0.246,0.949,0.54c0.162,0.162,0.309,0.339,0.44,0.532
			c0.132,0.192,0.294,0.436,0.486,0.729c0.81,0.345,1.555,0.624,2.233,0.835c0.678,0.213,1.294,0.413,1.846,0.6
			c0.553,0.188,1.048,0.386,1.488,0.593c0.44,0.208,0.823,0.474,1.147,0.797c0.426,0.426,0.744,0.917,0.957,1.474
			c0.212,0.558,0.253,1.165,0.122,1.823c0.061-0.04,0.115-0.085,0.167-0.137c0.05-0.05,0.101-0.101,0.151-0.151
			c0.577-0.578,0.978-1.241,1.2-1.99c0.224-0.75,0.319-1.529,0.289-2.34c-0.03-0.809-0.149-1.623-0.357-2.438
			c-0.207-0.815-0.453-1.588-0.736-2.317c-0.132-0.333-0.106-0.593,0.075-0.775c0.172-0.172,0.367-0.245,0.585-0.22
			c0.218,0.025,0.398,0.109,0.54,0.25c0.08,0.081,0.142,0.172,0.182,0.273c0.162,0.385,0.329,0.841,0.502,1.368
			c0.172,0.526,0.318,1.099,0.44,1.716c0.121,0.619,0.197,1.267,0.228,1.945c0.029,0.679-0.015,1.357-0.137,2.035
			c-0.122,0.68-0.337,1.34-0.646,1.982c-0.31,0.645-0.747,1.249-1.314,1.815c-0.679,0.68-1.429,1.19-2.248,1.535
			c-0.821,0.345-1.687,0.425-2.598,0.243c-0.152-0.031-0.278-0.097-0.38-0.198c-0.152-0.151-0.228-0.344-0.228-0.577
			c0-0.231,0.075-0.425,0.228-0.577c0.161-0.161,0.354-0.242,0.577-0.243c0.03,0.011,0.099,0.008,0.205-0.008
			c0.106-0.015,0.23-0.037,0.372-0.068c0.142-0.029,0.291-0.083,0.448-0.159c0.157-0.075,0.296-0.175,0.418-0.296
			c0.243-0.243,0.397-0.499,0.463-0.768c0.066-0.269,0.076-0.526,0.03-0.774c-0.045-0.247-0.129-0.479-0.25-0.691
			c-0.122-0.213-0.243-0.38-0.365-0.501c-0.253-0.254-0.547-0.466-0.881-0.639c-0.335-0.172-0.691-0.321-1.07-0.448
			c-0.381-0.126-0.778-0.25-1.193-0.372C112.258,97.584,111.843,97.437,111.428,97.265z"/>
		<path fill="#FFFFFF" d="M125.222,90.975c0.557,0.213,1.146,0.236,1.77,0.068c0.623-0.167,1.183-0.499,1.679-0.995
			c0.152-0.152,0.377-0.422,0.676-0.812c0.299-0.39,0.545-0.939,0.737-1.648c0.191-0.708,0.263-1.594,0.213-2.659
			c-0.052-1.063-0.345-2.339-0.882-3.828c-0.061-0.162-0.073-0.316-0.038-0.463c0.036-0.146,0.109-0.275,0.221-0.387
			c0.172-0.172,0.372-0.251,0.601-0.235c0.228,0.015,0.412,0.094,0.554,0.235c0.062,0.061,0.121,0.162,0.183,0.304
			c0.385,1.095,0.65,2.15,0.798,3.167c0.146,1.019,0.172,1.985,0.076,2.902c-0.097,0.917-0.312,1.76-0.646,2.529
			c-0.335,0.77-0.79,1.443-1.367,2.021c-0.455,0.456-0.955,0.812-1.496,1.071c-0.542,0.259-1.076,0.413-1.603,0.463
			c-0.526,0.051-1.022,0.01-1.489-0.122c-0.465-0.131-0.855-0.354-1.17-0.668c-0.04-0.041-0.091-0.101-0.151-0.182
			c-0.062-0.081-0.111-0.187-0.152-0.319c-0.04-0.131-0.056-0.278-0.045-0.441c0.01-0.162,0.065-0.344,0.167-0.547
			c0.293-0.537,0.526-1.068,0.698-1.595c0.173-0.526,0.273-1.027,0.304-1.504c0.03-0.476-0.018-0.918-0.144-1.329
			c-0.127-0.41-0.347-0.772-0.661-1.086c-0.273-0.273-0.588-0.405-0.941-0.395c-0.354,0.011-0.664,0.147-0.927,0.41
			c-0.273,0.273-0.448,0.636-0.524,1.086c-0.076,0.452-0.084,0.955-0.022,1.512c0.061,0.558,0.179,1.147,0.356,1.77
			c0.178,0.624,0.39,1.246,0.639,1.869c0.247,0.624,0.516,1.221,0.805,1.793c0.289,0.573,0.569,1.086,0.843,1.542
			c0.081,0.141,0.17,0.296,0.267,0.463c0.096,0.168,0.166,0.345,0.212,0.532c0.045,0.188,0.056,0.37,0.03,0.547
			c-0.025,0.178-0.119,0.348-0.28,0.509c-0.152,0.151-0.362,0.235-0.631,0.25c-0.27,0.016-0.555-0.129-0.858-0.433
			c-0.061-0.061-0.291-0.295-0.691-0.706c-0.4-0.41-0.922-0.947-1.564-1.61c-0.644-0.663-1.38-1.425-2.21-2.287
			c-0.83-0.86-1.714-1.769-2.651-2.727c-0.938-0.956-1.896-1.946-2.879-2.97c-0.982-1.023-1.944-2.015-2.887-2.978
			c-0.942-0.962-1.832-1.878-2.674-2.75c-0.84-0.871-1.587-1.643-2.24-2.316c-0.653-0.673-1.188-1.222-1.603-1.648
			c-0.416-0.425-0.663-0.678-0.745-0.76c-0.161-0.162-0.235-0.357-0.22-0.584c0.015-0.228,0.093-0.413,0.235-0.555
			c0.162-0.162,0.352-0.245,0.569-0.25c0.218-0.005,0.413,0.079,0.585,0.25c0.021,0.021,0.218,0.223,0.593,0.607
			c0.374,0.385,0.876,0.902,1.504,1.55c0.628,0.648,1.359,1.405,2.195,2.271c0.836,0.866,1.725,1.785,2.666,2.757
			c0.942,0.972,1.911,1.972,2.909,3s1.971,2.031,2.917,3.008s1.851,1.907,2.712,2.788c0.86,0.881,1.62,1.661,2.278,2.339
			c-0.354-0.678-0.691-1.43-1.01-2.256c-0.319-0.825-0.55-1.653-0.691-2.484c-0.143-0.83-0.154-1.617-0.038-2.362
			c0.116-0.745,0.438-1.38,0.965-1.907c0.293-0.293,0.62-0.514,0.979-0.661c0.359-0.146,0.727-0.22,1.102-0.221
			c0.375,0.001,0.741,0.073,1.102,0.221c0.359,0.147,0.687,0.367,0.979,0.661c0.456,0.456,0.772,0.975,0.95,1.557
			c0.177,0.583,0.248,1.19,0.212,1.823c-0.035,0.633-0.157,1.276-0.364,1.929C125.796,89.753,125.536,90.378,125.222,90.975z"/>
	</g>
	<g>
		
			<path fill="#9D9D9C" stroke="#9D9D9C" stroke-width="1.9485" stroke-linecap="round" stroke-linejoin="round" stroke-miterlimit="10" d="
			M5.111,5.111c-5.516,5.516-5.516,14.459,0,19.976l19.887,14.23l14.319-14.319L25.087,5.111C19.571-0.405,10.627-0.405,5.111,5.111
			z M22.257,8.316l5.204,7.485c0.176,0.253,0.146,0.596-0.073,0.813L16.615,27.389c-0.218,0.217-0.561,0.249-0.814,0.073
			l-7.486-5.203c-0.03-0.022-0.06-0.046-0.087-0.073c-3.848-3.848-3.847-10.109,0-13.957s10.108-3.847,13.956,0
			C22.211,8.255,22.236,8.285,22.257,8.316z"/>
	</g>
</g>
</svg>
