<?xml version="1.0" encoding="utf-8"?>
<!-- Generator: Adobe Illustrator 15.0.2, SVG Export Plug-In . SVG Version: 6.00 Build 0)  -->
<!DOCTYPE svg PUBLIC "-//W3C//DTD SVG 1.1//EN" "http://www.w3.org/Graphics/SVG/1.1/DTD/svg11.dtd">
<svg version="1.1" id="Layer_1" xmlns="http://www.w3.org/2000/svg" xmlns:xlink="http://www.w3.org/1999/xlink" x="0px" y="0px"
	 width="109.061px" height="244.611px" viewBox="0 0 109.061 244.611" enable-background="new 0 0 109.061 244.611"
	 xml:space="preserve">
<path fill="#C6C6C6" stroke="#C6C6C6" stroke-width="1.9485" stroke-linecap="round" stroke-linejoin="round" stroke-miterlimit="10" d="
	M102.418,50.08c0,1.794-1.455,3.248-3.248,3.248H10.348c-1.793,0-3.247-1.454-3.247-3.248l0,0c0-1.793,1.454-3.248,3.247-3.248
	H99.17C100.963,46.833,102.418,48.287,102.418,50.08L102.418,50.08z"/>
<polygon fill="#E6332A" stroke="#E6332A" stroke-width="7" stroke-linecap="round" stroke-linejoin="round" stroke-miterlimit="10" points="
	105.56,227.909 3.5,227.909 3.5,79.141 7.5,62.238 101.56,62.238 105.56,79.141 "/>
<path fill="#B2B2B2" stroke="#B2B2B2" stroke-width="1.9485" stroke-linecap="round" stroke-linejoin="round" stroke-miterlimit="10" d="
	M57.912,53.328H10.348c-1.793,0-3.247-1.454-3.247-3.248l0,0c0-1.793,1.454-3.248,3.247-3.248h47.563V53.328z"/>
<path fill="#C6C6C6" stroke="#C6C6C6" stroke-width="1.9485" stroke-linecap="round" stroke-linejoin="round" stroke-miterlimit="10" d="
	M102.418,240.389c0,1.793-1.455,3.248-3.248,3.248H10.348c-1.793,0-3.247-1.455-3.247-3.248l0,0c0-1.794,1.454-3.248,3.247-3.248
	H99.17C100.963,237.141,102.418,238.595,102.418,240.389L102.418,240.389z"/>
<path fill="#B2B2B2" stroke="#B2B2B2" stroke-width="1.9485" stroke-linecap="round" stroke-linejoin="round" stroke-miterlimit="10" d="
	M57.912,243.637H10.348c-1.793,0-3.247-1.455-3.247-3.248l0,0c0-1.794,1.454-3.248,3.247-3.248h47.563V243.637z"/>
<polygon fill="#BE1622" stroke="#BE1622" stroke-width="7" stroke-linecap="round" stroke-linejoin="round" stroke-miterlimit="10" points="
	47.454,227.909 3.5,227.909 3.5,79.141 7.5,62.238 54.53,62.238 54.53,227.909 "/>
<path fill="#9D9D9C" stroke="#9D9D9C" stroke-width="1.9485" stroke-linecap="round" stroke-linejoin="round" stroke-miterlimit="10" d="
	M57.912,0.974c-7.801,0-14.125,6.323-14.125,14.125l4,24.125h20.25l4-24.125C72.037,7.298,65.713,0.974,57.912,0.974z
	 M65.529,24.224H50.294l-1.613-8.974c0-5.099,4.133-9.231,9.231-9.231c5.097,0,9.231,4.133,9.231,9.231L65.529,24.224z"/>
<g>
	<path fill="#FFFFFF" d="M49.449,145.761c-0.015,0.028-0.101,0.149-0.258,0.364c-0.158,0.215-0.384,0.478-0.677,0.784
		c-0.294,0.309-0.659,0.638-1.097,0.988s-0.953,0.673-1.547,0.967c-0.595,0.294-1.265,0.541-2.009,0.741
		c-0.745,0.2-1.568,0.301-2.471,0.301c-1.404,0-2.723-0.176-3.953-0.526c-1.232-0.351-2.417-0.798-3.557-1.343
		c-1.139-0.544-2.26-1.145-3.361-1.805c-1.104-0.659-2.229-1.303-3.373-1.935c-0.702,1.176-1.508,2.132-2.417,2.868
		c-0.91,0.738-1.855,1.314-2.836,1.73c-0.981,0.415-1.955,0.698-2.922,0.849c-0.968,0.15-1.858,0.227-2.676,0.227
		c-0.788,0-1.587-0.083-2.395-0.247c-0.811-0.165-1.54-0.438-2.191-0.816c-0.651-0.379-1.185-0.877-1.601-1.493
		c-0.415-0.616-0.623-1.382-0.623-2.299c0-0.859,0.197-1.636,0.591-2.331c0.395-0.694,0.938-1.285,1.633-1.771
		c0.694-0.487,1.516-0.863,2.46-1.128c0.945-0.266,1.962-0.398,3.052-0.398c0.815,0,1.629,0.072,2.438,0.215
		c0.81,0.144,1.602,0.337,2.374,0.58c0.773,0.244,1.525,0.521,2.256,0.827c0.73,0.308,1.418,0.62,2.062,0.935
		c0.086-0.258,0.161-0.516,0.226-0.772c0.064-0.258,0.121-0.541,0.172-0.85c0.05-0.308,0.086-0.65,0.108-1.03
		c0.021-0.379,0.032-0.82,0.032-1.321c0-0.473-0.012-0.924-0.032-1.354c-0.021-0.43-0.043-0.897-0.065-1.406
		c-0.021-0.508-0.043-1.081-0.063-1.72c-0.021-0.637-0.032-1.399-0.032-2.287c0-2.049,0.2-3.914,0.602-5.598
		c0.4-1.683,0.995-3.126,1.783-4.329c0.787-1.203,1.77-2.138,2.943-2.804s2.542-0.999,4.104-0.999c0.945,0,1.845,0.15,2.696,0.451
		c0.853,0.301,1.604,0.729,2.256,1.289c0.651,0.559,1.167,1.225,1.547,1.998c0.379,0.772,0.569,1.633,0.569,2.578
		c0,0.516-0.072,1.053-0.215,1.61c-0.145,0.56-0.341,1.071-0.591,1.536c-0.251,0.466-0.537,0.85-0.859,1.149
		c-0.322,0.301-0.663,0.451-1.021,0.451c-0.201,0-0.381-0.058-0.537-0.173c-0.158-0.113-0.236-0.293-0.236-0.536
		c0-0.173,0.039-0.318,0.118-0.44c0.078-0.122,0.175-0.232,0.29-0.333c0.415-0.372,0.755-0.83,1.021-1.375
		c0.266-0.544,0.397-1.174,0.397-1.891s-0.147-1.364-0.44-1.944c-0.294-0.58-0.688-1.074-1.182-1.482
		c-0.494-0.407-1.067-0.723-1.719-0.944c-0.652-0.223-1.336-0.333-2.053-0.333c-1.347,0-2.514,0.294-3.502,0.881
		c-0.987,0.587-1.805,1.414-2.448,2.48c-0.646,1.067-1.121,2.356-1.43,3.867s-0.462,3.19-0.462,5.038
		c0,0.888,0.011,1.669,0.032,2.342c0.021,0.673,0.043,1.289,0.063,1.849c0.021,0.559,0.043,1.085,0.064,1.579
		c0.022,0.493,0.032,0.999,0.032,1.515c0,0.301-0.016,0.627-0.043,0.978c-0.029,0.352-0.072,0.709-0.129,1.074
		c-0.059,0.365-0.134,0.725-0.227,1.074c-0.094,0.351-0.197,0.67-0.312,0.956c1.088,0.573,2.162,1.182,3.223,1.826
		c1.059,0.645,2.138,1.234,3.233,1.772c1.096,0.537,2.227,0.981,3.395,1.332c1.167,0.352,2.402,0.526,3.706,0.526
		c1.146,0,2.138-0.172,2.975-0.517c0.839-0.344,1.532-0.727,2.085-1.148c0.551-0.422,0.963-0.81,1.234-1.16s0.408-0.533,0.408-0.548
		c0.157-0.258,0.387-0.387,0.688-0.387c0.243,0,0.44,0.086,0.592,0.258c0.149,0.172,0.226,0.357,0.226,0.559
		C49.578,145.489,49.535,145.632,49.449,145.761z M25.73,143.505c-0.616-0.301-1.266-0.598-1.944-0.892
		c-0.681-0.293-1.379-0.555-2.095-0.784c-0.717-0.229-1.45-0.412-2.202-0.548s-1.501-0.204-2.245-0.204
		c-0.846,0-1.641,0.09-2.385,0.269c-0.745,0.179-1.396,0.44-1.955,0.783c-0.559,0.345-0.999,0.76-1.321,1.246
		c-0.321,0.487-0.482,1.039-0.482,1.654c0,0.573,0.143,1.071,0.43,1.493c0.286,0.423,0.669,0.772,1.149,1.053
		c0.479,0.279,1.033,0.487,1.665,0.623c0.63,0.136,1.288,0.204,1.977,0.204c0.83,0,1.688-0.068,2.578-0.204
		c0.888-0.136,1.747-0.387,2.578-0.752c0.83-0.365,1.61-0.866,2.342-1.504C24.549,145.306,25.185,144.493,25.73,143.505z"/>
	<path fill="#FFFFFF" d="M67.861,143.269c-0.058,0.114-0.176,0.354-0.354,0.72c-0.18,0.365-0.407,0.784-0.688,1.257
		c-0.279,0.474-0.605,0.967-0.979,1.482s-0.787,0.987-1.245,1.418c-0.459,0.43-0.953,0.784-1.482,1.062
		c-0.53,0.279-1.089,0.419-1.676,0.419c-0.831,0-1.529-0.265-2.096-0.795c-0.565-0.529-0.978-1.195-1.234-1.998
		c-0.487,0.816-1.067,1.465-1.74,1.944c-0.674,0.481-1.347,0.72-2.02,0.72c-0.53,0-1.011-0.097-1.439-0.29
		c-0.43-0.192-0.795-0.465-1.096-0.815c-0.301-0.352-0.534-0.764-0.698-1.235c-0.165-0.473-0.247-0.988-0.247-1.547
		c0-1.117,0.189-2.102,0.569-2.954c0.379-0.852,0.861-1.564,1.45-2.138c0.587-0.573,1.234-1.002,1.943-1.289
		c0.709-0.286,1.394-0.43,2.052-0.43c0.443,0,0.852,0.061,1.226,0.183c0.372,0.122,0.689,0.254,0.956,0.396
		c0.265,0.145,0.469,0.276,0.611,0.398s0.223,0.19,0.236,0.204c0.157,0.186,0.236,0.38,0.236,0.58c0,0.215-0.079,0.405-0.236,0.568
		c-0.158,0.165-0.344,0.247-0.559,0.247c-0.229,0-0.423-0.079-0.58-0.235c-0.029-0.028-0.094-0.082-0.193-0.161
		c-0.101-0.079-0.236-0.161-0.408-0.247s-0.376-0.161-0.611-0.225c-0.236-0.064-0.505-0.098-0.807-0.098
		c-0.443,0-0.917,0.102-1.418,0.301c-0.502,0.201-0.96,0.513-1.375,0.935c-0.416,0.423-0.763,0.953-1.042,1.59
		c-0.278,0.638-0.419,1.393-0.419,2.267c0,0.272,0.028,0.549,0.086,0.827c0.058,0.279,0.157,0.534,0.302,0.764
		c0.143,0.229,0.336,0.415,0.579,0.559s0.544,0.215,0.902,0.215c0.258,0,0.555-0.086,0.892-0.258s0.658-0.437,0.968-0.795
		c0.308-0.358,0.587-0.81,0.838-1.354c0.25-0.544,0.426-1.188,0.525-1.934c0.028-0.2,0.121-0.369,0.279-0.505
		c0.157-0.136,0.344-0.204,0.56-0.204c0.199,0,0.376,0.079,0.525,0.236c0.15,0.157,0.232,0.337,0.247,0.536
		c0.014,0.272,0.043,0.655,0.086,1.149s0.141,0.985,0.29,1.472c0.15,0.487,0.376,0.91,0.677,1.269
		c0.302,0.357,0.717,0.537,1.246,0.537c0.345,0,0.685-0.094,1.021-0.279c0.336-0.186,0.666-0.433,0.987-0.741
		c0.322-0.308,0.631-0.659,0.925-1.053c0.293-0.394,0.562-0.791,0.806-1.192c0.243-0.4,0.458-0.788,0.645-1.159
		c0.187-0.372,0.345-0.694,0.474-0.968c0.071-0.156,0.175-0.278,0.311-0.364c0.137-0.087,0.282-0.13,0.44-0.13
		c0.243,0,0.439,0.091,0.591,0.27c0.15,0.179,0.226,0.369,0.226,0.569C67.926,143.068,67.904,143.169,67.861,143.269z
		 M55.615,134.782c0,0.301-0.107,0.559-0.322,0.773s-0.479,0.321-0.795,0.321c-0.301,0-0.559-0.106-0.772-0.321
		c-0.216-0.216-0.322-0.474-0.322-0.773c0-0.315,0.106-0.58,0.322-0.795c0.215-0.215,0.473-0.322,0.772-0.322
		c0.314,0,0.58,0.107,0.795,0.322S55.615,134.467,55.615,134.782z M59.611,134.782c0,0.301-0.107,0.559-0.322,0.773
		s-0.486,0.321-0.815,0.321c-0.302,0-0.56-0.106-0.773-0.321c-0.215-0.216-0.322-0.474-0.322-0.773c0-0.315,0.107-0.58,0.322-0.795
		s0.473-0.322,0.773-0.322c0.328,0,0.602,0.107,0.815,0.322C59.504,134.202,59.611,134.467,59.611,134.782z"/>
	<path fill="#FFFFFF" d="M68.764,141.314c-0.086,0.229-0.19,0.486-0.312,0.772c-0.122,0.287-0.262,0.587-0.419,0.902
		c-0.129,0.244-0.262,0.434-0.396,0.569c-0.138,0.136-0.312,0.204-0.526,0.204c-0.244,0-0.438-0.075-0.58-0.227
		c-0.144-0.149-0.215-0.326-0.215-0.526c0-0.07,0.007-0.132,0.021-0.183c0.015-0.05,0.051-0.132,0.107-0.247
		c0.372-0.716,0.646-1.343,0.827-1.88c0.179-0.537,0.325-1.099,0.439-1.686c-0.101-0.329-0.172-0.608-0.215-0.839
		c-0.043-0.229-0.063-0.465-0.063-0.709c0-0.473,0.1-0.854,0.301-1.148c0.2-0.294,0.479-0.44,0.838-0.44
		c0.329,0,0.591,0.144,0.784,0.431c0.192,0.287,0.29,0.638,0.29,1.053c0,0.229-0.021,0.459-0.064,0.688
		c-0.043,0.23-0.101,0.517-0.172,0.859c0.329,0.816,0.658,1.54,0.988,2.17c0.329,0.63,0.623,1.207,0.881,1.729
		s0.469,1.014,0.634,1.472c0.164,0.459,0.247,0.917,0.247,1.375c0,0.602-0.122,1.175-0.365,1.719
		c-0.244,0.544-0.645,1.003-1.203,1.375c0.071,0.016,0.144,0.021,0.216,0.021c0.07,0,0.143,0,0.215,0
		c0.815,0,1.567-0.187,2.256-0.56c0.688-0.372,1.307-0.854,1.857-1.45c0.552-0.594,1.042-1.253,1.473-1.977
		c0.43-0.723,0.802-1.443,1.117-2.159c0.143-0.329,0.344-0.494,0.602-0.494c0.243,0,0.433,0.086,0.569,0.259
		c0.136,0.172,0.204,0.357,0.204,0.559c0,0.115-0.021,0.222-0.064,0.322c-0.158,0.387-0.362,0.827-0.612,1.32
		c-0.251,0.494-0.552,1.003-0.901,1.525c-0.352,0.523-0.756,1.035-1.214,1.536c-0.459,0.502-0.972,0.949-1.536,1.343
		c-0.566,0.395-1.186,0.709-1.858,0.945c-0.674,0.235-1.411,0.354-2.213,0.354c-0.96,0-1.852-0.169-2.675-0.505
		c-0.824-0.337-1.493-0.892-2.009-1.665c-0.086-0.129-0.129-0.265-0.129-0.408c0-0.215,0.081-0.403,0.246-0.568
		c0.164-0.164,0.354-0.247,0.569-0.247c0.229,0,0.422,0.079,0.58,0.235c0.014,0.029,0.064,0.075,0.15,0.141
		c0.086,0.063,0.188,0.136,0.312,0.215c0.121,0.079,0.265,0.147,0.43,0.204c0.164,0.058,0.333,0.086,0.506,0.086
		c0.344,0,0.634-0.071,0.869-0.215c0.236-0.144,0.427-0.318,0.569-0.526c0.144-0.208,0.247-0.43,0.312-0.666
		c0.063-0.235,0.097-0.439,0.097-0.612c0-0.357-0.058-0.716-0.172-1.073c-0.115-0.358-0.263-0.716-0.44-1.074
		c-0.18-0.358-0.373-0.728-0.58-1.106C69.125,142.127,68.935,141.729,68.764,141.314z"/>
	<path fill="#FFFFFF" d="M82.965,146.62c0.243,0.544,0.646,0.978,1.203,1.3c0.56,0.322,1.188,0.483,1.892,0.483
		c0.215,0,0.564-0.032,1.053-0.097c0.486-0.064,1.049-0.279,1.687-0.646c0.638-0.365,1.313-0.94,2.03-1.729
		c0.716-0.788,1.41-1.898,2.084-3.33c0.071-0.157,0.172-0.275,0.301-0.354s0.271-0.118,0.431-0.118c0.243,0,0.44,0.086,0.591,0.259
		c0.149,0.172,0.226,0.357,0.226,0.559c0,0.086-0.028,0.201-0.086,0.344c-0.502,1.046-1.061,1.98-1.676,2.805
		c-0.616,0.823-1.282,1.524-1.998,2.104c-0.717,0.58-1.465,1.024-2.245,1.332c-0.781,0.308-1.579,0.462-2.396,0.462
		c-0.646,0-1.25-0.101-1.815-0.301s-1.053-0.469-1.461-0.806c-0.408-0.338-0.729-0.717-0.967-1.14
		c-0.236-0.422-0.354-0.854-0.354-1.3c0-0.057,0.008-0.136,0.021-0.236c0.014-0.1,0.054-0.211,0.118-0.333
		c0.063-0.122,0.156-0.235,0.278-0.344c0.121-0.106,0.29-0.197,0.506-0.269c0.587-0.172,1.128-0.384,1.621-0.635
		c0.494-0.251,0.921-0.532,1.278-0.849c0.357-0.314,0.637-0.662,0.838-1.042c0.2-0.379,0.301-0.791,0.301-1.235
		c0-0.387-0.129-0.701-0.387-0.944s-0.573-0.365-0.945-0.365c-0.387,0-0.767,0.133-1.139,0.398
		c-0.373,0.265-0.733,0.615-1.085,1.053c-0.352,0.437-0.685,0.938-0.999,1.504s-0.604,1.157-0.87,1.771
		c-0.266,0.616-0.498,1.229-0.698,1.837c-0.2,0.609-0.364,1.172-0.493,1.687c-0.043,0.158-0.091,0.33-0.141,0.516
		c-0.051,0.187-0.126,0.361-0.226,0.526c-0.102,0.164-0.223,0.301-0.365,0.408c-0.144,0.106-0.33,0.161-0.559,0.161
		c-0.215,0-0.423-0.091-0.623-0.27c-0.201-0.18-0.301-0.482-0.301-0.913c0-0.086,0.003-0.415,0.011-0.987
		c0.007-0.573,0.018-1.321,0.032-2.245c0.014-0.924,0.031-1.983,0.054-3.181c0.021-1.195,0.039-2.463,0.054-3.803
		c0.014-1.339,0.035-2.718,0.064-4.136c0.027-1.418,0.05-2.8,0.063-4.146c0.015-1.346,0.032-2.625,0.055-3.835
		c0.021-1.21,0.038-2.284,0.054-3.223c0.014-0.938,0.024-1.704,0.032-2.299c0.007-0.594,0.011-0.949,0.011-1.063
		c0-0.229,0.086-0.419,0.258-0.568c0.172-0.15,0.357-0.227,0.559-0.227c0.229,0,0.423,0.075,0.58,0.227
		c0.157,0.149,0.236,0.348,0.236,0.591c0,0.028-0.004,0.312-0.011,0.849c-0.008,0.537-0.02,1.257-0.032,2.159
		c-0.015,0.902-0.032,1.955-0.054,3.158s-0.043,2.48-0.064,3.835c-0.021,1.354-0.043,2.747-0.063,4.179
		c-0.021,1.433-0.043,2.829-0.064,4.189c-0.021,1.36-0.04,2.656-0.054,3.889c-0.016,1.232-0.029,2.32-0.043,3.266
		c0.229-0.729,0.522-1.5,0.881-2.31c0.356-0.81,0.78-1.558,1.267-2.245s1.034-1.253,1.645-1.697
		c0.607-0.443,1.285-0.666,2.029-0.666c0.415,0,0.803,0.075,1.16,0.227c0.357,0.149,0.669,0.357,0.936,0.623
		c0.265,0.265,0.473,0.577,0.623,0.935c0.149,0.358,0.226,0.745,0.226,1.16c0,0.645-0.144,1.235-0.43,1.772
		c-0.287,0.536-0.666,1.017-1.14,1.439c-0.473,0.423-1.014,0.791-1.621,1.106C84.235,146.162,83.609,146.42,82.965,146.62z"/>
</g>
</svg>
