<?xml version="1.0" encoding="utf-8"?>
<!-- Generator: Adobe Illustrator 15.0.2, SVG Export Plug-In . SVG Version: 6.00 Build 0)  -->
<!DOCTYPE svg PUBLIC "-//W3C//DTD SVG 1.1//EN" "http://www.w3.org/Graphics/SVG/1.1/DTD/svg11.dtd">
<svg version="1.1" id="Lager_1" xmlns="http://www.w3.org/2000/svg" xmlns:xlink="http://www.w3.org/1999/xlink" x="0px" y="0px"
	 width="101.806px" height="86.73px" viewBox="0 0 101.806 86.73" enable-background="new 0 0 101.806 86.73" xml:space="preserve">
<g>
	
		<path fill="#54B171" stroke="#54B171" stroke-width="0.0969" stroke-linecap="round" stroke-linejoin="round" stroke-miterlimit="10" d="
		M101.757,45.374c0-13.249-10.738-23.989-23.988-23.989c-2.508,0-4.928,0.387-7.203,1.102C69.763,9.964,59.359,0.053,46.632,0.053
		c-13.248,0-23.988,10.742-23.988,23.99c0,2.682,0.447,5.256,1.26,7.664C10.714,31.78,0.048,42.489,0.048,55.692
		c0,13.248,10.742,23.988,23.99,23.988c4.439,0,8.594-1.21,12.162-3.313c4.332,6.231,11.543,10.314,19.705,10.314
		c10.945,0,20.172-7.333,23.053-17.353C91.654,68.712,101.757,58.222,101.757,45.374z"/>
	
		<path fill="#44A260" stroke="#44A260" stroke-width="0.0969" stroke-linecap="round" stroke-linejoin="round" stroke-miterlimit="10" d="
		M46.632,0.052c-13.248,0-23.988,10.742-23.988,23.99c0,2.682,0.447,5.256,1.26,7.664C10.714,31.779,0.048,42.49,0.048,55.691
		c0,13.248,10.742,23.988,23.99,23.988c4.439,0,8.594-1.21,12.162-3.312c3.424,4.924,8.639,8.506,14.705,9.794
		c0,0,0-85.218,0-85.729C49.351-0.017,46.632,0.052,46.632,0.052z"/>
</g>
</svg>
