<?xml version="1.0" encoding="utf-8"?>
<!-- Generator: Adobe Illustrator 17.0.0, SVG Export Plug-In . SVG Version: 6.00 Build 0)  -->
<!DOCTYPE svg PUBLIC "-//W3C//DTD SVG 1.1//EN" "http://www.w3.org/Graphics/SVG/1.1/DTD/svg11.dtd">
<svg version="1.1" id="Layer_1" xmlns="http://www.w3.org/2000/svg" xmlns:xlink="http://www.w3.org/1999/xlink" x="0px" y="0px"
	 width="118.233px" height="75.98px" viewBox="0 0 118.233 75.98" enable-background="new 0 0 118.233 75.98" xml:space="preserve">
<polygon fill="#52B36E" stroke="#52B36E" stroke-width="4" stroke-linecap="round" stroke-linejoin="round" stroke-miterlimit="10" points="
	99.615,73.98 18.618,73.98 10.617,13.571 107.616,13.571 "/>
<polygon fill="#2EAB61" stroke="#2EAB61" stroke-width="4" stroke-linecap="round" stroke-linejoin="round" stroke-miterlimit="10" points="
	99.615,73.98 18.618,73.98 10.617,13.571 "/>
<g>
	<path fill="#F8F8F8" stroke="#F8F8F8" stroke-width="0.9021" stroke-miterlimit="10" d="M117.782,10.95
		c0,1.565-1.27,2.835-2.835,2.835H3.286c-1.566,0-2.835-1.27-2.835-2.835V3.286c0-1.566,1.27-2.835,2.835-2.835h111.661
		c1.565,0,2.835,1.27,2.835,2.835V10.95z"/>
	<path fill="#E9E9E9" stroke="#E9E9E9" stroke-width="0.9021" stroke-miterlimit="10" d="M117.782,7.118v3.832
		c0,1.565-1.27,2.835-2.835,2.835H3.286c-1.566,0-2.835-1.27-2.835-2.835V7.118H117.782z"/>
</g>
<g>
	
		<path fill="#FFFFFF" stroke="#FFFFFF" stroke-width="0.2" stroke-linecap="round" stroke-linejoin="round" stroke-miterlimit="10" d="
		M32.303,38.088l-0.444-0.012c-0.071-0.433-0.25-0.774-0.533-1.026c-0.284-0.252-0.602-0.378-0.954-0.378
		c-0.593,0-1.06,0.302-1.404,0.906c-0.344,0.604-0.516,1.298-0.516,2.082c0,2.2,0.567,3.576,1.704,4.128
		c0.543,0.271,1.26,0.408,2.147,0.408v0.443c-1.159,0-2.024-0.172-2.592-0.516c-0.224-0.136-0.45-0.328-0.679-0.576
		c-0.226-0.248-0.413-0.544-0.557-0.888c-0.312-0.776-0.469-1.78-0.469-3.013c0-0.583,0.08-1.107,0.24-1.571
		c0.16-0.464,0.359-0.824,0.6-1.08c0.488-0.512,0.981-0.769,1.477-0.769c0.496,0,0.949,0.2,1.361,0.601
		C32.097,37.228,32.303,37.648,32.303,38.088z"/>
	
		<path fill="#FFFFFF" stroke="#FFFFFF" stroke-width="0.2" stroke-linecap="round" stroke-linejoin="round" stroke-miterlimit="10" d="
		M33.875,44.628h-0.444v-6h0.444v0.876c0.168-0.2,0.426-0.414,0.774-0.642c0.348-0.229,0.68-0.343,0.996-0.343
		c0.316,0,0.592,0.091,0.827,0.271c0.235,0.18,0.358,0.474,0.366,0.882h-0.443c0-0.224-0.072-0.399-0.217-0.528
		c-0.144-0.128-0.34-0.191-0.588-0.191c-0.248,0-0.551,0.12-0.906,0.359c-0.355,0.24-0.626,0.505-0.81,0.792V44.628z"/>
	
		<path fill="#FFFFFF" stroke="#FFFFFF" stroke-width="0.2" stroke-linecap="round" stroke-linejoin="round" stroke-miterlimit="10" d="
		M41.675,44.196v0.443c-0.48,0-0.902-0.02-1.266-0.06c-0.365-0.04-0.742-0.126-1.135-0.258c-0.393-0.133-0.714-0.311-0.966-0.534
		c-0.252-0.224-0.46-0.534-0.624-0.93c-0.164-0.396-0.246-0.868-0.246-1.416c0-0.548,0.074-1.026,0.223-1.435
		c0.147-0.408,0.338-0.716,0.569-0.924c0.433-0.384,0.853-0.576,1.261-0.576c0.68,0,1.209,0.2,1.59,0.601
		c0.379,0.399,0.569,0.928,0.569,1.584c0,0.439-0.004,0.695-0.012,0.768h-3.757c0,1.032,0.309,1.746,0.925,2.142
		C39.423,43.998,40.378,44.196,41.675,44.196z M41.206,41.016v-0.264c0-0.528-0.149-0.96-0.449-1.296
		c-0.301-0.336-0.696-0.504-1.188-0.504c-0.491,0-0.88,0.193-1.164,0.582c-0.284,0.388-0.454,0.882-0.51,1.481H41.206z
		 M39.634,37.86l-1.367-1.452l0.443-0.181l1.272,1.633H39.634z"/>
	
		<path fill="#FFFFFF" stroke="#FFFFFF" stroke-width="0.2" stroke-linecap="round" stroke-linejoin="round" stroke-miterlimit="10" d="
		M46.607,44.628l0.012-3.168c0-0.672-0.15-1.258-0.449-1.758c-0.301-0.5-0.685-0.75-1.152-0.75c-0.469,0-0.994,0.332-1.578,0.996
		v4.68h-0.444v-6h0.444v0.72c0.52-0.56,1.084-0.84,1.691-0.84c0.248,0,0.518,0.088,0.811,0.264c0.292,0.177,0.537,0.452,0.738,0.828
		c0.567-0.728,1.219-1.092,1.955-1.092c0.408,0,0.832,0.192,1.272,0.576c0.224,0.208,0.41,0.516,0.558,0.924
		c0.148,0.408,0.223,0.888,0.223,1.441l-0.012,3.18h-0.444l0.012-3.168c0-0.672-0.162-1.258-0.485-1.758
		c-0.324-0.5-0.723-0.75-1.194-0.75c-0.312,0-0.626,0.107-0.942,0.324c-0.316,0.216-0.574,0.464-0.773,0.743
		c0.143,0.416,0.216,0.893,0.216,1.429l-0.013,3.18H46.607z"/>
	
		<path fill="#FFFFFF" stroke="#FFFFFF" stroke-width="0.2" stroke-linecap="round" stroke-linejoin="round" stroke-miterlimit="10" d="
		M56.158,44.196v0.443c-0.479,0-0.901-0.02-1.266-0.06c-0.363-0.04-0.742-0.126-1.134-0.258c-0.392-0.133-0.714-0.311-0.966-0.534
		c-0.252-0.224-0.461-0.534-0.624-0.93c-0.164-0.396-0.246-0.868-0.246-1.416c0-0.548,0.073-1.026,0.222-1.435
		c0.148-0.408,0.338-0.716,0.57-0.924c0.432-0.384,0.852-0.576,1.26-0.576c0.68,0,1.21,0.2,1.59,0.601
		c0.381,0.399,0.57,0.928,0.57,1.584c0,0.439-0.004,0.695-0.012,0.768h-3.756c0,1.032,0.308,1.746,0.924,2.142
		C53.906,43.998,54.863,44.196,56.158,44.196z M55.691,41.016v-0.264c0-0.528-0.15-0.96-0.451-1.296
		c-0.299-0.336-0.695-0.504-1.188-0.504s-0.88,0.193-1.164,0.582c-0.283,0.388-0.454,0.882-0.51,1.481H55.691z"/>
	
		<path fill="#FFFFFF" stroke="#FFFFFF" stroke-width="0.2" stroke-linecap="round" stroke-linejoin="round" stroke-miterlimit="10" d="
		M60.43,44.628h-0.443v-8.4h4.297v0.444H60.43v3.072h3.854v0.443H60.43V44.628z"/>
	
		<path fill="#FFFFFF" stroke="#FFFFFF" stroke-width="0.2" stroke-linecap="round" stroke-linejoin="round" stroke-miterlimit="10" d="
		M65.951,44.628h-0.445v-6h0.445v0.876c0.168-0.2,0.426-0.414,0.773-0.642c0.348-0.229,0.68-0.343,0.996-0.343
		c0.316,0,0.592,0.091,0.828,0.271c0.236,0.18,0.357,0.474,0.365,0.882h-0.443c0-0.224-0.072-0.399-0.217-0.528
		c-0.143-0.128-0.34-0.191-0.588-0.191c-0.248,0-0.549,0.12-0.904,0.359c-0.357,0.24-0.627,0.505-0.811,0.792V44.628z"/>
	
		<path fill="#FFFFFF" stroke="#FFFFFF" stroke-width="0.2" stroke-linecap="round" stroke-linejoin="round" stroke-miterlimit="10" d="
		M73.269,38.628h0.445v6.012c-0.481,0-0.9-0.02-1.26-0.06c-0.361-0.04-0.734-0.126-1.123-0.258
		c-0.389-0.133-0.705-0.311-0.953-0.534c-0.248-0.224-0.453-0.534-0.613-0.93c-0.16-0.396-0.238-0.843-0.238-1.339
		c0-0.495,0.049-0.922,0.148-1.277c0.1-0.356,0.229-0.641,0.385-0.853c0.156-0.212,0.33-0.386,0.521-0.521
		c0.336-0.248,0.668-0.372,0.996-0.372c0.6,0,1.164,0.284,1.691,0.852V38.628z M69.971,41.46c0,1.048,0.324,1.776,0.973,2.184
		c0.574,0.36,1.352,0.54,2.326,0.54v-4.235c-0.271-0.312-0.533-0.559-0.785-0.738c-0.252-0.18-0.529-0.271-0.834-0.271
		c-0.504,0-0.91,0.223-1.219,0.666C70.125,40.05,69.971,40.668,69.971,41.46z"/>
	
		<path fill="#FFFFFF" stroke="#FFFFFF" stroke-width="0.2" stroke-linecap="round" stroke-linejoin="round" stroke-miterlimit="10" d="
		M75.838,44.628h-0.443v-6h0.443V44.628z M75.418,36.647h0.443v1.032h-0.443V36.647z"/>
	
		<path fill="#FFFFFF" stroke="#FFFFFF" stroke-width="0.2" stroke-linecap="round" stroke-linejoin="round" stroke-miterlimit="10" d="
		M81.31,39.84l-0.457-0.012c-0.127-0.265-0.344-0.476-0.646-0.636c-0.305-0.16-0.625-0.24-0.961-0.24
		c-0.543,0-0.959,0.242-1.248,0.726c-0.287,0.484-0.432,1.078-0.432,1.782c0,1.032,0.305,1.746,0.912,2.142
		c0.607,0.396,1.557,0.595,2.844,0.595v0.443c-0.48,0-0.9-0.02-1.26-0.06c-0.359-0.04-0.736-0.126-1.129-0.258
		c-0.391-0.133-0.711-0.311-0.959-0.534c-0.248-0.224-0.453-0.534-0.611-0.93c-0.16-0.396-0.24-0.868-0.24-1.416
		c0-0.548,0.072-1.026,0.221-1.435c0.148-0.408,0.334-0.716,0.559-0.924c0.439-0.384,0.893-0.576,1.355-0.576
		c0.465,0,0.889,0.12,1.274,0.36C80.914,39.108,81.174,39.432,81.31,39.84z"/>
	
		<path fill="#FFFFFF" stroke="#FFFFFF" stroke-width="0.2" stroke-linecap="round" stroke-linejoin="round" stroke-miterlimit="10" d="
		M86.195,44.628l0.012-3.168c0-0.672-0.162-1.26-0.486-1.764c-0.324-0.504-0.723-0.757-1.193-0.757
		c-0.305,0-0.582,0.091-0.834,0.271c-0.252,0.18-0.516,0.426-0.787,0.738v4.68h-0.443v-9h0.443v3.72
		c0.527-0.567,1.092-0.852,1.691-0.852c0.328,0,0.66,0.124,0.996,0.372c0.705,0.512,1.057,1.372,1.057,2.58l-0.012,3.18H86.195z"/>
	
		<path fill="#FFFFFF" stroke="#FFFFFF" stroke-width="0.2" stroke-linecap="round" stroke-linejoin="round" stroke-miterlimit="10" d="
		M92.123,44.196v0.443c-0.48,0-0.902-0.02-1.266-0.06c-0.365-0.04-0.742-0.126-1.135-0.258c-0.393-0.133-0.715-0.311-0.967-0.534
		c-0.252-0.224-0.459-0.534-0.623-0.93c-0.164-0.396-0.246-0.868-0.246-1.416c0-0.548,0.074-1.026,0.223-1.435
		c0.147-0.408,0.338-0.716,0.57-0.924c0.432-0.384,0.852-0.576,1.26-0.576c0.68,0,1.209,0.2,1.59,0.601
		c0.379,0.399,0.57,0.928,0.57,1.584c0,0.439-0.006,0.695-0.014,0.768H88.33c0,1.032,0.309,1.746,0.924,2.142
		C89.871,43.998,90.826,44.196,92.123,44.196z M91.654,41.016v-0.264c0-0.528-0.15-0.96-0.449-1.296
		c-0.301-0.336-0.697-0.504-1.188-0.504c-0.492,0-0.881,0.193-1.164,0.582c-0.285,0.388-0.455,0.882-0.512,1.481H91.654z"/>
</g>
<g>
	<path fill="#FFFFFF" d="M102.695,65.96l-1.098,8.283c-0.132,0.994-0.979,1.737-1.982,1.737H18.618
		c-1.003,0-1.851-0.743-1.983-1.737l-1.085-8.187L102.695,65.96z"/>
</g>
<g>
	<path fill="#E9E9E9" d="M91.422,65.96l10.176,8.283c-0.132,0.994-0.979,1.737-1.982,1.737H18.618c-1.003,0-1.851-0.743-1.983-1.737
		l-1.085-8.187L91.422,65.96z"/>
</g>
</svg>
