<?xml version="1.0" encoding="utf-8"?>
<!-- Generator: Adobe Illustrator 15.0.2, SVG Export Plug-In . SVG Version: 6.00 Build 0)  -->
<!DOCTYPE svg PUBLIC "-//W3C//DTD SVG 1.1//EN" "http://www.w3.org/Graphics/SVG/1.1/DTD/svg11.dtd">
<svg version="1.1" id="Lager_1" xmlns="http://www.w3.org/2000/svg" xmlns:xlink="http://www.w3.org/1999/xlink" x="0px" y="0px"
	 width="525.667px" height="274.592px" viewBox="0 0 525.667 274.592" enable-background="new 0 0 525.667 274.592"
	 xml:space="preserve">
<g>
	<g>
		<path fill="#1D71B8" stroke="#1D71B8" stroke-miterlimit="10" d="M525.167,271.092c0,1.657-1.343,3-3,3H3.5c-1.657,0-3-1.343-3-3
			V158.425c0-1.658,1.343-3,3-3h518.667c1.657,0,3,1.342,3,3V271.092z"/>
		<path fill="#1C5E99" stroke="#1C5E99" stroke-width="0.6903" stroke-miterlimit="10" d="M525.167,272.663
			c0,0.79-1.343,1.43-3,1.43H3.5c-1.657,0-3-0.64-3-1.43v-53.694c0-0.79,1.343-1.43,3-1.43h518.667c1.657,0,3,0.64,3,1.43V272.663z"
			/>
		<g>
			<path fill="#F9F4BA" stroke="#F9F4BA" stroke-width="0.5" stroke-miterlimit="10" d="M73.315,256.207
				c-0.794-0.917-1.761-1.374-2.902-1.374c-1.139,0-2.05,0.33-2.733,0.992c-0.683,0.661-1.192,1.461-1.527,2.398
				c-0.335,0.935-0.677,1.876-1.023,2.823c-0.347,0.947-0.871,1.752-1.573,2.413s-1.604,0.992-2.703,0.992
				c-1.914,0-3.34-0.534-4.276-1.603c-0.936-1.069-1.405-2.347-1.405-3.833c0-1.487,0.143-3.115,0.428-4.888h1.13
				c-0.285,1.589-0.427,3.075-0.427,4.46s0.387,2.521,1.16,3.405c0.774,0.888,1.863,1.33,3.269,1.33
				c1.222,0,2.138-0.632,2.748-1.895c0.286-0.569,0.55-1.195,0.794-1.879c0.245-0.682,0.519-1.37,0.825-2.061
				c0.306-0.693,0.667-1.32,1.084-1.879c0.417-0.56,0.998-1.02,1.741-1.375c0.744-0.355,1.609-0.534,2.596-0.534
				c0.988,0,1.86,0.229,2.611,0.686c0.755,0.46,1.345,1.024,1.772,1.695c0.428,0.674,0.775,1.457,1.038,2.354
				c0.449,1.444,0.672,3.075,0.672,4.888v0.763h-1.13C75.484,260.462,74.761,257.834,73.315,256.207z"/>
			<path fill="#F9F4BA" stroke="#F9F4BA" stroke-width="0.5" stroke-miterlimit="10" d="M76.553,247.012l-21.381,4.613v-1.131
				l19.547-4.245l-19.547-4.246v-1.131l21.381,4.552V247.012z"/>
			<path fill="#F9F4BA" stroke="#F9F4BA" stroke-width="0.5" stroke-miterlimit="10" d="M76.553,237.636H55.172v-10.934h1.13v9.803
				h7.82v-9.803h1.129v9.803h10.172v-9.803h1.13V237.636z"/>
			<path fill="#F9F4BA" stroke="#F9F4BA" stroke-width="0.5" stroke-miterlimit="10" d="M76.553,212.071v1.375l-9.072,5.926
				c0.102,0.754,0.172,1.589,0.214,2.504h8.858v1.131H55.142c0.021-6.82,2.066-10.231,6.139-10.231c3.278,0,5.285,1.792,6.017,5.375
				L76.553,212.071z M66.474,221.875l0.03-0.304c-0.081-5.113-1.791-7.668-5.13-7.668c-0.937,0-1.715,0.218-2.336,0.655
				c-0.622,0.441-1.105,0.933-1.452,1.481c-0.814,1.305-1.242,3.249-1.282,5.835H66.474z"/>
			<path fill="#F9F4BA" stroke="#F9F4BA" stroke-width="0.5" stroke-miterlimit="10" d="M76.553,208.099v1.131h-21.32v-1.131H76.553
				z"/>
			<path fill="#F9F4BA" stroke="#F9F4BA" stroke-width="0.5" stroke-miterlimit="10" d="M59.907,193.349l-0.03,1.129
				c-1.1,0.184-1.971,0.639-2.612,1.36c-0.641,0.723-0.961,1.533-0.961,2.428c0,1.506,0.769,2.699,2.306,3.574
				c1.538,0.875,3.304,1.312,5.299,1.312c4.052,0,6.943-0.695,8.674-2.09c1.731-1.397,2.678-3.59,2.841-6.585h-8.4v2.995h-1.13
				v-4.124h10.691c0,2.953-0.439,5.15-1.314,6.597c-0.347,0.57-0.835,1.146-1.466,1.726c-0.63,0.582-1.385,1.055-2.26,1.422
				c-1.975,0.794-4.531,1.191-7.667,1.191c-1.487,0-2.82-0.204-4.001-0.611c-1.182-0.409-2.098-0.918-2.749-1.526
				c-1.304-1.243-1.955-2.496-1.955-3.76c0-1.262,0.509-2.415,1.527-3.464S58.787,193.349,59.907,193.349z"/>
			<path fill="#F9F4BA" stroke="#F9F4BA" stroke-width="0.5" stroke-miterlimit="10" d="M76.553,189.255H55.172v-10.934h1.13v9.803
				h7.82v-9.803h1.129v9.803h10.172v-9.803h1.13V189.255z"/>
			<path fill="#F9F4BA" stroke="#F9F4BA" stroke-width="0.5" stroke-miterlimit="10" d="M73.315,167.571
				c-0.794-0.917-1.761-1.374-2.902-1.374c-1.139,0-2.05,0.33-2.733,0.991s-1.192,1.462-1.527,2.398
				c-0.335,0.935-0.677,1.877-1.023,2.824c-0.347,0.947-0.871,1.752-1.573,2.413s-1.604,0.992-2.703,0.992
				c-1.914,0-3.34-0.534-4.276-1.604c-0.936-1.068-1.405-2.347-1.405-3.832c0-1.486,0.143-3.115,0.428-4.888h1.13
				c-0.285,1.589-0.427,3.075-0.427,4.46c0,1.384,0.387,2.521,1.16,3.405c0.774,0.887,1.863,1.329,3.269,1.329
				c1.222,0,2.138-0.631,2.748-1.894c0.286-0.569,0.55-1.195,0.794-1.879c0.245-0.682,0.519-1.369,0.825-2.061
				c0.306-0.693,0.667-1.32,1.084-1.88c0.417-0.56,0.998-1.02,1.741-1.374c0.744-0.355,1.609-0.535,2.596-0.535
				c0.988,0,1.86,0.229,2.611,0.687c0.755,0.459,1.345,1.023,1.772,1.695c0.428,0.673,0.775,1.456,1.038,2.354
				c0.449,1.443,0.672,3.074,0.672,4.886v0.764h-1.13C75.484,171.826,74.761,169.199,73.315,167.571z"/>
		</g>
		<g>
			<path fill="#F9F4BA" stroke="#F9F4BA" stroke-width="0.5" stroke-miterlimit="10" d="M110.217,232.231v1.373l-9.071,5.927
				c0.102,0.753,0.172,1.588,0.214,2.503h8.857v1.131H88.806c0.021-6.82,2.066-10.23,6.139-10.23c3.278,0,5.285,1.791,6.017,5.374
				L110.217,232.231z M100.138,242.034l0.03-0.304c-0.081-5.112-1.791-7.668-5.131-7.668c-0.937,0-1.715,0.219-2.336,0.656
				c-0.622,0.44-1.105,0.933-1.452,1.481c-0.814,1.306-1.242,3.249-1.283,5.834H100.138z"/>
			<path fill="#F9F4BA" stroke="#F9F4BA" stroke-width="0.5" stroke-miterlimit="10" d="M110.217,228.258v1.13H88.898v-1.13H110.217
				z"/>
			<path fill="#F9F4BA" stroke="#F9F4BA" stroke-width="0.5" stroke-miterlimit="10" d="M110.217,212.712v1.131h-2.077
				c-6.312,0-9.469,1.549-9.469,4.644c0,0.651,0.168,1.272,0.505,1.862c0.335,0.591,0.631,1.004,0.885,1.238
				c0.256,0.233,0.626,0.534,1.116,0.899h9.04v1.131h-21.38v-1.131h10.538l-10.569-8.245v-1.559l8.918,7.086
				c-0.122-0.488-0.183-0.966-0.183-1.436c0-1.73,0.835-3.101,2.504-4.107c1.67-1.008,4.246-1.514,7.728-1.514H110.217z"/>
			<path fill="#F9F4BA" stroke="#F9F4BA" stroke-width="0.5" stroke-miterlimit="10" d="M110.217,209.355h-21.38v-10.934h1.129
				v9.803h7.82v-9.803h1.13v9.803h10.172v-9.803h1.129V209.355z"/>
			<path fill="#F9F4BA" stroke="#F9F4BA" stroke-width="0.5" stroke-miterlimit="10" d="M106.98,187.669
				c-0.794-0.917-1.761-1.374-2.902-1.374c-1.139,0-2.05,0.331-2.733,0.992c-0.683,0.66-1.192,1.462-1.527,2.397
				s-0.677,1.877-1.023,2.824c-0.347,0.946-0.871,1.753-1.573,2.414s-1.604,0.992-2.703,0.992c-1.915,0-3.34-0.535-4.277-1.604
				c-0.936-1.069-1.404-2.347-1.404-3.833c0-1.487,0.143-3.114,0.428-4.887h1.129c-0.285,1.589-0.428,3.074-0.428,4.459
				c0,1.384,0.388,2.521,1.161,3.404c0.774,0.889,1.863,1.331,3.269,1.331c1.222,0,2.138-0.632,2.748-1.894
				c0.286-0.57,0.55-1.196,0.794-1.88c0.245-0.681,0.519-1.37,0.825-2.061c0.306-0.693,0.668-1.32,1.084-1.879
				c0.417-0.56,0.998-1.02,1.741-1.375c0.744-0.356,1.609-0.534,2.596-0.534c0.988,0,1.859,0.229,2.611,0.686
				c0.755,0.46,1.345,1.024,1.772,1.695c0.427,0.674,0.774,1.456,1.038,2.354c0.449,1.445,0.672,3.075,0.672,4.888v0.764h-1.13
				C109.148,191.925,108.425,189.298,106.98,187.669z"/>
		</g>
		<g>
			<path fill="#F9F4BA" stroke="#F9F4BA" stroke-width="0.5" stroke-miterlimit="10" d="M154.697,227.606v15.929h-32.041v-1.695
				h30.349v-14.233H154.697z"/>
			<path fill="#F9F4BA" stroke="#F9F4BA" stroke-width="0.5" stroke-miterlimit="10" d="M125.036,207.467h29.661v1.691h-15.105
				v13.001h15.105v1.695h-20.965c-3.295,0-5.995-1.055-8.102-3.16c-2.105-2.104-3.159-4.744-3.159-7.919
				C122.471,210.458,123.326,208.687,125.036,207.467z M137.898,209.159h-12.222c-1.007,0.979-1.51,2.212-1.51,3.71
				c0,2.687,0.976,4.907,2.93,6.66c1.952,1.755,4.181,2.631,6.683,2.631h4.12V209.159z"/>
			<path fill="#F9F4BA" stroke="#F9F4BA" stroke-width="0.5" stroke-miterlimit="10" d="M129.75,185.449l-0.044,1.691
				c-1.648,0.275-2.954,0.958-3.916,2.037c-0.961,1.084-1.441,2.299-1.441,3.641c0,2.257,1.152,4.045,3.457,5.356
				c2.304,1.31,4.951,1.966,7.942,1.966c6.072,0,10.406-1.043,12.999-3.132c2.596-2.094,4.015-5.38,4.259-9.868h-12.589v4.488
				h-1.694v-6.18h16.022c0,4.426-0.658,7.719-1.969,9.886c-0.52,0.853-1.252,1.717-2.198,2.586
				c-0.944,0.871-2.074,1.579-3.386,2.131c-2.959,1.188-6.791,1.783-11.49,1.783c-2.227,0-4.226-0.305-5.995-0.916
				c-1.772-0.61-3.144-1.374-4.12-2.287c-1.954-1.862-2.93-3.74-2.93-5.632s0.764-3.621,2.289-5.192
				C126.469,186.234,128.072,185.449,129.75,185.449z"/>
		</g>
		<rect x="28.163" y="154.925" fill="#F9F4BA" width="2" height="119.636"/>
		<rect x="19.247" y="154.925" fill="#F9F4BA" width="5.25" height="119.636"/>
		<rect x="495.004" y="154.925" fill="#F9F4BA" width="2" height="119.636"/>
		<rect x="500.67" y="154.925" fill="#F9F4BA" width="5.25" height="119.636"/>
	</g>
	<g>
		<g>
			<path fill="#936037" stroke="#936037" stroke-width="0.8726" stroke-miterlimit="10" d="M442.315,117.375L169.421,68.752
				c-7.158-1.276-13.994,3.493-15.269,10.651c-1.275,7.157,3.493,13.993,10.651,15.268l272.894,48.624
				c2.961,5.453,8.272,9.565,14.857,10.738c11.488,2.047,22.462-5.607,24.509-17.095c2.048-11.488-5.607-22.461-17.097-24.509
				C453.382,111.257,446.977,113.281,442.315,117.375z"/>
			<g>
				
					<rect x="113.624" y="47.597" transform="matrix(0.9845 0.1754 -0.1754 0.9845 15.9893 -24.5932)" fill="#7D4E24" stroke="#7D4E24" stroke-width="0.7676" stroke-miterlimit="10" width="66.967" height="61.102"/>
				<path fill="#936037" stroke="#936037" stroke-width="0.6041" stroke-miterlimit="10" d="M177.568,114.608
					c4.35,0.775,7.248,4.929,6.473,9.279l-4.444,24.94c-0.775,4.35-4.929,7.248-9.279,6.473l-74.822-13.331
					c-4.35-0.775-7.248-4.931-6.473-9.278l4.444-24.942c0.774-4.349,4.929-7.247,9.279-6.472L177.568,114.608z"/>
				<path fill="#936037" stroke="#936037" stroke-width="0.6041" stroke-miterlimit="10" d="M195.538,13.759
					c4.35,0.775,7.247,4.93,6.473,9.279l-4.444,24.942c-0.775,4.349-4.929,7.248-9.279,6.473l-74.821-13.332
					c-4.35-0.775-7.248-4.93-6.473-9.279L111.437,6.9c0.775-4.349,4.929-7.248,9.279-6.473L195.538,13.759z"/>
			</g>
		</g>
		
			<rect x="132.801" y="82.405" transform="matrix(0.1754 -0.9845 0.9845 0.1754 -14.3094 239.7261)" fill="#7D4E24" width="6.305" height="92"/>
		
			<rect x="150.808" y="-18.657" transform="matrix(0.1754 -0.9845 0.9845 0.1754 100.0317 174.1188)" fill="#7D4E24" width="6.304" height="92"/>
		<path fill="#7D4E24" d="M220.979,69.933c3.788,0.675,6.312,4.293,5.637,8.081l-4.939,27.721c-0.675,3.788-4.292,6.312-8.081,5.637
			l0,0c-3.788-0.676-6.312-4.293-5.637-8.081l4.939-27.722C213.573,71.781,217.191,69.257,220.979,69.933L220.979,69.933z"/>
	</g>
</g>
</svg>
