<?xml version="1.0" encoding="utf-8"?>
<!-- Generator: Adobe Illustrator 15.0.2, SVG Export Plug-In . SVG Version: 6.00 Build 0)  -->
<!DOCTYPE svg PUBLIC "-//W3C//DTD SVG 1.1//EN" "http://www.w3.org/Graphics/SVG/1.1/DTD/svg11.dtd">
<svg version="1.1" id="Lager_1" xmlns="http://www.w3.org/2000/svg" xmlns:xlink="http://www.w3.org/1999/xlink" x="0px" y="0px"
	 width="54.011px" height="95.884px" viewBox="0 0 54.011 95.884" enable-background="new 0 0 54.011 95.884" xml:space="preserve">
<g>
	<g>
		<path fill="#DADADA" d="M15.881,60.384v32.125c0,1.863-1.511,3.375-3.375,3.375l0,0c-1.864,0-3.375-1.512-3.375-3.375V60.384"/>
		<path fill="#B2B2B2" d="M9.131,60.384v32.125c0,1.863,1.511,3.375,3.375,3.375l0,0v-35.5"/>
	</g>
	<g>
		<path fill="#DADADA" d="M43.948,60.259v32.125c0,1.863-1.511,3.375-3.375,3.375l0,0c-1.864,0-3.375-1.512-3.375-3.375V60.259"/>
		<path fill="#B2B2B2" d="M37.198,60.259v32.125c0,1.863,1.511,3.375,3.375,3.375l0,0v-35.5"/>
	</g>
	<path fill="#FFFFFF" d="M54.011,68.619V17.612C54.011,7.886,46.126,0,36.398,0H17.612C7.885,0,0,7.886,0,17.612v51.007H54.011z"/>
	<path fill="#ECF0F3" d="M27.005,68.619H0V17.612C0,7.886,7.885,0,17.612,0h9.393V68.619z"/>
</g>
</svg>
