<?xml version="1.0" encoding="utf-8"?>
<!-- Generator: Adobe Illustrator 17.0.0, SVG Export Plug-In . SVG Version: 6.00 Build 0)  -->
<!DOCTYPE svg PUBLIC "-//W3C//DTD SVG 1.1//EN" "http://www.w3.org/Graphics/SVG/1.1/DTD/svg11.dtd">
<svg version="1.1" id="Layer_1" xmlns="http://www.w3.org/2000/svg" xmlns:xlink="http://www.w3.org/1999/xlink" x="0px" y="0px"
	 width="484.416px" height="457.951px" viewBox="0 0 484.416 457.951" enable-background="new 0 0 484.416 457.951"
	 xml:space="preserve">
<g>
	<polygon fill="#FECC37" points="23.044,222.427 149.47,188.708 64.509,59.017 190.752,127.375 229.04,0 277.198,118.246 
		386.494,39.532 337.139,149.977 446.024,206.54 347.029,265.927 382.712,339.762 277.198,305.627 242.394,457.951 203.445,314.263 
		103.157,364.394 170.13,249.913 	"/>
	<polygon fill="#FECC37" points="158.091,63.192 236.18,149.452 299.223,63.192 288.338,169.479 440.163,142.377 382.712,228.975 
		456.663,303.876 291.032,272.681 307.448,378.255 239.989,295.404 176.944,381.662 163.139,298.927 14.184,311.013 
		102.541,218.627 14.184,142.377 185.135,172.173 	"/>
	<circle fill="#FFFFFF" cx="176.946" cy="222.427" r="43.5"/>
	<circle fill="#DADADA" cx="163.139" cy="255.427" r="43.5"/>
	<circle fill="#FFFFFF" cx="143.474" cy="188.708" r="61.333"/>
	<circle fill="#FFFFFF" cx="163.139" cy="193.477" r="43.5"/>
	<circle fill="#DADADA" cx="220.446" cy="163.041" r="43.5"/>
	<circle fill="#FFFFFF" cx="204.807" cy="222.427" r="43.5"/>
	<circle fill="#FFFFFF" cx="204.807" cy="188.708" r="43.5"/>
	<circle fill="#FFFFFF" cx="263.946" cy="187.627" r="43.5"/>
	<circle fill="#FFFFFF" cx="321.442" cy="218.627" r="43.5"/>
	<circle fill="#FFFFFF" cx="293.639" cy="231.127" r="43.5"/>
	<circle fill="#DADADA" cx="353.557" cy="242.478" r="43.5"/>
	<circle fill="#FFFFFF" cx="235.423" cy="265.927" r="43.5"/>
	<polygon fill="#FECC37" points="96.74,165.152 109.478,175.703 125.393,171.191 119.293,186.567 128.502,200.308 111.996,199.259 
		101.772,212.264 97.668,196.24 82.141,190.536 96.114,181.681 	"/>
	<polygon fill="#FFFFFF" points="153.186,15.696 160.466,21.725 169.562,19.146 166.076,27.934 171.339,35.787 161.905,35.188 
		156.063,42.62 153.717,33.462 144.843,30.203 152.828,25.142 	"/>
	<polygon fill="#FFFFFF" points="441.118,229.016 448.399,235.045 457.494,232.466 454.008,241.253 459.271,249.107 
		449.836,248.508 443.995,255.94 441.649,246.783 432.776,243.523 440.76,238.462 	"/>
	<polygon fill="#FECC37" points="332.233,366.582 339.514,372.611 348.609,370.032 345.124,378.819 350.386,386.672 
		340.952,386.074 335.11,393.505 332.764,384.348 323.891,381.088 331.875,376.028 	"/>
	<polygon fill="#FECC37" points="318.985,15.696 326.266,21.725 335.361,19.146 331.875,27.933 337.138,35.787 327.704,35.188 
		321.862,42.62 319.516,33.462 310.643,30.203 318.627,25.142 	"/>
	<polygon fill="#FFFFFF" points="138.568,368.2 145.849,374.229 154.944,371.65 151.458,380.437 156.721,388.29 147.287,387.692 
		141.445,395.124 139.099,385.966 130.226,382.707 138.21,377.646 	"/>
	<polygon fill="#FECC37" points="18.139,241.965 25.42,247.995 34.515,245.415 31.029,254.203 36.292,262.056 26.857,261.457 
		21.016,268.889 18.67,259.732 9.797,256.472 17.781,251.412 	"/>
	<circle fill="#FFFFFF" cx="293.639" cy="262.128" r="61.332"/>
	<circle fill="#FFFFFF" cx="353.557" cy="193.478" r="43.5"/>
	<g>
		<g>
			<g>
				<circle fill="#FFFFFF" cx="23.789" cy="364.609" r="8.534"/>
				<circle fill="#FFFFFF" cx="41.445" cy="363.271" r="8.534"/>
				<path fill="#FFFFFF" d="M38.328,359.433c-4.13,5.209-11.699,6.079-16.906,1.954c-5.206-4.131-6.08-11.699-1.949-16.906
					c4.129-5.207,11.698-6.081,16.905-1.95C41.584,346.66,42.457,354.228,38.328,359.433z"/>
				<circle fill="#FFFFFF" cx="43.031" cy="381.55" r="12.033"/>
				<path fill="#FFFFFF" d="M48.658,360.145c-2.93,3.69-8.298,4.312-11.99,1.382c-3.694-2.929-4.312-8.297-1.384-11.988
					c2.93-3.695,8.298-4.313,11.99-1.386C50.967,351.082,51.586,356.451,48.658,360.145z"/>
				<path fill="#FFFFFF" d="M56.387,373.488c-2.929,3.693-8.296,4.314-11.989,1.385c-3.692-2.932-4.312-8.299-1.385-11.99
					c2.931-3.693,8.298-4.314,11.991-1.383C58.697,364.426,59.316,369.793,56.387,373.488z"/>
				<circle fill="#FFFFFF" cx="54.636" cy="385.834" r="8.534"/>
				<circle fill="#FFFFFF" cx="60.61" cy="378.303" r="8.535"/>
				<circle fill="#FFFFFF" cx="36.142" cy="369.957" r="8.535"/>
			</g>
			
				<line fill="none" stroke="#FFFFFF" stroke-width="2" stroke-linecap="round" stroke-miterlimit="10" x1="59.833" y1="354.957" x2="98.783" y2="324.678"/>
			
				<line fill="none" stroke="#FFFFFF" stroke-width="2" stroke-linecap="round" stroke-miterlimit="10" x1="64.56" y1="360.586" x2="98.565" y2="324.845"/>
			
				<line fill="none" stroke="#FFFFFF" stroke-width="2" stroke-linecap="round" stroke-miterlimit="10" x1="55.558" y1="349.008" x2="98.58" y2="324.865"/>
		</g>
		<g>
			<g>
				<circle fill="#FFFFFF" cx="21.803" cy="66.899" r="8.534"/>
				<circle fill="#FFFFFF" cx="28.807" cy="83.162" r="8.534"/>
				<path fill="#FFFFFF" d="M31.424,78.966c-6.269-2.213-9.552-9.088-7.343-15.353c2.214-6.267,9.088-9.553,15.355-7.339
					c6.266,2.212,9.553,9.086,7.339,15.354C44.562,77.894,37.688,81.179,31.424,78.966z"/>
				<circle fill="#FFFFFF" cx="12.037" cy="90.602" r="12.033"/>
				<path fill="#FFFFFF" d="M34.108,88.966c-4.442-1.571-6.775-6.445-5.204-10.89c1.569-4.445,6.445-6.773,10.888-5.205
					c4.447,1.569,6.776,6.445,5.208,10.889C43.429,88.205,38.554,90.535,34.108,88.966z"/>
				<path fill="#FFFFFF" d="M24.002,100.613c-4.445-1.569-6.776-6.443-5.207-10.888c1.572-4.445,6.446-6.775,10.889-5.207
					c4.445,1.571,6.776,6.445,5.205,10.891C33.323,99.853,28.448,102.182,24.002,100.613z"/>
				<circle fill="#FFFFFF" cx="11.757" cy="102.971" r="8.535"/>
				<circle fill="#FFFFFF" cx="20.821" cy="106.171" r="8.535"/>
				<circle fill="#FFFFFF" cx="20.761" cy="80.32" r="8.535"/>
			</g>
			
				<line fill="none" stroke="#FFFFFF" stroke-width="2" stroke-linecap="round" stroke-miterlimit="10" x1="42.646" y1="97.849" x2="83.941" y2="124.842"/>
			
				<line fill="none" stroke="#FFFFFF" stroke-width="2" stroke-linecap="round" stroke-miterlimit="10" x1="38.859" y1="104.149" x2="83.713" y2="124.691"/>
			
				<line fill="none" stroke="#FFFFFF" stroke-width="2" stroke-linecap="round" stroke-miterlimit="10" x1="46.883" y1="91.872" x2="83.699" y2="124.711"/>
		</g>
	</g>
	<g>
		<g>
			<g>
				<circle fill="#FFFFFF" cx="460.626" cy="85.346" r="8.534"/>
				<circle fill="#FFFFFF" cx="442.97" cy="86.684" r="8.534"/>
				<path fill="#FFFFFF" d="M446.087,90.522c4.13-5.209,11.699-6.079,16.906-1.954c5.206,4.131,6.079,11.699,1.949,16.906
					c-4.129,5.207-11.698,6.081-16.905,1.95C442.832,103.295,441.958,95.727,446.087,90.522z"/>
				<circle fill="#FFFFFF" cx="441.385" cy="68.405" r="12.032"/>
				<path fill="#FFFFFF" d="M435.758,89.81c2.93-3.69,8.297-4.312,11.989-1.382c3.694,2.929,4.311,8.297,1.384,11.988
					c-2.93,3.695-8.297,4.313-11.99,1.386C433.448,98.872,432.83,93.504,435.758,89.81z"/>
				<path fill="#FFFFFF" d="M428.028,76.467c2.93-3.693,8.297-4.313,11.99-1.385c3.691,2.932,4.312,8.299,1.385,11.99
					c-2.932,3.693-8.299,4.313-11.991,1.383C425.718,85.529,425.099,80.162,428.028,76.467z"/>
				<circle fill="#FFFFFF" cx="429.779" cy="64.121" r="8.535"/>
				<circle fill="#FFFFFF" cx="423.805" cy="71.652" r="8.535"/>
				<circle fill="#FFFFFF" cx="448.273" cy="79.998" r="8.535"/>
			</g>
			
				<line fill="none" stroke="#FFFFFF" stroke-width="2" stroke-linecap="round" stroke-miterlimit="10" x1="424.583" y1="94.997" x2="385.633" y2="125.277"/>
			
				<line fill="none" stroke="#FFFFFF" stroke-width="2" stroke-linecap="round" stroke-miterlimit="10" x1="419.856" y1="89.369" x2="385.85" y2="125.11"/>
			
				<line fill="none" stroke="#FFFFFF" stroke-width="2" stroke-linecap="round" stroke-miterlimit="10" x1="428.858" y1="100.947" x2="385.835" y2="125.09"/>
		</g>
		<g>
			<g>
				<path fill="#FFFFFF" d="M465.454,375.008c4.446,1.569,6.777,6.445,5.207,10.891c-1.57,4.444-6.445,6.773-10.891,5.204
					c-4.441-1.57-6.773-6.445-5.204-10.889C456.135,375.77,461.012,373.439,465.454,375.008z"/>
				<path fill="#FFFFFF" d="M458.45,358.746c4.444,1.569,6.774,6.445,5.204,10.889c-1.569,4.445-6.444,6.775-10.888,5.206
					c-4.445-1.57-6.775-6.444-5.203-10.89C449.129,359.507,454.006,357.177,458.45,358.746z"/>
				<path fill="#FFFFFF" d="M452.991,370.989c6.27,2.213,9.553,9.088,7.344,15.353c-2.215,6.267-9.088,9.553-15.355,7.339
					c-6.266-2.212-9.553-9.086-7.338-15.354C439.854,372.061,446.727,368.776,452.991,370.989z"/>
				<circle fill="#FFFFFF" cx="472.378" cy="359.352" r="12.033"/>
				<path fill="#FFFFFF" d="M450.307,360.989c4.442,1.571,6.775,6.445,5.204,10.89c-1.569,4.445-6.445,6.773-10.888,5.205
					c-4.447-1.569-6.776-6.445-5.207-10.889C440.987,361.75,445.862,359.42,450.307,360.989z"/>
				<path fill="#FFFFFF" d="M460.413,349.342c4.445,1.569,6.776,6.443,5.207,10.888c-1.572,4.445-6.446,6.775-10.889,5.207
					c-4.445-1.571-6.777-6.445-5.205-10.891C451.092,350.102,455.967,347.773,460.413,349.342z"/>
				<circle fill="#FFFFFF" cx="472.658" cy="346.984" r="8.535"/>
				<circle fill="#FFFFFF" cx="463.594" cy="343.784" r="8.535"/>
				<circle fill="#FFFFFF" cx="463.655" cy="369.635" r="8.534"/>
			</g>
			
				<line fill="none" stroke="#FFFFFF" stroke-width="2" stroke-linecap="round" stroke-miterlimit="10" x1="441.769" y1="352.106" x2="400.474" y2="325.113"/>
			
				<line fill="none" stroke="#FFFFFF" stroke-width="2" stroke-linecap="round" stroke-miterlimit="10" x1="445.556" y1="345.806" x2="400.703" y2="325.264"/>
			
				<line fill="none" stroke="#FFFFFF" stroke-width="2" stroke-linecap="round" stroke-miterlimit="10" x1="437.532" y1="358.082" x2="400.716" y2="325.244"/>
		</g>
	</g>
	<polygon fill="#FECC37" points="346.39,251.072 359.128,261.622 375.043,257.111 368.944,272.487 378.153,286.228 361.646,285.179 
		351.422,298.183 347.319,282.16 331.792,276.457 345.764,267.601 	"/>
</g>
</svg>
