<?xml version="1.0" encoding="utf-8"?>
<!-- Generator: Adobe Illustrator 15.0.2, SVG Export Plug-In . SVG Version: 6.00 Build 0)  -->
<!DOCTYPE svg PUBLIC "-//W3C//DTD SVG 1.1//EN" "http://www.w3.org/Graphics/SVG/1.1/DTD/svg11.dtd">
<svg version="1.1" id="Lager_1" xmlns="http://www.w3.org/2000/svg" xmlns:xlink="http://www.w3.org/1999/xlink" x="0px" y="0px"
	 width="794.172px" height="597.341px" viewBox="0 -209.662 794.172 597.341" enable-background="new 0 -209.662 794.172 597.341"
	 xml:space="preserve">
<g>
	<g>
		
			<rect x="0.583" y="92.229" fill="#EDE0CC" stroke="#EDE0CC" stroke-width="1.1654" stroke-miterlimit="10" width="793.007" height="294.867"/>
		
			<rect x="0.583" y="92.229" opacity="0.33" fill="#CABC9E" stroke="#CABC9E" stroke-width="0.8241" stroke-miterlimit="10" enable-background="new    " width="396.504" height="294.867"/>
	</g>
	
		<rect x="0.583" y="0.29" fill="#847365" stroke="#847365" stroke-width="0.5798" stroke-miterlimit="10" width="793.007" height="91.938"/>
	<g>
		<g>
			
				<rect x="307.637" y="286.033" fill="#847365" stroke="#847365" stroke-width="0.995" stroke-linecap="round" stroke-linejoin="round" stroke-miterlimit="10" width="17.188" height="21.991"/>
			
				<rect x="307.637" y="260.046" fill="#847365" stroke="#847365" stroke-width="0.995" stroke-linecap="round" stroke-linejoin="round" stroke-miterlimit="10" width="17.188" height="21.99"/>
			
				<rect x="329.003" y="260.046" fill="#847365" stroke="#847365" stroke-width="0.995" stroke-linecap="round" stroke-linejoin="round" stroke-miterlimit="10" width="17.188" height="21.99"/>
			
				<rect x="329.003" y="286.033" fill="#847365" stroke="#847365" stroke-width="0.995" stroke-linecap="round" stroke-linejoin="round" stroke-miterlimit="10" width="17.188" height="21.991"/>
		</g>
		<g>
			
				<rect x="307.637" y="196.272" fill="#847365" stroke="#847365" stroke-width="0.995" stroke-linecap="round" stroke-linejoin="round" stroke-miterlimit="10" width="17.188" height="21.988"/>
			
				<rect x="307.637" y="170.285" fill="#847365" stroke="#847365" stroke-width="0.995" stroke-linecap="round" stroke-linejoin="round" stroke-miterlimit="10" width="17.188" height="21.987"/>
			
				<rect x="329.003" y="170.285" fill="#847365" stroke="#847365" stroke-width="0.995" stroke-linecap="round" stroke-linejoin="round" stroke-miterlimit="10" width="17.188" height="21.987"/>
			
				<rect x="329.003" y="196.272" fill="#847365" stroke="#847365" stroke-width="0.995" stroke-linecap="round" stroke-linejoin="round" stroke-miterlimit="10" width="17.188" height="21.988"/>
		</g>
	</g>
	<g>
		<g>
			
				<rect x="237.464" y="286.033" fill="#847365" stroke="#847365" stroke-width="0.995" stroke-linecap="round" stroke-linejoin="round" stroke-miterlimit="10" width="17.188" height="21.991"/>
			
				<rect x="237.464" y="260.046" fill="#847365" stroke="#847365" stroke-width="0.995" stroke-linecap="round" stroke-linejoin="round" stroke-miterlimit="10" width="17.188" height="21.99"/>
			
				<rect x="258.829" y="260.046" fill="#847365" stroke="#847365" stroke-width="0.995" stroke-linecap="round" stroke-linejoin="round" stroke-miterlimit="10" width="17.188" height="21.99"/>
			
				<rect x="258.829" y="286.033" fill="#847365" stroke="#847365" stroke-width="0.995" stroke-linecap="round" stroke-linejoin="round" stroke-miterlimit="10" width="17.188" height="21.991"/>
		</g>
		<g>
			
				<rect x="237.464" y="196.272" fill="#847365" stroke="#847365" stroke-width="0.995" stroke-linecap="round" stroke-linejoin="round" stroke-miterlimit="10" width="17.188" height="21.988"/>
			
				<rect x="237.464" y="170.285" fill="#847365" stroke="#847365" stroke-width="0.995" stroke-linecap="round" stroke-linejoin="round" stroke-miterlimit="10" width="17.188" height="21.987"/>
			
				<rect x="258.829" y="170.285" fill="#847365" stroke="#847365" stroke-width="0.995" stroke-linecap="round" stroke-linejoin="round" stroke-miterlimit="10" width="17.188" height="21.987"/>
			
				<rect x="258.829" y="196.272" fill="#847365" stroke="#847365" stroke-width="0.995" stroke-linecap="round" stroke-linejoin="round" stroke-miterlimit="10" width="17.188" height="21.988"/>
		</g>
	</g>
	<g>
		<g>
			
				<rect x="167.292" y="286.033" fill="#847365" stroke="#847365" stroke-width="0.995" stroke-linecap="round" stroke-linejoin="round" stroke-miterlimit="10" width="17.188" height="21.991"/>
			
				<rect x="167.292" y="260.046" fill="#847365" stroke="#847365" stroke-width="0.995" stroke-linecap="round" stroke-linejoin="round" stroke-miterlimit="10" width="17.188" height="21.99"/>
			
				<rect x="188.657" y="260.046" fill="#847365" stroke="#847365" stroke-width="0.995" stroke-linecap="round" stroke-linejoin="round" stroke-miterlimit="10" width="17.188" height="21.99"/>
			
				<rect x="188.657" y="286.033" fill="#847365" stroke="#847365" stroke-width="0.995" stroke-linecap="round" stroke-linejoin="round" stroke-miterlimit="10" width="17.188" height="21.991"/>
		</g>
		<g>
			
				<rect x="167.292" y="196.272" fill="#847365" stroke="#847365" stroke-width="0.995" stroke-linecap="round" stroke-linejoin="round" stroke-miterlimit="10" width="17.188" height="21.988"/>
			
				<rect x="167.292" y="170.285" fill="#847365" stroke="#847365" stroke-width="0.995" stroke-linecap="round" stroke-linejoin="round" stroke-miterlimit="10" width="17.188" height="21.987"/>
			
				<rect x="188.657" y="170.285" fill="#847365" stroke="#847365" stroke-width="0.995" stroke-linecap="round" stroke-linejoin="round" stroke-miterlimit="10" width="17.188" height="21.987"/>
			
				<rect x="188.657" y="196.272" fill="#847365" stroke="#847365" stroke-width="0.995" stroke-linecap="round" stroke-linejoin="round" stroke-miterlimit="10" width="17.188" height="21.988"/>
		</g>
	</g>
	<g>
		<g>
			
				<rect x="97.118" y="286.033" fill="#847365" stroke="#847365" stroke-width="0.995" stroke-linecap="round" stroke-linejoin="round" stroke-miterlimit="10" width="17.188" height="21.991"/>
			
				<rect x="97.118" y="260.046" fill="#847365" stroke="#847365" stroke-width="0.995" stroke-linecap="round" stroke-linejoin="round" stroke-miterlimit="10" width="17.188" height="21.99"/>
			
				<rect x="118.483" y="260.046" fill="#847365" stroke="#847365" stroke-width="0.995" stroke-linecap="round" stroke-linejoin="round" stroke-miterlimit="10" width="17.187" height="21.99"/>
			
				<rect x="118.483" y="286.033" fill="#847365" stroke="#847365" stroke-width="0.995" stroke-linecap="round" stroke-linejoin="round" stroke-miterlimit="10" width="17.187" height="21.991"/>
		</g>
		<g>
			
				<rect x="97.118" y="196.272" fill="#847365" stroke="#847365" stroke-width="0.995" stroke-linecap="round" stroke-linejoin="round" stroke-miterlimit="10" width="17.188" height="21.988"/>
			
				<rect x="97.118" y="170.285" fill="#847365" stroke="#847365" stroke-width="0.995" stroke-linecap="round" stroke-linejoin="round" stroke-miterlimit="10" width="17.188" height="21.987"/>
			
				<rect x="118.483" y="170.285" fill="#847365" stroke="#847365" stroke-width="0.995" stroke-linecap="round" stroke-linejoin="round" stroke-miterlimit="10" width="17.187" height="21.987"/>
			
				<rect x="118.483" y="196.272" fill="#847365" stroke="#847365" stroke-width="0.995" stroke-linecap="round" stroke-linejoin="round" stroke-miterlimit="10" width="17.187" height="21.988"/>
		</g>
	</g>
	<g>
		<g>
			
				<rect x="26.944" y="286.033" fill="#847365" stroke="#847365" stroke-width="0.995" stroke-linecap="round" stroke-linejoin="round" stroke-miterlimit="10" width="17.188" height="21.991"/>
			
				<rect x="26.944" y="260.046" fill="#847365" stroke="#847365" stroke-width="0.995" stroke-linecap="round" stroke-linejoin="round" stroke-miterlimit="10" width="17.188" height="21.99"/>
			
				<rect x="48.309" y="260.046" fill="#847365" stroke="#847365" stroke-width="0.995" stroke-linecap="round" stroke-linejoin="round" stroke-miterlimit="10" width="17.186" height="21.99"/>
			
				<rect x="48.309" y="286.033" fill="#847365" stroke="#847365" stroke-width="0.995" stroke-linecap="round" stroke-linejoin="round" stroke-miterlimit="10" width="17.186" height="21.991"/>
		</g>
		<g>
			
				<rect x="26.944" y="196.272" fill="#847365" stroke="#847365" stroke-width="0.995" stroke-linecap="round" stroke-linejoin="round" stroke-miterlimit="10" width="17.188" height="21.988"/>
			
				<rect x="26.944" y="170.285" fill="#847365" stroke="#847365" stroke-width="0.995" stroke-linecap="round" stroke-linejoin="round" stroke-miterlimit="10" width="17.188" height="21.987"/>
			
				<rect x="48.309" y="170.285" fill="#847365" stroke="#847365" stroke-width="0.995" stroke-linecap="round" stroke-linejoin="round" stroke-miterlimit="10" width="17.186" height="21.987"/>
			
				<rect x="48.309" y="196.272" fill="#847365" stroke="#847365" stroke-width="0.995" stroke-linecap="round" stroke-linejoin="round" stroke-miterlimit="10" width="17.186" height="21.988"/>
		</g>
	</g>
	<g>
		<g>
			
				<rect x="377.811" y="286.033" fill="#847365" stroke="#847365" stroke-width="0.995" stroke-linecap="round" stroke-linejoin="round" stroke-miterlimit="10" width="17.188" height="21.991"/>
			
				<rect x="377.811" y="260.046" fill="#847365" stroke="#847365" stroke-width="0.995" stroke-linecap="round" stroke-linejoin="round" stroke-miterlimit="10" width="17.188" height="21.99"/>
		</g>
		<g>
			
				<rect x="377.811" y="196.272" fill="#847365" stroke="#847365" stroke-width="0.995" stroke-linecap="round" stroke-linejoin="round" stroke-miterlimit="10" width="17.188" height="21.988"/>
			
				<rect x="377.811" y="170.285" fill="#847365" stroke="#847365" stroke-width="0.995" stroke-linecap="round" stroke-linejoin="round" stroke-miterlimit="10" width="17.188" height="21.987"/>
		</g>
	</g>
	
		<rect x="0.583" y="0.29" fill="#776458" stroke="#776458" stroke-width="0.41" stroke-miterlimit="10" width="396.504" height="91.938"/>
	<g>
		<g>
			
				<rect x="469.348" y="170.285" fill="#A28878" stroke="#A28878" stroke-width="0.995" stroke-linecap="round" stroke-linejoin="round" stroke-miterlimit="10" width="17.188" height="21.991"/>
			
				<rect x="469.348" y="196.274" fill="#A28878" stroke="#A28878" stroke-width="0.995" stroke-linecap="round" stroke-linejoin="round" stroke-miterlimit="10" width="17.188" height="21.986"/>
			
				<rect x="447.985" y="196.274" fill="#A28878" stroke="#A28878" stroke-width="0.995" stroke-linecap="round" stroke-linejoin="round" stroke-miterlimit="10" width="17.188" height="21.986"/>
			
				<rect x="447.985" y="170.285" fill="#A28878" stroke="#A28878" stroke-width="0.995" stroke-linecap="round" stroke-linejoin="round" stroke-miterlimit="10" width="17.188" height="21.991"/>
		</g>
		<g>
			
				<rect x="469.348" y="260.046" fill="#A28878" stroke="#A28878" stroke-width="0.995" stroke-linecap="round" stroke-linejoin="round" stroke-miterlimit="10" width="17.188" height="21.992"/>
			
				<rect x="469.348" y="286.035" fill="#A28878" stroke="#A28878" stroke-width="0.995" stroke-linecap="round" stroke-linejoin="round" stroke-miterlimit="10" width="17.188" height="21.989"/>
			
				<rect x="447.985" y="286.035" fill="#A28878" stroke="#A28878" stroke-width="0.995" stroke-linecap="round" stroke-linejoin="round" stroke-miterlimit="10" width="17.188" height="21.989"/>
			
				<rect x="447.985" y="260.046" fill="#A28878" stroke="#A28878" stroke-width="0.995" stroke-linecap="round" stroke-linejoin="round" stroke-miterlimit="10" width="17.188" height="21.992"/>
		</g>
	</g>
	<g>
		<g>
			
				<rect x="539.521" y="170.285" fill="#A28878" stroke="#A28878" stroke-width="0.995" stroke-linecap="round" stroke-linejoin="round" stroke-miterlimit="10" width="17.188" height="21.991"/>
			
				<rect x="539.521" y="196.274" fill="#A28878" stroke="#A28878" stroke-width="0.995" stroke-linecap="round" stroke-linejoin="round" stroke-miterlimit="10" width="17.188" height="21.986"/>
			
				<rect x="518.159" y="196.274" fill="#A28878" stroke="#A28878" stroke-width="0.995" stroke-linecap="round" stroke-linejoin="round" stroke-miterlimit="10" width="17.188" height="21.986"/>
			
				<rect x="518.159" y="170.285" fill="#A28878" stroke="#A28878" stroke-width="0.995" stroke-linecap="round" stroke-linejoin="round" stroke-miterlimit="10" width="17.188" height="21.991"/>
		</g>
		<g>
			
				<rect x="539.521" y="260.046" fill="#A28878" stroke="#A28878" stroke-width="0.995" stroke-linecap="round" stroke-linejoin="round" stroke-miterlimit="10" width="17.188" height="21.992"/>
			
				<rect x="539.521" y="286.035" fill="#A28878" stroke="#A28878" stroke-width="0.995" stroke-linecap="round" stroke-linejoin="round" stroke-miterlimit="10" width="17.188" height="21.989"/>
			
				<rect x="518.159" y="286.035" fill="#A28878" stroke="#A28878" stroke-width="0.995" stroke-linecap="round" stroke-linejoin="round" stroke-miterlimit="10" width="17.188" height="21.989"/>
			
				<rect x="518.159" y="260.046" fill="#A28878" stroke="#A28878" stroke-width="0.995" stroke-linecap="round" stroke-linejoin="round" stroke-miterlimit="10" width="17.188" height="21.992"/>
		</g>
	</g>
	<g>
		<g>
			
				<rect x="609.694" y="170.285" fill="#A28878" stroke="#A28878" stroke-width="0.995" stroke-linecap="round" stroke-linejoin="round" stroke-miterlimit="10" width="17.188" height="21.991"/>
			
				<rect x="609.694" y="196.274" fill="#A28878" stroke="#A28878" stroke-width="0.995" stroke-linecap="round" stroke-linejoin="round" stroke-miterlimit="10" width="17.188" height="21.986"/>
			
				<rect x="588.331" y="196.274" fill="#A28878" stroke="#A28878" stroke-width="0.995" stroke-linecap="round" stroke-linejoin="round" stroke-miterlimit="10" width="17.188" height="21.986"/>
			
				<rect x="588.331" y="170.285" fill="#A28878" stroke="#A28878" stroke-width="0.995" stroke-linecap="round" stroke-linejoin="round" stroke-miterlimit="10" width="17.188" height="21.991"/>
		</g>
		<g>
			
				<rect x="609.694" y="260.046" fill="#A28878" stroke="#A28878" stroke-width="0.995" stroke-linecap="round" stroke-linejoin="round" stroke-miterlimit="10" width="17.188" height="21.992"/>
			
				<rect x="609.694" y="286.035" fill="#A28878" stroke="#A28878" stroke-width="0.995" stroke-linecap="round" stroke-linejoin="round" stroke-miterlimit="10" width="17.188" height="21.989"/>
			
				<rect x="588.331" y="286.035" fill="#A28878" stroke="#A28878" stroke-width="0.995" stroke-linecap="round" stroke-linejoin="round" stroke-miterlimit="10" width="17.188" height="21.989"/>
			
				<rect x="588.331" y="260.046" fill="#A28878" stroke="#A28878" stroke-width="0.995" stroke-linecap="round" stroke-linejoin="round" stroke-miterlimit="10" width="17.188" height="21.992"/>
		</g>
	</g>
	<g>
		<g>
			
				<rect x="750.042" y="170.285" fill="#A28878" stroke="#A28878" stroke-width="0.995" stroke-linecap="round" stroke-linejoin="round" stroke-miterlimit="10" width="17.188" height="21.991"/>
			
				<rect x="750.042" y="196.274" fill="#A28878" stroke="#A28878" stroke-width="0.995" stroke-linecap="round" stroke-linejoin="round" stroke-miterlimit="10" width="17.188" height="21.988"/>
			
				<rect x="728.678" y="196.274" fill="#A28878" stroke="#A28878" stroke-width="0.995" stroke-linecap="round" stroke-linejoin="round" stroke-miterlimit="10" width="17.186" height="21.988"/>
			
				<rect x="728.678" y="170.285" fill="#A28878" stroke="#A28878" stroke-width="0.995" stroke-linecap="round" stroke-linejoin="round" stroke-miterlimit="10" width="17.186" height="21.991"/>
		</g>
		<g>
			
				<rect x="750.042" y="260.048" fill="#A28878" stroke="#A28878" stroke-width="0.995" stroke-linecap="round" stroke-linejoin="round" stroke-miterlimit="10" width="17.188" height="21.99"/>
			
				<rect x="750.042" y="286.037" fill="#A28878" stroke="#A28878" stroke-width="0.995" stroke-linecap="round" stroke-linejoin="round" stroke-miterlimit="10" width="17.188" height="21.987"/>
			
				<rect x="728.678" y="286.037" fill="#A28878" stroke="#A28878" stroke-width="0.995" stroke-linecap="round" stroke-linejoin="round" stroke-miterlimit="10" width="17.186" height="21.987"/>
			
				<rect x="728.678" y="260.048" fill="#A28878" stroke="#A28878" stroke-width="0.995" stroke-linecap="round" stroke-linejoin="round" stroke-miterlimit="10" width="17.186" height="21.99"/>
		</g>
	</g>
	<g>
		<g>
			
				<rect x="399.175" y="170.285" fill="#A28878" stroke="#A28878" stroke-width="0.995" stroke-linecap="round" stroke-linejoin="round" stroke-miterlimit="10" width="17.188" height="21.991"/>
			
				<rect x="399.175" y="196.274" fill="#A28878" stroke="#A28878" stroke-width="0.995" stroke-linecap="round" stroke-linejoin="round" stroke-miterlimit="10" width="17.188" height="21.986"/>
		</g>
		<g>
			
				<rect x="399.175" y="260.046" fill="#A28878" stroke="#A28878" stroke-width="0.995" stroke-linecap="round" stroke-linejoin="round" stroke-miterlimit="10" width="17.188" height="21.992"/>
			
				<rect x="399.175" y="286.035" fill="#A28878" stroke="#A28878" stroke-width="0.995" stroke-linecap="round" stroke-linejoin="round" stroke-miterlimit="10" width="17.188" height="21.989"/>
		</g>
	</g>
	<g>
		<g>
			<path fill="#786854" d="M410.28,114.365c-0.417,0-0.753,0.153-0.997,0.454c-0.231,0.289-0.357,0.723-0.386,1.336v2.554
				c-0.368,0.671-0.796,1.321-1.27,1.933c-0.481,0.621-0.989,1.206-1.509,1.739c-0.516,0.527-1.031,1.014-1.531,1.447
				c-0.496,0.43-0.946,0.8-1.339,1.102c-0.403,0.307-0.714,0.534-0.952,0.695c-0.395,0.268-0.399,0.272-0.387,0.268
				c-0.275,0.184-0.422,0.446-0.422,0.757c0,0.268,0.098,0.49,0.29,0.659c0.185,0.162,0.392,0.244,0.612,0.244
				c0.146,0,0.299-0.044,0.491-0.152c0.048-0.037,0.282-0.198,0.702-0.484c0.428-0.291,0.961-0.699,1.585-1.212
				c0.62-0.508,1.302-1.127,2.028-1.84c0.594-0.585,1.164-1.229,1.7-1.919c-0.001,1.064-0.004,2.205-0.009,3.42l-0.019,4.359
				c-0.006,1.461-0.009,2.872-0.009,4.233c0,1.361-0.004,2.569-0.01,3.63c-0.006,1.059-0.009,1.913-0.009,2.56v1.007
				c0,0.249,0.084,0.463,0.249,0.638c0.17,0.175,0.383,0.265,0.635,0.265c0.25,0,0.465-0.088,0.641-0.262
				c0.174-0.175,0.262-0.39,0.262-0.64v-0.721c0-0.456,0.003-1.07,0.009-1.846c0.006-0.777,0.009-1.676,0.009-2.7
				c0-1.021,0.004-2.115,0.01-3.278l0.019-3.594c0.006-1.232,0.009-2.439,0.009-3.622c0-1.182,0.004-2.312,0.01-3.39
				c0.006-1.06,0.008-2.008,0.009-2.848c0.216-0.458,0.433-0.936,0.647-1.435c0.232-0.531,0.351-1.071,0.351-1.604
				c0-0.46-0.128-0.867-0.381-1.208C411.052,114.548,410.703,114.365,410.28,114.365z"/>
			<path fill="#786854" d="M437.598,119.406c-0.581-0.862-1.281-1.64-2.079-2.313c-0.796-0.671-1.68-1.25-2.627-1.718
				c-0.947-0.467-1.96-0.826-3.009-1.068c-1.048-0.242-2.13-0.365-3.214-0.365c-1.641,0-3.234,0.252-4.737,0.749
				c-1.504,0.497-2.848,1.194-3.995,2.073c-1.149,0.88-2.078,1.949-2.76,3.175c-0.685,1.23-1.032,2.587-1.032,4.033
				c0,1.467,0.287,2.766,0.854,3.861c0.565,1.091,1.326,2.015,2.263,2.745c0.932,0.726,2.014,1.278,3.216,1.641
				c2.544,0.769,5.382,0.702,7.823-0.075c1.295-0.41,2.479-0.981,3.518-1.698c1.043-0.718,1.933-1.585,2.645-2.579
				c0.716-0.997,1.205-2.095,1.457-3.266c0.016-0.08,0.022-0.134,0.022-0.204c0-0.234-0.083-0.444-0.247-0.624
				c-0.168-0.185-0.389-0.278-0.655-0.278c-0.204,0-0.388,0.061-0.544,0.179c-0.164,0.122-0.27,0.288-0.314,0.489
				c-0.252,0.968-0.686,1.877-1.289,2.704c-0.605,0.827-1.357,1.555-2.234,2.162c-0.881,0.609-1.885,1.091-2.985,1.434
				c-1.666,0.518-3.54,0.675-5.46,0.354c-0.648-0.108-1.285-0.282-1.892-0.517c-0.604-0.233-1.181-0.54-1.714-0.91
				c-0.529-0.369-0.998-0.817-1.396-1.334c-0.396-0.517-0.713-1.119-0.939-1.789c-0.226-0.674-0.34-1.452-0.34-2.312
				c0-0.785,0.135-1.541,0.402-2.248c0.269-0.711,0.645-1.38,1.117-1.99c0.475-0.612,1.051-1.168,1.715-1.651
				c0.667-0.487,1.406-0.909,2.197-1.253s1.645-0.614,2.539-0.8c0.894-0.188,1.824-0.283,2.768-0.283
				c0.675,0,1.424,0.074,2.228,0.219c0.802,0.144,1.622,0.382,2.438,0.709c0.816,0.327,1.618,0.751,2.383,1.264
				c0.762,0.51,1.443,1.137,2.025,1.862c0.581,0.726,1.056,1.577,1.409,2.532c0.354,0.951,0.533,2.049,0.533,3.265
				c0,1.559-0.245,3.095-0.729,4.565c-0.484,1.471-1.164,2.853-2.018,4.108c-0.854,1.254-1.88,2.387-3.049,3.367
				c-1.169,0.981-2.449,1.779-3.805,2.372c-0.812,0.352-1.595,0.628-2.326,0.822c-0.735,0.193-1.389,0.338-1.941,0.43
				c-0.543,0.09-0.99,0.145-1.326,0.164l-0.177,0.01c-0.21,0.011-0.323,0.018-0.339,0.018c-0.249,0-0.463,0.084-0.637,0.249
				c-0.176,0.168-0.266,0.382-0.266,0.635c0,0.249,0.087,0.467,0.26,0.647c0.164,0.17,0.365,0.256,0.598,0.256l0.045-0.001
				c0.036,0,0.227-0.009,0.569-0.025l0.051-0.002c0.384-0.02,0.885-0.08,1.491-0.178c0.619-0.1,1.332-0.257,2.115-0.466
				c0.795-0.212,1.65-0.514,2.541-0.897c1.586-0.68,3.058-1.599,4.375-2.729c1.312-1.126,2.452-2.411,3.391-3.819
				c0.936-1.407,1.67-2.94,2.185-4.559c0.515-1.617,0.776-3.282,0.776-4.947c0-1.186-0.168-2.31-0.499-3.34
				C438.642,121.229,438.179,120.27,437.598,119.406z M421.931,143.014L421.931,143.014v0.008V143.014z"/>
			<path fill="#786854" d="M460.424,127.728c-1.073-0.68-2.338-1.187-3.76-1.505c-1.408-0.315-2.915-0.476-4.478-0.476
				c-0.849,0-1.657,0.038-2.403,0.111c-0.724,0.072-1.412,0.166-2.048,0.28c-0.622,0.111-1.183,0.237-1.663,0.375
				c-0.359,0.101-0.676,0.194-0.953,0.282l0.458-10.097c0.767,0.044,1.476,0.074,2.161,0.089c2.396,0.061,4.664,0.026,6.611-0.074
				c1.34-0.067,2.512-0.142,3.479-0.221c0.979-0.08,1.762-0.155,2.327-0.223c0.536-0.064,0.821-0.098,0.871-0.102
				c0.238-0.032,0.432-0.141,0.574-0.324c0.139-0.176,0.209-0.376,0.209-0.595c0-0.257-0.095-0.47-0.28-0.631
				c-0.178-0.154-0.381-0.233-0.604-0.233c-0.023,0-0.094,0-0.93,0.103c-0.562,0.068-1.323,0.14-2.264,0.211
				c-1.02,0.078-2.164,0.149-3.404,0.211c-1.289,0.067-2.737,0.101-4.304,0.101c-0.417,0-0.892-0.008-1.425-0.027l-1.596-0.056
				c-0.5-0.019-0.953-0.037-1.358-0.055c-0.417-0.019-0.706-0.029-0.868-0.029c-0.258,0-0.479,0.079-0.657,0.234
				c-0.183,0.158-0.284,0.366-0.3,0.623l-0.555,12.357c-0.016,0.249,0.057,0.468,0.216,0.652c0.251,0.287,0.661,0.36,1.099,0.193
				c0.137-0.052,0.258-0.104,0.359-0.156c0.189-0.094,0.461-0.21,0.805-0.344c0.346-0.132,0.803-0.263,1.359-0.388
				c0.568-0.128,1.275-0.239,2.102-0.329c0.83-0.091,1.846-0.137,3.019-0.137c1.532,0,2.933,0.141,4.159,0.418
				c1.221,0.277,2.275,0.7,3.133,1.258c0.848,0.552,1.51,1.247,1.966,2.063c0.455,0.817,0.686,1.792,0.686,2.896
				c0,0.954-0.159,1.817-0.474,2.565c-0.314,0.748-0.76,1.41-1.323,1.968c-0.568,0.562-1.245,1.047-2.012,1.442
				c-0.769,0.397-1.62,0.725-2.529,0.974c-0.909,0.248-1.878,0.429-2.879,0.539c-1.007,0.109-2.028,0.165-3.036,0.165
				c-1.197,0-2.285-0.113-3.234-0.336c-0.953-0.224-1.791-0.485-2.49-0.775c-0.703-0.292-1.281-0.581-1.715-0.862
				c-0.451-0.29-0.775-0.497-0.964-0.614c-0.095-0.067-0.185-0.122-0.267-0.163c-0.104-0.051-0.22-0.077-0.347-0.077
				c-0.256,0-0.474,0.097-0.646,0.288c-0.172,0.185-0.258,0.398-0.258,0.633c0,0.125,0.02,0.236,0.061,0.338
				c0.042,0.112,0.115,0.212,0.219,0.298c0.326,0.264,0.789,0.572,1.373,0.914c0.582,0.341,1.295,0.669,2.119,0.976
				c0.814,0.303,1.757,0.563,2.801,0.775c1.039,0.211,2.195,0.318,3.439,0.318c1.151,0,2.307-0.072,3.434-0.214
				c1.131-0.142,2.225-0.375,3.25-0.691c1.023-0.316,1.99-0.723,2.873-1.208c0.891-0.489,1.669-1.09,2.313-1.785
				c0.648-0.699,1.165-1.508,1.536-2.406c0.371-0.901,0.56-1.931,0.56-3.061c0-1.471-0.323-2.758-0.961-3.825
				C462.375,129.299,461.504,128.413,460.424,127.728z"/>
			<path fill="#786854" d="M492.752,124.74c-0.324-1.202-0.787-2.336-1.377-3.372c-0.589-1.037-1.308-1.999-2.137-2.858
				c-0.828-0.858-1.755-1.603-2.756-2.212c-1.001-0.61-2.096-1.09-3.254-1.425c-2.312-0.675-4.933-0.675-7.244,0
				c-1.158,0.335-2.253,0.815-3.254,1.425c-1.001,0.609-1.928,1.354-2.756,2.212c-0.829,0.86-1.548,1.822-2.137,2.858
				c-0.59,1.036-1.053,2.17-1.377,3.372c-0.323,1.2-0.487,2.464-0.487,3.756c0,1.293,0.164,2.557,0.487,3.757
				c0.323,1.199,0.786,2.333,1.377,3.373c0.59,1.036,1.309,1.998,2.137,2.857c0.826,0.859,1.754,1.603,2.756,2.213
				s2.097,1.089,3.254,1.424c1.157,0.336,2.375,0.507,3.622,0.507s2.465-0.171,3.622-0.507c1.157-0.335,2.252-0.814,3.254-1.424
				s1.93-1.354,2.756-2.213c0.828-0.859,1.547-1.821,2.137-2.857c0.591-1.039,1.054-2.174,1.377-3.373
				c0.323-1.2,0.487-2.464,0.487-3.757C493.239,127.204,493.075,125.941,492.752,124.74z M476.467,140.399
				c-1.002-0.295-1.953-0.714-2.826-1.245c-0.872-0.529-1.68-1.177-2.398-1.927s-1.344-1.59-1.855-2.5
				c-0.512-0.912-0.916-1.906-1.201-2.957c-0.282-1.049-0.426-2.151-0.426-3.274c0-1.123,0.144-2.224,0.426-3.273
				c0.285-1.053,0.689-2.048,1.201-2.957c0.514-0.911,1.137-1.752,1.855-2.5c0.718-0.748,1.525-1.396,2.398-1.926
				s1.824-0.949,2.826-1.245c0.998-0.294,2.055-0.444,3.14-0.444c1.086,0,2.146,0.149,3.149,0.444
				c1.008,0.295,1.958,0.714,2.825,1.244c0.87,0.532,1.678,1.181,2.399,1.927c0.723,0.746,1.346,1.587,1.854,2.499
				c0.506,0.909,0.907,1.904,1.193,2.958c0.282,1.049,0.426,2.15,0.426,3.273c0,1.134-0.144,2.239-0.426,3.283
				c-0.285,1.045-0.687,2.037-1.193,2.949c-0.507,0.911-1.131,1.751-1.854,2.498c-0.723,0.748-1.53,1.396-2.399,1.928
				c-0.867,0.53-1.817,0.949-2.825,1.244C480.748,140.987,478.463,140.987,476.467,140.399z"/>
		</g>
		<path fill="#786854" d="M295.959,128.143c-0.173-0.524-0.736-0.809-1.262-0.638c-1.968,0.646-2.865,0.94-6.854-0.558
			c-4.701-1.76-8.135,1.128-8.279,1.252c-0.417,0.359-0.464,0.985-0.108,1.405s0.987,0.47,1.408,0.115
			c0.11-0.092,2.711-2.232,6.277-0.9c2.355,0.885,3.84,1.217,5.071,1.216c1.094,0,1.986-0.262,3.109-0.631
			C295.845,129.233,296.131,128.667,295.959,128.143z"/>
		<path fill="#786854" d="M519.307,128.143c-0.173-0.525-0.738-0.809-1.263-0.638c-1.965,0.647-2.862,0.942-6.853-0.558
			c-4.698-1.759-8.136,1.128-8.28,1.252c-0.418,0.36-0.466,0.991-0.105,1.41c0.359,0.418,0.99,0.467,1.41,0.106
			c0.025-0.022,2.671-2.244,6.273-0.896c2.355,0.885,3.84,1.217,5.07,1.217c1.094,0,1.986-0.263,3.109-0.631
			C519.194,129.233,519.48,128.667,519.307,128.143z"/>
		<path fill="#786854" d="M348.022,129.832c-0.189-0.16-0.391-0.242-0.6-0.242c-0.027,0-0.089,0-1.37,0.14
			c-0.851,0.093-2.174,0.252-3.835,0.462c-0.018-0.432-0.027-0.858-0.027-1.271v-1.497c0-1.354,0.028-2.703,0.083-4.01
			c0.056-1.325,0.124-2.548,0.203-3.634c0.08-1.097,0.16-2.036,0.239-2.792c0.074-0.702,0.13-1.184,0.167-1.434
			c0.104-0.131,0.212-0.288,0.33-0.477c0.144-0.228,0.217-0.45,0.217-0.661c0-0.292-0.11-0.539-0.326-0.731
			c-0.211-0.187-0.436-0.282-0.669-0.282c-0.404,0-0.714,0.181-0.897,0.522c-0.151,0.285-0.267,0.599-0.343,0.933
			c-0.243,0.401-0.552,0.906-0.925,1.513c-0.381,0.622-0.812,1.311-1.292,2.068c-0.48,0.757-0.994,1.563-1.542,2.419
			c-0.547,0.856-1.107,1.721-1.68,2.594c-0.572,0.874-1.148,1.736-1.725,2.584c-0.579,0.849-1.133,1.649-1.662,2.4
			c-0.324,0.46-0.713,0.979-1.158,1.542c-0.436,0.555-0.944,1.153-1.511,1.78c-1.202,0.12-2.354,0.21-3.424,0.269
			c-2.954,0.167-5.629,0.106-7.759-0.182c-1.336-0.183-2.473-0.456-3.381-0.81c-0.897-0.352-1.587-0.788-2.05-1.298
			c-0.457-0.501-0.678-1.064-0.678-1.723c0-0.375,0.08-0.727,0.238-1.047c0.167-0.339,0.352-0.63,0.548-0.866
			c0.201-0.242,0.39-0.435,0.562-0.572c0.191-0.154,0.302-0.245,0.296-0.246c0.13-0.081,0.23-0.194,0.296-0.334
			c0.062-0.131,0.094-0.269,0.094-0.408c0-0.271-0.099-0.49-0.295-0.653c-0.408-0.341-0.9-0.322-1.529,0.194
			c-0.321,0.263-0.631,0.605-0.923,1.018c-0.289,0.409-0.542,0.873-0.752,1.379c-0.212,0.514-0.32,1.037-0.32,1.555
			c0,1.129,0.357,2.089,1.06,2.852c0.69,0.746,1.625,1.351,2.782,1.797c1.146,0.441,2.486,0.759,3.982,0.944
			c2.229,0.278,4.688,0.333,7.295,0.224c0.665-0.028,1.357-0.07,2.063-0.124c-0.773,0.745-1.631,1.492-2.557,2.224
			c-1.077,0.851-2.254,1.619-3.499,2.281c-1.246,0.662-2.585,1.207-3.981,1.62c-1.393,0.411-2.873,0.62-4.396,0.62
			c-1.111,0-2.083-0.103-2.888-0.307c-0.812-0.207-1.487-0.438-2.004-0.689c-0.516-0.248-0.909-0.484-1.168-0.703
			c-0.264-0.221-0.408-0.345-0.424-0.359c-0.33-0.361-0.915-0.395-1.287-0.026c-0.173,0.174-0.262,0.389-0.262,0.641
			s0.082,0.46,0.243,0.622c0.025,0.025,0.198,0.177,0.52,0.455c0.326,0.28,0.812,0.584,1.444,0.904
			c0.631,0.318,1.439,0.608,2.404,0.864c0.966,0.256,2.124,0.386,3.442,0.386c2.95,0,5.931-0.757,8.858-2.249
			c2.902-1.479,5.704-3.671,8.329-6.519c1.059-0.111,2.098-0.239,3.09-0.381c1.478-0.197,2.792-0.369,3.944-0.518
			c1.063-0.135,2.029-0.262,2.898-0.377c0.048,0.958,0.109,1.896,0.184,2.792c0.079,0.957,0.186,1.872,0.316,2.721
			c0.129,0.839,0.286,1.614,0.466,2.303c0.182,0.695,0.395,1.284,0.634,1.748c0.079,0.157,0.188,0.278,0.327,0.36
			c0.136,0.08,0.292,0.12,0.461,0.12c0.265,0,0.485-0.089,0.654-0.266c0.165-0.173,0.249-0.381,0.249-0.618
			c0-0.158-0.034-0.297-0.097-0.406c-0.201-0.391-0.382-0.905-0.538-1.527c-0.158-0.631-0.296-1.352-0.412-2.143
			c-0.116-0.793-0.215-1.663-0.294-2.584c-0.075-0.872-0.131-1.785-0.167-2.717c0.699-0.088,1.316-0.164,1.849-0.226l1.515-0.176
			c0.433-0.05,0.796-0.093,1.092-0.13c0.294-0.036,0.553-0.066,0.777-0.092c0.232-0.03,0.425-0.129,0.576-0.295
			c0.151-0.167,0.228-0.364,0.228-0.587C348.324,130.226,348.219,129.997,348.022,129.832z M340.496,122.401
			c-0.062,1.586-0.093,3.265-0.093,4.988c0,0.542,0.003,1.079,0.009,1.61c0.006,0.47,0.014,0.94,0.024,1.41
			c-0.915,0.117-1.931,0.248-3.046,0.393c-1.188,0.154-2.51,0.33-3.963,0.527c-0.284,0.037-0.559,0.073-0.824,0.11
			c-0.106,0.015-0.213,0.029-0.32,0.042c0.208-0.261,0.417-0.524,0.625-0.792c0.311-0.398,0.617-0.812,0.911-1.228
			c0.591-0.839,1.214-1.739,1.868-2.701c0.653-0.962,1.301-1.932,1.942-2.913c0.64-0.979,1.26-1.941,1.858-2.884l1.196-1.886
			C340.607,120.061,340.544,121.175,340.496,122.401z"/>
		<path fill="#786854" d="M394.405,135.066c-0.313-0.285-0.702-0.314-1.054-0.119c-0.16,0.088-0.266,0.185-0.324,0.3
			c-0.191,0.396-0.394,0.747-0.603,1.044c-0.201,0.288-0.432,0.527-0.685,0.711c-0.252,0.184-0.535,0.323-0.845,0.414
			c-0.31,0.093-0.669,0.14-1.069,0.14h-0.219c0.07-0.365,0.105-0.719,0.105-1.057c0-0.761-0.07-1.43-0.209-1.989
			c-0.141-0.561-0.334-1.029-0.573-1.392c-0.245-0.371-0.534-0.648-0.856-0.823c-0.324-0.175-0.674-0.265-1.038-0.265
			c-0.616,0-1.121,0.25-1.499,0.745c-0.364,0.478-0.549,1.096-0.549,1.839c0,0.91,0.248,1.743,0.736,2.476
			c0.445,0.67,1.014,1.206,1.689,1.596c-0.225,0.399-0.529,0.736-0.91,1.003c-0.422,0.3-0.971,0.452-1.629,0.452
			c-0.365,0-0.699-0.065-0.991-0.195c-0.294-0.13-0.552-0.312-0.766-0.543c-0.214-0.232-0.381-0.513-0.494-0.837
			c-0.114-0.328-0.173-0.688-0.173-1.069c0-0.432,0.059-0.827,0.174-1.175c0.116-0.348,0.266-0.654,0.445-0.908
			c0.179-0.253,0.373-0.467,0.58-0.634c0.211-0.168,0.41-0.301,0.594-0.393c0.211-0.106,0.388-0.216,0.525-0.328
			c0.123-0.099,0.269-0.289,0.269-0.627c0-0.235-0.071-0.431-0.212-0.58c-0.143-0.152-0.35-0.229-0.617-0.229
			c-0.219,0-0.521,0.101-0.923,0.309c-0.388,0.2-0.778,0.505-1.161,0.908c-0.275,0.289-0.538,0.661-0.803,1.136
			c-0.14,0.092-0.249,0.222-0.328,0.393c-0.129,0.308-0.334,0.725-0.609,1.241c-0.274,0.51-0.598,1.014-0.963,1.498
			c-0.365,0.483-0.768,0.907-1.196,1.258c-0.405,0.332-0.823,0.5-1.24,0.5c-0.214,0-0.386-0.046-0.511-0.137
			c-0.132-0.096-0.23-0.226-0.303-0.397c-0.078-0.185-0.133-0.405-0.162-0.657c-0.029-0.256-0.044-0.534-0.044-0.827
			c0-0.23,0.009-0.474,0.026-0.734l0.057-0.785c0.018-0.258,0.036-0.5,0.055-0.729c0.02-0.234,0.028-0.434,0.028-0.598
			c0-0.725-0.167-1.346-0.495-1.846c-0.345-0.526-0.88-0.792-1.59-0.792c-0.352,0-0.727,0.104-1.119,0.31
			c-0.385,0.203-0.77,0.534-1.143,0.985c-0.361,0.447-0.71,0.925-1.037,1.419c-0.33,0.499-0.646,1.002-0.938,1.496
			c-0.298,0.502-0.58,1.002-0.837,1.486c-0.072,0.136-0.143,0.27-0.21,0.4c0.007-0.091,0.015-0.184,0.022-0.281
			c0.043-0.529,0.09-1.061,0.139-1.596c0.049-0.539,0.091-1.042,0.12-1.511c0.031-0.461,0.047-0.814,0.047-1.048
			c0-0.31-0.029-0.615-0.087-0.908c-0.06-0.3-0.151-0.578-0.276-0.826c-0.131-0.263-0.311-0.477-0.533-0.637
			c-0.23-0.166-0.513-0.25-0.837-0.25c-0.542,0-1.083,0.34-1.608,1.01c-0.5,0.641-1.02,1.607-1.588,2.955
			c-0.135,0.319-0.34,0.737-0.611,1.241c-0.274,0.51-0.598,1.014-0.963,1.498c-0.365,0.483-0.767,0.907-1.196,1.258
			c-0.405,0.332-0.823,0.5-1.24,0.5c-0.214,0-0.385-0.046-0.51-0.137c-0.131-0.096-0.231-0.226-0.304-0.397
			c-0.078-0.185-0.132-0.406-0.16-0.657c-0.03-0.262-0.045-0.54-0.045-0.827c0-0.23,0.009-0.474,0.028-0.734l0.055-0.785
			c0.018-0.258,0.037-0.5,0.055-0.729c0.019-0.234,0.028-0.434,0.028-0.598c0-0.726-0.167-1.347-0.494-1.846
			c-0.346-0.526-0.881-0.792-1.59-0.792c-0.351,0-0.727,0.104-1.12,0.31c-0.385,0.203-0.769,0.533-1.143,0.985
			c-0.361,0.448-0.709,0.925-1.036,1.419c-0.32,0.481-0.636,0.984-0.939,1.496c-0.292,0.492-0.573,0.991-0.836,1.486
			c-0.073,0.137-0.143,0.271-0.211,0.401c0.008-0.091,0.016-0.185,0.023-0.281c0.043-0.528,0.089-1.061,0.139-1.596
			c0.049-0.539,0.089-1.042,0.12-1.511c0.032-0.478,0.047-0.82,0.047-1.048c0-0.304-0.029-0.609-0.087-0.908
			c-0.059-0.3-0.152-0.578-0.276-0.826c-0.131-0.262-0.311-0.477-0.533-0.636c-0.231-0.167-0.513-0.251-0.838-0.251
			c-0.542,0-1.083,0.34-1.608,1.01c-0.495,0.634-1.029,1.629-1.592,2.965c-0.045,0.125-0.068,0.239-0.068,0.346
			c0,0.233,0.079,0.442,0.235,0.622c0.266,0.306,0.746,0.38,1.141,0.142c0.158-0.096,0.278-0.231,0.358-0.409
			c0.438-1.057,0.798-1.8,1.072-2.21c0.159-0.238,0.271-0.385,0.347-0.475c0.01,0.053,0.019,0.12,0.026,0.206
			c0.024,0.28,0.036,0.573,0.036,0.87c0,0.23-0.012,0.515-0.037,0.854c-0.024,0.343-0.055,0.715-0.092,1.114l-0.11,1.21
			c-0.037,0.406-0.074,0.783-0.111,1.133c-0.037,0.352-0.068,0.656-0.092,0.907c-0.026,0.262-0.038,0.438-0.038,0.528
			c0,0.448,0.129,0.803,0.382,1.056c0.254,0.254,0.591,0.383,1.001,0.383c0.299,0,0.594-0.104,0.875-0.307
			c0.276-0.201,0.539-0.567,0.803-1.123c0.122-0.268,0.29-0.606,0.504-1.016c0.214-0.411,0.448-0.844,0.7-1.298
			c0.246-0.443,0.518-0.903,0.807-1.367c0.281-0.449,0.564-0.864,0.84-1.233c0.27-0.358,0.528-0.65,0.77-0.868
			c0.21-0.19,0.397-0.29,0.541-0.29c0,0,0.058,0.001,0.182,0.145c0.05,0.058,0.135,0.221,0.135,0.671
			c0,0.23-0.008,0.471-0.027,0.726c-0.018,0.254-0.042,0.511-0.073,0.766c-0.03,0.262-0.055,0.511-0.074,0.747
			c-0.019,0.239-0.029,0.454-0.029,0.644c0,0.438,0.035,0.88,0.104,1.317c0.072,0.448,0.213,0.862,0.42,1.23
			c0.214,0.38,0.511,0.689,0.882,0.92c0.375,0.235,0.864,0.354,1.455,0.354c0.524,0,1.032-0.133,1.509-0.394
			c0.462-0.252,0.899-0.573,1.299-0.954c0.395-0.376,0.761-0.799,1.087-1.257c0.32-0.448,0.605-0.882,0.85-1.289
			c0.241-0.401,0.439-0.764,0.592-1.079c0.146-0.306,0.244-0.509,0.299-0.62c0.438-1.058,0.799-1.801,1.072-2.21
			c0.158-0.238,0.271-0.385,0.348-0.475c0.01,0.053,0.019,0.12,0.026,0.206c0.023,0.272,0.035,0.565,0.035,0.87
			c0,0.23-0.011,0.515-0.035,0.854c-0.025,0.344-0.056,0.715-0.093,1.114l-0.111,1.211c-0.036,0.406-0.073,0.783-0.109,1.132
			c-0.037,0.352-0.069,0.656-0.094,0.908c-0.025,0.262-0.038,0.438-0.038,0.527c0,0.447,0.128,0.802,0.382,1.056
			c0.254,0.254,0.591,0.383,1.001,0.383c0.301,0,0.595-0.104,0.876-0.307c0.277-0.201,0.539-0.567,0.803-1.123
			c0.122-0.268,0.289-0.606,0.504-1.016c0.215-0.411,0.448-0.844,0.699-1.298c0.256-0.461,0.528-0.921,0.809-1.367
			c0.285-0.457,0.568-0.872,0.84-1.233c0.268-0.357,0.527-0.649,0.768-0.868c0.211-0.19,0.397-0.29,0.541-0.29
			c0.016,0,0.08,0.025,0.183,0.145c0.05,0.058,0.135,0.221,0.135,0.671c0,0.229-0.009,0.471-0.028,0.727
			c-0.017,0.255-0.042,0.511-0.072,0.765c-0.031,0.262-0.056,0.511-0.074,0.748c-0.02,0.239-0.028,0.454-0.028,0.644
			c0,0.438,0.035,0.88,0.104,1.316c0.07,0.445,0.212,0.859,0.42,1.231c0.214,0.379,0.51,0.689,0.881,0.92
			c0.375,0.235,0.865,0.354,1.455,0.354c0.523,0,1.032-0.133,1.51-0.394c0.462-0.253,0.898-0.574,1.298-0.954
			c0.39-0.371,0.754-0.791,1.081-1.249c0.02,0.063,0.041,0.126,0.064,0.188c0.205,0.535,0.5,0.999,0.875,1.381
			c0.373,0.379,0.818,0.68,1.321,0.893c0.503,0.213,1.063,0.322,1.667,0.322c0.509,0,0.99-0.072,1.429-0.213
			c0.437-0.142,0.837-0.337,1.188-0.581c0.354-0.245,0.668-0.534,0.937-0.86c0.235-0.286,0.444-0.598,0.62-0.929
			c0.213,0.034,0.447,0.051,0.699,0.051c0,0,0,0,0.001,0l0.132,0.001c0.547,0,1.053-0.072,1.503-0.214
			c0.486-0.154,0.929-0.365,1.317-0.625c0.391-0.264,0.734-0.576,1.021-0.927c0.283-0.345,0.535-0.711,0.754-1.099
			c0.051-0.102,0.102-0.213,0.154-0.336c0.06-0.144,0.089-0.274,0.089-0.401C394.682,135.454,394.59,135.233,394.405,135.066z
			 M388.287,137.302l-0.043,0.303l-0.26-0.161c-0.273-0.169-0.518-0.379-0.723-0.623c-0.199-0.239-0.369-0.494-0.505-0.758
			c-0.137-0.267-0.238-0.541-0.304-0.813c-0.064-0.272-0.098-0.537-0.098-0.784c0-0.439,0.08-0.715,0.252-0.87
			c0.164-0.148,0.301-0.217,0.429-0.217c0.173,0,0.424,0.061,0.64,0.347c0.15,0.197,0.275,0.454,0.373,0.762
			c0.096,0.3,0.168,0.622,0.221,0.984c0.051,0.356,0.076,0.708,0.076,1.044C388.345,136.771,388.326,137.035,388.287,137.302z"/>
	</g>
	<polygon fill="#6A594E" stroke="#6A594E" stroke-width="0.41" stroke-miterlimit="10" points="149.05,46.259 105.495,46.259 
		109.495,-209.457 147.05,-209.457 	"/>
</g>
</svg>
