<?xml version="1.0" encoding="utf-8"?>
<!-- Generator: Adobe Illustrator 17.1.0, SVG Export Plug-In . SVG Version: 6.00 Build 0)  -->
<!DOCTYPE svg PUBLIC "-//W3C//DTD SVG 1.1//EN" "http://www.w3.org/Graphics/SVG/1.1/DTD/svg11.dtd">
<svg version="1.1" id="Layer_1" xmlns="http://www.w3.org/2000/svg" xmlns:xlink="http://www.w3.org/1999/xlink" x="0px" y="0px"
	 width="105.765px" height="105.81px" viewBox="0 0 105.765 105.81" enable-background="new 0 0 105.765 105.81"
	 xml:space="preserve">
<g>
	
		<rect x="0.164" y="0.164" fill="#FFFFFF" stroke="#FFFFFF" stroke-width="0.3289" stroke-linecap="round" stroke-linejoin="round" stroke-miterlimit="10" width="105.436" height="36.091"/>
	
		<polygon fill="#F6F6F6" stroke="#F6F6F6" stroke-width="0.3289" stroke-linecap="round" stroke-linejoin="round" stroke-miterlimit="10" points="
		105.6,36.256 0.164,36.256 0.164,0.164 	"/>
</g>
<rect x="3.301" y="2.76" fill="#6070AB" width="99.449" height="30.9"/>
<polygon fill="#546598" points="99.106,33.66 3.301,33.66 3.301,2.76 7.745,2.76 "/>
<rect x="50.69" y="36.256" fill="#F6F6F6" stroke="#F6F6F6" stroke-width="0.3289" stroke-linecap="round" stroke-linejoin="round" stroke-miterlimit="10" width="4.385" height="69.39"/>
<rect x="50.69" y="36.513" fill="#DADADA" stroke="#DADADA" stroke-width="0.2326" stroke-linecap="round" stroke-linejoin="round" stroke-miterlimit="10" width="2.191" height="69.133"/>
<g>
	
		<path fill="#FFFFFF" stroke="#FFFFFF" stroke-width="0.1415" stroke-linecap="round" stroke-linejoin="round" stroke-miterlimit="10" d="
		M8.937,23.354H8.304v-11.96h6.117v0.632H8.937v4.375h5.484v0.632H8.937V23.354z"/>
	
		<path fill="#FFFFFF" stroke="#FFFFFF" stroke-width="0.1415" stroke-linecap="round" stroke-linejoin="round" stroke-miterlimit="10" d="
		M21.991,18.759c0,0.774-0.074,1.455-0.223,2.042c-0.146,0.587-0.332,1.039-0.555,1.357c-0.223,0.32-0.486,0.576-0.794,0.77
		c-0.776,0.501-1.624,0.604-2.546,0.307c-0.319-0.102-0.654-0.286-1.009-0.555c-0.352-0.268-0.638-0.691-0.854-1.274
		c-0.216-0.58-0.324-1.292-0.324-2.135c0-1.367,0.273-2.481,0.821-3.339c0.546-0.861,1.334-1.292,2.366-1.292
		c1.03,0,1.805,0.405,2.323,1.214C21.713,16.663,21.979,17.631,21.991,18.759z M18.642,22.758l0.205,0.017l0.188-0.017
		c1.549-0.149,2.324-1.453,2.324-3.914c0-1.013-0.206-1.862-0.615-2.545c-0.41-0.683-1.064-1.024-1.964-1.024
		c-0.583,0-1.066,0.199-1.454,0.597c-0.671,0.707-1.008,1.806-1.008,3.299v0.136c0,0.946,0.194,1.739,0.581,2.384
		C17.288,22.332,17.866,22.688,18.642,22.758z M17.224,12.591h0.649v1.127h-0.649V12.591z M20.129,12.591h0.65v1.127h-0.65V12.591z"
		/>
	
		<path fill="#FFFFFF" stroke="#FFFFFF" stroke-width="0.1415" stroke-linecap="round" stroke-linejoin="round" stroke-miterlimit="10" d="
		M24.452,23.354h-0.633v-8.543h0.633v1.248c0.239-0.285,0.606-0.59,1.102-0.915c0.496-0.324,0.969-0.486,1.418-0.486
		c0.45,0,0.843,0.127,1.18,0.384c0.336,0.256,0.51,0.675,0.521,1.256h-0.633c0-0.318-0.102-0.57-0.308-0.752
		c-0.204-0.182-0.484-0.272-0.837-0.272c-0.354,0-0.783,0.169-1.29,0.511c-0.507,0.342-0.892,0.719-1.153,1.129V23.354z"/>
	
		<path fill="#FFFFFF" stroke="#FFFFFF" stroke-width="0.1415" stroke-linecap="round" stroke-linejoin="round" stroke-miterlimit="10" d="
		M30.123,10.54h0.632v5.297c0.73-0.81,1.504-1.213,2.324-1.213c0.626,0,1.252,0.279,1.88,0.836c0.329,0.286,0.601,0.718,0.811,1.299
		c0.211,0.581,0.316,1.262,0.316,2.041c0,0.781-0.113,1.456-0.341,2.025c-0.229,0.57-0.52,1.014-0.872,1.332
		c-0.354,0.32-0.806,0.573-1.358,0.761c-0.552,0.188-1.085,0.311-1.598,0.368c-0.513,0.057-1.11,0.086-1.794,0.086V10.54z
		 M35.454,18.946c0-1.161-0.222-2.066-0.666-2.716c-0.445-0.649-1.019-0.974-1.726-0.974c-0.706,0-1.475,0.479-2.308,1.435v6.031
		C33.889,22.723,35.454,21.465,35.454,18.946z"/>
	
		<path fill="#FFFFFF" stroke="#FFFFFF" stroke-width="0.1415" stroke-linecap="round" stroke-linejoin="round" stroke-miterlimit="10" d="
		M43.5,22.739v0.634c-0.683,0-1.284-0.029-1.802-0.086c-0.519-0.058-1.057-0.18-1.614-0.368c-0.559-0.188-1.018-0.44-1.377-0.761
		c-0.358-0.318-0.654-0.76-0.888-1.323c-0.233-0.563-0.35-1.236-0.35-2.017c0-0.779,0.104-1.46,0.316-2.042
		c0.209-0.581,0.48-1.018,0.812-1.316c0.614-0.547,1.213-0.82,1.794-0.82c0.968,0,1.723,0.286,2.264,0.854
		c0.54,0.569,0.812,1.322,0.812,2.256c0,0.626-0.006,0.99-0.017,1.093h-5.348c0,1.47,0.438,2.487,1.314,3.051
		C40.294,22.458,41.656,22.739,43.5,22.739z M42.834,18.213v-0.377c0-0.751-0.213-1.366-0.641-1.846
		c-0.427-0.477-0.991-0.716-1.691-0.716c-0.7,0-1.253,0.275-1.656,0.827c-0.405,0.553-0.647,1.257-0.728,2.111H42.834z"/>
	
		<path fill="#FFFFFF" stroke="#FFFFFF" stroke-width="0.1415" stroke-linecap="round" stroke-linejoin="round" stroke-miterlimit="10" d="
		M50.695,23.354l0.017-4.511c0-0.956-0.231-1.793-0.692-2.512c-0.46-0.716-1.026-1.076-1.699-1.076
		c-0.434,0-0.828,0.128-1.188,0.384c-0.358,0.257-0.731,0.606-1.119,1.051v6.663H45.38V10.54h0.633v5.297
		c0.751-0.81,1.555-1.213,2.408-1.213c0.467,0,0.941,0.176,1.419,0.529c1.002,0.729,1.504,1.954,1.504,3.672l-0.018,4.528H50.695z"
		/>
	
		<path fill="#FFFFFF" stroke="#FFFFFF" stroke-width="0.1415" stroke-linecap="round" stroke-linejoin="round" stroke-miterlimit="10" d="
		M58.453,14.812h0.631v8.561c-0.683,0-1.28-0.029-1.794-0.086c-0.513-0.058-1.045-0.18-1.598-0.368
		c-0.552-0.188-1.005-0.44-1.358-0.761c-0.353-0.318-0.643-0.76-0.87-1.323c-0.228-0.563-0.342-1.198-0.342-1.905
		c0-0.707,0.07-1.312,0.212-1.819c0.144-0.506,0.326-0.911,0.549-1.213c0.221-0.302,0.47-0.55,0.742-0.744
		c0.478-0.353,0.951-0.529,1.418-0.529c0.854,0,1.658,0.404,2.41,1.213V14.812z M53.752,18.844c0,1.492,0.462,2.529,1.386,3.11
		c0.819,0.512,1.924,0.768,3.315,0.768v-6.031c-0.388-0.444-0.761-0.794-1.12-1.051c-0.357-0.256-0.755-0.384-1.188-0.384
		c-0.717,0-1.295,0.316-1.733,0.948C53.972,16.837,53.752,17.716,53.752,18.844z"/>
	
		<path fill="#FFFFFF" stroke="#FFFFFF" stroke-width="0.1415" stroke-linecap="round" stroke-linejoin="round" stroke-miterlimit="10" d="
		M66.789,23.354l0.017-4.511c0-0.956-0.231-1.79-0.692-2.502c-0.46-0.711-1.036-1.067-1.725-1.067c-0.689,0-1.45,0.472-2.281,1.417
		v6.663h-0.633v-8.543h0.633v1.026c0.739-0.798,1.544-1.197,2.408-1.197c0.581,0,1.185,0.273,1.812,0.82
		c0.318,0.297,0.585,0.734,0.794,1.316c0.212,0.582,0.317,1.265,0.317,2.05l-0.019,4.528H66.789z"/>
	
		<path fill="#FFFFFF" stroke="#FFFFFF" stroke-width="0.1415" stroke-linecap="round" stroke-linejoin="round" stroke-miterlimit="10" d="
		M74.547,10.54h0.63v12.832c-0.683,0-1.279-0.029-1.792-0.086c-0.514-0.058-1.047-0.18-1.599-0.368
		c-0.552-0.188-1.005-0.44-1.357-0.761c-0.354-0.318-0.645-0.76-0.872-1.323c-0.227-0.563-0.341-1.198-0.341-1.905
		c0-0.707,0.07-1.312,0.212-1.819c0.144-0.506,0.326-0.911,0.548-1.213c0.222-0.302,0.471-0.55,0.743-0.744
		c0.479-0.353,0.95-0.529,1.417-0.529c0.854,0,1.658,0.404,2.411,1.213V10.54z M70.539,16.332c-0.462,0.719-0.692,1.502-0.692,2.35
		c0,0.849,0.12,1.535,0.359,2.059c0.24,0.525,0.58,0.928,1.025,1.214c0.821,0.512,1.925,0.768,3.315,0.768v-6.031
		c-0.389-0.444-0.762-0.794-1.119-1.051c-0.359-0.256-0.756-0.384-1.188-0.384C71.567,15.256,71.001,15.616,70.539,16.332z"/>
	
		<path fill="#FFFFFF" stroke="#FFFFFF" stroke-width="0.1415" stroke-linecap="round" stroke-linejoin="round" stroke-miterlimit="10" d="
		M78.271,23.354h-0.634V10.558h0.634V23.354z"/>
	
		<path fill="#FFFFFF" stroke="#FFFFFF" stroke-width="0.1415" stroke-linecap="round" stroke-linejoin="round" stroke-miterlimit="10" d="
		M81.364,23.354H80.73v-8.543h0.634V23.354z M80.765,11.993h0.631v1.469h-0.631V11.993z"/>
	
		<path fill="#FFFFFF" stroke="#FFFFFF" stroke-width="0.1415" stroke-linecap="round" stroke-linejoin="round" stroke-miterlimit="10" d="
		M89.068,23.354l0.018-4.511c0-0.956-0.23-1.79-0.692-2.502c-0.461-0.711-1.036-1.067-1.726-1.067c-0.688,0-1.448,0.472-2.28,1.417
		v6.663h-0.633v-8.543h0.633v1.026c0.739-0.798,1.543-1.197,2.408-1.197c0.581,0,1.185,0.273,1.812,0.82
		c0.319,0.297,0.584,0.734,0.794,1.316c0.211,0.582,0.316,1.265,0.316,2.05L89.7,23.354H89.068z"/>
	
		<path fill="#FFFFFF" stroke="#FFFFFF" stroke-width="0.1415" stroke-linecap="round" stroke-linejoin="round" stroke-miterlimit="10" d="
		M96.826,14.812h0.632v8.834c0,0.785-0.097,1.472-0.291,2.059c-0.193,0.586-0.439,1.022-0.734,1.307
		c-0.581,0.56-1.156,0.838-1.725,0.838c-0.764,0-1.481-0.318-2.153-0.957v-0.82c0.718,0.764,1.43,1.145,2.137,1.145
		c0.705,0,1.238-0.339,1.597-1.016c0.359-0.679,0.538-1.535,0.538-2.571v-0.274c-2.04-0.079-3.463-0.524-4.271-1.332
		c-0.706-0.729-1.06-1.794-1.06-3.196c0-1.719,0.501-2.943,1.504-3.672c0.478-0.353,0.95-0.529,1.418-0.529
		c0.854,0,1.657,0.404,2.409,1.213V14.812z M92.818,16.332c-0.46,0.719-0.691,1.502-0.691,2.35c0,0.849,0.119,1.535,0.359,2.059
		c0.239,0.525,0.581,0.928,1.025,1.214c0.82,0.512,1.924,0.768,3.314,0.768v-6.031c-0.388-0.444-0.76-0.794-1.119-1.051
		c-0.358-0.256-0.755-0.384-1.188-0.384C93.846,15.256,93.28,15.616,92.818,16.332z"/>
</g>
</svg>
