<?xml version="1.0" encoding="utf-8"?>
<!-- Generator: Adobe Illustrator 15.0.2, SVG Export Plug-In . SVG Version: 6.00 Build 0)  -->
<!DOCTYPE svg PUBLIC "-//W3C//DTD SVG 1.1//EN" "http://www.w3.org/Graphics/SVG/1.1/DTD/svg11.dtd">
<svg version="1.1" id="Lager_1" xmlns="http://www.w3.org/2000/svg" xmlns:xlink="http://www.w3.org/1999/xlink" x="0px" y="0px"
	 width="35.333px" height="73.721px" viewBox="0 0 35.333 73.721" enable-background="new 0 0 35.333 73.721" xml:space="preserve">
<g>
	
		<path fill="#EFAB17" stroke="#EFAB17" stroke-width="0.979" stroke-linecap="round" stroke-linejoin="round" stroke-miterlimit="10" d="
		M34.22,56.634c-0.148,9.314-7.82,16.744-17.134,16.596l0,0C7.773,73.082,0.344,65.412,0.492,56.097l0.621-39.011
		C1.262,7.773,8.932,0.343,18.245,0.492l0,0C27.558,0.64,34.99,8.31,34.841,17.624L34.22,56.634z"/>
	
		<path fill="#E49D0F" stroke="#E49D0F" stroke-width="0.979" stroke-linecap="round" stroke-linejoin="round" stroke-miterlimit="10" d="
		M18.245,0.492L18.245,0.492C8.932,0.343,1.262,7.773,1.113,17.086L0.492,56.097C0.344,65.412,7.773,73.082,17.086,73.23l0,0
		L18.245,0.492z"/>
	<path fill="#EFAB17" d="M18.296,27.502L6.3,22.802c-0.614-0.24-0.917-0.933-0.676-1.547c0.24-0.614,0.932-0.916,1.547-0.675
		l11.176,4.378"/>
	<path fill="#E49D0F" d="M18.357,24.957l11.996,4.7c0.613,0.24,0.916,0.933,0.676,1.547s-0.932,0.916-1.547,0.676l-11.176-4.379"/>
	<path fill="#EFAB17" d="M18.127,38.141l-11.996-4.7c-0.613-0.241-0.916-0.933-0.676-1.547c0.24-0.615,0.932-0.916,1.547-0.676
		l11.176,4.378"/>
	<path fill="#E49D0F" d="M18.188,35.596l11.996,4.7c0.614,0.24,0.917,0.933,0.676,1.547c-0.24,0.614-0.932,0.916-1.547,0.676
		L18.136,38.14"/>
	<path fill="#EFAB17" d="M17.958,48.781L5.961,44.08c-0.613-0.24-0.916-0.932-0.676-1.547c0.24-0.614,0.932-0.916,1.547-0.675
		l11.176,4.378"/>
	<path fill="#E49D0F" d="M18.018,46.236l11.997,4.699c0.613,0.24,0.916,0.934,0.676,1.547c-0.241,0.615-0.933,0.916-1.548,0.676
		L17.967,48.78"/>
</g>
</svg>
