<?xml version="1.0" encoding="utf-8"?>
<!-- Generator: Adobe Illustrator 17.0.0, SVG Export Plug-In . SVG Version: 6.00 Build 0)  -->
<!DOCTYPE svg PUBLIC "-//W3C//DTD SVG 1.1//EN" "http://www.w3.org/Graphics/SVG/1.1/DTD/svg11.dtd">
<svg version="1.1" id="Layer_1" xmlns="http://www.w3.org/2000/svg" xmlns:xlink="http://www.w3.org/1999/xlink" x="0px" y="0px"
	 width="246.066px" height="317.872px" viewBox="0 0 246.066 317.872" enable-background="new 0 0 246.066 317.872"
	 xml:space="preserve">
<rect x="3.065" y="3.065" opacity="0.9" fill="#DFF2FD" stroke="#DFF2FD" stroke-width="5" stroke-linecap="round" stroke-linejoin="round" stroke-miterlimit="10" width="240" height="312.308"/>
<rect x="0.5" y="0.5" fill="#F5FBFF" stroke="#F5FBFF" stroke-miterlimit="10" width="245.066" height="288.205"/>
<g>
	<g>
		
			<path fill="#E94B3D" stroke="#FFFFFF" stroke-width="10.2563" stroke-linecap="round" stroke-linejoin="round" stroke-miterlimit="10" d="
			M205.109,179.038c0,49.722-33.447,90.027-74.71,90.027s-81.536-32.845-74.713-84.318c4.731-35.689,29.204-45.479,41.617-62.03
			c14.37-19.16,24.278-45.803,52.726-45.803C191.291,76.914,205.109,129.315,205.109,179.038z"/>
	</g>
	<g>
		<path fill="#CE4435" d="M186.438,177.376c0,36.059-24.256,65.289-54.18,65.289c-11.994,0-23.873-3.826-33.483-10.816
			C84.407,221.4,75.11,203.884,78.075,181.517c3.431-25.882,21.179-32.981,30.181-44.985c10.421-13.895,17.607-33.216,38.238-33.216
			C176.417,103.315,186.438,141.316,186.438,177.376z"/>
	</g>
	<g>
		<path fill="#C54233" d="M161.082,106.943c18.69,10.324,25.355,41.023,25.355,70.433c0,36.059-24.256,65.289-54.18,65.289
			c-11.994,0-23.873-3.826-33.483-10.816"/>
	</g>
	
		<circle fill="none" stroke="#FDE4D7" stroke-width="3.9886" stroke-linecap="round" stroke-linejoin="round" stroke-miterlimit="10" cx="143.632" cy="142.364" r="15.574"/>
</g>
<rect x="3.065" y="3.065" opacity="0.15" fill="#00BAEE" stroke="#00BAEE" stroke-width="5" stroke-linecap="round" stroke-linejoin="round" stroke-miterlimit="10" width="120" height="312.308"/>
<line fill="none" stroke="#FFFFFF" stroke-width="3" stroke-linejoin="round" stroke-miterlimit="10" x1="0.5" y1="30.029" x2="245.566" y2="30.029"/>
<g>
	<g>
		
			<line fill="none" stroke="#FFFFFF" stroke-width="2.44" stroke-linecap="round" stroke-miterlimit="10" x1="50.865" y1="63.112" x2="50.865" y2="80.035"/>
		
			<line fill="none" stroke="#FFFFFF" stroke-width="2.44" stroke-linecap="round" stroke-miterlimit="10" x1="46.808" y1="67.283" x2="50.865" y2="71.807"/>
		
			<line fill="none" stroke="#FFFFFF" stroke-width="2.44" stroke-linecap="round" stroke-miterlimit="10" x1="54.926" y1="67.283" x2="50.865" y2="71.807"/>
	</g>
	<g>
		
			<line fill="none" stroke="#FFFFFF" stroke-width="2.44" stroke-linecap="round" stroke-miterlimit="10" x1="50.865" y1="96.967" x2="50.865" y2="80.035"/>
		
			<line fill="none" stroke="#FFFFFF" stroke-width="2.44" stroke-linecap="round" stroke-miterlimit="10" x1="54.926" y1="92.791" x2="50.865" y2="88.268"/>
		
			<line fill="none" stroke="#FFFFFF" stroke-width="2.44" stroke-linecap="round" stroke-miterlimit="10" x1="46.808" y1="92.791" x2="50.865" y2="88.268"/>
	</g>
	<g>
		
			<line fill="none" stroke="#FFFFFF" stroke-width="2.44" stroke-linecap="round" stroke-miterlimit="10" x1="65.418" y1="71.318" x2="50.759" y2="79.78"/>
		
			<line fill="none" stroke="#FFFFFF" stroke-width="2.44" stroke-linecap="round" stroke-miterlimit="10" x1="63.828" y1="76.914" x2="57.884" y2="75.666"/>
		
			<line fill="none" stroke="#FFFFFF" stroke-width="2.44" stroke-linecap="round" stroke-miterlimit="10" x1="59.775" y1="69.89" x2="57.884" y2="75.666"/>
	</g>
	<g>
		
			<line fill="none" stroke="#FFFFFF" stroke-width="2.44" stroke-linecap="round" stroke-miterlimit="10" x1="36.452" y1="71.314" x2="51.111" y2="79.78"/>
		
			<line fill="none" stroke="#FFFFFF" stroke-width="2.44" stroke-linecap="round" stroke-miterlimit="10" x1="38.039" y1="76.914" x2="43.982" y2="75.666"/>
		
			<line fill="none" stroke="#FFFFFF" stroke-width="2.44" stroke-linecap="round" stroke-miterlimit="10" x1="42.095" y1="69.89" x2="43.982" y2="75.666"/>
	</g>
	<g>
		
			<line fill="none" stroke="#FFFFFF" stroke-width="2.44" stroke-linecap="round" stroke-miterlimit="10" x1="36.452" y1="88.246" x2="51.111" y2="79.78"/>
		
			<line fill="none" stroke="#FFFFFF" stroke-width="2.44" stroke-linecap="round" stroke-miterlimit="10" x1="42.095" y1="89.67" x2="43.982" y2="83.895"/>
		
			<line fill="none" stroke="#FFFFFF" stroke-width="2.44" stroke-linecap="round" stroke-miterlimit="10" x1="38.039" y1="82.642" x2="43.982" y2="83.895"/>
	</g>
	<g>
		
			<line fill="none" stroke="#FFFFFF" stroke-width="2.44" stroke-linecap="round" stroke-miterlimit="10" x1="65.445" y1="88.246" x2="50.79" y2="79.78"/>
		
			<line fill="none" stroke="#FFFFFF" stroke-width="2.44" stroke-linecap="round" stroke-miterlimit="10" x1="59.805" y1="89.67" x2="57.919" y2="83.895"/>
		
			<line fill="none" stroke="#FFFFFF" stroke-width="2.44" stroke-linecap="round" stroke-miterlimit="10" x1="63.863" y1="82.642" x2="57.919" y2="83.895"/>
	</g>
</g>
<g>
	<g>
		
			<line fill="none" stroke="#FFFFFF" stroke-width="1.1242" stroke-linecap="round" stroke-miterlimit="10" x1="83.091" y1="92.882" x2="83.091" y2="100.679"/>
		
			<line fill="none" stroke="#FFFFFF" stroke-width="1.1242" stroke-linecap="round" stroke-miterlimit="10" x1="81.222" y1="94.804" x2="83.091" y2="96.888"/>
		
			<line fill="none" stroke="#FFFFFF" stroke-width="1.1242" stroke-linecap="round" stroke-miterlimit="10" x1="84.962" y1="94.804" x2="83.091" y2="96.888"/>
	</g>
	<g>
		
			<line fill="none" stroke="#FFFFFF" stroke-width="1.1242" stroke-linecap="round" stroke-miterlimit="10" x1="83.091" y1="108.48" x2="83.091" y2="100.679"/>
		
			<line fill="none" stroke="#FFFFFF" stroke-width="1.1242" stroke-linecap="round" stroke-miterlimit="10" x1="84.962" y1="106.557" x2="83.091" y2="104.472"/>
		
			<line fill="none" stroke="#FFFFFF" stroke-width="1.1242" stroke-linecap="round" stroke-miterlimit="10" x1="81.222" y1="106.557" x2="83.091" y2="104.472"/>
	</g>
	<g>
		
			<line fill="none" stroke="#FFFFFF" stroke-width="1.1242" stroke-linecap="round" stroke-miterlimit="10" x1="89.796" y1="96.663" x2="83.042" y2="100.562"/>
		
			<line fill="none" stroke="#FFFFFF" stroke-width="1.1242" stroke-linecap="round" stroke-miterlimit="10" x1="89.063" y1="99.241" x2="86.325" y2="98.666"/>
		
			<line fill="none" stroke="#FFFFFF" stroke-width="1.1242" stroke-linecap="round" stroke-miterlimit="10" x1="87.196" y1="96.004" x2="86.325" y2="98.666"/>
	</g>
	<g>
		
			<line fill="none" stroke="#FFFFFF" stroke-width="1.1242" stroke-linecap="round" stroke-miterlimit="10" x1="76.45" y1="96.661" x2="83.204" y2="100.562"/>
		
			<line fill="none" stroke="#FFFFFF" stroke-width="1.1242" stroke-linecap="round" stroke-miterlimit="10" x1="77.181" y1="99.241" x2="79.919" y2="98.666"/>
		
			<line fill="none" stroke="#FFFFFF" stroke-width="1.1242" stroke-linecap="round" stroke-miterlimit="10" x1="79.05" y1="96.004" x2="79.919" y2="98.666"/>
	</g>
	<g>
		
			<line fill="none" stroke="#FFFFFF" stroke-width="1.1242" stroke-linecap="round" stroke-miterlimit="10" x1="76.45" y1="104.462" x2="83.204" y2="100.562"/>
		
			<line fill="none" stroke="#FFFFFF" stroke-width="1.1242" stroke-linecap="round" stroke-miterlimit="10" x1="79.05" y1="105.119" x2="79.919" y2="102.457"/>
		
			<line fill="none" stroke="#FFFFFF" stroke-width="1.1242" stroke-linecap="round" stroke-miterlimit="10" x1="77.181" y1="101.88" x2="79.919" y2="102.457"/>
	</g>
	<g>
		
			<line fill="none" stroke="#FFFFFF" stroke-width="1.1242" stroke-linecap="round" stroke-miterlimit="10" x1="89.809" y1="104.462" x2="83.056" y2="100.562"/>
		
			<line fill="none" stroke="#FFFFFF" stroke-width="1.1242" stroke-linecap="round" stroke-miterlimit="10" x1="87.21" y1="105.119" x2="86.341" y2="102.457"/>
		
			<line fill="none" stroke="#FFFFFF" stroke-width="1.1242" stroke-linecap="round" stroke-miterlimit="10" x1="89.08" y1="101.88" x2="86.341" y2="102.457"/>
	</g>
</g>
</svg>
