<?xml version="1.0" encoding="utf-8"?>
<!-- Generator: Adobe Illustrator 15.0.2, SVG Export Plug-In . SVG Version: 6.00 Build 0)  -->
<!DOCTYPE svg PUBLIC "-//W3C//DTD SVG 1.1//EN" "http://www.w3.org/Graphics/SVG/1.1/DTD/svg11.dtd">
<svg version="1.1" id="Lager_1" xmlns="http://www.w3.org/2000/svg" xmlns:xlink="http://www.w3.org/1999/xlink" x="0px" y="0px"
	 width="259.176px" height="377.481px" viewBox="0 0 259.176 377.481" enable-background="new 0 0 259.176 377.481"
	 xml:space="preserve">
<g>
	<path fill="#037C38" d="M129.587,153.428c-0.002,0,14.712,0,14.712,0c3.405,0,6.165-2.759,6.165-6.163V62.827
		c0-1.761,0-2.836,0-3.856c0-10.329-1.415-16.173-10.497-23.432l-0.721-0.696c-2.338-2.339-2.943-4.186-2.943-6.757V2.898h1.193
		c0.803,0,1.451-0.65,1.451-1.45l0,0c0-0.801-0.648-1.449-1.451-1.449h-7.911h-7.911c-0.8,0-1.45,0.648-1.45,1.449l0,0
		c0,0.8,0.65,1.45,1.45,1.45h1.195v25.188c0,2.571-0.605,4.417-2.945,6.757l-0.719,0.696c-9.082,7.259-10.495,13.103-10.495,23.432
		c0,1.02,0,2.095,0,3.856v84.438c0,3.404,2.76,6.163,6.163,6.163h14.712"/>
	<path fill="#04632E" d="M129.587,153.428c-0.002,0,14.712,0,14.712,0c3.405,0,6.165-2.759,6.165-6.163V62.827
		c0-1.761,0-2.836,0-3.856c0-10.329-1.415-16.173-10.497-23.432l-0.721-0.696c-2.338-2.339-2.943-4.186-2.943-6.757V2.898h1.193
		c0.803,0,1.451-0.65,1.451-1.45l0,0c0-0.801-0.648-1.449-1.451-1.449h-7.911L129.587,153.428z"/>
	
		<rect x="113.345" y="63.484" fill="#FFFFFF" stroke="#FFFFFF" stroke-width="0.7821" stroke-linecap="round" stroke-linejoin="round" stroke-miterlimit="10" width="32.483" height="22.445"/>
	
		<rect x="129.587" y="63.484" fill="#EBEBED" stroke="#EBEBED" stroke-width="0.7821" stroke-linecap="round" stroke-linejoin="round" stroke-miterlimit="10" width="16.243" height="22.445"/>
</g>
<path fill="#38A963" stroke="#38A963" stroke-width="2.0734" stroke-linecap="round" stroke-miterlimit="10" d="M244.663,362.724
	v-89.579c0-57.256-46.414-99.523-103.67-99.523h-22.809c-57.255,0-103.669,42.267-103.669,99.523v89.579H1.037v13.72h257.103v-13.72
	H244.663z"/>
<path fill="#3F9D5F" stroke="#3F9D5F" stroke-width="2.0734" stroke-linecap="round" stroke-miterlimit="10" d="M130.397,173.622
	h-12.213c-57.255,0-103.669,42.267-103.669,99.523v89.579H1.037v13.72h128.551"/>
<circle fill="#105B34" cx="130.396" cy="216.404" r="15.359"/>
<g opacity="0.5">
	<path fill="#105B34" d="M131.145,310.065h6.336c1.162,0,2.111-0.943,2.111-2.104v-28.835c0-0.599,0-0.964,0-1.316
		c0-3.529-0.486-5.521-3.588-8l-0.244-0.236c-0.803-0.801-1.01-1.433-1.01-2.306v-7.324h0.408c0.277,0,0.497-0.219,0.497-0.495
		v-2.219c0-0.271-0.22-0.493-0.497-0.493H131.5h0.098h-3.658c-0.277,0-0.499,0.222-0.499,0.493v2.219
		c0,0.276,0.222,0.495,0.499,0.495h0.409v7.324c0,0.873-0.209,1.505-1.01,2.306l-0.246,0.236c-3.102,2.479-3.588,4.471-3.588,8
		c0,0.353,0,0.718,0,1.316v28.835c0,1.16,0.95,2.104,2.113,2.104h6.334"/>
</g>
</svg>
