<?xml version="1.0" encoding="utf-8"?>
<!-- Generator: Adobe Illustrator 15.0.2, SVG Export Plug-In . SVG Version: 6.00 Build 0)  -->
<!DOCTYPE svg PUBLIC "-//W3C//DTD SVG 1.1//EN" "http://www.w3.org/Graphics/SVG/1.1/DTD/svg11.dtd">
<svg version="1.1" id="Lager_1" xmlns="http://www.w3.org/2000/svg" xmlns:xlink="http://www.w3.org/1999/xlink" x="0px" y="0px"
	 width="242.831px" height="141.807px" viewBox="0 0 242.831 141.807" enable-background="new 0 0 242.831 141.807"
	 xml:space="preserve">
<g>
	<polyline fill="#F0C1D7" points="117.095,105.267 103.588,141.551 86.298,141.551 92.843,132.93 99.24,104.222 	"/>
	<polyline fill="#F0C1D7" points="195.588,82.779 226.385,105.258 226.467,132.875 222.905,141.807 239.506,141.807 238.683,92.594 
		215.299,56.758 181.381,23.258 	"/>
	<path fill="#FFFFFF" d="M216.683,0"/>
	<path fill="#F3E0EA" d="M9.333,50.305c0,0,10.285-11.956,13.926-16.335C39.333,14.642,58.798,12.732,81.876,8.157l84.443-7.658
		c0,0,93.513-4.857,58.251,82.03l-28.983,59.021h-17.289l6.346-8.62l14.601-28.708l-5.47-13.656c0,0-39.51,35.103-98.68,14.702
		L81.588,141.55h-17.29l6.545-8.62l6.397-28.708c0,0-11.907-6.469-19.179-18.812C35.05,82.529,18.666,73.307,12.666,65.973H0v-15.67
		L9.333,50.305L9.333,50.305z"/>
	<path fill="none" stroke="#F3E0EA" stroke-width="3" stroke-linecap="round" stroke-miterlimit="10" d="M225.017,24.229
		c6.4-0.842,14.363-3.143,13.529-9.488c-0.39-2.952-3.097-5.027-6.047-4.642c-2.953,0.388-5.029,3.095-4.644,6.047
		c0,0,0.726,8.494,13.476,8.494"/>
</g>
</svg>
