<?xml version="1.0" encoding="utf-8"?>
<!-- Generator: Adobe Illustrator 15.0.2, SVG Export Plug-In . SVG Version: 6.00 Build 0)  -->
<!DOCTYPE svg PUBLIC "-//W3C//DTD SVG 1.1//EN" "http://www.w3.org/Graphics/SVG/1.1/DTD/svg11.dtd">
<svg version="1.1" id="Lager_1" xmlns="http://www.w3.org/2000/svg" xmlns:xlink="http://www.w3.org/1999/xlink" x="0px" y="0px"
	 width="130.571px" height="185.926px" viewBox="0 0 130.571 185.926" enable-background="new 0 0 130.571 185.926"
	 xml:space="preserve">
<g>
	<g>
		<g>
			<path fill="#46A360" d="M55.055,185.926v-35.649c-0.64-10.61-0.765-11.062-17.718-13.967
				C-6.014,128.897,0.325,70.065,0.325,70.065s42.933-0.106,56.093,27.564c0,0,5.698,13.567,5.698,43.387v44.909H55.055z"/>
		</g>
	</g>
	<g>
		<g>
			<path fill="#54B06F" d="M64.277,107.044V80.212c-0.641-10.61-0.765-11.061-17.718-13.967C3.208,58.833,9.546,0,9.546,0
				S52.479-0.106,65.64,27.565c0,0,5.697,13.567,5.697,43.387v36.092H64.277z"/>
		</g>
	</g>
	<g>
		<g>
			<path fill="#54B06F" d="M75.516,185.926v-13.155c0.641-10.61,0.765-11.061,17.718-13.967
				c43.352-7.412,37.014-66.244,37.014-66.244s-42.935-0.106-56.095,27.564c0,0-5.697,13.567-5.697,43.387v22.415H75.516z"/>
		</g>
	</g>
</g>
</svg>
