<?xml version="1.0" encoding="utf-8"?>
<!-- Generator: Adobe Illustrator 15.0.2, SVG Export Plug-In . SVG Version: 6.00 Build 0)  -->
<!DOCTYPE svg PUBLIC "-//W3C//DTD SVG 1.1//EN" "http://www.w3.org/Graphics/SVG/1.1/DTD/svg11.dtd">
<svg version="1.1" id="Lager_1" xmlns="http://www.w3.org/2000/svg" xmlns:xlink="http://www.w3.org/1999/xlink" x="0px" y="0px"
	 width="130.572px" height="115.861px" viewBox="0.001 70.065 130.572 115.861"
	 enable-background="new 0.001 70.065 130.572 115.861" xml:space="preserve">
<g>
	<g>
		<g>
			<path fill="#46A360" d="M55.055,185.926v-35.648c-0.64-10.61-0.765-11.062-17.718-13.967
				C-6.014,128.896,0.325,70.065,0.325,70.065s42.933-0.106,56.093,27.564c0,0,5.698,13.566,5.698,43.387v44.909L55.055,185.926
				L55.055,185.926z"/>
		</g>
	</g>
	<g>
		<g>
			<path fill="#54B06F" d="M75.516,185.926v-13.154c0.642-10.61,0.765-11.062,17.718-13.967
				c43.353-7.412,37.015-66.245,37.015-66.245s-42.936-0.106-56.096,27.564c0,0-5.696,13.567-5.696,43.388v22.414H75.516z"/>
		</g>
	</g>
</g>
</svg>
