<?xml version="1.0" encoding="utf-8"?>
<!-- Generator: Adobe Illustrator 17.0.0, SVG Export Plug-In . SVG Version: 6.00 Build 0)  -->
<!DOCTYPE svg PUBLIC "-//W3C//DTD SVG 1.1//EN" "http://www.w3.org/Graphics/SVG/1.1/DTD/svg11.dtd">
<svg version="1.1" id="Layer_1" xmlns="http://www.w3.org/2000/svg" xmlns:xlink="http://www.w3.org/1999/xlink" x="0px" y="0px"
	 width="136.623px" height="324.143px" viewBox="0 0 136.623 324.143" enable-background="new 0 0 136.623 324.143"
	 xml:space="preserve">
<path fill="#575756" stroke="#575756" stroke-miterlimit="10" d="M71.767,315.643c0,4.418-3.582,8-8,8h-17.84c-4.418,0-8-3.582-8-8
	l4-164.457c0-4.418,3.582-8,8-8h9.84c4.418,0,8,3.582,8,8L71.767,315.643z"/>
<path fill="#B2B2B2" stroke="#B2B2B2" stroke-width="2" stroke-linecap="round" stroke-linejoin="round" stroke-miterlimit="10" d="
	M86.366,30.145c-12.469,1.322-21.553,10.271-21.553,20.626l0.024,0.172v86.785H45.04V50.943h-0.029
	c0-8.155-8.459-14.766-18.896-14.766c-3.912,0-7.548,1.449-10.564,3.041l-0.069,0.049H1V5.748H15.48l-0.003,0.061
	c2.215,1.261,4.767,3.038,7.549,3.666c10.456,2.362,20.217-1.411,21.8-8.424h28.04c0,0,19.25-2.156,41.5,21.594
	s21.25,26.5,21.25,26.5l-4-0.25C131.616,48.895,102.866,28.395,86.366,30.145z"/>
<path fill="#3C3C3B" stroke="#3C3C3B" stroke-miterlimit="10" d="M54.866,323.643h-8.94c-4.418,0-8-3.582-8-8l4-164.457
	c0-4.418,3.582-8,8-8h4.94V323.643z"/>
<rect x="1" y="5.748" fill="#9D9D9C" stroke="#9D9D9C" stroke-width="2" stroke-linecap="round" stroke-linejoin="round" stroke-miterlimit="10" width="13.804" height="33.519"/>
</svg>
