<?xml version="1.0" encoding="utf-8"?>
<!-- Generator: Adobe Illustrator 15.0.2, SVG Export Plug-In . SVG Version: 6.00 Build 0)  -->
<!DOCTYPE svg PUBLIC "-//W3C//DTD SVG 1.1//EN" "http://www.w3.org/Graphics/SVG/1.1/DTD/svg11.dtd">
<svg version="1.1" id="Layer_1" xmlns="http://www.w3.org/2000/svg" xmlns:xlink="http://www.w3.org/1999/xlink" x="0px" y="0px"
	 width="1521.705px" height="111.281px" viewBox="0 0 1521.705 111.281" enable-background="new 0 0 1521.705 111.281"
	 xml:space="preserve">
<g>
	<g>
		<line fill="none" x1="29.162" y1="82.164" x2="46.532" y2="72.311"/>
		<path fill="#EDBB9A" d="M67.911,41.06"/>
		<path fill="#EDBB9A" d="M72.744,60.25c2.506-2.096,9.294-9.27-0.583-20.315c-7.75-8-18.911-7.713-18.911-7.713
			C38.224,32.222,26,44.446,26,59.472c0,5.794,1.816,11.171,4.912,15.593h0.008l0.113,0.175l0.628,1.091
			c3.899,6.03,2.172,14.084-3.861,17.985c-6.033,3.9-14.086,2.172-17.986-3.86l-0.316-0.607l-0.41-0.667L7.59,86.886
			C2.771,78.878,0,69.499,0,59.472c0-29.409,23.841-53.25,53.25-53.25h5.723h804.513v61.16H164.901
			c-3.039,18.486-24.604,25.118-39.239,27.975c-11.161,1.517-36.154-1.936-36.154-1.936c-9.407-3.408-28.06,3.438-39.466,12.506
			l-0.289,0.231l-2.652,1.977c-6.081,5.547-12.148,1.801-15.687-1.688c-9.003-8.87-1.82-22.754-1.82-22.754
			c5.821-10.722,17.341-14.844,17.341-14.844c3.595-1.701,12.472-5.44,23.055-7.515C69.988,61.334,72.162,60.737,72.744,60.25z"/>
		<line fill="none" x1="61.308" y1="84.502" x2="66.548" y2="96.803"/>
		<path fill="#FDEADF" d="M66.81,96.691L61.571,84.39c-0.062-0.145-0.229-0.211-0.375-0.147c-0.146,0.059-0.213,0.229-0.149,0.37
			l5.238,12.302L66.81,96.691z"/>
		<line fill="none" x1="65.376" y1="82.769" x2="70.654" y2="95.139"/>
		<path fill="#FDEADF" d="M70.971,95.131l-5.333-12.473c-0.06-0.146-0.228-0.212-0.374-0.15c-0.143,0.061-0.212,0.227-0.15,0.373
			l5.332,12.477L70.971,95.131z"/>
		
			<path fill="#FDEADF" stroke="#FDEADF" stroke-width="0.5705" stroke-linecap="round" stroke-linejoin="round" stroke-miterlimit="10" d="
			M58.426,100.363c-3.028,1.691-5.881,3.574-8.385,5.564l-0.289,0.231l-2.652,1.977c-2.561,2.334-5.119,3.021-7.487,2.775
			c-2.918-5.078-1.071-11.429,4.008-14.349l8.621-4.953c0.479-0.274,1.092-0.11,1.367,0.369l4.795,8.342"/>
		<path fill="#FFFFFF" d="M41.13,110.117c-2.368-4.123-1.882-11.351,2.239-13.716l0,0c-5.08,2.918-6.984,9.478-4.066,14.558
			c0,0,0.142,0.217,0.209,0.235c0.069,0.019,1.49,0.232,2.429-0.088C41.594,110.957,41.13,110.117,41.13,110.117z"/>
		
			<path fill="#FDEADF" stroke="#FDEADF" stroke-width="0.5705" stroke-linecap="round" stroke-linejoin="round" stroke-miterlimit="10" d="
			M4.209,80.007c1.487,3.451,3.872,7.327,5.425,10.124l0.18,0.324l1.771,2.18c2.973,2.723,3.795,2.766,6.078,3.443
			c4.638-3.576,3.053-7.251-0.525-11.892l-6.072-7.872c-0.339-0.438-0.967-0.52-1.406-0.182l-5.412,3.843"/>
		<path fill="#FFFFFF" d="M16.562,94.766c3.766-2.906,3.771-6.871,0.867-10.631l0,0c3.578,4.639,5.138,8.528,0.5,12.108
			c0,0-0.214,0.146-0.283,0.139c-0.069-0.01-1.617-0.135-2.359-0.789C15.664,95.584,16.562,94.766,16.562,94.766z"/>
		
			<line fill="none" stroke="#FDEADF" stroke-width="0.5705" stroke-linecap="round" stroke-miterlimit="10" x1="7.273" y1="33.346" x2="12.295" y2="36.931"/>
		
			<line fill="none" stroke="#FDEADF" stroke-width="0.5705" stroke-linecap="round" stroke-miterlimit="10" x1="9.493" y1="29.516" x2="14.88" y2="33.345"/>
		
			<line fill="none" stroke="#FDEADF" stroke-width="0.5705" stroke-linecap="round" stroke-miterlimit="10" x1="12.111" y1="25.933" x2="17.466" y2="29.758"/>
	</g>
	<rect x="208.911" y="2.5" fill="#3B4A61" width="1312.794" height="69.811"/>
	<rect x="208.911" y="36.931" fill="#344054" width="1312.794" height="34.905"/>
	
		<rect x="208.911" y="2.5" fill="#27303F" stroke="#27303F" stroke-width="5" stroke-linecap="round" stroke-linejoin="round" stroke-miterlimit="10" width="31.5" height="69.336"/>
</g>
</svg>
