<?xml version="1.0" encoding="utf-8"?>
<!-- Generator: Adobe Illustrator 15.0.2, SVG Export Plug-In . SVG Version: 6.00 Build 0)  -->
<!DOCTYPE svg PUBLIC "-//W3C//DTD SVG 1.1//EN" "http://www.w3.org/Graphics/SVG/1.1/DTD/svg11.dtd">
<svg version="1.1" id="Lager_1" xmlns="http://www.w3.org/2000/svg" xmlns:xlink="http://www.w3.org/1999/xlink" x="0px" y="0px"
	 width="166.459px" height="241.383px" viewBox="0 0 166.459 241.383" enable-background="new 0 0 166.459 241.383"
	 xml:space="preserve">
<g>
	<g>
		<path fill="#EDBB9A" d="M165.578,129.203c-0.004,0.009-0.009,0.018-0.012,0.026C165.569,129.22,165.574,129.212,165.578,129.203
			L165.578,129.203z"/>
		<path fill="#EDBB9A" d="M154.568,139.198c0.107-0.095,0.215-0.188,0.321-0.28C154.782,139.011,154.675,139.103,154.568,139.198z"
			/>
		<path fill="#EDBB9A" d="M152.662,140.935c0.092-0.088,0.184-0.176,0.275-0.262C152.845,140.759,152.753,140.847,152.662,140.935z"
			/>
		<path fill="#EDBB9A" d="M165.013,130.284c0.068-0.112,0.142-0.222,0.203-0.335C165.155,130.062,165.082,130.171,165.013,130.284z"
			/>
		<path fill="#EDBB9A" d="M26.085,241.383h83.16v-0.003c18.486-3.039,26.695-26.285,26.695-39.6l0.081-31.094
			c-0.385-4.909,2.224-11.315,6.373-17.58l-10.397-8.293c-0.123-0.098-0.143-0.277-0.045-0.4c0.099-0.122,0.276-0.144,0.401-0.045
			l10.358,8.262c0.713-1.055,1.47-2.104,2.262-3.142l-10.222-8.134c-0.124-0.098-0.145-0.277-0.046-0.4
			c0.097-0.125,0.278-0.145,0.399-0.047l10.216,8.129c1.752-2.255,3.667-4.442,5.679-6.48c-0.005,0.006-0.011,0.012-0.017,0.018
			l-0.034-0.033l-6.766-6.842c-0.39-0.394-0.386-1.027,0.009-1.417l7.069-6.991c0.694-0.686,1.46-1.25,2.267-1.711
			c-0.889,0.308-1.695,0.772-2.355,1.426c4.139-4.094,10.907-4.203,15.034-0.117c0.394-3.117-0.819-6.315-2.168-8.734
			c-6.157-11.039-21.449-7.81-21.449-7.81c-11.886,2.757-18.925,12.765-18.925,12.765c-2.645,3.068-4.056,7.062-4.056,11.432
			l-0.012-7.309v-19.97V15.12c0-8.351-6.77-15.12-15.119-15.12c-8.352,0-15.12,6.769-15.12,15.12v73.584
			c-1.628-6.594-7.566-11.49-14.662-11.49c-8.351,0-15.12,6.769-15.12,15.12v8.879c-1.207-7.142-7.405-12.588-14.891-12.588
			c-8.351,0-15.119,6.769-15.119,15.119v6.945c-1.905-6.17-7.652-10.654-14.448-10.654C6.769,100.035,0,106.804,0,115.155v13.978
			v21.111v53.119C0,236.828,26.085,241.383,26.085,241.383z M104.53,2.601c5.858,0,10.624,4.766,10.624,10.625
			c0-1.993-1.039-3.825-2.589-5.287c1.001,1.518,1.587,3.333,1.587,5.287v9.943h-9.622h-9.622v-9.943
			c0-1.954,0.586-3.769,1.586-5.286c-1.549,1.461-2.588,3.293-2.588,5.286C93.906,7.367,98.671,2.601,104.53,2.601z"/>
		<path fill="#EDBB9A" d="M163.56,132.099c0.112-0.11,0.217-0.223,0.321-0.335C163.777,131.876,163.672,131.989,163.56,132.099z"/>
		<path fill="#EDBB9A" d="M156.813,137.324c-0.087,0.068-0.174,0.136-0.261,0.205C156.639,137.459,156.726,137.392,156.813,137.324z
			"/>
		<path fill="#EDBB9A" d="M164.357,131.217c0.094-0.116,0.186-0.233,0.271-0.351C164.542,130.984,164.451,131.101,164.357,131.217z"
			/>
		<path fill="#EDBB9A" d="M162.935,132.658c-0.109,0.093-0.211,0.187-0.328,0.277C162.724,132.844,162.826,132.75,162.935,132.658z"
			/>
	</g>
	<g>
		
			<line fill="#FDEADF" stroke="#FDEADF" stroke-width="0.5705" stroke-linecap="round" stroke-miterlimit="10" x1="94.908" y1="68.37" x2="114.152" y2="68.37"/>
		
			<line fill="#FDEADF" stroke="#FDEADF" stroke-width="0.5705" stroke-linecap="round" stroke-miterlimit="10" x1="94.908" y1="72.792" x2="114.152" y2="72.792"/>
		
			<line fill="#FDEADF" stroke="#FDEADF" stroke-width="0.5705" stroke-linecap="round" stroke-miterlimit="10" x1="94.908" y1="77.213" x2="114.152" y2="77.213"/>
		<g>
			<line fill="#FDEADF" x1="134.929" y1="141.132" x2="145.39" y2="149.456"/>
			<path fill="#FDEADF" d="M145.213,149.679l-10.461-8.324c-0.124-0.098-0.145-0.277-0.046-0.4c0.097-0.125,0.278-0.145,0.399-0.047
				l10.462,8.324L145.213,149.679z"/>
		</g>
		<g>
			<line fill="#FDEADF" x1="132.175" y1="144.591" x2="142.693" y2="152.971"/>
			<path fill="#FDEADF" d="M142.604,153.274l-10.606-8.46c-0.123-0.098-0.143-0.277-0.045-0.4c0.099-0.122,0.276-0.144,0.401-0.045
				l10.606,8.46L142.604,153.274z"/>
		</g>
		
			<path fill="#FDEADF" stroke="#FDEADF" stroke-width="2.0045" stroke-linecap="round" stroke-linejoin="round" stroke-miterlimit="10" d="
			M94.908,13.226c0-5.315,4.308-9.623,9.622-9.623l0,0c5.313,0,9.622,4.308,9.622,9.623v9.943H94.908V13.226z"/>
		<path fill="#FDEADF" d="M94.908,13.226c0-5.315,4.308-9.623,9.622-9.623l0,0c5.313,0,9.622,4.308,9.622,9.623"/>
		
			<path fill="#FDEADF" stroke="#FDEADF" stroke-width="0.5705" stroke-linecap="round" stroke-linejoin="round" stroke-miterlimit="10" d="
			M150.984,142.574c2.437-2.469,5.012-4.718,7.597-6.602l0.299-0.218l2.61-2.029c2.933-1.848,4.276-4.13,4.669-6.479
			c-4.12-4.165-10.731-4.075-14.896,0.044l-7.069,6.991c-0.395,0.39-0.398,1.023-0.009,1.417l6.766,6.842"/>
		<g>
			<path fill="#FFFFFF" d="M164.99,128.498c-3.343-3.379-10.438-4.834-13.816-1.492l0,0c4.165-4.119,10.994-4.209,15.113-0.045
				c0,0,0.173,0.193,0.173,0.265s-0.173,1.497-0.731,2.317C165.675,129.168,164.99,128.498,164.99,128.498z"/>
		</g>
		
			<path fill="#F9DFCF" stroke="#F9DFCF" stroke-width="2.0045" stroke-linecap="round" stroke-linejoin="round" stroke-miterlimit="10" d="
			M94.908,23.168v-9.943c0-5.315,4.308-9.623,9.622-9.623l0,0v19.565H94.908z"/>
		<path fill="#FFFFFF" d="M115.154,13.226L115.154,13.226c0-4.753-5.871-8.62-10.624-8.62s-10.624,3.867-10.624,8.62l0,0
			c0-5.859,4.766-10.625,10.624-10.625S115.154,7.367,115.154,13.226z"/>
	</g>
</g>
</svg>
