<svg xmlns="http://www.w3.org/2000/svg" xmlns:xlink="http://www.w3.org/1999/xlink" version="1.1" id="Layer_1" x="0px" y="0px" width="58.719px" height="100px" viewBox="20.641 0 58.719 100" enable-background="new 20.641 0 58.719 100" xml:space="preserve">
<path d="M79.36,26.669c0,14.168-11.756,22.84-22.527,25.785c0,0,0,2.587,0,6.088c0,4.649-4.076,8.752-9.35,8.752  c-5.788,0-9.338-4.393-9.338-8.973l-0.012-11.577c0-4.253,2.413-7.062,7.311-8.588c8.766-2.732,14.317-5.852,14.317-11.7  c0-7.641-7.875-8.672-11.957-7.687c-6.192,1.495-9.712,4.754-12.812,7.046c-4.076,3.014-9.385,2.066-12.321-1.647  c-3.066-3.877-2.722-9.846,1.461-13.119C29.699,6.694,38.428-1.222,54.749,0.16C69.076,1.373,79.36,13.341,79.36,26.669z"/>
<circle cx="47.178" cy="89.713" r="10.287"/>
</svg>