<?xml version="1.0" encoding="utf-8"?>
<!-- Generator: Adobe Illustrator 15.0.2, SVG Export Plug-In . SVG Version: 6.00 Build 0)  -->
<!DOCTYPE svg PUBLIC "-//W3C//DTD SVG 1.1//EN" "http://www.w3.org/Graphics/SVG/1.1/DTD/svg11.dtd">
<svg version="1.1" id="Lager_1" xmlns="http://www.w3.org/2000/svg" xmlns:xlink="http://www.w3.org/1999/xlink" x="0px" y="0px"
	 width="237.82px" height="401.79px" viewBox="0 0 237.82 401.79" enable-background="new 0 0 237.82 401.79" xml:space="preserve">
<g>
	<polyline fill="#ECEDED" points="0.78,401.01 0.78,136.988 237.507,136.988 	"/>
	<path fill="#ECEDED" d="M0.78,401.79L0.493,137.26l237.312-1.052V401.79H0 M1.56,400.229 M236.727,137.768"/>
</g>
<rect x="0.78" y="29.641" fill="#58585A" stroke="#58585A" stroke-width="0.6265" stroke-miterlimit="10" width="236.727" height="107.347"/>
<g>
	<polyline fill="#E1E2E3" points="119.143,137.573 119.143,401.01 0.78,401.01 	"/>
	<path fill="#E1E2E3" d="M0.78,401.79L0.493,137.26l118.83,0.312V401.79H0.78z"/>
</g>
<path fill="#A38978" stroke="#A38978" stroke-width="0.7141" stroke-miterlimit="10" d="M35.655,338"/>
<path fill="#C5E0E9" d="M53.613,263.344"/>
<path fill="#A38978" stroke="#A38978" stroke-width="0.7141" stroke-miterlimit="10" d="M51.856,337.684"/>
<path fill="#A38978" stroke="#A38978" stroke-width="0.7141" stroke-miterlimit="10" d="M93.372,338"/>
<path fill="#C5E0E9" d="M111.329,263.344"/>
<path fill="#A38978" stroke="#A38978" stroke-width="0.7141" stroke-miterlimit="10" d="M109.573,337.684"/>
<g>
	<g>
		
			<rect x="35.735" y="217.413" fill="#2F6982" stroke="#2F6982" stroke-width="1.56" stroke-miterlimit="10" width="17.188" height="21.992"/>
		
			<rect x="35.735" y="191.427" fill="#2F6982" stroke="#2F6982" stroke-width="1.56" stroke-miterlimit="10" width="17.188" height="21.989"/>
		
			<rect x="57.099" y="191.427" fill="#2F6982" stroke="#2F6982" stroke-width="1.56" stroke-miterlimit="10" width="17.187" height="21.989"/>
		
			<rect x="57.099" y="217.413" fill="#2F6982" stroke="#2F6982" stroke-width="1.56" stroke-miterlimit="10" width="17.187" height="21.992"/>
	</g>
	<g>
		
			<rect x="35.735" y="307.176" fill="#2F6982" stroke="#2F6982" stroke-width="1.56" stroke-miterlimit="10" width="17.188" height="21.99"/>
		
			<rect x="35.735" y="281.189" fill="#2F6982" stroke="#2F6982" stroke-width="1.56" stroke-miterlimit="10" width="17.188" height="21.988"/>
		
			<rect x="57.099" y="281.189" fill="#2F6982" stroke="#2F6982" stroke-width="1.56" stroke-miterlimit="10" width="17.187" height="21.988"/>
		
			<rect x="57.099" y="307.176" fill="#2F6982" stroke="#2F6982" stroke-width="1.56" stroke-miterlimit="10" width="17.187" height="21.99"/>
	</g>
</g>
<rect x="99.869" y="217.413" fill="#2F6982" stroke="#2F6982" stroke-width="1.56" stroke-miterlimit="10" width="17.188" height="21.992"/>
<rect x="99.869" y="191.427" fill="#2F6982" stroke="#2F6982" stroke-width="1.56" stroke-miterlimit="10" width="17.188" height="21.989"/>
<rect x="121.234" y="191.427" fill="#4A86A8" stroke="#4A86A8" stroke-width="1.56" stroke-miterlimit="10" width="17.185" height="21.989"/>
<rect x="121.234" y="217.413" fill="#4A86A8" stroke="#4A86A8" stroke-width="1.56" stroke-miterlimit="10" width="17.185" height="21.992"/>
<rect x="99.869" y="307.176" fill="#2F6982" stroke="#2F6982" stroke-width="1.56" stroke-miterlimit="10" width="17.188" height="21.99"/>
<rect x="99.869" y="281.189" fill="#2F6982" stroke="#2F6982" stroke-width="1.56" stroke-miterlimit="10" width="17.188" height="21.988"/>
<rect x="121.234" y="281.189" fill="#4A86A8" stroke="#4A86A8" stroke-width="1.56" stroke-miterlimit="10" width="17.185" height="21.988"/>
<rect x="121.234" y="307.176" fill="#4A86A8" stroke="#4A86A8" stroke-width="1.56" stroke-miterlimit="10" width="17.185" height="21.99"/>
<g>
	
		<rect x="164.003" y="217.413" fill="#4A86A8" stroke="#4A86A8" stroke-width="1.56" stroke-miterlimit="10" width="17.188" height="21.992"/>
	
		<rect x="164.003" y="191.427" fill="#4A86A8" stroke="#4A86A8" stroke-width="1.56" stroke-miterlimit="10" width="17.188" height="21.989"/>
	
		<rect x="185.368" y="191.427" fill="#4A86A8" stroke="#4A86A8" stroke-width="1.56" stroke-miterlimit="10" width="17.186" height="21.989"/>
	
		<rect x="185.368" y="217.413" fill="#4A86A8" stroke="#4A86A8" stroke-width="1.56" stroke-miterlimit="10" width="17.186" height="21.992"/>
</g>
<rect x="164.003" y="281.189" fill="#4A86A8" stroke="#4A86A8" stroke-width="1.56" stroke-miterlimit="10" width="17.188" height="21.988"/>
<rect x="185.368" y="281.189" fill="#4A86A8" stroke="#4A86A8" stroke-width="1.56" stroke-miterlimit="10" width="17.186" height="21.988"/>
<rect x="164.003" y="307.178" fill="#4A86A8" stroke="#4A86A8" stroke-width="1.56" stroke-miterlimit="10" width="17.188" height="21.988"/>
<rect x="185.368" y="307.178" fill="#4A86A8" stroke="#4A86A8" stroke-width="1.56" stroke-miterlimit="10" width="17.186" height="21.988"/>
<rect x="0.78" y="29.641" fill="#3E3D40" stroke="#3E3D40" stroke-width="0.6265" stroke-miterlimit="10" width="118.342" height="107.347"/>
<rect x="65.692" y="0.313" fill="#58585A" stroke="#58585A" stroke-width="0.6265" stroke-miterlimit="10" width="33.555" height="62"/>
</svg>
