<?xml version="1.0" encoding="utf-8"?>
<!-- Generator: Adobe Illustrator 15.0.2, SVG Export Plug-In . SVG Version: 6.00 Build 0)  -->
<!DOCTYPE svg PUBLIC "-//W3C//DTD SVG 1.1//EN" "http://www.w3.org/Graphics/SVG/1.1/DTD/svg11.dtd">
<svg version="1.1" id="Lager_1" xmlns="http://www.w3.org/2000/svg" xmlns:xlink="http://www.w3.org/1999/xlink" x="0px" y="0px"
	 width="273.74px" height="139.377px" viewBox="0 0 273.74 139.377" enable-background="new 0 0 273.74 139.377"
	 xml:space="preserve">
<g>
	<path fill="#BE3B28" d="M40.056,0.807c-3.372-2.051-8.333-0.056-11.082,4.458c-0.037,0.062-0.067,0.123-0.104,0.185
		c-0.4-0.754-0.955-1.38-1.671-1.816c-3.027-1.842-7.708,0.324-10.458,4.838c-2.746,4.515-2.52,9.668,0.508,11.513
		c3.027,1.843,7.709-0.325,10.457-4.838c0.086-0.143,0.162-0.286,0.243-0.431c0.486,1.013,1.203,1.861,2.157,2.443
		c3.373,2.053,8.333,0.055,11.082-4.459C43.936,8.184,43.429,2.862,40.056,0.807z"/>
	<g>
		<polyline fill="#F9B61E" stroke="#F9B61E" stroke-width="0.1561" stroke-miterlimit="10" points="11.602,26.36 0.329,19.697 
			15.114,20.828 		"/>
	</g>
	<g>
		<polyline fill="#F9B61E" stroke="#F9B61E" stroke-width="0.1561" stroke-miterlimit="10" points="13.564,27.608 1.052,30.318 
			11.708,22.705 		"/>
	</g>
	<g>
		<path fill="#BE3B28" d="M15.923,51.047c0,0,2.437-0.257,4.294-2.447c4.038-5.436-0.367-10.609-0.367-10.609l-7.228-9.414
			L8.408,39.671c0,0-2.73,6.222,2.699,10.268C13.516,51.501,15.923,51.047,15.923,51.047z"/>
	</g>
	<path fill="#FFFFFF" stroke="#FFFFFF" stroke-width="1.1776" stroke-miterlimit="10" d="M22.356,49.45
		c0,0-16.661,78.938,50.144,76.23c0,0,16.192-0.276,33.855-8.716c11.094-5.301,15.311-9.224,24.73-8.636
		c18.84,1.179,14.521-14.129,12.561-17.27c0,0,21.196-5.103,8.34-21.59c13.837-9.715,8.538-20.411-0.588-22.08
		c0,0,5.593-8.93,0.49-15.995c0,0-6.673-12.267-23.159,0.981c-16.486,13.247-21,19.625-28.654,20.214S81.92,44.74,72.5,37.086
		C63.08,29.432,46.298,8.53,28.929,8.824S5.96,21.775,13.72,30.217C19.314,36.303,24.219,40.913,22.356,49.45z"/>
	<path fill="#C89D64" stroke="#C89D64" stroke-width="1.1776" stroke-miterlimit="10" d="M66.897,31.593
		c-9.421-7.654-21-23.062-38.369-22.769S5.56,21.775,13.318,30.217c5.594,6.086,10.5,10.696,8.637,19.233
		c0,0,3.529,7.46,12.755,0.197c7.85,4.711,12.169-2.551,12.169-2.551s9.812,2.551,12.56-6.281
		C71.411,41.404,66.897,31.593,66.897,31.593z"/>
	<path fill="#1E1E1C" d="M16.958,18.798c0,0.886-0.723,1.606-1.607,1.606c-0.887,0-1.608-0.721-1.608-1.606
		c0-0.888,0.722-1.608,1.608-1.608C16.236,17.189,16.958,17.91,16.958,18.798z"/>
	<g>
		<path fill="#FFFFFF" stroke="#FFFFFF" stroke-width="0.6892" stroke-linejoin="round" stroke-miterlimit="10" d="M230.249,87.824
			c-1.522-1.902-2.445-4.273-2.347-7.231c2.682-1.273,4.64-1.52,7-0.893l-3.164,3.393l5.785-2.521
			c1.571,0.718,3.039,1.737,4.385,2.909l1.647,1.565c1.169,1.208,1.677,1.775,2.592,3.021l-2.354,2.883l3.72-1.004
			c2.085,3.042,3.27,5.561,3.27,5.561s-2.823-0.074-6.485-0.771l-1.339-0.275c-1.565-0.349-3.23-0.812-4.862-1.426l-0.467-5.088
			l-1.479,4.268c-1.611-0.758-3.13-1.688-4.415-2.831L230.249,87.824z"/>
		<path fill="#FFFFFF" stroke="#FFFFFF" stroke-width="0.6892" stroke-miterlimit="10" d="M244.556,91.762"/>
		<path fill="#ECECED" stroke="#ECECED" stroke-width="0.6892" stroke-linejoin="round" stroke-miterlimit="10" d="M250.782,95.507
			c0,0-1.185-2.519-3.27-5.561l-3.72,1.004l2.354-2.883c-0.915-1.245-1.423-1.812-2.592-3.021l-1.647-1.565
			c-1.346-1.172-2.813-2.191-4.385-2.909l-5.785,2.521l3.164-3.393c-2.36-0.627-4.318-0.381-7,0.893L250.782,95.507z"/>
		<path fill="#ECECED" stroke="#ECECED" stroke-width="0.6892" stroke-miterlimit="10" d="M237.628,87.946"/>
		
			<line fill="none" stroke="#D9DADB" stroke-width="0.9154" stroke-linecap="round" stroke-miterlimit="10" x1="241.058" y1="89.167" x2="220.833" y2="75.986"/>
	</g>
	<g>
		<path fill="#FFFFFF" stroke="#FFFFFF" stroke-width="0.6892" stroke-linejoin="round" stroke-miterlimit="10" d="M193.003,53.682
			c-2.419,0.284-4.918-0.188-7.376-1.837c0.339-2.95,1.168-4.742,2.948-6.412l1.203,4.48l0.924-6.242
			c1.441-0.954,3.083-1.66,4.789-2.181l2.199-0.568c1.645-0.354,2.396-0.484,3.937-0.602l1.199,3.524l1.118-3.688
			c3.684-0.159,6.447,0.169,6.447,0.169s-1.559,2.356-4.088,5.095l-0.942,0.989c-1.125,1.145-2.398,2.312-3.784,3.371l-4.562-2.297
			l2.837,3.513c-1.495,0.966-3.088,1.763-4.738,2.248L193.003,53.682z"/>
		<path fill="#FFFFFF" stroke="#FFFFFF" stroke-width="0.6892" stroke-miterlimit="10" d="M203.918,43.626"/>
		<path fill="#ECECED" stroke="#ECECED" stroke-width="0.6892" stroke-linejoin="round" stroke-miterlimit="10" d="M210.392,40.326
			c0,0-2.764-0.328-6.447-0.169l-1.118,3.688l-1.199-3.524c-1.541,0.117-2.292,0.247-3.937,0.602l-2.199,0.568
			c-1.706,0.521-3.348,1.227-4.789,2.181l-0.924,6.242l-1.203-4.48c-1.78,1.67-2.609,3.462-2.948,6.412L210.392,40.326z"/>
		<path fill="#ECECED" stroke="#ECECED" stroke-width="0.6892" stroke-miterlimit="10" d="M197.015,47.484"/>
		
			<line fill="none" stroke="#D9DADB" stroke-width="0.9154" stroke-linecap="round" stroke-miterlimit="10" x1="199.867" y1="45.221" x2="177.977" y2="55.402"/>
	</g>
	<g>
		<path fill="#FFFFFF" stroke="#FFFFFF" stroke-width="0.6892" stroke-linejoin="round" stroke-miterlimit="10" d="M190.887,79.393
			c-1.767-1.687-3.006-3.919-3.316-6.871c2.474-1.625,4.374-2.132,6.791-1.824l-2.656,3.795l5.365-3.28
			c1.652,0.503,3.243,1.318,4.734,2.303l1.843,1.335c1.322,1.043,1.903,1.539,2.979,2.654l-1.929,3.18l3.536-1.496
			c2.479,2.742,3.997,5.086,3.997,5.086s-2.8,0.305-6.513,0.103l-1.36-0.093c-1.595-0.138-3.303-0.375-5-0.767l-1.164-4.991
			l-0.871,4.437c-1.696-0.537-3.325-1.257-4.753-2.221L190.887,79.393z"/>
		<path fill="#FFFFFF" stroke="#FFFFFF" stroke-width="0.6892" stroke-miterlimit="10" d="M205.564,81.386"/>
		<path fill="#ECECED" stroke="#ECECED" stroke-width="0.6892" stroke-linejoin="round" stroke-miterlimit="10" d="M212.231,84.273
			c0,0-1.518-2.344-3.997-5.086l-3.536,1.496l1.929-3.18c-1.075-1.115-1.656-1.611-2.979-2.654l-1.843-1.335
			c-1.491-0.984-3.082-1.8-4.734-2.303l-5.365,3.28l2.656-3.795c-2.417-0.308-4.317,0.199-6.791,1.824L212.231,84.273z"/>
		<path fill="#ECECED" stroke="#ECECED" stroke-width="0.6892" stroke-miterlimit="10" d="M198.194,78.525"/>
		
			<line fill="none" stroke="#D9DADB" stroke-width="0.9154" stroke-linecap="round" stroke-miterlimit="10" x1="201.75" y1="79.278" x2="179.952" y2="68.891"/>
	</g>
	<g>
		<path fill="#FFFFFF" stroke="#FFFFFF" stroke-width="0.4866" stroke-linejoin="round" stroke-miterlimit="10" d="M258.067,77.99
			c-1.399-1.003-2.481-2.438-2.982-4.468c1.578-1.376,2.862-1.916,4.587-1.939l-1.5,2.908l3.448-2.814
			c1.205,0.188,2.399,0.602,3.538,1.142l1.42,0.752c1.026,0.597,1.48,0.886,2.342,1.559l-1.047,2.407l2.336-1.39
			c2,1.669,3.288,3.155,3.288,3.155s-1.934,0.487-4.556,0.711l-0.963,0.067c-1.131,0.061-2.352,0.063-3.578-0.044l-1.294-3.368
			l-0.186,3.182c-1.241-0.208-2.452-0.551-3.545-1.084L258.067,77.99z"/>
		<path fill="#FFFFFF" stroke="#FFFFFF" stroke-width="0.4866" stroke-miterlimit="10" d="M268.546,77.941"/>
		<path fill="#ECECED" stroke="#ECECED" stroke-width="0.4866" stroke-linejoin="round" stroke-miterlimit="10" d="M273.497,79.302
			c0,0-1.288-1.486-3.288-3.155l-2.336,1.39l1.047-2.407c-0.861-0.673-1.315-0.962-2.342-1.559l-1.42-0.752
			c-1.139-0.54-2.333-0.953-3.538-1.142l-3.448,2.814l1.5-2.908c-1.725,0.023-3.009,0.563-4.587,1.939L273.497,79.302z"/>
		<path fill="#ECECED" stroke="#ECECED" stroke-width="0.4866" stroke-miterlimit="10" d="M263.106,76.668"/>
		
			<line fill="none" stroke="#D9DADB" stroke-width="0.6463" stroke-linecap="round" stroke-miterlimit="10" x1="265.671" y1="76.846" x2="249.396" y2="71.737"/>
	</g>
	<g>
		<path fill="#FFFFFF" stroke="#FFFFFF" stroke-width="0.3936" stroke-linejoin="round" stroke-miterlimit="10" d="M227.519,60.741
			c-1.357-0.316-2.612-1.057-3.619-2.418c0.752-1.516,1.543-2.316,2.824-2.865l-0.216,2.637l1.701-3.168
			c0.96-0.231,1.98-0.292,2.999-0.239l1.295,0.124c0.954,0.129,1.383,0.204,2.236,0.44l-0.034,2.123l1.313-1.761
			c2.014,0.631,3.439,1.344,3.439,1.344s-1.294,0.961-3.184,1.938l-0.698,0.349c-0.827,0.395-1.737,0.772-2.688,1.072l-2.016-2.119
			l0.852,2.436c-0.991,0.228-2.004,0.345-2.986,0.284L227.519,60.741z"/>
		<path fill="#FFFFFF" stroke="#FFFFFF" stroke-width="0.3936" stroke-miterlimit="10" d="M235.336,57.47"/>
		<path fill="#ECECED" stroke="#ECECED" stroke-width="0.3936" stroke-linejoin="round" stroke-miterlimit="10" d="M239.458,56.958
			c0,0-1.426-0.713-3.439-1.344l-1.313,1.761l0.034-2.123c-0.854-0.236-1.282-0.312-2.236-0.44l-1.295-0.124
			c-1.019-0.053-2.039,0.008-2.999,0.239l-1.701,3.168l0.216-2.637c-1.281,0.549-2.072,1.35-2.824,2.865L239.458,56.958z"/>
		<path fill="#ECECED" stroke="#ECECED" stroke-width="0.3936" stroke-miterlimit="10" d="M230.874,58.197"/>
		
			<line fill="none" stroke="#D9DADB" stroke-width="0.5228" stroke-linecap="round" stroke-miterlimit="10" x1="232.847" y1="57.538" x2="219.094" y2="58.745"/>
	</g>
</g>
</svg>
