<?xml version="1.0" encoding="utf-8"?>
<!-- Generator: Adobe Illustrator 17.1.0, SVG Export Plug-In . SVG Version: 6.00 Build 0)  -->
<!DOCTYPE svg PUBLIC "-//W3C//DTD SVG 1.1//EN" "http://www.w3.org/Graphics/SVG/1.1/DTD/svg11.dtd">
<svg version="1.1" id="Layer_1" xmlns="http://www.w3.org/2000/svg" xmlns:xlink="http://www.w3.org/1999/xlink" x="0px" y="0px"
	 width="237.421px" height="401.357px" viewBox="0 0 237.421 401.357" enable-background="new 0 0 237.421 401.357"
	 xml:space="preserve">
<path fill="#F49F97" stroke="#F49F97" stroke-width="0.6948" stroke-miterlimit="10" d="M0.347,136.988V401.01h236.727V136.988
	H0.347z M52.49,329.166H35.302v-21.991H52.49V329.166z M52.49,303.178H35.302V281.19H52.49V303.178z M52.49,239.405H35.302v-21.992
	H52.49V239.405z M52.49,213.416H35.302v-21.989H52.49V213.416z M73.853,329.166H56.667v-21.991h17.187V329.166z M73.853,303.178
	H56.667V281.19h17.187V303.178z M73.853,239.405H56.667v-21.992h17.187V239.405z M73.853,213.416H56.667v-21.989h17.187V213.416z
	 M116.624,329.166H99.436v-21.991h17.188V329.166z M116.624,303.178H99.436V281.19h17.188V303.178z M116.624,239.405H99.436v-21.992
	h17.188V239.405z M116.624,213.416H99.436v-21.989h17.188V213.416z M137.987,329.166h-17.186v-21.991h17.186V329.166z
	 M137.987,303.178h-17.186V281.19h17.186V303.178z M137.987,239.405h-17.186v-21.992h17.186V239.405z M137.987,213.416h-17.186
	v-21.989h17.186V213.416z M180.758,329.165H163.57v-21.988h17.188V329.165z M180.758,303.178H163.57V281.19h17.188V303.178z
	 M180.758,239.405H163.57v-21.992h17.188V239.405z M180.758,213.416H163.57v-21.989h17.188V213.416z M202.121,329.165h-17.185
	v-21.988h17.185V329.165z M202.121,303.178h-17.185V281.19h17.185V303.178z M202.121,239.405h-17.185v-21.992h17.185V239.405z
	 M202.121,213.416h-17.185v-21.989h17.185V213.416z"/>
<rect x="0.347" y="29.641" fill="#3D3D3D" stroke="#3D3D3D" stroke-width="0.6265" stroke-miterlimit="10" width="236.727" height="107.347"/>
<rect x="0.347" y="29.641" fill="#010202" stroke="#010202" stroke-width="0.6265" stroke-miterlimit="10" width="118.363" height="107.619"/>
<rect x="65.259" y="0.313" fill="#3D3D3D" stroke="#3D3D3D" stroke-width="0.6265" stroke-miterlimit="10" width="33.555" height="62"/>
<path fill="#A3897B" stroke="#A3897B" stroke-width="0.7141" stroke-miterlimit="10" d="M35.222,338"/>
<path fill="#A3897B" stroke="#A3897B" stroke-width="0.7141" stroke-miterlimit="10" d="M51.424,337.684"/>
<path fill="#A3897B" stroke="#A3897B" stroke-width="0.7141" stroke-miterlimit="10" d="M92.939,338"/>
<path fill="#A3897B" stroke="#A3897B" stroke-width="0.7141" stroke-miterlimit="10" d="M109.14,337.684"/>
<path opacity="0.7" fill="#E7827E" stroke="#E7827E" stroke-width="0.6948" stroke-miterlimit="10" d="M0.347,401.01h118.363
	V137.573H0.347V401.01z M99.436,191.427h17.188v21.989H99.436V191.427z M99.436,217.412h17.188v21.992H99.436V217.412z
	 M99.436,281.19h17.188v21.988H99.436V281.19z M99.436,307.175h17.188v21.991H99.436V307.175z M56.667,191.427h17.187v21.989H56.667
	V191.427z M56.667,217.412h17.187v21.992H56.667V217.412z M56.667,281.19h17.187v21.988H56.667V281.19z M56.667,307.175h17.187
	v21.991H56.667V307.175z M35.302,191.427H52.49v21.989H35.302V191.427z M35.302,217.412H52.49v21.992H35.302V217.412z
	 M35.302,281.19H52.49v21.988H35.302V281.19z M35.302,307.175H52.49v21.991H35.302V307.175z"/>
</svg>
