<?xml version="1.0" encoding="utf-8"?>
<!-- Generator: Adobe Illustrator 17.1.0, SVG Export Plug-In . SVG Version: 6.00 Build 0)  -->
<!DOCTYPE svg PUBLIC "-//W3C//DTD SVG 1.1//EN" "http://www.w3.org/Graphics/SVG/1.1/DTD/svg11.dtd">
<svg version="1.1" id="Layer_1" xmlns="http://www.w3.org/2000/svg" xmlns:xlink="http://www.w3.org/1999/xlink" x="0px" y="0px"
	 width="237.353px" height="401.01px" viewBox="0 0 237.353 401.01" enable-background="new 0 0 237.353 401.01"
	 xml:space="preserve">
<rect x="0.313" y="29.641" fill="#7B6A58" stroke="#7B6A58" stroke-width="0.6265" stroke-miterlimit="10" width="236.727" height="107.347"/>
<rect x="0.313" y="29.641" fill="#634E42" stroke="#634E42" stroke-width="0.443" stroke-miterlimit="10" width="118.363" height="107.619"/>
<rect x="65.225" y="0.313" fill="#7B6A58" stroke="#7B6A58" stroke-width="0.6265" stroke-miterlimit="10" width="33.555" height="62"/>
<path fill="#A3897B" stroke="#A3897B" stroke-width="0.7141" stroke-miterlimit="10" d="M35.188,338"/>
<path fill="#EEE0CE" d="M0.313,136.988v0.585h118.363V401.01H237.04V136.988H0.313z M137.953,329.166h-17.185v-21.991h17.185
	V329.166z M137.953,303.178h-17.185V281.19h17.185V303.178z M137.953,239.405h-17.185v-21.992h17.185V239.405z M137.953,213.416
	h-17.185v-21.989h17.185V213.416z M180.723,329.165h-17.188v-21.988h17.188V329.165z M180.723,303.178h-17.188V281.19h17.188
	V303.178z M180.723,239.405h-17.188v-21.992h17.188V239.405z M180.723,213.416h-17.188v-21.989h17.188V213.416z M202.087,329.165
	h-17.185v-21.988h17.185V329.165z M202.087,303.178h-17.185V281.19h17.185V303.178z M202.087,239.405h-17.185v-21.992h17.185
	V239.405z M202.087,213.416h-17.185v-21.989h17.185V213.416z"/>
<path fill="#EEE0CE" d="M0.313,137.573V401.01h118.363V137.573H0.313z M52.456,329.166H35.268v-21.991h17.188V329.166z
	 M52.456,303.178H35.268V281.19h17.188V303.178z M52.456,239.405H35.268v-21.992h17.188V239.405z M52.456,213.416H35.268v-21.989
	h17.188V213.416z M73.819,329.166H56.633v-21.991h17.187V329.166z M73.819,303.178H56.633V281.19h17.187V303.178z M73.819,239.405
	H56.633v-21.992h17.187V239.405z M73.819,213.416H56.633v-21.989h17.187V213.416z M116.59,329.166H99.402v-21.991h17.188V329.166z
	 M116.59,303.178H99.402V281.19h17.188V303.178z M116.59,239.405H99.402v-21.992h17.188V239.405z M116.59,213.416H99.402v-21.989
	h17.188V213.416z"/>
<path opacity="0.33" fill="#CBBB9F" d="M0.313,137.573V401.01h118.363V137.573H0.313z M52.456,329.166H35.268v-21.991h17.188
	V329.166z M52.456,303.178H35.268V281.19h17.188V303.178z M52.456,239.405H35.268v-21.992h17.188V239.405z M52.456,213.416H35.268
	v-21.989h17.188V213.416z M73.819,329.166H56.633v-21.991h17.187V329.166z M73.819,303.178H56.633V281.19h17.187V303.178z
	 M73.819,239.405H56.633v-21.992h17.187V239.405z M73.819,213.416H56.633v-21.989h17.187V213.416z M116.59,329.166H99.402v-21.991
	h17.188V329.166z M116.59,303.178H99.402V281.19h17.188V303.178z M116.59,239.405H99.402v-21.992h17.188V239.405z M116.59,213.416
	H99.402v-21.989h17.188V213.416z"/>
</svg>
