<?xml version="1.0" encoding="utf-8"?>
<!-- Generator: Adobe Illustrator 15.0.2, SVG Export Plug-In . SVG Version: 6.00 Build 0)  -->
<!DOCTYPE svg PUBLIC "-//W3C//DTD SVG 1.1//EN" "http://www.w3.org/Graphics/SVG/1.1/DTD/svg11.dtd">
<svg version="1.1" id="Lager_1" xmlns="http://www.w3.org/2000/svg" xmlns:xlink="http://www.w3.org/1999/xlink" x="0px" y="0px"
	 width="425.874px" height="433.47px" viewBox="0 0 425.874 433.47" enable-background="new 0 0 425.874 433.47"
	 xml:space="preserve">
<g>
	<circle fill="#109BA8" cx="206.927" cy="230.773" r="128.333"/>
	<g>
		<defs>
			<circle id="SVGID_1_" cx="206.927" cy="230.773" r="128.333"/>
		</defs>
		<clipPath id="SVGID_2_">
			<use xlink:href="#SVGID_1_"  overflow="visible"/>
		</clipPath>
		
			<path clip-path="url(#SVGID_2_)" fill="#77C198" stroke="#77C198" stroke-linecap="round" stroke-linejoin="round" stroke-miterlimit="10" d="
			M170.683,191.828"/>
		
			<path clip-path="url(#SVGID_2_)" fill="#65BA88" stroke="#65BA88" stroke-linecap="round" stroke-linejoin="round" stroke-miterlimit="10" d="
			M151.371,186.733c0,0,1.15,5.587,3.123,6.573c1.972,0.986,4.273,1.973,3.78,3.453c-0.493,1.479,0,3.616-1.644,4.108
			c-1.644,0.493-3.944,1.151-5.259,1.151c-1.315,0-2.63-1.15-3.616,0c-0.987,1.15-2.958,3.944-3.945,2.466
			c-0.986-1.479-1.808-2.137,0-2.958c1.808-0.823,3.288-0.822,2.794-1.48c-0.493-0.657-0.657-0.164-1.315-0.985
			c-0.657-0.822,0.822-1.879,0.329-3.241c-0.493-1.362-1.973-2.841-0.986-3.005c0.986-0.165,2.137,1.478,2.302-0.329
			c0.164-1.808,1.15-2.465-0.494-3.78c-1.644-1.315-2.137,0.165-2.137-1.972s-0.495-2.466-1.562-3.617
			c-1.067-1.15-1.889-3.287-2.053-5.424c-0.165-2.136,2.794-1.479,2.794-3.451s0.163-2.959,1.807-2.63
			c1.645,0.329,4.602-1.439,3.616-0.062c-0.986,1.377-3.287,2.856-1.644,3.185s4.766-0.329,3.944,1.479
			c-0.821,1.808-1.91,4.602-1.695,5.423C149.727,182.46,151.371,186.733,151.371,186.733z"/>
		
			<path clip-path="url(#SVGID_2_)" fill="#65BA88" stroke="#65BA88" stroke-linecap="round" stroke-linejoin="round" stroke-miterlimit="10" d="
			M134.879,188.733c0.986,0,2.795-1.479,3.124,0c0.328,1.479,0.986,2.793,0,3.287c-0.987,0.493-1.944,1.314-1.302,2.466
			c0.644,1.15,1.616,2.793-0.021,3.45c-1.636,0.659-1.966,0.823-3.281,1.809c-1.314,0.985-2.464,1.807-3.286,1.315
			c-0.822-0.494-2.629,0.328-1.973-1.809c0.658-2.136,1.644-2.794,0.986-3.945c-0.658-1.15-2.912-1.314-1.126-2.629
			c1.784-1.315,2.441-0.493,3.428-1.315C132.414,190.541,134.879,188.733,134.879,188.733z"/>
		
			<path display="none" clip-path="url(#SVGID_2_)" fill="#77C198" stroke="#77C198" stroke-linecap="round" stroke-linejoin="round" stroke-miterlimit="10" d="
			M120.472,135.29c1.315,1.479,0.493,1.644,1.972,2.63c1.479,0.986,2.959,0.821,2.465,2.63c-0.493,1.808-2.136,5.095-3.615,5.588
			c-1.479,0.493-5.26,4.109-7.232,4.109c-1.972,0-2.465-0.164-3.944-1.15c-1.479-0.987-1.315,0.492-2.794-0.987
			c-1.479-1.479,0-0.657-0.658-2.63c-0.658-1.972-0.658-0.985-2.136-1.972c-1.479-0.986-1.314-1.644,0-1.644
			c1.315,0,2.63,0.822,1.972-0.822c-0.657-1.643-0.821-2.137-2.301-1.972c-1.479,0.164-0.658,1.644-1.479,0.164
			c-0.821-1.479-1.972-1.479,0-2.794s2.959-3.123,3.944-1.15c0.986,1.973,1.972,3.452,3.452,2.63
			c1.479-0.822,3.123-0.329,4.438-1.315c1.315-0.986,2.095-0.164,3.102-0.328C118.665,136.111,120.472,135.29,120.472,135.29z"/>
		
			<path clip-path="url(#SVGID_2_)" fill="#77C198" stroke="#77C198" stroke-linecap="round" stroke-linejoin="round" stroke-miterlimit="10" d="
			M109.131,46.126c-0.247,0.986-2.711,2.657,0,7.368c2.712,4.711,7.39,6.438,4.188,10.382c-3.202,3.944-2.894,3.452-2.185,7.396
			s7.606,1.232,2.185,7.149c-5.42,5.917-0.301,9.862-5.45,12.573c-5.148,2.712-6.134,1.48-3.915,6.903
			c2.218,5.424,4.19,10.354,2.711,11.094c-1.479,0.74-2.917,0.493-5.033,5.917c-2.116,5.424-5.321,8.382-9.759,9.615
			c-4.437,1.232-4.931-0.74-7.889,1.725c-2.958,2.465-1.726,7.396-5.178,9.615c-3.451,2.219-6.903,1.727-9.368,3.699
			s-2.465,1.479-2.958,6.41c-0.493,4.93-4.438,4.93-4.684,10.107c-0.247,5.177,2.465,8.628-1.479,9.122
			c-3.945,0.493-6.164,1.232-7.889-1.973c-1.726-3.205-1.233-1.232-5.424-7.642s-1.972-1.726-4.438-9.861
			c-2.465-8.136-5.423-9.862-3.452-15.532c1.973-5.67,6.164-10.107,5.178-13.559c-0.987-3.452,0.986-10.848-3.945-14.545
			c-4.931-3.698-6.41-0.986-6.41-8.136c0-7.15-3.944-20.956-6.903-23.174c-2.958-2.219-1.479-2.958-10.601-3.205
			c-9.122-0.246-10.601,1.479-12.82-2.219s-4.191-3.452-3.452-4.931c0.739-1.479,6.163,0,4.931-3.945
			C3.861,52.536-6.987,47.112-5.014,46.126C-3.042,45.14,109.131,46.126,109.131,46.126z"/>
		
			<path clip-path="url(#SVGID_2_)" fill="#77C198" stroke="#77C198" stroke-linecap="round" stroke-linejoin="round" stroke-miterlimit="10" d="
			M-114.722,116.389c0,0,15.286,8.382,24.161,8.875c8.875,0.493,6.41-2.466,13.806,0c7.397,2.465,10.848,8.382,15.778,3.451
			c4.931-4.93,11.834,3.452,8.875-8.382c-2.958-11.834-5.972-18.486,0.713-14.667c6.684,3.819,4.711,10.193,8.163,11.937
			c3.452,1.744,3.452-1.214,5.917,5.688c2.466,6.903-1.479-11.376,6.41-5.688c7.889,5.688,11.834,9.497,7.889,13.017
			c-3.944,3.52-12.655,15.846-18.572,19.626C-47.5,154.026-54.732,165-49.8,171.017c4.93,6.02,8.875,6.676,14.462,10.293
			c5.589,3.615,8.876-0.174,9.533,6.651c0.657,6.825,4.601,13.694,6.245,11.246c1.644-2.448-0.986-4.75,1.315-8.694
			c2.301-3.944,3.616,2.302,4.602-6.245c0.986-8.546,1.643-7.56,0-11.833c-1.644-4.273,0.657-3.389-0.329-6.79
			c-0.986-3.401,0,1.201-0.986-3.401c-0.986-4.602-3.944-5.917,0.657-5.917c4.601,0,4.945-2.629,9.047-0.329
			c4.102,2.3,7.389,2.629,7.389,5.259s1.314,9.986,1.972,9.759c0.658-0.226,1.315,1.542,3.616,0
			c2.301-1.541,1.973-6.903,4.602-5.373c2.629,1.53,4.931,11.721,7.232,14.021c2.301,2.3,5.917,7.059,7.889,8.295
			c1.972,1.236,8.875,4.195,6.903,8.798c-1.973,4.601-2.586,6.574,0.351,9.532c2.937,2.959,7.209,1.973,3.594,4.931
			c-3.616,2.958-3.616,5.26-7.889,2.958c-4.273-2.301-7.56-0.657-5.917-3.945c1.644-3.287,4.93-7.561,2.3-7.889
			c-2.629-0.329-2.63,3.474-5.917,2.558c-3.287-0.915-4.931-1.057-7.889,0c-2.958,1.058-7.56,0.73-5.588,2.373
			c1.972,1.644,3.616,1.643,4.931,5.259c1.315,3.616,5.259,5.587,1.315,6.903c-3.945,1.315,0.985-1.315-3.945,1.315
			c-4.931,2.629-6.903,4.274-8.218,5.587c-1.315,1.315,0,5.752-4.602,7.148c-4.603,1.398-6.575,3.042-6.575,5.999
			c0,2.96,4.603,3.617-0.657,7.561c-5.26,3.945-6.574,5.258-8.875,8.877c-2.301,3.614-2.301-1.315-2.301,3.614
			c0,4.932,1.644,7.235,1.315,9.535c-0.33,2.299-1.644,7.231-2.629,5.259c-0.987-1.974-2.959-2.96-2.959-5.589s2.301-3.288,0-4.273
			c-2.301-0.986-3.288-1.972-7.561-2.301c-4.272-0.328-6.575-1.973-7.889,0.329c-1.314,2.301-0.328,3.286-3.287,2.301
			c-2.958-0.986-2.302-2.304-5.588-0.986c-3.287,1.313-4.93-0.329-6.245,3.614c-1.314,3.945-0.986,4.2-1.314,7.359
			c-0.33,3.161,0,8.091,1.314,9.407c1.315,1.313,8.545,8.874,10.19,5.589c1.643-3.288,1.314-4.932,3.944-5.589
			c2.63-0.659,9.532-3.945,7.889,0c-1.644,3.943-6.012,5.915-3.169,8.217c2.841,2.301,5.799,1.974,6.786,2.958
			c0.986,0.987,2.958,1.645,2.958,2.629c0,0.986-0.658,11.505,3.287,12.165c3.944,0.656,4.931-1.318,6.246,0
			c1.315,1.312,3.945,3.613,5.917,1.97c1.973-1.642,4.289-4.602,7.075-5.917c2.787-1.312,11.991,2.631,14.62,2.303
			c2.629-0.33,10.519,0.657,12.82,2.301c2.301,1.645,9.532,5.915,11.504,6.245c1.972,0.328,9.532,12.163,12.82,13.478
			c3.288,1.313,15.45,6.246,19.395,7.561c3.945,1.314,3.616,0.658,5.917,2.63s4.602,0.329,5.917,2.628
			c1.314,2.302,1.972,5.921,0,7.562c-1.973,1.643-5.259,4.931-6.903,10.19c-1.644,5.258-0.33,4.273-1.644,8.218
			c-1.315,3.944-0.986,9.86-4.602,11.504c-3.617,1.646-5.26,0.988-7.889,2.63c-2.63,1.646-4.931-0.658-5.917,4.603
			c-0.985,5.26-0.985,4.932-2.629,8.217c-1.644,3.288-4.273,12.492-9.533,14.135c-5.259,1.645-4.931-2.299-6.903,0
			c-1.973,2.301,0,6.903-3.287,9.205c-3.287,2.301-4.273,1.315-7.231,4.273c-2.959,2.958-1.315,7.89-4.273,6.903
			c-2.958-0.986-1.973-4.676-3.616,0.128c-1.643,4.802-4.273,5.788-3.944,10.391c0.329,4.602,4.93,2.629,1.644,6.902
			c-3.287,4.274-7.889,6.575-7.232,12.163c0.658,5.588,6.903,13.806,7.232,14.792c0.329,0.986-3.288,3.945-7.889,2.302
			c-4.603-1.646-7.231-3.288-8.546-8.219c-1.315-4.932-2.958-5.918-2.629-13.148c0.328-7.232,2.958-18.737,2.3-21.696
			c-0.657-2.958-2.3-4.932-1.314-11.833c0.986-6.903,6.902-12.492,6.245-18.408c-0.658-5.915-2.958-3.615-0.658-12.819
			c2.302-9.205,6.575-13.477,2.63-17.423c-3.944-3.941-8.217-4.601-11.504-9.531s-2.63-7.231-5.588-12.163
			c-2.958-4.93-5.26-4.932-6.246-7.562c-0.986-2.629,2.3-4.271,1.643-8.215c-0.657-3.945-0.563-6.905,2.677-9.862
			c3.24-2.959,4.883-2.957,3.24-7.232c-1.644-4.272-2.207-4.272-3.24-5.26c-1.032-0.985,0.611,0.657-3.991-0.329
			c-4.603-0.984-3.616-1.312-7.232-3.285c-3.616-1.973,1.315,1.644-4.93-3.945c-6.246-5.589-10.848-9.53-16.107-10.849
			c-5.259-1.312-2.63,1.975-7.56-0.656c-4.931-2.63-8.875-4.602-11.505-6.246c-2.63-1.644-6.903,0-6.903-3.616
			c0-3.615-1.315-7.561-5.26-10.189c-3.944-2.63-4.602-2.957-6.246-5.915c-1.644-2.959-2.63-5.917-3.944-7.561
			c-1.315-1.645-2.3-4.275-3.287-2.301c-0.986,1.973-0.987,1.973,0.328,5.258c1.315,3.288,2.302,6.904,3.616,7.889
			c1.315,0.987,4.932,4.603,4.603,5.589c-0.33,0.985-3.287,6.207-4.603-0.656c-1.315-6.865-2.629-6.576-3.944-8.548
			c-1.315-1.97-1.972-3.615-3.287-6.245s-1.973-5.916-3.287-7.562c-1.314-1.642-2.301,0.659-7.232-4.93
			c-4.93-5.588-4.603-8.218-6.082-10.52c-1.479-2.3,0-122.607,0-122.607V116.389z"/>
		
			<path clip-path="url(#SVGID_2_)" fill="#77C198" stroke="#77C198" stroke-linecap="round" stroke-linejoin="round" stroke-miterlimit="10" d="
			M-115.379,104.587c1.479,1.12,8.053,3.153,7.725,0s-1.291-7.098,0.012-8.413c1.304-1.314,4.919-2.63,6.891-4.93
			c1.973-2.301,7.232-7.561,2.301-7.561s-5.346,2.302-7.439,0c-2.093-2.301-6.696-2.958-6.696-2.958s-2.301-2.629-2.793,0
			S-115.379,104.587-115.379,104.587z"/>
		
			<path clip-path="url(#SVGID_2_)" fill="#77C198" stroke="#77C198" stroke-linecap="round" stroke-linejoin="round" stroke-miterlimit="10" d="
			M-67.551,114.583c-0.986-3.945-3.616-4.685-4.931-8.916c-1.315-4.232-1.644-5.547-2.301-7.848c-0.658-2.301,5.588-1.59,0-4.904
			c-5.588-3.313-2.958,1.289-6.903,2.274c-3.945,0.986-0.657,0.001-5.588-0.328c-4.931-0.329-5.26,1.314-6.246-0.329
			s0.329-5.864-4.273-1.617c-4.603,4.247-7.889,8.024-5.259,9.916c2.629,1.892,11.176-2.567,10.847,3.442
			c-0.329,6.01-1.159,6.339-4.195,6.339c-3.037,0-4.681-2.958-4.681,0c0,2.959,4.931,7.561,6.904,7.889
			c1.972,0.329,8.218,0.987,10.847,0c2.629-0.986,4.273-0.272,7.561,0.521c3.287,0.794,8.546,0.794,8.217-1.836
			C-67.879,116.555-67.551,114.583-67.551,114.583z"/>
		
			<path clip-path="url(#SVGID_2_)" fill="#77C198" stroke="#77C198" stroke-linecap="round" stroke-linejoin="round" stroke-miterlimit="10" d="
			M-58.676,87.957c-2.301-0.986-2.629-1.972-5.917,0c-3.287,1.973-1.943,2.301-2.943,6.574c-1.001,4.273,0.313,4.273,2.286,6.246
			c1.972,1.972,1.972,1.474,4.602,5.503c2.63,4.03-0.657-1.559,1.973-4.188c2.629-2.63,6.246,0.521,3.616-4.834
			C-57.689,91.901-58.676,87.957-58.676,87.957z"/>
		
			<path clip-path="url(#SVGID_2_)" fill="#77C198" stroke="#77C198" stroke-linecap="round" stroke-linejoin="round" stroke-miterlimit="10" d="
			M-31.722,86.818c-3.944,0.81-6.245,0.864-7.56,6.096c-1.315,5.233-0.658,8.909,0,11.673c0.657,2.764,0.884,5.722,3.4,6.379
			c2.516,0.658,2.845,1.644,9.748,2.63c6.903,0.986,0.751-4.93,7.936,0c7.185,4.93,18.361,10.19,15.074,16.435
			c-3.287,6.247-0.986,9.862-5.588,9.862c-4.602,0-8.875-2.026-6.903,2.438c1.973,4.464,2.301,5.122,6.246,4.464
			c3.945-0.657,10.518,8.876,14.135,9.204c3.616,0.329,8.217,3.288,5.916-1.971c-2.3-5.26,5.51-3.288,0.619-8.875
			c-4.892-5.589-6.207-9.533-1.604-7.561c4.603,1.972,8.875,6.574,9.204,0.329c0.329-6.246-3.944-6.246-4.93-9.205
			c-0.986-2.958-4.93,2.626-6.574-7.233c-1.644-9.859-6.56-10.786-12.648-16.896c-6.088-6.112-4.445-4.14-9.375-8.741
			c-4.931-4.602-6.903-9.211-11.176-4.77c-4.273,4.441-3.615,9.043-4.273,10.358s-3.616-0.465-3.944-4.177
			C-34.351,93.545-31.722,86.818-31.722,86.818z"/>
		
			<path clip-path="url(#SVGID_2_)" fill="#77C198" stroke="#77C198" stroke-linecap="round" stroke-linejoin="round" stroke-miterlimit="10" d="
			M-29.749,142.332c0,0-8.546,3.803-3.616,7.914c4.931,4.11,4.931,1.153,8.875,1.81c3.944,0.658,8.546-1.742,4.602-4.651
			c-3.944-2.909-3.642-5.072-6.751-5.072C-29.749,142.332-29.749,142.332-29.749,142.332z"/>
		
			<path clip-path="url(#SVGID_2_)" fill="#77C198" stroke="#77C198" stroke-linecap="round" stroke-linejoin="round" stroke-miterlimit="10" d="
			M-52.102,85.327c4.603-0.986,8.876-1.972,9.205,0c0.328,1.972,3.944,2.952,0,5.749c-3.945,2.798-2.629,6.278-4.931,6.181
			c-2.301-0.096-2.63,3.711-4.274,0C-53.745,93.545-52.102,85.327-52.102,85.327z"/>
		
			<path clip-path="url(#SVGID_2_)" fill="#77C198" stroke="#77C198" stroke-linecap="round" stroke-linejoin="round" stroke-miterlimit="10" d="
			M-10.562,45.688c0,0-0.122,2.823-2.095,5.453c-1.972,2.63-2.63,0.329-3.287,6.246c-0.658,5.917,7.945,10.847-2.438,10.189
			c-10.382-0.657-6.214,3.076-16.517,0.059c-10.301-3.018-15.231-5.646-8.986-8.277c6.246-2.63,14.792-5.917,11.833-9.204
			c-2.958-3.288,0.329-4.467,0.329-4.467H-10.562z"/>
		
			<path clip-path="url(#SVGID_2_)" fill="#77C198" stroke="#77C198" stroke-linecap="round" stroke-linejoin="round" stroke-miterlimit="10" d="
			M-26.64,71.521c1.492-0.328,8.123-0.657,8.258,3.288c0.137,3.944,2.453,4.237-4.129,4.748c-6.581,0.512-7.238-0.839-10.854,0
			c-3.615,0.84-4.602,1.372-8.875,0.12c-4.274-1.252-3.833,0.562-4.71-3.796c-0.878-4.359-2.85-6.988-3.836-8.632
			c-0.986-1.644-3.945-5.587,0-3.287c3.944,2.301,6.371,7.209,10.745,7.877C-35.666,72.507-26.64,71.521-26.64,71.521z"/>
		
			<path clip-path="url(#SVGID_2_)" fill="#77C198" stroke="#77C198" stroke-linecap="round" stroke-linejoin="round" stroke-miterlimit="10" d="
			M-59.004,66.919c-1.315-1.315-1.644-5.351-4.602-3.662s-1.972,0.909-6.246,1.627c-4.273,0.72-7.889-0.392-2.63,3.944
			c5.259,4.336,7.889,2.012,7.889,3.009c0,0.998,2.559,4.614,3.58,4.614c1.022,0,1.022,3.287,2.008,0
			C-58.019,73.165-59.004,66.919-59.004,66.919z"/>
		
			<path clip-path="url(#SVGID_2_)" fill="#77C198" stroke="#77C198" stroke-linecap="round" stroke-linejoin="round" stroke-miterlimit="10" d="
			M-79.056,68.829c-3.616-3.553-2.301-6.759-4.931-5.978c-2.629,0.781-0.919,2.096-1.775,4.397
			c-0.854,2.301,0.789,2.981-3.155,3.134c-3.945,0.153-6.09-0.856-7.482,1.456c-1.393,2.313-4.524,2.97,0,3.627
			c4.523,0.658,8.139-2.63,6.167,0c-1.973,2.63-5.917,4.647-0.658,4.954c5.26,0.306,5.588-0.388,7.889-0.863
			c2.301-0.474,7.56-3.761,5.917-6.391C-78.728,70.536-79.056,68.829-79.056,68.829z"/>
		
			<path clip-path="url(#SVGID_2_)" fill="#77C198" stroke="#77C198" stroke-linecap="round" stroke-linejoin="round" stroke-miterlimit="10" d="
			M713.139,125.757c-1.479-1.479-5.422-7.077-9.861-3.785c-4.438,3.292-7.889,9.702-12.328,3.785
			c-4.436-5.917-2.957-8.382-10.352-8.382c-7.396,0-1.48-0.493-10.355,0c-8.875,0.493-8.875,0.548-16.27-0.219
			c-7.398-0.767,0.984-0.22-10.85,0c-11.834,0.219-12.818-0.767-18.242-2.74c-5.426-1.972-4.932-2.958-11.34-4.438
			c-6.412-1.479-10.355-4.566-16.766-2.283c-6.412,2.283-13.805,5.051-14.791,9.831c-0.988,4.779-6.412,6.157,0,10.646
			c6.408,4.488,10.846,6.46,7.889,8.433c-2.961,1.973-6.41,2.58-7.398,5.728c-0.984,3.147,7.398,3.805,5.918,7.914
			c-1.48,4.108-4.93-3.17-2.959,6.879c1.973,10.049,3.451,23.855,11.836,22.375c8.381-1.479,8.381-5.133,9.859-8.484
			c1.48-3.35-10.354-3.944,4.932-5.373s21.201,1.82,25.639,5.373c4.439,3.554,26.133,20.318,27.613,25.742
			c1.479,5.423,4.93,20.037,3.945,26.29c-0.988,6.251-3.945,9.211,2.463,20.058c6.41,10.849,7.396,8.383,14.793,18.737
			c7.396,10.354,12.326,16.271,12.326,14.298s-4.438-14.298-4.438-14.298s8.383,8.874,10.354,10.847
			c1.973,1.972,8.383,12.326,8.383,12.326V125.757z"/>
		
			<path clip-path="url(#SVGID_2_)" fill="#77C198" stroke="#77C198" stroke-linecap="round" stroke-linejoin="round" stroke-miterlimit="10" d="
			M713.139,104.587c0,0,1.479-11.211-2.465-13.511c-3.945-2.299-4.438,1.25-9.861,0.461c-5.424-0.789,0,6.181-10.354-1.248
			c-10.355-7.43-7.398-7.731-14.791-6.102c-7.398,1.63-10.85,0.707-8.877,9.797c1.973,9.091-1.479,14.086,5.424,10.603
			c6.902-3.484-0.986-9.4,6.902-3.484c7.891,5.917,5.916-0.494,7.891,5.917c1.971,6.41,4.436,7.396,6.408,9.862
			c1.973,2.465-5.916,9.697,3.945,4.602c9.861-5.095,9.861-6.082,12.818-7.068C713.139,113.43,713.139,104.587,713.139,104.587z"/>
		
			<path clip-path="url(#SVGID_2_)" fill="#77C198" stroke="#77C198" stroke-linecap="round" stroke-linejoin="round" stroke-miterlimit="10" d="
			M489.288,401.38c0,0-0.988,21.697-10.355,21.203c-9.369-0.493-13.807,3.451-16.764-1.974c-2.959-5.422-4.438-9.367-6.41-10.846
			s-0.492,2.957-6.41-0.986c-5.918-3.946,0.986-9.862-8.875-7.397c-9.861,2.467-12.326,5.424-16.764,6.905
			c-4.439,1.479-2.961,3.795-10.355,3.869c-7.396,0.075-7.396,5.004-7.891-2.391c-0.492-7.397,2.961-9.368,0-15.284
			c-2.957-5.919-5.027-8.878-0.047-13.808s13.361-1.479,14.842-7.396c1.479-5.916,0.984-5.423,6.408-8.875s6.904,5.422,10.355,0
			c3.451-5.425,5.916-12.326,11.834-7.397c5.916,4.932,4.436,0,5.916,4.932c1.48,4.931,1.48,8.382,5.424,5.425
			c3.945-2.959,1.973-15.704,4.438-12.044s6.902,8.098,9.369,13.028c2.465,4.932,13.312,12.327,15.285,18.245
			C491.26,392.506,489.288,401.38,489.288,401.38z"/>
		
			<path clip-path="url(#SVGID_2_)" fill="#77C198" stroke="#77C198" stroke-linecap="round" stroke-linejoin="round" stroke-miterlimit="10" d="
			M441.624,332.845c0,0,2.424,0.329,4.664,1.972c2.24,1.646,4.211,3.946,5.525,2.63c1.316-1.313,0.988-4.54,5.26-2.105
			c4.273,2.435,6.574,2.764,9.205,4.078c2.629,1.315,4.93,0.984,5.916,3.287c0.986,2.302,4.604,4.917,6.244,6.896
			c1.645,1.98,4.602,8.139,0,5.06c-4.598-3.079-5.258-4.08-9.203-5.06c-3.943-0.978-5.1,1.965-7.973,0
			c-2.873-1.966-2.217,1.98-2.873-1.966c-0.658-3.943-0.658-5.26-4.932-5.916c-4.271-0.656-6.449-1.645-7.17-2.957
			c-0.721-1.316-4.664-0.658-4.664-3.289C441.624,332.845,441.624,332.845,441.624,332.845z"/>
		
			<path clip-path="url(#SVGID_2_)" fill="#77C198" stroke="#77C198" stroke-linecap="round" stroke-linejoin="round" stroke-miterlimit="10" d="
			M412.698,318.052c-3.945,0-6.246,0.986-7.561,2.959c-1.314,1.974-3.943,3.945-6.246,4.603c-2.301,0.656-5.26,0.33-5.26,3.616
			c0,3.287-0.656,5.258,2.303,6.574c2.957,1.314,8.545,2.301,10.518,2.301s2.301-1.974,4.273-5.26
			c1.973-3.288,3.287-2.302,1.973-5.917c-1.316-3.616-1.973-4.272-0.986-6.573C412.698,318.052,412.698,318.052,412.698,318.052z"/>
		
			<path clip-path="url(#SVGID_2_)" fill="#77C198" stroke="#77C198" stroke-linecap="round" stroke-linejoin="round" stroke-miterlimit="10" d="
			M364.211,320.026c0,0,1.646-0.82,3.289,0.822s4.271,3.121,5.258,4.271s3.451,1.645,5.424,2.959
			c1.973,1.316,2.139,2.795,4.111,5.589c1.973,2.795,5.752,2.138,5.422,4.438c-0.33,2.301,0.822,6.556-1.643,6.072
			c-2.467-0.482-4.438-1.142-5.752-2.785c-1.316-1.645-4.439-4.438-5.26-6.081c-0.822-1.644-1.316-2.957-4.273-5.588
			c-2.959-2.629-3.123-3.617-5.752-5.752C362.405,321.833,364.211,320.026,364.211,320.026z"/>
		
			<path clip-path="url(#SVGID_2_)" fill="#77C198" stroke="#77C198" stroke-linecap="round" stroke-linejoin="round" stroke-miterlimit="10" d="
			M390.672,344.214c0.494,0.465,5.918,2.272,6.412,2.109c0.492-0.166,3.918-0.166,5.328,0.821s6.178,2.629,3.217,2.793
			c-2.959,0.165-3.943,0.328-5.916,0c-1.973-0.329-1.973-1.15-4.438-1.15s-5.258,0.002-6.082-0.655c-0.822-0.658,0-1.315,0-1.975
			C389.194,345.501,390.672,344.214,390.672,344.214z"/>
		
			<path clip-path="url(#SVGID_2_)" fill="#77C198" stroke="#77C198" stroke-linecap="round" stroke-linejoin="round" stroke-miterlimit="10" d="
			M432.092,350.129c-0.494-0.191-3.617-0.47-4.273,0c-0.658,0.466-3.123,1.125-3.287,2.111c-0.166,0.984-1.15,3.198,0,2.421
			s1.807-2.206,2.301-2.313c0.492-0.107,1.971,0.766,2.629,0C430.12,351.583,432.092,350.129,432.092,350.129z"/>
		
			<path clip-path="url(#SVGID_2_)" fill="#77C198" stroke="#77C198" stroke-linecap="round" stroke-linejoin="round" stroke-miterlimit="10" d="
			M419.602,290.442c-0.822,0-1.645,2.958-2.137,4.438c-0.496,1.479-0.988,0.821,0,2.628c0.984,1.81,2.465,2.96,3.121,2.467
			c0.656-0.494-0.162-2.301,0.656-3.451c0.824-1.15,1.809-2.959,1.15-4.275C421.739,290.935,419.602,290.442,419.602,290.442z"/>
		
			<path clip-path="url(#SVGID_2_)" fill="#77C198" stroke="#77C198" stroke-linecap="round" stroke-linejoin="round" stroke-miterlimit="10" d="
			M429.79,310.824c-2.299,0.492-1.805,1.477-3.121,1.643c-1.314,0.162-0.771-0.988-2.686,0c-1.916,0.985-1.816,2.466-1.373,2.299
			c0.443-0.162,1.428-0.63,1.922,0.015c0.492,0.646,1.15,2.778,2.301,3.272c1.15,0.495,3.779-0.655,2.957-2.299
			c-0.82-1.644,1.973-1.646,0.986-3.287C429.79,310.824,429.79,310.824,429.79,310.824z"/>
		
			<path clip-path="url(#SVGID_2_)" fill="#77C198" stroke="#77C198" stroke-linecap="round" stroke-linejoin="round" stroke-miterlimit="10" d="
			M418.78,333.996c1.479,0,0.984-1.644,2.629-1.15s3.666-0.256,2.574,0.529c-1.096,0.785-2.32,1.609-2.447,2.266
			s2.883,1.809,2.447,3.616c-0.439,1.808-1.006,2.628-2.447,2.464s-0.812-3.944-1.783-3.615c-0.973,0.33-2.123-1.643-2.123,0
			s0.162,2.506,0,3.637c-0.164,1.131-1.152,2.446-1.809,1.623c-0.656-0.822-0.656-1.316-0.656-3.121c0-1.809,0.818-1.645,0-2.795
			c-0.822-1.152,0.164-1.48,0-2.632c-0.168-1.149,1.818-3.301,1.729-2.799C416.807,332.517,418.78,333.996,418.78,333.996z"/>
		
			<path clip-path="url(#SVGID_2_)" fill="#77C198" stroke="#77C198" stroke-linecap="round" stroke-linejoin="round" stroke-miterlimit="10" d="
			M534.157,433.595c0.164-1.15,2.795-1.972,0.658-3.123c-2.139-1.15-2.631-1.644-3.619-0.987c-0.986,0.658-0.82,1.315-1.971,2.96
			c-1.15,1.644-1.971,1.809-3.287,3.125c-1.314,1.313-0.33,1.149-3.289,3.45c-2.957,2.301-3.779,2.464-3.941,3.942
			c-0.164,1.48,2.959,2.958,4.271,3.124c1.316,0.164,3.621,0.494,4.193-1.151c0.574-1.644,2.053-3.942,2.053-5.424
			c0-1.479,0.162-2.135,1.809-2.957C532.676,435.732,534.157,433.595,534.157,433.595z"/>
		
			<path clip-path="url(#SVGID_2_)" fill="#77C198" stroke="#77C198" stroke-linecap="round" stroke-linejoin="round" stroke-miterlimit="10" d="
			M541.059,419.954c-1.314-0.822-2.301-2.959-2.795-3.451c-0.49-0.493-1.619-1.922-2.617-3.015c-1-1.095-2.807-1.208-1.984,0
			c0.822,1.206,1.832,3.507,1.984,4.165c0.152,0.657,2.738,2.793,1.609,3.779c-1.129,0.987-0.775,1.525-1.609,2.078
			c-0.832,0.552-1.326,1.21-1,1.704c0.33,0.491,3.947,0.326,3.947,1.643c0,1.314-1.314,1.383-0.33,2.335
			c0.988,0.951,2.467,2.005,2.795,0c0.328-2.008-1.807-2.335,0-3.649c1.807-1.315,2.795-1.644,2.795-2.959
			c0-1.314,0.82-0.728-0.822-1.103C541.387,421.104,541.059,419.954,541.059,419.954z"/>
		
			<path clip-path="url(#SVGID_2_)" fill="#65BA88" stroke="#65BA88" stroke-linecap="round" stroke-linejoin="round" stroke-miterlimit="10" d="
			M136.833,252.924c-4.185,3.233-1.211,7.311-3.503,9.273c-2.292,1.964-8.217,4.076-10.532,7.684
			c-2.315,3.608-3.659,11.327-3.514,16.422c0.146,5.096-0.678,5.751-1.514,9.365c-0.835,3.61-0.178,3.45,1.617,7.071
			c1.795,3.624,8.993,12.524,12.599,15.004c0,0,8.864,2.828,14.782,2.521c5.918-0.305,9.704-1.936,9.704-1.936
			c4.772-1.626,6.754-4.083,8.55-0.789c1.795,3.295,6.642,3.994,8.121,3.904c1.479-0.088,2.028,2.873,1.982,6.077
			c-0.045,3.204-3.675,2.699-0.029,7.644s8.564,8.167,9.289,12.114c0.725,3.948,2.942,4.451,0.216,8.136
			c-2.726,3.689-3.965,5.41-3.981,9.602c-0.016,4.189,4.886,11.851,5.113,17.03c0.227,5.177-0.997,2.953,1.444,9.126
			c2.442,6.174,4.663,5.689,5.88,9.637c1.218,3.95,1.223,2.472,1.209,6.17c-0.014,3.697-4.705,5.652,3.187,4.941
			c7.893-0.708,7.875,3.728,14.305-1.671c6.43-5.399,10.635-8.835,11.884-13.021s-1.21-6.168,2.989-8.37
			c4.2-2.203,5.419,1.499,4.953-5.65c-0.467-7.152-6.889-3.973-0.459-9.373c6.431-5.397,12.092-2.663,11.873-10.309
			c-0.217-7.645-6.581-19.747-2.373-24.416c4.209-4.668,17.557-13.74,19.547-18.662c1.992-4.922,8.184-12.543,6.219-14.769
			c-1.963-2.227-4.18-2.729-6.404-1.259c-2.225,1.471-2.23,2.951-5.926,2.445c-3.695-0.508-3.201-1-5.413-2.732
			c-2.213-1.735-2.458-1.983-4.667-4.456c-2.211-2.474-3.937-2.233-5.401-6.184c-1.464-3.951-0.953-8.634-3.404-12.34
			c-2.451-3.708-2.444-5.434-4.653-8.154c-2.209-2.72-3.182-6.174-1.456-6.167s2.224-1.226,4.673,3.222
			c2.447,4.447,2.689,5.681,4.648,9.139c1.96,3.461,1.709,4.691,5.145,8.648c3.438,3.959,5.16,4.704,5.395,7.908
			c0.234,3.207-1.264,8.131,1.945,7.158s9.132-2.923,13.826-5.124c4.691-2.201,6.66-1.7,10.621-5.631
			c3.959-3.929,5.443-4.91,6.936-8.355c1.49-3.445,4.205-3.682,1.25-4.927c-2.953-1.243-3.201-0.997-4.182-2.728
			c-0.977-1.729,0.516-5.668-2.205-3.706c-2.719,1.962-3.465,3.438-5.93,3.429c-2.463-0.009-1.494,3.94-4.434-0.511
			c-2.94-4.448-1.718-2.471-4.416-5.687c-2.701-3.214-4.179-3.466-2.691-5.68c1.488-2.215,4.452-3.928,5.678-1.459
			c1.221,2.472,5.15,6.679,7.123,6.686c1.971,0.008,5.182-1.214,6.658,0.025c1.473,1.237-0.75,2.214,2.943,3.215
			c3.695,1,6.156,2.489,8.619,2.499c2.467,0.009,2.232-3.444,7.156-1.453c0,0,13.508,3.212,16.461,14.608
			c0.682,2.624,3.646,13.82,4.625,16.041c0.977,2.224,1.717,2.473,2.445,5.433c0.727,2.962,3.191,3.466,4.182,2.234
			c0.99-1.228,4.961-7.87,4.967-9.593c0.008-1.728-3.436-3.714,0.021-5.426s5.684-3.429,6.928-6.386
			c1.244-2.952,5.193-3.921,6.43-5.645c1.238-1.719,5.678-1.949,6.914-2.438c1.234-0.489,2.969-3.194,4.932-0.229
			c1.961,2.966,6.389,5.447,6.135,7.419c-0.256,1.971-0.988,5.913-0.014,6.164s0.973,0.744,2.701,0.01
			c1.729-0.733,0.256-1.971,1.729-0.733c1.477,1.237,3.434,4.698,3.924,5.685c0.488,0.989,0.477,4.439-0.025,6.658
			c-0.502,2.217-2.475,2.95,0.346,6.165c2.824,3.215,3.311,4.695,3.551,6.177c0.24,1.479-2.477,2.948-0.014,3.943
			c2.461,0.996,4.916,4.209,6.152,2.734c1.24-1.474,1.738-3.196,0.023-5.916s-3.928-4.947-4.416-5.934
			c-0.488-0.987-3.945-0.015-3.186-4.941c0.758-4.928-0.221-7.15,1.75-6.651c1.971,0.5,2.459,1.98,5.412,3.472
			s1.953,4.692,4.174,4.454c2.219-0.239,4.932-0.229,6.424-3.674c1.49-3.445,6.922-5.15,3.236-8.618
			c-3.684-3.464-6.402-1.503-5.398-6.676c1.008-5.172,1.514-9.361,3.977-8.366s4.682,0.511,9.623-1.937
			c4.939-2.445,8.631-0.706,12.844-6.36c4.211-5.654,9.174-13.771,5.984-18.222c-3.188-4.45-5.652-4.459-3.42-7.903
			c2.232-3.441,2.723-2.699,3.221-4.916c0.504-2.217,0.268-5.178-1.961-2.722c-2.229,2.458-3.463,2.945-4.441,1.219
			c-0.979-1.732-5.176-0.02-1.221-2.964c3.957-2.943,6.689-8.603,7.908-5.641c1.225,2.964,5.664,1.993,6.646,3.477
			c0.979,1.482-1.248,3.445-0.021,5.423c1.225,1.979,1.211,5.674,2.191,7.405c0.979,1.73,5.152,6.342,6.152,2.69
			c1-3.65,3.234-7.586,2.502-9.068c-0.736-1.481-1.469-2.965-2.693-5.188c-1.227-2.224-0.236-2.958,1.746-5.414
			c1.982-2.459,3.469-4.672,5.197-5.406c1.729-0.732,2.963-1.468,3.947-0.969c0.986,0.495,3.936,2.479,6.176-2.689
			c2.238-5.169,5.947-8.113,6.445-10.084c0.5-1.97,4.215-5.407,3.982-9.353c-0.234-3.946,0.033-3.205,0.039-7.396
			c0.004-4.191,1.482-4.186-0.977-5.921c-2.459-1.735,2.721-2.208-2.459-1.735c-5.178,0.473-5.42-0.76-6.404-1.011
			c-0.986-0.25-3.945-0.015-0.979-2.223c2.967-2.207,9.904-11.303,12.625-13.757c2.721-2.455-0.979-2.223,6.174-2.688
			c7.152-0.466,9.619-1.196,12.33-1.186c2.713,0.01,1.234-0.489,3.943,1c2.705,1.489,5.408,3.472,5.912,1.009
			c0.502-2.464-1.229-1.731,0.016-4.192c1.242-2.46,4.221-7.873,7.178-7.615c2.959,0.258,3.939,1.494,3.936,2.48
			s0.727,3.454,2.211,1.979c1.486-1.473,2.254-8.62,4.963-8.116c2.709,0.503,5.416,1.746,2.693,4.694
			c-2.723,2.948-4.209,4.421-5.691,5.402c-1.482,0.98-4.461,6.393-6.689,8.85c-2.227,2.457-5.195,4.911-5.449,6.635
			c-0.252,1.725-0.553,16.023-0.314,18.489c0.234,2.466,1.213,5.182,3.691,1c2.482-4.182,1.004-4.188,3.23-6.398
			c2.227-2.21,0.246,0.001,2.227-2.21c1.982-2.212,1.971,0.748,3.469-4.425c1.5-5.171,1.23,0.744,1.5-5.171
			c0.268-5.916,0.758-4.681-0.467-7.398c-1.223-2.717-0.719-5.674,4.221-7.873c4.939-2.2,10.623-5.137,11.105-2.916
			c0.484,2.22-1.256,6.405,2.455,2.72c3.713-3.683,12.619-12.032,14.344-11.779c1.725,0.253,4.668,3.962,4.189,0.509
			c-0.48-3.453,0.021-5.425-0.957-8.139c-0.973-2.716,3.729-7.628,7.424-6.875c3.697,0.754,5.668,0.515,6.402,2.244
			c0.732,1.728,4.895,9.14,5.656,3.72c0.76-5.421,5.684-3.677,5.947-8.113c0.262-4.437-2.943-3.463-8.361-5.949
			c-5.412-2.486-16.457-15.594-22.125-16.355s-7.381-3.726-10.846-0.288c-3.467,3.439-2.975,3.934-10.613,2.919
			s-8.643,3.912-13.301-3.009c-4.66-6.92-0.463-8.384-9.092-7.923c-8.631,0.46-10.594-2.258-14.525-5.726
			c-3.932-3.466-8.115-5.208-11.566-5.221c-3.451-0.013-4.672-3.469-7.148-0.027c-2.48,3.442,1.951,4.938-2.984,6.152
			c0,0-9.592-5.625-18.502,3.628c-2.449,2.542-0.744,1.23-4.178-3.468c-3.436-4.697-1.963-2.966-6.391-4.955
			c-4.43-1.989-8.635,1.09-12.811-3.061c-4.176-4.152-9.34-7.377-12.301-6.895c-2.959,0.482-3.449-0.36-6.408-0.075
			s-7.418,5.445-8.887,2.482c-1.467-2.964,2.732-5.167,5.951-8.853c3.219-3.686,11.367-7.107,7.199-12.793
			c-4.17-5.686-3.418-9.135-7.855-8.412c-4.443,0.723-4.939,1.707-6.406-1.257c-1.469-2.965-1.955-4.938-1.955-4.938
			s-2.213-1.734-6.41-0.024s-4.449,3.188-4.705,5.9c-0.258,2.71,0.721,4.439-2.73,4.672c-3.451,0.234-5.188,2.693-8.891,3.666
			c-3.699,0.972-3.197-1.984-8.881,1.692c-5.684,3.677-9.131,2.431-10.133,6.372c-1,3.941-1.004,4.927-1.258,6.652
			c-0.252,1.725,1.465,3.703-3.465,3.685s-9.105-3.732-9.127,1.691c-0.02,5.423,3.428,5.93,0.953,8.632
			c-2.477,2.702-2.725,3.194-5.182,1.459c-2.461-1.734-2.691-5.927-4.68-1.497c-1.99,4.43-1.75,6.158-4.209,4.915
			c-2.461-1.242-4.188-1.002-3.705,1.219c0.486,2.22,2.203,4.445,1.705,6.169c-0.5,1.724-2.486,5.167-0.521,7.394
			c1.965,2.226,3.188,4.203,2.186,8.144c-0.998,3.94-0.773,9.612-4.469,8.858s-1.723-0.993-0.475-4.933
			c1.246-3.939,2.979-5.166,1.512-8.869c-1.465-3.704-1.467-3.21-1.695-7.649c-0.232-4.438-0.727-3.947-0.715-7.152
			c0.014-3.205,3.973-6.888,0.775-9.119s-1.471-1.978-3.197-2.231c-1.723-0.253-4.467,7.873-5.705,9.101
			c-1.234,1.228-2.963,0.975-2.973,3.933c-0.012,2.959,1.709,4.938,2.188,8.144c0.482,3.207,2.682,8.393,0.711,7.892
			c-1.969-0.5-4.178-3.96-6.145-4.707c-1.971-0.748-5.42-1.253-6.65-1.751s-1.963-2.473-3.441-2.972
			c-1.477-0.498-4.672-2.976-4.432-1.249s0.242,1.48,1.957,3.706c1.719,2.226,4.172,4.7,1.461,4.936
			c-2.715,0.236-1.436-0.232-4.682-0.757c-4.684-0.757-10.359,0.947-10.359,0.947c-2.959,0.482-3.203-0.258-5.678,1.705
			c-2.471,1.963-5.926,2.936-5.932,4.662c-0.008,1.726,0.479,3.454-2.971,3.194s-5.172-1.499-3.688-2.48
			c1.482-0.98,6.173-2.688,3.466-3.685c-2.709-0.996-5.408-4.212-5.668-1.007c-0.258,3.204-2.228,2.457-1.496,4.678
			c0.73,2.222,4.18,2.975,1.463,4.197c0,0-7.895,1.531-7.674,8.354c0.049,1.499,0.969,4.441-1.242,2.707
			c-2.213-1.734-4.916-4.209-6.404-1.75s2.197,5.678-0.761,5.667c-2.958-0.011-4.681-0.756-4.667-4.455s0.02-5.177-0.959-7.153
			c-0.98-1.977-4.913-4.949,0.258-3.204c5.17,1.746,6.639,4.463,8.861,3.731c2.223-0.73,7.404-2.19,5.691-5.648
			c-1.713-3.458-2.442-5.926-5.639-8.157c-3.197-2.231-5.664-1.747-10.334-5.463c-4.671-3.716-7.869-5.208-7.869-5.208
			s-9.346-6.198-15.773-1.539c-6.427,4.66-12.601,7.348-19.298,18.17c-6.698,10.822-5.732,16.249-11.171,20.42
			c-5.44,4.171-8.162,6.626-8.175,10.077c-0.013,3.452-1.051,17.254,4.134,15.301c5.185-1.952,3.717-5.163,6.675-4.906
			c2.958,0.259,4.626,15.303,6.848,14.572c2.222-0.73,0.499-1.477,2.968-2.454c2.469-0.977,2.954,1.244,3.215-2.7
			c0.261-3.943,1.419-3.939,3.196-7.63c1.777-3.69,3.008-3.194,2.029-4.923c-0.979-1.729-2.292-0.501-1.998-3.212
			c0.294-2.71-1.667-5.43,1.802-10.101c3.469-4.671,5.925-2.201,5.942-6.637c0.017-4.435,1.265-8.622,4.223-8.364
			c2.957,0.258,5.918-0.471,3.933,2.974c-1.986,3.444-1.463,7.403-3.443,9.367c-1.98,1.964-3.201-1.245-3.221,4.179
			s-1.563,10.583-0.085,10.835c1.479,0.251,3.447,1.493,4.437,0.263c0.991-1.228,3.457-1.466,5.923-1.703
			c2.466-0.237,5.43-1.705,5.422,0.267c-0.007,1.973-1.25,4.68-2.483,4.675c-1.232-0.004-4.189-0.261-5.67-0.021
			c-1.481,0.242-2.958-0.257-2.966,1.961c-0.008,2.219,0.725,3.948,0.725,3.948s1.475,1.237-0.251,1.478
			c0,0-4.513-1.906-6.165-0.105c-1.649,1.802-1.245,3.529-1.245,3.529c0.233,3.451,2.703,2.528,0.97,4.467s-2.732,5.387-4.208,4.395
			c-1.476-0.991-1.791-2.718-3.731-1.247c-1.94,1.472-2.682,1.962-4.163,2.45l-10.843-1.274c-1.229-0.99-0.745,1.477-1.229-0.99
			c-0.483-2.467-0.927-0.498-0.678-1.236c0.25-0.739,0.903,0.25,0.99-1.064c0.087-1.314,0.334-1.313-0.075-1.89
			c-0.409-0.578-0.658-0.003-0.404-1.81c0.253-1.807,0.583-2.216,0.588-3.449c0.004-1.233,0.747-1.805-0.24-1.891
			c-0.985-0.086-1.646,0.569-2.552,1.058c-0.905,0.49-0.633,0.408-1.457,1.063c-0.825,0.654-1.751,0.157-1.839,1.472
			c-0.087,1.314,1.308,2.142,1.469,2.882c0.161,0.74-0.171,1.643,0.152,3.123c0.323,1.48,1.501,0.91,1.167,2.306
			c0,0-6.51,4.701-8.364,6.049c-1.854,1.349-4.581,5.324-4.581,5.324s-3.592,4.384-7.048,5.85c-3.457,1.466-6.908,1.206-8.023,2.681
			c-1.115,1.476-2.373,3.394-0.752,3.327c1.243-0.052,2.961-0.563,3.451,0.341c0,0,4.414,6.182,1.431,12.908
			c0,0-5.929-0.434-9.624,0.292c-3.694,0.725-7.386-0.932-7.402,3.506c-0.017,4.435,2.106,8.307,2.106,8.307
			s-1.49,2.708-0.841,4.681c0.65,1.976,1.964,2.307,3.115,2.147c1.151-0.158,2.466-0.187,2.466-0.187
			c1.641,0.861,1.302,3.571,3.114,2.591c1.811-0.979,2.472-1.961,4.362-1.872c1.889,0.088,3.037,0.668,3.868-1.795
			c0.832-2.46,0.991-1.309,2.896-5.247c1.905-3.937,0.42-2.3,3.883-5.408c3.463-3.11,0.92-4.187,3.801-5.492
			c2.881-1.304,1.967,1.406,5.919-0.469c3.952-1.877,4.124-4.012,6.094-3.43c1.971,0.583,5.173,1.088,5.414,2.733
			c0.241,1.643,2.12,4.608,2.856,5.188c0.738,0.576,2.708,1.162,3.609,1.986c0.9,0.823,3.938,1.495,3.928,4.205
			c-0.01,2.713-1.166,3.856-0.345,4.271c0.82,0.415,1.971,0.09,2.142-1.471c0.17-1.562,0.501-2.217,0.257-2.956
			c-0.243-0.741-1.06-1.977-0.158-1.647c0.903,0.334,2.049,1.654,2.708,1.162c0.659-0.49,0.99-1.146,0.171-1.806
			c-0.818-0.661-2.951-1.575-4.508-3.058c-1.556-1.486-2.374-2.394-3.766-3.796c-1.392-1.4-4.098-3.055-4.253-5.274
			c-0.156-2.219-0.233-3.287,0.917-3.449c1.151-0.16,1.152-0.57,2.789,1.326c1.637,1.897,1.881,2.309,4.175,4.371
			c2.292,2.064,3.608,2.07,5.082,3.636c1.473,1.566,1.644,0.088,2.207,3.048c0.564,2.962,0.395,4.192,1.295,5.184
			c0.9,0.987,0.64,4.932,1.625,4.77c0.987-0.16,1.649-1.39,3.618-0.479c1.968,0.913,4.509,2.812,4.269,1.086
			c-0.24-1.727-0.651-1.562-1.305-2.719c-0.652-1.15-3.859-0.999-1.056-3.125c2.802-2.126,1.984-3.279,4.692-2.2
			c2.708,1.078,3.854,2.148,3.515,4.942c-0.34,2.793,3.674,6.015,4.083,6.508c0.409,0.495,1.387,2.8,2.214,1.324
			c0.828-1.476,1.328-3.448,3.049-2.044c1.721,1.405,2.212,1.735,2.951,1.738c0.74,0.003,1.728-0.321,3.537-0.727
			c1.809-0.403,3.461-2.37,3.453-0.315c-0.008,2.053,0.069,3.285-0.349,5.012c-0.417,1.725-0.757,4.681-1.915,6.565
			c-1.158,1.888-1.82,3.363-3.545,3.192c-1.727-0.17-1.475-1.483-3.777-1.082c-2.302,0.401-2.633,1.084-5.18,1.061
			c-2.548-0.022-3.371,0.056-7.31-1.19c-3.94-1.248-5.495-2.814-8.126-2.413c-2.632,0.399-4.786,4.993-7.168,4.654
			c-2.382-0.337-3.29,0.646-6.157-1.666s-0.236-2.468-3.85-3.22c-3.614-0.755-3.702,0.809-4.925-1.58c0,0-2.996-11.762-8.255-11.782
			c-5.259-0.02-12.111,0.5-15.049,2.819c-2.934,2.315-2.476,2.785-5.518,3.184c-3.042,0.4-1.387,0.29-4.932,0.393
			C147.204,248.525,142.017,248.92,136.833,252.924z"/>
	</g>
	<g>
		<g>
			<g>
				<path fill="#53B36F" d="M160.607,360.937c-0.513,1.288-3.416,8.851-5.504,10.856c-5.139,4.943-14.482,1.388-14.482,1.388
					s3.463-13.333,13.513-11.383c3.932,0.766,3.746,0.672,5.007-1.58l1.065-2.798l1.52,0.578L160.607,360.937z"/>
			</g>
		</g>
		<g>
			<g>
				<path fill="#46A260" d="M160.09,366.429c-0.473,1.299-3.332,8.882-3.109,11.767c0.555,7.112,9.896,10.667,9.896,10.667
					s6.281-12.261-2.525-17.485c-3.443-2.045-3.24-1.993-2.688-4.513l2.957-7.766l-1.519-0.577L160.09,366.429z"/>
			</g>
			<g>
				<path fill="#46A260" d="M159.272,368.709c-0.997,2.845-2.451,7.396-2.291,9.486c0.555,7.112,9.896,10.667,9.896,10.667"/>
			</g>
		</g>
		<g>
			<g>
				<path fill="#53B36F" d="M152.245,380.89c-0.475,1.302-3.333,8.88-3.11,11.768c0.555,7.111,9.897,10.667,9.897,10.667
					s6.279-12.259-2.527-17.485c-3.444-2.046-3.239-1.993-2.69-4.512l2.225-5.84l-1.518-0.578L152.245,380.89z"/>
			</g>
			<g>
				<path fill="#53B36F" d="M151.424,383.172c-0.994,2.844-2.448,7.396-2.29,9.485c0.555,7.111,9.897,10.667,9.897,10.667"/>
			</g>
		</g>
	</g>
	<g>
		<g>
			<g>
				<path fill="#53B36F" d="M254.316,101.343c0.4-1.327,2.649-9.109,4.56-11.286c4.698-5.363,14.311-2.616,14.311-2.616
					s-2.315,13.58-12.494,12.492c-3.982-0.428-3.789-0.351-4.854,2l-0.823,2.878l-1.563-0.447L254.316,101.343z"/>
			</g>
		</g>
		<g>
			<g>
				<path fill="#46A260" d="M254.363,95.827c0.36-1.334,2.563-9.133,2.096-11.988c-1.157-7.04-10.769-9.786-10.769-9.786
					s-5.214,12.751,4.005,17.207c3.605,1.744,3.398,1.71,3.062,4.267l-2.284,7.99l1.562,0.446L254.363,95.827z"/>
			</g>
			<g>
				<path fill="#46A260" d="M254.984,93.485c0.75-2.919,1.812-7.578,1.475-9.646c-1.157-7.04-10.769-9.786-10.769-9.786"/>
			</g>
		</g>
		<g>
			<g>
				<path fill="#53B36F" d="M260.948,80.751c0.362-1.338,2.564-9.132,2.097-11.99c-1.157-7.039-10.769-9.786-10.769-9.786
					s-5.213,12.749,4.006,17.207c3.605,1.745,3.397,1.71,3.065,4.266l-1.72,6.008l1.562,0.447L260.948,80.751z"/>
			</g>
			<g>
				<path fill="#53B36F" d="M261.572,78.407c0.749-2.918,1.81-7.577,1.473-9.646c-1.157-7.039-10.769-9.786-10.769-9.786"/>
			</g>
		</g>
	</g>
	<g>
		<g>
			<g>
				<path fill="#46A260" d="M341.409,262.257c1.336,0.374,9.109,2.653,11.971,2.212c7.047-1.087,9.887-10.673,9.887-10.673
					s-12.699-5.334-17.244,3.839c-1.777,3.59-1.74,3.385-4.295,3.021l-2.871-0.85l-0.461,1.559L341.409,262.257z"/>
			</g>
		</g>
		<g>
			<g>
				<path fill="#53B36F" d="M346.09,265.179c1.318,0.412,9.08,2.739,11.238,4.666c5.318,4.755,2.479,14.338,2.479,14.338
					s-13.557-2.443-12.371-12.614c0.463-3.979,0.385-3.783-1.955-4.873l-7.967-2.361l0.461-1.559L346.09,265.179z"/>
			</g>
			<g>
				<path fill="#53B36F" d="M348.397,265.912c2.869,0.934,7.369,2.539,8.932,3.934c5.318,4.755,2.479,14.338,2.479,14.338"/>
			</g>
		</g>
		<g>
			<g>
				<path fill="#53B36F" d="M362.346,267.714c1.322,0.411,9.078,2.737,11.24,4.665c5.318,4.755,2.479,14.341,2.479,14.341
					s-13.559-2.446-12.369-12.617c0.461-3.979,0.383-3.783-1.955-4.874l-5.994-1.773l0.463-1.56L362.346,267.714z"/>
			</g>
			<g>
				<path fill="#53B36F" d="M364.655,268.445c2.865,0.936,7.367,2.541,8.932,3.935c5.318,4.755,2.479,14.341,2.479,14.341"/>
			</g>
		</g>
	</g>
	<g>
		
			<rect x="79.29" y="120.779" transform="matrix(0.6155 -0.7882 0.7882 0.6155 -78.0298 119.2261)" fill="#B08048" width="7.768" height="37.604"/>
		
			<rect x="80.036" y="122.309" transform="matrix(0.6155 -0.7881 0.7881 0.6155 -79.693 118.8578)" fill="#905F37" width="3.885" height="37.604"/>
		
			<path fill="#53B06E" stroke="#53B06E" stroke-width="0.0743" stroke-linecap="round" stroke-linejoin="round" stroke-miterlimit="10" d="
			M68.674,78.773c-8.008-6.254-19.571-4.832-25.825,3.177c-1.185,1.518-2.093,3.163-2.734,4.875
			c-7.948-5.425-18.85-3.813-24.856,3.878c-6.254,8.009-4.831,19.571,3.177,25.825c1.621,1.265,3.389,2.212,5.228,2.857
			c-6.18,8.006-4.741,19.508,3.239,25.74c8.008,6.255,19.57,4.832,25.824-3.177c2.096-2.684,3.325-5.767,3.737-8.917
			c5.812,0.322,11.683-2.107,15.537-7.042c5.166-6.616,5.089-15.654,0.392-22.125C78.012,95.897,76.441,84.838,68.674,78.773z"/>
		
			<path fill="#46A260" stroke="#46A260" stroke-width="0.0743" stroke-linecap="round" stroke-linejoin="round" stroke-miterlimit="10" d="
			M15.259,90.703c-6.254,8.009-4.831,19.571,3.177,25.825c1.621,1.265,3.389,2.212,5.228,2.857
			c-6.18,8.006-4.741,19.508,3.239,25.74c8.008,6.255,19.57,4.832,25.824-3.177c2.096-2.684,3.325-5.767,3.737-8.917
			c4.591,0.255,9.218-1.208,12.859-4.266c0,0-51.509-40.223-51.819-40.465C16.5,89.027,15.259,90.703,15.259,90.703z"/>
	</g>
	<g>
		
			<rect x="331.122" y="292.483" transform="matrix(-0.515 0.8572 -0.8572 -0.515 765.071 173.8074)" fill="#B08048" width="4.486" height="21.716"/>
		
			<rect x="332.821" y="291.521" transform="matrix(-0.5153 0.857 -0.857 -0.5153 765.1699 172.017)" fill="#905F37" width="2.244" height="21.716"/>
		
			<path fill="#53B06E" stroke="#53B06E" stroke-width="0.0429" stroke-linecap="round" stroke-linejoin="round" stroke-miterlimit="10" d="
			M345.95,337.178c5.031,3.021,11.559,1.394,14.58-3.637c0.574-0.953,0.979-1.96,1.225-2.986c4.938,2.549,11.072,0.859,13.977-3.97
			c3.021-5.033,1.393-11.559-3.637-14.58c-1.02-0.612-2.1-1.031-3.199-1.271c2.98-5.024,1.348-11.516-3.664-14.527
			c-5.031-3.022-11.559-1.394-14.58,3.636c-1.012,1.687-1.5,3.54-1.516,5.374c-3.354,0.223-6.549,2.029-8.412,5.128
			c-2.494,4.157-1.814,9.332,1.332,12.711C339.393,328.017,341.071,334.248,345.95,337.178z"/>
		
			<path fill="#46A260" stroke="#46A260" stroke-width="0.0429" stroke-linecap="round" stroke-linejoin="round" stroke-miterlimit="10" d="
			M375.731,326.585c3.021-5.033,1.393-11.559-3.637-14.58c-1.02-0.612-2.1-1.031-3.199-1.271c2.98-5.024,1.348-11.516-3.664-14.527
			c-5.031-3.022-11.559-1.394-14.58,3.636c-1.012,1.687-1.5,3.54-1.516,5.374c-2.648,0.177-5.197,1.341-7.07,3.35
			c0,0,32.352,19.434,32.547,19.552C375.137,327.631,375.731,326.585,375.731,326.585z"/>
	</g>
	<g>
		
			<rect x="292.733" y="93.782" transform="matrix(0.7885 0.615 -0.615 0.7885 129.7374 -158.8972)" fill="#B08048" width="6.371" height="30.837"/>
		
			<rect x="293.07" y="92.802" transform="matrix(0.7885 0.615 -0.615 0.7885 128.8695 -158.332)" fill="#905F37" width="3.185" height="30.837"/>
		
			<path fill="#53B06E" stroke="#53B06E" stroke-width="0.061" stroke-linecap="round" stroke-linejoin="round" stroke-miterlimit="10" d="
			M345.774,97.281c5.127-6.571,3.953-16.052-2.615-21.176c-1.248-0.971-2.596-1.714-4.002-2.239
			c4.445-6.521,3.117-15.459-3.191-20.381c-6.57-5.125-16.051-3.952-21.174,2.618c-1.039,1.331-1.814,2.78-2.342,4.289
			c-6.566-5.063-16-3.879-21.104,2.669c-5.127,6.569-3.953,16.051,2.615,21.175c2.203,1.716,4.732,2.723,7.314,3.06
			c-0.262,4.767,1.732,9.579,5.783,12.737c5.426,4.231,12.838,4.166,18.143,0.31C331.735,104.947,340.805,103.653,345.774,97.281z"
			/>
		
			<path fill="#46A260" stroke="#46A260" stroke-width="0.061" stroke-linecap="round" stroke-linejoin="round" stroke-miterlimit="10" d="
			M335.965,53.485c-6.57-5.125-16.051-3.952-21.174,2.618c-1.039,1.331-1.814,2.78-2.342,4.289c-6.566-5.063-16-3.879-21.104,2.669
			c-5.127,6.569-3.953,16.051,2.615,21.175c2.203,1.716,4.732,2.723,7.314,3.06c-0.207,3.764,0.994,7.558,3.504,10.542
			c0,0,32.957-42.258,33.156-42.513C337.338,54.502,335.965,53.485,335.965,53.485z"/>
	</g>
	<g>
		<g>
			
				<rect x="97.119" y="324.336" transform="matrix(-0.7157 -0.6984 0.6984 -0.7157 -65.1414 659.9559)" fill="#905F36" width="9.276" height="37.801"/>
			
				<rect x="101.096" y="325.955" transform="matrix(-0.7157 -0.6984 0.6984 -0.7157 -63.4038 663.9041)" fill="#804E29" width="4.64" height="37.801"/>
		</g>
		<g>
			<polygon fill="#53B06D" stroke="#53B06D" stroke-width="0.1822" stroke-miterlimit="10" points="69.163,348.809 96.672,375.649 
				65.295,380.291 			"/>
			
				<polygon fill="#46A260" stroke="#46A260" stroke-width="0.2054" stroke-linecap="round" stroke-linejoin="round" stroke-miterlimit="10" points="
				96.672,375.649 65.295,380.291 82.918,362.228 			"/>
		</g>
		<g>
			<polygon fill="#53B06D" stroke="#53B06D" stroke-width="0.2252" stroke-miterlimit="10" points="74.106,337.356 107.999,370.426 
				69.212,376.273 			"/>
			
				<polygon fill="#46A260" stroke="#46A260" stroke-width="0.2538" stroke-linecap="round" stroke-linejoin="round" stroke-miterlimit="10" points="
				107.999,370.426 69.212,376.273 91.051,353.89 			"/>
		</g>
		<g>
			<polygon fill="#53B06D" stroke="#53B06D" stroke-width="0.2624" stroke-miterlimit="10" points="79.062,326.2 119.03,365.2 
				73.889,371.482 			"/>
			
				<polygon fill="#46A260" stroke="#46A260" stroke-width="0.2957" stroke-linecap="round" stroke-linejoin="round" stroke-miterlimit="10" points="
				119.03,365.2 73.889,371.482 99.045,345.699 			"/>
		</g>
		<g>
			<polygon fill="#53B06D" stroke="#53B06D" stroke-width="0.2898" stroke-miterlimit="10" points="84.6,316.36 128.733,359.421 
				78.889,366.359 			"/>
			
				<polygon fill="#46A260" stroke="#46A260" stroke-width="0.3266" stroke-linecap="round" stroke-linejoin="round" stroke-miterlimit="10" points="
				128.733,359.421 78.889,366.359 106.667,337.889 			"/>
		</g>
		<g>
			<polygon fill="#53B06D" stroke="#53B06D" stroke-width="0.1435" stroke-miterlimit="10" points="64.765,359.5 86.09,380.309 
				61.337,384.346 			"/>
			
				<polygon fill="#46A260" stroke="#46A260" stroke-width="0.1617" stroke-linecap="round" stroke-linejoin="round" stroke-miterlimit="10" points="
				86.09,380.309 61.337,384.346 75.428,369.905 			"/>
		</g>
	</g>
	<g>
		<g>
			
				<rect x="199.987" y="57.025" transform="matrix(0.9987 0.0501 -0.0501 0.9987 4.062 -10.1591)" fill="#905F36" width="9.276" height="37.801"/>
			
				<rect x="199.99" y="56.909" transform="matrix(0.9987 0.0501 -0.0501 0.9987 4.0517 -10.0395)" fill="#804E29" width="4.64" height="37.801"/>
		</g>
		<g>
			<polygon fill="#53B06D" stroke="#53B06D" stroke-width="0.1822" stroke-miterlimit="10" points="225.375,50.181 186.991,48.259 
				207.445,24.017 			"/>
			
				<polygon fill="#46A260" stroke="#46A260" stroke-width="0.2054" stroke-linecap="round" stroke-linejoin="round" stroke-miterlimit="10" points="
				186.991,48.259 207.445,24.017 206.183,49.221 			"/>
		</g>
		<g>
			<polygon fill="#53B06D" stroke="#53B06D" stroke-width="0.2252" stroke-miterlimit="10" points="229.248,62.039 181.953,59.67 
				207.167,29.622 			"/>
			
				<polygon fill="#46A260" stroke="#46A260" stroke-width="0.2538" stroke-linecap="round" stroke-linejoin="round" stroke-miterlimit="10" points="
				181.953,59.67 207.167,29.622 205.602,60.854 			"/>
		</g>
		<g>
			<polygon fill="#53B06D" stroke="#53B06D" stroke-width="0.2624" stroke-miterlimit="10" points="232.914,73.683 177.141,70.888 
				206.83,36.308 			"/>
			
				<polygon fill="#46A260" stroke="#46A260" stroke-width="0.2957" stroke-linecap="round" stroke-linejoin="round" stroke-miterlimit="10" points="
				177.141,70.888 206.83,36.308 205.029,72.286 			"/>
		</g>
		<g>
			<polygon fill="#53B06D" stroke="#53B06D" stroke-width="0.2898" stroke-miterlimit="10" points="235.272,84.726 173.689,81.64 
				206.471,43.458 			"/>
			
				<polygon fill="#46A260" stroke="#46A260" stroke-width="0.3266" stroke-linecap="round" stroke-linejoin="round" stroke-miterlimit="10" points="
				173.689,81.64 206.471,43.458 204.481,83.184 			"/>
		</g>
		<g>
			<polygon fill="#53B06D" stroke="#53B06D" stroke-width="0.1435" stroke-miterlimit="10" points="221.599,39.254 191.841,37.763 
				207.729,18.358 			"/>
			
				<polygon fill="#46A260" stroke="#46A260" stroke-width="0.1617" stroke-linecap="round" stroke-linejoin="round" stroke-miterlimit="10" points="
				191.841,37.763 207.729,18.358 206.72,38.509 			"/>
		</g>
	</g>
	<g>
		<g>
			
				<rect x="93.023" y="31.667" transform="matrix(0.8781 -0.4784 0.4784 0.8781 -20.8272 67.4027)" fill="#EEE1CD" stroke="#EEE1CD" stroke-width="0.2766" stroke-miterlimit="10" width="57.722" height="85.828"/>
			
				<rect x="94.781" y="38.571" transform="matrix(0.8781 -0.4785 0.4785 0.8781 -25.675 62.1844)" opacity="0.33" fill="#CABB9D" stroke="#CABB9D" stroke-width="0.1956" stroke-miterlimit="10" width="28.861" height="85.828"/>
		</g>
		
			<rect x="66.23" y="12.317" transform="matrix(0.8781 -0.4784 0.4784 0.8781 -0.5646 48.5916)" fill="#796955" stroke="#796955" stroke-width="0.1528" stroke-miterlimit="10" width="57.723" height="26.175"/>
		<path fill="#A38977" stroke="#A38977" stroke-width="0.1741" stroke-miterlimit="10" d="M117.188,108.512"/>
		<path fill="#C5E0E9" d="M112.324,90.433"/>
		<path fill="#A38977" stroke="#A38977" stroke-width="0.1741" stroke-miterlimit="10" d="M120.62,106.555"/>
		<path fill="#A38977" stroke="#A38977" stroke-width="0.1741" stroke-miterlimit="10" d="M129.547,101.779"/>
		<path fill="#C5E0E9" d="M124.682,83.7"/>
		<path fill="#A38977" stroke="#A38977" stroke-width="0.1741" stroke-miterlimit="10" d="M132.978,99.821"/>
		<g>
			
				<rect x="104.165" y="81.354" transform="matrix(0.8781 -0.4785 0.4785 0.8781 -27.256 61.0881)" fill="#867263" width="4.191" height="5.362"/>
			
				<rect x="101.134" y="75.791" transform="matrix(0.8781 -0.4784 0.4784 0.8781 -24.9612 58.9464)" fill="#867263" width="4.191" height="5.361"/>
			
				<rect x="105.708" y="73.298" transform="matrix(0.8781 -0.4785 0.4785 0.8781 -23.2128 60.8445)" fill="#867263" width="4.191" height="5.361"/>
			
				<rect x="108.74" y="78.862" transform="matrix(0.8782 -0.4783 0.4783 0.8782 -25.5029 62.9518)" fill="#867263" width="4.191" height="5.362"/>
		</g>
		
			<rect x="117.897" y="73.872" transform="matrix(0.8781 -0.4784 0.4784 0.8781 -22.001 66.7324)" fill="#867263" width="4.191" height="5.362"/>
		
			<rect x="114.866" y="68.309" transform="matrix(0.8781 -0.4784 0.4784 0.8781 -19.7084 64.6041)" fill="#867263" width="4.191" height="5.361"/>
		
			<rect x="119.441" y="65.817" transform="matrix(0.8782 -0.4784 0.4784 0.8782 -17.9589 66.4824)" fill="#A38977" width="4.19" height="5.361"/>
		
			<rect x="122.472" y="71.38" transform="matrix(0.8781 -0.4785 0.4785 0.8781 -20.2518 68.6318)" fill="#A38977" width="4.191" height="5.363"/>
		<g>
			
				<rect x="131.629" y="66.39" transform="matrix(0.8782 -0.4783 0.4783 0.8782 -16.7487 72.3817)" fill="#A38977" width="4.191" height="5.363"/>
			
				<rect x="128.598" y="60.826" transform="matrix(0.8781 -0.4784 0.4784 0.8781 -14.4554 70.2687)" fill="#A38977" width="4.192" height="5.362"/>
			
				<rect x="133.173" y="58.335" transform="matrix(0.8781 -0.4785 0.4785 0.8781 -12.7051 72.163)" fill="#A38977" width="4.19" height="5.361"/>
			
				<rect x="136.204" y="63.898" transform="matrix(0.8781 -0.4784 0.4784 0.8781 -14.9982 74.2834)" fill="#A38977" width="4.19" height="5.363"/>
		</g>
		<g>
			
				<rect x="93.694" y="62.134" transform="matrix(0.8781 -0.4785 0.4785 0.8781 -19.3368 53.7414)" fill="#867263" width="4.191" height="5.363"/>
			
				<rect x="90.662" y="56.571" transform="matrix(0.8781 -0.4784 0.4784 0.8781 -17.0427 51.5949)" fill="#867263" width="4.191" height="5.362"/>
			
				<rect x="95.237" y="54.079" transform="matrix(0.8781 -0.4784 0.4784 0.8781 -15.2931 53.486)" fill="#867263" width="4.19" height="5.361"/>
			
				<rect x="98.269" y="59.642" transform="matrix(0.878 -0.4786 0.4786 0.878 -17.5868 55.6332)" fill="#867263" width="4.19" height="5.363"/>
		</g>
		
			<rect x="107.426" y="54.653" transform="matrix(0.8781 -0.4784 0.4784 0.8781 -14.0824 59.3811)" fill="#867263" width="4.191" height="5.362"/>
		
			<rect x="104.395" y="49.089" transform="matrix(0.8781 -0.4784 0.4784 0.8781 -11.79 57.2527)" fill="#867263" width="4.191" height="5.361"/>
		
			<rect x="108.969" y="46.597" transform="matrix(0.8781 -0.4784 0.4784 0.8781 -10.0403 59.1375)" fill="#A38977" width="4.191" height="5.362"/>
		
			<rect x="112.001" y="52.161" transform="matrix(0.8781 -0.4785 0.4785 0.8781 -12.3321 61.2798)" fill="#A38977" width="4.19" height="5.362"/>
		<g>
			
				<rect x="121.158" y="47.172" transform="matrix(0.8781 -0.4784 0.4784 0.8781 -8.8294 65.0461)" fill="#A38977" width="4.19" height="5.362"/>
			
				<rect x="118.127" y="41.608" transform="matrix(0.8782 -0.4783 0.4783 0.8782 -6.5394 62.8974)" fill="#A38977" width="4.191" height="5.361"/>
			
				<rect x="122.701" y="39.115" transform="matrix(0.8781 -0.4784 0.4784 0.8781 -4.7865 64.8024)" fill="#A38977" width="4.19" height="5.361"/>
			
				<rect x="125.733" y="44.679" transform="matrix(0.8781 -0.4785 0.4785 0.8781 -7.0781 66.9384)" fill="#A38977" width="4.19" height="5.362"/>
		</g>
		<g>
			
				<rect x="114.637" y="100.574" transform="matrix(0.8781 -0.4785 0.4785 0.8781 -35.1778 68.4501)" fill="#867263" width="4.191" height="5.362"/>
			
				<rect x="111.605" y="95.009" transform="matrix(0.8781 -0.4784 0.4784 0.8781 -32.8814 66.3057)" fill="#867263" width="4.19" height="5.363"/>
			
				<rect x="116.18" y="92.517" transform="matrix(0.8781 -0.4785 0.4785 0.8781 -31.1326 68.1979)" fill="#867263" width="4.191" height="5.362"/>
			
				<rect x="119.211" y="98.082" transform="matrix(0.8782 -0.4783 0.4783 0.8782 -33.4208 70.3026)" fill="#867263" width="4.191" height="5.362"/>
		</g>
		
			<rect x="128.369" y="93.093" transform="matrix(0.8781 -0.4784 0.4784 0.8781 -29.9212 74.0931)" fill="#867263" width="4.19" height="5.362"/>
		
			<rect x="125.338" y="87.528" transform="matrix(0.878 -0.4786 0.4786 0.878 -27.6311 71.9887)" fill="#867263" width="4.19" height="5.362"/>
		
			<rect x="129.912" y="85.035" transform="matrix(0.8781 -0.4785 0.4785 0.8781 -25.879 73.8576)" fill="#A38977" width="4.19" height="5.363"/>
		
			<rect x="132.943" y="90.6" transform="matrix(0.8781 -0.4785 0.4785 0.8781 -28.1719 75.9854)" fill="#A38977" width="4.191" height="5.362"/>
		
			<rect x="145.974" y="83.297" transform="matrix(0.8781 -0.4784 0.4784 0.8781 -26.9618 83.6345)" fill="#A38977" width="9.4" height="22.88"/>
		
			<rect x="139.069" y="80.046" transform="matrix(0.8781 -0.4784 0.4784 0.8781 -22.3749 77.621)" fill="#A38977" width="4.192" height="5.362"/>
		
			<rect x="143.644" y="77.554" transform="matrix(0.8781 -0.4784 0.4784 0.8781 -20.625 79.4995)" fill="#A38977" width="4.19" height="5.362"/>
		
			<rect x="67.989" y="19.221" transform="matrix(0.8781 -0.4784 0.4784 0.8781 -5.4125 43.3691)" fill="#604D40" stroke="#604D40" stroke-width="0.108" stroke-miterlimit="10" width="28.862" height="26.175"/>
		
			<rect x="77.082" y="10.989" transform="matrix(0.8781 -0.4785 0.4785 0.8781 1.0199 41.0995)" fill="#796955" stroke="#796955" stroke-width="0.1528" stroke-miterlimit="10" width="8.182" height="15.118"/>
		
			<rect x="146.261" y="84.422" transform="matrix(0.8781 -0.4784 0.4784 0.8781 -27.7508 82.7768)" fill="#867263" width="4.699" height="22.88"/>
	</g>
	<g>
		<polygon fill="#ECECED" stroke="#ECECED" stroke-width="0.348" stroke-miterlimit="10" points="255.731,360.709 305.991,327.279 
			324.354,354.89 311.057,389.395 274.094,388.323 		"/>
		<polygon opacity="0.7" fill="#D9DADB" stroke="#D9DADB" stroke-width="0.348" stroke-miterlimit="10" points="280.858,343.996 
			305.991,327.279 324.354,354.89 311.057,389.395 		"/>
		<g>
			
				<rect x="304.439" y="342.39" transform="matrix(-0.8326 0.5539 -0.5539 -0.8326 753.7645 463.1948)" fill="#868789" stroke="#868789" stroke-width="0.2827" stroke-linecap="round" stroke-linejoin="round" stroke-miterlimit="10" width="4.882" height="6.249"/>
			
				<rect x="308.526" y="348.539" transform="matrix(-0.8326 0.5539 -0.5539 -0.8326 764.6613 472.1971)" fill="#868789" stroke="#868789" stroke-width="0.2827" stroke-linecap="round" stroke-linejoin="round" stroke-miterlimit="10" width="4.882" height="6.246"/>
			
				<rect x="303.471" y="351.899" transform="matrix(-0.8326 0.5539 -0.5539 -0.8326 757.2531 481.1816)" fill="#868789" stroke="#868789" stroke-width="0.2827" stroke-linecap="round" stroke-linejoin="round" stroke-miterlimit="10" width="4.884" height="6.248"/>
			
				<rect x="299.38" y="345.752" transform="matrix(-0.8326 0.5538 -0.5538 -0.8326 746.3467 472.2063)" fill="#868789" stroke="#868789" stroke-width="0.2827" stroke-linecap="round" stroke-linejoin="round" stroke-miterlimit="10" width="4.886" height="6.249"/>
		</g>
		<g>
			
				<polygon fill="#868789" stroke="#868789" stroke-width="0.2827" stroke-linecap="round" stroke-linejoin="round" stroke-miterlimit="10" points="
				288.165,354.212 292.227,351.507 295.69,356.71 291.622,359.415 			"/>
			
				<rect x="293.573" y="358.485" transform="matrix(-0.8325 0.5541 -0.5541 -0.8325 742.7905 498.6318)" fill="#868789" stroke="#868789" stroke-width="0.2827" stroke-linecap="round" stroke-linejoin="round" stroke-miterlimit="10" width="4.882" height="6.246"/>
			
				<rect x="288.52" y="361.848" transform="matrix(-0.8326 0.5539 -0.5539 -0.8326 735.3696 507.6699)" fill="#9C9C9E" stroke="#9C9C9E" stroke-width="0.2827" stroke-linecap="round" stroke-linejoin="round" stroke-miterlimit="10" width="4.882" height="6.247"/>
			
				<rect x="284.428" y="355.7" transform="matrix(-0.8325 0.5541 -0.5541 -0.8325 724.4913 498.5981)" fill="#9C9C9E" stroke="#9C9C9E" stroke-width="0.2827" stroke-linecap="round" stroke-linejoin="round" stroke-miterlimit="10" width="4.882" height="6.25"/>
		</g>
		
			<polygon fill="#9C9C9E" stroke="#9C9C9E" stroke-width="0.2827" stroke-linecap="round" stroke-linejoin="round" stroke-miterlimit="10" points="
			262.283,356.349 271.405,350.285 285.909,372.086 276.786,378.15 		"/>
		
			<polygon fill="#868789" stroke="#868789" stroke-width="0.2827" stroke-linecap="round" stroke-linejoin="round" stroke-miterlimit="10" points="
			266.842,353.316 271.405,350.285 285.909,372.086 281.346,375.116 		"/>
		
			<polyline fill="none" stroke="#5A595B" stroke-width="3.0805" stroke-linecap="round" stroke-linejoin="round" stroke-miterlimit="10" points="
			324.942,353.11 311.057,389.395 271.93,388.366 		"/>
		<g>
			<circle fill="#9C9C9E" cx="303.083" cy="377.72" r="4.506"/>
			<path fill="#868789" d="M300.586,373.967c2.072-1.379,4.869-0.814,6.248,1.258c1.379,2.07,0.814,4.868-1.258,6.245
				L300.586,373.967z"/>
		</g>
		
			<polygon fill="#5A595B" stroke="#5A595B" stroke-width="0.6846" stroke-linecap="round" stroke-linejoin="round" stroke-miterlimit="10" points="
			316.854,373.97 320.315,365.361 326.133,374.107 319.762,378.347 		"/>
	</g>
	<g>
		<polygon fill="#ECECED" stroke="#ECECED" stroke-width="0.4252" stroke-miterlimit="10" points="63.888,234.409 85.963,304.788 
			47.301,316.911 11.352,289.536 25.223,246.533 		"/>
		<polygon opacity="0.7" fill="#D9DADB" stroke="#D9DADB" stroke-width="0.4252" stroke-miterlimit="10" points="74.925,269.593 
			85.963,304.788 47.301,316.911 11.352,289.536 		"/>
		<g>
			
				<rect x="61.281" y="295.79" transform="matrix(-0.2994 -0.9541 0.9541 -0.2994 -202.3619 450.6223)" fill="#868789" stroke="#868789" stroke-width="0.3454" stroke-linecap="round" stroke-linejoin="round" stroke-miterlimit="10" width="5.966" height="7.636"/>
			
				<rect x="52.672" y="298.489" transform="matrix(-0.2995 -0.9541 0.9541 -0.2995 -216.1107 445.9351)" fill="#868789" stroke="#868789" stroke-width="0.3454" stroke-linecap="round" stroke-linejoin="round" stroke-miterlimit="10" width="5.966" height="7.633"/>
			
				<rect x="50.453" y="291.411" transform="matrix(-0.2993 -0.9542 0.9542 -0.2993 -212.266 434.5749)" fill="#868789" stroke="#868789" stroke-width="0.3454" stroke-linecap="round" stroke-linejoin="round" stroke-miterlimit="10" width="5.968" height="7.635"/>
			
				<rect x="59.06" y="288.709" transform="matrix(-0.2993 -0.9542 0.9542 -0.2993 -198.5069 439.2728)" fill="#868789" stroke="#868789" stroke-width="0.3454" stroke-linecap="round" stroke-linejoin="round" stroke-miterlimit="10" width="5.97" height="7.636"/>
		</g>
		<g>
			
				<polygon fill="#868789" stroke="#868789" stroke-width="0.3454" stroke-linecap="round" stroke-linejoin="round" stroke-miterlimit="10" points="
				60.445,274.68 62.232,280.37 54.945,282.658 53.161,276.961 			"/>
			
				<rect x="46.106" y="277.551" transform="matrix(-0.2995 -0.9541 0.9541 -0.2995 -204.6605 412.4739)" fill="#868789" stroke="#868789" stroke-width="0.3454" stroke-linecap="round" stroke-linejoin="round" stroke-miterlimit="10" width="5.965" height="7.633"/>
			
				<rect x="43.883" y="270.472" transform="matrix(-0.2995 -0.9541 0.9541 -0.2995 -200.8014 401.1425)" fill="#9C9C9E" stroke="#9C9C9E" stroke-width="0.3454" stroke-linecap="round" stroke-linejoin="round" stroke-miterlimit="10" width="5.966" height="7.634"/>
			
				<polygon fill="#9C9C9E" stroke="#9C9C9E" stroke-width="0.3454" stroke-linecap="round" stroke-linejoin="round" stroke-miterlimit="10" points="
				58.225,267.601 60.012,273.292 52.724,275.574 50.939,269.883 			"/>
		</g>
		
			<polygon fill="#9C9C9E" stroke="#9C9C9E" stroke-width="0.3454" stroke-linecap="round" stroke-linejoin="round" stroke-miterlimit="10" points="
			66.769,243.583 70.772,256.356 40.242,265.934 36.241,253.162 		"/>
		
			<polygon fill="#868789" stroke="#868789" stroke-width="0.3454" stroke-linecap="round" stroke-linejoin="round" stroke-miterlimit="10" points="
			68.772,249.968 70.772,256.356 40.242,265.934 38.245,259.547 		"/>
		
			<polyline fill="none" stroke="#5A595B" stroke-width="3.7642" stroke-linecap="round" stroke-linejoin="round" stroke-miterlimit="10" points="
			49.189,318.208 11.352,289.536 25.911,243.978 		"/>
		<g>
			<circle fill="#9C9C9E" cx="27.772" cy="284.163" r="5.506"/>
			<path fill="#868789" d="M33.027,282.514c0.911,2.902-0.706,5.992-3.608,6.902c-2.9,0.911-5.99-0.706-6.899-3.606L33.027,282.514z
				"/>
		</g>
		
			<polygon fill="#5A595B" stroke="#5A595B" stroke-width="0.8365" stroke-linecap="round" stroke-linejoin="round" stroke-miterlimit="10" points="
			27.473,301.601 36.393,308.599 24.146,312.443 21.344,303.52 		"/>
	</g>
	<g>
		
			<rect x="341.535" y="167.472" transform="matrix(0.1979 0.9802 -0.9802 0.1979 488.1448 -202.7083)" fill="#F29F95" stroke="#F29F95" stroke-width="0.155" stroke-miterlimit="10" width="52.795" height="58.885"/>
		
			<rect x="382.127" y="176.75" transform="matrix(0.1978 0.9802 -0.9802 0.1978 512.6898 -249.0668)" fill="#796955" stroke="#796955" stroke-width="0.1397" stroke-miterlimit="10" width="52.795" height="23.94"/>
		
			<rect x="392.685" y="163.788" transform="matrix(0.1978 0.9802 -0.9802 0.1978 497.8937 -256.851)" fill="#604D40" stroke="#604D40" stroke-width="0.1397" stroke-miterlimit="10" width="26.397" height="24.002"/>
		
			<rect x="414.533" y="171.494" transform="matrix(0.1981 0.9802 -0.9802 0.1981 510.2879 -266.9198)" fill="#796955" stroke="#796955" stroke-width="0.1397" stroke-miterlimit="10" width="7.483" height="13.828"/>
		
			<rect x="352.058" y="154.612" transform="matrix(0.1978 0.9802 -0.9802 0.1978 473.3438 -210.4485)" opacity="0.7" fill="#E5827D" stroke="#E5827D" stroke-width="0.155" stroke-miterlimit="10" width="26.397" height="58.755"/>
		<path fill="#A28878" stroke="#A28878" stroke-width="0.1593" stroke-miterlimit="10" d="M349.165,181.708"/>
		<path fill="#C5DFE9" d="M366.276,182.34"/>
		<path fill="#A28878" stroke="#A28878" stroke-width="0.1593" stroke-miterlimit="10" d="M349.948,185.235"/>
		<path fill="#A28878" stroke="#A28878" stroke-width="0.1593" stroke-miterlimit="10" d="M351.709,194.326"/>
		<path fill="#C5DFE9" d="M368.825,194.957"/>
		<path fill="#A28878" stroke="#A28878" stroke-width="0.1593" stroke-miterlimit="10" d="M352.495,197.854"/>
		<g>
			<g>
				
					<rect x="371.587" y="176.317" transform="matrix(0.1977 0.9803 -0.9803 0.1977 474.8985 -222.7063)" fill="#A04A46" width="3.833" height="4.904"/>
				
					<rect x="377.269" y="175.169" transform="matrix(0.1978 0.9803 -0.9803 0.1978 478.3118 -229.2011)" fill="#A04A46" width="3.832" height="4.904"/>
				
					<rect x="378.211" y="179.841" transform="matrix(0.1977 0.9803 -0.9803 0.1977 483.6563 -226.3755)" fill="#A04A46" width="3.833" height="4.902"/>
				
					<rect x="372.53" y="180.986" transform="matrix(0.1977 0.9803 -0.9803 0.1977 480.2328 -219.8846)" fill="#A04A46" width="3.833" height="4.904"/>
			</g>
			<g>
				
					<rect x="351.964" y="180.278" transform="matrix(0.1977 0.9803 -0.9803 0.1977 463.0282 -200.2955)" fill="#A04A46" width="3.833" height="4.903"/>
				
					<rect x="357.646" y="179.131" transform="matrix(0.1977 0.9803 -0.9803 0.1977 466.4716 -206.7826)" fill="#A04A46" width="3.833" height="4.903"/>
				
					<rect x="358.589" y="183.801" transform="matrix(0.1977 0.9803 -0.9803 0.1977 471.8069 -203.9601)" fill="#A04A46" width="3.833" height="4.904"/>
				
					<rect x="352.907" y="184.947" transform="matrix(0.1982 0.9802 -0.9802 0.1982 468.1805 -197.5273)" fill="#A04A46" width="3.833" height="4.905"/>
			</g>
		</g>
		
			<rect x="374.419" y="190.336" transform="matrix(0.1978 0.9802 -0.9802 0.1978 490.8824 -214.2419)" fill="#A04A46" width="3.832" height="4.906"/>
		
			<rect x="380.099" y="189.189" transform="matrix(0.1982 0.9802 -0.9802 0.1982 494.1198 -220.7835)" fill="#A04A46" width="3.832" height="4.906"/>
		
			<rect x="381.04" y="193.861" transform="matrix(0.1972 0.9804 -0.9804 0.1972 499.8868 -217.8395)" fill="#B46057" width="3.833" height="4.902"/>
		
			<rect x="375.361" y="195.007" transform="matrix(0.1977 0.9803 -0.9803 0.1977 496.2367 -211.4134)" fill="#B46057" width="3.833" height="4.904"/>
		
			<rect x="354.794" y="194.298" transform="matrix(0.1978 0.9803 -0.9803 0.1978 479.0324 -191.8248)" fill="#A04A46" width="3.832" height="4.904"/>
		
			<rect x="360.477" y="193.15" transform="matrix(0.1978 0.9803 -0.9803 0.1978 482.4671 -198.3151)" fill="#A04A46" width="3.832" height="4.905"/>
		
			<rect x="361.419" y="197.821" transform="matrix(0.1977 0.9803 -0.9803 0.1977 487.8208 -195.4862)" fill="#B46057" width="3.833" height="4.904"/>
		
			<rect x="355.737" y="198.967" transform="matrix(0.1982 0.9802 -0.9802 0.1982 484.1915 -189.0599)" fill="#B46057" width="3.833" height="4.906"/>
		<g>
			<g>
				
					<rect x="377.248" y="204.357" transform="matrix(0.1977 0.9803 -0.9803 0.1977 506.9277 -205.7588)" fill="#B46057" width="3.833" height="4.906"/>
				
					<rect x="382.928" y="203.21" transform="matrix(0.1982 0.9802 -0.9802 0.1982 510.1627 -212.307)" fill="#B46057" width="3.834" height="4.905"/>
				
					<rect x="383.871" y="207.881" transform="matrix(0.1982 0.9802 -0.9802 0.1982 515.4855 -209.4891)" fill="#B46057" width="3.833" height="4.904"/>
				
					<rect x="378.19" y="209.028" transform="matrix(0.1977 0.9803 -0.9803 0.1977 512.2725 -202.9322)" fill="#B46057" width="3.833" height="4.904"/>
			</g>
			
				<rect x="363.306" y="207.171" transform="matrix(0.1977 0.9803 -0.9803 0.1977 498.5 -189.8342)" fill="#B46057" width="3.833" height="4.904"/>
			
				<rect x="364.248" y="211.843" transform="matrix(0.1977 0.9803 -0.9803 0.1977 503.8244 -187.0142)" fill="#B46057" width="3.833" height="4.902"/>
			
				<rect x="357.624" y="208.318" transform="matrix(0.1977 0.9803 -0.9803 0.1977 495.0658 -183.3447)" fill="#B46057" width="3.833" height="4.904"/>
			
				<rect x="358.567" y="212.987" transform="matrix(0.1982 0.9802 -0.9802 0.1982 500.2031 -180.5922)" fill="#B46057" width="3.833" height="4.906"/>
		</g>
	</g>
	<g>
		<g>
			<g>
				<path fill="#53B06E" d="M69.952,200.522c-2.296-0.592-15.749-3.877-19.606-6.985c-9.497-7.645-5.489-24.256-5.489-24.256
					s23.356,2.979,22.231,20.449c-0.448,6.834-0.327,6.498,3.764,8.151l4.979,1.198l-0.653,2.704L69.952,200.522z"/>
			</g>
		</g>
		<g>
			<g>
				<path fill="#44A160" d="M60.525,200.837c-2.303-0.524-15.783-3.728-20.63-2.724c-11.939,2.48-15.946,19.096-15.946,19.096
					s22.156,7.996,29.111-8.074c2.721-6.284,2.674-5.927,7.068-5.539l13.812,3.331l0.651-2.7L60.525,200.837z"/>
			</g>
			<g>
				<path fill="#44A160" d="M56.483,199.942c-5.042-1.073-13.077-2.557-16.588-1.829c-11.939,2.48-15.946,19.096-15.946,19.096"/>
			</g>
		</g>
		<path fill="#905C9E" d="M5.833,172.193l16.866,4.131c7.521,1.842,12.314,8.668,10.703,15.245l0,0
			c-1.611,6.577-9.015,10.415-16.537,8.572L0,196.01l12.012-9.681L5.833,172.193z"/>
		<path fill="#814892" d="M33.402,191.569L33.402,191.569c-1.611,6.577-9.015,10.415-16.537,8.572L0,196.01l12.012-9.681
			L33.402,191.569z"/>
	</g>
	<g>
		<g>
			<g>
				<path fill="#53B06E" d="M321.657,151.708c1.637-1.091,11.109-7.588,15.164-8.253c9.979-1.639,18.027,10.027,18.027,10.027
					s-14.764,12.787-24.938,2.426c-3.977-4.057-3.834-3.796-7.121-2.183l-3.492,2.416l-1.311-1.899L321.657,151.708z"/>
			</g>
		</g>
		<g>
			<g>
				<path fill="#44A160" d="M326.678,145.708c1.598-1.135,11.033-7.692,13.096-11.244c5.072-8.751-2.979-20.419-2.979-20.419
					s-17.199,9.27-11.115,22.458c2.377,5.158,2.182,4.932-0.488,7.432l-9.699,6.693l1.309,1.896L326.678,145.708z"/>
			</g>
			<g>
				<path fill="#44A160" d="M329.467,143.705c3.451-2.521,8.812-6.668,10.307-9.24c5.072-8.751-2.979-20.419-2.979-20.419"/>
			</g>
		</g>
		<path fill="#E74E3E" d="M374.637,127.756l-11.883,8.137c-5.301,3.629-12.172,2.814-15.344-1.819l0,0
			c-3.174-4.635-1.449-11.333,3.852-14.963l11.883-8.137l-0.662,12.78L374.637,127.756z"/>
		<path fill="#BF3A29" d="M347.411,134.073L347.411,134.073c-3.174-4.635-1.449-11.333,3.852-14.963l11.883-8.137l-0.662,12.78
			L347.411,134.073z"/>
	</g>
	<g>
		<g>
			<g>
				<path fill="#53B06E" d="M212.818,370.303c0.05,2.156,0.507,14.752-1.259,18.898c-4.341,10.212-19.88,10.816-19.88,10.816
					s-3.179-21.191,12.398-24.534c6.095-1.302,5.77-1.323,6.206-5.316l-0.187-4.656l2.529-0.099L212.818,370.303z"/>
			</g>
		</g>
		<g>
			<g>
				<path fill="#44A160" d="M215.429,378.479c0.112,2.146,0.647,14.746,2.728,18.741c5.128,9.841,20.671,9.232,20.671,9.232
					s1.512-21.384-14.283-23.491c-6.177-0.826-5.852-0.873-6.6-4.817l-0.507-12.919l-2.524,0.098L215.429,378.479z"/>
			</g>
			<g>
				<path fill="#44A160" d="M215.648,382.241c0.31,4.681,1.002,12.086,2.509,14.979c5.128,9.841,20.671,9.232,20.671,9.232"/>
			</g>
		</g>
		<path fill="#F0C30E" d="M203.897,433.47l-0.561-15.793c-0.25-7.043,4.54-12.932,10.698-13.149l0,0
			c6.158-0.219,11.355,5.313,11.605,12.356l0.561,15.793l-11.454-8.12L203.897,433.47z"/>
		<path fill="#F49D17" d="M214.034,404.528L214.034,404.528c6.158-0.219,11.355,5.313,11.605,12.356l0.561,15.793l-11.454-8.12
			L214.034,404.528z"/>
	</g>
</g>
</svg>
