<?xml version="1.0" encoding="utf-8"?>
<!-- Generator: Adobe Illustrator 15.0.2, SVG Export Plug-In . SVG Version: 6.00 Build 0)  -->
<!DOCTYPE svg PUBLIC "-//W3C//DTD SVG 1.1//EN" "http://www.w3.org/Graphics/SVG/1.1/DTD/svg11.dtd">
<svg version="1.1" id="Lager_1" xmlns="http://www.w3.org/2000/svg" xmlns:xlink="http://www.w3.org/1999/xlink" x="0px" y="0px"
	 width="576.78px" height="173.309px" viewBox="0 0 576.78 173.309" enable-background="new 0 0 576.78 173.309"
	 xml:space="preserve">
<g>
	
		<path fill="#FFFFFF" stroke="#FFFFFF" stroke-width="1.1833" stroke-linecap="round" stroke-linejoin="round" stroke-miterlimit="10" d="
		M33.821,115.092c4.307,0,8.425,0.818,12.217,2.292c2.147-23.657,22.086-42.255,46.292-42.255c7.945,0,15.431,2.006,21.979,5.534
		c7.991-22.702,29.639-39.022,55.038-39.022c32.17,0,58.34,26.17,58.34,58.339c0,2.564-0.184,5.084-0.506,7.561
		c4.896-2.229,10.326-3.481,16.046-3.481c21.427,0,38.858,17.433,38.858,38.859c0,10.381-4.041,20.139-11.382,27.479
		c-1.483,1.484-3.497,2.317-5.597,2.317L13.36,172.717c-0.002,0-0.002,0-0.003,0c-2.442,0-4.748-1.128-6.247-3.056
		C2.458,163.679,0,156.506,0,148.914C0,130.264,15.171,115.092,33.821,115.092z"/>
	<path fill="#FFFFFF" d="M224.254,85.584c-0.016-0.682-0.051-1.36-0.051-2.046C224.203,37.475,261.678,0,307.741,0
		c32.344,0,60.434,18.49,74.308,45.443c11.038-11.004,26.192-17.549,42.141-17.549c28.198,0,52.167,19.438,58.169,46.667
		c8.271-3.474,17.032-5.232,26.09-5.232c37.352,0,67.74,30.389,67.74,67.74c0,11.714-3.039,23.26-8.787,33.387
		c-0.789,1.393-2.274,2.258-3.875,2.258H225.398l-36.727,0.004h-0.001c-1.269,0-2.48-0.543-3.323-1.488
		c-8.43-9.44-13.071-21.615-13.071-34.282C172.276,109.735,191.801,83.538,224.254,85.584z"/>
</g>
</svg>
