<?xml version="1.0" encoding="utf-8"?>
<!-- Generator: Adobe Illustrator 17.1.0, SVG Export Plug-In . SVG Version: 6.00 Build 0)  -->
<!DOCTYPE svg PUBLIC "-//W3C//DTD SVG 1.1//EN" "http://www.w3.org/Graphics/SVG/1.1/DTD/svg11.dtd">
<svg version="1.1" xmlns="http://www.w3.org/2000/svg" xmlns:xlink="http://www.w3.org/1999/xlink" x="0px" y="0px"
	 width="258.547px" height="257.317px" viewBox="0 0 258.547 257.317" enable-background="new 0 0 258.547 257.317"
	 xml:space="preserve">
<g id="Lager_1">
	
		<rect x="-238.892" y="-33.878" display="none" fill="#00A096" stroke="#00A096" stroke-width="4.8284" stroke-miterlimit="10" width="776.961" height="392.157"/>
	<rect x="23.639" y="106.901" fill="#D9DADB" width="67.64" height="131.979"/>
	<rect x="23.639" y="106.901" fill="#B1B3B4" width="33.82" height="131.979"/>
	
		<rect x="11.583" y="238.88" fill="#B1B3B4" stroke="#B1B3B4" stroke-width="4" stroke-linecap="round" stroke-linejoin="round" stroke-miterlimit="10" width="242.132" height="16.438"/>
	<rect x="47.126" y="215.752" fill="#3E3D40" width="20.5" height="10.5"/>
	<circle fill="#AA0D23" cx="74.727" cy="221.002" r="2.602"/>
	<rect x="47.126" y="215.752" fill="#282829" width="10.25" height="10.5"/>
	<path opacity="0.85" fill="#E0F2FB" d="M229.476,135.314h-97.7c-6.665,0-10.053,1.371-13.116,6.363
		c-0.284,0.462,0.191,0.714,0.191,0.714c7.366,2.652,7.95,9.896,7.95,9.896v74.195c0,2.748,2.228,4.975,4.975,4.975H224.5
		c2.748,0,4.976-2.228,4.976-4.975V140.29V135.314z"/>
	<line opacity="0.85" fill="#E0F2FB" x1="222.336" y1="141.814" x2="133.102" y2="141.915"/>
	<path opacity="0.85" fill="#E0F2FB" d="M128.893,135.423c-4.907,0.546-6.253,1.757-7.749,3.077
		c9.364,3.05,9.988,10.584,10.217,13.419l0.015,0.183v74.38c0,0.221,0.18,0.4,0.4,0.4H224.5c0.221,0,0.4-0.18,0.4-0.4V140.29
		l-0.001-4.976"/>
	<path fill="#3E3D40" d="M254.382,135.314h-20.655h-4.165v54.22c0,2.296,1.868,4.165,4.165,4.165h20.655
		c2.297,0,4.165-1.869,4.165-4.165v-50.055C258.547,137.182,256.679,135.314,254.382,135.314z M252.007,186.492h-15.906V142.52
		h15.906V186.492z"/>
	<rect x="125.984" y="231.458" fill="#3E3D40" width="104.348" height="5.5"/>
	<rect x="125.984" y="231.458" fill="#282829" width="54.021" height="5.5"/>
	<polyline opacity="0.85" fill="#E0F2FB" stroke="#E0F2FB" stroke-width="1.1418" stroke-miterlimit="10" points="57.459,17.151 
		57.459,106.336 19.915,106.336 2.661,17.151 108.949,17.151 112.256,17.151 95.001,106.336 19.915,106.336 2.661,17.151 	"/>
	<polygon opacity="0.7" fill="#F5FBFE" stroke="#F5FBFE" stroke-width="1.1418" stroke-miterlimit="10" points="91.462,101.478 
		106.544,17.151 8.375,17.151 23.538,101.695 90.748,101.695 91.419,101.695 	"/>
	<polygon opacity="0.12" fill="#05BAE9" stroke="#05BAE9" stroke-width="1.045" stroke-miterlimit="10" points="57.459,17.151 
		2.661,17.151 19.915,106.336 57.459,106.336 	"/>
	<polygon fill="#3E3D40" points="109.756,12.682 109.756,12.682 109.756,0 5.161,0 5.161,12.682 0,14.265 0,17.151 5.161,17.151 
		109.756,17.151 114.917,17.151 114.917,14.265 	"/>
	<polygon fill="#91D4F2" stroke="#91D4F2" stroke-width="1.1418" stroke-miterlimit="10" points="91.462,101.478 91.419,101.695 
		90.748,101.695 23.538,101.695 15.476,56.745 99.463,56.745 	"/>
	<polygon fill="#282829" points="57.914,17.151 5.161,17.151 0,17.151 0,14.265 5.161,12.682 5.161,0 57.913,0 	"/>
	<path fill="#3E3D40" d="M109.756,12.682"/>
	<path fill="#3E3D40" d="M250.864,15.908h-13.402h-7.796h-3.871h-107.26l26,64.166v27.504h66.927V80.074l23.286-57.468h13.909
		v43.806h5.81h0.268V19.779C254.735,17.645,252.999,15.908,250.864,15.908z"/>
	<polygon fill="#282829" points="180.004,15.908 118.535,15.908 144.535,80.075 144.535,107.579 180.004,107.579 180.004,18.575 	
		"/>
	<rect x="91.278" y="112.817" fill="#3E3D40" width="120.094" height="12"/>
	<path fill="#05BAE9" stroke="#05BAE9" stroke-width="0.9155" stroke-miterlimit="10" d="M180.201,231.458"/>
	<path opacity="0.12" fill="#05BAE9" d="M180.004,135.314h-48.229c-6.665,0-10.053,1.371-13.116,6.363
		c-0.284,0.462,0.191,0.714,0.191,0.714c7.366,2.652,7.95,9.896,7.95,9.896v74.195c0,2.748,2.228,4.975,4.975,4.975h48.229"/>
	<path fill="#673B15" d="M131.376,187.595v38.888c0,0.221,0.18,0.4,0.4,0.4H224.5c0.221,0,0.4-0.18,0.4-0.4v-38.888H131.376z"/>
	<path fill="#41281B" d="M131.376,187.595v38.888c0,0.221,0.094,0.4,0.21,0.4h48.406c0.115,0,0.209-0.18,0.209-0.4v-38.888H131.376z
		"/>
	<polygon fill="#42AED4" stroke="#42AED4" stroke-width="1.1418" stroke-miterlimit="10" points="57.914,101.695 23.538,101.695 
		15.476,56.745 57.914,56.745 	"/>
</g>
<g id="Knapp_på">
	<circle fill="#E7511E" cx="74.727" cy="221.002" r="2.602"/>
	<path opacity="0.53" fill="#E7511E" d="M79.248,220.999c0,2.498-2.026,4.523-4.521,4.523c-2.497,0-4.521-2.025-4.521-4.523
		c0-2.494,2.023-4.518,4.521-4.518C77.222,216.481,79.248,218.505,79.248,220.999z"/>
</g>
</svg>
