<?xml version="1.0" encoding="utf-8"?>
<!-- Generator: Adobe Illustrator 15.0.2, SVG Export Plug-In . SVG Version: 6.00 Build 0)  -->
<!DOCTYPE svg PUBLIC "-//W3C//DTD SVG 1.1//EN" "http://www.w3.org/Graphics/SVG/1.1/DTD/svg11.dtd">
<svg version="1.1" id="Lager_1" xmlns="http://www.w3.org/2000/svg" xmlns:xlink="http://www.w3.org/1999/xlink" x="0px" y="0px"
	 width="634.965px" height="298.481px" viewBox="0 0 634.965 298.481" enable-background="new 0 0 634.965 298.481"
	 xml:space="preserve">
<g>
	<path opacity="0.9" fill="#A1887A" stroke="#A1887A" stroke-width="0.9314" stroke-miterlimit="10" d="M294.291,214.923"/>
	<path opacity="0.93" fill="#C5DFE8" d="M317.713,117.556"/>
	<path opacity="0.9" fill="#A1887A" stroke="#A1887A" stroke-width="0.9314" stroke-miterlimit="10" d="M315.422,214.507"/>
	
		<rect x="1.066" y="76.463" fill="#C6C6C8" stroke="#C6C6C8" stroke-width="2.1327" stroke-miterlimit="10" width="632.832" height="14.993"/>
	
		<rect x="1.066" y="76.463" fill="#B1B3B3" stroke="#B1B3B3" stroke-width="2.1327" stroke-miterlimit="10" width="316.42" height="14.993"/>
	<rect x="38.07" y="245.55" fill="#E85340" width="102.711" height="30.08"/>
	<path fill="#FFFFFF" stroke="#FFFFFF" stroke-width="1.5081" stroke-miterlimit="10" d="M317.482,92.935v204.163h311.41V92.935
		H317.482z M582.902,246.55h-81.229V129.518h81.229V246.55z"/>
	<rect x="190.262" y="245.55" fill="#E85340" width="102.711" height="30.08"/>
	<path fill="#F5F5F6" d="M3.568,92.259v206.222h314.817V92.259H3.568z M140.781,245.55H38.07V122.267h102.711V245.55z
		 M292.973,245.55H190.262V122.267h102.711V245.55z"/>
	<g>
		<path opacity="0.93" fill="#C5DFE8" d="M369.619,115.979"/>
		<path opacity="0.9" fill="#A1887A" stroke="#A1887A" stroke-width="0.9314" stroke-miterlimit="10" d="M375.842,215.402"/>
		<path opacity="0.9" fill="#A1887A" stroke="#A1887A" stroke-width="0.9314" stroke-miterlimit="10" d="M396.967,214.989"/>
		
			<rect x="346.615" y="122.746" fill="#FFFFFF" stroke="#E85340" stroke-width="4.7829" stroke-miterlimit="10" width="92.736" height="151.308"/>
		<g>
			<g>
				<path fill="#58585B" d="M376.552,170.535v35.621h-2.034v-18.14h-15.612v18.14h-2.033v-25.174c0-3.961,1.263-7.203,3.793-9.73
					c2.525-2.531,5.699-3.798,9.507-3.798C372.958,167.454,375.083,168.481,376.552,170.535z M374.518,185.979v-14.674
					c-1.177-1.21-2.662-1.813-4.452-1.813c-3.226,0-5.895,1.174-8.002,3.516c-2.105,2.346-3.158,5.024-3.158,8.025v4.946H374.518z
					 M361.266,160.529h2.094v3.633h-2.094V160.529z M370.612,160.529h2.092v3.633h-2.092V160.529z"/>
				<path fill="#58585B" d="M402.99,176.199l-2.034-0.057c-0.33-1.978-1.146-3.547-2.449-4.696
					c-1.297-1.157-2.755-1.734-4.363-1.734c-2.717,0-4.862,1.384-6.434,4.151c-1.578,2.766-2.365,5.942-2.365,9.534
					c0,7.296,1.256,12.501,3.765,15.615c2.512,3.112,6.462,4.817,11.847,5.11v-15.117h-5.385v-2.031h7.419v19.236
					c-5.314,0-9.274-0.787-11.872-2.363c-1.029-0.622-2.059-1.5-3.107-2.636c-1.043-1.141-1.896-2.494-2.555-4.073
					c-1.434-3.552-2.144-8.152-2.144-13.793c0-2.679,0.362-5.079,1.098-7.203c0.729-2.124,1.647-3.773,2.747-4.947
					c2.235-2.342,4.491-3.517,6.764-3.517c2.271,0,4.352,0.913,6.235,2.745C402.047,172.262,402.99,174.184,402.99,176.199z"/>
				<path fill="#58585B" d="M428.553,176.199l-2.032-0.057c-0.335-1.978-1.149-3.547-2.448-4.696
					c-1.3-1.157-2.761-1.734-4.372-1.734c-2.713,0-4.854,1.384-6.433,4.151c-1.575,2.766-2.364,5.942-2.364,9.534
					c0,7.296,1.258,12.501,3.77,15.615c2.508,3.112,6.46,4.817,11.848,5.11v-15.117h-5.388v-2.031h7.42v19.236
					c-5.316,0-9.272-0.787-11.874-2.363c-1.026-0.622-2.061-1.5-3.104-2.636c-1.045-1.141-1.9-2.494-2.559-4.073
					c-1.427-3.552-2.143-8.152-2.143-13.793c0-2.679,0.364-5.079,1.097-7.203c0.736-2.124,1.653-3.773,2.754-4.947
					c2.228-2.342,4.484-3.517,6.757-3.517c2.274,0,4.354,0.913,6.241,2.745C427.608,172.262,428.553,174.184,428.553,176.199z"/>
			</g>
			<g>
				<path fill="#E85340" stroke="#E85340" stroke-width="0.2606" stroke-miterlimit="10" d="M354.656,150.442v-13.421h6.863v0.711
					h-6.152v4.908h6.152v0.709h-6.152v6.386h6.152v0.707H354.656z"/>
				<path fill="#E85340" stroke="#E85340" stroke-width="0.2606" stroke-miterlimit="10" d="M370.607,150.442h-0.711v-1.301
					c0-1.061-0.234-1.97-0.697-2.732c-0.469-0.761-1.034-1.142-1.707-1.142c-0.674,0-1.319,0.283-1.944,0.844l-1.113,1.17v3.161
					h-0.708v-14.377h0.708v10.181l5.194-5.406h0.979l-3.604,3.774c0.153-0.034,0.347-0.055,0.587-0.055
					c0.232,0,0.513,0.073,0.84,0.221c0.327,0.145,0.658,0.38,0.998,0.689c0.336,0.313,0.618,0.771,0.846,1.372
					c0.22,0.6,0.333,1.289,0.333,2.068V150.442z"/>
				<path fill="#E85340" stroke="#E85340" stroke-width="0.2606" stroke-miterlimit="10" d="M378.927,145.29
					c0,0.867-0.083,1.63-0.25,2.289c-0.166,0.66-0.37,1.167-0.624,1.524c-0.251,0.356-0.544,0.645-0.891,0.86
					c-0.867,0.563-1.82,0.682-2.855,0.348c-0.357-0.117-0.732-0.324-1.131-0.623c-0.398-0.302-0.713-0.778-0.961-1.431
					c-0.238-0.652-0.362-1.448-0.362-2.396c0-1.531,0.307-2.781,0.922-3.748c0.614-0.964,1.496-1.446,2.654-1.446
					c1.156,0,2.027,0.453,2.607,1.361C378.619,142.936,378.913,144.021,378.927,145.29z M375.169,149.773l0.231,0.021l0.208-0.021
					c1.738-0.165,2.609-1.632,2.609-4.39c0-1.138-0.229-2.089-0.69-2.856c-0.461-0.765-1.194-1.149-2.202-1.149
					c-0.654,0-1.197,0.223-1.633,0.67c-0.755,0.794-1.131,2.023-1.131,3.7v0.153c0,1.059,0.216,1.951,0.651,2.676
					C373.647,149.297,374.3,149.697,375.169,149.773z"/>
				<path fill="#E85340" stroke="#E85340" stroke-width="0.2606" stroke-miterlimit="10" d="M381.766,150.442h-0.711v-14.358h0.711
					V150.442z"/>
				<path fill="#E85340" stroke="#E85340" stroke-width="0.2606" stroke-miterlimit="10" d="M390.968,145.29
					c0,0.867-0.08,1.63-0.252,2.289c-0.164,0.66-0.371,1.167-0.62,1.524c-0.252,0.356-0.546,0.645-0.892,0.86
					c-0.871,0.563-1.822,0.682-2.857,0.348c-0.356-0.117-0.732-0.324-1.132-0.623c-0.394-0.302-0.716-0.778-0.959-1.431
					c-0.239-0.652-0.362-1.448-0.362-2.396c0-1.531,0.306-2.781,0.92-3.748c0.612-0.964,1.499-1.446,2.657-1.446
					c1.154,0,2.024,0.453,2.604,1.361C390.656,142.936,390.956,144.021,390.968,145.29z M387.212,149.773l0.227,0.021l0.214-0.021
					c1.735-0.165,2.604-1.632,2.604-4.39c0-1.138-0.229-2.089-0.687-2.856c-0.462-0.765-1.197-1.149-2.206-1.149
					c-0.652,0-1.196,0.223-1.629,0.67c-0.757,0.794-1.131,2.023-1.131,3.7v0.153c0,1.059,0.218,1.951,0.648,2.676
					C385.688,149.297,386.341,149.697,387.212,149.773z"/>
				<path fill="#E85340" stroke="#E85340" stroke-width="0.2606" stroke-miterlimit="10" d="M398.521,140.857h0.707v9.912
					c0,0.884-0.106,1.653-0.325,2.311c-0.217,0.657-0.488,1.148-0.822,1.471c-0.652,0.624-1.3,0.937-1.938,0.937
					c-0.854,0-1.66-0.36-2.415-1.074v-0.923c0.806,0.858,1.605,1.285,2.396,1.285c0.793,0,1.393-0.378,1.793-1.138
					c0.403-0.765,0.604-1.723,0.604-2.887v-0.309c-2.289-0.086-3.888-0.587-4.793-1.492c-0.791-0.819-1.187-2.017-1.187-3.588
					c0-1.93,0.56-3.303,1.685-4.119c0.536-0.396,1.067-0.596,1.591-0.596c0.957,0,1.862,0.457,2.704,1.361V140.857z
					 M394.024,142.565c-0.516,0.807-0.777,1.685-0.777,2.637c0,0.951,0.133,1.723,0.404,2.31c0.27,0.589,0.65,1.044,1.15,1.36
					c0.923,0.575,2.161,0.863,3.72,0.863v-6.766c-0.433-0.502-0.853-0.893-1.257-1.18c-0.401-0.287-0.845-0.436-1.332-0.436
					C395.18,141.354,394.542,141.763,394.024,142.565z"/>
				<path fill="#E85340" stroke="#E85340" stroke-width="0.2606" stroke-miterlimit="10" d="M402.624,150.442h-0.709v-9.585h0.709
					V150.442z M401.95,137.693h0.71v1.65h-0.71V137.693z"/>
				<path fill="#E85340" stroke="#E85340" stroke-width="0.2606" stroke-miterlimit="10" d="M408.463,149.466
					c0.771-0.202,1.31-0.465,1.608-0.783c0.302-0.322,0.45-0.753,0.45-1.296c0-0.544-0.204-0.967-0.612-1.275
					c-0.41-0.308-0.904-0.504-1.486-0.594c-0.581-0.089-1.163-0.189-1.742-0.298c-0.585-0.107-1.08-0.347-1.49-0.72
					c-0.405-0.369-0.612-0.906-0.612-1.607c0-1.484,1.151-2.226,3.452-2.226c0.843,0,1.822,0.089,2.934,0.267v0.749
					c-1.149-0.204-2.116-0.305-2.895-0.305c-0.779,0-1.44,0.109-1.984,0.334c-0.543,0.223-0.815,0.601-0.815,1.132
					c0,0.53,0.203,0.938,0.612,1.226c0.407,0.29,0.904,0.486,1.488,0.595c0.582,0.109,1.166,0.233,1.753,0.375
					c0.587,0.141,1.086,0.416,1.493,0.834c0.412,0.414,0.614,0.998,0.614,1.753c0,0.933-0.362,1.605-1.091,2.013
					c-0.358,0.208-0.703,0.367-1.036,0.491c-0.331,0.119-0.774,0.199-1.322,0.239c-0.868,0.073-1.7,0.113-2.491,0.113h-0.48v-0.709
					C406.473,149.773,407.688,149.672,408.463,149.466z"/>
				<path fill="#E85340" stroke="#E85340" stroke-width="0.2606" stroke-miterlimit="10" d="M420.108,150.442h-0.711v-1.301
					c0-1.061-0.233-1.97-0.699-2.732c-0.466-0.761-1.035-1.142-1.706-1.142c-0.672,0-1.317,0.283-1.943,0.844l-1.113,1.17v3.161
					h-0.71v-14.377h0.71v10.181l5.194-5.406h0.979l-3.605,3.774c0.156-0.034,0.35-0.055,0.583-0.055c0.239,0,0.52,0.073,0.845,0.221
					c0.329,0.145,0.662,0.38,1,0.689c0.337,0.313,0.616,0.771,0.842,1.372c0.226,0.6,0.336,1.289,0.336,2.068V150.442z"/>
				<path fill="#E85340" stroke="#E85340" stroke-width="0.2606" stroke-miterlimit="10" d="M427.279,140.857h0.708v9.604
					c-0.768,0-1.438-0.03-2.014-0.093c-0.574-0.064-1.172-0.203-1.794-0.412c-0.618-0.214-1.127-0.497-1.522-0.854
					c-0.397-0.357-0.723-0.854-0.978-1.484c-0.257-0.637-0.384-1.348-0.384-2.141c0-0.791,0.079-1.473,0.24-2.04
					c0.158-0.57,0.365-1.023,0.615-1.361c0.246-0.34,0.526-0.618,0.832-0.834c0.536-0.396,1.067-0.596,1.591-0.596
					c0.959,0,1.86,0.457,2.705,1.361V140.857z M422.006,145.384c0,1.675,0.517,2.837,1.553,3.488
					c0.92,0.575,2.161,0.863,3.721,0.863v-6.766c-0.437-0.502-0.853-0.893-1.259-1.18c-0.402-0.287-0.844-0.436-1.329-0.436
					c-0.805,0-1.457,0.357-1.948,1.066C422.252,143.131,422.006,144.117,422.006,145.384z"/>
			</g>
			<g>
				<g>
					<g>
						<path fill="#44A260" d="M388.785,253.382v-10.955c-0.196-3.261-0.236-3.399-5.444-4.292
							c-13.324-2.278-11.375-20.357-11.375-20.357s13.193-0.032,17.238,8.47c0,0,1.752,4.17,1.752,13.335v13.8H388.785z"/>
					</g>
				</g>
				<g>
					<g>
						<path fill="#53B06E" d="M395.072,253.382v-4.042c0.196-3.259,0.236-3.398,5.444-4.291
							c13.323-2.279,11.377-20.358,11.377-20.358s-13.195-0.031-17.24,8.472c0,0-1.75,4.167-1.75,13.333v6.887H395.072z"/>
					</g>
				</g>
			</g>
		</g>
	</g>
	<path fill="#E85340" d="M581.902,122.267h-79.229h-7.77v8.251V245.55l0,0v52.694h94.771v-51.682v-1.013V130.518v-8.251H581.902z
		 M581.902,245.55h-79.229V130.518h79.229V245.55z"/>
	<g>
		<g>
			<path fill="#E85340" d="M163.704,0.289l-25.382,32.524V0.39h-4.898v69.585h4.898V40.667c1.079-1.428,1.99-2.551,2.707-3.338
				c0.711-0.767,1.989-1.677,3.802-2.707c1.8-1.028,3.64-1.528,5.626-1.528c9.414,0,14.187,9.96,14.187,29.604v7.276h4.9v-8.451
				c0-11.188-1.656-19.605-4.92-25.016c-3.329-5.516-7.93-8.313-13.675-8.313c-0.975,0-1.971,0.082-2.975,0.244l22.356-28.149
				H163.704z"/>
			<path fill="#E85340" d="M249.134,45.62c0,7.172-1.199,12.341-3.565,15.362c-2.368,3.017-5.684,4.482-10.131,4.482
				c-1.562,0-3.188-0.524-4.813-1.549c-2.146-1.433-3.296-4.541-3.42-9.237l-0.018-0.629h-4.886v0.646
				c0,3.111,0.46,5.82,1.364,8.051c0.918,2.246,2.126,3.916,3.615,4.98c2.687,1.751,5.366,2.64,7.964,2.64
				c12.469,0,18.79-8.292,18.79-24.646V0.39h-4.9V45.62z"/>
			<path fill="#E85340" d="M297.241,41.489c-1.192-2.462-2.736-4.413-4.589-5.799c-1.799-1.343-3.86-2.534-6.129-3.539
				c-2.193-0.965-4.423-1.855-6.629-2.649c-2.162-0.775-4.156-1.618-5.935-2.51c-3.826-1.85-5.687-4.532-5.687-8.2
				c0-4.266,1.354-7.615,4.023-9.953c2.7-2.357,6.219-3.552,10.459-3.552c4.332,0,9.082,0.457,14.119,1.358l0.76,0.136V1.854
				l-0.542-0.088c-5.643-0.914-10.925-1.376-15.702-1.376c-4.887,0-9.152,1.563-12.678,4.649c-3.544,3.116-5.34,7.875-5.34,14.145
				c0,3.661,1.127,6.714,3.349,9.074c2.159,2.298,4.834,4.043,7.95,5.188c3.031,1.106,6.039,2.195,9.033,3.273
				c2.88,1.032,5.375,2.62,7.414,4.719c2.012,2.075,2.989,4.784,2.989,8.281c0,3.472-1.364,6.345-4.175,8.786
				c-5.061,4.489-13.385,6.765-24.74,6.765h-0.646v4.9h3.079c5.828,0,11.145-0.732,15.793-2.173c2.895-0.85,5.478-1.992,7.677-3.393
				c2.215-1.401,4.104-3.375,5.616-5.867c1.524-2.495,2.299-5.415,2.299-8.678C299.012,46.833,298.416,43.951,297.241,41.489z"/>
		</g>
		<g>
			<polygon fill="#E85340" points="337.372,47.544 327.041,23.874 322.956,23.874 322.956,69.234 326.447,69.234 326.447,31.327 
				335.882,52.952 338.859,52.952 348.283,31.349 348.167,69.234 351.785,69.234 351.785,23.874 347.637,23.874 			"/>
			<path fill="#E85340" d="M377.462,39.372c-2.564-2.361-5.322-3.556-8.214-3.556c-1.846,0-3.73,0.699-5.593,2.069
				c-1.034,0.728-2.004,1.694-2.886,2.877c-0.865,1.181-1.575,2.754-2.109,4.674c-0.54,1.912-0.813,4.223-0.813,6.869
				c0,2.682,0.442,5.121,1.311,7.246c0.858,2.149,1.991,3.87,3.368,5.118c1.359,1.227,3.118,2.212,5.226,2.928
				c2.053,0.7,4.076,1.166,6.013,1.385c1.879,0.211,4.062,0.314,6.672,0.314h0.646V36.509h-3.62V39.372z M377.462,44.311v21.297
				c-4.665-0.077-8.435-0.99-11.207-2.718c-3.218-2.032-4.783-5.598-4.783-10.9c0-3.997,0.772-7.139,2.296-9.341
				c1.502-2.166,3.416-3.219,5.853-3.219c1.45,0,2.793,0.436,3.994,1.301C374.831,41.594,376.125,42.798,377.462,44.311z"/>
			<polygon fill="#E85340" points="395.604,26.134 391.989,26.134 391.989,36.509 384.75,36.509 384.75,40.129 391.989,40.129 
				391.989,69.234 395.604,69.234 395.604,40.129 402.899,40.129 402.899,36.509 395.604,36.509 			"/>
			<path fill="#E85340" d="M425.441,39.06c-5.16-4.585-10.58-4.13-15.251,0.281V20.794h-3.619v48.502h0.646
				c2.604,0,4.785-0.103,6.67-0.314c1.931-0.219,3.955-0.685,6.018-1.385c2.104-0.716,3.859-1.701,5.222-2.929
				c1.362-1.234,2.499-2.966,3.377-5.15c0.865-2.172,1.303-4.757,1.303-7.684c0-2.915-0.405-5.515-1.206-7.731
				C427.793,41.875,426.729,40.176,425.441,39.06z M426.184,52.366c0,8.74-5.233,13.077-15.993,13.242V44.31
				c2.853-3.238,5.491-4.88,7.842-4.88c2.389,0,4.292,1.082,5.816,3.306C425.397,45.007,426.184,48.248,426.184,52.366z"/>
			<path fill="#E85340" d="M454.602,61.426c-2.863,3.199-5.47,4.821-7.749,4.821c-2.325,0-4.224-1.188-5.806-3.634
				c-1.621-2.498-2.443-5.479-2.443-8.86l0.059-17.245h-3.61l-0.068,17.305c0,2.962,0.407,5.574,1.206,7.763
				c0.811,2.239,1.874,3.955,3.16,5.1c2.376,2.116,4.741,3.189,7.033,3.189c2.919,0,5.678-1.177,8.219-3.501v2.87h3.617V36.509
				h-3.617V61.426z"/>
			<polygon fill="#E85340" points="472.74,26.134 469.124,26.134 469.124,36.509 461.887,36.509 461.887,40.129 469.124,40.129 
				469.124,69.234 472.74,69.234 472.74,40.129 480.028,40.129 480.028,36.509 472.74,36.509 			"/>
			<rect x="483.833" y="26.134" fill="#E85340" width="3.611" height="6.699"/>
			<rect x="483.703" y="36.509" fill="#E85340" width="3.619" height="32.726"/>
			<path fill="#E85340" d="M514.621,51.797c-1.15-1.063-2.312-1.861-3.448-2.374c-1.248-0.566-2.354-0.8-3.259-0.78l11.643-12.198
				h-4.992L498.45,53.217V20.794h-3.617v48.44h3.617V58.475l3.424-3.614c1.933-1.729,3.938-2.606,5.96-2.606
				c1.973,0,3.621,1.124,5.037,3.438c1.461,2.379,2.2,5.279,2.2,8.62v4.922h3.622v-5.673c0-2.616-0.385-4.977-1.142-7.018
				C516.769,54.45,515.81,52.897,514.621,51.797z"/>
		</g>
		<path fill="#E85340" d="M214.5,5.734C211.777,1.93,207.793,0,202.657,0c-6.911,0-12.745,2.328-17.339,6.918
			c-4.594,4.6-6.923,10.563-6.923,17.725v45.331h4.909V37.778h26.416v32.196h4.9V5.902L214.5,5.734z M210.367,33.523h-27.709v-8.777
			c0-5.342,1.865-10.087,5.605-14.242c3.741-4.164,8.477-6.25,14.197-6.25c3.188,0,5.82,1.072,7.906,3.221V33.523z"/>
	</g>
	<rect x="38.07" y="245.55" fill="#E85340" width="102.711" height="30.08"/>
	<g>
		<rect x="38.07" y="122.267" opacity="0.24" fill="#229AD3" width="102.711" height="123.283"/>
	</g>
	<g>
		<polygon opacity="0.15" fill="#229AD3" points="38.07,122.267 38.07,245.55 140.781,245.55 		"/>
	</g>
	<rect x="190.262" y="245.55" fill="#E85340" width="102.711" height="30.08"/>
	<g>
		<rect x="190.262" y="122.267" opacity="0.24" fill="#229AD3" width="102.711" height="123.283"/>
		<polygon opacity="0.15" fill="#229AD3" points="190.262,122.267 190.262,245.55 292.973,245.55 		"/>
	</g>
	<polygon opacity="0.15" fill="#229AD3" points="502.674,130.518 502.676,246.562 581.902,246.562 	"/>
	<path fill="#E85340" d="M581.902,122.267h-79.229h-7.77v8.251V245.55l0,0v52.694h94.771v-51.682v-1.013V130.518v-8.251H581.902z
		 M581.902,245.55h-79.229V130.518h79.229V245.55z"/>
</g>
</svg>
