<?xml version="1.0" encoding="utf-8"?>
<!-- Generator: Adobe Illustrator 15.0.2, SVG Export Plug-In . SVG Version: 6.00 Build 0)  -->
<!DOCTYPE svg PUBLIC "-//W3C//DTD SVG 1.1//EN" "http://www.w3.org/Graphics/SVG/1.1/DTD/svg11.dtd">
<svg version="1.1" xmlns="http://www.w3.org/2000/svg" xmlns:xlink="http://www.w3.org/1999/xlink" x="0px" y="0px"
	 width="352.48px" height="249.663px" viewBox="0 0 352.48 249.663" enable-background="new 0 0 352.48 249.663"
	 xml:space="preserve">
<g id="Lager_1">
</g>
<g id="Ko">
	<g>
		<ellipse fill="#F7CDDF" cx="262.477" cy="150.499" rx="37.333" ry="28.041"/>
		<polyline fill="#ECEDED" points="283.019,152.75 327.548,185.248 327.667,236.75 322.519,249.663 346.519,249.663 
			345.327,166.938 311.519,115.121 262.477,66.684 		"/>
		<polyline fill="#ECEDED" points="142.02,145.932 157.816,235.291 154.316,249.291 175.816,249.291 177.316,235.291 166.02,152.75 
					"/>
		<path fill="#FFFFFF" d="M134.066,155.493c93.815,39.026,139.452-17.03,139.452-17.03l14.783,45.289l-21.689,53.076l-8.594,12.463
			h25l54.875-123.305v-68.93c0-13.255-10.745-24-24-24l0,0h-0.375H81.778l-18.76,61.734c0,0,26.548,47.401,47.548,55.216
			l15.25,85.284l-3.5,14h21.5l1.5-14L134.066,155.493z"/>
		<path fill="#3E3D40" d="M126.019,86.749c1.5-13.5,14-8.5,28-20.065s1.649-33.627,1.649-33.627h158.226h-0.375H81.778
			l-18.76,61.734c0,0,8.665,17.464,21.289,31.835C84.308,126.626,131.019,134.298,126.019,86.749z"/>
		<path fill="#3E3D40" d="M91.42,0c-2.846,10.775-17.293,18.498-38.624,18.498S17.018,10.165,14.172,0
			C14.172,0,52.796,18.498,91.42,0z"/>
		<path fill="#3E3D40" d="M108.703,14.247H62.685H61H47.703h-1.685H0c0,7.635,7.712,16.96,26.04,17.253l4.979,56.999
			c0,11.046,8.954,14.089,20,14.089h6.664c11.046,0,20-3.043,20-14.089L82.663,31.5C100.991,31.207,108.703,21.882,108.703,14.247z"
			/>
		<path fill="#FFFFFF" d="M60.685,73.35V73.28L60.65,55.635l5.474-8.896c0,0,7.336-12.287-2.399-21.132
			c-4.389-3.498-9.371-3.313-9.371-3.313s-4.984-0.185-9.373,3.313c-9.736,8.845-2.398,21.132-2.398,21.132l5.474,8.896
			l-0.037,17.708v0.007C35.769,77.975,31.02,88.499,31.02,88.499c0,11.046,8.954,14.089,20,14.089h3.332h3.332
			c11.046,0,20-3.043,20-14.089C77.684,88.499,72.935,77.975,60.685,73.35z"/>
		<path fill="#3E3D40" d="M278.362,33.056c0,20.353-25.261,36.852-56.422,36.852c-31.16,0-56.421-16.499-56.421-36.852H278.362z"/>
		<path fill="#3E3D40" d="M295.735,33.057h25.217h0.375l0,0c13.255,0,23.721,11.125,23.721,24.38v64.285
			c0,0-27.99,22.889-42.529,8.777c-17-16.5-6.732-35.583,9.412-46.771c0,0,8.521-7.646,0-15.479
			C304.235,61.175,285.796,58.417,295.735,33.057z"/>
		<path fill="#FFFFFF" d="M313.519,33.057"/>
		<polygon fill="#3E3D40" points="283.019,249.291 258.019,249.291 266.612,236.828 288.565,236.828 		"/>
		<polygon fill="#3E3D40" points="145.316,235.291 143.816,249.291 122.316,249.291 125.816,235.291 		"/>
		<polygon fill="#3E3D40" points="177.316,235.291 175.816,249.291 154.316,249.291 157.816,235.291 		"/>
		<polygon fill="#3E3D40" points="346.519,249.663 322.519,249.663 327.667,236.75 346.519,236.75 		"/>
		<path fill="#3E3D40" d="M352.319,176.542c0,0,0.238-6.993-6.098-9.461c-0.412-0.13-0.8-0.202-1.174-0.252V63.999h-6.875v100.126
			l0.042,10c0.374,4.697,4.387,7.396,4.387,7.396l9.879,7.3L352.319,176.542z"/>
		<path fill="#3E3D40" d="M195.589,141.174c-25.25,15.324-42.373,0.027-41.208-14.072c1.024-12.422,9.733-24.43,25.117-27.357
			c13.307-2.532,15.028,7.415,27.89,9.124c12.863,1.71,9.951-17.87,24.174-21.082c13.626-3.077,25.439,6.832,27.849,24.001
			c0,0,8.262,33.711-26.571,25.461C213.839,132.748,195.589,141.174,195.589,141.174z"/>
	</g>
</g>
</svg>
