<?xml version="1.0" encoding="utf-8"?>
<!-- Generator: Adobe Illustrator 15.0.2, SVG Export Plug-In . SVG Version: 6.00 Build 0)  -->
<!DOCTYPE svg PUBLIC "-//W3C//DTD SVG 1.1//EN" "http://www.w3.org/Graphics/SVG/1.1/DTD/svg11.dtd">
<svg version="1.1" id="Lager_1" xmlns="http://www.w3.org/2000/svg" xmlns:xlink="http://www.w3.org/1999/xlink" x="0px" y="0px"
	 width="832.806px" height="339.77px" viewBox="0 0 832.806 339.77" enable-background="new 0 0 832.806 339.77"
	 xml:space="preserve">
<g>
	<rect x="84.566" y="203.767" fill="#ECECED" width="131.972" height="135.719"/>
	
		<rect x="93.021" y="229.646" fill="#868789" stroke="#868789" stroke-width="1.4744" stroke-linecap="round" stroke-linejoin="round" stroke-miterlimit="10" width="115.063" height="64.974"/>
	
		<polygon fill="#5A595B" stroke="#5A595B" stroke-width="1.4744" stroke-linecap="round" stroke-linejoin="round" stroke-miterlimit="10" points="
		208.084,294.62 93.021,294.62 93.021,229.646 	"/>
	<g>
		<circle fill="#B1B3B3" cx="189.174" cy="216.193" r="5.535"/>
		
			<rect x="188.542" y="212.631" fill="#ECECED" stroke="#ECECED" stroke-width="1.1718" stroke-linecap="round" stroke-linejoin="round" stroke-miterlimit="10" width="1.379" height="7.126"/>
	</g>
	<g>
		<circle fill="#B1B3B3" cx="204.221" cy="216.193" r="5.535"/>
		
			<rect x="203.589" y="212.631" fill="#ECECED" stroke="#ECECED" stroke-width="1.1718" stroke-linecap="round" stroke-linejoin="round" stroke-miterlimit="10" width="1.379" height="7.126"/>
	</g>
	<g>
		<circle fill="#B1B3B3" cx="111.739" cy="216.193" r="5.536"/>
		
			<rect x="111.099" y="212.603" transform="matrix(0.8683 -0.496 0.496 0.8683 -92.4962 83.908)" fill="#ECECED" stroke="#ECECED" stroke-width="1.1718" stroke-linecap="round" stroke-linejoin="round" stroke-miterlimit="10" width="1.378" height="7.126"/>
	</g>
	<g>
		<circle fill="#B1B3B3" cx="97.334" cy="216.193" r="5.536"/>
		
			<rect x="96.702" y="212.631" fill="#ECECED" stroke="#ECECED" stroke-width="1.1718" stroke-linecap="round" stroke-linejoin="round" stroke-miterlimit="10" width="1.379" height="7.126"/>
	</g>
	<g>
		<circle fill="#B1B3B3" cx="140.549" cy="216.193" r="5.535"/>
		
			<rect x="139.917" y="212.631" fill="#ECECED" stroke="#ECECED" stroke-width="1.1718" stroke-linecap="round" stroke-linejoin="round" stroke-miterlimit="10" width="1.379" height="7.126"/>
	</g>
	<g>
		<circle fill="#B1B3B3" cx="126.144" cy="216.193" r="5.535"/>
		
			<rect x="125.424" y="212.583" transform="matrix(-0.5431 -0.8397 0.8397 -0.5431 13.1204 439.4302)" fill="#ECECED" stroke="#ECECED" stroke-width="1.1718" stroke-linecap="round" stroke-linejoin="round" stroke-miterlimit="10" width="1.378" height="7.125"/>
	</g>
	<g>
		<rect x="102" y="238.419" fill="#ECECED" width="95.239" height="4.598"/>
		<polygon fill="#C6C6C9" points="102,243.017 197.238,243.017 197.238,240.718 102,240.803 		"/>
	</g>
	<rect x="84.566" y="199.952" fill="#5A595B" width="131.972" height="3.814"/>
	<path fill="#C5E0E9" d="M669.441,124.349"/>
	
		<rect x="629.597" y="70.333" fill="#DEEBF3" stroke="#DEEBF3" stroke-width="3.0996" stroke-linecap="round" stroke-linejoin="round" stroke-miterlimit="10" width="60.564" height="60.561"/>
	
		<polygon opacity="0.5" fill="#C5E0E9" stroke="#C5E0E9" stroke-width="3.0996" stroke-linecap="round" stroke-linejoin="round" stroke-miterlimit="10" points="
		690.161,130.894 629.597,130.894 629.597,70.333 	"/>
	
		<rect x="629.597" y="1.55" fill="#DEEBF3" stroke="#DEEBF3" stroke-width="3.0996" stroke-linecap="round" stroke-linejoin="round" stroke-miterlimit="10" width="60.564" height="60.561"/>
	
		<polygon opacity="0.5" fill="#C5E0E9" stroke="#C5E0E9" stroke-width="3.0996" stroke-linecap="round" stroke-linejoin="round" stroke-miterlimit="10" points="
		690.161,62.11 629.597,62.11 629.597,1.55 	"/>
	
		<rect x="697.761" y="1.55" fill="#DEEBF3" stroke="#DEEBF3" stroke-width="3.0996" stroke-linecap="round" stroke-linejoin="round" stroke-miterlimit="10" width="60.56" height="60.561"/>
	
		<polygon opacity="0.5" fill="#C5E0E9" stroke="#C5E0E9" stroke-width="3.0996" stroke-linecap="round" stroke-linejoin="round" stroke-miterlimit="10" points="
		758.32,62.11 697.761,62.11 697.761,1.55 	"/>
	
		<rect x="697.761" y="70.333" fill="#DEEBF3" stroke="#DEEBF3" stroke-width="3.0996" stroke-linecap="round" stroke-linejoin="round" stroke-miterlimit="10" width="60.56" height="60.561"/>
	
		<polygon opacity="0.5" fill="#C5E0E9" stroke="#C5E0E9" stroke-width="3.0996" stroke-linecap="round" stroke-linejoin="round" stroke-miterlimit="10" points="
		758.32,130.894 697.761,130.894 697.761,70.333 	"/>
	<rect x="631.128" y="203.745" fill="#E6E6E7" width="115.474" height="135.74"/>
	<g>
		<rect x="676.845" y="180.323" fill="#FFFFFF" width="21.378" height="10.443"/>
		<rect x="679.2" y="171.691" fill="#FFFFFF" width="1.725" height="9.903"/>
		
			<path fill="#FFFFFF" stroke="#FFFFFF" stroke-width="1.0344" stroke-linecap="round" stroke-linejoin="round" stroke-miterlimit="10" d="
			M688.942,182.15h-3.281v-30.05c0-6.344,5.161-11.505,11.505-11.505c4.282,0,8.182,2.354,10.181,6.142
			c0.866,1.642,1.324,3.495,1.324,5.363h-3.279c0-1.354-0.318-2.645-0.945-3.831c-1.431-2.71-4.221-4.393-7.28-4.393
			c-4.534,0-8.224,3.689-8.224,8.224V182.15z"/>
		<polygon fill="#ECECED" points="698.223,190.767 676.845,190.767 676.845,180.323 		"/>
	</g>
	<circle fill="#C8E8F5" cx="667.23" cy="189.286" r="8.333"/>
	<rect x="631.128" y="203.745" fill="#FFFFFF" width="3.075" height="135.74"/>
	<path fill="#C8E8F5" d="M688.865,195.263c0-4.604-3.73-8.334-8.334-8.334c-4.602,0-8.333,3.73-8.333,8.334
		c0,4.6,3.731,8.332,8.333,8.332C685.135,203.595,688.865,199.862,688.865,195.263z"/>
	<path fill="#C8E8F5" d="M715.165,195.263c0-4.604-3.731-8.334-8.334-8.334s-8.333,3.73-8.333,8.334c0,4.6,3.73,8.332,8.333,8.332
		S715.165,199.862,715.165,195.263z"/>
	<circle fill="#E3F3FB" cx="717.003" cy="199.931" r="8.333"/>
	<circle fill="#E3F3FB" cx="706.832" cy="201.029" r="8.333"/>
	<path fill="#9C9C9E" d="M651.875,203.595"/>
	<circle fill="#E3F3FB" cx="647.967" cy="193.788" r="8.333"/>
	<circle fill="#E3F3FB" cx="658.898" cy="193.788" r="8.333"/>
	<circle fill="#E3F3FB" cx="658.898" cy="184.362" r="8.333"/>
	<path fill="#E3F3FB" d="M675.563,195.263c0-4.604-3.73-8.334-8.332-8.334c-4.603,0-8.334,3.73-8.334,8.334
		c0,4.6,3.731,8.332,8.334,8.332C671.833,203.595,675.563,199.862,675.563,195.263z"/>
	<path fill="#E3F3FB" d="M702.292,195.263c0-4.604-3.731-8.334-8.332-8.334c-4.604,0-8.334,3.73-8.334,8.334
		c0,4.6,3.73,8.332,8.334,8.332C698.561,203.595,702.292,199.862,702.292,195.263z"/>
	<circle fill="#E3F3FB" cx="680.532" cy="199.054" r="8.333"/>
	<path fill="#9C9C9E" d="M651.875,213.766v-10.171h70.683v11.076l0,0c0,6.07-4.92,10.99-10.99,10.99h-48.703
		c-6.07,0-10.989-4.92-10.989-10.99l0,0V213.766z"/>
	<path fill="#868789" d="M651.875,203.595v10.171v0.905l0,0c0,6.07,4.919,10.99,10.989,10.99h48.703
		c3.054,0,5.817-1.245,7.811-3.259L651.875,203.595"/>
	<circle fill="#C8E8F5" cx="643.919" cy="167.943" r="6.644"/>
	<path fill="#E3F3FB" d="M648.618,172.641c-2.595,2.594-6.802,2.594-9.397,0c-2.595-2.595-2.594-6.802,0-9.396L648.618,172.641z"/>
	<circle fill="#C8E8F5" cx="713.475" cy="177.772" r="4.194"/>
	<path fill="#E3F3FB" d="M716.44,180.737c-1.638,1.639-4.293,1.639-5.931,0c-1.639-1.637-1.639-4.293,0-5.931L716.44,180.737z"/>
	<circle fill="#E3F3FB" cx="666.187" cy="165.443" r="2.499"/>
	<path fill="#E3F3FB" d="M667.953,167.211c-0.976,0.975-2.559,0.975-3.533,0c-0.978-0.977-0.978-2.561,0-3.535L667.953,167.211z"/>
	<circle fill="#E3F3FB" cx="722.557" cy="163.674" r="2.5"/>
	<rect x="218.953" y="203.056" fill="#FFFFFF" width="82.061" height="136.43"/>
	<polygon opacity="0.5" fill="#F5F5F6" points="301.014,339.485 218.953,339.485 218.953,203.767 301.014,271.627 	"/>
	<rect x="546.594" y="203.767" fill="#FFFFFF" width="82.061" height="135.719"/>
	<g>
		<rect x="603.915" y="214.628" fill="#707072" width="15.718" height="2.972"/>
		<rect x="600.036" y="215.548" fill="#B1B3B3" width="3.879" height="1.131"/>
		<rect x="619.633" y="215.548" fill="#B1B3B3" width="3.878" height="1.131"/>
		<rect x="603.915" y="216.113" fill="#3E3D3F" width="15.718" height="1.486"/>
	</g>
	<polygon opacity="0.5" fill="#F5F5F6" points="628.654,339.485 546.594,339.485 546.594,203.767 628.654,271.627 	"/>
	<rect x="303.457" y="203.767" fill="#FFFFFF" width="82.062" height="135.719"/>
	<rect x="276.274" y="214.628" fill="#707072" width="15.717" height="2.972"/>
	<rect x="272.396" y="215.548" fill="#B1B3B3" width="3.877" height="1.131"/>
	<rect x="291.992" y="215.548" fill="#B1B3B3" width="3.877" height="1.131"/>
	<rect x="276.274" y="216.113" fill="#3E3D3F" width="15.717" height="1.486"/>
	<rect x="749.053" y="231.626" fill="#FFFFFF" width="82.062" height="107.874"/>
	<polygon opacity="0.5" fill="#F5F5F6" points="831.114,339.208 749.053,339.208 749.053,232.338 	"/>
	<rect x="806.375" y="243.199" fill="#707072" width="15.718" height="2.971"/>
	<rect x="802.497" y="244.118" fill="#B1B3B3" width="3.877" height="1.132"/>
	<rect x="822.093" y="244.118" fill="#B1B3B3" width="3.879" height="1.132"/>
	<rect x="806.375" y="244.684" fill="#3E3D3F" width="15.718" height="1.486"/>
	<rect x="328.197" y="215.548" fill="#B1B3B3" width="3.878" height="1.131"/>
	<g>
		<rect x="312.48" y="214.628" fill="#707072" width="15.716" height="2.972"/>
		<rect x="308.601" y="215.548" fill="#B1B3B3" width="3.879" height="1.131"/>
		<rect x="312.48" y="216.113" fill="#3E3D3F" width="15.716" height="1.486"/>
	</g>
	<polygon opacity="0.5" fill="#F5F5F6" points="385.52,339.485 303.458,339.485 303.458,269.72 	"/>
	<rect x="0.062" y="231.626" fill="#FFFFFF" width="82.061" height="25.407"/>
	<g>
		<rect x="33.234" y="242.488" fill="#707072" width="15.716" height="2.969"/>
		<rect x="29.355" y="243.404" fill="#B1B3B3" width="3.878" height="1.132"/>
		<rect x="48.951" y="243.404" fill="#B1B3B3" width="3.878" height="1.132"/>
		<rect x="33.234" y="243.971" fill="#3E3D3F" width="15.716" height="1.486"/>
	</g>
	<rect x="0.062" y="259.477" fill="#FFFFFF" width="82.061" height="25.406"/>
	<g>
		<rect x="33.234" y="270.338" fill="#707072" width="15.716" height="2.972"/>
		<rect x="29.355" y="271.256" fill="#B1B3B3" width="3.878" height="1.132"/>
		<rect x="48.951" y="271.256" fill="#B1B3B3" width="3.878" height="1.132"/>
		<rect x="33.234" y="271.821" fill="#3E3D3F" width="15.716" height="1.488"/>
	</g>
	<rect y="287.343" fill="#FFFFFF" width="82.062" height="52.143"/>
	<g>
		<rect x="33.174" y="298.205" fill="#707072" width="15.716" height="2.972"/>
		<rect x="29.295" y="299.125" fill="#B1B3B3" width="3.878" height="1.131"/>
		<rect x="48.89" y="299.125" fill="#B1B3B3" width="3.878" height="1.131"/>
		<rect x="33.174" y="299.689" fill="#3E3D3F" width="15.716" height="1.487"/>
	</g>
	<rect x="0.008" y="203.767" fill="#FFFFFF" width="82.062" height="25.407"/>
	<g>
		<rect x="33.182" y="214.628" fill="#707072" width="15.716" height="2.972"/>
		<rect x="29.303" y="215.548" fill="#B1B3B3" width="3.878" height="1.131"/>
		<rect x="48.898" y="215.548" fill="#B1B3B3" width="3.879" height="1.131"/>
		<rect x="33.182" y="216.113" fill="#3E3D3F" width="15.716" height="1.486"/>
	</g>
	<rect x="749.053" y="203.767" fill="#FFFFFF" width="82.062" height="25.407"/>
	<g>
		<rect x="782.227" y="214.628" fill="#707072" width="15.717" height="2.972"/>
		<rect x="778.347" y="215.548" fill="#B1B3B3" width="3.878" height="1.131"/>
		<rect x="797.943" y="215.548" fill="#B1B3B3" width="3.879" height="1.131"/>
		<rect x="782.227" y="216.113" fill="#3E3D3F" width="15.717" height="1.486"/>
	</g>
	<rect x="0.008" y="199.952" fill="#707072" width="82.062" height="3.814"/>
	<rect x="218.953" y="199.952" fill="#707072" width="184.145" height="3.814"/>
	<rect x="543.723" y="199.931" fill="#707072" width="289.083" height="3.814"/>
	<path fill="#FFFFFF" stroke="#FFFFFF" stroke-width="0.7984" stroke-miterlimit="10" d="M544.048,122.827
		c0,3.525-2.861,6.387-6.388,6.387H409.525c-3.528,0-6.387-2.861-6.387-6.387V66.765c0-3.525,2.858-6.387,6.387-6.387H537.66
		c3.526,0,6.388,2.861,6.388,6.387V122.827z"/>
	
		<rect x="409.801" y="67.685" fill="#CBDCE3" stroke="#CBDCE3" stroke-width="2.4356" stroke-linecap="round" stroke-linejoin="round" stroke-miterlimit="10" width="126.939" height="54.537"/>
	<path fill="#FFFFFF" stroke="#FFFFFF" stroke-width="0.7968" stroke-miterlimit="10" d="M543.722,332.637
		c0,3.52-2.853,6.371-6.373,6.371H409.472c-3.521,0-6.374-2.852-6.374-6.371V141.014c0-3.521,2.854-6.374,6.374-6.374h127.877
		c3.521,0,6.373,2.854,6.373,6.374V332.637z"/>
	
		<path fill="#D9DADB" stroke="#D9DADB" stroke-width="2.3903" stroke-linecap="round" stroke-linejoin="round" stroke-miterlimit="10" d="
		M533.711,106.448"/>
	<path fill="#F0F0F0" stroke="#F0F0F0" stroke-width="0.7968" stroke-miterlimit="10" d="M456.053,129.529"/>
	
		<path fill="#D9DADB" stroke="#D9DADB" stroke-width="2.3903" stroke-linecap="round" stroke-linejoin="round" stroke-miterlimit="10" d="
		M385.795,106.448"/>
	
		<path fill="#D9DADB" stroke="#D9DADB" stroke-width="2.3903" stroke-linecap="round" stroke-linejoin="round" stroke-miterlimit="10" d="
		M385.795,149.89"/>
	<path fill="#F0F0F0" stroke="#F0F0F0" stroke-width="0.7968" stroke-miterlimit="10" d="M428.536,129.529"/>
	
		<polyline fill="#B2CCD8" stroke="#B2CCD8" stroke-width="2.4356" stroke-linecap="round" stroke-linejoin="round" stroke-miterlimit="10" points="
		446.028,122.225 409.801,67.685 409.801,122.222 446.028,122.225 	"/>
	
		<path fill="#B2CCD8" stroke="#B2CCD8" stroke-width="2.4356" stroke-linecap="round" stroke-linejoin="round" stroke-miterlimit="10" d="
		M446.028,122.225"/>
	<g>
		
			<rect x="410.355" y="142.011" fill="#CBDCE3" stroke="#CBDCE3" stroke-width="3.0245" stroke-linecap="round" stroke-linejoin="round" stroke-miterlimit="10" width="126.111" height="189.853"/>
		
			<path fill="#D9DADB" stroke="#D9DADB" stroke-width="2.3903" stroke-linecap="round" stroke-linejoin="round" stroke-miterlimit="10" d="
			M533.711,149.804"/>
		<g>
			
				<polygon fill="#B2CCD8" stroke="#B2CCD8" stroke-width="3.0245" stroke-linecap="round" stroke-linejoin="round" stroke-miterlimit="10" points="
				536.466,331.863 410.355,331.863 410.355,142.011 			"/>
			
				<line fill="none" stroke="#FFFFFF" stroke-width="1.8147" stroke-linecap="round" stroke-linejoin="round" stroke-miterlimit="10" x1="417.522" y1="183.157" x2="529.297" y2="183.157"/>
			
				<line fill="none" stroke="#FFFFFF" stroke-width="1.8147" stroke-linecap="round" stroke-linejoin="round" stroke-miterlimit="10" x1="417.522" y1="228.857" x2="529.297" y2="228.857"/>
			
				<line fill="none" stroke="#FFFFFF" stroke-width="1.8147" stroke-linecap="round" stroke-linejoin="round" stroke-miterlimit="10" x1="417.522" y1="274.552" x2="529.297" y2="274.552"/>
			<g>
				
					<rect x="419.024" y="284.947" fill="#E6E6E7" stroke="#E6E6E7" stroke-width="2.4699" stroke-linecap="round" stroke-linejoin="round" stroke-miterlimit="10" width="48.478" height="39.174"/>
				<g>
					<path fill="#FFFFFF" d="M465.97,292.183v29.175c0,0.681-0.551,1.234-1.232,1.234h-42.948c-0.681,0-1.233-0.554-1.233-1.234
						v-29.175H465.97z"/>
				</g>
				<g>
					<path fill="#F0F0F0" d="M465.97,321.357c0,0.681-0.551,1.234-1.232,1.234h-42.948c-0.681,0-1.233-0.554-1.233-1.234v-29.175
						L465.97,321.357z"/>
				</g>
			</g>
			<g>
				<path fill="#DCDDDE" d="M469.114,292.021h-51.702c-0.727,0-1.316-0.59-1.316-1.318v-5.905c0-0.727,0.589-1.316,1.316-1.316
					h51.702c0.729,0,1.317,0.59,1.317,1.316v5.905C470.432,291.432,469.843,292.021,469.114,292.021z"/>
			</g>
			<g>
				
					<rect x="479.261" y="284.947" fill="#E6E6E7" stroke="#E6E6E7" stroke-width="2.4699" stroke-linecap="round" stroke-linejoin="round" stroke-miterlimit="10" width="48.479" height="39.174"/>
				<g>
					<path fill="#FFFFFF" d="M526.207,292.183v29.175c0,0.681-0.552,1.234-1.232,1.234h-42.947c-0.685,0-1.236-0.554-1.236-1.234
						v-29.175H526.207z"/>
				</g>
				<g>
					<path fill="#F0F0F0" d="M526.207,321.357c0,0.681-0.552,1.234-1.232,1.234h-42.947c-0.685,0-1.236-0.554-1.236-1.234v-29.175
						L526.207,321.357z"/>
				</g>
			</g>
			<g>
				<path fill="#DCDDDE" d="M529.352,292.021h-51.702c-0.727,0-1.316-0.59-1.316-1.318v-5.905c0-0.727,0.59-1.316,1.316-1.316
					h51.702c0.727,0,1.317,0.59,1.317,1.316v5.905C530.669,291.432,530.078,292.021,529.352,292.021z"/>
			</g>
		</g>
	</g>
	
		<line fill="none" stroke="#FFFFFF" stroke-width="1.8267" stroke-linecap="round" stroke-linejoin="round" stroke-miterlimit="10" x1="417.014" y1="94.953" x2="529.526" y2="94.953"/>
	<g>
		<g>
			
				<line fill="none" stroke="#FFFFFF" stroke-width="0.3279" stroke-linecap="round" stroke-miterlimit="10" x1="415.538" y1="70.683" x2="415.538" y2="72.956"/>
			
				<line fill="none" stroke="#FFFFFF" stroke-width="0.3279" stroke-linecap="round" stroke-miterlimit="10" x1="414.991" y1="71.242" x2="415.538" y2="71.851"/>
			
				<line fill="none" stroke="#FFFFFF" stroke-width="0.3279" stroke-linecap="round" stroke-miterlimit="10" x1="416.083" y1="71.242" x2="415.538" y2="71.851"/>
		</g>
		<g>
			
				<line fill="none" stroke="#FFFFFF" stroke-width="0.3279" stroke-linecap="round" stroke-miterlimit="10" x1="415.538" y1="75.231" x2="415.538" y2="72.956"/>
			
				<line fill="none" stroke="#FFFFFF" stroke-width="0.3279" stroke-linecap="round" stroke-miterlimit="10" x1="416.083" y1="74.669" x2="415.538" y2="74.062"/>
			
				<line fill="none" stroke="#FFFFFF" stroke-width="0.3279" stroke-linecap="round" stroke-miterlimit="10" x1="414.991" y1="74.669" x2="415.538" y2="74.062"/>
		</g>
		<g>
			
				<line fill="none" stroke="#FFFFFF" stroke-width="0.3279" stroke-linecap="round" stroke-miterlimit="10" x1="417.494" y1="71.784" x2="415.523" y2="72.922"/>
			
				<line fill="none" stroke="#FFFFFF" stroke-width="0.3279" stroke-linecap="round" stroke-miterlimit="10" x1="417.28" y1="72.538" x2="416.48" y2="72.368"/>
			
				<line fill="none" stroke="#FFFFFF" stroke-width="0.3279" stroke-linecap="round" stroke-miterlimit="10" x1="416.735" y1="71.593" x2="416.48" y2="72.368"/>
		</g>
		<g>
			
				<line fill="none" stroke="#FFFFFF" stroke-width="0.3279" stroke-linecap="round" stroke-miterlimit="10" x1="413.602" y1="71.784" x2="415.57" y2="72.922"/>
			
				<line fill="none" stroke="#FFFFFF" stroke-width="0.3279" stroke-linecap="round" stroke-miterlimit="10" x1="413.814" y1="72.538" x2="414.611" y2="72.368"/>
			
				<line fill="none" stroke="#FFFFFF" stroke-width="0.3279" stroke-linecap="round" stroke-miterlimit="10" x1="414.359" y1="71.593" x2="414.611" y2="72.368"/>
		</g>
		<g>
			
				<line fill="none" stroke="#FFFFFF" stroke-width="0.3279" stroke-linecap="round" stroke-miterlimit="10" x1="413.602" y1="74.06" x2="415.57" y2="72.922"/>
			
				<line fill="none" stroke="#FFFFFF" stroke-width="0.3279" stroke-linecap="round" stroke-miterlimit="10" x1="414.359" y1="74.251" x2="414.611" y2="73.475"/>
			
				<line fill="none" stroke="#FFFFFF" stroke-width="0.3279" stroke-linecap="round" stroke-miterlimit="10" x1="413.814" y1="73.307" x2="414.611" y2="73.475"/>
		</g>
		<g>
			
				<line fill="none" stroke="#FFFFFF" stroke-width="0.3279" stroke-linecap="round" stroke-miterlimit="10" x1="417.496" y1="74.06" x2="415.527" y2="72.922"/>
			
				<line fill="none" stroke="#FFFFFF" stroke-width="0.3279" stroke-linecap="round" stroke-miterlimit="10" x1="416.739" y1="74.251" x2="416.485" y2="73.475"/>
			
				<line fill="none" stroke="#FFFFFF" stroke-width="0.3279" stroke-linecap="round" stroke-miterlimit="10" x1="417.285" y1="73.307" x2="416.485" y2="73.475"/>
		</g>
	</g>
	<g>
		<g>
			
				<line fill="none" stroke="#FFFFFF" stroke-width="0.1991" stroke-linecap="round" stroke-miterlimit="10" x1="413.05" y1="75.95" x2="413.05" y2="77.331"/>
			
				<line fill="none" stroke="#FFFFFF" stroke-width="0.1991" stroke-linecap="round" stroke-miterlimit="10" x1="412.717" y1="76.291" x2="413.05" y2="76.66"/>
			
				<line fill="none" stroke="#FFFFFF" stroke-width="0.1991" stroke-linecap="round" stroke-miterlimit="10" x1="413.38" y1="76.291" x2="413.05" y2="76.66"/>
		</g>
		<g>
			
				<line fill="none" stroke="#FFFFFF" stroke-width="0.1991" stroke-linecap="round" stroke-miterlimit="10" x1="413.05" y1="78.714" x2="413.05" y2="77.331"/>
			
				<line fill="none" stroke="#FFFFFF" stroke-width="0.1991" stroke-linecap="round" stroke-miterlimit="10" x1="413.38" y1="78.372" x2="413.05" y2="78.003"/>
			
				<line fill="none" stroke="#FFFFFF" stroke-width="0.1991" stroke-linecap="round" stroke-miterlimit="10" x1="412.717" y1="78.372" x2="413.05" y2="78.003"/>
		</g>
		<g>
			
				<line fill="none" stroke="#FFFFFF" stroke-width="0.1991" stroke-linecap="round" stroke-miterlimit="10" x1="414.236" y1="76.62" x2="413.04" y2="77.312"/>
			
				<line fill="none" stroke="#FFFFFF" stroke-width="0.1991" stroke-linecap="round" stroke-miterlimit="10" x1="414.108" y1="77.075" x2="413.623" y2="76.975"/>
			
				<line fill="none" stroke="#FFFFFF" stroke-width="0.1991" stroke-linecap="round" stroke-miterlimit="10" x1="413.776" y1="76.503" x2="413.623" y2="76.975"/>
		</g>
		<g>
			
				<line fill="none" stroke="#FFFFFF" stroke-width="0.1991" stroke-linecap="round" stroke-miterlimit="10" x1="411.872" y1="76.62" x2="413.069" y2="77.312"/>
			
				<line fill="none" stroke="#FFFFFF" stroke-width="0.1991" stroke-linecap="round" stroke-miterlimit="10" x1="412.002" y1="77.075" x2="412.487" y2="76.975"/>
			
				<line fill="none" stroke="#FFFFFF" stroke-width="0.1991" stroke-linecap="round" stroke-miterlimit="10" x1="412.334" y1="76.503" x2="412.487" y2="76.975"/>
		</g>
		<g>
			
				<line fill="none" stroke="#FFFFFF" stroke-width="0.1991" stroke-linecap="round" stroke-miterlimit="10" x1="411.872" y1="78" x2="413.069" y2="77.312"/>
			
				<line fill="none" stroke="#FFFFFF" stroke-width="0.1991" stroke-linecap="round" stroke-miterlimit="10" x1="412.334" y1="78.118" x2="412.487" y2="77.646"/>
			
				<line fill="none" stroke="#FFFFFF" stroke-width="0.1991" stroke-linecap="round" stroke-miterlimit="10" x1="412.002" y1="77.544" x2="412.487" y2="77.646"/>
		</g>
		<g>
			
				<line fill="none" stroke="#FFFFFF" stroke-width="0.1991" stroke-linecap="round" stroke-miterlimit="10" x1="414.239" y1="78" x2="413.042" y2="77.312"/>
			
				<line fill="none" stroke="#FFFFFF" stroke-width="0.1991" stroke-linecap="round" stroke-miterlimit="10" x1="413.778" y1="78.118" x2="413.625" y2="77.646"/>
			
				<line fill="none" stroke="#FFFFFF" stroke-width="0.1991" stroke-linecap="round" stroke-miterlimit="10" x1="414.11" y1="77.544" x2="413.625" y2="77.646"/>
		</g>
	</g>
	<g>
		<g>
			
				<line fill="none" stroke="#FFFFFF" stroke-width="0.3301" stroke-linecap="round" stroke-miterlimit="10" x1="530.894" y1="113.138" x2="530.894" y2="115.429"/>
			
				<line fill="none" stroke="#FFFFFF" stroke-width="0.3301" stroke-linecap="round" stroke-miterlimit="10" x1="530.345" y1="113.704" x2="530.894" y2="114.313"/>
			
				<line fill="none" stroke="#FFFFFF" stroke-width="0.3301" stroke-linecap="round" stroke-miterlimit="10" x1="531.443" y1="113.704" x2="530.894" y2="114.313"/>
		</g>
		<g>
			
				<line fill="none" stroke="#FFFFFF" stroke-width="0.3301" stroke-linecap="round" stroke-miterlimit="10" x1="530.894" y1="117.718" x2="530.894" y2="115.429"/>
			
				<line fill="none" stroke="#FFFFFF" stroke-width="0.3301" stroke-linecap="round" stroke-miterlimit="10" x1="531.443" y1="117.153" x2="530.894" y2="116.541"/>
			
				<line fill="none" stroke="#FFFFFF" stroke-width="0.3301" stroke-linecap="round" stroke-miterlimit="10" x1="530.345" y1="117.153" x2="530.894" y2="116.541"/>
		</g>
		<g>
			
				<line fill="none" stroke="#FFFFFF" stroke-width="0.3301" stroke-linecap="round" stroke-miterlimit="10" x1="532.862" y1="114.249" x2="530.882" y2="115.393"/>
			
				<line fill="none" stroke="#FFFFFF" stroke-width="0.3301" stroke-linecap="round" stroke-miterlimit="10" x1="532.647" y1="115.005" x2="531.845" y2="114.837"/>
			
				<line fill="none" stroke="#FFFFFF" stroke-width="0.3301" stroke-linecap="round" stroke-miterlimit="10" x1="532.099" y1="114.055" x2="531.845" y2="114.837"/>
		</g>
		<g>
			
				<line fill="none" stroke="#FFFFFF" stroke-width="0.3301" stroke-linecap="round" stroke-miterlimit="10" x1="528.944" y1="114.249" x2="530.927" y2="115.393"/>
			
				<line fill="none" stroke="#FFFFFF" stroke-width="0.3301" stroke-linecap="round" stroke-miterlimit="10" x1="529.159" y1="115.005" x2="529.964" y2="114.837"/>
			
				<line fill="none" stroke="#FFFFFF" stroke-width="0.3301" stroke-linecap="round" stroke-miterlimit="10" x1="529.71" y1="114.055" x2="529.964" y2="114.837"/>
		</g>
		<g>
			
				<line fill="none" stroke="#FFFFFF" stroke-width="0.3301" stroke-linecap="round" stroke-miterlimit="10" x1="528.944" y1="116.538" x2="530.927" y2="115.393"/>
			
				<line fill="none" stroke="#FFFFFF" stroke-width="0.3301" stroke-linecap="round" stroke-miterlimit="10" x1="529.71" y1="116.73" x2="529.964" y2="115.949"/>
			
				<line fill="none" stroke="#FFFFFF" stroke-width="0.3301" stroke-linecap="round" stroke-miterlimit="10" x1="529.159" y1="115.779" x2="529.964" y2="115.949"/>
		</g>
		<g>
			
				<line fill="none" stroke="#FFFFFF" stroke-width="0.3301" stroke-linecap="round" stroke-miterlimit="10" x1="532.867" y1="116.538" x2="530.884" y2="115.393"/>
			
				<line fill="none" stroke="#FFFFFF" stroke-width="0.3301" stroke-linecap="round" stroke-miterlimit="10" x1="532.104" y1="116.73" x2="531.85" y2="115.949"/>
			
				<line fill="none" stroke="#FFFFFF" stroke-width="0.3301" stroke-linecap="round" stroke-miterlimit="10" x1="532.653" y1="115.779" x2="531.85" y2="115.949"/>
		</g>
	</g>
	<g>
		<g>
			
				<line fill="none" stroke="#FFFFFF" stroke-width="0.3301" stroke-linecap="round" stroke-miterlimit="10" x1="490.915" y1="101.715" x2="490.915" y2="104.004"/>
			
				<line fill="none" stroke="#FFFFFF" stroke-width="0.3301" stroke-linecap="round" stroke-miterlimit="10" x1="490.365" y1="102.278" x2="490.915" y2="102.89"/>
			
				<line fill="none" stroke="#FFFFFF" stroke-width="0.3301" stroke-linecap="round" stroke-miterlimit="10" x1="491.464" y1="102.278" x2="490.915" y2="102.89"/>
		</g>
		<g>
			
				<line fill="none" stroke="#FFFFFF" stroke-width="0.3301" stroke-linecap="round" stroke-miterlimit="10" x1="490.915" y1="106.294" x2="490.915" y2="104.004"/>
			
				<line fill="none" stroke="#FFFFFF" stroke-width="0.3301" stroke-linecap="round" stroke-miterlimit="10" x1="491.464" y1="105.729" x2="490.915" y2="105.118"/>
			
				<line fill="none" stroke="#FFFFFF" stroke-width="0.3301" stroke-linecap="round" stroke-miterlimit="10" x1="490.365" y1="105.729" x2="490.915" y2="105.118"/>
		</g>
		<g>
			
				<line fill="none" stroke="#FFFFFF" stroke-width="0.3301" stroke-linecap="round" stroke-miterlimit="10" x1="492.884" y1="102.825" x2="490.899" y2="103.97"/>
			
				<line fill="none" stroke="#FFFFFF" stroke-width="0.3301" stroke-linecap="round" stroke-miterlimit="10" x1="492.669" y1="103.583" x2="491.864" y2="103.413"/>
			
				<line fill="none" stroke="#FFFFFF" stroke-width="0.3301" stroke-linecap="round" stroke-miterlimit="10" x1="492.118" y1="102.632" x2="491.864" y2="103.413"/>
		</g>
		<g>
			
				<line fill="none" stroke="#FFFFFF" stroke-width="0.3301" stroke-linecap="round" stroke-miterlimit="10" x1="488.965" y1="102.824" x2="490.946" y2="103.97"/>
			
				<line fill="none" stroke="#FFFFFF" stroke-width="0.3301" stroke-linecap="round" stroke-miterlimit="10" x1="489.18" y1="103.583" x2="489.982" y2="103.413"/>
			
				<line fill="none" stroke="#FFFFFF" stroke-width="0.3301" stroke-linecap="round" stroke-miterlimit="10" x1="489.727" y1="102.632" x2="489.982" y2="103.413"/>
		</g>
		<g>
			
				<line fill="none" stroke="#FFFFFF" stroke-width="0.3301" stroke-linecap="round" stroke-miterlimit="10" x1="488.965" y1="105.115" x2="490.946" y2="103.97"/>
			
				<line fill="none" stroke="#FFFFFF" stroke-width="0.3301" stroke-linecap="round" stroke-miterlimit="10" x1="489.727" y1="105.308" x2="489.982" y2="104.526"/>
			
				<line fill="none" stroke="#FFFFFF" stroke-width="0.3301" stroke-linecap="round" stroke-miterlimit="10" x1="489.18" y1="104.356" x2="489.982" y2="104.526"/>
		</g>
		<g>
			
				<line fill="none" stroke="#FFFFFF" stroke-width="0.3301" stroke-linecap="round" stroke-miterlimit="10" x1="492.886" y1="105.115" x2="490.903" y2="103.97"/>
			
				<line fill="none" stroke="#FFFFFF" stroke-width="0.3301" stroke-linecap="round" stroke-miterlimit="10" x1="492.124" y1="105.308" x2="491.868" y2="104.526"/>
			
				<line fill="none" stroke="#FFFFFF" stroke-width="0.3301" stroke-linecap="round" stroke-miterlimit="10" x1="492.672" y1="104.356" x2="491.868" y2="104.526"/>
		</g>
	</g>
	<g>
		<g>
			
				<line fill="none" stroke="#FFFFFF" stroke-width="0.3279" stroke-linecap="round" stroke-miterlimit="10" x1="427.403" y1="109.56" x2="427.403" y2="111.835"/>
			
				<line fill="none" stroke="#FFFFFF" stroke-width="0.3279" stroke-linecap="round" stroke-miterlimit="10" x1="426.857" y1="110.122" x2="427.403" y2="110.729"/>
			
				<line fill="none" stroke="#FFFFFF" stroke-width="0.3279" stroke-linecap="round" stroke-miterlimit="10" x1="427.949" y1="110.122" x2="427.403" y2="110.729"/>
		</g>
		<g>
			
				<line fill="none" stroke="#FFFFFF" stroke-width="0.3279" stroke-linecap="round" stroke-miterlimit="10" x1="427.403" y1="114.11" x2="427.403" y2="111.835"/>
			
				<line fill="none" stroke="#FFFFFF" stroke-width="0.3279" stroke-linecap="round" stroke-miterlimit="10" x1="427.949" y1="113.55" x2="427.403" y2="112.942"/>
			
				<line fill="none" stroke="#FFFFFF" stroke-width="0.3279" stroke-linecap="round" stroke-miterlimit="10" x1="426.857" y1="113.55" x2="427.403" y2="112.942"/>
		</g>
		<g>
			
				<line fill="none" stroke="#FFFFFF" stroke-width="0.3279" stroke-linecap="round" stroke-miterlimit="10" x1="429.358" y1="110.663" x2="427.39" y2="111.801"/>
			
				<line fill="none" stroke="#FFFFFF" stroke-width="0.3279" stroke-linecap="round" stroke-miterlimit="10" x1="429.146" y1="111.416" x2="428.346" y2="111.248"/>
			
				<line fill="none" stroke="#FFFFFF" stroke-width="0.3279" stroke-linecap="round" stroke-miterlimit="10" x1="428.6" y1="110.472" x2="428.346" y2="111.248"/>
		</g>
		<g>
			
				<line fill="none" stroke="#FFFFFF" stroke-width="0.3279" stroke-linecap="round" stroke-miterlimit="10" x1="425.467" y1="110.663" x2="427.436" y2="111.801"/>
			
				<line fill="none" stroke="#FFFFFF" stroke-width="0.3279" stroke-linecap="round" stroke-miterlimit="10" x1="425.68" y1="111.416" x2="426.478" y2="111.248"/>
			
				<line fill="none" stroke="#FFFFFF" stroke-width="0.3279" stroke-linecap="round" stroke-miterlimit="10" x1="426.226" y1="110.472" x2="426.478" y2="111.248"/>
		</g>
		<g>
			
				<line fill="none" stroke="#FFFFFF" stroke-width="0.3279" stroke-linecap="round" stroke-miterlimit="10" x1="425.467" y1="112.938" x2="427.436" y2="111.801"/>
			
				<line fill="none" stroke="#FFFFFF" stroke-width="0.3279" stroke-linecap="round" stroke-miterlimit="10" x1="426.226" y1="113.131" x2="426.478" y2="112.354"/>
			
				<line fill="none" stroke="#FFFFFF" stroke-width="0.3279" stroke-linecap="round" stroke-miterlimit="10" x1="425.68" y1="112.185" x2="426.478" y2="112.354"/>
		</g>
		<g>
			
				<line fill="none" stroke="#FFFFFF" stroke-width="0.3279" stroke-linecap="round" stroke-miterlimit="10" x1="429.362" y1="112.938" x2="427.393" y2="111.801"/>
			
				<line fill="none" stroke="#FFFFFF" stroke-width="0.3279" stroke-linecap="round" stroke-miterlimit="10" x1="428.605" y1="113.131" x2="428.351" y2="112.354"/>
			
				<line fill="none" stroke="#FFFFFF" stroke-width="0.3279" stroke-linecap="round" stroke-miterlimit="10" x1="429.149" y1="112.185" x2="428.351" y2="112.354"/>
		</g>
	</g>
	<g>
		<g>
			<path fill="#FFFFFF" d="M428.643,66.503l-2.419,18.081c-0.021,0.149-0.148,0.263-0.3,0.263c-0.153,0-0.279-0.113-0.3-0.263
				l-2.421-18.081H428.643z"/>
			<path fill="#FFFFFF" stroke="#FFFFFF" stroke-width="0.3024" stroke-linecap="round" stroke-miterlimit="10" d="M428.94,66.609
				l-2.418,18.081c-0.041,0.299-0.297,0.524-0.599,0.524c-0.304,0-0.56-0.226-0.6-0.524l-2.42-18.081H428.94z M425.924,84.61v0.303
				V84.61L425.924,84.61L425.924,84.61z M423.549,66.871l2.375,17.737l2.372-17.737H423.549z"/>
		</g>
	</g>
	<g>
		<g>
			<path fill="#FFFFFF" d="M435.649,66.503l-1.38,10.314c-0.012,0.087-0.085,0.151-0.172,0.151c-0.086,0-0.157-0.064-0.17-0.151
				l-1.381-10.314H435.649z"/>
			<path fill="#FFFFFF" stroke="#FFFFFF" stroke-width="0.1726" stroke-linecap="round" stroke-miterlimit="10" d="M435.821,66.563
				L434.44,76.88c-0.022,0.169-0.17,0.299-0.343,0.299s-0.319-0.13-0.342-0.299l-1.379-10.316H435.821z M434.098,76.834v0.173
				V76.834L434.098,76.834L434.098,76.834z M432.744,66.712l1.354,10.121l1.356-10.121H432.744z"/>
		</g>
	</g>
	<g>
		<g>
			<path fill="#FFFFFF" d="M525.254,66.452l-1.391,10.385c-0.012,0.086-0.086,0.15-0.172,0.15c-0.089,0-0.161-0.064-0.173-0.15
				l-1.39-10.385H525.254z"/>
			<path fill="#FFFFFF" stroke="#FFFFFF" stroke-width="0.1737" stroke-linecap="round" stroke-miterlimit="10" d="M525.426,66.513
				l-1.391,10.385c-0.023,0.17-0.172,0.301-0.344,0.301c-0.174,0-0.321-0.131-0.345-0.301l-1.389-10.385H525.426z M523.691,76.852
				v0.173V76.852L523.691,76.852L523.691,76.852z M522.329,66.664l1.362,10.187l1.363-10.187H522.329z"/>
		</g>
	</g>
	<g>
		<g>
			<path fill="#FFFFFF" d="M529.064,66.452l-0.74,5.537c-0.007,0.046-0.045,0.081-0.092,0.081c-0.045,0-0.085-0.035-0.091-0.081
				l-0.742-5.537H529.064z"/>
			<path fill="#FFFFFF" stroke="#FFFFFF" stroke-width="0.0926" stroke-linecap="round" stroke-miterlimit="10" d="M529.157,66.485
				l-0.742,5.536c-0.011,0.092-0.09,0.161-0.183,0.161c-0.091,0-0.172-0.069-0.184-0.161l-0.741-5.536H529.157z M528.232,71.998
				v0.093V71.998L528.232,71.998L528.232,71.998z M527.506,66.564l0.727,5.432l0.728-5.432H527.506z"/>
		</g>
	</g>
	<path fill="#FFFFFF" stroke="#FFFFFF" stroke-width="0.4455" stroke-miterlimit="10" d="M388.215,135.679
		c0-0.561,0.454-1.014,1.015-1.014h9.705c0.56,0,1.014,0.453,1.014,1.014v202.62c0,0.562-0.454,1.014-1.014,1.014h-9.705
		c-0.561,0-1.015-0.452-1.015-1.014V135.679z"/>
	<path fill="#FFFFFF" stroke="#FFFFFF" stroke-width="0.4455" stroke-miterlimit="10" d="M388.215,61.847
		c0-0.561,0.454-1.015,1.015-1.015h9.705c0.56,0,1.014,0.454,1.014,1.015v66.666c0,0.562-0.454,1.016-1.014,1.016h-9.705
		c-0.561,0-1.015-0.454-1.015-1.016V61.847z"/>
	<path fill="#C6C6C9" d="M402.731,74.944c0-0.69-0.561-1.253-1.253-1.253l0,0c-0.692,0-1.252,0.562-1.252,1.253v10.113
		c0,0.692,0.56,1.254,1.252,1.254l0,0c0.692,0,1.253-0.562,1.253-1.254V74.944z"/>
	<path fill="#9C9C9E" d="M402.731,80.002v5.056c0,0.692-0.561,1.254-1.253,1.254l0,0c-0.692,0-1.252-0.562-1.252-1.254v-5.056
		H402.731z"/>
	<path fill="#C6C6C9" d="M402.731,105.302c0-0.691-0.561-1.252-1.253-1.252l0,0c-0.692,0-1.252,0.561-1.252,1.252v10.113
		c0,0.691,0.56,1.252,1.252,1.252l0,0c0.692,0,1.253-0.561,1.253-1.252V105.302z"/>
	<path fill="#9C9C9E" d="M402.731,110.395v5.058c0,0.691-0.561,1.252-1.253,1.252l0,0c-0.692,0-1.252-0.561-1.252-1.252v-5.058
		H402.731z"/>
	<g>
		<path fill="#C6C6C9" d="M402.731,149.229c0-0.689-0.561-1.25-1.253-1.25l0,0c-0.692,0-1.252,0.561-1.252,1.25v10.115
			c0,0.691,0.56,1.252,1.252,1.252l0,0c0.692,0,1.253-0.561,1.253-1.252V149.229z"/>
		<path fill="#9C9C9E" d="M402.731,154.288v5.057c0,0.691-0.561,1.252-1.253,1.252l0,0c-0.692,0-1.252-0.561-1.252-1.252v-5.057
			H402.731z"/>
	</g>
	<path fill="#C6C6C9" d="M402.731,314.564c0-0.69-0.561-1.249-1.253-1.249l0,0c-0.692,0-1.252,0.559-1.252,1.249v10.115
		c0,0.691,0.56,1.252,1.252,1.252l0,0c0.692,0,1.253-0.561,1.253-1.252V314.564z"/>
	<path fill="#9C9C9E" d="M402.731,319.622v5.058c0,0.691-0.561,1.252-1.253,1.252l0,0c-0.692,0-1.252-0.561-1.252-1.252v-5.058
		H402.731z"/>
	
		<rect x="223.81" y="134.494" fill="#FFFFFF" stroke="#FFFFFF" stroke-width="0.6801" stroke-linecap="round" stroke-linejoin="round" stroke-miterlimit="10" width="154.929" height="5.978"/>
	
		<rect x="223.81" y="62.536" fill="#FFFFFF" stroke="#FFFFFF" stroke-width="0.6801" stroke-linecap="round" stroke-linejoin="round" stroke-miterlimit="10" width="154.929" height="5.977"/>
	<path opacity="0.85" fill="#DFF1FA" stroke="#DFF1FA" stroke-width="0.1749" stroke-miterlimit="10" d="M251.365,131.122
		c0,0.188-0.153,0.34-0.341,0.34h-13.926c-0.189,0-0.341-0.152-0.341-0.34l-2.498-24.009c0-0.188,0.153-0.341,0.34-0.341h18.922
		c0.188,0,0.34,0.152,0.34,0.341L251.365,131.122z"/>
	<polygon fill="#F5FBFD" points="237.461,129.05 235.232,106.688 252.891,106.688 250.66,129.062 	"/>
	<path opacity="0.85" fill="#DFF1FA" stroke="#DFF1FA" stroke-width="0.1749" stroke-miterlimit="10" d="M251.365,117.146
		c0,0.188-0.153,0.34-0.341,0.34h-13.926c-0.189,0-0.341-0.152-0.341-0.34l-2.498-24.009c0-0.188,0.153-0.341,0.34-0.341h18.922
		c0.188,0,0.34,0.152,0.34,0.341L251.365,117.146z"/>
	<polygon fill="#F5FBFD" points="237.461,115.071 235.232,92.711 252.891,92.711 250.66,115.086 	"/>
	<path opacity="0.85" fill="#DFF1FA" stroke="#DFF1FA" stroke-width="0.1749" stroke-miterlimit="10" d="M251.365,103.168
		c0,0.188-0.153,0.341-0.341,0.341h-13.926c-0.189,0-0.341-0.152-0.341-0.341l-2.498-24.009c0-0.188,0.153-0.34,0.34-0.34h18.922
		c0.188,0,0.34,0.152,0.34,0.34L251.365,103.168z"/>
	<polygon fill="#F5FBFD" points="237.461,101.095 235.232,78.733 252.891,78.733 250.66,101.108 	"/>
	<path opacity="0.15" fill="#04B9E8" stroke="#04B9E8" stroke-width="0.1749" stroke-miterlimit="10" d="M237.098,103.509
		c-0.189,0-0.341-0.152-0.341-0.341l-2.498-24.009c0-0.188,0.153-0.34,0.34-0.34h9.84v24.689H237.098z"/>
	<path opacity="0.15" fill="#04B9E8" stroke="#04B9E8" stroke-width="0.1749" stroke-miterlimit="10" d="M237.098,117.485
		c-0.189,0-0.341-0.152-0.341-0.34l-2.498-24.009c0-0.188,0.153-0.341,0.34-0.341h9.84v24.689H237.098z"/>
	<path opacity="0.15" fill="#04B9E8" stroke="#04B9E8" stroke-width="0.1749" stroke-miterlimit="10" d="M237.098,131.462
		c-0.189,0-0.341-0.152-0.341-0.34l-2.498-24.009c0-0.188,0.153-0.341,0.34-0.341h9.84v24.689H237.098z"/>
	<path opacity="0.85" fill="#DFF1FA" stroke="#DFF1FA" stroke-width="0.1749" stroke-miterlimit="10" d="M277.364,131.122
		c0,0.188-0.153,0.34-0.341,0.34h-13.927c-0.188,0-0.34-0.152-0.34-0.34l-2.499-24.009c0-0.188,0.153-0.341,0.341-0.341h18.922
		c0.188,0,0.34,0.152,0.34,0.341L277.364,131.122z"/>
	<polygon fill="#F5FBFD" points="263.46,129.05 261.23,106.688 278.889,106.688 276.659,129.062 	"/>
	<path opacity="0.85" fill="#DFF1FA" stroke="#DFF1FA" stroke-width="0.1749" stroke-miterlimit="10" d="M277.364,117.146
		c0,0.188-0.153,0.34-0.341,0.34h-13.927c-0.188,0-0.34-0.152-0.34-0.34l-2.499-24.009c0-0.188,0.153-0.341,0.341-0.341h18.922
		c0.188,0,0.34,0.152,0.34,0.341L277.364,117.146z"/>
	<polygon fill="#F5FBFD" points="263.46,115.071 261.23,92.711 278.889,92.711 276.659,115.086 	"/>
	<path opacity="0.85" fill="#DFF1FA" stroke="#DFF1FA" stroke-width="0.1749" stroke-miterlimit="10" d="M277.364,103.168
		c0,0.188-0.153,0.341-0.341,0.341h-13.927c-0.188,0-0.34-0.152-0.34-0.341l-2.499-24.009c0-0.188,0.153-0.34,0.341-0.34h18.922
		c0.188,0,0.34,0.152,0.34,0.34L277.364,103.168z"/>
	<polygon fill="#F5FBFD" points="263.46,101.095 261.23,78.733 278.889,78.733 276.659,101.108 	"/>
	<path opacity="0.15" fill="#04B9E8" stroke="#04B9E8" stroke-width="0.1749" stroke-miterlimit="10" d="M263.097,103.509
		c-0.188,0-0.34-0.152-0.34-0.341l-2.499-24.009c0-0.188,0.153-0.34,0.341-0.34h9.84v24.689H263.097z"/>
	<path opacity="0.15" fill="#04B9E8" stroke="#04B9E8" stroke-width="0.1749" stroke-miterlimit="10" d="M263.097,117.485
		c-0.188,0-0.34-0.152-0.34-0.34l-2.499-24.009c0-0.188,0.153-0.341,0.341-0.341h9.84v24.689H263.097z"/>
	<path opacity="0.15" fill="#04B9E8" stroke="#04B9E8" stroke-width="0.1749" stroke-miterlimit="10" d="M263.097,131.462
		c-0.188,0-0.34-0.152-0.34-0.34l-2.499-24.009c0-0.188,0.153-0.341,0.341-0.341h9.84v24.689H263.097z"/>
	<path opacity="0.85" fill="#DFF1FA" stroke="#DFF1FA" stroke-width="0.1749" stroke-miterlimit="10" d="M302.534,131.122
		c0,0.188-0.153,0.34-0.341,0.34h-13.927c-0.188,0-0.339-0.152-0.339-0.34l-2.498-24.009c0-0.188,0.152-0.341,0.341-0.341h18.922
		c0.187,0,0.34,0.152,0.34,0.341L302.534,131.122z"/>
	<polygon fill="#F5FBFD" points="288.63,129.05 286.4,106.688 304.06,106.688 301.829,129.062 	"/>
	<path opacity="0.85" fill="#DFF1FA" stroke="#DFF1FA" stroke-width="0.1749" stroke-miterlimit="10" d="M302.534,117.146
		c0,0.188-0.153,0.34-0.341,0.34h-13.927c-0.188,0-0.339-0.152-0.339-0.34l-2.498-24.009c0-0.188,0.152-0.341,0.341-0.341h18.922
		c0.187,0,0.34,0.152,0.34,0.341L302.534,117.146z"/>
	<polygon fill="#F5FBFD" points="288.63,115.071 286.4,92.711 304.06,92.711 301.829,115.086 	"/>
	<path opacity="0.15" fill="#04B9E8" stroke="#04B9E8" stroke-width="0.1749" stroke-miterlimit="10" d="M288.266,117.485
		c-0.188,0-0.339-0.152-0.339-0.34l-2.498-24.009c0-0.188,0.152-0.341,0.341-0.341h9.839v24.689H288.266z"/>
	<path opacity="0.15" fill="#04B9E8" stroke="#04B9E8" stroke-width="0.1749" stroke-miterlimit="10" d="M288.266,131.462
		c-0.188,0-0.339-0.152-0.339-0.34l-2.498-24.009c0-0.188,0.152-0.341,0.341-0.341h9.839v24.689H288.266z"/>
	<g>
		<path fill="#DFF1FA" stroke="#DFF1FA" stroke-width="0.1888" stroke-miterlimit="10" d="M241.098,60.378h5.753
			c1.251,0,2.266-1.014,2.266-2.266V38.146c0-1.048-0.288-2.184-1.518-3.157c0,0-0.994-0.61-1.041-1.917v-2.736h-5.46h-3.496h-5.46
			v2.736c-0.047,1.307-1.041,1.917-1.041,1.917c-1.23,0.974-1.518,2.109-1.518,3.157v19.967c0,1.252,1.013,2.266,2.266,2.266h5.753
			H241.098z"/>
		<path opacity="0.56" fill="#CFEBF7" stroke="#CFEBF7" stroke-width="0.1888" stroke-miterlimit="10" d="M239.35,60.378h-1.748
			h-5.753c-1.252,0-2.266-1.014-2.266-2.266V38.146c0-1.048,0.288-2.184,1.518-3.157c0,0,0.994-0.61,1.041-1.917v-2.736h5.46h1.748
			V60.378z"/>
		
			<line fill="none" stroke="#ACCEDE" stroke-width="0.4902" stroke-linecap="round" stroke-miterlimit="10" x1="231.938" y1="30.495" x2="246.782" y2="30.495"/>
		
			<line fill="none" stroke="#ACCEDE" stroke-width="0.6128" stroke-linecap="round" stroke-miterlimit="10" x1="231.938" y1="32.54" x2="246.782" y2="32.54"/>
		
			<line fill="none" stroke="#8FC4D5" stroke-width="0.3677" stroke-linecap="round" stroke-miterlimit="10" x1="231.826" y1="31.347" x2="246.859" y2="31.347"/>
		
			<line fill="none" stroke="#ACCEDE" stroke-width="0.4902" stroke-linecap="round" stroke-miterlimit="10" x1="231.938" y1="30.495" x2="246.782" y2="30.495"/>
		
			<rect x="231.364" y="30.46" fill="#CABB9D" stroke="#CABB9D" stroke-width="0.4902" stroke-linecap="round" stroke-linejoin="round" stroke-miterlimit="10" width="15.993" height="2.328"/>
		
			<polygon fill="#A38977" stroke="#A38977" stroke-width="0.4902" stroke-linecap="round" stroke-linejoin="round" stroke-miterlimit="10" points="
			239.361,32.788 231.364,32.788 231.364,30.46 239.379,30.46 		"/>
		<g>
			<path fill="#FDCB39" stroke="#FDCB39" stroke-width="0.1806" stroke-miterlimit="10" d="M247.975,37.445V56.21
				c0,1.3-0.892,2.354-1.993,2.354h-5.065h-3.077h-5.065c-1.102,0-1.994-1.054-1.994-2.354V37.445H247.975z"/>
			<path fill="#F7B71D" stroke="#F7B71D" stroke-width="0.1806" stroke-miterlimit="10" d="M239.385,58.563h-6.61
				c-1.102,0-1.994-1.054-1.994-2.354V37.445h8.604V58.563z"/>
		</g>
	</g>
	<path fill="#DFF1FA" stroke="#DFF1FA" stroke-width="0.1888" stroke-miterlimit="10" d="M317.875,60.378h5.754
		c1.25,0,2.264-1.014,2.264-2.266V38.146c0-1.048-0.288-2.184-1.518-3.157c0,0-0.993-0.61-1.04-1.917v-2.736h-5.461h-3.496h-5.461
		v2.736c-0.046,1.307-1.04,1.917-1.04,1.917c-1.229,0.974-1.518,2.109-1.518,3.157v19.967c0,1.252,1.014,2.266,2.265,2.266h5.754
		H317.875z"/>
	<path opacity="0.56" fill="#CFEBF7" stroke="#CFEBF7" stroke-width="0.1888" stroke-miterlimit="10" d="M316.126,60.378h-1.748
		h-5.754c-1.251,0-2.265-1.014-2.265-2.266V38.146c0-1.048,0.289-2.184,1.518-3.157c0,0,0.994-0.61,1.04-1.917v-2.736h5.461h1.748
		V60.378z"/>
	
		<line fill="none" stroke="#ACCEDE" stroke-width="0.6128" stroke-linecap="round" stroke-miterlimit="10" x1="308.715" y1="32.54" x2="323.559" y2="32.54"/>
	
		<line fill="none" stroke="#8FC4D5" stroke-width="0.3677" stroke-linecap="round" stroke-miterlimit="10" x1="308.604" y1="31.347" x2="323.636" y2="31.347"/>
	<path fill="#BD1729" stroke="#BD1729" stroke-width="0.173" stroke-miterlimit="10" d="M324.752,37.445V56.21
		c0,1.3-0.893,2.354-1.994,2.354h-5.064h-3.077h-5.065c-1.102,0-1.994-1.054-1.994-2.354V37.445H324.752z"/>
	<path fill="#AF182C" stroke="#AF182C" stroke-width="0.173" stroke-miterlimit="10" d="M316.162,58.563h-6.609
		c-1.102,0-1.994-1.054-1.994-2.354V37.445h8.604V58.563z"/>
	<path fill="#DFF1FA" stroke="#DFF1FA" stroke-width="0.113" stroke-miterlimit="10" d="M332.021,40.091v19.037
		c0,0.748,0.606,1.355,1.355,1.355h3.444h0.987h3.444c0.748,0,1.355-0.607,1.355-1.355V40.091"/>
	<path opacity="0.56" fill="#CFEBF7" stroke="#CFEBF7" stroke-width="0.113" stroke-miterlimit="10" d="M332.021,40.091v19.037
		c0,0.748,0.606,1.355,1.355,1.355h3.444h0.645c0-0.15,0-20.271,0-20.271"/>
	
		<line fill="none" stroke="#ACCEDE" stroke-width="0.4479" stroke-linecap="round" stroke-miterlimit="10" x1="332.44" y1="40.032" x2="342.187" y2="40.032"/>
	
		<line fill="none" stroke="#8FC4D5" stroke-width="0.2688" stroke-linecap="round" stroke-miterlimit="10" x1="332.357" y1="34.553" x2="342.243" y2="34.553"/>
	<g>
		<rect x="332.021" y="33.903" fill="#00446E" width="10.586" height="6.31"/>
		<path fill="#00446E" d="M331.844,40.213v-6.31c0-0.097,0.079-0.176,0.177-0.176h10.586c0.097,0,0.177,0.079,0.177,0.176v6.31
			H331.844z M332.197,40.036h10.232V34.08h-10.232V40.036z"/>
	</g>
	<g>
		<polygon fill="#232B56" points="337.313,40.213 332.021,40.213 332.021,33.903 337.327,33.903 		"/>
		<path fill="#232B56" d="M331.844,40.213v-6.31c0-0.097,0.079-0.176,0.177-0.176h5.306c0.047,0,0.092,0.018,0.125,0.052
			c0.033,0.033,0.051,0.079,0.051,0.124l-0.013,6.311L331.844,40.213z M332.197,40.036h4.94l0.012-5.956h-4.952V40.036z"/>
	</g>
	<path fill="#FFFFFF" stroke="#FFFFFF" stroke-width="0.0855" stroke-miterlimit="10" d="M341.26,41.755v15.689
		c0,0.617-0.459,1.119-1.025,1.119h-2.604h-0.633h-2.604c-0.566,0-1.025-0.502-1.025-1.119V41.755H341.26z"/>
	<path fill="#047C39" d="M266.209,6.319v9.033c0,0.921-0.217,1.584-1.056,2.423l-0.257,0.249c-3.257,2.604-3.763,4.699-3.763,8.401
		c0,0.366,0,0.753,0,1.382v30.277c0,1.221,0.989,2.21,2.21,2.21h5.274"/>
	<path fill="#047C39" d="M268.617,60.295h5.275c1.22,0,2.21-0.989,2.21-2.21V27.808c0-0.629,0-1.016,0-1.382
		c0-3.702-0.507-5.798-3.763-8.401l-0.259-0.249c-0.838-0.839-1.055-1.502-1.055-2.423V5.28h-0.703h-1.706h-2.258"/>
	<path fill="#05642F" d="M266.552,5.28h2.065v55.015h-5.274c-1.222,0-2.21-0.989-2.21-2.21V27.808c0-0.629,0-1.016,0-1.382
		c0-3.702,0.506-5.798,3.763-8.401l0.257-0.249c0.839-0.839,1.056-1.502,1.056-2.423V5.28H266.552z"/>
	
		<rect x="262.794" y="28.045" fill="#FFFFFF" stroke="#FFFFFF" stroke-width="0.4416" stroke-linecap="round" stroke-linejoin="round" stroke-miterlimit="10" width="11.646" height="19.96"/>
	
		<rect x="262.794" y="28.045" fill="#ECECED" stroke="#ECECED" stroke-width="0.4416" stroke-linecap="round" stroke-linejoin="round" stroke-miterlimit="10" width="5.823" height="19.96"/>
	
		<rect x="266.118" y="0.952" fill="#3E3D3F" stroke="#3E3D3F" stroke-width="0.6066" stroke-linecap="round" stroke-linejoin="round" stroke-miterlimit="10" width="5.006" height="4.328"/>
	<path fill="#047C39" d="M286.475,6.319v9.033c0,0.921-0.217,1.584-1.056,2.423l-0.257,0.249c-3.257,2.604-3.764,4.699-3.764,8.401
		c0,0.366,0,0.753,0,1.382v30.277c0,1.221,0.989,2.21,2.209,2.21h5.276"/>
	<path fill="#604D40" d="M288.884,60.295h5.275c1.22,0,2.21-0.989,2.21-2.21V27.808c0-0.629,0-1.016,0-1.382
		c0-3.702-0.507-5.798-3.762-8.401l-0.26-0.249c-0.838-0.839-1.055-1.502-1.055-2.423V5.28h-0.703h-1.706h-2.259"/>
	<path fill="#42291C" d="M286.819,5.28h2.065v55.015h-5.276c-1.221,0-2.209-0.989-2.209-2.21V27.808c0-0.629,0-1.016,0-1.382
		c0-3.702,0.507-5.798,3.764-8.401l0.257-0.249c0.839-0.839,1.056-1.502,1.056-2.423V5.28H286.819z"/>
	
		<rect x="283.06" y="28.045" fill="#FFFFFF" stroke="#FFFFFF" stroke-width="0.4416" stroke-linecap="round" stroke-linejoin="round" stroke-miterlimit="10" width="11.647" height="19.96"/>
	
		<rect x="283.06" y="28.045" fill="#ECECED" stroke="#ECECED" stroke-width="0.4416" stroke-linecap="round" stroke-linejoin="round" stroke-miterlimit="10" width="5.824" height="19.96"/>
	
		<rect x="308.141" y="30.46" fill="#E4352E" stroke="#E4352E" stroke-width="0.4836" stroke-linecap="round" stroke-linejoin="round" stroke-miterlimit="10" width="15.992" height="2.328"/>
	
		<rect x="286.384" y="0.952" fill="#3E3D3F" stroke="#3E3D3F" stroke-width="0.6066" stroke-linecap="round" stroke-linejoin="round" stroke-miterlimit="10" width="5.006" height="4.328"/>
	
		<polygon fill="#BD1729" stroke="#BD1729" stroke-width="0.4836" stroke-linecap="round" stroke-linejoin="round" stroke-miterlimit="10" points="
		316.138,32.788 308.141,32.788 308.141,30.46 316.155,30.46 	"/>
	<path fill="#CFEBF7" stroke="#CFEBF7" stroke-width="0.113" stroke-miterlimit="10" d="M332.021,40.091"/>
	<path fill="#F5F5F6" stroke="#F5F5F6" stroke-width="0.0855" stroke-miterlimit="10" d="M337.503,58.563h-3.11
		c-0.566,0-1.025-0.502-1.025-1.119V41.755h4.136V58.563z"/>
	<path fill="#DFF1FA" stroke="#DFF1FA" stroke-width="0.113" stroke-miterlimit="10" d="M345.64,40.091v19.037
		c0,0.748,0.607,1.355,1.356,1.355h3.443h0.988h3.444c0.748,0,1.356-0.607,1.356-1.355V40.091"/>
	<path opacity="0.56" fill="#CFEBF7" stroke="#CFEBF7" stroke-width="0.113" stroke-miterlimit="10" d="M345.64,40.091v19.037
		c0,0.748,0.607,1.355,1.356,1.355h3.443h0.646c0-0.15,0-20.271,0-20.271"/>
	
		<line fill="none" stroke="#ACCEDE" stroke-width="0.4479" stroke-linecap="round" stroke-miterlimit="10" x1="346.06" y1="40.032" x2="355.806" y2="40.032"/>
	
		<line fill="none" stroke="#8FC4D5" stroke-width="0.2688" stroke-linecap="round" stroke-miterlimit="10" x1="345.978" y1="34.553" x2="355.863" y2="34.553"/>
	<g>
		<rect x="345.64" y="33.903" fill="#00446E" width="10.587" height="6.31"/>
		<path fill="#00446E" d="M345.463,40.213v-6.31c0-0.097,0.079-0.176,0.176-0.176h10.587c0.097,0,0.175,0.079,0.175,0.176v6.31
			H345.463z M345.816,40.036h10.232V34.08h-10.232V40.036z"/>
	</g>
	<g>
		<polygon fill="#232B56" points="350.933,40.213 345.64,40.213 345.64,33.903 350.946,33.903 		"/>
		<path fill="#232B56" d="M345.463,40.213v-6.31c0-0.097,0.079-0.176,0.176-0.176h5.306c0.047,0,0.092,0.018,0.125,0.052
			c0.033,0.033,0.051,0.079,0.051,0.124l-0.013,6.311L345.463,40.213z M345.816,40.036h4.94l0.012-5.956h-4.952V40.036z"/>
	</g>
	<path fill="#604D40" stroke="#604D40" stroke-width="0.0855" stroke-miterlimit="10" d="M354.879,41.755v15.689
		c0,0.617-0.458,1.119-1.024,1.119h-2.605h-0.634h-2.604c-0.567,0-1.025-0.502-1.025-1.119V41.755H354.879z"/>
	<path fill="#CFEBF7" stroke="#CFEBF7" stroke-width="0.113" stroke-miterlimit="10" d="M345.64,40.091"/>
	<path fill="#48362B" stroke="#48362B" stroke-width="0.0855" stroke-miterlimit="10" d="M351.123,58.563h-3.11
		c-0.567,0-1.025-0.502-1.025-1.119V41.755h4.136V58.563z"/>
	<g>
		<g>
			
				<polygon fill="#C89D64" stroke="#C89D64" stroke-width="0.4975" stroke-linecap="round" stroke-linejoin="round" stroke-miterlimit="10" points="
				717.62,328.794 716.279,301.61 716.285,259.893 687.357,259.893 658.432,259.893 658.438,301.61 657.094,328.794 			"/>
		</g>
		<g>
			
				<polyline fill="#BE915C" stroke="#BE915C" stroke-width="0.4975" stroke-linecap="round" stroke-linejoin="round" stroke-miterlimit="10" points="
				717.62,328.794 716.279,301.61 716.285,268.267 687.357,268.267 658.432,268.267 			"/>
		</g>
		<g>
			
				<rect x="656.225" y="257.82" fill="#C89D64" stroke="#C89D64" stroke-width="0.5046" stroke-linecap="round" stroke-linejoin="round" stroke-miterlimit="10" width="62.267" height="10.446"/>
		</g>
	</g>
	
		<path fill="none" stroke="#42291C" stroke-width="4.8271" stroke-linecap="round" stroke-linejoin="round" stroke-miterlimit="10" d="
		M687.216,336.345c-11.633,0-11.931-7.469-11.931-7.469l-3.342-42.185c-0.564-5.466-4.492-9.332-9.579-9.332h-2.038h-4.918"/>
	
		<polyline fill="none" stroke="#42291C" stroke-width="4.7891" stroke-linecap="round" stroke-linejoin="round" stroke-miterlimit="10" points="
		687.216,337.375 658.187,337.375 656.666,277.359 	"/>
	
		<path fill="none" stroke="#42291C" stroke-width="4.8271" stroke-linecap="round" stroke-linejoin="round" stroke-miterlimit="10" d="
		M719.022,277.359h-4.918h-2.036c-5.086,0-9.016,3.866-9.578,9.332l-3.345,42.185c0,0-0.299,7.469-11.93,7.469"/>
	
		<polyline fill="none" stroke="#42291C" stroke-width="4.7891" stroke-linecap="round" stroke-linejoin="round" stroke-miterlimit="10" points="
		687.216,337.375 716.246,337.375 717.765,277.359 	"/>
	
		<path fill="#D01138" stroke="#D01138" stroke-width="0.7979" stroke-linecap="round" stroke-linejoin="round" stroke-miterlimit="10" d="
		M218.647,174.709c0,0.254-0.224,0.459-0.501,0.459h-9.856c-0.276,0-0.499-0.205-0.499-0.459v-2.03c0-0.253,0.223-0.458,0.499-0.458
		h9.856c0.277,0,0.501,0.205,0.501,0.458V174.709z"/>
	<path fill="#C11636" d="M219.063,173.694v1.015c0,0.464-0.411,0.841-0.917,0.841h-9.856c-0.505,0-0.917-0.377-0.917-0.841v-1.015
		H219.063z"/>
	<rect x="157.181" y="167.481" fill="#AD173D" width="51.541" height="1.898"/>
	<rect x="157.181" y="167.481" fill="#A0182D" width="25.667" height="1.898"/>
	<rect x="91.975" y="172.264" fill="#BBBCBE" width="48.574" height="1.899"/>
	<rect x="91.975" y="172.264" fill="#9C9C9E" width="24.302" height="1.899"/>
	
		<path fill="#D01138" stroke="#D01138" stroke-width="0.7979" stroke-linecap="round" stroke-linejoin="round" stroke-miterlimit="10" d="
		M157.909,174.709c0,0.254-0.224,0.459-0.5,0.459h-9.856c-0.276,0-0.5-0.205-0.5-0.459v-2.03c0-0.253,0.224-0.458,0.5-0.458h9.856
		c0.276,0,0.5,0.205,0.5,0.458V174.709z"/>
	<g>
		<path fill="#C11636" d="M147.054,173.694v1.015c0,0.254,0.223,0.459,0.5,0.459h9.855c0.276,0,0.501-0.205,0.501-0.459v-1.015
			H147.054z"/>
		<path fill="#C11636" d="M158.326,173.694v1.015c0,0.464-0.412,0.841-0.917,0.841h-9.855c-0.506,0-0.917-0.377-0.917-0.841v-1.015
			H158.326z M147.469,174.075v0.634c0,0.042,0.039,0.075,0.084,0.075h9.855c0.046,0,0.083-0.033,0.083-0.075v-0.634H147.469z"/>
	</g>
	
		<rect x="182.293" y="159.45" fill="#3E3D3F" stroke="#3E3D3F" stroke-width="0.977" stroke-linecap="round" stroke-linejoin="round" stroke-miterlimit="10" width="1.609" height="3.311"/>
	<g>
		<rect x="157.672" y="169.38" fill="#D01138" width="50.353" height="27.088"/>
		<path fill="#D01138" d="M208.721,169.38v27.088c0,0.26-0.211,0.472-0.471,0.472h-50.353c-0.26,0-0.472-0.212-0.472-0.472V169.38
			 M158.144,195.997h49.41v-26.145h-49.41V195.997z"/>
	</g>
	<g>
		<rect x="157.672" y="169.38" fill="#C11636" width="25.176" height="27.088"/>
		<path fill="#C11636" d="M182.848,169.38v27.539h-25.176c-0.271,0-0.492-0.201-0.492-0.451V169.38H182.848z M158.164,196.017
			h24.193v-26.185h-24.193V196.017z"/>
	</g>
	
		<rect x="178.398" y="158.577" fill="#5A595B" stroke="#5A595B" stroke-width="1.068" stroke-linecap="round" stroke-linejoin="round" stroke-miterlimit="10" width="9.434" height="1.745"/>
	<g>
		<rect x="178.398" y="158.577" fill="#3E3D3F" width="4.717" height="1.745"/>
		<path fill="#3E3D3F" d="M183.115,160.856h-4.717c-0.294,0-0.534-0.24-0.534-0.534v-1.745c0-0.294,0.239-0.533,0.534-0.533h4.717
			V160.856z M178.933,159.788h3.648v-0.677h-3.648V159.788z"/>
	</g>
	<g>
		<path fill="#D01138" d="M182.865,164.161c18.939,0,25.193,1.906,25.193,1.906v1.414h-25.193h-25.193v-1.414
			C157.672,166.067,163.926,164.161,182.865,164.161z"/>
		<path fill="#D01138" d="M157.201,167.481v-1.414c0-0.207,0.136-0.391,0.333-0.449c0.257-0.08,6.537-1.929,25.331-1.929
			c18.792,0,25.277,1.849,25.535,1.929c0.198,0.059,0.334,0.242,0.334,0.449v1.414 M158.144,167.01h49.648v-0.579
			c-1.525-0.37-8.656-1.799-24.926-1.799s-23.198,1.429-24.722,1.799V167.01z"/>
	</g>
	<g>
		<polyline fill="#C11636" points="182.865,167.481 157.672,167.481 157.672,166.067 		"/>
		<path fill="#C11636" d="M182.848,167.481h-25.667v-1.414c0-0.193,0.135-0.365,0.336-0.428c0.258-0.078,6.545-1.93,25.348-1.93
			L182.848,167.481z"/>
	</g>
	<path fill="#5A595B" stroke="#5A595B" stroke-width="0.9317" stroke-miterlimit="10" d="M92.246,180.473v-3.075H51.922
		c-0.309,0-0.559,0.25-0.559,0.558v1.958c0,0.311,0.25,0.56,0.559,0.56H92.246z"/>
	<g>
		<path fill="#3E3D3F" d="M51.922,180.938c-0.564,0-1.024-0.459-1.024-1.025v-0.978h41.798v2.003H51.922z"/>
	</g>
	<g>
		<path fill="#D9DADB" d="M140.578,174.187v22.392c0,0.256-0.209,0.466-0.466,0.466H92.439c-0.257,0-0.465-0.21-0.465-0.466v-22.392
			H140.578z"/>
	</g>
	<path fill="#FFFFFF" d="M367.562,130.263c0-0.663-0.538-1.2-1.199-1.2h-50.254c-0.664,0-1.2,0.537-1.2,1.2l0,0
		c0,0.662,0.536,1.199,1.2,1.199h50.254C367.024,131.462,367.562,130.925,367.562,130.263L367.562,130.263z"/>
	<path fill="#FFFFFF" d="M367.562,125.536c0-0.662-0.538-1.199-1.199-1.199h-50.254c-0.664,0-1.2,0.537-1.2,1.199l0,0
		c0,0.662,0.536,1.201,1.2,1.201h50.254C367.024,126.737,367.562,126.198,367.562,125.536L367.562,125.536z"/>
	<path fill="#FFFFFF" d="M367.562,120.806c0-0.662-0.538-1.199-1.199-1.199h-50.254c-0.664,0-1.2,0.537-1.2,1.199l0,0
		c0,0.663,0.536,1.201,1.2,1.201h50.254C367.024,122.007,367.562,121.469,367.562,120.806L367.562,120.806z"/>
	<path fill="#FFFFFF" d="M367.562,116.08c0-0.663-0.538-1.2-1.199-1.2h-50.254c-0.664,0-1.2,0.537-1.2,1.2l0,0
		c0,0.663,0.536,1.2,1.2,1.2h50.254C367.024,117.28,367.562,116.743,367.562,116.08L367.562,116.08z"/>
	<path fill="#FFFFFF" d="M367.562,111.351c0-0.663-0.538-1.199-1.199-1.199h-50.254c-0.664,0-1.2,0.536-1.2,1.199l0,0
		c0,0.663,0.536,1.2,1.2,1.2h50.254C367.024,112.551,367.562,112.014,367.562,111.351L367.562,111.351z"/>
	<path fill="#FFFFFF" d="M367.562,106.624c0-0.662-0.538-1.201-1.199-1.201h-50.254c-0.664,0-1.2,0.539-1.2,1.201l0,0
		c0,0.662,0.536,1.199,1.2,1.199h50.254C367.024,107.823,367.562,107.286,367.562,106.624L367.562,106.624z"/>
	<path fill="#ECECED" d="M341.235,131.462h-25.126c-0.664,0-1.2-0.537-1.2-1.199l0,0c0-0.663,0.536-1.2,1.2-1.2h25.126V131.462z"/>
	<path fill="#ECECED" d="M341.235,126.737h-25.126c-0.664,0-1.2-0.539-1.2-1.201l0,0c0-0.662,0.536-1.199,1.2-1.199h25.126V126.737z
		"/>
	<path fill="#ECECED" d="M341.235,122.007h-25.126c-0.664,0-1.2-0.538-1.2-1.201l0,0c0-0.662,0.536-1.199,1.2-1.199h25.126V122.007z
		"/>
	<path fill="#ECECED" d="M341.235,117.28h-25.126c-0.664,0-1.2-0.537-1.2-1.2l0,0c0-0.663,0.536-1.2,1.2-1.2h25.126V117.28z"/>
	<path fill="#ECECED" d="M341.235,112.551h-25.126c-0.664,0-1.2-0.537-1.2-1.2l0,0c0-0.663,0.536-1.199,1.2-1.199h25.126V112.551z"
		/>
	<path fill="#ECECED" d="M341.235,107.823h-25.126c-0.664,0-1.2-0.537-1.2-1.199l0,0c0-0.662,0.536-1.201,1.2-1.201h25.126V107.823z
		"/>
	<g>
		<path fill="#C6C6C9" d="M116.276,174.187v22.857H92.439c-0.257,0-0.465-0.21-0.465-0.466v-22.235v-0.156H116.276z M92.907,174.651
			"/>
	</g>
</g>
</svg>
