<?xml version="1.0" encoding="utf-8"?>
<!-- Generator: Adobe Illustrator 15.0.2, SVG Export Plug-In . SVG Version: 6.00 Build 0)  -->
<!DOCTYPE svg PUBLIC "-//W3C//DTD SVG 1.1//EN" "http://www.w3.org/Graphics/SVG/1.1/DTD/svg11.dtd">
<svg version="1.1" id="Lager_1" xmlns="http://www.w3.org/2000/svg" xmlns:xlink="http://www.w3.org/1999/xlink" x="0px" y="0px"
	 width="14.111px" height="21.562px" viewBox="0 0 14.111 21.562" enable-background="new 0 0 14.111 21.562" xml:space="preserve">
<g>
	<g>
		<path fill="#FFD941" d="M3.062,20.005"/>
		<path fill="#FFD941" d="M0.556,20.111C0.513,19.97-3.593,6.122,11.179,0.312c0.466-0.183,1.141-0.448,1.592-0.23
			c0.447,0.212,0.637,0.893,0.784,1.37c0.044,0.14,4.15,13.989-10.624,19.798c-0.464,0.184-1.138,0.448-1.589,0.23
			c-0.028-0.012-0.055-0.025-0.082-0.039C0.85,21.216,0.695,20.558,0.556,20.111z"/>
	</g>
	<g>
		<path fill="#FFCE0E" d="M3.062,20.005"/>
		<path fill="#FFCE0E" d="M12.771,0.082c0.447,0.212,0.637,0.893,0.784,1.37c0.044,0.14,4.15,13.989-10.624,19.798
			c-0.464,0.184-1.138,0.448-1.589,0.23c-0.028-0.012-0.055-0.025-0.082-0.039L12.771,0.082z"/>
	</g>
</g>
</svg>
