<?xml version="1.0" encoding="utf-8"?>
<!-- Generator: Adobe Illustrator 15.0.2, SVG Export Plug-In . SVG Version: 6.00 Build 0)  -->
<!DOCTYPE svg PUBLIC "-//W3C//DTD SVG 1.1//EN" "http://www.w3.org/Graphics/SVG/1.1/DTD/svg11.dtd">
<svg version="1.1" id="Lager_1" xmlns="http://www.w3.org/2000/svg" xmlns:xlink="http://www.w3.org/1999/xlink" x="0px" y="0px"
	 width="14.111px" height="21.562px" viewBox="0 0 14.111 21.562" enable-background="new 0 0 14.111 21.562" xml:space="preserve">
<g>
	<g>
		<path fill="#FFD941" d="M11.05,20.005"/>
		<path fill="#FFD941" d="M12.852,21.441c-0.027,0.014-0.054,0.027-0.081,0.039c-0.451,0.218-1.126-0.047-1.591-0.23
			C-3.594,15.441,0.513,1.592,0.557,1.452c0.147-0.477,0.336-1.157,0.785-1.37c0.45-0.218,1.125,0.047,1.59,0.23
			c14.772,5.81,10.665,19.658,10.623,19.799C13.416,20.558,13.262,21.216,12.852,21.441z"/>
	</g>
	<g>
		<path fill="#FFCE0E" d="M11.05,20.005"/>
		<path fill="#FFCE0E" d="M12.852,21.441c-0.027,0.014-0.054,0.027-0.081,0.039c-0.451,0.218-1.126-0.047-1.591-0.23
			C-3.594,15.441,0.513,1.592,0.557,1.452c0.147-0.477,0.336-1.157,0.785-1.37L12.852,21.441z"/>
	</g>
</g>
</svg>
