<?xml version="1.0" encoding="utf-8"?>
<!-- Generator: Adobe Illustrator 17.0.0, SVG Export Plug-In . SVG Version: 6.00 Build 0)  -->
<!DOCTYPE svg PUBLIC "-//W3C//DTD SVG 1.1//EN" "http://www.w3.org/Graphics/SVG/1.1/DTD/svg11.dtd">
<svg version="1.1" id="Layer_1" xmlns="http://www.w3.org/2000/svg" xmlns:xlink="http://www.w3.org/1999/xlink" x="0px" y="0px"
	 width="388.983px" height="271.212px" viewBox="0 0 388.983 271.212" enable-background="new 0 0 388.983 271.212"
	 xml:space="preserve">
<g>
	<path fill="none" stroke="#E94E1B" stroke-width="84.6911" stroke-linecap="round" stroke-miterlimit="10" d="M42.346,204.67
		c0-89.649,81.101-162.324,181.145-162.324"/>
	<path fill="#BE1622" d="M42.346,247.016C18.959,247.016,0,228.058,0,204.67C0,91.814,100.257,0,223.49,0
		c44.031,0,86.637,11.702,123.211,33.842c20.006,12.111,26.406,38.147,14.296,58.154c-12.11,20.006-38.146,26.409-58.154,14.296
		c-23.345-14.132-50.785-21.602-79.353-21.602c-76.534,0-138.799,53.823-138.799,119.979
		C84.691,228.058,65.732,247.016,42.346,247.016z"/>
	<path fill="#E20714" d="M360.385,92.96c12.11-20.006,6.322-47.007-13.684-59.118C310.127,11.702,267.521,0,223.49,0
		C100.257,0,0,91.814,0,204.67c0,23.388,20.337,42.316,43.723,42.316l0.957-42.316c0-88.219,80.214-159.99,178.811-159.99
		c35.874,0,70.474,9.476,100.071,27.384C323.955,72.302,360.385,92.96,360.385,92.96z"/>
	
		<polygon fill="#E20714" stroke="#E20714" stroke-width="1.5683" stroke-linecap="round" stroke-linejoin="round" stroke-miterlimit="10" points="
		32.603,254.442 52.087,254.442 56.619,270.428 47.113,261.786 42.452,270.428 38.005,261.786 28.071,270.428 	"/>
	
		<polygon fill="#BE1622" stroke="#BE1622" stroke-width="1.5683" stroke-linecap="round" stroke-linejoin="round" stroke-miterlimit="10" points="
		42.345,254.442 52.087,254.442 56.619,270.428 47.113,261.786 42.452,270.428 	"/>
	
		<polygon fill="#BE1622" stroke="#BE1622" stroke-width="1.5683" stroke-linecap="round" stroke-linejoin="round" stroke-miterlimit="10" points="
		361.42,105.787 372.461,89.733 388.199,95.056 375.692,97.993 380.173,106.73 370.533,105.497 372.023,118.579 	"/>
	
		<polygon fill="#E20714" stroke="#E20714" stroke-width="1.5683" stroke-linecap="round" stroke-linejoin="round" stroke-miterlimit="10" points="
		366.939,97.76 372.461,89.733 388.199,95.056 375.692,97.993 380.173,106.73 	"/>
</g>
</svg>
