<?xml version="1.0" encoding="utf-8"?>
<!-- Generator: Adobe Illustrator 17.0.0, SVG Export Plug-In . SVG Version: 6.00 Build 0)  -->
<!DOCTYPE svg PUBLIC "-//W3C//DTD SVG 1.1//EN" "http://www.w3.org/Graphics/SVG/1.1/DTD/svg11.dtd">
<svg version="1.1" id="Layer_1" xmlns="http://www.w3.org/2000/svg" xmlns:xlink="http://www.w3.org/1999/xlink" x="0px" y="0px"
	 width="280.23px" height="92.54px" viewBox="0 0 280.23 92.54" enable-background="new 0 0 280.23 92.54" xml:space="preserve">
<circle fill="#A93C32" cx="12.383" cy="31.124" r="3.42"/>
<circle fill="#A93C32" cx="22.482" cy="30.636" r="3.42"/>
<circle fill="#A93C32" cx="32.568" cy="30.833" r="3.42"/>
<circle fill="#A93C32" cx="42.64" cy="31.714" r="3.42"/>
<circle fill="#A93C32" cx="52.712" cy="33.278" r="3.42"/>
<circle fill="#A93C32" cx="62.182" cy="35.33" r="3.42"/>
<path fill="#C6463B" stroke="#C6463B" stroke-width="6" stroke-linecap="round" stroke-linejoin="round" stroke-miterlimit="10" d="
	M82.271,39.756c21.58-5.084,36.178-15.063,37.183-27.585c0.168-2.087-0.055-4.169-0.63-6.221c-7.96-1.357-16.416-2.286-25.198-2.704
	c-44.19-2.099-81.432,9.44-88.771,26.473c8.32-0.895,17.222-1.176,26.455-0.738C50.836,29.908,68.587,33.89,82.271,39.756z"/>
<path fill="#C6463B" stroke="#C6463B" stroke-width="6" stroke-linecap="round" stroke-linejoin="round" stroke-miterlimit="10" d="
	M193.29,47.292c0-6.562,2.937-12.689,8.017-17.893c-13.492-12.319-40.83-21.545-73.911-24.357c1.092,2.592,1.671,5.265,1.671,7.999
	c0,23.58-42.509,42.695-94.946,42.695C23.22,55.737,12.75,54.908,3,53.387C10.692,73.861,53.915,89.54,106.086,89.54
	c42.029,0,78.246-10.177,94.763-24.838C196.053,59.604,193.29,53.653,193.29,47.292z"/>
<path fill="#A93C32" stroke="#A93C32" stroke-width="6" stroke-linecap="round" stroke-linejoin="round" stroke-miterlimit="10" d="
	M118.824,5.95c0.574,2.053,0.798,4.134,0.63,6.221c-1.005,12.522-15.603,22.501-37.183,27.585
	C68.587,33.89,50.836,29.908,31.31,28.981c-9.233-0.438-18.134-0.157-26.455,0.738L118.824,5.95z"/>
<ellipse fill="#C6463B" stroke="#C6463B" stroke-width="6" stroke-linecap="round" stroke-linejoin="round" stroke-miterlimit="10" cx="239.269" cy="47.292" rx="37.962" ry="23.313"/>
<path fill="#A93C32" stroke="#A93C32" stroke-width="6" stroke-linecap="round" stroke-linejoin="round" stroke-miterlimit="10" d="
	M277.23,47.292c0,12.875-16.996,23.313-37.962,23.313c-20.965,0-37.962-10.438-37.962-23.313H277.23z"/>
</svg>
