<?xml version="1.0" encoding="utf-8"?>
<!-- Generator: Adobe Illustrator 15.0.2, SVG Export Plug-In . SVG Version: 6.00 Build 0)  -->
<!DOCTYPE svg PUBLIC "-//W3C//DTD SVG 1.1//EN" "http://www.w3.org/Graphics/SVG/1.1/DTD/svg11.dtd">
<svg version="1.1" id="Lager_1" xmlns="http://www.w3.org/2000/svg" xmlns:xlink="http://www.w3.org/1999/xlink" x="0px" y="0px"
	 width="566.73px" height="101.999px" viewBox="0 0 566.73 101.999" enable-background="new 0 0 566.73 101.999"
	 xml:space="preserve">
<g>
	<rect y="12.926" fill="#C6C6C6" width="566.73" height="76.147"/>
	<rect y="51" fill="#C0C0C0" width="566.73" height="38.074"/>
	<g>
		<polygon fill="#B2B2B2" points="26.004,12.926 26.014,12.926 0.246,89.073 8.272,89.073 34.098,12.926 34.098,0 		"/>
		<polygon fill="#9D9D9C" points="8.272,89.073 0.246,89.073 13.13,51 21.214,51 		"/>
	</g>
	<g>
		<polygon fill="#B2B2B2" points="43.79,89.073 35.763,89.073 61.531,12.926 69.615,12.926 		"/>
		<polygon fill="#9D9D9C" points="48.647,51 35.763,89.073 35.696,101.999 43.79,89.073 56.731,51 		"/>
	</g>
	<g>
		<polygon fill="#B2B2B2" points="96.97,12.926 96.98,12.926 71.212,89.073 79.239,89.073 105.064,12.926 105.064,0 		"/>
		<polygon fill="#9D9D9C" points="79.239,89.073 71.212,89.073 84.096,51 92.18,51 		"/>
	</g>
	<g>
		<polygon fill="#B2B2B2" points="114.756,89.073 106.729,89.073 132.497,12.926 140.581,12.926 		"/>
		<polygon fill="#9D9D9C" points="119.613,51 106.729,89.073 106.662,101.999 114.756,89.073 127.697,51 		"/>
	</g>
	<g>
		<polygon fill="#B2B2B2" points="167.937,12.926 167.947,12.926 142.179,89.073 150.206,89.073 176.031,12.926 176.031,0 		"/>
		<polygon fill="#9D9D9C" points="150.206,89.073 142.179,89.073 155.063,51 163.147,51 		"/>
	</g>
	<g>
		<polygon fill="#B2B2B2" points="185.723,89.073 177.696,89.073 203.464,12.926 211.548,12.926 		"/>
		<polygon fill="#9D9D9C" points="190.58,51 177.696,89.073 177.629,101.999 185.723,89.073 198.664,51 		"/>
	</g>
	<g>
		<polygon fill="#B2B2B2" points="238.903,12.926 238.913,12.926 213.146,89.073 221.172,89.073 246.997,12.926 246.997,0 		"/>
		<polygon fill="#9D9D9C" points="221.172,89.073 213.146,89.073 226.029,51 234.113,51 		"/>
	</g>
	<g>
		<polygon fill="#B2B2B2" points="256.689,89.073 248.663,89.073 274.43,12.926 282.514,12.926 		"/>
		<polygon fill="#9D9D9C" points="261.546,51 248.663,89.073 248.595,101.999 256.689,89.073 269.63,51 		"/>
	</g>
	<g>
		<polygon fill="#B2B2B2" points="309.87,12.926 309.879,12.926 284.112,89.073 292.138,89.073 317.963,12.926 317.963,0 		"/>
		<polygon fill="#9D9D9C" points="292.138,89.073 284.112,89.073 296.996,51 305.08,51 		"/>
	</g>
	<g>
		<polygon fill="#B2B2B2" points="327.656,89.073 319.629,89.073 345.397,12.926 353.481,12.926 		"/>
		<polygon fill="#9D9D9C" points="332.513,51 319.629,89.073 319.562,101.999 327.656,89.073 340.597,51 		"/>
	</g>
	<g>
		<polygon fill="#B2B2B2" points="380.836,12.926 380.846,12.926 355.079,89.073 363.105,89.073 388.93,12.926 388.93,0 		"/>
		<polygon fill="#9D9D9C" points="363.105,89.073 355.079,89.073 367.962,51 376.046,51 		"/>
	</g>
	<g>
		<polygon fill="#B2B2B2" points="398.623,89.073 390.596,89.073 416.364,12.926 424.448,12.926 		"/>
		<polygon fill="#9D9D9C" points="403.48,51 390.596,89.073 390.529,101.999 398.623,89.073 411.564,51 		"/>
	</g>
	<g>
		<polygon fill="#B2B2B2" points="451.803,12.926 451.813,12.926 426.045,89.073 434.072,89.073 459.897,12.926 459.897,0 		"/>
		<polygon fill="#9D9D9C" points="434.072,89.073 426.045,89.073 438.929,51 447.013,51 		"/>
	</g>
	<g>
		<polygon fill="#B2B2B2" points="469.588,89.073 461.562,89.073 487.33,12.926 495.414,12.926 		"/>
		<polygon fill="#9D9D9C" points="474.446,51 461.562,89.073 461.495,101.999 469.588,89.073 482.53,51 		"/>
	</g>
	<g>
		<polygon fill="#B2B2B2" points="522.77,12.926 522.78,12.926 497.012,89.073 505.039,89.073 530.864,12.926 530.864,0 		"/>
		<polygon fill="#9D9D9C" points="505.039,89.073 497.012,89.073 509.896,51 517.98,51 		"/>
	</g>
	<g>
		<polygon fill="#B2B2B2" points="540.555,89.073 532.529,89.073 558.296,12.926 566.38,12.926 		"/>
		<polygon fill="#9D9D9C" points="545.413,51 532.529,89.073 532.461,101.999 540.555,89.073 553.497,51 		"/>
	</g>
</g>
</svg>
