<?xml version="1.0" encoding="utf-8"?>
<!-- Generator: Adobe Illustrator 15.0.2, SVG Export Plug-In . SVG Version: 6.00 Build 0)  -->
<!DOCTYPE svg PUBLIC "-//W3C//DTD SVG 1.1//EN" "http://www.w3.org/Graphics/SVG/1.1/DTD/svg11.dtd">
<svg version="1.1" id="Lager_1" xmlns="http://www.w3.org/2000/svg" xmlns:xlink="http://www.w3.org/1999/xlink" x="0px" y="0px"
	 width="161.131px" height="162.096px" viewBox="0 0 161.131 162.096" enable-background="new 0 0 161.131 162.096"
	 xml:space="preserve">
<g>
	
		<line fill="none" stroke="#F8B335" stroke-width="5.8879" stroke-linecap="round" stroke-miterlimit="10" x1="74.76" y1="120.684" x2="74.76" y2="150.321"/>
	<polyline fill="none" stroke="#F8B335" stroke-width="5.8879" stroke-linecap="round" stroke-miterlimit="10" points="
		51.797,159.152 67.105,159.152 74.171,150.467 81.923,159.152 	"/>
	<path fill="#BE3B28" d="M35.777,0.807c-3.372-2.051-8.333-0.056-11.082,4.458c-0.037,0.061-0.067,0.123-0.104,0.185
		c-0.4-0.754-0.955-1.38-1.671-1.817c-3.027-1.842-7.708,0.324-10.458,4.838c-2.746,4.515-2.52,9.668,0.508,11.513
		c3.027,1.842,7.709-0.325,10.457-4.838c0.086-0.143,0.162-0.286,0.243-0.43c0.486,1.012,1.203,1.861,2.157,2.443
		c3.372,2.053,8.333,0.055,11.082-4.459C39.657,8.184,39.15,2.862,35.777,0.807z"/>
	<g>
		<polyline fill="#F9B61E" stroke="#F9B61E" stroke-width="0.1561" stroke-miterlimit="10" points="12.839,32.562 0.179,30.666 
			11.367,20.934 		"/>
	</g>
	<g>
		<path fill="#BE3B28" d="M16.024,54.766c0,0,2.437-0.256,4.294-2.447c4.038-5.435-0.367-10.609-0.367-10.609l-7.228-9.414
			L8.509,43.391c0,0-2.731,6.221,2.699,10.268C13.617,55.22,16.024,54.766,16.024,54.766z"/>
	</g>
	<path fill="#FFFFFF" stroke="#FFFFFF" stroke-width="1.1776" stroke-miterlimit="10" d="M22.457,53.169
		c0,0-16.661,78.938,50.144,76.23c0,0,16.192-0.276,33.855-8.716c11.094-5.301,15.311-9.224,24.73-8.636
		c18.84,1.179,14.521-14.129,12.561-17.27c0,0,21.196-5.103,8.34-21.589c13.837-9.715,8.538-20.412-0.588-22.08
		c0,0,5.593-8.93,0.49-15.996c0,0-6.673-12.267-23.159,0.981c-16.486,13.247-21,19.625-28.654,20.213
		c-7.654,0.589-18.154-7.849-27.575-15.503c-9.42-7.654-26.201-28.556-43.57-28.262S6.062,25.495,13.821,33.936
		C19.415,40.022,24.32,44.632,22.457,53.169z"/>
	<path fill="#C89D64" stroke="#C89D64" stroke-width="1.1776" stroke-miterlimit="10" d="M66.998,35.312
		c-9.421-7.654-21-23.062-38.369-22.769S5.661,25.495,13.419,33.936c5.594,6.086,10.5,10.696,8.636,19.233
		c0,0,3.529,7.46,12.755,0.197c7.85,4.712,12.169-2.551,12.169-2.551s9.812,2.551,12.56-6.281
		C71.512,45.124,66.998,35.312,66.998,35.312z"/>
	<circle fill="#1E1E1C" cx="15.451" cy="22.517" r="1.608"/>
</g>
</svg>
