<?xml version="1.0" encoding="utf-8"?>
<!-- Generator: Adobe Illustrator 15.0.2, SVG Export Plug-In . SVG Version: 6.00 Build 0)  -->
<!DOCTYPE svg PUBLIC "-//W3C//DTD SVG 1.1//EN" "http://www.w3.org/Graphics/SVG/1.1/DTD/svg11.dtd">
<svg version="1.1" id="Lager_1" xmlns="http://www.w3.org/2000/svg" xmlns:xlink="http://www.w3.org/1999/xlink" x="0px" y="0px"
	 width="262.896px" height="339.176px" viewBox="0 0 262.896 339.176" enable-background="new 0 0 262.896 339.176"
	 xml:space="preserve">
<g>
	<path fill="#F6F6F6" stroke="#F6F6F6" stroke-width="1.3172" stroke-miterlimit="10" d="M262.237,327.981
		c0,5.819-4.718,10.537-10.537,10.537H40.295c-5.819,0-10.537-4.718-10.537-10.537V11.197c0-5.82,4.718-10.537,10.537-10.537H251.7
		c5.819,0,10.537,4.717,10.537,10.537V327.981z"/>
	
		<path fill="#DADADA" stroke="#DADADA" stroke-width="3.9516" stroke-linecap="round" stroke-linejoin="round" stroke-miterlimit="10" d="
		M0,25.541"/>
	<g>
		
			<rect x="41.758" y="12.514" fill="#CBDBE6" stroke="#CBDBE6" stroke-width="5" stroke-linecap="round" stroke-linejoin="round" stroke-miterlimit="10" width="208.479" height="313.858"/>
		
			<path fill="#DADADA" stroke="#DADADA" stroke-width="3.9516" stroke-linecap="round" stroke-linejoin="round" stroke-miterlimit="10" d="
			M245.688,25.395"/>
		<g>
			
				<polygon fill="#B1CCDB" stroke="#B1CCDB" stroke-width="5" stroke-linecap="round" stroke-linejoin="round" stroke-miterlimit="10" points="
				250.237,326.373 41.758,326.373 41.758,12.514 			"/>
			
				<line fill="none" stroke="#FFFFFF" stroke-width="3" stroke-linecap="round" stroke-linejoin="round" stroke-miterlimit="10" x1="53.605" y1="80.535" x2="238.39" y2="80.535"/>
			
				<line fill="none" stroke="#FFFFFF" stroke-width="3" stroke-linecap="round" stroke-linejoin="round" stroke-miterlimit="10" x1="53.605" y1="156.082" x2="238.39" y2="156.082"/>
			
				<line fill="none" stroke="#FFFFFF" stroke-width="3" stroke-linecap="round" stroke-linejoin="round" stroke-miterlimit="10" x1="53.605" y1="231.628" x2="238.39" y2="231.628"/>
			<g>
				
					<rect x="56.089" y="248.81" fill="#E7E7E7" stroke="#E7E7E7" stroke-width="4.0833" stroke-linecap="round" stroke-linejoin="round" stroke-miterlimit="10" width="80.142" height="64.766"/>
				<g>
					<path fill="#F6F6F6" d="M133.7,260.772v48.232c0,1.127-0.913,2.041-2.042,2.041H60.661c-1.128,0-2.042-0.914-2.042-2.041
						v-48.232H133.7z"/>
				</g>
				<g>
					<path fill="#F0F0F0" d="M133.7,309.004c0,1.127-0.913,2.041-2.042,2.041H60.661c-1.128,0-2.042-0.914-2.042-2.041v-48.232
						L133.7,309.004z"/>
				</g>
			</g>
			<g>
				<path fill="#DEDEDE" d="M138.895,260.507h-85.47c-1.203,0-2.178-0.975-2.178-2.178v-9.763c0-1.203,0.975-2.178,2.178-2.178
					h85.47c1.204,0,2.179,0.975,2.179,2.178v9.763C141.073,259.533,140.099,260.507,138.895,260.507z"/>
			</g>
			<g>
				
					<rect x="155.672" y="248.81" fill="#E7E7E7" stroke="#E7E7E7" stroke-width="4.0833" stroke-linecap="round" stroke-linejoin="round" stroke-miterlimit="10" width="80.142" height="64.766"/>
				<g>
					<path fill="#F6F6F6" d="M233.282,260.772v48.232c0,1.127-0.913,2.041-2.042,2.041h-70.997c-1.129,0-2.042-0.914-2.042-2.041
						v-48.232H233.282z"/>
				</g>
				<g>
					<path fill="#F0F0F0" d="M233.282,309.004c0,1.127-0.913,2.041-2.042,2.041h-70.997c-1.129,0-2.042-0.914-2.042-2.041v-48.232
						L233.282,309.004z"/>
				</g>
			</g>
			<g>
				<path fill="#DEDEDE" d="M238.478,260.507h-85.471c-1.202,0-2.178-0.975-2.178-2.178v-9.763c0-1.203,0.976-2.178,2.178-2.178
					h85.471c1.203,0,2.178,0.975,2.178,2.178v9.763C240.655,259.533,239.681,260.507,238.478,260.507z"/>
			</g>
		</g>
	</g>
	<path fill="#F0F0F0" stroke="#F0F0F0" stroke-width="0.7365" stroke-miterlimit="10" d="M4,2.045c0-0.926,0.751-1.677,1.677-1.677
		h16.044c0.927,0,1.678,0.751,1.678,1.677v334.969c0,0.927-0.751,1.678-1.678,1.678H5.677c-0.926,0-1.677-0.751-1.677-1.678V2.045z"
		/>
	<path fill="#C6C6C6" d="M28.516,24.449c0-1.143-0.927-2.07-2.07-2.07l0,0c-1.143,0-2.069,0.927-2.069,2.07v16.72
		c0,1.143,0.927,2.07,2.069,2.07l0,0c1.144,0,2.07-0.927,2.07-2.07V24.449z"/>
	<path fill="#9D9D9C" d="M28.516,32.809v8.36c0,1.143-0.927,2.07-2.07,2.07l0,0c-1.143,0-2.069-0.927-2.069-2.07v-8.36H28.516z"/>
	<path fill="#C6C6C6" d="M28.516,298.385c0-1.144-0.927-2.07-2.07-2.07l0,0c-1.143,0-2.069,0.927-2.069,2.07v16.72
		c0,1.144,0.927,2.069,2.069,2.069l0,0c1.144,0,2.07-0.926,2.07-2.069V298.385z"/>
	<path fill="#9D9D9C" d="M28.516,306.745v8.36c0,1.144-0.927,2.069-2.07,2.069l0,0c-1.143,0-2.069-0.926-2.069-2.069v-8.36H28.516z"
		/>
</g>
</svg>
