<?xml version="1.0" encoding="utf-8"?>
<!-- Generator: Adobe Illustrator 17.0.0, SVG Export Plug-In . SVG Version: 6.00 Build 0)  -->
<!DOCTYPE svg PUBLIC "-//W3C//DTD SVG 1.1//EN" "http://www.w3.org/Graphics/SVG/1.1/DTD/svg11.dtd">
<svg version="1.1" xmlns="http://www.w3.org/2000/svg" xmlns:xlink="http://www.w3.org/1999/xlink" x="0px" y="0px"
	 width="192.249px" height="69.228px" viewBox="0 0 192.249 69.228" enable-background="new 0 0 192.249 69.228"
	 xml:space="preserve">
<g id="Layer_2">
	<rect x="29.961" y="97.566" fill="#65C1C1" width="213.059" height="102.393"/>
</g>
<g id="Layer_1">
	<g>
		<path fill="#F6F6F6" stroke="#F6F6F6" stroke-width="1.3198" stroke-miterlimit="10" d="M-23.885-169.078
			c0,5.831-4.728,10.558-10.558,10.558h-211.832c-5.83,0-10.558-4.727-10.558-10.558v-92.678c0-5.831,4.727-10.56,10.558-10.56
			h211.832c5.83,0,10.558,4.729,10.558,10.56V-169.078z"/>
		
			<rect x="-245.82" y="-260.237" fill="#CBDBE6" stroke="#CBDBE6" stroke-width="4.0264" stroke-linecap="round" stroke-linejoin="round" stroke-miterlimit="10" width="209.856" height="90.159"/>
		<path fill="#F6F6F6" stroke="#F6F6F6" stroke-width="1.3172" stroke-miterlimit="10" d="M-24.421,178.105
			c0,5.819-4.718,10.537-10.537,10.537h-211.405c-5.819,0-10.537-4.718-10.537-10.537v-316.784c0-5.82,4.718-10.537,10.537-10.537
			h211.405c5.819,0,10.537,4.717,10.537,10.537V178.105z"/>
		
			<path fill="#DADADA" stroke="#DADADA" stroke-width="3.9516" stroke-linecap="round" stroke-linejoin="round" stroke-miterlimit="10" d="
			M-40.97-196.156"/>
		<path fill="#F0F0F0" stroke="#F0F0F0" stroke-width="1.3172" stroke-miterlimit="10" d="M-169.357-157.996"/>
		
			<path fill="#DADADA" stroke="#DADADA" stroke-width="3.9516" stroke-linecap="round" stroke-linejoin="round" stroke-miterlimit="10" d="
			M-286.658-196.156"/>
		
			<path fill="#DADADA" stroke="#DADADA" stroke-width="3.9516" stroke-linecap="round" stroke-linejoin="round" stroke-miterlimit="10" d="
			M-286.658-124.335"/>
		<path fill="#F0F0F0" stroke="#F0F0F0" stroke-width="1.3172" stroke-miterlimit="10" d="M-214.845-157.996"/>
		
			<polyline fill="#B1CCDB" stroke="#B1CCDB" stroke-width="4.0264" stroke-linecap="round" stroke-linejoin="round" stroke-miterlimit="10" points="
			-185.929,-170.073 -245.82,-260.237 -245.82,-170.078 -185.929,-170.073 		"/>
		
			<path fill="#B1CCDB" stroke="#B1CCDB" stroke-width="4.0264" stroke-linecap="round" stroke-linejoin="round" stroke-miterlimit="10" d="
			M-185.929-170.073"/>
		
			<rect x="-244.9" y="-137.362" fill="#CBDBE6" stroke="#CBDBE6" stroke-width="5" stroke-linecap="round" stroke-linejoin="round" stroke-miterlimit="10" width="208.479" height="313.858"/>
		
			<path fill="#DADADA" stroke="#DADADA" stroke-width="3.9516" stroke-linecap="round" stroke-linejoin="round" stroke-miterlimit="10" d="
			M-40.97-124.481"/>
		
			<polygon fill="#B1CCDB" stroke="#B1CCDB" stroke-width="5" stroke-linecap="round" stroke-linejoin="round" stroke-miterlimit="10" points="
			-36.421,176.497 -244.9,176.497 -244.9,-137.362 		"/>
		
			<line fill="none" stroke="#FFFFFF" stroke-width="3" stroke-linecap="round" stroke-linejoin="round" stroke-miterlimit="10" x1="-233.053" y1="-69.341" x2="-48.268" y2="-69.341"/>
		
			<line fill="none" stroke="#FFFFFF" stroke-width="3" stroke-linecap="round" stroke-linejoin="round" stroke-miterlimit="10" x1="-233.053" y1="6.206" x2="-48.268" y2="6.206"/>
		
			<line fill="none" stroke="#FFFFFF" stroke-width="3" stroke-linecap="round" stroke-linejoin="round" stroke-miterlimit="10" x1="-233.053" y1="81.753" x2="-48.268" y2="81.753"/>
		
			<line fill="none" stroke="#FFFFFF" stroke-width="3.0198" stroke-linecap="round" stroke-linejoin="round" stroke-miterlimit="10" x1="-233.894" y1="-215.157" x2="-47.89" y2="-215.157"/>
		<g>
			<g>
				
					<line fill="none" stroke="#FFFFFF" stroke-width="0.5421" stroke-linecap="round" stroke-miterlimit="10" x1="-236.334" y1="-255.283" x2="-236.334" y2="-251.522"/>
				
					<line fill="none" stroke="#FFFFFF" stroke-width="0.5421" stroke-linecap="round" stroke-miterlimit="10" x1="-237.235" y1="-254.355" x2="-236.334" y2="-253.35"/>
				
					<line fill="none" stroke="#FFFFFF" stroke-width="0.5421" stroke-linecap="round" stroke-miterlimit="10" x1="-235.432" y1="-254.355" x2="-236.334" y2="-253.35"/>
			</g>
			<g>
				
					<line fill="none" stroke="#FFFFFF" stroke-width="0.5421" stroke-linecap="round" stroke-miterlimit="10" x1="-236.334" y1="-247.761" x2="-236.334" y2="-251.522"/>
				
					<line fill="none" stroke="#FFFFFF" stroke-width="0.5421" stroke-linecap="round" stroke-miterlimit="10" x1="-235.432" y1="-248.688" x2="-236.334" y2="-249.693"/>
				
					<line fill="none" stroke="#FFFFFF" stroke-width="0.5421" stroke-linecap="round" stroke-miterlimit="10" x1="-237.235" y1="-248.688" x2="-236.334" y2="-249.693"/>
			</g>
			<g>
				
					<line fill="none" stroke="#FFFFFF" stroke-width="0.5421" stroke-linecap="round" stroke-miterlimit="10" x1="-233.1" y1="-253.459" x2="-236.357" y2="-251.579"/>
				
					<line fill="none" stroke="#FFFFFF" stroke-width="0.5421" stroke-linecap="round" stroke-miterlimit="10" x1="-233.454" y1="-252.215" x2="-234.774" y2="-252.493"/>
				
					<line fill="none" stroke="#FFFFFF" stroke-width="0.5421" stroke-linecap="round" stroke-miterlimit="10" x1="-234.354" y1="-253.776" x2="-234.774" y2="-252.493"/>
			</g>
			<g>
				
					<line fill="none" stroke="#FFFFFF" stroke-width="0.5421" stroke-linecap="round" stroke-miterlimit="10" x1="-239.536" y1="-253.46" x2="-236.279" y2="-251.579"/>
				
					<line fill="none" stroke="#FFFFFF" stroke-width="0.5421" stroke-linecap="round" stroke-miterlimit="10" x1="-239.184" y1="-252.215" x2="-237.863" y2="-252.493"/>
				
					<line fill="none" stroke="#FFFFFF" stroke-width="0.5421" stroke-linecap="round" stroke-miterlimit="10" x1="-238.282" y1="-253.777" x2="-237.863" y2="-252.493"/>
			</g>
			<g>
				
					<line fill="none" stroke="#FFFFFF" stroke-width="0.5421" stroke-linecap="round" stroke-miterlimit="10" x1="-239.536" y1="-249.699" x2="-236.279" y2="-251.579"/>
				
					<line fill="none" stroke="#FFFFFF" stroke-width="0.5421" stroke-linecap="round" stroke-miterlimit="10" x1="-238.282" y1="-249.382" x2="-237.863" y2="-250.665"/>
				
					<line fill="none" stroke="#FFFFFF" stroke-width="0.5421" stroke-linecap="round" stroke-miterlimit="10" x1="-239.184" y1="-250.943" x2="-237.863" y2="-250.665"/>
			</g>
			<g>
				
					<line fill="none" stroke="#FFFFFF" stroke-width="0.5421" stroke-linecap="round" stroke-miterlimit="10" x1="-233.095" y1="-249.699" x2="-236.35" y2="-251.579"/>
				
					<line fill="none" stroke="#FFFFFF" stroke-width="0.5421" stroke-linecap="round" stroke-miterlimit="10" x1="-234.348" y1="-249.382" x2="-234.767" y2="-250.665"/>
				
					<line fill="none" stroke="#FFFFFF" stroke-width="0.5421" stroke-linecap="round" stroke-miterlimit="10" x1="-233.446" y1="-250.943" x2="-234.767" y2="-250.665"/>
			</g>
		</g>
		<g>
			<g>
				
					<line fill="none" stroke="#FFFFFF" stroke-width="0.3292" stroke-linecap="round" stroke-miterlimit="10" x1="-240.448" y1="-246.573" x2="-240.448" y2="-244.289"/>
				
					<line fill="none" stroke="#FFFFFF" stroke-width="0.3292" stroke-linecap="round" stroke-miterlimit="10" x1="-240.995" y1="-246.01" x2="-240.448" y2="-245.399"/>
				
					<line fill="none" stroke="#FFFFFF" stroke-width="0.3292" stroke-linecap="round" stroke-miterlimit="10" x1="-239.9" y1="-246.01" x2="-240.448" y2="-245.399"/>
			</g>
			<g>
				
					<line fill="none" stroke="#FFFFFF" stroke-width="0.3292" stroke-linecap="round" stroke-miterlimit="10" x1="-240.448" y1="-242.005" x2="-240.448" y2="-244.289"/>
				
					<line fill="none" stroke="#FFFFFF" stroke-width="0.3292" stroke-linecap="round" stroke-miterlimit="10" x1="-239.9" y1="-242.568" x2="-240.448" y2="-243.179"/>
				
					<line fill="none" stroke="#FFFFFF" stroke-width="0.3292" stroke-linecap="round" stroke-miterlimit="10" x1="-240.995" y1="-242.568" x2="-240.448" y2="-243.179"/>
			</g>
			<g>
				
					<line fill="none" stroke="#FFFFFF" stroke-width="0.3292" stroke-linecap="round" stroke-miterlimit="10" x1="-238.484" y1="-245.465" x2="-240.462" y2="-244.324"/>
				
					<line fill="none" stroke="#FFFFFF" stroke-width="0.3292" stroke-linecap="round" stroke-miterlimit="10" x1="-238.699" y1="-244.71" x2="-239.501" y2="-244.879"/>
				
					<line fill="none" stroke="#FFFFFF" stroke-width="0.3292" stroke-linecap="round" stroke-miterlimit="10" x1="-239.246" y1="-245.658" x2="-239.501" y2="-244.879"/>
			</g>
			<g>
				
					<line fill="none" stroke="#FFFFFF" stroke-width="0.3292" stroke-linecap="round" stroke-miterlimit="10" x1="-242.392" y1="-245.466" x2="-240.415" y2="-244.324"/>
				
					<line fill="none" stroke="#FFFFFF" stroke-width="0.3292" stroke-linecap="round" stroke-miterlimit="10" x1="-242.179" y1="-244.71" x2="-241.377" y2="-244.879"/>
				
					<line fill="none" stroke="#FFFFFF" stroke-width="0.3292" stroke-linecap="round" stroke-miterlimit="10" x1="-241.631" y1="-245.658" x2="-241.377" y2="-244.879"/>
			</g>
			<g>
				
					<line fill="none" stroke="#FFFFFF" stroke-width="0.3292" stroke-linecap="round" stroke-miterlimit="10" x1="-242.392" y1="-243.182" x2="-240.415" y2="-244.324"/>
				
					<line fill="none" stroke="#FFFFFF" stroke-width="0.3292" stroke-linecap="round" stroke-miterlimit="10" x1="-241.631" y1="-242.989" x2="-241.377" y2="-243.768"/>
				
					<line fill="none" stroke="#FFFFFF" stroke-width="0.3292" stroke-linecap="round" stroke-miterlimit="10" x1="-242.179" y1="-243.937" x2="-241.377" y2="-243.768"/>
			</g>
			<g>
				
					<line fill="none" stroke="#FFFFFF" stroke-width="0.3292" stroke-linecap="round" stroke-miterlimit="10" x1="-238.481" y1="-243.182" x2="-240.458" y2="-244.324"/>
				
					<line fill="none" stroke="#FFFFFF" stroke-width="0.3292" stroke-linecap="round" stroke-miterlimit="10" x1="-239.242" y1="-242.989" x2="-239.496" y2="-243.768"/>
				
					<line fill="none" stroke="#FFFFFF" stroke-width="0.3292" stroke-linecap="round" stroke-miterlimit="10" x1="-238.694" y1="-243.937" x2="-239.496" y2="-243.768"/>
			</g>
		</g>
		<g>
			<g>
				
					<line fill="none" stroke="#FFFFFF" stroke-width="0.5457" stroke-linecap="round" stroke-miterlimit="10" x1="-45.628" y1="-185.095" x2="-45.628" y2="-181.309"/>
				
					<line fill="none" stroke="#FFFFFF" stroke-width="0.5457" stroke-linecap="round" stroke-miterlimit="10" x1="-46.535" y1="-184.162" x2="-45.628" y2="-183.15"/>
				
					<line fill="none" stroke="#FFFFFF" stroke-width="0.5457" stroke-linecap="round" stroke-miterlimit="10" x1="-44.72" y1="-184.162" x2="-45.628" y2="-183.15"/>
			</g>
			<g>
				
					<line fill="none" stroke="#FFFFFF" stroke-width="0.5457" stroke-linecap="round" stroke-miterlimit="10" x1="-45.628" y1="-177.523" x2="-45.628" y2="-181.309"/>
				
					<line fill="none" stroke="#FFFFFF" stroke-width="0.5457" stroke-linecap="round" stroke-miterlimit="10" x1="-44.72" y1="-178.457" x2="-45.628" y2="-179.468"/>
				
					<line fill="none" stroke="#FFFFFF" stroke-width="0.5457" stroke-linecap="round" stroke-miterlimit="10" x1="-46.535" y1="-178.457" x2="-45.628" y2="-179.468"/>
			</g>
			<g>
				
					<line fill="none" stroke="#FFFFFF" stroke-width="0.5457" stroke-linecap="round" stroke-miterlimit="10" x1="-42.373" y1="-183.259" x2="-45.651" y2="-181.367"/>
				
					<line fill="none" stroke="#FFFFFF" stroke-width="0.5457" stroke-linecap="round" stroke-miterlimit="10" x1="-42.728" y1="-182.007" x2="-44.058" y2="-182.287"/>
				
					<line fill="none" stroke="#FFFFFF" stroke-width="0.5457" stroke-linecap="round" stroke-miterlimit="10" x1="-43.636" y1="-183.579" x2="-44.058" y2="-182.287"/>
			</g>
			<g>
				
					<line fill="none" stroke="#FFFFFF" stroke-width="0.5457" stroke-linecap="round" stroke-miterlimit="10" x1="-48.851" y1="-183.26" x2="-45.573" y2="-181.367"/>
				
					<line fill="none" stroke="#FFFFFF" stroke-width="0.5457" stroke-linecap="round" stroke-miterlimit="10" x1="-48.496" y1="-182.007" x2="-47.167" y2="-182.287"/>
				
					<line fill="none" stroke="#FFFFFF" stroke-width="0.5457" stroke-linecap="round" stroke-miterlimit="10" x1="-47.589" y1="-183.579" x2="-47.167" y2="-182.287"/>
			</g>
			<g>
				
					<line fill="none" stroke="#FFFFFF" stroke-width="0.5457" stroke-linecap="round" stroke-miterlimit="10" x1="-48.851" y1="-179.474" x2="-45.573" y2="-181.367"/>
				
					<line fill="none" stroke="#FFFFFF" stroke-width="0.5457" stroke-linecap="round" stroke-miterlimit="10" x1="-47.589" y1="-179.155" x2="-47.167" y2="-180.447"/>
				
					<line fill="none" stroke="#FFFFFF" stroke-width="0.5457" stroke-linecap="round" stroke-miterlimit="10" x1="-48.496" y1="-180.726" x2="-47.167" y2="-180.447"/>
			</g>
			<g>
				
					<line fill="none" stroke="#FFFFFF" stroke-width="0.5457" stroke-linecap="round" stroke-miterlimit="10" x1="-42.367" y1="-179.474" x2="-45.644" y2="-181.367"/>
				
					<line fill="none" stroke="#FFFFFF" stroke-width="0.5457" stroke-linecap="round" stroke-miterlimit="10" x1="-43.628" y1="-179.155" x2="-44.05" y2="-180.447"/>
				
					<line fill="none" stroke="#FFFFFF" stroke-width="0.5457" stroke-linecap="round" stroke-miterlimit="10" x1="-42.721" y1="-180.726" x2="-44.05" y2="-180.447"/>
			</g>
		</g>
		<g>
			<g>
				
					<line fill="none" stroke="#FFFFFF" stroke-width="0.5457" stroke-linecap="round" stroke-miterlimit="10" x1="-111.724" y1="-203.979" x2="-111.724" y2="-200.194"/>
				
					<line fill="none" stroke="#FFFFFF" stroke-width="0.5457" stroke-linecap="round" stroke-miterlimit="10" x1="-112.631" y1="-203.046" x2="-111.724" y2="-202.035"/>
				
					<line fill="none" stroke="#FFFFFF" stroke-width="0.5457" stroke-linecap="round" stroke-miterlimit="10" x1="-110.815" y1="-203.046" x2="-111.724" y2="-202.035"/>
			</g>
			<g>
				
					<line fill="none" stroke="#FFFFFF" stroke-width="0.5457" stroke-linecap="round" stroke-miterlimit="10" x1="-111.724" y1="-196.408" x2="-111.724" y2="-200.194"/>
				
					<line fill="none" stroke="#FFFFFF" stroke-width="0.5457" stroke-linecap="round" stroke-miterlimit="10" x1="-110.815" y1="-197.342" x2="-111.724" y2="-198.353"/>
				
					<line fill="none" stroke="#FFFFFF" stroke-width="0.5457" stroke-linecap="round" stroke-miterlimit="10" x1="-112.631" y1="-197.342" x2="-111.724" y2="-198.353"/>
			</g>
			<g>
				
					<line fill="none" stroke="#FFFFFF" stroke-width="0.5457" stroke-linecap="round" stroke-miterlimit="10" x1="-108.469" y1="-202.143" x2="-111.747" y2="-200.251"/>
				
					<line fill="none" stroke="#FFFFFF" stroke-width="0.5457" stroke-linecap="round" stroke-miterlimit="10" x1="-108.825" y1="-200.892" x2="-110.153" y2="-201.171"/>
				
					<line fill="none" stroke="#FFFFFF" stroke-width="0.5457" stroke-linecap="round" stroke-miterlimit="10" x1="-109.731" y1="-202.463" x2="-110.153" y2="-201.171"/>
			</g>
			<g>
				
					<line fill="none" stroke="#FFFFFF" stroke-width="0.5457" stroke-linecap="round" stroke-miterlimit="10" x1="-114.947" y1="-202.144" x2="-111.669" y2="-200.252"/>
				
					<line fill="none" stroke="#FFFFFF" stroke-width="0.5457" stroke-linecap="round" stroke-miterlimit="10" x1="-114.592" y1="-200.892" x2="-113.263" y2="-201.171"/>
				
					<line fill="none" stroke="#FFFFFF" stroke-width="0.5457" stroke-linecap="round" stroke-miterlimit="10" x1="-113.684" y1="-202.463" x2="-113.263" y2="-201.171"/>
			</g>
			<g>
				
					<line fill="none" stroke="#FFFFFF" stroke-width="0.5457" stroke-linecap="round" stroke-miterlimit="10" x1="-114.947" y1="-198.358" x2="-111.669" y2="-200.251"/>
				
					<line fill="none" stroke="#FFFFFF" stroke-width="0.5457" stroke-linecap="round" stroke-miterlimit="10" x1="-113.684" y1="-198.039" x2="-113.263" y2="-199.331"/>
				
					<line fill="none" stroke="#FFFFFF" stroke-width="0.5457" stroke-linecap="round" stroke-miterlimit="10" x1="-114.592" y1="-199.611" x2="-113.263" y2="-199.331"/>
			</g>
			<g>
				
					<line fill="none" stroke="#FFFFFF" stroke-width="0.5457" stroke-linecap="round" stroke-miterlimit="10" x1="-108.463" y1="-198.358" x2="-111.74" y2="-200.252"/>
				
					<line fill="none" stroke="#FFFFFF" stroke-width="0.5457" stroke-linecap="round" stroke-miterlimit="10" x1="-109.724" y1="-198.039" x2="-110.145" y2="-199.331"/>
				
					<line fill="none" stroke="#FFFFFF" stroke-width="0.5457" stroke-linecap="round" stroke-miterlimit="10" x1="-108.816" y1="-199.611" x2="-110.145" y2="-199.331"/>
			</g>
		</g>
		<g>
			<g>
				
					<line fill="none" stroke="#FFFFFF" stroke-width="0.5421" stroke-linecap="round" stroke-miterlimit="10" x1="-216.718" y1="-191.009" x2="-216.718" y2="-187.248"/>
				
					<line fill="none" stroke="#FFFFFF" stroke-width="0.5421" stroke-linecap="round" stroke-miterlimit="10" x1="-217.619" y1="-190.081" x2="-216.718" y2="-189.077"/>
				
					<line fill="none" stroke="#FFFFFF" stroke-width="0.5421" stroke-linecap="round" stroke-miterlimit="10" x1="-215.815" y1="-190.081" x2="-216.718" y2="-189.077"/>
			</g>
			<g>
				
					<line fill="none" stroke="#FFFFFF" stroke-width="0.5421" stroke-linecap="round" stroke-miterlimit="10" x1="-216.718" y1="-183.487" x2="-216.718" y2="-187.248"/>
				
					<line fill="none" stroke="#FFFFFF" stroke-width="0.5421" stroke-linecap="round" stroke-miterlimit="10" x1="-215.815" y1="-184.414" x2="-216.718" y2="-185.419"/>
				
					<line fill="none" stroke="#FFFFFF" stroke-width="0.5421" stroke-linecap="round" stroke-miterlimit="10" x1="-217.619" y1="-184.414" x2="-216.718" y2="-185.419"/>
			</g>
			<g>
				
					<line fill="none" stroke="#FFFFFF" stroke-width="0.5421" stroke-linecap="round" stroke-miterlimit="10" x1="-213.484" y1="-189.185" x2="-216.741" y2="-187.305"/>
				
					<line fill="none" stroke="#FFFFFF" stroke-width="0.5421" stroke-linecap="round" stroke-miterlimit="10" x1="-213.838" y1="-187.941" x2="-215.158" y2="-188.219"/>
				
					<line fill="none" stroke="#FFFFFF" stroke-width="0.5421" stroke-linecap="round" stroke-miterlimit="10" x1="-214.738" y1="-189.502" x2="-215.158" y2="-188.219"/>
			</g>
			<g>
				
					<line fill="none" stroke="#FFFFFF" stroke-width="0.5421" stroke-linecap="round" stroke-miterlimit="10" x1="-219.92" y1="-189.186" x2="-216.663" y2="-187.306"/>
				
					<line fill="none" stroke="#FFFFFF" stroke-width="0.5421" stroke-linecap="round" stroke-miterlimit="10" x1="-219.567" y1="-187.941" x2="-218.247" y2="-188.219"/>
				
					<line fill="none" stroke="#FFFFFF" stroke-width="0.5421" stroke-linecap="round" stroke-miterlimit="10" x1="-218.666" y1="-189.503" x2="-218.247" y2="-188.219"/>
			</g>
			<g>
				
					<line fill="none" stroke="#FFFFFF" stroke-width="0.5421" stroke-linecap="round" stroke-miterlimit="10" x1="-219.92" y1="-185.425" x2="-216.663" y2="-187.305"/>
				
					<line fill="none" stroke="#FFFFFF" stroke-width="0.5421" stroke-linecap="round" stroke-miterlimit="10" x1="-218.666" y1="-185.108" x2="-218.247" y2="-186.391"/>
				
					<line fill="none" stroke="#FFFFFF" stroke-width="0.5421" stroke-linecap="round" stroke-miterlimit="10" x1="-219.567" y1="-186.669" x2="-218.247" y2="-186.391"/>
			</g>
			<g>
				
					<line fill="none" stroke="#FFFFFF" stroke-width="0.5421" stroke-linecap="round" stroke-miterlimit="10" x1="-213.478" y1="-185.425" x2="-216.734" y2="-187.306"/>
				
					<line fill="none" stroke="#FFFFFF" stroke-width="0.5421" stroke-linecap="round" stroke-miterlimit="10" x1="-214.731" y1="-185.108" x2="-215.15" y2="-186.391"/>
				
					<line fill="none" stroke="#FFFFFF" stroke-width="0.5421" stroke-linecap="round" stroke-miterlimit="10" x1="-213.83" y1="-186.669" x2="-215.15" y2="-186.391"/>
			</g>
		</g>
		<g>
			<g>
				<path fill="#FFFFFF" d="M-214.67-262.192l-4,29.892c-0.033,0.248-0.244,0.434-0.495,0.434c-0.251,0-0.462-0.186-0.495-0.434
					l-4-29.892H-214.67z"/>
				<path fill="#FFFFFF" stroke="#FFFFFF" stroke-width="0.5" stroke-linecap="round" stroke-miterlimit="10" d="M-214.175-262.016
					l-4,29.892c-0.065,0.494-0.491,0.867-0.99,0.867c-0.499,0-0.925-0.373-0.99-0.867l-4-29.892H-214.175z M-219.165-232.257v0.5
					V-232.257L-219.165-232.257L-219.165-232.257z M-223.089-261.582l3.924,29.322l3.924-29.322H-223.089z"/>
			</g>
		</g>
		<g>
			<g>
				<path fill="#FFFFFF" d="M-203.084-262.192l-2.282,17.055c-0.02,0.142-0.14,0.248-0.282,0.248c-0.144,0-0.264-0.106-0.283-0.248
					l-2.282-17.055H-203.084z"/>
				<path fill="#FFFFFF" stroke="#FFFFFF" stroke-width="0.2853" stroke-linecap="round" stroke-miterlimit="10" d="
					M-202.802-262.092l-2.282,17.055c-0.037,0.282-0.28,0.495-0.564,0.495c-0.285,0-0.528-0.213-0.565-0.495l-2.282-17.055H-202.802
					z M-205.648-245.112v0.285V-245.112L-205.648-245.112L-205.648-245.112z M-207.888-261.844l2.239,16.73l2.238-16.73H-207.888z"
					/>
			</g>
		</g>
		<g>
			<g>
				<path fill="#FFFFFF" d="M-54.955-262.275l-2.297,17.167c-0.02,0.143-0.141,0.249-0.284,0.249c-0.144,0-0.266-0.107-0.285-0.249
					l-2.297-17.167H-54.955z"/>
				<path fill="#FFFFFF" stroke="#FFFFFF" stroke-width="0.2872" stroke-linecap="round" stroke-miterlimit="10" d="
					M-54.671-262.175l-2.297,17.168c-0.037,0.284-0.282,0.498-0.568,0.498c-0.287,0-0.531-0.214-0.569-0.498l-2.297-17.168H-54.671z
					 M-57.536-245.083v0.287V-245.083L-57.536-245.083L-57.536-245.083z M-59.79-261.925l2.254,16.84l2.253-16.84H-59.79z"/>
			</g>
		</g>
		<g>
			<g>
				<path fill="#FFFFFF" d="M-48.651-262.275l-1.225,9.155c-0.012,0.076-0.076,0.133-0.152,0.133c-0.077,0-0.141-0.057-0.152-0.133
					l-1.225-9.155H-48.651z"/>
				<path fill="#FFFFFF" stroke="#FFFFFF" stroke-width="0.1531" stroke-linecap="round" stroke-miterlimit="10" d="M-48.5-262.222
					l-1.225,9.155c-0.021,0.151-0.15,0.265-0.304,0.265c-0.152,0-0.283-0.114-0.303-0.265l-1.227-9.155H-48.5z M-50.028-253.107
					v0.153V-253.107L-50.028-253.107L-50.028-253.107z M-51.23-262.089l1.202,8.98l1.202-8.98H-51.23z"/>
			</g>
		</g>
		<path fill="#F0F0F0" stroke="#F0F0F0" stroke-width="0.7365" stroke-miterlimit="10" d="M-282.658-147.83
			c0-0.926,0.751-1.677,1.677-1.677h16.044c0.927,0,1.678,0.751,1.678,1.677v334.969c0,0.927-0.751,1.678-1.678,1.678h-16.044
			c-0.926,0-1.677-0.751-1.677-1.678V-147.83z"/>
		<path fill="#F0F0F0" stroke="#F0F0F0" stroke-width="0.7365" stroke-miterlimit="10" d="M-282.658-269.889
			c0-0.926,0.751-1.677,1.677-1.677h16.044c0.927,0,1.678,0.751,1.678,1.677v110.212c0,0.928-0.751,1.678-1.678,1.678h-16.044
			c-0.926,0-1.677-0.75-1.677-1.678V-269.889z"/>
		<path fill="#C6C6C6" d="M-258.142-248.235c0-1.143-0.927-2.07-2.07-2.07l0,0c-1.142,0-2.069,0.927-2.069,2.07v16.72
			c0,1.143,0.927,2.07,2.069,2.07l0,0c1.144,0,2.07-0.927,2.07-2.07V-248.235z"/>
		<path fill="#9D9D9C" d="M-258.142-239.875v8.36c0,1.143-0.927,2.07-2.07,2.07l0,0c-1.142,0-2.069-0.927-2.069-2.07v-8.36H-258.142
			z"/>
		<path fill="#C6C6C6" d="M-258.142-198.05c0-1.143-0.927-2.07-2.07-2.07l0,0c-1.142,0-2.069,0.927-2.069,2.07v16.72
			c0,1.143,0.927,2.07,2.069,2.07l0,0c1.144,0,2.07-0.927,2.07-2.07V-198.05z"/>
		<path fill="#9D9D9C" d="M-258.142-189.629v8.36c0,1.143-0.927,2.07-2.07,2.07l0,0c-1.142,0-2.069-0.927-2.069-2.07v-8.36H-258.142
			z"/>
		<path fill="#C6C6C6" d="M-258.142-125.427c0-1.143-0.927-2.07-2.07-2.07l0,0c-1.142,0-2.069,0.927-2.069,2.07v16.72
			c0,1.143,0.927,2.07,2.069,2.07l0,0c1.144,0,2.07-0.927,2.07-2.07V-125.427z"/>
		<path fill="#9D9D9C" d="M-258.142-117.067v8.36c0,1.143-0.927,2.07-2.07,2.07l0,0c-1.142,0-2.069-0.927-2.069-2.07v-8.36H-258.142
			z"/>
		<path fill="#C6C6C6" d="M-258.142,148.509c0-1.143-0.927-2.07-2.07-2.07l0,0c-1.142,0-2.069,0.927-2.069,2.07v16.72
			c0,1.144,0.927,2.069,2.069,2.069l0,0c1.144,0,2.07-0.926,2.07-2.069V148.509z"/>
		<path fill="#9D9D9C" d="M-258.142,156.869v8.36c0,1.144-0.927,2.069-2.07,2.069l0,0c-1.142,0-2.069-0.926-2.069-2.069v-8.36
			H-258.142z"/>
	</g>
	
		<rect x="4.842" y="2.421" opacity="0.6" fill="#E7E7E7" stroke="#E7E7E7" stroke-width="4.0833" stroke-linecap="round" stroke-linejoin="round" stroke-miterlimit="10" width="80.142" height="64.766"/>
	<g opacity="0.6">
		<path fill="#F6F6F6" d="M82.453,14.118v48.486c0,1.133-0.913,2.052-2.042,2.052H9.414c-1.128,0-2.042-0.919-2.042-2.052V14.118
			H82.453z"/>
	</g>
	<g opacity="0.6">
		<path fill="#F0F0F0" d="M82.453,62.615c0,1.127-0.913,2.041-2.042,2.041H9.414c-1.128,0-2.042-0.914-2.042-2.041V14.383
			L82.453,62.615z"/>
	</g>
	<g opacity="0.9">
		<path fill="#DEDEDE" d="M87.648,14.118H2.178C0.975,14.118,0,13.144,0,11.941V2.178C0,0.975,0.975,0,2.178,0h85.47
			c1.204,0,2.179,0.975,2.179,2.178v9.763C89.826,13.144,88.852,14.118,87.648,14.118z"/>
	</g>
	
		<rect x="107.265" y="2.421" opacity="0.6" fill="#E7E7E7" stroke="#E7E7E7" stroke-width="4.0833" stroke-linecap="round" stroke-linejoin="round" stroke-miterlimit="10" width="80.142" height="64.766"/>
	<g opacity="0.6">
		<path fill="#F6F6F6" d="M184.876,14.118v48.486c0,1.133-0.913,2.052-2.042,2.052h-70.997c-1.128,0-2.042-0.919-2.042-2.052V14.118
			H184.876z"/>
	</g>
	<g opacity="0.6">
		<path fill="#F0F0F0" d="M184.876,62.615c0,1.127-0.913,2.041-2.042,2.041h-70.997c-1.128,0-2.042-0.914-2.042-2.041V14.383
			L184.876,62.615z"/>
	</g>
	<g opacity="0.9">
		<path fill="#DEDEDE" d="M190.07,14.118H104.6c-1.203,0-2.178-0.975-2.178-2.178V2.178c0-1.203,0.975-2.178,2.178-2.178h85.47
			c1.204,0,2.179,0.975,2.179,2.178v9.763C192.249,13.144,191.274,14.118,190.07,14.118z"/>
	</g>
</g>
</svg>
