<?xml version="1.0" encoding="utf-8"?>
<!-- Generator: Adobe Illustrator 15.0.2, SVG Export Plug-In . SVG Version: 6.00 Build 0)  -->
<!DOCTYPE svg PUBLIC "-//W3C//DTD SVG 1.1//EN" "http://www.w3.org/Graphics/SVG/1.1/DTD/svg11.dtd">
<svg version="1.1" xmlns="http://www.w3.org/2000/svg" xmlns:xlink="http://www.w3.org/1999/xlink" x="0px" y="0px"
	 width="583.594px" height="190.574px" viewBox="0 0 583.594 190.574" enable-background="new 0 0 583.594 190.574"
	 xml:space="preserve">
<g id="Lager_2">
</g>
<g id="Lager_1">
	<g>
		<g>
			<g>
				
					<path fill="#3E3D3F" stroke="#3E3D3F" stroke-width="5.6393" stroke-linecap="round" stroke-linejoin="round" stroke-miterlimit="10" d="
					M177.155,156.036h-0.345c-1.657,3.271-2.738,6.883-3.106,10.697L177.155,156.036z"/>
				
					<path fill="#3E3D3F" stroke="#3E3D3F" stroke-width="5.6393" stroke-linecap="round" stroke-linejoin="round" stroke-miterlimit="10" d="
					M461.194,156.035l-151.152,0.002c-1.48-15.322-14.431-16.644-30.134-16.644c-15.706,0-23.983,1.791-28.263,16.643H230.87
					c-1.481-15.32-19.313-16.643-27.029-16.643c-11.793,0-22.035,6.778-27.03,16.643h-49.274v-25.244h333.657V156.035z"/>
			</g>
			<g>
				
					<path fill="#0771B2" stroke="#0771B2" stroke-width="9.0229" stroke-linecap="round" stroke-linejoin="round" stroke-miterlimit="10" d="
					M472.994,156.037V23.04l97.372,12.971l8.717,120.025h-37.79c0,0-6.411-18.705-29.157-18.705
					c-26.129,0-29.513,18.705-29.513,18.705L472.994,156.037z"/>
			</g>
			<g>
				<path fill="#1A171A" d="M334.148,150.813"/>
			</g>
			<g>
				<circle fill="none" stroke="#1A171A" stroke-width="9.0229" stroke-miterlimit="10" cx="511.157" cy="169.559" r="16.503"/>
			</g>
			<g>
				<circle fill="none" stroke="#1A171A" stroke-width="9.0229" stroke-miterlimit="10" cx="279.803" cy="169.55" r="16.503"/>
			</g>
			<g>
				<circle fill="none" stroke="#1A171A" stroke-width="9.0229" stroke-miterlimit="10" cx="203.51" cy="169.55" r="16.503"/>
			</g>
			<g>
				
					<rect x="127.74" y="4.511" fill="#FFFFFF" stroke="#FFFFFF" stroke-width="9.0229" stroke-linecap="round" stroke-linejoin="round" stroke-miterlimit="10" width="327.483" height="114.661"/>
			</g>
			<g>
				<g>
					<line fill="#FFFFFF" x1="571.583" y1="152.951" x2="571.583" y2="144.647"/>
				</g>
				<g>
					<path fill="#FFFFFF" d="M583.425,154.182h-11.372v-10.768h10.644L583.425,154.182z"/>
				</g>
			</g>
			<g>
				<g>
					<path fill="#EF9201" d="M572.053,154.182h-7.135c-0.68,0-1.233-0.551-1.233-1.231v-8.304c0-0.681,0.554-1.232,1.233-1.232
						h7.135V154.182z"/>
				</g>
			</g>
			<g>
				
					<path fill="#575759" stroke="#575759" stroke-width="5.6393" stroke-linecap="round" stroke-linejoin="round" stroke-miterlimit="10" d="
					M203.841,139.393"/>
			</g>
			<g>
				
					<path fill="#575759" stroke="#575759" stroke-width="5.6393" stroke-linecap="round" stroke-linejoin="round" stroke-miterlimit="10" d="
					M279.908,139.393"/>
			</g>
			<g>
				
					<path fill="#575759" stroke="#575759" stroke-width="5.6393" stroke-linecap="round" stroke-linejoin="round" stroke-miterlimit="10" d="
					M203.841,139.393"/>
			</g>
			<g>
				
					<path fill="#575759" stroke="#575759" stroke-width="5.6393" stroke-linecap="round" stroke-linejoin="round" stroke-miterlimit="10" d="
					M279.908,139.393"/>
			</g>
			<g>
				
					<path fill="none" stroke="#3E3D3F" stroke-width="6.7671" stroke-linecap="round" stroke-linejoin="round" stroke-miterlimit="10" d="
					M233.976,166.733c-1.481-15.32-14.432-27.34-30.135-27.34c-15.705,0-28.657,12.02-30.137,27.34"/>
			</g>
			<g>
				
					<path fill="none" stroke="#3E3D3F" stroke-width="6.7671" stroke-linecap="round" stroke-linejoin="round" stroke-miterlimit="10" d="
					M310.042,166.735c-1.48-15.322-14.431-27.342-30.134-27.342c-15.706,0-28.657,12.02-30.138,27.34"/>
			</g>
			<g>
				
					<path fill="none" stroke="#00578B" stroke-width="6.7671" stroke-linecap="round" stroke-linejoin="round" stroke-miterlimit="10" d="
					M541.292,166.735c-1.48-15.322-14.433-27.342-30.136-27.342c-15.705,0-28.656,12.02-30.137,27.34"/>
			</g>
			
				<polygon fill="#DEE9EE" stroke="#DEE9EE" stroke-width="3.5518" stroke-linecap="round" stroke-linejoin="round" stroke-miterlimit="10" points="
				570.22,95.787 533.484,95.787 533.484,53.029 568.296,53.029 			"/>
			
				<rect x="504.555" y="53.029" fill="#DEE9EE" stroke="#DEE9EE" stroke-width="3.5518" stroke-linecap="round" stroke-linejoin="round" stroke-miterlimit="10" width="17.407" height="42.758"/>
			<g>
				<circle fill="#EAEAEC" cx="511.157" cy="169.559" r="12.5"/>
				<path fill="#D8D8D9" d="M511.157,182.06c-6.903,0-12.5-5.597-12.5-12.501c0-6.903,5.597-12.5,12.5-12.5V182.06z"/>
			</g>
			<g>
				<circle fill="#EAEAEC" cx="279.803" cy="169.559" r="12.5"/>
				<path fill="#D8D8D9" d="M279.804,182.06c-6.904,0-12.501-5.597-12.501-12.501c0-6.903,5.597-12.5,12.501-12.5V182.06z"/>
			</g>
			<g>
				<circle fill="#EAEAEC" cx="203.51" cy="169.559" r="12.5"/>
				<path fill="#D8D8D9" d="M203.511,182.06c-6.904,0-12.501-5.597-12.501-12.501c0-6.903,5.597-12.5,12.501-12.5V182.06z"/>
			</g>
			<g>
				<g>
					<polygon fill="#F5F4F5" points="455.223,119.172 127.74,119.172 127.74,4.511 					"/>
					<path fill="#F5F4F5" d="M459.757,119.172c0,2.491-2.019,4.512-4.512,4.512c-0.008-0.002-0.014-0.002-0.022,0H127.74
						c-2.491,0-4.511-2.021-4.511-4.512V4.511c0-1.462,0.709-2.834,1.901-3.68L459.757,119.172z M132.251,114.662h296.436
						L132.251,10.871V114.662z"/>
				</g>
			</g>
			<g>
				<path fill="#36A7DA" d="M188.12,49.509l2.834-0.424l-2.544-2.212l-0.009,0.082c-0.063-0.134-0.139-0.265-0.227-0.393
					c0.565-0.479,0.57-1.565-0.013-2.522c-0.626-1.029-1.688-1.521-2.377-1.103c-0.163,0.101-0.29,0.242-0.379,0.415
					c-0.009-0.015-0.018-0.029-0.024-0.042c-0.625-1.026-1.752-1.48-2.52-1.016c-0.768,0.469-0.883,1.679-0.258,2.704
					c0.043,0.071,0.088,0.139,0.137,0.204c-3.334,0.975-6.412,4.691-8.252,6.188c-2.142,1.74-4.531,3.66-6.27,3.527
					c-1.741-0.136-2.767-1.587-6.516-4.599c-3.749-3.013-5.267-0.223-5.267-0.223c-1.16,1.606,0.113,3.636,0.113,3.636
					c-2.076,0.382-3.28,2.813-0.133,5.022c-2.925,3.749,1.895,4.908,1.895,4.908c-0.446,0.714-1.426,4.196,2.856,3.927
					c2.143-0.133,3.102,0.759,5.624,1.963c2.641,1.264,5.138,1.723,6.538,1.889v4.779l-1.459,1.635
					c-0.246,0.277-0.223,0.699,0.054,0.945c0.128,0.113,0.288,0.17,0.447,0.17c0.183,0,0.366-0.075,0.499-0.223l1.238-1.391
					l1.313,1.613h3.799c0.37,0,0.67-0.299,0.67-0.669c0-0.369-0.301-0.67-0.67-0.67h-3.163l-1.388-1.708v-4.384
					c14.977,0.466,11.221-17.337,11.221-17.337c-0.398-1.83,0.568-2.867,1.747-4.14l-1.177,1.534c0,0-1,1.176-0.083,2.412
					c0.422,0.497,0.976,0.558,0.976,0.558s0.548,0.101,1.095-0.255c1.236-0.917,0.614-2.334,0.614-2.334L188.12,49.509z"/>
				<g>
					<path fill="#36A7DA" stroke="#36A7DA" stroke-width="0.8402" stroke-miterlimit="10" d="M206.043,73.93h-1.574V44.133h15.239
						v1.573h-13.665v10.899h13.665v1.574h-13.665V73.93z"/>
					<path fill="#36A7DA" stroke="#36A7DA" stroke-width="0.8402" stroke-miterlimit="10" d="M236.352,52.647h1.576v21.328
						c-1.702,0-3.193-0.071-4.47-0.215c-1.275-0.141-2.603-0.446-3.981-0.916c-1.375-0.466-2.503-1.097-3.381-1.893
						c-0.881-0.795-1.604-1.895-2.173-3.299c-0.567-1.406-0.85-2.987-0.85-4.748c0-1.76,0.176-3.271,0.531-4.535
						c0.353-1.26,0.808-2.268,1.362-3.02c0.553-0.752,1.17-1.371,1.851-1.852c1.191-0.881,2.37-1.318,3.534-1.318
						c2.129,0,4.129,1.004,6.001,3.021V52.647z M224.646,62.692c0,3.719,1.149,6.301,3.45,7.75c2.042,1.275,4.795,1.915,8.256,1.915
						V57.329c-0.965-1.108-1.892-1.979-2.787-2.618c-0.893-0.64-1.88-0.958-2.958-0.958c-1.79,0-3.229,0.788-4.321,2.363
						C225.192,57.692,224.646,59.883,224.646,62.692z M226.222,47.111h1.618v2.812h-1.618V47.111z M233.458,47.111h1.619v2.812
						h-1.619V47.111z"/>
					<path fill="#36A7DA" stroke="#36A7DA" stroke-width="0.8402" stroke-miterlimit="10" d="M245.463,73.93h-1.576V52.647h1.576
						v3.105c0.596-0.707,1.512-1.467,2.745-2.276c1.235-0.809,2.412-1.214,3.535-1.214c1.12,0,2.099,0.32,2.936,0.959
						c0.836,0.639,1.271,1.681,1.3,3.128h-1.574c0-0.793-0.256-1.418-0.768-1.872c-0.512-0.453-1.206-0.68-2.086-0.68
						s-1.951,0.422-3.214,1.277c-1.264,0.848-2.223,1.786-2.874,2.807V73.93z"/>
					<path fill="#36A7DA" stroke="#36A7DA" stroke-width="0.8402" stroke-miterlimit="10" d="M266.598,71.76
						c1.717-0.454,2.908-1.035,3.575-1.746c0.669-0.708,1.003-1.667,1.003-2.873c0-1.207-0.455-2.149-1.363-2.831
						c-0.909-0.681-2.01-1.12-3.299-1.319c-1.293-0.197-2.582-0.42-3.873-0.66c-1.294-0.242-2.393-0.772-3.301-1.598
						c-0.91-0.821-1.363-2.013-1.363-3.574c0-3.292,2.555-4.939,7.664-4.939c1.871,0,4.044,0.198,6.514,0.598v1.66
						c-2.555-0.453-4.698-0.68-6.43-0.68c-1.73,0-3.199,0.247-4.404,0.743c-1.209,0.495-1.812,1.335-1.812,2.513
						s0.455,2.086,1.365,2.722c0.908,0.64,2.007,1.079,3.297,1.321c1.293,0.242,2.592,0.519,3.898,0.831
						c1.303,0.312,2.41,0.928,3.318,1.853c0.908,0.921,1.363,2.22,1.363,3.893c0,2.071-0.81,3.563-2.426,4.472
						c-0.795,0.454-1.562,0.815-2.301,1.084c-0.738,0.271-1.717,0.449-2.937,0.532c-1.931,0.17-3.776,0.256-5.533,0.256h-1.065
						v-1.574C262.178,72.442,264.881,72.214,266.598,71.76z"/>
					<path fill="#36A7DA" stroke="#36A7DA" stroke-width="0.8402" stroke-miterlimit="10" d="M292.46,73.93h-1.574v-2.894
						c0-2.355-0.518-4.378-1.553-6.066c-1.04-1.689-2.3-2.534-3.79-2.534c-1.491,0-2.932,0.626-4.322,1.874l-2.47,2.597v7.023
						h-1.574V42.003h1.574v22.604l11.539-12.005h2.17l-8.003,8.386c0.341-0.085,0.772-0.126,1.298-0.126
						c0.523,0,1.149,0.164,1.873,0.489s1.461,0.838,2.215,1.533c0.752,0.694,1.375,1.709,1.873,3.043
						c0.495,1.334,0.744,2.866,0.744,4.597V73.93z"/>
					<path fill="#36A7DA" stroke="#36A7DA" stroke-width="0.8402" stroke-miterlimit="10" d="M308.381,52.647h1.575v21.328
						c-1.702,0-3.194-0.071-4.472-0.215c-1.275-0.141-2.602-0.446-3.98-0.916c-1.376-0.466-2.504-1.097-3.382-1.893
						c-0.882-0.795-1.604-1.895-2.172-3.299c-0.568-1.406-0.85-2.987-0.85-4.748c0-1.76,0.176-3.271,0.53-4.535
						c0.354-1.26,0.808-2.268,1.362-3.02c0.554-0.752,1.171-1.371,1.852-1.852c1.192-0.881,2.369-1.318,3.533-1.318
						c2.129,0,4.129,1.004,6.003,3.021V52.647z M296.674,62.692c0,3.719,1.148,6.301,3.449,7.75
						c2.042,1.275,4.793,1.915,8.258,1.915V57.329c-0.965-1.108-1.893-1.979-2.789-2.618c-0.893-0.64-1.88-0.958-2.958-0.958
						c-1.788,0-3.229,0.788-4.321,2.363C297.22,57.692,296.674,59.883,296.674,62.692z"/>
					<path fill="#36A7DA" stroke="#36A7DA" stroke-width="0.8402" stroke-miterlimit="10" d="M336.604,52.647h1.577v21.328
						c-1.704,0-3.195-0.071-4.471-0.215c-1.276-0.141-2.604-0.446-3.981-0.916c-1.376-0.466-2.505-1.097-3.383-1.893
						c-0.882-0.795-1.604-1.895-2.172-3.299c-0.569-1.406-0.85-2.987-0.85-4.748c0-1.76,0.176-3.271,0.532-4.535
						c0.353-1.26,0.808-2.268,1.361-3.02c0.553-0.752,1.171-1.371,1.851-1.852c1.192-0.881,2.371-1.318,3.533-1.318
						c2.13,0,4.131,1.004,6.002,3.021V52.647z M324.898,62.692c0,3.719,1.148,6.301,3.45,7.75c2.041,1.275,4.795,1.915,8.256,1.915
						V57.329c-0.964-1.108-1.893-1.979-2.787-2.618c-0.893-0.64-1.88-0.958-2.959-0.958c-1.787,0-3.228,0.788-4.322,2.363
						C325.444,57.692,324.898,59.883,324.898,62.692z M326.472,47.111h1.62v2.812h-1.62V47.111z M333.71,47.111h1.618v2.812h-1.618
						V47.111z"/>
					<path fill="#36A7DA" stroke="#36A7DA" stroke-width="0.8402" stroke-miterlimit="10" d="M356.018,52.647h1.576v22.008
						c0,1.958-0.244,3.667-0.725,5.13c-0.483,1.462-1.094,2.548-1.83,3.257c-1.449,1.391-2.881,2.084-4.3,2.084
						c-1.902,0-3.689-0.793-5.365-2.383v-2.042c1.79,1.9,3.562,2.852,5.321,2.852c1.761,0,3.086-0.846,3.981-2.533
						c0.893-1.689,1.341-3.823,1.341-6.405V73.93c-5.081-0.196-8.628-1.304-10.644-3.32c-1.76-1.815-2.638-4.469-2.638-7.96
						c0-4.284,1.247-7.336,3.746-9.151c1.188-0.881,2.369-1.318,3.532-1.318c2.13,0,4.129,1.004,6.003,3.021V52.647z
						 M346.035,56.434c-1.148,1.788-1.724,3.738-1.724,5.854c0,2.114,0.299,3.824,0.895,5.131c0.595,1.307,1.448,2.312,2.555,3.023
						c2.042,1.275,4.794,1.915,8.258,1.915V57.329c-0.965-1.108-1.894-1.979-2.788-2.618c-0.894-0.64-1.881-0.958-2.958-0.958
						C348.597,53.752,347.184,54.645,346.035,56.434z"/>
					<path fill="#36A7DA" stroke="#36A7DA" stroke-width="0.8402" stroke-miterlimit="10" d="M375.431,52.647h1.575v22.008
						c0,1.958-0.242,3.667-0.724,5.13c-0.484,1.462-1.094,2.548-1.83,3.257c-1.45,1.391-2.882,2.084-4.301,2.084
						c-1.901,0-3.689-0.793-5.364-2.383v-2.042c1.789,1.9,3.562,2.852,5.321,2.852c1.761,0,3.087-0.846,3.98-2.533
						c0.894-1.689,1.342-3.823,1.342-6.405V73.93c-5.081-0.196-8.629-1.304-10.644-3.32c-1.76-1.815-2.637-4.469-2.637-7.96
						c0-4.284,1.245-7.336,3.742-9.151c1.193-0.881,2.371-1.318,3.536-1.318c2.129,0,4.129,1.004,6.002,3.021V52.647z
						 M365.448,56.434c-1.148,1.788-1.725,3.738-1.725,5.854c0,2.114,0.299,3.824,0.894,5.131c0.596,1.307,1.45,2.312,2.555,3.023
						c2.044,1.275,4.796,1.915,8.26,1.915V57.329c-0.966-1.108-1.894-1.979-2.787-2.618c-0.895-0.64-1.882-0.958-2.958-0.958
						C368.009,53.752,366.597,54.645,365.448,56.434z"/>
					<path fill="#36A7DA" stroke="#36A7DA" stroke-width="0.8402" stroke-miterlimit="10" d="M406.847,46.345V73.93h-1.573V59.883
						h-12.091V73.93h-1.577V54.435c0-3.065,0.982-5.577,2.938-7.535c1.961-1.959,4.412-2.939,7.365-2.939
						C404.065,43.96,405.713,44.756,406.847,46.345z M405.274,58.309V46.941c-0.909-0.937-2.061-1.405-3.449-1.405
						c-2.497,0-4.563,0.909-6.194,2.726c-1.633,1.816-2.447,3.89-2.447,6.216v3.832H405.274z"/>
					<path fill="#36A7DA" stroke="#36A7DA" stroke-width="0.8402" stroke-miterlimit="10" d="M413.233,74.059l-0.042-29.926
						c4.4,0.141,7.72,0.744,9.962,1.809c2.241,1.064,3.36,2.651,3.36,4.767s-0.597,3.683-1.785,4.703
						c-1.194,1.022-2.641,1.648-4.343,1.874c2.243,0.198,4.151,0.979,5.726,2.341c1.572,1.362,2.363,3.357,2.363,5.981
						c0,2.626-1.302,4.684-3.897,6.174C421.98,73.27,418.202,74.03,413.233,74.059z M424.942,50.688c0-1.589-0.912-2.811-2.729-3.66
						c-1.814-0.853-4.3-1.277-7.446-1.277v10.812C421.546,56.477,424.942,54.52,424.942,50.688z M426.898,65.375
						c0-1.477-0.411-2.711-1.234-3.703c-0.822-0.993-1.931-1.704-3.322-2.131c-2.326-0.764-4.838-1.147-7.535-1.147v14.048
						c2.301-0.027,4.286-0.291,5.964-0.789c1.671-0.495,2.936-1.128,3.786-1.893C426.117,68.311,426.898,66.85,426.898,65.375z"/>
				</g>
			</g>
		</g>
		<path fill="#868789" d="M95.744,134.781c-1.792,0.09-3.415,0.676-4.842,1.554c0.165-0.765,0.268-1.554,0.228-2.373
			c-0.255-5.056-4.561-8.944-9.612-8.685c-1.137,0.059-2.204,0.348-3.184,0.773c-0.001-0.017,0.001-0.04,0.001-0.059
			c-0.406-7.966-7.191-14.094-15.161-13.689c-4.276,0.219-8.012,2.283-10.502,5.38c-3.487-5.833-9.99-9.599-17.248-9.231
			c-9.767,0.499-17.424,8.303-17.965,17.853c-1.21-0.261-2.462-0.383-3.754-0.318c-7.965,0.409-14.093,7.194-13.687,15.16
			c0.404,7.966,7.193,14.094,15.157,13.688c0.914-0.045,1.796-0.188,2.654-0.391c-0.063,0.629-0.128,1.255-0.096,1.902
			c0.356,6.965,6.292,12.324,13.258,11.97c4.356-0.22,8.081-2.619,10.177-6.088c2.874,5.112,8.464,8.446,14.718,8.109
			c7.333-0.385,13.221-5.685,14.699-12.531c2.103,3.029,5.652,4.96,9.608,4.755c5.243-0.267,9.425-4.157,10.294-9.113
			c1.789,1.231,3.957,1.938,6.298,1.816c5.651-0.284,10.006-5.108,9.718-10.759C106.218,138.847,101.397,134.497,95.744,134.781z
			 M86.057,142.625c0.122-0.064,0.225-0.148,0.337-0.212c-0.032,0.129-0.064,0.258-0.094,0.383
			C86.214,142.736,86.141,142.68,86.057,142.625z"/>
	</g>
</g>
</svg>
