<?xml version="1.0" encoding="utf-8"?>
<!-- Generator: Adobe Illustrator 15.0.2, SVG Export Plug-In . SVG Version: 6.00 Build 0)  -->
<!DOCTYPE svg PUBLIC "-//W3C//DTD SVG 1.1//EN" "http://www.w3.org/Graphics/SVG/1.1/DTD/svg11.dtd">
<svg version="1.1" id="Lager_1" xmlns="http://www.w3.org/2000/svg" xmlns:xlink="http://www.w3.org/1999/xlink" x="0px" y="0px"
	 width="99.626px" height="218.989px" viewBox="0 0 99.626 218.989" enable-background="new 0 0 99.626 218.989"
	 xml:space="preserve">
<g>
	<g>
		
			<path fill="#007A38" stroke="#007A38" stroke-width="1.857" stroke-linecap="round" stroke-linejoin="round" stroke-miterlimit="10" d="
			M61.271,170.579c-14.646,6.88-19.813,15.218-19.813,15.218l-6.671-14.465l-2.161,0.996l-2.164,0.997l8.109,17.583
			c0,0-13.813-4.705-28.553,1.963c14.4,0.134,18.439,2.757,18.439,2.757s-15.807,7.832-18.92,22.433c0,0,11.984-16.688,33.599-23.59
			C43.137,194.471,46.171,181.566,61.271,170.579z"/>
	</g>
	<g>
		
			<path fill="#007A38" stroke="#007A38" stroke-width="1.1598" stroke-linecap="round" stroke-linejoin="round" stroke-miterlimit="10" d="
			M9.628,148.03c7.056-7.234,13.034-8.577,13.034-8.577l-7.17-6.896l1.029-1.07l1.031-1.072l8.716,8.382c0,0,0.049-9.113,7-16.446
			c-2.867,8.524-2.145,11.445-2.145,11.445s7.854-7.726,17.107-6.574c0,0-12.299,3.656-20.793,14.999
			C27.437,142.22,19.201,141.37,9.628,148.03z"/>
	</g>
	<g>
		<g>
			
				<path fill="#90AFAC" stroke="#90AFAC" stroke-width="2.5171" stroke-linecap="round" stroke-linejoin="round" stroke-miterlimit="10" d="
				M63.575,96.351c28.794,7.407,34.792-16.219,34.792-16.219S76.417,69.536,63.575,96.351z"/>
		</g>
		<g>
			<g>
				<path fill="#6C989B" d="M63.523,96.645c29.586,2.94,27.1,27.188,27.1,27.188S66.369,126.239,63.523,96.645z"/>
				<path fill="#6C989B" d="M62.271,96.265c0.036-0.126,0.103-0.797,0.465-0.872c0.363-0.076,0.912,0,0.912,0
					c10.092,1.003,17.677,4.534,22.545,10.495c6.619,8.104,5.724,17.67,5.683,18.072c-0.062,0.596-0.532,1.065-1.128,1.125
					c-0.021,0.002-0.547,0.053-1.424,0.053c-5.706,0-24.522-2.046-27.053-28.372C62.271,96.766,62.235,96.391,62.271,96.265z
					 M64.949,98.075c2.893,22.744,19.318,24.546,24.375,24.546c0.035,0,0.068,0,0.102-0.001
					C89.502,118.084,88.209,101.102,64.949,98.075z"/>
			</g>
		</g>
	</g>
	<g>
		
			<path fill="#F2AAC8" stroke="#F2AAC8" stroke-width="0.329" stroke-linecap="round" stroke-linejoin="round" stroke-miterlimit="10" d="
			M17.304,75.178l32.051,30.53c0,0-11.205,10.253-21.668,2.139C16.697,99.327,17.304,75.178,17.304,75.178z"/>
	</g>
	<g>
		<circle cx="26.353" cy="90.182" r="1.864"/>
	</g>
	<g>
		
			<line fill="none" stroke="#E77CAB" stroke-width="0.987" stroke-linecap="round" stroke-miterlimit="10" x1="14.697" y1="73.131" x2="1.03" y2="60.112"/>
	</g>
	<g>
		
			<line fill="none" stroke="#E77CAB" stroke-width="0.987" stroke-linecap="round" stroke-miterlimit="10" x1="11.523" y1="76.463" x2="2.514" y2="67.88"/>
	</g>
	<g>
		<g>
			
				<path fill="#F29400" stroke="#F29400" stroke-width="2.5373" stroke-linecap="round" stroke-linejoin="round" stroke-miterlimit="10" d="
				M63.497,23.472h0.076h5.214c7.866,0,13.297-5.335,14.854-13.695H63.497V23.472z"/>
		</g>
		<g>
			<g>
				<path fill="#EF8400" d="M63.497,23.472h-0.076h-5.215c-7.866,0-13.297-5.335-14.854-13.695h20.144V23.472z"/>
			</g>
			<g>
				<path fill="#EF8400" d="M63.497,24.741h-5.291c-8.365,0-14.383-5.508-16.1-14.732c-0.069-0.371,0.03-0.753,0.271-1.043
					s0.599-0.458,0.976-0.458h20.144V24.741z"/>
			</g>
		</g>
		<g>
			
				<path fill="#008A2E" stroke="#008A2E" stroke-width="1.3641" stroke-linecap="round" stroke-linejoin="round" stroke-miterlimit="10" d="
				M71.131,49.276c0,0,13.566,4.245,13.926,13.328c0.28,7.107-5.911,9.549-11.404,8.06c-8.583-2.33-8.176-15.76-8.006-17.721
				c0,0,0.086-2.103,0.255-5.684c0-4.861,0-19.359,0-19.359h2.501v20.779L71.131,49.276z"/>
		</g>
		<g>
			
				<path fill="#008A2E" stroke="#008A2E" stroke-width="1.3641" stroke-linecap="round" stroke-linejoin="round" stroke-miterlimit="10" d="
				M57.807,35.717c0,0-13.566,4.245-13.925,13.329c-0.281,7.107,5.911,9.548,11.404,8.059c8.583-2.329,7.521-12.981,7.74-15.935
				c0,0,0.01-3.582,0.01-7.469c0,0.839,0-5.801,0-5.801h-2.5v7.222L57.807,35.717z"/>
		</g>
	</g>
	<g>
		<g>
			<g>
				<path fill="#41281B" stroke="#41281B" stroke-width="0.7701" stroke-miterlimit="10" d="M22.23,2.562
					C16.531,8.905,6.993,9.661,0.544,3.867l2.985-3.323c4.879,4.383,12.467,5.041,16.754,0.269L22.23,2.562z"/>
			</g>
		</g>
		<g>
			<g>
				<g>
					<g>
						<path fill="#00632E" d="M25.774,5.865c-5.219,1.711-7.77,4.127-7.77,4.127c-14.21,12.583,1.497,32.719,1.497,32.719
							s21.486-13.805,12.241-30.38C31.742,12.331,30.133,9.208,25.774,5.865z"/>
					</g>
				</g>
			</g>
			<g>
				<g>
					<g>
						<path fill="#007A38" d="M19.501,42.711c0,0,21.486-13.805,12.241-30.38c0,0-1.609-3.123-5.968-6.466"/>
					</g>
				</g>
			</g>
		</g>
	</g>
	<g>
		<g>
			
				<path fill="#41A62A" stroke="#41A62A" stroke-width="1.448" stroke-linecap="round" stroke-linejoin="round" stroke-miterlimit="10" d="
				M88.188,196.379"/>
			
				<path fill="#41A62A" stroke="#41A62A" stroke-width="1.448" stroke-linecap="round" stroke-linejoin="round" stroke-miterlimit="10" d="
				M52.693,211.959l1.575,1.395c0.759,0.726,1.695,1.219,2.759,1.672c0.943,0.402,2.99,0.719,5.023,0.521l0.433-0.048
				c11.005-1.24,21.049-8.204,25.705-19.12l-24.292-10.454L52.693,211.959z"/>
			<path fill="#E3E582" d="M86.19,195.526"/>
		</g>
		<path fill="#E3E582" d="M63.542,184.86L53.3,208.661l2.005,2.708l0.466,0.415c0.457,0.436,1.083,0.808,2.106,1.242
			c0.496,0.211,2.167,0.532,3.937,0.363l0.427-0.048c10.593-1.195,20.107-8.795,24.284-18.591L63.542,184.86z"/>
		<g>
			<g>
				<path fill="#41281B" stroke="#41281B" stroke-width="0.6418" stroke-miterlimit="10" d="M65.063,185.952
					c-0.663,1.549-0.646,3.042,0.033,3.332c0.68,0.287,1.766-0.733,2.429-2.283L65.063,185.952z"/>
			</g>
		</g>
	</g>
	<circle opacity="0.8" fill="#CA9E64" cx="47.404" cy="153.225" r="6.375"/>
	<circle opacity="0.8" fill="#41A62A" cx="77.1" cy="162.35" r="6.375"/>
	<circle opacity="0.8" fill="#E7511E" cx="51.107" cy="80.021" r="3.559"/>
	<circle opacity="0.8" fill="#41A62A" cx="26.354" cy="57.523" r="2.477"/>
	<circle opacity="0.8" fill="#7C4D25" cx="65.814" cy="130.474" r="3.559"/>
	<circle opacity="0.8" fill="#E7511E" cx="16.786" cy="170.813" r="4.286"/>
</g>
</svg>
