<?xml version="1.0" encoding="utf-8"?>
<!-- Generator: Adobe Illustrator 15.0.2, SVG Export Plug-In . SVG Version: 6.00 Build 0)  -->
<!DOCTYPE svg PUBLIC "-//W3C//DTD SVG 1.1//EN" "http://www.w3.org/Graphics/SVG/1.1/DTD/svg11.dtd">
<svg version="1.1" id="Lager_1" xmlns="http://www.w3.org/2000/svg" xmlns:xlink="http://www.w3.org/1999/xlink" x="0px" y="0px"
	 width="200.961px" height="259.292px" viewBox="0 0 200.961 259.292" enable-background="new 0 0 200.961 259.292"
	 xml:space="preserve">
<g>
	<g>
		<g>
			<ellipse fill="#452B1A" stroke="#452B1A" stroke-miterlimit="10" cx="112.815" cy="73.495" rx="0.875" ry="1.992"/>
		</g>
	</g>
	<g>
		<g>
			<ellipse fill="#452B1A" stroke="#452B1A" stroke-miterlimit="10" cx="119.315" cy="73.495" rx="0.875" ry="1.992"/>
		</g>
	</g>
</g>
<g>
	<g>
		
			<path fill="#42AB39" stroke="#42AB39" stroke-width="0.8522" stroke-linecap="round" stroke-linejoin="round" stroke-miterlimit="10" d="
			M133.169,91.496c0,3.468-3.198,9.097-7.144,9.097c0,0-1.867-0.021-4.852-0.919c-2.562-0.773-4.971-0.753-5.08-0.753h-0.186
			c-0.108,0-2.518-0.02-5.08,0.753c-2.982,0.898-4.85,0.919-4.85,0.919c-3.944,0-7.145-5.629-7.145-9.097H133.169z"/>
	</g>
</g>
<g>
	
		<path fill="none" stroke="#595958" stroke-width="4.6247" stroke-linecap="round" stroke-linejoin="round" stroke-miterlimit="10" d="
		M18.366,108.565c0,0,23.632,0.518,43.413-12.42"/>
</g>
<g>
	
		<path fill="none" stroke="#595958" stroke-width="4.6247" stroke-linecap="round" stroke-linejoin="round" stroke-miterlimit="10" d="
		M18.041,90.984c0,0,19.041,0.994,35.785-8.127"/>
</g>
<g>
	
		<path fill="none" stroke="#595958" stroke-width="4.6247" stroke-linecap="round" stroke-linejoin="round" stroke-miterlimit="10" d="
		M21.356,73.974c0,0,13.975,1.291,26.557-4.928"/>
</g>
<g>
	
		<circle fill="#FFFFFF" stroke="#FFFFFF" stroke-width="4.6247" stroke-linecap="round" stroke-linejoin="round" stroke-miterlimit="10" cx="43.335" cy="134.901" r="5.106"/>
</g>
<g>
	<circle fill="#020304" cx="43.335" cy="134.901" r="2.271"/>
</g>
<g>
	<path fill="#FCC10D" stroke="#FCC10D" stroke-linecap="round" stroke-linejoin="round" stroke-miterlimit="10" d="M134.455,115.995
		"/>
</g>
<g>
	<circle fill="#655044" cx="116.321" cy="91.584" r="0.694"/>
</g>
<g>
	<circle fill="#655044" cx="114.051" cy="94.346" r="0.694"/>
</g>
<g>
	<circle fill="#655044" cx="111.481" cy="96.544" r="0.694"/>
</g>
<g>
	<circle fill="#655044" cx="113.348" cy="97.937" r="0.694"/>
</g>
<g>
	<circle fill="#655044" cx="110.776" cy="100.899" r="0.694"/>
</g>
<g>
	<circle fill="#655044" cx="112.643" cy="102.497" r="0.694"/>
</g>
<g>
	<circle fill="#655044" cx="114.061" cy="89.697" r="0.694"/>
</g>
<g>
	<circle fill="#655044" cx="116.55" cy="86.37" r="0.694"/>
</g>
<polygon fill="#C89D64" stroke="#C89D64" stroke-width="1.3504" stroke-linecap="round" stroke-linejoin="round" stroke-miterlimit="10" points="
	168.012,258.617 164.368,184.824 164.384,71.585 85.862,71.585 7.341,71.585 7.356,184.824 3.713,258.617 "/>
<polyline fill="#BE915C" stroke="#BE915C" stroke-width="1.3504" stroke-linecap="round" stroke-linejoin="round" stroke-miterlimit="10" points="
	168.012,258.617 164.368,184.824 164.384,94.316 85.862,94.316 7.341,94.316 "/>
<g>
	<g>
		<g>
			<path fill="#E3E684" d="M119.518,62.49c-6.473-1.422-12.974-8.33-16.045-17.888c-3.06-9.52-1.822-18.883,2.566-23.826
				l-19.824,6.371l-19.823,6.371c6.446,1.461,12.906,8.351,15.965,17.871c3.072,9.558,1.812,18.96-2.62,23.887L119.518,62.49z"/>
		</g>
	</g>
	<g>
		<g>
			<path fill="#3CA036" d="M83.243,16.562"/>
		</g>
	</g>
	<g>
		<g>
			<path fill="#CDDD86" d="M99.527,68.567l19.89-6.392c-6.472-1.422-12.872-8.015-15.943-17.574c-3.06-9.52-1.75-18.66,2.638-23.603
				l-19.823,6.371l13.017,40.505L99.527,68.567z"/>
		</g>
	</g>
	<g>
		<g>
			<path fill="#442A19" stroke="#442A19" stroke-miterlimit="10" d="M83.65,16.227c-1.74-5.415,1.029-11.165,6.534-12.934
				l0.912,2.836c-4.165,1.338-7.093,5.49-5.784,9.563L83.65,16.227z"/>
		</g>
	</g>
	<g>
		<g>
			<g>
				<g>
					<path fill="#056734" d="M80.557,17.16c0.768-3.582,0.232-5.864,0.232-5.864C78.313-1.119,61.435,1.166,61.435,1.166
						s0.734,17.018,13.392,17.26C74.826,18.426,77.166,18.549,80.557,17.16z"/>
				</g>
			</g>
		</g>
		<g>
			<g>
				<g>
					<path fill="#017E41" d="M61.435,1.166c0,0,0.734,17.018,13.392,17.26c0,0,2.34,0.123,5.73-1.266"/>
				</g>
			</g>
		</g>
	</g>
	<g>
		<g>
			<g>
				
					<ellipse transform="matrix(-0.306 -0.952 0.952 -0.306 69.9273 149.0615)" fill="#442A19" stroke="#442A19" stroke-miterlimit="10" cx="89.294" cy="49.043" rx="2.44" ry="1.07"/>
			</g>
		</g>
		<g>
			<g>
				
					<ellipse transform="matrix(-0.3058 -0.9521 0.9521 -0.3058 82.1251 153.0932)" fill="#442A19" stroke="#442A19" stroke-miterlimit="10" cx="96.874" cy="46.607" rx="2.44" ry="1.071"/>
			</g>
		</g>
	</g>
	<g>
		<g>
			
				<path fill="#3EAB37" stroke="#3EAB37" stroke-width="0.8532" stroke-linecap="round" stroke-linejoin="round" stroke-miterlimit="10" d="
				M106.409,20.657c-1.302-4.049-6.336-6.89-10.941-5.41c-1.25,0.401-2.357,1.024-3.283,1.8l-1.912,1.473
				c-3.258,2.354-5.55,3.091-5.55,3.091l-0.03,0.01c0,0-2.292,0.736-6.312,0.721l-2.412-0.083c-1.205-0.091-2.467,0.048-3.717,0.45
				c-4.606,1.48-7.042,6.721-5.741,10.771L106.409,20.657z"/>
		</g>
	</g>
	<g>
		<g>
			
				<path fill="#3EAB37" stroke="#3EAB37" stroke-width="0.8522" stroke-linecap="round" stroke-linejoin="round" stroke-miterlimit="10" d="
				M119.775,62.408c1.3,4.044-0.321,11.807-4.922,13.286c0,0-2.185,0.675-5.999,0.746c-3.278,0.059-6.079,0.985-6.207,1.027
				l-0.216,0.069c-0.127,0.041-2.943,0.919-5.642,2.781c-3.142,2.165-5.311,2.889-5.311,2.889c-4.6,1.479-10.439-3.887-11.739-7.932
				L119.775,62.408z"/>
		</g>
	</g>
</g>
<g>
	<polygon fill="#FFD703" points="124.602,13.062 170.674,59.134 91.677,91.383 	"/>
	<polygon fill="#FCC108" points="91.677,91.383 170.674,59.134 147.3,35.76 	"/>
	<circle fill="#FFD703" cx="106.464" cy="81.545" r="2.725"/>
	<circle fill="#FCC108" cx="118.714" cy="44.604" r="2.725"/>
	<circle fill="#FFD703" cx="151.131" cy="54.328" r="2.725"/>
	<circle fill="#FCC108" cx="134.611" cy="48.459" r="2.725"/>
	<circle fill="#FCC108" cx="115.068" cy="67.991" r="4.807"/>
	<circle fill="#FFD703" cx="134.459" cy="64.202" r="4.807"/>
	<path fill="#FFD703" d="M118.467,64.592c1.877,1.878,1.877,4.921,0,6.798c-1.877,1.877-4.921,1.878-6.799,0L118.467,64.592z"/>
	<path fill="#FFD703" d="M136.538,46.533c1.064,1.064,1.064,2.789,0,3.853c-1.064,1.063-2.789,1.064-3.854,0L136.538,46.533z"/>
	<polygon fill="#67A6A3" points="124.602,13.062 146.723,35.182 118.577,27.398 	"/>
	<circle fill="#67A6A3" cx="139.243" cy="34.116" r="4.141"/>
	<circle fill="#67A6A3" cx="125.625" cy="29.764" r="4.141"/>
	<path fill="#67A6A3" d="M144.922,33.379c-0.602,0.024-1.196,0.265-1.656,0.725c-0.968,0.968-0.968,2.536,0.001,3.504
		c0.967,0.968,2.535,0.968,3.504,0c0.459-0.459,0.7-1.054,0.724-1.656"/>
	<path fill="#67A6A3" d="M118.805,26.852c0.555-0.198,1.182-0.199,1.769,0.041c1.267,0.518,1.874,1.964,1.355,3.232
		c-0.518,1.267-1.964,1.874-3.231,1.355c-0.601-0.246-1.054-0.701-1.308-1.247"/>
	<circle fill="#67A6A3" cx="133.185" cy="30.524" r="4.141"/>
	<polygon fill="#488E8A" points="124.518,13.307 146.638,35.427 121.104,21.428 	"/>
</g>
<g>
	<circle fill="#FBC717" stroke="#FBC717" stroke-width="0.9468" stroke-miterlimit="10" cx="53.481" cy="61.646" r="25.532"/>
	<path fill="#FAB61B" stroke="#FAB61B" stroke-width="0.9468" stroke-miterlimit="10" d="M53.481,87.178
		c-14.101,0-25.532-11.432-25.532-25.532c0-14.101,11.431-25.532,25.532-25.532V87.178z"/>
	<circle fill="#F9AE1B" stroke="#F9AE1B" stroke-width="1.0362" stroke-miterlimit="10" cx="59.135" cy="39.233" r="0.761"/>
	<circle fill="#F9AE1B" stroke="#F9AE1B" stroke-width="1.0362" stroke-miterlimit="10" cx="62.733" cy="40.756" r="0.761"/>
	<circle fill="#F9AE1B" stroke="#F9AE1B" stroke-width="1.0362" stroke-miterlimit="10" cx="59.135" cy="43.316" r="0.761"/>
	<circle fill="#F9AE1B" stroke="#F9AE1B" stroke-width="1.0362" stroke-miterlimit="10" cx="55.382" cy="41.517" r="0.761"/>
	<circle fill="#F9AE1B" stroke="#F9AE1B" stroke-width="1.0362" stroke-miterlimit="10" cx="64.254" cy="45.071" r="0.761"/>
	<circle fill="#F9AE1B" stroke="#F9AE1B" stroke-width="1.0362" stroke-miterlimit="10" cx="69.619" cy="46.36" r="0.761"/>
	<circle fill="#F9AE1B" stroke="#F9AE1B" stroke-width="1.0362" stroke-miterlimit="10" cx="69.62" cy="50.165" r="0.761"/>
	<circle fill="#F9AE1B" stroke="#F9AE1B" stroke-width="1.0362" stroke-miterlimit="10" cx="65.486" cy="49.405" r="0.761"/>
	<circle fill="#F9AE1B" stroke="#F9AE1B" stroke-width="1.0362" stroke-miterlimit="10" cx="56.535" cy="47.882" r="0.761"/>
	<circle fill="#F9AE1B" stroke="#F9AE1B" stroke-width="1.0362" stroke-miterlimit="10" cx="59.135" cy="52.312" r="0.761"/>
	<circle fill="#F9AE1B" stroke="#F9AE1B" stroke-width="1.0362" stroke-miterlimit="10" cx="60.657" cy="47.882" r="0.761"/>
	<circle fill="#F9AE1B" stroke="#F9AE1B" stroke-width="1.0362" stroke-miterlimit="10" cx="67.336" cy="43.039" r="0.761"/>
</g>
<g>
	<g>
		
			<circle fill="#017E41" stroke="#017E41" stroke-width="1.7447" stroke-linecap="round" stroke-linejoin="round" stroke-miterlimit="10" cx="31.481" cy="59.646" r="24.87"/>
		
			<path fill="#96C222" stroke="#96C222" stroke-width="1.7447" stroke-linecap="round" stroke-linejoin="round" stroke-miterlimit="10" d="
			M31.481,81.783c-12.207,0-22.137-9.93-22.137-22.137s9.93-22.137,22.137-22.137s22.137,9.93,22.137,22.137
			S43.688,81.783,31.481,81.783z"/>
	</g>
	<g>
		
			<path fill="#DAE49C" stroke="#DAE49C" stroke-width="1.7972" stroke-linecap="round" stroke-linejoin="round" stroke-miterlimit="10" d="
			M31.481,79.635c-11.021,0-19.988-8.966-19.988-19.989c0-11.022,8.967-19.988,19.988-19.988c11.022,0,19.989,8.966,19.989,19.988
			C51.47,70.668,42.503,79.635,31.481,79.635z"/>
		<g>
			<g>
				<g opacity="0.4" enable-background="new    ">
					<g>
						<defs>
							<polyline id="SVGID_1_" points="20.699,47.702 30.723,57.799 30.752,43.346 							"/>
						</defs>
						<clipPath id="SVGID_2_">
							<use xlink:href="#SVGID_1_"  overflow="visible"/>
						</clipPath>
						
							<path clip-path="url(#SVGID_2_)" fill="#96C222" stroke="#96C222" stroke-width="1.005" stroke-linecap="round" stroke-linejoin="round" stroke-miterlimit="10" d="
							M30.699,68.977c-6.163-0.012-11.167-5.037-11.154-11.2c0.013-6.166,5.037-11.168,11.201-11.156
							c6.165,0.013,11.169,5.038,11.156,11.202C41.887,63.986,36.864,68.99,30.699,68.977z"/>
					</g>
				</g>
				<g opacity="0.4" enable-background="new    ">
					<g>
						<defs>
							<polyline id="SVGID_3_" points="15.366,58.892 29.592,58.887 19.354,48.688 							"/>
						</defs>
						<clipPath id="SVGID_4_">
							<use xlink:href="#SVGID_3_"  overflow="visible"/>
						</clipPath>
						
							<path clip-path="url(#SVGID_4_)" fill="#96C222" stroke="#96C222" stroke-width="1.005" stroke-linecap="round" stroke-linejoin="round" stroke-miterlimit="10" d="
							M37.512,66.776c-4.351,4.367-11.441,4.38-15.809,0.031c-4.367-4.35-4.381-11.442-0.031-15.81
							c4.351-4.366,11.442-4.379,15.808-0.029C41.847,55.319,41.861,62.41,37.512,66.776z"/>
					</g>
				</g>
			</g>
			<g>
				<g opacity="0.4" enable-background="new    ">
					<g>
						<defs>
							<polyline id="SVGID_5_" points="19.534,70.371 29.63,60.347 15.177,60.318 							"/>
						</defs>
						<clipPath id="SVGID_6_">
							<use xlink:href="#SVGID_5_"  overflow="visible"/>
						</clipPath>
						
							<path clip-path="url(#SVGID_6_)" fill="#96C222" stroke="#96C222" stroke-width="1.005" stroke-linecap="round" stroke-linejoin="round" stroke-miterlimit="10" d="
							M40.809,60.371c-0.013,6.163-5.039,11.167-11.201,11.155c-6.165-0.013-11.169-5.038-11.156-11.202s5.038-11.168,11.202-11.155
							C35.817,49.182,40.821,54.207,40.809,60.371z"/>
					</g>
				</g>
				<g opacity="0.4" enable-background="new    ">
					<g>
						<defs>
							<polyline id="SVGID_7_" points="30.724,75.705 30.719,61.478 20.519,71.716 							"/>
						</defs>
						<clipPath id="SVGID_8_">
							<use xlink:href="#SVGID_7_"  overflow="visible"/>
						</clipPath>
						
							<path clip-path="url(#SVGID_8_)" fill="#96C222" stroke="#96C222" stroke-width="1.005" stroke-linecap="round" stroke-linejoin="round" stroke-miterlimit="10" d="
							M38.607,53.558c4.368,4.35,4.381,11.441,0.031,15.808c-4.35,4.367-11.441,4.381-15.808,0.031
							c-4.367-4.35-4.38-11.441-0.031-15.808C27.15,49.222,34.241,49.208,38.607,53.558z"/>
					</g>
				</g>
			</g>
			<g>
				<g opacity="0.4" enable-background="new    ">
					<g>
						<defs>
							<polyline id="SVGID_9_" points="42.263,71.59 32.239,61.493 32.21,75.945 							"/>
						</defs>
						<clipPath id="SVGID_10_">
							<use xlink:href="#SVGID_9_"  overflow="visible"/>
						</clipPath>
						
							<path clip-path="url(#SVGID_10_)" fill="#96C222" stroke="#96C222" stroke-width="1.005" stroke-linecap="round" stroke-linejoin="round" stroke-miterlimit="10" d="
							M32.264,50.314c6.163,0.013,11.167,5.038,11.154,11.201c-0.013,6.165-5.037,11.168-11.201,11.156
							c-6.164-0.013-11.168-5.038-11.155-11.202C21.075,55.307,26.099,50.302,32.264,50.314z"/>
					</g>
				</g>
				<g opacity="0.4" enable-background="new    ">
					<g>
						<defs>
							<polyline id="SVGID_11_" points="47.596,60.4 33.371,60.405 43.609,70.604 							"/>
						</defs>
						<clipPath id="SVGID_12_">
							<use xlink:href="#SVGID_11_"  overflow="visible"/>
						</clipPath>
						
							<path clip-path="url(#SVGID_12_)" fill="#96C222" stroke="#96C222" stroke-width="1.005" stroke-linecap="round" stroke-linejoin="round" stroke-miterlimit="10" d="
							M25.45,52.515c4.351-4.367,11.441-4.38,15.809-0.03c4.367,4.35,4.381,11.442,0.031,15.808
							c-4.351,4.368-11.442,4.38-15.809,0.031C21.114,63.974,21.101,56.882,25.45,52.515z"/>
					</g>
				</g>
			</g>
			<g>
				<g opacity="0.4" enable-background="new    ">
					<g>
						<defs>
							<polyline id="SVGID_13_" points="43.428,48.921 33.332,58.945 47.785,58.974 							"/>
						</defs>
						<clipPath id="SVGID_14_">
							<use xlink:href="#SVGID_13_"  overflow="visible"/>
						</clipPath>
						
							<path clip-path="url(#SVGID_14_)" fill="#96C222" stroke="#96C222" stroke-width="1.005" stroke-linecap="round" stroke-linejoin="round" stroke-miterlimit="10" d="
							M22.153,58.921c0.013-6.164,5.039-11.168,11.201-11.154c6.165,0.013,11.169,5.037,11.155,11.201s-5.038,11.168-11.202,11.155
							C27.145,70.11,22.141,65.085,22.153,58.921z"/>
					</g>
				</g>
				<g opacity="0.4" enable-background="new    ">
					<g>
						<defs>
							<polyline id="SVGID_15_" points="32.237,43.587 32.243,57.814 42.444,47.576 							"/>
						</defs>
						<clipPath id="SVGID_16_">
							<use xlink:href="#SVGID_15_"  overflow="visible"/>
						</clipPath>
						
							<path clip-path="url(#SVGID_16_)" fill="#96C222" stroke="#96C222" stroke-width="1.005" stroke-linecap="round" stroke-linejoin="round" stroke-miterlimit="10" d="
							M24.354,65.734c-4.368-4.351-4.381-11.442-0.032-15.809c4.35-4.368,11.442-4.382,15.808-0.031
							c4.367,4.35,4.38,11.441,0.031,15.808C35.812,70.069,28.721,70.084,24.354,65.734z"/>
					</g>
				</g>
			</g>
		</g>
	</g>
</g>
<rect x="1.351" y="65.958" fill="#C89D64" stroke="#C89D64" stroke-width="1.3697" stroke-linecap="round" stroke-linejoin="round" stroke-miterlimit="10" width="169.024" height="28.358"/>
<g id="Larv">
</g>
</svg>
