<?xml version="1.0" encoding="utf-8"?>
<!-- Generator: Adobe Illustrator 17.0.0, SVG Export Plug-In . SVG Version: 6.00 Build 0)  -->
<!DOCTYPE svg PUBLIC "-//W3C//DTD SVG 1.1//EN" "http://www.w3.org/Graphics/SVG/1.1/DTD/svg11.dtd">
<svg version="1.1" xmlns="http://www.w3.org/2000/svg" xmlns:xlink="http://www.w3.org/1999/xlink" x="0px" y="0px"
	 width="2422.253px" height="260.292px" viewBox="0 0 2422.253 260.292" enable-background="new 0 0 2422.253 260.292"
	 xml:space="preserve">
<g id="Layer_4">
	<g>
		
			<path fill="#FFEED3" stroke="#FFEED3" stroke-width="6" stroke-linecap="round" stroke-linejoin="round" stroke-miterlimit="10" d="
			M1482.139,145.273c-0.244-3.884-0.436-7.823,1.543-11.502c3.07-5.707,9.218-12.994,15.075-14.336
			c-2.108-5.627-2.753-8.571,0.317-14.278c4.713-8.761,12.825-15.869,22.073-13.734c-2.967-6.042-1.297-10.451,2.135-16.831
			c1.167-2.17,1.971-3.393,3.686-4.975c-4.345-6.437-4.38-15.666-0.446-22.98c1.512-2.812,3.562-5.147,5.95-6.959
			c-1.509-0.832-3.049-1.67-4.626-2.518c-26.853-14.445-46.385-22.478-57.914-7.551c-6.15,10.388-0.769,16.976-0.769,16.976
			l-43.32,60.103c-2.049,3.809-0.622,8.559,3.188,10.608C1429.031,117.295,1472.09,137.135,1482.139,145.273z"/>
		
			<path fill="#FDC100" stroke="#FDC100" stroke-width="0.946" stroke-linecap="round" stroke-linejoin="round" stroke-miterlimit="10" d="
			M1500.265,120.773c-1.981-5.289-1.761-11.37,1.124-16.734c4.429-8.234,13.726-12.166,22.417-10.16
			c-2.788-5.678-2.892-12.57,0.333-18.566c1.097-2.04,2.496-3.81,4.108-5.298c-4.083-6.049-4.758-14.102-1.061-20.976
			c0.611-1.136,1.32-2.184,2.103-3.151l-51.235-5.52l-9.349,86.791l19.246,2.074
			C1490.908,124.824,1495.366,121.895,1500.265,120.773z M1517.642,62.576c3.914,0.422,6.744,3.936,6.323,7.849
			c-0.422,3.913-3.935,6.744-7.849,6.323c-3.915-0.422-6.744-3.936-6.323-7.849C1510.214,64.985,1513.727,62.154,1517.642,62.576z
			 M1492.625,59.881c-1.868-0.201-3.217-1.877-3.015-3.743c0.201-1.866,1.877-3.216,3.744-3.015
			c1.866,0.201,3.216,1.877,3.015,3.743C1496.166,58.731,1494.491,60.082,1492.625,59.881z M1490.094,83.376
			c0.314-2.918,2.934-5.029,5.855-4.715c2.918,0.314,5.029,2.936,4.715,5.855c-0.314,2.918-2.935,5.031-5.854,4.716
			C1491.889,88.917,1489.779,86.295,1490.094,83.376z M1481.866,110.54c0.469-4.365,4.391-7.524,8.757-7.053
			c4.365,0.469,7.523,4.39,7.053,8.756c-0.47,4.365-4.391,7.524-8.756,7.053C1484.553,118.827,1481.396,114.906,1481.866,110.54z"/>
		
			<path fill="#FFD600" stroke="#FFD600" stroke-width="0.946" stroke-linecap="round" stroke-linejoin="round" stroke-miterlimit="10" d="
			M1511.389,94.951c3.868-1.623,8.214-2.042,12.418-1.072c-2.788-5.678-2.892-12.57,0.333-18.566c1.097-2.04,2.496-3.81,4.108-5.298
			c-4.083-6.049-4.758-14.102-1.061-20.976c0.611-1.136,1.32-2.184,2.103-3.151l-51.235-5.52L1511.389,94.951z M1517.642,62.576
			c3.914,0.422,6.744,3.936,6.323,7.849c-0.422,3.913-3.935,6.744-7.849,6.323c-3.915-0.422-6.744-3.936-6.323-7.849
			C1510.214,64.985,1513.727,62.154,1517.642,62.576z M1492.625,59.881c-1.868-0.201-3.217-1.877-3.015-3.743
			c0.201-1.866,1.877-3.216,3.744-3.015c1.866,0.201,3.216,1.877,3.015,3.743C1496.166,58.731,1494.491,60.082,1492.625,59.881z"/>
		<path fill="none" stroke="#BD8855" stroke-width="7" stroke-linecap="round" stroke-linejoin="round" stroke-miterlimit="10" d="
			M1533.202,40.04c-27.534-16.085-51.543-26.28-63.548-9.915c-7.055,11.454-0.77,16.978-0.77,16.978l-43.324,60.112
			c-2.049,3.81-0.622,8.559,3.188,10.609c0,0,30.212,12.538,53.807,28.262"/>
	</g>
	<g>
		
			<path fill="#FFEED3" stroke="#FFEED3" stroke-width="6" stroke-linecap="round" stroke-linejoin="round" stroke-miterlimit="10" d="
			M2003.139,145.273c-0.244-3.884-0.436-7.823,1.543-11.502c3.07-5.707,9.218-12.994,15.075-14.336
			c-2.108-5.627-2.753-8.571,0.317-14.278c4.713-8.761,12.825-15.869,22.073-13.734c-2.967-6.042-1.297-10.451,2.135-16.831
			c1.167-2.17,1.971-3.393,3.686-4.975c-4.345-6.437-4.38-15.666-0.446-22.98c1.513-2.812,3.562-5.147,5.95-6.959
			c-1.509-0.832-3.049-1.67-4.626-2.518c-26.853-14.445-46.385-22.478-57.914-7.551c-6.15,10.388-0.769,16.976-0.769,16.976
			l-43.32,60.103c-2.049,3.809-0.622,8.559,3.188,10.608C1950.031,117.295,1993.09,137.135,2003.139,145.273z"/>
		
			<path fill="#FDC100" stroke="#FDC100" stroke-width="0.946" stroke-linecap="round" stroke-linejoin="round" stroke-miterlimit="10" d="
			M2021.265,120.773c-1.981-5.289-1.761-11.37,1.124-16.734c4.429-8.234,13.726-12.166,22.417-10.16
			c-2.788-5.678-2.892-12.57,0.333-18.566c1.097-2.04,2.496-3.81,4.108-5.298c-4.083-6.049-4.758-14.102-1.061-20.976
			c0.611-1.136,1.32-2.184,2.103-3.151l-51.235-5.52l-9.349,86.791l19.246,2.074
			C2011.908,124.824,2016.366,121.895,2021.265,120.773z M2038.642,62.576c3.914,0.422,6.744,3.936,6.323,7.849
			c-0.422,3.913-3.935,6.744-7.849,6.323c-3.915-0.422-6.744-3.936-6.323-7.849C2031.214,64.985,2034.727,62.154,2038.642,62.576z
			 M2013.625,59.881c-1.868-0.201-3.217-1.877-3.015-3.743c0.201-1.866,1.877-3.216,3.744-3.015
			c1.866,0.201,3.216,1.877,3.015,3.743C2017.166,58.731,2015.491,60.082,2013.625,59.881z M2011.094,83.376
			c0.314-2.918,2.934-5.029,5.855-4.715c2.918,0.314,5.029,2.936,4.715,5.855c-0.314,2.918-2.935,5.031-5.854,4.716
			C2012.889,88.917,2010.779,86.295,2011.094,83.376z M2002.866,110.54c0.469-4.365,4.391-7.524,8.757-7.053
			c4.365,0.469,7.523,4.39,7.053,8.756c-0.47,4.365-4.391,7.524-8.756,7.053C2005.553,118.827,2002.396,114.906,2002.866,110.54z"/>
		
			<path fill="#FFD600" stroke="#FFD600" stroke-width="0.946" stroke-linecap="round" stroke-linejoin="round" stroke-miterlimit="10" d="
			M2032.389,94.951c3.868-1.623,8.214-2.042,12.418-1.072c-2.788-5.678-2.892-12.57,0.333-18.566c1.097-2.04,2.496-3.81,4.108-5.298
			c-4.083-6.049-4.758-14.102-1.061-20.976c0.611-1.136,1.32-2.184,2.103-3.151l-51.235-5.52L2032.389,94.951z M2038.642,62.576
			c3.914,0.422,6.744,3.936,6.323,7.849c-0.422,3.913-3.935,6.744-7.849,6.323c-3.915-0.422-6.744-3.936-6.323-7.849
			C2031.214,64.985,2034.727,62.154,2038.642,62.576z M2013.625,59.881c-1.868-0.201-3.217-1.877-3.015-3.743
			c0.201-1.866,1.877-3.216,3.744-3.015c1.866,0.201,3.216,1.877,3.015,3.743C2017.166,58.731,2015.491,60.082,2013.625,59.881z"/>
		<path fill="none" stroke="#BD8855" stroke-width="7" stroke-linecap="round" stroke-linejoin="round" stroke-miterlimit="10" d="
			M2054.202,40.04c-27.534-16.085-51.543-26.28-63.548-9.915c-7.055,11.454-0.77,16.978-0.77,16.978l-43.324,60.112
			c-2.049,3.81-0.622,8.559,3.188,10.609c0,0,30.212,12.538,53.807,28.262"/>
	</g>
</g>
<g id="Layer_2">
	<g id="Layer_5">
		<g>
			<g>
				<path fill="#EDEDED" d="M1714.648,79.258l-4.85-7.275l-8.99-13.485l-0.809-1.152l-12.377-2.434
					c-4.776-0.94-7.981-5.093-7.159-9.273l0,0c0.821-4.182,5.362-6.808,10.136-5.871l3.496,0.686l2.522,0.496l0.513-2.519
					l0.711-3.491c0.971-4.767,5.141-7.948,9.317-7.098l0,0c4.175,0.848,6.776,5.404,5.807,10.175l-2.514,12.362l0.752,1.19
					l8.99,13.485l4.85,7.275L1714.648,79.258z"/>
			</g>
			<g>
				
					<path fill="none" stroke="#CACACA" stroke-width="1.9728" stroke-linecap="round" stroke-linejoin="round" stroke-miterlimit="10" d="
					M1707.157,27.843"/>
			</g>
			<g>
				
					<path fill="#CA9E67" stroke="#CA9E67" stroke-width="1.9728" stroke-linecap="round" stroke-linejoin="round" stroke-miterlimit="10" d="
					M1759.464,153.831c1.397,2.095,2.333,4.362,2.844,6.682c3.65-0.313,7.132-1.458,10.22-3.517l2.031-1.354
					c12.259-8.173,13.656-27.608,3.121-43.411c-5.268-7.901-12.521-13.398-19.989-15.898c0,0-20.58-5.996-30.132-20.324
					l-10.462,6.975c9.552,14.328,7.171,35.631,7.171,35.631c-0.562,7.855,1.72,16.665,6.988,24.566
					c0.938,1.406,1.941,2.733,2.994,3.983C1743.01,142.751,1753.885,145.464,1759.464,153.831z"/>
			</g>
			<g>
				
					<path fill="#BD8855" stroke="#BD8855" stroke-width="1.9728" stroke-linecap="round" stroke-linejoin="round" stroke-miterlimit="10" d="
					M1759.464,153.831c1.397,2.095,2.333,4.362,2.844,6.682c3.65-0.313,7.132-1.458,10.22-3.517l-50.2-77.5l-5.231,3.487
					c9.552,14.328,7.171,35.631,7.171,35.631c-0.562,7.855,1.72,16.665,6.988,24.566c0.938,1.406,1.941,2.733,2.994,3.983
					C1743.01,142.751,1753.885,145.464,1759.464,153.831z"/>
			</g>
		</g>
		<g>
			<g>
				<path fill="#EDEDED" d="M1442.648,79.258l-4.85-7.275l-8.99-13.485l-0.809-1.152l-12.377-2.434
					c-4.776-0.94-7.981-5.093-7.159-9.273l0,0c0.821-4.182,5.362-6.808,10.136-5.871l3.496,0.686l2.522,0.496l0.513-2.519
					l0.711-3.491c0.971-4.767,5.141-7.948,9.317-7.098l0,0c4.175,0.848,6.776,5.404,5.807,10.175l-2.514,12.362l0.752,1.19
					l8.99,13.485l4.85,7.275L1442.648,79.258z"/>
			</g>
			<g>
				
					<path fill="none" stroke="#CACACA" stroke-width="1.9728" stroke-linecap="round" stroke-linejoin="round" stroke-miterlimit="10" d="
					M1435.157,27.843"/>
			</g>
			<g>
				
					<path fill="#CA9E67" stroke="#CA9E67" stroke-width="1.9728" stroke-linecap="round" stroke-linejoin="round" stroke-miterlimit="10" d="
					M1487.464,153.831c1.397,2.095,2.333,4.362,2.844,6.682c3.65-0.313,7.132-1.458,10.22-3.517l2.031-1.354
					c12.259-8.173,13.656-27.608,3.121-43.411c-5.268-7.901-12.521-13.398-19.989-15.898c0,0-20.58-5.996-30.132-20.324
					l-10.462,6.975c9.552,14.328,7.171,35.631,7.171,35.631c-0.562,7.855,1.72,16.665,6.988,24.566
					c0.938,1.406,1.941,2.733,2.994,3.983C1471.01,142.751,1481.885,145.464,1487.464,153.831z"/>
			</g>
			<g>
				
					<path fill="#BD8855" stroke="#BD8855" stroke-width="1.9728" stroke-linecap="round" stroke-linejoin="round" stroke-miterlimit="10" d="
					M1487.464,153.831c1.397,2.095,2.333,4.362,2.844,6.682c3.65-0.313,7.132-1.458,10.22-3.517l-50.2-77.5l-5.231,3.487
					c9.552,14.328,7.171,35.631,7.171,35.631c-0.562,7.855,1.72,16.665,6.988,24.566c0.938,1.406,1.941,2.733,2.994,3.983
					C1471.01,142.751,1481.885,145.464,1487.464,153.831z"/>
			</g>
		</g>
		<g>
			<g>
				<path fill="#EDEDED" d="M1191.648,79.258l-4.85-7.275l-8.99-13.485l-0.809-1.152l-12.377-2.434
					c-4.776-0.94-7.981-5.093-7.159-9.273l0,0c0.821-4.182,5.362-6.808,10.136-5.871l3.496,0.686l2.522,0.496l0.513-2.519
					l0.711-3.491c0.971-4.767,5.141-7.948,9.317-7.098l0,0c4.175,0.848,6.776,5.404,5.807,10.175l-2.514,12.362l0.752,1.19
					l8.99,13.485l4.85,7.275L1191.648,79.258z"/>
			</g>
			<g>
				
					<path fill="none" stroke="#CACACA" stroke-width="1.9728" stroke-linecap="round" stroke-linejoin="round" stroke-miterlimit="10" d="
					M1184.157,27.843"/>
			</g>
			<g>
				
					<path fill="#CA9E67" stroke="#CA9E67" stroke-width="1.9728" stroke-linecap="round" stroke-linejoin="round" stroke-miterlimit="10" d="
					M1236.464,153.831c1.397,2.095,2.333,4.362,2.844,6.682c3.65-0.313,7.132-1.458,10.22-3.517l2.031-1.354
					c12.259-8.173,13.656-27.608,3.121-43.411c-5.268-7.901-12.521-13.398-19.989-15.898c0,0-20.58-5.996-30.132-20.324
					l-10.462,6.975c9.552,14.328,7.171,35.631,7.171,35.631c-0.562,7.855,1.72,16.665,6.988,24.566
					c0.938,1.406,1.941,2.733,2.994,3.983C1220.01,142.751,1230.885,145.464,1236.464,153.831z"/>
			</g>
			<g>
				
					<path fill="#BD8855" stroke="#BD8855" stroke-width="1.9728" stroke-linecap="round" stroke-linejoin="round" stroke-miterlimit="10" d="
					M1236.464,153.831c1.397,2.095,2.333,4.362,2.844,6.682c3.65-0.313,7.132-1.458,10.22-3.517l-50.2-77.5l-5.231,3.487
					c9.552,14.328,7.171,35.631,7.171,35.631c-0.562,7.855,1.72,16.665,6.988,24.566c0.938,1.406,1.941,2.733,2.994,3.983
					C1220.01,142.751,1230.885,145.464,1236.464,153.831z"/>
			</g>
		</g>
		<g>
			<g>
				<path fill="#EDEDED" d="M950.648,79.258l-4.85-7.275l-8.99-13.485l-0.809-1.152l-12.377-2.434
					c-4.776-0.94-7.982-5.093-7.159-9.273l0,0c0.822-4.182,5.362-6.808,10.136-5.871l3.496,0.686l2.522,0.496l0.513-2.519
					l0.711-3.491c0.971-4.767,5.141-7.948,9.317-7.098l0,0c4.175,0.848,6.776,5.404,5.806,10.175l-2.514,12.362l0.752,1.19
					l8.99,13.485l4.85,7.275L950.648,79.258z"/>
			</g>
			<g>
				
					<path fill="none" stroke="#CACACA" stroke-width="1.9728" stroke-linecap="round" stroke-linejoin="round" stroke-miterlimit="10" d="
					M943.157,27.843"/>
			</g>
			<g>
				
					<path fill="#CA9E67" stroke="#CA9E67" stroke-width="1.9728" stroke-linecap="round" stroke-linejoin="round" stroke-miterlimit="10" d="
					M995.464,153.831c1.397,2.095,2.333,4.362,2.844,6.682c3.65-0.313,7.132-1.458,10.22-3.517l2.031-1.354
					c12.259-8.173,13.656-27.608,3.121-43.411c-5.268-7.901-12.521-13.398-19.99-15.898c0,0-20.58-5.996-30.132-20.324
					l-10.462,6.975c9.552,14.328,7.171,35.631,7.171,35.631c-0.562,7.855,1.721,16.665,6.988,24.566
					c0.938,1.406,1.941,2.733,2.994,3.983C979.01,142.751,989.885,145.464,995.464,153.831z"/>
			</g>
			<g>
				
					<path fill="#BD8855" stroke="#BD8855" stroke-width="1.9728" stroke-linecap="round" stroke-linejoin="round" stroke-miterlimit="10" d="
					M995.464,153.831c1.397,2.095,2.333,4.362,2.844,6.682c3.65-0.313,7.132-1.458,10.22-3.517l-50.2-77.5l-5.231,3.487
					c9.552,14.328,7.171,35.631,7.171,35.631c-0.562,7.855,1.721,16.665,6.988,24.566c0.938,1.406,1.941,2.733,2.994,3.983
					C979.01,142.751,989.885,145.464,995.464,153.831z"/>
			</g>
		</g>
		<g>
			<g>
				<path fill="#EDEDED" d="M719.648,79.258l-4.85-7.275l-8.99-13.485l-0.809-1.152l-12.377-2.434
					c-4.776-0.94-7.982-5.093-7.159-9.273l0,0c0.822-4.182,5.362-6.808,10.136-5.871l3.496,0.686l2.522,0.496l0.513-2.519
					l0.711-3.491c0.971-4.767,5.141-7.948,9.317-7.098l0,0c4.175,0.848,6.776,5.404,5.806,10.175l-2.514,12.362l0.752,1.19
					l8.99,13.485l4.85,7.275L719.648,79.258z"/>
			</g>
			<g>
				
					<path fill="none" stroke="#CACACA" stroke-width="1.9728" stroke-linecap="round" stroke-linejoin="round" stroke-miterlimit="10" d="
					M712.157,27.843"/>
			</g>
			<g>
				
					<path fill="#CA9E67" stroke="#CA9E67" stroke-width="1.9728" stroke-linecap="round" stroke-linejoin="round" stroke-miterlimit="10" d="
					M764.464,153.831c1.397,2.095,2.333,4.362,2.844,6.682c3.65-0.313,7.132-1.458,10.22-3.517l2.031-1.354
					c12.259-8.173,13.656-27.608,3.121-43.411c-5.268-7.901-12.521-13.398-19.99-15.898c0,0-20.58-5.996-30.132-20.324
					l-10.462,6.975c9.552,14.328,7.171,35.631,7.171,35.631c-0.562,7.855,1.721,16.665,6.988,24.566
					c0.938,1.406,1.941,2.733,2.994,3.983C748.01,142.751,758.885,145.464,764.464,153.831z"/>
			</g>
			<g>
				
					<path fill="#BD8855" stroke="#BD8855" stroke-width="1.9728" stroke-linecap="round" stroke-linejoin="round" stroke-miterlimit="10" d="
					M764.464,153.831c1.397,2.095,2.333,4.362,2.844,6.682c3.65-0.313,7.132-1.458,10.22-3.517l-50.2-77.5l-5.231,3.487
					c9.552,14.328,7.171,35.631,7.171,35.631c-0.562,7.855,1.721,16.665,6.988,24.566c0.938,1.406,1.941,2.733,2.994,3.983
					C748.01,142.751,758.885,145.464,764.464,153.831z"/>
			</g>
		</g>
		<g>
			<g>
				<path fill="#EDEDED" d="M488.648,79.258l-4.85-7.275l-8.99-13.485l-0.809-1.152l-12.377-2.434
					c-4.776-0.94-7.982-5.093-7.159-9.273l0,0c0.822-4.182,5.362-6.808,10.136-5.871l3.496,0.686l2.522,0.496l0.513-2.519
					l0.711-3.491c0.971-4.767,5.141-7.948,9.317-7.098l0,0c4.175,0.848,6.776,5.404,5.806,10.175l-2.514,12.362l0.752,1.19
					l8.99,13.485l4.85,7.275L488.648,79.258z"/>
			</g>
			<g>
				
					<path fill="none" stroke="#CACACA" stroke-width="1.9728" stroke-linecap="round" stroke-linejoin="round" stroke-miterlimit="10" d="
					M481.157,27.843"/>
			</g>
			<g>
				
					<path fill="#CA9E67" stroke="#CA9E67" stroke-width="1.9728" stroke-linecap="round" stroke-linejoin="round" stroke-miterlimit="10" d="
					M533.464,153.831c1.397,2.095,2.333,4.362,2.844,6.682c3.65-0.313,7.132-1.458,10.22-3.517l2.031-1.354
					c12.259-8.173,13.656-27.608,3.121-43.411c-5.268-7.901-12.521-13.398-19.99-15.898c0,0-20.58-5.996-30.132-20.324
					l-10.462,6.975c9.552,14.328,7.171,35.631,7.171,35.631c-0.562,7.855,1.721,16.665,6.988,24.566
					c0.938,1.406,1.941,2.733,2.994,3.983C517.01,142.751,527.885,145.464,533.464,153.831z"/>
			</g>
			<g>
				
					<path fill="#BD8855" stroke="#BD8855" stroke-width="1.9728" stroke-linecap="round" stroke-linejoin="round" stroke-miterlimit="10" d="
					M533.464,153.831c1.397,2.095,2.333,4.362,2.844,6.682c3.65-0.313,7.132-1.458,10.22-3.517l-50.2-77.5l-5.231,3.487
					c9.552,14.328,7.171,35.631,7.171,35.631c-0.562,7.855,1.721,16.665,6.988,24.566c0.938,1.406,1.941,2.733,2.994,3.983
					C517.01,142.751,527.885,145.464,533.464,153.831z"/>
			</g>
		</g>
		<g>
			<g>
				<path fill="#EDEDED" d="M255.648,80.258l-4.85-7.275l-8.99-13.485l-0.809-1.152l-12.377-2.434
					c-4.776-0.94-7.981-5.093-7.159-9.273l0,0c0.822-4.182,5.362-6.808,10.136-5.871l3.496,0.686l2.522,0.496l0.513-2.519
					l0.711-3.491c0.971-4.767,5.141-7.948,9.317-7.098l0,0c4.175,0.848,6.776,5.404,5.806,10.175l-2.514,12.362l0.752,1.19
					l8.99,13.485l4.85,7.275L255.648,80.258z"/>
			</g>
			<g>
				
					<path fill="none" stroke="#CACACA" stroke-width="1.9728" stroke-linecap="round" stroke-linejoin="round" stroke-miterlimit="10" d="
					M248.157,28.843"/>
			</g>
			<g>
				
					<path fill="#CA9E67" stroke="#CA9E67" stroke-width="1.9728" stroke-linecap="round" stroke-linejoin="round" stroke-miterlimit="10" d="
					M300.464,154.831c1.397,2.095,2.333,4.362,2.844,6.682c3.65-0.313,7.132-1.458,10.22-3.517l2.031-1.354
					c12.259-8.173,13.656-27.608,3.121-43.411c-5.268-7.901-12.521-13.398-19.989-15.898c0,0-20.58-5.996-30.132-20.324
					l-10.462,6.975c9.552,14.328,7.171,35.631,7.171,35.631c-0.562,7.855,1.721,16.665,6.988,24.566
					c0.938,1.406,1.941,2.733,2.994,3.983C284.01,143.751,294.885,146.464,300.464,154.831z"/>
			</g>
			<g>
				
					<path fill="#BD8855" stroke="#BD8855" stroke-width="1.9728" stroke-linecap="round" stroke-linejoin="round" stroke-miterlimit="10" d="
					M300.464,154.831c1.397,2.095,2.333,4.362,2.844,6.682c3.65-0.313,7.132-1.458,10.22-3.517l-50.2-77.5l-5.231,3.487
					c9.552,14.328,7.171,35.631,7.171,35.631c-0.562,7.855,1.721,16.665,6.988,24.566c0.938,1.406,1.941,2.733,2.994,3.983
					C284.01,143.751,294.885,146.464,300.464,154.831z"/>
			</g>
		</g>
		<g>
			<g>
				<path fill="#EDEDED" d="M1963.648,79.258l-4.85-7.275l-8.99-13.485l-0.809-1.152l-12.377-2.434
					c-4.776-0.94-7.981-5.093-7.159-9.273l0,0c0.821-4.182,5.362-6.808,10.136-5.871l3.496,0.686l2.522,0.496l0.513-2.519
					l0.711-3.491c0.971-4.767,5.141-7.948,9.317-7.098l0,0c4.175,0.848,6.776,5.404,5.807,10.175l-2.514,12.362l0.752,1.19
					l8.99,13.485l4.85,7.275L1963.648,79.258z"/>
			</g>
			<g>
				
					<path fill="none" stroke="#CACACA" stroke-width="1.9728" stroke-linecap="round" stroke-linejoin="round" stroke-miterlimit="10" d="
					M1956.157,27.843"/>
			</g>
			<g>
				
					<path fill="#CA9E67" stroke="#CA9E67" stroke-width="1.9728" stroke-linecap="round" stroke-linejoin="round" stroke-miterlimit="10" d="
					M2008.464,153.831c1.397,2.095,2.333,4.362,2.844,6.682c3.65-0.313,7.132-1.458,10.22-3.517l2.031-1.354
					c12.259-8.173,13.656-27.608,3.121-43.411c-5.268-7.901-12.521-13.398-19.989-15.898c0,0-20.58-5.996-30.132-20.324
					l-10.462,6.975c9.552,14.328,7.171,35.631,7.171,35.631c-0.562,7.855,1.72,16.665,6.988,24.566
					c0.938,1.406,1.941,2.733,2.994,3.983C1992.01,142.751,2002.885,145.464,2008.464,153.831z"/>
			</g>
			<g>
				
					<path fill="#BD8855" stroke="#BD8855" stroke-width="1.9728" stroke-linecap="round" stroke-linejoin="round" stroke-miterlimit="10" d="
					M2008.464,153.831c1.397,2.095,2.333,4.362,2.844,6.682c3.65-0.313,7.132-1.458,10.22-3.517l-50.2-77.5l-5.231,3.487
					c9.552,14.328,7.171,35.631,7.171,35.631c-0.562,7.855,1.72,16.665,6.988,24.566c0.938,1.406,1.941,2.733,2.994,3.983
					C1992.01,142.751,2002.885,145.464,2008.464,153.831z"/>
			</g>
		</g>
	</g>
	<g>
		<g>
			
				<path fill="#FFD600" stroke="#FFD600" stroke-width="0.566" stroke-linecap="round" stroke-linejoin="round" stroke-miterlimit="10" d="
				M400.922,54.898c-12.138,4.62-26.37,2.49-36.746-6.736c-12.379-11.005-16.703-30.608-5.985-47.879l4.063,0.56
				c-2.629,14.725,3.808,27.471,12.611,35.296c6.505,5.784,14.523,8.779,22.592,9.072L400.922,54.898z"/>
		</g>
		<g>
			
				<path fill="#7B6A58" stroke="#7B6A58" stroke-width="0.566" stroke-linecap="round" stroke-linejoin="round" stroke-miterlimit="10" d="
				M400.922,54.901c-12.136,4.615-26.36,2.483-36.736-6.739c-13.026-11.582-16.437-31.231-5.984-47.879l1.836,0.252
				c-5.384,13.36-0.805,32.039,9.703,41.382c8.403,7.47,19.331,10.287,29.629,8.636L400.922,54.901z"/>
		</g>
	</g>
	<g>
		<g>
			<path fill="#FDC100" stroke="#FDC100" stroke-linecap="round" stroke-linejoin="round" stroke-miterlimit="10" d="
				M354.79,115.995"/>
		</g>
		<g>
			<g>
				
					<polygon fill="#634E42" stroke="#634E42" stroke-width="0.9498" stroke-linecap="round" stroke-linejoin="round" stroke-miterlimit="10" points="
					414.635,59.451 414.02,48.391 420.377,49.555 420.823,57.589 				"/>
			</g>
			<g>
				
					<polygon fill="#7B6A58" stroke="#7B6A58" stroke-width="0.9498" stroke-linecap="round" stroke-linejoin="round" stroke-miterlimit="10" points="
					414.635,59.451 420.823,57.589 420.377,49.555 				"/>
			</g>
		</g>
		<g>
			<path fill="#FFD600" stroke="#FFD600" stroke-linecap="round" stroke-linejoin="round" stroke-miterlimit="10" d="
				M359.714,156.796c-12.048-23.527-7.749-48.386,3.085-66.154c10.834-17.77,28.987-28.341,48.222-30.2l-0.715-12.65
				c-26.834-7.685-56.541,3.068-71.775,28.052c-15.235,24.986-12.425,60.343,14.605,83.995L359.714,156.796z"/>
		</g>
		<g>
			<path fill="#FDC100" stroke="#FDC100" stroke-linecap="round" stroke-linejoin="round" stroke-miterlimit="10" d="
				M353.136,159.84c-26.257-22.735-30.641-57.698-14.605-83.995c15.233-24.984,44.941-35.738,71.775-28.052l0.306,5.451
				c-23.18-1.875-46.54,9.079-59.473,30.289c-12.933,21.211-11.026,55.138,4.97,74.931L353.136,159.84z"/>
		</g>
		<g>
			<circle fill="#634E42" cx="336.655" cy="91.584" r="0.694"/>
		</g>
		<g>
			<circle fill="#634E42" cx="334.386" cy="94.346" r="0.694"/>
		</g>
		<g>
			<circle fill="#634E42" cx="331.816" cy="96.544" r="0.694"/>
		</g>
		<g>
			<circle fill="#634E42" cx="333.683" cy="97.937" r="0.694"/>
		</g>
		<g>
			<circle fill="#634E42" cx="331.111" cy="100.899" r="0.694"/>
		</g>
		<g>
			<circle fill="#634E42" cx="332.978" cy="102.497" r="0.694"/>
		</g>
		<g>
			<circle fill="#634E42" cx="334.397" cy="89.697" r="0.694"/>
		</g>
		<g>
			<circle fill="#634E42" cx="336.885" cy="86.37" r="0.694"/>
		</g>
	</g>
	<g>
		
			<path fill="none" stroke="#575756" stroke-width="4.6247" stroke-linecap="round" stroke-linejoin="round" stroke-miterlimit="10" d="
			M472.701,109.565c0,0,23.632,0.518,43.413-12.42"/>
	</g>
	<g>
		
			<path fill="none" stroke="#575756" stroke-width="4.6247" stroke-linecap="round" stroke-linejoin="round" stroke-miterlimit="10" d="
			M472.376,91.984c0,0,19.04,0.994,35.785-8.127"/>
	</g>
	<g>
		
			<path fill="none" stroke="#575756" stroke-width="4.6247" stroke-linecap="round" stroke-linejoin="round" stroke-miterlimit="10" d="
			M475.692,74.974c0,0,13.975,1.291,26.556-4.928"/>
	</g>
	<g>
		
			<path fill="none" stroke="#575756" stroke-width="4.6247" stroke-linecap="round" stroke-linejoin="round" stroke-miterlimit="10" d="
			M483.408,57.906c0,0,6.96,1.13,13.482-1.553"/>
	</g>
	<g>
		
			<path fill="none" stroke="#575756" stroke-width="4.6247" stroke-linecap="round" stroke-linejoin="round" stroke-miterlimit="10" d="
			M510.853,127.57c-12.741-8.944-21.686-29.952-21.686-54.441c0-11.04,1.818-21.373,4.983-30.211"/>
	</g>
	<g>
		
			<path fill="#90AFB0" stroke="#90AFB0" stroke-width="4.6247" stroke-linecap="round" stroke-linejoin="round" stroke-miterlimit="10" d="
			M474.208,125.446c0,0,12.368,25.863,38.536,25.099c20.968-15.679,14.566-43.623,14.566-43.623
			C503.581,124.278,474.208,125.446,474.208,125.446z"/>
	</g>
	<g>
		
			<circle fill="#FFFFFF" stroke="#FFFFFF" stroke-width="4.6247" stroke-linecap="round" stroke-linejoin="round" stroke-miterlimit="10" cx="497.67" cy="135.901" r="5.106"/>
	</g>
	<g>
		<circle cx="497.67" cy="135.901" r="2.27"/>
	</g>
	<g>
		
			<path fill="#90AFB0" stroke="#90AFB0" stroke-width="4.6247" stroke-linecap="round" stroke-linejoin="round" stroke-miterlimit="10" d="
			M493.068,45.325c6.101-23.717-13.359-28.658-13.359-28.658S470.981,34.747,493.068,45.325z"/>
	</g>
	<g>
		
			<path fill="#6D999E" stroke="#6D999E" stroke-width="4.6247" stroke-linecap="round" stroke-linejoin="round" stroke-miterlimit="10" d="
			M493.31,45.367c2.422-24.369,22.394-22.322,22.394-22.322S517.687,43.024,493.31,45.367z"/>
	</g>
	<g>
		
			<path fill="#6D999E" stroke="#6D999E" stroke-width="4.6247" stroke-linecap="round" stroke-linejoin="round" stroke-miterlimit="10" d="
			M502.777,119.514c7.927-2.747,16.549-6.753,24.533-12.593c0,0,6.262,27.333-13.884,43.102L502.777,119.514z"/>
	</g>
	<g>
		<circle fill="#FBC715" stroke="#FBC715" stroke-width="0.9468" stroke-miterlimit="10" cx="944.008" cy="71.585" r="24.035"/>
		<path fill="#FAB515" stroke="#FAB515" stroke-width="0.9468" stroke-miterlimit="10" d="M944.008,95.62
			c-13.274,0-24.035-10.761-24.035-24.035c0-13.274,10.761-24.035,24.035-24.035V95.62z"/>
		<circle fill="#F8AD17" stroke="#F8AD17" stroke-width="1.0362" stroke-miterlimit="10" cx="949.33" cy="50.487" r="0.716"/>
		<circle fill="#F8AD17" stroke="#F8AD17" stroke-width="1.0362" stroke-miterlimit="10" cx="952.717" cy="51.92" r="0.716"/>
		<circle fill="#F8AD17" stroke="#F8AD17" stroke-width="1.0362" stroke-miterlimit="10" cx="949.33" cy="54.33" r="0.716"/>
		<circle fill="#F8AD17" stroke="#F8AD17" stroke-width="1.0362" stroke-miterlimit="10" cx="945.798" cy="52.636" r="0.716"/>
		<circle fill="#F8AD17" stroke="#F8AD17" stroke-width="1.0362" stroke-miterlimit="10" cx="954.15" cy="55.982" r="0.716"/>
		<circle fill="#F8AD17" stroke="#F8AD17" stroke-width="1.0362" stroke-miterlimit="10" cx="955.31" cy="60.061" r="0.716"/>
		<circle fill="#F8AD17" stroke="#F8AD17" stroke-width="1.0362" stroke-miterlimit="10" cx="946.883" cy="58.628" r="0.716"/>
		<circle fill="#F8AD17" stroke="#F8AD17" stroke-width="1.0362" stroke-miterlimit="10" cx="949.331" cy="62.798" r="0.716"/>
		<circle fill="#F8AD17" stroke="#F8AD17" stroke-width="1.0362" stroke-miterlimit="10" cx="950.763" cy="58.628" r="0.716"/>
		<circle fill="#F8AD17" stroke="#F8AD17" stroke-width="1.0362" stroke-miterlimit="10" cx="957.051" cy="54.069" r="0.716"/>
	</g>
	<g>
		<g>
			<g>
				<path fill="#E3E683" d="M818.285,92.496c-4.675-2.722-8.002-9.716-8.002-17.912c0-8.163,3.3-15.132,7.946-17.878h-17H784.23
					c4.645,2.746,7.945,9.715,7.945,17.878c0,8.196-3.328,15.19-8.003,17.912H818.285z"/>
			</g>
		</g>
		<g>
			<g>
				<path fill="#3CA036" d="M801.562,47.737"/>
			</g>
		</g>
		<g>
			<g>
				<path fill="#CCDC84" d="M801.229,92.226h17.056c-4.675-2.722-8.002-9.445-8.002-17.642c0-8.163,3.3-14.941,7.946-17.687h-17
					v34.734V92.226z"/>
			</g>
		</g>
		<g>
			<g>
				<path fill="#432918" stroke="#432918" stroke-miterlimit="10" d="M801.962,47.579c0-4.644,3.589-8.421,8.31-8.421v2.433
					c-3.571,0-6.885,2.495-6.885,5.988H801.962z"/>
			</g>
		</g>
		<g>
			<g>
				<g>
					<g>
						<path fill="#006633" d="M799.324,47.53c1.491-2.592,1.645-4.499,1.645-4.499c1.177-10.268-12.513-12.709-12.513-12.709
							s-3.68,13.411,6.097,16.761C794.554,47.083,796.342,47.763,799.324,47.53z"/>
					</g>
				</g>
			</g>
			<g>
				<g>
					<g>
						<path fill="#007D40" d="M788.456,30.322c0,0-3.68,13.411,6.097,16.761c0,0,1.788,0.68,4.77,0.447"/>
					</g>
				</g>
			</g>
		</g>
		<g>
			<g>
				<g>
					<ellipse fill="#432918" stroke="#432918" stroke-miterlimit="10" cx="798.151" cy="74.495" rx="0.874" ry="1.992"/>
				</g>
			</g>
			<g>
				<g>
					<ellipse fill="#432918" stroke="#432918" stroke-miterlimit="10" cx="804.651" cy="74.495" rx="0.874" ry="1.992"/>
				</g>
			</g>
		</g>
		<g>
			<g>
				
					<path fill="#3AAA35" stroke="#3AAA35" stroke-width="0.8532" stroke-linecap="round" stroke-linejoin="round" stroke-miterlimit="10" d="
					M818.544,56.706c0-3.473-3.202-6.938-7.152-6.938c-1.071,0-2.088,0.207-3.001,0.579l-1.854,0.667
					c-3.122,1.016-5.086,1.016-5.086,1.016h-0.026c0,0-1.965,0-5.087-1.016l-1.854-0.667c-0.913-0.372-1.93-0.579-3.002-0.579
					c-3.95,0-7.152,3.465-7.152,6.938H818.544z"/>
			</g>
		</g>
		<g>
			<g>
				
					<path fill="#3AAA35" stroke="#3AAA35" stroke-width="0.8522" stroke-linecap="round" stroke-linejoin="round" stroke-miterlimit="10" d="
					M818.505,92.496c0,3.468-3.199,9.097-7.144,9.097c0,0-1.867-0.021-4.85-0.919c-2.563-0.773-4.971-0.753-5.081-0.753h-0.185
					c-0.109,0-2.517-0.02-5.08,0.753c-2.982,0.898-4.849,0.919-4.849,0.919c-3.945,0-7.144-5.629-7.144-9.097H818.505z"/>
			</g>
		</g>
	</g>
	<g>
		<g>
			
				<path fill="none" stroke="#575756" stroke-width="4.6247" stroke-linecap="round" stroke-linejoin="round" stroke-miterlimit="10" d="
				M703.701,109.565c0,0,23.632,0.518,43.413-12.42"/>
		</g>
		<g>
			
				<path fill="none" stroke="#575756" stroke-width="4.6247" stroke-linecap="round" stroke-linejoin="round" stroke-miterlimit="10" d="
				M703.376,91.984c0,0,19.04,0.994,35.785-8.127"/>
		</g>
		<g>
			
				<path fill="none" stroke="#575756" stroke-width="4.6247" stroke-linecap="round" stroke-linejoin="round" stroke-miterlimit="10" d="
				M706.692,74.974c0,0,13.975,1.291,26.556-4.928"/>
		</g>
		<g>
			
				<path fill="none" stroke="#575756" stroke-width="4.6247" stroke-linecap="round" stroke-linejoin="round" stroke-miterlimit="10" d="
				M714.408,57.906c0,0,6.96,1.13,13.482-1.553"/>
		</g>
		<g>
			
				<path fill="none" stroke="#575756" stroke-width="4.6247" stroke-linecap="round" stroke-linejoin="round" stroke-miterlimit="10" d="
				M741.853,127.57c-12.741-8.944-21.686-29.952-21.686-54.441c0-11.04,1.818-21.373,4.983-30.211"/>
		</g>
		<g>
			
				<path fill="#90AFB0" stroke="#90AFB0" stroke-width="4.6247" stroke-linecap="round" stroke-linejoin="round" stroke-miterlimit="10" d="
				M705.208,125.446c0,0,12.368,25.863,38.536,25.099c20.968-15.679,14.566-43.623,14.566-43.623
				C734.581,124.278,705.208,125.446,705.208,125.446z"/>
		</g>
		<g>
			
				<circle fill="#FFFFFF" stroke="#FFFFFF" stroke-width="4.6247" stroke-linecap="round" stroke-linejoin="round" stroke-miterlimit="10" cx="728.67" cy="135.901" r="5.106"/>
		</g>
		<g>
			<circle cx="728.67" cy="135.901" r="2.27"/>
		</g>
		<g>
			
				<path fill="#90AFB0" stroke="#90AFB0" stroke-width="4.6247" stroke-linecap="round" stroke-linejoin="round" stroke-miterlimit="10" d="
				M724.068,45.325c6.101-23.717-13.359-28.658-13.359-28.658S701.981,34.747,724.068,45.325z"/>
		</g>
		<g>
			
				<path fill="#6D999E" stroke="#6D999E" stroke-width="4.6247" stroke-linecap="round" stroke-linejoin="round" stroke-miterlimit="10" d="
				M724.31,45.367c2.422-24.369,22.394-22.322,22.394-22.322S748.687,43.024,724.31,45.367z"/>
		</g>
		<g>
			
				<path fill="#6D999E" stroke="#6D999E" stroke-width="4.6247" stroke-linecap="round" stroke-linejoin="round" stroke-miterlimit="10" d="
				M733.777,119.514c7.927-2.747,16.549-6.753,24.533-12.593c0,0,6.262,27.333-13.884,43.102L733.777,119.514z"/>
		</g>
	</g>
	<g>
		<g>
			<g>
				<path fill="#E3E683" d="M1049.285,92.496c-4.675-2.722-8.002-9.716-8.002-17.912c0-8.163,3.3-15.132,7.946-17.878h-17h-16.999
					c4.645,2.746,7.945,9.715,7.945,17.878c0,8.196-3.328,15.19-8.003,17.912H1049.285z"/>
			</g>
		</g>
		<g>
			<g>
				<path fill="#3CA036" d="M1032.562,47.737"/>
			</g>
		</g>
		<g>
			<g>
				<path fill="#CCDC84" d="M1032.229,92.226h17.056c-4.675-2.722-8.002-9.445-8.002-17.642c0-8.163,3.3-14.941,7.946-17.687h-17
					v34.734V92.226z"/>
			</g>
		</g>
		<g>
			<g>
				<path fill="#432918" stroke="#432918" stroke-miterlimit="10" d="M1032.962,47.579c0-4.644,3.589-8.421,8.31-8.421v2.433
					c-3.571,0-6.885,2.495-6.885,5.988H1032.962z"/>
			</g>
		</g>
		<g>
			<g>
				<g>
					<g>
						<path fill="#006633" d="M1030.324,47.53c1.491-2.592,1.645-4.499,1.645-4.499c1.177-10.268-12.513-12.709-12.513-12.709
							s-3.68,13.411,6.097,16.761C1025.554,47.083,1027.342,47.763,1030.324,47.53z"/>
					</g>
				</g>
			</g>
			<g>
				<g>
					<g>
						<path fill="#007D40" d="M1019.456,30.322c0,0-3.68,13.411,6.097,16.761c0,0,1.788,0.68,4.77,0.447"/>
					</g>
				</g>
			</g>
		</g>
		<g>
			<g>
				<g>
					<ellipse fill="#432918" stroke="#432918" stroke-miterlimit="10" cx="1029.151" cy="74.495" rx="0.874" ry="1.992"/>
				</g>
			</g>
			<g>
				<g>
					<ellipse fill="#432918" stroke="#432918" stroke-miterlimit="10" cx="1035.651" cy="74.495" rx="0.874" ry="1.992"/>
				</g>
			</g>
		</g>
		<g>
			<g>
				
					<path fill="#3AAA35" stroke="#3AAA35" stroke-width="0.8532" stroke-linecap="round" stroke-linejoin="round" stroke-miterlimit="10" d="
					M1049.544,56.706c0-3.473-3.202-6.938-7.152-6.938c-1.071,0-2.088,0.207-3.001,0.579l-1.854,0.667
					c-3.122,1.016-5.086,1.016-5.086,1.016h-0.026c0,0-1.965,0-5.087-1.016l-1.854-0.667c-0.913-0.372-1.93-0.579-3.002-0.579
					c-3.95,0-7.152,3.465-7.152,6.938H1049.544z"/>
			</g>
		</g>
		<g>
			<g>
				
					<path fill="#3AAA35" stroke="#3AAA35" stroke-width="0.8522" stroke-linecap="round" stroke-linejoin="round" stroke-miterlimit="10" d="
					M1049.505,92.496c0,3.468-3.199,9.097-7.144,9.097c0,0-1.867-0.021-4.85-0.919c-2.563-0.773-4.971-0.753-5.081-0.753h-0.185
					c-0.108,0-2.517-0.02-5.08,0.753c-2.982,0.898-4.849,0.919-4.849,0.919c-3.945,0-7.144-5.629-7.144-9.097H1049.505z"/>
			</g>
		</g>
	</g>
	<g>
		<g>
			
				<path fill="none" stroke="#575756" stroke-width="4.6247" stroke-linecap="round" stroke-linejoin="round" stroke-miterlimit="10" d="
				M934.701,109.565c0,0,23.632,0.518,43.413-12.42"/>
		</g>
		<g>
			
				<path fill="none" stroke="#575756" stroke-width="4.6247" stroke-linecap="round" stroke-linejoin="round" stroke-miterlimit="10" d="
				M934.376,91.984c0,0,19.04,0.994,35.785-8.127"/>
		</g>
		<g>
			
				<path fill="none" stroke="#575756" stroke-width="4.6247" stroke-linecap="round" stroke-linejoin="round" stroke-miterlimit="10" d="
				M937.692,74.974c0,0,13.975,1.291,26.556-4.928"/>
		</g>
		<g>
			
				<path fill="none" stroke="#575756" stroke-width="4.6247" stroke-linecap="round" stroke-linejoin="round" stroke-miterlimit="10" d="
				M945.408,57.906c0,0,6.96,1.13,13.482-1.553"/>
		</g>
		<g>
			
				<path fill="none" stroke="#575756" stroke-width="4.6247" stroke-linecap="round" stroke-linejoin="round" stroke-miterlimit="10" d="
				M972.853,127.57c-12.741-8.944-21.686-29.952-21.686-54.441c0-11.04,1.818-21.373,4.983-30.211"/>
		</g>
		<g>
			
				<path fill="#90AFB0" stroke="#90AFB0" stroke-width="4.6247" stroke-linecap="round" stroke-linejoin="round" stroke-miterlimit="10" d="
				M936.208,125.446c0,0,12.368,25.863,38.536,25.099c20.968-15.679,14.566-43.623,14.566-43.623
				C965.581,124.278,936.208,125.446,936.208,125.446z"/>
		</g>
		<g>
			
				<circle fill="#FFFFFF" stroke="#FFFFFF" stroke-width="4.6247" stroke-linecap="round" stroke-linejoin="round" stroke-miterlimit="10" cx="959.67" cy="135.901" r="5.106"/>
		</g>
		<g>
			<circle cx="959.67" cy="135.901" r="2.27"/>
		</g>
		<g>
			
				<path fill="#90AFB0" stroke="#90AFB0" stroke-width="4.6247" stroke-linecap="round" stroke-linejoin="round" stroke-miterlimit="10" d="
				M955.068,45.325c6.101-23.717-13.359-28.658-13.359-28.658S932.981,34.747,955.068,45.325z"/>
		</g>
		<g>
			
				<path fill="#6D999E" stroke="#6D999E" stroke-width="4.6247" stroke-linecap="round" stroke-linejoin="round" stroke-miterlimit="10" d="
				M955.31,45.367c2.422-24.369,22.394-22.322,22.394-22.322S979.687,43.024,955.31,45.367z"/>
		</g>
		<g>
			
				<path fill="#6D999E" stroke="#6D999E" stroke-width="4.6247" stroke-linecap="round" stroke-linejoin="round" stroke-miterlimit="10" d="
				M964.777,119.514c7.927-2.747,16.549-6.753,24.533-12.593c0,0,6.262,27.333-13.884,43.102L964.777,119.514z"/>
		</g>
	</g>
	<g>
		<circle fill="#FBC715" stroke="#FBC715" stroke-width="0.9468" stroke-miterlimit="10" cx="1185.008" cy="71.585" r="24.035"/>
		<path fill="#FAB515" stroke="#FAB515" stroke-width="0.9468" stroke-miterlimit="10" d="M1185.008,95.62
			c-13.274,0-24.035-10.761-24.035-24.035c0-13.274,10.761-24.035,24.035-24.035V95.62z"/>
		<circle fill="#F8AD17" stroke="#F8AD17" stroke-width="1.0362" stroke-miterlimit="10" cx="1190.33" cy="50.487" r="0.716"/>
		<circle fill="#F8AD17" stroke="#F8AD17" stroke-width="1.0362" stroke-miterlimit="10" cx="1193.717" cy="51.92" r="0.716"/>
		<circle fill="#F8AD17" stroke="#F8AD17" stroke-width="1.0362" stroke-miterlimit="10" cx="1190.33" cy="54.33" r="0.716"/>
		<circle fill="#F8AD17" stroke="#F8AD17" stroke-width="1.0362" stroke-miterlimit="10" cx="1186.798" cy="52.636" r="0.716"/>
		<circle fill="#F8AD17" stroke="#F8AD17" stroke-width="1.0362" stroke-miterlimit="10" cx="1195.15" cy="55.982" r="0.716"/>
		<circle fill="#F8AD17" stroke="#F8AD17" stroke-width="1.0362" stroke-miterlimit="10" cx="1196.31" cy="60.061" r="0.716"/>
		<circle fill="#F8AD17" stroke="#F8AD17" stroke-width="1.0362" stroke-miterlimit="10" cx="1187.883" cy="58.628" r="0.716"/>
		<circle fill="#F8AD17" stroke="#F8AD17" stroke-width="1.0362" stroke-miterlimit="10" cx="1190.331" cy="62.798" r="0.716"/>
		<circle fill="#F8AD17" stroke="#F8AD17" stroke-width="1.0362" stroke-miterlimit="10" cx="1191.763" cy="58.628" r="0.716"/>
		<circle fill="#F8AD17" stroke="#F8AD17" stroke-width="1.0362" stroke-miterlimit="10" cx="1198.051" cy="54.069" r="0.716"/>
	</g>
	<g>
		<g>
			<g>
				<path fill="#E3E683" d="M1290.285,92.496c-4.675-2.722-8.002-9.716-8.002-17.912c0-8.163,3.3-15.132,7.946-17.878h-17h-16.999
					c4.645,2.746,7.946,9.715,7.946,17.878c0,8.196-3.328,15.19-8.003,17.912H1290.285z"/>
			</g>
		</g>
		<g>
			<g>
				<path fill="#3CA036" d="M1273.562,47.737"/>
			</g>
		</g>
		<g>
			<g>
				<path fill="#CCDC84" d="M1273.229,92.226h17.056c-4.675-2.722-8.002-9.445-8.002-17.642c0-8.163,3.3-14.941,7.946-17.687h-17
					v34.734V92.226z"/>
			</g>
		</g>
		<g>
			<g>
				<path fill="#432918" stroke="#432918" stroke-miterlimit="10" d="M1273.962,47.579c0-4.644,3.589-8.421,8.31-8.421v2.433
					c-3.571,0-6.885,2.495-6.885,5.988H1273.962z"/>
			</g>
		</g>
		<g>
			<g>
				<g>
					<g>
						<path fill="#006633" d="M1271.324,47.53c1.491-2.592,1.645-4.499,1.645-4.499c1.177-10.268-12.513-12.709-12.513-12.709
							s-3.68,13.411,6.097,16.761C1266.554,47.083,1268.342,47.763,1271.324,47.53z"/>
					</g>
				</g>
			</g>
			<g>
				<g>
					<g>
						<path fill="#007D40" d="M1260.456,30.322c0,0-3.68,13.411,6.097,16.761c0,0,1.788,0.68,4.77,0.447"/>
					</g>
				</g>
			</g>
		</g>
		<g>
			<g>
				<g>
					<ellipse fill="#432918" stroke="#432918" stroke-miterlimit="10" cx="1270.151" cy="74.495" rx="0.874" ry="1.992"/>
				</g>
			</g>
			<g>
				<g>
					<ellipse fill="#432918" stroke="#432918" stroke-miterlimit="10" cx="1276.651" cy="74.495" rx="0.874" ry="1.992"/>
				</g>
			</g>
		</g>
		<g>
			<g>
				
					<path fill="#3AAA35" stroke="#3AAA35" stroke-width="0.8532" stroke-linecap="round" stroke-linejoin="round" stroke-miterlimit="10" d="
					M1290.544,56.706c0-3.473-3.202-6.938-7.152-6.938c-1.071,0-2.088,0.207-3.001,0.579l-1.854,0.667
					c-3.122,1.016-5.086,1.016-5.086,1.016h-0.026c0,0-1.965,0-5.087-1.016l-1.854-0.667c-0.913-0.372-1.929-0.579-3.002-0.579
					c-3.95,0-7.152,3.465-7.152,6.938H1290.544z"/>
			</g>
		</g>
		<g>
			<g>
				
					<path fill="#3AAA35" stroke="#3AAA35" stroke-width="0.8522" stroke-linecap="round" stroke-linejoin="round" stroke-miterlimit="10" d="
					M1290.505,92.496c0,3.468-3.199,9.097-7.144,9.097c0,0-1.867-0.021-4.85-0.919c-2.563-0.773-4.971-0.753-5.081-0.753h-0.185
					c-0.108,0-2.517-0.02-5.08,0.753c-2.982,0.898-4.849,0.919-4.849,0.919c-3.945,0-7.144-5.629-7.144-9.097H1290.505z"/>
			</g>
		</g>
	</g>
	<g>
		<g>
			
				<path fill="none" stroke="#575756" stroke-width="4.6247" stroke-linecap="round" stroke-linejoin="round" stroke-miterlimit="10" d="
				M1175.701,109.565c0,0,23.632,0.518,43.413-12.42"/>
		</g>
		<g>
			
				<path fill="none" stroke="#575756" stroke-width="4.6247" stroke-linecap="round" stroke-linejoin="round" stroke-miterlimit="10" d="
				M1175.376,91.984c0,0,19.04,0.994,35.785-8.127"/>
		</g>
		<g>
			
				<path fill="none" stroke="#575756" stroke-width="4.6247" stroke-linecap="round" stroke-linejoin="round" stroke-miterlimit="10" d="
				M1178.692,74.974c0,0,13.975,1.291,26.557-4.928"/>
		</g>
		<g>
			
				<path fill="none" stroke="#575756" stroke-width="4.6247" stroke-linecap="round" stroke-linejoin="round" stroke-miterlimit="10" d="
				M1186.408,57.906c0,0,6.96,1.13,13.482-1.553"/>
		</g>
		<g>
			
				<path fill="none" stroke="#575756" stroke-width="4.6247" stroke-linecap="round" stroke-linejoin="round" stroke-miterlimit="10" d="
				M1213.853,127.57c-12.741-8.944-21.686-29.952-21.686-54.441c0-11.04,1.818-21.373,4.983-30.211"/>
		</g>
		<g>
			
				<path fill="#90AFB0" stroke="#90AFB0" stroke-width="4.6247" stroke-linecap="round" stroke-linejoin="round" stroke-miterlimit="10" d="
				M1177.208,125.446c0,0,12.368,25.863,38.536,25.099c20.968-15.679,14.566-43.623,14.566-43.623
				C1206.581,124.278,1177.208,125.446,1177.208,125.446z"/>
		</g>
		<g>
			
				<circle fill="#FFFFFF" stroke="#FFFFFF" stroke-width="4.6247" stroke-linecap="round" stroke-linejoin="round" stroke-miterlimit="10" cx="1200.67" cy="135.901" r="5.106"/>
		</g>
		<g>
			<circle cx="1200.67" cy="135.901" r="2.27"/>
		</g>
		<g>
			
				<path fill="#90AFB0" stroke="#90AFB0" stroke-width="4.6247" stroke-linecap="round" stroke-linejoin="round" stroke-miterlimit="10" d="
				M1196.068,45.325c6.101-23.717-13.359-28.658-13.359-28.658S1173.981,34.747,1196.068,45.325z"/>
		</g>
		<g>
			
				<path fill="#6D999E" stroke="#6D999E" stroke-width="4.6247" stroke-linecap="round" stroke-linejoin="round" stroke-miterlimit="10" d="
				M1196.31,45.367c2.422-24.369,22.394-22.322,22.394-22.322S1220.687,43.024,1196.31,45.367z"/>
		</g>
		<g>
			
				<path fill="#6D999E" stroke="#6D999E" stroke-width="4.6247" stroke-linecap="round" stroke-linejoin="round" stroke-miterlimit="10" d="
				M1205.777,119.514c7.927-2.747,16.549-6.753,24.533-12.593c0,0,6.262,27.333-13.884,43.102L1205.777,119.514z"/>
		</g>
	</g>
	<g>
		<circle fill="#FBC715" stroke="#FBC715" stroke-width="0.9468" stroke-miterlimit="10" cx="1436.008" cy="71.585" r="24.035"/>
		<path fill="#FAB515" stroke="#FAB515" stroke-width="0.9468" stroke-miterlimit="10" d="M1436.008,95.62
			c-13.274,0-24.035-10.761-24.035-24.035c0-13.274,10.761-24.035,24.035-24.035V95.62z"/>
		<circle fill="#F8AD17" stroke="#F8AD17" stroke-width="1.0362" stroke-miterlimit="10" cx="1441.33" cy="50.487" r="0.716"/>
		<circle fill="#F8AD17" stroke="#F8AD17" stroke-width="1.0362" stroke-miterlimit="10" cx="1444.717" cy="51.92" r="0.716"/>
		<circle fill="#F8AD17" stroke="#F8AD17" stroke-width="1.0362" stroke-miterlimit="10" cx="1441.33" cy="54.33" r="0.716"/>
		<circle fill="#F8AD17" stroke="#F8AD17" stroke-width="1.0362" stroke-miterlimit="10" cx="1437.798" cy="52.636" r="0.716"/>
		<circle fill="#F8AD17" stroke="#F8AD17" stroke-width="1.0362" stroke-miterlimit="10" cx="1446.15" cy="55.982" r="0.716"/>
		<circle fill="#F8AD17" stroke="#F8AD17" stroke-width="1.0362" stroke-miterlimit="10" cx="1447.31" cy="60.061" r="0.716"/>
		<circle fill="#F8AD17" stroke="#F8AD17" stroke-width="1.0362" stroke-miterlimit="10" cx="1438.883" cy="58.628" r="0.716"/>
		<circle fill="#F8AD17" stroke="#F8AD17" stroke-width="1.0362" stroke-miterlimit="10" cx="1441.331" cy="62.798" r="0.716"/>
		<circle fill="#F8AD17" stroke="#F8AD17" stroke-width="1.0362" stroke-miterlimit="10" cx="1442.763" cy="58.628" r="0.716"/>
		<circle fill="#F8AD17" stroke="#F8AD17" stroke-width="1.0362" stroke-miterlimit="10" cx="1449.051" cy="54.069" r="0.716"/>
	</g>
	<g>
		<g>
			<g>
				<path fill="#E3E683" d="M1541.285,92.496c-4.675-2.722-8.002-9.716-8.002-17.912c0-8.163,3.3-15.132,7.946-17.878h-17h-16.999
					c4.645,2.746,7.946,9.715,7.946,17.878c0,8.196-3.328,15.19-8.003,17.912H1541.285z"/>
			</g>
		</g>
		<g>
			<g>
				<path fill="#3CA036" d="M1524.562,47.737"/>
			</g>
		</g>
		<g>
			<g>
				<path fill="#CCDC84" d="M1524.229,92.226h17.056c-4.675-2.722-8.002-9.445-8.002-17.642c0-8.163,3.3-14.941,7.946-17.687h-17
					v34.734V92.226z"/>
			</g>
		</g>
		<g>
			<g>
				<path fill="#432918" stroke="#432918" stroke-miterlimit="10" d="M1524.962,47.579c0-4.644,3.589-8.421,8.31-8.421v2.433
					c-3.571,0-6.885,2.495-6.885,5.988H1524.962z"/>
			</g>
		</g>
		<g>
			<g>
				<g>
					<g>
						<path fill="#006633" d="M1522.324,47.53c1.491-2.592,1.645-4.499,1.645-4.499c1.177-10.268-12.513-12.709-12.513-12.709
							s-3.68,13.411,6.097,16.761C1517.554,47.083,1519.342,47.763,1522.324,47.53z"/>
					</g>
				</g>
			</g>
			<g>
				<g>
					<g>
						<path fill="#007D40" d="M1511.456,30.322c0,0-3.68,13.411,6.097,16.761c0,0,1.788,0.68,4.77,0.447"/>
					</g>
				</g>
			</g>
		</g>
		<g>
			<g>
				<g>
					<ellipse fill="#432918" stroke="#432918" stroke-miterlimit="10" cx="1521.151" cy="74.495" rx="0.874" ry="1.992"/>
				</g>
			</g>
			<g>
				<g>
					<ellipse fill="#432918" stroke="#432918" stroke-miterlimit="10" cx="1527.651" cy="74.495" rx="0.874" ry="1.992"/>
				</g>
			</g>
		</g>
		<g>
			<g>
				
					<path fill="#3AAA35" stroke="#3AAA35" stroke-width="0.8532" stroke-linecap="round" stroke-linejoin="round" stroke-miterlimit="10" d="
					M1541.544,56.706c0-3.473-3.202-6.938-7.152-6.938c-1.071,0-2.088,0.207-3.001,0.579l-1.854,0.667
					c-3.122,1.016-5.086,1.016-5.086,1.016h-0.026c0,0-1.965,0-5.087-1.016l-1.854-0.667c-0.913-0.372-1.929-0.579-3.002-0.579
					c-3.95,0-7.152,3.465-7.152,6.938H1541.544z"/>
			</g>
		</g>
		<g>
			<g>
				
					<path fill="#3AAA35" stroke="#3AAA35" stroke-width="0.8522" stroke-linecap="round" stroke-linejoin="round" stroke-miterlimit="10" d="
					M1541.505,92.496c0,3.468-3.199,9.097-7.144,9.097c0,0-1.867-0.021-4.85-0.919c-2.563-0.773-4.971-0.753-5.081-0.753h-0.185
					c-0.108,0-2.517-0.02-5.08,0.753c-2.982,0.898-4.849,0.919-4.849,0.919c-3.945,0-7.144-5.629-7.144-9.097H1541.505z"/>
			</g>
		</g>
	</g>
	<g>
		<g>
			
				<path fill="none" stroke="#575756" stroke-width="4.6247" stroke-linecap="round" stroke-linejoin="round" stroke-miterlimit="10" d="
				M1426.701,109.565c0,0,23.632,0.518,43.413-12.42"/>
		</g>
		<g>
			
				<path fill="none" stroke="#575756" stroke-width="4.6247" stroke-linecap="round" stroke-linejoin="round" stroke-miterlimit="10" d="
				M1426.376,91.984c0,0,19.04,0.994,35.785-8.127"/>
		</g>
		<g>
			
				<path fill="none" stroke="#575756" stroke-width="4.6247" stroke-linecap="round" stroke-linejoin="round" stroke-miterlimit="10" d="
				M1429.692,74.974c0,0,13.975,1.291,26.557-4.928"/>
		</g>
		<g>
			
				<path fill="none" stroke="#575756" stroke-width="4.6247" stroke-linecap="round" stroke-linejoin="round" stroke-miterlimit="10" d="
				M1437.408,57.906c0,0,6.96,1.13,13.482-1.553"/>
		</g>
		<g>
			
				<path fill="none" stroke="#575756" stroke-width="4.6247" stroke-linecap="round" stroke-linejoin="round" stroke-miterlimit="10" d="
				M1464.853,127.57c-12.741-8.944-21.686-29.952-21.686-54.441c0-11.04,1.818-21.373,4.983-30.211"/>
		</g>
		<g>
			
				<path fill="#90AFB0" stroke="#90AFB0" stroke-width="4.6247" stroke-linecap="round" stroke-linejoin="round" stroke-miterlimit="10" d="
				M1428.208,125.446c0,0,12.368,25.863,38.536,25.099c20.968-15.679,14.566-43.623,14.566-43.623
				C1457.581,124.278,1428.208,125.446,1428.208,125.446z"/>
		</g>
		<g>
			
				<circle fill="#FFFFFF" stroke="#FFFFFF" stroke-width="4.6247" stroke-linecap="round" stroke-linejoin="round" stroke-miterlimit="10" cx="1451.67" cy="135.901" r="5.106"/>
		</g>
		<g>
			<circle cx="1451.67" cy="135.901" r="2.27"/>
		</g>
		<g>
			
				<path fill="#90AFB0" stroke="#90AFB0" stroke-width="4.6247" stroke-linecap="round" stroke-linejoin="round" stroke-miterlimit="10" d="
				M1447.068,45.325c6.101-23.717-13.359-28.658-13.359-28.658S1424.981,34.747,1447.068,45.325z"/>
		</g>
		<g>
			
				<path fill="#6D999E" stroke="#6D999E" stroke-width="4.6247" stroke-linecap="round" stroke-linejoin="round" stroke-miterlimit="10" d="
				M1447.31,45.367c2.422-24.369,22.394-22.322,22.394-22.322S1471.687,43.024,1447.31,45.367z"/>
		</g>
		<g>
			
				<path fill="#6D999E" stroke="#6D999E" stroke-width="4.6247" stroke-linecap="round" stroke-linejoin="round" stroke-miterlimit="10" d="
				M1456.777,119.514c7.927-2.747,16.549-6.753,24.533-12.593c0,0,6.262,27.333-13.884,43.102L1456.777,119.514z"/>
		</g>
	</g>
	<g>
		<circle fill="#FBC715" stroke="#FBC715" stroke-width="0.9468" stroke-miterlimit="10" cx="1957.008" cy="71.585" r="24.035"/>
		<path fill="#FAB515" stroke="#FAB515" stroke-width="0.9468" stroke-miterlimit="10" d="M1957.008,95.62
			c-13.274,0-24.035-10.761-24.035-24.035c0-13.274,10.761-24.035,24.035-24.035V95.62z"/>
		<circle fill="#F8AD17" stroke="#F8AD17" stroke-width="1.0362" stroke-miterlimit="10" cx="1962.33" cy="50.487" r="0.716"/>
		<circle fill="#F8AD17" stroke="#F8AD17" stroke-width="1.0362" stroke-miterlimit="10" cx="1965.717" cy="51.92" r="0.716"/>
		<circle fill="#F8AD17" stroke="#F8AD17" stroke-width="1.0362" stroke-miterlimit="10" cx="1962.33" cy="54.33" r="0.716"/>
		<circle fill="#F8AD17" stroke="#F8AD17" stroke-width="1.0362" stroke-miterlimit="10" cx="1958.798" cy="52.636" r="0.716"/>
		<circle fill="#F8AD17" stroke="#F8AD17" stroke-width="1.0362" stroke-miterlimit="10" cx="1967.15" cy="55.982" r="0.716"/>
		<circle fill="#F8AD17" stroke="#F8AD17" stroke-width="1.0362" stroke-miterlimit="10" cx="1968.31" cy="60.061" r="0.716"/>
		<circle fill="#F8AD17" stroke="#F8AD17" stroke-width="1.0362" stroke-miterlimit="10" cx="1959.883" cy="58.628" r="0.716"/>
		<circle fill="#F8AD17" stroke="#F8AD17" stroke-width="1.0362" stroke-miterlimit="10" cx="1962.331" cy="62.798" r="0.716"/>
		<circle fill="#F8AD17" stroke="#F8AD17" stroke-width="1.0362" stroke-miterlimit="10" cx="1963.763" cy="58.628" r="0.716"/>
		<circle fill="#F8AD17" stroke="#F8AD17" stroke-width="1.0362" stroke-miterlimit="10" cx="1970.051" cy="54.069" r="0.716"/>
	</g>
	<g>
		<g>
			<g>
				<path fill="#E3E683" d="M2062.285,92.496c-4.675-2.722-8.002-9.716-8.002-17.912c0-8.163,3.3-15.132,7.946-17.878h-16.999
					h-16.999c4.645,2.746,7.946,9.715,7.946,17.878c0,8.196-3.328,15.19-8.003,17.912H2062.285z"/>
			</g>
		</g>
		<g>
			<g>
				<path fill="#3CA036" d="M2045.562,47.737"/>
			</g>
		</g>
		<g>
			<g>
				<path fill="#CCDC84" d="M2045.229,92.226h17.056c-4.675-2.722-8.002-9.445-8.002-17.642c0-8.163,3.3-14.941,7.946-17.687
					h-16.999v34.734V92.226z"/>
			</g>
		</g>
		<g>
			<g>
				<path fill="#432918" stroke="#432918" stroke-miterlimit="10" d="M2045.962,47.579c0-4.644,3.589-8.421,8.309-8.421v2.433
					c-3.571,0-6.884,2.495-6.884,5.988H2045.962z"/>
			</g>
		</g>
		<g>
			<g>
				<g>
					<g>
						<path fill="#006633" d="M2043.324,47.53c1.491-2.592,1.645-4.499,1.645-4.499c1.177-10.268-12.513-12.709-12.513-12.709
							s-3.68,13.411,6.097,16.761C2038.554,47.083,2040.342,47.763,2043.324,47.53z"/>
					</g>
				</g>
			</g>
			<g>
				<g>
					<g>
						<path fill="#007D40" d="M2032.456,30.322c0,0-3.68,13.411,6.097,16.761c0,0,1.788,0.68,4.77,0.447"/>
					</g>
				</g>
			</g>
		</g>
		<g>
			<g>
				<g>
					<ellipse fill="#432918" stroke="#432918" stroke-miterlimit="10" cx="2042.151" cy="74.495" rx="0.874" ry="1.992"/>
				</g>
			</g>
			<g>
				<g>
					<ellipse fill="#432918" stroke="#432918" stroke-miterlimit="10" cx="2048.651" cy="74.495" rx="0.874" ry="1.992"/>
				</g>
			</g>
		</g>
		<g>
			<g>
				
					<path fill="#3AAA35" stroke="#3AAA35" stroke-width="0.8532" stroke-linecap="round" stroke-linejoin="round" stroke-miterlimit="10" d="
					M2062.544,56.706c0-3.473-3.202-6.938-7.152-6.938c-1.071,0-2.088,0.207-3.001,0.579l-1.854,0.667
					c-3.122,1.016-5.086,1.016-5.086,1.016h-0.026c0,0-1.965,0-5.087-1.016l-1.854-0.667c-0.913-0.372-1.929-0.579-3.002-0.579
					c-3.95,0-7.152,3.465-7.152,6.938H2062.544z"/>
			</g>
		</g>
		<g>
			<g>
				
					<path fill="#3AAA35" stroke="#3AAA35" stroke-width="0.8522" stroke-linecap="round" stroke-linejoin="round" stroke-miterlimit="10" d="
					M2062.505,92.496c0,3.468-3.199,9.097-7.144,9.097c0,0-1.867-0.021-4.85-0.919c-2.563-0.773-4.971-0.753-5.081-0.753h-0.185
					c-0.108,0-2.517-0.02-5.08,0.753c-2.982,0.898-4.849,0.919-4.849,0.919c-3.945,0-7.144-5.629-7.144-9.097H2062.505z"/>
			</g>
		</g>
	</g>
	<g>
		<g>
			
				<path fill="none" stroke="#575756" stroke-width="4.6247" stroke-linecap="round" stroke-linejoin="round" stroke-miterlimit="10" d="
				M1947.701,109.565c0,0,23.632,0.518,43.413-12.42"/>
		</g>
		<g>
			
				<path fill="none" stroke="#575756" stroke-width="4.6247" stroke-linecap="round" stroke-linejoin="round" stroke-miterlimit="10" d="
				M1947.376,91.984c0,0,19.04,0.994,35.785-8.127"/>
		</g>
		<g>
			
				<path fill="none" stroke="#575756" stroke-width="4.6247" stroke-linecap="round" stroke-linejoin="round" stroke-miterlimit="10" d="
				M1950.692,74.974c0,0,13.975,1.291,26.557-4.928"/>
		</g>
		<g>
			
				<path fill="none" stroke="#575756" stroke-width="4.6247" stroke-linecap="round" stroke-linejoin="round" stroke-miterlimit="10" d="
				M1958.408,57.906c0,0,6.96,1.13,13.482-1.553"/>
		</g>
		<g>
			
				<path fill="none" stroke="#575756" stroke-width="4.6247" stroke-linecap="round" stroke-linejoin="round" stroke-miterlimit="10" d="
				M1985.853,127.57c-12.741-8.944-21.686-29.952-21.686-54.441c0-11.04,1.818-21.373,4.983-30.211"/>
		</g>
		<g>
			
				<path fill="#90AFB0" stroke="#90AFB0" stroke-width="4.6247" stroke-linecap="round" stroke-linejoin="round" stroke-miterlimit="10" d="
				M1949.208,125.446c0,0,12.368,25.863,38.536,25.099c20.968-15.679,14.566-43.623,14.566-43.623
				C1978.581,124.278,1949.208,125.446,1949.208,125.446z"/>
		</g>
		<g>
			
				<circle fill="#FFFFFF" stroke="#FFFFFF" stroke-width="4.6247" stroke-linecap="round" stroke-linejoin="round" stroke-miterlimit="10" cx="1972.67" cy="135.901" r="5.106"/>
		</g>
		<g>
			<circle cx="1972.67" cy="135.901" r="2.27"/>
		</g>
		<g>
			
				<path fill="#90AFB0" stroke="#90AFB0" stroke-width="4.6247" stroke-linecap="round" stroke-linejoin="round" stroke-miterlimit="10" d="
				M1968.068,45.325c6.101-23.717-13.359-28.658-13.359-28.658S1945.981,34.747,1968.068,45.325z"/>
		</g>
		<g>
			
				<path fill="#6D999E" stroke="#6D999E" stroke-width="4.6247" stroke-linecap="round" stroke-linejoin="round" stroke-miterlimit="10" d="
				M1968.31,45.367c2.422-24.369,22.394-22.322,22.394-22.322S1992.687,43.024,1968.31,45.367z"/>
		</g>
		<g>
			
				<path fill="#6D999E" stroke="#6D999E" stroke-width="4.6247" stroke-linecap="round" stroke-linejoin="round" stroke-miterlimit="10" d="
				M1977.777,119.514c7.927-2.747,16.549-6.753,24.533-12.593c0,0,6.262,27.333-13.884,43.102L1977.777,119.514z"/>
		</g>
	</g>
	<g id="Layer_3">
		<g>
			
				<polygon fill="#FFD600" stroke="#FFD600" stroke-width="1.9262" stroke-linecap="round" stroke-linejoin="round" stroke-miterlimit="10" points="
				1269.411,84.347 1292.07,112.036 1284.104,110.416 1280.465,115.803 1273.761,113.775 1269.765,119.277 1263.417,117.133 
				1259.659,122.558 1253.074,120.491 1248.499,126.182 1250.571,90.463 1227.913,62.774 1234.958,64.692 1239.073,59.151 
				1245.301,61.334 1249.178,55.87 1255.645,57.976 1259.879,52.396 1265.988,54.618 1271.483,48.628 			"/>
			
				<polygon fill="#FDC100" stroke="#FDC100" stroke-width="1.1319" stroke-linecap="round" stroke-linejoin="round" stroke-miterlimit="10" points="
				1269.765,119.277 1263.417,117.133 1259.659,122.558 1253.074,120.491 1248.499,126.182 1250.571,90.463 1227.913,62.774 
				1234.958,64.692 1239.073,59.151 1245.301,61.334 1249.178,55.87 			"/>
		</g>
		<g>
			
				<polygon fill="#FFD600" stroke="#FFD600" stroke-width="1.9262" stroke-linecap="round" stroke-linejoin="round" stroke-miterlimit="10" points="
				1520.411,84.347 1543.07,112.036 1535.104,110.416 1531.465,115.803 1524.761,113.775 1520.765,119.277 1514.417,117.133 
				1510.659,122.558 1504.074,120.491 1499.499,126.182 1501.571,90.463 1478.913,62.774 1485.958,64.692 1490.073,59.151 
				1496.301,61.334 1500.178,55.87 1506.645,57.976 1510.879,52.396 1516.988,54.618 1522.483,48.628 			"/>
			
				<polygon fill="#FDC100" stroke="#FDC100" stroke-width="1.1319" stroke-linecap="round" stroke-linejoin="round" stroke-miterlimit="10" points="
				1520.765,119.277 1514.417,117.133 1510.659,122.558 1504.074,120.491 1499.499,126.182 1501.571,90.463 1478.913,62.774 
				1485.958,64.692 1490.073,59.151 1496.301,61.334 1500.178,55.87 			"/>
		</g>
		<g>
			
				<polygon fill="#FFD600" stroke="#FFD600" stroke-width="1.9262" stroke-linecap="round" stroke-linejoin="round" stroke-miterlimit="10" points="
				2041.411,84.347 2064.07,112.036 2056.104,110.416 2052.465,115.803 2045.761,113.775 2041.765,119.277 2035.417,117.133 
				2031.659,122.558 2025.074,120.491 2020.499,126.182 2022.571,90.463 1999.913,62.774 2006.958,64.692 2011.073,59.151 
				2017.301,61.334 2021.178,55.87 2027.645,57.976 2031.879,52.396 2037.988,54.618 2043.483,48.628 			"/>
			
				<polygon fill="#FDC100" stroke="#FDC100" stroke-width="1.1319" stroke-linecap="round" stroke-linejoin="round" stroke-miterlimit="10" points="
				2041.765,119.277 2035.417,117.133 2031.659,122.558 2025.074,120.491 2020.499,126.182 2022.571,90.463 1999.913,62.774 
				2006.958,64.692 2011.073,59.151 2017.301,61.334 2021.178,55.87 			"/>
		</g>
	</g>
	<g id="Layer_6">
		<g>
			<g>
				<path fill="#164C7C" stroke="#164C7C" stroke-width="3.4067" stroke-miterlimit="10" d="M2000.14,67.473
					c3.18,6.487,1.395,13.884-3.988,16.523c-5.383,2.639-12.325-0.48-15.505-6.966c-3.18-6.486-4.379-19.973,1.004-22.612
					C1987.033,51.779,1996.96,60.987,2000.14,67.473z"/>
			</g>
			<g>
				<path fill="#12416A" stroke="#12416A" stroke-width="3.4067" stroke-miterlimit="10" d="M1981.65,54.418
					c-5.383,2.639-4.184,16.125-1.004,22.612c3.18,6.487,10.122,9.605,15.505,6.966l-14.499-29.517"/>
			</g>
			<g>
				<path fill="#103B61" stroke="#103B61" stroke-width="3.0417" stroke-miterlimit="10" d="M1995.71,64.346
					c2.418,4.933,1.061,10.558-3.033,12.565c-4.093,2.007-9.372-0.365-11.79-5.297c-2.418-4.932-3.33-15.188,0.763-17.194
					C1985.744,52.412,1993.292,59.413,1995.71,64.346z"/>
			</g>
			<g>
				<path fill="#0A3051" stroke="#0A3051" stroke-width="3.0417" stroke-miterlimit="10" d="M1981.65,54.418
					c-4.093,2.007-3.181,12.262-0.763,17.194c2.418,4.933,7.697,7.304,11.79,5.297l-11.025-22.43"/>
			</g>
			<g>
				<path fill="#164C7C" stroke="#164C7C" stroke-width="3.4067" stroke-miterlimit="10" d="M1990.342,60.653
					c1.509,3.078,0.662,6.588-1.893,7.841c-2.554,1.252-5.848-0.228-7.357-3.306c-1.509-3.078-2.078-9.478,0.476-10.73
					C1984.123,53.206,1988.833,57.575,1990.342,60.653z"/>
			</g>
			<g>
				<path fill="#13426C" stroke="#13426C" stroke-width="3.4067" stroke-miterlimit="10" d="M1981.569,54.458
					c-2.554,1.252-1.985,7.652-0.476,10.73c1.509,3.078,4.803,4.558,7.357,3.306L1981.569,54.458z"/>
			</g>
			<g>
				<path fill="#388FCE" stroke="#388FCE" stroke-width="3.4067" stroke-miterlimit="10" d="M1987.558,58.65
					c1.016,2.072,0.445,4.435-1.274,5.278c-1.719,0.843-3.937-0.153-4.952-2.225c-1.016-2.072-1.399-6.379,0.321-7.222
					S1986.542,56.578,1987.558,58.65z"/>
			</g>
			<g>
				<path fill="#3481B9" stroke="#3481B9" stroke-width="3.4067" stroke-miterlimit="10" d="M1981.653,54.48
					c-1.719,0.843-1.336,5.151-0.321,7.222c1.016,2.072,3.233,3.068,4.952,2.225L1981.653,54.48z"/>
			</g>
		</g>
	</g>
</g>
<g id="Layer_1">
	<g>
		<g>
			
				<polygon fill="#C89D64" stroke="#C89D64" stroke-width="1.3504" stroke-linecap="round" stroke-linejoin="round" stroke-miterlimit="10" points="
				388.347,258.616 384.703,184.824 384.72,71.585 306.198,71.585 227.676,71.585 227.692,184.824 224.048,258.616 			"/>
		</g>
		<g>
			
				<polyline fill="#BE915C" stroke="#BE915C" stroke-width="1.3504" stroke-linecap="round" stroke-linejoin="round" stroke-miterlimit="10" points="
				388.347,258.616 384.703,184.824 384.72,94.316 306.198,94.316 227.676,94.316 			"/>
		</g>
		<g>
			
				<rect x="221.685" y="65.958" fill="#C89D64" stroke="#C89D64" stroke-width="1.3697" stroke-linecap="round" stroke-linejoin="round" stroke-miterlimit="10" width="169.025" height="28.358"/>
		</g>
	</g>
	<g>
		<g>
			
				<polygon fill="#C89D64" stroke="#C89D64" stroke-width="1.3504" stroke-linecap="round" stroke-linejoin="round" stroke-miterlimit="10" points="
				167.347,258.616 163.703,184.824 163.72,71.585 85.198,71.585 6.676,71.585 6.692,184.824 3.048,258.616 			"/>
		</g>
		<g>
			
				<polyline fill="#BE915C" stroke="#BE915C" stroke-width="1.3504" stroke-linecap="round" stroke-linejoin="round" stroke-miterlimit="10" points="
				167.347,258.616 163.703,184.824 163.72,94.316 85.198,94.316 6.676,94.316 			"/>
		</g>
		<g>
			
				<rect x="0.685" y="65.958" fill="#C89D64" stroke="#C89D64" stroke-width="1.3697" stroke-linecap="round" stroke-linejoin="round" stroke-miterlimit="10" width="169.025" height="28.358"/>
		</g>
	</g>
	<g>
		<g>
			
				<path fill="#FFD600" stroke="#FFD600" stroke-width="0.566" stroke-linecap="round" stroke-linejoin="round" stroke-miterlimit="10" d="
				M634.922,55.898c-12.138,4.62-26.37,2.49-36.746-6.736c-12.379-11.005-16.703-30.608-5.985-47.879l4.063,0.56
				c-2.629,14.725,3.808,27.471,12.611,35.296c6.505,5.784,14.523,8.779,22.592,9.072L634.922,55.898z"/>
		</g>
		<g>
			
				<path fill="#7B6A58" stroke="#7B6A58" stroke-width="0.566" stroke-linecap="round" stroke-linejoin="round" stroke-miterlimit="10" d="
				M634.922,55.901c-12.136,4.615-26.36,2.483-36.736-6.739c-13.026-11.582-16.437-31.231-5.984-47.879l1.836,0.252
				c-5.384,13.36-0.805,32.039,9.703,41.382c8.403,7.47,19.331,10.287,29.629,8.636L634.922,55.901z"/>
		</g>
	</g>
	<g>
		<g>
			<path fill="#FDC100" stroke="#FDC100" stroke-linecap="round" stroke-linejoin="round" stroke-miterlimit="10" d="
				M588.79,116.995"/>
		</g>
		<g>
			<g>
				
					<polygon fill="#634E42" stroke="#634E42" stroke-width="0.9498" stroke-linecap="round" stroke-linejoin="round" stroke-miterlimit="10" points="
					648.635,60.451 648.02,49.391 654.377,50.555 654.823,58.589 				"/>
			</g>
			<g>
				
					<polygon fill="#7B6A58" stroke="#7B6A58" stroke-width="0.9498" stroke-linecap="round" stroke-linejoin="round" stroke-miterlimit="10" points="
					648.635,60.451 654.823,58.589 654.377,50.555 				"/>
			</g>
		</g>
		<g>
			<path fill="#FFD600" stroke="#FFD600" stroke-linecap="round" stroke-linejoin="round" stroke-miterlimit="10" d="
				M593.714,157.796c-12.048-23.527-7.749-48.386,3.085-66.154c10.834-17.77,28.987-28.341,48.222-30.2l-0.715-12.65
				c-26.834-7.685-56.541,3.068-71.775,28.052c-15.235,24.986-12.425,60.343,14.605,83.995L593.714,157.796z"/>
		</g>
		<g>
			<path fill="#FDC100" stroke="#FDC100" stroke-linecap="round" stroke-linejoin="round" stroke-miterlimit="10" d="
				M587.136,160.84c-26.257-22.735-30.641-57.698-14.605-83.995c15.233-24.984,44.941-35.738,71.775-28.052l0.306,5.451
				c-23.18-1.875-46.54,9.079-59.473,30.289c-12.933,21.211-11.026,55.138,4.97,74.931L587.136,160.84z"/>
		</g>
		<g>
			<circle fill="#634E42" cx="570.656" cy="92.584" r="0.694"/>
		</g>
		<g>
			<circle fill="#634E42" cx="568.386" cy="95.346" r="0.694"/>
		</g>
		<g>
			<circle fill="#634E42" cx="565.816" cy="97.544" r="0.694"/>
		</g>
		<g>
			<circle fill="#634E42" cx="567.683" cy="98.937" r="0.694"/>
		</g>
		<g>
			<circle fill="#634E42" cx="565.111" cy="101.899" r="0.694"/>
		</g>
		<g>
			<circle fill="#634E42" cx="566.978" cy="103.497" r="0.694"/>
		</g>
		<g>
			<circle fill="#634E42" cx="568.397" cy="90.697" r="0.694"/>
		</g>
		<g>
			<circle fill="#634E42" cx="570.885" cy="87.37" r="0.694"/>
		</g>
	</g>
	<g>
		<g>
			
				<polygon fill="#C89D64" stroke="#C89D64" stroke-width="1.3504" stroke-linecap="round" stroke-linejoin="round" stroke-miterlimit="10" points="
				622.347,259.616 618.703,185.824 618.72,72.585 540.198,72.585 461.676,72.585 461.692,185.824 458.048,259.616 			"/>
		</g>
		<g>
			
				<polyline fill="#BE915C" stroke="#BE915C" stroke-width="1.3504" stroke-linecap="round" stroke-linejoin="round" stroke-miterlimit="10" points="
				622.347,259.616 618.703,185.824 618.72,95.316 540.198,95.316 461.676,95.316 			"/>
		</g>
		<g>
			
				<rect x="455.685" y="66.958" fill="#C89D64" stroke="#C89D64" stroke-width="1.3697" stroke-linecap="round" stroke-linejoin="round" stroke-miterlimit="10" width="169.025" height="28.358"/>
		</g>
	</g>
	<g>
		<g>
			
				<path fill="#FFD600" stroke="#FFD600" stroke-width="0.566" stroke-linecap="round" stroke-linejoin="round" stroke-miterlimit="10" d="
				M865.922,55.898c-12.138,4.62-26.37,2.49-36.746-6.736c-12.379-11.005-16.703-30.608-5.985-47.879l4.063,0.56
				c-2.629,14.725,3.808,27.471,12.611,35.296c6.505,5.784,14.523,8.779,22.592,9.072L865.922,55.898z"/>
		</g>
		<g>
			
				<path fill="#7B6A58" stroke="#7B6A58" stroke-width="0.566" stroke-linecap="round" stroke-linejoin="round" stroke-miterlimit="10" d="
				M865.922,55.901c-12.136,4.615-26.36,2.483-36.736-6.739c-13.026-11.582-16.437-31.231-5.984-47.879l1.836,0.252
				c-5.384,13.36-0.805,32.039,9.703,41.382c8.403,7.47,19.331,10.287,29.629,8.636L865.922,55.901z"/>
		</g>
	</g>
	<g>
		<g>
			<path fill="#FDC100" stroke="#FDC100" stroke-linecap="round" stroke-linejoin="round" stroke-miterlimit="10" d="
				M819.79,116.995"/>
		</g>
		<g>
			<g>
				
					<polygon fill="#634E42" stroke="#634E42" stroke-width="0.9498" stroke-linecap="round" stroke-linejoin="round" stroke-miterlimit="10" points="
					879.635,60.451 879.02,49.391 885.377,50.555 885.823,58.589 				"/>
			</g>
			<g>
				
					<polygon fill="#7B6A58" stroke="#7B6A58" stroke-width="0.9498" stroke-linecap="round" stroke-linejoin="round" stroke-miterlimit="10" points="
					879.635,60.451 885.823,58.589 885.377,50.555 				"/>
			</g>
		</g>
		<g>
			<path fill="#FFD600" stroke="#FFD600" stroke-linecap="round" stroke-linejoin="round" stroke-miterlimit="10" d="
				M824.714,157.796c-12.048-23.527-7.749-48.386,3.085-66.154c10.834-17.77,28.987-28.341,48.222-30.2l-0.715-12.65
				c-26.834-7.685-56.541,3.068-71.775,28.052c-15.235,24.986-12.425,60.343,14.605,83.995L824.714,157.796z"/>
		</g>
		<g>
			<path fill="#FDC100" stroke="#FDC100" stroke-linecap="round" stroke-linejoin="round" stroke-miterlimit="10" d="
				M818.136,160.84c-26.257-22.735-30.641-57.698-14.605-83.995c15.233-24.984,44.941-35.738,71.775-28.052l0.306,5.451
				c-23.18-1.875-46.54,9.079-59.473,30.289c-12.933,21.211-11.026,55.138,4.97,74.931L818.136,160.84z"/>
		</g>
		<g>
			<circle fill="#634E42" cx="801.656" cy="92.584" r="0.694"/>
		</g>
		<g>
			<circle fill="#634E42" cx="799.386" cy="95.346" r="0.694"/>
		</g>
		<g>
			<circle fill="#634E42" cx="796.816" cy="97.544" r="0.694"/>
		</g>
		<g>
			<circle fill="#634E42" cx="798.683" cy="98.937" r="0.694"/>
		</g>
		<g>
			<circle fill="#634E42" cx="796.111" cy="101.899" r="0.694"/>
		</g>
		<g>
			<circle fill="#634E42" cx="797.978" cy="103.497" r="0.694"/>
		</g>
		<g>
			<circle fill="#634E42" cx="799.397" cy="90.697" r="0.694"/>
		</g>
		<g>
			<circle fill="#634E42" cx="801.885" cy="87.37" r="0.694"/>
		</g>
	</g>
	<g>
		<g>
			
				<polygon fill="#C89D64" stroke="#C89D64" stroke-width="1.3504" stroke-linecap="round" stroke-linejoin="round" stroke-miterlimit="10" points="
				853.347,259.616 849.703,185.824 849.72,72.585 771.198,72.585 692.676,72.585 692.692,185.824 689.048,259.616 			"/>
		</g>
		<g>
			
				<polyline fill="#BE915C" stroke="#BE915C" stroke-width="1.3504" stroke-linecap="round" stroke-linejoin="round" stroke-miterlimit="10" points="
				853.347,259.616 849.703,185.824 849.72,95.316 771.198,95.316 692.676,95.316 			"/>
		</g>
		<g>
			
				<rect x="686.685" y="66.958" fill="#C89D64" stroke="#C89D64" stroke-width="1.3697" stroke-linecap="round" stroke-linejoin="round" stroke-miterlimit="10" width="169.025" height="28.358"/>
		</g>
	</g>
	<g>
		<g>
			
				<path fill="#FFD600" stroke="#FFD600" stroke-width="0.566" stroke-linecap="round" stroke-linejoin="round" stroke-miterlimit="10" d="
				M1096.922,55.898c-12.138,4.62-26.37,2.49-36.746-6.736c-12.379-11.005-16.703-30.608-5.985-47.879l4.063,0.56
				c-2.629,14.725,3.808,27.471,12.611,35.296c6.506,5.784,14.523,8.779,22.592,9.072L1096.922,55.898z"/>
		</g>
		<g>
			
				<path fill="#7B6A58" stroke="#7B6A58" stroke-width="0.566" stroke-linecap="round" stroke-linejoin="round" stroke-miterlimit="10" d="
				M1096.922,55.901c-12.136,4.615-26.36,2.483-36.736-6.739c-13.026-11.582-16.437-31.231-5.984-47.879l1.836,0.252
				c-5.384,13.36-0.805,32.039,9.703,41.382c8.403,7.47,19.331,10.287,29.629,8.636L1096.922,55.901z"/>
		</g>
	</g>
	<g>
		<g>
			<path fill="#FDC100" stroke="#FDC100" stroke-linecap="round" stroke-linejoin="round" stroke-miterlimit="10" d="
				M1050.79,116.995"/>
		</g>
		<g>
			<g>
				
					<polygon fill="#634E42" stroke="#634E42" stroke-width="0.9498" stroke-linecap="round" stroke-linejoin="round" stroke-miterlimit="10" points="
					1110.635,60.451 1110.02,49.391 1116.377,50.555 1116.823,58.589 				"/>
			</g>
			<g>
				
					<polygon fill="#7B6A58" stroke="#7B6A58" stroke-width="0.9498" stroke-linecap="round" stroke-linejoin="round" stroke-miterlimit="10" points="
					1110.635,60.451 1116.823,58.589 1116.377,50.555 				"/>
			</g>
		</g>
		<g>
			<path fill="#FFD600" stroke="#FFD600" stroke-linecap="round" stroke-linejoin="round" stroke-miterlimit="10" d="
				M1055.714,157.796c-12.048-23.527-7.749-48.386,3.085-66.154c10.834-17.77,28.987-28.341,48.222-30.2l-0.715-12.65
				c-26.834-7.685-56.541,3.068-71.775,28.052c-15.235,24.986-12.425,60.343,14.605,83.995L1055.714,157.796z"/>
		</g>
		<g>
			<path fill="#FDC100" stroke="#FDC100" stroke-linecap="round" stroke-linejoin="round" stroke-miterlimit="10" d="
				M1049.136,160.84c-26.257-22.735-30.641-57.698-14.605-83.995c15.233-24.984,44.941-35.738,71.775-28.052l0.306,5.451
				c-23.18-1.875-46.54,9.079-59.473,30.289c-12.933,21.211-11.026,55.138,4.97,74.931L1049.136,160.84z"/>
		</g>
		<g>
			<circle fill="#634E42" cx="1032.656" cy="92.584" r="0.694"/>
		</g>
		<g>
			<circle fill="#634E42" cx="1030.386" cy="95.346" r="0.694"/>
		</g>
		<g>
			<circle fill="#634E42" cx="1027.816" cy="97.544" r="0.694"/>
		</g>
		<g>
			<circle fill="#634E42" cx="1029.683" cy="98.937" r="0.694"/>
		</g>
		<g>
			<circle fill="#634E42" cx="1027.111" cy="101.899" r="0.694"/>
		</g>
		<g>
			<circle fill="#634E42" cx="1028.978" cy="103.497" r="0.694"/>
		</g>
		<g>
			<circle fill="#634E42" cx="1030.397" cy="90.697" r="0.694"/>
		</g>
		<g>
			<circle fill="#634E42" cx="1032.885" cy="87.37" r="0.694"/>
		</g>
	</g>
	<g>
		<g>
			
				<polygon fill="#C89D64" stroke="#C89D64" stroke-width="1.3504" stroke-linecap="round" stroke-linejoin="round" stroke-miterlimit="10" points="
				1084.347,259.616 1080.703,185.824 1080.719,72.585 1002.198,72.585 923.676,72.585 923.692,185.824 920.048,259.616 			"/>
		</g>
		<g>
			
				<polyline fill="#BE915C" stroke="#BE915C" stroke-width="1.3504" stroke-linecap="round" stroke-linejoin="round" stroke-miterlimit="10" points="
				1084.347,259.616 1080.703,185.824 1080.719,95.316 1002.198,95.316 923.676,95.316 			"/>
		</g>
		<g>
			
				<rect x="917.685" y="66.958" fill="#C89D64" stroke="#C89D64" stroke-width="1.3697" stroke-linecap="round" stroke-linejoin="round" stroke-miterlimit="10" width="169.025" height="28.358"/>
		</g>
	</g>
	<g>
		<g>
			
				<path fill="#FFD600" stroke="#FFD600" stroke-width="0.566" stroke-linecap="round" stroke-linejoin="round" stroke-miterlimit="10" d="
				M1337.922,55.898c-12.138,4.62-26.37,2.49-36.746-6.736c-12.379-11.005-16.703-30.608-5.985-47.879l4.063,0.56
				c-2.629,14.725,3.808,27.471,12.611,35.296c6.506,5.784,14.523,8.779,22.592,9.072L1337.922,55.898z"/>
		</g>
		<g>
			
				<path fill="#7B6A58" stroke="#7B6A58" stroke-width="0.566" stroke-linecap="round" stroke-linejoin="round" stroke-miterlimit="10" d="
				M1337.922,55.901c-12.136,4.615-26.36,2.483-36.736-6.739c-13.026-11.582-16.437-31.231-5.984-47.879l1.836,0.252
				c-5.384,13.36-0.805,32.039,9.703,41.382c8.403,7.47,19.331,10.287,29.629,8.636L1337.922,55.901z"/>
		</g>
	</g>
	<g>
		<g>
			<path fill="#FDC100" stroke="#FDC100" stroke-linecap="round" stroke-linejoin="round" stroke-miterlimit="10" d="
				M1291.79,116.995"/>
		</g>
		<g>
			<g>
				
					<polygon fill="#634E42" stroke="#634E42" stroke-width="0.9498" stroke-linecap="round" stroke-linejoin="round" stroke-miterlimit="10" points="
					1351.635,60.451 1351.02,49.391 1357.377,50.555 1357.823,58.589 				"/>
			</g>
			<g>
				
					<polygon fill="#7B6A58" stroke="#7B6A58" stroke-width="0.9498" stroke-linecap="round" stroke-linejoin="round" stroke-miterlimit="10" points="
					1351.635,60.451 1357.823,58.589 1357.377,50.555 				"/>
			</g>
		</g>
		<g>
			<path fill="#FFD600" stroke="#FFD600" stroke-linecap="round" stroke-linejoin="round" stroke-miterlimit="10" d="
				M1296.714,157.796c-12.048-23.527-7.749-48.386,3.085-66.154c10.834-17.77,28.987-28.341,48.222-30.2l-0.715-12.65
				c-26.834-7.685-56.541,3.068-71.775,28.052c-15.235,24.986-12.425,60.343,14.605,83.995L1296.714,157.796z"/>
		</g>
		<g>
			<path fill="#FDC100" stroke="#FDC100" stroke-linecap="round" stroke-linejoin="round" stroke-miterlimit="10" d="
				M1290.136,160.84c-26.257-22.735-30.641-57.698-14.605-83.995c15.233-24.984,44.941-35.738,71.775-28.052l0.306,5.451
				c-23.18-1.875-46.54,9.079-59.473,30.289c-12.933,21.211-11.026,55.138,4.97,74.931L1290.136,160.84z"/>
		</g>
		<g>
			<circle fill="#634E42" cx="1273.656" cy="92.584" r="0.694"/>
		</g>
		<g>
			<circle fill="#634E42" cx="1271.386" cy="95.346" r="0.694"/>
		</g>
		<g>
			<circle fill="#634E42" cx="1268.816" cy="97.544" r="0.694"/>
		</g>
		<g>
			<circle fill="#634E42" cx="1270.683" cy="98.937" r="0.694"/>
		</g>
		<g>
			<circle fill="#634E42" cx="1268.111" cy="101.899" r="0.694"/>
		</g>
		<g>
			<circle fill="#634E42" cx="1269.978" cy="103.497" r="0.694"/>
		</g>
		<g>
			<circle fill="#634E42" cx="1271.397" cy="90.697" r="0.694"/>
		</g>
		<g>
			<circle fill="#634E42" cx="1273.885" cy="87.37" r="0.694"/>
		</g>
	</g>
	<g>
		<g>
			
				<polygon fill="#C89D64" stroke="#C89D64" stroke-width="1.3504" stroke-linecap="round" stroke-linejoin="round" stroke-miterlimit="10" points="
				1325.347,259.616 1321.703,185.824 1321.719,72.585 1243.198,72.585 1164.676,72.585 1164.692,185.824 1161.048,259.616 			"/>
		</g>
		<g>
			
				<polyline fill="#BE915C" stroke="#BE915C" stroke-width="1.3504" stroke-linecap="round" stroke-linejoin="round" stroke-miterlimit="10" points="
				1325.347,259.616 1321.703,185.824 1321.719,95.316 1243.198,95.316 1164.676,95.316 			"/>
		</g>
		<g>
			
				<rect x="1158.685" y="66.958" fill="#C89D64" stroke="#C89D64" stroke-width="1.3697" stroke-linecap="round" stroke-linejoin="round" stroke-miterlimit="10" width="169.025" height="28.358"/>
		</g>
	</g>
	<g>
		<g>
			
				<path fill="#FFD600" stroke="#FFD600" stroke-width="0.566" stroke-linecap="round" stroke-linejoin="round" stroke-miterlimit="10" d="
				M1588.922,55.898c-12.138,4.62-26.37,2.49-36.746-6.736c-12.379-11.005-16.703-30.608-5.985-47.879l4.063,0.56
				c-2.629,14.725,3.808,27.471,12.611,35.296c6.506,5.784,14.523,8.779,22.592,9.072L1588.922,55.898z"/>
		</g>
		<g>
			
				<path fill="#7B6A58" stroke="#7B6A58" stroke-width="0.566" stroke-linecap="round" stroke-linejoin="round" stroke-miterlimit="10" d="
				M1588.922,55.901c-12.136,4.615-26.36,2.483-36.736-6.739c-13.026-11.582-16.437-31.231-5.984-47.879l1.836,0.252
				c-5.384,13.36-0.805,32.039,9.703,41.382c8.403,7.47,19.331,10.287,29.629,8.636L1588.922,55.901z"/>
		</g>
	</g>
	<g>
		<g>
			<path fill="#FDC100" stroke="#FDC100" stroke-linecap="round" stroke-linejoin="round" stroke-miterlimit="10" d="
				M1542.79,116.995"/>
		</g>
		<g>
			<g>
				
					<polygon fill="#634E42" stroke="#634E42" stroke-width="0.9498" stroke-linecap="round" stroke-linejoin="round" stroke-miterlimit="10" points="
					1602.635,60.451 1602.02,49.391 1608.377,50.555 1608.823,58.589 				"/>
			</g>
			<g>
				
					<polygon fill="#7B6A58" stroke="#7B6A58" stroke-width="0.9498" stroke-linecap="round" stroke-linejoin="round" stroke-miterlimit="10" points="
					1602.635,60.451 1608.823,58.589 1608.377,50.555 				"/>
			</g>
		</g>
		<g>
			<path fill="#FFD600" stroke="#FFD600" stroke-linecap="round" stroke-linejoin="round" stroke-miterlimit="10" d="
				M1547.714,157.796c-12.048-23.527-7.749-48.386,3.085-66.154c10.834-17.77,28.987-28.341,48.222-30.2l-0.715-12.65
				c-26.834-7.685-56.541,3.068-71.775,28.052c-15.235,24.986-12.425,60.343,14.605,83.995L1547.714,157.796z"/>
		</g>
		<g>
			<path fill="#FDC100" stroke="#FDC100" stroke-linecap="round" stroke-linejoin="round" stroke-miterlimit="10" d="
				M1541.136,160.84c-26.257-22.735-30.641-57.698-14.605-83.995c15.233-24.984,44.941-35.738,71.775-28.052l0.306,5.451
				c-23.18-1.875-46.54,9.079-59.473,30.289c-12.933,21.211-11.026,55.138,4.97,74.931L1541.136,160.84z"/>
		</g>
		<g>
			<circle fill="#634E42" cx="1524.656" cy="92.584" r="0.694"/>
		</g>
		<g>
			<circle fill="#634E42" cx="1522.386" cy="95.346" r="0.694"/>
		</g>
		<g>
			<circle fill="#634E42" cx="1519.816" cy="97.544" r="0.694"/>
		</g>
		<g>
			<circle fill="#634E42" cx="1521.683" cy="98.937" r="0.694"/>
		</g>
		<g>
			<circle fill="#634E42" cx="1519.111" cy="101.899" r="0.694"/>
		</g>
		<g>
			<circle fill="#634E42" cx="1520.978" cy="103.497" r="0.694"/>
		</g>
		<g>
			<circle fill="#634E42" cx="1522.397" cy="90.697" r="0.694"/>
		</g>
		<g>
			<circle fill="#634E42" cx="1524.885" cy="87.37" r="0.694"/>
		</g>
	</g>
	<g>
		<g>
			
				<polygon fill="#C89D64" stroke="#C89D64" stroke-width="1.3504" stroke-linecap="round" stroke-linejoin="round" stroke-miterlimit="10" points="
				1576.347,259.616 1572.703,185.824 1572.719,72.585 1494.198,72.585 1415.676,72.585 1415.692,185.824 1412.048,259.616 			"/>
		</g>
		<g>
			
				<polyline fill="#BE915C" stroke="#BE915C" stroke-width="1.3504" stroke-linecap="round" stroke-linejoin="round" stroke-miterlimit="10" points="
				1576.347,259.616 1572.703,185.824 1572.719,95.316 1494.198,95.316 1415.676,95.316 			"/>
		</g>
		<g>
			
				<rect x="1409.685" y="66.958" fill="#C89D64" stroke="#C89D64" stroke-width="1.3697" stroke-linecap="round" stroke-linejoin="round" stroke-miterlimit="10" width="169.025" height="28.358"/>
		</g>
	</g>
	<g>
		<g>
			
				<path fill="#FFD600" stroke="#FFD600" stroke-width="0.566" stroke-linecap="round" stroke-linejoin="round" stroke-miterlimit="10" d="
				M2109.922,55.898c-12.138,4.62-26.369,2.49-36.746-6.736c-12.379-11.005-16.703-30.608-5.985-47.879l4.063,0.56
				c-2.629,14.725,3.808,27.471,12.611,35.296c6.505,5.784,14.523,8.779,22.592,9.072L2109.922,55.898z"/>
		</g>
		<g>
			
				<path fill="#7B6A58" stroke="#7B6A58" stroke-width="0.566" stroke-linecap="round" stroke-linejoin="round" stroke-miterlimit="10" d="
				M2109.922,55.901c-12.136,4.615-26.36,2.483-36.736-6.739c-13.026-11.582-16.437-31.231-5.985-47.879l1.836,0.252
				c-5.384,13.36-0.805,32.039,9.703,41.382c8.403,7.47,19.331,10.287,29.629,8.636L2109.922,55.901z"/>
		</g>
	</g>
	<g>
		<g>
			<path fill="#FDC100" stroke="#FDC100" stroke-linecap="round" stroke-linejoin="round" stroke-miterlimit="10" d="
				M2063.79,116.995"/>
		</g>
		<g>
			<g>
				
					<polygon fill="#634E42" stroke="#634E42" stroke-width="0.9498" stroke-linecap="round" stroke-linejoin="round" stroke-miterlimit="10" points="
					2123.635,60.451 2123.02,49.391 2129.377,50.555 2129.823,58.589 				"/>
			</g>
			<g>
				
					<polygon fill="#7B6A58" stroke="#7B6A58" stroke-width="0.9498" stroke-linecap="round" stroke-linejoin="round" stroke-miterlimit="10" points="
					2123.635,60.451 2129.823,58.589 2129.377,50.555 				"/>
			</g>
		</g>
		<g>
			<path fill="#FFD600" stroke="#FFD600" stroke-linecap="round" stroke-linejoin="round" stroke-miterlimit="10" d="
				M2068.714,157.796c-12.048-23.527-7.749-48.386,3.085-66.154c10.834-17.77,28.987-28.341,48.222-30.2l-0.715-12.65
				c-26.834-7.685-56.541,3.068-71.775,28.052c-15.235,24.986-12.425,60.343,14.605,83.995L2068.714,157.796z"/>
		</g>
		<g>
			<path fill="#FDC100" stroke="#FDC100" stroke-linecap="round" stroke-linejoin="round" stroke-miterlimit="10" d="
				M2062.136,160.84c-26.257-22.735-30.641-57.698-14.605-83.995c15.233-24.984,44.941-35.738,71.775-28.052l0.306,5.451
				c-23.18-1.875-46.54,9.079-59.473,30.289c-12.933,21.211-11.027,55.138,4.97,74.931L2062.136,160.84z"/>
		</g>
		<g>
			<circle fill="#634E42" cx="2045.656" cy="92.584" r="0.694"/>
		</g>
		<g>
			<circle fill="#634E42" cx="2043.386" cy="95.346" r="0.694"/>
		</g>
		<g>
			<circle fill="#634E42" cx="2040.816" cy="97.544" r="0.694"/>
		</g>
		<g>
			<circle fill="#634E42" cx="2042.683" cy="98.937" r="0.694"/>
		</g>
		<g>
			<circle fill="#634E42" cx="2040.111" cy="101.899" r="0.694"/>
		</g>
		<g>
			<circle fill="#634E42" cx="2041.978" cy="103.497" r="0.694"/>
		</g>
		<g>
			<circle fill="#634E42" cx="2043.397" cy="90.697" r="0.694"/>
		</g>
		<g>
			<circle fill="#634E42" cx="2045.885" cy="87.37" r="0.694"/>
		</g>
	</g>
	<g>
		<g>
			
				<polygon fill="#C89D64" stroke="#C89D64" stroke-width="1.3504" stroke-linecap="round" stroke-linejoin="round" stroke-miterlimit="10" points="
				2097.346,259.616 2093.703,185.824 2093.719,72.585 2015.198,72.585 1936.676,72.585 1936.692,185.824 1933.048,259.616 			"/>
		</g>
		<g>
			
				<polyline fill="#BE915C" stroke="#BE915C" stroke-width="1.3504" stroke-linecap="round" stroke-linejoin="round" stroke-miterlimit="10" points="
				2097.346,259.616 2093.703,185.824 2093.719,95.316 2015.198,95.316 1936.676,95.316 			"/>
		</g>
		<g>
			
				<rect x="1930.685" y="66.958" fill="#C89D64" stroke="#C89D64" stroke-width="1.3697" stroke-linecap="round" stroke-linejoin="round" stroke-miterlimit="10" width="169.025" height="28.358"/>
		</g>
	</g>
	<g>
		<g>
			
				<polygon fill="#C89D64" stroke="#C89D64" stroke-width="1.3504" stroke-linecap="round" stroke-linejoin="round" stroke-miterlimit="10" points="
				1847.347,259.616 1843.703,185.824 1843.719,72.585 1765.198,72.585 1686.676,72.585 1686.692,185.824 1683.048,259.616 			"/>
		</g>
		<g>
			
				<polyline fill="#BE915C" stroke="#BE915C" stroke-width="1.3504" stroke-linecap="round" stroke-linejoin="round" stroke-miterlimit="10" points="
				1847.347,259.616 1843.703,185.824 1843.719,95.316 1765.198,95.316 1686.676,95.316 			"/>
		</g>
		<g>
			
				<rect x="1680.685" y="66.958" fill="#C89D64" stroke="#C89D64" stroke-width="1.3697" stroke-linecap="round" stroke-linejoin="round" stroke-miterlimit="10" width="169.025" height="28.358"/>
		</g>
	</g>
</g>
</svg>
