<?xml version="1.0" encoding="utf-8"?>
<!-- Generator: Adobe Illustrator 15.0.2, SVG Export Plug-In . SVG Version: 6.00 Build 0)  -->
<!DOCTYPE svg PUBLIC "-//W3C//DTD SVG 1.1//EN" "http://www.w3.org/Graphics/SVG/1.1/DTD/svg11.dtd">
<svg version="1.1" id="Lager_1" xmlns="http://www.w3.org/2000/svg" xmlns:xlink="http://www.w3.org/1999/xlink" x="0px" y="0px"
	 width="200.961px" height="259.292px" viewBox="0 0 200.961 259.292" enable-background="new 0 0 200.961 259.292"
	 xml:space="preserve">
<g>
	<path fill="#FCC10D" stroke="#FCC10D" stroke-linecap="round" stroke-linejoin="round" stroke-miterlimit="10" d="M134.455,115.995
		"/>
</g>
<g>
	<g>
		
			<path fill="none" stroke="#595958" stroke-width="4.6247" stroke-linecap="round" stroke-linejoin="round" stroke-miterlimit="10" d="
			M21.356,73.974c0,0,13.975,1.291,26.557-4.928"/>
	</g>
	<g>
		<circle fill="#FFE094" cx="96.233" cy="70.343" r="54.186"/>
		<circle fill="#E9501E" cx="96.233" cy="70.344" r="48.259"/>
		<path fill="#DD3A16" d="M85.975,117.5c-26.043-5.666-42.563-31.371-36.898-57.414c5.666-26.045,31.371-42.564,57.415-36.899
			L85.975,117.5z"/>
		<g>
			<g>
				
					<path fill="#FFD703" stroke="#FFD703" stroke-width="0.2392" stroke-linecap="round" stroke-linejoin="round" stroke-miterlimit="10" d="
					M55.573,66.157l12.141,18.901l12.842-8.248l-12.14-18.901L55.573,66.157z M60.697,66.243c0.407-0.262,0.949-0.144,1.209,0.264
					c0.261,0.406,0.143,0.946-0.263,1.208c-0.406,0.261-0.946,0.143-1.209-0.263C60.174,67.045,60.291,66.504,60.697,66.243z
					 M70.494,80.218c-0.951,0.612-2.216,0.336-2.827-0.615c-0.611-0.95-0.334-2.216,0.615-2.828c0.951-0.61,2.216-0.334,2.827,0.617
					C71.72,78.342,71.445,79.609,70.494,80.218z M66.819,73.243c-0.636,0.408-1.481,0.224-1.89-0.411
					c-0.409-0.637-0.225-1.482,0.412-1.892c0.635-0.408,1.481-0.224,1.89,0.412C67.64,71.99,67.455,72.836,66.819,73.243z
					 M73.623,74.384c-0.406,0.262-0.947,0.144-1.208-0.262c-0.261-0.407-0.144-0.948,0.263-1.209
					c0.407-0.261,0.948-0.142,1.208,0.264C74.147,73.583,74.03,74.124,73.623,74.384z M69.074,67.301
					c-0.854,0.548-1.987,0.301-2.535-0.551c-0.547-0.853-0.3-1.986,0.552-2.534c0.853-0.548,1.987-0.3,2.535,0.552
					C70.173,65.619,69.926,66.754,69.074,67.301z"/>
				<g>
					
						<path fill="#FCC108" stroke="#FCC108" stroke-width="0.2392" stroke-linecap="round" stroke-linejoin="round" stroke-miterlimit="10" d="
						M66.348,70.751l0.516,0.22C66.708,70.863,66.532,70.789,66.348,70.751z"/>
					
						<path fill="#FCC108" stroke="#FCC108" stroke-width="0.2392" stroke-linecap="round" stroke-linejoin="round" stroke-miterlimit="10" d="
						M73.954,73.994c-0.066,0.155-0.178,0.293-0.331,0.39c-0.406,0.262-0.947,0.144-1.207-0.262
						c-0.164-0.252-0.179-0.557-0.071-0.813l-5.481-2.336c0.143,0.099,0.267,0.227,0.367,0.381c0.409,0.637,0.224,1.483-0.411,1.891
						c-0.637,0.408-1.481,0.224-1.89-0.411c-0.409-0.636-0.225-1.482,0.412-1.892c0.311-0.199,0.671-0.256,1.007-0.189
						l-10.776-4.594l12.141,18.901l12.842-8.249L73.954,73.994z M70.494,80.218c-0.951,0.612-2.216,0.336-2.827-0.615
						c-0.611-0.95-0.334-2.216,0.615-2.828c0.951-0.61,2.216-0.334,2.827,0.617C71.72,78.342,71.445,79.609,70.494,80.218z"/>
				</g>
			</g>
			<g>
				
					<path fill="#FFD703" stroke="#FFD703" stroke-width="0.2392" stroke-linecap="round" stroke-linejoin="round" stroke-miterlimit="10" d="
					M71.62,91.127l12.141,18.9l12.843-8.249L84.463,82.877L71.62,91.127z M76.744,91.212c0.406-0.261,0.948-0.143,1.208,0.263
					c0.262,0.407,0.144,0.948-0.263,1.209c-0.406,0.262-0.947,0.144-1.208-0.263C76.221,92.016,76.338,91.473,76.744,91.212z
					 M86.541,105.188c-0.951,0.612-2.217,0.335-2.828-0.616c-0.61-0.95-0.334-2.216,0.616-2.828c0.95-0.61,2.218-0.334,2.827,0.616
					C87.768,103.312,87.492,104.578,86.541,105.188z M82.868,98.212c-0.639,0.409-1.483,0.224-1.891-0.412
					c-0.409-0.636-0.225-1.481,0.411-1.89c0.635-0.409,1.481-0.225,1.891,0.412C83.687,96.959,83.502,97.804,82.868,98.212z
					 M89.67,99.354c-0.406,0.261-0.947,0.144-1.208-0.262c-0.261-0.407-0.144-0.948,0.262-1.21c0.408-0.26,0.949-0.142,1.21,0.264
					C90.195,98.553,90.077,99.094,89.67,99.354z M85.12,92.271c-0.853,0.548-1.987,0.301-2.535-0.551
					c-0.547-0.854-0.299-1.987,0.553-2.535c0.852-0.547,1.987-0.299,2.533,0.551C86.219,90.589,85.973,91.723,85.12,92.271z"/>
				<g>
					
						<path fill="#FCC108" stroke="#FCC108" stroke-width="0.2392" stroke-linecap="round" stroke-linejoin="round" stroke-miterlimit="10" d="
						M82.396,95.721l0.516,0.22C82.757,95.833,82.58,95.758,82.396,95.721z"/>
					
						<path fill="#FCC108" stroke="#FCC108" stroke-width="0.2392" stroke-linecap="round" stroke-linejoin="round" stroke-miterlimit="10" d="
						M90,98.964c-0.065,0.154-0.177,0.291-0.331,0.39c-0.406,0.261-0.947,0.144-1.208-0.262c-0.162-0.253-0.179-0.558-0.07-0.814
						l-5.48-2.336c0.142,0.099,0.267,0.227,0.368,0.382c0.408,0.636,0.224,1.481-0.411,1.89c-0.637,0.409-1.482,0.224-1.891-0.412
						c-0.409-0.636-0.225-1.481,0.411-1.89c0.312-0.2,0.672-0.257,1.007-0.19L71.62,91.128l12.141,18.9l12.843-8.249L90,98.964z
						 M86.541,105.188c-0.951,0.612-2.217,0.335-2.828-0.616c-0.61-0.95-0.334-2.216,0.616-2.828c0.95-0.61,2.218-0.334,2.827,0.616
						C87.768,103.312,87.492,104.578,86.541,105.188z"/>
				</g>
			</g>
			<g>
				
					<path fill="#FFD703" stroke="#FFD703" stroke-width="0.2392" stroke-linecap="round" stroke-linejoin="round" stroke-miterlimit="10" d="
					M97.718,39.073l12.142,18.9l12.843-8.25l-12.142-18.901L97.718,39.073z M102.842,39.157c0.406-0.261,0.949-0.142,1.208,0.264
					c0.262,0.406,0.144,0.949-0.263,1.209c-0.404,0.262-0.947,0.144-1.208-0.263C102.318,39.961,102.437,39.418,102.842,39.157z
					 M112.639,53.133c-0.951,0.611-2.218,0.335-2.828-0.616c-0.609-0.95-0.334-2.215,0.616-2.827
					c0.95-0.609,2.216-0.334,2.827,0.616C113.865,51.256,113.589,52.522,112.639,53.133z M108.965,46.158
					c-0.636,0.409-1.481,0.225-1.891-0.412c-0.409-0.635-0.226-1.481,0.413-1.89c0.634-0.408,1.479-0.225,1.889,0.412
					C109.784,44.904,109.6,45.749,108.965,46.158z M115.767,47.299c-0.404,0.261-0.947,0.143-1.209-0.263
					c-0.261-0.406-0.143-0.948,0.265-1.209c0.405-0.262,0.947-0.143,1.209,0.264C116.292,46.499,116.175,47.04,115.767,47.299z
					 M111.219,40.217c-0.853,0.547-1.988,0.3-2.534-0.551c-0.549-0.854-0.302-1.988,0.552-2.535c0.852-0.548,1.986-0.3,2.533,0.551
					C112.317,38.534,112.071,39.668,111.219,40.217z"/>
				<g>
					
						<path fill="#FCC108" stroke="#FCC108" stroke-width="0.2392" stroke-linecap="round" stroke-linejoin="round" stroke-miterlimit="10" d="
						M108.492,43.666l0.517,0.22C108.854,43.778,108.678,43.704,108.492,43.666z"/>
					
						<path fill="#FCC108" stroke="#FCC108" stroke-width="0.2392" stroke-linecap="round" stroke-linejoin="round" stroke-miterlimit="10" d="
						M116.097,46.908c-0.063,0.156-0.176,0.294-0.33,0.391c-0.404,0.261-0.946,0.143-1.208-0.263
						c-0.161-0.252-0.177-0.557-0.069-0.814l-5.481-2.337c0.144,0.1,0.271,0.228,0.368,0.382c0.407,0.635,0.224,1.481-0.41,1.89
						c-0.637,0.409-1.482,0.225-1.892-0.412c-0.409-0.635-0.226-1.481,0.413-1.89c0.31-0.199,0.672-0.256,1.005-0.189l-10.774-4.594
						l12.141,18.901l12.843-8.25L116.097,46.908z M112.639,53.133c-0.951,0.611-2.218,0.335-2.828-0.616
						c-0.609-0.95-0.334-2.215,0.616-2.827c0.95-0.609,2.216-0.334,2.827,0.616C113.865,51.256,113.589,52.522,112.639,53.133z"/>
				</g>
			</g>
			<g>
				
					<path fill="#FFD703" stroke="#FFD703" stroke-width="0.2392" stroke-linecap="round" stroke-linejoin="round" stroke-miterlimit="10" d="
					M113.766,64.042l12.139,18.9l12.844-8.248l-12.142-18.9L113.766,64.042z M118.888,64.126c0.407-0.26,0.949-0.142,1.21,0.265
					c0.262,0.406,0.144,0.947-0.263,1.208c-0.406,0.262-0.948,0.144-1.21-0.263C118.366,64.93,118.484,64.389,118.888,64.126z
					 M128.687,78.103c-0.951,0.611-2.217,0.335-2.829-0.616c-0.608-0.95-0.333-2.215,0.617-2.828
					c0.951-0.61,2.215-0.334,2.827,0.616C129.913,76.227,129.637,77.492,128.687,78.103z M125.012,71.128
					c-0.636,0.408-1.483,0.224-1.891-0.412c-0.409-0.637-0.225-1.482,0.411-1.891c0.635-0.408,1.482-0.224,1.892,0.413
					C125.832,69.874,125.647,70.72,125.012,71.128z M131.814,72.268c-0.404,0.262-0.946,0.145-1.208-0.262
					c-0.259-0.406-0.143-0.948,0.264-1.209c0.406-0.26,0.947-0.142,1.209,0.264C132.338,71.467,132.221,72.008,131.814,72.268z
					 M127.265,65.185c-0.854,0.549-1.986,0.302-2.535-0.551c-0.546-0.853-0.299-1.986,0.554-2.534
					c0.853-0.546,1.986-0.299,2.533,0.551C128.364,63.503,128.117,64.639,127.265,65.185z"/>
				<g>
					
						<path fill="#FCC108" stroke="#FCC108" stroke-width="0.2392" stroke-linecap="round" stroke-linejoin="round" stroke-miterlimit="10" d="
						M124.542,68.637l0.516,0.22C124.901,68.747,124.723,68.672,124.542,68.637z"/>
					
						<path fill="#FCC108" stroke="#FCC108" stroke-width="0.2392" stroke-linecap="round" stroke-linejoin="round" stroke-miterlimit="10" d="
						M132.145,71.879c-0.065,0.155-0.178,0.292-0.331,0.389c-0.404,0.262-0.946,0.145-1.208-0.262
						c-0.162-0.252-0.178-0.557-0.068-0.813l-5.48-2.337c0.143,0.099,0.267,0.227,0.367,0.381c0.407,0.636,0.223,1.482-0.412,1.891
						c-0.636,0.408-1.483,0.224-1.891-0.412c-0.409-0.637-0.225-1.482,0.411-1.891c0.312-0.199,0.673-0.256,1.009-0.188
						l-10.775-4.595l12.14,18.901l12.843-8.25L132.145,71.879z M128.687,78.103c-0.951,0.611-2.217,0.335-2.829-0.616
						c-0.608-0.95-0.333-2.215,0.617-2.828c0.951-0.61,2.215-0.334,2.827,0.616C129.913,76.227,129.637,77.492,128.687,78.103z"/>
				</g>
			</g>
			<g>
				
					<path fill="#FFD703" stroke="#FFD703" stroke-width="0.2392" stroke-linecap="round" stroke-linejoin="round" stroke-miterlimit="10" d="
					M67.122,38.368l12.14,18.9l12.843-8.249l-12.14-18.901L67.122,38.368z M72.247,38.452c0.406-0.261,0.948-0.143,1.208,0.263
					c0.262,0.407,0.144,0.948-0.263,1.208c-0.407,0.262-0.947,0.144-1.208-0.263C71.723,39.256,71.841,38.714,72.247,38.452z
					 M82.042,52.428c-0.95,0.61-2.216,0.335-2.827-0.615c-0.61-0.951-0.334-2.216,0.616-2.828c0.951-0.61,2.217-0.334,2.827,0.616
					C83.27,50.552,82.994,51.817,82.042,52.428z M78.369,45.454c-0.636,0.407-1.481,0.223-1.89-0.412
					c-0.41-0.636-0.224-1.481,0.412-1.89c0.635-0.409,1.48-0.225,1.89,0.411C79.188,44.199,79.004,45.044,78.369,45.454z
					 M85.172,46.594c-0.406,0.261-0.948,0.144-1.208-0.262c-0.261-0.407-0.143-0.948,0.262-1.209
					c0.407-0.261,0.948-0.142,1.209,0.264C85.697,45.793,85.58,46.334,85.172,46.594z M80.623,39.511
					c-0.853,0.548-1.986,0.301-2.534-0.551c-0.548-0.854-0.301-1.987,0.553-2.535c0.851-0.547,1.985-0.3,2.532,0.551
					C81.722,37.83,81.474,38.963,80.623,39.511z"/>
				<g>
					
						<path fill="#FCC108" stroke="#FCC108" stroke-width="0.2392" stroke-linecap="round" stroke-linejoin="round" stroke-miterlimit="10" d="
						M77.898,42.962l0.516,0.22C78.258,43.073,78.082,42.998,77.898,42.962z"/>
					
						<path fill="#FCC108" stroke="#FCC108" stroke-width="0.2392" stroke-linecap="round" stroke-linejoin="round" stroke-miterlimit="10" d="
						M85.503,46.204c-0.065,0.155-0.177,0.293-0.331,0.39c-0.406,0.261-0.948,0.144-1.208-0.262
						c-0.162-0.253-0.179-0.557-0.07-0.814l-5.48-2.337c0.142,0.1,0.267,0.227,0.367,0.382c0.408,0.635,0.224,1.48-0.412,1.89
						c-0.636,0.407-1.481,0.223-1.89-0.412c-0.409-0.636-0.224-1.481,0.412-1.889c0.311-0.201,0.671-0.257,1.007-0.19l-10.776-4.594
						l12.14,18.9l12.842-8.249L85.503,46.204z M82.042,52.428c-0.95,0.61-2.216,0.335-2.827-0.615
						c-0.61-0.951-0.334-2.216,0.616-2.828c0.951-0.61,2.217-0.334,2.827,0.616C83.27,50.552,82.994,51.817,82.042,52.428z"/>
				</g>
			</g>
			<g>
				
					<path fill="#FFD703" stroke="#FFD703" stroke-width="0.2392" stroke-linecap="round" stroke-linejoin="round" stroke-miterlimit="10" d="
					M83.813,63.383l12.142,18.9l12.843-8.249l-12.14-18.901L83.813,63.383z M88.94,63.468c0.404-0.261,0.946-0.143,1.208,0.263
					c0.26,0.406,0.143,0.947-0.263,1.208c-0.407,0.262-0.949,0.144-1.208-0.263C88.415,64.271,88.533,63.729,88.94,63.468z
					 M98.734,77.444c-0.95,0.61-2.215,0.335-2.826-0.616c-0.611-0.951-0.335-2.216,0.615-2.828c0.953-0.61,2.217-0.333,2.828,0.616
					C99.961,75.567,99.686,76.833,98.734,77.444z M95.061,70.468c-0.637,0.409-1.481,0.225-1.89-0.412
					c-0.408-0.636-0.224-1.481,0.412-1.89c0.635-0.409,1.48-0.225,1.89,0.412C95.88,69.214,95.696,70.06,95.061,70.468z
					 M101.864,71.61c-0.406,0.261-0.946,0.145-1.207-0.261c-0.262-0.408-0.145-0.95,0.262-1.211c0.407-0.26,0.947-0.142,1.208,0.264
					C102.39,70.809,102.272,71.35,101.864,71.61z M97.314,64.526c-0.853,0.548-1.986,0.301-2.534-0.551
					c-0.548-0.854-0.298-1.986,0.553-2.535c0.851-0.547,1.986-0.3,2.533,0.551C98.414,62.845,98.167,63.979,97.314,64.526z"/>
				<g>
					
						<path fill="#FCC108" stroke="#FCC108" stroke-width="0.2392" stroke-linecap="round" stroke-linejoin="round" stroke-miterlimit="10" d="
						M94.59,67.977l0.515,0.22C94.95,68.088,94.775,68.014,94.59,67.977z"/>
					
						<path fill="#FCC108" stroke="#FCC108" stroke-width="0.2392" stroke-linecap="round" stroke-linejoin="round" stroke-miterlimit="10" d="
						M102.196,71.22c-0.066,0.155-0.178,0.293-0.332,0.39c-0.406,0.261-0.946,0.145-1.207-0.261c-0.162-0.254-0.18-0.558-0.07-0.815
						l-5.48-2.337c0.141,0.1,0.268,0.228,0.367,0.382c0.407,0.635,0.223,1.481-0.412,1.891c-0.636,0.408-1.481,0.224-1.89-0.412
						c-0.408-0.637-0.225-1.482,0.411-1.891c0.312-0.2,0.671-0.257,1.007-0.189l-10.776-4.595l12.142,18.901l12.842-8.249
						L102.196,71.22z M98.734,77.444c-0.95,0.61-2.215,0.335-2.826-0.616c-0.611-0.951-0.335-2.216,0.615-2.828
						c0.953-0.61,2.217-0.333,2.828,0.616C99.961,75.567,99.686,76.833,98.734,77.444z"/>
				</g>
			</g>
			<g>
				
					<path fill="#FFD703" stroke="#FFD703" stroke-width="0.2392" stroke-linecap="round" stroke-linejoin="round" stroke-miterlimit="10" d="
					M100.252,88.562l12.14,18.9l12.843-8.249l-12.14-18.901L100.252,88.562z M105.377,88.647c0.404-0.261,0.946-0.143,1.208,0.264
					c0.261,0.405,0.144,0.946-0.263,1.208c-0.407,0.262-0.949,0.143-1.208-0.262C104.853,89.45,104.97,88.909,105.377,88.647z
					 M115.173,102.623c-0.953,0.611-2.218,0.335-2.828-0.616c-0.611-0.95-0.335-2.216,0.614-2.828
					c0.955-0.61,2.219-0.334,2.829,0.615C116.399,100.747,116.124,102.013,115.173,102.623z M111.499,95.648
					c-0.637,0.408-1.48,0.224-1.89-0.412s-0.226-1.48,0.411-1.89c0.636-0.409,1.481-0.226,1.891,0.412
					C112.318,94.394,112.134,95.24,111.499,95.648z M118.301,96.789c-0.406,0.262-0.947,0.145-1.209-0.261
					c-0.261-0.407-0.143-0.949,0.265-1.21c0.405-0.261,0.946-0.143,1.208,0.263C118.828,95.988,118.709,96.529,118.301,96.789z
					 M113.751,89.706c-0.853,0.547-1.985,0.3-2.534-0.551c-0.549-0.853-0.3-1.987,0.554-2.534c0.853-0.548,1.986-0.301,2.532,0.551
					C114.851,88.023,114.605,89.159,113.751,89.706z"/>
				<g>
					
						<path fill="#FCC108" stroke="#FCC108" stroke-width="0.2392" stroke-linecap="round" stroke-linejoin="round" stroke-miterlimit="10" d="
						M111.028,93.157l0.515,0.219C111.388,93.268,111.21,93.193,111.028,93.157z"/>
					
						<path fill="#FCC108" stroke="#FCC108" stroke-width="0.2392" stroke-linecap="round" stroke-linejoin="round" stroke-miterlimit="10" d="
						M118.632,96.398c-0.065,0.155-0.178,0.293-0.33,0.39c-0.407,0.261-0.948,0.145-1.209-0.261
						c-0.16-0.253-0.179-0.558-0.069-0.814l-5.481-2.338c0.144,0.101,0.269,0.227,0.368,0.383c0.407,0.636,0.224,1.481-0.412,1.89
						c-0.637,0.408-1.48,0.224-1.89-0.411c-0.409-0.636-0.226-1.481,0.411-1.891c0.312-0.2,0.672-0.258,1.009-0.189l-10.776-4.595
						l12.142,18.9l12.841-8.249L118.632,96.398z M115.173,102.623c-0.953,0.611-2.218,0.335-2.828-0.616
						c-0.611-0.95-0.335-2.216,0.614-2.828c0.955-0.61,2.219-0.334,2.829,0.615C116.399,100.747,116.124,102.013,115.173,102.623z"
						/>
				</g>
			</g>
		</g>
	</g>
	<g>
		
			<path fill="#017E41" stroke="#017E41" stroke-width="1.7447" stroke-linecap="round" stroke-linejoin="round" stroke-miterlimit="10" d="
			M159.833,182.326c0,6.856-5.559,12.415-12.414,12.415l0,0c-6.855,0-12.414-5.559-12.414-12.415V34.741
			c0-6.856,5.559-12.415,12.414-12.415l0,0c6.855,0,12.414,5.558,12.414,12.415V182.326z"/>
		
			<path fill="#056734" stroke="#056734" stroke-width="1.8173" stroke-linecap="round" stroke-linejoin="round" stroke-miterlimit="10" d="
			M147.418,22.327L147.418,22.327c-6.855,0-12.414,5.558-12.414,12.415v147.585c0,6.855,5.559,12.414,12.414,12.414l0,0V22.327z"/>
	</g>
	<g>
		<circle fill="#3EAB37" stroke="#3EAB37" stroke-width="0.5141" stroke-miterlimit="10" cx="34.48" cy="56.645" r="22.989"/>
		<path fill="#079939" stroke="#079939" stroke-width="0.5141" stroke-miterlimit="10" d="M34.481,79.635
			c-12.697,0-22.989-10.292-22.989-22.99c0-12.697,10.292-22.989,22.989-22.989V79.635z"/>
		<circle fill="#0D9639" stroke="#0D9639" stroke-width="0.6344" stroke-miterlimit="10" cx="40.555" cy="37.481" r="0.773"/>
		<circle fill="#0D9639" stroke="#0D9639" stroke-width="0.6344" stroke-miterlimit="10" cx="44.207" cy="39.027" r="0.773"/>
		<circle fill="#0D9639" stroke="#0D9639" stroke-width="0.6344" stroke-miterlimit="10" cx="40.555" cy="41.626" r="0.773"/>
		<circle fill="#0D9639" stroke="#0D9639" stroke-width="0.6344" stroke-miterlimit="10" cx="36.745" cy="39.8" r="0.773"/>
		<circle fill="#0D9639" stroke="#0D9639" stroke-width="0.6344" stroke-miterlimit="10" cx="45.753" cy="43.171" r="0.772"/>
		<circle fill="#0D9639" stroke="#0D9639" stroke-width="0.6344" stroke-miterlimit="10" cx="51.199" cy="45.488" r="0.773"/>
		<circle fill="#0D9639" stroke="#0D9639" stroke-width="0.6344" stroke-miterlimit="10" cx="51.199" cy="49.353" r="0.773"/>
		<circle fill="#0D9639" stroke="#0D9639" stroke-width="0.6344" stroke-miterlimit="10" cx="46.23" cy="47.807" r="0.773"/>
		<circle fill="#0D9639" stroke="#0D9639" stroke-width="0.6344" stroke-miterlimit="10" cx="37.916" cy="46.262" r="0.773"/>
		<circle fill="#0D9639" stroke="#0D9639" stroke-width="0.6344" stroke-miterlimit="10" cx="40.555" cy="50.76" r="0.773"/>
		<circle fill="#0D9639" stroke="#0D9639" stroke-width="0.6344" stroke-miterlimit="10" cx="42.1" cy="46.262" r="0.773"/>
		<circle fill="#0D9639" stroke="#0D9639" stroke-width="0.6344" stroke-miterlimit="10" cx="48.882" cy="41.345" r="0.773"/>
	</g>
	<g>
		<g>
			
				<path fill="#F3ABCC" stroke="#F3ABCC" stroke-width="0.329" stroke-linecap="round" stroke-linejoin="round" stroke-miterlimit="10" d="
				M37.165,60.237c0.252,0.903,0.656,1.789,1.216,2.629l0.159,0.237c2.812,4.217,7.509,7.316,11.737,4.498
				c4.228-2.819,3.243-7.53,0.033-12.345l-4.638-6.957c5.109,1.756,10.592,0.057,13.46-1.584l0.161-0.089l3.325,4.987
				c6.979,10.467,5.08,20.319-3.462,26.014c-8.541,5.694-17.927,1.193-23.633-7.365c-1.911-2.866-2.917-6.133-3.088-9.385
				L37.165,60.237z"/>
		</g>
		<g>
			
				<path fill="#F3ABCC" stroke="#F3ABCC" stroke-width="0.329" stroke-linecap="round" stroke-linejoin="round" stroke-miterlimit="10" d="
				M39.65,17.135l18.166,27.248c0,0-9.754,5.578-15.985-1.981C35.284,34.464,39.65,17.135,39.65,17.135z"/>
		</g>
		<g>
			<circle fill="#010202" cx="43.741" cy="29.436" r="1.379"/>
		</g>
		<g>
			
				<line fill="none" stroke="#EA7EB0" stroke-width="0.987" stroke-linecap="round" stroke-miterlimit="10" x1="38.102" y1="15.232" x2="28.51" y2="0.848"/>
		</g>
		<g>
			
				<line fill="none" stroke="#EA7EB0" stroke-width="0.987" stroke-linecap="round" stroke-miterlimit="10" x1="35.268" y1="17.122" x2="29.603" y2="8.623"/>
		</g>
		<g>
			
				<path fill="#EA7EB0" stroke="#EA7EB0" stroke-width="0.329" stroke-linecap="round" stroke-linejoin="round" stroke-miterlimit="10" d="
				M32.241,58.563l-4.307-15.422l7.058,4.452c0,0,0,0,1.636,10.519C32.778,58.543,32.241,58.563,32.241,58.563z"/>
		</g>
	</g>
</g>
<g>
	
		<polygon fill="#C89D64" stroke="#C89D64" stroke-width="1.3504" stroke-linecap="round" stroke-linejoin="round" stroke-miterlimit="10" points="
		166.661,258.617 163.016,184.824 163.034,71.585 84.511,71.585 5.99,71.585 6.006,184.824 2.362,258.617 	"/>
	
		<polyline fill="#BE915C" stroke="#BE915C" stroke-width="1.3504" stroke-linecap="round" stroke-linejoin="round" stroke-miterlimit="10" points="
		166.661,258.617 163.016,184.824 163.034,94.316 84.511,94.316 5.99,94.316 	"/>
	
		<rect y="65.958" fill="#C89D64" stroke="#C89D64" stroke-width="1.3697" stroke-linecap="round" stroke-linejoin="round" stroke-miterlimit="10" width="169.024" height="28.358"/>
</g>
<g id="Larv">
</g>
</svg>
