<?xml version="1.0" encoding="utf-8"?>
<!-- Generator: Adobe Illustrator 15.0.2, SVG Export Plug-In . SVG Version: 6.00 Build 0)  -->
<!DOCTYPE svg PUBLIC "-//W3C//DTD SVG 1.1//EN" "http://www.w3.org/Graphics/SVG/1.1/DTD/svg11.dtd">
<svg version="1.1" id="Lager_1" xmlns="http://www.w3.org/2000/svg" xmlns:xlink="http://www.w3.org/1999/xlink" x="0px" y="0px"
	 width="257.756px" height="257.756px" viewBox="0 0 257.756 257.756" enable-background="new 0 0 257.756 257.756"
	 xml:space="preserve">
<g>
	<circle fill="#EDEDED" stroke="#706F6F" stroke-width="6" stroke-miterlimit="10" cx="128.878" cy="128.878" r="125.878"/>
	<g>
		
			<path fill="#007D40" stroke="#007D40" stroke-width="1.8959" stroke-linecap="round" stroke-linejoin="round" stroke-miterlimit="10" d="
			M183.893,190.441c-14.951,7.021-20.227,15.534-20.227,15.534l-6.812-14.768l-2.204,1.018l-2.211,1.019l8.279,17.95
			c0,0-14.102-4.804-29.149,2.003c14.701,0.139,18.825,2.815,18.825,2.815s-16.137,7.995-19.315,22.901
			c0,0,12.234-17.038,34.301-24.082C165.38,214.832,168.479,201.656,183.893,190.441z"/>
	</g>
	<g>
		<g>
			
				<path fill="#90AFB0" stroke="#90AFB0" stroke-width="2.7118" stroke-linecap="round" stroke-linejoin="round" stroke-miterlimit="10" d="
				M169.255,58.117c31.021,7.98,37.482-17.472,37.482-17.472S183.09,29.228,169.255,58.117z"/>
		</g>
		<g>
			<g>
				<path fill="#6D999E" d="M169.2,58.434c31.873,3.167,29.195,29.29,29.195,29.29S172.265,90.317,169.2,58.434z"/>
				<path fill="#6D999E" d="M167.85,58.025c0.038-0.136,0.11-0.858,0.502-0.939c0.39-0.082,0.981,0,0.981,0
					c10.872,1.08,19.044,4.884,24.289,11.306c7.131,8.731,6.166,19.037,6.122,19.47c-0.066,0.642-0.573,1.148-1.215,1.211
					c-0.023,0.003-0.589,0.057-1.534,0.057c-6.147,0-26.419-2.204-29.146-30.565C167.85,58.564,167.811,58.16,167.85,58.025z
					 M170.736,59.975c3.116,24.502,20.812,26.444,26.26,26.444c0.038,0,0.073,0,0.109,0
					C197.187,81.531,195.794,63.235,170.736,59.975z"/>
			</g>
		</g>
	</g>
	<g>
		<g>
			
				<path fill="#F4AACC" stroke="#F4AACC" stroke-width="0.4088" stroke-linecap="round" stroke-linejoin="round" stroke-miterlimit="10" d="
				M44.129,176.62l39.819,37.932c0,0-13.921,12.736-26.92,2.657C43.375,206.621,44.129,176.62,44.129,176.62z"/>
		</g>
		<g>
			<circle cx="55.372" cy="195.263" r="2.315"/>
		</g>
	</g>
	<g>
		<g>
			
				<path fill="#F39200" stroke="#F39200" stroke-width="2.3942" stroke-linecap="round" stroke-linejoin="round" stroke-miterlimit="10" d="
				M108.128,36.352h0.072h4.92c7.423,0,12.547-5.034,14.016-12.923h-19.008V36.352z"/>
		</g>
		<g>
			<g>
				<path fill="#F08100" d="M108.128,36.352h-0.071h-4.92c-7.423,0-12.547-5.034-14.016-12.923h19.007V36.352z"/>
			</g>
			<g>
				<path fill="#F08100" d="M108.128,37.55h-4.991c-7.894,0-13.573-5.198-15.193-13.902c-0.065-0.351,0.028-0.711,0.256-0.984
					c0.228-0.273,0.565-0.433,0.921-0.433h19.007V37.55z"/>
			</g>
		</g>
		<g>
			
				<path fill="#008D36" stroke="#008D36" stroke-width="1.2872" stroke-linecap="round" stroke-linejoin="round" stroke-miterlimit="10" d="
				M115.332,60.701c0,0,12.801,4.004,13.14,12.576c0.265,6.706-5.578,9.01-10.761,7.605c-8.1-2.199-7.715-14.871-7.555-16.721
				c0,0,0.081-1.985,0.242-5.363c0-4.587,0-18.268,0-18.268h2.359v19.608L115.332,60.701z"/>
		</g>
		<g>
			
				<path fill="#008D36" stroke="#008D36" stroke-width="1.2872" stroke-linecap="round" stroke-linejoin="round" stroke-miterlimit="10" d="
				M102.759,47.907c0,0-12.802,4.005-13.14,12.577c-0.264,6.707,5.578,9.009,10.76,7.604c8.101-2.198,7.097-12.249,7.305-15.037
				c0,0,0.009-3.38,0.009-7.047c0,0.791,0-5.474,0-5.474h-2.359v6.814L102.759,47.907z"/>
		</g>
	</g>
	<circle opacity="0.8" fill="#CA9E67" cx="194.814" cy="131.258" r="9.2"/>
	<circle opacity="0.8" fill="#3AAA35" cx="220.333" cy="68.941" r="9.2"/>
	<circle opacity="0.8" fill="#3AAA35" cx="60.015" cy="53.096" r="9.2"/>
	<path opacity="0.8" fill="#E94E1B" d="M101.259,191.014c0,2.84-2.3,5.14-5.136,5.14c-2.838,0-5.135-2.3-5.135-5.14
		c0-2.835,2.297-5.136,5.135-5.136C98.958,185.878,101.259,188.179,101.259,191.014z"/>
	<circle opacity="0.8" fill="#3AAA35" cx="48.885" cy="143.885" r="3.574"/>
	<circle opacity="0.8" fill="#3AAA35" cx="157.486" cy="109.883" r="3.574"/>
	<circle opacity="0.8" fill="#7D4E24" cx="168.208" cy="31.248" r="3.574"/>
	<circle opacity="0.8" fill="#7D4E24" cx="45.311" cy="78.141" r="3.574"/>
	<circle opacity="0.8" fill="#CA9E67" cx="141.139" cy="72.516" r="3.574"/>
	<circle opacity="0.8" fill="#CA9E67" cx="128.878" cy="185.878" r="3.574"/>
	<circle opacity="0.8" fill="#7D4E24" cx="103.066" cy="227.488" r="5.135"/>
	<path opacity="0.8" fill="#E94E1B" d="M210.887,205.478c0,5.078-4.119,9.2-9.199,9.2s-9.199-4.122-9.199-9.2
		c0-5.083,4.119-9.2,9.199-9.2S210.887,200.395,210.887,205.478z"/>
	<path opacity="0.8" fill="#7D4E24" d="M230.605,188.324c0,2.837-2.3,5.137-5.136,5.137c-2.838,0-5.135-2.3-5.135-5.137
		c0-2.834,2.297-5.135,5.135-5.135C228.305,183.189,230.605,185.49,230.605,188.324z"/>
	<circle opacity="0.8" fill="#E94E1B" cx="150.339" cy="51.775" r="9.2"/>
	<g>
		<defs>
			<circle id="SVGID_1_" cx="128.878" cy="128.878" r="125.878"/>
		</defs>
		<clipPath id="SVGID_2_">
			<use xlink:href="#SVGID_1_"  overflow="visible"/>
		</clipPath>
		<g clip-path="url(#SVGID_2_)">
			<rect x="-37.515" y="94.595" fill="#C6C6C6" width="566.73" height="76.147"/>
			<rect x="-37.515" y="132.668" fill="#C0C0C0" width="566.73" height="38.074"/>
			<g>
				<polygon fill="#B2B2B2" points="-11.511,94.595 -11.501,94.595 -37.269,170.742 -29.242,170.742 -3.417,94.595 -3.417,81.669 
									"/>
				<polygon fill="#9D9D9C" points="-29.242,170.742 -37.269,170.742 -24.385,132.668 -16.301,132.668 				"/>
			</g>
			<g>
				<polygon fill="#B2B2B2" points="6.275,170.742 -1.751,170.742 24.016,94.595 32.1,94.595 				"/>
				<polygon fill="#9D9D9C" points="11.132,132.668 -1.751,170.742 -1.819,183.668 6.275,170.742 19.216,132.668 				"/>
			</g>
			<g>
				<polygon fill="#B2B2B2" points="59.456,94.595 59.465,94.595 33.698,170.742 41.724,170.742 67.549,94.595 67.549,81.669 				
					"/>
				<polygon fill="#9D9D9C" points="41.724,170.742 33.698,170.742 46.582,132.668 54.666,132.668 				"/>
			</g>
			<g>
				<polygon fill="#B2B2B2" points="77.241,170.742 69.215,170.742 94.982,94.595 103.066,94.595 				"/>
				<polygon fill="#9D9D9C" points="82.099,132.668 69.215,170.742 69.147,183.668 77.241,170.742 90.183,132.668 				"/>
			</g>
			<g>
				<polygon fill="#B2B2B2" points="130.422,94.595 130.432,94.595 104.665,170.742 112.691,170.742 138.516,94.595 138.516,81.669 
									"/>
				<polygon fill="#9D9D9C" points="112.691,170.742 104.665,170.742 117.548,132.668 125.632,132.668 				"/>
			</g>
			<g>
				<polygon fill="#B2B2B2" points="148.208,170.742 140.182,170.742 165.95,94.595 174.034,94.595 				"/>
				<polygon fill="#9D9D9C" points="153.065,132.668 140.182,170.742 140.114,183.668 148.208,170.742 161.149,132.668 				"/>
			</g>
			<g>
				<polygon fill="#B2B2B2" points="201.389,94.595 201.399,94.595 175.631,170.742 183.657,170.742 209.483,94.595 209.483,81.669 
									"/>
				<polygon fill="#9D9D9C" points="183.657,170.742 175.631,170.742 188.514,132.668 196.598,132.668 				"/>
			</g>
			<g>
				<polygon fill="#B2B2B2" points="219.174,170.742 211.148,170.742 236.916,94.595 245,94.595 				"/>
				<polygon fill="#9D9D9C" points="224.032,132.668 211.148,170.742 211.081,183.668 219.174,170.742 232.116,132.668 				"/>
			</g>
			<g>
				<polygon fill="#B2B2B2" points="272.355,94.595 272.365,94.595 246.597,170.742 254.624,170.742 280.449,94.595 280.449,81.669 
									"/>
				<polygon fill="#9D9D9C" points="254.624,170.742 246.597,170.742 259.481,132.668 267.565,132.668 				"/>
			</g>
			<g>
				<polygon fill="#B2B2B2" points="290.141,170.742 282.115,170.742 307.882,94.595 315.966,94.595 				"/>
				<polygon fill="#9D9D9C" points="294.999,132.668 282.115,170.742 282.047,183.668 290.141,170.742 303.083,132.668 				"/>
			</g>
			<g>
				<polygon fill="#B2B2B2" points="343.322,94.595 343.332,94.595 317.564,170.742 325.59,170.742 351.416,94.595 351.416,81.669 
									"/>
				<polygon fill="#9D9D9C" points="325.59,170.742 317.564,170.742 330.448,132.668 338.532,132.668 				"/>
			</g>
			<g>
				<polygon fill="#B2B2B2" points="361.108,170.742 353.082,170.742 378.849,94.595 386.933,94.595 				"/>
				<polygon fill="#9D9D9C" points="365.965,132.668 353.082,170.742 353.014,183.668 361.108,170.742 374.049,132.668 				"/>
			</g>
			<g>
				<polygon fill="#B2B2B2" points="414.289,94.595 414.298,94.595 388.531,170.742 396.557,170.742 422.382,94.595 422.382,81.669 
									"/>
				<polygon fill="#9D9D9C" points="396.557,170.742 388.531,170.742 401.415,132.668 409.499,132.668 				"/>
			</g>
			<g>
				<polygon fill="#B2B2B2" points="432.074,170.742 424.047,170.742 449.815,94.595 457.899,94.595 				"/>
				<polygon fill="#9D9D9C" points="436.931,132.668 424.047,170.742 423.98,183.668 432.074,170.742 445.015,132.668 				"/>
			</g>
			<g>
				<polygon fill="#B2B2B2" points="485.255,94.595 485.265,94.595 459.498,170.742 467.524,170.742 493.349,94.595 493.349,81.669 
									"/>
				<polygon fill="#9D9D9C" points="467.524,170.742 459.498,170.742 472.381,132.668 480.465,132.668 				"/>
			</g>
			<g>
				<polygon fill="#B2B2B2" points="503.041,170.742 495.014,170.742 520.782,94.595 528.866,94.595 				"/>
				<polygon fill="#9D9D9C" points="507.898,132.668 495.014,170.742 494.947,183.668 503.041,170.742 515.982,132.668 				"/>
			</g>
		</g>
	</g>
	<g>
		<defs>
			<circle id="SVGID_3_" cx="128.878" cy="128.878" r="125.878"/>
		</defs>
		<clipPath id="SVGID_4_">
			<use xlink:href="#SVGID_3_"  overflow="visible"/>
		</clipPath>
		<g clip-path="url(#SVGID_4_)">
			<rect x="-37.515" y="94.595" fill="#C6C6C6" width="566.73" height="76.147"/>
			<rect x="-37.515" y="132.668" fill="#C0C0C0" width="566.73" height="38.074"/>
			<g>
				<polygon fill="#B2B2B2" points="-11.511,94.595 -11.501,94.595 -37.269,170.742 -29.242,170.742 -3.417,94.595 -3.417,81.669 
									"/>
				<polygon fill="#9D9D9C" points="-29.242,170.742 -37.269,170.742 -24.385,132.668 -16.301,132.668 				"/>
			</g>
			<g>
				<polygon fill="#B2B2B2" points="6.275,170.742 -1.751,170.742 24.016,94.595 32.1,94.595 				"/>
				<polygon fill="#9D9D9C" points="11.132,132.668 -1.751,170.742 -1.819,183.668 6.275,170.742 19.216,132.668 				"/>
			</g>
			<g>
				<polygon fill="#B2B2B2" points="59.456,94.595 59.465,94.595 33.698,170.742 41.724,170.742 67.549,94.595 67.549,81.669 				
					"/>
				<polygon fill="#9D9D9C" points="41.724,170.742 33.698,170.742 46.582,132.668 54.666,132.668 				"/>
			</g>
			<g>
				<polygon fill="#B2B2B2" points="77.241,170.742 69.215,170.742 94.982,94.595 103.066,94.595 				"/>
				<polygon fill="#9D9D9C" points="82.099,132.668 69.215,170.742 69.147,183.668 77.241,170.742 90.183,132.668 				"/>
			</g>
			<g>
				<polygon fill="#B2B2B2" points="130.422,94.595 130.432,94.595 104.665,170.742 112.691,170.742 138.516,94.595 138.516,81.669 
									"/>
				<polygon fill="#9D9D9C" points="112.691,170.742 104.665,170.742 117.548,132.668 125.632,132.668 				"/>
			</g>
			<g>
				<polygon fill="#B2B2B2" points="148.208,170.742 140.182,170.742 165.95,94.595 174.034,94.595 				"/>
				<polygon fill="#9D9D9C" points="153.065,132.668 140.182,170.742 140.114,183.668 148.208,170.742 161.149,132.668 				"/>
			</g>
			<g>
				<polygon fill="#B2B2B2" points="201.389,94.595 201.399,94.595 175.631,170.742 183.657,170.742 209.483,94.595 209.483,81.669 
									"/>
				<polygon fill="#9D9D9C" points="183.657,170.742 175.631,170.742 188.514,132.668 196.598,132.668 				"/>
			</g>
			<g>
				<polygon fill="#B2B2B2" points="219.174,170.742 211.148,170.742 236.916,94.595 245,94.595 				"/>
				<polygon fill="#9D9D9C" points="224.032,132.668 211.148,170.742 211.081,183.668 219.174,170.742 232.116,132.668 				"/>
			</g>
			<g>
				<polygon fill="#B2B2B2" points="272.355,94.595 272.365,94.595 246.597,170.742 254.624,170.742 280.449,94.595 280.449,81.669 
									"/>
				<polygon fill="#9D9D9C" points="254.624,170.742 246.597,170.742 259.481,132.668 267.565,132.668 				"/>
			</g>
			<g>
				<polygon fill="#B2B2B2" points="290.141,170.742 282.115,170.742 307.882,94.595 315.966,94.595 				"/>
				<polygon fill="#9D9D9C" points="294.999,132.668 282.115,170.742 282.047,183.668 290.141,170.742 303.083,132.668 				"/>
			</g>
			<g>
				<polygon fill="#B2B2B2" points="343.322,94.595 343.332,94.595 317.564,170.742 325.59,170.742 351.416,94.595 351.416,81.669 
									"/>
				<polygon fill="#9D9D9C" points="325.59,170.742 317.564,170.742 330.448,132.668 338.532,132.668 				"/>
			</g>
			<g>
				<polygon fill="#B2B2B2" points="361.108,170.742 353.082,170.742 378.849,94.595 386.933,94.595 				"/>
				<polygon fill="#9D9D9C" points="365.965,132.668 353.082,170.742 353.014,183.668 361.108,170.742 374.049,132.668 				"/>
			</g>
			<g>
				<polygon fill="#B2B2B2" points="414.289,94.595 414.298,94.595 388.531,170.742 396.557,170.742 422.382,94.595 422.382,81.669 
									"/>
				<polygon fill="#9D9D9C" points="396.557,170.742 388.531,170.742 401.415,132.668 409.499,132.668 				"/>
			</g>
			<g>
				<polygon fill="#B2B2B2" points="432.074,170.742 424.047,170.742 449.815,94.595 457.899,94.595 				"/>
				<polygon fill="#9D9D9C" points="436.931,132.668 424.047,170.742 423.98,183.668 432.074,170.742 445.015,132.668 				"/>
			</g>
			<g>
				<polygon fill="#B2B2B2" points="485.255,94.595 485.265,94.595 459.498,170.742 467.524,170.742 493.349,94.595 493.349,81.669 
									"/>
				<polygon fill="#9D9D9C" points="467.524,170.742 459.498,170.742 472.381,132.668 480.465,132.668 				"/>
			</g>
			<g>
				<polygon fill="#B2B2B2" points="503.041,170.742 495.014,170.742 520.782,94.595 528.866,94.595 				"/>
				<polygon fill="#9D9D9C" points="507.898,132.668 495.014,170.742 494.947,183.668 503.041,170.742 515.982,132.668 				"/>
			</g>
		</g>
	</g>
	<circle fill="none" stroke="#706F6F" stroke-width="6" stroke-miterlimit="10" cx="128.878" cy="128.878" r="125.878"/>
</g>
</svg>
