<?xml version="1.0" encoding="utf-8"?>
<!-- Generator: Adobe Illustrator 15.0.2, SVG Export Plug-In . SVG Version: 6.00 Build 0)  -->
<!DOCTYPE svg PUBLIC "-//W3C//DTD SVG 1.1//EN" "http://www.w3.org/Graphics/SVG/1.1/DTD/svg11.dtd">
<svg version="1.1" xmlns="http://www.w3.org/2000/svg" xmlns:xlink="http://www.w3.org/1999/xlink" x="0px" y="0px"
	 width="167.496px" height="222.535px" viewBox="0 0 167.496 222.535" enable-background="new 0 0 167.496 222.535"
	 xml:space="preserve">
<g id="_x31_">
</g>
<g id="_x32_">
	<g>
		<g>
			<g>
				
					<path fill="none" stroke="#58585A" stroke-width="1.5844" stroke-linecap="round" stroke-linejoin="round" stroke-miterlimit="10" d="
					M119.702,29.844c0,0-18.037,0.985-32.353,11.997"/>
			</g>
			<g>
				
					<path fill="none" stroke="#58585A" stroke-width="1.5844" stroke-linecap="round" stroke-linejoin="round" stroke-miterlimit="10" d="
					M120.974,43.222c0,0-14.565,0.353-26.792,8.278"/>
			</g>
			<g>
				
					<path fill="none" stroke="#58585A" stroke-width="1.5844" stroke-linecap="round" stroke-linejoin="round" stroke-miterlimit="10" d="
					M119.44,56.375c0,0-10.724-0.168-19.947,5.304"/>
			</g>
			<g>
				
					<path fill="none" stroke="#58585A" stroke-width="1.5844" stroke-linecap="round" stroke-linejoin="round" stroke-miterlimit="10" d="
					M114.555,69.831c0,0-5.368-0.456-10.181,1.969"/>
			</g>
			<g>
				
					<path fill="none" stroke="#58585A" stroke-width="1.5844" stroke-linecap="round" stroke-linejoin="round" stroke-miterlimit="10" d="
					M89.582,18.35c10.229,6.072,18.27,21.557,19.699,40.216c0.644,8.411-0.14,16.392-2.034,23.31"/>
			</g>
			<g>
				
					<path fill="#D9D9DA" stroke="#D9D9DA" stroke-width="1.5844" stroke-linecap="round" stroke-linejoin="round" stroke-miterlimit="10" d="
					M117.626,17.831c0,0-10.933-18.983-30.826-16.875c-15.062,13.169-8.554,34.088-8.554,34.088
					C95.315,20.436,117.626,17.831,117.626,17.831z"/>
			</g>
			<g>
				
					<path fill="#D9D9DA" stroke="#D9D9DA" stroke-width="1.5844" stroke-linecap="round" stroke-linejoin="round" stroke-miterlimit="10" d="
					M107.93,79.98c-3.266,18.427,11.85,21.055,11.85,21.055S125.375,86.751,107.93,79.98z"/>
			</g>
			<g>
				<g>
					<path fill="#B1B3B4" d="M107.743,79.962c-0.425,18.709-15.762,18.313-15.762,18.313S89.306,83.169,107.743,79.962z"/>
					<path fill="#B1B3B4" d="M107.92,79.158c0.082,0.016,0.506,0.026,0.57,0.249c0.064,0.224,0.044,0.573,0.044,0.573
						c-0.146,6.381-1.997,11.312-5.503,14.654c-4.77,4.542-10.815,4.439-11.071,4.434c-0.376-0.01-0.693-0.284-0.758-0.654
						c-0.004-0.013-0.061-0.34-0.103-0.891c-0.274-3.581,0.105-15.489,16.506-18.342C107.606,79.182,107.84,79.14,107.92,79.158z
						 M106.915,80.925C92.778,83.833,92.437,94.229,92.68,97.402c0,0.021,0.003,0.043,0.004,0.063
						C95.535,97.296,106.132,95.668,106.915,80.925z"/>
				</g>
			</g>
			<g>
				<g>
					<path fill="#B1B3B4" d="M96.204,24.018c-5.879,2.555-12.214,6.111-17.957,11.026c0,0-6.367-20.461,8.065-33.651L96.204,24.018z
						"/>
					<path fill="#B1B3B4" d="M96.522,24.744c-6.771,2.941-12.745,6.61-17.76,10.901c-0.203,0.174-0.479,0.234-0.735,0.16
						c-0.255-0.073-0.458-0.271-0.537-0.526c-0.039-0.126-0.966-3.146-1.31-7.633c-0.59-7.703,0.597-18.612,9.597-26.837
						c0,0,0.533-0.458,0.582-0.516c0.049-0.058,0.261-0.096,0.261-0.096l0.417,0.879L97.25,24.462L96.522,24.744z M86.039,2.746
						c-7.792,7.7-8.823,17.666-8.278,24.779c0.206,2.691,0.639,4.859,0.935,6.109c4.745-3.896,10.274-7.263,16.468-10.023
						L86.039,2.746z"/>
				</g>
			</g>
			
				<circle fill="#FFFFFF" stroke="#FFFFFF" stroke-width="1.5655" stroke-linecap="round" stroke-linejoin="round" stroke-miterlimit="10" cx="99.141" cy="11.234" r="3.856"/>
			<circle fill="#1B171B" cx="99.14" cy="11.234" r="2.034"/>
		</g>
		<g>
			<polygon fill="#FFD600" points="150.59,68.964 118.34,31.965 90.034,89.674 			"/>
			<polygon fill="#FCC200" points="90.034,89.674 118.34,31.965 134.702,50.735 			"/>
			<circle fill="#FFD600" cx="98.189" cy="79.066" r="2.053"/>
			<circle fill="#FCC200" cx="126.582" cy="71.764" r="2.053"/>
			<circle fill="#FCC200" cx="137.968" cy="64.501" r="1.787"/>
			<circle fill="#FFD600" cx="120.944" cy="46.899" r="2.053"/>
			<circle fill="#FCC200" cx="124.504" cy="59.618" r="2.053"/>
			<circle fill="#FCC200" cx="108.818" cy="73.298" r="3.622"/>
			<circle fill="#FFD600" cx="112.666" cy="58.92" r="3.622"/>
			<path fill="#FFD600" d="M111.549,70.919c-1.316-1.508-3.603-1.665-5.111-0.351c-1.506,1.315-1.662,3.602-0.35,5.109
				L111.549,70.919z"/>
			<path fill="#FFD600" d="M126.051,58.269c-0.744-0.855-2.041-0.944-2.896-0.199c-0.854,0.745-0.942,2.042-0.197,2.895
				L126.051,58.269z"/>
		</g>
		<g>
			
				<path fill="#FFEED2" stroke="#FFEED2" stroke-width="1.3278" stroke-linecap="round" stroke-linejoin="round" stroke-miterlimit="10" d="
				M150.346,89.608c-0.244-1.539-0.471-3.103,0.18-4.644c1.008-2.391,3.184-5.528,5.467-6.285c-1.053-2.163-1.422-3.312-0.412-5.703
				c1.547-3.672,4.512-6.812,8.279-6.311c-1.412-2.296-0.912-4.117,0.215-6.79c0.383-0.91,0.657-1.427,1.281-2.123
				c-1.977-2.402-2.339-6.08-1.047-9.144c0.496-1.177,1.225-2.187,2.107-3c-0.632-0.274-1.277-0.55-1.938-0.828
				c-11.252-4.743-19.342-7.207-23.375-0.82c-2.059,4.373,0.336,6.796,0.336,6.796l-14.996,25.599
				c-0.673,1.595,0.076,3.435,1.672,4.107C128.116,80.463,146.032,86.745,150.346,89.608z"/>
			
				<path fill="#FCC200" stroke="#FCC200" stroke-width="0.2094" stroke-linecap="round" stroke-linejoin="round" stroke-miterlimit="10" d="
				M156.645,79.156c-0.99-2.034-1.132-4.466-0.185-6.714c1.454-3.45,5.012-5.369,8.554-4.897c-1.327-2.159-1.629-4.902-0.57-7.415
				c0.359-0.854,0.851-1.613,1.438-2.267c-1.857-2.257-2.431-5.442-1.217-8.322c0.201-0.477,0.443-0.92,0.719-1.336l-20.633-0.262
				l-0.445,34.953l7.752,0.1C153.068,81.125,154.735,79.789,156.645,79.156z M161.372,55.298c1.576,0.021,2.838,1.314,2.818,2.89
				c-0.021,1.576-1.314,2.836-2.891,2.818c-1.577-0.021-2.838-1.315-2.818-2.891C158.501,56.539,159.795,55.278,161.372,55.298z
				 M151.297,55.17c-0.753-0.01-1.354-0.627-1.344-1.378c0.008-0.752,0.625-1.353,1.377-1.343c0.752,0.008,1.354,0.625,1.344,1.377
				C152.665,54.578,152.047,55.18,151.297,55.17z M151.176,64.631c0.015-1.174,0.979-2.115,2.155-2.1
				c1.175,0.016,2.116,0.98,2.102,2.155c-0.015,1.176-0.979,2.117-2.156,2.103C152.1,66.773,151.161,65.808,151.176,64.631z
				 M148.924,75.772c0.021-1.758,1.465-3.165,3.223-3.142c1.758,0.021,3.166,1.465,3.144,3.223s-1.466,3.166-3.224,3.143
				C150.308,78.974,148.901,77.531,148.924,75.772z"/>
			
				<path fill="#FFD600" stroke="#FFD600" stroke-width="0.2094" stroke-linecap="round" stroke-linejoin="round" stroke-miterlimit="10" d="
				M160.103,68.441c1.481-0.793,3.197-1.124,4.911-0.896c-1.327-2.159-1.629-4.902-0.57-7.415c0.359-0.854,0.851-1.613,1.438-2.267
				c-1.857-2.257-2.431-5.442-1.217-8.322c0.201-0.477,0.443-0.92,0.719-1.336l-20.633-0.262L160.103,68.441z M161.372,55.298
				c1.576,0.021,2.838,1.314,2.818,2.89c-0.021,1.576-1.314,2.836-2.891,2.818c-1.577-0.021-2.838-1.315-2.818-2.891
				C158.501,56.539,159.795,55.278,161.372,55.298z M151.297,55.17c-0.753-0.01-1.354-0.627-1.344-1.378
				c0.008-0.752,0.625-1.353,1.377-1.343c0.752,0.008,1.354,0.625,1.344,1.377C152.665,54.578,152.047,55.18,151.297,55.17z"/>
			
				<path fill="none" stroke="#BC8853" stroke-width="1.5491" stroke-linecap="round" stroke-linejoin="round" stroke-miterlimit="10" d="
				M166.721,45.726c-11.583-5.371-21.541-8.528-25.707-1.549c-2.379,4.833,0.334,6.797,0.334,6.797l-14.997,25.602
				c-0.673,1.597,0.075,3.436,1.671,4.109c0,0,12.52,3.855,22.52,9.231"/>
		</g>
		<g>
			<g>
				
					<path fill="#E5352D" stroke="#E5352D" stroke-width="0.2822" stroke-linecap="round" stroke-linejoin="round" stroke-miterlimit="10" d="
					M124.895,84.671c7.201-1.853,12.471-7.795,12.471-14.84c0-7.045-5.27-9.928-12.473-10.718L124.895,84.671z"/>
			</g>
			<g>
				
					<path fill="#EE8476" stroke="#EE8476" stroke-width="0.1396" stroke-linecap="round" stroke-linejoin="round" stroke-miterlimit="10" d="
					M124.825,76.334c3.562-0.916,6.168-3.856,6.168-7.34s-2.605-4.911-6.168-5.301V76.334z"/>
			</g>
			<g>
				
					<path fill="#FFE19C" stroke="#FFE19C" stroke-width="0.031" stroke-linecap="round" stroke-linejoin="round" stroke-miterlimit="10" d="
					M130.825,64.094c0.301-0.355,0.354-0.804,0.117-1.006c-0.236-0.201-0.672-0.076-0.973,0.278
					c-0.301,0.355-0.438,0.904-0.201,1.105S130.524,64.449,130.825,64.094z"/>
			</g>
			<g>
				
					<path fill="#FFE19C" stroke="#FFE19C" stroke-width="0.031" stroke-linecap="round" stroke-linejoin="round" stroke-miterlimit="10" d="
					M132.524,66.697c0.418-0.205,0.646-0.596,0.51-0.875c-0.135-0.278-0.584-0.339-1.002-0.135
					c-0.418,0.204-0.764,0.652-0.629,0.932C131.54,66.897,132.106,66.901,132.524,66.697z"/>
			</g>
			<g>
				
					<path fill="#FFE19C" stroke="#FFE19C" stroke-width="0.031" stroke-linecap="round" stroke-linejoin="round" stroke-miterlimit="10" d="
					M132.899,69.84c0.465-0.01,0.836-0.269,0.83-0.58c-0.006-0.311-0.389-0.553-0.854-0.544c-0.467,0.01-0.967,0.271-0.961,0.582
					C131.92,69.609,132.432,69.849,132.899,69.84z"/>
			</g>
			<g>
				
					<path fill="#FFE19C" stroke="#FFE19C" stroke-width="0.031" stroke-linecap="round" stroke-linejoin="round" stroke-miterlimit="10" d="
					M130.926,74.611c0.301,0.354,0.354,0.805,0.115,1.006c-0.234,0.201-0.672,0.076-0.973-0.278
					c-0.301-0.354-0.438-0.904-0.201-1.105C130.104,74.033,130.624,74.257,130.926,74.611z"/>
			</g>
			<g>
				
					<path fill="#FFE19C" stroke="#FFE19C" stroke-width="0.031" stroke-linecap="round" stroke-linejoin="round" stroke-miterlimit="10" d="
					M132.524,71.858c0.418,0.204,0.646,0.596,0.51,0.875c-0.135,0.278-0.584,0.338-1.002,0.135
					c-0.418-0.205-0.764-0.653-0.629-0.932C131.54,71.658,132.106,71.654,132.524,71.858z"/>
			</g>
			<g>
				
					<path fill="#009036" stroke="#009036" stroke-width="0.601" stroke-linecap="round" stroke-linejoin="round" stroke-miterlimit="10" d="
					M116.329,52.411c5.236,0.038,7.887,1.787,7.887,1.787v-5.156h0.77h0.771v6.267c0,0,3.422-3.255,8.658-3.292
					c-4.215,1.991-5.047,3.309-5.047,3.309s5.709,0.16,8.604,4.029c0,0-5.785-3.281-13.074-2.379
					C124.897,56.975,122.254,53.594,116.329,52.411z"/>
			</g>
		</g>
		<g>
			<g>
				<g>
					
						<path fill="#FFD600" stroke="#FFD600" stroke-width="0.2977" stroke-linecap="round" stroke-linejoin="round" stroke-miterlimit="10" d="
						M44.701,44.108c0.812,8.987-3.285,18.106-11.404,23.315c-9.684,6.214-23.608,5.427-33.148-4.985l1.138-2.612
						c9.356,4.522,19.089,2.609,25.976-1.81c4.908-3.148,8.346-7.726,10.118-12.837c0.066-0.19,0.442-0.403,0.503-0.594
						L44.701,44.108z"/>
				</g>
				<g>
					
						<path fill="#786855" stroke="#786855" stroke-width="0.2977" stroke-linecap="round" stroke-linejoin="round" stroke-miterlimit="10" d="
						M44.704,44.109c0.808,8.984-3.289,18.098-11.404,23.309c-10.191,6.538-23.976,5.13-33.149-4.985l0.513-1.181
						c7.926,6.109,21.28,6.553,29.501,1.277c6.575-4.219,10.511-10.998,11.338-18.197L44.704,44.109z"/>
				</g>
			</g>
			<g>
				<g>
					
						<path fill="#FCC200" stroke="#FCC200" stroke-width="0.3854" stroke-linecap="round" stroke-linejoin="round" stroke-miterlimit="10" d="
						M58.611,75.899"/>
				</g>
				<g>
					<g>
						
							<polygon fill="#5F4C3F" stroke="#5F4C3F" stroke-width="0.3661" stroke-linecap="round" stroke-linejoin="round" stroke-miterlimit="10" points="
							53.229,34.33 48.491,31.274 50.873,29.003 54.315,31.223 						"/>
					</g>
					<g>
						
							<polygon fill="#786855" stroke="#786855" stroke-width="0.3661" stroke-linecap="round" stroke-linejoin="round" stroke-miterlimit="10" points="
							53.229,34.33 54.315,31.223 50.873,29.003 						"/>
					</g>
				</g>
				<g>
					
						<path fill="#FFD600" stroke="#FFD600" stroke-width="0.3854" stroke-linecap="round" stroke-linejoin="round" stroke-miterlimit="10" d="
						M76.888,86.081c-13.294-2.08-22.247-11.288-26.323-21.067c-4.077-9.78-3-20.421,1.991-28.899l-5.424-3.49
						C35.936,41.377,31.477,56.83,37.208,70.58c5.733,13.753,21.136,23.176,38.966,19.121L76.888,86.081z"/>
				</g>
				<g>
					
						<path fill="#FCC200" stroke="#FCC200" stroke-width="0.3854" stroke-linecap="round" stroke-linejoin="round" stroke-miterlimit="10" d="
						M76.174,89.701c-17.222,4.011-32.933-4.646-38.966-19.121c-5.731-13.75-1.272-29.203,9.925-37.956l2.335,1.504
						c-7.708,8.987-10.187,21.887-5.32,33.561c4.866,11.673,19.411,21.042,32.35,20.376L76.174,89.701z"/>
				</g>
				<g>
					<circle fill="#5F4C3F" cx="43.13" cy="76.063" r="0.353"/>
				</g>
				<g>
					<circle fill="#5F4C3F" cx="43.588" cy="77.825" r="0.352"/>
				</g>
				<g>
					<path fill="#5F4C3F" d="M44.028,79.723c-0.1,0.167-0.317,0.222-0.484,0.124c-0.168-0.101-0.223-0.318-0.122-0.488
						c0.099-0.166,0.316-0.22,0.484-0.12C44.073,79.339,44.129,79.556,44.028,79.723z"/>
				</g>
				<g>
					<path fill="#5F4C3F" d="M45.161,79.37c-0.101,0.169-0.317,0.222-0.485,0.124c-0.167-0.102-0.222-0.318-0.121-0.487
						c0.099-0.166,0.317-0.221,0.484-0.121C45.208,78.984,45.262,79.202,45.161,79.37z"/>
				</g>
				<g>
					<circle fill="#5F4C3F" cx="45.308" cy="81.135" r="0.353"/>
				</g>
				<g>
					<circle fill="#5F4C3F" cx="46.524" cy="80.844" r="0.353"/>
				</g>
				<g>
					<circle fill="#5F4C3F" cx="41.677" cy="76.429" r="0.354"/>
				</g>
				<g>
					<circle fill="#5F4C3F" cx="41.052" cy="74.409" r="0.354"/>
				</g>
			</g>
		</g>
		<g>
			<path fill="#ECEDED" d="M74.949,86.263v8.235v14.444l0.03,1.253l7.975,7.924c3.077,3.058,3.4,7.721,0.724,10.414l0,0
				c-2.675,2.694-7.341,2.396-10.417-0.658l-2.252-2.235l-1.624-1.616l-1.626,1.616l-2.252,2.235
				c-3.077,3.055-7.742,3.353-10.417,0.658l0,0c-2.678-2.693-2.353-7.356,0.724-10.414l7.976-7.924l0.029-1.253V94.499v-8.235
				l-0.002-0.947v-8.235V62.637l-0.03-1.254L55.81,53.46c-3.076-3.058-3.4-7.722-0.724-10.415l0,0
				c2.676-2.695,7.341-2.396,10.418,0.658l2.251,2.237l1.625,1.614l1.626-1.614l2.252-2.237c3.077-3.054,7.742-3.353,10.418-0.658
				l0,0c2.677,2.693,2.353,7.357-0.724,10.415l-7.976,7.923l-0.03,1.254v14.443v8.235L74.949,86.263z"/>
		</g>
		<g>
			
				<rect x="36.023" y="79.305" fill="#CA9E64" stroke="#CA9E64" stroke-width="1.0147" stroke-linecap="round" stroke-linejoin="round" stroke-miterlimit="10" width="125.222" height="21.009"/>
		</g>
		<g>
			<g>
				<g>
					<path fill="#F39E13" d="M55.497,92.6l2.43-8.827c1.276-6.919-1.632-11.91-6.819-11.91h-2.425h-0.035h-2.425
						c-5.188,0-8.097,4.991-6.819,11.91l2.43,8.828L55.497,92.6z"/>
					<path fill="#F39E13" d="M41.265,92.757l-2.431-8.828c-0.004-0.017-0.008-0.033-0.011-0.05
						c-0.756-4.094-0.089-7.765,1.83-10.071c1.382-1.659,3.307-2.536,5.569-2.536h4.885c2.262,0,4.187,0.877,5.568,2.536
						c1.919,2.306,2.586,5.977,1.831,10.071c-0.003,0.017-0.007,0.033-0.012,0.05l-2.43,8.827L41.265,92.757z"/>
				</g>
			</g>
			<g>
				
					<path fill="#58B16A" stroke="#58B16A" stroke-width="0.6642" stroke-linecap="round" stroke-linejoin="round" stroke-miterlimit="10" d="
					M45.059,59.945c0,0-6.44-2.016-6.61-6.327c-0.133-3.374,2.807-4.533,5.413-3.825c4.075,1.105,3.882,7.481,3.801,8.412
					c0,0-0.04,0.998-0.121,2.698c0,2.307,0,9.189,0,9.189h-1.188v-9.864L45.059,59.945z"/>
			</g>
			<g>
				
					<path fill="#58B16A" stroke="#58B16A" stroke-width="0.6506" stroke-linecap="round" stroke-linejoin="round" stroke-miterlimit="10" d="
					M51.329,66.169c0,0,6.307-1.974,6.475-6.198c0.129-3.304-2.75-4.439-5.303-3.747c-3.992,1.083-3.497,6.036-3.6,7.41
					c0,0-0.005,1.665-0.005,3.473c0-0.39,0,2.697,0,2.697h1.163v-3.357L51.329,66.169z"/>
			</g>
		</g>
		<g>
			<g>
				<path fill="#024C7C" stroke="#024C7C" stroke-width="0.4784" stroke-miterlimit="10" d="M78.36,86.735
					c-3.413,5.824-10.097,8.249-14.929,5.418c-4.834-2.833-5.985-9.85-2.573-15.674c3.412-5.823,13.3-13.715,18.134-10.882
					C83.824,68.428,81.772,80.911,78.36,86.735z"/>
			</g>
			<g>
				<path fill="#01406A" stroke="#01406A" stroke-width="0.4784" stroke-miterlimit="10" d="M78.992,65.597
					c-4.834-2.833-14.722,5.059-18.134,10.882c-3.412,5.824-2.261,12.841,2.573,15.674l15.513-26.523"/>
			</g>
			<g>
				<path fill="#003961" stroke="#003961" stroke-width="0.4271" stroke-miterlimit="10" d="M78.512,81.67
					c-2.595,4.429-7.678,6.272-11.353,4.12c-3.675-2.154-4.552-7.49-1.957-11.918c2.595-4.428,10.114-10.429,13.79-8.275
					C82.667,67.75,81.106,77.242,78.512,81.67z"/>
			</g>
			<g>
				<path fill="#002F52" stroke="#002F52" stroke-width="0.4271" stroke-miterlimit="10" d="M78.992,65.597
					c-3.676-2.154-11.195,3.847-13.79,8.275c-2.595,4.429-1.718,9.765,1.957,11.918l11.785-20.161"/>
			</g>
			<g>
				<path fill="#024C7C" stroke="#024C7C" stroke-width="0.4784" stroke-miterlimit="10" d="M78.619,75.584
					c-1.619,2.764-4.792,3.914-7.085,2.57c-2.293-1.343-2.84-4.673-1.221-7.437c1.62-2.764,6.312-6.508,8.604-5.165
					C81.212,66.897,80.238,72.821,78.619,75.584z"/>
			</g>
			<g>
				<path fill="#01416C" stroke="#01416C" stroke-width="0.4784" stroke-miterlimit="10" d="M71.534,78.154
					c-2.293-1.343-2.84-4.673-1.221-7.437c1.62-2.764,6.312-6.508,8.604-5.165L71.534,78.154z"/>
			</g>
			<g>
				<path fill="#3790C9" stroke="#3790C9" stroke-width="0.4784" stroke-miterlimit="10" d="M78.743,72.381
					c-1.091,1.86-3.226,2.635-4.769,1.731c-1.544-0.904-1.911-3.146-0.821-5.006c1.09-1.859,4.247-4.38,5.791-3.476
					C80.488,66.534,79.832,70.521,78.743,72.381z"/>
			</g>
			<g>
				<path fill="#3081B6" stroke="#3081B6" stroke-width="0.4784" stroke-miterlimit="10" d="M78.944,65.629
					c-1.544-0.904-4.701,1.617-5.791,3.476c-1.09,1.86-0.723,4.102,0.821,5.006L78.944,65.629z"/>
			</g>
		</g>
		<g>
			<g>
				<g>
					<path fill="#E3E582" d="M77.877,90.079c3.866-2.251,6.616-8.033,6.616-14.81c0-6.749-2.728-12.511-6.569-14.781h14.055h14.054
						c-3.841,2.27-6.568,8.033-6.568,14.781c0,6.777,2.751,12.559,6.616,14.81H77.877z"/>
				</g>
			</g>
			<g>
				<g>
					<path fill="#409D2B" d="M91.704,53.074"/>
				</g>
			</g>
			<g>
				<g>
					<path fill="#CCDB82" d="M91.979,89.855H77.877c3.866-2.251,6.616-7.809,6.616-14.585c0-6.749-2.728-12.353-6.569-14.623h14.055
						v28.717V89.855z"/>
				</g>
			</g>
			<g>
				<g>
					<path fill="#41281B" stroke="#41281B" stroke-width="0.3467" stroke-miterlimit="10" d="M91.372,52.943
						c0-3.839-2.967-6.963-6.87-6.963v2.012c2.952,0,5.692,2.062,5.692,4.951H91.372z"/>
				</g>
			</g>
			<g>
				<g>
					<g>
						
							<ellipse fill="#41281B" stroke="#41281B" stroke-width="0.3467" stroke-miterlimit="10" cx="94.523" cy="75.196" rx="0.723" ry="1.646"/>
					</g>
				</g>
				<g>
					<g>
						
							<ellipse fill="#41281B" stroke="#41281B" stroke-width="0.3467" stroke-miterlimit="10" cx="89.149" cy="75.196" rx="0.722" ry="1.646"/>
					</g>
				</g>
			</g>
			<g>
				<g>
					
						<path fill="#41A62A" stroke="#41A62A" stroke-width="0.2958" stroke-linecap="round" stroke-linejoin="round" stroke-miterlimit="10" d="
						M77.663,60.488c0-2.871,2.648-5.735,5.914-5.735c0.886,0,1.727,0.169,2.481,0.478l1.533,0.552
						c2.581,0.84,4.206,0.84,4.206,0.84h0.021c0,0,1.625,0,4.207-0.84l1.532-0.552c0.755-0.309,1.595-0.478,2.481-0.478
						c3.266,0,5.912,2.864,5.912,5.735H77.663z"/>
				</g>
			</g>
			<g>
				<g>
					
						<path fill="#41A62A" stroke="#41A62A" stroke-width="0.2954" stroke-linecap="round" stroke-linejoin="round" stroke-miterlimit="10" d="
						M77.695,90.079c0,2.866,2.645,7.521,5.907,7.521c0,0,1.543-0.018,4.009-0.76c2.119-0.639,4.11-0.622,4.201-0.622h0.153
						c0.089,0,2.081-0.017,4.2,0.622c2.466,0.742,4.01,0.76,4.01,0.76c3.262,0,5.906-4.655,5.906-7.521H77.695z"/>
				</g>
			</g>
		</g>
		<g>
			<g>
				<g>
					
						<polygon fill="#CA9E64" stroke="#CA9E64" stroke-width="1.0004" stroke-linecap="round" stroke-linejoin="round" stroke-miterlimit="10" points="
						159.493,222.035 156.793,167.367 156.807,83.473 98.633,83.473 40.461,83.473 40.473,167.367 37.773,222.035 					"/>
				</g>
				<g>
					
						<polyline fill="#BF925C" stroke="#BF925C" stroke-width="1.0004" stroke-linecap="round" stroke-linejoin="round" stroke-miterlimit="10" points="
						159.493,222.035 156.793,167.367 156.807,100.314 98.633,100.314 40.461,100.314 					"/>
				</g>
				<g>
					
						<rect x="36.023" y="79.305" fill="#CA9E64" stroke="#CA9E64" stroke-width="1.0147" stroke-linecap="round" stroke-linejoin="round" stroke-miterlimit="10" width="125.222" height="21.009"/>
				</g>
			</g>
			<g>
				
					<polyline fill="#BF925C" stroke="#BF925C" stroke-width="1.0004" stroke-linecap="round" stroke-linejoin="round" stroke-miterlimit="10" points="
					159.493,222.035 156.793,167.367 156.807,100.314 98.633,100.314 40.461,100.314 				"/>
			</g>
		</g>
	</g>
</g>
<g id="_x33_">
</g>
<g id="_x34_">
</g>
<g id="_x35_">
</g>
</svg>
