<?xml version="1.0" encoding="utf-8"?>
<!-- Generator: Adobe Illustrator 17.1.0, SVG Export Plug-In . SVG Version: 6.00 Build 0)  -->
<!DOCTYPE svg PUBLIC "-//W3C//DTD SVG 1.1//EN" "http://www.w3.org/Graphics/SVG/1.1/DTD/svg11.dtd">
<svg version="1.1" id="Layer_1" xmlns="http://www.w3.org/2000/svg" xmlns:xlink="http://www.w3.org/1999/xlink" x="0px" y="0px"
	 width="130.491px" height="210.652px" viewBox="0 0 130.491 210.652" enable-background="new 0 0 130.491 210.652"
	 xml:space="preserve">
<g>
	<circle fill="#FFFFFF" stroke="#000000" stroke-width="12.0508" stroke-miterlimit="10" cx="91.125" cy="185.863" r="18.764"/>
</g>
<g>
	
		<path fill="#714622" stroke="#714622" stroke-width="3.2046" stroke-linecap="round" stroke-linejoin="round" stroke-miterlimit="10" d="
		M15.622,208.366h52.645c-6.465-5.828-10.553-14.244-10.553-23.634c0-17.587,14.258-31.847,31.846-31.847
		c8.831,0,16.821,3.599,22.589,9.407L128.889,1.602L15.622,208.366z"/>
</g>
<g>
	<g>
		<path fill="#7D4E24" d="M14.557,209.565c-0.307-0.273-0.505-0.66-0.534-1.09L0.004,1.711c-0.03-0.443,0.125-0.878,0.428-1.203
			C0.734,0.184,1.159,0,1.602,0h127.286c0.346,0,0.677,0.112,0.947,0.31L14.557,209.565z"/>
	</g>
</g>
</svg>
