<?xml version="1.0" encoding="utf-8"?>
<!-- Generator: Adobe Illustrator 17.0.0, SVG Export Plug-In . SVG Version: 6.00 Build 0)  -->
<!DOCTYPE svg PUBLIC "-//W3C//DTD SVG 1.1//EN" "http://www.w3.org/Graphics/SVG/1.1/DTD/svg11.dtd">
<svg version="1.1" id="Layer_1" xmlns="http://www.w3.org/2000/svg" xmlns:xlink="http://www.w3.org/1999/xlink" x="0px" y="0px"
	 width="170.395px" height="194.019px" viewBox="0 0 170.395 194.019" enable-background="new 0 0 170.395 194.019"
	 xml:space="preserve">
<g>
	<g>
		
			<polygon fill="#CA9E67" stroke="#CA9E67" stroke-width="1.3504" stroke-linecap="round" stroke-linejoin="round" stroke-miterlimit="10" points="
			167.347,193.344 163.703,119.552 163.72,6.312 85.198,6.312 6.676,6.312 6.692,119.552 3.048,193.344 		"/>
	</g>
	<g>
		
			<polyline fill="#C0925E" stroke="#C0925E" stroke-width="1.3504" stroke-linecap="round" stroke-linejoin="round" stroke-miterlimit="10" points="
			167.347,193.344 163.703,119.552 163.72,29.043 85.198,29.043 6.676,29.043 		"/>
	</g>
	<g>
		
			<rect x="0.685" y="0.685" fill="#CA9E67" stroke="#CA9E67" stroke-width="1.3697" stroke-linecap="round" stroke-linejoin="round" stroke-miterlimit="10" width="169.025" height="28.358"/>
	</g>
</g>
<g>
	<g>
		
			<polygon fill="#C89D64" stroke="#C89D64" stroke-width="1.3504" stroke-linecap="round" stroke-linejoin="round" stroke-miterlimit="10" points="
			168.094,194.179 164.45,120.387 164.467,7.147 85.945,7.147 7.423,7.147 7.439,120.387 3.795,194.179 		"/>
	</g>
	<g>
		
			<polyline fill="#BE915C" stroke="#BE915C" stroke-width="1.3504" stroke-linecap="round" stroke-linejoin="round" stroke-miterlimit="10" points="
			168.094,194.179 164.45,120.387 164.467,29.878 85.945,29.878 7.423,29.878 		"/>
	</g>
	<g>
		
			<rect x="1.432" y="1.52" fill="#C89D64" stroke="#C89D64" stroke-width="1.3697" stroke-linecap="round" stroke-linejoin="round" stroke-miterlimit="10" width="169.025" height="28.358"/>
	</g>
</g>
</svg>
