<?xml version="1.0" encoding="utf-8"?>
<!-- Generator: Adobe Illustrator 15.0.2, SVG Export Plug-In . SVG Version: 6.00 Build 0)  -->
<!DOCTYPE svg PUBLIC "-//W3C//DTD SVG 1.1//EN" "http://www.w3.org/Graphics/SVG/1.1/DTD/svg11.dtd">
<svg version="1.1" id="Lager_1" xmlns="http://www.w3.org/2000/svg" xmlns:xlink="http://www.w3.org/1999/xlink" x="0px" y="0px"
	 width="200.961px" height="259.292px" viewBox="0 0 200.961 259.292" enable-background="new 0 0 200.961 259.292"
	 xml:space="preserve">
<g>
	<g>
		<path fill="#EEEDED" d="M77.148,34.134l-4.258-4.15l-7.894-7.693l-0.702-0.651l-8.579,0.139c-3.309,0.052-6.031-2.255-6.078-5.152
			l0,0c-0.047-2.898,2.601-5.29,5.909-5.344l2.422-0.04l1.749-0.028L59.7,9.466l-0.022-2.422C59.647,3.735,61.968,1.028,64.867,1
			l0,0c2.898-0.029,5.274,2.633,5.307,5.943l0.083,8.579l0.669,0.685l7.894,7.693l4.259,4.151L77.148,34.134z"/>
	</g>
	<g>
		
			<path fill="none" stroke="#CBCACA" stroke-width="1.9728" stroke-linecap="round" stroke-linejoin="round" stroke-miterlimit="10" d="
			M64.867,1"/>
	</g>
	<g>
		
			<path fill="#CA9E67" stroke="#CA9E67" stroke-width="1.9728" stroke-linecap="round" stroke-linejoin="round" stroke-miterlimit="10" d="
			M117.542,77.375c1.227,1.195,2.172,2.569,2.841,4.04c2.383-0.727,4.537-1.982,6.298-3.789l1.159-1.189
			c6.993-7.176,5.164-20.302-4.086-29.317c-4.626-4.508-10.23-7.134-15.554-7.737c0,0-14.539-1.067-22.926-9.241l-5.969,6.125
			c8.387,8.174,9.828,22.681,9.828,22.681c0.741,5.304,3.51,10.84,8.135,15.348c0.823,0.802,1.679,1.542,2.557,2.225
			C105.025,72.34,112.643,72.602,117.542,77.375z"/>
	</g>
	<g>
		
			<path fill="#BD8855" stroke="#BD8855" stroke-width="1.9728" stroke-linecap="round" stroke-linejoin="round" stroke-miterlimit="10" d="
			M117.542,77.375c1.227,1.195,2.172,2.569,2.841,4.04c2.383-0.727,4.537-1.982,6.298-3.789L82.29,33.204l-2.985,3.062
			c8.387,8.174,9.828,22.681,9.828,22.681c0.741,5.304,3.51,10.84,8.135,15.348c0.823,0.802,1.679,1.542,2.557,2.225
			C105.025,72.34,112.643,72.602,117.542,77.375z"/>
	</g>
</g>
<g>
	
		<path fill="#90AFB0" stroke="#90AFB0" stroke-width="4.6247" stroke-linecap="round" stroke-linejoin="round" stroke-miterlimit="10" d="
		M49.873,54.446c0,0,12.368,25.863,38.536,25.099c20.969-15.678,14.566-43.623,14.566-43.623
		C79.246,53.278,49.873,54.446,49.873,54.446z"/>
</g>
<g>
	
		<path fill="#6F989E" stroke="#6F989E" stroke-width="4.6247" stroke-linecap="round" stroke-linejoin="round" stroke-miterlimit="10" d="
		M78.441,48.514c7.927-2.747,16.549-6.753,24.534-12.593c0,0,6.262,27.333-13.885,43.102L78.441,48.514z"/>
</g>
<g>
	
		<path fill="#FBD15B" stroke="#FBD15B" stroke-width="0.979" stroke-linecap="round" stroke-linejoin="round" stroke-miterlimit="10" d="
		M42.994,214.387c0,9.315-7.552,16.866-16.866,16.866l0,0c-9.315,0-16.866-7.551-16.866-16.866V17.867
		c0-9.314,7.552-16.866,16.866-16.866l0,0c9.314,0,16.866,7.552,16.866,16.866V214.387z"/>
	<path fill="#F9B71F" stroke="#F9B71F" stroke-width="0.979" stroke-miterlimit="10" d="M26.128,1L26.128,1
		C16.813,1,9.262,8.552,9.262,17.866v196.52c0,9.314,7.552,16.866,16.866,16.866l0,0V1z"/>
</g>
<g>
	
		<path fill="#662682" stroke="#662682" stroke-width="1.5301" stroke-linecap="round" stroke-linejoin="round" stroke-miterlimit="10" d="
		M163.502,113.347c0,13.52-12.653,24.48-26.174,24.48l0,0c-13.518,0-26.172-10.962-26.172-24.48l5.926-62.105
		c0-13.521,6.729-24.48,20.246-24.48l0,0c13.52,0,20.25,10.959,20.25,24.48L163.502,113.347z"/>
	
		<path fill="#492569" stroke="#492569" stroke-width="1.5301" stroke-linecap="round" stroke-linejoin="round" stroke-miterlimit="10" d="
		M137.329,26.762L137.329,26.762c-13.518,0-20.246,10.959-20.246,24.48l-5.926,62.105c0,13.52,12.654,24.48,26.172,24.48l0,0V26.762
		z"/>
	<g>
		
			<path fill="#017E41" stroke="#017E41" stroke-width="1.4076" stroke-linecap="round" stroke-linejoin="round" stroke-miterlimit="10" d="
			M158.236,10.259c-12.26,0.349-18.375,4.579-18.375,4.579l-0.258-12.071l-1.804,0.038l-1.805,0.039l0.313,14.673
			c0,0-8.175-7.45-20.437-7.277c9.967,4.451,11.98,7.496,11.98,7.496s-13.355,0.659-19.938,9.863c0,0,13.379-7.971,30.488-6.225
			C138.403,21.374,144.418,13.325,158.236,10.259z"/>
	</g>
</g>
<g>
	<g>
		<g>
			<ellipse fill="#452B1A" stroke="#452B1A" stroke-miterlimit="10" cx="112.815" cy="73.495" rx="0.875" ry="1.992"/>
		</g>
	</g>
	<g>
		<g>
			<ellipse fill="#452B1A" stroke="#452B1A" stroke-miterlimit="10" cx="119.315" cy="73.495" rx="0.875" ry="1.992"/>
		</g>
	</g>
</g>
<g>
	<g>
		
			<path fill="#42AB39" stroke="#42AB39" stroke-width="0.8522" stroke-linecap="round" stroke-linejoin="round" stroke-miterlimit="10" d="
			M133.169,91.496c0,3.468-3.198,9.097-7.144,9.097c0,0-1.867-0.021-4.852-0.919c-2.562-0.773-4.971-0.753-5.08-0.753h-0.186
			c-0.108,0-2.518-0.02-5.08,0.753c-2.982,0.898-4.85,0.919-4.85,0.919c-3.944,0-7.145-5.629-7.145-9.097H133.169z"/>
	</g>
</g>
<g>
	
		<path fill="none" stroke="#595958" stroke-width="4.6247" stroke-linecap="round" stroke-linejoin="round" stroke-miterlimit="10" d="
		M18.366,108.565c0,0,23.632,0.518,43.413-12.42"/>
</g>
<g>
	
		<path fill="none" stroke="#595958" stroke-width="4.6247" stroke-linecap="round" stroke-linejoin="round" stroke-miterlimit="10" d="
		M18.041,90.984c0,0,19.041,0.994,35.785-8.127"/>
</g>
<g>
	
		<path fill="none" stroke="#595958" stroke-width="4.6247" stroke-linecap="round" stroke-linejoin="round" stroke-miterlimit="10" d="
		M21.356,73.974c0,0,13.975,1.291,26.557-4.928"/>
</g>
<g>
	
		<circle fill="#FFFFFF" stroke="#FFFFFF" stroke-width="4.6247" stroke-linecap="round" stroke-linejoin="round" stroke-miterlimit="10" cx="43.335" cy="134.901" r="5.106"/>
</g>
<g>
	<circle fill="#020304" cx="43.335" cy="134.901" r="2.271"/>
</g>
<g>
	<path fill="#FCC10D" stroke="#FCC10D" stroke-linecap="round" stroke-linejoin="round" stroke-miterlimit="10" d="M134.455,115.995
		"/>
</g>
<g>
	<circle fill="#655044" cx="116.321" cy="91.584" r="0.694"/>
</g>
<g>
	<circle fill="#655044" cx="114.051" cy="94.346" r="0.694"/>
</g>
<g>
	<circle fill="#655044" cx="111.481" cy="96.544" r="0.694"/>
</g>
<g>
	<circle fill="#655044" cx="113.348" cy="97.937" r="0.694"/>
</g>
<g>
	<circle fill="#655044" cx="110.776" cy="100.899" r="0.694"/>
</g>
<g>
	<circle fill="#655044" cx="112.643" cy="102.497" r="0.694"/>
</g>
<g>
	<circle fill="#655044" cx="114.061" cy="89.697" r="0.694"/>
</g>
<g>
	<circle fill="#655044" cx="116.55" cy="86.37" r="0.694"/>
</g>
<polygon fill="#C89D64" stroke="#C89D64" stroke-width="1.3504" stroke-linecap="round" stroke-linejoin="round" stroke-miterlimit="10" points="
	168.012,258.617 164.368,184.824 164.384,71.585 85.862,71.585 7.341,71.585 7.356,184.824 3.713,258.617 "/>
<g>
	<g>
		
			<path fill="#E6352B" stroke="#E6352B" stroke-width="1.1541" stroke-linecap="round" stroke-linejoin="round" stroke-miterlimit="10" d="
			M32.399,96.506c17.94-4.616,31.066-19.42,31.066-36.969c0-17.55-13.126-24.731-31.068-26.697L32.399,96.506z"/>
	</g>
	<g>
		
			<path fill="#F08479" stroke="#F08479" stroke-width="0.5708" stroke-linecap="round" stroke-linejoin="round" stroke-miterlimit="10" d="
			M32.228,75.74c8.874-2.283,15.367-9.604,15.367-18.285s-6.494-12.232-15.367-13.206L32.228,75.74z"/>
	</g>
	<g>
		
			<path fill="#FFE19D" stroke="#FFE19D" stroke-width="0.1268" stroke-linecap="round" stroke-linejoin="round" stroke-miterlimit="10" d="
			M47.176,45.248c0.75-0.884,0.881-2.005,0.291-2.506c-0.588-0.5-1.674-0.189-2.424,0.693c-0.751,0.884-1.091,2.252-0.502,2.753
			C45.13,46.688,46.426,46.131,47.176,45.248z"/>
	</g>
	<g>
		
			<path fill="#FFE19D" stroke="#FFE19D" stroke-width="0.1268" stroke-linecap="round" stroke-linejoin="round" stroke-miterlimit="10" d="
			M51.407,51.732c1.042-0.508,1.61-1.483,1.272-2.18c-0.339-0.692-1.458-0.844-2.5-0.335c-1.042,0.508-1.902,1.625-1.564,2.32
			C48.955,52.232,50.366,52.241,51.407,51.732z"/>
	</g>
	<g>
		
			<path fill="#FFE19D" stroke="#FFE19D" stroke-width="0.1268" stroke-linecap="round" stroke-linejoin="round" stroke-miterlimit="10" d="
			M52.34,59.56c1.159-0.024,2.083-0.669,2.069-1.444c-0.015-0.772-0.969-1.378-2.127-1.354c-1.159,0.023-2.41,0.677-2.393,1.449
			C49.904,58.986,51.181,59.583,52.34,59.56z"/>
	</g>
	<g>
		
			<path fill="#FFE19D" stroke="#FFE19D" stroke-width="0.1268" stroke-linecap="round" stroke-linejoin="round" stroke-miterlimit="10" d="
			M47.426,71.447c0.75,0.884,0.88,2.005,0.291,2.506c-0.588,0.501-1.674,0.189-2.424-0.694c-0.75-0.882-1.091-2.251-0.501-2.751
			C45.379,70.006,46.675,70.564,47.426,71.447z"/>
	</g>
	<g>
		
			<path fill="#FFE19D" stroke="#FFE19D" stroke-width="0.1268" stroke-linecap="round" stroke-linejoin="round" stroke-miterlimit="10" d="
			M51.407,64.588c1.042,0.509,1.61,1.483,1.272,2.18c-0.339,0.693-1.458,0.844-2.5,0.336c-1.042-0.508-1.902-1.626-1.564-2.321
			C48.955,64.089,50.366,64.081,51.407,64.588z"/>
	</g>
</g>
<polyline fill="#BE915C" stroke="#BE915C" stroke-width="1.3504" stroke-linecap="round" stroke-linejoin="round" stroke-miterlimit="10" points="
	168.012,258.617 164.368,184.824 164.384,94.316 85.862,94.316 7.341,94.316 "/>
<rect x="1.351" y="65.958" fill="#C89D64" stroke="#C89D64" stroke-width="1.3697" stroke-linecap="round" stroke-linejoin="round" stroke-miterlimit="10" width="169.024" height="28.358"/>
</svg>
