<?xml version="1.0" encoding="utf-8"?>
<!-- Generator: Adobe Illustrator 15.0.2, SVG Export Plug-In . SVG Version: 6.00 Build 0)  -->
<!DOCTYPE svg PUBLIC "-//W3C//DTD SVG 1.1//EN" "http://www.w3.org/Graphics/SVG/1.1/DTD/svg11.dtd">
<svg version="1.1" id="Lager_1" xmlns="http://www.w3.org/2000/svg" xmlns:xlink="http://www.w3.org/1999/xlink" x="0px" y="0px"
	 width="239.908px" height="147.224px" viewBox="0 0 239.908 147.224" enable-background="new 0 0 239.908 147.224"
	 xml:space="preserve">
<g>
	<line opacity="0.4" fill="#AED8E5" x1="64.898" y1="0" x2="92.667" y2="0"/>
	<g>
		
			<rect x="2.351" y="45.813" fill="#FFFFFF" stroke="#FFFFFF" stroke-width="0.9211" stroke-miterlimit="10" width="235.205" height="100.844"/>
		<path opacity="0.9" fill="#A18779" stroke="#A18779" stroke-width="0.46" stroke-miterlimit="10" d="M145.294,106.068"/>
		<path opacity="0.93" fill="#C4DFE9" d="M156.863,57.973"/>
		<path opacity="0.9" fill="#A18779" stroke="#A18779" stroke-width="0.46" stroke-miterlimit="10" d="M155.732,105.863"/>
		
			<rect x="2.933" y="45.813" fill="#F6F4F5" stroke="#F6F4F5" stroke-width="0.9212" stroke-miterlimit="10" width="117.623" height="100.844"/>
		
			<rect x="0.462" y="37.677" fill="#C4C5C7" stroke="#C4C5C7" stroke-width="0.9211" stroke-miterlimit="10" width="238.984" height="7.405"/>
		
			<rect x="0.462" y="37.677" fill="#B1B2B3" stroke="#B1B2B3" stroke-width="0.9246" stroke-miterlimit="10" width="120.406" height="7.405"/>
		<g>
			<g>
				<path fill="#E75441" stroke="#E75441" stroke-width="1.3554" stroke-miterlimit="10" d="M64.179,34.297h-1.281v-2.354
					c0-7.153-1.754-10.729-5.262-10.729c-0.738,0-1.441,0.19-2.109,0.572c-0.67,0.38-1.137,0.716-1.404,1.004
					c-0.262,0.288-0.605,0.708-1.02,1.262v10.245h-1.281V10.07h1.281v11.939l9.346-11.974h1.766l-8.031,10.106
					c0.553-0.139,1.096-0.208,1.627-0.208c1.959,0,3.514,0.945,4.656,2.838c1.141,1.893,1.713,4.811,1.713,8.756V34.297z"/>
				<path fill="#E75441" stroke="#E75441" stroke-width="1.3554" stroke-miterlimit="10" d="M80.167,11.87v22.428h-1.281V22.876
					h-9.828v11.421h-1.279V18.445c0-2.491,0.795-4.532,2.387-6.124c1.592-1.593,3.588-2.388,5.986-2.388
					C77.906,9.933,79.246,10.579,80.167,11.87z M78.886,21.595v-9.24c-0.738-0.762-1.672-1.144-2.801-1.144
					c-2.033,0-3.711,0.74-5.037,2.217c-1.326,1.476-1.99,3.16-1.99,5.052v3.115H78.886z"/>
				<path fill="#E75441" stroke="#E75441" stroke-width="1.3554" stroke-miterlimit="10" d="M83.353,29.106h1.279
					c0.047,1.753,0.484,2.908,1.314,3.462c0.625,0.392,1.234,0.587,1.834,0.587c1.639,0,2.896-0.559,3.773-1.677
					c0.877-1.121,1.314-2.983,1.314-5.591V10.07h1.281v15.852c0,5.676-2.145,8.514-6.438,8.514c-0.877,0-1.777-0.299-2.699-0.898
					c-0.484-0.348-0.883-0.9-1.195-1.66C83.509,31.116,83.353,30.19,83.353,29.106z"/>
				<path fill="#E75441" stroke="#E75441" stroke-width="1.3554" stroke-miterlimit="10" d="M107.269,30.628
					c1.035-0.899,1.555-1.994,1.555-3.288c0-1.292-0.375-2.323-1.123-3.098c-0.75-0.771-1.656-1.351-2.717-1.729
					c-1.061-0.381-2.129-0.767-3.203-1.159c-1.072-0.394-1.984-0.986-2.732-1.782c-0.75-0.797-1.127-1.818-1.127-3.064
					c0-2.168,0.607-3.782,1.818-4.846c1.213-1.06,2.658-1.592,4.344-1.592c1.684,0,3.531,0.162,5.537,0.484v1.28
					c-1.799-0.322-3.484-0.482-5.053-0.482s-2.855,0.438-3.859,1.313c-1.004,0.879-1.506,2.112-1.506,3.704
					c0,1.384,0.715,2.423,2.145,3.114c0.648,0.324,1.357,0.624,2.129,0.9c0.773,0.277,1.553,0.588,2.338,0.934
					c0.783,0.347,1.494,0.756,2.129,1.229c0.635,0.475,1.152,1.133,1.555,1.976c0.406,0.84,0.609,1.822,0.609,2.94
					c0,1.119-0.262,2.104-0.781,2.959s-1.158,1.522-1.922,2.006c-0.76,0.485-1.646,0.88-2.664,1.179
					c-1.637,0.509-3.482,0.761-5.537,0.761h-0.863v-1.281C102.445,33.085,105.421,32.267,107.269,30.628z"/>
			</g>
			<g>
				<path fill="#E75441" stroke="#E75441" stroke-width="0.6777" stroke-miterlimit="10" d="M128.001,34.035l0.045-14.318
					l-3.723,8.543h-0.76l-3.725-8.543v14.318h-0.779V18.401h1.07l3.814,8.742l3.789-8.742h1.094v15.634H128.001z"/>
				<path fill="#E75441" stroke="#E75441" stroke-width="0.6777" stroke-miterlimit="10" d="M138.396,22.883h0.824v11.173
					c-0.891,0-1.672-0.036-2.342-0.109c-0.67-0.076-1.365-0.236-2.084-0.48c-0.723-0.245-1.312-0.575-1.773-0.994
					c-0.461-0.415-0.84-0.991-1.139-1.727c-0.297-0.737-0.445-1.564-0.445-2.486c0-0.924,0.092-1.715,0.279-2.376
					c0.186-0.662,0.424-1.19,0.713-1.584c0.289-0.393,0.613-0.717,0.971-0.969c0.625-0.463,1.242-0.692,1.852-0.692
					c1.115,0,2.164,0.528,3.145,1.583V22.883z M132.263,28.146c0,1.949,0.602,3.302,1.805,4.061
					c1.072,0.668,2.514,1.003,4.328,1.003v-7.873c-0.506-0.579-0.992-1.037-1.461-1.372c-0.469-0.334-0.986-0.502-1.551-0.502
					c-0.936,0-1.691,0.413-2.264,1.239C132.546,25.526,132.263,26.675,132.263,28.146z"/>
				<path fill="#E75441" stroke="#E75441" stroke-width="0.6777" stroke-miterlimit="10" d="M143.546,23.709h-2.564v-0.826h2.564
					v-3.68h0.826v3.68h2.586v0.826h-2.586v10.325h-0.826V23.709z"/>
				<path fill="#E75441" stroke="#E75441" stroke-width="0.6777" stroke-miterlimit="10" d="M148.72,17.308h0.824v6.913
					c0.953-1.055,1.963-1.583,3.033-1.583c0.818,0,1.637,0.364,2.455,1.094c0.432,0.371,0.783,0.935,1.059,1.693
					s0.412,1.647,0.412,2.665c0,1.019-0.146,1.899-0.445,2.645c-0.299,0.743-0.678,1.322-1.137,1.737
					c-0.463,0.419-1.053,0.749-1.775,0.994c-0.723,0.244-1.414,0.404-2.082,0.48c-0.672,0.073-1.451,0.109-2.344,0.109V17.308z
					 M155.679,28.281c0-1.517-0.291-2.698-0.869-3.546c-0.58-0.848-1.332-1.272-2.254-1.272c-0.92,0-1.926,0.626-3.012,1.874v7.873
					C153.634,33.209,155.679,31.566,155.679,28.281z"/>
				<path fill="#E75441" stroke="#E75441" stroke-width="0.6777" stroke-miterlimit="10" d="M159.648,22.883l-0.021,5.887
					c0,1.251,0.301,2.341,0.902,3.269c0.604,0.929,1.354,1.395,2.254,1.395c0.898,0,1.891-0.618,2.977-1.853v-8.697h0.824v11.151
					h-0.824v-1.338c-0.967,1.04-2.016,1.561-3.145,1.561c-0.756,0-1.539-0.356-2.342-1.069c-0.432-0.388-0.785-0.96-1.059-1.718
					c-0.277-0.759-0.414-1.65-0.414-2.678l0.023-5.909H159.648z"/>
				<path fill="#E75441" stroke="#E75441" stroke-width="0.6777" stroke-miterlimit="10" d="M170.91,23.709h-2.564v-0.826h2.564
					v-3.68h0.826v3.68h2.588v0.826h-2.588v10.325h-0.826V23.709z"/>
				<path fill="#E75441" stroke="#E75441" stroke-width="0.6777" stroke-miterlimit="10" d="M176.91,34.035h-0.826V22.883h0.826
					V34.035z M176.128,19.204h0.826v1.918h-0.826V19.204z"/>
				<path fill="#E75441" stroke="#E75441" stroke-width="0.6777" stroke-miterlimit="10" d="M188.039,34.035h-0.826v-1.517
					c0-1.233-0.271-2.294-0.814-3.178s-1.205-1.329-1.984-1.329c-0.781,0-1.535,0.328-2.266,0.983l-1.291,1.359v3.681h-0.826V17.308
					h0.826v11.844l6.043-6.29h1.139l-4.193,4.393c0.18-0.044,0.404-0.066,0.682-0.066c0.273,0,0.602,0.085,0.979,0.256
					c0.381,0.171,0.766,0.438,1.162,0.803c0.393,0.366,0.721,0.897,0.98,1.596c0.26,0.699,0.391,1.502,0.391,2.407V34.035z"/>
			</g>
		</g>
		<g>
			<rect x="18.74" y="121.198" fill="#E75441" width="50.732" height="14.855"/>
			<g>
				<rect x="18.74" y="60.299" opacity="0.24" fill="#279BD2" width="50.732" height="60.898"/>
				<polygon opacity="0.15" fill="#279BD2" points="18.74,60.299 18.74,121.198 69.472,121.198 				"/>
			</g>
		</g>
		<g>
			<rect x="177.269" y="64.375" opacity="0.24" fill="#279BD2" width="39.135" height="56.823"/>
			<polygon opacity="0.15" fill="#279BD2" points="177.269,64.375 177.271,121.694 216.404,121.694 			"/>
		</g>
		<path opacity="0.93" fill="#C4DFE9" d="M106.423,57.195"/>
		<path opacity="0.9" fill="#A18779" stroke="#A18779" stroke-width="0.46" stroke-miterlimit="10" d="M109.494,106.305"/>
		<path opacity="0.9" fill="#A18779" stroke="#A18779" stroke-width="0.46" stroke-miterlimit="10" d="M119.931,106.1"/>
		<path fill="#E75441" d="M216.404,60.299h-39.135h-3.838v4.075v56.823l0,0v26.026h46.811v-25.53v-0.496V64.375v-4.075H216.404z
			 M216.404,121.198h-39.135V64.375h39.135V121.198z"/>
		<g>
			
				<rect x="97.197" y="60.539" fill="#FFFFFF" stroke="#E75441" stroke-width="2.4311" stroke-miterlimit="10" width="48.508" height="74.735"/>
			<g>
				<path fill="#E75441" stroke="#E75441" stroke-width="0.1494" stroke-miterlimit="10" d="M108.816,66.927l-2.309,3.833v0.469
					c0,1.408,0.17,2.3,0.512,2.667c0.158,0.169,0.363,0.253,0.611,0.253c0.434,0,0.883-0.244,1.338-0.73v0.521
					c-0.428,0.408-0.895,0.611-1.404,0.611c-0.646,0-1.064-0.422-1.254-1.264c-0.105-0.48-0.178-1.119-0.205-1.916l-2.082,3.18
					h-0.469l2.496-3.877v-0.447c0-1.03-0.094-1.77-0.283-2.211c-0.078-0.19-0.197-0.353-0.355-0.489
					c-0.156-0.139-0.342-0.208-0.559-0.208c-0.422,0-0.861,0.243-1.318,0.729v-0.521c0.436-0.407,0.914-0.61,1.434-0.61
					c0.518,0,0.889,0.259,1.109,0.778c0.223,0.519,0.348,1.3,0.385,2.348l1.949-3.115H108.816z"/>
				<path fill="#E75441" stroke="#E75441" stroke-width="0.1494" stroke-miterlimit="10" d="M111.933,71.751h-2.615v-0.402h2.615
					V71.751z"/>
				<path fill="#E75441" stroke="#E75441" stroke-width="0.1494" stroke-miterlimit="10" d="M113.587,69.507h-1.252v-0.402h1.252
					v-1.797h0.402v1.797h1.266v0.402h-1.266v5.044h-0.402V69.507z"/>
				<path fill="#E75441" stroke="#E75441" stroke-width="0.1494" stroke-miterlimit="10" d="M116.517,74.551h-0.402v-5.446h0.402
					v0.796c0.152-0.181,0.385-0.378,0.703-0.584c0.314-0.207,0.615-0.31,0.902-0.31c0.285,0,0.539,0.081,0.752,0.244
					c0.213,0.164,0.324,0.43,0.332,0.8h-0.404c0-0.202-0.062-0.362-0.193-0.477c-0.131-0.117-0.311-0.175-0.533-0.175
					c-0.225,0-0.5,0.107-0.822,0.326c-0.326,0.218-0.568,0.457-0.736,0.719V74.551z"/>
				<path fill="#E75441" stroke="#E75441" stroke-width="0.1494" stroke-miterlimit="10" d="M123.162,69.105h0.402v5.456
					c-0.436,0-0.816-0.018-1.145-0.053c-0.326-0.037-0.666-0.115-1.018-0.235c-0.354-0.12-0.641-0.28-0.865-0.484
					c-0.227-0.205-0.412-0.484-0.557-0.844c-0.145-0.36-0.217-0.765-0.217-1.215c0-0.451,0.045-0.837,0.137-1.16
					c0.09-0.322,0.207-0.58,0.348-0.774c0.143-0.19,0.301-0.349,0.475-0.472c0.303-0.227,0.605-0.339,0.904-0.339
					c0.545,0,1.057,0.259,1.535,0.773V69.105z M120.166,71.675c0,0.952,0.295,1.612,0.881,1.983c0.525,0.326,1.229,0.49,2.115,0.49
					v-3.846c-0.248-0.283-0.484-0.508-0.715-0.67c-0.229-0.163-0.48-0.244-0.756-0.244c-0.457,0-0.826,0.2-1.105,0.604
					C120.304,70.395,120.166,70.957,120.166,71.675z"/>
				<path fill="#E75441" stroke="#E75441" stroke-width="0.1494" stroke-miterlimit="10" d="M125.492,77.273h-0.402v-8.168h0.402
					v0.653c0.479-0.515,0.992-0.773,1.535-0.773c0.299,0,0.6,0.112,0.904,0.339c0.639,0.464,0.961,1.244,0.961,2.341
					c0,1.292-0.484,2.139-1.451,2.538c-0.492,0.202-1.145,0.319-1.949,0.349V77.273z M128.259,72.883
					c0.152-0.332,0.227-0.77,0.227-1.311s-0.146-1.042-0.439-1.498c-0.295-0.457-0.654-0.686-1.084-0.686
					c-0.277,0-0.527,0.081-0.758,0.244c-0.229,0.162-0.467,0.387-0.713,0.67v3.846C126.953,74.149,127.875,73.726,128.259,72.883z"
					/>
				<path fill="#E75441" stroke="#E75441" stroke-width="0.1494" stroke-miterlimit="10" d="M130.458,74.551h-0.402v-5.446h0.402
					v0.796c0.152-0.181,0.387-0.378,0.703-0.584c0.316-0.207,0.617-0.31,0.904-0.31c0.285,0,0.535,0.081,0.752,0.244
					c0.213,0.164,0.324,0.43,0.332,0.8h-0.404c0-0.202-0.064-0.362-0.195-0.477c-0.131-0.117-0.309-0.175-0.535-0.175
					c-0.223,0-0.498,0.107-0.82,0.326c-0.324,0.218-0.57,0.457-0.736,0.719V74.551z"/>
				<path fill="#E75441" stroke="#E75441" stroke-width="0.1494" stroke-miterlimit="10" d="M134.478,74.551h-0.402v-5.446h0.402
					V74.551z M134.097,67.308h0.402v0.937h-0.402V67.308z"/>
				<path fill="#E75441" stroke="#E75441" stroke-width="0.1494" stroke-miterlimit="10" d="M137.796,73.996
					c0.438-0.117,0.742-0.266,0.912-0.447c0.172-0.181,0.256-0.426,0.256-0.734c0-0.311-0.115-0.55-0.348-0.725
					c-0.232-0.173-0.514-0.289-0.844-0.338c-0.33-0.051-0.662-0.108-0.992-0.17c-0.33-0.061-0.611-0.196-0.844-0.407
					s-0.35-0.516-0.35-0.916c0-0.841,0.656-1.264,1.963-1.264c0.479,0,1.033,0.052,1.666,0.152v0.428
					c-0.654-0.117-1.203-0.175-1.645-0.175c-0.443,0-0.818,0.062-1.127,0.189c-0.311,0.127-0.463,0.343-0.463,0.644
					c0,0.3,0.115,0.533,0.348,0.695c0.232,0.164,0.514,0.275,0.844,0.339c0.332,0.062,0.664,0.133,0.996,0.212
					c0.334,0.08,0.617,0.237,0.852,0.476c0.23,0.235,0.348,0.566,0.348,0.995c0,0.53-0.205,0.911-0.621,1.145
					c-0.203,0.116-0.4,0.207-0.59,0.276c-0.188,0.07-0.438,0.116-0.748,0.138c-0.496,0.043-0.967,0.063-1.418,0.063h-0.271V74.17
					C136.664,74.17,137.355,74.112,137.796,73.996z"/>
			</g>
			<g>
				<path fill="#575759" stroke="#575759" stroke-width="0.1271" stroke-miterlimit="10" d="M106.55,86.384l-0.01-6.29
					c0.926,0.029,1.623,0.157,2.094,0.38c0.473,0.226,0.707,0.558,0.707,1.003c0,0.444-0.125,0.773-0.375,0.989
					c-0.252,0.215-0.557,0.346-0.914,0.394c0.471,0.043,0.873,0.206,1.203,0.492c0.332,0.286,0.498,0.703,0.498,1.257
					c0,0.552-0.275,0.983-0.818,1.297C108.388,86.22,107.593,86.378,106.55,86.384z M109.011,81.473
					c0-0.335-0.193-0.592-0.574-0.771c-0.381-0.18-0.904-0.269-1.566-0.269v2.273C108.296,82.689,109.011,82.277,109.011,81.473z
					 M109.421,84.558c0-0.31-0.088-0.569-0.26-0.778c-0.174-0.208-0.406-0.356-0.697-0.447c-0.488-0.16-1.018-0.24-1.584-0.24v2.953
					c0.482-0.007,0.9-0.062,1.252-0.166c0.354-0.104,0.619-0.238,0.797-0.398C109.259,85.176,109.421,84.869,109.421,84.558z"/>
				<path fill="#575759" stroke="#575759" stroke-width="0.1271" stroke-miterlimit="10" d="M113.914,80.56v5.796h-0.332v-2.951
					h-2.541v2.951h-0.33V82.26c0-0.644,0.205-1.173,0.617-1.585c0.41-0.411,0.928-0.617,1.547-0.617
					C113.33,80.058,113.675,80.227,113.914,80.56z M113.582,83.076v-2.392c-0.189-0.195-0.432-0.295-0.725-0.295
					c-0.523,0-0.959,0.191-1.301,0.572c-0.344,0.383-0.516,0.818-0.516,1.307v0.808H113.582z"/>
				<path fill="#575759" stroke="#575759" stroke-width="0.1271" stroke-miterlimit="10" d="M115.587,80.659v5.697h-0.33v-6.271
					h0.473l2.398,5.514v-5.504h0.33v6.262h-0.33L115.587,80.659z"/>
				<path fill="#575759" stroke="#575759" stroke-width="0.1271" stroke-miterlimit="10" d="M122.968,80.56v5.796h-0.332v-2.951
					h-2.541v2.951h-0.332V82.26c0-0.644,0.207-1.173,0.619-1.585c0.41-0.411,0.928-0.617,1.547-0.617
					C122.382,80.058,122.73,80.227,122.968,80.56z M122.636,83.076v-2.392c-0.191-0.195-0.432-0.295-0.725-0.295
					c-0.525,0-0.959,0.191-1.301,0.572c-0.344,0.383-0.516,0.818-0.516,1.307v0.808H122.636z"/>
				<path fill="#575759" stroke="#575759" stroke-width="0.1271" stroke-miterlimit="10" d="M124.642,80.659v5.697h-0.332v-6.271
					h0.475l2.396,5.514v-5.504h0.332v6.262h-0.332L124.642,80.659z"/>
				<path fill="#575759" stroke="#575759" stroke-width="0.1271" stroke-miterlimit="10" d="M128.875,86.356v-6.262h3.203v0.332
					h-2.873v2.291h2.873v0.329h-2.873v2.98h2.873v0.329H128.875z"/>
				<path fill="#575759" stroke="#575759" stroke-width="0.1271" stroke-miterlimit="10" d="M136.361,86.356h-0.402l-1.734-2.656
					c-0.223,0.032-0.467,0.052-0.732,0.063v2.593h-0.334v-6.271c1.998,0.008,2.998,0.605,2.998,1.801
					c0,0.96-0.525,1.548-1.574,1.762L136.361,86.356z M133.492,83.405l0.088,0.009c1.498-0.023,2.246-0.524,2.246-1.503
					c0-0.274-0.064-0.502-0.193-0.684s-0.273-0.324-0.434-0.425c-0.381-0.238-0.951-0.363-1.707-0.376V83.405z"/>
			</g>
			<g>
				<g>
					<polygon fill="#E75441" points="140.175,120.851 143.451,114.663 146.589,120.925 153.283,118.865 151.076,125.508 
						157.265,128.784 151.003,131.923 153.064,138.614 146.419,136.408 143.142,142.597 140.005,136.337 133.312,138.395 
						135.519,131.75 129.332,128.476 135.591,125.336 133.531,118.645 					"/>
				</g>
				<path fill="#FFFFFF" stroke="#FFFFFF" stroke-width="0.1927" stroke-miterlimit="10" d="M139.218,131.986h-0.363v-6.174
					l-1.439,0.651v-0.354l1.803-0.834V131.986z"/>
				<path fill="#FFFFFF" stroke="#FFFFFF" stroke-width="0.1927" stroke-miterlimit="10" d="M144.732,128.689
					c0,1.053-0.18,1.864-0.539,2.429c-0.357,0.564-0.877,0.849-1.557,0.849c-0.682,0-1.219-0.289-1.611-0.863
					c-0.391-0.573-0.588-1.392-0.588-2.449s0.189-1.868,0.574-2.436c0.383-0.567,0.93-0.849,1.639-0.849
					C144.037,125.37,144.732,126.477,144.732,128.689z M144.375,128.53c0-0.885-0.146-1.571-0.445-2.057
					c-0.295-0.486-0.73-0.727-1.297-0.727c-0.57,0-1.02,0.24-1.348,0.727c-0.328,0.485-0.496,1.215-0.496,2.186
					c0,1.139,0.26,1.972,0.777,2.502c0.289,0.295,0.617,0.44,0.988,0.44c0.369,0,0.676-0.082,0.912-0.248
					c0.234-0.165,0.418-0.395,0.547-0.681C144.253,130.13,144.375,129.415,144.375,128.53z"/>
				<path fill="#FFFFFF" stroke="#FFFFFF" stroke-width="0.1927" stroke-miterlimit="10" d="M146.935,127.537h-0.74v-0.908h0.74
					V127.537z M146.935,131.467h-0.74v-0.909h0.74V131.467z"/>
				<path fill="#FFFFFF" stroke="#FFFFFF" stroke-width="0.1927" stroke-miterlimit="10" d="M150.242,129.003h-2.299v-0.354h2.299
					V129.003z"/>
			</g>
		</g>
		<g>
			<g>
				<g>
					
						<path fill="#FFD607" stroke="#FFD607" stroke-width="0.1874" stroke-linecap="round" stroke-linejoin="round" stroke-miterlimit="10" d="
						M133.699,112.819c-6.334,1.628-12.105-0.762-15.805-4.345c-3.701-3.582-5.268-8.538-4.672-13.285l-3.092-0.515
						c-3.316,6.062-2.332,13.818,2.869,18.857c5.205,5.036,13.896,6.279,21.076,1.04L133.699,112.819z"/>
				</g>
				<g>
					
						<path fill="#FAC108" stroke="#FAC108" stroke-width="0.1874" stroke-linecap="round" stroke-linejoin="round" stroke-miterlimit="10" d="
						M134.076,114.572c-6.916,5.104-15.598,4.261-21.076-1.04c-5.201-5.039-6.186-12.795-2.869-18.857l1.33,0.222
						c-1.709,5.494-0.336,11.731,4.082,16.011c4.42,4.275,12.715,5.657,18.361,2.87L134.076,114.572z"/>
				</g>
			</g>
			<g>
				<g>
					
						<path fill="#FFD607" stroke="#FFD607" stroke-width="0.1874" stroke-linecap="round" stroke-linejoin="round" stroke-miterlimit="10" d="
						M140.523,102.813c-5.145,4.043-11.387,4.176-16.215,2.387c-4.832-1.79-8.262-5.697-9.625-10.282l-3.037,0.772
						c-0.596,6.885,3.426,13.589,10.217,16.105c6.793,2.517,15.246,0.158,19.711-7.53L140.523,102.813z"/>
				</g>
				<g>
					
						<path fill="#FAC108" stroke="#FAC108" stroke-width="0.1874" stroke-linecap="round" stroke-linejoin="round" stroke-miterlimit="10" d="
						M141.574,104.265c-4.279,7.459-12.562,10.179-19.711,7.53c-6.791-2.517-10.812-9.221-10.217-16.105l1.309-0.333
						c0.643,5.721,4.412,10.877,10.176,13.012c5.768,2.136,13.92,0.065,17.967-4.76L141.574,104.265z"/>
				</g>
			</g>
			<g>
				
					<path fill="#FAC108" stroke="#FAC108" stroke-width="0.1874" stroke-linecap="round" stroke-linejoin="round" stroke-miterlimit="10" d="
					M116.726,114.35"/>
			</g>
			<g>
				<g>
					
						<polygon fill="#604C3F" stroke="#604C3F" stroke-width="0.178" stroke-linecap="round" stroke-linejoin="round" stroke-miterlimit="10" points="
						114.986,94.045 112.748,92.464 113.953,91.411 115.578,92.559 					"/>
				</g>
				<g>
					
						<polygon fill="#786854" stroke="#786854" stroke-width="0.178" stroke-linecap="round" stroke-linejoin="round" stroke-miterlimit="10" points="
						114.986,94.045 115.578,92.559 113.953,91.411 					"/>
				</g>
			</g>
			<g>
				
					<path fill="#FFD607" stroke="#FFD607" stroke-width="0.1874" stroke-linecap="round" stroke-linejoin="round" stroke-miterlimit="10" d="
					M125.392,119.68c-6.414-1.292-10.57-5.951-12.344-10.785c-1.775-4.837-1.029-9.983,1.574-13.994l-2.561-1.812
					c-5.623,4.02-8.113,11.429-5.617,18.227c2.494,6.802,9.777,11.703,18.523,10.106L125.392,119.68z"/>
			</g>
			<g>
				
					<path fill="#FAC108" stroke="#FAC108" stroke-width="0.1874" stroke-linecap="round" stroke-linejoin="round" stroke-miterlimit="10" d="
					M124.968,121.421c-8.449,1.587-15.898-2.947-18.523-10.106c-2.496-6.798-0.006-14.207,5.617-18.227l1.102,0.784
					c-3.932,4.201-5.408,10.414-3.291,16.186c2.119,5.773,8.988,10.628,15.287,10.576L124.968,121.421z"/>
			</g>
			<g>
				
					<path fill="#FAC108" stroke="#FAC108" stroke-width="0.1874" stroke-linecap="round" stroke-linejoin="round" stroke-miterlimit="10" d="
					M126.8,108.639"/>
			</g>
		</g>
	</g>
</g>
</svg>
