<?xml version="1.0" encoding="utf-8"?>
<!-- Generator: Adobe Illustrator 17.0.0, SVG Export Plug-In . SVG Version: 6.00 Build 0)  -->
<!DOCTYPE svg PUBLIC "-//W3C//DTD SVG 1.1//EN" "http://www.w3.org/Graphics/SVG/1.1/DTD/svg11.dtd">
<svg version="1.1" id="Layer_1" xmlns="http://www.w3.org/2000/svg" xmlns:xlink="http://www.w3.org/1999/xlink" x="0px" y="0px"
	 width="166.837px" height="224.736px" viewBox="0 0 166.837 224.736" enable-background="new 0 0 166.837 224.736"
	 xml:space="preserve">
<g>
	<g>
		
			<path fill="#F39200" stroke="#F39200" stroke-width="1.3563" stroke-linecap="round" stroke-linejoin="round" stroke-miterlimit="10" d="
			M57.958,78.19l10.648-38.684c1.468-7.955-1.876-13.692-7.84-13.692h-2.788h-0.041h-2.788c-5.963,0-9.308,5.737-7.84,13.692
			L57.958,78.19z"/>
	</g>
	<g>
		<g>
			<path fill="#F08100" d="M57.958,78.19l10.648-38.684c1.468-7.955-1.876-13.692-7.84-13.692h-2.788h-0.041L57.958,78.19z"/>
		</g>
		<g>
			<path fill="#F08100" d="M57.939,25.136h2.828c2.6,0,4.814,1.009,6.401,2.916c2.207,2.651,2.974,6.871,2.105,11.578
				c-0.003,0.019-0.008,0.038-0.013,0.057L58.612,78.371c-0.082,0.297-0.352,0.498-0.653,0.498c-0.03,0-0.061-0.002-0.091-0.006
				L57.939,25.136z"/>
		</g>
	</g>
	<g>
		
			<path fill="#007C5A" stroke="#007C5A" stroke-width="0.7292" stroke-linecap="round" stroke-linejoin="round" stroke-miterlimit="10" d="
			M53.898,12.02c0,0-7.252-2.269-7.443-7.124c-0.15-3.8,3.16-5.105,6.096-4.308c4.588,1.244,4.371,8.424,4.28,9.473
			c0,0-0.046,1.124-0.136,3.038c0,2.598,0,10.348,0,10.348h-1.337V12.34L53.898,12.02z"/>
	</g>
	<g>
		
			<path fill="#007C5A" stroke="#007C5A" stroke-width="0.7292" stroke-linecap="round" stroke-linejoin="round" stroke-miterlimit="10" d="
			M61.021,19.268c0,0,7.251-2.27,7.444-7.125c0.149-3.799-3.161-5.104-6.096-4.308c-4.589,1.244-4.021,6.939-4.138,8.518
			c0,0-0.006,1.915-0.006,3.993c0-0.448,0,3.101,0,3.101h1.337v-3.859L61.021,19.268z"/>
	</g>
</g>
<path fill="#009640" stroke="#009640" stroke-width="0.3904" stroke-miterlimit="10" d="M25.523,45.916"/>
<g>
	
		<path fill="#E6332A" stroke="#E6332A" stroke-width="1.243" stroke-linecap="round" stroke-linejoin="round" stroke-miterlimit="10" d="
		M54.802,46.58c2.58,10.78-5.088,21.854-17.127,24.734c-12.039,2.881-23.889-3.522-26.469-14.302
		c-2.58-10.78,6.445-16.186,18.484-19.067C41.729,35.065,52.223,35.8,54.802,46.58z"/>
</g>
<g>
	
		<path fill="#007D40" stroke="#007D40" stroke-width="0.7813" stroke-linecap="round" stroke-linejoin="round" stroke-miterlimit="10" d="
		M38.152,27.009c-6.608,1.631-9.428,4.645-9.428,4.645l-1.56-6.518l-0.973,0.233l-0.975,0.233l1.896,7.923
		c0,0-5.311-3.08-11.942-1.544c5.93,1.242,7.38,2.657,7.38,2.657s-7.167,1.928-9.656,7.695c0,0,6.321-5.897,15.807-6.962
		C28.701,35.37,31.018,30.297,38.152,27.009z"/>
</g>
<g>
	<g>
		<g>
			
				<path fill="#FFD600" stroke="#FFD600" stroke-width="0.4432" stroke-linecap="round" stroke-linejoin="round" stroke-miterlimit="10" d="
				M152.007,44.536c-14.027,6.534-28.477,3.475-38.636-3.251c-10.158-6.727-15.946-17.578-16.612-28.872l-7.417,0.143
				C84.259,28.086,89.9,45.7,104.184,55.159c14.285,9.46,35.031,8.588,49.46-6.708L152.007,44.536z"/>
		</g>
		<g>
			
				<path fill="#FDC100" stroke="#FDC100" stroke-width="0.4432" stroke-linecap="round" stroke-linejoin="round" stroke-miterlimit="10" d="
				M153.643,48.451c-13.875,14.864-34.426,16.664-49.46,6.708C89.9,45.7,84.259,28.086,89.342,12.555l3.196-0.061
				c-1.604,13.521,4.293,27.427,16.419,35.457c12.127,8.031,32.017,7.657,43.946-1.269L153.643,48.451z"/>
		</g>
	</g>
	<g>
		<g>
			
				<path fill="#FFD600" stroke="#FFD600" stroke-width="0.4432" stroke-linecap="round" stroke-linejoin="round" stroke-miterlimit="10" d="
				M163.541,18.315c-10.211,11.627-24.669,14.643-36.676,12.575c-12.007-2.069-21.673-9.672-26.829-19.743l-6.733,3.116
				c1.599,16.262,13.854,30.116,30.736,33.025c16.884,2.91,35.524-6.238,42.576-26.048L163.541,18.315z"/>
		</g>
		<g>
			
				<path fill="#FDC100" stroke="#FDC100" stroke-width="0.4432" stroke-linecap="round" stroke-linejoin="round" stroke-miterlimit="10" d="
				M166.615,21.24c-6.718,19.192-24.806,29.111-42.576,26.048c-16.882-2.909-29.137-16.763-30.736-33.025l2.901-1.342
				c3.974,13.021,14.97,23.378,29.303,25.848c14.333,2.469,32.39-5.878,39.718-18.851L166.615,21.24z"/>
		</g>
	</g>
	<g>
		
			<path fill="#FDC100" stroke="#FDC100" stroke-width="0.4432" stroke-linecap="round" stroke-linejoin="round" stroke-miterlimit="10" d="
			M113.203,55.45"/>
	</g>
	<g>
		<g>
			
				<polygon fill="#634E42" stroke="#634E42" stroke-width="0.421" stroke-linecap="round" stroke-linejoin="round" stroke-miterlimit="10" points="
				100.362,8.991 94.473,6.277 96.818,3.307 101.096,5.28 			"/>
		</g>
		<g>
			
				<polygon fill="#7B6A58" stroke="#7B6A58" stroke-width="0.421" stroke-linecap="round" stroke-linejoin="round" stroke-miterlimit="10" points="
				100.362,8.991 101.096,5.28 96.818,3.307 			"/>
		</g>
	</g>
	<g>
		
			<path fill="#FFD600" stroke="#FFD600" stroke-width="0.4432" stroke-linecap="round" stroke-linejoin="round" stroke-miterlimit="10" d="
			M135.659,64.09c-15.473-0.218-27.153-9.258-33.374-19.733c-6.221-10.476-6.713-22.765-2.4-33.224l-6.74-3.099
			c-11.332,11.774-13.915,30.089-5.167,44.818c8.748,14.731,27.808,22.971,47.453,15.474L135.659,64.09z"/>
	</g>
	<g>
		
			<path fill="#FDC100" stroke="#FDC100" stroke-width="0.4432" stroke-linecap="round" stroke-linejoin="round" stroke-miterlimit="10" d="
			M135.43,68.326c-18.959,7.349-38.246,0.03-47.453-15.474c-8.747-14.729-6.165-33.044,5.167-44.818l2.903,1.336
			c-7.324,11.477-8.063,26.563-0.637,39.068c7.426,12.506,25.498,20.822,40.123,17.974L135.43,68.326z"/>
	</g>
	<g>
		
			<path fill="#FDC100" stroke="#FDC100" stroke-width="0.4432" stroke-linecap="round" stroke-linejoin="round" stroke-miterlimit="10" d="
			M134.153,37.808"/>
	</g>
</g>
<g>
	<g>
		
			<path fill="#F39200" stroke="#F39200" stroke-width="1.3563" stroke-linecap="round" stroke-linejoin="round" stroke-miterlimit="10" d="
			M80.167,92.826l10.648-38.684c1.468-7.955-1.876-13.692-7.84-13.692h-2.788h-0.041H77.36c-5.963,0-9.308,5.737-7.84,13.692
			L80.167,92.826z"/>
	</g>
	<g>
		<g>
			<path fill="#F08100" d="M80.167,92.826l10.648-38.684c1.468-7.955-1.876-13.692-7.84-13.692h-2.788h-0.041L80.167,92.826z"/>
		</g>
		<g>
			<path fill="#F08100" d="M80.148,39.771h2.828c2.6,0,4.814,1.009,6.401,2.916c2.207,2.651,2.974,6.871,2.105,11.578
				c-0.003,0.019-0.008,0.038-0.013,0.057L80.821,93.007c-0.082,0.297-0.352,0.498-0.653,0.498c-0.03,0-0.061-0.002-0.091-0.006
				L80.148,39.771z"/>
		</g>
	</g>
	<g>
		
			<path fill="#007C5A" stroke="#007C5A" stroke-width="0.7292" stroke-linecap="round" stroke-linejoin="round" stroke-miterlimit="10" d="
			M76.107,26.656c0,0-7.252-2.268-7.443-7.124c-0.15-3.8,3.16-5.105,6.096-4.308c4.588,1.244,4.371,8.424,4.28,9.473
			c0,0-0.046,1.124-0.136,3.038c0,2.598,0,10.348,0,10.348h-1.337V26.975L76.107,26.656z"/>
	</g>
	<g>
		
			<path fill="#007C5A" stroke="#007C5A" stroke-width="0.7292" stroke-linecap="round" stroke-linejoin="round" stroke-miterlimit="10" d="
			M83.23,33.904c0,0,7.251-2.27,7.444-7.125c0.149-3.799-3.161-5.104-6.096-4.308c-4.589,1.244-4.021,6.938-4.138,8.518
			c0,0-0.006,1.915-0.006,3.993c0-0.448,0,3.101,0,3.101h1.337v-3.859L83.23,33.904z"/>
	</g>
</g>
<path fill="#F6F6F6" d="M155.04,224.736l-7.751-65.579l0.015-100.636h-36.233v0.273c0-15.519-12.624-28.144-28.143-28.144H72.114
	c-15.518,0-28.143,12.625-28.143,28.144v-0.273H7.738l0.014,100.636L0,224.736H155.04z M55.316,58.521
	c0-7.057,5.74-16.725,12.797-16.725h18.814c7.056,0,12.797,9.941,12.797,16.998v-0.273H77.522H59.316H55.316z"/>
<path fill="#F0F0F0" d="M7.738,58.521l0.014,100.636L0,224.736h155.04L7.738,58.521z"/>
<path fill="#E9E9E9" d="M4.062,190.381L0,224.736h155.04L4.062,190.381z"/>
</svg>
