<?xml version="1.0" encoding="utf-8"?>
<!-- Generator: Adobe Illustrator 17.0.0, SVG Export Plug-In . SVG Version: 6.00 Build 0)  -->
<!DOCTYPE svg PUBLIC "-//W3C//DTD SVG 1.1//EN" "http://www.w3.org/Graphics/SVG/1.1/DTD/svg11.dtd">
<svg version="1.1" id="Layer_1" xmlns="http://www.w3.org/2000/svg" xmlns:xlink="http://www.w3.org/1999/xlink" x="0px" y="0px"
	 width="155.04px" height="274.66px" viewBox="0 0 155.04 274.66" enable-background="new 0 0 155.04 274.66" xml:space="preserve">
<g>
	<path fill="#007D40" d="M66.568,54.354v22.79c0,2.324-0.547,3.994-2.665,6.113l-0.649,0.628
		c-8.217,6.569-9.495,11.857-9.495,21.198c0,0.924,0,1.897,0,3.486v76.399c0,3.08,2.495,5.572,5.577,5.572h13.309"/>
	<path fill="#007D40" d="M72.645,190.541h13.311c3.079,0,5.578-2.492,5.578-5.572V108.57c0-1.589,0-2.562,0-3.486
		c0-9.341-1.28-14.629-9.494-21.198l-0.654-0.628c-2.115-2.119-2.662-3.79-2.662-6.113V51.73H76.95h-4.305h-5.698"/>
	<path fill="#006633" d="M67.435,51.73h5.21v138.811H59.336c-3.083,0-5.577-2.492-5.577-5.572V108.57c0-1.589,0-2.562,0-3.486
		c0-9.341,1.278-14.629,9.495-21.198l0.649-0.628c2.118-2.119,2.665-3.79,2.665-6.113V51.73H67.435z"/>
	
		<rect x="57.953" y="109.169" fill="#FFFFFF" stroke="#FFFFFF" stroke-width="1.1143" stroke-linecap="round" stroke-linejoin="round" stroke-miterlimit="10" width="29.385" height="50.363"/>
	
		<rect x="57.953" y="109.169" fill="#EDEDED" stroke="#EDEDED" stroke-width="1.1143" stroke-linecap="round" stroke-linejoin="round" stroke-miterlimit="10" width="14.692" height="50.363"/>
	
		<rect x="66.338" y="40.811" fill="#3C3C3B" stroke="#3C3C3B" stroke-width="1.5306" stroke-linecap="round" stroke-linejoin="round" stroke-miterlimit="10" width="12.632" height="10.918"/>
</g>
<g>
	
		<path fill="#FBD059" stroke="#FBD059" stroke-width="0.979" stroke-linecap="round" stroke-linejoin="round" stroke-miterlimit="10" d="
		M49.033,213.876c0,9.315-7.552,16.866-16.866,16.866l0,0c-9.315,0-16.866-7.551-16.866-16.866V17.356
		c0-9.314,7.552-16.866,16.866-16.866l0,0c9.314,0,16.866,7.552,16.866,16.866V213.876z"/>
	<path fill="#F8B61B" stroke="#F8B61B" stroke-width="0.979" stroke-miterlimit="10" d="M32.167,0.489L32.167,0.489
		c-9.315,0-16.866,7.552-16.866,16.866v196.52c0,9.315,7.552,16.866,16.866,16.866l0,0V0.489z"/>
</g>
<g>
	<path fill="#009640" stroke="#009640" stroke-width="0.3904" stroke-miterlimit="10" d="M27.24,95.839"/>
</g>
<g>
	
		<path fill="#662483" stroke="#662483" stroke-width="1.5301" stroke-linecap="round" stroke-linejoin="round" stroke-miterlimit="10" d="
		M143.542,151.032c0,13.519-12.654,24.479-26.174,24.479l0,0c-13.518,0-26.172-10.961-26.172-24.479l5.925-62.106
		c0-13.521,6.729-24.48,20.247-24.48l0,0c13.519,0,20.249,10.959,20.249,24.48L143.542,151.032z"/>
	
		<path fill="#49266A" stroke="#49266A" stroke-width="1.5301" stroke-linecap="round" stroke-linejoin="round" stroke-miterlimit="10" d="
		M117.368,64.446L117.368,64.446c-13.518,0-20.247,10.959-20.247,24.48l-5.925,62.106c0,13.519,12.654,24.479,26.172,24.479l0,0
		V64.446z"/>
	<g>
		
			<path fill="#007D40" stroke="#007D40" stroke-width="1.4076" stroke-linecap="round" stroke-linejoin="round" stroke-miterlimit="10" d="
			M138.275,47.943c-12.26,0.349-18.375,4.579-18.375,4.579l-0.258-12.071l-1.803,0.038l-1.805,0.039l0.313,14.673
			c0,0-8.175-7.45-20.436-7.277c9.966,4.451,11.98,7.496,11.98,7.496s-13.356,0.659-19.938,9.863c0,0,13.379-7.971,30.489-6.225
			C118.442,59.058,124.457,51.009,138.275,47.943z"/>
	</g>
</g>
<path fill="#F6F6F6" d="M155.04,274.66l-7.751-65.579l0.015-100.636h-36.233v0.273c0-15.519-12.625-28.144-28.143-28.144H72.114
	c-15.518,0-28.143,12.625-28.143,28.144v-0.273H7.738v66.506L0,274.66H155.04z M55.316,108.435c0-7.057,5.74-16.515,12.797-16.515
	h18.814c7.056,0,12.797,9.741,12.797,16.798v-0.273H77.522H59.316L55.316,108.435z"/>
<path fill="#F0F0F0" d="M7.738,174.951L7.738,174.951L0,274.66h155.04L7.738,174.951z"/>
<path fill="#E9E9E9" d="M1.021,261.501L0,274.66h155.04L1.021,261.501z"/>
</svg>
