<?xml version="1.0" encoding="utf-8"?>
<!-- Generator: Adobe Illustrator 17.0.0, SVG Export Plug-In . SVG Version: 6.00 Build 0)  -->
<!DOCTYPE svg PUBLIC "-//W3C//DTD SVG 1.1//EN" "http://www.w3.org/Graphics/SVG/1.1/DTD/svg11.dtd">
<svg version="1.1" id="Layer_1" xmlns="http://www.w3.org/2000/svg" xmlns:xlink="http://www.w3.org/1999/xlink" x="0px" y="0px"
	 width="155.041px" height="241.175px" viewBox="0 0 155.041 241.175" enable-background="new 0 0 155.041 241.175"
	 xml:space="preserve">
<g>
	<path fill="#DFF2FD" stroke="#DFF2FD" stroke-width="0.5056" stroke-miterlimit="10" d="M120.446,100.725h15.412
		c3.348,0,6.066-2.715,6.066-6.067V41.179c0-2.808-0.773-5.849-4.067-8.457c0,0-2.658-1.636-2.784-5.135V20.26h-14.626h-9.362
		H96.455v7.328c-0.123,3.499-2.785,5.135-2.785,5.135c-3.293,2.608-4.066,5.649-4.066,8.457v53.479c0,3.352,2.717,6.067,6.067,6.067
		h15.413H120.446z"/>
	<path opacity="0.56" fill="#D0EBFC" stroke="#D0EBFC" stroke-width="0.5056" stroke-miterlimit="10" d="M115.764,100.725h-4.68
		H95.671c-3.351,0-6.067-2.715-6.067-6.067V41.179c0-2.808,0.773-5.849,4.066-8.457c0,0,2.662-1.636,2.785-5.135V20.26h14.629h4.68
		V100.725z"/>
	
		<line fill="none" stroke="#ACCEE1" stroke-width="1.6413" stroke-linecap="round" stroke-miterlimit="10" x1="95.914" y1="26.166" x2="135.671" y2="26.166"/>
	
		<line fill="none" stroke="#8EC4DA" stroke-width="0.9848" stroke-linecap="round" stroke-miterlimit="10" x1="95.615" y1="22.968" x2="135.877" y2="22.968"/>
	<path fill="#BE1622" stroke="#BE1622" stroke-width="0.4632" stroke-miterlimit="10" d="M138.867,39.303V89.56
		c0,3.483-2.39,6.306-5.339,6.306h-13.563h-8.243H98.155c-2.95,0-5.341-2.822-5.341-6.306V39.303H138.867z"/>
	<path fill="#AF1926" stroke="#AF1926" stroke-width="0.4632" stroke-miterlimit="10" d="M115.857,95.865H98.155
		c-2.95,0-5.341-2.822-5.341-6.306V39.303h23.043V95.865z"/>
	
		<rect x="94.377" y="20.592" fill="#E6332A" stroke="#E6332A" stroke-width="1.2953" stroke-linecap="round" stroke-linejoin="round" stroke-miterlimit="10" width="42.833" height="6.234"/>
	
		<polygon fill="#BE1622" stroke="#BE1622" stroke-width="1.2953" stroke-linecap="round" stroke-linejoin="round" stroke-miterlimit="10" points="
		115.794,26.827 94.377,26.827 94.377,20.592 115.841,20.592 	"/>
</g>
<g>
	<path fill="#009640" stroke="#009640" stroke-width="0.3904" stroke-miterlimit="10" d="M127.764,62.355"/>
</g>
<g>
	
		<path fill="#007D40" stroke="#007D40" stroke-width="0.75" stroke-linecap="round" stroke-linejoin="round" stroke-miterlimit="10" d="
		M85.764,155.05c0,6.627-5.373,12-12,12l0,0c-6.627,0-12-5.373-12-12V12.391c0-6.627,5.373-12,12-12l0,0c6.627,0,12,5.373,12,12
		V155.05z"/>
	
		<path fill="#006633" stroke="#006633" stroke-width="0.7813" stroke-linecap="round" stroke-linejoin="round" stroke-miterlimit="10" d="
		M73.764,0.391L73.764,0.391c-6.627,0-12,5.373-12,12v142.66c0,6.627,5.373,12,12,12l0,0V0.391z"/>
</g>
<g>
	<polygon fill="#FFD600" points="65.272,89.459 8.097,89.459 37.105,20.428 	"/>
	<polygon fill="#FDC100" points="37.105,20.428 8.097,89.459 37.105,89.459 	"/>
	<circle fill="#FDC100" cx="49.354" cy="66.233" r="2.391"/>
	<circle fill="#FFD600" cx="23.205" cy="80.314" r="2.391"/>
	<circle fill="#FDC100" cx="37.099" cy="73.704" r="2.391"/>
	<circle fill="#FDC100" cx="37.106" cy="49.458" r="4.218"/>
	<circle fill="#FDC100" cx="53.573" cy="80.314" r="4.218"/>
	<circle fill="#FFD600" cx="27.423" cy="63.842" r="4.218"/>
	<path fill="#FFD600" d="M37.105,53.676c-2.33,0-4.218-1.889-4.218-4.218s1.888-4.219,4.218-4.219V53.676z"/>
	<path fill="#FFD600" d="M37.099,76.096c-1.319,0-2.391-1.07-2.391-2.392c0-1.32,1.071-2.391,2.391-2.391V76.096z"/>
</g>
<path fill="#F6F6F6" d="M155.041,241.175l-7.752-65.579l0.016-100.636H111.07v0.273c0-15.519-12.624-28.144-28.143-28.144H72.113
	c-15.517,0-28.142,12.625-28.142,28.144V74.96H7.738l0.014,100.636L0,241.175H155.041z M55.316,74.96
	c0-7.057,5.74-16.725,12.797-16.725h18.815c7.057,0,12.797,9.941,12.797,16.998V74.96H77.521H59.316H55.316z"/>
<path fill="#F0F0F0" d="M7.738,74.96l0.014,100.636L0,241.175h155.041L7.738,74.96z"/>
<path fill="#E9E9E9" d="M4.062,206.82L0,241.175h155.041L4.062,206.82z"/>
</svg>
