<?xml version="1.0" encoding="utf-8"?>
<!-- Generator: Adobe Illustrator 17.0.0, SVG Export Plug-In . SVG Version: 6.00 Build 0)  -->
<!DOCTYPE svg PUBLIC "-//W3C//DTD SVG 1.1//EN" "http://www.w3.org/Graphics/SVG/1.1/DTD/svg11.dtd">
<svg version="1.1" id="Layer_1" xmlns="http://www.w3.org/2000/svg" xmlns:xlink="http://www.w3.org/1999/xlink" x="0px" y="0px"
	 width="260.189px" height="213.087px" viewBox="0 0 260.189 213.087" enable-background="new 0 0 260.189 213.087"
	 xml:space="preserve">
<circle fill="#EBEBEB" stroke="#E5E5E5" stroke-width="1.3819" stroke-miterlimit="10" cx="18.929" cy="186.658" r="18.238"/>
<path fill="#F6F6F6" stroke="#F6F6F6" stroke-width="1.3819" stroke-miterlimit="10" d="M18.928,204.895
	c10.073,0,18.238-8.165,18.238-18.237c0-10.073-8.165-18.238-18.238-18.238V204.895z"/>
<polygon fill="#DEDEDE" stroke="#DEDEDE" stroke-width="0.3455" stroke-linecap="round" stroke-linejoin="round" stroke-miterlimit="10" points="
	19.355,205.476 16.591,205.304 16.591,167.993 19.355,167.864 "/>
<polygon fill="#FFFFFF" stroke="#FFFFFF" stroke-width="0.2764" stroke-linecap="round" stroke-linejoin="round" stroke-miterlimit="10" points="
	21.544,205.411 19.471,205.563 19.471,167.756 21.544,167.886 "/>
<circle fill="#EBEBEB" stroke="#E5E5E5" stroke-width="1.3819" stroke-miterlimit="10" cx="83.928" cy="194.159" r="18.238"/>
<path fill="#F6F6F6" stroke="#F6F6F6" stroke-width="1.3819" stroke-miterlimit="10" d="M98.134,205.595
	c6.316-7.846,5.076-19.326-2.77-25.643c-7.846-6.316-19.327-5.076-25.644,2.77L98.134,205.595z"/>
<polygon fill="#DEDEDE" stroke="#DEDEDE" stroke-width="0.3455" stroke-linecap="round" stroke-linejoin="round" stroke-miterlimit="10" points="
	98.854,205.627 96.986,207.671 67.923,184.275 69.555,182.041 "/>
<polygon fill="#FFFFFF" stroke="#FFFFFF" stroke-width="0.2764" stroke-linecap="round" stroke-linejoin="round" stroke-miterlimit="10" points="
	100.176,203.882 98.994,205.591 69.543,181.884 70.945,180.35 "/>
<circle fill="#EBEBEB" stroke="#E5E5E5" stroke-width="1.3819" stroke-miterlimit="10" cx="62.93" cy="129.159" r="18.238"/>
<path fill="#F6F6F6" stroke="#F6F6F6" stroke-width="1.3819" stroke-miterlimit="10" d="M48.389,140.166
	c6.079,8.03,17.518,9.613,25.549,3.534c8.031-6.08,9.613-17.519,3.533-25.55L48.389,140.166z"/>
<polygon fill="#DEDEDE" stroke="#DEDEDE" stroke-width="0.3455" stroke-linecap="round" stroke-linejoin="round" stroke-miterlimit="10" points="
	48.184,140.857 46.653,138.55 76.4,116.03 78.172,118.155 "/>
<polygon fill="#FFFFFF" stroke="#FFFFFF" stroke-width="0.2764" stroke-linecap="round" stroke-linejoin="round" stroke-miterlimit="10" points="
	49.556,142.563 48.184,141.001 78.328,118.182 79.476,119.913 "/>
<path fill="#EDEDED" stroke="#EDEDED" stroke-width="0.4001" stroke-linecap="round" stroke-linejoin="round" stroke-miterlimit="10" d="
	M199.579,191.354c0,5.757-4.667,10.424-10.424,10.424l0,0c-5.758,0-10.424-4.667-10.424-10.424V143.62
	c0-5.758,4.666-10.424,10.424-10.424l0,0c5.757,0,10.424,4.666,10.424,10.424V191.354z"/>
<path fill="#E2E1E1" stroke="#E2E1E1" stroke-width="0.4001" stroke-linecap="round" stroke-linejoin="round" stroke-miterlimit="10" d="
	M189.155,133.196L189.155,133.196c-5.758,0-10.424,4.666-10.424,10.424v47.734c0,5.757,4.666,10.424,10.424,10.424l0,0V133.196"/>
<path fill="#EE7BAE" stroke="#EE7BAE" stroke-width="0.4001" stroke-linecap="round" stroke-linejoin="round" stroke-miterlimit="10" d="
	M199.579,167.552V143.62c0-5.758-4.667-10.424-10.424-10.424l0,0c-5.758,0-10.424,4.666-10.424,10.424v23.932H199.579z"/>
<path fill="#E94591" stroke="#E94591" stroke-width="0.4001" stroke-linecap="round" stroke-linejoin="round" stroke-miterlimit="10" d="
	M189.155,133.196L189.155,133.196c-5.758,0-10.424,4.666-10.424,10.424v23.932h10.424V133.196z"/>
<path fill="#EDEDED" stroke="#EDEDED" stroke-width="0.4001" stroke-linecap="round" stroke-linejoin="round" stroke-miterlimit="10" d="
	M257.525,133.982c3.717,4.396,3.166,10.974-1.23,14.69l0,0c-4.396,3.717-10.973,3.166-14.689-1.23l-30.82-36.451
	c-3.717-4.396-3.167-10.973,1.23-14.69l0,0c4.395-3.717,10.973-3.167,14.689,1.229L257.525,133.982z"/>
<path fill="#E2E1E1" stroke="#E2E1E1" stroke-width="0.4001" stroke-linecap="round" stroke-linejoin="round" stroke-miterlimit="10" d="
	M212.016,96.301L212.016,96.301c-4.397,3.717-4.947,10.294-1.23,14.69l30.82,36.451c3.717,4.396,10.293,4.947,14.689,1.23l0,0
	L212.016,96.301"/>
<path fill="#EE7BAE" stroke="#EE7BAE" stroke-width="0.4001" stroke-linecap="round" stroke-linejoin="round" stroke-miterlimit="10" d="
	M242.157,115.807l-15.452-18.276c-3.717-4.396-10.294-4.946-14.689-1.229l0,0c-4.397,3.717-4.947,10.294-1.23,14.69l15.452,18.275
	L242.157,115.807z"/>
<path fill="#E94591" stroke="#E94591" stroke-width="0.4001" stroke-linecap="round" stroke-linejoin="round" stroke-miterlimit="10" d="
	M212.016,96.301L212.016,96.301c-4.397,3.717-4.947,10.294-1.23,14.69l15.452,18.275l7.96-6.73L212.016,96.301z"/>
<path fill="#EDEDED" stroke="#EDEDED" stroke-width="0.4001" stroke-linecap="round" stroke-linejoin="round" stroke-miterlimit="10" d="
	M167.025,82.982c3.717,4.396,3.166,10.973-1.23,14.69l0,0c-4.396,3.718-10.973,3.167-14.689-1.229l-30.82-36.452
	c-3.717-4.396-3.167-10.973,1.23-14.69l0,0c4.396-3.717,10.973-3.167,14.689,1.229L167.025,82.982z"/>
<path fill="#E2E1E1" stroke="#E2E1E1" stroke-width="0.4001" stroke-linecap="round" stroke-linejoin="round" stroke-miterlimit="10" d="
	M121.516,45.301L121.516,45.301c-4.397,3.717-4.947,10.293-1.23,14.69l30.82,36.452c3.717,4.396,10.293,4.947,14.689,1.229l0,0
	L121.516,45.301"/>
<path fill="#2FAC66" stroke="#2FAC66" stroke-width="0.4001" stroke-linecap="round" stroke-linejoin="round" stroke-miterlimit="10" d="
	M151.657,64.807l-15.452-18.276c-3.717-4.396-10.294-4.946-14.689-1.229l0,0c-4.397,3.717-4.947,10.293-1.23,14.69l15.452,18.276
	L151.657,64.807z"/>
<path fill="#24894A" stroke="#24894A" stroke-width="0.4001" stroke-linecap="round" stroke-linejoin="round" stroke-miterlimit="10" d="
	M121.516,45.301L121.516,45.301c-4.397,3.717-4.947,10.293-1.23,14.69l15.452,18.276l7.96-6.73L121.516,45.301z"/>
<path fill="#EDEDED" stroke="#EDEDED" stroke-width="0.4001" stroke-linecap="round" stroke-linejoin="round" stroke-miterlimit="10" d="
	M209.963,54.21c-3.638,4.462-10.204,5.13-14.665,1.492l0,0c-4.463-3.638-5.132-10.203-1.494-14.665l30.161-36.999
	c3.638-4.462,10.203-5.131,14.666-1.492l0,0c4.462,3.637,5.131,10.203,1.493,14.665L209.963,54.21z"/>
<path fill="#E2E1E1" stroke="#E2E1E1" stroke-width="0.4001" stroke-linecap="round" stroke-linejoin="round" stroke-miterlimit="10" d="
	M238.631,2.546L238.631,2.546c-4.463-3.639-11.028-2.97-14.666,1.492l-30.161,36.999c-3.638,4.462-2.969,11.027,1.494,14.665l0,0
	L238.631,2.546"/>
<path fill="#2FAC66" stroke="#2FAC66" stroke-width="0.4001" stroke-linecap="round" stroke-linejoin="round" stroke-miterlimit="10" d="
	M225.002,35.761l15.122-18.55c3.638-4.462,2.969-11.028-1.493-14.665l0,0c-4.463-3.639-11.028-2.97-14.666,1.492l-15.122,18.55
	L225.002,35.761z"/>
<path fill="#24894A" stroke="#24894A" stroke-width="0.4001" stroke-linecap="round" stroke-linejoin="round" stroke-miterlimit="10" d="
	M238.631,2.546L238.631,2.546c-4.463-3.639-11.028-2.97-14.666,1.492l-15.122,18.55l8.08,6.586L238.631,2.546z"/>
</svg>
