<?xml version="1.0" encoding="utf-8"?>
<!-- Generator: Adobe Illustrator 15.0.2, SVG Export Plug-In . SVG Version: 6.00 Build 0)  -->
<!DOCTYPE svg PUBLIC "-//W3C//DTD SVG 1.1//EN" "http://www.w3.org/Graphics/SVG/1.1/DTD/svg11.dtd">
<svg version="1.1" id="Lager_1" xmlns="http://www.w3.org/2000/svg" xmlns:xlink="http://www.w3.org/1999/xlink" x="0px" y="0px"
	 width="142.568px" height="201.979px" viewBox="0 0 142.568 201.979" enable-background="new 0 0 142.568 201.979"
	 xml:space="preserve">
<circle fill="#EBEBEB" stroke="#E5E5E5" stroke-width="1.3819" stroke-miterlimit="10" cx="-98.692" cy="186.658" r="18.238"/>
<path fill="#F6F6F6" stroke="#F6F6F6" stroke-width="1.3819" stroke-miterlimit="10" d="M-98.693,204.896
	c10.073,0,18.238-8.165,18.238-18.237c0-10.073-8.166-18.238-18.238-18.238V204.896z"/>
<polygon fill="#DEDEDE" stroke="#DEDEDE" stroke-width="0.3455" stroke-linecap="round" stroke-linejoin="round" stroke-miterlimit="10" points="
	-98.266,205.477 -101.03,205.304 -101.03,167.993 -98.266,167.864 "/>
<polygon fill="#FFFFFF" stroke="#FFFFFF" stroke-width="0.2764" stroke-linecap="round" stroke-linejoin="round" stroke-miterlimit="10" points="
	-96.077,205.411 -98.15,205.563 -98.15,167.756 -96.077,167.886 "/>
<circle fill="#EBEBEB" stroke="#E5E5E5" stroke-width="1.3819" stroke-miterlimit="10" cx="-33.693" cy="194.159" r="18.238"/>
<path fill="#F6F6F6" stroke="#F6F6F6" stroke-width="1.3819" stroke-miterlimit="10" d="M-19.487,205.595
	c6.316-7.846,5.076-19.326-2.77-25.643c-7.846-6.316-19.327-5.076-25.644,2.77L-19.487,205.595z"/>
<polygon fill="#DEDEDE" stroke="#DEDEDE" stroke-width="0.3455" stroke-linecap="round" stroke-linejoin="round" stroke-miterlimit="10" points="
	-18.767,205.627 -20.635,207.671 -49.698,184.275 -48.066,182.041 "/>
<polygon fill="#FFFFFF" stroke="#FFFFFF" stroke-width="0.2764" stroke-linecap="round" stroke-linejoin="round" stroke-miterlimit="10" points="
	-17.445,203.882 -18.627,205.591 -48.078,181.884 -46.676,180.35 "/>
<circle fill="#EBEBEB" stroke="#E5E5E5" stroke-width="1.3819" stroke-miterlimit="10" cx="-54.691" cy="129.159" r="18.238"/>
<path fill="#F6F6F6" stroke="#F6F6F6" stroke-width="1.3819" stroke-miterlimit="10" d="M-69.232,140.166
	c6.08,8.03,17.518,9.613,25.549,3.534c8.031-6.08,9.613-17.519,3.533-25.55L-69.232,140.166z"/>
<polygon fill="#DEDEDE" stroke="#DEDEDE" stroke-width="0.3455" stroke-linecap="round" stroke-linejoin="round" stroke-miterlimit="10" points="
	-69.438,140.857 -70.968,138.55 -41.221,116.03 -39.449,118.155 "/>
<polygon fill="#FFFFFF" stroke="#FFFFFF" stroke-width="0.2764" stroke-linecap="round" stroke-linejoin="round" stroke-miterlimit="10" points="
	-68.065,142.563 -69.437,141.001 -39.293,118.183 -38.145,119.913 "/>
<g>
	
		<path fill="#EDEDED" stroke="#EDEDED" stroke-width="0.4001" stroke-linecap="round" stroke-linejoin="round" stroke-miterlimit="10" d="
		M81.958,191.354c0,5.757-4.667,10.424-10.424,10.424l0,0c-5.758,0-10.424-4.667-10.424-10.424V143.62
		c0-5.758,4.666-10.424,10.424-10.424l0,0c5.757,0,10.424,4.666,10.424,10.424V191.354z"/>
	
		<path fill="#E2E1E1" stroke="#E2E1E1" stroke-width="0.4001" stroke-linecap="round" stroke-linejoin="round" stroke-miterlimit="10" d="
		M71.534,133.196L71.534,133.196c-5.758,0-10.424,4.666-10.424,10.424v47.734c0,5.757,4.666,10.424,10.424,10.424l0,0V133.196"/>
	
		<path fill="#EE7BAE" stroke="#EE7BAE" stroke-width="0.4001" stroke-linecap="round" stroke-linejoin="round" stroke-miterlimit="10" d="
		M81.958,167.552V143.62c0-5.758-4.667-10.424-10.424-10.424l0,0c-5.758,0-10.424,4.666-10.424,10.424v23.932H81.958z"/>
	
		<path fill="#E94591" stroke="#E94591" stroke-width="0.4001" stroke-linecap="round" stroke-linejoin="round" stroke-miterlimit="10" d="
		M71.534,133.196L71.534,133.196c-5.758,0-10.424,4.666-10.424,10.424v23.932h10.424V133.196z"/>
	
		<path fill="#EDEDED" stroke="#EDEDED" stroke-width="0.4001" stroke-linecap="round" stroke-linejoin="round" stroke-miterlimit="10" d="
		M139.904,133.982c3.717,4.396,3.166,10.974-1.23,14.69l0,0c-4.396,3.717-10.973,3.166-14.689-1.23l-30.82-36.451
		c-3.717-4.396-3.167-10.973,1.23-14.69l0,0c4.396-3.717,10.973-3.167,14.689,1.229L139.904,133.982z"/>
	
		<path fill="#E2E1E1" stroke="#E2E1E1" stroke-width="0.4001" stroke-linecap="round" stroke-linejoin="round" stroke-miterlimit="10" d="
		M94.395,96.301L94.395,96.301c-4.397,3.717-4.947,10.293-1.23,14.69l30.82,36.451c3.717,4.396,10.293,4.947,14.689,1.23l0,0
		L94.395,96.301"/>
	
		<path fill="#EE7BAE" stroke="#EE7BAE" stroke-width="0.4001" stroke-linecap="round" stroke-linejoin="round" stroke-miterlimit="10" d="
		M124.536,115.807l-15.452-18.276c-3.717-4.396-10.294-4.946-14.689-1.229l0,0c-4.397,3.717-4.947,10.293-1.23,14.69l15.452,18.275
		L124.536,115.807z"/>
	
		<path fill="#E94591" stroke="#E94591" stroke-width="0.4001" stroke-linecap="round" stroke-linejoin="round" stroke-miterlimit="10" d="
		M94.395,96.301L94.395,96.301c-4.397,3.717-4.947,10.293-1.23,14.69l15.452,18.275l7.96-6.73L94.395,96.301z"/>
	
		<path fill="#EDEDED" stroke="#EDEDED" stroke-width="0.4001" stroke-linecap="round" stroke-linejoin="round" stroke-miterlimit="10" d="
		M49.404,82.982c3.717,4.396,3.166,10.973-1.23,14.69l0,0c-4.396,3.718-10.973,3.167-14.689-1.229L2.664,59.991
		c-3.717-4.396-3.167-10.973,1.23-14.69l0,0c4.396-3.717,10.973-3.167,14.689,1.229L49.404,82.982z"/>
	
		<path fill="#E2E1E1" stroke="#E2E1E1" stroke-width="0.4001" stroke-linecap="round" stroke-linejoin="round" stroke-miterlimit="10" d="
		M3.895,45.301L3.895,45.301c-4.397,3.717-4.947,10.293-1.23,14.69l30.82,36.452c3.717,4.396,10.293,4.947,14.689,1.229l0,0
		L3.895,45.301"/>
	
		<path fill="#2FAC66" stroke="#2FAC66" stroke-width="0.4001" stroke-linecap="round" stroke-linejoin="round" stroke-miterlimit="10" d="
		M34.036,64.807L18.584,46.531c-3.717-4.396-10.294-4.946-14.689-1.229l0,0c-4.397,3.717-4.947,10.293-1.23,14.69l15.452,18.276
		L34.036,64.807z"/>
	
		<path fill="#24894A" stroke="#24894A" stroke-width="0.4001" stroke-linecap="round" stroke-linejoin="round" stroke-miterlimit="10" d="
		M3.895,45.301L3.895,45.301c-4.397,3.717-4.947,10.293-1.23,14.69l15.452,18.276l7.96-6.73L3.895,45.301z"/>
	
		<path fill="#EDEDED" stroke="#EDEDED" stroke-width="0.4001" stroke-linecap="round" stroke-linejoin="round" stroke-miterlimit="10" d="
		M92.342,54.21c-3.638,4.462-10.204,5.13-14.665,1.492l0,0c-4.463-3.638-5.132-10.203-1.494-14.665l30.161-36.999
		c3.638-4.462,10.203-5.131,14.666-1.492l0,0c4.462,3.637,5.131,10.203,1.493,14.665L92.342,54.21z"/>
	
		<path fill="#E2E1E1" stroke="#E2E1E1" stroke-width="0.4001" stroke-linecap="round" stroke-linejoin="round" stroke-miterlimit="10" d="
		M121.01,2.546L121.01,2.546c-4.463-3.639-11.028-2.97-14.666,1.492L76.183,41.037c-3.638,4.462-2.969,11.027,1.494,14.665l0,0
		L121.01,2.546"/>
	
		<path fill="#2FAC66" stroke="#2FAC66" stroke-width="0.4001" stroke-linecap="round" stroke-linejoin="round" stroke-miterlimit="10" d="
		M107.381,35.761l15.122-18.55c3.638-4.462,2.969-11.028-1.493-14.665l0,0c-4.463-3.639-11.028-2.97-14.666,1.492l-15.122,18.55
		L107.381,35.761z"/>
	
		<path fill="#24894A" stroke="#24894A" stroke-width="0.4001" stroke-linecap="round" stroke-linejoin="round" stroke-miterlimit="10" d="
		M121.01,2.546L121.01,2.546c-4.463-3.639-11.028-2.97-14.666,1.492l-15.122,18.55l8.08,6.586L121.01,2.546z"/>
</g>
</svg>
