<?xml version="1.0" encoding="utf-8"?>
<!-- Generator: Adobe Illustrator 15.0.2, SVG Export Plug-In . SVG Version: 6.00 Build 0)  -->
<!DOCTYPE svg PUBLIC "-//W3C//DTD SVG 1.1//EN" "http://www.w3.org/Graphics/SVG/1.1/DTD/svg11.dtd">
<svg version="1.1" id="Lager_1" xmlns="http://www.w3.org/2000/svg" xmlns:xlink="http://www.w3.org/1999/xlink" x="0px" y="0px"
	 width="252.408px" height="126.198px" viewBox="0 0 252.408 126.198" enable-background="new 0 0 252.408 126.198"
	 xml:space="preserve">
<g>
	<path fill="#309959" d="M250.035,0h-2.375H4.752H2.376H0c0,69.584,56.614,126.198,126.203,126.198
		c69.59,0,126.205-56.614,126.205-126.198H250.035z"/>
	<path fill="#DBE49A" d="M242.441,0h-2.504H12.476H9.97H7.465c0,65.471,53.269,118.733,118.738,118.733
		c65.471,0,118.74-53.263,118.74-118.733H242.441z"/>
	<path fill="#E85151" d="M226.572,0h-2.445H29.963h-2.445h-2.444c0,56.227,45.744,101.966,101.969,101.966
		c56.232,0,101.975-45.739,101.975-101.966H226.572z"/>
	<g>
		<g>
			<path fill="#41281B" stroke="#41281B" stroke-width="2.1288" stroke-miterlimit="10" d="M159.65,15.055
				c2.256,1.917,5.117,2.25,6.398,0.744c1.275-1.503,0.482-4.274-1.771-6.189c-2.256-1.917-5.748-2.785-7.027-1.282
				C155.97,9.834,157.394,13.142,159.65,15.055z"/>
		</g>
		<g>
			<path fill="#41281B" stroke="#41281B" stroke-width="2.1288" stroke-miterlimit="10" d="M143.093,25.859
				c1.299,2.658,3.789,4.11,5.566,3.248c1.77-0.866,2.154-3.724,0.855-6.381c-1.297-2.661-4.148-4.856-5.924-3.994
				C141.818,19.598,141.796,23.2,143.093,25.859z"/>
		</g>
		<g>
			<path fill="#41281B" stroke="#41281B" stroke-width="2.1288" stroke-miterlimit="10" d="M123.108,28.241
				c0.062,2.959,1.711,5.318,3.686,5.282c1.975-0.038,3.521-2.473,3.461-5.433c-0.062-2.959-1.73-6.149-3.701-6.108
				C124.576,22.021,123.048,25.28,123.108,28.241z"/>
		</g>
		<g>
			<path fill="#41281B" stroke="#41281B" stroke-width="2.1288" stroke-miterlimit="10" d="M92.759,15.692
				c-2.256,1.915-5.119,2.249-6.399,0.743c-1.276-1.503-0.483-4.275,1.772-6.19c2.254-1.914,5.747-2.785,7.026-1.279
				C96.437,10.469,95.016,13.776,92.759,15.692z"/>
		</g>
		<g>
			<path fill="#41281B" stroke="#41281B" stroke-width="2.1288" stroke-miterlimit="10" d="M110.271,25.859
				c-1.3,2.658-3.789,4.11-5.567,3.248c-1.769-0.866-2.152-3.724-0.856-6.381c1.297-2.661,4.15-4.856,5.926-3.994
				C111.544,19.598,111.567,23.2,110.271,25.859z"/>
		</g>
	</g>
</g>
</svg>
