<?xml version="1.0" encoding="utf-8"?>
<!-- Generator: Adobe Illustrator 15.0.2, SVG Export Plug-In . SVG Version: 6.00 Build 0)  -->
<!DOCTYPE svg PUBLIC "-//W3C//DTD SVG 1.1//EN" "http://www.w3.org/Graphics/SVG/1.1/DTD/svg11.dtd">
<svg version="1.1" id="Lager_1" xmlns="http://www.w3.org/2000/svg" xmlns:xlink="http://www.w3.org/1999/xlink" x="0px" y="0px"
	 width="182.445px" height="141.675px" viewBox="0 0 182.445 141.675" enable-background="new 0 0 182.445 141.675"
	 xml:space="preserve">
<g>
	<g>
		<path fill="#FFD142" d="M129.081,38.974c0,0-24.216,15.769-7.537,36.919c0,0-28.564-5.834-31.437,20.779
			c0,0-13.243-23.02-36.92-7.537c0,0,8.212-24.814-20.776-31.436c0,0,23.627-13.816,7.537-36.922c0,0,27.464,6.341,31.436-20.777
			c0,0,14.23,23.145,36.92,7.538C108.303,7.538,102.364,34.402,129.081,38.974z"/>
		<circle fill="#FFE161" cx="80.745" cy="48.336" r="31.447"/>
	</g>
	<g>
		<path fill="#8D7D6C" d="M165.758,46.619c-4.518-0.499-8.84,0.651-12.36,2.969c-3.865-5.391-9.895-9.197-17.006-9.986
			c-11.01-1.221-21.093,5.148-25.078,14.921c-10.381-0.995-19.672,6.517-20.824,16.916c-1.162,10.494,6.402,19.944,16.896,21.106
			c1.586,0.178,3.141,0.131,4.654-0.072c2.273,6.047,7.768,10.633,14.625,11.393c7.496,0.831,14.397-3.15,17.674-9.463
			c2.434,2.656,5.792,4.487,9.654,4.916c8.455,0.939,16.072-5.158,17.013-13.615c0.121-1.085,0.121-2.155,0.019-3.199
			c6.022-2.568,10.531-8.213,11.304-15.185C183.471,57.029,176.047,47.759,165.758,46.619z"/>
		<path opacity="0.8" fill="#B29A7D" d="M121.198,72.993c-2.152-0.24-4.266-0.148-6.3,0.188
			c-2.925-9.898-11.542-17.582-22.446-18.79c-8.161-0.908-15.879,2.013-21.344,7.335c-4.776-5.84-11.74-9.893-19.832-10.79
			c-16.414-1.819-31.193,10.007-33.011,26.424c-0.171,1.554-0.186,3.089-0.12,4.606c-9.393,1.964-16.891,9.75-18.004,19.802
			c-1.389,12.519,7.635,23.794,20.153,25.175c5.072,0.564,9.929-0.6,14.02-3.004c3.194,9.299,11.479,16.423,21.9,17.576
			c10.997,1.217,21.143-4.561,26.035-13.768c3.608,5.428,9.501,9.281,16.485,10.053c12.451,1.381,23.661-7.541,25.146-19.963
			c9.14-2.141,16.378-9.807,17.471-19.67C142.74,85.647,133.712,74.375,121.198,72.993z"/>
		<g>
			<g>
				<path fill="#8D7D6C" stroke="#8D7D6C" stroke-miterlimit="10" d="M54.843,81.925l-2.401-0.062
					c-0.388-2.34-1.353-4.188-2.89-5.551c-1.534-1.363-3.256-2.045-5.158-2.045c-3.203,0-5.734,1.633-7.596,4.901
					c-1.859,3.265-2.789,7.021-2.789,11.262c0,11.901,3.072,19.344,9.215,22.329c2.942,1.468,6.816,2.207,11.619,2.207v2.398
					c-6.273,0-10.947-0.93-14.02-2.789c-1.213-0.734-2.436-1.774-3.669-3.117c-1.23-1.34-2.237-2.941-3.017-4.801
					c-1.688-4.2-2.532-9.629-2.532-16.295c0-3.154,0.433-5.99,1.3-8.5c0.863-2.51,1.945-4.458,3.246-5.842
					c2.638-2.768,5.297-4.157,7.981-4.157c2.683,0,5.139,1.083,7.368,3.249C53.728,77.278,54.843,79.55,54.843,81.925z"/>
				<path fill="#8D7D6C" stroke="#8D7D6C" stroke-miterlimit="10" d="M84.57,117.302h-2.4V95.881H63.734v21.421h-2.401V71.864h2.401
					v21.614H82.17V71.864h2.4V117.302z"/>
			</g>
			<g>
				<path fill="#8D7D6C" stroke="#8D7D6C" stroke-width="0.7" stroke-miterlimit="10" d="M96.511,126.486h-0.971v-4.197h-7.688
					v-0.973l8.658-13.196v13.196H98.4v0.973h-1.889V126.486z M95.541,111.399l-6.586,9.917h6.586V111.399z"/>
			</g>
		</g>
	</g>
</g>
</svg>
