<?xml version="1.0" encoding="utf-8"?>
<!-- Generator: Adobe Illustrator 15.0.2, SVG Export Plug-In . SVG Version: 6.00 Build 0)  -->
<!DOCTYPE svg PUBLIC "-//W3C//DTD SVG 1.1//EN" "http://www.w3.org/Graphics/SVG/1.1/DTD/svg11.dtd">
<svg version="1.1" id="Lager_1" xmlns="http://www.w3.org/2000/svg" xmlns:xlink="http://www.w3.org/1999/xlink" x="0px" y="0px"
	 width="181.253px" height="285.414px" viewBox="0 0 181.253 285.414" enable-background="new 0 0 181.253 285.414"
	 xml:space="preserve">
<g>
	
		<path fill="#ED7CAB" stroke="#ED7CAB" stroke-width="0.4001" stroke-linecap="round" stroke-linejoin="round" stroke-miterlimit="10" d="
		M43.414,104.776c0,7.073,5.736,12.811,12.814,12.811l0,0c7.073,0,12.811-5.737,12.811-12.811V21.789
		C69.039,9.866,78.702,0.2,90.625,0.2l0,0c11.922,0,21.588,9.666,21.588,21.589v82.987c0,7.073,5.736,12.811,12.812,12.811l0,0
		c7.078,0,12.812-5.737,12.812-12.811h0.04V21.789c0-11.923,9.662-21.589,21.586-21.589l0,0c11.923,0,21.589,9.666,21.589,21.589
		v82.987v90.011c0,49.939-40.486,90.427-90.429,90.427l0,0c-49.94,0-90.424-40.485-90.424-90.427v-90.011V21.789
		C0.2,9.866,9.862,0.2,21.786,0.2l0,0c11.923,0,21.588,9.666,21.588,21.589v82.987"/>
	
		<path fill="#E5468F" stroke="#E5468F" stroke-width="0.4001" stroke-linecap="round" stroke-linejoin="round" stroke-miterlimit="10" d="
		M90.624,285.214L90.624,285.214c49.941,0,90.429-40.485,90.429-90.427v-90.011V21.789c0-11.923-9.666-21.589-21.589-21.589l0,0
		c-11.924,0-21.586,9.666-21.586,21.589v82.987h-0.04c0,7.073-5.734,12.811-12.812,12.811l0,0c-7.076,0-12.812-5.737-12.812-12.811
		V21.789c0-11.923-9.666-21.589-21.588-21.589l0,0L90.624,285.214L90.624,285.214z"/>
	
		<circle fill="#E5468F" stroke="#E5468F" stroke-width="0.4001" stroke-linecap="round" stroke-linejoin="round" stroke-miterlimit="10" cx="52.494" cy="249.846" r="13.904"/>
	
		<path fill="#E5468F" stroke="#E5468F" stroke-width="0.4001" stroke-linecap="round" stroke-linejoin="round" stroke-miterlimit="10" d="
		M25.21,232.59c0-4.755,3.853-8.607,8.607-8.607c4.752,0,8.604,3.854,8.604,8.607s-3.852,8.605-8.604,8.605
		C29.062,241.196,25.21,237.344,25.21,232.59z"/>
	<path fill="none" stroke="#D2287E" stroke-width="3.9722" stroke-linecap="round" stroke-miterlimit="10" d="M54.269,163.398
		c0,0,33.212,21.188,72.713,0"/>
	<g>
		
			<line fill="none" stroke="#D2287E" stroke-width="4.3164" stroke-linecap="round" stroke-linejoin="round" stroke-miterlimit="10" x1="54.269" y1="194.199" x2="72.693" y2="212.623"/>
		
			<line fill="none" stroke="#D2287E" stroke-width="4.3164" stroke-linecap="round" stroke-linejoin="round" stroke-miterlimit="10" x1="72.693" y1="194.199" x2="54.27" y2="212.623"/>
	</g>
	<g>
		
			<line fill="none" stroke="#D2287E" stroke-width="4.3164" stroke-linecap="round" stroke-linejoin="round" stroke-miterlimit="10" x1="108.625" y1="194.199" x2="127.05" y2="212.623"/>
		
			<line fill="none" stroke="#D2287E" stroke-width="4.3164" stroke-linecap="round" stroke-linejoin="round" stroke-miterlimit="10" x1="127.05" y1="194.199" x2="108.626" y2="212.623"/>
	</g>
</g>
</svg>
