<?xml version="1.0" encoding="utf-8"?>
<!-- Generator: Adobe Illustrator 15.0.2, SVG Export Plug-In . SVG Version: 6.00 Build 0)  -->
<!DOCTYPE svg PUBLIC "-//W3C//DTD SVG 1.1//EN" "http://www.w3.org/Graphics/SVG/1.1/DTD/svg11.dtd">
<svg version="1.1" id="Lager_1" xmlns="http://www.w3.org/2000/svg" xmlns:xlink="http://www.w3.org/1999/xlink" x="0px" y="0px"
	 width="298.662px" height="360.585px" viewBox="0 0 298.662 360.585" enable-background="new 0 0 298.662 360.585"
	 xml:space="preserve">
<g>
	<polygon fill="#FFD600" points="298.662,360.58 0,360.58 151.527,0 	"/>
	<polygon fill="#FDC100" points="151.527,0 0,360.58 151.528,360.58 	"/>
	<circle fill="#FFD600" cx="135.481" cy="79.82" r="12.489"/>
	<circle fill="#FDC100" cx="215.513" cy="239.262" r="12.489"/>
	<circle fill="#FFD600" cx="78.924" cy="312.812" r="12.488"/>
	<circle fill="#FDC100" cx="151.494" cy="278.288" r="12.488"/>
	<circle fill="#FDC100" cx="151.528" cy="151.638" r="22.034"/>
	<circle fill="#FFD600" cx="100.959" cy="226.771" r="22.035"/>
	<path fill="#FFD600" d="M151.528,173.672c-12.171,0-22.034-9.865-22.034-22.035c0-12.168,9.863-22.035,22.034-22.035V173.672z"/>
	<path fill="#FFD600" d="M151.494,290.777c-6.898,0-12.488-5.591-12.488-12.489c0-6.896,5.59-12.487,12.488-12.487V290.777z"/>
	<polygon fill="#65A5A2" points="298.662,360.58 155.271,360.58 271.73,294.579 	"/>
	<circle fill="#65A5A2" cx="182.967" cy="339.792" r="18.984"/>
	<circle fill="#65A5A2" cx="241.214" cy="309.762" r="18.984"/>
	<path fill="#65A5A2" d="M166.948,360.585c1.874-2.025,3.02-4.735,3.02-7.713c0-6.274-5.085-11.359-11.359-11.359
		c-6.273,0-11.358,5.085-11.358,11.359c0,2.978,1.146,5.688,3.02,7.713"/>
	<path fill="#65A5A2" d="M272.756,297.094c-1.156,2.437-3.181,4.472-5.865,5.598c-5.785,2.428-12.441-0.294-14.869-6.081
		c-2.427-5.784,0.296-12.44,6.082-14.868c2.745-1.151,5.688-1.143,8.28-0.197"/>
	<circle fill="#65A5A2" cx="214.247" cy="331.797" r="18.984"/>
	<polygon fill="#478E89" points="298.143,359.51 154.752,359.51 282.887,322.122 	"/>
</g>
</svg>
