<?xml version="1.0" encoding="utf-8"?>
<!-- Generator: Adobe Illustrator 15.0.2, SVG Export Plug-In . SVG Version: 6.00 Build 0)  -->
<!DOCTYPE svg PUBLIC "-//W3C//DTD SVG 1.1//EN" "http://www.w3.org/Graphics/SVG/1.1/DTD/svg11.dtd">
<svg version="1.1" id="Lager_1" xmlns="http://www.w3.org/2000/svg" xmlns:xlink="http://www.w3.org/1999/xlink" x="0px" y="0px"
	 width="155.277px" height="66.396px" viewBox="0 0 155.277 66.396" enable-background="new 0 0 155.277 66.396"
	 xml:space="preserve">
<path fill="#FFFFFF" d="M135.295,32.9c0.005-0.261,0.02-0.522,0.02-0.785C135.315,14.406,120.907,0,103.2,0
	C90.764,0,79.967,7.107,74.633,17.469c-4.243-4.229-10.069-6.746-16.201-6.746c-10.839,0-20.055,7.474-22.361,17.94
	c-3.18-1.335-6.548-2.012-10.03-2.012C11.682,26.651,0,38.334,0,52.692c0,4.503,1.168,8.942,3.377,12.836
	c0.304,0.535,0.874,0.867,1.49,0.867h129.986l14.119,0.001l0,0c0.488,0,0.955-0.208,1.277-0.571c3.241-3.63,5.026-8.31,5.026-13.179
	C155.277,42.186,147.77,32.115,135.295,32.9z"/>
</svg>
