<?xml version="1.0" encoding="utf-8"?>
<!-- Generator: Adobe Illustrator 17.0.0, SVG Export Plug-In . SVG Version: 6.00 Build 0)  -->
<!DOCTYPE svg PUBLIC "-//W3C//DTD SVG 1.1//EN" "http://www.w3.org/Graphics/SVG/1.1/DTD/svg11.dtd">
<svg version="1.1" id="Layer_1" xmlns="http://www.w3.org/2000/svg" xmlns:xlink="http://www.w3.org/1999/xlink" x="0px" y="0px"
	 width="90.26px" height="302.357px" viewBox="0 0 90.26 302.357" enable-background="new 0 0 90.26 302.357" xml:space="preserve">
<g>
	<g>
		
			<path fill="#F39200" stroke="#F39200" stroke-width="5.1997" stroke-linecap="round" stroke-linejoin="round" stroke-miterlimit="10" d="
			M45.52,299.757l40.822-148.302c5.628-30.496-7.192-52.492-30.054-52.492H45.6h-0.155H34.757
			c-22.862,0-35.685,21.997-30.055,52.492L45.52,299.757z"/>
	</g>
	<g>
		<g>
			<path fill="#F08100" d="M45.52,299.757l40.822-148.302c5.628-30.496-7.192-52.492-30.054-52.492H45.6h-0.155L45.52,299.757z"/>
		</g>
		<g>
			<path fill="#F08100" d="M45.445,96.363h10.843c9.968,0,18.454,3.865,24.54,11.178c8.459,10.163,11.4,26.341,8.07,44.386
				c-0.013,0.073-0.03,0.146-0.05,0.218L48.026,300.447c-0.313,1.14-1.35,1.91-2.504,1.91c-0.115,0-0.232-0.008-0.35-0.023
				L45.445,96.363z"/>
		</g>
	</g>
	<g>
		
			<path fill="#008D36" stroke="#008D36" stroke-width="2.7955" stroke-linecap="round" stroke-linejoin="round" stroke-miterlimit="10" d="
			M29.954,46.084c0,0-27.802-8.699-28.537-27.313C0.841,4.205,13.53-0.798,24.786,2.256c17.591,4.772,16.756,32.296,16.408,36.315
			c0,0-0.176,4.31-0.523,11.649c0,9.958,0,39.671,0,39.671h-5.127V47.307L29.954,46.084z"/>
	</g>
	<g>
		
			<path fill="#008D36" stroke="#008D36" stroke-width="2.7955" stroke-linecap="round" stroke-linejoin="round" stroke-miterlimit="10" d="
			M57.262,73.869c0,0,27.798-8.7,28.537-27.315c0.571-14.564-12.116-19.568-23.37-16.515c-17.593,4.772-15.414,26.602-15.865,32.655
			c0,0-0.022,7.34-0.022,15.309c0-1.72,0,11.887,0,11.887h5.128V75.092L57.262,73.869z"/>
	</g>
</g>
</svg>
