<?xml version="1.0" encoding="utf-8"?>
<!-- Generator: Adobe Illustrator 15.0.2, SVG Export Plug-In . SVG Version: 6.00 Build 0)  -->
<!DOCTYPE svg PUBLIC "-//W3C//DTD SVG 1.1//EN" "http://www.w3.org/Graphics/SVG/1.1/DTD/svg11.dtd">
<svg version="1.1" id="Lager_1" xmlns="http://www.w3.org/2000/svg" xmlns:xlink="http://www.w3.org/1999/xlink" x="0px" y="0px"
	 width="176.981px" height="289.573px" viewBox="0 0 176.981 289.573" enable-background="new 0 0 176.981 289.573"
	 xml:space="preserve">
<g>
	<g>
		
			<path fill="#F39200" stroke="#F39200" stroke-width="10.1494" stroke-linecap="round" stroke-linejoin="round" stroke-miterlimit="10" d="
			M103.21,284.499l-10.253-61.085l46.632-62.887l2.648-44.434c3.947-39.063-12.383-58.032-38.164-58.032H92.021h-0.174H79.793
			c-25.781,0-40.243,24.805-33.893,59.196l25.604,43.856l-12.263,61.981L103.21,284.499z"/>
	</g>
	
		<path fill="#008D36" stroke="#008D36" stroke-width="3.3871" stroke-linecap="round" stroke-linejoin="round" stroke-miterlimit="10" d="
		M167.92,9.352c-15.217-16.33-45.273-1.843-49.484,0.617c-5.769,3.026-7.197,3.576-12.158,7.32
		c-8.769,6.01-14.771,12.889-18.907,19.376c-5.236-4.426-11.889-8.644-20.312-11.778c-5.72-2.431-7.241-2.619-13.571-4.158
		c-4.683-1.367-37.352-8.145-48.159,11.383c-6.917,12.493-4.659,28.591,12.849,31.39c22.374,3.573,40.836-27.013,40.836-27.013
		s3.133-4.625,3.086-6.274c10.24,1.479,18.46,7.266,24.561,13.507l4.946-0.054c-0.164-0.167-0.35-0.333-0.517-0.5l0.727,0.244
		c4.407-7.534,10.982-18.24,20.559-22.154c0.355,1.612,4.514,5.34,4.514,5.34s25.32,25.206,46.163,16.32
		C179.361,35.964,177.652,19.798,167.92,9.352z"/>
	<g>
		
			<path fill="#F08100" stroke="#F08100" stroke-width="10.1494" stroke-linecap="round" stroke-linejoin="round" stroke-miterlimit="10" d="
			M92.021,58.062H79.793c-25.781,0-40.243,24.805-33.893,59.196l25.604,43.856l-12.263,61.981l43.968,61.403l-29.399-62.678
			l25.529-62.643L92.021,58.062z"/>
	</g>
</g>
</svg>
