<?xml version="1.0" encoding="utf-8"?>
<!-- Generator: Adobe Illustrator 17.0.0, SVG Export Plug-In . SVG Version: 6.00 Build 0)  -->
<!DOCTYPE svg PUBLIC "-//W3C//DTD SVG 1.1//EN" "http://www.w3.org/Graphics/SVG/1.1/DTD/svg11.dtd">
<svg version="1.1" id="Layer_1" xmlns="http://www.w3.org/2000/svg" xmlns:xlink="http://www.w3.org/1999/xlink" x="0px" y="0px"
	 width="254.024px" height="159.918px" viewBox="0 0 254.024 159.918" enable-background="new 0 0 254.024 159.918"
	 xml:space="preserve">
<g>
	<path fill="#164C7C" stroke="#164C7C" stroke-width="3.4067" stroke-miterlimit="10" d="M104.85,96.067
		c0,34.323-23.089,62.147-51.572,62.147c-28.484,0-51.574-27.823-51.574-62.147c0-34.323,23.091-94.364,51.574-94.364
		C81.761,1.703,104.85,61.745,104.85,96.067z"/>
</g>
<g>
	<path fill="#12416A" stroke="#12416A" stroke-width="3.4067" stroke-miterlimit="10" d="M53.278,1.703
		c-28.484,0-51.574,60.041-51.574,94.364c0,34.323,23.091,62.147,51.574,62.147L53.159,1.97"/>
</g>
<g>
	<path fill="#103B61" stroke="#103B61" stroke-width="3.0417" stroke-miterlimit="10" d="M92.494,73.459
		c0,26.1-17.557,47.258-39.216,47.258c-21.66,0-39.218-21.158-39.218-47.258c0-26.099,17.558-71.756,39.218-71.756
		C74.936,1.703,92.494,47.36,92.494,73.459z"/>
</g>
<g>
	<path fill="#0A3051" stroke="#0A3051" stroke-width="3.0417" stroke-miterlimit="10" d="M53.277,1.703
		c-21.66,0-39.218,45.657-39.218,71.756c0,26.1,17.558,47.258,39.218,47.258L53.159,1.97"/>
</g>
<g>
	<path fill="#164C7C" stroke="#164C7C" stroke-width="3.4067" stroke-miterlimit="10" d="M77.318,46.481
		c0,16.288-10.957,29.491-24.472,29.491c-13.516,0-24.473-13.203-24.473-29.491c0-16.287,10.957-44.778,24.473-44.778
		C66.361,1.703,77.318,30.195,77.318,46.481z"/>
</g>
<g>
	<path fill="#13426C" stroke="#13426C" stroke-width="3.4067" stroke-miterlimit="10" d="M52.845,75.972
		c-13.516,0-24.473-13.203-24.473-29.491c0-16.287,10.957-44.778,24.473-44.778V75.972z"/>
</g>
<g>
	<path fill="#388FCE" stroke="#388FCE" stroke-width="3.4067" stroke-miterlimit="10" d="M69.631,32.11
		c0,10.963-7.375,19.85-16.472,19.85c-9.098,0-16.473-8.887-16.473-19.85c0-10.962,7.375-30.14,16.473-30.14
		C62.256,1.97,69.631,21.148,69.631,32.11z"/>
</g>
<g>
	<path fill="#3481B9" stroke="#3481B9" stroke-width="3.4067" stroke-miterlimit="10" d="M53.159,1.97
		c-9.098,0-16.473,19.177-16.473,30.14c0,10.963,7.375,19.85,16.473,19.85V1.97z"/>
</g>
<g>
	<path fill="#164C7C" stroke="#164C7C" stroke-width="3.4067" stroke-miterlimit="10" d="M244.834,71.719
		c15.11,30.819,6.626,65.966-18.949,78.504c-25.574,12.539-58.556-2.279-73.666-33.098c-15.109-30.818-20.807-94.894,4.768-107.432
		C182.562-2.845,229.724,40.901,244.834,71.719z"/>
</g>
<g>
	<path fill="#12416A" stroke="#12416A" stroke-width="3.4067" stroke-miterlimit="10" d="M156.987,9.694
		c-25.575,12.539-19.877,76.614-4.768,107.432c15.109,30.819,48.091,45.637,73.666,33.098L156.998,9.985"/>
</g>
<g>
	<path fill="#103B61" stroke="#103B61" stroke-width="3.0417" stroke-miterlimit="10" d="M223.786,56.859
		c11.49,23.435,5.04,50.161-14.409,59.696c-19.448,9.535-44.527-1.733-56.017-25.168c-11.489-23.434-15.822-72.159,3.626-81.694
		C176.434,0.159,212.297,33.425,223.786,56.859z"/>
</g>
<g>
	<path fill="#0A3051" stroke="#0A3051" stroke-width="3.0417" stroke-miterlimit="10" d="M156.987,9.694
		c-19.448,9.535-15.115,58.259-3.626,81.694c11.49,23.435,36.57,34.703,56.017,25.168l-52.38-106.57"/>
</g>
<g>
	<path fill="#164C7C" stroke="#164C7C" stroke-width="3.4067" stroke-miterlimit="10" d="M198.284,39.317
		c7.17,14.624,3.144,31.303-8.992,37.252c-12.137,5.95-27.787-1.081-34.957-15.706c-7.169-14.624-9.874-45.029,2.263-50.979
		C168.734,3.934,191.114,24.693,198.284,39.317z"/>
</g>
<g>
	<path fill="#13426C" stroke="#13426C" stroke-width="3.4067" stroke-miterlimit="10" d="M156.599,9.884
		c-12.137,5.95-9.432,36.356-2.263,50.979c7.17,14.625,22.82,21.656,34.957,15.706L156.599,9.884z"/>
</g>
<g>
	<path fill="#388FCE" stroke="#388FCE" stroke-width="3.4067" stroke-miterlimit="10" d="M185.056,29.796
		c4.826,9.844,2.116,21.07-6.052,25.075c-8.169,4.005-18.703-0.728-23.529-10.571c-4.826-9.843-6.646-30.309,1.523-34.314
		C165.167,5.98,180.231,19.953,185.056,29.796z"/>
</g>
<g>
	<path fill="#3481B9" stroke="#3481B9" stroke-width="3.4067" stroke-miterlimit="10" d="M156.998,9.985
		c-8.169,4.005-6.349,24.471-1.523,34.314c4.826,9.844,15.36,14.576,23.529,10.571L156.998,9.985z"/>
</g>
</svg>
