<?xml version="1.0" encoding="utf-8"?>
<!-- Generator: Adobe Illustrator 15.0.2, SVG Export Plug-In . SVG Version: 6.00 Build 0)  -->
<!DOCTYPE svg PUBLIC "-//W3C//DTD SVG 1.1//EN" "http://www.w3.org/Graphics/SVG/1.1/DTD/svg11.dtd">
<svg version="1.1" id="Lager_1" xmlns="http://www.w3.org/2000/svg" xmlns:xlink="http://www.w3.org/1999/xlink" x="0px" y="0px" viewBox="0 0 119.546 119.547" enable-background="new 0 0 119.546 119.547"
	 xml:space="preserve">
<rect x="-1290.716" y="-99.915" fill="#15927E" stroke="#38A962" stroke-width="0.9614" stroke-miterlimit="10" width="737.001" height="422"/>
<g>
	<circle fill="#D9DADB" stroke="#D9DADB" stroke-width="0.9614" stroke-miterlimit="10" cx="59.773" cy="59.773" r="59.293"/>
	<path fill="#C8C9CA" stroke="#C8C9CA" stroke-width="0.9614" stroke-miterlimit="10" d="M59.773,119.066
		c-32.746,0-59.292-26.547-59.292-59.293C0.48,27.026,27.027,0.48,59.773,0.48V119.066z"/>
	<circle fill="#ECEDED" stroke="#ECEDED" stroke-width="0.8519" stroke-miterlimit="10" cx="59.773" cy="59.773" r="52.543"/>
	<path fill="#DFE0E1" stroke="#DFE0E1" stroke-width="0.8519" stroke-miterlimit="10" d="M59.773,112.316
		c-29.019,0-52.542-23.523-52.542-52.543C7.23,30.755,30.754,7.23,59.773,7.23V112.316z"/>
	
		<path fill="#C2C3C4" stroke="#C2C3C4" stroke-width="3.503" stroke-linecap="round" stroke-linejoin="round" stroke-miterlimit="10" d="
		M44.343,62.521V27.035h29.252v3.637h-26.22v23.69c2.973-2.358,6.271-3.538,9.899-3.538c6.479,0,11.401,2.031,14.761,6.094
		c3.357,4.063,5.039,9.109,5.039,15.138c0,6.029-1.771,11.485-5.308,16.365c-3.537,4.886-8.103,7.324-13.69,7.324
		c-3.982,0-7.535-1.259-10.656-3.783c-3.121-2.523-4.771-5.686-4.95-9.486h3.3c0.237,2.49,1.53,4.669,3.88,6.537
		c2.348,1.867,5.305,2.8,8.874,2.8c4.518,0,8.16-1.965,10.926-5.897c2.764-3.931,4.146-8.421,4.146-13.467s-1.397-9.305-4.19-12.777
		c-2.795-3.476-6.867-5.21-12.219-5.21c-2.676,0-5.172,0.753-7.492,2.26C47.375,58.229,45.592,60.16,44.343,62.521z"/>
</g>
<g>
	<circle fill="#D9DADB" stroke="#D9DADB" stroke-width="0.9614" stroke-miterlimit="10" cx="-868.227" cy="86.328" r="59.293"/>
	<path fill="#C8C9CA" stroke="#C8C9CA" stroke-width="0.9614" stroke-miterlimit="10" d="M-868.227,145.621
		c-32.746,0-59.292-26.547-59.292-59.293c0-32.747,26.546-59.293,59.292-59.293V145.621z"/>
	<circle fill="#ECEDED" stroke="#ECEDED" stroke-width="0.8519" stroke-miterlimit="10" cx="-868.227" cy="86.328" r="52.543"/>
	<path fill="#DFE0E1" stroke="#DFE0E1" stroke-width="0.8519" stroke-miterlimit="10" d="M-868.227,138.871
		c-29.019,0-52.542-23.523-52.542-52.543c0-29.019,23.523-52.543,52.542-52.543V138.871z"/>
	
		<path fill="#C2C3C4" stroke="#C2C3C4" stroke-width="3.503" stroke-linecap="round" stroke-linejoin="round" stroke-miterlimit="10" d="
		M-883.657,89.075V53.59h29.252v3.637h-26.22v23.69c2.973-2.358,6.271-3.538,9.899-3.538c6.479,0,11.401,2.031,14.761,6.094
		c3.357,4.063,5.039,9.109,5.039,15.138c0,6.029-1.771,11.485-5.308,16.365c-3.537,4.886-8.103,7.324-13.69,7.324
		c-3.982,0-7.535-1.259-10.656-3.783c-3.121-2.523-4.771-5.686-4.95-9.486h3.3c0.237,2.49,1.53,4.669,3.88,6.537
		c2.348,1.867,5.305,2.8,8.874,2.8c4.518,0,8.16-1.965,10.926-5.897c2.764-3.931,4.146-8.421,4.146-13.467s-1.397-9.305-4.19-12.777
		c-2.795-3.476-6.867-5.21-12.219-5.21c-2.676,0-5.172,0.753-7.492,2.26C-880.625,84.783-882.408,86.715-883.657,89.075z"/>
</g>
</svg>
