<?xml version="1.0" encoding="utf-8"?>
<!-- Generator: Adobe Illustrator 15.0.2, SVG Export Plug-In . SVG Version: 6.00 Build 0)  -->
<!DOCTYPE svg PUBLIC "-//W3C//DTD SVG 1.1//EN" "http://www.w3.org/Graphics/SVG/1.1/DTD/svg11.dtd">
<svg version="1.1" id="Lager_1" xmlns="http://www.w3.org/2000/svg" xmlns:xlink="http://www.w3.org/1999/xlink" x="0px" y="0px"
	 width="86.897px" height="86.898px" viewBox="0 0 86.897 86.898" enable-background="new 0 0 86.897 86.898" xml:space="preserve">
<rect x="-1320.459" y="-148.938" fill="#15927E" stroke="#38A962" stroke-width="0.9614" stroke-miterlimit="10" width="737.001" height="422"/>
<g>
	<circle fill="#FFDA40" stroke="#FFDA40" stroke-width="0.6988" stroke-miterlimit="10" cx="43.449" cy="43.449" r="43.099"/>
	<path fill="#FFCE08" stroke="#FFCE08" stroke-width="0.6988" stroke-miterlimit="10" d="M43.448,86.549
		c-23.803,0-43.099-19.297-43.099-43.1c0-23.804,19.296-43.1,43.099-43.1V86.549z"/>
	<g>
		<circle fill="#FCC113" stroke="#FCC113" stroke-width="0.5809" stroke-miterlimit="10" cx="43.449" cy="43.675" r="35.831"/>
		<path fill="#F9B618" stroke="#F9B618" stroke-width="0.5809" stroke-miterlimit="10" d="M43.448,79.506
			c-19.789,0-35.83-16.042-35.83-35.831S23.659,7.844,43.448,7.844V79.506z"/>
	</g>
	<g>
		
			<path fill="#FFE266" stroke="#FFE266" stroke-width="2.1807" stroke-linecap="round" stroke-linejoin="round" stroke-miterlimit="10" d="
			M33.143,63.22h-2.146V26.843l-8.473,3.842v-2.09l10.618-4.916V63.22z"/>
		
			<path fill="#FFE266" stroke="#FFE266" stroke-width="2.1807" stroke-linecap="round" stroke-linejoin="round" stroke-miterlimit="10" d="
			M65.831,43.787c0,6.214-1.055,10.986-3.164,14.32c-2.107,3.331-5.168,4.998-9.179,4.998c-4.01,0-7.173-1.694-9.489-5.083
			c-2.314-3.391-3.473-8.199-3.473-14.433c0-6.231,1.128-11.015,3.389-14.348c2.259-3.331,5.479-4.998,9.658-4.998
			C61.745,24.244,65.831,30.759,65.831,43.787z M63.741,42.855c0-5.215-0.875-9.254-2.627-12.116
			c-1.75-2.859-4.303-4.293-7.654-4.293s-5.996,1.434-7.936,4.293c-1.939,2.862-2.908,7.155-2.908,12.878
			c0,6.704,1.525,11.618,4.574,14.744c1.694,1.731,3.635,2.598,5.818,2.598c2.185,0,3.973-0.486,5.365-1.469
			c1.394-0.979,2.467-2.314,3.222-4.009C63.026,52.28,63.741,48.071,63.741,42.855z"/>
	</g>
</g>
<g>
	<circle fill="#FFDA40" stroke="#FFDA40" stroke-width="0.6988" stroke-miterlimit="10" cx="-964.5" cy="43.449" r="43.099"/>
	<path fill="#FFCE08" stroke="#FFCE08" stroke-width="0.6988" stroke-miterlimit="10" d="M-964.501,86.549
		c-23.803,0-43.099-19.297-43.099-43.1c0-23.804,19.296-43.1,43.099-43.1V86.549z"/>
	<g>
		<circle fill="#FCC113" stroke="#FCC113" stroke-width="0.5809" stroke-miterlimit="10" cx="-964.5" cy="43.675" r="35.831"/>
		<path fill="#F9B618" stroke="#F9B618" stroke-width="0.5809" stroke-miterlimit="10" d="M-964.501,79.506
			c-19.789,0-35.83-16.042-35.83-35.831s16.041-35.831,35.83-35.831V79.506z"/>
	</g>
	<g>
		
			<path fill="#FFE266" stroke="#FFE266" stroke-width="2.1807" stroke-linecap="round" stroke-linejoin="round" stroke-miterlimit="10" d="
			M-974.807,63.22h-2.146V26.843l-8.473,3.842v-2.09l10.618-4.916V63.22z"/>
		
			<path fill="#FFE266" stroke="#FFE266" stroke-width="2.1807" stroke-linecap="round" stroke-linejoin="round" stroke-miterlimit="10" d="
			M-942.118,43.787c0,6.214-1.055,10.986-3.164,14.32c-2.107,3.331-5.168,4.998-9.179,4.998c-4.01,0-7.173-1.694-9.489-5.083
			c-2.314-3.391-3.473-8.199-3.473-14.433c0-6.231,1.128-11.015,3.389-14.348c2.259-3.331,5.479-4.998,9.658-4.998
			C-946.204,24.244-942.118,30.759-942.118,43.787z M-944.208,42.855c0-5.215-0.875-9.254-2.627-12.116
			c-1.75-2.859-4.303-4.293-7.654-4.293s-5.996,1.434-7.936,4.293c-1.939,2.862-2.908,7.155-2.908,12.878
			c0,6.704,1.525,11.618,4.574,14.744c1.694,1.731,3.635,2.598,5.818,2.598c2.185,0,3.973-0.486,5.365-1.469
			c1.394-0.979,2.467-2.314,3.222-4.009C-944.923,52.28-944.208,48.071-944.208,42.855z"/>
	</g>
</g>
</svg>
