<?xml version="1.0" encoding="utf-8"?>
<!-- Generator: Adobe Illustrator 15.0.2, SVG Export Plug-In . SVG Version: 6.00 Build 0)  -->
<!DOCTYPE svg PUBLIC "-//W3C//DTD SVG 1.1//EN" "http://www.w3.org/Graphics/SVG/1.1/DTD/svg11.dtd">
<svg version="1.1" id="Lager_1" xmlns="http://www.w3.org/2000/svg" xmlns:xlink="http://www.w3.org/1999/xlink" x="0px" y="0px"
	 width="97.081px" height="97.082px" viewBox="0 0 97.081 97.082" enable-background="new 0 0 97.081 97.082" xml:space="preserve">
<g>
	<circle fill="#D9DADB" stroke="#D9DADB" stroke-width="0.7807" stroke-miterlimit="10" cx="48.54" cy="48.541" r="48.15"/>
	<path fill="#C8C9CA" stroke="#C8C9CA" stroke-width="0.7807" stroke-miterlimit="10" d="M48.54,96.691
		c-26.592,0-48.15-21.558-48.15-48.15c0-26.593,21.558-48.15,48.15-48.15V96.691z"/>
	<circle fill="#ECEDED" stroke="#ECEDED" stroke-width="0.6918" stroke-miterlimit="10" cx="48.541" cy="48.541" r="42.669"/>
	<path fill="#DFE0E1" stroke="#DFE0E1" stroke-width="0.6918" stroke-miterlimit="10" d="M48.54,91.209
		c-23.566,0-42.668-19.104-42.668-42.669c0-23.565,19.103-42.669,42.668-42.669V91.209z"/>
	
		<polygon fill="#C2C3C4" stroke="#C2C3C4" stroke-width="1.4148" stroke-linecap="round" stroke-linejoin="round" stroke-miterlimit="10" points="
		68.591,61.886 28.491,61.886 26.491,35.195 39.174,48.541 48.375,35.195 57.245,48.541 70.591,35.195 	"/>
	
		<polygon fill="#B9BBBC" stroke="#B5B7B8" stroke-width="1.4148" stroke-linecap="round" stroke-linejoin="round" stroke-miterlimit="10" points="
		48.541,61.886 28.491,61.886 26.491,35.195 39.174,48.541 48.375,35.195 	"/>
</g>
</svg>
