<?xml version="1.0" encoding="utf-8"?>
<!-- Generator: Adobe Illustrator 15.0.2, SVG Export Plug-In . SVG Version: 6.00 Build 0)  -->
<!DOCTYPE svg PUBLIC "-//W3C//DTD SVG 1.1//EN" "http://www.w3.org/Graphics/SVG/1.1/DTD/svg11.dtd">
<svg version="1.1" id="Lager_1" xmlns="http://www.w3.org/2000/svg" xmlns:xlink="http://www.w3.org/1999/xlink" x="0px" y="0px"
	 width="119.002px" height="33.953px" viewBox="0 0 119.002 33.953" enable-background="new 0 0 119.002 33.953"
	 xml:space="preserve">
<g>
	<rect fill="#FFFFFF" enable-background="new    " width="119.002" height="33.953"/>
	<g>
		<path fill="#3C3C3B" d="M12.626,25.416L12.602,8.479c2.49,0.08,4.369,0.422,5.638,1.023c1.269,0.603,1.903,1.502,1.903,2.699
			c0,1.196-0.337,2.084-1.012,2.662c-0.675,0.578-1.494,0.932-2.458,1.061c1.269,0.111,2.349,0.554,3.241,1.324
			c0.892,0.771,1.337,1.9,1.337,3.386c0,1.486-0.735,2.65-2.205,3.493C17.578,24.971,15.437,25.4,12.626,25.416z M19.252,12.188
			c0-0.899-0.514-1.59-1.542-2.071c-1.028-0.482-2.434-0.724-4.216-0.724v6.12C17.333,15.465,19.252,14.357,19.252,12.188z
			 M20.36,20.502c0-0.836-0.233-1.535-0.699-2.098c-0.466-0.562-1.092-0.963-1.879-1.204c-1.317-0.434-2.739-0.65-4.265-0.65v7.951
			c1.301-0.017,2.425-0.165,3.373-0.446c0.948-0.279,1.663-0.639,2.145-1.072C19.918,22.164,20.36,21.336,20.36,20.502z"/>
		<path fill="#3C3C3B" d="M32.456,9.73v15.614h-0.892v-7.952h-6.843v7.952H23.83V14.309c0-1.734,0.554-3.156,1.663-4.264
			c1.108-1.109,2.498-1.663,4.168-1.663C30.881,8.382,31.813,8.832,32.456,9.73z M31.564,16.502v-6.434
			c-0.514-0.53-1.165-0.795-1.952-0.795c-1.414,0-2.582,0.514-3.506,1.542c-0.924,1.028-1.385,2.2-1.385,3.518v2.169H31.564z
			 M25.757,5.346h0.916v1.59h-0.916V5.346z M29.854,5.346h0.916v1.59h-0.916V5.346z"/>
		<path fill="#3C3C3B" d="M41.635,22.79c0.723-0.626,1.084-1.39,1.084-2.288c0-0.9-0.261-1.619-0.783-2.156
			c-0.522-0.539-1.153-0.94-1.892-1.205c-0.739-0.266-1.481-0.534-2.229-0.808c-0.747-0.272-1.382-0.687-1.903-1.241
			c-0.522-0.554-0.783-1.265-0.783-2.133c0-1.509,0.421-2.633,1.265-3.373c0.844-0.738,1.852-1.107,3.024-1.107
			s2.458,0.112,3.855,0.337v0.892C42.02,9.483,40.847,9.37,39.755,9.37c-1.092,0-1.988,0.306-2.687,0.916
			c-0.699,0.611-1.048,1.47-1.048,2.578c0,0.964,0.498,1.688,1.494,2.168c0.45,0.226,0.943,0.434,1.482,0.627
			c0.538,0.193,1.08,0.41,1.626,0.65c0.546,0.241,1.04,0.526,1.481,0.855c0.442,0.33,0.803,0.787,1.084,1.373
			c0.281,0.587,0.421,1.27,0.421,2.049s-0.181,1.467-0.542,2.061s-0.807,1.061-1.337,1.396c-0.53,0.338-1.148,0.611-1.855,0.818
			c-1.141,0.354-2.426,0.531-3.855,0.531h-0.603V24.5C38.278,24.501,40.35,23.932,41.635,22.79z"/>
		<path fill="#3C3C3B" d="M49.226,25.344h-0.892V9.369h-3.855v-0.89h8.626V9.37h-3.879V25.344z"/>
		<path fill="#3C3C3B" d="M59.393,19.152H53.61V18.26h5.783V19.152z"/>
		<path fill="#3C3C3B" d="M63.248,25.344h-0.892V8.479h8.625V9.37h-7.733v6.168h7.733v0.893h-7.733V25.344z"/>
		<path fill="#3C3C3B" d="M83.873,17.056c0,2.65-0.451,4.694-1.351,6.131c-0.899,1.438-2.201,2.156-3.903,2.156
			s-3.052-0.727-4.048-2.18c-0.995-1.454-1.493-3.518-1.493-6.193c0-2.674,0.489-4.777,1.47-6.312
			c0.979-1.533,2.346-2.301,4.098-2.301c1.043,0,1.931,0.27,2.662,0.807c0.729,0.539,1.271,1.266,1.625,2.182
			C83.56,13.031,83.873,14.936,83.873,17.056z M82.979,16.646c0-2.232-0.377-4.016-1.131-5.35c-0.756-1.333-1.841-2-3.254-2
			c-1.414,0-2.537,0.663-3.373,1.988c-0.836,1.325-1.252,3.225-1.252,5.698c0,2.875,0.649,4.987,1.951,6.336
			c0.723,0.738,1.549,1.109,2.48,1.109c0.931,0,1.695-0.209,2.289-0.627c0.595-0.418,1.053-0.996,1.373-1.734
			C82.676,20.686,82.979,18.879,82.979,16.646z M75.944,5.346h0.916v1.59h-0.916V5.346z M80.041,5.346h0.916v1.59h-0.916V5.346z"/>
		<path fill="#3C3C3B" d="M95.534,25.344h-1.085l-4.675-7.156c-0.594,0.082-1.252,0.138-1.976,0.17v6.986h-0.892V8.454
			c5.381,0.017,8.072,1.63,8.072,4.843c0,2.586-1.414,4.168-4.242,4.746L95.534,25.344z M87.8,17.393l0.241,0.024
			c4.03-0.063,6.047-1.413,6.047-4.048c0-0.738-0.172-1.354-0.519-1.844c-0.346-0.489-0.733-0.871-1.168-1.145
			C91.373,9.739,89.84,9.402,87.8,9.369V17.393z"/>
		<path fill="#3C3C3B" d="M97.774,25.344V8.479h8.625V9.37h-7.733v6.168h7.733v0.893h-7.733v8.023h7.733v0.892h-8.625V25.344z"/>
	</g>
</g>
</svg>
