<?xml version="1.0" encoding="utf-8"?>
<!-- Generator: Adobe Illustrator 15.0.2, SVG Export Plug-In . SVG Version: 6.00 Build 0)  -->
<!DOCTYPE svg PUBLIC "-//W3C//DTD SVG 1.1//EN" "http://www.w3.org/Graphics/SVG/1.1/DTD/svg11.dtd">
<svg version="1.1" id="Lager_1" xmlns="http://www.w3.org/2000/svg" xmlns:xlink="http://www.w3.org/1999/xlink" x="0px" y="0px"
	 width="67.846px" height="33.953px" viewBox="0 0 67.846 33.953" enable-background="new 0 0 67.846 33.953" xml:space="preserve">
<g>
	<rect opacity="0.6" fill="#FFFFFF" width="67.846" height="33.953"/>
	<g>
		<path fill="#3C3C3B" d="M21.684,25.344h-0.892v-1.638c0-4.979-1.221-7.47-3.663-7.47c-0.514,0-1.004,0.133-1.47,0.398
			c-0.466,0.264-0.791,0.498-0.976,0.698c-0.185,0.2-0.422,0.493-0.711,0.88v7.131h-0.892V8.479h0.892v8.312l6.505-8.337h1.229
			l-5.59,7.036c0.385-0.098,0.763-0.145,1.132-0.145c1.365,0,2.446,0.658,3.241,1.975c0.795,1.318,1.193,3.35,1.193,6.096V25.344z"
			/>
		<path fill="#3C3C3B" d="M24.382,22.935l0.964,0.024c0.562,1.027,1.369,1.542,2.421,1.542c1.052,0,1.916-0.422,2.59-1.265
			c0.674-0.844,1.012-2.092,1.012-3.747v-2.072c-0.771,1.188-1.899,1.783-3.385,1.783s-2.582-0.569-3.289-1.711
			c-0.707-1.14-1.06-2.53-1.06-4.168V8.479h0.892v4.818c0,1.654,0.321,2.903,0.964,3.746c0.642,0.844,1.41,1.266,2.301,1.266
			c0.892,0,1.654-0.266,2.289-0.795c0.634-0.53,1.064-1.316,1.289-2.361V8.479h0.892v11.035c0,1.831-0.377,3.269-1.132,4.312
			c-0.755,1.045-1.888,1.566-3.397,1.566C26.221,25.393,25.104,24.573,24.382,22.935z"/>
		<path fill="#3C3C3B" d="M44.211,25.344h-8.385V8.479h0.892v15.975h7.493V25.344z"/>
		<path fill="#3C3C3B" d="M54.812,9.73v15.613h-0.892v-7.951h-6.843v7.951h-0.892V14.309c0-1.734,0.554-3.156,1.663-4.264
			c1.107-1.109,2.497-1.663,4.168-1.663C53.238,8.382,54.17,8.832,54.812,9.73z M53.921,16.502v-6.434
			c-0.515-0.53-1.165-0.795-1.952-0.795c-1.413,0-2.582,0.514-3.506,1.542s-1.385,2.2-1.385,3.518v2.169H53.921z"/>
	</g>
</g>
</svg>
