<?xml version="1.0" encoding="utf-8"?>
<!-- Generator: Adobe Illustrator 15.0.2, SVG Export Plug-In . SVG Version: 6.00 Build 0)  -->
<!DOCTYPE svg PUBLIC "-//W3C//DTD SVG 1.1//EN" "http://www.w3.org/Graphics/SVG/1.1/DTD/svg11.dtd">
<svg version="1.1" id="Lager_1" xmlns="http://www.w3.org/2000/svg" xmlns:xlink="http://www.w3.org/1999/xlink" x="0px" y="0px"
	 width="127.956px" height="33.953px" viewBox="0 0 127.956 33.953" enable-background="new 0 0 127.956 33.953"
	 xml:space="preserve">
<g>
	<rect opacity="0.6" fill="#FFFFFF" width="127.956" height="33.953"/>
	<g>
		<path fill="#3C3C3B" d="M12.754,25.344h-0.892V9.369H8.007V8.479h8.626v0.891h-3.879V25.344z"/>
		<path fill="#3C3C3B" d="M21.283,25.344L17.645,8.479h0.892l3.349,15.42l3.349-15.42h0.892l-3.59,16.865H21.283z"/>
		<path fill="#3C3C3B" d="M36.824,9.73v15.613h-0.892v-7.951H29.09v7.951h-0.892V14.309c0-1.734,0.554-3.156,1.663-4.264
			c1.108-1.109,2.498-1.663,4.168-1.663C35.25,8.382,36.182,8.832,36.824,9.73z M35.933,16.502v-6.434
			c-0.514-0.53-1.165-0.795-1.952-0.795c-1.414,0-2.582,0.514-3.506,1.543c-0.924,1.027-1.385,2.199-1.385,3.517v2.169H35.933z
			 M34.077,7.418c-0.37,0.369-0.819,0.555-1.349,0.555c-0.53,0-0.98-0.186-1.349-0.555c-0.37-0.369-0.554-0.823-0.554-1.361
			s0.185-0.988,0.554-1.35c0.369-0.361,0.819-0.542,1.349-0.542c0.53,0,0.979,0.181,1.349,0.542s0.554,0.812,0.554,1.35
			S34.447,7.049,34.077,7.418z M33.957,6.045c0-0.354-0.117-0.643-0.35-0.867S33.081,4.84,32.728,4.84
			c-0.354,0-0.646,0.113-0.879,0.338S31.5,5.688,31.5,6.033c0,0.345,0.116,0.643,0.349,0.891c0.233,0.25,0.534,0.373,0.903,0.373
			s0.663-0.12,0.88-0.361C33.849,6.695,33.957,6.398,33.957,6.045z"/>
		<path fill="#3C3C3B" d="M41.33,25.344h-0.892V8.479h8.626v0.891H41.33v6.168h7.734v0.893H41.33V25.344z"/>
		<path fill="#3C3C3B" d="M60.292,9.73v15.613H59.4v-7.951h-6.843v7.951h-0.892V14.309c0-1.734,0.554-3.156,1.663-4.264
			c1.108-1.109,2.498-1.663,4.168-1.663C58.717,8.382,59.649,8.832,60.292,9.73z M59.4,16.502v-6.434
			c-0.514-0.53-1.165-0.795-1.952-0.795c-1.414,0-2.582,0.514-3.506,1.543c-0.924,1.027-1.385,2.199-1.385,3.517v2.169H59.4z"/>
		<path fill="#3C3C3B" d="M71.88,12.213l-0.891-0.024c-0.145-0.867-0.503-1.554-1.072-2.06c-0.57-0.506-1.209-0.76-1.916-0.76
			c-1.189,0-2.129,0.607-2.818,1.82c-0.691,1.213-1.037,2.605-1.037,4.18c0,4.418,1.14,7.18,3.421,8.289
			c1.092,0.546,2.529,0.818,4.312,0.818v0.892c-2.329,0-4.064-0.345-5.204-1.036c-0.45-0.273-0.903-0.658-1.361-1.156
			s-0.831-1.092-1.121-1.783c-0.626-1.558-0.939-3.574-0.939-6.047c0-1.173,0.16-2.225,0.482-3.157
			c0.321-0.931,0.723-1.654,1.205-2.169c0.98-1.027,1.967-1.541,2.964-1.541c0.995,0,1.906,0.401,2.734,1.204
			C71.466,10.486,71.88,11.33,71.88,12.213z"/>
		<path fill="#3C3C3B" d="M82.892,25.344H82v-1.638c0-4.979-1.222-7.47-3.663-7.47c-0.514,0-1.004,0.133-1.469,0.398
			c-0.467,0.264-0.791,0.498-0.977,0.698c-0.185,0.2-0.422,0.493-0.711,0.88v7.131h-0.891V8.479h0.891v8.312l6.506-8.337h1.229
			l-5.59,7.036c0.386-0.098,0.764-0.145,1.133-0.145c1.365,0,2.445,0.658,3.24,1.975c0.795,1.318,1.193,3.35,1.193,6.096V25.344z"/>
		<path fill="#3C3C3B" d="M90.939,22.79c0.723-0.626,1.085-1.39,1.085-2.288c0-0.9-0.261-1.619-0.783-2.157
			s-1.153-0.939-1.892-1.204c-0.738-0.266-1.481-0.534-2.229-0.808c-0.747-0.272-1.382-0.687-1.903-1.241
			c-0.522-0.554-0.783-1.265-0.783-2.133c0-1.509,0.421-2.633,1.265-3.373c0.844-0.738,1.852-1.107,3.023-1.107
			c1.173,0,2.459,0.112,3.855,0.338v0.891c-1.252-0.225-2.426-0.338-3.518-0.338s-1.988,0.306-2.687,0.916
			c-0.698,0.611-1.048,1.47-1.048,2.578c0,0.964,0.498,1.687,1.494,2.168c0.449,0.226,0.943,0.434,1.481,0.627s1.08,0.41,1.626,0.65
			c0.547,0.241,1.04,0.526,1.482,0.855c0.441,0.33,0.803,0.787,1.084,1.373c0.281,0.587,0.422,1.27,0.422,2.049
			s-0.182,1.466-0.543,2.06c-0.361,0.595-0.807,1.061-1.337,1.397c-0.53,0.338-1.148,0.611-1.854,0.819
			c-1.141,0.354-2.426,0.53-3.855,0.53h-0.603v-0.892C87.582,24.501,89.654,23.932,90.939,22.79z"/>
		<path fill="#3C3C3B" d="M95.686,25.416L95.662,8.479c2.49,0.08,4.369,0.422,5.639,1.023c1.269,0.603,1.903,1.502,1.903,2.699
			c0,1.196-0.337,2.084-1.012,2.662s-1.494,0.932-2.458,1.061c1.27,0.111,2.35,0.554,3.24,1.324c0.893,0.771,1.338,1.9,1.338,3.386
			s-0.734,2.65-2.205,3.493C100.638,24.971,98.498,25.4,95.686,25.416z M102.312,12.188c0-0.899-0.514-1.59-1.542-2.071
			c-1.028-0.482-2.434-0.724-4.216-0.724v6.12C100.392,15.465,102.312,14.357,102.312,12.188z M103.42,20.502
			c0-0.836-0.233-1.535-0.698-2.098c-0.467-0.562-1.093-0.963-1.88-1.204c-1.317-0.434-2.739-0.65-4.265-0.65v7.951
			c1.301-0.016,2.426-0.165,3.373-0.446c0.947-0.279,1.662-0.639,2.145-1.072C102.978,22.164,103.42,21.336,103.42,20.502z"/>
		<path fill="#3C3C3B" d="M107.925,25.344h-0.891V8.526h0.891V25.344z"/>
		<path fill="#3C3C3B" d="M119.972,25.344h-8.385V8.479h0.893v15.975h7.492V25.344z"/>
	</g>
</g>
</svg>
