<?xml version="1.0" encoding="utf-8"?>
<!-- Generator: Adobe Illustrator 15.0.2, SVG Export Plug-In . SVG Version: 6.00 Build 0)  -->
<!DOCTYPE svg PUBLIC "-//W3C//DTD SVG 1.1//EN" "http://www.w3.org/Graphics/SVG/1.1/DTD/svg11.dtd">
<svg version="1.1" id="Lager_1" xmlns="http://www.w3.org/2000/svg" xmlns:xlink="http://www.w3.org/1999/xlink" x="0px" y="0px"
	 width="93.585px" height="33.953px" viewBox="0 0 93.585 33.953" enable-background="new 0 0 93.585 33.953" xml:space="preserve">
<g>
	<rect opacity="0.6" fill="#FFFFFF" width="93.585" height="33.953"/>
	<g>
		<path fill="#3C3C3B" d="M15.013,18.213v7.131h-0.892V8.454c2.811,0.017,4.952,0.446,6.421,1.289s2.205,2.028,2.205,3.554
			c0,1.799-0.707,3.053-2.12,3.759c-0.482,0.257-0.908,0.45-1.277,0.578c-0.37,0.129-0.867,0.241-1.494,0.337
			C17.069,18.068,16.121,18.148,15.013,18.213z M15.013,17.32l0.241,0.024c4.401-0.063,6.602-1.39,6.602-3.976
			c0-0.964-0.442-1.822-1.325-2.578c-0.482-0.418-1.192-0.755-2.132-1.012c-0.939-0.257-2.068-0.394-3.385-0.41V17.32z"/>
		<path fill="#3C3C3B" d="M25.132,25.344V8.479h8.626v0.891h-7.734v6.168h7.734v0.893h-7.734v8.023h7.734v0.891H25.132z"/>
		<path fill="#3C3C3B" d="M37.564,9.996v15.348h-0.892V8.454h1.277l6.457,14.843V8.479h0.892v16.865h-0.892L37.564,9.996z"/>
		<path fill="#3C3C3B" d="M56.937,12.213l-0.893-0.024c-0.145-0.867-0.502-1.554-1.072-2.06s-1.209-0.76-1.915-0.76
			c-1.188,0-2.128,0.607-2.819,1.82c-0.69,1.213-1.035,2.605-1.035,4.18c0,3.197,0.549,5.478,1.65,6.843
			c1.1,1.366,2.83,2.112,5.191,2.241v-6.627h-2.361v-0.891h3.254v8.433c-2.33,0-4.064-0.345-5.205-1.036
			c-0.449-0.273-0.903-0.658-1.361-1.156s-0.831-1.092-1.121-1.783c-0.626-1.558-0.939-3.574-0.939-6.047
			c0-1.173,0.16-2.225,0.482-3.157c0.321-0.931,0.723-1.654,1.205-2.169c0.979-1.027,1.967-1.541,2.963-1.541
			s1.908,0.401,2.734,1.204C56.523,10.486,56.937,11.33,56.937,12.213z"/>
		<path fill="#3C3C3B" d="M68.646,9.73v15.613h-0.892v-7.951h-6.843v7.951H60.02V14.309c0-1.734,0.554-3.156,1.663-4.264
			c1.107-1.109,2.497-1.663,4.168-1.663C67.072,8.382,68.003,8.832,68.646,9.73z M67.754,16.502v-6.434
			c-0.515-0.53-1.165-0.795-1.952-0.795c-1.413,0-2.582,0.514-3.506,1.542s-1.385,2.2-1.385,3.518v2.169H67.754z"/>
		<path fill="#3C3C3B" d="M80.886,25.344h-1.085l-4.675-7.156c-0.594,0.081-1.252,0.137-1.975,0.17v6.986h-0.893V8.454
			c5.381,0.017,8.072,1.63,8.072,4.843c0,2.586-1.414,4.168-4.24,4.746L80.886,25.344z M73.152,17.393l0.24,0.024
			c4.031-0.063,6.048-1.413,6.048-4.048c0-0.738-0.173-1.354-0.519-1.844c-0.346-0.489-0.734-0.871-1.168-1.145
			c-1.028-0.642-2.562-0.979-4.602-1.012V17.393z"/>
	</g>
</g>
</svg>
