<?xml version="1.0" encoding="utf-8"?>
<!-- Generator: Adobe Illustrator 15.0.2, SVG Export Plug-In . SVG Version: 6.00 Build 0)  -->
<!DOCTYPE svg PUBLIC "-//W3C//DTD SVG 1.1//EN" "http://www.w3.org/Graphics/SVG/1.1/DTD/svg11.dtd">
<svg version="1.1" id="Lager_1" xmlns="http://www.w3.org/2000/svg" xmlns:xlink="http://www.w3.org/1999/xlink" x="0px" y="0px"
	 width="88.324px" height="33.953px" viewBox="0 0 88.324 33.953" enable-background="new 0 0 88.324 33.953" xml:space="preserve">
<g>
	<rect opacity="0.6" fill="#FFFFFF" width="88.324" height="33.953"/>
	<g>
		<path fill="#3C3C3B" d="M17.754,22.79c0.723-0.626,1.084-1.39,1.084-2.288c0-0.9-0.261-1.619-0.783-2.157
			c-0.522-0.538-1.153-0.939-1.892-1.204c-0.739-0.266-1.481-0.534-2.229-0.808c-0.747-0.272-1.382-0.687-1.903-1.241
			c-0.522-0.554-0.783-1.265-0.783-2.133c0-1.509,0.421-2.633,1.265-3.373c0.844-0.738,1.852-1.107,3.024-1.107
			s2.458,0.112,3.855,0.337v0.892c-1.253-0.225-2.426-0.338-3.518-0.338s-1.988,0.306-2.687,0.916
			c-0.699,0.611-1.048,1.47-1.048,2.578c0,0.964,0.498,1.687,1.494,2.168c0.45,0.226,0.943,0.434,1.482,0.627
			c0.538,0.193,1.08,0.41,1.626,0.65c0.546,0.241,1.04,0.526,1.481,0.855c0.442,0.33,0.803,0.787,1.084,1.373
			c0.281,0.587,0.421,1.27,0.421,2.049s-0.181,1.466-0.542,2.06c-0.361,0.595-0.807,1.061-1.337,1.397
			c-0.53,0.338-1.148,0.611-1.855,0.819c-1.141,0.354-2.426,0.53-3.855,0.53h-0.603v-0.892
			C14.397,24.501,16.469,23.932,17.754,22.79z"/>
		<path fill="#3C3C3B" d="M30.886,25.344h-8.385V8.479h0.892v15.975h7.493V25.344z"/>
		<path fill="#3C3C3B" d="M41.487,9.73v15.613h-0.892v-7.951h-6.843v7.951h-0.892V14.309c0-1.734,0.554-3.156,1.663-4.264
			c1.108-1.109,2.498-1.663,4.168-1.663C39.913,8.382,40.845,8.832,41.487,9.73z M40.596,16.502v-6.434
			c-0.514-0.53-1.165-0.795-1.952-0.795c-1.414,0-2.582,0.514-3.506,1.542s-1.385,2.2-1.385,3.518v2.169H40.596z M34.789,5.346
			h0.916v1.59h-0.916V5.346z M38.885,5.346h0.916v1.59h-0.916V5.346z"/>
		<path fill="#3C3C3B" d="M45.993,9.996v15.348h-0.892V8.454h1.277l6.457,14.843V8.479h0.892v16.865h-0.892L45.993,9.996z"/>
		<path fill="#3C3C3B" d="M65.365,12.213l-0.892-0.024c-0.145-0.867-0.503-1.554-1.072-2.06c-0.57-0.506-1.209-0.76-1.915-0.76
			c-1.189,0-2.129,0.607-2.819,1.82s-1.036,2.605-1.036,4.18c0,3.197,0.55,5.478,1.65,6.843c1.1,1.366,2.831,2.112,5.192,2.241
			v-6.627h-2.361v-0.891h3.253v8.433c-2.33,0-4.064-0.345-5.205-1.036c-0.449-0.273-0.902-0.658-1.361-1.156
			c-0.457-0.498-0.83-1.092-1.12-1.783c-0.626-1.558-0.939-3.574-0.939-6.047c0-1.173,0.16-2.225,0.481-3.157
			c0.322-0.931,0.723-1.654,1.205-2.169c0.979-1.027,1.967-1.541,2.964-1.541c0.995,0,1.907,0.401,2.734,1.204
			C64.951,10.486,65.365,11.33,65.365,12.213z"/>
		<path fill="#3C3C3B" d="M77.074,9.73v15.613h-0.891v-7.951h-6.844v7.951h-0.891V14.309c0-1.734,0.554-3.156,1.662-4.264
			c1.108-1.109,2.498-1.663,4.168-1.663C75.5,8.382,76.431,8.832,77.074,9.73z M76.183,16.502v-6.434
			c-0.515-0.53-1.165-0.795-1.952-0.795c-1.413,0-2.582,0.514-3.506,1.542s-1.386,2.2-1.386,3.518v2.169H76.183z"/>
	</g>
</g>
</svg>
