<?xml version="1.0" encoding="utf-8"?>
<!-- Generator: Adobe Illustrator 15.0.2, SVG Export Plug-In . SVG Version: 6.00 Build 0)  -->
<!DOCTYPE svg PUBLIC "-//W3C//DTD SVG 1.1//EN" "http://www.w3.org/Graphics/SVG/1.1/DTD/svg11.dtd">
<svg version="1.1" id="Lager_1" xmlns="http://www.w3.org/2000/svg" xmlns:xlink="http://www.w3.org/1999/xlink" x="0px" y="0px"
	 width="118.506px" height="33.953px" viewBox="0 0 118.506 33.953" enable-background="new 0 0 118.506 33.953"
	 xml:space="preserve">
<g>
	<rect fill="#FFFFFF" enable-background="new    " width="118.506" height="33.953"/>
	<g>
		<path fill="#3C3C3B" d="M19.951,22.79c0.723-0.626,1.084-1.39,1.084-2.288c0-0.9-0.261-1.619-0.783-2.156
			c-0.522-0.539-1.153-0.94-1.892-1.205c-0.739-0.266-1.481-0.534-2.229-0.808c-0.747-0.272-1.382-0.687-1.903-1.241
			c-0.522-0.554-0.783-1.265-0.783-2.133c0-1.509,0.421-2.633,1.265-3.373c0.844-0.738,1.852-1.107,3.024-1.107
			s2.458,0.112,3.855,0.337v0.892c-1.253-0.225-2.426-0.338-3.518-0.338c-1.092,0-1.988,0.306-2.687,0.916
			c-0.699,0.611-1.048,1.47-1.048,2.578c0,0.964,0.498,1.688,1.494,2.168c0.45,0.226,0.943,0.434,1.482,0.627
			c0.538,0.193,1.08,0.41,1.626,0.65c0.546,0.241,1.04,0.526,1.481,0.855c0.442,0.33,0.803,0.787,1.084,1.373
			c0.281,0.587,0.421,1.27,0.421,2.049s-0.181,1.467-0.542,2.061c-0.361,0.594-0.807,1.061-1.337,1.396
			c-0.53,0.338-1.148,0.611-1.855,0.818c-1.141,0.354-2.426,0.531-3.855,0.531h-0.603V24.5
			C16.594,24.501,18.666,23.932,19.951,22.79z"/>
		<path fill="#3C3C3B" d="M33.179,9.73v15.614h-0.892v-7.952h-6.843v7.952h-0.892V14.309c0-1.734,0.554-3.156,1.663-4.264
			c1.108-1.109,2.498-1.663,4.168-1.663C31.604,8.382,32.537,8.832,33.179,9.73z M32.288,16.502v-6.434
			c-0.514-0.53-1.165-0.795-1.952-0.795c-1.414,0-2.582,0.514-3.506,1.542c-0.924,1.028-1.385,2.2-1.385,3.518v2.169H32.288z"/>
		<path fill="#3C3C3B" d="M46.455,25.344l0.048-15.469l-4.023,9.229h-0.82l-4.024-9.229v15.469h-0.843V8.454h1.157l4.12,9.444
			l4.096-9.444h1.181v16.89H46.455z"/>
		<path fill="#3C3C3B" d="M59.635,25.344h-0.892v-7.951H51.9v7.951h-0.892V8.479H51.9v8.023h6.843V8.479h0.892V25.344z"/>
		<path fill="#3C3C3B" d="M71.778,9.73v15.614h-0.893v-7.952h-6.843v7.952h-0.892V14.309c0-1.734,0.555-3.156,1.662-4.264
			c1.108-1.109,2.498-1.663,4.168-1.663C70.203,8.382,71.136,8.832,71.778,9.73z M70.888,16.502v-6.434
			c-0.515-0.53-1.164-0.795-1.951-0.795c-1.414,0-2.582,0.514-3.506,1.542c-0.925,1.028-1.387,2.2-1.387,3.518v2.169H70.888z
			 M65.08,5.346h0.916v1.59H65.08V5.346z M69.176,5.346h0.916v1.59h-0.916V5.346z"/>
		<path fill="#3C3C3B" d="M83.776,25.344h-8.385V8.479h0.892v15.975h7.493V25.344z"/>
		<path fill="#3C3C3B" d="M94.28,25.344h-8.385V8.479h0.894v15.975h7.491V25.344z"/>
		<path fill="#3C3C3B" d="M96.401,25.344V8.479h8.625V9.37h-7.733v6.168h7.733v0.893h-7.733v8.023h7.733v0.892h-8.625V25.344z"/>
	</g>
</g>
</svg>
