<?xml version="1.0" encoding="utf-8"?>
<!-- Generator: Adobe Illustrator 15.0.2, SVG Export Plug-In . SVG Version: 6.00 Build 0)  -->
<!DOCTYPE svg PUBLIC "-//W3C//DTD SVG 1.1//EN" "http://www.w3.org/Graphics/SVG/1.1/DTD/svg11.dtd">
<svg version="1.1" id="Lager_1" xmlns="http://www.w3.org/2000/svg" xmlns:xlink="http://www.w3.org/1999/xlink" x="0px" y="0px"
	 width="73.739px" height="33.953px" viewBox="0 0 73.739 33.953" enable-background="new 0 0 73.739 33.953" xml:space="preserve">
<g>
	<rect opacity="0.6" fill="#FFFFFF" width="73.739" height="33.953"/>
	<g>
		<path fill="#3C3C3B" d="M16.655,22.79c0.723-0.627,1.084-1.389,1.084-2.289c0-0.898-0.261-1.617-0.783-2.156
			c-0.522-0.538-1.153-0.939-1.892-1.205c-0.739-0.265-1.481-0.533-2.229-0.807s-1.382-0.688-1.903-1.241
			c-0.522-0.554-0.783-1.265-0.783-2.132c0-1.51,0.421-2.635,1.265-3.373c0.844-0.739,1.852-1.109,3.024-1.109
			s2.458,0.113,3.855,0.338v0.892c-1.253-0.226-2.426-0.337-3.518-0.337s-1.988,0.305-2.687,0.915s-1.048,1.47-1.048,2.578
			c0,0.964,0.498,1.687,1.494,2.169c0.45,0.225,0.943,0.434,1.482,0.626c0.538,0.192,1.08,0.409,1.626,0.65
			c0.546,0.241,1.04,0.526,1.481,0.855s0.803,0.787,1.084,1.374c0.281,0.586,0.421,1.269,0.421,2.047
			c0,0.779-0.181,1.467-0.542,2.061c-0.361,0.595-0.807,1.061-1.337,1.397c-0.53,0.337-1.148,0.61-1.855,0.819
			c-1.141,0.354-2.426,0.53-3.855,0.53h-0.603v-0.892C13.297,24.501,15.37,23.931,16.655,22.79z"/>
		<path fill="#3C3C3B" d="M29.786,25.345h-8.385V8.478h0.892v15.975h7.493V25.345z"/>
		<path fill="#3C3C3B" d="M40.87,17.056c0,2.65-0.451,4.695-1.35,6.133c-0.9,1.438-2.201,2.156-3.904,2.156
			s-3.052-0.727-4.048-2.182c-0.996-1.453-1.494-3.518-1.494-6.191c0-2.675,0.49-4.779,1.47-6.312
			c0.979-1.534,2.345-2.302,4.096-2.302c1.044,0,1.931,0.27,2.663,0.808c0.73,0.538,1.272,1.265,1.626,2.18
			C40.556,13.032,40.87,14.936,40.87,17.056z M39.978,16.646c0-2.232-0.377-4.015-1.132-5.348c-0.755-1.334-1.84-2-3.253-2
			c-1.414,0-2.538,0.662-3.373,1.987c-0.835,1.325-1.253,3.225-1.253,5.698c0,2.875,0.65,4.988,1.952,6.337
			c0.723,0.739,1.55,1.108,2.481,1.108s1.695-0.209,2.289-0.627c0.595-0.417,1.053-0.995,1.374-1.734
			C39.673,20.687,39.978,18.879,39.978,16.646z M32.942,5.346h0.916v1.591h-0.916V5.346z M37.039,5.346h0.916v1.591h-0.916V5.346z"
			/>
		<path fill="#3C3C3B" d="M49.472,22.79c0.723-0.627,1.084-1.389,1.084-2.289c0-0.898-0.262-1.617-0.783-2.156
			c-0.522-0.538-1.152-0.939-1.892-1.205c-0.739-0.265-1.481-0.533-2.229-0.807s-1.382-0.688-1.903-1.241
			c-0.522-0.554-0.783-1.265-0.783-2.132c0-1.51,0.422-2.635,1.265-3.373c0.844-0.739,1.852-1.109,3.024-1.109
			c1.172,0,2.457,0.113,3.855,0.338v0.892c-1.254-0.226-2.426-0.337-3.519-0.337s-1.987,0.305-2.687,0.915s-1.048,1.47-1.048,2.578
			c0,0.964,0.497,1.687,1.493,2.169c0.45,0.225,0.943,0.434,1.482,0.626c0.538,0.192,1.08,0.409,1.627,0.65
			c0.545,0.241,1.039,0.526,1.48,0.855c0.442,0.329,0.804,0.787,1.085,1.374c0.28,0.586,0.421,1.269,0.421,2.047
			c0,0.779-0.18,1.467-0.541,2.061c-0.361,0.595-0.808,1.061-1.338,1.397c-0.529,0.337-1.148,0.61-1.855,0.819
			c-1.141,0.354-2.426,0.53-3.854,0.53h-0.603v-0.892C46.114,24.501,48.187,23.931,49.472,22.79z"/>
		<path fill="#3C3C3B" d="M62.699,9.731v15.613h-0.892v-7.951h-6.843v7.951h-0.892V14.31c0-1.735,0.555-3.157,1.662-4.266
			c1.109-1.107,2.498-1.662,4.169-1.662C61.124,8.382,62.057,8.831,62.699,9.731z M61.808,16.501v-6.433
			c-0.514-0.53-1.164-0.795-1.951-0.795c-1.414,0-2.582,0.515-3.506,1.542s-1.386,2.201-1.386,3.518v2.168H61.808z"/>
	</g>
</g>
</svg>
