<?xml version="1.0" encoding="utf-8"?>
<!-- Generator: Adobe Illustrator 15.0.2, SVG Export Plug-In . SVG Version: 6.00 Build 0)  -->
<!DOCTYPE svg PUBLIC "-//W3C//DTD SVG 1.1//EN" "http://www.w3.org/Graphics/SVG/1.1/DTD/svg11.dtd">
<svg version="1.1" id="Lager_1" xmlns="http://www.w3.org/2000/svg" xmlns:xlink="http://www.w3.org/1999/xlink" x="0px" y="0px"
	 width="92.746px" height="33.953px" viewBox="0 0 92.746 33.953" enable-background="new 0 0 92.746 33.953" xml:space="preserve">
<g>
	<rect opacity="0.6" fill="#FFFFFF" width="92.746" height="33.953"/>
	<g>
		<path fill="#3C3C3B" d="M20.375,25.344h-1.084l-4.674-7.156c-0.594,0.081-1.253,0.137-1.976,0.17v6.986H11.75V8.454
			c5.381,0.017,8.072,1.63,8.072,4.843c0,2.586-1.414,4.168-4.241,4.746L20.375,25.344z M12.641,17.393l0.241,0.024
			c4.032-0.063,6.048-1.413,6.048-4.048c0-0.738-0.173-1.354-0.518-1.844c-0.346-0.489-0.735-0.871-1.168-1.145
			c-1.028-0.642-2.562-0.979-4.602-1.012V17.393z"/>
		<path fill="#3C3C3B" d="M32.76,17.056c0,2.65-0.45,4.694-1.35,6.132s-2.201,2.156-3.903,2.156s-3.052-0.727-4.048-2.18
			c-0.996-1.454-1.494-3.518-1.494-6.193c0-2.674,0.49-4.777,1.47-6.312c0.979-1.533,2.345-2.301,4.096-2.301
			c1.044,0,1.931,0.27,2.662,0.807c0.731,0.539,1.273,1.266,1.626,2.182C32.446,13.031,32.76,14.936,32.76,17.056z M31.868,16.646
			c0-2.232-0.377-4.016-1.132-5.35c-0.755-1.333-1.84-2-3.253-2c-1.414,0-2.538,0.663-3.373,1.988
			c-0.835,1.325-1.253,3.225-1.253,5.698c0,2.876,0.65,4.987,1.952,6.337c0.723,0.738,1.55,1.108,2.481,1.108
			s1.695-0.208,2.289-0.626s1.052-0.996,1.374-1.735C31.563,20.686,31.868,18.879,31.868,16.646z M24.833,5.346h0.916v1.59h-0.916
			V5.346z M28.929,5.346h0.916v1.59h-0.916V5.346z"/>
		<path fill="#3C3C3B" d="M38.302,25.344H37.41V9.369h-3.855V8.479h8.626v0.891h-3.879V25.344z"/>
		<path fill="#3C3C3B" d="M45.216,9.996v15.348h-0.892V8.454h1.277l6.457,14.843V8.479h0.892v16.865h-0.892L45.216,9.996z"/>
		<path fill="#3C3C3B" d="M57.504,25.344h-0.892V8.526h0.892V25.344z"/>
		<path fill="#3C3C3B" d="M62.058,9.996v15.348h-0.892V8.454h1.277l6.457,14.843V8.479h0.892v16.865h-0.892L62.058,9.996z"/>
		<path fill="#3C3C3B" d="M81.43,12.213l-0.892-0.024c-0.145-0.867-0.502-1.554-1.072-2.06s-1.209-0.76-1.916-0.76
			c-1.188,0-2.128,0.607-2.818,1.82c-0.691,1.213-1.036,2.605-1.036,4.18c0,3.197,0.55,5.478,1.65,6.843
			c1.101,1.366,2.831,2.112,5.192,2.241v-6.627h-2.361v-0.891h3.253v8.433c-2.329,0-4.064-0.345-5.204-1.036
			c-0.45-0.273-0.904-0.658-1.361-1.156c-0.459-0.498-0.832-1.092-1.121-1.783c-0.627-1.558-0.939-3.574-0.939-6.047
			c0-1.173,0.16-2.225,0.482-3.157c0.32-0.931,0.723-1.654,1.204-2.169c0.979-1.027,1.968-1.541,2.964-1.541
			s1.907,0.401,2.734,1.204C81.016,10.486,81.43,11.33,81.43,12.213z"/>
	</g>
</g>
</svg>
