<?xml version="1.0" encoding="utf-8"?>
<!-- Generator: Adobe Illustrator 15.0.2, SVG Export Plug-In . SVG Version: 6.00 Build 0)  -->
<!DOCTYPE svg PUBLIC "-//W3C//DTD SVG 1.1//EN" "http://www.w3.org/Graphics/SVG/1.1/DTD/svg11.dtd">
<svg version="1.1" id="Lager_1" xmlns="http://www.w3.org/2000/svg" xmlns:xlink="http://www.w3.org/1999/xlink" x="0px" y="0px"
	 width="125.472px" height="33.953px" viewBox="0 0 125.472 33.953" enable-background="new 0 0 125.472 33.953"
	 xml:space="preserve">
<g>
	<rect opacity="0.6" fill="#FFFFFF" width="125.472" height="33.953"/>
	<g>
		<path fill="#3C3C3B" d="M22.812,25.344L22.86,9.875l-4.023,9.229h-0.819l-4.024-9.229v15.469H13.15V8.454h1.157l4.12,9.444
			l4.096-9.444h1.181v16.89H22.812z"/>
		<path fill="#3C3C3B" d="M35.848,9.73v15.613h-0.892v-7.951h-6.843v7.951h-0.892V14.309c0-1.734,0.554-3.156,1.663-4.264
			c1.108-1.109,2.498-1.663,4.168-1.663C34.273,8.382,35.205,8.832,35.848,9.73z M34.956,16.502v-6.434
			c-0.514-0.53-1.165-0.795-1.952-0.795c-1.414,0-2.582,0.514-3.506,1.542s-1.385,2.2-1.385,3.518v2.169H34.956z"/>
		<path fill="#3C3C3B" d="M42.69,25.344h-0.892V9.369h-3.855V8.479h8.626v0.891H42.69V25.344z"/>
		<path fill="#3C3C3B" d="M56.448,9.73v15.613h-0.892v-7.951h-6.843v7.951h-0.892V14.309c0-1.734,0.554-3.156,1.663-4.264
			c1.108-1.109,2.498-1.663,4.168-1.663C54.874,8.382,55.806,8.832,56.448,9.73z M55.557,16.502v-6.434
			c-0.514-0.53-1.165-0.795-1.952-0.795c-1.414,0-2.582,0.514-3.506,1.542s-1.385,2.2-1.385,3.518v2.169H55.557z"/>
		<path fill="#3C3C3B" d="M62.568,25.344L58.93,8.479h0.892l3.349,15.42l3.349-15.42h0.893l-3.591,16.865H62.568z"/>
		<path fill="#3C3C3B" d="M70.857,25.344h-0.893V8.479h8.627v0.891h-7.734v6.168h7.734v0.893h-7.734V25.344z"/>
		<path fill="#3C3C3B" d="M89.818,9.73v15.613h-0.891v-7.951h-6.844v7.951h-0.891V14.309c0-1.734,0.554-3.156,1.662-4.264
			c1.108-1.109,2.498-1.663,4.168-1.663C88.244,8.382,89.175,8.832,89.818,9.73z M88.927,16.502v-6.434
			c-0.515-0.53-1.165-0.795-1.952-0.795c-1.413,0-2.582,0.514-3.506,1.542s-1.386,2.2-1.386,3.518v2.169H88.927z"/>
		<path fill="#3C3C3B" d="M101.817,25.344h-8.385V8.479h0.892v15.975h7.493V25.344z"/>
		<path fill="#3C3C3B" d="M112.322,25.344h-8.385V8.479h0.892v15.975h7.493V25.344z"/>
	</g>
</g>
</svg>
