<?xml version="1.0" encoding="utf-8"?>
<!-- Generator: Adobe Illustrator 15.0.2, SVG Export Plug-In . SVG Version: 6.00 Build 0)  -->
<!DOCTYPE svg PUBLIC "-//W3C//DTD SVG 1.1//EN" "http://www.w3.org/Graphics/SVG/1.1/DTD/svg11.dtd">
<svg version="1.1" id="Lager_1" xmlns="http://www.w3.org/2000/svg" xmlns:xlink="http://www.w3.org/1999/xlink" x="0px" y="0px"
	 width="89px" height="33.953px" viewBox="0 0 89 33.953" enable-background="new 0 0 89 33.953" xml:space="preserve">
<g>
	<rect fill="#FFFFFF" enable-background="new    " width="89" height="33.953"/>
	<g>
		<path fill="#3C3C3B" d="M10.346,21.729h0.892c0.032,1.224,0.337,2.024,0.916,2.41c0.434,0.273,0.859,0.41,1.277,0.41
			c1.141,0,2.016-0.391,2.626-1.17c0.61-0.777,0.916-2.074,0.916-3.891V8.478h0.892v11.036c0,3.951-1.494,5.928-4.481,5.928
			c-0.611,0-1.237-0.209-1.879-0.627c-0.337-0.239-0.615-0.627-0.832-1.155C10.454,23.128,10.346,22.484,10.346,21.729z"/>
		<path fill="#3C3C3B" d="M31.574,17.056c0,2.65-0.45,4.695-1.35,6.133c-0.9,1.438-2.201,2.156-3.903,2.156
			c-1.702,0-3.052-0.729-4.048-2.184c-0.996-1.453-1.494-3.52-1.494-6.191c0-2.675,0.49-4.779,1.47-6.312
			c0.979-1.534,2.345-2.302,4.096-2.302c1.044,0,1.931,0.27,2.662,0.808c0.731,0.538,1.273,1.265,1.626,2.18
			C31.26,13.032,31.574,14.936,31.574,17.056z M30.682,16.646c0-2.232-0.377-4.015-1.132-5.348c-0.755-1.334-1.84-2-3.253-2
			c-1.414,0-2.538,0.662-3.373,1.987c-0.835,1.325-1.253,3.225-1.253,5.698c0,2.875,0.65,4.988,1.952,6.337
			c0.723,0.738,1.55,1.107,2.481,1.107c0.931,0,1.695-0.209,2.289-0.628c0.594-0.417,1.052-0.993,1.374-1.733
			C30.377,20.688,30.682,18.879,30.682,16.646z"/>
		<path fill="#3C3C3B" d="M43.235,25.346h-1.084l-4.674-7.156c-0.594,0.08-1.253,0.138-1.976,0.168v6.988h-0.892V8.454
			c5.381,0.016,8.073,1.631,8.073,4.843c0,2.587-1.415,4.169-4.242,4.747L43.235,25.346z M35.501,17.394l0.241,0.023
			c4.032-0.064,6.048-1.413,6.048-4.048c0-0.738-0.173-1.353-0.518-1.843c-0.346-0.49-0.735-0.871-1.168-1.145
			c-1.028-0.643-2.562-0.98-4.602-1.012L35.501,17.394L35.501,17.394z"/>
		<path fill="#3C3C3B" d="M54.102,17.249c0,1.188-0.146,2.276-0.435,3.265c-0.289,0.987-0.68,1.786-1.17,2.397
			c-0.487,0.61-1.11,1.101-1.866,1.469c-1.365,0.69-3.085,1.037-5.156,1.037V8.454c2.201,0,3.938,0.329,5.205,0.988
			c1.092,0.578,1.912,1.438,2.457,2.578C53.781,13.337,54.102,15.08,54.102,17.249z M53.208,16.983c0-5.06-2.278-7.59-6.842-7.59
			V24.5c2.603-0.031,4.416-0.779,5.444-2.24C52.745,20.943,53.208,19.186,53.208,16.983z"/>
		<path fill="#3C3C3B" d="M57.087,25.346V8.478h8.628V9.37H57.98v6.168h7.734v0.891H57.98v8.023h7.734v0.894H57.087z"/>
		<path fill="#3C3C3B" d="M69.521,9.996v15.35h-0.894V8.454h1.277l6.457,14.842V8.478h0.894v16.868h-0.894L69.521,9.996z"/>
	</g>
</g>
</svg>
