<?xml version="1.0" encoding="utf-8"?>
<!-- Generator: Adobe Illustrator 15.0.2, SVG Export Plug-In . SVG Version: 6.00 Build 0)  -->
<!DOCTYPE svg PUBLIC "-//W3C//DTD SVG 1.1//EN" "http://www.w3.org/Graphics/SVG/1.1/DTD/svg11.dtd">
<svg version="1.1" id="Lager_1" xmlns="http://www.w3.org/2000/svg" xmlns:xlink="http://www.w3.org/1999/xlink" x="0px" y="0px"
	 width="71.5px" height="33.953px" viewBox="-1.827 0 71.5 33.953" enable-background="new -1.827 0 71.5 33.953"
	 xml:space="preserve">
<g>
	<rect x="-1.827" opacity="0.6" fill="#FFFFFF" enable-background="new    " width="71.5" height="33.953"/>
	<g>
		<path fill="#3C3C3B" d="M19.346,25.344l0.048-15.469l-4.022,9.229h-0.819l-4.024-9.229v15.469H9.684V8.454h1.157l4.12,9.444
			l4.096-9.444h1.181v16.89H19.346z"/>
		<path fill="#3C3C3B" d="M24.792,25.344H23.9V8.526h0.893V25.344z"/>
		<path fill="#3C3C3B" d="M36.838,25.344h-8.384V8.479h0.892v15.975h7.493L36.838,25.344L36.838,25.344z"/>
		<path fill="#3C3C3B" d="M37.561,21.73h0.894c0.03,1.221,0.337,2.022,0.915,2.408c0.434,0.272,0.858,0.409,1.275,0.409
			c1.142,0,2.018-0.389,2.627-1.168c0.61-0.778,0.916-2.075,0.916-3.892V8.479h0.892v11.035c0,3.951-1.493,5.928-4.48,5.928
			c-0.611,0-1.238-0.209-1.88-0.627c-0.337-0.24-0.614-0.627-0.831-1.155C37.67,23.127,37.561,22.484,37.561,21.73z"/>
		<path fill="#3C3C3B" d="M58.789,17.056c0,2.65-0.451,4.694-1.351,6.131c-0.899,1.438-2.201,2.156-3.903,2.156
			s-3.052-0.727-4.048-2.18c-0.995-1.454-1.493-3.518-1.493-6.193c0-2.674,0.489-4.777,1.47-6.312
			c0.979-1.533,2.345-2.301,4.097-2.301c1.043,0,1.932,0.27,2.662,0.807c0.73,0.539,1.272,1.266,1.626,2.182
			C58.475,13.031,58.789,14.936,58.789,17.056z M57.896,16.646c0-2.232-0.377-4.016-1.132-5.35c-0.755-1.333-1.84-2-3.253-2
			c-1.414,0-2.538,0.663-3.373,1.988c-0.836,1.325-1.253,3.225-1.253,5.698c0,2.875,0.65,4.987,1.952,6.336
			c0.723,0.738,1.549,1.109,2.479,1.109c0.932,0,1.695-0.209,2.289-0.627c0.596-0.418,1.054-0.996,1.374-1.734
			C57.592,20.686,57.896,18.879,57.896,16.646z M50.861,5.346h0.916v1.59h-0.916V5.346z M54.957,5.346h0.916v1.59h-0.916V5.346z"/>
	</g>
</g>
</svg>
