<?xml version="1.0" encoding="utf-8"?>
<!-- Generator: Adobe Illustrator 15.0.2, SVG Export Plug-In . SVG Version: 6.00 Build 0)  -->
<!DOCTYPE svg PUBLIC "-//W3C//DTD SVG 1.1//EN" "http://www.w3.org/Graphics/SVG/1.1/DTD/svg11.dtd">
<svg version="1.1" id="Lager_1" xmlns="http://www.w3.org/2000/svg" xmlns:xlink="http://www.w3.org/1999/xlink" x="0px" y="0px"
	 width="84.746px" height="33.953px" viewBox="0 0 84.746 33.953" enable-background="new 0 0 84.746 33.953" xml:space="preserve">
<g>
	<rect opacity="0.6" fill="#FFFFFF" width="84.746" height="33.953"/>
	<g>
		<path fill="#3C3C3B" d="M17.183,22.79c0.723-0.627,1.084-1.389,1.084-2.289c0-0.898-0.261-1.617-0.783-2.156
			c-0.522-0.538-1.153-0.939-1.892-1.205c-0.739-0.265-1.481-0.533-2.229-0.807s-1.382-0.688-1.903-1.241
			c-0.522-0.554-0.783-1.265-0.783-2.132c0-1.51,0.421-2.635,1.265-3.373c0.844-0.739,1.852-1.109,3.024-1.109
			s2.458,0.113,3.855,0.338v0.892c-1.253-0.226-2.426-0.337-3.518-0.337s-1.988,0.305-2.687,0.915s-1.048,1.47-1.048,2.578
			c0,0.964,0.498,1.687,1.494,2.169c0.45,0.225,0.943,0.434,1.482,0.626c0.538,0.192,1.08,0.409,1.626,0.65
			c0.546,0.241,1.04,0.526,1.481,0.855s0.803,0.787,1.084,1.374c0.281,0.586,0.421,1.269,0.421,2.047
			c0,0.779-0.181,1.467-0.542,2.061c-0.361,0.595-0.807,1.061-1.337,1.397c-0.53,0.337-1.148,0.61-1.855,0.819
			c-1.141,0.354-2.426,0.53-3.855,0.53h-0.603v-0.892C13.825,24.501,15.897,23.931,17.183,22.79z"/>
		<path fill="#3C3C3B" d="M30.314,25.345h-8.385V8.478h0.892v15.975h7.493V25.345z"/>
		<path fill="#3C3C3B" d="M38.892,23.839c-0.739,1.035-1.823,1.554-3.252,1.554c-1.43,0-2.498-0.57-3.205-1.711
			c-0.707-1.14-1.06-2.53-1.06-4.169V8.478h0.891v11.012c0,1.639,0.333,2.883,1,3.734s1.478,1.277,2.434,1.277
			c0.956,0,1.763-0.422,2.421-1.266c0.659-0.843,0.988-2.092,0.988-3.746V8.478H40v11.035C40,21.36,39.63,22.802,38.892,23.839z"/>
		<path fill="#3C3C3B" d="M52.192,25.345h-1.085l-4.674-7.156c-0.594,0.08-1.253,0.137-1.976,0.168v6.988h-0.892V8.454
			c5.381,0.016,8.072,1.631,8.072,4.843c0,2.587-1.414,4.169-4.241,4.747L52.192,25.345z M44.458,17.394l0.241,0.023
			c4.031-0.064,6.047-1.413,6.047-4.048c0-0.738-0.172-1.353-0.518-1.843s-0.734-0.871-1.168-1.145
			c-1.029-0.643-2.562-0.98-4.603-1.012V17.394z"/>
		<path fill="#3C3C3B" d="M63.058,25.345h-1.084l-4.675-7.156c-0.595,0.08-1.253,0.137-1.976,0.168v6.988h-0.892V8.454
			c5.382,0.016,8.071,1.631,8.071,4.843c0,2.587-1.413,4.169-4.24,4.747L63.058,25.345z M55.324,17.394l0.24,0.023
			c4.032-0.064,6.049-1.413,6.049-4.048c0-0.738-0.174-1.353-0.519-1.843c-0.346-0.49-0.735-0.871-1.169-1.145
			c-1.027-0.643-2.562-0.98-4.602-1.012V17.394z"/>
		<path fill="#3C3C3B" d="M65.347,22.935l0.963,0.024c0.562,1.028,1.369,1.542,2.422,1.542c1.052,0,1.916-0.422,2.59-1.266
			c0.675-0.843,1.012-2.092,1.012-3.746v-2.072c-0.771,1.189-1.898,1.783-3.385,1.783s-2.582-0.57-3.289-1.711
			s-1.061-2.529-1.061-4.168V8.478h0.893v4.819c0,1.655,0.32,2.903,0.963,3.747s1.41,1.265,2.301,1.265
			c0.893,0,1.654-0.265,2.289-0.795s1.064-1.317,1.289-2.361V8.478h0.893v11.035c0,1.832-0.378,3.27-1.133,4.313
			c-0.756,1.044-1.888,1.566-3.397,1.566C67.185,25.393,66.07,24.573,65.347,22.935z"/>
	</g>
</g>
</svg>
