<?xml version="1.0" encoding="utf-8"?>
<!-- Generator: Adobe Illustrator 15.0.2, SVG Export Plug-In . SVG Version: 6.00 Build 0)  -->
<!DOCTYPE svg PUBLIC "-//W3C//DTD SVG 1.1//EN" "http://www.w3.org/Graphics/SVG/1.1/DTD/svg11.dtd">
<svg version="1.1" id="Lager_1" xmlns="http://www.w3.org/2000/svg" xmlns:xlink="http://www.w3.org/1999/xlink" x="0px" y="0px"
	 width="117.251px" height="33.952px" viewBox="0 0 117.251 33.952" enable-background="new 0 0 117.251 33.952"
	 xml:space="preserve">
<g>
	<rect opacity="0.6" fill="#FFFFFF" width="117.251" height="33.952"/>
	<g>
		<path fill="#3C3C3B" d="M14.45,25.344h-0.892V9.369H9.703V8.477h8.626v0.893H14.45V25.344z"/>
		<path fill="#3C3C3B" d="M29.099,25.344h-1.084l-4.674-7.156c-0.594,0.08-1.253,0.137-1.976,0.168v6.988h-0.892V8.453
			c5.381,0.016,8.072,1.631,8.072,4.843c0,2.587-1.414,4.169-4.241,4.747L29.099,25.344z M21.364,17.393l0.241,0.023
			c4.032-0.064,6.048-1.413,6.048-4.048c0-0.738-0.173-1.353-0.518-1.843c-0.346-0.49-0.735-0.871-1.168-1.145
			c-1.028-0.643-2.562-0.98-4.602-1.012V17.393z"/>
		<path fill="#3C3C3B" d="M39.82,9.73v15.613h-0.892v-7.951h-6.843v7.951h-0.892V14.309c0-1.735,0.554-3.157,1.663-4.266
			c1.108-1.107,2.498-1.662,4.168-1.662C38.246,8.381,39.178,8.83,39.82,9.73z M38.929,16.5v-6.433
			c-0.514-0.53-1.165-0.795-1.952-0.795c-1.414,0-2.582,0.515-3.506,1.542s-1.385,2.201-1.385,3.518V16.5H38.929z"/>
		<path fill="#3C3C3B" d="M44.326,9.995v15.349h-0.892V8.453h1.277l6.457,14.842V8.477h0.892v16.867h-0.892L44.326,9.995z"/>
		<path fill="#3C3C3B" d="M61.289,22.789c0.723-0.627,1.084-1.389,1.084-2.289c0-0.898-0.262-1.617-0.783-2.156
			c-0.522-0.538-1.152-0.939-1.892-1.205c-0.739-0.265-1.481-0.533-2.229-0.807s-1.382-0.688-1.903-1.241
			c-0.522-0.554-0.783-1.265-0.783-2.132c0-1.51,0.421-2.635,1.265-3.373c0.844-0.739,1.852-1.109,3.024-1.109
			s2.458,0.113,3.856,0.338v0.893c-1.254-0.227-2.426-0.338-3.519-0.338c-1.092,0-1.988,0.305-2.687,0.915s-1.048,1.47-1.048,2.578
			c0,0.964,0.498,1.687,1.494,2.169c0.45,0.225,0.943,0.434,1.482,0.626c0.538,0.192,1.08,0.409,1.627,0.65
			c0.545,0.241,1.039,0.526,1.48,0.855c0.442,0.329,0.804,0.787,1.085,1.374c0.28,0.586,0.421,1.269,0.421,2.047
			c0,0.779-0.18,1.467-0.541,2.061c-0.361,0.595-0.808,1.061-1.338,1.397c-0.529,0.337-1.148,0.61-1.855,0.819
			c-1.141,0.354-2.426,0.53-3.855,0.53h-0.603V24.5C57.931,24.5,60.003,23.93,61.289,22.789z"/>
		<path fill="#3C3C3B" d="M66.926,18.211v7.133h-0.892V8.453c2.811,0.016,4.951,0.445,6.422,1.289
			c1.469,0.844,2.204,2.027,2.204,3.554c0,1.8-0.707,3.052-2.12,3.759c-0.482,0.258-0.908,0.45-1.277,0.578
			c-0.369,0.129-0.867,0.241-1.494,0.338C68.982,18.066,68.035,18.147,66.926,18.211z M66.926,17.32l0.241,0.023
			c4.4-0.064,6.602-1.389,6.602-3.976c0-0.964-0.441-1.823-1.325-2.577c-0.481-0.418-1.192-0.756-2.132-1.013
			s-2.068-0.394-3.386-0.409V17.32z"/>
		<path fill="#3C3C3B" d="M87.189,17.055c0,2.65-0.449,4.695-1.35,6.133c-0.898,1.438-2.2,2.156-3.902,2.156
			c-1.703,0-3.053-0.727-4.049-2.182c-0.996-1.453-1.493-3.518-1.493-6.191c0-2.675,0.489-4.779,1.47-6.312
			c0.979-1.534,2.346-2.302,4.096-2.302c1.045,0,1.932,0.27,2.662,0.808c0.731,0.538,1.273,1.265,1.627,2.18
			C86.876,13.031,87.189,14.935,87.189,17.055z M86.298,16.645c0-2.232-0.378-4.015-1.133-5.348c-0.756-1.334-1.84-2-3.253-2
			s-2.538,0.662-3.373,1.987s-1.253,3.225-1.253,5.698c0,2.875,0.65,4.988,1.951,6.337c0.723,0.739,1.551,1.108,2.482,1.108
			s1.694-0.209,2.289-0.627c0.594-0.417,1.051-0.995,1.373-1.734C85.993,20.686,86.298,18.878,86.298,16.645z"/>
		<path fill="#3C3C3B" d="M98.851,25.344h-1.084l-4.675-7.156c-0.595,0.08-1.253,0.137-1.976,0.168v6.988h-0.892V8.453
			c5.382,0.016,8.071,1.631,8.071,4.843c0,2.587-1.413,4.169-4.24,4.747L98.851,25.344z M91.117,17.393l0.24,0.023
			c4.032-0.064,6.049-1.413,6.049-4.048c0-0.738-0.174-1.353-0.519-1.843c-0.346-0.49-0.735-0.871-1.169-1.145
			c-1.027-0.643-2.562-0.98-4.602-1.012V17.393z"/>
		<path fill="#3C3C3B" d="M103.669,25.344h-0.891V9.369h-3.855V8.477h8.625v0.893h-3.879V25.344z"/>
	</g>
</g>
</svg>
