<?xml version="1.0" encoding="utf-8"?>
<!-- Generator: Adobe Illustrator 15.0.2, SVG Export Plug-In . SVG Version: 6.00 Build 0)  -->
<!DOCTYPE svg PUBLIC "-//W3C//DTD SVG 1.1//EN" "http://www.w3.org/Graphics/SVG/1.1/DTD/svg11.dtd">
<svg version="1.1" id="Lager_1" xmlns="http://www.w3.org/2000/svg" xmlns:xlink="http://www.w3.org/1999/xlink" x="0px" y="0px"
	 width="94.401px" height="33.953px" viewBox="0 0 94.401 33.953" enable-background="new 0 0 94.401 33.953" xml:space="preserve">
<g>
	<rect opacity="0.6" fill="#FFFFFF" width="94.401" height="33.953"/>
	<g>
		<path fill="#3C3C3B" d="M19.637,22.79c0.723-0.627,1.084-1.389,1.084-2.289c0-0.898-0.261-1.617-0.783-2.156
			c-0.522-0.538-1.153-0.939-1.892-1.205c-0.739-0.265-1.481-0.533-2.229-0.807s-1.382-0.688-1.903-1.241
			c-0.522-0.554-0.783-1.265-0.783-2.132c0-1.51,0.421-2.635,1.265-3.373c0.844-0.739,1.852-1.109,3.024-1.109
			s2.458,0.113,3.855,0.338v0.892C20.022,9.481,18.85,9.37,17.757,9.37s-1.988,0.305-2.687,0.915s-1.048,1.47-1.048,2.578
			c0,0.964,0.498,1.687,1.494,2.169c0.45,0.225,0.943,0.434,1.482,0.626c0.538,0.192,1.08,0.409,1.626,0.65
			c0.546,0.241,1.04,0.526,1.481,0.855s0.803,0.787,1.084,1.374c0.281,0.586,0.421,1.269,0.421,2.047
			c0,0.779-0.181,1.467-0.542,2.061c-0.361,0.595-0.807,1.061-1.337,1.397c-0.53,0.337-1.148,0.61-1.855,0.819
			c-1.141,0.354-2.426,0.53-3.855,0.53H13.42v-0.892C16.279,24.501,18.352,23.931,19.637,22.79z"/>
		<path fill="#3C3C3B" d="M26.889,25.345L23.251,8.478h0.892l3.349,15.421l3.349-15.421h0.892l-3.59,16.867H26.889z"/>
		<path fill="#3C3C3B" d="M34.286,25.345V8.478h8.626V9.37h-7.734v6.168h7.734v0.891h-7.734v8.023h7.734v0.893H34.286z"/>
		<path fill="#3C3C3B" d="M54.454,25.345h-1.085l-4.675-7.156c-0.594,0.08-1.252,0.137-1.975,0.168v6.988h-0.892V8.454
			c5.381,0.016,8.072,1.631,8.072,4.843c0,2.587-1.414,4.169-4.24,4.747L54.454,25.345z M46.719,17.394l0.241,0.023
			c4.031-0.064,6.048-1.413,6.048-4.048c0-0.738-0.173-1.353-0.519-1.843s-0.734-0.871-1.168-1.145
			c-1.028-0.643-2.562-0.98-4.602-1.012V17.394z"/>
		<path fill="#3C3C3B" d="M57.584,25.345h-0.891V8.526h0.891V25.345z"/>
		<path fill="#3C3C3B" d="M69.223,12.213l-0.893-0.024c-0.145-0.867-0.502-1.554-1.072-2.061c-0.57-0.506-1.209-0.758-1.915-0.758
			c-1.188,0-2.128,0.605-2.819,1.818c-0.69,1.213-1.035,2.606-1.035,4.181c0,3.196,0.549,5.478,1.65,6.843
			c1.1,1.365,2.83,2.112,5.191,2.24v-6.625h-2.361v-0.893h3.254v8.434c-2.33,0-4.064-0.346-5.205-1.036
			c-0.449-0.272-0.903-0.658-1.361-1.156c-0.458-0.497-0.831-1.093-1.121-1.783c-0.626-1.558-0.939-3.573-0.939-6.048
			c0-1.172,0.16-2.225,0.482-3.156c0.321-0.932,0.723-1.654,1.205-2.168c0.979-1.028,1.967-1.543,2.963-1.543
			s1.908,0.402,2.734,1.205C68.809,10.486,69.223,11.329,69.223,12.213z"/>
		<path fill="#3C3C3B" d="M72.451,25.345V8.478h8.626V9.37h-7.734v6.168h7.734v0.891h-7.734v8.023h7.734v0.893H72.451z"/>
	</g>
</g>
</svg>
