<?xml version="1.0" encoding="utf-8"?>
<!-- Generator: Adobe Illustrator 15.0.2, SVG Export Plug-In . SVG Version: 6.00 Build 0)  -->
<!DOCTYPE svg PUBLIC "-//W3C//DTD SVG 1.1//EN" "http://www.w3.org/Graphics/SVG/1.1/DTD/svg11.dtd">
<svg version="1.1" id="Lager_1" xmlns="http://www.w3.org/2000/svg" xmlns:xlink="http://www.w3.org/1999/xlink" x="0px" y="0px"
	 width="103.426px" height="33.953px" viewBox="0 0 103.426 33.953" enable-background="new 0 0 103.426 33.953"
	 xml:space="preserve">
<g>
	<rect opacity="0.6" fill="#FFFFFF" width="103.426" height="33.953"/>
	<g>
		<path fill="#3C3C3B" d="M22.318,25.344h-0.892v-7.951h-6.843v7.951h-0.892V8.479h0.892v8.023h6.843V8.479h0.892V25.344z"/>
		<path fill="#3C3C3B" d="M34.461,9.73v15.613H33.57v-7.951h-6.843v7.951h-0.892V14.309c0-1.734,0.554-3.156,1.663-4.264
			c1.108-1.109,2.498-1.663,4.168-1.663C32.887,8.382,33.819,8.832,34.461,9.73z M33.57,16.502v-6.434
			c-0.514-0.53-1.165-0.795-1.952-0.795c-1.414,0-2.582,0.514-3.506,1.542s-1.385,2.2-1.385,3.518v2.169H33.57z M31.714,7.418
			c-0.37,0.369-0.819,0.555-1.349,0.555c-0.53,0-0.98-0.186-1.349-0.555c-0.37-0.369-0.554-0.823-0.554-1.361
			s0.185-0.988,0.554-1.35c0.369-0.361,0.819-0.542,1.349-0.542c0.53,0,0.979,0.181,1.349,0.542s0.554,0.812,0.554,1.35
			S32.084,7.049,31.714,7.418z M31.594,6.045c0-0.354-0.117-0.643-0.35-0.867S30.718,4.84,30.365,4.84
			c-0.354,0-0.646,0.113-0.879,0.338s-0.349,0.51-0.349,0.855c0,0.345,0.116,0.643,0.349,0.891c0.233,0.25,0.534,0.373,0.903,0.373
			s0.663-0.12,0.88-0.361C31.486,6.695,31.594,6.398,31.594,6.045z"/>
		<path fill="#3C3C3B" d="M46.46,25.344h-8.385V8.479h0.892v15.975h7.493V25.344z"/>
		<path fill="#3C3C3B" d="M56.965,25.344H48.58V8.479h0.892v15.975h7.493V25.344z"/>
		<path fill="#3C3C3B" d="M59.085,25.416L59.061,8.479c2.49,0.08,4.369,0.422,5.639,1.023c1.269,0.603,1.903,1.502,1.903,2.699
			c0,1.196-0.337,2.084-1.012,2.662s-1.494,0.932-2.458,1.061c1.27,0.111,2.35,0.554,3.24,1.324c0.893,0.771,1.338,1.9,1.338,3.386
			s-0.734,2.65-2.205,3.493C64.037,24.971,61.896,25.4,59.085,25.416z M65.711,12.188c0-0.899-0.514-1.59-1.542-2.071
			c-1.028-0.482-2.434-0.724-4.216-0.724v6.12C63.791,15.465,65.711,14.357,65.711,12.188z M66.819,20.502
			c0-0.836-0.233-1.535-0.698-2.098c-0.467-0.562-1.093-0.963-1.88-1.204c-1.317-0.434-2.739-0.65-4.265-0.65v7.951
			c1.301-0.016,2.426-0.165,3.373-0.446c0.947-0.28,1.662-0.639,2.145-1.072C66.377,22.164,66.819,21.336,66.819,20.502z"/>
		<path fill="#3C3C3B" d="M78.914,9.73v15.613h-0.891v-7.951H71.18v7.951h-0.891V14.309c0-1.734,0.554-3.156,1.662-4.264
			c1.108-1.109,2.498-1.663,4.168-1.663C77.34,8.382,78.271,8.832,78.914,9.73z M78.023,16.502v-6.434
			c-0.515-0.53-1.165-0.795-1.952-0.795c-1.413,0-2.582,0.514-3.506,1.542s-1.386,2.2-1.386,3.518v2.169H78.023z"/>
		<path fill="#3C3C3B" d="M91.154,25.344H90.07l-4.675-7.156c-0.595,0.081-1.253,0.137-1.976,0.17v6.986h-0.892V8.454
			c5.381,0.017,8.071,1.63,8.071,4.843c0,2.586-1.413,4.168-4.24,4.746L91.154,25.344z M83.42,17.393l0.24,0.024
			c4.032-0.063,6.049-1.413,6.049-4.048c0-0.738-0.174-1.354-0.519-1.844c-0.346-0.489-0.735-0.871-1.169-1.145
			c-1.027-0.642-2.562-0.979-4.602-1.012V17.393z"/>
	</g>
</g>
</svg>
