<?xml version="1.0" encoding="utf-8"?>
<!-- Generator: Adobe Illustrator 15.0.2, SVG Export Plug-In . SVG Version: 6.00 Build 0)  -->
<!DOCTYPE svg PUBLIC "-//W3C//DTD SVG 1.1//EN" "http://www.w3.org/Graphics/SVG/1.1/DTD/svg11.dtd">
<svg version="1.1" id="Lager_1" xmlns="http://www.w3.org/2000/svg" xmlns:xlink="http://www.w3.org/1999/xlink" x="0px" y="0px"
	 width="117.403px" height="33.953px" viewBox="0 0 117.403 33.953" enable-background="new 0 0 117.403 33.953"
	 xml:space="preserve">
<g>
	<rect opacity="0.6" fill="#FFFFFF" width="117.403" height="33.953"/>
	<g>
		<path fill="#3C3C3B" d="M11.056,25.416L11.032,8.479c2.49,0.08,4.369,0.422,5.638,1.023c1.269,0.603,1.903,1.502,1.903,2.699
			c0,1.196-0.337,2.084-1.012,2.662c-0.675,0.578-1.494,0.932-2.458,1.061c1.269,0.111,2.349,0.554,3.241,1.324
			c0.892,0.771,1.337,1.9,1.337,3.386s-0.735,2.65-2.205,3.493C16.007,24.971,13.867,25.4,11.056,25.416z M17.682,12.188
			c0-0.899-0.514-1.59-1.542-2.071c-1.028-0.482-2.434-0.724-4.216-0.724v6.12C15.762,15.465,17.682,14.357,17.682,12.188z
			 M18.79,20.502c0-0.836-0.233-1.535-0.699-2.098c-0.466-0.562-1.092-0.963-1.879-1.204c-1.317-0.434-2.739-0.65-4.265-0.65v7.951
			c1.301-0.016,2.425-0.165,3.373-0.446c0.948-0.28,1.663-0.639,2.145-1.072C18.348,22.164,18.79,21.336,18.79,20.502z"/>
		<path fill="#3C3C3B" d="M23.295,25.344h-0.892V8.526h0.892V25.344z"/>
		<path fill="#3C3C3B" d="M37.102,17.056c0,2.65-0.45,4.694-1.35,6.132s-2.201,2.156-3.903,2.156s-3.052-0.727-4.048-2.18
			c-0.996-1.454-1.494-3.518-1.494-6.193c0-2.674,0.49-4.777,1.47-6.312c0.979-1.533,2.345-2.301,4.096-2.301
			c1.044,0,1.931,0.27,2.662,0.807c0.731,0.539,1.273,1.266,1.626,2.182C36.788,13.031,37.102,14.936,37.102,17.056z M36.21,16.646
			c0-2.232-0.377-4.016-1.132-5.35c-0.755-1.333-1.84-2-3.253-2c-1.414,0-2.538,0.663-3.373,1.988
			c-0.835,1.325-1.253,3.225-1.253,5.698c0,2.876,0.65,4.987,1.952,6.337c0.723,0.738,1.55,1.108,2.481,1.108
			s1.695-0.208,2.289-0.626s1.052-0.996,1.374-1.735C35.905,20.686,36.21,18.879,36.21,16.646z"/>
		<path fill="#3C3C3B" d="M48.113,12.213l-0.892-0.024c-0.145-0.867-0.502-1.554-1.072-2.06c-0.57-0.506-1.209-0.76-1.916-0.76
			c-1.189,0-2.128,0.607-2.819,1.82c-0.691,1.213-1.036,2.605-1.036,4.18c0,3.197,0.55,5.478,1.65,6.843
			c1.1,1.366,2.831,2.112,5.192,2.241v-6.627H44.86v-0.891h3.253v8.433c-2.33,0-4.064-0.345-5.205-1.036
			c-0.45-0.273-0.903-0.658-1.361-1.156s-0.831-1.092-1.121-1.783c-0.626-1.558-0.939-3.574-0.939-6.047
			c0-1.173,0.16-2.225,0.482-3.157c0.321-0.931,0.723-1.654,1.205-2.169c0.979-1.027,1.967-1.541,2.964-1.541
			c0.996,0,1.907,0.401,2.734,1.204C47.699,10.486,48.113,11.33,48.113,12.213z"/>
		<path fill="#3C3C3B" d="M61.485,17.056c0,2.65-0.451,4.694-1.35,6.132c-0.9,1.438-2.201,2.156-3.904,2.156
			s-3.052-0.727-4.048-2.18c-0.996-1.454-1.494-3.518-1.494-6.193c0-2.674,0.49-4.777,1.47-6.312
			c0.979-1.533,2.345-2.301,4.096-2.301c1.044,0,1.931,0.27,2.662,0.807c0.731,0.539,1.273,1.266,1.626,2.182
			C61.171,13.031,61.485,14.936,61.485,17.056z M60.593,16.646c0-2.232-0.377-4.016-1.132-5.35c-0.755-1.333-1.84-2-3.253-2
			c-1.414,0-2.538,0.663-3.373,1.988C52,12.61,51.582,14.51,51.582,16.983c0,2.876,0.65,4.987,1.952,6.337
			c0.723,0.738,1.55,1.108,2.481,1.108s1.695-0.208,2.289-0.626s1.052-0.996,1.374-1.735C60.288,20.686,60.593,18.879,60.593,16.646
			z M53.558,5.346h0.916v1.59h-0.916V5.346z M57.654,5.346h0.916v1.59h-0.916V5.346z"/>
		<path fill="#3C3C3B" d="M73.146,17.248c0,1.189-0.145,2.277-0.434,3.266c-0.289,0.987-0.679,1.787-1.169,2.396
			c-0.49,0.611-1.112,1.102-1.867,1.471c-1.365,0.69-3.084,1.035-5.156,1.035V8.454c2.201,0,3.936,0.329,5.205,0.987
			c1.092,0.578,1.91,1.438,2.457,2.578C72.825,13.338,73.146,15.08,73.146,17.248z M72.255,16.983c0-5.06-2.281-7.59-6.843-7.59
			v15.107c2.603-0.032,4.417-0.778,5.445-2.241C71.789,20.943,72.255,19.185,72.255,16.983z"/>
		<path fill="#3C3C3B" d="M81.7,22.79c0.723-0.626,1.084-1.39,1.084-2.288c0-0.9-0.262-1.619-0.783-2.157
			c-0.522-0.538-1.152-0.939-1.892-1.204c-0.739-0.266-1.481-0.534-2.229-0.808c-0.747-0.272-1.382-0.687-1.903-1.241
			c-0.522-0.554-0.783-1.265-0.783-2.133c0-1.509,0.422-2.633,1.265-3.373c0.844-0.738,1.852-1.107,3.024-1.107
			c1.172,0,2.457,0.112,3.855,0.337v0.892c-1.254-0.225-2.426-0.338-3.519-0.338s-1.987,0.306-2.687,0.916
			c-0.699,0.611-1.048,1.47-1.048,2.578c0,0.964,0.497,1.687,1.493,2.168c0.45,0.226,0.943,0.434,1.482,0.627
			c0.538,0.193,1.08,0.41,1.627,0.65c0.545,0.241,1.039,0.526,1.48,0.855c0.442,0.33,0.804,0.787,1.085,1.373
			c0.28,0.587,0.421,1.27,0.421,2.049s-0.18,1.466-0.541,2.06c-0.361,0.595-0.808,1.061-1.338,1.397
			c-0.529,0.338-1.148,0.611-1.855,0.819c-1.141,0.354-2.426,0.53-3.854,0.53h-0.603v-0.892C78.343,24.501,80.415,23.932,81.7,22.79
			z"/>
		<path fill="#3C3C3B" d="M86.446,25.344V8.479h8.626v0.891h-7.734v6.168h7.734v0.893h-7.734v8.023h7.734v0.891H86.446z"/>
		<path fill="#3C3C3B" d="M106.372,25.344h-8.385V8.479h0.892v15.975h7.493V25.344z"/>
	</g>
</g>
</svg>
