<?xml version="1.0" encoding="utf-8"?>
<!-- Generator: Adobe Illustrator 15.0.2, SVG Export Plug-In . SVG Version: 6.00 Build 0)  -->
<!DOCTYPE svg PUBLIC "-//W3C//DTD SVG 1.1//EN" "http://www.w3.org/Graphics/SVG/1.1/DTD/svg11.dtd">
<svg version="1.1" id="Lager_1" xmlns="http://www.w3.org/2000/svg" xmlns:xlink="http://www.w3.org/1999/xlink" x="0px" y="0px"
	 width="188.652px" height="33.953px" viewBox="0 0 188.652 33.953" enable-background="new 0 0 188.652 33.953"
	 xml:space="preserve">
<g>
	<rect x="0" fill="#FFFFFF" enable-background="new    " width="188.652" height="33.953"/>
	<g>
		<path fill="#3C3C3B" d="M22.513,25.344l0.048-15.469l-4.023,9.229h-0.818l-4.024-9.229v15.469h-0.843V8.454h1.156l4.12,9.444
			l4.097-9.444h1.181v16.89H22.513z"/>
		<path fill="#3C3C3B" d="M27.958,25.344h-0.892V8.526h0.892V25.344z"/>
		<path fill="#3C3C3B" d="M40.223,25.344h-0.893v-1.638c0-4.979-1.221-7.47-3.663-7.47c-0.514,0-1.004,0.133-1.47,0.398
			c-0.466,0.264-0.791,0.498-0.976,0.698c-0.186,0.199-0.423,0.493-0.711,0.88v7.132h-0.893V8.479h0.893v8.312l6.505-8.337h1.229
			l-5.59,7.036c0.385-0.098,0.763-0.145,1.132-0.145c1.365,0,2.446,0.658,3.241,1.975c0.795,1.319,1.193,3.35,1.193,6.096v1.928
			H40.223z"/>
		<path fill="#3C3C3B" d="M51.499,25.344h-1.084l-4.674-7.156c-0.594,0.082-1.253,0.138-1.976,0.17v6.986h-0.893V8.454
			c5.381,0.017,8.072,1.63,8.072,4.843c0,2.586-1.414,4.168-4.241,4.746L51.499,25.344z M43.764,17.393l0.24,0.024
			c4.032-0.063,6.049-1.413,6.049-4.048c0-0.738-0.174-1.354-0.519-1.844c-0.346-0.489-0.735-0.871-1.168-1.145
			c-1.028-0.642-2.562-0.979-4.602-1.012L43.764,17.393L43.764,17.393z"/>
		<path fill="#3C3C3B" d="M63.883,17.056c0,2.65-0.449,4.694-1.35,6.131c-0.9,1.438-2.201,2.156-3.903,2.156
			c-1.701,0-3.052-0.727-4.048-2.18c-0.996-1.454-1.494-3.518-1.494-6.193c0-2.674,0.49-4.777,1.471-6.312
			c0.979-1.533,2.345-2.301,4.096-2.301c1.044,0,1.931,0.27,2.662,0.807c0.73,0.539,1.272,1.266,1.626,2.182
			C63.569,13.031,63.883,14.936,63.883,17.056z M62.991,16.646c0-2.232-0.377-4.016-1.132-5.35c-0.755-1.333-1.84-2-3.253-2
			c-1.414,0-2.538,0.663-3.373,1.988c-0.835,1.325-1.253,3.225-1.253,5.698c0,2.875,0.649,4.987,1.952,6.336
			c0.723,0.738,1.55,1.109,2.48,1.109c0.932,0,1.695-0.209,2.289-0.627s1.052-0.996,1.374-1.734
			C62.686,20.686,62.991,18.879,62.991,16.646z"/>
		<path fill="#3C3C3B" d="M77.062,17.056c0,2.65-0.45,4.694-1.351,6.131c-0.899,1.438-2.2,2.156-3.902,2.156
			s-3.053-0.727-4.048-2.18c-0.996-1.454-1.494-3.518-1.494-6.193c0-2.674,0.489-4.777,1.47-6.312
			c0.979-1.533,2.345-2.301,4.096-2.301c1.044,0,1.932,0.27,2.662,0.807c0.731,0.539,1.273,1.266,1.626,2.182
			C76.749,13.031,77.062,14.936,77.062,17.056z M76.171,16.646c0-2.232-0.377-4.016-1.132-5.35c-0.755-1.333-1.84-2-3.253-2
			c-1.414,0-2.538,0.663-3.373,1.988c-0.835,1.325-1.253,3.225-1.253,5.698c0,2.875,0.65,4.987,1.952,6.336
			c0.723,0.738,1.55,1.109,2.48,1.109c0.932,0,1.695-0.209,2.289-0.627c0.595-0.418,1.053-0.996,1.374-1.734
			C75.866,20.686,76.171,18.879,76.171,16.646z"/>
		<path fill="#3C3C3B" d="M88.724,25.344H87.64l-4.675-7.156c-0.594,0.082-1.253,0.138-1.976,0.17v6.986h-0.892V8.454
			c5.381,0.017,8.071,1.63,8.071,4.843c0,2.586-1.414,4.168-4.24,4.746L88.724,25.344z M80.99,17.393l0.241,0.024
			c4.032-0.063,6.048-1.413,6.048-4.048c0-0.738-0.173-1.354-0.518-1.844c-0.347-0.489-0.735-0.871-1.169-1.145
			c-1.027-0.642-2.562-0.979-4.602-1.012L80.99,17.393L80.99,17.393z"/>
		<path fill="#3C3C3B" d="M98.939,12.213l-0.892-0.024c-0.145-0.867-0.503-1.554-1.071-2.06c-0.57-0.506-1.209-0.76-1.916-0.76
			c-1.189,0-2.128,0.607-2.819,1.82s-1.036,2.605-1.036,4.18c0,3.197,0.55,5.479,1.65,6.843c1.1,1.366,2.832,2.112,5.192,2.241
			v-6.627h-2.36v-0.891h3.252v8.433c-2.329,0-4.064-0.345-5.204-1.036c-0.45-0.273-0.903-0.658-1.361-1.156
			s-0.831-1.092-1.121-1.783c-0.626-1.558-0.938-3.574-0.938-6.046c0-1.173,0.16-2.225,0.481-3.157
			c0.321-0.931,0.724-1.654,1.205-2.169c0.979-1.027,1.967-1.541,2.964-1.541c0.995,0,1.906,0.401,2.734,1.204
			C98.525,10.486,98.939,11.33,98.939,12.213z"/>
		<path fill="#3C3C3B" d="M110.649,9.73v15.614h-0.893v-7.952h-6.843v7.952h-0.892V14.309c0-1.734,0.555-3.156,1.662-4.264
			c1.108-1.109,2.498-1.663,4.169-1.663C109.074,8.382,110.007,8.832,110.649,9.73z M109.758,16.502v-6.434
			c-0.514-0.53-1.163-0.795-1.95-0.795c-1.414,0-2.582,0.514-3.507,1.542c-0.924,1.028-1.386,2.2-1.386,3.518v2.169H109.758z"/>
		<path fill="#3C3C3B" d="M115.154,9.996v15.348h-0.891V8.454h1.276l6.457,14.843V8.479h0.892v16.865h-0.892L115.154,9.996z"/>
		<path fill="#3C3C3B" d="M127.443,25.344h-0.894V8.526h0.894V25.344z"/>
		<path fill="#3C3C3B" d="M136.671,22.79c0.724-0.626,1.085-1.39,1.085-2.288c0-0.9-0.262-1.619-0.782-2.156
			c-0.523-0.539-1.153-0.94-1.894-1.205c-0.738-0.266-1.479-0.534-2.229-0.808c-0.746-0.272-1.381-0.687-1.902-1.241
			c-0.523-0.554-0.783-1.265-0.783-2.133c0-1.509,0.421-2.633,1.265-3.373c0.844-0.738,1.852-1.107,3.023-1.107
			s2.458,0.112,3.855,0.337v0.892c-1.253-0.225-2.427-0.338-3.52-0.338c-1.092,0-1.986,0.306-2.686,0.916
			c-0.699,0.611-1.049,1.47-1.049,2.578c0,0.964,0.498,1.688,1.493,2.168c0.449,0.226,0.943,0.434,1.482,0.627
			c0.537,0.193,1.08,0.41,1.626,0.65c0.546,0.241,1.04,0.526,1.481,0.855c0.44,0.33,0.803,0.787,1.084,1.373
			c0.28,0.587,0.422,1.27,0.422,2.049s-0.182,1.467-0.542,2.061c-0.361,0.594-0.809,1.061-1.337,1.396
			c-0.53,0.338-1.148,0.611-1.855,0.818c-1.141,0.354-2.426,0.531-3.854,0.531h-0.603V24.5
			C133.313,24.501,135.386,23.932,136.671,22.79z"/>
		<path fill="#3C3C3B" d="M151.08,25.344l0.047-15.469l-4.022,9.229h-0.818l-4.023-9.229v15.469h-0.844V8.454h1.156l4.12,9.444
			l4.097-9.444h1.181v16.89H151.08z"/>
		<path fill="#3C3C3B" d="M155.633,25.344V8.479h8.627V9.37h-7.733v6.168h7.733v0.893h-7.733v8.023h7.733v0.892h-8.627V25.344z"/>
		<path fill="#3C3C3B" d="M175.801,25.344h-1.085l-4.675-7.156c-0.594,0.082-1.252,0.138-1.975,0.17v6.986h-0.894V8.454
			c5.382,0.017,8.072,1.63,8.072,4.843c0,2.586-1.414,4.168-4.24,4.746L175.801,25.344z M168.066,17.393l0.24,0.024
			c4.03-0.063,6.048-1.413,6.048-4.048c0-0.738-0.173-1.354-0.52-1.844c-0.346-0.489-0.733-0.871-1.168-1.145
			c-1.027-0.642-2.562-0.979-4.602-1.012L168.066,17.393L168.066,17.393z"/>
	</g>
</g>
</svg>
