<?xml version="1.0" encoding="utf-8"?>
<!-- Generator: Adobe Illustrator 15.0.2, SVG Export Plug-In . SVG Version: 6.00 Build 0)  -->
<!DOCTYPE svg PUBLIC "-//W3C//DTD SVG 1.1//EN" "http://www.w3.org/Graphics/SVG/1.1/DTD/svg11.dtd">
<svg version="1.1" id="Lager_1" xmlns="http://www.w3.org/2000/svg" xmlns:xlink="http://www.w3.org/1999/xlink" x="0px" y="0px"
	 width="188.652px" height="33.953px" viewBox="0 0 188.652 33.953" enable-background="new 0 0 188.652 33.953"
	 xml:space="preserve">
<g>
	<rect opacity="0.6" fill="#FFFFFF" width="188.652" height="33.953"/>
	<g>
		<path fill="#3C3C3B" d="M22.513,25.344l0.048-15.469l-4.023,9.229h-0.819l-4.024-9.229v15.469h-0.843V8.454h1.157l4.12,9.444
			l4.096-9.444h1.181v16.89H22.513z"/>
		<path fill="#3C3C3B" d="M27.958,25.344h-0.892V8.526h0.892V25.344z"/>
		<path fill="#3C3C3B" d="M40.223,25.344h-0.892v-1.638c0-4.979-1.221-7.47-3.663-7.47c-0.514,0-1.004,0.133-1.47,0.398
			c-0.466,0.264-0.791,0.498-0.976,0.698c-0.185,0.2-0.422,0.493-0.711,0.88v7.131h-0.892V8.479h0.892v8.312l6.505-8.337h1.229
			l-5.59,7.036c0.385-0.098,0.763-0.145,1.132-0.145c1.365,0,2.446,0.658,3.241,1.975c0.795,1.318,1.193,3.35,1.193,6.096V25.344z"
			/>
		<path fill="#3C3C3B" d="M51.499,25.344h-1.084l-4.674-7.156c-0.594,0.081-1.253,0.137-1.976,0.17v6.986h-0.892V8.454
			c5.381,0.017,8.072,1.63,8.072,4.843c0,2.586-1.414,4.168-4.241,4.746L51.499,25.344z M43.764,17.393l0.241,0.024
			c4.032-0.063,6.048-1.413,6.048-4.048c0-0.738-0.173-1.354-0.518-1.844c-0.346-0.489-0.735-0.871-1.168-1.145
			c-1.028-0.642-2.562-0.979-4.602-1.012V17.393z"/>
		<path fill="#3C3C3B" d="M63.883,17.056c0,2.65-0.45,4.694-1.35,6.132s-2.201,2.156-3.903,2.156s-3.052-0.727-4.048-2.18
			c-0.996-1.454-1.494-3.518-1.494-6.193c0-2.674,0.49-4.777,1.47-6.312c0.979-1.533,2.345-2.301,4.096-2.301
			c1.044,0,1.931,0.27,2.662,0.807c0.731,0.539,1.273,1.266,1.626,2.182C63.569,13.031,63.883,14.936,63.883,17.056z M62.991,16.646
			c0-2.232-0.377-4.016-1.132-5.35c-0.755-1.333-1.84-2-3.253-2c-1.414,0-2.538,0.663-3.373,1.988
			c-0.835,1.325-1.253,3.225-1.253,5.698c0,2.876,0.65,4.987,1.952,6.337c0.723,0.738,1.55,1.108,2.481,1.108
			s1.695-0.208,2.289-0.626s1.052-0.996,1.374-1.735C62.686,20.686,62.991,18.879,62.991,16.646z"/>
		<path fill="#3C3C3B" d="M77.062,17.056c0,2.65-0.45,4.694-1.35,6.132s-2.201,2.156-3.903,2.156s-3.052-0.727-4.048-2.18
			c-0.996-1.454-1.494-3.518-1.494-6.193c0-2.674,0.49-4.777,1.47-6.312c0.979-1.533,2.345-2.301,4.096-2.301
			c1.044,0,1.931,0.27,2.662,0.807c0.731,0.539,1.273,1.266,1.626,2.182C76.749,13.031,77.062,14.936,77.062,17.056z M76.171,16.646
			c0-2.232-0.377-4.016-1.132-5.35c-0.755-1.333-1.84-2-3.253-2c-1.414,0-2.538,0.663-3.373,1.988
			c-0.835,1.325-1.253,3.225-1.253,5.698c0,2.876,0.65,4.987,1.952,6.337c0.723,0.738,1.55,1.108,2.481,1.108
			s1.695-0.208,2.289-0.626s1.052-0.996,1.374-1.735C75.866,20.686,76.171,18.879,76.171,16.646z"/>
		<path fill="#3C3C3B" d="M88.724,25.344H87.64l-4.674-7.156c-0.594,0.081-1.253,0.137-1.976,0.17v6.986h-0.892V8.454
			c5.381,0.017,8.072,1.63,8.072,4.843c0,2.586-1.414,4.168-4.241,4.746L88.724,25.344z M80.99,17.393l0.241,0.024
			c4.032-0.063,6.048-1.413,6.048-4.048c0-0.738-0.173-1.354-0.518-1.844c-0.346-0.489-0.735-0.871-1.168-1.145
			c-1.028-0.642-2.562-0.979-4.602-1.012V17.393z"/>
		<path fill="#3C3C3B" d="M98.939,12.213l-0.891-0.024c-0.145-0.867-0.503-1.554-1.072-2.06c-0.57-0.506-1.209-0.76-1.916-0.76
			c-1.189,0-2.128,0.607-2.819,1.82c-0.691,1.213-1.036,2.605-1.036,4.18c0,3.197,0.55,5.478,1.65,6.843
			c1.1,1.366,2.832,2.112,5.193,2.241v-6.627h-2.361v-0.891h3.252v8.433c-2.329,0-4.064-0.345-5.204-1.036
			c-0.45-0.273-0.903-0.658-1.361-1.156s-0.831-1.092-1.121-1.783c-0.626-1.558-0.939-3.574-0.939-6.047
			c0-1.173,0.16-2.225,0.482-3.157c0.321-0.931,0.723-1.654,1.205-2.169c0.979-1.027,1.967-1.541,2.964-1.541
			c0.995,0,1.906,0.401,2.734,1.204C98.525,10.486,98.939,11.33,98.939,12.213z"/>
		<path fill="#3C3C3B" d="M110.649,9.73v15.613h-0.892v-7.951h-6.843v7.951h-0.892V14.309c0-1.734,0.555-3.156,1.662-4.264
			c1.109-1.109,2.498-1.663,4.169-1.663C109.074,8.382,110.007,8.832,110.649,9.73z M109.758,16.502v-6.434
			c-0.514-0.53-1.164-0.795-1.951-0.795c-1.414,0-2.582,0.514-3.506,1.542s-1.386,2.2-1.386,3.518v2.169H109.758z"/>
		<path fill="#3C3C3B" d="M115.154,9.996v15.348h-0.891V8.454h1.277l6.457,14.843V8.479h0.891v16.865h-0.891L115.154,9.996z"/>
		<path fill="#3C3C3B" d="M127.443,25.344h-0.893V8.526h0.893V25.344z"/>
		<path fill="#3C3C3B" d="M136.671,22.79c0.723-0.626,1.085-1.39,1.085-2.288c0-0.9-0.262-1.619-0.783-2.157
			c-0.523-0.538-1.153-0.939-1.893-1.204c-0.738-0.266-1.48-0.534-2.229-0.808c-0.746-0.272-1.381-0.687-1.902-1.241
			c-0.523-0.554-0.783-1.265-0.783-2.133c0-1.509,0.421-2.633,1.264-3.373c0.844-0.738,1.852-1.107,3.024-1.107
			s2.458,0.112,3.855,0.337v0.892c-1.253-0.225-2.426-0.338-3.519-0.338c-1.092,0-1.987,0.306-2.686,0.916
			c-0.699,0.611-1.049,1.47-1.049,2.578c0,0.964,0.498,1.687,1.494,2.168c0.449,0.226,0.943,0.434,1.482,0.627
			c0.537,0.193,1.08,0.41,1.626,0.65c0.546,0.241,1.04,0.526,1.481,0.855c0.441,0.33,0.803,0.787,1.084,1.373
			c0.281,0.587,0.422,1.27,0.422,2.049s-0.181,1.466-0.542,2.06c-0.361,0.595-0.808,1.061-1.337,1.397
			c-0.53,0.338-1.148,0.611-1.855,0.819c-1.141,0.354-2.426,0.53-3.855,0.53h-0.602v-0.892
			C133.313,24.501,135.386,23.932,136.671,22.79z"/>
		<path fill="#3C3C3B" d="M151.08,25.344l0.047-15.469l-4.023,9.229h-0.818l-4.024-9.229v15.469h-0.843V8.454h1.156l4.12,9.444
			l4.097-9.444h1.18v16.89H151.08z"/>
		<path fill="#3C3C3B" d="M155.633,25.344V8.479h8.627v0.891h-7.734v6.168h7.734v0.893h-7.734v8.023h7.734v0.891H155.633z"/>
		<path fill="#3C3C3B" d="M175.801,25.344h-1.085l-4.675-7.156c-0.594,0.081-1.252,0.137-1.975,0.17v6.986h-0.893V8.454
			c5.381,0.017,8.072,1.63,8.072,4.843c0,2.586-1.414,4.168-4.24,4.746L175.801,25.344z M168.066,17.393l0.24,0.024
			c4.031-0.063,6.048-1.413,6.048-4.048c0-0.738-0.173-1.354-0.519-1.844c-0.346-0.489-0.734-0.871-1.168-1.145
			c-1.028-0.642-2.562-0.979-4.602-1.012V17.393z"/>
	</g>
</g>
</svg>
