<?xml version="1.0" encoding="utf-8"?>
<!-- Generator: Adobe Illustrator 15.0.2, SVG Export Plug-In . SVG Version: 6.00 Build 0)  -->
<!DOCTYPE svg PUBLIC "-//W3C//DTD SVG 1.1//EN" "http://www.w3.org/Graphics/SVG/1.1/DTD/svg11.dtd">
<svg version="1.1" id="Lager_1" xmlns="http://www.w3.org/2000/svg" xmlns:xlink="http://www.w3.org/1999/xlink" x="0px" y="0px"
	 width="61.74px" height="33.953px" viewBox="0 0 61.74 33.953" enable-background="new 0 0 61.74 33.953" xml:space="preserve">
<g>
	<rect fill="#FFFFFF" enable-background="new    " width="61.74" height="33.953"/>
	<g>
		<path fill="#3C3C3B" d="M11.883,25.344L8.245,8.479h0.892l3.349,15.419l3.349-15.419h0.892l-3.59,16.865H11.883z"/>
		<path fill="#3C3C3B" d="M27.425,9.73v15.614h-0.892v-7.952H19.69v7.952h-0.892V14.309c0-1.734,0.554-3.156,1.663-4.264
			c1.108-1.109,2.498-1.663,4.168-1.663C25.85,8.382,26.782,8.832,27.425,9.73z M26.533,16.502v-6.434
			c-0.514-0.53-1.165-0.795-1.952-0.795c-1.414,0-2.582,0.514-3.506,1.542c-0.924,1.028-1.385,2.2-1.385,3.518v2.169H26.533z
			 M20.727,5.346h0.916v1.59h-0.916V5.346z M24.823,5.346h0.916v1.59h-0.916V5.346z"/>
		<path fill="#3C3C3B" d="M41.375,8.479l-5.106,8.48v1.037c0,3.115,0.377,5.084,1.133,5.902c0.354,0.369,0.803,0.555,1.35,0.555
			c0.963,0,1.951-0.539,2.963-1.615v1.157c-0.947,0.899-1.984,1.349-3.107,1.349c-1.431,0-2.354-0.932-2.771-2.795
			c-0.239-1.061-0.394-2.473-0.458-4.24l-4.602,7.035H29.74l5.518-8.577V15.78c0-2.281-0.209-3.912-0.627-4.891
			c-0.177-0.418-0.438-0.78-0.782-1.086c-0.347-0.305-0.759-0.457-1.24-0.457c-0.933,0-1.904,0.538-2.917,1.614V9.803
			c0.964-0.898,2.02-1.349,3.168-1.349c1.146,0,1.968,0.574,2.457,1.723c0.49,1.148,0.774,2.88,0.855,5.192l4.312-6.891
			L41.375,8.479L41.375,8.479z"/>
		<path fill="#3C3C3B" d="M52.41,9.73v15.614h-0.892v-7.952h-6.844v7.952h-0.891V14.309c0-1.734,0.554-3.156,1.662-4.264
			c1.107-1.109,2.498-1.663,4.168-1.663C50.835,8.382,51.767,8.832,52.41,9.73z M51.519,16.502v-6.434
			c-0.515-0.53-1.164-0.795-1.951-0.795c-1.414,0-2.582,0.514-3.506,1.542c-0.924,1.028-1.387,2.2-1.387,3.518v2.169H51.519z"/>
	</g>
</g>
</svg>
