<?xml version="1.0" encoding="utf-8"?>
<!-- Generator: Adobe Illustrator 15.0.2, SVG Export Plug-In . SVG Version: 6.00 Build 0)  -->
<!DOCTYPE svg PUBLIC "-//W3C//DTD SVG 1.1//EN" "http://www.w3.org/Graphics/SVG/1.1/DTD/svg11.dtd">
<svg version="1.1" id="Lager_1" xmlns="http://www.w3.org/2000/svg" xmlns:xlink="http://www.w3.org/1999/xlink" x="0px" y="0px"
	 width="97.839px" height="33.953px" viewBox="0 0 97.839 33.953" enable-background="new 0 0 97.839 33.953" xml:space="preserve">
<g>
	<rect fill="#FFFFFF" enable-background="new    " width="97.839" height="33.953"/>
	<g>
		<path fill="#3C3C3B" d="M14.658,25.344h-0.892V8.479h8.626V9.37h-7.734v6.168h7.734v0.893h-7.734V25.344z"/>
		<path fill="#3C3C3B" d="M33.764,25.344H32.68l-4.674-7.156c-0.594,0.082-1.253,0.138-1.976,0.17v6.986h-0.892V8.454
			c5.381,0.017,8.072,1.63,8.072,4.843c0,2.586-1.414,4.168-4.241,4.746L33.764,25.344z M26.03,17.393l0.241,0.024
			c4.032-0.063,6.048-1.413,6.048-4.048c0-0.738-0.173-1.354-0.518-1.844c-0.346-0.489-0.735-0.871-1.168-1.145
			c-1.028-0.642-2.562-0.979-4.602-1.012L26.03,17.393L26.03,17.393z"/>
		<path fill="#3C3C3B" d="M44.486,9.73v15.614h-0.892v-7.952h-6.843v7.952H35.86V14.309c0-1.734,0.554-3.156,1.663-4.264
			c1.108-1.109,2.498-1.663,4.168-1.663C42.911,8.382,43.843,8.832,44.486,9.73z M43.594,16.502v-6.434
			c-0.514-0.53-1.165-0.795-1.952-0.795c-1.414,0-2.582,0.514-3.506,1.542c-0.924,1.028-1.385,2.2-1.385,3.518v2.169H43.594z"/>
		<path fill="#3C3C3B" d="M57.761,25.344L57.81,9.875l-4.023,9.229h-0.82l-4.022-9.229v15.469H48.1V8.454h1.157l4.12,9.444
			l4.097-9.444h1.182v16.89H57.761z"/>
		<path fill="#3C3C3B" d="M65.544,25.344h-0.893V9.369h-3.855v-0.89h8.627V9.37h-3.879V25.344z"/>
		<path fill="#3C3C3B" d="M72.458,25.344h-0.892V8.526h0.892V25.344z"/>
		<path fill="#3C3C3B" d="M84.748,17.248c0,1.189-0.145,2.277-0.434,3.266c-0.289,0.987-0.68,1.787-1.17,2.396
			c-0.489,0.611-1.111,1.102-1.867,1.471c-1.365,0.689-3.084,1.035-5.156,1.035V8.454c2.201,0,3.937,0.329,5.205,0.987
			c1.092,0.578,1.911,1.438,2.457,2.578C84.425,13.338,84.748,15.08,84.748,17.248z M83.855,16.983c0-5.06-2.279-7.59-6.842-7.59
			V24.5c2.602-0.031,4.416-0.777,5.445-2.241C83.39,20.943,83.855,19.186,83.855,16.983z"/>
	</g>
</g>
</svg>
