<?xml version="1.0" encoding="utf-8"?>
<!-- Generator: Adobe Illustrator 15.0.2, SVG Export Plug-In . SVG Version: 6.00 Build 0)  -->
<!DOCTYPE svg PUBLIC "-//W3C//DTD SVG 1.1//EN" "http://www.w3.org/Graphics/SVG/1.1/DTD/svg11.dtd">
<svg version="1.1" id="Lager_1" xmlns="http://www.w3.org/2000/svg" xmlns:xlink="http://www.w3.org/1999/xlink" x="0px" y="0px"
	 width="112.334px" height="33.953px" viewBox="3.086 0 112.334 33.953" enable-background="new 3.086 0 112.334 33.953"
	 xml:space="preserve">
<g>
	<rect x="3.086" opacity="0.6" fill="#FFFFFF" enable-background="new    " width="112.334" height="33.953"/>
	<g>
		<path fill="#3C3C3B" d="M23.425,25.344h-0.892v-1.638c0-4.979-1.221-7.47-3.663-7.47c-0.514,0-1.004,0.133-1.47,0.398
			c-0.466,0.264-0.791,0.498-0.976,0.698c-0.185,0.199-0.422,0.493-0.711,0.88v7.132h-0.892V8.479h0.892v8.312l6.505-8.337h1.229
			l-5.59,7.036c0.385-0.098,0.763-0.145,1.132-0.145c1.365,0,2.446,0.658,3.241,1.975c0.795,1.319,1.193,3.35,1.193,6.096v1.928
			H23.425z"/>
		<path fill="#3C3C3B" d="M35.954,17.056c0,2.65-0.45,4.694-1.35,6.131c-0.9,1.438-2.201,2.156-3.903,2.156
			c-1.702,0-3.052-0.727-4.048-2.18c-0.996-1.454-1.494-3.518-1.494-6.193c0-2.674,0.49-4.777,1.47-6.312
			c0.979-1.533,2.345-2.301,4.096-2.301c1.044,0,1.931,0.27,2.662,0.807c0.731,0.539,1.273,1.266,1.626,2.182
			C35.641,13.031,35.954,14.936,35.954,17.056z M35.062,16.646c0-2.232-0.377-4.016-1.132-5.35c-0.755-1.333-1.84-2-3.253-2
			c-1.414,0-2.538,0.663-3.373,1.988c-0.835,1.325-1.253,3.225-1.253,5.698c0,2.875,0.65,4.987,1.952,6.336
			c0.723,0.738,1.55,1.109,2.481,1.109c0.931,0,1.695-0.209,2.289-0.627c0.594-0.418,1.052-0.996,1.374-1.734
			C34.757,20.686,35.062,18.879,35.062,16.646z"/>
		<path fill="#3C3C3B" d="M47.375,25.344H38.99V8.479h0.892v15.975h7.493V25.344z"/>
		<path fill="#3C3C3B" d="M58.121,17.248c0,1.189-0.145,2.277-0.434,3.266c-0.289,0.987-0.679,1.787-1.169,2.396
			c-0.49,0.611-1.112,1.102-1.867,1.471c-1.365,0.689-3.084,1.035-5.156,1.035V8.454c2.201,0,3.936,0.329,5.205,0.987
			c1.092,0.578,1.911,1.438,2.458,2.578C57.799,13.338,58.121,15.08,58.121,17.248z M57.229,16.983c0-5.06-2.281-7.59-6.843-7.59
			V24.5c2.602-0.031,4.417-0.777,5.445-2.241C56.763,20.943,57.229,19.186,57.229,16.983z"/>
		<path fill="#3C3C3B" d="M62,25.344h-0.894V8.526H62V25.344z"/>
		<path fill="#3C3C3B" d="M75.806,17.056c0,2.65-0.449,4.694-1.35,6.131c-0.9,1.438-2.2,2.156-3.902,2.156
			c-1.703,0-3.053-0.727-4.049-2.18c-0.996-1.454-1.492-3.518-1.492-6.193c0-2.674,0.488-4.777,1.469-6.312
			c0.979-1.533,2.346-2.301,4.097-2.301c1.044,0,1.931,0.27,2.662,0.807c0.731,0.539,1.272,1.266,1.626,2.182
			C75.492,13.031,75.806,14.936,75.806,17.056z M74.914,16.646c0-2.232-0.377-4.016-1.134-5.35c-0.754-1.333-1.84-2-3.252-2
			c-1.413,0-2.538,0.663-3.373,1.988c-0.836,1.325-1.254,3.225-1.254,5.698c0,2.875,0.65,4.987,1.953,6.336
			c0.723,0.738,1.549,1.109,2.48,1.109s1.695-0.209,2.289-0.627s1.052-0.996,1.373-1.734C74.608,20.686,74.914,18.879,74.914,16.646
			z"/>
		<path fill="#3C3C3B" d="M88.623,8.479l-5.106,8.48v1.037c0,3.115,0.377,5.084,1.133,5.902c0.354,0.369,0.803,0.555,1.35,0.555
			c0.963,0,1.951-0.539,2.963-1.615v1.157c-0.947,0.899-1.984,1.349-3.107,1.349c-1.431,0-2.354-0.932-2.771-2.795
			c-0.239-1.061-0.394-2.473-0.458-4.24l-4.604,7.035h-1.035l5.519-8.577V15.78c0-2.281-0.209-3.912-0.627-4.892
			c-0.177-0.417-0.438-0.779-0.782-1.085c-0.347-0.305-0.759-0.457-1.24-0.457c-0.933,0-1.904,0.538-2.916,1.614V9.803
			c0.965-0.898,2.02-1.349,3.168-1.349c1.147,0,1.969,0.574,2.459,1.723c0.488,1.148,0.773,2.88,0.854,5.192l4.312-6.891
			L88.623,8.479L88.623,8.479z"/>
		<path fill="#3C3C3B" d="M92.067,25.344h-0.891V8.526h0.891V25.344z"/>
		<path fill="#3C3C3B" d="M104.356,17.248c0,1.189-0.145,2.277-0.434,3.266c-0.289,0.987-0.68,1.787-1.17,2.396
			c-0.488,0.611-1.111,1.102-1.867,1.471c-1.365,0.689-3.084,1.035-5.156,1.035V8.454c2.201,0,3.937,0.329,5.205,0.987
			c1.092,0.578,1.912,1.438,2.457,2.578C104.035,13.338,104.356,15.08,104.356,17.248z M103.465,16.983c0-5.06-2.28-7.59-6.842-7.59
			V24.5c2.603-0.031,4.416-0.777,5.444-2.241C103,20.943,103.465,19.186,103.465,16.983z"/>
	</g>
</g>
</svg>
