<?xml version="1.0" encoding="utf-8"?>
<!-- Generator: Adobe Illustrator 15.0.2, SVG Export Plug-In . SVG Version: 6.00 Build 0)  -->
<!DOCTYPE svg PUBLIC "-//W3C//DTD SVG 1.1//EN" "http://www.w3.org/Graphics/SVG/1.1/DTD/svg11.dtd">
<svg version="1.1" id="Lager_1" xmlns="http://www.w3.org/2000/svg" xmlns:xlink="http://www.w3.org/1999/xlink" x="0px" y="0px"
	 width="67.846px" height="33.953px" viewBox="0 0 67.846 33.953" enable-background="new 0 0 67.846 33.953" xml:space="preserve">
<g>
	<rect x="0" fill="#FFFFFF" enable-background="new    " width="67.846" height="33.953"/>
	<g>
		<path fill="#3C3C3B" d="M21.684,25.344h-0.892v-1.638c0-4.979-1.222-7.47-3.663-7.47c-0.514,0-1.004,0.133-1.47,0.398
			c-0.467,0.264-0.791,0.498-0.977,0.698c-0.185,0.199-0.422,0.493-0.711,0.88v7.132H13.08V8.479h0.892v8.312l6.505-8.337h1.229
			l-5.59,7.036c0.385-0.098,0.763-0.145,1.132-0.145c1.364,0,2.445,0.658,3.24,1.975c0.796,1.319,1.193,3.35,1.193,6.096v1.928
			H21.684z"/>
		<path fill="#3C3C3B" d="M24.382,22.936l0.964,0.023c0.562,1.027,1.369,1.542,2.421,1.542s1.916-0.422,2.59-1.265
			c0.674-0.844,1.013-2.092,1.013-3.748v-2.071c-0.771,1.188-1.899,1.783-3.386,1.783c-1.485,0-2.582-0.569-3.289-1.712
			c-0.707-1.139-1.06-2.529-1.06-4.167V8.479h0.892v4.818c0,1.654,0.321,2.903,0.965,3.746c0.642,0.844,1.409,1.266,2.301,1.266
			s1.653-0.266,2.289-0.795c0.634-0.53,1.063-1.316,1.289-2.361V8.479h0.892v11.035c0,1.832-0.377,3.27-1.132,4.312
			c-0.755,1.045-1.888,1.566-3.397,1.566C26.221,25.393,25.104,24.572,24.382,22.936z"/>
		<path fill="#3C3C3B" d="M44.211,25.344h-8.385V8.479h0.892v15.975h7.493V25.344z"/>
		<path fill="#3C3C3B" d="M54.812,9.73v15.614H53.92v-7.952h-6.843v7.952h-0.893V14.309c0-1.734,0.554-3.156,1.663-4.264
			c1.107-1.109,2.497-1.663,4.168-1.663C53.238,8.382,54.17,8.832,54.812,9.73z M53.921,16.502v-6.434
			c-0.516-0.53-1.165-0.795-1.952-0.795c-1.413,0-2.582,0.514-3.506,1.542c-0.924,1.028-1.385,2.2-1.385,3.518v2.169H53.921z"/>
	</g>
</g>
</svg>
