<?xml version="1.0" encoding="utf-8"?>
<!-- Generator: Adobe Illustrator 15.0.2, SVG Export Plug-In . SVG Version: 6.00 Build 0)  -->
<!DOCTYPE svg PUBLIC "-//W3C//DTD SVG 1.1//EN" "http://www.w3.org/Graphics/SVG/1.1/DTD/svg11.dtd">
<svg version="1.1" id="Lager_1" xmlns="http://www.w3.org/2000/svg" xmlns:xlink="http://www.w3.org/1999/xlink" x="0px" y="0px"
	 width="94.4px" height="33.953px" viewBox="0 0 94.4 33.953" enable-background="new 0 0 94.4 33.953" xml:space="preserve">
<g>
	<rect x="0" fill="#FFFFFF" enable-background="new    " width="94.4" height="33.953"/>
	<g>
		<path fill="#3C3C3B" d="M19.637,22.79c0.723-0.627,1.084-1.39,1.084-2.289c0-0.897-0.261-1.617-0.783-2.155
			c-0.521-0.539-1.152-0.94-1.892-1.206c-0.739-0.265-1.481-0.533-2.229-0.807s-1.382-0.688-1.902-1.241
			c-0.522-0.554-0.783-1.265-0.783-2.132c0-1.51,0.421-2.635,1.265-3.373c0.845-0.739,1.853-1.109,3.024-1.109
			s2.458,0.113,3.854,0.338v0.892C20.022,9.481,18.85,9.37,17.757,9.37s-1.988,0.305-2.688,0.915
			c-0.698,0.61-1.048,1.47-1.048,2.578c0,0.964,0.498,1.687,1.494,2.169c0.45,0.225,0.943,0.434,1.482,0.626
			c0.538,0.192,1.08,0.409,1.626,0.65c0.546,0.241,1.04,0.526,1.48,0.855c0.441,0.329,0.804,0.787,1.084,1.374
			c0.281,0.586,0.421,1.27,0.421,2.047c0,0.779-0.181,1.467-0.542,2.061c-0.36,0.596-0.807,1.062-1.337,1.397
			c-0.529,0.337-1.147,0.61-1.854,0.819c-1.142,0.354-2.426,0.529-3.855,0.529H13.42v-0.892
			C16.279,24.501,18.352,23.932,19.637,22.79z"/>
		<path fill="#3C3C3B" d="M26.889,25.346L23.251,8.478h0.892l3.35,15.42l3.349-15.42h0.892l-3.59,16.868H26.889z"/>
		<path fill="#3C3C3B" d="M34.286,25.346V8.478h8.626V9.37h-7.734v6.168h7.734v0.891h-7.734v8.023h7.734v0.894H34.286z"/>
		<path fill="#3C3C3B" d="M54.454,25.346h-1.085l-4.676-7.156c-0.594,0.08-1.252,0.137-1.975,0.168v6.988h-0.892V8.454
			c5.381,0.016,8.071,1.631,8.071,4.843c0,2.587-1.414,4.169-4.239,4.747L54.454,25.346z M46.719,17.394l0.241,0.023
			c4.031-0.064,6.048-1.413,6.048-4.048c0-0.738-0.173-1.353-0.52-1.843c-0.346-0.49-0.733-0.871-1.168-1.145
			c-1.027-0.643-2.562-0.98-4.602-1.012V17.394z"/>
		<path fill="#3C3C3B" d="M57.584,25.346h-0.892V8.526h0.892V25.346z"/>
		<path fill="#3C3C3B" d="M69.223,12.213l-0.893-0.024c-0.146-0.867-0.502-1.554-1.072-2.061c-0.57-0.506-1.209-0.758-1.915-0.758
			c-1.188,0-2.128,0.605-2.819,1.818c-0.689,1.213-1.035,2.606-1.035,4.181c0,3.195,0.55,5.479,1.65,6.843
			c1.1,1.365,2.83,2.112,5.191,2.24v-6.625h-2.361v-0.893h3.254v8.434c-2.33,0-4.063-0.347-5.205-1.036
			c-0.449-0.271-0.902-0.658-1.36-1.156c-0.458-0.496-0.831-1.093-1.121-1.783c-0.626-1.558-0.939-3.572-0.939-6.047
			c0-1.172,0.16-2.225,0.482-3.156c0.32-0.932,0.723-1.654,1.205-2.168c0.979-1.028,1.967-1.543,2.963-1.543
			s1.907,0.402,2.733,1.205C68.809,10.486,69.223,11.329,69.223,12.213z"/>
		<path fill="#3C3C3B" d="M72.451,25.346V8.478h8.626V9.37h-7.734v6.168h7.734v0.891h-7.734v8.023h7.734v0.894H72.451z"/>
	</g>
</g>
</svg>
