<?xml version="1.0" encoding="utf-8"?>
<!-- Generator: Adobe Illustrator 15.0.2, SVG Export Plug-In . SVG Version: 6.00 Build 0)  -->
<!DOCTYPE svg PUBLIC "-//W3C//DTD SVG 1.1//EN" "http://www.w3.org/Graphics/SVG/1.1/DTD/svg11.dtd">
<svg version="1.1" id="Lager_1" xmlns="http://www.w3.org/2000/svg" xmlns:xlink="http://www.w3.org/1999/xlink" x="0px" y="0px"
	 width="94.4px" height="33.953px" viewBox="0 0 94.4 33.953" enable-background="new 0 0 94.4 33.953" xml:space="preserve">
<g>
	<rect x="0" fill="#FFFFFF" enable-background="new    " width="94.4" height="33.953"/>
	<g>
		<path fill="#3C3C3B" d="M12.3,25.346L8.662,8.478h0.893l3.349,15.42l3.349-15.42h0.893l-3.59,16.868H12.3z"/>
		<path fill="#3C3C3B" d="M27.841,9.731v15.613H26.95v-7.951h-6.843v7.951h-0.893V14.31c0-1.735,0.555-3.157,1.663-4.266
			c1.108-1.107,2.498-1.662,4.168-1.662C26.267,8.382,27.199,8.831,27.841,9.731z M26.95,16.501v-6.433
			c-0.514-0.53-1.165-0.795-1.952-0.795c-1.414,0-2.582,0.515-3.506,1.542s-1.385,2.201-1.385,3.518v2.168H26.95z M21.143,5.347
			h0.916v1.59h-0.916V5.347z M25.239,5.347h0.916v1.59h-0.916V5.347z"/>
		<path fill="#3C3C3B" d="M40.081,25.346h-1.084l-4.674-7.156c-0.594,0.08-1.253,0.137-1.976,0.168v6.988h-0.893V8.454
			c5.381,0.016,8.072,1.631,8.072,4.843c0,2.587-1.414,4.169-4.241,4.747L40.081,25.346z M32.347,17.394l0.24,0.023
			c4.032-0.064,6.049-1.413,6.049-4.048c0-0.738-0.174-1.353-0.519-1.843c-0.346-0.49-0.735-0.871-1.168-1.145
			c-1.028-0.643-2.562-0.98-4.602-1.012L32.347,17.394L32.347,17.394z"/>
		<path fill="#3C3C3B" d="M50.706,25.346h-8.385V8.478h0.892v15.975h7.493V25.346z"/>
		<path fill="#3C3C3B" d="M61.452,17.249c0,1.188-0.145,2.276-0.434,3.265c-0.289,0.987-0.68,1.786-1.169,2.397
			c-0.489,0.61-1.112,1.101-1.867,1.469c-1.365,0.69-3.084,1.037-5.156,1.037V8.454c2.2,0,3.937,0.329,5.204,0.988
			c1.093,0.578,1.912,1.438,2.458,2.578C61.131,13.337,61.452,15.08,61.452,17.249z M60.561,16.983c0-5.06-2.28-7.59-6.844-7.59
			V24.5c2.603-0.031,4.417-0.779,5.445-2.24C60.095,20.943,60.561,19.186,60.561,16.983z"/>
		<path fill="#3C3C3B" d="M64.439,25.346V8.478h8.626V9.37h-7.734v6.168h7.734v0.891h-7.734v8.023h7.734v0.894H64.439z"/>
		<path fill="#3C3C3B" d="M76.872,9.996v15.35H75.98V8.454h1.276l6.457,14.842V8.478h0.893v16.868h-0.893L76.872,9.996z"/>
	</g>
</g>
</svg>
