<?xml version="1.0" encoding="utf-8"?>
<!-- Generator: Adobe Illustrator 15.0.2, SVG Export Plug-In . SVG Version: 6.00 Build 0)  -->
<!DOCTYPE svg PUBLIC "-//W3C//DTD SVG 1.1//EN" "http://www.w3.org/Graphics/SVG/1.1/DTD/svg11.dtd">
<svg version="1.1" id="Lager_1" xmlns="http://www.w3.org/2000/svg" xmlns:xlink="http://www.w3.org/1999/xlink" x="0px" y="0px"
	 width="117.402px" height="33.953px" viewBox="0 0 117.402 33.953" enable-background="new 0 0 117.402 33.953"
	 xml:space="preserve">
<g>
	<rect x="0" fill="#FFFFFF" enable-background="new    " width="117.402" height="33.953"/>
	<g>
		<path fill="#3C3C3B" d="M11.056,25.416L11.032,8.479c2.489,0.08,4.368,0.422,5.638,1.023c1.269,0.603,1.903,1.502,1.903,2.699
			c0,1.196-0.338,2.084-1.013,2.662c-0.675,0.578-1.494,0.932-2.458,1.061c1.27,0.111,2.35,0.554,3.241,1.324
			c0.892,0.771,1.337,1.9,1.337,3.386c0,1.486-0.735,2.65-2.205,3.493C16.007,24.971,13.867,25.4,11.056,25.416z M17.682,12.188
			c0-0.899-0.514-1.59-1.542-2.071c-1.028-0.482-2.434-0.724-4.216-0.724v6.12C15.762,15.465,17.682,14.357,17.682,12.188z
			 M18.79,20.502c0-0.836-0.233-1.535-0.699-2.098s-1.092-0.963-1.879-1.204c-1.317-0.434-2.739-0.65-4.266-0.65v7.951
			c1.302-0.017,2.426-0.165,3.373-0.446c0.948-0.279,1.663-0.639,2.146-1.072C18.348,22.164,18.79,21.336,18.79,20.502z"/>
		<path fill="#3C3C3B" d="M23.295,25.344h-0.893V8.526h0.893V25.344z"/>
		<path fill="#3C3C3B" d="M37.102,17.056c0,2.65-0.45,4.694-1.35,6.131c-0.9,1.438-2.201,2.156-3.903,2.156s-3.052-0.727-4.048-2.18
			c-0.996-1.454-1.494-3.518-1.494-6.193c0-2.674,0.49-4.777,1.47-6.312c0.979-1.533,2.346-2.301,4.097-2.301
			c1.044,0,1.931,0.27,2.662,0.807c0.73,0.539,1.272,1.266,1.626,2.182C36.788,13.031,37.102,14.936,37.102,17.056z M36.21,16.646
			c0-2.232-0.377-4.016-1.132-5.35c-0.756-1.333-1.841-2-3.253-2c-1.414,0-2.538,0.663-3.373,1.988
			c-0.835,1.325-1.253,3.225-1.253,5.698c0,2.875,0.649,4.987,1.951,6.336c0.724,0.738,1.551,1.109,2.481,1.109
			s1.695-0.209,2.289-0.627s1.052-0.996,1.374-1.734C35.905,20.686,36.21,18.879,36.21,16.646z"/>
		<path fill="#3C3C3B" d="M48.113,12.213l-0.892-0.024c-0.145-0.867-0.502-1.554-1.072-2.06c-0.569-0.506-1.209-0.76-1.916-0.76
			c-1.188,0-2.128,0.607-2.818,1.82c-0.691,1.213-1.036,2.605-1.036,4.18c0,3.197,0.55,5.479,1.649,6.843
			c1.101,1.366,2.831,2.112,5.192,2.241v-6.627h-2.36v-0.891h3.253v8.433c-2.329,0-4.063-0.345-5.204-1.036
			c-0.45-0.273-0.903-0.658-1.361-1.156s-0.831-1.092-1.121-1.783c-0.626-1.558-0.939-3.574-0.939-6.046
			c0-1.173,0.16-2.225,0.482-3.157c0.321-0.931,0.723-1.654,1.205-2.169c0.979-1.027,1.967-1.541,2.964-1.541
			c0.996,0,1.907,0.401,2.734,1.204C47.699,10.486,48.113,11.33,48.113,12.213z"/>
		<path fill="#3C3C3B" d="M61.485,17.056c0,2.65-0.45,4.694-1.35,6.131c-0.9,1.438-2.201,2.156-3.904,2.156s-3.052-0.727-4.048-2.18
			c-0.996-1.454-1.494-3.518-1.494-6.193c0-2.674,0.49-4.777,1.471-6.312c0.979-1.533,2.345-2.301,4.096-2.301
			c1.044,0,1.931,0.27,2.662,0.807c0.73,0.539,1.272,1.266,1.626,2.182C61.171,13.031,61.485,14.936,61.485,17.056z M60.593,16.646
			c0-2.232-0.377-4.016-1.132-5.35c-0.755-1.333-1.84-2-3.253-2c-1.414,0-2.538,0.663-3.373,1.988
			C52,12.61,51.582,14.51,51.582,16.983c0,2.876,0.649,4.988,1.952,6.337c0.723,0.738,1.55,1.107,2.48,1.107
			s1.695-0.207,2.289-0.625c0.594-0.419,1.052-0.996,1.374-1.736C60.288,20.686,60.593,18.879,60.593,16.646z M53.558,5.346h0.916
			v1.59h-0.916V5.346z M57.654,5.346h0.916v1.59h-0.916V5.346z"/>
		<path fill="#3C3C3B" d="M73.146,17.248c0,1.189-0.145,2.277-0.434,3.266c-0.289,0.987-0.679,1.787-1.169,2.396
			c-0.49,0.611-1.112,1.102-1.867,1.471c-1.365,0.689-3.084,1.035-5.156,1.035V8.454c2.201,0,3.937,0.329,5.205,0.987
			c1.092,0.578,1.91,1.438,2.457,2.578C72.825,13.338,73.146,15.08,73.146,17.248z M72.255,16.983c0-5.06-2.281-7.59-6.843-7.59
			V24.5c2.603-0.031,4.417-0.777,5.444-2.241C71.789,20.943,72.255,19.186,72.255,16.983z"/>
		<path fill="#3C3C3B" d="M81.7,22.79c0.723-0.626,1.084-1.39,1.084-2.288c0-0.9-0.263-1.619-0.783-2.156
			c-0.522-0.539-1.152-0.94-1.893-1.205c-0.738-0.266-1.48-0.534-2.229-0.808c-0.747-0.272-1.382-0.687-1.903-1.241
			c-0.521-0.554-0.783-1.265-0.783-2.133c0-1.509,0.423-2.633,1.266-3.373c0.844-0.738,1.852-1.107,3.023-1.107
			s2.457,0.112,3.855,0.337v0.892c-1.254-0.225-2.426-0.338-3.52-0.338c-1.093,0-1.986,0.306-2.687,0.916
			c-0.699,0.611-1.048,1.47-1.048,2.578c0,0.964,0.497,1.688,1.493,2.168c0.449,0.226,0.942,0.434,1.481,0.627
			c0.538,0.193,1.08,0.41,1.627,0.65c0.545,0.241,1.039,0.526,1.48,0.855c0.441,0.33,0.804,0.787,1.085,1.373
			c0.28,0.587,0.421,1.27,0.421,2.049s-0.18,1.467-0.541,2.061s-0.808,1.061-1.338,1.396c-0.529,0.338-1.148,0.611-1.855,0.818
			c-1.141,0.354-2.426,0.531-3.854,0.531h-0.604V24.5C78.343,24.501,80.415,23.932,81.7,22.79z"/>
		<path fill="#3C3C3B" d="M86.446,25.344V8.479h8.626V9.37h-7.733v6.168h7.733v0.893h-7.733v8.023h7.733v0.892h-8.626V25.344z"/>
		<path fill="#3C3C3B" d="M106.372,25.344h-8.386V8.479h0.893v15.975h7.493V25.344z"/>
	</g>
</g>
</svg>
