<?xml version="1.0" encoding="utf-8"?>
<!-- Generator: Adobe Illustrator 15.0.2, SVG Export Plug-In . SVG Version: 6.00 Build 0)  -->
<!DOCTYPE svg PUBLIC "-//W3C//DTD SVG 1.1//EN" "http://www.w3.org/Graphics/SVG/1.1/DTD/svg11.dtd">
<svg version="1.1" id="Lager_1" xmlns="http://www.w3.org/2000/svg" xmlns:xlink="http://www.w3.org/1999/xlink" x="0px" y="0px"
	 width="131.25px" height="33.953px" viewBox="0 0 131.25 33.953" enable-background="new 0 0 131.25 33.953" xml:space="preserve">
<g>
	<rect fill="#FFFFFF" enable-background="new    " width="131.25" height="33.953"/>
	<g>
		<path fill="#3C3C3B" d="M14.33,25.344h-0.892V9.369H9.583V8.477h8.626V9.37H14.33V25.344z"/>
		<path fill="#3C3C3B" d="M20.353,25.344V8.477h8.626V9.37h-7.734v6.168h7.734v0.891h-7.734v8.023h7.734v0.893L20.353,25.344
			L20.353,25.344z"/>
		<path fill="#3C3C3B" d="M41.556,25.344l0.048-15.469l-4.024,9.229h-0.819l-4.024-9.229v15.469h-0.843V8.453h1.157l4.12,9.445
			l4.096-9.445h1.181v16.891H41.556z"/>
		<path fill="#3C3C3B" d="M47.001,18.21v7.134H46.11V8.453c2.811,0.016,4.952,0.445,6.421,1.289
			c1.469,0.844,2.205,2.027,2.205,3.554c0,1.8-0.707,3.052-2.12,3.759c-0.482,0.258-0.908,0.45-1.277,0.577
			c-0.37,0.13-0.867,0.242-1.494,0.339C49.058,18.066,48.11,18.147,47.001,18.21z M47.001,17.32l0.241,0.023
			c4.401-0.064,6.602-1.389,6.602-3.976c0-0.964-0.442-1.823-1.325-2.577c-0.482-0.418-1.192-0.756-2.132-1.013
			c-0.939-0.257-2.068-0.394-3.385-0.409L47.001,17.32L47.001,17.32z"/>
		<path fill="#3C3C3B" d="M57.121,25.344V8.477h8.626V9.37h-7.734v6.168h7.734v0.891h-7.734v8.023h7.734v0.893L57.121,25.344
			L57.121,25.344z"/>
		<path fill="#3C3C3B" d="M77.288,25.344h-1.084l-4.675-7.156c-0.594,0.08-1.253,0.138-1.976,0.168v6.988h-0.893V8.453
			c5.381,0.016,8.072,1.631,8.072,4.843c0,2.587-1.414,4.169-4.24,4.747L77.288,25.344z M69.553,17.393l0.24,0.023
			c4.031-0.064,6.047-1.413,6.047-4.048c0-0.738-0.172-1.353-0.518-1.843c-0.346-0.49-0.734-0.871-1.168-1.145
			c-1.029-0.643-2.562-0.98-4.603-1.012L69.553,17.393L69.553,17.393z"/>
		<path fill="#3C3C3B" d="M88.008,9.73v15.613h-0.891v-7.951h-6.844v7.951h-0.893V14.309c0-1.735,0.555-3.157,1.664-4.266
			c1.106-1.107,2.496-1.662,4.168-1.662C86.435,8.381,87.368,8.83,88.008,9.73z M87.118,16.5v-6.433
			c-0.515-0.53-1.164-0.795-1.951-0.795c-1.414,0-2.582,0.515-3.506,1.542c-0.925,1.027-1.386,2.201-1.386,3.518V16.5H87.118z"/>
		<path fill="#3C3C3B" d="M94.852,25.344h-0.893V9.369h-3.854V8.477h8.626V9.37h-3.879V25.344z"/>
		<path fill="#3C3C3B" d="M108.272,23.837c-0.738,1.035-1.822,1.555-3.253,1.555s-2.498-0.57-3.204-1.711
			c-0.707-1.141-1.061-2.53-1.061-4.169V8.477h0.892v11.012c0,1.64,0.334,2.884,1,3.734s1.478,1.276,2.435,1.276
			c0.955,0,1.762-0.422,2.422-1.266c0.658-0.843,0.986-2.092,0.986-3.746V8.477h0.893v11.035
			C109.379,21.359,109.011,22.801,108.272,23.837z"/>
		<path fill="#3C3C3B" d="M121.572,25.344h-1.084l-4.674-7.156c-0.595,0.08-1.254,0.138-1.978,0.168v6.988h-0.891V8.453
			c5.381,0.016,8.071,1.631,8.071,4.843c0,2.587-1.413,4.169-4.241,4.747L121.572,25.344z M113.836,17.393l0.242,0.023
			c4.031-0.064,6.047-1.413,6.047-4.048c0-0.738-0.172-1.353-0.518-1.843c-0.346-0.49-0.734-0.871-1.169-1.145
			c-1.028-0.643-2.562-0.98-4.603-1.012V17.393L113.836,17.393z"/>
	</g>
</g>
</svg>
