<?xml version="1.0" encoding="utf-8"?>
<!-- Generator: Adobe Illustrator 15.0.2, SVG Export Plug-In . SVG Version: 6.00 Build 0)  -->
<!DOCTYPE svg PUBLIC "-//W3C//DTD SVG 1.1//EN" "http://www.w3.org/Graphics/SVG/1.1/DTD/svg11.dtd">
<svg version="1.1" id="Lager_1" xmlns="http://www.w3.org/2000/svg" xmlns:xlink="http://www.w3.org/1999/xlink" x="0px" y="0px"
	 width="93.586px" height="33.953px" viewBox="0 0 93.586 33.953" enable-background="new 0 0 93.586 33.953" xml:space="preserve">
<g>
	<rect fill="#FFFFFF" enable-background="new    " width="93.586" height="33.953"/>
	<g>
		<path fill="#3C3C3B" d="M24.265,25.344h-1.084l-4.674-7.156c-0.594,0.082-1.253,0.138-1.976,0.17v6.986h-0.892V8.454
			c5.381,0.017,8.072,1.63,8.072,4.843c0,2.586-1.414,4.168-4.241,4.746L24.265,25.344z M16.531,17.393l0.241,0.024
			c4.032-0.063,6.048-1.413,6.048-4.048c0-0.738-0.173-1.354-0.518-1.844c-0.346-0.489-0.735-0.871-1.168-1.145
			c-1.028-0.642-2.562-0.979-4.602-1.012v8.025H16.531z"/>
		<path fill="#3C3C3B" d="M26.505,25.344V8.479h8.626V9.37h-7.734v6.168h7.734v0.893h-7.734v8.023h7.734v0.892h-8.626V25.344z"/>
		<path fill="#3C3C3B" d="M43.612,22.79c0.723-0.626,1.084-1.39,1.084-2.288c0-0.9-0.261-1.619-0.783-2.156
			c-0.522-0.539-1.153-0.94-1.892-1.205c-0.739-0.266-1.481-0.534-2.229-0.808c-0.747-0.272-1.382-0.687-1.903-1.241
			c-0.522-0.554-0.783-1.265-0.783-2.133c0-1.509,0.421-2.633,1.265-3.373c0.844-0.738,1.852-1.107,3.024-1.107
			s2.458,0.112,3.855,0.337v0.892c-1.253-0.225-2.426-0.338-3.518-0.338c-1.092,0-1.988,0.306-2.687,0.916
			c-0.699,0.611-1.048,1.47-1.048,2.578c0,0.964,0.498,1.688,1.494,2.168c0.45,0.226,0.943,0.434,1.482,0.627
			c0.538,0.193,1.08,0.41,1.626,0.65c0.546,0.241,1.04,0.526,1.481,0.855c0.442,0.33,0.803,0.787,1.084,1.373
			c0.281,0.587,0.421,1.27,0.421,2.049s-0.181,1.467-0.542,2.061s-0.807,1.061-1.337,1.396c-0.53,0.338-1.148,0.611-1.855,0.818
			c-1.141,0.354-2.426,0.531-3.855,0.531h-0.603V24.5C40.255,24.501,42.327,23.932,43.612,22.79z"/>
		<path fill="#3C3C3B" d="M55.756,23.838c-0.738,1.037-1.822,1.555-3.252,1.555c-1.431,0-2.498-0.57-3.205-1.711
			s-1.061-2.529-1.061-4.168V8.479h0.892V19.49c0,1.639,0.333,2.884,1,3.734c0.667,0.852,1.478,1.276,2.435,1.276
			c0.955,0,1.763-0.422,2.42-1.265c0.66-0.844,0.988-2.092,0.988-3.748V8.479h0.893v11.035
			C56.863,21.361,56.494,22.803,55.756,23.838z"/>
		<path fill="#3C3C3B" d="M69.057,25.344h-1.084l-4.676-7.156c-0.594,0.082-1.252,0.138-1.975,0.17v6.986H60.43V8.454
			c5.381,0.017,8.072,1.63,8.072,4.843c0,2.586-1.414,4.168-4.24,4.746L69.057,25.344z M61.322,17.393l0.24,0.024
			c4.03-0.063,6.047-1.413,6.047-4.048c0-0.738-0.172-1.354-0.519-1.844c-0.346-0.489-0.733-0.871-1.168-1.145
			c-1.028-0.642-2.562-0.979-4.603-1.012v8.025H61.322z"/>
		<path fill="#3C3C3B" d="M76.861,22.79c0.724-0.626,1.086-1.39,1.086-2.288c0-0.9-0.262-1.619-0.783-2.156
			c-0.523-0.539-1.152-0.94-1.893-1.205c-0.738-0.266-1.48-0.534-2.229-0.808c-0.746-0.272-1.381-0.687-1.901-1.241
			c-0.523-0.554-0.783-1.265-0.783-2.133c0-1.509,0.42-2.633,1.264-3.373c0.844-0.738,1.852-1.107,3.023-1.107
			s2.459,0.112,3.855,0.337v0.892c-1.253-0.225-2.426-0.338-3.52-0.338c-1.092,0-1.986,0.306-2.686,0.916
			c-0.699,0.611-1.049,1.47-1.049,2.578c0,0.964,0.498,1.688,1.494,2.168c0.449,0.226,0.943,0.434,1.482,0.627
			c0.536,0.193,1.08,0.41,1.625,0.65c0.547,0.241,1.041,0.526,1.481,0.855c0.44,0.33,0.803,0.787,1.084,1.373
			c0.28,0.587,0.422,1.27,0.422,2.049s-0.181,1.467-0.542,2.061s-0.809,1.061-1.337,1.396c-0.53,0.338-1.147,0.611-1.854,0.818
			c-1.142,0.354-2.427,0.531-3.855,0.531h-0.602V24.5C73.505,24.501,75.577,23.932,76.861,22.79z"/>
	</g>
</g>
</svg>
