<?xml version="1.0" encoding="utf-8"?>
<!-- Generator: Adobe Illustrator 15.0.2, SVG Export Plug-In . SVG Version: 6.00 Build 0)  -->
<!DOCTYPE svg PUBLIC "-//W3C//DTD SVG 1.1//EN" "http://www.w3.org/Graphics/SVG/1.1/DTD/svg11.dtd">
<svg version="1.1" id="Lager_1" xmlns="http://www.w3.org/2000/svg" xmlns:xlink="http://www.w3.org/1999/xlink" x="0px" y="0px"
	 width="73.738px" height="33.953px" viewBox="0 0 73.738 33.953" enable-background="new 0 0 73.738 33.953" xml:space="preserve">
<g>
	<rect x="0" fill="#FFFFFF" enable-background="new    " width="73.738" height="33.953"/>
	<g>
		<path fill="#3C3C3B" d="M16.077,22.79c0.723-0.627,1.084-1.39,1.084-2.289c0-0.897-0.262-1.617-0.783-2.155
			c-0.522-0.539-1.153-0.94-1.893-1.206c-0.738-0.265-1.48-0.533-2.229-0.807s-1.382-0.688-1.903-1.241
			c-0.521-0.554-0.783-1.265-0.783-2.132c0-1.51,0.422-2.635,1.266-3.373c0.844-0.739,1.852-1.109,3.023-1.109
			c1.173,0,2.458,0.113,3.855,0.338v0.892C16.462,9.481,15.29,9.37,14.197,9.37c-1.093,0-1.987,0.305-2.687,0.915
			c-0.699,0.61-1.048,1.47-1.048,2.578c0,0.964,0.498,1.687,1.494,2.169c0.449,0.225,0.942,0.434,1.481,0.626
			c0.538,0.192,1.08,0.409,1.626,0.65c0.546,0.241,1.04,0.526,1.481,0.855c0.44,0.329,0.803,0.787,1.084,1.374
			c0.281,0.586,0.421,1.27,0.421,2.047c0,0.779-0.181,1.467-0.542,2.061c-0.361,0.596-0.807,1.062-1.337,1.397
			c-0.53,0.337-1.148,0.61-1.855,0.819c-1.141,0.354-2.426,0.529-3.854,0.529H9.86v-0.892C12.719,24.501,14.792,23.932,16.077,22.79
			z"/>
		<path fill="#3C3C3B" d="M21.715,18.212v7.134h-0.892V8.454c2.811,0.016,4.951,0.445,6.421,1.289
			c1.469,0.844,2.205,2.027,2.205,3.554c0,1.8-0.707,3.052-2.12,3.759c-0.482,0.258-0.908,0.45-1.277,0.578
			c-0.37,0.13-0.867,0.241-1.494,0.339C23.771,18.066,22.823,18.148,21.715,18.212z M21.715,17.321l0.241,0.023
			c4.4-0.064,6.602-1.389,6.602-3.976c0-0.964-0.441-1.823-1.325-2.578c-0.481-0.417-1.191-0.755-2.132-1.012
			c-0.938-0.257-2.067-0.394-3.385-0.409L21.715,17.321L21.715,17.321z"/>
		<path fill="#3C3C3B" d="M40.315,9.731v15.613h-0.892v-7.951H32.58v7.951h-0.893V14.31c0-1.735,0.555-3.157,1.663-4.266
			c1.108-1.107,2.498-1.662,4.168-1.662C38.741,8.382,39.673,8.831,40.315,9.731z M39.424,16.501v-6.433
			c-0.515-0.53-1.165-0.795-1.952-0.795c-1.414,0-2.582,0.515-3.506,1.542s-1.385,2.201-1.385,3.518v2.168H39.424z"/>
		<path fill="#3C3C3B" d="M52.556,25.346h-1.085l-4.675-7.156c-0.594,0.08-1.252,0.137-1.976,0.168v6.988h-0.893V8.454
			C49.31,8.47,52,10.085,52,13.297c0,2.587-1.414,4.169-4.24,4.747L52.556,25.346z M44.821,17.394l0.24,0.023
			c4.031-0.064,6.048-1.413,6.048-4.048c0-0.738-0.173-1.353-0.519-1.843c-0.346-0.49-0.734-0.871-1.168-1.145
			c-1.028-0.643-2.562-0.98-4.603-1.012L44.821,17.394L44.821,17.394z"/>
		<path fill="#3C3C3B" d="M63.276,9.731v15.613h-0.891v-7.951h-6.844v7.951H54.65V14.31c0-1.735,0.555-3.157,1.662-4.266
			c1.108-1.107,2.498-1.662,4.168-1.662C61.702,8.382,62.634,8.831,63.276,9.731z M62.386,16.501v-6.433
			c-0.515-0.53-1.165-0.795-1.952-0.795c-1.413,0-2.582,0.515-3.506,1.542s-1.386,2.201-1.386,3.518v2.168H62.386z"/>
	</g>
</g>
</svg>
