<?xml version="1.0" encoding="utf-8"?>
<!-- Generator: Adobe Illustrator 15.0.2, SVG Export Plug-In . SVG Version: 6.00 Build 0)  -->
<!DOCTYPE svg PUBLIC "-//W3C//DTD SVG 1.1//EN" "http://www.w3.org/Graphics/SVG/1.1/DTD/svg11.dtd">
<svg version="1.1" id="Lager_1" xmlns="http://www.w3.org/2000/svg" xmlns:xlink="http://www.w3.org/1999/xlink" x="0px" y="0px"
	 width="84.846px" height="33.953px" viewBox="0 0 84.846 33.953" enable-background="new 0 0 84.846 33.953" xml:space="preserve">
<g>
	<rect opacity="0.6" fill="#FFFFFF" width="84.846" height="33.953"/>
	<g>
		<path fill="#3C3C3B" d="M13.257,25.345V8.478h8.626V9.37h-7.734v6.168h7.734v0.891h-7.734v8.023h7.734v0.893H13.257z"/>
		<path fill="#3C3C3B" d="M25.689,9.996v15.349h-0.892V8.454h1.277l6.457,14.842V8.478h0.892v16.867h-0.892L25.689,9.996z"/>
		<path fill="#3C3C3B" d="M37.086,25.345V8.478h8.626V9.37h-7.734v6.168h7.734v0.891h-7.734v8.023h7.734v0.893H37.086z"/>
		<path fill="#3C3C3B" d="M57.253,25.345h-1.084l-4.675-7.156c-0.595,0.08-1.253,0.137-1.976,0.168v6.988h-0.892V8.454
			c5.381,0.016,8.071,1.631,8.071,4.843c0,2.587-1.413,4.169-4.24,4.747L57.253,25.345z M49.519,17.394l0.24,0.023
			c4.032-0.064,6.049-1.413,6.049-4.048c0-0.738-0.174-1.353-0.519-1.843c-0.346-0.49-0.735-0.871-1.169-1.145
			c-1.027-0.643-2.562-0.98-4.602-1.012V17.394z"/>
		<path fill="#3C3C3B" d="M67.469,12.213l-0.892-0.024c-0.145-0.867-0.502-1.554-1.072-2.061c-0.57-0.506-1.209-0.758-1.916-0.758
			c-1.188,0-2.128,0.605-2.818,1.818c-0.691,1.213-1.036,2.606-1.036,4.181c0,3.196,0.55,5.478,1.65,6.843s2.831,2.112,5.192,2.24
			v-6.625h-2.361v-0.893h3.253v8.434c-2.329,0-4.064-0.346-5.204-1.036c-0.45-0.272-0.904-0.658-1.361-1.156
			c-0.459-0.497-0.832-1.093-1.121-1.783c-0.627-1.558-0.939-3.573-0.939-6.048c0-1.172,0.16-2.225,0.482-3.156
			c0.32-0.932,0.723-1.654,1.204-2.168c0.979-1.028,1.968-1.543,2.964-1.543S65.4,8.88,66.228,9.683
			C67.055,10.486,67.469,11.329,67.469,12.213z"/>
		<path fill="#3C3C3B" d="M71.589,25.345h-0.893V8.526h0.893V25.345z"/>
	</g>
</g>
</svg>
