<?xml version="1.0" encoding="utf-8"?>
<!-- Generator: Adobe Illustrator 17.0.0, SVG Export Plug-In . SVG Version: 6.00 Build 0)  -->
<!DOCTYPE svg PUBLIC "-//W3C//DTD SVG 1.1//EN" "http://www.w3.org/Graphics/SVG/1.1/DTD/svg11.dtd">
<svg version="1.1" id="Layer_1" xmlns="http://www.w3.org/2000/svg" xmlns:xlink="http://www.w3.org/1999/xlink" x="0px" y="0px"
	 width="207.484px" height="250.499px" viewBox="0 0 207.484 250.499" enable-background="new 0 0 207.484 250.499"
	 xml:space="preserve">
<polygon fill="#FFD600" points="207.484,250.499 0,250.499 105.268,0 "/>
<polygon fill="#FDC100" points="105.268,0 0,250.499 105.268,250.499 "/>
<circle fill="#FFD600" cx="94.12" cy="55.452" r="8.676"/>
<circle fill="#FDC100" cx="149.719" cy="166.218" r="8.676"/>
<circle fill="#FFD600" cx="54.829" cy="217.314" r="8.676"/>
<circle fill="#FDC100" cx="105.245" cy="193.33" r="8.676"/>
<circle fill="#FDC100" cx="105.268" cy="105.344" r="15.308"/>
<circle fill="#FDC100" cx="165.027" cy="217.315" r="15.308"/>
<circle fill="#FFD600" cx="70.137" cy="157.541" r="15.308"/>
<path fill="#FFD600" d="M105.268,120.652c-8.455,0-15.308-6.853-15.308-15.308c0-8.453,6.853-15.308,15.308-15.308V120.652z"/>
<path fill="#FFD600" d="M105.245,202.006c-4.792,0-8.676-3.884-8.676-8.676c0-4.79,3.884-8.675,8.676-8.675V202.006z"/>
</svg>
