<?xml version="1.0" encoding="utf-8"?>
<!-- Generator: Adobe Illustrator 15.0.2, SVG Export Plug-In . SVG Version: 6.00 Build 0)  -->
<!DOCTYPE svg PUBLIC "-//W3C//DTD SVG 1.1//EN" "http://www.w3.org/Graphics/SVG/1.1/DTD/svg11.dtd">
<svg version="1.1" id="Lager_1" xmlns="http://www.w3.org/2000/svg" xmlns:xlink="http://www.w3.org/1999/xlink" x="0px" y="0px"
	 width="209.814px" height="254.054px" viewBox="0 0 209.814 254.054" enable-background="new 0 0 209.814 254.054"
	 xml:space="preserve">
<g>
	<path fill="#7C4D24" d="M10.51,254.054c-0.117-1.505-1.881-36.217,7.477-77.381c5.549-24.405,14.203-42.942,25.977-60.144
		c13.355-19.514,36.976-37.651,60.254-46.995l6.174,6.316C72.894,90.9,44.474,124.292,36.95,178.365
		c-6.24,44.847-1.893,75.329-1.866,75.676L10.51,254.054z"/>
	<path fill="#653E1D" d="M10.51,254.054c-0.117-1.505-1.881-36.217,7.477-77.381c5.549-24.405,14.203-42.942,25.977-60.144
		c13.355-19.514,36.976-37.651,60.254-46.995l0.689,4.536c-37.496,15.05-70.46,50.881-77.984,104.955
		c-6.242,44.848-4.5,74.668-4.472,75.015L10.51,254.054z"/>
	<g>
		<g>
			<g>
				
					<path fill="#FFD607" stroke="#FFD607" stroke-width="0.4548" stroke-linecap="round" stroke-linejoin="round" stroke-miterlimit="10" d="
					M166.924,123.347c-14.395,6.705-29.223,3.565-39.648-3.337c-10.424-6.903-16.362-18.039-17.048-29.629l-7.61,0.147
					c-5.216,15.938,0.574,34.014,15.23,43.719c14.659,9.709,35.949,8.814,50.756-6.883L166.924,123.347z"/>
			</g>
			<g>
				
					<path fill="#FAC108" stroke="#FAC108" stroke-width="0.4548" stroke-linecap="round" stroke-linejoin="round" stroke-miterlimit="10" d="
					M168.604,127.365c-14.239,15.252-35.328,17.101-50.756,6.883c-14.656-9.705-20.446-27.782-15.23-43.719l3.279-0.063
					c-1.646,13.875,4.406,28.146,16.85,36.386c12.444,8.242,32.855,7.855,45.098-1.303L168.604,127.365z"/>
			</g>
		</g>
		<g>
			<g>
				
					<path fill="#FFD607" stroke="#FFD607" stroke-width="0.4548" stroke-linecap="round" stroke-linejoin="round" stroke-miterlimit="10" d="
					M178.761,96.438c-10.479,11.933-25.315,15.027-37.638,12.904c-12.32-2.123-22.24-9.925-27.531-20.259l-6.909,3.198
					c1.641,16.688,14.218,30.904,31.541,33.891c17.327,2.985,36.456-6.401,43.691-26.731L178.761,96.438z"/>
			</g>
			<g>
				
					<path fill="#FAC108" stroke="#FAC108" stroke-width="0.4548" stroke-linecap="round" stroke-linejoin="round" stroke-miterlimit="10" d="
					M181.916,99.44c-6.896,19.695-25.456,29.875-43.691,26.731c-17.323-2.986-29.9-17.203-31.541-33.891l2.978-1.378
					c4.077,13.363,15.363,23.991,30.07,26.526c14.709,2.533,33.238-6.031,40.758-19.346L181.916,99.44z"/>
			</g>
		</g>
		<g>
			
				<path fill="#FAC108" stroke="#FAC108" stroke-width="0.4548" stroke-linecap="round" stroke-linejoin="round" stroke-miterlimit="10" d="
				M127.104,134.546"/>
		</g>
		<g>
			<g>
				
					<polygon fill="#604C3F" stroke="#604C3F" stroke-width="0.432" stroke-linecap="round" stroke-linejoin="round" stroke-miterlimit="10" points="
					113.926,86.869 107.882,84.084 110.29,81.038 114.678,83.062 				"/>
			</g>
			<g>
				
					<polygon fill="#786854" stroke="#786854" stroke-width="0.432" stroke-linecap="round" stroke-linejoin="round" stroke-miterlimit="10" points="
					113.926,86.869 114.678,83.062 110.29,81.038 				"/>
			</g>
		</g>
		<g>
			
				<path fill="#FFD607" stroke="#FFD607" stroke-width="0.4548" stroke-linecap="round" stroke-linejoin="round" stroke-miterlimit="10" d="
				M150.149,143.411c-15.879-0.224-27.865-9.5-34.25-20.248c-6.385-10.751-6.889-23.361-2.463-34.094l-6.916-3.18
				c-11.63,12.082-14.28,30.877-5.304,45.991c8.979,15.12,28.536,23.574,48.696,15.88L150.149,143.411z"/>
		</g>
		<g>
			
				<path fill="#FAC108" stroke="#FAC108" stroke-width="0.4548" stroke-linecap="round" stroke-linejoin="round" stroke-miterlimit="10" d="
				M149.913,147.759c-19.455,7.543-39.246,0.032-48.696-15.88c-8.977-15.114-6.326-33.909,5.304-45.991l2.979,1.371
				c-7.516,11.777-8.273,27.259-0.654,40.093c7.622,12.832,26.168,21.364,41.175,18.443L149.913,147.759z"/>
		</g>
		<g>
			
				<path fill="#FAC108" stroke="#FAC108" stroke-width="0.4548" stroke-linecap="round" stroke-linejoin="round" stroke-miterlimit="10" d="
				M148.602,116.443"/>
		</g>
	</g>
	<path fill="#50B17C" d="M149.055,76.445l12.678,0.901l6.006-16.348l-0.055,17.622l12.365,5.316l4.271-11.625l-0.042,13.442
		l25.535,10.977l-34.148-47.739l-42.793,6.677l9.274-3.679l-1.269-13.103l5.463,11.439l9.779-3.877l4.896-1.187l11.13-0.474
		l-0.986-10.203l4.796,10.041l22.985-0.98l-42.611-23.348L116.87,47.489l-3.746,0.876l-1.057-3.286l-8.305-38.466L79.995,0
		l8.01,8.503l5.303-1.951l-3.975,3.36l3.877,4.118l1.361,2.167l2.18,4.876l6.041-2.223l-5.105,4.315l2.311,5.166l4.931-1.814
		l-4.167,3.522l3.834,9.956l2.316,6.171L79.91,5.021l-48.268,5.555l20.919,9.576l8.228-7.492l-4.763,9.079l10.131,4.637l4.088,2.945
		l7.595,7.28l9.372-8.535l-6.115,11.657l8.045,7.713l7.651-6.967l-4.991,9.516l0.887,0.85l-44.065-24.65L0,59.064l27.757-1.409
		l4.637-12.618l-0.039,12.384l13.442-0.682l6.023,0.875l12.199,3.564l5.281-14.374l-0.05,15.901l12.925,3.776l4.27,1.248
		l20.867,9.408l18.439-2.352l4.477-12.185l-0.041,12.501l13.432,0.955L149.055,76.445z M128.258,56.388l-0.931-9.627l4.343,9.095
		L128.258,56.388z"/>
</g>
</svg>
