<?xml version="1.0" encoding="utf-8"?>
<!-- Generator: Adobe Illustrator 15.0.2, SVG Export Plug-In . SVG Version: 6.00 Build 0)  -->
<!DOCTYPE svg PUBLIC "-//W3C//DTD SVG 1.1//EN" "http://www.w3.org/Graphics/SVG/1.1/DTD/svg11.dtd">
<svg version="1.1" id="Lager_1" xmlns="http://www.w3.org/2000/svg" xmlns:xlink="http://www.w3.org/1999/xlink" x="0px" y="0px"
	 width="189.684px" height="218.644px" viewBox="0 0 189.684 218.644" enable-background="new 0 0 189.684 218.644"
	 xml:space="preserve">
<g>
	<g>
		
			<polygon fill="#CA9E64" stroke="#CA9E64" stroke-width="1.3504" stroke-linecap="round" stroke-linejoin="round" stroke-miterlimit="10" points="
			177.377,193.343 173.734,119.552 173.75,6.312 95.229,6.312 16.707,6.312 16.723,119.552 13.078,193.343 		"/>
	</g>
	<g>
		
			<polyline fill="#BF925C" stroke="#BF925C" stroke-width="1.3504" stroke-linecap="round" stroke-linejoin="round" stroke-miterlimit="10" points="
			177.377,193.343 173.734,119.552 173.75,29.043 95.229,29.043 16.707,29.043 		"/>
	</g>
	<g>
		
			<rect x="10.715" y="0.685" fill="#CA9E64" stroke="#CA9E64" stroke-width="1.3697" stroke-linecap="round" stroke-linejoin="round" stroke-miterlimit="10" width="169.025" height="28.358"/>
	</g>
</g>
<g>
	<path fill="none" stroke="#41281B" stroke-width="17" stroke-linecap="round" stroke-linejoin="round" stroke-miterlimit="10" d="
		M94.842,209.343c-31.574,0-32.389-20.272-32.389-20.272l-9.07-114.513c-1.531-14.834-12.195-25.334-26.002-25.334h-5.525H8.5"/>
	
		<polyline fill="none" stroke="#41281B" stroke-width="13" stroke-linecap="round" stroke-linejoin="round" stroke-miterlimit="10" points="
		94.842,212.144 16.039,212.144 11.918,49.224 	"/>
</g>
<g>
	<path fill="none" stroke="#41281B" stroke-width="17" stroke-linecap="round" stroke-linejoin="round" stroke-miterlimit="10" d="
		M181.184,49.224h-13.355h-5.525c-13.807,0-24.471,10.5-26.002,25.334l-9.07,114.513c0,0-0.814,20.272-32.389,20.272"/>
	
		<polyline fill="none" stroke="#41281B" stroke-width="13" stroke-linecap="round" stroke-linejoin="round" stroke-miterlimit="10" points="
		94.842,212.144 173.645,212.144 177.766,49.224 	"/>
</g>
</svg>
