<?xml version="1.0" encoding="utf-8"?>
<!-- Generator: Adobe Illustrator 15.0.2, SVG Export Plug-In . SVG Version: 6.00 Build 0)  -->
<!DOCTYPE svg PUBLIC "-//W3C//DTD SVG 1.1//EN" "http://www.w3.org/Graphics/SVG/1.1/DTD/svg11.dtd">
<svg version="1.1" id="Lager_1" xmlns="http://www.w3.org/2000/svg" xmlns:xlink="http://www.w3.org/1999/xlink" x="0px" y="0px"
	 width="206.85px" height="266.217px" viewBox="0 0 206.85 266.217" enable-background="new 0 0 206.85 266.217"
	 xml:space="preserve">
<g>
	<g>
		<g>
			
				<polygon fill="#CA9E67" stroke="#CA9E67" stroke-width="1.3504" stroke-linecap="round" stroke-linejoin="round" stroke-miterlimit="10" points="
				191.269,157.344 187.625,83.552 187.642,6.312 109.12,6.312 30.599,6.312 30.614,83.552 26.971,157.344 0.675,183.665 
				33.675,178.665 44.675,197.665 85.175,174.165 109.12,192.665 144.175,170.665 168.675,197.665 181.675,171.165 206.175,185.165 
							"/>
		</g>
		<g>
			
				<polyline fill="#C0925E" stroke="#C0925E" stroke-width="1.3504" stroke-linecap="round" stroke-linejoin="round" stroke-miterlimit="10" points="
				191.269,157.344 187.625,83.552 187.642,29.043 109.12,29.043 30.599,29.043 			"/>
		</g>
		<g>
			
				<rect x="24.607" y="0.685" fill="#CA9E67" stroke="#CA9E67" stroke-width="1.3697" stroke-linecap="round" stroke-linejoin="round" stroke-miterlimit="10" width="169.025" height="28.358"/>
		</g>
	</g>
	<g>
		
			<polyline fill="#C0925E" stroke="#C0925E" stroke-width="1.3504" stroke-linecap="round" stroke-linejoin="round" stroke-miterlimit="10" points="
			191.269,157.344 187.625,83.552 187.642,29.043 109.12,29.043 30.599,29.043 		"/>
	</g>
	<g>
		
			<rect x="24.607" y="0.685" fill="#CA9E67" stroke="#CA9E67" stroke-width="1.3697" stroke-linecap="round" stroke-linejoin="round" stroke-miterlimit="10" width="169.025" height="28.358"/>
	</g>
	<g>
		<g>
			
				<polyline fill="#C0925E" stroke="#C0925E" stroke-width="1.3504" stroke-linecap="round" stroke-linejoin="round" stroke-miterlimit="10" points="
				191.269,157.344 187.625,83.552 187.642,29.043 109.12,29.043 30.599,29.043 			"/>
		</g>
		<g>
			
				<rect x="24.607" y="0.685" fill="#CA9E67" stroke="#CA9E67" stroke-width="1.3697" stroke-linecap="round" stroke-linejoin="round" stroke-miterlimit="10" width="169.025" height="28.358"/>
		</g>
	</g>
	<g>
		
			<path fill="#9D7241" stroke="#9D7241" stroke-width="1.3504" stroke-linecap="round" stroke-linejoin="round" stroke-miterlimit="10" d="
			M191.269,157.344l14.906,27.821l-24.5-14l-13,26.5l-24.5-27l-35.056,22l-23.944-18.5l-40.5,23.5l-11-19l-33,5l26.295-26.321
			l2.786-56.429c0,0,19.588,10.875,36.088,10.875c21.25,0,30.997-6.875,48.237-6.875c17.093,0,32.221,7.148,43.091,7.401
			c15.002,0.349,31.631-4.901,31.631-4.901l0.26,5.254L191.269,157.344z"/>
	</g>
	<g opacity="0.79">
		
			<path fill="#946B3E" stroke="#946B3E" stroke-width="1.3504" stroke-linecap="round" stroke-linejoin="round" stroke-miterlimit="10" d="
			M191.269,157.344l-2.205-44.675l-0.26-5.254c0,0-16.629,5.25-31.631,4.901c-3.578-0.083-7.616-0.913-12.034-1.989L191.269,157.344
			z"/>
	</g>
</g>
<g>
	<g>
		
			<path fill="#B0DEF2" stroke="#B0DEF2" stroke-width="0.8134" stroke-linecap="round" stroke-linejoin="round" stroke-miterlimit="10" d="
			M68.289,243.81c0,0,3.881,0.143,7.297-2.58c7.583-6.89,1.87-15.166,1.87-15.166l-9.167-14.898l-9.167,14.898
			c0,0-5.714,8.276,1.869,15.166C64.407,243.952,68.289,243.81,68.289,243.81z"/>
		
			<path opacity="0.4" fill="#7CC1DF" stroke="#7CC1DF" stroke-width="0.8134" stroke-linecap="round" stroke-linejoin="round" stroke-miterlimit="10" d="
			M68.289,243.81c0,0-3.882,0.143-7.299-2.58c-7.583-6.89-1.869-15.166-1.869-15.166l9.167-14.898V243.81z"/>
	</g>
	<g>
		
			<path fill="#B0DEF2" stroke="#B0DEF2" stroke-width="0.8134" stroke-linecap="round" stroke-linejoin="round" stroke-miterlimit="10" d="
			M145.788,230.31c0,0,3.882,0.143,7.299-2.58c7.581-6.89,1.869-15.166,1.869-15.166l-9.168-14.898l-9.167,14.898
			c0,0-5.715,8.276,1.869,15.166C141.907,230.452,145.788,230.31,145.788,230.31z"/>
		
			<path opacity="0.4" fill="#7CC1DF" stroke="#7CC1DF" stroke-width="0.8134" stroke-linecap="round" stroke-linejoin="round" stroke-miterlimit="10" d="
			M145.788,230.31c0,0-3.881,0.143-7.298-2.58c-7.584-6.89-1.869-15.166-1.869-15.166l9.167-14.898V230.31z"/>
	</g>
	<g>
		
			<path fill="#B0DEF2" stroke="#B0DEF2" stroke-width="0.8134" stroke-linecap="round" stroke-linejoin="round" stroke-miterlimit="10" d="
			M110.361,265.809c0,0,3.753,0.138,7.054-2.493c7.331-6.661,1.809-14.662,1.809-14.662l-8.862-14.402l-8.862,14.402
			c0,0-5.525,8.001,1.807,14.662C106.609,265.946,110.361,265.809,110.361,265.809z"/>
		
			<path opacity="0.4" fill="#7CC1DF" stroke="#7CC1DF" stroke-width="0.8134" stroke-linecap="round" stroke-linejoin="round" stroke-miterlimit="10" d="
			M110.361,265.809c0,0-3.752,0.138-7.056-2.493c-7.332-6.661-1.807-14.662-1.807-14.662l8.862-14.402V265.809z"/>
	</g>
</g>
</svg>
