<?xml version="1.0" encoding="utf-8"?>
<!-- Generator: Adobe Illustrator 15.0.2, SVG Export Plug-In . SVG Version: 6.00 Build 0)  -->
<!DOCTYPE svg PUBLIC "-//W3C//DTD SVG 1.1//EN" "http://www.w3.org/Graphics/SVG/1.1/DTD/svg11.dtd">
<svg version="1.1" id="Lager_1" xmlns="http://www.w3.org/2000/svg" xmlns:xlink="http://www.w3.org/1999/xlink" x="0px" y="0px"
	 width="215.854px" height="329.998px" viewBox="310.244 80.856 215.854 329.998"
	 enable-background="new 310.244 80.856 215.854 329.998" xml:space="preserve">
<g id="Äppelskrutt">
</g>
<g id="Ben">
</g>
<g id="Morot">
</g>
<g>
	<path fill="#024C7C" stroke="#024C7C" stroke-width="3.4067" stroke-miterlimit="10" d="M382.776,175.043
		c5.799,8.971,4.465,20.143-2.979,24.955c-7.443,4.812-18.179,1.44-23.978-7.529s-9.907-28.562-2.462-33.374
		C360.8,154.281,376.978,166.073,382.776,175.043z"/>
</g>
<g>
	<path fill="#01406A" stroke="#01406A" stroke-width="3.4067" stroke-miterlimit="10" d="M353.356,159.094
		c-7.444,4.812-3.336,24.404,2.462,33.374s16.534,12.341,23.978,7.529l-26.426-40.814"/>
</g>
<g>
	<path fill="#003961" stroke="#003961" stroke-width="3.0417" stroke-miterlimit="10" d="M374.727,169.222
		c4.41,6.821,3.396,15.317-2.267,18.976c-5.661,3.659-13.822,1.097-18.232-5.726c-4.409-6.821-7.533-21.719-1.872-25.378
		S370.318,162.401,374.727,169.222z"/>
</g>
<g>
	<path fill="#002F52" stroke="#002F52" stroke-width="3.0417" stroke-miterlimit="10" d="M353.356,159.094
		c-5.661,3.659-2.537,18.557,1.872,25.378c4.41,6.821,12.571,9.384,18.232,5.726l-20.091-31.014"/>
</g>
<g>
	<path fill="#024C7C" stroke="#024C7C" stroke-width="3.4067" stroke-miterlimit="10" d="M367.204,166.735
		c2.751,4.258,2.118,9.559-1.414,11.842c-3.533,2.282-8.626,0.684-11.378-3.573c-2.751-4.257-4.701-13.554-1.168-15.837
		C356.775,156.883,364.452,162.479,367.204,166.735z"/>
</g>
<g>
	<path fill="#01416C" stroke="#01416C" stroke-width="3.4067" stroke-miterlimit="10" d="M353.243,159.167
		c-3.532,2.283-1.583,11.58,1.168,15.837c2.752,4.257,7.846,5.855,11.378,3.573L353.243,159.167z"/>
</g>
<g>
	<path fill="#3790C9" stroke="#3790C9" stroke-width="3.4067" stroke-miterlimit="10" d="M362.767,164.278
		c1.852,2.865,1.426,6.435-0.952,7.972c-2.377,1.537-5.808,0.46-7.659-2.405s-3.164-9.123-0.787-10.66
		C355.748,157.647,360.915,161.413,362.767,164.278z"/>
</g>
<g>
	<path fill="#3081B6" stroke="#3081B6" stroke-width="3.4067" stroke-miterlimit="10" d="M353.37,159.184
		c-2.377,1.537-1.064,7.795,0.787,10.66s5.281,3.941,7.659,2.405L353.37,159.184z"/>
</g>
<g>
	
		<path fill="#622181" stroke="#622181" stroke-width="4.2886" stroke-linecap="round" stroke-linejoin="round" stroke-miterlimit="10" d="
		M463.646,219.821c-4.165,15.725-22.259,24.571-37.982,20.406l0,0c-15.723-4.165-27.062-20.81-22.896-36.533l26.023-70.404
		c4.165-15.725,15.369-26.397,31.091-22.233l0,0c15.724,4.165,20.174,18.985,16.008,34.709L463.646,219.821z"/>
	
		<path fill="#422567" stroke="#422567" stroke-width="4.2886" stroke-linecap="round" stroke-linejoin="round" stroke-miterlimit="10" d="
		M459.883,111.056L459.883,111.056c-15.722-4.165-26.926,6.509-31.091,22.233l-26.023,70.404
		c-4.166,15.724,7.174,32.368,22.896,36.533l0,0L459.883,111.056z"/>
	<g>
		
			<path fill="#007A38" stroke="#007A38" stroke-width="3.9452" stroke-linecap="round" stroke-linejoin="round" stroke-miterlimit="10" d="
			M489.282,98.306c-14.367-3.372-22.779-0.335-22.779-0.335l3.418-14.119l-2.108-0.512l-2.111-0.512l-4.155,17.161
			c0,0-7.214-11.184-21.526-14.76c10.221,8.247,11.624,12.409,11.624,12.409s-15.735-3.348-26.227,5.329
			c0,0,18.016-5.149,37.377,2.154C462.792,105.122,472.267,97.614,489.282,98.306z"/>
	</g>
</g>
<path fill="#FFEED2" stroke="#FFEED2" stroke-width="6" stroke-linecap="round" stroke-linejoin="round" stroke-miterlimit="10" d="
	M480.703,257.806c-0.386-3.312-0.73-6.675,0.796-9.914c2.366-5.023,7.296-11.541,12.245-12.957c-2.061-4.72-2.747-7.209-0.38-12.232
	c3.632-7.714,10.25-14.166,18.262-12.763c-2.813-5.035-1.586-8.884,1.06-14.5c0.9-1.91,1.532-2.994,2.929-4.426
	c-4.013-5.31-4.464-13.207-1.432-19.645c1.166-2.477,2.812-4.568,4.773-6.228c-1.328-0.644-2.686-1.292-4.073-1.945
	c-23.64-11.135-40.722-17.117-49.905-3.817c-4.789,9.17,0.117,14.562,0.117,14.562l-34.328,53.411
	c-1.58,3.354-0.144,7.354,3.212,8.934C433.978,236.287,471.732,251.301,480.703,257.806z"/>
<path fill="#FCC200" stroke="#FCC200" stroke-width="0.946" stroke-linecap="round" stroke-linejoin="round" stroke-miterlimit="10" d="
	M497.883,236.683c-1.956-4.479-2.047-9.745,0.2-14.514c3.449-7.32,11.302-11.147,18.907-9.815c-2.673-4.778-3.08-10.73-0.568-16.062
	c0.854-1.813,1.981-3.409,3.305-4.767c-3.808-5.041-4.763-11.97-1.884-18.08c0.477-1.01,1.04-1.949,1.673-2.821l-44.535-2.408
	l-4.078,75.442l16.728,0.904C489.982,240.616,493.699,237.879,497.883,236.683z M510.218,185.586
	c3.402,0.184,6.011,3.091,5.827,6.493c-0.186,3.401-3.091,6.01-6.493,5.826c-3.403-0.183-6.01-3.09-5.827-6.491
	C503.909,188.01,506.814,185.401,510.218,185.586z M488.471,184.41c-1.623-0.089-2.866-1.475-2.777-3.097
	c0.086-1.622,1.472-2.866,3.096-2.778c1.62,0.086,2.866,1.473,2.777,3.096C491.479,183.253,490.094,184.498,488.471,184.41z
	 M487.367,204.832c0.138-2.536,2.305-4.482,4.843-4.345c2.538,0.138,4.482,2.307,4.346,4.844c-0.137,2.536-2.304,4.481-4.842,4.345
	C489.176,209.538,487.23,207.369,487.367,204.832z M481.51,228.689c0.204-3.796,3.447-6.705,7.242-6.5
	c3.795,0.203,6.705,3.446,6.501,7.242c-0.206,3.794-3.448,6.704-7.243,6.498C484.214,235.726,481.304,232.483,481.51,228.689z"/>
<path fill="#FFD600" stroke="#FFD600" stroke-width="0.946" stroke-linecap="round" stroke-linejoin="round" stroke-miterlimit="10" d="
	M506.437,213.406c3.236-1.565,6.937-2.122,10.579-1.484c-2.646-4.731-3.049-10.625-0.562-15.904c0.847-1.795,1.962-3.375,3.272-4.72
	c-3.771-4.991-4.716-11.853-1.865-17.902c0.472-1,1.03-1.93,1.656-2.793l-44.098-2.385L506.437,213.406z M510.311,185.415
	c3.368,0.182,5.951,3.061,5.77,6.429c-0.184,3.368-3.061,5.951-6.43,5.769c-3.369-0.182-5.95-3.06-5.77-6.428
	C504.064,187.816,506.941,185.232,510.311,185.415z M488.778,184.251c-1.606-0.088-2.838-1.46-2.75-3.066
	c0.085-1.605,1.458-2.838,3.065-2.751c1.604,0.086,2.838,1.459,2.75,3.065C491.757,183.106,490.385,184.338,488.778,184.251z"/>
<path fill="none" stroke="#BC8853" stroke-width="7" stroke-linecap="round" stroke-linejoin="round" stroke-miterlimit="10" d="
	M519.598,165.419c-24.297-12.507-45.31-20.136-54.836-5.584c-5.515,10.124,0.116,14.564,0.116,14.564l-34.331,53.42
	c-1.58,3.354-0.144,7.354,3.211,8.934c0,0,26.427,9.351,47.337,21.729"/>
<g>
	<g>
		<g>
			<path fill="#E3E584" d="M382.412,216.471c-7.262-0.62-15.346-7.216-20.072-17.196c-4.707-9.938-4.708-20.328-0.634-26.351
				l-20.698,9.802l-20.697,9.802c7.238,0.665,15.275,7.248,19.982,17.188c4.727,9.979,4.706,20.414,0.583,26.425L382.412,216.471z"
				/>
		</g>
	</g>
	<g>
		<g>
			<path fill="#3EA137" d="M336.242,171.615"/>
		</g>
	</g>
	<g>
		<g>
			<path fill="#CDDC85" d="M361.489,225.977l20.768-9.834c-7.262-0.619-15.189-6.886-19.917-16.867
				c-4.707-9.938-4.597-20.094-0.522-26.116l-20.699,9.802l20.028,42.292L361.489,225.977z"/>
		</g>
	</g>
	<g>
		<g>
			<path fill="#442A19" stroke="#442A19" stroke-miterlimit="10" d="M336.638,171.19c-2.679-5.653-0.486-12.322,5.261-15.044
				l1.403,2.962c-4.35,2.06-6.944,7.007-4.931,11.262L336.638,171.19z"/>
		</g>
	</g>
	<g>
		<g>
			<g>
				<g>
					<path fill="#046733" d="M333.398,172.652c0.321-4.016-0.591-6.427-0.591-6.427c-4.488-13.181-22.563-8.26-22.563-8.26
						s3.251,18.452,17.088,16.893C327.332,174.859,329.901,174.656,333.398,172.652z"/>
				</g>
			</g>
		</g>
		<g>
			<g>
				<g>
					<path fill="#037D40" d="M310.244,157.966c0,0,3.252,18.452,17.088,16.893c0,0,2.569-0.203,6.066-2.207"/>
				</g>
			</g>
		</g>
	</g>
	<g>
		<g>
			<g>
				
					<ellipse transform="matrix(-0.9038 0.4279 -0.4279 -0.9038 749.838 243.789)" fill="#442A19" stroke="#442A19" stroke-miterlimit="10" cx="347.524" cy="206.155" rx="1.178" ry="2.683"/>
			</g>
		</g>
		<g>
			<g>
				
					<ellipse transform="matrix(-0.9038 0.428 -0.428 -0.9038 763.2772 233.1976)" fill="#442A19" stroke="#442A19" stroke-miterlimit="10" cx="355.423" cy="202.405" rx="1.177" ry="2.683"/>
			</g>
		</g>
	</g>
	<g>
		<g>
			
				<path fill="#42A738" stroke="#42A738" stroke-width="0.8532" stroke-linecap="round" stroke-linejoin="round" stroke-miterlimit="10" d="
				M362.092,172.743c-2.003-4.229-7.899-6.602-12.71-4.323c-1.304,0.618-2.423,1.456-3.319,2.435l-1.873,1.882
				c-3.214,3.037-5.607,4.17-5.607,4.17l-0.032,0.016c0,0-2.393,1.133-6.778,1.695l-2.644,0.257
				c-1.326,0.073-2.684,0.408-3.988,1.025c-4.81,2.277-6.71,8.344-4.708,12.572L362.092,172.743z"/>
		</g>
	</g>
	<g>
		<g>
			
				<path fill="#42A738" stroke="#42A738" stroke-width="0.8522" stroke-linecap="round" stroke-linejoin="round" stroke-miterlimit="10" d="
				M382.681,216.344c2,4.223,1.35,12.922-3.453,15.196c0,0-2.285,1.05-6.435,1.677c-3.566,0.537-6.486,1.95-6.621,2.014
				l-0.225,0.106c-0.133,0.062-3.077,1.427-5.752,3.845c-3.114,2.813-5.375,3.915-5.375,3.915
				c-4.804,2.274-11.944-2.734-13.944-6.958L382.681,216.344z"/>
		</g>
	</g>
</g>
<g>
	
		<path fill="#007A38" stroke="#007A38" stroke-width="1.7447" stroke-linecap="round" stroke-linejoin="round" stroke-miterlimit="10" d="
		M439.987,349.004c1.05,10.319-6.467,19.54-16.788,20.59l0,0c-10.32,1.05-19.54-6.467-20.59-16.787l-22.604-222.181
		c-1.05-10.322,6.468-19.541,16.788-20.59l0,0c10.32-1.051,19.54,6.466,20.59,16.788L439.987,349.004z"/>
	
		<path fill="#00632E" stroke="#00632E" stroke-width="1.8173" stroke-linecap="round" stroke-linejoin="round" stroke-miterlimit="10" d="
		M396.794,110.036L396.794,110.036c-10.32,1.05-17.838,10.269-16.788,20.59l22.604,222.181c1.05,10.32,10.27,17.837,20.59,16.787
		l0,0L396.794,110.036z"/>
</g>
<g>
	<g>
		<path fill="#BE0A26" d="M377.61,151.256c4.631-8.589,15.349-11.797,23.938-7.166c41.446,22.351,55.31,77.355,30.905,122.613
			c-8.721,16.17-21.457,29.5-36.83,38.548c-8.41,4.948-19.24,2.145-24.189-6.269c-4.948-8.408-2.145-19.238,6.267-24.188
			c9.814-5.776,17.991-14.373,23.649-24.865c15.155-28.107,7.721-61.635-16.575-74.736
			C376.185,170.562,372.978,159.845,377.61,151.256z"/>
		<path fill="#E0001A" d="M371.202,298.569c4.949,8.411,16.011,11.631,24.421,6.683c15.374-9.048,28.109-22.378,36.83-38.548
			c24.404-45.257,10.541-100.263-30.905-122.613c-8.59-4.631-19.568-0.912-24.2,7.677l15.352,8.732
			c32.398,17.472,42.871,61.145,23.344,97.355c-7.104,13.173-17.437,24.005-29.875,31.329
			C386.003,289.28,371.202,298.569,371.202,298.569z"/>
		
			<polygon fill="#E0001A" stroke="#E0001A" stroke-width="1.5683" stroke-linecap="round" stroke-linejoin="round" stroke-miterlimit="10" points="
			376.821,146.743 372.961,153.9 366.193,152.397 371.25,150.618 368.999,147.195 373.054,147.273 371.847,141.914 		"/>
		
			<polygon fill="#BE0A26" stroke="#BE0A26" stroke-width="1.5683" stroke-linecap="round" stroke-linejoin="round" stroke-miterlimit="10" points="
			374.892,150.322 372.961,153.9 366.193,152.397 371.25,150.618 368.999,147.195 		"/>
		
			<polygon fill="#BE0A26" stroke="#BE0A26" stroke-width="1.5683" stroke-linecap="round" stroke-linejoin="round" stroke-miterlimit="10" points="
			366.313,295.281 370.022,302.516 364.95,307.24 366.349,302.065 362.253,301.981 364.614,298.686 359.516,296.641 		"/>
		
			<polygon fill="#E0001A" stroke="#E0001A" stroke-width="1.5683" stroke-linecap="round" stroke-linejoin="round" stroke-miterlimit="10" points="
			367.919,299.359 369.773,302.979 364.702,307.703 366.1,302.528 362.003,302.444 		"/>
	</g>
	<g>
		<g>
			
				<path fill="#F29400" stroke="#F29400" stroke-width="5.1997" stroke-linecap="round" stroke-linejoin="round" stroke-miterlimit="10" d="
				M439.416,288.113l32.952-72.204c5.366-15.074,0.639-27.331-11.009-29.204l-5.444-0.876l-0.078-0.014l-5.445-0.876
				c-11.646-1.874-19.982,8.28-19.614,24.277L439.416,288.113z"/>
		</g>
		<g>
			<g>
				<path fill="#EF8400" d="M439.416,288.113l32.952-72.204c5.366-15.074,0.639-27.331-11.009-29.204l-5.444-0.876l-0.078-0.014
					L439.416,288.113z"/>
			</g>
			<g>
				<path fill="#EF8400" d="M456.05,184.49l5.522,0.89c5.079,0.816,9.084,3.481,11.586,7.706c3.478,5.871,3.648,14.354,0.474,23.273
					c-0.014,0.036-0.027,0.072-0.043,0.107l-32.952,72.205c-0.254,0.555-0.844,0.862-1.434,0.768
					c-0.059-0.009-0.116-0.022-0.176-0.04L456.05,184.49z"/>
			</g>
		</g>
		<g>
			
				<path fill="#008A2E" stroke="#008A2E" stroke-width="2.7955" stroke-linecap="round" stroke-linejoin="round" stroke-miterlimit="10" d="
				M452.278,157.606c0,0-13.45-6.71-12.299-16.253c0.901-7.468,7.774-8.976,13.259-6.498c8.57,3.873,5.89,17.827,5.383,19.846
				c0,0-0.442,2.182-1.223,5.892c-0.816,5.073-3.252,20.21-3.252,20.21l-2.611-0.42l3.49-21.693L452.278,157.606z"/>
		</g>
		<g>
			
				<path fill="#008A2E" stroke="#008A2E" stroke-width="2.7955" stroke-linecap="round" stroke-linejoin="round" stroke-miterlimit="10" d="
				M463.913,174c0,0,14.874-2.154,16.776-11.576c1.485-7.373-4.568-10.962-10.552-10.329c-9.354,0.989-10.033,12.289-10.759,15.335
				c0,0-0.612,3.737-1.267,7.797c0.142-0.876-0.975,6.055-0.975,6.055l2.61,0.421l1.214-7.539L463.913,174z"/>
		</g>
	</g>
	<g>
		<g>
			
				<path fill="#FFD600" stroke="#FFD600" stroke-width="0.566" stroke-linecap="round" stroke-linejoin="round" stroke-miterlimit="10" d="
				M410.362,196.037c-10.826,13.309-28.51,20.281-46.476,16.592c-21.434-4.402-39.339-23.96-38.5-50.798l5.017-2.045
				c6.729,18.577,22.518,28.896,37.759,32.026c11.264,2.313,22.413,0.438,31.833-4.562L410.362,196.037z"/>
		</g>
		<g>
			
				<path fill="#786855" stroke="#786855" stroke-width="0.566" stroke-linecap="round" stroke-linejoin="round" stroke-miterlimit="10" d="
				M410.364,196.04c-10.828,13.301-28.504,20.268-46.467,16.582c-22.556-4.634-39.445-24.85-38.5-50.799l2.266-0.925
				c2.677,18.837,20.265,37.171,38.457,40.908c14.549,2.987,28.908-1.016,39.594-9.712L410.364,196.04z"/>
		</g>
	</g>
	<g>
		<g>
			<path fill="#FCC200" stroke="#FCC200" stroke-linecap="round" stroke-linejoin="round" stroke-miterlimit="10" d="M395,296.407"
				/>
		</g>
		<g>
			<g>
				
					<polygon fill="#5F4C3F" stroke="#5F4C3F" stroke-width="0.9498" stroke-linecap="round" stroke-linejoin="round" stroke-miterlimit="10" points="
					426.054,192.176 418.038,179.935 426.078,177.063 431.898,185.957 				"/>
			</g>
			<g>
				
					<polygon fill="#786855" stroke="#786855" stroke-width="0.9498" stroke-linecap="round" stroke-linejoin="round" stroke-miterlimit="10" points="
					426.054,192.176 431.898,185.957 426.078,177.063 				"/>
			</g>
		</g>
		<g>
			<path fill="#FFD600" stroke="#FFD600" stroke-linecap="round" stroke-linejoin="round" stroke-miterlimit="10" d="
				M427.606,339.812c-29.333-18.94-40.854-50.211-40.211-77.692c0.642-27.484,14.412-51.576,35.18-66.418l-9.181-13.994
				c-35.77,8.952-62.632,40.891-63.534,79.534c-0.902,38.646,25.688,77.222,72.236,86.399L427.606,339.812z"/>
		</g>
		<g>
			<path fill="#FCC200" stroke="#FCC200" stroke-linecap="round" stroke-linejoin="round" stroke-miterlimit="10" d="
				M422.097,347.641c-45.06-8.64-73.188-45.726-72.236-86.399c0.902-38.645,27.766-70.582,63.534-79.534l3.953,6.03
				c-27.748,13.183-47.221,41.153-47.987,73.959c-0.767,32.809,23.845,70.346,55.226,82.405L422.097,347.641z"/>
		</g>
		<g>
			<circle fill="#5F4C3F" cx="358.123" cy="280.48" r="0.917"/>
		</g>
		<g>
			<circle fill="#5F4C3F" cx="357.353" cy="285.14" r="0.916"/>
		</g>
		<g>
			<circle fill="#5F4C3F" cx="355.867" cy="289.353" r="0.917"/>
		</g>
		<g>
			<circle fill="#5F4C3F" cx="358.923" cy="289.711" r="0.917"/>
		</g>
		<g>
			<circle fill="#5F4C3F" cx="357.94" cy="294.799" r="0.917"/>
		</g>
		<g>
			<circle fill="#5F4C3F" cx="361.132" cy="295.392" r="0.917"/>
		</g>
		<g>
			<circle fill="#5F4C3F" cx="354.292" cy="279.815" r="0.917"/>
		</g>
		<g>
			<circle fill="#5F4C3F" cx="354.938" cy="274.365" r="0.917"/>
		</g>
	</g>
	<g>
		<g>
			
				<polygon fill="#CA9E64" stroke="#CA9E64" stroke-width="1.3504" stroke-linecap="round" stroke-linejoin="round" stroke-miterlimit="10" points="
				503.094,410.179 499.45,336.387 499.468,223.147 420.945,223.147 342.423,223.147 342.439,336.387 338.795,410.179 			"/>
		</g>
		<g>
			
				<polyline fill="#BF925C" stroke="#BF925C" stroke-width="1.3504" stroke-linecap="round" stroke-linejoin="round" stroke-miterlimit="10" points="
				503.094,410.179 499.45,336.387 499.468,245.878 420.945,245.878 342.423,245.878 			"/>
		</g>
		<g>
			
				<rect x="336.432" y="217.52" fill="#CA9E64" stroke="#CA9E64" stroke-width="1.3697" stroke-linecap="round" stroke-linejoin="round" stroke-miterlimit="10" width="169.024" height="28.358"/>
		</g>
	</g>
</g>
</svg>
