<?xml version="1.0" encoding="utf-8"?>
<!-- Generator: Adobe Illustrator 17.1.0, SVG Export Plug-In . SVG Version: 6.00 Build 0)  -->
<!DOCTYPE svg PUBLIC "-//W3C//DTD SVG 1.1//EN" "http://www.w3.org/Graphics/SVG/1.1/DTD/svg11.dtd">
<svg version="1.1" xmlns="http://www.w3.org/2000/svg" xmlns:xlink="http://www.w3.org/1999/xlink" x="0px" y="0px"
	 width="548.512px" height="254.632px" viewBox="0 0 548.512 254.632" enable-background="new 0 0 548.512 254.632"
	 xml:space="preserve">
<g id="Skärm">
	<polygon fill="#CFD1D2" points="-315.371,294.425 -409.258,294.425 -403.258,254.632 -321.371,254.632 	"/>
	<rect x="-422.324" y="293.925" fill="#D9DADB" width="120.021" height="6.041"/>
	<path fill="#D9DADB" d="M-187.333,243.626c0,7.828-6.346,14.174-14.173,14.174h-321.618c-7.828,0-14.173-6.346-14.173-14.174
		V29.056c0-7.828,6.346-14.173,14.173-14.173h321.618c7.827,0,14.173,6.346,14.173,14.173V243.626z"/>
	<path d="M-187.333,226.133V29.056c0-7.828-6.346-14.173-14.173-14.173h-321.618c-7.828,0-14.173,6.346-14.173,14.173v197.077
		H-187.333z"/>
	<rect x="-515.488" y="34.049" fill="#F6F6F6" width="306.349" height="172.084"/>
	<polygon fill="#ECEDED" points="-209.139,206.133 -515.488,206.133 -515.488,34.049 	"/>
	<g>
		<polygon fill="#282829" points="354.294,249.466 260.408,249.466 264.408,209.673 350.294,209.673 		"/>
		<rect x="247.342" y="244.535" fill="#3E3D40" width="120.021" height="10.098"/>
		
			<rect x="144" y="4" fill="#3E3D40" stroke="#3E3D40" stroke-width="8" stroke-linecap="round" stroke-linejoin="round" stroke-miterlimit="10" width="317.501" height="205.673"/>
		<rect x="158.802" y="18.765" fill="#F6F6F6" width="288.74" height="173.561"/>
		<polygon fill="#ECEDED" points="447.542,192.326 158.802,192.326 158.802,18.765 		"/>
	</g>
</g>
<g id="Dator">
	<rect x="0" y="0.284" fill="#3E3D40" width="93.334" height="254.349"/>
	<circle fill="#282829" cx="46.666" cy="214.467" r="8.333"/>
	<path fill="#282829" d="M51.333,180.785c0,1.564-1.269,2.834-2.835,2.834h-3.664c-1.565,0-2.834-1.27-2.834-2.834V97.786
		c0-1.565,1.269-2.835,2.834-2.835h3.664c1.566,0,2.835,1.269,2.835,2.835V180.785z"/>
</g>
<g id="På">
	<circle opacity="0.2" fill="#53B06B" cx="46.667" cy="68.499" r="5.761"/>
	<circle fill="#53B06B" cx="46.666" cy="68.498" r="3.645"/>
</g>
<g id="Av" display="none">
	<circle display="inline" fill="#E74D3D" cx="46.666" cy="68.498" r="3.645"/>
	<circle display="inline" opacity="0.2" fill="#E74D3D" cx="46.667" cy="68.499" r="5.761"/>
</g>
<g id="Mus">
	<g>
		<path fill="#3E3D40" d="M548.512,254.619c0-12.108-9.814-21.923-21.923-21.923c-12.107,0-21.923,9.814-21.923,21.923H548.512z"/>
		<path fill="#282829" d="M504.667,254.619c0-12.108,9.815-21.923,21.923-21.923v21.937L504.667,254.619z"/>
		<rect x="524.583" y="229.57" fill="#D9DADB" width="4.011" height="10.66"/>
	</g>
</g>
</svg>
