<?xml version="1.0" encoding="utf-8"?>
<!-- Generator: Adobe Illustrator 15.1.0, SVG Export Plug-In . SVG Version: 6.00 Build 0)  -->
<!DOCTYPE svg PUBLIC "-//W3C//DTD SVG 1.1//EN" "http://www.w3.org/Graphics/SVG/1.1/DTD/svg11.dtd">
<svg version="1.1" xmlns="http://www.w3.org/2000/svg" xmlns:xlink="http://www.w3.org/1999/xlink" x="0px" y="0px"
	 width="2789.116px" height="304px" viewBox="0 0 2789.116 304" enable-background="new 0 0 2789.116 304" xml:space="preserve">
<g id="_x31_">
	<g id="Skärm">
		<g>
			<polygon fill="#282829" points="371.96,269.182 278.074,269.182 282.074,229.389 367.96,229.389 			"/>
			<rect x="265.007" y="264.25" fill="#3E3D40" width="120.021" height="10.098"/>
			
				<rect x="161.666" y="23.715" fill="#3E3D40" stroke="#3E3D40" stroke-width="8" stroke-linecap="round" stroke-linejoin="round" stroke-miterlimit="10" width="317.5" height="205.673"/>
			<rect x="176.467" y="38.48" fill="#87888A" width="288.74" height="173.561"/>
			<polygon fill="#707173" points="465.207,212.041 176.467,212.041 176.467,38.48 			"/>
		</g>
	</g>
	<g id="Dator">
		<rect x="17.666" y="19.999" fill="#3E3D40" width="93.333" height="254.349"/>
		<circle fill="#282829" cx="64.332" cy="234.183" r="8.333"/>
		<path fill="#282829" d="M68.999,200.5c0,1.564-1.269,2.834-2.835,2.834H62.5c-1.565,0-2.834-1.27-2.834-2.834v-82.999
			c0-1.565,1.269-2.834,2.834-2.834h3.664c1.566,0,2.835,1.269,2.835,2.834V200.5z"/>
	</g>
	<g id="Av">
		<circle fill="#E74D3D" cx="64.332" cy="88.213" r="3.645"/>
		<circle opacity="0.2" fill="#E74D3D" cx="64.332" cy="88.215" r="5.761"/>
	</g>
	<g id="Start_4" display="none">
		
			<rect x="176.467" y="38.48" display="inline" fill="#4195CD" stroke="#4195CD" stroke-width="0.3007" stroke-linecap="round" stroke-linejoin="round" stroke-miterlimit="10" width="288.74" height="173.561"/>
		<g id="På_kopia_5" display="inline">
			<circle opacity="0.2" fill="#53B06B" cx="64.332" cy="88.215" r="5.761"/>
			<circle fill="#53B06B" cx="64.332" cy="88.213" r="3.645"/>
		</g>
		<g display="inline">
			
				<rect x="277.977" y="118.038" fill="none" stroke="#FFFFFF" stroke-width="1.0414" stroke-linecap="round" stroke-linejoin="round" stroke-miterlimit="10" width="89.507" height="14.384"/>
			<g>
				
					<rect x="281.322" y="121.183" fill="#044F70" stroke="#044F70" stroke-width="0.3007" stroke-linecap="round" stroke-linejoin="round" stroke-miterlimit="10" width="4.901" height="8.271"/>
				
					<rect x="288.433" y="121.183" fill="#044F70" stroke="#044F70" stroke-width="0.3007" stroke-linecap="round" stroke-linejoin="round" stroke-miterlimit="10" width="4.901" height="8.271"/>
				
					<rect x="295.543" y="121.183" fill="#044F70" stroke="#044F70" stroke-width="0.3007" stroke-linecap="round" stroke-linejoin="round" stroke-miterlimit="10" width="4.901" height="8.271"/>
				
					<rect x="302.652" y="121.183" fill="#044F70" stroke="#044F70" stroke-width="0.3007" stroke-linecap="round" stroke-linejoin="round" stroke-miterlimit="10" width="4.901" height="8.271"/>
				
					<rect x="309.763" y="121.183" fill="#044F70" stroke="#044F70" stroke-width="0.3007" stroke-linecap="round" stroke-linejoin="round" stroke-miterlimit="10" width="4.901" height="8.271"/>
				
					<rect x="316.873" y="121.183" fill="#044F70" stroke="#044F70" stroke-width="0.3007" stroke-linecap="round" stroke-linejoin="round" stroke-miterlimit="10" width="4.901" height="8.271"/>
				
					<rect x="323.983" y="121.183" fill="#044F70" stroke="#044F70" stroke-width="0.3007" stroke-linecap="round" stroke-linejoin="round" stroke-miterlimit="10" width="4.901" height="8.271"/>
				
					<rect x="331.093" y="121.183" fill="#044F70" stroke="#044F70" stroke-width="0.3007" stroke-linecap="round" stroke-linejoin="round" stroke-miterlimit="10" width="4.901" height="8.271"/>
				
					<rect x="338.204" y="121.183" fill="#044F70" stroke="#044F70" stroke-width="0.3007" stroke-linecap="round" stroke-linejoin="round" stroke-miterlimit="10" width="4.901" height="8.271"/>
				
					<rect x="345.313" y="121.183" fill="#044F70" stroke="#044F70" stroke-width="0.3007" stroke-linecap="round" stroke-linejoin="round" stroke-miterlimit="10" width="4.901" height="8.271"/>
				
					<rect x="352.424" y="121.183" fill="#044F70" stroke="#044F70" stroke-width="0.3007" stroke-linecap="round" stroke-linejoin="round" stroke-miterlimit="10" width="4.9" height="8.271"/>
				
					<rect x="359.533" y="121.183" fill="#044F70" stroke="#044F70" stroke-width="0.3007" stroke-linecap="round" stroke-linejoin="round" stroke-miterlimit="10" width="4.901" height="8.271"/>
			</g>
		</g>
		<polygon display="inline" fill="#FFFFFF" points="369.55,146.477 368.852,163.087 373.772,160.625 379.31,171.691 384.409,169.14 
			378.871,158.074 383.792,155.611 		"/>
	</g>
	<g id="Mus">
		<g>
			<path fill="#3E3D40" d="M540.178,274.334c0-12.108-9.814-21.923-21.923-21.923c-12.107,0-21.923,9.814-21.923,21.923H540.178z"/>
			<path fill="#282829" d="M496.332,274.334c0-12.108,9.815-21.923,21.923-21.923v21.937L496.332,274.334z"/>
			<rect x="516.249" y="249.285" fill="#D9DADB" width="4.011" height="10.66"/>
		</g>
	</g>
</g>
<g id="_x32_">
	<g id="Skärm_kopia">
		<g>
			<polygon fill="#282829" points="929.783,269.182 835.897,269.182 839.897,229.389 925.783,229.389 			"/>
			<rect x="822.831" y="264.25" fill="#3E3D40" width="120.021" height="10.098"/>
			
				<rect x="719.489" y="23.715" fill="#3E3D40" stroke="#3E3D40" stroke-width="8" stroke-linecap="round" stroke-linejoin="round" stroke-miterlimit="10" width="317.5" height="205.673"/>
			<rect x="734.29" y="38.48" fill="#F6F6F6" width="288.74" height="173.561"/>
			<polygon fill="#ECEDED" points="1023.03,212.041 734.29,212.041 734.29,38.48 			"/>
		</g>
	</g>
	<g id="Dator_kopia">
		<rect x="575.489" y="19.999" fill="#3E3D40" width="93.333" height="254.349"/>
		<circle fill="#282829" cx="622.155" cy="234.183" r="8.333"/>
		<path fill="#282829" d="M626.821,200.5c0,1.564-1.269,2.834-2.834,2.834h-3.664c-1.566,0-2.835-1.27-2.835-2.834v-82.999
			c0-1.565,1.269-2.834,2.835-2.834h3.664c1.565,0,2.834,1.269,2.834,2.834V200.5z"/>
	</g>
	<g id="Av_kopia">
		<circle fill="#E74D3D" cx="622.155" cy="88.213" r="3.645"/>
		<circle opacity="0.2" fill="#E74D3D" cx="622.155" cy="88.215" r="5.762"/>
	</g>
	<g id="Start_4_kopia">
		
			<rect x="734.29" y="38.48" fill="#4195CD" stroke="#4195CD" stroke-width="0.3007" stroke-linecap="round" stroke-linejoin="round" stroke-miterlimit="10" width="288.74" height="173.561"/>
		<g id="På_kopia_6">
			<circle opacity="0.2" fill="#53B06B" cx="622.155" cy="88.215" r="5.762"/>
			<circle fill="#53B06B" cx="622.155" cy="88.213" r="3.645"/>
		</g>
		
			<rect x="835.8" y="118.038" fill="none" stroke="#FFFFFF" stroke-width="1.0414" stroke-linecap="round" stroke-linejoin="round" stroke-miterlimit="10" width="89.507" height="14.384"/>
		
			<rect x="839.146" y="121.183" fill="#044F70" stroke="#044F70" stroke-width="0.3007" stroke-linecap="round" stroke-linejoin="round" stroke-miterlimit="10" width="4.901" height="8.271"/>
		
			<rect x="846.256" y="121.183" fill="#044F70" stroke="#044F70" stroke-width="0.3007" stroke-linecap="round" stroke-linejoin="round" stroke-miterlimit="10" width="4.901" height="8.271"/>
		
			<rect x="853.366" y="121.183" fill="#044F70" stroke="#044F70" stroke-width="0.3007" stroke-linecap="round" stroke-linejoin="round" stroke-miterlimit="10" width="4.901" height="8.271"/>
		<polygon fill="#FFFFFF" points="927.373,146.477 926.675,163.087 931.596,160.625 937.133,171.691 942.232,169.14 
			936.694,158.074 941.615,155.611 		"/>
	</g>
	<g id="Mus_kopia">
		<g>
			<path fill="#3E3D40" d="M1098.001,274.334c0-12.108-9.814-21.923-21.923-21.923c-12.107,0-21.923,9.814-21.923,21.923H1098.001z"
				/>
			<path fill="#282829" d="M1054.155,274.334c0-12.108,9.815-21.923,21.923-21.923v21.937L1054.155,274.334z"/>
			<rect x="1074.072" y="249.285" fill="#D9DADB" width="4.011" height="10.66"/>
		</g>
	</g>
</g>
<g id="_x33_">
	<g id="Skärm_kopia_2">
		<g>
			<polygon fill="#282829" points="1487.606,269.182 1393.721,269.182 1397.721,229.389 1483.606,229.389 			"/>
			<rect x="1380.654" y="264.25" fill="#3E3D40" width="120.021" height="10.098"/>
			
				<rect x="1277.312" y="23.715" fill="#3E3D40" stroke="#3E3D40" stroke-width="8" stroke-linecap="round" stroke-linejoin="round" stroke-miterlimit="10" width="317.5" height="205.673"/>
			<rect x="1292.113" y="38.48" fill="#F6F6F6" width="288.74" height="173.561"/>
			<polygon fill="#ECEDED" points="1580.854,212.041 1292.113,212.041 1292.113,38.48 			"/>
		</g>
	</g>
	<g id="Dator_kopia_2">
		<rect x="1133.312" y="19.999" fill="#3E3D40" width="93.333" height="254.349"/>
		<circle fill="#282829" cx="1179.978" cy="234.183" r="8.333"/>
		<path fill="#282829" d="M1184.645,200.5c0,1.564-1.269,2.834-2.834,2.834h-3.664c-1.566,0-2.835-1.27-2.835-2.834v-82.999
			c0-1.565,1.269-2.834,2.835-2.834h3.664c1.565,0,2.834,1.269,2.834,2.834V200.5z"/>
	</g>
	<g id="Av_kopia_2">
		<circle fill="#E74D3D" cx="1179.979" cy="88.213" r="3.645"/>
		<circle opacity="0.2" fill="#E74D3D" cx="1179.979" cy="88.215" r="5.762"/>
	</g>
	<g id="Start_4_kopia_2">
		
			<rect x="1292.113" y="38.48" fill="#4195CD" stroke="#4195CD" stroke-width="0.3007" stroke-linecap="round" stroke-linejoin="round" stroke-miterlimit="10" width="288.74" height="173.561"/>
		<g id="På_kopia_7">
			<circle opacity="0.2" fill="#53B06B" cx="1179.979" cy="88.215" r="5.762"/>
			<circle fill="#53B06B" cx="1179.979" cy="88.213" r="3.645"/>
		</g>
		
			<rect x="1393.623" y="118.038" fill="none" stroke="#FFFFFF" stroke-width="1.0414" stroke-linecap="round" stroke-linejoin="round" stroke-miterlimit="10" width="89.507" height="14.384"/>
		
			<rect x="1396.969" y="121.183" fill="#044F70" stroke="#044F70" stroke-width="0.3007" stroke-linecap="round" stroke-linejoin="round" stroke-miterlimit="10" width="4.901" height="8.271"/>
		
			<rect x="1404.079" y="121.183" fill="#044F70" stroke="#044F70" stroke-width="0.3007" stroke-linecap="round" stroke-linejoin="round" stroke-miterlimit="10" width="4.901" height="8.271"/>
		
			<rect x="1411.189" y="121.183" fill="#044F70" stroke="#044F70" stroke-width="0.3007" stroke-linecap="round" stroke-linejoin="round" stroke-miterlimit="10" width="4.901" height="8.271"/>
		
			<rect x="1418.299" y="121.183" fill="#044F70" stroke="#044F70" stroke-width="0.3007" stroke-linecap="round" stroke-linejoin="round" stroke-miterlimit="10" width="4.901" height="8.271"/>
		
			<rect x="1425.409" y="121.183" fill="#044F70" stroke="#044F70" stroke-width="0.3007" stroke-linecap="round" stroke-linejoin="round" stroke-miterlimit="10" width="4.901" height="8.271"/>
		
			<rect x="1432.52" y="121.183" fill="#044F70" stroke="#044F70" stroke-width="0.3007" stroke-linecap="round" stroke-linejoin="round" stroke-miterlimit="10" width="4.901" height="8.271"/>
		<polygon fill="#FFFFFF" points="1485.196,146.477 1484.498,163.087 1489.419,160.625 1494.956,171.691 1500.056,169.14 
			1494.518,158.074 1499.438,155.611 		"/>
	</g>
	<g id="Mus_kopia_2">
		<g>
			<path fill="#3E3D40" d="M1655.824,274.334c0-12.108-9.814-21.923-21.923-21.923c-12.107,0-21.923,9.814-21.923,21.923H1655.824z"
				/>
			<path fill="#282829" d="M1611.979,274.334c0-12.108,9.815-21.923,21.923-21.923v21.937L1611.979,274.334z"/>
			<rect x="1631.896" y="249.285" fill="#D9DADB" width="4.011" height="10.66"/>
		</g>
	</g>
</g>
<g id="_x34_">
	<g id="Skärm_kopia_3">
		<g>
			<polygon fill="#282829" points="2045.43,269.182 1951.544,269.182 1955.544,229.389 2041.43,229.389 			"/>
			<rect x="1938.478" y="264.25" fill="#3E3D40" width="120.021" height="10.098"/>
			
				<rect x="1835.136" y="23.715" fill="#3E3D40" stroke="#3E3D40" stroke-width="8" stroke-linecap="round" stroke-linejoin="round" stroke-miterlimit="10" width="317.5" height="205.673"/>
			<rect x="1849.937" y="38.48" fill="#F6F6F6" width="288.74" height="173.561"/>
			<polygon fill="#ECEDED" points="2138.677,212.041 1849.937,212.041 1849.937,38.48 			"/>
		</g>
	</g>
	<g id="Dator_kopia_3">
		<rect x="1691.136" y="19.999" fill="#3E3D40" width="93.333" height="254.349"/>
		<circle fill="#282829" cx="1737.801" cy="234.183" r="8.333"/>
		<path fill="#282829" d="M1742.468,200.5c0,1.564-1.269,2.834-2.834,2.834h-3.664c-1.566,0-2.835-1.27-2.835-2.834v-82.999
			c0-1.565,1.269-2.834,2.835-2.834h3.664c1.565,0,2.834,1.269,2.834,2.834V200.5z"/>
	</g>
	<g id="Av_kopia_3">
		<circle fill="#E74D3D" cx="1737.802" cy="88.213" r="3.645"/>
		<circle opacity="0.2" fill="#E74D3D" cx="1737.802" cy="88.215" r="5.762"/>
	</g>
	<g id="Start_4_kopia_3">
		
			<rect x="1849.937" y="38.48" fill="#4195CD" stroke="#4195CD" stroke-width="0.3007" stroke-linecap="round" stroke-linejoin="round" stroke-miterlimit="10" width="288.74" height="173.561"/>
		<g id="På_kopia_8">
			<circle opacity="0.2" fill="#53B06B" cx="1737.802" cy="88.215" r="5.762"/>
			<circle fill="#53B06B" cx="1737.802" cy="88.213" r="3.645"/>
		</g>
		
			<rect x="1951.446" y="118.038" fill="none" stroke="#FFFFFF" stroke-width="1.0414" stroke-linecap="round" stroke-linejoin="round" stroke-miterlimit="10" width="89.507" height="14.384"/>
		
			<rect x="1954.792" y="121.183" fill="#044F70" stroke="#044F70" stroke-width="0.3007" stroke-linecap="round" stroke-linejoin="round" stroke-miterlimit="10" width="4.901" height="8.271"/>
		
			<rect x="1961.902" y="121.183" fill="#044F70" stroke="#044F70" stroke-width="0.3007" stroke-linecap="round" stroke-linejoin="round" stroke-miterlimit="10" width="4.901" height="8.271"/>
		
			<rect x="1969.013" y="121.183" fill="#044F70" stroke="#044F70" stroke-width="0.3007" stroke-linecap="round" stroke-linejoin="round" stroke-miterlimit="10" width="4.901" height="8.271"/>
		
			<rect x="1976.122" y="121.183" fill="#044F70" stroke="#044F70" stroke-width="0.3007" stroke-linecap="round" stroke-linejoin="round" stroke-miterlimit="10" width="4.901" height="8.271"/>
		
			<rect x="1983.232" y="121.183" fill="#044F70" stroke="#044F70" stroke-width="0.3007" stroke-linecap="round" stroke-linejoin="round" stroke-miterlimit="10" width="4.901" height="8.271"/>
		
			<rect x="1990.343" y="121.183" fill="#044F70" stroke="#044F70" stroke-width="0.3007" stroke-linecap="round" stroke-linejoin="round" stroke-miterlimit="10" width="4.901" height="8.271"/>
		
			<rect x="1997.452" y="121.183" fill="#044F70" stroke="#044F70" stroke-width="0.3007" stroke-linecap="round" stroke-linejoin="round" stroke-miterlimit="10" width="4.902" height="8.271"/>
		
			<rect x="2004.563" y="121.183" fill="#044F70" stroke="#044F70" stroke-width="0.3007" stroke-linecap="round" stroke-linejoin="round" stroke-miterlimit="10" width="4.9" height="8.271"/>
		
			<rect x="2011.673" y="121.183" fill="#044F70" stroke="#044F70" stroke-width="0.3007" stroke-linecap="round" stroke-linejoin="round" stroke-miterlimit="10" width="4.901" height="8.271"/>
		<polygon fill="#FFFFFF" points="2043.02,146.477 2042.321,163.087 2047.242,160.625 2052.779,171.691 2057.879,169.14 
			2052.341,158.074 2057.262,155.611 		"/>
	</g>
	<g id="Mus_kopia_3">
		<g>
			<path fill="#3E3D40" d="M2213.647,274.334c0-12.108-9.814-21.923-21.923-21.923c-12.107,0-21.923,9.814-21.923,21.923H2213.647z"
				/>
			<path fill="#282829" d="M2169.802,274.334c0-12.108,9.815-21.923,21.923-21.923v21.937L2169.802,274.334z"/>
			<rect x="2189.719" y="249.285" fill="#D9DADB" width="4.011" height="10.66"/>
		</g>
	</g>
</g>
<g id="_x35_">
	<g id="Skärm_kopia_4">
		<g>
			<polygon fill="#282829" points="2603.253,269.182 2509.367,269.182 2513.367,229.389 2599.253,229.389 			"/>
			<rect x="2496.301" y="264.25" fill="#3E3D40" width="120.021" height="10.098"/>
			
				<rect x="2392.959" y="23.715" fill="#3E3D40" stroke="#3E3D40" stroke-width="8" stroke-linecap="round" stroke-linejoin="round" stroke-miterlimit="10" width="317.5" height="205.673"/>
			<rect x="2407.76" y="38.48" fill="#F6F6F6" width="288.74" height="173.561"/>
			<polygon fill="#ECEDED" points="2696.5,212.041 2407.76,212.041 2407.76,38.48 			"/>
		</g>
	</g>
	<g id="Dator_kopia_4">
		<rect x="2248.959" y="19.999" fill="#3E3D40" width="93.333" height="254.349"/>
		<circle fill="#282829" cx="2295.625" cy="234.183" r="8.333"/>
		<path fill="#282829" d="M2300.291,200.5c0,1.564-1.269,2.834-2.834,2.834h-3.664c-1.566,0-2.835-1.27-2.835-2.834v-82.999
			c0-1.565,1.269-2.834,2.835-2.834h3.664c1.565,0,2.834,1.269,2.834,2.834V200.5z"/>
	</g>
	<g id="Av_kopia_4">
		<circle fill="#E74D3D" cx="2295.625" cy="88.213" r="3.645"/>
		<circle opacity="0.2" fill="#E74D3D" cx="2295.625" cy="88.215" r="5.762"/>
	</g>
	<g id="Start_4_kopia_4">
		
			<rect x="2407.76" y="38.48" fill="#4195CD" stroke="#4195CD" stroke-width="0.3007" stroke-linecap="round" stroke-linejoin="round" stroke-miterlimit="10" width="288.74" height="173.561"/>
		<g id="På_kopia_9">
			<circle opacity="0.2" fill="#53B06B" cx="2295.625" cy="88.215" r="5.762"/>
			<circle fill="#53B06B" cx="2295.625" cy="88.213" r="3.645"/>
		</g>
		
			<rect x="2509.27" y="118.038" fill="none" stroke="#FFFFFF" stroke-width="1.0414" stroke-linecap="round" stroke-linejoin="round" stroke-miterlimit="10" width="89.507" height="14.384"/>
		
			<rect x="2512.615" y="121.183" fill="#044F70" stroke="#044F70" stroke-width="0.3007" stroke-linecap="round" stroke-linejoin="round" stroke-miterlimit="10" width="4.901" height="8.271"/>
		
			<rect x="2519.726" y="121.183" fill="#044F70" stroke="#044F70" stroke-width="0.3007" stroke-linecap="round" stroke-linejoin="round" stroke-miterlimit="10" width="4.901" height="8.271"/>
		
			<rect x="2526.836" y="121.183" fill="#044F70" stroke="#044F70" stroke-width="0.3007" stroke-linecap="round" stroke-linejoin="round" stroke-miterlimit="10" width="4.901" height="8.271"/>
		
			<rect x="2533.945" y="121.183" fill="#044F70" stroke="#044F70" stroke-width="0.3007" stroke-linecap="round" stroke-linejoin="round" stroke-miterlimit="10" width="4.901" height="8.271"/>
		
			<rect x="2541.056" y="121.183" fill="#044F70" stroke="#044F70" stroke-width="0.3007" stroke-linecap="round" stroke-linejoin="round" stroke-miterlimit="10" width="4.901" height="8.271"/>
		
			<rect x="2548.166" y="121.183" fill="#044F70" stroke="#044F70" stroke-width="0.3007" stroke-linecap="round" stroke-linejoin="round" stroke-miterlimit="10" width="4.901" height="8.271"/>
		
			<rect x="2555.275" y="121.183" fill="#044F70" stroke="#044F70" stroke-width="0.3007" stroke-linecap="round" stroke-linejoin="round" stroke-miterlimit="10" width="4.902" height="8.271"/>
		
			<rect x="2562.387" y="121.183" fill="#044F70" stroke="#044F70" stroke-width="0.3007" stroke-linecap="round" stroke-linejoin="round" stroke-miterlimit="10" width="4.9" height="8.271"/>
		
			<rect x="2569.496" y="121.183" fill="#044F70" stroke="#044F70" stroke-width="0.3007" stroke-linecap="round" stroke-linejoin="round" stroke-miterlimit="10" width="4.901" height="8.271"/>
		
			<rect x="2576.606" y="121.183" fill="#044F70" stroke="#044F70" stroke-width="0.3007" stroke-linecap="round" stroke-linejoin="round" stroke-miterlimit="10" width="4.901" height="8.271"/>
		
			<rect x="2583.717" y="121.183" fill="#044F70" stroke="#044F70" stroke-width="0.3007" stroke-linecap="round" stroke-linejoin="round" stroke-miterlimit="10" width="4.9" height="8.271"/>
		
			<rect x="2590.826" y="121.183" fill="#044F70" stroke="#044F70" stroke-width="0.3007" stroke-linecap="round" stroke-linejoin="round" stroke-miterlimit="10" width="4.901" height="8.271"/>
		<polygon fill="#FFFFFF" points="2600.843,146.477 2600.145,163.087 2605.065,160.625 2610.603,171.691 2615.702,169.14 
			2610.164,158.074 2615.085,155.611 		"/>
	</g>
	<g id="Mus_kopia_4">
		<g>
			<path fill="#3E3D40" d="M2771.471,274.334c0-12.108-9.814-21.923-21.923-21.923c-12.107,0-21.923,9.814-21.923,21.923H2771.471z"
				/>
			<path fill="#282829" d="M2727.625,274.334c0-12.108,9.815-21.923,21.923-21.923v21.937L2727.625,274.334z"/>
			<rect x="2747.542" y="249.285" fill="#D9DADB" width="4.011" height="10.66"/>
		</g>
	</g>
</g>
</svg>
