<?xml version="1.0" encoding="utf-8"?>
<!-- Generator: Adobe Illustrator 15.0.2, SVG Export Plug-In . SVG Version: 6.00 Build 0)  -->
<!DOCTYPE svg PUBLIC "-//W3C//DTD SVG 1.1//EN" "http://www.w3.org/Graphics/SVG/1.1/DTD/svg11.dtd">
<svg version="1.1" id="Lager_1" xmlns="http://www.w3.org/2000/svg" xmlns:xlink="http://www.w3.org/1999/xlink" x="0px" y="0px"
	 width="125.549px" height="267.776px" viewBox="0 0 125.549 267.776" enable-background="new 0 0 125.549 267.776"
	 xml:space="preserve">
<g>
	<path opacity="0.56" fill="#D0ECF9" stroke="#D0ECF9" stroke-width="1.5404" stroke-miterlimit="10" d="M120.028,50.326h-45.5
		c-2.624,0-4.75,2.126-4.75,4.75s2.126,4.75,4.75,4.75h2.758v190.776c0,9.059,7.344,16.403,16.403,16.403h7.179
		c9.059,0,16.402-7.345,16.402-16.403V59.826h2.758c2.623,0,4.75-2.126,4.75-4.75S122.651,50.326,120.028,50.326z"/>
	<circle fill="#915E36" cx="104.774" cy="29.155" r="7.496"/>
	<circle fill="#7C4D25" cx="82.544" cy="16.245" r="5.415"/>
	<circle fill="#915E36" cx="99.191" cy="3.381" r="3.38"/>
	<path opacity="0.56" fill="#D0ECF9" stroke="#D0ECF9" stroke-width="1.5404" stroke-miterlimit="10" d="M97.278,267.005h-3.589
		c-9.06,0-16.403-7.345-16.403-16.403V59.826h-2.758c-2.624,0-4.75-2.126-4.75-4.75s2.126-4.75,4.75-4.75h22.75V267.005z"/>
	<path fill="#915E36" d="M112.271,114.076v136.526c0,6.288-5.115,11.403-11.402,11.403h-7.179c-6.288,0-11.403-5.115-11.403-11.403
		V114.076H112.271z"/>
	<path fill="#7C4D25" d="M97.278,262.005h-3.589c-6.288,0-11.403-5.115-11.403-11.403V114.076h14.992V262.005z"/>
	<path fill="#E74D3D" d="M65.828,114.863l-7.326,6.639v9.715c0,2.641-2.145,4.787-4.787,4.787H4.788
		c-2.644,0-4.788-2.146-4.788-4.787V98.509c0-2.644,2.145-4.787,4.788-4.787h48.927c2.643,0,4.787,2.143,4.787,4.787v9.057
		L65.828,114.863z"/>
	<g>
		<path fill="#FFFFFF" d="M8.234,126.74h-0.77v-15.596h0.77v1.248c0.915-0.984,1.892-1.477,2.932-1.477
			c0.568,0,1.144,0.215,1.726,0.645c1.219,0.887,1.829,2.378,1.829,4.471c0,2.468-0.921,4.083-2.765,4.846
			c-0.943,0.387-2.184,0.609-3.722,0.664V126.74z M13.516,118.36c0.291-0.638,0.437-1.474,0.437-2.507
			c0-1.031-0.281-1.984-0.842-2.858c-0.562-0.873-1.251-1.31-2.07-1.31c-0.526,0-1.008,0.156-1.445,0.468s-0.891,0.737-1.361,1.278
			v7.341C11.021,120.772,12.78,119.968,13.516,118.36z"/>
		<path fill="#FFFFFF" d="M24.598,121.541h-0.769v-6.861h-5.906v6.861h-0.769v-14.555h0.769v6.924h5.906v-6.924h0.769V121.541z"/>
		<path fill="#FFFFFF" d="M34.704,121.541h-0.79V108.15l-3.119,1.414v-0.769l3.909-1.809V121.541z"/>
		<path fill="#FFFFFF" d="M42.251,116.197h-4.99v-0.769h4.99V116.197z"/>
		<path fill="#FFFFFF" d="M42.564,121.541l5.552-7.693c0.305-0.43,0.537-0.762,0.696-0.998c0.159-0.234,0.322-0.555,0.488-0.956
			c0.167-0.401,0.25-0.776,0.25-1.122c0-0.957-0.305-1.699-0.915-2.226c-0.61-0.526-1.317-0.791-2.121-0.791
			s-1.885,0.437-3.244,1.31v-0.748c1.22-0.888,2.349-1.331,3.389-1.331s1.906,0.35,2.599,1.05c0.693,0.699,1.04,1.583,1.04,2.651
			s-0.374,2.121-1.123,3.16l-4.99,6.925h6.28v0.769H42.564z"/>
	</g>
</g>
</svg>
