<?xml version="1.0" encoding="utf-8"?>
<!-- Generator: Adobe Illustrator 17.0.0, SVG Export Plug-In . SVG Version: 6.00 Build 0)  -->
<!DOCTYPE svg PUBLIC "-//W3C//DTD SVG 1.1//EN" "http://www.w3.org/Graphics/SVG/1.1/DTD/svg11.dtd">
<svg version="1.1" id="Layer_1" xmlns="http://www.w3.org/2000/svg" xmlns:xlink="http://www.w3.org/1999/xlink" x="0px" y="0px"
	 width="239.583px" height="324.953px" viewBox="0 0 239.583 324.953" enable-background="new 0 0 239.583 324.953"
	 xml:space="preserve">
<path fill="#EDEDED" d="M239.583,324.953l-11.977-101.339l0.022-155.512h-55.991V43.49c0-23.981-19.509-43.49-43.489-43.49h-16.711
	C87.457,0,67.947,19.509,67.947,43.49v24.611H11.958l0.022,155.512L0,324.953H239.583z M91.661,43.49
	c0-10.905,8.87-19.776,19.775-19.776h16.711c10.904,0,19.775,8.872,19.775,19.776v24.611h-28.129H91.661V43.49z"/>
<path fill="#DADADA" d="M11.958,68.102l0.022,155.512L0,324.953h239.583L11.958,68.102z"/>
<path fill="#C6C6C6" d="M6.276,271.864L0,324.953h239.583L6.276,271.864z"/>
</svg>
