<?xml version="1.0" encoding="utf-8"?>
<!-- Generator: Adobe Illustrator 15.0.2, SVG Export Plug-In . SVG Version: 6.00 Build 0)  -->
<!DOCTYPE svg PUBLIC "-//W3C//DTD SVG 1.1//EN" "http://www.w3.org/Graphics/SVG/1.1/DTD/svg11.dtd">
<svg version="1.1" id="Lager_1" xmlns="http://www.w3.org/2000/svg" xmlns:xlink="http://www.w3.org/1999/xlink" x="0px" y="0px"
	 width="870.011px" height="555.66px" viewBox="0 0 870.011 555.66" enable-background="new 0 0 870.011 555.66"
	 xml:space="preserve">
<g>
	<g>
		<g>
			<g>
				<path fill="#4AB37F" d="M791.967,72.239v-9.384c-0.168-2.793-0.201-2.912-4.664-3.677c-11.411-1.951-9.742-17.438-9.742-17.438
					s11.301-0.028,14.765,7.256c0,0,1.5,3.571,1.5,11.421v11.821H791.967z"/>
			</g>
		</g>
		<g>
			<g>
				<path fill="#4AB37F" d="M797.353,72.239v-3.463c0.169-2.793,0.201-2.912,4.664-3.677c11.411-1.951,9.743-17.438,9.743-17.438
					s-11.302-0.028-14.766,7.256c0,0-1.5,3.571-1.5,11.421v5.9H797.353z"/>
			</g>
		</g>
	</g>
	<g>
		<g>
			<g>
				<path fill="#4AB37F" d="M64.765,528.214v-9.384c-0.168-2.793-0.201-2.912-4.664-3.677c-11.411-1.951-9.742-17.438-9.742-17.438
					s11.301-0.028,14.765,7.256c0,0,1.5,3.571,1.5,11.421v11.821H64.765z"/>
			</g>
		</g>
		<g>
			<g>
				<path fill="#4AB37F" d="M70.151,528.214v-3.463c0.169-2.793,0.201-2.912,4.664-3.677c11.411-1.951,9.743-17.438,9.743-17.438
					s-11.302-0.028-14.766,7.256c0,0-1.5,3.571-1.5,11.421v5.9H70.151z"/>
			</g>
		</g>
	</g>
	<g>
		<g>
			<g>
				<path fill="#4AB37F" d="M749.265,97.125v-9.384c-0.168-2.793-0.201-2.912-4.664-3.677c-11.411-1.951-9.743-17.438-9.743-17.438
					s11.302-0.028,14.766,7.256c0,0,1.5,3.571,1.5,11.421v11.821H749.265z"/>
			</g>
		</g>
		<g>
			<g>
				<path fill="#4AB37F" d="M754.651,97.125v-3.463c0.169-2.793,0.201-2.912,4.664-3.677c11.411-1.951,9.743-17.438,9.743-17.438
					s-11.302-0.028-14.766,7.256c0,0-1.5,3.571-1.5,11.421v5.9H754.651z"/>
			</g>
		</g>
	</g>
	<g>
		<g>
			<g>
				<path fill="#4AB37F" d="M152.6,76.205v-9.384c-0.168-2.793-0.201-2.912-4.664-3.677c-11.411-1.951-9.742-17.438-9.742-17.438
					s11.301-0.028,14.765,7.256c0,0,1.5,3.571,1.5,11.421v11.821H152.6z"/>
			</g>
		</g>
		<g>
			<g>
				<path fill="#4AB37F" d="M157.986,76.205v-3.463c0.169-2.793,0.201-2.912,4.664-3.677c11.411-1.951,9.743-17.438,9.743-17.438
					s-11.302-0.028-14.766,7.256c0,0-1.5,3.571-1.5,11.421v5.9H157.986z"/>
			</g>
		</g>
	</g>
	<g>
		<g>
			<g>
				<path fill="#4AB37F" d="M101.291,94.165v-9.384c-0.168-2.793-0.201-2.912-4.664-3.677c-11.411-1.951-9.743-17.438-9.743-17.438
					s11.302-0.028,14.766,7.256c0,0,1.5,3.571,1.5,11.421v11.821H101.291z"/>
			</g>
		</g>
		<g>
			<g>
				<path fill="#4AB37F" d="M106.676,94.165v-3.463c0.169-2.793,0.201-2.912,4.664-3.677c11.411-1.951,9.743-17.438,9.743-17.438
					s-11.302-0.028-14.766,7.256c0,0-1.5,3.571-1.5,11.421v5.9H106.676z"/>
			</g>
		</g>
	</g>
	<g>
		<path fill="#4AB37F" d="M119.014,30.924c-1.339,2.875-1.339,11.743-1.362,13.26l0.023,3.441l1.777-0.007l-0.013-3.276
			c0.405-2.794,0.163-2.819,4.506-3.584c11.018-1.957,9.316-16.94,9.316-16.94S122.318,23.857,119.014,30.924z"/>
		<path fill="#4AB37F" d="M115.971,35.716v0.002c-0.002-0.1-0.007-0.215-0.012-0.319c-0.003-0.137-0.009-0.277-0.014-0.419
			c-0.017-0.459-0.039-0.938-0.066-1.438c-0.003-0.097-0.01-0.19-0.014-0.288c-0.013-0.225-0.028-0.449-0.042-0.679
			c-0.017-0.24-0.034-0.481-0.052-0.725c-0.012-0.175-0.024-0.346-0.038-0.521c-0.036-0.427-0.076-0.852-0.12-1.271
			c-0.009-0.089-0.021-0.173-0.029-0.262c-0.042-0.382-0.091-0.757-0.143-1.123c-0.01-0.078-0.02-0.154-0.032-0.23
			c-0.064-0.433-0.135-0.85-0.213-1.238c-0.004-0.017-0.008-0.032-0.01-0.05c-0.074-0.356-0.153-0.684-0.242-0.989
			c-0.019-0.07-0.041-0.14-0.06-0.208c-0.097-0.31-0.195-0.599-0.309-0.836c-3.36-7.047-14.31-7.002-14.31-7.002
			s-1.593,14.991,9.455,16.874c4.33,0.737,4.103,0.76,4.528,3.551l0.033,9.092l1.789-0.011l-0.043-9.256
			C116.021,37.953,116.008,36.968,115.971,35.716z"/>
		<path fill="#4AB37F" d="M117.652,20.094c4.339,0,7.854-4.02,7.854-8.979V0l-7.854,5.994L109.797,0v11.115
			C109.797,16.074,113.32,20.094,117.652,20.094z"/>
	</g>
	<g>
		<path fill="#4AB37F" d="M24.653,538.948c-1.34,2.875-1.34,11.743-1.362,13.26l0.022,3.441l1.777-0.007l-0.013-3.276
			c0.405-2.794,0.163-2.819,4.506-3.584c11.018-1.957,9.315-16.94,9.315-16.94S27.958,531.882,24.653,538.948z"/>
		<path fill="#4AB37F" d="M21.61,543.74v0.002c-0.002-0.1-0.008-0.215-0.012-0.319c-0.004-0.137-0.01-0.277-0.014-0.419
			c-0.018-0.459-0.039-0.938-0.066-1.438c-0.003-0.097-0.01-0.19-0.014-0.288c-0.013-0.225-0.027-0.449-0.041-0.679
			c-0.018-0.24-0.034-0.481-0.053-0.725c-0.012-0.175-0.023-0.346-0.037-0.521c-0.037-0.427-0.076-0.852-0.121-1.271
			c-0.009-0.089-0.02-0.173-0.029-0.262c-0.042-0.382-0.09-0.757-0.143-1.123c-0.01-0.078-0.02-0.154-0.032-0.23
			c-0.064-0.433-0.135-0.85-0.214-1.238c-0.004-0.017-0.008-0.032-0.01-0.05c-0.074-0.356-0.153-0.684-0.242-0.989
			c-0.02-0.07-0.041-0.14-0.061-0.208c-0.096-0.31-0.195-0.599-0.309-0.836c-3.359-7.047-14.31-7.002-14.31-7.002
			s-1.593,14.991,9.455,16.874c4.33,0.737,4.103,0.76,4.528,3.551l0.032,9.092l1.789-0.011l-0.043-9.256
			C21.66,545.978,21.647,544.992,21.61,543.74z"/>
		<path fill="#4AB37F" d="M23.291,528.118c4.339,0,7.854-4.02,7.854-8.979v-11.115l-7.854,5.994l-7.854-5.994v11.115
			C15.436,524.099,18.958,528.118,23.291,528.118z"/>
	</g>
	<g>
		<path fill="#4AB37F" d="M814.325,504.708c-1.34,2.875-1.34,11.743-1.363,13.26l0.023,3.441l1.777-0.007l-0.014-3.276
			c0.406-2.794,0.164-2.819,4.506-3.584c11.018-1.957,9.316-16.94,9.316-16.94S817.628,497.642,814.325,504.708z"/>
		<path fill="#4AB37F" d="M811.282,509.5v0.002c-0.003-0.1-0.008-0.215-0.012-0.319c-0.004-0.137-0.01-0.277-0.014-0.419
			c-0.018-0.459-0.039-0.938-0.066-1.438c-0.004-0.097-0.01-0.19-0.014-0.288c-0.014-0.225-0.028-0.449-0.042-0.679
			c-0.017-0.24-0.034-0.481-0.052-0.725c-0.013-0.175-0.024-0.346-0.038-0.521c-0.036-0.427-0.075-0.852-0.12-1.271
			c-0.01-0.089-0.021-0.173-0.029-0.262c-0.043-0.382-0.091-0.757-0.143-1.123c-0.011-0.078-0.02-0.154-0.033-0.23
			c-0.064-0.433-0.135-0.85-0.213-1.238c-0.004-0.017-0.008-0.032-0.01-0.05c-0.074-0.356-0.154-0.684-0.242-0.989
			c-0.02-0.07-0.041-0.14-0.061-0.208c-0.097-0.31-0.195-0.599-0.309-0.836c-3.36-7.047-14.311-7.002-14.311-7.002
			s-1.593,14.991,9.455,16.874c4.33,0.737,4.104,0.76,4.528,3.551l0.032,9.092l1.789-0.011l-0.043-9.256
			C811.331,511.737,811.319,510.752,811.282,509.5z"/>
		<path fill="#4AB37F" d="M812.961,493.878c4.34,0,7.854-4.02,7.854-8.979v-11.115l-7.854,5.994l-7.854-5.994v11.115
			C805.108,489.858,808.629,493.878,812.961,493.878z"/>
	</g>
	<g>
		<path fill="#4AB37F" d="M855.67,527.973c-1.34,2.875-1.34,11.743-1.363,13.26l0.023,3.441l1.777-0.007l-0.014-3.276
			c0.406-2.794,0.164-2.819,4.506-3.584c11.018-1.957,9.316-16.94,9.316-16.94S858.974,520.906,855.67,527.973z"/>
		<path fill="#4AB37F" d="M852.627,532.765v0.002c-0.003-0.1-0.008-0.215-0.012-0.319c-0.004-0.137-0.01-0.277-0.014-0.419
			c-0.018-0.459-0.039-0.938-0.066-1.438c-0.004-0.097-0.01-0.19-0.014-0.288c-0.014-0.225-0.028-0.449-0.042-0.679
			c-0.017-0.24-0.034-0.481-0.052-0.725c-0.013-0.175-0.024-0.346-0.038-0.521c-0.036-0.427-0.075-0.852-0.12-1.271
			c-0.01-0.089-0.021-0.173-0.029-0.262c-0.043-0.382-0.091-0.757-0.143-1.123c-0.011-0.078-0.02-0.154-0.033-0.23
			c-0.064-0.433-0.135-0.85-0.213-1.238c-0.004-0.017-0.008-0.032-0.01-0.05c-0.074-0.356-0.154-0.684-0.242-0.989
			c-0.02-0.07-0.041-0.14-0.061-0.208c-0.097-0.31-0.195-0.599-0.309-0.836c-3.36-7.047-14.311-7.002-14.311-7.002
			s-1.593,14.991,9.455,16.874c4.33,0.737,4.104,0.76,4.528,3.551l0.032,9.092l1.789-0.011l-0.043-9.256
			C852.676,535.002,852.665,534.017,852.627,532.765z"/>
		<path fill="#4AB37F" d="M854.307,517.143c4.34,0,7.854-4.02,7.854-8.979v-11.115l-7.854,5.994l-7.854-5.994v11.115
			C846.454,513.123,849.975,517.143,854.307,517.143z"/>
	</g>
	<path fill="none" stroke="#4AB37F" stroke-width="2" stroke-miterlimit="10" d="M576.127,330.321"/>
	<path fill="none" stroke="#4AB37F" stroke-width="2" stroke-miterlimit="10" d="M189.586,223.326"/>
	<g>
		<g>
			
				<path fill="none" stroke="#4AB37F" stroke-width="2.9991" stroke-linecap="round" stroke-linejoin="round" stroke-dasharray="12.0156,12.0156" d="
				M750.417,405.972c-52.739,94.495-129.869,81.195-129.869,81.195s-61.344,20.875-134.006-84.401
				c-33.403-48.396-111.377-13.489-142.043,30.064c0,0-23.504,45.981-103.271,32.069c0,0-212.225-117.661-53.783-329.54
				c0,0,83.719-115.487,239.719-89.325c126,31.742,99.859,139.823,173,131.242C655.859,170.741,841.975,174.276,750.417,405.972z"/>
		</g>
		<circle fill="#4AB37F" cx="136.769" cy="227.297" r="11.493"/>
		<g>
			
				<polyline fill="none" stroke="#4AB37F" stroke-width="4" stroke-linecap="round" stroke-linejoin="round" stroke-miterlimit="10" points="
				701.032,180.821 704.885,188.531 697.174,192.385 			"/>
			<path fill="none" stroke="#4AB37F" stroke-width="4" stroke-linecap="round" stroke-linejoin="round" stroke-miterlimit="10" d="
				M704.33,188.643c0,0-16.795-7.845-36.974-9.635"/>
		</g>
		<g>
			
				<polyline fill="none" stroke="#4AB37F" stroke-width="4" stroke-linecap="round" stroke-linejoin="round" stroke-miterlimit="10" points="
				370.321,36.084 376.586,42.005 370.667,48.27 			"/>
			<path fill="none" stroke="#4AB37F" stroke-width="4" stroke-linecap="round" stroke-linejoin="round" stroke-miterlimit="10" d="
				M376.104,42.299c0,0-18.468-1.604-38.035,3.641"/>
		</g>
		<g>
			
				<polyline fill="none" stroke="#4AB37F" stroke-width="4" stroke-linecap="round" stroke-linejoin="round" stroke-miterlimit="10" points="
				631.025,494.312 624.496,488.684 630.125,482.154 			"/>
			<path fill="none" stroke="#4AB37F" stroke-width="4" stroke-linecap="round" stroke-linejoin="round" stroke-miterlimit="10" d="
				M624.965,488.367c0,0,18.521,0.765,37.831-5.358"/>
		</g>
		<g>
			
				<polyline fill="none" stroke="#4AB37F" stroke-width="4" stroke-linecap="round" stroke-linejoin="round" stroke-miterlimit="10" points="
				182.516,424.834 183.075,416.232 191.677,416.791 			"/>
			<path fill="none" stroke="#4AB37F" stroke-width="4" stroke-linecap="round" stroke-linejoin="round" stroke-miterlimit="10" d="
				M183.612,416.415c0,0,10.547,15.244,27.068,26.967"/>
		</g>
	</g>
	<path fill="#4AB37F" d="M105.463,435.019c-1.195,0-2.35,0.185-3.434,0.524c-0.338-5.283-4.266-9.588-9.369-10.506v-0.003
		c-0.74-0.214-2.035-0.181-2.035-0.181c-6.314,0-11.434,5.118-11.434,11.433c0,1.277,0.213,2.505,0.6,3.652
		c-6.283,0.035-11.367,5.139-11.367,11.431c0,6.314,5.117,11.433,11.432,11.433c2.117,0,4.098-0.576,5.797-1.579
		c0.117,0.17,0.24,0.335,0.367,0.497c0.039,0.05,0.08,0.099,0.119,0.147c0.092,0.114,0.186,0.226,0.281,0.336
		c0.045,0.053,0.09,0.104,0.137,0.156c0.102,0.111,0.203,0.22,0.309,0.327c0.041,0.042,0.08,0.084,0.121,0.124
		c0.145,0.146,0.293,0.287,0.447,0.424c0.021,0.021,0.047,0.039,0.068,0.059c0.133,0.116,0.268,0.229,0.404,0.34
		c0.051,0.041,0.104,0.081,0.156,0.121c0.115,0.089,0.23,0.175,0.348,0.259c0.055,0.04,0.111,0.079,0.168,0.118
		c0.131,0.091,0.264,0.177,0.398,0.262c0.041,0.026,0.082,0.053,0.123,0.078c0.176,0.108,0.355,0.211,0.537,0.309
		c0.043,0.023,0.086,0.043,0.129,0.065c0.143,0.074,0.285,0.146,0.432,0.215c0.047,0.021,0.094,0.044,0.141,0.065h-0.092v23.367
		h2.414h2.412v-22.354c5.203-0.014,9.588-3.503,10.957-8.269c6.051-0.295,10.867-5.294,10.867-11.418
		C116.896,440.137,111.777,435.019,105.463,435.019z"/>
	<path fill="#4AB37F" d="M37.039,411.311c-1.195,0-2.35,0.185-3.434,0.524c-0.338-5.283-4.266-9.588-9.369-10.506v-0.003
		c-0.74-0.214-2.035-0.181-2.035-0.181c-6.314,0-11.434,5.118-11.434,11.433c0,1.277,0.213,2.505,0.6,3.652
		C5.084,416.266,0,421.369,0,427.661c0,6.314,5.117,11.433,11.432,11.433c2.117,0,4.098-0.576,5.797-1.579
		c0.117,0.17,0.24,0.335,0.367,0.497c0.039,0.05,0.08,0.099,0.119,0.147c0.092,0.114,0.186,0.226,0.281,0.336
		c0.045,0.053,0.09,0.104,0.137,0.156c0.102,0.111,0.203,0.22,0.309,0.327c0.041,0.042,0.08,0.084,0.121,0.124
		c0.145,0.146,0.293,0.287,0.447,0.424c0.021,0.021,0.047,0.039,0.068,0.059c0.133,0.116,0.268,0.229,0.404,0.34
		c0.051,0.041,0.104,0.081,0.156,0.121c0.115,0.089,0.23,0.175,0.348,0.259c0.055,0.04,0.111,0.079,0.168,0.118
		c0.131,0.091,0.264,0.177,0.398,0.262c0.041,0.026,0.082,0.053,0.123,0.078c0.176,0.108,0.355,0.211,0.537,0.309
		c0.043,0.023,0.086,0.043,0.129,0.065c0.143,0.074,0.285,0.146,0.432,0.215c0.047,0.021,0.094,0.044,0.141,0.065h-0.092v23.367
		h2.414h2.412V442.43c5.203-0.014,9.588-3.503,10.957-8.269c6.051-0.295,10.867-5.294,10.867-11.418
		C48.473,416.429,43.354,411.311,37.039,411.311z"/>
</g>
</svg>
