<?xml version="1.0" encoding="utf-8"?>
<!-- Generator: Adobe Illustrator 15.0.2, SVG Export Plug-In . SVG Version: 6.00 Build 0)  -->
<!DOCTYPE svg PUBLIC "-//W3C//DTD SVG 1.1//EN" "http://www.w3.org/Graphics/SVG/1.1/DTD/svg11.dtd">
<svg version="1.1" id="Lager_1" xmlns="http://www.w3.org/2000/svg" xmlns:xlink="http://www.w3.org/1999/xlink" x="0px" y="0px"
	 width="853.965px" height="598.388px" viewBox="0 0 853.965 598.388" enable-background="new 0 0 853.965 598.388"
	 xml:space="preserve">
<g>
	<g>
		<path fill="none" stroke="#36895B" stroke-width="4" stroke-linecap="round" stroke-linejoin="round" stroke-miterlimit="10" d="
			M827.814,268.405"/>
		<path fill="none" stroke="#36895B" stroke-width="4" stroke-linecap="round" stroke-linejoin="round" stroke-miterlimit="10" d="
			M839.152,263.921"/>
	</g>
	<g>
		<g>
			<g>
				<path fill="#F4A28F" d="M510.348,51.269v-9.384c-0.168-2.793-0.201-2.912-4.664-3.677c-11.412-1.951-9.742-17.438-9.742-17.438
					s11.301-0.028,14.764,7.256c0,0,1.5,3.571,1.5,11.421v11.821H510.348z"/>
			</g>
		</g>
		<g>
			<g>
				<path fill="#F4A28F" d="M515.732,51.269v-3.463c0.17-2.793,0.201-2.912,4.664-3.677c11.412-1.951,9.744-17.438,9.744-17.438
					s-11.303-0.028-14.766,7.256c0,0-1.5,3.571-1.5,11.421v5.9H515.732z"/>
			</g>
		</g>
	</g>
	<g>
		<g>
			<g>
				<path fill="#F4A28F" d="M459.871,66.518v-9.384c-0.168-2.793-0.201-2.912-4.664-3.677c-11.41-1.951-9.742-17.438-9.742-17.438
					s11.301-0.028,14.766,7.256c0,0,1.5,3.571,1.5,11.421v11.821H459.871z"/>
			</g>
		</g>
		<g>
			<g>
				<path fill="#F4A28F" d="M465.258,66.518v-3.463c0.168-2.793,0.201-2.912,4.664-3.677c11.41-1.951,9.742-17.438,9.742-17.438
					s-11.301-0.028-14.766,7.256c0,0-1.5,3.571-1.5,11.421v5.9H465.258z"/>
			</g>
		</g>
	</g>
	<g>
		<g>
			<g>
				<path fill="#F4A28F" d="M830.691,580.428v-9.384c-0.168-2.793-0.201-2.912-4.664-3.677c-11.41-1.951-9.742-17.438-9.742-17.438
					s11.301-0.028,14.766,7.256c0,0,1.5,3.571,1.5,11.421v11.821H830.691z"/>
			</g>
		</g>
		<g>
			<g>
				<path fill="#F4A28F" d="M836.078,580.428v-3.463c0.168-2.793,0.201-2.912,4.664-3.677c11.41-1.951,9.742-17.438,9.742-17.438
					s-11.301-0.028-14.766,7.256c0,0-1.5,3.571-1.5,11.421v5.9H836.078z"/>
			</g>
		</g>
	</g>
	<g>
		<g>
			<g>
				<path fill="#F4A28F" d="M779.383,598.388v-9.384c-0.168-2.793-0.201-2.912-4.664-3.677c-11.412-1.951-9.744-17.438-9.744-17.438
					s11.303-0.028,14.766,7.256c0,0,1.5,3.571,1.5,11.421v11.821H779.383z"/>
			</g>
		</g>
		<g>
			<g>
				<path fill="#F4A28F" d="M784.768,598.388v-3.463c0.17-2.793,0.201-2.912,4.664-3.677c11.412-1.951,9.744-17.438,9.744-17.438
					s-11.303-0.028-14.766,7.256c0,0-1.5,3.571-1.5,11.421v5.9H784.768z"/>
			</g>
		</g>
	</g>
	<path fill="none" stroke="#4AB37F" stroke-width="2" stroke-miterlimit="10" d="M556.092,378.439"/>
	<path fill="none" stroke="#4AB37F" stroke-width="2" stroke-miterlimit="10" d="M169.551,271.444"/>
	<path fill="#F4A28F" d="M167.577,36.752c-1.195,0-2.349,0.185-3.433,0.524c-0.339-5.283-4.267-9.588-9.37-10.506v-0.003
		c-0.74-0.214-2.035-0.181-2.035-0.181c-6.314,0-11.434,5.118-11.434,11.433c0,1.277,0.213,2.505,0.6,3.652
		c-6.283,0.035-11.367,5.139-11.367,11.431c0,6.314,5.118,11.433,11.433,11.433c2.116,0,4.097-0.576,5.796-1.579
		c0.118,0.17,0.241,0.335,0.367,0.497c0.039,0.05,0.08,0.099,0.119,0.147c0.092,0.114,0.186,0.226,0.281,0.336
		c0.045,0.053,0.091,0.104,0.137,0.156c0.102,0.111,0.204,0.22,0.309,0.327c0.041,0.042,0.08,0.084,0.121,0.124
		c0.145,0.146,0.294,0.287,0.447,0.424c0.022,0.021,0.047,0.039,0.068,0.059c0.133,0.116,0.268,0.229,0.404,0.34
		c0.052,0.041,0.104,0.081,0.156,0.121c0.115,0.089,0.23,0.175,0.348,0.259c0.056,0.04,0.111,0.079,0.168,0.118
		c0.131,0.091,0.264,0.177,0.398,0.262c0.041,0.026,0.082,0.053,0.123,0.078c0.177,0.108,0.355,0.211,0.538,0.309
		c0.042,0.023,0.085,0.043,0.128,0.065c0.143,0.074,0.285,0.146,0.432,0.215c0.047,0.021,0.094,0.044,0.141,0.065h-0.092v23.367
		h2.414h2.413V67.871c5.203-0.014,9.587-3.503,10.956-8.269c6.051-0.295,10.867-5.294,10.867-11.418
		C179.01,41.87,173.891,36.752,167.577,36.752z"/>
	<path fill="#F4A28F" d="M799.021,10.167c-1.195,0-2.348,0.185-3.432,0.524c-0.34-5.283-4.268-9.588-9.371-10.506V0.183
		c-0.74-0.214-2.035-0.181-2.035-0.181c-6.314,0-11.434,5.118-11.434,11.433c0,1.277,0.213,2.505,0.6,3.652
		c-6.283,0.035-11.367,5.139-11.367,11.431c0,6.314,5.119,11.433,11.434,11.433c2.115,0,4.096-0.576,5.795-1.579
		c0.119,0.17,0.242,0.335,0.367,0.497c0.039,0.05,0.08,0.099,0.119,0.147c0.092,0.114,0.186,0.226,0.281,0.336
		c0.045,0.053,0.092,0.104,0.137,0.156c0.102,0.111,0.205,0.22,0.309,0.327c0.041,0.042,0.08,0.084,0.121,0.124
		c0.145,0.146,0.295,0.287,0.447,0.424c0.023,0.021,0.047,0.039,0.068,0.059c0.133,0.116,0.268,0.229,0.404,0.34
		c0.053,0.041,0.105,0.081,0.156,0.121c0.115,0.089,0.23,0.175,0.348,0.259c0.057,0.04,0.111,0.079,0.168,0.118
		c0.131,0.091,0.264,0.177,0.398,0.262c0.041,0.026,0.082,0.053,0.123,0.078c0.178,0.108,0.355,0.211,0.539,0.309
		c0.041,0.023,0.084,0.043,0.127,0.065c0.143,0.074,0.285,0.146,0.432,0.215c0.047,0.021,0.094,0.044,0.141,0.065h-0.092v23.367
		h2.414h2.414V41.286c5.203-0.014,9.586-3.503,10.955-8.269c6.051-0.295,10.867-5.294,10.867-11.418
		C810.455,15.285,805.336,10.167,799.021,10.167z"/>
	<path fill="#F4A28F" d="M99.153,13.044c-1.195,0-2.349,0.185-3.433,0.524c-0.339-5.283-4.267-9.588-9.37-10.506V3.06
		c-0.74-0.214-2.035-0.181-2.035-0.181c-6.314,0-11.434,5.118-11.434,11.433c0,1.277,0.213,2.505,0.6,3.652
		c-6.283,0.035-11.367,5.139-11.367,11.431c0,6.314,5.118,11.433,11.433,11.433c2.116,0,4.097-0.576,5.796-1.579
		c0.118,0.17,0.241,0.335,0.367,0.497c0.039,0.05,0.08,0.099,0.119,0.147c0.092,0.114,0.186,0.226,0.281,0.336
		c0.045,0.053,0.091,0.104,0.137,0.156c0.102,0.111,0.204,0.22,0.309,0.327c0.041,0.042,0.08,0.084,0.121,0.124
		c0.145,0.146,0.294,0.287,0.447,0.424c0.022,0.021,0.047,0.039,0.068,0.059c0.133,0.116,0.268,0.229,0.404,0.34
		c0.052,0.041,0.104,0.081,0.156,0.121c0.115,0.089,0.23,0.175,0.348,0.259c0.056,0.04,0.111,0.079,0.168,0.118
		c0.131,0.091,0.264,0.177,0.398,0.262c0.041,0.026,0.082,0.053,0.123,0.078c0.177,0.108,0.355,0.211,0.538,0.309
		c0.042,0.023,0.085,0.043,0.128,0.065c0.143,0.074,0.285,0.146,0.432,0.215c0.047,0.021,0.094,0.044,0.141,0.065h-0.092v23.367
		h2.414h2.413V44.163c5.203-0.014,9.587-3.503,10.956-8.269c6.051-0.295,10.867-5.294,10.867-11.418
		C110.586,18.162,105.467,13.044,99.153,13.044z"/>
	<g>
		<path fill="#F4A28F" d="M797.105,535.147c-1.34,2.875-1.34,11.743-1.361,13.26l0.021,3.441l1.777-0.007l-0.012-3.276
			c0.404-2.794,0.162-2.819,4.506-3.584c11.018-1.957,9.314-16.94,9.314-16.94S800.41,528.081,797.105,535.147z"/>
		<path fill="#F4A28F" d="M794.062,539.939v0.002c-0.002-0.1-0.008-0.215-0.012-0.319c-0.004-0.137-0.01-0.277-0.014-0.419
			c-0.018-0.459-0.039-0.938-0.066-1.438c-0.002-0.097-0.01-0.19-0.014-0.288c-0.012-0.225-0.027-0.449-0.041-0.679
			c-0.018-0.24-0.033-0.481-0.053-0.725c-0.012-0.175-0.023-0.346-0.037-0.521c-0.037-0.427-0.076-0.852-0.121-1.271
			c-0.008-0.089-0.02-0.173-0.029-0.262c-0.041-0.382-0.09-0.757-0.143-1.123c-0.01-0.078-0.02-0.154-0.031-0.23
			c-0.064-0.433-0.135-0.85-0.215-1.238c-0.004-0.017-0.008-0.032-0.01-0.05c-0.074-0.356-0.152-0.684-0.242-0.989
			c-0.02-0.07-0.041-0.14-0.061-0.208c-0.096-0.31-0.195-0.599-0.309-0.836c-3.359-7.047-14.309-7.002-14.309-7.002
			s-1.594,14.991,9.455,16.874c4.33,0.737,4.102,0.76,4.527,3.551l0.033,9.092l1.789-0.011l-0.043-9.256
			C794.113,542.176,794.1,541.191,794.062,539.939z"/>
		<path fill="#F4A28F" d="M795.744,524.317c4.338,0,7.854-4.02,7.854-8.979v-11.115l-7.854,5.994l-7.855-5.994v11.115
			C787.889,520.297,791.412,524.317,795.744,524.317z"/>
	</g>
	<g>
		<path fill="#F4A28F" d="M839.625,69.424c-1.34,2.875-1.34,11.743-1.363,13.26l0.023,3.441l1.777-0.007l-0.014-3.276
			c0.406-2.794,0.164-2.819,4.506-3.584c11.018-1.957,9.316-16.94,9.316-16.94S842.93,62.358,839.625,69.424z"/>
		<path fill="#F4A28F" d="M836.582,74.216v0.002c-0.002-0.1-0.008-0.215-0.012-0.319c-0.004-0.137-0.01-0.277-0.014-0.419
			c-0.018-0.459-0.039-0.938-0.066-1.438c-0.004-0.097-0.01-0.19-0.014-0.288c-0.014-0.225-0.027-0.449-0.041-0.679
			c-0.018-0.24-0.035-0.481-0.053-0.725c-0.012-0.175-0.023-0.346-0.037-0.521c-0.037-0.427-0.076-0.852-0.121-1.271
			c-0.01-0.089-0.02-0.173-0.029-0.262c-0.043-0.382-0.09-0.757-0.143-1.123c-0.01-0.078-0.02-0.154-0.033-0.23
			c-0.064-0.433-0.135-0.85-0.213-1.238c-0.004-0.017-0.008-0.032-0.01-0.05c-0.074-0.356-0.154-0.684-0.242-0.989
			c-0.02-0.07-0.041-0.14-0.061-0.208c-0.096-0.31-0.195-0.599-0.309-0.836c-3.359-7.047-14.311-7.002-14.311-7.002
			s-1.592,14.991,9.455,16.874c4.33,0.737,4.104,0.76,4.529,3.551l0.031,9.092l1.789-0.011l-0.043-9.256
			C836.631,76.454,836.619,75.468,836.582,74.216z"/>
		<path fill="#F4A28F" d="M838.262,58.594c4.34,0,7.854-4.02,7.854-8.979V38.5l-7.854,5.994l-7.854-5.994v11.115
			C830.408,54.575,833.93,58.594,838.262,58.594z"/>
	</g>
	<g>
		<path fill="#F4A28F" d="M18.829,81.907c-1.34,2.875-1.34,11.743-1.362,13.26l0.022,3.441l1.777-0.007l-0.013-3.276
			c0.405-2.794,0.163-2.819,4.506-3.584c11.018-1.957,9.315-16.94,9.315-16.94S22.133,74.841,18.829,81.907z"/>
		<path fill="#F4A28F" d="M15.786,86.699v0.002c-0.002-0.1-0.008-0.215-0.012-0.319c-0.004-0.137-0.01-0.277-0.014-0.419
			c-0.018-0.459-0.039-0.938-0.066-1.438c-0.003-0.097-0.01-0.19-0.014-0.288c-0.013-0.225-0.027-0.449-0.041-0.679
			c-0.018-0.24-0.034-0.481-0.053-0.725c-0.012-0.175-0.023-0.346-0.037-0.521c-0.037-0.427-0.076-0.852-0.121-1.271
			c-0.009-0.089-0.02-0.173-0.029-0.262c-0.042-0.382-0.09-0.757-0.143-1.123c-0.01-0.078-0.02-0.154-0.032-0.23
			c-0.064-0.433-0.135-0.85-0.214-1.238c-0.004-0.017-0.008-0.032-0.01-0.05c-0.074-0.356-0.153-0.684-0.242-0.989
			c-0.02-0.07-0.041-0.14-0.061-0.208c-0.096-0.31-0.195-0.599-0.309-0.836c-3.359-7.047-14.31-7.002-14.31-7.002
			s-1.593,14.991,9.455,16.874c4.33,0.737,4.103,0.76,4.528,3.551l0.032,9.092l1.789-0.011l-0.043-9.256
			C15.835,88.937,15.823,87.951,15.786,86.699z"/>
		<path fill="#F4A28F" d="M17.466,71.077c4.339,0,7.854-4.02,7.854-8.979V50.983l-7.854,5.994l-7.854-5.994v11.115
			C9.612,67.058,13.134,71.077,17.466,71.077z"/>
	</g>
	<g>
		<path fill="#F4A28F" d="M43.685,545.404c-1.34,2.875-1.34,11.743-1.363,13.26l0.023,3.441l1.777-0.007l-0.014-3.276
			c0.406-2.794,0.164-2.819,4.506-3.584c11.018-1.957,9.316-16.94,9.316-16.94S46.989,538.337,43.685,545.404z"/>
		<path fill="#F4A28F" d="M40.642,550.196v0.002c-0.003-0.1-0.008-0.215-0.012-0.319c-0.004-0.137-0.01-0.277-0.014-0.419
			c-0.018-0.459-0.039-0.938-0.066-1.438c-0.004-0.097-0.01-0.19-0.014-0.288c-0.014-0.225-0.028-0.449-0.042-0.679
			c-0.017-0.24-0.034-0.481-0.052-0.725c-0.013-0.175-0.024-0.346-0.038-0.521c-0.036-0.427-0.075-0.852-0.12-1.271
			c-0.01-0.089-0.021-0.173-0.029-0.262c-0.043-0.382-0.091-0.757-0.143-1.123c-0.011-0.078-0.02-0.154-0.033-0.23
			c-0.064-0.433-0.135-0.85-0.213-1.238c-0.004-0.017-0.008-0.032-0.01-0.05c-0.074-0.356-0.154-0.684-0.242-0.989
			c-0.02-0.07-0.041-0.14-0.061-0.208c-0.097-0.31-0.195-0.599-0.309-0.836c-3.36-7.047-14.311-7.002-14.311-7.002
			s-1.593,14.991,9.455,16.874c4.33,0.737,4.104,0.76,4.528,3.551l0.032,9.092l1.789-0.011l-0.043-9.256
			C40.691,552.433,40.679,551.448,40.642,550.196z"/>
		<path fill="#F4A28F" d="M42.322,534.574c4.34,0,7.854-4.02,7.854-8.979V514.48l-7.854,5.994l-7.854-5.994v11.115
			C34.468,530.554,37.99,534.574,42.322,534.574z"/>
	</g>
	<g>
		<path fill="#F4A28F" d="M85.031,568.668c-1.34,2.875-1.34,11.743-1.363,13.26l0.023,3.441l1.777-0.007l-0.014-3.276
			c0.406-2.794,0.164-2.819,4.506-3.584c11.018-1.957,9.316-16.94,9.316-16.94S88.334,561.602,85.031,568.668z"/>
		<path fill="#F4A28F" d="M81.988,573.46v0.002c-0.003-0.1-0.008-0.215-0.012-0.319c-0.004-0.137-0.01-0.277-0.014-0.419
			c-0.018-0.459-0.039-0.938-0.066-1.438c-0.004-0.097-0.01-0.19-0.014-0.288c-0.014-0.225-0.028-0.449-0.042-0.679
			c-0.017-0.24-0.034-0.481-0.052-0.725c-0.013-0.175-0.024-0.346-0.038-0.521c-0.036-0.427-0.075-0.852-0.12-1.271
			c-0.01-0.089-0.021-0.173-0.029-0.262c-0.043-0.382-0.091-0.757-0.143-1.123c-0.011-0.078-0.02-0.154-0.033-0.23
			c-0.064-0.433-0.135-0.85-0.213-1.238c-0.004-0.017-0.008-0.032-0.01-0.05c-0.074-0.356-0.154-0.684-0.242-0.989
			c-0.02-0.07-0.041-0.14-0.061-0.208c-0.097-0.31-0.195-0.599-0.309-0.836c-3.36-7.047-14.311-7.002-14.311-7.002
			s-1.593,14.991,9.455,16.874c4.33,0.737,4.104,0.76,4.528,3.551l0.032,9.092l1.789-0.011l-0.043-9.256
			C82.037,575.698,82.025,574.712,81.988,573.46z"/>
		<path fill="#F4A28F" d="M83.667,557.838c4.34,0,7.854-4.02,7.854-8.979v-11.115l-7.854,5.994l-7.854-5.994v11.115
			C75.814,553.819,79.335,557.838,83.667,557.838z"/>
	</g>
	<g>
		<circle fill="#FFFFFF" cx="42.803" cy="288.75" r="11.493"/>
		
			<path fill="none" stroke="#FFFFFF" stroke-width="3.0909" stroke-linecap="round" stroke-linejoin="round" stroke-miterlimit="10" stroke-dasharray="12.3578" d="
			M816.52,255.207C770.992,119.081,637.936,143.085,527.123,154.33c-148.01,15.019-186.512-30.727-301.781-30.538
			C67.186,124.049,44.241,261.885,44.241,261.885C32.748,388.91,91.422,433.207,174.624,444.677c0,0,167.462,5.669,225.615,37.669
			c137.074,75.431,302.531,26.556,369.725-28.679C865.912,374.794,816.52,255.207,816.52,255.207z"/>
		<g>
			
				<polyline fill="none" stroke="#EB8E7C" stroke-width="4" stroke-linecap="round" stroke-linejoin="round" stroke-miterlimit="10" points="
				170.747,123.791 178.178,128.159 173.811,135.589 			"/>
			<path fill="none" stroke="#EB8E7C" stroke-width="4" stroke-linecap="round" stroke-linejoin="round" stroke-miterlimit="10" d="
				M177.772,128.554c0,0-18.357,2.567-36.256,12.054"/>
		</g>
		<g>
			
				<polyline fill="none" stroke="#EB8E7C" stroke-width="4" stroke-linecap="round" stroke-linejoin="round" stroke-miterlimit="10" points="
				539.775,158.975 544.941,152.077 538.041,146.911 			"/>
			<path fill="none" stroke="#EB8E7C" stroke-width="4" stroke-linecap="round" stroke-linejoin="round" stroke-miterlimit="10" d="
				M544.416,151.87c0,0-19.051,4.248-38.1,4.229"/>
		</g>
		<g>
			
				<polyline fill="none" stroke="#EB8E7C" stroke-width="4" stroke-linecap="round" stroke-linejoin="round" stroke-miterlimit="10" points="
				317.627,452.543 310.834,457.849 316.141,464.641 			"/>
			<path fill="none" stroke="#EB8E7C" stroke-width="4" stroke-linecap="round" stroke-linejoin="round" stroke-miterlimit="10" d="
				M311.289,458.188c0,0,18.537,0.134,37.525,7.188"/>
		</g>
		<g>
			
				<polyline fill="none" stroke="#EB8E7C" stroke-width="4" stroke-linecap="round" stroke-linejoin="round" stroke-miterlimit="10" points="
				767.361,463.442 758.816,462.3 759.953,453.759 			"/>
			<path fill="none" stroke="#EB8E7C" stroke-width="4" stroke-linecap="round" stroke-linejoin="round" stroke-miterlimit="10" d="
				M759.037,461.78c0,0,15.918-9.496,28.729-25.189"/>
		</g>
	</g>
</g>
</svg>
