<?xml version="1.0" encoding="utf-8"?>
<!-- Generator: Adobe Illustrator 15.0.2, SVG Export Plug-In . SVG Version: 6.00 Build 0)  -->
<!DOCTYPE svg PUBLIC "-//W3C//DTD SVG 1.1//EN" "http://www.w3.org/Graphics/SVG/1.1/DTD/svg11.dtd">
<svg version="1.1" id="Lager_1" xmlns="http://www.w3.org/2000/svg" xmlns:xlink="http://www.w3.org/1999/xlink" x="0px" y="0px"
	 width="870.012px" height="555.66px" viewBox="0 0 870.012 555.66" enable-background="new 0 0 870.012 555.66"
	 xml:space="preserve">
<g>
	<g>
		<g>
			<g>
				<path fill="#4AB37F" d="M791.968,72.239v-9.384c-0.168-2.793-0.201-2.912-4.664-3.677c-11.411-1.951-9.742-17.438-9.742-17.438
					s11.301-0.028,14.765,7.256c0,0,1.5,3.571,1.5,11.421v11.821L791.968,72.239L791.968,72.239z"/>
			</g>
		</g>
		<g>
			<g>
				<path fill="#4AB37F" d="M797.353,72.239v-3.463c0.169-2.793,0.201-2.912,4.664-3.677c11.411-1.951,9.743-17.438,9.743-17.438
					s-11.303-0.028-14.767,7.256c0,0-1.5,3.571-1.5,11.421v5.9L797.353,72.239L797.353,72.239z"/>
			</g>
		</g>
	</g>
	<g>
		<g>
			<g>
				<path fill="#4AB37F" d="M64.765,528.215v-9.385c-0.168-2.793-0.201-2.911-4.664-3.677c-11.411-1.951-9.742-17.438-9.742-17.438
					s11.301-0.028,14.765,7.256c0,0,1.5,3.571,1.5,11.421v11.821L64.765,528.215L64.765,528.215z"/>
			</g>
		</g>
		<g>
			<g>
				<path fill="#4AB37F" d="M70.151,528.215v-3.463c0.169-2.794,0.201-2.912,4.664-3.678c11.411-1.951,9.743-17.438,9.743-17.438
					s-11.303-0.028-14.767,7.256c0,0-1.5,3.571-1.5,11.421v5.9L70.151,528.215L70.151,528.215z"/>
			</g>
		</g>
	</g>
	<g>
		<g>
			<g>
				<path fill="#4AB37F" d="M749.265,97.125v-9.384c-0.168-2.793-0.201-2.912-4.664-3.677c-11.411-1.951-9.743-17.438-9.743-17.438
					s11.302-0.027,14.766,7.256c0,0,1.5,3.571,1.5,11.422v11.82L749.265,97.125L749.265,97.125z"/>
			</g>
		</g>
		<g>
			<g>
				<path fill="#4AB37F" d="M754.651,97.125v-3.463c0.169-2.793,0.201-2.912,4.664-3.677c11.411-1.951,9.743-17.438,9.743-17.438
					s-11.302-0.027-14.767,7.257c0,0-1.5,3.57-1.5,11.421v5.899L754.651,97.125L754.651,97.125z"/>
			</g>
		</g>
	</g>
	<g>
		<g>
			<g>
				<path fill="#4AB37F" d="M152.6,76.205v-9.384c-0.168-2.793-0.201-2.912-4.664-3.677c-11.411-1.951-9.742-17.438-9.742-17.438
					s11.301-0.027,14.765,7.256c0,0,1.5,3.571,1.5,11.421v11.821L152.6,76.205L152.6,76.205z"/>
			</g>
		</g>
		<g>
			<g>
				<path fill="#4AB37F" d="M157.986,76.205v-3.463c0.169-2.793,0.201-2.912,4.664-3.677c11.411-1.951,9.743-17.438,9.743-17.438
					s-11.303-0.027-14.767,7.256c0,0-1.5,3.571-1.5,11.422v5.899L157.986,76.205L157.986,76.205z"/>
			</g>
		</g>
	</g>
	<g>
		<g>
			<g>
				<path fill="#4AB37F" d="M101.291,94.165v-9.384c-0.168-2.793-0.201-2.912-4.664-3.677c-11.411-1.951-9.743-17.438-9.743-17.438
					s11.303-0.027,14.767,7.256c0,0,1.5,3.571,1.5,11.422v11.82L101.291,94.165L101.291,94.165z"/>
			</g>
		</g>
		<g>
			<g>
				<path fill="#4AB37F" d="M106.676,94.165v-3.463c0.17-2.793,0.201-2.912,4.664-3.677c11.411-1.951,9.743-17.438,9.743-17.438
					s-11.302-0.027-14.766,7.257c0,0-1.5,3.57-1.5,11.421v5.899L106.676,94.165L106.676,94.165z"/>
			</g>
		</g>
	</g>
	<g>
		<path fill="#4AB37F" d="M119.014,30.924c-1.34,2.875-1.34,11.743-1.362,13.261l0.022,3.44l1.777-0.007l-0.013-3.276
			c0.405-2.794,0.163-2.818,4.506-3.584c11.018-1.956,9.316-16.939,9.316-16.939S122.318,23.857,119.014,30.924z"/>
		<path fill="#4AB37F" d="M115.971,35.716v0.003c-0.002-0.101-0.008-0.216-0.013-0.319c-0.003-0.137-0.009-0.277-0.014-0.419
			c-0.017-0.459-0.039-0.938-0.066-1.438c-0.003-0.097-0.01-0.189-0.014-0.288c-0.013-0.225-0.028-0.448-0.042-0.679
			c-0.017-0.24-0.034-0.48-0.052-0.725c-0.013-0.176-0.024-0.347-0.038-0.521c-0.036-0.427-0.076-0.852-0.12-1.271
			c-0.009-0.089-0.021-0.173-0.029-0.263c-0.042-0.382-0.091-0.757-0.143-1.123c-0.01-0.077-0.021-0.153-0.032-0.229
			c-0.063-0.433-0.135-0.85-0.213-1.238c-0.004-0.017-0.008-0.032-0.01-0.05c-0.074-0.356-0.153-0.684-0.242-0.989
			c-0.02-0.069-0.041-0.14-0.061-0.208c-0.097-0.31-0.194-0.599-0.309-0.836c-3.36-7.047-14.31-7.002-14.31-7.002
			s-1.594,14.991,9.455,16.874c4.329,0.737,4.103,0.76,4.527,3.551l0.033,9.093l1.789-0.012l-0.043-9.256
			C116.021,37.953,116.008,36.969,115.971,35.716z"/>
		<path fill="#4AB37F" d="M117.652,20.094c4.339,0,7.854-4.021,7.854-8.979V0l-7.854,5.994L109.797,0v11.115
			C109.797,16.074,113.32,20.094,117.652,20.094z"/>
	</g>
	<g>
		<path fill="#4AB37F" d="M24.653,538.948c-1.34,2.875-1.34,11.743-1.362,13.261l0.022,3.44l1.776-0.007l-0.013-3.276
			c0.405-2.794,0.163-2.818,4.506-3.584c11.019-1.957,9.315-16.939,9.315-16.939S27.958,531.883,24.653,538.948z"/>
		<path fill="#4AB37F" d="M21.61,543.74v0.002c-0.002-0.1-0.008-0.215-0.012-0.318c-0.004-0.138-0.011-0.277-0.015-0.419
			c-0.018-0.459-0.039-0.938-0.065-1.438c-0.003-0.097-0.011-0.189-0.015-0.288c-0.013-0.225-0.026-0.449-0.041-0.679
			c-0.018-0.24-0.033-0.481-0.053-0.725c-0.012-0.176-0.022-0.347-0.037-0.521c-0.037-0.427-0.076-0.852-0.121-1.271
			c-0.009-0.089-0.02-0.173-0.028-0.262c-0.042-0.382-0.091-0.757-0.144-1.123c-0.01-0.078-0.02-0.153-0.032-0.229
			c-0.063-0.434-0.135-0.851-0.214-1.238c-0.004-0.017-0.008-0.032-0.01-0.05c-0.074-0.356-0.153-0.685-0.242-0.989
			c-0.02-0.07-0.041-0.14-0.061-0.208c-0.097-0.31-0.195-0.599-0.31-0.836c-3.358-7.047-14.31-7.002-14.31-7.002
			s-1.593,14.991,9.455,16.874c4.33,0.737,4.103,0.76,4.527,3.551l0.032,9.092l1.789-0.011l-0.043-9.256
			C21.66,545.978,21.647,544.992,21.61,543.74z"/>
		<path fill="#4AB37F" d="M23.291,528.118c4.339,0,7.854-4.02,7.854-8.979v-11.115l-7.854,5.994l-7.854-5.994v11.115
			C15.436,524.099,18.958,528.118,23.291,528.118z"/>
	</g>
	<g>
		<path fill="#4AB37F" d="M814.325,504.709c-1.34,2.875-1.34,11.742-1.362,13.26l0.022,3.44l1.777-0.007l-0.014-3.275
			c0.405-2.795,0.163-2.819,4.506-3.584c11.018-1.957,9.315-16.94,9.315-16.94S817.629,497.642,814.325,504.709z"/>
		<path fill="#4AB37F" d="M811.282,509.5v0.003c-0.003-0.101-0.008-0.216-0.012-0.319c-0.004-0.137-0.01-0.277-0.014-0.419
			c-0.019-0.459-0.039-0.938-0.066-1.438c-0.004-0.097-0.01-0.189-0.014-0.288c-0.015-0.225-0.028-0.448-0.042-0.679
			c-0.018-0.24-0.034-0.48-0.052-0.725c-0.014-0.175-0.024-0.347-0.038-0.521c-0.036-0.427-0.075-0.852-0.12-1.271
			c-0.011-0.089-0.021-0.173-0.029-0.263c-0.043-0.382-0.091-0.757-0.143-1.122c-0.012-0.078-0.021-0.154-0.033-0.23
			c-0.064-0.433-0.135-0.85-0.213-1.238c-0.004-0.017-0.009-0.032-0.011-0.05c-0.073-0.355-0.153-0.684-0.241-0.989
			c-0.021-0.069-0.041-0.14-0.062-0.208c-0.097-0.31-0.195-0.599-0.309-0.836c-3.36-7.047-14.312-7.002-14.312-7.002
			s-1.593,14.991,9.455,16.874c4.33,0.737,4.104,0.76,4.528,3.551l0.032,9.093l1.789-0.012l-0.043-9.256
			C811.331,511.737,811.319,510.753,811.282,509.5z"/>
		<path fill="#4AB37F" d="M812.962,493.879c4.34,0,7.854-4.021,7.854-8.979v-11.115l-7.854,5.994l-7.854-5.994v11.115
			C805.108,489.858,808.63,493.879,812.962,493.879z"/>
	</g>
	<g>
		<path fill="#4AB37F" d="M855.671,527.973c-1.341,2.875-1.341,11.743-1.363,13.26l0.022,3.441l1.777-0.007l-0.014-3.276
			c0.405-2.794,0.164-2.819,4.506-3.584c11.018-1.957,9.315-16.94,9.315-16.94S858.974,520.906,855.671,527.973z"/>
		<path fill="#4AB37F" d="M852.628,532.765v0.002c-0.004-0.1-0.009-0.215-0.013-0.319c-0.004-0.137-0.01-0.276-0.014-0.419
			c-0.019-0.459-0.039-0.938-0.066-1.438c-0.004-0.098-0.01-0.19-0.014-0.288c-0.014-0.226-0.028-0.449-0.042-0.679
			c-0.017-0.24-0.034-0.481-0.052-0.726c-0.013-0.175-0.024-0.346-0.038-0.521c-0.036-0.428-0.075-0.853-0.12-1.271
			c-0.01-0.089-0.021-0.173-0.029-0.262c-0.043-0.382-0.091-0.757-0.143-1.123c-0.011-0.078-0.021-0.154-0.033-0.23
			c-0.063-0.433-0.135-0.85-0.213-1.237c-0.004-0.018-0.008-0.032-0.01-0.05c-0.074-0.356-0.154-0.685-0.242-0.989
			c-0.021-0.07-0.041-0.141-0.062-0.208c-0.097-0.311-0.194-0.6-0.309-0.836c-3.36-7.047-14.311-7.002-14.311-7.002
			s-1.594,14.99,9.455,16.874c4.329,0.736,4.104,0.76,4.527,3.551l0.032,9.092l1.789-0.011l-0.043-9.256
			C852.677,535.003,852.665,534.017,852.628,532.765z"/>
		<path fill="#4AB37F" d="M854.307,517.143c4.34,0,7.854-4.021,7.854-8.979V497.05l-7.854,5.994l-7.854-5.994v11.114
			C846.454,513.123,849.975,517.143,854.307,517.143z"/>
	</g>
	<path fill="none" stroke="#4AB37F" stroke-width="2" stroke-miterlimit="10" d="M576.128,330.321"/>
	<path fill="none" stroke="#4AB37F" stroke-width="2" stroke-miterlimit="10" d="M189.586,223.326"/>
	<g>
		<path fill="#4AB37F" d="M606.854,490.351c-1.342,0-2.714-0.039-4.079-0.116c-0.827-0.046-1.46-0.754-1.413-1.581
			s0.77-1.468,1.581-1.413c4.083,0.229,8.101,0.1,11.71-0.384c0.816-0.11,1.575,0.467,1.686,1.287
			c0.109,0.821-0.467,1.575-1.287,1.686C612.469,490.176,609.711,490.351,606.854,490.351z M630.636,489.309
			c-1.357,0-2.698-0.029-3.986-0.087c-0.828-0.037-1.469-0.737-1.432-1.564s0.741-1.469,1.564-1.432
			c3.698,0.165,7.759,0.083,11.826-0.24c0.836-0.062,1.549,0.55,1.614,1.376s-0.551,1.549-1.376,1.614
			C636.068,489.197,633.306,489.309,630.636,489.309z M590.962,488.655c-0.101,0-0.203-0.011-0.306-0.031
			c-3.866-0.799-7.822-1.885-11.757-3.228c-0.783-0.268-1.202-1.119-0.935-1.903c0.268-0.783,1.12-1.202,1.903-0.935
			c3.816,1.302,7.65,2.354,11.396,3.128c0.811,0.168,1.332,0.961,1.165,1.772C592.282,488.167,591.658,488.655,590.962,488.655z
			 M650.635,487.384c-0.707,0-1.336-0.503-1.472-1.223c-0.153-0.813,0.383-1.598,1.196-1.751c3.85-0.725,7.729-1.661,11.531-2.786
			c0.789-0.227,1.628,0.219,1.863,1.014c0.234,0.794-0.219,1.628-1.014,1.863c-3.898,1.152-7.878,2.113-11.826,2.856
			C650.821,487.375,650.727,487.384,650.635,487.384z M568.253,480.98c-0.212,0-0.428-0.045-0.633-0.141
			c-3.564-1.663-7.182-3.563-10.751-5.648c-0.715-0.418-0.956-1.336-0.538-2.052c0.418-0.715,1.336-0.955,2.052-0.538
			c3.489,2.039,7.023,3.896,10.505,5.52c0.751,0.351,1.075,1.243,0.726,1.993C569.358,480.66,568.817,480.98,568.253,480.98z
			 M673.651,480.591c-0.592,0-1.152-0.354-1.39-0.936c-0.312-0.768,0.058-1.643,0.825-1.954c3.63-1.474,7.252-3.153,10.767-4.989
			c0.733-0.385,1.64-0.101,2.023,0.635c0.384,0.733,0.1,1.64-0.635,2.023c-3.599,1.881-7.309,3.6-11.026,5.11
			C674.031,480.555,673.84,480.591,673.651,480.591z M694.924,469.494c-0.492,0-0.975-0.242-1.261-0.688
			c-0.449-0.695-0.249-1.624,0.447-2.072c3.278-2.115,6.538-4.428,9.688-6.871c0.654-0.507,1.595-0.389,2.104,0.266
			c0.508,0.654,0.389,1.596-0.266,2.104c-3.217,2.497-6.548,4.859-9.9,7.021C695.484,469.416,695.203,469.494,694.924,469.494z
			 M269.832,469.021c-1.85,0-3.758-0.038-5.672-0.111c-0.827-0.031-1.473-0.728-1.441-1.556c0.032-0.827,0.713-1.476,1.556-1.44
			c4.07,0.154,8.033,0.143,11.88-0.041c0.841-0.036,1.529,0.601,1.569,1.427c0.039,0.827-0.6,1.529-1.427,1.569
			C274.176,468.969,272,469.021,269.832,469.021z M547.518,468.915c-0.297,0-0.596-0.088-0.857-0.271
			c-3.227-2.252-6.483-4.702-9.68-7.281c-0.644-0.521-0.744-1.465-0.225-2.108c0.521-0.646,1.465-0.746,2.109-0.226
			c3.142,2.536,6.342,4.944,9.512,7.156c0.679,0.474,0.846,1.408,0.371,2.088C548.458,468.691,547.992,468.915,547.518,468.915z
			 M252.241,467.99c-0.057,0-0.114-0.004-0.171-0.01c-3.62-0.411-7.354-0.95-11.1-1.604c-0.164-0.029-0.322-0.085-0.468-0.165
			c0,0-0.282-0.156-0.817-0.467c-0.716-0.416-0.959-1.334-0.543-2.051c0.416-0.716,1.333-0.958,2.05-0.543
			c0.236,0.138,0.419,0.242,0.547,0.314c3.603,0.624,7.19,1.14,10.669,1.534c0.823,0.094,1.415,0.836,1.321,1.659
			C253.643,467.425,252.994,467.99,252.241,467.99z M288.172,467.718c-0.731,0-1.371-0.535-1.481-1.28
			c-0.122-0.818,0.444-1.581,1.263-1.703c3.976-0.59,7.873-1.396,11.583-2.394c0.802-0.215,1.623,0.26,1.838,1.059
			c0.215,0.8-0.259,1.623-1.059,1.838c-3.822,1.027-7.833,1.856-11.922,2.464C288.32,467.712,288.245,467.718,288.172,467.718z
			 M311.292,461.435c-0.588,0-1.146-0.348-1.385-0.925c-0.318-0.765,0.044-1.642,0.809-1.96c3.683-1.53,7.225-3.312,10.526-5.292
			c0.712-0.426,1.632-0.195,2.058,0.515s0.195,1.632-0.515,2.058c-3.427,2.056-7.101,3.902-10.918,5.489
			C311.678,461.398,311.484,461.435,311.292,461.435z M230.252,459.48c-0.29,0-0.582-0.084-0.839-0.259
			c-3.25-2.201-6.567-4.567-9.86-7.034c-0.663-0.496-0.798-1.437-0.301-2.1c0.497-0.661,1.437-0.797,2.099-0.301
			c3.255,2.438,6.534,4.777,9.744,6.952c0.686,0.464,0.865,1.396,0.401,2.082C231.205,459.249,230.733,459.48,230.252,459.48z
			 M713.89,454.802c-0.405,0-0.81-0.164-1.105-0.487c-0.56-0.61-0.519-1.559,0.093-2.118c2.874-2.633,5.719-5.447,8.455-8.363
			c0.568-0.604,1.516-0.634,2.12-0.067c0.604,0.567,0.634,1.516,0.067,2.12c-2.789,2.971-5.688,5.838-8.617,8.521
			C714.616,454.672,714.253,454.802,713.89,454.802z M528.817,453.87c-0.361,0-0.724-0.13-1.011-0.393
			c-2.9-2.646-5.829-5.469-8.703-8.389c-0.581-0.59-0.574-1.539,0.017-2.12c0.591-0.582,1.54-0.574,2.12,0.017
			c2.838,2.882,5.727,5.666,8.588,8.277c0.611,0.558,0.655,1.507,0.097,2.118C529.629,453.705,529.223,453.87,528.817,453.87z
			 M331.783,449.071c-0.426,0-0.849-0.181-1.146-0.531c-0.535-0.633-0.456-1.579,0.177-2.113c3.084-2.609,5.856-5.417,8.24-8.346
			c0.522-0.643,1.467-0.74,2.11-0.217c0.642,0.522,0.739,1.467,0.216,2.109c-2.5,3.073-5.404,6.015-8.63,8.742
			C332.469,448.954,332.125,449.071,331.783,449.071z M210.978,445.061c-0.334,0-0.671-0.111-0.95-0.341
			c-3.113-2.552-6.204-5.2-9.187-7.871c-0.617-0.553-0.669-1.5-0.117-2.117c0.551-0.617,1.5-0.669,2.117-0.117
			c2.951,2.642,6.009,5.262,9.088,7.787c0.641,0.524,0.734,1.47,0.209,2.11C211.842,444.874,211.411,445.061,210.978,445.061z
			 M730.326,437.319c-0.333,0-0.668-0.11-0.946-0.338c-0.643-0.523-0.738-1.468-0.215-2.109c2.46-3.018,4.891-6.204,7.223-9.471
			c0.482-0.673,1.419-0.829,2.092-0.349c0.675,0.481,0.83,1.418,0.35,2.092c-2.37,3.318-4.839,6.556-7.34,9.622
			C731.193,437.131,730.761,437.319,730.326,437.319z M511.954,436.78c-0.411,0-0.82-0.169-1.117-0.499
			c-2.619-2.924-5.265-6.007-7.861-9.161c-0.526-0.64-0.435-1.585,0.205-2.111c0.64-0.525,1.585-0.435,2.111,0.205
			c2.569,3.123,5.187,6.173,7.779,9.065c0.553,0.617,0.5,1.565-0.116,2.118C512.669,436.653,512.31,436.78,511.954,436.78z
			 M347.169,430.713c-0.32,0-0.643-0.103-0.916-0.313c-0.656-0.506-0.776-1.448-0.27-2.104c2.403-3.111,5.076-6.213,7.945-9.219
			c0.573-0.599,1.521-0.621,2.12-0.05c0.599,0.572,0.622,1.521,0.05,2.12c-2.797,2.931-5.402,5.953-7.742,8.982
			C348.061,430.511,347.617,430.713,347.169,430.713z M193.056,429.011c-0.378,0-0.757-0.143-1.049-0.428
			c-2.887-2.825-5.73-5.737-8.452-8.656c-0.565-0.605-0.532-1.555,0.074-2.119c0.604-0.565,1.554-0.532,2.119,0.074
			c2.69,2.885,5.502,5.765,8.356,8.557c0.592,0.58,0.602,1.529,0.023,2.121C193.834,428.86,193.445,429.011,193.056,429.011z
			 M496.678,418.252c-0.452,0-0.898-0.204-1.193-0.591c-2.388-3.131-4.792-6.399-7.147-9.715c-0.479-0.675-0.321-1.611,0.354-2.091
			c0.675-0.478,1.609-0.322,2.091,0.354c2.336,3.288,4.72,6.529,7.087,9.633c0.502,0.658,0.375,1.6-0.283,2.102
			C497.315,418.151,496.996,418.252,496.678,418.252z M744.293,417.801c-0.273,0-0.55-0.075-0.798-0.231
			c-0.701-0.44-0.911-1.367-0.47-2.067c2.06-3.271,4.089-6.693,6.034-10.173l0.153-0.391c0.302-0.772,1.174-1.151,1.943-0.85
			c0.771,0.302,1.151,1.172,0.85,1.943l-0.194,0.491c-0.024,0.062-0.053,0.122-0.085,0.18c-1.985,3.556-4.059,7.054-6.164,10.396
			C745.278,417.552,744.791,417.801,744.293,417.801z M363.7,413.312c-0.417,0-0.833-0.174-1.13-0.514
			c-0.545-0.623-0.481-1.57,0.143-2.115c3.01-2.631,6.198-5.186,9.475-7.595c0.667-0.492,1.605-0.348,2.096,0.319
			c0.491,0.668,0.348,1.606-0.32,2.097c-3.209,2.359-6.331,4.862-9.277,7.437C364.402,413.19,364.051,413.312,363.7,413.312z
			 M176.663,411.418c-0.426,0-0.849-0.181-1.146-0.531c-2.614-3.088-5.166-6.259-7.584-9.426c-0.502-0.658-0.376-1.6,0.282-2.102
			c0.658-0.503,1.599-0.377,2.102,0.281c2.388,3.127,4.908,6.259,7.49,9.309c0.535,0.632,0.457,1.578-0.176,2.113
			C177.349,411.301,177.005,411.418,176.663,411.418z M383.048,399.077c-0.503,0-0.995-0.254-1.278-0.714
			c-0.434-0.705-0.215-1.629,0.491-2.062c3.464-2.134,7.029-4.129,10.595-5.931c0.738-0.372,1.642-0.076,2.015,0.663
			c0.374,0.739,0.077,1.641-0.663,2.015c-3.491,1.763-6.981,3.717-10.375,5.807C383.588,399.005,383.316,399.077,383.048,399.077z
			 M482.403,398.941c-0.418,0-0.832-0.174-1.129-0.512c-2.604-2.973-5.501-5.611-8.607-7.842c-0.672-0.482-0.826-1.42-0.343-2.093
			s1.418-0.826,2.093-0.343c3.291,2.363,6.357,5.156,9.113,8.301c0.546,0.623,0.483,1.57-0.14,2.116
			C483.106,398.818,482.754,398.941,482.403,398.941z M754.882,395.757c-0.172,0-0.346-0.029-0.517-0.092
			c-0.777-0.286-1.177-1.147-0.892-1.925c1.388-3.779,2.727-7.58,3.98-11.295c0.264-0.785,1.114-1.207,1.9-0.941
			c0.785,0.265,1.206,1.116,0.941,1.9c-1.263,3.74-2.61,7.565-4.006,11.369C756.066,395.381,755.493,395.757,754.882,395.757z
			 M162.086,392.306c-0.479,0-0.95-0.229-1.24-0.654c-2.287-3.351-4.487-6.776-6.542-10.183c-0.428-0.709-0.199-1.631,0.51-2.059
			c0.708-0.43,1.63-0.199,2.059,0.51c2.025,3.358,4.196,6.736,6.451,10.04c0.467,0.685,0.291,1.617-0.394,2.084
			C162.671,392.221,162.377,392.306,162.086,392.306z M404.482,388.279c-0.597,0-1.162-0.359-1.395-0.948
			c-0.305-0.77,0.072-1.642,0.842-1.946c3.842-1.521,7.72-2.835,11.524-3.904c0.795-0.222,1.625,0.24,1.849,1.037
			c0.225,0.798-0.24,1.626-1.038,1.85c-3.705,1.042-7.484,2.323-11.232,3.807C404.852,388.245,404.665,388.279,404.482,388.279z
			 M463.046,385.084c-0.188,0-0.379-0.036-0.564-0.111c-3.518-1.431-7.294-2.503-11.224-3.186c-0.815-0.142-1.362-0.918-1.221-1.734
			c0.142-0.815,0.911-1.36,1.734-1.221c4.141,0.72,8.125,1.851,11.841,3.363c0.767,0.312,1.136,1.187,0.823,1.954
			C464.199,384.731,463.637,385.084,463.046,385.084z M427.59,381.853c-0.727,0-1.365-0.53-1.48-1.271
			c-0.126-0.818,0.434-1.585,1.252-1.711c4.153-0.644,8.251-0.984,12.182-1.013c0.003,0,0.007-0.001,0.011-0.001
			c0.823,0,1.493,0.664,1.499,1.489c0.007,0.828-0.66,1.504-1.488,1.511c-3.784,0.027-7.735,0.356-11.744,0.977
			C427.743,381.847,427.666,381.853,427.59,381.853z M762.554,372.988c-0.146,0-0.293-0.021-0.439-0.065
			c-0.792-0.242-1.237-1.081-0.996-1.873c1.18-3.858,2.294-7.728,3.313-11.498c0.216-0.799,1.036-1.276,1.839-1.056
			c0.799,0.216,1.272,1.039,1.056,1.839c-1.027,3.801-2.15,7.701-3.339,11.592C763.79,372.572,763.196,372.988,762.554,372.988z
			 M149.686,371.73c-0.54,0-1.061-0.292-1.329-0.803c-1.882-3.581-3.665-7.243-5.299-10.884c-0.339-0.756-0.001-1.644,0.754-1.982
			c0.755-0.342,1.642-0.001,1.982,0.754c1.609,3.585,3.364,7.19,5.218,10.718c0.385,0.732,0.103,1.64-0.63,2.024
			C150.159,371.675,149.921,371.73,149.686,371.73z M139.862,349.821c-0.608,0-1.18-0.372-1.405-0.976
			c-1.414-3.784-2.711-7.646-3.857-11.476c-0.237-0.793,0.213-1.629,1.007-1.866c0.794-0.239,1.629,0.214,1.866,1.007
			c1.127,3.767,2.403,7.563,3.793,11.286c0.29,0.775-0.104,1.64-0.88,1.93C140.213,349.791,140.035,349.821,139.862,349.821z
			 M768.806,349.791c-0.111,0-0.226-0.013-0.339-0.039c-0.808-0.187-1.31-0.992-1.123-1.799c0.914-3.945,1.742-7.881,2.461-11.696
			c0.153-0.815,0.944-1.348,1.751-1.196c0.814,0.153,1.35,0.938,1.196,1.751c-0.727,3.856-1.563,7.833-2.486,11.817
			C770.106,349.322,769.489,349.791,768.806,349.791z M132.986,326.829c-0.685,0-1.304-0.473-1.461-1.169
			c-0.888-3.926-1.65-7.928-2.263-11.893c-0.126-0.818,0.434-1.585,1.253-1.711c0.817-0.135,1.584,0.435,1.711,1.252
			c0.603,3.897,1.351,7.831,2.224,11.689c0.183,0.808-0.324,1.611-1.131,1.794C133.207,326.816,133.096,326.829,132.986,326.829z
			 M773.237,326.182c-0.069,0-0.14-0.005-0.211-0.015c-0.82-0.116-1.392-0.874-1.276-1.694c0.564-4.009,1.02-7.998,1.354-11.856
			c0.071-0.826,0.807-1.443,1.623-1.365c0.825,0.071,1.437,0.798,1.365,1.623c-0.339,3.912-0.8,7.955-1.371,12.017
			C774.615,325.64,773.972,326.182,773.237,326.182z M129.319,303.123c-0.771,0-1.427-0.592-1.493-1.374
			c-0.337-3.992-0.542-8.061-0.606-12.093c-0.013-0.828,0.647-1.511,1.476-1.523c0.008,0,0.016-0.001,0.024-0.001
			c0.817,0,1.486,0.656,1.499,1.476c0.063,3.965,0.264,7.965,0.596,11.89c0.07,0.825-0.542,1.551-1.368,1.62
			C129.404,303.121,129.361,303.123,129.319,303.123z M775.277,302.253c-0.013,0-0.025-0.001-0.038-0.001
			c-0.828-0.021-1.482-0.709-1.462-1.536c0.038-1.512,0.057-3.007,0.057-4.483c0-2.507-0.055-5.004-0.164-7.423
			c-0.037-0.827,0.604-1.528,1.431-1.565c0.827-0.038,1.528,0.604,1.565,1.431c0.111,2.463,0.168,5.006,0.168,7.558
			c0,1.502-0.021,3.021-0.059,4.558C776.755,301.605,776.088,302.253,775.277,302.253z M128.932,279.121
			c-0.026,0-0.052-0.001-0.078-0.002c-0.827-0.042-1.463-0.746-1.421-1.574c0.203-3.988,0.541-8.048,1.006-12.066
			c0.095-0.823,0.842-1.417,1.662-1.317c0.823,0.095,1.413,0.839,1.317,1.662c-0.458,3.955-0.792,7.949-0.991,11.874
			C130.387,278.499,129.725,279.121,128.932,279.121z M774.157,278.293c-0.744,0-1.391-0.554-1.485-1.312
			c-0.503-3.987-1.18-7.917-2.01-11.679c-0.179-0.809,0.332-1.609,1.141-1.788c0.811-0.176,1.609,0.333,1.787,1.141
			c0.851,3.852,1.543,7.873,2.057,11.951c0.104,0.822-0.479,1.572-1.3,1.675C774.283,278.289,774.219,278.293,774.157,278.293z
			 M131.682,255.269c-0.087,0-0.176-0.008-0.266-0.024c-0.815-0.146-1.358-0.925-1.212-1.74c0.701-3.917,1.535-7.901,2.48-11.842
			c0.193-0.806,1.004-1.302,1.808-1.108c0.805,0.193,1.302,1.002,1.108,1.808c-0.931,3.884-1.753,7.811-2.444,11.671
			C133.027,254.759,132.395,255.269,131.682,255.269z M768.952,254.921c-0.629,0-1.214-0.398-1.423-1.027
			c-1.255-3.776-2.718-7.473-4.348-10.986c-0.349-0.751-0.021-1.643,0.729-1.991c0.751-0.35,1.643-0.022,1.991,0.729
			c1.678,3.616,3.183,7.419,4.473,11.303c0.262,0.786-0.164,1.635-0.95,1.896C769.267,254.896,769.108,254.921,768.952,254.921z
			 M758.852,233.227c-0.501,0-0.99-0.251-1.274-0.708c-2.073-3.335-4.375-6.571-6.841-9.616c-0.521-0.644-0.422-1.588,0.222-2.109
			c0.643-0.521,1.589-0.422,2.108,0.222c2.544,3.142,4.919,6.479,7.058,9.92c0.438,0.703,0.222,1.628-0.481,2.065
			C759.396,233.155,759.123,233.227,758.852,233.227z M137.267,231.913c-0.142,0-0.287-0.021-0.43-0.063
			c-0.793-0.237-1.245-1.072-1.007-1.866c1.136-3.802,2.402-7.668,3.762-11.49c0.277-0.78,1.134-1.188,1.916-0.91
			c0.78,0.277,1.188,1.135,0.91,1.916c-1.343,3.773-2.593,7.59-3.714,11.343C138.51,231.493,137.913,231.913,137.267,231.913z
			 M743.796,214.623c-0.375,0-0.75-0.14-1.041-0.42c-2.794-2.695-5.815-5.284-8.979-7.694c-0.658-0.502-0.785-1.443-0.283-2.102
			c0.502-0.658,1.443-0.784,2.102-0.284c3.255,2.481,6.364,5.146,9.242,7.921c0.596,0.575,0.613,1.524,0.038,2.121
			C744.581,214.469,744.188,214.623,743.796,214.623z M145.305,209.281c-0.19,0-0.383-0.036-0.569-0.113
			c-0.766-0.315-1.132-1.191-0.817-1.957c1.503-3.657,3.132-7.381,4.842-11.067c0.349-0.751,1.24-1.077,1.991-0.729
			c0.751,0.349,1.078,1.24,0.729,1.992c-1.691,3.646-3.303,7.328-4.789,10.944C146.455,208.931,145.895,209.281,145.305,209.281z
			 M724.76,200.067c-0.266,0-0.533-0.07-0.776-0.217c-3.307-2.003-6.817-3.904-10.435-5.648c-0.746-0.36-1.059-1.256-0.699-2.002
			c0.36-0.747,1.256-1.061,2.002-0.699c3.703,1.786,7.299,3.732,10.687,5.785c0.708,0.429,0.935,1.351,0.505,2.06
			C725.762,199.809,725.267,200.067,724.76,200.067z M703.166,189.604c-0.178,0-0.359-0.032-0.535-0.099
			c-3.614-1.38-7.407-2.665-11.274-3.819c-0.794-0.237-1.245-1.072-1.008-1.866c0.236-0.793,1.077-1.243,1.865-1.008
			c3.938,1.175,7.803,2.484,11.487,3.891c0.773,0.295,1.161,1.162,0.866,1.936C704.339,189.237,703.769,189.604,703.166,189.604z
			 M155.405,187.489c-0.231,0-0.466-0.054-0.686-0.167c-0.736-0.379-1.025-1.284-0.646-2.02c1.812-3.515,3.743-7.087,5.739-10.619
			c0.408-0.721,1.324-0.976,2.043-0.568c0.721,0.408,0.975,1.322,0.568,2.043c-1.978,3.499-3.89,7.038-5.684,10.518
			C156.473,187.192,155.948,187.489,155.405,187.489z M680.157,182.704c-0.109,0-0.222-0.012-0.334-0.038
			c-3.788-0.862-7.729-1.634-11.71-2.295c-0.817-0.136-1.37-0.908-1.234-1.725c0.136-0.817,0.912-1.366,1.725-1.234
			c4.041,0.671,8.04,1.455,11.886,2.33c0.808,0.184,1.312,0.988,1.129,1.795C681.46,182.232,680.842,182.704,680.157,182.704z
			 M596.465,179.116c-0.783,0-1.443-0.608-1.495-1.4c-0.055-0.827,0.57-1.541,1.397-1.595c1.179-0.078,2.397-0.19,3.622-0.334
			c2.654-0.312,5.454-0.583,8.321-0.806c0.82-0.062,1.547,0.553,1.611,1.379s-0.553,1.547-1.379,1.611
			c-2.828,0.22-5.589,0.487-8.204,0.794c-1.275,0.149-2.545,0.267-3.774,0.348C596.531,179.115,596.498,179.116,596.465,179.116z
			 M656.448,178.744c-0.056,0-0.111-0.003-0.168-0.009c-3.89-0.434-7.896-0.78-11.909-1.028c-0.826-0.051-1.455-0.763-1.404-1.589
			c0.052-0.827,0.769-1.453,1.59-1.404c4.062,0.251,8.117,0.602,12.056,1.041c0.823,0.092,1.416,0.833,1.324,1.656
			C657.851,178.177,657.202,178.744,656.448,178.744z M584.505,178.712c-0.073,0-0.146-0.005-0.222-0.016
			c-4.179-0.618-8.16-1.772-11.833-3.43c-0.755-0.341-1.091-1.229-0.75-1.984c0.342-0.753,1.23-1.089,1.984-0.75
			c3.468,1.565,7.078,2.611,11.038,3.197c0.819,0.121,1.385,0.883,1.264,1.703C585.876,178.177,585.236,178.712,584.505,178.712z
			 M620.423,177.333c-0.808,0-1.474-0.642-1.498-1.455c-0.024-0.828,0.626-1.519,1.454-1.544c3.989-0.119,7.977-0.151,12.088-0.087
			c0.828,0.013,1.489,0.695,1.476,1.523c-0.013,0.827-0.667,1.453-1.522,1.476c-4.065-0.063-8.009-0.032-11.951,0.086
			C620.453,177.333,620.438,177.333,620.423,177.333z M562.985,169.031c-0.337,0-0.677-0.113-0.957-0.346
			c-2.922-2.425-5.732-5.281-8.593-8.73c-0.528-0.638-0.44-1.583,0.197-2.111c0.638-0.529,1.581-0.441,2.111,0.197
			c2.74,3.305,5.422,6.032,8.2,8.337c0.637,0.529,0.725,1.474,0.196,2.111C563.844,168.846,563.416,169.031,562.985,169.031z
			 M167.215,166.57c-0.267,0-0.538-0.071-0.783-0.221c-0.706-0.433-0.927-1.356-0.494-2.062c2.069-3.374,4.248-6.797,6.476-10.176
			c0.457-0.691,1.385-0.882,2.078-0.426c0.691,0.456,0.882,1.386,0.426,2.078c-2.21,3.352-4.372,6.747-6.423,10.093
			C168.211,166.315,167.719,166.57,167.215,166.57z M547.468,150.836c-0.482,0-0.957-0.233-1.246-0.665
			c-1.884-2.808-3.881-5.953-6.476-10.197c-0.432-0.707-0.21-1.629,0.497-2.062c0.706-0.43,1.629-0.209,2.062,0.497
			c2.572,4.207,4.549,7.319,6.407,10.091c0.462,0.688,0.278,1.62-0.41,2.081C548.046,150.754,547.755,150.836,547.468,150.836z
			 M180.434,146.511c-0.298,0-0.6-0.089-0.862-0.273c-0.677-0.477-0.839-1.413-0.362-2.09c2.255-3.2,4.621-6.459,7.034-9.687
			c0.494-0.661,1.456-0.835,2.119-0.343c0.664,0.491,0.832,1.39,0.344,2.056c-0.003,0.004-0.058,0.08-0.061,0.083
			c-2.396,3.205-4.746,6.441-6.984,9.618C181.37,146.29,180.906,146.511,180.434,146.511z M534.794,130.414
			c-0.506,0-0.999-0.256-1.281-0.72c-1.677-2.752-3.912-6.394-6.345-10.16c-0.449-0.696-0.249-1.624,0.446-2.073
			c0.696-0.45,1.623-0.25,2.073,0.446c2.451,3.796,4.7,7.459,6.386,10.227c0.432,0.708,0.207,1.63-0.5,2.061
			C535.329,130.344,535.06,130.414,534.794,130.414z M195.192,127.495c-0.355,0-0.711-0.125-0.997-0.38
			c-0.618-0.551-0.673-1.499-0.122-2.117c2.601-2.918,5.396-5.886,8.31-8.819c0.583-0.589,1.533-0.591,2.121-0.007
			c0.588,0.583,0.591,1.533,0.007,2.121c-2.875,2.895-5.633,5.823-8.198,8.701C196.016,127.325,195.605,127.495,195.192,127.495z
			 M212.129,110.408c-0.406,0-0.812-0.164-1.107-0.488c-0.559-0.611-0.517-1.56,0.095-2.118c2.952-2.7,6.019-5.375,9.115-7.953
			c0.638-0.53,1.583-0.444,2.112,0.193c0.53,0.636,0.443,1.582-0.193,2.112c-3.06,2.548-6.092,5.193-9.01,7.861
			C212.852,110.279,212.49,110.408,212.129,110.408z M521.687,110.277c-0.467,0-0.928-0.218-1.221-0.627
			c-2.418-3.38-4.781-6.478-7.226-9.471c-0.523-0.642-0.428-1.586,0.214-2.11c0.642-0.524,1.587-0.428,2.11,0.213
			c2.483,3.043,4.885,6.19,7.341,9.623c0.481,0.673,0.326,1.61-0.347,2.092C522.295,110.186,521.99,110.277,521.687,110.277z
			 M230.606,95.018c-0.453,0-0.901-0.205-1.196-0.593c-0.5-0.66-0.371-1.601,0.289-2.101c3.201-2.427,6.498-4.811,9.799-7.085
			c0.684-0.471,1.615-0.297,2.085,0.384c0.47,0.682,0.298,1.616-0.384,2.085c-3.264,2.249-6.523,4.605-9.688,7.005
			C231.24,94.919,230.922,95.018,230.606,95.018z M506.479,91.717c-0.396,0-0.793-0.157-1.088-0.467
			c-2.738-2.885-5.603-5.669-8.516-8.275c-0.617-0.552-0.67-1.5-0.117-2.118c0.551-0.616,1.5-0.67,2.117-0.118
			c2.973,2.66,5.897,5.501,8.691,8.446c0.57,0.601,0.545,1.55-0.056,2.12C507.221,91.58,506.85,91.717,506.479,91.717z
			 M250.404,81.382c-0.5,0-0.99-0.251-1.274-0.707c-0.438-0.703-0.224-1.627,0.479-2.065c3.408-2.124,6.909-4.194,10.406-6.154
			c0.725-0.405,1.636-0.146,2.041,0.575c0.405,0.722,0.147,1.636-0.575,2.041c-3.456,1.937-6.917,3.983-10.286,6.083
			C250.948,81.308,250.674,81.382,250.404,81.382z M488.61,75.742c-0.314,0-0.631-0.098-0.901-0.302
			c-3.131-2.359-6.416-4.626-9.765-6.74c-0.701-0.442-0.91-1.368-0.469-2.068c0.442-0.702,1.371-0.908,2.068-0.468
			c3.42,2.157,6.773,4.472,9.97,6.881c0.661,0.498,0.794,1.438,0.295,2.1C489.513,75.536,489.064,75.742,488.61,75.742z
			 M271.37,69.639c-0.55,0-1.08-0.304-1.342-0.83c-0.37-0.741-0.07-1.642,0.671-2.012c3.596-1.797,7.277-3.527,10.939-5.143
			c0.758-0.335,1.644,0.01,1.978,0.767c0.334,0.758-0.009,1.643-0.767,1.978c-3.619,1.597-7.256,3.307-10.81,5.082
			C271.824,69.588,271.595,69.639,271.37,69.639z M468.357,62.945c-0.235,0-0.474-0.056-0.696-0.173
			c-3.441-1.809-7.046-3.535-10.713-5.131c-0.759-0.331-1.106-1.214-0.776-1.974c0.331-0.759,1.211-1.108,1.974-0.776
			c3.734,1.625,7.405,3.384,10.91,5.227c0.733,0.385,1.016,1.292,0.63,2.025C469.417,62.653,468.896,62.945,468.357,62.945z
			 M293.351,59.947c-0.603,0-1.171-0.366-1.4-0.962c-0.297-0.773,0.089-1.64,0.862-1.938c3.746-1.439,7.577-2.804,11.385-4.057
			c0.787-0.259,1.634,0.169,1.893,0.956s-0.169,1.634-0.956,1.893c-3.762,1.238-7.546,2.586-11.247,4.008
			C293.711,59.914,293.53,59.947,293.351,59.947z M446.399,53.355c-0.168,0-0.339-0.028-0.506-0.088
			c-3.653-1.308-7.462-2.542-11.32-3.668c-0.795-0.232-1.251-1.064-1.02-1.859s1.065-1.252,1.859-1.02
			c3.916,1.143,7.782,2.395,11.492,3.724c0.779,0.279,1.186,1.138,0.906,1.917C447.592,52.973,447.014,53.355,446.399,53.355z
			 M316.165,52.444c-0.658,0-1.262-0.437-1.445-1.103c-0.22-0.798,0.25-1.624,1.048-1.843c3.865-1.063,7.811-2.044,11.727-2.916
			c0.812-0.178,1.609,0.33,1.79,1.138c0.18,0.809-0.33,1.609-1.138,1.79c-3.869,0.86-7.766,1.83-11.583,2.879
			C316.43,52.426,316.297,52.444,316.165,52.444z M339.603,47.228c-0.717,0-1.351-0.516-1.476-1.247
			c-0.14-0.816,0.409-1.591,1.225-1.731c3.942-0.675,7.965-1.263,11.954-1.747c0.827-0.094,1.57,0.487,1.669,1.308
			c0.1,0.822-0.486,1.57-1.308,1.669c-3.941,0.478-7.915,1.058-11.81,1.725C339.772,47.221,339.687,47.228,339.603,47.228z
			 M423.324,46.915c-0.076,0-0.153-0.005-0.23-0.018c-3.946-0.607-7.932-1.136-11.847-1.571c-0.823-0.091-1.417-0.833-1.325-1.656
			c0.091-0.824,0.841-1.417,1.656-1.325c3.957,0.439,7.985,0.974,11.972,1.587c0.819,0.126,1.38,0.892,1.254,1.71
			C424.691,46.385,424.052,46.915,423.324,46.915z M363.437,44.336c-0.779,0-1.437-0.602-1.494-1.391
			c-0.06-0.826,0.562-1.544,1.387-1.604c3.982-0.288,8.042-0.485,12.066-0.585c0.853-0.063,1.516,0.634,1.536,1.462
			s-0.634,1.516-1.462,1.536c-3.978,0.099-7.99,0.293-11.924,0.578C363.51,44.335,363.473,44.336,363.437,44.336z M399.448,44.27
			c-0.034,0-0.067-0.001-0.102-0.003c-3.975-0.266-7.99-0.444-11.933-0.53c-0.828-0.018-1.484-0.704-1.466-1.531
			c0.018-0.817,0.686-1.467,1.499-1.467c0.011,0,0.022,0,0.033,0c3.987,0.086,8.048,0.267,12.067,0.536
			c0.826,0.055,1.451,0.77,1.396,1.596C400.89,43.663,400.231,44.27,399.448,44.27z"/>
	</g>
	<circle fill="#4AB37F" cx="136.769" cy="227.297" r="11.493"/>
	<g>
		
			<polyline fill="none" stroke="#4AB37F" stroke-width="4" stroke-linecap="round" stroke-linejoin="round" stroke-miterlimit="10" points="
			701.032,180.821 704.885,188.531 697.175,192.385 		"/>
		<path fill="none" stroke="#4AB37F" stroke-width="4" stroke-linecap="round" stroke-linejoin="round" stroke-miterlimit="10" d="
			M704.33,188.643c0,0-16.795-7.846-36.974-9.636"/>
	</g>
	<g>
		
			<polyline fill="none" stroke="#4AB37F" stroke-width="4" stroke-linecap="round" stroke-linejoin="round" stroke-miterlimit="10" points="
			370.321,36.084 376.586,42.005 370.667,48.27 		"/>
		<path fill="none" stroke="#4AB37F" stroke-width="4" stroke-linecap="round" stroke-linejoin="round" stroke-miterlimit="10" d="
			M376.104,42.299c0,0-18.468-1.604-38.035,3.642"/>
	</g>
	<g>
		
			<polyline fill="none" stroke="#4AB37F" stroke-width="4" stroke-linecap="round" stroke-linejoin="round" stroke-miterlimit="10" points="
			631.025,494.312 624.496,488.684 630.126,482.154 		"/>
		<path fill="none" stroke="#4AB37F" stroke-width="4" stroke-linecap="round" stroke-linejoin="round" stroke-miterlimit="10" d="
			M624.966,488.367c0,0,18.521,0.766,37.831-5.357"/>
	</g>
	<g>
		
			<polyline fill="none" stroke="#4AB37F" stroke-width="4" stroke-linecap="round" stroke-linejoin="round" stroke-miterlimit="10" points="
			182.516,424.835 183.075,416.232 191.677,416.791 		"/>
		<path fill="none" stroke="#4AB37F" stroke-width="4" stroke-linecap="round" stroke-linejoin="round" stroke-miterlimit="10" d="
			M183.612,416.415c0,0,10.547,15.244,27.068,26.968"/>
	</g>
	<path fill="#4AB37F" d="M105.463,435.019c-1.194,0-2.35,0.185-3.434,0.524c-0.338-5.283-4.266-9.589-9.369-10.507v-0.003
		c-0.74-0.214-2.035-0.181-2.035-0.181c-6.313,0-11.434,5.118-11.434,11.433c0,1.277,0.213,2.505,0.6,3.652
		c-6.283,0.035-11.367,5.139-11.367,11.431c0,6.314,5.117,11.434,11.433,11.434c2.117,0,4.098-0.576,5.797-1.579
		c0.117,0.17,0.24,0.335,0.367,0.497c0.039,0.05,0.08,0.099,0.119,0.146c0.092,0.114,0.186,0.227,0.28,0.336
		c0.045,0.054,0.09,0.104,0.138,0.156c0.102,0.111,0.202,0.22,0.309,0.327c0.041,0.042,0.08,0.084,0.121,0.124
		c0.145,0.146,0.293,0.287,0.447,0.424c0.021,0.021,0.047,0.039,0.067,0.06c0.133,0.115,0.269,0.229,0.404,0.34
		c0.051,0.041,0.104,0.081,0.156,0.121c0.114,0.089,0.229,0.175,0.348,0.259c0.055,0.04,0.111,0.079,0.168,0.118
		c0.131,0.091,0.264,0.177,0.398,0.262c0.041,0.026,0.082,0.053,0.123,0.078c0.176,0.107,0.354,0.211,0.537,0.309
		c0.043,0.023,0.086,0.043,0.129,0.065c0.143,0.074,0.284,0.146,0.432,0.215c0.047,0.021,0.094,0.044,0.141,0.065h-0.092v23.366
		h2.414h2.412v-22.354c5.203-0.014,9.588-3.503,10.957-8.27c6.051-0.295,10.867-5.294,10.867-11.418
		C116.896,440.137,111.777,435.019,105.463,435.019z"/>
	<path fill="#4AB37F" d="M37.039,411.311c-1.194,0-2.35,0.185-3.434,0.524c-0.338-5.283-4.267-9.589-9.369-10.507v-0.003
		c-0.74-0.214-2.035-0.181-2.035-0.181c-6.313,0-11.434,5.118-11.434,11.433c0,1.277,0.213,2.506,0.6,3.652
		C5.084,416.266,0,421.369,0,427.661c0,6.314,5.117,11.434,11.433,11.434c2.116,0,4.098-0.576,5.797-1.579
		c0.117,0.17,0.24,0.335,0.367,0.497c0.038,0.05,0.079,0.099,0.118,0.146c0.093,0.114,0.187,0.227,0.281,0.336
		c0.045,0.054,0.09,0.104,0.137,0.156c0.103,0.111,0.203,0.22,0.31,0.327c0.041,0.042,0.08,0.084,0.121,0.124
		c0.145,0.146,0.293,0.287,0.446,0.424c0.021,0.021,0.048,0.039,0.068,0.06c0.133,0.115,0.269,0.229,0.404,0.34
		c0.051,0.041,0.104,0.081,0.156,0.121c0.114,0.089,0.229,0.175,0.348,0.259c0.055,0.04,0.111,0.079,0.168,0.118
		c0.131,0.091,0.264,0.177,0.397,0.262c0.041,0.026,0.082,0.053,0.123,0.078c0.177,0.107,0.355,0.211,0.537,0.309
		c0.043,0.023,0.086,0.043,0.129,0.065c0.144,0.074,0.285,0.146,0.433,0.215c0.047,0.021,0.094,0.044,0.141,0.065h-0.092v23.366
		h2.414h2.412V442.43c5.203-0.015,9.588-3.503,10.957-8.27c6.051-0.295,10.867-5.294,10.867-11.418
		C48.473,416.429,43.354,411.311,37.039,411.311z"/>
</g>
</svg>
