<?xml version="1.0" encoding="utf-8"?>
<!-- Generator: Adobe Illustrator 15.0.2, SVG Export Plug-In . SVG Version: 6.00 Build 0)  -->
<!DOCTYPE svg PUBLIC "-//W3C//DTD SVG 1.1//EN" "http://www.w3.org/Graphics/SVG/1.1/DTD/svg11.dtd">
<svg version="1.1" id="Lager_1" xmlns="http://www.w3.org/2000/svg" xmlns:xlink="http://www.w3.org/1999/xlink" x="0px" y="0px"
	 width="853.965px" height="598.389px" viewBox="0 0 853.965 598.389" enable-background="new 0 0 853.965 598.389"
	 xml:space="preserve">
<g>
	<path fill="none" stroke="#36895B" stroke-width="4" stroke-linecap="round" stroke-linejoin="round" stroke-miterlimit="10" d="
		M827.814,268.405"/>
	<path fill="none" stroke="#36895B" stroke-width="4" stroke-linecap="round" stroke-linejoin="round" stroke-miterlimit="10" d="
		M839.152,263.921"/>
</g>
<g>
	<g>
		<g>
			<path fill="#F4A28F" d="M510.348,51.269v-9.384c-0.168-2.794-0.201-2.912-4.664-3.678c-11.412-1.951-9.742-17.438-9.742-17.438
				s11.301-0.028,14.764,7.256c0,0,1.5,3.571,1.5,11.421v11.821L510.348,51.269L510.348,51.269z"/>
		</g>
	</g>
	<g>
		<g>
			<path fill="#F4A28F" d="M515.732,51.269v-3.463c0.17-2.793,0.201-2.912,4.664-3.678c11.412-1.95,9.744-17.438,9.744-17.438
				s-11.303-0.028-14.767,7.256c0,0-1.5,3.571-1.5,11.421v5.9L515.732,51.269L515.732,51.269z"/>
		</g>
	</g>
</g>
<g>
	<g>
		<g>
			<path fill="#F4A28F" d="M459.87,66.518v-9.385c-0.168-2.793-0.2-2.911-4.664-3.677c-11.409-1.951-9.741-17.438-9.741-17.438
				s11.301-0.028,14.766,7.256c0,0,1.5,3.571,1.5,11.421v11.821L459.87,66.518L459.87,66.518z"/>
		</g>
	</g>
	<g>
		<g>
			<path fill="#F4A28F" d="M465.258,66.518v-3.463c0.168-2.793,0.201-2.912,4.664-3.678c11.409-1.95,9.741-17.438,9.741-17.438
				s-11.301-0.028-14.766,7.256c0,0-1.5,3.571-1.5,11.421v5.9L465.258,66.518L465.258,66.518z"/>
		</g>
	</g>
</g>
<g>
	<g>
		<g>
			<path fill="#F4A28F" d="M830.691,580.428v-9.384c-0.168-2.793-0.201-2.912-4.664-3.678c-11.41-1.951-9.742-17.438-9.742-17.438
				s11.302-0.028,14.767,7.256c0,0,1.5,3.571,1.5,11.421v11.821L830.691,580.428L830.691,580.428z"/>
		</g>
	</g>
	<g>
		<g>
			<path fill="#F4A28F" d="M836.077,580.428v-3.463c0.168-2.793,0.201-2.912,4.664-3.678c11.41-1.95,9.742-17.438,9.742-17.438
				s-11.301-0.028-14.766,7.256c0,0-1.5,3.571-1.5,11.421v5.9L836.077,580.428L836.077,580.428z"/>
		</g>
	</g>
</g>
<g>
	<g>
		<g>
			<path fill="#F4A28F" d="M779.383,598.388v-9.384c-0.168-2.793-0.201-2.912-4.664-3.678c-11.412-1.95-9.744-17.438-9.744-17.438
				s11.303-0.028,14.766,7.256c0,0,1.5,3.571,1.5,11.421v11.821L779.383,598.388L779.383,598.388z"/>
		</g>
	</g>
	<g>
		<g>
			<path fill="#F4A28F" d="M784.768,598.388v-3.463c0.17-2.793,0.201-2.912,4.664-3.678c11.412-1.95,9.744-17.438,9.744-17.438
				s-11.303-0.028-14.767,7.256c0,0-1.5,3.571-1.5,11.421v5.9L784.768,598.388L784.768,598.388z"/>
		</g>
	</g>
</g>
<path fill="none" stroke="#4AB37F" stroke-width="2" stroke-miterlimit="10" d="M556.092,378.439"/>
<path fill="none" stroke="#4AB37F" stroke-width="2" stroke-miterlimit="10" d="M169.551,271.444"/>
<path fill="#F4A28F" d="M167.577,36.752c-1.195,0-2.35,0.186-3.434,0.524c-0.339-5.283-4.267-9.588-9.37-10.506v-0.003
	c-0.739-0.214-2.035-0.182-2.035-0.182c-6.313,0-11.434,5.118-11.434,11.434c0,1.276,0.213,2.505,0.6,3.651
	c-6.282,0.035-11.366,5.14-11.366,11.432c0,6.313,5.117,11.433,11.433,11.433c2.116,0,4.097-0.576,5.796-1.579
	c0.118,0.17,0.241,0.335,0.367,0.497c0.039,0.05,0.08,0.1,0.119,0.147c0.092,0.113,0.186,0.226,0.281,0.336
	c0.045,0.053,0.091,0.104,0.137,0.155c0.102,0.111,0.204,0.221,0.309,0.327c0.041,0.042,0.08,0.084,0.121,0.124
	c0.146,0.146,0.294,0.287,0.447,0.424c0.021,0.021,0.047,0.039,0.068,0.06c0.133,0.116,0.268,0.229,0.403,0.34
	c0.052,0.041,0.104,0.081,0.156,0.121c0.115,0.089,0.23,0.175,0.348,0.259c0.057,0.04,0.111,0.079,0.168,0.118
	c0.132,0.091,0.265,0.177,0.398,0.262c0.041,0.026,0.082,0.054,0.123,0.078c0.177,0.108,0.354,0.211,0.538,0.31
	c0.042,0.022,0.085,0.043,0.128,0.064c0.143,0.074,0.285,0.146,0.432,0.215c0.047,0.021,0.094,0.044,0.142,0.065h-0.093v23.367
	h2.414h2.413V67.871c5.203-0.014,9.587-3.503,10.956-8.269c6.051-0.295,10.867-5.294,10.867-11.418
	C179.01,41.87,173.891,36.752,167.577,36.752z"/>
<path fill="#F4A28F" d="M799.021,10.167c-1.195,0-2.348,0.186-3.432,0.524c-0.341-5.283-4.269-9.588-9.371-10.506V0.183
	c-0.74-0.214-2.035-0.182-2.035-0.182c-6.314,0-11.435,5.118-11.435,11.434c0,1.276,0.214,2.505,0.601,3.651
	c-6.283,0.035-11.367,5.14-11.367,11.432c0,6.313,5.119,11.433,11.435,11.433c2.114,0,4.096-0.576,5.795-1.579
	c0.118,0.17,0.241,0.335,0.366,0.497c0.039,0.05,0.08,0.1,0.119,0.147c0.092,0.113,0.187,0.226,0.281,0.336
	c0.045,0.053,0.092,0.104,0.137,0.155c0.103,0.111,0.205,0.221,0.31,0.327c0.041,0.042,0.08,0.084,0.121,0.124
	c0.145,0.146,0.295,0.287,0.446,0.424c0.023,0.021,0.048,0.039,0.068,0.06c0.133,0.116,0.268,0.229,0.404,0.34
	c0.053,0.041,0.104,0.081,0.155,0.121c0.115,0.089,0.23,0.175,0.349,0.259c0.057,0.04,0.11,0.079,0.168,0.118
	c0.131,0.091,0.264,0.177,0.397,0.262c0.041,0.026,0.082,0.054,0.123,0.078c0.179,0.108,0.355,0.211,0.539,0.31
	c0.041,0.022,0.084,0.043,0.127,0.064c0.144,0.074,0.285,0.146,0.433,0.215c0.047,0.021,0.094,0.044,0.141,0.065h-0.092v23.367
	h2.414h2.414V41.286c5.203-0.014,9.586-3.503,10.955-8.269c6.051-0.295,10.867-5.294,10.867-11.418
	C810.454,15.285,805.336,10.167,799.021,10.167z"/>
<path fill="#F4A28F" d="M99.153,13.044c-1.194,0-2.349,0.186-3.433,0.524c-0.339-5.283-4.267-9.588-9.37-10.506V3.06
	c-0.74-0.214-2.035-0.182-2.035-0.182c-6.313,0-11.434,5.118-11.434,11.434c0,1.276,0.213,2.505,0.6,3.651
	c-6.283,0.035-11.367,5.14-11.367,11.432c0,6.313,5.118,11.433,11.434,11.433c2.116,0,4.097-0.576,5.796-1.579
	c0.118,0.17,0.241,0.335,0.367,0.497c0.039,0.05,0.08,0.1,0.119,0.147c0.092,0.113,0.186,0.226,0.28,0.336
	c0.045,0.053,0.092,0.104,0.138,0.156c0.102,0.11,0.204,0.22,0.309,0.326c0.041,0.042,0.08,0.084,0.121,0.124
	c0.145,0.146,0.294,0.287,0.447,0.425c0.021,0.021,0.047,0.038,0.067,0.059c0.134,0.116,0.269,0.229,0.404,0.34
	c0.052,0.041,0.104,0.081,0.156,0.121c0.115,0.089,0.229,0.175,0.348,0.259c0.056,0.04,0.111,0.079,0.168,0.118
	c0.131,0.091,0.265,0.177,0.398,0.262c0.041,0.026,0.082,0.054,0.123,0.078c0.177,0.108,0.354,0.211,0.538,0.31
	c0.042,0.022,0.085,0.043,0.128,0.064c0.143,0.074,0.285,0.146,0.432,0.215c0.047,0.021,0.094,0.044,0.141,0.065h-0.092v23.367
	h2.414h2.413V44.163c5.203-0.014,9.587-3.503,10.956-8.269c6.051-0.295,10.867-5.294,10.867-11.418
	C110.586,18.162,105.467,13.044,99.153,13.044z"/>
<g>
	<path fill="#F4A28F" d="M797.105,535.147c-1.34,2.875-1.34,11.743-1.361,13.26l0.021,3.441l1.776-0.007l-0.012-3.276
		c0.404-2.794,0.162-2.819,4.506-3.584c11.019-1.957,9.314-16.94,9.314-16.94S800.409,528.081,797.105,535.147z"/>
	<path fill="#F4A28F" d="M794.062,539.939v0.002c-0.002-0.1-0.008-0.215-0.012-0.318c-0.004-0.138-0.011-0.277-0.015-0.42
		c-0.018-0.459-0.039-0.938-0.065-1.438c-0.002-0.097-0.01-0.19-0.015-0.288c-0.012-0.225-0.026-0.449-0.041-0.679
		c-0.018-0.24-0.032-0.481-0.053-0.726c-0.012-0.175-0.022-0.346-0.037-0.521c-0.037-0.427-0.075-0.853-0.121-1.271
		c-0.008-0.089-0.02-0.173-0.028-0.262c-0.041-0.382-0.09-0.757-0.144-1.123c-0.01-0.078-0.02-0.154-0.03-0.229
		c-0.064-0.434-0.136-0.851-0.216-1.238c-0.004-0.018-0.008-0.032-0.01-0.05c-0.074-0.356-0.151-0.685-0.242-0.989
		c-0.02-0.07-0.041-0.14-0.061-0.208c-0.096-0.311-0.195-0.599-0.309-0.836c-3.359-7.047-14.31-7.002-14.31-7.002
		s-1.594,14.991,9.455,16.874c4.33,0.737,4.102,0.76,4.527,3.551l0.032,9.092l1.789-0.011l-0.043-9.256
		C794.113,542.177,794.1,541.191,794.062,539.939z"/>
	<path fill="#F4A28F" d="M795.743,524.317c4.339,0,7.854-4.02,7.854-8.979v-11.115l-7.854,5.994l-7.854-5.994v11.115
		C787.889,520.298,791.411,524.317,795.743,524.317z"/>
</g>
<g>
	<path fill="#F4A28F" d="M839.625,69.424c-1.341,2.875-1.341,11.743-1.363,13.261l0.022,3.44l1.777-0.007l-0.014-3.276
		c0.405-2.794,0.164-2.818,4.506-3.584c11.018-1.956,9.315-16.939,9.315-16.939S842.93,62.358,839.625,69.424z"/>
	<path fill="#F4A28F" d="M836.581,74.216v0.003c-0.002-0.101-0.008-0.216-0.012-0.319c-0.004-0.137-0.01-0.277-0.014-0.419
		c-0.019-0.459-0.039-0.938-0.066-1.438c-0.004-0.097-0.01-0.189-0.014-0.288c-0.014-0.225-0.027-0.448-0.041-0.679
		c-0.019-0.24-0.035-0.48-0.053-0.725c-0.013-0.176-0.023-0.347-0.037-0.521c-0.037-0.427-0.076-0.852-0.121-1.271
		c-0.01-0.089-0.021-0.173-0.029-0.263c-0.043-0.382-0.09-0.757-0.143-1.123c-0.01-0.077-0.021-0.153-0.033-0.229
		c-0.064-0.433-0.135-0.85-0.213-1.238c-0.004-0.017-0.008-0.032-0.01-0.05c-0.074-0.356-0.154-0.684-0.242-0.989
		c-0.021-0.069-0.041-0.14-0.062-0.208c-0.096-0.31-0.194-0.599-0.309-0.836c-3.359-7.047-14.311-7.002-14.311-7.002
		s-1.593,14.991,9.454,16.874c4.33,0.737,4.104,0.76,4.529,3.551l0.031,9.093l1.789-0.012l-0.043-9.256
		C836.631,76.454,836.618,75.469,836.581,74.216z"/>
	<path fill="#F4A28F" d="M838.262,58.594c4.34,0,7.854-4.021,7.854-8.979V38.5l-7.854,5.994l-7.854-5.994v11.115
		C830.407,54.575,833.93,58.594,838.262,58.594z"/>
</g>
<g>
	<path fill="#F4A28F" d="M18.829,81.907c-1.341,2.875-1.341,11.743-1.362,13.26l0.021,3.441l1.777-0.007l-0.013-3.276
		c0.405-2.794,0.163-2.819,4.506-3.584c11.018-1.957,9.315-16.939,9.315-16.939S22.133,74.841,18.829,81.907z"/>
	<path fill="#F4A28F" d="M15.786,86.699v0.002c-0.002-0.1-0.009-0.215-0.013-0.319c-0.004-0.137-0.01-0.276-0.014-0.419
		c-0.018-0.459-0.039-0.938-0.066-1.438c-0.003-0.097-0.01-0.19-0.014-0.288c-0.013-0.225-0.027-0.449-0.041-0.679
		c-0.018-0.24-0.034-0.481-0.053-0.726c-0.012-0.175-0.023-0.346-0.037-0.521c-0.037-0.427-0.076-0.853-0.121-1.271
		c-0.009-0.089-0.02-0.173-0.029-0.262c-0.042-0.382-0.09-0.757-0.143-1.123c-0.01-0.078-0.021-0.154-0.032-0.23
		c-0.063-0.433-0.135-0.85-0.214-1.237c-0.004-0.018-0.008-0.032-0.01-0.05c-0.074-0.356-0.153-0.685-0.242-0.989
		c-0.021-0.07-0.041-0.141-0.062-0.208c-0.096-0.311-0.194-0.6-0.309-0.836c-3.359-7.047-14.31-7.002-14.31-7.002
		s-1.594,14.991,9.455,16.874c4.329,0.736,4.103,0.76,4.527,3.551l0.032,9.092l1.789-0.011l-0.043-9.256
		C15.835,88.937,15.823,87.951,15.786,86.699z"/>
	<path fill="#F4A28F" d="M17.466,71.077c4.339,0,7.854-4.02,7.854-8.979V50.983l-7.854,5.994l-7.854-5.994v11.115
		C9.612,67.058,13.134,71.077,17.466,71.077z"/>
</g>
<g>
	<path fill="#F4A28F" d="M43.685,545.404c-1.34,2.875-1.34,11.743-1.363,13.26l0.023,3.441l1.777-0.007l-0.015-3.276
		c0.406-2.794,0.164-2.818,4.506-3.584c11.019-1.957,9.316-16.939,9.316-16.939S46.989,538.338,43.685,545.404z"/>
	<path fill="#F4A28F" d="M40.642,550.196v0.002c-0.003-0.1-0.008-0.215-0.012-0.318c-0.004-0.138-0.01-0.277-0.014-0.419
		c-0.019-0.459-0.039-0.938-0.066-1.438c-0.004-0.097-0.01-0.19-0.014-0.288c-0.015-0.225-0.028-0.449-0.042-0.679
		c-0.018-0.24-0.034-0.481-0.053-0.726c-0.013-0.175-0.023-0.346-0.038-0.521c-0.035-0.427-0.074-0.853-0.119-1.271
		c-0.011-0.089-0.021-0.173-0.029-0.262c-0.043-0.382-0.091-0.757-0.144-1.123c-0.011-0.078-0.02-0.153-0.032-0.229
		c-0.064-0.434-0.136-0.851-0.213-1.238c-0.005-0.017-0.009-0.032-0.011-0.05c-0.073-0.356-0.153-0.685-0.242-0.989
		c-0.02-0.07-0.041-0.14-0.061-0.208c-0.097-0.31-0.195-0.599-0.309-0.836c-3.36-7.047-14.312-7.002-14.312-7.002
		s-1.593,14.991,9.455,16.874c4.33,0.737,4.104,0.76,4.528,3.551l0.032,9.092l1.788-0.011l-0.043-9.256
		C40.691,552.433,40.679,551.448,40.642,550.196z"/>
	<path fill="#F4A28F" d="M42.322,534.574c4.341,0,7.854-4.02,7.854-8.979V514.48l-7.854,5.994l-7.854-5.994v11.115
		C34.468,530.554,37.99,534.574,42.322,534.574z"/>
</g>
<g>
	<path fill="#F4A28F" d="M85.031,568.669c-1.34,2.875-1.34,11.742-1.362,13.26l0.022,3.44l1.777-0.007l-0.014-3.275
		c0.405-2.794,0.164-2.819,4.506-3.584c11.018-1.957,9.315-16.94,9.315-16.94S88.334,561.602,85.031,568.669z"/>
	<path fill="#F4A28F" d="M81.988,573.461v0.002c-0.003-0.101-0.008-0.216-0.012-0.319c-0.004-0.137-0.01-0.277-0.014-0.419
		c-0.019-0.459-0.039-0.938-0.066-1.438c-0.004-0.097-0.01-0.189-0.014-0.288c-0.014-0.225-0.028-0.448-0.042-0.679
		c-0.018-0.24-0.034-0.48-0.052-0.725c-0.014-0.175-0.024-0.347-0.038-0.521c-0.036-0.427-0.075-0.852-0.12-1.271
		c-0.01-0.089-0.021-0.173-0.029-0.262c-0.043-0.383-0.091-0.758-0.143-1.123c-0.012-0.078-0.021-0.154-0.033-0.23
		c-0.064-0.433-0.135-0.85-0.213-1.238c-0.004-0.017-0.008-0.031-0.01-0.05c-0.074-0.355-0.154-0.684-0.242-0.989
		c-0.021-0.069-0.041-0.14-0.062-0.208c-0.097-0.31-0.194-0.599-0.309-0.836c-3.36-7.047-14.312-7.002-14.312-7.002
		s-1.593,14.991,9.455,16.874c4.33,0.737,4.104,0.761,4.528,3.552l0.032,9.092l1.789-0.011l-0.043-9.257
		C82.037,575.698,82.025,574.713,81.988,573.461z"/>
	<path fill="#F4A28F" d="M83.667,557.839c4.34,0,7.854-4.021,7.854-8.979v-11.115l-7.854,5.994l-7.854-5.994v11.115
		C75.814,553.819,79.335,557.839,83.667,557.839z"/>
</g>
<circle fill="#FFFFFF" cx="42.803" cy="288.75" r="11.493"/>
<path fill="#FFFFFF" d="M556.565,522.544c-2.617,0-5.277-0.029-7.906-0.086c-0.854-0.019-1.53-0.725-1.512-1.578
	c0.018-0.854,0.699-1.488,1.578-1.512c4.103,0.088,8.231,0.105,12.305,0.058c0.007-0.001,0.014-0.001,0.02-0.001
	c0.845,0,1.535,0.68,1.545,1.526c0.011,0.854-0.672,1.555-1.525,1.564C559.57,522.534,558.069,522.544,556.565,522.544z
	 M573.402,522.161c-0.821,0-1.505-0.647-1.543-1.476c-0.039-0.853,0.621-1.575,1.474-1.614c4.091-0.186,8.225-0.44,12.286-0.758
	c0.84-0.064,1.594,0.568,1.661,1.421c0.066,0.851-0.569,1.595-1.421,1.661c-4.095,0.319-8.262,0.576-12.386,0.764
	C573.448,522.16,573.425,522.161,573.402,522.161z M536.339,521.98c-0.028,0-0.058-0.001-0.087-0.003
	c-4.129-0.231-8.295-0.538-12.384-0.912c-0.851-0.078-1.477-0.83-1.398-1.68c0.077-0.852,0.836-1.468,1.68-1.398
	c4.053,0.371,8.183,0.675,12.274,0.904c0.853,0.048,1.505,0.777,1.457,1.629C537.835,521.344,537.154,521.98,536.339,521.98z
	 M598.039,520.244c-0.777,0-1.447-0.586-1.534-1.377c-0.094-0.849,0.519-1.611,1.367-1.705c4.069-0.448,8.178-0.967,12.212-1.542
	c0.842-0.113,1.627,0.467,1.748,1.312c0.12,0.845-0.467,1.627-1.312,1.748c-4.066,0.579-8.208,1.103-12.31,1.554
	C598.153,520.241,598.096,520.244,598.039,520.244z M511.722,519.725c-0.065,0-0.131-0.005-0.198-0.013
	c-4.095-0.523-8.229-1.129-12.287-1.801c-0.843-0.139-1.412-0.935-1.272-1.776c0.139-0.843,0.938-1.418,1.776-1.272
	c4.021,0.665,8.117,1.265,12.176,1.783c0.846,0.108,1.445,0.883,1.337,1.729C513.154,519.155,512.489,519.725,511.722,519.725z
	 M622.508,516.763c-0.737,0-1.39-0.529-1.521-1.28c-0.146-0.841,0.416-1.642,1.257-1.788c3.996-0.696,8.065-1.471,12.094-2.303
	c0.836-0.172,1.652,0.364,1.826,1.201c0.173,0.836-0.365,1.653-1.201,1.826c-4.061,0.838-8.16,1.618-12.188,2.32
	C622.686,516.756,622.596,516.763,622.508,516.763z M487.334,515.69c-0.103,0-0.207-0.011-0.312-0.031
	c-4.054-0.829-8.131-1.743-12.119-2.718c-0.829-0.202-1.337-1.039-1.134-1.868c0.202-0.828,1.033-1.337,1.868-1.134
	c3.949,0.965,7.988,1.87,12.004,2.69c0.836,0.171,1.376,0.988,1.205,1.824C488.697,515.185,488.053,515.69,487.334,515.69z
	 M646.714,511.762c-0.699,0-1.332-0.477-1.502-1.187c-0.198-0.83,0.313-1.664,1.144-1.862c3.982-0.953,7.995-1.979,11.927-3.052
	c0.82-0.224,1.673,0.261,1.897,1.085c0.225,0.823-0.262,1.673-1.085,1.897c-3.962,1.08-8.007,2.115-12.021,3.075
	C646.954,511.749,646.833,511.762,646.714,511.762z M463.323,509.819c-0.141,0-0.284-0.02-0.426-0.061
	c-3.972-1.136-7.966-2.365-11.873-3.652c-0.811-0.268-1.252-1.141-0.984-1.951c0.267-0.811,1.14-1.252,1.951-0.984
	c3.869,1.274,7.824,2.491,11.756,3.617c0.821,0.234,1.296,1.09,1.061,1.91C464.614,509.377,463.994,509.819,463.323,509.819z
	 M670.561,505.258c-0.66,0-1.272-0.428-1.477-1.093c-0.25-0.815,0.208-1.68,1.024-1.931c3.934-1.207,7.873-2.486,11.706-3.802
	c0.812-0.277,1.687,0.153,1.964,0.96c0.277,0.808-0.153,1.687-0.96,1.964c-3.866,1.326-7.837,2.615-11.804,3.833
	C670.865,505.235,670.711,505.258,670.561,505.258z M439.845,502.08c-0.181,0-0.363-0.032-0.542-0.099
	c-3.87-1.45-7.754-2.995-11.544-4.594c-0.787-0.331-1.155-1.237-0.824-2.024c0.332-0.785,1.239-1.156,2.025-0.823
	c3.751,1.582,7.596,3.111,11.427,4.547c0.8,0.3,1.205,1.19,0.905,1.989C441.06,501.697,440.471,502.08,439.845,502.08z
	 M693.943,497.241c-0.623,0-1.21-0.38-1.444-0.996c-0.304-0.798,0.098-1.691,0.895-1.994c3.846-1.463,7.69-3.001,11.428-4.572
	c0.788-0.33,1.692,0.04,2.023,0.826s-0.039,1.692-0.826,2.023c-3.77,1.585-7.647,3.137-11.525,4.611
	C694.311,497.209,694.125,497.241,693.943,497.241z M417.069,492.474c-0.221,0-0.445-0.048-0.657-0.147
	c-3.729-1.756-7.475-3.614-11.131-5.523c-0.756-0.396-1.05-1.329-0.655-2.085c0.396-0.757,1.328-1.051,2.085-0.655
	c3.619,1.89,7.326,3.729,11.017,5.467c0.772,0.363,1.104,1.284,0.74,2.057C418.204,492.146,417.649,492.474,417.069,492.474z
	 M716.725,487.653c-0.583,0-1.142-0.332-1.402-0.896c-0.359-0.774-0.023-1.693,0.751-2.053c3.735-1.733,7.455-3.547,11.056-5.392
	c0.757-0.387,1.69-0.088,2.08,0.672c0.389,0.759,0.088,1.69-0.671,2.079c-3.636,1.862-7.392,3.694-11.164,5.444
	C717.164,487.606,716.943,487.653,716.725,487.653z M395.04,481.236c-0.223,0-0.449-0.049-0.663-0.15
	c-3.389-1.613-7.185-3.206-11.283-4.735c-0.799-0.299-1.206-1.188-0.907-1.988c0.298-0.8,1.186-1.207,1.988-0.908
	c4.182,1.562,8.061,3.189,11.53,4.841c0.771,0.367,1.098,1.289,0.731,2.06C396.172,480.911,395.618,481.236,395.04,481.236z
	 M738.713,476.368c-0.538,0-1.061-0.281-1.345-0.783c-0.422-0.742-0.161-1.686,0.581-2.106c3.618-2.054,7.164-4.177,10.54-6.312
	c0.722-0.455,1.675-0.242,2.133,0.479c0.456,0.722,0.241,1.676-0.48,2.133c-3.418,2.161-7.007,4.31-10.667,6.387
	C739.234,476.302,738.972,476.368,738.713,476.368z M371.91,472.48c-0.151,0-0.304-0.022-0.456-0.069
	c-3.717-1.145-7.703-2.277-11.846-3.364c-0.825-0.217-1.319-1.062-1.102-1.888c0.216-0.825,1.058-1.317,1.887-1.103
	c4.185,1.099,8.212,2.243,11.971,3.401c0.815,0.251,1.273,1.116,1.022,1.932C373.182,472.053,372.571,472.48,371.91,472.48z
	 M347.978,466.156c-0.114,0-0.229-0.013-0.345-0.039c-3.872-0.883-7.932-1.753-12.067-2.585c-0.837-0.168-1.379-0.982-1.21-1.819
	s0.988-1.377,1.82-1.211c4.161,0.838,8.247,1.713,12.145,2.602c0.832,0.189,1.353,1.019,1.163,1.851
	C349.32,465.671,348.683,466.156,347.978,466.156z M759.583,463.138c-0.482,0-0.959-0.227-1.26-0.65
	c-0.495-0.695-0.333-1.66,0.362-2.154c3.429-2.44,6.712-4.937,9.757-7.419c0.663-0.539,1.636-0.441,2.174,0.221
	c0.54,0.661,0.44,1.635-0.221,2.174c-3.097,2.526-6.434,5.063-9.918,7.542C760.206,463.045,759.894,463.138,759.583,463.138z
	 M323.709,461.254c-0.09,0-0.182-0.008-0.274-0.024c-3.919-0.702-8.017-1.397-12.179-2.066c-0.843-0.135-1.416-0.928-1.281-1.771
	c0.136-0.843,0.929-1.417,1.771-1.28c4.18,0.671,8.295,1.369,12.233,2.074c0.84,0.15,1.399,0.954,1.249,1.794
	C325.094,460.728,324.443,461.254,323.709,461.254z M299.244,457.313c-0.074,0-0.148-0.006-0.223-0.017
	c-3.962-0.573-8.078-1.14-12.235-1.684c-0.847-0.11-1.443-0.887-1.332-1.732s0.886-1.439,1.733-1.332
	c4.171,0.546,8.302,1.114,12.277,1.689c0.845,0.122,1.431,0.906,1.308,1.751C300.66,456.759,300,457.313,299.244,457.313z
	 M274.702,454.096c-0.061,0-0.122-0.004-0.184-0.011c-4.024-0.478-8.158-0.944-12.287-1.389c-0.849-0.091-1.463-0.853-1.372-1.701
	c0.091-0.85,0.848-1.476,1.702-1.371c4.14,0.444,8.285,0.913,12.321,1.391c0.848,0.101,1.453,0.869,1.353,1.717
	C276.141,453.518,275.474,454.096,274.702,454.096z M250.079,451.446c-0.05,0-0.101-0.003-0.151-0.008
	c-4.201-0.407-8.315-0.787-12.317-1.139c-0.85-0.074-1.479-0.824-1.404-1.674c0.075-0.851,0.833-1.489,1.675-1.404
	c4.011,0.352,8.135,0.731,12.346,1.141c0.85,0.082,1.471,0.838,1.389,1.688C251.538,450.848,250.865,451.446,250.079,451.446z
	 M225.404,449.28c-0.041,0-0.082-0.002-0.124-0.005c-4.309-0.34-8.435-0.646-12.341-0.919c-0.851-0.061-1.493-0.799-1.433-1.65
	c0.06-0.852,0.781-1.484,1.65-1.434c3.914,0.275,8.048,0.581,12.367,0.921c0.851,0.067,1.487,0.812,1.419,1.662
	C226.879,448.665,226.202,449.28,225.404,449.28z M200.685,447.548c-0.032,0-0.064-0.001-0.097-0.003
	c-4.659-0.287-8.812-0.519-12.358-0.703c-0.853-0.044-1.507-0.771-1.463-1.623c0.044-0.854,0.773-1.53,1.624-1.463
	c3.555,0.185,7.718,0.416,12.388,0.703c0.852,0.053,1.5,0.786,1.448,1.638C202.176,446.916,201.495,447.548,200.685,447.548z
	 M778.723,447.533c-0.412,0-0.824-0.165-1.128-0.489c-0.584-0.623-0.552-1.602,0.071-2.185c2.996-2.805,5.899-5.725,8.63-8.681
	c0.577-0.628,1.555-0.667,2.184-0.086c0.627,0.579,0.665,1.557,0.086,2.184c-2.78,3.01-5.737,5.984-8.787,8.839
	C779.481,447.394,779.102,447.533,778.723,447.533z M175.9,446.27c-0.02,0-0.04-0.001-0.061-0.002l-1.267-0.046
	c-0.053-0.002-0.106-0.007-0.16-0.014c-3.765-0.52-7.479-1.106-11.037-1.744c-0.84-0.15-1.399-0.954-1.249-1.794
	c0.15-0.84,0.953-1.4,1.793-1.249c3.494,0.626,7.139,1.203,10.837,1.714l1.2,0.045c0.853,0.032,1.518,0.75,1.485,1.604
	C177.411,445.616,176.726,446.27,175.9,446.27z M151.546,442.006c-0.116,0-0.233-0.014-0.351-0.041
	c-4.124-0.959-8.173-2.026-12.036-3.172c-0.818-0.242-1.285-1.103-1.042-1.921s1.1-1.289,1.921-1.042
	c3.803,1.127,7.792,2.179,11.857,3.125c0.832,0.193,1.349,1.023,1.155,1.855C152.884,441.523,152.248,442.006,151.546,442.006z
	 M127.88,434.953c-0.18,0-0.362-0.031-0.54-0.098c-3.964-1.478-7.837-3.092-11.511-4.799c-0.774-0.359-1.11-1.278-0.75-2.053
	c0.36-0.775,1.278-1.109,2.053-0.75c3.601,1.673,7.398,3.256,11.287,4.705c0.8,0.298,1.207,1.188,0.909,1.988
	C129.096,434.568,128.507,434.953,127.88,434.953z M795.46,429.391c-0.336,0-0.674-0.109-0.958-0.334
	c-0.669-0.529-0.782-1.502-0.253-2.171c2.534-3.202,4.957-6.526,7.203-9.881c0.475-0.71,1.437-0.899,2.144-0.425
	c0.71,0.475,0.899,1.435,0.425,2.144c-2.291,3.423-4.764,6.813-7.348,10.08C796.368,429.19,795.916,429.391,795.46,429.391z
	 M105.52,424.514c-0.262,0-0.528-0.067-0.771-0.207c-3.648-2.107-7.183-4.383-10.506-6.766c-0.694-0.497-0.853-1.463-0.355-2.156
	c0.497-0.693,1.463-0.853,2.156-0.355c3.241,2.323,6.69,4.544,10.251,6.601c0.739,0.427,0.992,1.371,0.565,2.11
	C106.574,424.237,106.054,424.514,105.52,424.514z M85.502,410.128c-0.366,0-0.733-0.13-1.027-0.392
	c-3.116-2.776-6.101-5.743-8.87-8.819c-0.571-0.635-0.52-1.611,0.114-2.183c0.635-0.57,1.612-0.52,2.183,0.114
	c2.694,2.992,5.598,5.879,8.629,8.579c0.637,0.568,0.694,1.545,0.126,2.183C86.351,409.953,85.927,410.128,85.502,410.128z
	 M809.189,408.878c-0.256,0-0.514-0.063-0.752-0.196c-0.746-0.416-1.013-1.357-0.597-2.103c1.976-3.54,3.833-7.211,5.519-10.909
	c0.354-0.778,1.273-1.119,2.047-0.766c0.777,0.354,1.119,1.271,0.766,2.047c-1.721,3.775-3.615,7.521-5.632,11.134
	C810.256,408.592,809.731,408.878,809.189,408.878z M69.018,391.819c-0.481,0-0.955-0.224-1.257-0.645
	c-2.401-3.343-4.668-6.885-6.739-10.528c-0.421-0.742-0.162-1.686,0.58-2.107c0.742-0.419,1.685-0.161,2.107,0.58
	c2.017,3.549,4.225,6.998,6.562,10.253c0.498,0.693,0.339,1.659-0.354,2.156C69.645,391.724,69.33,391.819,69.018,391.819z
	 M819.428,386.419c-0.175,0-0.352-0.029-0.525-0.093c-0.803-0.29-1.218-1.176-0.928-1.979c1.371-3.794,2.616-7.717,3.701-11.659
	c0.227-0.822,1.075-1.308,1.9-1.08c0.823,0.227,1.307,1.077,1.08,1.9c-1.106,4.02-2.376,8.02-3.775,11.89
	C820.654,386.027,820.061,386.419,819.428,386.419z M56.817,370.409c-0.592,0-1.157-0.343-1.413-0.918
	c-1.652-3.719-3.18-7.628-4.541-11.622c-0.275-0.808,0.157-1.686,0.964-1.961c0.809-0.278,1.686,0.156,1.961,0.965
	c1.331,3.906,2.824,7.729,4.439,11.362c0.347,0.78-0.004,1.693-0.785,2.04C57.24,370.366,57.026,370.409,56.817,370.409z
	 M825.987,362.615c-0.099,0-0.198-0.01-0.298-0.029c-0.838-0.163-1.385-0.975-1.221-1.812c0.771-3.953,1.412-8.022,1.907-12.096
	c0.103-0.848,0.875-1.448,1.721-1.348c0.847,0.103,1.45,0.873,1.348,1.721c-0.504,4.146-1.157,8.289-1.942,12.314
	C827.358,362.102,826.711,362.615,825.987,362.615z M48.823,347.085c-0.69,0-1.319-0.466-1.497-1.166
	c-0.996-3.925-1.88-8.02-2.629-12.171c-0.151-0.84,0.407-1.644,1.247-1.795c0.836-0.16,1.644,0.406,1.795,1.246
	c0.735,4.081,1.604,8.104,2.583,11.96c0.21,0.827-0.291,1.668-1.118,1.878C49.077,347.069,48.949,347.085,48.823,347.085z
	 M828.973,338.098c-0.027,0-0.055-0.001-0.082-0.003c-0.853-0.044-1.507-0.771-1.462-1.624c0.17-3.257,0.256-6.577,0.255-9.868
	c0-0.8-0.004-1.596-0.014-2.387c-0.011-0.854,0.673-1.554,1.526-1.563c0.891,0,1.554,0.673,1.563,1.526
	c0.01,0.803,0.015,1.611,0.015,2.423c0.002,3.346-0.086,6.721-0.26,10.031C830.472,337.458,829.789,338.098,828.973,338.098z
	 M44.41,322.808c-0.773,0-1.441-0.579-1.533-1.366c-0.47-4.005-0.842-8.17-1.107-12.38c-0.053-0.852,0.594-1.586,1.446-1.639
	c0.849-0.075,1.586,0.593,1.639,1.445c0.261,4.154,0.628,8.264,1.091,12.214c0.1,0.848-0.507,1.615-1.354,1.715
	C44.531,322.804,44.47,322.808,44.41,322.808z M828.68,313.396c-0.802,0-1.479-0.62-1.539-1.433
	c-0.297-4.03-0.722-8.137-1.261-12.205c-0.112-0.846,0.483-1.623,1.329-1.735c0.854-0.105,1.623,0.483,1.735,1.329
	c0.547,4.127,0.978,8.293,1.278,12.384c0.062,0.851-0.576,1.592-1.428,1.654C828.757,313.394,828.718,313.396,828.68,313.396z
	 M42.837,298.173c-0.842,0-1.532-0.676-1.545-1.521c-0.022-1.456-0.034-2.925-0.034-4.408c0-2.629,0.037-5.325,0.107-8.012
	c0.022-0.854,0.779-1.54,1.585-1.504c0.853,0.022,1.527,0.732,1.504,1.585c-0.07,2.661-0.105,5.329-0.106,7.932
	c0,1.466,0.011,2.919,0.034,4.359c0.013,0.854-0.668,1.556-1.521,1.569C42.853,298.173,42.845,298.173,42.837,298.173z
	 M825.438,288.899c-0.727,0-1.375-0.516-1.516-1.256c-0.771-4.031-1.66-8.064-2.645-11.986c-0.208-0.828,0.295-1.667,1.123-1.875
	c0.83-0.209,1.668,0.296,1.875,1.123c0.998,3.979,1.901,8.07,2.682,12.159c0.16,0.838-0.39,1.648-1.228,1.808
	C825.632,288.889,825.534,288.899,825.438,288.899z M43.469,273.471c-0.033,0-0.066-0.001-0.099-0.003
	c-0.852-0.054-1.499-0.788-1.445-1.64c0.208-3.292,0.47-6.684,0.777-10.082c0.004-0.049,0.011-0.097,0.02-0.145
	c0.029-0.168,0.168-0.966,0.457-2.314c0.179-0.834,1-1.366,1.834-1.188c0.834,0.178,1.367,1,1.188,1.834
	c-0.257,1.204-0.39,1.945-0.426,2.153c-0.303,3.35-0.56,6.692-0.765,9.936C44.958,272.842,44.278,273.471,43.469,273.471z
	 M819.404,264.93c-0.655,0-1.263-0.419-1.473-1.076c-1.63-5.111-2.828-8.029-2.84-8.058c-0.014-0.032-0.025-0.065-0.037-0.099
	c-1.314-3.931-2.731-7.804-4.209-11.513c-0.316-0.793,0.07-1.692,0.863-2.008c0.79-0.315,1.691,0.07,2.008,0.863
	c1.493,3.747,2.924,7.659,4.253,11.628c0.173,0.424,1.331,3.308,2.907,8.247c0.259,0.813-0.189,1.683-1.003,1.942
	C819.717,264.906,819.559,264.93,819.404,264.93z M47.872,249.162c-0.151,0-0.305-0.022-0.457-0.069
	c-0.815-0.252-1.272-1.118-1.02-1.933c1.207-3.902,2.589-7.871,4.107-11.796c0.308-0.796,1.202-1.192,1.999-0.884
	c0.796,0.308,1.192,1.203,0.884,1.999c-1.493,3.86-2.851,7.762-4.037,11.595C49.143,248.737,48.532,249.162,47.872,249.162z
	 M807.356,233.839c-0.578,0-1.133-0.326-1.397-0.884c-1.77-3.733-3.661-7.389-5.621-10.866c-0.419-0.744-0.155-1.686,0.588-2.105
	c0.744-0.417,1.686-0.157,2.105,0.587c1.995,3.541,3.92,7.261,5.721,11.06c0.365,0.771,0.037,1.693-0.734,2.059
	C807.803,233.791,807.577,233.839,807.356,233.839z M56.785,226.076c-0.218,0-0.439-0.046-0.65-0.144
	c-0.774-0.36-1.11-1.279-0.751-2.053c1.751-3.77,3.644-7.516,5.625-11.135c0.409-0.749,1.351-1.023,2.098-0.613
	c0.749,0.41,1.023,1.349,0.613,2.098c-1.949,3.56-3.811,7.245-5.533,10.953C57.926,225.744,57.368,226.076,56.785,226.076z
	 M795.219,212.364c-0.497,0-0.986-0.24-1.284-0.685c-2.286-3.407-4.715-6.721-7.219-9.849c-0.533-0.667-0.425-1.639,0.241-2.172
	s1.638-0.426,2.173,0.241c2.558,3.195,5.037,6.58,7.371,10.059c0.476,0.708,0.287,1.669-0.422,2.144
	C795.815,212.279,795.516,212.364,795.219,212.364z M68.666,204.389c-0.285,0-0.573-0.079-0.831-0.243
	c-0.719-0.46-0.929-1.416-0.47-2.135c2.243-3.508,4.624-6.963,7.079-10.269c0.508-0.685,1.477-0.828,2.162-0.319
	c0.685,0.509,0.828,1.477,0.319,2.162c-2.412,3.248-4.752,6.643-6.956,10.091C69.675,204.137,69.176,204.389,68.666,204.389z
	 M779.789,193.13c-0.406,0-0.812-0.159-1.115-0.476c-2.816-2.935-5.792-5.761-8.844-8.399c-0.646-0.558-0.717-1.534-0.158-2.18
	c0.558-0.645,1.534-0.718,2.18-0.158c3.124,2.7,6.17,5.593,9.053,8.598c0.591,0.616,0.57,1.594-0.045,2.185
	C780.56,192.987,780.174,193.13,779.789,193.13z M83.405,184.557c-0.357,0-0.716-0.123-1.008-0.375
	c-0.647-0.557-0.72-1.533-0.163-2.179c2.71-3.148,5.564-6.223,8.482-9.141c0.604-0.604,1.582-0.604,2.186,0s0.604,1.582,0,2.186
	c-2.864,2.864-5.666,5.883-8.326,8.972C84.271,184.375,83.839,184.557,83.405,184.557z M761.135,177.006
	c-0.311,0-0.624-0.093-0.896-0.287c-3.281-2.338-6.732-4.564-10.256-6.617c-0.738-0.43-0.987-1.375-0.558-2.113
	c0.429-0.737,1.379-0.986,2.112-0.558c3.606,2.1,7.137,4.378,10.494,6.771c0.695,0.496,0.857,1.46,0.362,2.156
	C762.093,176.781,761.617,177.006,761.135,177.006z M100.868,167.104c-0.435,0-0.868-0.183-1.173-0.539
	c-0.556-0.647-0.481-1.624,0.167-2.179c3.146-2.699,6.431-5.307,9.764-7.75c0.688-0.503,1.655-0.356,2.16,0.333
	c0.504,0.688,0.355,1.655-0.333,2.16c-3.27,2.396-6.493,4.955-9.579,7.603C101.583,166.982,101.225,167.104,100.868,167.104z
	 M739.829,164.575c-0.221,0-0.444-0.047-0.657-0.148c-3.615-1.703-7.403-3.301-11.262-4.751c-0.799-0.3-1.203-1.191-0.902-1.991
	c0.3-0.799,1.189-1.204,1.99-0.903c3.936,1.479,7.802,3.111,11.49,4.849c0.772,0.364,1.104,1.285,0.74,2.057
	C740.965,164.247,740.409,164.575,739.829,164.575z M470.902,158.903h-0.397c-4.021,0-8.055-0.051-11.986-0.152
	c-0.853-0.022-1.527-0.731-1.505-1.584c0.022-0.854,0.755-1.52,1.585-1.505c3.905,0.101,7.911,0.151,11.906,0.151h0.397
	c0.854,0,1.546,0.692,1.546,1.545S471.755,158.903,470.902,158.903z M483.259,158.737c-0.835,0-1.522-0.666-1.544-1.506
	c-0.021-0.853,0.652-1.562,1.505-1.584c4.038-0.104,8.181-0.259,12.312-0.462c0.874-0.056,1.578,0.615,1.62,1.468
	c0.041,0.853-0.615,1.578-1.469,1.619c-4.155,0.204-8.321,0.36-12.383,0.465C483.286,158.737,483.273,158.737,483.259,158.737z
	 M446.223,158.264c-0.027,0-0.056,0-0.084-0.002c-4.126-0.221-8.285-0.503-12.36-0.84c-0.851-0.07-1.483-0.816-1.413-1.667
	c0.069-0.852,0.823-1.494,1.667-1.413c4.046,0.334,8.175,0.614,12.272,0.834c0.852,0.045,1.506,0.773,1.46,1.625
	C447.721,157.626,447.039,158.264,446.223,158.264z M507.94,157.533c-0.804,0-1.482-0.622-1.54-1.437
	c-0.06-0.852,0.582-1.59,1.433-1.65c4.025-0.285,8.159-0.619,12.287-0.995c0.839-0.075,1.602,0.549,1.679,1.399
	c0.077,0.85-0.549,1.602-1.399,1.679c-4.148,0.377-8.303,0.714-12.348,1C508.014,157.532,507.977,157.533,507.94,157.533z
	 M421.622,156.233c-0.058,0-0.115-0.003-0.174-0.01c-4.052-0.454-8.187-0.976-12.29-1.554c-0.845-0.119-1.434-0.9-1.315-1.746
	c0.119-0.846,0.904-1.432,1.746-1.315c4.075,0.574,8.18,1.093,12.203,1.543c0.848,0.095,1.459,0.859,1.364,1.708
	C423.067,155.65,422.398,156.233,421.622,156.233z M716.743,155.864c-0.145,0-0.292-0.021-0.438-0.063
	c-3.82-1.125-7.811-2.157-11.861-3.067c-0.833-0.187-1.356-1.014-1.169-1.847c0.187-0.833,1.013-1.361,1.847-1.169
	c4.116,0.925,8.173,1.974,12.057,3.118c0.818,0.241,1.287,1.1,1.046,1.919C718.027,155.427,717.41,155.864,716.743,155.864z
	 M532.554,155.316c-0.781,0-1.452-0.591-1.535-1.385c-0.089-0.849,0.528-1.609,1.377-1.697c4.072-0.424,8.172-0.861,12.292-1.304
	c0.831-0.087,1.61,0.522,1.702,1.372c0.091,0.849-0.523,1.61-1.372,1.702c-4.124,0.442-8.226,0.88-12.302,1.305
	C532.661,155.314,532.608,155.316,532.554,155.316z M397.175,152.795c-0.085,0-0.172-0.007-0.259-0.022
	c-3.939-0.664-8.039-1.406-12.183-2.206c-0.838-0.162-1.386-0.972-1.225-1.811c0.162-0.837,0.971-1.388,1.811-1.225
	c4.12,0.795,8.195,1.533,12.111,2.193c0.842,0.142,1.409,0.939,1.267,1.781C398.57,152.261,397.916,152.795,397.175,152.795z
	 M557.143,152.694c-0.78,0-1.45-0.588-1.535-1.381c-0.09-0.849,0.524-1.61,1.373-1.701c4.086-0.437,8.188-0.869,12.302-1.29
	c0.85-0.085,1.608,0.531,1.694,1.38c0.087,0.849-0.53,1.608-1.38,1.695c-4.109,0.42-8.206,0.853-12.288,1.288
	C557.253,152.691,557.198,152.694,557.143,152.694z M120.771,152.518c-0.517,0-1.021-0.259-1.314-0.73
	c-0.45-0.725-0.228-1.678,0.498-2.128c3.501-2.175,7.143-4.25,10.823-6.168c0.758-0.394,1.691-0.1,2.085,0.656
	c0.395,0.757,0.101,1.69-0.656,2.085c-3.612,1.882-7.186,3.918-10.621,6.053C121.331,152.443,121.049,152.518,120.771,152.518z
	 M692.656,150.418c-0.084,0-0.168-0.007-0.254-0.021c-3.93-0.648-8.021-1.216-12.162-1.687c-0.848-0.097-1.457-0.862-1.36-1.71
	s0.86-1.462,1.71-1.361c4.191,0.477,8.335,1.052,12.316,1.708c0.842,0.139,1.412,0.935,1.272,1.776
	C694.055,149.881,693.4,150.418,692.656,150.418z M581.74,150.19c-0.788,0-1.461-0.6-1.537-1.4c-0.08-0.85,0.544-1.604,1.394-1.684
	c4.359-0.413,8.393-0.772,12.328-1.1c0.841-0.075,1.597,0.562,1.668,1.412s-0.562,1.597-1.412,1.668
	c-3.924,0.327-7.945,0.686-12.293,1.097C581.837,150.188,581.788,150.19,581.74,150.19z M606.373,148.154
	c-0.805,0-1.484-0.625-1.54-1.44c-0.059-0.852,0.585-1.589,1.437-1.647c4.241-0.29,8.4-0.537,12.364-0.733
	c0.852-0.05,1.578,0.615,1.62,1.467c0.042,0.853-0.615,1.578-1.468,1.62c-3.943,0.196-8.084,0.441-12.306,0.73
	C606.445,148.153,606.409,148.154,606.373,148.154z M372.93,148.134c-0.106,0-0.215-0.011-0.324-0.034
	c-3.716-0.792-7.667-1.664-12.076-2.665c-0.832-0.189-1.354-1.017-1.165-1.85c0.188-0.832,1.017-1.354,1.849-1.165
	c4.396,0.998,8.333,1.867,12.036,2.656c0.834,0.178,1.367,0.999,1.189,1.834C374.286,147.636,373.644,148.134,372.93,148.134z
	 M668.113,147.595c-0.036,0-0.073-0.001-0.109-0.004c-3.964-0.277-8.097-0.486-12.285-0.622c-0.854-0.027-1.522-0.741-1.495-1.594
	c0.028-0.853,0.738-1.549,1.595-1.495c4.227,0.136,8.399,0.348,12.4,0.627c0.852,0.06,1.494,0.798,1.435,1.649
	C669.595,146.972,668.916,147.595,668.113,147.595z M631.055,146.946c-0.834,0-1.521-0.665-1.544-1.504
	c-0.023-0.853,0.65-1.563,1.503-1.586c4.187-0.113,8.324-0.17,12.298-0.17c0.854,0,1.595,0.692,1.595,1.545
	c0,0.853-0.644,1.545-1.497,1.545v-1.545l-0.075,1.546c-3.969,0-8.078,0.057-12.236,0.169
	C631.083,146.946,631.07,146.946,631.055,146.946z M348.845,142.694c-0.117,0-0.235-0.013-0.353-0.041l-3.918-0.917
	c-2.701-0.632-5.4-1.264-8.103-1.892c-0.832-0.193-1.349-1.023-1.156-1.855c0.193-0.832,1.021-1.35,1.855-1.156
	c2.704,0.628,5.405,1.26,8.107,1.893l3.917,0.917c0.831,0.194,1.348,1.025,1.153,1.856
	C350.182,142.212,349.547,142.694,348.845,142.694z M142.638,141.114c-0.598,0-1.168-0.35-1.42-0.934
	c-0.338-0.784,0.024-1.693,0.808-2.031c3.766-1.623,7.668-3.143,11.599-4.518c0.805-0.283,1.687,0.143,1.969,0.949
	c0.282,0.806-0.143,1.687-0.949,1.969c-3.862,1.351-7.696,2.844-11.396,4.438C143.05,141.073,142.842,141.114,142.638,141.114z
	 M324.791,137.142c-0.111,0-0.224-0.012-0.337-0.037c-4.317-0.961-8.257-1.807-12.045-2.585c-0.836-0.172-1.375-0.989-1.203-1.825
	c0.171-0.836,0.99-1.372,1.825-1.203c3.805,0.782,7.761,1.631,12.095,2.595c0.833,0.186,1.358,1.011,1.172,1.845
	C326.137,136.652,325.499,137.142,324.791,137.142z M165.91,132.958c-0.678,0-1.299-0.449-1.489-1.134
	c-0.227-0.823,0.255-1.674,1.078-1.901c3.938-1.088,8.004-2.073,12.085-2.929c0.836-0.175,1.654,0.36,1.83,1.196
	c0.175,0.835-0.36,1.654-1.196,1.83c-4.018,0.842-8.02,1.812-11.896,2.883C166.185,132.94,166.047,132.958,165.91,132.958z
	 M300.603,132.195c-0.092,0-0.186-0.008-0.279-0.025c-4.104-0.75-8.186-1.44-12.131-2.052c-0.843-0.131-1.421-0.921-1.29-1.765
	c0.131-0.843,0.921-1.422,1.765-1.29c3.972,0.617,8.081,1.312,12.211,2.066c0.84,0.153,1.396,0.958,1.243,1.798
	C301.986,131.673,301.335,132.195,300.603,132.195z M276.208,128.42c-0.064,0-0.128-0.004-0.194-0.012
	c-4.071-0.509-8.183-0.959-12.223-1.337c-0.85-0.08-1.474-0.833-1.395-1.683c0.079-0.85,0.84-1.479,1.683-1.395
	c4.071,0.381,8.216,0.834,12.318,1.347c0.847,0.106,1.448,0.878,1.342,1.726C277.641,127.848,276.976,128.42,276.208,128.42z
	 M190.045,127.881c-0.753,0-1.413-0.551-1.527-1.318c-0.125-0.844,0.457-1.63,1.301-1.756c4.022-0.599,8.172-1.1,12.334-1.488
	c0.844-0.084,1.603,0.545,1.682,1.395c0.08,0.85-0.545,1.603-1.395,1.682c-4.106,0.383-8.199,0.877-12.166,1.468
	C190.197,127.875,190.12,127.881,190.045,127.881z M251.63,126.119c-0.032,0-0.064-0.001-0.097-0.003
	c-4.058-0.252-8.19-0.445-12.283-0.574c-0.854-0.027-1.523-0.74-1.496-1.593c0.026-0.854,0.771-1.521,1.593-1.497
	c4.124,0.13,8.289,0.325,12.377,0.579c0.852,0.053,1.5,0.787,1.447,1.638C253.12,125.489,252.44,126.119,251.63,126.119z
	 M214.607,125.571c-0.824,0-1.508-0.649-1.543-1.48c-0.036-0.853,0.625-1.573,1.479-1.609c3.54-0.15,7.172-0.229,10.797-0.235
	l0.713,0l0.899,0.001c0.854,0.001,1.544,0.694,1.543,1.548c-0.001,0.853-0.693,1.543-1.545,1.543c-0.001,0-0.001,0-0.002,0
	l-0.895-0.001l-0.707,0c-3.584,0.006-7.174,0.084-10.672,0.232C214.651,125.571,214.629,125.571,214.607,125.571z"/>
<g>
	
		<polyline fill="none" stroke="#EB8E7C" stroke-width="4" stroke-linecap="round" stroke-linejoin="round" stroke-miterlimit="10" points="
		170.747,123.791 178.178,128.159 173.811,135.589 	"/>
	<path fill="none" stroke="#EB8E7C" stroke-width="4" stroke-linecap="round" stroke-linejoin="round" stroke-miterlimit="10" d="
		M177.772,128.554c0,0-18.356,2.566-36.256,12.054"/>
</g>
<g>
	
		<polyline fill="none" stroke="#EB8E7C" stroke-width="4" stroke-linecap="round" stroke-linejoin="round" stroke-miterlimit="10" points="
		539.775,158.975 544.941,152.077 538.041,146.911 	"/>
	<path fill="none" stroke="#EB8E7C" stroke-width="4" stroke-linecap="round" stroke-linejoin="round" stroke-miterlimit="10" d="
		M544.416,151.87c0,0-19.052,4.248-38.101,4.229"/>
</g>
<g>
	
		<polyline fill="none" stroke="#EB8E7C" stroke-width="4" stroke-linecap="round" stroke-linejoin="round" stroke-miterlimit="10" points="
		317.627,452.544 310.834,457.849 316.141,464.641 	"/>
	<path fill="none" stroke="#EB8E7C" stroke-width="4" stroke-linecap="round" stroke-linejoin="round" stroke-miterlimit="10" d="
		M311.289,458.188c0,0,18.537,0.134,37.524,7.188"/>
</g>
<g>
	
		<polyline fill="none" stroke="#EB8E7C" stroke-width="4" stroke-linecap="round" stroke-linejoin="round" stroke-miterlimit="10" points="
		767.361,463.442 758.816,462.301 759.952,453.76 	"/>
	<path fill="none" stroke="#EB8E7C" stroke-width="4" stroke-linecap="round" stroke-linejoin="round" stroke-miterlimit="10" d="
		M759.036,461.78c0,0,15.918-9.496,28.729-25.188"/>
</g>
</svg>
