<?xml version="1.0" encoding="utf-8"?>
<!-- Generator: Adobe Illustrator 15.0.2, SVG Export Plug-In . SVG Version: 6.00 Build 0)  -->
<!DOCTYPE svg PUBLIC "-//W3C//DTD SVG 1.1//EN" "http://www.w3.org/Graphics/SVG/1.1/DTD/svg11.dtd">
<svg version="1.1" id="Lager_1" xmlns="http://www.w3.org/2000/svg" xmlns:xlink="http://www.w3.org/1999/xlink" x="0px" y="0px"
	 width="845.578px" height="557.83px" viewBox="0 0 845.578 557.83" enable-background="new 0 0 845.578 557.83"
	 xml:space="preserve">
<g>
	<g>
		<g>
			<path fill="#A8D9F4" d="M18.375,50.495v-9.384c-0.168-2.793-0.201-2.911-4.664-3.678C2.3,35.483,3.968,19.997,3.968,19.997
				s11.304-0.026,14.768,7.256c0,0,1.5,3.572,1.5,11.422v11.82H18.375z"/>
		</g>
	</g>
	<g>
		<g>
			<path fill="#A8D9F4" d="M23.761,50.495v-3.464c0.169-2.793,0.199-2.911,4.662-3.676c11.411-1.951,9.743-17.438,9.743-17.438
				s-11.302-0.028-14.766,7.256c0,0-1.5,3.57-1.5,11.421v5.899L23.761,50.495L23.761,50.495z"/>
		</g>
	</g>
</g>
<g>
	<g>
		<g>
			<path fill="#A8D9F4" d="M69.353,37.406v-9.383c-0.168-2.793-0.201-2.912-4.664-3.678c-11.411-1.951-9.743-17.438-9.743-17.438
				s11.302-0.027,14.766,7.256c0,0,1.5,3.571,1.5,11.422v11.819L69.353,37.406L69.353,37.406z"/>
		</g>
	</g>
	<g>
		<g>
			<path fill="#A8D9F4" d="M74.739,37.406v-3.463c0.169-2.793,0.201-2.912,4.664-3.676c11.411-1.951,9.743-17.438,9.743-17.438
				S77.844,12.8,74.379,20.085c0,0-1.5,3.569-1.5,11.42v5.899L74.739,37.406L74.739,37.406z"/>
		</g>
	</g>
</g>
<g>
	<g>
		<g>
			<path fill="#A8D9F4" d="M825.7,281.053v-9.385c-0.168-2.793-0.201-2.912-4.664-3.677c-11.408-1.951-9.74-17.438-9.74-17.438
				s11.301-0.028,14.766,7.256c0,0,1.5,3.57,1.5,11.421v11.821L825.7,281.053L825.7,281.053z"/>
		</g>
	</g>
	<g>
		<g>
			<path fill="#A8D9F4" d="M831.089,281.053v-3.464c0.168-2.793,0.199-2.911,4.663-3.677c11.409-1.951,9.741-17.438,9.741-17.438
				s-11.301-0.028-14.766,7.256c0,0-1.5,3.571-1.5,11.421v5.9L831.089,281.053L831.089,281.053z"/>
		</g>
	</g>
</g>
<g>
	<g>
		<g>
			<path fill="#A8D9F4" d="M775.226,296.302v-9.385c-0.168-2.793-0.201-2.912-4.664-3.677c-11.412-1.951-9.744-17.438-9.744-17.438
				s11.303-0.028,14.768,7.256c0,0,1.5,3.57,1.5,11.421v11.821L775.226,296.302L775.226,296.302z"/>
		</g>
	</g>
	<g>
		<g>
			<path fill="#A8D9F4" d="M780.61,296.302v-3.464c0.17-2.793,0.201-2.911,4.664-3.677c11.412-1.951,9.744-17.438,9.744-17.438
				s-11.303-0.028-14.766,7.256c0,0-1.5,3.571-1.5,11.421v5.899L780.61,296.302L780.61,296.302z"/>
		</g>
	</g>
</g>
<g>
	<g>
		<g>
			<path fill="#A8D9F4" d="M65.802,406.849v-9.384c-0.17-2.793-0.201-2.912-4.664-3.679c-11.412-1.949-9.742-17.438-9.742-17.438
				s11.301-0.028,14.764,7.256c0,0,1.5,3.571,1.5,11.421v11.821L65.802,406.849L65.802,406.849z"/>
		</g>
	</g>
	<g>
		<g>
			<path fill="#A8D9F4" d="M71.187,406.849v-3.463c0.17-2.793,0.201-2.912,4.664-3.679c11.412-1.949,9.744-17.438,9.744-17.438
				s-11.305-0.028-14.768,7.256c0,0-1.5,3.571-1.5,11.421v5.9L71.187,406.849L71.187,406.849z"/>
		</g>
	</g>
</g>
<g>
	<g>
		<g>
			<path fill="#A8D9F4" d="M14.492,424.809v-9.384c-0.168-2.793-0.201-2.912-4.664-3.679c-11.41-1.949-9.742-17.438-9.742-17.438
				s11.303-0.028,14.768,7.256c0,0,1.5,3.571,1.5,11.421v11.821L14.492,424.809L14.492,424.809z"/>
		</g>
	</g>
	<g>
		<g>
			<path fill="#A8D9F4" d="M19.878,424.809v-3.463c0.168-2.793,0.201-2.912,4.664-3.677c11.41-1.951,9.742-17.438,9.742-17.438
				s-11.301-0.028-14.766,7.256c0,0-1.5,3.571-1.5,11.421v5.9L19.878,424.809L19.878,424.809z"/>
		</g>
	</g>
</g>
<path fill="#A8D9F4" d="M820.493,504.357c-1.193,0-2.348,0.187-3.432,0.524c-0.34-5.283-4.268-9.589-9.371-10.508
	c0-0.001,0-0.003,0-0.003c-0.74-0.214-2.035-0.181-2.035-0.181c-6.312,0-11.434,5.118-11.434,11.433c0,1.277,0.213,2.507,0.6,3.652
	c-6.283,0.035-11.367,5.139-11.367,11.432c0,6.313,5.119,11.434,11.436,11.434c2.115,0,4.096-0.576,5.795-1.579
	c0.119,0.17,0.242,0.335,0.367,0.497c0.039,0.05,0.08,0.099,0.119,0.146c0.092,0.113,0.186,0.227,0.279,0.336
	c0.045,0.054,0.092,0.104,0.139,0.155c0.102,0.111,0.205,0.222,0.309,0.327c0.041,0.042,0.08,0.084,0.121,0.124
	c0.145,0.146,0.295,0.287,0.447,0.424c0.021,0.021,0.047,0.039,0.066,0.061c0.133,0.116,0.27,0.229,0.404,0.34
	c0.053,0.041,0.105,0.081,0.156,0.121c0.115,0.089,0.229,0.175,0.348,0.259c0.057,0.04,0.111,0.079,0.168,0.118
	c0.131,0.091,0.264,0.177,0.398,0.262c0.041,0.026,0.082,0.053,0.123,0.078c0.178,0.108,0.354,0.211,0.539,0.31
	c0.041,0.022,0.084,0.044,0.127,0.064c0.143,0.074,0.285,0.146,0.432,0.215c0.047,0.021,0.094,0.044,0.141,0.065h-0.092v23.367
	h2.414h2.414v-22.354c5.203-0.014,9.586-3.503,10.955-8.269c6.051-0.295,10.867-5.294,10.867-11.418
	C831.927,509.476,826.808,504.357,820.493,504.357z"/>
<path fill="#A8D9F4" d="M762.558,455.079c-1.195,0-2.349,0.187-3.433,0.524c-0.341-5.283-4.269-9.588-9.37-10.506
	c0-0.001,0-0.003,0-0.003c-0.74-0.214-2.035-0.183-2.035-0.183c-6.314,0-11.436,5.118-11.436,11.435c0,1.275,0.214,2.505,0.602,3.65
	c-6.283,0.035-11.367,5.141-11.367,11.433c0,6.312,5.119,11.433,11.434,11.433c2.115,0,4.098-0.576,5.796-1.579
	c0.118,0.17,0.241,0.335,0.366,0.497c0.039,0.05,0.08,0.101,0.119,0.147c0.092,0.113,0.188,0.226,0.281,0.336
	c0.045,0.053,0.092,0.104,0.137,0.156c0.104,0.109,0.205,0.22,0.311,0.325c0.041,0.042,0.08,0.084,0.121,0.124
	c0.145,0.146,0.295,0.287,0.445,0.426c0.023,0.021,0.047,0.038,0.068,0.059c0.133,0.116,0.268,0.229,0.404,0.34
	c0.053,0.041,0.104,0.081,0.154,0.121c0.115,0.089,0.23,0.175,0.35,0.259c0.057,0.04,0.109,0.079,0.168,0.118
	c0.131,0.091,0.264,0.177,0.396,0.262c0.041,0.026,0.082,0.055,0.123,0.078c0.178,0.108,0.355,0.211,0.539,0.311
	c0.041,0.021,0.084,0.043,0.127,0.063c0.145,0.074,0.285,0.146,0.434,0.215c0.047,0.021,0.094,0.044,0.141,0.065h-0.092v23.367
	h2.414h2.414v-22.354c5.202-0.014,9.586-3.503,10.955-8.269c6.051-0.295,10.865-5.294,10.865-11.418
	C773.991,460.198,768.872,455.079,762.558,455.079z"/>
<g>
	<path fill="#A8D9F4" d="M32.216,361.567c-1.34,2.875-1.34,11.743-1.361,13.26l0.021,3.441l1.777-0.007l-0.014-3.276
		c0.404-2.794,0.164-2.819,4.506-3.584c11.018-1.957,9.314-16.938,9.314-16.938S35.52,354.502,32.216,361.567z"/>
	<path fill="#A8D9F4" d="M29.173,366.359v0.002c-0.003-0.1-0.008-0.215-0.012-0.317c-0.004-0.139-0.01-0.277-0.014-0.421
		c-0.02-0.459-0.039-0.938-0.066-1.438c-0.004-0.097-0.01-0.19-0.014-0.288c-0.014-0.225-0.028-0.449-0.042-0.679
		c-0.019-0.24-0.034-0.481-0.052-0.727c-0.015-0.175-0.024-0.346-0.038-0.521c-0.036-0.427-0.075-0.854-0.12-1.271
		c-0.01-0.089-0.021-0.173-0.029-0.262c-0.043-0.382-0.091-0.757-0.143-1.123c-0.013-0.078-0.021-0.154-0.033-0.229
		c-0.064-0.435-0.135-0.852-0.213-1.238c-0.004-0.017-0.008-0.032-0.01-0.05c-0.074-0.356-0.154-0.686-0.242-0.989
		c-0.021-0.07-0.041-0.14-0.062-0.208c-0.097-0.31-0.193-0.599-0.309-0.836c-3.36-7.047-14.312-7.002-14.312-7.002
		s-1.593,14.991,9.455,16.874c4.33,0.737,4.104,0.76,4.528,3.551l0.032,9.092l1.789-0.011l-0.043-9.256
		C29.222,368.597,29.21,367.611,29.173,366.359z"/>
	<path fill="#A8D9F4" d="M30.853,350.737c4.34,0,7.854-4.02,7.854-8.979v-11.115l-7.854,5.994L23,330.644v11.115
		C23,346.719,26.521,350.737,30.853,350.737z"/>
</g>
<g>
	<path fill="#A8D9F4" d="M711.859,527.861c-1.34,2.875-1.34,11.743-1.363,13.26l0.023,3.441l1.777-0.007l-0.016-3.276
		c0.406-2.794,0.164-2.817,4.506-3.584c11.02-1.957,9.316-16.938,9.316-16.938S715.164,520.796,711.859,527.861z"/>
	<path fill="#A8D9F4" d="M708.816,532.653v0.002c-0.002-0.1-0.008-0.215-0.012-0.317c-0.004-0.139-0.011-0.277-0.016-0.419
		c-0.018-0.459-0.039-0.938-0.064-1.438c-0.004-0.097-0.01-0.189-0.015-0.288c-0.015-0.225-0.026-0.449-0.041-0.679
		c-0.019-0.24-0.034-0.481-0.054-0.727c-0.012-0.175-0.021-0.346-0.037-0.521c-0.036-0.427-0.075-0.854-0.12-1.271
		c-0.011-0.089-0.021-0.173-0.028-0.262c-0.043-0.382-0.09-0.757-0.145-1.123c-0.01-0.078-0.02-0.153-0.031-0.229
		c-0.064-0.435-0.137-0.852-0.215-1.238c-0.004-0.017-0.008-0.032-0.01-0.05c-0.074-0.356-0.153-0.686-0.242-0.989
		c-0.02-0.07-0.041-0.14-0.061-0.208c-0.096-0.31-0.195-0.599-0.31-0.836c-3.358-7.047-14.312-7.002-14.312-7.002
		s-1.592,14.991,9.455,16.874c4.33,0.737,4.104,0.76,4.529,3.551l0.029,9.092l1.789-0.011l-0.043-9.256
		C708.865,534.891,708.854,533.905,708.816,532.653z"/>
	<path fill="#A8D9F4" d="M710.496,517.031c4.342,0,7.854-4.02,7.854-8.979v-11.115l-7.854,5.994l-7.854-5.994v11.115
		C702.643,513.012,706.164,517.031,710.496,517.031z"/>
</g>
<g>
	<path fill="#A8D9F4" d="M772.697,30.924c-1.34,2.875-1.34,11.743-1.361,13.261l0.021,3.44l1.777-0.007l-0.016-3.276
		c0.406-2.794,0.164-2.818,4.507-3.584c11.019-1.956,9.315-16.939,9.315-16.939S776.004,23.857,772.697,30.924z"/>
	<path fill="#A8D9F4" d="M769.654,35.716v0.003c-0.002-0.101-0.008-0.216-0.012-0.319c-0.004-0.137-0.01-0.276-0.014-0.419
		c-0.02-0.459-0.039-0.938-0.066-1.438c-0.004-0.098-0.01-0.189-0.014-0.288c-0.016-0.226-0.027-0.448-0.041-0.679
		c-0.02-0.24-0.035-0.48-0.055-0.726c-0.012-0.176-0.021-0.347-0.036-0.521c-0.036-0.428-0.075-0.853-0.12-1.271
		c-0.012-0.089-0.021-0.174-0.029-0.263c-0.043-0.382-0.09-0.757-0.144-1.123c-0.011-0.077-0.021-0.153-0.032-0.229
		c-0.064-0.433-0.137-0.851-0.213-1.237c-0.006-0.018-0.01-0.032-0.012-0.051c-0.072-0.355-0.152-0.684-0.241-0.988
		c-0.021-0.069-0.041-0.141-0.062-0.208c-0.096-0.311-0.195-0.6-0.309-0.836c-3.359-7.047-14.312-7.002-14.312-7.002
		s-1.592,14.99,9.455,16.874c4.33,0.736,4.104,0.76,4.529,3.551l0.03,9.093l1.789-0.012l-0.044-9.256
		C769.703,37.953,769.691,36.969,769.654,35.716z"/>
	<path fill="#A8D9F4" d="M771.336,20.094c4.34,0,7.854-4.021,7.854-8.979V0l-7.854,5.994L763.48,0v11.114
		C763.48,16.073,767.004,20.094,771.336,20.094z"/>
</g>
<g>
	<path fill="#A8D9F4" d="M814.045,54.188c-1.342,2.875-1.342,11.743-1.363,13.26l0.021,3.441l1.777-0.008l-0.014-3.275
		c0.404-2.794,0.164-2.818,4.506-3.584c11.018-1.957,9.314-16.939,9.314-16.939S817.348,47.122,814.045,54.188z"/>
	<path fill="#A8D9F4" d="M811.001,58.98v0.002c-0.003-0.101-0.009-0.215-0.013-0.318c-0.004-0.138-0.01-0.276-0.014-0.419
		c-0.02-0.459-0.039-0.938-0.066-1.438c-0.004-0.098-0.01-0.189-0.014-0.288c-0.014-0.226-0.027-0.449-0.041-0.68
		c-0.018-0.239-0.035-0.48-0.053-0.726c-0.014-0.175-0.023-0.346-0.037-0.521c-0.037-0.428-0.076-0.853-0.121-1.271
		c-0.01-0.089-0.021-0.173-0.029-0.262c-0.043-0.382-0.09-0.757-0.143-1.123c-0.01-0.078-0.021-0.153-0.033-0.229
		c-0.062-0.434-0.135-0.851-0.213-1.237c-0.004-0.018-0.008-0.032-0.01-0.051c-0.074-0.355-0.154-0.685-0.242-0.988
		c-0.021-0.07-0.041-0.141-0.062-0.208c-0.096-0.311-0.193-0.6-0.309-0.836c-3.359-7.048-14.312-7.002-14.312-7.002
		s-1.593,14.99,9.455,16.874c4.329,0.736,4.104,0.76,4.528,3.551l0.031,9.092l1.789-0.011l-0.043-9.256
		C811.051,61.219,811.037,60.232,811.001,58.98z"/>
	<path fill="#A8D9F4" d="M812.68,43.358c4.34,0,7.854-4.021,7.854-8.979V23.265l-7.854,5.993l-7.854-5.993V34.38
		C804.826,39.339,808.348,43.358,812.68,43.358z"/>
</g>
<path fill="#FFFFFF" d="M452.431,518.453c-2.208,0-4.426-0.012-6.654-0.037c-0.828-0.009-1.492-0.688-1.482-1.516
	c0.009-0.822,0.678-1.483,1.499-1.483c0.005,0,0.011,0.001,0.017,0.001c4.021,0.043,8.009,0.045,11.962,0.013
	c0.004-0.001,0.009-0.001,0.013-0.001c0.822,0,1.492,0.663,1.5,1.486c0.007,0.829-0.658,1.506-1.486,1.513
	C456.016,518.445,454.228,518.453,452.431,518.453z M469.771,518.199c-0.808,0-1.474-0.644-1.498-1.456
	c-0.024-0.828,0.627-1.519,1.455-1.543c3.988-0.117,8.009-0.279,11.948-0.483c0.847-0.073,1.532,0.594,1.574,1.42
	c0.043,0.826-0.593,1.532-1.42,1.574c-3.961,0.206-8.004,0.369-12.015,0.487C469.802,518.198,469.786,518.199,469.771,518.199z
	 M433.806,518.179c-0.014,0-0.027-0.001-0.041-0.001c-3.961-0.106-7.966-0.225-12.008-0.359c-0.828-0.028-1.477-0.722-1.449-1.549
	c0.027-0.828,0.716-1.462,1.548-1.449c4.036,0.135,8.035,0.253,11.988,0.359c0.828,0.022,1.481,0.712,1.459,1.539
	C435.283,517.534,434.616,518.179,433.806,518.179z M409.814,517.369c-0.021,0-0.042-0.001-0.064-0.002
	c-3.975-0.167-7.979-0.354-12.005-0.569c-0.827-0.044-1.462-0.75-1.418-1.577s0.763-1.469,1.577-1.417
	c4.016,0.213,8.008,0.4,11.972,0.567c0.828,0.034,1.47,0.733,1.435,1.562C411.278,516.738,410.614,517.369,409.814,517.369z
	 M493.718,516.954c-0.776,0-1.435-0.6-1.493-1.388c-0.062-0.826,0.557-1.546,1.383-1.607c3.981-0.3,7.987-0.652,11.906-1.048
	c0.811-0.08,1.56,0.517,1.643,1.342c0.083,0.824-0.518,1.56-1.342,1.643c-3.944,0.397-7.976,0.753-11.982,1.054
	C493.794,516.952,493.756,516.954,493.718,516.954z M385.845,516.091c-0.033,0-0.066-0.002-0.1-0.004
	c-4.063-0.268-8.097-0.562-11.991-0.875c-0.825-0.066-1.44-0.79-1.374-1.615c0.066-0.826,0.779-1.439,1.615-1.375
	c3.879,0.312,7.898,0.606,11.947,0.873c0.826,0.055,1.452,0.769,1.397,1.595C387.288,515.482,386.628,516.091,385.845,516.091z
	 M517.572,514.54c-0.743,0-1.389-0.553-1.485-1.309c-0.105-0.822,0.475-1.573,1.296-1.679c3.994-0.513,7.973-1.082,11.826-1.692
	c0.813-0.121,1.586,0.429,1.716,1.247c0.129,0.818-0.429,1.586-1.247,1.716c-3.882,0.614-7.89,1.188-11.912,1.704
	C517.7,514.536,517.635,514.54,517.572,514.54z M361.949,514.155c-0.049,0-0.098-0.003-0.147-0.008
	c-4.04-0.395-8.06-0.824-11.949-1.278c-0.823-0.096-1.412-0.841-1.315-1.663c0.096-0.823,0.843-1.41,1.663-1.315
	c3.871,0.451,7.872,0.88,11.892,1.272c0.825,0.08,1.427,0.813,1.347,1.638C363.365,513.576,362.712,514.155,361.949,514.155z
	 M338.124,511.363c-0.068,0-0.138-0.005-0.208-0.015c-4.042-0.56-8.05-1.163-11.915-1.791c-0.817-0.134-1.373-0.904-1.239-1.722
	c0.133-0.816,0.902-1.365,1.721-1.239c3.841,0.625,7.827,1.225,11.845,1.781c0.821,0.113,1.394,0.871,1.28,1.691
	C339.503,510.819,338.861,511.363,338.124,511.363z M541.253,510.785c-0.705,0-1.334-0.5-1.471-1.219
	c-0.155-0.813,0.378-1.6,1.191-1.754c3.947-0.753,7.88-1.571,11.688-2.432c0.803-0.176,1.61,0.324,1.793,1.133
	c0.183,0.808-0.324,1.61-1.133,1.793c-3.841,0.867-7.807,1.692-11.786,2.451C541.44,510.776,541.346,510.785,541.253,510.785z
	 M314.403,507.492c-0.093,0-0.187-0.009-0.281-0.026c-3.977-0.756-7.945-1.569-11.795-2.417c-0.809-0.179-1.32-0.979-1.142-1.787
	c0.178-0.81,0.976-1.318,1.787-1.143c3.821,0.843,7.761,1.649,11.709,2.399c0.814,0.155,1.348,0.939,1.193,1.754
	C315.738,506.991,315.109,507.492,314.403,507.492z M564.634,505.491c-0.664,0-1.271-0.444-1.448-1.116
	c-0.212-0.801,0.265-1.621,1.065-1.833c3.871-1.025,7.729-2.129,11.467-3.28c0.793-0.24,1.631,0.2,1.875,0.992
	c0.243,0.791-0.201,1.631-0.992,1.874c-3.775,1.163-7.673,2.278-11.582,3.312C564.889,505.474,564.76,505.491,564.634,505.491z
	 M290.98,502.311c-0.123,0-0.247-0.016-0.372-0.047c-3.938-1.004-7.847-2.074-11.619-3.183c-0.795-0.233-1.25-1.066-1.017-1.861
	c0.233-0.794,1.067-1.252,1.861-1.016c3.738,1.098,7.612,2.158,11.515,3.153c0.802,0.205,1.287,1.021,1.083,1.823
	C292.259,501.86,291.649,502.311,290.98,502.311z M587.535,498.425c-0.616,0-1.194-0.383-1.413-0.997
	c-0.277-0.78,0.13-1.638,0.91-1.916c3.778-1.344,7.522-2.774,11.13-4.253c0.766-0.312,1.642,0.054,1.956,0.819
	c0.313,0.767-0.053,1.642-0.819,1.956c-3.65,1.496-7.439,2.943-11.261,4.304C587.872,498.396,587.702,498.425,587.535,498.425z
	 M267.974,495.538c-0.159,0-0.321-0.025-0.479-0.079c-3.858-1.303-7.672-2.683-11.336-4.103c-0.772-0.3-1.155-1.168-0.856-1.94
	c0.299-0.771,1.167-1.153,1.94-0.856c3.623,1.404,7.395,2.77,11.211,4.058c0.784,0.265,1.206,1.116,0.941,1.9
	C269.184,495.143,268.6,495.538,267.974,495.538z M609.703,489.327c-0.563,0-1.103-0.318-1.358-0.862
	c-0.352-0.749-0.03-1.643,0.72-1.995c3.623-1.703,7.199-3.504,10.627-5.353c0.729-0.393,1.638-0.12,2.032,0.608
	c0.393,0.729,0.12,1.639-0.608,2.032c-3.477,1.874-7.103,3.699-10.775,5.427C610.134,489.281,609.917,489.327,609.703,489.327z
	 M245.629,486.861c-0.204,0-0.41-0.042-0.608-0.13c-3.709-1.648-7.373-3.395-10.892-5.188c-0.738-0.376-1.031-1.279-0.655-2.018
	c0.377-0.737,1.281-1.029,2.017-0.654c3.471,1.771,7.087,3.493,10.747,5.12c0.757,0.336,1.098,1.223,0.761,1.979
	C246.752,486.529,246.203,486.861,245.629,486.861z M630.78,477.949c-0.503,0-0.994-0.253-1.277-0.712
	c-0.436-0.704-0.218-1.629,0.487-2.063c3.393-2.097,6.727-4.304,9.909-6.561c0.675-0.481,1.611-0.32,2.091,0.355
	c0.479,0.675,0.319,1.611-0.356,2.09c-3.233,2.294-6.621,4.537-10.067,6.666C631.321,477.877,631.049,477.949,630.78,477.949z
	 M224.298,475.957c-0.257,0-0.519-0.066-0.757-0.206c-3.509-2.057-6.953-4.223-10.238-6.439c-0.687-0.464-0.867-1.396-0.404-2.082
	c0.464-0.687,1.395-0.868,2.082-0.404c3.232,2.182,6.623,4.313,10.077,6.338c0.714,0.419,0.954,1.338,0.536,2.052
	C225.314,475.691,224.812,475.957,224.298,475.957z M650.3,464.085c-0.436,0-0.867-0.188-1.163-0.553
	c-0.523-0.642-0.428-1.586,0.215-2.109c3.072-2.505,6.075-5.136,8.926-7.819c0.604-0.566,1.552-0.539,2.12,0.064
	c0.567,0.603,0.539,1.552-0.064,2.119c-2.902,2.732-5.96,5.41-9.087,7.96C650.968,463.973,650.633,464.085,650.3,464.085z
	 M204.445,462.538c-0.322,0-0.647-0.104-0.92-0.317c-3.185-2.48-6.293-5.086-9.24-7.744c-0.615-0.555-0.664-1.503-0.109-2.117
	c0.555-0.617,1.503-0.664,2.118-0.109c2.893,2.609,5.946,5.168,9.074,7.605c0.653,0.509,0.771,1.451,0.262,2.104
	C205.333,462.339,204.891,462.538,204.445,462.538z M667.719,447.676c-0.362,0-0.726-0.131-1.014-0.395
	c-0.61-0.56-0.651-1.509-0.092-2.119c2.666-2.907,5.249-5.945,7.676-9.03c0.512-0.652,1.455-0.764,2.105-0.252
	c0.651,0.513,0.764,1.455,0.252,2.105c-2.474,3.145-5.105,6.241-7.822,9.204C668.528,447.511,668.124,447.676,667.719,447.676z
	 M186.711,446.521c-0.396,0-0.791-0.156-1.085-0.466c-2.772-2.909-5.46-5.958-7.989-9.062c-0.523-0.642-0.427-1.587,0.215-2.109
	c0.642-0.525,1.586-0.427,2.11,0.215c2.48,3.044,5.116,6.034,7.834,8.888c0.571,0.6,0.548,1.549-0.051,2.12
	C187.455,446.384,187.083,446.521,186.711,446.521z M682.513,428.862c-0.287,0-0.577-0.082-0.834-0.254
	c-0.688-0.461-0.872-1.393-0.411-2.081c2.187-3.263,4.279-6.659,6.222-10.094c0.41-0.722,1.325-0.973,2.044-0.567
	c0.721,0.408,0.975,1.323,0.567,2.044c-1.979,3.5-4.113,6.961-6.341,10.287C683.471,428.629,682.997,428.862,682.513,428.862z
	 M171.616,427.982c-0.476,0-0.944-0.227-1.235-0.647c-2.274-3.288-4.454-6.717-6.479-10.192c-0.417-0.716-0.175-1.634,0.541-2.051
	c0.715-0.415,1.634-0.175,2.05,0.541c1.986,3.408,4.124,6.771,6.354,9.997c0.471,0.681,0.301,1.615-0.38,2.086
	C172.207,427.895,171.91,427.982,171.616,427.982z M694.296,408.04c-0.215,0-0.433-0.046-0.639-0.144
	c-0.749-0.354-1.07-1.247-0.717-1.996c1.667-3.533,3.239-7.202,4.673-10.905c0.299-0.773,1.169-1.157,1.939-0.857
	c0.772,0.299,1.156,1.167,0.857,1.939c-1.459,3.771-3.06,7.506-4.757,11.103C695.397,407.722,694.858,408.04,694.296,408.04z
	 M159.575,407.333c-0.556,0-1.09-0.311-1.35-0.845c-1.735-3.573-3.375-7.288-4.874-11.042c-0.307-0.769,0.067-1.642,0.836-1.948
	c0.77-0.31,1.642,0.067,1.949,0.837c1.472,3.687,3.083,7.334,4.787,10.843c0.361,0.745,0.051,1.643-0.694,2.004
	C160.018,407.284,159.795,407.333,159.575,407.333z M702.951,385.73c-0.148,0-0.298-0.022-0.446-0.068
	c-0.791-0.246-1.232-1.086-0.986-1.877c1.159-3.727,2.222-7.579,3.16-11.45c0.194-0.805,1.004-1.306,1.81-1.104
	c0.806,0.194,1.3,1.005,1.104,1.811c-0.952,3.933-2.033,7.848-3.211,11.635C704.182,385.318,703.59,385.73,702.951,385.73z
	 M150.692,385.136c-0.633,0-1.222-0.404-1.427-1.04c-1.214-3.764-2.334-7.663-3.331-11.59c-0.204-0.803,0.282-1.619,1.085-1.822
	c0.802-0.203,1.619,0.282,1.822,1.084c0.981,3.866,2.084,7.704,3.278,11.408c0.254,0.788-0.179,1.633-0.967,1.887
	C151,385.113,150.844,385.136,150.692,385.136z M708.605,362.47c-0.089,0-0.178-0.008-0.268-0.024
	c-0.815-0.146-1.356-0.926-1.21-1.741c0.69-3.835,1.288-7.792,1.778-11.76c0.102-0.822,0.849-1.409,1.672-1.305
	c0.822,0.102,1.406,0.85,1.305,1.672c-0.497,4.022-1.104,8.034-1.804,11.924C709.949,361.962,709.317,362.47,708.605,362.47z
	 M144.789,361.957c-0.705,0-1.333-0.499-1.471-1.217c-0.744-3.869-1.4-7.869-1.951-11.889c-0.112-0.821,0.462-1.577,1.282-1.689
	c0.817-0.12,1.577,0.461,1.689,1.282c0.543,3.967,1.191,7.913,1.925,11.729c0.156,0.813-0.376,1.6-1.189,1.756
	C144.978,361.948,144.883,361.957,144.789,361.957z M711.555,338.708c-0.037,0-0.073-0.002-0.109-0.004
	c-0.826-0.06-1.448-0.777-1.389-1.604c0.28-3.892,0.473-7.894,0.572-11.896c0.021-0.829,0.687-1.475,1.536-1.462
	c0.828,0.021,1.482,0.708,1.462,1.536c-0.101,4.049-0.295,8.099-0.578,12.036C712.992,338.105,712.334,338.708,711.555,338.708z
	 M141.523,338.252c-0.77,0-1.424-0.589-1.492-1.37c-0.342-3.917-0.601-7.961-0.771-12.021c-0.035-0.827,0.608-1.526,1.435-1.561
	c0.849-0.044,1.527,0.607,1.561,1.436c0.169,4.014,0.425,8.013,0.763,11.886c0.072,0.825-0.539,1.552-1.363,1.624
	C141.61,338.25,141.566,338.252,141.523,338.252z M712.163,314.757c-0.815,0-1.483-0.653-1.498-1.473
	c-0.072-3.909-0.227-7.92-0.46-11.921c-0.048-0.826,0.583-1.536,1.41-1.584c0.81-0.06,1.535,0.582,1.584,1.41
	c0.235,4.04,0.392,8.091,0.464,12.04c0.016,0.828-0.644,1.512-1.472,1.526C712.182,314.756,712.173,314.757,712.163,314.757z
	 M140.504,314.313c-0.828,0-1.5-0.672-1.5-1.5l0-0.278c0-3.848,0.074-7.808,0.219-11.764c0.031-0.828,0.729-1.485,1.554-1.443
	c0.828,0.03,1.474,0.726,1.443,1.553c-0.144,3.92-0.217,7.844-0.217,11.662l0,0.271
	C142.003,313.641,141.332,314.313,140.504,314.313z M710.783,290.822c-0.764,0-1.417-0.582-1.491-1.357
	c-0.371-3.9-0.819-7.893-1.332-11.866c-0.105-0.821,0.474-1.573,1.296-1.679c0.818-0.104,1.572,0.475,1.679,1.295
	c0.517,4.005,0.969,8.032,1.344,11.964c0.078,0.825-0.526,1.557-1.351,1.636C710.879,290.819,710.831,290.822,710.783,290.822z
	 M141.37,290.353c-0.036,0-0.072-0.002-0.108-0.004c-0.826-0.059-1.448-0.776-1.389-1.603c0.278-3.926,0.629-7.96,1.042-11.991
	c0.084-0.824,0.825-1.428,1.645-1.339c0.824,0.084,1.423,0.821,1.339,1.645c-0.41,4-0.758,8.003-1.035,11.898
	C142.809,289.75,142.15,290.353,141.37,290.353z M707.723,267.04c-0.724,0-1.36-0.524-1.479-1.262
	c-0.619-3.855-1.314-7.814-2.066-11.767c-0.155-0.813,0.379-1.599,1.192-1.753c0.815-0.155,1.599,0.379,1.753,1.193
	c0.758,3.981,1.459,7.968,2.082,11.852c0.132,0.818-0.425,1.587-1.243,1.718C707.883,267.034,707.802,267.04,707.723,267.04z
	 M143.806,266.5c-0.065,0-0.131-0.004-0.198-0.013c-0.821-0.108-1.399-0.861-1.291-1.683c0.516-3.917,1.098-7.922,1.731-11.904
	c0.13-0.818,0.898-1.375,1.716-1.246c0.818,0.13,1.375,0.898,1.246,1.716c-0.628,3.956-1.207,7.935-1.719,11.825
	C145.191,265.95,144.547,266.5,143.806,266.5z M703.251,243.484c-0.69,0-1.312-0.479-1.464-1.181
	c-0.709-3.258-1.474-6.597-2.272-9.923c-0.138-0.575-0.277-1.148-0.418-1.719c-0.198-0.804,0.293-1.617,1.097-1.815
	c0.811-0.2,1.617,0.294,1.815,1.097c0.143,0.577,0.282,1.156,0.422,1.737c0.804,3.347,1.573,6.707,2.286,9.985
	c0.177,0.809-0.337,1.608-1.146,1.784C703.463,243.473,703.356,243.484,703.251,243.484z M147.555,242.817
	c-0.09,0-0.181-0.008-0.272-0.025c-0.814-0.15-1.354-0.932-1.204-1.746c0.71-3.868,1.487-7.838,2.307-11.801
	c0.167-0.811,0.959-1.333,1.772-1.164c0.811,0.168,1.332,0.961,1.164,1.772c-0.815,3.94-1.587,7.888-2.294,11.734
	C148.896,242.311,148.265,242.817,147.555,242.817z M697.453,220.223c-0.65,0-1.249-0.426-1.439-1.083
	c-1.113-3.84-2.311-7.666-3.559-11.371c-0.265-0.785,0.157-1.636,0.942-1.9c0.785-0.267,1.635,0.158,1.899,0.942
	c1.263,3.747,2.473,7.613,3.598,11.494c0.23,0.795-0.228,1.627-1.022,1.858C697.732,220.204,697.592,220.223,697.453,220.223z
	 M152.412,219.336c-0.111,0-0.223-0.013-0.336-0.038c-0.807-0.185-1.312-0.989-1.127-1.796c0.517-2.256,1.051-4.53,1.603-6.822
	c0.009-0.039,0.02-0.077,0.032-0.114c0.057-0.173,1.422-4.322,4.683-11.306c0.351-0.751,1.243-1.074,1.993-0.725
	c0.75,0.351,1.075,1.243,0.725,1.993c-2.982,6.387-4.364,10.417-4.532,10.916c-0.544,2.259-1.071,4.501-1.58,6.726
	C153.713,218.865,153.095,219.336,152.412,219.336z M689.795,197.531c-0.601,0-1.167-0.364-1.397-0.957
	c-1.441-3.711-2.979-7.409-4.571-10.992c-0.337-0.757,0.004-1.643,0.761-1.979c0.759-0.338,1.644,0.004,1.979,0.761
	c1.611,3.626,3.168,7.368,4.626,11.124c0.3,0.772-0.083,1.641-0.854,1.941C690.159,197.498,689.975,197.531,689.795,197.531z
	 M164.06,190.683c-0.243,0-0.49-0.06-0.718-0.185c-0.727-0.397-0.993-1.309-0.596-2.035c1.898-3.47,3.95-6.982,6.099-10.438
	c0.438-0.703,1.364-0.919,2.065-0.482c0.704,0.437,0.919,1.362,0.482,2.065c-2.12,3.41-4.144,6.874-6.015,10.295
	C165.105,190.401,164.591,190.683,164.06,190.683z M680.062,175.655c-0.547,0-1.075-0.301-1.339-0.823
	c-1.796-3.548-3.695-7.071-5.646-10.472c-0.412-0.718-0.164-1.635,0.555-2.047c0.717-0.41,1.634-0.165,2.047,0.555
	c1.977,3.445,3.9,7.015,5.72,10.609c0.374,0.739,0.078,1.641-0.661,2.015C680.521,175.602,680.29,175.655,680.062,175.655z
	 M176.72,170.292c-0.295,0-0.594-0.087-0.855-0.269c-0.68-0.473-0.847-1.408-0.374-2.087c2.276-3.27,4.681-6.543,7.146-9.732
	c0.506-0.655,1.449-0.776,2.104-0.269c0.655,0.506,0.775,1.448,0.269,2.104c-2.435,3.148-4.81,6.382-7.058,9.611
	C177.661,170.068,177.195,170.292,176.72,170.292z M668.143,154.89c-0.491,0-0.973-0.241-1.26-0.684
	c-2.152-3.323-4.421-6.619-6.74-9.797c-0.488-0.669-0.342-1.607,0.327-2.095c0.668-0.488,1.605-0.342,2.095,0.327
	c2.353,3.223,4.652,6.565,6.836,9.935c0.45,0.695,0.252,1.624-0.443,2.074C668.706,154.813,668.424,154.89,668.143,154.89z
	 M191.393,151.314c-0.345,0-0.691-0.118-0.974-0.359c-0.63-0.538-0.704-1.485-0.166-2.114c2.598-3.041,5.309-6.062,8.057-8.982
	c0.566-0.603,1.516-0.633,2.12-0.064c0.603,0.567,0.632,1.517,0.064,2.12c-2.715,2.885-5.393,5.871-7.96,8.875
	C192.237,151.135,191.816,151.314,191.393,151.314z M654.021,135.556c-0.434,0-0.863-0.187-1.16-0.548
	c-2.503-3.05-5.13-6.068-7.806-8.969c-0.562-0.609-0.522-1.558,0.086-2.119c0.607-0.56,1.557-0.524,2.119,0.086
	c2.715,2.944,5.379,6.005,7.919,9.1c0.525,0.64,0.433,1.585-0.208,2.11C654.693,135.445,654.356,135.556,654.021,135.556z
	 M207.823,133.849c-0.392,0-0.784-0.153-1.078-0.457c-0.576-0.596-0.56-1.545,0.036-2.121c2.869-2.773,5.85-5.525,8.861-8.178
	c0.621-0.547,1.57-0.488,2.116,0.134c0.547,0.621,0.488,1.569-0.134,2.116c-2.977,2.623-5.923,5.343-8.759,8.084
	C208.574,133.709,208.198,133.849,207.823,133.849z M225.809,118.002c-0.439,0-0.874-0.192-1.17-0.561
	c-0.519-0.646-0.415-1.59,0.23-2.108c3.107-2.494,6.327-4.961,9.568-7.332c0.67-0.49,1.606-0.342,2.096,0.325
	c0.489,0.668,0.343,1.607-0.325,2.096c-3.206,2.344-6.389,4.783-9.461,7.25C226.47,117.894,226.138,118.002,225.809,118.002z
	 M637.787,117.953c-0.375,0-0.751-0.14-1.042-0.421c-2.834-2.738-5.79-5.435-8.786-8.016c-0.628-0.541-0.698-1.487-0.158-2.115
	c0.541-0.626,1.487-0.698,2.115-0.158c3.04,2.618,6.039,5.354,8.913,8.132c0.596,0.575,0.611,1.525,0.036,2.12
	C638.571,117.8,638.179,117.953,637.787,117.953z M245.153,103.854c-0.485,0-0.961-0.235-1.25-0.668
	c-0.458-0.69-0.271-1.621,0.417-2.08c3.315-2.206,6.738-4.378,10.174-6.455c0.709-0.428,1.631-0.202,2.059,0.507
	c0.429,0.708,0.201,1.631-0.507,2.059c-3.399,2.055-6.785,4.204-10.064,6.386C245.726,103.773,245.438,103.854,245.153,103.854z
	 M619.64,102.322c-0.318,0-0.64-0.101-0.911-0.31c-3.128-2.398-6.371-4.746-9.641-6.979c-0.684-0.467-0.859-1.4-0.393-2.084
	c0.468-0.684,1.401-0.859,2.084-0.393c3.314,2.264,6.604,4.644,9.773,7.076c0.657,0.504,0.782,1.445,0.277,2.103
	C620.536,102.119,620.091,102.322,619.64,102.322z M265.656,91.453c-0.53,0-1.043-0.282-1.316-0.779
	c-0.398-0.726-0.132-1.638,0.594-2.036c3.486-1.911,7.079-3.785,10.679-5.57c0.741-0.368,1.641-0.065,2.009,0.677
	c0.368,0.742,0.065,1.642-0.677,2.009c-3.563,1.767-7.119,3.622-10.569,5.514C266.147,91.393,265.9,91.453,265.656,91.453z
	 M599.858,88.806c-0.266,0-0.534-0.07-0.777-0.218c-3.356-2.037-6.836-4.025-10.339-5.909c-0.729-0.392-1.003-1.302-0.61-2.031
	c0.392-0.73,1.305-1.002,2.03-0.611c3.55,1.909,7.073,3.923,10.476,5.987c0.708,0.43,0.934,1.352,0.504,2.06
	C600.859,88.549,600.364,88.806,599.858,88.806z M287.119,80.805c-0.574,0-1.121-0.331-1.37-0.888
	c-0.338-0.756,0.001-1.643,0.757-1.981c3.634-1.624,7.364-3.204,11.086-4.696c0.771-0.31,1.641,0.065,1.95,0.833
	c0.308,0.769-0.065,1.642-0.834,1.95c-3.687,1.478-7.381,3.042-10.979,4.65C287.531,80.763,287.323,80.805,287.119,80.805z
	 M578.752,77.446c-0.216,0-0.435-0.047-0.643-0.146c-3.539-1.682-7.201-3.316-10.885-4.855c-0.765-0.319-1.125-1.198-0.806-1.962
	c0.319-0.763,1.199-1.125,1.962-0.806c3.728,1.558,7.434,3.211,11.016,4.914c0.748,0.355,1.066,1.25,0.711,1.998
	C579.85,77.13,579.312,77.446,578.752,77.446z M309.354,71.883c-0.615,0-1.192-0.382-1.412-0.995
	c-0.279-0.779,0.126-1.638,0.906-1.917c3.733-1.337,7.57-2.633,11.403-3.851c0.789-0.25,1.632,0.186,1.883,0.975
	c0.251,0.789-0.186,1.632-0.975,1.883c-3.798,1.207-7.601,2.491-11.3,3.815C309.692,71.855,309.522,71.883,309.354,71.883z
	 M556.635,68.194c-0.171,0-0.345-0.029-0.515-0.091c-3.688-1.348-7.487-2.642-11.292-3.846c-0.789-0.25-1.227-1.093-0.977-1.882
	c0.249-0.79,1.085-1.227,1.883-0.977c3.845,1.218,7.686,2.526,11.415,3.888c0.777,0.284,1.178,1.145,0.894,1.923
	C557.821,67.816,557.246,68.194,556.635,68.194z M332.186,64.624c-0.656,0-1.258-0.434-1.443-1.096
	c-0.223-0.797,0.243-1.625,1.041-1.848c3.827-1.07,7.743-2.094,11.641-3.044c0.805-0.196,1.616,0.297,1.812,1.102
	c0.196,0.805-0.297,1.616-1.102,1.812c-3.865,0.942-7.749,1.958-11.543,3.019C332.455,64.606,332.32,64.624,332.186,64.624z
	 M533.773,60.945c-0.13,0-0.263-0.017-0.395-0.053c-3.798-1.032-7.694-2.008-11.581-2.9c-0.807-0.185-1.311-0.99-1.126-1.797
	c0.187-0.806,0.983-1.311,1.798-1.126c3.925,0.901,7.859,1.887,11.696,2.929c0.799,0.217,1.271,1.041,1.054,1.84
	C535.038,60.505,534.433,60.945,533.773,60.945z M355.462,58.944c-0.694,0-1.318-0.485-1.466-1.192
	c-0.17-0.811,0.349-1.605,1.16-1.776c3.881-0.814,7.854-1.583,11.809-2.287c0.81-0.146,1.593,0.398,1.739,1.214
	c0.145,0.816-0.399,1.594-1.214,1.739c-3.924,0.697-7.866,1.461-11.717,2.269C355.668,58.933,355.564,58.944,355.462,58.944z
	 M510.391,55.567c-0.094,0-0.188-0.009-0.282-0.027c-3.865-0.736-7.827-1.416-11.774-2.02c-0.819-0.125-1.381-0.891-1.256-1.709
	c0.125-0.818,0.893-1.382,1.709-1.255c3.984,0.61,7.981,1.295,11.882,2.038c0.813,0.155,1.348,0.94,1.192,1.753
	C511.725,55.066,511.096,55.567,510.391,55.567z M379.051,54.744c-0.731,0-1.372-0.536-1.481-1.281
	c-0.121-0.819,0.445-1.582,1.265-1.702c3.928-0.579,7.939-1.112,11.923-1.583c0.813-0.099,1.568,0.49,1.666,1.313
	c0.097,0.822-0.491,1.568-1.313,1.666c-3.955,0.468-7.938,0.997-11.838,1.572C379.197,54.739,379.123,54.744,379.051,54.744z
	 M486.67,51.929c-0.059,0-0.118-0.003-0.177-0.01c-3.922-0.461-7.924-0.864-11.896-1.196c-0.825-0.069-1.438-0.794-1.369-1.619
	c0.069-0.825,0.794-1.441,1.619-1.369c4.005,0.334,8.041,0.74,11.995,1.206c0.823,0.097,1.411,0.842,1.314,1.665
	C488.067,51.368,487.42,51.929,486.67,51.929z M402.854,51.919c-0.767,0-1.421-0.585-1.492-1.364
	c-0.075-0.825,0.533-1.554,1.357-1.629c1.755-0.16,3.523-0.31,5.302-0.452c0.004-0.004,2.348-0.336,6.63-0.734
	c0.834-0.073,1.556,0.53,1.632,1.354c0.077,0.825-0.53,1.555-1.354,1.632c-4.199,0.39-6.553,0.723-6.576,0.727
	c-1.862,0.151-3.618,0.301-5.362,0.459C402.946,51.917,402.9,51.919,402.854,51.919z M462.746,49.926c-0.025,0-0.051,0-0.077-0.002
	c-3.961-0.2-7.983-0.338-11.953-0.408c-0.828-0.015-1.487-0.698-1.473-1.526c0.015-0.819,0.683-1.473,1.498-1.473
	c0.01,0,0.019,0,0.027,0c4.003,0.071,8.058,0.21,12.053,0.412c0.827,0.042,1.463,0.746,1.422,1.573
	C464.202,49.303,463.54,49.926,462.746,49.926z M426.755,49.89c-0.794,0-1.456-0.623-1.497-1.424
	c-0.041-0.827,0.596-1.532,1.423-1.573c3.924-0.198,7.975-0.33,12.038-0.393c0.008,0,0.017,0,0.023,0
	c0.818,0,1.487,0.656,1.499,1.477c0.013,0.828-0.648,1.51-1.476,1.522c-4.029,0.062-8.045,0.192-11.935,0.389
	C426.805,49.89,426.78,49.89,426.755,49.89z"/>
<circle fill="#FFFFFF" cx="156.684" cy="208.36" r="11.493"/>
<g>
	
		<polyline fill="none" stroke="#A8D9F4" stroke-width="4" stroke-linecap="round" stroke-linejoin="round" stroke-miterlimit="10" points="
		290.888,71.469 298.748,75.005 295.213,82.866 	"/>
	<path fill="none" stroke="#A8D9F4" stroke-width="4" stroke-linecap="round" stroke-linejoin="round" stroke-miterlimit="10" d="
		M298.389,75.442c0,0-17.973,4.544-34.734,15.918"/>
</g>
<g>
	
		<polyline fill="none" stroke="#A8D9F4" stroke-width="4" stroke-linecap="round" stroke-linejoin="round" stroke-miterlimit="10" points="
		716.057,284.031 710.425,290.555 703.899,284.922 	"/>
	<path fill="none" stroke="#A8D9F4" stroke-width="4" stroke-linecap="round" stroke-linejoin="round" stroke-miterlimit="10" d="
		M710.106,290.085c0,0,0.779-18.521-5.333-37.833"/>
</g>
<g>
	
		<polyline fill="none" stroke="#A8D9F4" stroke-width="4" stroke-linecap="round" stroke-linejoin="round" stroke-miterlimit="10" points="
		328.756,514.229 324.112,506.97 331.375,502.324 	"/>
	<path fill="none" stroke="#A8D9F4" stroke-width="4" stroke-linecap="round" stroke-linejoin="round" stroke-miterlimit="10" d="
		M324.654,506.802c0,0,17.527,6.032,37.78,5.688"/>
</g>
</svg>
