<?xml version="1.0" encoding="utf-8"?>
<!-- Generator: Adobe Illustrator 15.0.2, SVG Export Plug-In . SVG Version: 6.00 Build 0)  -->
<!DOCTYPE svg PUBLIC "-//W3C//DTD SVG 1.1//EN" "http://www.w3.org/Graphics/SVG/1.1/DTD/svg11.dtd">
<svg version="1.1" id="Lager_1" xmlns="http://www.w3.org/2000/svg" xmlns:xlink="http://www.w3.org/1999/xlink" x="0px" y="0px"
	 width="205.042px" height="205.046px" viewBox="0 0 205.042 205.046" enable-background="new 0 0 205.042 205.046"
	 xml:space="preserve">
<g>
	<path fill="#F7C045" d="M195.327,117.216c5.705-2.439,9.715-8.105,9.715-14.692c0-6.549-3.965-12.184-9.617-14.646
		c3.324-2.929,5.436-7.203,5.436-11.971c0-8.384-6.498-15.266-14.721-15.91c1.471-2.417,2.336-5.242,2.336-8.273
		c0-8.808-7.168-15.974-15.977-15.974c-1.256,0-2.471,0.161-3.645,0.436c0.291-1.202,0.461-2.449,0.461-3.739
		c0-8.808-7.166-15.973-15.973-15.973c-3.014,0-5.826,0.854-8.234,2.311c-0.709-8.156-7.566-14.579-15.904-14.579
		c-4.787,0-9.076,2.126-12.006,5.473C114.75,3.993,109.095,0,102.522,0c-6.56,0-12.204,3.978-14.66,9.646
		c-2.93-3.327-7.207-5.44-11.978-5.44c-8.346,0-15.207,6.438-15.903,14.607c-2.418-1.474-5.247-2.339-8.28-2.339
		c-8.807,0-15.972,7.165-15.972,15.973c0,1.29,0.17,2.538,0.46,3.739c-1.174-0.275-2.392-0.437-3.648-0.437
		c-8.807,0-15.972,7.166-15.972,15.974c0,3.033,0.865,5.861,2.339,8.279C10.74,60.699,4.303,67.56,4.303,75.906
		c0,4.748,2.094,9.005,5.393,11.933C4,90.283,0,95.943,0,102.523c0,6.618,4.047,12.308,9.795,14.728
		c-3.358,2.931-5.493,7.229-5.493,12.026c0,8.3,6.364,15.135,14.467,15.896c-1.39,2.367-2.201,5.113-2.201,8.052
		c0,8.809,7.165,15.975,15.972,15.975c1.302,0,2.561-0.174,3.772-0.469c-0.295,1.212-0.468,2.47-0.468,3.771
		c0,8.809,7.165,15.976,15.972,15.976c2.891,0,5.598-0.784,7.939-2.133c0.794,8.07,7.618,14.398,15.894,14.398
		c4.841,0,9.177-2.174,12.109-5.586c2.398,5.797,8.109,9.889,14.762,9.889c6.618,0,12.308-4.047,14.729-9.797
		c2.93,3.359,7.229,5.494,12.024,5.494c8.322,0,15.172-6.4,15.9-14.536c2.395,1.432,5.182,2.271,8.168,2.271
		c8.807,0,15.973-7.167,15.973-15.976c0-1.289-0.17-2.536-0.461-3.737c1.174,0.274,2.389,0.436,3.645,0.436
		c8.809,0,15.977-7.166,15.977-15.975c0-2.936-0.811-5.68-2.199-8.046c8.158-0.709,14.584-7.564,14.584-15.902
		C200.86,124.462,198.708,120.147,195.327,117.216z"/>
	<circle fill="#FFE092" cx="102.52" cy="102.522" r="86.735"/>
	<g opacity="0.8">
		<defs>
			<circle id="SVGID_1_" opacity="0.8" cx="102.52" cy="102.522" r="86.735"/>
		</defs>
		<clipPath id="SVGID_2_">
			<use xlink:href="#SVGID_1_"  overflow="visible"/>
		</clipPath>
		<path clip-path="url(#SVGID_2_)" fill="#FAD059" d="M196.485,86.828l-39.727-18.595V24.466c0-3.59-2.91-6.5-6.5-6.5
			s-6.5,2.91-6.5,6.5v37.682l-34.335-16.071V13.5c0-3.59-2.91-6.5-6.5-6.5s-6.5,2.91-6.5,6.5v26.492L62.06,23.908
			c-0.283-3.328-3.07-5.942-6.472-5.942c-1.987,0-3.763,0.894-4.956,2.299c-1.778,0.484-3.34,1.713-4.183,3.514
			c-1.442,3.081-0.256,6.713,2.639,8.381V70.1l-23.994-11.23c-3.252-1.521-7.12-0.12-8.643,3.132
			c-1.521,3.251-0.12,7.121,3.132,8.643l29.504,13.81v37.91L14.96,106.389c-3.251-1.521-7.121-0.12-8.643,3.131
			c-1.521,3.252-0.12,7.121,3.132,8.643l39.639,18.554v43.863c0,3.59,2.91,6.5,6.5,6.5s6.5-2.91,6.5-6.5v-37.779l34.335,16.071
			v32.576c0,3.59,2.91,6.5,6.5,6.5s6.5-2.91,6.5-6.5v-26.491l34.359,16.081c0.234,3.375,3.041,6.042,6.477,6.042
			c2.01,0,3.807-0.913,4.998-2.348c1.797-0.476,3.379-1.706,4.227-3.521c1.457-3.111,0.23-6.783-2.725-8.428v-37.936l23.992,11.23
			c0.893,0.417,1.83,0.615,2.752,0.615c2.445,0,4.787-1.386,5.891-3.746c1.523-3.252,0.121-7.121-3.131-8.643l-29.504-13.81V82.587
			l34.215,16.015c0.893,0.417,1.83,0.614,2.752,0.614c2.445,0,4.787-1.386,5.891-3.746C201.14,92.219,199.737,88.35,196.485,86.828z
			 M96.423,92.255L62.088,76.185V38.275l34.335,16.071V92.255z M96.423,106.609v37.91l-34.335-16.07v-37.91L96.423,106.609z
			 M109.423,112.693l34.335,16.071v37.909l-34.335-16.07V112.693z M109.423,98.34V60.431l34.335,16.071v37.909L109.423,98.34z"/>
	</g>
	<g>
		<g>
			<g>
				
					<path fill="#41A62A" stroke="#41A62A" stroke-width="1.1915" stroke-linecap="round" stroke-linejoin="round" stroke-miterlimit="10" d="
					M108.543,126.625c-3.146,1.066-4.496,0.868-4.496,0.868c-0.742,0.001-1.456-0.211-2.125-0.575l0.003,0.012
					c-8.725-4.213-14.755-13.134-14.791-23.475c-0.03-9.764,5.295-18.296,13.209-22.812l0.313-0.176
					c1.473-0.812,3.124-1.238,3.967-1.241c0.951-0.003,1.818,0.065,2.627,0.367l1.645,0.542v46.363L108.543,126.625z"/>
				<path fill="#E3E582" d="M107.257,125.162"/>
				<path fill="#E3E582" d="M107.257,125.162c-1.693,0.511-2.627,0.557-2.896,0.559c-0.053,0-0.091,0-0.112-0.004l-0.132-0.019
					l-0.075,0.008c-0.401,0.001-0.826-0.118-1.258-0.356l-2.566-1.408c-7.006-4.43-11.268-12.051-11.294-20.492
					c-0.029-8.763,4.688-16.907,12.307-21.256l0.308-0.174c1.283-0.705,2.65-1.005,3.093-1.007c0.914-0.003,1.511,0.074,1.996,0.255
					l0.487,0.162l2.396,1.394v41.718L107.257,125.162"/>
				
					<path fill="#EAEBA0" stroke="#EAEBA0" stroke-width="1.1915" stroke-linecap="round" stroke-linejoin="round" stroke-miterlimit="10" d="
					M107.257,125.162"/>
				<path fill="#BE0A26" stroke="#BE0A26" stroke-width="0.1802" stroke-miterlimit="10" d="M101.926,126.93"/>
			</g>
			<g>
				<g>
					
						<ellipse fill="#41281B" stroke="#41281B" stroke-width="0.5281" stroke-miterlimit="10" cx="106.906" cy="103.36" rx="1.101" ry="2.508"/>
				</g>
			</g>
		</g>
		<g>
			<g>
				
					<path fill="#41A62A" stroke="#41A62A" stroke-width="1.1915" stroke-linecap="round" stroke-linejoin="round" stroke-miterlimit="10" d="
					M61.344,101.14c-3.146,1.066-4.496,0.868-4.496,0.868c-0.742,0.001-1.456-0.211-2.125-0.575l0.003,0.012
					c-8.725-4.213-14.755-13.134-14.791-23.475c-0.03-9.764,5.295-18.296,13.209-22.812l0.313-0.176
					c1.473-0.812,3.124-1.238,3.967-1.241c0.951-0.003,1.818,0.065,2.627,0.367l1.645,0.542v46.363L61.344,101.14z"/>
				<path fill="#E3E582" d="M60.058,99.677"/>
				<path fill="#E3E582" d="M60.058,99.677c-1.693,0.511-2.627,0.557-2.896,0.559c-0.053,0-0.091,0-0.112-0.004l-0.132-0.019
					l-0.075,0.008c-0.401,0.001-0.826-0.118-1.258-0.356l-2.566-1.408c-7.006-4.43-11.268-12.051-11.294-20.492
					c-0.029-8.763,4.688-16.907,12.307-21.256l0.308-0.174c1.283-0.705,2.65-1.005,3.093-1.007c0.914-0.003,1.511,0.074,1.996,0.255
					l0.487,0.162l2.396,1.394v41.718L60.058,99.677"/>
				
					<path fill="#EAEBA0" stroke="#EAEBA0" stroke-width="1.1915" stroke-linecap="round" stroke-linejoin="round" stroke-miterlimit="10" d="
					M60.058,99.677"/>
				<path fill="#BE0A26" stroke="#BE0A26" stroke-width="0.1802" stroke-miterlimit="10" d="M54.727,101.445"/>
			</g>
			<g>
				<g>
					
						<ellipse fill="#41281B" stroke="#41281B" stroke-width="0.5281" stroke-miterlimit="10" cx="59.707" cy="77.875" rx="1.101" ry="2.508"/>
				</g>
			</g>
		</g>
		<g>
			<g>
				
					<path fill="#41A62A" stroke="#41A62A" stroke-width="1.1915" stroke-linecap="round" stroke-linejoin="round" stroke-miterlimit="10" d="
					M61.344,157.111c-3.146,1.066-4.496,0.868-4.496,0.868c-0.742,0.001-1.456-0.211-2.125-0.574l0.003,0.012
					c-8.725-4.214-14.755-13.135-14.791-23.475c-0.03-9.764,5.295-18.296,13.209-22.812l0.313-0.176
					c1.473-0.812,3.124-1.238,3.967-1.241c0.951-0.003,1.818,0.065,2.627,0.367l1.645,0.542v46.362L61.344,157.111z"/>
				<path fill="#E3E582" d="M60.058,155.648"/>
				<path fill="#E3E582" d="M60.058,155.648c-1.693,0.511-2.627,0.557-2.896,0.559c-0.053,0.001-0.091-0.001-0.112-0.004
					l-0.132-0.019l-0.075,0.008c-0.401,0.001-0.826-0.118-1.258-0.355l-2.566-1.408c-7.006-4.43-11.268-12.051-11.294-20.492
					c-0.029-8.763,4.688-16.907,12.307-21.256l0.308-0.174c1.283-0.705,2.65-1.005,3.093-1.007c0.914-0.003,1.511,0.074,1.996,0.255
					l0.487,0.162l2.396,1.394v41.718L60.058,155.648"/>
				
					<path fill="#EAEBA0" stroke="#EAEBA0" stroke-width="1.1915" stroke-linecap="round" stroke-linejoin="round" stroke-miterlimit="10" d="
					M60.058,155.648"/>
				<path fill="#BE0A26" stroke="#BE0A26" stroke-width="0.1802" stroke-miterlimit="10" d="M54.727,157.417"/>
			</g>
			<g>
				<g>
					
						<ellipse fill="#41281B" stroke="#41281B" stroke-width="0.5281" stroke-miterlimit="10" cx="59.707" cy="133.846" rx="1.101" ry="2.508"/>
				</g>
			</g>
		</g>
		<g>
			<g>
				
					<path fill="#41A62A" stroke="#41A62A" stroke-width="1.1915" stroke-linecap="round" stroke-linejoin="round" stroke-miterlimit="10" d="
					M155.845,101.14c-3.146,1.066-4.496,0.868-4.496,0.868c-0.742,0.001-1.457-0.211-2.125-0.575l0.004,0.012
					c-8.727-4.213-14.756-13.134-14.791-23.475c-0.031-9.764,5.295-18.296,13.209-22.812l0.312-0.176
					c1.473-0.812,3.123-1.238,3.967-1.241c0.951-0.003,1.818,0.065,2.629,0.367l1.645,0.542v46.363L155.845,101.14z"/>
				<path fill="#E3E582" d="M154.558,99.677"/>
				<path fill="#E3E582" d="M154.558,99.677c-1.693,0.511-2.627,0.557-2.896,0.559c-0.053,0-0.09,0-0.111-0.004l-0.133-0.019
					l-0.074,0.008c-0.4,0.001-0.826-0.118-1.258-0.356l-2.566-1.408c-7.006-4.43-11.268-12.051-11.295-20.492
					c-0.029-8.763,4.689-16.907,12.309-21.256l0.307-0.174c1.283-0.705,2.65-1.005,3.094-1.007c0.914-0.003,1.51,0.074,1.996,0.255
					l0.486,0.162l2.396,1.394v41.718L154.558,99.677"/>
				
					<path fill="#EAEBA0" stroke="#EAEBA0" stroke-width="1.1915" stroke-linecap="round" stroke-linejoin="round" stroke-miterlimit="10" d="
					M154.558,99.677"/>
				<path fill="#BE0A26" stroke="#BE0A26" stroke-width="0.1802" stroke-miterlimit="10" d="M149.228,101.445"/>
			</g>
			<g>
				<g>
					
						<ellipse fill="#41281B" stroke="#41281B" stroke-width="0.5281" stroke-miterlimit="10" cx="154.207" cy="77.875" rx="1.101" ry="2.508"/>
				</g>
			</g>
		</g>
		<g>
			<g>
				
					<path fill="#41A62A" stroke="#41A62A" stroke-width="1.1915" stroke-linecap="round" stroke-linejoin="round" stroke-miterlimit="10" d="
					M155.845,157.111c-3.146,1.066-4.496,0.868-4.496,0.868c-0.742,0.001-1.457-0.211-2.125-0.574l0.004,0.012
					c-8.727-4.214-14.756-13.135-14.791-23.475c-0.031-9.764,5.295-18.296,13.209-22.812l0.312-0.176
					c1.473-0.812,3.123-1.238,3.967-1.241c0.951-0.003,1.818,0.065,2.629,0.367l1.645,0.542v46.362L155.845,157.111z"/>
				<path fill="#E3E582" d="M154.558,155.648"/>
				<path fill="#E3E582" d="M154.558,155.648c-1.693,0.511-2.627,0.557-2.896,0.559c-0.053,0.001-0.09-0.001-0.111-0.004
					l-0.133-0.019l-0.074,0.008c-0.4,0.001-0.826-0.118-1.258-0.355l-2.566-1.408c-7.006-4.43-11.268-12.051-11.295-20.492
					c-0.029-8.763,4.689-16.907,12.309-21.256l0.307-0.174c1.283-0.705,2.65-1.005,3.094-1.007c0.914-0.003,1.51,0.074,1.996,0.255
					l0.486,0.162l2.396,1.394v41.718L154.558,155.648"/>
				
					<path fill="#EAEBA0" stroke="#EAEBA0" stroke-width="1.1915" stroke-linecap="round" stroke-linejoin="round" stroke-miterlimit="10" d="
					M154.558,155.648"/>
				<path fill="#BE0A26" stroke="#BE0A26" stroke-width="0.1802" stroke-miterlimit="10" d="M149.228,157.417"/>
			</g>
			<g>
				<g>
					
						<ellipse fill="#41281B" stroke="#41281B" stroke-width="0.5281" stroke-miterlimit="10" cx="154.207" cy="133.846" rx="1.101" ry="2.508"/>
				</g>
			</g>
		</g>
		<g>
			<g>
				
					<path fill="#41A62A" stroke="#41A62A" stroke-width="1.1915" stroke-linecap="round" stroke-linejoin="round" stroke-miterlimit="10" d="
					M108.543,182.007c-3.146,1.066-4.496,0.868-4.496,0.868c-0.742,0.001-1.456-0.211-2.125-0.575l0.003,0.012
					c-8.725-4.213-14.755-13.133-14.791-23.475c-0.03-9.764,5.295-18.296,13.209-22.812l0.313-0.176
					c1.473-0.812,3.124-1.238,3.967-1.241c0.951-0.003,1.818,0.065,2.627,0.367l1.645,0.542v46.363L108.543,182.007z"/>
				<path fill="#E3E582" d="M107.257,180.544"/>
				<path fill="#E3E582" d="M107.257,180.544c-1.693,0.511-2.627,0.557-2.896,0.559c-0.053,0-0.091,0-0.112-0.004l-0.132-0.019
					l-0.075,0.008c-0.401,0.001-0.826-0.118-1.258-0.356l-2.566-1.407c-7.006-4.431-11.268-12.051-11.294-20.492
					c-0.029-8.763,4.688-16.907,12.307-21.256l0.308-0.174c1.283-0.705,2.65-1.005,3.093-1.007c0.914-0.003,1.511,0.074,1.996,0.255
					l0.487,0.162l2.396,1.394v41.718L107.257,180.544"/>
				
					<path fill="#EAEBA0" stroke="#EAEBA0" stroke-width="1.1915" stroke-linecap="round" stroke-linejoin="round" stroke-miterlimit="10" d="
					M107.257,180.544"/>
				<path fill="#BE0A26" stroke="#BE0A26" stroke-width="0.1802" stroke-miterlimit="10" d="M101.926,182.312"/>
			</g>
			<g>
				<g>
					
						<ellipse fill="#41281B" stroke="#41281B" stroke-width="0.5281" stroke-miterlimit="10" cx="106.906" cy="158.742" rx="1.101" ry="2.507"/>
				</g>
			</g>
		</g>
		<g>
			<g>
				
					<path fill="#41A62A" stroke="#41A62A" stroke-width="1.1915" stroke-linecap="round" stroke-linejoin="round" stroke-miterlimit="10" d="
					M108.237,71.243c-3.146,1.066-4.496,0.868-4.496,0.868c-0.741,0.001-1.456-0.211-2.124-0.575l0.002,0.012
					c-8.725-4.213-14.755-13.134-14.791-23.475c-0.031-9.764,5.295-18.296,13.209-22.812l0.313-0.176
					c1.473-0.812,3.124-1.238,3.968-1.241c0.951-0.003,1.818,0.065,2.627,0.367l1.645,0.542v46.363L108.237,71.243z"/>
				<path fill="#E3E582" d="M106.951,69.78"/>
				<path fill="#E3E582" d="M106.951,69.78c-1.693,0.511-2.627,0.556-2.896,0.558c-0.053,0-0.091,0-0.112-0.004l-0.132-0.019
					l-0.075,0.008c-0.401,0.001-0.825-0.118-1.257-0.356l-2.566-1.408c-7.006-4.43-11.268-12.051-11.294-20.492
					c-0.029-8.763,4.688-16.907,12.307-21.256l0.308-0.174c1.283-0.705,2.65-1.005,3.092-1.007c0.915-0.003,1.511,0.074,1.997,0.255
					l0.487,0.162l2.396,1.394v41.718L106.951,69.78"/>
				
					<path fill="#EAEBA0" stroke="#EAEBA0" stroke-width="1.1915" stroke-linecap="round" stroke-linejoin="round" stroke-miterlimit="10" d="
					M106.951,69.78"/>
				<path fill="#BE0A26" stroke="#BE0A26" stroke-width="0.1802" stroke-miterlimit="10" d="M101.62,71.548"/>
			</g>
			<g>
				<g>
					
						<ellipse fill="#41281B" stroke="#41281B" stroke-width="0.5281" stroke-miterlimit="10" cx="106.6" cy="47.978" rx="1.101" ry="2.508"/>
				</g>
			</g>
		</g>
	</g>
</g>
</svg>
