<?xml version="1.0" encoding="utf-8"?>
<!-- Generator: Adobe Illustrator 15.0.2, SVG Export Plug-In . SVG Version: 6.00 Build 0)  -->
<!DOCTYPE svg PUBLIC "-//W3C//DTD SVG 1.1//EN" "http://www.w3.org/Graphics/SVG/1.1/DTD/svg11.dtd">
<svg version="1.1" id="Lager_1" xmlns="http://www.w3.org/2000/svg" xmlns:xlink="http://www.w3.org/1999/xlink" x="0px" y="0px"
	 width="239.632px" height="312.618px" viewBox="0 0 239.632 312.618" enable-background="new 0 0 239.632 312.618"
	 xml:space="preserve">
<g>
	<rect x="0.284" y="11.378" fill="#EDEDED" width="233.617" height="294.519"/>
	<path fill="#FFFFFF" d="M0.284,305.897c0,0,13.577-11.271,47.736-10.992c36.063-2.844,185.881,10.992,185.881,10.992V11.378
		c0,0-149.817-13.835-185.881-10.993C13.861,0.106,0.284,11.378,0.284,11.378V305.897z"/>
	<rect y="16.913" fill="#BF9976" width="239.632" height="295.705"/>
	<rect y="16.913" fill="#A17859" width="39.385" height="295.705"/>
	<rect y="16.913" fill="#8F6546" width="9.016" height="295.705"/>
	<rect x="76.792" y="90.386" fill="#FFFFFF" width="119.183" height="61.213"/>
	<polygon fill="#FBFBFB" points="195.976,151.599 76.792,151.599 76.792,90.386 	"/>
	<g>
		<path fill="#3C3C3B" d="M121.728,116.959h-0.833l-3.59-5.496c-0.457,0.062-0.962,0.105-1.518,0.13v5.366h-0.685v-12.973
			c4.133,0.013,6.2,1.253,6.2,3.72c0,1.987-1.086,3.202-3.257,3.646L121.728,116.959z M115.788,110.853l0.185,0.019
			c3.096-0.049,4.645-1.086,4.645-3.109c0-0.567-0.133-1.039-0.397-1.416c-0.266-0.376-0.564-0.669-0.898-0.879
			c-0.79-0.493-1.967-0.753-3.534-0.777V110.853z"/>
		<path fill="#3C3C3B" d="M129.167,116.293v0.685c-0.741,0-1.391-0.03-1.953-0.092c-0.561-0.062-1.144-0.194-1.749-0.398
			c-0.604-0.203-1.101-0.479-1.489-0.823c-0.389-0.346-0.71-0.823-0.963-1.435c-0.253-0.61-0.379-1.338-0.379-2.184
			c0-0.845,0.114-1.582,0.343-2.212c0.228-0.629,0.521-1.104,0.879-1.425c0.666-0.592,1.314-0.888,1.943-0.888
			c1.048,0,1.866,0.309,2.452,0.925c0.586,0.617,0.879,1.432,0.879,2.443c0,0.679-0.007,1.073-0.019,1.185h-5.792
			c0,1.591,0.475,2.692,1.425,3.303S127.168,116.293,129.167,116.293z M128.445,111.389v-0.407c0-0.813-0.231-1.48-0.694-1.998
			c-0.462-0.519-1.073-0.777-1.832-0.777c-0.759,0-1.357,0.299-1.795,0.897c-0.438,0.599-0.701,1.36-0.787,2.285H128.445z"/>
		<path fill="#3C3C3B" d="M137.125,109.575l-0.704-0.019c-0.197-0.407-0.53-0.733-0.999-0.98c-0.469-0.247-0.962-0.37-1.48-0.37
			c-0.839,0-1.481,0.373-1.925,1.119c-0.444,0.747-0.667,1.663-0.667,2.749c0,1.591,0.469,2.692,1.407,3.303
			s2.399,0.916,4.386,0.916v0.685c-0.741,0-1.388-0.03-1.944-0.092c-0.555-0.062-1.135-0.194-1.74-0.398
			c-0.604-0.203-1.098-0.479-1.48-0.823c-0.383-0.346-0.697-0.823-0.944-1.435c-0.247-0.61-0.37-1.338-0.37-2.184
			c0-0.845,0.114-1.582,0.342-2.212c0.229-0.629,0.515-1.104,0.861-1.425c0.678-0.592,1.375-0.888,2.091-0.888
			s1.37,0.185,1.962,0.555S136.915,108.946,137.125,109.575z"/>
		<path fill="#3C3C3B" d="M144.75,116.293v0.685c-0.741,0-1.391-0.03-1.953-0.092s-1.144-0.194-1.749-0.398
			c-0.604-0.203-1.101-0.479-1.489-0.823c-0.389-0.346-0.71-0.823-0.962-1.435c-0.253-0.61-0.38-1.338-0.38-2.184
			c0-0.845,0.114-1.582,0.343-2.212c0.228-0.629,0.521-1.104,0.878-1.425c0.667-0.592,1.314-0.888,1.943-0.888
			c1.048,0,1.866,0.309,2.452,0.925c0.585,0.617,0.879,1.432,0.879,2.443c0,0.679-0.006,1.073-0.019,1.185h-5.792
			c0,1.591,0.475,2.692,1.425,3.303S142.751,116.293,144.75,116.293z M144.027,111.389v-0.407c0-0.813-0.231-1.48-0.694-1.998
			c-0.462-0.519-1.073-0.777-1.832-0.777c-0.758,0-1.357,0.299-1.794,0.897c-0.438,0.599-0.701,1.36-0.787,2.285H144.027z"/>
		<path fill="#3C3C3B" d="M147.469,121.586h-0.685v-13.88h0.685v1.11c0.815-0.876,1.684-1.313,2.61-1.313
			c0.505,0,1.018,0.191,1.536,0.573c1.085,0.79,1.628,2.116,1.628,3.979c0,2.195-0.82,3.633-2.461,4.312
			c-0.839,0.346-1.942,0.543-3.312,0.592V121.586z M152.17,114.128c0.26-0.567,0.389-1.311,0.389-2.23
			c0-0.919-0.25-1.767-0.749-2.544s-1.114-1.166-1.841-1.166c-0.469,0-0.898,0.139-1.287,0.417
			c-0.388,0.276-0.792,0.656-1.212,1.138v6.532C149.95,116.274,151.516,115.56,152.17,114.128z"/>
		<path fill="#3C3C3B" d="M156.075,108.391h-2.128v-0.685h2.128v-3.054h0.685v3.054h2.146v0.685h-2.146v8.568h-0.685V108.391z"/>
	</g>
	<g>
		<path d="M118.141,138.602c0.459-0.121,0.778-0.277,0.957-0.467c0.178-0.189,0.268-0.446,0.268-0.769s-0.122-0.575-0.365-0.757
			c-0.243-0.183-0.537-0.301-0.882-0.354c-0.346-0.054-0.691-0.112-1.036-0.177c-0.346-0.064-0.64-0.207-0.883-0.427
			c-0.243-0.221-0.365-0.539-0.365-0.957c0-0.881,0.684-1.321,2.05-1.321c0.501,0,1.082,0.054,1.743,0.16v0.443
			c-0.683-0.121-1.257-0.182-1.719-0.182c-0.463,0-0.856,0.066-1.179,0.199s-0.484,0.357-0.484,0.672
			c0,0.315,0.121,0.559,0.365,0.729c0.243,0.171,0.537,0.289,0.882,0.354s0.692,0.139,1.042,0.222
			c0.349,0.084,0.646,0.249,0.888,0.495c0.243,0.247,0.364,0.595,0.364,1.043c0,0.554-0.216,0.952-0.648,1.195
			c-0.213,0.122-0.418,0.218-0.616,0.29c-0.197,0.072-0.459,0.12-0.786,0.143c-0.517,0.046-1.009,0.068-1.48,0.068h-0.284v-0.421
			C116.958,138.784,117.682,138.723,118.141,138.602z"/>
		<path d="M125.059,139.183h-0.42v-0.774c0-0.631-0.139-1.171-0.417-1.623c-0.277-0.451-0.615-0.678-1.013-0.678
			s-0.784,0.167-1.156,0.502l-0.66,0.693v1.88h-0.421v-8.541h0.421v6.047l3.086-3.212h0.581l-2.141,2.243
			c0.091-0.022,0.207-0.034,0.348-0.034c0.14,0,0.308,0.044,0.501,0.132c0.193,0.087,0.391,0.224,0.592,0.41
			c0.201,0.186,0.369,0.457,0.501,0.813c0.133,0.357,0.199,0.768,0.199,1.23V139.183z"/>
		<path d="M126.631,139.183h-0.421v-5.694h0.421v0.831c0.159-0.189,0.404-0.393,0.735-0.609c0.33-0.216,0.645-0.324,0.945-0.324
			s0.562,0.085,0.786,0.257c0.224,0.17,0.34,0.449,0.347,0.837h-0.421c0-0.213-0.068-0.38-0.206-0.502
			c-0.136-0.121-0.322-0.182-0.558-0.182c-0.235,0-0.521,0.114-0.859,0.342s-0.594,0.478-0.769,0.751V139.183z"/>
		<path d="M133.578,133.488h0.42v5.706c-0.455,0-0.854-0.02-1.195-0.058c-0.342-0.037-0.697-0.119-1.065-0.244
			c-0.368-0.126-0.67-0.295-0.905-0.508c-0.236-0.212-0.429-0.506-0.581-0.882s-0.228-0.8-0.228-1.271s0.047-0.875,0.143-1.212
			c0.095-0.338,0.216-0.608,0.364-0.81c0.147-0.2,0.313-0.365,0.495-0.495c0.319-0.234,0.634-0.353,0.945-0.353
			c0.57,0,1.105,0.27,1.606,0.809V133.488z M130.446,136.176c0,0.995,0.307,1.686,0.923,2.072c0.546,0.343,1.283,0.513,2.209,0.513
			v-4.02c-0.259-0.296-0.507-0.53-0.746-0.7c-0.239-0.171-0.503-0.257-0.792-0.257c-0.479,0-0.864,0.211-1.156,0.632
			C130.592,134.838,130.446,135.425,130.446,136.176z M130.867,132.008h0.433v0.751h-0.433V132.008z M132.803,132.008h0.433v0.751
			h-0.433V132.008z"/>
		<path d="M136.015,142.03h-0.421v-8.542h0.421v0.684c0.501-0.539,1.037-0.809,1.606-0.809c0.312,0,0.626,0.118,0.945,0.353
			c0.668,0.486,1.002,1.303,1.002,2.449c0,1.352-0.505,2.235-1.515,2.653c-0.516,0.212-1.195,0.334-2.039,0.364V142.03z
			 M138.907,137.44c0.16-0.35,0.239-0.808,0.239-1.373s-0.153-1.087-0.461-1.565s-0.686-0.718-1.134-0.718
			c-0.288,0-0.552,0.086-0.791,0.257c-0.239,0.17-0.488,0.404-0.746,0.7v4.02C137.541,138.761,138.505,138.321,138.907,137.44z"/>
		<path d="M144.214,139.183l0.012-3.007c0-0.638-0.143-1.193-0.427-1.668c-0.285-0.475-0.649-0.712-1.093-0.712
			s-0.943,0.314-1.498,0.945v4.441h-0.421v-5.694h0.421v0.684c0.493-0.531,1.028-0.798,1.605-0.798c0.235,0,0.492,0.084,0.769,0.251
			c0.277,0.167,0.511,0.429,0.7,0.786c0.54-0.691,1.158-1.037,1.856-1.037c0.387,0,0.79,0.183,1.208,0.547
			c0.212,0.198,0.389,0.49,0.529,0.877c0.141,0.388,0.211,0.843,0.211,1.367l-0.012,3.018h-0.421l0.011-3.007
			c0-0.638-0.154-1.193-0.461-1.668c-0.307-0.475-0.685-0.712-1.133-0.712c-0.296,0-0.594,0.103-0.894,0.307
			c-0.3,0.206-0.545,0.441-0.735,0.707c0.137,0.395,0.205,0.847,0.205,1.355l-0.011,3.018H144.214z"/>
		<path d="M152.824,133.488h0.421v5.706c-0.456,0-0.854-0.02-1.195-0.058c-0.342-0.037-0.697-0.119-1.065-0.244
			c-0.369-0.126-0.67-0.295-0.906-0.508c-0.235-0.212-0.429-0.506-0.581-0.882c-0.152-0.376-0.228-0.8-0.228-1.271
			s0.048-0.875,0.143-1.212c0.094-0.338,0.217-0.608,0.364-0.81c0.148-0.2,0.313-0.365,0.496-0.495
			c0.319-0.234,0.634-0.353,0.945-0.353c0.569,0,1.105,0.27,1.605,0.809V133.488z M149.692,136.176c0,0.995,0.308,1.686,0.922,2.072
			c0.546,0.343,1.283,0.513,2.209,0.513v-4.02c-0.258-0.296-0.507-0.53-0.746-0.7c-0.239-0.171-0.502-0.257-0.792-0.257
			c-0.479,0-0.864,0.211-1.156,0.632C149.838,134.838,149.692,135.425,149.692,136.176z"/>
		<path d="M155.455,133.91h-1.311v-0.422h1.311v-1.879h0.421v1.879h1.322v0.422h-1.322v5.272h-0.421V133.91z"/>
	</g>
	<g>
		<circle fill="#3C3C3B" cx="97.947" cy="123.721" r="0.475"/>
		<circle fill="#3C3C3B" cx="101.308" cy="123.721" r="0.474"/>
		<circle fill="#3C3C3B" cx="104.668" cy="123.721" r="0.475"/>
		<circle fill="#3C3C3B" cx="108.028" cy="123.721" r="0.474"/>
		<circle fill="#3C3C3B" cx="111.389" cy="123.721" r="0.475"/>
		<circle fill="#3C3C3B" cx="114.749" cy="123.721" r="0.475"/>
		<circle fill="#3C3C3B" cx="118.109" cy="123.721" r="0.475"/>
		<circle fill="#3C3C3B" cx="121.469" cy="123.721" r="0.475"/>
		<circle fill="#3C3C3B" cx="124.83" cy="123.721" r="0.474"/>
		<circle fill="#3C3C3B" cx="128.19" cy="123.721" r="0.475"/>
		<circle fill="#3C3C3B" cx="131.551" cy="123.721" r="0.474"/>
		<circle fill="#3C3C3B" cx="134.911" cy="123.721" r="0.475"/>
		<circle fill="#3C3C3B" cx="138.271" cy="123.721" r="0.474"/>
		<circle fill="#3C3C3B" cx="141.632" cy="123.721" r="0.475"/>
		<circle fill="#3C3C3B" cx="144.992" cy="123.721" r="0.474"/>
		<circle fill="#3C3C3B" cx="148.352" cy="123.721" r="0.475"/>
		<circle fill="#3C3C3B" cx="151.712" cy="123.721" r="0.475"/>
		<circle fill="#3C3C3B" cx="155.073" cy="123.721" r="0.475"/>
		<circle fill="#3C3C3B" cx="158.434" cy="123.721" r="0.475"/>
		<circle fill="#3C3C3B" cx="161.793" cy="123.721" r="0.475"/>
		<circle fill="#3C3C3B" cx="165.154" cy="123.721" r="0.474"/>
		<circle fill="#3C3C3B" cx="168.514" cy="123.721" r="0.475"/>
		<circle fill="#3C3C3B" cx="171.875" cy="123.721" r="0.474"/>
		<circle fill="#3C3C3B" cx="175.234" cy="123.721" r="0.475"/>
	</g>
</g>
</svg>
