<?xml version="1.0" encoding="utf-8"?>
<!-- Generator: Adobe Illustrator 15.0.2, SVG Export Plug-In . SVG Version: 6.00 Build 0)  -->
<!DOCTYPE svg PUBLIC "-//W3C//DTD SVG 1.1//EN" "http://www.w3.org/Graphics/SVG/1.1/DTD/svg11.dtd">
<svg version="1.1" id="Lager_1" xmlns="http://www.w3.org/2000/svg" xmlns:xlink="http://www.w3.org/1999/xlink" x="0px" y="0px"
	 width="203.532px" height="203.775px" viewBox="0 0 203.532 203.775" enable-background="new 0 0 203.532 203.775"
	 xml:space="preserve">
<g>
	<circle fill="#FFFFFF" stroke="#FAFAFA" stroke-width="0.5063" stroke-miterlimit="10" cx="101.766" cy="101.766" r="101.513"/>
</g>
<g>
	<circle fill="#EFEFEF" stroke="#FAFAFA" stroke-width="0.5063" stroke-miterlimit="10" cx="102.921" cy="101.529" r="56.153"/>
</g>
<g>
	<g>
		<g>
			
				<path fill="#FCDEBA" stroke="#FCDEBA" stroke-width="1.5371" stroke-linecap="round" stroke-linejoin="round" stroke-miterlimit="10" d="
				M75.381,128.351l34.39,36.883l2.348,2.518c-5.068,3.202-18.055,17.567-18.055,17.567c-1.468,1.367-3.766,1.286-5.133-0.18
				l-19.94-27.965c0,0-3.693,1.383-7.339-2.864c-4.838-7.283,1.598-14.663,11.936-24.303
				C74.193,129.44,74.791,128.889,75.381,128.351c0.44,1.318,1.161,2.566,2.17,3.649"/>
			<path fill="#FFEED2" d="M75.381,128.351l34.39,36.883l2.348,2.518c3.547-4.832,18.785-16.783,18.785-16.783
				c1.467-1.368,1.546-3.666,0.18-5.132l-26.504-21.847c0,0,1.638-3.586-2.344-7.52c-6.928-5.335-14.739,0.567-25.077,10.206
				C76.551,127.243,75.959,127.801,75.381,128.351c1.284,0.532-3.55,1.271-2.541,2.353"/>
			
				<path fill="none" stroke="#FAC87C" stroke-width="2.8993" stroke-linecap="round" stroke-linejoin="round" stroke-miterlimit="10" d="
				M131.546,151.2c1.467-1.368,1.547-3.664,0.18-5.131l-26.506-21.85c0,0,2.166-3.217-2.347-7.521
				c-7.259-5.883-17.114,1.126-27.871,11.247c-11.103,10.262-18.526,19.365-13.167,27.019c3.979,4.801,7.34,2.865,7.34,2.865
				l19.944,27.967c1.367,1.466,3.664,1.548,5.131,0.179C94.25,185.975,106.585,172.502,131.546,151.2z"/>
		</g>
		<g>
			<g>
				
					<path fill="#FFD703" stroke="#FFD703" stroke-width="0.2862" stroke-linecap="round" stroke-linejoin="round" stroke-miterlimit="10" d="
					M67.226,161.315l42.559,11.384l10.297-38.524l-42.558-11.382L67.226,161.315z M108.258,158.891
					c-0.759,2.854-3.114,4.699-5.255,4.126c-2.139-0.571-3.256-3.348-2.495-6.199c0.762-2.851,3.114-4.7,5.255-4.128
					C107.906,153.262,109.022,156.039,108.258,158.891z M93.837,153.197c-0.51,1.909-2.082,3.141-3.516,2.762
					c-1.43-0.385-2.178-2.239-1.667-4.148c0.509-1.904,2.082-3.14,3.514-2.757C93.601,149.437,94.345,151.294,93.837,153.197z"/>
				<g>
					
						<path fill="#FBC106" stroke="#FBC106" stroke-width="0.2862" stroke-linecap="round" stroke-linejoin="round" stroke-miterlimit="10" d="
						M90.022,149.609l1.092-0.562C90.733,149.144,90.361,149.336,90.022,149.609z"/>
					
						<path fill="#FBC106" stroke="#FBC106" stroke-width="0.2862" stroke-linecap="round" stroke-linejoin="round" stroke-miterlimit="10" d="
						M102.711,143.096l-11.597,5.952l-1.092,0.562l-22.797,11.706l42.559,11.384l10.297-38.524l-13.967,7.172L102.711,143.096z"/>
				</g>
			</g>
			<g>
				<g>
					<g>
						<g>
							
								<path fill="#E4352E" stroke="#E4352E" stroke-width="0.2573" stroke-linecap="round" stroke-linejoin="round" stroke-miterlimit="10" d="
								M105.669,147.412c0.131-6.646-3.893-12.134-10.222-13.097c-6.331-0.962-10.237,3.32-12.744,9.606L105.669,147.412z"/>
						</g>
						<g>
							
								<path fill="#EE8378" stroke="#EE8378" stroke-width="0.1273" stroke-linecap="round" stroke-linejoin="round" stroke-miterlimit="10" d="
								M98.159,146.334c0.065-3.285-1.924-6.001-5.057-6.478c-3.131-0.475-5.062,1.645-6.301,4.753L98.159,146.334z"/>
						</g>
						<g>
							
								<path fill="#FFE09C" stroke="#FFE09C" stroke-width="0.0283" stroke-linecap="round" stroke-linejoin="round" stroke-miterlimit="10" d="
								M88.658,139.336c-0.243-0.314-0.634-0.424-0.872-0.24c-0.241,0.183-0.236,0.586,0.006,0.902
								c0.243,0.315,0.702,0.512,0.943,0.33C88.973,140.146,88.903,139.651,88.658,139.336z"/>
						</g>
						<g>
							
								<path fill="#FFE09C" stroke="#FFE09C" stroke-width="0.0283" stroke-linecap="round" stroke-linejoin="round" stroke-miterlimit="10" d="
								M91.423,138.186c-0.08-0.4-0.375-0.655-0.658-0.573c-0.285,0.082-0.451,0.473-0.373,0.871c0.08,0.4,0.396,0.766,0.68,0.688
								C91.356,139.086,91.501,138.585,91.423,138.186z"/>
						</g>
						<g>
							
								<path fill="#FFE09C" stroke="#FFE09C" stroke-width="0.0283" stroke-linecap="round" stroke-linejoin="round" stroke-miterlimit="10" d="
								M94.34,138.282c0.108-0.413-0.034-0.779-0.315-0.816c-0.278-0.036-0.592,0.271-0.701,0.684
								c-0.107,0.413,0.004,0.895,0.283,0.932C93.89,139.119,94.232,138.697,94.34,138.282z"/>
						</g>
						<g>
							
								<path fill="#FFE09C" stroke="#FFE09C" stroke-width="0.0283" stroke-linecap="round" stroke-linejoin="round" stroke-miterlimit="10" d="
								M98.136,140.685c0.394-0.218,0.81-0.204,0.934,0.034c0.12,0.237-0.102,0.606-0.494,0.826
								c-0.395,0.217-0.922,0.265-1.043,0.025C97.411,141.334,97.741,140.903,98.136,140.685z"/>
						</g>
						<g>
							
								<path fill="#FFE09C" stroke="#FFE09C" stroke-width="0.0283" stroke-linecap="round" stroke-linejoin="round" stroke-miterlimit="10" d="
								M96.06,138.891c0.289-0.345,0.697-0.493,0.914-0.335c0.217,0.159,0.158,0.567-0.129,0.91
								c-0.288,0.342-0.777,0.588-0.994,0.43C95.634,139.736,95.772,139.233,96.06,138.891z"/>
						</g>
					</g>
				</g>
				<g>
					<g>
						<g>
							
								<path fill="#E4352E" stroke="#E4352E" stroke-width="0.2573" stroke-linecap="round" stroke-linejoin="round" stroke-miterlimit="10" d="
								M102.918,163.917c0.132-6.645-3.892-12.134-10.222-13.096s-10.236,3.319-12.742,9.605L102.918,163.917z"/>
						</g>
						<g>
							
								<path fill="#EE8378" stroke="#EE8378" stroke-width="0.1273" stroke-linecap="round" stroke-linejoin="round" stroke-miterlimit="10" d="
								M95.411,162.838c0.064-3.284-1.926-6-5.057-6.477c-3.132-0.476-5.064,1.644-6.303,4.752L95.411,162.838z"/>
						</g>
						<g>
							
								<path fill="#FFE09C" stroke="#FFE09C" stroke-width="0.0283" stroke-linecap="round" stroke-linejoin="round" stroke-miterlimit="10" d="
								M85.909,155.842c-0.244-0.315-0.635-0.425-0.874-0.241c-0.241,0.183-0.237,0.586,0.007,0.901
								c0.244,0.316,0.702,0.513,0.943,0.329C86.224,156.649,86.153,156.156,85.909,155.842z"/>
						</g>
						<g>
							
								<path fill="#FFE09C" stroke="#FFE09C" stroke-width="0.0283" stroke-linecap="round" stroke-linejoin="round" stroke-miterlimit="10" d="
								M88.673,154.689c-0.08-0.399-0.375-0.655-0.658-0.573c-0.285,0.083-0.451,0.474-0.373,0.871
								c0.08,0.401,0.396,0.768,0.68,0.686C88.606,155.589,88.751,155.089,88.673,154.689z"/>
						</g>
						<g>
							
								<path fill="#FFE09C" stroke="#FFE09C" stroke-width="0.0283" stroke-linecap="round" stroke-linejoin="round" stroke-miterlimit="10" d="
								M91.59,154.785c0.107-0.412-0.032-0.777-0.314-0.814c-0.279-0.037-0.593,0.269-0.702,0.684
								c-0.106,0.414,0.003,0.895,0.283,0.932C91.138,155.623,91.481,155.201,91.59,154.785z"/>
						</g>
						<g>
							
								<path fill="#FFE09C" stroke="#FFE09C" stroke-width="0.0283" stroke-linecap="round" stroke-linejoin="round" stroke-miterlimit="10" d="
								M95.385,157.19c0.395-0.22,0.81-0.206,0.935,0.032c0.12,0.238-0.102,0.608-0.496,0.826c-0.393,0.219-0.92,0.264-1.041,0.027
								C94.661,157.839,94.991,157.408,95.385,157.19z"/>
						</g>
						<g>
							
								<path fill="#FFE09C" stroke="#FFE09C" stroke-width="0.0283" stroke-linecap="round" stroke-linejoin="round" stroke-miterlimit="10" d="
								M93.31,155.395c0.289-0.344,0.697-0.492,0.915-0.334c0.216,0.157,0.157,0.566-0.13,0.908
								c-0.288,0.345-0.777,0.59-0.994,0.431C92.883,156.24,93.021,155.737,93.31,155.395z"/>
						</g>
					</g>
				</g>
				<g>
					<path fill="#44A260" d="M101.981,150.434c-0.689-0.242-1.303-1.109-2.539-3.256c-5.479-9.527-17.307-1.977-18.434-1.229
						l-0.07-0.015c0,0,0.01,0.017,0.027,0.045c-0.029,0.018-0.045,0.029-0.045,0.029l0.072,0.017
						c0.701,1.157,8.199,13.019,17.207,6.722c2.031-1.418,2.955-1.943,3.683-1.87L101.981,150.434z"/>
				</g>
				<g>
					<path fill="#44A260" d="M106.788,133.146c-0.691-0.243-1.305-1.111-2.539-3.257c-5.479-9.527-17.307-1.977-18.434-1.227
						l-0.07-0.016c0,0,0.01,0.017,0.026,0.044c-0.028,0.02-0.044,0.029-0.044,0.029l0.07,0.016c0.703,1.158,8.2,13.02,17.209,6.724
						c2.03-1.42,2.954-1.945,3.682-1.871L106.788,133.146z"/>
				</g>
				<g>
					<path fill="#44A260" d="M100.884,167.083c-0.689-0.243-1.304-1.111-2.539-3.257c-5.479-9.527-17.306-1.976-18.432-1.228
						l-0.072-0.016c0,0,0.01,0.017,0.027,0.046c-0.028,0.019-0.045,0.029-0.045,0.029l0.072,0.015
						c0.701,1.158,8.199,13.021,17.207,6.723c2.031-1.418,2.955-1.944,3.684-1.869L100.884,167.083z"/>
				</g>
			</g>
		</g>
	</g>
	<g>
		<g>
			
				<path fill="#FCDEBA" stroke="#FCDEBA" stroke-width="1.5371" stroke-linecap="round" stroke-linejoin="round" stroke-miterlimit="10" d="
				M130.084,82.469l34.39,36.882l2.348,2.518c-5.068,3.202-18.055,17.567-18.055,17.567c-1.467,1.368-3.766,1.286-5.133-0.179
				l-19.939-27.965c0,0-3.693,1.383-7.339-2.865c-4.839-7.283,1.597-14.663,11.935-24.302
				C128.897,83.559,129.495,83.006,130.084,82.469c0.44,1.318,1.161,2.566,2.17,3.648"/>
			<path fill="#FFEED2" d="M130.084,82.469l34.39,36.882l2.348,2.518c3.548-4.832,18.785-16.783,18.785-16.783
				c1.467-1.368,1.547-3.665,0.18-5.131l-26.503-21.847c0,0,1.638-3.587-2.345-7.52c-6.928-5.335-14.738,0.567-25.077,10.207
				C131.254,81.361,130.662,81.918,130.084,82.469c1.284,0.531-3.55,1.271-2.54,2.353"/>
			
				<path fill="none" stroke="#FAC87C" stroke-width="2.8993" stroke-linecap="round" stroke-linejoin="round" stroke-miterlimit="10" d="
				M186.249,105.318c1.467-1.368,1.547-3.665,0.18-5.131l-26.506-21.85c0,0,2.166-3.217-2.346-7.522
				c-7.26-5.882-17.115,1.126-27.872,11.247c-11.103,10.263-18.526,19.366-13.166,27.019c3.979,4.802,7.339,2.865,7.339,2.865
				l19.944,27.968c1.367,1.466,3.665,1.547,5.132,0.179C148.954,140.093,161.288,126.619,186.249,105.318z"/>
		</g>
		<g>
			<g>
				
					<path fill="#FFD703" stroke="#FFD703" stroke-width="0.2862" stroke-linecap="round" stroke-linejoin="round" stroke-miterlimit="10" d="
					M121.929,115.434l42.56,11.383l10.296-38.524L132.228,76.91L121.929,115.434z M162.962,113.008
					c-0.76,2.854-3.115,4.699-5.256,4.127c-2.139-0.572-3.256-3.349-2.494-6.2c0.761-2.85,3.113-4.699,5.254-4.128
					C162.609,107.379,163.726,110.156,162.962,113.008z M148.54,107.315c-0.51,1.909-2.082,3.141-3.515,2.762
					c-1.431-0.385-2.179-2.24-1.668-4.148c0.509-1.905,2.083-3.141,3.514-2.758C148.305,103.554,149.049,105.411,148.54,107.315z"/>
				<g>
					
						<path fill="#FBC106" stroke="#FBC106" stroke-width="0.2862" stroke-linecap="round" stroke-linejoin="round" stroke-miterlimit="10" d="
						M144.726,103.727l1.093-0.561C145.437,103.262,145.064,103.454,144.726,103.727z"/>
					
						<path fill="#FBC106" stroke="#FBC106" stroke-width="0.2862" stroke-linecap="round" stroke-linejoin="round" stroke-miterlimit="10" d="
						M157.415,97.213l-11.597,5.953l-1.093,0.561l-22.797,11.707l42.56,11.383l10.296-38.524l-13.967,7.172L157.415,97.213z"/>
				</g>
			</g>
			<g>
				<g>
					<g>
						<g>
							
								<path fill="#E4352E" stroke="#E4352E" stroke-width="0.2573" stroke-linecap="round" stroke-linejoin="round" stroke-miterlimit="10" d="
								M160.372,101.529c0.131-6.646-3.893-12.134-10.222-13.096c-6.331-0.962-10.237,3.32-12.744,9.605L160.372,101.529z"/>
						</g>
						<g>
							
								<path fill="#EE8378" stroke="#EE8378" stroke-width="0.1273" stroke-linecap="round" stroke-linejoin="round" stroke-miterlimit="10" d="
								M152.863,100.452c0.064-3.286-1.925-6.001-5.057-6.478c-3.131-0.474-5.063,1.645-6.302,4.753L152.863,100.452z"/>
						</g>
						<g>
							
								<path fill="#FFE09C" stroke="#FFE09C" stroke-width="0.0283" stroke-linecap="round" stroke-linejoin="round" stroke-miterlimit="10" d="
								M143.362,93.454c-0.244-0.315-0.635-0.425-0.873-0.24c-0.24,0.183-0.236,0.585,0.006,0.902
								c0.244,0.315,0.703,0.511,0.943,0.33C143.677,94.263,143.606,93.77,143.362,93.454z"/>
						</g>
						<g>
							
								<path fill="#FFE09C" stroke="#FFE09C" stroke-width="0.0283" stroke-linecap="round" stroke-linejoin="round" stroke-miterlimit="10" d="
								M146.126,92.303c-0.08-0.399-0.374-0.655-0.658-0.573c-0.285,0.083-0.451,0.473-0.373,0.872
								c0.08,0.399,0.396,0.766,0.681,0.687C146.061,93.204,146.204,92.703,146.126,92.303z"/>
						</g>
						<g>
							
								<path fill="#FFE09C" stroke="#FFE09C" stroke-width="0.0283" stroke-linecap="round" stroke-linejoin="round" stroke-miterlimit="10" d="
								M149.044,92.399c0.107-0.413-0.034-0.779-0.316-0.816c-0.278-0.037-0.592,0.27-0.701,0.684
								c-0.106,0.413,0.004,0.894,0.283,0.931C148.593,93.237,148.937,92.815,149.044,92.399z"/>
						</g>
						<g>
							
								<path fill="#FFE09C" stroke="#FFE09C" stroke-width="0.0283" stroke-linecap="round" stroke-linejoin="round" stroke-miterlimit="10" d="
								M152.839,94.803c0.395-0.218,0.811-0.205,0.934,0.033c0.121,0.238-0.101,0.607-0.494,0.827
								c-0.395,0.217-0.922,0.264-1.042,0.025C152.114,95.452,152.444,95.021,152.839,94.803z"/>
						</g>
						<g>
							
								<path fill="#FFE09C" stroke="#FFE09C" stroke-width="0.0283" stroke-linecap="round" stroke-linejoin="round" stroke-miterlimit="10" d="
								M150.763,93.008c0.289-0.345,0.697-0.493,0.915-0.335c0.216,0.16,0.157,0.567-0.13,0.91c-0.288,0.342-0.777,0.588-0.993,0.43
								C150.337,93.854,150.476,93.351,150.763,93.008z"/>
						</g>
					</g>
				</g>
				<g>
					<g>
						<g>
							
								<path fill="#E4352E" stroke="#E4352E" stroke-width="0.2573" stroke-linecap="round" stroke-linejoin="round" stroke-miterlimit="10" d="
								M157.622,118.035c0.132-6.646-3.893-12.134-10.223-13.096c-6.33-0.963-10.236,3.319-12.742,9.604L157.622,118.035z"/>
						</g>
						<g>
							
								<path fill="#EE8378" stroke="#EE8378" stroke-width="0.1273" stroke-linecap="round" stroke-linejoin="round" stroke-miterlimit="10" d="
								M150.114,116.956c0.064-3.285-1.925-6-5.057-6.477c-3.131-0.476-5.064,1.643-6.303,4.751L150.114,116.956z"/>
						</g>
						<g>
							
								<path fill="#FFE09C" stroke="#FFE09C" stroke-width="0.0283" stroke-linecap="round" stroke-linejoin="round" stroke-miterlimit="10" d="
								M140.612,109.96c-0.244-0.315-0.635-0.426-0.873-0.241c-0.241,0.183-0.237,0.585,0.006,0.9
								c0.244,0.317,0.702,0.514,0.943,0.329C140.927,110.768,140.856,110.273,140.612,109.96z"/>
						</g>
						<g>
							
								<path fill="#FFE09C" stroke="#FFE09C" stroke-width="0.0283" stroke-linecap="round" stroke-linejoin="round" stroke-miterlimit="10" d="
								M143.376,108.808c-0.08-0.4-0.375-0.655-0.658-0.574c-0.284,0.084-0.451,0.474-0.373,0.872c0.08,0.4,0.396,0.768,0.681,0.686
								C143.31,109.706,143.455,109.207,143.376,108.808z"/>
						</g>
						<g>
							
								<path fill="#FFE09C" stroke="#FFE09C" stroke-width="0.0283" stroke-linecap="round" stroke-linejoin="round" stroke-miterlimit="10" d="
								M146.293,108.903c0.108-0.412-0.032-0.777-0.314-0.814c-0.278-0.038-0.593,0.269-0.701,0.684
								c-0.107,0.413,0.002,0.895,0.283,0.931C145.842,109.74,146.186,109.318,146.293,108.903z"/>
						</g>
						<g>
							
								<path fill="#FFE09C" stroke="#FFE09C" stroke-width="0.0283" stroke-linecap="round" stroke-linejoin="round" stroke-miterlimit="10" d="
								M150.088,111.309c0.396-0.22,0.811-0.206,0.935,0.031c0.121,0.238-0.101,0.608-0.495,0.826
								c-0.394,0.22-0.921,0.264-1.042,0.028C149.364,111.957,149.694,111.526,150.088,111.309z"/>
						</g>
						<g>
							
								<path fill="#FFE09C" stroke="#FFE09C" stroke-width="0.0283" stroke-linecap="round" stroke-linejoin="round" stroke-miterlimit="10" d="
								M148.013,109.512c0.289-0.342,0.698-0.491,0.915-0.333c0.216,0.157,0.157,0.566-0.13,0.907
								c-0.287,0.346-0.777,0.59-0.994,0.431C147.587,110.358,147.726,109.855,148.013,109.512z"/>
						</g>
					</g>
				</g>
				<g>
					<path fill="#44A260" d="M156.685,104.552c-0.689-0.243-1.303-1.11-2.539-3.256c-5.479-9.528-17.307-1.978-18.433-1.229
						l-0.071-0.015c0,0,0.01,0.017,0.027,0.045c-0.029,0.018-0.044,0.029-0.044,0.029l0.071,0.016
						c0.701,1.157,8.199,13.02,17.207,6.722c2.031-1.418,2.955-1.943,3.683-1.869L156.685,104.552z"/>
				</g>
				<g>
					<path fill="#44A260" d="M161.491,87.264c-0.691-0.243-1.304-1.111-2.539-3.256c-5.479-9.528-17.307-1.977-18.434-1.228
						l-0.07-0.015c0,0,0.01,0.016,0.026,0.043c-0.028,0.02-0.044,0.03-0.044,0.03l0.071,0.015c0.702,1.158,8.2,13.02,17.208,6.723
						c2.03-1.419,2.955-1.945,3.683-1.87L161.491,87.264z"/>
				</g>
				<g>
					<path fill="#44A260" d="M155.588,121.2c-0.69-0.242-1.304-1.111-2.54-3.257c-5.479-9.527-17.306-1.975-18.432-1.227
						l-0.072-0.016c0,0,0.01,0.016,0.027,0.046c-0.028,0.018-0.044,0.028-0.044,0.028l0.071,0.016
						c0.701,1.157,8.199,13.02,17.208,6.722c2.03-1.417,2.954-1.943,3.683-1.869L155.588,121.2z"/>
				</g>
			</g>
		</g>
	</g>
	<g>
		<g>
			
				<path fill="#FCDEBA" stroke="#FCDEBA" stroke-width="1.5371" stroke-linecap="round" stroke-linejoin="round" stroke-miterlimit="10" d="
				M31.496,76.36l34.39,36.882l2.348,2.518c-5.068,3.202-18.055,17.567-18.055,17.567c-1.467,1.367-3.766,1.286-5.133-0.179
				l-19.939-27.966c0,0-3.694,1.383-7.339-2.864c-4.839-7.283,1.597-14.663,11.935-24.303C30.309,77.45,30.906,76.897,31.496,76.36
				c0.44,1.318,1.161,2.566,2.17,3.648"/>
			<path fill="#FFEED2" d="M31.496,76.36l34.39,36.882l2.348,2.518c3.548-4.832,18.785-16.784,18.785-16.784
				c1.467-1.368,1.547-3.666,0.18-5.131L60.695,71.999c0,0,1.637-3.587-2.345-7.52c-6.928-5.335-14.739,0.567-25.077,10.207
				C32.666,75.252,32.074,75.81,31.496,76.36c1.284,0.531-3.55,1.271-2.541,2.352"/>
			
				<path fill="none" stroke="#FAC87C" stroke-width="2.8993" stroke-linecap="round" stroke-linejoin="round" stroke-miterlimit="10" d="
				M87.661,99.209c1.467-1.368,1.547-3.665,0.18-5.131L61.335,72.229c0,0,2.166-3.217-2.346-7.522
				c-7.26-5.882-17.115,1.126-27.872,11.247C20.015,86.216,12.591,95.319,17.95,102.973c3.979,4.801,7.34,2.865,7.34,2.865
				l19.944,27.967c1.367,1.466,3.664,1.548,5.132,0.179C50.366,133.983,62.7,120.511,87.661,99.209z"/>
		</g>
		<g>
			<g>
				
					<path fill="#FFD703" stroke="#FFD703" stroke-width="0.2862" stroke-linecap="round" stroke-linejoin="round" stroke-miterlimit="10" d="
					M23.341,109.324l42.56,11.384l10.296-38.524L33.64,70.801L23.341,109.324z M64.373,106.899
					c-0.759,2.854-3.114,4.699-5.255,4.126c-2.139-0.571-3.256-3.348-2.495-6.199c0.762-2.851,3.114-4.7,5.255-4.128
					C64.021,101.271,65.138,104.048,64.373,106.899z M49.952,101.206c-0.51,1.909-2.082,3.141-3.516,2.762
					c-1.43-0.385-2.178-2.239-1.667-4.148c0.509-1.905,2.083-3.14,3.514-2.757C49.716,97.445,50.461,99.303,49.952,101.206z"/>
				<g>
					
						<path fill="#FBC106" stroke="#FBC106" stroke-width="0.2862" stroke-linecap="round" stroke-linejoin="round" stroke-miterlimit="10" d="
						M46.138,97.618l1.092-0.561C46.849,97.153,46.477,97.345,46.138,97.618z"/>
					
						<path fill="#FBC106" stroke="#FBC106" stroke-width="0.2862" stroke-linecap="round" stroke-linejoin="round" stroke-miterlimit="10" d="
						M58.827,91.104l-11.598,5.953l-1.092,0.561l-22.797,11.706l42.56,11.384l10.296-38.524l-13.967,7.172L58.827,91.104z"/>
				</g>
			</g>
			<g>
				<g>
					<g>
						<g>
							
								<path fill="#E4352E" stroke="#E4352E" stroke-width="0.2573" stroke-linecap="round" stroke-linejoin="round" stroke-miterlimit="10" d="
								M61.784,95.42c0.131-6.646-3.893-12.133-10.222-13.096c-6.331-0.962-10.237,3.32-12.744,9.605L61.784,95.42z"/>
						</g>
						<g>
							
								<path fill="#EE8378" stroke="#EE8378" stroke-width="0.1273" stroke-linecap="round" stroke-linejoin="round" stroke-miterlimit="10" d="
								M54.275,94.343c0.064-3.286-1.925-6.001-5.058-6.478c-3.131-0.474-5.062,1.645-6.301,4.753L54.275,94.343z"/>
						</g>
						<g>
							
								<path fill="#FFE09C" stroke="#FFE09C" stroke-width="0.0283" stroke-linecap="round" stroke-linejoin="round" stroke-miterlimit="10" d="
								M44.773,87.345c-0.243-0.314-0.634-0.424-0.872-0.24c-0.241,0.183-0.236,0.585,0.006,0.902
								c0.244,0.315,0.703,0.511,0.943,0.33C45.089,88.154,45.019,87.66,44.773,87.345z"/>
						</g>
						<g>
							
								<path fill="#FFE09C" stroke="#FFE09C" stroke-width="0.0283" stroke-linecap="round" stroke-linejoin="round" stroke-miterlimit="10" d="
								M47.538,86.194c-0.08-0.399-0.375-0.655-0.658-0.573c-0.285,0.083-0.451,0.473-0.373,0.872
								c0.08,0.399,0.396,0.766,0.68,0.687C47.473,87.095,47.616,86.594,47.538,86.194z"/>
						</g>
						<g>
							
								<path fill="#FFE09C" stroke="#FFE09C" stroke-width="0.0283" stroke-linecap="round" stroke-linejoin="round" stroke-miterlimit="10" d="
								M50.456,86.291c0.107-0.413-0.034-0.779-0.316-0.816c-0.278-0.037-0.592,0.27-0.701,0.684
								c-0.106,0.413,0.004,0.894,0.283,0.931C50.005,87.128,50.348,86.706,50.456,86.291z"/>
						</g>
						<g>
							
								<path fill="#FFE09C" stroke="#FFE09C" stroke-width="0.0283" stroke-linecap="round" stroke-linejoin="round" stroke-miterlimit="10" d="
								M54.251,88.693c0.394-0.218,0.81-0.205,0.934,0.034c0.12,0.238-0.102,0.607-0.494,0.827
								c-0.395,0.217-0.922,0.264-1.042,0.026C53.526,89.343,53.856,88.913,54.251,88.693z"/>
						</g>
						<g>
							
								<path fill="#FFE09C" stroke="#FFE09C" stroke-width="0.0283" stroke-linecap="round" stroke-linejoin="round" stroke-miterlimit="10" d="
								M52.175,86.899c0.289-0.345,0.697-0.493,0.915-0.335c0.216,0.159,0.157,0.567-0.13,0.91c-0.288,0.342-0.777,0.588-0.993,0.43
								C51.749,87.746,51.888,87.242,52.175,86.899z"/>
						</g>
					</g>
				</g>
				<g>
					<g>
						<g>
							
								<path fill="#E4352E" stroke="#E4352E" stroke-width="0.2573" stroke-linecap="round" stroke-linejoin="round" stroke-miterlimit="10" d="
								M59.033,111.926c0.133-6.645-3.892-12.134-10.222-13.096c-6.33-0.962-10.236,3.319-12.742,9.605L59.033,111.926z"/>
						</g>
						<g>
							
								<path fill="#EE8378" stroke="#EE8378" stroke-width="0.1273" stroke-linecap="round" stroke-linejoin="round" stroke-miterlimit="10" d="
								M51.526,110.847c0.064-3.284-1.926-6-5.057-6.477c-3.131-0.476-5.064,1.644-6.303,4.752L51.526,110.847z"/>
						</g>
						<g>
							
								<path fill="#FFE09C" stroke="#FFE09C" stroke-width="0.0283" stroke-linecap="round" stroke-linejoin="round" stroke-miterlimit="10" d="
								M42.024,103.851c-0.244-0.315-0.635-0.425-0.874-0.241c-0.241,0.183-0.236,0.586,0.007,0.901
								c0.244,0.316,0.702,0.513,0.943,0.329C42.339,104.658,42.269,104.165,42.024,103.851z"/>
						</g>
						<g>
							
								<path fill="#FFE09C" stroke="#FFE09C" stroke-width="0.0283" stroke-linecap="round" stroke-linejoin="round" stroke-miterlimit="10" d="
								M44.788,102.698c-0.08-0.399-0.375-0.655-0.658-0.573c-0.285,0.083-0.451,0.474-0.373,0.871
								c0.08,0.401,0.396,0.768,0.681,0.686C44.722,103.598,44.867,103.098,44.788,102.698z"/>
						</g>
						<g>
							
								<path fill="#FFE09C" stroke="#FFE09C" stroke-width="0.0283" stroke-linecap="round" stroke-linejoin="round" stroke-miterlimit="10" d="
								M47.705,102.794c0.108-0.412-0.032-0.777-0.314-0.813c-0.279-0.038-0.593,0.268-0.701,0.683
								c-0.107,0.414,0.002,0.895,0.282,0.932C47.253,103.632,47.598,103.21,47.705,102.794z"/>
						</g>
						<g>
							
								<path fill="#FFE09C" stroke="#FFE09C" stroke-width="0.0283" stroke-linecap="round" stroke-linejoin="round" stroke-miterlimit="10" d="
								M51.5,105.199c0.396-0.22,0.811-0.206,0.935,0.032c0.121,0.238-0.101,0.608-0.496,0.826c-0.393,0.219-0.92,0.264-1.041,0.027
								C50.776,105.848,51.106,105.417,51.5,105.199z"/>
						</g>
						<g>
							
								<path fill="#FFE09C" stroke="#FFE09C" stroke-width="0.0283" stroke-linecap="round" stroke-linejoin="round" stroke-miterlimit="10" d="
								M49.425,103.403c0.289-0.343,0.697-0.492,0.915-0.333c0.216,0.156,0.157,0.565-0.13,0.907
								c-0.288,0.345-0.777,0.59-0.994,0.431S49.138,103.746,49.425,103.403z"/>
						</g>
					</g>
				</g>
				<g>
					<path fill="#44A260" d="M58.097,98.443c-0.689-0.243-1.303-1.11-2.539-3.256c-5.479-9.528-17.307-1.977-18.434-1.228
						l-0.07-0.015c0,0,0.01,0.017,0.027,0.045c-0.029,0.018-0.044,0.029-0.044,0.029l0.071,0.016
						c0.701,1.157,8.199,13.019,17.207,6.722c2.031-1.418,2.955-1.943,3.683-1.87L58.097,98.443z"/>
				</g>
				<g>
					<path fill="#44A260" d="M62.903,81.155c-0.691-0.243-1.305-1.111-2.539-3.256c-5.479-9.528-17.307-1.977-18.434-1.228
						l-0.07-0.015c0,0,0.01,0.016,0.026,0.043c-0.028,0.02-0.044,0.03-0.044,0.03l0.07,0.015c0.703,1.158,8.2,13.02,17.209,6.724
						c2.03-1.42,2.955-1.945,3.682-1.871L62.903,81.155z"/>
				</g>
				<g>
					<path fill="#44A260" d="M57,115.092c-0.69-0.243-1.304-1.111-2.54-3.257c-5.479-9.527-17.306-1.976-18.432-1.228l-0.072-0.016
						c0,0,0.01,0.017,0.027,0.046c-0.028,0.019-0.045,0.029-0.045,0.029l0.072,0.015c0.701,1.158,8.199,13.021,17.208,6.723
						c2.03-1.418,2.954-1.943,3.683-1.869L57,115.092z"/>
				</g>
			</g>
		</g>
	</g>
	<g>
		<g>
			
				<path fill="#FCDEBA" stroke="#FCDEBA" stroke-width="1.5371" stroke-linecap="round" stroke-linejoin="round" stroke-miterlimit="10" d="
				M86.199,30.478l34.39,36.881l2.348,2.519c-5.068,3.202-18.055,17.567-18.055,17.567c-1.467,1.368-3.766,1.287-5.132-0.179
				L79.81,59.301c0,0-3.693,1.382-7.339-2.866c-4.839-7.283,1.597-14.663,11.935-24.302C85.013,31.567,85.61,31.015,86.199,30.478
				c0.44,1.318,1.161,2.566,2.17,3.648"/>
			<path fill="#FFEED2" d="M86.199,30.478l34.39,36.881l2.348,2.519c3.548-4.833,18.785-16.783,18.785-16.783
				c1.468-1.368,1.547-3.666,0.18-5.131l-26.503-21.847c0,0,1.638-3.587-2.344-7.52c-6.929-5.335-14.739,0.567-25.077,10.207
				C87.37,29.37,86.777,29.927,86.199,30.478c1.284,0.531-3.55,1.271-2.54,2.353"/>
			
				<path fill="none" stroke="#FAC87C" stroke-width="2.8993" stroke-linecap="round" stroke-linejoin="round" stroke-miterlimit="10" d="
				M142.364,53.327c1.467-1.368,1.547-3.665,0.18-5.131l-26.506-21.849c0,0,2.166-3.217-2.346-7.522
				c-7.259-5.882-17.115,1.126-27.871,11.247C74.718,40.334,67.294,49.437,72.654,57.09c3.979,4.802,7.339,2.865,7.339,2.865
				l19.944,27.968c1.367,1.465,3.665,1.547,5.132,0.179C105.069,88.102,117.404,74.628,142.364,53.327z"/>
		</g>
		<g>
			<g>
				
					<path fill="#FFD703" stroke="#FFD703" stroke-width="0.2862" stroke-linecap="round" stroke-linejoin="round" stroke-miterlimit="10" d="
					M78.044,63.443l42.56,11.382l10.296-38.524L88.343,24.919L78.044,63.443z M119.077,61.017c-0.76,2.853-3.115,4.7-5.256,4.127
					c-2.139-0.573-3.256-3.35-2.494-6.201c0.762-2.85,3.113-4.699,5.255-4.128C118.725,55.388,119.841,58.166,119.077,61.017z
					 M104.655,55.324c-0.51,1.909-2.082,3.141-3.515,2.761c-1.431-0.384-2.179-2.239-1.667-4.148
					c0.508-1.905,2.082-3.14,3.514-2.757C104.42,51.563,105.164,53.42,104.655,55.324z"/>
				<g>
					
						<path fill="#FBC106" stroke="#FBC106" stroke-width="0.2862" stroke-linecap="round" stroke-linejoin="round" stroke-miterlimit="10" d="
						M100.841,51.736l1.093-0.561C101.552,51.271,101.181,51.463,100.841,51.736z"/>
					
						<path fill="#FBC106" stroke="#FBC106" stroke-width="0.2862" stroke-linecap="round" stroke-linejoin="round" stroke-miterlimit="10" d="
						M113.53,45.222l-11.597,5.953l-1.093,0.561L78.044,63.443l42.56,11.382l10.296-38.524l-13.967,7.172L113.53,45.222z"/>
				</g>
			</g>
			<g>
				<g>
					<g>
						<g>
							
								<path fill="#E4352E" stroke="#E4352E" stroke-width="0.2573" stroke-linecap="round" stroke-linejoin="round" stroke-miterlimit="10" d="
								M116.487,49.538c0.131-6.646-3.892-12.133-10.221-13.096c-6.332-0.962-10.238,3.32-12.744,9.605L116.487,49.538z"/>
						</g>
						<g>
							
								<path fill="#EE8378" stroke="#EE8378" stroke-width="0.1273" stroke-linecap="round" stroke-linejoin="round" stroke-miterlimit="10" d="
								M108.979,48.461c0.065-3.286-1.925-6.001-5.057-6.478c-3.131-0.474-5.063,1.645-6.302,4.753L108.979,48.461z"/>
						</g>
						<g>
							
								<path fill="#FFE09C" stroke="#FFE09C" stroke-width="0.0283" stroke-linecap="round" stroke-linejoin="round" stroke-miterlimit="10" d="
								M99.478,41.463c-0.244-0.315-0.635-0.425-0.873-0.24c-0.24,0.183-0.236,0.585,0.006,0.902
								c0.244,0.315,0.703,0.511,0.943,0.33C99.792,42.271,99.722,41.778,99.478,41.463z"/>
						</g>
						<g>
							
								<path fill="#FFE09C" stroke="#FFE09C" stroke-width="0.0283" stroke-linecap="round" stroke-linejoin="round" stroke-miterlimit="10" d="
								M102.241,40.312c-0.08-0.399-0.374-0.655-0.658-0.573c-0.285,0.083-0.451,0.473-0.373,0.872
								c0.08,0.399,0.396,0.766,0.681,0.687C102.176,41.213,102.319,40.711,102.241,40.312z"/>
						</g>
						<g>
							
								<path fill="#FFE09C" stroke="#FFE09C" stroke-width="0.0283" stroke-linecap="round" stroke-linejoin="round" stroke-miterlimit="10" d="
								M105.159,40.408c0.107-0.413-0.034-0.779-0.316-0.816c-0.277-0.036-0.592,0.27-0.701,0.684
								c-0.106,0.413,0.004,0.894,0.284,0.931C104.708,41.246,105.052,40.824,105.159,40.408z"/>
						</g>
						<g>
							
								<path fill="#FFE09C" stroke="#FFE09C" stroke-width="0.0283" stroke-linecap="round" stroke-linejoin="round" stroke-miterlimit="10" d="
								M108.954,42.812c0.395-0.218,0.811-0.205,0.934,0.034c0.121,0.237-0.101,0.607-0.494,0.827
								c-0.395,0.217-0.922,0.264-1.042,0.025C108.229,43.461,108.56,43.03,108.954,42.812z"/>
						</g>
						<g>
							
								<path fill="#FFE09C" stroke="#FFE09C" stroke-width="0.0283" stroke-linecap="round" stroke-linejoin="round" stroke-miterlimit="10" d="
								M106.878,41.017c0.289-0.345,0.698-0.493,0.915-0.335c0.216,0.16,0.157,0.567-0.13,0.91c-0.287,0.342-0.777,0.588-0.993,0.43
								C106.452,41.863,106.591,41.36,106.878,41.017z"/>
						</g>
					</g>
				</g>
				<g>
					<g>
						<g>
							
								<path fill="#E4352E" stroke="#E4352E" stroke-width="0.2573" stroke-linecap="round" stroke-linejoin="round" stroke-miterlimit="10" d="
								M113.737,66.044c0.132-6.645-3.893-12.134-10.223-13.096s-10.236,3.32-12.742,9.605L113.737,66.044z"/>
						</g>
						<g>
							
								<path fill="#EE8378" stroke="#EE8378" stroke-width="0.1273" stroke-linecap="round" stroke-linejoin="round" stroke-miterlimit="10" d="
								M106.229,64.965c0.064-3.285-1.925-6-5.057-6.477c-3.131-0.475-5.064,1.643-6.303,4.751L106.229,64.965z"/>
						</g>
						<g>
							
								<path fill="#FFE09C" stroke="#FFE09C" stroke-width="0.0283" stroke-linecap="round" stroke-linejoin="round" stroke-miterlimit="10" d="
								M96.728,57.969c-0.244-0.315-0.635-0.425-0.873-0.241c-0.241,0.183-0.237,0.585,0.006,0.9
								c0.244,0.317,0.703,0.514,0.943,0.33C97.042,58.777,96.973,58.282,96.728,57.969z"/>
						</g>
						<g>
							
								<path fill="#FFE09C" stroke="#FFE09C" stroke-width="0.0283" stroke-linecap="round" stroke-linejoin="round" stroke-miterlimit="10" d="
								M99.491,56.817c-0.08-0.401-0.375-0.656-0.658-0.574c-0.284,0.083-0.451,0.473-0.373,0.871
								c0.081,0.401,0.396,0.768,0.681,0.686C99.426,57.715,99.57,57.215,99.491,56.817z"/>
						</g>
						<g>
							
								<path fill="#FFE09C" stroke="#FFE09C" stroke-width="0.0283" stroke-linecap="round" stroke-linejoin="round" stroke-miterlimit="10" d="
								M102.409,56.913c0.107-0.413-0.033-0.778-0.315-0.815c-0.278-0.037-0.593,0.269-0.701,0.684
								c-0.106,0.413,0.003,0.895,0.283,0.931C101.957,57.749,102.301,57.327,102.409,56.913z"/>
						</g>
						<g>
							
								<path fill="#FFE09C" stroke="#FFE09C" stroke-width="0.0283" stroke-linecap="round" stroke-linejoin="round" stroke-miterlimit="10" d="
								M106.204,59.317c0.395-0.22,0.81-0.206,0.934,0.032c0.121,0.237-0.101,0.608-0.495,0.826
								c-0.394,0.22-0.921,0.264-1.042,0.028C105.479,59.966,105.81,59.535,106.204,59.317z"/>
						</g>
						<g>
							
								<path fill="#FFE09C" stroke="#FFE09C" stroke-width="0.0283" stroke-linecap="round" stroke-linejoin="round" stroke-miterlimit="10" d="
								M104.128,57.521c0.289-0.342,0.698-0.491,0.915-0.333c0.216,0.158,0.157,0.567-0.13,0.908
								c-0.287,0.345-0.777,0.59-0.994,0.43C103.702,58.367,103.841,57.864,104.128,57.521z"/>
						</g>
					</g>
				</g>
				<g>
					<path fill="#44A260" d="M112.8,52.561c-0.689-0.243-1.303-1.11-2.539-3.256c-5.479-9.528-17.307-1.977-18.433-1.228
						l-0.071-0.015c0,0,0.01,0.017,0.027,0.045c-0.029,0.018-0.044,0.029-0.044,0.029l0.071,0.016
						c0.702,1.157,8.199,13.02,17.208,6.722c2.031-1.417,2.954-1.943,3.682-1.87L112.8,52.561z"/>
				</g>
				<g>
					<path fill="#44A260" d="M117.606,35.273c-0.691-0.243-1.304-1.111-2.539-3.256c-5.479-9.528-17.307-1.977-18.434-1.228
						l-0.07-0.015c0,0,0.01,0.016,0.027,0.043c-0.028,0.019-0.045,0.03-0.045,0.03l0.071,0.015c0.702,1.158,8.2,13.02,17.208,6.724
						c2.031-1.419,2.955-1.945,3.683-1.871L117.606,35.273z"/>
				</g>
				<g>
					<path fill="#44A260" d="M111.703,69.209c-0.69-0.243-1.304-1.111-2.54-3.257c-5.479-9.527-17.305-1.974-18.432-1.227
						l-0.072-0.016c0,0,0.01,0.016,0.028,0.046c-0.028,0.018-0.045,0.028-0.045,0.028l0.071,0.016
						c0.701,1.157,8.2,13.02,17.208,6.722c2.03-1.418,2.954-1.944,3.683-1.87L111.703,69.209z"/>
				</g>
			</g>
		</g>
	</g>
</g>
</svg>
