<?xml version="1.0" encoding="utf-8"?>
<!-- Generator: Adobe Illustrator 15.0.2, SVG Export Plug-In . SVG Version: 6.00 Build 0)  -->
<!DOCTYPE svg PUBLIC "-//W3C//DTD SVG 1.1//EN" "http://www.w3.org/Graphics/SVG/1.1/DTD/svg11.dtd">
<svg version="1.1" id="Lager_1" xmlns="http://www.w3.org/2000/svg" xmlns:xlink="http://www.w3.org/1999/xlink" x="0px" y="0px"
	 width="252.556px" height="89.667px" viewBox="0 0 252.556 89.667" enable-background="new 0 0 252.556 89.667"
	 xml:space="preserve">
<g>
	<path fill="#FFFFFF" stroke="#000000" stroke-width="5" stroke-miterlimit="10" d="M250.056,82.167c0,2.761-1.78,5-3.979,5H6.479
		c-2.197,0-3.979-2.239-3.979-5V7.5c0-2.761,1.781-5,3.979-5h239.599c2.198,0,3.979,2.239,3.979,5V82.167z"/>
	<path fill="#0B72B5" d="M38.515,84.703H7.371c-1.109,0-2.523-1-2.523-2.11V7.511c0-1.292,1.229-2.542,2.523-2.542h31.144"/>
	<path fill="#FFFFFF" d="M28.232,60.684c-0.482-1.006-1.116-1.806-1.883-2.378c-0.732-0.544-1.561-1.022-2.464-1.422
		c-0.864-0.381-1.749-0.735-2.631-1.053c-0.834-0.297-1.612-0.625-2.319-0.98c-1.415-0.684-2.103-1.669-2.103-3.012
		c0-1.633,0.492-2.857,1.503-3.742c1.018-0.888,2.351-1.338,3.963-1.338c1.703,0,3.564,0.179,5.53,0.531l0.588,0.105v-2.448
		l-0.421-0.067c-2.252-0.362-4.351-0.545-6.237-0.545c-1.988,0-3.724,0.637-5.159,1.894c-1.455,1.274-2.192,3.213-2.192,5.764
		c0,1.513,0.467,2.774,1.387,3.75c0.883,0.938,1.971,1.647,3.234,2.109c1.191,0.436,2.38,0.867,3.562,1.29
		c1.101,0.395,2.053,1.001,2.83,1.801c0.747,0.771,1.11,1.785,1.11,3.096c0,1.297-0.51,2.37-1.564,3.283
		c-1.948,1.729-5.177,2.606-9.598,2.606h-0.5v2.424h1.463c2.323,0,4.445-0.292,6.299-0.868c1.163-0.342,2.202-0.801,3.09-1.365
		c0.908-0.577,1.68-1.383,2.295-2.395c0.623-1.021,0.938-2.215,0.938-3.551C28.955,62.86,28.712,61.687,28.232,60.684z"/>
	<g>
		<g>
			<polygon fill="#FFDD00" points="21.682,11.645 22.403,13.108 24.018,13.342 22.85,14.481 23.125,16.089 21.682,15.33 
				20.237,16.089 20.514,14.481 19.346,13.342 20.959,13.108 			"/>
			<polygon fill="#FFDD00" points="21.682,28.161 22.403,29.624 24.018,29.858 22.85,30.997 23.125,32.604 21.682,31.845 
				20.237,32.604 20.514,30.997 19.346,29.858 20.959,29.624 			"/>
		</g>
		<g>
			<polygon fill="#FFDD00" points="11.201,22.125 12.664,21.403 12.898,19.789 14.037,20.957 15.646,20.681 14.887,22.125 
				15.646,23.569 14.037,23.293 12.898,24.461 12.664,22.847 			"/>
			<polygon fill="#FFDD00" points="27.717,22.125 29.18,21.403 29.414,19.789 30.553,20.957 32.161,20.681 31.402,22.125 
				32.161,23.569 30.553,23.293 29.414,24.461 29.18,22.847 			"/>
		</g>
		<g>
			<polygon fill="#FFDD00" points="14.271,14.714 15.816,15.238 17.123,14.263 17.103,15.894 18.434,16.835 16.877,17.32 
				16.393,18.878 15.45,17.546 13.819,17.567 14.795,16.259 			"/>
			<polygon fill="#FFDD00" points="25.949,26.393 27.494,26.917 28.802,25.941 28.781,27.572 30.113,28.514 28.555,28.999 
				28.07,30.556 27.129,29.224 25.498,29.245 26.473,27.938 			"/>
		</g>
		<g>
			<polygon fill="#FFDD00" points="29.092,14.714 28.568,16.259 29.543,17.567 27.912,17.546 26.971,18.878 26.486,17.32 
				24.928,16.836 26.26,15.894 26.239,14.263 27.547,15.238 			"/>
			<polygon fill="#FFDD00" points="17.413,26.393 16.89,27.938 17.865,29.245 16.234,29.224 15.292,30.556 14.808,28.999 
				13.25,28.514 14.582,27.572 14.561,25.941 15.869,26.917 			"/>
		</g>
	</g>
	<g>
		<polygon points="53.765,32.645 62.165,28.837 62.165,64.625 65.293,64.625 65.293,24.143 53.765,29.478 		"/>
		<path d="M83.552,40.777c-1.978,0-3.818,0.443-5.47,1.318c-1.185,0.626-2.205,1.427-3.046,2.389v-5.728
			c0-3.373,0.866-6.129,2.573-8.193c1.708-2.063,3.634-3.067,5.887-3.067c1.284,0,2.841,0.302,4.629,0.898
			c1.794,0.599,3.306,1.321,4.493,2.148l0.736,0.513l0.175-3.24l-0.22-0.16c-2.949-2.145-6.364-3.232-10.15-3.232
			c-1.695,0-3.481,0.592-5.311,1.76c-1.083,0.696-2.056,1.57-2.89,2.598c-0.836,1.029-1.552,2.419-2.129,4.131
			c-0.575,1.705-0.866,3.652-0.866,5.788v6.491l-0.056,6.277v1.344c0,3.636,1.117,6.538,3.32,8.623
			c2.194,2.079,4.919,3.133,8.1,3.133c1.634,0,3.455-0.448,5.419-1.335c1.161-0.541,2.211-1.238,3.122-2.072
			c0.924-0.846,1.718-2.003,2.359-3.441c0.642-1.439,0.967-3.09,0.967-4.908c0-3.403-1.121-6.29-3.333-8.579
			C89.648,41.94,86.852,40.777,83.552,40.777z M92.125,52.925c0,2.308-0.83,4.243-2.538,5.915c-1.686,1.652-3.726,2.489-6.062,2.489
			c-2.336,0-4.366-0.828-6.035-2.461c-1.688-1.653-2.509-3.597-2.509-5.943c0-2.328,0.825-4.45,2.452-6.306
			c1.632-1.864,3.607-2.77,6.036-2.77c2.431,0,4.434,0.917,6.124,2.801C91.272,48.527,92.125,50.638,92.125,52.925z"/>
		<path d="M112.616,24.985c-4.3,0-7.661,1.741-9.99,5.175c-2.287,3.374-3.446,8.253-3.446,14.505c0,6.252,1.188,11.161,3.531,14.59
			c2.384,3.489,5.688,5.258,9.821,5.258c4.139,0,7.343-1.746,9.522-5.189c2.132-3.37,3.213-8.236,3.213-14.463
			C125.268,31.672,121.011,24.985,112.616,24.985z M112.504,28.169c3.165,0,5.507,1.314,7.161,4.017
			c1.679,2.745,2.531,6.699,2.531,11.751c0,5.076-0.701,9.218-2.085,12.313c-0.707,1.588-1.724,2.857-3.023,3.77
			c-1.288,0.906-2.981,1.365-5.032,1.365c-2.044,0-3.814-0.793-5.41-2.425c-2.916-2.987-4.394-7.788-4.394-14.267
			c0-5.547,0.941-9.749,2.798-12.487C106.891,29.489,109.329,28.169,112.504,28.169z"/>
		<path d="M154.838,24.985c-4.3,0-7.661,1.741-9.99,5.175c-2.287,3.374-3.446,8.253-3.446,14.505c0,6.252,1.188,11.161,3.531,14.59
			c2.384,3.489,5.688,5.258,9.821,5.258c4.139,0,7.342-1.746,9.523-5.189c2.132-3.371,3.213-8.237,3.213-14.463
			C167.49,31.672,163.233,24.985,154.838,24.985z M154.727,28.169c3.165,0,5.508,1.314,7.161,4.017
			c1.68,2.747,2.531,6.7,2.531,11.751c0,5.076-0.701,9.218-2.086,12.313c-0.706,1.589-1.724,2.857-3.021,3.77
			c-1.289,0.906-2.982,1.365-5.033,1.365c-2.044,0-3.814-0.793-5.41-2.425c-2.916-2.987-4.394-7.788-4.394-14.267
			c0-5.547,0.941-9.749,2.798-12.487C149.113,29.489,151.551,28.169,154.727,28.169z"/>
		<path d="M185.694,24.985c-4.3,0-7.661,1.741-9.99,5.175c-2.287,3.373-3.446,8.253-3.446,14.505c0,6.253,1.188,11.162,3.531,14.59
			c2.385,3.489,5.688,5.258,9.821,5.258c4.139,0,7.342-1.746,9.522-5.189c2.133-3.372,3.214-8.238,3.214-14.463
			C198.347,31.672,194.09,24.985,185.694,24.985z M185.582,28.169c3.165,0,5.508,1.314,7.16,4.017
			c1.681,2.746,2.532,6.7,2.532,11.751c0,5.073-0.701,9.216-2.086,12.313c-0.705,1.588-1.722,2.856-3.021,3.77
			c-1.29,0.906-2.983,1.365-5.033,1.365c-2.045,0-3.814-0.793-5.41-2.425c-2.915-2.987-4.394-7.788-4.394-14.267
			c0-5.548,0.941-9.749,2.798-12.488C179.968,29.489,182.406,28.169,185.582,28.169z"/>
		<path d="M216.55,24.985c-4.3,0-7.661,1.741-9.99,5.175c-2.286,3.372-3.445,8.252-3.445,14.505c0,6.254,1.188,11.163,3.53,14.59
			c2.384,3.489,5.688,5.258,9.821,5.258c4.139,0,7.342-1.746,9.522-5.189c2.133-3.372,3.214-8.238,3.214-14.463
			C229.202,31.672,224.945,24.985,216.55,24.985z M216.437,28.169c3.166,0,5.509,1.314,7.161,4.017
			c1.681,2.746,2.532,6.7,2.532,11.751c0,5.073-0.701,9.216-2.086,12.313c-0.705,1.588-1.722,2.856-3.021,3.77
			c-1.29,0.906-2.983,1.365-5.033,1.365c-2.045,0-3.814-0.793-5.41-2.425c-2.916-2.989-4.395-7.789-4.395-14.267
			c0-5.547,0.941-9.748,2.799-12.488C210.823,29.489,213.262,28.169,216.437,28.169z"/>
	</g>
</g>
</svg>
