<?xml version="1.0" encoding="utf-8"?>
<!-- Generator: Adobe Illustrator 15.0.2, SVG Export Plug-In . SVG Version: 6.00 Build 0)  -->
<!DOCTYPE svg PUBLIC "-//W3C//DTD SVG 1.1//EN" "http://www.w3.org/Graphics/SVG/1.1/DTD/svg11.dtd">
<svg version="1.1" id="Lager_1" xmlns="http://www.w3.org/2000/svg" xmlns:xlink="http://www.w3.org/1999/xlink" x="0px" y="0px"
	 width="504.523px" height="387.947px" viewBox="0 0 504.523 387.947" enable-background="new 0 0 504.523 387.947"
	 xml:space="preserve">
<g>
	
		<rect x="29.66" y="119.571" fill="#F6F4F5" stroke="#F6F4F5" stroke-width="1.803" stroke-miterlimit="10" width="445.135" height="267.229"/>
	
		<path opacity="0.9" fill="#A1887A" stroke="#A1887A" stroke-width="0.9314" stroke-miterlimit="10" enable-background="new    " d="
		M319.309,304.626"/>
	
		<path opacity="0.9" fill="#A1887A" stroke="#A1887A" stroke-width="0.9314" stroke-miterlimit="10" enable-background="new    " d="
		M340.441,304.21"/>
	
		<rect x="29.66" y="119.571" fill="#ECECED" stroke="#ECECED" stroke-width="1.803" stroke-miterlimit="10" width="222.568" height="267.229"/>
	
		<rect x="14.955" y="95.682" fill="#59595C" stroke="#59595C" stroke-width="0.7385" stroke-miterlimit="10" width="474.549" height="22.412"/>
	
		<rect x="14.957" y="95.682" fill="#3F3E40" stroke="#3F3E40" stroke-width="0.5222" stroke-miterlimit="10" width="237.273" height="22.412"/>
	<g>
		<g>
			<rect x="63.09" y="211.972" opacity="0.24" fill="#219AD4" enable-background="new    " width="65.492" height="123.281"/>
			<polygon opacity="0.15" fill="#219AD4" enable-background="new    " points="63.09,211.972 63.09,335.253 128.582,335.253 			"/>
		</g>
	</g>
	<rect x="327.076" y="220.223" opacity="0.24" fill="#219AD4" enable-background="new    " width="79.229" height="115.03"/>
	<polygon opacity="0.15" fill="#219AD4" enable-background="new    " points="327.078,220.223 327.08,336.267 406.307,336.267 	"/>
	<g>
		<rect x="160.135" y="211.972" opacity="0.24" fill="#219AD4" enable-background="new    " width="65.492" height="123.281"/>
		<polygon opacity="0.15" fill="#219AD4" enable-background="new    " points="160.135,211.972 160.135,335.253 225.627,335.253 		
			"/>
	</g>
	<path fill="#868789" d="M406.307,211.972h-79.229h-7.77v8.251v115.03l0,0v52.694h94.771v-51.682v-1.015V220.223v-8.251H406.307
		L406.307,211.972z M406.307,335.253h-79.229v-115.03h79.229V335.253z"/>
	<path opacity="0.93" fill="#C5DFE8" enable-background="new    " d="M252.393,207.261"/>
	<g>
		<rect y="147.28" fill="#FFFFFF" width="504.521" height="78.08"/>
		<rect y="204.138" fill="#F5F5F6" width="504.521" height="21.225"/>
		<rect x="474.848" y="147.28" fill="#E95541" width="29.676" height="78.08"/>
		<rect x="415.49" y="147.28" fill="#E95541" width="29.678" height="78.08"/>
		<rect x="356.139" y="147.28" fill="#E95541" width="29.676" height="78.08"/>
		<rect x="296.779" y="147.28" fill="#E95541" width="29.68" height="78.08"/>
		<rect x="237.426" y="147.28" fill="#E95541" width="29.676" height="78.08"/>
		<rect x="178.066" y="147.28" fill="#E95541" width="29.678" height="78.08"/>
		<rect x="118.715" y="147.28" fill="#E95541" width="29.676" height="78.08"/>
		<rect x="59.355" y="147.28" fill="#E95541" width="29.678" height="78.08"/>
		<rect y="147.28" fill="#E95541" width="29.678" height="78.08"/>
		<rect x="474.848" y="204.138" fill="#D74E3B" width="29.676" height="21.225"/>
		<rect x="415.49" y="204.138" fill="#D74E3B" width="29.678" height="21.225"/>
		<rect x="356.139" y="204.138" fill="#D74E3B" width="29.676" height="21.225"/>
		<rect x="296.779" y="204.138" fill="#D74E3B" width="29.68" height="21.225"/>
		<rect x="237.426" y="204.138" fill="#D74E3B" width="29.676" height="21.225"/>
		<rect x="178.066" y="204.138" fill="#D74E3B" width="29.678" height="21.225"/>
		<rect x="118.715" y="204.138" fill="#D74E3B" width="29.676" height="21.225"/>
		<rect x="59.355" y="204.138" fill="#D74E3B" width="29.678" height="21.225"/>
		<rect y="204.138" fill="#D74E3B" width="29.678" height="21.225"/>
	</g>
	<rect x="28.775" y="225.36" opacity="0.3" fill="#B2B4B3" enable-background="new    " width="447.139" height="27.828"/>
	<g>
		<g>
			<path fill="#E95541" d="M290.916,56.159c-0.002-21.769-17.645-39.413-39.412-39.413S212.09,34.393,212.09,56.159h-36.756v39.521
				h152.338V56.159H290.916z"/>
			<g>
				<path fill="#FFFFFF" stroke="#FFFFFF" stroke-width="0.6223" stroke-miterlimit="10" d="M204.508,84.316h-1.119l-4.83-7.393
					c-0.613,0.086-1.295,0.141-2.039,0.174v7.219h-0.922V66.869c5.559,0.018,8.338,1.686,8.338,5.004
					c0,2.67-1.459,4.307-4.381,4.901L204.508,84.316z M196.52,76.104l0.246,0.021c4.168-0.062,6.25-1.461,6.25-4.181
					c0-0.763-0.178-1.396-0.533-1.903c-0.359-0.506-0.76-0.896-1.209-1.184c-1.062-0.664-2.646-1.01-4.754-1.045V76.104z"/>
				<path fill="#FFFFFF" stroke="#FFFFFF" stroke-width="0.6223" stroke-miterlimit="10" d="M206.824,84.316V66.893h8.91v0.922
					h-7.99v6.373h7.99v0.92h-7.99v8.288h7.99v0.921H206.824L206.824,84.316z"/>
				<path fill="#FFFFFF" stroke="#FFFFFF" stroke-width="0.6223" stroke-miterlimit="10" d="M224.496,81.679
					c0.744-0.646,1.119-1.436,1.119-2.365c0-0.928-0.268-1.67-0.809-2.229c-0.539-0.554-1.191-0.97-1.955-1.241
					c-0.762-0.272-1.527-0.552-2.299-0.834c-0.773-0.281-1.432-0.709-1.969-1.283c-0.537-0.57-0.807-1.308-0.807-2.201
					c0-1.559,0.434-2.721,1.305-3.484c0.873-0.763,1.914-1.146,3.125-1.146s2.537,0.117,3.982,0.349v0.921
					c-1.295-0.23-2.506-0.348-3.633-0.348c-1.131,0-2.055,0.316-2.777,0.944c-0.723,0.632-1.084,1.521-1.084,2.665
					c0,0.993,0.514,1.741,1.543,2.238c0.465,0.233,0.975,0.447,1.533,0.646c0.555,0.2,1.115,0.423,1.678,0.675
					c0.564,0.248,1.076,0.541,1.531,0.882c0.457,0.34,0.832,0.815,1.121,1.42c0.287,0.604,0.436,1.312,0.436,2.115
					c0,0.808-0.189,1.516-0.561,2.128c-0.375,0.614-0.832,1.096-1.379,1.443c-0.549,0.348-1.189,0.632-1.92,0.845
					c-1.178,0.368-2.506,0.549-3.982,0.549h-0.621v-0.919C221.029,83.446,223.168,82.855,224.496,81.679z"/>
				<path fill="#FFFFFF" stroke="#FFFFFF" stroke-width="0.6223" stroke-miterlimit="10" d="M232.338,84.316h-0.922V67.814h-3.982
					v-0.922h8.91v0.922h-4.006V84.316z"/>
				<path fill="#FFFFFF" stroke="#FFFFFF" stroke-width="0.6223" stroke-miterlimit="10" d="M246.547,68.188v16.129h-0.92v-8.213
					h-7.068v8.213h-0.922V72.918c0-1.794,0.572-3.262,1.719-4.404c1.143-1.146,2.58-1.718,4.307-1.718
					C244.922,66.794,245.885,67.261,246.547,68.188z M245.627,75.181v-6.646c-0.533-0.547-1.203-0.819-2.018-0.819
					c-1.461,0-2.666,0.528-3.619,1.593c-0.955,1.062-1.432,2.273-1.432,3.633v2.24H245.627L245.627,75.181z"/>
				<path fill="#FFFFFF" stroke="#FFFFFF" stroke-width="0.6223" stroke-miterlimit="10" d="M257.922,82.763
					c-0.764,1.066-1.885,1.604-3.359,1.604s-2.576-0.588-3.311-1.769c-0.727-1.174-1.096-2.611-1.096-4.307V66.893h0.924v11.375
					c0,1.692,0.342,2.979,1.031,3.857c0.688,0.881,1.527,1.32,2.516,1.32c0.984,0,1.818-0.438,2.502-1.309
					c0.678-0.869,1.018-2.161,1.018-3.871V66.893h0.922v11.398C259.068,80.198,258.688,81.691,257.922,82.763z"/>
				<path fill="#FFFFFF" stroke="#FFFFFF" stroke-width="0.6223" stroke-miterlimit="10" d="M271.664,84.316h-1.123l-4.828-7.393
					c-0.615,0.086-1.295,0.141-2.039,0.174v7.219h-0.922V66.869c5.559,0.018,8.336,1.686,8.336,5.004
					c0,2.67-1.459,4.307-4.379,4.901L271.664,84.316z M263.674,76.104l0.25,0.021c4.164-0.062,6.246-1.461,6.246-4.181
					c0-0.763-0.18-1.396-0.535-1.903c-0.357-0.506-0.76-0.896-1.205-1.184c-1.066-0.664-2.65-1.01-4.756-1.045V76.104z"/>
				<path fill="#FFFFFF" stroke="#FFFFFF" stroke-width="0.6223" stroke-miterlimit="10" d="M282.738,68.188v16.129h-0.92v-8.213
					h-7.068v8.213h-0.922V72.918c0-1.794,0.572-3.262,1.719-4.404c1.143-1.146,2.58-1.718,4.305-1.718
					C281.111,66.794,282.076,67.261,282.738,68.188z M281.818,75.181v-6.646c-0.533-0.547-1.203-0.819-2.018-0.819
					c-1.461,0-2.666,0.528-3.621,1.593c-0.955,1.062-1.43,2.273-1.43,3.633v2.24H281.818L281.818,75.181z"/>
				<path fill="#FFFFFF" stroke="#FFFFFF" stroke-width="0.6223" stroke-miterlimit="10" d="M287.395,68.462v15.854h-0.92V66.869
					h1.318l6.668,15.334V66.893h0.924v17.424h-0.924L287.395,68.462z"/>
				<path fill="#FFFFFF" stroke="#FFFFFF" stroke-width="0.6223" stroke-miterlimit="10" d="M307.406,70.751l-0.92-0.023
					c-0.15-0.896-0.52-1.606-1.107-2.127c-0.59-0.524-1.25-0.785-1.979-0.785c-1.23,0-2.201,0.627-2.914,1.88
					c-0.715,1.251-1.066,2.692-1.066,4.318c0,3.303,0.564,5.655,1.701,7.067c1.137,1.41,2.926,2.184,5.365,2.313V76.55h-2.439
					v-0.924h3.359v8.715c-2.406,0-4.197-0.357-5.377-1.07c-0.463-0.281-0.932-0.68-1.404-1.194c-0.475-0.515-0.859-1.129-1.16-1.843
					c-0.645-1.611-0.969-3.691-0.969-6.25c0-1.207,0.164-2.296,0.498-3.258c0.33-0.961,0.746-1.709,1.242-2.24
					c1.014-1.062,2.033-1.594,3.061-1.594c1.031,0,1.971,0.416,2.824,1.244C306.979,68.97,307.406,69.841,307.406,70.751z"/>
			</g>
		</g>
		<g>
			<path fill="#FFFFFF" d="M257.73,27.498l-30.836,30.834c-1.029,1.03-2.699,1.029-3.727-0.001c-1.029-1.027-1.029-2.695,0-3.729
				l52.857-52.857c1.031-1.027,2.697-1.027,3.727,0c0.076,0.075,0.145,0.156,0.207,0.236c0.014,0.017,0.027,0.031,0.033,0.047
				c0.061,0.074,0.111,0.151,0.156,0.227c0.008,0.015,0.014,0.023,0.02,0.034c0.051,0.09,0.096,0.178,0.137,0.269
				c0.004,0.011,0.01,0.02,0.014,0.027c0.023,0.059,0.043,0.111,0.061,0.171c1.141,3.122-2.025,9.525-7.781,15.283
				c-4.646,4.646-10.379,8.539-13.859,9.015C258.74,27.054,258.109,27.12,257.73,27.498z"/>
			<path fill="#FFFFFF" d="M228.043,0.204c-0.271,0.271-0.271,0.71,0,0.981l7.719,7.718l-1.049,1.047l-7.717-7.717
				c-0.271-0.271-0.713-0.271-0.982,0c-0.273,0.271-0.271,0.713,0,0.98l7.719,7.718l-1.24,1.237l-7.717-7.717
				c-0.27-0.271-0.709-0.271-0.982,0c-0.271,0.271-0.271,0.711,0.002,0.982l7.715,7.715l-1.141,1.145l-7.719-7.719
				c-0.271-0.27-0.711-0.27-0.982,0.002c-0.271,0.272-0.271,0.711,0,0.983l7.715,7.716l0.15,0.149l5.439,5.439
				c1.309,1.31,3.139,1.77,4.82,1.394l37.004,37.002c1.086,1.086,2.846,1.087,3.934,0.003c1.086-1.087,1.086-2.851,0-3.938
				l-37.004-37.001c0.373-1.681-0.088-3.511-1.395-4.814l-5.439-5.443l-0.15-0.148l-7.717-7.717
				C228.754-0.066,228.316-0.068,228.043,0.204z"/>
		</g>
	</g>
</g>
</svg>
