<?xml version="1.0" encoding="utf-8"?>
<!-- Generator: Adobe Illustrator 15.0.2, SVG Export Plug-In . SVG Version: 6.00 Build 0)  -->
<!DOCTYPE svg PUBLIC "-//W3C//DTD SVG 1.1//EN" "http://www.w3.org/Graphics/SVG/1.1/DTD/svg11.dtd">
<svg version="1.1" id="Lager_1" xmlns="http://www.w3.org/2000/svg" xmlns:xlink="http://www.w3.org/1999/xlink" x="0px" y="0px"
	 width="504.521px" height="425.879px" viewBox="0 0 504.521 425.879" enable-background="new 0 0 504.521 425.879"
	 xml:space="preserve">
<g>
	
		<path opacity="0.9" fill="#A1887A" stroke="#A1887A" stroke-width="0.9314" stroke-miterlimit="10" enable-background="new    " d="
		M340.439,337.311"/>
	<path fill="#F6F4F5" stroke="#F6F4F5" stroke-width="1.3008" stroke-miterlimit="10" d="M246.773,151.193v274.035h228.021V151.193
		H246.773z M407.305,373.353l-80.229-0.62l-1-121.351h81.229V373.353z"/>
	<path fill="#ECECED" d="M29.66,151.193v274.035h222.568V151.193H29.66z M128.58,371.833H64.088V246.561h64.492V371.833
		L128.58,371.833z M225.625,371.833h-65.492V246.561h65.492V371.833z"/>
	<path fill="#868789" d="M406.305,248.388h-79.229h-7.77v8.322v116.021l0,0v53.147h94.771v-52.127v-1.021v-116.02v-8.322
		L406.305,248.388L406.305,248.388z M406.305,372.733h-79.229V256.711h79.229V372.733z"/>
	<path opacity="0.93" fill="#C5DFE8" enable-background="new    " d="M252.391,240.359"/>
	<path fill="#E85340" d="M304.549,75.587c-0.002-29.299-23.747-53.048-53.047-53.048c-29.298,0-53.049,23.749-53.049,53.048h-49.472
		v53.193H354.02V75.587H304.549z"/>
	<g>
		<path fill="#FFFFFF" d="M187.896,96.735c0-4.725-3.916-7.131-11.641-7.152l-0.421-0.001v24.322h2.079v-9.735
			c0.786-0.042,1.485-0.104,2.119-0.184l6.356,9.73l0.125,0.188h2.508l-6.763-10.296
			C186.002,102.662,187.896,100.353,187.896,96.735z M177.915,91.703c2.54,0.083,4.477,0.531,5.756,1.332
			c0.561,0.354,1.054,0.839,1.509,1.479c0.426,0.608,0.642,1.389,0.642,2.321c0,3.412-2.603,5.115-7.905,5.208L177.915,91.703
			L177.915,91.703z"/>
		<polygon fill="#FFFFFF" points="190.946,113.903 203.777,113.903 203.777,111.826 193.023,111.826 193.023,101.507 
			203.777,101.507 203.777,99.432 193.023,99.432 193.023,91.692 203.777,91.692 203.777,89.613 190.946,89.613 		"/>
		<path fill="#FFFFFF" d="M216.054,101.775c-0.625-0.47-1.348-0.885-2.142-1.233c-0.729-0.326-1.478-0.627-2.288-0.921
			c-0.737-0.262-1.416-0.546-2.021-0.852c-1.238-0.598-1.841-1.461-1.841-2.639c0-1.428,0.43-2.498,1.313-3.271
			c0.904-0.786,2.037-1.168,3.464-1.168c1.484,0,3.105,0.155,4.815,0.461l0.493,0.088v-2.096l-0.354-0.057
			c-1.973-0.315-3.799-0.476-5.426-0.476c-1.723,0-3.23,0.555-4.482,1.647c-1.261,1.106-1.898,2.79-1.898,5.006
			c0,1.312,0.404,2.404,1.199,3.248c0.765,0.817,1.711,1.435,2.812,1.834c1.039,0.383,2.071,0.757,3.098,1.125
			c0.961,0.344,1.793,0.872,2.472,1.57c0.653,0.673,0.971,1.558,0.971,2.706c0,1.134-0.445,2.071-1.364,2.87
			c-1.704,1.511-4.518,2.276-8.366,2.276h-0.42v2.074h1.257c2.032,0,3.879-0.255,5.477-0.755c1.009-0.294,1.914-0.693,2.692-1.188
			c0.779-0.497,1.449-1.195,1.987-2.076c0.542-0.89,0.816-1.927,0.816-3.083c0-1.134-0.212-2.151-0.628-3.027
			C217.271,102.966,216.721,102.271,216.054,101.775z"/>
		<polygon fill="#FFFFFF" points="218.686,91.692 224.046,91.692 224.046,113.903 226.125,113.903 226.125,91.692 231.517,91.692 
			231.517,89.613 218.686,89.613 		"/>
		<path fill="#FFFFFF" d="M240.947,89.482c-2.429,0-4.479,0.819-6.092,2.434c-1.617,1.614-2.438,3.71-2.438,6.227v15.762h2.08
			v-11.055h8.675v11.055h2.077V91.642l-0.079-0.108C244.201,90.172,242.779,89.482,240.947,89.482z M240.877,91.557
			c0.922,0,1.677,0.283,2.296,0.862v8.35h-8.675v-2.597c0-1.714,0.611-3.266,1.818-4.609
			C237.527,92.212,239.02,91.557,240.877,91.557z"/>
		<path fill="#FFFFFF" d="M260.023,105.342c0,2.196-0.433,3.863-1.28,4.953c-0.845,1.077-1.839,1.601-3.038,1.601
			c-1.206,0-2.205-0.528-3.056-1.617c-0.862-1.099-1.298-2.76-1.298-4.937V89.613h-2.082v15.765c0,2.341,0.518,4.365,1.539,6.016
			c1.062,1.71,2.683,2.577,4.811,2.577c2.119,0,3.755-0.785,4.861-2.334c1.077-1.504,1.622-3.609,1.622-6.258V89.613h-2.079V105.342
			z"/>
		<path fill="#FFFFFF" d="M278.28,96.735c0-4.725-3.915-7.131-11.638-7.152l-0.42-0.001v24.322h2.078v-9.735
			c0.784-0.042,1.482-0.104,2.118-0.184l6.479,9.919h2.513l-6.764-10.296C276.387,102.662,278.28,100.353,278.28,96.735z
			 M268.302,91.703c2.535,0.084,4.473,0.531,5.757,1.331c0.555,0.354,1.061,0.853,1.504,1.479c0.427,0.61,0.644,1.391,0.644,2.321
			c0,3.413-2.6,5.116-7.903,5.208L268.302,91.703L268.302,91.703z"/>
		<path fill="#FFFFFF" d="M289.656,89.482c-2.428,0-4.477,0.819-6.089,2.434c-1.617,1.614-2.438,3.71-2.438,6.227v15.762h2.079
			v-11.055h8.677v11.055h2.075V91.642l-0.078-0.108C292.912,90.172,291.49,89.482,289.656,89.482z M289.588,91.557
			c0.924,0,1.677,0.283,2.298,0.862v8.35h-8.677v-2.597c0-1.716,0.611-3.268,1.817-4.609
			C286.239,92.212,287.731,91.557,289.588,91.557z"/>
		<polygon fill="#FFFFFF" points="308.9,108.626 300.62,89.582 298.151,89.582 298.151,113.903 300.229,113.903 300.229,94.114 
			309.048,113.903 310.982,113.903 310.982,89.613 308.9,89.613 		"/>
		<path fill="#FFFFFF" d="M321.353,91.692c0.884,0,1.665,0.312,2.386,0.951c0.713,0.632,1.17,1.514,1.354,2.619l0.058,0.339
			l2.014,0.056v-0.431c0-1.338-0.624-2.623-1.854-3.819c-1.228-1.19-2.604-1.794-4.094-1.794c-1.494,0-2.982,0.766-4.429,2.278
			c-0.708,0.758-1.301,1.824-1.761,3.165c-0.46,1.326-0.694,2.847-0.694,4.523c0,3.473,0.449,6.354,1.337,8.574
			c0.427,1.008,0.978,1.883,1.64,2.601c0.663,0.72,1.329,1.286,1.981,1.682c1.647,0.996,4.155,1.501,7.454,1.501h0.419v-12.563
			h-5.359v2.078h3.282v8.346c-2.922-0.236-5.1-1.221-6.476-2.928c-1.458-1.812-2.196-4.926-2.196-9.253
			c0-2.116,0.464-4.002,1.38-5.605C318.682,92.451,319.846,91.692,321.353,91.692z"/>
	</g>
	<g>
		<path fill="#FFFFFF" d="M259.883,37.011l-41.504,41.501c-1.385,1.388-3.633,1.386-5.016-0.001c-1.385-1.386-1.385-3.63,0-5.019
			L284.507,2.35c1.389-1.387,3.631-1.387,5.017-0.001c0.103,0.103,0.193,0.211,0.277,0.319c0.02,0.021,0.037,0.041,0.046,0.062
			c0.082,0.102,0.149,0.204,0.211,0.305c0.01,0.018,0.018,0.032,0.024,0.047c0.068,0.121,0.129,0.235,0.186,0.358
			c0.005,0.015,0.013,0.025,0.019,0.039c0.031,0.076,0.059,0.151,0.084,0.229c1.535,4.204-2.727,12.821-10.473,20.571
			c-6.254,6.254-13.97,11.493-18.654,12.131C261.242,36.41,260.393,36.501,259.883,37.011z"/>
		<path fill="#FFFFFF" d="M219.925,0.274c-0.364,0.365-0.364,0.956,0,1.322l10.391,10.388l-1.412,1.408L218.516,3.007
			c-0.365-0.366-0.959-0.366-1.322,0c-0.367,0.365-0.365,0.958,0,1.32l10.39,10.386l-1.67,1.668L215.527,5.995
			c-0.363-0.366-0.955-0.368-1.322,0c-0.365,0.362-0.365,0.956,0.002,1.321l10.384,10.385l-1.534,1.54l-10.39-10.389
			c-0.364-0.364-0.957-0.364-1.321,0.001c-0.365,0.366-0.365,0.958,0,1.324l10.384,10.386l0.202,0.2l7.32,7.324
			c1.763,1.759,4.226,2.379,6.488,1.872l49.805,49.803c1.462,1.462,3.83,1.464,5.295,0.005c1.462-1.464,1.462-3.835,0-5.297
			L241.034,24.67c0.502-2.264-0.118-4.727-1.877-6.484l-7.321-7.325l-0.202-0.199L221.247,0.275
			C220.882-0.09,220.293-0.094,219.925,0.274z"/>
	</g>
	<g>
		<g>
			<rect x="64.088" y="248.849" opacity="0.24" fill="#229AD3" enable-background="new    " width="64.492" height="123.283"/>
			<polygon opacity="0.15" fill="#229AD3" enable-background="new    " points="64.088,248.849 64.088,372.133 128.58,372.133 			
				"/>
		</g>
	</g>
	<g>
		<rect x="160.133" y="249.07" opacity="0.24" fill="#229AD3" enable-background="new    " width="65.492" height="123.283"/>
		<polygon opacity="0.15" fill="#229AD3" enable-background="new    " points="160.133,249.07 160.133,372.354 225.625,372.354 		
			"/>
	</g>
	<rect x="327.076" y="257.321" opacity="0.24" fill="#229AD3" enable-background="new    " width="79.229" height="116.032"/>
	<polygon opacity="0.15" fill="#229AD3" enable-background="new    " points="327.076,256.639 327.078,372.684 406.305,372.684 	"/>
	<g>
		<rect x="0" y="180.38" fill="#FFFFFF" width="504.521" height="78.081"/>
		<rect x="0" y="237.236" fill="#F5F5F6" width="504.521" height="21.226"/>
		<rect x="474.846" y="180.38" fill="#E85340" width="29.676" height="78.081"/>
		<rect x="415.49" y="180.38" fill="#E85340" width="29.679" height="78.081"/>
		<rect x="356.137" y="180.38" fill="#E85340" width="29.676" height="78.081"/>
		<rect x="296.777" y="180.38" fill="#E85340" width="29.68" height="78.081"/>
		<rect x="237.424" y="180.38" fill="#E85340" width="29.677" height="78.081"/>
		<rect x="178.066" y="180.38" fill="#E85340" width="29.678" height="78.081"/>
		<rect x="118.713" y="180.38" fill="#E85340" width="29.677" height="78.081"/>
		<rect x="59.355" y="180.38" fill="#E85340" width="29.678" height="78.081"/>
		<rect x="0" y="180.38" fill="#E85340" width="29.679" height="78.081"/>
		<rect x="474.846" y="237.236" fill="#D74D3B" width="29.676" height="21.226"/>
		<rect x="415.49" y="237.236" fill="#D74D3B" width="29.679" height="21.226"/>
		<rect x="356.137" y="237.236" fill="#D74D3B" width="29.676" height="21.226"/>
		<rect x="296.777" y="237.236" fill="#D74D3B" width="29.68" height="21.226"/>
		<rect x="237.424" y="237.236" fill="#D74D3B" width="29.677" height="21.226"/>
		<rect x="178.066" y="237.236" fill="#D74D3B" width="29.678" height="21.226"/>
		<rect x="118.713" y="237.236" fill="#D74D3B" width="29.677" height="21.226"/>
		<rect x="59.355" y="237.236" fill="#D74D3B" width="29.678" height="21.226"/>
		<rect x="0" y="237.236" fill="#D74D3B" width="29.679" height="21.226"/>
	</g>
	<rect x="28.775" y="258.461" opacity="0.3" fill="#B1B3B3" enable-background="new    " width="447.139" height="27.828"/>
	
		<rect x="14.955" y="128.781" fill="#58585B" stroke="#58585B" stroke-width="0.7385" stroke-miterlimit="10" width="474.55" height="22.412"/>
	
		<rect x="14.955" y="128.781" fill="#3F3E40" stroke="#3F3E40" stroke-width="0.5222" stroke-miterlimit="10" width="237.273" height="22.412"/>
</g>
</svg>
