<?xml version="1.0" encoding="utf-8"?>
<!-- Generator: Adobe Illustrator 15.0.2, SVG Export Plug-In . SVG Version: 6.00 Build 0)  -->
<!DOCTYPE svg PUBLIC "-//W3C//DTD SVG 1.1//EN" "http://www.w3.org/Graphics/SVG/1.1/DTD/svg11.dtd">
<svg version="1.1" id="Lager_1" xmlns="http://www.w3.org/2000/svg" xmlns:xlink="http://www.w3.org/1999/xlink" x="0px" y="0px"
	 width="298.581px" height="454.203px" viewBox="0 0 298.581 454.203" enable-background="new 0 0 298.581 454.203"
	 xml:space="preserve">
<g>
	<g>
		
			<rect x="120.49" y="50.486" transform="matrix(0.3777 -0.9259 0.9259 0.3777 33.3209 191.8553)" fill="#FFFFFF" stroke="#FFFFFF" stroke-width="0.1704" stroke-miterlimit="10" width="77.817" height="41.302"/>
		<g>
			<defs>
				<polygon id="SVGID_1_" points="188.083,44.417 169.412,90.185 137.332,76.37 156.003,30.599 				"/>
			</defs>
			<clipPath id="SVGID_2_">
				<use xlink:href="#SVGID_1_"  overflow="visible"/>
			</clipPath>
			<g clip-path="url(#SVGID_2_)">
				<path fill="#139383" d="M133.323,163.438l-1.033,2.532c1.477,2.491,1.385,5.583,0.383,8.04c-1.003,2.457-3.101,4.73-5.897,5.478
					l-1.032,2.53c-1.407,3.45,0.248,7.386,3.697,8.793l6.293,3.297l12.931-31.695l-6.549-2.672
					C138.666,158.334,134.729,159.991,133.323,163.438z"/>
				<path fill="#139383" d="M135.609,194.414l-6.294-3.298c-3.611-1.473-5.351-5.609-3.877-9.222l1.032-2.53
					c0.039-0.096,0.12-0.168,0.22-0.193c2.476-0.662,4.598-2.638,5.678-5.285c1.079-2.646,0.944-5.543-0.36-7.747
					c-0.054-0.089-0.061-0.197-0.022-0.292l1.033-2.532c1.473-3.61,5.609-5.351,9.221-3.877l6.549,2.672 M135.553,193.68
					l12.682-31.088l-6.244-2.547c-3.275-1.336-7.028,0.241-8.364,3.518l-0.972,2.382c1.335,2.36,1.458,5.409,0.322,8.19
					c-1.133,2.779-3.353,4.871-5.959,5.626l-0.971,2.382c-1.338,3.276,0.24,7.027,3.517,8.363L135.553,193.68z"/>
			</g>
			<g clip-path="url(#SVGID_2_)">
				<g>
					<path fill="#139383" d="M115.177,177.594c-5.624-2.295-8.489-8.303-6.401-13.422s8.338-7.408,13.962-5.113
						c5.624,2.293,10.062,8.943,7.975,14.062C128.624,178.241,120.799,179.888,115.177,177.594z"/>
					<path fill="#139383" d="M130.834,173.17c-2.157,5.289-10.216,6.787-15.707,4.546c-5.683-2.317-8.586-8.415-6.474-13.595
						c2.112-5.178,8.452-7.504,14.135-5.186C128.28,161.176,132.992,167.882,130.834,173.17z M108.899,164.221
						c-2.059,5.044,0.781,10.986,6.328,13.25c5.379,2.193,13.262,0.75,15.363-4.4c2.101-5.15-2.523-11.695-7.902-13.89
						C117.141,156.918,110.956,159.18,108.899,164.221z"/>
				</g>
			</g>
		</g>
		<polygon fill="#F6F6F6" stroke="#F6F6F6" stroke-width="0.1704" stroke-linejoin="round" stroke-miterlimit="10" points="
			193.217,42.912 163.823,114.963 125.581,99.363 		"/>
		
			<rect x="137.265" y="43.393" transform="matrix(0.3777 -0.9259 0.9259 0.3777 44.4091 189.5588)" fill="#855156" stroke="#855156" stroke-width="0.1312" stroke-miterlimit="10" width="51.937" height="36.693"/>
		<polygon fill="#673B45" stroke="#673B45" stroke-width="0.1312" stroke-miterlimit="10" points="190.03,44.625 170.412,92.714 
			136.437,78.854 		"/>
		<g>
			
				<path fill="#673B45" stroke="#673B45" stroke-width="0.3374" stroke-linecap="round" stroke-linejoin="round" stroke-miterlimit="10" d="
				M134.979,91.038c0.963,0.392,1.635,0.856,2.018,1.393c0.384,0.538,0.447,1.117,0.194,1.739c-0.253,0.62-0.715,1.003-1.386,1.147
				c-0.672,0.145-1.49,0.02-2.455-0.374s-1.636-0.871-2.008-1.431c-0.374-0.561-0.428-1.165-0.164-1.812
				C131.694,90.434,132.961,90.213,134.979,91.038z M134.704,91.301c-0.809-0.33-1.488-0.448-2.043-0.358
				c-0.554,0.09-0.937,0.396-1.148,0.915c-0.212,0.518-0.158,1.018,0.164,1.498c0.32,0.482,0.924,0.904,1.811,1.266
				c1.038,0.424,1.895,0.497,2.571,0.223c0.377-0.152,0.633-0.398,0.771-0.736c0.137-0.338,0.174-0.646,0.111-0.924
				c-0.064-0.279-0.204-0.528-0.419-0.752C136.118,92.008,135.511,91.63,134.704,91.301z"/>
			
				<path fill="#673B45" stroke="#673B45" stroke-width="0.3374" stroke-linecap="round" stroke-linejoin="round" stroke-miterlimit="10" d="
				M137.044,85.974c0.962,0.393,1.635,0.857,2.018,1.396c0.384,0.537,0.448,1.116,0.195,1.736c-0.254,0.621-0.717,1.004-1.388,1.148
				s-1.489,0.021-2.455-0.373c-0.964-0.395-1.635-0.871-2.007-1.432c-0.374-0.561-0.429-1.164-0.164-1.812
				C133.759,85.374,135.026,85.151,137.044,85.974z M136.768,86.239c-0.808-0.329-1.488-0.449-2.042-0.357
				c-0.555,0.089-0.937,0.395-1.148,0.912c-0.212,0.52-0.157,1.02,0.163,1.502c0.321,0.48,0.925,0.902,1.812,1.264
				c1.038,0.423,1.894,0.498,2.57,0.223c0.377-0.152,0.634-0.398,0.771-0.736c0.138-0.339,0.174-0.646,0.111-0.924
				c-0.064-0.278-0.203-0.529-0.417-0.754C138.183,86.946,137.576,86.569,136.768,86.239z"/>
			
				<path fill="#673B45" stroke="#673B45" stroke-width="0.3374" stroke-linecap="round" stroke-linejoin="round" stroke-miterlimit="10" d="
				M131.814,99.008l-3.164-1.291l1.064-2.609l0.325,0.133l-0.954,2.338l2.111,0.861c-0.101-0.35-0.086-0.688,0.045-1.01
				c0.237-0.58,0.597-0.944,1.08-1.096c0.485-0.152,0.997-0.117,1.534,0.102s0.96,0.575,1.267,1.068
				c0.306,0.494,0.359,0.99,0.155,1.488c-0.145,0.355-0.387,0.625-0.726,0.812c-0.34,0.187-0.68,0.219-1.025,0.096l0.12-0.295
				c0.23,0.07,0.472,0.033,0.724-0.107c0.251-0.142,0.442-0.371,0.572-0.689c0.165-0.404,0.122-0.8-0.128-1.189
				c-0.251-0.389-0.601-0.676-1.05-0.859c-0.45-0.184-0.881-0.214-1.293-0.092c-0.412,0.123-0.715,0.424-0.909,0.9
				c-0.097,0.239-0.12,0.489-0.07,0.75C131.542,98.581,131.651,98.81,131.814,99.008z"/>
		</g>
		<g>
			
				<path fill="#B28086" stroke="#B28086" stroke-width="0.3374" stroke-linecap="round" stroke-linejoin="round" stroke-miterlimit="10" d="
				M183.193,49.061c0.962,0.393,1.635,0.857,2.018,1.394c0.383,0.538,0.448,1.116,0.194,1.739c-0.254,0.62-0.716,1.004-1.387,1.148
				c-0.673,0.145-1.49,0.02-2.455-0.374c-0.964-0.394-1.635-0.872-2.007-1.433c-0.374-0.561-0.429-1.164-0.164-1.811
				C179.908,48.459,181.175,48.238,183.193,49.061z M182.917,49.327c-0.808-0.33-1.489-0.449-2.042-0.359
				c-0.555,0.091-0.937,0.395-1.148,0.914s-0.158,1.02,0.163,1.501c0.319,0.481,0.923,0.901,1.811,1.264
				c1.037,0.423,1.896,0.497,2.572,0.222c0.375-0.151,0.632-0.398,0.77-0.736s0.175-0.646,0.112-0.924
				c-0.063-0.277-0.203-0.527-0.419-0.752C184.331,50.033,183.725,49.656,182.917,49.327z"/>
			
				<path fill="#B28086" stroke="#B28086" stroke-width="0.3374" stroke-linecap="round" stroke-linejoin="round" stroke-miterlimit="10" d="
				M185.257,44c0.962,0.392,1.635,0.855,2.019,1.393c0.382,0.537,0.448,1.116,0.194,1.737c-0.254,0.622-0.717,1.004-1.388,1.149
				c-0.671,0.143-1.489,0.019-2.454-0.375c-0.964-0.394-1.635-0.87-2.007-1.431c-0.374-0.561-0.429-1.165-0.164-1.812
				C181.973,43.397,183.24,43.176,185.257,44z M184.982,44.264c-0.808-0.33-1.489-0.451-2.043-0.359
				c-0.554,0.09-0.937,0.396-1.147,0.914c-0.212,0.52-0.158,1.019,0.162,1.5c0.32,0.48,0.925,0.903,1.812,1.266
				c1.037,0.423,1.895,0.496,2.571,0.222c0.376-0.153,0.633-0.399,0.77-0.737c0.139-0.337,0.176-0.645,0.113-0.923
				c-0.064-0.278-0.203-0.529-0.419-0.751C186.396,44.969,185.79,44.593,184.982,44.264z"/>
			
				<path fill="#B28086" stroke="#B28086" stroke-width="0.3374" stroke-linecap="round" stroke-linejoin="round" stroke-miterlimit="10" d="
				M180.028,57.032l-3.164-1.291l1.064-2.609l0.323,0.133l-0.954,2.338l2.114,0.862c-0.104-0.35-0.088-0.687,0.044-1.01
				c0.236-0.579,0.596-0.943,1.08-1.097c0.485-0.15,0.996-0.117,1.534,0.102c0.537,0.22,0.96,0.576,1.266,1.07
				c0.307,0.492,0.358,0.988,0.155,1.487c-0.146,0.354-0.387,0.625-0.725,0.812c-0.34,0.188-0.682,0.219-1.026,0.098l0.12-0.296
				c0.231,0.07,0.473,0.033,0.724-0.108c0.253-0.14,0.443-0.37,0.573-0.688c0.164-0.403,0.121-0.8-0.128-1.188
				c-0.251-0.391-0.601-0.678-1.051-0.861c-0.449-0.184-0.881-0.213-1.292-0.09c-0.412,0.122-0.715,0.422-0.909,0.9
				c-0.097,0.238-0.122,0.487-0.071,0.75C179.756,56.605,179.864,56.836,180.028,57.032z"/>
		</g>
	</g>
	<g>
		
			<rect x="106.518" y="23.287" transform="matrix(0.3777 -0.9259 0.9259 0.3777 49.8104 161.9928)" fill="#FFFFFF" stroke="#FFFFFF" stroke-width="0.1704" stroke-miterlimit="10" width="77.817" height="41.302"/>
		<g>
			<defs>
				<polygon id="SVGID_3_" points="174.11,17.217 155.439,62.986 123.359,49.17 142.031,3.4 				"/>
			</defs>
			<clipPath id="SVGID_4_">
				<use xlink:href="#SVGID_3_"  overflow="visible"/>
			</clipPath>
			<g clip-path="url(#SVGID_4_)">
				<path fill="#139383" d="M119.35,136.239l-1.033,2.532c1.477,2.491,1.385,5.583,0.383,8.04c-1.003,2.457-3.101,4.73-5.897,5.478
					l-1.032,2.53c-1.407,3.45,0.248,7.386,3.697,8.793l6.293,3.297l12.931-31.695l-6.549-2.672
					C124.693,131.135,120.756,132.792,119.35,136.239z"/>
				<path fill="#139383" d="M121.636,167.214l-6.294-3.298c-3.611-1.473-5.351-5.609-3.877-9.222l1.032-2.53
					c0.039-0.096,0.12-0.168,0.22-0.193c2.476-0.662,4.598-2.638,5.678-5.285c1.079-2.646,0.944-5.543-0.36-7.747
					c-0.054-0.089-0.061-0.197-0.022-0.292l1.033-2.532c1.473-3.61,5.609-5.351,9.221-3.877l6.549,2.672 M121.581,166.481
					l12.682-31.088l-6.244-2.547c-3.275-1.336-7.028,0.241-8.364,3.518l-0.972,2.382c1.335,2.36,1.458,5.409,0.322,8.19
					c-1.133,2.779-3.353,4.871-5.959,5.626l-0.971,2.382c-1.338,3.276,0.24,7.027,3.517,8.363L121.581,166.481z"/>
			</g>
			<g clip-path="url(#SVGID_4_)">
				<g>
					<path fill="#139383" d="M101.205,150.395c-5.624-2.295-8.489-8.303-6.401-13.422s8.338-7.408,13.962-5.113
						c5.624,2.293,10.062,8.943,7.975,14.062C114.651,151.042,106.827,152.689,101.205,150.395z"/>
					<path fill="#139383" d="M116.862,145.971c-2.157,5.289-10.216,6.787-15.707,4.546c-5.683-2.317-8.586-8.415-6.474-13.595
						c2.112-5.178,8.452-7.504,14.135-5.186C114.307,133.977,119.019,140.683,116.862,145.971z M94.926,137.022
						c-2.059,5.044,0.781,10.986,6.328,13.25c5.379,2.193,13.262,0.75,15.363-4.4c2.101-5.15-2.523-11.695-7.902-13.89
						C103.168,129.719,96.983,131.981,94.926,137.022z"/>
				</g>
			</g>
		</g>
		<polygon fill="#F6F6F6" stroke="#F6F6F6" stroke-width="0.1704" stroke-linejoin="round" stroke-miterlimit="10" points="
			179.245,15.712 149.85,87.764 111.608,72.164 		"/>
		
			<rect x="123.292" y="16.194" transform="matrix(0.3777 -0.9259 0.9259 0.3777 60.8985 159.6962)" fill="#855156" stroke="#855156" stroke-width="0.1312" stroke-miterlimit="10" width="51.937" height="36.693"/>
		<polygon fill="#673B45" stroke="#673B45" stroke-width="0.1312" stroke-miterlimit="10" points="176.057,17.426 156.439,65.515 
			122.464,51.655 		"/>
		<g>
			
				<path fill="#673B45" stroke="#673B45" stroke-width="0.3374" stroke-linecap="round" stroke-linejoin="round" stroke-miterlimit="10" d="
				M121.006,63.838c0.963,0.392,1.635,0.856,2.018,1.393c0.384,0.538,0.447,1.117,0.194,1.739c-0.253,0.62-0.715,1.003-1.386,1.147
				c-0.672,0.145-1.49,0.02-2.455-0.374s-1.636-0.871-2.008-1.431c-0.374-0.561-0.428-1.165-0.164-1.812
				C117.721,63.235,118.989,63.014,121.006,63.838z M120.731,64.102c-0.809-0.33-1.488-0.448-2.043-0.358
				c-0.554,0.09-0.937,0.396-1.148,0.915c-0.212,0.518-0.158,1.018,0.164,1.498c0.32,0.482,0.924,0.904,1.811,1.266
				c1.038,0.424,1.895,0.497,2.571,0.223c0.377-0.152,0.633-0.398,0.771-0.736c0.137-0.338,0.174-0.646,0.111-0.924
				c-0.064-0.279-0.204-0.528-0.419-0.752C122.145,64.809,121.539,64.431,120.731,64.102z"/>
			
				<path fill="#673B45" stroke="#673B45" stroke-width="0.3374" stroke-linecap="round" stroke-linejoin="round" stroke-miterlimit="10" d="
				M123.072,58.775c0.962,0.393,1.635,0.857,2.018,1.396c0.384,0.537,0.448,1.116,0.195,1.736c-0.254,0.621-0.717,1.004-1.388,1.148
				s-1.489,0.021-2.455-0.373c-0.964-0.395-1.635-0.871-2.007-1.432c-0.374-0.561-0.429-1.164-0.164-1.812
				C119.787,58.174,121.053,57.952,123.072,58.775z M122.795,59.04c-0.808-0.329-1.488-0.449-2.042-0.357
				c-0.555,0.089-0.937,0.395-1.148,0.912c-0.212,0.52-0.157,1.02,0.163,1.502c0.321,0.48,0.925,0.902,1.812,1.264
				c1.038,0.423,1.894,0.498,2.57,0.223c0.377-0.152,0.634-0.398,0.771-0.736c0.138-0.339,0.174-0.646,0.111-0.924
				c-0.064-0.278-0.203-0.529-0.417-0.754C124.21,59.747,123.603,59.37,122.795,59.04z"/>
			
				<path fill="#673B45" stroke="#673B45" stroke-width="0.3374" stroke-linecap="round" stroke-linejoin="round" stroke-miterlimit="10" d="
				M117.841,71.809l-3.164-1.291l1.064-2.609l0.325,0.133l-0.954,2.338l2.111,0.861c-0.101-0.35-0.086-0.688,0.045-1.01
				c0.237-0.58,0.597-0.944,1.08-1.096c0.485-0.152,0.997-0.117,1.534,0.102s0.96,0.575,1.267,1.068
				c0.306,0.494,0.359,0.99,0.155,1.488c-0.145,0.355-0.387,0.625-0.726,0.812c-0.34,0.187-0.68,0.219-1.025,0.096l0.12-0.295
				c0.23,0.07,0.472,0.033,0.724-0.107c0.251-0.142,0.442-0.371,0.572-0.689c0.165-0.404,0.122-0.8-0.128-1.189
				c-0.251-0.389-0.601-0.676-1.05-0.859c-0.45-0.184-0.881-0.214-1.293-0.092c-0.412,0.123-0.715,0.424-0.909,0.9
				c-0.097,0.239-0.12,0.489-0.07,0.75C117.57,71.381,117.678,71.611,117.841,71.809z"/>
		</g>
		<g>
			
				<path fill="#B28086" stroke="#B28086" stroke-width="0.3374" stroke-linecap="round" stroke-linejoin="round" stroke-miterlimit="10" d="
				M169.22,21.862c0.962,0.393,1.635,0.857,2.018,1.394c0.383,0.538,0.448,1.116,0.194,1.739c-0.254,0.62-0.716,1.004-1.387,1.148
				c-0.673,0.145-1.49,0.02-2.455-0.374c-0.964-0.394-1.635-0.872-2.007-1.433c-0.374-0.561-0.429-1.164-0.164-1.811
				C165.935,21.26,167.203,21.039,169.22,21.862z M168.944,22.127c-0.808-0.33-1.489-0.449-2.042-0.359
				c-0.555,0.091-0.937,0.395-1.148,0.914s-0.158,1.02,0.163,1.501c0.319,0.481,0.923,0.901,1.811,1.264
				c1.037,0.423,1.896,0.497,2.572,0.222c0.375-0.151,0.632-0.398,0.77-0.736s0.175-0.646,0.112-0.924
				c-0.063-0.277-0.203-0.527-0.419-0.752C170.358,22.833,169.752,22.457,168.944,22.127z"/>
			
				<path fill="#B28086" stroke="#B28086" stroke-width="0.3374" stroke-linecap="round" stroke-linejoin="round" stroke-miterlimit="10" d="
				M171.285,16.801c0.962,0.392,1.635,0.855,2.019,1.393c0.382,0.537,0.448,1.116,0.194,1.737c-0.254,0.622-0.717,1.004-1.388,1.149
				c-0.671,0.143-1.489,0.019-2.454-0.375c-0.964-0.394-1.635-0.87-2.007-1.431c-0.374-0.561-0.429-1.165-0.164-1.812
				C168,16.198,169.267,15.977,171.285,16.801z M171.009,17.065c-0.808-0.33-1.489-0.451-2.043-0.359
				c-0.554,0.09-0.937,0.396-1.147,0.914c-0.212,0.52-0.158,1.019,0.162,1.5c0.32,0.48,0.925,0.903,1.812,1.266
				c1.037,0.423,1.895,0.496,2.571,0.222c0.376-0.153,0.633-0.399,0.77-0.737c0.139-0.337,0.176-0.645,0.113-0.923
				c-0.064-0.278-0.203-0.529-0.419-0.751C172.423,17.77,171.817,17.394,171.009,17.065z"/>
			
				<path fill="#B28086" stroke="#B28086" stroke-width="0.3374" stroke-linecap="round" stroke-linejoin="round" stroke-miterlimit="10" d="
				M166.055,29.833l-3.164-1.291l1.064-2.609l0.323,0.133l-0.954,2.338l2.114,0.862c-0.104-0.35-0.088-0.687,0.044-1.01
				c0.236-0.579,0.596-0.943,1.08-1.097c0.485-0.15,0.996-0.117,1.534,0.102c0.537,0.22,0.96,0.576,1.266,1.07
				c0.307,0.492,0.358,0.988,0.155,1.487c-0.146,0.354-0.387,0.625-0.725,0.812c-0.34,0.188-0.682,0.219-1.026,0.098l0.12-0.296
				c0.231,0.07,0.473,0.033,0.724-0.108c0.253-0.14,0.443-0.37,0.573-0.688c0.164-0.403,0.121-0.8-0.128-1.188
				c-0.251-0.391-0.601-0.678-1.051-0.861c-0.449-0.184-0.881-0.213-1.292-0.09c-0.412,0.122-0.715,0.422-0.909,0.9
				c-0.097,0.238-0.122,0.487-0.071,0.75C165.784,29.406,165.891,29.637,166.055,29.833z"/>
		</g>
	</g>
	<g>
		
			<rect x="87.952" y="44.821" transform="matrix(0.3742 0.9273 -0.9273 0.3742 140.1014 -76.672)" fill="#FFFFFF" stroke="#FFFFFF" stroke-width="0.1704" stroke-miterlimit="10" width="77.817" height="41.302"/>
		<g>
			<defs>
				<polygon id="SVGID_5_" points="124.906,104.625 106.407,58.786 139.043,46.342 157.542,92.184 				"/>
			</defs>
			<clipPath id="SVGID_6_">
				<use xlink:href="#SVGID_5_"  overflow="visible"/>
			</clipPath>
			<g clip-path="url(#SVGID_6_)">
				<path fill="#139383" d="M81.251-18.904l-1.023-2.536c-2.795-0.758-4.883-3.04-5.877-5.5c-0.992-2.461-1.072-5.554,0.413-8.038
					l-1.022-2.535c-1.395-3.455-5.324-5.124-8.778-3.73l-6.812,2.02L70.962-7.479l6.559-2.647
					C80.974-11.519,82.645-15.45,81.251-18.904z"/>
				<path fill="#139383" d="M58.028-39.529l6.812-2.019c3.616-1.46,7.747,0.294,9.206,3.913l1.023,2.534
					c0.038,0.096,0.031,0.204-0.023,0.292c-1.313,2.199-1.459,5.095-0.39,7.746c1.069,2.65,3.185,4.634,5.657,5.306
					c0.1,0.026,0.181,0.099,0.219,0.194l1.023,2.536c1.459,3.616-0.296,7.747-3.912,9.206l-6.56,2.646 M58.58-39.041L71.144-7.906
					l6.254-2.523c3.28-1.324,4.873-5.071,3.549-8.351l-0.963-2.386c-2.603-0.763-4.814-2.864-5.938-5.649
					c-1.124-2.784-0.989-5.832,0.354-8.188l-0.963-2.385c-1.324-3.282-5.07-4.873-8.352-3.548L58.58-39.041z"/>
			</g>
			<g clip-path="url(#SVGID_6_)">
				<g>
					<path fill="#139383" d="M84.403-41.701c5.633-2.273,11.875,0.041,13.944,5.167c2.068,5.126-0.82,11.124-6.453,13.397
						c-5.632,2.273-13.449,0.595-15.518-4.53C74.308-32.794,78.772-39.428,84.403-41.701z"/>
					<path fill="#139383" d="M76.253-27.618c-2.137-5.297,2.601-11.986,8.101-14.206c5.69-2.297,12.022,0.054,14.115,5.241
						c2.093,5.186-0.834,11.272-6.526,13.568C86.445-20.794,78.392-22.321,76.253-27.618z M98.224-36.483
						c-2.038-5.052-8.215-7.336-13.771-5.094c-5.388,2.174-10.036,8.703-7.954,13.861c2.081,5.158,9.959,6.631,15.346,4.457
						C97.401-25.501,100.262-31.434,98.224-36.483z"/>
				</g>
			</g>
		</g>
		<polygon fill="#F6F6F6" stroke="#F6F6F6" stroke-width="0.1704" stroke-linejoin="round" stroke-miterlimit="10" points="
			122.271,109.282 93.15,37.119 131.451,21.663 		"/>
		
			<rect x="104.689" y="56.539" transform="matrix(0.3742 0.9273 -0.9273 0.3742 151.2065 -74.303)" fill="#855156" stroke="#855156" stroke-width="0.1312" stroke-miterlimit="10" width="51.938" height="36.693"/>
		<polygon fill="#673B45" stroke="#673B45" stroke-width="0.1312" stroke-miterlimit="10" points="123.363,105.833 103.926,57.668 
			137.954,43.938 		"/>
		<g>
			
				<path fill="#673B45" stroke="#673B45" stroke-width="0.3374" stroke-linecap="round" stroke-linejoin="round" stroke-miterlimit="10" d="
				M130.511,34.182c-0.964,0.391-1.771,0.525-2.419,0.406c-0.649-0.117-1.099-0.488-1.351-1.111
				c-0.251-0.621-0.186-1.217,0.194-1.789c0.381-0.572,1.056-1.052,2.022-1.441c0.966-0.391,1.779-0.515,2.437-0.373
				c0.659,0.142,1.119,0.537,1.38,1.186C133.287,32.327,132.532,33.368,130.511,34.182z M130.525,33.801
				c0.81-0.326,1.38-0.715,1.715-1.166c0.334-0.45,0.396-0.936,0.187-1.456c-0.209-0.52-0.597-0.841-1.162-0.962
				s-1.292-0.004-2.181,0.355c-1.04,0.419-1.705,0.963-1.999,1.631c-0.164,0.373-0.178,0.727-0.04,1.066
				c0.137,0.338,0.326,0.584,0.563,0.74c0.24,0.154,0.515,0.236,0.824,0.248C129.017,34.28,129.715,34.128,130.525,33.801z"/>
			
				<path fill="#673B45" stroke="#673B45" stroke-width="0.3374" stroke-linecap="round" stroke-linejoin="round" stroke-miterlimit="10" d="
				M132.557,39.253c-0.963,0.389-1.77,0.524-2.42,0.405c-0.648-0.117-1.099-0.488-1.349-1.109c-0.251-0.623-0.187-1.219,0.193-1.791
				c0.381-0.57,1.056-1.052,2.022-1.442c0.966-0.39,1.779-0.515,2.436-0.372c0.66,0.141,1.119,0.537,1.382,1.186
				C135.333,37.395,134.579,38.438,132.557,39.253z M132.571,38.872c0.809-0.328,1.381-0.715,1.715-1.166
				c0.335-0.451,0.396-0.937,0.187-1.455c-0.21-0.521-0.597-0.842-1.162-0.963c-0.566-0.122-1.292-0.004-2.18,0.355
				c-1.041,0.42-1.707,0.962-2,1.631c-0.164,0.372-0.177,0.727-0.039,1.066c0.136,0.338,0.325,0.584,0.563,0.74
				c0.239,0.154,0.514,0.236,0.824,0.248C131.064,39.35,131.761,39.197,132.571,38.872z"/>
			
				<path fill="#673B45" stroke="#673B45" stroke-width="0.3374" stroke-linecap="round" stroke-linejoin="round" stroke-miterlimit="10" d="
				M127.227,26.26l3.17-1.279l1.054,2.613l-0.326,0.132l-0.944-2.342l-2.115,0.853c0.316,0.182,0.541,0.434,0.673,0.758
				c0.233,0.58,0.229,1.092-0.013,1.537c-0.242,0.447-0.633,0.779-1.171,0.996c-0.537,0.217-1.089,0.256-1.652,0.117
				c-0.563-0.142-0.947-0.461-1.149-0.96c-0.143-0.356-0.157-0.718-0.045-1.088c0.114-0.371,0.335-0.632,0.67-0.784l0.118,0.295
				c-0.215,0.111-0.362,0.305-0.443,0.582c-0.082,0.277-0.06,0.573,0.069,0.894c0.163,0.404,0.47,0.658,0.921,0.764
				c0.451,0.104,0.901,0.066,1.352-0.115c0.451-0.183,0.781-0.46,0.991-0.835c0.209-0.375,0.218-0.802,0.024-1.279
				c-0.097-0.239-0.255-0.435-0.472-0.588C127.719,26.377,127.483,26.288,127.227,26.26z"/>
		</g>
		<g>
			
				<path fill="#B28086" stroke="#B28086" stroke-width="0.3374" stroke-linecap="round" stroke-linejoin="round" stroke-miterlimit="10" d="
				M125.175,97.886c-0.962,0.389-1.77,0.524-2.418,0.406c-0.648-0.119-1.099-0.489-1.35-1.112c-0.251-0.621-0.187-1.219,0.193-1.789
				c0.382-0.572,1.055-1.053,2.021-1.443c0.966-0.39,1.779-0.514,2.438-0.371c0.659,0.143,1.119,0.537,1.38,1.185
				C127.952,96.029,127.197,97.071,125.175,97.886z M125.189,97.503c0.811-0.326,1.382-0.716,1.715-1.165
				c0.335-0.451,0.397-0.936,0.188-1.456s-0.597-0.842-1.163-0.963c-0.564-0.123-1.29-0.004-2.179,0.355
				c-1.039,0.419-1.707,0.964-2,1.633c-0.163,0.37-0.176,0.726-0.039,1.064s0.324,0.585,0.563,0.741
				c0.239,0.154,0.513,0.236,0.824,0.248C123.683,97.982,124.38,97.831,125.189,97.503z"/>
			
				<path fill="#B28086" stroke="#B28086" stroke-width="0.3374" stroke-linecap="round" stroke-linejoin="round" stroke-miterlimit="10" d="
				M127.222,102.956c-0.964,0.389-1.77,0.523-2.419,0.406c-0.648-0.119-1.1-0.488-1.351-1.11c-0.251-0.623-0.185-1.22,0.195-1.791
				c0.382-0.57,1.055-1.052,2.021-1.44c0.966-0.391,1.778-0.516,2.437-0.373c0.659,0.141,1.118,0.537,1.381,1.186
				C129.998,101.099,129.242,102.14,127.222,102.956z M127.236,102.575c0.809-0.327,1.382-0.715,1.715-1.168
				c0.335-0.449,0.396-0.936,0.187-1.455s-0.596-0.84-1.162-0.962c-0.564-0.122-1.291-0.004-2.181,0.354
				c-1.038,0.419-1.705,0.964-1.999,1.633c-0.163,0.372-0.175,0.727-0.038,1.065c0.136,0.337,0.323,0.585,0.562,0.739
				c0.239,0.156,0.514,0.239,0.824,0.248C125.73,103.053,126.426,102.901,127.236,102.575z"/>
			
				<path fill="#B28086" stroke="#B28086" stroke-width="0.3374" stroke-linecap="round" stroke-linejoin="round" stroke-miterlimit="10" d="
				M121.892,89.963l3.17-1.278l1.054,2.612l-0.324,0.131l-0.945-2.342l-2.116,0.855c0.318,0.178,0.541,0.43,0.672,0.755
				c0.233,0.579,0.229,1.091-0.011,1.538c-0.242,0.447-0.633,0.779-1.172,0.996c-0.537,0.217-1.089,0.256-1.651,0.115
				c-0.564-0.14-0.947-0.459-1.148-0.959c-0.144-0.355-0.159-0.718-0.046-1.087c0.113-0.371,0.336-0.632,0.668-0.785l0.12,0.296
				c-0.215,0.111-0.363,0.305-0.444,0.582c-0.083,0.275-0.06,0.574,0.069,0.893c0.163,0.404,0.471,0.658,0.92,0.765
				c0.452,0.104,0.902,0.066,1.353-0.116c0.45-0.181,0.78-0.461,0.991-0.834c0.209-0.375,0.218-0.802,0.024-1.28
				c-0.097-0.237-0.253-0.435-0.472-0.587S122.147,89.989,121.892,89.963z"/>
		</g>
	</g>
	<g>
		
			<rect x="77.564" y="37.639" transform="matrix(0.8523 0.5231 -0.5231 0.8523 47.6916 -52.3125)" fill="#FFFFFF" stroke="#FFFFFF" stroke-width="0.1704" stroke-miterlimit="10" width="77.818" height="41.301"/>
		<g>
			<defs>
				<polygon id="SVGID_7_" points="138.182,90.93 96.052,65.077 114.892,35.665 157.025,61.52 				"/>
			</defs>
			<clipPath id="SVGID_8_">
				<use xlink:href="#SVGID_7_"  overflow="visible"/>
			</clipPath>
			<g clip-path="url(#SVGID_8_)">
				<path fill="#139383" d="M29.63,17.572l-2.331-1.43c-2.696,1.052-5.733,0.46-7.995-0.928c-2.262-1.389-4.164-3.827-4.447-6.708
					l-2.33-1.43C9.352,5.128,5.2,6.123,3.251,9.297l-4.275,5.674l29.176,17.904l3.699-6.027
					C33.798,23.674,32.804,19.52,29.63,17.572z"/>
				<path fill="#139383" d="M-1.305,14.799L2.97,9.125C5.01,5.8,9.375,4.754,12.7,6.796l2.329,1.429
					c0.088,0.055,0.146,0.146,0.156,0.248c0.25,2.55,1.855,4.965,4.291,6.461c2.437,1.494,5.316,1.832,7.704,0.902
					c0.096-0.039,0.204-0.028,0.292,0.025l2.33,1.43c3.324,2.04,4.369,6.404,2.328,9.729l-3.699,6.028 M-0.573,14.863l28.617,17.562
					l3.526-5.748c1.851-3.015,0.903-6.975-2.112-8.824l-2.193-1.346c-2.545,0.934-5.574,0.561-8.133-1.012
					c-2.559-1.569-4.264-4.1-4.584-6.793l-2.193-1.346C9.339,5.504,5.381,6.453,3.531,9.469L-0.573,14.863z"/>
			</g>
			<g clip-path="url(#SVGID_8_)">
				<g>
					<path fill="#139383" d="M18.609-2.631c3.176-5.177,9.57-7.029,14.283-4.138c4.711,2.892,5.955,9.431,2.777,14.609
						c-3.176,5.176-10.459,8.475-15.17,5.584C15.788,10.533,15.432,2.544,18.609-2.631z"/>
					<path fill="#139383" d="M20.431,13.538C15.562,10.549,15.394,2.354,18.496-2.7c3.21-5.23,9.699-7.105,14.465-4.18
						c4.767,2.925,6.033,9.559,2.822,14.79C32.681,12.963,25.298,16.524,20.431,13.538z M32.823-6.655
						c-4.643-2.85-10.967-1.013-14.101,4.093c-3.039,4.952-2.895,12.965,1.848,15.874c4.74,2.909,11.949-0.591,14.988-5.542
						C38.691,2.665,37.464-3.807,32.823-6.655z"/>
				</g>
			</g>
		</g>
		<polygon fill="#F6F6F6" stroke="#F6F6F6" stroke-width="0.1704" stroke-linejoin="round" stroke-miterlimit="10" points="
			138.833,96.241 72.509,55.538 94.113,20.337 		"/>
		
			<rect x="99.155" y="45.252" transform="matrix(0.8523 0.523 -0.523 0.8523 51.7449 -56.0518)" fill="#855156" stroke="#855156" stroke-width="0.1312" stroke-miterlimit="10" width="51.936" height="36.693"/>
		<polygon fill="#673B45" stroke="#673B45" stroke-width="0.1312" stroke-miterlimit="10" points="137.66,92.818 93.394,65.653 
			112.586,34.379 		"/>
		<g>
			
				<path fill="#673B45" stroke="#673B45" stroke-width="0.3374" stroke-linecap="round" stroke-linejoin="round" stroke-miterlimit="10" d="
				M100.802,30.961c-0.543,0.887-1.111,1.475-1.703,1.766c-0.593,0.291-1.174,0.26-1.747-0.091
				c-0.571-0.351-0.873-0.868-0.907-1.554c-0.035-0.688,0.223-1.475,0.768-2.362s1.125-1.472,1.738-1.749s1.219-0.232,1.814,0.133
				C101.929,27.819,101.942,29.105,100.802,30.961z M100.586,30.647c0.456-0.744,0.685-1.396,0.685-1.957
				c0.002-0.561-0.238-0.988-0.715-1.281c-0.478-0.294-0.98-0.322-1.506-0.082c-0.527,0.238-1.041,0.765-1.543,1.582
				c-0.587,0.955-0.798,1.788-0.637,2.5c0.09,0.396,0.289,0.689,0.602,0.881c0.311,0.189,0.609,0.275,0.893,0.26
				c0.285-0.019,0.555-0.116,0.811-0.291C99.659,31.928,100.13,31.391,100.586,30.647z"/>
			
				<path fill="#673B45" stroke="#673B45" stroke-width="0.3374" stroke-linecap="round" stroke-linejoin="round" stroke-miterlimit="10" d="
				M105.462,33.822c-0.543,0.886-1.111,1.474-1.705,1.765c-0.592,0.291-1.174,0.261-1.744-0.09
				c-0.572-0.352-0.875-0.869-0.909-1.555c-0.033-0.686,0.224-1.474,0.769-2.362c0.545-0.888,1.125-1.472,1.736-1.748
				c0.615-0.278,1.219-0.233,1.816,0.132C106.589,30.678,106.603,31.964,105.462,33.822z M105.246,33.506
				c0.455-0.744,0.686-1.396,0.686-1.957c0.002-0.562-0.238-0.988-0.715-1.281c-0.479-0.293-0.98-0.32-1.508-0.083
				c-0.527,0.239-1.04,0.767-1.541,1.582c-0.586,0.957-0.8,1.789-0.638,2.501c0.089,0.396,0.29,0.689,0.603,0.881
				c0.311,0.191,0.609,0.276,0.893,0.26c0.285-0.018,0.555-0.115,0.812-0.291C104.32,34.788,104.789,34.25,105.246,33.506z"/>
			
				<path fill="#673B45" stroke="#673B45" stroke-width="0.3374" stroke-linecap="round" stroke-linejoin="round" stroke-miterlimit="10" d="
				M93.451,26.545l1.788-2.914l2.401,1.475l-0.184,0.3l-2.152-1.321l-1.193,1.943c0.362-0.042,0.693,0.027,0.99,0.209
				c0.533,0.327,0.834,0.741,0.904,1.244c0.072,0.503-0.045,1.002-0.349,1.496s-0.724,0.854-1.259,1.077
				c-0.537,0.222-1.035,0.192-1.495-0.089c-0.326-0.201-0.554-0.482-0.683-0.848c-0.129-0.366-0.106-0.707,0.072-1.028l0.27,0.167
				c-0.105,0.217-0.109,0.46-0.01,0.73c0.099,0.271,0.293,0.497,0.587,0.678c0.372,0.229,0.769,0.25,1.194,0.066
				c0.425-0.186,0.765-0.482,1.019-0.896c0.255-0.414,0.354-0.834,0.3-1.26c-0.055-0.427-0.301-0.775-0.74-1.044
				c-0.221-0.135-0.463-0.198-0.729-0.191C93.916,26.346,93.673,26.415,93.451,26.545z"/>
		</g>
		<g>
			
				<path fill="#B28086" stroke="#B28086" stroke-width="0.3374" stroke-linecap="round" stroke-linejoin="round" stroke-miterlimit="10" d="
				M134.392,85.352c-0.542,0.885-1.11,1.475-1.702,1.764c-0.593,0.291-1.175,0.261-1.747-0.091c-0.57-0.351-0.874-0.868-0.908-1.554
				c-0.033-0.688,0.223-1.474,0.768-2.362c0.545-0.888,1.125-1.471,1.738-1.747c0.615-0.279,1.219-0.234,1.814,0.131
				C135.52,82.208,135.533,83.495,134.392,85.352z M134.175,85.036c0.458-0.744,0.687-1.396,0.687-1.957
				c0-0.562-0.237-0.987-0.716-1.281c-0.478-0.293-0.98-0.322-1.508-0.082c-0.526,0.236-1.039,0.764-1.539,1.581
				c-0.587,0.954-0.801,1.79-0.638,2.502c0.089,0.395,0.29,0.688,0.602,0.879s0.608,0.277,0.894,0.261
				c0.284-0.018,0.553-0.115,0.811-0.291C133.25,86.317,133.72,85.78,134.175,85.036z"/>
			
				<path fill="#B28086" stroke="#B28086" stroke-width="0.3374" stroke-linecap="round" stroke-linejoin="round" stroke-miterlimit="10" d="
				M139.051,88.209c-0.543,0.887-1.109,1.475-1.703,1.766c-0.591,0.291-1.174,0.262-1.745-0.09
				c-0.572-0.352-0.874-0.869-0.908-1.556c-0.032-0.686,0.224-1.472,0.769-2.36c0.545-0.888,1.123-1.472,1.737-1.748
				c0.614-0.279,1.218-0.234,1.815,0.132C140.18,85.067,140.191,86.354,139.051,88.209z M138.836,87.895
				c0.456-0.742,0.687-1.396,0.686-1.957c0.001-0.562-0.238-0.988-0.716-1.281s-0.979-0.321-1.507-0.082
				c-0.525,0.237-1.04,0.764-1.543,1.581c-0.585,0.954-0.797,1.789-0.636,2.501c0.091,0.396,0.292,0.689,0.603,0.88
				s0.608,0.278,0.893,0.26c0.285-0.017,0.555-0.112,0.811-0.29C137.911,89.176,138.379,88.639,138.836,87.895z"/>
			
				<path fill="#B28086" stroke="#B28086" stroke-width="0.3374" stroke-linecap="round" stroke-linejoin="round" stroke-miterlimit="10" d="
				M127.042,80.934l1.788-2.912l2.4,1.474l-0.182,0.298l-2.152-1.32l-1.193,1.945c0.361-0.046,0.69,0.024,0.988,0.207
				c0.532,0.327,0.834,0.742,0.906,1.244c0.07,0.503-0.045,1.002-0.35,1.497c-0.303,0.494-0.724,0.854-1.26,1.074
				c-0.537,0.224-1.034,0.194-1.494-0.088c-0.326-0.2-0.554-0.481-0.682-0.847c-0.131-0.365-0.105-0.707,0.07-1.027l0.271,0.166
				c-0.106,0.217-0.11,0.461-0.012,0.731c0.098,0.271,0.294,0.497,0.588,0.677c0.371,0.229,0.77,0.25,1.193,0.068
				c0.426-0.186,0.766-0.484,1.02-0.898c0.254-0.412,0.354-0.834,0.3-1.26c-0.055-0.426-0.302-0.773-0.741-1.044
				c-0.219-0.134-0.461-0.198-0.729-0.191C127.507,80.736,127.261,80.803,127.042,80.934z"/>
		</g>
	</g>
	<g>
		
			<rect x="146.648" y="34.716" transform="matrix(-0.7545 0.6563 -0.6563 -0.7545 361.8991 -24.6337)" fill="#FFFFFF" stroke="#FFFFFF" stroke-width="0.1704" stroke-miterlimit="10" width="77.817" height="41.301"/>
		<g>
			<defs>
				<polygon id="SVGID_9_" points="147.908,66.291 185.204,33.85 207.614,60.642 170.316,93.084 				"/>
			</defs>
			<clipPath id="SVGID_10_">
				<use xlink:href="#SVGID_9_"  overflow="visible"/>
			</clipPath>
			<g clip-path="url(#SVGID_10_)">
				<path fill="#139383" d="M250.437-15.273l2.062-1.795c-0.194-2.888,1.28-5.608,3.282-7.349c2.003-1.742,4.899-2.825,7.732-2.232
					l2.063-1.794c2.811-2.445,3.106-6.704,0.662-9.515l-4.131-5.78l-25.828,22.466l4.641,5.336
					C243.366-13.127,247.626-12.83,250.437-15.273z"/>
				<path fill="#139383" d="M262.357-43.955l4.132,5.78c2.561,2.943,2.249,7.42-0.695,9.98l-2.062,1.793
					c-0.078,0.067-0.182,0.096-0.283,0.075c-2.507-0.526-5.293,0.282-7.45,2.156c-2.155,1.876-3.342,4.523-3.171,7.08
					c0.009,0.103-0.033,0.203-0.111,0.271l-2.062,1.794c-2.942,2.56-7.42,2.248-9.979-0.696l-4.643-5.336 M262.077-43.275
					l-25.334,22.036l4.427,5.087c2.321,2.669,6.383,2.953,9.052,0.63l1.941-1.689c-0.128-2.708,1.137-5.486,3.403-7.455
					c2.265-1.971,5.189-2.839,7.854-2.337l1.941-1.689c2.671-2.322,2.953-6.382,0.63-9.052L262.077-43.275z"/>
			</g>
			<g clip-path="url(#SVGID_10_)">
				<g>
					<path fill="#139383" d="M273.014-19.731c3.987,4.582,3.837,11.237-0.334,14.867c-4.172,3.627-10.783,2.854-14.77-1.73
						c-3.986-4.581-4.949-12.519-0.779-16.146C261.302-26.369,269.03-24.313,273.014-19.731z"/>
					<path fill="#139383" d="M257.043-22.84c4.311-3.75,12.179-1.453,16.071,3.022c4.027,4.63,3.871,11.383-0.349,15.052
						c-4.22,3.67-10.928,2.89-14.956-1.742C253.918-10.981,252.736-19.092,257.043-22.84z M272.592-4.964
						c4.11-3.575,4.254-10.159,0.322-14.679c-3.812-4.384-11.5-6.648-15.697-2.997c-4.196,3.65-3.019,11.577,0.793,15.96
						C261.942-2.16,268.483-1.39,272.592-4.964z"/>
				</g>
			</g>
		</g>
		<polygon fill="#F6F6F6" stroke="#F6F6F6" stroke-width="0.1704" stroke-linejoin="round" stroke-miterlimit="10" points="
			142.647,65.32 201.362,14.25 228.466,45.414 		"/>
		
			<rect x="151.93" y="43.68" transform="matrix(-0.7545 0.6563 -0.6563 -0.7545 352.8317 -7.9245)" fill="#855156" stroke="#855156" stroke-width="0.1312" stroke-miterlimit="10" width="51.936" height="36.694"/>
		<polygon fill="#673B45" stroke="#673B45" stroke-width="0.1312" stroke-miterlimit="10" points="146.264,65.227 185.451,31.142 
			209.532,58.828 		"/>
		<g>
			
				<path fill="#673B45" stroke="#673B45" stroke-width="0.3374" stroke-linecap="round" stroke-linejoin="round" stroke-miterlimit="10" d="
				M216.325,48.61c-0.683-0.784-1.073-1.502-1.174-2.154c-0.1-0.653,0.104-1.198,0.611-1.64c0.505-0.44,1.09-0.573,1.754-0.4
				c0.666,0.173,1.34,0.655,2.023,1.441c0.684,0.786,1.066,1.514,1.147,2.183c0.081,0.668-0.144,1.232-0.671,1.691
				C218.985,50.627,217.754,50.254,216.325,48.61z M216.69,48.499c0.573,0.658,1.127,1.072,1.661,1.24
				c0.534,0.17,1.015,0.069,1.437-0.298c0.424-0.368,0.602-0.839,0.53-1.412c-0.069-0.575-0.417-1.222-1.047-1.946
				c-0.735-0.846-1.467-1.297-2.194-1.357c-0.404-0.033-0.744,0.069-1.021,0.31c-0.273,0.24-0.445,0.499-0.515,0.774
				c-0.068,0.278-0.056,0.564,0.034,0.86C215.746,47.229,216.117,47.84,216.69,48.499z"/>
			
				<path fill="#673B45" stroke="#673B45" stroke-width="0.3374" stroke-linecap="round" stroke-linejoin="round" stroke-miterlimit="10" d="
				M212.199,52.198c-0.682-0.784-1.072-1.502-1.172-2.156c-0.101-0.652,0.104-1.198,0.608-1.637
				c0.507-0.441,1.092-0.574,1.756-0.401c0.664,0.174,1.339,0.655,2.023,1.441c0.684,0.786,1.066,1.515,1.146,2.181
				c0.082,0.67-0.143,1.232-0.67,1.693C214.86,54.216,213.629,53.843,212.199,52.198z M212.565,52.086
				c0.573,0.657,1.127,1.073,1.661,1.241c0.535,0.17,1.015,0.069,1.437-0.298c0.424-0.369,0.6-0.839,0.531-1.414
				c-0.069-0.575-0.419-1.222-1.047-1.944c-0.737-0.846-1.467-1.299-2.194-1.358c-0.405-0.034-0.745,0.07-1.021,0.311
				c-0.275,0.239-0.446,0.499-0.515,0.773c-0.069,0.277-0.057,0.564,0.034,0.861C211.621,50.819,211.993,51.427,212.565,52.086z"/>
			
				<path fill="#673B45" stroke="#673B45" stroke-width="0.3374" stroke-linecap="round" stroke-linejoin="round" stroke-miterlimit="10" d="
				M222.742,42.92l2.244,2.58l-2.127,1.849l-0.23-0.265l1.905-1.657l-1.496-1.721c-0.068,0.358-0.233,0.653-0.496,0.882
				c-0.472,0.411-0.957,0.574-1.458,0.49c-0.501-0.082-0.942-0.344-1.322-0.781c-0.381-0.438-0.598-0.946-0.65-1.524
				c-0.051-0.579,0.127-1.045,0.533-1.4c0.289-0.251,0.626-0.384,1.013-0.397c0.389-0.013,0.707,0.11,0.96,0.377l-0.24,0.207
				c-0.176-0.166-0.406-0.242-0.694-0.229c-0.288,0.013-0.562,0.13-0.822,0.357c-0.33,0.286-0.469,0.658-0.422,1.119
				c0.05,0.461,0.231,0.874,0.55,1.241c0.319,0.367,0.689,0.588,1.112,0.664c0.424,0.076,0.83-0.054,1.218-0.393
				c0.194-0.17,0.328-0.382,0.401-0.638C222.792,43.424,222.8,43.172,222.742,42.92z"/>
		</g>
		<g>
			
				<path fill="#B28086" stroke="#B28086" stroke-width="0.3374" stroke-linecap="round" stroke-linejoin="round" stroke-miterlimit="10" d="
				M154.366,64.348c-0.682-0.782-1.074-1.501-1.172-2.153c-0.1-0.653,0.104-1.199,0.61-1.64c0.505-0.438,1.09-0.573,1.755-0.4
				c0.665,0.175,1.339,0.654,2.023,1.44c0.683,0.786,1.065,1.514,1.145,2.182c0.082,0.671-0.142,1.233-0.668,1.692
				C157.028,66.366,155.795,65.993,154.366,64.348z M154.733,64.236c0.572,0.66,1.126,1.073,1.661,1.241
				c0.535,0.168,1.013,0.07,1.437-0.299c0.423-0.367,0.602-0.838,0.53-1.414c-0.067-0.573-0.417-1.22-1.047-1.942
				c-0.734-0.846-1.468-1.3-2.195-1.358c-0.403-0.034-0.743,0.071-1.019,0.311c-0.276,0.24-0.447,0.497-0.518,0.774
				c-0.068,0.276-0.056,0.562,0.035,0.861C153.788,62.968,154.159,63.579,154.733,64.236z"/>
			
				<path fill="#B28086" stroke="#B28086" stroke-width="0.3374" stroke-linecap="round" stroke-linejoin="round" stroke-miterlimit="10" d="
				M150.243,67.936c-0.683-0.784-1.074-1.501-1.174-2.154c-0.101-0.651,0.103-1.198,0.609-1.638c0.507-0.44,1.091-0.573,1.756-0.4
				c0.664,0.175,1.338,0.654,2.021,1.441c0.684,0.786,1.067,1.513,1.146,2.181c0.083,0.67-0.141,1.232-0.67,1.693
				C152.903,69.955,151.671,69.579,150.243,67.936z M150.607,67.825c0.571,0.658,1.126,1.073,1.662,1.241
				c0.535,0.169,1.014,0.069,1.437-0.299s0.601-0.838,0.53-1.413c-0.069-0.572-0.417-1.221-1.046-1.946
				c-0.734-0.844-1.468-1.296-2.195-1.356c-0.405-0.032-0.745,0.072-1.02,0.311c-0.275,0.239-0.448,0.497-0.516,0.773
				c-0.07,0.277-0.06,0.563,0.033,0.86C149.663,66.558,150.035,67.166,150.607,67.825z"/>
			
				<path fill="#B28086" stroke="#B28086" stroke-width="0.3374" stroke-linecap="round" stroke-linejoin="round" stroke-miterlimit="10" d="
				M160.785,58.66l2.241,2.579l-2.125,1.848l-0.229-0.263l1.904-1.658l-1.498-1.722c-0.064,0.358-0.229,0.651-0.493,0.881
				c-0.472,0.41-0.958,0.573-1.459,0.492c-0.501-0.083-0.942-0.343-1.323-0.783c-0.381-0.437-0.598-0.946-0.647-1.523
				c-0.052-0.58,0.125-1.045,0.532-1.399c0.289-0.251,0.625-0.384,1.012-0.396c0.388-0.015,0.706,0.112,0.959,0.375l-0.239,0.209
				c-0.175-0.167-0.407-0.244-0.694-0.23c-0.288,0.012-0.562,0.131-0.822,0.358c-0.329,0.286-0.469,0.659-0.423,1.118
				c0.05,0.462,0.232,0.875,0.552,1.242c0.316,0.365,0.689,0.587,1.111,0.664c0.423,0.075,0.829-0.056,1.219-0.394
				c0.193-0.169,0.327-0.38,0.4-0.638C160.833,59.164,160.843,58.909,160.785,58.66z"/>
		</g>
	</g>
	<g>
		
			<rect x="123.557" y="24.805" transform="matrix(-0.6024 0.7982 -0.7982 -0.6024 296.6151 -56.8448)" fill="#FFFFFF" stroke="#FFFFFF" stroke-width="0.1704" stroke-miterlimit="10" width="77.818" height="41.302"/>
		<g>
			<defs>
				<polygon id="SVGID_11_" points="127.893,63.934 157.668,24.477 185.137,46.051 155.361,85.51 				"/>
			</defs>
			<clipPath id="SVGID_12_">
				<use xlink:href="#SVGID_11_"  overflow="visible"/>
			</clipPath>
			<g clip-path="url(#SVGID_12_)">
				<path fill="#139383" d="M211.324-37.083l1.646-2.183c-0.788-2.785,0.092-5.751,1.69-7.869c1.599-2.119,4.209-3.778,7.103-3.784
					l1.647-2.182c2.244-2.973,1.652-7.202-1.32-9.445l-5.238-4.8l-20.62,27.324l5.645,4.26
					C204.849-33.519,209.08-34.11,211.324-37.083z"/>
				<path fill="#139383" d="M217.05-67.609l5.238,4.8c3.114,2.349,3.736,6.794,1.385,9.908l-1.646,2.182
					c-0.062,0.082-0.157,0.131-0.262,0.131c-2.562,0.004-5.12,1.371-6.843,3.651c-1.72,2.282-2.333,5.117-1.637,7.583
					c0.029,0.099,0.01,0.206-0.053,0.288l-1.646,2.183c-2.35,3.113-6.795,3.735-9.907,1.384l-5.646-4.26 M216.917-66.886
					l-20.226,26.801l5.384,4.061c2.823,2.131,6.855,1.568,8.986-1.256l1.55-2.054c-0.686-2.623-0.022-5.603,1.787-7.998
					c1.808-2.396,4.489-3.852,7.201-3.912l1.55-2.054c2.133-2.824,1.568-6.855-1.257-8.986L216.917-66.886z"/>
			</g>
			<g clip-path="url(#SVGID_12_)">
				<g>
					<path fill="#139383" d="M232.49-46.116c4.849,3.658,6.079,10.2,2.75,14.614c-3.331,4.412-9.96,5.023-14.809,1.363
						c-4.848-3.657-7.433-11.223-4.104-15.635C219.658-50.187,227.643-49.774,232.49-46.116z"/>
					<path fill="#139383" d="M216.221-45.852c3.441-4.561,11.614-3.941,16.349-0.369c4.898,3.697,6.144,10.335,2.774,14.798
						c-3.369,4.464-10.094,5.089-14.993,1.391C215.618-33.604,212.783-41.294,216.221-45.852z M235.132-31.581
						c3.282-4.348,2.06-10.819-2.722-14.428c-4.638-3.5-12.627-4.125-15.979,0.316c-3.35,4.439-0.557,11.951,4.079,15.451
						C225.293-26.634,231.852-27.234,235.132-31.581z"/>
				</g>
			</g>
		</g>
		<polygon fill="#F6F6F6" stroke="#F6F6F6" stroke-width="0.1704" stroke-linejoin="round" stroke-miterlimit="10" points="
			122.544,64.073 169.42,1.958 202.387,26.838 		"/>
		
			<rect x="130.384" y="35.21" transform="matrix(-0.6024 0.7982 -0.7982 -0.6024 293.2816 -38.9869)" fill="#855156" stroke="#855156" stroke-width="0.1312" stroke-miterlimit="10" width="51.936" height="36.694"/>
		<polygon fill="#673B45" stroke="#673B45" stroke-width="0.1312" stroke-miterlimit="10" points="126.065,63.233 157.349,21.776 
			186.638,43.88 		"/>
		<g>
			
				<path fill="#673B45" stroke="#673B45" stroke-width="0.3374" stroke-linecap="round" stroke-linejoin="round" stroke-miterlimit="10" d="
				M191.169,32.478c-0.83-0.625-1.36-1.248-1.594-1.864c-0.232-0.618-0.146-1.194,0.259-1.731c0.402-0.535,0.947-0.786,1.633-0.754
				c0.688,0.031,1.446,0.363,2.278,0.991c0.831,0.627,1.356,1.261,1.574,1.898c0.218,0.637,0.114,1.235-0.307,1.793
				C194.19,33.901,192.909,33.79,191.169,32.478z M191.504,32.293c0.696,0.525,1.324,0.815,1.881,0.869
				c0.559,0.056,1.008-0.143,1.344-0.589c0.339-0.447,0.416-0.945,0.227-1.491c-0.187-0.548-0.66-1.109-1.427-1.688
				c-0.895-0.676-1.703-0.966-2.428-0.874c-0.402,0.051-0.713,0.222-0.934,0.514c-0.218,0.291-0.333,0.581-0.344,0.864
				c-0.01,0.286,0.062,0.563,0.212,0.834C190.317,31.246,190.807,31.768,191.504,32.293z"/>
			
				<path fill="#673B45" stroke="#673B45" stroke-width="0.3374" stroke-linecap="round" stroke-linejoin="round" stroke-miterlimit="10" d="
				M187.875,36.842c-0.829-0.625-1.359-1.248-1.593-1.867c-0.233-0.617-0.146-1.193,0.257-1.727
				c0.404-0.536,0.949-0.788,1.635-0.756c0.686,0.033,1.445,0.364,2.278,0.991c0.831,0.628,1.356,1.261,1.572,1.896
				c0.22,0.638,0.116,1.235-0.305,1.795C190.897,38.265,189.616,38.155,187.875,36.842z M188.21,36.656
				c0.697,0.524,1.325,0.816,1.882,0.87c0.56,0.056,1.008-0.142,1.344-0.589c0.339-0.448,0.413-0.945,0.228-1.493
				c-0.187-0.548-0.663-1.109-1.427-1.686c-0.896-0.675-1.704-0.968-2.428-0.875c-0.403,0.05-0.715,0.223-0.936,0.515
				c-0.22,0.291-0.333,0.58-0.343,0.863c-0.011,0.286,0.062,0.563,0.212,0.835C187.025,35.612,187.514,36.13,188.21,36.656z"/>
			
				<path fill="#673B45" stroke="#673B45" stroke-width="0.3374" stroke-linecap="round" stroke-linejoin="round" stroke-miterlimit="10" d="
				M196.27,25.583l2.729,2.06l-1.698,2.249l-0.28-0.211l1.521-2.016l-1.82-1.375c0.008,0.365-0.093,0.688-0.303,0.965
				c-0.376,0.5-0.817,0.759-1.325,0.781c-0.507,0.023-0.993-0.141-1.455-0.491c-0.463-0.35-0.78-0.802-0.951-1.356
				c-0.17-0.556-0.093-1.049,0.231-1.48c0.231-0.306,0.533-0.505,0.909-0.598c0.377-0.093,0.714-0.038,1.017,0.17l-0.192,0.252
				c-0.206-0.126-0.447-0.153-0.727-0.08c-0.279,0.072-0.521,0.244-0.73,0.52c-0.264,0.348-0.322,0.741-0.181,1.182
				c0.144,0.441,0.407,0.807,0.794,1.1c0.389,0.293,0.797,0.433,1.226,0.419c0.431-0.013,0.802-0.225,1.11-0.636
				c0.155-0.207,0.242-0.442,0.261-0.707C196.424,26.065,196.379,25.817,196.27,25.583z"/>
		</g>
		<g>
			
				<path fill="#B28086" stroke="#B28086" stroke-width="0.3374" stroke-linecap="round" stroke-linejoin="round" stroke-miterlimit="10" d="
				M133.809,60.696c-0.829-0.624-1.362-1.247-1.593-1.864c-0.232-0.618-0.146-1.194,0.259-1.73c0.402-0.533,0.947-0.786,1.634-0.755
				c0.687,0.033,1.445,0.363,2.277,0.991c0.831,0.628,1.355,1.261,1.571,1.898c0.219,0.639,0.117,1.235-0.304,1.793
				C136.831,62.12,135.548,62.01,133.809,60.696z M134.145,60.511c0.696,0.528,1.323,0.817,1.882,0.871
				c0.559,0.054,1.005-0.141,1.344-0.589c0.338-0.447,0.415-0.945,0.226-1.493c-0.184-0.546-0.66-1.108-1.426-1.684
				c-0.894-0.675-1.705-0.968-2.429-0.875c-0.401,0.051-0.712,0.223-0.933,0.515c-0.221,0.292-0.334,0.579-0.346,0.864
				c-0.01,0.285,0.062,0.562,0.213,0.835C132.958,59.466,133.447,59.987,134.145,60.511z"/>
			
				<path fill="#B28086" stroke="#B28086" stroke-width="0.3374" stroke-linecap="round" stroke-linejoin="round" stroke-miterlimit="10" d="
				M130.517,65.06c-0.829-0.626-1.361-1.246-1.594-1.865c-0.233-0.616-0.147-1.193,0.257-1.729c0.405-0.536,0.949-0.787,1.636-0.755
				c0.686,0.034,1.444,0.363,2.275,0.992c0.831,0.627,1.357,1.259,1.573,1.896c0.22,0.638,0.117,1.235-0.305,1.795
				C133.538,66.484,132.255,66.372,130.517,65.06z M130.851,64.876c0.695,0.525,1.323,0.817,1.883,0.87
				c0.559,0.055,1.006-0.142,1.344-0.589c0.337-0.447,0.414-0.944,0.226-1.492c-0.186-0.545-0.66-1.108-1.426-1.688
				c-0.893-0.674-1.704-0.964-2.428-0.873c-0.403,0.052-0.715,0.224-0.934,0.515c-0.22,0.291-0.336,0.579-0.344,0.863
				c-0.012,0.286,0.058,0.563,0.21,0.835C129.665,63.832,130.155,64.35,130.851,64.876z"/>
			
				<path fill="#B28086" stroke="#B28086" stroke-width="0.3374" stroke-linecap="round" stroke-linejoin="round" stroke-miterlimit="10" d="
				M138.912,53.803l2.727,2.06l-1.696,2.248l-0.279-0.209l1.52-2.016l-1.821-1.375c0.011,0.364-0.09,0.685-0.3,0.964
				c-0.377,0.498-0.819,0.759-1.326,0.783c-0.508,0.022-0.993-0.141-1.457-0.492c-0.463-0.348-0.78-0.802-0.948-1.356
				c-0.171-0.557-0.094-1.048,0.231-1.479c0.23-0.305,0.532-0.505,0.907-0.597c0.376-0.095,0.714-0.037,1.017,0.168l-0.191,0.254
				c-0.205-0.127-0.448-0.154-0.727-0.082c-0.279,0.071-0.523,0.245-0.73,0.521c-0.263,0.348-0.322,0.742-0.183,1.182
				c0.145,0.441,0.409,0.808,0.797,1.101c0.385,0.292,0.796,0.432,1.225,0.419c0.43-0.014,0.8-0.226,1.11-0.638
				c0.154-0.205,0.242-0.439,0.26-0.707C139.064,54.286,139.02,54.035,138.912,53.803z"/>
		</g>
	</g>
	
		<path fill="#CA9E67" stroke="#CA9E67" stroke-width="1.1784" stroke-linecap="round" stroke-linejoin="round" stroke-miterlimit="10" d="
		M176.696,131.015L210.03,79.74l-15.044-9.944l-15.188,10.088h0.001h-0.004h0.003l-15.046-9.943l-15.188,10.087l0,0l0,0l0,0
		l-15.045-9.943l-15.191,10.087l0,0l-15.044-9.943L89.093,80.317l29.971,51.723C51.576,155.637,0.861,250.333,0.861,316.752
		c0,76.063,66.515,121.149,148.565,121.149s148.565-45.086,148.565-121.149C297.992,249.322,245.722,152.67,176.696,131.015z"/>
	
		<path fill="#C0925E" stroke="#C0925E" stroke-width="1.7221" stroke-linecap="round" stroke-linejoin="round" stroke-miterlimit="10" d="
		M149.426,437.901c-82.051,0-148.565-45.086-148.565-121.149c0-66.419,50.715-161.115,118.203-184.711L89.093,80.317l15.189-10.087
		l15.044,9.943l0,0l15.191-10.087l15.045,9.943l0,0l0,0l0,0L149.426,437.901z"/>
	
		<path fill="#CA9E67" stroke="#CA9E67" stroke-width="0.924" stroke-linecap="round" stroke-linejoin="round" stroke-miterlimit="10" d="
		M173.242,157.157"/>
	
		<line fill="#CA9E67" stroke="#CA9E67" stroke-width="0.924" stroke-linecap="round" stroke-linejoin="round" stroke-miterlimit="10" x1="173.242" y1="157.157" x2="173.243" y2="157.157"/>
	<polygon fill="#FFFFFF" points="188.003,134.498 110.426,134.498 117.652,131.523 114.25,125.79 181.288,125.79 177.664,130.618 	
		"/>
	<g>
		<path fill="none" stroke="#FFFFFF" stroke-width="10.2019" stroke-linecap="round" stroke-miterlimit="10" d="M158.119,134.498
			c0,0-2.55,49.629,21.68,63.019"/>
		<path fill="none" stroke="#FFFFFF" stroke-width="10.2019" stroke-linecap="round" stroke-miterlimit="10" d="M144.771,132.451
			c0,0-7.756,14.175-1.298,32.304c6.46,18.13-9.031,26.9-19.616,29.826"/>
	</g>
	<g>
		
			<rect x="28.172" y="390.676" transform="matrix(0.9668 -0.2556 0.2556 0.9668 -102.9097 30.8103)" fill="#FFFFFF" stroke="#FFFFFF" stroke-width="0.1704" stroke-miterlimit="10" width="77.817" height="41.304"/>
		<g>
			<defs>
				<polygon id="SVGID_13_" points="105.684,418.153 57.896,430.79 49.622,396.854 97.412,384.218 				"/>
			</defs>
			<clipPath id="SVGID_14_">
				<use xlink:href="#SVGID_13_"  overflow="visible"/>
			</clipPath>
			<g clip-path="url(#SVGID_14_)">
				<path fill="#139383" d="M-22.325,446.058l-2.644,0.699c-1.101,2.678-3.626,4.465-6.19,5.145
					c-2.566,0.678-5.645,0.371-7.924-1.414l-2.643,0.699c-3.602,0.953-5.749,4.643-4.797,8.244l1.154,7.01l33.095-8.748
					l-1.808-6.838C-15.033,447.253-18.725,445.104-22.325,446.058z"/>
				<path fill="#139383" d="M-45.686,466.526l-1.154-7.012c-0.997-3.77,1.259-7.648,5.031-8.646l2.642-0.699
					c0.1-0.025,0.207-0.004,0.287,0.061c2.019,1.578,4.874,2.084,7.638,1.354c2.763-0.732,4.995-2.582,5.97-4.951
					c0.039-0.096,0.121-0.168,0.22-0.193l2.645-0.699c3.77-0.998,7.648,1.26,8.646,5.029l1.808,6.84 M-45.133,466.04l32.459-8.582
					l-1.724-6.52c-0.904-3.422-4.423-5.469-7.843-4.564l-2.488,0.658c-1.081,2.486-3.441,4.42-6.347,5.188
					c-2.9,0.768-5.908,0.254-8.079-1.373l-2.486,0.658c-3.422,0.904-5.468,4.422-4.562,7.842L-45.133,466.04z"/>
			</g>
			<g clip-path="url(#SVGID_14_)">
				<g>
					<path fill="#139383" d="M-44.551,440.087c-1.552-5.873,1.522-11.777,6.867-13.191c5.344-1.412,10.934,2.201,12.486,8.072
						c1.553,5.873-1.087,13.42-6.431,14.832C-36.974,451.214-42.999,445.956-44.551,440.087z"/>
					<path fill="#139383" d="M-31.595,449.929c-5.521,1.459-11.567-4.074-13.083-9.809c-1.569-5.934,1.553-11.922,6.961-13.352
						c5.405-1.43,11.079,2.232,12.647,8.166C-23.553,440.669-26.073,448.468-31.595,449.929z M-37.65,427.024
						c-5.267,1.391-8.304,7.236-6.772,13.027c1.485,5.615,7.383,11.043,12.761,9.621c5.377-1.422,7.821-9.055,6.336-14.67
						C-26.857,429.21-32.385,425.632-37.65,427.024z"/>
				</g>
			</g>
		</g>
		<polygon fill="#F6F6F6" stroke="#F6F6F6" stroke-width="0.1704" stroke-linejoin="round" stroke-miterlimit="10" points="
			109.976,421.349 34.744,441.239 24.186,401.308 		"/>
		
			<rect x="50.925" y="390.388" transform="matrix(0.9668 -0.2556 0.2556 0.9668 -101.9337 33.2386)" fill="#855156" stroke="#855156" stroke-width="0.1312" stroke-miterlimit="10" width="51.938" height="36.694"/>
		<polygon fill="#673B45" stroke="#673B45" stroke-width="0.1312" stroke-miterlimit="10" points="106.69,419.833 56.478,433.11 
			47.098,397.636 		"/>
		<g>
			
				<path fill="#673B45" stroke="#673B45" stroke-width="0.3374" stroke-linecap="round" stroke-linejoin="round" stroke-miterlimit="10" d="
				M36.492,403.804c0.267,1.004,0.3,1.82,0.102,2.449c-0.198,0.631-0.623,1.029-1.271,1.201s-1.23,0.033-1.75-0.416
				c-0.521-0.449-0.913-1.178-1.18-2.186c-0.266-1.006-0.289-1.83-0.065-2.465c0.223-0.635,0.673-1.041,1.349-1.221
				C34.996,400.817,35.935,401.696,36.492,403.804z M36.116,403.741c-0.224-0.844-0.538-1.457-0.944-1.846
				c-0.404-0.389-0.879-0.51-1.421-0.367s-0.909,0.486-1.099,1.033c-0.191,0.545-0.165,1.281,0.079,2.207
				c0.286,1.084,0.743,1.812,1.37,2.188c0.349,0.209,0.698,0.266,1.053,0.174c0.352-0.096,0.621-0.252,0.805-0.469
				c0.184-0.219,0.299-0.48,0.349-0.787C36.402,405.298,36.338,404.585,36.116,403.741z"/>
			
				<path fill="#673B45" stroke="#673B45" stroke-width="0.3374" stroke-linecap="round" stroke-linejoin="round" stroke-miterlimit="10" d="
				M41.779,402.405c0.265,1.004,0.299,1.822,0.1,2.451c-0.198,0.629-0.622,1.029-1.27,1.201c-0.648,0.172-1.233,0.031-1.753-0.416
				c-0.519-0.449-0.912-1.178-1.179-2.186c-0.266-1.008-0.288-1.83-0.065-2.465c0.224-0.637,0.672-1.043,1.349-1.221
				C40.281,399.421,41.221,400.298,41.779,402.405z M41.4,402.345c-0.223-0.844-0.536-1.459-0.942-1.848
				c-0.405-0.389-0.879-0.51-1.421-0.367c-0.542,0.145-0.908,0.488-1.1,1.033c-0.191,0.547-0.164,1.283,0.081,2.209
				c0.286,1.082,0.741,1.811,1.368,2.186c0.35,0.209,0.7,0.268,1.053,0.174c0.354-0.094,0.621-0.25,0.805-0.467
				c0.184-0.219,0.3-0.48,0.351-0.787C41.688,403.899,41.623,403.188,41.4,402.345z"/>
			
				<path fill="#673B45" stroke="#673B45" stroke-width="0.3374" stroke-linecap="round" stroke-linejoin="round" stroke-miterlimit="10" d="
				M28.221,406.073l-0.873-3.305l2.725-0.719l0.09,0.338l-2.442,0.646l0.583,2.205c0.22-0.293,0.498-0.484,0.834-0.572
				c0.605-0.16,1.113-0.092,1.525,0.203c0.413,0.295,0.693,0.725,0.842,1.285s0.118,1.113-0.091,1.654
				c-0.21,0.541-0.574,0.883-1.096,1.02c-0.37,0.1-0.731,0.068-1.085-0.09s-0.584-0.41-0.693-0.762l0.308-0.08
				c0.082,0.227,0.257,0.396,0.521,0.512c0.264,0.115,0.562,0.131,0.896,0.043c0.422-0.111,0.712-0.385,0.872-0.818
				c0.159-0.434,0.179-0.887,0.055-1.355c-0.124-0.471-0.359-0.832-0.705-1.088c-0.347-0.254-0.769-0.316-1.267-0.184
				c-0.249,0.066-0.463,0.197-0.642,0.395S28.282,405.823,28.221,406.073z"/>
		</g>
		<g>
			
				<path fill="#B28086" stroke="#B28086" stroke-width="0.3374" stroke-linecap="round" stroke-linejoin="round" stroke-miterlimit="10" d="
				M99.032,417.044c0.266,1.004,0.3,1.82,0.102,2.449c-0.199,0.629-0.622,1.031-1.271,1.203c-0.648,0.172-1.232,0.033-1.752-0.418
				c-0.521-0.449-0.913-1.178-1.179-2.186c-0.267-1.006-0.288-1.83-0.064-2.465c0.223-0.635,0.672-1.043,1.347-1.221
				C97.536,414.058,98.475,414.937,99.032,417.044z M98.654,416.981c-0.223-0.842-0.537-1.459-0.942-1.846
				c-0.406-0.389-0.879-0.51-1.421-0.367c-0.543,0.143-0.909,0.486-1.101,1.033c-0.192,0.545-0.165,1.279,0.08,2.207
				c0.286,1.082,0.744,1.812,1.371,2.188c0.347,0.209,0.698,0.266,1.052,0.172c0.353-0.094,0.62-0.25,0.805-0.467
				c0.184-0.217,0.3-0.48,0.349-0.787C98.941,418.536,98.877,417.827,98.654,416.981z"/>
			
				<path fill="#B28086" stroke="#B28086" stroke-width="0.3374" stroke-linecap="round" stroke-linejoin="round" stroke-miterlimit="10" d="
				M104.316,415.646c0.267,1.004,0.301,1.822,0.103,2.451c-0.199,0.629-0.621,1.029-1.271,1.201s-1.232,0.031-1.753-0.416
				c-0.518-0.451-0.911-1.18-1.177-2.188c-0.267-1.006-0.29-1.828-0.066-2.463c0.223-0.637,0.672-1.043,1.35-1.223
				C102.821,412.661,103.759,413.54,104.316,415.646z M103.94,415.585c-0.223-0.844-0.537-1.461-0.943-1.848
				c-0.405-0.389-0.879-0.51-1.421-0.365c-0.542,0.143-0.908,0.486-1.1,1.031s-0.165,1.283,0.08,2.209
				c0.286,1.082,0.743,1.811,1.37,2.186c0.349,0.209,0.7,0.266,1.052,0.172c0.353-0.092,0.621-0.248,0.806-0.465
				c0.183-0.219,0.3-0.48,0.348-0.787C104.228,417.138,104.163,416.429,103.94,415.585z"/>
			
				<path fill="#B28086" stroke="#B28086" stroke-width="0.3374" stroke-linecap="round" stroke-linejoin="round" stroke-miterlimit="10" d="
				M90.761,419.313l-0.873-3.305l2.725-0.719l0.089,0.336l-2.442,0.646l0.585,2.207c0.216-0.293,0.495-0.482,0.833-0.572
				c0.604-0.16,1.111-0.092,1.525,0.203c0.412,0.295,0.693,0.725,0.842,1.285s0.117,1.115-0.092,1.656s-0.574,0.881-1.095,1.02
				c-0.371,0.098-0.732,0.066-1.085-0.09c-0.354-0.16-0.585-0.414-0.695-0.762l0.309-0.082c0.083,0.227,0.258,0.398,0.521,0.514
				c0.265,0.117,0.562,0.131,0.896,0.043c0.421-0.111,0.711-0.385,0.872-0.818c0.16-0.436,0.18-0.889,0.055-1.357
				c-0.123-0.471-0.359-0.832-0.705-1.088c-0.346-0.254-0.768-0.316-1.266-0.184c-0.249,0.066-0.463,0.195-0.643,0.395
				C90.939,418.839,90.819,419.063,90.761,419.313z"/>
		</g>
	</g>
	<g>
		
			<rect x="100.068" y="399.774" transform="matrix(0.9649 0.2628 -0.2628 0.9649 115.3543 -21.7442)" fill="#FFFFFF" stroke="#FFFFFF" stroke-width="0.1704" stroke-miterlimit="10" width="77.817" height="41.303"/>
		<g>
			<defs>
				<polygon id="SVGID_15_" points="168.976,445.661 121.282,432.675 131.109,399.156 178.805,412.144 				"/>
			</defs>
			<clipPath id="SVGID_16_">
				<use xlink:href="#SVGID_15_"  overflow="visible"/>
			</clipPath>
			<g clip-path="url(#SVGID_16_)">
				<path fill="#139383" d="M44.196,405.728l-2.639-0.718c-2.293,1.767-5.374,2.05-7.935,1.354
					c-2.561-0.699-5.072-2.506-6.151-5.191l-2.638-0.718c-3.595-0.979-7.301,1.14-8.279,4.735l-2.511,6.646l33.028,8.996
					l1.858-6.824C49.91,410.413,47.789,406.705,44.196,405.728z"/>
				<path fill="#139383" d="M13.725,411.751l2.511-6.648c1.024-3.762,4.919-5.99,8.685-4.965l2.637,0.717
					c0.099,0.027,0.182,0.1,0.219,0.196c0.957,2.376,3.176,4.244,5.934,4.995c2.758,0.75,5.616,0.266,7.646-1.297
					c0.082-0.063,0.188-0.085,0.287-0.058l2.639,0.719c3.764,1.023,5.99,4.92,4.967,8.683l-1.86,6.825 M14.447,411.606l32.395,8.822
					l1.772-6.507c0.931-3.415-1.091-6.948-4.504-7.878l-2.483-0.676c-2.181,1.611-5.192,2.104-8.091,1.312
					c-2.896-0.787-5.242-2.738-6.307-5.232l-2.482-0.676c-3.414-0.93-6.946,1.09-7.875,4.504L14.447,411.606z"/>
			</g>
			<g clip-path="url(#SVGID_16_)">
				<g>
					<path fill="#139383" d="M27.945,389.432c1.597-5.86,7.214-9.433,12.549-7.981c5.332,1.453,8.362,7.38,6.767,13.239
						c-1.596,5.861-7.659,11.073-12.992,9.62C28.933,402.857,26.35,395.29,27.945,389.432z"/>
					<path fill="#139383" d="M34.232,404.438c-5.51-1.501-7.973-9.317-6.414-15.04c1.612-5.923,7.312-9.543,12.71-8.073
						c5.396,1.468,8.474,7.479,6.86,13.401C45.83,400.448,39.745,405.938,34.232,404.438z M40.458,381.579
						c-5.256-1.433-10.812,2.107-12.385,7.887c-1.525,5.604,0.862,13.256,6.229,14.717c5.366,1.461,11.304-3.922,12.829-9.526
						C48.708,388.874,45.712,383.01,40.458,381.579z"/>
				</g>
			</g>
		</g>
		<polygon fill="#F6F6F6" stroke="#F6F6F6" stroke-width="0.1704" stroke-linejoin="round" stroke-miterlimit="10" points="
			171.092,450.575 96.009,430.128 106.861,390.276 		"/>
		
			<rect x="122.801" y="404.748" transform="matrix(0.9649 0.2627 -0.2627 0.9649 116.387 -24.2227)" fill="#855156" stroke="#855156" stroke-width="0.1312" stroke-miterlimit="10" width="51.937" height="36.693"/>
		<polygon fill="#673B45" stroke="#673B45" stroke-width="0.1312" stroke-miterlimit="10" points="169.005,447.619 118.893,433.974 
			128.534,398.569 		"/>
		<g>
			
				<path fill="#673B45" stroke="#673B45" stroke-width="0.3374" stroke-linecap="round" stroke-linejoin="round" stroke-miterlimit="10" d="
				M116.264,398.599c-0.272,1.002-0.652,1.726-1.139,2.171c-0.487,0.446-1.055,0.579-1.702,0.403s-1.081-0.588-1.307-1.236
				c-0.226-0.649-0.2-1.477,0.073-2.482c0.274-1.005,0.666-1.729,1.178-2.166c0.511-0.439,1.104-0.566,1.778-0.382
				C116.463,395.265,116.837,396.495,116.264,398.599z M115.969,398.356c0.229-0.843,0.264-1.531,0.107-2.07
				s-0.506-0.883-1.047-1.029c-0.54-0.148-1.03-0.035-1.468,0.344c-0.438,0.376-0.784,1.027-1.037,1.95
				c-0.295,1.081-0.264,1.941,0.091,2.579c0.197,0.355,0.472,0.58,0.824,0.678c0.353,0.094,0.664,0.094,0.932-0.002
				c0.269-0.098,0.499-0.268,0.696-0.508C115.438,399.847,115.74,399.198,115.969,398.356z"/>
			
				<path fill="#673B45" stroke="#673B45" stroke-width="0.3374" stroke-linecap="round" stroke-linejoin="round" stroke-miterlimit="10" d="
				M121.541,400.035c-0.273,1.001-0.653,1.728-1.141,2.171c-0.486,0.445-1.054,0.58-1.7,0.404c-0.647-0.176-1.084-0.59-1.309-1.238
				c-0.225-0.647-0.201-1.475,0.073-2.482c0.274-1.004,0.667-1.728,1.177-2.165c0.513-0.438,1.104-0.566,1.779-0.382
				C121.738,396.702,122.113,397.932,121.541,400.035z M121.243,399.793c0.23-0.842,0.268-1.532,0.109-2.071
				c-0.156-0.539-0.506-0.881-1.046-1.029c-0.541-0.146-1.03-0.032-1.47,0.344c-0.439,0.378-0.783,1.027-1.035,1.952
				c-0.294,1.081-0.265,1.938,0.09,2.577c0.198,0.356,0.473,0.582,0.825,0.678s0.663,0.094,0.931-0.002
				c0.268-0.098,0.5-0.266,0.696-0.505C120.714,401.282,121.013,400.635,121.243,399.793z"/>
			
				<path fill="#673B45" stroke="#673B45" stroke-width="0.3374" stroke-linecap="round" stroke-linejoin="round" stroke-miterlimit="10" d="
				M107.968,396.423l0.898-3.299l2.72,0.742l-0.093,0.338l-2.438-0.663l-0.599,2.2c0.336-0.143,0.673-0.17,1.008-0.078
				c0.604,0.165,1.01,0.478,1.219,0.939c0.21,0.463,0.237,0.975,0.085,1.535c-0.151,0.559-0.455,1.022-0.906,1.387
				c-0.453,0.363-0.939,0.477-1.459,0.334c-0.37-0.1-0.668-0.308-0.895-0.621c-0.227-0.315-0.3-0.648-0.219-1.007l0.307,0.085
				c-0.042,0.236,0.023,0.471,0.194,0.703s0.421,0.395,0.754,0.486c0.421,0.115,0.81,0.023,1.165-0.271
				c0.355-0.297,0.599-0.679,0.726-1.146c0.129-0.47,0.105-0.9-0.065-1.295c-0.173-0.395-0.507-0.658-1.005-0.793
				c-0.248-0.067-0.499-0.061-0.752,0.021C108.36,396.101,108.146,396.236,107.968,396.423z"/>
		</g>
		<g>
			
				<path fill="#B28086" stroke="#B28086" stroke-width="0.3374" stroke-linecap="round" stroke-linejoin="round" stroke-miterlimit="10" d="
				M163.773,441.37c-0.272,1.003-0.652,1.727-1.139,2.172c-0.487,0.444-1.054,0.58-1.702,0.404
				c-0.647-0.176-1.084-0.589-1.309-1.238c-0.225-0.65-0.2-1.477,0.074-2.482c0.273-1.004,0.667-1.729,1.179-2.166
				c0.511-0.438,1.104-0.566,1.776-0.383C163.973,438.036,164.346,439.269,163.773,441.37z M163.477,441.128
				c0.229-0.842,0.266-1.532,0.108-2.07c-0.157-0.539-0.505-0.882-1.047-1.029c-0.541-0.148-1.03-0.033-1.47,0.344
				c-0.439,0.375-0.783,1.025-1.035,1.951c-0.295,1.08-0.264,1.941,0.092,2.58c0.195,0.354,0.472,0.578,0.824,0.674
				c0.352,0.096,0.662,0.096,0.93,0c0.269-0.097,0.5-0.266,0.696-0.507C162.947,442.617,163.248,441.971,163.477,441.128z"/>
			
				<path fill="#B28086" stroke="#B28086" stroke-width="0.3374" stroke-linecap="round" stroke-linejoin="round" stroke-miterlimit="10" d="
				M169.047,442.806c-0.272,1.002-0.651,1.728-1.139,2.174c-0.486,0.443-1.053,0.58-1.701,0.402
				c-0.647-0.176-1.082-0.589-1.309-1.238c-0.223-0.648-0.199-1.477,0.076-2.481c0.272-1.004,0.664-1.728,1.176-2.165
				c0.511-0.439,1.104-0.566,1.78-0.383C169.248,439.474,169.62,440.704,169.047,442.806z M168.751,442.565
				c0.23-0.842,0.267-1.533,0.108-2.072c-0.156-0.539-0.505-0.881-1.046-1.028s-1.03-0.034-1.469,0.343s-0.785,1.027-1.036,1.952
				c-0.295,1.081-0.264,1.94,0.091,2.579c0.197,0.355,0.474,0.58,0.825,0.674c0.352,0.098,0.661,0.098,0.93,0.002
				c0.268-0.099,0.5-0.267,0.695-0.508C168.224,444.054,168.523,443.406,168.751,442.565z"/>
			
				<path fill="#B28086" stroke="#B28086" stroke-width="0.3374" stroke-linecap="round" stroke-linejoin="round" stroke-miterlimit="10" d="
				M155.477,439.194l0.898-3.297l2.719,0.74l-0.092,0.336l-2.438-0.662l-0.599,2.203c0.334-0.146,0.671-0.171,1.008-0.078
				c0.603,0.163,1.009,0.476,1.22,0.938c0.208,0.462,0.237,0.974,0.084,1.534c-0.152,0.561-0.456,1.023-0.908,1.387
				c-0.451,0.364-0.938,0.476-1.458,0.335c-0.37-0.101-0.667-0.31-0.894-0.621c-0.227-0.315-0.3-0.651-0.221-1.007l0.308,0.083
				c-0.041,0.237,0.024,0.474,0.194,0.706c0.171,0.234,0.422,0.395,0.754,0.485c0.42,0.114,0.809,0.022,1.164-0.272
				c0.357-0.297,0.601-0.678,0.728-1.146c0.129-0.469,0.104-0.9-0.066-1.295c-0.171-0.394-0.506-0.658-1.003-0.792
				c-0.249-0.067-0.499-0.063-0.754,0.02C155.869,438.873,155.652,439.007,155.477,439.194z"/>
		</g>
	</g>
	<g>
		
			<rect x="202.145" y="386.403" transform="matrix(0.9649 0.2628 -0.2628 0.9649 115.4278 -49.0358)" fill="#FFFFFF" stroke="#FFFFFF" stroke-width="0.1704" stroke-miterlimit="10" width="77.817" height="41.303"/>
		<g>
			<defs>
				<polygon id="SVGID_17_" points="271.053,432.29 223.359,419.304 233.186,385.785 280.882,398.772 				"/>
			</defs>
			<clipPath id="SVGID_18_">
				<use xlink:href="#SVGID_17_"  overflow="visible"/>
			</clipPath>
			<g clip-path="url(#SVGID_18_)">
				<path fill="#139383" d="M146.273,392.356l-2.639-0.718c-2.293,1.767-5.374,2.05-7.935,1.354
					c-2.561-0.699-5.072-2.506-6.151-5.191l-2.638-0.718c-3.595-0.979-7.301,1.14-8.279,4.735l-2.511,6.646l33.028,8.996
					l1.858-6.824C151.987,397.042,149.866,393.334,146.273,392.356z"/>
				<path fill="#139383" d="M115.802,398.38l2.511-6.648c1.024-3.762,4.919-5.99,8.685-4.965l2.637,0.717
					c0.099,0.027,0.182,0.1,0.219,0.196c0.957,2.376,3.176,4.244,5.934,4.995c2.758,0.75,5.616,0.266,7.646-1.297
					c0.082-0.063,0.188-0.085,0.287-0.058l2.639,0.719c3.764,1.023,5.99,4.92,4.967,8.683l-1.86,6.825 M116.524,398.235
					l32.395,8.822l1.772-6.507c0.931-3.415-1.091-6.948-4.504-7.878l-2.483-0.676c-2.181,1.611-5.192,2.104-8.091,1.312
					c-2.896-0.787-5.242-2.738-6.307-5.232l-2.482-0.676c-3.414-0.93-6.946,1.09-7.875,4.504L116.524,398.235z"/>
			</g>
			<g clip-path="url(#SVGID_18_)">
				<g>
					<path fill="#139383" d="M130.022,376.061c1.597-5.86,7.214-9.433,12.549-7.981c5.332,1.453,8.362,7.38,6.767,13.239
						c-1.596,5.861-7.659,11.073-12.992,9.62C131.01,389.486,128.427,381.919,130.022,376.061z"/>
					<path fill="#139383" d="M136.309,391.066c-5.51-1.501-7.973-9.317-6.414-15.04c1.612-5.923,7.312-9.543,12.71-8.073
						c5.396,1.468,8.474,7.479,6.86,13.401C147.907,387.077,141.822,392.567,136.309,391.066z M142.536,368.208
						c-5.256-1.433-10.812,2.107-12.385,7.887c-1.525,5.604,0.862,13.256,6.229,14.717c5.366,1.461,11.304-3.922,12.829-9.526
						C150.785,375.503,147.79,369.639,142.536,368.208z"/>
				</g>
			</g>
		</g>
		<polygon fill="#F6F6F6" stroke="#F6F6F6" stroke-width="0.1704" stroke-linejoin="round" stroke-miterlimit="10" points="
			273.169,437.204 198.086,416.757 208.938,376.905 		"/>
		
			<rect x="224.878" y="391.376" transform="matrix(0.9649 0.2627 -0.2627 0.9649 116.4601 -51.5114)" fill="#855156" stroke="#855156" stroke-width="0.1312" stroke-miterlimit="10" width="51.937" height="36.693"/>
		<polygon fill="#673B45" stroke="#673B45" stroke-width="0.1312" stroke-miterlimit="10" points="271.083,434.248 220.97,420.603 
			230.611,385.198 		"/>
		<g>
			
				<path fill="#673B45" stroke="#673B45" stroke-width="0.3374" stroke-linecap="round" stroke-linejoin="round" stroke-miterlimit="10" d="
				M218.341,385.228c-0.272,1.002-0.652,1.726-1.139,2.171c-0.487,0.446-1.055,0.579-1.702,0.403s-1.081-0.588-1.307-1.236
				c-0.226-0.649-0.2-1.477,0.073-2.482c0.274-1.005,0.666-1.729,1.178-2.166c0.511-0.439,1.104-0.566,1.778-0.382
				C218.541,381.894,218.915,383.124,218.341,385.228z M218.046,384.985c0.229-0.843,0.264-1.531,0.107-2.07
				s-0.506-0.883-1.047-1.029c-0.54-0.148-1.03-0.035-1.468,0.344c-0.438,0.376-0.784,1.027-1.037,1.95
				c-0.295,1.081-0.264,1.941,0.091,2.579c0.197,0.355,0.472,0.58,0.824,0.678c0.353,0.094,0.664,0.094,0.932-0.002
				c0.269-0.098,0.499-0.268,0.696-0.508C217.515,386.476,217.817,385.827,218.046,384.985z"/>
			
				<path fill="#673B45" stroke="#673B45" stroke-width="0.3374" stroke-linecap="round" stroke-linejoin="round" stroke-miterlimit="10" d="
				M223.618,386.664c-0.273,1.001-0.653,1.728-1.141,2.171c-0.486,0.445-1.054,0.58-1.7,0.404c-0.647-0.176-1.084-0.59-1.309-1.238
				c-0.225-0.647-0.201-1.475,0.073-2.482c0.274-1.004,0.667-1.728,1.177-2.165c0.513-0.438,1.104-0.566,1.779-0.382
				C223.815,383.331,224.19,384.561,223.618,386.664z M223.32,386.422c0.23-0.842,0.268-1.532,0.109-2.071
				c-0.156-0.539-0.506-0.881-1.046-1.029c-0.541-0.146-1.03-0.032-1.47,0.344c-0.439,0.378-0.783,1.027-1.035,1.952
				c-0.294,1.081-0.265,1.938,0.09,2.577c0.198,0.356,0.473,0.582,0.825,0.678s0.663,0.094,0.931-0.002
				c0.268-0.098,0.5-0.266,0.696-0.505C222.792,387.911,223.09,387.264,223.32,386.422z"/>
			
				<path fill="#673B45" stroke="#673B45" stroke-width="0.3374" stroke-linecap="round" stroke-linejoin="round" stroke-miterlimit="10" d="
				M210.045,383.052l0.898-3.299l2.72,0.742l-0.093,0.338l-2.438-0.663l-0.599,2.2c0.336-0.143,0.673-0.17,1.008-0.078
				c0.604,0.165,1.01,0.478,1.219,0.939c0.21,0.463,0.237,0.975,0.085,1.535c-0.151,0.559-0.455,1.022-0.906,1.387
				c-0.453,0.363-0.939,0.477-1.459,0.334c-0.37-0.1-0.668-0.308-0.895-0.621c-0.227-0.315-0.3-0.648-0.219-1.007l0.307,0.085
				c-0.042,0.236,0.023,0.471,0.194,0.703s0.421,0.395,0.754,0.486c0.421,0.115,0.81,0.023,1.165-0.271
				c0.355-0.297,0.599-0.679,0.726-1.146c0.129-0.47,0.105-0.9-0.065-1.295c-0.173-0.395-0.507-0.658-1.005-0.793
				c-0.248-0.067-0.499-0.061-0.752,0.021C210.437,382.729,210.223,382.865,210.045,383.052z"/>
		</g>
		<g>
			
				<path fill="#B28086" stroke="#B28086" stroke-width="0.3374" stroke-linecap="round" stroke-linejoin="round" stroke-miterlimit="10" d="
				M265.85,427.999c-0.272,1.003-0.652,1.727-1.139,2.172c-0.487,0.444-1.054,0.58-1.702,0.404
				c-0.647-0.176-1.084-0.589-1.309-1.238c-0.225-0.65-0.2-1.477,0.074-2.482c0.273-1.004,0.667-1.729,1.179-2.166
				c0.511-0.438,1.104-0.566,1.776-0.383C266.05,424.665,266.423,425.897,265.85,427.999z M265.554,427.757
				c0.229-0.842,0.266-1.532,0.108-2.07c-0.157-0.539-0.505-0.882-1.047-1.029c-0.541-0.148-1.03-0.033-1.47,0.344
				c-0.439,0.375-0.783,1.025-1.035,1.951c-0.295,1.08-0.264,1.941,0.092,2.58c0.195,0.354,0.472,0.578,0.824,0.674
				c0.352,0.096,0.662,0.096,0.93,0c0.269-0.097,0.5-0.266,0.696-0.507C265.024,429.246,265.325,428.6,265.554,427.757z"/>
			
				<path fill="#B28086" stroke="#B28086" stroke-width="0.3374" stroke-linecap="round" stroke-linejoin="round" stroke-miterlimit="10" d="
				M271.125,429.435c-0.272,1.002-0.651,1.728-1.139,2.174c-0.486,0.443-1.053,0.58-1.701,0.402
				c-0.647-0.176-1.082-0.589-1.309-1.238c-0.223-0.648-0.199-1.477,0.076-2.481c0.272-1.004,0.664-1.728,1.176-2.165
				c0.511-0.439,1.104-0.566,1.78-0.383C271.325,426.103,271.697,427.333,271.125,429.435z M270.829,429.194
				c0.23-0.842,0.267-1.533,0.108-2.072c-0.156-0.539-0.505-0.881-1.046-1.028s-1.03-0.034-1.469,0.343s-0.785,1.027-1.036,1.952
				c-0.295,1.081-0.264,1.94,0.091,2.579c0.197,0.355,0.474,0.58,0.825,0.674c0.352,0.098,0.661,0.098,0.93,0.002
				c0.268-0.099,0.5-0.267,0.695-0.508C270.301,430.683,270.6,430.035,270.829,429.194z"/>
			
				<path fill="#B28086" stroke="#B28086" stroke-width="0.3374" stroke-linecap="round" stroke-linejoin="round" stroke-miterlimit="10" d="
				M257.554,425.823l0.898-3.297l2.719,0.74l-0.092,0.336l-2.438-0.662l-0.599,2.203c0.334-0.146,0.671-0.171,1.008-0.078
				c0.603,0.163,1.009,0.476,1.22,0.938c0.208,0.462,0.237,0.974,0.084,1.534c-0.152,0.561-0.456,1.023-0.908,1.387
				c-0.451,0.364-0.938,0.476-1.458,0.335c-0.37-0.101-0.667-0.31-0.894-0.621c-0.227-0.315-0.3-0.651-0.221-1.007l0.308,0.083
				c-0.041,0.237,0.024,0.474,0.194,0.706c0.171,0.234,0.422,0.395,0.754,0.485c0.42,0.114,0.809,0.022,1.164-0.272
				c0.357-0.297,0.601-0.678,0.728-1.146c0.129-0.469,0.104-0.9-0.066-1.295c-0.171-0.394-0.506-0.658-1.003-0.792
				c-0.249-0.067-0.499-0.063-0.754,0.02C257.946,425.502,257.729,425.636,257.554,425.823z"/>
		</g>
	</g>
	<g>
		<path fill="#FFFFFF" stroke="#FFFFFF" stroke-miterlimit="10" d="M82.183,308.548h-2.362v-40.039l-9.33,4.227v-2.299l11.692-5.409
			V308.548z"/>
		<path fill="#FFFFFF" stroke="#FFFFFF" stroke-miterlimit="10" d="M164.807,287.161c0,6.838-1.164,12.092-3.481,15.76
			c-2.322,3.67-5.691,5.503-10.104,5.503c-4.417,0-7.898-1.864-10.448-5.597c-2.546-3.73-3.82-9.023-3.82-15.885
			c0-6.859,1.24-12.122,3.729-15.791c2.483-3.668,6.031-5.502,10.63-5.502C160.309,265.649,164.807,272.819,164.807,287.161z
			 M162.504,286.134c0-5.74-0.961-10.186-2.888-13.335c-1.929-3.149-4.736-4.726-8.426-4.726c-3.692,0-6.603,1.576-8.737,4.726
			s-3.202,7.876-3.202,14.175c0,7.379,1.68,12.787,5.039,16.227c1.862,1.907,3.998,2.861,6.401,2.861
			c2.402,0,4.375-0.539,5.908-1.617s2.712-2.55,3.542-4.414C161.715,296.509,162.504,291.876,162.504,286.134z"/>
		<path fill="#FFFFFF" stroke="#FFFFFF" stroke-miterlimit="10" d="M199.066,287.161c0,6.838-1.163,12.092-3.481,15.76
			c-2.322,3.67-5.69,5.503-10.103,5.503c-4.418,0-7.899-1.864-10.448-5.597c-2.546-3.73-3.82-9.023-3.82-15.885
			c0-6.859,1.238-12.122,3.729-15.791c2.482-3.668,6.029-5.502,10.629-5.502C194.568,265.649,199.066,272.819,199.066,287.161z
			 M196.764,286.134c0-5.74-0.962-10.186-2.889-13.335c-1.929-3.149-4.736-4.726-8.424-4.726c-3.694,0-6.604,1.576-8.738,4.726
			c-2.136,3.149-3.203,7.876-3.203,14.175c0,7.379,1.679,12.787,5.039,16.227c1.861,1.907,3.997,2.861,6.4,2.861
			c2.404,0,4.377-0.539,5.91-1.617c1.532-1.078,2.711-2.55,3.541-4.414C195.975,296.509,196.764,291.876,196.764,286.134z"/>
		<path fill="#FFFFFF" stroke="#FFFFFF" stroke-miterlimit="10" d="M233.326,287.161c0,6.838-1.164,12.092-3.481,15.76
			c-2.322,3.67-5.692,5.503-10.104,5.503c-4.417,0-7.899-1.864-10.449-5.597c-2.545-3.73-3.819-9.023-3.819-15.885
			c0-6.859,1.239-12.122,3.729-15.791c2.484-3.668,6.03-5.502,10.63-5.502C228.827,265.649,233.326,272.819,233.326,287.161z
			 M231.023,286.134c0-5.74-0.961-10.186-2.89-13.335c-1.927-3.149-4.736-4.726-8.424-4.726c-3.694,0-6.604,1.576-8.738,4.726
			s-3.202,7.876-3.202,14.175c0,7.379,1.68,12.787,5.039,16.227c1.862,1.907,3.997,2.861,6.399,2.861
			c2.404,0,4.377-0.539,5.911-1.617c1.533-1.078,2.712-2.55,3.542-4.414C230.234,296.509,231.023,291.876,231.023,286.134z"/>
		<path fill="#FFFFFF" stroke="#FFFFFF" stroke-miterlimit="10" d="M95.043,288.817V266.69h20.106v2.271H97.129v14.768
			c2.044-1.467,4.309-2.203,6.802-2.203c4.454,0,7.835,1.266,10.146,3.799c2.304,2.535,3.461,5.676,3.461,9.439
			c0,3.76-1.217,7.162-3.646,10.205c-2.434,3.041-5.565,4.568-9.405,4.568c-2.739,0-5.184-0.787-7.328-2.363
			c-2.145-1.568-3.277-3.543-3.402-5.914h2.27c0.166,1.553,1.053,2.91,2.663,4.076c1.616,1.17,3.652,1.748,6.101,1.748
			c3.107,0,5.606-1.229,7.507-3.678c1.901-2.449,2.854-5.252,2.854-8.395c0-3.152-0.963-5.807-2.883-7.971
			c-1.921-2.166-4.719-3.246-8.396-3.246c-1.841,0-3.555,0.467-5.147,1.41C97.129,286.146,95.902,287.353,95.043,288.817z"/>
	</g>
	<g>
		
			<rect x="161.967" y="395.635" transform="matrix(0.9436 -0.331 0.331 0.9436 -126.2308 89.2658)" fill="#FFFFFF" stroke="#FFFFFF" stroke-width="0.1622" stroke-miterlimit="10" width="74.065" height="39.309"/>
		<g>
			<defs>
				<polygon id="SVGID_19_" points="236.579,420.61 189.934,436.973 179.012,403.795 225.659,387.434 				"/>
			</defs>
			<clipPath id="SVGID_20_">
				<use xlink:href="#SVGID_19_"  overflow="visible"/>
			</clipPath>
			<g clip-path="url(#SVGID_20_)">
				<path fill="#139383" d="M111.166,458.511l-2.58,0.906c-0.888,2.755-3.263,4.739-5.766,5.617
					c-2.505,0.879-5.599,0.812-8.012-0.785l-2.58,0.904c-3.515,1.232-5.364,5.082-4.131,8.598l1.703,6.898l32.304-11.33
					l-2.342-6.676C118.53,459.128,114.68,457.278,111.166,458.511z"/>
				<path fill="#139383" d="M89.491,480.758l-1.705-6.897c-1.291-3.682,0.653-7.727,4.333-9.018l2.581-0.906
					c0.097-0.033,0.204-0.02,0.291,0.038c2.136,1.415,5.021,1.695,7.72,0.747c2.697-0.943,4.776-2.967,5.562-5.405
					c0.031-0.099,0.106-0.175,0.204-0.21l2.58-0.906c3.681-1.289,7.725,0.654,9.016,4.335l2.341,6.673 M90.001,480.229
					l31.682-11.112l-2.232-6.364c-1.17-3.338-4.839-5.102-8.178-3.932l-2.428,0.853c-0.883,2.563-3.082,4.677-5.917,5.671
					c-2.834,0.994-5.87,0.717-8.163-0.732l-2.428,0.853c-3.339,1.17-5.101,4.838-3.929,8.177L90.001,480.229z"/>
			</g>
			<g clip-path="url(#SVGID_20_)">
				<g>
					<path fill="#139383" d="M88.538,454.312c-2.01-5.732,0.589-11.862,5.806-13.691c5.218-1.828,11.075,1.334,13.086,7.064
						c2.009,5.73-0.028,13.462-5.244,15.293C96.969,464.807,90.547,460.04,88.538,454.312z"/>
					<path fill="#139383" d="M102.229,463.101c-5.391,1.891-11.853-3.15-13.816-8.746c-2.03-5.792,0.609-12.008,5.887-13.859
						c5.278-1.852,11.223,1.354,13.254,7.146C109.516,453.237,107.619,461.21,102.229,463.101z M94.387,440.744
						c-5.141,1.803-7.708,7.869-5.725,13.522c1.922,5.481,8.229,10.426,13.479,8.585c5.25-1.841,7.085-9.642,5.162-15.124
						C105.321,442.075,99.527,438.942,94.387,440.744z"/>
				</g>
			</g>
		</g>
		
			<polygon fill="#F6F6F6" stroke="#F6F6F6" stroke-width="0.1622" stroke-linecap="round" stroke-linejoin="round" stroke-miterlimit="10" points="
			240.45,421.58 170.559,446.093 157.549,408.999 		"/>
		
			<rect x="183.398" y="394.631" transform="matrix(0.9436 -0.331 0.331 0.9436 -124.6591 92.1026)" fill="#1CB1A3" stroke="#1CB1A3" stroke-width="0.1249" stroke-miterlimit="10" width="49.432" height="34.922"/>
		<polygon fill="#15A594" stroke="#15A594" stroke-width="0.1249" stroke-miterlimit="10" points="237.216,420.389 190.57,436.749 
			179.012,403.795 		"/>
		<g>
			
				<path fill="#139383" stroke="#139383" stroke-width="0.3374" stroke-linecap="round" stroke-linejoin="round" stroke-miterlimit="10" d="
				M164.138,416.021l-0.336,0.118l-2.015-5.741l-1.127,1.075l-0.115-0.328l1.404-1.364L164.138,416.021z"/>
			
				<path fill="#139383" stroke="#139383" stroke-width="0.3374" stroke-linecap="round" stroke-linejoin="round" stroke-miterlimit="10" d="
				M168.223,411.143c0.344,0.979,0.441,1.795,0.292,2.437c-0.146,0.642-0.539,1.073-1.171,1.296c-0.633,0.224-1.226,0.13-1.78-0.276
				c-0.553-0.407-1.002-1.102-1.347-2.085c-0.345-0.984-0.432-1.801-0.26-2.453s0.587-1.093,1.249-1.324
				C166.495,408.286,167.502,409.086,168.223,411.143z M167.84,411.112c-0.288-0.824-0.649-1.413-1.086-1.768
				c-0.434-0.354-0.916-0.439-1.444-0.254c-0.529,0.186-0.867,0.559-1.015,1.116c-0.147,0.561-0.062,1.292,0.253,2.194
				c0.372,1.059,0.885,1.75,1.538,2.074c0.364,0.18,0.719,0.209,1.064,0.088c0.344-0.121,0.599-0.295,0.764-0.529
				c0.165-0.232,0.262-0.502,0.287-0.809C168.25,412.641,168.13,411.936,167.84,411.112z"/>
			
				<path fill="#139383" stroke="#139383" stroke-width="0.3374" stroke-linecap="round" stroke-linejoin="round" stroke-miterlimit="10" d="
				M173.382,409.333c0.342,0.982,0.441,1.793,0.294,2.437c-0.149,0.642-0.539,1.073-1.174,1.296
				c-0.632,0.223-1.225,0.131-1.778-0.277c-0.554-0.404-1.003-1.102-1.349-2.084c-0.344-0.984-0.43-1.803-0.258-2.452
				c0.172-0.652,0.588-1.093,1.246-1.324C171.656,406.476,172.66,407.276,173.382,409.333z M172.999,409.302
				c-0.288-0.821-0.649-1.41-1.083-1.767c-0.435-0.354-0.917-0.438-1.445-0.255c-0.529,0.188-0.869,0.559-1.016,1.117
				c-0.149,0.562-0.063,1.291,0.254,2.195c0.371,1.059,0.884,1.75,1.538,2.073c0.362,0.18,0.717,0.21,1.061,0.088
				c0.346-0.12,0.602-0.296,0.768-0.529c0.163-0.232,0.261-0.503,0.286-0.81C173.409,410.829,173.289,410.126,172.999,409.302z"/>
		</g>
		<g>
			
				<path fill="#98D2D1" stroke="#98D2D1" stroke-width="0.3374" stroke-linecap="round" stroke-linejoin="round" stroke-miterlimit="10" d="
				M225.176,423.181l-0.337,0.119l-2.014-5.74l-1.125,1.074l-0.114-0.33l1.401-1.363L225.176,423.181z"/>
			
				<path fill="#98D2D1" stroke="#98D2D1" stroke-width="0.3374" stroke-linecap="round" stroke-linejoin="round" stroke-miterlimit="10" d="
				M229.261,418.304c0.344,0.98,0.442,1.793,0.293,2.435c-0.148,0.642-0.538,1.077-1.172,1.298
				c-0.633,0.225-1.226,0.131-1.779-0.277c-0.553-0.405-1.002-1.102-1.347-2.084c-0.344-0.984-0.434-1.802-0.26-2.452
				c0.172-0.651,0.588-1.093,1.248-1.325C227.534,415.446,228.541,416.249,229.261,418.304z M228.879,418.274
				c-0.288-0.824-0.649-1.416-1.085-1.77c-0.435-0.353-0.917-0.438-1.445-0.254c-0.531,0.186-0.867,0.561-1.015,1.118
				c-0.148,0.56-0.062,1.29,0.254,2.194c0.371,1.059,0.882,1.747,1.537,2.072c0.364,0.181,0.719,0.21,1.063,0.09
				c0.345-0.123,0.599-0.297,0.763-0.529c0.168-0.23,0.264-0.502,0.29-0.812C229.289,419.801,229.168,419.096,228.879,418.274z"/>
			
				<path fill="#98D2D1" stroke="#98D2D1" stroke-width="0.3374" stroke-linecap="round" stroke-linejoin="round" stroke-miterlimit="10" d="
				M234.419,416.494c0.345,0.981,0.442,1.794,0.294,2.434c-0.147,0.644-0.538,1.078-1.171,1.3s-1.226,0.129-1.78-0.279
				c-0.553-0.404-1.001-1.098-1.348-2.084c-0.344-0.984-0.431-1.801-0.258-2.453c0.172-0.649,0.588-1.092,1.246-1.323
				C232.694,413.636,233.699,414.438,234.419,416.494z M234.04,416.464c-0.29-0.822-0.652-1.412-1.086-1.769
				c-0.435-0.354-0.916-0.438-1.446-0.254c-0.529,0.185-0.866,0.56-1.015,1.118s-0.062,1.289,0.254,2.193
				c0.372,1.059,0.885,1.748,1.54,2.074c0.362,0.179,0.716,0.209,1.061,0.088c0.345-0.122,0.601-0.297,0.767-0.529
				c0.166-0.23,0.26-0.501,0.285-0.811C234.449,417.992,234.327,417.286,234.04,416.464z"/>
		</g>
	</g>
	<g>
		
			<rect x="61.086" y="394.373" transform="matrix(0.7084 0.7058 -0.7058 0.7084 320.8443 51.4823)" fill="#FFFFFF" stroke="#FFFFFF" stroke-width="0.1622" stroke-miterlimit="10" width="74.064" height="39.309"/>
		<g>
			<defs>
				<polygon id="SVGID_21_" points="109.669,450.181 74.651,415.294 99.777,391.03 134.796,425.92 				"/>
			</defs>
			<clipPath id="SVGID_22_">
				<use xlink:href="#SVGID_21_"  overflow="visible"/>
			</clipPath>
			<g clip-path="url(#SVGID_22_)">
				<path fill="#139383" d="M21,353.729l-1.938-1.93c-2.866,0.398-5.687-0.877-7.566-2.748c-1.88-1.873-3.166-4.688-2.776-7.557
					l-1.937-1.93c-2.639-2.629-6.909-2.62-9.538,0.02l-5.471,4.532l24.25,24.163l4.993-5.012
					C23.647,360.63,23.639,356.358,21,353.729z"/>
				<path fill="#139383" d="M-8.458,343.887l5.47-4.535c2.754-2.764,7.243-2.772,10.004-0.021l1.938,1.932
					c0.072,0.072,0.106,0.175,0.093,0.277c-0.345,2.539,0.657,5.26,2.685,7.277c2.023,2.018,4.748,3.01,7.287,2.656
					c0.102-0.015,0.203,0.021,0.276,0.094l1.938,1.929c2.762,2.754,2.771,7.24,0.018,10.003l-4.992,5.01 M-7.759,344.116
					l23.783,23.697l4.761-4.778c2.497-2.505,2.488-6.575-0.018-9.073l-1.822-1.816c-2.692,0.32-5.552-0.742-7.681-2.861
					c-2.128-2.119-3.197-4.975-2.89-7.67L6.55,339.8c-2.505-2.498-6.573-2.49-9.071,0.018L-7.759,344.116z"/>
			</g>
			<g clip-path="url(#SVGID_22_)">
				<g>
					<path fill="#139383" d="M14.942,331.527c4.289-4.304,10.938-4.629,14.854-0.727c3.916,3.903,3.615,10.553-0.67,14.856
						c-4.288,4.301-12.136,5.828-16.052,1.928C9.159,343.684,10.658,335.828,14.942,331.527z"/>
					<path fill="#139383" d="M12.981,347.679c-4.046-4.032-2.316-12.044,1.868-16.245c4.333-4.347,11.078-4.673,15.04-0.727
						c3.963,3.948,3.662,10.694-0.671,15.042C25.033,349.951,17.028,351.71,12.981,347.679z M29.703,330.895
						c-3.858-3.846-10.438-3.519-14.665,0.726c-4.101,4.115-5.811,11.945-1.87,15.871c3.941,3.927,11.764,2.187,15.864-1.93
						C33.259,341.318,33.561,334.739,29.703,330.895z"/>
				</g>
			</g>
		</g>
		
			<polygon fill="#F6F6F6" stroke="#F6F6F6" stroke-width="0.1622" stroke-linecap="round" stroke-linejoin="round" stroke-miterlimit="10" points="
			110.479,454.089 58.013,401.812 85.757,373.966 		"/>
		
			<rect x="80.245" y="403.383" transform="matrix(0.7084 0.7058 -0.7058 0.7084 327.6436 48.6354)" fill="#1CB1A3" stroke="#1CB1A3" stroke-width="0.1249" stroke-miterlimit="10" width="49.432" height="34.922"/>
		<polygon fill="#15A594" stroke="#15A594" stroke-width="0.1249" stroke-miterlimit="10" points="110.146,450.658 75.128,415.769 
			99.777,391.03 		"/>
		<g>
			
				<path fill="#139383" stroke="#139383" stroke-width="0.3374" stroke-linecap="round" stroke-linejoin="round" stroke-miterlimit="10" d="
				M82.299,382.952l-0.252-0.25l4.293-4.312l-1.458-0.547l0.246-0.246l1.839,0.672L82.299,382.952z"/>
			
				<path fill="#139383" stroke="#139383" stroke-width="0.3374" stroke-linecap="round" stroke-linejoin="round" stroke-miterlimit="10" d="
				M88.469,384.51c-0.732,0.735-1.426,1.178-2.067,1.322c-0.643,0.147-1.201-0.019-1.677-0.49c-0.476-0.474-0.649-1.048-0.525-1.724
				c0.127-0.675,0.557-1.382,1.292-2.119c0.737-0.738,1.435-1.172,2.096-1.301c0.663-0.129,1.24,0.053,1.736,0.549
				C90.29,381.711,90.007,382.966,88.469,384.51z M88.331,384.151c0.615-0.617,0.988-1.199,1.118-1.746
				c0.132-0.545-0.003-1.016-0.399-1.411c-0.397-0.396-0.88-0.537-1.446-0.429c-0.569,0.111-1.191,0.506-1.866,1.183
				c-0.791,0.796-1.191,1.558-1.198,2.286c-0.003,0.407,0.124,0.739,0.384,0.998c0.259,0.256,0.525,0.41,0.808,0.457
				c0.281,0.048,0.566,0.018,0.854-0.094C87.131,385.186,87.714,384.771,88.331,384.151z"/>
			
				<path fill="#139383" stroke="#139383" stroke-width="0.3374" stroke-linecap="round" stroke-linejoin="round" stroke-miterlimit="10" d="
				M92.342,388.368c-0.736,0.735-1.423,1.178-2.067,1.324c-0.643,0.145-1.201-0.018-1.677-0.492
				c-0.475-0.473-0.65-1.047-0.524-1.723c0.124-0.675,0.558-1.383,1.291-2.121c0.736-0.737,1.437-1.17,2.097-1.298
				c0.661-0.13,1.239,0.054,1.734,0.546C94.163,385.571,93.878,386.823,92.342,388.368z M92.203,388.01
				c0.614-0.616,0.988-1.198,1.12-1.744c0.129-0.545-0.004-1.017-0.399-1.411c-0.398-0.396-0.881-0.541-1.447-0.43
				c-0.571,0.109-1.19,0.504-1.867,1.184c-0.791,0.795-1.19,1.557-1.197,2.287c-0.004,0.404,0.122,0.736,0.382,0.992
				c0.259,0.26,0.528,0.414,0.811,0.461c0.28,0.047,0.565,0.017,0.854-0.094C91.006,389.044,91.587,388.629,92.203,388.01z"/>
		</g>
		<g>
			
				<path fill="#98D2D1" stroke="#98D2D1" stroke-width="0.3374" stroke-linecap="round" stroke-linejoin="round" stroke-miterlimit="10" d="
				M102.396,441.03l-0.253-0.252l4.293-4.309l-1.456-0.547l0.247-0.246l1.836,0.67L102.396,441.03z"/>
			
				<path fill="#98D2D1" stroke="#98D2D1" stroke-width="0.3374" stroke-linecap="round" stroke-linejoin="round" stroke-miterlimit="10" d="
				M108.564,442.589c-0.733,0.734-1.421,1.178-2.064,1.322c-0.643,0.146-1.204-0.016-1.679-0.491
				c-0.477-0.472-0.65-1.047-0.524-1.723c0.125-0.675,0.557-1.382,1.292-2.119c0.736-0.738,1.434-1.174,2.094-1.3
				c0.663-0.129,1.241,0.053,1.736,0.547C110.387,439.79,110.101,441.046,108.564,442.589z M108.425,442.231
				c0.616-0.617,0.991-1.2,1.12-1.746c0.13-0.545-0.004-1.016-0.399-1.412c-0.398-0.397-0.881-0.537-1.448-0.428
				c-0.568,0.109-1.188,0.505-1.864,1.184c-0.792,0.794-1.19,1.553-1.198,2.285c-0.005,0.406,0.123,0.738,0.382,0.996
				c0.26,0.258,0.527,0.41,0.808,0.457c0.281,0.051,0.567,0.02,0.857-0.092C107.228,443.265,107.81,442.849,108.425,442.231z"/>
			
				<path fill="#98D2D1" stroke="#98D2D1" stroke-width="0.3374" stroke-linecap="round" stroke-linejoin="round" stroke-miterlimit="10" d="
				M112.438,446.446c-0.735,0.737-1.424,1.179-2.064,1.322c-0.645,0.148-1.205-0.016-1.68-0.488
				c-0.475-0.474-0.648-1.049-0.523-1.725c0.124-0.674,0.554-1.379,1.291-2.119c0.737-0.738,1.434-1.172,2.097-1.3
				c0.659-0.128,1.24,0.055,1.733,0.546C114.261,443.649,113.975,444.903,112.438,446.446z M112.299,446.091
				c0.613-0.619,0.988-1.202,1.12-1.747c0.13-0.545-0.003-1.016-0.4-1.412c-0.396-0.397-0.881-0.537-1.447-0.429
				c-0.569,0.109-1.188,0.506-1.866,1.184c-0.791,0.795-1.189,1.557-1.196,2.288c-0.005,0.405,0.122,0.735,0.382,0.993
				c0.259,0.258,0.528,0.412,0.809,0.461c0.281,0.049,0.564,0.016,0.854-0.096C111.1,447.124,111.684,446.707,112.299,446.091z"/>
		</g>
	</g>
</g>
</svg>
