<?xml version="1.0" encoding="utf-8"?>
<!-- Generator: Adobe Illustrator 15.0.2, SVG Export Plug-In . SVG Version: 6.00 Build 0)  -->
<!DOCTYPE svg PUBLIC "-//W3C//DTD SVG 1.1//EN" "http://www.w3.org/Graphics/SVG/1.1/DTD/svg11.dtd">
<svg version="1.1" id="Lager_1" xmlns="http://www.w3.org/2000/svg" xmlns:xlink="http://www.w3.org/1999/xlink" x="0px" y="0px"
	 width="326.504px" height="414.526px" viewBox="0 0 326.504 414.526" enable-background="new 0 0 326.504 414.526"
	 xml:space="preserve">
<g>
	<g>
		
			<rect x="171.567" y="50.486" transform="matrix(0.3777 -0.9259 0.9259 0.3777 65.1039 239.1478)" fill="#FFFFFF" stroke="#FFFFFF" stroke-width="0.1704" stroke-miterlimit="10" width="77.817" height="41.302"/>
		<g>
			<defs>
				<polygon id="SVGID_1_" points="239.159,44.417 220.488,90.185 188.408,76.37 207.08,30.599 				"/>
			</defs>
			<clipPath id="SVGID_2_">
				<use xlink:href="#SVGID_1_"  overflow="visible"/>
			</clipPath>
			<g clip-path="url(#SVGID_2_)">
				<path fill="#15927E" d="M184.399,163.438l-1.033,2.532c1.477,2.491,1.385,5.583,0.383,8.04c-1.003,2.457-3.101,4.73-5.897,5.478
					l-1.032,2.53c-1.407,3.45,0.248,7.386,3.697,8.793l6.293,3.297l12.931-31.695l-6.549-2.672
					C189.742,158.334,185.806,159.991,184.399,163.438z"/>
				<path fill="#15927E" d="M186.686,194.414l-6.294-3.298c-3.611-1.473-5.351-5.609-3.877-9.222l1.032-2.53
					c0.039-0.096,0.12-0.168,0.22-0.193c2.476-0.662,4.598-2.638,5.678-5.285c1.079-2.646,0.944-5.543-0.36-7.747
					c-0.054-0.089-0.061-0.197-0.022-0.292l1.033-2.532c1.473-3.61,5.609-5.351,9.221-3.877l6.549,2.672"/>
			</g>
		</g>
		<polygon fill="#F6F6F6" stroke="#F6F6F6" stroke-width="0.1704" stroke-linejoin="round" stroke-miterlimit="10" points="
			244.294,42.912 214.899,114.963 176.657,99.363 		"/>
		
			<rect x="188.342" y="43.393" transform="matrix(0.3777 -0.9259 0.9259 0.3777 76.1924 236.8514)" fill="#834E53" stroke="#834E53" stroke-width="0.1312" stroke-miterlimit="10" width="51.937" height="36.693"/>
		<polygon fill="#653943" stroke="#653943" stroke-width="0.1312" stroke-miterlimit="10" points="241.106,44.625 221.488,92.714 
			187.514,78.854 		"/>
		<g>
			
				<path fill="#653943" stroke="#653943" stroke-width="0.3374" stroke-linecap="round" stroke-linejoin="round" stroke-miterlimit="10" d="
				M186.056,91.038c0.963,0.392,1.635,0.856,2.018,1.393c0.384,0.538,0.447,1.117,0.194,1.739c-0.253,0.62-0.715,1.003-1.386,1.147
				c-0.672,0.145-1.49,0.02-2.455-0.374s-1.636-0.871-2.008-1.431c-0.374-0.561-0.428-1.165-0.164-1.812
				C182.771,90.434,184.038,90.213,186.056,91.038z M185.78,91.301c-0.809-0.33-1.488-0.448-2.043-0.358
				c-0.554,0.09-0.937,0.396-1.148,0.915c-0.212,0.518-0.158,1.018,0.164,1.498c0.32,0.482,0.924,0.904,1.811,1.266
				c1.038,0.424,1.895,0.497,2.571,0.223c0.377-0.152,0.633-0.398,0.771-0.736c0.137-0.338,0.174-0.646,0.111-0.924
				c-0.064-0.279-0.204-0.528-0.419-0.752C187.194,92.008,186.588,91.63,185.78,91.301z"/>
			
				<path fill="#653943" stroke="#653943" stroke-width="0.3374" stroke-linecap="round" stroke-linejoin="round" stroke-miterlimit="10" d="
				M188.121,85.974c0.962,0.393,1.635,0.857,2.018,1.396c0.384,0.537,0.448,1.116,0.195,1.736c-0.254,0.621-0.717,1.004-1.388,1.148
				s-1.489,0.021-2.455-0.373c-0.964-0.395-1.635-0.871-2.007-1.432c-0.374-0.561-0.429-1.164-0.164-1.812
				C184.836,85.374,186.103,85.151,188.121,85.974z M187.845,86.239c-0.808-0.329-1.488-0.449-2.042-0.357
				c-0.555,0.089-0.937,0.395-1.148,0.912c-0.212,0.52-0.157,1.02,0.163,1.502c0.321,0.48,0.925,0.902,1.812,1.264
				c1.038,0.423,1.894,0.498,2.57,0.223c0.377-0.152,0.634-0.398,0.771-0.736c0.138-0.339,0.174-0.646,0.111-0.924
				c-0.064-0.278-0.203-0.529-0.417-0.754C189.26,86.946,188.652,86.569,187.845,86.239z"/>
			
				<path fill="#653943" stroke="#653943" stroke-width="0.3374" stroke-linecap="round" stroke-linejoin="round" stroke-miterlimit="10" d="
				M182.891,99.008l-3.164-1.291l1.064-2.609l0.325,0.133l-0.954,2.338l2.111,0.861c-0.101-0.35-0.086-0.688,0.045-1.01
				c0.237-0.58,0.597-0.944,1.08-1.096c0.485-0.152,0.997-0.117,1.534,0.102s0.96,0.575,1.267,1.068
				c0.306,0.494,0.359,0.99,0.155,1.488c-0.145,0.355-0.387,0.625-0.726,0.812c-0.34,0.187-0.68,0.219-1.025,0.096l0.12-0.295
				c0.23,0.07,0.472,0.033,0.724-0.107c0.251-0.142,0.442-0.371,0.572-0.689c0.165-0.404,0.122-0.8-0.128-1.189
				c-0.251-0.389-0.601-0.676-1.05-0.859c-0.45-0.184-0.881-0.214-1.293-0.092c-0.412,0.123-0.715,0.424-0.909,0.9
				c-0.097,0.239-0.12,0.489-0.07,0.75C182.619,98.581,182.728,98.81,182.891,99.008z"/>
		</g>
		<g>
			
				<path fill="#B07F84" stroke="#B07F84" stroke-width="0.3374" stroke-linecap="round" stroke-linejoin="round" stroke-miterlimit="10" d="
				M234.27,49.061c0.962,0.393,1.635,0.857,2.018,1.394c0.383,0.538,0.448,1.116,0.194,1.739c-0.254,0.62-0.716,1.004-1.387,1.148
				c-0.673,0.145-1.49,0.02-2.455-0.374c-0.964-0.394-1.635-0.872-2.007-1.433c-0.374-0.561-0.429-1.164-0.164-1.811
				C230.984,48.459,232.252,48.238,234.27,49.061z M233.993,49.327c-0.808-0.33-1.489-0.449-2.042-0.359
				c-0.555,0.091-0.937,0.395-1.148,0.914s-0.158,1.02,0.163,1.501c0.319,0.481,0.923,0.901,1.811,1.264
				c1.037,0.423,1.896,0.497,2.572,0.222c0.375-0.151,0.632-0.398,0.77-0.736s0.175-0.646,0.112-0.924
				c-0.063-0.277-0.203-0.527-0.419-0.752C235.407,50.033,234.802,49.656,233.993,49.327z"/>
			
				<path fill="#B07F84" stroke="#B07F84" stroke-width="0.3374" stroke-linecap="round" stroke-linejoin="round" stroke-miterlimit="10" d="
				M236.334,44c0.962,0.392,1.635,0.855,2.019,1.393c0.382,0.537,0.448,1.116,0.194,1.737c-0.254,0.622-0.717,1.004-1.388,1.149
				c-0.671,0.143-1.489,0.019-2.454-0.375c-0.964-0.394-1.635-0.87-2.007-1.431c-0.374-0.561-0.429-1.165-0.164-1.812
				C233.05,43.397,234.316,43.176,236.334,44z M236.059,44.264c-0.808-0.33-1.489-0.451-2.043-0.359
				c-0.554,0.09-0.937,0.396-1.147,0.914c-0.212,0.52-0.158,1.019,0.162,1.5c0.32,0.48,0.925,0.903,1.812,1.266
				c1.037,0.423,1.895,0.496,2.571,0.222c0.376-0.153,0.633-0.399,0.77-0.737c0.139-0.337,0.176-0.645,0.113-0.923
				c-0.064-0.278-0.203-0.529-0.419-0.751C237.473,44.969,236.866,44.593,236.059,44.264z"/>
			
				<path fill="#B07F84" stroke="#B07F84" stroke-width="0.3374" stroke-linecap="round" stroke-linejoin="round" stroke-miterlimit="10" d="
				M231.104,57.032l-3.164-1.291l1.064-2.609l0.323,0.133l-0.954,2.338l2.114,0.862c-0.104-0.35-0.088-0.687,0.044-1.01
				c0.236-0.579,0.596-0.943,1.08-1.097c0.485-0.15,0.996-0.117,1.534,0.102c0.537,0.22,0.96,0.576,1.266,1.07
				c0.307,0.492,0.358,0.988,0.155,1.487c-0.146,0.354-0.387,0.625-0.725,0.812c-0.34,0.188-0.682,0.219-1.026,0.098l0.12-0.296
				c0.231,0.07,0.473,0.033,0.724-0.108c0.253-0.14,0.443-0.37,0.573-0.688c0.164-0.403,0.121-0.8-0.128-1.188
				c-0.251-0.391-0.601-0.678-1.051-0.861c-0.449-0.184-0.881-0.213-1.292-0.09c-0.412,0.122-0.715,0.422-0.909,0.9
				c-0.097,0.238-0.122,0.487-0.071,0.75C230.833,56.605,230.94,56.836,231.104,57.032z"/>
		</g>
	</g>
	<g>
		
			<rect x="157.594" y="23.287" transform="matrix(0.3777 -0.9259 0.9259 0.3777 81.5934 209.2853)" fill="#FFFFFF" stroke="#FFFFFF" stroke-width="0.1704" stroke-miterlimit="10" width="77.817" height="41.302"/>
		<g>
			<defs>
				<polygon id="SVGID_3_" points="225.187,17.217 206.516,62.986 174.436,49.17 193.107,3.4 				"/>
			</defs>
			<clipPath id="SVGID_4_">
				<use xlink:href="#SVGID_3_"  overflow="visible"/>
			</clipPath>
			<g clip-path="url(#SVGID_4_)">
				<path fill="#15927E" d="M170.427,136.239l-1.033,2.532c1.477,2.491,1.385,5.583,0.383,8.04c-1.003,2.457-3.101,4.73-5.897,5.478
					l-1.032,2.53c-1.407,3.45,0.248,7.386,3.697,8.793l6.293,3.297l12.931-31.695l-6.549-2.672
					C175.77,131.135,171.833,132.792,170.427,136.239z"/>
			</g>
		</g>
		<polygon fill="#F6F6F6" stroke="#F6F6F6" stroke-width="0.1704" stroke-linejoin="round" stroke-miterlimit="10" points="
			230.321,15.712 200.927,87.764 162.685,72.164 		"/>
		
			<rect x="174.369" y="16.194" transform="matrix(0.3777 -0.9259 0.9259 0.3777 92.6818 206.9888)" fill="#834E53" stroke="#834E53" stroke-width="0.1312" stroke-miterlimit="10" width="51.937" height="36.693"/>
		<polygon fill="#653943" stroke="#653943" stroke-width="0.1312" stroke-miterlimit="10" points="227.134,17.426 207.516,65.515 
			173.541,51.655 		"/>
		<g>
			
				<path fill="#653943" stroke="#653943" stroke-width="0.3374" stroke-linecap="round" stroke-linejoin="round" stroke-miterlimit="10" d="
				M172.083,63.838c0.963,0.392,1.635,0.856,2.018,1.393c0.384,0.538,0.447,1.117,0.194,1.739c-0.253,0.62-0.715,1.003-1.386,1.147
				c-0.672,0.145-1.49,0.02-2.455-0.374s-1.636-0.871-2.008-1.431c-0.374-0.561-0.428-1.165-0.164-1.812
				C168.798,63.235,170.065,63.014,172.083,63.838z M171.808,64.102c-0.809-0.33-1.488-0.448-2.043-0.358
				c-0.554,0.09-0.937,0.396-1.148,0.915c-0.212,0.518-0.158,1.018,0.164,1.498c0.32,0.482,0.924,0.904,1.811,1.266
				c1.038,0.424,1.895,0.497,2.571,0.223c0.377-0.152,0.633-0.398,0.771-0.736c0.137-0.338,0.174-0.646,0.111-0.924
				c-0.064-0.279-0.204-0.528-0.419-0.752C173.222,64.809,172.615,64.431,171.808,64.102z"/>
			
				<path fill="#653943" stroke="#653943" stroke-width="0.3374" stroke-linecap="round" stroke-linejoin="round" stroke-miterlimit="10" d="
				M174.148,58.775c0.962,0.393,1.635,0.857,2.018,1.396c0.384,0.537,0.448,1.116,0.195,1.736c-0.254,0.621-0.717,1.004-1.388,1.148
				s-1.489,0.021-2.455-0.373c-0.964-0.395-1.635-0.871-2.007-1.432c-0.374-0.561-0.429-1.164-0.164-1.812
				C170.863,58.174,172.13,57.952,174.148,58.775z M173.872,59.04c-0.808-0.329-1.488-0.449-2.042-0.357
				c-0.555,0.089-0.937,0.395-1.148,0.912c-0.212,0.52-0.157,1.02,0.163,1.502c0.321,0.48,0.925,0.902,1.812,1.264
				c1.038,0.423,1.894,0.498,2.57,0.223c0.377-0.152,0.634-0.398,0.771-0.736c0.138-0.339,0.174-0.646,0.111-0.924
				c-0.064-0.278-0.203-0.529-0.417-0.754C175.287,59.747,174.68,59.37,173.872,59.04z"/>
			
				<path fill="#653943" stroke="#653943" stroke-width="0.3374" stroke-linecap="round" stroke-linejoin="round" stroke-miterlimit="10" d="
				M168.918,71.809l-3.164-1.291l1.064-2.609l0.325,0.133l-0.954,2.338l2.111,0.861c-0.101-0.35-0.086-0.688,0.045-1.01
				c0.237-0.58,0.597-0.944,1.08-1.096c0.485-0.152,0.997-0.117,1.534,0.102s0.96,0.575,1.267,1.068
				c0.306,0.494,0.359,0.99,0.155,1.488c-0.145,0.355-0.387,0.625-0.726,0.812c-0.34,0.187-0.68,0.219-1.025,0.096l0.12-0.295
				c0.23,0.07,0.472,0.033,0.724-0.107c0.251-0.142,0.442-0.371,0.572-0.689c0.165-0.404,0.122-0.8-0.128-1.189
				c-0.251-0.389-0.601-0.676-1.05-0.859c-0.45-0.184-0.881-0.214-1.293-0.092c-0.412,0.123-0.715,0.424-0.909,0.9
				c-0.097,0.239-0.12,0.489-0.07,0.75C168.646,71.381,168.755,71.611,168.918,71.809z"/>
		</g>
		<g>
			
				<path fill="#B07F84" stroke="#B07F84" stroke-width="0.3374" stroke-linecap="round" stroke-linejoin="round" stroke-miterlimit="10" d="
				M220.297,21.862c0.962,0.393,1.635,0.857,2.018,1.394c0.383,0.538,0.448,1.116,0.194,1.739c-0.254,0.62-0.716,1.004-1.387,1.148
				c-0.673,0.145-1.49,0.02-2.455-0.374c-0.964-0.394-1.635-0.872-2.007-1.433c-0.374-0.561-0.429-1.164-0.164-1.811
				C217.012,21.26,218.279,21.039,220.297,21.862z M220.021,22.127c-0.808-0.33-1.489-0.449-2.042-0.359
				c-0.555,0.091-0.937,0.395-1.148,0.914s-0.158,1.02,0.163,1.501c0.319,0.481,0.923,0.901,1.811,1.264
				c1.037,0.423,1.896,0.497,2.572,0.222c0.375-0.151,0.632-0.398,0.77-0.736s0.175-0.646,0.112-0.924
				c-0.063-0.277-0.203-0.527-0.419-0.752C221.435,22.833,220.829,22.457,220.021,22.127z"/>
			
				<path fill="#B07F84" stroke="#B07F84" stroke-width="0.3374" stroke-linecap="round" stroke-linejoin="round" stroke-miterlimit="10" d="
				M222.361,16.801c0.962,0.392,1.635,0.855,2.019,1.393c0.382,0.537,0.448,1.116,0.194,1.737c-0.254,0.622-0.717,1.004-1.388,1.149
				c-0.671,0.143-1.489,0.019-2.454-0.375c-0.964-0.394-1.635-0.87-2.007-1.431c-0.374-0.561-0.429-1.165-0.164-1.812
				C219.077,16.198,220.344,15.977,222.361,16.801z M222.086,17.065c-0.808-0.33-1.489-0.451-2.043-0.359
				c-0.554,0.09-0.937,0.396-1.147,0.914c-0.212,0.52-0.158,1.019,0.162,1.5c0.32,0.48,0.925,0.903,1.812,1.266
				c1.037,0.423,1.895,0.496,2.571,0.222c0.376-0.153,0.633-0.399,0.77-0.737c0.139-0.337,0.176-0.645,0.113-0.923
				c-0.064-0.278-0.203-0.529-0.419-0.751C223.5,17.77,222.894,17.394,222.086,17.065z"/>
			
				<path fill="#B07F84" stroke="#B07F84" stroke-width="0.3374" stroke-linecap="round" stroke-linejoin="round" stroke-miterlimit="10" d="
				M217.132,29.833l-3.164-1.291l1.064-2.609l0.323,0.133l-0.954,2.338l2.114,0.862c-0.104-0.35-0.088-0.687,0.044-1.01
				c0.236-0.579,0.596-0.943,1.08-1.097c0.485-0.15,0.996-0.117,1.534,0.102c0.537,0.22,0.96,0.576,1.266,1.07
				c0.307,0.492,0.358,0.988,0.155,1.487c-0.146,0.354-0.387,0.625-0.725,0.812c-0.34,0.188-0.682,0.219-1.026,0.098l0.12-0.296
				c0.231,0.07,0.473,0.033,0.724-0.108c0.253-0.14,0.443-0.37,0.573-0.688c0.164-0.403,0.121-0.8-0.128-1.188
				c-0.251-0.391-0.601-0.678-1.051-0.861c-0.449-0.184-0.881-0.213-1.292-0.09c-0.412,0.122-0.715,0.422-0.909,0.9
				c-0.097,0.238-0.122,0.487-0.071,0.75C216.86,29.406,216.968,29.637,217.132,29.833z"/>
		</g>
	</g>
	<g>
		
			<rect x="139.029" y="44.821" transform="matrix(0.3742 0.9273 -0.9273 0.3742 172.064 -124.0374)" fill="#FFFFFF" stroke="#FFFFFF" stroke-width="0.1704" stroke-miterlimit="10" width="77.817" height="41.302"/>
		<g>
			<defs>
				<polygon id="SVGID_5_" points="175.982,104.625 157.483,58.786 190.12,46.342 208.619,92.184 				"/>
			</defs>
			<clipPath id="SVGID_6_">
				<use xlink:href="#SVGID_5_"  overflow="visible"/>
			</clipPath>
		</g>
		<polygon fill="#F6F6F6" stroke="#F6F6F6" stroke-width="0.1704" stroke-linejoin="round" stroke-miterlimit="10" points="
			173.348,109.282 144.227,37.119 182.527,21.663 		"/>
		
			<rect x="155.766" y="56.539" transform="matrix(0.3742 0.9273 -0.9273 0.3742 183.169 -121.6683)" fill="#834E53" stroke="#834E53" stroke-width="0.1312" stroke-miterlimit="10" width="51.938" height="36.693"/>
		<polygon fill="#653943" stroke="#653943" stroke-width="0.1312" stroke-miterlimit="10" points="174.439,105.833 155.003,57.668 
			189.03,43.938 		"/>
		<g>
			
				<path fill="#653943" stroke="#653943" stroke-width="0.3374" stroke-linecap="round" stroke-linejoin="round" stroke-miterlimit="10" d="
				M181.588,34.182c-0.964,0.391-1.771,0.525-2.419,0.406c-0.649-0.117-1.099-0.488-1.351-1.111
				c-0.251-0.621-0.186-1.217,0.194-1.789c0.381-0.572,1.056-1.052,2.022-1.441c0.966-0.391,1.779-0.515,2.437-0.373
				c0.659,0.142,1.119,0.537,1.38,1.186C184.363,32.327,183.608,33.368,181.588,34.182z M181.602,33.801
				c0.81-0.326,1.38-0.715,1.715-1.166c0.334-0.45,0.396-0.936,0.187-1.456c-0.209-0.52-0.597-0.841-1.162-0.962
				s-1.292-0.004-2.181,0.355c-1.04,0.419-1.705,0.963-1.999,1.631c-0.164,0.373-0.178,0.727-0.04,1.066
				c0.137,0.338,0.326,0.584,0.563,0.74c0.24,0.154,0.515,0.236,0.824,0.248C180.094,34.28,180.792,34.128,181.602,33.801z"/>
			
				<path fill="#653943" stroke="#653943" stroke-width="0.3374" stroke-linecap="round" stroke-linejoin="round" stroke-miterlimit="10" d="
				M183.634,39.253c-0.963,0.389-1.77,0.524-2.42,0.405c-0.648-0.117-1.099-0.488-1.349-1.109c-0.251-0.623-0.187-1.219,0.193-1.791
				c0.381-0.57,1.056-1.052,2.022-1.442c0.966-0.39,1.779-0.515,2.436-0.372c0.66,0.141,1.119,0.537,1.382,1.186
				C186.409,37.395,185.655,38.438,183.634,39.253z M183.647,38.872c0.809-0.328,1.381-0.715,1.715-1.166
				c0.335-0.451,0.396-0.937,0.187-1.455c-0.21-0.521-0.597-0.842-1.162-0.963c-0.566-0.122-1.292-0.004-2.18,0.355
				c-1.041,0.42-1.707,0.962-2,1.631c-0.164,0.372-0.177,0.727-0.039,1.066c0.136,0.338,0.325,0.584,0.563,0.74
				c0.239,0.154,0.514,0.236,0.824,0.248C182.141,39.35,182.838,39.197,183.647,38.872z"/>
			
				<path fill="#653943" stroke="#653943" stroke-width="0.3374" stroke-linecap="round" stroke-linejoin="round" stroke-miterlimit="10" d="
				M178.304,26.26l3.17-1.279l1.054,2.613l-0.326,0.132l-0.944-2.342l-2.115,0.853c0.316,0.182,0.541,0.434,0.673,0.758
				c0.233,0.58,0.229,1.092-0.013,1.537c-0.242,0.447-0.633,0.779-1.171,0.996c-0.537,0.217-1.089,0.256-1.652,0.117
				c-0.563-0.142-0.947-0.461-1.149-0.96c-0.143-0.356-0.157-0.718-0.045-1.088c0.114-0.371,0.335-0.632,0.67-0.784l0.118,0.295
				c-0.215,0.111-0.362,0.305-0.443,0.582c-0.082,0.277-0.06,0.573,0.069,0.894c0.163,0.404,0.47,0.658,0.921,0.764
				c0.451,0.104,0.901,0.066,1.352-0.115c0.451-0.183,0.781-0.46,0.991-0.835c0.209-0.375,0.218-0.802,0.024-1.279
				c-0.097-0.239-0.255-0.435-0.472-0.588C178.796,26.377,178.56,26.288,178.304,26.26z"/>
		</g>
		<g>
			
				<path fill="#B07F84" stroke="#B07F84" stroke-width="0.3374" stroke-linecap="round" stroke-linejoin="round" stroke-miterlimit="10" d="
				M176.252,97.886c-0.962,0.389-1.77,0.524-2.418,0.406c-0.648-0.119-1.099-0.489-1.35-1.112c-0.251-0.621-0.187-1.219,0.193-1.789
				c0.382-0.572,1.055-1.053,2.021-1.443c0.966-0.39,1.779-0.514,2.438-0.371c0.659,0.143,1.119,0.537,1.38,1.185
				C179.028,96.029,178.273,97.071,176.252,97.886z M176.266,97.503c0.811-0.326,1.382-0.716,1.715-1.165
				c0.335-0.451,0.397-0.936,0.188-1.456s-0.597-0.842-1.163-0.963c-0.564-0.123-1.29-0.004-2.179,0.355
				c-1.039,0.419-1.707,0.964-2,1.633c-0.163,0.37-0.176,0.726-0.039,1.064s0.324,0.585,0.563,0.741
				c0.239,0.154,0.513,0.236,0.824,0.248C174.76,97.982,175.457,97.831,176.266,97.503z"/>
			
				<path fill="#B07F84" stroke="#B07F84" stroke-width="0.3374" stroke-linecap="round" stroke-linejoin="round" stroke-miterlimit="10" d="
				M178.299,102.956c-0.964,0.389-1.77,0.523-2.419,0.406c-0.648-0.119-1.1-0.488-1.351-1.11c-0.251-0.623-0.185-1.22,0.195-1.791
				c0.382-0.57,1.055-1.052,2.021-1.44c0.966-0.391,1.778-0.516,2.437-0.373c0.659,0.141,1.118,0.537,1.381,1.186
				C181.074,101.099,180.318,102.14,178.299,102.956z M178.312,102.575c0.809-0.327,1.382-0.715,1.715-1.168
				c0.335-0.449,0.396-0.936,0.187-1.455s-0.596-0.84-1.162-0.962c-0.564-0.122-1.291-0.004-2.181,0.354
				c-1.038,0.419-1.705,0.964-1.999,1.633c-0.163,0.372-0.175,0.727-0.038,1.065c0.136,0.337,0.323,0.585,0.562,0.739
				c0.239,0.156,0.514,0.239,0.824,0.248C176.807,103.053,177.503,102.901,178.312,102.575z"/>
			
				<path fill="#B07F84" stroke="#B07F84" stroke-width="0.3374" stroke-linecap="round" stroke-linejoin="round" stroke-miterlimit="10" d="
				M172.969,89.963l3.17-1.278l1.054,2.612l-0.324,0.131l-0.945-2.342l-2.116,0.855c0.318,0.178,0.541,0.43,0.672,0.755
				c0.233,0.579,0.229,1.091-0.011,1.538c-0.242,0.447-0.633,0.779-1.172,0.996c-0.537,0.217-1.089,0.256-1.651,0.115
				c-0.564-0.14-0.947-0.459-1.148-0.959c-0.144-0.355-0.159-0.718-0.046-1.087c0.113-0.371,0.336-0.632,0.668-0.785l0.12,0.296
				c-0.215,0.111-0.363,0.305-0.444,0.582c-0.083,0.275-0.06,0.574,0.069,0.893c0.163,0.404,0.471,0.658,0.92,0.765
				c0.452,0.104,0.902,0.066,1.353-0.116c0.45-0.181,0.78-0.461,0.991-0.834c0.209-0.375,0.218-0.802,0.024-1.28
				c-0.097-0.237-0.253-0.435-0.472-0.587S173.224,89.989,172.969,89.963z"/>
		</g>
	</g>
	<g>
		
			<rect x="128.641" y="37.639" transform="matrix(0.8523 0.5231 -0.5231 0.8523 55.2357 -79.0284)" fill="#FFFFFF" stroke="#FFFFFF" stroke-width="0.1704" stroke-miterlimit="10" width="77.818" height="41.301"/>
		<g>
			<defs>
				<polygon id="SVGID_7_" points="189.259,90.93 147.129,65.077 165.969,35.665 208.102,61.52 				"/>
			</defs>
			<clipPath id="SVGID_8_">
				<use xlink:href="#SVGID_7_"  overflow="visible"/>
			</clipPath>
		</g>
		<polygon fill="#F6F6F6" stroke="#F6F6F6" stroke-width="0.1704" stroke-linejoin="round" stroke-miterlimit="10" points="
			189.91,96.241 123.586,55.538 145.189,20.337 		"/>
		
			<rect x="150.232" y="45.252" transform="matrix(0.8523 0.523 -0.523 0.8523 59.2887 -82.7672)" fill="#834E53" stroke="#834E53" stroke-width="0.1312" stroke-miterlimit="10" width="51.936" height="36.693"/>
		<polygon fill="#653943" stroke="#653943" stroke-width="0.1312" stroke-miterlimit="10" points="188.736,92.818 144.471,65.653 
			163.663,34.379 		"/>
		<g>
			
				<path fill="#653943" stroke="#653943" stroke-width="0.3374" stroke-linecap="round" stroke-linejoin="round" stroke-miterlimit="10" d="
				M151.879,30.961c-0.543,0.887-1.111,1.475-1.703,1.766c-0.593,0.291-1.174,0.26-1.747-0.091
				c-0.571-0.351-0.873-0.868-0.907-1.554c-0.035-0.688,0.223-1.475,0.768-2.362s1.125-1.472,1.738-1.749s1.219-0.232,1.814,0.133
				C153.006,27.819,153.019,29.105,151.879,30.961z M151.663,30.647c0.456-0.744,0.685-1.396,0.685-1.957
				c0.002-0.561-0.238-0.988-0.715-1.281c-0.478-0.294-0.98-0.322-1.506-0.082c-0.527,0.238-1.041,0.765-1.543,1.582
				c-0.587,0.955-0.798,1.788-0.637,2.5c0.09,0.396,0.289,0.689,0.602,0.881c0.311,0.189,0.609,0.275,0.893,0.26
				c0.285-0.019,0.555-0.116,0.811-0.291C150.735,31.928,151.207,31.391,151.663,30.647z"/>
			
				<path fill="#653943" stroke="#653943" stroke-width="0.3374" stroke-linecap="round" stroke-linejoin="round" stroke-miterlimit="10" d="
				M156.539,33.822c-0.543,0.886-1.111,1.474-1.705,1.765c-0.592,0.291-1.174,0.261-1.744-0.09
				c-0.572-0.352-0.875-0.869-0.909-1.555c-0.033-0.686,0.224-1.474,0.769-2.362c0.545-0.888,1.125-1.472,1.736-1.748
				c0.615-0.278,1.219-0.233,1.816,0.132C157.666,30.678,157.68,31.964,156.539,33.822z M156.322,33.506
				c0.455-0.744,0.686-1.396,0.686-1.957c0.002-0.562-0.238-0.988-0.715-1.281c-0.479-0.293-0.98-0.32-1.508-0.083
				c-0.527,0.239-1.04,0.767-1.541,1.582c-0.586,0.957-0.8,1.789-0.638,2.501c0.089,0.396,0.29,0.689,0.603,0.881
				c0.311,0.191,0.609,0.276,0.893,0.26c0.285-0.018,0.555-0.115,0.812-0.291C155.396,34.788,155.865,34.25,156.322,33.506z"/>
			
				<path fill="#653943" stroke="#653943" stroke-width="0.3374" stroke-linecap="round" stroke-linejoin="round" stroke-miterlimit="10" d="
				M144.527,26.545l1.788-2.914l2.401,1.475l-0.184,0.3l-2.152-1.321l-1.193,1.943c0.362-0.042,0.693,0.027,0.99,0.209
				c0.533,0.327,0.834,0.741,0.904,1.244c0.072,0.503-0.045,1.002-0.349,1.496s-0.724,0.854-1.259,1.077
				c-0.537,0.222-1.035,0.192-1.495-0.089c-0.326-0.201-0.554-0.482-0.683-0.848c-0.129-0.366-0.106-0.707,0.072-1.028l0.27,0.167
				c-0.105,0.217-0.109,0.46-0.01,0.73c0.099,0.271,0.293,0.497,0.587,0.678c0.372,0.229,0.769,0.25,1.194,0.066
				c0.425-0.186,0.765-0.482,1.019-0.896c0.255-0.414,0.354-0.834,0.3-1.26c-0.055-0.427-0.301-0.775-0.74-1.044
				c-0.221-0.135-0.463-0.198-0.729-0.191C144.992,26.346,144.75,26.415,144.527,26.545z"/>
		</g>
		<g>
			
				<path fill="#B07F84" stroke="#B07F84" stroke-width="0.3374" stroke-linecap="round" stroke-linejoin="round" stroke-miterlimit="10" d="
				M185.469,85.352c-0.542,0.885-1.11,1.475-1.702,1.764c-0.593,0.291-1.175,0.261-1.747-0.091c-0.57-0.351-0.874-0.868-0.908-1.554
				c-0.033-0.688,0.223-1.474,0.768-2.362c0.545-0.888,1.125-1.471,1.738-1.747c0.615-0.279,1.219-0.234,1.814,0.131
				C186.597,82.208,186.609,83.495,185.469,85.352z M185.252,85.036c0.458-0.744,0.687-1.396,0.687-1.957
				c0-0.562-0.237-0.987-0.716-1.281c-0.478-0.293-0.98-0.322-1.508-0.082c-0.526,0.236-1.039,0.764-1.539,1.581
				c-0.587,0.954-0.801,1.79-0.638,2.502c0.089,0.395,0.29,0.688,0.602,0.879s0.608,0.277,0.894,0.261
				c0.284-0.018,0.553-0.115,0.811-0.291C184.326,86.317,184.797,85.78,185.252,85.036z"/>
			
				<path fill="#B07F84" stroke="#B07F84" stroke-width="0.3374" stroke-linecap="round" stroke-linejoin="round" stroke-miterlimit="10" d="
				M190.128,88.209c-0.543,0.887-1.109,1.475-1.703,1.766c-0.591,0.291-1.174,0.262-1.745-0.09
				c-0.572-0.352-0.874-0.869-0.908-1.556c-0.032-0.686,0.224-1.472,0.769-2.36c0.545-0.888,1.123-1.472,1.737-1.748
				c0.614-0.279,1.218-0.234,1.815,0.132C191.257,85.067,191.268,86.354,190.128,88.209z M189.913,87.895
				c0.456-0.742,0.687-1.396,0.686-1.957c0.001-0.562-0.238-0.988-0.716-1.281s-0.979-0.321-1.507-0.082
				c-0.525,0.237-1.04,0.764-1.543,1.581c-0.585,0.954-0.797,1.789-0.636,2.501c0.091,0.396,0.292,0.689,0.603,0.88
				s0.608,0.278,0.893,0.26c0.285-0.017,0.555-0.112,0.811-0.29C188.987,89.176,189.456,88.639,189.913,87.895z"/>
			
				<path fill="#B07F84" stroke="#B07F84" stroke-width="0.3374" stroke-linecap="round" stroke-linejoin="round" stroke-miterlimit="10" d="
				M178.118,80.934l1.788-2.912l2.4,1.474l-0.182,0.298l-2.152-1.32l-1.193,1.945c0.361-0.046,0.69,0.024,0.988,0.207
				c0.532,0.327,0.834,0.742,0.906,1.244c0.07,0.503-0.045,1.002-0.35,1.497c-0.303,0.494-0.724,0.854-1.26,1.074
				c-0.537,0.224-1.034,0.194-1.494-0.088c-0.326-0.2-0.554-0.481-0.682-0.847c-0.131-0.365-0.105-0.707,0.07-1.027l0.271,0.166
				c-0.106,0.217-0.11,0.461-0.012,0.731c0.098,0.271,0.294,0.497,0.588,0.677c0.371,0.229,0.77,0.25,1.193,0.068
				c0.426-0.186,0.766-0.484,1.02-0.898c0.254-0.412,0.354-0.834,0.3-1.26c-0.055-0.426-0.302-0.773-0.741-1.044
				c-0.219-0.134-0.461-0.198-0.729-0.191C178.584,80.736,178.338,80.803,178.118,80.934z"/>
		</g>
	</g>
	<g>
		
			<rect x="197.725" y="34.716" transform="matrix(-0.7545 0.6563 -0.6563 -0.7545 451.5143 -58.154)" fill="#FFFFFF" stroke="#FFFFFF" stroke-width="0.1704" stroke-miterlimit="10" width="77.817" height="41.301"/>
		<g>
			<defs>
				<polygon id="SVGID_9_" points="198.984,66.291 236.28,33.85 258.69,60.642 221.393,93.084 				"/>
			</defs>
			<clipPath id="SVGID_10_">
				<use xlink:href="#SVGID_9_"  overflow="visible"/>
			</clipPath>
		</g>
		<polygon fill="#F6F6F6" stroke="#F6F6F6" stroke-width="0.1704" stroke-linejoin="round" stroke-miterlimit="10" points="
			193.724,65.32 252.438,14.25 279.543,45.414 		"/>
		
			<rect x="203.007" y="43.68" transform="matrix(-0.7545 0.6563 -0.6563 -0.7545 442.4464 -41.4453)" fill="#834E53" stroke="#834E53" stroke-width="0.1312" stroke-miterlimit="10" width="51.936" height="36.694"/>
		<polygon fill="#653943" stroke="#653943" stroke-width="0.1312" stroke-miterlimit="10" points="197.341,65.227 236.527,31.142 
			260.608,58.828 		"/>
		<g>
			
				<path fill="#653943" stroke="#653943" stroke-width="0.3374" stroke-linecap="round" stroke-linejoin="round" stroke-miterlimit="10" d="
				M267.401,48.61c-0.683-0.784-1.073-1.502-1.174-2.154c-0.1-0.653,0.104-1.198,0.611-1.64c0.505-0.44,1.09-0.573,1.754-0.4
				c0.666,0.173,1.34,0.655,2.023,1.441c0.684,0.786,1.066,1.514,1.147,2.183c0.081,0.668-0.144,1.232-0.671,1.691
				C270.062,50.627,268.831,50.254,267.401,48.61z M267.767,48.499c0.573,0.658,1.127,1.072,1.661,1.24
				c0.534,0.17,1.015,0.069,1.437-0.298c0.424-0.368,0.602-0.839,0.53-1.412c-0.069-0.575-0.417-1.222-1.047-1.946
				c-0.735-0.846-1.467-1.297-2.194-1.357c-0.404-0.033-0.744,0.069-1.021,0.31c-0.273,0.24-0.445,0.499-0.515,0.774
				c-0.068,0.278-0.056,0.564,0.034,0.86C266.822,47.229,267.193,47.84,267.767,48.499z"/>
			
				<path fill="#653943" stroke="#653943" stroke-width="0.3374" stroke-linecap="round" stroke-linejoin="round" stroke-miterlimit="10" d="
				M263.275,52.198c-0.682-0.784-1.072-1.502-1.172-2.156c-0.101-0.652,0.104-1.198,0.608-1.637
				c0.507-0.441,1.092-0.574,1.756-0.401c0.664,0.174,1.339,0.655,2.023,1.441c0.684,0.786,1.066,1.515,1.146,2.181
				c0.082,0.67-0.143,1.232-0.67,1.693C265.937,54.216,264.706,53.843,263.275,52.198z M263.642,52.086
				c0.573,0.657,1.127,1.073,1.661,1.241c0.535,0.17,1.015,0.069,1.437-0.298c0.424-0.369,0.6-0.839,0.531-1.414
				c-0.069-0.575-0.419-1.222-1.047-1.944c-0.737-0.846-1.467-1.299-2.194-1.358c-0.405-0.034-0.745,0.07-1.021,0.311
				c-0.275,0.239-0.446,0.499-0.515,0.773c-0.069,0.277-0.057,0.564,0.034,0.861C262.697,50.819,263.069,51.427,263.642,52.086z"/>
			
				<path fill="#653943" stroke="#653943" stroke-width="0.3374" stroke-linecap="round" stroke-linejoin="round" stroke-miterlimit="10" d="
				M273.818,42.92l2.244,2.58l-2.127,1.849l-0.23-0.265l1.905-1.657l-1.496-1.721c-0.068,0.358-0.233,0.653-0.496,0.882
				c-0.472,0.411-0.957,0.574-1.458,0.49c-0.501-0.082-0.942-0.344-1.322-0.781c-0.381-0.438-0.598-0.946-0.65-1.524
				c-0.051-0.579,0.127-1.045,0.533-1.4c0.289-0.251,0.626-0.384,1.013-0.397c0.389-0.013,0.707,0.11,0.96,0.377l-0.24,0.207
				c-0.176-0.166-0.406-0.242-0.694-0.229c-0.288,0.013-0.562,0.13-0.822,0.357c-0.33,0.286-0.469,0.658-0.422,1.119
				c0.05,0.461,0.231,0.874,0.55,1.241c0.319,0.367,0.689,0.588,1.112,0.664c0.424,0.076,0.83-0.054,1.218-0.393
				c0.194-0.17,0.328-0.382,0.401-0.638C273.869,43.424,273.877,43.172,273.818,42.92z"/>
		</g>
		<g>
			
				<path fill="#B07F84" stroke="#B07F84" stroke-width="0.3374" stroke-linecap="round" stroke-linejoin="round" stroke-miterlimit="10" d="
				M205.442,64.348c-0.682-0.782-1.074-1.501-1.172-2.153c-0.1-0.653,0.104-1.199,0.61-1.64c0.505-0.438,1.09-0.573,1.755-0.4
				c0.665,0.175,1.339,0.654,2.023,1.44c0.683,0.786,1.065,1.514,1.145,2.182c0.082,0.671-0.142,1.233-0.668,1.692
				C208.104,66.366,206.872,65.993,205.442,64.348z M205.81,64.236c0.572,0.66,1.126,1.073,1.661,1.241
				c0.535,0.168,1.013,0.07,1.437-0.299c0.423-0.367,0.602-0.838,0.53-1.414c-0.067-0.573-0.417-1.22-1.047-1.942
				c-0.734-0.846-1.468-1.3-2.195-1.358c-0.403-0.034-0.743,0.071-1.019,0.311c-0.276,0.24-0.447,0.497-0.518,0.774
				c-0.068,0.276-0.056,0.562,0.035,0.861C204.864,62.968,205.235,63.579,205.81,64.236z"/>
			
				<path fill="#B07F84" stroke="#B07F84" stroke-width="0.3374" stroke-linecap="round" stroke-linejoin="round" stroke-miterlimit="10" d="
				M201.319,67.936c-0.683-0.784-1.074-1.501-1.174-2.154c-0.101-0.651,0.103-1.198,0.609-1.638c0.507-0.44,1.091-0.573,1.756-0.4
				c0.664,0.175,1.338,0.654,2.021,1.441c0.684,0.786,1.067,1.513,1.146,2.181c0.083,0.67-0.141,1.232-0.67,1.693
				C203.979,69.955,202.748,69.579,201.319,67.936z M201.684,67.825c0.571,0.658,1.126,1.073,1.662,1.241
				c0.535,0.169,1.014,0.069,1.437-0.299s0.601-0.838,0.53-1.413c-0.069-0.572-0.417-1.221-1.046-1.946
				c-0.734-0.844-1.468-1.296-2.195-1.356c-0.405-0.032-0.745,0.072-1.02,0.311c-0.275,0.239-0.448,0.497-0.516,0.773
				c-0.07,0.277-0.06,0.563,0.033,0.86C200.739,66.558,201.111,67.166,201.684,67.825z"/>
			
				<path fill="#B07F84" stroke="#B07F84" stroke-width="0.3374" stroke-linecap="round" stroke-linejoin="round" stroke-miterlimit="10" d="
				M211.861,58.66l2.241,2.579l-2.125,1.848l-0.229-0.263l1.904-1.658l-1.498-1.722c-0.064,0.358-0.229,0.651-0.493,0.881
				c-0.472,0.41-0.958,0.573-1.459,0.492c-0.501-0.083-0.942-0.343-1.323-0.783c-0.381-0.437-0.598-0.946-0.647-1.523
				c-0.052-0.58,0.125-1.045,0.532-1.399c0.289-0.251,0.625-0.384,1.012-0.396c0.388-0.015,0.706,0.112,0.959,0.375l-0.239,0.209
				c-0.175-0.167-0.407-0.244-0.694-0.23c-0.288,0.012-0.562,0.131-0.822,0.358c-0.329,0.286-0.469,0.659-0.423,1.118
				c0.05,0.462,0.232,0.875,0.552,1.242c0.316,0.365,0.689,0.587,1.111,0.664c0.423,0.075,0.829-0.056,1.219-0.394
				c0.193-0.169,0.327-0.38,0.4-0.638C211.91,59.164,211.92,58.909,211.861,58.66z"/>
		</g>
	</g>
	
		<path fill="#CA9E64" stroke="#CA9E64" stroke-width="1.0271" stroke-linecap="round" stroke-linejoin="round" stroke-miterlimit="10" d="
		M220.271,118.424l29.054-44.69l-13.112-8.667l-13.238,8.793h0.001h-0.003h0.002l-13.113-8.666l-13.238,8.792l0,0l0,0l0,0
		l-13.113-8.666l-13.24,8.792l0,0l-13.112-8.666l-13.238,8.792l26.122,45.081C111.218,139.884,67.016,222.42,67.016,280.31
		c0,66.295,57.974,105.591,129.487,105.591S325.99,346.605,325.99,280.31C325.99,221.539,280.433,137.299,220.271,118.424z"/>
	
		<path fill="#BF925C" stroke="#BF925C" stroke-width="1.5009" stroke-linecap="round" stroke-linejoin="round" stroke-miterlimit="10" d="
		M196.503,385.901c-71.514,0-129.487-39.296-129.487-105.591c0-57.889,44.202-140.425,103.024-160.991l-26.122-45.081l13.238-8.792
		l13.112,8.666l0,0l13.24-8.792l13.113,8.666l0,0l0,0l0,0L196.503,385.901z"/>
	
		<path fill="#CA9E64" stroke="#CA9E64" stroke-width="0.924" stroke-linecap="round" stroke-linejoin="round" stroke-miterlimit="10" d="
		M220.318,105.157"/>
	
		<line fill="#CA9E64" stroke="#CA9E64" stroke-width="0.924" stroke-linecap="round" stroke-linejoin="round" stroke-miterlimit="10" x1="220.318" y1="105.157" x2="220.319" y2="105.157"/>
	<polygon fill="#FFFFFF" points="230.126,121.46 162.511,121.46 168.809,118.867 165.845,113.871 224.272,113.871 221.114,118.078 	
		"/>
	<g>
		<path fill="none" stroke="#FFFFFF" stroke-width="8.8918" stroke-linecap="round" stroke-miterlimit="10" d="M204.079,121.46
			c0,0-2.223,43.256,18.896,54.926"/>
		<path fill="none" stroke="#FFFFFF" stroke-width="8.8918" stroke-linecap="round" stroke-miterlimit="10" d="M192.445,119.676
			c0,0-6.76,12.354-1.131,28.156c5.63,15.802-7.872,23.445-17.098,25.996"/>
	</g>
	<g>
		
			<rect x="75.249" y="338.677" transform="matrix(0.9668 -0.2556 0.2556 0.9668 -88.0543 41.1159)" fill="#FFFFFF" stroke="#FFFFFF" stroke-width="0.1704" stroke-miterlimit="10" width="77.817" height="41.303"/>
		<g>
			<defs>
				<polygon id="SVGID_11_" points="152.761,366.153 104.973,378.79 96.698,344.855 144.488,332.218 				"/>
			</defs>
			<clipPath id="SVGID_12_">
				<use xlink:href="#SVGID_11_"  overflow="visible"/>
			</clipPath>
			<g clip-path="url(#SVGID_12_)">
				<path fill="#15927E" d="M24.752,394.057l-2.644,0.699c-1.101,2.678-3.626,4.465-6.19,5.145
					c-2.566,0.678-5.645,0.371-7.924-1.414l-2.643,0.699c-3.602,0.953-5.749,4.643-4.797,8.244l1.154,7.01l33.095-8.749
					l-1.808-6.838C32.044,395.252,28.352,393.104,24.752,394.057z"/>
				<path fill="#15927E" d="M1.391,414.526l-1.154-7.012c-0.997-3.77,1.259-7.648,5.031-8.646l2.642-0.699
					c0.1-0.025,0.207-0.004,0.287,0.061c2.019,1.578,4.874,2.084,7.638,1.354c2.763-0.732,4.995-2.582,5.97-4.951
					c0.039-0.096,0.121-0.168,0.22-0.193l2.645-0.699c3.77-0.998,7.648,1.26,8.646,5.029l1.808,6.84 M1.943,414.04l32.459-8.583
					l-1.724-6.52c-0.904-3.422-4.423-5.469-7.843-4.564l-2.488,0.658c-1.081,2.486-3.441,4.42-6.347,5.188
					c-2.9,0.768-5.908,0.254-8.079-1.373l-2.486,0.658c-3.422,0.904-5.468,4.422-4.562,7.842L1.943,414.04z"/>
			</g>
			<g clip-path="url(#SVGID_12_)">
				<g>
					<path fill="#15927E" d="M2.525,388.086c-1.552-5.873,1.522-11.777,6.867-13.191c5.344-1.412,10.934,2.201,12.486,8.072
						c1.553,5.873-1.087,13.42-6.431,14.832C10.103,399.213,4.078,393.956,2.525,388.086z"/>
					<path fill="#15927E" d="M15.481,397.928c-5.521,1.459-11.567-4.074-13.083-9.809c-1.569-5.934,1.553-11.922,6.961-13.352
						c5.405-1.43,11.079,2.232,12.647,8.166C23.523,388.668,21.004,396.467,15.481,397.928z M9.427,375.024
						c-5.267,1.391-8.304,7.236-6.772,13.027c1.485,5.615,7.383,11.043,12.761,9.621c5.377-1.422,7.821-9.055,6.336-14.67
						C20.22,377.209,14.691,373.631,9.427,375.024z"/>
				</g>
			</g>
		</g>
		<polygon fill="#F6F6F6" stroke="#F6F6F6" stroke-width="0.1704" stroke-linejoin="round" stroke-miterlimit="10" points="
			157.053,369.348 81.82,389.239 71.263,349.308 		"/>
		
			<rect x="98.002" y="338.388" transform="matrix(0.9668 -0.2556 0.2556 0.9668 -87.0706 43.5416)" fill="#834E53" stroke="#834E53" stroke-width="0.1312" stroke-miterlimit="10" width="51.937" height="36.693"/>
		<polygon fill="#653943" stroke="#653943" stroke-width="0.1312" stroke-miterlimit="10" points="153.767,367.833 103.555,381.11 
			94.175,345.636 		"/>
		<g>
			
				<path fill="#653943" stroke="#653943" stroke-width="0.3374" stroke-linecap="round" stroke-linejoin="round" stroke-miterlimit="10" d="
				M83.568,351.804c0.267,1.004,0.3,1.82,0.102,2.449c-0.198,0.631-0.623,1.029-1.271,1.201s-1.23,0.033-1.75-0.416
				c-0.521-0.449-0.913-1.178-1.18-2.186c-0.266-1.007-0.289-1.83-0.065-2.465c0.223-0.636,0.673-1.042,1.349-1.221
				C82.072,348.818,83.012,349.697,83.568,351.804z M83.192,351.742c-0.224-0.844-0.538-1.457-0.944-1.846
				c-0.404-0.389-0.879-0.511-1.421-0.367c-0.542,0.143-0.909,0.486-1.099,1.033c-0.191,0.545-0.165,1.281,0.079,2.207
				c0.286,1.084,0.743,1.812,1.37,2.188c0.349,0.209,0.698,0.266,1.053,0.174c0.352-0.096,0.621-0.252,0.805-0.469
				c0.184-0.219,0.299-0.48,0.349-0.787C83.479,353.297,83.415,352.585,83.192,351.742z"/>
			
				<path fill="#653943" stroke="#653943" stroke-width="0.3374" stroke-linecap="round" stroke-linejoin="round" stroke-miterlimit="10" d="
				M88.855,350.406c0.265,1.004,0.299,1.822,0.1,2.451c-0.198,0.629-0.622,1.029-1.27,1.201c-0.648,0.171-1.233,0.031-1.753-0.417
				c-0.519-0.448-0.912-1.177-1.179-2.186c-0.266-1.007-0.288-1.83-0.065-2.464c0.224-0.637,0.672-1.043,1.349-1.222
				C87.357,347.421,88.298,348.298,88.855,350.406z M88.477,350.345c-0.223-0.844-0.536-1.46-0.942-1.848
				c-0.405-0.389-0.879-0.51-1.421-0.367c-0.542,0.144-0.908,0.488-1.1,1.033c-0.191,0.547-0.164,1.282,0.081,2.208
				c0.286,1.083,0.741,1.812,1.368,2.187c0.35,0.209,0.7,0.267,1.053,0.173c0.354-0.094,0.621-0.25,0.805-0.467
				c0.184-0.219,0.3-0.48,0.351-0.786C88.765,351.9,88.699,351.189,88.477,350.345z"/>
			
				<path fill="#653943" stroke="#653943" stroke-width="0.3374" stroke-linecap="round" stroke-linejoin="round" stroke-miterlimit="10" d="
				M75.298,354.074l-0.873-3.305l2.725-0.72l0.09,0.339l-2.442,0.646l0.583,2.204c0.22-0.292,0.498-0.483,0.834-0.572
				c0.605-0.159,1.113-0.092,1.525,0.203c0.413,0.296,0.693,0.726,0.842,1.286s0.118,1.113-0.091,1.654
				c-0.21,0.541-0.574,0.883-1.096,1.02c-0.37,0.1-0.731,0.068-1.085-0.09c-0.354-0.159-0.584-0.411-0.693-0.762l0.308-0.08
				c0.082,0.226,0.257,0.396,0.521,0.512c0.264,0.115,0.562,0.131,0.896,0.043c0.422-0.111,0.712-0.385,0.872-0.818
				c0.159-0.435,0.179-0.887,0.055-1.355c-0.124-0.471-0.359-0.832-0.705-1.088c-0.347-0.255-0.769-0.316-1.267-0.184
				c-0.249,0.066-0.463,0.197-0.642,0.395S75.358,353.824,75.298,354.074z"/>
		</g>
		<g>
			
				<path fill="#B07F84" stroke="#B07F84" stroke-width="0.3374" stroke-linecap="round" stroke-linejoin="round" stroke-miterlimit="10" d="
				M146.108,365.043c0.266,1.005,0.3,1.821,0.102,2.45c-0.199,0.629-0.622,1.03-1.271,1.202c-0.648,0.172-1.232,0.033-1.752-0.417
				c-0.521-0.45-0.913-1.178-1.179-2.186c-0.267-1.006-0.288-1.83-0.064-2.465c0.223-0.636,0.672-1.043,1.347-1.221
				C144.612,362.058,145.552,362.937,146.108,365.043z M145.73,364.982c-0.223-0.843-0.537-1.459-0.942-1.846
				c-0.406-0.389-0.879-0.511-1.421-0.367c-0.543,0.143-0.909,0.486-1.101,1.033c-0.192,0.545-0.165,1.279,0.08,2.207
				c0.286,1.082,0.744,1.812,1.371,2.188c0.347,0.208,0.698,0.265,1.052,0.171c0.353-0.093,0.62-0.249,0.805-0.466
				c0.184-0.218,0.3-0.48,0.349-0.787C146.018,366.537,145.954,365.827,145.73,364.982z"/>
			
				<path fill="#B07F84" stroke="#B07F84" stroke-width="0.3374" stroke-linecap="round" stroke-linejoin="round" stroke-miterlimit="10" d="
				M151.393,363.646c0.267,1.004,0.301,1.821,0.103,2.451c-0.199,0.628-0.621,1.029-1.271,1.2c-0.649,0.172-1.232,0.032-1.753-0.416
				c-0.518-0.45-0.911-1.179-1.177-2.187c-0.267-1.006-0.29-1.828-0.066-2.463c0.223-0.637,0.672-1.043,1.35-1.223
				C149.897,360.661,150.836,361.54,151.393,363.646z M151.017,363.585c-0.223-0.844-0.537-1.461-0.943-1.848
				c-0.405-0.389-0.879-0.51-1.421-0.366s-0.908,0.486-1.1,1.032c-0.191,0.545-0.165,1.282,0.08,2.208
				c0.286,1.083,0.743,1.812,1.37,2.187c0.349,0.209,0.7,0.266,1.052,0.171c0.353-0.092,0.621-0.247,0.806-0.464
				c0.183-0.22,0.3-0.481,0.348-0.787C151.305,365.138,151.239,364.428,151.017,363.585z"/>
			
				<path fill="#B07F84" stroke="#B07F84" stroke-width="0.3374" stroke-linecap="round" stroke-linejoin="round" stroke-miterlimit="10" d="
				M137.838,367.314l-0.873-3.305l2.725-0.72l0.089,0.337l-2.442,0.646l0.585,2.207c0.216-0.294,0.495-0.483,0.833-0.572
				c0.604-0.16,1.111-0.093,1.525,0.202c0.412,0.296,0.693,0.725,0.842,1.286c0.148,0.561,0.117,1.114-0.092,1.655
				s-0.574,0.881-1.095,1.02c-0.371,0.098-0.732,0.066-1.085-0.09c-0.354-0.16-0.585-0.414-0.695-0.762l0.309-0.082
				c0.083,0.227,0.258,0.398,0.521,0.514c0.265,0.117,0.562,0.131,0.896,0.043c0.421-0.111,0.711-0.385,0.872-0.818
				c0.16-0.436,0.18-0.888,0.055-1.357c-0.123-0.47-0.359-0.831-0.705-1.087c-0.346-0.255-0.768-0.316-1.266-0.184
				c-0.249,0.066-0.463,0.195-0.643,0.395C138.016,366.839,137.896,367.064,137.838,367.314z"/>
		</g>
	</g>
	<g>
		
			<rect x="147.145" y="347.775" transform="matrix(0.9649 0.2628 -0.2628 0.9649 103.3452 -35.9413)" fill="#FFFFFF" stroke="#FFFFFF" stroke-width="0.1704" stroke-miterlimit="10" width="77.817" height="41.303"/>
		<g>
			<defs>
				<polygon id="SVGID_13_" points="216.053,393.661 168.358,380.674 178.186,347.156 225.882,360.144 				"/>
			</defs>
			<clipPath id="SVGID_14_">
				<use xlink:href="#SVGID_13_"  overflow="visible"/>
			</clipPath>
			<g clip-path="url(#SVGID_14_)">
				<path fill="#15927E" d="M91.272,353.728l-2.639-0.718c-2.293,1.767-5.374,2.05-7.935,1.354
					c-2.561-0.698-5.072-2.505-6.151-5.191l-2.638-0.718c-3.595-0.979-7.301,1.14-8.279,4.735l-2.511,6.646l33.028,8.996
					l1.858-6.824C96.986,358.414,94.865,354.705,91.272,353.728z"/>
				<path fill="#15927E" d="M60.802,359.751l2.511-6.648c1.024-3.762,4.919-5.991,8.685-4.966l2.637,0.717
					c0.099,0.028,0.182,0.1,0.219,0.196c0.957,2.376,3.176,4.244,5.934,4.996c2.758,0.749,5.616,0.266,7.646-1.297
					c0.082-0.063,0.188-0.085,0.287-0.058l2.639,0.719c3.764,1.023,5.99,4.92,4.967,8.682l-1.86,6.826 M61.523,359.607l32.395,8.821
					l1.772-6.506c0.931-3.415-1.091-6.949-4.504-7.878l-2.483-0.676c-2.181,1.611-5.192,2.104-8.091,1.313
					c-2.896-0.788-5.242-2.738-6.307-5.233l-2.482-0.675c-3.414-0.93-6.946,1.09-7.875,4.504L61.523,359.607z"/>
			</g>
			<g clip-path="url(#SVGID_14_)">
				<g>
					<path fill="#15927E" d="M75.021,337.432c1.597-5.861,7.214-9.433,12.549-7.981c5.332,1.453,8.362,7.379,6.767,13.239
						c-1.596,5.861-7.659,11.073-12.992,9.62C76.01,350.857,73.427,343.29,75.021,337.432z"/>
					<path fill="#15927E" d="M81.309,352.438c-5.51-1.501-7.973-9.318-6.414-15.041c1.612-5.922,7.312-9.543,12.71-8.073
						c5.396,1.468,8.474,7.479,6.86,13.401C92.906,348.448,86.821,353.938,81.309,352.438z M87.535,329.579
						c-5.256-1.433-10.812,2.107-12.385,7.887c-1.525,5.604,0.862,13.255,6.229,14.717c5.366,1.461,11.304-3.922,12.829-9.527
						C95.784,336.875,92.789,331.01,87.535,329.579z"/>
				</g>
			</g>
		</g>
		<polygon fill="#F6F6F6" stroke="#F6F6F6" stroke-width="0.1704" stroke-linejoin="round" stroke-miterlimit="10" points="
			218.169,398.576 143.086,378.128 153.938,338.277 		"/>
		
			<rect x="169.878" y="352.748" transform="matrix(0.9649 0.2627 -0.2627 0.9649 104.3825 -38.4189)" fill="#834E53" stroke="#834E53" stroke-width="0.1312" stroke-miterlimit="10" width="51.937" height="36.693"/>
		<polygon fill="#653943" stroke="#653943" stroke-width="0.1312" stroke-miterlimit="10" points="216.082,395.619 165.97,381.973 
			175.61,346.569 		"/>
		<g>
			
				<path fill="#653943" stroke="#653943" stroke-width="0.3374" stroke-linecap="round" stroke-linejoin="round" stroke-miterlimit="10" d="
				M163.341,346.599c-0.272,1.002-0.652,1.726-1.139,2.171c-0.487,0.447-1.055,0.579-1.702,0.403s-1.081-0.587-1.307-1.236
				c-0.226-0.649-0.2-1.477,0.073-2.482c0.274-1.005,0.666-1.729,1.178-2.167c0.511-0.439,1.104-0.565,1.778-0.381
				C163.54,343.264,163.914,344.496,163.341,346.599z M163.046,346.356c0.229-0.842,0.264-1.53,0.107-2.07
				c-0.156-0.539-0.506-0.882-1.047-1.029c-0.54-0.148-1.03-0.034-1.468,0.344c-0.438,0.376-0.784,1.027-1.037,1.95
				c-0.295,1.082-0.264,1.941,0.091,2.58c0.197,0.355,0.472,0.58,0.824,0.678c0.353,0.093,0.664,0.093,0.932-0.003
				c0.269-0.098,0.499-0.267,0.696-0.507C162.515,347.846,162.816,347.198,163.046,346.356z"/>
			
				<path fill="#653943" stroke="#653943" stroke-width="0.3374" stroke-linecap="round" stroke-linejoin="round" stroke-miterlimit="10" d="
				M168.617,348.035c-0.273,1.001-0.653,1.727-1.141,2.171c-0.486,0.445-1.054,0.58-1.7,0.404c-0.647-0.177-1.084-0.59-1.309-1.239
				c-0.225-0.647-0.201-1.475,0.073-2.482c0.274-1.004,0.667-1.728,1.177-2.166c0.513-0.439,1.104-0.566,1.779-0.382
				C168.814,344.702,169.189,345.932,168.617,348.035z M168.319,347.793c0.23-0.842,0.268-1.532,0.109-2.071
				c-0.156-0.54-0.506-0.881-1.046-1.029c-0.541-0.147-1.03-0.032-1.47,0.344c-0.439,0.378-0.783,1.028-1.035,1.952
				c-0.294,1.081-0.265,1.939,0.09,2.578c0.198,0.356,0.473,0.582,0.825,0.677c0.353,0.096,0.663,0.094,0.931-0.001
				c0.268-0.097,0.5-0.266,0.696-0.505C167.791,349.283,168.09,348.635,168.319,347.793z"/>
			
				<path fill="#653943" stroke="#653943" stroke-width="0.3374" stroke-linecap="round" stroke-linejoin="round" stroke-miterlimit="10" d="
				M155.045,344.422l0.898-3.298l2.72,0.741l-0.093,0.338l-2.438-0.663l-0.599,2.2c0.336-0.143,0.673-0.169,1.008-0.078
				c0.604,0.165,1.01,0.478,1.219,0.939c0.21,0.463,0.237,0.975,0.085,1.535c-0.151,0.56-0.455,1.023-0.906,1.387
				c-0.453,0.363-0.939,0.477-1.459,0.334c-0.37-0.099-0.668-0.307-0.895-0.621c-0.227-0.315-0.3-0.648-0.219-1.006l0.307,0.084
				c-0.042,0.236,0.023,0.472,0.194,0.704c0.171,0.232,0.421,0.395,0.754,0.485c0.421,0.115,0.81,0.023,1.165-0.271
				c0.355-0.296,0.599-0.678,0.726-1.146c0.129-0.47,0.105-0.9-0.065-1.295c-0.173-0.394-0.507-0.659-1.005-0.793
				c-0.248-0.067-0.499-0.061-0.752,0.021C155.437,344.101,155.223,344.236,155.045,344.422z"/>
		</g>
		<g>
			
				<path fill="#B07F84" stroke="#B07F84" stroke-width="0.3374" stroke-linecap="round" stroke-linejoin="round" stroke-miterlimit="10" d="
				M210.85,389.37c-0.272,1.003-0.652,1.727-1.139,2.172c-0.487,0.444-1.054,0.58-1.702,0.404c-0.647-0.176-1.084-0.588-1.309-1.238
				c-0.225-0.65-0.2-1.477,0.074-2.482c0.273-1.004,0.667-1.729,1.179-2.166c0.511-0.438,1.104-0.566,1.776-0.382
				C211.05,386.037,211.423,387.268,210.85,389.37z M210.554,389.127c0.229-0.841,0.266-1.532,0.108-2.069
				c-0.157-0.54-0.505-0.882-1.047-1.029c-0.541-0.148-1.03-0.034-1.47,0.343c-0.439,0.375-0.783,1.025-1.035,1.951
				c-0.295,1.08-0.264,1.941,0.092,2.58c0.195,0.354,0.472,0.579,0.824,0.674c0.352,0.096,0.662,0.095,0.93,0
				c0.269-0.097,0.5-0.266,0.696-0.507C210.023,390.617,210.324,389.971,210.554,389.127z"/>
			
				<path fill="#B07F84" stroke="#B07F84" stroke-width="0.3374" stroke-linecap="round" stroke-linejoin="round" stroke-miterlimit="10" d="
				M216.124,390.806c-0.272,1.002-0.651,1.728-1.139,2.173c-0.486,0.444-1.053,0.58-1.701,0.403
				c-0.647-0.176-1.082-0.589-1.309-1.238c-0.223-0.649-0.199-1.477,0.076-2.482c0.272-1.004,0.664-1.728,1.176-2.165
				c0.511-0.44,1.104-0.566,1.78-0.383C216.324,387.473,216.696,388.704,216.124,390.806z M215.828,390.565
				c0.23-0.842,0.267-1.534,0.108-2.072c-0.156-0.54-0.505-0.881-1.046-1.029c-0.541-0.147-1.03-0.034-1.469,0.343
				c-0.438,0.376-0.785,1.027-1.036,1.952c-0.295,1.081-0.264,1.94,0.091,2.579c0.197,0.355,0.474,0.581,0.825,0.674
				c0.352,0.097,0.661,0.097,0.93,0.002c0.268-0.099,0.5-0.267,0.695-0.507C215.301,392.054,215.6,391.406,215.828,390.565z"/>
			
				<path fill="#B07F84" stroke="#B07F84" stroke-width="0.3374" stroke-linecap="round" stroke-linejoin="round" stroke-miterlimit="10" d="
				M202.554,387.195l0.898-3.298l2.719,0.741l-0.092,0.336l-2.438-0.663l-0.599,2.204c0.334-0.146,0.671-0.171,1.008-0.079
				c0.603,0.164,1.009,0.476,1.22,0.939c0.208,0.462,0.237,0.974,0.084,1.535c-0.152,0.56-0.456,1.023-0.908,1.387
				c-0.451,0.364-0.938,0.475-1.458,0.334c-0.37-0.101-0.667-0.309-0.894-0.621c-0.227-0.315-0.3-0.651-0.221-1.007l0.308,0.083
				c-0.041,0.238,0.024,0.474,0.194,0.706c0.171,0.234,0.422,0.395,0.754,0.486c0.42,0.114,0.809,0.023,1.164-0.272
				c0.357-0.297,0.601-0.678,0.728-1.147c0.129-0.468,0.104-0.899-0.066-1.294c-0.171-0.394-0.506-0.658-1.003-0.792
				c-0.249-0.067-0.499-0.063-0.754,0.02C202.945,386.873,202.729,387.007,202.554,387.195z"/>
		</g>
	</g>
	<g>
		
			<rect x="118.144" y="307.791" transform="matrix(0.9649 0.2628 -0.2628 0.9649 91.82 -29.726)" fill="#FFFFFF" stroke="#FFFFFF" stroke-width="0.1704" stroke-miterlimit="10" width="77.817" height="41.303"/>
		<g>
			<defs>
				<polygon id="SVGID_15_" points="187.052,353.677 139.357,340.69 149.185,307.172 196.881,320.16 				"/>
			</defs>
			<clipPath id="SVGID_16_">
				<use xlink:href="#SVGID_15_"  overflow="visible"/>
			</clipPath>
			<g clip-path="url(#SVGID_16_)">
				<path fill="#15927E" d="M62.271,313.744l-2.639-0.718c-2.293,1.767-5.374,2.05-7.935,1.354
					c-2.561-0.698-5.072-2.505-6.151-5.191l-2.638-0.718c-3.595-0.979-7.301,1.14-8.279,4.735l-2.511,6.646l33.028,8.996
					l1.858-6.824C67.985,318.43,65.864,314.721,62.271,313.744z"/>
				<path fill="#15927E" d="M31.801,319.767l2.511-6.648c1.024-3.762,4.919-5.991,8.685-4.966l2.637,0.717
					c0.099,0.028,0.182,0.1,0.219,0.196c0.957,2.376,3.176,4.244,5.934,4.996c2.758,0.749,5.616,0.266,7.646-1.297
					c0.082-0.063,0.188-0.085,0.287-0.058l2.639,0.719c3.764,1.023,5.99,4.92,4.967,8.682l-1.86,6.826 M32.522,319.623l32.395,8.821
					l1.772-6.506c0.931-3.415-1.091-6.949-4.504-7.878l-2.483-0.676c-2.181,1.611-5.192,2.104-8.091,1.313
					c-2.896-0.788-5.242-2.738-6.307-5.233l-2.482-0.675c-3.414-0.93-6.946,1.09-7.875,4.504L32.522,319.623z"/>
			</g>
			<g clip-path="url(#SVGID_16_)">
				<g>
					<path fill="#15927E" d="M46.021,297.448c1.597-5.861,7.214-9.433,12.549-7.981c5.332,1.453,8.362,7.379,6.767,13.239
						c-1.596,5.861-7.659,11.073-12.992,9.62C47.009,310.874,44.426,303.306,46.021,297.448z"/>
					<path fill="#15927E" d="M52.308,312.454c-5.51-1.501-7.973-9.318-6.414-15.041c1.612-5.922,7.312-9.543,12.71-8.073
						c5.396,1.468,8.474,7.479,6.86,13.401C63.905,308.464,57.82,313.954,52.308,312.454z M58.534,289.595
						c-5.256-1.433-10.812,2.107-12.385,7.887c-1.525,5.604,0.862,13.255,6.229,14.717c5.366,1.461,11.304-3.922,12.829-9.527
						C66.783,296.891,63.788,291.026,58.534,289.595z"/>
				</g>
			</g>
		</g>
		<polygon fill="#F6F6F6" stroke="#F6F6F6" stroke-width="0.1704" stroke-linejoin="round" stroke-miterlimit="10" points="
			189.168,358.592 114.085,338.145 124.937,298.293 		"/>
		
			<rect x="140.877" y="312.764" transform="matrix(0.9649 0.2627 -0.2627 0.9649 92.8582 -32.204)" fill="#834E53" stroke="#834E53" stroke-width="0.1312" stroke-miterlimit="10" width="51.937" height="36.693"/>
		<polygon fill="#653943" stroke="#653943" stroke-width="0.1312" stroke-miterlimit="10" points="187.081,355.635 136.969,341.989 
			146.609,306.585 		"/>
		<g>
			
				<path fill="#653943" stroke="#653943" stroke-width="0.3374" stroke-linecap="round" stroke-linejoin="round" stroke-miterlimit="10" d="
				M134.34,306.615c-0.272,1.002-0.652,1.726-1.139,2.171c-0.487,0.447-1.055,0.579-1.702,0.403s-1.081-0.587-1.307-1.236
				c-0.226-0.649-0.2-1.477,0.073-2.482c0.274-1.005,0.666-1.729,1.178-2.167c0.511-0.439,1.104-0.565,1.778-0.381
				C134.539,303.28,134.913,304.512,134.34,306.615z M134.045,306.372c0.229-0.842,0.264-1.53,0.107-2.07
				c-0.156-0.539-0.506-0.882-1.047-1.029c-0.54-0.148-1.03-0.034-1.468,0.344c-0.438,0.376-0.784,1.027-1.037,1.95
				c-0.295,1.082-0.264,1.941,0.091,2.58c0.197,0.355,0.472,0.58,0.824,0.678c0.353,0.093,0.664,0.093,0.932-0.003
				c0.269-0.098,0.499-0.267,0.696-0.507C133.514,307.862,133.815,307.214,134.045,306.372z"/>
			
				<path fill="#653943" stroke="#653943" stroke-width="0.3374" stroke-linecap="round" stroke-linejoin="round" stroke-miterlimit="10" d="
				M139.616,308.051c-0.273,1.001-0.653,1.727-1.141,2.171c-0.486,0.445-1.054,0.58-1.7,0.404c-0.647-0.177-1.084-0.59-1.309-1.239
				c-0.225-0.647-0.201-1.475,0.073-2.482c0.274-1.004,0.667-1.728,1.177-2.166c0.513-0.439,1.104-0.566,1.779-0.382
				C139.813,304.718,140.188,305.948,139.616,308.051z M139.318,307.809c0.23-0.842,0.268-1.532,0.109-2.071
				c-0.156-0.54-0.506-0.881-1.046-1.029c-0.541-0.147-1.03-0.032-1.47,0.344c-0.439,0.378-0.783,1.028-1.035,1.952
				c-0.294,1.081-0.265,1.939,0.09,2.578c0.198,0.356,0.473,0.582,0.825,0.677c0.353,0.096,0.663,0.094,0.931-0.001
				c0.268-0.097,0.5-0.266,0.696-0.505C138.79,309.299,139.089,308.651,139.318,307.809z"/>
			
				<path fill="#653943" stroke="#653943" stroke-width="0.3374" stroke-linecap="round" stroke-linejoin="round" stroke-miterlimit="10" d="
				M126.044,304.438l0.898-3.298l2.72,0.741l-0.093,0.338l-2.438-0.663l-0.599,2.2c0.336-0.143,0.673-0.169,1.008-0.078
				c0.604,0.165,1.01,0.478,1.219,0.939c0.21,0.463,0.237,0.975,0.085,1.535c-0.151,0.56-0.455,1.023-0.906,1.387
				c-0.453,0.363-0.939,0.477-1.459,0.334c-0.37-0.099-0.668-0.307-0.895-0.621c-0.227-0.315-0.3-0.648-0.219-1.006l0.307,0.084
				c-0.042,0.236,0.023,0.472,0.194,0.704c0.171,0.232,0.421,0.395,0.754,0.485c0.421,0.115,0.81,0.023,1.165-0.271
				c0.355-0.296,0.599-0.678,0.726-1.146c0.129-0.47,0.105-0.9-0.065-1.295c-0.173-0.394-0.507-0.659-1.005-0.793
				c-0.248-0.067-0.499-0.061-0.752,0.021C126.436,304.117,126.222,304.252,126.044,304.438z"/>
		</g>
		<g>
			
				<path fill="#B07F84" stroke="#B07F84" stroke-width="0.3374" stroke-linecap="round" stroke-linejoin="round" stroke-miterlimit="10" d="
				M181.849,349.386c-0.272,1.003-0.652,1.727-1.139,2.172c-0.487,0.444-1.054,0.58-1.702,0.404
				c-0.647-0.176-1.084-0.588-1.309-1.238c-0.225-0.65-0.2-1.477,0.074-2.482c0.273-1.004,0.667-1.729,1.179-2.166
				c0.511-0.438,1.104-0.566,1.776-0.382C182.049,346.053,182.422,347.284,181.849,349.386z M181.553,349.144
				c0.229-0.841,0.266-1.532,0.108-2.069c-0.157-0.54-0.505-0.882-1.047-1.029c-0.541-0.148-1.03-0.034-1.47,0.343
				c-0.439,0.375-0.783,1.025-1.035,1.951c-0.295,1.08-0.264,1.941,0.092,2.58c0.195,0.354,0.472,0.579,0.824,0.674
				c0.352,0.096,0.662,0.095,0.93,0c0.269-0.097,0.5-0.266,0.696-0.507C181.022,350.633,181.323,349.987,181.553,349.144z"/>
			
				<path fill="#B07F84" stroke="#B07F84" stroke-width="0.3374" stroke-linecap="round" stroke-linejoin="round" stroke-miterlimit="10" d="
				M187.123,350.822c-0.272,1.002-0.651,1.728-1.139,2.173c-0.486,0.444-1.053,0.58-1.701,0.403
				c-0.647-0.176-1.082-0.589-1.309-1.238c-0.223-0.649-0.199-1.477,0.076-2.482c0.272-1.004,0.664-1.728,1.176-2.165
				c0.511-0.44,1.104-0.566,1.78-0.383C187.323,347.489,187.695,348.72,187.123,350.822z M186.827,350.582
				c0.23-0.842,0.267-1.534,0.108-2.072c-0.156-0.54-0.505-0.881-1.046-1.029c-0.541-0.147-1.03-0.034-1.469,0.343
				c-0.438,0.376-0.785,1.027-1.036,1.952c-0.295,1.081-0.264,1.94,0.091,2.579c0.197,0.355,0.474,0.581,0.825,0.674
				c0.352,0.097,0.661,0.097,0.93,0.002c0.268-0.099,0.5-0.267,0.695-0.507C186.3,352.07,186.599,351.422,186.827,350.582z"/>
			
				<path fill="#B07F84" stroke="#B07F84" stroke-width="0.3374" stroke-linecap="round" stroke-linejoin="round" stroke-miterlimit="10" d="
				M173.553,347.211l0.898-3.298l2.719,0.741l-0.092,0.336l-2.438-0.663l-0.599,2.204c0.334-0.146,0.671-0.171,1.008-0.079
				c0.603,0.164,1.009,0.476,1.22,0.939c0.208,0.462,0.237,0.974,0.084,1.535c-0.152,0.56-0.456,1.023-0.908,1.387
				c-0.451,0.364-0.938,0.475-1.458,0.334c-0.37-0.101-0.667-0.309-0.894-0.621c-0.227-0.315-0.3-0.651-0.221-1.007l0.308,0.083
				c-0.041,0.238,0.024,0.474,0.194,0.706c0.171,0.234,0.422,0.395,0.754,0.486c0.42,0.114,0.809,0.023,1.164-0.272
				c0.357-0.297,0.601-0.678,0.728-1.147c0.129-0.468,0.104-0.899-0.066-1.294c-0.171-0.394-0.506-0.658-1.003-0.792
				c-0.249-0.067-0.499-0.063-0.754,0.02C173.944,346.889,173.728,347.023,173.553,347.211z"/>
		</g>
	</g>
	<g>
		
			<rect x="197.656" y="347.728" transform="matrix(0.9892 0.1463 -0.1463 0.9892 56.254 -30.3733)" fill="#FFFFFF" stroke="#FFFFFF" stroke-width="0.1622" stroke-miterlimit="10" width="74.064" height="39.308"/>
		<g>
			<defs>
				<polygon id="SVGID_17_" points="265.473,389.582 216.572,382.354 222.348,347.906 271.248,355.134 				"/>
			</defs>
			<clipPath id="SVGID_18_">
				<use xlink:href="#SVGID_17_"  overflow="visible"/>
			</clipPath>
			<g clip-path="url(#SVGID_18_)">
				<path fill="#15927E" d="M136.831,364.758l-2.705-0.399c-2.068,2.025-5.094,2.676-7.718,2.289
					c-2.626-0.388-5.334-1.886-6.726-4.424l-2.704-0.4c-3.686-0.544-7.113,2.002-7.658,5.688l-1.703,6.898l33.865,5.006l1.034-6.999
					C143.062,368.732,140.516,365.303,136.831,364.758z"/>
				<path fill="#15927E" d="M107.293,374.361l1.701-6.898c0.57-3.859,4.174-6.535,8.031-5.964l2.706,0.399
					c0.102,0.016,0.19,0.078,0.24,0.169c1.232,2.246,3.655,3.837,6.485,4.254c2.826,0.419,5.608-0.403,7.438-2.196
					c0.073-0.073,0.176-0.105,0.277-0.09l2.706,0.398c3.857,0.571,6.532,4.174,5.962,8.033l-1.034,6.996 M107.991,374.13
					l33.213,4.91l0.986-6.672c0.518-3.499-1.909-6.767-5.409-7.286l-2.545-0.375c-1.975,1.858-4.904,2.704-7.877,2.265
					c-2.971-0.438-5.529-2.097-6.884-4.448l-2.546-0.375c-3.499-0.519-6.766,1.908-7.282,5.409L107.991,374.13z"/>
			</g>
			<g clip-path="url(#SVGID_18_)">
				<g>
					<path fill="#15927E" d="M118.758,350.51c0.889-6.009,6.042-10.225,11.511-9.416c5.469,0.809,9.182,6.334,8.294,12.342
						c-0.889,6.008-6.29,11.902-11.759,11.095C121.336,363.723,117.87,356.515,118.758,350.51z"/>
					<path fill="#15927E" d="M126.785,364.662c-5.651-0.835-9.024-8.306-8.158-14.172c0.898-6.071,6.128-10.345,11.661-9.528
						c5.533,0.818,9.303,6.421,8.405,12.494C137.825,359.323,132.436,365.497,126.785,364.662z M130.25,341.224
						c-5.39-0.797-10.485,3.377-11.361,9.304c-0.85,5.746,2.432,13.058,7.935,13.872c5.504,0.813,10.759-5.237,11.608-10.984
						C139.308,347.49,135.638,342.021,130.25,341.224z"/>
				</g>
			</g>
		</g>
		
			<polygon fill="#F6F6F6" stroke="#F6F6F6" stroke-width="0.1622" stroke-linecap="round" stroke-linejoin="round" stroke-miterlimit="10" points="
			268.447,392.241 195.18,381.409 200.929,342.523 		"/>
		
			<rect x="219.528" y="351.333" transform="matrix(0.9892 0.1462 -0.1462 0.9892 56.5617 -31.755)" fill="#29B09F" stroke="#29B09F" stroke-width="0.1249" stroke-miterlimit="10" width="49.433" height="34.922"/>
		<polygon fill="#21A38F" stroke="#21A38F" stroke-width="0.1249" stroke-miterlimit="10" points="266.141,389.682 217.239,382.452 
			222.348,347.906 		"/>
		<g>
			
				<path fill="#15927E" stroke="#15927E" stroke-width="0.3374" stroke-linecap="round" stroke-linejoin="round" stroke-miterlimit="10" d="
				M203.492,351.804l-0.353-0.052l0.89-6.02l-1.498,0.428l0.051-0.344l1.878-0.554L203.492,351.804z"/>
			
				<path fill="#15927E" stroke="#15927E" stroke-width="0.3374" stroke-linecap="round" stroke-linejoin="round" stroke-miterlimit="10" d="
				M209.378,349.388c-0.151,1.027-0.444,1.794-0.875,2.292c-0.429,0.5-0.977,0.7-1.64,0.603c-0.664-0.097-1.146-0.456-1.447-1.073
				c-0.3-0.618-0.374-1.442-0.222-2.472c0.153-1.032,0.456-1.795,0.912-2.292c0.456-0.498,1.027-0.694,1.722-0.591
				C209.178,346.055,209.697,347.232,209.378,349.388z M209.054,349.182c0.128-0.863,0.083-1.552-0.139-2.07
				c-0.219-0.515-0.606-0.815-1.16-0.896c-0.555-0.082-1.027,0.091-1.418,0.516c-0.392,0.428-0.656,1.115-0.798,2.061
				c-0.162,1.109-0.031,1.96,0.396,2.551c0.239,0.329,0.539,0.52,0.901,0.573c0.36,0.053,0.667,0.018,0.922-0.112
				c0.255-0.129,0.466-0.323,0.631-0.583C208.705,350.726,208.927,350.046,209.054,349.182z"/>
			
				<path fill="#15927E" stroke="#15927E" stroke-width="0.3374" stroke-linecap="round" stroke-linejoin="round" stroke-miterlimit="10" d="
				M214.787,350.187c-0.154,1.028-0.444,1.792-0.874,2.293c-0.432,0.499-0.978,0.7-1.643,0.601
				c-0.662-0.098-1.145-0.455-1.444-1.073c-0.302-0.616-0.375-1.442-0.224-2.473c0.153-1.031,0.458-1.795,0.913-2.29
				c0.455-0.498,1.028-0.694,1.719-0.592C214.588,346.855,215.104,348.031,214.787,350.187z M214.461,349.981
				c0.128-0.862,0.082-1.551-0.136-2.068c-0.22-0.515-0.607-0.815-1.161-0.898c-0.555-0.081-1.029,0.09-1.418,0.516
				c-0.395,0.428-0.658,1.113-0.798,2.062c-0.164,1.109-0.032,1.96,0.397,2.55c0.236,0.328,0.536,0.52,0.897,0.571
				c0.361,0.055,0.67,0.019,0.926-0.111c0.252-0.13,0.464-0.324,0.63-0.583C214.113,351.524,214.335,350.845,214.461,349.981z"/>
		</g>
		<g>
			
				<path fill="#9AD2CE" stroke="#9AD2CE" stroke-width="0.3374" stroke-linecap="round" stroke-linejoin="round" stroke-miterlimit="10" d="
				M254.185,386.549l-0.354-0.052l0.889-6.018l-1.495,0.427l0.053-0.345l1.874-0.554L254.185,386.549z"/>
			
				<path fill="#9AD2CE" stroke="#9AD2CE" stroke-width="0.3374" stroke-linecap="round" stroke-linejoin="round" stroke-miterlimit="10" d="
				M260.069,384.134c-0.151,1.027-0.442,1.792-0.873,2.291c-0.431,0.5-0.978,0.704-1.642,0.604
				c-0.664-0.096-1.146-0.455-1.445-1.073c-0.301-0.616-0.374-1.442-0.223-2.472c0.154-1.032,0.455-1.796,0.912-2.292
				c0.455-0.497,1.028-0.694,1.721-0.591C259.871,380.8,260.389,381.979,260.069,384.134z M259.746,383.93
				c0.128-0.864,0.083-1.555-0.138-2.07c-0.22-0.515-0.607-0.814-1.161-0.898c-0.557-0.083-1.027,0.092-1.418,0.518
				c-0.392,0.426-0.656,1.113-0.797,2.06c-0.164,1.109-0.032,1.957,0.396,2.55c0.238,0.33,0.538,0.521,0.899,0.574
				c0.362,0.052,0.668,0.016,0.921-0.114c0.256-0.125,0.467-0.321,0.635-0.583C259.397,385.472,259.619,384.792,259.746,383.93z"/>
			
				<path fill="#9AD2CE" stroke="#9AD2CE" stroke-width="0.3374" stroke-linecap="round" stroke-linejoin="round" stroke-miterlimit="10" d="
				M265.478,384.933c-0.152,1.03-0.443,1.794-0.872,2.291c-0.431,0.501-0.979,0.704-1.642,0.605s-1.145-0.457-1.446-1.075
				c-0.301-0.616-0.375-1.438-0.223-2.472c0.154-1.031,0.457-1.794,0.913-2.291c0.455-0.495,1.029-0.693,1.72-0.592
				C265.28,381.6,265.797,382.778,265.478,384.933z M265.155,384.729c0.126-0.862,0.08-1.554-0.138-2.07
				c-0.221-0.516-0.606-0.815-1.162-0.898c-0.555-0.083-1.027,0.092-1.418,0.517c-0.393,0.426-0.656,1.112-0.797,2.06
				c-0.163,1.11-0.03,1.959,0.398,2.552c0.237,0.327,0.536,0.518,0.897,0.572c0.361,0.053,0.67,0.017,0.925-0.111
				c0.254-0.127,0.463-0.323,0.629-0.585C264.807,386.272,265.027,385.59,265.155,384.729z"/>
		</g>
	</g>
</g>
</svg>
