<?xml version="1.0" encoding="utf-8"?>
<!-- Generator: Adobe Illustrator 15.0.2, SVG Export Plug-In . SVG Version: 6.00 Build 0)  -->
<!DOCTYPE svg PUBLIC "-//W3C//DTD SVG 1.1//EN" "http://www.w3.org/Graphics/SVG/1.1/DTD/svg11.dtd">
<svg version="1.1" id="Lager_1" xmlns="http://www.w3.org/2000/svg" xmlns:xlink="http://www.w3.org/1999/xlink" x="0px" y="0px"
	 width="285.634px" height="367.329px" viewBox="0 0 285.634 367.329" enable-background="new 0 0 285.634 367.329"
	 xml:space="preserve">
<g>
	<g>
		<g>
			
				<rect x="143.736" y="50.486" transform="matrix(0.3777 -0.9259 0.9259 0.3777 47.7858 213.3787)" fill="#FFFFFF" stroke="#FFFFFF" stroke-width="0.1704" stroke-miterlimit="10" width="77.817" height="41.302"/>
			<g>
				<defs>
					<polygon id="SVGID_1_" points="211.328,44.417 192.657,90.185 160.577,76.37 179.249,30.599 					"/>
				</defs>
				<clipPath id="SVGID_2_">
					<use xlink:href="#SVGID_1_"  overflow="visible"/>
				</clipPath>
				<g clip-path="url(#SVGID_2_)">
					<path fill="#139383" d="M156.568,163.438l-1.033,2.532c1.477,2.491,1.385,5.583,0.383,8.041
						c-1.003,2.457-3.101,4.73-5.897,5.477l-1.032,2.531c-1.407,3.449,0.248,7.385,3.697,8.793l6.293,3.297l12.931-31.696
						l-6.549-2.672C161.911,158.334,157.975,159.991,156.568,163.438z"/>
					<path fill="#139383" d="M158.854,194.413l-6.294-3.297c-3.611-1.473-5.351-5.609-3.877-9.223l1.032-2.529
						c0.039-0.096,0.12-0.168,0.22-0.193c2.476-0.662,4.598-2.639,5.678-5.285c1.079-2.646,0.944-5.543-0.36-7.748
						c-0.054-0.089-0.061-0.197-0.022-0.292l1.033-2.532c1.473-3.61,5.609-5.351,9.221-3.877l6.549,2.672 M158.799,193.681
						l12.682-31.088l-6.244-2.547c-3.275-1.336-7.028,0.241-8.364,3.518l-0.972,2.382c1.335,2.36,1.458,5.41,0.322,8.191
						c-1.133,2.779-3.353,4.871-5.959,5.625l-0.971,2.383c-1.338,3.275,0.24,7.027,3.517,8.363L158.799,193.681z"/>
				</g>
				<g clip-path="url(#SVGID_2_)">
					<g>
						<path fill="#139383" d="M138.423,177.595c-5.624-2.295-8.489-8.303-6.401-13.422s8.338-7.408,13.962-5.113
							c5.624,2.293,10.062,8.943,7.975,14.063C151.869,178.241,144.045,179.888,138.423,177.595z"/>
						<path fill="#139383" d="M154.08,173.171c-2.157,5.289-10.216,6.787-15.707,4.545c-5.683-2.316-8.586-8.415-6.474-13.594
							c2.112-5.178,8.452-7.504,14.135-5.186C151.525,161.176,156.237,167.882,154.08,173.171z M132.145,164.221
							c-2.059,5.044,0.781,10.987,6.328,13.25c5.379,2.193,13.262,0.75,15.363-4.4c2.101-5.151-2.523-11.696-7.902-13.89
							C140.387,156.918,134.201,159.18,132.145,164.221z"/>
					</g>
				</g>
			</g>
			<polygon fill="#F6F6F6" stroke="#F6F6F6" stroke-width="0.1704" stroke-linejoin="round" stroke-miterlimit="10" points="
				216.463,42.912 187.068,114.963 148.826,99.363 			"/>
			
				<rect x="160.511" y="43.393" transform="matrix(0.3777 -0.9259 0.9259 0.3777 58.874 211.0822)" fill="#855156" stroke="#855156" stroke-width="0.1312" stroke-miterlimit="10" width="51.937" height="36.693"/>
			<polygon fill="#673B45" stroke="#673B45" stroke-width="0.1312" stroke-miterlimit="10" points="213.275,44.625 193.657,92.714 
				159.683,78.854 			"/>
			<g>
				
					<path fill="#673B45" stroke="#673B45" stroke-width="0.3374" stroke-linecap="round" stroke-linejoin="round" stroke-miterlimit="10" d="
					M158.225,91.038c0.963,0.392,1.635,0.856,2.018,1.393c0.384,0.538,0.447,1.117,0.194,1.739c-0.253,0.62-0.715,1.003-1.386,1.147
					c-0.672,0.145-1.49,0.02-2.455-0.374s-1.636-0.871-2.008-1.431c-0.374-0.561-0.428-1.165-0.164-1.812
					C154.939,90.434,156.207,90.213,158.225,91.038z M157.949,91.301c-0.809-0.33-1.488-0.448-2.043-0.358
					c-0.554,0.09-0.937,0.396-1.148,0.915c-0.212,0.518-0.158,1.018,0.164,1.498c0.32,0.482,0.924,0.904,1.811,1.266
					c1.038,0.424,1.895,0.497,2.571,0.223c0.377-0.152,0.633-0.398,0.771-0.736c0.137-0.338,0.174-0.646,0.111-0.924
					c-0.064-0.279-0.204-0.528-0.419-0.752C159.363,92.008,158.757,91.63,157.949,91.301z"/>
				
					<path fill="#673B45" stroke="#673B45" stroke-width="0.3374" stroke-linecap="round" stroke-linejoin="round" stroke-miterlimit="10" d="
					M160.29,85.974c0.962,0.393,1.635,0.857,2.018,1.396c0.384,0.537,0.448,1.116,0.195,1.736c-0.254,0.621-0.717,1.004-1.388,1.148
					s-1.489,0.021-2.455-0.373c-0.964-0.395-1.635-0.871-2.007-1.432c-0.374-0.561-0.429-1.164-0.164-1.812
					C157.005,85.374,158.271,85.151,160.29,85.974z M160.014,86.239c-0.808-0.329-1.488-0.449-2.042-0.357
					c-0.555,0.089-0.937,0.395-1.148,0.912c-0.212,0.52-0.157,1.02,0.163,1.502c0.321,0.48,0.925,0.902,1.812,1.264
					c1.038,0.423,1.894,0.498,2.57,0.223c0.377-0.152,0.634-0.398,0.771-0.736c0.138-0.339,0.174-0.646,0.111-0.924
					c-0.064-0.278-0.203-0.529-0.417-0.754C161.429,86.946,160.821,86.569,160.014,86.239z"/>
				
					<path fill="#673B45" stroke="#673B45" stroke-width="0.3374" stroke-linecap="round" stroke-linejoin="round" stroke-miterlimit="10" d="
					M155.06,99.008l-3.164-1.291l1.064-2.609l0.325,0.133l-0.954,2.338l2.111,0.861c-0.101-0.35-0.086-0.688,0.045-1.01
					c0.237-0.58,0.597-0.944,1.08-1.096c0.485-0.152,0.997-0.117,1.534,0.102s0.96,0.575,1.267,1.068
					c0.306,0.494,0.359,0.99,0.155,1.488c-0.145,0.355-0.387,0.625-0.726,0.812c-0.34,0.187-0.68,0.219-1.025,0.096l0.12-0.295
					c0.23,0.07,0.472,0.033,0.724-0.107c0.251-0.142,0.442-0.371,0.572-0.689c0.165-0.404,0.122-0.8-0.128-1.189
					c-0.251-0.389-0.601-0.676-1.05-0.859c-0.45-0.184-0.881-0.214-1.293-0.092c-0.412,0.123-0.715,0.424-0.909,0.9
					c-0.097,0.239-0.12,0.489-0.07,0.75C154.788,98.581,154.896,98.81,155.06,99.008z"/>
			</g>
			<g>
				
					<path fill="#B28086" stroke="#B28086" stroke-width="0.3374" stroke-linecap="round" stroke-linejoin="round" stroke-miterlimit="10" d="
					M206.438,49.061c0.962,0.393,1.635,0.857,2.018,1.394c0.383,0.538,0.448,1.116,0.194,1.739c-0.254,0.62-0.716,1.004-1.387,1.148
					c-0.673,0.145-1.49,0.02-2.455-0.374c-0.964-0.394-1.635-0.872-2.007-1.433c-0.374-0.561-0.429-1.164-0.164-1.811
					C203.153,48.459,204.421,48.238,206.438,49.061z M206.162,49.327c-0.808-0.33-1.489-0.449-2.042-0.359
					c-0.555,0.091-0.937,0.395-1.148,0.914s-0.158,1.02,0.163,1.501c0.319,0.481,0.923,0.901,1.811,1.264
					c1.037,0.423,1.896,0.497,2.572,0.222c0.375-0.151,0.632-0.398,0.77-0.736s0.175-0.646,0.112-0.924
					c-0.063-0.277-0.203-0.527-0.419-0.752C207.576,50.033,206.971,49.656,206.162,49.327z"/>
				
					<path fill="#B28086" stroke="#B28086" stroke-width="0.3374" stroke-linecap="round" stroke-linejoin="round" stroke-miterlimit="10" d="
					M208.503,44c0.962,0.392,1.635,0.855,2.019,1.393c0.382,0.537,0.448,1.116,0.194,1.737c-0.254,0.622-0.717,1.004-1.388,1.149
					c-0.671,0.143-1.489,0.019-2.454-0.375c-0.964-0.394-1.635-0.87-2.007-1.431c-0.374-0.561-0.429-1.165-0.164-1.812
					C205.219,43.397,206.485,43.176,208.503,44z M208.228,44.264c-0.808-0.33-1.489-0.451-2.043-0.359
					c-0.554,0.09-0.937,0.396-1.147,0.914c-0.212,0.52-0.158,1.019,0.162,1.5c0.32,0.48,0.925,0.903,1.812,1.266
					c1.037,0.423,1.895,0.496,2.571,0.222c0.376-0.153,0.633-0.399,0.77-0.737c0.139-0.337,0.176-0.645,0.113-0.923
					c-0.064-0.278-0.203-0.529-0.419-0.751C209.642,44.969,209.035,44.593,208.228,44.264z"/>
				
					<path fill="#B28086" stroke="#B28086" stroke-width="0.3374" stroke-linecap="round" stroke-linejoin="round" stroke-miterlimit="10" d="
					M203.273,57.032l-3.164-1.291l1.064-2.609l0.323,0.133l-0.954,2.338l2.114,0.862c-0.104-0.35-0.088-0.687,0.044-1.01
					c0.236-0.579,0.596-0.943,1.08-1.097c0.485-0.15,0.996-0.117,1.534,0.102c0.537,0.22,0.96,0.576,1.266,1.07
					c0.307,0.492,0.358,0.988,0.155,1.487c-0.146,0.354-0.387,0.625-0.725,0.812c-0.34,0.188-0.682,0.219-1.026,0.098l0.12-0.296
					c0.231,0.07,0.473,0.033,0.724-0.108c0.253-0.14,0.443-0.37,0.573-0.688c0.164-0.403,0.121-0.8-0.128-1.188
					c-0.251-0.391-0.601-0.678-1.051-0.861c-0.449-0.184-0.881-0.213-1.292-0.09c-0.412,0.122-0.715,0.422-0.909,0.9
					c-0.097,0.238-0.122,0.487-0.071,0.75C203.002,56.605,203.109,56.836,203.273,57.032z"/>
			</g>
		</g>
		<g>
			
				<rect x="129.763" y="23.287" transform="matrix(0.3777 -0.9259 0.9259 0.3777 64.2752 183.5162)" fill="#FFFFFF" stroke="#FFFFFF" stroke-width="0.1704" stroke-miterlimit="10" width="77.817" height="41.302"/>
			<g>
				<defs>
					<polygon id="SVGID_3_" points="197.355,17.217 178.685,62.986 146.604,49.17 165.276,3.4 					"/>
				</defs>
				<clipPath id="SVGID_4_">
					<use xlink:href="#SVGID_3_"  overflow="visible"/>
				</clipPath>
				<g clip-path="url(#SVGID_4_)">
					<path fill="#139383" d="M142.596,136.239l-1.033,2.532c1.477,2.491,1.385,5.583,0.383,8.04
						c-1.003,2.457-3.101,4.73-5.897,5.478l-1.032,2.53c-1.407,3.45,0.248,7.386,3.697,8.793l6.293,3.297l12.931-31.695
						l-6.549-2.672C147.938,131.135,144.002,132.792,142.596,136.239z"/>
					<path fill="#139383" d="M144.882,167.214l-6.294-3.298c-3.611-1.473-5.351-5.609-3.877-9.222l1.032-2.53
						c0.039-0.096,0.12-0.168,0.22-0.193c2.476-0.662,4.598-2.638,5.678-5.285c1.079-2.646,0.944-5.543-0.36-7.747
						c-0.054-0.089-0.061-0.197-0.022-0.292l1.033-2.532c1.473-3.61,5.609-5.351,9.221-3.877l6.549,2.672 M144.826,166.481
						l12.682-31.088l-6.244-2.547c-3.275-1.336-7.028,0.241-8.364,3.518l-0.972,2.382c1.335,2.36,1.458,5.409,0.322,8.19
						c-1.133,2.779-3.353,4.871-5.959,5.626l-0.971,2.382c-1.338,3.276,0.24,7.027,3.517,8.363L144.826,166.481z"/>
				</g>
				<g clip-path="url(#SVGID_4_)">
					<g>
						<path fill="#139383" d="M124.45,150.395c-5.624-2.295-8.489-8.303-6.401-13.422s8.338-7.408,13.962-5.113
							c5.624,2.293,10.062,8.943,7.975,14.062C137.896,151.042,130.072,152.689,124.45,150.395z"/>
						<path fill="#139383" d="M140.107,145.971c-2.157,5.289-10.216,6.787-15.707,4.546c-5.683-2.317-8.586-8.415-6.474-13.595
							c2.112-5.178,8.452-7.504,14.135-5.186C137.553,133.977,142.265,140.683,140.107,145.971z M118.172,137.022
							c-2.059,5.044,0.781,10.986,6.328,13.25c5.379,2.193,13.262,0.75,15.363-4.4c2.101-5.15-2.523-11.695-7.902-13.89
							C126.414,129.719,120.229,131.981,118.172,137.022z"/>
					</g>
				</g>
			</g>
			<polygon fill="#F6F6F6" stroke="#F6F6F6" stroke-width="0.1704" stroke-linejoin="round" stroke-miterlimit="10" points="
				202.49,15.712 173.096,87.764 134.854,72.164 			"/>
			
				<rect x="146.538" y="16.194" transform="matrix(0.3777 -0.9259 0.9259 0.3777 75.3635 181.2196)" fill="#855156" stroke="#855156" stroke-width="0.1312" stroke-miterlimit="10" width="51.937" height="36.693"/>
			<polygon fill="#673B45" stroke="#673B45" stroke-width="0.1312" stroke-miterlimit="10" points="199.303,17.426 179.685,65.515 
				145.71,51.655 			"/>
			<g>
				
					<path fill="#673B45" stroke="#673B45" stroke-width="0.3374" stroke-linecap="round" stroke-linejoin="round" stroke-miterlimit="10" d="
					M144.252,63.838c0.963,0.392,1.635,0.856,2.018,1.393c0.384,0.538,0.447,1.117,0.194,1.739c-0.253,0.62-0.715,1.003-1.386,1.147
					c-0.672,0.145-1.49,0.02-2.455-0.374s-1.636-0.871-2.008-1.431c-0.374-0.561-0.428-1.165-0.164-1.812
					C140.967,63.235,142.234,63.014,144.252,63.838z M143.977,64.102c-0.809-0.33-1.488-0.448-2.043-0.358
					c-0.554,0.09-0.937,0.396-1.148,0.915c-0.212,0.518-0.158,1.018,0.164,1.498c0.32,0.482,0.924,0.904,1.811,1.266
					c1.038,0.424,1.895,0.497,2.571,0.223c0.377-0.152,0.633-0.398,0.771-0.736c0.137-0.338,0.174-0.646,0.111-0.924
					c-0.064-0.279-0.204-0.528-0.419-0.752C145.391,64.809,144.784,64.431,143.977,64.102z"/>
				
					<path fill="#673B45" stroke="#673B45" stroke-width="0.3374" stroke-linecap="round" stroke-linejoin="round" stroke-miterlimit="10" d="
					M146.317,58.775c0.962,0.393,1.635,0.857,2.018,1.396c0.384,0.537,0.448,1.116,0.195,1.736
					c-0.254,0.621-0.717,1.004-1.388,1.148s-1.489,0.021-2.455-0.373c-0.964-0.395-1.635-0.871-2.007-1.432
					c-0.374-0.561-0.429-1.164-0.164-1.812C143.032,58.174,144.299,57.952,146.317,58.775z M146.041,59.04
					c-0.808-0.329-1.488-0.449-2.042-0.357c-0.555,0.089-0.937,0.395-1.148,0.912c-0.212,0.52-0.157,1.02,0.163,1.502
					c0.321,0.48,0.925,0.902,1.812,1.264c1.038,0.423,1.894,0.498,2.57,0.223c0.377-0.152,0.634-0.398,0.771-0.736
					c0.138-0.339,0.174-0.646,0.111-0.924c-0.064-0.278-0.203-0.529-0.417-0.754C147.456,59.747,146.849,59.37,146.041,59.04z"/>
				
					<path fill="#673B45" stroke="#673B45" stroke-width="0.3374" stroke-linecap="round" stroke-linejoin="round" stroke-miterlimit="10" d="
					M141.087,71.809l-3.164-1.291l1.064-2.609l0.325,0.133l-0.954,2.338l2.111,0.861c-0.101-0.35-0.086-0.688,0.045-1.01
					c0.237-0.58,0.597-0.944,1.08-1.096c0.485-0.152,0.997-0.117,1.534,0.102s0.96,0.575,1.267,1.068
					c0.306,0.494,0.359,0.99,0.155,1.488c-0.145,0.355-0.387,0.625-0.726,0.812c-0.34,0.187-0.68,0.219-1.025,0.096l0.12-0.295
					c0.23,0.07,0.472,0.033,0.724-0.107c0.251-0.142,0.442-0.371,0.572-0.689c0.165-0.404,0.122-0.8-0.128-1.189
					c-0.251-0.389-0.601-0.676-1.05-0.859c-0.45-0.184-0.881-0.214-1.293-0.092c-0.412,0.123-0.715,0.424-0.909,0.9
					c-0.097,0.239-0.12,0.489-0.07,0.75C140.815,71.381,140.924,71.611,141.087,71.809z"/>
			</g>
			<g>
				
					<path fill="#B28086" stroke="#B28086" stroke-width="0.3374" stroke-linecap="round" stroke-linejoin="round" stroke-miterlimit="10" d="
					M192.466,21.862c0.962,0.393,1.635,0.857,2.018,1.394c0.383,0.538,0.448,1.116,0.194,1.739c-0.254,0.62-0.716,1.004-1.387,1.148
					c-0.673,0.145-1.49,0.02-2.455-0.374c-0.964-0.394-1.635-0.872-2.007-1.433c-0.374-0.561-0.429-1.164-0.164-1.811
					C189.181,21.26,190.448,21.039,192.466,21.862z M192.189,22.127c-0.808-0.33-1.489-0.449-2.042-0.359
					c-0.555,0.091-0.937,0.395-1.148,0.914s-0.158,1.02,0.163,1.501c0.319,0.481,0.923,0.901,1.811,1.264
					c1.037,0.423,1.896,0.497,2.572,0.222c0.375-0.151,0.632-0.398,0.77-0.736s0.175-0.646,0.112-0.924
					c-0.063-0.277-0.203-0.527-0.419-0.752C193.604,22.833,192.998,22.457,192.189,22.127z"/>
				
					<path fill="#B28086" stroke="#B28086" stroke-width="0.3374" stroke-linecap="round" stroke-linejoin="round" stroke-miterlimit="10" d="
					M194.53,16.801c0.962,0.392,1.635,0.855,2.019,1.393c0.382,0.537,0.448,1.116,0.194,1.737c-0.254,0.622-0.717,1.004-1.388,1.149
					c-0.671,0.143-1.489,0.019-2.454-0.375c-0.964-0.394-1.635-0.87-2.007-1.431c-0.374-0.561-0.429-1.165-0.164-1.812
					C191.246,16.198,192.513,15.977,194.53,16.801z M194.255,17.065c-0.808-0.33-1.489-0.451-2.043-0.359
					c-0.554,0.09-0.937,0.396-1.147,0.914c-0.212,0.52-0.158,1.019,0.162,1.5c0.32,0.48,0.925,0.903,1.812,1.266
					c1.037,0.423,1.895,0.496,2.571,0.222c0.376-0.153,0.633-0.399,0.77-0.737c0.139-0.337,0.176-0.645,0.113-0.923
					c-0.064-0.278-0.203-0.529-0.419-0.751C195.669,17.77,195.062,17.394,194.255,17.065z"/>
				
					<path fill="#B28086" stroke="#B28086" stroke-width="0.3374" stroke-linecap="round" stroke-linejoin="round" stroke-miterlimit="10" d="
					M189.301,29.833l-3.164-1.291l1.064-2.609l0.323,0.133l-0.954,2.338l2.114,0.862c-0.104-0.35-0.088-0.687,0.044-1.01
					c0.236-0.579,0.596-0.943,1.08-1.097c0.485-0.15,0.996-0.117,1.534,0.102c0.537,0.22,0.96,0.576,1.266,1.07
					c0.307,0.492,0.358,0.988,0.155,1.487c-0.146,0.354-0.387,0.625-0.725,0.812c-0.34,0.188-0.682,0.219-1.026,0.098l0.12-0.296
					c0.231,0.07,0.473,0.033,0.724-0.108c0.253-0.14,0.443-0.37,0.573-0.688c0.164-0.403,0.121-0.8-0.128-1.188
					c-0.251-0.391-0.601-0.678-1.051-0.861c-0.449-0.184-0.881-0.213-1.292-0.09c-0.412,0.122-0.715,0.422-0.909,0.9
					c-0.097,0.238-0.122,0.487-0.071,0.75C189.029,29.406,189.137,29.637,189.301,29.833z"/>
			</g>
		</g>
		<g>
			
				<rect x="111.198" y="44.821" transform="matrix(0.3742 0.9273 -0.9273 0.3742 154.648 -98.2285)" fill="#FFFFFF" stroke="#FFFFFF" stroke-width="0.1704" stroke-miterlimit="10" width="77.817" height="41.302"/>
			<g>
				<defs>
					<polygon id="SVGID_5_" points="148.151,104.625 129.652,58.786 162.289,46.342 180.788,92.184 					"/>
				</defs>
				<clipPath id="SVGID_6_">
					<use xlink:href="#SVGID_5_"  overflow="visible"/>
				</clipPath>
				<g clip-path="url(#SVGID_6_)">
					<path fill="#139383" d="M104.497-18.904l-1.023-2.536c-2.795-0.758-4.883-3.04-5.877-5.5c-0.992-2.461-1.072-5.554,0.413-8.038
						l-1.022-2.535c-1.395-3.455-5.324-5.124-8.778-3.73l-6.812,2.02L94.208-7.479l6.559-2.647
						C104.22-11.519,105.891-15.45,104.497-18.904z"/>
					<path fill="#139383" d="M81.273-39.529l6.812-2.019c3.616-1.46,7.747,0.294,9.206,3.913l1.023,2.534
						c0.038,0.096,0.031,0.204-0.023,0.292c-1.313,2.199-1.459,5.095-0.39,7.746c1.069,2.65,3.185,4.634,5.657,5.306
						c0.1,0.026,0.181,0.099,0.219,0.194l1.023,2.536c1.459,3.616-0.296,7.747-3.912,9.206l-6.56,2.646 M81.825-39.041L94.39-7.906
						l6.254-2.523c3.28-1.324,4.873-5.071,3.549-8.351l-0.963-2.386c-2.603-0.763-4.814-2.864-5.938-5.649
						c-1.124-2.784-0.989-5.832,0.354-8.188l-0.963-2.385c-1.324-3.282-5.07-4.873-8.352-3.548L81.825-39.041z"/>
				</g>
				<g clip-path="url(#SVGID_6_)">
					<g>
						<path fill="#139383" d="M107.648-41.701c5.633-2.273,11.875,0.041,13.944,5.167c2.068,5.126-0.82,11.124-6.453,13.397
							c-5.632,2.273-13.449,0.595-15.518-4.53C97.554-32.794,102.018-39.428,107.648-41.701z"/>
						<path fill="#139383" d="M99.499-27.618c-2.137-5.297,2.601-11.986,8.101-14.206c5.69-2.297,12.022,0.054,14.115,5.241
							c2.093,5.186-0.834,11.272-6.526,13.568C109.69-20.794,101.638-22.321,99.499-27.618z M121.47-36.483
							c-2.038-5.052-8.215-7.336-13.771-5.094c-5.388,2.174-10.036,8.703-7.954,13.861c2.081,5.158,9.959,6.631,15.346,4.457
							C120.646-25.501,123.508-31.434,121.47-36.483z"/>
					</g>
				</g>
			</g>
			<polygon fill="#F6F6F6" stroke="#F6F6F6" stroke-width="0.1704" stroke-linejoin="round" stroke-miterlimit="10" points="
				145.517,109.282 116.396,37.119 154.696,21.663 			"/>
			
				<rect x="127.935" y="56.539" transform="matrix(0.3742 0.9273 -0.9273 0.3742 165.753 -95.8595)" fill="#855156" stroke="#855156" stroke-width="0.1312" stroke-miterlimit="10" width="51.938" height="36.693"/>
			<polygon fill="#673B45" stroke="#673B45" stroke-width="0.1312" stroke-miterlimit="10" points="146.608,105.833 127.172,57.668 
				161.199,43.938 			"/>
			<g>
				
					<path fill="#673B45" stroke="#673B45" stroke-width="0.3374" stroke-linecap="round" stroke-linejoin="round" stroke-miterlimit="10" d="
					M153.757,34.182c-0.964,0.391-1.771,0.525-2.419,0.406c-0.649-0.117-1.099-0.488-1.351-1.111
					c-0.251-0.621-0.186-1.217,0.194-1.789c0.381-0.572,1.056-1.052,2.022-1.441c0.966-0.391,1.779-0.515,2.437-0.373
					c0.659,0.142,1.119,0.537,1.38,1.186C156.532,32.327,155.777,33.368,153.757,34.182z M153.771,33.801
					c0.81-0.326,1.38-0.715,1.715-1.166c0.334-0.45,0.396-0.936,0.187-1.456c-0.209-0.52-0.597-0.841-1.162-0.962
					s-1.292-0.004-2.181,0.355c-1.04,0.419-1.705,0.963-1.999,1.631c-0.164,0.373-0.178,0.727-0.04,1.066
					c0.137,0.338,0.326,0.584,0.563,0.74c0.24,0.154,0.515,0.236,0.824,0.248C152.263,34.28,152.961,34.128,153.771,33.801z"/>
				
					<path fill="#673B45" stroke="#673B45" stroke-width="0.3374" stroke-linecap="round" stroke-linejoin="round" stroke-miterlimit="10" d="
					M155.803,39.253c-0.963,0.389-1.77,0.524-2.42,0.405c-0.648-0.117-1.099-0.488-1.349-1.109
					c-0.251-0.623-0.187-1.219,0.193-1.791c0.381-0.57,1.056-1.052,2.022-1.442c0.966-0.39,1.779-0.515,2.436-0.372
					c0.66,0.141,1.119,0.537,1.382,1.186C158.578,37.395,157.824,38.438,155.803,39.253z M155.816,38.872
					c0.809-0.328,1.381-0.715,1.715-1.166c0.335-0.451,0.396-0.937,0.187-1.455c-0.21-0.521-0.597-0.842-1.162-0.963
					c-0.566-0.122-1.292-0.004-2.18,0.355c-1.041,0.42-1.707,0.962-2,1.631c-0.164,0.372-0.177,0.727-0.039,1.066
					c0.136,0.338,0.325,0.584,0.563,0.74c0.239,0.154,0.514,0.236,0.824,0.248C154.31,39.35,155.007,39.197,155.816,38.872z"/>
				
					<path fill="#673B45" stroke="#673B45" stroke-width="0.3374" stroke-linecap="round" stroke-linejoin="round" stroke-miterlimit="10" d="
					M150.473,26.26l3.17-1.279l1.054,2.613l-0.326,0.132l-0.944-2.342l-2.115,0.853c0.316,0.182,0.541,0.434,0.673,0.758
					c0.233,0.58,0.229,1.092-0.013,1.537c-0.242,0.447-0.633,0.779-1.171,0.996c-0.537,0.217-1.089,0.256-1.652,0.117
					c-0.563-0.142-0.947-0.461-1.149-0.96c-0.143-0.356-0.157-0.718-0.045-1.088c0.114-0.371,0.335-0.632,0.67-0.784l0.118,0.295
					c-0.215,0.111-0.362,0.305-0.443,0.582c-0.082,0.277-0.06,0.573,0.069,0.894c0.163,0.404,0.47,0.658,0.921,0.764
					c0.451,0.104,0.901,0.066,1.352-0.115c0.451-0.183,0.781-0.46,0.991-0.835c0.209-0.375,0.218-0.802,0.024-1.279
					c-0.097-0.239-0.255-0.435-0.472-0.588C150.965,26.377,150.729,26.288,150.473,26.26z"/>
			</g>
			<g>
				
					<path fill="#B28086" stroke="#B28086" stroke-width="0.3374" stroke-linecap="round" stroke-linejoin="round" stroke-miterlimit="10" d="
					M148.421,97.886c-0.962,0.389-1.77,0.524-2.418,0.406c-0.648-0.119-1.099-0.489-1.35-1.112
					c-0.251-0.621-0.187-1.219,0.193-1.789c0.382-0.572,1.055-1.053,2.021-1.443c0.966-0.39,1.779-0.514,2.438-0.371
					c0.659,0.143,1.119,0.537,1.38,1.185C151.197,96.029,150.442,97.071,148.421,97.886z M148.435,97.503
					c0.811-0.326,1.382-0.716,1.715-1.165c0.335-0.451,0.397-0.936,0.188-1.456s-0.597-0.842-1.163-0.963
					c-0.564-0.123-1.29-0.004-2.179,0.355c-1.039,0.419-1.707,0.964-2,1.633c-0.163,0.37-0.176,0.726-0.039,1.064
					s0.324,0.585,0.563,0.741c0.239,0.154,0.513,0.236,0.824,0.248C146.929,97.982,147.626,97.831,148.435,97.503z"/>
				
					<path fill="#B28086" stroke="#B28086" stroke-width="0.3374" stroke-linecap="round" stroke-linejoin="round" stroke-miterlimit="10" d="
					M150.468,102.956c-0.964,0.389-1.77,0.523-2.419,0.406c-0.648-0.119-1.1-0.488-1.351-1.11c-0.251-0.623-0.185-1.22,0.195-1.791
					c0.382-0.57,1.055-1.052,2.021-1.44c0.966-0.391,1.778-0.516,2.437-0.373c0.659,0.141,1.118,0.537,1.381,1.186
					C153.243,101.099,152.487,102.14,150.468,102.956z M150.481,102.575c0.809-0.327,1.382-0.715,1.715-1.168
					c0.335-0.449,0.396-0.936,0.187-1.455s-0.596-0.84-1.162-0.962c-0.564-0.122-1.291-0.004-2.181,0.354
					c-1.038,0.419-1.705,0.964-1.999,1.633c-0.163,0.372-0.175,0.727-0.038,1.065c0.136,0.337,0.323,0.585,0.562,0.739
					c0.239,0.156,0.514,0.239,0.824,0.248C148.976,103.053,149.672,102.901,150.481,102.575z"/>
				
					<path fill="#B28086" stroke="#B28086" stroke-width="0.3374" stroke-linecap="round" stroke-linejoin="round" stroke-miterlimit="10" d="
					M145.138,89.963l3.17-1.278l1.054,2.612l-0.324,0.131l-0.945-2.342l-2.116,0.855c0.318,0.178,0.541,0.43,0.672,0.755
					c0.233,0.579,0.229,1.091-0.011,1.538c-0.242,0.447-0.633,0.779-1.172,0.996c-0.537,0.217-1.089,0.256-1.651,0.115
					c-0.564-0.14-0.947-0.459-1.148-0.959c-0.144-0.355-0.159-0.718-0.046-1.087c0.113-0.371,0.336-0.632,0.668-0.785l0.12,0.296
					c-0.215,0.111-0.363,0.305-0.444,0.582c-0.083,0.275-0.06,0.574,0.069,0.893c0.163,0.404,0.471,0.658,0.92,0.765
					c0.452,0.104,0.902,0.066,1.353-0.116c0.45-0.181,0.78-0.461,0.991-0.834c0.209-0.375,0.218-0.802,0.024-1.28
					c-0.097-0.237-0.253-0.435-0.472-0.587S145.393,89.989,145.138,89.963z"/>
			</g>
		</g>
		<g>
			
				<rect x="104.81" y="41.639" transform="matrix(0.8523 0.5231 -0.5231 0.8523 53.808 -65.9727)" fill="#FFFFFF" stroke="#FFFFFF" stroke-width="0.1704" stroke-miterlimit="10" width="77.818" height="41.301"/>
			<g>
				<defs>
					<polygon id="SVGID_7_" points="165.428,94.93 123.298,69.077 142.138,39.665 184.271,65.52 					"/>
				</defs>
				<clipPath id="SVGID_8_">
					<use xlink:href="#SVGID_7_"  overflow="visible"/>
				</clipPath>
				<g clip-path="url(#SVGID_8_)">
					<path fill="#139383" d="M56.876,21.572l-2.331-1.43c-2.696,1.052-5.733,0.46-7.995-0.928c-2.262-1.389-4.164-3.827-4.447-6.708
						l-2.33-1.43c-3.175-1.949-7.327-0.954-9.275,2.221l-4.275,5.674l29.176,17.904l3.699-6.027
						C61.044,27.674,60.05,23.52,56.876,21.572z"/>
					<path fill="#139383" d="M25.94,18.799l4.275-5.675c2.04-3.325,6.404-4.37,9.729-2.329l2.329,1.429
						c0.088,0.055,0.146,0.146,0.156,0.248c0.25,2.55,1.855,4.965,4.291,6.461c2.437,1.494,5.316,1.832,7.704,0.902
						c0.096-0.039,0.204-0.028,0.292,0.025l2.33,1.43c3.324,2.04,4.369,6.404,2.328,9.729l-3.699,6.028 M26.673,18.863L55.29,36.424
						l3.526-5.748c1.851-3.015,0.903-6.975-2.112-8.824l-2.193-1.346c-2.545,0.934-5.574,0.561-8.133-1.012
						c-2.559-1.569-4.264-4.1-4.584-6.793l-2.193-1.346c-3.016-1.852-6.974-0.903-8.824,2.113L26.673,18.863z"/>
				</g>
				<g clip-path="url(#SVGID_8_)">
					<g>
						<path fill="#139383" d="M45.854,1.369c3.176-5.177,9.57-7.029,14.283-4.138c4.711,2.892,5.955,9.431,2.777,14.609
							c-3.176,5.176-10.459,8.475-15.17,5.584C43.033,14.533,42.678,6.544,45.854,1.369z"/>
						<path fill="#139383" d="M47.677,17.538C42.808,14.549,42.64,6.354,45.741,1.3c3.21-5.23,9.699-7.105,14.465-4.18
							c4.767,2.925,6.033,9.559,2.822,14.79C59.927,16.963,52.544,20.524,47.677,17.538z M60.068-2.655
							c-4.643-2.85-10.967-1.013-14.101,4.093c-3.039,4.952-2.895,12.965,1.848,15.874c4.74,2.909,11.949-0.591,14.988-5.542
							C65.937,6.665,64.71,0.193,60.068-2.655z"/>
					</g>
				</g>
			</g>
			<polygon fill="#F6F6F6" stroke="#F6F6F6" stroke-width="0.1704" stroke-linejoin="round" stroke-miterlimit="10" points="
				166.079,100.241 99.755,59.538 121.358,24.337 			"/>
			
				<rect x="126.4" y="49.252" transform="matrix(0.8523 0.523 -0.523 0.8523 57.8612 -69.7117)" fill="#855156" stroke="#855156" stroke-width="0.1312" stroke-miterlimit="10" width="51.936" height="36.693"/>
			<polygon fill="#673B45" stroke="#673B45" stroke-width="0.1312" stroke-miterlimit="10" points="164.905,96.818 120.64,69.653 
				139.832,38.379 			"/>
			<g>
				
					<path fill="#673B45" stroke="#673B45" stroke-width="0.3374" stroke-linecap="round" stroke-linejoin="round" stroke-miterlimit="10" d="
					M128.048,34.961c-0.543,0.887-1.111,1.475-1.703,1.766c-0.593,0.291-1.174,0.26-1.747-0.091
					c-0.571-0.351-0.873-0.868-0.907-1.554c-0.035-0.688,0.223-1.475,0.768-2.362s1.125-1.472,1.738-1.749s1.219-0.232,1.814,0.133
					C129.175,31.819,129.188,33.105,128.048,34.961z M127.832,34.647c0.456-0.744,0.685-1.396,0.685-1.957
					c0.002-0.561-0.238-0.988-0.715-1.281c-0.478-0.294-0.98-0.322-1.506-0.082c-0.527,0.238-1.041,0.765-1.543,1.582
					c-0.587,0.955-0.798,1.788-0.637,2.5c0.09,0.396,0.289,0.689,0.602,0.881c0.311,0.189,0.609,0.275,0.893,0.26
					c0.285-0.019,0.555-0.116,0.811-0.291C126.904,35.928,127.376,35.391,127.832,34.647z"/>
				
					<path fill="#673B45" stroke="#673B45" stroke-width="0.3374" stroke-linecap="round" stroke-linejoin="round" stroke-miterlimit="10" d="
					M132.708,37.822c-0.543,0.886-1.111,1.474-1.705,1.765c-0.592,0.291-1.174,0.261-1.744-0.09
					c-0.572-0.352-0.875-0.869-0.909-1.555c-0.033-0.686,0.224-1.474,0.769-2.362c0.545-0.888,1.125-1.472,1.736-1.748
					c0.615-0.278,1.219-0.233,1.816,0.132C133.835,34.678,133.849,35.964,132.708,37.822z M132.491,37.506
					c0.455-0.744,0.686-1.396,0.686-1.957c0.002-0.562-0.238-0.988-0.715-1.281c-0.479-0.293-0.98-0.32-1.508-0.083
					c-0.527,0.239-1.04,0.767-1.541,1.582c-0.586,0.957-0.8,1.789-0.638,2.501c0.089,0.396,0.29,0.689,0.603,0.881
					c0.311,0.191,0.609,0.276,0.893,0.26c0.285-0.018,0.555-0.115,0.812-0.291C131.565,38.788,132.034,38.25,132.491,37.506z"/>
				
					<path fill="#673B45" stroke="#673B45" stroke-width="0.3374" stroke-linecap="round" stroke-linejoin="round" stroke-miterlimit="10" d="
					M120.696,30.545l1.788-2.914l2.401,1.475l-0.184,0.3l-2.152-1.321l-1.193,1.943c0.362-0.042,0.693,0.027,0.99,0.209
					c0.533,0.327,0.834,0.741,0.904,1.244c0.072,0.503-0.045,1.002-0.349,1.496s-0.724,0.854-1.259,1.077
					c-0.537,0.222-1.035,0.192-1.495-0.089c-0.326-0.201-0.554-0.482-0.683-0.848c-0.129-0.366-0.106-0.707,0.072-1.028l0.27,0.167
					c-0.105,0.217-0.109,0.46-0.01,0.73c0.099,0.271,0.293,0.497,0.587,0.678c0.372,0.229,0.769,0.25,1.194,0.066
					c0.425-0.186,0.765-0.482,1.019-0.896c0.255-0.414,0.354-0.834,0.3-1.26c-0.055-0.427-0.301-0.775-0.74-1.044
					c-0.221-0.135-0.463-0.198-0.729-0.191C121.161,30.346,120.919,30.415,120.696,30.545z"/>
			</g>
			<g>
				
					<path fill="#B28086" stroke="#B28086" stroke-width="0.3374" stroke-linecap="round" stroke-linejoin="round" stroke-miterlimit="10" d="
					M161.638,89.352c-0.542,0.885-1.11,1.475-1.702,1.764c-0.593,0.291-1.175,0.261-1.747-0.091
					c-0.57-0.351-0.874-0.868-0.908-1.554c-0.033-0.688,0.223-1.474,0.768-2.362c0.545-0.888,1.125-1.471,1.738-1.747
					c0.615-0.279,1.219-0.234,1.814,0.131C162.766,86.208,162.778,87.495,161.638,89.352z M161.421,89.036
					c0.458-0.744,0.687-1.396,0.687-1.957c0-0.562-0.237-0.987-0.716-1.281c-0.478-0.293-0.98-0.322-1.508-0.082
					c-0.526,0.236-1.039,0.764-1.539,1.581c-0.587,0.954-0.801,1.79-0.638,2.502c0.089,0.395,0.29,0.688,0.602,0.879
					s0.608,0.277,0.894,0.261c0.284-0.018,0.553-0.115,0.811-0.291C160.495,90.317,160.966,89.78,161.421,89.036z"/>
				
					<path fill="#B28086" stroke="#B28086" stroke-width="0.3374" stroke-linecap="round" stroke-linejoin="round" stroke-miterlimit="10" d="
					M166.297,92.209c-0.543,0.887-1.109,1.475-1.703,1.766c-0.591,0.291-1.174,0.262-1.745-0.09
					c-0.572-0.352-0.874-0.869-0.908-1.556c-0.032-0.686,0.224-1.472,0.769-2.36c0.545-0.888,1.123-1.472,1.737-1.748
					c0.614-0.279,1.218-0.234,1.815,0.132C167.426,89.067,167.437,90.354,166.297,92.209z M166.082,91.895
					c0.456-0.742,0.687-1.396,0.686-1.957c0.001-0.562-0.238-0.988-0.716-1.281s-0.979-0.321-1.507-0.082
					c-0.525,0.237-1.04,0.764-1.543,1.581c-0.585,0.954-0.797,1.789-0.636,2.501c0.091,0.396,0.292,0.689,0.603,0.88
					s0.608,0.278,0.893,0.26c0.285-0.017,0.555-0.112,0.811-0.29C165.156,93.176,165.625,92.639,166.082,91.895z"/>
				
					<path fill="#B28086" stroke="#B28086" stroke-width="0.3374" stroke-linecap="round" stroke-linejoin="round" stroke-miterlimit="10" d="
					M154.287,84.934l1.788-2.912l2.4,1.474l-0.182,0.298l-2.152-1.32l-1.193,1.945c0.361-0.046,0.69,0.024,0.988,0.207
					c0.532,0.327,0.834,0.742,0.906,1.244c0.07,0.503-0.045,1.002-0.35,1.497c-0.303,0.494-0.724,0.854-1.26,1.074
					c-0.537,0.224-1.034,0.194-1.494-0.088c-0.326-0.2-0.554-0.481-0.682-0.847c-0.131-0.365-0.105-0.707,0.07-1.027l0.271,0.166
					c-0.106,0.217-0.11,0.461-0.012,0.731c0.098,0.271,0.294,0.497,0.588,0.677c0.371,0.229,0.77,0.25,1.193,0.068
					c0.426-0.186,0.766-0.484,1.02-0.898c0.254-0.412,0.354-0.834,0.3-1.26c-0.055-0.426-0.302-0.773-0.741-1.044
					c-0.219-0.134-0.461-0.198-0.729-0.191C154.753,84.736,154.507,84.803,154.287,84.934z"/>
			</g>
		</g>
		
			<path fill="#CA9E67" stroke="#CA9E67" stroke-width="0.924" stroke-linecap="round" stroke-linejoin="round" stroke-miterlimit="10" d="
			M190.056,113.251l26.14-40.208l-11.797-7.798l-11.911,7.911h0.001h-0.002h0.001l-11.798-7.797l-11.91,7.91l0,0l0,0l0,0
			l-11.798-7.797l-11.913,7.91l0,0l-11.797-7.797l-11.91,7.91l23.502,40.56c-52.923,18.503-92.691,92.761-92.691,144.843
			c0,59.646,52.159,95.002,116.5,95.002s116.5-35.355,116.5-95.002C285.172,206.024,244.184,130.233,190.056,113.251z"/>
		
			<path fill="#C0925E" stroke="#C0925E" stroke-width="1.3504" stroke-linecap="round" stroke-linejoin="round" stroke-miterlimit="10" d="
			M168.672,353.901c-64.341,0-116.5-35.355-116.5-95.002c0-52.082,39.769-126.34,92.691-144.843l-23.502-40.56l11.91-7.91
			l11.797,7.797l0,0l11.913-7.91l11.798,7.797l0,0l0,0l0,0L168.672,353.901z"/>
		
			<path fill="#CA9E67" stroke="#CA9E67" stroke-width="0.924" stroke-linecap="round" stroke-linejoin="round" stroke-miterlimit="10" d="
			M192.487,73.157"/>
		
			<line fill="#CA9E67" stroke="#CA9E67" stroke-width="0.924" stroke-linecap="round" stroke-linejoin="round" stroke-miterlimit="10" x1="192.487" y1="73.157" x2="192.488" y2="73.157"/>
		<polygon fill="#FFFFFF" points="198.923,115.983 138.089,115.983 143.755,113.65 141.089,109.155 193.656,109.155 190.814,112.94 
					"/>
		<g>
			<path fill="none" stroke="#FFFFFF" stroke-width="8" stroke-linecap="round" stroke-miterlimit="10" d="M175.488,115.983
				c0,0-2,38.917,17,49.417"/>
			<path fill="none" stroke="#FFFFFF" stroke-width="8" stroke-linecap="round" stroke-miterlimit="10" d="M165.021,114.377
				c0,0-6.082,11.115-1.018,25.332c5.065,14.217-7.083,21.094-15.383,23.389"/>
		</g>
		<g>
			
				<rect x="47.418" y="306.676" transform="matrix(0.9668 -0.2556 0.2556 0.9668 -80.7994 32.9392)" fill="#FFFFFF" stroke="#FFFFFF" stroke-width="0.1704" stroke-miterlimit="10" width="77.817" height="41.304"/>
			<g>
				<defs>
					<polygon id="SVGID_9_" points="124.93,334.153 77.142,346.79 68.867,312.854 116.657,300.218 					"/>
				</defs>
				<clipPath id="SVGID_10_">
					<use xlink:href="#SVGID_9_"  overflow="visible"/>
				</clipPath>
				<g clip-path="url(#SVGID_10_)">
					<path fill="#139383" d="M-3.079,362.058l-2.644,0.699c-1.101,2.678-3.626,4.465-6.19,5.145
						c-2.566,0.678-5.645,0.371-7.924-1.414l-2.643,0.699c-3.602,0.953-5.749,4.643-4.797,8.244l1.154,7.01l33.095-8.748
						l-1.808-6.838C4.213,363.253,0.521,361.104-3.079,362.058z"/>
					<path fill="#139383" d="M-26.44,382.526l-1.154-7.012c-0.997-3.77,1.259-7.648,5.031-8.646l2.642-0.699
						c0.1-0.025,0.207-0.004,0.287,0.061c2.019,1.578,4.874,2.084,7.638,1.354c2.763-0.732,4.995-2.582,5.97-4.951
						c0.039-0.096,0.121-0.168,0.22-0.193l2.645-0.699c3.77-0.998,7.648,1.26,8.646,5.029l1.808,6.84 M-25.888,382.04l32.459-8.582
						l-1.724-6.52c-0.904-3.422-4.423-5.469-7.843-4.564l-2.488,0.658c-1.081,2.486-3.441,4.42-6.347,5.188
						c-2.9,0.768-5.908,0.254-8.079-1.373l-2.486,0.658c-3.422,0.904-5.468,4.422-4.562,7.842L-25.888,382.04z"/>
				</g>
				<g clip-path="url(#SVGID_10_)">
					<g>
						<path fill="#139383" d="M-25.306,356.087c-1.552-5.873,1.522-11.777,6.867-13.191c5.344-1.412,10.934,2.201,12.486,8.072
							c1.553,5.873-1.087,13.42-6.431,14.832C-17.729,367.214-23.753,361.956-25.306,356.087z"/>
						<path fill="#139383" d="M-12.35,365.929c-5.521,1.459-11.567-4.074-13.083-9.809c-1.569-5.934,1.553-11.922,6.961-13.352
							c5.405-1.43,11.079,2.232,12.647,8.166C-4.308,356.669-6.827,364.468-12.35,365.929z M-18.404,343.024
							c-5.267,1.391-8.304,7.236-6.772,13.027c1.485,5.615,7.383,11.043,12.761,9.621c5.377-1.422,7.821-9.055,6.336-14.67
							C-7.611,345.21-13.14,341.632-18.404,343.024z"/>
					</g>
				</g>
			</g>
			<polygon fill="#F6F6F6" stroke="#F6F6F6" stroke-width="0.1704" stroke-linejoin="round" stroke-miterlimit="10" points="
				129.222,337.349 53.989,357.239 43.432,317.308 			"/>
			
				<rect x="70.171" y="306.388" transform="matrix(0.9668 -0.2556 0.2556 0.9668 -79.8205 35.3674)" fill="#855156" stroke="#855156" stroke-width="0.1312" stroke-miterlimit="10" width="51.938" height="36.694"/>
			<polygon fill="#673B45" stroke="#673B45" stroke-width="0.1312" stroke-miterlimit="10" points="125.936,335.833 75.724,349.11 
				66.344,313.636 			"/>
			<g>
				
					<path fill="#673B45" stroke="#673B45" stroke-width="0.3374" stroke-linecap="round" stroke-linejoin="round" stroke-miterlimit="10" d="
					M55.737,319.804c0.267,1.004,0.3,1.82,0.102,2.449c-0.198,0.631-0.623,1.029-1.271,1.201s-1.23,0.033-1.75-0.416
					c-0.521-0.449-0.913-1.178-1.18-2.186c-0.266-1.006-0.289-1.83-0.065-2.465c0.223-0.635,0.673-1.041,1.349-1.221
					C54.241,316.817,55.181,317.696,55.737,319.804z M55.361,319.741c-0.224-0.844-0.538-1.457-0.944-1.846
					c-0.404-0.389-0.879-0.51-1.421-0.367s-0.909,0.486-1.099,1.033c-0.191,0.545-0.165,1.281,0.079,2.207
					c0.286,1.084,0.743,1.812,1.37,2.188c0.349,0.209,0.698,0.266,1.053,0.174c0.352-0.096,0.621-0.252,0.805-0.469
					c0.184-0.219,0.299-0.48,0.349-0.787C55.647,321.298,55.584,320.585,55.361,319.741z"/>
				
					<path fill="#673B45" stroke="#673B45" stroke-width="0.3374" stroke-linecap="round" stroke-linejoin="round" stroke-miterlimit="10" d="
					M61.024,318.405c0.265,1.004,0.299,1.822,0.1,2.451c-0.198,0.629-0.622,1.029-1.27,1.201c-0.648,0.172-1.233,0.031-1.753-0.416
					c-0.519-0.449-0.912-1.178-1.179-2.186c-0.266-1.008-0.288-1.83-0.065-2.465c0.224-0.637,0.672-1.043,1.349-1.221
					C59.526,315.421,60.467,316.298,61.024,318.405z M60.646,318.345c-0.223-0.844-0.536-1.459-0.942-1.848
					c-0.405-0.389-0.879-0.51-1.421-0.367c-0.542,0.145-0.908,0.488-1.1,1.033c-0.191,0.547-0.164,1.283,0.081,2.209
					c0.286,1.082,0.741,1.811,1.368,2.186c0.35,0.209,0.7,0.268,1.053,0.174c0.354-0.094,0.621-0.25,0.805-0.467
					c0.184-0.219,0.3-0.48,0.351-0.787C60.934,319.899,60.868,319.188,60.646,318.345z"/>
				
					<path fill="#673B45" stroke="#673B45" stroke-width="0.3374" stroke-linecap="round" stroke-linejoin="round" stroke-miterlimit="10" d="
					M47.467,322.073l-0.873-3.305l2.725-0.719l0.09,0.338l-2.442,0.646l0.583,2.205c0.22-0.293,0.498-0.484,0.834-0.572
					c0.605-0.16,1.113-0.092,1.525,0.203c0.413,0.295,0.693,0.725,0.842,1.285s0.118,1.113-0.091,1.654
					c-0.21,0.541-0.574,0.883-1.096,1.02c-0.37,0.1-0.731,0.068-1.085-0.09s-0.584-0.41-0.693-0.762l0.308-0.08
					c0.082,0.227,0.257,0.396,0.521,0.512c0.264,0.115,0.562,0.131,0.896,0.043c0.422-0.111,0.712-0.385,0.872-0.818
					c0.159-0.434,0.179-0.887,0.055-1.355c-0.124-0.471-0.359-0.832-0.705-1.088c-0.347-0.254-0.769-0.316-1.267-0.184
					c-0.249,0.066-0.463,0.197-0.642,0.395S47.527,321.823,47.467,322.073z"/>
			</g>
			<g>
				
					<path fill="#B28086" stroke="#B28086" stroke-width="0.3374" stroke-linecap="round" stroke-linejoin="round" stroke-miterlimit="10" d="
					M118.277,333.044c0.266,1.004,0.3,1.82,0.102,2.449c-0.199,0.629-0.622,1.031-1.271,1.203c-0.648,0.172-1.232,0.033-1.752-0.418
					c-0.521-0.449-0.913-1.178-1.179-2.186c-0.267-1.006-0.288-1.83-0.064-2.465c0.223-0.635,0.672-1.043,1.347-1.221
					C116.781,330.058,117.721,330.937,118.277,333.044z M117.899,332.981c-0.223-0.842-0.537-1.459-0.942-1.846
					c-0.406-0.389-0.879-0.51-1.421-0.367c-0.543,0.143-0.909,0.486-1.101,1.033c-0.192,0.545-0.165,1.279,0.08,2.207
					c0.286,1.082,0.744,1.812,1.371,2.188c0.347,0.209,0.698,0.266,1.052,0.172c0.353-0.094,0.62-0.25,0.805-0.467
					c0.184-0.217,0.3-0.48,0.349-0.787C118.187,334.536,118.123,333.827,117.899,332.981z"/>
				
					<path fill="#B28086" stroke="#B28086" stroke-width="0.3374" stroke-linecap="round" stroke-linejoin="round" stroke-miterlimit="10" d="
					M123.562,331.646c0.267,1.004,0.301,1.822,0.103,2.451c-0.199,0.629-0.621,1.029-1.271,1.201s-1.232,0.031-1.753-0.416
					c-0.518-0.451-0.911-1.18-1.177-2.188c-0.267-1.006-0.29-1.828-0.066-2.463c0.223-0.637,0.672-1.043,1.35-1.223
					C122.066,328.661,123.005,329.54,123.562,331.646z M123.186,331.585c-0.223-0.844-0.537-1.461-0.943-1.848
					c-0.405-0.389-0.879-0.51-1.421-0.365c-0.542,0.143-0.908,0.486-1.1,1.031s-0.165,1.283,0.08,2.209
					c0.286,1.082,0.743,1.811,1.37,2.186c0.349,0.209,0.7,0.266,1.052,0.172c0.353-0.092,0.621-0.248,0.806-0.465
					c0.183-0.219,0.3-0.48,0.348-0.787C123.474,333.138,123.408,332.429,123.186,331.585z"/>
				
					<path fill="#B28086" stroke="#B28086" stroke-width="0.3374" stroke-linecap="round" stroke-linejoin="round" stroke-miterlimit="10" d="
					M110.007,335.313l-0.873-3.305l2.725-0.719l0.089,0.336l-2.442,0.646l0.585,2.207c0.216-0.293,0.495-0.482,0.833-0.572
					c0.604-0.16,1.111-0.092,1.525,0.203c0.412,0.295,0.693,0.725,0.842,1.285s0.117,1.115-0.092,1.656s-0.574,0.881-1.095,1.02
					c-0.371,0.098-0.732,0.066-1.085-0.09c-0.354-0.16-0.585-0.414-0.695-0.762l0.309-0.082c0.083,0.227,0.258,0.398,0.521,0.514
					c0.265,0.117,0.562,0.131,0.896,0.043c0.421-0.111,0.711-0.385,0.872-0.818c0.16-0.436,0.18-0.889,0.055-1.357
					c-0.123-0.471-0.359-0.832-0.705-1.088c-0.346-0.254-0.768-0.316-1.266-0.184c-0.249,0.066-0.463,0.195-0.643,0.395
					C110.185,334.839,110.064,335.063,110.007,335.313z"/>
			</g>
		</g>
		<g>
			
				<rect x="2.598" y="317.049" transform="matrix(0.9889 0.1484 -0.1484 0.9889 50.4105 -2.1528)" fill="#FFFFFF" stroke="#FFFFFF" stroke-width="0.1622" stroke-miterlimit="10" width="74.064" height="39.31"/>
			<g>
				<defs>
					<polygon id="SVGID_11_" points="70.366,358.972 21.482,351.638 27.332,317.2 76.218,324.536 					"/>
				</defs>
				<clipPath id="SVGID_12_">
					<use xlink:href="#SVGID_11_"  overflow="visible"/>
				</clipPath>
				<g clip-path="url(#SVGID_12_)">
					<path fill="#139383" d="M-58.221,333.866l-2.704-0.404c-2.072,2.02-5.1,2.664-7.723,2.271
						c-2.625-0.395-5.329-1.898-6.716-4.439l-2.704-0.406c-3.684-0.553-7.117,1.986-7.67,5.672l-1.718,6.895l33.854,5.08l1.05-6.996
						C-51.999,337.854-54.538,334.419-58.221,333.866z"/>
					<path fill="#139383" d="M-87.78,343.405l1.717-6.895c0.579-3.859,4.188-6.527,8.045-5.947l2.705,0.404
						c0.101,0.016,0.189,0.078,0.239,0.17c1.228,2.248,3.647,3.846,6.476,4.268c2.826,0.426,5.609-0.391,7.443-2.18
						c0.074-0.072,0.176-0.105,0.278-0.09l2.705,0.404c3.856,0.58,6.523,4.189,5.944,8.047l-1.049,6.994 M-87.081,343.177
						l33.202,4.982l1.001-6.67c0.525-3.498-1.895-6.771-5.393-7.299l-2.545-0.381c-1.979,1.854-4.91,2.695-7.881,2.248
						c-2.971-0.445-5.525-2.109-6.875-4.463l-2.545-0.381c-3.498-0.525-6.771,1.895-7.295,5.395L-87.081,343.177z"/>
				</g>
				<g clip-path="url(#SVGID_12_)">
					<g>
						<path fill="#139383" d="M-76.263,319.579c0.902-6.008,6.064-10.213,11.531-9.391c5.467,0.82,9.168,6.354,8.268,12.359
							c-0.902,6.006-6.316,11.889-11.783,11.07C-73.714,332.798-77.163,325.583-76.263,319.579z"/>
						<path fill="#139383" d="M-68.267,333.747c-5.649-0.848-9.006-8.324-8.127-14.189c0.912-6.068,6.15-10.33,11.682-9.502
							c5.531,0.83,9.289,6.441,8.378,12.512C-57.214,328.433-62.618,334.595-68.267,333.747z M-64.751,310.317
							c-5.387-0.809-10.492,3.355-11.381,9.279c-0.862,5.744,2.403,13.064,7.904,13.889c5.502,0.826,10.77-5.213,11.632-10.957
							C-55.706,316.604-59.364,311.126-64.751,310.317z"/>
					</g>
				</g>
			</g>
			
				<polygon fill="#F6F6F6" stroke="#F6F6F6" stroke-width="0.1622" stroke-linecap="round" stroke-linejoin="round" stroke-miterlimit="10" points="
				73.336,361.638 0.092,350.646 5.925,311.771 			"/>
			
				<rect x="24.467" y="320.675" transform="matrix(0.9889 0.1484 -0.1484 0.9889 50.7255 -3.5547)" fill="#1CB1A3" stroke="#1CB1A3" stroke-width="0.1249" stroke-miterlimit="10" width="49.432" height="34.924"/>
			<polygon fill="#15A594" stroke="#15A594" stroke-width="0.1249" stroke-miterlimit="10" points="71.034,359.073 22.149,351.737 
				27.332,317.2 			"/>
			<g>
				
					<path fill="#139383" stroke="#139383" stroke-width="0.3374" stroke-linecap="round" stroke-linejoin="round" stroke-miterlimit="10" d="
					M8.469,321.058l-0.353-0.053l0.902-6.018l-1.499,0.424l0.052-0.344l1.879-0.549L8.469,321.058z"/>
				
					<path fill="#139383" stroke="#139383" stroke-width="0.3374" stroke-linecap="round" stroke-linejoin="round" stroke-miterlimit="10" d="
					M14.36,318.655c-0.154,1.025-0.449,1.793-0.881,2.289c-0.43,0.5-0.979,0.697-1.641,0.6c-0.664-0.1-1.145-0.459-1.445-1.076
					c-0.298-0.619-0.37-1.443-0.216-2.473c0.155-1.031,0.46-1.795,0.917-2.291s1.029-0.691,1.723-0.586
					C14.167,315.321,14.684,316.499,14.36,318.655z M14.036,318.448c0.13-0.863,0.086-1.553-0.134-2.07
					c-0.218-0.516-0.605-0.816-1.159-0.898c-0.555-0.084-1.027,0.088-1.419,0.512c-0.392,0.428-0.659,1.113-0.802,2.059
					c-0.165,1.109-0.035,1.961,0.391,2.553c0.238,0.328,0.538,0.52,0.9,0.574c0.36,0.055,0.667,0.02,0.922-0.109
					s0.467-0.322,0.633-0.582C13.684,319.991,13.907,319.312,14.036,318.448z"/>
				
					<path fill="#139383" stroke="#139383" stroke-width="0.3374" stroke-linecap="round" stroke-linejoin="round" stroke-miterlimit="10" d="
					M19.767,319.466c-0.156,1.027-0.447,1.791-0.879,2.291c-0.432,0.498-0.979,0.697-1.644,0.598
					c-0.662-0.1-1.144-0.457-1.442-1.076c-0.3-0.617-0.371-1.443-0.218-2.473c0.155-1.031,0.462-1.795,0.918-2.289
					c0.457-0.496,1.03-0.691,1.721-0.588C19.575,316.134,20.089,317.31,19.767,319.466z M19.441,319.259
					c0.13-0.861,0.086-1.551-0.131-2.068c-0.22-0.516-0.605-0.816-1.159-0.9c-0.556-0.082-1.029,0.088-1.42,0.514
					c-0.395,0.426-0.659,1.111-0.802,2.059c-0.166,1.109-0.036,1.961,0.392,2.553c0.236,0.328,0.535,0.52,0.896,0.572
					c0.361,0.057,0.67,0.02,0.926-0.109c0.253-0.129,0.465-0.322,0.631-0.582C19.091,320.802,19.313,320.122,19.441,319.259z"/>
			</g>
			<g>
				
					<path fill="#98D2D1" stroke="#98D2D1" stroke-width="0.3374" stroke-linecap="round" stroke-linejoin="round" stroke-miterlimit="10" d="
					M59.085,355.915l-0.354-0.053l0.902-6.016l-1.496,0.424l0.053-0.346l1.876-0.549L59.085,355.915z"/>
				
					<path fill="#98D2D1" stroke="#98D2D1" stroke-width="0.3374" stroke-linecap="round" stroke-linejoin="round" stroke-miterlimit="10" d="
					M64.976,353.513c-0.154,1.027-0.447,1.791-0.879,2.289s-0.979,0.701-1.643,0.6c-0.664-0.098-1.145-0.457-1.443-1.076
					c-0.299-0.617-0.371-1.443-0.217-2.473c0.156-1.031,0.459-1.795,0.916-2.289c0.457-0.496,1.031-0.691,1.723-0.588
					C64.784,350.179,65.299,351.358,64.976,353.513z M64.652,353.308c0.13-0.863,0.087-1.555-0.133-2.07s-0.606-0.816-1.159-0.9
					c-0.557-0.084-1.028,0.09-1.42,0.514c-0.393,0.426-0.658,1.111-0.801,2.059c-0.166,1.109-0.037,1.957,0.391,2.551
					c0.237,0.33,0.537,0.521,0.898,0.576c0.361,0.053,0.668,0.018,0.922-0.111c0.256-0.125,0.467-0.32,0.635-0.582
					C64.3,354.849,64.523,354.169,64.652,353.308z"/>
				
					<path fill="#98D2D1" stroke="#98D2D1" stroke-width="0.3374" stroke-linecap="round" stroke-linejoin="round" stroke-miterlimit="10" d="
					M70.382,354.323c-0.154,1.029-0.447,1.793-0.878,2.289c-0.432,0.5-0.979,0.701-1.643,0.602s-1.144-0.459-1.443-1.078
					c-0.3-0.617-0.372-1.439-0.218-2.473c0.156-1.031,0.461-1.793,0.919-2.289c0.455-0.494,1.03-0.691,1.72-0.588
					C70.191,350.989,70.705,352.169,70.382,354.323z M70.06,354.118c0.128-0.861,0.084-1.553-0.133-2.07
					c-0.22-0.516-0.605-0.816-1.16-0.9s-1.027,0.09-1.42,0.514c-0.393,0.426-0.658,1.111-0.801,2.059
					c-0.166,1.109-0.035,1.959,0.393,2.553c0.236,0.328,0.535,0.52,0.896,0.574c0.361,0.053,0.67,0.018,0.925-0.109
					s0.464-0.322,0.631-0.584C69.707,355.661,69.93,354.979,70.06,354.118z"/>
			</g>
		</g>
		<g>
			<path fill="#FFFFFF" stroke="#FFFFFF" stroke-miterlimit="10" d="M113.784,215.681v-2.271h21.452l-14.958,42.723h-2.264
				l14.154-40.451H113.784z"/>
			<path fill="#FFFFFF" stroke="#FFFFFF" stroke-miterlimit="10" d="M139.956,235.536v-22.127h20.106v2.271h-18.021v14.768
				c2.044-1.467,4.309-2.203,6.802-2.203c4.454,0,7.835,1.266,10.146,3.799c2.304,2.535,3.461,5.676,3.461,9.439
				c0,3.76-1.217,7.162-3.646,10.205c-2.434,3.041-5.565,4.568-9.405,4.568c-2.739,0-5.184-0.787-7.328-2.363
				c-2.145-1.568-3.277-3.543-3.402-5.914h2.27c0.166,1.553,1.053,2.91,2.663,4.076c1.616,1.17,3.652,1.748,6.101,1.748
				c3.107,0,5.606-1.229,7.507-3.678c1.901-2.449,2.854-5.252,2.854-8.395c0-3.152-0.963-5.807-2.883-7.971
				c-1.921-2.166-4.719-3.246-8.396-3.246c-1.841,0-3.555,0.467-5.147,1.41C142.042,232.864,140.814,234.071,139.956,235.536z"/>
			<path fill="#FFFFFF" stroke="#FFFFFF" stroke-miterlimit="10" d="M195.241,235.231c0,6.738-1.146,11.922-3.43,15.537
				c-2.291,3.617-5.612,5.43-9.962,5.43c-4.354,0-7.786-1.842-10.301-5.52c-2.508-3.68-3.765-8.896-3.765-15.66
				s1.222-11.951,3.675-15.568c2.45-3.617,5.947-5.422,10.48-5.422C190.808,214.028,195.241,221.091,195.241,235.231z
				 M192.973,234.22c0-5.656-0.948-10.041-2.849-13.148c-1.9-3.104-4.667-4.66-8.304-4.66c-3.642,0-6.509,1.557-8.614,4.66
				c-2.105,3.107-3.158,7.768-3.158,13.977c0,7.271,1.656,12.609,4.969,15.996c1.834,1.879,3.94,2.816,6.31,2.816
				c2.37,0,4.315-0.527,5.825-1.59c1.512-1.061,2.674-2.514,3.493-4.354C192.196,244.446,192.973,239.882,192.973,234.22z"/>
			<path fill="#FFFFFF" stroke="#FFFFFF" stroke-miterlimit="10" d="M229.017,235.231c0,6.738-1.147,11.922-3.433,15.537
				c-2.288,3.617-5.61,5.43-9.961,5.43c-4.354,0-7.786-1.842-10.3-5.52c-2.51-3.68-3.766-8.896-3.766-15.66
				s1.222-11.951,3.677-15.568c2.448-3.617,5.944-5.422,10.479-5.422C224.583,214.028,229.017,221.091,229.017,235.231z
				 M226.747,234.22c0-5.656-0.948-10.041-2.848-13.148c-1.901-3.104-4.67-4.66-8.306-4.66c-3.642,0-6.51,1.557-8.614,4.66
				c-2.106,3.107-3.156,7.768-3.156,13.977c0,7.271,1.654,12.609,4.966,15.996c1.836,1.879,3.941,2.816,6.312,2.816
				c2.368,0,4.314-0.527,5.824-1.59c1.512-1.061,2.675-2.514,3.493-4.354C225.969,244.446,226.747,239.882,226.747,234.22z"/>
		</g>
	</g>
	<g>
		
			<rect x="111.651" y="318.443" transform="matrix(0.9791 0.2034 -0.2034 0.9791 72.1286 -23.5374)" fill="#FFFFFF" stroke="#FFFFFF" stroke-width="0.1704" stroke-miterlimit="10" width="77.818" height="41.302"/>
		<g>
			<defs>
				<polygon id="SVGID_13_" points="182.042,362.451 133.645,352.398 141.41,318.343 189.808,328.397 				"/>
			</defs>
			<clipPath id="SVGID_14_">
				<use xlink:href="#SVGID_13_"  overflow="visible"/>
			</clipPath>
			<g clip-path="url(#SVGID_14_)">
				<path fill="#139383" d="M55.059,330.202l-2.678-0.555c-2.181,1.902-5.238,2.373-7.836,1.834c-2.6-0.539-5.216-2.189-6.457-4.805
					l-2.676-0.557c-3.648-0.756-7.219,1.584-7.977,5.232l-2.1,6.786l33.516,6.965l1.438-6.926
					C61.048,334.53,58.705,330.96,55.059,330.202z"/>
				<path fill="#139383" d="M25.013,338.072l2.101-6.788c0.793-3.818,4.545-6.279,8.365-5.486l2.676,0.557
					c0.101,0.021,0.188,0.088,0.23,0.182c1.1,2.312,3.428,4.043,6.227,4.623c2.799,0.582,5.623-0.076,7.554-1.76
					c0.077-0.068,0.183-0.096,0.282-0.076l2.679,0.557c3.817,0.793,6.279,4.545,5.485,8.364l-1.439,6.926 M25.725,337.885
					l32.872,6.83l1.372-6.604c0.72-3.464-1.513-6.868-4.977-7.587l-2.52-0.523c-2.078,1.74-5.055,2.414-7.996,1.803
					c-2.938-0.609-5.398-2.412-6.613-4.838l-2.52-0.523c-3.465-0.721-6.867,1.512-7.586,4.977L25.725,337.885z"/>
			</g>
			<g clip-path="url(#SVGID_14_)">
				<g>
					<path fill="#139383" d="M37.844,314.929c1.236-5.947,6.626-9.855,12.039-8.732c5.412,1.125,8.797,6.855,7.562,12.803
						c-1.236,5.947-6.971,11.518-12.383,10.395C39.649,328.269,36.609,320.872,37.844,314.929z"/>
					<path fill="#139383" d="M45.035,329.522c-5.591-1.162-8.526-8.814-7.319-14.621c1.248-6.01,6.718-9.971,12.194-8.834
						c5.475,1.137,8.912,6.949,7.664,12.959C56.368,324.833,50.629,330.685,45.035,329.522z M49.855,306.327
						c-5.332-1.109-10.662,2.762-11.881,8.627c-1.181,5.688,1.67,13.178,7.116,14.311c5.445,1.131,11.044-4.605,12.224-10.293
						C58.534,313.106,55.188,307.435,49.855,306.327z"/>
				</g>
			</g>
		</g>
		<polygon fill="#F6F6F6" stroke="#F6F6F6" stroke-width="0.1704" stroke-linejoin="round" stroke-miterlimit="10" points="
			184.454,367.229 108.264,351.398 116.665,310.96 		"/>
		
			<rect x="134.528" y="322.814" transform="matrix(0.9791 0.2034 -0.2034 0.9791 72.7512 -25.5143)" fill="#855156" stroke="#855156" stroke-width="0.1312" stroke-miterlimit="10" width="51.936" height="36.692"/>
		<polygon fill="#673B45" stroke="#673B45" stroke-width="0.1312" stroke-miterlimit="10" points="182.19,364.404 131.34,353.84 
			138.803,317.915 		"/>
		<g>
			
				<path fill="#673B45" stroke="#673B45" stroke-width="0.3374" stroke-linecap="round" stroke-linejoin="round" stroke-miterlimit="10" d="
				M126.558,318.692c-0.21,1.018-0.545,1.762-1.003,2.236c-0.46,0.475-1.018,0.643-1.675,0.506s-1.116-0.52-1.38-1.154
				c-0.265-0.635-0.29-1.461-0.078-2.482c0.213-1.02,0.559-1.766,1.043-2.234c0.483-0.469,1.067-0.631,1.752-0.488
				C126.555,315.353,127.002,316.558,126.558,318.692z M126.25,318.468c0.176-0.854,0.17-1.543-0.021-2.072
				c-0.188-0.529-0.558-0.85-1.106-0.965c-0.549-0.113-1.031,0.029-1.445,0.434c-0.414,0.402-0.721,1.072-0.916,2.01
				c-0.229,1.098-0.145,1.953,0.248,2.57c0.219,0.342,0.506,0.549,0.865,0.625c0.357,0.072,0.668,0.053,0.929-0.059
				c0.263-0.115,0.481-0.297,0.663-0.549C125.811,319.987,126.072,319.323,126.25,318.468z"/>
			
				<path fill="#673B45" stroke="#673B45" stroke-width="0.3374" stroke-linecap="round" stroke-linejoin="round" stroke-miterlimit="10" d="
				M131.912,319.804c-0.211,1.016-0.547,1.764-1.006,2.238c-0.459,0.473-1.017,0.643-1.673,0.506s-1.117-0.523-1.382-1.156
				c-0.264-0.633-0.289-1.461-0.077-2.482c0.212-1.02,0.56-1.766,1.042-2.232c0.484-0.471,1.067-0.633,1.753-0.49
				C131.906,316.464,132.355,317.669,131.912,319.804z M131.601,319.581c0.179-0.855,0.173-1.547-0.017-2.074
				c-0.189-0.529-0.559-0.85-1.107-0.965c-0.549-0.113-1.031,0.031-1.445,0.434c-0.416,0.404-0.721,1.074-0.914,2.012
				c-0.229,1.096-0.146,1.951,0.246,2.566c0.219,0.344,0.508,0.553,0.865,0.627c0.357,0.072,0.666,0.053,0.928-0.059
				c0.262-0.113,0.482-0.297,0.665-0.547C131.164,321.101,131.423,320.435,131.601,319.581z"/>
			
				<path fill="#673B45" stroke="#673B45" stroke-width="0.3374" stroke-linecap="round" stroke-linejoin="round" stroke-miterlimit="10" d="
				M118.145,317.026l0.696-3.348l2.759,0.574l-0.07,0.344l-2.475-0.514l-0.463,2.232c0.326-0.162,0.661-0.209,1.002-0.139
				c0.612,0.127,1.037,0.416,1.273,0.863c0.237,0.449,0.296,0.959,0.178,1.527c-0.117,0.566-0.392,1.049-0.82,1.439
				c-0.43,0.389-0.908,0.533-1.436,0.422c-0.375-0.076-0.686-0.266-0.931-0.566c-0.245-0.299-0.339-0.629-0.28-0.99l0.312,0.066
				c-0.027,0.238,0.053,0.469,0.237,0.689c0.186,0.221,0.444,0.369,0.782,0.439c0.427,0.088,0.81-0.025,1.146-0.342
				c0.338-0.318,0.557-0.715,0.655-1.189c0.1-0.477,0.05-0.904-0.145-1.287c-0.196-0.383-0.546-0.627-1.052-0.73
				c-0.252-0.053-0.502-0.031-0.75,0.066C118.516,316.681,118.311,316.829,118.145,317.026z"/>
		</g>
		<g>
			
				<path fill="#B28086" stroke="#B28086" stroke-width="0.3374" stroke-linecap="round" stroke-linejoin="round" stroke-miterlimit="10" d="
				M176.587,358.486c-0.211,1.018-0.545,1.764-1.004,2.236c-0.459,0.475-1.018,0.645-1.674,0.508s-1.117-0.521-1.381-1.156
				c-0.266-0.635-0.291-1.461-0.078-2.482c0.211-1.018,0.561-1.766,1.043-2.232c0.484-0.471,1.068-0.633,1.752-0.49
				C176.583,355.146,177.03,356.354,176.587,358.486z M176.276,358.262c0.178-0.854,0.172-1.545-0.018-2.072
				c-0.189-0.529-0.559-0.85-1.107-0.963c-0.549-0.115-1.031,0.029-1.445,0.432c-0.416,0.402-0.721,1.07-0.916,2.01
				c-0.227,1.098-0.145,1.955,0.25,2.57c0.217,0.342,0.506,0.549,0.863,0.623s0.666,0.055,0.93-0.057
				c0.26-0.113,0.482-0.297,0.662-0.549C175.839,359.781,176.099,359.117,176.276,358.262z"/>
			
				<path fill="#B28086" stroke="#B28086" stroke-width="0.3374" stroke-linecap="round" stroke-linejoin="round" stroke-miterlimit="10" d="
				M181.938,359.598c-0.209,1.018-0.545,1.764-1.004,2.238c-0.459,0.473-1.016,0.643-1.672,0.506
				c-0.658-0.137-1.117-0.521-1.383-1.156c-0.262-0.633-0.287-1.461-0.074-2.48c0.211-1.02,0.557-1.766,1.041-2.234
				c0.482-0.469,1.066-0.633,1.754-0.49C181.937,356.26,182.382,357.465,181.938,359.598z M181.63,359.375
				c0.178-0.854,0.172-1.547-0.018-2.074c-0.189-0.529-0.559-0.85-1.107-0.963s-1.031,0.029-1.445,0.432
				c-0.416,0.402-0.721,1.074-0.916,2.012c-0.229,1.098-0.145,1.953,0.248,2.568c0.219,0.342,0.508,0.551,0.865,0.623
				c0.357,0.076,0.666,0.057,0.928-0.055c0.262-0.115,0.484-0.297,0.664-0.549C181.194,360.893,181.452,360.229,181.63,359.375z"/>
			
				<path fill="#B28086" stroke="#B28086" stroke-width="0.3374" stroke-linecap="round" stroke-linejoin="round" stroke-miterlimit="10" d="
				M168.175,356.82l0.695-3.346l2.76,0.574l-0.072,0.34l-2.473-0.512l-0.463,2.234c0.324-0.166,0.658-0.211,1-0.139
				c0.611,0.127,1.035,0.414,1.273,0.861c0.236,0.449,0.297,0.959,0.18,1.527c-0.119,0.568-0.393,1.049-0.822,1.439
				c-0.428,0.391-0.908,0.531-1.436,0.422c-0.375-0.078-0.686-0.266-0.93-0.564c-0.246-0.301-0.338-0.631-0.281-0.992l0.312,0.064
				c-0.027,0.24,0.053,0.471,0.236,0.693c0.186,0.223,0.445,0.367,0.783,0.438c0.426,0.088,0.807-0.025,1.145-0.342
				c0.338-0.318,0.557-0.713,0.656-1.189c0.1-0.475,0.049-0.904-0.146-1.287s-0.545-0.627-1.049-0.73
				c-0.252-0.051-0.502-0.031-0.752,0.066C168.546,356.477,168.337,356.623,168.175,356.82z"/>
		</g>
	</g>
</g>
</svg>
