<?xml version="1.0" encoding="utf-8"?>
<!-- Generator: Adobe Illustrator 15.0.2, SVG Export Plug-In . SVG Version: 6.00 Build 0)  -->
<!DOCTYPE svg PUBLIC "-//W3C//DTD SVG 1.1//EN" "http://www.w3.org/Graphics/SVG/1.1/DTD/svg11.dtd">
<svg version="1.1" id="Lager_1" xmlns="http://www.w3.org/2000/svg" xmlns:xlink="http://www.w3.org/1999/xlink" x="0px" y="0px"
	 width="196.029px" height="307.661px" viewBox="0 0 196.029 307.661" enable-background="new 0 0 196.029 307.661"
	 xml:space="preserve">
<g>
	<g>
		
			<rect x="86.722" y="25.182" transform="matrix(-0.5223 0.8528 -0.8528 -0.5223 226.6219 -37.284)" fill="#FFFFFF" stroke="#FFFFFF" stroke-width="0.1622" stroke-miterlimit="10" width="74.064" height="39.309"/>
		<g>
			<defs>
				<polygon id="SVGID_1_" points="91.265,64.456 117.08,22.301 146.509,41.116 120.693,83.271 				"/>
			</defs>
			<clipPath id="SVGID_2_">
				<use xlink:href="#SVGID_1_"  overflow="visible"/>
			</clipPath>
			<path clip-path="url(#SVGID_2_)" fill="#139383" d="M164.521-44.165l1.428-2.333c-1.054-2.695-0.467-5.734,0.92-7.996
				c1.385-2.263,3.824-4.167,6.705-4.454l1.428-2.332c1.947-3.176,0.947-7.328-2.229-9.273l-5.68-4.271l-17.879,29.193l6.033,3.694
				C158.423-39.99,162.577-40.988,164.521-44.165z"/>
			<path clip-path="url(#SVGID_2_)" fill="#139383" d="M167.265-75.103l5.68,4.269c3.325,2.037,4.375,6.401,2.338,9.727
				l-1.428,2.333c-0.053,0.086-0.146,0.144-0.249,0.155c-2.55,0.253-4.964,1.86-6.456,4.298c-1.494,2.438-1.828,5.318-0.895,7.705
				c0.038,0.096,0.028,0.203-0.025,0.291l-1.428,2.333c-2.037,3.326-6.4,4.375-9.727,2.338l-6.032-3.695 M167.202-74.37
				l-17.534,28.631l5.752,3.523c3.018,1.847,6.974,0.896,8.821-2.121l1.345-2.195c-0.936-2.546-0.565-5.572,1.003-8.134
				s4.096-4.267,6.79-4.591l1.344-2.194c1.848-3.017,0.895-6.973-2.121-8.82L167.202-74.37z"/>
			<g clip-path="url(#SVGID_2_)">
				<path fill="#139383" d="M184.713-55.207c5.181,3.173,7.038,9.566,4.151,14.28c-2.889,4.714-9.426,5.964-14.605,2.793
					c-5.18-3.172-8.486-10.452-5.6-15.167C171.547-58.014,179.536-58.377,184.713-55.207z"/>
				<path fill="#139383" d="M168.548-53.369c2.982-4.871,11.178-5.047,16.234-1.951c5.234,3.206,7.115,9.692,4.195,14.462
					c-2.921,4.77-9.555,6.042-14.788,2.836C169.132-41.119,165.565-48.498,168.548-53.369z M188.751-40.995
					c2.846-4.645,1.003-10.97-4.106-14.099c-4.954-3.034-12.966-2.88-15.871,1.864c-2.906,4.744,0.601,11.95,5.555,14.984
					C179.437-35.118,185.907-36.351,188.751-40.995z"/>
			</g>
		</g>
		
			<polygon fill="#F6F6F6" stroke="#F6F6F6" stroke-width="0.1622" stroke-linecap="round" stroke-linejoin="round" stroke-miterlimit="10" points="
			87.653,66.152 126.333,2.991 159.856,23.52 		"/>
		
			<rect x="93.994" y="35.613" transform="matrix(-0.5223 0.8528 -0.8528 -0.5223 225.9694 -20.4401)" fill="#1CB1A3" stroke="#1CB1A3" stroke-width="0.1249" stroke-miterlimit="10" width="49.432" height="34.922"/>
		<polygon fill="#15A594" stroke="#15A594" stroke-width="0.1249" stroke-miterlimit="10" points="90.911,65.032 116.728,22.877 
			146.509,41.116 		"/>
		<g>
			
				<path fill="#139383" stroke="#139383" stroke-width="0.3374" stroke-linecap="round" stroke-linejoin="round" stroke-miterlimit="10" d="
				M150.312,22.241l0.187-0.305l5.189,3.177l0.194-1.545l0.296,0.182l-0.227,1.945L150.312,22.241z"/>
			
				<path fill="#139383" stroke="#139383" stroke-width="0.3374" stroke-linecap="round" stroke-linejoin="round" stroke-miterlimit="10" d="
				M150.228,28.603c-0.885-0.542-1.477-1.112-1.766-1.703c-0.291-0.592-0.262-1.174,0.088-1.746c0.352-0.573,0.869-0.875,1.556-0.91
				c0.685-0.034,1.473,0.222,2.36,0.765c0.89,0.544,1.473,1.123,1.752,1.737c0.277,0.613,0.233,1.218-0.132,1.815
				C153.373,29.726,152.086,29.741,150.228,28.603z M150.544,28.386c0.743,0.456,1.396,0.683,1.957,0.683
				c0.561,0,0.988-0.239,1.281-0.717c0.293-0.479,0.318-0.98,0.08-1.507c-0.239-0.526-0.768-1.041-1.582-1.54
				c-0.957-0.585-1.791-0.798-2.502-0.636c-0.396,0.09-0.689,0.292-0.881,0.604c-0.19,0.311-0.277,0.607-0.258,0.893
				c0.018,0.285,0.114,0.555,0.289,0.81C149.261,27.459,149.799,27.93,150.544,28.386z"/>
			
				<path fill="#139383" stroke="#139383" stroke-width="0.3374" stroke-linecap="round" stroke-linejoin="round" stroke-miterlimit="10" d="
				M147.374,33.265c-0.886-0.543-1.476-1.109-1.767-1.703c-0.291-0.591-0.262-1.173,0.088-1.746
				c0.352-0.572,0.869-0.875,1.555-0.909s1.474,0.221,2.362,0.764c0.889,0.544,1.472,1.125,1.75,1.738
				c0.278,0.614,0.234,1.218-0.13,1.813C150.517,34.389,149.232,34.402,147.374,33.265z M147.689,33.047
				c0.744,0.456,1.396,0.684,1.957,0.685c0.561-0.001,0.987-0.239,1.281-0.716c0.293-0.479,0.319-0.981,0.082-1.507
				c-0.24-0.529-0.768-1.041-1.586-1.541c-0.955-0.585-1.789-0.797-2.502-0.634c-0.395,0.089-0.688,0.29-0.879,0.602
				c-0.189,0.312-0.277,0.609-0.258,0.895c0.02,0.284,0.115,0.554,0.289,0.809C146.406,32.122,146.945,32.592,147.689,33.047z"/>
		</g>
		
			<path fill="#CA9E67" stroke="#CA9E67" stroke-width="0.924" stroke-linecap="round" stroke-linejoin="round" stroke-miterlimit="10" d="
			M155.017,44.27"/>
		
			<line fill="#CA9E67" stroke="#CA9E67" stroke-width="0.924" stroke-linecap="round" stroke-linejoin="round" stroke-miterlimit="10" x1="155.017" y1="44.27" x2="155.017" y2="44.271"/>
		
			<path fill="#673B45" stroke="#673B45" stroke-width="0.3374" stroke-linecap="round" stroke-linejoin="round" stroke-miterlimit="10" d="
			M87.652,60.39c0.963,0.392,1.635,0.857,2.018,1.394c0.384,0.538,0.447,1.117,0.194,1.739c-0.253,0.621-0.715,1.002-1.386,1.147
			c-0.672,0.145-1.49,0.02-2.455-0.374c-0.965-0.394-1.636-0.871-2.008-1.431c-0.374-0.561-0.428-1.165-0.164-1.812
			C84.367,59.787,85.634,59.566,87.652,60.39z M87.376,60.653c-0.809-0.33-1.488-0.448-2.043-0.358
			c-0.554,0.09-0.937,0.395-1.148,0.915c-0.212,0.519-0.158,1.019,0.164,1.499c0.32,0.481,0.924,0.903,1.811,1.265
			c1.038,0.424,1.895,0.497,2.571,0.223c0.377-0.153,0.633-0.398,0.771-0.736c0.137-0.338,0.174-0.647,0.111-0.924
			c-0.064-0.278-0.204-0.528-0.419-0.752C88.791,61.361,88.184,60.983,87.376,60.653z"/>
		
			<path fill="#673B45" stroke="#673B45" stroke-width="0.3374" stroke-linecap="round" stroke-linejoin="round" stroke-miterlimit="10" d="
			M89.717,55.327c0.962,0.393,1.635,0.857,2.018,1.395c0.384,0.537,0.448,1.117,0.195,1.737c-0.254,0.621-0.717,1.004-1.388,1.149
			c-0.671,0.144-1.489,0.02-2.455-0.374c-0.964-0.394-1.635-0.871-2.007-1.431c-0.374-0.561-0.429-1.165-0.164-1.812
			C86.432,54.726,87.699,54.503,89.717,55.327z M89.441,55.592c-0.808-0.33-1.488-0.45-2.042-0.358
			c-0.555,0.089-0.937,0.395-1.148,0.913c-0.212,0.52-0.157,1.02,0.163,1.501c0.321,0.481,0.925,0.902,1.812,1.264
			c1.038,0.423,1.894,0.499,2.57,0.224c0.377-0.153,0.634-0.399,0.771-0.737s0.174-0.646,0.111-0.923
			c-0.064-0.278-0.203-0.529-0.417-0.753C90.856,56.298,90.249,55.922,89.441,55.592z"/>
		
			<path fill="#673B45" stroke="#673B45" stroke-width="0.3374" stroke-linecap="round" stroke-linejoin="round" stroke-miterlimit="10" d="
			M84.487,68.36l-3.164-1.291l1.064-2.609l0.325,0.132l-0.954,2.338l2.111,0.862c-0.101-0.351-0.086-0.688,0.045-1.011
			c0.237-0.579,0.597-0.944,1.08-1.096c0.485-0.151,0.997-0.117,1.534,0.102s0.96,0.575,1.267,1.068
			c0.306,0.494,0.359,0.99,0.155,1.488c-0.145,0.355-0.387,0.625-0.726,0.812c-0.34,0.187-0.68,0.219-1.025,0.096l0.12-0.294
			c0.23,0.07,0.472,0.033,0.724-0.108c0.251-0.141,0.442-0.37,0.572-0.689c0.165-0.404,0.122-0.799-0.128-1.189
			c-0.251-0.389-0.601-0.676-1.05-0.859c-0.45-0.184-0.881-0.214-1.293-0.092c-0.412,0.124-0.715,0.423-0.909,0.901
			c-0.097,0.239-0.12,0.489-0.07,0.75C84.215,67.934,84.324,68.163,84.487,68.36z"/>
		
			<rect x="40.625" y="23.269" transform="matrix(0.3742 0.9273 -0.9273 0.3742 90.4992 -46.2704)" fill="#FFFFFF" stroke="#FFFFFF" stroke-width="0.1704" stroke-miterlimit="10" width="77.817" height="41.302"/>
		<g>
			<defs>
				<polygon id="SVGID_3_" points="77.579,83.073 59.08,37.234 91.716,24.79 110.215,70.631 				"/>
			</defs>
			<clipPath id="SVGID_4_">
				<use xlink:href="#SVGID_3_"  overflow="visible"/>
			</clipPath>
			<path clip-path="url(#SVGID_4_)" fill="#139383" d="M33.924-40.456L32.9-42.992c-2.794-0.758-4.883-3.04-5.876-5.5
				c-0.992-2.461-1.072-5.554,0.413-8.038l-1.022-2.535c-1.395-3.455-5.324-5.124-8.778-3.73l-6.812,2.02l12.81,31.744l6.559-2.647
				C33.647-33.071,35.318-37.002,33.924-40.456z"/>
			<path clip-path="url(#SVGID_4_)" fill="#139383" d="M10.701-61.081l6.812-2.019c3.617-1.46,7.747,0.294,9.207,3.913l1.023,2.534
				c0.038,0.096,0.031,0.204-0.023,0.292c-1.314,2.199-1.46,5.095-0.39,7.746c1.07,2.65,3.185,4.634,5.657,5.306
				c0.1,0.026,0.181,0.099,0.22,0.194l1.023,2.536c1.459,3.616-0.296,7.747-3.913,9.206l-6.559,2.646 M11.252-60.593l12.564,31.135
				l6.253-2.523c3.281-1.324,4.874-5.071,3.549-8.351l-0.962-2.386c-2.603-0.763-4.815-2.864-5.938-5.649
				c-1.124-2.784-0.989-5.832,0.354-8.188l-0.963-2.385c-1.324-3.282-5.07-4.873-8.351-3.548L11.252-60.593z"/>
			<g clip-path="url(#SVGID_4_)">
				<path fill="#139383" d="M37.076-63.253c5.633-2.273,11.875,0.041,13.944,5.167c2.068,5.126-0.82,11.124-6.453,13.397
					c-5.632,2.273-13.449,0.595-15.518-4.53C26.98-54.347,31.445-60.98,37.076-63.253z"/>
				<path fill="#139383" d="M28.927-49.17c-2.137-5.297,2.6-11.986,8.1-14.206c5.69-2.297,12.022,0.054,14.115,5.241
					c2.093,5.186-0.834,11.272-6.526,13.568C39.118-42.347,31.064-43.874,28.927-49.17z M50.897-58.036
					c-2.038-5.052-8.215-7.336-13.771-5.094c-5.388,2.174-10.036,8.703-7.954,13.861c2.081,5.158,9.959,6.631,15.346,4.457
					C50.074-47.053,52.935-52.986,50.897-58.036z"/>
			</g>
		</g>
		
			<rect x="57.363" y="34.986" transform="matrix(0.3742 0.9273 -0.9273 0.3742 101.603 -43.902)" fill="#855156" stroke="#855156" stroke-width="0.1312" stroke-miterlimit="10" width="51.937" height="36.693"/>
		<polygon fill="#673B45" stroke="#673B45" stroke-width="0.1312" stroke-miterlimit="10" points="76.036,84.28 56.599,36.117 
			90.626,22.385 		"/>
		<g>
			
				<path fill="#673B45" stroke="#673B45" stroke-width="0.3374" stroke-linecap="round" stroke-linejoin="round" stroke-miterlimit="10" d="
				M83.184,12.63c-0.964,0.39-1.771,0.525-2.419,0.406c-0.649-0.118-1.099-0.489-1.351-1.111c-0.251-0.622-0.186-1.217,0.194-1.789
				c0.381-0.572,1.056-1.052,2.022-1.442c0.966-0.39,1.779-0.515,2.437-0.373c0.659,0.141,1.119,0.537,1.38,1.186
				C85.959,10.774,85.205,11.815,83.184,12.63z M83.198,12.25c0.81-0.327,1.38-0.716,1.715-1.167
				c0.334-0.45,0.396-0.936,0.187-1.456c-0.209-0.52-0.597-0.841-1.162-0.961c-0.565-0.121-1.292-0.004-2.181,0.355
				c-1.04,0.419-1.705,0.963-1.999,1.631c-0.164,0.372-0.178,0.726-0.04,1.065c0.137,0.338,0.326,0.585,0.563,0.741
				c0.24,0.155,0.515,0.236,0.824,0.248C81.69,12.728,82.388,12.576,83.198,12.25z"/>
			
				<path fill="#673B45" stroke="#673B45" stroke-width="0.3374" stroke-linecap="round" stroke-linejoin="round" stroke-miterlimit="10" d="
				M85.23,17.701c-0.963,0.389-1.77,0.524-2.42,0.406c-0.648-0.118-1.099-0.489-1.349-1.11c-0.251-0.623-0.187-1.219,0.193-1.791
				c0.381-0.571,1.056-1.052,2.022-1.442c0.966-0.389,1.779-0.515,2.436-0.373c0.66,0.142,1.119,0.537,1.382,1.186
				C88.005,15.843,87.251,16.886,85.23,17.701z M85.244,17.319c0.809-0.327,1.381-0.715,1.715-1.166
				c0.335-0.45,0.396-0.936,0.187-1.455c-0.21-0.521-0.597-0.841-1.162-0.963c-0.566-0.122-1.292-0.003-2.18,0.355
				c-1.041,0.42-1.707,0.962-2,1.631c-0.164,0.372-0.177,0.727-0.039,1.066c0.136,0.339,0.325,0.585,0.563,0.74
				c0.239,0.155,0.514,0.237,0.824,0.249C83.737,17.798,84.434,17.645,85.244,17.319z"/>
			
				<path fill="#673B45" stroke="#673B45" stroke-width="0.3374" stroke-linecap="round" stroke-linejoin="round" stroke-miterlimit="10" d="
				M79.9,4.708l3.17-1.279l1.054,2.613l-0.326,0.131l-0.944-2.342l-2.115,0.853c0.316,0.182,0.541,0.434,0.673,0.757
				c0.233,0.58,0.229,1.092-0.013,1.538c-0.242,0.447-0.633,0.778-1.171,0.996c-0.537,0.217-1.089,0.256-1.652,0.117
				c-0.563-0.142-0.947-0.461-1.149-0.96c-0.143-0.356-0.157-0.718-0.045-1.088c0.114-0.371,0.335-0.631,0.67-0.784l0.118,0.294
				c-0.215,0.111-0.362,0.305-0.443,0.582c-0.082,0.277-0.06,0.573,0.069,0.894c0.163,0.404,0.47,0.658,0.921,0.764
				c0.451,0.104,0.901,0.066,1.352-0.115c0.451-0.182,0.781-0.46,0.991-0.835c0.209-0.375,0.218-0.802,0.024-1.28
				c-0.097-0.239-0.255-0.434-0.472-0.587C80.392,4.825,80.156,4.736,79.9,4.708z"/>
		</g>
		
			<path fill="#B28086" stroke="#B28086" stroke-width="0.3374" stroke-linecap="round" stroke-linejoin="round" stroke-miterlimit="10" d="
			M79.895,72.308c-0.964,0.389-1.77,0.524-2.419,0.406c-0.648-0.118-1.1-0.488-1.351-1.11c-0.251-0.623-0.185-1.219,0.195-1.791
			c0.382-0.57,1.055-1.051,2.021-1.441c0.966-0.39,1.778-0.515,2.437-0.373c0.659,0.142,1.118,0.537,1.381,1.186
			C82.67,70.452,81.915,71.493,79.895,72.308z M79.909,71.927c0.809-0.327,1.382-0.714,1.715-1.167
			c0.335-0.45,0.396-0.936,0.187-1.455c-0.21-0.52-0.596-0.84-1.162-0.962c-0.564-0.122-1.291-0.004-2.181,0.354
			c-1.038,0.419-1.705,0.964-1.999,1.633c-0.163,0.372-0.175,0.727-0.038,1.065c0.136,0.337,0.323,0.585,0.562,0.739
			c0.239,0.156,0.514,0.239,0.824,0.248C78.403,72.406,79.099,72.253,79.909,71.927z"/>
		
			<rect x="58.561" y="39.732" transform="matrix(0.0026 1 -1 0.0026 154.7353 -36.3581)" fill="#FFFFFF" stroke="#FFFFFF" stroke-width="0.1622" stroke-miterlimit="10" width="74.064" height="39.309"/>
		<g>
			<defs>
				<polygon id="SVGID_5_" points="78.219,93.131 78.092,43.7 113.016,44.286 113.143,93.717 				"/>
			</defs>
			<clipPath id="SVGID_6_">
				<use xlink:href="#SVGID_5_"  overflow="visible"/>
			</clipPath>
			<path clip-path="url(#SVGID_6_)" fill="#139383" d="M83.628-37.772l-0.008-2.734c-2.311-1.742-3.404-4.638-3.411-7.291
				c-0.007-2.654,1.071-5.554,3.374-7.309l-0.007-2.734c-0.009-3.725-3.037-6.736-6.762-6.726l-7.075-0.658l0.088,34.232
				l7.073-0.018C80.625-31.02,83.638-34.048,83.628-37.772z"/>
			<path clip-path="url(#SVGID_6_)" fill="#139383" d="M69.739-65.553l7.075,0.656c3.899-0.009,7.082,3.156,7.092,7.056l0.008,2.735
				c0,0.102-0.049,0.199-0.131,0.263c-2.038,1.553-3.251,4.187-3.243,7.045c0.007,2.859,1.233,5.487,3.279,7.03
				c0.083,0.062,0.131,0.158,0.131,0.261l0.008,2.735c0.01,3.9-3.155,7.081-7.055,7.091l-7.074,0.018 M70.07-64.896l0.086,33.573
				l6.745-0.017c3.537-0.009,6.407-2.895,6.398-6.432l-0.007-2.574c-2.131-1.677-3.403-4.448-3.411-7.452s1.25-5.781,3.373-7.47
				l-0.007-2.573c-0.009-3.538-2.895-6.407-6.432-6.397L70.07-64.896z"/>
			<g clip-path="url(#SVGID_6_)">
				<path fill="#139383" d="M95.03-57.764c6.075-0.015,11.01,4.454,11.023,9.982s-4.897,10.022-10.971,10.038
					c-6.073,0.015-12.707-4.449-12.722-9.978C82.347-53.249,88.958-57.748,95.03-57.764z"/>
				<path fill="#139383" d="M82.23-47.721c-0.015-5.712,6.87-10.16,12.8-10.175c6.138-0.016,11.142,4.521,11.156,10.114
					c0.015,5.592-4.966,10.154-11.104,10.17C89.152-37.597,82.245-42.009,82.23-47.721z M105.921-47.781
					c-0.014-5.447-4.899-9.866-10.891-9.85c-5.809,0.015-12.551,4.347-12.536,9.91c0.014,5.563,6.778,9.86,12.588,9.845
					C101.073-37.892,105.935-42.334,105.921-47.781z"/>
			</g>
		</g>
		
			<polygon fill="#F6F6F6" stroke="#F6F6F6" stroke-width="0.1622" stroke-linecap="round" stroke-linejoin="round" stroke-miterlimit="10" points="
			76.034,96.469 75.844,22.405 115.153,22.304 		"/>
		
			<rect x="70.902" y="51.585" transform="matrix(0.0025 1 -1 0.0025 164.4207 -26.7474)" fill="#1CB1A3" stroke="#1CB1A3" stroke-width="0.1249" stroke-miterlimit="10" width="49.432" height="34.922"/>
		<polygon fill="#15A594" stroke="#15A594" stroke-width="0.1249" stroke-miterlimit="10" points="78.22,93.807 78.094,44.375 
			113.016,44.286 		"/>
		<g>
			
				<path fill="#139383" stroke="#139383" stroke-width="0.3374" stroke-linecap="round" stroke-linejoin="round" stroke-miterlimit="10" d="
				M106.356,26.221l-0.001-0.357l6.085-0.016l-0.646-1.417l0.348-0.001l0.827,1.775L106.356,26.221z"/>
			
				<path fill="#139383" stroke="#139383" stroke-width="0.3374" stroke-linecap="round" stroke-linejoin="round" stroke-miterlimit="10" d="
				M109.621,31.681c-1.038,0.002-1.84-0.173-2.396-0.524c-0.559-0.351-0.838-0.863-0.84-1.533c-0.002-0.671,0.28-1.201,0.847-1.59
				c0.565-0.388,1.37-0.584,2.411-0.587c1.043-0.002,1.843,0.184,2.402,0.561c0.559,0.376,0.838,0.914,0.84,1.614
				C112.887,30.988,111.8,31.676,109.621,31.681z M109.776,31.331c0.872-0.002,1.547-0.15,2.025-0.445
				c0.477-0.293,0.716-0.722,0.715-1.282c-0.002-0.561-0.243-1.001-0.722-1.325c-0.48-0.323-1.199-0.483-2.155-0.481
				c-1.122,0.003-1.943,0.26-2.464,0.771c-0.29,0.285-0.434,0.61-0.433,0.976c0.001,0.365,0.082,0.663,0.248,0.896
				c0.165,0.232,0.389,0.413,0.671,0.538C108.198,31.214,108.903,31.333,109.776,31.331z"/>
			
				<path fill="#139383" stroke="#139383" stroke-width="0.3374" stroke-linecap="round" stroke-linejoin="round" stroke-miterlimit="10" d="
				M109.635,37.147c-1.039,0.002-1.839-0.17-2.397-0.523c-0.558-0.351-0.838-0.861-0.84-1.533c-0.001-0.67,0.28-1.2,0.847-1.589
				c0.565-0.389,1.37-0.585,2.412-0.588c1.042-0.002,1.843,0.186,2.401,0.562c0.559,0.377,0.838,0.914,0.84,1.612
				C112.901,36.457,111.814,37.142,109.635,37.147z M109.79,36.796c0.872-0.002,1.547-0.149,2.025-0.443
				c0.477-0.295,0.716-0.721,0.716-1.282c-0.003-0.562-0.243-1.003-0.722-1.326c-0.481-0.324-1.199-0.483-2.157-0.481
				c-1.121,0.003-1.942,0.26-2.463,0.772c-0.289,0.283-0.434,0.607-0.433,0.973c0.001,0.365,0.083,0.664,0.249,0.897
				c0.165,0.232,0.389,0.411,0.67,0.537C108.212,36.682,108.917,36.799,109.79,36.796z"/>
		</g>
		
			<path fill="#CA9E67" stroke="#CA9E67" stroke-width="0.924" stroke-linecap="round" stroke-linejoin="round" stroke-miterlimit="10" d="
			M121.915,42.509"/>
		
			<line fill="#CA9E67" stroke="#CA9E67" stroke-width="0.924" stroke-linecap="round" stroke-linejoin="round" stroke-miterlimit="10" x1="121.915" y1="42.509" x2="121.916" y2="42.509"/>
	</g>
	
		<path fill="#CA9E67" stroke="#CA9E67" stroke-width="0.7366" stroke-linecap="round" stroke-linejoin="round" stroke-miterlimit="10" d="
		M116.007,105.85l21.89-30.512l-9.88-5.917l-9.975,6.003h0.002h-0.002l0,0l-9.879-5.917l-9.975,6.003l0,0l0,0l0,0l-9.88-5.917
		l-9.977,6.003l0,0l-9.879-5.917l-9.974,6.003l19.682,30.779c-44.32,14.041-77.624,70.393-77.624,109.917
		c0,45.264,43.679,72.093,97.561,72.093c53.881,0,97.561-26.829,97.561-72.093C195.66,176.251,161.335,118.737,116.007,105.85z"/>
	
		<path fill="#C0925E" stroke="#C0925E" stroke-width="1.0765" stroke-linecap="round" stroke-linejoin="round" stroke-miterlimit="10" d="
		M98.099,288.47c-53.882,0-97.561-26.829-97.561-72.093c0-39.523,33.303-95.875,77.624-109.917L58.479,75.682l9.974-6.003
		l9.879,5.917l0,0l9.977-6.003l9.88,5.917l0,0l0,0l0,0L98.099,288.47z"/>
	<polygon fill="#FFFFFF" points="123.432,107.923 72.488,107.923 77.233,106.153 75,102.741 119.022,102.741 116.642,105.614 	"/>
	<path fill="none" stroke="#FFFFFF" stroke-width="6.3775" stroke-linecap="round" stroke-miterlimit="10" d="M103.808,107.923
		c0,0-1.676,29.533,14.236,37.5"/>
	<path fill="none" stroke="#FFFFFF" stroke-width="6.3775" stroke-linecap="round" stroke-miterlimit="10" d="M95.042,106.704
		c0,0-5.094,8.436-0.853,19.224c4.242,10.788-5.932,16.007-12.882,17.749"/>
	<g>
		<path fill="#FFFFFF" stroke="#FFFFFF" stroke-miterlimit="10" d="M49.721,224.658l13.346-18.491
			c0.732-1.033,1.29-1.835,1.672-2.399c0.386-0.57,0.776-1.336,1.174-2.303c0.404-0.964,0.604-1.863,0.604-2.697
			c0-2.299-0.736-4.08-2.201-5.35c-1.468-1.265-3.165-1.899-5.097-1.899c-1.936,0-4.535,1.05-7.798,3.149v-1.799
			c2.929-2.133,5.646-3.199,8.148-3.199c2.498,0,4.58,0.842,6.248,2.524c1.663,1.68,2.497,3.808,2.497,6.374
			c0,2.562-0.898,5.097-2.701,7.599l-11.995,16.646h15.096v1.846H49.721z"/>
		<path fill="#FFFFFF" stroke="#FFFFFF" stroke-miterlimit="10" d="M74.062,207.712v-18.043H90.46v1.849H75.763v12.045
			c1.668-1.196,3.514-1.798,5.549-1.798c3.631,0,6.389,1.033,8.272,3.1c1.88,2.066,2.823,4.629,2.823,7.696
			s-0.992,5.841-2.973,8.322c-1.986,2.481-4.541,3.726-7.672,3.726c-2.234,0-4.227-0.643-5.977-1.928
			c-1.748-1.277-2.672-2.889-2.773-4.82h1.851c0.134,1.266,0.858,2.372,2.172,3.324c1.318,0.951,2.978,1.424,4.976,1.424
			c2.533,0,4.572-1.001,6.121-2.998c1.551-1.998,2.328-4.283,2.328-6.847c0-2.571-0.786-4.735-2.352-6.501
			c-1.566-1.765-3.85-2.647-6.846-2.647c-1.502,0-2.9,0.382-4.199,1.151C75.763,205.532,74.761,206.516,74.062,207.712z"/>
		<path fill="#FFFFFF" stroke="#FFFFFF" stroke-miterlimit="10" d="M119.15,207.464c0,5.495-0.936,9.722-2.799,12.671
			c-1.867,2.949-4.576,4.426-8.123,4.426c-3.552,0-6.35-1.501-8.4-4.499c-2.047-3.002-3.07-7.257-3.07-12.773
			c0-5.516,0.996-9.746,2.997-12.695c1.997-2.949,4.849-4.424,8.546-4.424C115.534,190.169,119.15,195.931,119.15,207.464z
			 M117.298,206.638c0-4.613-0.772-8.188-2.322-10.723c-1.55-2.53-3.807-3.797-6.773-3.797c-2.969,0-5.309,1.267-7.025,3.797
			c-1.716,2.534-2.574,6.334-2.574,11.398c0,5.93,1.351,10.283,4.051,13.045c1.498,1.533,3.215,2.298,5.146,2.298
			c1.933,0,3.519-0.431,4.752-1.298c1.232-0.865,2.18-2.05,2.847-3.551C116.664,214.977,117.298,211.255,117.298,206.638z"/>
		<path fill="#FFFFFF" stroke="#FFFFFF" stroke-miterlimit="10" d="M146.693,207.464c0,5.495-0.936,9.722-2.799,12.671
			c-1.867,2.949-4.576,4.426-8.123,4.426c-3.552,0-6.35-1.501-8.4-4.499c-2.047-3.002-3.07-7.257-3.07-12.773
			c0-5.516,0.995-9.746,2.996-12.695c1.998-2.949,4.85-4.424,8.547-4.424C143.076,190.169,146.693,195.931,146.693,207.464z
			 M144.841,206.638c0-4.613-0.772-8.188-2.322-10.723c-1.55-2.53-3.808-3.797-6.773-3.797c-2.969,0-5.309,1.267-7.025,3.797
			c-1.716,2.534-2.574,6.334-2.574,11.398c0,5.93,1.351,10.283,4.051,13.045c1.498,1.533,3.215,2.298,5.146,2.298
			c1.933,0,3.519-0.431,4.752-1.298c1.231-0.865,2.18-2.05,2.847-3.551C144.207,214.977,144.841,211.255,144.841,206.638z"/>
	</g>
	<g>
		
			<rect x="6.914" y="256.995" transform="matrix(0.9668 -0.2556 0.2556 0.9668 -69.4454 20.9356)" fill="#FFFFFF" stroke="#FFFFFF" stroke-width="0.1704" stroke-miterlimit="10" width="77.818" height="41.302"/>
		<g>
			<defs>
				<polygon id="SVGID_7_" points="84.425,284.47 36.638,297.107 28.363,263.173 76.154,250.537 				"/>
			</defs>
			<clipPath id="SVGID_8_">
				<use xlink:href="#SVGID_7_"  overflow="visible"/>
			</clipPath>
			<g clip-path="url(#SVGID_8_)">
				<path fill="#139383" d="M-43.583,312.375l-2.644,0.699c-1.101,2.678-3.626,4.465-6.19,5.145
					c-2.566,0.678-5.645,0.371-7.924-1.414l-2.643,0.699c-3.602,0.953-5.749,4.643-4.797,8.244l1.154,7.01l33.095-8.748
					l-1.808-6.838C-36.291,313.57-39.983,311.421-43.583,312.375z"/>
				<path fill="#139383" d="M-66.944,332.843l-1.154-7.012c-0.997-3.77,1.259-7.648,5.031-8.646l2.642-0.699
					c0.1-0.025,0.207-0.004,0.287,0.061c2.019,1.578,4.874,2.084,7.638,1.354c2.763-0.732,4.995-2.582,5.97-4.951
					c0.039-0.096,0.121-0.168,0.22-0.193l2.645-0.699c3.77-0.998,7.648,1.26,8.646,5.029l1.808,6.84 M-66.392,332.357l32.459-8.582
					l-1.724-6.52c-0.904-3.422-4.423-5.469-7.843-4.564l-2.488,0.658c-1.081,2.486-3.441,4.42-6.347,5.188
					c-2.9,0.768-5.908,0.254-8.079-1.373l-2.486,0.658c-3.422,0.904-5.468,4.422-4.562,7.842L-66.392,332.357z"/>
			</g>
			<g clip-path="url(#SVGID_8_)">
				<g>
					<path fill="#139383" d="M-65.81,306.404c-1.552-5.873,1.522-11.777,6.867-13.191c5.344-1.412,10.934,2.201,12.486,8.072
						c1.553,5.873-1.087,13.42-6.431,14.832C-58.232,317.531-64.257,312.273-65.81,306.404z"/>
					<path fill="#139383" d="M-52.854,316.246c-5.521,1.459-11.567-4.074-13.083-9.809c-1.569-5.934,1.553-11.922,6.961-13.352
						c5.405-1.43,11.079,2.232,12.647,8.166C-44.812,306.986-47.331,314.785-52.854,316.246z M-58.908,293.341
						c-5.267,1.391-8.304,7.236-6.772,13.027c1.485,5.615,7.383,11.043,12.761,9.621c5.377-1.422,7.821-9.055,6.336-14.67
						C-48.115,295.527-53.644,291.949-58.908,293.341z"/>
				</g>
			</g>
		</g>
		<polygon fill="#F6F6F6" stroke="#F6F6F6" stroke-width="0.1704" stroke-linejoin="round" stroke-miterlimit="10" points="
			88.718,287.666 13.485,307.556 2.928,267.626 		"/>
		
			<rect x="29.667" y="256.707" transform="matrix(0.9668 -0.2556 0.2556 0.9668 -68.4574 23.3579)" fill="#855156" stroke="#855156" stroke-width="0.1312" stroke-miterlimit="10" width="51.937" height="36.692"/>
		<polygon fill="#673B45" stroke="#673B45" stroke-width="0.1312" stroke-miterlimit="10" points="85.431,286.152 35.22,299.427 
			25.84,263.955 		"/>
		<g>
			
				<path fill="#673B45" stroke="#673B45" stroke-width="0.3374" stroke-linecap="round" stroke-linejoin="round" stroke-miterlimit="10" d="
				M15.233,270.123c0.267,1.004,0.3,1.82,0.102,2.449c-0.198,0.631-0.623,1.029-1.271,1.201s-1.23,0.033-1.75-0.416
				c-0.521-0.449-0.913-1.178-1.18-2.186c-0.266-1.008-0.289-1.83-0.065-2.465c0.223-0.637,0.673-1.043,1.349-1.221
				C13.737,267.136,14.677,268.015,15.233,270.123z M14.857,270.06c-0.224-0.844-0.538-1.457-0.944-1.846
				c-0.404-0.389-0.879-0.512-1.421-0.367c-0.542,0.143-0.909,0.486-1.099,1.033c-0.191,0.545-0.165,1.281,0.079,2.207
				c0.286,1.084,0.743,1.812,1.37,2.188c0.349,0.209,0.698,0.266,1.053,0.174c0.352-0.096,0.621-0.252,0.805-0.469
				c0.184-0.219,0.299-0.48,0.349-0.787C15.144,271.615,15.08,270.904,14.857,270.06z"/>
			
				<path fill="#673B45" stroke="#673B45" stroke-width="0.3374" stroke-linecap="round" stroke-linejoin="round" stroke-miterlimit="10" d="
				M20.521,268.724c0.265,1.004,0.299,1.822,0.1,2.451c-0.198,0.629-0.622,1.029-1.27,1.201c-0.648,0.17-1.233,0.031-1.753-0.418
				c-0.519-0.447-0.912-1.176-1.179-2.186c-0.266-1.006-0.288-1.83-0.065-2.463c0.224-0.637,0.672-1.043,1.349-1.223
				C19.022,265.74,19.963,266.617,20.521,268.724z M20.142,268.664c-0.223-0.844-0.536-1.461-0.942-1.848
				c-0.405-0.389-0.879-0.51-1.421-0.367s-0.908,0.488-1.1,1.033c-0.191,0.547-0.164,1.281,0.081,2.207
				c0.286,1.084,0.741,1.812,1.368,2.188c0.35,0.209,0.7,0.266,1.053,0.172c0.354-0.094,0.621-0.25,0.805-0.467
				c0.184-0.219,0.3-0.48,0.351-0.785C20.43,270.218,20.364,269.507,20.142,268.664z"/>
			
				<path fill="#673B45" stroke="#673B45" stroke-width="0.3374" stroke-linecap="round" stroke-linejoin="round" stroke-miterlimit="10" d="
				M6.963,272.392l-0.873-3.305l2.725-0.721l0.09,0.34l-2.442,0.646l0.583,2.203c0.22-0.291,0.498-0.482,0.834-0.572
				c0.605-0.158,1.113-0.092,1.525,0.203c0.413,0.297,0.693,0.727,0.842,1.287s0.118,1.113-0.091,1.654
				c-0.21,0.541-0.574,0.883-1.096,1.02c-0.37,0.1-0.731,0.068-1.085-0.09c-0.354-0.16-0.584-0.412-0.693-0.762l0.308-0.08
				c0.082,0.225,0.257,0.396,0.521,0.512c0.264,0.115,0.562,0.131,0.896,0.043c0.422-0.111,0.712-0.385,0.872-0.818
				c0.159-0.436,0.179-0.887,0.055-1.355c-0.124-0.471-0.359-0.832-0.705-1.088c-0.347-0.256-0.769-0.316-1.267-0.184
				c-0.249,0.066-0.463,0.197-0.642,0.395S7.023,272.142,6.963,272.392z"/>
		</g>
		<g>
			
				<path fill="#B28086" stroke="#B28086" stroke-width="0.3374" stroke-linecap="round" stroke-linejoin="round" stroke-miterlimit="10" d="
				M77.773,283.361c0.266,1.006,0.301,1.822,0.102,2.451s-0.621,1.029-1.271,1.201c-0.648,0.172-1.232,0.033-1.752-0.416
				c-0.52-0.451-0.912-1.178-1.178-2.186c-0.268-1.006-0.289-1.83-0.064-2.465c0.223-0.637,0.672-1.043,1.346-1.221
				C76.277,280.376,77.216,281.255,77.773,283.361z M77.396,283.3c-0.223-0.844-0.537-1.459-0.943-1.846
				c-0.406-0.389-0.879-0.512-1.42-0.367c-0.543,0.143-0.91,0.486-1.102,1.033c-0.191,0.545-0.164,1.279,0.08,2.207
				c0.287,1.082,0.744,1.812,1.371,2.188c0.348,0.207,0.699,0.264,1.053,0.17c0.352-0.092,0.619-0.248,0.805-0.465
				c0.184-0.219,0.299-0.48,0.348-0.787C77.683,284.855,77.619,284.144,77.396,283.3z"/>
			
				<path fill="#B28086" stroke="#B28086" stroke-width="0.3374" stroke-linecap="round" stroke-linejoin="round" stroke-miterlimit="10" d="
				M83.058,281.964c0.266,1.004,0.301,1.82,0.102,2.451c-0.199,0.627-0.621,1.029-1.27,1.199c-0.65,0.172-1.232,0.033-1.754-0.416
				c-0.518-0.449-0.91-1.178-1.176-2.186c-0.268-1.006-0.291-1.828-0.066-2.463c0.223-0.637,0.672-1.043,1.35-1.223
				C81.562,278.978,82.501,279.857,83.058,281.964z M82.681,281.904c-0.223-0.844-0.537-1.461-0.943-1.848
				c-0.404-0.389-0.879-0.51-1.42-0.367c-0.543,0.145-0.908,0.486-1.1,1.033c-0.191,0.545-0.166,1.281,0.08,2.207
				c0.285,1.084,0.742,1.812,1.369,2.188c0.35,0.209,0.701,0.266,1.053,0.17c0.352-0.092,0.621-0.246,0.805-0.463
				c0.184-0.221,0.301-0.482,0.348-0.787C82.97,283.457,82.904,282.746,82.681,281.904z"/>
			
				<path fill="#B28086" stroke="#B28086" stroke-width="0.3374" stroke-linecap="round" stroke-linejoin="round" stroke-miterlimit="10" d="
				M69.503,285.632l-0.873-3.305l2.725-0.721l0.088,0.338l-2.441,0.646l0.584,2.207c0.217-0.295,0.496-0.484,0.834-0.572
				c0.604-0.16,1.111-0.094,1.525,0.201c0.412,0.297,0.693,0.725,0.842,1.287c0.148,0.561,0.117,1.113-0.092,1.654
				s-0.574,0.881-1.096,1.02c-0.371,0.098-0.732,0.066-1.084-0.09c-0.354-0.16-0.586-0.414-0.695-0.762l0.309-0.082
				c0.082,0.227,0.258,0.398,0.521,0.514c0.264,0.117,0.562,0.131,0.895,0.043c0.422-0.111,0.711-0.385,0.873-0.818
				c0.16-0.436,0.18-0.887,0.055-1.357c-0.123-0.469-0.359-0.83-0.705-1.086s-0.768-0.316-1.266-0.184
				c-0.25,0.066-0.463,0.195-0.643,0.395C69.681,285.158,69.56,285.382,69.503,285.632z"/>
		</g>
	</g>
</g>
</svg>
