<?xml version="1.0" encoding="utf-8"?>
<!-- Generator: Adobe Illustrator 15.0.2, SVG Export Plug-In . SVG Version: 6.00 Build 0)  -->
<!DOCTYPE svg PUBLIC "-//W3C//DTD SVG 1.1//EN" "http://www.w3.org/Graphics/SVG/1.1/DTD/svg11.dtd">
<svg version="1.1" id="Lager_1" xmlns="http://www.w3.org/2000/svg" xmlns:xlink="http://www.w3.org/1999/xlink" x="0px" y="0px"
	 width="285.612px" height="334.529px" viewBox="0 0 285.612 334.529" enable-background="new 0 0 285.612 334.529"
	 xml:space="preserve">
<g>
	
		<rect x="143.736" y="23.287" transform="matrix(0.3777 -0.9259 0.9259 0.3777 72.9702 196.4541)" fill="#FFFFFF" stroke="#FFFFFF" stroke-width="0.1704" stroke-miterlimit="10" width="77.817" height="41.302"/>
	
		<rect x="160.511" y="16.194" transform="matrix(0.3777 -0.9259 0.9259 0.3777 84.0591 194.1579)" fill="#855156" stroke="#855156" stroke-width="0.1312" stroke-miterlimit="10" width="51.937" height="36.693"/>
	
		<path fill="#CA9E67" stroke="#CA9E67" stroke-width="0.924" stroke-linecap="round" stroke-linejoin="round" stroke-miterlimit="10" d="
		M192.488,45.957"/>
	
		<line fill="#CA9E67" stroke="#CA9E67" stroke-width="0.924" stroke-linecap="round" stroke-linejoin="round" stroke-miterlimit="10" x1="192.488" y1="45.957" x2="192.489" y2="45.958"/>
	<g>
		<defs>
			<polygon id="SVGID_1_" points="211.329,17.217 192.658,62.986 160.578,49.17 179.25,3.4 			"/>
		</defs>
		<clipPath id="SVGID_2_">
			<use xlink:href="#SVGID_1_"  overflow="visible"/>
		</clipPath>
		<g clip-path="url(#SVGID_2_)">
			<path fill="#139383" d="M156.569,136.239l-1.033,2.532c1.477,2.491,1.385,5.583,0.383,8.04c-1.003,2.457-3.101,4.73-5.897,5.478
				l-1.032,2.53c-1.407,3.45,0.248,7.386,3.697,8.792l6.293,3.298l12.931-31.695l-6.549-2.672
				C161.912,131.135,157.975,132.791,156.569,136.239z"/>
			<path fill="#139383" d="M158.855,167.215l-6.294-3.299c-3.611-1.473-5.351-5.608-3.877-9.221l1.032-2.531
				c0.039-0.095,0.12-0.168,0.22-0.193c2.476-0.662,4.598-2.637,5.678-5.284c1.079-2.646,0.944-5.543-0.36-7.748
				c-0.054-0.089-0.061-0.197-0.022-0.292l1.033-2.532c1.473-3.611,5.609-5.351,9.221-3.877l6.549,2.672 M158.799,166.48
				l12.682-31.087l-6.244-2.547c-3.275-1.336-7.028,0.241-8.364,3.517l-0.972,2.382c1.335,2.361,1.458,5.409,0.322,8.19
				c-1.133,2.779-3.353,4.872-5.959,5.626l-0.971,2.381c-1.338,3.277,0.24,7.027,3.517,8.364L158.799,166.48z"/>
		</g>
		<g clip-path="url(#SVGID_2_)">
			<g>
				<path fill="#139383" d="M138.423,150.395c-5.624-2.294-8.489-8.303-6.401-13.422c2.088-5.118,8.338-7.408,13.962-5.113
					c5.624,2.294,10.062,8.944,7.975,14.062C151.87,151.041,144.045,152.689,138.423,150.395z"/>
				<path fill="#139383" d="M154.081,145.972c-2.157,5.288-10.216,6.786-15.707,4.546c-5.683-2.318-8.586-8.416-6.474-13.595
					c2.112-5.177,8.452-7.503,14.135-5.185C151.526,133.977,156.238,140.683,154.081,145.972z M132.145,137.022
					c-2.059,5.043,0.781,10.986,6.328,13.249c5.379,2.194,13.262,0.75,15.363-4.4c2.101-5.15-2.523-11.696-7.902-13.89
					C140.387,129.719,134.202,131.98,132.145,137.022z"/>
			</g>
		</g>
	</g>
	<polygon fill="#F6F6F6" stroke="#F6F6F6" stroke-width="0.1704" stroke-linejoin="round" stroke-miterlimit="10" points="
		216.463,15.712 187.069,87.764 148.827,72.164 	"/>
	<polygon fill="#673B45" stroke="#673B45" stroke-width="0.1312" stroke-miterlimit="10" points="213.276,17.426 193.658,65.515 
		159.683,51.655 	"/>
	<g>
		
			<path fill="#B28086" stroke="#B28086" stroke-width="0.3374" stroke-linecap="round" stroke-linejoin="round" stroke-miterlimit="10" d="
			M206.439,21.862c0.962,0.393,1.635,0.857,2.018,1.394c0.383,0.538,0.448,1.117,0.194,1.739c-0.254,0.621-0.716,1.004-1.387,1.148
			c-0.673,0.145-1.49,0.02-2.455-0.374c-0.964-0.393-1.635-0.872-2.007-1.432c-0.374-0.561-0.429-1.164-0.164-1.811
			C203.154,21.26,204.421,21.039,206.439,21.862z M206.163,22.127c-0.808-0.33-1.489-0.449-2.042-0.359
			c-0.555,0.091-0.937,0.395-1.148,0.914s-0.158,1.02,0.163,1.501c0.319,0.481,0.923,0.902,1.811,1.264
			c1.037,0.423,1.896,0.497,2.572,0.222c0.375-0.151,0.632-0.398,0.77-0.736s0.175-0.646,0.112-0.923
			c-0.063-0.278-0.203-0.528-0.419-0.752C207.577,22.833,206.971,22.457,206.163,22.127z"/>
		
			<path fill="#B28086" stroke="#B28086" stroke-width="0.3374" stroke-linecap="round" stroke-linejoin="round" stroke-miterlimit="10" d="
			M208.503,16.801c0.962,0.392,1.635,0.856,2.019,1.394c0.382,0.537,0.448,1.116,0.194,1.737c-0.254,0.622-0.717,1.004-1.388,1.149
			c-0.671,0.143-1.489,0.019-2.454-0.375c-0.964-0.393-1.635-0.87-2.007-1.43c-0.374-0.561-0.429-1.165-0.164-1.812
			C205.219,16.198,206.486,15.978,208.503,16.801z M208.228,17.064c-0.808-0.33-1.489-0.45-2.043-0.358
			c-0.554,0.09-0.937,0.395-1.147,0.914c-0.212,0.519-0.158,1.018,0.162,1.5c0.32,0.481,0.925,0.903,1.812,1.266
			c1.037,0.423,1.895,0.497,2.571,0.222c0.376-0.153,0.633-0.399,0.77-0.738c0.139-0.336,0.176-0.645,0.113-0.922
			c-0.064-0.278-0.203-0.529-0.419-0.751C209.642,17.77,209.036,17.394,208.228,17.064z"/>
		
			<path fill="#B28086" stroke="#B28086" stroke-width="0.3374" stroke-linecap="round" stroke-linejoin="round" stroke-miterlimit="10" d="
			M203.274,29.833l-3.164-1.291l1.064-2.609l0.323,0.132l-0.954,2.339l2.114,0.862c-0.104-0.35-0.088-0.686,0.044-1.01
			c0.236-0.579,0.596-0.943,1.08-1.096c0.485-0.151,0.996-0.118,1.534,0.102c0.537,0.219,0.96,0.576,1.266,1.069
			c0.307,0.493,0.358,0.989,0.155,1.488c-0.146,0.354-0.387,0.625-0.725,0.812c-0.34,0.187-0.682,0.219-1.026,0.097l0.12-0.295
			c0.231,0.07,0.473,0.033,0.724-0.108c0.253-0.14,0.443-0.371,0.573-0.689c0.164-0.403,0.121-0.799-0.128-1.189
			c-0.251-0.39-0.601-0.677-1.051-0.86c-0.449-0.184-0.881-0.213-1.292-0.091c-0.412,0.123-0.715,0.423-0.909,0.9
			c-0.097,0.238-0.122,0.488-0.071,0.75C203.002,29.406,203.11,29.637,203.274,29.833z"/>
	</g>
	<g>
		
			<path fill="#673B45" stroke="#673B45" stroke-width="0.3374" stroke-linecap="round" stroke-linejoin="round" stroke-miterlimit="10" d="
			M155.679,62.509c0.963,0.392,1.635,0.857,2.018,1.394c0.383,0.538,0.447,1.117,0.193,1.739c-0.252,0.621-0.715,1.002-1.385,1.147
			c-0.672,0.145-1.49,0.02-2.455-0.374c-0.965-0.394-1.637-0.871-2.008-1.431c-0.375-0.561-0.428-1.165-0.164-1.812
			C152.394,61.906,153.662,61.686,155.679,62.509z M155.404,62.772c-0.809-0.33-1.488-0.448-2.043-0.358s-0.938,0.395-1.148,0.915
			c-0.213,0.519-0.158,1.019,0.164,1.499c0.32,0.481,0.924,0.903,1.811,1.265c1.037,0.424,1.895,0.497,2.57,0.223
			c0.377-0.153,0.633-0.398,0.771-0.736c0.137-0.338,0.174-0.647,0.111-0.924c-0.064-0.278-0.203-0.528-0.418-0.752
			C156.818,63.48,156.21,63.102,155.404,62.772z"/>
		
			<path fill="#673B45" stroke="#673B45" stroke-width="0.3374" stroke-linecap="round" stroke-linejoin="round" stroke-miterlimit="10" d="
			M157.744,57.446c0.963,0.393,1.635,0.857,2.018,1.395c0.385,0.537,0.449,1.117,0.195,1.737c-0.254,0.621-0.717,1.004-1.387,1.149
			c-0.672,0.144-1.49,0.02-2.455-0.374c-0.965-0.394-1.635-0.871-2.008-1.431c-0.373-0.561-0.428-1.165-0.164-1.812
			C154.458,56.845,155.726,56.623,157.744,57.446z M157.468,57.711c-0.809-0.33-1.488-0.45-2.043-0.358
			c-0.555,0.089-0.936,0.395-1.148,0.913c-0.211,0.52-0.156,1.02,0.164,1.501s0.924,0.902,1.811,1.264
			c1.039,0.423,1.895,0.499,2.57,0.224c0.377-0.153,0.635-0.399,0.771-0.737c0.139-0.338,0.174-0.646,0.111-0.923
			c-0.064-0.278-0.203-0.529-0.416-0.753C158.882,58.417,158.275,58.041,157.468,57.711z"/>
		
			<path fill="#673B45" stroke="#673B45" stroke-width="0.3374" stroke-linecap="round" stroke-linejoin="round" stroke-miterlimit="10" d="
			M152.513,70.479l-3.164-1.291l1.064-2.609l0.326,0.132l-0.955,2.338l2.111,0.862c-0.1-0.351-0.086-0.688,0.045-1.011
			c0.238-0.579,0.598-0.944,1.08-1.096c0.486-0.151,0.998-0.117,1.535,0.102s0.959,0.575,1.266,1.068
			c0.307,0.494,0.359,0.99,0.156,1.488c-0.145,0.355-0.387,0.625-0.727,0.812s-0.68,0.219-1.025,0.096l0.121-0.294
			c0.23,0.07,0.471,0.033,0.723-0.108c0.252-0.141,0.443-0.37,0.572-0.689c0.166-0.404,0.123-0.799-0.127-1.189
			c-0.252-0.389-0.602-0.676-1.051-0.859s-0.881-0.214-1.293-0.092c-0.412,0.124-0.715,0.423-0.908,0.901
			c-0.098,0.239-0.121,0.489-0.07,0.75C152.242,70.053,152.351,70.282,152.513,70.479z"/>
		
			<rect x="108.651" y="25.388" transform="matrix(0.3742 0.9273 -0.9273 0.3742 135.0337 -108.0278)" fill="#FFFFFF" stroke="#FFFFFF" stroke-width="0.1704" stroke-miterlimit="10" width="77.817" height="41.302"/>
		<g>
			<defs>
				<polygon id="SVGID_3_" points="145.605,85.192 127.107,39.353 159.744,26.909 178.242,72.75 				"/>
			</defs>
			<clipPath id="SVGID_4_">
				<use xlink:href="#SVGID_3_"  overflow="visible"/>
			</clipPath>
			<path clip-path="url(#SVGID_4_)" fill="#139383" d="M101.951-38.337l-1.023-2.536c-2.793-0.758-4.883-3.04-5.876-5.5
				c-0.992-2.461-1.072-5.554,0.413-8.038l-1.022-2.535c-1.395-3.455-5.324-5.124-8.778-3.73l-6.812,2.02l12.81,31.744l6.56-2.647
				C101.675-30.952,103.345-34.883,101.951-38.337z"/>
			<path clip-path="url(#SVGID_4_)" fill="#139383" d="M78.728-58.962l6.812-2.019c3.617-1.46,7.747,0.294,9.207,3.913l1.023,2.534
				c0.037,0.096,0.03,0.204-0.023,0.292c-1.314,2.199-1.461,5.095-0.391,7.746c1.07,2.65,3.185,4.634,5.657,5.306
				c0.1,0.026,0.182,0.099,0.221,0.194l1.023,2.536c1.459,3.616-0.297,7.747-3.915,9.206l-6.559,2.646 M79.279-58.474l12.564,31.135
				l6.253-2.523c3.282-1.324,4.874-5.071,3.549-8.351l-0.962-2.386c-2.603-0.763-4.815-2.864-5.938-5.649
				c-1.123-2.784-0.989-5.832,0.354-8.188l-0.963-2.385c-1.323-3.282-5.07-4.873-8.351-3.548L79.279-58.474z"/>
			<g clip-path="url(#SVGID_4_)">
				<path fill="#139383" d="M105.103-61.134c5.633-2.273,11.875,0.041,13.943,5.167s-0.82,11.124-6.453,13.397
					c-5.631,2.273-13.449,0.595-15.517-4.53C95.007-52.228,99.472-58.861,105.103-61.134z"/>
				<path fill="#139383" d="M96.954-47.051c-2.138-5.297,2.6-11.986,8.1-14.206c5.689-2.297,12.021,0.054,14.115,5.241
					c2.092,5.186-0.834,11.272-6.527,13.568C107.144-40.228,99.091-41.754,96.954-47.051z M118.923-55.917
					c-2.037-5.052-8.215-7.336-13.77-5.094c-5.388,2.174-10.037,8.703-7.955,13.861c2.081,5.158,9.958,6.631,15.345,4.457
					C118.101-44.934,120.962-50.867,118.923-55.917z"/>
			</g>
		</g>
		
			<rect x="125.39" y="37.105" transform="matrix(0.3742 0.9273 -0.9273 0.3742 146.14 -105.6597)" fill="#855156" stroke="#855156" stroke-width="0.1312" stroke-miterlimit="10" width="51.937" height="36.693"/>
		<polygon fill="#673B45" stroke="#673B45" stroke-width="0.1312" stroke-miterlimit="10" points="144.062,86.399 124.626,38.236 
			158.654,24.504 		"/>
		<g>
			
				<path fill="#673B45" stroke="#673B45" stroke-width="0.3374" stroke-linecap="round" stroke-linejoin="round" stroke-miterlimit="10" d="
				M151.21,14.75c-0.963,0.39-1.77,0.525-2.418,0.406c-0.65-0.118-1.1-0.489-1.352-1.111c-0.25-0.622-0.186-1.217,0.195-1.789
				c0.381-0.572,1.055-1.052,2.021-1.442c0.967-0.39,1.779-0.515,2.438-0.373c0.658,0.141,1.119,0.537,1.379,1.186
				C153.986,12.894,153.232,13.935,151.21,14.75z M151.224,14.369c0.811-0.327,1.381-0.716,1.715-1.167
				c0.334-0.45,0.396-0.936,0.188-1.456c-0.209-0.52-0.598-0.841-1.162-0.961c-0.566-0.121-1.293-0.004-2.182,0.355
				c-1.039,0.419-1.705,0.963-1.998,1.631c-0.164,0.372-0.178,0.726-0.041,1.065c0.137,0.338,0.326,0.585,0.564,0.741
				c0.24,0.155,0.514,0.236,0.824,0.248C149.716,14.847,150.416,14.695,151.224,14.369z"/>
			
				<path fill="#673B45" stroke="#673B45" stroke-width="0.3374" stroke-linecap="round" stroke-linejoin="round" stroke-miterlimit="10" d="
				M153.257,19.82c-0.963,0.389-1.77,0.524-2.42,0.406c-0.648-0.118-1.1-0.489-1.35-1.11c-0.25-0.623-0.186-1.219,0.193-1.791
				c0.381-0.571,1.057-1.052,2.023-1.442c0.965-0.389,1.779-0.515,2.436-0.373c0.66,0.142,1.119,0.537,1.381,1.186
				C156.033,17.962,155.279,19.005,153.257,19.82z M153.271,19.438c0.809-0.327,1.381-0.715,1.715-1.166
				c0.334-0.45,0.396-0.936,0.186-1.455c-0.209-0.521-0.596-0.841-1.162-0.963c-0.566-0.122-1.291-0.003-2.18,0.355
				c-1.041,0.42-1.707,0.962-2,1.631c-0.164,0.372-0.176,0.727-0.039,1.066s0.326,0.585,0.564,0.74
				c0.238,0.155,0.514,0.237,0.824,0.249C151.763,19.917,152.46,19.764,153.271,19.438z"/>
			
				<path fill="#673B45" stroke="#673B45" stroke-width="0.3374" stroke-linecap="round" stroke-linejoin="round" stroke-miterlimit="10" d="
				M147.927,6.828l3.17-1.279l1.053,2.613l-0.326,0.131l-0.943-2.342l-2.115,0.853c0.316,0.182,0.541,0.434,0.672,0.757
				c0.234,0.58,0.23,1.092-0.012,1.538c-0.242,0.447-0.633,0.778-1.172,0.996c-0.537,0.217-1.088,0.256-1.652,0.117
				c-0.562-0.142-0.947-0.461-1.148-0.96c-0.143-0.356-0.158-0.718-0.045-1.088c0.113-0.371,0.334-0.631,0.67-0.784l0.117,0.294
				c-0.215,0.111-0.361,0.305-0.443,0.582c-0.082,0.277-0.059,0.573,0.07,0.894c0.162,0.404,0.469,0.658,0.92,0.764
				c0.451,0.104,0.902,0.066,1.352-0.115c0.451-0.182,0.781-0.46,0.992-0.835c0.209-0.375,0.217-0.802,0.023-1.28
				c-0.096-0.239-0.254-0.434-0.471-0.587C148.419,6.944,148.183,6.855,147.927,6.828z"/>
		</g>
		
			<path fill="#B28086" stroke="#B28086" stroke-width="0.3374" stroke-linecap="round" stroke-linejoin="round" stroke-miterlimit="10" d="
			M147.921,74.427c-0.963,0.389-1.77,0.524-2.418,0.406s-1.1-0.488-1.352-1.11c-0.25-0.623-0.184-1.219,0.195-1.791
			c0.383-0.57,1.055-1.051,2.021-1.441s1.779-0.515,2.438-0.373c0.658,0.142,1.117,0.537,1.381,1.186
			C150.697,72.571,149.941,73.612,147.921,74.427z M147.935,74.046c0.809-0.327,1.383-0.714,1.715-1.167
			c0.336-0.45,0.396-0.936,0.188-1.455c-0.211-0.52-0.596-0.84-1.162-0.962c-0.564-0.122-1.291-0.004-2.182,0.354
			c-1.037,0.419-1.705,0.964-1.998,1.633c-0.164,0.372-0.176,0.727-0.039,1.065c0.137,0.337,0.324,0.585,0.562,0.739
			c0.24,0.156,0.514,0.239,0.824,0.248C146.429,74.525,147.126,74.372,147.935,74.046z"/>
		
			<rect x="126.588" y="41.851" transform="matrix(0.0026 1 -1 0.0026 224.7068 -102.2706)" fill="#FFFFFF" stroke="#FFFFFF" stroke-width="0.1622" stroke-miterlimit="10" width="74.064" height="39.309"/>
		<g>
			<defs>
				<polygon id="SVGID_5_" points="146.246,95.25 146.119,45.819 181.042,46.405 181.169,95.836 				"/>
			</defs>
			<clipPath id="SVGID_6_">
				<use xlink:href="#SVGID_5_"  overflow="visible"/>
			</clipPath>
			<path clip-path="url(#SVGID_6_)" fill="#139383" d="M151.656-35.653l-0.008-2.734c-2.311-1.742-3.404-4.638-3.412-7.291
				c-0.006-2.654,1.072-5.554,3.375-7.309l-0.008-2.734c-0.008-3.725-3.037-6.736-6.762-6.726l-7.074-0.658l0.088,34.232
				l7.072-0.018C148.652-28.901,151.666-31.929,151.656-35.653z"/>
			<path clip-path="url(#SVGID_6_)" fill="#139383" d="M137.765-63.434l7.076,0.656c3.898-0.009,7.082,3.156,7.092,7.056
				l0.008,2.735c0,0.102-0.049,0.199-0.131,0.263c-2.039,1.553-3.252,4.187-3.244,7.045c0.008,2.859,1.234,5.487,3.279,7.03
				c0.084,0.062,0.131,0.158,0.131,0.261l0.008,2.735c0.01,3.9-3.154,7.081-7.055,7.091l-7.074,0.018 M138.097-62.777l0.086,33.573
				l6.744-0.017c3.537-0.009,6.408-2.895,6.398-6.432l-0.006-2.574c-2.131-1.677-3.404-4.448-3.412-7.452s1.25-5.781,3.373-7.47
				l-0.006-2.573c-0.01-3.538-2.895-6.407-6.432-6.397L138.097-62.777z"/>
			<g clip-path="url(#SVGID_6_)">
				<path fill="#139383" d="M163.056-55.645c6.076-0.015,11.01,4.454,11.023,9.982s-4.896,10.022-10.971,10.038
					c-6.072,0.015-12.707-4.449-12.721-9.978C150.375-51.13,156.986-55.629,163.056-55.645z"/>
				<path fill="#139383" d="M150.257-45.602c-0.016-5.712,6.869-10.16,12.799-10.175c6.139-0.016,11.143,4.521,11.156,10.114
					c0.016,5.592-4.965,10.154-11.104,10.17C157.179-35.478,150.271-39.89,150.257-45.602z M173.949-45.662
					c-0.014-5.447-4.9-9.866-10.891-9.85c-5.809,0.015-12.551,4.347-12.537,9.91c0.014,5.563,6.779,9.86,12.588,9.845
					C169.099-35.772,173.962-40.215,173.949-45.662z"/>
			</g>
		</g>
		
			<polygon fill="#F6F6F6" stroke="#F6F6F6" stroke-width="0.1622" stroke-linecap="round" stroke-linejoin="round" stroke-miterlimit="10" points="
			144.06,98.588 143.871,24.524 183.179,24.423 		"/>
		
			<rect x="138.929" y="53.705" transform="matrix(0.0026 1 -1 0.0026 234.39 -92.6617)" fill="#1CB1A3" stroke="#1CB1A3" stroke-width="0.1249" stroke-miterlimit="10" width="49.432" height="34.922"/>
		<polygon fill="#15A594" stroke="#15A594" stroke-width="0.1249" stroke-miterlimit="10" points="146.248,95.926 146.121,46.494 
			181.042,46.405 		"/>
		<g>
			
				<path fill="#139383" stroke="#139383" stroke-width="0.3374" stroke-linecap="round" stroke-linejoin="round" stroke-miterlimit="10" d="
				M174.382,28.34v-0.357l6.084-0.016l-0.645-1.417l0.348-0.001l0.826,1.775L174.382,28.34z"/>
			
				<path fill="#139383" stroke="#139383" stroke-width="0.3374" stroke-linecap="round" stroke-linejoin="round" stroke-miterlimit="10" d="
				M177.648,33.8c-1.039,0.002-1.84-0.173-2.396-0.524c-0.559-0.351-0.838-0.863-0.84-1.533c-0.002-0.671,0.279-1.201,0.846-1.59
				c0.566-0.388,1.371-0.584,2.412-0.587c1.043-0.002,1.842,0.184,2.402,0.561c0.559,0.376,0.838,0.914,0.84,1.614
				C180.914,33.107,179.828,33.795,177.648,33.8z M177.802,33.45c0.873-0.002,1.547-0.15,2.025-0.445
				c0.477-0.293,0.717-0.722,0.715-1.282s-0.242-1.001-0.721-1.325c-0.48-0.323-1.199-0.483-2.156-0.481
				c-1.121,0.003-1.943,0.26-2.463,0.771c-0.291,0.285-0.434,0.61-0.434,0.976c0.002,0.365,0.082,0.663,0.248,0.896
				c0.166,0.232,0.389,0.413,0.672,0.538C176.224,33.333,176.929,33.452,177.802,33.45z"/>
			
				<path fill="#139383" stroke="#139383" stroke-width="0.3374" stroke-linecap="round" stroke-linejoin="round" stroke-miterlimit="10" d="
				M177.662,39.267c-1.039,0.002-1.838-0.17-2.396-0.523c-0.559-0.351-0.838-0.861-0.84-1.533c-0.002-0.67,0.279-1.2,0.846-1.589
				s1.371-0.585,2.412-0.588c1.043-0.002,1.844,0.186,2.402,0.562c0.559,0.377,0.838,0.914,0.84,1.612
				C180.927,38.576,179.841,39.261,177.662,39.267z M177.816,38.916c0.873-0.002,1.547-0.149,2.025-0.443
				c0.477-0.295,0.717-0.721,0.717-1.282c-0.004-0.562-0.244-1.003-0.723-1.326c-0.48-0.324-1.199-0.483-2.156-0.481
				c-1.121,0.003-1.943,0.26-2.463,0.772c-0.289,0.283-0.434,0.607-0.434,0.973c0.002,0.365,0.084,0.664,0.25,0.897
				c0.164,0.232,0.389,0.411,0.67,0.537C176.24,38.801,176.945,38.918,177.816,38.916z"/>
		</g>
		
			<path fill="#CA9E67" stroke="#CA9E67" stroke-width="0.924" stroke-linecap="round" stroke-linejoin="round" stroke-miterlimit="10" d="
			M189.941,44.628"/>
		
			<line fill="#CA9E67" stroke="#CA9E67" stroke-width="0.924" stroke-linecap="round" stroke-linejoin="round" stroke-miterlimit="10" x1="189.941" y1="44.628" x2="189.943" y2="44.628"/>
	</g>
	
		<path fill="#673B45" stroke="#673B45" stroke-width="0.3374" stroke-linecap="round" stroke-linejoin="round" stroke-miterlimit="10" d="
		M155.06,71.809l-3.164-1.291l1.064-2.609l0.325,0.132l-0.954,2.338l2.111,0.862c-0.101-0.351-0.086-0.688,0.045-1.011
		c0.237-0.579,0.597-0.944,1.08-1.096c0.485-0.151,0.997-0.117,1.534,0.102s0.96,0.575,1.267,1.068
		c0.306,0.494,0.359,0.99,0.155,1.488c-0.145,0.355-0.387,0.625-0.726,0.812c-0.34,0.187-0.68,0.219-1.025,0.096l0.12-0.294
		c0.23,0.07,0.472,0.033,0.724-0.108c0.251-0.141,0.442-0.37,0.572-0.689c0.165-0.404,0.122-0.799-0.128-1.189
		c-0.251-0.389-0.601-0.676-1.05-0.859c-0.45-0.184-0.881-0.214-1.293-0.092c-0.412,0.124-0.715,0.423-0.909,0.901
		c-0.097,0.239-0.12,0.489-0.07,0.75C154.789,71.382,154.897,71.611,155.06,71.809z"/>
	
		<path fill="#B28086" stroke="#B28086" stroke-width="0.3374" stroke-linecap="round" stroke-linejoin="round" stroke-miterlimit="10" d="
		M150.468,75.756c-0.964,0.389-1.77,0.524-2.419,0.406c-0.648-0.118-1.1-0.488-1.351-1.11c-0.251-0.623-0.185-1.219,0.195-1.791
		c0.382-0.57,1.055-1.051,2.021-1.441c0.966-0.39,1.778-0.515,2.437-0.373c0.659,0.142,1.118,0.537,1.381,1.186
		C153.244,73.9,152.488,74.941,150.468,75.756z M150.482,75.375c0.809-0.327,1.382-0.714,1.715-1.167
		c0.335-0.45,0.396-0.936,0.187-1.455c-0.21-0.52-0.596-0.84-1.162-0.962c-0.564-0.122-1.291-0.004-2.181,0.354
		c-1.038,0.419-1.705,0.964-1.999,1.633c-0.163,0.372-0.175,0.727-0.038,1.065c0.136,0.337,0.323,0.585,0.562,0.739
		c0.239,0.156,0.514,0.239,0.824,0.248C148.976,75.854,149.672,75.701,150.482,75.375z"/>
	
		<path fill="#98D2D1" stroke="#98D2D1" stroke-width="0.3374" stroke-linecap="round" stroke-linejoin="round" stroke-miterlimit="10" d="
		M150.112,75.871l-0.001-0.358l6.084-0.016l-0.646-1.415l0.35,0l0.826,1.772L150.112,75.871z"/>
	
		<path fill="#98D2D1" stroke="#98D2D1" stroke-width="0.3374" stroke-linecap="round" stroke-linejoin="round" stroke-miterlimit="10" d="
		M153.375,81.331c-1.039,0.003-1.838-0.171-2.396-0.523c-0.558-0.352-0.84-0.862-0.841-1.533c-0.002-0.671,0.28-1.2,0.847-1.59
		c0.565-0.389,1.37-0.584,2.412-0.587c1.042-0.002,1.843,0.183,2.401,0.56s0.839,0.914,0.84,1.614
		C156.643,80.639,155.554,81.325,153.375,81.331z M153.531,80.98c0.872-0.002,1.548-0.149,2.025-0.444
		c0.478-0.294,0.717-0.722,0.716-1.281c-0.001-0.562-0.244-1.003-0.722-1.326c-0.48-0.324-1.198-0.483-2.156-0.481
		c-1.122,0.002-1.941,0.259-2.464,0.771c-0.289,0.285-0.434,0.609-0.433,0.975c0.002,0.365,0.084,0.664,0.249,0.896
		c0.163,0.233,0.388,0.413,0.671,0.539C151.954,80.865,152.659,80.983,153.531,80.98z"/>
	
		<path fill="#98D2D1" stroke="#98D2D1" stroke-width="0.3374" stroke-linecap="round" stroke-linejoin="round" stroke-miterlimit="10" d="
		M153.39,86.798c-1.04,0.002-1.839-0.171-2.396-0.522c-0.559-0.352-0.84-0.863-0.842-1.534c-0.001-0.671,0.28-1.2,0.848-1.589
		c0.565-0.389,1.368-0.585,2.411-0.587c1.043-0.003,1.843,0.185,2.402,0.562c0.558,0.376,0.838,0.915,0.84,1.612
		C156.658,86.106,155.569,86.792,153.39,86.798z M153.545,86.448c0.871-0.003,1.547-0.15,2.025-0.443
		c0.477-0.295,0.717-0.722,0.716-1.283c-0.002-0.561-0.244-1.003-0.723-1.326c-0.479-0.324-1.198-0.483-2.156-0.48
		c-1.121,0.003-1.941,0.261-2.464,0.772c-0.289,0.284-0.433,0.608-0.432,0.974c0.001,0.366,0.083,0.665,0.248,0.898
		c0.163,0.232,0.388,0.41,0.672,0.536C151.967,86.333,152.673,86.45,153.545,86.448z"/>
	
		<path fill="#CA9E67" stroke="#CA9E67" stroke-width="0.8796" stroke-linecap="round" stroke-linejoin="round" stroke-miterlimit="10" d="
		M190.056,108.63l26.14-36.436l-11.797-7.066l-11.911,7.168l0.001,0h-0.002l0.001,0l-11.798-7.065L168.78,72.4l0,0l0,0l0,0
		l-11.798-7.066l-11.913,7.169l0,0l-11.797-7.066l-11.91,7.168l23.502,36.754c-52.923,16.767-92.691,84.058-92.691,131.253
		c0,54.051,52.159,86.088,116.5,86.088s116.5-32.037,116.5-86.088C285.172,192.699,244.184,124.019,190.056,108.63z"/>
	
		<path fill="#C0925E" stroke="#C0925E" stroke-width="1.2855" stroke-linecap="round" stroke-linejoin="round" stroke-miterlimit="10" d="
		M168.672,326.701c-64.341,0-116.5-32.037-116.5-86.088c0-47.195,39.768-114.487,92.691-131.253l-23.502-36.754l11.91-7.168
		l11.797,7.066l0,0l11.913-7.169L168.78,72.4l0,0l0,0l0,0L168.672,326.701z"/>
	<polygon fill="#FFFFFF" points="198.923,111.106 138.089,111.106 143.755,108.992 141.089,104.918 193.657,104.918 
		190.815,108.348 	"/>
	<path fill="none" stroke="#FFFFFF" stroke-width="7.6155" stroke-linecap="round" stroke-miterlimit="10" d="M175.489,111.106
		c0,0-2,35.266,17,44.781"/>
	<path fill="none" stroke="#FFFFFF" stroke-width="7.6155" stroke-linecap="round" stroke-miterlimit="10" d="M165.022,109.65
		c0,0-6.082,10.073-1.018,22.956c5.065,12.883-7.083,19.115-15.383,21.195"/>
	<g>
		
			<rect x="47.418" y="279.478" transform="matrix(0.9668 -0.2556 0.2556 0.9668 -73.8471 32.0358)" fill="#FFFFFF" stroke="#FFFFFF" stroke-width="0.1704" stroke-miterlimit="10" width="77.817" height="41.302"/>
		<g>
			<defs>
				<polygon id="SVGID_7_" points="124.93,306.953 77.142,319.59 68.868,285.656 116.658,273.02 				"/>
			</defs>
			<clipPath id="SVGID_8_">
				<use xlink:href="#SVGID_7_"  overflow="visible"/>
			</clipPath>
			<g clip-path="url(#SVGID_8_)">
				<path fill="#139383" d="M-3.079,334.857l-2.644,0.699c-1.101,2.678-3.626,4.465-6.19,5.145
					c-2.566,0.678-5.645,0.371-7.924-1.414l-2.643,0.699c-3.602,0.953-5.749,4.643-4.797,8.244l1.154,7.01l33.095-8.748
					l-1.808-6.838C4.213,336.053,0.521,333.904-3.079,334.857z"/>
				<path fill="#139383" d="M-26.44,355.326l-1.154-7.012c-0.997-3.77,1.259-7.648,5.031-8.646l2.642-0.699
					c0.1-0.025,0.207-0.004,0.287,0.061c2.019,1.578,4.874,2.084,7.638,1.354c2.763-0.732,4.995-2.582,5.97-4.951
					c0.039-0.096,0.121-0.168,0.22-0.193l2.645-0.699c3.77-0.998,7.648,1.26,8.646,5.029l1.808,6.84 M-25.887,354.84l32.459-8.582
					l-1.724-6.52c-0.904-3.422-4.423-5.469-7.843-4.564l-2.488,0.658c-1.081,2.486-3.441,4.42-6.347,5.188
					c-2.9,0.768-5.908,0.254-8.079-1.373l-2.486,0.658c-3.422,0.904-5.468,4.422-4.562,7.842L-25.887,354.84z"/>
			</g>
			<g clip-path="url(#SVGID_8_)">
				<g>
					<path fill="#139383" d="M-25.305,328.887c-1.552-5.873,1.522-11.777,6.867-13.191c5.344-1.412,10.934,2.201,12.486,8.072
						c1.553,5.873-1.087,13.42-6.431,14.832C-17.728,340.014-23.752,334.756-25.305,328.887z"/>
					<path fill="#139383" d="M-12.349,338.729c-5.521,1.459-11.567-4.074-13.083-9.809c-1.569-5.934,1.553-11.922,6.961-13.352
						c5.405-1.43,11.079,2.232,12.647,8.166C-4.307,329.469-6.827,337.268-12.349,338.729z M-18.404,315.824
						c-5.267,1.391-8.304,7.236-6.772,13.027c1.485,5.615,7.383,11.043,12.761,9.621c5.377-1.422,7.821-9.055,6.336-14.67
						C-7.611,318.01-13.139,314.432-18.404,315.824z"/>
				</g>
			</g>
		</g>
		<polygon fill="#F6F6F6" stroke="#F6F6F6" stroke-width="0.1704" stroke-linejoin="round" stroke-miterlimit="10" points="
			129.222,310.148 53.99,330.039 43.432,290.109 		"/>
		
			<rect x="70.172" y="279.19" transform="matrix(0.9668 -0.2556 0.2556 0.9668 -72.858 34.4576)" fill="#855156" stroke="#855156" stroke-width="0.1312" stroke-miterlimit="10" width="51.937" height="36.692"/>
		<polygon fill="#673B45" stroke="#673B45" stroke-width="0.1312" stroke-miterlimit="10" points="125.936,308.635 75.724,321.91 
			66.344,286.438 		"/>
		<g>
			
				<path fill="#673B45" stroke="#673B45" stroke-width="0.3374" stroke-linecap="round" stroke-linejoin="round" stroke-miterlimit="10" d="
				M55.738,292.605c0.267,1.004,0.3,1.82,0.102,2.449c-0.198,0.631-0.623,1.029-1.271,1.201s-1.23,0.033-1.75-0.416
				c-0.521-0.449-0.913-1.178-1.18-2.186c-0.266-1.008-0.289-1.83-0.065-2.465c0.223-0.637,0.673-1.043,1.349-1.221
				C54.242,289.619,55.181,290.498,55.738,292.605z M55.362,292.543c-0.224-0.844-0.538-1.457-0.944-1.846
				c-0.404-0.389-0.879-0.512-1.421-0.367c-0.542,0.143-0.909,0.486-1.099,1.033c-0.191,0.545-0.165,1.281,0.079,2.207
				c0.286,1.084,0.743,1.812,1.37,2.188c0.349,0.209,0.698,0.266,1.053,0.174c0.352-0.096,0.621-0.252,0.805-0.469
				c0.184-0.219,0.299-0.48,0.349-0.787C55.648,294.098,55.584,293.387,55.362,292.543z"/>
			
				<path fill="#673B45" stroke="#673B45" stroke-width="0.3374" stroke-linecap="round" stroke-linejoin="round" stroke-miterlimit="10" d="
				M61.025,291.207c0.265,1.004,0.299,1.822,0.1,2.451c-0.198,0.629-0.622,1.029-1.27,1.201c-0.648,0.17-1.233,0.031-1.753-0.418
				c-0.519-0.447-0.912-1.176-1.179-2.186c-0.266-1.006-0.288-1.83-0.065-2.463c0.224-0.637,0.672-1.043,1.349-1.223
				C59.527,288.223,60.467,289.1,61.025,291.207z M60.646,291.146c-0.223-0.844-0.536-1.461-0.942-1.848
				c-0.405-0.389-0.879-0.51-1.421-0.367s-0.908,0.488-1.1,1.033c-0.191,0.547-0.164,1.281,0.081,2.207
				c0.286,1.084,0.741,1.812,1.368,2.188c0.35,0.209,0.7,0.266,1.053,0.172c0.354-0.094,0.621-0.25,0.805-0.467
				c0.184-0.219,0.3-0.48,0.351-0.785C60.934,292.701,60.869,291.99,60.646,291.146z"/>
			
				<path fill="#673B45" stroke="#673B45" stroke-width="0.3374" stroke-linecap="round" stroke-linejoin="round" stroke-miterlimit="10" d="
				M47.467,294.875l-0.873-3.305l2.725-0.721l0.09,0.34l-2.442,0.646l0.583,2.203c0.22-0.291,0.498-0.482,0.834-0.572
				c0.605-0.158,1.113-0.092,1.525,0.203c0.413,0.297,0.693,0.727,0.842,1.287s0.118,1.113-0.091,1.654
				c-0.21,0.541-0.574,0.883-1.096,1.02c-0.37,0.1-0.731,0.068-1.085-0.09c-0.354-0.16-0.584-0.412-0.693-0.762l0.308-0.08
				c0.082,0.225,0.257,0.396,0.521,0.512c0.264,0.115,0.562,0.131,0.896,0.043c0.422-0.111,0.712-0.385,0.872-0.818
				c0.159-0.436,0.179-0.887,0.055-1.355c-0.124-0.471-0.359-0.832-0.705-1.088c-0.347-0.256-0.769-0.316-1.267-0.184
				c-0.249,0.066-0.463,0.197-0.642,0.395S47.528,294.625,47.467,294.875z"/>
		</g>
		<g>
			
				<path fill="#B28086" stroke="#B28086" stroke-width="0.3374" stroke-linecap="round" stroke-linejoin="round" stroke-miterlimit="10" d="
				M118.278,305.844c0.266,1.006,0.3,1.822,0.102,2.451c-0.199,0.629-0.622,1.029-1.271,1.201c-0.648,0.172-1.232,0.033-1.752-0.416
				c-0.521-0.451-0.913-1.178-1.179-2.186c-0.267-1.006-0.288-1.83-0.064-2.465c0.223-0.637,0.672-1.043,1.347-1.221
				C116.782,302.859,117.721,303.738,118.278,305.844z M117.9,305.783c-0.223-0.844-0.537-1.459-0.942-1.846
				c-0.406-0.389-0.879-0.512-1.421-0.367c-0.543,0.143-0.909,0.486-1.101,1.033c-0.192,0.545-0.165,1.279,0.08,2.207
				c0.286,1.082,0.744,1.812,1.371,2.188c0.347,0.207,0.698,0.264,1.052,0.17c0.353-0.092,0.62-0.248,0.805-0.465
				c0.184-0.219,0.3-0.48,0.349-0.787C118.187,307.338,118.124,306.627,117.9,305.783z"/>
			
				<path fill="#B28086" stroke="#B28086" stroke-width="0.3374" stroke-linecap="round" stroke-linejoin="round" stroke-miterlimit="10" d="
				M123.562,304.447c0.267,1.004,0.301,1.82,0.103,2.451c-0.199,0.627-0.621,1.029-1.271,1.199
				c-0.649,0.172-1.232,0.033-1.753-0.416c-0.518-0.449-0.911-1.178-1.177-2.186c-0.267-1.006-0.29-1.828-0.066-2.463
				c0.223-0.637,0.672-1.043,1.35-1.223C122.067,301.461,123.005,302.34,123.562,304.447z M123.186,304.387
				c-0.223-0.844-0.537-1.461-0.943-1.848c-0.405-0.389-0.879-0.51-1.421-0.367c-0.542,0.145-0.908,0.486-1.1,1.033
				c-0.191,0.545-0.165,1.281,0.08,2.207c0.286,1.084,0.743,1.812,1.37,2.188c0.349,0.209,0.7,0.266,1.052,0.17
				c0.353-0.092,0.621-0.246,0.806-0.463c0.183-0.221,0.3-0.482,0.348-0.787C123.474,305.939,123.409,305.229,123.186,304.387z"/>
			
				<path fill="#B28086" stroke="#B28086" stroke-width="0.3374" stroke-linecap="round" stroke-linejoin="round" stroke-miterlimit="10" d="
				M110.007,308.115l-0.873-3.305l2.725-0.721l0.089,0.338l-2.442,0.646l0.585,2.207c0.216-0.295,0.495-0.484,0.833-0.572
				c0.604-0.16,1.111-0.094,1.525,0.201c0.412,0.297,0.693,0.725,0.842,1.287c0.148,0.561,0.117,1.113-0.092,1.654
				s-0.574,0.881-1.095,1.02c-0.371,0.098-0.732,0.066-1.085-0.09c-0.354-0.16-0.585-0.414-0.695-0.762l0.309-0.082
				c0.083,0.227,0.258,0.398,0.521,0.514c0.265,0.117,0.562,0.131,0.896,0.043c0.421-0.111,0.711-0.385,0.872-0.818
				c0.16-0.436,0.18-0.887,0.055-1.357c-0.123-0.469-0.359-0.83-0.705-1.086s-0.768-0.316-1.266-0.184
				c-0.249,0.066-0.463,0.195-0.643,0.395C110.185,307.641,110.065,307.865,110.007,308.115z"/>
		</g>
	</g>
	<g>
		
			<rect x="2.599" y="289.851" transform="matrix(0.9889 0.1484 -0.1484 0.9889 46.3737 -2.4541)" fill="#FFFFFF" stroke="#FFFFFF" stroke-width="0.1622" stroke-miterlimit="10" width="74.064" height="39.308"/>
		<g>
			<defs>
				<polygon id="SVGID_9_" points="70.367,331.771 21.483,324.438 27.333,290.002 76.218,297.338 				"/>
			</defs>
			<clipPath id="SVGID_10_">
				<use xlink:href="#SVGID_9_"  overflow="visible"/>
			</clipPath>
			<g clip-path="url(#SVGID_10_)">
				<path fill="#139383" d="M-58.22,306.668l-2.705-0.406c-2.071,2.021-5.099,2.666-7.722,2.271
					c-2.625-0.393-5.329-1.896-6.716-4.438l-2.704-0.406c-3.684-0.553-7.117,1.986-7.67,5.67l-1.718,6.895l33.854,5.08l1.049-6.996
					C-51.999,310.654-54.537,307.221-58.22,306.668z"/>
				<path fill="#139383" d="M-87.779,316.205l1.716-6.895c0.579-3.857,4.188-6.525,8.045-5.947l2.705,0.406
					c0.101,0.016,0.189,0.078,0.239,0.168c1.228,2.25,3.648,3.846,6.476,4.27c2.827,0.426,5.609-0.391,7.443-2.18
					c0.074-0.074,0.176-0.105,0.278-0.09l2.705,0.404c3.856,0.58,6.523,4.188,5.945,8.045l-1.05,6.994 M-87.08,315.977l33.202,4.982
					l1.001-6.67c0.525-3.498-1.894-6.771-5.392-7.297l-2.545-0.381c-1.979,1.854-4.911,2.693-7.881,2.248
					c-2.971-0.445-5.526-2.109-6.876-4.463l-2.545-0.381c-3.498-0.525-6.77,1.893-7.294,5.393L-87.08,315.977z"/>
			</g>
			<g clip-path="url(#SVGID_10_)">
				<g>
					<path fill="#139383" d="M-76.262,292.379c0.902-6.008,6.064-10.211,11.531-9.391c5.467,0.822,9.168,6.355,8.268,12.361
						c-0.902,6.006-6.316,11.889-11.784,11.068C-73.713,305.598-77.163,298.383-76.262,292.379z"/>
					<path fill="#139383" d="M-68.266,306.549c-5.65-0.848-9.007-8.326-8.127-14.189c0.912-6.07,6.151-10.332,11.682-9.502
						c5.53,0.83,9.289,6.441,8.377,12.512C-57.214,301.234-62.617,307.396-68.266,306.549z M-64.75,283.119
						c-5.386-0.809-10.492,3.354-11.38,9.279c-0.863,5.744,2.403,13.062,7.904,13.889s10.77-5.213,11.631-10.959
						C-55.706,289.404-59.364,283.928-64.75,283.119z"/>
				</g>
			</g>
		</g>
		
			<polygon fill="#F6F6F6" stroke="#F6F6F6" stroke-width="0.1622" stroke-linecap="round" stroke-linejoin="round" stroke-miterlimit="10" points="
			73.336,334.438 0.092,323.445 5.925,284.572 		"/>
		
			<rect x="24.468" y="293.477" transform="matrix(0.9889 0.1484 -0.1484 0.9889 46.6891 -3.856)" fill="#1CB1A3" stroke="#1CB1A3" stroke-width="0.1249" stroke-miterlimit="10" width="49.432" height="34.922"/>
		<polygon fill="#15A594" stroke="#15A594" stroke-width="0.1249" stroke-miterlimit="10" points="71.035,331.873 22.15,324.537 
			27.333,290.002 		"/>
		<g>
			
				<path fill="#139383" stroke="#139383" stroke-width="0.3374" stroke-linecap="round" stroke-linejoin="round" stroke-miterlimit="10" d="
				M8.469,293.859l-0.353-0.053l0.903-6.018l-1.499,0.424l0.052-0.344l1.879-0.551L8.469,293.859z"/>
			
				<path fill="#139383" stroke="#139383" stroke-width="0.3374" stroke-linecap="round" stroke-linejoin="round" stroke-miterlimit="10" d="
				M14.36,291.455c-0.154,1.027-0.448,1.793-0.88,2.291c-0.431,0.498-0.979,0.697-1.642,0.598c-0.664-0.098-1.145-0.457-1.445-1.076
				c-0.298-0.617-0.37-1.441-0.216-2.473c0.155-1.031,0.46-1.793,0.917-2.289c0.457-0.496,1.03-0.691,1.723-0.588
				C14.168,288.121,14.684,289.301,14.36,291.455z M14.037,291.25c0.129-0.863,0.085-1.553-0.134-2.07
				c-0.218-0.516-0.605-0.816-1.16-0.9c-0.555-0.082-1.027,0.09-1.418,0.514c-0.392,0.426-0.659,1.113-0.801,2.059
				c-0.166,1.109-0.036,1.961,0.39,2.551c0.238,0.33,0.538,0.521,0.9,0.576c0.361,0.053,0.667,0.02,0.923-0.111
				c0.254-0.127,0.466-0.32,0.633-0.58C13.684,292.793,13.908,292.113,14.037,291.25z"/>
			
				<path fill="#139383" stroke="#139383" stroke-width="0.3374" stroke-linecap="round" stroke-linejoin="round" stroke-miterlimit="10" d="
				M19.767,292.266c-0.155,1.029-0.446,1.793-0.879,2.293c-0.432,0.498-0.978,0.697-1.643,0.598c-0.662-0.1-1.144-0.459-1.442-1.076
				c-0.3-0.617-0.372-1.443-0.218-2.475c0.155-1.029,0.462-1.793,0.918-2.287c0.457-0.496,1.03-0.691,1.721-0.588
				C19.576,288.934,20.089,290.111,19.767,292.266z M19.442,292.061c0.13-0.861,0.086-1.551-0.131-2.068
				c-0.22-0.516-0.605-0.816-1.16-0.9c-0.555-0.082-1.029,0.088-1.42,0.512c-0.394,0.428-0.659,1.113-0.801,2.061
				c-0.166,1.109-0.036,1.959,0.392,2.551c0.236,0.328,0.535,0.521,0.896,0.574c0.361,0.055,0.669,0.02,0.925-0.109
				c0.253-0.129,0.465-0.322,0.631-0.582C19.091,293.602,19.313,292.924,19.442,292.061z"/>
		</g>
		<g>
			
				<path fill="#98D2D1" stroke="#98D2D1" stroke-width="0.3374" stroke-linecap="round" stroke-linejoin="round" stroke-miterlimit="10" d="
				M59.085,328.715l-0.354-0.053l0.902-6.016l-1.496,0.424l0.052-0.346l1.876-0.549L59.085,328.715z"/>
			
				<path fill="#98D2D1" stroke="#98D2D1" stroke-width="0.3374" stroke-linecap="round" stroke-linejoin="round" stroke-miterlimit="10" d="
				M64.976,326.312c-0.154,1.027-0.447,1.791-0.879,2.289c-0.432,0.498-0.979,0.701-1.642,0.6c-0.664-0.098-1.144-0.457-1.444-1.076
				c-0.299-0.617-0.37-1.443-0.216-2.473c0.155-1.031,0.459-1.795,0.916-2.289c0.457-0.496,1.03-0.691,1.722-0.588
				C64.785,322.979,65.299,324.158,64.976,326.312z M64.653,326.107c0.129-0.863,0.086-1.555-0.133-2.07
				c-0.22-0.516-0.606-0.816-1.159-0.9c-0.556-0.084-1.028,0.09-1.419,0.514c-0.393,0.426-0.659,1.111-0.801,2.059
				c-0.167,1.109-0.038,1.957,0.39,2.551c0.238,0.33,0.537,0.521,0.898,0.576c0.361,0.053,0.669,0.018,0.923-0.111
				c0.255-0.125,0.467-0.32,0.634-0.582C64.3,327.648,64.524,326.969,64.653,326.107z"/>
			
				<path fill="#98D2D1" stroke="#98D2D1" stroke-width="0.3374" stroke-linecap="round" stroke-linejoin="round" stroke-miterlimit="10" d="
				M70.382,327.123c-0.155,1.029-0.447,1.793-0.878,2.289c-0.432,0.5-0.979,0.701-1.643,0.602c-0.664-0.1-1.144-0.459-1.443-1.078
				c-0.299-0.617-0.372-1.439-0.217-2.473c0.155-1.031,0.461-1.793,0.918-2.289c0.455-0.494,1.031-0.691,1.72-0.588
				C70.192,323.789,70.706,324.969,70.382,327.123z M70.06,326.918c0.128-0.861,0.085-1.553-0.132-2.07
				c-0.22-0.516-0.605-0.816-1.16-0.9c-0.554-0.084-1.028,0.09-1.42,0.514c-0.393,0.426-0.658,1.111-0.801,2.059
				c-0.166,1.109-0.035,1.959,0.392,2.553c0.236,0.328,0.536,0.52,0.897,0.574c0.361,0.053,0.67,0.018,0.925-0.109
				c0.254-0.127,0.464-0.322,0.631-0.584C69.708,328.461,69.93,327.779,70.06,326.918z"/>
		</g>
	</g>
	<g>
		<path fill="#FFFFFF" stroke="#FFFFFF" stroke-miterlimit="10" d="M114.47,231.879l0.064-6.148v-6.365
			c0-2.047,0.301-3.883,0.907-5.511c0.604-1.628,1.339-2.926,2.206-3.896c0.867-0.969,1.867-1.784,3-2.443
			c1.898-1.096,3.711-1.646,5.451-1.646c3.996,0,7.543,1.025,10.652,3.073l-0.117,2.029c-1.336-0.84-3.002-1.562-4.996-2.167
			c-2.002-0.604-3.727-0.906-5.18-0.906c-2.582,0-4.844,1.063-6.779,3.185c-1.938,2.121-2.908,4.9-2.908,8.339v7.077
			c1.01-1.428,2.369-2.55,4.09-3.373c1.717-0.824,3.602-1.234,5.662-1.234c3.428,0,6.299,1.077,8.594,3.236
			c2.299,2.16,3.453,4.848,3.453,8.066c0,1.719-0.336,3.256-1,4.607c-0.664,1.354-1.473,2.426-2.42,3.211
			c-0.949,0.785-2.029,1.435-3.242,1.946c-2.059,0.841-3.932,1.261-5.633,1.261c-3.305,0-6.104-0.979-8.381-2.933
			c-2.281-1.96-3.424-4.657-3.424-8.093V231.879z M116.711,233.305c0,2.412,0.956,4.473,2.88,6.172
			c1.916,1.7,4.217,2.551,6.898,2.551c2.684,0,4.994-0.857,6.932-2.579c1.941-1.72,2.906-3.767,2.906-6.144
			s-0.955-4.537-2.871-6.476c-1.922-1.937-4.264-2.907-7.027-2.907s-5.076,0.959-6.934,2.881
			C117.638,228.723,116.711,230.889,116.711,233.305z"/>
		<path fill="#FFFFFF" stroke="#FFFFFF" stroke-miterlimit="10" d="M144.927,225.679V205.87h19.863v2.029h-17.805v13.224
			c2.021-1.316,4.258-1.975,6.721-1.975c4.402,0,7.74,1.133,10.023,3.402c2.275,2.268,3.42,5.082,3.42,8.449
			c0,3.364-1.203,6.411-3.604,9.135c-2.404,2.725-5.498,4.086-9.293,4.086c-2.703,0-5.119-0.703-7.238-2.11
			c-2.117-1.408-3.236-3.175-3.359-5.294h2.242c0.162,1.391,1.039,2.606,2.631,3.648c1.596,1.041,3.607,1.562,6.027,1.562
			c3.068,0,5.537-1.097,7.414-3.291c1.877-2.195,2.82-4.7,2.82-7.518c0-2.816-0.953-5.192-2.85-7.133
			c-1.896-1.938-4.66-2.906-8.293-2.906c-1.818,0-3.514,0.42-5.084,1.262C146.986,223.281,145.775,224.361,144.927,225.679z"/>
		<path fill="#FFFFFF" stroke="#FFFFFF" stroke-miterlimit="10" d="M199.541,225.404c0,6.033-1.133,10.67-3.389,13.908
			c-2.262,3.236-5.543,4.855-9.84,4.855c-4.301,0-7.691-1.646-10.176-4.939c-2.479-3.291-3.721-7.963-3.721-14.018
			c0-6.053,1.209-10.697,3.631-13.936c2.42-3.237,5.875-4.855,10.355-4.855C195.16,206.42,199.541,212.746,199.541,225.404z
			 M197.3,224.496c0-5.063-0.938-8.986-2.814-11.768c-1.877-2.778-4.611-4.171-8.205-4.171c-3.596,0-6.428,1.393-8.508,4.171
			c-2.08,2.781-3.119,6.951-3.119,12.51c0,6.512,1.637,11.285,4.908,14.32c1.812,1.682,3.891,2.524,6.232,2.524
			c2.34,0,4.262-0.476,5.756-1.427c1.492-0.95,2.641-2.252,3.449-3.896C196.533,233.65,197.3,229.565,197.3,224.496z"/>
		<path fill="#FFFFFF" stroke="#FFFFFF" stroke-miterlimit="10" d="M232.904,225.404c0,6.033-1.133,10.67-3.391,13.908
			c-2.26,3.236-5.541,4.855-9.838,4.855c-4.301,0-7.691-1.646-10.176-4.939c-2.479-3.291-3.721-7.963-3.721-14.018
			c0-6.053,1.207-10.697,3.633-13.936c2.42-3.237,5.873-4.855,10.352-4.855C228.525,206.42,232.904,212.746,232.904,225.404z
			 M230.664,224.496c0-5.063-0.936-8.986-2.814-11.768c-1.877-2.778-4.611-4.171-8.203-4.171c-3.598,0-6.432,1.393-8.512,4.171
			c-2.078,2.781-3.119,6.951-3.119,12.51c0,6.512,1.637,11.285,4.91,14.32c1.812,1.682,3.893,2.524,6.232,2.524
			s4.262-0.476,5.756-1.427c1.492-0.95,2.641-2.252,3.449-3.896C229.894,233.65,230.664,229.565,230.664,224.496z"/>
	</g>
</g>
</svg>
