<?xml version="1.0" encoding="utf-8"?>
<!-- Generator: Adobe Illustrator 15.0.2, SVG Export Plug-In . SVG Version: 6.00 Build 0)  -->
<!DOCTYPE svg PUBLIC "-//W3C//DTD SVG 1.1//EN" "http://www.w3.org/Graphics/SVG/1.1/DTD/svg11.dtd">
<svg version="1.1" id="Lager_1" xmlns="http://www.w3.org/2000/svg" xmlns:xlink="http://www.w3.org/1999/xlink" x="0px" y="0px" viewBox="0 0 462.257 245.817" enable-background="new 0 0 462.257 245.817"
	 xml:space="preserve">
<rect x="0.505" y="0.505" fill="#FFFFFF" stroke="#FFFFFF" stroke-width="1.0101" stroke-miterlimit="10" width="461.247" height="244.808"/>
<g>
	<defs>
		<polygon id="SVGID_1_" points="442.004,220.505 149.004,220.505 153.005,13.505 446.005,13.505 		"/>
	</defs>
	<clipPath id="SVGID_2_">
		<use xlink:href="#SVGID_1_"  overflow="visible"/>
	</clipPath>
	<g clip-path="url(#SVGID_2_)">
		<path fill="#139383" d="M-333.825,186.45h-16.206c-10.366,13.675-27.539,20.104-43.268,20.104
			c-15.729,0-32.902-6.429-43.267-20.104h-16.208c-22.076,0-39.975,17.897-39.975,39.975l-4.001,41.925h202.899v-41.925
			C-293.85,204.348-311.745,186.45-333.825,186.45z"/>
		<path fill="#139383" d="M-498.698,268.35l4-41.925c0-23.117,18.808-41.925,41.925-41.925h16.208c0.609,0,1.186,0.286,1.554,0.772
			c9.173,12.104,24.768,19.332,41.713,19.332c16.944,0,32.539-7.228,41.713-19.332c0.369-0.486,0.944-0.772,1.555-0.772h16.206
			c23.118,0,41.926,18.808,41.926,41.925v41.925 M-494.799,266.399H-295.8v-39.975c0-20.967-17.058-38.024-38.025-38.024h-15.25
			c-9.976,12.606-26.426,20.104-44.224,20.104s-34.249-7.497-44.223-20.104h-15.252c-20.967,0-38.024,17.058-38.024,38.024
			L-494.799,266.399z"/>
	</g>
	<g clip-path="url(#SVGID_2_)">
		<g>
			<path fill="#139383" d="M-452.142,118.555c0-35.999,26.562-65.178,59.331-65.178c32.766,0,59.33,29.179,59.33,65.178
				s-26.564,75.246-59.33,75.246C-425.579,193.801-452.142,154.554-452.142,118.555z"/>
			<path fill="#139383" d="M-392.811,194.586c-33.855,0-60.115-40.871-60.115-76.031c0-36.371,26.967-65.962,60.115-65.962
				c33.146,0,60.114,29.591,60.114,65.962C-332.696,153.715-358.957,194.586-392.811,194.586z M-392.811,54.162
				c-32.284,0-58.547,28.887-58.547,64.394c0,34.434,25.574,74.462,58.547,74.462c32.971,0,58.545-40.028,58.545-74.462
				C-334.266,83.049-360.528,54.162-392.811,54.162z"/>
		</g>
	</g>
</g>
<polygon fill="#F6F6F6" stroke="#F6F6F6" stroke-width="1.0101" stroke-linejoin="round" stroke-miterlimit="10" points="
	461.752,245.312 0.505,245.312 0.505,0.505 "/>
<rect x="137.359" y="14.164" fill="#855156" stroke="#855156" stroke-width="0.7778" stroke-miterlimit="10" width="307.848" height="217.49"/>
<polygon fill="#673B45" stroke="#673B45" stroke-width="0.7778" stroke-miterlimit="10" points="445.207,231.653 137.359,231.653 
	137.359,14.164 "/>
<g>
	
		<path fill="#673B45" stroke="#673B45" stroke-width="2" stroke-linecap="round" stroke-linejoin="round" stroke-miterlimit="10" d="
		M67.24,33.441c0,6.16-1.045,10.892-3.136,14.196c-2.091,3.304-5.124,4.956-9.1,4.956c-3.977,0-7.112-1.68-9.408-5.04
		c-2.296-3.36-3.444-8.129-3.444-14.308c0-6.178,1.12-10.92,3.36-14.224c2.24-3.304,5.432-4.956,9.576-4.956
		C63.189,14.065,67.24,20.524,67.24,33.441z M65.168,32.517c0-5.17-0.868-9.174-2.604-12.012c-1.735-2.836-4.266-4.256-7.588-4.256
		c-3.323,0-5.945,1.419-7.868,4.256c-1.923,2.838-2.884,7.094-2.884,12.768c0,6.646,1.512,11.518,4.536,14.616
		c1.68,1.718,3.603,2.576,5.768,2.576s3.938-0.484,5.32-1.456c1.381-0.971,2.444-2.296,3.192-3.976
		C64.458,41.86,65.168,37.688,65.168,32.517z"/>
	
		<path fill="#673B45" stroke="#673B45" stroke-width="2" stroke-linecap="round" stroke-linejoin="round" stroke-miterlimit="10" d="
		M99.647,33.441c0,6.16-1.045,10.892-3.136,14.196c-2.091,3.304-5.124,4.956-9.1,4.956s-7.112-1.68-9.408-5.04
		c-2.296-3.36-3.444-8.129-3.444-14.308c0-6.178,1.12-10.92,3.36-14.224c2.24-3.304,5.432-4.956,9.576-4.956
		C95.596,14.065,99.647,20.524,99.647,33.441z M97.576,32.517c0-5.17-0.868-9.174-2.604-12.012
		c-1.736-2.836-4.266-4.256-7.588-4.256c-3.323,0-5.946,1.419-7.868,4.256c-1.923,2.838-2.884,7.094-2.884,12.768
		c0,6.646,1.512,11.518,4.536,14.616c1.68,1.718,3.603,2.576,5.768,2.576c2.165,0,3.938-0.484,5.32-1.456
		c1.381-0.971,2.445-2.296,3.192-3.976C96.866,41.86,97.576,37.688,97.576,32.517z"/>
	
		<path fill="#673B45" stroke="#673B45" stroke-width="2" stroke-linecap="round" stroke-linejoin="round" stroke-miterlimit="10" d="
		M16.408,33.921v-20.26h16.701v2.076H18.139v13.525c1.697-1.347,3.581-2.02,5.652-2.02c3.699,0,6.509,1.16,8.427,3.479
		c1.917,2.321,2.876,5.201,2.876,8.644c0,3.442-1.01,6.557-3.03,9.344c-2.02,2.788-4.626,4.181-7.816,4.181
		c-2.274,0-4.303-0.719-6.084-2.16c-1.782-1.44-2.724-3.246-2.826-5.416h1.884c0.135,1.422,0.874,2.666,2.215,3.732
		c1.34,1.066,3.029,1.599,5.066,1.599c2.579,0,4.659-1.122,6.238-3.367c1.578-2.244,2.367-4.807,2.367-7.689
		c0-2.88-0.798-5.312-2.392-7.295c-1.596-1.983-3.921-2.975-6.976-2.975c-1.528,0-2.953,0.431-4.277,1.291
		C18.139,31.471,17.121,32.574,16.408,33.921z"/>
</g>
<g>
	
		<path fill="#B28086" stroke="#B28086" stroke-width="2" stroke-linecap="round" stroke-linejoin="round" stroke-miterlimit="10" d="
		M405.557,204.064c0,6.16-1.045,10.893-3.136,14.197c-2.091,3.303-5.124,4.955-9.1,4.955c-3.977,0-7.112-1.68-9.408-5.039
		c-2.296-3.361-3.444-8.129-3.444-14.309c0-6.178,1.12-10.92,3.36-14.224c2.24-3.305,5.432-4.957,9.576-4.957
		C401.506,184.688,405.557,191.148,405.557,204.064z M403.485,203.141c0-5.17-0.868-9.174-2.604-12.012
		c-1.735-2.837-4.266-4.256-7.588-4.256c-3.323,0-5.945,1.419-7.868,4.256c-1.923,2.838-2.884,7.094-2.884,12.768
		c0,6.646,1.512,11.518,4.536,14.617c1.68,1.717,3.603,2.575,5.768,2.575s3.938-0.484,5.32-1.456
		c1.381-0.971,2.444-2.296,3.192-3.976C402.775,212.484,403.485,208.312,403.485,203.141z"/>
	
		<path fill="#B28086" stroke="#B28086" stroke-width="2" stroke-linecap="round" stroke-linejoin="round" stroke-miterlimit="10" d="
		M437.964,204.064c0,6.16-1.045,10.893-3.135,14.197c-2.092,3.303-5.125,4.955-9.101,4.955s-7.112-1.68-9.408-5.039
		c-2.296-3.361-3.444-8.129-3.444-14.309c0-6.178,1.121-10.92,3.36-14.224c2.24-3.305,5.433-4.957,9.576-4.957
		C433.913,184.688,437.964,191.148,437.964,204.064z M435.893,203.141c0-5.17-0.868-9.174-2.604-12.012
		c-1.735-2.837-4.266-4.256-7.588-4.256s-5.945,1.419-7.867,4.256c-1.924,2.838-2.885,7.094-2.885,12.768
		c0,6.646,1.512,11.518,4.536,14.617c1.681,1.717,3.603,2.575,5.769,2.575c2.164,0,3.938-0.484,5.319-1.456
		c1.381-0.971,2.444-2.296,3.192-3.976C435.183,212.484,435.893,208.312,435.893,203.141z"/>
	
		<path fill="#B28086" stroke="#B28086" stroke-width="2" stroke-linecap="round" stroke-linejoin="round" stroke-miterlimit="10" d="
		M354.725,204.545v-20.26h16.7v2.076h-14.969v13.525c1.697-1.347,3.58-2.02,5.652-2.02c3.699,0,6.508,1.159,8.427,3.479
		c1.917,2.32,2.876,5.201,2.876,8.643c0,3.442-1.01,6.558-3.029,9.344c-2.02,2.789-4.626,4.182-7.816,4.182
		c-2.273,0-4.303-0.719-6.084-2.16c-1.782-1.44-2.725-3.246-2.826-5.416h1.885c0.135,1.422,0.873,2.666,2.215,3.732
		c1.34,1.066,3.028,1.599,5.066,1.599c2.578,0,4.658-1.122,6.237-3.367c1.578-2.244,2.366-4.808,2.366-7.688
		s-0.797-5.312-2.392-7.295c-1.597-1.984-3.921-2.975-6.976-2.975c-1.528,0-2.953,0.43-4.277,1.29
		C356.456,202.095,355.438,203.197,354.725,204.545z"/>
</g>
<rect x="-987.994" y="-113.995" fill="#139383" stroke="#2FAC66" stroke-width="0.9614" stroke-miterlimit="10" width="737" height="422"/>
<rect x="-831.953" y="0.505" fill="#FFFFFF" stroke="#FFFFFF" stroke-width="1.0101" stroke-miterlimit="10" width="461.247" height="244.808"/>
<g>
	<defs>
		<polygon id="SVGID_3_" points="-390.454,220.505 -683.454,220.505 -679.453,13.505 -386.453,13.505 		"/>
	</defs>
	<clipPath id="SVGID_4_">
		<use xlink:href="#SVGID_3_"  overflow="visible"/>
	</clipPath>
	<g clip-path="url(#SVGID_4_)">
		<path fill="#139383" d="M-1166.283,186.45h-16.206c-10.366,13.675-27.539,20.104-43.268,20.104
			c-15.729,0-32.902-6.429-43.267-20.104h-16.208c-22.076,0-39.975,17.897-39.975,39.975l-4.001,41.925h202.899v-41.925
			C-1126.308,204.348-1144.203,186.45-1166.283,186.45z"/>
		<path fill="#139383" d="M-1331.156,268.35l4-41.925c0-23.117,18.808-41.925,41.925-41.925h16.208c0.609,0,1.186,0.286,1.554,0.772
			c9.173,12.104,24.768,19.332,41.713,19.332c16.944,0,32.539-7.228,41.713-19.332c0.369-0.486,0.944-0.772,1.555-0.772h16.206
			c23.118,0,41.926,18.808,41.926,41.925v41.925 M-1327.257,266.399h198.999v-39.975c0-20.967-17.058-38.024-38.025-38.024h-15.25
			c-9.976,12.606-26.426,20.104-44.224,20.104s-34.249-7.497-44.223-20.104h-15.252c-20.967,0-38.024,17.058-38.024,38.024
			L-1327.257,266.399z"/>
	</g>
	<g clip-path="url(#SVGID_4_)">
		<g>
			<path fill="#139383" d="M-1284.6,118.555c0-35.999,26.562-65.178,59.331-65.178c32.766,0,59.33,29.179,59.33,65.178
				s-26.564,75.246-59.33,75.246C-1258.037,193.801-1284.6,154.554-1284.6,118.555z"/>
			<path fill="#139383" d="M-1225.269,194.586c-33.855,0-60.115-40.871-60.115-76.031c0-36.371,26.967-65.962,60.115-65.962
				c33.146,0,60.114,29.591,60.114,65.962C-1165.154,153.715-1191.415,194.586-1225.269,194.586z M-1225.269,54.162
				c-32.284,0-58.547,28.887-58.547,64.394c0,34.434,25.574,74.462,58.547,74.462c32.971,0,58.545-40.028,58.545-74.462
				C-1166.724,83.049-1192.986,54.162-1225.269,54.162z"/>
		</g>
	</g>
</g>
<polygon fill="#F6F6F6" stroke="#F6F6F6" stroke-width="1.0101" stroke-linejoin="round" stroke-miterlimit="10" points="
	-370.706,245.312 -831.953,245.312 -831.953,0.505 "/>
<rect x="-695.099" y="14.164" fill="#855156" stroke="#855156" stroke-width="0.7778" stroke-miterlimit="10" width="307.848" height="217.49"/>
<polygon fill="#673B45" stroke="#673B45" stroke-width="0.7778" stroke-miterlimit="10" points="-387.251,231.653 -695.099,231.653 
	-695.099,14.164 "/>
<g>
	
		<path fill="#673B45" stroke="#673B45" stroke-width="2" stroke-linecap="round" stroke-linejoin="round" stroke-miterlimit="10" d="
		M-765.218,33.441c0,6.16-1.045,10.892-3.136,14.196c-2.091,3.304-5.124,4.956-9.1,4.956c-3.977,0-7.112-1.68-9.408-5.04
		c-2.296-3.36-3.444-8.129-3.444-14.308c0-6.178,1.12-10.92,3.36-14.224c2.24-3.304,5.432-4.956,9.576-4.956
		C-769.269,14.065-765.218,20.524-765.218,33.441z M-767.29,32.517c0-5.17-0.868-9.174-2.604-12.012
		c-1.735-2.836-4.266-4.256-7.588-4.256c-3.323,0-5.945,1.419-7.868,4.256c-1.923,2.838-2.884,7.094-2.884,12.768
		c0,6.646,1.512,11.518,4.536,14.616c1.68,1.718,3.603,2.576,5.768,2.576s3.938-0.484,5.32-1.456
		c1.381-0.971,2.444-2.296,3.192-3.976C-768,41.86-767.29,37.688-767.29,32.517z"/>
	
		<path fill="#673B45" stroke="#673B45" stroke-width="2" stroke-linecap="round" stroke-linejoin="round" stroke-miterlimit="10" d="
		M-732.811,33.441c0,6.16-1.045,10.892-3.136,14.196c-2.091,3.304-5.124,4.956-9.1,4.956s-7.112-1.68-9.408-5.04
		c-2.296-3.36-3.444-8.129-3.444-14.308c0-6.178,1.12-10.92,3.36-14.224c2.24-3.304,5.432-4.956,9.576-4.956
		C-736.862,14.065-732.811,20.524-732.811,33.441z M-734.882,32.517c0-5.17-0.868-9.174-2.604-12.012
		c-1.736-2.836-4.266-4.256-7.588-4.256c-3.323,0-5.946,1.419-7.868,4.256c-1.923,2.838-2.884,7.094-2.884,12.768
		c0,6.646,1.512,11.518,4.536,14.616c1.68,1.718,3.603,2.576,5.768,2.576c2.165,0,3.938-0.484,5.32-1.456
		c1.381-0.971,2.445-2.296,3.192-3.976C-735.592,41.86-734.882,37.688-734.882,32.517z"/>
	
		<path fill="#673B45" stroke="#673B45" stroke-width="2" stroke-linecap="round" stroke-linejoin="round" stroke-miterlimit="10" d="
		M-816.05,33.921v-20.26h16.701v2.076h-14.969v13.525c1.697-1.347,3.581-2.02,5.652-2.02c3.699,0,6.509,1.16,8.427,3.479
		c1.917,2.321,2.876,5.201,2.876,8.644c0,3.442-1.01,6.557-3.03,9.344c-2.02,2.788-4.626,4.181-7.816,4.181
		c-2.274,0-4.303-0.719-6.084-2.16c-1.782-1.44-2.724-3.246-2.826-5.416h1.884c0.135,1.422,0.874,2.666,2.215,3.732
		c1.34,1.066,3.029,1.599,5.066,1.599c2.579,0,4.659-1.122,6.238-3.367c1.578-2.244,2.367-4.807,2.367-7.689
		c0-2.88-0.798-5.312-2.392-7.295c-1.596-1.983-3.921-2.975-6.976-2.975c-1.528,0-2.953,0.431-4.277,1.291
		C-814.319,31.471-815.337,32.574-816.05,33.921z"/>
</g>
<g>
	
		<path fill="#B28086" stroke="#B28086" stroke-width="2" stroke-linecap="round" stroke-linejoin="round" stroke-miterlimit="10" d="
		M-426.901,204.064c0,6.16-1.045,10.893-3.136,14.197c-2.091,3.303-5.124,4.955-9.1,4.955c-3.977,0-7.112-1.68-9.408-5.039
		c-2.296-3.361-3.444-8.129-3.444-14.309c0-6.178,1.12-10.92,3.36-14.224c2.24-3.305,5.432-4.957,9.576-4.957
		C-430.952,184.688-426.901,191.148-426.901,204.064z M-428.973,203.141c0-5.17-0.868-9.174-2.604-12.012
		c-1.735-2.837-4.266-4.256-7.588-4.256c-3.323,0-5.945,1.419-7.868,4.256c-1.923,2.838-2.884,7.094-2.884,12.768
		c0,6.646,1.512,11.518,4.536,14.617c1.68,1.717,3.603,2.575,5.768,2.575s3.938-0.484,5.32-1.456
		c1.381-0.971,2.444-2.296,3.192-3.976C-429.683,212.484-428.973,208.312-428.973,203.141z"/>
	
		<path fill="#B28086" stroke="#B28086" stroke-width="2" stroke-linecap="round" stroke-linejoin="round" stroke-miterlimit="10" d="
		M-394.494,204.064c0,6.16-1.045,10.893-3.135,14.197c-2.092,3.303-5.125,4.955-9.101,4.955s-7.112-1.68-9.408-5.039
		c-2.296-3.361-3.444-8.129-3.444-14.309c0-6.178,1.121-10.92,3.36-14.224c2.24-3.305,5.433-4.957,9.576-4.957
		C-398.545,184.688-394.494,191.148-394.494,204.064z M-396.565,203.141c0-5.17-0.868-9.174-2.604-12.012
		c-1.735-2.837-4.266-4.256-7.588-4.256s-5.945,1.419-7.867,4.256c-1.924,2.838-2.885,7.094-2.885,12.768
		c0,6.646,1.512,11.518,4.536,14.617c1.681,1.717,3.603,2.575,5.769,2.575c2.164,0,3.938-0.484,5.319-1.456
		c1.381-0.971,2.444-2.296,3.192-3.976C-397.275,212.484-396.565,208.312-396.565,203.141z"/>
	
		<path fill="#B28086" stroke="#B28086" stroke-width="2" stroke-linecap="round" stroke-linejoin="round" stroke-miterlimit="10" d="
		M-477.733,204.545v-20.26h16.7v2.076h-14.969v13.525c1.697-1.347,3.58-2.02,5.652-2.02c3.699,0,6.508,1.159,8.427,3.479
		c1.917,2.32,2.876,5.201,2.876,8.643c0,3.442-1.01,6.558-3.029,9.344c-2.02,2.789-4.626,4.182-7.816,4.182
		c-2.273,0-4.303-0.719-6.084-2.16c-1.782-1.44-2.725-3.246-2.826-5.416h1.885c0.135,1.422,0.873,2.666,2.215,3.732
		c1.34,1.066,3.028,1.599,5.066,1.599c2.578,0,4.658-1.122,6.237-3.367c1.578-2.244,2.366-4.808,2.366-7.688
		s-0.797-5.312-2.392-7.295c-1.597-1.984-3.921-2.975-6.976-2.975c-1.528,0-2.953,0.43-4.277,1.29
		C-476.002,202.095-477.021,203.197-477.733,204.545z"/>
</g>
</svg>
