<?xml version="1.0" encoding="utf-8"?>
<!-- Generator: Adobe Illustrator 15.0.2, SVG Export Plug-In . SVG Version: 6.00 Build 0)  -->
<!DOCTYPE svg PUBLIC "-//W3C//DTD SVG 1.1//EN" "http://www.w3.org/Graphics/SVG/1.1/DTD/svg11.dtd">
<svg version="1.1" id="Lager_1" xmlns="http://www.w3.org/2000/svg" xmlns:xlink="http://www.w3.org/1999/xlink" x="0px" y="0px"
	 width="439.961px" height="233.961px" viewBox="0 0 439.961 233.961" enable-background="new 0 0 439.961 233.961"
	 xml:space="preserve">
<g>
	<rect x="0.48" y="0.48" fill="#FFFFFF" stroke="#FFFFFF" stroke-width="0.9614" stroke-miterlimit="10" width="439" height="233"/>
	<g>
		<defs>
			<polygon id="SVGID_1_" points="419.733,220.48 126.733,220.48 130.734,13.48 423.734,13.48 			"/>
		</defs>
		<clipPath id="SVGID_2_">
			<use xlink:href="#SVGID_1_"  overflow="visible"/>
		</clipPath>
		<g clip-path="url(#SVGID_2_)">
			<path fill="#139383" d="M-356.096,186.426h-16.206c-10.366,13.675-27.539,20.104-43.268,20.104
				c-15.729,0-32.902-6.429-43.267-20.104h-16.208c-22.076,0-39.975,17.897-39.975,39.975l-4.001,41.925h202.899V226.4
				C-316.121,204.323-334.016,186.426-356.096,186.426z"/>
			<path fill="#139383" d="M-520.969,268.325l4-41.925c0-23.117,18.808-41.925,41.925-41.925h16.208
				c0.609,0,1.186,0.286,1.554,0.772c9.173,12.104,24.768,19.332,41.713,19.332c16.944,0,32.539-7.228,41.713-19.332
				c0.369-0.486,0.944-0.772,1.555-0.772h16.206c23.118,0,41.926,18.808,41.926,41.925v41.925 M-517.07,266.375h198.999V226.4
				c0-20.967-17.058-38.024-38.025-38.024h-15.25c-9.976,12.606-26.426,20.104-44.224,20.104s-34.249-7.497-44.223-20.104h-15.252
				c-20.967,0-38.024,17.058-38.024,38.024L-517.07,266.375z"/>
		</g>
		<g clip-path="url(#SVGID_2_)">
			<g>
				<path fill="#139383" d="M-474.413,118.531c0-35.999,26.562-65.178,59.331-65.178c32.766,0,59.33,29.179,59.33,65.178
					s-26.564,75.246-59.33,75.246C-447.85,193.776-474.413,154.529-474.413,118.531z"/>
				<path fill="#139383" d="M-415.082,194.562c-33.855,0-60.115-40.871-60.115-76.031c0-36.371,26.967-65.962,60.115-65.962
					c33.146,0,60.114,29.591,60.114,65.962C-354.967,153.69-381.228,194.562-415.082,194.562z M-415.082,54.137
					c-32.284,0-58.547,28.887-58.547,64.394c0,34.434,25.574,74.462,58.547,74.462c32.971,0,58.545-40.028,58.545-74.462
					C-356.537,83.024-382.799,54.137-415.082,54.137z"/>
			</g>
		</g>
	</g>
	
		<polygon fill="#F6F6F6" stroke="#F6F6F6" stroke-width="0.9614" stroke-linecap="round" stroke-linejoin="round" stroke-miterlimit="10" points="
		439.481,233.48 0.48,233.48 0.48,0.48 	"/>
	
		<rect x="130.734" y="13.48" fill="#1CB1A3" stroke="#1CB1A3" stroke-width="0.7403" stroke-miterlimit="10" width="293" height="207"/>
	<polygon fill="#15A594" stroke="#15A594" stroke-width="0.7403" stroke-miterlimit="10" points="423.734,220.48 130.734,220.48 
		130.734,13.48 	"/>
	<g>
		
			<path fill="#139383" stroke="#139383" stroke-width="2" stroke-linecap="round" stroke-linejoin="round" stroke-miterlimit="10" d="
			M23.561,52.681h-2.128V16.617l-8.4,3.808v-2.072l10.528-4.872V52.681z"/>
		
			<path fill="#139383" stroke="#139383" stroke-width="2" stroke-linecap="round" stroke-linejoin="round" stroke-miterlimit="10" d="
			M55.968,33.417c0,6.16-1.045,10.892-3.136,14.196c-2.091,3.304-5.124,4.956-9.1,4.956c-3.977,0-7.112-1.68-9.408-5.04
			c-2.296-3.36-3.444-8.129-3.444-14.308c0-6.178,1.12-10.92,3.36-14.224c2.24-3.304,5.432-4.956,9.576-4.956
			C51.917,14.041,55.968,20.5,55.968,33.417z M53.897,32.493c0-5.17-0.868-9.174-2.604-12.012c-1.735-2.836-4.266-4.256-7.588-4.256
			c-3.323,0-5.945,1.419-7.868,4.256c-1.923,2.838-2.884,7.094-2.884,12.768c0,6.646,1.512,11.518,4.536,14.616
			c1.68,1.718,3.603,2.576,5.768,2.576s3.938-0.484,5.32-1.456c1.381-0.971,2.444-2.296,3.192-3.976
			C53.187,41.836,53.897,37.664,53.897,32.493z"/>
		
			<path fill="#139383" stroke="#139383" stroke-width="2" stroke-linecap="round" stroke-linejoin="round" stroke-miterlimit="10" d="
			M88.376,33.417c0,6.16-1.045,10.892-3.136,14.196c-2.091,3.304-5.124,4.956-9.1,4.956s-7.112-1.68-9.408-5.04
			c-2.296-3.36-3.444-8.129-3.444-14.308c0-6.178,1.12-10.92,3.36-14.224c2.24-3.304,5.432-4.956,9.576-4.956
			C84.325,14.041,88.376,20.5,88.376,33.417z M86.304,32.493c0-5.17-0.868-9.174-2.604-12.012c-1.736-2.836-4.266-4.256-7.588-4.256
			c-3.323,0-5.946,1.419-7.868,4.256c-1.923,2.838-2.884,7.094-2.884,12.768c0,6.646,1.512,11.518,4.536,14.616
			c1.68,1.718,3.603,2.576,5.768,2.576c2.165,0,3.938-0.484,5.32-1.456c1.381-0.971,2.445-2.296,3.192-3.976
			C85.595,41.836,86.304,37.664,86.304,32.493z"/>
	</g>
	<g>
		
			<path fill="#98D2D1" stroke="#98D2D1" stroke-width="2" stroke-linecap="round" stroke-linejoin="round" stroke-miterlimit="10" d="
			M350.917,212.479h-2.127v-36.064l-8.4,3.809v-2.072l10.527-4.872V212.479z"/>
		
			<path fill="#98D2D1" stroke="#98D2D1" stroke-width="2" stroke-linecap="round" stroke-linejoin="round" stroke-miterlimit="10" d="
			M383.326,193.216c0,6.16-1.045,10.892-3.137,14.195c-2.09,3.305-5.123,4.957-9.1,4.957s-7.111-1.681-9.408-5.041
			c-2.295-3.359-3.443-8.129-3.443-14.308s1.119-10.92,3.359-14.224c2.24-3.305,5.432-4.957,9.576-4.957
			C379.275,173.839,383.326,180.299,383.326,193.216z M381.253,192.292c0-5.171-0.867-9.175-2.604-12.013
			c-1.736-2.837-4.266-4.256-7.588-4.256c-3.324,0-5.945,1.419-7.869,4.256c-1.922,2.838-2.883,7.094-2.883,12.769
			c0,6.646,1.512,11.518,4.535,14.615c1.68,1.719,3.604,2.576,5.768,2.576c2.166,0,3.939-0.484,5.32-1.455s2.445-2.297,3.193-3.977
			C380.544,201.635,381.253,197.463,381.253,192.292z"/>
		
			<path fill="#98D2D1" stroke="#98D2D1" stroke-width="2" stroke-linecap="round" stroke-linejoin="round" stroke-miterlimit="10" d="
			M415.733,193.216c0,6.16-1.046,10.892-3.136,14.195c-2.092,3.305-5.124,4.957-9.1,4.957c-3.977,0-7.112-1.681-9.408-5.041
			c-2.297-3.359-3.444-8.129-3.444-14.308s1.12-10.92,3.36-14.224c2.24-3.305,5.432-4.957,9.576-4.957
			C411.681,173.839,415.733,180.299,415.733,193.216z M413.662,192.292c0-5.171-0.869-9.175-2.604-12.013
			c-1.735-2.837-4.266-4.256-7.588-4.256c-3.323,0-5.946,1.419-7.868,4.256c-1.924,2.838-2.884,7.094-2.884,12.769
			c0,6.646,1.512,11.518,4.536,14.615c1.68,1.719,3.602,2.576,5.768,2.576c2.165,0,3.938-0.484,5.32-1.455
			c1.381-0.971,2.444-2.297,3.191-3.977C412.952,201.635,413.662,197.463,413.662,192.292z"/>
	</g>
</g>
<rect x="-983.724" y="-114.02" fill="#139383" stroke="#2FAC66" stroke-width="0.9614" stroke-miterlimit="10" width="737" height="422"/>
<rect x="-846.977" y="0.48" fill="#FFFFFF" stroke="#FFFFFF" stroke-width="0.9614" stroke-miterlimit="10" width="439" height="233"/>
<g>
	<defs>
		<polygon id="SVGID_3_" points="-427.725,220.48 -720.724,220.48 -716.724,13.48 -423.724,13.48 		"/>
	</defs>
	<clipPath id="SVGID_4_">
		<use xlink:href="#SVGID_3_"  overflow="visible"/>
	</clipPath>
	<g clip-path="url(#SVGID_4_)">
		<path fill="#139383" d="M-1203.554,186.426h-16.206c-10.366,13.675-27.539,20.104-43.268,20.104
			c-15.729,0-32.902-6.429-43.267-20.104h-16.208c-22.076,0-39.975,17.897-39.975,39.975l-4.001,41.925h202.899V226.4
			C-1163.578,204.323-1181.474,186.426-1203.554,186.426z"/>
		<path fill="#139383" d="M-1368.427,268.325l4-41.925c0-23.117,18.808-41.925,41.925-41.925h16.208
			c0.609,0,1.186,0.286,1.554,0.772c9.173,12.104,24.768,19.332,41.713,19.332c16.944,0,32.539-7.228,41.713-19.332
			c0.369-0.486,0.944-0.772,1.555-0.772h16.206c23.118,0,41.926,18.808,41.926,41.925v41.925 M-1364.527,266.375h198.999V226.4
			c0-20.967-17.058-38.024-38.025-38.024h-15.25c-9.976,12.606-26.426,20.104-44.224,20.104s-34.249-7.497-44.223-20.104h-15.252
			c-20.967,0-38.024,17.058-38.024,38.024L-1364.527,266.375z"/>
	</g>
	<g clip-path="url(#SVGID_4_)">
		<g>
			<path fill="#139383" d="M-1321.87,118.531c0-35.999,26.562-65.178,59.331-65.178c32.766,0,59.33,29.179,59.33,65.178
				s-26.564,75.246-59.33,75.246C-1295.308,193.776-1321.87,154.529-1321.87,118.531z"/>
			<path fill="#139383" d="M-1262.539,194.562c-33.855,0-60.115-40.871-60.115-76.031c0-36.371,26.967-65.962,60.115-65.962
				c33.146,0,60.114,29.591,60.114,65.962C-1202.425,153.69-1228.686,194.562-1262.539,194.562z M-1262.539,54.137
				c-32.284,0-58.547,28.887-58.547,64.394c0,34.434,25.574,74.462,58.547,74.462c32.971,0,58.545-40.028,58.545-74.462
				C-1203.994,83.024-1230.257,54.137-1262.539,54.137z"/>
		</g>
	</g>
</g>
<polygon fill="#F6F6F6" stroke="#F6F6F6" stroke-width="0.9614" stroke-miterlimit="10" points="-407.977,233.48 -846.977,233.48 
	-846.977,0.48 "/>
<rect x="-716.724" y="13.48" fill="#1CB1A3" stroke="#1CB1A3" stroke-width="0.7403" stroke-miterlimit="10" width="293" height="207"/>
<polygon fill="#15A594" stroke="#15A594" stroke-width="0.7403" stroke-miterlimit="10" points="-423.724,220.48 -716.724,220.48 
	-716.724,13.48 "/>
<g>
	
		<path fill="#139383" stroke="#139383" stroke-width="2" stroke-linecap="round" stroke-linejoin="round" stroke-miterlimit="10" d="
		M-823.896,52.681h-2.128V16.617l-8.4,3.808v-2.072l10.528-4.872V52.681z"/>
	
		<path fill="#139383" stroke="#139383" stroke-width="2" stroke-linecap="round" stroke-linejoin="round" stroke-miterlimit="10" d="
		M-791.489,33.417c0,6.16-1.045,10.892-3.136,14.196c-2.091,3.304-5.124,4.956-9.1,4.956c-3.977,0-7.112-1.68-9.408-5.04
		c-2.296-3.36-3.444-8.129-3.444-14.308c0-6.178,1.12-10.92,3.36-14.224c2.24-3.304,5.432-4.956,9.576-4.956
		C-795.54,14.041-791.489,20.5-791.489,33.417z M-793.561,32.493c0-5.17-0.868-9.174-2.604-12.012
		c-1.735-2.836-4.266-4.256-7.588-4.256c-3.323,0-5.945,1.419-7.868,4.256c-1.923,2.838-2.884,7.094-2.884,12.768
		c0,6.646,1.512,11.518,4.536,14.616c1.68,1.718,3.603,2.576,5.768,2.576s3.938-0.484,5.32-1.456
		c1.381-0.971,2.444-2.296,3.192-3.976C-794.271,41.836-793.561,37.664-793.561,32.493z"/>
	
		<path fill="#139383" stroke="#139383" stroke-width="2" stroke-linecap="round" stroke-linejoin="round" stroke-miterlimit="10" d="
		M-759.082,33.417c0,6.16-1.045,10.892-3.136,14.196c-2.091,3.304-5.124,4.956-9.1,4.956s-7.112-1.68-9.408-5.04
		c-2.296-3.36-3.444-8.129-3.444-14.308c0-6.178,1.12-10.92,3.36-14.224c2.24-3.304,5.432-4.956,9.576-4.956
		C-763.133,14.041-759.082,20.5-759.082,33.417z M-761.153,32.493c0-5.17-0.868-9.174-2.604-12.012
		c-1.736-2.836-4.266-4.256-7.588-4.256c-3.323,0-5.946,1.419-7.868,4.256c-1.923,2.838-2.884,7.094-2.884,12.768
		c0,6.646,1.512,11.518,4.536,14.616c1.68,1.718,3.603,2.576,5.768,2.576c2.165,0,3.938-0.484,5.32-1.456
		c1.381-0.971,2.445-2.296,3.192-3.976C-761.863,41.836-761.153,37.664-761.153,32.493z"/>
</g>
<g>
	
		<path fill="#98D2D1" stroke="#98D2D1" stroke-width="2" stroke-linecap="round" stroke-linejoin="round" stroke-miterlimit="10" d="
		M-496.54,212.479h-2.127v-36.064l-8.4,3.809v-2.072l10.527-4.872V212.479z"/>
	
		<path fill="#98D2D1" stroke="#98D2D1" stroke-width="2" stroke-linecap="round" stroke-linejoin="round" stroke-miterlimit="10" d="
		M-464.132,193.216c0,6.16-1.045,10.892-3.137,14.195c-2.09,3.305-5.123,4.957-9.1,4.957s-7.111-1.681-9.408-5.041
		c-2.295-3.359-3.443-8.129-3.443-14.308s1.119-10.92,3.359-14.224c2.24-3.305,5.432-4.957,9.576-4.957
		C-468.183,173.839-464.132,180.299-464.132,193.216z M-466.204,192.292c0-5.171-0.867-9.175-2.604-12.013
		c-1.736-2.837-4.266-4.256-7.588-4.256c-3.324,0-5.945,1.419-7.869,4.256c-1.922,2.838-2.883,7.094-2.883,12.769
		c0,6.646,1.512,11.518,4.535,14.615c1.68,1.719,3.604,2.576,5.768,2.576c2.166,0,3.939-0.484,5.32-1.455s2.445-2.297,3.193-3.977
		C-466.913,201.635-466.204,197.463-466.204,192.292z"/>
	
		<path fill="#98D2D1" stroke="#98D2D1" stroke-width="2" stroke-linecap="round" stroke-linejoin="round" stroke-miterlimit="10" d="
		M-431.725,193.216c0,6.16-1.046,10.892-3.136,14.195c-2.092,3.305-5.124,4.957-9.1,4.957c-3.977,0-7.112-1.681-9.408-5.041
		c-2.297-3.359-3.444-8.129-3.444-14.308s1.12-10.92,3.36-14.224c2.24-3.305,5.432-4.957,9.576-4.957
		C-435.776,173.839-431.725,180.299-431.725,193.216z M-433.796,192.292c0-5.171-0.869-9.175-2.604-12.013
		c-1.735-2.837-4.266-4.256-7.588-4.256c-3.323,0-5.946,1.419-7.868,4.256c-1.924,2.838-2.884,7.094-2.884,12.769
		c0,6.646,1.512,11.518,4.536,14.615c1.68,1.719,3.602,2.576,5.768,2.576c2.165,0,3.938-0.484,5.32-1.455
		c1.381-0.971,2.444-2.297,3.191-3.977C-434.506,201.635-433.796,197.463-433.796,192.292z"/>
</g>
</svg>
