<?xml version="1.0" encoding="utf-8"?>
<!-- Generator: Adobe Illustrator 15.0.2, SVG Export Plug-In . SVG Version: 6.00 Build 0)  -->
<!DOCTYPE svg PUBLIC "-//W3C//DTD SVG 1.1//EN" "http://www.w3.org/Graphics/SVG/1.1/DTD/svg11.dtd">
<svg version="1.1" id="Lager_1" xmlns="http://www.w3.org/2000/svg" xmlns:xlink="http://www.w3.org/1999/xlink" x="0px" y="0px"
	 width="140.435px" height="507.212px" viewBox="0 0 140.435 507.212" enable-background="new 0 0 140.435 507.212"
	 xml:space="preserve">
<path fill="#269BD7" d="M139.318,273.658v-7.609V134.834c0,0-3.139-28.595-31.318-30.799h-6.333c0,0-0.01,0.01-0.013,0.013
	c-4.604,0.001-4.607,0.001-4.607,0.001c-0.01,0.014-0.021,0.027-0.031,0.042l-7.414,0.023V87.168
	c7.794-3.965,13.137-12.056,13.137-21.4V40.952c0.062-1.124,0.049-2.307-0.039-3.525c-0.066-1.215-0.224-2.407-0.464-3.568
	c-1.146-6.101-4.158-12.556-9.472-16.906c0.001-0.085,0.008-0.17,0.006-0.256C92.561,5.756,66.409,6.363,62.592,6.172
	C57.877,5.937,56.514,0,56.514,0c-4.271,6.425-2.307,11.779,0.419,15.404c-7.545-1.812-4.689-8.979-4.689-8.979
	c-4.228,2.64-6.838,6.268-6.838,10.272c0,4.297,3.008,8.161,7.794,10.835c-0.835,2.706-1.279,5.52-1.501,8.24
	c-0.126,0.996-0.198,2.009-0.198,3.039v27.003c0,9.348,5.347,17.441,13.146,21.405v16.894h-5.572
	c-0.019-0.027-0.04-0.052-0.059-0.079c0,0-3.484,0-5.789,0c0.001,0.012,0.006,0.039,0.015,0.073h-5.34
	C20,104.38,14,135.561,14,135.561l-14,55.25l7.431,46.065l3.439,28.921c-0.044,0.354-0.072,0.699-0.072,1.028v6.188v3.927v6.131
	c0,1.534,1.241,2.775,2.775,2.775c1.249,0,2.307-0.82,2.656-1.956l0.192-0.625c0,1.538,1.245,2.581,2.777,2.581
	c1.246,0,2.303-0.82,2.654-1.956c0,0,0.037-0.068,0.078-0.173c0.293,1.222,1.386,2.129,2.695,2.129c1.246,0,2.303-0.82,2.655-1.956
	c0,0,0.072-0.139,0.13-0.334c0.23,1.302,1.36,2.29,2.728,2.29c1.25,0,2.304-0.82,2.657-1.956c0,0,0.154-0.273,0.192-0.625
	l0.052-2.259v-3.711v-1.361c0,0.732,0.226,1.401,0.628,1.945v26.619h0.103l3.897,170.346h2h3.242
	c-0.79,1.159-1.241,2.725-1.442,4.763l-2.145,14.464c0,0-0.146,2.788-0.505,3.475c-1.137,1.244-1.593,2.12-1.771,2.678
	c-0.391,0.14-0.609,0.229-0.626,0.235v1.155c0.015-0.006,0.203-0.072,0.534-0.178l-0.009,3.251c0,0-0.004,2.593,3.037,2.524H53.33
	h0.001h13.345c3.041,0.068,3.037-2.524,3.037-2.524l-0.009-3.245c0.194,0.059,0.387,0.111,0.582,0.172v-1.119
	c-0.219-0.068-0.433-0.127-0.649-0.191c-0.159-0.553-0.603-1.453-1.795-2.758c-0.359-0.687-0.505-3.475-0.505-3.475l-2.146-14.464
	c-0.2-2.038-0.652-3.604-1.442-4.763h3.253h2l3.801-166.518v-3.002c0-2.688,2.178-4.867,4.865-4.867s4.867,2.18,4.867,4.867v3.021
	l3.801,166.498h2h0.041h2.974c-0.79,1.159-1.241,2.725-1.442,4.763l-2.145,14.464c0,0-0.146,2.788-0.505,3.475
	c-1.137,1.244-1.593,2.12-1.771,2.678c-0.391,0.14-0.609,0.229-0.626,0.235v1.155c0.015-0.006,0.203-0.072,0.534-0.178l-0.009,3.251
	c0,0-0.004,2.593,3.037,2.524h13.345h0.001h13.345c3.041,0.068,3.037-2.524,3.037-2.524l-0.009-3.245
	c0.194,0.059,0.387,0.111,0.582,0.172v-1.119c-0.219-0.068-0.433-0.127-0.649-0.191c-0.159-0.553-0.603-1.453-1.795-2.758
	c-0.359-0.687-0.505-3.475-0.505-3.475l-2.146-14.464c-0.2-2.038-0.652-3.604-1.442-4.763h3.479h0.042h1.958l3.898-170.346h0.102
	v-7.325c1.099-0.233,1.955-1.111,2.152-2.225c0.058,0.195,0.13,0.334,0.13,0.334c0.353,1.136,1.409,1.956,2.655,1.956
	c1.31,0,2.402-0.907,2.695-2.129c0.041,0.104,0.078,0.173,0.078,0.173c0.352,1.136,1.408,1.956,2.654,1.956
	c1.532,0,2.777-1.043,2.777-2.581l0.192,0.625c0.35,1.136,1.407,1.956,2.656,1.956c1.534,0,2.775-1.241,2.775-2.775v-6.131v-3.927
	v-6.188C140.435,276.812,140.018,275.135,139.318,273.658z M33.669,235.582H29.94l-6.274-40.771l10.003-36.75V235.582z"/>
</svg>
