<?xml version="1.0" encoding="utf-8"?>
<!-- Generator: Adobe Illustrator 15.0.2, SVG Export Plug-In . SVG Version: 6.00 Build 0)  -->
<!DOCTYPE svg PUBLIC "-//W3C//DTD SVG 1.1//EN" "http://www.w3.org/Graphics/SVG/1.1/DTD/svg11.dtd">
<svg version="1.1" id="Lager_1" xmlns="http://www.w3.org/2000/svg" xmlns:xlink="http://www.w3.org/1999/xlink" x="0px" y="0px"
	 width="79.959px" height="140.119px" viewBox="0 0 79.959 140.119" enable-background="new 0 0 79.959 140.119"
	 xml:space="preserve">
<g>
	<path fill="#FFFFFF" d="M37.759,0.077c-7.398-0.789-14.038,4.57-14.826,11.966c-0.327,3.062,0.441,5.958,1.927,8.395
		c-6.569,0.776-11.974,5.979-12.705,12.839c-0.556,5.174,1.718,9.971,5.541,12.95C8.605,47.665,1.223,55.005,0.178,64.598
		c-0.892,8.181,3.074,15.755,9.572,19.897c-4.701,2.498-8.124,7.207-8.732,12.904c-0.971,9.111,5.629,17.291,14.738,18.264
		c0.851,0.09,1.678,0.049,2.505,0.014c-0.329,1.109-0.582,2.258-0.707,3.453c-1.113,10.422,6.432,19.77,16.852,20.881
		c10.422,1.113,19.768-6.432,20.883-16.852c0.18-1.691,0.113-3.344-0.139-4.945c12.564-0.016,23.354-9.492,24.721-22.268
		c1.014-9.492-3.453-18.301-10.848-23.297c4.238-3.043,7.221-7.793,7.818-13.389C77.953,48.839,70.41,39.493,59.99,38.38
		c-0.027-0.002-0.051,0-0.078-0.004c0.633-1.257,1.086-2.632,1.246-4.117c0.707-6.61-4.082-12.538-10.691-13.244
		c-1.074-0.113-2.115-0.037-3.135,0.125c1.26-1.803,2.143-3.896,2.393-6.237C50.515,7.507,45.156,0.866,37.759,0.077z M38.52,26.711
		c0.171-0.034,0.343-0.065,0.515-0.103c-0.097,0.148-0.214,0.277-0.3,0.431C38.665,26.927,38.594,26.821,38.52,26.711z"/>
	<path fill="#F5F5F6" d="M37.759,0.077c-7.398-0.789-14.038,4.57-14.826,11.966c-0.327,3.062,0.441,5.958,1.927,8.395
		c-6.569,0.776-11.974,5.979-12.705,12.839c-0.556,5.174,1.718,9.971,5.541,12.95C8.605,47.665,1.223,55.005,0.178,64.598
		c-0.892,8.181,3.074,15.755,9.572,19.897c-4.701,2.498-8.124,7.207-8.732,12.904c-0.971,9.111,5.629,17.291,14.738,18.264
		c0.851,0.09,1.678,0.049,2.505,0.014c-0.329,1.109-0.582,2.258-0.707,3.453c-1.113,10.422,6.432,19.77,16.852,20.881L37.759,0.077z
		 M38.52,26.711c0.171-0.034,0.343-0.065,0.515-0.103c-0.097,0.148-0.214,0.277-0.3,0.431C38.665,26.927,38.594,26.821,38.52,26.711
		z"/>
</g>
</svg>
