<?xml version="1.0" encoding="utf-8"?>
<!-- Generator: Adobe Illustrator 15.0.2, SVG Export Plug-In . SVG Version: 6.00 Build 0)  -->
<!DOCTYPE svg PUBLIC "-//W3C//DTD SVG 1.1//EN" "http://www.w3.org/Graphics/SVG/1.1/DTD/svg11.dtd">
<svg version="1.1" id="Lager_1" xmlns="http://www.w3.org/2000/svg" xmlns:xlink="http://www.w3.org/1999/xlink" x="0px" y="0px"
	 width="79.959px" height="140.119px" viewBox="0 0 79.959 140.119" enable-background="new 0 0 79.959 140.119"
	 xml:space="preserve">
<g>
	<path fill="#FFFFFF" d="M49.67,125.217c-0.25-2.341-1.133-4.435-2.394-6.237c1.021,0.162,2.062,0.238,3.136,0.125
		c6.609-0.706,11.397-6.634,10.691-13.244c-0.161-1.485-0.613-2.86-1.246-4.117c0.026-0.004,0.051-0.002,0.077-0.004
		c10.421-1.113,17.964-10.459,16.853-20.881c-0.599-5.596-3.581-10.346-7.819-13.388c7.396-4.996,11.861-13.805,10.848-23.298
		C78.45,31.398,67.66,21.921,55.095,21.906c0.252-1.602,0.318-3.255,0.139-4.946C54.119,6.54,44.773-1.004,34.352,0.109
		C23.932,1.221,16.387,10.568,17.5,20.989c0.125,1.196,0.378,2.344,0.707,3.454c-0.827-0.036-1.654-0.076-2.505,0.015
		c-9.11,0.972-15.709,9.151-14.738,18.262c0.608,5.697,4.031,10.407,8.732,12.905C3.199,59.767-0.767,67.342,0.125,75.521
		c1.045,9.593,8.427,16.933,17.518,18.371c-3.823,2.979-6.097,7.776-5.541,12.95c0.731,6.859,6.136,12.062,12.705,12.839
		c-1.485,2.437-2.254,5.333-1.927,8.395c0.788,7.396,7.427,12.755,14.826,11.966C45.102,139.253,50.461,132.612,49.67,125.217z
		 M38.681,113.08c0.086,0.153,0.203,0.282,0.3,0.431c-0.172-0.037-0.344-0.068-0.515-0.103
		C38.541,113.298,38.611,113.192,38.681,113.08z"/>
	<path fill="#F5F5F6" d="M34.352,0.109C23.932,1.221,16.387,10.568,17.5,20.989c0.125,1.196,0.378,2.344,0.707,3.454
		c-0.827-0.036-1.654-0.076-2.505,0.015c-9.11,0.972-15.709,9.151-14.738,18.262c0.608,5.697,4.031,10.407,8.732,12.905
		C3.199,59.767-0.767,67.342,0.125,75.521c1.045,9.593,8.427,16.933,17.518,18.371c-3.823,2.979-6.097,7.776-5.541,12.95
		c0.731,6.859,6.136,12.062,12.705,12.839c-1.485,2.437-2.254,5.333-1.927,8.395c0.788,7.396,7.427,12.755,14.826,11.966
		L34.352,0.109z M38.681,113.08c0.086,0.153,0.203,0.282,0.3,0.431c-0.172-0.037-0.344-0.068-0.515-0.103
		C38.541,113.298,38.611,113.192,38.681,113.08z"/>
</g>
</svg>
