<?xml version="1.0" encoding="utf-8"?>
<!-- Generator: Adobe Illustrator 15.0.2, SVG Export Plug-In . SVG Version: 6.00 Build 0)  -->
<!DOCTYPE svg PUBLIC "-//W3C//DTD SVG 1.1//EN" "http://www.w3.org/Graphics/SVG/1.1/DTD/svg11.dtd">
<svg version="1.1" id="Lager_1" xmlns="http://www.w3.org/2000/svg" xmlns:xlink="http://www.w3.org/1999/xlink" x="0px" y="0px"
	 width="152.08px" height="187.417px" viewBox="0 0 152.08 187.417" enable-background="new 0 0 152.08 187.417"
	 xml:space="preserve">
<g>
	<g>
		<g>
			
				<rect x="72.157" y="64.217" fill="#906038" stroke="#906038" stroke-width="0.5826" stroke-linecap="round" stroke-linejoin="round" stroke-miterlimit="10" width="7.769" height="122.908"/>
			
				<rect x="72.157" y="64.673" fill="#7E4F27" stroke="#7E4F27" stroke-width="0.412" stroke-linecap="round" stroke-linejoin="round" stroke-miterlimit="10" width="3.882" height="122.452"/>
		</g>
		<g>
			
				<rect x="0.292" y="0.292" fill="#906038" stroke="#906038" stroke-width="0.5826" stroke-linecap="round" stroke-linejoin="round" stroke-miterlimit="10" width="151.497" height="63.927"/>
			
				<polygon fill="#7E4F27" stroke="#7E4F27" stroke-width="0.5826" stroke-linecap="round" stroke-linejoin="round" stroke-miterlimit="10" points="
				151.789,64.217 0.292,64.217 0.292,0.292 			"/>
		</g>
		<rect x="5.591" y="4.887" fill="#FFFFFF" width="140.896" height="54.733"/>
		<polygon fill="#F5F5F6" points="139.376,59.622 4.938,59.622 4.938,4.887 12.808,4.887 		"/>
	</g>
	<g>
		<path fill="#3F3E40" d="M41.202,40.06h-1V23.102l-3.95,1.79v-0.975l4.95-2.29V40.06z"/>
		<path fill="#3F3E40" d="M54.684,27.553l-0.025,2.924v3.08c0,0.985-0.134,1.865-0.396,2.648c-0.264,0.777-0.583,1.401-0.96,1.864
			c-0.377,0.469-0.812,0.852-1.304,1.148c-0.826,0.544-1.615,0.816-2.369,0.816c-1.738,0-3.284-0.493-4.637-1.478l0.053-0.975
			c0.58,0.4,1.305,0.75,2.174,1.039c0.867,0.29,1.617,0.436,2.251,0.436c1.122,0,2.104-0.509,2.948-1.527
			c0.844-1.018,1.265-2.351,1.265-4v-3.398c-0.438,0.687-1.03,1.227-1.774,1.62c-0.748,0.396-1.569,0.595-2.463,0.595
			c-1.493,0-2.739-0.521-3.739-1.555c-1.002-1.038-1.502-2.328-1.502-3.872c0-0.826,0.146-1.562,0.435-2.212
			c0.289-0.65,0.643-1.163,1.055-1.541c0.411-0.377,0.883-0.682,1.407-0.908c0.896-0.421,1.713-0.632,2.45-0.632
			c1.438,0,2.655,0.471,3.646,1.41c0.99,0.938,1.486,2.229,1.486,3.883L54.684,27.553L54.684,27.553z M53.71,26.873
			c0-1.162-0.416-2.149-1.25-2.969c-0.834-0.814-1.836-1.223-3.004-1.223c-1.166,0-2.172,0.41-3.015,1.236
			c-0.842,0.827-1.265,1.81-1.265,2.953c0,1.14,0.417,2.175,1.252,3.104c0.833,0.928,1.852,1.396,3.054,1.396
			s2.207-0.461,3.018-1.384C53.306,29.067,53.71,28.026,53.71,26.873z"/>
		<path fill="#3F3E40" d="M69.405,31.004c0,2.896-0.492,5.12-1.476,6.675c-0.982,1.553-2.409,2.329-4.279,2.329
			c-1.869,0-3.344-0.788-4.424-2.367c-1.08-1.583-1.619-3.823-1.619-6.729c0-2.906,0.525-5.138,1.58-6.688
			c1.054-1.554,2.555-2.332,4.502-2.332C67.5,21.89,69.405,24.929,69.405,31.004z M68.429,30.567c0-2.43-0.407-4.312-1.227-5.646
			c-0.813-1.334-2.005-2-3.565-2c-1.562,0-2.796,0.666-3.699,2c-0.904,1.335-1.356,3.336-1.356,6.003
			c0,3.125,0.711,5.416,2.135,6.873c0.79,0.808,1.693,1.211,2.713,1.211c1.018,0,1.852-0.229,2.501-0.684
			c0.647-0.459,1.147-1.08,1.501-1.868C68.096,34.962,68.429,33.001,68.429,30.567z"/>
		<path fill="#3F3E40" d="M83.915,31.004c0,2.896-0.491,5.12-1.476,6.675c-0.982,1.553-2.409,2.329-4.279,2.329
			c-1.869,0-3.344-0.788-4.423-2.367c-1.08-1.583-1.62-3.823-1.62-6.729c0-2.906,0.524-5.138,1.58-6.688
			c1.054-1.554,2.555-2.332,4.503-2.332C82.009,21.89,83.915,24.929,83.915,31.004z M82.94,30.567c0-2.43-0.408-4.312-1.226-5.646
			c-0.814-1.334-2.007-2-3.566-2c-1.564,0-2.797,0.666-3.701,2c-0.904,1.335-1.355,3.336-1.355,6.003
			c0,3.125,0.713,5.416,2.135,6.873c0.789,0.808,1.693,1.211,2.711,1.211c1.02,0,1.854-0.229,2.504-0.684
			c0.646-0.459,1.146-1.08,1.5-1.868C82.605,34.962,82.94,33.001,82.94,30.567z"/>
		<path fill="#3F3E40" d="M92.839,33.293h-6.318v-0.976h6.318V33.293z"/>
		<path fill="#3F3E40" d="M96.843,27.871h-3.028v-0.976h3.028v-4.348h0.974v4.348h3.055v0.976h-3.055V40.06h-0.974V27.871z"/>
		<path fill="#3F3E40" d="M110.089,26.895h0.974v13.191c-1.053,0-1.976-0.041-2.767-0.132c-0.787-0.087-1.607-0.275-2.461-0.564
			c-0.852-0.291-1.551-0.681-2.094-1.172c-0.544-0.491-0.99-1.172-1.344-2.04c-0.352-0.871-0.525-1.849-0.525-2.94
			c0-1.085,0.108-2.021,0.33-2.801c0.22-0.782,0.5-1.406,0.844-1.872c0.342-0.464,0.725-0.846,1.145-1.145
			c0.738-0.544,1.467-0.816,2.188-0.816c1.316,0,2.555,0.624,3.714,1.869v-1.578H110.089L110.089,26.895z M102.848,33.11
			c0,2.301,0.71,3.898,2.132,4.79c1.265,0.792,2.966,1.188,5.109,1.188v-9.293c-0.601-0.688-1.174-1.229-1.728-1.62
			c-0.553-0.396-1.164-0.595-1.83-0.595c-1.104,0-1.997,0.487-2.672,1.462C103.185,30.015,102.848,31.374,102.848,33.11z"/>
		<path fill="#3F3E40" d="M115.83,40.06h-0.975V20.336h0.975V40.06z"/>
	</g>
</g>
</svg>
