<?xml version="1.0" encoding="utf-8"?>
<!-- Generator: Adobe Illustrator 15.0.2, SVG Export Plug-In . SVG Version: 6.00 Build 0)  -->
<!DOCTYPE svg PUBLIC "-//W3C//DTD SVG 1.1//EN" "http://www.w3.org/Graphics/SVG/1.1/DTD/svg11.dtd">
<svg version="1.1" id="Lager_1" xmlns="http://www.w3.org/2000/svg" xmlns:xlink="http://www.w3.org/1999/xlink" x="0px" y="0px"
	 width="152.08px" height="187.417px" viewBox="0 0 152.08 187.417" enable-background="new 0 0 152.08 187.417"
	 xml:space="preserve">
<g>
	<g>
		<g>
			
				<rect x="72.157" y="64.217" fill="#906038" stroke="#906038" stroke-width="0.5826" stroke-linecap="round" stroke-linejoin="round" stroke-miterlimit="10" width="7.767" height="122.908"/>
			
				<rect x="72.157" y="64.673" fill="#7E4F27" stroke="#7E4F27" stroke-width="0.412" stroke-linecap="round" stroke-linejoin="round" stroke-miterlimit="10" width="3.882" height="122.452"/>
		</g>
		<g>
			
				<rect x="0.292" y="0.292" fill="#906038" stroke="#906038" stroke-width="0.5826" stroke-linecap="round" stroke-linejoin="round" stroke-miterlimit="10" width="151.498" height="63.927"/>
			
				<polygon fill="#7E4F27" stroke="#7E4F27" stroke-width="0.5826" stroke-linecap="round" stroke-linejoin="round" stroke-miterlimit="10" points="
				151.789,64.217 0.292,64.217 0.292,0.292 			"/>
		</g>
		<rect x="5.593" y="4.887" fill="#FFFFFF" width="140.894" height="54.733"/>
		<polygon fill="#F5F5F6" points="139.375,59.622 4.938,59.622 4.938,4.887 12.808,4.887 		"/>
	</g>
	<g>
		<path fill="#3F3E40" d="M41.346,40.052h-0.999V23.13l-3.941,1.787v-0.974l4.939-2.286L41.346,40.052L41.346,40.052z"/>
		<path fill="#3F3E40" d="M53.512,38.527c-0.999,1.033-2.244,1.553-3.731,1.553c-1.489,0-2.732-0.52-3.731-1.553
			c-0.998-1.033-1.497-2.318-1.497-3.861c0-1.067,0.257-2.035,0.774-2.903c0.517-0.867,1.222-1.511,2.116-1.931
			c-0.631-0.387-1.135-0.919-1.512-1.604c-0.375-0.683-0.565-1.427-0.565-2.23c0-1.265,0.438-2.318,1.315-3.167
			c0.875-0.852,1.939-1.274,3.192-1.274s2.308,0.425,3.165,1.274c0.86,0.849,1.288,1.902,1.288,3.167
			c0,1.717-0.717,3.004-2.155,3.86c0.894,0.438,1.59,1.076,2.09,1.918c0.498,0.841,0.748,1.806,0.748,2.891
			C55.008,36.208,54.509,37.494,53.512,38.527z M54.037,34.611c0-1.153-0.416-2.141-1.249-2.954s-1.83-1.223-2.994-1.223
			c-1.166,0-2.168,0.411-3.009,1.234c-0.84,0.824-1.261,1.806-1.261,2.94c0,1.142,0.416,2.175,1.249,3.103
			c0.831,0.929,1.847,1.394,3.048,1.394c1.199,0,2.202-0.461,3.008-1.379C53.633,36.806,54.037,35.767,54.037,34.611z
			 M53.353,25.941c0-0.909-0.351-1.708-1.051-2.391c-0.699-0.685-1.515-1.024-2.444-1.024c-0.929,0-1.748,0.348-2.457,1.038
			c-0.709,0.692-1.064,1.48-1.064,2.363c0,0.885,0.351,1.682,1.051,2.393c0.701,0.708,1.534,1.063,2.497,1.063
			c0.964,0,1.781-0.345,2.457-1.038C53.016,27.653,53.353,26.853,53.353,25.941z"/>
		<path fill="#3F3E40" d="M69.354,31.012c0,2.89-0.49,5.11-1.471,6.66c-0.981,1.551-2.404,2.326-4.27,2.326
			c-1.866,0-3.337-0.789-4.415-2.366c-1.077-1.575-1.615-3.812-1.615-6.712c0-2.9,0.525-5.122,1.576-6.674
			c1.05-1.552,2.549-2.324,4.493-2.324C67.453,21.923,69.354,24.954,69.354,31.012z M68.383,30.581c0-2.428-0.408-4.306-1.222-5.638
			c-0.815-1.331-2.002-1.995-3.561-1.995c-1.56,0-2.79,0.664-3.691,1.995c-0.902,1.332-1.353,3.329-1.353,5.99
			c0,3.118,0.709,5.404,2.128,6.857C61.472,38.596,62.374,39,63.39,39s1.85-0.229,2.497-0.686c0.647-0.455,1.147-1.078,1.497-1.862
			C68.047,34.963,68.383,33.006,68.383,30.581z"/>
		<path fill="#3F3E40" d="M83.83,31.012c0,2.89-0.49,5.11-1.471,6.66c-0.98,1.551-2.404,2.326-4.27,2.326
			c-1.866,0-3.337-0.789-4.413-2.366c-1.078-1.575-1.618-3.812-1.618-6.712c0-2.9,0.526-5.122,1.578-6.674
			c1.051-1.552,2.548-2.324,4.492-2.324C81.93,21.923,83.83,24.954,83.83,31.012z M82.859,30.581c0-2.428-0.408-4.306-1.223-5.638
			c-0.812-1.331-2.001-1.995-3.561-1.995c-1.559,0-2.79,0.664-3.69,1.995c-0.902,1.332-1.354,3.329-1.354,5.99
			c0,3.118,0.71,5.404,2.128,6.857C75.948,38.596,76.85,39,77.865,39s1.848-0.229,2.496-0.686c0.648-0.455,1.147-1.078,1.498-1.862
			C82.524,34.963,82.859,33.006,82.859,30.581z"/>
		<path fill="#3F3E40" d="M92.738,33.298h-6.306v-0.971h6.306V33.298z"/>
		<path fill="#3F3E40" d="M96.731,27.886h-3.021v-0.972h3.021V22.58h0.972v4.335h3.049v0.972h-3.049v12.166h-0.972V27.886z"/>
		<path fill="#3F3E40" d="M109.947,26.916h0.971V40.08c-1.051,0-1.969-0.045-2.756-0.135c-0.789-0.086-1.608-0.273-2.457-0.563
			c-0.851-0.288-1.547-0.677-2.09-1.168c-0.543-0.49-0.99-1.169-1.34-2.036c-0.351-0.867-0.525-1.844-0.525-2.93
			c0-1.089,0.108-2.02,0.326-2.801c0.221-0.776,0.5-1.397,0.842-1.863s0.723-0.847,1.145-1.145c0.735-0.543,1.461-0.812,2.18-0.812
			c1.314,0,2.547,0.621,3.705,1.864V26.916L109.947,26.916z M102.723,33.113c0,2.297,0.709,3.893,2.127,4.784
			c1.261,0.787,2.961,1.185,5.098,1.185v-9.276c-0.596-0.684-1.169-1.222-1.721-1.616c-0.552-0.394-1.162-0.59-1.827-0.59
			c-1.103,0-1.991,0.486-2.667,1.458C103.059,30.027,102.723,31.381,102.723,33.113z"/>
		<path fill="#3F3E40" d="M115.675,40.052h-0.972v-19.68h0.972V40.052z"/>
	</g>
</g>
</svg>
