<?xml version="1.0" encoding="utf-8"?>
<!-- Generator: Adobe Illustrator 15.0.2, SVG Export Plug-In . SVG Version: 6.00 Build 0)  -->
<!DOCTYPE svg PUBLIC "-//W3C//DTD SVG 1.1//EN" "http://www.w3.org/Graphics/SVG/1.1/DTD/svg11.dtd">
<svg version="1.1" id="Lager_1" xmlns="http://www.w3.org/2000/svg" xmlns:xlink="http://www.w3.org/1999/xlink" x="0px" y="0px"
	 width="152.081px" height="187.417px" viewBox="0 0 152.081 187.417" enable-background="new 0 0 152.081 187.417"
	 xml:space="preserve">
<g>
	<g>
		<g>
			
				<rect x="72.159" y="64.217" fill="#906038" stroke="#906038" stroke-width="0.5826" stroke-linecap="round" stroke-linejoin="round" stroke-miterlimit="10" width="7.768" height="122.908"/>
			
				<rect x="72.159" y="64.673" fill="#7E4F27" stroke="#7E4F27" stroke-width="0.412" stroke-linecap="round" stroke-linejoin="round" stroke-miterlimit="10" width="3.881" height="122.452"/>
		</g>
		<g>
			
				<rect x="0.292" y="0.292" fill="#906038" stroke="#906038" stroke-width="0.5826" stroke-linecap="round" stroke-linejoin="round" stroke-miterlimit="10" width="151.498" height="63.927"/>
			
				<polygon fill="#7E4F27" stroke="#7E4F27" stroke-width="0.5826" stroke-linecap="round" stroke-linejoin="round" stroke-miterlimit="10" points="
				151.79,64.217 0.292,64.217 0.292,0.292 			"/>
		</g>
		<rect x="5.593" y="4.887" fill="#FFFFFF" width="140.896" height="54.733"/>
		<polygon fill="#F5F5F6" points="139.375,59.622 4.939,59.622 4.939,4.887 12.809,4.887 		"/>
	</g>
	<g>
		<path fill="#3F3E40" d="M31.27,40.06l7.031-9.746c0.386-0.541,0.679-0.963,0.881-1.262c0.201-0.299,0.408-0.703,0.619-1.213
			c0.211-0.508,0.315-0.982,0.315-1.42c0-1.211-0.388-2.152-1.159-2.818c-0.771-0.668-1.668-1-2.688-1
			c-1.019,0-2.388,0.551-4.106,1.658V23.31c1.544-1.121,2.976-1.686,4.293-1.686c1.313,0,2.413,0.443,3.292,1.33
			c0.876,0.887,1.314,2.008,1.314,3.357c0,1.353-0.475,2.688-1.422,4l-6.32,8.771h7.954v0.975L31.27,40.06L31.27,40.06z"/>
		<path fill="#3F3E40" d="M55.47,31.001c0,2.896-0.492,5.123-1.476,6.676c-0.983,1.555-2.41,2.33-4.279,2.33
			c-1.87,0-3.343-0.789-4.423-2.367c-1.08-1.582-1.62-3.824-1.62-6.729s0.525-5.135,1.58-6.688c1.053-1.553,2.557-2.332,4.503-2.332
			C53.564,21.888,55.47,24.928,55.47,31.001z M54.497,30.566c0-2.432-0.41-4.312-1.226-5.646s-2.007-2-3.567-2
			c-1.563,0-2.795,0.666-3.701,2c-0.902,1.334-1.354,3.336-1.354,6.004c0,3.125,0.712,5.414,2.133,6.873
			c0.79,0.809,1.692,1.211,2.711,1.211s1.853-0.229,2.502-0.685c0.647-0.456,1.149-1.079,1.502-1.868
			C54.161,34.96,54.497,33,54.497,30.566z"/>
		<path fill="#3F3E40" d="M69.978,31.001c0,2.896-0.491,5.123-1.474,6.676c-0.983,1.555-2.41,2.33-4.279,2.33
			s-3.344-0.789-4.424-2.367c-1.08-1.582-1.62-3.824-1.62-6.729s0.526-5.135,1.581-6.688c1.053-1.553,2.555-2.332,4.503-2.332
			C68.073,21.888,69.978,24.928,69.978,31.001z M69.004,30.566c0-2.432-0.408-4.312-1.226-5.646s-2.006-2-3.567-2
			c-1.562,0-2.795,0.666-3.699,2s-1.355,3.336-1.355,6.004c0,3.125,0.71,5.414,2.132,6.873c0.791,0.809,1.694,1.211,2.713,1.211
			s1.853-0.229,2.501-0.685s1.15-1.079,1.5-1.868C68.67,34.96,69.004,33,69.004,30.566z"/>
		<path fill="#3F3E40" d="M84.489,31.001c0,2.896-0.492,5.123-1.476,6.676c-0.981,1.555-2.409,2.33-4.278,2.33
			c-1.871,0-3.346-0.789-4.424-2.367c-1.08-1.582-1.621-3.824-1.621-6.729s0.527-5.135,1.58-6.688
			c1.055-1.553,2.556-2.332,4.504-2.332C82.583,21.888,84.489,24.928,84.489,31.001z M83.514,30.566
			c0-2.432-0.408-4.312-1.223-5.646c-0.817-1.334-2.006-2-3.569-2s-2.796,0.666-3.701,2c-0.903,1.334-1.356,3.336-1.356,6.004
			c0,3.125,0.711,5.414,2.135,6.873c0.789,0.809,1.691,1.211,2.711,1.211c1.019,0,1.853-0.229,2.502-0.685
			c0.648-0.456,1.147-1.079,1.5-1.868C83.179,34.96,83.514,33,83.514,30.566z"/>
		<path fill="#3F3E40" d="M93.415,33.293h-6.318v-0.979h6.318V33.293z"/>
		<path fill="#3F3E40" d="M97.418,27.869h-3.029v-0.977h3.029v-4.344h0.974v4.344h3.054v0.977h-3.054V40.06h-0.974V27.869z"/>
		<path fill="#3F3E40" d="M110.665,26.892h0.975v13.193c-1.055,0-1.977-0.043-2.768-0.131c-0.787-0.089-1.606-0.277-2.461-0.566
			c-0.852-0.291-1.549-0.682-2.092-1.172c-0.545-0.49-0.992-1.172-1.344-2.041s-0.525-1.848-0.525-2.938
			c0-1.086,0.109-2.021,0.33-2.801c0.22-0.785,0.498-1.408,0.842-1.873c0.342-0.463,0.726-0.848,1.146-1.145
			c0.737-0.545,1.465-0.816,2.185-0.816c1.319,0,2.557,0.625,3.715,1.869L110.665,26.892L110.665,26.892z M103.422,33.107
			c0,2.303,0.711,3.898,2.131,4.793c1.266,0.791,2.967,1.188,5.108,1.188v-9.295c-0.599-0.688-1.172-1.229-1.726-1.621
			c-0.554-0.396-1.164-0.594-1.832-0.594c-1.104,0-1.996,0.488-2.67,1.463C103.759,30.013,103.422,31.373,103.422,33.107z"/>
		<path fill="#3F3E40" d="M116.404,40.06h-0.976V20.333h0.976V40.06z"/>
	</g>
</g>
</svg>
