<?xml version="1.0" encoding="utf-8"?>
<!-- Generator: Adobe Illustrator 15.0.2, SVG Export Plug-In . SVG Version: 6.00 Build 0)  -->
<!DOCTYPE svg PUBLIC "-//W3C//DTD SVG 1.1//EN" "http://www.w3.org/Graphics/SVG/1.1/DTD/svg11.dtd">
<svg version="1.1" id="Lager_1" xmlns="http://www.w3.org/2000/svg" xmlns:xlink="http://www.w3.org/1999/xlink" x="0px" y="0px"
	 width="174.458px" height="64.979px" viewBox="0 0 174.458 64.979" enable-background="new 0 0 174.458 64.979"
	 xml:space="preserve">
<g>
	
		<polygon fill="#F0C40D" stroke="#F0C40D" stroke-width="4" stroke-linecap="round" stroke-linejoin="round" stroke-miterlimit="10" points="
		155.84,62.979 18.618,62.979 10.617,12.571 163.841,12.571 	"/>
	
		<polygon fill="#EEB715" stroke="#EEB715" stroke-width="4" stroke-linecap="round" stroke-linejoin="round" stroke-miterlimit="10" points="
		153.005,62.979 18.618,62.979 8.67,14.15 	"/>
	<g>
		<path fill="#F8F8F8" stroke="#F8F8F8" stroke-width="0.9021" stroke-miterlimit="10" d="M174.007,10.951
			c0,1.564-1.27,2.834-2.835,2.834H3.286c-1.565,0-2.835-1.27-2.835-2.834V3.286c0-1.565,1.27-2.835,2.835-2.835h167.886
			c1.565,0,2.835,1.27,2.835,2.835V10.951z"/>
		<path fill="#E9E9EA" stroke="#E9E9EA" stroke-width="0.9021" stroke-miterlimit="10" d="M174.007,7.119v3.832
			c0,1.564-1.27,2.834-2.835,2.834H3.286c-1.565,0-2.835-1.27-2.835-2.834V7.119H174.007z"/>
	</g>
	<g>
		<path fill="#FFFFFF" d="M159.172,54.959l-1.35,8.283c-0.132,0.994-0.979,1.736-1.982,1.736H18.618
			c-1.003,0-1.851-0.742-1.983-1.736l-1.084-8.188L159.172,54.959z"/>
	</g>
	<g>
		<path fill="#E9E9EA" d="M135.253,54.959l22.569,8.283c-0.132,0.994-0.979,1.736-1.982,1.736H18.618
			c-1.003,0-1.851-0.742-1.983-1.736l-1.662-8.188L135.253,54.959z"/>
	</g>
	<g>
		
			<path fill="#FFFFFF" stroke="#FFFFFF" stroke-width="0.6" stroke-linecap="round" stroke-linejoin="round" stroke-miterlimit="10" d="
			M70.951,40.927c0.685-0.594,1.027-1.315,1.027-2.169c0-0.853-0.248-1.532-0.742-2.043c-0.495-0.51-1.093-0.891-1.792-1.141
			c-0.7-0.253-1.404-0.507-2.112-0.766c-0.707-0.26-1.31-0.65-1.804-1.177c-0.495-0.524-0.742-1.197-0.742-2.02
			c0-1.431,0.399-2.496,1.199-3.197c0.799-0.698,1.754-1.05,2.865-1.05c1.111,0,2.329,0.106,3.653,0.32v0.845
			c-1.188-0.214-2.298-0.32-3.333-0.32c-1.036,0-1.883,0.29-2.545,0.868c-0.663,0.578-0.994,1.393-0.994,2.442
			c0,0.914,0.471,1.599,1.416,2.055c0.425,0.214,0.894,0.412,1.404,0.594c0.51,0.183,1.023,0.388,1.541,0.617
			c0.517,0.228,0.985,0.497,1.404,0.811c0.418,0.312,0.761,0.745,1.027,1.301s0.399,1.203,0.399,1.941s-0.171,1.388-0.513,1.951
			c-0.343,0.562-0.765,1.004-1.267,1.324c-0.503,0.32-1.089,0.579-1.759,0.776c-1.081,0.335-2.298,0.502-3.652,0.502h-0.571v-0.844
			C67.77,42.549,69.734,42.009,70.951,40.927z"/>
		
			<path fill="#FFFFFF" stroke="#FFFFFF" stroke-width="0.6" stroke-linecap="round" stroke-linejoin="round" stroke-miterlimit="10" d="
			M82.184,43.348l0.022-6.027c0-1.279-0.285-2.395-0.855-3.346c-0.571-0.95-1.302-1.428-2.192-1.428s-1.892,0.633-3.002,1.896v8.904
			h-0.845V31.933h0.845v1.369c0.989-1.065,2.062-1.599,3.219-1.599c0.472,0,0.985,0.168,1.542,0.502
			c0.555,0.335,1.023,0.86,1.404,1.576c1.08-1.385,2.321-2.078,3.722-2.078c0.775,0,1.582,0.365,2.419,1.097
			c0.426,0.396,0.78,0.981,1.062,1.757c0.283,0.777,0.422,1.69,0.422,2.74l-0.022,6.051h-0.845l0.022-6.027
			c0-1.279-0.308-2.395-0.925-3.346c-0.616-0.95-1.373-1.428-2.271-1.428c-0.593,0-1.19,0.207-1.791,0.618
			c-0.602,0.41-1.093,0.882-1.473,1.415c0.273,0.791,0.41,1.697,0.41,2.717l-0.022,6.051H82.184z"/>
		
			<path fill="#FFFFFF" stroke="#FFFFFF" stroke-width="0.6" stroke-linecap="round" stroke-linejoin="round" stroke-miterlimit="10" d="
			M100.744,37.207c0,1.035-0.099,1.943-0.297,2.729c-0.198,0.783-0.445,1.389-0.741,1.814c-0.297,0.426-0.651,0.77-1.062,1.027
			c-1.036,0.67-2.169,0.807-3.402,0.411c-0.426-0.137-0.875-0.384-1.347-0.742s-0.853-0.925-1.141-1.7
			c-0.29-0.777-0.435-1.728-0.435-2.854c0-1.826,0.365-3.314,1.096-4.464c0.731-1.148,1.784-1.724,3.162-1.724
			c1.377,0,2.412,0.541,3.105,1.621C100.375,34.407,100.729,35.7,100.744,37.207z M96.27,42.549l0.274,0.022l0.251-0.022
			c2.07-0.199,3.105-1.942,3.105-5.229c0-1.355-0.274-2.488-0.822-3.402c-0.548-0.913-1.423-1.371-2.625-1.371
			c-0.777,0-1.423,0.268-1.941,0.801c-0.897,0.943-1.346,2.412-1.346,4.406v0.182c0,1.264,0.259,2.326,0.776,3.186
			C94.458,41.981,95.235,42.458,96.27,42.549z M94.375,28.964h0.868v1.507h-0.868V28.964z M98.256,28.964h0.868v1.507h-0.868V28.964
			z"/>
		
			<path fill="#FFFFFF" stroke="#FFFFFF" stroke-width="0.6" stroke-linecap="round" stroke-linejoin="round" stroke-miterlimit="10" d="
			M104.032,43.348h-0.845V31.933h0.845v1.665c0.32-0.38,0.811-0.788,1.472-1.221c0.663-0.435,1.294-0.651,1.896-0.651
			c0.601,0,1.126,0.172,1.576,0.515c0.448,0.343,0.68,0.901,0.695,1.678h-0.845c0-0.426-0.137-0.76-0.411-1.004
			c-0.273-0.244-0.647-0.367-1.118-0.367c-0.472,0-1.047,0.229-1.723,0.687c-0.678,0.456-1.191,0.958-1.542,1.506V43.348z"/>
	</g>
</g>
</svg>
