<?xml version="1.0" encoding="utf-8"?>
<!-- Generator: Adobe Illustrator 17.0.0, SVG Export Plug-In . SVG Version: 6.00 Build 0)  -->
<!DOCTYPE svg PUBLIC "-//W3C//DTD SVG 1.1//EN" "http://www.w3.org/Graphics/SVG/1.1/DTD/svg11.dtd">
<svg version="1.1" id="Layer_1" xmlns="http://www.w3.org/2000/svg" xmlns:xlink="http://www.w3.org/1999/xlink" x="0px" y="0px"
	 width="122.888px" height="101.5px" viewBox="0 0 122.888 101.5" enable-background="new 0 0 122.888 101.5" xml:space="preserve">
<g>
	
		<rect x="11.311" y="6.136" transform="matrix(0.9908 0.1354 -0.1354 0.9908 3.3718 -4.5997)" fill="#866C5E" stroke="#866C5E" stroke-width="4" stroke-linecap="round" stroke-linejoin="round" stroke-miterlimit="10" width="48.359" height="32.689"/>
	
		<polygon fill="#634E42" stroke="#634E42" stroke-width="4" stroke-linecap="round" stroke-linejoin="round" stroke-miterlimit="10" points="
		57.233,41.949 9.32,35.399 13.747,3.012 	"/>
</g>
<polygon fill="#CBBBA0" stroke="#CBBBA0" stroke-width="4.0257" stroke-linecap="round" stroke-linejoin="round" stroke-miterlimit="10" points="
	6.912,35.07 2.013,34.4 3.759,32.439 2.58,30.252 4.284,28.595 3.093,26.497 4.81,24.75 3.637,22.52 5.335,20.906 4.227,18.206 
	5.972,16.245 4.794,14.059 6.498,12.401 5.307,10.303 7.023,8.557 5.851,6.326 7.549,4.712 6.44,2.013 11.339,2.683 "/>
<polygon fill="#CBBBA0" stroke="#CBBBA0" stroke-width="4.0257" stroke-linecap="round" stroke-linejoin="round" stroke-miterlimit="10" points="
	64.069,9.891 68.968,10.56 67.222,12.522 68.401,14.708 66.697,16.366 67.888,18.464 66.171,20.21 67.344,22.441 65.646,24.055 
	66.754,26.754 65.009,28.715 66.187,30.902 64.483,32.56 65.674,34.658 63.958,36.404 65.13,38.635 63.432,40.248 64.541,42.948 
	59.642,42.278 "/>
<g>
	
		<rect x="61.311" y="56.136" transform="matrix(0.9267 -0.3759 0.3759 0.9267 -20.9744 37.448)" fill="#866C5E" stroke="#866C5E" stroke-width="4" stroke-linecap="round" stroke-linejoin="round" stroke-miterlimit="10" width="48.359" height="32.689"/>
	
		<polygon fill="#634E42" stroke="#634E42" stroke-width="4" stroke-linecap="round" stroke-linejoin="round" stroke-miterlimit="10" points="
		114.04,78.538 69.227,96.715 56.941,66.423 	"/>
</g>
<polygon fill="#CBBBA0" stroke="#CBBBA0" stroke-width="4.0257" stroke-linecap="round" stroke-linejoin="round" stroke-miterlimit="10" points="
	66.975,97.628 62.393,99.487 62.93,96.917 60.819,95.607 61.472,93.321 59.395,92.094 60.014,89.726 57.886,88.375 58.555,86.13 
	56.25,84.341 56.787,81.771 54.676,80.461 55.329,78.175 53.251,76.949 53.87,74.58 51.742,73.229 52.412,70.984 50.106,69.195 
	54.688,67.337 "/>
<polygon fill="#CBBBA0" stroke="#CBBBA0" stroke-width="4.0257" stroke-linecap="round" stroke-linejoin="round" stroke-miterlimit="10" points="
	104.006,47.332 108.588,45.474 108.05,48.044 110.162,49.354 109.509,51.639 111.586,52.866 110.967,55.235 113.095,56.586 
	112.426,58.831 114.731,60.62 114.194,63.19 116.305,64.499 115.652,66.785 117.73,68.012 117.111,70.381 119.238,71.732 
	118.569,73.977 120.875,75.766 116.293,77.624 "/>
</svg>
