<?xml version="1.0" encoding="utf-8"?>
<!-- Generator: Adobe Illustrator 15.0.2, SVG Export Plug-In . SVG Version: 6.00 Build 0)  -->
<!DOCTYPE svg PUBLIC "-//W3C//DTD SVG 1.1//EN" "http://www.w3.org/Graphics/SVG/1.1/DTD/svg11.dtd">
<svg version="1.1" id="Lager_1" xmlns="http://www.w3.org/2000/svg" xmlns:xlink="http://www.w3.org/1999/xlink" x="0px" y="0px"
	 width="96.67px" height="96.672px" viewBox="0 0 96.67 96.672" enable-background="new 0 0 96.67 96.672" xml:space="preserve">
<g>
	<path fill="#FFD142" d="M96.67,38.974c0,0-24.216,15.769-7.537,36.92c0,0-28.564-5.835-31.437,20.778c0,0-13.243-23.02-36.92-7.537
		c0,0,8.212-24.814-20.776-31.436c0,0,23.627-13.816,7.537-36.922c0,0,27.464,6.341,31.436-20.777c0,0,14.23,23.144,36.92,7.538
		C75.893,7.538,69.953,34.403,96.67,38.974z"/>
	<circle fill="#FFE161" cx="48.334" cy="48.336" r="31.447"/>
</g>
<g>
	
		<path fill="#BF3A28" stroke="#BF3A28" stroke-width="0.0377" stroke-linecap="round" stroke-linejoin="round" stroke-miterlimit="10" d="
		M85.09,37.979l-11.186-1.719c-1.878-0.428-4.115-0.751-6.602-0.751c-4.262,0-8.374,0.95-12.223,2.823
		c-0.103,0.05-0.194,0.109-0.293,0.162l0.003-0.012c0,0-2.128,1.324-6.455,1.286c-4.327,0.038-6.456-1.286-6.456-1.286l0.003,0.012
		c-0.097-0.053-0.189-0.111-0.292-0.162c-3.85-1.873-7.962-2.823-12.224-2.823c-2.486,0-4.723,0.323-6.6,0.751l-11.188,1.719
		c-0.247,0.039-0.43,0.252-0.43,0.502v4.702c0,0.21,0.128,0.399,0.324,0.475l1.968,0.754c0.009,0.384,0.04,0.777,0.096,1.179
		l0.941,7.386c0.079,0.843,1.16,8.184,14.699,8.184c0.582,0,1.189-0.014,1.803-0.042l0.011,0.002l0,0
		c0.91,0,8.98-0.209,12.356-7.414c0.009-0.021,0.018-0.039,0.026-0.06c0.074-0.181,0.756-1.86,1.255-4.074l0.004,0.014
		c0,0,0.867-4.375,3.702-4.636c2.834,0.26,3.701,4.636,3.701,4.636l0.004-0.014c0.5,2.213,1.181,3.893,1.255,4.074
		c0.009,0.021,0.018,0.039,0.027,0.06c3.376,7.205,11.447,7.414,12.355,7.414l0.012-0.002c0.613,0.028,1.219,0.042,1.802,0.042
		c13.542,0,14.62-7.341,14.699-8.184l0.937-7.366c0.06-0.41,0.091-0.809,0.099-1.197l1.97-0.756
		c0.196-0.076,0.324-0.265,0.324-0.475v-4.702C85.52,38.231,85.338,38.018,85.09,37.979z M40.791,52.551
		c-2.699,5.698-9.509,5.764-9.813,5.764l0,0c-0.03,0-0.06,0-0.088,0.003c-0.583,0.024-1.16,0.039-1.712,0.039
		c-11.259,0-11.884-5.402-11.903-5.61c-0.003-0.031-0.004-0.064-0.008-0.096l-0.947-7.433c-0.298-2.105,0.314-3.685,1.678-4.336
		c0.021-0.009,0.044-0.021,0.063-0.031c0.047-0.025,4.777-2.535,11.306-2.535c3.832,0,7.532,0.855,10.995,2.541
		C44.506,42.872,41.004,52.009,40.791,52.551z M80.347,45.237l-0.942,7.413c-0.005,0.031-0.007,0.064-0.01,0.096
		c-0.002,0.056-0.461,5.61-11.903,5.61c-0.552,0-1.126-0.015-1.711-0.039c-0.021-0.003-0.082-0.003-0.103-0.003
		c-0.29,0-7.102-0.065-9.799-5.764c-0.218-0.549-3.729-9.672,0.429-11.695c3.463-1.686,7.163-2.541,10.995-2.541
		c6.528,0,11.26,2.51,11.305,2.534c0.021,0.012,0.042,0.022,0.066,0.033C80.035,41.533,80.647,43.113,80.347,45.237z"/>
	<path opacity="0.78" fill="#1B171B" d="M80.347,45.237l-0.942,7.413c-0.005,0.031-0.007,0.064-0.01,0.096
		c-0.002,0.056-0.461,5.61-11.903,5.61c-0.552,0-1.126-0.015-1.711-0.039c-0.021-0.003-0.082-0.003-0.103-0.003
		c-0.29,0-7.102-0.065-9.799-5.764c-0.218-0.549-3.729-9.672,0.429-11.695c3.463-1.686,7.163-2.541,10.995-2.541
		c6.528,0,11.26,2.51,11.305,2.534c0.021,0.012,0.042,0.022,0.066,0.033C80.035,41.533,80.647,43.113,80.347,45.237z"/>
	<path opacity="0.78" fill="#1D1D1B" d="M40.791,52.551c-2.699,5.698-9.509,5.764-9.813,5.764l0,0c-0.03,0-0.06,0-0.088,0.003
		c-0.583,0.024-1.16,0.039-1.712,0.039c-11.259,0-11.884-5.402-11.903-5.61c-0.003-0.031-0.004-0.064-0.008-0.096l-0.947-7.433
		c-0.298-2.105,0.314-3.685,1.678-4.336c0.021-0.009,0.044-0.021,0.063-0.031c0.047-0.025,4.777-2.535,11.306-2.535
		c3.832,0,7.532,0.855,10.995,2.541C44.506,42.872,41.004,52.009,40.791,52.551z"/>
	<path opacity="0.78" fill="#1D1D1B" d="M78.674,40.881"/>
	<path opacity="0.78" fill="#1D1D1B" d="M79.404,52.65"/>
</g>
</svg>
