<?xml version="1.0" encoding="utf-8"?>
<!-- Generator: Adobe Illustrator 15.0.2, SVG Export Plug-In . SVG Version: 6.00 Build 0)  -->
<!DOCTYPE svg PUBLIC "-//W3C//DTD SVG 1.1//EN" "http://www.w3.org/Graphics/SVG/1.1/DTD/svg11.dtd">
<svg version="1.1" id="Lager_1" xmlns="http://www.w3.org/2000/svg" xmlns:xlink="http://www.w3.org/1999/xlink" x="0px" y="0px"
	 width="186.685px" height="68.579px" viewBox="0 0 186.685 68.579" enable-background="new 0 0 186.685 68.579"
	 xml:space="preserve">
<g>
	<path fill="#FFD142" d="M121.955,27.156c0,0-16.873,10.987-5.252,25.724c0,0-19.903-4.066-21.904,14.478
		c0,0-9.228-16.038-25.725-5.251c0,0,5.722-17.29-14.477-21.904c0,0,16.463-9.626,5.252-25.726c0,0,19.136,4.418,21.903-14.477
		c0,0,9.915,16.126,25.725,5.252C107.478,5.252,103.339,23.971,121.955,27.156z"/>
	<circle fill="#FFE161" cx="88.276" cy="33.678" r="21.911"/>
</g>
<path fill="#FFFFFF" d="M112.792,28.414c0.092,0,0.183,0.004,0.274,0.006c-0.037-0.486-0.062-0.975-0.062-1.47
	c0-10.658,8.671-19.328,19.328-19.328c7.503,0,14.015,4.299,17.217,10.56c2.294-2.369,5.504-3.846,9.055-3.846
	c6.955,0,12.614,5.658,12.614,12.614c0,0.682-0.056,1.352-0.16,2.005c1.03-0.278,2.112-0.43,3.229-0.43
	c6.836,0,12.397,5.562,12.397,12.398c0,2.259-0.615,4.472-1.777,6.396c-0.108,0.181-0.305,0.292-0.517,0.292h-80.597
	c-0.189,0-0.368-0.09-0.483-0.241c-1.549-2.064-2.367-4.522-2.367-7.108C100.943,33.729,106.258,28.414,112.792,28.414z"/>
<path fill="#B1B3B4" d="M11.984,27.055c0.093,0,0.185,0.005,0.277,0.007c-0.038-0.491-0.063-0.986-0.063-1.487
	c0-10.779,8.77-19.548,19.548-19.548c7.588,0,14.175,4.348,17.413,10.68c2.32-2.396,5.567-3.89,9.158-3.89
	c7.035,0,12.758,5.723,12.758,12.758c0,0.69-0.056,1.367-0.162,2.028c1.042-0.282,2.136-0.435,3.266-0.435
	c6.914,0,12.539,5.625,12.539,12.539c0,2.284-0.621,4.522-1.797,6.469c-0.11,0.184-0.309,0.295-0.522,0.295H2.883
	c-0.191,0-0.372-0.09-0.488-0.243C0.828,44.141,0,41.655,0,39.039C0,32.431,5.376,27.055,11.984,27.055z"/>
<path fill="#C5C6C8" d="M73.699,45.069c0.112,0,0.224,0.005,0.336,0.008c-0.046-0.595-0.076-1.194-0.076-1.8
	c0-13.051,10.617-23.668,23.668-23.668c9.188,0,17.162,5.264,21.083,12.931c2.81-2.901,6.741-4.71,11.089-4.71
	c8.518,0,15.447,6.93,15.447,15.447c0,0.835-0.068,1.655-0.196,2.456c1.261-0.341,2.586-0.526,3.954-0.526
	c8.371,0,15.182,6.811,15.182,15.182c0,2.767-0.752,5.477-2.176,7.833c-0.134,0.222-0.373,0.358-0.633,0.358H62.68
	c-0.232,0-0.451-0.109-0.592-0.296c-1.896-2.527-2.898-5.538-2.898-8.704C59.189,51.577,65.698,45.069,73.699,45.069z"/>
</svg>
