<?xml version="1.0" encoding="utf-8"?>
<!-- Generator: Adobe Illustrator 15.0.2, SVG Export Plug-In . SVG Version: 6.00 Build 0)  -->
<!DOCTYPE svg PUBLIC "-//W3C//DTD SVG 1.1//EN" "http://www.w3.org/Graphics/SVG/1.1/DTD/svg11.dtd">
<svg version="1.1" id="Lager_1" xmlns="http://www.w3.org/2000/svg" xmlns:xlink="http://www.w3.org/1999/xlink" x="0px" y="0px"
	 width="880.097px" height="63.218px" viewBox="0 0 880.097 63.218" enable-background="new 0 0 880.097 63.218"
	 xml:space="preserve">
<g>
	<path fill="#655848" d="M880.097,63.218L0.445,62.878c-1-2,0-44.853,0-44.853c45.369-3.67,67.588-16.189,94.018-16.189
		c27.072,0,55.295,13.827,77.646,15.269c0,0,43.108,0.238,61.276-4.109c27.163-6.5,65.641-25.98,137.143,0.574
		c0,0,23.754,7.229,59.083,6.858c0,0,20.856,0.006,21.43,0c44.1-0.279,58.971-6.858,58.971-6.858
		c71.5-26.557,109.979-7.074,137.144-0.574c18.168,4.35,61.274,4.109,61.274,4.109c22.354-1.439,50.576-15.269,77.646-15.269
		c26.428,0,48.647,13.521,94.021,17.19"/>
</g>
</svg>
