<?xml version="1.0" encoding="utf-8"?>
<!-- Generator: Adobe Illustrator 15.0.2, SVG Export Plug-In . SVG Version: 6.00 Build 0)  -->
<!DOCTYPE svg PUBLIC "-//W3C//DTD SVG 1.1//EN" "http://www.w3.org/Graphics/SVG/1.1/DTD/svg11.dtd">
<svg version="1.1" id="Lager_1" xmlns="http://www.w3.org/2000/svg" xmlns:xlink="http://www.w3.org/1999/xlink" x="0px" y="0px"
	 width="259.179px" height="204.897px" viewBox="0 0 259.179 204.897" enable-background="new 0 0 259.179 204.897"
	 xml:space="preserve">
<g>
	<path fill="#38AA62" stroke="#38AA62" stroke-width="2.0734" stroke-linecap="round" stroke-miterlimit="10" d="M244.666,190.138
		v-89.579c0-57.256-46.414-99.521-103.67-99.521h-22.81c-57.256,0-103.67,42.268-103.67,99.521v89.579H1.037v13.722h257.104v-13.722
		H244.666L244.666,190.138z"/>
	<path fill="#409C5E" stroke="#409C5E" stroke-width="2.0734" stroke-linecap="round" stroke-miterlimit="10" d="M130.401,1.037
		h-12.213c-57.256,0-103.67,42.268-103.67,99.521v89.579H1.041v13.721h128.551"/>
	<circle fill="#135D36" cx="130.4" cy="43.818" r="15.358"/>
	<g opacity="0.5">
		<path fill="#135D36" d="M131.149,137.479h6.336c1.162,0,2.11-0.941,2.11-2.104v-28.835c0-0.599,0-0.964,0-1.316
			c0-3.527-0.485-5.521-3.588-8l-0.244-0.234c-0.804-0.803-1.01-1.435-1.01-2.308v-7.323h0.408c0.276,0,0.498-0.22,0.498-0.494
			v-2.221c0-0.271-0.222-0.491-0.498-0.491h-3.658h0.099h-3.658c-0.276,0-0.498,0.222-0.498,0.491v2.221
			c0,0.274,0.222,0.494,0.498,0.494h0.409v7.323c0,0.873-0.209,1.505-1.012,2.308l-0.246,0.234c-3.103,2.479-3.588,4.473-3.588,8
			c0,0.354,0,0.72,0,1.316v28.835c0,1.16,0.951,2.104,2.112,2.104h6.335"/>
	</g>
</g>
</svg>
