<?xml version="1.0" encoding="utf-8"?>
<!-- Generator: Adobe Illustrator 15.0.2, SVG Export Plug-In . SVG Version: 6.00 Build 0)  -->
<!DOCTYPE svg PUBLIC "-//W3C//DTD SVG 1.1//EN" "http://www.w3.org/Graphics/SVG/1.1/DTD/svg11.dtd">
<svg version="1.1" id="Lager_1" xmlns="http://www.w3.org/2000/svg" xmlns:xlink="http://www.w3.org/1999/xlink" x="0px" y="0px"
	 width="120.824px" height="68.43px" viewBox="0 0 120.824 68.43" enable-background="new 0 0 120.824 68.43" xml:space="preserve">
<path fill="#635848" stroke="#635848" stroke-width="2.019" stroke-miterlimit="10" d="M107.852,40.382
	c-1.083-2.152-3.066-3.761-5.439-4.355c0.271-0.677,0.411-1.415,0.388-2.188c-0.084-2.521-1.875-4.573-4.228-5.106
	c-0.453-2.62-2.779-4.572-5.512-4.48c-0.145,0.004-0.282,0.021-0.421,0.033c-0.784-1.718-2.438-2.938-4.381-3.134
	c-0.834-1.621-2.456-2.755-4.345-2.919c0.059-0.44,0.084-0.892,0.066-1.351c-0.15-4.558-3.969-8.13-8.527-7.98
	c-1.012,0.033-1.978,0.249-2.862,0.614c0.131-4.269-3.039-7.982-7.354-8.456c-3.12-0.343-6.021,1.104-7.689,3.514
	c-0.62-0.124-1.265-0.185-1.923-0.163c-3.841,0.129-6.98,2.859-7.786,6.441c-1.207-0.62-2.584-0.949-4.036-0.903
	c-3.961,0.134-7.178,3.032-7.854,6.782c-2.899,0.196-5.146,2.657-5.049,5.587c0,0.021,0.004,0.037,0.004,0.056
	c-0.948-0.698-2.132-1.104-3.401-1.062c-2.991,0.097-5.338,2.604-5.24,5.597c0.027,0.769,0.211,1.487,0.521,2.142
	c-0.422-0.05-0.85-0.071-1.285-0.056c-4.621,0.152-8.243,4.021-8.09,8.642c0.015,0.388,0.056,0.766,0.116,1.139
	c-0.335-0.02-0.674-0.024-1.02-0.014C5.941,38.979,0.796,44.476,1.016,51.035c0.216,6.562,5.712,11.705,12.274,11.49
	c2.043-0.068,3.945-0.647,5.597-1.613c2.233,3.146,5.948,5.146,10.089,5.009c3.263-0.106,6.175-1.521,8.254-3.724
	c1.987,1.315,4.386,2.051,6.949,1.967c3.037-0.1,5.767-1.332,7.804-3.272c2.215,2.031,5.192,3.233,8.434,3.124
	c2.043-0.064,3.946-0.646,5.598-1.608c2.232,3.142,5.947,5.144,10.089,5.006c3.265-0.106,6.176-1.521,8.253-3.725
	c1.987,1.313,4.387,2.053,6.951,1.97c3.583-0.118,6.743-1.814,8.836-4.396c2.188,1.892,5.06,2.999,8.174,2.893
	c6.563-0.217,11.707-5.712,11.49-12.271C119.591,45.421,114.269,40.341,107.852,40.382z"/>
</svg>
