<?xml version="1.0" encoding="utf-8"?>
<!-- Generator: Adobe Illustrator 15.0.2, SVG Export Plug-In . SVG Version: 6.00 Build 0)  -->
<!DOCTYPE svg PUBLIC "-//W3C//DTD SVG 1.1//EN" "http://www.w3.org/Graphics/SVG/1.1/DTD/svg11.dtd">
<svg version="1.1" xmlns="http://www.w3.org/2000/svg" xmlns:xlink="http://www.w3.org/1999/xlink" x="0px" y="0px" width="250px"
	 height="100px" viewBox="-289.5 503.5 250 100" enable-background="new -289.5 503.5 250 100" xml:space="preserve">
<g id="Ljud_på">
</g>
<g id="Ljud_av">
</g>
<g id="Hjälp">
</g>
<g id="Spela">
</g>
<g id="Pausa">
	<g>
		<path opacity="0.8" fill="#FFFFFF" d="M-214.603,504.423c-13.687,0-24.783,11.095-24.783,24.783
			c0,13.688,11.096,24.783,24.783,24.783c13.688,0,24.783-11.096,24.783-24.783C-189.82,515.517-200.915,504.423-214.603,504.423z
			 M-212.663,541.992l-10.981-6.136h-4.864c-1.302,0-2.358-1.056-2.358-2.357v-8.334c0-1.302,1.056-2.357,2.358-2.357h4.864
			l10.981-6.388V541.992z M-208.633,534.301c1.275-1.272,2.066-3.032,2.068-4.976c0.003-1.944-0.782-3.706-2.055-4.981l2.1-2.092
			c1.807,1.811,2.924,4.312,2.919,7.077c-0.004,2.763-1.128,5.263-2.941,7.07L-208.633,534.301z M-202.829,540.127l-2.144-2.152
			c2.216-2.209,3.591-5.268,3.596-8.645c0.005-3.377-1.357-6.434-3.567-8.647l2.154-2.146c2.758,2.768,4.458,6.582,4.452,10.798
			C-198.344,533.549-200.062,537.367-202.829,540.127z"/>
		<path fill="#6A9A98" d="M-214.603,553.663c-13.687,0-24.783,11.096-24.783,24.783s11.096,24.782,24.783,24.782
			c13.688,0,24.783-11.095,24.783-24.782S-200.915,553.663-214.603,553.663z M-212.663,591.232l-10.981-6.136h-4.864
			c-1.302,0-2.358-1.056-2.358-2.358v-8.332c0-1.303,1.056-2.358,2.358-2.358h4.864l10.981-6.388V591.232z M-208.633,583.541
			c1.275-1.272,2.066-3.032,2.068-4.977c0.003-1.944-0.782-3.705-2.055-4.98l2.1-2.093c1.807,1.812,2.924,4.314,2.919,7.077
			c-0.004,2.763-1.128,5.264-2.941,7.071L-208.633,583.541z M-202.829,589.367l-2.144-2.152c2.216-2.21,3.591-5.269,3.596-8.645
			c0.005-3.377-1.357-6.433-3.567-8.648l2.154-2.145c2.758,2.766,4.458,6.58,4.452,10.796S-200.062,586.606-202.829,589.367z"/>
		<path opacity="0.8" fill="#FFFFFF" d="M-165.037,504.423c-13.687,0-24.783,11.095-24.783,24.783
			c0,13.688,11.096,24.783,24.783,24.783c13.688,0,24.784-11.096,24.784-24.783C-140.253,515.517-151.349,504.423-165.037,504.423z
			 M-163.097,541.992l-10.981-6.136h-4.865c-1.302,0-2.357-1.056-2.357-2.357v-8.334c0-1.302,1.056-2.357,2.357-2.357h4.865
			l10.981-6.388V541.992z M-148.752,535.582l-4.066-4.065l-4.065,4.065l-2.183-2.186l4.064-4.064l-4.065-4.065l2.185-2.184
			l4.064,4.063l4.063-4.064l2.186,2.185l-4.064,4.064l4.064,4.065L-148.752,535.582z"/>
		<path fill="#6A9A98" d="M-165.037,553.989c-13.687,0-24.783,11.095-24.783,24.782s11.096,24.783,24.783,24.783
			c13.688,0,24.784-11.096,24.784-24.783S-151.349,553.989-165.037,553.989z M-163.097,591.557l-10.981-6.135h-4.865
			c-1.302,0-2.357-1.056-2.357-2.357v-8.333c0-1.304,1.056-2.359,2.357-2.359h4.865l10.981-6.388V591.557z M-148.752,585.146
			l-4.066-4.065l-4.065,4.066l-2.183-2.185l4.064-4.066l-4.065-4.063l2.185-2.184l4.064,4.063l4.063-4.064l2.186,2.185l-4.064,4.063
			l4.064,4.065L-148.752,585.146z"/>
		<path id="help-2-icon_3_" opacity="0.8" fill="#FFFFFF" d="M-264.261,503.446c-13.739,0-24.876,11.137-24.876,24.875
			c0,13.739,11.137,24.876,24.876,24.876c13.738,0,24.875-11.137,24.875-24.876C-239.386,514.583-250.523,503.446-264.261,503.446z
			 M-263.99,544.853c-1.951,0-3.535-1.583-3.535-3.535c0-1.951,1.583-3.533,3.535-3.533c1.953,0,3.535,1.582,3.535,3.533
			C-260.455,543.27-262.038,544.853-263.99,544.853z M-261.211,534.406v0.636c0,0-5.299,0-5.827,0v-0.636
			c0-1.799,0.263-4.107,2.351-6.114c2.089-2.007,4.699-3.664,4.699-6.171c0-2.771-1.923-4.237-4.348-4.237
			c-4.042,0-4.305,4.19-4.405,5.113h-5.667c0.151-4.37,1.998-10.482,10.105-10.482c7.026,0,10.185,4.705,10.185,9.117
			C-254.116,528.656-261.211,529.876-261.211,534.406z"/>
		<path id="help-2-icon_2_" fill="#6A9A98" d="M-264.261,553.569c-13.739,0-24.876,11.138-24.876,24.877
			c0,13.738,11.137,24.876,24.876,24.876c13.738,0,24.876-11.138,24.876-24.876C-239.385,564.707-250.523,553.569-264.261,553.569z
			 M-263.99,594.978c-1.951,0-3.535-1.584-3.535-3.537c0-1.95,1.583-3.533,3.535-3.533c1.953,0,3.535,1.583,3.535,3.533
			C-260.455,593.394-262.037,594.978-263.99,594.978z M-261.211,584.53v0.635c0,0-5.299,0-5.827,0v-0.635
			c0-1.799,0.263-4.107,2.352-6.113c2.089-2.007,4.699-3.665,4.699-6.172c0-2.772-1.923-4.237-4.348-4.237
			c-4.042,0-4.305,4.191-4.405,5.113h-5.667c0.151-4.369,1.998-10.482,10.106-10.482c7.026,0,10.185,4.705,10.185,9.118
			C-254.116,578.78-261.211,580-261.211,584.53z"/>
		<path id="video-play-icon" opacity="0.8" fill="#FFFFFF" d="M-115.156,503.606c-13.861,0-25.098,11.102-25.098,24.796
			c0,13.693,11.236,24.795,25.098,24.795c13.861,0,25.098-11.101,25.098-24.795S-101.295,503.606-115.156,503.606z M-122.27,542.062
			v-26.713l21.784,13.357L-122.27,542.062z"/>
		<path id="video-play-icon_2_" fill="#6A9A98" d="M-115.156,553.65c-13.861,0-25.098,11.102-25.098,24.796
			c0,13.693,11.236,24.795,25.098,24.795c13.861,0,25.098-11.102,25.098-24.795C-90.057,564.752-101.295,553.65-115.156,553.65z
			 M-122.27,592.106v-26.713l21.784,13.357L-122.27,592.106z"/>
		<path id="pause-2-icon" opacity="0.8" fill="#FFFFFF" d="M-64.96,503.606c-13.861,0-25.098,11.102-25.098,24.796
			c0,13.693,11.237,24.795,25.098,24.795c13.861,0,25.098-11.101,25.098-24.795S-51.098,503.606-64.96,503.606z M-67.104,540.586
			h-7.098v-24.368h7.098V540.586z M-55.474,540.586h-7.097v-24.368h7.097V540.586z"/>
		<path id="pause-2-icon_1_" fill="#6A9A98" d="M-64.96,553.65c-13.861,0-25.098,11.102-25.098,24.796
			c0,13.693,11.237,24.795,25.098,24.795c13.861,0,25.098-11.102,25.098-24.795C-39.862,564.752-51.098,553.65-64.96,553.65z
			 M-67.104,590.63h-7.098v-24.367h7.098V590.63z M-55.474,590.63h-7.097v-24.367h7.097V590.63z"/>
	</g>
</g>
</svg>
