<?xml version="1.0" encoding="utf-8"?>
<!-- Generator: Adobe Illustrator 15.0.2, SVG Export Plug-In . SVG Version: 6.00 Build 0)  -->
<!DOCTYPE svg PUBLIC "-//W3C//DTD SVG 1.1//EN" "http://www.w3.org/Graphics/SVG/1.1/DTD/svg11.dtd">
<svg version="1.1" id="Lager_1" xmlns="http://www.w3.org/2000/svg" xmlns:xlink="http://www.w3.org/1999/xlink" x="0px" y="0px"
	 width="459.245px" height="556.364px" viewBox="0 0 459.245 556.364" enable-background="new 0 0 459.245 556.364"
	 xml:space="preserve">
<g>
	<g>
		<circle fill="none" stroke="#C6C6C9" stroke-width="2" stroke-miterlimit="10" cx="105" cy="451.958" r="104"/>
		<path fill="none" stroke="#C6C6C9" stroke-width="2" stroke-miterlimit="10" d="M105,367.958c-46.318,0-84,37.682-84,84
			c0,46.317,37.682,84,84,84c46.317,0,84-37.683,84-84C189,405.64,151.318,367.958,105,367.958z"/>
	</g>
	<g>
		<circle fill="none" stroke="#C6C6C9" stroke-width="2.2081" stroke-miterlimit="10" cx="230.682" cy="190.997" r="114.823"/>
		<path fill="none" stroke="#C6C6C9" stroke-width="2.2081" stroke-miterlimit="10" d="M230.682,98.257
			c-51.139,0-92.742,41.604-92.742,92.74c0,51.138,41.604,92.741,92.742,92.741c51.137,0,92.742-41.604,92.742-92.741
			C323.424,139.86,281.819,98.257,230.682,98.257z"/>
	</g>
	<g>
		<circle fill="none" stroke="#C6C6C9" stroke-width="2" stroke-miterlimit="10" cx="383.832" cy="451.958" r="74.414"/>
		<path fill="none" stroke="#C6C6C9" stroke-width="2" stroke-miterlimit="10" d="M383.831,397.544
			c-30.004,0-54.413,24.41-54.413,54.414s24.409,54.412,54.413,54.412s54.414-24.408,54.414-54.412S413.835,397.544,383.831,397.544
			z"/>
	</g>
	<g>
		<circle fill="#C6C6C9" stroke="#C6C6C9" stroke-width="0.8118" stroke-miterlimit="10" cx="313.063" cy="23.667" r="5.662"/>
		<circle fill="none" stroke="#C6C6C9" stroke-width="0.8118" stroke-miterlimit="10" cx="330.272" cy="23.667" r="5.662"/>
		<circle fill="none" stroke="#C6C6C9" stroke-width="0.8118" stroke-miterlimit="10" cx="313.063" cy="6.661" r="5.662"/>
	</g>
	<g>
		<circle fill="none" stroke="#C6C6C9" stroke-width="0.8118" stroke-miterlimit="10" cx="361.588" cy="23.667" r="5.661"/>
		<circle fill="#C6C6C9" stroke="#C6C6C9" stroke-width="0.8118" stroke-miterlimit="10" cx="378.796" cy="23.667" r="5.662"/>
		<circle fill="none" stroke="#C6C6C9" stroke-width="0.8118" stroke-miterlimit="10" cx="361.588" cy="6.661" r="5.661"/>
	</g>
	<g>
		<circle fill="none" stroke="#C6C6C9" stroke-width="0.8118" stroke-miterlimit="10" cx="410.113" cy="23.667" r="5.662"/>
		<circle fill="none" stroke="#C6C6C9" stroke-width="0.8118" stroke-miterlimit="10" cx="427.322" cy="23.667" r="5.662"/>
		<circle fill="#C6C6C9" stroke="#C6C6C9" stroke-width="0.8118" stroke-miterlimit="10" cx="410.113" cy="6.661" r="5.662"/>
	</g>
	<g>
		<g>
			<circle fill="none" stroke="#C6C6C9" stroke-miterlimit="10" cx="230.682" cy="17.542" r="8.389"/>
			<line fill="none" stroke="#C6C6C9" stroke-miterlimit="10" x1="230.683" y1="22.46" x2="230.683" y2="12.626"/>
		</g>
		<path fill="none" stroke="#C6C6C9" stroke-miterlimit="10" d="M216.099,17.543c-0.667,0-10.167,0-10.167,0"/>
		<g>
			<path fill="none" stroke="#C6C6C9" stroke-miterlimit="10" d="M255.433,17.543c-0.667,0-10.167,0-10.167,0"/>
			<path fill="none" stroke="#C6C6C9" stroke-miterlimit="10" d="M250.35,22.627c0-0.667,0-10.167,0-10.167"/>
		</g>
	</g>
	<g>
		<circle fill="none" stroke="#E7503F" stroke-width="2.2081" stroke-miterlimit="10" cx="230.682" cy="190.997" r="114.823"/>
		<path fill="none" stroke="#E7503F" stroke-width="2.2081" stroke-miterlimit="10" d="M230.682,98.257
			c-51.139,0-92.742,41.604-92.742,92.74c0,51.138,41.604,92.741,92.742,92.741c51.137,0,92.742-41.604,92.742-92.741
			C323.424,139.86,281.819,98.257,230.682,98.257z"/>
	</g>
</g>
</svg>
