<?xml version="1.0" encoding="utf-8"?>
<!-- Generator: Adobe Illustrator 15.0.2, SVG Export Plug-In . SVG Version: 6.00 Build 0)  -->
<!DOCTYPE svg PUBLIC "-//W3C//DTD SVG 1.1//EN" "http://www.w3.org/Graphics/SVG/1.1/DTD/svg11.dtd">
<svg version="1.1" id="Lager_1" xmlns="http://www.w3.org/2000/svg" xmlns:xlink="http://www.w3.org/1999/xlink" x="0px" y="0px"
	 width="93.214px" height="402.277px" viewBox="0 0 93.214 402.277" enable-background="new 0 0 93.214 402.277"
	 xml:space="preserve">
<g>
	<g>
		
			<path fill="#C6C6C9" stroke="#C6C6C9" stroke-width="2.0316" stroke-linecap="round" stroke-linejoin="round" stroke-miterlimit="10" d="
			M64.775,1.016H28.439c-15.146,0-27.424,12.279-27.424,27.424L6.5,113.455c0,15.147,12.277,27.423,27.423,27.423h5.77v177.003
			c0.004,3.821,3.094,6.911,6.912,6.911c3.82,0,6.912-3.094,6.912-6.911l-0.002-177.003h5.775c15.146,0,27.424-12.275,27.424-27.423
			l5.484-85.016C92.198,13.295,79.921,1.016,64.775,1.016z M29.01,112.104c0,2.641-2.151,4.788-4.79,4.788
			c-2.639,0-4.791-2.147-4.791-4.788V29.789c0-2.643,2.152-4.789,4.791-4.789c2.639,0,4.79,2.146,4.79,4.789V112.104z
			 M50.484,112.104c0,2.641-2.145,4.788-4.788,4.788c-2.642,0-4.787-2.147-4.787-4.788V29.789c0-2.643,2.145-4.789,4.787-4.789
			c2.643,0,4.788,2.146,4.788,4.789V112.104z M71.963,112.104c0,2.641-2.147,4.788-4.788,4.788c-2.641,0-4.79-2.147-4.79-4.788
			V29.789c0-2.643,2.148-4.789,4.79-4.789c2.64,0,4.788,2.146,4.788,4.789V112.104z"/>
		
			<path fill="#B2B3B4" stroke="#B2B3B4" stroke-width="2.0316" stroke-linecap="round" stroke-linejoin="round" stroke-miterlimit="10" d="
			M45.696,116.892c-2.642,0-4.787-2.147-4.787-4.788V29.789c0-2.643,2.145-4.789,4.787-4.789c0.312,0,0.617,0.039,0.909,0.096V1.016
			H28.439c-15.146,0-27.424,12.279-27.424,27.424L6.5,113.455c0,15.147,12.277,27.423,27.423,27.423h5.77v177.003
			c0.004,3.821,3.094,6.911,6.912,6.911v-207.99C46.313,116.86,46.009,116.892,45.696,116.892z M29.01,112.104
			c0,2.641-2.151,4.788-4.79,4.788c-2.639,0-4.791-2.147-4.791-4.788V29.789c0-2.643,2.152-4.789,4.791-4.789
			c2.639,0,4.79,2.146,4.79,4.789V112.104z"/>
		
			<path fill="#B08048" stroke="#B08048" stroke-width="2.0316" stroke-linecap="round" stroke-linejoin="round" stroke-miterlimit="10" d="
			M56.253,266.15l0.006,125.458c0,5.331-4.319,9.651-9.654,9.651c-5.332,0-9.649-4.316-9.654-9.651V266.15H56.253z"/>
		<g>
			<path fill="#905F37" d="M46.605,401.26c-5.332,0-9.649-4.316-9.654-9.651V266.15h9.654V401.26z"/>
			<path fill="#905F37" d="M46.605,402.277c-5.878,0-10.663-4.788-10.668-10.669V266.15c0-0.562,0.455-1.019,1.014-1.019h10.706
				v137.146H46.605 M46.605,402.277 M37.969,267.165v124.443c0.002,4.419,3.339,8.068,7.622,8.576v-133.02H37.969z"/>
		</g>
	</g>
</g>
</svg>
