<?xml version="1.0" encoding="utf-8"?>
<!-- Generator: Adobe Illustrator 15.0.2, SVG Export Plug-In . SVG Version: 6.00 Build 0)  -->
<!DOCTYPE svg PUBLIC "-//W3C//DTD SVG 1.1//EN" "http://www.w3.org/Graphics/SVG/1.1/DTD/svg11.dtd">
<svg version="1.1" id="Lager_1" xmlns="http://www.w3.org/2000/svg" xmlns:xlink="http://www.w3.org/1999/xlink" x="0px" y="0px"
	 width="308.754px" height="308.753px" viewBox="-98.386 37.885 308.754 308.753"
	 enable-background="new -98.386 37.885 308.754 308.753" xml:space="preserve">
<g>
	<g>
		
			<path fill="#C6C6C9" stroke="#C6C6C9" stroke-width="2.0316" stroke-linecap="round" stroke-linejoin="round" stroke-miterlimit="10" d="
			M201.321,72.626l-25.693-25.693c-10.71-10.71-28.074-10.709-38.783,0l-56.236,63.993c-10.711,10.711-10.71,28.072,0,38.782
			l4.08,4.08L-40.473,278.948c-2.699,2.704-2.699,7.075,0.001,9.774c2.701,2.702,7.076,2.699,9.774,0.001l125.16-125.162
			l4.083,4.084c10.71,10.709,28.071,10.712,38.783,0l63.993-56.237C212.03,100.699,212.031,83.337,201.321,72.626z M97.48,125.887
			c-1.867,1.867-4.906,1.865-6.772-0.001c-1.866-1.866-1.869-4.906-0.002-6.773l58.206-58.206c1.868-1.869,4.907-1.865,6.773,0.001
			c1.866,1.866,1.869,4.905,0.001,6.773L97.48,125.887z M112.665,141.072c-1.867,1.867-4.902,1.869-6.771,0
			c-1.868-1.868-1.866-4.903,0.001-6.771L164.1,76.096c1.868-1.869,4.903-1.87,6.771-0.002c1.869,1.87,1.868,4.904,0,6.772
			L112.665,141.072z M127.852,156.26c-1.867,1.867-4.903,1.868-6.771,0.001s-1.869-4.906-0.002-6.773l58.205-58.206
			c1.869-1.869,4.906-1.867,6.774,0.001c1.866,1.867,1.867,4.903-0.001,6.771L127.852,156.26z"/>
		
			<path fill="#B2B3B4" stroke="#B2B3B4" stroke-width="2.0316" stroke-linecap="round" stroke-linejoin="round" stroke-miterlimit="10" d="
			M105.893,141.072c-1.868-1.868-1.866-4.903,0.001-6.771L164.1,76.096c1.868-1.869,4.903-1.87,6.771-0.002
			c0.221,0.221,0.409,0.464,0.575,0.711l17.026-17.027l-12.845-12.845c-10.71-10.71-28.074-10.709-38.783,0l-56.236,63.993
			c-10.711,10.711-10.71,28.072,0,38.782l4.08,4.08L-40.473,278.948c-2.699,2.704-2.699,7.075,0.001,9.774l147.071-147.071
			C106.352,141.486,106.115,141.293,105.893,141.072z M97.48,125.887c-1.867,1.867-4.906,1.865-6.772-0.001
			c-1.866-1.866-1.869-4.906-0.002-6.773l58.206-58.206c1.868-1.869,4.907-1.865,6.773,0.001c1.866,1.866,1.869,4.905,0.001,6.773
			L97.48,125.887z"/>
		
			<path fill="#B08048" stroke="#B08048" stroke-width="2.0316" stroke-linecap="round" stroke-linejoin="round" stroke-miterlimit="10" d="
			M7.817,254.079l-88.708,88.716c-3.77,3.77-9.878,3.771-13.651-0.002c-3.771-3.771-3.771-9.875-0.002-13.65l88.712-88.713
			L7.817,254.079z"/>
		<g>
			<path fill="#905F37" d="M-94.542,342.794c-3.771-3.771-3.771-9.875-0.002-13.651l88.713-88.713l6.826,6.827L-94.542,342.794z"/>
			<path fill="#905F37" d="M-95.262,343.512c-4.156-4.156-4.154-10.926,0.001-15.088l88.712-88.712
				c0.398-0.397,1.043-0.399,1.438-0.004l7.571,7.571l-96.977,96.977L-95.262,343.512 M-5.829,241.867l-87.995,87.995
				c-3.124,3.126-3.344,8.066-0.675,11.453l94.06-94.06L-5.829,241.867L-5.829,241.867z"/>
		</g>
	</g>
</g>
</svg>
