<?xml version="1.0" encoding="utf-8"?>
<!-- Generator: Adobe Illustrator 15.0.2, SVG Export Plug-In . SVG Version: 6.00 Build 0)  -->
<!DOCTYPE svg PUBLIC "-//W3C//DTD SVG 1.1//EN" "http://www.w3.org/Graphics/SVG/1.1/DTD/svg11.dtd">
<svg version="1.1" id="Lager_1" xmlns="http://www.w3.org/2000/svg" xmlns:xlink="http://www.w3.org/1999/xlink" x="0px" y="0px"
	 width="299.093px" height="255.327px" viewBox="0 0 299.093 255.327" enable-background="new 0 0 299.093 255.327"
	 xml:space="preserve">
<polygon fill="#EDE0CC" stroke="#EDE0CC" stroke-width="0.7034" stroke-miterlimit="10" points="287.516,254.906 12.798,254.906 
	12.798,102.714 150.157,4.673 287.516,102.714 "/>
<line opacity="0.3" fill="none" stroke="#CABC9E" stroke-width="9.3467" stroke-miterlimit="10" enable-background="new    " x1="36.98" y1="85.453" x2="36.98" y2="254.906"/>
<line opacity="0.3" fill="none" stroke="#CABC9E" stroke-width="9.3467" stroke-miterlimit="10" enable-background="new    " x1="57.5" y1="69.487" x2="57.5" y2="254.906"/>
<line opacity="0.3" fill="none" stroke="#CABC9E" stroke-width="9.3467" stroke-miterlimit="10" enable-background="new    " x1="78.02" y1="48.505" x2="78.02" y2="254.906"/>
<line opacity="0.3" fill="none" stroke="#CABC9E" stroke-width="9.3467" stroke-miterlimit="10" enable-background="new    " x1="98.539" y1="41.518" x2="98.539" y2="254.906"/>
<line opacity="0.3" fill="none" stroke="#CABC9E" stroke-width="9.3467" stroke-miterlimit="10" enable-background="new    " x1="119.057" y1="24.598" x2="119.057" y2="254.906"/>
<line opacity="0.3" fill="none" stroke="#CABC9E" stroke-width="9.3467" stroke-miterlimit="10" enable-background="new    " x1="139.575" y1="12.042" x2="139.575" y2="254.906"/>
<line opacity="0.3" fill="none" stroke="#CABC9E" stroke-width="9.3467" stroke-miterlimit="10" enable-background="new    " x1="160.095" y1="14.882" x2="160.095" y2="254.906"/>
<line opacity="0.3" fill="none" stroke="#CABC9E" stroke-width="9.3467" stroke-miterlimit="10" enable-background="new    " x1="180.616" y1="27.205" x2="180.616" y2="254.906"/>
<line opacity="0.3" fill="none" stroke="#CABC9E" stroke-width="9.3467" stroke-miterlimit="10" enable-background="new    " x1="201.135" y1="42.764" x2="201.135" y2="254.906"/>
<line opacity="0.3" fill="none" stroke="#CABC9E" stroke-width="9.3467" stroke-miterlimit="10" enable-background="new    " x1="221.653" y1="57.195" x2="221.653" y2="254.906"/>
<line opacity="0.3" fill="none" stroke="#CABC9E" stroke-width="9.3467" stroke-miterlimit="10" enable-background="new    " x1="242.171" y1="72.409" x2="242.171" y2="254.906"/>
<line opacity="0.3" fill="none" stroke="#CABC9E" stroke-width="9.3467" stroke-miterlimit="10" enable-background="new    " x1="262.69" y1="84.994" x2="262.69" y2="254.906"/>
<polygon fill="#7A6A56" points="87.759,48.506 52.933,72.409 52.933,24.6 87.759,24.6 "/>
<rect x="196.183" y="135.819" fill="#FFFFFF" stroke="#FFFFFF" stroke-width="0.6781" stroke-linecap="round" stroke-linejoin="round" stroke-miterlimit="10" width="60.753" height="119.169"/>
<rect x="201.131" y="141.06" fill="#7A6A56" width="50.854" height="114.141"/>
<rect x="44.276" y="137.873" fill="#AECFDC" stroke="#F5F5F6" stroke-width="4.6733" stroke-miterlimit="10" width="22.228" height="28.436"/>
<rect x="66.502" y="137.873" fill="#AECFDC" stroke="#F5F5F6" stroke-width="4.6733" stroke-miterlimit="10" width="22.223" height="28.436"/>
<rect x="126.698" y="137.873" fill="#AECFDC" stroke="#F5F5F6" stroke-width="4.6733" stroke-miterlimit="10" width="22.227" height="28.436"/>
<rect x="148.924" y="137.873" fill="#AECFDC" stroke="#F5F5F6" stroke-width="4.6733" stroke-miterlimit="10" width="22.222" height="28.436"/>
<polygon fill="#F5F5F6" points="279.812,255.2 287.827,255.2 287.827,100.559 279.812,96.049 "/>
<polygon fill="#F5F5F6" points="19.838,255.2 11.825,255.2 11.825,100.559 19.838,96.049 "/>
<polyline fill="none" stroke="#614E41" stroke-width="9.3467" stroke-linecap="round" stroke-linejoin="round" stroke-miterlimit="10" points="
	4.518,107.182 148.597,4.673 294.264,107.182 "/>
<rect x="132.724" y="73.365" fill="#BEE3F6" stroke="#F5F5F6" stroke-width="3.1115" stroke-miterlimit="10" width="16.668" height="16.807"/>
<rect x="132.724" y="56.557" fill="#BEE3F6" stroke="#F5F5F6" stroke-width="3.1115" stroke-miterlimit="10" width="16.668" height="16.809"/>
<rect x="149.392" y="56.557" fill="#BEE3F6" stroke="#F5F5F6" stroke-width="3.1115" stroke-miterlimit="10" width="16.668" height="16.809"/>
<rect x="149.392" y="73.365" fill="#BEE3F6" stroke="#F5F5F6" stroke-width="3.1115" stroke-miterlimit="10" width="16.668" height="16.807"/>
<rect x="44.276" y="166.307" fill="#AECFDC" stroke="#F5F5F6" stroke-width="4.6733" stroke-miterlimit="10" width="22.228" height="28.438"/>
<rect x="66.502" y="166.307" fill="#AECFDC" stroke="#F5F5F6" stroke-width="4.6733" stroke-miterlimit="10" width="22.223" height="28.438"/>
<rect x="126.698" y="166.307" fill="#AECFDC" stroke="#F5F5F6" stroke-width="4.6733" stroke-miterlimit="10" width="22.227" height="28.438"/>
<rect x="148.924" y="166.307" fill="#AECFDC" stroke="#F5F5F6" stroke-width="4.6733" stroke-miterlimit="10" width="22.222" height="28.438"/>
</svg>
