<?xml version="1.0" encoding="utf-8"?>
<!-- Generator: Adobe Illustrator 15.0.2, SVG Export Plug-In . SVG Version: 6.00 Build 0)  -->
<!DOCTYPE svg PUBLIC "-//W3C//DTD SVG 1.1//EN" "http://www.w3.org/Graphics/SVG/1.1/DTD/svg11.dtd">
<svg version="1.1" xmlns="http://www.w3.org/2000/svg" xmlns:xlink="http://www.w3.org/1999/xlink" x="0px" y="0px"
	 width="275.463px" height="185.324px" viewBox="0 0 275.463 185.324" enable-background="new 0 0 275.463 185.324"
	 xml:space="preserve">
<g id="Lager_2" display="none">
	<rect x="-515.954" y="-307.8" display="inline" fill="#D3ECF9" width="1481.802" height="492.786"/>
</g>
<g id="Lager_1">
	<g>
		<path fill="none" stroke="#CA9E64" stroke-width="1.895" stroke-linecap="round" stroke-miterlimit="10" d="M105.717,116.119
			c0-1.203,0-64.377,0-64.377"/>
		<path fill="none" stroke="#CA9E64" stroke-width="1.895" stroke-linecap="round" stroke-miterlimit="10" d="M111.213,137.619
			c0-1.203,0-64.377,0-64.377"/>
		<path fill="none" stroke="#CA9E64" stroke-width="1.895" stroke-linecap="round" stroke-miterlimit="10" d="M116.463,127.369
			c0-1.203,0-64.377,0-64.377"/>
		<path fill="none" stroke="#CA9E64" stroke-width="1.895" stroke-linecap="round" stroke-miterlimit="10" d="M80.168,113.379
			c0-1.203,0-64.377,0-64.377"/>
		<path fill="none" stroke="#CA9E64" stroke-width="1.895" stroke-linecap="round" stroke-miterlimit="10" d="M85.418,103.129
			c0-1.203,0-64.377,0-64.377"/>
		<path fill="none" stroke="#CA9E64" stroke-width="1.895" stroke-linecap="round" stroke-miterlimit="10" d="M120.713,147.803
			c0-1.203,0-64.377,0-64.377"/>
		<path fill="none" stroke="#CA9E64" stroke-width="1.895" stroke-linecap="round" stroke-miterlimit="10" d="M235.724,129.812
			c0-1.203,0-64.377,0-64.377"/>
		<path fill="none" stroke="#CA9E64" stroke-width="1.895" stroke-linecap="round" stroke-miterlimit="10" d="M239.974,150.247
			c0-1.203,0-64.377,0-64.377"/>
		
			<path fill="#CA9E64" stroke="#CA9E64" stroke-width="0.7965" stroke-linecap="round" stroke-linejoin="round" stroke-miterlimit="10" d="
			M108.164,44.451c0,1.352-1.096,2.447-2.447,2.447l0,0c-1.351,0-2.447-1.095-2.447-2.447V25.302c0-1.351,1.096-2.447,2.447-2.447
			l0,0c1.351,0,2.447,1.096,2.447,2.447V44.451z"/>
		<g>
			<path fill="none" stroke="#CA9E64" stroke-width="1.895" stroke-linecap="round" stroke-miterlimit="10" d="M89.496,93.663
				c0-1.203,0-64.378,0-64.378"/>
			
				<path fill="#CA9E64" stroke="#CA9E64" stroke-width="0.7965" stroke-linecap="round" stroke-linejoin="round" stroke-miterlimit="10" d="
				M91.943,21.994c0,1.352-1.096,2.447-2.447,2.447l0,0c-1.351,0-2.447-1.095-2.447-2.447V2.845c0-1.351,1.096-2.447,2.447-2.447
				l0,0c1.351,0,2.447,1.096,2.447,2.447V21.994z"/>
		</g>
		<g>
			<path fill="none" stroke="#CA9E64" stroke-width="1.895" stroke-linecap="round" stroke-miterlimit="10" d="M244.553,119.138
				c0-1.203,0-64.376,0-64.376"/>
			
				<path fill="#CA9E64" stroke="#CA9E64" stroke-width="0.7965" stroke-linecap="round" stroke-linejoin="round" stroke-miterlimit="10" d="
				M242.105,47.471c0,1.352,1.096,2.447,2.447,2.447l0,0c1.352,0,2.447-1.095,2.447-2.447V28.322c0-1.351-1.096-2.447-2.447-2.447
				l0,0c-1.352,0-2.447,1.096-2.447,2.447V47.471z"/>
		</g>
		<g>
			<path fill="none" stroke="#CA9E64" stroke-width="1.895" stroke-linecap="round" stroke-miterlimit="10" d="M227.395,115.836
				c0-1.203,0-64.376,0-64.376"/>
			
				<path fill="#CA9E64" stroke="#CA9E64" stroke-width="0.7965" stroke-linecap="round" stroke-linejoin="round" stroke-miterlimit="10" d="
				M224.947,44.169c0,1.352,1.096,2.447,2.447,2.447l0,0c1.352,0,2.447-1.095,2.447-2.447V25.021c0-1.351-1.096-2.447-2.447-2.447
				l0,0c-1.352,0-2.447,1.096-2.447,2.447V44.169z"/>
		</g>
		<g>
			<path fill="none" stroke="#CA9E64" stroke-width="1.895" stroke-linecap="round" stroke-miterlimit="10" d="M256.062,101.394
				c0-1.203,0-64.378,0-64.378"/>
			
				<path fill="#CA9E64" stroke="#CA9E64" stroke-width="0.7965" stroke-linecap="round" stroke-linejoin="round" stroke-miterlimit="10" d="
				M253.615,29.725c0,1.352,1.096,2.447,2.447,2.447l0,0c1.351,0,2.446-1.095,2.446-2.447V10.577c0-1.351-1.096-2.447-2.446-2.447
				l0,0c-1.352,0-2.447,1.096-2.447,2.447V29.725z"/>
		</g>
		<circle fill="#B29A7D" cx="138.008" cy="25.338" r="5.294"/>
		<circle fill="#8D7D6C" cx="20.546" cy="69.232" r="4.673"/>
		<path fill="#8C6242" d="M38.893,121.338c0,10.744-8.703,19.453-19.447,19.453C8.705,140.792,0,132.083,0,121.338
			c0-10.734,8.705-19.444,19.445-19.444C30.189,101.894,38.893,110.604,38.893,121.338z"/>
		<path fill="#8C6242" d="M202.518,120.947c0,7.475-6.057,13.538-13.533,13.538c-7.473,0-13.535-6.063-13.535-13.538
			c0-7.471,6.062-13.534,13.535-13.534C196.461,107.413,202.518,113.476,202.518,120.947z"/>
		<path fill="#8C6242" d="M238.727,119.379c0,11.51-9.324,20.846-20.836,20.846c-11.504,0-20.836-9.336-20.836-20.846
			c0-11.502,9.332-20.837,20.836-20.837C229.402,98.542,238.727,107.877,238.727,119.379z"/>
		<path fill="#8C6242" d="M275.463,121.312c0,11.51-9.324,20.846-20.836,20.846c-11.504,0-20.836-9.336-20.836-20.846
			c0-11.502,9.332-20.837,20.836-20.837C266.139,100.475,275.463,109.81,275.463,121.312z"/>
		<rect y="120.949" fill="#8C6242" width="275.463" height="64.375"/>
		<path fill="#8C6242" d="M123.721,115.611c0,7.477-6.057,13.54-13.533,13.54c-7.471,0-13.533-6.063-13.533-13.54
			c0-7.471,6.062-13.532,13.533-13.532C117.664,102.079,123.721,108.14,123.721,115.611z"/>
		<path fill="#8C6242" d="M100.055,115.614c0,19.239-15.6,34.836-34.836,34.836c-19.24,0-34.836-15.597-34.836-34.836
			c0-19.238,15.596-34.837,34.836-34.837C84.455,80.777,100.055,96.375,100.055,115.614z"/>
		<path fill="#8C6242" d="M183.729,131.515c0,19.238-15.596,34.837-34.838,34.837c-19.236,0-34.834-15.599-34.834-34.837
			c0-19.237,15.598-34.835,34.834-34.835C168.133,96.68,183.729,112.278,183.729,131.515z"/>
		<circle fill="#B29A7D" cx="47.742" cy="47.691" r="14.17"/>
		<circle fill="#B29A7D" cx="183.729" cy="34.255" r="20.748"/>
		<circle fill="#8D7D6C" cx="204.476" cy="81.747" r="10.359"/>
		<circle fill="#8D7D6C" cx="147.463" cy="58.063" r="10.884"/>
	</g>
</g>
</svg>
