<?xml version="1.0" encoding="utf-8"?>
<!-- Generator: Adobe Illustrator 17.0.0, SVG Export Plug-In . SVG Version: 6.00 Build 0)  -->
<!DOCTYPE svg PUBLIC "-//W3C//DTD SVG 1.1//EN" "http://www.w3.org/Graphics/SVG/1.1/DTD/svg11.dtd">
<svg version="1.1" id="Layer_1" xmlns="http://www.w3.org/2000/svg" xmlns:xlink="http://www.w3.org/1999/xlink" x="0px" y="0px"
	 width="462.568px" height="372.29px" viewBox="0 0 462.568 372.29" enable-background="new 0 0 462.568 372.29"
	 xml:space="preserve">
<circle fill="#FFFFFF" stroke="#FFFFFF" stroke-miterlimit="10" cx="234.052" cy="186.145" r="185.645"/>
<path fill="#FAFAFA" stroke="#FAFAFA" stroke-miterlimit="10" d="M234.053,371.79c-102.529,0-185.645-83.117-185.645-185.646
	S131.524,0.5,234.053,0.5V371.79z"/>
<circle fill="#F6F6F6" stroke="#F6F6F6" stroke-width="0.812" stroke-miterlimit="10" cx="234.052" cy="186.146" r="150.747"/>
<path fill="#F0F0F0" stroke="#F0F0F0" stroke-width="0.812" stroke-miterlimit="10" d="M234.053,336.893
	c-83.255,0-150.748-67.493-150.748-150.747c0-83.257,67.492-150.748,150.748-150.748V336.893z"/>
<g>
	<path fill="#F0F0F0" stroke="#F0F0F0" stroke-linecap="round" stroke-linejoin="round" stroke-miterlimit="10" d="M30.166,326.059"
		/>
	<path fill="#DADADA" stroke="#DADADA" stroke-linecap="round" stroke-linejoin="round" stroke-miterlimit="10" d="M36.583,42.788
		c-1.428,0-2.584,1.157-2.584,2.583v40.552h-5.5V45.372c0-1.427-1.156-2.583-2.583-2.583c-1.428,0-2.584,1.157-2.584,2.583v40.552
		h-6.499V45.372c0-1.427-1.156-2.583-2.583-2.583c-1.428,0-2.584,1.157-2.584,2.583v40.552H5.667V45.372
		c0-1.427-1.156-2.583-2.583-2.583c-1.428,0-2.584,1.157-2.584,2.583v40.552v0.781v28.592c0,6.872,3.597,12.892,9,16.32v194.442
		c0,5.707,4.626,10.334,10.333,10.334s10.333-4.627,10.333-10.334V131.617c5.403-3.429,9-9.448,9-16.32V86.705v-0.781V45.372
		C39.166,43.945,38.01,42.788,36.583,42.788z"/>
	<path fill="#DADADA" stroke="#DADADA" stroke-linecap="round" stroke-linejoin="round" stroke-miterlimit="10" d="M39.166,85.924"
		/>
	<g>
		<path fill="#BEBEBE" d="M19.833,336.393c-5.707,0-10.333-4.627-10.333-10.334V131.617c-5.403-3.429-9-9.448-9-16.32V86.705v-0.781
			V45.372c0-1.427,1.156-2.583,2.584-2.583c1.427,0,2.583,1.157,2.583,2.583v40.552h5.999V45.372c0-1.427,1.156-2.583,2.584-2.583
			c1.427,0,2.583,1.157,2.583,2.583v40.552h3V336.393z"/>
		<path fill="#BEBEBE" d="M20.333,85.924v250.469c0,0.275-0.224,0.5-0.5,0.5C13.86,336.893,9,332.033,9,326.059V131.889
			c-5.641-3.688-9-9.869-9-16.593V45.372c0-1.7,1.383-3.083,3.084-3.083c1.7,0,3.083,1.383,3.083,3.083v40.052h4.999V45.372
			c0-1.7,1.383-3.083,3.084-3.083c1.7,0,3.083,1.383,3.083,3.083v40.052h3V85.924z M3.084,43.288C1.935,43.288,1,44.223,1,45.372
			v69.925c0,6.471,3.278,12.414,8.768,15.898c0.144,0.092,0.232,0.251,0.232,0.422v194.442c0,5.254,4.143,9.559,9.333,9.82V86.424
			h-2.5c-0.276,0-0.5-0.224-0.5-0.5V45.372c0-1.149-0.935-2.083-2.083-2.083c-1.149,0-2.084,0.935-2.084,2.083v40.552
			c0,0.276-0.224,0.5-0.5,0.5H5.667c-0.276,0-0.5-0.224-0.5-0.5V45.372C5.167,44.223,4.232,43.288,3.084,43.288z"/>
	</g>
</g>
<line fill="#F0F0F0" stroke="#F0F0F0" stroke-linecap="round" stroke-linejoin="round" stroke-miterlimit="10" x1="447.068" y1="332.671" x2="447.068" y2="159.629"/>
<path fill="#DADADA" stroke="#DADADA" stroke-linecap="round" stroke-linejoin="round" stroke-miterlimit="10" d="M447.068,161.723
	v170.948c0,5.707-4.626,10.333-10.333,10.333s-10.333-4.626-10.333-10.333V39.619c0-5.707,4.626-10.333,10.333-10.333
	c0.417,0,0.826,0.032,1.229,0.08c0.076,0.01,0.151,0.024,0.227,0.035c0.358,0.051,0.709,0.12,1.055,0.206
	c0.051,0.013,0.101,0.025,0.151,0.039c0.382,0.102,0.757,0.222,1.12,0.365c0.036,0.014,0.072,0.025,0.108,0.04
	c0.221,0.089,0.434,0.191,0.646,0.296c11.825,5.488,20.797,32.017,20.797,63.94c0,25.757-5.094,52.437-13.436,63.401
	C448.632,157.687,447.068,159.629,447.068,161.723z"/>
<g>
	<path fill="#BEBEBE" d="M436.735,343.004c-5.707,0-10.333-4.626-10.333-10.333V39.619c0-5.707,4.626-10.333,10.333-10.333V343.004z
		"/>
	<path fill="#BEBEBE" d="M437.235,29.286v313.718c0,0.276-0.224,0.5-0.5,0.5c-5.974,0-10.833-4.859-10.833-10.833V39.619
		c0-5.973,4.859-10.833,10.833-10.833h0.5V29.286z M436.235,29.799c-5.19,0.261-9.333,4.566-9.333,9.82v293.052
		c0,5.254,4.143,9.559,9.333,9.82V29.799z"/>
</g>
</svg>
