<?xml version="1.0" encoding="utf-8"?>
<!-- Generator: Adobe Illustrator 15.0.2, SVG Export Plug-In . SVG Version: 6.00 Build 0)  -->
<!DOCTYPE svg PUBLIC "-//W3C//DTD SVG 1.1//EN" "http://www.w3.org/Graphics/SVG/1.1/DTD/svg11.dtd">
<svg version="1.1" id="Lager_1" xmlns="http://www.w3.org/2000/svg" xmlns:xlink="http://www.w3.org/1999/xlink" x="0px" y="0px"
	 width="178.164px" height="234.461px" viewBox="0 0 178.164 234.461" enable-background="new 0 0 178.164 234.461"
	 xml:space="preserve">
<g>
	<path fill="#F5F5F6" stroke="#F5F5F6" stroke-width="1.7104" stroke-miterlimit="10" d="M7.176,57.573H0.904V28.867
		c0-12.909,10.504-23.41,23.412-23.41v6.271c-9.451,0-17.141,7.688-17.141,17.141L7.176,57.573L7.176,57.573z"/>
	
		<rect x="44.16" y="2.3" fill="#E84F3F" stroke="#E84F3F" stroke-width="4.5955" stroke-linecap="round" stroke-linejoin="round" stroke-miterlimit="10" width="118.966" height="218.503"/>
	
		<rect x="31.42" y="220.803" fill="#5B5A5C" stroke="#5B5A5C" stroke-width="4.5955" stroke-linecap="round" stroke-linejoin="round" stroke-miterlimit="10" width="144.445" height="11.36"/>
	<g>
		<path fill="#BF3B29" d="M103.645,0h59.483c1.271,0,2.297,1.029,2.297,2.3v216.155h-61.78V2.3"/>
	</g>
	<path fill="none" stroke="#717173" stroke-width="9.191" stroke-linejoin="round" stroke-miterlimit="10" d="M41.9,94.046H31.047
		v91.253v-0.824c0,6.838-5.545,12.383-12.383,12.383h-1.66c-6.842,0-12.381-5.545-12.381-12.383V82.86"/>
	<path fill="#3F3E40" stroke="#3F3E40" stroke-width="0.8552" stroke-miterlimit="10" d="M0.428,51.422v29.784v3.044h9.854h1.123
		h0.182c7.545,0,13.457-5.654,13.457-12.878v-12.53v-4.237v-3.216c0-1.686-1.363-3.046-3.045-3.046H0.428V51.422z M20.029,59.396
		v11.977c0,4.184-3.348,7.465-7.73,7.802H9.074V59.361L20.029,59.396z"/>
</g>
</svg>
