<?xml version="1.0" encoding="utf-8"?>
<!-- Generator: Adobe Illustrator 15.0.2, SVG Export Plug-In . SVG Version: 6.00 Build 0)  -->
<!DOCTYPE svg PUBLIC "-//W3C//DTD SVG 1.1//EN" "http://www.w3.org/Graphics/SVG/1.1/DTD/svg11.dtd">
<svg version="1.1" id="Lager_1" xmlns="http://www.w3.org/2000/svg" xmlns:xlink="http://www.w3.org/1999/xlink" x="0px" y="0px"
	 width="155.828px" height="178.074px" viewBox="0 0 155.828 178.074" enable-background="new 0 0 155.828 178.074"
	 xml:space="preserve">
<g>
	<g>
		<path fill="#FFD142" d="M122.755,69.916c0,0-30.748,20.024-9.571,46.881c0,0-36.271-7.409-39.92,26.385
			c0,0-16.814-29.23-46.88-9.57c0,0,10.428-31.51-26.384-39.917c0,0,30.003-17.546,9.571-46.885c0,0,34.875,8.051,39.919-26.384
			c0,0,18.069,29.389,46.879,9.572C96.37,29.998,88.829,64.111,122.755,69.916z"/>
		<path fill="#FFE161" d="M92.364,106.99c-13.908,17.112-39.058,19.712-56.171,5.802C19.076,98.88,16.481,73.731,30.392,56.618
			c13.906-17.112,39.055-19.711,56.169-5.801C103.676,64.728,106.274,89.877,92.364,106.99z"/>
	</g>
	<path id="favorite-2-icon" fill="#D73A38" d="M155.156,51.04c-2.409-4.928-9.728-4.547-11.59-0.253
		c-1.862-4.294-9.18-4.675-11.59,0.253c-2.84,5.811,3.75,11.346,11.59,19.273C151.404,62.386,157.994,56.851,155.156,51.04z"/>
	<path id="favorite-2-icon_3_" fill="#D73A38" d="M33.035,151.901c-2.409-4.928-9.728-4.547-11.59-0.253
		c-1.862-4.294-9.18-4.675-11.59,0.253c-2.84,5.811,3.75,11.346,11.59,19.273C29.283,163.247,35.873,157.711,33.035,151.901z"/>
	<path id="favorite-2-icon_1_" fill="#D73A38" d="M146.386,6.407c-4.305-8.808-17.385-8.126-20.713-0.452
		c-3.328-7.674-16.405-8.355-20.713,0.452c-5.075,10.385,6.702,20.278,20.713,34.445C139.681,26.685,151.458,16.792,146.386,6.407z"
		/>
	<g>
		<g>
			
				<line fill="none" stroke="#FFFFFF" stroke-width="8.2915" stroke-linecap="round" stroke-miterlimit="10" x1="101.027" y1="58.884" x2="101.027" y2="116.406"/>
			
				<line fill="none" stroke="#FFFFFF" stroke-width="8.2915" stroke-linecap="round" stroke-miterlimit="10" x1="87.24" y1="73.066" x2="101.027" y2="88.436"/>
			
				<line fill="none" stroke="#FFFFFF" stroke-width="8.2915" stroke-linecap="round" stroke-miterlimit="10" x1="114.829" y1="73.066" x2="101.027" y2="88.436"/>
		</g>
		<g>
			
				<line fill="none" stroke="#FFFFFF" stroke-width="8.2915" stroke-linecap="round" stroke-miterlimit="10" x1="101.027" y1="173.928" x2="101.027" y2="116.406"/>
			
				<line fill="none" stroke="#FFFFFF" stroke-width="8.2915" stroke-linecap="round" stroke-miterlimit="10" x1="114.829" y1="159.746" x2="101.027" y2="144.375"/>
			
				<line fill="none" stroke="#FFFFFF" stroke-width="8.2915" stroke-linecap="round" stroke-miterlimit="10" x1="87.24" y1="159.746" x2="101.027" y2="144.375"/>
		</g>
		<g>
			
				<line fill="none" stroke="#FFFFFF" stroke-width="8.2915" stroke-linecap="round" stroke-miterlimit="10" x1="150.483" y1="86.779" x2="100.667" y2="115.532"/>
			
				<line fill="none" stroke="#FFFFFF" stroke-width="8.2915" stroke-linecap="round" stroke-miterlimit="10" x1="145.075" y1="105.8" x2="124.881" y2="101.551"/>
			
				<line fill="none" stroke="#FFFFFF" stroke-width="8.2915" stroke-linecap="round" stroke-miterlimit="10" x1="131.303" y1="81.923" x2="124.881" y2="101.551"/>
		</g>
		<g>
			
				<line fill="none" stroke="#FFFFFF" stroke-width="8.2915" stroke-linecap="round" stroke-miterlimit="10" x1="52.048" y1="86.763" x2="101.864" y2="115.524"/>
			
				<line fill="none" stroke="#FFFFFF" stroke-width="8.2915" stroke-linecap="round" stroke-miterlimit="10" x1="57.441" y1="105.8" x2="77.635" y2="101.551"/>
			
				<line fill="none" stroke="#FFFFFF" stroke-width="8.2915" stroke-linecap="round" stroke-miterlimit="10" x1="71.229" y1="81.916" x2="77.635" y2="101.551"/>
		</g>
		<g>
			
				<line fill="none" stroke="#FFFFFF" stroke-width="8.2915" stroke-linecap="round" stroke-miterlimit="10" x1="52.048" y1="144.292" x2="101.864" y2="115.532"/>
			
				<line fill="none" stroke="#FFFFFF" stroke-width="8.2915" stroke-linecap="round" stroke-miterlimit="10" x1="71.229" y1="149.14" x2="77.635" y2="129.512"/>
			
				<line fill="none" stroke="#FFFFFF" stroke-width="8.2915" stroke-linecap="round" stroke-miterlimit="10" x1="57.441" y1="125.256" x2="77.635" y2="129.512"/>
		</g>
		<g>
			
				<line fill="none" stroke="#FFFFFF" stroke-width="8.2915" stroke-linecap="round" stroke-miterlimit="10" x1="150.571" y1="144.292" x2="100.773" y2="115.524"/>
			
				<line fill="none" stroke="#FFFFFF" stroke-width="8.2915" stroke-linecap="round" stroke-miterlimit="10" x1="131.409" y1="149.14" x2="125" y2="129.512"/>
			
				<line fill="none" stroke="#FFFFFF" stroke-width="8.2915" stroke-linecap="round" stroke-miterlimit="10" x1="145.196" y1="125.256" x2="125" y2="129.512"/>
		</g>
	</g>
</g>
</svg>
