<?xml version="1.0" encoding="utf-8"?>
<!-- Generator: Adobe Illustrator 15.0.2, SVG Export Plug-In . SVG Version: 6.00 Build 0)  -->
<!DOCTYPE svg PUBLIC "-//W3C//DTD SVG 1.1//EN" "http://www.w3.org/Graphics/SVG/1.1/DTD/svg11.dtd">
<svg version="1.1" id="Lager_1" xmlns="http://www.w3.org/2000/svg" xmlns:xlink="http://www.w3.org/1999/xlink" x="0px" y="0px"
	 width="127.617px" height="236.5px" viewBox="0 0 127.617 236.5" enable-background="new 0 0 127.617 236.5" xml:space="preserve">
<g>
	<path fill="#E94B3D" d="M59.828,107.193l-7.326,6.64v9.714c0,2.642-2.145,4.787-4.787,4.787H4.788
		c-2.644,0-4.788-2.146-4.788-4.787V90.84c0-2.644,2.145-4.787,4.788-4.787h42.927c2.643,0,4.787,2.143,4.787,4.787v9.056
		L59.828,107.193z"/>
	<g>
		<path fill="#FFFFFF" d="M44.142,105.22c-0.543,0.537-1.203,0.804-1.984,0.804c-0.778,0-1.439-0.271-1.982-0.814
			c-0.542-0.543-0.813-1.211-0.813-2.004c0-0.792,0.271-1.454,0.813-1.983c0.543-0.528,1.207-0.792,1.994-0.792
			c0.786,0,1.447,0.264,1.982,0.792c0.535,0.529,0.804,1.193,0.804,1.994S44.684,104.685,44.142,105.22z M44.183,103.175
			c0-0.577-0.191-1.051-0.573-1.419c-0.383-0.369-0.862-0.553-1.44-0.553s-1.062,0.188-1.451,0.563
			c-0.389,0.376-0.584,0.845-0.584,1.409c0,0.563,0.19,1.051,0.574,1.461c0.383,0.411,0.872,0.615,1.472,0.615
			c0.598,0,1.081-0.201,1.45-0.605C43.999,104.243,44.183,103.752,44.183,103.175z"/>
	</g>
	<g>
		<path fill="#FFFFFF" d="M18.083,108.551h-3.336v3.42h-0.771v-3.42h-3.358v-0.773h3.358v-3.274h0.771v3.274h3.336V108.551z"/>
		<g>
			<path fill="#FFFFFF" d="M24.26,115.217h-0.788v-13.358l-3.111,1.41V102.5l3.899-1.804V115.217z"/>
			<path fill="#FFFFFF" d="M36.188,108.081c0,2.282-0.387,4.035-1.161,5.259c-0.775,1.224-1.898,1.835-3.371,1.835
				c-1.473,0-2.635-0.621-3.485-1.866c-0.851-1.245-1.276-3.011-1.276-5.3c0-2.29,0.416-4.045,1.245-5.269
				c0.83-1.224,2.012-1.837,3.547-1.837C34.688,100.902,36.188,103.296,36.188,108.081z M35.42,107.738
				c0-1.915-0.321-3.398-0.965-4.45c-0.643-1.05-1.58-1.575-2.811-1.575c-1.231,0-2.202,0.524-2.915,1.575
				c-0.712,1.052-1.068,2.628-1.068,4.73c0,2.461,0.56,4.266,1.68,5.414c0.623,0.637,1.334,0.954,2.137,0.954
				c0.802,0,1.458-0.179,1.97-0.539c0.512-0.359,0.906-0.851,1.183-1.473C35.158,111.199,35.42,109.654,35.42,107.738z"/>
		</g>
	</g>
	<g>
		
			<line fill="none" stroke="#706F6F" stroke-width="1.1143" stroke-linecap="round" stroke-miterlimit="10" x1="87.201" y1="201.108" x2="76.127" y2="201.108"/>
		<path fill="#FFFFFF" d="M127.617,219.528c0,9.374-7.599,16.972-16.973,16.972H84.116c-9.372,0-16.971-7.598-16.971-16.972V16.972
			C67.146,7.599,74.744,0,84.116,0h26.528c9.374,0,16.973,7.599,16.973,16.972V219.528z"/>
		<g>
			<path fill="#FFFFFF" d="M102.769,201.126V24.729c0-2.975-2.412-5.386-5.386-5.386c-2.975,0-5.386,2.411-5.386,5.386v176.397
				c-3.696,1.94-6.222,5.812-6.222,10.276c0,6.41,5.196,11.605,11.607,11.605c6.409,0,11.604-5.195,11.604-11.605
				C108.987,206.938,106.465,203.066,102.769,201.126z"/>
			<path fill="#E4F4FE" d="M97.383,220.223c-4.863,0-8.82-3.957-8.82-8.82c0-3.284,1.812-6.277,4.729-7.81l1.49-0.783V24.729
				c0-1.435,1.167-2.6,2.601-2.6s2.6,1.166,2.6,2.6V202.81l1.489,0.783c2.919,1.532,4.73,4.525,4.73,7.81
				C106.202,216.266,102.246,220.223,97.383,220.223z"/>
			<path fill="#E94B3D" d="M99.982,107.194v95.615l1.489,0.783c2.919,1.532,4.73,4.525,4.73,7.81c0,4.863-3.956,8.82-8.819,8.82
				s-8.82-3.957-8.82-8.82c0-3.284,1.812-6.277,4.729-7.81l1.49-0.783v-95.615H99.982z"/>
		</g>
		
			<line fill="none" stroke="#706F6F" stroke-width="0.9389" stroke-linecap="round" stroke-miterlimit="10" x1="87.201" y1="127.341" x2="76.245" y2="127.341"/>
		
			<line fill="none" stroke="#706F6F" stroke-width="0.4695" stroke-linecap="round" stroke-miterlimit="10" x1="87.201" y1="131.03" x2="82.043" y2="131.03"/>
		
			<line fill="none" stroke="#706F6F" stroke-width="0.4695" stroke-linecap="round" stroke-miterlimit="10" x1="87.201" y1="134.718" x2="82.043" y2="134.718"/>
		
			<line fill="none" stroke="#706F6F" stroke-width="0.4695" stroke-linecap="round" stroke-miterlimit="10" x1="87.201" y1="138.407" x2="82.043" y2="138.407"/>
		
			<line fill="none" stroke="#706F6F" stroke-width="0.4695" stroke-linecap="round" stroke-miterlimit="10" x1="87.201" y1="142.095" x2="82.043" y2="142.095"/>
		
			<line fill="none" stroke="#706F6F" stroke-width="0.9389" stroke-linecap="round" stroke-miterlimit="10" x1="87.201" y1="145.783" x2="79.338" y2="145.783"/>
		
			<line fill="none" stroke="#706F6F" stroke-width="0.4695" stroke-linecap="round" stroke-miterlimit="10" x1="87.201" y1="149.471" x2="82.043" y2="149.471"/>
		
			<line fill="none" stroke="#706F6F" stroke-width="0.4695" stroke-linecap="round" stroke-miterlimit="10" x1="87.201" y1="153.16" x2="82.043" y2="153.16"/>
		
			<line fill="none" stroke="#706F6F" stroke-width="0.4695" stroke-linecap="round" stroke-miterlimit="10" x1="87.201" y1="156.848" x2="82.043" y2="156.848"/>
		
			<line fill="none" stroke="#706F6F" stroke-width="0.4695" stroke-linecap="round" stroke-miterlimit="10" x1="87.201" y1="160.537" x2="82.043" y2="160.537"/>
		
			<line fill="none" stroke="#706F6F" stroke-width="0.9389" stroke-linecap="round" stroke-miterlimit="10" x1="87.201" y1="164.225" x2="79.338" y2="164.225"/>
		
			<line fill="none" stroke="#706F6F" stroke-width="0.4695" stroke-linecap="round" stroke-miterlimit="10" x1="87.201" y1="167.912" x2="82.043" y2="167.912"/>
		
			<line fill="none" stroke="#706F6F" stroke-width="0.4695" stroke-linecap="round" stroke-miterlimit="10" x1="87.201" y1="171.601" x2="82.043" y2="171.601"/>
		
			<line fill="none" stroke="#706F6F" stroke-width="0.4695" stroke-linecap="round" stroke-miterlimit="10" x1="87.201" y1="175.289" x2="82.043" y2="175.289"/>
		
			<line fill="none" stroke="#706F6F" stroke-width="0.4695" stroke-linecap="round" stroke-miterlimit="10" x1="87.201" y1="178.979" x2="82.043" y2="178.979"/>
		
			<line fill="none" stroke="#706F6F" stroke-width="0.9389" stroke-linecap="round" stroke-miterlimit="10" x1="87.201" y1="182.665" x2="79.338" y2="182.665"/>
		
			<line fill="none" stroke="#706F6F" stroke-width="0.4695" stroke-linecap="round" stroke-miterlimit="10" x1="87.201" y1="186.354" x2="82.043" y2="186.354"/>
		
			<line fill="none" stroke="#706F6F" stroke-width="0.4695" stroke-linecap="round" stroke-miterlimit="10" x1="87.201" y1="190.042" x2="82.043" y2="190.042"/>
		
			<line fill="none" stroke="#706F6F" stroke-width="0.4695" stroke-linecap="round" stroke-miterlimit="10" x1="87.201" y1="193.73" x2="82.043" y2="193.73"/>
		
			<line fill="none" stroke="#706F6F" stroke-width="0.4695" stroke-linecap="round" stroke-miterlimit="10" x1="87.201" y1="197.419" x2="82.043" y2="197.419"/>
		
			<line fill="none" stroke="#706F6F" stroke-width="0.9389" stroke-linecap="round" stroke-miterlimit="10" x1="87.201" y1="53.327" x2="79.338" y2="53.327"/>
		
			<line fill="none" stroke="#706F6F" stroke-width="0.4695" stroke-linecap="round" stroke-miterlimit="10" x1="87.201" y1="57.015" x2="82.043" y2="57.015"/>
		
			<line fill="none" stroke="#706F6F" stroke-width="0.4695" stroke-linecap="round" stroke-miterlimit="10" x1="87.201" y1="60.703" x2="82.043" y2="60.703"/>
		
			<line fill="none" stroke="#706F6F" stroke-width="0.4695" stroke-linecap="round" stroke-miterlimit="10" x1="87.201" y1="64.392" x2="82.043" y2="64.392"/>
		
			<line fill="none" stroke="#706F6F" stroke-width="0.4695" stroke-linecap="round" stroke-miterlimit="10" x1="87.201" y1="68.08" x2="82.043" y2="68.08"/>
		
			<line fill="none" stroke="#706F6F" stroke-width="0.9389" stroke-linecap="round" stroke-miterlimit="10" x1="87.201" y1="34.958" x2="79.338" y2="34.958"/>
		
			<line fill="none" stroke="#706F6F" stroke-width="0.4695" stroke-linecap="round" stroke-miterlimit="10" x1="87.201" y1="38.647" x2="82.043" y2="38.647"/>
		
			<line fill="none" stroke="#706F6F" stroke-width="0.4695" stroke-linecap="round" stroke-miterlimit="10" x1="87.201" y1="42.335" x2="82.043" y2="42.335"/>
		
			<line fill="none" stroke="#706F6F" stroke-width="0.4695" stroke-linecap="round" stroke-miterlimit="10" x1="87.201" y1="46.023" x2="82.043" y2="46.023"/>
		
			<line fill="none" stroke="#706F6F" stroke-width="0.4695" stroke-linecap="round" stroke-miterlimit="10" x1="87.201" y1="49.711" x2="82.043" y2="49.711"/>
		
			<line fill="none" stroke="#706F6F" stroke-width="0.9389" stroke-linecap="round" stroke-miterlimit="10" x1="87.201" y1="71.768" x2="79.338" y2="71.768"/>
		
			<line fill="none" stroke="#706F6F" stroke-width="0.4695" stroke-linecap="round" stroke-miterlimit="10" x1="87.201" y1="75.456" x2="82.043" y2="75.456"/>
		
			<line fill="none" stroke="#706F6F" stroke-width="0.4695" stroke-linecap="round" stroke-miterlimit="10" x1="87.201" y1="79.145" x2="82.043" y2="79.145"/>
		
			<line fill="none" stroke="#706F6F" stroke-width="0.4695" stroke-linecap="round" stroke-miterlimit="10" x1="87.201" y1="82.833" x2="82.043" y2="82.833"/>
		
			<line fill="none" stroke="#706F6F" stroke-width="0.4695" stroke-linecap="round" stroke-miterlimit="10" x1="87.201" y1="86.521" x2="82.043" y2="86.521"/>
		
			<line fill="none" stroke="#706F6F" stroke-width="0.9389" stroke-linecap="round" stroke-miterlimit="10" x1="87.201" y1="90.209" x2="79.338" y2="90.209"/>
		
			<line fill="none" stroke="#706F6F" stroke-width="0.4695" stroke-linecap="round" stroke-miterlimit="10" x1="87.201" y1="93.898" x2="82.043" y2="93.898"/>
		
			<line fill="none" stroke="#706F6F" stroke-width="0.4695" stroke-linecap="round" stroke-miterlimit="10" x1="87.201" y1="97.586" x2="82.043" y2="97.586"/>
		
			<line fill="none" stroke="#706F6F" stroke-width="0.4695" stroke-linecap="round" stroke-miterlimit="10" x1="87.201" y1="101.275" x2="82.043" y2="101.275"/>
		
			<line fill="none" stroke="#706F6F" stroke-width="0.4695" stroke-linecap="round" stroke-miterlimit="10" x1="87.201" y1="104.963" x2="82.043" y2="104.963"/>
		
			<line fill="none" stroke="#706F6F" stroke-width="0.9389" stroke-linecap="round" stroke-miterlimit="10" x1="87.201" y1="108.651" x2="79.338" y2="108.651"/>
		
			<line fill="none" stroke="#706F6F" stroke-width="0.4695" stroke-linecap="round" stroke-miterlimit="10" x1="87.201" y1="112.339" x2="82.043" y2="112.339"/>
		
			<line fill="none" stroke="#706F6F" stroke-width="0.4695" stroke-linecap="round" stroke-miterlimit="10" x1="87.201" y1="116.026" x2="82.043" y2="116.026"/>
		
			<line fill="none" stroke="#706F6F" stroke-width="0.4695" stroke-linecap="round" stroke-miterlimit="10" x1="87.201" y1="119.717" x2="82.043" y2="119.717"/>
		
			<line fill="none" stroke="#706F6F" stroke-width="0.4695" stroke-linecap="round" stroke-miterlimit="10" x1="87.201" y1="123.404" x2="82.043" y2="123.404"/>
	</g>
</g>
</svg>
