<?xml version="1.0" encoding="utf-8"?>
<!-- Generator: Adobe Illustrator 15.0.2, SVG Export Plug-In . SVG Version: 6.00 Build 0)  -->
<!DOCTYPE svg PUBLIC "-//W3C//DTD SVG 1.1//EN" "http://www.w3.org/Graphics/SVG/1.1/DTD/svg11.dtd">
<svg version="1.1" id="Lager_1" xmlns="http://www.w3.org/2000/svg" xmlns:xlink="http://www.w3.org/1999/xlink" x="0px" y="0px"
	 width="126.206px" height="213.5px" viewBox="0 0 126.206 213.5" enable-background="new 0 0 126.206 213.5" xml:space="preserve">
<g>
	
		<line fill="none" stroke="#706F6F" stroke-width="1.0059" stroke-linecap="round" stroke-miterlimit="10" x1="89.721" y1="178.883" x2="79.723" y2="178.883"/>
	<path fill="#F6F6F6" d="M126.206,198.179c0,8.462-6.859,15.321-15.321,15.321H86.936c-8.461,0-15.32-6.859-15.32-15.321V15.321
		C71.615,6.859,78.475,0,86.936,0h23.949c8.462,0,15.321,6.859,15.321,15.321V198.179z"/>
	<g>
		<path fill="#FFFFFF" d="M103.773,178.899V19.657c0-2.686-2.177-4.862-4.861-4.862c-2.686,0-4.862,2.177-4.862,4.862v159.242
			c-3.337,1.752-5.616,5.246-5.616,9.276c0,5.787,4.691,10.478,10.479,10.478c5.786,0,10.477-4.69,10.477-10.478
			C109.389,184.146,107.11,180.651,103.773,178.899z"/>
		<path fill="#FFFFFF" d="M98.912,196.139c-4.391,0-7.963-3.572-7.963-7.963c0-2.965,1.636-5.667,4.27-7.05l1.346-0.707V19.657
			c0-1.295,1.053-2.348,2.348-2.348c1.294,0,2.347,1.053,2.347,2.348v160.762l1.345,0.707c2.635,1.383,4.271,4.085,4.271,7.05
			C106.874,192.566,103.303,196.139,98.912,196.139z"/>
		<path fill="#E94B3D" d="M101.259,94.103v86.316l1.345,0.707c2.635,1.383,4.271,4.085,4.271,7.05c0,4.391-3.571,7.963-7.962,7.963
			s-7.963-3.572-7.963-7.963c0-2.965,1.636-5.667,4.27-7.05l1.346-0.707V94.103H101.259z"/>
	</g>
	
		<line fill="none" stroke="#706F6F" stroke-width="0.8476" stroke-linecap="round" stroke-miterlimit="10" x1="89.721" y1="112.29" x2="79.83" y2="112.29"/>
	
		<line fill="none" stroke="#706F6F" stroke-width="0.4238" stroke-linecap="round" stroke-miterlimit="10" x1="89.721" y1="115.62" x2="85.064" y2="115.62"/>
	
		<line fill="none" stroke="#706F6F" stroke-width="0.4238" stroke-linecap="round" stroke-miterlimit="10" x1="89.721" y1="118.949" x2="85.064" y2="118.949"/>
	
		<line fill="none" stroke="#706F6F" stroke-width="0.4238" stroke-linecap="round" stroke-miterlimit="10" x1="89.721" y1="122.279" x2="85.064" y2="122.279"/>
	
		<line fill="none" stroke="#706F6F" stroke-width="0.4238" stroke-linecap="round" stroke-miterlimit="10" x1="89.721" y1="125.609" x2="85.064" y2="125.609"/>
	
		<line fill="none" stroke="#706F6F" stroke-width="0.8476" stroke-linecap="round" stroke-miterlimit="10" x1="89.721" y1="128.938" x2="82.622" y2="128.938"/>
	
		<line fill="none" stroke="#706F6F" stroke-width="0.4238" stroke-linecap="round" stroke-miterlimit="10" x1="89.721" y1="132.268" x2="85.064" y2="132.268"/>
	
		<line fill="none" stroke="#706F6F" stroke-width="0.4238" stroke-linecap="round" stroke-miterlimit="10" x1="89.721" y1="135.598" x2="85.064" y2="135.598"/>
	
		<line fill="none" stroke="#706F6F" stroke-width="0.4238" stroke-linecap="round" stroke-miterlimit="10" x1="89.721" y1="138.927" x2="85.064" y2="138.927"/>
	
		<line fill="none" stroke="#706F6F" stroke-width="0.4238" stroke-linecap="round" stroke-miterlimit="10" x1="89.721" y1="142.257" x2="85.064" y2="142.257"/>
	
		<line fill="none" stroke="#706F6F" stroke-width="0.8476" stroke-linecap="round" stroke-miterlimit="10" x1="89.721" y1="145.587" x2="82.622" y2="145.587"/>
	
		<line fill="none" stroke="#706F6F" stroke-width="0.4238" stroke-linecap="round" stroke-miterlimit="10" x1="89.721" y1="148.916" x2="85.064" y2="148.916"/>
	
		<line fill="none" stroke="#706F6F" stroke-width="0.4238" stroke-linecap="round" stroke-miterlimit="10" x1="89.721" y1="152.245" x2="85.064" y2="152.245"/>
	
		<line fill="none" stroke="#706F6F" stroke-width="0.4238" stroke-linecap="round" stroke-miterlimit="10" x1="89.721" y1="155.575" x2="85.064" y2="155.575"/>
	
		<line fill="none" stroke="#706F6F" stroke-width="0.4238" stroke-linecap="round" stroke-miterlimit="10" x1="89.721" y1="158.905" x2="85.064" y2="158.905"/>
	
		<line fill="none" stroke="#706F6F" stroke-width="0.8476" stroke-linecap="round" stroke-miterlimit="10" x1="89.721" y1="162.234" x2="82.622" y2="162.234"/>
	
		<line fill="none" stroke="#706F6F" stroke-width="0.4238" stroke-linecap="round" stroke-miterlimit="10" x1="89.721" y1="165.564" x2="85.064" y2="165.564"/>
	
		<line fill="none" stroke="#706F6F" stroke-width="0.4238" stroke-linecap="round" stroke-miterlimit="10" x1="89.721" y1="168.894" x2="85.064" y2="168.894"/>
	
		<line fill="none" stroke="#706F6F" stroke-width="0.4238" stroke-linecap="round" stroke-miterlimit="10" x1="89.721" y1="172.223" x2="85.064" y2="172.223"/>
	
		<line fill="none" stroke="#706F6F" stroke-width="0.4238" stroke-linecap="round" stroke-miterlimit="10" x1="89.721" y1="175.553" x2="85.064" y2="175.553"/>
	
		<line fill="none" stroke="#706F6F" stroke-width="0.8476" stroke-linecap="round" stroke-miterlimit="10" x1="89.721" y1="45.474" x2="82.622" y2="45.474"/>
	
		<line fill="none" stroke="#706F6F" stroke-width="0.4238" stroke-linecap="round" stroke-miterlimit="10" x1="89.721" y1="48.804" x2="85.064" y2="48.804"/>
	
		<line fill="none" stroke="#706F6F" stroke-width="0.4238" stroke-linecap="round" stroke-miterlimit="10" x1="89.721" y1="52.133" x2="85.064" y2="52.133"/>
	
		<line fill="none" stroke="#706F6F" stroke-width="0.4238" stroke-linecap="round" stroke-miterlimit="10" x1="89.721" y1="55.463" x2="85.064" y2="55.463"/>
	
		<line fill="none" stroke="#706F6F" stroke-width="0.4238" stroke-linecap="round" stroke-miterlimit="10" x1="89.721" y1="58.792" x2="85.064" y2="58.792"/>
	
		<line fill="none" stroke="#706F6F" stroke-width="0.4238" stroke-linecap="round" stroke-miterlimit="10" x1="89.721" y1="42.21" x2="85.064" y2="42.21"/>
	
		<line fill="none" stroke="#706F6F" stroke-width="0.8476" stroke-linecap="round" stroke-miterlimit="10" x1="89.721" y1="62.121" x2="82.622" y2="62.121"/>
	
		<line fill="none" stroke="#706F6F" stroke-width="0.4238" stroke-linecap="round" stroke-miterlimit="10" x1="89.721" y1="65.451" x2="85.064" y2="65.451"/>
	
		<line fill="none" stroke="#706F6F" stroke-width="0.4238" stroke-linecap="round" stroke-miterlimit="10" x1="89.721" y1="68.781" x2="85.064" y2="68.781"/>
	
		<line fill="none" stroke="#706F6F" stroke-width="0.4238" stroke-linecap="round" stroke-miterlimit="10" x1="89.721" y1="72.11" x2="85.064" y2="72.11"/>
	
		<line fill="none" stroke="#706F6F" stroke-width="0.4238" stroke-linecap="round" stroke-miterlimit="10" x1="89.721" y1="75.44" x2="85.064" y2="75.44"/>
	
		<line fill="none" stroke="#706F6F" stroke-width="0.8476" stroke-linecap="round" stroke-miterlimit="10" x1="89.721" y1="78.77" x2="82.622" y2="78.77"/>
	
		<line fill="none" stroke="#706F6F" stroke-width="0.4238" stroke-linecap="round" stroke-miterlimit="10" x1="89.721" y1="82.1" x2="85.064" y2="82.1"/>
	
		<line fill="none" stroke="#706F6F" stroke-width="0.4238" stroke-linecap="round" stroke-miterlimit="10" x1="89.721" y1="85.429" x2="85.064" y2="85.429"/>
	
		<line fill="none" stroke="#706F6F" stroke-width="0.4238" stroke-linecap="round" stroke-miterlimit="10" x1="89.721" y1="88.759" x2="85.064" y2="88.759"/>
	
		<line fill="none" stroke="#706F6F" stroke-width="0.4238" stroke-linecap="round" stroke-miterlimit="10" x1="89.721" y1="92.088" x2="85.064" y2="92.088"/>
	
		<line fill="none" stroke="#706F6F" stroke-width="0.8476" stroke-linecap="round" stroke-miterlimit="10" x1="89.721" y1="95.418" x2="82.622" y2="95.418"/>
	
		<line fill="none" stroke="#706F6F" stroke-width="0.4238" stroke-linecap="round" stroke-miterlimit="10" x1="89.721" y1="98.747" x2="85.064" y2="98.747"/>
	
		<line fill="none" stroke="#706F6F" stroke-width="0.4238" stroke-linecap="round" stroke-miterlimit="10" x1="89.721" y1="102.076" x2="85.064" y2="102.076"/>
	
		<line fill="none" stroke="#706F6F" stroke-width="0.4238" stroke-linecap="round" stroke-miterlimit="10" x1="89.721" y1="105.407" x2="85.064" y2="105.407"/>
	
		<line fill="none" stroke="#706F6F" stroke-width="0.4238" stroke-linecap="round" stroke-miterlimit="10" x1="89.721" y1="108.736" x2="85.064" y2="108.736"/>
	<path fill="#E94B3D" d="M63.01,94.102l-6.614,5.994v8.769c0,2.386-1.936,4.322-4.321,4.322H4.322c-2.387,0-4.322-1.937-4.322-4.322
		V79.339c0-2.387,1.936-4.321,4.322-4.321h47.752c2.386,0,4.321,1.935,4.321,4.321v8.176L63.01,94.102z"/>
	<g>
		<path fill="#FFFFFF" d="M14.817,95.081h-3.016v3.091h-0.697v-3.091H8.07v-0.697h3.034v-2.958h0.697v2.958h3.016V95.081z"/>
		<path fill="#FFFFFF" d="M23.183,101.168h-0.716V89.032l-2.826,1.281v-0.697l3.542-1.64V101.168z"/>
		<path fill="#FFFFFF" d="M34.019,94.686c0,2.073-0.352,3.665-1.056,4.777c-0.703,1.111-1.724,1.667-3.062,1.667
			s-2.394-0.564-3.166-1.695s-1.159-2.735-1.159-4.815c0-2.078,0.377-3.674,1.131-4.786c0.754-1.111,1.828-1.668,3.223-1.668
			C32.655,88.165,34.019,90.339,34.019,94.686z M33.321,94.375c0-1.74-0.292-3.088-0.876-4.042C31.86,89.378,31.01,88.9,29.892,88.9
			s-2.001,0.478-2.647,1.433c-0.647,0.954-0.971,2.387-0.971,4.296c0,2.236,0.509,3.876,1.526,4.919
			c0.565,0.577,1.212,0.866,1.941,0.866c0.729,0,1.325-0.163,1.79-0.49c0.465-0.326,0.822-0.772,1.074-1.338
			C33.082,97.519,33.321,96.115,33.321,94.375z"/>
		<path fill="#FFFFFF" d="M36.261,94.779v-6.803h6.181v0.697h-5.54v4.542c0.628-0.452,1.325-0.679,2.092-0.679
			c1.369,0,2.408,0.39,3.118,1.169c0.71,0.778,1.065,1.746,1.065,2.901c0,1.156-0.374,2.202-1.121,3.138
			c-0.748,0.937-1.712,1.404-2.893,1.404c-0.842,0-1.593-0.242-2.252-0.726c-0.66-0.483-1.009-1.09-1.046-1.818h0.697
			c0.05,0.478,0.323,0.895,0.819,1.253s1.121,0.537,1.875,0.537c0.954,0,1.725-0.377,2.309-1.131s0.876-1.614,0.876-2.582
			c0-0.967-0.295-1.783-0.886-2.449s-1.451-0.999-2.581-0.999c-0.565,0-1.094,0.145-1.583,0.434
			C36.901,93.957,36.524,94.327,36.261,94.779z"/>
		<path fill="#FFFFFF" d="M48.849,92.32c-0.49,0.484-1.087,0.726-1.791,0.726c-0.703,0-1.3-0.245-1.79-0.734
			c-0.489-0.49-0.734-1.094-0.734-1.81s0.245-1.312,0.734-1.79c0.49-0.478,1.09-0.716,1.8-0.716s1.307,0.238,1.79,0.716
			s0.726,1.077,0.726,1.8S49.338,91.837,48.849,92.32z M48.886,90.474c0-0.521-0.173-0.948-0.518-1.281
			c-0.346-0.333-0.779-0.499-1.301-0.499s-0.958,0.169-1.31,0.509c-0.352,0.339-0.527,0.763-0.527,1.271s0.172,0.949,0.518,1.319
			c0.346,0.371,0.788,0.556,1.329,0.556c0.54,0,0.977-0.182,1.31-0.546S48.886,90.995,48.886,90.474z"/>
	</g>
</g>
</svg>
