<?xml version="1.0" encoding="utf-8"?>
<!-- Generator: Adobe Illustrator 15.0.2, SVG Export Plug-In . SVG Version: 6.00 Build 0)  -->
<!DOCTYPE svg PUBLIC "-//W3C//DTD SVG 1.1//EN" "http://www.w3.org/Graphics/SVG/1.1/DTD/svg11.dtd">
<svg version="1.1" id="Lager_1" xmlns="http://www.w3.org/2000/svg" xmlns:xlink="http://www.w3.org/1999/xlink" x="0px" y="0px"
	 width="813.713px" height="164.595px" viewBox="0 0 813.713 164.595" enable-background="new 0 0 813.713 164.595"
	 xml:space="preserve">
<g>
	<g>
		<polyline fill="#F0C1D7" points="268.967,123.319 255.46,159.603 238.17,159.603 244.715,150.982 251.113,122.274 		"/>
		<polyline fill="#F0C1D7" points="347.46,100.832 378.257,123.31 378.339,150.927 374.778,159.859 391.378,159.859 
			390.555,110.646 367.171,74.81 333.253,41.31 		"/>
		<path fill="#FFFFFF" d="M368.555,18.052"/>
		<path fill="#F3E0EA" d="M161.205,68.357c0,0,10.285-11.956,13.926-16.335c16.074-19.328,35.539-21.237,58.617-25.812l84.444-7.659
			c0,0,93.512-4.857,58.251,82.031l-28.984,59.02H330.17l6.346-8.62l14.6-28.708l-5.469-13.656c0,0-39.51,35.102-98.68,14.702
			l-13.507,36.282h-17.29l6.545-8.62l6.398-28.708c0,0-11.908-6.469-19.179-18.811c-23.012-2.881-39.396-12.104-45.396-19.438
			h-12.666v-15.67L161.205,68.357L161.205,68.357z"/>
		<polygon fill="#F0C1D7" points="191.871,63.94 177.871,26.615 210.537,33.775 		"/>
		<path fill="#1E1F1C" d="M182.853,59.571c0,1.427-1.164,2.587-2.588,2.587c-1.432,0-2.594-1.16-2.594-2.587
			c0-1.429,1.162-2.591,2.594-2.591C181.688,56.981,182.853,58.144,182.853,59.571z"/>
		<path fill="none" stroke="#F3E0EA" stroke-width="3" stroke-linecap="round" stroke-miterlimit="10" d="M376.889,42.282
			c6.4-0.842,14.363-3.143,13.529-9.488c-0.389-2.952-3.096-5.028-6.047-4.642c-2.953,0.388-5.029,3.095-4.643,6.047
			c0,0,0.725,8.494,13.475,8.494"/>
	</g>
	<path fill="#655848" d="M463.288,144.024c0.586-0.978,0.928-2.113,0.928-3.333c0-3.591-2.908-6.5-6.5-6.5
		c-0.581,0-1.143,0.084-1.68,0.227c0.004-0.076,0.012-0.149,0.012-0.227c0-3.591-2.908-6.5-6.5-6.5c-0.1,0-0.195,0.011-0.295,0.015
		c-0.74-2.188-2.807-3.765-5.245-3.765c-3.062,0-5.541,2.479-5.541,5.542c0,0.053,0.009,0.104,0.009,0.155
		c-0.617-0.343-1.326-0.538-2.08-0.538c-2.383,0-4.312,1.932-4.312,4.312c0,0.61,0.129,1.189,0.357,1.715
		c-0.334-0.051-0.674-0.078-1.021-0.078c-3.676,0-6.654,2.98-6.654,6.656c0,0.308,0.021,0.61,0.062,0.907
		c-0.266-0.022-0.535-0.036-0.809-0.036c-5.225,0-9.455,4.23-9.455,9.454c0,5.222,4.23,9.455,9.455,9.455
		c1.625,0,3.152-0.41,4.488-1.133c1.693,2.557,4.594,4.241,7.891,4.241c2.596,0,4.945-1.048,6.654-2.74
		c1.547,1.099,3.436,1.746,5.475,1.746c2.852,0,5.408-1.266,7.141-3.263c1.688,1.562,3.941,2.517,6.42,2.517
		c5.223,0,9.455-4.232,9.455-9.454C471.538,148.585,467.941,144.615,463.288,144.024z"/>
	<circle fill="#655848" cx="424.538" cy="104.783" r="7.334"/>
	<circle fill="#655848" cx="411.967" cy="79.763" r="4.741"/>
	<g>
		<g>
			
				<path fill="none" stroke="#F5F5F6" stroke-width="1.0994" stroke-linecap="round" stroke-linejoin="round" stroke-miterlimit="10" d="
				M67.497,129.411c0,0-0.272,12.531,6.586,23.021"/>
		</g>
		<g>
			
				<path fill="none" stroke="#F5F5F6" stroke-width="1.0994" stroke-linecap="round" stroke-linejoin="round" stroke-miterlimit="10" d="
				M76.819,129.239c0,0-0.527,10.097,4.31,18.976"/>
		</g>
		<g>
			
				<path fill="none" stroke="#F5F5F6" stroke-width="1.0994" stroke-linecap="round" stroke-linejoin="round" stroke-miterlimit="10" d="
				M85.84,130.997c0,0-0.685,7.41,2.613,14.082"/>
		</g>
		<g>
			
				<path fill="none" stroke="#F5F5F6" stroke-width="1.0994" stroke-linecap="round" stroke-linejoin="round" stroke-miterlimit="10" d="
				M94.89,135.089c0,0-0.601,3.69,0.822,7.148"/>
		</g>
		<g>
			
				<path fill="none" stroke="#F5F5F6" stroke-width="1.0994" stroke-linecap="round" stroke-linejoin="round" stroke-miterlimit="10" d="
				M57.949,149.644c4.743-6.758,15.883-11.499,28.868-11.499c5.854,0,11.334,0.964,16.021,2.643"/>
		</g>
		<g>
			
				<path fill="#91AEAB" stroke="#91AEAB" stroke-width="1.0994" stroke-linecap="round" stroke-linejoin="round" stroke-miterlimit="10" d="
				M59.076,130.21c0,0-13.714,6.561-13.31,20.437c8.312,11.116,23.132,7.724,23.132,7.724
				C59.695,145.786,59.076,130.21,59.076,130.21z"/>
		</g>
		<g>
			
				<path fill="#91AEAB" stroke="#91AEAB" stroke-width="1.0994" stroke-linecap="round" stroke-linejoin="round" stroke-miterlimit="10" d="
				M101.562,140.211c12.577,3.235,15.194-7.084,15.194-7.084S107.171,128.499,101.562,140.211z"/>
		</g>
		<g>
			<g>
				<path fill="#6E969A" d="M101.539,140.34c12.923,1.284,11.837,11.875,11.837,11.875S102.782,153.268,101.539,140.34z"/>
				<path fill="#6E969A" d="M100.992,140.174c0.016-0.056,0.045-0.349,0.203-0.382c0.158-0.032,0.398,0,0.398,0
					c4.406,0.438,7.721,1.98,9.848,4.585c2.891,3.54,2.499,7.718,2.479,7.896c-0.024,0.26-0.23,0.465-0.49,0.489
					c-0.012,0.001-0.239,0.022-0.622,0.022c-2.492,0-10.711-0.893-11.816-12.393C100.992,140.395,100.977,140.23,100.992,140.174z
					 M102.162,140.964c1.264,9.937,8.438,10.724,10.646,10.724c0.015,0,0.027,0,0.044,0
					C112.886,149.704,112.321,142.286,102.162,140.964z"/>
			</g>
		</g>
		<g>
			<g>
				<path fill="#6E969A" d="M62.221,145.36c1.457,4.204,3.582,8.773,6.678,13.009c0,0-14.493,3.321-22.855-7.362L62.221,145.36z"/>
				<path fill="#6E969A" d="M62.74,145.18c1.677,4.841,3.898,9.167,6.602,12.864c0.11,0.149,0.138,0.344,0.072,0.519
					c-0.062,0.173-0.212,0.303-0.393,0.344c-0.09,0.021-2.229,0.502-5.353,0.502c-5.358,0-12.846-1.398-18.061-8.062
					c0,0-0.289-0.393-0.326-0.43s-0.052-0.187-0.052-0.187l0.63-0.241l16.722-5.828L62.74,145.18z M46.964,151.269
					c4.916,5.8,11.758,7.039,16.707,7.039c1.874,0,3.396-0.186,4.276-0.322c-2.444-3.489-4.48-7.494-6.062-11.924L46.964,151.269z"
					/>
			</g>
		</g>
		
			<circle fill="#FFFFFF" stroke="#FFFFFF" stroke-width="1.0863" stroke-linecap="round" stroke-linejoin="round" stroke-miterlimit="10" cx="53.531" cy="142.652" r="2.675"/>
		<circle fill="#1C191C" cx="53.531" cy="142.652" r="1.412"/>
	</g>
	<g>
		<g>
			<path fill="#FFFFFF" d="M33.371,136.286l-2.761,3.212l-5.115,5.952l-0.432,0.527l0.479,6.09c0.187,2.35-1.333,4.387-3.391,4.549
				l0,0c-2.057,0.162-3.875-1.612-4.06-3.961l-0.138-1.72l-0.098-1.24l-1.242,0.089l-1.721,0.124
				c-2.352,0.169-4.377-1.36-4.526-3.419l0,0c-0.146-2.059,1.637-3.865,3.988-4.036l6.093-0.44l0.457-0.506l5.115-5.95l2.761-3.214
				L33.371,136.286z"/>
		</g>
		<g>
			
				<path fill="none" stroke="#CBCACB" stroke-width="0.5529" stroke-linecap="round" stroke-linejoin="round" stroke-miterlimit="10" d="
				M10.369,146.489"/>
		</g>
		<g>
			
				<path fill="#C89D64" stroke="#C89D64" stroke-width="0.5529" stroke-linecap="round" stroke-linejoin="round" stroke-miterlimit="10" d="
				M62.302,105.654c0.795-0.926,1.729-1.657,2.744-2.199c-0.623-1.661-1.609-3.136-2.974-4.307l-0.896-0.771
				c-5.411-4.649-14.657-2.767-20.652,4.209c-2.998,3.488-4.615,7.588-4.806,11.397c0,0-0.111,10.38-5.549,16.704l4.618,3.969
				c5.438-6.324,15.684-7.993,15.684-7.993c3.734-0.763,7.547-2.979,10.545-6.466c0.532-0.62,1.021-1.261,1.467-1.916
				C59.281,114.774,59.127,109.347,62.302,105.654z"/>
		</g>
		<g>
			
				<path fill="#BC8852" stroke="#BC8852" stroke-width="0.5529" stroke-linecap="round" stroke-linejoin="round" stroke-miterlimit="10" d="
				M62.302,105.654c0.795-0.926,1.729-1.657,2.744-2.199c-0.623-1.661-1.609-3.136-2.974-4.307l-29.593,33.523l2.309,1.983
				c5.438-6.324,15.684-7.993,15.684-7.993c3.734-0.763,7.547-2.978,10.545-6.466c0.532-0.62,1.021-1.261,1.467-1.916
				C59.281,114.774,59.127,109.347,62.302,105.654z"/>
		</g>
	</g>
	<g>
		<path fill="#FFFFFF" d="M68.674,114.148l1.824-3.627l3.99,0.763l1.854-3.645l3.991,0.765l1.798-3.614l3.991,0.762l1.827-3.628
			l3.966,0.774c2.034,7.403,0.406,15.979-5.206,18.744C81.098,124.205,73.306,120.272,68.674,114.148z"/>
		<path fill="#F9F8F7" d="M86.709,121.442c-5.609,2.765-13.401-1.17-18.035-7.294l1.824-3.627l3.99,0.763l1.854-3.645l3.991,0.765
			L86.709,121.442z"/>
	</g>
	<g>
		<g>
			<g>
				<path fill="#E2E481" d="M116.613,122.58c-2.525-1.471-4.324-5.25-4.324-9.679c0-4.411,1.783-8.178,4.294-9.66h-9.186H98.21
					c2.512,1.482,4.294,5.249,4.294,9.66c0,4.429-1.798,8.208-4.323,9.679H116.613z"/>
			</g>
		</g>
		<g>
			<g>
				<path fill="#429D35" d="M107.577,98.396"/>
			</g>
		</g>
		<g>
			<g>
				<path fill="#CBDA83" d="M107.398,122.436h9.215c-2.525-1.473-4.324-5.104-4.324-9.532c0-4.411,1.783-8.073,4.294-9.559h-9.186
					v18.771L107.398,122.436L107.398,122.436z"/>
			</g>
		</g>
		<g>
			<g>
				<path fill="#422A1D" stroke="#422A1D" stroke-width="0.2266" stroke-miterlimit="10" d="M107.794,98.311
					c0-2.512,1.939-4.552,4.49-4.552v1.314c-1.929,0-3.72,1.348-3.72,3.234L107.794,98.311L107.794,98.311z"/>
			</g>
		</g>
		<g>
			<g>
				<g>
					<g>
						<path fill="#086530" d="M106.368,98.283c0.806-1.4,0.889-2.431,0.889-2.431c0.638-5.55-6.761-6.867-6.761-6.867
							s-1.989,7.247,3.295,9.057C103.791,98.041,104.757,98.409,106.368,98.283z"/>
					</g>
				</g>
			</g>
			<g>
				<g>
					<g>
						<path fill="#077D39" d="M100.496,88.985c0,0-1.989,7.247,3.295,9.057c0,0,0.967,0.367,2.577,0.241"/>
					</g>
				</g>
			</g>
		</g>
		<g>
			<g>
				<g>
					
						<ellipse fill="#422A1D" stroke="#422A1D" stroke-width="0.2266" stroke-miterlimit="10" cx="105.735" cy="112.854" rx="0.473" ry="1.075"/>
				</g>
			</g>
			<g>
				<g>
					
						<ellipse fill="#422A1D" stroke="#422A1D" stroke-width="0.2266" stroke-miterlimit="10" cx="109.247" cy="112.854" rx="0.474" ry="1.075"/>
				</g>
			</g>
		</g>
		<g>
			<g>
				
					<path fill="#40A635" stroke="#40A635" stroke-width="0.1933" stroke-linecap="round" stroke-linejoin="round" stroke-miterlimit="10" d="
					M116.754,103.242c0-1.877-1.729-3.749-3.863-3.749c-0.578,0-1.128,0.111-1.621,0.312l-1.003,0.36
					c-1.688,0.55-2.748,0.55-2.748,0.55h-0.016c0,0-1.062,0-2.749-0.55l-1.001-0.36c-0.492-0.199-1.043-0.312-1.622-0.312
					c-2.135,0-3.863,1.872-3.863,3.749H116.754z"/>
			</g>
		</g>
		<g>
			<g>
				
					<path fill="#40A635" stroke="#40A635" stroke-width="0.1931" stroke-linecap="round" stroke-linejoin="round" stroke-miterlimit="10" d="
					M116.733,122.58c0,1.874-1.729,4.916-3.859,4.916c0,0-1.009-0.012-2.621-0.497c-1.385-0.418-2.686-0.406-2.745-0.406h-0.101
					c-0.059,0-1.36-0.012-2.745,0.406c-1.611,0.485-2.621,0.497-2.621,0.497c-2.131,0-3.858-3.042-3.858-4.916H116.733z"/>
			</g>
		</g>
	</g>
	<g>
		
			<path fill="#BD182B" stroke="#BD182B" stroke-width="0.2202" stroke-linecap="round" stroke-linejoin="round" stroke-miterlimit="10" d="
			M83.493,75.019l-0.141-0.079c-0.667-0.364-1.415-0.557-1.796-0.557c-0.431,0-0.821,0.032-1.188,0.17l-0.742,0.248
			c-0.984,0.298-1.683,0.316-1.934,0.329c-0.251-0.013-0.947-0.031-1.934-0.329l-0.742-0.248c-0.366-0.138-0.759-0.17-1.188-0.17
			c-0.381,0-1.128,0.19-1.795,0.557l-0.141,0.079c-3.586,2.03-6.007,5.882-6.007,10.298c0,4.676,2.715,8.718,6.651,10.637
			l-0.001-0.006c0.302,0.167,0.625,0.265,0.96,0.265c0,0,0.61,0.091,2.035-0.386c1.064-0.357,2.086-0.316,2.131-0.316h0.061
			c0.046,0,1.065-0.041,2.132,0.316c1.424,0.477,2.035,0.386,2.035,0.386c0.335,0,0.656-0.098,0.96-0.265l-0.001,0.006
			c3.938-1.919,6.651-5.961,6.651-10.637C89.5,80.9,87.079,77.049,83.493,75.019z"/>
		<g>
			<g>
				<path fill="#429D35" d="M77.795,73.49"/>
			</g>
		</g>
		<g>
			<g>
				<path fill="#422A1D" stroke="#422A1D" stroke-width="0.1759" stroke-miterlimit="10" d="M77.963,73.422
					c0-1.945,1.508-3.532,3.487-3.532v1.021c-1.498,0-2.889,1.047-2.889,2.512L77.963,73.422L77.963,73.422z"/>
			</g>
		</g>
		<g>
			<g>
				<g>
					<g>
						<path fill="#086530" d="M76.856,73.403c0.626-1.088,0.688-1.889,0.688-1.889c0.494-4.31-5.25-5.331-5.25-5.331
							s-1.544,5.626,2.56,7.03C74.855,73.215,75.605,73.5,76.856,73.403z"/>
					</g>
				</g>
			</g>
			<g>
				<g>
					<g>
						<path fill="#077D39" d="M72.297,66.185c0,0-1.544,5.626,2.56,7.03c0,0,0.75,0.285,2.001,0.188"/>
					</g>
				</g>
			</g>
		</g>
		
			<path fill="#B01B2E" stroke="#B01B2E" stroke-width="0.2202" stroke-linecap="round" stroke-linejoin="round" stroke-miterlimit="10" d="
			M77.722,95.508h-0.061c-0.045,0-1.065-0.041-2.131,0.316c-1.424,0.477-2.035,0.386-2.035,0.386c-0.335,0-0.658-0.098-0.96-0.265
			l0.001,0.006c-3.938-1.919-6.651-5.961-6.651-10.637c0-4.416,2.421-8.268,6.007-10.3l0.141-0.078
			c0.667-0.363,1.415-0.556,1.795-0.556c0.429,0,0.822,0.032,1.188,0.17l0.74,0.248c0.987,0.297,1.685,0.316,1.936,0.329
			L77.722,95.508z"/>
		<circle fill="#5F1C29" stroke="#5F1C29" stroke-width="0.0815" stroke-miterlimit="10" cx="77.653" cy="77.067" r="1.962"/>
		<circle fill="#5F1C29" stroke="#5F1C29" stroke-width="0.0815" stroke-miterlimit="10" cx="83.597" cy="82.154" r="1.962"/>
		<circle fill="#5F1C29" stroke="#5F1C29" stroke-width="0.0815" stroke-miterlimit="10" cx="86.149" cy="83.19" r="1.962"/>
		<circle fill="#5F1C29" stroke="#5F1C29" stroke-width="0.0815" stroke-miterlimit="10" cx="87.535" cy="85.316" r="1.962"/>
		<circle fill="#5F1C29" stroke="#5F1C29" stroke-width="0.0815" stroke-miterlimit="10" cx="80.496" cy="79.849" r="3.34"/>
		<path fill="#5F1C29" stroke="#5F1C29" stroke-width="0.0815" stroke-miterlimit="10" d="M89.5,85.316
			c0-4.416-2.42-8.268-6.007-10.298l-0.141-0.079c-0.667-0.364-1.415-0.557-1.796-0.557c-0.431,0-0.821,0.032-1.188,0.17
			l-0.742,0.248c-0.984,0.298-1.683,0.316-1.934,0.329L89.5,85.316z"/>
		<path fill="#BD182B" stroke="#BD182B" stroke-width="0.0815" stroke-miterlimit="10" d="M72.537,95.952"/>
		
			<path fill="#511922" stroke="#511922" stroke-width="0.2202" stroke-linecap="round" stroke-linejoin="round" stroke-miterlimit="10" d="
			M89.5,85.316c0-1.864-0.432-3.627-1.198-5.195c-1.053-2.146-2.735-3.929-4.809-5.104l-0.141-0.078
			c-0.667-0.364-1.415-0.557-1.796-0.557c-0.431,0-0.821,0.032-1.188,0.17l-0.742,0.248L89.5,85.316z"/>
	</g>
	<g>
		<g>
			<g>
				<g>
					<path fill="#422A1D" stroke="#422A1D" stroke-width="0.2316" stroke-miterlimit="10" d="M26.226,100.018
						c1.632-1.979,4.487-2.327,6.501-0.669l-0.855,1.035c-1.521-1.255-3.812-1.354-5.038,0.136L26.226,100.018z"/>
				</g>
			</g>
			<g>
				<g>
					<g>
						<g>
							<path fill="#086530" d="M25.118,99.069C26.664,98.49,27.4,97.73,27.4,97.73c4.11-3.963-0.867-9.813-0.867-9.813
								s-6.28,4.423-3.291,9.285C23.242,97.202,23.765,98.121,25.118,99.069z"/>
						</g>
					</g>
				</g>
				<g>
					<g>
						<g>
							<path fill="#077D39" d="M26.532,87.916c0,0-6.28,4.423-3.291,9.285c0,0,0.522,0.92,1.876,1.867"/>
						</g>
					</g>
				</g>
			</g>
		</g>
		
			<path fill="#40A635" stroke="#40A635" stroke-width="0.1298" stroke-linecap="round" stroke-linejoin="round" stroke-miterlimit="10" d="
			M4.559,127.188c2.908,2.397,6.486,3.604,9.847,2.634c7.998-2.312,8.223-11.869,8.223-11.869c0.276-4.299,2.299-6.875,3.458-8.314
			c2.52-3.053,2.075-6.043-0.395-8.08l0,0l0,0c-2.469-2.033-5.49-1.897-8.007,1.153c-1.191,1.414-3.337,3.889-7.502,4.979
			c0,0-9.34,2.042-10.084,10.335C-0.215,121.508,1.651,124.789,4.559,127.188z"/>
		
			<circle fill="#422A1D" stroke="#422A1D" stroke-width="0.039" stroke-linecap="round" stroke-linejoin="round" stroke-miterlimit="10" cx="19.443" cy="124.266" r="1.386"/>
		
			<path opacity="0.7" fill="#379136" stroke="#0A8B38" stroke-width="0.1298" stroke-linecap="round" stroke-linejoin="round" stroke-miterlimit="10" enable-background="new    " d="
			M4.559,127.188c-2.908-2.397-4.773-5.681-4.46-9.163c0.745-8.293,10.084-10.335,10.084-10.335
			c4.166-1.092,6.312-3.564,7.502-4.979c2.518-3.053,5.538-3.188,8.007-1.153l0,0l0,0L4.559,127.188z"/>
		
			<path fill="#422A1D" stroke="#422A1D" stroke-width="0.1298" stroke-linecap="round" stroke-linejoin="round" stroke-miterlimit="10" d="
			M4.559,127.188c2.908,2.397,6.486,3.604,9.847,2.634c2.964-0.856,4.86-2.707,6.074-4.698L4.559,127.188"/>
		
			<path fill="#40A635" stroke="#40A635" stroke-width="0.1298" stroke-linecap="round" stroke-linejoin="round" stroke-miterlimit="10" d="
			M25.693,101.559"/>
		
			<circle fill="#422A1D" stroke="#422A1D" stroke-width="0.0683" stroke-linecap="round" stroke-linejoin="round" stroke-miterlimit="10" cx="5.36" cy="126.04" r="1.426"/>
		
			<circle fill="#422A1D" stroke="#422A1D" stroke-width="0.0683" stroke-linecap="round" stroke-linejoin="round" stroke-miterlimit="10" cx="7.083" cy="126.194" r="1.427"/>
		
			<circle fill="#422A1D" stroke="#422A1D" stroke-width="0.0683" stroke-linecap="round" stroke-linejoin="round" stroke-miterlimit="10" cx="7.736" cy="124.723" r="1.427"/>
		
			<circle fill="#422A1D" stroke="#422A1D" stroke-width="0.1298" stroke-linecap="round" stroke-linejoin="round" stroke-miterlimit="10" cx="12.604" cy="125.753" r="2.711"/>
		
			<circle fill="#422A1D" stroke="#422A1D" stroke-width="0.1298" stroke-linecap="round" stroke-linejoin="round" stroke-miterlimit="10" cx="16.027" cy="124.351" r="2.711"/>
		
			<circle fill="#422A1D" stroke="#422A1D" stroke-width="0.039" stroke-linecap="round" stroke-linejoin="round" stroke-miterlimit="10" cx="9.492" cy="123.658" r="1.386"/>
		
			<circle fill="#422A1D" stroke="#422A1D" stroke-width="0.039" stroke-linecap="round" stroke-linejoin="round" stroke-miterlimit="10" cx="9.447" cy="125.89" r="1.386"/>
		
			<path fill="#422A1D" stroke="#422A1D" stroke-width="0.1298" stroke-linecap="round" stroke-linejoin="round" stroke-miterlimit="10" d="
			M4.559,127.189"/>
		
			<path fill="#392317" stroke="#392317" stroke-width="0.1298" stroke-linecap="round" stroke-linejoin="round" stroke-miterlimit="10" d="
			M4.559,127.188c2.908,2.397,6.486,3.604,9.847,2.634c1.146-0.33,2.131-0.812,2.979-1.39L4.559,127.188z"/>
	</g>
	<g>
		<g>
			<g>
				<path fill="#54B16F" d="M567.765,154.77c0.027-2.258,0.019-15.433,2.018-19.697c4.915-10.507,21.172-10.563,21.172-10.563
					s2.534,22.258-13.864,25.172c-6.416,1.136-6.076,1.17-6.68,5.323l0.021,4.872l-2.646,0.01L567.765,154.77z"/>
			</g>
		</g>
		<g>
			<g>
				<path fill="#44A260" d="M565.34,146.128c-0.035-2.247-0.128-15.428-2.151-19.68c-4.994-10.472-21.255-10.413-21.255-10.413
					s-2.373,22.283,14.05,25.072c6.422,1.093,6.082,1.13,6.718,5.276l0.049,13.518l2.645-0.009L565.34,146.128z"/>
			</g>
			<g>
				<path fill="#44A260" d="M565.251,142.192c-0.146-4.901-0.598-12.663-2.062-15.742c-4.994-10.472-21.255-10.413-21.255-10.413"/>
			</g>
		</g>
		<path fill="#915D9F" d="M579.43,89.108v16.52c0,7.368-5.224,13.342-11.665,13.342l0,0c-6.441,0-11.664-5.974-11.664-13.342v-16.52
			l11.664,8.906L579.43,89.108z"/>
		<path fill="#824993" d="M567.765,118.968L567.765,118.968c-6.441,0-11.664-5.974-11.664-13.342v-16.52l11.664,8.908V118.968z"/>
	</g>
	<g>
		<path fill="#077D39" d="M735.607,147.352v-8.635c0-1.995-1.619-3.615-3.616-3.615h-49.549c-1.031,0-1.663,0-2.262,0
			c-6.062,0-9.49,0.827-13.749,6.156l-0.409,0.425c-1.373,1.37-2.456,1.728-3.966,1.728h-14.779v-0.701
			c0-0.469-0.38-0.85-0.852-0.85l0,0c-0.469,0-0.852,0.381-0.852,0.85v4.645v4.643c0,0.471,0.383,0.851,0.852,0.851l0,0
			c0.472,0,0.852-0.38,0.852-0.851v-0.7h14.779c1.51,0,2.593,0.355,3.966,1.729l0.409,0.422c4.259,5.329,7.688,6.159,13.749,6.159
			c0.599,0,1.229,0,2.262,0h49.549c1.997,0,3.616-1.62,3.616-3.617V147.352"/>
		<path fill="#086530" d="M735.607,147.352v-8.635c0-1.995-1.619-3.615-3.616-3.615h-49.549c-1.031,0-1.663,0-2.262,0
			c-6.062,0-9.49,0.827-13.749,6.156l-0.409,0.425c-1.373,1.37-2.456,1.728-3.966,1.728h-14.779v-0.701
			c0-0.469-0.38-0.85-0.852-0.85l0,0c-0.469,0-0.852,0.381-0.852,0.85v4.645L735.607,147.352L735.607,147.352z"/>
		
			<rect x="682.83" y="137.819" fill="#FFFFFF" stroke="#FFFFFF" stroke-width="0.4589" stroke-linecap="round" stroke-linejoin="round" stroke-miterlimit="10" width="13.17" height="19.062"/>
		
			<rect x="682.83" y="137.819" fill="#ECECED" stroke="#ECECED" stroke-width="0.4589" stroke-linecap="round" stroke-linejoin="round" stroke-miterlimit="10" width="13.17" height="9.531"/>
	</g>
	<g>
		<path fill="#077D39" d="M789.07,161.051h8.633c1.996,0,3.617-1.617,3.617-3.614v-49.551c0-1.029,0-1.662,0-2.262
			c0-6.061-0.829-9.49-6.158-13.749l-0.424-0.409c-1.371-1.373-1.727-2.456-1.727-3.966V72.721h0.701c0.469,0,0.85-0.38,0.85-0.852
			l0,0c0-0.468-0.381-0.851-0.85-0.851h-4.645h-4.643c-0.473,0-0.853,0.383-0.853,0.851l0,0c0,0.472,0.38,0.852,0.853,0.852h0.699
			V87.5c0,1.51-0.354,2.593-1.729,3.966l-0.422,0.409c-5.329,4.259-6.159,7.688-6.159,13.749c0,0.6,0,1.23,0,2.262v49.551
			c0,1.997,1.62,3.614,3.617,3.614H789.07"/>
		<path fill="#086530" d="M789.07,161.051h8.633c1.996,0,3.617-1.617,3.617-3.614v-49.551c0-1.029,0-1.662,0-2.262
			c0-6.061-0.829-9.49-6.158-13.749l-0.424-0.409c-1.371-1.373-1.727-2.456-1.727-3.966V72.721h0.701c0.469,0,0.85-0.38,0.85-0.852
			l0,0c0-0.468-0.381-0.851-0.85-0.851h-4.645L789.07,161.051L789.07,161.051z"/>
		
			<rect x="779.54" y="108.275" fill="#FFFFFF" stroke="#FFFFFF" stroke-width="0.4589" stroke-linecap="round" stroke-linejoin="round" stroke-miterlimit="10" width="19.062" height="13.17"/>
		
			<rect x="789.07" y="108.275" fill="#ECECED" stroke="#ECECED" stroke-width="0.4589" stroke-linecap="round" stroke-linejoin="round" stroke-miterlimit="10" width="9.531" height="13.17"/>
	</g>
	<g>
		<g>
			<path fill="#54B16F" d="M790.38,65.662c0.029-2.256,0.021-15.431,2.02-19.697c4.915-10.507,21.172-10.562,21.172-10.562
				s2.534,22.257-13.864,25.172c-6.416,1.134-6.078,1.169-6.68,5.323l0.021,4.872l-2.646,0.01L790.38,65.662z"/>
		</g>
	</g>
	<g>
		<g>
			<path fill="#44A260" d="M787.956,57.024c-0.037-2.247-0.128-15.43-2.151-19.682c-4.994-10.472-21.256-10.413-21.256-10.413
				s-2.373,22.283,14.051,25.072c6.423,1.093,6.082,1.13,6.718,5.278l0.049,13.516l2.644-0.009L787.956,57.024z"/>
		</g>
		<g>
			<path fill="#44A260" d="M787.867,53.085c-0.146-4.899-0.598-12.663-2.062-15.742c-4.994-10.472-21.256-10.413-21.256-10.413"/>
		</g>
	</g>
	<path fill="#915D9F" d="M802.045,0.001v16.521c0,7.367-5.222,13.342-11.665,13.342l0,0c-6.439,0-11.665-5.975-11.665-13.342V0.001
		l11.665,8.908L802.045,0.001z"/>
	<path fill="#824993" d="M790.38,29.863L790.38,29.863c-6.439,0-11.665-5.974-11.665-13.342V0l11.665,8.908V29.863z"/>
</g>
</svg>
