<?xml version="1.0" encoding="utf-8"?>
<!-- Generator: Adobe Illustrator 15.0.2, SVG Export Plug-In . SVG Version: 6.00 Build 0)  -->
<!DOCTYPE svg PUBLIC "-//W3C//DTD SVG 1.1//EN" "http://www.w3.org/Graphics/SVG/1.1/DTD/svg11.dtd">
<svg version="1.1" id="Lager_1" xmlns="http://www.w3.org/2000/svg" xmlns:xlink="http://www.w3.org/1999/xlink" x="0px" y="0px"
	 width="1289.773px" height="268.042px" viewBox="0 0 1289.773 268.042" enable-background="new 0 0 1289.773 268.042"
	 xml:space="preserve">
<g>
	
		<path opacity="0.7" fill="#77B6A4" stroke="#77B6A4" stroke-width="0.0474" stroke-linecap="round" stroke-linejoin="round" stroke-miterlimit="10" enable-background="new    " d="
		M443.578,148.906V95.31h-68.943v170.494l70.654,2.215l127.135-1.43h587.787l43.035-0.785v-33.438h82.373v-42.711l0.799,0.569
		c0.952,0.677,2.267,0.454,2.942-0.498c0.676-0.947,0.453-2.265-0.496-2.944l-15.8-11.238v-11.908h-10.492v4.441l-17.095-12.158
		c-0.729-0.526-1.709-0.526-2.438-0.01l-39.794,28.002V24.277h-21.58v36.552h-36.688v-45.27h-44.951v45.577h-26.884V3.615h-69.311
		v57.521h-24.688V43.394h-54.871v56.24h-31.549V71.516h-46.643v28.118h-15.774V40.651h-48.01v58.983h-21.945l-17.833-99.61
		l-17.832,99.61h-19.205V18.016h-68.586v81.618h-21.947V81.801h-55.133v56.538h-34.588v-22.604h-46.342v33.17
		C472.023,149.146,443.578,148.906,443.578,148.906L443.578,148.906z"/>
	
		<polyline opacity="0.7" fill="#77B6A4" stroke="#77B6A4" stroke-width="0.0474" stroke-linecap="round" stroke-linejoin="round" stroke-miterlimit="10" enable-background="new    " points="
		0.024,190.486 0.024,227.248 362.035,227.248 362.035,226.687 362.035,116.226 303.166,116.226 303.166,156.481 266.414,156.481 
		266.414,88.512 185.248,88.512 185.248,156.481 152.679,156.481 152.679,130.207 89.595,130.207 89.595,156.481 65.687,156.481 
		65.687,122.496 0.024,122.496 0.024,146.442 0.024,187.367 	"/>
</g>
</svg>
