<?xml version="1.0" encoding="utf-8"?>
<!-- Generator: Adobe Illustrator 15.0.2, SVG Export Plug-In . SVG Version: 6.00 Build 0)  -->
<!DOCTYPE svg PUBLIC "-//W3C//DTD SVG 1.1//EN" "http://www.w3.org/Graphics/SVG/1.1/DTD/svg11.dtd">
<svg version="1.1" id="Lager_1" xmlns="http://www.w3.org/2000/svg" xmlns:xlink="http://www.w3.org/1999/xlink" x="0px" y="0px"
	 width="121.031px" height="67.667px" viewBox="0 0 121.031 67.667" enable-background="new 0 0 121.031 67.667"
	 xml:space="preserve">
<g>
	
		<path fill="#77B6A4" stroke="#77B6A4" stroke-width="0.0491" stroke-linecap="round" stroke-linejoin="round" stroke-miterlimit="10" d="
		M108.859,10.83c-1.272,0-2.496,0.192-3.646,0.554c-0.359-5.609-4.535-10.169-9.961-11.146c0-0.005,0-0.02,0-0.02
		c-0.783-0.228-2.158-0.191-2.158-0.191c-6.709,0-12.146,5.438-12.146,12.148c0,1.357,0.222,2.659,0.632,3.879
		c-6.675,0.037-12.076,5.459-12.076,12.146c0,6.709,5.438,12.146,12.147,12.146c2.249,0,4.353-0.612,6.157-1.675
		c0.385,0.555,0.831,1.062,1.302,1.545c0.106,0.107,0.21,0.214,0.32,0.32c0.478,0.45,0.985,0.875,1.528,1.246
		c0.088,0.062,0.182,0.106,0.272,0.168c0.5,0.318,1.022,0.602,1.567,0.845c0.012,0.009,0.019,0.017,0.033,0.021h-0.145v24.827h2.568
		h2.564V43.888c5.525-0.017,10.186-3.721,11.641-8.782c6.432-0.312,11.545-5.629,11.545-12.135
		C121.007,16.264,115.569,10.83,108.859,10.83z"/>
	
		<path fill="#77B6A4" stroke="#77B6A4" stroke-width="0.0491" stroke-linecap="round" stroke-linejoin="round" stroke-miterlimit="10" d="
		M39.379,10.83c-1.273,0-2.496,0.192-3.646,0.554c-0.358-5.609-4.535-10.169-9.96-11.146c0-0.005,0-0.02,0-0.02
		c-0.786-0.228-2.159-0.191-2.159-0.191c-6.708,0-12.146,5.438-12.146,12.148c0,1.357,0.223,2.659,0.633,3.879
		C5.425,16.091,0.024,21.513,0.024,28.201c0,6.709,5.437,12.146,12.148,12.146c2.249,0,4.352-0.612,6.158-1.675
		c0.385,0.555,0.831,1.062,1.3,1.545c0.107,0.107,0.211,0.214,0.322,0.32c0.478,0.45,0.983,0.875,1.528,1.246
		c0.087,0.062,0.182,0.106,0.271,0.168c0.501,0.318,1.024,0.602,1.568,0.845c0.011,0.009,0.018,0.017,0.033,0.021h-0.143v24.827
		h2.568h2.564V43.888c5.526-0.017,10.186-3.721,11.638-8.782c6.434-0.312,11.547-5.629,11.547-12.135
		C51.527,16.264,46.09,10.83,39.379,10.83z"/>
</g>
</svg>
