<?xml version="1.0" encoding="utf-8"?>
<!-- Generator: Adobe Illustrator 15.0.2, SVG Export Plug-In . SVG Version: 6.00 Build 0)  -->
<!DOCTYPE svg PUBLIC "-//W3C//DTD SVG 1.1//EN" "http://www.w3.org/Graphics/SVG/1.1/DTD/svg11.dtd">
<svg version="1.1" id="Lager_1" xmlns="http://www.w3.org/2000/svg" xmlns:xlink="http://www.w3.org/1999/xlink" x="0px" y="0px"
	 width="824.891px" height="375.242px" viewBox="0 0 824.891 375.242" enable-background="new 0 0 824.891 375.242"
	 xml:space="preserve">
<g>
	<polyline fill="#77B6A4" stroke="#77B6A4" stroke-width="1.0078" stroke-miterlimit="10" points="0.504,375.242 0.504,7.839 
		96.596,7.839 96.596,87.585 130.827,87.585 130.827,62.989 206.898,62.989 206.898,140.963 250.639,140.963 250.639,101.976 
		315.299,101.976 315.299,140.963 337.17,140.963 337.17,59.185 403.732,59.185 403.732,140.963 434.16,140.963 458.885,2.86 
		483.605,140.963 510.23,140.963 510.23,27.807 605.32,27.807 605.32,140.963 635.748,140.963 635.748,116.238 712.182,116.238 
		712.182,194.62 760.139,194.62 760.139,163.283 824.387,163.283 824.387,375.242 	"/>
</g>
</svg>
