<?xml version="1.0" encoding="utf-8"?>
<!-- Generator: Adobe Illustrator 15.0.2, SVG Export Plug-In . SVG Version: 6.00 Build 0)  -->
<!DOCTYPE svg PUBLIC "-//W3C//DTD SVG 1.1//EN" "http://www.w3.org/Graphics/SVG/1.1/DTD/svg11.dtd">
<svg version="1.1" id="Lager_1" xmlns="http://www.w3.org/2000/svg" xmlns:xlink="http://www.w3.org/1999/xlink" x="0px" y="0px"
	 width="387.926px" height="94.338px" viewBox="0 0 387.926 94.338" enable-background="new 0 0 387.926 94.338"
	 xml:space="preserve">
<g>
	
		<path fill="#77B6A4" stroke="#77B6A4" stroke-width="0.0491" stroke-linecap="round" stroke-linejoin="round" stroke-miterlimit="10" d="
		M39.381,37.359c-1.273,0-2.498,0.192-3.646,0.554c-0.364-5.609-4.536-10.169-9.958-11.146c0-0.005,0-0.02,0-0.02
		c-0.788-0.228-2.165-0.191-2.165-0.191c-6.707,0-12.145,5.438-12.145,12.148c0,1.357,0.226,2.659,0.634,3.879
		C5.424,42.621,0.024,48.042,0.024,54.73c0,6.709,5.438,12.146,12.146,12.146c2.252,0,4.354-0.612,6.162-1.675
		c0.385,0.555,0.83,1.062,1.3,1.545c0.107,0.107,0.213,0.214,0.321,0.32c0.479,0.45,0.983,0.875,1.525,1.246
		c0.09,0.062,0.184,0.106,0.275,0.168c0.496,0.318,1.021,0.602,1.562,0.845c0.014,0.009,0.021,0.017,0.036,0.021h-0.146v24.827
		h2.567h2.563V70.417c5.525-0.017,10.187-3.721,11.639-8.782c6.432-0.312,11.547-5.629,11.547-12.135
		C51.527,42.793,46.091,37.359,39.381,37.359z"/>
	
		<path fill="#77B6A4" stroke="#77B6A4" stroke-width="0.0491" stroke-linecap="round" stroke-linejoin="round" stroke-miterlimit="10" d="
		M108.864,37.359c-1.271,0-2.498,0.192-3.646,0.554c-0.361-5.609-4.533-10.169-9.956-11.146c0-0.005,0-0.02,0-0.02
		c-0.787-0.228-2.164-0.191-2.164-0.191c-6.708,0-12.146,5.438-12.146,12.148c0,1.357,0.228,2.659,0.637,3.879
		c-6.679,0.037-12.08,5.459-12.08,12.146c0,6.709,5.439,12.146,12.147,12.146c2.251,0,4.354-0.612,6.161-1.675
		c0.385,0.555,0.829,1.062,1.3,1.545c0.104,0.107,0.212,0.214,0.321,0.32c0.479,0.45,0.98,0.875,1.524,1.246
		c0.091,0.062,0.187,0.106,0.274,0.168c0.497,0.318,1.02,0.602,1.563,0.845c0.015,0.009,0.022,0.017,0.035,0.021h-0.144v24.827
		h2.566h2.564V70.417c5.523-0.017,10.185-3.721,11.641-8.782c6.43-0.312,11.545-5.629,11.545-12.135
		C121.013,42.793,115.571,37.359,108.864,37.359z"/>
	<path fill="#77B6A4" d="M249.271,38.474L196.066,1.036c-0.886-0.624-2.073-0.624-2.958,0.012l-20.733,14.75v-5.391H159.65v14.441
		l-19.166,13.637c-1.15,0.817-1.422,2.42-0.602,3.568c0.82,1.152,2.416,1.425,3.569,0.603l0.974-0.688v51.802h100.342V41.57
		l1.556,1.097c0.452,0.315,0.96,0.467,1.473,0.467c0.804,0,1.595-0.378,2.095-1.087C250.705,40.886,250.425,39.29,249.271,38.474z"
		/>
	<path fill="#77B6A4" d="M386.271,38.474L333.066,1.036c-0.886-0.624-2.073-0.624-2.958,0.012l-20.733,14.75v-5.391H296.65v14.441
		l-19.166,13.637c-1.15,0.817-1.422,2.42-0.602,3.568c0.82,1.152,2.416,1.425,3.569,0.603l0.974-0.688v51.802h100.342V41.57
		l1.556,1.097c0.452,0.315,0.96,0.467,1.473,0.467c0.804,0,1.595-0.378,2.095-1.087C387.705,40.886,387.425,39.29,386.271,38.474z"
		/>
</g>
</svg>
