<?xml version="1.0" encoding="utf-8"?>
<!-- Generator: Adobe Illustrator 15.0.2, SVG Export Plug-In . SVG Version: 6.00 Build 0)  -->
<!DOCTYPE svg PUBLIC "-//W3C//DTD SVG 1.1//EN" "http://www.w3.org/Graphics/SVG/1.1/DTD/svg11.dtd">
<svg version="1.1" id="Lager_1" xmlns="http://www.w3.org/2000/svg" xmlns:xlink="http://www.w3.org/1999/xlink" x="0px" y="0px"
	 width="1289.773px" height="268.042px" viewBox="0 0 1289.773 268.042" enable-background="new 0 0 1289.773 268.042"
	 xml:space="preserve">
<g>
	
		<path opacity="0.7" fill="#77B6A4" stroke="#77B6A4" stroke-width="0.0474" stroke-linecap="round" stroke-linejoin="round" stroke-miterlimit="10" enable-background="new    " d="
		M846.197,148.906c0,0-28.446,0.24-35.308,0v-33.17h-46.342v22.603h-34.588V81.801h-55.132v17.833h-21.948V18.016h-68.586v81.618
		h-19.205l-17.832-99.61l-17.833,99.61h-21.945V40.651h-48.01v58.983h-15.774V71.516h-46.642v28.118h-31.549v-56.24h-54.871v17.742
		h-24.688V3.615h-69.31v57.521H189.75V15.559h-44.951v45.27H108.11V24.277H86.53v159.634l-39.794-28.002
		c-0.729-0.516-1.709-0.516-2.438,0.011l-17.095,12.158v-4.442H16.711v11.909L0.911,186.783c-0.949,0.68-1.172,1.997-0.496,2.944
		c0.676,0.952,1.99,1.175,2.942,0.498l0.799-0.569v42.71h82.373v33.438l43.035,0.786h587.787l127.135,1.429l70.654-2.215V95.31
		h-68.943V148.906L846.197,148.906z"/>
	
		<polyline opacity="0.7" fill="#77B6A4" stroke="#77B6A4" stroke-width="0.0474" stroke-linecap="round" stroke-linejoin="round" stroke-miterlimit="10" enable-background="new    " points="
		1289.75,187.366 1289.75,146.442 1289.75,122.496 1224.087,122.496 1224.087,156.481 1200.179,156.481 1200.179,130.207 
		1137.095,130.207 1137.095,156.481 1104.527,156.481 1104.527,88.512 1023.361,88.512 1023.361,156.481 986.609,156.481 
		986.609,116.226 927.74,116.226 927.74,226.687 927.74,227.248 1289.75,227.248 1289.75,190.486 	"/>
</g>
</svg>
