<?xml version="1.0" encoding="utf-8"?>
<!-- Generator: Adobe Illustrator 15.0.2, SVG Export Plug-In . SVG Version: 6.00 Build 0)  -->
<!DOCTYPE svg PUBLIC "-//W3C//DTD SVG 1.1//EN" "http://www.w3.org/Graphics/SVG/1.1/DTD/svg11.dtd">
<svg version="1.1" id="Layer_1" xmlns="http://www.w3.org/2000/svg" xmlns:xlink="http://www.w3.org/1999/xlink" x="0px" y="0px"
	 width="109.683px" height="64.414px" viewBox="31.07 84.258 109.683 64.414" enable-background="new 31.07 84.258 109.683 64.414"
	 xml:space="preserve">
<g>
	<g>
		
			<path fill="#E6332A" stroke="#E6332A" stroke-width="1.1541" stroke-linecap="round" stroke-linejoin="round" stroke-miterlimit="10" d="
			M31.647,84.835c0,35.416,18.929,63.26,54.466,63.26c35.539,0,50.082-26.928,54.062-63.26H31.647z"/>
	</g>
	<g>
		
			<path fill="#F08479" stroke="#F08479" stroke-width="0.5708" stroke-linecap="round" stroke-linejoin="round" stroke-miterlimit="10" d="
			M53.304,84.555c4.624,17.97,19.45,31.118,37.028,31.118c17.579,0,24.771-13.15,26.741-31.119L53.304,84.555z"/>
	</g>
	<g>
		
			<path fill="#FFE19D" stroke="#FFE19D" stroke-width="0.1268" stroke-linecap="round" stroke-linejoin="round" stroke-miterlimit="10" d="
			M115.052,115.138c1.79,1.52,4.059,1.785,5.074,0.59c1.013-1.192,0.384-3.391-1.404-4.909c-1.789-1.521-4.56-2.209-5.574-1.017
			C112.134,110.997,113.262,113.62,115.052,115.138z"/>
	</g>
	<g>
		
			<path fill="#FFE19D" stroke="#FFE19D" stroke-width="0.1268" stroke-linecap="round" stroke-linejoin="round" stroke-miterlimit="10" d="
			M101.92,123.708c1.029,2.109,3.005,3.261,4.414,2.576c1.403-0.687,1.709-2.953,0.679-5.062c-1.029-2.109-3.291-3.852-4.699-3.168
			C100.907,118.742,100.891,121.599,101.92,123.708z"/>
	</g>
	<g>
		
			<path fill="#FFE19D" stroke="#FFE19D" stroke-width="0.1268" stroke-linecap="round" stroke-linejoin="round" stroke-miterlimit="10" d="
			M86.067,125.597c0.05,2.346,1.356,4.217,2.925,4.188c1.565-0.03,2.791-1.961,2.744-4.308c-0.049-2.348-1.372-4.879-2.936-4.846
			C87.231,120.664,86.02,123.249,86.067,125.597z"/>
	</g>
	<g>
		
			<path fill="#FFE19D" stroke="#FFE19D" stroke-width="0.1268" stroke-linecap="round" stroke-linejoin="round" stroke-miterlimit="10" d="
			M61.996,115.644c-1.789,1.519-4.06,1.783-5.074,0.589c-1.014-1.191-0.383-3.39,1.406-4.909c1.786-1.52,4.559-2.209,5.572-1.016
			C64.914,111.5,63.785,114.124,61.996,115.644z"/>
	</g>
	<g>
		
			<path fill="#FFE19D" stroke="#FFE19D" stroke-width="0.1268" stroke-linecap="round" stroke-linejoin="round" stroke-miterlimit="10" d="
			M75.885,123.708c-1.03,2.109-3.004,3.261-4.414,2.576c-1.403-0.687-1.708-2.953-0.68-5.062c1.029-2.109,3.293-3.852,4.7-3.168
			C76.896,118.742,76.914,121.599,75.885,123.708z"/>
	</g>
</g>
</svg>
