<?xml version="1.0" encoding="utf-8"?>
<!-- Generator: Adobe Illustrator 17.0.0, SVG Export Plug-In . SVG Version: 6.00 Build 0)  -->
<!DOCTYPE svg PUBLIC "-//W3C//DTD SVG 1.1//EN" "http://www.w3.org/Graphics/SVG/1.1/DTD/svg11.dtd">
<svg version="1.1" id="Layer_1" xmlns="http://www.w3.org/2000/svg" xmlns:xlink="http://www.w3.org/1999/xlink" x="0px" y="0px"
	 width="142.202px" height="149.383px" viewBox="0 0 142.202 149.383" enable-background="new 0 0 142.202 149.383"
	 xml:space="preserve">
<g>
	<path fill="#E6332A" stroke="#E6332A" stroke-width="1.1541" stroke-miterlimit="10" d="M141.625,85.658
		c0,34.876-31.574,63.148-70.524,63.148c-38.949,0-70.524-28.271-70.524-63.148c0-34.876,31.575-44.813,70.524-44.813
		C110.051,40.844,141.625,50.781,141.625,85.658z"/>
</g>
<g>
	<path fill="#009640" stroke="#009640" stroke-width="1.2285" stroke-miterlimit="10" d="M65.007,43.955"/>
</g>
<g>
	
		<path fill="#009640" stroke="#009640" stroke-width="2.4584" stroke-linecap="round" stroke-linejoin="round" stroke-miterlimit="10" d="
		M104.66,15.007c-21.416,0.153-32.253,7.31-32.253,7.31V1.229h-3.151h-3.151v25.633c0,0-14-13.316-35.415-13.47
		C47.928,21.536,51.33,26.927,51.33,26.927S27.986,27.58,16.146,43.405c0,0,23.662-13.419,53.469-9.731
		C69.616,33.674,80.422,19.846,104.66,15.007z"/>
</g>
</svg>
