<?xml version="1.0" encoding="utf-8"?>
<!-- Generator: Adobe Illustrator 17.0.0, SVG Export Plug-In . SVG Version: 6.00 Build 0)  -->
<!DOCTYPE svg PUBLIC "-//W3C//DTD SVG 1.1//EN" "http://www.w3.org/Graphics/SVG/1.1/DTD/svg11.dtd">
<svg version="1.1" id="Layer_1" xmlns="http://www.w3.org/2000/svg" xmlns:xlink="http://www.w3.org/1999/xlink" x="0px" y="0px"
	 width="111.627px" height="181.536px" viewBox="0 0 111.627 181.536" enable-background="new 0 0 111.627 181.536"
	 xml:space="preserve">
<g>
	<g>
		
			<path fill="#E6332A" stroke="#E6332A" stroke-width="1.1541" stroke-linecap="round" stroke-linejoin="round" stroke-miterlimit="10" d="
			M44.432,180.959c36.329-9.348,62.911-39.325,62.911-74.863c0-35.539-26.582-50.082-62.915-54.062L44.432,180.959z"/>
	</g>
	<g>
		
			<path fill="#F08479" stroke="#F08479" stroke-width="0.5708" stroke-linecap="round" stroke-linejoin="round" stroke-miterlimit="10" d="
			M44.084,138.906c17.97-4.624,31.118-19.45,31.118-37.028c0-17.579-13.15-24.772-31.119-26.742L44.084,138.906z"/>
	</g>
	<g>
		
			<path fill="#FFE19D" stroke="#FFE19D" stroke-width="0.1268" stroke-linecap="round" stroke-linejoin="round" stroke-miterlimit="10" d="
			M74.354,77.158c1.52-1.79,1.785-4.059,0.59-5.074c-1.192-1.013-3.391-0.384-4.909,1.404c-1.52,1.789-2.209,4.56-1.017,5.574
			C70.213,80.076,72.836,78.948,74.354,77.158z"/>
	</g>
	<g>
		
			<path fill="#FFE19D" stroke="#FFE19D" stroke-width="0.1268" stroke-linecap="round" stroke-linejoin="round" stroke-miterlimit="10" d="
			M82.924,90.29c2.109-1.03,3.26-3.005,2.576-4.414c-0.687-1.404-2.953-1.709-5.061-0.679c-2.11,1.029-3.852,3.291-3.168,4.699
			C77.958,91.302,80.815,91.319,82.924,90.29z"/>
	</g>
	<g>
		
			<path fill="#FFE19D" stroke="#FFE19D" stroke-width="0.1268" stroke-linecap="round" stroke-linejoin="round" stroke-miterlimit="10" d="
			M84.813,106.142c2.346-0.049,4.218-1.357,4.189-2.924c-0.03-1.566-1.961-2.792-4.308-2.745c-2.347,0.049-4.878,1.372-4.845,2.936
			C79.88,104.978,82.465,106.19,84.813,106.142z"/>
	</g>
	<g>
		
			<path fill="#FFE19D" stroke="#FFE19D" stroke-width="0.1268" stroke-linecap="round" stroke-linejoin="round" stroke-miterlimit="10" d="
			M74.86,130.213c1.519,1.79,1.784,4.06,0.589,5.075c-1.191,1.013-3.39,0.383-4.909-1.406c-1.519-1.787-2.209-4.559-1.015-5.573
			C70.717,127.296,73.34,128.424,74.86,130.213z"/>
	</g>
	<g>
		
			<path fill="#FFE19D" stroke="#FFE19D" stroke-width="0.1268" stroke-linecap="round" stroke-linejoin="round" stroke-miterlimit="10" d="
			M82.924,116.324c2.109,1.031,3.26,3.005,2.576,4.415c-0.687,1.403-2.953,1.708-5.061,0.679c-2.11-1.029-3.852-3.292-3.168-4.7
			C77.958,115.313,80.815,115.295,82.924,116.324z"/>
	</g>
	<g>
		
			<path fill="#009640" stroke="#009640" stroke-width="2.4584" stroke-linecap="round" stroke-linejoin="round" stroke-miterlimit="10" d="
			M1.229,18.223c26.411,0.189,39.776,9.016,39.776,9.016V1.229h3.888h3.886v31.615c0,0,17.267-16.422,43.68-16.612
			C71.198,26.277,67.002,32.925,67.002,32.925s28.796,0.803,43.396,20.323c0,0-29.186-16.549-65.949-12.001
			C44.449,41.247,31.122,24.192,1.229,18.223z"/>
	</g>
</g>
</svg>
