<?xml version="1.0" encoding="utf-8"?>
<!-- Generator: Adobe Illustrator 15.0.2, SVG Export Plug-In . SVG Version: 6.00 Build 0)  -->
<!DOCTYPE svg PUBLIC "-//W3C//DTD SVG 1.1//EN" "http://www.w3.org/Graphics/SVG/1.1/DTD/svg11.dtd">
<svg version="1.1" id="Lager_1" xmlns="http://www.w3.org/2000/svg" xmlns:xlink="http://www.w3.org/1999/xlink" x="0px" y="0px"
	 width="508.171px" height="388.301px" viewBox="0 0 508.171 388.301" enable-background="new 0 0 508.171 388.301"
	 xml:space="preserve">
<g>
	<rect x="345.487" y="245.779" fill="#FFFFFF" width="29.444" height="142.521"/>
	<rect x="345.487" y="245.779" fill="#F5F5F6" width="14.726" height="142.521"/>
	<path fill="#707072" stroke="#707072" stroke-width="4" stroke-miterlimit="10" d="M347.477,275.397h19.23
		c0.669,0,1.211-0.672,1.211-1.5s-0.542-1.5-1.211-1.5h-19.23V275.397z"/>
	<path fill="#707072" stroke="#707072" stroke-width="4" stroke-miterlimit="10" d="M372.986,302.097h-7.848
		c-0.669,0-1.211-0.672-1.211-1.5s0.542-1.5,1.211-1.5h7.848V302.097z"/>
	<path fill="#707072" stroke="#707072" stroke-width="4" stroke-miterlimit="10" d="M372.986,354.097h-15.315
		c-0.668,0-1.211-0.672-1.211-1.5s0.543-1.5,1.211-1.5h15.315V354.097z"/>
	<path fill="#707072" stroke="#707072" stroke-width="4" stroke-miterlimit="10" d="M347.456,325.263h9.004
		c0.67,0,1.212-0.672,1.212-1.5s-0.542-1.5-1.212-1.5h-9.004V325.263z"/>
	
		<path fill="#53B06E" stroke="#53B06E" stroke-width="0.2817" stroke-linecap="round" stroke-linejoin="round" stroke-miterlimit="10" d="
		M508.03,131.882c0-38.51-31.22-69.73-69.729-69.73c-7.296,0-14.327,1.125-20.937,3.203c-2.335-36.398-32.58-65.203-69.567-65.203
		c-38.512,0-69.73,31.22-69.73,69.73c0,7.794,1.298,15.281,3.657,22.28c-38.328,0.214-69.335,31.343-69.335,69.72
		c0,38.511,31.219,69.73,69.73,69.73c12.907,0,24.985-3.52,35.354-9.633c12.595,18.114,33.545,29.98,57.279,29.98
		c31.812,0,58.631-21.312,67.004-50.435C478.66,199.725,508.03,169.235,508.03,131.882z"/>
	
		<path fill="#46A260" stroke="#46A260" stroke-width="0.2817" stroke-linecap="round" stroke-linejoin="round" stroke-miterlimit="10" d="
		M347.797,0.152c-38.512,0-69.73,31.22-69.73,69.73c0,7.794,1.298,15.281,3.657,22.28c-38.328,0.214-69.335,31.343-69.335,69.72
		c0,38.511,31.219,69.73,69.73,69.73c12.907,0,24.985-3.52,35.354-9.633c9.947,14.308,25.108,24.718,42.736,28.461
		c0,0,0-247.693,0-249.186C355.698-0.05,347.797,0.152,347.797,0.152z"/>
	<rect x="133.239" y="245.779" fill="#B08048" width="29.444" height="142.521"/>
	<rect x="133.239" y="245.779" fill="#905F37" width="14.726" height="142.521"/>
	
		<path fill="#53B06E" stroke="#53B06E" stroke-width="0.2817" stroke-linecap="round" stroke-linejoin="round" stroke-miterlimit="10" d="
		M295.782,131.882c0-38.51-31.22-69.73-69.729-69.73c-7.296,0-14.327,1.125-20.937,3.203c-2.335-36.398-32.58-65.203-69.567-65.203
		c-38.512,0-69.73,31.22-69.73,69.73c0,7.794,1.298,15.281,3.657,22.28c-38.329,0.214-69.335,31.343-69.335,69.72
		c0,38.511,31.219,69.73,69.73,69.73c12.907,0,24.985-3.52,35.354-9.633c12.594,18.114,33.545,29.98,57.279,29.98
		c31.812,0,58.631-21.312,67.004-50.435C266.412,199.725,295.782,169.235,295.782,131.882z"/>
	
		<path fill="#46A260" stroke="#46A260" stroke-width="0.2817" stroke-linecap="round" stroke-linejoin="round" stroke-miterlimit="10" d="
		M135.549,0.152c-38.512,0-69.73,31.22-69.73,69.73c0,7.794,1.298,15.281,3.657,22.28c-38.329,0.214-69.335,31.343-69.335,69.72
		c0,38.511,31.219,69.73,69.73,69.73c12.907,0,24.985-3.52,35.354-9.633c9.947,14.308,25.108,24.718,42.736,28.461
		c0,0,0-247.693,0-249.186C143.45-0.05,135.549,0.152,135.549,0.152z"/>
</g>
</svg>
