<?xml version="1.0" encoding="utf-8"?>
<!-- Generator: Adobe Illustrator 15.0.2, SVG Export Plug-In . SVG Version: 6.00 Build 0)  -->
<!DOCTYPE svg PUBLIC "-//W3C//DTD SVG 1.1//EN" "http://www.w3.org/Graphics/SVG/1.1/DTD/svg11.dtd">
<svg version="1.1" id="Lager_1" xmlns="http://www.w3.org/2000/svg" xmlns:xlink="http://www.w3.org/1999/xlink" x="0px" y="0px"
	 width="115.113px" height="172.045px" viewBox="0 0 115.113 172.045" enable-background="new 0 0 115.113 172.045"
	 xml:space="preserve">
<g>
	<g>
		
			<path fill="#0E72B4" stroke="#0E72B4" stroke-width="9.0229" stroke-linecap="round" stroke-linejoin="round" stroke-miterlimit="10" d="
			M4.511,137.508V4.511l97.373,12.971l8.717,120.025H72.81c0,0-6.41-18.705-29.156-18.705c-26.129,0-29.514,18.705-29.514,18.705
			L4.511,137.508z"/>
	</g>
	<g>
		<circle fill="none" stroke="#1B181C" stroke-width="9.0229" stroke-miterlimit="10" cx="42.674" cy="151.031" r="16.503"/>
	</g>
	<g>
		<g>
			<line fill="#FFFFFF" x1="103.101" y1="134.422" x2="103.101" y2="126.119"/>
		</g>
		<g>
			<path fill="#FFFFFF" d="M114.943,135.654h-11.371v-10.768h10.643L114.943,135.654z"/>
		</g>
	</g>
	<g>
		<g>
			<path fill="#F19304" d="M103.572,135.654h-7.135c-0.68,0-1.234-0.551-1.234-1.231v-8.304c0-0.681,0.555-1.232,1.234-1.232h7.135
				V135.654z"/>
		</g>
	</g>
	<g>
		
			<path fill="none" stroke="#09598E" stroke-width="6.7671" stroke-linecap="round" stroke-linejoin="round" stroke-miterlimit="10" d="
			M72.81,148.207c-1.48-15.322-14.432-27.342-30.135-27.342c-15.705,0-28.656,12.02-30.137,27.34"/>
	</g>
	
		<polygon fill="#DEEAEF" stroke="#DEEAEF" stroke-width="3.5518" stroke-linecap="round" stroke-linejoin="round" stroke-miterlimit="10" points="
		101.738,77.258 65.001,77.258 65.001,34.5 99.814,34.5 	"/>
	
		<rect x="36.074" y="34.5" fill="#DEEAEF" stroke="#DEEAEF" stroke-width="3.5518" stroke-linecap="round" stroke-linejoin="round" stroke-miterlimit="10" width="17.406" height="42.758"/>
	<g>
		<circle fill="#ECECED" cx="42.675" cy="151.031" r="12.5"/>
		<path fill="#D9DADB" d="M42.675,163.532c-6.904,0-12.5-5.597-12.5-12.501c0-6.903,5.596-12.5,12.5-12.5V163.532z"/>
	</g>
</g>
</svg>
