<?xml version="1.0" encoding="utf-8"?>
<!-- Generator: Adobe Illustrator 15.0.2, SVG Export Plug-In . SVG Version: 6.00 Build 0)  -->
<!DOCTYPE svg PUBLIC "-//W3C//DTD SVG 1.1//EN" "http://www.w3.org/Graphics/SVG/1.1/DTD/svg11.dtd">
<svg version="1.1" id="Lager_1" xmlns="http://www.w3.org/2000/svg" xmlns:xlink="http://www.w3.org/1999/xlink" x="0px" y="0px"
	 width="346.253px" height="103.873px" viewBox="0 0 346.253 103.873" enable-background="new 0 0 346.253 103.873"
	 xml:space="preserve">
<g>
	
		<rect x="76.786" y="10.401" fill="#ED6CA5" stroke="#ED6CA5" stroke-width="2" stroke-linecap="round" stroke-linejoin="round" stroke-miterlimit="10" width="268.467" height="84.518"/>
	<path fill="#EDEDED" d="M316.047,26.15c0-4.813-3.901-8.714-8.714-8.714c-0.072,0-0.143,0.009-0.215,0.011v-0.021
		c0.072,0.001,0.143,0.011,0.215,0.011c4.812,0,8.714-3.902,8.714-8.715c0-4.812-3.901-8.714-8.714-8.714
		c-0.072,0-0.143,0.009-0.215,0.011V0h-9.166v103.873h9.166v-0.01c0.072,0.002,0.143,0.01,0.215,0.01c4.812,0,8.714-3.9,8.714-8.713
		c0-4.813-3.901-8.715-8.714-8.715c-0.072,0-0.143,0.009-0.215,0.01v-0.021c0.072,0.002,0.143,0.012,0.215,0.012
		c4.812,0,8.714-3.902,8.714-8.715s-3.901-8.715-8.714-8.715c-0.072,0-0.143,0.01-0.215,0.012v-0.021
		c0.072,0.001,0.143,0.01,0.215,0.01c4.812,0,8.714-3.901,8.714-8.715c0-4.812-3.901-8.714-8.714-8.714
		c-0.072,0-0.143,0.009-0.215,0.011v-0.021c0.072,0.001,0.143,0.011,0.215,0.011c4.812,0,8.714-3.902,8.714-8.714
		c0-3.964-2.649-7.304-6.271-8.361C313.397,33.455,316.047,30.115,316.047,26.15z"/>
	<rect fill="#F7C6DD" width="297.952" height="103.873"/>
	<polygon fill="#F4ACCD" points="297.952,103.873 0,103.873 0,0 	"/>
	<g>
		<path fill="#ED6CA5" stroke="#ED6CA5" stroke-miterlimit="10" d="M94.815,73.251h-2.183V34.134h-9.44v-2.183h21.122v2.183h-9.499
			V73.251z"/>
		<path fill="#ED6CA5" stroke="#ED6CA5" stroke-miterlimit="10" d="M127.678,69.564c-1.81,2.537-4.465,3.805-7.965,3.805
			c-3.501,0-6.117-1.395-7.847-4.189c-1.731-2.791-2.596-6.193-2.596-10.207V31.951h2.183v26.962c0,4.012,0.816,7.061,2.448,9.145
			c1.632,2.086,3.619,3.127,5.959,3.127c2.34,0,4.316-1.031,5.93-3.096c1.612-2.066,2.419-5.123,2.419-9.176V31.951h2.183v27.021
			C130.392,63.498,129.486,67.027,127.678,69.564z"/>
		<path fill="#ED6CA5" stroke="#ED6CA5" stroke-miterlimit="10" d="M158.652,41.096l-2.183-0.059
			c-0.354-2.124-1.23-3.806-2.625-5.044c-1.397-1.239-2.96-1.859-4.69-1.859c-2.912,0-5.212,1.485-6.903,4.455
			c-1.691,2.97-2.537,6.382-2.537,10.237c0,7.827,1.347,13.413,4.042,16.756c2.693,3.344,6.932,5.172,12.714,5.486V54.843h-5.782
			V52.66h7.965v20.65c-5.704,0-9.952-0.846-12.744-2.537c-1.102-0.668-2.212-1.613-3.333-2.832s-2.036-2.674-2.744-4.365
			c-1.534-3.814-2.301-8.752-2.301-14.81c0-2.871,0.393-5.447,1.18-7.729c0.787-2.281,1.77-4.051,2.95-5.31
			c2.399-2.517,4.818-3.776,7.257-3.776c2.438,0,4.67,0.983,6.697,2.95C157.639,36.868,158.652,38.933,158.652,41.096z"/>
		<path fill="#ED6CA5" stroke="#ED6CA5" stroke-miterlimit="10" d="M186.087,41.096l-2.184-0.059
			c-0.354-2.124-1.229-3.806-2.625-5.044c-1.396-1.239-2.961-1.859-4.69-1.859c-2.912,0-5.212,1.485-6.903,4.455
			c-1.691,2.97-2.537,6.382-2.537,10.237c0,7.827,1.347,13.413,4.042,16.756c2.693,3.344,6.933,5.172,12.714,5.486V54.843h-5.781
			V52.66h7.965v20.65c-5.703,0-9.951-0.846-12.744-2.537c-1.102-0.668-2.212-1.613-3.333-2.832s-2.036-2.674-2.744-4.365
			c-1.534-3.814-2.301-8.752-2.301-14.81c0-2.871,0.393-5.447,1.18-7.729c0.787-2.281,1.77-4.051,2.95-5.31
			c2.399-2.517,4.818-3.776,7.257-3.776c2.438,0,4.671,0.983,6.696,2.95C185.073,36.868,186.087,38.933,186.087,41.096z"/>
		<path fill="#ED6CA5" stroke="#ED6CA5" stroke-miterlimit="10" d="M214.761,35.019v38.232h-2.184V53.781h-16.756v19.471h-2.184
			V46.229c0-4.248,1.357-7.729,4.072-10.443c2.713-2.714,6.115-4.071,10.207-4.071C210.905,31.715,213.187,32.816,214.761,35.019z
			 M212.577,51.598V35.845c-1.26-1.298-2.852-1.947-4.779-1.947c-3.461,0-6.322,1.259-8.584,3.776
			c-2.262,2.518-3.393,5.39-3.393,8.614v5.31H212.577z"/>
	</g>
</g>
</svg>
