<?xml version="1.0" encoding="utf-8"?>
<!-- Generator: Adobe Illustrator 17.1.0, SVG Export Plug-In . SVG Version: 6.00 Build 0)  -->
<!DOCTYPE svg PUBLIC "-//W3C//DTD SVG 1.1//EN" "http://www.w3.org/Graphics/SVG/1.1/DTD/svg11.dtd">
<svg version="1.1" xmlns="http://www.w3.org/2000/svg" xmlns:xlink="http://www.w3.org/1999/xlink" x="0px" y="0px"
	 width="2833.23px" height="348.035px" viewBox="0 0 2833.23 348.035" enable-background="new 0 0 2833.23 348.035"
	 xml:space="preserve">
<g id="_x31_">
	<g id="TV">
		<rect x="26.111" y="32.197" fill="#3E3D40" width="420" height="248"/>
		<rect x="26.111" y="29.28" width="420" height="219.001"/>
		<rect x="40.927" y="42.78" fill="#F6F6F6" width="390.369" height="193.333"/>
		<polygon fill="#ECEDED" points="431.296,236.113 40.927,236.113 40.927,42.78 		"/>
		<rect x="222.147" y="278.53" fill="#3E3D40" width="27.929" height="34.667"/>
		
			<rect x="118.75" y="313.197" fill="#3E3D40" stroke="#3E3D40" stroke-width="3" stroke-linecap="round" stroke-linejoin="round" stroke-miterlimit="10" width="234.582" height="12.632"/>
	</g>
	<g id="TV-program" display="none">
		
			<line display="inline" fill="none" stroke="#9C9E9F" stroke-width="6" stroke-linejoin="round" stroke-miterlimit="10" x1="40.927" y1="204.327" x2="431.155" y2="204.327"/>
		
			<line display="inline" fill="none" stroke="#9C9E9F" stroke-width="9.0871" stroke-linejoin="round" stroke-miterlimit="10" x1="40.927" y1="78.53" x2="431.155" y2="78.53"/>
		
			<line display="inline" fill="none" stroke="#9C9E9F" stroke-width="9.0871" stroke-linejoin="round" stroke-miterlimit="10" x1="40.927" y1="166.207" x2="431.155" y2="166.207"/>
		
			<line display="inline" fill="none" stroke="#9C9E9F" stroke-width="6" stroke-linejoin="round" stroke-miterlimit="10" x1="40.927" y1="113.697" x2="431.155" y2="113.697"/>
		
			<line display="inline" fill="none" stroke="#D9DADB" stroke-width="5" stroke-linejoin="round" stroke-miterlimit="10" x1="40.927" y1="181.207" x2="431.155" y2="181.207"/>
		
			<line display="inline" fill="none" stroke="#D9DADB" stroke-width="9.0871" stroke-linejoin="round" stroke-miterlimit="10" x1="40.927" y1="140.706" x2="431.155" y2="140.706"/>
	</g>
	<g id="On" display="none">
		<circle display="inline" opacity="0.2" fill="#53B06B" cx="428.004" cy="264.244" r="5.761"/>
		<circle display="inline" fill="#53B06B" cx="428.004" cy="264.242" r="3.645"/>
	</g>
	<g id="Off">
		<circle opacity="0.2" fill="#E74D3D" cx="428.004" cy="264.244" r="5.761"/>
		<circle fill="#E74D3D" cx="428.004" cy="264.242" r="3.645"/>
	</g>
	<g id="Knappar">
		<g>
			<circle cx="44.572" cy="264.242" r="3.645"/>
			<circle cx="57.907" cy="264.242" r="3.645"/>
			<circle cx="71.242" cy="264.242" r="3.645"/>
			<circle cx="84.578" cy="264.242" r="3.645"/>
		</g>
		<rect x="215.374" y="260.243" fill="#58585A" width="41.333" height="8"/>
	</g>
</g>
<g id="_x32_">
	<g id="TV_kopia">
		<rect x="498.316" y="32.197" fill="#3E3D40" width="420" height="248"/>
		<rect x="498.316" y="29.28" width="420" height="219.001"/>
		<rect x="513.132" y="42.78" fill="#F6F6F6" width="390.369" height="193.333"/>
		<polygon fill="#ECEDED" points="903.501,236.113 513.132,236.113 513.132,42.78 		"/>
		<rect x="694.352" y="278.53" fill="#3E3D40" width="27.93" height="34.667"/>
		
			<rect x="590.955" y="313.197" fill="#3E3D40" stroke="#3E3D40" stroke-width="3" stroke-linecap="round" stroke-linejoin="round" stroke-miterlimit="10" width="234.582" height="12.632"/>
	</g>
	<g id="TV-program_kopia" display="none">
		
			<line display="inline" fill="none" stroke="#9C9E9F" stroke-width="6" stroke-linejoin="round" stroke-miterlimit="10" x1="513.132" y1="204.327" x2="903.36" y2="204.327"/>
		
			<line display="inline" fill="none" stroke="#9C9E9F" stroke-width="9.0871" stroke-linejoin="round" stroke-miterlimit="10" x1="513.132" y1="78.53" x2="903.36" y2="78.53"/>
		
			<line display="inline" fill="none" stroke="#9C9E9F" stroke-width="9.0871" stroke-linejoin="round" stroke-miterlimit="10" x1="513.132" y1="166.207" x2="903.36" y2="166.207"/>
		
			<line display="inline" fill="none" stroke="#9C9E9F" stroke-width="6" stroke-linejoin="round" stroke-miterlimit="10" x1="513.132" y1="113.697" x2="903.36" y2="113.697"/>
		
			<line display="inline" fill="none" stroke="#D9DADB" stroke-width="5" stroke-linejoin="round" stroke-miterlimit="10" x1="513.132" y1="181.207" x2="903.36" y2="181.207"/>
		
			<line display="inline" fill="none" stroke="#D9DADB" stroke-width="9.0871" stroke-linejoin="round" stroke-miterlimit="10" x1="513.132" y1="140.706" x2="903.36" y2="140.706"/>
	</g>
	<g id="On_kopia" display="none">
		<circle display="inline" opacity="0.2" fill="#53B06B" cx="900.209" cy="264.244" r="5.761"/>
		<circle display="inline" fill="#53B06B" cx="900.209" cy="264.242" r="3.645"/>
	</g>
	<g id="Off_kopia">
		<circle opacity="0.2" fill="#E74D3D" cx="900.209" cy="264.244" r="5.761"/>
		<circle fill="#E74D3D" cx="900.209" cy="264.242" r="3.645"/>
	</g>
	<g id="Knappar_kopia">
		<g>
			<circle cx="516.777" cy="264.242" r="3.645"/>
			<circle cx="530.112" cy="264.242" r="3.645"/>
			<circle cx="543.447" cy="264.242" r="3.645"/>
			<circle cx="556.783" cy="264.242" r="3.645"/>
		</g>
		<rect x="687.58" y="260.243" fill="#58585A" width="41.332" height="8"/>
	</g>
</g>
<g id="_x33_">
	<g id="TV_kopia_2">
		<rect x="970.521" y="32.197" fill="#3E3D40" width="420" height="248"/>
		<rect x="970.521" y="29.28" width="420" height="219.001"/>
		<rect x="985.337" y="42.78" fill="#F6F6F6" width="390.369" height="193.333"/>
		<polygon fill="#ECEDED" points="1375.706,236.113 985.337,236.113 985.337,42.78 		"/>
		<rect x="1166.557" y="278.53" fill="#3E3D40" width="27.93" height="34.667"/>
		
			<rect x="1063.16" y="313.197" fill="#3E3D40" stroke="#3E3D40" stroke-width="3" stroke-linecap="round" stroke-linejoin="round" stroke-miterlimit="10" width="234.582" height="12.632"/>
	</g>
	<g id="TV-program_kopia_2">
		
			<line fill="none" stroke="#9C9E9F" stroke-width="6" stroke-linejoin="round" stroke-miterlimit="10" x1="985.337" y1="204.327" x2="1375.565" y2="204.327"/>
		
			<line fill="none" stroke="#9C9E9F" stroke-width="9.0871" stroke-linejoin="round" stroke-miterlimit="10" x1="985.337" y1="78.53" x2="1375.565" y2="78.53"/>
		
			<line fill="none" stroke="#9C9E9F" stroke-width="9.0871" stroke-linejoin="round" stroke-miterlimit="10" x1="985.337" y1="166.207" x2="1375.565" y2="166.207"/>
		
			<line fill="none" stroke="#9C9E9F" stroke-width="6" stroke-linejoin="round" stroke-miterlimit="10" x1="985.337" y1="113.697" x2="1375.565" y2="113.697"/>
		
			<line fill="none" stroke="#D9DADB" stroke-width="5" stroke-linejoin="round" stroke-miterlimit="10" x1="985.337" y1="181.207" x2="1375.565" y2="181.207"/>
		
			<line fill="none" stroke="#D9DADB" stroke-width="9.0871" stroke-linejoin="round" stroke-miterlimit="10" x1="985.337" y1="140.706" x2="1375.565" y2="140.706"/>
	</g>
	<g id="On_kopia_2">
		<circle opacity="0.2" fill="#53B06B" cx="1372.415" cy="264.244" r="5.761"/>
		<circle fill="#53B06B" cx="1372.415" cy="264.242" r="3.645"/>
	</g>
	<g id="Off_kopia_2" display="none">
		<circle display="inline" opacity="0.2" fill="#E74D3D" cx="1372.415" cy="264.244" r="5.761"/>
		<circle display="inline" fill="#E74D3D" cx="1372.415" cy="264.242" r="3.645"/>
	</g>
	<g id="Knappar_kopia_2">
		<g>
			<circle cx="988.982" cy="264.242" r="3.645"/>
			<circle cx="1002.317" cy="264.242" r="3.645"/>
			<circle cx="1015.652" cy="264.242" r="3.645"/>
			<circle cx="1028.988" cy="264.242" r="3.645"/>
		</g>
		<rect x="1159.785" y="260.243" fill="#58585A" width="41.332" height="8"/>
	</g>
</g>
<g id="_x34_">
	<g id="TV_kopia_3">
		<rect x="1442.727" y="32.197" fill="#3E3D40" width="420" height="248"/>
		<rect x="1442.727" y="29.28" width="420" height="219.001"/>
		<rect x="1457.542" y="42.78" fill="#F6F6F6" width="390.369" height="193.333"/>
		<polygon fill="#ECEDED" points="1847.911,236.113 1457.542,236.113 1457.542,42.78 		"/>
		<rect x="1638.762" y="278.53" fill="#3E3D40" width="27.93" height="34.667"/>
		
			<rect x="1535.365" y="313.197" fill="#3E3D40" stroke="#3E3D40" stroke-width="3" stroke-linecap="round" stroke-linejoin="round" stroke-miterlimit="10" width="234.582" height="12.632"/>
	</g>
	<g id="TV-program_kopia_3">
		
			<line fill="none" stroke="#9C9E9F" stroke-width="6" stroke-linejoin="round" stroke-miterlimit="10" x1="1457.542" y1="214.327" x2="1847.771" y2="214.327"/>
		
			<line fill="none" stroke="#9C9E9F" stroke-width="9.0871" stroke-linejoin="round" stroke-miterlimit="10" x1="1457.542" y1="88.53" x2="1847.771" y2="88.53"/>
		
			<line fill="none" stroke="#9C9E9F" stroke-width="9.0871" stroke-linejoin="round" stroke-miterlimit="10" x1="1457.542" y1="176.207" x2="1847.771" y2="176.207"/>
		
			<line fill="none" stroke="#9C9E9F" stroke-width="6" stroke-linejoin="round" stroke-miterlimit="10" x1="1457.542" y1="123.697" x2="1847.771" y2="123.697"/>
		
			<line fill="none" stroke="#D9DADB" stroke-width="5" stroke-linejoin="round" stroke-miterlimit="10" x1="1457.542" y1="191.207" x2="1847.771" y2="191.207"/>
		
			<line fill="none" stroke="#D9DADB" stroke-width="9.0871" stroke-linejoin="round" stroke-miterlimit="10" x1="1457.542" y1="150.706" x2="1847.771" y2="150.706"/>
		
			<line fill="none" stroke="#D9DADB" stroke-width="9.0871" stroke-linejoin="round" stroke-miterlimit="10" x1="1457.542" y1="59.197" x2="1847.771" y2="59.197"/>
	</g>
	<g id="On_kopia_3">
		<circle opacity="0.2" fill="#53B06B" cx="1844.62" cy="264.244" r="5.761"/>
		<circle fill="#53B06B" cx="1844.62" cy="264.242" r="3.645"/>
	</g>
	<g id="Off_kopia_3" display="none">
		<circle display="inline" opacity="0.2" fill="#E74D3D" cx="1844.62" cy="264.244" r="5.761"/>
		<circle display="inline" fill="#E74D3D" cx="1844.62" cy="264.242" r="3.645"/>
	</g>
	<g id="Knappar_kopia_3">
		<g>
			<circle cx="1461.187" cy="264.242" r="3.645"/>
			<circle cx="1474.522" cy="264.242" r="3.645"/>
			<circle cx="1487.857" cy="264.242" r="3.645"/>
			<circle cx="1501.193" cy="264.242" r="3.645"/>
		</g>
		<rect x="1631.99" y="260.243" fill="#58585A" width="41.332" height="8"/>
	</g>
</g>
<g id="_x35_">
	<g id="TV_kopia_4">
		<rect x="1914.932" y="32.197" fill="#3E3D40" width="420" height="248"/>
		<rect x="1914.932" y="29.28" width="420" height="219.001"/>
		<rect x="1929.747" y="42.78" fill="#F6F6F6" width="390.369" height="193.333"/>
		<polygon fill="#ECEDED" points="2320.116,236.113 1929.747,236.113 1929.747,42.78 		"/>
		<rect x="2110.967" y="278.53" fill="#3E3D40" width="27.93" height="34.667"/>
		
			<rect x="2007.57" y="313.197" fill="#3E3D40" stroke="#3E3D40" stroke-width="3" stroke-linecap="round" stroke-linejoin="round" stroke-miterlimit="10" width="234.582" height="12.632"/>
	</g>
	<g id="TV-program_kopia_4">
		
			<line fill="none" stroke="#9C9E9F" stroke-width="6" stroke-linejoin="round" stroke-miterlimit="10" x1="1929.747" y1="226.327" x2="2319.976" y2="226.327"/>
		
			<line fill="none" stroke="#9C9E9F" stroke-width="9.0871" stroke-linejoin="round" stroke-miterlimit="10" x1="1929.747" y1="100.53" x2="2319.976" y2="100.53"/>
		
			<line fill="none" stroke="#9C9E9F" stroke-width="9.0871" stroke-linejoin="round" stroke-miterlimit="10" x1="1929.747" y1="188.207" x2="2319.976" y2="188.207"/>
		
			<line fill="none" stroke="#9C9E9F" stroke-width="6" stroke-linejoin="round" stroke-miterlimit="10" x1="1929.747" y1="135.697" x2="2319.976" y2="135.697"/>
		
			<line fill="none" stroke="#D9DADB" stroke-width="5" stroke-linejoin="round" stroke-miterlimit="10" x1="1929.747" y1="203.207" x2="2319.976" y2="203.207"/>
		
			<line fill="none" stroke="#D9DADB" stroke-width="9.0871" stroke-linejoin="round" stroke-miterlimit="10" x1="1929.747" y1="162.707" x2="2319.976" y2="162.707"/>
		
			<line fill="none" stroke="#D9DADB" stroke-width="9.0871" stroke-linejoin="round" stroke-miterlimit="10" x1="1929.747" y1="71.197" x2="2319.976" y2="71.197"/>
	</g>
	<g id="On_kopia_4">
		<circle opacity="0.2" fill="#53B06B" cx="2316.825" cy="264.244" r="5.761"/>
		<circle fill="#53B06B" cx="2316.825" cy="264.242" r="3.645"/>
	</g>
	<g id="Off_kopia_4" display="none">
		<circle display="inline" opacity="0.2" fill="#E74D3D" cx="1844.62" cy="264.244" r="5.761"/>
		<circle display="inline" fill="#E74D3D" cx="1844.62" cy="264.242" r="3.645"/>
	</g>
	<g id="Knappar_kopia_4">
		<g>
			<circle cx="1933.392" cy="264.242" r="3.645"/>
			<circle cx="1946.727" cy="264.242" r="3.645"/>
			<circle cx="1960.062" cy="264.242" r="3.645"/>
			<circle cx="1973.398" cy="264.242" r="3.645"/>
		</g>
		<rect x="2104.195" y="260.243" fill="#58585A" width="41.332" height="8"/>
	</g>
</g>
<g id="_x36_">
	<g id="TV_kopia_5">
		<rect x="2387.137" y="32.197" fill="#3E3D40" width="420" height="248"/>
		<rect x="2387.137" y="29.28" width="420" height="219.001"/>
		<rect x="2401.952" y="42.78" fill="#F6F6F6" width="390.369" height="193.333"/>
		<polygon fill="#ECEDED" points="2792.321,236.113 2401.952,236.113 2401.952,42.78 		"/>
		<rect x="2583.172" y="278.53" fill="#3E3D40" width="27.93" height="34.667"/>
		
			<rect x="2479.775" y="313.197" fill="#3E3D40" stroke="#3E3D40" stroke-width="3" stroke-linecap="round" stroke-linejoin="round" stroke-miterlimit="10" width="234.582" height="12.632"/>
	</g>
	<g id="TV-program_kopia_5">
		
			<line fill="none" stroke="#9C9E9F" stroke-width="6" stroke-linejoin="round" stroke-miterlimit="10" x1="2401.952" y1="59.197" x2="2792.181" y2="59.197"/>
		
			<line fill="none" stroke="#9C9E9F" stroke-width="9.0871" stroke-linejoin="round" stroke-miterlimit="10" x1="2401.952" y1="114.53" x2="2792.181" y2="114.53"/>
		
			<line fill="none" stroke="#9C9E9F" stroke-width="9.0871" stroke-linejoin="round" stroke-miterlimit="10" x1="2401.952" y1="202.207" x2="2792.181" y2="202.207"/>
		
			<line fill="none" stroke="#9C9E9F" stroke-width="6" stroke-linejoin="round" stroke-miterlimit="10" x1="2401.952" y1="149.697" x2="2792.181" y2="149.697"/>
		
			<line fill="none" stroke="#D9DADB" stroke-width="5" stroke-linejoin="round" stroke-miterlimit="10" x1="2401.952" y1="217.207" x2="2792.181" y2="217.207"/>
		
			<line fill="none" stroke="#D9DADB" stroke-width="9.0871" stroke-linejoin="round" stroke-miterlimit="10" x1="2401.952" y1="176.707" x2="2792.181" y2="176.707"/>
		
			<line fill="none" stroke="#D9DADB" stroke-width="9.0871" stroke-linejoin="round" stroke-miterlimit="10" x1="2401.952" y1="85.197" x2="2792.181" y2="85.197"/>
	</g>
	<g id="On_kopia_5">
		<circle opacity="0.2" fill="#53B06B" cx="2789.03" cy="264.244" r="5.761"/>
		<circle fill="#53B06B" cx="2789.03" cy="264.242" r="3.645"/>
	</g>
	<g id="Off_kopia_5" display="none">
		<circle display="inline" opacity="0.2" fill="#E74D3D" cx="1844.62" cy="264.244" r="5.761"/>
		<circle display="inline" fill="#E74D3D" cx="1844.62" cy="264.242" r="3.645"/>
	</g>
	<g id="Knappar_kopia_5">
		<g>
			<circle cx="2405.597" cy="264.242" r="3.645"/>
			<circle cx="2418.932" cy="264.242" r="3.645"/>
			<circle cx="2432.268" cy="264.242" r="3.645"/>
			<circle cx="2445.603" cy="264.242" r="3.645"/>
		</g>
		<rect x="2576.4" y="260.243" fill="#58585A" width="41.332" height="8"/>
	</g>
</g>
</svg>
