<?xml version="1.0" encoding="utf-8"?>
<!-- Generator: Adobe Illustrator 15.0.2, SVG Export Plug-In . SVG Version: 6.00 Build 0)  -->
<!DOCTYPE svg PUBLIC "-//W3C//DTD SVG 1.1//EN" "http://www.w3.org/Graphics/SVG/1.1/DTD/svg11.dtd">
<svg version="1.1" id="Lager_1" xmlns="http://www.w3.org/2000/svg" xmlns:xlink="http://www.w3.org/1999/xlink" x="0px" y="0px"
	 width="134.497px" height="181.442px" viewBox="0 0 134.497 181.442" enable-background="new 0 0 134.497 181.442"
	 xml:space="preserve">
<g>
	<rect y="45.724" fill="#ECECED" width="131.971" height="135.719"/>
	<g>
		
			<rect x="8.455" y="71.604" fill="#868789" stroke="#868789" stroke-width="1.4744" stroke-linecap="round" stroke-linejoin="round" stroke-miterlimit="10" width="115.063" height="64.974"/>
	</g>
	<g>
		<circle fill="#B1B3B3" cx="104.608" cy="58.15" r="5.535"/>
		
			<rect x="103.975" y="54.588" fill="#ECECED" stroke="#ECECED" stroke-width="1.1718" stroke-linecap="round" stroke-linejoin="round" stroke-miterlimit="10" width="1.38" height="7.126"/>
	</g>
	<g>
		<circle fill="#B1B3B3" cx="119.655" cy="58.15" r="5.536"/>
		
			<rect x="119.024" y="54.588" fill="#ECECED" stroke="#ECECED" stroke-width="1.1718" stroke-linecap="round" stroke-linejoin="round" stroke-miterlimit="10" width="1.379" height="7.126"/>
	</g>
	<g>
		<circle fill="#B1B3B3" cx="27.173" cy="58.15" r="5.536"/>
		
			<rect x="26.533" y="54.56" transform="matrix(0.8683 -0.496 0.496 0.8683 -25.2439 21.155)" fill="#ECECED" stroke="#ECECED" stroke-width="1.1718" stroke-linecap="round" stroke-linejoin="round" stroke-miterlimit="10" width="1.378" height="7.126"/>
	</g>
	<g>
		<circle fill="#B1B3B3" cx="12.769" cy="58.15" r="5.536"/>
		
			<rect x="12.136" y="54.588" fill="#ECECED" stroke="#ECECED" stroke-width="1.1718" stroke-linecap="round" stroke-linejoin="round" stroke-miterlimit="10" width="1.379" height="7.126"/>
	</g>
	<g>
		<circle fill="#B1B3B3" cx="55.983" cy="58.15" r="5.535"/>
		
			<rect x="55.351" y="54.588" fill="#ECECED" stroke="#ECECED" stroke-width="1.1718" stroke-linecap="round" stroke-linejoin="round" stroke-miterlimit="10" width="1.379" height="7.126"/>
	</g>
	<g>
		<circle fill="#B1B3B3" cx="41.578" cy="58.15" r="5.535"/>
		
			<rect x="40.859" y="54.54" transform="matrix(-0.5431 -0.8397 0.8397 -0.5431 15.3268 124.5448)" fill="#ECECED" stroke="#ECECED" stroke-width="1.1718" stroke-linecap="round" stroke-linejoin="round" stroke-miterlimit="10" width="1.378" height="7.125"/>
	</g>
	<rect y="41.909" fill="#5A595B" width="131.971" height="3.814"/>
	
		<path fill="#D01138" stroke="#D01138" stroke-width="0.7979" stroke-linecap="round" stroke-linejoin="round" stroke-miterlimit="10" d="
		M134.082,16.666c0,0.254-0.224,0.459-0.501,0.459h-9.855c-0.276,0-0.5-0.205-0.5-0.459v-2.03c0-0.253,0.224-0.458,0.5-0.458h9.855
		c0.277,0,0.501,0.205,0.501,0.458V16.666z"/>
	<path fill="#C11636" d="M134.497,15.651v1.015c0,0.464-0.41,0.841-0.916,0.841h-9.855c-0.506,0-0.917-0.377-0.917-0.841v-1.015
		H134.497z"/>
	<rect x="72.615" y="9.438" fill="#AD173D" width="51.54" height="1.898"/>
	<rect x="72.615" y="9.438" fill="#A0182D" width="25.667" height="1.898"/>
	<rect x="7.409" y="14.221" fill="#BBBCBE" width="48.574" height="1.899"/>
	<rect x="7.409" y="14.221" fill="#9C9C9E" width="24.302" height="1.899"/>
	
		<path fill="#D01138" stroke="#D01138" stroke-width="0.7979" stroke-linecap="round" stroke-linejoin="round" stroke-miterlimit="10" d="
		M73.342,16.666c0,0.254-0.223,0.459-0.5,0.459h-9.855c-0.277,0-0.5-0.205-0.5-0.459v-2.03c0-0.253,0.223-0.458,0.5-0.458h9.855
		c0.277,0,0.5,0.205,0.5,0.458V16.666z"/>
	<g>
		<path fill="#C11636" d="M62.489,15.651v1.015c0,0.254,0.223,0.459,0.499,0.459h9.855c0.276,0,0.501-0.205,0.501-0.459v-1.015
			H62.489z"/>
		<path fill="#C11636" d="M73.76,15.651v1.015c0,0.464-0.412,0.841-0.917,0.841h-9.855c-0.506,0-0.917-0.377-0.917-0.841v-1.015
			H73.76z M62.903,16.032v0.634c0,0.042,0.039,0.075,0.085,0.075h9.855c0.046,0,0.083-0.033,0.083-0.075v-0.634H62.903z"/>
	</g>
	
		<rect x="97.727" y="1.407" fill="#3E3D3F" stroke="#3E3D3F" stroke-width="0.977" stroke-linecap="round" stroke-linejoin="round" stroke-miterlimit="10" width="1.609" height="3.311"/>
	<g>
		<rect x="73.106" y="11.337" fill="#D01138" width="50.354" height="27.088"/>
		<path fill="#D01138" d="M124.155,11.337v27.088c0,0.26-0.211,0.472-0.471,0.472H73.332c-0.261,0-0.472-0.212-0.472-0.472V11.337
			 M73.578,37.954h49.41V11.81h-49.41V37.954z"/>
	</g>
	<g>
		<rect x="73.106" y="11.337" fill="#C11636" width="25.176" height="27.088"/>
		<path fill="#C11636" d="M98.282,11.337v27.539H73.106c-0.271,0-0.491-0.201-0.491-0.451V11.337H98.282z M73.598,37.974h24.193
			V11.789H73.598V37.974z"/>
	</g>
	
		<rect x="93.833" y="0.534" fill="#5A595B" stroke="#5A595B" stroke-width="1.068" stroke-linecap="round" stroke-linejoin="round" stroke-miterlimit="10" width="9.434" height="1.745"/>
	<g>
		<rect x="93.833" y="0.534" fill="#3E3D3F" width="4.717" height="1.745"/>
		<path fill="#3E3D3F" d="M98.549,2.813h-4.717c-0.295,0-0.534-0.24-0.534-0.534V0.534c0-0.294,0.239-0.533,0.534-0.533h4.717V2.813
			z M94.368,1.745h3.648V1.068h-3.648V1.745z"/>
	</g>
	<g>
		<path fill="#D01138" d="M98.299,6.118c18.939,0,25.193,1.906,25.193,1.906v1.414H98.299H73.106V8.024
			C73.106,8.024,79.36,6.118,98.299,6.118z"/>
		<path fill="#D01138" d="M72.635,9.438V8.024c0-0.207,0.136-0.391,0.334-0.449c0.257-0.08,6.536-1.929,25.33-1.929
			c18.793,0,25.277,1.849,25.535,1.929c0.197,0.059,0.334,0.242,0.334,0.449v1.414 M73.578,8.967h49.647V8.388
			c-1.524-0.37-8.655-1.799-24.926-1.799S75.102,8.018,73.578,8.388V8.967z"/>
	</g>
	<g>
		<polyline fill="#C11636" points="98.299,9.438 73.106,9.438 73.106,8.024 		"/>
		<path fill="#C11636" d="M98.282,9.438H72.615V8.024c0-0.193,0.136-0.365,0.337-0.428c0.258-0.078,6.545-1.93,25.348-1.93
			L98.282,9.438z"/>
	</g>
	<g>
		<path fill="#D9DADB" d="M56.012,16.144v22.392c0,0.256-0.209,0.466-0.467,0.466H7.874c-0.257,0-0.465-0.21-0.465-0.466V16.144
			H56.012z"/>
	</g>
	<g>
		<polyline fill="#D9DADB" points="55.535,12.761 7.862,12.761 7.862,14.221 		"/>
		<path fill="#D9DADB" d="M7.396,14.221v-1.46c0-0.256,0.209-0.467,0.466-0.467h47.672c0.257,0,0.466,0.211,0.466,0.467v1.46H7.396z
			"/>
	</g>
	
		<path fill="none" stroke="#5A595B" stroke-width="1.8633" stroke-linecap="round" stroke-linejoin="round" stroke-miterlimit="10" d="
		M24.758,10.491v-2.98c0-0.309,0.249-0.561,0.559-0.561h13.416c0.309,0,0.559,0.252,0.559,0.561v2.98"/>
	<path fill="#3E3D3F" d="M31.745,7.882h-6.055v2.609c0,0.513-0.418,0.932-0.932,0.932c-0.514,0-0.933-0.419-0.933-0.932v-2.98
		c0-0.824,0.669-1.492,1.491-1.492h6.428V7.882z"/>
	<g>
		<rect x="7.862" y="12.761" fill="#C6C6C9" width="23.837" height="1.46"/>
		<path fill="#C6C6C9" d="M7.398,14.221v-1.46c0-0.256,0.208-0.467,0.464-0.467h23.837v1.927H7.398 M8.329,13.755h22.904v-0.529
			H8.329V13.755z"/>
	</g>
	<g>
		<path fill="#C6C6C9" d="M31.71,16.144v22.857H7.874c-0.257,0-0.465-0.21-0.465-0.466V16.3v-0.156H31.71z M8.341,16.608"/>
	</g>
</g>
</svg>
