<?xml version="1.0" encoding="utf-8"?>
<!-- Generator: Adobe Illustrator 15.0.2, SVG Export Plug-In . SVG Version: 6.00 Build 0)  -->
<!DOCTYPE svg PUBLIC "-//W3C//DTD SVG 1.1//EN" "http://www.w3.org/Graphics/SVG/1.1/DTD/svg11.dtd">
<svg version="1.1" xmlns="http://www.w3.org/2000/svg" xmlns:xlink="http://www.w3.org/1999/xlink" x="0px" y="0px"
	 width="446.833px" height="388.984px" viewBox="0 0 446.833 388.984" enable-background="new 0 0 446.833 388.984"
	 xml:space="preserve">
<g id="Lager_2">
</g>
<g id="Lager_3">
</g>
<g id="Knappar">
</g>
<g id="Hår">
</g>
<g id="Glasögon">
</g>
<g id="Saker">
	<g>
		<g>
			<rect fill="#F8F8F8" width="446.833" height="336.152"/>
			<rect fill="#58585A" width="41.793" height="336.152"/>
			<rect y="168.076" fill="#3E3D40" width="41.793" height="168.076"/>
			<rect x="41.793" y="168.076" fill="#F2F2F3" width="405.04" height="168.076"/>
			<rect x="366.704" fill="#E9E9EA" width="80.129" height="80.718"/>
			<polygon fill="#FFFFFF" points="366.704,0 366.704,80.718 446.833,80.718 			"/>
		</g>
		<g>
			<polygon fill="#F4C09D" points="335.129,377.569 308.473,366.152 308.473,388.984 			"/>
			<rect x="24.854" y="366.152" fill="#FFD600" width="283.618" height="22.832"/>
			<polygon fill="#58585A" points="335.129,377.569 322.213,383.103 322.213,372.034 			"/>
			<rect x="16.472" y="366.152" fill="#C6C7C8" width="8.383" height="22.832"/>
			<rect x="0.419" y="366.152" fill="#E25A59" width="16.053" height="22.832"/>
			<rect x="24.854" y="377.569" fill="#FCC200" width="283.618" height="11.415"/>
			<rect x="16.472" y="377.569" fill="#B1B3B4" width="8.383" height="11.41"/>
			<rect x="0.419" y="377.569" fill="#D35454" width="16.053" height="11.41"/>
		</g>
		<path fill="none" stroke="#3E3D40" stroke-width="1.2548" stroke-miterlimit="10" d="M265.994,208.87c0,0-72.78,1.882-72.78,0
			s-3.764-34.508-33.88-34.508c-30.116,0-37.645,37.646-37.645,37.646s-1.882,0-23.842,0
			c0.628-60.859,79.054-108.543,79.054-108.543s82.4,15.477,162.709,45.592"/>
		<path fill="none" stroke="#3E3D40" stroke-width="1.2548" stroke-miterlimit="10" d="M161.843,184.401
			c0,0-24.469-3.765-28.861,20.705c-4.392,24.47,20.997,28.786,30.116,28.234c11.735-0.71,25.735-12.376,21.959-27.606
			C182.09,193.769,176.901,186.911,161.843,184.401z"/>
		<path fill="none" stroke="#3E3D40" stroke-width="1.2548" stroke-miterlimit="10" d="M139.884,131.698l-51.448-11.293
			c0,0-14.015,30.331,17.356,57.309"/>
		<path fill="none" stroke="#3E3D40" stroke-width="1.2548" stroke-miterlimit="10" d="M140.094,148.638
			c0,0,18.821-23.841,36.808-33.043c0,23.423,0,33.462,0,33.462L140.094,148.638z"/>
		<path fill="none" stroke="#3E3D40" stroke-width="1.2548" stroke-miterlimit="10" d="M284.816,200.923c0,0-42.245,0-82.4,0
			c-3.764-15.475-17.568-29.279-17.568-29.279v-56.885c0,0,63.16,12.966,92.438,24.678"/>
		
			<line fill="none" stroke="#87888A" stroke-width="0.75" stroke-miterlimit="10" x1="106.917" y1="119.964" x2="85.667" y2="140.13"/>
		<line fill="none" stroke="#87888A" stroke-width="0.75" stroke-miterlimit="10" x1="102.25" y1="117.964" x2="81" y2="138.13"/>
		
			<line fill="none" stroke="#87888A" stroke-width="0.75" stroke-miterlimit="10" x1="108.5" y1="123.298" x2="86.082" y2="145.527"/>
		
			<line fill="none" stroke="#87888A" stroke-width="0.75" stroke-miterlimit="10" x1="113.667" y1="124.464" x2="83.917" y2="152.714"/>
		
			<line fill="none" stroke="#87888A" stroke-width="0.75" stroke-miterlimit="10" x1="115.667" y1="129.214" x2="86.417" y2="156.964"/>
		
			<line fill="none" stroke="#87888A" stroke-width="0.75" stroke-miterlimit="10" x1="123.834" y1="126.464" x2="91.667" y2="157.297"/>
		<line fill="none" stroke="#87888A" stroke-width="0.75" stroke-miterlimit="10" x1="126" y1="129.63" x2="93" y2="162.297"/>
		
			<line fill="none" stroke="#87888A" stroke-width="0.75" stroke-miterlimit="10" x1="130.333" y1="131.63" x2="96.333" y2="164.964"/>
		
			<line fill="none" stroke="#87888A" stroke-width="0.75" stroke-miterlimit="10" x1="134.333" y1="133.13" x2="96.334" y2="170.797"/>
		
			<line opacity="0.4" fill="none" stroke="#3E3D40" stroke-width="0.5" stroke-miterlimit="10" x1="255.167" y1="56.964" x2="255.167" y2="262.964"/>
		
			<line opacity="0.4" fill="none" stroke="#3E3D40" stroke-width="0.5" stroke-miterlimit="10" x1="71.167" y1="157.964" x2="403.167" y2="157.964"/>
		<path fill="none" stroke="#3E3D40" stroke-width="0.75" stroke-miterlimit="10" d="M121,119.797c0,0-2.5-15.667,8.833-17.833
			s16.167,9.5,28.5-12"/>
		<path fill="none" stroke="#3E3D40" stroke-width="0.75" stroke-miterlimit="10" d="M189.453,225.791
			c0,0,14.026-7.414,19.729,2.617c1.787,3.146,2.082,6.124,2.394,8.878c0.423,3.738,0.878,7.062,5.145,9.824"/>
		<path fill="none" stroke="#3E3D40" stroke-width="0.75" stroke-miterlimit="10" d="M334.062,174.134c0,0-13.772-7.876-19.805,1.96
			c-6.032,9.836,3.172,18.48-21.3,22.419"/>
		<g>
			<path d="M162.395,89.479c0.053-0.205,0.117-0.427,0.192-0.667c0.074-0.24,0.157-0.488,0.246-0.742
				c0.09-0.254,0.187-0.509,0.294-0.764c0.106-0.254,0.221-0.496,0.344-0.726c0.124-0.224,0.259-0.394,0.406-0.51
				c0.147-0.116,0.292-0.188,0.436-0.215s0.275-0.021,0.394,0.016s0.222,0.1,0.31,0.186c0.088,0.087,0.163,0.193,0.223,0.319
				c0.061,0.125,0.106,0.266,0.136,0.421c0.024,0.127,0.043,0.299,0.059,0.517c0.015,0.218,0.044,0.442,0.088,0.675
				c0.025,0.133,0.057,0.262,0.095,0.39c0.039,0.127,0.085,0.239,0.141,0.334c0.056,0.096,0.125,0.168,0.209,0.218
				c0.084,0.05,0.184,0.064,0.299,0.042c0.133-0.025,0.259-0.088,0.377-0.187c0.118-0.1,0.229-0.224,0.333-0.372
				c0.104-0.149,0.199-0.31,0.287-0.483s0.164-0.346,0.229-0.516c0.065-0.17,0.121-0.332,0.166-0.486
				c0.045-0.154,0.081-0.283,0.107-0.385c0.032-0.138,0.116-0.219,0.254-0.245c0.094-0.018,0.175,0.001,0.243,0.057
				c0.067,0.056,0.108,0.123,0.123,0.2c0.008,0.044,0.008,0.087-0.001,0.129c-0.014,0.049-0.04,0.148-0.077,0.298
				c-0.038,0.15-0.093,0.327-0.167,0.529c-0.073,0.203-0.163,0.417-0.269,0.643c-0.106,0.226-0.231,0.44-0.373,0.641
				c-0.143,0.202-0.304,0.375-0.486,0.521c-0.181,0.146-0.382,0.24-0.604,0.281c-0.254,0.048-0.469,0.033-0.644-0.046
				c-0.175-0.078-0.321-0.193-0.438-0.342c-0.117-0.15-0.21-0.324-0.279-0.523c-0.069-0.199-0.122-0.395-0.158-0.588
				c-0.019-0.099-0.035-0.207-0.048-0.321s-0.025-0.229-0.035-0.341c-0.009-0.113-0.019-0.218-0.029-0.316
				c-0.01-0.099-0.021-0.181-0.034-0.247c-0.032-0.171-0.078-0.283-0.136-0.335c-0.058-0.052-0.118-0.072-0.179-0.061
				c-0.088,0.017-0.18,0.087-0.274,0.21c-0.094,0.124-0.188,0.28-0.281,0.469c-0.093,0.189-0.182,0.399-0.267,0.63
				c-0.086,0.231-0.167,0.459-0.245,0.686c-0.077,0.226-0.146,0.441-0.205,0.644c-0.059,0.203-0.107,0.371-0.145,0.504
				c-0.073,0.254-0.161,0.432-0.265,0.535c-0.104,0.103-0.202,0.163-0.296,0.181c-0.171,0.032-0.315-0.011-0.432-0.129
				c-0.117-0.119-0.193-0.274-0.23-0.468l-0.098-0.522c-0.197-1.045-0.384-2.042-0.56-2.99c-0.176-0.948-0.329-1.833-0.458-2.653
				c-0.128-0.82-0.227-1.565-0.293-2.237c-0.066-0.671-0.085-1.251-0.058-1.741c0.028-0.488,0.108-0.877,0.24-1.166
				c0.132-0.288,0.333-0.458,0.604-0.508c0.232-0.044,0.44-0.018,0.625,0.08c0.184,0.097,0.347,0.245,0.487,0.445
				c0.141,0.199,0.261,0.44,0.36,0.722c0.099,0.281,0.179,0.583,0.239,0.903c0.123,0.652,0.184,1.303,0.184,1.953
				c0,0.65-0.043,1.292-0.13,1.926c-0.086,0.635-0.209,1.26-0.367,1.876c-0.159,0.617-0.334,1.221-0.525,1.812
				c0.019,0.099,0.041,0.218,0.067,0.356c0.026,0.138,0.052,0.276,0.079,0.415c0.026,0.138,0.05,0.268,0.073,0.39
				s0.041,0.218,0.055,0.29L162.395,89.479z M161.818,86.419c0.136-0.552,0.254-1.088,0.354-1.607c0.1-0.52,0.171-1.033,0.217-1.54
				c0.044-0.506,0.059-1.014,0.043-1.523s-0.074-1.032-0.175-1.568c-0.017-0.088-0.048-0.229-0.092-0.42
				c-0.045-0.192-0.107-0.384-0.186-0.575c-0.079-0.191-0.175-0.354-0.289-0.487c-0.114-0.133-0.248-0.185-0.403-0.155
				c-0.122,0.022-0.211,0.124-0.269,0.303c-0.058,0.18-0.094,0.416-0.107,0.708c-0.014,0.291-0.008,0.626,0.018,1.005
				c0.026,0.379,0.064,0.778,0.115,1.198c0.05,0.42,0.11,0.849,0.178,1.289s0.139,0.865,0.211,1.278
				c0.072,0.413,0.142,0.799,0.21,1.159S161.768,86.154,161.818,86.419z"/>
			<path d="M174.222,85.583c-0.014,0.049-0.042,0.149-0.085,0.304s-0.1,0.333-0.173,0.535s-0.163,0.417-0.27,0.643
				c-0.106,0.226-0.232,0.439-0.378,0.638c-0.146,0.199-0.31,0.372-0.494,0.518c-0.185,0.146-0.39,0.241-0.617,0.284
				c-0.32,0.061-0.609,0.009-0.866-0.154s-0.464-0.39-0.622-0.681c-0.128,0.35-0.305,0.643-0.53,0.877
				c-0.225,0.234-0.468,0.375-0.727,0.424c-0.205,0.039-0.397,0.037-0.577-0.007c-0.18-0.043-0.341-0.122-0.482-0.235
				s-0.262-0.255-0.359-0.426s-0.167-0.363-0.208-0.579c-0.082-0.431-0.08-0.825,0.005-1.181c0.084-0.357,0.219-0.667,0.404-0.931
				c0.185-0.264,0.403-0.477,0.656-0.639s0.506-0.267,0.761-0.315c0.171-0.032,0.333-0.038,0.485-0.018
				c0.153,0.02,0.286,0.048,0.398,0.083c0.113,0.036,0.201,0.072,0.265,0.109s0.099,0.057,0.106,0.062
				c0.075,0.06,0.119,0.129,0.133,0.206c0.016,0.083,0,0.162-0.05,0.237c-0.049,0.075-0.114,0.12-0.197,0.136
				c-0.089,0.017-0.169,0-0.241-0.049c-0.013-0.009-0.042-0.025-0.086-0.048s-0.103-0.045-0.176-0.065
				c-0.072-0.021-0.156-0.035-0.252-0.042c-0.096-0.008-0.202-0.001-0.318,0.021c-0.171,0.032-0.346,0.105-0.525,0.219
				c-0.18,0.114-0.333,0.268-0.463,0.461s-0.225,0.423-0.287,0.689c-0.062,0.267-0.061,0.569,0.003,0.906
				c0.02,0.105,0.051,0.209,0.094,0.313c0.042,0.104,0.1,0.194,0.172,0.272c0.072,0.078,0.16,0.136,0.264,0.173
				c0.104,0.038,0.226,0.043,0.364,0.018c0.1-0.019,0.208-0.074,0.325-0.164c0.118-0.091,0.223-0.216,0.316-0.377
				c0.092-0.16,0.167-0.355,0.224-0.583c0.058-0.229,0.078-0.49,0.063-0.785c-0.004-0.08,0.02-0.151,0.071-0.215
				c0.051-0.064,0.118-0.104,0.201-0.12c0.078-0.015,0.151,0.003,0.22,0.053s0.114,0.113,0.135,0.189
				c0.025,0.104,0.064,0.25,0.117,0.437c0.053,0.188,0.125,0.37,0.219,0.547c0.094,0.176,0.211,0.323,0.354,0.439
				s0.315,0.155,0.52,0.117c0.133-0.025,0.257-0.086,0.374-0.182c0.116-0.096,0.225-0.216,0.327-0.358
				c0.103-0.142,0.195-0.3,0.28-0.473c0.085-0.174,0.16-0.347,0.224-0.519s0.12-0.337,0.165-0.495s0.082-0.293,0.112-0.408
				c0.017-0.066,0.047-0.121,0.093-0.164c0.047-0.043,0.1-0.07,0.161-0.082c0.094-0.018,0.176,0.002,0.248,0.061
				c0.071,0.058,0.114,0.126,0.128,0.203C174.232,85.501,174.231,85.542,174.222,85.583z M170.345,82.554
				c0.03,0.16,0.027,0.318-0.009,0.474c-0.037,0.156-0.099,0.298-0.187,0.426c-0.087,0.128-0.198,0.238-0.333,0.329
				c-0.135,0.091-0.285,0.152-0.451,0.184c-0.16,0.03-0.318,0.027-0.474-0.009c-0.156-0.036-0.298-0.099-0.426-0.186
				s-0.237-0.197-0.328-0.329c-0.091-0.131-0.151-0.278-0.182-0.438s-0.027-0.318,0.01-0.474c0.037-0.156,0.098-0.297,0.186-0.426
				c0.087-0.128,0.197-0.237,0.329-0.328c0.131-0.091,0.277-0.151,0.438-0.182c0.166-0.031,0.328-0.029,0.487,0.007
				c0.158,0.036,0.301,0.098,0.429,0.185c0.128,0.088,0.238,0.197,0.328,0.329C170.255,82.247,170.315,82.394,170.345,82.554z
				 M169.798,82.657c-0.035-0.182-0.126-0.322-0.277-0.42c-0.15-0.097-0.316-0.129-0.499-0.095
				c-0.177,0.033-0.316,0.123-0.417,0.268c-0.102,0.146-0.135,0.309-0.101,0.492c0.034,0.176,0.124,0.315,0.272,0.417
				s0.31,0.134,0.487,0.101c0.182-0.034,0.326-0.125,0.429-0.273C169.796,82.996,169.831,82.833,169.798,82.657z"/>
			<path d="M178.371,84.818c-0.037,0.138-0.084,0.303-0.143,0.495c-0.059,0.191-0.128,0.392-0.208,0.602
				c-0.081,0.21-0.175,0.421-0.284,0.633c-0.108,0.212-0.234,0.407-0.375,0.586c-0.141,0.178-0.298,0.331-0.472,0.458
				c-0.174,0.127-0.368,0.211-0.584,0.252c-0.332,0.062-0.635,0.014-0.912-0.146s-0.528-0.39-0.757-0.69
				c-0.228-0.3-0.433-0.652-0.615-1.055c-0.182-0.404-0.342-0.82-0.48-1.25c-0.138-0.429-0.256-0.849-0.354-1.26
				c-0.098-0.411-0.177-0.777-0.237-1.097c-0.087-0.464-0.163-0.948-0.226-1.452c-0.063-0.502-0.107-0.999-0.13-1.486
				c-0.023-0.488-0.024-0.954-0.001-1.399c0.022-0.445,0.073-0.841,0.154-1.188c0.081-0.347,0.194-0.632,0.341-0.854
				s0.337-0.355,0.569-0.399c0.183-0.035,0.355-0.023,0.518,0.035s0.312,0.175,0.448,0.349c0.136,0.175,0.261,0.412,0.375,0.71
				c0.114,0.3,0.212,0.673,0.297,1.121c0.104,0.553,0.154,1.134,0.149,1.745c-0.005,0.61-0.051,1.233-0.138,1.868
				c-0.086,0.634-0.209,1.274-0.367,1.919c-0.159,0.646-0.34,1.279-0.543,1.901c0.271,0.676,0.56,1.193,0.868,1.55
				c0.308,0.357,0.625,0.505,0.951,0.443c0.221-0.042,0.417-0.169,0.589-0.382c0.171-0.213,0.321-0.454,0.447-0.724
				c0.126-0.27,0.231-0.54,0.315-0.811s0.147-0.487,0.19-0.65c0.018-0.061,0.048-0.111,0.092-0.15
				c0.044-0.04,0.096-0.065,0.157-0.077c0.094-0.018,0.176,0.001,0.247,0.056c0.071,0.056,0.114,0.125,0.129,0.208
				C178.385,84.712,178.383,84.759,178.371,84.818z M173.588,82.268c0.066,0.354,0.139,0.692,0.217,1.016
				c0.078,0.323,0.159,0.631,0.243,0.924c0.148-0.491,0.279-1.009,0.394-1.555c0.114-0.545,0.203-1.092,0.266-1.639
				c0.063-0.547,0.095-1.085,0.095-1.615s-0.043-1.026-0.131-1.491c-0.123-0.652-0.264-1.109-0.422-1.372s-0.326-0.376-0.502-0.343
				c-0.116,0.022-0.213,0.123-0.291,0.304s-0.137,0.418-0.179,0.712c-0.042,0.294-0.066,0.636-0.072,1.027
				c-0.007,0.391,0.004,0.806,0.033,1.248c0.029,0.44,0.072,0.899,0.13,1.375S173.5,81.804,173.588,82.268z"/>
			<path d="M182.525,84.035c-0.037,0.139-0.084,0.304-0.143,0.495s-0.128,0.392-0.208,0.602c-0.081,0.21-0.175,0.421-0.284,0.633
				c-0.108,0.212-0.234,0.407-0.375,0.586c-0.141,0.178-0.298,0.331-0.472,0.458c-0.174,0.127-0.368,0.211-0.583,0.252
				c-0.332,0.062-0.636,0.014-0.912-0.146c-0.276-0.159-0.528-0.389-0.757-0.69c-0.228-0.3-0.433-0.652-0.615-1.056
				c-0.182-0.404-0.342-0.82-0.48-1.249s-0.256-0.849-0.354-1.26c-0.098-0.411-0.177-0.777-0.237-1.097
				c-0.088-0.465-0.163-0.948-0.227-1.452c-0.063-0.503-0.107-0.999-0.13-1.486c-0.023-0.488-0.024-0.954-0.002-1.399
				s0.073-0.841,0.154-1.188c0.081-0.347,0.194-0.632,0.341-0.854c0.147-0.223,0.337-0.355,0.569-0.399
				c0.183-0.035,0.355-0.023,0.518,0.035s0.312,0.174,0.448,0.349s0.261,0.412,0.375,0.71c0.114,0.3,0.213,0.673,0.297,1.121
				c0.104,0.553,0.153,1.134,0.149,1.745c-0.005,0.611-0.051,1.233-0.138,1.868c-0.086,0.634-0.209,1.274-0.368,1.919
				c-0.159,0.646-0.34,1.279-0.543,1.901c0.271,0.676,0.56,1.193,0.868,1.55c0.308,0.357,0.625,0.505,0.951,0.443
				c0.221-0.042,0.417-0.169,0.589-0.382c0.171-0.213,0.321-0.454,0.447-0.724c0.126-0.27,0.231-0.54,0.315-0.811
				c0.084-0.271,0.147-0.487,0.191-0.65c0.017-0.06,0.048-0.11,0.092-0.15c0.043-0.04,0.096-0.065,0.157-0.077
				c0.094-0.018,0.176,0.001,0.247,0.056c0.071,0.055,0.114,0.125,0.13,0.207C182.539,83.929,182.537,83.976,182.525,84.035z
				 M177.742,81.485c0.066,0.354,0.139,0.692,0.217,1.016c0.078,0.323,0.159,0.63,0.243,0.924c0.147-0.491,0.279-1.01,0.394-1.555
				c0.115-0.545,0.204-1.091,0.266-1.639c0.063-0.547,0.095-1.085,0.095-1.615c0-0.53-0.043-1.026-0.13-1.491
				c-0.123-0.652-0.264-1.109-0.422-1.372s-0.325-0.376-0.502-0.343c-0.116,0.022-0.213,0.123-0.291,0.304
				c-0.077,0.181-0.137,0.418-0.179,0.712c-0.042,0.294-0.066,0.636-0.072,1.027c-0.007,0.39,0.004,0.806,0.034,1.248
				c0.028,0.44,0.072,0.899,0.13,1.375C177.582,80.551,177.655,81.021,177.742,81.485z"/>
			<path d="M188.95,82.823c-0.01,0.036-0.033,0.111-0.069,0.223c-0.036,0.113-0.085,0.245-0.148,0.397
				c-0.062,0.152-0.141,0.315-0.233,0.491c-0.093,0.175-0.199,0.339-0.319,0.493c-0.12,0.154-0.255,0.289-0.405,0.403
				c-0.15,0.114-0.314,0.188-0.491,0.221c-0.288,0.054-0.54,0.049-0.758-0.015c-0.218-0.065-0.403-0.149-0.554-0.252
				c-0.052,0.21-0.126,0.407-0.224,0.591c-0.097,0.185-0.211,0.35-0.344,0.499c-0.132,0.148-0.279,0.271-0.441,0.371
				c-0.162,0.099-0.333,0.166-0.516,0.2c-0.337,0.063-0.643,0.019-0.918-0.136c-0.275-0.154-0.523-0.383-0.744-0.688
				s-0.417-0.67-0.588-1.096c-0.172-0.426-0.328-0.877-0.466-1.354c-0.138-0.478-0.26-0.964-0.365-1.459
				c-0.104-0.496-0.2-0.967-0.284-1.415c-0.161-0.856-0.276-1.604-0.345-2.24c-0.068-0.637-0.102-1.183-0.099-1.639
				s0.035-0.831,0.097-1.125c0.062-0.295,0.142-0.531,0.24-0.707c0.099-0.176,0.209-0.304,0.331-0.384
				c0.123-0.08,0.247-0.132,0.375-0.156c0.205-0.039,0.397-0.012,0.577,0.08c0.181,0.092,0.345,0.237,0.495,0.435
				c0.148,0.198,0.28,0.447,0.394,0.746c0.114,0.299,0.205,0.634,0.275,1.005c0.112,0.591,0.164,1.214,0.155,1.868
				c-0.008,0.654-0.054,1.313-0.138,1.979s-0.192,1.324-0.328,1.977c-0.134,0.652-0.272,1.272-0.413,1.859
				c0.084,0.265,0.182,0.514,0.294,0.747c0.113,0.233,0.24,0.436,0.381,0.606c0.141,0.171,0.294,0.3,0.459,0.386
				c0.165,0.086,0.341,0.112,0.529,0.076c0.188-0.035,0.355-0.123,0.5-0.262c0.146-0.139,0.263-0.307,0.352-0.504
				c0.088-0.197,0.147-0.413,0.174-0.647c0.027-0.234,0.019-0.467-0.024-0.7c-0.029-0.154-0.074-0.308-0.134-0.459
				c-0.06-0.152-0.133-0.284-0.221-0.396c-0.087-0.112-0.185-0.199-0.293-0.258c-0.109-0.06-0.229-0.077-0.362-0.052
				c-0.099,0.019-0.172,0.054-0.22,0.106c-0.048,0.052-0.081,0.107-0.098,0.165c-0.018,0.057-0.025,0.112-0.021,0.162
				c0.003,0.051,0.007,0.085,0.01,0.102c0.015,0.077,0.046,0.151,0.094,0.222c0.048,0.072,0.125,0.128,0.229,0.171
				c0.107,0.049,0.171,0.131,0.193,0.248c0.018,0.093,0,0.174-0.053,0.241c-0.054,0.067-0.119,0.108-0.196,0.123
				c-0.111,0.021-0.215,0.006-0.312-0.044c-0.099-0.05-0.188-0.121-0.268-0.211c-0.081-0.091-0.148-0.191-0.203-0.301
				c-0.055-0.11-0.092-0.215-0.111-0.314c-0.03-0.161-0.03-0.313,0-0.459s0.083-0.276,0.162-0.391
				c0.079-0.115,0.175-0.21,0.29-0.287c0.114-0.076,0.241-0.127,0.379-0.153c0.238-0.045,0.455-0.029,0.649,0.049
				c0.194,0.078,0.368,0.197,0.518,0.357s0.275,0.352,0.374,0.574c0.099,0.221,0.171,0.451,0.216,0.688
				c0.026,0.138,0.043,0.275,0.052,0.411c0.03,0.04,0.077,0.091,0.141,0.154s0.143,0.119,0.238,0.17
				c0.096,0.05,0.206,0.09,0.332,0.118c0.125,0.028,0.265,0.027,0.42-0.002c0.133-0.025,0.26-0.102,0.382-0.23
				c0.121-0.129,0.233-0.282,0.334-0.458c0.101-0.177,0.19-0.363,0.268-0.558c0.078-0.195,0.139-0.374,0.182-0.537
				c0.017-0.061,0.048-0.11,0.092-0.15c0.044-0.04,0.096-0.065,0.157-0.077c0.094-0.018,0.176,0.001,0.247,0.057
				c0.071,0.055,0.114,0.125,0.13,0.207C188.965,82.718,188.962,82.764,188.95,82.823z M182.339,82.962
				c0.101-0.5,0.199-1.023,0.297-1.572c0.097-0.548,0.173-1.101,0.227-1.661c0.055-0.56,0.081-1.12,0.078-1.681
				c-0.002-0.56-0.053-1.103-0.152-1.628c-0.038-0.199-0.086-0.406-0.147-0.62c-0.061-0.215-0.133-0.409-0.217-0.582
				c-0.084-0.173-0.181-0.312-0.29-0.417c-0.108-0.106-0.229-0.146-0.361-0.121c-0.044,0.008-0.096,0.048-0.154,0.119
				c-0.058,0.071-0.112,0.187-0.161,0.348c-0.05,0.161-0.089,0.379-0.118,0.653c-0.029,0.275-0.037,0.618-0.025,1.031
				c0.012,0.413,0.051,0.905,0.116,1.477c0.064,0.572,0.169,1.239,0.313,2.001c0.048,0.254,0.1,0.512,0.154,0.773
				c0.055,0.262,0.109,0.511,0.163,0.747c0.053,0.236,0.104,0.453,0.152,0.649C182.263,82.676,182.305,82.837,182.339,82.962z"/>
			<path d="M194.793,81.704c-0.014,0.049-0.042,0.149-0.084,0.304s-0.101,0.333-0.174,0.535c-0.074,0.203-0.164,0.417-0.27,0.643
				c-0.106,0.226-0.231,0.439-0.377,0.638c-0.146,0.199-0.311,0.372-0.495,0.518c-0.184,0.146-0.39,0.241-0.616,0.284
				c-0.32,0.061-0.609,0.009-0.866-0.154c-0.257-0.163-0.464-0.39-0.622-0.681c-0.129,0.35-0.306,0.643-0.53,0.877
				c-0.225,0.234-0.467,0.375-0.727,0.424c-0.205,0.039-0.396,0.037-0.577-0.007c-0.18-0.043-0.34-0.122-0.482-0.235
				c-0.142-0.114-0.261-0.256-0.359-0.426s-0.167-0.363-0.208-0.579c-0.081-0.431-0.079-0.825,0.005-1.181
				c0.085-0.357,0.219-0.667,0.405-0.931c0.185-0.264,0.403-0.477,0.656-0.639c0.253-0.163,0.507-0.268,0.761-0.315
				c0.171-0.033,0.333-0.039,0.486-0.019c0.152,0.02,0.285,0.048,0.398,0.083c0.112,0.036,0.201,0.072,0.265,0.109
				c0.064,0.037,0.1,0.057,0.106,0.062c0.074,0.06,0.119,0.129,0.133,0.206c0.016,0.083-0.001,0.162-0.05,0.237
				s-0.114,0.12-0.197,0.136c-0.088,0.017-0.169,0-0.242-0.049c-0.013-0.009-0.042-0.025-0.086-0.048
				c-0.044-0.023-0.103-0.045-0.175-0.066c-0.073-0.021-0.157-0.034-0.253-0.042s-0.202,0-0.318,0.021
				c-0.171,0.033-0.347,0.106-0.526,0.22c-0.179,0.114-0.333,0.267-0.462,0.46c-0.13,0.194-0.226,0.423-0.287,0.689
				c-0.061,0.266-0.06,0.568,0.004,0.905c0.02,0.105,0.051,0.209,0.093,0.313c0.042,0.104,0.1,0.194,0.171,0.272
				c0.072,0.078,0.16,0.136,0.264,0.173c0.105,0.038,0.226,0.043,0.364,0.017c0.099-0.019,0.208-0.073,0.325-0.164
				s0.223-0.216,0.315-0.377s0.167-0.355,0.225-0.583c0.057-0.229,0.078-0.49,0.062-0.785c-0.003-0.08,0.021-0.151,0.071-0.215
				s0.118-0.104,0.201-0.12c0.077-0.015,0.15,0.003,0.22,0.053c0.069,0.05,0.114,0.113,0.134,0.189
				c0.025,0.104,0.064,0.25,0.117,0.437c0.052,0.188,0.125,0.37,0.219,0.547c0.093,0.176,0.211,0.323,0.354,0.439
				s0.315,0.155,0.52,0.117c0.132-0.025,0.257-0.086,0.374-0.182c0.116-0.097,0.225-0.216,0.328-0.358
				c0.102-0.142,0.195-0.3,0.279-0.473c0.085-0.174,0.16-0.347,0.224-0.519c0.065-0.172,0.12-0.337,0.165-0.495
				s0.082-0.293,0.112-0.408c0.016-0.066,0.047-0.121,0.094-0.164c0.046-0.043,0.1-0.07,0.161-0.082
				c0.094-0.018,0.176,0.002,0.247,0.061c0.071,0.058,0.114,0.126,0.128,0.203C194.803,81.622,194.802,81.663,194.793,81.704z"/>
			<path d="M194.885,80.553c0.006,0.154,0.005,0.298-0.004,0.435s-0.02,0.256-0.031,0.358c-0.012,0.102-0.023,0.186-0.034,0.251
				s-0.019,0.101-0.022,0.107c-0.032,0.138-0.116,0.22-0.254,0.246c-0.077,0.015-0.155-0.001-0.232-0.046
				c-0.078-0.045-0.125-0.112-0.141-0.201c-0.006-0.033-0.005-0.059,0.002-0.078s0.018-0.055,0.031-0.108
				c0.013-0.054,0.024-0.143,0.036-0.265c0.011-0.123,0.019-0.31,0.023-0.562c-0.094,0.018-0.191,0.033-0.292,0.046
				c-0.101,0.013-0.197,0.012-0.289-0.005s-0.172-0.057-0.241-0.118c-0.069-0.061-0.115-0.155-0.139-0.283
				c-0.018-0.094-0.015-0.226,0.007-0.396c0.022-0.171,0.063-0.342,0.123-0.513c0.06-0.172,0.133-0.324,0.222-0.459
				c0.09-0.134,0.189-0.211,0.3-0.232c0.127-0.024,0.24,0.003,0.337,0.083c0.098,0.079,0.182,0.182,0.251,0.309
				c0.07,0.127,0.129,0.263,0.176,0.409s0.082,0.274,0.102,0.384c0.094-0.018,0.187-0.037,0.277-0.056
				c0.09-0.02,0.178-0.038,0.261-0.054c0.314-0.059,0.568-0.036,0.76,0.071c0.191,0.107,0.317,0.318,0.376,0.633
				c0.024,0.127,0.041,0.261,0.051,0.402c0.009,0.141,0.017,0.287,0.022,0.438c0.005,0.15,0.014,0.299,0.024,0.446
				c0.01,0.147,0.029,0.29,0.055,0.428c0.038,0.199,0.096,0.358,0.176,0.478c0.08,0.119,0.168,0.209,0.266,0.272
				c0.098,0.062,0.197,0.099,0.296,0.111c0.099,0.013,0.188,0.012,0.266-0.002c0.237-0.045,0.447-0.165,0.628-0.359
				c0.18-0.195,0.339-0.417,0.475-0.669c0.136-0.252,0.251-0.513,0.346-0.782c0.095-0.27,0.172-0.505,0.232-0.705
				c0.018-0.055,0.05-0.101,0.094-0.138c0.044-0.037,0.094-0.061,0.15-0.071c0.099-0.019,0.183-0.001,0.25,0.052
				c0.068,0.053,0.108,0.119,0.123,0.196c0.01,0.055,0.009,0.107-0.005,0.155c-0.084,0.251-0.184,0.534-0.299,0.851
				c-0.115,0.316-0.257,0.619-0.425,0.908c-0.169,0.29-0.372,0.545-0.607,0.767c-0.236,0.222-0.514,0.363-0.834,0.424
				c-0.199,0.037-0.394,0.035-0.585-0.006c-0.191-0.042-0.365-0.12-0.521-0.236c-0.156-0.117-0.292-0.271-0.409-0.464
				c-0.116-0.193-0.199-0.419-0.248-0.679c-0.052-0.276-0.076-0.557-0.073-0.84c0.003-0.285-0.018-0.551-0.065-0.799
				c-0.02-0.105-0.058-0.18-0.115-0.223c-0.057-0.043-0.166-0.05-0.326-0.021c-0.077,0.015-0.162,0.031-0.252,0.048
				C195.086,80.507,194.989,80.528,194.885,80.553z M194.214,80.045c-0.008-0.039-0.019-0.089-0.034-0.153
				c-0.015-0.062-0.032-0.124-0.051-0.184c-0.02-0.059-0.041-0.109-0.063-0.151c-0.022-0.042-0.042-0.061-0.058-0.058
				s-0.033,0.028-0.051,0.074c-0.017,0.046-0.033,0.101-0.05,0.164c-0.017,0.063-0.03,0.13-0.04,0.201
				c-0.01,0.07-0.016,0.129-0.018,0.175L194.214,80.045z"/>
		</g>
		<g>
			<path d="M344.273,175.03c-0.023,0.046-0.07,0.14-0.141,0.282c-0.07,0.145-0.16,0.309-0.27,0.494s-0.237,0.38-0.384,0.582
				c-0.146,0.203-0.31,0.389-0.489,0.557c-0.18,0.169-0.374,0.309-0.582,0.418c-0.209,0.109-0.428,0.164-0.658,0.164
				c-0.326,0-0.601-0.104-0.822-0.312c-0.223-0.208-0.385-0.47-0.486-0.784c-0.19,0.32-0.418,0.574-0.683,0.764
				c-0.265,0.188-0.528,0.281-0.794,0.281c-0.207,0-0.396-0.037-0.564-0.113c-0.169-0.076-0.312-0.183-0.43-0.32
				c-0.119-0.139-0.211-0.3-0.275-0.485s-0.097-0.388-0.097-0.607c0-0.438,0.075-0.825,0.224-1.16s0.339-0.614,0.57-0.839
				c0.23-0.226,0.484-0.395,0.763-0.507s0.548-0.169,0.806-0.169c0.175,0,0.335,0.023,0.48,0.072c0.146,0.047,0.271,0.1,0.377,0.156
				c0.104,0.056,0.184,0.107,0.24,0.155c0.056,0.048,0.086,0.075,0.092,0.081c0.062,0.072,0.094,0.148,0.094,0.227
				c0,0.085-0.031,0.16-0.094,0.225c-0.062,0.064-0.135,0.097-0.219,0.097c-0.09,0-0.166-0.031-0.229-0.093
				c-0.011-0.012-0.036-0.033-0.075-0.063c-0.04-0.03-0.093-0.063-0.161-0.097c-0.066-0.034-0.146-0.063-0.24-0.089
				c-0.092-0.025-0.197-0.038-0.316-0.038c-0.174,0-0.359,0.039-0.557,0.118s-0.377,0.201-0.539,0.367
				c-0.164,0.166-0.301,0.374-0.41,0.624s-0.164,0.547-0.164,0.891c0,0.106,0.012,0.215,0.033,0.324
				c0.023,0.109,0.062,0.21,0.119,0.3c0.056,0.09,0.131,0.163,0.227,0.22s0.215,0.084,0.355,0.084c0.101,0,0.217-0.033,0.35-0.102
				c0.133-0.066,0.259-0.171,0.379-0.312c0.121-0.141,0.231-0.317,0.33-0.532c0.098-0.213,0.167-0.467,0.207-0.759
				c0.011-0.079,0.047-0.146,0.109-0.198c0.062-0.054,0.135-0.08,0.219-0.08c0.079,0,0.148,0.031,0.207,0.093
				s0.092,0.132,0.098,0.211c0.005,0.106,0.016,0.257,0.033,0.451s0.055,0.387,0.113,0.578c0.06,0.19,0.148,0.356,0.266,0.497
				c0.119,0.141,0.281,0.211,0.49,0.211c0.135,0,0.269-0.036,0.4-0.109c0.133-0.072,0.262-0.17,0.389-0.291s0.247-0.259,0.362-0.413
				c0.116-0.155,0.222-0.312,0.316-0.468c0.096-0.158,0.181-0.311,0.253-0.456c0.074-0.146,0.135-0.272,0.186-0.38
				c0.029-0.062,0.069-0.109,0.123-0.144c0.053-0.034,0.111-0.05,0.173-0.05c0.095,0,0.173,0.035,0.231,0.105
				c0.06,0.07,0.089,0.145,0.089,0.223C344.298,174.951,344.289,174.991,344.273,175.03z M341.024,171.335
				c0,0.163-0.032,0.317-0.097,0.464s-0.152,0.274-0.262,0.384c-0.109,0.11-0.239,0.197-0.389,0.262
				c-0.148,0.065-0.308,0.097-0.477,0.097c-0.163,0-0.318-0.031-0.464-0.097c-0.146-0.064-0.274-0.151-0.384-0.262
				c-0.109-0.109-0.197-0.237-0.262-0.384s-0.098-0.301-0.098-0.464s0.033-0.317,0.098-0.464s0.152-0.274,0.262-0.385
				c0.109-0.109,0.237-0.196,0.384-0.261c0.146-0.065,0.301-0.097,0.464-0.097c0.169,0,0.328,0.031,0.477,0.097
				c0.149,0.064,0.279,0.151,0.389,0.261c0.109,0.11,0.197,0.238,0.262,0.385S341.024,171.172,341.024,171.335z M340.467,171.335
				c0-0.186-0.064-0.341-0.193-0.464c-0.129-0.124-0.287-0.186-0.473-0.186c-0.18,0-0.333,0.062-0.459,0.186
				c-0.127,0.123-0.19,0.278-0.19,0.464c0,0.18,0.063,0.333,0.19,0.46c0.126,0.127,0.279,0.189,0.459,0.189
				c0.186,0,0.344-0.062,0.473-0.189S340.467,171.515,340.467,171.335z"/>
			<path d="M350.525,168.938c0,0.091-0.031,0.162-0.094,0.216c-0.062,0.053-0.137,0.08-0.228,0.08h-4.278v0.092
				c0,0.344-0.025,0.709-0.075,1.098c-0.051,0.388-0.12,0.774-0.206,1.16c-0.088,0.385-0.187,0.761-0.296,1.126
				c-0.11,0.366-0.222,0.703-0.337,1.013c-0.116,0.31-0.23,0.578-0.342,0.806c-0.113,0.228-0.215,0.397-0.305,0.511
				c0.073,0.259,0.16,0.499,0.262,0.721c0.102,0.223,0.215,0.417,0.342,0.582c0.127,0.166,0.264,0.297,0.409,0.393
				c0.146,0.096,0.304,0.145,0.473,0.145c0.196,0,0.392-0.084,0.587-0.25c0.193-0.166,0.373-0.362,0.539-0.59
				c0.166-0.229,0.312-0.459,0.439-0.692c0.126-0.233,0.218-0.421,0.273-0.562c0.057-0.135,0.155-0.201,0.296-0.201
				c0.095,0,0.173,0.033,0.231,0.101c0.06,0.067,0.089,0.141,0.089,0.22c0,0.039-0.009,0.078-0.025,0.117
				c-0.017,0.04-0.058,0.13-0.122,0.271s-0.148,0.304-0.254,0.489c-0.104,0.186-0.225,0.381-0.362,0.586
				c-0.138,0.206-0.292,0.393-0.464,0.562s-0.355,0.31-0.553,0.422s-0.404,0.169-0.625,0.169c-0.387,0-0.736-0.127-1.045-0.38
				c-0.311-0.253-0.572-0.607-0.789-1.063c-0.217-0.455-0.381-0.995-0.494-1.619c-0.112-0.625-0.168-1.309-0.168-2.051
				c0-0.186,0.002-0.403,0.008-0.654c0.006-0.25,0.018-0.514,0.033-0.793c0.018-0.277,0.043-0.564,0.076-0.86
				c0.034-0.295,0.079-0.583,0.135-0.864h-3.028c-0.091,0-0.166-0.027-0.228-0.08c-0.062-0.054-0.094-0.125-0.094-0.216
				c0-0.09,0.031-0.161,0.094-0.215c0.062-0.054,0.137-0.08,0.228-0.08h3.173c0.056-0.202,0.121-0.388,0.197-0.558
				c0.076-0.168,0.164-0.314,0.262-0.438c0.099-0.125,0.209-0.222,0.33-0.292c0.12-0.07,0.254-0.105,0.4-0.105
				c0.141,0,0.263,0.035,0.367,0.105c0.104,0.07,0.191,0.167,0.266,0.292c0.072,0.123,0.131,0.27,0.172,0.438
				c0.043,0.17,0.075,0.355,0.098,0.558h4.312c0.091,0,0.166,0.026,0.228,0.08C350.494,168.777,350.525,168.849,350.525,168.938z
				 M344.172,174.195c0.168-0.371,0.322-0.771,0.459-1.203c0.139-0.43,0.256-0.864,0.355-1.303c0.098-0.439,0.174-0.869,0.227-1.291
				c0.055-0.422,0.08-0.811,0.08-1.164h-0.995c-0.079,0.348-0.142,0.78-0.19,1.295c-0.047,0.515-0.07,1.141-0.07,1.877
				c0,0.41,0.011,0.756,0.033,1.033C344.093,173.719,344.127,173.971,344.172,174.195z M344.956,167.884
				c-0.05,0-0.124,0.056-0.22,0.165s-0.191,0.308-0.287,0.595h0.811c-0.027-0.236-0.068-0.422-0.122-0.558
				C345.084,167.951,345.023,167.884,344.956,167.884z"/>
			<path d="M348.736,176.457c0.117,0.162,0.27,0.293,0.455,0.392s0.414,0.147,0.684,0.147c0.275,0,0.525-0.066,0.751-0.198
				s0.431-0.305,0.616-0.519s0.352-0.453,0.498-0.717c0.146-0.265,0.277-0.529,0.396-0.793c0.027-0.062,0.066-0.109,0.117-0.14
				c0.051-0.031,0.107-0.046,0.17-0.046c0.096,0,0.172,0.033,0.231,0.101s0.089,0.141,0.089,0.22c0,0.027-0.003,0.052-0.009,0.071
				c-0.005,0.02-0.015,0.041-0.025,0.063c-0.388,0.855-0.812,1.499-1.27,1.932c-0.458,0.434-0.978,0.656-1.558,0.667
				c-0.371,0-0.691-0.071-0.961-0.216c-0.27-0.143-0.492-0.328-0.666-0.557c-0.176-0.228-0.305-0.484-0.389-0.771
				s-0.127-0.574-0.127-0.861c0-0.286,0.035-0.551,0.105-0.793s0.172-0.453,0.305-0.633c0.131-0.18,0.289-0.32,0.472-0.422
				s0.384-0.151,0.604-0.151c0.13,0,0.257,0.026,0.384,0.08s0.24,0.13,0.342,0.228c0.102,0.099,0.183,0.219,0.244,0.359
				c0.062,0.141,0.094,0.301,0.094,0.48c0,0.23-0.04,0.447-0.119,0.649c-0.078,0.202-0.187,0.392-0.324,0.565
				c-0.139,0.174-0.303,0.335-0.494,0.48C349.16,176.223,348.955,176.35,348.736,176.457z M348.482,175.908
				c0.175-0.073,0.334-0.166,0.477-0.279c0.145-0.111,0.267-0.236,0.367-0.371c0.102-0.135,0.181-0.276,0.236-0.426
				c0.057-0.148,0.085-0.299,0.085-0.451c0-0.169-0.042-0.297-0.126-0.384c-0.085-0.087-0.184-0.131-0.296-0.131
				c-0.151,0-0.281,0.042-0.388,0.126c-0.107,0.085-0.195,0.194-0.262,0.33c-0.068,0.135-0.117,0.285-0.148,0.451
				s-0.046,0.33-0.046,0.493c0,0.102,0.01,0.208,0.029,0.321C348.432,175.699,348.455,175.807,348.482,175.908z"/>
			<path d="M353.022,173.916c-0.022,0.152-0.051,0.295-0.085,0.427c-0.033,0.132-0.066,0.247-0.097,0.347
				c-0.03,0.098-0.058,0.178-0.08,0.24c-0.022,0.062-0.036,0.096-0.042,0.101c-0.057,0.13-0.154,0.194-0.295,0.194
				c-0.08,0-0.152-0.029-0.221-0.089c-0.066-0.06-0.101-0.134-0.101-0.224c0-0.033,0.006-0.059,0.017-0.076
				c0.012-0.017,0.028-0.051,0.051-0.101c0.023-0.051,0.051-0.136,0.084-0.253c0.034-0.119,0.076-0.301,0.127-0.549
				c-0.096,0-0.193-0.003-0.295-0.008c-0.102-0.006-0.195-0.025-0.283-0.06c-0.087-0.034-0.158-0.087-0.215-0.161
				c-0.057-0.072-0.084-0.174-0.084-0.303c0-0.096,0.026-0.225,0.08-0.389c0.053-0.163,0.125-0.323,0.215-0.48
				c0.09-0.158,0.191-0.294,0.304-0.41c0.112-0.115,0.226-0.172,0.337-0.172c0.13,0,0.235,0.047,0.316,0.143
				c0.082,0.096,0.146,0.213,0.19,0.351s0.077,0.282,0.097,0.435s0.029,0.284,0.029,0.396c0.096,0,0.19-0.002,0.283-0.004
				c0.093-0.003,0.182-0.004,0.266-0.004c0.32,0,0.565,0.07,0.734,0.211c0.168,0.141,0.253,0.371,0.253,0.691
				c0,0.129-0.009,0.264-0.025,0.404s-0.036,0.286-0.06,0.436c-0.021,0.148-0.041,0.297-0.059,0.442
				c-0.017,0.146-0.025,0.29-0.025,0.431c0,0.202,0.028,0.369,0.084,0.502c0.057,0.132,0.127,0.237,0.211,0.316
				c0.085,0.078,0.176,0.133,0.271,0.164c0.096,0.031,0.183,0.047,0.262,0.047c0.241,0,0.47-0.079,0.684-0.236
				c0.214-0.158,0.411-0.348,0.591-0.569s0.342-0.457,0.484-0.704c0.145-0.248,0.264-0.465,0.359-0.65
				c0.027-0.051,0.066-0.09,0.117-0.118s0.104-0.042,0.16-0.042c0.102,0,0.181,0.032,0.236,0.098
				c0.057,0.064,0.085,0.136,0.085,0.215c0,0.056-0.011,0.106-0.034,0.151c-0.129,0.231-0.279,0.491-0.451,0.78
				c-0.172,0.29-0.367,0.562-0.586,0.814c-0.22,0.253-0.466,0.467-0.738,0.641c-0.273,0.175-0.572,0.262-0.898,0.262
				c-0.203,0-0.395-0.037-0.574-0.113s-0.336-0.186-0.469-0.329c-0.131-0.144-0.236-0.321-0.316-0.532
				c-0.078-0.211-0.117-0.448-0.117-0.713c0-0.281,0.027-0.561,0.084-0.839s0.084-0.544,0.084-0.798c0-0.106-0.023-0.187-0.071-0.24
				c-0.048-0.053-0.153-0.08-0.316-0.08c-0.079,0-0.165,0-0.257,0C353.229,173.908,353.129,173.911,353.022,173.916z
				 M352.457,173.293c0-0.04-0.002-0.092-0.004-0.156c-0.004-0.064-0.009-0.129-0.018-0.19c-0.008-0.062-0.02-0.115-0.033-0.16
				s-0.029-0.067-0.047-0.067c-0.017,0-0.037,0.021-0.062,0.062c-0.025,0.043-0.053,0.094-0.08,0.152
				c-0.029,0.059-0.055,0.123-0.076,0.189c-0.023,0.068-0.039,0.125-0.051,0.17H352.457z"/>
			<path d="M360.793,174.727c-0.084,0.395-0.205,0.761-0.363,1.102c-0.156,0.34-0.324,0.637-0.502,0.89
				c-0.177,0.253-0.355,0.453-0.535,0.599c-0.18,0.146-0.335,0.226-0.465,0.236c-0.146,0-0.307-0.072-0.484-0.219
				s-0.346-0.35-0.506-0.611s-0.295-0.572-0.401-0.933s-0.16-0.751-0.16-1.173c0-0.371,0.032-0.652,0.097-0.844
				s0.105-0.301,0.123-0.329c0.027-0.051,0.066-0.091,0.113-0.118c0.049-0.028,0.104-0.043,0.164-0.043
				c0.096,0,0.172,0.033,0.229,0.098s0.084,0.137,0.084,0.215c0,0.057-0.011,0.104-0.033,0.145
				c-0.006,0.011-0.031,0.086-0.076,0.227s-0.067,0.352-0.067,0.633c0,0.332,0.034,0.639,0.101,0.92
				c0.068,0.281,0.15,0.523,0.245,0.727c0.096,0.201,0.196,0.361,0.3,0.477s0.189,0.172,0.258,0.172c0.045,0,0.11-0.041,0.197-0.126
				c0.088-0.085,0.181-0.2,0.279-0.346c0.098-0.146,0.199-0.321,0.303-0.523c0.104-0.202,0.2-0.423,0.287-0.662
				c0.088-0.239,0.158-0.492,0.211-0.759c0.054-0.268,0.08-0.539,0.08-0.814c0-0.057-0.001-0.111-0.004-0.165
				c-0.002-0.054-0.004-0.108-0.004-0.165c0-0.096,0.029-0.176,0.088-0.24c0.06-0.064,0.137-0.097,0.232-0.097
				c0.073,0,0.139,0.022,0.198,0.067s0.097,0.107,0.114,0.186c0-0.006,0.012,0.039,0.033,0.135c0.023,0.096,0.061,0.219,0.114,0.367
				c0.054,0.149,0.121,0.311,0.202,0.485c0.082,0.175,0.18,0.336,0.295,0.485c0.116,0.148,0.25,0.273,0.401,0.375
				s0.327,0.152,0.523,0.152c0.106,0,0.2-0.022,0.278-0.068c0.078-0.045,0.144-0.095,0.193-0.151c0.051-0.056,0.09-0.109,0.115-0.16
				s0.037-0.079,0.037-0.085c0.023-0.061,0.061-0.11,0.114-0.146c0.054-0.037,0.114-0.055,0.181-0.055
				c0.09,0,0.166,0.031,0.229,0.096c0.062,0.065,0.093,0.14,0.093,0.225c0,0.039-0.009,0.078-0.025,0.117
				c-0.034,0.079-0.083,0.17-0.147,0.271s-0.148,0.196-0.249,0.287c-0.101,0.09-0.221,0.165-0.358,0.224
				c-0.139,0.059-0.291,0.088-0.46,0.088c-0.196,0-0.38-0.035-0.548-0.105c-0.17-0.07-0.322-0.16-0.461-0.27
				c-0.137-0.109-0.263-0.233-0.375-0.371C360.967,175.006,360.871,174.867,360.793,174.727z"/>
			<path d="M364.472,170.762c0,0.213-0.074,0.395-0.224,0.543c-0.148,0.15-0.33,0.225-0.544,0.225s-0.396-0.074-0.544-0.225
				c-0.149-0.148-0.225-0.33-0.225-0.543c0-0.107,0.021-0.207,0.06-0.301c0.04-0.092,0.095-0.174,0.165-0.244
				s0.151-0.125,0.244-0.164c0.094-0.039,0.193-0.06,0.3-0.06s0.206,0.021,0.3,0.06c0.092,0.039,0.174,0.094,0.244,0.164
				s0.125,0.152,0.164,0.244C364.452,170.555,364.472,170.654,364.472,170.762z M363.105,175.705c0-0.81,0.051-1.617,0.151-2.422
				c0.011-0.078,0.046-0.146,0.105-0.206s0.136-0.089,0.231-0.089c0.085,0,0.155,0.033,0.211,0.098
				c0.057,0.064,0.085,0.139,0.085,0.223c0,0.034-0.007,0.136-0.021,0.305c-0.015,0.168-0.031,0.369-0.051,0.604
				c-0.02,0.232-0.037,0.48-0.051,0.742s-0.021,0.502-0.021,0.721c0,0.299,0.029,0.539,0.089,0.722s0.135,0.325,0.228,0.427
				c0.093,0.101,0.191,0.168,0.295,0.202c0.104,0.034,0.205,0.05,0.3,0.05c0.157,0,0.321-0.056,0.489-0.168
				c0.169-0.113,0.342-0.27,0.52-0.473c0.177-0.203,0.355-0.445,0.535-0.73c0.18-0.283,0.357-0.6,0.531-0.949
				c0.029-0.056,0.068-0.1,0.119-0.13c0.051-0.031,0.106-0.046,0.168-0.046c0.09,0,0.165,0.033,0.225,0.101
				c0.059,0.067,0.088,0.141,0.088,0.22c0,0.056-0.012,0.104-0.033,0.143c-0.068,0.13-0.152,0.287-0.254,0.473
				s-0.217,0.377-0.346,0.574s-0.271,0.393-0.426,0.586c-0.154,0.194-0.319,0.369-0.494,0.523c-0.174,0.154-0.357,0.279-0.549,0.375
				c-0.19,0.096-0.385,0.145-0.582,0.145c-0.252,0-0.475-0.055-0.666-0.161s-0.354-0.25-0.484-0.431
				c-0.133-0.18-0.231-0.392-0.296-0.637C363.137,176.25,363.105,175.986,363.105,175.705z M364,170.762
				c0-0.079-0.03-0.148-0.09-0.207c-0.059-0.06-0.127-0.089-0.206-0.089s-0.146,0.029-0.202,0.089
				c-0.057,0.059-0.085,0.128-0.085,0.207c0,0.078,0.028,0.146,0.085,0.202c0.056,0.056,0.123,0.084,0.202,0.084
				s0.147-0.028,0.206-0.084C363.97,170.907,364,170.84,364,170.762z"/>
			<path d="M368.598,176.625c0.09-0.186,0.193-0.39,0.312-0.611c0.117-0.223,0.244-0.447,0.379-0.676
				c0.135-0.227,0.277-0.453,0.427-0.679s0.306-0.438,0.468-0.642c0.164-0.196,0.328-0.338,0.494-0.426
				c0.166-0.087,0.322-0.131,0.469-0.131c0.292,0,0.508,0.107,0.648,0.32c0.141,0.215,0.211,0.479,0.211,0.793
				c0,0.074-0.004,0.162-0.012,0.267c-0.009,0.104-0.018,0.215-0.025,0.333c-0.009,0.118-0.018,0.238-0.025,0.359
				c-0.009,0.12-0.014,0.234-0.014,0.341c0,0.136,0.008,0.265,0.021,0.388c0.014,0.125,0.041,0.232,0.08,0.325
				s0.096,0.166,0.17,0.22c0.072,0.053,0.168,0.08,0.286,0.08c0.214,0,0.422-0.083,0.624-0.249c0.203-0.166,0.391-0.362,0.562-0.591
				c0.171-0.228,0.321-0.459,0.447-0.695s0.221-0.428,0.282-0.574c0.028-0.062,0.069-0.109,0.123-0.144
				c0.053-0.034,0.111-0.05,0.172-0.05c0.096,0,0.174,0.035,0.232,0.105s0.089,0.145,0.089,0.223c0,0.039-0.009,0.079-0.025,0.118
				c-0.022,0.046-0.067,0.138-0.135,0.278s-0.156,0.303-0.267,0.485c-0.109,0.183-0.236,0.377-0.383,0.582
				c-0.146,0.206-0.309,0.393-0.486,0.562c-0.176,0.168-0.367,0.309-0.572,0.422c-0.206,0.112-0.422,0.168-0.646,0.168
				c-0.253,0-0.458-0.049-0.615-0.146c-0.158-0.1-0.281-0.229-0.371-0.389s-0.15-0.338-0.182-0.531
				c-0.031-0.194-0.047-0.39-0.047-0.587c0-0.084,0.004-0.18,0.013-0.286c0.009-0.107,0.021-0.22,0.034-0.338
				s0.025-0.236,0.033-0.354c0.009-0.118,0.013-0.23,0.013-0.337c0-0.181-0.028-0.303-0.084-0.367
				c-0.057-0.064-0.106-0.098-0.151-0.098c-0.091,0-0.193,0.053-0.309,0.156s-0.236,0.24-0.363,0.409
				c-0.126,0.169-0.256,0.358-0.388,0.569s-0.256,0.421-0.371,0.629c-0.116,0.208-0.222,0.406-0.321,0.595
				c-0.098,0.188-0.176,0.345-0.231,0.468c-0.112,0.236-0.226,0.396-0.337,0.477c-0.113,0.082-0.229,0.123-0.347,0.123
				c-0.163,0-0.294-0.049-0.392-0.148c-0.1-0.098-0.148-0.236-0.148-0.417c0-0.039,0.006-0.116,0.018-0.231
				c0.011-0.115,0.025-0.254,0.041-0.414c0.018-0.16,0.034-0.333,0.051-0.519c0.018-0.187,0.034-0.37,0.051-0.553
				c0.018-0.183,0.031-0.353,0.043-0.511c0.011-0.157,0.016-0.289,0.016-0.396c0-0.141-0.005-0.275-0.016-0.404
				c-0.012-0.13-0.034-0.209-0.068-0.236c-0.051,0.016-0.141,0.121-0.27,0.316c-0.129,0.193-0.295,0.535-0.498,1.024
				c-0.027,0.062-0.07,0.11-0.127,0.144c-0.056,0.033-0.115,0.051-0.177,0.051c-0.096,0-0.171-0.032-0.228-0.098
				c-0.057-0.064-0.084-0.139-0.084-0.223c0-0.039,0.008-0.082,0.025-0.127c0.252-0.602,0.49-1.045,0.713-1.329
				c0.222-0.284,0.442-0.426,0.662-0.426c0.129,0,0.238,0.032,0.328,0.097s0.162,0.15,0.216,0.258
				c0.054,0.106,0.093,0.225,0.118,0.354c0.025,0.13,0.037,0.262,0.037,0.396c0,0.102-0.006,0.26-0.021,0.473
				c-0.015,0.215-0.032,0.443-0.055,0.688c-0.022,0.246-0.044,0.488-0.063,0.73S368.615,176.462,368.598,176.625z"/>
			<path d="M376.284,176.625c0.09-0.186,0.194-0.39,0.312-0.611c0.119-0.223,0.245-0.447,0.381-0.676
				c0.135-0.227,0.276-0.453,0.426-0.679c0.148-0.226,0.305-0.438,0.469-0.642c0.162-0.196,0.326-0.338,0.492-0.426
				c0.166-0.087,0.322-0.131,0.469-0.131c0.293,0,0.51,0.107,0.65,0.32c0.141,0.215,0.211,0.479,0.211,0.793
				c0,0.074-0.005,0.162-0.014,0.267c-0.008,0.104-0.016,0.215-0.025,0.333c-0.008,0.118-0.016,0.238-0.025,0.359
				c-0.008,0.12-0.012,0.234-0.012,0.341c0,0.136,0.007,0.265,0.021,0.388c0.014,0.125,0.04,0.232,0.08,0.325
				c0.039,0.093,0.096,0.166,0.168,0.22c0.073,0.053,0.169,0.08,0.287,0.08c0.214,0,0.422-0.083,0.625-0.249
				c0.201-0.166,0.389-0.362,0.561-0.591c0.172-0.228,0.32-0.459,0.447-0.695s0.221-0.428,0.282-0.574
				c0.028-0.062,0.069-0.109,0.122-0.144c0.054-0.034,0.111-0.05,0.174-0.05c0.096,0,0.172,0.035,0.231,0.105
				s0.089,0.145,0.089,0.223c0,0.039-0.008,0.079-0.025,0.118c-0.022,0.046-0.067,0.138-0.135,0.278
				c-0.068,0.141-0.156,0.303-0.266,0.485s-0.238,0.377-0.385,0.582c-0.146,0.206-0.308,0.393-0.484,0.562
				c-0.178,0.168-0.369,0.309-0.574,0.422c-0.205,0.112-0.42,0.168-0.645,0.168c-0.254,0-0.459-0.049-0.617-0.146
				c-0.156-0.1-0.281-0.229-0.371-0.389s-0.15-0.338-0.182-0.531c-0.03-0.194-0.046-0.39-0.046-0.587
				c0-0.084,0.005-0.18,0.013-0.286c0.008-0.107,0.02-0.22,0.033-0.338c0.015-0.118,0.025-0.236,0.034-0.354s0.013-0.23,0.013-0.337
				c0-0.181-0.027-0.303-0.084-0.367s-0.107-0.098-0.152-0.098c-0.09,0-0.192,0.053-0.308,0.156
				c-0.116,0.104-0.236,0.24-0.362,0.409c-0.127,0.169-0.256,0.358-0.389,0.569s-0.256,0.421-0.371,0.629s-0.223,0.406-0.32,0.595
				c-0.1,0.188-0.176,0.345-0.232,0.468c-0.113,0.236-0.225,0.396-0.338,0.477c-0.112,0.082-0.228,0.123-0.346,0.123
				c-0.163,0-0.294-0.049-0.393-0.148c-0.098-0.098-0.147-0.236-0.147-0.417c0-0.039,0.006-0.116,0.017-0.231
				c0.012-0.115,0.025-0.254,0.043-0.414c0.017-0.16,0.033-0.333,0.051-0.519c0.016-0.187,0.033-0.37,0.05-0.553
				s0.031-0.353,0.042-0.511c0.012-0.157,0.018-0.289,0.018-0.396c0-0.141-0.006-0.275-0.018-0.404
				c-0.011-0.13-0.033-0.209-0.066-0.236c-0.051,0.016-0.141,0.121-0.271,0.316c-0.13,0.193-0.296,0.535-0.498,1.024
				c-0.028,0.062-0.07,0.11-0.126,0.144c-0.057,0.033-0.115,0.051-0.178,0.051c-0.096,0-0.172-0.032-0.229-0.098
				c-0.056-0.064-0.084-0.139-0.084-0.223c0-0.039,0.009-0.082,0.025-0.127c0.254-0.602,0.491-1.045,0.713-1.329
				c0.223-0.284,0.443-0.426,0.662-0.426c0.13,0,0.24,0.032,0.33,0.097s0.161,0.15,0.215,0.258c0.053,0.106,0.093,0.225,0.118,0.354
				c0.024,0.13,0.038,0.262,0.038,0.396c0,0.102-0.008,0.26-0.021,0.473c-0.014,0.215-0.032,0.443-0.055,0.688
				c-0.022,0.246-0.043,0.488-0.063,0.73C376.319,176.26,376.301,176.462,376.284,176.625z"/>
			<path d="M388.619,175.03c-0.021,0.046-0.068,0.14-0.139,0.282c-0.07,0.145-0.16,0.309-0.27,0.494
				c-0.11,0.186-0.238,0.38-0.385,0.582c-0.146,0.203-0.309,0.389-0.489,0.557c-0.18,0.169-0.374,0.309-0.582,0.418
				s-0.427,0.164-0.658,0.164c-0.326,0-0.601-0.104-0.823-0.312c-0.221-0.208-0.383-0.47-0.484-0.784
				c-0.191,0.32-0.419,0.574-0.684,0.764c-0.264,0.188-0.529,0.281-0.793,0.281c-0.208,0-0.396-0.037-0.565-0.113
				s-0.312-0.183-0.431-0.32c-0.117-0.139-0.209-0.3-0.273-0.485s-0.098-0.388-0.098-0.607c0-0.438,0.074-0.825,0.225-1.16
				c0.148-0.335,0.338-0.614,0.568-0.839c0.23-0.226,0.486-0.395,0.764-0.507c0.279-0.112,0.547-0.169,0.807-0.169
				c0.174,0,0.334,0.023,0.48,0.072c0.146,0.047,0.271,0.1,0.375,0.156c0.104,0.056,0.185,0.107,0.24,0.155
				c0.057,0.048,0.088,0.075,0.094,0.081c0.062,0.072,0.092,0.148,0.092,0.227c0,0.085-0.03,0.16-0.092,0.225
				c-0.062,0.064-0.135,0.097-0.22,0.097c-0.09,0-0.166-0.031-0.228-0.093c-0.012-0.012-0.037-0.033-0.076-0.063
				s-0.093-0.063-0.16-0.097c-0.068-0.034-0.148-0.063-0.24-0.089c-0.094-0.025-0.199-0.038-0.316-0.038
				c-0.175,0-0.36,0.039-0.557,0.118c-0.197,0.079-0.377,0.201-0.541,0.367c-0.162,0.166-0.299,0.374-0.408,0.624
				c-0.11,0.25-0.165,0.547-0.165,0.891c0,0.106,0.011,0.215,0.034,0.324c0.021,0.109,0.062,0.21,0.117,0.3
				c0.057,0.09,0.133,0.163,0.229,0.22s0.213,0.084,0.354,0.084c0.102,0,0.219-0.033,0.351-0.102
				c0.132-0.066,0.259-0.171,0.38-0.312s0.23-0.317,0.329-0.532c0.099-0.213,0.167-0.467,0.206-0.759
				c0.012-0.079,0.049-0.146,0.11-0.198c0.062-0.054,0.135-0.08,0.22-0.08c0.078,0,0.146,0.031,0.207,0.093
				c0.059,0.062,0.091,0.132,0.096,0.211c0.006,0.106,0.018,0.257,0.034,0.451s0.056,0.387,0.114,0.578
				c0.059,0.19,0.147,0.356,0.266,0.497s0.281,0.211,0.489,0.211c0.136,0,0.269-0.036,0.401-0.109
				c0.132-0.072,0.262-0.17,0.388-0.291s0.247-0.259,0.362-0.413c0.115-0.155,0.221-0.312,0.316-0.468
				c0.096-0.158,0.18-0.311,0.254-0.456c0.072-0.146,0.135-0.272,0.186-0.38c0.027-0.062,0.068-0.109,0.122-0.144
				s0.11-0.05,0.173-0.05c0.096,0,0.173,0.035,0.232,0.105c0.059,0.07,0.088,0.145,0.088,0.223
				C388.645,174.951,388.637,174.991,388.619,175.03z"/>
		</g>
		<g>
			<path d="M225.764,250.251c0.275,1.299,0.675,1.949,1.198,1.949c0.202,0,0.396-0.075,0.582-0.225
				c0.186-0.148,0.358-0.332,0.519-0.548c0.161-0.217,0.303-0.446,0.427-0.688c0.124-0.241,0.225-0.452,0.304-0.633
				c0.056-0.135,0.154-0.201,0.295-0.201c0.09,0,0.166,0.033,0.229,0.101c0.062,0.067,0.093,0.141,0.093,0.22
				c0,0.045-0.009,0.084-0.025,0.117c-0.04,0.096-0.098,0.225-0.173,0.385c-0.076,0.16-0.169,0.332-0.279,0.514
				c-0.109,0.184-0.231,0.371-0.366,0.562c-0.136,0.191-0.284,0.363-0.447,0.515c-0.163,0.152-0.337,0.277-0.52,0.375
				c-0.183,0.1-0.375,0.148-0.578,0.148c-0.376,0-0.7-0.131-0.97-0.393c-0.271-0.262-0.504-0.693-0.7-1.295
				c-0.271,0.574-0.543,0.99-0.818,1.248c-0.276,0.26-0.574,0.389-0.895,0.389c-0.169,0-0.332-0.027-0.489-0.08
				c-0.158-0.053-0.296-0.143-0.414-0.266c-0.118-0.124-0.213-0.283-0.286-0.477c-0.073-0.194-0.11-0.432-0.11-0.713
				c0-0.389,0.067-0.746,0.203-1.072c0.135-0.326,0.309-0.605,0.522-0.84c0.214-0.232,0.452-0.414,0.713-0.543
				c0.262-0.13,0.522-0.195,0.781-0.195c0.084,0,0.157,0.03,0.219,0.09c0.062,0.059,0.093,0.133,0.093,0.223
				c0,0.079-0.025,0.149-0.076,0.211c-0.05,0.062-0.117,0.099-0.202,0.109c-0.169,0.023-0.349,0.076-0.54,0.161
				s-0.367,0.206-0.527,0.366c-0.16,0.161-0.292,0.365-0.396,0.612c-0.104,0.247-0.156,0.543-0.156,0.886
				c0,0.281,0.058,0.501,0.173,0.658c0.116,0.158,0.283,0.236,0.503,0.236c0.09,0,0.186-0.023,0.286-0.072
				c0.102-0.047,0.21-0.142,0.325-0.282s0.242-0.34,0.38-0.599s0.291-0.6,0.46-1.021c-0.096-0.494-0.184-1.065-0.262-1.713
				c-0.079-0.646-0.118-1.369-0.118-2.168c0-0.349,0.011-0.713,0.033-1.093s0.06-0.751,0.11-1.114
				c0.051-0.362,0.118-0.707,0.202-1.033s0.187-0.613,0.308-0.86s0.264-0.442,0.427-0.587c0.163-0.143,0.349-0.215,0.557-0.215
				c0.186,0,0.343,0.051,0.473,0.152c0.129,0.102,0.234,0.242,0.316,0.422c0.081,0.18,0.142,0.396,0.181,0.649
				c0.04,0.253,0.06,0.532,0.06,0.835c0,0.652-0.057,1.305-0.169,1.958c-0.112,0.652-0.252,1.276-0.418,1.873
				c-0.165,0.597-0.341,1.147-0.527,1.653C226.084,249.448,225.916,249.885,225.764,250.251z M226.751,243.45
				c0-0.141-0.004-0.293-0.013-0.456s-0.028-0.316-0.059-0.46c-0.031-0.143-0.072-0.263-0.123-0.358s-0.118-0.144-0.202-0.144
				c-0.141,0-0.271,0.124-0.393,0.371c-0.121,0.248-0.227,0.572-0.316,0.975s-0.161,0.857-0.215,1.367s-0.08,1.022-0.08,1.54
				c0,0.495,0.02,0.989,0.059,1.485c0.04,0.494,0.085,0.936,0.136,1.324c0.162-0.434,0.317-0.879,0.464-1.338
				c0.146-0.458,0.273-0.926,0.384-1.404c0.109-0.479,0.196-0.961,0.262-1.447C226.719,244.419,226.751,243.934,226.751,243.45z"/>
			<path d="M229.688,249.237c-0.022,0.152-0.051,0.295-0.085,0.427c-0.033,0.132-0.065,0.247-0.097,0.347
				c-0.031,0.098-0.058,0.178-0.08,0.24c-0.022,0.062-0.037,0.096-0.042,0.101c-0.057,0.13-0.155,0.194-0.296,0.194
				c-0.078,0-0.151-0.029-0.219-0.089c-0.068-0.06-0.102-0.134-0.102-0.224c0-0.033,0.006-0.059,0.017-0.076
				c0.012-0.017,0.028-0.051,0.051-0.101c0.022-0.051,0.051-0.136,0.084-0.253c0.034-0.119,0.076-0.301,0.127-0.549
				c-0.096,0-0.194-0.003-0.295-0.008c-0.102-0.006-0.196-0.025-0.283-0.06s-0.159-0.087-0.215-0.161
				c-0.057-0.072-0.085-0.174-0.085-0.303c0-0.096,0.027-0.225,0.081-0.389c0.053-0.163,0.125-0.323,0.215-0.48
				c0.09-0.158,0.191-0.294,0.304-0.41c0.112-0.115,0.225-0.172,0.338-0.172c0.129,0,0.234,0.047,0.316,0.143
				c0.081,0.096,0.145,0.213,0.189,0.351s0.077,0.282,0.097,0.435s0.03,0.284,0.03,0.396c0.095,0,0.189-0.002,0.282-0.004
				c0.093-0.003,0.182-0.004,0.266-0.004c0.32,0,0.565,0.07,0.734,0.211s0.253,0.371,0.253,0.691c0,0.129-0.009,0.264-0.025,0.404
				s-0.036,0.286-0.059,0.436c-0.023,0.148-0.043,0.297-0.06,0.442c-0.017,0.146-0.025,0.29-0.025,0.431
				c0,0.202,0.028,0.369,0.085,0.502c0.056,0.132,0.126,0.237,0.211,0.316c0.084,0.078,0.174,0.133,0.27,0.164
				s0.183,0.047,0.262,0.047c0.242,0,0.47-0.079,0.684-0.236c0.214-0.158,0.41-0.348,0.59-0.569
				c0.181-0.222,0.342-0.457,0.485-0.704c0.144-0.248,0.264-0.465,0.358-0.65c0.028-0.051,0.068-0.09,0.118-0.118
				c0.051-0.028,0.104-0.042,0.161-0.042c0.101,0,0.18,0.032,0.236,0.098c0.056,0.064,0.084,0.136,0.084,0.215
				c0,0.056-0.012,0.106-0.034,0.151c-0.129,0.231-0.279,0.491-0.451,0.78c-0.172,0.29-0.367,0.562-0.586,0.814
				c-0.22,0.253-0.466,0.467-0.738,0.641c-0.273,0.175-0.572,0.262-0.899,0.262c-0.202,0-0.394-0.037-0.573-0.113
				s-0.336-0.186-0.468-0.329c-0.133-0.144-0.238-0.321-0.316-0.532c-0.079-0.211-0.119-0.448-0.119-0.713
				c0-0.281,0.028-0.561,0.085-0.839c0.056-0.278,0.084-0.544,0.084-0.798c0-0.106-0.023-0.187-0.071-0.24
				c-0.048-0.053-0.153-0.08-0.316-0.08c-0.079,0-0.165,0-0.258,0S229.794,249.232,229.688,249.237z M229.122,248.614
				c0-0.04-0.002-0.092-0.005-0.156c-0.002-0.064-0.008-0.129-0.017-0.19c-0.008-0.062-0.02-0.115-0.033-0.16
				c-0.015-0.045-0.03-0.067-0.047-0.067s-0.038,0.021-0.063,0.062c-0.025,0.043-0.052,0.094-0.08,0.152s-0.053,0.123-0.076,0.189
				c-0.022,0.068-0.039,0.125-0.05,0.17H229.122z"/>
			<path d="M235.416,246.083c0,0.213-0.074,0.395-0.224,0.543c-0.148,0.15-0.33,0.225-0.544,0.225s-0.396-0.074-0.544-0.225
				c-0.149-0.148-0.224-0.33-0.224-0.543c0-0.107,0.02-0.207,0.059-0.301c0.039-0.092,0.095-0.174,0.165-0.244
				s0.151-0.125,0.244-0.164s0.192-0.06,0.3-0.06c0.106,0,0.207,0.021,0.3,0.06s0.174,0.094,0.244,0.164s0.125,0.152,0.165,0.244
				C235.396,245.876,235.416,245.976,235.416,246.083z M234.049,251.026c0-0.81,0.051-1.617,0.152-2.422
				c0.012-0.078,0.047-0.146,0.105-0.206s0.137-0.089,0.232-0.089c0.084,0,0.154,0.033,0.211,0.098
				c0.056,0.064,0.084,0.139,0.084,0.223c0,0.034-0.007,0.136-0.021,0.305c-0.014,0.168-0.03,0.369-0.05,0.604
				c-0.021,0.232-0.037,0.48-0.051,0.742c-0.015,0.262-0.021,0.502-0.021,0.721c0,0.299,0.029,0.539,0.089,0.722
				c0.059,0.183,0.135,0.325,0.228,0.427c0.093,0.101,0.191,0.168,0.296,0.202c0.104,0.034,0.203,0.05,0.299,0.05
				c0.158,0,0.32-0.056,0.489-0.168c0.169-0.113,0.342-0.27,0.52-0.473c0.177-0.203,0.355-0.445,0.535-0.73
				c0.181-0.283,0.357-0.6,0.532-0.949c0.027-0.056,0.067-0.1,0.118-0.13c0.05-0.031,0.106-0.046,0.168-0.046
				c0.091,0,0.165,0.033,0.224,0.101c0.06,0.067,0.089,0.141,0.089,0.22c0,0.056-0.011,0.104-0.034,0.143
				c-0.067,0.13-0.151,0.287-0.253,0.473c-0.101,0.186-0.216,0.377-0.346,0.574c-0.129,0.197-0.271,0.393-0.426,0.586
				c-0.155,0.194-0.319,0.369-0.494,0.523c-0.174,0.154-0.356,0.279-0.548,0.375s-0.386,0.145-0.582,0.145
				c-0.254,0-0.476-0.055-0.667-0.161s-0.353-0.25-0.485-0.431c-0.132-0.18-0.23-0.392-0.295-0.637
				C234.082,251.571,234.049,251.308,234.049,251.026z M234.943,246.083c0-0.079-0.029-0.148-0.088-0.207
				c-0.06-0.06-0.128-0.089-0.207-0.089s-0.146,0.029-0.202,0.089c-0.057,0.059-0.085,0.128-0.085,0.207
				c0,0.078,0.028,0.146,0.085,0.202c0.056,0.056,0.123,0.084,0.202,0.084s0.147-0.028,0.207-0.084
				C234.914,246.229,234.943,246.161,234.943,246.083z"/>
			<path d="M241.086,250.048c-0.084,0.395-0.205,0.761-0.362,1.102c-0.158,0.34-0.325,0.637-0.502,0.89
				c-0.178,0.253-0.356,0.453-0.536,0.599c-0.18,0.146-0.335,0.226-0.464,0.236c-0.146,0-0.309-0.072-0.485-0.219
				c-0.178-0.146-0.346-0.35-0.506-0.611c-0.161-0.262-0.294-0.572-0.401-0.933c-0.106-0.36-0.16-0.751-0.16-1.173
				c0-0.371,0.032-0.652,0.097-0.844c0.065-0.191,0.105-0.301,0.123-0.329c0.027-0.051,0.065-0.091,0.113-0.118
				c0.048-0.028,0.103-0.043,0.165-0.043c0.096,0,0.171,0.033,0.228,0.098s0.084,0.137,0.084,0.215c0,0.057-0.011,0.104-0.033,0.145
				c-0.006,0.011-0.031,0.086-0.076,0.227s-0.067,0.352-0.067,0.633c0,0.332,0.034,0.639,0.102,0.92s0.148,0.523,0.244,0.727
				c0.096,0.201,0.195,0.361,0.3,0.477c0.104,0.115,0.189,0.172,0.257,0.172c0.046,0,0.111-0.041,0.198-0.126
				c0.088-0.085,0.181-0.2,0.279-0.346c0.098-0.146,0.199-0.321,0.304-0.523c0.104-0.202,0.199-0.423,0.286-0.662
				c0.088-0.239,0.158-0.492,0.211-0.759c0.054-0.268,0.08-0.539,0.08-0.814c0-0.057-0.001-0.111-0.004-0.165
				s-0.004-0.108-0.004-0.165c0-0.096,0.029-0.176,0.089-0.24c0.059-0.064,0.136-0.097,0.231-0.097c0.073,0,0.14,0.022,0.198,0.067
				c0.06,0.045,0.097,0.107,0.114,0.186c0-0.006,0.011,0.039,0.033,0.135s0.061,0.219,0.114,0.367
				c0.054,0.149,0.121,0.311,0.202,0.485c0.082,0.175,0.181,0.336,0.296,0.485c0.115,0.148,0.249,0.273,0.4,0.375
				c0.152,0.102,0.326,0.152,0.523,0.152c0.106,0,0.199-0.022,0.278-0.068c0.079-0.045,0.144-0.095,0.194-0.151
				c0.05-0.056,0.088-0.109,0.113-0.16s0.038-0.079,0.038-0.085c0.022-0.061,0.061-0.11,0.114-0.146
				c0.054-0.037,0.113-0.055,0.182-0.055c0.09,0,0.165,0.031,0.228,0.096c0.062,0.065,0.093,0.14,0.093,0.225
				c0,0.039-0.009,0.078-0.025,0.117c-0.034,0.079-0.083,0.17-0.147,0.271s-0.147,0.196-0.249,0.287
				c-0.102,0.09-0.221,0.165-0.358,0.224s-0.291,0.088-0.46,0.088c-0.197,0-0.38-0.035-0.549-0.105s-0.321-0.16-0.46-0.27
				c-0.138-0.109-0.263-0.233-0.375-0.371C241.261,250.327,241.165,250.188,241.086,250.048z"/>
			<path d="M245.339,251.955c0.084-0.169,0.192-0.378,0.324-0.629c0.133-0.25,0.271-0.502,0.414-0.755
				c0.144-0.254,0.284-0.492,0.422-0.717c0.138-0.226,0.254-0.396,0.35-0.516c0.163-0.196,0.332-0.337,0.507-0.422
				c0.174-0.084,0.334-0.126,0.48-0.126s0.271,0.03,0.375,0.093c0.104,0.062,0.19,0.145,0.258,0.248
				c0.067,0.105,0.118,0.226,0.152,0.363c0.033,0.139,0.05,0.285,0.05,0.443c0,0.09-0.004,0.208-0.013,0.354
				c-0.008,0.146-0.017,0.305-0.025,0.473c-0.008,0.17-0.017,0.344-0.024,0.523c-0.009,0.18-0.016,0.35-0.021,0.506
				c0.084-0.168,0.18-0.355,0.287-0.561c0.106-0.205,0.215-0.409,0.324-0.611c0.11-0.203,0.216-0.393,0.316-0.57
				c0.102-0.177,0.194-0.322,0.278-0.434c0.242-0.332,0.469-0.555,0.68-0.667s0.398-0.169,0.562-0.169
				c0.19,0,0.349,0.035,0.472,0.105c0.124,0.07,0.221,0.16,0.291,0.27c0.07,0.11,0.12,0.232,0.148,0.367
				c0.027,0.135,0.042,0.265,0.042,0.389c0,0.191-0.015,0.391-0.042,0.6c-0.028,0.207-0.043,0.455-0.043,0.742
				c0,0.117,0.006,0.236,0.018,0.354c0.011,0.119,0.035,0.223,0.071,0.312c0.037,0.09,0.095,0.163,0.173,0.22
				c0.079,0.056,0.186,0.084,0.321,0.084c0.146,0,0.289-0.038,0.43-0.114c0.141-0.075,0.276-0.176,0.405-0.299
				c0.129-0.124,0.252-0.265,0.367-0.422c0.115-0.158,0.221-0.314,0.316-0.473c0.096-0.157,0.18-0.309,0.253-0.451
				c0.073-0.144,0.132-0.266,0.177-0.367c0.028-0.062,0.068-0.109,0.118-0.144c0.051-0.034,0.107-0.05,0.169-0.05
				c0.096,0,0.173,0.035,0.232,0.105c0.059,0.07,0.088,0.145,0.088,0.223c0,0.039-0.008,0.079-0.024,0.118
				c-0.022,0.046-0.068,0.14-0.136,0.282c-0.067,0.145-0.157,0.307-0.27,0.49c-0.112,0.183-0.243,0.375-0.393,0.578
				c-0.149,0.202-0.313,0.389-0.493,0.561c-0.181,0.172-0.374,0.312-0.583,0.422c-0.208,0.109-0.427,0.164-0.657,0.164
				c-0.248,0-0.449-0.043-0.604-0.131c-0.155-0.086-0.278-0.203-0.371-0.35s-0.156-0.314-0.19-0.506
				c-0.033-0.191-0.051-0.391-0.051-0.6c0-0.275,0.015-0.529,0.043-0.764c0.027-0.232,0.042-0.414,0.042-0.544
				c0-0.141-0.013-0.247-0.038-0.32s-0.057-0.126-0.093-0.156s-0.071-0.048-0.105-0.051s-0.06-0.004-0.076-0.004
				c-0.135,0-0.276,0.074-0.426,0.224c-0.149,0.148-0.303,0.348-0.46,0.595s-0.319,0.528-0.485,0.844s-0.333,0.636-0.502,0.962
				c-0.096,0.18-0.176,0.329-0.24,0.447c-0.064,0.117-0.127,0.211-0.186,0.278c-0.06,0.067-0.117,0.115-0.173,0.144
				c-0.057,0.027-0.118,0.042-0.186,0.042c-0.146,0-0.258-0.051-0.334-0.151c-0.075-0.102-0.113-0.234-0.113-0.396
				c0-0.085,0.003-0.197,0.008-0.338c0.006-0.141,0.012-0.295,0.018-0.465c0.005-0.168,0.014-0.343,0.025-0.522
				c0.011-0.181,0.02-0.353,0.025-0.519c0.005-0.166,0.011-0.314,0.017-0.443c0.005-0.129,0.008-0.229,0.008-0.295
				c0-0.146-0.024-0.252-0.075-0.316s-0.11-0.098-0.178-0.098c-0.062,0-0.131,0.022-0.207,0.068
				c-0.075,0.045-0.164,0.131-0.266,0.261c-0.078,0.102-0.178,0.249-0.299,0.442c-0.121,0.195-0.249,0.41-0.385,0.646
				c-0.135,0.236-0.268,0.478-0.4,0.725c-0.132,0.248-0.246,0.471-0.342,0.667c-0.118,0.236-0.236,0.397-0.354,0.485
				s-0.233,0.131-0.346,0.131c-0.163,0-0.284-0.049-0.362-0.148c-0.079-0.098-0.118-0.229-0.118-0.392
				c0-0.017,0.004-0.118,0.013-0.304c0.008-0.186,0.018-0.412,0.029-0.68c0.011-0.267,0.023-0.553,0.038-0.855
				c0.014-0.305,0.026-0.588,0.038-0.853c0.005-0.141,0-0.271-0.018-0.388c-0.017-0.119-0.039-0.189-0.067-0.211
				c-0.045,0.011-0.134,0.115-0.266,0.312s-0.3,0.54-0.502,1.029c-0.028,0.062-0.07,0.11-0.127,0.144
				c-0.056,0.033-0.115,0.051-0.177,0.051c-0.096,0-0.172-0.032-0.228-0.098c-0.057-0.064-0.085-0.139-0.085-0.223
				c0-0.039,0.009-0.082,0.025-0.127c0.253-0.602,0.495-1.045,0.726-1.329s0.456-0.426,0.675-0.426c0.13,0,0.238,0.029,0.325,0.089
				c0.087,0.059,0.156,0.135,0.207,0.228s0.087,0.198,0.109,0.316s0.034,0.233,0.034,0.346c0,0.501-0.013,0.959-0.038,1.376
				C245.394,251.114,245.366,251.533,245.339,251.955z"/>
			<path d="M255.446,251.778c0.118,0.162,0.271,0.293,0.456,0.392s0.413,0.147,0.684,0.147c0.275,0,0.525-0.066,0.751-0.198
				c0.225-0.132,0.43-0.305,0.615-0.519s0.352-0.453,0.498-0.717c0.146-0.265,0.278-0.529,0.396-0.793
				c0.028-0.062,0.067-0.109,0.118-0.14c0.051-0.031,0.107-0.046,0.169-0.046c0.096,0,0.173,0.033,0.231,0.101
				c0.06,0.067,0.089,0.141,0.089,0.22c0,0.027-0.003,0.052-0.009,0.071c-0.005,0.02-0.014,0.041-0.024,0.063
				c-0.389,0.855-0.812,1.499-1.271,1.932c-0.458,0.434-0.977,0.656-1.557,0.667c-0.371,0-0.691-0.071-0.962-0.216
				c-0.27-0.143-0.492-0.328-0.666-0.557c-0.175-0.228-0.304-0.484-0.389-0.771c-0.084-0.287-0.126-0.574-0.126-0.861
				c0-0.286,0.035-0.551,0.105-0.793s0.171-0.453,0.304-0.633c0.132-0.18,0.289-0.32,0.473-0.422
				c0.183-0.102,0.384-0.151,0.603-0.151c0.13,0,0.258,0.026,0.384,0.08c0.127,0.054,0.241,0.13,0.342,0.228
				c0.102,0.099,0.184,0.219,0.245,0.359s0.093,0.301,0.093,0.48c0,0.23-0.039,0.447-0.118,0.649s-0.188,0.392-0.325,0.565
				s-0.302,0.335-0.493,0.48C255.871,251.544,255.666,251.671,255.446,251.778z M255.193,251.229
				c0.175-0.073,0.333-0.166,0.477-0.279c0.144-0.111,0.266-0.236,0.367-0.371s0.18-0.276,0.236-0.426
				c0.057-0.148,0.084-0.299,0.084-0.451c0-0.169-0.042-0.297-0.126-0.384c-0.085-0.087-0.183-0.131-0.296-0.131
				c-0.151,0-0.281,0.042-0.388,0.126c-0.107,0.085-0.194,0.194-0.262,0.33c-0.067,0.135-0.116,0.285-0.147,0.451
				s-0.047,0.33-0.047,0.493c0,0.102,0.01,0.208,0.03,0.321C255.142,251.021,255.165,251.128,255.193,251.229z"/>
			<path d="M262.12,250.251c0.276,1.299,0.676,1.949,1.198,1.949c0.203,0,0.396-0.075,0.582-0.225
				c0.186-0.148,0.359-0.332,0.52-0.548c0.16-0.217,0.302-0.446,0.426-0.688c0.124-0.241,0.225-0.452,0.304-0.633
				c0.057-0.135,0.154-0.201,0.295-0.201c0.091,0,0.166,0.033,0.229,0.101c0.062,0.067,0.093,0.141,0.093,0.22
				c0,0.045-0.009,0.084-0.025,0.117c-0.039,0.096-0.098,0.225-0.173,0.385c-0.076,0.16-0.169,0.332-0.278,0.514
				c-0.11,0.184-0.232,0.371-0.367,0.562c-0.135,0.191-0.284,0.363-0.447,0.515c-0.163,0.152-0.336,0.277-0.52,0.375
				c-0.183,0.1-0.375,0.148-0.577,0.148c-0.377,0-0.7-0.131-0.971-0.393c-0.27-0.262-0.503-0.693-0.7-1.295
				c-0.27,0.574-0.543,0.99-0.818,1.248c-0.275,0.26-0.574,0.389-0.895,0.389c-0.169,0-0.332-0.027-0.489-0.08
				s-0.295-0.143-0.413-0.266c-0.118-0.124-0.214-0.283-0.287-0.477c-0.073-0.194-0.109-0.432-0.109-0.713
				c0-0.389,0.067-0.746,0.202-1.072s0.31-0.605,0.523-0.84c0.213-0.232,0.451-0.414,0.713-0.543c0.261-0.13,0.521-0.195,0.78-0.195
				c0.084,0,0.157,0.03,0.219,0.09c0.062,0.059,0.094,0.133,0.094,0.223c0,0.079-0.025,0.149-0.076,0.211
				c-0.051,0.062-0.118,0.099-0.203,0.109c-0.168,0.023-0.349,0.076-0.54,0.161c-0.19,0.085-0.366,0.206-0.527,0.366
				c-0.16,0.161-0.292,0.365-0.396,0.612c-0.104,0.247-0.155,0.543-0.155,0.886c0,0.281,0.058,0.501,0.173,0.658
				c0.115,0.158,0.282,0.236,0.502,0.236c0.09,0,0.186-0.023,0.286-0.072c0.102-0.047,0.21-0.142,0.325-0.282s0.242-0.34,0.38-0.599
				s0.291-0.6,0.46-1.021c-0.096-0.494-0.183-1.065-0.262-1.713c-0.079-0.646-0.118-1.369-0.118-2.168
				c0-0.349,0.012-0.713,0.034-1.093s0.059-0.751,0.109-1.114c0.051-0.362,0.118-0.707,0.202-1.033
				c0.085-0.326,0.188-0.613,0.309-0.86c0.12-0.247,0.263-0.442,0.426-0.587c0.163-0.143,0.349-0.215,0.557-0.215
				c0.186,0,0.344,0.051,0.473,0.152s0.234,0.242,0.316,0.422s0.142,0.396,0.182,0.649c0.039,0.253,0.059,0.532,0.059,0.835
				c0,0.652-0.056,1.305-0.169,1.958c-0.112,0.652-0.251,1.276-0.417,1.873s-0.342,1.147-0.527,1.653
				S262.272,249.885,262.12,250.251z M263.107,243.45c0-0.141-0.004-0.293-0.013-0.456c-0.008-0.163-0.028-0.316-0.059-0.46
				c-0.031-0.143-0.072-0.263-0.122-0.358c-0.051-0.096-0.118-0.144-0.203-0.144c-0.141,0-0.271,0.124-0.393,0.371
				c-0.12,0.248-0.226,0.572-0.316,0.975c-0.09,0.402-0.161,0.857-0.215,1.367s-0.08,1.022-0.08,1.54
				c0,0.495,0.02,0.989,0.059,1.485c0.04,0.494,0.085,0.936,0.136,1.324c0.163-0.434,0.317-0.879,0.464-1.338
				c0.146-0.458,0.274-0.926,0.384-1.404s0.197-0.961,0.262-1.447S263.107,243.934,263.107,243.45z"/>
			<path d="M266.17,251.778c0.118,0.162,0.271,0.293,0.456,0.392s0.413,0.147,0.684,0.147c0.275,0,0.525-0.066,0.751-0.198
				c0.225-0.132,0.43-0.305,0.616-0.519c0.186-0.214,0.351-0.453,0.497-0.717c0.146-0.265,0.278-0.529,0.396-0.793
				c0.028-0.062,0.068-0.109,0.118-0.14c0.051-0.031,0.107-0.046,0.169-0.046c0.096,0,0.173,0.033,0.232,0.101
				c0.059,0.067,0.088,0.141,0.088,0.22c0,0.027-0.002,0.052-0.008,0.071s-0.015,0.041-0.025,0.063
				c-0.389,0.855-0.812,1.499-1.27,1.932c-0.459,0.434-0.978,0.656-1.557,0.667c-0.372,0-0.692-0.071-0.962-0.216
				c-0.271-0.143-0.492-0.328-0.667-0.557c-0.175-0.228-0.304-0.484-0.388-0.771c-0.085-0.287-0.127-0.574-0.127-0.861
				c0-0.286,0.035-0.551,0.105-0.793s0.172-0.453,0.304-0.633s0.29-0.32,0.473-0.422s0.384-0.151,0.604-0.151
				c0.129,0,0.257,0.026,0.384,0.08c0.126,0.054,0.24,0.13,0.342,0.228c0.101,0.099,0.183,0.219,0.244,0.359
				c0.062,0.141,0.093,0.301,0.093,0.48c0,0.23-0.039,0.447-0.118,0.649c-0.078,0.202-0.187,0.392-0.324,0.565
				s-0.303,0.335-0.494,0.48C266.595,251.544,266.39,251.671,266.17,251.778z M265.917,251.229c0.175-0.073,0.334-0.166,0.477-0.279
				c0.144-0.111,0.267-0.236,0.367-0.371c0.102-0.135,0.181-0.276,0.236-0.426c0.057-0.148,0.085-0.299,0.085-0.451
				c0-0.169-0.043-0.297-0.127-0.384s-0.183-0.131-0.295-0.131c-0.152,0-0.281,0.042-0.389,0.126
				c-0.106,0.085-0.194,0.194-0.262,0.33c-0.067,0.135-0.116,0.285-0.147,0.451s-0.046,0.33-0.046,0.493
				c0,0.102,0.01,0.208,0.029,0.321C265.865,251.021,265.889,251.128,265.917,251.229z"/>
			<path d="M274.371,250.368c-0.062,0.13-0.139,0.283-0.231,0.461c-0.093,0.177-0.198,0.361-0.316,0.552
				c-0.118,0.191-0.25,0.382-0.396,0.569c-0.146,0.189-0.306,0.357-0.477,0.507c-0.172,0.149-0.354,0.271-0.549,0.362
				c-0.194,0.094-0.4,0.14-0.62,0.14c-0.338,0-0.627-0.104-0.869-0.312s-0.447-0.48-0.616-0.818
				c-0.168-0.337-0.305-0.722-0.409-1.151c-0.104-0.431-0.184-0.869-0.24-1.316s-0.094-0.882-0.113-1.304
				c-0.021-0.422-0.03-0.796-0.03-1.122c0-0.473,0.016-0.962,0.047-1.469c0.03-0.506,0.08-1,0.147-1.484s0.153-0.941,0.258-1.375
				c0.104-0.434,0.228-0.812,0.371-1.139c0.143-0.326,0.308-0.586,0.493-0.777s0.396-0.286,0.633-0.286
				c0.186,0,0.353,0.044,0.502,0.13c0.149,0.088,0.274,0.23,0.376,0.427c0.101,0.196,0.18,0.452,0.236,0.768
				c0.056,0.315,0.084,0.7,0.084,1.156c0,0.562-0.06,1.144-0.178,1.742c-0.117,0.599-0.278,1.202-0.48,1.81
				s-0.441,1.214-0.717,1.818c-0.276,0.605-0.571,1.193-0.887,1.768c0.141,0.715,0.329,1.275,0.565,1.684s0.521,0.611,0.853,0.611
				c0.225,0,0.441-0.088,0.649-0.266s0.399-0.387,0.574-0.629c0.174-0.241,0.327-0.487,0.46-0.738
				c0.132-0.25,0.234-0.451,0.308-0.604c0.028-0.056,0.067-0.1,0.118-0.13c0.051-0.031,0.106-0.046,0.169-0.046
				c0.096,0,0.173,0.033,0.231,0.101c0.06,0.067,0.089,0.144,0.089,0.228C274.405,250.268,274.395,250.312,274.371,250.368z
				 M270.145,246.977c0,0.36,0.008,0.706,0.025,1.038c0.017,0.332,0.039,0.649,0.067,0.953c0.236-0.455,0.461-0.94,0.675-1.455
				s0.402-1.035,0.565-1.561c0.163-0.526,0.294-1.049,0.393-1.57c0.099-0.52,0.147-1.016,0.147-1.488c0-0.664-0.054-1.14-0.16-1.426
				c-0.107-0.287-0.251-0.431-0.431-0.431c-0.118,0-0.231,0.081-0.342,0.245c-0.109,0.162-0.212,0.385-0.308,0.666
				s-0.183,0.613-0.262,0.996c-0.079,0.382-0.145,0.793-0.198,1.231s-0.096,0.897-0.127,1.375
				C270.16,246.028,270.145,246.505,270.145,246.977z"/>
		</g>
	</g>
</g>
</svg>
