<?xml version="1.0" encoding="utf-8"?>
<!-- Generator: Adobe Illustrator 15.0.2, SVG Export Plug-In . SVG Version: 6.00 Build 0)  -->
<!DOCTYPE svg PUBLIC "-//W3C//DTD SVG 1.1//EN" "http://www.w3.org/Graphics/SVG/1.1/DTD/svg11.dtd">
<svg version="1.1" id="Lager_1" xmlns="http://www.w3.org/2000/svg" xmlns:xlink="http://www.w3.org/1999/xlink" x="0px" y="0px"
	 width="393.317px" height="285.544px" viewBox="0 0 393.317 285.544" enable-background="new 0 0 393.317 285.544"
	 xml:space="preserve">
<g>
	
		<path fill="#905B9D" stroke="#905B9D" stroke-width="0.5298" stroke-linecap="round" stroke-linejoin="round" stroke-miterlimit="10" d="
		M137.905,180.703c0-7.073-5.737-12.811-12.814-12.811l0,0c-7.074,0-12.811,5.737-12.811,12.811v82.987
		c0,11.923-9.663,21.589-21.586,21.589l0,0c-11.922,0-21.588-9.666-21.588-21.589v-82.987c0-7.073-5.736-12.811-12.812-12.811l0,0
		c-7.077,0-12.813,5.737-12.813,12.811h-0.04v82.987c0,11.923-9.663,21.589-21.586,21.589l0,0c-11.923,0-21.589-9.666-21.589-21.589
		v-82.987V90.692c0-49.941,40.486-90.427,90.428-90.427l0,0c49.941,0,90.424,40.486,90.424,90.427v90.011v82.987
		c0,11.923-9.662,21.589-21.585,21.589l0,0c-11.923,0-21.589-9.666-21.589-21.589v-82.987"/>
	
		<path fill="#814893" stroke="#814893" stroke-width="0.5298" stroke-linecap="round" stroke-linejoin="round" stroke-miterlimit="10" d="
		M90.693,0.265L90.693,0.265c-49.942,0-90.428,40.486-90.428,90.427v90.011v82.987c0,11.923,9.666,21.589,21.589,21.589l0,0
		c11.923,0,21.586-9.666,21.586-21.589v-82.987h0.04c0-7.073,5.736-12.811,12.813-12.811l0,0c7.077,0,12.812,5.737,12.812,12.811
		v82.987c0,11.923,9.666,21.589,21.588,21.589l0,0V0.265z"/>
	
		<circle fill="#814893" stroke="#814893" stroke-width="0.5298" stroke-linecap="round" stroke-linejoin="round" stroke-miterlimit="10" cx="128.824" cy="35.633" r="13.904"/>
	
		<circle fill="#814893" stroke="#814893" stroke-width="0.328" stroke-linecap="round" stroke-linejoin="round" stroke-miterlimit="10" cx="147.502" cy="52.889" r="8.606"/>
	
		<path fill="none" stroke="#6D3C7C" stroke-width="6.1907" stroke-linecap="round" stroke-linejoin="round" stroke-miterlimit="10" d="
		M49.593,80.678c0-6.931,6.183-12.545,13.812-12.545c7.629,0,13.812,5.614,13.812,12.545"/>
	
		<path fill="none" stroke="#6D3C7C" stroke-width="6.1907" stroke-linecap="round" stroke-linejoin="round" stroke-miterlimit="10" d="
		M103.323,80.678c0-6.931,6.183-12.545,13.811-12.545c7.628,0,13.814,5.614,13.814,12.545"/>
	<path fill="none" stroke="#6D3C7C" stroke-width="3.9722" stroke-linecap="round" stroke-miterlimit="10" d="M54.337,112.665
		c0,0,33.211,21.188,72.712,0"/>
	
		<path fill="#EC7BAA" stroke="#EC7BAA" stroke-width="0.4001" stroke-linecap="round" stroke-linejoin="round" stroke-miterlimit="10" d="
		M255.479,104.841c0,7.073,5.736,12.811,12.814,12.811l0,0c7.073,0,12.811-5.737,12.811-12.811V21.854
		c0-11.923,9.663-21.589,21.586-21.589l0,0c11.922,0,21.588,9.666,21.588,21.589v82.987c0,7.073,5.736,12.811,12.812,12.811l0,0
		c7.078,0,12.813-5.737,12.813-12.811h0.04V21.854c0-11.923,9.662-21.589,21.586-21.589l0,0c11.922,0,21.588,9.666,21.588,21.589
		v82.987v90.011c0,49.94-40.486,90.427-90.428,90.427l0,0c-49.941,0-90.424-40.486-90.424-90.427v-90.011V21.854
		c0-11.923,9.662-21.589,21.586-21.589l0,0c11.923,0,21.588,9.666,21.588,21.589v82.987"/>
	
		<path fill="#E6458F" stroke="#E6458F" stroke-width="0.4001" stroke-linecap="round" stroke-linejoin="round" stroke-miterlimit="10" d="
		M302.689,285.279L302.689,285.279c49.941,0,90.428-40.486,90.428-90.427v-90.011V21.854c0-11.923-9.666-21.589-21.588-21.589l0,0
		c-11.924,0-21.586,9.666-21.586,21.589v82.987h-0.04c0,7.073-5.735,12.811-12.813,12.811l0,0c-7.076,0-12.812-5.737-12.812-12.811
		V21.854c0-11.923-9.666-21.589-21.588-21.589l0,0V285.279z"/>
	
		<circle fill="#E6458F" stroke="#E6458F" stroke-width="0.4001" stroke-linecap="round" stroke-linejoin="round" stroke-miterlimit="10" cx="264.559" cy="249.911" r="13.904"/>
	
		<path fill="#E6458F" stroke="#E6458F" stroke-width="0.4001" stroke-linecap="round" stroke-linejoin="round" stroke-miterlimit="10" d="
		M237.275,232.655c0-4.755,3.852-8.607,8.607-8.607c4.752,0,8.604,3.853,8.604,8.607c0,4.753-3.852,8.605-8.604,8.605
		C241.127,241.261,237.275,237.408,237.275,232.655z"/>
	<path fill="none" stroke="#D1277D" stroke-width="3.9722" stroke-linecap="round" stroke-miterlimit="10" d="M266.333,163.464
		c0,0,33.212,21.188,72.713,0"/>
	<g>
		
			<line fill="none" stroke="#D1277D" stroke-width="4.3164" stroke-linecap="round" stroke-linejoin="round" stroke-miterlimit="10" x1="266.333" y1="194.264" x2="284.758" y2="212.688"/>
		
			<line fill="none" stroke="#D1277D" stroke-width="4.3164" stroke-linecap="round" stroke-linejoin="round" stroke-miterlimit="10" x1="284.758" y1="194.264" x2="266.334" y2="212.688"/>
	</g>
	<g>
		
			<line fill="none" stroke="#D1277D" stroke-width="4.3164" stroke-linecap="round" stroke-linejoin="round" stroke-miterlimit="10" x1="320.69" y1="194.264" x2="339.115" y2="212.688"/>
		
			<line fill="none" stroke="#D1277D" stroke-width="4.3164" stroke-linecap="round" stroke-linejoin="round" stroke-miterlimit="10" x1="339.115" y1="194.264" x2="320.691" y2="212.688"/>
	</g>
</g>
</svg>
