<?xml version="1.0" encoding="utf-8"?>
<!-- Generator: Adobe Illustrator 15.0.2, SVG Export Plug-In . SVG Version: 6.00 Build 0)  -->
<!DOCTYPE svg PUBLIC "-//W3C//DTD SVG 1.1//EN" "http://www.w3.org/Graphics/SVG/1.1/DTD/svg11.dtd">
<svg version="1.1" id="Lager_1" xmlns="http://www.w3.org/2000/svg" xmlns:xlink="http://www.w3.org/1999/xlink" x="0px" y="0px"
	 width="250.035px" height="263.59px" viewBox="0 0 250.035 263.59" enable-background="new 0 0 250.035 263.59"
	 xml:space="preserve">
<g>
	<polygon fill="#65A5A2" points="189.018,255.339 61.018,255.339 85.018,113.748 165.018,113.748 	"/>
	<g>
		<g>
			
				<path fill="#3AAA35" stroke="#3AAA35" stroke-width="2.1813" stroke-linecap="round" stroke-linejoin="round" stroke-miterlimit="10" d="
				M129.56,88.438c-5.758,1.953-8.229,1.588-8.229,1.588c-1.359,0.003-2.667-0.387-3.89-1.052l0.005,0.022
				c-15.974-7.712-27.014-24.044-27.078-42.975c-0.055-17.875,9.694-33.496,24.183-41.763l0.573-0.324
				c2.696-1.485,5.718-2.266,7.264-2.271c1.74-0.005,3.329,0.119,4.809,0.67l3.013,0.994v84.877L129.56,88.438z"/>
			<path fill="#E3E683" d="M127.204,85.76"/>
			<path fill="#E3E683" d="M127.204,85.76c-3.1,0.934-4.811,1.02-5.301,1.023c-0.096,0-0.167-0.002-0.205-0.008l-0.243-0.035
				l-0.136,0.014c-0.734,0.004-1.512-0.214-2.303-0.65l-4.698-2.578c-12.825-8.109-20.628-22.06-20.678-37.514
				c-0.053-16.042,8.583-30.952,22.532-38.914l0.562-0.32c2.349-1.289,4.851-1.84,5.662-1.844c1.674-0.005,2.766,0.136,3.654,0.467
				l0.893,0.295l4.385,2.553v76.374L127.204,85.76"/>
			
				<path fill="#E9EBA1" stroke="#E9EBA1" stroke-width="2.1813" stroke-linecap="round" stroke-linejoin="round" stroke-miterlimit="10" d="
				M127.204,85.76"/>
			<path fill="#BE1622" stroke="#BE1622" stroke-width="0.3299" stroke-miterlimit="10" d="M117.445,88.997"/>
		</g>
		<g>
			<g>
				<path fill="#432918" stroke="#432918" stroke-width="0.9668" stroke-miterlimit="10" d="M128.578,45.841
					c0.007,2.533-0.888,4.594-2.001,4.596c-1.111,0.005-2.021-2.048-2.031-4.585c-0.008-2.537,0.89-4.596,2-4.602
					C127.657,41.247,128.569,43.303,128.578,45.841z"/>
			</g>
		</g>
	</g>
	<g>
		<polygon fill="#FFD600" points="224.757,90.054 150.167,90.054 188.011,0 		"/>
		<polygon fill="#FDC100" points="188.011,0 150.167,90.054 188.011,90.054 		"/>
		<circle fill="#FFD600" cx="182.473" cy="34.179" r="3.842"/>
		<path fill="#FDC100" d="M196.431,54.833c0,4.651-3.771,8.42-8.418,8.42c-4.652,0-8.421-3.769-8.421-8.42s3.769-8.421,8.421-8.421
			C192.659,46.413,196.431,50.182,196.431,54.833z"/>
		<circle fill="#FDC100" cx="207.042" cy="71.808" r="5.503"/>
		<circle fill="#FFD600" cx="171.945" cy="73.876" r="9.015"/>
		<path fill="#FFD600" d="M188.013,63.253c-4.652,0-8.421-3.769-8.421-8.42s3.769-8.421,8.421-8.421V63.253z"/>
	</g>
	<path fill="#FFDA3F" d="M52.078,0.001c17.958,0,18.801,20.021,18.801,44.719s-0.844,44.72-18.801,44.72
		s-32.514-20.022-32.514-44.72S34.121,0.001,52.078,0.001z"/>
	<g>
		<defs>
			<path id="SVGID_1_" d="M52.078,0.001c17.958,0,18.801,20.022,18.801,44.72c0,24.697-0.844,44.719-18.801,44.719
				s-32.514-20.022-32.514-44.72S34.121,0.001,52.078,0.001z"/>
		</defs>
		<clipPath id="SVGID_2_">
			<use xlink:href="#SVGID_1_"  overflow="visible"/>
		</clipPath>
		
			<line clip-path="url(#SVGID_2_)" fill="none" stroke="#FFCE0E" stroke-width="5.3913" stroke-miterlimit="10" x1="17.301" y1="10.734" x2="83.283" y2="10.734"/>
		
			<line clip-path="url(#SVGID_2_)" fill="none" stroke="#FFCE0E" stroke-width="5.3913" stroke-miterlimit="10" x1="17.301" y1="22.063" x2="83.283" y2="22.063"/>
		
			<line clip-path="url(#SVGID_2_)" fill="none" stroke="#FFCE0E" stroke-width="5.3913" stroke-miterlimit="10" x1="17.301" y1="33.392" x2="83.283" y2="33.392"/>
		
			<line clip-path="url(#SVGID_2_)" fill="none" stroke="#FFCE0E" stroke-width="5.3913" stroke-miterlimit="10" x1="17.301" y1="44.722" x2="83.283" y2="44.722"/>
		
			<line clip-path="url(#SVGID_2_)" fill="none" stroke="#FFCE0E" stroke-width="5.3913" stroke-miterlimit="10" x1="17.301" y1="56.051" x2="83.283" y2="56.051"/>
		
			<line clip-path="url(#SVGID_2_)" fill="none" stroke="#FFCE0E" stroke-width="5.3913" stroke-miterlimit="10" x1="17.301" y1="67.379" x2="83.283" y2="67.379"/>
		
			<line clip-path="url(#SVGID_2_)" fill="none" stroke="#FFCE0E" stroke-width="5.3913" stroke-miterlimit="10" x1="17.301" y1="78.709" x2="83.283" y2="78.709"/>
	</g>
	<path fill="#C6C6C6" d="M0,75.594L0,75.594c0,15.972,12.948,28.92,28.919,28.92h192.196c15.972,0,28.92-12.948,28.92-28.92l0,0H0z"
		/>
	<polygon fill="#478E89" points="61.018,255.339 85.018,113.748 125.018,113.748 125.018,255.339 	"/>
	<g>
		<circle fill="#C6C6C6" cx="125.018" cy="183.821" r="58.58"/>
		<path fill="#B2B2B2" d="M125.018,242.401c-32.353,0-58.58-26.228-58.58-58.58s26.227-58.58,58.58-58.58V242.401z"/>
		<circle fill="#FFFFFF" cx="125.018" cy="183.821" r="49.627"/>
		<path fill="#F6F6F6" d="M125.018,233.448c-27.408,0-49.626-22.219-49.626-49.627s22.219-49.627,49.626-49.627V233.448z"/>
		
			<polygon fill="#E6332A" stroke="#E6332A" stroke-width="1.4288" stroke-linecap="round" stroke-linejoin="round" stroke-miterlimit="10" points="
			127.875,203.225 122.16,203.225 125.018,145.716 		"/>
		<circle cx="125.018" cy="183.822" r="4.604"/>
	</g>
	<rect x="51.651" y="253.589" fill="#65A5A2" width="146.732" height="10.001"/>
	<rect x="51.651" y="253.589" fill="#478E89" width="73.366" height="10.001"/>
	<path fill="#B2B2B2" d="M28.919,104.514C12.948,104.514,0,91.565,0,75.594l0,0h250.035H125.018v28.92H28.919z"/>
</g>
</svg>
