<?xml version="1.0" encoding="utf-8"?>
<!-- Generator: Adobe Illustrator 15.0.2, SVG Export Plug-In . SVG Version: 6.00 Build 0)  -->
<!DOCTYPE svg PUBLIC "-//W3C//DTD SVG 1.1//EN" "http://www.w3.org/Graphics/SVG/1.1/DTD/svg11.dtd">
<svg version="1.1" id="Lager_1" xmlns="http://www.w3.org/2000/svg" xmlns:xlink="http://www.w3.org/1999/xlink" x="0px" y="0px"
	 width="178.838px" height="355.751px" viewBox="0 0 178.838 355.751" enable-background="new 0 0 178.838 355.751"
	 xml:space="preserve">
<g>
	<path opacity="0.85" fill="#DFF1FC" stroke="#DFF1FC" stroke-width="1.5404" stroke-miterlimit="10" d="M156.068,351.981
		c0,1.658-1.343,3-3,3H30.401c-1.657,0-3-1.342-3-3l-22-211.469c0-1.657,1.343-3,3-3h166.667c1.657,0,3,1.343,3,3L156.068,351.981z"
		/>
	<polygon fill="#F5FBFF" points="33.603,333.725 13.965,136.762 169.505,136.762 149.855,333.84 	"/>
	<path opacity="0.12" fill="#10B8EC" stroke="#10B8EC" stroke-width="1.5404" stroke-miterlimit="10" d="M30.401,354.981
		c-1.657,0-3-1.342-3-3l-22-211.469c0-1.657,1.343-3,3-3h86.667v217.469H30.401z"/>
	<polygon fill="#FFFFFF" points="33.603,333.725 20.15,198.801 163.316,198.834 149.855,333.84 	"/>
	<polygon fill="#F5F5F5" points="95.068,333.84 33.603,333.725 20.15,198.801 95.068,198.801 	"/>
	<path fill="#DFF1FC" d="M104.053,278.102V9.667c0-5.339-4.328-9.667-9.666-9.667s-9.666,4.328-9.666,9.667v268.436
		c-6.635,3.484-11.166,10.431-11.166,18.444c0,11.505,9.326,20.831,20.832,20.831c11.504,0,20.832-9.326,20.832-20.831
		C115.219,288.533,110.688,281.586,104.053,278.102z"/>
	<path fill="#FFFFFF" d="M94.387,312.377c-8.729,0-15.832-7.102-15.832-15.831c0-5.896,3.254-11.268,8.49-14.018l2.676-1.405V9.667
		C89.721,7.093,91.814,5,94.387,5c2.574,0,4.666,2.093,4.666,4.667v271.457l2.676,1.405c5.236,2.75,8.49,8.122,8.49,14.018
		C110.219,305.276,103.117,312.377,94.387,312.377z"/>
	<path fill="#E94B3D" d="M99.053,81.076v200.048l2.676,1.405c5.236,2.75,8.49,8.122,8.49,14.018c0,8.729-7.102,15.831-15.832,15.831
		c-8.729,0-15.832-7.102-15.832-15.831c0-5.896,3.254-11.268,8.49-14.018l2.676-1.405V81.076H99.053z"/>
	
		<circle opacity="0.2" fill="#2EAC68" stroke="#2EAC68" stroke-width="1.5404" stroke-miterlimit="10" cx="47.781" cy="223.786" r="10.974"/>
	
		<circle opacity="0.2" fill="#2EAC68" stroke="#2EAC68" stroke-width="1.5404" stroke-miterlimit="10" cx="66.152" cy="244.051" r="7.397"/>
	
		<circle opacity="0.2" fill="#2EAC68" stroke="#2EAC68" stroke-width="1.5404" stroke-miterlimit="10" cx="46.459" cy="248.542" r="4.491"/>
</g>
</svg>
