<?xml version="1.0" encoding="utf-8"?>
<!-- Generator: Adobe Illustrator 17.1.0, SVG Export Plug-In . SVG Version: 6.00 Build 0)  -->
<!DOCTYPE svg PUBLIC "-//W3C//DTD SVG 1.1//EN" "http://www.w3.org/Graphics/SVG/1.1/DTD/svg11.dtd">
<svg version="1.1" xmlns="http://www.w3.org/2000/svg" xmlns:xlink="http://www.w3.org/1999/xlink" x="0px" y="0px"
	 viewBox="0 0 270.881 264.049" enable-background="new 0 0 270.881 264.049" xml:space="preserve">
<g id="Layer_1">
	<g>
		
			<path fill="#F6F6F6" stroke="#F6F6F6" stroke-width="1.4609" stroke-linecap="round" stroke-linejoin="round" stroke-miterlimit="10" d="
			M227.212,65.537c-42.9-15.623-45.541-41.966-45.541-41.966C176.034,0.73,153.849,0.73,136.832,0.73s-39.201,0-44.839,22.841
			c0,0-2.642,26.343-45.541,41.966c-58.929,21.46-45.243,62.78-28.686,137.037l11.687,36.286c0,0,102.996,55.03,214.757,0
			l11.687-36.286C272.455,128.317,286.141,86.998,227.212,65.537z M44.444,160.706c0,1.926-1.561,3.488-3.488,3.488h-3.278
			c-1.925,0-3.487-1.562-3.487-3.488v-25.195c0-1.925,1.562-3.487,3.487-3.487h3.278c1.927,0,3.488,1.562,3.488,3.487V160.706z
			 M65.384,216.646c0,1.926-1.561,3.488-3.488,3.488h-3.277c-1.925,0-3.487-1.562-3.487-3.488V191.45
			c0-1.925,1.562-3.487,3.487-3.487h3.277c1.927,0,3.488,1.562,3.488,3.487V216.646z M82.731,173.397
			c0,1.926-1.561,3.488-3.488,3.488h-3.277c-1.925,0-3.487-1.562-3.487-3.488v-25.195c0-1.926,1.561-3.488,3.487-3.488h3.277
			c1.927,0,3.488,1.562,3.488,3.488V173.397z M103.671,229.336c0,1.926-1.561,3.488-3.488,3.488h-3.277
			c-1.925,0-3.487-1.562-3.487-3.488v-25.195c0-1.926,1.562-3.488,3.487-3.488h3.277c1.927,0,3.488,1.562,3.488,3.488V229.336z
			 M121.018,180.761c0,1.926-1.561,3.488-3.488,3.488h-3.278c-1.925,0-3.487-1.562-3.487-3.488v-25.195
			c0-1.926,1.562-3.488,3.487-3.488h3.278c1.927,0,3.488,1.562,3.488,3.488V180.761z M141.958,236.701
			c0,1.926-1.561,3.488-3.488,3.488h-3.278c-1.925,0-3.487-1.562-3.487-3.488v-25.195c0-1.926,1.562-3.488,3.487-3.488h3.278
			c1.927,0,3.488,1.562,3.488,3.488V236.701z M159.306,180.761c0,1.926-1.562,3.488-3.487,3.488h-3.278
			c-1.927,0-3.488-1.562-3.488-3.488v-25.195c0-1.926,1.561-3.488,3.488-3.488h3.278c1.925,0,3.487,1.562,3.487,3.488V180.761z
			 M163.399,35.732c0,3.514-2.848,6.361-6.361,6.361h-43.13c-3.513,0-6.362-2.848-6.362-6.361v-0.243
			c0-3.514,2.849-6.361,6.362-6.361h43.13c3.513,0,6.361,2.848,6.361,6.361V35.732z M180.244,229.336
			c0,1.926-1.561,3.488-3.488,3.488h-3.277c-1.927,0-3.488-1.562-3.488-3.488v-25.195c0-1.926,1.561-3.488,3.488-3.488h3.277
			c1.926,0,3.488,1.562,3.488,3.488V229.336z M197.592,173.397c0,1.926-1.562,3.488-3.487,3.488h-3.277
			c-1.927,0-3.488-1.562-3.488-3.488v-25.195c0-1.926,1.561-3.488,3.488-3.488h3.277c1.925,0,3.487,1.562,3.487,3.488V173.397z
			 M218.531,216.646c0,1.926-1.561,3.488-3.487,3.488h-3.278c-1.926,0-3.488-1.562-3.488-3.488V191.45
			c0-1.925,1.562-3.487,3.488-3.487h3.278c1.925,0,3.487,1.562,3.487,3.487V216.646z M235.88,160.706
			c0,1.926-1.562,3.488-3.487,3.488h-3.278c-1.927,0-3.488-1.562-3.488-3.488v-25.195c0-1.925,1.561-3.487,3.488-3.487h3.278
			c1.925,0,3.487,1.562,3.487,3.487V160.706z"/>
		
			<path fill="#EFEEEE" stroke="#EFEEEE" stroke-width="1.3651" stroke-linecap="round" stroke-linejoin="round" stroke-miterlimit="10" d="
			M135.192,240.188c-1.925,0-3.487-1.562-3.487-3.488v-25.195c0-1.926,1.562-3.488,3.487-3.488h1.838l-0.159-165.925h-22.963
			c-3.513,0-6.362-2.848-6.362-6.361v-0.243c0-3.514,2.849-6.361,6.362-6.361h22.951L136.832,0.73c-17.017,0-39.201,0-44.839,22.841
			c0,0-2.642,26.343-45.541,41.966c-58.929,21.46-45.243,62.78-28.686,137.037l11.687,36.286c0,0,44.925,24.003,107.629,24.451
			l-0.022-23.124H135.192z M44.444,160.706c0,1.926-1.561,3.488-3.488,3.488h-3.278c-1.925,0-3.487-1.562-3.487-3.488v-25.195
			c0-1.925,1.562-3.487,3.487-3.487h3.278c1.927,0,3.488,1.562,3.488,3.487V160.706z M65.384,216.646
			c0,1.926-1.561,3.488-3.488,3.488h-3.277c-1.925,0-3.487-1.562-3.487-3.488V191.45c0-1.925,1.562-3.487,3.487-3.487h3.277
			c1.927,0,3.488,1.562,3.488,3.487V216.646z M82.731,173.397c0,1.926-1.561,3.488-3.488,3.488h-3.277
			c-1.925,0-3.487-1.562-3.487-3.488v-25.195c0-1.926,1.561-3.488,3.487-3.488h3.277c1.927,0,3.488,1.562,3.488,3.488V173.397z
			 M103.671,229.336c0,1.926-1.561,3.488-3.488,3.488h-3.277c-1.925,0-3.487-1.562-3.487-3.488v-25.195
			c0-1.926,1.562-3.488,3.487-3.488h3.277c1.927,0,3.488,1.562,3.488,3.488V229.336z M121.018,180.761
			c0,1.926-1.561,3.488-3.488,3.488h-3.278c-1.925,0-3.487-1.562-3.487-3.488v-25.195c0-1.926,1.562-3.488,3.487-3.488h3.278
			c1.927,0,3.488,1.562,3.488,3.488V180.761z"/>
		<path fill="#EFEEEE" stroke="#EFEEEE" stroke-width="1.3651" stroke-linecap="round" stroke-miterlimit="10" d="M261.379,111.75
			c0,0-33.239-18.495-124.297-17.034v113.302h1.388c1.927,0,3.488,1.562,3.488,3.488v25.195c0,1.926-1.561,3.488-3.488,3.488h-1.388
			v13.178c58.59-0.419,100.567-22.846,100.567-22.846l10.92-33.905C256.597,160.608,263.903,132.889,261.379,111.75z
			 M159.306,180.761c0,1.926-1.562,3.488-3.487,3.488h-3.278c-1.927,0-3.488-1.562-3.488-3.488v-25.195
			c0-1.926,1.561-3.488,3.488-3.488h3.278c1.925,0,3.487,1.562,3.487,3.488V180.761z M180.244,229.336
			c0,1.926-1.561,3.488-3.488,3.488h-3.277c-1.927,0-3.488-1.562-3.488-3.488v-25.195c0-1.926,1.561-3.488,3.488-3.488h3.277
			c1.926,0,3.488,1.562,3.488,3.488V229.336z M197.592,173.397c0,1.926-1.562,3.488-3.487,3.488h-3.277
			c-1.927,0-3.488-1.562-3.488-3.488v-25.195c0-1.926,1.561-3.488,3.488-3.488h3.277c1.925,0,3.487,1.562,3.487,3.488V173.397z
			 M218.531,216.646c0,1.926-1.561,3.488-3.487,3.488h-3.278c-1.926,0-3.488-1.562-3.488-3.488V191.45
			c0-1.925,1.562-3.487,3.488-3.487h3.278c1.925,0,3.487,1.562,3.487,3.487V216.646z M235.88,160.706
			c0,1.926-1.562,3.488-3.487,3.488h-3.278c-1.927,0-3.488-1.562-3.488-3.488v-25.195c0-1.925,1.561-3.487,3.488-3.487h3.278
			c1.925,0,3.487,1.562,3.487,3.487V160.706z"/>
		<path fill="#E7E7E7" stroke="#E7E7E7" stroke-width="1.3651" stroke-linecap="round" stroke-miterlimit="10" d="M135.192,240.188
			c-1.925,0-3.487-1.562-3.487-3.488v-25.195c0-1.926,1.562-3.488,3.487-3.488h1.89V94.716
			C46.025,93.255,12.786,111.75,12.786,111.75c-2.524,21.139,4.782,48.858,12.81,84.864l10.92,33.905
			c0,0,41.977,22.428,100.566,22.846v-13.178H135.192z M44.444,160.706c0,1.926-1.561,3.488-3.488,3.488h-3.278
			c-1.925,0-3.487-1.562-3.487-3.488v-25.195c0-1.925,1.562-3.487,3.487-3.487h3.278c1.927,0,3.488,1.562,3.488,3.487V160.706z
			 M65.384,216.646c0,1.926-1.561,3.488-3.488,3.488h-3.277c-1.925,0-3.487-1.562-3.487-3.488V191.45
			c0-1.925,1.562-3.487,3.487-3.487h3.277c1.927,0,3.488,1.562,3.488,3.487V216.646z M82.731,173.397
			c0,1.926-1.561,3.488-3.488,3.488h-3.277c-1.925,0-3.487-1.562-3.487-3.488v-25.195c0-1.926,1.561-3.488,3.487-3.488h3.277
			c1.927,0,3.488,1.562,3.488,3.488V173.397z M103.671,229.336c0,1.926-1.561,3.488-3.488,3.488h-3.277
			c-1.925,0-3.487-1.562-3.487-3.488v-25.195c0-1.926,1.562-3.488,3.487-3.488h3.277c1.927,0,3.488,1.562,3.488,3.488V229.336z
			 M121.018,180.761c0,1.926-1.561,3.488-3.488,3.488h-3.278c-1.925,0-3.487-1.562-3.487-3.488v-25.195
			c0-1.926,1.562-3.488,3.487-3.488h3.278c1.927,0,3.488,1.562,3.488,3.488V180.761z"/>
	</g>
</g>
<g id="Layer_2">
	<g>
		
			<path fill="#90AFB0" stroke="#90AFB0" stroke-width="2.2857" stroke-linecap="round" stroke-linejoin="round" stroke-miterlimit="10" d="
			M102.908,194.258c0,0-15.133,27.745,2.438,50.64c27.546,8.62,48.389-15.136,48.389-15.136
			C122.909,219.756,102.908,194.258,102.908,194.258z"/>
	</g>
	<g>
		<g>
			<path fill="#6D999E" d="M126.647,215.963c7.571,5.313,16.716,10.432,27.088,13.799c0,0-20.387,23.237-47.483,15.408
				L126.647,215.963z"/>
			<path fill="#6D999E" d="M127.304,215.027c8.716,6.116,17.727,10.707,26.784,13.648c0.366,0.119,0.647,0.413,0.749,0.784
				c0.102,0.371,0.01,0.768-0.243,1.057c-0.126,0.143-3.143,3.557-8.408,7.358c-9.035,6.524-23.353,13.277-40.251,8.394
				c0,0-0.965-0.311-1.073-0.328c-0.108-0.017-0.314-0.25-0.314-0.25l0.767-1.174l21.092-30.174L127.304,215.027z M108.122,244.488
				c15.343,3.792,28.383-2.443,36.726-8.468c3.158-2.281,5.5-4.444,6.815-5.75c-8.367-2.906-16.673-7.177-24.732-12.719
				L108.122,244.488z"/>
		</g>
	</g>
	
		<circle fill="#FFFFFF" stroke="#FFFFFF" stroke-width="2.2584" stroke-linecap="round" stroke-linejoin="round" stroke-miterlimit="10" cx="108.706" cy="221.975" r="5.562"/>
	<circle fill="#1E181A" cx="108.706" cy="221.975" r="2.935"/>
	<g>
		
			<path fill="#90AFB0" stroke="#90AFB0" stroke-width="2.2577" stroke-linecap="round" stroke-linejoin="round" stroke-miterlimit="10" d="
			M173.494,203.408c17.671,19.973,33.999,5.434,33.999,5.434S196.51,189.939,173.494,203.408z"/>
	</g>
	<g>
		<g>
			<path fill="#6D999E" d="M173.308,203.601c20.503,17.052,6.472,33.818,6.472,33.818S160.55,227.018,173.308,203.601z"/>
			<path fill="#6D999E" d="M172.568,202.689c0.09-0.075,0.476-0.54,0.784-0.414c0.307,0.126,0.678,0.458,0.678,0.458
				c6.994,5.817,10.855,12.252,11.476,19.127c0.845,9.347-4.627,16.004-4.86,16.283c-0.345,0.412-0.931,0.524-1.403,0.268
				c-0.017-0.009-0.433-0.235-1.084-0.676c-4.24-2.868-17.191-13.843-5.842-34.675C172.317,203.061,172.478,202.764,172.568,202.689
				z M173.648,205.38c-9.28,18.352,2.018,27.945,5.775,30.486c0.026,0.017,0.051,0.034,0.075,0.05
				C181.835,232.584,189.409,219.317,173.648,205.38z"/>
		</g>
	</g>
</g>
<g id="Layer_4">
	<circle fill="#A93C32" cx="182.158" cy="149.271" r="1.28"/>
	<circle fill="#A93C32" cx="185.356" cy="151.297" r="1.28"/>
	<circle fill="#A93C32" cx="188.436" cy="153.551" r="1.28"/>
	<circle fill="#A93C32" cx="191.232" cy="155.862" r="1.28"/>
	
		<path fill="#C6463B" stroke="#C6463B" stroke-width="1.5365" stroke-linecap="round" stroke-linejoin="round" stroke-miterlimit="10" d="
		M197.15,160.791c8.05,2.023,14.622,1.216,17.11-2.775c0.415-0.665,0.699-1.396,0.861-2.177c-2.413-1.821-5.065-3.585-7.914-5.235
		c-14.333-8.302-28.702-10.873-34.073-6.472c2.921,1.134,5.929,2.572,8.924,4.307C188.392,152.107,193.61,156.486,197.15,160.791z"
		/>
	
		<path fill="#C6463B" stroke="#C6463B" stroke-width="1.5365" stroke-linecap="round" stroke-linejoin="round" stroke-miterlimit="10" d="
		M232.769,182.399c1.129-2.182,3.16-3.714,5.744-4.57c-2.367-6.418-9.869-14.189-20.386-20.816c-0.083,1.05-0.35,2.038-0.821,2.947
		c-4.057,7.841-21.481,6.883-38.917-2.14c-3.625-1.876-6.964-3.953-9.944-6.136c-0.965,8.131,10.71,20.782,28.057,29.759
		c13.975,7.232,27.769,10.079,35.784,8.046C231.57,186.968,231.675,184.514,232.769,182.399z"/>
	
		<path fill="#A93C32" stroke="#A93C32" stroke-width="1.5365" stroke-linecap="round" stroke-linejoin="round" stroke-miterlimit="10" d="
		M215.122,155.839c-0.162,0.781-0.446,1.512-0.861,2.177c-2.489,3.991-9.06,4.797-17.11,2.775
		c-3.541-4.305-8.758-8.684-15.091-12.352c-2.995-1.734-6.003-3.173-8.924-4.307L215.122,155.839z"/>
	
		<ellipse transform="matrix(0.8881 0.4596 -0.4596 0.8881 115.211 -92.7136)" fill="#C6463B" stroke="#C6463B" stroke-width="1.5365" stroke-linecap="round" stroke-linejoin="round" stroke-miterlimit="10" cx="248.058" cy="190.31" rx="14.213" ry="8.728"/>
	
		<path fill="#A93C32" stroke="#A93C32" stroke-width="1.5365" stroke-linecap="round" stroke-linejoin="round" stroke-miterlimit="10" d="
		M260.681,196.842c-2.215,4.281-9.663,4.828-16.634,1.22c-6.971-3.607-10.827-10.003-8.611-14.284L260.681,196.842z"/>
	<circle fill="#A93C32" cx="175.397" cy="145.895" r="1.28"/>
	<circle fill="#A93C32" cx="178.839" cy="147.47" r="1.28"/>
</g>
<g id="Layer_3">
	<g>
		<g>
			
				<path fill="#E6332A" stroke="#E6332A" stroke-width="0.6926" stroke-linecap="round" stroke-linejoin="round" stroke-miterlimit="10" d="
				M52.331,209.941c14.266-11.386,20.096-29.989,13.017-45.765c-7.079-15.777-21.776-16.938-38.698-11.468L52.331,209.941z"/>
		</g>
		<g>
			
				<path fill="#F08479" stroke="#F08479" stroke-width="0.3426" stroke-linecap="round" stroke-linejoin="round" stroke-miterlimit="10" d="
				M43.801,191.342c7.057-5.632,9.94-14.833,6.439-22.636c-3.501-7.804-10.772-8.378-19.141-5.673L43.801,191.342z"/>
		</g>
		<g>
			
				<path fill="#FFE19D" stroke="#FFE19D" stroke-width="0.0761" stroke-linecap="round" stroke-linejoin="round" stroke-miterlimit="10" d="
				M44.939,157.9c0.318-1.097-0.016-2.157-0.749-2.37c-0.731-0.212-1.582,0.505-1.9,1.601c-0.319,1.097-0.072,2.464,0.659,2.677
				C43.682,160.021,44.622,158.997,44.939,157.9z"/>
		</g>
		<g>
			
				<path fill="#FFE19D" stroke="#FFE19D" stroke-width="0.0761" stroke-linecap="round" stroke-linejoin="round" stroke-miterlimit="10" d="
				M51.359,162.023c0.731-0.877,0.849-1.984,0.264-2.473c-0.585-0.487-1.652-0.171-2.382,0.707c-0.732,0.877-1.054,2.228-0.47,2.717
				C49.356,163.461,50.628,162.9,51.359,162.023z"/>
		</g>
		<g>
			
				<path fill="#FFE19D" stroke="#FFE19D" stroke-width="0.0761" stroke-linecap="round" stroke-linejoin="round" stroke-miterlimit="10" d="
				M55.356,168.684c1.032-0.489,1.602-1.443,1.277-2.133c-0.325-0.689-1.427-0.849-2.459-0.36c-1.032,0.49-1.892,1.581-1.566,2.269
				C52.934,169.15,54.323,169.173,55.356,168.684z"/>
		</g>
		<g>
			
				<path fill="#FFE19D" stroke="#FFE19D" stroke-width="0.0761" stroke-linecap="round" stroke-linejoin="round" stroke-miterlimit="10" d="
				M55.732,181.353c1.031,0.492,1.601,1.447,1.272,2.136c-0.327,0.687-1.429,0.845-2.459,0.354c-1.03-0.491-1.889-1.584-1.561-2.272
				C53.311,180.883,54.7,180.861,55.732,181.353z"/>
		</g>
		<g>
			
				<path fill="#FFE19D" stroke="#FFE19D" stroke-width="0.0761" stroke-linecap="round" stroke-linejoin="round" stroke-miterlimit="10" d="
				M56.545,173.58c1.142,0.038,2.046,0.685,2.023,1.447c-0.025,0.76-0.971,1.346-2.112,1.31c-1.142-0.036-2.366-0.694-2.342-1.455
				C54.139,174.121,55.404,173.544,56.545,173.58z"/>
		</g>
		<g>
			
				<path fill="#009640" stroke="#009640" stroke-width="1.4753" stroke-linecap="round" stroke-linejoin="round" stroke-miterlimit="10" d="
				M0.738,146.302c11.762-5.177,19.454-3.92,19.454-3.92l-5.181-11.547l1.726-0.774l1.725-0.774l6.297,14.035
				c0,0,4.394-10.73,16.082-16.075c-7.438,8.694-7.976,12.481-7.976,12.481s12.943-5.379,23.313,0.378
				c0,0-16.253-1.533-31.667,7.808C24.51,147.915,15.197,142.998,0.738,146.302z"/>
		</g>
	</g>
	<g>
		<g>
			<g>
				<path fill="#E3E683" d="M115.29,175.029c-1.655-6.271,1.453-15.021,8.401-21.97c6.921-6.921,15.626-10.031,21.893-8.42
					l-14.412-14.412l-14.411-14.411c1.61,6.266-1.5,14.972-8.421,21.893c-6.949,6.949-15.699,10.056-21.97,8.401L115.29,175.029z"/>
			</g>
		</g>
		<g>
			<g>
				<path fill="#3CA036" d="M139.058,122.906"/>
			</g>
		</g>
		<g>
			<g>
				<path fill="#CCDC84" d="M101.059,160.34l14.46,14.46c-1.655-6.271,1.223-14.792,8.172-21.741
					c6.921-6.921,15.464-9.869,21.731-8.258L131.01,130.39l-29.447,29.447L101.059,160.34z"/>
			</g>
		</g>
		<g>
			<g>
				<path fill="#432918" stroke="#432918" stroke-width="0.5027" stroke-miterlimit="10" d="M139.532,123.111
					c3.937-3.937,10.182-4.097,14.184-0.094l-2.062,2.062c-3.027-3.027-7.952-3.721-10.913-0.76L139.532,123.111z"/>
			</g>
		</g>
		<g>
			<g>
				<g>
					<g>
						<path fill="#006633" d="M137.336,120.834c3.462-0.933,5.209-2.419,5.209-2.419c9.703-7.707,0.166-21.383,0.166-21.383
							s-14.489,8.25-9.04,19.379C133.671,116.41,134.611,118.503,137.336,120.834z"/>
					</g>
				</g>
			</g>
			<g>
				<g>
					<g>
						<path fill="#007D40" d="M142.712,97.031c0,0-14.489,8.25-9.04,19.379c0,0,0.94,2.092,3.665,4.423"/>
					</g>
				</g>
			</g>
		</g>
		<g>
			<g>
				<g>
					
						<ellipse transform="matrix(0.7071 0.7071 -0.7071 0.7071 134.1418 -38.4483)" fill="#432918" stroke="#432918" stroke-width="0.5027" stroke-miterlimit="10" cx="113.482" cy="142.699" rx="1.048" ry="2.388"/>
				</g>
			</g>
			<g>
				<g>
					
						<ellipse transform="matrix(0.7071 0.7071 -0.7071 0.7071 139.652 -40.7307)" fill="#432918" stroke="#432918" stroke-width="0.5027" stroke-miterlimit="10" cx="118.992" cy="148.21" rx="1.048" ry="2.388"/>
				</g>
			</g>
		</g>
		<g>
			<g>
				
					<path fill="#3AAA35" stroke="#3AAA35" stroke-width="0.429" stroke-linecap="round" stroke-linejoin="round" stroke-miterlimit="10" d="
					M145.852,144.907c2.944-2.944,3.167-8.596-0.182-11.945c-0.908-0.908-1.946-1.595-3.035-2.054l-2.138-1.006
					c-3.508-1.785-5.174-3.45-5.174-3.45l-0.022-0.022c0,0-1.666-1.666-3.451-5.174l-1.006-2.138
					c-0.459-1.089-1.145-2.126-2.054-3.035c-3.348-3.348-9.001-3.125-11.945-0.182L145.852,144.907z"/>
			</g>
		</g>
		<g>
			<g>
				
					<path fill="#3AAA35" stroke="#3AAA35" stroke-width="0.4284" stroke-linecap="round" stroke-linejoin="round" stroke-miterlimit="10" d="
					M115.476,175.216c-2.94,2.94-10.425,5.001-13.769,1.656c0,0-1.565-1.601-3.332-4.89c-1.517-2.828-3.576-4.853-3.67-4.946
					l-0.157-0.157c-0.092-0.092-2.117-2.151-4.945-3.669c-3.289-1.767-4.89-3.332-4.89-3.332
					c-3.345-3.345-1.284-10.828,1.656-13.769L115.476,175.216z"/>
			</g>
		</g>
	</g>
</g>
<g id="Layer_5">
</g>
</svg>
