<?xml version="1.0" encoding="utf-8"?>
<!-- Generator: Adobe Illustrator 17.1.0, SVG Export Plug-In . SVG Version: 6.00 Build 0)  -->
<!DOCTYPE svg PUBLIC "-//W3C//DTD SVG 1.1//EN" "http://www.w3.org/Graphics/SVG/1.1/DTD/svg11.dtd">
<svg version="1.1" xmlns="http://www.w3.org/2000/svg" xmlns:xlink="http://www.w3.org/1999/xlink" x="0px" y="0px" width="170.1px"
	 height="215.662px" viewBox="0 0 170.1 215.662" enable-background="new 0 0 170.1 215.662" xml:space="preserve">
<g id="Lager_2" display="none">
	
		<rect x="-317.379" y="-243.875" display="inline" fill="#7B6A58" stroke="#7B6A58" stroke-width="0.7538" stroke-linecap="round" stroke-linejoin="round" stroke-miterlimit="10" width="841.89" height="595.28"/>
</g>
<g id="Lager_1">
	<g>
		<g>
			<polygon fill="#FFFFFF" stroke="#FFFFFF" stroke-width="1.0743" stroke-linejoin="round" stroke-miterlimit="10" points="
				167.199,215.125 163.556,117.835 163.572,7.186 85.051,7.186 6.529,7.186 6.545,117.835 2.9,215.125 			"/>
		</g>
		<polygon fill="#DADADA" points="160.621,206.458 9.288,206.458 12.027,159.792 12.027,77.846 158.215,77.846 158.215,157.792 		
			"/>
		<polygon fill="#F6F6F6" stroke="#F6F6F6" stroke-width="1.0743" stroke-linejoin="round" stroke-miterlimit="10" points="
			167.199,0.794 2.9,0.794 0.537,0.794 0.537,15.011 2.9,15.011 167.199,15.011 169.563,15.011 169.563,0.794 		"/>
		<g>
			
				<path fill="#F6F6F6" stroke="#F6F6F6" stroke-width="1.1746" stroke-linecap="round" stroke-linejoin="round" stroke-miterlimit="10" d="
				M90.949,174.889c-6.055,9.395-18.579,12.101-27.973,6.047l0,0c-9.393-6.055-12.1-18.577-6.045-27.972l25.358-39.347
				c6.054-9.394,18.576-12.101,27.969-6.047l0,0c9.394,6.055,12.103,18.577,6.049,27.972L90.949,174.889z"/>
			<path fill="#EDEDED" stroke="#EDEDED" stroke-width="1.1746" stroke-miterlimit="10" d="M110.259,107.57L110.259,107.57
				c-9.394-6.054-21.915-3.347-27.969,6.047l-25.358,39.347c-6.056,9.395-3.349,21.917,6.045,27.972l0,0L110.259,107.57z"/>
			<path fill="#B2B2B2" d="M93.19,135.117l-9.239-12.39c-0.473-0.634-0.344-1.531,0.292-2.006c0.633-0.472,1.529-0.341,2.005,0.294
				l8.609,11.543"/>
			<path fill="#DADADA" d="M94.868,132.564l9.241,12.391c0.473,0.634,0.342,1.531-0.293,2.006c-0.633,0.472-1.529,0.341-2.003-0.294
				l-8.61-11.543"/>
			<path fill="#B2B2B2" d="M86.275,145.849l-9.241-12.39c-0.472-0.634-0.343-1.531,0.291-2.007c0.634-0.473,1.53-0.341,2.005,0.295
				l8.61,11.542"/>
			<path fill="#DADADA" d="M87.951,143.296l9.241,12.39c0.472,0.633,0.343,1.532-0.292,2.007c-0.634,0.473-1.53,0.341-2.005-0.294
				l-8.61-11.544"/>
			<path fill="#B2B2B2" d="M79.359,156.579l-9.24-12.391c-0.472-0.633-0.343-1.53,0.291-2.005c0.634-0.473,1.53-0.34,2.005,0.294
				l8.61,11.542"/>
			<path fill="#DADADA" d="M81.035,154.027l9.241,12.39c0.474,0.634,0.344,1.531-0.292,2.005c-0.634,0.474-1.53,0.341-2.004-0.294
				l-8.609-11.541"/>
		</g>
		<rect x="12.027" y="14.507" fill="#E20714" width="146.188" height="66.618"/>
		<g>
			<path fill="#FFFFFF" stroke="#FFFFFF" stroke-width="0.3" stroke-miterlimit="10" d="M45.315,56.436l-4.465-20.701h1.092
				l4.111,18.925l4.109-18.925h1.094l-4.404,20.701H45.315z"/>
			<path fill="#FFFFFF" stroke="#FFFFFF" stroke-width="0.3" stroke-miterlimit="10" d="M62.998,55.371v1.094
				c-1.181,0-2.221-0.049-3.119-0.148c-0.897-0.099-1.829-0.31-2.793-0.637c-0.968-0.322-1.762-0.761-2.382-1.314
				c-0.623-0.553-1.135-1.316-1.536-2.293c-0.404-0.976-0.607-2.137-0.607-3.489c0-1.35,0.182-2.528,0.547-3.535
				c0.362-1.004,0.833-1.764,1.402-2.276c1.066-0.947,2.102-1.419,3.107-1.419c1.676,0,2.982,0.493,3.918,1.479
				c0.936,0.985,1.402,2.288,1.402,3.903c0,1.084-0.01,1.715-0.027,1.893h-9.256c0,2.543,0.761,4.303,2.277,5.28
				C57.448,54.884,59.805,55.371,62.998,55.371z M61.846,47.535v-0.65c0-1.302-0.371-2.366-1.109-3.194
				c-0.738-0.828-1.717-1.242-2.929-1.242c-1.211,0-2.165,0.479-2.868,1.434c-0.699,0.957-1.116,2.174-1.257,3.653H61.846z"/>
			<path fill="#FFFFFF" stroke="#FFFFFF" stroke-width="0.3" stroke-miterlimit="10" d="M67.641,42.743h-3.396v-1.093h3.396V36.77
				h1.098v4.879h3.429v1.093h-3.429v13.693h-1.098V42.743z"/>
			<path fill="#FFFFFF" stroke="#FFFFFF" stroke-width="0.3" stroke-miterlimit="10" d="M83.701,55.371v1.094
				c-1.183,0-2.223-0.049-3.119-0.148c-0.897-0.099-1.829-0.31-2.794-0.637c-0.969-0.322-1.762-0.761-2.384-1.314
				c-0.62-0.553-1.133-1.316-1.534-2.293c-0.405-0.976-0.606-2.137-0.606-3.489c0-1.35,0.18-2.528,0.546-3.535
				c0.363-1.004,0.832-1.764,1.402-2.276c1.066-0.947,2.101-1.419,3.107-1.419c1.676,0,2.981,0.493,3.918,1.479
				c0.936,0.985,1.403,2.288,1.403,3.903c0,1.084-0.01,1.715-0.029,1.893h-9.256c0,2.543,0.762,4.303,2.276,5.28
				C78.151,54.884,80.507,55.371,83.701,55.371z M82.547,47.535v-0.65c0-1.302-0.369-2.366-1.108-3.194
				c-0.739-0.828-1.716-1.242-2.929-1.242c-1.21,0-2.167,0.479-2.868,1.434c-0.699,0.957-1.118,2.174-1.258,3.653H82.547z"/>
			<path fill="#FFFFFF" stroke="#FFFFFF" stroke-width="0.3" stroke-miterlimit="10" d="M95.857,56.436l0.028-7.807
				c0-1.655-0.37-3.1-1.107-4.333c-0.74-1.231-1.688-1.848-2.842-1.848c-1.152,0-2.449,0.819-3.887,2.454v11.534h-1.097V41.649
				h1.097v1.775c1.281-1.38,2.671-2.071,4.169-2.071c0.611,0,1.274,0.217,1.997,0.65c0.718,0.433,1.324,1.115,1.816,2.041
				c1.399-1.794,3.008-2.691,4.82-2.691c1.007,0,2.052,0.473,3.135,1.419c0.554,0.513,1.01,1.272,1.377,2.276
				c0.364,1.006,0.548,2.189,0.548,3.549l-0.031,7.837h-1.095l0.029-7.807c0-1.655-0.4-3.1-1.196-4.333
				c-0.799-1.231-1.778-1.848-2.944-1.848c-0.767,0-1.542,0.266-2.318,0.798c-0.78,0.532-1.416,1.144-1.909,1.833
				c0.354,1.026,0.531,2.199,0.531,3.518l-0.028,7.837H95.857z"/>
			<path fill="#FFFFFF" stroke="#FFFFFF" stroke-width="0.3" stroke-miterlimit="10" d="M109.844,56.792V41.649h1.092v15.172
				c0,1.358-0.168,2.545-0.5,3.562c-0.337,1.017-0.77,1.771-1.303,2.263c-0.986,0.968-1.97,1.448-2.957,1.448
				c-1.298,0-2.544-0.553-3.726-1.656v-1.419c1.242,1.323,2.431,1.983,3.562,1.983c1.136,0,2.056-0.612,2.767-1.836
				C109.488,59.944,109.844,58.486,109.844,56.792z M109.873,36.74h1.092v2.573h-1.092V36.74z"/>
			<path fill="#FFFFFF" stroke="#FFFFFF" stroke-width="0.3" stroke-miterlimit="10" d="M125.015,48.48
				c0,1.34-0.13,2.519-0.384,3.535c-0.256,1.015-0.579,1.797-0.963,2.351c-0.386,0.553-0.844,0.998-1.375,1.332
				c-1.34,0.866-2.809,1.044-4.405,0.532c-0.554-0.179-1.135-0.499-1.746-0.963c-0.611-0.462-1.103-1.196-1.477-2.202
				c-0.376-1.006-0.561-2.238-0.561-3.697c0-2.366,0.471-4.293,1.418-5.781c0.945-1.488,2.312-2.233,4.096-2.233
				s3.127,0.7,4.021,2.1C124.537,44.854,124.996,46.529,125.015,48.48z M119.217,55.401l0.354,0.027l0.327-0.027
				c2.681-0.256,4.023-2.512,4.023-6.773c0-1.754-0.354-3.224-1.065-4.406c-0.709-1.183-1.845-1.774-3.399-1.774
				c-1.006,0-1.845,0.344-2.515,1.036c-1.162,1.223-1.744,3.125-1.744,5.707v0.237c0,1.637,0.333,3.012,1.005,4.125
				C116.871,54.667,117.878,55.283,119.217,55.401z M116.763,37.805h1.125v1.952h-1.125V37.805z M121.79,37.805h1.124v1.952h-1.124
				V37.805z"/>
			<path fill="#FFFFFF" stroke="#FFFFFF" stroke-width="0.3" stroke-miterlimit="10" d="M129.391,56.436h-1.094V34.286h1.094V56.436
				z"/>
		</g>
		<rect x="69.835" y="0" fill="#FFFDF0" width="27.642" height="30.792"/>
		<g>
			
				<polygon fill="#E20714" stroke="#E20714" stroke-width="0.119" stroke-linecap="round" stroke-linejoin="round" stroke-miterlimit="10" points="
				83.049,25.55 83.049,28.452 80.376,26.216 80.376,23.315 			"/>
			
				<polygon fill="#E20714" stroke="#E20714" stroke-width="0.119" stroke-linecap="round" stroke-linejoin="round" stroke-miterlimit="10" points="
				83.049,21.25 83.049,24.151 80.376,21.916 80.376,19.014 			"/>
			
				<polygon fill="#E20714" stroke="#E20714" stroke-width="0.119" stroke-linecap="round" stroke-linejoin="round" stroke-miterlimit="10" points="
				83.049,16.949 83.049,19.849 80.376,17.615 80.376,14.713 			"/>
			
				<polygon fill="#E20714" stroke="#E20714" stroke-width="0.119" stroke-linecap="round" stroke-linejoin="round" stroke-miterlimit="10" points="
				83.049,12.648 83.049,15.548 80.376,13.314 80.376,10.413 			"/>
			
				<polygon fill="#E20714" stroke="#E20714" stroke-width="0.119" stroke-linecap="round" stroke-linejoin="round" stroke-miterlimit="10" points="
				84.263,25.55 84.263,28.452 86.935,26.216 86.935,23.315 			"/>
			
				<polygon fill="#E20714" stroke="#E20714" stroke-width="0.119" stroke-linecap="round" stroke-linejoin="round" stroke-miterlimit="10" points="
				84.263,21.25 84.263,24.151 86.935,21.916 86.935,19.014 			"/>
			
				<polygon fill="#E20714" stroke="#E20714" stroke-width="0.119" stroke-linecap="round" stroke-linejoin="round" stroke-miterlimit="10" points="
				84.263,16.949 84.263,19.849 86.935,17.615 86.935,14.713 			"/>
			
				<polygon fill="#E20714" stroke="#E20714" stroke-width="0.119" stroke-linecap="round" stroke-linejoin="round" stroke-miterlimit="10" points="
				84.263,12.648 84.263,15.548 86.935,13.314 86.935,10.413 			"/>
			
				<line fill="#E20714" stroke="#E20714" stroke-width="0.9517" stroke-linecap="round" stroke-linejoin="round" stroke-miterlimit="10" x1="82.746" y1="10.112" x2="82.746" y2="2.34"/>
			
				<line fill="#E20714" stroke="#E20714" stroke-width="0.9517" stroke-linecap="round" stroke-linejoin="round" stroke-miterlimit="10" x1="84.659" y1="10.112" x2="84.659" y2="2.34"/>
			
				<line fill="#E20714" stroke="#E20714" stroke-width="0.9517" stroke-linecap="round" stroke-linejoin="round" stroke-miterlimit="10" x1="80.832" y1="8.764" x2="80.832" y2="6.226"/>
			
				<line fill="#E20714" stroke="#E20714" stroke-width="0.9517" stroke-linecap="round" stroke-linejoin="round" stroke-miterlimit="10" x1="86.572" y1="8.764" x2="86.572" y2="6.226"/>
		</g>
	</g>
</g>
</svg>
