<?xml version="1.0" encoding="utf-8"?>
<!-- Generator: Adobe Illustrator 17.0.0, SVG Export Plug-In . SVG Version: 6.00 Build 0)  -->
<!DOCTYPE svg PUBLIC "-//W3C//DTD SVG 1.1//EN" "http://www.w3.org/Graphics/SVG/1.1/DTD/svg11.dtd">
<svg version="1.1" id="Layer_1" xmlns="http://www.w3.org/2000/svg" xmlns:xlink="http://www.w3.org/1999/xlink" x="0px" y="0px"
	 width="960.632px" height="607.067px" viewBox="0 0 960.632 607.067" enable-background="new 0 0 960.632 607.067"
	 xml:space="preserve">
<line fill="none" stroke="#E0E0E0" stroke-width="0.5865" stroke-miterlimit="10" x1="-9.53" y1="38.359" x2="966.045" y2="38.359"/>
<line fill="none" stroke="#E0E0E0" stroke-width="0.5865" stroke-miterlimit="10" x1="-9.53" y1="85.652" x2="966.045" y2="85.652"/>
<line fill="none" stroke="#E0E0E0" stroke-width="0.5865" stroke-miterlimit="10" x1="-9.53" y1="132.946" x2="966.045" y2="132.946"/>
<line fill="none" stroke="#E0E0E0" stroke-width="0.5865" stroke-miterlimit="10" x1="-9.53" y1="180.239" x2="966.045" y2="180.239"/>
<line fill="none" stroke="#E0E0E0" stroke-width="0.5865" stroke-miterlimit="10" x1="-9.53" y1="227.532" x2="966.045" y2="227.532"/>
<line fill="none" stroke="#E0E0E0" stroke-width="0.5865" stroke-miterlimit="10" x1="-9.53" y1="274.826" x2="966.045" y2="274.826"/>
<line fill="none" stroke="#E0E0E0" stroke-width="0.5865" stroke-miterlimit="10" x1="-9.53" y1="322.119" x2="966.045" y2="322.119"/>
<line fill="none" stroke="#E0E0E0" stroke-width="0.5865" stroke-miterlimit="10" x1="-9.53" y1="369.412" x2="966.045" y2="369.412"/>
<line fill="none" stroke="#E0E0E0" stroke-width="0.5865" stroke-miterlimit="10" x1="-9.53" y1="416.706" x2="966.045" y2="416.706"/>
<line fill="none" stroke="#E0E0E0" stroke-width="0.5865" stroke-miterlimit="10" x1="-9.53" y1="463.999" x2="966.045" y2="463.999"/>
<line fill="none" stroke="#E0E0E0" stroke-width="0.5865" stroke-miterlimit="10" x1="-9.53" y1="511.292" x2="966.045" y2="511.292"/>
<line fill="none" stroke="#E0E0E0" stroke-width="0.5865" stroke-miterlimit="10" x1="-9.53" y1="558.586" x2="966.045" y2="558.586"/>
<line fill="none" stroke="#E0E0E0" stroke-width="0.5865" stroke-miterlimit="10" x1="522.078" y1="-2.575" x2="-9.53" y2="288.261"/>
<line fill="none" stroke="#E0E0E0" stroke-width="0.5865" stroke-miterlimit="10" x1="538.106" y1="604.195" x2="727.123" y2="-2.575"/>
<line fill="none" stroke="#E0E0E0" stroke-width="0.5865" stroke-miterlimit="10" x1="966.045" y1="587.256" x2="299.184" y2="-2.575"/>
<line fill="none" stroke="#E0E0E0" stroke-width="0.5865" stroke-miterlimit="10" x1="631.031" y1="-2.575" x2="-9.53" y2="511.292"/>
<line fill="none" stroke="#E0E0E0" stroke-width="0.5865" stroke-miterlimit="10" x1="444.005" y1="606.565" x2="118.604" y2="-3.17"/>
<line fill="none" stroke="#E0E0E0" stroke-width="0.5865" stroke-miterlimit="10" x1="472.016" y1="-2.575" x2="333.615" y2="606.565"/>
<polyline fill="none" stroke="#E0E0E0" stroke-width="0.5865" stroke-miterlimit="10" points="45.3,-3.17 359.824,606.565 
	966.045,168.769 "/>
<line fill="none" stroke="#E0E0E0" stroke-width="0.5865" stroke-miterlimit="10" x1="-9.53" y1="184.263" x2="328.196" y2="606.565"/>
<line fill="none" stroke="#E0E0E0" stroke-width="0.5865" stroke-miterlimit="10" x1="-9.53" y1="71.923" x2="91.189" y2="-3.17"/>
<path fill="none" stroke="#E0E0E0" stroke-width="0.5865" stroke-miterlimit="10" d="M-9.53,24.245
	C2.389,27.82,966.045,395.414,966.045,395.414"/>
<path fill="none" stroke="#E0E0E0" stroke-width="0.5865" stroke-miterlimit="10" d="M-9.53,326.999
	C-5.358,323.423,782.786-2.575,782.786-2.575"/>
<path fill="none" stroke="#E0E0E0" stroke-width="0.5865" stroke-miterlimit="10" d="M671.002,606.565
	C668.618,600.605,351.63-3.17,351.63-3.17"/>
<line fill="none" stroke="#E0E0E0" stroke-width="0.5865" stroke-miterlimit="10" x1="562.604" y1="291.837" x2="142.443" y2="-3.17"/>
<line fill="none" stroke="#E0E0E0" stroke-width="0.5865" stroke-miterlimit="10" x1="966.045" y1="265.113" x2="40.83" y2="-3.17"/>
<line fill="none" stroke="#E0E0E0" stroke-width="0.5865" stroke-miterlimit="10" x1="54.239" y1="604.195" x2="219.92" y2="-3.17"/>
<line fill="none" stroke="#E0E0E0" stroke-width="0.5865" stroke-miterlimit="10" x1="-9.53" y1="298.989" x2="966.045" y2="543.221"/>
<line fill="none" stroke="#E0E0E0" stroke-width="0.5865" stroke-miterlimit="10" x1="-9.53" y1="158.339" x2="966.045" y2="85.652"/>
<line fill="none" stroke="#E0E0E0" stroke-width="0.5865" stroke-miterlimit="10" x1="-9.53" y1="247.139" x2="966.045" y2="444.985"/>
<line fill="none" stroke="#E0E0E0" stroke-width="0.5865" stroke-miterlimit="10" x1="-9.53" y1="493.086" x2="820.048" y2="-3.17"/>
<line fill="none" stroke="#E0E0E0" stroke-width="0.5865" stroke-miterlimit="10" x1="803.111" y1="606.565" x2="-9.53" y2="147.611"/>
<line fill="none" stroke="#E0E0E0" stroke-width="0.5865" stroke-miterlimit="10" x1="181.181" y1="-3.17" x2="284.285" y2="606.565"/>
<line fill="none" stroke="#E0E0E0" stroke-width="0.5865" stroke-miterlimit="10" x1="21.46" y1="-3.17" x2="146.019" y2="606.565"/>
<polyline fill="none" stroke="#E0E0E0" stroke-width="0.5865" stroke-miterlimit="10" points="113.837,-3.17 -9.53,416.706 
	238.429,604.195 "/>
<line fill="none" stroke="#E0E0E0" stroke-width="0.5865" stroke-miterlimit="10" x1="273.558" y1="-2.575" x2="596.479" y2="606.565"/>
<line fill="none" stroke="#E0E0E0" stroke-width="0.5865" stroke-miterlimit="10" x1="318.106" y1="606.565" x2="233.627" y2="-3.17"/>
<line fill="none" stroke="#E0E0E0" stroke-width="0.5865" stroke-miterlimit="10" x1="-9.53" y1="193.501" x2="966.045" y2="288.261"/>
<line fill="none" stroke="#E0E0E0" stroke-width="0.5865" stroke-miterlimit="10" x1="966.045" y1="96.358" x2="-9.53" y2="241.179"/>
<line fill="none" stroke="#E0E0E0" stroke-width="0.5865" stroke-miterlimit="10" x1="-9.53" y1="121.389" x2="419.571" y2="-2.575"/>
<line fill="none" stroke="#E0E0E0" stroke-width="0.5865" stroke-miterlimit="10" x1="966.045" y1="359.622" x2="404.671" y2="-2.575"/>
<line fill="none" stroke="#E0E0E0" stroke-width="0.5865" stroke-miterlimit="10" x1="-9.53" y1="113.045" x2="966.045" y2="79.074"/>
<line fill="none" stroke="#E0E0E0" stroke-width="0.5865" stroke-miterlimit="10" x1="966.045" y1="64.771" x2="157.044" y2="-2.575"/>
<line fill="none" stroke="#E0E0E0" stroke-width="0.5865" stroke-miterlimit="10" x1="-9.53" y1="137.48" x2="966.045" y2="258.462"/>
<line fill="none" stroke="#E0E0E0" stroke-width="0.5865" stroke-miterlimit="10" x1="-9.53" y1="48.68" x2="966.045" y2="460.568"/>
<line fill="none" stroke="#E0E0E0" stroke-width="0.5865" stroke-miterlimit="10" x1="541.149" y1="-2.575" x2="193.101" y2="606.565"/>
<line fill="none" stroke="#E0E0E0" stroke-width="0.5865" stroke-miterlimit="10" x1="966.045" y1="64.771" x2="-9.53" y2="384.69"/>
<polyline fill="none" stroke="#E0E0E0" stroke-width="0.5865" stroke-miterlimit="10" points="396.924,-2.575 746.88,606.565 
	-9.53,207.805 "/>
<line fill="none" stroke="#E0E0E0" stroke-width="0.5865" stroke-miterlimit="10" x1="284.285" y1="606.565" x2="568.025" y2="-3.17"/>
<line fill="none" stroke="#E0E0E0" stroke-width="0.5865" stroke-miterlimit="10" x1="84.336" y1="-2.575" x2="7.069" y2="606.565"/>
<line fill="none" stroke="#E0E0E0" stroke-width="0.5865" stroke-miterlimit="10" x1="336.731" y1="-2.575" x2="7.069" y2="606.565"/>
<line fill="none" stroke="#E0E0E0" stroke-width="0.5865" stroke-miterlimit="10" x1="423.146" y1="-2.575" x2="108.014" y2="604.195"/>
<line fill="none" stroke="#E0E0E0" stroke-width="0.5865" stroke-miterlimit="10" x1="-9.53" y1="543.221" x2="378.668" y2="606.565"/>
<line fill="none" stroke="#E0E0E0" stroke-width="0.5865" stroke-miterlimit="10" x1="631.031" y1="606.565" x2="966.045" y2="269.178"/>
<line fill="none" stroke="#E0E0E0" stroke-width="0.5865" stroke-miterlimit="10" x1="815.644" y1="606.565" x2="936.575" y2="-2.575"/>
<path fill="none" stroke="#E0E0E0" stroke-width="0.5865" stroke-miterlimit="10" d="M966.045,206.768
	c0-2.628-364.824-209.344-364.824-209.344"/>
<line fill="none" stroke="#E0E0E0" stroke-width="0.5865" stroke-miterlimit="10" x1="265.58" y1="-3.17" x2="891.861" y2="606.565"/>
<path fill="none" stroke="#E0E0E0" stroke-width="0.5865" stroke-miterlimit="10" d="M582.929,606.565
	c2.032-8.13,265.234-609.14,265.234-609.14"/>
<line fill="none" stroke="#E0E0E0" stroke-width="0.5865" stroke-miterlimit="10" x1="966.045" y1="236.659" x2="871.536" y2="-2.575"/>
<line fill="none" stroke="#E0E0E0" stroke-width="0.5865" stroke-miterlimit="10" x1="685.358" y1="-3.17" x2="782.786" y2="610.629"/>
<path fill="none" stroke="#E0E0E0" stroke-width="0.5865" stroke-miterlimit="10" d="M483.323,604.195
	C485.371,589.289,511.316-3.17,511.316-3.17"/>
<line fill="none" stroke="#E0E0E0" stroke-width="0.5865" stroke-miterlimit="10" x1="-9.53" y1="525.267" x2="966.045" y2="369.412"/>
<path fill="none" stroke="#E0E0E0" stroke-width="0.5865" stroke-miterlimit="10" d="M966.045,141.353
	c0,0.797-794.145,465.211-794.145,465.211"/>
<line fill="none" stroke="#E0E0E0" stroke-width="0.5865" stroke-miterlimit="10" x1="-9.53" y1="451.082" x2="568.025" y2="606.565"/>
<line fill="none" stroke="#E0E0E0" stroke-width="0.5865" stroke-miterlimit="10" x1="966.045" y1="521.202" x2="464.031" y2="606.565"/>
<line fill="none" stroke="#E0E0E0" stroke-width="0.5865" stroke-miterlimit="10" x1="815.644" y1="-3.17" x2="909.137" y2="606.565"/>
<line fill="none" stroke="#E0E0E0" stroke-width="0.5865" stroke-miterlimit="10" x1="966.045" y1="410.612" x2="453.541" y2="606.565"/>
<line fill="none" stroke="#E0E0E0" stroke-width="0.5865" stroke-miterlimit="10" x1="-9.53" y1="472.423" x2="128.677" y2="606.565"/>
<line fill="none" stroke="#E0E0E0" stroke-width="0.5865" stroke-miterlimit="10" x1="582.929" y1="-2.575" x2="962.997" y2="511.292"/>
<line fill="none" stroke="#E0E0E0" stroke-width="0.5865" stroke-miterlimit="10" x1="966.045" y1="313.318" x2="31.119" y2="606.565"/>
<line fill="none" stroke="#E0E0E0" stroke-width="0.5865" stroke-miterlimit="10" x1="-9.53" y1="401.287" x2="618.497" y2="606.565"/>
<line fill="none" stroke="#E0E0E0" stroke-width="0.5865" stroke-miterlimit="10" x1="966.045" y1="227.532" x2="-9.53" y2="459.942"/>
<line fill="none" stroke="#E0E0E0" stroke-width="0.5865" stroke-miterlimit="10" x1="671.002" y1="-6.219" x2="715.546" y2="610.629"/>
<line fill="none" stroke="#E0E0E0" stroke-width="0.5865" stroke-miterlimit="10" x1="891.861" y1="-2.575" x2="343.1" y2="606.565"/>
<polyline fill="none" stroke="#E0E0E0" stroke-width="0.5865" stroke-miterlimit="10" points="132.741,604.195 765.849,-3.17 
	921.331,606.565 "/>
</svg>
