<?xml version="1.0" encoding="utf-8"?>
<!-- Generator: Adobe Illustrator 17.1.0, SVG Export Plug-In . SVG Version: 6.00 Build 0)  -->
<!DOCTYPE svg PUBLIC "-//W3C//DTD SVG 1.1//EN" "http://www.w3.org/Graphics/SVG/1.1/DTD/svg11.dtd">
<svg version="1.1" xmlns="http://www.w3.org/2000/svg" xmlns:xlink="http://www.w3.org/1999/xlink" x="0px" y="0px"
	 width="423.204px" height="261.242px" viewBox="0 0 423.204 261.242" enable-background="new 0 0 423.204 261.242"
	 xml:space="preserve">
<g id="Lager_1" display="none">
	
		<rect x="-193.494" y="-83.387" display="inline" fill="#00A096" stroke="#00A096" stroke-width="4.8284" stroke-miterlimit="10" width="776.961" height="392.156"/>
</g>
<g id="Sladd">
	<path fill="none" stroke="#4B4B4D" stroke-width="10.1557" stroke-linejoin="round" stroke-miterlimit="10" d="M144.626,90.565
		c0,0-5.381-100.105,91.824-77.618c97.205,22.487,134.201,2.902,185.705-7.979"/>
</g>
<g id="Kontroll">
	<path fill="#F6F6F6" stroke="#F6F6F6" stroke-width="1.4508" stroke-miterlimit="10" d="M144.028,199.862"/>
	<path fill="#F6F6F6" stroke="#F6F6F6" stroke-width="1.4508" stroke-miterlimit="10" d="M161.817,200.79
		c8.416,0,37.084,2.08,52.628,28.827c0.081,0.136,0.166,0.271,0.256,0.402c18.411,26.421,31.301,30.365,37.344,30.365
		c0.733,0.084,3.724,0.132,3.724,0.132c22.536-0.005,28.608-29.597,28.858-30.856c19-95.723-15.999-137.005-20.773-142.102
		c-2.392-3.567-15.962-22.241-37.878-22.241c-6.814,0-13.728,1.842-20.552,5.476c-2.959,1.574-5.514,3.181-7.981,4.735
		c-10.386,6.533-14.391,13.574-53.415,13.574c-39.022,0-40.126-7.041-50.512-13.574c-2.469-1.555-5.022-3.161-7.981-4.735
		c-6.824-3.634-13.739-5.476-20.552-5.476c-21.915,0-35.486,18.673-37.879,22.241c-4.774,5.098-39.772,46.38-20.772,142.102
		c0.248,1.259,6.321,30.851,28.857,30.856c0.001,0,0.003,0,0.004,0l3.719-0.132c6.044,0,18.933-3.944,37.345-30.365
		c0.09-0.132,0.176-0.267,0.256-0.402c15.543-26.747,44.211-28.827,52.626-28.827H161.817z"/>
	<path fill="#ECEDED" stroke="#ECEDED" stroke-width="1.4508" stroke-miterlimit="10" d="M144.028,200.79H129.14
		c-8.416,0-37.084,2.08-52.626,28.827c-0.08,0.136-0.166,0.271-0.256,0.402c-18.412,26.421-31.301,30.365-37.345,30.365
		l-3.719,0.132c-0.001,0-0.003,0-0.004,0c-22.536-0.005-28.61-29.597-28.857-30.856c-19-95.723,15.998-137.005,20.772-142.102
		c2.393-3.567,15.963-22.241,37.879-22.241c6.813,0,13.728,1.842,20.552,5.476c2.959,1.574,5.513,3.181,7.981,4.735
		c10.386,6.533,11.489,13.574,50.512,13.574V200.79z"/>
</g>
<g id="Knappar">
	<circle fill="#D9DADB" cx="186.18" cy="176.133" r="17.759"/>
	<g>
		<circle fill="#F0C40D" cx="229.575" cy="90.565" r="10.155"/>
		<g>
			<path opacity="0.54" fill="#F49D16" d="M229.575,100.721c-5.609,0-10.155-4.544-10.155-10.155
				c0-5.607,4.546-10.155,10.155-10.155V100.721z"/>
		</g>
	</g>
	<g>
		<circle fill="#53B06B" cx="229.575" cy="135.058" r="10.155"/>
		<path fill="#32A860" d="M229.575,145.213c-5.609,0-10.155-4.546-10.155-10.155c0-5.608,4.546-10.156,10.155-10.156V145.213z"/>
	</g>
	<g>
		<circle fill="#646567" cx="186.181" cy="176.133" r="13.891"/>
		<path fill="#58585A" d="M186.181,190.023c-7.672,0-13.891-6.217-13.891-13.89c0-7.672,6.219-13.89,13.891-13.89V190.023z"/>
	</g>
	<circle fill="#D9DADB" cx="144.572" cy="115.22" r="15.217"/>
	<g>
		<circle fill="#C6C7C8" cx="144.572" cy="115.22" r="11.901"/>
		<path fill="#B1B3B4" d="M144.572,127.121c-6.574,0-11.901-5.328-11.901-11.9c0-6.573,5.327-11.903,11.901-11.903V127.121z"/>
	</g>
	<g>
		<circle fill="#D9DADB" cx="54.039" cy="116.547" r="17.759"/>
		<path fill="#646567" d="M67.929,116.547c0,7.671-6.218,13.889-13.891,13.889c-7.672,0-13.89-6.218-13.89-13.889
			c0-7.674,6.218-13.891,13.89-13.891C61.711,102.657,67.929,108.873,67.929,116.547z"/>
		<path fill="#58585A" d="M54.039,130.436c-7.672,0-13.89-6.218-13.89-13.889c0-7.674,6.218-13.891,13.89-13.891V130.436z"/>
	</g>
	<g>
		<g>
			<circle fill="#E74D3D" cx="251.941" cy="112.812" r="10.156"/>
			<path fill="#BF392A" d="M251.941,122.968c-5.61,0-10.156-4.548-10.156-10.156c0-5.61,4.546-10.155,10.156-10.155V122.968z"/>
		</g>
		<g>
			<circle fill="#3F96CE" cx="207.208" cy="112.812" r="10.156"/>
			<path fill="#2880B9" d="M207.208,122.968c-5.609,0-10.156-4.548-10.156-10.156c0-5.61,4.547-10.155,10.156-10.155V122.968z"/>
		</g>
	</g>
	<path fill="#D9DADB" d="M106.294,171.958c0,13.181-10.684,23.865-23.866,23.865c-13.181,0-23.865-10.685-23.865-23.865
		c0-13.184,10.684-23.867,23.865-23.867C95.61,148.091,106.294,158.775,106.294,171.958z"/>
	<circle fill="#646567" cx="82.428" cy="171.958" r="20.069"/>
	<path fill="#646567" d="M82.428,192.029c-11.085,0-20.069-8.984-20.069-20.07c0-11.085,8.985-20.07,20.069-20.07V192.029z"/>
	
		<path fill="#4B4B4D" stroke="#4B4B4D" stroke-width="2.5665" stroke-linecap="round" stroke-linejoin="round" stroke-miterlimit="10" d="
		M100.339,166.98H87.536v-12.767c-5.107-2.199-10.215,0-10.215,0v12.767H64.555c-2.199,5.106,0,10.215,0,10.215h12.766v12.803
		c0,0,5.107,2.116,10.215,0v-12.803h12.804C100.339,177.195,102.454,172.086,100.339,166.98z"/>
</g>
</svg>
