<?xml version="1.0" encoding="utf-8"?>
<!-- Generator: Adobe Illustrator 15.0.2, SVG Export Plug-In . SVG Version: 6.00 Build 0)  -->
<!DOCTYPE svg PUBLIC "-//W3C//DTD SVG 1.1//EN" "http://www.w3.org/Graphics/SVG/1.1/DTD/svg11.dtd">
<svg version="1.1" id="Lager_1" xmlns="http://www.w3.org/2000/svg" xmlns:xlink="http://www.w3.org/1999/xlink" x="0px" y="0px"
	 width="63.097px" height="83.59px" viewBox="0 0 63.097 83.59" enable-background="new 0 0 63.097 83.59" xml:space="preserve">
<g>
	<path fill="#FFFFFF" d="M62.208,34.721h-0.032C58.785,16.699,46.362,0,31.548,0C16.813,0,4.447,16.474,0.979,34.388L1,34.416H0.982
		C0.355,37.689,0.015,41.007,0,44.283c-0.103,21.622,13.938,39.22,31.362,39.308s31.631-17.369,31.733-38.991
		C63.112,41.325,62.803,38.002,62.208,34.721z"/>
	<path fill="#F5F5F6" stroke="#F5F5F6" stroke-width="0.5217" stroke-miterlimit="10" d="M11.735,41.927"/>
	<path fill="#F8F7F7" d="M31.363,83.59C13.939,83.502-0.102,65.905,0,44.283c0.015-3.275,0.354-6.594,0.981-9.867H1l-0.021-0.027
		C4.447,16.474,16.813,0,31.548,0L31.363,83.59z"/>
	<path fill="#F5F5F6" d="M62.208,34.721"/>
</g>
</svg>
