<?xml version="1.0" encoding="utf-8"?>
<!-- Generator: Adobe Illustrator 15.0.2, SVG Export Plug-In . SVG Version: 6.00 Build 0)  -->
<!DOCTYPE svg PUBLIC "-//W3C//DTD SVG 1.1//EN" "http://www.w3.org/Graphics/SVG/1.1/DTD/svg11.dtd">
<svg version="1.1" id="Lager_1" xmlns="http://www.w3.org/2000/svg" xmlns:xlink="http://www.w3.org/1999/xlink" x="0px" y="0px"
	 width="117.155px" height="207.785px" viewBox="0 0 117.155 207.785" enable-background="new 0 0 117.155 207.785"
	 xml:space="preserve">
<g>
	<path fill="#FFFFFF" d="M111.797,60.041h-0.055C105.879,28.877,84.397,0,58.781,0C33.303,0,11.919,28.488,5.922,59.465l0.035,0.047
		h-0.03C4.843,65.172,4.256,70.91,4.23,76.574c-0.178,37.389,24.102,67.818,54.23,67.971c30.128,0.15,54.695-30.035,54.873-67.424
		C113.36,71.459,112.827,65.715,111.797,60.041z"/>
	<path fill="#F8F8F8" d="M58.664,144.545c-30.129-0.152-54.408-30.582-54.23-67.971C4.459,70.91,5.046,65.172,6.13,59.512h0.03
		l-0.035-0.047C12.122,28.488,33.506,0,58.984,0L58.664,144.545z"/>
	<path fill="#E94E1B" d="M104.666,204.246c-23.052-10.102-25.641-42.895-25.923-49.051c8.119-3.571,15.529-9.31,21.748-16.98
		c10.659-13.146,16.577-30.532,16.664-48.959L0.001,88.676c-0.145,30.49,15.9,56.599,38.411,66.521
		c-0.286,6.213-2.897,39.081-26.056,49.107c-0.79,0.342-1.231,1.191-1.057,2.033c0.175,0.844,0.917,1.447,1.777,1.447h91.001
		c0.007,0,0.014,0.001,0.018,0c1.004,0,1.815-0.812,1.815-1.815C105.911,205.166,105.39,204.485,104.666,204.246z"/>
</g>
</svg>
