<?xml version="1.0" encoding="utf-8"?>
<!-- Generator: Adobe Illustrator 15.0.2, SVG Export Plug-In . SVG Version: 6.00 Build 0)  -->
<!DOCTYPE svg PUBLIC "-//W3C//DTD SVG 1.1//EN" "http://www.w3.org/Graphics/SVG/1.1/DTD/svg11.dtd">
<svg version="1.1" id="Lager_1" xmlns="http://www.w3.org/2000/svg" xmlns:xlink="http://www.w3.org/1999/xlink" x="0px" y="0px"
	 width="484.35px" height="275.986px" viewBox="0 0 484.35 275.986" enable-background="new 0 0 484.35 275.986"
	 xml:space="preserve">
<g>
	<g>
		<g>
			<path fill="#3D3D3F" stroke="#3D3D3F" stroke-width="1.0659" stroke-miterlimit="10" d="M262.013,141.545l210.342-21.996
				c7.025-0.734,12.127-7.025,11.391-14.052l-0.758-7.242c-0.733-7.025-7.024-12.127-14.051-11.392L258.595,108.86L262.013,141.545z
				"/>
			<g>
				<circle fill="#B0B2B3" stroke="#B0B2B3" stroke-width="0.9651" stroke-miterlimit="10" cx="137.993" cy="137.993" r="137.5"/>
				<path fill="#3D3D3F" stroke="#3D3D3F" stroke-width="2.1318" stroke-miterlimit="10" d="M7.599,151.629
					C0.081,79.73,52.457,15.119,124.356,7.601c71.897-7.521,136.51,44.856,144.029,116.756s-44.859,136.511-116.757,144.03
					C79.73,275.906,15.118,223.528,7.599,151.629z"/>
			</g>
		</g>
	</g>
</g>
<g>
	<g>
		<path fill="#F6F6F6" stroke="#F6F6F6" stroke-width="2.8374" stroke-miterlimit="10" d="M210.496,142.846
			c0,49.965-33.611,90.465-75.074,90.465c-41.463,0-81.932-33.004-75.076-84.728c4.753-35.863,29.345-42.67,41.819-59.303
			c14.44-19.253,24.396-46.026,52.983-46.026C196.611,43.255,210.496,92.882,210.496,142.846z"/>
	</g>
	<g>
		<g>
			<path fill="#FFED00" stroke="#FFED00" stroke-width="2.1284" stroke-miterlimit="10" d="M165.184,156.544
				c0,16.649-13.497,30.146-30.145,30.146s-30.145-13.496-30.145-30.146c0-16.648,13.497-30.146,30.145-30.146
				S165.184,139.895,165.184,156.544z"/>
		</g>
		<g>
			<path fill="#FFD500" stroke="#FFD500" stroke-width="2.1284" stroke-miterlimit="10" d="M135.039,126.398
				c16.648,0,30.145,13.497,30.145,30.146c0,16.649-13.497,30.146-30.145,30.146"/>
		</g>
	</g>
</g>
</svg>
