<?xml version="1.0" encoding="utf-8"?>
<!-- Generator: Adobe Illustrator 15.0.2, SVG Export Plug-In . SVG Version: 6.00 Build 0)  -->
<!DOCTYPE svg PUBLIC "-//W3C//DTD SVG 1.1//EN" "http://www.w3.org/Graphics/SVG/1.1/DTD/svg11.dtd">
<svg version="1.1" id="Lager_1" xmlns="http://www.w3.org/2000/svg" xmlns:xlink="http://www.w3.org/1999/xlink" x="0px" y="0px"
	 width="82.077px" height="74.925px" viewBox="0 0 82.077 74.925" enable-background="new 0 0 82.077 74.925" xml:space="preserve">
<g>
	<path fill="#FFFFFF" stroke="#FFFFFF" stroke-width="0.1" stroke-miterlimit="10" d="M7.441,21.218
		c0.823-0.711,1.233-1.578,1.233-2.601s-0.297-1.839-0.89-2.451c-0.593-0.611-1.311-1.067-2.15-1.368
		c-0.838-0.301-1.683-0.607-2.532-0.919c-0.85-0.31-1.571-0.78-2.164-1.41c-0.592-0.628-0.889-1.438-0.889-2.424
		c0-1.715,0.479-2.992,1.437-3.832c0.959-0.841,2.104-1.262,3.437-1.262c1.334,0,2.793,0.128,4.383,0.383v1.015
		C7.881,6.092,6.548,5.965,5.307,5.965s-2.26,0.348-3.054,1.04C1.458,7.699,1.062,8.678,1.062,9.937
		c0,1.095,0.566,1.917,1.697,2.465c0.512,0.257,1.072,0.492,1.687,0.711c0.61,0.221,1.228,0.466,1.847,0.74
		c0.622,0.274,1.184,0.597,1.685,0.972c0.503,0.375,0.914,0.896,1.233,1.562c0.318,0.666,0.479,1.442,0.479,2.326
		c0,0.887-0.205,1.668-0.615,2.343c-0.413,0.675-0.919,1.204-1.521,1.587c-0.605,0.383-1.307,0.695-2.111,0.932
		c-1.294,0.403-2.756,0.604-4.381,0.604H0.377v-1.015C3.626,23.164,5.981,22.516,7.441,21.218z"/>
	<path fill="#FFFFFF" stroke="#FFFFFF" stroke-width="0.1" stroke-miterlimit="10" d="M22.368,24.122h-9.531V4.951h1.016v18.156
		h8.516V24.122z"/>
	<path fill="#FFFFFF" stroke="#FFFFFF" stroke-width="0.1" stroke-miterlimit="10" d="M32.116,22.411
		c-0.84,1.176-2.073,1.768-3.698,1.768c-1.624,0-2.837-0.648-3.641-1.946c-0.803-1.295-1.206-2.875-1.206-4.737V4.951h1.014v12.516
		c0,1.864,0.379,3.278,1.138,4.247c0.757,0.967,1.68,1.45,2.765,1.45c1.087,0,2.004-0.479,2.753-1.438
		c0.749-0.959,1.124-2.378,1.124-4.26V4.951h1.013v12.544C33.377,19.594,32.956,21.234,32.116,22.411z"/>
	<path fill="#FFFFFF" stroke="#FFFFFF" stroke-width="0.1" stroke-miterlimit="10" d="M41.099,24.122h-1.013V5.965h-4.381V4.951
		h9.804v1.014h-4.41V24.122z"/>
	<path fill="#FFFFFF" stroke="#FFFFFF" stroke-width="0.1" stroke-miterlimit="10" d="M54.517,16.017v8.105h-1.014V4.924
		c3.194,0.019,5.628,0.506,7.299,1.468c1.67,0.957,2.505,2.304,2.505,4.037c0,2.047-0.804,3.471-2.409,4.273
		c-0.549,0.292-1.031,0.51-1.453,0.656c-0.419,0.148-0.984,0.274-1.696,0.384C56.853,15.852,55.776,15.943,54.517,16.017z
		 M54.517,15.003l0.272,0.026c5.003-0.071,7.504-1.577,7.504-4.518c0-1.097-0.502-2.072-1.507-2.932
		c-0.547-0.474-1.354-0.857-2.423-1.148c-1.066-0.292-2.351-0.449-3.847-0.467V15.003z"/>
	<path fill="#FFFFFF" stroke="#FFFFFF" stroke-width="0.1" stroke-miterlimit="10" d="M75.657,6.375v17.747h-1.013v-9.038h-7.778
		v9.038h-1.015V11.579c0-1.972,0.631-3.589,1.891-4.847c1.26-1.26,2.839-1.89,4.738-1.89C73.867,4.843,74.929,5.354,75.657,6.375z
		 M74.645,14.071V6.759c-0.586-0.602-1.323-0.903-2.22-0.903c-1.606,0-2.936,0.585-3.984,1.752c-1.05,1.17-1.574,2.503-1.574,3.999
		v2.465H74.645z M72.534,3.748c-0.418,0.418-0.93,0.628-1.533,0.628c-0.602,0-1.111-0.21-1.534-0.628
		c-0.419-0.422-0.628-0.937-0.628-1.551c0-0.609,0.209-1.119,0.628-1.532c0.423-0.41,0.933-0.615,1.534-0.615
		c0.604,0,1.115,0.205,1.533,0.615c0.42,0.413,0.631,0.923,0.631,1.532C73.165,2.812,72.954,3.326,72.534,3.748z M72.397,2.185
		c0-0.401-0.133-0.729-0.396-0.984c-0.265-0.257-0.6-0.384-1-0.384S70.265,0.943,70.003,1.2c-0.266,0.256-0.397,0.579-0.397,0.971
		c0,0.394,0.132,0.731,0.397,1.015c0.262,0.282,0.605,0.424,1.026,0.424c0.419,0,0.753-0.136,0.999-0.41
		C72.275,2.925,72.397,2.589,72.397,2.185z"/>
	<path fill="#FFFFFF" d="M20.524,42.339v32.534h-1.858V58.306H4.407v16.567H2.55V51.877c0-3.613,1.155-6.576,3.464-8.886
		c2.311-2.311,5.206-3.465,8.688-3.465C17.244,39.526,19.186,40.465,20.524,42.339z M18.666,56.446V43.04
		c-1.069-1.103-2.428-1.655-4.065-1.655c-2.945,0-5.383,1.072-7.306,3.214c-1.926,2.142-2.888,4.585-2.888,7.331v4.517H18.666z
		 M6.566,33.201h1.907v3.314H6.566V33.201z M15.103,33.201h1.907v3.314h-1.907V33.201z"/>
	<path fill="#FFFFFF" d="M44.675,47.51l-1.858-0.05c-0.302-1.807-1.046-3.238-2.233-4.292c-1.188-1.057-2.519-1.583-3.991-1.583
		c-2.479,0-4.436,1.264-5.875,3.791s-2.16,5.433-2.16,8.711c0,6.661,1.147,11.415,3.44,14.258c2.293,2.848,5.9,4.402,10.819,4.671
		V59.208h-4.919v-1.857h6.777v17.574c-4.854,0-8.469-0.721-10.845-2.16c-0.938-0.568-1.883-1.373-2.837-2.411
		c-0.954-1.036-1.732-2.275-2.336-3.716c-1.305-3.244-1.957-7.445-1.957-12.601c0-2.442,0.334-4.635,1.003-6.577
		c0.671-1.941,1.507-3.447,2.513-4.52c2.04-2.142,4.098-3.213,6.175-3.213c2.075,0,3.974,0.837,5.698,2.511
		C43.812,43.913,44.675,45.668,44.675,47.51z"/>
	<path fill="#FFFFFF" d="M68.021,47.51l-1.858-0.05c-0.302-1.807-1.046-3.238-2.233-4.292c-1.188-1.057-2.519-1.583-3.991-1.583
		c-2.479,0-4.436,1.264-5.875,3.791c-1.44,2.527-2.159,5.433-2.159,8.711c0,6.661,1.146,11.415,3.441,14.258
		c2.29,2.848,5.899,4.402,10.817,4.671V59.208h-4.918v-1.857h6.776v17.574c-4.854,0-8.469-0.721-10.845-2.16
		c-0.938-0.568-1.883-1.373-2.837-2.411c-0.955-1.036-1.732-2.275-2.336-3.716c-1.303-3.244-1.957-7.445-1.957-12.601
		c0-2.442,0.334-4.635,1.003-6.577c0.671-1.941,1.507-3.447,2.511-4.52c2.043-2.142,4.1-3.213,6.177-3.213
		c2.075,0,3.974,0.837,5.7,2.511C67.158,43.913,68.021,45.668,68.021,47.51z"/>
	<path fill="#FFFFFF" d="M82.026,64.831H80.17V37.217h1.856V64.831z M80.17,71.56h1.907v3.313H80.17V71.56z"/>
</g>
</svg>
