<?xml version="1.0" encoding="utf-8"?>
<!-- Generator: Adobe Illustrator 15.0.2, SVG Export Plug-In . SVG Version: 6.00 Build 0)  -->
<!DOCTYPE svg PUBLIC "-//W3C//DTD SVG 1.1//EN" "http://www.w3.org/Graphics/SVG/1.1/DTD/svg11.dtd">
<svg version="1.1" id="Lager_1" xmlns="http://www.w3.org/2000/svg" xmlns:xlink="http://www.w3.org/1999/xlink" x="0px" y="0px"
	 width="301.658px" height="379.164px" viewBox="0 0 301.658 379.164" enable-background="new 0 0 301.658 379.164"
	 xml:space="preserve">
<g>
	<g>
		<path fill="#F6F6F6" stroke="#F6F6F6" stroke-width="2.8374" stroke-miterlimit="10" d="M300.239,198.615
			c0,98.934-66.552,179.129-148.652,179.129c-82.101,0-162.233-65.35-148.657-167.769c9.413-71.01,58.107-84.49,82.806-117.423
			c28.592-38.123,48.307-91.135,104.91-91.135C272.746,1.418,300.239,99.682,300.239,198.615z"/>
	</g>
	<g>
		<g>
			<path fill="#FFED00" stroke="#FFED00" stroke-width="2.1284" stroke-miterlimit="10" d="M210.519,225.737
				c0,32.969-26.726,59.689-59.69,59.689s-59.69-26.721-59.69-59.689c0-32.965,26.726-59.69,59.69-59.69
				S210.519,192.772,210.519,225.737z"/>
		</g>
		<g>
			<path fill="#FFD500" stroke="#FFD500" stroke-width="2.1284" stroke-miterlimit="10" d="M150.829,166.047
				c32.964,0,59.69,26.725,59.69,59.69c0,32.969-26.726,59.689-59.69,59.689"/>
		</g>
	</g>
</g>
</svg>
