<?xml version="1.0" encoding="utf-8"?>
<!-- Generator: Adobe Illustrator 17.0.0, SVG Export Plug-In . SVG Version: 6.00 Build 0)  -->
<!DOCTYPE svg PUBLIC "-//W3C//DTD SVG 1.1//EN" "http://www.w3.org/Graphics/SVG/1.1/DTD/svg11.dtd">
<svg version="1.1" id="Layer_1" xmlns="http://www.w3.org/2000/svg" xmlns:xlink="http://www.w3.org/1999/xlink" x="0px" y="0px"
	 width="139.301px" height="196.592px" viewBox="0 0 139.301 196.592" enable-background="new 0 0 139.301 196.592"
	 xml:space="preserve">
<path fill="#D69850" d="M139.301,128.541c-0.341,5.594-1.181,11.133-2.544,16.461c-9.003,35.172-39.962,57.627-69.149,50.156
	c-29.188-7.471-45.551-42.039-36.548-77.211c1.364-5.328,3.288-10.59,5.676-15.658l9.009,17.791l16.557-11.248l9.116,17.818
	l16.435-11.277l9.116,17.818l16.677-11.217l9.117,17.818L139.301,128.541z"/>
<path fill="#C58146" d="M87.852,115.373l9.116,17.818l16.677-11.217l9.117,17.818l16.539-11.252
	c-0.341,5.594-1.181,11.133-2.544,16.461c-9.003,35.172-39.962,57.627-69.149,50.156L87.852,115.373z"/>
<path fill="#D69850" d="M0,49.957l7.451-14.82l16.305,3.115l7.578-14.883l16.307,3.115l7.354-14.771l16.305,3.115L78.766,0
	l16.205,3.166c8.312,30.254,1.66,65.301-21.271,76.6C50.768,91.064,18.924,74.982,0,49.957z"/>
<path fill="#C58146" d="M73.699,79.766C50.768,91.064,18.924,74.982,0,49.957l7.451-14.82l16.305,3.115l7.578-14.883l16.307,3.115
	L73.699,79.766z"/>
</svg>
