<?xml version="1.0" encoding="utf-8"?>
<!-- Generator: Adobe Illustrator 15.1.0, SVG Export Plug-In . SVG Version: 6.00 Build 0)  -->
<!DOCTYPE svg PUBLIC "-//W3C//DTD SVG 1.1//EN" "http://www.w3.org/Graphics/SVG/1.1/DTD/svg11.dtd">
<svg version="1.1" id="Lager_1" xmlns="http://www.w3.org/2000/svg" xmlns:xlink="http://www.w3.org/1999/xlink" x="0px" y="0px"
	 width="1920px" height="204.521px" viewBox="0 0 1920 204.521" enable-background="new 0 0 1920 204.521" xml:space="preserve">
<g>
	<path fill="#62B987" d="M1920.555,204.521H0V20.87c28.02-0.438,61.021-3.284,97.986-10.562
		c92.269-18.165,153.809-7.567,187.674,0.019l0.066-0.019c-2.765-0.843,80.998,23.437,200.021,0
		c91.284-17.974,152.501-7.793,186.594-0.224l-0.026-0.039l0.055-0.017c-2.759-0.842,81.004,23.434,200.025,0
		c104.747-20.623,169.898-4.175,199.918,2.858l3.838,0.821c27.877,5.609,94.809,14.521,185.731-3.38
		c92.271-18.164,153.803-7.566,187.68,0.019l0.067-0.019c-0.518-0.156,1.97,0.558,7.114,1.671l0,0c0,0,21.989,4.992,60.657,7.756
		c34.35,1.958,79.885,0.884,132.249-9.427c38.709-7.622,71.995-10.169,100.112-10.013c42.502-0.454,73.836,5.345,94.68,10.013
		l0.061-0.019c-1.639-0.501,27.304,7.877,76.051,9.83V204.521z"/>
</g>
</svg>
