<?xml version="1.0" encoding="utf-8"?>
<!-- Generator: Adobe Illustrator 15.0.2, SVG Export Plug-In . SVG Version: 6.00 Build 0)  -->
<!DOCTYPE svg PUBLIC "-//W3C//DTD SVG 1.1//EN" "http://www.w3.org/Graphics/SVG/1.1/DTD/svg11.dtd">
<svg version="1.1" id="Lager_1" xmlns="http://www.w3.org/2000/svg" xmlns:xlink="http://www.w3.org/1999/xlink" x="0px" y="0px"
	 width="143.795px" height="100.768px" viewBox="0 0 143.795 100.768" enable-background="new 0 0 143.795 100.768"
	 xml:space="preserve">
<path fill="#CBE9FC" d="M117.735,11.193c-7.057-0.783-13.807,1.018-19.306,4.633C92.395,7.408,82.979,1.463,71.872,0.234
	c-17.194-1.91-32.94,8.04-39.169,23.299c-16.21-1.551-30.72,10.18-32.519,26.418c-1.819,16.394,9.997,31.154,26.389,32.968
	c2.475,0.273,4.903,0.205,7.266-0.113c3.551,9.443,12.13,16.605,22.843,17.789c11.706,1.301,22.484-4.916,27.6-14.778
	c3.801,4.152,9.047,7.011,15.078,7.677c13.205,1.467,25.103-8.055,26.57-21.262c0.188-1.693,0.188-3.365,0.029-4.998
	c9.405-4.01,16.447-12.824,17.653-23.711C145.398,27.451,133.804,12.975,117.735,11.193z"/>
<g>
	
		<path fill="#FFFFFF" stroke="#FFFFFF" stroke-width="0.9141" stroke-linecap="round" stroke-linejoin="round" stroke-miterlimit="10" d="
		M52.305,71.871c0,0,1.98,0.072,3.725-1.316c3.868-3.515,0.953-7.739,0.953-7.739l-4.678-7.603l-4.677,7.602
		c0,0-2.915,4.225,0.954,7.739C50.325,71.943,52.305,71.871,52.305,71.871z"/>
	
		<path fill="#F6F6F6" stroke="#F6F6F6" stroke-width="0.9141" stroke-linecap="round" stroke-linejoin="round" stroke-miterlimit="10" d="
		M52.305,71.871c0,0-1.98,0.072-3.724-1.316c-3.869-3.515-0.954-7.739-0.954-7.739l4.678-7.603V71.871z"/>
</g>
<g>
	
		<path fill="#FFFFFF" stroke="#FFFFFF" stroke-width="0.9141" stroke-linecap="round" stroke-linejoin="round" stroke-miterlimit="10" d="
		M24.094,60.144c0,0,1.172,0.042,2.205-0.779c2.29-2.081,0.564-4.581,0.564-4.581l-2.769-4.5l-2.769,4.5
		c0,0-1.725,2.501,0.565,4.581C22.922,60.186,24.094,60.144,24.094,60.144z"/>
	
		<path fill="#F6F6F6" stroke="#F6F6F6" stroke-width="0.9141" stroke-linecap="round" stroke-linejoin="round" stroke-miterlimit="10" d="
		M24.094,60.144c0,0-1.172,0.042-2.205-0.779c-2.29-2.081-0.564-4.581-0.564-4.581l2.769-4.5V60.144z"/>
</g>
<g>
	
		<path fill="#FFFFFF" stroke="#FFFFFF" stroke-width="0.9141" stroke-linecap="round" stroke-linejoin="round" stroke-miterlimit="10" d="
		M120.137,43.366c0,0,1.187,0.042,2.231-0.789c2.318-2.107,0.571-4.638,0.571-4.638l-2.803-4.557l-2.804,4.556
		c0,0-1.746,2.532,0.572,4.638C118.95,43.408,120.137,43.366,120.137,43.366z"/>
	
		<path fill="#F6F6F6" stroke="#F6F6F6" stroke-width="0.9141" stroke-linecap="round" stroke-linejoin="round" stroke-miterlimit="10" d="
		M120.137,43.366c0,0-1.187,0.042-2.232-0.789c-2.317-2.107-0.571-4.638-0.571-4.638l2.804-4.557V43.366z"/>
</g>
<g>
	
		<path fill="#FFFFFF" stroke="#FFFFFF" stroke-width="0.9141" stroke-linecap="round" stroke-linejoin="round" stroke-miterlimit="10" d="
		M71.897,48.256c0,0,2.587,0.095,4.866-1.72c5.056-4.591,1.245-10.111,1.245-10.111l-6.111-9.934l-6.111,9.932
		c0,0-3.808,5.52,1.246,10.112C69.31,48.351,71.897,48.256,71.897,48.256z"/>
	
		<path fill="#F6F6F6" stroke="#F6F6F6" stroke-width="0.9141" stroke-linecap="round" stroke-linejoin="round" stroke-miterlimit="10" d="
		M71.897,48.256c0,0-2.587,0.095-4.866-1.72c-5.055-4.591-1.246-10.111-1.246-10.111l6.112-9.934V48.256z"/>
</g>
<g>
	
		<path fill="#FFFFFF" stroke="#FFFFFF" stroke-width="0.9141" stroke-linecap="round" stroke-linejoin="round" stroke-miterlimit="10" d="
		M100.236,64.146c0,0,1.887,0.068,3.546-1.255c3.686-3.345,0.908-7.369,0.908-7.369l-4.454-7.24l-4.454,7.24
		c0,0-2.775,4.022,0.908,7.369C98.351,64.214,100.236,64.146,100.236,64.146z"/>
	
		<path fill="#F6F6F6" stroke="#F6F6F6" stroke-width="0.9141" stroke-linecap="round" stroke-linejoin="round" stroke-miterlimit="10" d="
		M100.236,64.146c0,0-1.886,0.068-3.546-1.255c-3.685-3.345-0.908-7.369-0.908-7.369l4.454-7.24V64.146z"/>
</g>
</svg>
