<?xml version="1.0" encoding="utf-8"?>
<!-- Generator: Adobe Illustrator 17.1.0, SVG Export Plug-In . SVG Version: 6.00 Build 0)  -->
<!DOCTYPE svg PUBLIC "-//W3C//DTD SVG 1.1//EN" "http://www.w3.org/Graphics/SVG/1.1/DTD/svg11.dtd">
<svg version="1.1" id="Layer_1" xmlns="http://www.w3.org/2000/svg" xmlns:xlink="http://www.w3.org/1999/xlink" x="0px" y="0px"
	 viewBox="0 0 446.875 168.963" enable-background="new 0 0 446.875 168.963" xml:space="preserve">
<g>
	<g>
		
			<path fill="#0C4693" stroke="#0C4693" stroke-width="8" stroke-linecap="round" stroke-linejoin="round" stroke-miterlimit="10" d="
			M339.105,122.436V28.729h98.334l5.436,119.104h-80.5l-0.047-1.146c-0.752-9.6-6.602-17.791-14.834-21.863
			C347.494,124.822,344.146,122.895,339.105,122.436z"/>
	</g>
	<g>
		<path d="M216,133.717"/>
	</g>
	<g>
		<circle fill="none" stroke="#000000" stroke-width="8" stroke-miterlimit="10" cx="335" cy="150.33" r="14.632"/>
	</g>
	<g>
		<circle fill="none" stroke="#000000" stroke-width="8" stroke-miterlimit="10" cx="167.815" cy="150.33" r="14.633"/>
	</g>
	<g>
		<circle fill="none" stroke="#000000" stroke-width="8" stroke-miterlimit="10" cx="100.171" cy="150.33" r="14.632"/>
	</g>
	<g>
		
			<polyline fill="#0C4693" stroke="#253A6F" stroke-width="3" stroke-linecap="round" stroke-linejoin="round" stroke-miterlimit="10" points="
			377.007,98.398 377.007,144.686 415.341,144.686 415.341,99.955 		"/>
	</g>
	<g>
		
			<polygon fill="#DFEBF1" stroke="#DFEBF1" stroke-width="4" stroke-linecap="round" stroke-linejoin="round" stroke-miterlimit="10" points="
			354.912,94.941 442.875,99.02 440.626,38.936 354.912,38.936 		"/>
	</g>
	<g>
		
			<polygon fill="#EFF8FD" stroke="#EFF8FD" stroke-width="4" stroke-linecap="round" stroke-linejoin="round" stroke-miterlimit="10" points="
			354.912,94.941 354.912,38.936 440.626,38.936 		"/>
	</g>
	<g>
		<polygon fill="#8AAFBB" points="378.507,98.083 375.507,97.896 375.507,36.9 378.507,36.9 		"/>
	</g>
	<g>
		<polygon fill="#8AAFBB" points="416.841,99.854 413.841,99.682 413.841,36.9 416.841,36.9 		"/>
	</g>
	<g>
		
			<path fill="#0C4693" stroke="#0C4693" stroke-width="8" stroke-linecap="round" stroke-linejoin="round" stroke-miterlimit="10" d="
			M4,147.834l47.113-0.668c0.278-5.832,1.979-17.117,10.247-27.17c6.766-8.225,20.117-18.031,45.308-18.031h216.501V4H109.753
			L4,147.834z"/>
	</g>
	<g>
		
			<path fill="#575756" stroke="#575756" stroke-width="5" stroke-linecap="round" stroke-linejoin="round" stroke-miterlimit="10" d="
			M65.098,147.832c0.383-8.025,4.629-31.867,41.57-31.867h216.499l0.002,10.006c-8.232,4.07-14.082,12.262-14.834,21.861
			l-113.708,0.002c-1.312-13.586-12.796-24.242-26.719-24.242c-13.925,0-25.408,10.656-26.721,24.24h-14.004
			c-1.312-13.584-12.796-24.24-26.719-24.24c-13.925,0-25.408,10.656-26.721,24.24H65.098z"/>
	</g>
	<g>
		<g>
			<rect x="434.673" y="130.986" fill="#FFFFFF" width="10.494" height="7.361"/>
		</g>
		<g>
			<path fill="#FFFFFF" d="M445.382,139.44h-10.709c-0.604,0-1.094-0.489-1.094-1.093v-7.361c0-0.604,0.49-1.093,1.094-1.093h10.494
				c0.604,0,1.092,0.489,1.092,1.093l0.215,7.361C446.474,138.951,445.986,139.44,445.382,139.44z M435.765,137.255h8.309v-5.176
				h-8.309V137.255z"/>
		</g>
	</g>
	<g>
		
			<polygon fill="#E94E1B" stroke="#E94E1B" stroke-width="1.546" stroke-linecap="round" stroke-linejoin="round" stroke-miterlimit="10" points="
			445.119,126.824 434.218,126.842 434.218,122.123 444.927,122.141 		"/>
	</g>
	<g>
		
			<polygon fill="#F39200" stroke="#F39200" stroke-width="1.546" stroke-linecap="round" stroke-linejoin="round" stroke-miterlimit="10" points="
			434.218,126.842 434.218,122.123 444.927,122.141 		"/>
	</g>
	<g>
		
			<polygon fill="#253A6F" stroke="#253A6F" stroke-width="8" stroke-linecap="round" stroke-linejoin="round" stroke-miterlimit="10" points="
			4,147.834 14,4 109.753,4 		"/>
	</g>
	<g>
		
			<path fill="#575756" stroke="#575756" stroke-width="5" stroke-linecap="round" stroke-linejoin="round" stroke-miterlimit="10" d="
			M100.465,123.592"/>
	</g>
	<g>
		
			<path fill="#575756" stroke="#575756" stroke-width="5" stroke-linecap="round" stroke-linejoin="round" stroke-miterlimit="10" d="
			M167.908,123.592"/>
	</g>
	<g>
		
			<path fill="#575756" stroke="#575756" stroke-width="5" stroke-linecap="round" stroke-linejoin="round" stroke-miterlimit="10" d="
			M100.465,123.592"/>
	</g>
	<g>
		
			<path fill="#575756" stroke="#575756" stroke-width="5" stroke-linecap="round" stroke-linejoin="round" stroke-miterlimit="10" d="
			M167.908,123.592"/>
	</g>
	<g>
		<path fill="none" stroke="#3C3C3B" stroke-width="6" stroke-linecap="round" stroke-linejoin="round" stroke-miterlimit="10" d="
			M127.184,147.832c-1.312-13.584-12.796-24.24-26.719-24.24c-13.925,0-25.408,10.656-26.721,24.24"/>
	</g>
	<g>
		<path fill="none" stroke="#3C3C3B" stroke-width="6" stroke-linecap="round" stroke-linejoin="round" stroke-miterlimit="10" d="
			M194.627,147.834c-1.312-13.586-12.796-24.242-26.719-24.242c-13.925,0-25.408,10.656-26.721,24.24"/>
	</g>
	<g>
		<path fill="none" stroke="#3C3C3B" stroke-width="6" stroke-linecap="round" stroke-linejoin="round" stroke-miterlimit="10" d="
			M323.169,125.971c-8.232,4.07-14.082,12.262-14.834,21.861"/>
	</g>
</g>
</svg>
