<?xml version="1.0" encoding="utf-8"?>
<!-- Generator: Adobe Illustrator 17.0.0, SVG Export Plug-In . SVG Version: 6.00 Build 0)  -->
<!DOCTYPE svg PUBLIC "-//W3C//DTD SVG 1.1//EN" "http://www.w3.org/Graphics/SVG/1.1/DTD/svg11.dtd">
<svg version="1.1" id="Layer_1" xmlns="http://www.w3.org/2000/svg" xmlns:xlink="http://www.w3.org/1999/xlink" x="0px" y="0px"
	 width="148.446px" height="191.501px" viewBox="0 0 148.446 191.501" enable-background="new 0 0 148.446 191.501"
	 xml:space="preserve">
<g>
	<path fill="#95C11F" stroke="#006633" stroke-width="4" stroke-miterlimit="10" d="M146.446,102.471
		c0,48.066-32.334,87.03-72.222,87.03C34.336,189.501,2,150.537,2,102.471C2,54.405,34.336,2,74.224,2
		C114.112,2,146.446,54.405,146.446,102.471z"/>
</g>
<g>
	<path fill="#8DB61D" stroke="#006633" stroke-width="4" stroke-miterlimit="10" d="M74.224,2
		c39.888,0,72.222,52.405,72.222,100.471c0,48.066-32.334,87.03-72.222,87.03"/>
</g>
<circle fill="#683C11" stroke="#683C11" stroke-width="1.3691" stroke-miterlimit="10" cx="74.787" cy="117.813" r="38.395"/>
<path fill="#432918" stroke="#432918" stroke-width="1.3691" stroke-miterlimit="10" d="M74.787,156.208
	c21.204,0,38.394-17.189,38.394-38.395c0-21.204-17.19-38.394-38.394-38.394V156.208z"/>
</svg>
