<?xml version="1.0" encoding="utf-8"?>
<!-- Generator: Adobe Illustrator 15.0.2, SVG Export Plug-In . SVG Version: 6.00 Build 0)  -->
<!DOCTYPE svg PUBLIC "-//W3C//DTD SVG 1.1//EN" "http://www.w3.org/Graphics/SVG/1.1/DTD/svg11.dtd">
<svg version="1.1" id="Lager_1" xmlns="http://www.w3.org/2000/svg" xmlns:xlink="http://www.w3.org/1999/xlink" x="0px" y="0px"
	 width="241.13px" height="195.42px" viewBox="0 0 241.13 195.42" enable-background="new 0 0 241.13 195.42" xml:space="preserve">
<g>
	<g>
		<g>
			
				<path fill="#FFD600" stroke="#FFD600" stroke-width="1.2676" stroke-linecap="round" stroke-linejoin="round" stroke-miterlimit="10" d="
				M198.713,118.526c-40.12,18.686-81.449,9.938-110.505-9.301C59.154,89.986,42.6,58.948,40.694,26.644L19.48,27.053
				c-14.537,44.419,1.598,94.802,42.45,121.854c40.857,27.058,100.196,24.565,141.465-19.186L198.713,118.526z"/>
		</g>
		<g>
			
				<path fill="#FDC100" stroke="#FDC100" stroke-width="1.2676" stroke-linecap="round" stroke-linejoin="round" stroke-miterlimit="10" d="
				M203.395,129.721c-39.686,42.511-98.464,47.663-141.465,19.186C21.078,121.855,4.943,71.473,19.48,27.053l9.141-0.176
				c-4.586,38.672,12.28,78.445,46.963,101.414c34.685,22.971,91.573,21.898,125.694-3.631L203.395,129.721z"/>
		</g>
	</g>
	<g>
		<g>
			
				<path fill="#FFD600" stroke="#FFD600" stroke-width="1.2676" stroke-linecap="round" stroke-linejoin="round" stroke-miterlimit="10" d="
				M231.704,43.527c-29.205,33.256-70.558,41.882-104.899,35.966C92.462,73.575,64.816,51.83,50.069,23.025l-19.257,8.913
				c4.572,46.513,39.623,86.135,87.91,94.459c48.292,8.32,101.607-17.843,121.774-74.505L231.704,43.527z"/>
		</g>
		<g>
			
				<path fill="#FDC100" stroke="#FDC100" stroke-width="1.2676" stroke-linecap="round" stroke-linejoin="round" stroke-miterlimit="10" d="
				M240.497,51.893c-19.217,54.893-70.949,83.264-121.774,74.505c-48.287-8.324-83.338-47.946-87.91-94.459l8.298-3.839
				c11.367,37.244,42.818,66.865,83.811,73.931c40.995,7.061,92.644-16.811,113.601-53.917L240.497,51.893z"/>
		</g>
	</g>
	<g>
		
			<path fill="#FDC100" stroke="#FDC100" stroke-width="1.2676" stroke-linecap="round" stroke-linejoin="round" stroke-miterlimit="10" d="
			M87.728,149.742"/>
	</g>
	<g>
		<g>
			
				<polygon fill="#634E42" stroke="#634E42" stroke-width="1.204" stroke-linecap="round" stroke-linejoin="round" stroke-miterlimit="10" points="
				51,16.857 34.157,9.095 40.863,0.602 53.098,6.243 			"/>
		</g>
		<g>
			
				<polygon fill="#7B6A58" stroke="#7B6A58" stroke-width="1.204" stroke-linecap="round" stroke-linejoin="round" stroke-miterlimit="10" points="
				51,16.857 53.098,6.243 40.863,0.602 			"/>
		</g>
	</g>
	<g>
		
			<path fill="#FFD600" stroke="#FFD600" stroke-width="1.2676" stroke-linecap="round" stroke-linejoin="round" stroke-miterlimit="10" d="
			M151.957,174.45c-44.255-0.625-77.664-26.479-95.458-56.441c-17.793-29.963-19.2-65.111-6.863-95.026l-19.279-8.862
			c-32.413,33.675-39.799,86.06-14.78,128.188c25.021,42.135,79.535,65.703,135.724,44.258L151.957,174.45z"/>
	</g>
	<g>
		
			<path fill="#FDC100" stroke="#FDC100" stroke-width="1.2676" stroke-linecap="round" stroke-linejoin="round" stroke-miterlimit="10" d="
			M151.3,186.567c-54.226,21.021-109.39,0.089-135.724-44.258c-25.02-42.129-17.633-94.513,14.78-128.188l8.304,3.821
			c-20.949,32.825-23.063,75.977-1.823,111.743c21.241,35.77,72.929,59.553,114.758,51.408L151.3,186.567z"/>
	</g>
	<g>
		
			<path fill="#FDC100" stroke="#FDC100" stroke-width="1.2676" stroke-linecap="round" stroke-linejoin="round" stroke-miterlimit="10" d="
			M147.647,99.281"/>
	</g>
</g>
</svg>
