<?xml version="1.0" encoding="utf-8"?>
<!-- Generator: Adobe Illustrator 15.0.2, SVG Export Plug-In . SVG Version: 6.00 Build 0)  -->
<!DOCTYPE svg PUBLIC "-//W3C//DTD SVG 1.1//EN" "http://www.w3.org/Graphics/SVG/1.1/DTD/svg11.dtd">
<svg version="1.1" id="Lager_1" xmlns="http://www.w3.org/2000/svg" xmlns:xlink="http://www.w3.org/1999/xlink" x="0px" y="0px"
	 width="100.156px" height="100.68px" viewBox="0 0 100.156 100.68" enable-background="new 0 0 100.156 100.68"
	 xml:space="preserve">
<g>
	<g>
		<g>
			
				<path fill="#FFD600" stroke="#FFD600" stroke-width="0.4439" stroke-linecap="round" stroke-linejoin="round" stroke-miterlimit="10" d="
				M33.813,43.759c3.739,6.48,5.57,14.146,4.804,22.158C36.985,83,23.237,98.607,2.239,100.207l-2.017-3.742
				c13.922-6.807,20.644-19.985,21.804-32.132c0.333-3.491,0.175-6.916-0.42-10.205L33.813,43.759z"/>
		</g>
		<g>
			
				<path fill="#786855" stroke="#786855" stroke-width="0.4439" stroke-linecap="round" stroke-linejoin="round" stroke-miterlimit="10" d="
				M30.271,38.653c6.059,7.355,9.316,17.021,8.34,27.257c-1.718,17.977-16.064,32.848-36.378,34.288l-0.912-1.688
				c14.465-3.67,27.285-18.924,28.669-33.425c0.723-7.564-0.868-14.816-4.193-21.056L30.271,38.653z"/>
		</g>
	</g>
	<g>
		<g>
			
				<path fill="#FCC200" stroke="#FCC200" stroke-width="0.6566" stroke-linecap="round" stroke-linejoin="round" stroke-miterlimit="10" d="
				M66.373,77.18"/>
		</g>
		<g>
			<g>
				
					<polygon fill="#5F4C3F" stroke="#5F4C3F" stroke-width="0.6236" stroke-linecap="round" stroke-linejoin="round" stroke-miterlimit="10" points="
					46.302,8.651 37.52,4.763 40.925,0.312 47.307,3.135 				"/>
			</g>
			<g>
				
					<polygon fill="#786855" stroke="#786855" stroke-width="0.6236" stroke-linecap="round" stroke-linejoin="round" stroke-miterlimit="10" points="
					46.302,8.651 47.307,3.135 40.925,0.312 				"/>
			</g>
		</g>
		<g>
			
				<path fill="#FFD600" stroke="#FFD600" stroke-width="0.6566" stroke-linecap="round" stroke-linejoin="round" stroke-miterlimit="10" d="
				M99.828,89.471c-22.923,0.025-40.43-13.101-49.878-28.478c-9.452-15.378-10.458-33.569-4.306-49.16L35.59,7.396
				c-16.519,17.693-19.932,44.883-6.644,66.502c13.291,21.624,41.708,33.401,70.639,21.854L99.828,89.471z"/>
		</g>
		<g>
			
				<path fill="#FCC200" stroke="#FCC200" stroke-width="0.6566" stroke-linecap="round" stroke-linejoin="round" stroke-miterlimit="10" d="
				M99.585,95.751c-27.918,11.313-56.65,0.907-70.639-21.854C15.658,52.279,19.072,25.089,35.59,7.396l4.331,1.913
				c-10.592,17.167-11.345,39.53-0.062,57.886c11.281,18.356,38.24,30.267,59.838,25.72L99.585,95.751z"/>
		</g>
		<g>
			<circle fill="#5F4C3F" cx="40.364" cy="81.558" r="0.602"/>
		</g>
		<g>
			<circle fill="#5F4C3F" cx="41.604" cy="84.4" r="0.601"/>
		</g>
		<g>
			<path fill="#5F4C3F" d="M42.845,87.476c-0.123,0.31-0.475,0.46-0.783,0.336c-0.311-0.123-0.459-0.474-0.334-0.786
				c0.123-0.305,0.475-0.455,0.783-0.333C42.82,86.818,42.968,87.169,42.845,87.476z"/>
		</g>
		<g>
			<path fill="#5F4C3F" d="M44.658,86.584c-0.125,0.309-0.475,0.456-0.783,0.336c-0.31-0.128-0.459-0.478-0.333-0.786
				c0.124-0.308,0.474-0.457,0.781-0.331C44.633,85.925,44.782,86.277,44.658,86.584z"/>
		</g>
		<g>
			<path fill="#5F4C3F" d="M45.931,89.74c-0.125,0.309-0.475,0.458-0.784,0.335c-0.308-0.126-0.457-0.476-0.333-0.783
				c0.124-0.31,0.474-0.459,0.783-0.332C45.906,89.081,46.054,89.43,45.931,89.74z"/>
		</g>
		<g>
			<circle fill="#5F4C3F" cx="47.343" cy="88.702" r="0.602"/>
		</g>
		<g>
			<circle fill="#5F4C3F" cx="38.016" cy="82.558" r="0.603"/>
		</g>
		<g>
			<path fill="#5F4C3F" d="M36.986,79.548c-0.125,0.307-0.475,0.456-0.781,0.335c-0.311-0.129-0.461-0.478-0.336-0.785
				c0.123-0.309,0.475-0.455,0.785-0.333C36.96,78.891,37.111,79.24,36.986,79.548z"/>
		</g>
	</g>
</g>
</svg>
