<?xml version="1.0" encoding="utf-8"?>
<!-- Generator: Adobe Illustrator 15.0.2, SVG Export Plug-In . SVG Version: 6.00 Build 0)  -->
<!DOCTYPE svg PUBLIC "-//W3C//DTD SVG 1.1//EN" "http://www.w3.org/Graphics/SVG/1.1/DTD/svg11.dtd">
<svg version="1.1" id="Lager_1" xmlns="http://www.w3.org/2000/svg" xmlns:xlink="http://www.w3.org/1999/xlink" x="0px" y="0px"
	 width="437.232px" height="211.385px" viewBox="0 0 437.232 211.385" enable-background="new 0 0 437.232 211.385"
	 xml:space="preserve">
<g>
	<g>
		<path fill="#3E3E40" d="M34.539,211.385C3.926,204.59,0,156.56,0,156.56h437.232c0,0-33.744,54.825-63.945,54.825
			C343.084,211.385,34.539,211.385,34.539,211.385z"/>
		<g>
			<g>
				<rect x="13.799" y="88.295" fill="#FFFFFF" width="73.963" height="14.055"/>
				<rect x="10.953" y="84.279" fill="#B1B3B4" width="79.904" height="4.016"/>
				<rect x="29.25" y="52.125" fill="#FFFFFF" width="2.18" height="32.154"/>
				<g>
					<rect x="18.576" y="52.125" fill="#FFFFFF" width="23.525" height="1.99"/>
					<rect x="18.576" y="55.757" fill="#FFFFFF" width="23.525" height="1.991"/>
					<rect x="18.576" y="59.393" fill="#FFFFFF" width="23.525" height="1.989"/>
				</g>
				<rect x="10.953" y="84.279" fill="#88888A" width="39.951" height="4.016"/>
			</g>
			<g>
				<rect x="37.658" y="91.377" fill="#D3ECF9" width="6.332" height="7.89"/>
				<rect x="27.578" y="91.377" fill="#D3ECF9" width="6.332" height="7.89"/>
				<rect x="17.498" y="91.377" fill="#D3ECF9" width="6.33" height="7.89"/>
				<rect x="47.736" y="91.377" fill="#D3ECF9" width="6.334" height="7.89"/>
				<rect x="57.818" y="91.377" fill="#D3ECF9" width="6.332" height="7.89"/>
				<rect x="67.898" y="91.377" fill="#D3ECF9" width="6.332" height="7.89"/>
				<rect x="77.979" y="91.377" fill="#D3ECF9" width="6.332" height="7.89"/>
			</g>
		</g>
		<rect x="7.996" y="142.506" fill="#FFFFFF" width="85.814" height="14.054"/>
		<rect x="5.314" y="138.49" fill="#B1B3B4" width="91.18" height="4.016"/>
		<rect x="7.996" y="124.435" fill="#FFFFFF" width="85.814" height="14.056"/>
		<rect x="5.314" y="120.42" fill="#B1B3B4" width="91.18" height="4.015"/>
		<rect x="7.996" y="106.365" fill="#FFFFFF" width="85.814" height="14.054"/>
		<rect x="5.314" y="102.35" fill="#B1B3B4" width="91.18" height="4.016"/>
		<rect x="31.588" y="108.231" fill="#38A8DB" width="8.281" height="12.188"/>
		<ellipse fill="#58585A" cx="35.729" cy="111.461" rx="1.553" ry="1.416"/>
		<g>
			<rect x="43.549" y="109.771" fill="#D3ECF9" width="6.33" height="7.889"/>
			<rect x="21.574" y="109.771" fill="#D3ECF9" width="6.33" height="7.889"/>
			<rect x="11.494" y="109.771" fill="#D3ECF9" width="6.33" height="7.889"/>
			<rect x="53.627" y="109.771" fill="#D3ECF9" width="6.332" height="7.889"/>
			<rect x="63.709" y="109.771" fill="#D3ECF9" width="6.33" height="7.889"/>
			<rect x="73.787" y="109.771" fill="#D3ECF9" width="6.334" height="7.889"/>
			<rect x="83.867" y="109.771" fill="#D3ECF9" width="6.334" height="7.889"/>
		</g>
		<rect x="31.588" y="126.303" fill="#38A8DB" width="8.281" height="12.188"/>
		<ellipse fill="#58585A" cx="35.729" cy="129.531" rx="1.553" ry="1.416"/>
		<g>
			<rect x="43.549" y="127.84" fill="#D3ECF9" width="6.33" height="7.891"/>
			<rect x="21.574" y="127.84" fill="#D3ECF9" width="6.33" height="7.891"/>
			<rect x="11.494" y="127.84" fill="#D3ECF9" width="6.33" height="7.891"/>
			<rect x="53.627" y="127.84" fill="#D3ECF9" width="6.332" height="7.891"/>
			<rect x="63.709" y="127.84" fill="#D3ECF9" width="6.33" height="7.891"/>
			<rect x="73.787" y="127.84" fill="#D3ECF9" width="6.334" height="7.891"/>
			<rect x="83.867" y="127.84" fill="#D3ECF9" width="6.334" height="7.891"/>
		</g>
		<rect x="31.588" y="144.372" fill="#38A8DB" width="8.281" height="12.188"/>
		<ellipse fill="#58585A" cx="35.729" cy="147.602" rx="1.553" ry="1.416"/>
		<g>
			<rect x="43.549" y="145.91" fill="#D3ECF9" width="6.33" height="7.89"/>
			<rect x="21.574" y="145.91" fill="#D3ECF9" width="6.33" height="7.89"/>
			<rect x="11.494" y="145.91" fill="#D3ECF9" width="6.33" height="7.89"/>
			<rect x="53.627" y="145.91" fill="#D3ECF9" width="6.332" height="7.89"/>
			<rect x="63.709" y="145.91" fill="#D3ECF9" width="6.33" height="7.89"/>
			<rect x="73.787" y="145.91" fill="#D3ECF9" width="6.334" height="7.89"/>
			<rect x="83.867" y="145.91" fill="#D3ECF9" width="6.334" height="7.89"/>
		</g>
		<rect x="52.664" y="75.979" fill="#FFFFFF" width="24.289" height="8.301"/>
		<path fill="#FFFFFF" d="M76.953,75.979c0-6.708-5.438-12.144-12.145-12.144s-12.145,5.436-12.145,12.144H76.953z"/>
		<rect x="50.904" y="73.725" fill="#FFFFFF" width="27.557" height="2.12"/>
		<rect x="5.314" y="138.49" fill="#88888A" width="45.59" height="4.016"/>
		<rect x="5.314" y="120.42" fill="#88888A" width="45.59" height="4.015"/>
		<rect x="5.314" y="102.35" fill="#88888A" width="45.59" height="4.016"/>
		<rect x="52.664" y="75.979" fill="#FBFBFC" width="12.145" height="8.301"/>
		<path fill="#FBFBFC" d="M64.809,63.835c-6.707,0-12.145,5.436-12.145,12.144h12.018"/>
		<rect x="50.904" y="73.725" fill="#EBEBED" width="13.777" height="2.12"/>
		<g>
			<g>
				<g>
					
						<path fill="#FFD607" stroke="#FFD607" stroke-width="0.3306" stroke-linecap="round" stroke-linejoin="round" stroke-miterlimit="10" d="
						M129.467,73.521c5.559-10.113,15.6-14.643,24.676-15.076c9.078-0.432,17.346,3.544,22.725,10.045l4.398-3.356
						c-3.789-11.583-14.949-19.694-27.711-19.086c-12.766,0.606-24.863,10.278-26.799,25.843L129.467,73.521z"/>
				</g>
				<g>
					
						<path fill="#FAC108" stroke="#FAC108" stroke-width="0.3306" stroke-linecap="round" stroke-linejoin="round" stroke-miterlimit="10" d="
						M126.756,71.89c1.793-15.06,13.365-25.204,26.799-25.843c12.762-0.608,23.922,7.503,27.711,19.086l-1.895,1.445
						c-4.998-8.841-14.676-14.605-25.512-14.09s-22.635,9.509-25.879,20.14L126.756,71.89z"/>
				</g>
			</g>
			<g>
				<g>
					
						<path fill="#FFD607" stroke="#FFD607" stroke-width="0.3306" stroke-linecap="round" stroke-linejoin="round" stroke-miterlimit="10" d="
						M134.09,94.383c1.014-11.497,8.383-19.685,16.518-23.735c8.137-4.05,17.305-3.738,24.846,0.047l2.678-4.842
						c-8.133-9.078-21.613-12.011-33.053-6.317c-11.439,5.695-18.621,19.416-14.129,34.443L134.09,94.383z"/>
				</g>
				<g>
					
						<path fill="#FAC108" stroke="#FAC108" stroke-width="0.3306" stroke-linecap="round" stroke-linejoin="round" stroke-miterlimit="10" d="
						M130.949,93.979c-4.418-14.508,2.088-28.45,14.129-34.443c11.439-5.693,24.92-2.761,33.053,6.317l-1.154,2.087
						c-8.133-6.082-19.312-7.464-29.025-2.631c-9.711,4.834-16.895,17.816-15.582,28.854L130.949,93.979z"/>
				</g>
			</g>
			<g>
				
					<path fill="#FAC108" stroke="#FAC108" stroke-width="0.3306" stroke-linecap="round" stroke-linejoin="round" stroke-miterlimit="10" d="
					M147.998,49.848"/>
			</g>
			<g>
				<g>
					
						<polygon fill="#604C3F" stroke="#604C3F" stroke-width="0.314" stroke-linecap="round" stroke-linejoin="round" stroke-miterlimit="10" points="
						176.209,72.137 180.947,71.173 180.848,73.992 177.404,74.692 					"/>
				</g>
				<g>
					
						<polygon fill="#786854" stroke="#786854" stroke-width="0.314" stroke-linecap="round" stroke-linejoin="round" stroke-miterlimit="10" points="
						176.209,72.137 177.404,74.692 180.848,73.992 					"/>
				</g>
			</g>
			<g>
				
					<path fill="#FFD607" stroke="#FFD607" stroke-width="0.3306" stroke-linecap="round" stroke-linejoin="round" stroke-miterlimit="10" d="
					M130.682,54.552c9.404-6.688,20.416-6.402,28.777-2.844c8.361,3.56,14.076,10.735,16.094,18.929l5.42-1.107
					c1.627-12.079-4.895-24.236-16.654-29.239c-11.758-5.006-26.855-1.561-35.369,11.612L130.682,54.552z"/>
			</g>
			<g>
				
					<path fill="#FAC108" stroke="#FAC108" stroke-width="0.3306" stroke-linecap="round" stroke-linejoin="round" stroke-miterlimit="10" d="
					M128.949,51.902c8.166-12.782,22.996-16.882,35.369-11.612c11.76,5.003,18.281,17.16,16.654,29.239l-2.336,0.476
					c-0.654-10.132-6.861-19.534-16.842-23.783s-24.52-1.284-32.062,6.878L128.949,51.902z"/>
			</g>
			<g>
				
					<path fill="#FAC108" stroke="#FAC108" stroke-width="0.3306" stroke-linecap="round" stroke-linejoin="round" stroke-miterlimit="10" d="
					M143.174,69.698"/>
			</g>
		</g>
		<g>
			<g>
				<g>
					
						<path fill="#FFD607" stroke="#FFD607" stroke-width="0.3306" stroke-linecap="round" stroke-linejoin="round" stroke-miterlimit="10" d="
						M156.721,73.521c5.559-10.113,15.602-14.643,24.678-15.076c9.078-0.432,17.344,3.544,22.725,10.045l4.398-3.356
						c-3.789-11.583-14.951-19.694-27.713-19.086c-12.766,0.606-24.861,10.278-26.799,25.843L156.721,73.521z"/>
				</g>
				<g>
					
						<path fill="#FAC108" stroke="#FAC108" stroke-width="0.3306" stroke-linecap="round" stroke-linejoin="round" stroke-miterlimit="10" d="
						M154.01,71.89c1.795-15.06,13.365-25.204,26.799-25.843c12.762-0.608,23.924,7.503,27.713,19.086l-1.895,1.445
						c-4.998-8.841-14.676-14.605-25.512-14.09s-22.637,9.509-25.879,20.14L154.01,71.89z"/>
				</g>
			</g>
			<g>
				<g>
					
						<path fill="#FFD607" stroke="#FFD607" stroke-width="0.3306" stroke-linecap="round" stroke-linejoin="round" stroke-miterlimit="10" d="
						M161.344,94.383c1.016-11.497,8.385-19.685,16.52-23.735c8.137-4.05,17.303-3.738,24.846,0.047l2.676-4.842
						c-8.131-9.078-21.611-12.011-33.051-6.317c-11.441,5.695-18.623,19.416-14.129,34.443L161.344,94.383z"/>
				</g>
				<g>
					
						<path fill="#FAC108" stroke="#FAC108" stroke-width="0.3306" stroke-linecap="round" stroke-linejoin="round" stroke-miterlimit="10" d="
						M158.205,93.979c-4.42-14.508,2.088-28.45,14.129-34.443c11.439-5.693,24.92-2.761,33.051,6.317l-1.152,2.087
						c-8.133-6.082-19.314-7.464-29.025-2.631c-9.713,4.834-16.896,17.816-15.584,28.854L158.205,93.979z"/>
				</g>
			</g>
			<g>
				
					<path fill="#FAC108" stroke="#FAC108" stroke-width="0.3306" stroke-linecap="round" stroke-linejoin="round" stroke-miterlimit="10" d="
					M175.256,49.848"/>
			</g>
			<g>
				<g>
					
						<polygon fill="#604C3F" stroke="#604C3F" stroke-width="0.314" stroke-linecap="round" stroke-linejoin="round" stroke-miterlimit="10" points="
						203.463,72.137 208.203,71.173 208.1,73.992 204.66,74.692 					"/>
				</g>
				<g>
					
						<polygon fill="#786854" stroke="#786854" stroke-width="0.314" stroke-linecap="round" stroke-linejoin="round" stroke-miterlimit="10" points="
						203.463,72.137 204.66,74.692 208.1,73.992 					"/>
				</g>
			</g>
			<g>
				
					<path fill="#FFD607" stroke="#FFD607" stroke-width="0.3306" stroke-linecap="round" stroke-linejoin="round" stroke-miterlimit="10" d="
					M157.936,54.552c9.404-6.688,20.418-6.402,28.779-2.844c8.361,3.56,14.074,10.735,16.092,18.929l5.422-1.107
					c1.625-12.079-4.896-24.236-16.652-29.239c-11.76-5.006-26.857-1.561-35.371,11.612L157.936,54.552z"/>
			</g>
			<g>
				
					<path fill="#FAC108" stroke="#FAC108" stroke-width="0.3306" stroke-linecap="round" stroke-linejoin="round" stroke-miterlimit="10" d="
					M156.205,51.902c8.166-12.782,22.994-16.882,35.371-11.612c11.756,5.003,18.277,17.16,16.652,29.239l-2.338,0.476
					c-0.652-10.132-6.861-19.534-16.84-23.783c-9.982-4.249-24.52-1.284-32.062,6.878L156.205,51.902z"/>
			</g>
			<g>
				
					<path fill="#FAC108" stroke="#FAC108" stroke-width="0.3306" stroke-linecap="round" stroke-linejoin="round" stroke-miterlimit="10" d="
					M170.43,69.698"/>
			</g>
		</g>
		<g>
			<g>
				<g>
					
						<path fill="#FFD607" stroke="#FFD607" stroke-width="0.3306" stroke-linecap="round" stroke-linejoin="round" stroke-miterlimit="10" d="
						M194.582,32.705c-6.904,9.247-17.475,12.345-26.525,11.515c-9.049-0.828-16.686-5.909-21.113-13.094l-4.822,2.716
						c2.148,11.997,12.08,21.573,24.803,22.738c12.727,1.166,26.047-6.736,30.119-21.883L194.582,32.705z"/>
				</g>
				<g>
					
						<path fill="#FAC108" stroke="#FAC108" stroke-width="0.3306" stroke-linecap="round" stroke-linejoin="round" stroke-miterlimit="10" d="
						M197.043,34.697c-3.863,14.665-16.725,23.11-30.119,21.883c-12.723-1.165-22.654-10.741-24.803-22.738l2.078-1.17
						c3.725,9.447,12.51,16.498,23.314,17.486c10.803,0.99,23.734-6.282,28.418-16.363L197.043,34.697z"/>
				</g>
			</g>
			<g>
				<g>
					
						<path fill="#FFD607" stroke="#FFD607" stroke-width="0.3306" stroke-linecap="round" stroke-linejoin="round" stroke-miterlimit="10" d="
						M192.895,11.404c-2.598,11.247-11.029,18.335-19.646,21.219c-8.619,2.885-17.654,1.308-24.6-3.485l-3.322,4.427
						c6.799,10.115,19.742,14.886,31.859,10.83c12.119-4.055,21.131-16.65,18.762-32.154L192.895,11.404z"/>
				</g>
				<g>
					
						<path fill="#FAC108" stroke="#FAC108" stroke-width="0.3306" stroke-linecap="round" stroke-linejoin="round" stroke-miterlimit="10" d="
						M195.947,12.24c2.367,14.979-6.008,27.887-18.762,32.154c-12.117,4.056-25.061-0.715-31.859-10.83l1.432-1.909
						c7.213,7.149,18.096,10.067,28.383,6.625c10.287-3.444,19.199-15.306,19.428-26.417L195.947,12.24z"/>
				</g>
			</g>
			<g>
				
					<path fill="#FAC108" stroke="#FAC108" stroke-width="0.3306" stroke-linecap="round" stroke-linejoin="round" stroke-miterlimit="10" d="
					M172.951,53.586"/>
			</g>
			<g>
				<g>
					
						<polygon fill="#604C3F" stroke="#604C3F" stroke-width="0.314" stroke-linecap="round" stroke-linejoin="round" stroke-miterlimit="10" points="
						148.102,27.605 143.275,27.904 143.764,25.126 147.27,24.908 					"/>
				</g>
				<g>
					
						<polygon fill="#786854" stroke="#786854" stroke-width="0.314" stroke-linecap="round" stroke-linejoin="round" stroke-miterlimit="10" points="
						148.102,27.605 147.27,24.908 143.764,25.126 					"/>
				</g>
			</g>
			<g>
				
					<path fill="#FFD607" stroke="#FFD607" stroke-width="0.3306" stroke-linecap="round" stroke-linejoin="round" stroke-miterlimit="10" d="
					M190.756,51.324c-10.24,5.323-21.107,3.514-28.896-1.169c-7.787-4.683-12.453-12.58-13.316-20.974l-5.521,0.347
					c-3.283,11.737,1.492,24.681,12.443,31.263c10.953,6.586,26.383,5.264,36.637-6.604L190.756,51.324z"/>
			</g>
			<g>
				
					<path fill="#FAC108" stroke="#FAC108" stroke-width="0.3306" stroke-linecap="round" stroke-linejoin="round" stroke-miterlimit="10" d="
					M192.102,54.188c-9.855,11.527-25.109,13.536-36.637,6.604c-10.951-6.582-15.727-19.525-12.443-31.263l2.381-0.148
					c-0.758,10.124,4.09,20.297,13.385,25.886c9.299,5.591,24.107,4.667,32.705-2.372L192.102,54.188z"/>
			</g>
			<g>
				
					<path fill="#FAC108" stroke="#FAC108" stroke-width="0.3306" stroke-linecap="round" stroke-linejoin="round" stroke-miterlimit="10" d="
					M180.479,34.594"/>
			</g>
		</g>
		<g>
			<g>
				<g>
					
						<path fill="#FFD607" stroke="#FFD607" stroke-width="0.3306" stroke-linecap="round" stroke-linejoin="round" stroke-miterlimit="10" d="
						M321.549,33.262c-6.906,9.248-17.477,12.345-26.525,11.516c-9.051-0.828-16.686-5.91-21.115-13.094l-4.82,2.717
						c2.148,11.995,12.078,21.573,24.803,22.737c12.725,1.166,26.045-6.737,30.119-21.884L321.549,33.262z"/>
				</g>
				<g>
					
						<path fill="#FAC108" stroke="#FAC108" stroke-width="0.3306" stroke-linecap="round" stroke-linejoin="round" stroke-miterlimit="10" d="
						M324.01,35.254c-3.863,14.666-16.727,23.111-30.119,21.884c-12.725-1.164-22.654-10.742-24.803-22.737l2.076-1.171
						c3.725,9.446,12.512,16.497,23.316,17.487c10.803,0.989,23.734-6.284,28.416-16.364L324.01,35.254z"/>
				</g>
			</g>
			<g>
				<g>
					
						<path fill="#FFD607" stroke="#FFD607" stroke-width="0.3306" stroke-linecap="round" stroke-linejoin="round" stroke-miterlimit="10" d="
						M319.859,11.962c-2.596,11.247-11.029,18.333-19.646,21.22c-8.617,2.883-17.654,1.306-24.6-3.487l-3.32,4.426
						c6.797,10.116,19.74,14.886,31.859,10.83c12.119-4.055,21.129-16.649,18.76-32.153L319.859,11.962z"/>
				</g>
				<g>
					
						<path fill="#FAC108" stroke="#FAC108" stroke-width="0.3306" stroke-linecap="round" stroke-linejoin="round" stroke-miterlimit="10" d="
						M322.912,12.798c2.369,14.979-6.006,27.887-18.76,32.153c-12.119,4.056-25.062-0.714-31.859-10.83l1.432-1.908
						c7.211,7.15,18.094,10.066,28.381,6.625c10.287-3.444,19.199-15.307,19.428-26.418L322.912,12.798z"/>
				</g>
			</g>
			<g>
				
					<path fill="#FAC108" stroke="#FAC108" stroke-width="0.3306" stroke-linecap="round" stroke-linejoin="round" stroke-miterlimit="10" d="
					M299.918,54.143"/>
			</g>
			<g>
				<g>
					
						<polygon fill="#604C3F" stroke="#604C3F" stroke-width="0.314" stroke-linecap="round" stroke-linejoin="round" stroke-miterlimit="10" points="
						275.066,28.163 270.238,28.461 270.73,25.683 274.236,25.466 					"/>
				</g>
				<g>
					
						<polygon fill="#786854" stroke="#786854" stroke-width="0.314" stroke-linecap="round" stroke-linejoin="round" stroke-miterlimit="10" points="
						275.066,28.163 274.236,25.466 270.73,25.683 					"/>
				</g>
			</g>
			<g>
				
					<path fill="#FFD607" stroke="#FFD607" stroke-width="0.3306" stroke-linecap="round" stroke-linejoin="round" stroke-miterlimit="10" d="
					M317.721,51.881c-10.24,5.323-21.107,3.515-28.896-1.167c-7.787-4.684-12.451-12.581-13.314-20.975l-5.523,0.346
					c-3.283,11.738,1.494,24.682,12.443,31.264c10.953,6.586,26.385,5.264,36.639-6.604L317.721,51.881z"/>
			</g>
			<g>
				
					<path fill="#FAC108" stroke="#FAC108" stroke-width="0.3306" stroke-linecap="round" stroke-linejoin="round" stroke-miterlimit="10" d="
					M319.068,54.745c-9.857,11.527-25.111,13.536-36.639,6.604c-10.949-6.582-15.727-19.525-12.443-31.264l2.381-0.148
					c-0.756,10.125,4.09,20.298,13.385,25.886c9.297,5.592,24.107,4.668,32.705-2.371L319.068,54.745z"/>
			</g>
			<g>
				
					<path fill="#FAC108" stroke="#FAC108" stroke-width="0.3306" stroke-linecap="round" stroke-linejoin="round" stroke-miterlimit="10" d="
					M307.445,35.151"/>
			</g>
		</g>
		<g>
			<g>
				<g>
					
						<path fill="#FFD607" stroke="#FFD607" stroke-width="0.3306" stroke-linecap="round" stroke-linejoin="round" stroke-miterlimit="10" d="
						M237.004,22.446c-1.836,11.393-9.77,19.037-18.172,22.495c-8.404,3.46-17.525,2.493-24.777-1.82l-3.014,4.641
						c7.463,9.635,20.699,13.521,32.514,8.658c11.818-4.863,19.959-18.039,16.551-33.349L237.004,22.446z"/>
				</g>
				<g>
					
						<path fill="#FAC108" stroke="#FAC108" stroke-width="0.3306" stroke-linecap="round" stroke-linejoin="round" stroke-miterlimit="10" d="
						M240.105,23.07c3.371,14.786-4.113,28.23-16.551,33.349c-11.814,4.862-25.051,0.977-32.514-8.658l1.299-1.998
						c7.678,6.645,18.73,8.821,28.762,4.691c10.033-4.128,18.121-16.564,17.602-27.667L240.105,23.07z"/>
				</g>
			</g>
			<g>
				<g>
					
						<path fill="#FFD607" stroke="#FFD607" stroke-width="0.3306" stroke-linecap="round" stroke-linejoin="round" stroke-miterlimit="10" d="
						M225.637,4.352c2.91,11.17-1.279,21.357-7.578,27.908c-6.301,6.548-15.039,9.337-23.414,8.308l-0.893,5.461
						c10.709,5.815,24.391,4.045,33.252-5.164c8.859-9.208,11.01-24.544,1.725-37.187L225.637,4.352z"/>
				</g>
				<g>
					
						<path fill="#FAC108" stroke="#FAC108" stroke-width="0.3306" stroke-linecap="round" stroke-linejoin="round" stroke-miterlimit="10" d="
						M228.729,3.678c9.041,12.177,7.6,27.496-1.725,37.187c-8.861,9.209-22.543,10.979-33.252,5.164l0.385-2.354
						c9.701,2.996,20.697,0.538,28.219-7.279c7.521-7.818,9.922-22.459,4.977-32.412L228.729,3.678z"/>
				</g>
			</g>
			<g>
				
					<path fill="#FAC108" stroke="#FAC108" stroke-width="0.3306" stroke-linecap="round" stroke-linejoin="round" stroke-miterlimit="10" d="
					M227.51,50.972"/>
			</g>
			<g>
				<g>
					
						<polygon fill="#604C3F" stroke="#604C3F" stroke-width="0.314" stroke-linecap="round" stroke-linejoin="round" stroke-miterlimit="10" points="
						193.449,39.463 189.309,41.965 188.457,39.274 191.463,37.458 					"/>
				</g>
				<g>
					
						<polygon fill="#786854" stroke="#786854" stroke-width="0.314" stroke-linecap="round" stroke-linejoin="round" stroke-miterlimit="10" points="
						193.449,39.463 191.463,37.458 188.457,39.274 					"/>
				</g>
			</g>
			<g>
				
					<path fill="#FFD607" stroke="#FFD607" stroke-width="0.3306" stroke-linecap="round" stroke-linejoin="round" stroke-miterlimit="10" d="
					M242.236,40.719c-6.607,9.463-17.074,12.894-26.146,12.353c-9.072-0.539-16.865-5.378-21.518-12.416l-4.734,2.865
					c2.529,11.924,12.758,21.181,25.512,21.939c12.758,0.762,25.82-7.56,29.408-22.828L242.236,40.719z"/>
			</g>
			<g>
				
					<path fill="#FAC108" stroke="#FAC108" stroke-width="0.3306" stroke-linecap="round" stroke-linejoin="round" stroke-miterlimit="10" d="
					M244.758,42.632c-3.393,14.783-15.98,23.631-29.408,22.828c-12.754-0.759-22.982-10.016-25.512-21.939l2.039-1.233
					c4.023,9.323,13.029,16.092,23.857,16.736c10.83,0.646,23.525-7.033,27.883-17.255L244.758,42.632z"/>
			</g>
			<g>
				
					<path fill="#FAC108" stroke="#FAC108" stroke-width="0.3306" stroke-linecap="round" stroke-linejoin="round" stroke-miterlimit="10" d="
					M225.379,30.653"/>
			</g>
		</g>
		
			<rect x="124.965" y="65.016" fill="#F1D9BD" stroke="#F1D9BD" stroke-width="0.1633" stroke-miterlimit="10" width="84.207" height="45.599"/>
		
			<rect x="124.965" y="65.016" opacity="0.5" fill="#DCBB9A" stroke="#DCBB9A" stroke-width="0.1633" stroke-miterlimit="10" width="42.953" height="45.599"/>
		
			<path fill="#86725F" stroke="#DCBB9A" stroke-width="0.1735" stroke-linecap="round" stroke-linejoin="round" stroke-miterlimit="10" d="
			M180.129,87.813c0,2.564-2.08,4.643-4.643,4.643h-16.834c-2.564,0-4.643-2.078-4.643-4.643l0,0c0-2.562,2.078-4.64,4.643-4.64
			h16.834C178.049,83.174,180.129,85.252,180.129,87.813L180.129,87.813z"/>
		
			<rect x="124.965" y="110.564" fill="#F1D9BD" stroke="#F1D9BD" stroke-width="0.1633" stroke-miterlimit="10" width="84.207" height="45.598"/>
		
			<rect x="124.965" y="110.564" opacity="0.5" fill="#DCBB9A" stroke="#DCBB9A" stroke-width="0.1633" stroke-miterlimit="10" width="42.953" height="45.598"/>
		
			<path fill="#86725F" stroke="#DCBB9A" stroke-width="0.1735" stroke-linecap="round" stroke-linejoin="round" stroke-miterlimit="10" d="
			M180.129,133.363c0,2.564-2.08,4.641-4.643,4.641h-16.834c-2.564,0-4.643-2.076-4.643-4.641l0,0c0-2.563,2.078-4.642,4.643-4.642
			h16.834C178.049,128.722,180.129,130.8,180.129,133.363L180.129,133.363z"/>
		<g>
			<g>
				<g>
					
						<path fill="#FFD607" stroke="#FFD607" stroke-width="0.3306" stroke-linecap="round" stroke-linejoin="round" stroke-miterlimit="10" d="
						M213.674,73.521c5.559-10.113,15.6-14.643,24.678-15.076c9.078-0.432,17.344,3.544,22.723,10.045l4.398-3.356
						c-3.787-11.583-14.949-19.694-27.713-19.086c-12.764,0.606-24.859,10.278-26.797,25.843L213.674,73.521z"/>
				</g>
				<g>
					
						<path fill="#FAC108" stroke="#FAC108" stroke-width="0.3306" stroke-linecap="round" stroke-linejoin="round" stroke-miterlimit="10" d="
						M210.963,71.89c1.795-15.06,13.365-25.204,26.797-25.843c12.764-0.608,23.926,7.503,27.713,19.086l-1.895,1.445
						c-4.998-8.841-14.674-14.605-25.51-14.09c-10.838,0.516-22.637,9.509-25.879,20.14L210.963,71.89z"/>
				</g>
			</g>
			<g>
				<g>
					
						<path fill="#FFD607" stroke="#FFD607" stroke-width="0.3306" stroke-linecap="round" stroke-linejoin="round" stroke-miterlimit="10" d="
						M218.297,94.383c1.016-11.497,8.385-19.685,16.52-23.735c8.135-4.05,17.303-3.738,24.844,0.047l2.678-4.842
						c-8.131-9.078-21.611-12.011-33.053-6.317c-11.439,5.695-18.621,19.416-14.129,34.443L218.297,94.383z"/>
				</g>
				<g>
					
						<path fill="#FAC108" stroke="#FAC108" stroke-width="0.3306" stroke-linecap="round" stroke-linejoin="round" stroke-miterlimit="10" d="
						M215.156,93.979c-4.42-14.508,2.088-28.45,14.129-34.443c11.441-5.693,24.922-2.761,33.053,6.317l-1.152,2.087
						c-8.133-6.082-19.314-7.464-29.027-2.631c-9.711,4.834-16.895,17.816-15.584,28.854L215.156,93.979z"/>
				</g>
			</g>
			<g>
				
					<path fill="#FAC108" stroke="#FAC108" stroke-width="0.3306" stroke-linecap="round" stroke-linejoin="round" stroke-miterlimit="10" d="
					M232.207,49.848"/>
			</g>
			<g>
				<g>
					
						<polygon fill="#604C3F" stroke="#604C3F" stroke-width="0.314" stroke-linecap="round" stroke-linejoin="round" stroke-miterlimit="10" points="
						260.418,72.137 265.154,71.173 265.053,73.992 261.611,74.692 					"/>
				</g>
				<g>
					
						<polygon fill="#786854" stroke="#786854" stroke-width="0.314" stroke-linecap="round" stroke-linejoin="round" stroke-miterlimit="10" points="
						260.418,72.137 261.611,74.692 265.053,73.992 					"/>
				</g>
			</g>
			<g>
				
					<path fill="#FFD607" stroke="#FFD607" stroke-width="0.3306" stroke-linecap="round" stroke-linejoin="round" stroke-miterlimit="10" d="
					M214.889,54.552c9.404-6.688,20.418-6.402,28.777-2.844c8.361,3.56,14.076,10.735,16.092,18.929l5.424-1.107
					c1.627-12.079-4.896-24.236-16.652-29.239c-11.76-5.006-26.857-1.561-35.371,11.612L214.889,54.552z"/>
			</g>
			<g>
				
					<path fill="#FAC108" stroke="#FAC108" stroke-width="0.3306" stroke-linecap="round" stroke-linejoin="round" stroke-miterlimit="10" d="
					M213.158,51.902c8.166-12.782,22.994-16.882,35.371-11.612c11.756,5.003,18.279,17.16,16.652,29.239l-2.338,0.476
					c-0.654-10.132-6.861-19.534-16.842-23.783c-9.982-4.249-24.52-1.284-32.062,6.878L213.158,51.902z"/>
			</g>
			<g>
				
					<path fill="#FAC108" stroke="#FAC108" stroke-width="0.3306" stroke-linecap="round" stroke-linejoin="round" stroke-miterlimit="10" d="
					M227.381,69.698"/>
			</g>
		</g>
		<g>
			<g>
				<g>
					
						<path fill="#FFD607" stroke="#FFD607" stroke-width="0.3306" stroke-linecap="round" stroke-linejoin="round" stroke-miterlimit="10" d="
						M240.93,73.521c5.559-10.113,15.6-14.643,24.676-15.076c9.078-0.432,17.344,3.544,22.725,10.045l4.398-3.356
						c-3.789-11.583-14.949-19.694-27.713-19.086c-12.764,0.606-24.861,10.278-26.797,25.843L240.93,73.521z"/>
				</g>
				<g>
					
						<path fill="#FAC108" stroke="#FAC108" stroke-width="0.3306" stroke-linecap="round" stroke-linejoin="round" stroke-miterlimit="10" d="
						M238.219,71.89c1.795-15.06,13.363-25.204,26.797-25.843c12.764-0.608,23.924,7.503,27.713,19.086l-1.896,1.445
						c-4.996-8.841-14.674-14.605-25.51-14.09s-22.637,9.509-25.879,20.14L238.219,71.89z"/>
				</g>
			</g>
			<g>
				<g>
					
						<path fill="#FFD607" stroke="#FFD607" stroke-width="0.3306" stroke-linecap="round" stroke-linejoin="round" stroke-miterlimit="10" d="
						M245.553,94.383c1.014-11.497,8.383-19.685,16.518-23.735c8.137-4.05,17.305-3.738,24.846,0.047l2.676-4.842
						c-8.131-9.078-21.611-12.011-33.051-6.317C245.1,65.23,237.92,78.951,242.412,93.979L245.553,94.383z"/>
				</g>
				<g>
					
						<path fill="#FAC108" stroke="#FAC108" stroke-width="0.3306" stroke-linecap="round" stroke-linejoin="round" stroke-miterlimit="10" d="
						M242.412,93.979c-4.418-14.508,2.088-28.45,14.129-34.443c11.439-5.693,24.92-2.761,33.051,6.317l-1.152,2.087
						c-8.133-6.082-19.314-7.464-29.025-2.631c-9.711,4.834-16.895,17.816-15.584,28.854L242.412,93.979z"/>
				</g>
			</g>
			<g>
				
					<path fill="#FAC108" stroke="#FAC108" stroke-width="0.3306" stroke-linecap="round" stroke-linejoin="round" stroke-miterlimit="10" d="
					M259.461,49.848"/>
			</g>
			<g>
				<g>
					
						<polygon fill="#604C3F" stroke="#604C3F" stroke-width="0.314" stroke-linecap="round" stroke-linejoin="round" stroke-miterlimit="10" points="
						287.672,72.137 292.41,71.173 292.309,73.992 288.867,74.692 					"/>
				</g>
				<g>
					
						<polygon fill="#786854" stroke="#786854" stroke-width="0.314" stroke-linecap="round" stroke-linejoin="round" stroke-miterlimit="10" points="
						287.672,72.137 288.867,74.692 292.309,73.992 					"/>
				</g>
			</g>
			<g>
				
					<path fill="#FFD607" stroke="#FFD607" stroke-width="0.3306" stroke-linecap="round" stroke-linejoin="round" stroke-miterlimit="10" d="
					M242.145,54.552c9.404-6.688,20.416-6.402,28.777-2.844c8.361,3.56,14.076,10.735,16.094,18.929l5.42-1.107
					c1.627-12.079-4.895-24.236-16.654-29.239c-11.758-5.006-26.855-1.561-35.369,11.612L242.145,54.552z"/>
			</g>
			<g>
				
					<path fill="#FAC108" stroke="#FAC108" stroke-width="0.3306" stroke-linecap="round" stroke-linejoin="round" stroke-miterlimit="10" d="
					M240.412,51.902c8.166-12.782,22.996-16.882,35.369-11.612c11.76,5.003,18.281,17.16,16.654,29.239l-2.336,0.476
					c-0.654-10.132-6.861-19.534-16.844-23.783c-9.979-4.249-24.52-1.284-32.061,6.878L240.412,51.902z"/>
			</g>
			<g>
				
					<path fill="#FAC108" stroke="#FAC108" stroke-width="0.3306" stroke-linecap="round" stroke-linejoin="round" stroke-miterlimit="10" d="
					M254.637,69.698"/>
			</g>
		</g>
		
			<rect x="209.172" y="65.016" fill="#F1D9BD" stroke="#F1D9BD" stroke-width="0.1633" stroke-miterlimit="10" width="84.209" height="45.599"/>
		
			<rect x="209.172" y="65.016" opacity="0.5" fill="#DCBB9A" stroke="#DCBB9A" stroke-width="0.1633" stroke-miterlimit="10" width="42.953" height="45.599"/>
		
			<path fill="#86725F" stroke="#DCBB9A" stroke-width="0.1735" stroke-linecap="round" stroke-linejoin="round" stroke-miterlimit="10" d="
			M264.334,87.813c0,2.564-2.078,4.643-4.639,4.643h-16.836c-2.562,0-4.641-2.078-4.641-4.643l0,0c0-2.562,2.078-4.64,4.641-4.64
			h16.836C262.256,83.174,264.334,85.252,264.334,87.813L264.334,87.813z"/>
		
			<rect x="209.172" y="110.564" fill="#F1D9BD" stroke="#F1D9BD" stroke-width="0.1633" stroke-miterlimit="10" width="84.209" height="45.598"/>
		
			<rect x="209.172" y="110.564" opacity="0.5" fill="#DCBB9A" stroke="#DCBB9A" stroke-width="0.1633" stroke-miterlimit="10" width="42.953" height="45.598"/>
		
			<path fill="#86725F" stroke="#DCBB9A" stroke-width="0.1735" stroke-linecap="round" stroke-linejoin="round" stroke-miterlimit="10" d="
			M264.334,133.363c0,2.564-2.078,4.641-4.639,4.641h-16.836c-2.562,0-4.641-2.076-4.641-4.641l0,0c0-2.563,2.078-4.642,4.641-4.642
			h16.836C262.256,128.722,264.334,130.8,264.334,133.363L264.334,133.363z"/>
		<g>
			<g>
				<g>
					
						<path fill="#FFD607" stroke="#FFD607" stroke-width="0.3306" stroke-linecap="round" stroke-linejoin="round" stroke-miterlimit="10" d="
						M297.883,73.521c5.559-10.113,15.6-14.643,24.676-15.076c9.078-0.432,17.344,3.544,22.725,10.045l4.398-3.356
						c-3.791-11.583-14.951-19.694-27.713-19.086c-12.766,0.606-24.861,10.278-26.797,25.843L297.883,73.521z"/>
				</g>
				<g>
					
						<path fill="#FAC108" stroke="#FAC108" stroke-width="0.3306" stroke-linecap="round" stroke-linejoin="round" stroke-miterlimit="10" d="
						M295.172,71.89c1.793-15.06,13.361-25.204,26.797-25.843c12.762-0.608,23.922,7.503,27.713,19.086l-1.896,1.445
						c-4.996-8.841-14.674-14.605-25.51-14.09s-22.637,9.509-25.879,20.14L295.172,71.89z"/>
				</g>
			</g>
			<g>
				<g>
					
						<path fill="#FFD607" stroke="#FFD607" stroke-width="0.3306" stroke-linecap="round" stroke-linejoin="round" stroke-miterlimit="10" d="
						M302.504,94.383c1.016-11.497,8.385-19.685,16.52-23.735c8.137-4.05,17.303-3.738,24.844,0.047l2.678-4.842
						c-8.133-9.078-21.613-12.011-33.051-6.317c-11.439,5.695-18.623,19.416-14.129,34.443L302.504,94.383z"/>
				</g>
				<g>
					
						<path fill="#FAC108" stroke="#FAC108" stroke-width="0.3306" stroke-linecap="round" stroke-linejoin="round" stroke-miterlimit="10" d="
						M299.365,93.979c-4.42-14.508,2.088-28.45,14.129-34.443c11.438-5.693,24.918-2.761,33.051,6.317l-1.152,2.087
						c-8.133-6.082-19.314-7.464-29.027-2.631c-9.709,4.834-16.893,17.816-15.582,28.854L299.365,93.979z"/>
				</g>
			</g>
			<g>
				
					<path fill="#FAC108" stroke="#FAC108" stroke-width="0.3306" stroke-linecap="round" stroke-linejoin="round" stroke-miterlimit="10" d="
					M316.414,49.848"/>
			</g>
			<g>
				<g>
					
						<polygon fill="#604C3F" stroke="#604C3F" stroke-width="0.314" stroke-linecap="round" stroke-linejoin="round" stroke-miterlimit="10" points="
						344.623,72.137 349.363,71.173 349.26,73.992 345.82,74.692 					"/>
				</g>
				<g>
					
						<polygon fill="#786854" stroke="#786854" stroke-width="0.314" stroke-linecap="round" stroke-linejoin="round" stroke-miterlimit="10" points="
						344.623,72.137 345.82,74.692 349.26,73.992 					"/>
				</g>
			</g>
			<g>
				
					<path fill="#FFD607" stroke="#FFD607" stroke-width="0.3306" stroke-linecap="round" stroke-linejoin="round" stroke-miterlimit="10" d="
					M299.096,54.552c9.404-6.688,20.418-6.402,28.779-2.844c8.361,3.56,14.074,10.735,16.092,18.929l5.42-1.107
					c1.629-12.079-4.895-24.236-16.652-29.239c-11.758-5.006-26.857-1.561-35.369,11.612L299.096,54.552z"/>
			</g>
			<g>
				
					<path fill="#FAC108" stroke="#FAC108" stroke-width="0.3306" stroke-linecap="round" stroke-linejoin="round" stroke-miterlimit="10" d="
					M297.365,51.902c8.166-12.782,22.994-16.882,35.369-11.612c11.758,5.003,18.281,17.16,16.652,29.239l-2.334,0.476
					c-0.654-10.132-6.861-19.534-16.842-23.783c-9.982-4.249-24.521-1.284-32.062,6.878L297.365,51.902z"/>
			</g>
			<g>
				
					<path fill="#FAC108" stroke="#FAC108" stroke-width="0.3306" stroke-linecap="round" stroke-linejoin="round" stroke-miterlimit="10" d="
					M311.59,69.698"/>
			</g>
		</g>
		<g>
			<g>
				<g>
					
						<path fill="#FFD607" stroke="#FFD607" stroke-width="0.3306" stroke-linecap="round" stroke-linejoin="round" stroke-miterlimit="10" d="
						M325.137,73.521c5.559-10.113,15.6-14.643,24.676-15.076c9.078-0.432,17.344,3.544,22.725,10.045l4.398-3.356
						c-3.789-11.583-14.949-19.694-27.713-19.086c-12.764,0.606-24.859,10.278-26.797,25.843L325.137,73.521z"/>
				</g>
				<g>
					
						<path fill="#FAC108" stroke="#FAC108" stroke-width="0.3306" stroke-linecap="round" stroke-linejoin="round" stroke-miterlimit="10" d="
						M322.426,71.89c1.795-15.06,13.363-25.204,26.797-25.843c12.764-0.608,23.924,7.503,27.713,19.086l-1.895,1.445
						c-4.998-8.841-14.676-14.605-25.51-14.09c-10.838,0.516-22.637,9.509-25.879,20.14L322.426,71.89z"/>
				</g>
			</g>
			<g>
				<g>
					
						<path fill="#FFD607" stroke="#FFD607" stroke-width="0.3306" stroke-linecap="round" stroke-linejoin="round" stroke-miterlimit="10" d="
						M329.76,94.383c1.016-11.497,8.385-19.685,16.52-23.735c8.135-4.05,17.303-3.738,24.844,0.047l2.676-4.842
						c-8.131-9.078-21.611-12.011-33.051-6.317c-11.439,5.695-18.621,19.416-14.129,34.443L329.76,94.383z"/>
				</g>
				<g>
					
						<path fill="#FAC108" stroke="#FAC108" stroke-width="0.3306" stroke-linecap="round" stroke-linejoin="round" stroke-miterlimit="10" d="
						M326.619,93.979c-4.42-14.508,2.088-28.45,14.129-34.443c11.439-5.693,24.92-2.761,33.051,6.317l-1.152,2.087
						c-8.131-6.082-19.314-7.464-29.025-2.631c-9.711,4.834-16.895,17.816-15.584,28.854L326.619,93.979z"/>
				</g>
			</g>
			<g>
				
					<path fill="#FAC108" stroke="#FAC108" stroke-width="0.3306" stroke-linecap="round" stroke-linejoin="round" stroke-miterlimit="10" d="
					M343.67,49.848"/>
			</g>
			<g>
				<g>
					
						<polygon fill="#604C3F" stroke="#604C3F" stroke-width="0.314" stroke-linecap="round" stroke-linejoin="round" stroke-miterlimit="10" points="
						371.879,72.137 376.617,71.173 376.516,73.992 373.076,74.692 					"/>
				</g>
				<g>
					
						<polygon fill="#786854" stroke="#786854" stroke-width="0.314" stroke-linecap="round" stroke-linejoin="round" stroke-miterlimit="10" points="
						371.879,72.137 373.076,74.692 376.516,73.992 					"/>
				</g>
			</g>
			<g>
				
					<path fill="#FFD607" stroke="#FFD607" stroke-width="0.3306" stroke-linecap="round" stroke-linejoin="round" stroke-miterlimit="10" d="
					M326.35,54.552c9.406-6.688,20.418-6.402,28.779-2.844c8.361,3.56,14.074,10.735,16.092,18.929l5.422-1.107
					c1.627-12.079-4.896-24.236-16.652-29.239c-11.758-5.006-26.857-1.561-35.369,11.612L326.35,54.552z"/>
			</g>
			<g>
				
					<path fill="#FAC108" stroke="#FAC108" stroke-width="0.3306" stroke-linecap="round" stroke-linejoin="round" stroke-miterlimit="10" d="
					M324.621,51.902c8.166-12.782,22.994-16.882,35.369-11.612c11.756,5.003,18.279,17.16,16.652,29.239l-2.336,0.476
					c-0.654-10.132-6.861-19.534-16.842-23.783c-9.982-4.249-24.521-1.284-32.062,6.878L324.621,51.902z"/>
			</g>
			<g>
				
					<path fill="#FAC108" stroke="#FAC108" stroke-width="0.3306" stroke-linecap="round" stroke-linejoin="round" stroke-miterlimit="10" d="
					M338.844,69.698"/>
			</g>
		</g>
		
			<rect x="293.381" y="65.016" fill="#F1D9BD" stroke="#F1D9BD" stroke-width="0.1633" stroke-miterlimit="10" width="84.207" height="45.599"/>
		
			<rect x="293.381" y="65.016" opacity="0.5" fill="#DCBB9A" stroke="#DCBB9A" stroke-width="0.1633" stroke-miterlimit="10" width="42.951" height="45.599"/>
		
			<path fill="#86725F" stroke="#DCBB9A" stroke-width="0.1735" stroke-linecap="round" stroke-linejoin="round" stroke-miterlimit="10" d="
			M348.541,87.813c0,2.564-2.078,4.643-4.639,4.643h-16.834c-2.564,0-4.643-2.078-4.643-4.643l0,0c0-2.562,2.078-4.64,4.643-4.64
			h16.834C346.463,83.174,348.541,85.252,348.541,87.813L348.541,87.813z"/>
		
			<rect x="293.381" y="110.564" fill="#F1D9BD" stroke="#F1D9BD" stroke-width="0.1633" stroke-miterlimit="10" width="84.207" height="45.598"/>
		
			<rect x="293.381" y="110.564" opacity="0.5" fill="#DCBB9A" stroke="#DCBB9A" stroke-width="0.1633" stroke-miterlimit="10" width="42.951" height="45.598"/>
		
			<path fill="#86725F" stroke="#DCBB9A" stroke-width="0.1735" stroke-linecap="round" stroke-linejoin="round" stroke-miterlimit="10" d="
			M348.541,133.363c0,2.564-2.078,4.641-4.639,4.641h-16.834c-2.564,0-4.643-2.076-4.643-4.641l0,0c0-2.563,2.078-4.642,4.643-4.642
			h16.834C346.463,128.722,348.541,130.8,348.541,133.363L348.541,133.363z"/>
		<g>
			<g>
				<g>
					
						<path fill="#FFD607" stroke="#FFD607" stroke-width="0.3306" stroke-linecap="round" stroke-linejoin="round" stroke-miterlimit="10" d="
						M263.391,14.085c3.023,11.137-1.055,21.37-7.287,27.985c-6.23,6.614-14.939,9.493-23.326,8.553l-0.834,5.47
						c10.771,5.703,24.434,3.788,33.195-5.511c8.762-9.302,10.75-24.661,1.336-37.206L263.391,14.085z"/>
				</g>
				<g>
					
						<path fill="#FAC108" stroke="#FAC108" stroke-width="0.3306" stroke-linecap="round" stroke-linejoin="round" stroke-miterlimit="10" d="
						M266.475,13.376c9.166,12.083,7.887,27.417-1.336,37.206c-8.762,9.299-22.424,11.214-33.195,5.511l0.361-2.356
						c9.732,2.891,20.701,0.318,28.141-7.577c7.439-7.896,9.684-22.562,4.633-32.463L266.475,13.376z"/>
				</g>
			</g>
			<g>
				<g>
					
						<path fill="#FFD607" stroke="#FFD607" stroke-width="0.3306" stroke-linecap="round" stroke-linejoin="round" stroke-miterlimit="10" d="
						M245.578,2.284c7.254,8.979,7.637,19.987,4.598,28.55c-3.043,8.564-9.857,14.706-17.912,17.22l1.438,5.344
						c12.156,0.885,23.891-6.367,28.168-18.407c4.279-12.042-0.082-26.903-13.75-34.595L245.578,2.284z"/>
				</g>
				<g>
					
						<path fill="#FAC108" stroke="#FAC108" stroke-width="0.3306" stroke-linecap="round" stroke-linejoin="round" stroke-miterlimit="10" d="
						M248.119,0.396c13.254,7.369,18.252,21.921,13.75,34.595c-4.277,12.04-16.012,19.292-28.168,18.407l-0.621-2.304
						c10.076-1.269,19.082-8.04,22.713-18.262c3.631-10.224-0.217-24.554-8.822-31.584L248.119,0.396z"/>
				</g>
			</g>
			<g>
				
					<path fill="#FAC108" stroke="#FAC108" stroke-width="0.3306" stroke-linecap="round" stroke-linejoin="round" stroke-miterlimit="10" d="
					M266.496,43.99"/>
			</g>
			<g>
				<g>
					
						<polygon fill="#604C3F" stroke="#604C3F" stroke-width="0.314" stroke-linecap="round" stroke-linejoin="round" stroke-miterlimit="10" points="
						230.719,47.54 227.98,51.524 226.094,49.425 228.084,46.531 					"/>
				</g>
				<g>
					
						<polygon fill="#786854" stroke="#786854" stroke-width="0.314" stroke-linecap="round" stroke-linejoin="round" stroke-miterlimit="10" points="
						230.719,47.54 228.084,46.531 226.094,49.425 					"/>
				</g>
			</g>
			<g>
				
					<path fill="#FFD607" stroke="#FFD607" stroke-width="0.3306" stroke-linecap="round" stroke-linejoin="round" stroke-miterlimit="10" d="
					M275.691,28.578c-2.123,11.345-10.246,18.785-18.734,22.03c-8.488,3.244-17.582,2.051-24.723-2.445l-3.133,4.562
					c7.217,9.821,20.354,14.04,32.287,9.477c11.938-4.563,20.41-17.527,17.387-32.919L275.691,28.578z"/>
			</g>
			<g>
				
					<path fill="#FAC108" stroke="#FAC108" stroke-width="0.3306" stroke-linecap="round" stroke-linejoin="round" stroke-miterlimit="10" d="
					M278.775,29.282c3,14.868-4.822,28.117-17.387,32.919c-11.934,4.563-25.07,0.345-32.287-9.477l1.352-1.965
					c7.506,6.837,18.502,9.293,28.635,5.418c10.133-3.873,18.535-16.104,18.293-27.213L278.775,29.282z"/>
			</g>
			<g>
				
					<path fill="#FAC108" stroke="#FAC108" stroke-width="0.3306" stroke-linecap="round" stroke-linejoin="round" stroke-miterlimit="10" d="
					M256.184,26.355"/>
			</g>
		</g>
		<g>
			<g>
				<g>
					
						<path fill="#FFD607" stroke="#FFD607" stroke-width="0.3306" stroke-linecap="round" stroke-linejoin="round" stroke-miterlimit="10" d="
						M364.004,51.201c-11.318,2.262-21.25-2.5-27.426-9.165c-6.18-6.665-8.461-15.549-6.955-23.853l-5.4-1.202
						c-6.42,10.36-5.436,24.121,3.25,33.491c8.686,9.373,23.875,12.397,37.029,3.854L364.004,51.201z"/>
				</g>
				<g>
					
						<path fill="#FAC108" stroke="#FAC108" stroke-width="0.3306" stroke-linecap="round" stroke-linejoin="round" stroke-miterlimit="10" d="
						M364.502,54.326c-12.676,8.326-27.887,6.012-37.029-3.854c-8.686-9.37-9.67-23.131-3.25-33.491l2.326,0.518
						c-3.543,9.517-1.721,20.633,5.654,28.59c7.373,7.957,21.854,11.19,32.074,6.823L364.502,54.326z"/>
				</g>
			</g>
			<g>
				<g>
					
						<path fill="#FFD607" stroke="#FFD607" stroke-width="0.3306" stroke-linecap="round" stroke-linejoin="round" stroke-miterlimit="10" d="
						M376.984,34.23c-9.449,6.627-20.457,6.264-28.795,2.65c-8.34-3.616-14.006-10.829-15.969-19.036l-5.428,1.072
						c-1.705,12.068,4.734,24.268,16.457,29.351c11.725,5.084,26.846,1.739,35.445-11.376L376.984,34.23z"/>
				</g>
				<g>
					
						<path fill="#FAC108" stroke="#FAC108" stroke-width="0.3306" stroke-linecap="round" stroke-linejoin="round" stroke-miterlimit="10" d="
						M378.695,36.892c-8.25,12.724-23.105,16.727-35.445,11.376c-11.723-5.083-18.162-17.283-16.457-29.351l2.34-0.462
						c0.584,10.139,6.73,19.581,16.684,23.898c9.951,4.314,24.51,1.448,32.105-6.664L378.695,36.892z"/>
				</g>
			</g>
			<g>
				
					<path fill="#FAC108" stroke="#FAC108" stroke-width="0.3306" stroke-linecap="round" stroke-linejoin="round" stroke-miterlimit="10" d="
					M333.959,52.273"/>
			</g>
			<g>
				<g>
					
						<polygon fill="#604C3F" stroke="#604C3F" stroke-width="0.314" stroke-linecap="round" stroke-linejoin="round" stroke-miterlimit="10" points="
						332.838,16.338 329.049,13.334 331.271,11.596 334.023,13.777 					"/>
				</g>
				<g>
					
						<polygon fill="#786854" stroke="#786854" stroke-width="0.314" stroke-linecap="round" stroke-linejoin="round" stroke-miterlimit="10" points="
						332.838,16.338 334.023,13.777 331.271,11.596 					"/>
				</g>
			</g>
			<g>
				
					<path fill="#FFD607" stroke="#FFD607" stroke-width="0.3306" stroke-linecap="round" stroke-linejoin="round" stroke-miterlimit="10" d="
					M348.711,62.49C337.537,59.605,330.662,50.996,328,42.309c-2.664-8.688-0.854-17.683,4.115-24.501l-4.34-3.434
					c-10.289,6.536-15.387,19.356-11.641,31.573c3.742,12.218,16.105,21.548,31.664,19.576L348.711,62.49z"/>
			</g>
			<g>
				
					<path fill="#FAC108" stroke="#FAC108" stroke-width="0.3306" stroke-linecap="round" stroke-linejoin="round" stroke-miterlimit="10" d="
					M347.799,65.522c-15.037,1.985-27.725-6.716-31.664-19.576c-3.746-12.217,1.352-25.037,11.641-31.573l1.867,1.481
					c-7.328,7.026-10.523,17.831-7.344,28.201c3.178,10.373,14.811,19.585,25.912,20.096L347.799,65.522z"/>
			</g>
			<g>
				
					<path fill="#FAC108" stroke="#FAC108" stroke-width="0.3306" stroke-linecap="round" stroke-linejoin="round" stroke-miterlimit="10" d="
					M352.25,43.179"/>
			</g>
		</g>
	</g>
	<g>
		<path fill="#FFFFFF" stroke="#FFFFFF" stroke-width="0.1197" stroke-miterlimit="10" d="M27.934,184.51l-0.018-13.193
			c1.938,0.063,3.402,0.329,4.391,0.799c0.988,0.468,1.484,1.169,1.484,2.102S33.525,175.84,33,176.29s-1.162,0.726-1.914,0.826
			c0.988,0.089,1.83,0.432,2.525,1.033c0.693,0.601,1.041,1.478,1.041,2.637c0,1.156-0.572,2.063-1.717,2.721
			C31.791,184.163,30.123,184.498,27.934,184.51z M33.096,174.207c0-0.699-0.402-1.236-1.203-1.613
			c-0.801-0.376-1.895-0.564-3.285-0.564v4.768C31.6,176.76,33.096,175.896,33.096,174.207z M33.959,180.683
			c0-0.652-0.182-1.195-0.545-1.633c-0.363-0.439-0.852-0.752-1.465-0.938c-1.025-0.338-2.133-0.508-3.32-0.508v6.193
			c1.012-0.012,1.889-0.128,2.625-0.346c0.74-0.219,1.297-0.499,1.672-0.836C33.613,181.977,33.959,181.333,33.959,180.683z"/>
		<path fill="#FFFFFF" stroke="#FFFFFF" stroke-width="0.1197" stroke-miterlimit="10" d="M43.379,172.295v12.158h-0.693v-6.191
			h-5.33v6.191H36.66v-8.595c0-1.351,0.432-2.459,1.295-3.321c0.863-0.863,1.945-1.295,3.248-1.295
			C42.152,171.242,42.877,171.592,43.379,172.295z M42.686,177.567v-5.012c-0.402-0.413-0.908-0.619-1.521-0.619
			c-1.1,0-2.01,0.401-2.73,1.202c-0.719,0.799-1.078,1.712-1.078,2.739v1.689H42.686z"/>
		<path fill="#FFFFFF" stroke="#FFFFFF" stroke-width="0.1197" stroke-miterlimit="10" d="M46.889,172.5v11.953h-0.693v-13.154
			h0.992l5.031,11.56v-11.542h0.693v13.137h-0.693L46.889,172.5z"/>
		<path fill="#FFFFFF" stroke="#FFFFFF" stroke-width="0.1197" stroke-miterlimit="10" d="M62.371,172.295v12.158h-0.693v-6.191
			h-5.33v6.191h-0.695v-8.595c0-1.351,0.434-2.459,1.295-3.321c0.863-0.863,1.943-1.295,3.246-1.295
			C61.145,171.242,61.871,171.592,62.371,172.295z M61.678,177.567v-5.012c-0.4-0.413-0.908-0.619-1.521-0.619
			c-1.1,0-2.012,0.401-2.73,1.202c-0.721,0.799-1.078,1.712-1.078,2.739v1.689H61.678z"/>
		<path fill="#FFFFFF" stroke="#FFFFFF" stroke-width="0.1197" stroke-miterlimit="10" d="M65.881,172.5v11.953h-0.695v-13.154
			h0.994l5.031,11.56v-11.542h0.695v13.137h-0.695L65.881,172.5z"/>
		<path fill="#FFFFFF" stroke="#FFFFFF" stroke-width="0.1197" stroke-miterlimit="10" d="M81.363,172.295v12.158h-0.695v-6.191
			H75.34v6.191h-0.695v-8.595c0-1.351,0.432-2.459,1.295-3.321c0.863-0.863,1.945-1.295,3.246-1.295
			C80.137,171.242,80.861,171.592,81.363,172.295z M80.668,177.567v-5.012c-0.4-0.413-0.906-0.619-1.52-0.619
			c-1.1,0-2.012,0.401-2.73,1.202c-0.721,0.799-1.078,1.712-1.078,2.739v1.689H80.668z"/>
		<path fill="#FFFFFF" stroke="#FFFFFF" stroke-width="0.1197" stroke-miterlimit="10" d="M92.324,182.464
			c0.561-0.487,0.844-1.082,0.844-1.781c0-0.701-0.203-1.261-0.611-1.681c-0.406-0.418-0.896-0.732-1.473-0.938
			c-0.574-0.205-1.152-0.416-1.736-0.628c-0.58-0.211-1.076-0.535-1.482-0.967c-0.406-0.433-0.609-0.985-0.609-1.661
			c0-1.176,0.328-2.053,0.986-2.628c0.656-0.576,1.441-0.863,2.354-0.863c0.914,0,1.916,0.088,3.004,0.264v0.694
			c-0.975-0.175-1.889-0.263-2.738-0.263c-0.854,0-1.551,0.238-2.094,0.712c-0.545,0.477-0.818,1.146-0.818,2.011
			c0,0.749,0.391,1.312,1.164,1.688c0.352,0.175,0.736,0.337,1.154,0.485c0.42,0.151,0.842,0.321,1.268,0.508
			c0.426,0.188,0.811,0.41,1.152,0.665c0.346,0.258,0.627,0.615,0.846,1.071s0.328,0.989,0.328,1.595
			c0,0.608-0.141,1.143-0.422,1.605s-0.629,0.824-1.041,1.088c-0.414,0.263-0.895,0.476-1.445,0.638
			c-0.889,0.276-1.889,0.414-3.004,0.414H87.48v-0.695C89.709,183.797,91.322,183.353,92.324,182.464z"/>
		<path fill="#FFFFFF" stroke="#FFFFFF" stroke-width="0.1197" stroke-miterlimit="10" d="M96.715,178.898v5.555H96.02v-13.154
			c2.189,0.012,3.857,0.347,5.002,1.004c1.145,0.656,1.719,1.58,1.719,2.768c0,1.401-0.553,2.377-1.654,2.928
			c-0.375,0.201-0.707,0.351-0.992,0.451c-0.289,0.099-0.678,0.188-1.164,0.263C98.314,178.785,97.578,178.849,96.715,178.898z
			 M96.715,178.204l0.188,0.019c3.428-0.05,5.143-1.08,5.143-3.096c0-0.751-0.346-1.419-1.033-2.009
			c-0.375-0.324-0.928-0.586-1.66-0.788c-0.732-0.2-1.609-0.306-2.637-0.318V178.204z"/>
		<path fill="#FFFFFF" stroke="#FFFFFF" stroke-width="0.1197" stroke-miterlimit="10" d="M105.291,184.453h-0.695v-13.1h0.695
			V184.453z"/>
		<path fill="#FFFFFF" stroke="#FFFFFF" stroke-width="0.1197" stroke-miterlimit="10" d="M114.861,184.453h-0.844l-3.641-5.573
			c-0.465,0.062-0.977,0.106-1.539,0.132v5.441h-0.695v-13.154c4.193,0.012,6.287,1.269,6.287,3.771c0,2.015-1.1,3.247-3.303,3.697
			L114.861,184.453z M108.838,178.262l0.188,0.019c3.141-0.051,4.711-1.102,4.711-3.153c0-0.576-0.135-1.055-0.404-1.436
			c-0.268-0.383-0.572-0.678-0.91-0.893c-0.801-0.5-1.996-0.763-3.584-0.787V178.262z"/>
		<path fill="#FFFFFF" stroke="#FFFFFF" stroke-width="0.1197" stroke-miterlimit="10" d="M117.301,184.453h-0.693v-13.1h0.693
			V184.453z"/>
		<path fill="#FFFFFF" stroke="#FFFFFF" stroke-width="0.1197" stroke-miterlimit="10" d="M122.668,184.453h-0.693v-12.441h-3.004
			v-0.695h6.719v0.695h-3.021V184.453z"/>
	</g>
	<g>
		<g>
			<g>
				<path fill="none" stroke="#EBEBED" stroke-width="1.271" stroke-linecap="round" stroke-miterlimit="10" d="M396.946,184.442
					c-1.72,4.087-5.762,6.958-10.476,6.958s-8.76-2.874-10.479-6.966"/>
				<g>
					<polygon fill="#EBEBED" points="397.83,180.041 393.902,185.629 396.755,184.742 398.938,186.78 					"/>
				</g>
				<g>
					<polygon fill="#EBEBED" points="375.111,180.041 379.04,185.628 376.187,184.742 374.004,186.78 					"/>
				</g>
			</g>
		</g>
		
			<line fill="none" stroke="#EBEBED" stroke-width="1.271" stroke-linecap="round" stroke-miterlimit="10" x1="386.471" y1="191.4" x2="386.471" y2="168.3"/>
		
			<circle fill="none" stroke="#EBEBED" stroke-width="1.271" stroke-linecap="round" stroke-miterlimit="10" cx="386.472" cy="166.298" r="2.001"/>
		
			<line fill="none" stroke="#EBEBED" stroke-width="1.271" stroke-linecap="round" stroke-miterlimit="10" x1="394.777" y1="172.016" x2="378.166" y2="172.016"/>
	</g>
</g>
</svg>
