<?xml version="1.0" encoding="utf-8"?>
<!-- Generator: Adobe Illustrator 15.0.2, SVG Export Plug-In . SVG Version: 6.00 Build 0)  -->
<!DOCTYPE svg PUBLIC "-//W3C//DTD SVG 1.1//EN" "http://www.w3.org/Graphics/SVG/1.1/DTD/svg11.dtd">
<svg version="1.1" id="Lager_1" xmlns="http://www.w3.org/2000/svg" xmlns:xlink="http://www.w3.org/1999/xlink" x="0px" y="0px"
	 width="175.379px" height="115.709px" viewBox="0 0 175.379 115.709" enable-background="new 0 0 175.379 115.709"
	 xml:space="preserve">
<g>
	<g>
		<g>
			
				<path fill="#FFD600" stroke="#FFD600" stroke-width="0.6445" stroke-linecap="round" stroke-linejoin="round" stroke-miterlimit="10" d="
				M74.091,35.724c9.107,17.282,8.516,38.919-3.37,56.091c-14.178,20.483-42.66,30.507-70.396,17.647l0.098-6.169
				c22.463,1.246,40.322-10.686,50.403-25.251c7.186-10.382,10.244-22.391,9.528-34.082c-0.027-0.434,0.548-1.172,0.511-1.604
				L74.091,35.724z"/>
		</g>
		<g>
			
				<path fill="#786855" stroke="#786855" stroke-width="0.6445" stroke-linecap="round" stroke-linejoin="round" stroke-miterlimit="10" d="
				M74.095,35.725c9.099,17.278,8.504,38.904-3.376,56.076c-14.921,21.555-43.639,30.223-70.396,17.646l0.042-2.786
				c20.928,5.606,47.982-4.628,60.019-22.019c9.625-13.906,11.842-30.733,7.503-45.81L74.095,35.725z"/>
		</g>
	</g>
	<g>
		<g>
			
				<path fill="#FCC200" stroke="#FCC200" stroke-width="0.8344" stroke-linecap="round" stroke-linejoin="round" stroke-miterlimit="10" d="
				M128.368,87.668"/>
		</g>
		<g>
			<g>
				
					<polygon fill="#5F4C3F" stroke="#5F4C3F" stroke-width="0.7926" stroke-linecap="round" stroke-linejoin="round" stroke-miterlimit="10" points="
					82.989,9.078 70.975,6.917 73.842,0.396 82.571,1.965 				"/>
			</g>
			<g>
				
					<polygon fill="#786855" stroke="#786855" stroke-width="0.7926" stroke-linecap="round" stroke-linejoin="round" stroke-miterlimit="10" points="
					82.989,9.078 82.571,1.965 73.842,0.396 				"/>
			</g>
		</g>
		<g>
			
				<path fill="#FFD600" stroke="#FFD600" stroke-width="0.8344" stroke-linecap="round" stroke-linejoin="round" stroke-miterlimit="10" d="
				M173.374,92.791c-28.299,6.92-53.861-4.026-70.151-20.175C86.929,56.468,80.219,34.307,83.131,13.205l-13.748-2.458
				C54.301,37.562,58.259,72.162,81.166,94.866c22.912,22.707,61.542,28.709,93.796,5.754L173.374,92.791z"/>
		</g>
		<g>
			
				<path fill="#FCC200" stroke="#FCC200" stroke-width="0.8344" stroke-linecap="round" stroke-linejoin="round" stroke-miterlimit="10" d="
				M174.962,100.62c-31.075,22.36-69.683,18.147-93.796-5.754C58.259,72.162,54.301,37.562,69.383,10.748l5.923,1.06
				c-7.92,24.38-2.129,52.224,17.319,71.499c19.448,19.277,56.318,25.883,81.621,13.775L174.962,100.62z"/>
		</g>
		<g>
			<circle fill="#5F4C3F" cx="97.567" cy="100.891" r="0.765"/>
		</g>
		<g>
			<circle fill="#5F4C3F" cx="99.952" cy="104.029" r="0.764"/>
		</g>
		<g>
			<path fill="#5F4C3F" d="M102.41,107.455c-0.06,0.419-0.448,0.709-0.866,0.65c-0.42-0.062-0.709-0.45-0.649-0.871
				c0.061-0.414,0.449-0.706,0.867-0.646C102.181,106.648,102.471,107.038,102.41,107.455z"/>
		</g>
		<g>
			<path fill="#5F4C3F" d="M104.379,105.809c-0.061,0.419-0.449,0.706-0.866,0.648c-0.419-0.062-0.708-0.45-0.647-0.869
				c0.06-0.417,0.447-0.707,0.866-0.645C104.151,105,104.44,105.389,104.379,105.809z"/>
		</g>
		<g>
			<circle fill="#5F4C3F" cx="106.143" cy="109.211" r="0.765"/>
		</g>
		<g>
			<path fill="#5F4C3F" d="M109.089,107.727c-0.061,0.42-0.448,0.707-0.867,0.647c-0.417-0.06-0.707-0.448-0.647-0.867
				c0.062-0.419,0.449-0.708,0.867-0.645C108.861,106.92,109.152,107.309,109.089,107.727z"/>
		</g>
		<g>
			<circle fill="#5F4C3F" cx="94.968" cy="102.832" r="0.765"/>
		</g>
		<g>
			<path fill="#5F4C3F" d="M92.792,99.426c-0.062,0.417-0.45,0.707-0.866,0.646c-0.419-0.063-0.709-0.447-0.648-0.867
				c0.06-0.419,0.448-0.705,0.867-0.648C92.562,98.62,92.853,99.006,92.792,99.426z"/>
		</g>
	</g>
</g>
</svg>
