<?xml version="1.0" encoding="utf-8"?>
<!-- Generator: Adobe Illustrator 17.0.0, SVG Export Plug-In . SVG Version: 6.00 Build 0)  -->
<!DOCTYPE svg PUBLIC "-//W3C//DTD SVG 1.1//EN" "http://www.w3.org/Graphics/SVG/1.1/DTD/svg11.dtd">
<svg version="1.1" id="Layer_1" xmlns="http://www.w3.org/2000/svg" xmlns:xlink="http://www.w3.org/1999/xlink" x="0px" y="0px"
	 width="95.836px" height="97.703px" viewBox="0 0 95.836 97.703" enable-background="new 0 0 95.836 97.703" xml:space="preserve">
<g class="fluga-1">
	<path stroke="#000000" stroke-width="2" stroke-linecap="round" stroke-linejoin="round" stroke-miterlimit="10" d="M8.486,15.325
		l-5.428-2.47C1.921,12.854,1,13.776,1,14.912v2.821c0,1.136,0.921,2.057,2.058,2.057l5.428-2.845V15.325z"/>
	<path stroke="#000000" stroke-width="2" stroke-linecap="round" stroke-linejoin="round" stroke-miterlimit="10" d="M8.486,15.325
		l5.428-2.47c1.137,0,2.058,0.922,2.058,2.058v2.821c0,1.136-0.921,2.057-2.058,2.057l-5.428-2.845V15.325z"/>
</g>
<g>
	<path stroke="#000000" stroke-width="2" stroke-linecap="round" stroke-linejoin="round" stroke-miterlimit="10" d="M23.122,44.041
		l-5.944-0.486c-1.069,0.384-1.624,1.564-1.24,2.633l0.954,2.654c0.384,1.069,1.564,1.625,2.633,1.239l4.144-4.514L23.122,44.041z"
		/>
	<path stroke="#000000" stroke-width="2" stroke-linecap="round" stroke-linejoin="round" stroke-miterlimit="10" d="M23.122,44.041
		l4.27-4.162c1.07-0.386,2.249,0.17,2.634,1.24l0.956,2.654c0.385,1.069-0.17,2.248-1.242,2.632l-6.07-0.839L23.122,44.041z"/>
</g>
<g>
	<path stroke="#000000" stroke-width="2" stroke-linecap="round" stroke-linejoin="round" stroke-miterlimit="10" d="M72.062,91.175
		l-4.808-3.531c-1.113-0.233-2.202,0.48-2.437,1.592l-0.579,2.761c-0.232,1.112,0.479,2.203,1.593,2.436l5.896-1.671L72.062,91.175z
		"/>
	<path stroke="#000000" stroke-width="2" stroke-linecap="round" stroke-linejoin="round" stroke-miterlimit="10" d="M72.062,91.175
		l5.817-1.305c1.113,0.232,1.826,1.324,1.592,2.436l-0.577,2.761c-0.232,1.112-1.324,1.826-2.438,1.591l-4.729-3.897L72.062,91.175z
		"/>
</g>
<g>
	<path stroke="#000000" stroke-width="2" stroke-linecap="round" stroke-linejoin="round" stroke-miterlimit="10" d="M87.382,4.575
		l-4.808-3.531c-1.113-0.233-2.203,0.48-2.437,1.592l-0.578,2.761C79.326,6.51,80.038,7.6,81.151,7.833l5.895-1.671L87.382,4.575z"
		/>
	<path stroke="#000000" stroke-width="2" stroke-linecap="round" stroke-linejoin="round" stroke-miterlimit="10" d="M87.382,4.575
		l5.817-1.305c1.113,0.232,1.826,1.324,1.592,2.436l-0.577,2.761c-0.232,1.112-1.324,1.826-2.438,1.591l-4.73-3.897L87.382,4.575z"
		/>
</g>
<g>
	<path stroke="#000000" stroke-width="2" stroke-linecap="round" stroke-linejoin="round" stroke-miterlimit="10" d="M39.295,15.489
		l-3.179-5.046c-0.95-0.624-2.227-0.36-2.851,0.59l-1.549,2.356c-0.625,0.949-0.361,2.226,0.59,2.85l6.098,0.604L39.295,15.489z"/>
	<path stroke="#000000" stroke-width="2" stroke-linecap="round" stroke-linejoin="round" stroke-miterlimit="10" d="M39.295,15.489
		l5.891,0.917c0.951,0.623,1.215,1.901,0.59,2.85l-1.549,2.358c-0.625,0.949-1.899,1.213-2.85,0.588l-2.974-5.358L39.295,15.489z"/>
</g>
</svg>
