<?xml version="1.0" encoding="utf-8"?>
<!-- Generator: Adobe Illustrator 15.0.2, SVG Export Plug-In . SVG Version: 6.00 Build 0)  -->
<!DOCTYPE svg PUBLIC "-//W3C//DTD SVG 1.1//EN" "http://www.w3.org/Graphics/SVG/1.1/DTD/svg11.dtd">
<svg version="1.1" id="Lager_1" xmlns="http://www.w3.org/2000/svg" xmlns:xlink="http://www.w3.org/1999/xlink" x="0px" y="0px"
	 width="80.477px" height="153.208px" viewBox="0 0 80.477 153.208" enable-background="new 0 0 80.477 153.208"
	 xml:space="preserve">
<path fill="#ECEDED" stroke="#ECEDED" stroke-width="1.2509" stroke-miterlimit="10" d="M50.465,7.477c0,0.69-0.56,1.25-1.251,1.25
	H31.263c-0.691,0-1.251-0.56-1.251-1.25V1.909c0-0.691,0.56-1.251,1.251-1.251h17.951c0.691,0,1.251,0.56,1.251,1.251V7.477z"/>
<path fill="#38A962" stroke="#38A962" stroke-width="5.0036" stroke-linecap="round" stroke-linejoin="round" stroke-miterlimit="10" d="
	M77.975,57.826v86.625c0,3.455-2.8,6.255-6.254,6.255H8.757c-3.455,0-6.255-2.8-6.255-6.255V57.826H77.975z"/>
<path fill="#D9DADB" stroke="#D9DADB" stroke-width="1.2509" stroke-miterlimit="10" d="M40.238,8.728h-8.976
	c-0.691,0-1.251-0.56-1.251-1.25V1.909c0-0.691,0.56-1.251,1.251-1.251h8.976V8.728z"/>
<g>
	<path fill="#309959" d="M40.238,150.706H8.757c-3.455,0-6.255-2.8-6.255-6.255V57.826h37.736V150.706z"/>
	<path fill="#309959" d="M40.238,57.826v95.382H8.757c-4.828,0-8.757-3.929-8.757-8.757V57.826H40.238z"/>
</g>
<g>
	<path fill="#ECEDED" d="M77.975,57.826V22.488c0-3.454-2.8-6.254-6.254-6.254H8.757c-3.455,0-6.255,2.8-6.255,6.254v35.338h74.43"
		/>
	<path fill="#ECEDED" d="M0,57.826V22.488c0-4.828,3.929-8.756,8.757-8.756h62.964c4.827,0,8.756,3.928,8.756,8.756v35.338H0z"/>
</g>
<path fill="#E7E7E8" d="M40.238,57.826H0V22.488c0-4.828,3.929-8.756,8.757-8.756h31.481V57.826z"/>
<path fill="#D9DADB" stroke="#3E3D40" stroke-width="2" stroke-linecap="round" stroke-miterlimit="10" d="M40.238,41.868"/>
<path fill="#D9DADB" stroke="#3E3D40" stroke-width="2" stroke-linecap="round" stroke-miterlimit="10" d="M40.238,29.689"/>
<g>
	
		<line fill="none" stroke="#3E3D40" stroke-width="3.7737" stroke-linecap="round" stroke-miterlimit="10" x1="40.238" y1="27.842" x2="40.238" y2="45.317"/>
	
		<line fill="none" stroke="#3E3D40" stroke-width="3.7737" stroke-linecap="round" stroke-miterlimit="10" x1="31.5" y1="36.58" x2="48.976" y2="36.58"/>
</g>
<line fill="none" stroke="#FFFFFF" stroke-width="3.7737" stroke-linecap="round" stroke-miterlimit="10" x1="31.5" y1="136.209" x2="48.976" y2="136.209"/>
</svg>
