<?xml version="1.0" encoding="utf-8"?>
<!-- Generator: Adobe Illustrator 15.0.2, SVG Export Plug-In . SVG Version: 6.00 Build 0)  -->
<!DOCTYPE svg PUBLIC "-//W3C//DTD SVG 1.1//EN" "http://www.w3.org/Graphics/SVG/1.1/DTD/svg11.dtd">
<svg version="1.1" id="Lager_1" xmlns="http://www.w3.org/2000/svg" xmlns:xlink="http://www.w3.org/1999/xlink" x="0px" y="0px"
	 width="44.128px" height="105.268px" viewBox="0 0 44.128 105.268" enable-background="new 0 0 44.128 105.268"
	 xml:space="preserve">
<g>
	<rect x="19.73" y="21.74" fill="#FFFFFF" width="4.667" height="83.527"/>
	<path fill="#E6332A" d="M44.128,0l-1.933,57.065c0,2.209-0.865,4-1.933,4H3.865c-1.067,0-1.933-1.791-1.933-4L0,0H44.128z"/>
	<g>
		<path fill="#D22A24" d="M22.064,61.065H3.865c-1.067,0-1.933-1.791-1.933-4L0,0h22.004L22.064,61.065z"/>
	</g>
	<path fill="#A51922" d="M27.276,15.922H16.852c-0.799,0-1.45,0.65-1.45,1.449v5.852v14.344c0,0.8,0.65,1.45,1.45,1.45h10.425
		c0.8,0,1.45-0.65,1.45-1.45V23.223v-5.852C28.727,16.572,28.076,15.922,27.276,15.922z"/>
	<path fill="#A51922" stroke="#A51922" stroke-width="0.4985" stroke-miterlimit="10" d="M23.758,14.687
		c0,0.114-0.093,0.207-0.207,0.207h-2.973c-0.114,0-0.207-0.093-0.207-0.207v-0.923c0-0.113,0.093-0.206,0.207-0.206h2.973
		c0.114,0,0.207,0.093,0.207,0.206V14.687z"/>
	<path fill="#DADADA" stroke="#3C3C3B" stroke-width="0.3312" stroke-linecap="round" stroke-miterlimit="10" d="M22.064,20.58"/>
	<path fill="#DADADA" stroke="#3C3C3B" stroke-width="0.3312" stroke-linecap="round" stroke-miterlimit="10" d="M22.064,18.563"/>
	<polygon fill="#D22A24" points="21.942,20.444 17.492,26.971 22.605,26.971 18.427,34.494 26.638,25.226 21.069,25.226 
		24.387,20.444 	"/>
</g>
</svg>
