<?xml version="1.0" encoding="utf-8"?>
<!-- Generator: Adobe Illustrator 15.0.2, SVG Export Plug-In . SVG Version: 6.00 Build 0)  -->
<!DOCTYPE svg PUBLIC "-//W3C//DTD SVG 1.1//EN" "http://www.w3.org/Graphics/SVG/1.1/DTD/svg11.dtd">
<svg version="1.1" id="Lager_1" xmlns="http://www.w3.org/2000/svg" xmlns:xlink="http://www.w3.org/1999/xlink" x="0px" y="0px"
	 width="841.891px" height="220.873px" viewBox="0 0 841.891 220.873" enable-background="new 0 0 841.891 220.873"
	 xml:space="preserve">
<path fill="#AED8E5" stroke="#AED8E5" stroke-width="0.024" stroke-linecap="round" stroke-linejoin="round" stroke-miterlimit="10" d="
	M420.844,84.376c0.622,0,1.221,0.096,1.782,0.271c0.176-2.742,2.217-4.97,4.866-5.448c0-0.001,0-0.009,0-0.009
	c0.386-0.11,1.058-0.093,1.058-0.093c3.276,0,5.936,2.657,5.936,5.937c0,0.664-0.108,1.3-0.31,1.896
	c3.263,0.019,5.901,2.668,5.901,5.936c0,3.279-2.656,5.937-5.937,5.937c-1.1,0-2.127-0.299-3.01-0.819
	c-0.188,0.271-0.406,0.519-0.637,0.755c-0.053,0.053-0.104,0.105-0.156,0.157c-0.233,0.221-0.48,0.428-0.747,0.609
	c-0.043,0.029-0.089,0.054-0.134,0.082c-0.244,0.157-0.5,0.294-0.766,0.413c-0.006,0.004-0.01,0.009-0.017,0.011h0.069v12.134
	h-1.255h-1.254v-11.609c-2.7-0.008-4.978-1.819-5.688-4.293c-3.145-0.153-5.644-2.75-5.644-5.93
	C414.907,87.034,417.565,84.376,420.844,84.376z"/>
<path fill="#AED8E5" stroke="#AED8E5" stroke-width="0.024" stroke-linecap="round" stroke-linejoin="round" stroke-miterlimit="10" d="
	M449.844,71.571c0.622,0,1.221,0.096,1.782,0.271c0.176-2.742,2.217-4.97,4.866-5.448c0-0.001,0-0.009,0-0.009
	c0.386-0.11,1.058-0.093,1.058-0.093c3.276,0,5.936,2.657,5.936,5.937c0,0.664-0.108,1.3-0.31,1.896
	c3.263,0.019,5.901,2.668,5.901,5.936c0,3.279-2.656,5.937-5.937,5.937c-1.1,0-2.127-0.299-3.01-0.819
	c-0.188,0.271-0.406,0.519-0.637,0.755c-0.053,0.053-0.104,0.105-0.156,0.157c-0.233,0.221-0.48,0.428-0.747,0.609
	c-0.043,0.029-0.089,0.054-0.134,0.082c-0.244,0.157-0.5,0.294-0.766,0.413c-0.006,0.004-0.01,0.009-0.017,0.011h0.069V99.34h-1.255
	h-1.254V87.73c-2.7-0.008-4.978-1.819-5.688-4.293c-3.145-0.153-5.644-2.75-5.644-5.93
	C443.906,74.229,446.565,71.571,449.844,71.571z"/>
<path fill="#AED8E5" stroke="#AED8E5" stroke-width="0.4043" stroke-linecap="round" stroke-linejoin="round" stroke-miterlimit="10" d="
	M296.794,107.349l-18.9-13.301c-0.314-0.222-0.735-0.222-1.051,0.004l-7.366,5.24v-1.915h-4.52v5.131l-6.81,4.844
	c-0.408,0.291-0.505,0.859-0.214,1.269c0.292,0.409,0.858,0.506,1.27,0.213l0.345-0.244v18.402h35.646v-18.544l0.555,0.39
	c0.159,0.111,0.342,0.165,0.521,0.165c0.286,0,0.567-0.134,0.745-0.386C297.303,108.205,297.204,107.638,296.794,107.349z"/>
<g>
	<g id="Träd_14_">
		<rect x="156.758" y="108.027" fill="#AF7F48" width="2.71" height="13.113"/>
		<rect x="158.112" y="108.027" fill="#905E35" width="1.355" height="13.113"/>
		
			<path fill="#53AF6F" stroke="#53AF6F" stroke-width="0.0259" stroke-linecap="round" stroke-linejoin="round" stroke-miterlimit="10" d="
			M144.513,97.549c0-3.543,2.872-6.415,6.415-6.415c0.671,0,1.318,0.104,1.926,0.294c0.215-3.349,2.998-5.998,6.4-5.998
			c3.543,0,6.415,2.872,6.415,6.415c0,0.717-0.119,1.405-0.336,2.049c3.525,0.021,6.379,2.885,6.379,6.415
			c0,3.544-2.872,6.415-6.415,6.415c-1.188,0-2.3-0.323-3.253-0.886c-1.159,1.667-3.087,2.758-5.271,2.758
			c-2.927,0-5.395-1.961-6.165-4.64C147.215,103.79,144.513,100.985,144.513,97.549z"/>
		
			<path fill="#45A260" stroke="#45A260" stroke-width="0.0259" stroke-linecap="round" stroke-linejoin="round" stroke-miterlimit="10" d="
			M159.255,85.43c3.543,0,6.415,2.872,6.415,6.415c0,0.717-0.119,1.405-0.336,2.049c3.525,0.021,6.379,2.885,6.379,6.415
			c0,3.544-2.872,6.415-6.415,6.415c-1.188,0-2.3-0.323-3.253-0.886c-0.915,1.316-2.312,2.274-3.933,2.618c0,0,0-22.788,0-22.926
			C158.528,85.411,159.255,85.43,159.255,85.43z"/>
	</g>
	<g id="Träd_15_">
		<rect x="217.091" y="117.435" fill="#AF7F48" width="2.71" height="13.111"/>
		<rect x="218.445" y="117.435" fill="#905E35" width="1.355" height="13.111"/>
		
			<path fill="#53AF6F" stroke="#53AF6F" stroke-width="0.0259" stroke-linecap="round" stroke-linejoin="round" stroke-miterlimit="10" d="
			M204.846,106.955c0-3.543,2.872-6.415,6.415-6.415c0.671,0,1.318,0.104,1.926,0.294c0.215-3.349,2.998-5.998,6.4-5.998
			c3.543,0,6.415,2.872,6.415,6.415c0,0.717-0.119,1.405-0.336,2.049c3.525,0.021,6.379,2.885,6.379,6.415
			c0,3.544-2.872,6.415-6.415,6.415c-1.188,0-2.3-0.322-3.253-0.886c-1.159,1.667-3.087,2.758-5.271,2.758
			c-2.927,0-5.395-1.961-6.165-4.64C207.548,113.196,204.846,110.392,204.846,106.955z"/>
		
			<path fill="#45A260" stroke="#45A260" stroke-width="0.0259" stroke-linecap="round" stroke-linejoin="round" stroke-miterlimit="10" d="
			M219.588,94.836c3.543,0,6.415,2.872,6.415,6.415c0,0.717-0.119,1.405-0.336,2.049c3.525,0.021,6.379,2.885,6.379,6.415
			c0,3.544-2.872,6.415-6.415,6.415c-1.188,0-2.3-0.322-3.253-0.886c-0.915,1.315-2.312,2.274-3.933,2.618c0,0,0-22.788,0-22.926
			C218.861,94.817,219.588,94.836,219.588,94.836z"/>
	</g>
	<g>
		<g>
			
				<rect x="185.302" y="112.612" transform="matrix(0.9891 0.1473 -0.1473 0.9891 19.8039 -26.2482)" fill="#8E5E35" width="3.62" height="15.932"/>
			
				<rect x="187.097" y="112.755" transform="matrix(0.9891 0.1472 -0.1472 0.9891 19.8228 -26.3645)" fill="#7F4D28" width="1.811" height="15.93"/>
		</g>
		<g>
			<polygon fill="#54AF6C" stroke="#54AF6C" stroke-width="0.0739" stroke-miterlimit="10" points="181.269,108.312 
				196.105,110.521 190.254,98.897 			"/>
			
				<polygon fill="#45A260" stroke="#45A260" stroke-width="0.0833" stroke-linecap="round" stroke-linejoin="round" stroke-miterlimit="10" points="
				196.105,110.521 190.254,98.897 188.688,109.417 			"/>
		</g>
		<g>
			<polygon fill="#54AF6C" stroke="#54AF6C" stroke-width="0.0913" stroke-miterlimit="10" points="178.824,112.911 
				197.105,115.632 189.905,101.236 			"/>
			
				<polygon fill="#45A260" stroke="#45A260" stroke-width="0.1029" stroke-linecap="round" stroke-linejoin="round" stroke-miterlimit="10" points="
				197.105,115.632 189.905,101.236 187.964,114.271 			"/>
		</g>
		<g>
			<polygon fill="#54AF6C" stroke="#54AF6C" stroke-width="0.1064" stroke-miterlimit="10" points="176.477,117.438 
				198.032,120.646 189.49,104.027 			"/>
			
				<polygon fill="#45A260" stroke="#45A260" stroke-width="0.1199" stroke-linecap="round" stroke-linejoin="round" stroke-miterlimit="10" points="
				198.032,120.646 189.49,104.027 187.255,119.042 			"/>
		</g>
		<g>
			<polygon fill="#54AF6C" stroke="#54AF6C" stroke-width="0.1175" stroke-miterlimit="10" points="174.677,121.819 
				198.478,125.362 189.046,107.011 			"/>
			
				<polygon fill="#45A260" stroke="#45A260" stroke-width="0.1324" stroke-linecap="round" stroke-linejoin="round" stroke-miterlimit="10" points="
				198.478,125.362 189.046,107.011 186.578,123.591 			"/>
		</g>
		<g>
			<polygon fill="#54AF6C" stroke="#54AF6C" stroke-width="0.0582" stroke-miterlimit="10" points="183.602,104.088 
				195.104,105.801 190.605,96.534 			"/>
			
				<polygon fill="#45A260" stroke="#45A260" stroke-width="0.0656" stroke-linecap="round" stroke-linejoin="round" stroke-miterlimit="10" points="
				195.104,105.801 190.605,96.534 189.353,104.944 			"/>
		</g>
	</g>
</g>
<path fill="#635646" d="M760.446,114.437c0,0,18.59-5.55,31.75-4c14,1.65,31.812,19.5,49.906,19.5v90.938h-81.656V114.437z"/>
<path fill="#3B8655" stroke="#3B8655" stroke-width="0.5059" stroke-linecap="round" stroke-linejoin="round" stroke-miterlimit="10" d="
	M723.631,125.028l-0.244,0.271h-9.216c-20.343,0-37.003-17.458-52.354-26.663c-29.344-17.595-54.953-13.862-77.363-4.12
	c-27.487,11.952-41.331,17.916-64.008,15.233c-14.918-1.763-30.562-16.514-55.634-14.953c-25.641,1.596-53.701,29.474-86.367,29.14
	c0,0-29.392-1.242-49.667-5.666c-24.315-5.309-29.174,2.563-63.421,7.736c-50.035,5.549-50.035,5.549-77.246,0.598
	c-27.21-4.953-41.022-11.283-66.633-7.281c-25.608,4.003-48.361,10.271-71.398,11.137c-23.036,0.863-50.996-0.676-50.996-0.676
	l-0.054,76.418h0.054"/>
<g>
	<g>
		<g>
			<path fill="#54B06F" d="M271.507,152.188c0.005-0.427,0.003-2.919,0.381-3.726c0.93-1.987,4.004-1.998,4.004-1.998
				s0.479,4.21-2.622,4.762c-1.213,0.214-1.149,0.221-1.264,1.006l0.004,0.922l-0.5,0.002L271.507,152.188z"/>
		</g>
	</g>
	<g>
		<g>
			<path fill="#46A360" d="M271.049,150.554c-0.007-0.426-0.024-2.918-0.407-3.723c-0.945-1.98-4.02-1.969-4.02-1.969
				s-0.449,4.214,2.657,4.741c1.215,0.207,1.15,0.214,1.271,0.999l0.009,2.556l0.5-0.001L271.049,150.554z"/>
		</g>
		<g>
			<path fill="#46A360" d="M271.032,149.809c-0.028-0.927-0.113-2.396-0.391-2.978c-0.945-1.98-4.02-1.969-4.02-1.969"/>
		</g>
	</g>
	<path fill="#905B9D" d="M273.713,139.769v3.125c0,1.393-0.988,2.523-2.206,2.523l0,0c-1.219,0-2.206-1.131-2.206-2.523v-3.125
		l2.206,1.686L273.713,139.769z"/>
	<path fill="#814893" d="M271.507,145.417L271.507,145.417c-1.219,0-2.206-1.131-2.206-2.523v-3.125l2.206,1.686V145.417z"/>
</g>
<g id="Träd_17_">
	<rect x="461.527" y="134.147" fill="#AF7F48" width="3.152" height="15.256"/>
	<rect x="463.102" y="134.147" fill="#905E35" width="1.577" height="15.256"/>
	
		<path fill="#53AF6F" stroke="#53AF6F" stroke-width="0.0435" stroke-linecap="round" stroke-linejoin="round" stroke-miterlimit="10" d="
		M447.28,121.955c0-4.121,3.341-7.464,7.464-7.464c0.78,0,1.533,0.121,2.241,0.344c0.249-3.896,3.486-6.98,7.445-6.98
		c4.123,0,7.465,3.341,7.465,7.464c0,0.834-0.139,1.636-0.391,2.385c4.103,0.023,7.422,3.355,7.422,7.463
		c0,4.123-3.342,7.465-7.465,7.465c-1.382,0-2.675-0.377-3.784-1.031c-1.349,1.939-3.591,3.209-6.132,3.209
		c-3.405,0-6.275-2.281-7.172-5.397C450.423,129.218,447.28,125.953,447.28,121.955z"/>
	
		<path fill="#45A260" stroke="#45A260" stroke-width="0.0435" stroke-linecap="round" stroke-linejoin="round" stroke-miterlimit="10" d="
		M464.43,107.854c4.123,0,7.465,3.342,7.465,7.465c0,0.834-0.139,1.635-0.391,2.384c4.103,0.022,7.422,3.356,7.422,7.463
		c0,4.123-3.342,7.465-7.465,7.465c-1.382,0-2.675-0.377-3.784-1.03c-1.064,1.53-2.688,2.646-4.574,3.047c0,0,0-26.516,0-26.674
		C463.586,107.833,464.43,107.854,464.43,107.854z"/>
</g>
<g>
	<g>
		<g>
			<path fill="#54B06F" d="M260.6,152.267c0.005-0.428,0.003-2.919,0.381-3.727c0.93-1.986,4.004-1.997,4.004-1.997
				s0.479,4.21-2.622,4.761c-1.213,0.215-1.149,0.221-1.264,1.007l0.004,0.922l-0.5,0.001L260.6,152.267z"/>
		</g>
	</g>
	<g>
		<g>
			<path fill="#46A360" d="M260.141,150.632c-0.007-0.425-0.024-2.918-0.407-3.722c-0.945-1.98-4.02-1.97-4.02-1.97
				s-0.449,4.215,2.657,4.742c1.215,0.207,1.15,0.214,1.271,0.998l0.009,2.557l0.5-0.002L260.141,150.632z"/>
		</g>
		<g>
			<path fill="#46A360" d="M260.125,149.888c-0.028-0.928-0.113-2.395-0.391-2.978c-0.945-1.98-4.02-1.97-4.02-1.97"/>
		</g>
	</g>
	<path fill="#F0C40D" d="M262.806,139.847v3.125c0,1.394-0.988,2.523-2.206,2.523l0,0c-1.219,0-2.206-1.13-2.206-2.523v-3.125
		l2.206,1.686L262.806,139.847z"/>
	<path fill="#F49D16" d="M260.6,145.495L260.6,145.495c-1.219,0-2.206-1.13-2.206-2.523v-3.125l2.206,1.686V145.495z"/>
</g>
<g>
	<g>
		<g>
			<path fill="#54B06F" d="M249.431,152.188c0.005-0.428,0.003-2.919,0.381-3.727c0.93-1.986,4.004-1.998,4.004-1.998
				s0.479,4.211-2.622,4.762c-1.213,0.215-1.149,0.221-1.264,1.007l0.004,0.921l-0.5,0.002L249.431,152.188z"/>
		</g>
	</g>
	<g>
		<g>
			<path fill="#46A360" d="M248.972,150.554c-0.007-0.425-0.024-2.918-0.407-3.722c-0.945-1.981-4.02-1.97-4.02-1.97
				s-0.449,4.215,2.657,4.742c1.215,0.207,1.15,0.213,1.271,0.998l0.009,2.557l0.5-0.002L248.972,150.554z"/>
		</g>
		<g>
			<path fill="#46A360" d="M248.956,149.81c-0.028-0.928-0.113-2.396-0.391-2.979c-0.945-1.98-4.02-1.969-4.02-1.969"/>
		</g>
	</g>
	<path fill="#E74D3D" d="M251.637,139.769v3.125c0,1.394-0.987,2.523-2.206,2.523l0,0c-1.218,0-2.206-1.13-2.206-2.523v-3.125
		l2.206,1.686L251.637,139.769z"/>
	<path fill="#BF392A" d="M249.431,145.417L249.431,145.417c-1.218,0-2.206-1.13-2.206-2.523v-3.125l2.206,1.686V145.417z"/>
</g>
<path fill="#4CB37F" d="M799.696,137.687c-25.479,1.393-90.314,11.717-118.757,14.391h-40.944c-20.339,0-37.001-8.124-52.351-17.329
	c-29.345-17.597-54.954-13.86-77.362-4.121c-27.493,11.953-41.333,17.915-64.009,15.231c-14.526-1.717-39.878-13.793-65.491-12.196
	c-25.64,1.596-38.563,15.481-67.376,18.415H-0.965v68.796l800.659,0.001"/>
<g>
	<rect x="591.505" y="57.021" fill="#F6F5F6" width="94.705" height="122.18"/>
	<rect x="591.398" y="46.929" fill="#D3D3D5" width="2.2" height="10.474"/>
	<rect x="614.552" y="46.929" fill="#D3D3D5" width="2.195" height="10.474"/>
	<g>
		<rect x="637.758" y="46.929" fill="#D3D3D5" width="1.101" height="10.474"/>
		<rect x="638.858" y="46.929" fill="#F6F5F6" width="1.099" height="10.474"/>
	</g>
	<rect x="638.858" y="46.539" fill="#F6F5F6" width="47.352" height="2.199"/>
	<rect x="591.398" y="46.539" fill="#D3D3D5" width="47.46" height="2.199"/>
	<rect x="660.858" y="46.929" fill="#F6F5F6" width="2.2" height="10.474"/>
	<rect x="684.012" y="46.929" fill="#F6F5F6" width="2.197" height="10.474"/>
	<rect x="591.505" y="57.021" fill="#D3D3D5" width="47.354" height="122.18"/>
</g>
<g>
	<path fill="#6F7072" stroke="#6F7072" stroke-width="0.6058" stroke-miterlimit="10" d="M600.82,100.182
		c-6.604-17.955-25.205-30.89-47.119-30.89s-40.515,12.936-47.118,30.89H600.82z"/>
	<path fill="#58585A" stroke="#58585A" stroke-width="0.6058" stroke-linecap="round" stroke-miterlimit="10" d="M553.678,100.182
		h-47.097c6.604-17.955,25.204-30.89,47.118-30.89L553.678,100.182z"/>
	<rect x="506.349" y="100.226" fill="#F6F5F6" width="94.705" height="78.976"/>
	<rect x="506.349" y="100.226" fill="#D3D3D5" width="47.353" height="78.976"/>
</g>
<g>
	
		<rect x="364.684" y="113.035" fill="#ECECED" stroke="#ECECED" stroke-width="0.2633" stroke-miterlimit="10" width="3.658" height="84.278"/>
	
		<rect x="364.684" y="113.035" fill="#D8D9DA" stroke="#D8D9DA" stroke-width="0.2633" stroke-miterlimit="10" width="1.829" height="84.278"/>
	<rect x="352.963" y="79.439" fill="#36A862" width="27.1" height="6.666"/>
	<rect x="352.963" y="79.439" fill="#FFFFFF" width="27.1" height="33.596"/>
	<polygon fill="#F5F5F6" points="380.063,113.035 352.963,113.035 352.963,79.439 	"/>
	<g>
		
			<path fill="#58585A" stroke="#58585A" stroke-width="0.2185" stroke-linecap="round" stroke-linejoin="round" stroke-miterlimit="10" d="
			M359.305,98.586l-0.007-4.801c0.706,0.022,1.238,0.119,1.598,0.29c0.36,0.17,0.54,0.426,0.54,0.765
			c0,0.339-0.096,0.591-0.287,0.755c-0.19,0.163-0.423,0.264-0.695,0.3c0.358,0.032,0.666,0.157,0.918,0.376
			c0.253,0.219,0.38,0.539,0.38,0.96s-0.208,0.751-0.625,0.989C360.708,98.459,360.102,98.581,359.305,98.586z M361.183,94.837
			c0-0.256-0.146-0.451-0.437-0.588c-0.292-0.137-0.69-0.205-1.195-0.205v1.734C360.639,95.766,361.183,95.451,361.183,94.837z
			 M361.497,97.192c0-0.237-0.066-0.435-0.198-0.594c-0.132-0.16-0.311-0.273-0.533-0.342c-0.373-0.123-0.774-0.185-1.208-0.185
			v2.254c0.369-0.005,0.688-0.047,0.956-0.127c0.27-0.079,0.471-0.181,0.607-0.304C361.371,97.663,361.497,97.429,361.497,97.192z"
			/>
		
			<path fill="#58585A" stroke="#58585A" stroke-width="0.2185" stroke-linecap="round" stroke-linejoin="round" stroke-miterlimit="10" d="
			M362.686,95.15l-0.007,1.804c0,0.382,0.092,0.716,0.276,1c0.184,0.284,0.413,0.427,0.688,0.427s0.579-0.189,0.911-0.566V95.15
			h0.253v3.415h-0.253v-0.41c-0.296,0.319-0.616,0.478-0.963,0.478c-0.231,0-0.471-0.108-0.717-0.327
			c-0.132-0.119-0.24-0.294-0.324-0.525c-0.084-0.232-0.126-0.506-0.126-0.82l0.006-1.81L362.686,95.15L362.686,95.15z"/>
		
			<path fill="#58585A" stroke="#58585A" stroke-width="0.2185" stroke-linecap="round" stroke-linejoin="round" stroke-miterlimit="10" d="
			M366.888,98.217c0.276-0.073,0.468-0.166,0.574-0.28c0.106-0.113,0.161-0.267,0.161-0.461c0-0.193-0.073-0.345-0.221-0.454
			c-0.145-0.109-0.32-0.18-0.527-0.212c-0.208-0.031-0.414-0.067-0.622-0.105c-0.207-0.038-0.384-0.124-0.529-0.256
			c-0.146-0.133-0.218-0.323-0.218-0.574c0-0.527,0.409-0.792,1.229-0.792c0.302,0,0.648,0.032,1.045,0.096v0.267
			c-0.408-0.073-0.753-0.109-1.03-0.109s-0.514,0.039-0.707,0.119s-0.29,0.214-0.29,0.403s0.073,0.335,0.219,0.437
			c0.146,0.103,0.322,0.174,0.529,0.212c0.207,0.039,0.415,0.083,0.625,0.134c0.21,0.05,0.387,0.148,0.532,0.297
			c0.146,0.147,0.219,0.355,0.219,0.625c0,0.332-0.13,0.571-0.39,0.717c-0.128,0.073-0.251,0.131-0.368,0.174
			c-0.118,0.044-0.275,0.072-0.473,0.086c-0.31,0.027-0.604,0.04-0.888,0.04h-0.171v-0.252
			C366.18,98.326,366.614,98.29,366.888,98.217z"/>
		
			<path fill="#58585A" stroke="#58585A" stroke-width="0.2185" stroke-linecap="round" stroke-linejoin="round" stroke-miterlimit="10" d="
			M369.708,98.217c0.275-0.073,0.468-0.166,0.574-0.28c0.106-0.113,0.16-0.267,0.16-0.461c0-0.193-0.072-0.345-0.22-0.454
			c-0.146-0.109-0.321-0.18-0.528-0.212c-0.207-0.031-0.414-0.067-0.62-0.105c-0.208-0.038-0.385-0.124-0.529-0.256
			c-0.146-0.133-0.219-0.323-0.219-0.574c0-0.527,0.409-0.792,1.229-0.792c0.301,0,0.649,0.032,1.045,0.096v0.267
			c-0.41-0.073-0.753-0.109-1.031-0.109c-0.276,0-0.514,0.039-0.707,0.119c-0.192,0.08-0.29,0.214-0.29,0.403
			s0.073,0.335,0.221,0.437c0.145,0.103,0.32,0.174,0.528,0.212c0.206,0.039,0.414,0.083,0.624,0.134
			c0.209,0.05,0.388,0.148,0.532,0.297c0.146,0.147,0.219,0.355,0.219,0.625c0,0.332-0.13,0.571-0.389,0.717
			c-0.128,0.073-0.251,0.131-0.369,0.174c-0.119,0.044-0.274,0.072-0.472,0.086c-0.309,0.027-0.605,0.04-0.887,0.04h-0.171v-0.252
			C369,98.326,369.434,98.29,369.708,98.217z"/>
		
			<path fill="#58585A" stroke="#58585A" stroke-width="0.2185" stroke-linecap="round" stroke-linejoin="round" stroke-miterlimit="10" d="
			M373.728,98.565h-0.26v-4.398l-1.024,0.465v-0.253l1.284-0.594V98.565z"/>
	</g>
	<rect x="352.963" y="79.439" fill="#36A862" width="27.1" height="6.666"/>
	<rect x="352.963" y="108.987" fill="#36A862" width="27.1" height="4.048"/>
	<polygon fill="#2F9859" points="358.34,86.105 352.963,86.105 352.963,79.439 352.963,79.439 	"/>
	<polygon fill="#2F9859" points="380.063,113.035 352.963,113.035 352.963,108.987 376.797,108.987 	"/>
</g>
<g>
	<g>
		<g>
			<path fill="#45A260" d="M829.013,151.261v-3.361c0.06-1,0.073-1.041,1.671-1.316c4.088-0.697,3.49-6.245,3.49-6.245
				s-4.048-0.01-5.288,2.599c0,0-0.538,1.278-0.538,4.094v4.232h0.665V151.261z"/>
		</g>
	</g>
	<g>
		<g>
			<path fill="#53AF6E" d="M827.085,151.261v-1.24c-0.062-1-0.074-1.043-1.673-1.316c-4.086-0.699-3.487-6.245-3.487-6.245
				s4.047-0.011,5.287,2.599c0,0,0.538,1.28,0.538,4.092v2.113h-0.665V151.261z"/>
		</g>
	</g>
</g>
<g>
	<g>
		<g>
			<path fill="#45A260" d="M814.467,147.22v-2.73c0.05-0.813,0.059-0.85,1.357-1.071c3.322-0.567,2.837-5.077,2.837-5.077
				s-3.291-0.008-4.299,2.112c0,0-0.438,1.04-0.438,3.325v3.441H814.467z"/>
		</g>
	</g>
	<g>
		<g>
			<path fill="#53AF6E" d="M812.9,147.22v-1.007c-0.05-0.813-0.06-0.849-1.357-1.071c-3.323-0.567-2.839-5.076-2.839-5.076
				s3.291-0.01,4.302,2.111c0,0,0.436,1.04,0.436,3.326v1.717H812.9z"/>
		</g>
	</g>
</g>
<path fill="#786855" d="M799.696,141.937c0,0,21.099,9.41,42.195,9.41v69.526h-42.195V141.937z"/>
<g>
	<rect x="660.976" y="123.492" fill="#F6F5F6" width="141.037" height="55.709"/>
	<rect x="660.976" y="123.492" fill="#D3D3D5" width="70.521" height="55.709"/>
	<g>
		<path fill="#67A39E" stroke="#67A39E" stroke-width="1.0525" stroke-linejoin="round" stroke-miterlimit="10" d="M661.272,123.106
			c-0.045-0.221,0.066-0.438,0.271-0.527l69.73-30.612c0.12-0.054,0.258-0.054,0.376,0l69.732,30.612
			c0.206,0.087,0.317,0.307,0.271,0.527H661.272z"/>
	</g>
	<g>
		<g>
			<path fill="#4A8D85" d="M731.465,123.106h-70.192c-0.045-0.221,0.066-0.438,0.271-0.527l69.73-30.612"/>
			<path fill="#4A8D85" d="M731.465,123.511h-70.192c-0.192,0-0.356-0.135-0.396-0.32c-0.084-0.4,0.129-0.814,0.505-0.979
				l69.731-30.615c0.025-0.009,0.05-0.018,0.079-0.023l0.271-0.041L731.465,123.511L731.465,123.511z M662.264,122.703h68.799V92.5
				L662.264,122.703z"/>
		</g>
	</g>
</g>
<g>
	<g>
		<rect x="17.45" y="105.817" fill="#F5F5F6" width="36.405" height="46.942"/>
		<rect x="53.855" y="86.832" fill="#ECECED" width="93.961" height="3.01"/>
		<rect x="53.855" y="146.884" fill="#ECECED" width="93.961" height="5.875"/>
		<rect x="53.855" y="89.842" fill="#C2E5F3" width="46.98" height="57.042"/>
		<rect x="100.835" y="89.842" fill="#C2E5F3" width="46.981" height="57.042"/>
		<rect x="35.653" y="105.817" fill="#D2D3D4" width="18.203" height="46.942"/>
		<rect x="94.677" y="18.1" fill="#F5F5F6" width="12.317" height="134.659"/>
		<rect x="100.835" y="18.1" fill="#D2D3D4" width="6.159" height="134.659"/>
		<g opacity="0.15">
			<polygon opacity="0.7" fill="#0399BC" enable-background="new    " points="147.816,89.842 147.816,104.129 127.405,104.129 			
				"/>
			<polygon opacity="0.7" fill="#0399BC" enable-background="new    " points="127.405,89.842 127.405,104.129 106.994,104.129 			
				"/>
			<polygon opacity="0.7" fill="#0399BC" enable-background="new    " points="147.816,104.129 147.816,118.417 127.405,118.417 			
				"/>
			<polygon opacity="0.7" fill="#0399BC" enable-background="new    " points="127.405,104.129 127.405,118.417 106.994,118.417 			
				"/>
			<polygon opacity="0.7" fill="#0399BC" enable-background="new    " points="147.816,118.31 147.816,132.597 127.405,132.597 			
				"/>
			<polygon opacity="0.7" fill="#0399BC" enable-background="new    " points="127.405,118.31 127.405,132.597 106.994,132.597 			
				"/>
			<polygon opacity="0.7" fill="#0399BC" enable-background="new    " points="147.816,132.597 147.816,146.884 127.405,146.884 			
				"/>
			<polygon opacity="0.7" fill="#0399BC" enable-background="new    " points="127.405,132.597 127.405,146.884 106.994,146.884 			
				"/>
		</g>
		<g opacity="0.15">
			<polygon opacity="0.7" fill="#0399BC" enable-background="new    " points="94.677,89.842 94.677,104.129 74.266,104.129 			"/>
			<polygon opacity="0.7" fill="#0399BC" enable-background="new    " points="74.266,89.842 74.266,104.129 53.855,104.129 			"/>
			<polygon opacity="0.7" fill="#0399BC" enable-background="new    " points="94.677,104.129 94.677,118.417 74.266,118.417 			"/>
			<polygon opacity="0.7" fill="#0399BC" enable-background="new    " points="74.266,104.129 74.266,118.417 53.855,118.417 			"/>
			<polygon opacity="0.7" fill="#0399BC" enable-background="new    " points="94.677,118.31 94.677,132.597 74.266,132.597 			"/>
			<polygon opacity="0.7" fill="#0399BC" enable-background="new    " points="74.266,118.31 74.266,132.597 53.855,132.597 			"/>
			<polygon opacity="0.7" fill="#0399BC" enable-background="new    " points="94.677,132.597 94.677,146.884 74.266,146.884 			"/>
			<polygon opacity="0.7" fill="#0399BC" enable-background="new    " points="74.266,132.597 74.266,146.884 53.855,146.884 			"/>
		</g>
	</g>
	<rect x="17.45" y="114.448" fill="#868789" width="9.485" height="1.522"/>
	<rect x="17.45" y="117.845" fill="#868789" width="9.485" height="1.521"/>
	<rect x="17.45" y="121.241" fill="#868789" width="9.485" height="1.521"/>
</g>
</svg>
