<?xml version="1.0" encoding="utf-8"?>
<!-- Generator: Adobe Illustrator 15.0.2, SVG Export Plug-In . SVG Version: 6.00 Build 0)  -->
<!DOCTYPE svg PUBLIC "-//W3C//DTD SVG 1.1//EN" "http://www.w3.org/Graphics/SVG/1.1/DTD/svg11.dtd">
<svg version="1.1" id="Lager_1" xmlns="http://www.w3.org/2000/svg" xmlns:xlink="http://www.w3.org/1999/xlink" x="0px" y="0px"
	 width="14191.365px" height="308.803px" viewBox="0 0 14191.365 308.803" enable-background="new 0 0 14191.365 308.803"
	 xml:space="preserve">
<g>
	
		<path fill="#D9DBDB" stroke="#D9DBDB" stroke-width="1.8549" stroke-linecap="round" stroke-linejoin="round" stroke-miterlimit="10" d="
		M8370.523,0"/>
	
		<path opacity="0.2" fill="#FFFFFF" stroke="#FFFFFF" stroke-width="1.7458" stroke-linecap="round" stroke-linejoin="round" stroke-miterlimit="10" enable-background="new    " d="
		M724.835,288.838c-1.426,0-2.79,0.271-4.047,0.76c-0.711-7.836-7.315-13.997-15.334-13.997c-2.633,0-5.112,0.664-7.281,1.833
		c-2.646-7.521-9.818-12.927-18.233-12.927c-10.654,0-19.324,8.669-19.324,19.325c0,0.85,0.061,1.685,0.167,2.505
		c-1.621-0.738-3.42-1.153-5.315-1.153c-7.098,0-12.872,5.775-12.872,12.873c0,3.439,1.339,6.672,3.771,9.104
		c0.491,0.489,1.157,0.769,1.854,0.769h83.396c0.001,0,0.001,0,0.001,0c0.81,0,1.571-0.373,2.068-1.012
		c1.541-1.982,2.354-4.358,2.354-6.873C736.039,293.865,731.015,288.838,724.835,288.838z"/>
	<path opacity="0.4" fill="#FFFFFF" enable-background="new    " d="M159.558,157.626c0.006-0.312,0.022-0.616,0.022-0.93
		c0-20.884-16.99-37.874-37.874-37.874c-14.665,0-27.398,8.385-33.689,20.604c-5.004-4.988-11.875-7.956-19.105-7.956
		c-12.783,0-23.651,8.812-26.372,21.158c-3.751-1.576-7.722-2.373-11.829-2.373C13.777,150.256,0,164.031,0,180.967
		c0,5.311,1.377,10.545,3.982,15.137c0.359,0.632,1.031,1.024,1.758,1.024h153.298l16.651,0.002h0.001
		c0.574,0,1.125-0.246,1.506-0.677c3.822-4.279,5.928-9.8,5.928-15.543C183.123,168.574,174.271,156.697,159.558,157.626z"/>
	
		<path opacity="0.2" fill="#FFFFFF" stroke="#FFFFFF" stroke-width="4.3229" stroke-linecap="round" stroke-linejoin="round" stroke-miterlimit="10" enable-background="new    " d="
		M2037.502,124.597c0.007-0.332,0.023-0.662,0.023-0.996c0-22.403-18.228-40.631-40.632-40.631c-15.73,0-29.393,8.993-36.142,22.103
		c-5.368-5.352-12.74-8.536-20.497-8.536c-13.716,0-25.374,9.455-28.292,22.699c-4.024-1.689-8.284-2.546-12.691-2.546
		c-18.166,0-32.945,14.78-32.945,32.947c0,5.697,1.479,11.312,4.272,16.239c0.385,0.678,1.104,1.098,1.885,1.098h164.458
		l17.863,0.002h0.001c0.616,0,1.207-0.264,1.616-0.723c4.1-4.596,6.356-10.516,6.356-16.678
		C2062.783,136.343,2053.286,123.601,2037.502,124.597z"/>
	
		<path opacity="0.4" fill="#FFFFFF" stroke="#FFFFFF" stroke-width="1.4" stroke-linecap="round" stroke-linejoin="round" stroke-miterlimit="10" enable-background="new    " d="
		M1095.497,86.116c-1.427,0-2.79,0.271-4.047,0.762c-0.712-7.836-7.315-13.997-15.334-13.997c-2.635,0-5.113,0.664-7.281,1.833
		c-2.646-7.521-9.818-12.929-18.232-12.929c-10.655,0-19.326,8.669-19.326,19.325c0,0.852,0.062,1.687,0.167,2.505
		c-1.621-0.736-3.42-1.151-5.313-1.151c-7.099,0-12.873,5.773-12.873,12.873c0,3.438,1.339,6.672,3.771,9.103
		c0.492,0.491,1.158,0.771,1.854,0.771h83.395c0.001,0,0.001,0,0.001,0c0.812,0,1.573-0.373,2.07-1.014
		c1.541-1.98,2.354-4.356,2.354-6.873C1106.701,91.143,1101.676,86.116,1095.497,86.116z"/>
	
		<path opacity="0.2" fill="#FFFFFF" stroke="#FFFFFF" stroke-width="1.7458" stroke-linecap="round" stroke-linejoin="round" stroke-miterlimit="10" enable-background="new    " d="
		M1542.547,219.732c-0.099,0-0.197,0.005-0.297,0.008c0.04-0.524,0.066-1.058,0.066-1.594c0-11.556-9.401-20.958-20.957-20.958
		c-8.136,0-15.195,4.662-18.668,11.451c-2.487-2.569-5.97-4.171-9.818-4.171c-7.542,0-13.678,6.136-13.678,13.678
		c0,0.739,0.061,1.466,0.174,2.174c-1.116-0.302-2.29-0.465-3.501-0.465c-7.412,0-13.442,6.029-13.442,13.441
		c0,2.45,0.665,4.849,1.925,6.937c0.12,0.196,0.332,0.316,0.562,0.316h87.393c0.206,0,0.399-0.1,0.523-0.262
		c1.679-2.238,2.564-4.902,2.564-7.707C1555.395,225.497,1549.632,219.732,1542.547,219.732z"/>
	
		<path opacity="0.4" fill="#FFFFFF" stroke="#FFFFFF" stroke-width="1.4" stroke-linecap="round" stroke-linejoin="round" stroke-miterlimit="10" enable-background="new    " d="
		M3935.188,129.508c-1.426,0-2.791,0.271-4.047,0.76c-0.711-7.836-7.314-13.997-15.334-13.997c-2.634,0-5.111,0.664-7.28,1.833
		c-2.646-7.521-9.818-12.927-18.232-12.927c-10.655,0-19.325,8.669-19.325,19.325c0,0.85,0.062,1.685,0.168,2.505
		c-1.621-0.738-3.42-1.153-5.315-1.153c-7.098,0-12.872,5.775-12.872,12.873c0,3.439,1.339,6.672,3.771,9.103
		c0.49,0.491,1.156,0.771,1.854,0.771h83.395c0.002,0,0.002,0,0.002,0c0.811,0,1.572-0.373,2.069-1.012
		c1.541-1.982,2.354-4.358,2.354-6.873C3946.391,134.533,3941.365,129.508,3935.188,129.508z"/>
	
		<path opacity="0.2" fill="#FFFFFF" stroke="#FFFFFF" stroke-width="1.7458" stroke-linecap="round" stroke-linejoin="round" stroke-miterlimit="10" enable-background="new    " d="
		M3413.445,256.778c-0.101,0-0.197,0.005-0.299,0.008c0.04-0.525,0.066-1.058,0.066-1.594c0-11.557-9.401-20.958-20.957-20.958
		c-8.137,0-15.195,4.661-18.667,11.45c-2.488-2.568-5.972-4.17-9.819-4.17c-7.542,0-13.678,6.136-13.678,13.678
		c0,0.739,0.061,1.465,0.174,2.176c-1.116-0.304-2.29-0.467-3.501-0.467c-7.412,0-13.44,6.029-13.44,13.441
		c0,2.449,0.664,4.848,1.925,6.936c0.12,0.197,0.332,0.316,0.562,0.316h87.395c0.206,0,0.397-0.097,0.521-0.262
		c1.68-2.237,2.566-4.902,2.566-7.707C3426.293,262.543,3420.529,256.778,3413.445,256.778z"/>
	
		<path opacity="0.2" fill="#FFFFFF" stroke="#FFFFFF" stroke-width="3.74" stroke-linecap="round" stroke-linejoin="round" stroke-miterlimit="10" enable-background="new    " d="
		M5400.384,212.114c-0.211,0-0.423,0.013-0.636,0.018c0.086-1.129,0.143-2.266,0.143-3.414c0-24.755-20.141-44.896-44.896-44.896
		c-17.426,0-32.551,9.985-39.99,24.529c-5.33-5.503-12.789-8.934-21.035-8.934c-16.158,0-29.301,13.145-29.301,29.301
		c0,1.585,0.129,3.141,0.371,4.657c-2.391-0.646-4.904-0.995-7.5-0.995c-15.877,0-28.797,12.916-28.797,28.795
		c0,5.248,1.426,10.387,4.125,14.856c0.256,0.421,0.711,0.681,1.203,0.681h187.219c0.44,0,0.854-0.208,1.121-0.562
		c3.598-4.793,5.498-10.502,5.498-16.51C5427.906,224.463,5415.562,212.114,5400.384,212.114z"/>
	
		<path opacity="0.4" fill="#FFFFFF" stroke="#FFFFFF" stroke-width="1.4" stroke-linecap="round" stroke-linejoin="round" stroke-miterlimit="10" enable-background="new    " d="
		M2446.615,251.644c-1.426,0-2.79,0.271-4.047,0.759c-0.711-7.837-7.315-13.997-15.334-13.997c-2.635,0-5.112,0.664-7.281,1.832
		c-2.646-7.52-9.818-12.926-18.232-12.926c-10.656,0-19.326,8.669-19.326,19.326c0,0.85,0.062,1.684,0.168,2.504
		c-1.623-0.738-3.42-1.152-5.314-1.152c-7.098,0-12.872,5.773-12.872,12.871c0,3.439,1.339,6.674,3.771,9.104
		c0.491,0.491,1.157,0.768,1.854,0.768l83.396,0.001c0.002,0,0.002,0,0.002,0c0.81,0,1.571-0.374,2.068-1.013
		c1.541-1.979,2.354-4.355,2.354-6.872C2457.818,256.67,2452.795,251.644,2446.615,251.644z"/>
	
		<path opacity="0.2" fill="#FFFFFF" stroke="#FFFFFF" stroke-width="3.1033" stroke-linecap="round" stroke-linejoin="round" stroke-miterlimit="10" enable-background="new    " d="
		M4410.113,218.599c0.004-0.238,0.017-0.475,0.017-0.715c0-16.082-13.085-29.168-29.168-29.168
		c-11.293,0-21.101,6.457-25.944,15.867c-3.854-3.844-9.146-6.127-14.715-6.127c-9.845,0-18.215,6.785-20.31,16.294
		c-2.89-1.216-5.948-1.827-9.11-1.827c-13.041,0-23.649,10.608-23.649,23.65c0,4.092,1.062,8.121,3.065,11.656
		c0.276,0.486,0.795,0.789,1.354,0.789h118.06l12.824,0.002l0,0c0.442,0,0.867-0.188,1.16-0.52c2.943-3.298,4.564-7.55,4.564-11.973
		C4428.261,227.031,4421.443,217.885,4410.113,218.599z"/>
	
		<path opacity="0.4" fill="#FFFFFF" stroke="#FFFFFF" stroke-width="1.4" stroke-linecap="round" stroke-linejoin="round" stroke-miterlimit="10" enable-background="new    " d="
		M6518.885,159.59c-1.426,0-2.79,0.271-4.047,0.759c-0.711-7.837-7.314-13.997-15.334-13.997c-2.633,0-5.111,0.664-7.281,1.832
		c-2.646-7.521-9.816-12.926-18.23-12.926c-10.654,0-19.326,8.669-19.326,19.326c0,0.85,0.062,1.684,0.167,2.504
		c-1.621-0.738-3.42-1.152-5.313-1.152c-7.1,0-12.873,5.773-12.873,12.871c0,3.438,1.34,6.672,3.771,9.104
		c0.492,0.491,1.158,0.77,1.854,0.77l83.396,0.001c0.001,0,0.001,0,0.001,0c0.811,0,1.573-0.374,2.07-1.013
		c1.541-1.981,2.354-4.357,2.354-6.872C6530.089,164.614,6525.064,159.59,6518.885,159.59z"/>
	
		<path opacity="0.2" fill="#FFFFFF" stroke="#FFFFFF" stroke-width="1.7458" stroke-linecap="round" stroke-linejoin="round" stroke-miterlimit="10" enable-background="new    " d="
		M6022.188,235.098c-0.099,0-0.195,0.005-0.297,0.008c0.041-0.526,0.066-1.058,0.066-1.594c0-11.558-9.4-20.958-20.957-20.958
		c-8.135,0-15.195,4.662-18.667,11.451c-2.487-2.569-5.97-4.171-9.819-4.171c-7.541,0-13.678,6.136-13.678,13.678
		c0,0.739,0.061,1.466,0.174,2.174c-1.116-0.302-2.29-0.465-3.501-0.465c-7.412,0-13.442,6.029-13.442,13.439
		c0,2.45,0.666,4.851,1.926,6.938c0.119,0.196,0.332,0.316,0.562,0.316h87.395c0.205,0,0.397-0.1,0.521-0.264
		c1.68-2.236,2.564-4.9,2.564-7.707C6035.035,240.862,6029.273,235.098,6022.188,235.098z"/>
	
		<path opacity="0.2" fill="#FFFFFF" stroke="#FFFFFF" stroke-width="5.1734" stroke-linecap="round" stroke-linejoin="round" stroke-miterlimit="10" enable-background="new    " d="
		M7244.318,207.88c0.008-0.396,0.027-0.791,0.027-1.19c0-26.812-21.812-48.626-48.626-48.626c-18.828,0-35.177,10.763-43.253,26.451
		c-6.424-6.405-15.247-10.215-24.527-10.215c-16.412,0-30.367,11.312-33.858,27.164c-4.815-2.022-9.915-3.046-15.188-3.046
		c-21.74,0-39.429,17.688-39.429,39.43c0,6.818,1.769,13.539,5.114,19.434c0.459,0.812,1.324,1.314,2.256,1.314h196.813
		l21.377,0.002h0.002c0.737,0,1.442-0.313,1.935-0.865c4.908-5.496,7.608-12.582,7.608-19.955
		C7274.57,221.937,7263.206,206.688,7244.318,207.88z"/>
	
		<path opacity="0.4" fill="#FFFFFF" stroke="#FFFFFF" stroke-width="1.4" stroke-linecap="round" stroke-linejoin="round" stroke-miterlimit="10" enable-background="new    " d="
		M5106.996,104.58c-1.426,0-2.79,0.271-4.047,0.761c-0.711-7.836-7.314-13.996-15.334-13.996c-2.633,0-5.111,0.664-7.281,1.832
		c-2.646-7.521-9.816-12.926-18.23-12.926c-10.654,0-19.326,8.668-19.326,19.323c0,0.852,0.062,1.687,0.167,2.505
		c-1.621-0.736-3.42-1.151-5.313-1.151c-7.1,0-12.873,5.772-12.873,12.872c0,3.438,1.34,6.672,3.771,9.104
		c0.492,0.49,1.158,0.77,1.854,0.77h83.396c0.001,0,0.001,0,0.001,0c0.811,0,1.573-0.373,2.07-1.014
		c1.541-1.98,2.354-4.355,2.354-6.873C5118.199,109.606,5113.176,104.58,5106.996,104.58z"/>
	
		<path opacity="0.4" fill="#FFFFFF" stroke="#FFFFFF" stroke-width="1.4" stroke-linecap="round" stroke-linejoin="round" stroke-miterlimit="10" enable-background="new    " d="
		M8202.199,137.879c-1.426,0-2.791,0.271-4.047,0.76c-0.711-7.837-7.316-13.998-15.334-13.998c-2.633,0-5.113,0.664-7.281,1.833
		c-2.646-7.521-9.818-12.927-18.232-12.927c-10.656,0-19.326,8.67-19.326,19.324c0,0.852,0.061,1.686,0.166,2.506
		c-1.621-0.738-3.42-1.152-5.314-1.152c-7.098,0-12.873,5.774-12.873,12.872c0,3.438,1.34,6.672,3.771,9.103
		c0.492,0.492,1.158,0.771,1.854,0.771l83.395,0.001c0.002,0,0.002,0,0.002,0c0.809,0,1.572-0.374,2.07-1.013
		c1.541-1.981,2.354-4.358,2.354-6.872C8213.402,142.903,8208.379,137.879,8202.199,137.879z"/>
	
		<path opacity="0.2" fill="#FFFFFF" stroke="#FFFFFF" stroke-width="3.1033" stroke-linecap="round" stroke-linejoin="round" stroke-miterlimit="10" enable-background="new    " d="
		M8779.203,233.965c0.006-0.238,0.018-0.477,0.018-0.715c0-16.082-13.084-29.168-29.168-29.168c-11.293,0-21.1,6.455-25.945,15.865
		c-3.854-3.842-9.145-6.127-14.713-6.127c-9.846,0-18.215,6.787-20.311,16.294c-2.889-1.214-5.947-1.827-9.109-1.827
		c-13.041,0-23.652,10.61-23.652,23.652c0,4.09,1.061,8.121,3.068,11.656c0.275,0.486,0.793,0.789,1.354,0.789h118.059l12.824,0.002
		l0,0c0.443,0,0.867-0.188,1.16-0.52c2.943-3.298,4.564-7.55,4.564-11.973C8797.352,242.396,8790.535,233.25,8779.203,233.965z"/>
	
		<path opacity="0.4" fill="#FFFFFF" stroke="#FFFFFF" stroke-width="2.7766" stroke-linecap="round" stroke-linejoin="round" stroke-miterlimit="10" enable-background="new    " d="
		M9602.764,162.057c-2.828,0-5.533,0.538-8.025,1.506c-1.41-15.542-14.508-27.76-30.412-27.76c-5.221,0-10.139,1.315-14.439,3.635
		c-5.25-14.915-19.473-25.637-36.16-25.637c-21.135,0-38.328,17.19-38.328,38.328c0,1.685,0.119,3.341,0.33,4.967
		c-3.215-1.464-6.781-2.286-10.541-2.286c-14.076,0-25.529,11.452-25.529,25.529c0,6.818,2.654,13.229,7.477,18.053
		c0.977,0.975,2.299,1.521,3.68,1.521l165.393,0.003c0.002,0,0.002,0,0.002,0c1.605,0,3.121-0.74,4.105-2.009
		c3.057-3.932,4.67-8.644,4.67-13.631C9624.984,172.024,9615.02,162.057,9602.764,162.057z"/>
	
		<path opacity="0.2" fill="#FFFFFF" stroke="#FFFFFF" stroke-width="1.7458" stroke-linecap="round" stroke-linejoin="round" stroke-miterlimit="10" enable-background="new    " d="
		M7921.664,84.358c-0.1,0-0.197,0.006-0.297,0.008c0.04-0.525,0.066-1.057,0.066-1.594c0-11.556-9.401-20.957-20.957-20.957
		c-8.135,0-15.195,4.66-18.668,11.449c-2.487-2.568-5.971-4.17-9.818-4.17c-7.542,0-13.678,6.137-13.678,13.678
		c0,0.74,0.061,1.466,0.174,2.174c-1.117-0.301-2.291-0.465-3.502-0.465c-7.412,0-13.441,6.029-13.441,13.441
		c0,2.45,0.665,4.849,1.925,6.936c0.12,0.197,0.332,0.317,0.562,0.317h87.395c0.206,0,0.398-0.099,0.521-0.265
		c1.681-2.234,2.566-4.9,2.566-7.704C7934.512,90.122,7928.749,84.358,7921.664,84.358z"/>
	
		<path opacity="0.2" fill="#FFFFFF" stroke="#FFFFFF" stroke-width="3.0111" stroke-linecap="round" stroke-linejoin="round" stroke-miterlimit="10" enable-background="new    " d="
		M10881.949,98.036c-0.168,0-0.34,0.012-0.512,0.016c0.07-0.908,0.113-1.823,0.113-2.748c0-19.934-16.213-36.147-36.146-36.147
		c-14.029,0-26.207,8.04-32.193,19.749c-4.293-4.431-10.299-7.191-16.939-7.191c-13.008,0-23.592,10.584-23.592,23.592
		c0,1.273,0.105,2.526,0.301,3.749c-1.924-0.521-3.949-0.802-6.037-0.802c-12.785,0-23.189,10.396-23.189,23.184
		c0,4.226,1.148,8.362,3.322,11.963c0.205,0.34,0.572,0.547,0.967,0.547h150.732c0.357,0,0.689-0.168,0.902-0.453
		c2.896-3.856,4.426-8.455,4.426-13.291C10904.107,107.979,10894.17,98.036,10881.949,98.036z"/>
	
		<path opacity="0.4" fill="#FFFFFF" stroke="#FFFFFF" stroke-width="1.4" stroke-linecap="round" stroke-linejoin="round" stroke-miterlimit="10" enable-background="new    " d="
		M10563.482,235.532c-1.426,0-2.789,0.271-4.047,0.762c-0.711-7.836-7.314-13.997-15.334-13.997c-2.633,0-5.111,0.664-7.281,1.833
		c-2.646-7.521-9.818-12.929-18.232-12.929c-10.656,0-19.326,8.669-19.326,19.325c0,0.852,0.061,1.687,0.168,2.505
		c-1.621-0.736-3.42-1.151-5.316-1.151c-7.098,0-12.871,5.773-12.871,12.873c0,3.438,1.338,6.672,3.77,9.103
		c0.492,0.491,1.158,0.771,1.855,0.771h83.395l0,0c0.811,0,1.574-0.373,2.07-1.014c1.541-1.98,2.355-4.356,2.355-6.873
		C10574.688,240.559,10569.662,235.532,10563.482,235.532z"/>
	
		<path opacity="0.2" fill="#FFFFFF" stroke="#FFFFFF" stroke-width="3.1033" stroke-linecap="round" stroke-linejoin="round" stroke-miterlimit="10" enable-background="new    " d="
		M3121.363,168.51c-0.177,0-0.352,0.01-0.527,0.015c0.07-0.937,0.117-1.879,0.117-2.834c0-20.54-16.711-37.253-37.252-37.253
		c-14.461,0-27.013,8.286-33.185,20.354c-4.423-4.566-10.611-7.413-17.454-7.413c-13.407,0-24.312,10.905-24.312,24.312
		c0,1.315,0.107,2.605,0.31,3.865c-1.983-0.536-4.07-0.826-6.224-0.826c-13.177,0-23.896,10.717-23.896,23.895
		c0,4.354,1.182,8.617,3.421,12.328c0.213,0.352,0.591,0.562,0.998,0.562h155.348c0.366,0,0.709-0.172,0.931-0.466
		c2.983-3.979,4.562-8.714,4.562-13.699C3144.201,178.758,3133.957,168.51,3121.363,168.51z"/>
	
		<path opacity="0.2" fill="#FFFFFF" stroke="#FFFFFF" stroke-width="3.1033" stroke-linecap="round" stroke-linejoin="round" stroke-miterlimit="10" enable-background="new    " d="
		M12431.146,145.407c0.006-0.235,0.018-0.475,0.018-0.714c0-16.084-13.084-29.168-29.168-29.168c-11.293,0-21.1,6.455-25.945,15.866
		c-3.854-3.842-9.145-6.128-14.713-6.128c-9.846,0-18.215,6.787-20.311,16.295c-2.889-1.213-5.947-1.827-9.109-1.827
		c-13.041,0-23.652,10.61-23.652,23.651c0,4.09,1.061,8.121,3.068,11.658c0.275,0.484,0.793,0.786,1.354,0.786h118.059l12.824,0.001
		l0,0c0.443,0,0.867-0.188,1.16-0.52c2.943-3.297,4.564-7.547,4.564-11.97C12449.295,153.841,12442.479,144.693,12431.146,145.407z"
		/>
	
		<path opacity="0.2" fill="#FFFFFF" stroke="#FFFFFF" stroke-width="1.7458" stroke-linecap="round" stroke-linejoin="round" stroke-miterlimit="10" enable-background="new    " d="
		M12013.602,229.308c-0.098,0-0.197,0.005-0.297,0.008c0.041-0.526,0.066-1.058,0.066-1.594c0-11.556-9.4-20.958-20.957-20.958
		c-8.135,0-15.195,4.662-18.666,11.451c-2.488-2.569-5.971-4.171-9.82-4.171c-7.541,0-13.678,6.136-13.678,13.678
		c0,0.739,0.061,1.466,0.174,2.174c-1.115-0.302-2.289-0.465-3.5-0.465c-7.412,0-13.443,6.029-13.443,13.439
		c0,2.45,0.666,4.851,1.926,6.938c0.119,0.196,0.332,0.316,0.561,0.316h87.393c0.207,0,0.4-0.1,0.523-0.264
		c1.68-2.236,2.566-4.9,2.566-7.707C12026.449,235.072,12020.688,229.308,12013.602,229.308z"/>
	
		<path opacity="0.2" fill="#FFFFFF" stroke="#FFFFFF" stroke-width="3.1033" stroke-linecap="round" stroke-linejoin="round" stroke-miterlimit="10" enable-background="new    " d="
		M13983.922,138.412c0.006-0.235,0.018-0.475,0.018-0.714c0-16.084-13.084-29.168-29.168-29.168c-11.293,0-21.1,6.455-25.945,15.866
		c-3.854-3.842-9.145-6.128-14.713-6.128c-9.846,0-18.215,6.787-20.311,16.295c-2.889-1.213-5.947-1.827-9.109-1.827
		c-13.041,0-23.652,10.61-23.652,23.651c0,4.09,1.061,8.121,3.068,11.658c0.275,0.484,0.793,0.788,1.354,0.788h118.059l12.824,0.001
		l0,0c0.443,0,0.867-0.189,1.16-0.521c2.943-3.297,4.564-7.547,4.564-11.97C14002.07,146.845,13995.254,137.698,13983.922,138.412z"
		/>
	
		<path opacity="0.2" fill="#FFFFFF" stroke="#FFFFFF" stroke-width="1.7458" stroke-linecap="round" stroke-linejoin="round" stroke-miterlimit="10" enable-background="new    " d="
		M14177.646,191.38c-0.1,0-0.197,0.005-0.297,0.008c0.039-0.526,0.066-1.06,0.066-1.594c0-11.558-9.402-20.958-20.957-20.958
		c-8.135,0-15.195,4.662-18.668,11.449c-2.488-2.567-5.969-4.171-9.818-4.171c-7.543,0-13.678,6.138-13.678,13.68
		c0,0.737,0.061,1.466,0.174,2.174c-1.117-0.302-2.291-0.465-3.502-0.465c-7.412,0-13.441,6.027-13.441,13.439
		c0,2.45,0.664,4.851,1.924,6.938c0.121,0.194,0.332,0.314,0.561,0.314h87.393c0.207,0,0.398-0.098,0.523-0.262
		c1.678-2.238,2.566-4.902,2.566-7.707C14190.494,197.144,14184.73,191.38,14177.646,191.38z"/>
	
		<path opacity="0.4" fill="#FFFFFF" stroke="#FFFFFF" stroke-width="2.8113" stroke-linecap="round" stroke-linejoin="round" stroke-miterlimit="10" enable-background="new    " d="
		M12822.844,241.256c-2.863,0-5.604,0.543-8.127,1.521c-1.428-15.734-14.689-28.104-30.791-28.104
		c-5.287,0-10.266,1.333-14.621,3.679c-5.314-15.1-19.717-25.955-36.611-25.955c-21.4,0-38.809,17.407-38.809,38.809
		c0,1.705,0.121,3.381,0.334,5.027c-3.254-1.48-6.867-2.312-10.672-2.312c-14.254,0-25.85,11.594-25.85,25.846
		c0,6.906,2.689,13.398,7.572,18.281c0.988,0.986,2.324,1.541,3.723,1.541l167.463,0.002h0.002c1.625,0,3.158-0.752,4.158-2.033
		c3.094-3.979,4.727-8.75,4.727-13.8C12845.342,251.347,12835.252,241.256,12822.844,241.256z"/>
</g>
</svg>
