<?xml version="1.0" encoding="utf-8"?>
<!-- Generator: Adobe Illustrator 15.0.2, SVG Export Plug-In . SVG Version: 6.00 Build 0)  -->
<!DOCTYPE svg PUBLIC "-//W3C//DTD SVG 1.1//EN" "http://www.w3.org/Graphics/SVG/1.1/DTD/svg11.dtd">
<svg version="1.1" id="Lager_1" xmlns="http://www.w3.org/2000/svg" xmlns:xlink="http://www.w3.org/1999/xlink" x="0px" y="0px"
	 width="347.503px" height="103.537px" viewBox="25.999 0 347.503 103.537" enable-background="new 25.999 0 347.503 103.537"
	 xml:space="preserve">
<g>
	<g>
		<path fill="#4195CD" d="M371.915,81.237c-0.005,0-0.015,0-0.021,0h-23.5c-0.801,0-1.477-0.594-1.578-1.389
			c-1.52-11.941-11.751-20.947-23.804-20.947c-12.054,0-22.286,9.006-23.805,20.947c-0.103,0.795-0.778,1.389-1.578,1.389h-98.05
			c-0.801,0-1.476-0.594-1.576-1.389c-1.52-11.941-11.754-20.947-23.806-20.947c-12.051,0-22.286,9.006-23.805,20.947
			c-0.102,0.795-0.776,1.389-1.576,1.389h-16.119c-0.878,0-1.59-0.711-1.59-1.59V39.094c0-0.329,0.103-0.65,0.294-0.921
			L158.07,0.669C158.368,0.25,158.852,0,159.366,0h96.612c0.248,0,0.493,0.058,0.715,0.169
			c14.225,7.152,45.238,27.452,48.277,29.447c4.812,1.119,57.212,13.335,62.145,15.561c0.477,0.215,0.816,0.651,0.911,1.166
			c3.323,18.345,5.131,30.896,5.405,32.828c0.047,0.15,0.071,0.311,0.071,0.479C373.503,80.526,372.792,81.237,371.915,81.237z"/>
		<path fill="#EFF8FC" d="M153.322,36.151l12.444-28.514h88.754c15.057,7.839,41.292,28.302,41.612,28.514H153.322z"/>
		
			<path fill="none" stroke="#2F995A" stroke-width="5.3334" stroke-linecap="round" stroke-linejoin="round" stroke-miterlimit="10" d="
			M171.455,40.331"/>
		<g>
			<g>
				<polygon fill="#FFFFFF" points="357.473,58.521 369.947,58.521 368.667,50.671 357.473,50.671 				"/>
				<path fill="#FFFFFF" d="M370.523,59.688h-13.05c-0.646,0-1.165-0.522-1.165-1.168V50.67c0-0.644,0.521-1.167,1.165-1.167h11.192
					L370.523,59.688z"/>
			</g>
		</g>
		<polygon fill="#DFEAEF" points="294.566,36.151 153.322,36.151 165.766,7.638 		"/>
		<polygon fill="#F09304" points="141.487,59.351 131.115,59.351 131.115,49.635 135.702,49.635 		"/>
		<g>
			<circle fill="#FFFFFF" stroke="#1B171B" stroke-width="10.1264" stroke-miterlimit="10" cx="174.197" cy="83.581" r="14.893"/>
		</g>
		<g>
			<circle fill="#FFFFFF" stroke="#1B171B" stroke-width="10.1264" stroke-miterlimit="10" cx="323.35" cy="83.581" r="14.893"/>
		</g>
		<g>
			<rect x="232.166" y="5.487" fill="#4195CD" width="3.2" height="32.797"/>
		</g>
		<g>
			<rect x="172.598" y="5.487" fill="#4195CD" width="3.199" height="32.797"/>
		</g>
		
			<path opacity="0.5" fill="none" stroke="#2177A7" stroke-width="3.2" stroke-linejoin="round" stroke-miterlimit="10" enable-background="new    " d="
			M294.638,31.376v42.225h-90.197c-4.012-13.043-16.19-22.335-30.244-22.335V36.151"/>
		<g opacity="0.5">
			
				<line fill="none" stroke="#2177A7" stroke-width="3.2" stroke-linejoin="round" stroke-miterlimit="10" x1="233.766" y1="36.151" x2="233.766" y2="71.964"/>
		</g>
		
			<line fill="none" stroke="#243140" stroke-width="3.2" stroke-linecap="round" stroke-linejoin="round" stroke-miterlimit="10" x1="182.208" y1="44.445" x2="191.276" y2="44.445"/>
		
			<line fill="none" stroke="#243140" stroke-width="3.2" stroke-linecap="round" stroke-linejoin="round" stroke-miterlimit="10" x1="241.222" y1="44.445" x2="250.29" y2="44.445"/>
		
			<circle fill="#4195CD" stroke="#1A6995" stroke-width="1.9548" stroke-linecap="round" stroke-linejoin="round" stroke-miterlimit="10" cx="152.22" cy="48.316" r="5.878"/>
		<path fill="#1A6995" d="M298.8,33.043c0,2.896-2.347,5.241-5.239,5.241h-7.86c-2.894,0-5.24-2.346-5.24-5.241l0,0
			c0-2.895,2.348-5.241,5.24-5.241h7.86C296.454,27.802,298.8,30.148,298.8,33.043L298.8,33.043z"/>
	</g>
	<g>
		<path fill="#FFFFFF" d="M93.256,39.301c-4.031-0.447-7.887,0.582-11.029,2.647c-3.446-4.809-8.825-8.205-15.17-8.908
			c-9.822-1.091-18.817,4.593-22.375,13.311c-9.26-0.887-17.549,5.815-18.577,15.092c-1.039,9.364,5.711,17.796,15.075,18.832
			c1.414,0.155,2.801,0.116,4.15-0.065c2.029,5.395,6.929,9.486,13.05,10.163c6.687,0.743,12.844-2.808,15.766-8.443
			c2.171,2.372,5.168,4.006,8.614,4.388c7.543,0.837,14.339-4.603,15.178-12.146c0.107-0.969,0.107-1.924,0.016-2.856
			c5.373-2.291,9.395-7.326,10.085-13.546C109.058,48.588,102.435,40.319,93.256,39.301z"/>
		<g>
			<g>
				<g>
					<path fill="#368756" d="M67.876,73.021c0.024-1.516,0.048-10.377,1.403-13.24c3.328-7.053,14.262-7.053,14.262-7.053
						s1.649,14.978-9.383,16.893c-4.317,0.748-4.091,0.772-4.503,3.566v3.273h-1.779V73.021z"/>
				</g>
			</g>
			<g>
				<g>
					<path fill="#368756" d="M66.265,67.207c-0.021-1.514-0.049-10.374-1.399-13.238C61.533,46.915,50.6,46.915,50.6,46.915
						s-1.648,14.978,9.385,16.893c4.317,0.749,4.086,0.775,4.505,3.564v9.091h1.776V67.207z"/>
				</g>
				<g>
					<path fill="#368756" d="M66.216,64.557c-0.088-3.295-0.373-8.515-1.35-10.588C61.533,46.915,50.6,46.915,50.6,46.915"/>
				</g>
			</g>
		</g>
	</g>
</g>
</svg>
