<?xml version="1.0" encoding="utf-8"?>
<!-- Generator: Adobe Illustrator 17.1.0, SVG Export Plug-In . SVG Version: 6.00 Build 0)  -->
<!DOCTYPE svg PUBLIC "-//W3C//DTD SVG 1.1//EN" "http://www.w3.org/Graphics/SVG/1.1/DTD/svg11.dtd">
<svg version="1.1" xmlns="http://www.w3.org/2000/svg" xmlns:xlink="http://www.w3.org/1999/xlink" x="0px" y="0px"
	 width="283.661px" height="828.82px" viewBox="0 0 283.661 828.82" enable-background="new 0 0 283.661 828.82"
	 xml:space="preserve">
<g id="Väg" display="none">
	
		<rect x="-256.502" y="90.29" display="inline" fill="#3E3D40" stroke="#3E3D40" stroke-width="4.7728" stroke-linecap="round" stroke-linejoin="round" stroke-miterlimit="10" width="846" height="799.065"/>
</g>
<g id="Sidan" display="none">
	<path display="inline" fill="#BDC3C7" d="M306.57-26.46c23.176,0,42.295,17.327,45.145,39.728h174.391
		c2.85-22.4,21.967-39.728,45.143-39.728c23.174,0,42.295,17.327,45.144,39.728h41.793c0,0-3.193-23.021-9.66-58.733
		c-8.854-3.995-110.498-27.612-110.498-27.612s-59.357-39.09-86.004-52.486c-31.443,0-171.832,0-171.832,0L232.76-58.861v72.129
		h28.668C264.277-9.133,283.396-26.46,306.57-26.46z"/>
	<path display="inline" fill="#3F96CE" d="M658.223,16.094c-0.008,0.002-0.023,0.002-0.037,0h-41.793
		c-1.424,0-2.627-1.057-2.807-2.469c-2.701-21.24-20.902-37.258-42.338-37.258S531.611-7.615,528.91,13.625
		c-0.18,1.412-1.383,2.469-2.805,2.469H351.715c-1.423,0-2.625-1.057-2.805-2.469c-2.701-21.24-20.904-37.258-42.34-37.258
		c-21.434,0-39.637,16.017-42.338,37.258c-0.18,1.412-1.382,2.469-2.805,2.469H232.76c-1.562,0-2.828-1.264-2.828-2.826v-72.129
		c0-0.587,0.184-1.159,0.523-1.639l47.432-66.703c0.53-0.746,1.391-1.189,2.305-1.189h171.832c0.441,0,0.877,0.104,1.272,0.301
		c25.301,12.721,80.459,48.826,85.863,52.373c8.559,1.991,101.756,23.717,110.529,27.676c0.848,0.383,1.453,1.158,1.619,2.073
		c5.91,32.63,9.127,54.954,9.615,58.388c0.082,0.27,0.129,0.553,0.129,0.85C661.051,14.83,659.783,16.094,658.223,16.094z"/>
	<path display="inline" fill="#EFF8FB" d="M269.442-64.096l22.132-50.713H449.43c26.779,13.941,73.439,50.336,74.014,50.713H269.442
		z"/>
	
		<path display="inline" fill="none" stroke="#309959" stroke-width="9.4858" stroke-linecap="round" stroke-linejoin="round" stroke-miterlimit="10" d="
		M301.692-56.662"/>
	<g display="inline">
		<g>
			<polygon fill="#FFFFFF" points="632.537,-24.307 654.723,-24.307 652.447,-38.272 632.537,-38.272 			"/>
			<path fill="#FFFFFF" d="M655.75-22.232h-23.213c-1.145,0-2.072-0.93-2.072-2.074v-13.965c0-1.145,0.928-2.074,2.072-2.074h19.91
				L655.75-22.232z"/>
		</g>
	</g>
	<polygon display="inline" fill="#DFEBEF" points="520.656,-64.096 269.442,-64.096 291.574,-114.809 	"/>
	<polygon display="inline" fill="#F29400" points="248.394,-22.836 229.945,-22.836 229.945,-40.114 238.102,-40.114 	"/>
	<g display="inline">
		<circle fill="#FFFFFF" stroke="#000000" stroke-width="18.0105" stroke-miterlimit="10" cx="306.57" cy="20.262" r="26.486"/>
	</g>
	<g display="inline">
		<circle fill="#FFFFFF" stroke="#000000" stroke-width="18.0105" stroke-miterlimit="10" cx="571.848" cy="20.262" r="26.486"/>
	</g>
	<g display="inline">
		<rect x="409.672" y="-118.633" fill="#3F96CE" width="5.691" height="58.332"/>
	</g>
	<g display="inline">
		<rect x="303.725" y="-118.633" fill="#3F96CE" width="5.691" height="58.332"/>
	</g>
	
		<path display="inline" opacity="0.5" fill="none" stroke="#2077A8" stroke-width="5.6915" stroke-linejoin="round" stroke-miterlimit="10" d="
		M520.783-72.588v75.1H360.359c-7.133-23.199-28.795-39.727-53.789-39.727v-26.88"/>
	<g display="inline" opacity="0.5">
		
			<line fill="none" stroke="#2077A8" stroke-width="5.6915" stroke-linejoin="round" stroke-miterlimit="10" x1="412.517" y1="-64.096" x2="412.517" y2="-0.4"/>
	</g>
	
		<line display="inline" fill="none" stroke="#223140" stroke-width="5.6915" stroke-linecap="round" stroke-linejoin="round" stroke-miterlimit="10" x1="320.819" y1="-49.344" x2="336.945" y2="-49.344"/>
	
		<line display="inline" fill="none" stroke="#223140" stroke-width="5.6915" stroke-linecap="round" stroke-linejoin="round" stroke-miterlimit="10" x1="425.779" y1="-49.344" x2="441.906" y2="-49.344"/>
	
		<circle display="inline" fill="#3F96CE" stroke="#1A6995" stroke-width="3.4767" stroke-linecap="round" stroke-linejoin="round" stroke-miterlimit="10" cx="267.483" cy="-42.459" r="10.454"/>
	<path display="inline" fill="#1A6995" d="M528.185-69.623c0,5.147-4.174,9.322-9.32,9.322h-13.978
		c-5.148,0-9.322-4.175-9.322-9.322l0,0c0-5.148,4.174-9.322,9.322-9.322h13.978C524.012-78.945,528.185-74.772,528.185-69.623
		L528.185-69.623z"/>
</g>
<g id="Ovan">
	<g>
		<path fill="#3F96CE" d="M40.555,530.515c-0.383-3.256-1.168-6.519-1.168-9.943V174.617c0-8.731,2.632-16.849,7.146-23.601
			c4.531-6.778,10.96-12.181,18.525-15.449l0.526-0.205c81.956-28,152.458,0.109,152.458,0.109l0.592,0.21
			c7.387,3.251,13.672,8.543,18.145,15.162c4.584,6.786,7.262,14.967,7.262,23.773v345.955c0,3.424,0.189,6.91-0.998,9.943
			c-4.832,12.328-23,20.133-23,20.133s-74.502,28-156.458,0C63.584,550.648,41.723,540.458,40.555,530.515z"/>
		
			<line fill="none" stroke="#223140" stroke-width="5.6915" stroke-linecap="round" stroke-linejoin="round" stroke-miterlimit="10" x1="237.85" y1="223.004" x2="237.85" y2="239.13"/>
		
			<line fill="none" stroke="#223140" stroke-width="5.6915" stroke-linecap="round" stroke-linejoin="round" stroke-miterlimit="10" x1="133.658" y1="131.518" x2="149.784" y2="131.518"/>
		
			<line fill="none" stroke="#223140" stroke-width="5.6915" stroke-linecap="round" stroke-linejoin="round" stroke-miterlimit="10" x1="237.85" y1="327.964" x2="237.85" y2="344.091"/>
		<g>
			
				<line fill="none" stroke="#223140" stroke-width="5.6915" stroke-linecap="round" stroke-linejoin="round" stroke-miterlimit="10" x1="45.288" y1="223.004" x2="45.288" y2="239.13"/>
			
				<line fill="none" stroke="#223140" stroke-width="5.6915" stroke-linecap="round" stroke-linejoin="round" stroke-miterlimit="10" x1="45.288" y1="327.964" x2="45.288" y2="344.091"/>
		</g>
		<path fill="#EFF8FB" d="M67.491,442.019l12.999-90.5h122.26l13.199,90.5C215.949,442.019,149.447,470.019,67.491,442.019z"/>
		<path fill="#EFF8FB" d="M69.491,157.241l7.998,24.805h128.062l8.398-24.805C213.949,157.241,150.947,126.768,69.491,157.241z"/>
		<polygon fill="#DFEBEF" points="231.746,321.548 231.746,426.968 224.545,426.968 214.58,355.518 214.58,321.548 		"/>
		<polygon fill="#DFEBEF" points="214.58,201.852 231.746,201.852 231.746,167.627 224.545,167.627 		"/>
		<rect x="214.58" y="211.574" fill="#DFEBEF" width="17.166" height="100.252"/>
		<polygon fill="#DFEBEF" points="51.692,321.548 51.692,426.968 58.894,426.968 68.859,355.518 68.859,321.548 		"/>
		<polygon fill="#DFEBEF" points="68.859,201.852 51.692,201.852 51.692,167.627 58.894,167.627 		"/>
		<rect x="51.692" y="211.574" fill="#DFEBEF" width="17.167" height="100.252"/>
		<path fill="#3F96CE" d="M226.711,429.943c-3.18,0.93-6.514-0.892-7.445-4.072l0,0c-0.93-3.18,0.893-6.514,4.072-7.445
			l27.254-7.979c3.18-0.932,6.512,0.893,7.443,4.072l0,0c0.932,3.18-0.893,6.512-4.072,7.443L226.711,429.943z"/>
		<path fill="#3F96CE" d="M56.428,429.943c3.18,0.93,6.513-0.892,7.444-4.072l0,0c0.931-3.18-0.893-6.514-4.072-7.445l-27.253-7.979
			c-3.18-0.932-6.513,0.893-7.444,4.072l0,0c-0.931,3.18,0.893,6.512,4.072,7.443L56.428,429.943z"/>
		<polygon fill="#DFEBEF" points="67.491,442.019 80.49,351.518 202.75,351.518 		"/>
		<path fill="#DFEBEF" d="M77.489,182.046l-7.998-24.805c81.456-30.473,144.458,0,144.458,0L77.489,182.046z"/>
		<g>
			
				<path fill="#FFFFFF" stroke="#FFFFFF" stroke-width="4" stroke-linecap="round" stroke-linejoin="round" stroke-miterlimit="10" d="
				M188.541,552.742l33.965-18.223v12.746c0,0-16.846,7.604-33.965,9.527C188.541,555.755,188.541,552.742,188.541,552.742z"/>
			
				<path fill="#ECEDED" stroke="#ECEDED" stroke-width="4" stroke-linecap="round" stroke-linejoin="round" stroke-miterlimit="10" d="
				M188.541,556.792c0-1.037,0-4.051,0-4.051l33.965-18.223L188.541,556.792z"/>
		</g>
		
			<path fill="#F29400" stroke="#F29400" stroke-width="4" stroke-linecap="round" stroke-linejoin="round" stroke-miterlimit="10" d="
			M196.291,135.435l26.215,17.055v-12.747c0,0-9.096-6.434-26.215-8.358C196.291,132.422,196.291,135.435,196.291,135.435z"/>
		
			<path fill="#F29400" stroke="#F29400" stroke-width="4" stroke-linecap="round" stroke-linejoin="round" stroke-miterlimit="10" d="
			M86.491,135.435l-26.215,17.055v-12.747c0,0,9.096-6.434,26.215-8.358C86.491,132.422,86.491,135.435,86.491,135.435z"/>
		<g>
			
				<path fill="#FFFFFF" stroke="#FFFFFF" stroke-width="4" stroke-linecap="round" stroke-linejoin="round" stroke-miterlimit="10" d="
				M94.677,552.742l-33.965-18.223v12.746c0,0,16.846,7.604,33.965,9.527C94.677,555.755,94.677,552.742,94.677,552.742z"/>
			
				<path fill="#ECEDED" stroke="#ECEDED" stroke-width="4" stroke-linecap="round" stroke-linejoin="round" stroke-miterlimit="10" d="
				M94.677,556.792c0-1.037,0-4.051,0-4.051l-33.965-18.223L94.677,556.792z"/>
		</g>
		<rect x="231.746" y="201.852" fill="#2077A8" width="12.295" height="9.722"/>
		<rect x="231.746" y="311.826" fill="#2077A8" width="12.295" height="9.722"/>
		<rect x="39.141" y="201.852" fill="#2077A8" width="12.294" height="9.722"/>
		<rect x="39.141" y="311.826" fill="#2077A8" width="12.294" height="9.722"/>
		<polygon opacity="0.3" fill="#2077A8" points="80.54,338.518 80.54,192.185 205.523,192.185 		"/>
		<path opacity="0.3" fill="#2077A8" d="M66.511,520.955c82.487,38.836,150.417,0,150.417,0v-66.492c0,0-66.95,27.307-150.417,0.201
			C66.511,494.386,66.511,520.955,66.511,520.955z"/>
	</g>
	<g>
		<g>
			<g>
				<path fill="#54B06F" d="M145.36,93.011c0.053-3.209,0.104-21.965,2.971-28.026c7.047-14.927,30.189-14.927,30.189-14.927
					s3.49,31.702-19.861,35.756c-9.137,1.579-8.657,1.633-9.53,7.545v6.932h-3.769V93.011z"/>
			</g>
		</g>
		<g>
			<g>
				<path fill="#46A360" d="M141.955,80.703c-0.047-3.204-0.105-21.958-2.963-28.021c-7.055-14.93-30.197-14.93-30.197-14.93
					s-3.49,31.7,19.865,35.753c9.137,1.588,8.648,1.643,9.533,7.549v19.236h3.762V80.703z"/>
			</g>
			<g>
				<path fill="#46A360" d="M141.85,75.093c-0.188-6.975-0.791-18.022-2.857-22.411c-7.055-14.93-30.197-14.93-30.197-14.93"/>
			</g>
		</g>
		<g>
			<g>
				<path fill="#54B06F" d="M147.02,42.949c-0.045-3.202-0.105-21.956-2.963-28.019C137,0,113.858,0,113.858,0
					s-3.488,31.699,19.869,35.751c9.137,1.591,8.648,1.642,9.533,7.549v14.467h3.76V42.949z"/>
			</g>
			<g>
				<path fill="#54B06F" d="M146.915,37.342c-0.186-6.972-0.79-18.02-2.858-22.412C137,0,113.858,0,113.858,0"/>
			</g>
		</g>
	</g>
</g>
<g id="Strålkastare">
	<g>
		
			<path opacity="0.3" fill="#FCEA0D" stroke="#FCEA0D" stroke-width="3" stroke-linecap="round" stroke-linejoin="round" stroke-miterlimit="10" d="
			M58.833,543.822L1.5,827.32h122L96.679,554.987C96.679,554.987,70.833,552.657,58.833,543.822z"/>
		
			<path opacity="0.3" fill="#FCEA0D" stroke="#FCEA0D" stroke-width="3" stroke-linecap="round" stroke-linejoin="round" stroke-miterlimit="10" d="
			M58.833,543.822L26.5,827.32h69.667l0.512-272.333C96.679,554.987,70.833,552.657,58.833,543.822z"/>
	</g>
	<g>
		
			<path opacity="0.3" fill="#FCEA0D" stroke="#FCEA0D" stroke-width="3" stroke-linecap="round" stroke-linejoin="round" stroke-miterlimit="10" d="
			M224.828,543.822l57.333,283.498h-122l26.821-272.333C186.982,554.987,212.828,552.657,224.828,543.822z"/>
		
			<path opacity="0.3" fill="#FCEA0D" stroke="#FCEA0D" stroke-width="3" stroke-linecap="round" stroke-linejoin="round" stroke-miterlimit="10" d="
			M224.828,543.822l32.333,283.498h-69.667l-0.512-272.333C186.982,554.987,212.828,552.657,224.828,543.822z"/>
	</g>
</g>
</svg>
