<?xml version="1.0" encoding="utf-8"?>
<!-- Generator: Adobe Illustrator 15.0.2, SVG Export Plug-In . SVG Version: 6.00 Build 0)  -->
<!DOCTYPE svg PUBLIC "-//W3C//DTD SVG 1.1//EN" "http://www.w3.org/Graphics/SVG/1.1/DTD/svg11.dtd">
<svg version="1.1" id="Lager_1" xmlns="http://www.w3.org/2000/svg" xmlns:xlink="http://www.w3.org/1999/xlink" x="0px" y="0px"
	 width="233.418px" height="562.092px" viewBox="25.246 0 233.418 562.092" enable-background="new 25.246 0 233.418 562.092"
	 xml:space="preserve">
<g id="Väg" display="none">
	
		<rect x="-256.502" y="90.29" display="inline" fill="#3E3D40" stroke="#3E3D40" stroke-width="4.7728" stroke-linecap="round" stroke-linejoin="round" stroke-miterlimit="10" width="846" height="799.065"/>
</g>
<g id="Sidan" display="none">
	<path display="inline" fill="#BDC3C7" d="M306.57-26.46c23.177,0,42.295,17.327,45.146,39.729h174.391
		c2.85-22.4,21.967-39.729,45.143-39.729c23.175,0,42.296,17.327,45.145,39.729h41.793c0,0-3.193-23.021-9.66-58.733
		c-8.854-3.995-110.498-27.612-110.498-27.612s-59.356-39.09-86.004-52.485c-31.443,0-171.832,0-171.832,0L232.76-58.861v72.129
		h28.668C264.277-9.133,283.396-26.46,306.57-26.46z"/>
	<path display="inline" fill="#3F96CE" d="M658.223,16.094c-0.008,0.002-0.023,0.002-0.037,0h-41.793
		c-1.424,0-2.627-1.058-2.807-2.47c-2.701-21.239-20.902-37.258-42.338-37.258c-21.437,0-39.638,16.019-42.339,37.258
		c-0.18,1.412-1.383,2.47-2.805,2.47h-174.39c-1.424,0-2.625-1.058-2.805-2.47c-2.701-21.239-20.904-37.258-42.341-37.258
		c-21.434,0-39.637,16.017-42.338,37.258c-0.18,1.412-1.382,2.47-2.805,2.47H232.76c-1.562,0-2.828-1.265-2.828-2.826v-72.129
		c0-0.587,0.184-1.159,0.523-1.64l47.432-66.703c0.529-0.745,1.391-1.188,2.305-1.188h171.832c0.441,0,0.877,0.104,1.272,0.301
		c25.301,12.721,80.459,48.826,85.862,52.373c8.56,1.991,101.756,23.717,110.529,27.676c0.848,0.383,1.453,1.158,1.619,2.073
		c5.91,32.63,9.127,54.954,9.615,58.388c0.082,0.271,0.129,0.554,0.129,0.851C661.051,14.83,659.783,16.094,658.223,16.094z"/>
	<path display="inline" fill="#EFF8FB" d="M269.442-64.096l22.132-50.713H449.43c26.779,13.94,73.438,50.336,74.014,50.713H269.442z
		"/>
	
		<path display="inline" fill="none" stroke="#309959" stroke-width="9.4858" stroke-linecap="round" stroke-linejoin="round" stroke-miterlimit="10" d="
		M301.692-56.662"/>
	<g display="inline">
		<g>
			<polygon fill="#FFFFFF" points="632.537,-24.307 654.723,-24.307 652.447,-38.272 632.537,-38.272 			"/>
			<path fill="#FFFFFF" d="M655.75-22.232h-23.214c-1.145,0-2.071-0.931-2.071-2.074v-13.965c0-1.146,0.928-2.074,2.071-2.074h19.91
				L655.75-22.232z"/>
		</g>
	</g>
	<polygon display="inline" fill="#DFEBEF" points="520.656,-64.096 269.442,-64.096 291.575,-114.809 	"/>
	<polygon display="inline" fill="#F29400" points="248.394,-22.836 229.945,-22.836 229.945,-40.114 238.102,-40.114 	"/>
	<g display="inline">
		<circle fill="#FFFFFF" stroke="#000000" stroke-width="18.0105" stroke-miterlimit="10" cx="306.57" cy="20.262" r="26.486"/>
	</g>
	<g display="inline">
		<circle fill="#FFFFFF" stroke="#000000" stroke-width="18.0105" stroke-miterlimit="10" cx="571.848" cy="20.262" r="26.486"/>
	</g>
	<g display="inline">
		<rect x="409.672" y="-118.633" fill="#3F96CE" width="5.69" height="58.332"/>
	</g>
	<g display="inline">
		<rect x="303.725" y="-118.633" fill="#3F96CE" width="5.691" height="58.332"/>
	</g>
	
		<path display="inline" opacity="0.5" fill="none" stroke="#2077A8" stroke-width="5.6915" stroke-linejoin="round" stroke-miterlimit="10" enable-background="new    " d="
		M520.783-72.588V2.512H360.359c-7.133-23.199-28.795-39.728-53.789-39.728v-26.88"/>
	<g display="inline" opacity="0.5">
		
			<line fill="none" stroke="#2077A8" stroke-width="5.6915" stroke-linejoin="round" stroke-miterlimit="10" x1="412.517" y1="-64.096" x2="412.517" y2="-0.4"/>
	</g>
	
		<line display="inline" fill="none" stroke="#223140" stroke-width="5.6915" stroke-linecap="round" stroke-linejoin="round" stroke-miterlimit="10" x1="320.819" y1="-49.344" x2="336.945" y2="-49.344"/>
	
		<line display="inline" fill="none" stroke="#223140" stroke-width="5.6915" stroke-linecap="round" stroke-linejoin="round" stroke-miterlimit="10" x1="425.779" y1="-49.344" x2="441.906" y2="-49.344"/>
	
		<circle display="inline" fill="#3F96CE" stroke="#1A6995" stroke-width="3.4767" stroke-linecap="round" stroke-linejoin="round" stroke-miterlimit="10" cx="267.483" cy="-42.459" r="10.454"/>
	<path display="inline" fill="#1A6995" d="M528.185-69.623c0,5.147-4.174,9.322-9.32,9.322h-13.978
		c-5.148,0-9.322-4.175-9.322-9.322l0,0c0-5.147,4.174-9.321,9.322-9.321h13.978C524.012-78.945,528.185-74.772,528.185-69.623
		L528.185-69.623z"/>
</g>
<g id="Ovan">
	<g>
		<g>
			<g>
				<path fill="#54B06F" d="M145.36,93.011c0.053-3.209,0.104-21.966,2.971-28.026c7.047-14.927,30.189-14.927,30.189-14.927
					s3.49,31.702-19.861,35.756c-9.137,1.579-8.656,1.633-9.529,7.545v6.932h-3.77V93.011z"/>
			</g>
		</g>
		<g>
			<g>
				<path fill="#46A360" d="M141.955,80.703c-0.047-3.204-0.105-21.958-2.963-28.021c-7.055-14.931-30.197-14.931-30.197-14.931
					s-3.49,31.7,19.865,35.753c9.137,1.589,8.648,1.644,9.533,7.55v19.235h3.762V80.703z"/>
			</g>
			<g>
				<path fill="#46A360" d="M141.85,75.094c-0.188-6.976-0.791-18.022-2.857-22.411c-7.055-14.931-30.197-14.931-30.197-14.931"/>
			</g>
		</g>
		<g>
			<g>
				<path fill="#54B06F" d="M147.02,42.949c-0.045-3.202-0.105-21.956-2.963-28.019C137,0,113.858,0,113.858,0
					s-3.488,31.699,19.869,35.751c9.137,1.591,8.648,1.643,9.533,7.549v14.468h3.76V42.949z"/>
			</g>
			<g>
				<path fill="#54B06F" d="M146.915,37.342c-0.186-6.972-0.789-18.02-2.857-22.411C137,0,113.858,0,113.858,0"/>
			</g>
		</g>
	</g>
	<g>
		<path fill="#1A171A" d="M45.976,248.075c0,3.131-2.538,5.669-5.669,5.669h-5.162c-3.131,0-5.669-2.538-5.669-5.669V185.74
			c0-3.131,2.538-5.669,5.669-5.669h5.162c3.131,0,5.669,2.538,5.669,5.669V248.075z"/>
		<path fill="#1A171A" d="M45.976,487.198c0,3.132-2.538,5.669-5.669,5.669h-5.162c-3.131,0-5.669-2.537-5.669-5.669v-62.334
			c0-3.132,2.538-5.67,5.669-5.67h5.162c3.131,0,5.669,2.538,5.669,5.67V487.198z"/>
		<path fill="#1A171A" d="M252.678,248.075c0,3.131-2.538,5.669-5.669,5.669h-5.162c-3.132,0-5.67-2.538-5.67-5.669V185.74
			c0-3.131,2.538-5.669,5.67-5.669h5.162c3.131,0,5.669,2.538,5.669,5.669V248.075z"/>
		<path fill="#1A171A" d="M252.678,487.198c0,3.132-2.538,5.669-5.669,5.669h-5.162c-3.132,0-5.67-2.537-5.67-5.669v-62.334
			c0-3.132,2.538-5.67,5.67-5.67h5.162c3.131,0,5.669,2.538,5.669,5.67V487.198z"/>
		<path fill="#E64F3E" d="M40.941,529.514c-0.383-3.256-1.168-6.52-1.168-9.943V173.616c0-8.731,2.632-16.849,7.146-23.601
			c4.531-6.778,10.96-12.181,18.525-15.449l0.526-0.205c81.956-28,152.458,0.109,152.458,0.109l0.592,0.21
			c7.387,3.251,13.672,8.543,18.145,15.162c4.584,6.786,7.262,14.967,7.262,23.773v345.955c0,3.424,0.189,6.91-0.998,9.943
			c-4.832,12.328-23,20.133-23,20.133s-74.503,28-156.458,0C63.971,549.647,42.109,539.458,40.941,529.514z"/>
		
			<line fill="none" stroke="#223140" stroke-width="5.6915" stroke-linecap="round" stroke-linejoin="round" stroke-miterlimit="10" x1="134.044" y1="130.518" x2="150.17" y2="130.518"/>
		<path fill="#EEF7FB" d="M67.877,441.018l12.999-90.5h122.26l13.199,90.5C216.335,441.018,149.833,469.018,67.877,441.018z"/>
		<path fill="#EEF7FB" d="M69.877,156.24l7.998,24.805h128.062l8.398-24.805C214.335,156.24,151.333,125.768,69.877,156.24z"/>
		<polygon fill="#DEEAEF" points="232.132,320.547 232.132,425.968 224.931,425.968 214.966,354.518 214.966,320.547 		"/>
		<polygon fill="#DEEAEF" points="214.966,200.851 232.132,200.851 232.132,166.626 224.931,166.626 		"/>
		<rect x="214.966" y="210.573" fill="#DEEAEF" width="17.166" height="100.252"/>
		<polygon fill="#DEEAEF" points="52.078,320.547 52.078,425.968 59.28,425.968 69.245,354.518 69.245,320.547 		"/>
		<polygon fill="#DEEAEF" points="69.245,200.851 52.078,200.851 52.078,166.626 59.28,166.626 		"/>
		<rect x="52.078" y="210.573" fill="#DEEAEF" width="17.167" height="100.252"/>
		<path fill="#BE3928" d="M227.097,428.942c-3.18,0.93-6.514-0.893-7.445-4.072l0,0c-0.93-3.18,0.893-6.514,4.072-7.445
			l27.254-7.979c3.18-0.932,6.512,0.893,7.443,4.072l0,0c0.932,3.18-0.893,6.512-4.072,7.443L227.097,428.942z"/>
		<path fill="#BE3928" d="M56.814,428.942c3.18,0.93,6.513-0.893,7.444-4.072l0,0c0.931-3.18-0.893-6.514-4.072-7.445l-27.253-7.979
			c-3.18-0.932-6.513,0.893-7.444,4.072l0,0c-0.931,3.18,0.893,6.512,4.072,7.443L56.814,428.942z"/>
		<polygon fill="#DEEAEF" points="67.877,441.018 80.876,350.518 203.136,350.518 		"/>
		<path fill="#DEEAEF" d="M77.875,181.045l-7.998-24.805c81.456-30.473,144.458,0,144.458,0L77.875,181.045z"/>
		<g>
			
				<path fill="#FFFFFF" stroke="#FFFFFF" stroke-width="4" stroke-linecap="round" stroke-linejoin="round" stroke-miterlimit="10" d="
				M188.927,551.741l33.965-18.223v12.746c0,0-16.846,7.604-33.965,9.527C188.927,554.755,188.927,551.741,188.927,551.741z"/>
			
				<path fill="#ECECED" stroke="#ECECED" stroke-width="4" stroke-linecap="round" stroke-linejoin="round" stroke-miterlimit="10" d="
				M188.927,555.792c0-1.037,0-4.051,0-4.051l33.965-18.223L188.927,555.792z"/>
		</g>
		
			<path fill="#F19300" stroke="#F19300" stroke-width="4" stroke-linecap="round" stroke-linejoin="round" stroke-miterlimit="10" d="
			M196.677,134.435l26.215,17.055v-12.747c0,0-9.096-6.434-26.215-8.358C196.677,131.421,196.677,134.435,196.677,134.435z"/>
		
			<path fill="#F19300" stroke="#F19300" stroke-width="4" stroke-linecap="round" stroke-linejoin="round" stroke-miterlimit="10" d="
			M86.877,134.435L60.662,151.49v-12.747c0,0,9.096-6.434,26.215-8.358C86.877,131.421,86.877,134.435,86.877,134.435z"/>
		<g>
			
				<path fill="#FFFFFF" stroke="#FFFFFF" stroke-width="4" stroke-linecap="round" stroke-linejoin="round" stroke-miterlimit="10" d="
				M95.063,551.741l-33.965-18.223v12.746c0,0,16.846,7.604,33.965,9.527C95.063,554.755,95.063,551.741,95.063,551.741z"/>
			
				<path fill="#ECECED" stroke="#ECECED" stroke-width="4" stroke-linecap="round" stroke-linejoin="round" stroke-miterlimit="10" d="
				M95.063,555.792c0-1.037,0-4.051,0-4.051l-33.965-18.223L95.063,555.792z"/>
		</g>
		<rect x="232.132" y="200.851" fill="#BE3928" width="12.295" height="9.722"/>
		<rect x="232.132" y="310.825" fill="#BE3928" width="12.295" height="9.722"/>
		<rect x="39.527" y="200.851" fill="#BE3928" width="12.294" height="9.722"/>
		<rect x="39.527" y="310.825" fill="#BE3928" width="12.294" height="9.722"/>
		<polygon opacity="0.3" fill="#BE3928" points="80.927,337.518 80.927,191.185 205.91,191.185 		"/>
		<path opacity="0.3" fill="#BE3928" d="M66.897,519.954c82.487,38.836,150.417,0,150.417,0v-66.492c0,0-66.95,27.307-150.417,0.201
			C66.897,493.385,66.897,519.954,66.897,519.954z"/>
	</g>
</g>
</svg>
