<?xml version="1.0" encoding="utf-8"?>
<!-- Generator: Adobe Illustrator 15.0.2, SVG Export Plug-In . SVG Version: 6.00 Build 0)  -->
<!DOCTYPE svg PUBLIC "-//W3C//DTD SVG 1.1//EN" "http://www.w3.org/Graphics/SVG/1.1/DTD/svg11.dtd">
<svg version="1.1" id="Lager_1" xmlns="http://www.w3.org/2000/svg" xmlns:xlink="http://www.w3.org/1999/xlink" x="0px" y="0px"
	 width="373.431px" height="103.541px" viewBox="0 0 373.431 103.541" enable-background="new 0 0 373.431 103.541"
	 xml:space="preserve">
<g>
	<g>
		<path fill="#4195CD" d="M371.915,81.237c-0.005,0.001-0.015,0.001-0.021,0h-23.5c-0.801,0-1.476-0.594-1.578-1.388
			c-1.519-11.942-11.751-20.948-23.804-20.948s-22.286,9.006-23.804,20.948c-0.103,0.794-0.779,1.388-1.578,1.388H199.58
			c-0.801,0-1.476-0.594-1.576-1.388c-1.52-11.942-11.754-20.948-23.806-20.948c-12.051,0-22.286,9.006-23.805,20.948
			c-0.101,0.794-0.776,1.388-1.576,1.388h-16.119c-0.878,0-1.59-0.71-1.59-1.589V39.094c0-0.329,0.103-0.65,0.294-0.921
			L158.07,0.669C158.368,0.25,158.852,0,159.366,0h96.612c0.248,0,0.493,0.058,0.715,0.169
			c14.225,7.152,45.238,27.452,48.277,29.447c4.812,1.119,57.212,13.335,62.145,15.561c0.477,0.215,0.816,0.651,0.911,1.166
			c3.323,18.346,5.131,30.897,5.405,32.828c0.047,0.151,0.072,0.311,0.072,0.478C373.503,80.527,372.792,81.237,371.915,81.237z"/>
		<path fill="#EFF8FC" d="M153.322,36.151l12.444-28.514h88.754c15.057,7.839,41.292,28.302,41.613,28.514H153.322z"/>
		
			<path fill="none" stroke="#2F995A" stroke-width="5.3334" stroke-linecap="round" stroke-linejoin="round" stroke-miterlimit="10" d="
			M171.455,40.331"/>
		<g>
			<g>
				<polygon fill="#FFFFFF" points="357.473,58.521 369.947,58.521 368.667,50.671 357.473,50.671 				"/>
				<path fill="#FFFFFF" d="M370.523,59.688h-13.05c-0.645,0-1.165-0.522-1.165-1.167v-7.851c0-0.644,0.521-1.167,1.165-1.167
					h11.193L370.523,59.688z"/>
			</g>
		</g>
		<polygon fill="#DFEAEF" points="294.566,36.151 153.322,36.151 165.766,7.638 		"/>
		<polygon fill="#F09304" points="141.487,59.35 131.115,59.35 131.115,49.635 135.702,49.635 		"/>
		<g>
			<circle fill="#FFFFFF" stroke="#1B171B" stroke-width="10.1264" stroke-miterlimit="10" cx="174.197" cy="83.581" r="14.892"/>
		</g>
		<g>
			<circle fill="#FFFFFF" stroke="#1B171B" stroke-width="10.1264" stroke-miterlimit="10" cx="323.35" cy="83.581" r="14.892"/>
		</g>
		<g>
			<rect x="232.166" y="5.487" fill="#4195CD" width="3.2" height="32.797"/>
		</g>
		<g>
			<rect x="172.598" y="5.487" fill="#4195CD" width="3.2" height="32.797"/>
		</g>
		<path opacity="0.5" fill="none" stroke="#2177A7" stroke-width="3.2" stroke-linejoin="round" stroke-miterlimit="10" d="
			M294.638,31.376v42.225h-90.197c-4.012-13.043-16.19-22.336-30.244-22.336V36.151"/>
		<g opacity="0.5">
			
				<line fill="none" stroke="#2177A7" stroke-width="3.2" stroke-linejoin="round" stroke-miterlimit="10" x1="233.766" y1="36.151" x2="233.766" y2="71.964"/>
		</g>
		
			<line fill="none" stroke="#243140" stroke-width="3.2" stroke-linecap="round" stroke-linejoin="round" stroke-miterlimit="10" x1="182.208" y1="44.445" x2="191.276" y2="44.445"/>
		
			<line fill="none" stroke="#243140" stroke-width="3.2" stroke-linecap="round" stroke-linejoin="round" stroke-miterlimit="10" x1="241.222" y1="44.445" x2="250.29" y2="44.445"/>
		
			<circle fill="#4195CD" stroke="#1A6995" stroke-width="1.9548" stroke-linecap="round" stroke-linejoin="round" stroke-miterlimit="10" cx="152.22" cy="48.316" r="5.878"/>
		<path fill="#1A6995" d="M298.8,33.043c0,2.896-2.347,5.241-5.24,5.241h-7.86c-2.894,0-5.24-2.346-5.24-5.241l0,0
			c0-2.895,2.347-5.241,5.24-5.241h7.86C296.454,27.802,298.8,30.148,298.8,33.043L298.8,33.043z"/>
	</g>
	<path fill="#88888A" d="M95.744,55.076c-1.792,0.09-3.415,0.676-4.842,1.554c0.165-0.765,0.268-1.554,0.228-2.373
		c-0.255-5.056-4.561-8.944-9.612-8.685c-1.137,0.059-2.204,0.348-3.184,0.773c-0.001-0.017,0.001-0.04,0.001-0.059
		c-0.406-7.966-7.191-14.094-15.161-13.689c-4.276,0.219-8.012,2.283-10.502,5.38c-3.487-5.833-9.99-9.599-17.248-9.231
		c-9.767,0.499-17.424,8.303-17.965,17.853c-1.21-0.261-2.462-0.383-3.754-0.318C5.741,46.689-0.387,53.475,0.019,61.44
		c0.404,7.966,7.193,14.094,15.157,13.688c0.914-0.045,1.796-0.188,2.654-0.391c-0.063,0.629-0.128,1.255-0.096,1.902
		c0.356,6.965,6.292,12.324,13.258,11.97c4.356-0.22,8.081-2.619,10.177-6.088c2.874,5.112,8.464,8.446,14.718,8.109
		c7.333-0.385,13.221-5.685,14.699-12.531c2.103,3.029,5.652,4.96,9.608,4.755c5.243-0.267,9.425-4.157,10.294-9.113
		c1.789,1.231,3.957,1.938,6.298,1.816c5.651-0.284,10.006-5.108,9.718-10.759C106.218,59.143,101.397,54.792,95.744,55.076z
		 M86.057,62.92c0.122-0.064,0.225-0.148,0.337-0.212c-0.032,0.129-0.064,0.258-0.094,0.383
		C86.214,63.031,86.141,62.976,86.057,62.92z"/>
</g>
</svg>
