<?xml version="1.0" encoding="utf-8"?>
<!-- Generator: Adobe Illustrator 17.1.0, SVG Export Plug-In . SVG Version: 6.00 Build 0)  -->
<!DOCTYPE svg PUBLIC "-//W3C//DTD SVG 1.1//EN" "http://www.w3.org/Graphics/SVG/1.1/DTD/svg11.dtd">
<svg version="1.1" xmlns="http://www.w3.org/2000/svg" xmlns:xlink="http://www.w3.org/1999/xlink" x="0px" y="0px"
	 width="283.661px" height="705.874px" viewBox="0 0 283.661 705.874" enable-background="new 0 0 283.661 705.874"
	 xml:space="preserve">
<g id="Väg" display="none">
	
		<rect x="-256.502" y="-32.656" display="inline" fill="#3E3D40" stroke="#3E3D40" stroke-width="4.7728" stroke-linecap="round" stroke-linejoin="round" stroke-miterlimit="10" width="846" height="799.065"/>
</g>
<g id="Sidan" display="none">
	<g display="inline">
		<path fill="#BDC3C7" d="M306.57-149.406c23.176,0,42.295,17.327,45.145,39.728h174.391c2.85-22.4,21.967-39.728,45.143-39.728
			c23.174,0,42.295,17.327,45.144,39.728h41.793c0,0-3.193-23.021-9.66-58.733c-8.854-3.995-110.498-27.612-110.498-27.612
			s-59.357-39.09-86.004-52.486c-31.443,0-171.832,0-171.832,0l-47.432,66.703v72.129h28.668
			C264.277-132.079,283.396-149.406,306.57-149.406z"/>
		<path fill="#3F96CE" d="M658.223-106.852c-0.008,0.002-0.023,0.002-0.037,0h-41.793c-1.424,0-2.627-1.057-2.807-2.469
			c-2.701-21.24-20.902-37.258-42.338-37.258s-39.637,16.017-42.338,37.258c-0.18,1.412-1.383,2.469-2.805,2.469H351.715
			c-1.423,0-2.625-1.057-2.805-2.469c-2.701-21.24-20.904-37.258-42.34-37.258c-21.434,0-39.637,16.017-42.338,37.258
			c-0.18,1.412-1.382,2.469-2.805,2.469H232.76c-1.562,0-2.828-1.264-2.828-2.826v-72.129c0-0.587,0.184-1.159,0.523-1.639
			l47.432-66.703c0.53-0.746,1.391-1.189,2.305-1.189h171.832c0.441,0,0.877,0.104,1.272,0.301
			c25.301,12.721,80.459,48.826,85.863,52.373c8.559,1.991,101.756,23.717,110.529,27.676c0.848,0.383,1.453,1.158,1.619,2.073
			c5.91,32.63,9.127,54.954,9.615,58.388c0.082,0.27,0.129,0.553,0.129,0.85C661.051-108.116,659.783-106.852,658.223-106.852z"/>
		<path fill="#EFF8FB" d="M269.442-187.042l22.132-50.713H449.43c26.779,13.941,73.439,50.336,74.014,50.713H269.442z"/>
		
			<path fill="none" stroke="#309959" stroke-width="9.4858" stroke-linecap="round" stroke-linejoin="round" stroke-miterlimit="10" d="
			M301.692-179.608"/>
		<g>
			<g>
				<polygon fill="#FFFFFF" points="632.537,-147.253 654.723,-147.253 652.447,-161.218 632.537,-161.218 				"/>
				<path fill="#FFFFFF" d="M655.75-145.179h-23.213c-1.145,0-2.072-0.93-2.072-2.074v-13.965c0-1.146,0.928-2.074,2.072-2.074
					h19.91L655.75-145.179z"/>
			</g>
		</g>
		<polygon fill="#DFEBEF" points="520.656,-187.042 269.442,-187.042 291.574,-237.755 		"/>
		<polygon fill="#F29400" points="248.394,-145.782 229.945,-145.782 229.945,-163.06 238.102,-163.06 		"/>
		<g>
			<circle fill="#FFFFFF" stroke="#000000" stroke-width="18.0105" stroke-miterlimit="10" cx="306.57" cy="-102.684" r="26.486"/>
		</g>
		<g>
			<circle fill="#FFFFFF" stroke="#000000" stroke-width="18.0105" stroke-miterlimit="10" cx="571.848" cy="-102.684" r="26.486"/>
		</g>
		<g>
			<rect x="409.672" y="-241.579" fill="#3F96CE" width="5.691" height="58.332"/>
		</g>
		<g>
			<rect x="303.725" y="-241.579" fill="#3F96CE" width="5.691" height="58.332"/>
		</g>
		<path opacity="0.5" fill="none" stroke="#2077A8" stroke-width="5.6915" stroke-linejoin="round" stroke-miterlimit="10" d="
			M520.783-195.534v75.1H360.359c-7.133-23.199-28.795-39.728-53.789-39.728v-26.88"/>
		<g opacity="0.5">
			
				<line fill="none" stroke="#2077A8" stroke-width="5.6915" stroke-linejoin="round" stroke-miterlimit="10" x1="412.517" y1="-187.042" x2="412.517" y2="-123.347"/>
		</g>
		
			<line fill="none" stroke="#223140" stroke-width="5.6915" stroke-linecap="round" stroke-linejoin="round" stroke-miterlimit="10" x1="320.819" y1="-172.29" x2="336.945" y2="-172.29"/>
		
			<line fill="none" stroke="#223140" stroke-width="5.6915" stroke-linecap="round" stroke-linejoin="round" stroke-miterlimit="10" x1="425.779" y1="-172.29" x2="441.906" y2="-172.29"/>
		
			<circle fill="#3F96CE" stroke="#1A6995" stroke-width="3.4767" stroke-linecap="round" stroke-linejoin="round" stroke-miterlimit="10" cx="267.483" cy="-165.405" r="10.454"/>
		<path fill="#1A6995" d="M528.185-192.569c0,5.147-4.174,9.322-9.32,9.322h-13.978c-5.148,0-9.322-4.175-9.322-9.322l0,0
			c0-5.148,4.174-9.322,9.322-9.322h13.978C524.012-201.891,528.185-197.718,528.185-192.569L528.185-192.569z"/>
		<g>
			<g>
				<g>
					<path fill="#54B06F" d="M197.238-131.313c-3.209-0.053-21.965-0.104-28.026-2.971c-14.927-7.047-14.927-30.189-14.927-30.189
						s31.702-3.49,35.756,19.861c1.579,9.137,1.633,8.657,7.545,9.53h6.932v3.769H197.238z"/>
				</g>
			</g>
			<g>
				<g>
					<path fill="#46A360" d="M184.93-127.909c-3.204,0.047-21.959,0.105-28.021,2.963c-14.93,7.055-14.93,30.197-14.93,30.197
						s31.7,3.49,35.753-19.865c1.588-9.137,1.643-8.648,7.549-9.533h19.236v-3.762H184.93z"/>
				</g>
				<g>
					<path fill="#46A360" d="M179.32-127.804c-6.975,0.188-18.021,0.791-22.411,2.857c-14.93,7.055-14.93,30.197-14.93,30.197"/>
				</g>
			</g>
			<g>
				<g>
					<path fill="#54B06F" d="M147.176-132.974c-3.202,0.045-21.956,0.105-28.019,2.963c-14.931,7.057-14.931,30.199-14.931,30.199
						s31.699,3.488,35.751-19.869c1.591-9.137,1.642-8.648,7.549-9.533h14.467v-3.76H147.176z"/>
				</g>
				<g>
					<path fill="#54B06F" d="M141.569-132.869c-6.972,0.186-18.021,0.79-22.412,2.858c-14.931,7.057-14.931,30.199-14.931,30.199"/>
				</g>
			</g>
		</g>
	</g>
</g>
<g id="Ovan">
	<g>
		<path fill="#3F96CE" d="M40.555,407.569c-0.383-3.256-1.168-6.52-1.168-9.943V51.671c0-8.731,2.632-16.849,7.146-23.601
			c4.531-6.778,10.96-12.181,18.525-15.449l0.526-0.205c81.956-28,152.458,0.109,152.458,0.109l0.592,0.21
			c7.387,3.251,13.672,8.543,18.145,15.162c4.584,6.786,7.262,14.967,7.262,23.773v345.955c0,3.424,0.189,6.91-0.998,9.943
			c-4.832,12.328-23,20.133-23,20.133s-74.502,28-156.458,0C63.584,427.702,41.723,417.512,40.555,407.569z"/>
		
			<line fill="none" stroke="#223140" stroke-width="5.6915" stroke-linecap="round" stroke-linejoin="round" stroke-miterlimit="10" x1="237.85" y1="100.058" x2="237.85" y2="116.184"/>
		
			<line fill="none" stroke="#223140" stroke-width="5.6915" stroke-linecap="round" stroke-linejoin="round" stroke-miterlimit="10" x1="133.658" y1="8.572" x2="149.784" y2="8.572"/>
		
			<line fill="none" stroke="#223140" stroke-width="5.6915" stroke-linecap="round" stroke-linejoin="round" stroke-miterlimit="10" x1="237.85" y1="205.018" x2="237.85" y2="221.145"/>
		<g>
			
				<line fill="none" stroke="#223140" stroke-width="5.6915" stroke-linecap="round" stroke-linejoin="round" stroke-miterlimit="10" x1="45.288" y1="100.058" x2="45.288" y2="116.184"/>
			
				<line fill="none" stroke="#223140" stroke-width="5.6915" stroke-linecap="round" stroke-linejoin="round" stroke-miterlimit="10" x1="45.288" y1="205.018" x2="45.288" y2="221.145"/>
		</g>
		<path fill="#EFF8FB" d="M67.491,319.073l12.999-90.501h122.26l13.199,90.501C215.949,319.073,149.447,347.073,67.491,319.073z"/>
		<path fill="#EFF8FB" d="M69.491,34.295L77.489,59.1h128.062l8.398-24.805C213.949,34.295,150.947,3.822,69.491,34.295z"/>
		<polygon fill="#DFEBEF" points="231.746,198.602 231.746,304.022 224.545,304.022 214.58,232.572 214.58,198.602 		"/>
		<polygon fill="#DFEBEF" points="214.58,78.906 231.746,78.906 231.746,44.681 224.545,44.681 		"/>
		<rect x="214.58" y="88.628" fill="#DFEBEF" width="17.166" height="100.252"/>
		<polygon fill="#DFEBEF" points="51.692,198.602 51.692,304.022 58.894,304.022 68.859,232.572 68.859,198.602 		"/>
		<polygon fill="#DFEBEF" points="68.859,78.906 51.692,78.906 51.692,44.681 58.894,44.681 		"/>
		<rect x="51.692" y="88.628" fill="#DFEBEF" width="17.167" height="100.252"/>
		<path fill="#3F96CE" d="M226.711,306.997c-3.18,0.93-6.514-0.892-7.445-4.072l0,0c-0.93-3.18,0.893-6.514,4.072-7.445
			l27.254-7.979c3.18-0.932,6.512,0.893,7.443,4.072l0,0c0.932,3.18-0.893,6.512-4.072,7.443L226.711,306.997z"/>
		<path fill="#3F96CE" d="M56.428,306.997c3.18,0.93,6.513-0.892,7.444-4.072l0,0c0.931-3.18-0.893-6.514-4.072-7.445l-27.253-7.979
			c-3.18-0.932-6.513,0.893-7.444,4.072l0,0c-0.931,3.18,0.893,6.512,4.072,7.443L56.428,306.997z"/>
		<polygon fill="#DFEBEF" points="67.491,319.073 80.49,228.572 202.75,228.572 		"/>
		<path fill="#DFEBEF" d="M77.489,59.1l-7.998-24.805c81.456-30.473,144.458,0,144.458,0L77.489,59.1z"/>
		<g>
			
				<path fill="#FFFFFF" stroke="#FFFFFF" stroke-width="4" stroke-linecap="round" stroke-linejoin="round" stroke-miterlimit="10" d="
				M188.541,429.796l33.965-18.223v12.746c0,0-16.846,7.604-33.965,9.527C188.541,432.809,188.541,429.796,188.541,429.796z"/>
			
				<path fill="#ECEDED" stroke="#ECEDED" stroke-width="4" stroke-linecap="round" stroke-linejoin="round" stroke-miterlimit="10" d="
				M188.541,433.846c0-1.037,0-4.051,0-4.051l33.965-18.223L188.541,433.846z"/>
		</g>
		
			<path fill="#F29400" stroke="#F29400" stroke-width="4" stroke-linecap="round" stroke-linejoin="round" stroke-miterlimit="10" d="
			M196.291,12.489l26.215,17.055V16.797c0,0-9.096-6.434-26.215-8.358C196.291,9.476,196.291,12.489,196.291,12.489z"/>
		
			<path fill="#F29400" stroke="#F29400" stroke-width="4" stroke-linecap="round" stroke-linejoin="round" stroke-miterlimit="10" d="
			M86.491,12.489L60.276,29.545V16.797c0,0,9.096-6.434,26.215-8.358C86.491,9.476,86.491,12.489,86.491,12.489z"/>
		<g>
			
				<path fill="#FFFFFF" stroke="#FFFFFF" stroke-width="4" stroke-linecap="round" stroke-linejoin="round" stroke-miterlimit="10" d="
				M94.677,429.796l-33.965-18.223v12.746c0,0,16.846,7.604,33.965,9.527C94.677,432.809,94.677,429.796,94.677,429.796z"/>
			
				<path fill="#ECEDED" stroke="#ECEDED" stroke-width="4" stroke-linecap="round" stroke-linejoin="round" stroke-miterlimit="10" d="
				M94.677,433.846c0-1.037,0-4.051,0-4.051l-33.965-18.223L94.677,433.846z"/>
		</g>
		<rect x="231.746" y="78.906" fill="#2077A8" width="12.295" height="9.722"/>
		<rect x="231.746" y="188.88" fill="#2077A8" width="12.295" height="9.722"/>
		<rect x="39.141" y="78.906" fill="#2077A8" width="12.294" height="9.722"/>
		<rect x="39.141" y="188.88" fill="#2077A8" width="12.294" height="9.722"/>
		<polygon opacity="0.3" fill="#2077A8" points="80.54,215.572 80.54,69.239 205.523,69.239 		"/>
		<path opacity="0.3" fill="#2077A8" d="M66.511,398.008c82.487,38.836,150.417,0,150.417,0v-66.492c0,0-66.95,27.307-150.417,0.201
			C66.511,371.44,66.511,398.008,66.511,398.008z"/>
	</g>
</g>
<g id="Strålkastare">
	<g>
		
			<path opacity="0.3" fill="#FCEA0D" stroke="#FCEA0D" stroke-width="3" stroke-linecap="round" stroke-linejoin="round" stroke-miterlimit="10" d="
			M58.833,420.876L1.5,704.374h122L96.679,432.041C96.679,432.041,70.833,429.711,58.833,420.876z"/>
		
			<path opacity="0.3" fill="#FCEA0D" stroke="#FCEA0D" stroke-width="3" stroke-linecap="round" stroke-linejoin="round" stroke-miterlimit="10" d="
			M58.833,420.876L26.5,704.374h69.667l0.512-272.333C96.679,432.041,70.833,429.711,58.833,420.876z"/>
	</g>
	<g>
		
			<path opacity="0.3" fill="#FCEA0D" stroke="#FCEA0D" stroke-width="3" stroke-linecap="round" stroke-linejoin="round" stroke-miterlimit="10" d="
			M224.828,420.876l57.333,283.498h-122l26.821-272.333C186.982,432.041,212.828,429.711,224.828,420.876z"/>
		
			<path opacity="0.3" fill="#FCEA0D" stroke="#FCEA0D" stroke-width="3" stroke-linecap="round" stroke-linejoin="round" stroke-miterlimit="10" d="
			M224.828,420.876l32.333,283.498h-69.667l-0.512-272.333C186.982,432.041,212.828,429.711,224.828,420.876z"/>
	</g>
</g>
</svg>
