<?xml version="1.0" encoding="utf-8"?>
<!-- Generator: Adobe Illustrator 15.0.2, SVG Export Plug-In . SVG Version: 6.00 Build 0)  -->
<!DOCTYPE svg PUBLIC "-//W3C//DTD SVG 1.1//EN" "http://www.w3.org/Graphics/SVG/1.1/DTD/svg11.dtd">
<svg version="1.1" id="Lager_1" xmlns="http://www.w3.org/2000/svg" xmlns:xlink="http://www.w3.org/1999/xlink" x="0px" y="0px"
	 width="56.495px" height="65.148px" viewBox="0 0 56.495 65.148" enable-background="new 0 0 56.495 65.148" xml:space="preserve">
<g>
	<rect y="18.322" fill="#F6F5F8" width="56.152" height="46.826"/>
	<rect x="4.155" y="18.298" fill="#FFFFFF" width="47.843" height="42.983"/>
	<path fill="#CBE9FC" d="M17.329,42.533c-0.688-0.076-1.347,0.1-1.883,0.453c-0.589-0.822-1.508-1.402-2.591-1.521
		c-1.676-0.186-3.212,0.783-3.82,2.271c-1.58-0.15-2.996,0.992-3.171,2.578c-0.178,1.598,0.975,3.037,2.573,3.215
		c0.241,0.027,0.478,0.02,0.709-0.012c0.346,0.922,1.183,1.621,2.228,1.734c1.143,0.127,2.193-0.479,2.692-1.439
		c0.37,0.404,0.882,0.684,1.471,0.748c1.287,0.143,2.447-0.785,2.591-2.074c0.019-0.164,0.019-0.328,0.003-0.486
		c0.918-0.393,1.604-1.252,1.723-2.314C20.027,44.119,18.895,42.707,17.329,42.533z"/>
	<path fill="#CBE9FC" d="M47.326,42.895c-0.688-0.076-1.348,0.098-1.882,0.451c-0.59-0.822-1.508-1.402-2.591-1.521
		c-1.678-0.188-3.213,0.783-3.821,2.273c-1.58-0.152-2.995,0.992-3.171,2.576c-0.178,1.598,0.974,3.039,2.573,3.215
		c0.241,0.027,0.479,0.021,0.708-0.012c0.347,0.922,1.185,1.621,2.229,1.736c1.142,0.129,2.193-0.48,2.692-1.441
		c0.371,0.406,0.883,0.684,1.471,0.748c1.288,0.143,2.448-0.785,2.592-2.074c0.019-0.164,0.019-0.328,0.003-0.486
		c0.917-0.393,1.604-1.252,1.722-2.314C50.023,44.479,48.894,43.066,47.326,42.895z"/>
	<path fill="#8E7D70" d="M32.548,44.766c-0.688-0.076-1.347,0.1-1.883,0.451c-0.589-0.82-1.507-1.4-2.591-1.52
		c-1.677-0.188-3.214,0.783-3.82,2.271c-1.58-0.152-2.996,0.994-3.171,2.578c-0.178,1.598,0.976,3.039,2.573,3.215
		c0.241,0.027,0.479,0.021,0.708-0.01c0.347,0.918,1.184,1.619,2.228,1.734c1.144,0.127,2.193-0.479,2.693-1.441
		c0.37,0.404,0.883,0.684,1.471,0.748c1.289,0.143,2.45-0.783,2.592-2.072c0.019-0.166,0.019-0.33,0.003-0.488
		c0.919-0.391,1.605-1.252,1.723-2.314C35.245,46.352,34.116,44.941,32.548,44.766z"/>
	<path fill="#5B5A5E" d="M28.454,20.589V18.66h-0.755v1.929c-1.211,0.183-2.14,1.225-2.14,2.486h5.035
		C30.594,21.813,29.666,20.771,28.454,20.589z"/>
	<polygon opacity="0.4" fill="#78CDF4" points="35.128,29.302 21.026,29.302 25.332,23.951 30.821,23.951 	"/>
	
		<line fill="none" stroke="#9D9D9C" stroke-width="0.7554" stroke-miterlimit="10" x1="4.155" y1="36.834" x2="51.998" y2="36.834"/>
	<rect x="4.258" y="37.662" opacity="0.6" fill="#00A19A" width="47.74" height="23.619"/>
	<g>
		<circle fill="none" stroke="#929292" stroke-width="0.1889" stroke-miterlimit="10" cx="6.15" cy="36.834" r="0.826"/>
		<circle fill="none" stroke="#929292" stroke-width="0.1889" stroke-miterlimit="10" cx="10.137" cy="36.834" r="0.826"/>
		<circle fill="none" stroke="#929292" stroke-width="0.1889" stroke-miterlimit="10" cx="14.125" cy="36.834" r="0.826"/>
		<circle fill="none" stroke="#929292" stroke-width="0.1889" stroke-miterlimit="10" cx="18.11" cy="36.834" r="0.826"/>
		<circle fill="none" stroke="#929292" stroke-width="0.1889" stroke-miterlimit="10" cx="22.096" cy="36.834" r="0.827"/>
		<circle fill="none" stroke="#929292" stroke-width="0.1889" stroke-miterlimit="10" cx="26.083" cy="36.834" r="0.826"/>
		<circle fill="none" stroke="#929292" stroke-width="0.1889" stroke-miterlimit="10" cx="30.071" cy="36.834" r="0.826"/>
		<circle fill="none" stroke="#929292" stroke-width="0.1889" stroke-miterlimit="10" cx="34.057" cy="36.834" r="0.826"/>
		<circle fill="none" stroke="#929292" stroke-width="0.1889" stroke-miterlimit="10" cx="38.043" cy="36.834" r="0.827"/>
		<circle fill="none" stroke="#929292" stroke-width="0.1889" stroke-miterlimit="10" cx="42.028" cy="36.834" r="0.826"/>
		<circle fill="none" stroke="#929292" stroke-width="0.1889" stroke-miterlimit="10" cx="46.016" cy="36.834" r="0.826"/>
		<circle fill="none" stroke="#929292" stroke-width="0.1889" stroke-miterlimit="10" cx="50.003" cy="36.834" r="0.826"/>
	</g>
	<rect x="4.258" y="37.662" opacity="0.3" fill="#00A19A" width="2.911" height="23.619"/>
	<rect x="9.965" y="37.662" opacity="0.3" fill="#00A19A" width="2.91" height="23.619"/>
	<rect x="15.554" y="37.662" opacity="0.3" fill="#00A19A" width="2.911" height="23.619"/>
	<rect x="21.143" y="37.662" opacity="0.3" fill="#00A19A" width="2.91" height="23.619"/>
	<rect x="26.732" y="37.662" opacity="0.3" fill="#00A19A" width="2.912" height="23.619"/>
	<rect x="32.321" y="37.662" opacity="0.3" fill="#00A19A" width="2.91" height="23.619"/>
	<rect x="37.911" y="37.662" opacity="0.3" fill="#00A19A" width="2.909" height="23.619"/>
	<rect x="43.499" y="37.662" opacity="0.3" fill="#00A19A" width="2.911" height="23.619"/>
	<rect x="49.089" y="37.662" opacity="0.3" fill="#00A19A" width="2.909" height="23.619"/>
	<rect x="6.07" y="37.662" opacity="0.3" fill="#00A19A" width="1.1" height="23.619"/>
	<rect x="11.759" y="37.662" opacity="0.3" fill="#00A19A" width="1.1" height="23.619"/>
	<rect x="17.365" y="37.662" opacity="0.3" fill="#00A19A" width="1.101" height="23.619"/>
	<rect x="22.954" y="37.662" opacity="0.3" fill="#00A19A" width="1.1" height="23.619"/>
	<rect x="28.539" y="37.662" opacity="0.3" fill="#00A19A" width="1.099" height="23.619"/>
	<rect x="34.134" y="37.662" opacity="0.3" fill="#00A19A" width="1.099" height="23.619"/>
	<rect x="39.722" y="37.662" opacity="0.3" fill="#00A19A" width="1.099" height="23.619"/>
	<rect x="45.31" y="37.662" opacity="0.3" fill="#00A19A" width="1.101" height="23.619"/>
	<rect x="50.9" y="37.662" opacity="0.3" fill="#00A19A" width="1.098" height="23.619"/>
	<path fill="#B2B2B2" stroke="#B2B2B2" stroke-width="0.3487" stroke-linejoin="round" stroke-miterlimit="10" d="M56.208,18.313
		L28.376,0.203c-0.047-0.024-0.102-0.024-0.149,0L0.396,18.313c-0.082,0.043-0.126,0.146-0.108,0.247h56.029
		C56.335,18.459,56.289,18.356,56.208,18.313z"/>
	<path fill="#878787" d="M28.193,0.019c-0.009,0.002-0.021,0.007-0.031,0.012L0.332,18.142c-0.151,0.077-0.236,0.27-0.202,0.458
		c0.016,0.087,0.082,0.15,0.158,0.15h28.014V0L28.193,0.019z"/>
</g>
</svg>
