<?xml version="1.0" encoding="utf-8"?>
<!-- Generator: Adobe Illustrator 17.1.0, SVG Export Plug-In . SVG Version: 6.00 Build 0)  -->
<!DOCTYPE svg PUBLIC "-//W3C//DTD SVG 1.1//EN" "http://www.w3.org/Graphics/SVG/1.1/DTD/svg11.dtd">
<svg version="1.1" xmlns="http://www.w3.org/2000/svg" xmlns:xlink="http://www.w3.org/1999/xlink" x="0px" y="0px"
	 width="492.348px" height="140.737px" viewBox="0 0 492.348 140.737" enable-background="new 0 0 492.348 140.737"
	 xml:space="preserve">
<g id="Flak">
	<g>
		<g>
			
				<path fill="#58585A" stroke="#58585A" stroke-width="5" stroke-linecap="round" stroke-linejoin="round" stroke-miterlimit="10" d="
				M110.667,99.175"/>
		</g>
	</g>
	<g>
		<g>
			
				<path fill="#58585A" stroke="#58585A" stroke-width="5" stroke-linecap="round" stroke-linejoin="round" stroke-miterlimit="10" d="
				M110.667,99.175"/>
		</g>
	</g>
	<g>
		<g>
			<circle fill="none" stroke="#000000" stroke-width="8" stroke-miterlimit="10" cx="69.606" cy="121.75" r="14.633"/>
		</g>
	</g>
	<g>
		<g>
			<circle fill="none" stroke="#000000" stroke-width="8" stroke-miterlimit="10" cx="134.447" cy="121.75" r="14.633"/>
		</g>
	</g>
	
		<path fill="#309959" stroke="#309959" stroke-width="3" stroke-linecap="round" stroke-linejoin="round" stroke-miterlimit="10" d="
		M26.427,20.091v88.828h19.28c4.806-8.25,13.741-13.801,23.977-13.801c10.234,0,19.17,5.551,23.977,13.801h16.81
		c4.806-8.25,13.741-13.801,23.977-13.801c10.234,0,19.17,5.551,23.977,13.801h102.015V20.091H26.427z"/>
	<g>
		<g>
			
				<path fill="none" stroke="#288950" stroke-width="5.8693" stroke-linecap="round" stroke-linejoin="round" stroke-miterlimit="10" d="
				M44.352,114.315c3.142-10.986,13.275-19.052,25.255-19.052c11.98,0,22.114,8.064,25.255,19.051"/>
		</g>
	</g>
	<g>
		<g>
			
				<path fill="none" stroke="#288950" stroke-width="5.8693" stroke-linecap="round" stroke-linejoin="round" stroke-miterlimit="10" d="
				M109.192,114.315c3.142-10.986,13.275-19.052,25.255-19.052c11.981,0,22.114,8.064,25.255,19.051"/>
		</g>
	</g>
	
		<rect x="51.177" y="11.333" fill="#309959" stroke="#309959" stroke-width="3" stroke-linecap="round" stroke-linejoin="round" stroke-miterlimit="10" width="52" height="8.469"/>
	<g>
		<path fill="#288950" d="M26.427,64.505v44.414h19.28c4.806-8.25,13.741-13.801,23.977-13.801c10.234,0,19.17,5.551,23.977,13.801
			h16.81c4.806-8.25,13.741-13.801,23.977-13.801c10.234,0,19.17,5.551,23.977,13.801h102.015V64.505H26.427z"/>
		<path fill="#288950" d="M261.939,64.505v44.414c0,0.828-0.671,1.5-1.5,1.5H158.424c-0.534,0-1.027-0.283-1.296-0.745
			c-4.692-8.053-13.383-13.056-22.681-13.056c-9.299,0-17.989,5.003-22.681,13.056c-0.268,0.461-0.762,0.745-1.296,0.745h-16.81
			c-0.534,0-1.027-0.283-1.296-0.745c-4.692-8.053-13.383-13.056-22.681-13.056c-9.299,0-17.99,5.003-22.681,13.056
			c-0.269,0.461-0.762,0.745-1.296,0.745h-19.28c-0.829,0-1.5-0.672-1.5-1.5V64.505H261.939z"/>
	</g>
	<g>
		<g>
			
				<line fill="none" stroke="#288950" stroke-width="5" stroke-linecap="round" stroke-linejoin="round" stroke-miterlimit="10" x1="290.927" y1="100.19" x2="249.427" y2="100.19"/>
		</g>
	</g>
	<g>
		<g>
			<g>
				
					<line fill="none" stroke="#288950" stroke-width="4" stroke-linecap="round" stroke-linejoin="round" stroke-miterlimit="10" x1="9.87" y1="65.092" x2="37.931" y2="71.346"/>
			</g>
		</g>
		<g>
			<g>
				
					<line fill="none" stroke="#288950" stroke-width="4" stroke-linecap="round" stroke-linejoin="round" stroke-miterlimit="10" x1="7.246" y1="76.86" x2="35.308" y2="83.115"/>
			</g>
		</g>
		<g>
			<g>
				
					<line fill="none" stroke="#288950" stroke-width="4" stroke-linecap="round" stroke-linejoin="round" stroke-miterlimit="10" x1="4.623" y1="88.631" x2="32.685" y2="94.886"/>
			</g>
		</g>
		<g>
			<g>
				
					<line fill="none" stroke="#288950" stroke-width="4" stroke-linecap="round" stroke-linejoin="round" stroke-miterlimit="10" x1="2" y1="100.4" x2="30.061" y2="106.654"/>
			</g>
		</g>
	</g>
</g>
<g id="Traktor">
	<g>
		<g>
			
				<path fill="#309959" stroke="#309959" stroke-width="5" stroke-linecap="round" stroke-linejoin="round" stroke-miterlimit="10" d="
				M383.396,100.19h49.089c5.319-12.607,17.796-21.456,32.339-21.456c2.718,0,5.36,0.318,7.901,0.904l-4.32-29.405l-70.702-8.183
				L384.918,2.5h-61.664l-8.14,44.36c4.651-1.319,9.559-2.026,14.627-2.026c29.586,0,53.654,24.069,53.654,53.654V100.19z"/>
		</g>
		<g>
			
				<path fill="#FFFFFF" stroke="#000000" stroke-width="2" stroke-linecap="round" stroke-linejoin="round" stroke-miterlimit="10" d="
				M390.421,58.158"/>
		</g>
		<g>
			<circle fill="#FFFFFF" stroke="#000000" stroke-width="10.7784" stroke-miterlimit="10" cx="465.711" cy="114.1" r="21.248"/>
		</g>
		<g>
			<path fill="none" stroke="#000000" stroke-width="2" stroke-linecap="round" stroke-linejoin="round" stroke-miterlimit="10" d="
				M390.421,58.158"/>
		</g>
		<g>
			
				<path fill="#FFFFFF" stroke="#000000" stroke-width="2" stroke-linecap="round" stroke-linejoin="round" stroke-miterlimit="10" d="
				M312.403,52.12"/>
		</g>
		<g>
			
				<path fill="#FFFFFF" stroke="#000000" stroke-width="2" stroke-linecap="round" stroke-linejoin="round" stroke-miterlimit="10" d="
				M380.05,90.52"/>
		</g>
		<g>
			
				<path fill="#FFFFFF" stroke="#000000" stroke-width="2" stroke-linecap="round" stroke-linejoin="round" stroke-miterlimit="10" d="
				M380.05,90.52"/>
		</g>
		<g>
			<circle fill="#FFFFFF" stroke="#000000" stroke-width="17.072" stroke-miterlimit="10" cx="329.742" cy="98.488" r="33.654"/>
		</g>
		<g>
			<path fill="#EFF8FB" d="M381.636,84.829"/>
		</g>
		<g>
			
				<path fill="#DFEBEF" stroke="#000000" stroke-width="5" stroke-linecap="round" stroke-linejoin="round" stroke-miterlimit="10" d="
				M381.636,84.829l0.125,0.017h29.666L386.888,8.594h-64.752l-7.022,38.267c4.651-1.319,9.559-2.026,14.627-2.026
				C354.64,44.834,375.608,61.795,381.636,84.829"/>
		</g>
		<g>
			<polyline fill="#EFF8FB" points="408.052,82.094 387.052,11.094 324.302,10.969 			"/>
		</g>
		<g>
			<path fill="#EFF8FB" d="M381.636,84.829"/>
		</g>
		<g>
			
				<line fill="#DFEBEF" stroke="#000000" stroke-width="3" stroke-miterlimit="10" x1="348.427" y1="8.594" x2="348.427" y2="46.72"/>
		</g>
		<g>
			<path fill="none" stroke="#309959" stroke-width="9" stroke-linecap="round" stroke-linejoin="round" stroke-miterlimit="10" d="
				M302.488,52.285c7.992-4.732,17.312-7.451,27.253-7.451c29.586,0,53.654,24.069,53.654,53.654c0,4.438-0.541,8.751-1.562,12.878"
				/>
		</g>
		<g>
			
				<polygon fill="#FFFFFF" stroke="#FFFFFF" stroke-width="1.7626" stroke-linecap="round" stroke-linejoin="round" stroke-miterlimit="10" points="
				464.264,72.195 473.51,72.195 472.725,66.261 464.264,66.261 			"/>
		</g>
	</g>
</g>
</svg>
