<?xml version="1.0" encoding="utf-8"?>
<!-- Generator: Adobe Illustrator 15.0.2, SVG Export Plug-In . SVG Version: 6.00 Build 0)  -->
<!DOCTYPE svg PUBLIC "-//W3C//DTD SVG 1.1//EN" "http://www.w3.org/Graphics/SVG/1.1/DTD/svg11.dtd">
<svg version="1.1" id="Lager_1" xmlns="http://www.w3.org/2000/svg" xmlns:xlink="http://www.w3.org/1999/xlink" x="0px" y="0px"
	 width="556.82px" height="184.146px" viewBox="0 0 556.82 184.146" enable-background="new 0 0 556.82 184.146"
	 xml:space="preserve">
<g id="Röd_ljus">
	<g>
		<path fill="#E74E3E" d="M553.996,144.487c-0.009,0.002-0.024,0.002-0.037,0h-41.793c-1.424,0-2.627-1.057-2.808-2.469
			c-2.701-21.24-20.901-37.259-42.338-37.259c-21.436,0-39.637,16.019-42.338,37.259c-0.18,1.412-1.383,2.469-2.805,2.469H247.487
			c-1.424,0-2.625-1.057-2.805-2.469c-2.701-21.24-20.904-37.259-42.34-37.259c-21.435,0-39.638,16.019-42.338,37.259
			c-0.181,1.412-1.384,2.469-2.806,2.469h-28.668c-1.562,0-2.828-1.264-2.828-2.826v-72.13c0-0.586,0.185-1.158,0.523-1.639
			l47.432-66.703C174.188,0.443,175.05,0,175.964,0h171.831c0.44,0,0.877,0.104,1.271,0.301
			c25.301,12.722,80.459,48.826,85.863,52.373c8.559,1.992,101.756,23.718,110.528,27.677c0.849,0.383,1.453,1.157,1.619,2.073
			c5.91,32.63,9.127,54.953,9.615,58.388c0.082,0.269,0.129,0.553,0.129,0.85C556.823,143.224,555.556,144.487,553.996,144.487z"/>
		<path fill="#EDF7FB" d="M165.215,64.297l22.133-50.713h157.854c26.779,13.941,73.439,50.336,74.015,50.713H165.215z"/>
		
			<path fill="none" stroke="#319859" stroke-width="9.4858" stroke-linecap="round" stroke-linejoin="round" stroke-miterlimit="10" d="
			M197.465,71.731"/>
		<g>
			<g>
				<polygon fill="#FFFFFF" points="528.31,104.086 550.496,104.086 548.22,90.121 528.31,90.121 				"/>
				<path fill="#FFFFFF" d="M551.522,106.16H528.31c-1.146,0-2.072-0.93-2.072-2.074V90.121c0-1.145,0.929-2.074,2.072-2.074h19.91
					L551.522,106.16z"/>
			</g>
		</g>
		<polygon fill="#DEEAEF" points="416.429,64.297 165.215,64.297 187.348,13.584 		"/>
		<polygon fill="#F19304" points="144.168,105.558 125.719,105.558 125.719,88.28 133.875,88.28 		"/>
		<g>
			<circle fill="#FFFFFF" stroke="#1B181C" stroke-width="18.0105" stroke-miterlimit="10" cx="202.344" cy="148.655" r="26.486"/>
		</g>
		<g>
			<circle fill="#FFFFFF" stroke="#1B181C" stroke-width="18.0105" stroke-miterlimit="10" cx="467.621" cy="148.655" r="26.486"/>
		</g>
		<g>
			<rect x="305.444" y="9.76" fill="#E74E3E" width="5.691" height="58.332"/>
		</g>
		<g>
			<rect x="199.499" y="9.76" fill="#E74E3E" width="5.69" height="58.332"/>
		</g>
		
			<path opacity="0.5" fill="none" stroke="#BF3A29" stroke-width="5.6915" stroke-linejoin="round" stroke-miterlimit="10" enable-background="new    " d="
			M416.556,55.806v75.1H256.133c-7.133-23.199-28.795-39.727-53.789-39.727V64.297"/>
		<g opacity="0.5">
			
				<line fill="none" stroke="#BF3A29" stroke-width="5.6915" stroke-linejoin="round" stroke-miterlimit="10" x1="308.291" y1="64.297" x2="308.291" y2="127.992"/>
		</g>
		
			<line fill="none" stroke="#BF3A29" stroke-width="5.6915" stroke-linecap="round" stroke-linejoin="round" stroke-miterlimit="10" x1="216.592" y1="79.049" x2="232.719" y2="79.049"/>
		
			<line fill="none" stroke="#BF3A29" stroke-width="5.6915" stroke-linecap="round" stroke-linejoin="round" stroke-miterlimit="10" x1="321.552" y1="79.049" x2="337.679" y2="79.049"/>
		
			<circle fill="#E74E3E" stroke="#BF3A29" stroke-width="3.4767" stroke-linecap="round" stroke-linejoin="round" stroke-miterlimit="10" cx="163.257" cy="85.935" r="10.454"/>
		<path fill="#BF3A29" d="M423.958,58.771c0,5.147-4.175,9.321-9.32,9.321h-13.979c-5.147,0-9.321-4.174-9.321-9.321l0,0
			c0-5.148,4.174-9.322,9.321-9.322h13.979C419.784,49.447,423.958,53.621,423.958,58.771L423.958,58.771z"/>
		<g>
			<g>
				<g>
					<path fill="#53B06E" d="M93.012,120.026c-3.209-0.053-21.965-0.104-28.027-2.971c-14.927-7.048-14.927-30.189-14.927-30.189
						s31.702-3.49,35.757,19.861c1.578,9.137,1.633,8.657,7.545,9.53h6.933v3.769H93.012z"/>
				</g>
			</g>
			<g>
				<g>
					<path fill="#44A260" d="M80.703,123.431c-3.204,0.047-21.959,0.104-28.021,2.963c-14.93,7.055-14.93,30.196-14.93,30.196
						s31.7,3.49,35.754-19.864c1.588-9.138,1.643-8.648,7.549-9.533h19.236v-3.762H80.703z"/>
				</g>
				<g>
					<path fill="#44A260" d="M75.094,123.535c-6.976,0.188-18.021,0.791-22.412,2.857c-14.93,7.055-14.93,30.196-14.93,30.196"/>
				</g>
			</g>
			<g>
				<g>
					<path fill="#53B06E" d="M42.949,118.366c-3.2,0.045-21.956,0.105-28.019,2.963C0,128.387,0,151.528,0,151.528
						s31.698,3.488,35.751-19.869c1.591-9.137,1.642-8.647,7.549-9.533h14.467v-3.76H42.949L42.949,118.366z"/>
				</g>
				<g>
					<path fill="#53B06E" d="M37.342,118.472c-6.971,0.186-18.021,0.788-22.411,2.856C0,128.385,0,151.527,0,151.527"/>
				</g>
			</g>
		</g>
	</g>
</g>
</svg>
