<?xml version="1.0" encoding="utf-8"?>
<!-- Generator: Adobe Illustrator 15.0.2, SVG Export Plug-In . SVG Version: 6.00 Build 0)  -->
<!DOCTYPE svg PUBLIC "-//W3C//DTD SVG 1.1//EN" "http://www.w3.org/Graphics/SVG/1.1/DTD/svg11.dtd">
<svg version="1.1" id="Lager_1" xmlns="http://www.w3.org/2000/svg" xmlns:xlink="http://www.w3.org/1999/xlink" x="0px" y="0px"
	 width="143.795px" height="100.768px" viewBox="0 0 143.795 100.768" enable-background="new 0 0 143.795 100.768"
	 xml:space="preserve">
<path fill="#FFFFFF" d="M143.612,57.243c-1.207-10.888-8.248-19.702-17.653-23.711c0.159-1.635,0.159-3.306-0.028-4.999
	c-1.468-13.206-13.365-22.729-26.57-21.262c-6.031,0.666-11.277,3.525-15.078,7.678C79.166,5.087,68.388-1.13,56.682,0.171
	C45.969,1.355,37.39,8.517,33.839,17.96c-2.363-0.318-4.791-0.386-7.266-0.113C10.181,19.661-1.635,34.421,0.184,50.815
	c1.799,16.238,16.309,27.97,32.519,26.418c6.229,15.26,21.975,25.21,39.169,23.3c11.107-1.229,20.523-7.175,26.557-15.593
	c5.5,3.615,12.25,5.416,19.307,4.634C133.804,87.791,145.397,73.315,143.612,57.243z"/>
</svg>
