<?xml version="1.0" encoding="utf-8"?>
<!-- Generator: Adobe Illustrator 15.0.2, SVG Export Plug-In . SVG Version: 6.00 Build 0)  -->
<!DOCTYPE svg PUBLIC "-//W3C//DTD SVG 1.1//EN" "http://www.w3.org/Graphics/SVG/1.1/DTD/svg11.dtd">
<svg version="1.1" id="Lager_1" xmlns="http://www.w3.org/2000/svg" xmlns:xlink="http://www.w3.org/1999/xlink" x="0px" y="0px"
	 width="143.795px" height="100.766px" viewBox="0 0 143.795 100.766" enable-background="new 0 0 143.795 100.766"
	 xml:space="preserve">
<g>
	<path fill="#CBEAF9" d="M117.736,11.193c-7.057-0.783-13.807,1.018-19.306,4.633C92.395,7.408,82.979,1.463,71.873,0.234
		c-17.194-1.91-32.94,8.04-39.169,23.299c-16.21-1.551-30.721,10.18-32.519,26.418c-1.819,16.394,9.997,31.154,26.389,32.968
		c2.475,0.273,4.902,0.205,7.266-0.113c3.552,9.443,12.13,16.605,22.844,17.789c11.706,1.301,22.484-4.916,27.6-14.778
		c3.801,4.152,9.047,7.011,15.078,7.677c13.205,1.467,25.103-8.055,26.57-21.261c0.188-1.694,0.188-3.365,0.029-4.999
		c9.405-4.009,16.447-12.824,17.653-23.711C145.399,27.451,133.804,12.975,117.736,11.193z"/>
	<g>
		<g>
			<path fill="#8D7D6C" stroke="#8D7D6C" stroke-miterlimit="10" d="M59.841,36.598l-2.401-0.062
				c-0.388-2.34-1.353-4.188-2.89-5.551c-1.534-1.363-3.256-2.045-5.158-2.045c-3.203,0-5.734,1.633-7.596,4.901
				c-1.859,3.265-2.789,7.021-2.789,11.262c0,11.901,3.072,19.344,9.215,22.329c2.942,1.468,6.816,2.207,11.619,2.207v2.398
				c-6.273,0-10.947-0.93-14.02-2.789c-1.213-0.734-2.436-1.774-3.669-3.117c-1.23-1.34-2.237-2.941-3.017-4.801
				c-1.688-4.2-2.532-9.629-2.532-16.295c0-3.154,0.433-5.99,1.3-8.5c0.863-2.51,1.945-4.458,3.246-5.842
				c2.638-2.768,5.297-4.157,7.981-4.157c2.683,0,5.139,1.083,7.368,3.249C58.726,31.95,59.841,34.223,59.841,36.598z"/>
			<path fill="#8D7D6C" stroke="#8D7D6C" stroke-miterlimit="10" d="M89.568,71.975h-2.399V50.554H68.733v21.421h-2.401V26.536
				h2.401V48.15h18.436V26.536h2.399V71.975z"/>
		</g>
		<g>
			<path fill="#8D7D6C" stroke="#8D7D6C" stroke-width="0.7" stroke-miterlimit="10" d="M101.509,81.158h-0.971v-4.197h-7.688
				v-0.973l8.658-13.196v13.196h1.889v0.973h-1.889V81.158z M100.539,66.071l-6.586,9.917h6.586V66.071z"/>
		</g>
	</g>
</g>
</svg>
