<?xml version="1.0" encoding="utf-8"?>
<!-- Generator: Adobe Illustrator 15.0.2, SVG Export Plug-In . SVG Version: 6.00 Build 0)  -->
<!DOCTYPE svg PUBLIC "-//W3C//DTD SVG 1.1//EN" "http://www.w3.org/Graphics/SVG/1.1/DTD/svg11.dtd">
<svg version="1.1" xmlns="http://www.w3.org/2000/svg" xmlns:xlink="http://www.w3.org/1999/xlink" x="0px" y="0px"
	 width="148.977px" height="172.895px" viewBox="0 0 148.977 172.895" enable-background="new 0 0 148.977 172.895"
	 xml:space="preserve">
<g id="Byggnad_2">
	<g id="Byggnad_2_1_">
		<polygon fill="#F6F5F6" points="-76.949,173.497 -251.782,173.497 -252.234,65.629 -77.402,65.629 		"/>
		<polygon fill="#D3D3D5" points="-164.365,173.497 -251.782,173.497 -252.234,65.629 -164.818,65.629 		"/>
		<polygon fill="#FBFBFB" points="-85.34,164.083 -243.299,164.083 -243.751,64.835 -85.793,64.835 		"/>
		<path fill="#B1B3B4" stroke="#B1B3B4" stroke-linejoin="round" stroke-miterlimit="10" d="M-251.857,65.335
			c-0.057-0.27,0.084-0.543,0.337-0.653l86.445-37.95c0.147-0.065,0.318-0.065,0.467,0l86.444,37.95
			c0.253,0.11,0.394,0.384,0.337,0.653H-251.857z"/>
		<g>
			<g>
				<path fill="#87888A" d="M-164.842,65.335h-87.016c-0.057-0.27,0.084-0.543,0.337-0.653l86.445-37.95"/>
				<path fill="#87888A" d="M-164.842,65.835h-87.016c-0.236,0-0.44-0.166-0.489-0.397c-0.105-0.499,0.158-1.01,0.626-1.214
					l86.444-37.95c0.032-0.014,0.064-0.024,0.099-0.031l0.336-0.049V65.835z M-250.626,64.835h85.284v-37.44L-250.626,64.835z"/>
			</g>
		</g>
	</g>
	<g id="Ren_gas">
		<path fill="#CBEAF9" d="M-200.802,113.021c-1.822-0.202-3.565,0.263-4.985,1.196c-1.559-2.174-3.99-3.709-6.858-4.026
			c-4.44-0.493-8.506,2.076-10.115,6.017c-4.186-0.4-7.933,2.629-8.397,6.822c-0.47,4.233,2.582,8.045,6.814,8.514
			c0.639,0.07,1.266,0.053,1.876-0.029c0.917,2.438,3.132,4.288,5.899,4.594c3.023,0.336,5.806-1.27,7.127-3.816
			c0.981,1.072,2.336,1.811,3.894,1.982c3.41,0.379,6.482-2.08,6.861-5.49c0.049-0.438,0.049-0.869,0.008-1.291
			c2.429-1.035,4.247-3.312,4.559-6.123C-193.658,117.22-196.652,113.481-200.802,113.021z"/>
		<path fill="#CBEAF9" d="M-106.135,113.975c-1.822-0.203-3.565,0.262-4.985,1.195c-1.559-2.174-3.99-3.709-6.858-4.025
			c-4.44-0.494-8.506,2.076-10.115,6.016c-4.186-0.4-7.933,2.629-8.397,6.822c-0.47,4.234,2.582,8.045,6.814,8.514
			c0.639,0.07,1.266,0.053,1.876-0.029c0.917,2.439,3.132,4.289,5.899,4.594c3.023,0.336,5.806-1.27,7.127-3.816
			c0.981,1.072,2.336,1.811,3.894,1.982c3.41,0.379,6.482-2.08,6.861-5.49c0.049-0.438,0.049-0.869,0.008-1.291
			c2.429-1.035,4.247-3.311,4.559-6.123C-98.992,118.172-101.986,114.434-106.135,113.975z"/>
		<path fill="#8D7D6C" d="M-153.005,118.933c-1.822-0.202-3.565,0.263-4.985,1.196c-1.559-2.174-3.99-3.709-6.858-4.026
			c-4.44-0.493-8.507,2.076-10.114,6.017c-4.187-0.4-7.934,2.629-8.398,6.822c-0.469,4.233,2.582,8.045,6.814,8.514
			c0.64,0.07,1.267,0.053,1.877-0.029c0.917,2.438,3.133,4.288,5.898,4.594c3.023,0.336,5.807-1.27,7.128-3.816
			c0.981,1.072,2.336,1.811,3.894,1.982c3.41,0.379,6.482-2.08,6.861-5.49c0.049-0.438,0.049-0.869,0.008-1.291
			c2.429-1.035,4.247-3.312,4.559-6.124C-145.861,123.131-148.855,119.393-153.005,118.933z"/>
	</g>
	<g id="Dusch">
		<path fill="#58585A" d="M-163.842,70.942v-5.107h-2v5.107c-3.206,0.483-5.666,3.242-5.666,6.582h13.333
			C-158.176,74.185-160.636,71.425-163.842,70.942z"/>
		<polygon opacity="0.4" fill="#7ACDEF" points="-146.176,94.012 -183.508,94.012 -172.109,79.845 -157.575,79.845 		"/>
	</g>
	<g id="Draperier">
		
			<line fill="none" stroke="#9C9E9F" stroke-width="2" stroke-miterlimit="10" x1="-243.775" y1="97.936" x2="-85.793" y2="97.936"/>
		<rect x="-235.833" y="100.123" opacity="0.6" fill="#00A096" width="140.527" height="58.34"/>
		<circle fill="none" stroke="#929395" stroke-width="0.5" stroke-miterlimit="10" cx="-235.833" cy="97.936" r="2.188"/>
		<circle fill="none" stroke="#929395" stroke-width="0.5" stroke-miterlimit="10" cx="-225.08" cy="97.936" r="2.188"/>
		<circle fill="none" stroke="#929395" stroke-width="0.5" stroke-miterlimit="10" cx="-214.327" cy="97.936" r="2.188"/>
		<circle fill="none" stroke="#929395" stroke-width="0.5" stroke-miterlimit="10" cx="-203.573" cy="97.936" r="2.188"/>
		<circle fill="none" stroke="#929395" stroke-width="0.5" stroke-miterlimit="10" cx="-192.82" cy="97.936" r="2.188"/>
		<circle fill="none" stroke="#929395" stroke-width="0.5" stroke-miterlimit="10" cx="-182.066" cy="97.936" r="2.188"/>
		<circle fill="none" stroke="#929395" stroke-width="0.5" stroke-miterlimit="10" cx="-171.313" cy="97.936" r="2.188"/>
		<circle fill="none" stroke="#929395" stroke-width="0.5" stroke-miterlimit="10" cx="-160.559" cy="97.936" r="2.188"/>
		<circle fill="none" stroke="#929395" stroke-width="0.5" stroke-miterlimit="10" cx="-149.806" cy="97.936" r="2.188"/>
		<circle fill="none" stroke="#929395" stroke-width="0.5" stroke-miterlimit="10" cx="-139.052" cy="97.936" r="2.188"/>
		<circle fill="none" stroke="#929395" stroke-width="0.5" stroke-miterlimit="10" cx="-128.299" cy="97.936" r="2.188"/>
		<circle fill="none" stroke="#929395" stroke-width="0.5" stroke-miterlimit="10" cx="-117.545" cy="97.936" r="2.188"/>
		<circle fill="none" stroke="#929395" stroke-width="0.5" stroke-miterlimit="10" cx="-106.792" cy="97.936" r="2.188"/>
		<circle fill="none" stroke="#929395" stroke-width="0.5" stroke-miterlimit="10" cx="-96.039" cy="97.936" r="2.188"/>
		<rect x="-235.833" y="100.123" opacity="0.3" fill="#00A096" width="8.566" height="58.34"/>
		<rect x="-219.036" y="100.123" opacity="0.3" fill="#00A096" width="8.566" height="58.34"/>
		<rect x="-202.584" y="100.123" opacity="0.3" fill="#00A096" width="8.566" height="58.34"/>
		<rect x="-186.132" y="100.123" opacity="0.3" fill="#00A096" width="8.566" height="58.34"/>
		<rect x="-169.68" y="100.123" opacity="0.3" fill="#00A096" width="8.566" height="58.34"/>
		<rect x="-153.228" y="100.123" opacity="0.3" fill="#00A096" width="8.566" height="58.34"/>
		<rect x="-136.775" y="100.123" opacity="0.3" fill="#00A096" width="8.565" height="58.34"/>
		<rect x="-120.324" y="100.123" opacity="0.3" fill="#00A096" width="8.566" height="58.34"/>
		<rect x="-103.872" y="100.123" opacity="0.3" fill="#00A096" width="8.566" height="58.34"/>
		<rect x="-230.502" y="100.123" opacity="0.3" fill="#00A096" width="3.234" height="58.34"/>
		<rect x="-213.756" y="100.123" opacity="0.3" fill="#00A096" width="3.234" height="58.34"/>
		<rect x="-197.252" y="100.123" opacity="0.3" fill="#00A096" width="3.234" height="58.34"/>
		<rect x="-180.8" y="100.123" opacity="0.3" fill="#00A096" width="3.234" height="58.34"/>
		<rect x="-164.364" y="100.123" opacity="0.3" fill="#00A096" width="3.234" height="58.34"/>
		<rect x="-147.895" y="100.123" opacity="0.3" fill="#00A096" width="3.234" height="58.34"/>
		<rect x="-131.444" y="100.123" opacity="0.3" fill="#00A096" width="3.234" height="58.34"/>
		<rect x="-114.993" y="100.123" opacity="0.3" fill="#00A096" width="3.234" height="58.34"/>
		<rect x="-98.541" y="100.123" opacity="0.3" fill="#00A096" width="3.234" height="58.34"/>
	</g>
</g>
<g id="Byggnad_1_1_">
	<g id="Byggnad_1">
	</g>
	<g id="Brun_gas">
	</g>
	<g id="Gödsel">
		<g>
			<rect x="0.154" y="48.921" fill="#F6F5F6" width="148.667" height="123.974"/>
			<rect x="0.154" y="48.921" fill="#D3D3D5" width="74.334" height="123.974"/>
			<rect x="11.154" y="48.855" fill="#F8F8F8" width="126.667" height="113.805"/>
			<path fill="#6F7072" stroke="#6F7072" stroke-width="0.7289" stroke-miterlimit="10" d="M148.454,48.855
				C138.085,20.671,108.889,0.364,74.488,0.364c-34.398,0-63.598,20.307-73.966,48.491H148.454z"/>
			<path fill="#58585A" stroke="#58585A" stroke-width="0.7289" stroke-linecap="round" stroke-miterlimit="10" d="M74.451,48.855
				H0.522C10.891,20.671,40.09,0.364,74.488,0.364L74.451,48.855z"/>
			<path fill="#B29A7D" d="M86.717,79.356c-0.736-0.082-1.459-0.051-2.155,0.064c-1.001-3.387-3.949-6.016-7.68-6.43
				c-2.793-0.311-5.434,0.689-7.304,2.51c-1.634-1.998-4.017-3.385-6.785-3.691c-5.616-0.623-10.673,3.424-11.295,9.041
				c-0.059,0.531-0.063,1.057-0.041,1.576c-3.214,0.672-5.779,3.336-6.16,6.775c-0.475,4.283,2.612,8.141,6.896,8.613
				c1.735,0.193,3.397-0.205,4.797-1.027c1.093,3.182,3.928,5.619,7.493,6.014c3.763,0.416,7.234-1.561,8.908-4.711
				c1.234,1.857,3.251,3.176,5.641,3.439c4.26,0.473,8.096-2.58,8.604-6.83c3.127-0.732,5.604-3.355,5.978-6.73
				C94.088,83.687,90.999,79.829,86.717,79.356z"/>
			<path fill="#8D7D6C" d="M111.879,56.443c-1.822-0.202-3.565,0.262-4.985,1.196c-1.559-2.174-3.99-3.708-6.858-4.026
				c-4.44-0.493-8.507,2.076-10.114,6.017c-4.187-0.401-7.934,2.628-8.398,6.822c-0.469,4.233,2.582,8.044,6.814,8.513
				c0.64,0.071,1.267,0.053,1.877-0.029c0.917,2.439,3.133,4.289,5.898,4.596c3.023,0.334,5.807-1.271,7.128-3.817
				c0.981,1.071,2.336,1.81,3.894,1.983c3.41,0.378,6.482-2.08,6.861-5.492c0.049-0.438,0.049-0.869,0.008-1.29
				c2.429-1.036,4.247-3.312,4.559-6.124C119.022,60.641,116.028,56.903,111.879,56.443z"/>
			<path fill="#8D7D6C" d="M120.477,84.161c-1.822-0.201-3.565,0.263-4.985,1.197c-1.559-2.174-3.99-3.709-6.858-4.027
				c-4.44-0.492-8.507,2.076-10.114,6.018c-4.187-0.401-7.934,2.628-8.398,6.822c-0.469,4.232,2.582,8.044,6.814,8.513
				c0.64,0.071,1.267,0.053,1.877-0.029c0.917,2.438,3.133,4.288,5.898,4.595c3.023,0.335,5.807-1.271,7.128-3.816
				c0.981,1.071,2.336,1.81,3.894,1.982c3.41,0.379,6.482-2.08,6.861-5.491c0.049-0.438,0.049-0.869,0.008-1.29
				c2.429-1.036,4.247-3.312,4.559-6.124C127.62,88.359,124.626,84.621,120.477,84.161z"/>
			<path fill="#8D7D6C" d="M49.343,58.14c-1.822-0.202-3.565,0.262-4.985,1.196c-1.559-2.174-3.99-3.708-6.858-4.026
				c-4.44-0.493-8.507,2.076-10.114,6.017c-4.187-0.401-7.934,2.628-8.398,6.822c-0.469,4.233,2.582,8.045,6.814,8.514
				c0.64,0.07,1.267,0.053,1.877-0.029c0.917,2.438,3.133,4.288,5.898,4.594c3.023,0.336,5.807-1.27,7.128-3.816
				c0.981,1.072,2.336,1.811,3.894,1.982c3.41,0.379,6.482-2.08,6.861-5.49c0.049-0.438,0.049-0.869,0.008-1.291
				c2.429-1.035,4.247-3.312,4.559-6.124C56.486,62.337,53.492,58.599,49.343,58.14z"/>
			<path fill="#8C6242" d="M31.79,128.71c0,5.7-4.618,10.321-10.318,10.321c-5.699,0-10.317-4.621-10.317-10.321
				c0-5.696,4.618-10.317,10.317-10.317C27.172,118.393,31.79,123.014,31.79,128.71z"/>
			<path fill="#8C6242" d="M118.608,128.502c0,3.967-3.214,7.184-7.181,7.184c-3.965,0-7.181-3.217-7.181-7.184
				c0-3.964,3.216-7.181,7.181-7.181C115.395,121.321,118.608,124.538,118.608,128.502z"/>
			<path fill="#8C6242" d="M137.821,127.67c0,6.107-4.948,11.061-11.056,11.061c-6.104,0-11.056-4.953-11.056-11.061
				c0-6.103,4.951-11.056,11.056-11.056C132.873,116.614,137.821,121.567,137.821,127.67z"/>
			<rect x="11.154" y="128.503" fill="#8C6242" width="126.667" height="34.157"/>
			<path fill="#8C6242" d="M76.8,125.671c0,3.967-3.214,7.184-7.181,7.184c-3.964,0-7.181-3.217-7.181-7.184
				c0-3.964,3.217-7.181,7.181-7.181C73.586,118.49,76.8,121.707,76.8,125.671z"/>
			<circle fill="#8C6242" cx="45.758" cy="125.672" r="18.484"/>
			<circle fill="#8C6242" cx="90.156" cy="134.109" r="18.484"/>
		</g>
	</g>
</g>
</svg>
