<?xml version="1.0" encoding="utf-8"?>
<!-- Generator: Adobe Illustrator 15.0.2, SVG Export Plug-In . SVG Version: 6.00 Build 0)  -->
<!DOCTYPE svg PUBLIC "-//W3C//DTD SVG 1.1//EN" "http://www.w3.org/Graphics/SVG/1.1/DTD/svg11.dtd">
<svg version="1.1" id="Lager_1" xmlns="http://www.w3.org/2000/svg" xmlns:xlink="http://www.w3.org/1999/xlink" x="0px" y="0px"
	 width="281.895px" height="325.073px" viewBox="0 0 281.895 325.073" enable-background="new 0 0 281.895 325.073"
	 xml:space="preserve">
<g>
	<polygon fill="#F6F5F8" points="259.459,91.422 259.459,305.784 20.731,305.784 20.731,91.422 0,91.422 0,325.073 280.188,325.073 
		280.188,91.422 	"/>
	<path fill="#5B5A5E" d="M141.979,102.734v-9.625h-3.77v9.625c-6.042,0.911-10.679,6.11-10.679,12.405h25.127
		C152.658,108.844,148.022,103.644,141.979,102.734z"/>
	
		<line fill="none" stroke="#9D9D9C" stroke-width="3.7693" stroke-miterlimit="10" x1="20.731" y1="183.798" x2="259.457" y2="183.798"/>
	<rect x="21.252" y="188.21" opacity="0.3" fill="#00A19A" width="238.207" height="117.862"/>
	<g>
		<circle fill="none" stroke="#929292" stroke-width="0.9423" stroke-miterlimit="10" cx="30.688" cy="183.798" r="4.123"/>
		<circle fill="none" stroke="#929292" stroke-width="0.9423" stroke-miterlimit="10" cx="50.58" cy="183.798" r="4.123"/>
		<circle fill="none" stroke="#929292" stroke-width="0.9423" stroke-miterlimit="10" cx="70.472" cy="183.798" r="4.123"/>
		<circle fill="none" stroke="#929292" stroke-width="0.9423" stroke-miterlimit="10" cx="90.364" cy="183.798" r="4.123"/>
		<circle fill="none" stroke="#929292" stroke-width="0.9423" stroke-miterlimit="10" cx="110.257" cy="183.798" r="4.123"/>
		<circle fill="none" stroke="#929292" stroke-width="0.9423" stroke-miterlimit="10" cx="130.149" cy="183.798" r="4.123"/>
		<circle fill="none" stroke="#929292" stroke-width="0.9423" stroke-miterlimit="10" cx="150.041" cy="183.798" r="4.123"/>
		<circle fill="none" stroke="#929292" stroke-width="0.9423" stroke-miterlimit="10" cx="169.932" cy="183.798" r="4.123"/>
		<circle fill="none" stroke="#929292" stroke-width="0.9423" stroke-miterlimit="10" cx="189.825" cy="183.798" r="4.123"/>
		<circle fill="none" stroke="#929292" stroke-width="0.9423" stroke-miterlimit="10" cx="209.715" cy="183.798" r="4.123"/>
		<circle fill="none" stroke="#929292" stroke-width="0.9423" stroke-miterlimit="10" cx="229.608" cy="183.798" r="4.123"/>
		<circle fill="none" stroke="#929292" stroke-width="0.9423" stroke-miterlimit="10" cx="249.5" cy="183.798" r="4.123"/>
	</g>
	<rect x="21.252" y="187.921" opacity="0.2" fill="#00A19A" width="14.521" height="117.862"/>
	<rect x="49.725" y="187.921" opacity="0.2" fill="#00A19A" width="14.52" height="117.862"/>
	<rect x="77.614" y="187.921" opacity="0.2" fill="#00A19A" width="14.52" height="117.862"/>
	<rect x="105.5" y="187.921" opacity="0.2" fill="#00A19A" width="14.52" height="117.862"/>
	<rect x="133.389" y="187.921" opacity="0.2" fill="#00A19A" width="14.519" height="117.862"/>
	<rect x="161.276" y="187.921" opacity="0.2" fill="#00A19A" width="14.519" height="117.862"/>
	<rect x="189.164" y="187.921" opacity="0.2" fill="#00A19A" width="14.519" height="117.862"/>
	<rect x="217.05" y="187.921" opacity="0.2" fill="#00A19A" width="14.52" height="117.862"/>
	<rect x="244.938" y="187.921" opacity="0.2" fill="#00A19A" width="14.521" height="117.862"/>
	<rect x="30.289" y="187.921" opacity="0.2" fill="#00A19A" width="5.484" height="117.862"/>
	<rect x="58.674" y="187.921" opacity="0.2" fill="#00A19A" width="5.483" height="117.862"/>
	<rect x="86.652" y="187.921" opacity="0.2" fill="#00A19A" width="5.482" height="117.862"/>
	<rect x="114.538" y="187.921" opacity="0.2" fill="#00A19A" width="5.482" height="117.862"/>
	<rect x="142.399" y="187.921" opacity="0.2" fill="#00A19A" width="5.482" height="117.862"/>
	<rect x="170.315" y="187.921" opacity="0.2" fill="#00A19A" width="5.483" height="117.862"/>
	<rect x="198.2" y="187.921" opacity="0.2" fill="#00A19A" width="5.482" height="117.862"/>
	<rect x="226.088" y="187.921" opacity="0.2" fill="#00A19A" width="5.481" height="117.862"/>
	<rect x="253.622" y="187.921" opacity="0.2" fill="#00A19A" width="5.481" height="117.862"/>
	<path fill="#B2B2B2" stroke="#B2B2B2" stroke-width="1.74" stroke-linejoin="round" stroke-miterlimit="10" d="M280.463,91.383
		L141.596,1.014c-0.238-0.123-0.514-0.123-0.749,0L1.976,91.383c-0.407,0.208-0.631,0.724-0.541,1.231h279.57
		C281.097,92.107,280.87,91.591,280.463,91.383z"/>
	<path fill="#878787" d="M140.681,0.092c-0.054,0.013-0.105,0.033-0.158,0.059L1.654,90.521c-0.751,0.385-1.175,1.348-1.005,2.288
		c0.079,0.436,0.406,0.748,0.786,0.748h139.786V0L140.681,0.092z"/>
</g>
</svg>
