<?xml version="1.0" encoding="utf-8"?>
<!-- Generator: Adobe Illustrator 15.0.2, SVG Export Plug-In . SVG Version: 6.00 Build 0)  -->
<!DOCTYPE svg PUBLIC "-//W3C//DTD SVG 1.1//EN" "http://www.w3.org/Graphics/SVG/1.1/DTD/svg11.dtd">
<svg version="1.1" id="Lager_1" xmlns="http://www.w3.org/2000/svg" xmlns:xlink="http://www.w3.org/1999/xlink" x="0px" y="0px"
	 width="182.445px" height="102.224px" viewBox="0 0 182.445 102.224" enable-background="new 0 0 182.445 102.224"
	 xml:space="preserve">
<g>
	<path fill="#8D7D6C" d="M165.758,7.167c-4.518-0.499-8.84,0.651-12.36,2.969c-3.865-5.391-9.895-9.197-17.006-9.986
		c-11.01-1.221-21.093,5.148-25.078,14.921c-10.381-0.995-19.672,6.517-20.824,16.916c-1.162,10.494,6.402,19.944,16.896,21.106
		c1.586,0.178,3.141,0.131,4.654-0.072c2.273,6.047,7.768,10.633,14.625,11.393c7.496,0.831,14.397-3.15,17.674-9.463
		c2.434,2.656,5.792,4.487,9.654,4.916c8.455,0.939,16.072-5.158,17.013-13.615c0.121-1.085,0.121-2.155,0.019-3.199
		c6.022-2.568,10.531-8.213,11.304-15.185C183.471,17.577,176.047,8.308,165.758,7.167z"/>
	<path opacity="0.8" fill="#B29A7D" d="M121.198,33.541c-2.152-0.24-4.266-0.148-6.3,0.188c-2.925-9.898-11.542-17.582-22.446-18.79
		c-8.161-0.908-15.879,2.013-21.344,7.335c-4.776-5.84-11.74-9.893-19.832-10.79C34.862,9.664,20.083,21.49,18.265,37.907
		c-0.171,1.554-0.186,3.089-0.12,4.606c-9.393,1.964-16.891,9.75-18.004,19.802C-1.248,74.834,7.776,86.109,20.294,87.49
		c5.072,0.564,9.929-0.6,14.02-3.004c3.194,9.299,11.479,16.423,21.9,17.576c10.997,1.217,21.143-4.561,26.035-13.768
		c3.608,5.428,9.501,9.281,16.485,10.053c12.451,1.381,23.661-7.541,25.146-19.963c9.14-2.141,16.378-9.807,17.471-19.67
		C142.74,46.195,133.712,34.923,121.198,33.541z"/>
</g>
</svg>
