<?xml version="1.0" encoding="utf-8"?>
<!-- Generator: Adobe Illustrator 15.0.2, SVG Export Plug-In . SVG Version: 6.00 Build 0)  -->
<!DOCTYPE svg PUBLIC "-//W3C//DTD SVG 1.1//EN" "http://www.w3.org/Graphics/SVG/1.1/DTD/svg11.dtd">
<svg version="1.1" id="Lager_1" xmlns="http://www.w3.org/2000/svg" xmlns:xlink="http://www.w3.org/1999/xlink" x="0px" y="0px"
	 width="143.796px" height="100.768px" viewBox="0 0 143.796 100.768" enable-background="new 0 0 143.796 100.768"
	 xml:space="preserve">
<path fill="#CBEAF9" d="M117.736,11.193c-7.057-0.783-13.807,1.018-19.306,4.633C92.396,7.408,82.979,1.463,71.873,0.234
	c-17.194-1.91-32.941,8.04-39.169,23.299c-16.21-1.551-30.72,10.18-32.519,26.418c-1.819,16.394,9.997,31.154,26.389,32.968
	c2.475,0.273,4.903,0.205,7.266-0.113c3.551,9.443,12.13,16.605,22.844,17.789c11.706,1.301,22.484-4.916,27.6-14.778
	c3.801,4.152,9.047,7.011,15.078,7.677c13.205,1.467,25.103-8.055,26.57-21.261c0.188-1.694,0.188-3.365,0.029-4.999
	c9.405-4.009,16.447-12.824,17.653-23.711C145.399,27.451,133.805,12.975,117.736,11.193z"/>
<g>
	<path fill="#3E3D40" d="M90.985,29.442H79.24c-0.225-0.592-0.46-1.229-0.695-1.896c-1.131-3.206,0.916-4.475,0.916-4.475
		c0.854-1.15,1.347-2.509,1.347-3.964c0-4.14-3.989-7.496-8.91-7.496s-8.909,3.356-8.909,7.496c0,1.455,0.492,2.814,1.346,3.964
		c0,0,2.048,1.269,0.916,4.475c-0.234,0.667-0.471,1.304-0.695,1.896H53.943l-7.926,47.226h51.762L90.985,29.442z"/>
	<g>
		<path fill="#FFFFFF" stroke="#FFFFFF" stroke-width="0.491" stroke-miterlimit="10" d="M63.473,50.472h-0.684v-11.57l-2.694,1.222
			v-0.665l3.378-1.563V50.472z"/>
		<path fill="#FFFFFF" stroke="#FFFFFF" stroke-width="0.491" stroke-miterlimit="10" d="M73.803,44.292
			c0,1.976-0.335,3.495-1.006,4.554c-0.672,1.061-1.645,1.59-2.919,1.59c-1.276,0-2.282-0.539-3.019-1.617
			c-0.737-1.078-1.105-2.607-1.105-4.59c0-1.982,0.359-3.503,1.078-4.563c0.719-1.06,1.742-1.59,3.071-1.59
			C72.504,38.076,73.803,40.147,73.803,44.292z M73.139,43.995c0-1.658-0.279-2.943-0.836-3.854
			c-0.558-0.91-1.369-1.365-2.435-1.365s-1.907,0.456-2.524,1.365c-0.617,0.91-0.925,2.276-0.925,4.096
			c0,2.132,0.485,3.695,1.454,4.689c0.541,0.551,1.156,0.827,1.852,0.827s1.264-0.156,1.707-0.467
			c0.442-0.311,0.784-0.736,1.023-1.275C72.91,46.993,73.139,45.655,73.139,43.995z"/>
		<path fill="#FFFFFF" stroke="#FFFFFF" stroke-width="0.491" stroke-miterlimit="10" d="M83.701,44.292
			c0,1.976-0.334,3.495-1.006,4.554c-0.671,1.061-1.645,1.59-2.919,1.59c-1.276,0-2.282-0.539-3.019-1.617s-1.105-2.607-1.105-4.59
			c0-1.982,0.359-3.503,1.079-4.563c0.718-1.06,1.742-1.59,3.071-1.59C82.402,38.076,83.701,40.147,83.701,44.292z M83.037,43.995
			c0-1.658-0.279-2.943-0.836-3.854c-0.557-0.91-1.369-1.365-2.434-1.365c-1.066,0-1.908,0.456-2.525,1.365
			c-0.616,0.91-0.924,2.276-0.924,4.096c0,2.132,0.484,3.695,1.454,4.689c0.54,0.551,1.155,0.827,1.851,0.827
			s1.264-0.156,1.707-0.467c0.443-0.311,0.784-0.736,1.023-1.275C82.81,46.993,83.037,45.655,83.037,43.995z"/>
	</g>
	<g>
		<path fill="#FFFFFF" stroke="#FFFFFF" stroke-width="0.491" stroke-miterlimit="10" d="M65.16,68.545h-0.664v-1.222
			c0-3.713-0.91-5.569-2.73-5.569c-0.384,0-0.75,0.098-1.097,0.296c-0.347,0.197-0.59,0.372-0.728,0.521
			c-0.137,0.151-0.314,0.368-0.529,0.656v5.318h-0.665V55.969h0.665v6.198l4.851-6.217h0.916l-4.169,5.247
			c0.289-0.072,0.569-0.107,0.845-0.107c1.019,0,1.824,0.491,2.417,1.473c0.593,0.982,0.889,2.497,0.889,4.545V68.545z"/>
		<path fill="#FFFFFF" stroke="#FFFFFF" stroke-width="0.491" stroke-miterlimit="10" d="M67.802,68.545h-0.665v-12.54h0.665V68.545
			z"/>
		<path fill="#FFFFFF" stroke="#FFFFFF" stroke-width="0.491" stroke-miterlimit="10" d="M76.785,68.545h-6.252V55.969h0.664v11.912
			h5.588V68.545z"/>
		<path fill="#FFFFFF" stroke="#FFFFFF" stroke-width="0.491" stroke-miterlimit="10" d="M85.049,62.365
			c0,1.976-0.336,3.5-1.006,4.572c-0.671,1.072-1.641,1.608-2.91,1.608s-2.275-0.542-3.019-1.626C77.372,65.835,77,64.296,77,62.302
			s0.365-3.563,1.096-4.707c0.731-1.144,1.749-1.716,3.055-1.716c0.778,0,1.439,0.2,1.986,0.602
			c0.544,0.401,0.947,0.943,1.212,1.625C84.815,59.365,85.049,60.784,85.049,62.365z M84.385,62.059
			c0-1.664-0.282-2.994-0.846-3.988c-0.562-0.995-1.371-1.491-2.424-1.491c-1.055,0-1.894,0.494-2.516,1.482
			c-0.623,0.988-0.935,2.404-0.935,4.249c0,2.144,0.485,3.719,1.455,4.725c0.538,0.55,1.155,0.827,1.851,0.827
			s1.264-0.156,1.707-0.467c0.443-0.312,0.784-0.743,1.023-1.293C84.157,65.072,84.385,63.725,84.385,62.059z"/>
	</g>
</g>
</svg>
