<?xml version="1.0" encoding="utf-8"?>
<!-- Generator: Adobe Illustrator 15.0.2, SVG Export Plug-In . SVG Version: 6.00 Build 0)  -->
<!DOCTYPE svg PUBLIC "-//W3C//DTD SVG 1.1//EN" "http://www.w3.org/Graphics/SVG/1.1/DTD/svg11.dtd">
<svg version="1.1" id="Lager_1" xmlns="http://www.w3.org/2000/svg" xmlns:xlink="http://www.w3.org/1999/xlink" x="0px" y="0px"
	 width="143.795px" height="100.766px" viewBox="0 0 143.795 100.766" enable-background="new 0 0 143.795 100.766"
	 xml:space="preserve">
<path fill="#CBEAF9" d="M117.736,11.193c-7.057-0.783-13.807,1.018-19.306,4.633C92.395,7.408,82.979,1.463,71.873,0.234
	c-17.194-1.91-32.94,8.04-39.169,23.299c-16.21-1.551-30.721,10.18-32.519,26.418c-1.819,16.394,9.997,31.154,26.389,32.968
	c2.475,0.273,4.902,0.205,7.266-0.113c3.552,9.443,12.13,16.605,22.844,17.789c11.706,1.301,22.484-4.916,27.6-14.778
	c3.801,4.152,9.047,7.011,15.078,7.677c13.205,1.467,25.103-8.055,26.57-21.261c0.188-1.694,0.188-3.365,0.029-4.999
	c9.405-4.009,16.447-12.824,17.653-23.711C145.399,27.451,133.804,12.975,117.736,11.193z"/>
<g>
	<path fill="none" stroke="#38A963" stroke-width="4.1468" stroke-linecap="round" stroke-miterlimit="10" d="M59.892,68.018
		c-7.599-4.157-12.753-12.23-12.753-21.507c0-2.493,0.375-4.904,1.069-7.174"/>
	<path fill="none" stroke="#38A963" stroke-width="4.1468" stroke-linecap="round" stroke-miterlimit="10" d="M95.46,52.261
		C92.876,63.018,83.19,71.015,71.638,71.015"/>
	<path fill="none" stroke="#38A963" stroke-width="4.1468" stroke-linecap="round" stroke-miterlimit="10" d="M58.642,25.745
		c3.768-2.363,8.223-3.731,12.996-3.731c10.15,0,18.857,6.17,22.578,14.964"/>
	<polygon fill="#38A963" stroke="#38A963" stroke-width="1.213" stroke-linejoin="round" stroke-miterlimit="10" points="
		53.943,43.364 41.261,34.456 54.269,29.432 	"/>
	<polygon fill="#38A963" stroke="#38A963" stroke-width="1.213" stroke-linejoin="round" stroke-miterlimit="10" points="
		87.298,36.536 102.535,33.702 97.031,46.516 	"/>
	<polygon fill="#38A963" stroke="#38A963" stroke-width="1.213" stroke-linejoin="round" stroke-miterlimit="10" points="
		77.612,63.271 76.869,78.753 65.667,70.449 	"/>
</g>
</svg>
