<?xml version="1.0" encoding="utf-8"?>
<!-- Generator: Adobe Illustrator 15.0.2, SVG Export Plug-In . SVG Version: 6.00 Build 0)  -->
<!DOCTYPE svg PUBLIC "-//W3C//DTD SVG 1.1//EN" "http://www.w3.org/Graphics/SVG/1.1/DTD/svg11.dtd">
<svg version="1.1" xmlns="http://www.w3.org/2000/svg" xmlns:xlink="http://www.w3.org/1999/xlink" x="0px" y="0px"
	 width="175.421px" height="147.313px" viewBox="0 0 175.421 147.313" enable-background="new 0 0 175.421 147.313"
	 xml:space="preserve">
<g id="Byggnad_2">
	<g id="Byggnad_2_1_">
	</g>
	<g id="Ren_gas">
	</g>
	<g id="Dusch">
	</g>
	<g id="Draperier">
		<g>
			<polygon fill="#F6F5F6" points="175.421,147.313 0.588,147.313 0.136,39.446 174.968,39.446 			"/>
			<polygon fill="#D3D3D5" points="88.005,147.313 0.588,147.313 0.136,39.446 87.552,39.446 			"/>
			<polygon fill="#FBFBFB" points="167.03,137.899 9.071,137.899 8.619,38.652 166.577,38.652 			"/>
			<path fill="#B1B3B4" stroke="#B1B3B4" stroke-linejoin="round" stroke-miterlimit="10" d="M0.513,39.152
				c-0.057-0.27,0.084-0.543,0.337-0.653l86.445-37.95c0.147-0.065,0.318-0.065,0.467,0l86.444,37.95
				c0.253,0.11,0.394,0.384,0.337,0.653H0.513z"/>
			<g>
				<g>
					<path fill="#87888A" d="M87.528,39.152H0.513c-0.057-0.27,0.084-0.543,0.337-0.653l86.445-37.95"/>
					<path fill="#87888A" d="M87.528,39.652H0.513c-0.236,0-0.44-0.166-0.489-0.397c-0.105-0.499,0.158-1.01,0.626-1.214
						l86.444-37.95c0.032-0.014,0.064-0.024,0.099-0.031l0.336-0.049V39.652z M1.744,38.652h85.284V1.212L1.744,38.652z"/>
				</g>
			</g>
			<path fill="#CBEAF9" d="M51.568,86.838c-1.822-0.202-3.565,0.263-4.985,1.196c-1.559-2.174-3.99-3.709-6.858-4.026
				c-4.44-0.493-8.506,2.076-10.115,6.017c-4.186-0.4-7.933,2.629-8.397,6.822c-0.47,4.233,2.582,8.045,6.814,8.514
				c0.639,0.07,1.266,0.053,1.876-0.029c0.917,2.438,3.132,4.288,5.899,4.594c3.023,0.336,5.806-1.27,7.127-3.816
				c0.981,1.072,2.336,1.811,3.894,1.982c3.41,0.379,6.482-2.08,6.861-5.49c0.049-0.438,0.049-0.869,0.008-1.291
				c2.429-1.035,4.247-3.312,4.559-6.123C58.712,91.036,55.718,87.298,51.568,86.838z"/>
			<path fill="#CBEAF9" d="M146.235,87.791c-1.822-0.203-3.565,0.262-4.985,1.195c-1.559-2.174-3.99-3.709-6.858-4.025
				c-4.44-0.494-8.506,2.076-10.115,6.016c-4.186-0.4-7.933,2.629-8.397,6.822c-0.47,4.234,2.582,8.045,6.814,8.514
				c0.639,0.07,1.266,0.053,1.876-0.029c0.917,2.439,3.132,4.289,5.899,4.594c3.023,0.336,5.806-1.27,7.127-3.816
				c0.981,1.072,2.336,1.811,3.894,1.982c3.41,0.379,6.482-2.08,6.861-5.49c0.049-0.438,0.049-0.869,0.008-1.291
				c2.429-1.035,4.247-3.311,4.559-6.123C153.378,91.988,150.384,88.25,146.235,87.791z"/>
			<path fill="#8D7D6C" d="M99.365,92.749c-1.822-0.202-3.565,0.263-4.985,1.196c-1.559-2.174-3.99-3.709-6.858-4.026
				c-4.44-0.493-8.507,2.076-10.114,6.017c-4.187-0.4-7.934,2.629-8.398,6.822c-0.469,4.233,2.582,8.045,6.814,8.514
				c0.64,0.07,1.267,0.053,1.877-0.029c0.917,2.438,3.133,4.288,5.898,4.594c3.023,0.336,5.807-1.27,7.128-3.816
				c0.981,1.072,2.336,1.811,3.894,1.982c3.41,0.379,6.482-2.08,6.861-5.49c0.049-0.438,0.049-0.869,0.008-1.291
				c2.429-1.035,4.247-3.312,4.559-6.124C106.509,96.947,103.515,93.209,99.365,92.749z"/>
			<path fill="#58585A" d="M88.528,44.759v-5.107h-2v5.107c-3.206,0.483-5.666,3.242-5.666,6.582h13.333
				C94.194,48.001,91.734,45.241,88.528,44.759z"/>
			<polygon opacity="0.4" fill="#7ACDEF" points="106.194,67.828 68.862,67.828 80.261,53.661 94.795,53.661 			"/>
			<line fill="none" stroke="#9C9E9F" stroke-width="2" stroke-miterlimit="10" x1="8.595" y1="71.752" x2="166.577" y2="71.752"/>
			<rect x="16.537" y="73.939" opacity="0.6" fill="#00A096" width="140.527" height="58.34"/>
			<circle fill="none" stroke="#929395" stroke-width="0.5" stroke-miterlimit="10" cx="16.537" cy="71.752" r="2.188"/>
			<circle fill="none" stroke="#929395" stroke-width="0.5" stroke-miterlimit="10" cx="27.29" cy="71.752" r="2.188"/>
			<circle fill="none" stroke="#929395" stroke-width="0.5" stroke-miterlimit="10" cx="38.043" cy="71.752" r="2.188"/>
			<circle fill="none" stroke="#929395" stroke-width="0.5" stroke-miterlimit="10" cx="48.797" cy="71.752" r="2.188"/>
			<circle fill="none" stroke="#929395" stroke-width="0.5" stroke-miterlimit="10" cx="59.55" cy="71.752" r="2.188"/>
			<circle fill="none" stroke="#929395" stroke-width="0.5" stroke-miterlimit="10" cx="70.304" cy="71.752" r="2.188"/>
			<circle fill="none" stroke="#929395" stroke-width="0.5" stroke-miterlimit="10" cx="81.057" cy="71.752" r="2.188"/>
			<circle fill="none" stroke="#929395" stroke-width="0.5" stroke-miterlimit="10" cx="91.811" cy="71.752" r="2.188"/>
			<circle fill="none" stroke="#929395" stroke-width="0.5" stroke-miterlimit="10" cx="102.564" cy="71.752" r="2.188"/>
			<circle fill="none" stroke="#929395" stroke-width="0.5" stroke-miterlimit="10" cx="113.318" cy="71.752" r="2.188"/>
			<circle fill="none" stroke="#929395" stroke-width="0.5" stroke-miterlimit="10" cx="124.071" cy="71.752" r="2.188"/>
			<circle fill="none" stroke="#929395" stroke-width="0.5" stroke-miterlimit="10" cx="134.825" cy="71.752" r="2.188"/>
			<circle fill="none" stroke="#929395" stroke-width="0.5" stroke-miterlimit="10" cx="145.578" cy="71.752" r="2.188"/>
			<circle fill="none" stroke="#929395" stroke-width="0.5" stroke-miterlimit="10" cx="156.332" cy="71.752" r="2.188"/>
			<rect x="16.537" y="73.939" opacity="0.3" fill="#00A096" width="8.566" height="58.34"/>
			<rect x="33.334" y="73.939" opacity="0.3" fill="#00A096" width="8.566" height="58.34"/>
			<rect x="49.786" y="73.939" opacity="0.3" fill="#00A096" width="8.566" height="58.34"/>
			<rect x="66.238" y="73.939" opacity="0.3" fill="#00A096" width="8.566" height="58.34"/>
			<rect x="82.69" y="73.939" opacity="0.3" fill="#00A096" width="8.566" height="58.34"/>
			<rect x="99.143" y="73.939" opacity="0.3" fill="#00A096" width="8.566" height="58.34"/>
			<rect x="115.595" y="73.939" opacity="0.3" fill="#00A096" width="8.565" height="58.34"/>
			<rect x="132.046" y="73.939" opacity="0.3" fill="#00A096" width="8.566" height="58.34"/>
			<rect x="148.498" y="73.939" opacity="0.3" fill="#00A096" width="8.566" height="58.34"/>
			<rect x="21.868" y="73.939" opacity="0.3" fill="#00A096" width="3.234" height="58.34"/>
			<rect x="38.614" y="73.939" opacity="0.3" fill="#00A096" width="3.234" height="58.34"/>
			<rect x="55.118" y="73.939" opacity="0.3" fill="#00A096" width="3.234" height="58.34"/>
			<rect x="71.57" y="73.939" opacity="0.3" fill="#00A096" width="3.234" height="58.34"/>
			<rect x="88.006" y="73.939" opacity="0.3" fill="#00A096" width="3.234" height="58.34"/>
			<rect x="104.476" y="73.939" opacity="0.3" fill="#00A096" width="3.234" height="58.34"/>
			<rect x="120.926" y="73.939" opacity="0.3" fill="#00A096" width="3.234" height="58.34"/>
			<rect x="137.377" y="73.939" opacity="0.3" fill="#00A096" width="3.234" height="58.34"/>
			<rect x="153.83" y="73.939" opacity="0.3" fill="#00A096" width="3.234" height="58.34"/>
		</g>
	</g>
</g>
<g id="Byggnad_1_1_">
	<g id="Byggnad_1">
	</g>
	<g id="Brun_gas">
	</g>
	<g id="Gödsel">
		<g>
			<rect x="252.524" y="22.737" fill="#F6F5F6" width="148.667" height="123.974"/>
			<rect x="252.524" y="22.737" fill="#D3D3D5" width="74.334" height="123.974"/>
			<rect x="263.524" y="22.671" fill="#F8F8F8" width="126.667" height="113.805"/>
			<path fill="#6F7072" stroke="#6F7072" stroke-width="0.7289" stroke-miterlimit="10" d="M400.824,22.672
				c-10.369-28.185-39.565-48.491-73.966-48.491c-34.398,0-63.598,20.307-73.966,48.491H400.824z"/>
			<path fill="#58585A" stroke="#58585A" stroke-width="0.7289" stroke-linecap="round" stroke-miterlimit="10" d="M326.821,22.672
				h-73.929c10.368-28.185,39.567-48.491,73.966-48.491L326.821,22.672z"/>
			<path fill="#B29A7D" d="M339.087,53.173c-0.736-0.082-1.459-0.051-2.155,0.064c-1.001-3.387-3.949-6.016-7.68-6.43
				c-2.793-0.311-5.434,0.689-7.304,2.51c-1.634-1.998-4.017-3.385-6.785-3.691c-5.616-0.623-10.673,3.424-11.295,9.041
				c-0.059,0.531-0.063,1.057-0.041,1.576c-3.214,0.672-5.779,3.336-6.16,6.775c-0.475,4.283,2.612,8.141,6.896,8.613
				c1.735,0.193,3.397-0.205,4.797-1.027c1.093,3.182,3.928,5.619,7.493,6.014c3.763,0.416,7.234-1.561,8.908-4.711
				c1.234,1.857,3.251,3.176,5.641,3.439c4.26,0.473,8.096-2.58,8.604-6.83c3.127-0.732,5.604-3.355,5.978-6.73
				C346.458,57.503,343.369,53.646,339.087,53.173z"/>
			<path fill="#8D7D6C" d="M364.249,30.26c-1.822-0.202-3.565,0.262-4.985,1.196c-1.559-2.174-3.99-3.708-6.858-4.026
				c-4.44-0.493-8.507,2.076-10.114,6.017c-4.187-0.401-7.934,2.628-8.398,6.822c-0.469,4.233,2.582,8.044,6.814,8.513
				c0.64,0.071,1.267,0.053,1.877-0.029c0.917,2.439,3.133,4.289,5.898,4.596c3.023,0.334,5.807-1.271,7.128-3.817
				c0.981,1.071,2.336,1.81,3.894,1.983c3.41,0.378,6.482-2.08,6.861-5.492c0.049-0.438,0.049-0.869,0.008-1.29
				c2.429-1.036,4.247-3.312,4.559-6.124C371.393,34.458,368.398,30.719,364.249,30.26z"/>
			<path fill="#8D7D6C" d="M372.847,57.978c-1.822-0.201-3.565,0.263-4.985,1.197c-1.559-2.174-3.99-3.709-6.858-4.027
				c-4.44-0.492-8.507,2.076-10.114,6.018c-4.187-0.401-7.934,2.628-8.398,6.822c-0.469,4.232,2.582,8.044,6.814,8.513
				c0.64,0.071,1.267,0.053,1.877-0.029c0.917,2.438,3.133,4.288,5.898,4.595c3.023,0.335,5.807-1.271,7.128-3.816
				c0.981,1.071,2.336,1.81,3.894,1.982c3.41,0.379,6.482-2.08,6.861-5.491c0.049-0.438,0.049-0.869,0.008-1.29
				c2.429-1.036,4.247-3.312,4.559-6.124C379.99,62.176,376.996,58.438,372.847,57.978z"/>
			<path fill="#8D7D6C" d="M301.713,31.956c-1.822-0.202-3.565,0.262-4.985,1.196c-1.559-2.174-3.99-3.708-6.858-4.026
				c-4.44-0.493-8.507,2.076-10.114,6.017c-4.187-0.401-7.934,2.628-8.398,6.822c-0.469,4.233,2.582,8.045,6.814,8.514
				c0.64,0.07,1.267,0.053,1.877-0.029c0.917,2.438,3.133,4.288,5.898,4.594c3.023,0.336,5.807-1.27,7.128-3.816
				c0.981,1.072,2.336,1.811,3.894,1.982c3.41,0.379,6.482-2.08,6.861-5.49c0.049-0.438,0.049-0.869,0.008-1.291
				c2.429-1.035,4.247-3.312,4.559-6.124C308.856,36.154,305.862,32.416,301.713,31.956z"/>
			<path fill="#8C6242" d="M284.16,102.526c0,5.7-4.618,10.321-10.318,10.321c-5.699,0-10.317-4.621-10.317-10.321
				c0-5.696,4.618-10.317,10.317-10.317C279.542,92.209,284.16,96.83,284.16,102.526z"/>
			<path fill="#8C6242" d="M370.979,102.318c0,3.967-3.214,7.184-7.181,7.184c-3.965,0-7.181-3.217-7.181-7.184
				c0-3.964,3.216-7.181,7.181-7.181C367.765,95.138,370.979,98.354,370.979,102.318z"/>
			<path fill="#8C6242" d="M390.191,101.486c0,6.107-4.948,11.061-11.056,11.061c-6.104,0-11.056-4.953-11.056-11.061
				c0-6.103,4.951-11.056,11.056-11.056C385.243,90.431,390.191,95.384,390.191,101.486z"/>
			<rect x="263.524" y="102.319" fill="#8C6242" width="126.667" height="34.157"/>
			<path fill="#8C6242" d="M329.17,99.487c0,3.967-3.214,7.184-7.181,7.184c-3.964,0-7.181-3.217-7.181-7.184
				c0-3.964,3.217-7.181,7.181-7.181C325.956,92.307,329.17,95.523,329.17,99.487z"/>
			<circle fill="#8C6242" cx="298.128" cy="99.488" r="18.484"/>
			<circle fill="#8C6242" cx="342.526" cy="107.926" r="18.484"/>
		</g>
	</g>
</g>
</svg>
