<?xml version="1.0" encoding="utf-8"?>
<!-- Generator: Adobe Illustrator 15.0.2, SVG Export Plug-In . SVG Version: 6.00 Build 0)  -->
<!DOCTYPE svg PUBLIC "-//W3C//DTD SVG 1.1//EN" "http://www.w3.org/Graphics/SVG/1.1/DTD/svg11.dtd">
<svg version="1.1" id="Lager_1" xmlns="http://www.w3.org/2000/svg" xmlns:xlink="http://www.w3.org/1999/xlink" x="0px" y="0px"
	 width="63.31px" height="44.249px" viewBox="0 0 63.31 44.249" enable-background="new 0 0 63.31 44.249" xml:space="preserve">
<g>
	<g>
		<g>
			<path fill="#55B270" d="M58.712,21.05c-2.025-0.034-13.865-0.067-17.693-1.876c-9.422-4.445-9.422-19.058-9.422-19.058
				s20.012-2.203,22.572,12.539c0.996,5.767,1.031,5.464,4.764,6.015h4.375v2.38H58.712L58.712,21.05z"/>
		</g>
	</g>
	<g>
		<g>
			<path fill="#44A260" d="M50.942,23.202c-2.021,0.027-13.86,0.064-17.688,1.869c-9.424,4.453-9.424,19.061-9.424,19.061
				s20.01,2.203,22.569-12.541c1.002-5.768,1.035-5.457,4.767-6.016H63.31V23.2L50.942,23.202L50.942,23.202z"/>
		</g>
		<g>
			<path fill="#44A260" d="M47.401,23.267c-4.403,0.119-11.377,0.499-14.147,1.805c-9.424,4.453-9.424,19.061-9.424,19.061"/>
		</g>
	</g>
	<g>
		<g>
			<path fill="#55B270" d="M27.11,20.003c-2.021,0.029-13.86,0.067-17.688,1.871C0,26.329,0,40.937,0,40.937
				s20.008,2.201,22.567-12.542c1.005-5.768,1.035-5.461,4.767-6.018h9.131v-2.375L27.11,20.003L27.11,20.003z"/>
		</g>
		<g>
			<path fill="#55B270" d="M23.572,20.073c-4.402,0.114-11.375,0.497-14.15,1.804C0,26.331,0,40.938,0,40.938"/>
		</g>
	</g>
</g>
</svg>
