<?xml version="1.0" encoding="utf-8"?>
<!-- Generator: Adobe Illustrator 15.0.2, SVG Export Plug-In . SVG Version: 6.00 Build 0)  -->
<!DOCTYPE svg PUBLIC "-//W3C//DTD SVG 1.1//EN" "http://www.w3.org/Graphics/SVG/1.1/DTD/svg11.dtd">
<svg version="1.1" id="Lager_1" xmlns="http://www.w3.org/2000/svg" xmlns:xlink="http://www.w3.org/1999/xlink" x="0px" y="0px"
	 width="31.846px" height="13.469px" viewBox="0 0 31.846 13.469" enable-background="new 0 0 31.846 13.469" xml:space="preserve">
<g>
	<g>
		<g>
			<g>
				<path fill="#54B170" d="M4.908,12.419C4.913,11.992,4.911,9.5,5.29,8.693c0.93-1.987,4.004-1.998,4.004-1.998
					s0.479,4.21-2.622,4.762c-1.214,0.214-1.149,0.221-1.264,1.006l0.005,0.922l-0.501,0.002L4.908,12.419z"/>
			</g>
		</g>
		<g>
			<g>
				<path fill="#45A360" d="M4.45,10.785c-0.008-0.426-0.025-2.918-0.408-3.723c-0.944-1.98-4.02-1.969-4.02-1.969
					S-0.427,9.308,2.68,9.835c1.215,0.207,1.15,0.214,1.271,0.999l0.01,2.556l0.499-0.001L4.45,10.785z"/>
			</g>
			<g>
				<path fill="#45A360" d="M4.433,10.04C4.405,9.113,4.319,7.645,4.042,7.062c-0.944-1.98-4.02-1.969-4.02-1.969"/>
			</g>
		</g>
		<path fill="#915C9F" d="M7.114,0v3.125c0,1.393-0.988,2.523-2.206,2.523l0,0c-1.219,0-2.206-1.131-2.206-2.523V0l2.206,1.686
			L7.114,0z"/>
		<path fill="#824994" d="M4.908,5.648L4.908,5.648c-1.219,0-2.206-1.131-2.206-2.523V0l2.206,1.686V5.648z"/>
	</g>
	<g>
		<g>
			<g>
				<path fill="#54B170" d="M16.278,12.498c0.005-0.428,0.003-2.919,0.381-3.727c0.929-1.986,4.004-1.997,4.004-1.997
					s0.479,4.21-2.622,4.761c-1.213,0.215-1.149,0.221-1.264,1.007l0.004,0.922l-0.5,0.001L16.278,12.498z"/>
			</g>
		</g>
		<g>
			<g>
				<path fill="#45A360" d="M15.82,10.863c-0.007-0.425-0.024-2.918-0.407-3.722c-0.945-1.98-4.02-1.97-4.02-1.97
					s-0.449,4.215,2.657,4.742c1.215,0.207,1.15,0.214,1.271,0.998l0.009,2.557l0.5-0.002L15.82,10.863z"/>
			</g>
			<g>
				<path fill="#45A360" d="M15.803,10.119c-0.028-0.928-0.113-2.395-0.391-2.978c-0.945-1.98-4.02-1.97-4.02-1.97"/>
			</g>
		</g>
		<path fill="#F1C510" d="M18.484,0.078v3.125c0,1.394-0.987,2.523-2.206,2.523l0,0c-1.219,0-2.206-1.13-2.206-2.523V0.078
			l2.206,1.686L18.484,0.078z"/>
		<path fill="#F59E1A" d="M16.278,5.727L16.278,5.727c-1.219,0-2.206-1.13-2.206-2.523V0.078l2.206,1.686V5.727z"/>
	</g>
	<g>
		<g>
			<g>
				<path fill="#54B170" d="M27.434,12.42c0.005-0.428,0.003-2.919,0.382-3.727c0.93-1.986,4.004-1.998,4.004-1.998
					s0.479,4.211-2.622,4.762c-1.214,0.215-1.149,0.221-1.264,1.007l0.005,0.921l-0.501,0.002L27.434,12.42z"/>
			</g>
		</g>
		<g>
			<g>
				<path fill="#45A360" d="M26.976,10.785c-0.008-0.425-0.025-2.918-0.408-3.722c-0.944-1.981-4.02-1.97-4.02-1.97
					s-0.449,4.215,2.657,4.742c1.215,0.207,1.15,0.213,1.271,0.998l0.01,2.557l0.499-0.002L26.976,10.785z"/>
			</g>
			<g>
				<path fill="#45A360" d="M26.958,10.041c-0.027-0.928-0.113-2.396-0.391-2.979c-0.944-1.98-4.02-1.969-4.02-1.969"/>
			</g>
		</g>
		<path fill="#E84D3E" d="M29.64,0v3.125c0,1.394-0.987,2.523-2.206,2.523l0,0c-1.218,0-2.206-1.13-2.206-2.523V0l2.206,1.686
			L29.64,0z"/>
		<path fill="#BF3A2A" d="M27.434,5.648L27.434,5.648c-1.218,0-2.206-1.13-2.206-2.523V0l2.206,1.686V5.648z"/>
	</g>
</g>
</svg>
