<?xml version="1.0" encoding="utf-8"?>
<!-- Generator: Adobe Illustrator 15.0.2, SVG Export Plug-In . SVG Version: 6.00 Build 0)  -->
<!DOCTYPE svg PUBLIC "-//W3C//DTD SVG 1.1//EN" "http://www.w3.org/Graphics/SVG/1.1/DTD/svg11.dtd">
<svg version="1.1" id="Lager_1" xmlns="http://www.w3.org/2000/svg" xmlns:xlink="http://www.w3.org/1999/xlink" x="0px" y="0px"
	 width="118.201px" height="169.802px" viewBox="0 0 118.201 169.802" enable-background="new 0 0 118.201 169.802"
	 xml:space="preserve">
<g>
	<g>
		<path fill="#54B06F" d="M62.246,157.49c0.068-5.412,0.043-37.011,4.836-47.246c11.789-25.2,50.78-25.336,50.78-25.336
			s6.078,53.384-33.253,60.374c-15.387,2.719-14.576,2.803-16.021,12.769l0.053,11.687l-6.348,0.021L62.246,157.49z"/>
	</g>
</g>
<g>
	<g>
		<path fill="#46A360" d="M56.432,136.767c-0.092-5.39-0.309-37.003-5.166-47.201C39.287,64.448,0.286,64.588,0.286,64.588
			s-5.691,53.447,33.7,60.136c15.404,2.621,14.586,2.711,16.111,12.66l0.117,32.418l6.336-0.022L56.432,136.767z"/>
	</g>
	<g>
		<path fill="#46A360" d="M56.219,127.321c-0.359-11.755-1.436-30.371-4.953-37.756C39.287,64.448,0.286,64.588,0.286,64.588"/>
	</g>
</g>
<path fill="#E74D3D" d="M90.224,0v39.623c0,17.672-12.526,31.999-27.978,31.999l0,0c-15.452,0-27.979-14.327-27.979-31.999V0
	l27.979,21.367L90.224,0z"/>
<path fill="#BF392A" d="M62.246,71.622L62.246,71.622c-15.452,0-27.979-14.327-27.979-31.999V0l27.979,21.367V71.622z"/>
</svg>
