<?xml version="1.0" encoding="utf-8"?>
<!-- Generator: Adobe Illustrator 15.0.2, SVG Export Plug-In . SVG Version: 6.00 Build 0)  -->
<!DOCTYPE svg PUBLIC "-//W3C//DTD SVG 1.1//EN" "http://www.w3.org/Graphics/SVG/1.1/DTD/svg11.dtd">
<svg version="1.1" id="Lager_1" xmlns="http://www.w3.org/2000/svg" xmlns:xlink="http://www.w3.org/1999/xlink" x="0px" y="0px"
	 width="171.034px" height="399.358px" viewBox="0 0 171.034 399.358" enable-background="new 0 0 171.034 399.358"
	 xml:space="preserve">
<g>
	<g>
		
			<path fill="#F0F0F0" stroke="#F0F0F0" stroke-width="1.4178" stroke-linecap="round" stroke-linejoin="round" stroke-miterlimit="10" d="
			M79.028,218.396"/>
		
			<path fill="#DADADA" stroke="#DADADA" stroke-width="1.4178" stroke-linecap="round" stroke-linejoin="round" stroke-miterlimit="10" d="
			M16.896,110.652c-0.536,0.325-0.706,1.022-0.381,1.558l9.24,15.215l-2.064,1.253l-9.239-15.215
			c-0.325-0.535-1.022-0.706-1.558-0.381c-0.536,0.325-0.706,1.023-0.381,1.558l9.239,15.215l-2.438,1.481l-9.239-15.215
			c-0.325-0.535-1.022-0.706-1.558-0.38c-0.535,0.325-0.706,1.022-0.38,1.558l9.239,15.215l-2.251,1.367l-9.239-15.215
			c-0.325-0.536-1.022-0.706-1.558-0.381c-0.536,0.325-0.706,1.022-0.381,1.558l9.24,15.215l0.178,0.293l6.515,10.728
			c1.565,2.578,4.286,4.017,7.095,4.073l44.301,72.954c1.3,2.142,4.09,2.823,6.231,1.522c2.141-1.3,2.823-4.09,1.522-6.231
			l-44.301-72.954c1.245-2.518,1.224-5.596-0.342-8.174l-6.515-10.728l-0.178-0.293l-9.239-15.215
			C18.128,110.498,17.431,110.327,16.896,110.652z"/>
		
			<path fill="#DADADA" stroke="#DADADA" stroke-width="1.4178" stroke-linecap="round" stroke-linejoin="round" stroke-miterlimit="10" d="
			M27.693,126.248"/>
		<g>
			<path fill="#BEBEBE" d="M77.505,224.628c-2.142,1.301-4.932,0.619-6.231-1.522l-44.301-72.954
				c-2.809-0.056-5.53-1.495-7.095-4.073l-6.515-10.728l-0.178-0.293l-9.24-15.215c-0.325-0.535-0.155-1.232,0.381-1.558
				c0.535-0.325,1.232-0.155,1.558,0.381l9.239,15.215l2.251-1.367l-9.239-15.215c-0.325-0.535-0.155-1.232,0.38-1.558
				c0.536-0.325,1.233-0.155,1.558,0.38l9.239,15.215l1.125-0.684L77.505,224.628z"/>
			<path fill="#BEBEBE" d="M20.626,130.539l57.066,93.976c0.062,0.104,0.03,0.239-0.074,0.302c-2.241,1.36-5.172,0.645-6.533-1.597
				l-44.239-72.853c-2.957-0.099-5.625-1.653-7.157-4.175L3.758,119.956c-0.387-0.637-0.183-1.472,0.455-1.859
				c0.638-0.387,1.472-0.183,1.859,0.455l9.125,15.027l1.876-1.139l-9.125-15.027c-0.387-0.638-0.184-1.472,0.455-1.86
				c0.638-0.387,1.472-0.184,1.859,0.455l9.125,15.027l1.125-0.683L20.626,130.539z M4.441,118.472
				c-0.431,0.262-0.569,0.825-0.307,1.256l15.932,26.236c1.474,2.427,4.058,3.911,6.912,3.967c0.075,0.001,0.144,0.041,0.184,0.105
				l44.301,72.954c1.197,1.972,3.732,2.643,5.739,1.559l-56.835-93.596l-0.938,0.569c-0.104,0.063-0.238,0.03-0.301-0.073
				l-9.239-15.215c-0.262-0.431-0.826-0.568-1.256-0.307c-0.431,0.262-0.569,0.825-0.307,1.256l9.239,15.215
				c0.062,0.104,0.03,0.238-0.074,0.301l-2.251,1.367c-0.104,0.063-0.238,0.03-0.301-0.074l-9.239-15.215
				C5.436,118.348,4.872,118.21,4.441,118.472z"/>
		</g>
	</g>
	<g>
		<path fill="#EFBB7C" stroke="#EFBB7C" stroke-width="1.3888" stroke-miterlimit="10" d="M120.327,285.746
			c0,2.351-1.906,4.256-4.256,4.256l0,0c-2.352,0-4.258-1.905-4.258-4.256v-99.312c0-2.351,1.906-4.257,4.258-4.257l0,0
			c2.35,0,4.256,1.906,4.256,4.257V285.746z"/>
		
			<line fill="none" stroke="#DD9549" stroke-width="1.0416" stroke-linecap="round" stroke-linejoin="round" stroke-miterlimit="10" x1="118.253" y1="280.173" x2="118.253" y2="283.453"/>
		
			<line fill="none" stroke="#DD9549" stroke-width="1.0416" stroke-linecap="round" stroke-linejoin="round" stroke-miterlimit="10" x1="116.069" y1="247.199" x2="116.069" y2="250.479"/>
		
			<line fill="none" stroke="#DD9549" stroke-width="1.0416" stroke-linecap="round" stroke-linejoin="round" stroke-miterlimit="10" x1="118.253" y1="241.996" x2="118.253" y2="245.276"/>
		
			<line fill="none" stroke="#DD9549" stroke-width="1.0416" stroke-linecap="round" stroke-linejoin="round" stroke-miterlimit="10" x1="114.169" y1="217.365" x2="114.169" y2="220.646"/>
		
			<line fill="none" stroke="#DD9549" stroke-width="1.0416" stroke-linecap="round" stroke-linejoin="round" stroke-miterlimit="10" x1="116.142" y1="223.626" x2="116.142" y2="226.906"/>
		
			<line fill="none" stroke="#DD9549" stroke-width="1.0416" stroke-linecap="round" stroke-linejoin="round" stroke-miterlimit="10" x1="118.165" y1="215.878" x2="118.165" y2="219.158"/>
		
			<line fill="none" stroke="#DD9549" stroke-width="1.0416" stroke-linecap="round" stroke-linejoin="round" stroke-miterlimit="10" x1="114.169" y1="204.984" x2="114.169" y2="208.265"/>
		
			<line fill="none" stroke="#DD9549" stroke-width="1.0416" stroke-linecap="round" stroke-linejoin="round" stroke-miterlimit="10" x1="116.142" y1="196.086" x2="116.142" y2="199.366"/>
		
			<line fill="none" stroke="#DD9549" stroke-width="1.0416" stroke-linecap="round" stroke-linejoin="round" stroke-miterlimit="10" x1="114.169" y1="191.392" x2="114.169" y2="194.672"/>
		
			<line fill="none" stroke="#DD9549" stroke-width="1.0416" stroke-linecap="round" stroke-linejoin="round" stroke-miterlimit="10" x1="118.253" y1="187.52" x2="118.253" y2="190.8"/>
		
			<line fill="none" stroke="#DD9549" stroke-width="1.0416" stroke-linecap="round" stroke-linejoin="round" stroke-miterlimit="10" x1="114.169" y1="238.655" x2="114.169" y2="241.936"/>
		
			<line fill="none" stroke="#DD9549" stroke-width="1.0416" stroke-linecap="round" stroke-linejoin="round" stroke-miterlimit="10" x1="116.069" y1="270.143" x2="116.069" y2="276.069"/>
		
			<line fill="none" stroke="#DD9549" stroke-width="1.0416" stroke-linecap="round" stroke-linejoin="round" stroke-miterlimit="10" x1="118.253" y1="255.113" x2="118.253" y2="261.041"/>
		
			<line fill="none" stroke="#DD9549" stroke-width="1.0416" stroke-linecap="round" stroke-linejoin="round" stroke-miterlimit="10" x1="118.253" y1="230.753" x2="118.253" y2="236.682"/>
		
			<line fill="none" stroke="#DD9549" stroke-width="1.0416" stroke-linecap="round" stroke-linejoin="round" stroke-miterlimit="10" x1="114.169" y1="228.546" x2="114.169" y2="234.475"/>
		
			<line fill="none" stroke="#DD9549" stroke-width="1.0416" stroke-linecap="round" stroke-linejoin="round" stroke-miterlimit="10" x1="116.142" y1="209.09" x2="116.142" y2="215.019"/>
		
			<line fill="none" stroke="#DD9549" stroke-width="1.0416" stroke-linecap="round" stroke-linejoin="round" stroke-miterlimit="10" x1="118.165" y1="199.366" x2="118.165" y2="205.295"/>
		
			<line fill="none" stroke="#DD9549" stroke-width="1.0416" stroke-linecap="round" stroke-linejoin="round" stroke-miterlimit="10" x1="114.169" y1="276.893" x2="114.169" y2="280.173"/>
		
			<line fill="none" stroke="#DD9549" stroke-width="1.0416" stroke-linecap="round" stroke-linejoin="round" stroke-miterlimit="10" x1="118.253" y1="265.856" x2="118.253" y2="269.137"/>
		
			<line fill="none" stroke="#DD9549" stroke-width="1.0416" stroke-linecap="round" stroke-linejoin="round" stroke-miterlimit="10" x1="114.169" y1="253.157" x2="114.169" y2="256.438"/>
		
			<line fill="none" stroke="#DD9549" stroke-width="1.0416" stroke-linecap="round" stroke-linejoin="round" stroke-miterlimit="10" x1="114.169" y1="262.38" x2="114.169" y2="265.66"/>
	</g>
	<g>
		
			<polygon fill="#D8D9DC" stroke="#D8D9DC" stroke-width="5.8714" stroke-linecap="round" stroke-linejoin="round" stroke-miterlimit="10" points="
			40.716,71.139 30.586,65.104 27.756,57.522 31.463,46.348 		"/>
		<g>
			<polygon fill="#C1C1C7" points="40.716,71.139 30.586,65.104 29.175,61.324 36.084,58.73 			"/>
			<path fill="#C1C1C7" d="M28.856,60.473l6.91-2.594c0,0,0-0.001,0.001-0.001c0.226-0.084,0.475-0.075,0.694,0.024
				c0.22,0.1,0.391,0.283,0.475,0.509l4.631,12.409c0.13,0.347,0.035,0.739-0.239,0.989c-0.087,0.08-0.188,0.14-0.295,0.18
				c-0.228,0.085-0.484,0.077-0.712-0.033l-10.129-6.035c-0.212-0.102-0.376-0.281-0.458-0.501l-1.733-4.644L28.856,60.473z
				 M31.31,64.443l7.765,4.898l-3.523-9.44l-5.207,1.956L31.31,64.443z"/>
		</g>
		
			<polygon fill="#2D7FBE" stroke="#2D7FBE" stroke-width="5.8714" stroke-linecap="round" stroke-linejoin="round" stroke-miterlimit="10" points="
			145.694,37.521 41.032,71.152 31.683,46.104 132.786,2.936 		"/>
		<g>
			<polygon fill="#296EA4" points="145.694,37.521 41.032,71.152 36.357,58.628 139.241,20.229 			"/>
			<path fill="#296EA4" d="M146.546,37.204c0.088,0.233,0.074,0.491-0.033,0.715c-0.102,0.21-0.281,0.373-0.5,0.455
				c-0.012,0.005-0.025,0.01-0.039,0.014L41.31,72.018c-0.462,0.148-0.959-0.093-1.129-0.548l-4.992-13.375l0.851-0.319
				L139.774,19.06L146.546,37.204z M41.58,70.022l102.931-33.074l-5.805-15.55L37.527,59.162L41.58,70.022z"/>
		</g>
		
			<rect x="22.181" y="58.884" transform="matrix(-0.9369 0.3497 -0.3497 -0.9369 69.1588 113.3473)" fill="#E94D3E" stroke="#E94D3E" stroke-width="2.604" stroke-linecap="round" stroke-linejoin="round" stroke-miterlimit="10" width="4.333" height="8.066"/>
		<g>
			
				<rect x="22.886" y="62.789" transform="matrix(-0.9369 0.3497 -0.3497 -0.9369 71.1851 116.7597)" fill="#D04535" width="4.333" height="4.033"/>
			<path fill="#D04535" d="M28.165,65.797c0.077,0.208-0.028,0.441-0.237,0.518l-4.059,1.515c-0.208,0.078-0.441-0.028-0.519-0.237
				l-1.411-3.778c-0.078-0.208,0.029-0.44,0.237-0.519l4.437-1.656L28.165,65.797z M23.965,66.935l3.303-1.233l-1.128-3.024
				l-3.304,1.233L23.965,66.935z"/>
		</g>
		
			<rect x="19.219" y="58.328" transform="matrix(-0.9369 0.3497 -0.3497 -0.9369 62.9312 117.0455)" fill="#E94D3E" stroke="#E94D3E" stroke-width="2.769" stroke-linecap="round" stroke-linejoin="round" stroke-miterlimit="10" width="3.363" height="11.751"/>
		<g>
			<polygon fill="#296EA4" points="128.606,4.72 132.786,2.936 145.694,37.521 141.376,38.91 			"/>
			<path fill="#296EA4" d="M140.522,39.228L127.755,5.039L127.47,4.27l4.959-2.17c0.236-0.097,0.488-0.097,0.717,0
				c0.229,0.098,0.406,0.285,0.492,0.517l12.908,34.586c0.088,0.233,0.074,0.491-0.033,0.715c-0.102,0.21-0.281,0.373-0.5,0.455
				c-0.012,0.005-0.025,0.01-0.039,0.014l0.014-0.004l-5.168,1.66L140.522,39.228z"/>
		</g>
		
			<path fill="#286192" stroke="#286192" stroke-width="5.8714" stroke-linecap="round" stroke-linejoin="round" stroke-miterlimit="10" d="
			M141.376,38.91"/>
		<path fill="#286395" d="M139.774,19.06l6.771,18.144c0.088,0.233,0.074,0.491-0.033,0.715c-0.102,0.21-0.281,0.373-0.5,0.455
			c-0.012,0.005-0.025,0.01-0.039,0.014l0.014-0.004l-5.168,1.66l-0.297-0.815l-6.703-17.945L139.774,19.06z"/>
	</g>
	<g>
		
			<rect x="53.694" y="330.484" fill="#EDEDED" stroke="#EDEDED" stroke-width="3.8164" stroke-linecap="round" stroke-linejoin="round" stroke-miterlimit="10" width="61.312" height="40.198"/>
		
			<rect x="53.694" y="350.584" fill="#C6C6C6" stroke="#C6C6C6" stroke-width="3.8304" stroke-miterlimit="10" width="61.312" height="20.247"/>
		
			<line fill="none" stroke="#C6C6C6" stroke-width="3.7729" stroke-linejoin="round" stroke-miterlimit="10" x1="66.824" y1="357.058" x2="66.824" y2="329.907"/>
		
			<line fill="none" stroke="#C6C6C6" stroke-width="3.8164" stroke-linejoin="round" stroke-miterlimit="10" x1="75.587" y1="357.688" x2="75.587" y2="329.907"/>
		
			<line fill="none" stroke="#C6C6C6" stroke-width="3.8164" stroke-linejoin="round" stroke-miterlimit="10" x1="84.35" y1="357.71" x2="84.35" y2="329.875"/>
		
			<line fill="none" stroke="#C6C6C6" stroke-width="3.8164" stroke-linejoin="round" stroke-miterlimit="10" x1="93.114" y1="357.71" x2="93.114" y2="329.883"/>
		
			<line fill="none" stroke="#C6C6C6" stroke-width="3.8164" stroke-linejoin="round" stroke-miterlimit="10" x1="101.878" y1="357.688" x2="101.878" y2="329.891"/>
		
			<line fill="none" stroke="#EDEDED" stroke-width="3.1054" stroke-linejoin="round" stroke-miterlimit="10" x1="66.824" y1="371.401" x2="66.824" y2="349.838"/>
		
			<line fill="none" stroke="#EDEDED" stroke-width="3.1054" stroke-linejoin="round" stroke-miterlimit="10" x1="75.587" y1="371.401" x2="75.587" y2="350.279"/>
		
			<line fill="none" stroke="#EDEDED" stroke-width="3.1054" stroke-linejoin="round" stroke-miterlimit="10" x1="84.35" y1="371.401" x2="84.35" y2="350.279"/>
		
			<line fill="none" stroke="#EDEDED" stroke-width="3.1054" stroke-linejoin="round" stroke-miterlimit="10" x1="93.114" y1="371.401" x2="93.114" y2="350.279"/>
		
			<line fill="none" stroke="#EDEDED" stroke-width="3.1066" stroke-linejoin="round" stroke-miterlimit="10" x1="101.878" y1="371.434" x2="101.878" y2="350.279"/>
		<circle fill="#C6C6C6" stroke="#C6C6C6" stroke-width="3.0835" stroke-miterlimit="10" cx="26.695" cy="350.279" r="20.404"/>
		<circle fill="#C6C6C6" stroke="#EDEDED" stroke-width="3.8164" stroke-miterlimit="10" cx="26.696" cy="350.279" r="14.346"/>
		
			<path fill="#EDEDED" stroke="#EDEDED" stroke-width="1.2806" stroke-linecap="round" stroke-linejoin="round" stroke-miterlimit="10" d="
			M49.828,329.672c0.365,0,0.66,0.296,0.66,0.661v40.502c0,0.364-0.295,0.661-0.66,0.661l0,0c-0.365,0-0.661-0.297-0.661-0.661
			v-40.502C49.167,329.968,49.462,329.672,49.828,329.672L49.828,329.672z"/>
		
			<path fill="#C6C6C6" stroke="#C6C6C6" stroke-width="1.2806" stroke-linecap="round" stroke-linejoin="round" stroke-miterlimit="10" d="
			M50.488,349.838v20.997c0,0.364-0.295,0.661-0.66,0.661l0,0c-0.365,0-0.661-0.297-0.661-0.661v-20.997H50.488z"/>
		
			<path fill="#EDEDED" stroke="#EDEDED" stroke-width="1.2806" stroke-linecap="round" stroke-linejoin="round" stroke-miterlimit="10" d="
			M118.692,329.672c0.365,0,0.662,0.296,0.662,0.661v40.502c0,0.364-0.297,0.661-0.662,0.661l0,0c-0.363,0-0.66-0.297-0.66-0.661
			v-40.502C118.032,329.968,118.329,329.672,118.692,329.672L118.692,329.672z"/>
		
			<path fill="#C6C6C6" stroke="#C6C6C6" stroke-width="1.2806" stroke-linecap="round" stroke-linejoin="round" stroke-miterlimit="10" d="
			M119.354,349.838v20.997c0,0.364-0.297,0.661-0.662,0.661l0,0c-0.363,0-0.66-0.297-0.66-0.661v-20.997H119.354z"/>
	</g>
	<circle opacity="0.8" fill="#E94E1B" cx="39.995" cy="249.475" r="6.291"/>
	<circle opacity="0.8" fill="#E94E1B" cx="100.55" cy="121.337" r="10.85"/>
	<circle opacity="0.8" fill="#E94E1B" cx="6.292" cy="189.311" r="6.292"/>
	<circle opacity="0.8" fill="#E94E1B" cx="100.55" cy="393.067" r="6.291"/>
	<circle opacity="0.8" fill="#CA9E67" cx="149.77" cy="62.134" r="6.292"/>
	<circle opacity="0.8" fill="#CA9E67" cx="78.852" cy="269.149" r="6.292"/>
	<circle opacity="0.8" fill="#7D4E24" cx="47.205" cy="96.959" r="6.291"/>
	<circle opacity="0.8" fill="#7D4E24" cx="81.296" cy="191.791" r="6.291"/>
	<circle opacity="0.8" fill="#7D4E24" cx="140.962" cy="182.286" r="6.291"/>
	<circle opacity="0.8" fill="#7D4E24" cx="134.827" cy="349.912" r="6.291"/>
	<circle opacity="0.8" fill="#CA9E67" cx="160.185" cy="265.834" r="10.85"/>
	<circle opacity="0.8" fill="#E94E1B" cx="40.913" cy="296.558" r="10.849"/>
</g>
</svg>
