<?xml version="1.0" encoding="utf-8"?>
<!-- Generator: Adobe Illustrator 15.0.2, SVG Export Plug-In . SVG Version: 6.00 Build 0)  -->
<!DOCTYPE svg PUBLIC "-//W3C//DTD SVG 1.1//EN" "http://www.w3.org/Graphics/SVG/1.1/DTD/svg11.dtd">
<svg version="1.1" id="Lager_1" xmlns="http://www.w3.org/2000/svg" xmlns:xlink="http://www.w3.org/1999/xlink" x="0px" y="0px"
	 width="171.035px" height="399.357px" viewBox="0 0 171.035 399.357" enable-background="new 0 0 171.035 399.357"
	 xml:space="preserve">
<circle fill="#C89D64" stroke="#C89D64" stroke-width="1.0004" stroke-linecap="round" stroke-linejoin="round" stroke-miterlimit="10" cx="33.521" cy="244.45" r="6.291"/>
<circle opacity="0.8" fill="#7D4E24" enable-background="new    " cx="134.828" cy="199.679" r="6.291"/>
<circle fill="#C89D64" stroke="#C89D64" stroke-width="1.0004" stroke-linecap="round" stroke-linejoin="round" stroke-miterlimit="10" cx="116.035" cy="127.863" r="10.85"/>
<circle fill="#C89D64" stroke="#C89D64" stroke-width="1.0004" stroke-linecap="round" stroke-linejoin="round" stroke-miterlimit="10" cx="35.255" cy="110.72" r="6.292"/>
<circle fill="#9B7040" stroke="#9B7040" stroke-width="1.0004" stroke-linecap="round" stroke-linejoin="round" stroke-miterlimit="10" cx="99.077" cy="385.504" r="6.291"/>
<circle fill="#C89D64" stroke="#C89D64" stroke-width="1.0004" stroke-linecap="round" stroke-linejoin="round" stroke-miterlimit="10" cx="134.828" cy="89.397" r="6.292"/>
<circle fill="#C89D64" stroke="#C89D64" stroke-width="1.0004" stroke-linecap="round" stroke-linejoin="round" stroke-miterlimit="10" cx="66.079" cy="264.123" r="6.292"/>
<circle fill="#C89D64" stroke="#C89D64" stroke-width="1.0004" stroke-linecap="round" stroke-linejoin="round" stroke-miterlimit="10" cx="40.914" cy="57.428" r="6.292"/>
<circle fill="#9B7040" stroke="#9B7040" stroke-width="1.0004" stroke-linecap="round" stroke-linejoin="round" stroke-miterlimit="10" cx="28.964" cy="44.845" r="6.291"/>
<circle fill="#9B7040" stroke="#9B7040" stroke-width="1.0004" stroke-linecap="round" stroke-linejoin="round" stroke-miterlimit="10" cx="53.496" cy="135.815" r="6.291"/>
<circle fill="#9B7040" stroke="#9B7040" stroke-width="1.0004" stroke-linecap="round" stroke-linejoin="round" stroke-miterlimit="10" cx="145.597" cy="142.106" r="6.291"/>
<circle opacity="0.8" fill="#7D4E24" enable-background="new    " cx="134.828" cy="349.911" r="6.291"/>
<circle fill="#C89D64" stroke="#C89D64" stroke-width="1.0004" stroke-linecap="round" stroke-linejoin="round" stroke-miterlimit="10" cx="160.185" cy="218" r="10.85"/>
<circle fill="#9B7040" stroke="#9B7040" stroke-width="1.0004" stroke-linecap="round" stroke-linejoin="round" stroke-miterlimit="10" cx="33.521" cy="289.328" r="10.849"/>
<g>
	
		<polygon fill="#9B7040" stroke="#9B7040" stroke-width="1.0004" stroke-linecap="round" stroke-linejoin="round" stroke-miterlimit="10" points="
		57.329,383.548 64.051,358.941 64.008,328.857 34.258,334.332 18.355,352.373 34.623,362.493 17.776,378.713 	"/>
</g>
<g>
	
		<polygon fill="#C89D64" stroke="#C89D64" stroke-width="0.4924" stroke-linecap="round" stroke-linejoin="round" stroke-miterlimit="10" points="
		124.647,50.833 133.723,21.513 109.906,13.588 96.464,41.492 67.377,43.883 81.338,59.852 84.856,76.102 	"/>
</g>
<g>
	
		<polygon fill="#C89D64" stroke="#C89D64" stroke-width="0.3697" stroke-linecap="round" stroke-linejoin="round" stroke-miterlimit="10" points="
		142.077,298.38 148.891,276.365 131.008,270.415 105.092,270.415 99.077,293.163 109.559,305.153 112.201,317.354 	"/>
</g>
<g>
	
		<polygon fill="#BE915C" stroke="#BE915C" stroke-width="0.6273" stroke-linecap="round" stroke-linejoin="round" stroke-miterlimit="10" points="
		25.572,206.177 66.719,213.128 94.003,178.404 62.478,185.691 34.344,167.681 	"/>
</g>
</svg>
