<?xml version="1.0" encoding="utf-8"?>
<!-- Generator: Adobe Illustrator 15.0.2, SVG Export Plug-In . SVG Version: 6.00 Build 0)  -->
<!DOCTYPE svg PUBLIC "-//W3C//DTD SVG 1.1//EN" "http://www.w3.org/Graphics/SVG/1.1/DTD/svg11.dtd">
<svg version="1.1" id="Lager_1" xmlns="http://www.w3.org/2000/svg" xmlns:xlink="http://www.w3.org/1999/xlink" x="0px" y="0px"
	 width="153.402px" height="137.652px" viewBox="0 0 153.402 137.652" enable-background="new 0 0 153.402 137.652"
	 xml:space="preserve">
<g>
	<g>
		
			<polygon fill="#C89D64" stroke="#C89D64" stroke-width="1.0004" stroke-linecap="round" stroke-linejoin="round" stroke-miterlimit="10" points="
			137.561,131.129 134.862,76.461 134.874,8.819 76.701,8.819 18.53,8.819 18.541,76.461 15.842,131.129 		"/>
	</g>
	<g>
		
			<polyline fill="#BE915C" stroke="#BE915C" stroke-width="1.0004" stroke-linecap="round" stroke-linejoin="round" stroke-miterlimit="10" points="
			137.561,131.129 134.862,76.461 134.874,25.659 76.701,25.659 18.53,25.659 		"/>
	</g>
	<g>
		
			<rect x="14.091" y="4.65" fill="#C89D64" stroke="#C89D64" stroke-width="1.0147" stroke-linecap="round" stroke-linejoin="round" stroke-miterlimit="10" width="125.222" height="21.009"/>
	</g>
</g>
<g>
	
		<polyline fill="#BE915C" stroke="#BE915C" stroke-width="1.0004" stroke-linecap="round" stroke-linejoin="round" stroke-miterlimit="10" points="
		137.561,131.129 134.862,76.461 134.874,25.659 76.701,25.659 18.53,25.659 	"/>
</g>
<g>
	
		<rect x="14.091" y="4.65" fill="#C89D64" stroke="#C89D64" stroke-width="1.0147" stroke-linecap="round" stroke-linejoin="round" stroke-miterlimit="10" width="125.222" height="21.009"/>
</g>
<g>
	
		<path fill="#9B7040" stroke="#9B7040" stroke-width="1.0004" stroke-linecap="round" stroke-linejoin="round" stroke-miterlimit="10" d="
		M135.735,94.139c0,0-12.318,3.89-23.434,3.631c-8.053-0.188-19.26-5.483-31.923-5.483c-12.773,0-20.155,13.675-35.898,13.675
		c-12.224,0-26.736-8.057-26.736-8.057l-1.902,33.224h121.719l-1.633-33.097L135.735,94.139z"/>
</g>
<g opacity="0.79">
	
		<path fill="#936A3D" stroke="#936A3D" stroke-width="1.0004" stroke-linecap="round" stroke-linejoin="round" stroke-miterlimit="10" d="
		M137.561,131.129l-1.633-33.097l-0.193-3.893c0,0-12.318,3.89-23.434,3.631c-2.65-0.062-5.642-0.677-8.914-1.474L137.561,131.129z"
		/>
</g>
</svg>
