<?xml version="1.0" encoding="utf-8"?>
<!-- Generator: Adobe Illustrator 17.1.0, SVG Export Plug-In . SVG Version: 6.00 Build 0)  -->
<!DOCTYPE svg PUBLIC "-//W3C//DTD SVG 1.1//EN" "http://www.w3.org/Graphics/SVG/1.1/DTD/svg11.dtd">
<svg version="1.1" xmlns="http://www.w3.org/2000/svg" xmlns:xlink="http://www.w3.org/1999/xlink" x="0px" y="0px"
	 width="576.816px" height="484.453px" viewBox="0 0 576.816 484.453" enable-background="new 0 0 576.816 484.453"
	 xml:space="preserve">
<g id="Lager_1" display="none">
	
		<rect x="-194.86" y="-53.164" display="inline" fill="#00A096" stroke="#00A096" stroke-width="6.1803" stroke-miterlimit="10" width="838.578" height="595.28"/>
</g>
<g id="Bröd_x2C_sladd_och_knapp">
	<rect x="0" y="192.004" fill="#3E3D40" width="43.57" height="12.79"/>
	<path fill="none" stroke="#4B4B4D" stroke-width="10.1557" stroke-linejoin="round" stroke-miterlimit="10" d="M383.981,292.444
		c0,0,100.187-3.573,75.947,93.209c0,0-43.434,111.811,72.879,91.183c116.311-20.628-70.495-224.478-14.768-272.483"/>
	<g>
		
			<path fill="#EACA9F" stroke="#EACA9F" stroke-width="3.1811" stroke-linecap="round" stroke-linejoin="round" stroke-miterlimit="10" d="
			M134.891,77.62v104.357v7.127c-12.189-2.308-52.12,1.107-52.12,1.107c-4.15,0-7.515-3.364-7.515-7.514l9.285-70.469
			c0,0-7.54-3.12-7.065-14.692c2.956-17.851,23.111-19.941,52.363-19.941C131.556,77.595,133.239,77.603,134.891,77.62
			c-1.194,2.616-1.865,5.521-1.865,8.584"/>
		<path fill="#FFEED2" d="M134.891,77.62v104.357v7.127c12.189-2.308,52.121,1.107,52.121,1.107c4.15,0,7.514-3.364,7.514-7.514
			l-9.285-70.469c0,0,7.54-3.12,7.065-14.692c-2.956-17.851-23.11-19.941-52.363-19.941
			C138.227,77.595,136.543,77.603,134.891,77.62c1.194,2.616-7.166-3.088-7.166-0.025"/>
		
			<path fill="#FDDFBB" stroke="#FDDFBB" stroke-width="3.1811" stroke-linecap="round" stroke-linejoin="round" stroke-miterlimit="10" d="
			M134.891,77.62v104.357v7.127c-12.189-2.308-52.12,1.107-52.12,1.107c-4.15,0-7.515-3.364-7.515-7.514l9.285-70.469
			c0,0-7.54-3.12-7.065-14.692c2.956-17.851,23.111-19.941,52.363-19.941C131.556,77.595,133.239,77.603,134.891,77.62
			c-1.194,2.616-1.865,5.521-1.865,8.584"/>
		<path fill="none" stroke="#FBC87C" stroke-width="6" stroke-linecap="round" stroke-linejoin="round" stroke-miterlimit="10" d="
			M187.655,191.472c4.15,0,7.515-3.364,7.515-7.515l-9.284-70.479c0,0,7.82-1.812,7.065-14.694
			c-2.686-19.148-27.494-22.45-58.059-22.313c-31.289-0.137-55.373,3.165-58.06,22.313c-0.755,12.883,7.065,14.694,7.065,14.694
			l-9.284,70.479c0,4.15,3.364,7.515,7.515,7.515C82.127,191.472,119.812,188.487,187.655,191.472z"/>
	</g>
	<g>
		
			<path fill="#FDDFBB" stroke="#FDDFBB" stroke-width="3.1811" stroke-linecap="round" stroke-linejoin="round" stroke-miterlimit="10" d="
			M291.031,4.152V108.51v7.128c-12.188-2.308-52.12,1.106-52.12,1.106c-4.15,0-7.515-3.364-7.515-7.514l9.285-70.469
			c0,0-7.54-3.12-7.064-14.692c2.955-17.851,23.109-19.941,52.362-19.941C287.695,4.127,289.378,4.135,291.031,4.152
			c-1.194,2.616-1.864,5.521-1.864,8.584"/>
		<path fill="#FFEED2" d="M291.031,4.152V108.51v7.128c12.188-2.308,52.12,1.106,52.12,1.106c4.15,0,7.515-3.364,7.515-7.514
			l-9.284-70.469c0,0,7.54-3.12,7.065-14.692C345.49,6.217,325.335,4.127,296.083,4.127C294.367,4.127,292.683,4.135,291.031,4.152
			c1.194,2.616-7.166-3.088-7.166-0.025"/>
		<path fill="none" stroke="#FBC87C" stroke-width="6" stroke-linecap="round" stroke-linejoin="round" stroke-miterlimit="10" d="
			M343.794,118.004c4.15,0,7.515-3.364,7.515-7.515l-9.284-70.479c0,0,7.82-1.812,7.064-14.694
			c-2.685-19.148-27.493-22.45-58.059-22.313c-31.289-0.137-55.373,3.165-58.06,22.313c-0.755,12.883,7.064,14.694,7.064,14.694
			l-9.284,70.479c0,4.15,3.364,7.515,7.514,7.515C238.266,118.004,275.952,115.019,343.794,118.004z"/>
	</g>
</g>
<g id="Brödrost">
	<rect x="43.57" y="331.713" fill="#3E3D40" width="328.808" height="31.457"/>
	<rect x="43.57" y="358.463" fill="#3E3D40" width="43.57" height="12.79"/>
	<rect x="328.809" y="358.463" fill="#3E3D40" width="43.57" height="12.79"/>
	
		<path fill="#ECEDED" stroke="#ECEDED" stroke-width="7" stroke-linecap="round" stroke-linejoin="round" stroke-miterlimit="10" d="
		M34.474,350.496V187.689c0-23.483,19.037-42.52,42.519-42.52h261.961c23.482,0,42.52,19.037,42.52,42.52v162.807H34.474z"/>
	
		<path fill="#DDDEDF" stroke="#DDDEDF" stroke-width="7" stroke-linecap="round" stroke-linejoin="round" stroke-miterlimit="10" d="
		M207.974,350.496h-173.5V187.689c0-23.483,19.037-42.52,42.519-42.52h130.98V350.496z"/>
	<path fill="#AA0D23" d="M70.516,325.686c0,4.141-3.358,7.499-7.497,7.499c-4.139,0-7.494-3.358-7.494-7.499
		c0-4.135,3.355-7.493,7.494-7.493C67.157,318.192,70.516,321.551,70.516,325.686z"/>
</g>
<g id="Lampa_på">
	<path fill="#E7511E" d="M70.516,325.686c0,4.141-3.358,7.499-7.497,7.499c-4.139,0-7.494-3.358-7.494-7.499
		c0-4.135,3.355-7.493,7.494-7.493C67.157,318.192,70.516,321.551,70.516,325.686z"/>
	<path opacity="0.53" fill="#E7511E" d="M76.041,325.68c0,7.195-5.835,13.028-13.023,13.028c-7.192,0-13.019-5.833-13.019-13.028
		c0-7.183,5.828-13.011,13.019-13.011C70.206,312.669,76.041,318.497,76.041,325.68z"/>
</g>
</svg>
