<?xml version="1.0" encoding="utf-8"?>
<!-- Generator: Adobe Illustrator 17.0.0, SVG Export Plug-In . SVG Version: 6.00 Build 0)  -->
<!DOCTYPE svg PUBLIC "-//W3C//DTD SVG 1.1//EN" "http://www.w3.org/Graphics/SVG/1.1/DTD/svg11.dtd">
<svg version="1.1" id="Layer_1" xmlns="http://www.w3.org/2000/svg" xmlns:xlink="http://www.w3.org/1999/xlink" x="0px" y="0px"
	 width="109.06px" height="244.611px" viewBox="0 0 109.06 244.611" enable-background="new 0 0 109.06 244.611"
	 xml:space="preserve">
<path fill="#C6C6C6" stroke="#C6C6C6" stroke-width="1.9485" stroke-linecap="round" stroke-linejoin="round" stroke-miterlimit="10" d="
	M102.418,50.08c0,1.794-1.455,3.248-3.248,3.248H10.348c-1.793,0-3.247-1.454-3.247-3.248l0,0c0-1.793,1.454-3.248,3.247-3.248
	H99.17C100.963,46.833,102.418,48.287,102.418,50.08L102.418,50.08z"/>
<polygon fill="#E6332A" stroke="#E6332A" stroke-width="7" stroke-linecap="round" stroke-linejoin="round" stroke-miterlimit="10" points="
	105.56,227.909 3.5,227.909 3.5,79.141 7.5,62.238 101.56,62.238 105.56,79.141 "/>
<path fill="#B2B2B2" stroke="#B2B2B2" stroke-width="1.9485" stroke-linecap="round" stroke-linejoin="round" stroke-miterlimit="10" d="
	M57.912,53.328H10.348c-1.793,0-3.247-1.454-3.247-3.248l0,0c0-1.793,1.454-3.248,3.247-3.248h47.564V53.328z"/>
<path fill="#C6C6C6" stroke="#C6C6C6" stroke-width="1.9485" stroke-linecap="round" stroke-linejoin="round" stroke-miterlimit="10" d="
	M102.418,240.389c0,1.793-1.455,3.248-3.248,3.248H10.348c-1.793,0-3.247-1.455-3.247-3.248l0,0c0-1.794,1.454-3.248,3.247-3.248
	H99.17C100.963,237.141,102.418,238.595,102.418,240.389L102.418,240.389z"/>
<path fill="#B2B2B2" stroke="#B2B2B2" stroke-width="1.9485" stroke-linecap="round" stroke-linejoin="round" stroke-miterlimit="10" d="
	M57.912,243.637H10.348c-1.793,0-3.247-1.455-3.247-3.248l0,0c0-1.794,1.454-3.248,3.247-3.248h47.564V243.637z"/>
<polygon fill="#BE1622" stroke="#BE1622" stroke-width="7" stroke-linecap="round" stroke-linejoin="round" stroke-miterlimit="10" points="
	47.454,227.909 3.5,227.909 3.5,79.141 7.5,62.238 54.53,62.238 54.53,227.909 "/>
<path fill="#9D9D9C" stroke="#9D9D9C" stroke-width="1.9485" stroke-linecap="round" stroke-linejoin="round" stroke-miterlimit="10" d="
	M68.037,39.224l4-24.125c0-7.801-6.324-14.125-14.125-14.125l0,0c-7.801,0-14.125,6.324-14.125,14.125l4,24.125H68.037z"/>
<path fill="#FFFFFF" stroke="#FFFFFF" stroke-width="1.2736" stroke-linecap="round" stroke-linejoin="round" stroke-miterlimit="10" d="
	M65.529,24.224l1.614-8.973c0-5.099-4.134-9.232-9.231-9.232l0,0c-5.099,0-9.232,4.133-9.232,9.232l1.614,8.973H65.529z"/>
<g>
	<path fill="#FFFFFF" d="M49.449,145.761c-0.015,0.029-0.101,0.15-0.258,0.365c-0.158,0.215-0.384,0.477-0.677,0.784
		c-0.294,0.308-0.659,0.638-1.096,0.988c-0.438,0.351-0.953,0.673-1.547,0.967c-0.595,0.294-1.265,0.541-2.009,0.741
		c-0.745,0.2-1.568,0.301-2.471,0.301c-1.404,0-2.722-0.176-3.953-0.526c-1.232-0.351-2.417-0.798-3.556-1.343
		c-1.139-0.544-2.26-1.145-3.362-1.805c-1.104-0.659-2.228-1.303-3.373-1.934c-0.702,1.175-1.508,2.131-2.417,2.868
		c-0.91,0.738-1.855,1.314-2.836,1.73c-0.981,0.415-1.955,0.698-2.922,0.849c-0.967,0.15-1.858,0.226-2.675,0.226
		c-0.788,0-1.587-0.083-2.395-0.247c-0.81-0.165-1.54-0.438-2.191-0.816c-0.652-0.379-1.185-0.877-1.601-1.493
		c-0.415-0.616-0.623-1.382-0.623-2.299c0-0.859,0.197-1.636,0.591-2.331c0.394-0.694,0.938-1.285,1.633-1.772
		c0.694-0.487,1.515-0.863,2.46-1.128c0.945-0.265,1.962-0.398,3.051-0.398c0.816,0,1.629,0.072,2.438,0.215
		c0.809,0.143,1.601,0.337,2.374,0.58c0.773,0.244,1.525,0.52,2.256,0.827c0.73,0.308,1.418,0.62,2.062,0.935
		c0.086-0.258,0.161-0.516,0.226-0.773c0.064-0.258,0.121-0.541,0.172-0.849c0.05-0.308,0.086-0.651,0.108-1.031
		c0.021-0.379,0.032-0.82,0.032-1.321c0-0.473-0.011-0.924-0.032-1.354c-0.021-0.43-0.043-0.898-0.065-1.407
		c-0.021-0.508-0.043-1.081-0.064-1.719c-0.021-0.637-0.032-1.4-0.032-2.288c0-2.048,0.2-3.914,0.602-5.597
		c0.4-1.683,0.995-3.126,1.783-4.329c0.787-1.203,1.769-2.138,2.943-2.804c1.174-0.666,2.542-0.999,4.104-0.999
		c0.945,0,1.844,0.15,2.696,0.451c0.852,0.301,1.604,0.73,2.256,1.289c0.651,0.559,1.167,1.225,1.547,1.998
		c0.379,0.773,0.569,1.633,0.569,2.578c0,0.516-0.072,1.053-0.215,1.611c-0.144,0.559-0.341,1.071-0.591,1.536
		c-0.251,0.466-0.537,0.849-0.859,1.149c-0.322,0.301-0.663,0.451-1.021,0.451c-0.201,0-0.38-0.057-0.537-0.172
		c-0.158-0.114-0.236-0.293-0.236-0.537c0-0.172,0.039-0.318,0.118-0.44c0.078-0.122,0.175-0.232,0.29-0.333
		c0.415-0.372,0.755-0.83,1.021-1.375c0.265-0.544,0.397-1.174,0.397-1.891c0-0.716-0.147-1.364-0.44-1.944
		c-0.294-0.58-0.688-1.074-1.182-1.482c-0.494-0.408-1.067-0.723-1.719-0.945c-0.652-0.222-1.336-0.333-2.052-0.333
		c-1.347,0-2.514,0.294-3.502,0.881c-0.988,0.587-1.805,1.414-2.449,2.481c-0.645,1.067-1.121,2.356-1.429,3.867
		c-0.309,1.511-0.462,3.19-0.462,5.038c0,0.888,0.011,1.669,0.032,2.342c0.021,0.673,0.043,1.289,0.064,1.848
		c0.021,0.559,0.043,1.085,0.064,1.579c0.022,0.494,0.032,0.999,0.032,1.515c0,0.301-0.015,0.627-0.043,0.978
		c-0.029,0.351-0.072,0.709-0.129,1.074c-0.058,0.365-0.133,0.724-0.226,1.074c-0.094,0.351-0.197,0.67-0.312,0.956
		c1.088,0.573,2.162,1.182,3.223,1.826c1.059,0.645,2.138,1.235,3.233,1.773c1.096,0.537,2.227,0.981,3.395,1.332
		c1.167,0.351,2.402,0.526,3.706,0.526c1.146,0,2.138-0.172,2.975-0.516c0.838-0.344,1.532-0.727,2.084-1.149
		c0.551-0.422,0.963-0.809,1.235-1.16c0.271-0.351,0.408-0.533,0.408-0.548c0.157-0.258,0.387-0.387,0.688-0.387
		c0.243,0,0.44,0.086,0.591,0.258c0.15,0.172,0.226,0.358,0.226,0.559C49.578,145.489,49.535,145.632,49.449,145.761z
		 M25.73,143.505c-0.616-0.301-1.265-0.598-1.944-0.892c-0.681-0.293-1.379-0.555-2.095-0.784c-0.717-0.229-1.45-0.412-2.202-0.548
		c-0.752-0.136-1.501-0.204-2.245-0.204c-0.846,0-1.641,0.09-2.385,0.268c-0.745,0.179-1.396,0.441-1.955,0.784
		c-0.559,0.344-0.999,0.759-1.321,1.246c-0.322,0.487-0.483,1.039-0.483,1.654c0,0.573,0.143,1.071,0.43,1.493
		c0.286,0.423,0.669,0.773,1.149,1.053c0.479,0.279,1.034,0.487,1.665,0.623c0.63,0.136,1.289,0.204,1.977,0.204
		c0.83,0,1.689-0.068,2.578-0.204c0.888-0.136,1.747-0.387,2.578-0.752c0.83-0.365,1.611-0.866,2.342-1.504
		C24.549,145.306,25.185,144.493,25.73,143.505z"/>
	<path fill="#FFFFFF" d="M67.861,143.269c-0.058,0.115-0.176,0.355-0.354,0.72c-0.18,0.365-0.408,0.784-0.688,1.257
		c-0.279,0.473-0.605,0.967-0.978,1.482c-0.373,0.516-0.788,0.988-1.246,1.418c-0.459,0.43-0.953,0.784-1.482,1.063
		c-0.53,0.279-1.089,0.419-1.676,0.419c-0.831,0-1.529-0.265-2.095-0.795c-0.566-0.53-0.978-1.196-1.235-1.998
		c-0.487,0.816-1.067,1.465-1.74,1.944c-0.674,0.481-1.347,0.72-2.02,0.72c-0.53,0-1.01-0.097-1.439-0.29
		c-0.43-0.193-0.795-0.465-1.096-0.816c-0.301-0.351-0.534-0.763-0.698-1.235c-0.165-0.473-0.247-0.988-0.247-1.547
		c0-1.117,0.189-2.102,0.569-2.954c0.379-0.852,0.862-1.565,1.45-2.138c0.587-0.573,1.235-1.002,1.944-1.289
		c0.709-0.286,1.393-0.43,2.052-0.43c0.443,0,0.851,0.061,1.225,0.183c0.372,0.122,0.69,0.254,0.956,0.397
		c0.265,0.144,0.469,0.276,0.612,0.398c0.142,0.122,0.222,0.19,0.236,0.204c0.157,0.186,0.236,0.38,0.236,0.58
		c0,0.215-0.079,0.405-0.236,0.569c-0.158,0.165-0.344,0.247-0.559,0.247c-0.229,0-0.423-0.079-0.58-0.236
		c-0.029-0.028-0.094-0.082-0.193-0.161c-0.101-0.079-0.236-0.161-0.408-0.247c-0.172-0.086-0.376-0.161-0.612-0.225
		c-0.236-0.064-0.505-0.097-0.806-0.097c-0.444,0-0.917,0.101-1.418,0.301c-0.502,0.201-0.96,0.512-1.375,0.934
		c-0.416,0.423-0.763,0.953-1.042,1.59c-0.279,0.638-0.419,1.393-0.419,2.267c0,0.272,0.028,0.548,0.086,0.827
		c0.057,0.279,0.157,0.534,0.301,0.763c0.143,0.23,0.336,0.415,0.58,0.559c0.243,0.144,0.544,0.215,0.902,0.215
		c0.258,0,0.555-0.086,0.892-0.258c0.336-0.172,0.658-0.436,0.967-0.795c0.308-0.358,0.587-0.809,0.838-1.354
		c0.25-0.544,0.426-1.189,0.526-1.934c0.028-0.2,0.121-0.369,0.279-0.505c0.157-0.136,0.344-0.204,0.559-0.204
		c0.2,0,0.376,0.079,0.526,0.236c0.15,0.158,0.232,0.337,0.247,0.537c0.014,0.272,0.043,0.655,0.086,1.149
		c0.043,0.494,0.14,0.985,0.29,1.472c0.15,0.487,0.376,0.91,0.677,1.268c0.301,0.358,0.716,0.537,1.246,0.537
		c0.344,0,0.684-0.093,1.021-0.279c0.336-0.186,0.666-0.433,0.988-0.741c0.322-0.308,0.63-0.659,0.924-1.053
		c0.293-0.394,0.562-0.791,0.806-1.192c0.243-0.401,0.458-0.788,0.645-1.16c0.186-0.372,0.344-0.694,0.473-0.967
		c0.071-0.157,0.175-0.279,0.311-0.365c0.136-0.086,0.282-0.129,0.44-0.129c0.243,0,0.44,0.09,0.591,0.269
		c0.15,0.179,0.226,0.369,0.226,0.569C67.926,143.068,67.904,143.169,67.861,143.269z M55.615,134.782
		c0,0.301-0.107,0.559-0.322,0.773c-0.215,0.215-0.48,0.322-0.795,0.322c-0.301,0-0.559-0.107-0.773-0.322
		c-0.215-0.215-0.322-0.473-0.322-0.773c0-0.315,0.107-0.58,0.322-0.795c0.215-0.215,0.473-0.322,0.773-0.322
		c0.314,0,0.58,0.107,0.795,0.322C55.508,134.202,55.615,134.467,55.615,134.782z M59.611,134.782c0,0.301-0.107,0.559-0.322,0.773
		c-0.215,0.215-0.487,0.322-0.816,0.322c-0.301,0-0.559-0.107-0.773-0.322c-0.215-0.215-0.322-0.473-0.322-0.773
		c0-0.315,0.107-0.58,0.322-0.795c0.215-0.215,0.473-0.322,0.773-0.322c0.329,0,0.602,0.107,0.816,0.322
		C59.504,134.202,59.611,134.467,59.611,134.782z"/>
	<path fill="#FFFFFF" d="M68.764,141.314c-0.086,0.229-0.19,0.487-0.312,0.773c-0.122,0.287-0.262,0.587-0.419,0.902
		c-0.129,0.244-0.262,0.434-0.397,0.569c-0.137,0.136-0.312,0.204-0.526,0.204c-0.244,0-0.438-0.075-0.58-0.226
		c-0.144-0.15-0.215-0.326-0.215-0.526c0-0.071,0.007-0.132,0.021-0.183c0.014-0.05,0.05-0.132,0.107-0.247
		c0.372-0.716,0.647-1.343,0.827-1.88c0.179-0.537,0.325-1.099,0.44-1.686c-0.101-0.329-0.172-0.608-0.215-0.838
		c-0.043-0.229-0.064-0.465-0.064-0.709c0-0.473,0.1-0.855,0.301-1.149c0.2-0.294,0.479-0.44,0.838-0.44
		c0.329,0,0.591,0.143,0.784,0.43c0.193,0.287,0.29,0.638,0.29,1.053c0,0.23-0.021,0.459-0.064,0.688
		c-0.043,0.23-0.101,0.516-0.172,0.859c0.329,0.816,0.658,1.54,0.988,2.17c0.329,0.63,0.623,1.207,0.881,1.729
		c0.258,0.523,0.469,1.014,0.634,1.472c0.164,0.459,0.247,0.917,0.247,1.375c0,0.602-0.122,1.175-0.365,1.719
		c-0.244,0.544-0.645,1.003-1.203,1.375c0.071,0.015,0.143,0.021,0.215,0.021c0.071,0,0.143,0,0.215,0
		c0.816,0,1.568-0.186,2.256-0.559c0.688-0.372,1.307-0.855,1.858-1.45c0.551-0.594,1.042-1.253,1.472-1.977
		c0.43-0.723,0.802-1.443,1.117-2.159c0.143-0.329,0.344-0.494,0.602-0.494c0.243,0,0.433,0.086,0.569,0.258
		c0.136,0.172,0.204,0.358,0.204,0.559c0,0.115-0.021,0.222-0.064,0.322c-0.158,0.387-0.362,0.827-0.612,1.321
		c-0.251,0.494-0.552,1.003-0.902,1.525c-0.351,0.523-0.756,1.035-1.214,1.536c-0.459,0.502-0.971,0.949-1.536,1.343
		c-0.566,0.394-1.185,0.709-1.858,0.945c-0.674,0.236-1.411,0.355-2.213,0.355c-0.96,0-1.852-0.169-2.675-0.505
		c-0.824-0.337-1.493-0.892-2.009-1.665c-0.086-0.129-0.129-0.265-0.129-0.408c0-0.215,0.082-0.404,0.247-0.569
		c0.164-0.164,0.354-0.247,0.569-0.247c0.229,0,0.422,0.079,0.58,0.236c0.014,0.029,0.064,0.075,0.15,0.14
		c0.086,0.064,0.189,0.136,0.312,0.215c0.121,0.079,0.265,0.147,0.43,0.204c0.164,0.058,0.333,0.086,0.505,0.086
		c0.344,0,0.634-0.071,0.87-0.215c0.236-0.143,0.426-0.318,0.569-0.526c0.143-0.208,0.247-0.43,0.312-0.666
		c0.064-0.236,0.097-0.44,0.097-0.612c0-0.358-0.058-0.716-0.172-1.074c-0.115-0.358-0.262-0.716-0.44-1.074
		c-0.18-0.358-0.373-0.727-0.58-1.106C69.125,142.127,68.935,141.729,68.764,141.314z"/>
	<path fill="#FFFFFF" d="M82.965,146.62c0.243,0.544,0.645,0.977,1.203,1.3c0.559,0.322,1.188,0.483,1.891,0.483
		c0.215,0,0.565-0.032,1.053-0.097c0.486-0.064,1.049-0.279,1.687-0.645c0.637-0.365,1.313-0.941,2.03-1.729
		c0.716-0.788,1.41-1.898,2.084-3.33c0.071-0.157,0.172-0.275,0.301-0.354c0.129-0.079,0.271-0.118,0.43-0.118
		c0.243,0,0.441,0.086,0.591,0.258c0.15,0.172,0.226,0.358,0.226,0.559c0,0.086-0.029,0.201-0.086,0.344
		c-0.502,1.046-1.061,1.98-1.676,2.804c-0.616,0.824-1.282,1.525-1.998,2.105c-0.717,0.58-1.465,1.024-2.245,1.332
		c-0.781,0.308-1.579,0.462-2.396,0.462c-0.645,0-1.25-0.101-1.815-0.301c-0.566-0.2-1.053-0.469-1.461-0.806
		c-0.408-0.337-0.73-0.716-0.967-1.139c-0.236-0.422-0.354-0.855-0.354-1.3c0-0.057,0.007-0.136,0.021-0.236
		c0.014-0.1,0.054-0.211,0.118-0.333c0.064-0.122,0.157-0.236,0.279-0.344c0.121-0.107,0.29-0.197,0.505-0.269
		c0.587-0.172,1.128-0.383,1.622-0.634c0.494-0.251,0.92-0.533,1.278-0.849c0.357-0.315,0.637-0.662,0.838-1.042
		c0.2-0.379,0.301-0.791,0.301-1.235c0-0.387-0.129-0.702-0.387-0.945c-0.258-0.243-0.573-0.365-0.945-0.365
		c-0.387,0-0.767,0.133-1.139,0.398c-0.373,0.265-0.734,0.616-1.085,1.053c-0.352,0.437-0.685,0.939-0.999,1.504
		c-0.315,0.566-0.605,1.157-0.87,1.772c-0.266,0.616-0.498,1.229-0.698,1.837c-0.201,0.609-0.365,1.171-0.494,1.686
		c-0.043,0.158-0.09,0.33-0.14,0.516c-0.051,0.186-0.126,0.361-0.226,0.526c-0.101,0.164-0.223,0.301-0.365,0.408
		c-0.144,0.107-0.33,0.161-0.559,0.161c-0.215,0-0.423-0.09-0.623-0.269c-0.201-0.18-0.301-0.483-0.301-0.913
		c0-0.086,0.003-0.415,0.011-0.988c0.007-0.573,0.018-1.321,0.032-2.245c0.014-0.924,0.032-1.983,0.054-3.18
		c0.022-1.196,0.039-2.463,0.054-3.803c0.014-1.339,0.035-2.718,0.064-4.136c0.028-1.418,0.05-2.8,0.064-4.146
		c0.014-1.346,0.032-2.625,0.054-3.835c0.021-1.21,0.039-2.284,0.054-3.223c0.014-0.938,0.025-1.704,0.032-2.299
		c0.007-0.594,0.011-0.949,0.011-1.063c0-0.229,0.086-0.419,0.258-0.569s0.357-0.226,0.559-0.226c0.229,0,0.422,0.075,0.58,0.226
		c0.157,0.15,0.236,0.348,0.236,0.591c0,0.029-0.004,0.312-0.011,0.849c-0.008,0.537-0.019,1.257-0.032,2.159
		c-0.015,0.902-0.032,1.955-0.054,3.158c-0.021,1.203-0.043,2.481-0.064,3.835s-0.043,2.747-0.064,4.179
		c-0.021,1.433-0.043,2.829-0.064,4.189c-0.021,1.361-0.04,2.657-0.054,3.889c-0.015,1.232-0.029,2.32-0.043,3.266
		c0.229-0.73,0.523-1.5,0.881-2.31c0.357-0.809,0.78-1.558,1.267-2.245c0.486-0.688,1.034-1.253,1.644-1.697
		c0.608-0.444,1.285-0.666,2.03-0.666c0.415,0,0.802,0.075,1.16,0.226c0.357,0.15,0.669,0.358,0.935,0.623
		c0.265,0.265,0.473,0.577,0.623,0.935c0.15,0.358,0.226,0.745,0.226,1.16c0,0.645-0.144,1.235-0.43,1.772
		c-0.287,0.537-0.666,1.017-1.139,1.44c-0.473,0.423-1.014,0.791-1.622,1.106C84.235,146.162,83.609,146.42,82.965,146.62z"/>
</g>
</svg>
