<?xml version="1.0" encoding="utf-8"?>
<!-- Generator: Adobe Illustrator 15.0.2, SVG Export Plug-In . SVG Version: 6.00 Build 0)  -->
<!DOCTYPE svg PUBLIC "-//W3C//DTD SVG 1.1//EN" "http://www.w3.org/Graphics/SVG/1.1/DTD/svg11.dtd">
<svg version="1.1" id="Lager_1" xmlns="http://www.w3.org/2000/svg" xmlns:xlink="http://www.w3.org/1999/xlink" x="0px" y="0px"
	 width="121.262px" height="87.277px" viewBox="-7.395 0 121.262 87.277" enable-background="new -7.395 0 121.262 87.277"
	 xml:space="preserve">
<g>
	
		<path fill="#44A260" stroke="#44A260" stroke-width="0.0969" stroke-linecap="round" stroke-linejoin="round" stroke-miterlimit="10" d="
		M0.048,41.356c0,13.249,10.737,23.988,23.987,23.988c2.508,0,4.929-0.387,7.203-1.102c0.803,12.523,11.207,22.434,23.935,22.434
		c13.248,0,23.987-10.741,23.987-23.989c0-2.683-0.446-5.256-1.26-7.664c13.19-0.073,23.856-10.782,23.856-23.985
		c0-13.248-10.742-23.988-23.99-23.988c-4.439,0-8.594,1.21-12.162,3.313C61.272,4.132,54.061,0.049,45.899,0.049
		c-10.945,0-20.172,7.333-23.053,17.354C10.15,18.018,0.048,28.508,0.048,41.356z"/>
	
		<path fill="#54B171" stroke="#54B171" stroke-width="0.0969" stroke-linecap="round" stroke-linejoin="round" stroke-miterlimit="10" d="
		M55.173,86.677c13.248,0,23.987-10.741,23.987-23.989c0-2.683-0.446-5.256-1.26-7.664c13.19-0.073,23.856-10.784,23.856-23.985
		c0-13.248-10.742-23.988-23.99-23.988c-4.439,0-8.594,1.21-12.162,3.312c-3.424-4.924-8.639-8.506-14.705-9.794
		c0,0,0,85.218,0,85.729C52.453,86.747,55.173,86.677,55.173,86.677z"/>
	
		<circle fill="#54B171" stroke="#54B171" stroke-width="0.0969" stroke-linecap="round" stroke-linejoin="round" stroke-miterlimit="10" cx="85.986" cy="59.197" r="27.833"/>
	
		<circle fill="#44A260" stroke="#44A260" stroke-width="0.0969" stroke-linecap="round" stroke-linejoin="round" stroke-miterlimit="10" cx="14.455" cy="65.427" r="21.802"/>
</g>
</svg>
