<?xml version="1.0" encoding="utf-8"?>
<!-- Generator: Adobe Illustrator 15.0.2, SVG Export Plug-In . SVG Version: 6.00 Build 0)  -->
<!DOCTYPE svg PUBLIC "-//W3C//DTD SVG 1.1//EN" "http://www.w3.org/Graphics/SVG/1.1/DTD/svg11.dtd">
<svg version="1.1" id="Lager_1" xmlns="http://www.w3.org/2000/svg" xmlns:xlink="http://www.w3.org/1999/xlink" x="0px" y="0px"
	 width="110.66px" height="105.012px" viewBox="0 0 110.66 105.012" enable-background="new 0 0 110.66 105.012"
	 xml:space="preserve">
<g>
	<g>
		<path fill="#FFDA3F" d="M32.514,15.573c17.958,0,18.802,20.021,18.802,44.719s-0.844,44.72-18.802,44.72
			C14.557,105.012,0,84.99,0,60.292S14.557,15.573,32.514,15.573z"/>
		<g>
			<defs>
				<path id="SVGID_1_" d="M32.514,15.573c17.958,0,18.802,20.022,18.802,44.72c0,24.697-0.844,44.719-18.802,44.719
					C14.557,105.012,0,84.99,0,60.292S14.557,15.573,32.514,15.573z"/>
			</defs>
			<clipPath id="SVGID_2_">
				<use xlink:href="#SVGID_1_"  overflow="visible"/>
			</clipPath>
			
				<line clip-path="url(#SVGID_2_)" fill="none" stroke="#FFCE0E" stroke-width="5.3913" stroke-miterlimit="10" x1="-2.263" y1="26.306" x2="63.719" y2="26.306"/>
			
				<line clip-path="url(#SVGID_2_)" fill="none" stroke="#FFCE0E" stroke-width="5.3913" stroke-miterlimit="10" x1="-2.263" y1="37.634" x2="63.719" y2="37.634"/>
			
				<line clip-path="url(#SVGID_2_)" fill="none" stroke="#FFCE0E" stroke-width="5.3913" stroke-miterlimit="10" x1="-2.263" y1="48.963" x2="63.719" y2="48.963"/>
			
				<line clip-path="url(#SVGID_2_)" fill="none" stroke="#FFCE0E" stroke-width="5.3913" stroke-miterlimit="10" x1="-2.263" y1="60.293" x2="63.719" y2="60.293"/>
			
				<line clip-path="url(#SVGID_2_)" fill="none" stroke="#FFCE0E" stroke-width="5.3913" stroke-miterlimit="10" x1="-2.263" y1="71.622" x2="63.719" y2="71.622"/>
			
				<line clip-path="url(#SVGID_2_)" fill="none" stroke="#FFCE0E" stroke-width="5.3913" stroke-miterlimit="10" x1="-2.263" y1="82.951" x2="63.719" y2="82.951"/>
			
				<line clip-path="url(#SVGID_2_)" fill="none" stroke="#FFCE0E" stroke-width="5.3913" stroke-miterlimit="10" x1="-2.263" y1="94.28" x2="63.719" y2="94.28"/>
		</g>
	</g>
	<g>
		<path fill="#FFDA3F" d="M101.837,5.006C91.26-5.572,82.347,2.348,71.966,12.729c-10.383,10.383-18.302,19.295-7.725,29.872
			c11.452,11.453,27.907,10.923,38.29,0.54C112.913,32.76,114.056,17.224,101.837,5.006z"/>
		<g>
			<defs>
				<path id="SVGID_3_" d="M102.154,5.323C99.483,2.602,91.988-4.843,78.838,6.551C60.179,22.719,53.542,32.875,64.712,42.765
					c11.343,10.044,24.52,12.11,37.819,0.376C112.914,33.982,112.604,15.967,102.154,5.323z"/>
			</defs>
			<clipPath id="SVGID_4_">
				<use xlink:href="#SVGID_3_"  overflow="visible"/>
			</clipPath>
			
				<line clip-path="url(#SVGID_4_)" fill="none" stroke="#FFCE0E" stroke-width="5.3913" stroke-miterlimit="10" x1="130.273" y1="18.058" x2="91.517" y2="-20.698"/>
			
				<line clip-path="url(#SVGID_4_)" fill="none" stroke="#FFCE0E" stroke-width="5.3913" stroke-miterlimit="10" x1="123.619" y1="24.711" x2="84.863" y2="-14.044"/>
			
				<line clip-path="url(#SVGID_4_)" fill="none" stroke="#FFCE0E" stroke-width="5.3913" stroke-miterlimit="10" x1="116.964" y1="31.366" x2="78.208" y2="-7.39"/>
			
				<line clip-path="url(#SVGID_4_)" fill="none" stroke="#FFCE0E" stroke-width="5.3913" stroke-miterlimit="10" x1="110.309" y1="38.021" x2="71.553" y2="-0.734"/>
			
				<line clip-path="url(#SVGID_4_)" fill="none" stroke="#FFCE0E" stroke-width="5.3913" stroke-miterlimit="10" x1="103.655" y1="44.675" x2="64.899" y2="5.92"/>
			
				<line clip-path="url(#SVGID_4_)" fill="none" stroke="#FFCE0E" stroke-width="5.3913" stroke-miterlimit="10" x1="97" y1="51.33" x2="58.245" y2="12.575"/>
			
				<line clip-path="url(#SVGID_4_)" fill="none" stroke="#FFCE0E" stroke-width="5.3913" stroke-miterlimit="10" x1="90.346" y1="57.984" x2="51.59" y2="19.229"/>
		</g>
	</g>
	<g>
		<path fill="#FFDA3F" d="M96.431,94.177c8.521-8.521,2.141-15.7-6.221-24.062c-8.364-8.363-15.543-14.742-24.063-6.222
			c-9.226,9.225-8.799,22.479-0.436,30.844C74.074,103.098,86.589,104.02,96.431,94.177z"/>
		<g>
			<defs>
				<path id="SVGID_5_" d="M96.176,94.432c2.191-2.151,8.188-8.189-0.99-18.781C82.163,60.62,73.981,55.274,66.015,64.272
					c-8.091,9.137-9.755,19.751-0.304,30.465C73.09,103.099,87.601,102.85,96.176,94.432z"/>
			</defs>
			<clipPath id="SVGID_6_">
				<use xlink:href="#SVGID_5_"  overflow="visible"/>
			</clipPath>
			
				<line clip-path="url(#SVGID_6_)" fill="none" stroke="#FFCE0E" stroke-width="5.3913" stroke-miterlimit="10" x1="85.917" y1="117.083" x2="117.137" y2="85.864"/>
			
				<line clip-path="url(#SVGID_6_)" fill="none" stroke="#FFCE0E" stroke-width="5.3913" stroke-miterlimit="10" x1="80.558" y1="111.723" x2="111.777" y2="80.503"/>
			
				<line clip-path="url(#SVGID_6_)" fill="none" stroke="#FFCE0E" stroke-width="5.3913" stroke-miterlimit="10" x1="75.198" y1="106.363" x2="106.417" y2="75.143"/>
			
				<line clip-path="url(#SVGID_6_)" fill="none" stroke="#FFCE0E" stroke-width="5.3913" stroke-miterlimit="10" x1="69.835" y1="101.001" x2="101.055" y2="69.782"/>
			
				<line clip-path="url(#SVGID_6_)" fill="none" stroke="#FFCE0E" stroke-width="5.3913" stroke-miterlimit="10" x1="64.476" y1="95.641" x2="95.695" y2="64.422"/>
			
				<line clip-path="url(#SVGID_6_)" fill="none" stroke="#FFCE0E" stroke-width="5.3913" stroke-miterlimit="10" x1="59.115" y1="90.28" x2="90.334" y2="59.062"/>
			
				<line clip-path="url(#SVGID_6_)" fill="none" stroke="#FFCE0E" stroke-width="5.3913" stroke-miterlimit="10" x1="53.755" y1="84.92" x2="84.974" y2="53.702"/>
		</g>
	</g>
</g>
</svg>
