<?xml version="1.0" encoding="utf-8"?>
<!-- Generator: Adobe Illustrator 15.0.2, SVG Export Plug-In . SVG Version: 6.00 Build 0)  -->
<!DOCTYPE svg PUBLIC "-//W3C//DTD SVG 1.1//EN" "http://www.w3.org/Graphics/SVG/1.1/DTD/svg11.dtd">
<svg version="1.1" xmlns="http://www.w3.org/2000/svg" xmlns:xlink="http://www.w3.org/1999/xlink" x="0px" y="0px"
	 width="453.334px" height="523.572px" viewBox="0 0 453.334 523.572" enable-background="new 0 0 453.334 523.572"
	 xml:space="preserve">
<g id="Lager_9">
</g>
<g id="Cyklar" display="none">
	<g id="Hjul" display="inline">
		<circle fill="none" stroke="#000000" stroke-width="10" stroke-miterlimit="10" cx="751.352" cy="191.089" r="71.141"/>
		<circle fill="none" stroke="#000000" stroke-width="10" stroke-miterlimit="10" cx="986.702" cy="191.089" r="71.142"/>
		<circle fill="none" stroke="#000000" stroke-width="4" stroke-miterlimit="10" cx="751.352" cy="191.089" r="14.682"/>
		<circle fill="none" stroke="#000000" stroke-width="8.8983" stroke-miterlimit="10" cx="737.805" cy="601.952" r="71.141"/>
		<circle fill="none" stroke="#000000" stroke-width="8.8983" stroke-miterlimit="10" cx="973.155" cy="601.952" r="71.142"/>
		<circle fill="none" stroke="#000000" stroke-width="2.9661" stroke-miterlimit="10" cx="737.805" cy="601.952" r="14.682"/>
	</g>
	<g id="Ram_och_sadel" display="inline">
		<circle fill="none" stroke="#4195CD" stroke-width="6" stroke-miterlimit="10" cx="751.353" cy="191.089" r="6.601"/>
		<circle fill="none" stroke="#4195CD" stroke-width="6" stroke-miterlimit="10" cx="986.702" cy="191.089" r="6.601"/>
		
			<line fill="none" stroke="#4195CD" stroke-width="10" stroke-miterlimit="10" x1="799.746" y1="70.839" x2="839.956" y2="179.195"/>
		
			<line fill="none" stroke="#D9DADB" stroke-width="5.9322" stroke-miterlimit="10" x1="792.277" y1="50.113" x2="798.584" y2="67.7"/>
		
			<line fill="none" stroke="#4195CD" stroke-width="10" stroke-miterlimit="10" x1="933.643" y1="70.839" x2="949.193" y2="116.228"/>
		
			<line fill="none" stroke="#4195CD" stroke-width="10" stroke-miterlimit="10" x1="807.392" y1="84.188" x2="939.611" y2="84.188"/>
		
			<line fill="none" stroke="#4195CD" stroke-width="10" stroke-miterlimit="10" x1="945.599" y1="111.871" x2="864.506" y2="180.962"/>
		<polyline fill="none" stroke="#4195CD" stroke-width="7" stroke-miterlimit="10" points="950.445,118.534 969.591,174.899 
			980.986,187.146 		"/>
		
			<line fill="none" stroke="#4195CD" stroke-width="7" stroke-miterlimit="10" x1="757.953" y1="192.696" x2="826.105" y2="199.155"/>
		<path fill="none" stroke="#D9DADB" stroke-width="5.9322" stroke-miterlimit="10" d="M938.751,29.133h19.417
			c7.643,0,13.839,6.197,13.839,13.84l0,0c0,7.643-6.196,13.839-13.839,13.839h-19.417h-9.866l3.699,10.888"/>
		<path d="M935.815,32.167h-20.255c-1.638,0-2.966-1.328-2.966-2.966s1.328-2.966,2.966-2.966h20.255V32.167z"/>
		<path d="M825.109,53.607h-48.138c-1.638,0-3.779-2.242-3.779-5.191c0-3.551,2.142-5.191,3.779-5.191l48.138,4.449
			c1.639,0,2.967,1.328,2.967,2.966S826.748,53.607,825.109,53.607z"/>
		
			<polyline fill="none" stroke="#000000" stroke-width="3" stroke-linecap="round" stroke-linejoin="round" stroke-miterlimit="10" points="
			737.805,587.272 687.703,504.396 789.116,504.396 		"/>
		<circle fill="none" stroke="#E0001A" stroke-width="4.4492" stroke-miterlimit="10" cx="737.806" cy="601.952" r="6.601"/>
		<circle fill="none" stroke="#E0001A" stroke-width="4.4492" stroke-miterlimit="10" cx="973.155" cy="601.952" r="6.601"/>
		
			<line fill="none" stroke="#E0001A" stroke-width="8.8983" stroke-miterlimit="10" x1="786.199" y1="481.703" x2="826.409" y2="590.059"/>
		
			<line fill="none" stroke="#D9DADB" stroke-width="5.9322" stroke-miterlimit="10" x1="778.73" y1="460.977" x2="785.037" y2="478.563"/>
		
			<line fill="none" stroke="#E0001A" stroke-width="8.8983" stroke-miterlimit="10" x1="920.096" y1="481.703" x2="935.646" y2="527.091"/>
		
			<line fill="none" stroke="#E0001A" stroke-width="8.8983" stroke-miterlimit="10" x1="793.845" y1="495.051" x2="926.064" y2="495.051"/>
		
			<line fill="none" stroke="#E0001A" stroke-width="8.8983" stroke-miterlimit="10" x1="932.052" y1="522.734" x2="850.959" y2="591.825"/>
		<polyline fill="none" stroke="#E0001A" stroke-width="5.9322" stroke-miterlimit="10" points="936.898,529.396 956.044,585.763 
			967.439,598.009 		"/>
		
			<line fill="none" stroke="#E0001A" stroke-width="5.9322" stroke-miterlimit="10" x1="744.406" y1="603.56" x2="812.559" y2="610.019"/>
		<path fill="none" stroke="#D9DADB" stroke-width="5.9322" stroke-miterlimit="10" d="M925.204,439.996h19.417
			c7.643,0,13.839,6.197,13.839,13.84l0,0c0,7.643-6.196,13.84-13.839,13.84h-19.417h-9.866l3.699,10.888"/>
		<path d="M922.269,443.029h-20.255c-1.638,0-2.966-1.328-2.966-2.966s1.328-2.966,2.966-2.966h20.255V443.029z"/>
		<path d="M811.562,464.471h-48.138c-1.638,0-3.779-2.242-3.779-5.191c0-3.551,2.142-5.19,3.779-5.19l48.138,4.449
			c1.639,0,2.967,1.328,2.967,2.966C814.529,463.143,813.201,464.471,811.562,464.471z"/>
	</g>
	<g id="Kedja" display="inline">
		
			<line fill="none" stroke="#000000" stroke-width="4" stroke-miterlimit="10" x1="853.331" y1="176.409" x2="751.352" y2="176.409"/>
		
			<line fill="none" stroke="#000000" stroke-width="4" stroke-miterlimit="10" x1="751.352" y1="205.771" x2="849.916" y2="221.028"/>
		<circle fill="none" stroke="#000000" stroke-width="4" stroke-miterlimit="10" cx="850.893" cy="198.692" r="22.357"/>
		
			<line fill="none" stroke="#D9DADB" stroke-width="4.5" stroke-linecap="round" stroke-miterlimit="10" x1="850.893" y1="198.534" x2="895.475" y2="198.534"/>
		
			<line fill="none" stroke="#000000" stroke-width="6" stroke-linecap="round" stroke-miterlimit="10" x1="890.047" y1="206.709" x2="900.903" y2="190.359"/>
		
			<line fill="none" stroke="#000000" stroke-width="3" stroke-miterlimit="10" x1="839.784" y1="587.272" x2="737.805" y2="587.272"/>
		
			<line fill="none" stroke="#000000" stroke-width="2.9661" stroke-miterlimit="10" x1="737.805" y1="616.635" x2="836.369" y2="631.892"/>
		<circle fill="none" stroke="#000000" stroke-width="2.9661" stroke-miterlimit="10" cx="837.346" cy="609.556" r="22.357"/>
		
			<line fill="none" stroke="#D9DADB" stroke-width="4.5" stroke-linecap="round" stroke-miterlimit="10" x1="837.346" y1="609.397" x2="881.928" y2="609.397"/>
		
			<line fill="none" stroke="#000000" stroke-width="4.5" stroke-linecap="round" stroke-miterlimit="10" x1="876.5" y1="617.572" x2="887.356" y2="601.223"/>
	</g>
	<g id="Cykel" display="inline">
		
			<line fill="none" stroke="#4195CD" stroke-width="7" stroke-miterlimit="10" x1="804.209" y1="87.154" x2="755.488" y2="184.733"/>
		<path fill="none" stroke="#E7503E" stroke-width="5.9322" stroke-miterlimit="10" d="M753.153,176.409"/>
		
			<line fill="none" stroke="#E0001A" stroke-width="5.9322" stroke-miterlimit="10" x1="790.662" y1="498.018" x2="741.941" y2="595.597"/>
		<path fill="none" stroke="#E7503E" stroke-width="5.9322" stroke-miterlimit="10" d="M739.606,587.272"/>
	</g>
	<g id="Barnstol" display="inline">
	</g>
	<g id="Jacka" display="inline">
	</g>
	<g id="Jeans" display="inline">
	</g>
	<g id="Lager_8" display="inline">
		<path fill="#38B197" d="M758.457,552.378l-16.084-53.314h-50.971c-6.55,0-12.154-4.7-13.295-11.149l-20-90.5l27.424,0.029
			l17.193,74.62h49.678c5.953,0,11.205,3.9,12.924,9.601l21.334,70.717L758.457,552.378z"/>
		<g display="none">
			<g display="inline">
				
					<path fill="none" stroke="#3E3D40" stroke-width="2.2205" stroke-linecap="round" stroke-linejoin="round" stroke-miterlimit="10" d="
					M71.835,42.896c-9.831-4.785-18.664,0.017-18.664,0.017c-1.317,0.629-2.294,2.151-1.95,4.588l0.748,5.868
					c0,0,0.349,5.979,11.933,5.454c0,0,6.3,0.114,8.805-5.229C72.707,53.595,76.243,45.042,71.835,42.896z"/>
				
					<path fill="#3E3D40" stroke="#3E3D40" stroke-width="0.8045" stroke-linecap="round" stroke-linejoin="round" stroke-miterlimit="10" d="
					M59.268,40.382l-10.637,1.635v3.721l1.755,0.674C50.386,46.411,52.03,41.616,59.268,40.382z"/>
				<path fill="#3E3D40" d="M77.798,47.126c-2.355,0.071-3.068,3.68-3.068,3.68l-2.179-8.789c0,0,1.726,1.08,5.248,1.018"/>
			</g>
			<g display="inline">
				
					<path fill="none" stroke="#3E3D40" stroke-width="2.2205" stroke-linecap="round" stroke-linejoin="round" stroke-miterlimit="10" d="
					M83.484,42.896c9.831-4.785,18.664,0.017,18.664,0.017c1.317,0.629,2.293,2.151,1.949,4.588l-0.747,5.868
					c0,0-0.35,5.979-11.934,5.454c0,0-6.301,0.114-8.804-5.229C82.611,53.595,79.074,45.042,83.484,42.896z"/>
				
					<path fill="#3E3D40" stroke="#3E3D40" stroke-width="0.8045" stroke-linecap="round" stroke-linejoin="round" stroke-miterlimit="10" d="
					M96.05,40.382l10.637,1.635v3.721l-1.756,0.674C104.932,46.411,103.288,41.616,96.05,40.382z"/>
				<path fill="#3E3D40" d="M77.521,47.126c2.355,0.071,3.069,3.68,3.069,3.68l2.179-8.789c0,0-1.727,1.08-5.248,1.018"/>
			</g>
		</g>
		<path display="none" fill="#FFFFFF" d="M68.875,48.301c0,2.766-2.242,5.008-5.008,5.008c-2.256,0-4.163-1.491-4.79-3.541
			c-0.142-0.464-0.218-0.957-0.218-1.467H68.875z"/>
		<circle display="none" fill="#0B72B5" cx="63.866" cy="49.639" r="2.376"/>
		<g display="none">
			<g display="inline">
				
					<path fill="none" stroke="#3E3D40" stroke-width="2.2205" stroke-linecap="round" stroke-linejoin="round" stroke-miterlimit="10" d="
					M-126.186,42.896c-9.831-4.785-18.664,0.017-18.664,0.017c-1.317,0.629-2.294,2.151-1.95,4.588l0.748,5.868
					c0,0,0.349,5.979,11.933,5.454c0,0,6.3,0.114,8.805-5.229C-125.313,53.595-121.777,45.042-126.186,42.896z"/>
				
					<path fill="#3E3D40" stroke="#3E3D40" stroke-width="0.8045" stroke-linecap="round" stroke-linejoin="round" stroke-miterlimit="10" d="
					M-138.752,40.382l-10.637,1.635v3.721l1.755,0.674C-147.635,46.411-145.99,41.616-138.752,40.382z"/>
				<path fill="#3E3D40" d="M-120.223,47.126c-2.355,0.071-3.068,3.68-3.068,3.68l-2.179-8.789c0,0,1.726,1.08,5.248,1.018"/>
			</g>
			<g display="inline">
				
					<path fill="none" stroke="#3E3D40" stroke-width="2.2205" stroke-linecap="round" stroke-linejoin="round" stroke-miterlimit="10" d="
					M-114.537,42.896c9.831-4.785,18.664,0.017,18.664,0.017c1.317,0.629,2.293,2.151,1.949,4.588l-0.747,5.868
					c0,0-0.35,5.979-11.934,5.454c0,0-6.301,0.114-8.804-5.229C-115.409,53.595-118.946,45.042-114.537,42.896z"/>
				
					<path fill="#3E3D40" stroke="#3E3D40" stroke-width="0.8045" stroke-linecap="round" stroke-linejoin="round" stroke-miterlimit="10" d="
					M-101.97,40.382l10.637,1.635v3.721l-1.756,0.674C-93.089,46.411-94.733,41.616-101.97,40.382z"/>
				<path fill="#3E3D40" d="M-120.5,47.126c2.355,0.071,3.069,3.68,3.069,3.68l2.179-8.789c0,0-1.727,1.08-5.248,1.018"/>
			</g>
		</g>
	</g>
</g>
<g id="Cykel_1_">
</g>
<g id="Cyklist">
	<path fill="#045E97" d="M167.732,231.86l74.226,22.438c4.199,1.167,7.449,6.75,3.664,11.174l-53.669,98.819l-30.429-7.039
		l41.757-76.739l-67.662-18.106"/>
	<g>
		<path fill="#E7503E" stroke="#E7503E" stroke-width="1.0968" stroke-miterlimit="10" d="M151.363,388.408
			c-0.5-1.5-2.625-11.48,0.875-18.605c0,0,10.231,8.5,23.731,0c3.333,5-5.5-2.432-2-5.883s9.166-6.451,9.166-6.451
			s18.723,16.174,33.834,19.625c6.74,1.541,15.264,5.873,14.549,11.041C230.801,393.303,151.363,388.408,151.363,388.408"/>
		<path fill="#FFFFFF" stroke="#FFFFFF" stroke-width="1.0968" stroke-miterlimit="10" d="M151.052,389.607L151.052,389.607
			c0,1.844,1.496,3.34,3.34,3.34h73.784c1.846,0,3.342-1.496,3.342-3.34l0,0v-2.26h-80.466V389.607z"/>
		
			<path fill="#FFFFFF" stroke="#FFFFFF" stroke-width="1.0968" stroke-linecap="round" stroke-linejoin="round" stroke-miterlimit="10" d="
			M216.969,377.094c5.037,1.15,11.068,3.861,13.498,7.312h-13.498V377.094"/>
		<path d="M150.724,390.922h59.411c0.277,0,0.5-0.225,0.5-0.5c0-0.277-0.223-0.5-0.5-0.5h-59.63
			C150.505,389.922,150.614,390.766,150.724,390.922z"/>
		<path fill="#FFFFFF" d="M194.613,365.531l-6.732,3.654c-0.084,0.047-0.176,0.07-0.266,0.07c-0.193,0-0.381-0.104-0.48-0.283
			c-0.146-0.266-0.051-0.6,0.213-0.746l6.23-3.457L194.613,365.531z"/>
		<path fill="#FFFFFF" d="M198.775,368.223l-6.586,3.654c-0.084,0.047-0.176,0.068-0.266,0.068c-0.191,0-0.379-0.102-0.479-0.283
			c-0.148-0.264-0.053-0.598,0.213-0.744l6.076-3.371L198.775,368.223z"/>
		<path fill="#FFFFFF" d="M203.281,370.865l-6.684,3.701c-0.084,0.047-0.176,0.07-0.266,0.07c-0.191,0-0.379-0.104-0.479-0.283
			c-0.148-0.266-0.053-0.6,0.213-0.746l6.092-3.379L203.281,370.865z"/>
		<path fill="#FFFFFF" d="M208.135,373.344l-6.695,3.715c-0.08,0.045-0.172,0.068-0.262,0.068c-0.193,0-0.379-0.104-0.48-0.283
			c-0.146-0.266-0.051-0.6,0.215-0.746l6.014-3.336L208.135,373.344z"/>
	</g>
	<circle fill="none" stroke="#000000" stroke-width="11.6949" stroke-miterlimit="10" cx="89.047" cy="434.525" r="83.199"/>
	<circle fill="none" stroke="#000000" stroke-width="11.6949" stroke-miterlimit="10" cx="364.287" cy="434.525" r="83.2"/>
	<circle fill="none" stroke="#000000" stroke-width="4.678" stroke-miterlimit="10" cx="89.046" cy="434.525" r="17.17"/>
	<circle fill="none" stroke="#EFC40D" stroke-width="7.017" stroke-miterlimit="10" cx="89.047" cy="434.525" r="7.719"/>
	<circle fill="none" stroke="#EFC40D" stroke-width="7.017" stroke-miterlimit="10" cx="364.287" cy="434.525" r="7.719"/>
	
		<line fill="none" stroke="#F6F6F6" stroke-width="11.6949" stroke-miterlimit="10" x1="145.643" y1="293.893" x2="192.668" y2="420.613"/>
	
		<line fill="none" stroke="#000000" stroke-width="6.9377" stroke-miterlimit="10" x1="136.909" y1="269.654" x2="144.284" y2="290.221"/>
	
		<line fill="none" stroke="#EFC40D" stroke-width="11.6949" stroke-miterlimit="10" x1="302.234" y1="293.893" x2="320.421" y2="346.973"/>
	
		<line fill="none" stroke="#EFC40D" stroke-width="11.6949" stroke-miterlimit="10" x1="154.584" y1="309.504" x2="309.215" y2="309.504"/>
	
		<line fill="none" stroke="#EFC40D" stroke-width="11.6949" stroke-miterlimit="10" x1="316.217" y1="341.879" x2="221.379" y2="422.682"/>
	<polyline fill="none" stroke="#EFC40D" stroke-width="8.1865" stroke-miterlimit="10" points="321.885,349.672 344.275,415.592 
		357.603,429.912 	"/>
	
		<line fill="none" stroke="#EFC40D" stroke-width="8.1865" stroke-miterlimit="10" x1="96.767" y1="436.404" x2="176.47" y2="443.959"/>
	<path fill="none" stroke="#000000" stroke-width="6.9377" stroke-miterlimit="10" d="M308.208,245.118h22.708
		c8.938,0,16.185,7.246,16.185,16.186l0,0c0,8.938-7.246,16.183-16.185,16.183h-22.708H296.67l4.326,12.734"/>
	<path d="M304.775,248.666h-23.688c-1.915,0-3.468-1.553-3.468-3.47s1.553-3.47,3.468-3.47h23.688V248.666z"/>
	<path d="M175.305,273.741h-56.296c-1.916,0-4.42-2.622-4.42-6.071c0-4.152,2.504-6.071,4.42-6.071l56.296,5.204
		c1.917,0,3.47,1.553,3.47,3.469C178.775,272.188,177.222,273.741,175.305,273.741z"/>
	
		<line fill="none" stroke="#000000" stroke-width="4.678" stroke-miterlimit="10" x1="208.311" y1="417.357" x2="89.046" y2="417.357"/>
	
		<line fill="none" stroke="#000000" stroke-width="4.678" stroke-miterlimit="10" x1="89.046" y1="451.695" x2="204.316" y2="469.539"/>
	<circle fill="none" stroke="#000000" stroke-width="4.678" stroke-miterlimit="10" cx="205.458" cy="443.416" r="26.147"/>
	<g>
		
			<line fill="none" stroke="#000000" stroke-width="5.2627" stroke-linecap="round" stroke-miterlimit="10" x1="205.459" y1="442.84" x2="205.459" y2="494.977"/>
		
			<line fill="none" stroke="#000000" stroke-width="7.017" stroke-linecap="round" stroke-miterlimit="10" x1="193.982" y1="496.289" x2="216.935" y2="496.242"/>
	</g>
	
		<line fill="none" stroke="#EFC40D" stroke-width="8.1865" stroke-miterlimit="10" x1="150.862" y1="312.971" x2="93.884" y2="427.092"/>
	<path fill="none" stroke="#E7503E" stroke-width="6.9377" stroke-miterlimit="10" d="M91.153,417.357"/>
	<g>
		
			<line fill="none" stroke="#000000" stroke-width="5.2627" stroke-linecap="round" stroke-miterlimit="10" x1="205.458" y1="450.289" x2="205.458" y2="398.152"/>
		
			<line fill="none" stroke="#000000" stroke-width="7.017" stroke-linecap="round" stroke-miterlimit="10" x1="216.935" y1="396.84" x2="193.982" y2="396.887"/>
	</g>
	<path fill="#EFAF84" d="M189.237,107.306l4.128-19.234l-24.4-5.236l-4.128,19.234l-5.86,0.607
		c-21.313,23.61,15.354,28.542,12.046,43.953"/>
	<polyline fill="#ED9B64" points="164.837,102.07 168.965,82.836 181.176,85.457 177.048,104.69 177.046,104.698 169.284,140.868 	
		"/>
	<path fill="#EDBB98" d="M207.388,72.295c-2.588,12.056-14.459,19.731-26.514,17.144l-2.909-0.625
		c-12.057-2.587-19.732-14.458-17.145-26.513l5.27-24.556c2.587-12.056,14.456-19.73,26.514-17.143l2.909,0.625
		c12.055,2.587,19.731,14.457,17.145,26.513L207.388,72.295z"/>
	<path fill="#EFAF84" d="M179.549,89.2l-1.621-0.348c-12.057-2.588-19.732-14.458-17.145-26.514l5.27-24.556
		c2.587-12.056,14.457-19.73,26.515-17.143l1.621,0.348L179.549,89.2z"/>
	
		<rect x="181.577" y="59.605" transform="matrix(0.9777 0.2098 -0.2098 0.9777 17.523 -37.3951)" opacity="0.4" fill="#F7BE97" width="6.849" height="8.563"/>
	
		<rect x="181.42" y="59.226" transform="matrix(0.9777 0.2099 -0.2099 0.9777 17.6025 -37.0014)" opacity="0.5" fill="#ED9B64" width="3.434" height="10.418"/>
	<path fill="#EFA878" stroke="#EFA878" stroke-width="0.2806" stroke-miterlimit="10" d="M191.688,57.811
		c-0.398-0.085-0.792-0.073-1.166,0.013l0.047-0.216l1.097-5.114l0.335-1.56c0.497-2.316-0.978-4.596-3.293-5.092
		c-2.315-0.497-4.595,0.977-5.092,3.293l-0.335,1.559l-1.098,5.114l-0.335,1.56c-0.497,2.316,0.979,4.595,3.294,5.093
		c1.294,0.277,2.562-0.076,3.528-0.831c0.352,0.737,1.019,1.313,1.877,1.498c1.469,0.315,2.914-0.619,3.229-2.088
		C194.093,59.571,193.157,58.126,191.688,57.811z"/>
	<path fill="#ED9B64" stroke="#ED9B64" stroke-width="0.2806" stroke-miterlimit="10" d="M183.617,49.129l-0.336,1.564l-1.097,5.109
		l-0.051,0.237c-0.312-0.241-0.674-0.424-1.084-0.512c-1.468-0.315-2.913,0.618-3.228,2.086c-0.315,1.469,0.619,2.914,2.087,3.229
		c0.866,0.187,1.72-0.071,2.344-0.61c0.569,1.095,1.589,1.947,2.89,2.227l1.252-5.834l1.063-4.956l1.253-5.833
		C186.394,45.34,184.114,46.815,183.617,49.129z"/>
	<g opacity="0.7">
		<path opacity="0.7" fill="#E36F22" stroke="#E36F22" stroke-width="0.9301" stroke-miterlimit="10" d="M201.203,46.813
			c2.205,0.473,4.015,1.919,5.098,2.783c0.106,0.086,0.208,0.165,0.303,0.239c0.274,0.215,0.321,0.614,0.105,0.889
			c-0.217,0.274-0.613,0.322-0.887,0.107c-0.098-0.076-0.2-0.158-0.311-0.247c-0.995-0.794-2.661-2.124-4.573-2.535
			c-1.798-0.386-3.515,0.082-4.769,0.422c-0.218,0.059-0.418,0.113-0.602,0.159c-0.339,0.083-0.682-0.123-0.765-0.461
			c-0.085-0.34,0.122-0.683,0.462-0.767c0.173-0.043,0.366-0.096,0.573-0.151C197.139,46.896,199.104,46.363,201.203,46.813z"/>
	</g>
	<g opacity="0.8">
		<path opacity="0.7" fill="#E36F22" stroke="#E36F22" stroke-width="0.9301" stroke-miterlimit="10" d="M176.499,41.511
			c2.205,0.473,4.015,1.919,5.097,2.783c0.107,0.086,0.209,0.166,0.302,0.239c0.275,0.215,0.322,0.614,0.107,0.889
			c-0.216,0.274-0.613,0.322-0.888,0.107c-0.097-0.076-0.199-0.159-0.311-0.247c-0.994-0.794-2.66-2.124-4.573-2.535
			c-1.797-0.386-3.514,0.082-4.769,0.422c-0.216,0.06-0.418,0.113-0.601,0.159c-0.339,0.083-0.682-0.123-0.765-0.461
			c-0.085-0.34,0.123-0.683,0.462-0.767c0.173-0.043,0.366-0.096,0.573-0.151C172.435,41.595,174.4,41.061,176.499,41.511z"/>
	</g>
	<path opacity="0.9" fill="#ED9B64" d="M192.882,71.886c-0.208-0.045-0.361-0.085-0.441-0.108l-17.774-3.814
		c-0.418-0.064-2.853-0.489-4.068-2.02c-0.322-0.404-0.254-0.995,0.151-1.315c0.404-0.322,0.994-0.254,1.315,0.151
		c0.676,0.851,2.361,1.258,2.898,1.334l0.066,0.012l17.9,3.844c0.561,0.16,2.229,0.469,3.19-0.027
		c0.46-0.238,1.025-0.058,1.263,0.402c0.235,0.458,0.057,1.025-0.403,1.262C195.579,72.329,193.752,72.073,192.882,71.886z"/>
	<path fill="#ED9B64" d="M183.553,69.871l-8.887-1.907c-0.418-0.064-2.853-0.489-4.068-2.02c-0.322-0.404-0.254-0.995,0.151-1.315
		c0.404-0.322,0.994-0.254,1.315,0.151c0.676,0.851,2.361,1.258,2.898,1.334l0.066,0.012l9.083,1.952"/>
	<path fill="#5F4C3F" d="M194.909,18.236c-21.218-4.554-26.94,10.622-29.274,21.493c0,0,4.659-22.182,27.986-15.491
		c22.719,6.516,18.609,25.491,18.609,25.491C215.058,39.38,212.112,21.928,194.909,18.236z"/>
	<path fill="#5F4C3F" d="M207.899,25.726c-1.435,7.368-12.494,11.219-24.389,8.666c-11.894-2.552-20.259-10.57-18.684-17.91
		c0.781-3.641,3.864-6.432,8.223-8.007c0,0-3.996,5.96,2.512,9.081c-1.771-3.829-2.512-9.081,2.625-14.09
		c0,0,0.081,5.665,4.322,6.799C185.944,11.184,209.845,15.735,207.899,25.726z"/>
	<g id="Cykelhjälm_1_">
		<path fill="#E7503E" stroke="#E7503E" stroke-width="0.5843" stroke-miterlimit="10" d="M190.819,31.093
			c0.408,0.075,10.44,1.921,10.44,1.921s3.162,0.238,7.225,3.828c4.062,3.589,7.846,6.852,7.846,6.852s1.104,0.335,3.067-1.16
			c1.961-1.494,4.355-2.593,3.62-6.541c-0.735-3.947,1.637-7.671,1.312-8.968c0,0-3.945-11.333-6.038-13.802
			c-2.094-2.469-8.125-9.83-21.911-12.366l0.916,0.168c-13.786-2.536-22.042,2.198-24.875,3.76
			c-2.836,1.562-10.556,10.75-10.556,10.75c-0.764,1.096,0.127,5.42-1.965,8.848c-2.092,3.428-0.245,5.307,1.056,7.401
			c1.302,2.095,2.453,2.175,2.453,2.175s4.698-1.702,9.771-3.61c5.075-1.909,8.113-1.007,8.113-1.007s10.032,1.846,10.44,1.92"/>
		<g>
			<defs>
				<path id="SVGID_1_" d="M190.819,31.093c0.408,0.075,10.44,1.921,10.44,1.921s3.162,0.238,7.225,3.828
					c4.062,3.589,7.846,6.852,7.846,6.852s1.104,0.335,3.067-1.16c1.961-1.494,4.355-2.593,3.62-6.541
					c-0.735-3.947,1.637-7.671,1.312-8.968c0,0-3.945-11.333-6.038-13.802c-2.094-2.469-8.125-9.83-21.911-12.366l0.916,0.168
					c-13.786-2.536-22.042,2.198-24.875,3.76c-2.836,1.562-10.556,10.75-10.556,10.75c-0.764,1.096,0.127,5.42-1.965,8.848
					c-2.092,3.428-0.245,5.307,1.056,7.401c1.302,2.095,2.453,2.175,2.453,2.175s4.698-1.702,9.771-3.61
					c5.075-1.909,8.113-1.007,8.113-1.007s10.032,1.846,10.44,1.92"/>
			</defs>
			<clipPath id="SVGID_2_">
				<use xlink:href="#SVGID_1_"  overflow="visible"/>
			</clipPath>
			<path clip-path="url(#SVGID_2_)" fill="#BC4234" d="M187.88,17.256c-0.517,2.807,1.341,5.5,4.146,6.016l0,0
				c2.806,0.517,5.5-1.34,6.016-4.146l4.102-22.293c0.516-2.806-1.342-5.5-4.146-6.016l0,0c-2.807-0.517-5.501,1.34-6.017,4.146
				L187.88,17.256z"/>
			<path clip-path="url(#SVGID_2_)" fill="#BC4234" d="M181.006,13.672c1.338,2.52,0.382,5.648-2.139,6.987l0,0
				c-2.52,1.338-5.647,0.382-6.987-2.138L161.243-1.494c-1.338-2.52-0.382-5.648,2.138-6.986l0,0
				c2.52-1.339,5.648-0.383,6.988,2.137L181.006,13.672z"/>
			<path clip-path="url(#SVGID_2_)" fill="#BC4234" d="M205.742,18.222c-2.147,1.878-2.367,5.143-0.488,7.291l0,0
				c1.877,2.147,5.141,2.367,7.29,0.489l17.064-14.92c2.147-1.878,2.366-5.142,0.488-7.29l0,0c-1.879-2.148-5.142-2.368-7.291-0.49
				L205.742,18.222z"/>
		</g>
		<g>
			<defs>
				<path id="SVGID_3_" d="M190.819,31.093c0.408,0.075,10.44,1.921,10.44,1.921s3.162,0.238,7.225,3.828
					c4.062,3.589,7.846,6.852,7.846,6.852s1.104,0.335,3.067-1.16c1.961-1.494,4.355-2.593,3.62-6.541
					c-0.735-3.947,1.637-7.671,1.312-8.968c0,0-3.945-11.333-6.038-13.802c-2.094-2.469-8.125-9.83-21.911-12.366l0.916,0.168
					c-13.786-2.536-22.042,2.198-24.875,3.76c-2.836,1.562-10.556,10.75-10.556,10.75c-0.764,1.096,0.127,5.42-1.965,8.848
					c-2.092,3.428-0.245,5.307,1.056,7.401c1.302,2.095,2.453,2.175,2.453,2.175s4.698-1.702,9.771-3.61
					c5.075-1.909,8.113-1.007,8.113-1.007s10.032,1.846,10.44,1.92"/>
			</defs>
			<clipPath id="SVGID_4_">
				<use xlink:href="#SVGID_3_"  overflow="visible"/>
			</clipPath>
			<path clip-path="url(#SVGID_4_)" fill="#BC4234" d="M165.036,19.983c1.558,1.677,1.463,4.301-0.215,5.859l0,0
				c-1.677,1.558-4.3,1.463-5.859-0.214l-12.381-13.322c-1.559-1.677-1.464-4.3,0.212-5.858l0,0c1.678-1.559,4.301-1.463,5.86,0.213
				L165.036,19.983z"/>
			<path clip-path="url(#SVGID_4_)" fill="#BC4234" d="M218.425,29.804c-2.053,1.013-2.896,3.498-1.885,5.552l0,0
				c1.014,2.053,3.498,2.897,5.553,1.885l16.312-8.043c2.052-1.013,2.896-3.499,1.885-5.552l0,0
				c-1.013-2.053-3.499-2.898-5.552-1.885L218.425,29.804z"/>
		</g>
	</g>
	<g>
		<path opacity="0.7" fill="#ED9B64" d="M182.518,75.504c-3.265-0.701-5.945-2.84-7.547-4.119c-0.16-0.128-0.31-0.247-0.447-0.355
			c-0.408-0.319-0.478-0.908-0.159-1.315c0.32-0.407,0.907-0.479,1.314-0.159c0.144,0.112,0.295,0.234,0.459,0.365
			c1.474,1.176,3.94,3.145,6.773,3.752c2.66,0.571,5.204-0.119,7.059-0.624c0.321-0.088,0.621-0.167,0.89-0.236
			c0.503-0.125,1.012,0.182,1.134,0.684c0.126,0.503-0.182,1.01-0.684,1.134c-0.257,0.064-0.542,0.14-0.848,0.224
			C188.534,75.38,185.624,76.171,182.518,75.504z"/>
		<path fill="#ED9B64" d="M182.518,75.504c-3.265-0.701-5.945-2.84-7.547-4.119c-0.16-0.128-0.31-0.247-0.447-0.355
			c-0.408-0.319-0.478-0.908-0.159-1.315c0.32-0.407,0.907-0.479,1.314-0.159c0.144,0.112,0.295,0.234,0.459,0.365
			c1.474,1.176,3.94,3.145,6.773,3.752"/>
	</g>
	<rect x="154.584" y="452.439" fill="#045E97" width="25.333" height="30.014"/>
	<path fill="#0B72B5" stroke="#0B72B5" stroke-miterlimit="10" d="M122.373,215.177c-11.25,33.489,5.817,46.421,5.817,46.421
		l24.863,88.074l-7.169,115.111h34.4l13.666-123.572l-14.639-76.435c-0.093-3.63,4.973-49.599,4.973-49.599H122.373z"/>
	<g>
		<g>
			<path fill="#EDBB98" d="M294.227,246.823"/>
			<path fill="#EDBB98" d="M294.453,246.631c0.164,0.313,0.187,0.626,0.187,0.626c0.34,1.141-0.077,2.409-1.115,3.105
				c-1.135,0.763-2.624,0.572-3.54-0.381c0.061,0.194,0.078,0.35,0.078,0.35c0.34,1.14-0.08,2.41-1.116,3.104
				c-1.087,0.73-2.5,0.586-3.423-0.266c0.024,0.11,0.031,0.187,0.031,0.187c0.341,1.139-0.08,2.41-1.114,3.104
				c-1.271,0.854-2.888,0.682-3.744-0.595l0.188,0.626c0.343,1.138-0.078,2.408-1.114,3.104c-1.274,0.855-2.997,0.516-3.853-0.757
				l-3.416-5.09l-2.188-3.261l-3.448-5.138c-1.775-2.644-2.554-7.635-0.561-9.542l-3.132-4.666l12.839-8.619l1.725,2.568
				c3.172-1.445,6.848,1.292,8.227,3.347l3.413,4.662c0.448,0.799,1.391,1.522,2.681,2.059l-0.036,0.081l0.101,0.033l0.033-0.072
				c0.218,0.09,0.448,0.167,0.677,0.244l-0.035,0.081l0.1,0.032l0.034-0.079c0.664,0.22,1.306,0.515,1.986,0.626
				c0.13,0.021,0.262,0.048,0.386,0.063c0.333,0.044,0.662,0.077,0.979,0.087l0.066,0.002l0.614,0.042
				c0.176-0.005,0.336,0.012,0.485,0.039c0.052,0.009,0.102,0.028,0.152,0.043c0.087,0.023,0.173,0.05,0.251,0.084
				c0.05,0.024,0.097,0.048,0.143,0.076c0.019,0.012,0.042,0.021,0.061,0.033c0-0.024,0.003-0.052-0.005-0.067
				c0.172,0.068,0.349,0.27,0.355,0.281c0.007,0.008-0.001,0.06-0.001,0.06c-0.001,0.01-0.01,0.016-0.01,0.027
				c0.382,0.439,0.535,1.054,0.576,1.566c0.191,2.343-2.501,3.429-2.501,3.429c-2.122,0.804-4.248-0.01-4.248-0.01
				c-0.726-0.201-1.359-0.67-1.812-1.344l0.76,1.13l2.067,3.082"/>
		</g>
		<g>
			<line fill="#FCEADE" x1="292.117" y1="237.824" x2="292.861" y2="235.486"/>
			<path fill="#FCEADE" d="M292.811,235.472l-0.743,2.336c-0.008,0.028,0.007,0.059,0.035,0.067
				c0.027,0.008,0.057-0.007,0.063-0.035l0.742-2.337L292.811,235.472z"/>
		</g>
		<g>
			<line fill="#FCEADE" x1="291.344" y1="237.578" x2="292.09" y2="235.226"/>
			<path fill="#FCEADE" d="M292.045,235.189l-0.752,2.373c-0.008,0.029,0.008,0.058,0.036,0.067
				c0.026,0.009,0.057-0.006,0.064-0.035l0.751-2.374L292.045,235.189z"/>
		</g>
		
			<path fill="#FCEADE" stroke="#FCEADE" stroke-width="0.1047" stroke-linecap="round" stroke-linejoin="round" stroke-miterlimit="10" d="
			M294.427,235.958c0.624,0.128,1.248,0.208,1.834,0.231l0.069,0.002l0.604,0.042c0.635-0.019,1.072,0.192,1.373,0.511
			c-0.202,1.055-1.218,1.715-2.274,1.516l-1.791-0.343c-0.101-0.018-0.165-0.114-0.146-0.215l0.33-1.735"/>
		<g>
			<path fill="#FFFFFF" d="M298.002,236.674c-0.164,0.854-1.097,1.801-1.953,1.638l0,0c1.058,0.202,2.106-0.486,2.306-1.539
				c0,0,0.009-0.047,0.002-0.058c-0.007-0.011-0.181-0.208-0.349-0.278C298.039,236.499,298.002,236.674,298.002,236.674z"/>
		</g>
	</g>
	<g>
		<path fill="#E7503E" stroke="#E7503E" stroke-width="1.0968" stroke-miterlimit="10" d="M148.241,488.307
			c-0.5-1.5-2.625-11.48,0.875-18.605c0,0,10.231,8.5,23.731,0c3.333,5-5.5-2.432-2-5.883s9.166-6.451,9.166-6.451
			s18.723,16.174,33.834,19.627c6.74,1.539,15.264,5.871,14.549,11.039C227.679,493.201,148.241,488.307,148.241,488.307"/>
		<path fill="#FFFFFF" stroke="#FFFFFF" stroke-width="1.0968" stroke-miterlimit="10" d="M147.93,489.506L147.93,489.506
			c0,1.846,1.496,3.34,3.34,3.34h73.784c1.846,0,3.342-1.494,3.342-3.34l0,0v-2.258H147.93V489.506z"/>
		
			<path fill="#FFFFFF" stroke="#FFFFFF" stroke-width="1.0968" stroke-linecap="round" stroke-linejoin="round" stroke-miterlimit="10" d="
			M213.847,476.994c5.037,1.15,11.068,3.859,13.498,7.311h-13.498V476.994"/>
		<path d="M147.602,490.82h59.411c0.277,0,0.5-0.223,0.5-0.5c0-0.275-0.223-0.5-0.5-0.5h-59.63
			C147.383,489.82,147.492,490.664,147.602,490.82z"/>
		<path fill="#FFFFFF" d="M191.491,465.432l-6.732,3.654c-0.084,0.047-0.176,0.068-0.266,0.068c-0.193,0-0.381-0.102-0.48-0.283
			c-0.146-0.264-0.051-0.598,0.213-0.744l6.23-3.457L191.491,465.432z"/>
		<path fill="#FFFFFF" d="M195.653,468.123l-6.586,3.652c-0.084,0.047-0.176,0.07-0.266,0.07c-0.191,0-0.379-0.104-0.479-0.283
			c-0.148-0.266-0.053-0.6,0.213-0.746l6.076-3.371L195.653,468.123z"/>
		<path fill="#FFFFFF" d="M200.159,470.764l-6.684,3.703c-0.084,0.047-0.176,0.068-0.266,0.068c-0.191,0-0.379-0.102-0.479-0.283
			c-0.148-0.264-0.053-0.598,0.213-0.744l6.092-3.381L200.159,470.764z"/>
		<path fill="#FFFFFF" d="M205.013,473.244l-6.695,3.715c-0.08,0.045-0.172,0.066-0.262,0.066c-0.193,0-0.379-0.102-0.48-0.283
			c-0.146-0.264-0.051-0.598,0.215-0.744l6.014-3.338L205.013,473.244z"/>
	</g>
	<path fill="#C3E6F4" d="M183.774,232.896l16.855-86.581c6.883-22.888-5.021-43.409-20.468-45.958l-6.544-1.411
		c-15.446-2.549-30.142,7.759-32.824,24.009l-25.467,107.868L183.774,232.896z"/>
	
		<path fill="#AADCED" stroke="#AADCED" stroke-width="5" stroke-linecap="round" stroke-linejoin="round" stroke-miterlimit="10" d="
		M213.882,179.34l-20.677-48.512c-0.062-0.16-0.11-0.322-0.179-0.481l-10.076-23.588c-2.676-6.264-13.622-5.958-16.217-5.623
		c-6.756,0.872-9.143,9.049-6.467,15.313l10.077,23.587c0.169,0.396,0.356,0.778,0.561,1.146l21.778,49.411l67.845,45.808
		l16.542-14.988L213.882,179.34z"/>
	<g>
		<g>
			<g>
				<path fill="#54B170" d="M-62.897,589.681c0.067-5.376,0.043-36.689,4.793-46.841c11.686-24.967,50.333-25.103,50.333-25.103
					s6.027,52.917-32.958,59.841c-15.251,2.7-14.447,2.773-15.884,12.655l0.055,11.587l-6.291,0.013L-62.897,589.681z"/>
			</g>
		</g>
		<g>
			<g>
				<path fill="#46A461" d="M-68.66,569.133c-0.092-5.34-0.307-36.678-5.119-46.78c-11.876-24.894-50.53-24.759-50.53-24.759
					s-5.64,52.979,33.4,59.607c15.27,2.603,14.46,2.688,15.97,12.545l0.116,32.136l6.279-0.024L-68.66,569.133z"/>
			</g>
			<g>
				<path fill="#46A461" d="M-68.869,559.779c-0.356-11.661-1.424-30.099-4.91-37.427c-11.876-24.894-50.53-24.759-50.53-24.759"/>
			</g>
		</g>
		<path fill="#F0C40F" d="M-35.168,433.568v39.279c0,17.517-12.416,31.719-27.729,31.719l0,0c-15.319,0-27.729-14.202-27.729-31.719
			v-39.279l27.729,21.187L-35.168,433.568z"/>
		<path fill="#F49E1B" d="M-62.897,504.566L-62.897,504.566c-15.319,0-27.729-14.202-27.729-31.719v-39.279l27.729,21.187V504.566z"
			/>
	</g>
</g>
</svg>
