<?xml version="1.0" encoding="utf-8"?>
<!-- Generator: Adobe Illustrator 17.1.0, SVG Export Plug-In . SVG Version: 6.00 Build 0)  -->
<!DOCTYPE svg PUBLIC "-//W3C//DTD SVG 1.1//EN" "http://www.w3.org/Graphics/SVG/1.1/DTD/svg11.dtd">
<svg version="1.1" xmlns="http://www.w3.org/2000/svg" xmlns:xlink="http://www.w3.org/1999/xlink" x="0px" y="0px"
	 width="529.085px" height="329.02px" viewBox="0 0 529.085 329.02" enable-background="new 0 0 529.085 329.02"
	 xml:space="preserve">
<g id="Röd">
	<path fill="none" stroke="#B1B3B4" stroke-width="17" stroke-miterlimit="10" d="M-1086.235-79.639c0-2-14.667-88-119.333-62.666
		s-128.697-53.694-82.197-86.666c52.65-37.334,99.955-110.667,29.743-140.667"/>
	<g>
		<g>
			<g>
				
					<rect x="-632.735" y="-76.907" transform="matrix(0.8565 0.5161 -0.5161 0.8565 -117.5193 295.9417)" fill="#707173" width="83.468" height="27.047"/>
				<path fill="#707173" d="M-562.893-29.17l-71.491-43.082c-0.602-0.362-0.796-1.144-0.434-1.745l13.961-23.169
					c0.363-0.602,1.146-0.796,1.748-0.434l71.491,43.082c0.602,0.362,0.796,1.146,0.433,1.748l-13.961,23.168
					C-561.509-29.001-562.29-28.808-562.893-29.17z"/>
			</g>
			<g>
				
					<rect x="-519.065" y="-315.966" transform="matrix(0.8564 0.5163 -0.5163 0.8564 -172.8418 237.5246)" fill="#C6C7C8" width="11.149" height="247.918"/>
				
					<rect x="-518.665" y="-317.405" transform="matrix(0.8564 0.5163 -0.5163 0.8564 -173.9308 238.5531)" fill="#9C9E9F" width="5.575" height="247.918"/>
			</g>
			<path fill="#646567" d="M-561.146-29.602c-0.363,0.601-1.145,0.794-1.747,0.432l-71.491-43.082
				c-0.602-0.362-0.796-1.144-0.434-1.745l13.961-23.169c0.363-0.602,1.146-0.796,1.748-0.434L-561.146-29.602z"/>
			<path fill="#646567" d="M-582.245-88.714l-11.817,19.61c-1.59,2.638-0.74,6.062,1.897,7.651l0,0
				c2.637,1.59,6.062,0.741,7.652-1.896l11.817-19.609L-582.245-88.714z"/>
		</g>
		<g>
			<path fill="#B1B3B4" d="M-217.18-119.258c-2.071-8.887-8.711-27.384-25.556-40.638c-19.133-15.055-45.055-18.762-77.043-11.019
				c-42.808,10.36-65.554-2.413-72.567-17.822c-6.107-13.417-0.917-29.492,12.62-39.092c29.446-20.88,57.703-55.552,54.454-85.945
				c-1.233-11.536-7.791-27.46-32.024-37.815l-5.319,12.449c14.614,6.244,22.649,15.263,23.882,26.806
				c2.535,23.704-22.643,54.899-48.823,73.463c-18.91,13.409-25.946,36.332-17.111,55.743c7.111,15.623,25.284,29.481,56.383,29.479
				c9.371,0,19.921-1.26,31.69-4.108c26.195-6.34,47.337-4.136,62.84,6.55c20.043,13.817,23.829,37.164,23.857,37.394
				c-0.039-0.308-0.032-0.518-0.032-0.62L-217.18-119.258z"/>
			<path fill="none" stroke="#646567" stroke-width="12.741" stroke-miterlimit="10" d="M-360.215-345.421
				c0,0-45.658-31.719-89.801,48.139"/>
			
				<rect x="-362.723" y="-352.355" transform="matrix(0.8837 0.468 -0.468 0.8837 -203.4254 128.2682)" fill="#646567" stroke="#646567" stroke-width="2.2317" stroke-linecap="round" stroke-linejoin="round" stroke-miterlimit="10" width="5.696" height="14.117"/>
		</g>
		<g>
			<rect x="-162.97" y="-139.505" fill="#646567" width="16.267" height="3.782"/>
			<path fill="#E7503E" stroke="#E7503E" stroke-width="0.7963" stroke-miterlimit="10" d="M-243.733-49.526h114.661
				c12.542,0,12.965-3.999,12.965-3.999v-54.747c0-29.662-38.26-28.024-38.26-28.024c-29.033,0.573-69.548,3.958-99.021,36.938
				c-5.544,6.204-10.465,13.884-12.907,26.042C-266.296-73.317-269.702-49.526-243.733-49.526z"/>
			<path fill="#535456" stroke="#535456" stroke-width="0.7963" stroke-miterlimit="10" d="M-116.107-73.317v19.792
				c0,0-0.423,3.999-12.965,3.999h-114.661c-25.969,0-22.562-23.791-22.562-23.791H-116.107z"/>
			<g>
				<circle cx="-141.152" cy="-73.317" r="35.237"/>
				<path fill="#3E3D40" d="M-141.151-38.08c19.46,0,35.236-15.776,35.236-35.237c0-19.461-15.776-35.236-35.236-35.236V-38.08z"/>
				<circle fill="#FFFFFF" cx="-141.152" cy="-73.317" r="23.756"/>
				<path fill="#F6F6F6" d="M-141.151-49.559c-13.121,0-23.757-10.637-23.757-23.758c0-13.119,10.636-23.756,23.757-23.756V-49.559z
					"/>
				<circle fill="#87888A" cx="-141.152" cy="-73.316" r="14.847"/>
				<path fill="#707173" d="M-141.151-58.469c-8.2,0-14.848-6.647-14.848-14.847c0-8.199,6.648-14.847,14.848-14.847V-58.469z"/>
			</g>
		</g>
	</g>
	<g>
		<rect x="-1182.393" y="-63.131" fill="#C6C7C8" width="14" height="311.333"/>
		<rect x="-1182.393" y="-63.131" fill="#9C9E9F" width="7" height="311.333"/>
	</g>
	<polygon fill="#707173" points="-1168.393,281.121 -1180.771,293.187 -1190.671,283.288 -1182.393,275.117 -1182.393,248.203 
		-1168.393,248.203 -1168.393,280.809 	"/>
	
		<path fill="#707173" stroke="#707173" stroke-width="5.1079" stroke-linecap="round" stroke-linejoin="round" stroke-miterlimit="10" d="
		M-1175.393,293.051c-6.52-9.558-17.498-15.832-29.94-15.832c-12.502,0-23.524,6.334-30.033,15.968L-1175.393,293.051z"/>
	<g>
		<g>
			<rect x="-1166.794" y="382.142" fill="#707173" width="104.819" height="33.967"/>
			<path fill="#707173" d="M-1061.975,417.707h-104.819c-0.883,0-1.599-0.715-1.599-1.598v-33.967c0-0.883,0.716-1.6,1.599-1.6
				h104.819c0.883,0,1.599,0.717,1.599,1.6v33.967C-1060.377,416.992-1061.093,417.707-1061.975,417.707z"/>
		</g>
		<g>
			<rect x="-1121.385" y="54.874" fill="#C6C7C8" width="14" height="311.333"/>
			<rect x="-1121.385" y="54.874" fill="#9C9E9F" width="7" height="311.333"/>
		</g>
		<path fill="#646567" d="M-1060.377,416.109c0,0.883-0.716,1.598-1.599,1.598h-104.819c-0.883,0-1.599-0.715-1.599-1.598v-33.967
			c0-0.883,0.716-1.6,1.599-1.6L-1060.377,416.109z"/>
		<path fill="#646567" d="M-1121.385,366.207v28.752c0,3.867,3.134,7,7,7l0,0c3.866,0,7-3.133,7-7v-28.752H-1121.385z"/>
	</g>
</g>
<g id="Blå">
	<g>
		<g>
			<g>
				
					<rect x="-41.735" y="-76.908" transform="matrix(0.8565 0.5161 -0.5161 0.8565 -32.7144 -9.0945)" fill="#707173" width="83.469" height="27.048"/>
				<path fill="#707173" d="M28.107-29.17l-71.49-43.082c-0.602-0.362-0.797-1.144-0.434-1.745l13.961-23.169
					c0.362-0.602,1.146-0.796,1.747-0.434l71.491,43.082c0.602,0.362,0.796,1.146,0.434,1.748L29.855-29.602
					C29.491-29.001,28.71-28.808,28.107-29.17z"/>
			</g>
			<g>
				
					<rect x="71.935" y="-315.966" transform="matrix(0.8564 0.5163 -0.5163 0.8564 -87.9964 -67.5796)" fill="#C6C7C8" width="11.149" height="247.918"/>
				
					<rect x="72.335" y="-317.405" transform="matrix(0.8564 0.5163 -0.5163 0.8564 -89.0948 -66.57)" fill="#9C9E9F" width="5.574" height="247.918"/>
			</g>
			<path fill="#646567" d="M29.855-29.602c-0.363,0.601-1.145,0.794-1.748,0.432l-71.49-43.082
				c-0.602-0.362-0.797-1.144-0.434-1.745l13.961-23.169c0.362-0.602,1.146-0.796,1.747-0.434L29.855-29.602z"/>
			<path fill="#646567" d="M8.755-88.714l-11.817,19.61c-1.59,2.638-0.74,6.062,1.897,7.651l0,0c2.637,1.59,6.062,0.741,7.651-1.896
				l11.817-19.609L8.755-88.714z"/>
		</g>
		<g>
			<path fill="#B1B3B4" d="M373.82-119.258c-2.071-8.887-8.711-27.384-25.556-40.638c-19.133-15.055-45.055-18.762-77.043-11.019
				c-42.808,10.36-65.554-2.413-72.567-17.822c-6.107-13.417-0.918-29.492,12.62-39.092c29.446-20.88,57.703-55.552,54.454-85.945
				c-1.233-11.536-7.791-27.46-32.024-37.815l-5.319,12.449c14.613,6.244,22.648,15.263,23.883,26.806
				c2.535,23.704-22.643,54.899-48.823,73.463c-18.91,13.409-25.946,36.332-17.111,55.743c7.11,15.623,25.284,29.481,56.384,29.479
				c9.371,0,19.921-1.26,31.689-4.108c26.195-6.34,47.338-4.136,62.841,6.55c20.043,13.817,23.829,37.164,23.857,37.394
				c-0.039-0.308-0.032-0.518-0.032-0.62L373.82-119.258z"/>
			<path fill="none" stroke="#646567" stroke-width="12.741" stroke-miterlimit="10" d="M230.785-345.421
				c0,0-45.657-31.719-89.802,48.139"/>
			
				<rect x="228.277" y="-352.355" transform="matrix(0.8837 0.468 -0.468 0.8837 -134.7268 -148.3169)" fill="#646567" stroke="#646567" stroke-width="2.2317" stroke-linecap="round" stroke-linejoin="round" stroke-miterlimit="10" width="5.695" height="14.117"/>
		</g>
		<g>
			<rect x="428.03" y="-139.505" fill="#646567" width="16.267" height="3.782"/>
			<path fill="#4195CD" stroke="#4195CD" stroke-width="0.7963" stroke-miterlimit="10" d="M347.267-49.526h114.661
				c12.542,0,12.965-3.999,12.965-3.999v-54.747c0-29.662-38.26-28.024-38.26-28.024c-29.033,0.573-69.548,3.958-99.022,36.938
				c-5.544,6.204-10.465,13.884-12.907,26.042C324.704-73.317,321.298-49.526,347.267-49.526z"/>
			<path fill="#535456" stroke="#535456" stroke-width="0.7963" stroke-miterlimit="10" d="M474.893-73.317v19.792
				c0,0-0.423,3.999-12.965,3.999H347.267c-25.969,0-22.562-23.791-22.562-23.791H474.893z"/>
			<g>
				<circle cx="449.848" cy="-73.317" r="35.237"/>
				<path fill="#3E3D40" d="M449.849-38.08c19.46,0,35.236-15.776,35.236-35.237c0-19.461-15.776-35.236-35.236-35.236V-38.08z"/>
				<circle fill="#FFFFFF" cx="449.848" cy="-73.317" r="23.756"/>
				<path fill="#F6F6F6" d="M449.849-49.559c-13.121,0-23.757-10.637-23.757-23.758c0-13.119,10.636-23.756,23.757-23.756V-49.559z"
					/>
				<circle fill="#87888A" cx="449.848" cy="-73.316" r="14.847"/>
				<path fill="#707173" d="M449.849-58.469c-8.2,0-14.848-6.647-14.848-14.847c0-8.199,6.647-14.847,14.848-14.847V-58.469z"/>
			</g>
		</g>
	</g>
</g>
<g id="Grå">
	<g>
		<g>
			<g>
				
					<rect x="-632.735" y="281.1" transform="matrix(0.8565 0.5161 -0.5161 0.8565 67.2614 347.3134)" fill="#707173" width="83.468" height="27.047"/>
				<path fill="#707173" d="M-562.893,328.837l-71.491-43.082c-0.602-0.362-0.796-1.144-0.434-1.745l13.961-23.169
					c0.363-0.602,1.146-0.796,1.748-0.434l71.491,43.082c0.602,0.362,0.796,1.146,0.433,1.748l-13.961,23.168
					C-561.509,329.006-562.29,329.2-562.893,328.837z"/>
			</g>
			<g>
				
					<rect x="-519.065" y="42.041" transform="matrix(0.8564 0.5163 -0.5163 0.8564 11.9799 288.921)" fill="#C6C7C8" width="11.149" height="247.918"/>
				
					<rect x="-518.665" y="40.603" transform="matrix(0.8564 0.5163 -0.5163 0.8564 10.8933 289.951)" fill="#9C9E9F" width="5.575" height="247.918"/>
			</g>
			<path fill="#646567" d="M-561.146,328.406c-0.363,0.601-1.145,0.794-1.747,0.432l-71.491-43.082
				c-0.602-0.362-0.796-1.144-0.434-1.745l13.961-23.169c0.363-0.602,1.146-0.796,1.748-0.434L-561.146,328.406z"/>
			<path fill="#646567" d="M-582.245,269.293l-11.817,19.61c-1.59,2.638-0.74,6.062,1.897,7.651l0,0
				c2.637,1.59,6.062,0.741,7.652-1.896l11.817-19.609L-582.245,269.293z"/>
		</g>
		<g>
			<path fill="#B1B3B4" d="M-217.18,238.75c-2.071-8.887-8.711-27.384-25.556-40.639c-19.133-15.055-45.055-18.762-77.043-11.019
				c-42.808,10.36-65.554-2.413-72.567-17.821c-6.107-13.418-0.917-29.492,12.62-39.092c29.446-20.881,57.703-55.553,54.454-85.946
				c-1.233-11.536-7.791-27.46-32.024-37.815l-5.319,12.449c14.614,6.244,22.649,15.263,23.882,26.806
				c2.535,23.704-22.643,54.899-48.823,73.464c-18.91,13.408-25.946,36.331-17.111,55.742c7.111,15.623,25.284,29.48,56.383,29.479
				c9.371,0,19.921-1.26,31.69-4.107c26.195-6.34,47.337-4.136,62.84,6.55c20.043,13.817,23.829,37.164,23.857,37.394
				c-0.039-0.308-0.032-0.518-0.032-0.62L-217.18,238.75z"/>
			<path fill="none" stroke="#646567" stroke-width="12.741" stroke-miterlimit="10" d="M-360.215,12.587
				c0,0-45.658-31.719-89.801,48.139"/>
			
				<rect x="-362.723" y="5.653" transform="matrix(0.8837 0.468 -0.468 0.8837 -35.8887 169.8885)" fill="#646567" stroke="#646567" stroke-width="2.2317" stroke-linecap="round" stroke-linejoin="round" stroke-miterlimit="10" width="5.696" height="14.117"/>
		</g>
		<g>
			<rect x="-162.97" y="218.502" fill="#646567" width="16.267" height="3.782"/>
			<path fill="#535456" stroke="#535456" stroke-width="0.7963" stroke-miterlimit="10" d="M-243.733,308.482h114.661
				c12.542,0,12.965-3.999,12.965-3.999v-54.747c0-29.662-38.26-28.024-38.26-28.024c-29.033,0.573-69.548,3.958-99.021,36.938
				c-5.544,6.204-10.465,13.884-12.907,26.042C-266.296,284.691-269.702,308.482-243.733,308.482z"/>
			<path fill="#1B171B" stroke="#1B171B" stroke-width="0.7963" stroke-miterlimit="10" d="M-116.107,284.691v19.792
				c0,0-0.423,3.999-12.965,3.999h-114.661c-25.969,0-22.562-23.791-22.562-23.791H-116.107z"/>
			<g>
				<circle cx="-141.152" cy="284.691" r="35.237"/>
				<path fill="#3E3D40" d="M-141.151,319.928c19.46,0,35.236-15.776,35.236-35.237s-15.776-35.236-35.236-35.236V319.928z"/>
				<circle fill="#FFFFFF" cx="-141.152" cy="284.691" r="23.756"/>
				<path fill="#F6F6F6" d="M-141.151,308.449c-13.121,0-23.757-10.637-23.757-23.758c0-13.119,10.636-23.756,23.757-23.756V308.449
					z"/>
				<circle fill="#87888A" cx="-141.152" cy="284.692" r="14.847"/>
				<path fill="#707173" d="M-141.151,299.539c-8.2,0-14.848-6.647-14.848-14.847c0-8.199,6.648-14.847,14.848-14.847V299.539z"/>
			</g>
		</g>
	</g>
</g>
<g id="Gul">
	<g>
		<g>
			<g>
				
					<rect x="2.265" y="281.1" transform="matrix(0.8565 0.5161 -0.5161 0.8565 158.378 19.5663)" fill="#707173" width="83.469" height="27.048"/>
				<path fill="#707173" d="M72.107,328.837l-71.49-43.082c-0.602-0.362-0.797-1.144-0.434-1.745l13.961-23.169
					c0.362-0.602,1.145-0.796,1.747-0.434l71.491,43.082c0.602,0.362,0.796,1.146,0.434,1.748l-13.961,23.168
					C73.491,329.006,72.71,329.2,72.107,328.837z"/>
			</g>
			<g>
				
					<rect x="115.935" y="42.041" transform="matrix(0.8564 0.5163 -0.5163 0.8564 103.142 -38.8982)" fill="#C6C7C8" width="11.149" height="247.918"/>
				
					<rect x="116.335" y="40.603" transform="matrix(0.8564 0.5163 -0.5163 0.8564 102.0766 -37.8738)" fill="#9C9E9F" width="5.574" height="247.918"/>
			</g>
			<path fill="#646567" d="M73.855,328.406c-0.363,0.601-1.145,0.794-1.748,0.432l-71.49-43.082
				c-0.602-0.362-0.797-1.144-0.434-1.745l13.961-23.169c0.362-0.602,1.145-0.796,1.747-0.434L73.855,328.406z"/>
			<path fill="#646567" d="M52.755,269.293l-11.817,19.61c-1.59,2.638-0.74,6.062,1.897,7.651l0,0
				c2.637,1.59,6.062,0.741,7.651-1.896l11.817-19.609L52.755,269.293z"/>
		</g>
		<g>
			<path fill="#B1B3B4" d="M417.82,238.75c-2.071-8.887-8.711-27.384-25.556-40.639c-19.133-15.055-45.055-18.762-77.043-11.019
				c-42.808,10.36-65.554-2.413-72.567-17.821c-6.107-13.418-0.918-29.492,12.62-39.092c29.446-20.881,57.703-55.553,54.454-85.946
				c-1.233-11.536-7.791-27.46-32.024-37.815l-5.319,12.449c14.613,6.244,22.648,15.263,23.883,26.806
				c2.535,23.704-22.643,54.899-48.823,73.464c-18.91,13.408-25.946,36.331-17.111,55.742c7.11,15.623,25.284,29.48,56.384,29.479
				c9.371,0,19.921-1.26,31.689-4.107c26.195-6.34,47.338-4.136,62.841,6.55c20.043,13.817,23.829,37.164,23.857,37.394
				c-0.039-0.308-0.032-0.518-0.032-0.62L417.82,238.75z"/>
			<path fill="none" stroke="#646567" stroke-width="12.741" stroke-miterlimit="10" d="M274.785,12.587
				c0,0-45.657-31.719-89.802,48.139"/>
			
				<rect x="272.277" y="5.653" transform="matrix(0.8837 0.468 -0.468 0.8837 37.9392 -127.2818)" fill="#646567" stroke="#646567" stroke-width="2.2317" stroke-linecap="round" stroke-linejoin="round" stroke-miterlimit="10" width="5.695" height="14.117"/>
		</g>
		<g>
			<rect x="472.03" y="218.502" fill="#646567" width="16.267" height="3.782"/>
			<path fill="#FBC017" stroke="#FBC017" stroke-width="0.7963" stroke-miterlimit="10" d="M391.267,308.482h114.661
				c12.542,0,12.965-3.999,12.965-3.999v-54.747c0-29.662-38.26-28.024-38.26-28.024c-29.033,0.573-69.548,3.958-99.022,36.938
				c-5.544,6.204-10.465,13.884-12.907,26.042C368.704,284.691,365.298,308.482,391.267,308.482z"/>
			<path fill="#535456" stroke="#535456" stroke-width="0.7963" stroke-miterlimit="10" d="M518.893,284.691v19.792
				c0,0-0.423,3.999-12.965,3.999H391.267c-25.969,0-22.562-23.791-22.562-23.791H518.893z"/>
			<g>
				<circle cx="493.848" cy="284.691" r="35.237"/>
				<path fill="#3E3D40" d="M493.849,319.928c19.46,0,35.236-15.776,35.236-35.237s-15.776-35.236-35.236-35.236V319.928z"/>
				<circle fill="#FFFFFF" cx="493.848" cy="284.691" r="23.756"/>
				<path fill="#F6F6F6" d="M493.849,308.449c-13.121,0-23.757-10.637-23.757-23.758c0-13.119,10.636-23.756,23.757-23.756V308.449z
					"/>
				<circle fill="#87888A" cx="493.848" cy="284.692" r="14.847"/>
				<path fill="#707173" d="M493.849,299.539c-8.2,0-14.848-6.647-14.848-14.847c0-8.199,6.647-14.847,14.848-14.847V299.539z"/>
			</g>
		</g>
	</g>
</g>
</svg>
