<?xml version="1.0" encoding="utf-8"?>
<!-- Generator: Adobe Illustrator 15.0.2, SVG Export Plug-In . SVG Version: 6.00 Build 0)  -->
<!DOCTYPE svg PUBLIC "-//W3C//DTD SVG 1.1//EN" "http://www.w3.org/Graphics/SVG/1.1/DTD/svg11.dtd">
<svg version="1.1" id="Lager_1" xmlns="http://www.w3.org/2000/svg" xmlns:xlink="http://www.w3.org/1999/xlink" x="0px" y="0px"
	 width="334.981px" height="27.341px" viewBox="0 0 334.981 27.341" enable-background="new 0 0 334.981 27.341"
	 xml:space="preserve">
<polygon fill="#D83939" stroke="#D83939" stroke-width="0.2527" stroke-linecap="round" stroke-linejoin="round" stroke-miterlimit="10" points="
	334.855,0.126 214.573,0.126 200.68,0.126 130.941,0.126 117.293,0.126 0.126,0.126 9.765,13.785 0.126,27.215 117.293,27.215 
	130.941,27.215 200.68,27.215 214.573,27.215 334.855,27.215 325.217,13.785 "/>
<g>
	<path fill="#FFFFFF" d="M47.459,6.163h0.773l2.344,13.314l1.888-13.314h0.776l1.891,13.329L57.46,6.163h0.773l-2.517,14.589H54.53
		L52.813,9.224l-1.698,11.528h-1.132L47.459,6.163z"/>
	<path fill="#FFFFFF" d="M63.697,6.163h0.773l2.344,13.314l1.889-13.314h0.776l1.891,13.329l2.328-13.329h0.773l-2.516,14.589
		h-1.186L69.05,9.224l-1.698,11.528H66.22L63.697,6.163z"/>
	<path fill="#FFFFFF" d="M79.934,6.163h0.773l2.344,13.314L84.94,6.163h0.776l1.891,13.329l2.329-13.329h0.773l-2.517,14.589h-1.187
		L85.288,9.224L83.59,20.752h-1.132L79.934,6.163z"/>
	<path fill="#FFFFFF" d="M96.629,20.752v-1.811h1.608v1.811H96.629z"/>
	<path fill="#FFFFFF" d="M104.311,10.039c0-1.309,0.365-2.283,1.095-2.92c0.729-0.637,1.6-0.956,2.615-0.956
		c1.014,0,2.125,0.098,3.332,0.295V7.23c-1.085-0.196-2.1-0.295-3.042-0.295c-0.943,0-1.716,0.265-2.319,0.793
		c-0.604,0.529-0.906,1.272-0.906,2.229c0,0.834,0.431,1.458,1.292,1.872c0.387,0.197,0.812,0.378,1.277,0.544
		s0.933,0.354,1.404,0.564c0.471,0.211,0.898,0.458,1.282,0.743s0.697,0.68,0.941,1.185c0.244,0.505,0.366,1.095,0.366,1.771
		c0,0.674-0.157,1.269-0.468,1.78c-0.312,0.513-0.699,0.914-1.16,1.206c-0.462,0.292-0.997,0.529-1.608,0.711
		c-0.983,0.307-2.092,0.458-3.327,0.458h-0.529V20.02c2.476,0,4.27-0.492,5.382-1.476c0.624-0.542,0.936-1.201,0.936-1.979
		c0-0.776-0.226-1.399-0.676-1.867c-0.451-0.468-0.997-0.815-1.638-1.043c-0.641-0.227-1.283-0.46-1.928-0.697
		c-0.645-0.237-1.192-0.595-1.643-1.074C104.536,11.407,104.311,10.792,104.311,10.039z"/>
	<path fill="#FFFFFF" d="M118.259,20.752V6.142h0.997l3.561,8.169l3.541-8.169h1.027v14.61h-0.773l0.041-13.379l-3.479,7.987h-0.713
		l-3.479-7.987v13.379H118.259z"/>
	<path fill="#FFFFFF" d="M134.64,20.752v-9.543c0-1.5,0.479-2.729,1.439-3.688c0.959-0.959,2.162-1.439,3.606-1.439
		c1.058,0,1.865,0.39,2.421,1.17v13.501h-0.773v-6.877h-5.921v6.877H134.64z M135.413,13.101h5.921V7.546
		c-0.448-0.461-1.01-0.691-1.689-0.691c-1.221,0-2.231,0.444-3.032,1.333c-0.8,0.888-1.2,1.902-1.2,3.042V13.101z"/>
	<path fill="#FFFFFF" d="M149.453,20.752V6.142c4.653,0.014,6.979,1.411,6.979,4.191c0,2.239-1.225,3.605-3.672,4.101l4.151,6.318
		h-0.936l-4.049-6.186c-0.515,0.068-1.085,0.116-1.708,0.142v6.044H149.453z M150.217,13.875l0.213,0.02
		c3.486-0.054,5.229-1.221,5.229-3.5c0-0.637-0.15-1.168-0.448-1.592c-0.298-0.423-0.634-0.754-1.007-0.992
		c-0.888-0.556-2.218-0.848-3.988-0.875V13.875z"/>
	<path fill="#FFFFFF" d="M161.753,6.936V6.163h7.458v0.773h-3.358v13.816h-0.773V6.936H161.753z"/>
	<path fill="#FFFFFF" d="M175.284,20.752V6.142h0.998l3.56,8.169l3.542-8.169h1.027v14.61h-0.773l0.041-13.379l-3.479,7.987h-0.712
		l-3.48-7.987v13.379H175.284z"/>
	<path fill="#FFFFFF" d="M191.797,20.752V6.163h7.458v0.773h-6.695v5.332h6.695v0.773h-6.695v6.939h6.695v0.772H191.797z"/>
	<path fill="#FFFFFF" d="M205.99,20.813V6.142c1.906,0,3.404,0.285,4.496,0.855c0.943,0.501,1.651,1.244,2.127,2.228
		c0.556,1.146,0.834,2.655,0.834,4.527c0,1.031-0.125,1.971-0.376,2.823c-0.252,0.852-0.589,1.542-1.013,2.07
		c-0.424,0.529-0.962,0.953-1.612,1.272C209.266,20.515,207.78,20.813,205.99,20.813z M206.754,20.02
		c2.251-0.026,3.821-0.671,4.709-1.934c0.808-1.14,1.212-2.661,1.212-4.568c0-4.375-1.975-6.562-5.921-6.562V20.02z"/>
	<path fill="#FFFFFF" d="M220.253,20.752V6.142h0.998l3.56,8.169l3.541-8.169h1.029v14.61h-0.774l0.041-13.379l-3.479,7.987h-0.713
		l-3.479-7.987v13.379H220.253z"/>
	<path fill="#FFFFFF" d="M236.634,20.752v-9.543c0-1.5,0.479-2.729,1.439-3.688c0.96-0.959,2.162-1.439,3.606-1.439
		c1.059,0,1.866,0.39,2.422,1.17v13.501h-0.773v-6.877h-5.922v6.877H236.634z M237.406,13.101h5.922V7.546
		c-0.447-0.461-1.011-0.691-1.688-0.691c-1.221,0-2.232,0.444-3.031,1.333c-0.802,0.888-1.202,1.902-1.202,3.042V13.101z"/>
	<path fill="#FFFFFF" d="M250.135,6.936V6.163h7.457v0.773h-3.356v13.816h-0.774V6.936H250.135z"/>
	<path fill="#FFFFFF" d="M263.158,20.752v-1.811h1.605v1.811H263.158z"/>
	<path fill="#FFFFFF" d="M270.839,10.039c0-1.309,0.364-2.283,1.094-2.92c0.729-0.637,1.601-0.956,2.614-0.956
		c1.015,0,2.125,0.098,3.332,0.295V7.23c-1.085-0.196-2.099-0.295-3.042-0.295c-0.942,0-1.716,0.265-2.32,0.793
		c-0.604,0.529-0.904,1.272-0.904,2.229c0,0.834,0.43,1.458,1.292,1.872c0.387,0.197,0.812,0.378,1.276,0.544
		c0.464,0.166,0.933,0.354,1.403,0.564c0.472,0.211,0.899,0.458,1.282,0.743c0.384,0.285,0.698,0.68,0.941,1.185
		c0.245,0.505,0.366,1.095,0.366,1.771c0,0.674-0.155,1.269-0.469,1.78c-0.312,0.513-0.697,0.914-1.158,1.206
		c-0.462,0.292-0.998,0.529-1.608,0.711c-0.983,0.307-2.093,0.458-3.326,0.458h-0.528V20.02c2.475,0,4.269-0.492,5.381-1.476
		c0.624-0.542,0.937-1.201,0.937-1.979c0-0.776-0.227-1.399-0.678-1.867c-0.45-0.468-0.996-0.815-1.637-1.043
		c-0.642-0.227-1.284-0.46-1.929-0.697c-0.644-0.237-1.192-0.595-1.644-1.074C271.064,11.407,270.839,10.792,270.839,10.039z"/>
	<path fill="#FFFFFF" d="M284.787,20.752V6.163h7.458v0.773h-6.695v5.332h6.695v0.773h-6.695v6.939h6.695v0.772H284.787z"/>
</g>
</svg>
