<?xml version="1.0" encoding="utf-8"?>
<!-- Generator: Adobe Illustrator 15.0.2, SVG Export Plug-In . SVG Version: 6.00 Build 0)  -->
<!DOCTYPE svg PUBLIC "-//W3C//DTD SVG 1.1//EN" "http://www.w3.org/Graphics/SVG/1.1/DTD/svg11.dtd">
<svg version="1.1" id="Lager_1" xmlns="http://www.w3.org/2000/svg" xmlns:xlink="http://www.w3.org/1999/xlink" x="0px" y="0px"
	 width="873.828px" height="266.102px" viewBox="0 0 873.828 266.102" enable-background="new 0 0 873.828 266.102"
	 xml:space="preserve">
<g>
	<path fill="#717274" d="M0,25.437V1.786h1.24v23.649L0,25.437L0,25.437z"/>
	<path fill="#717274" d="M6.186,25.437V8.501h1.257v2.034c1.466-1.577,3.06-2.365,4.78-2.365c1.146,0,2.343,0.54,3.589,1.621
		c0.628,0.584,1.151,1.452,1.57,2.604c0.419,1.152,0.629,2.506,0.629,4.062l-0.033,8.979h-1.257l0.032-8.947
		c0-1.896-0.458-3.551-1.373-4.962c-0.915-1.41-2.054-2.116-3.415-2.116s-2.869,0.938-4.522,2.812v13.215H6.186z"/>
	<path fill="#717274" d="M22.509,25.437V8.501h1.258v2.034c1.466-1.577,3.06-2.365,4.779-2.365c1.146,0,2.344,0.54,3.589,1.621
		c0.629,0.584,1.152,1.452,1.571,2.604c0.419,1.152,0.628,2.506,0.628,4.062l-0.033,8.979h-1.257l0.033-8.947
		c0-1.896-0.458-3.551-1.373-4.962c-0.915-1.41-2.053-2.116-3.414-2.116s-2.87,0.938-4.522,2.812v13.215H22.509z"/>
	<path fill="#717274" d="M38.519,20.441c-0.463-1.112-0.695-2.443-0.695-3.994c0-1.549,0.209-2.898,0.629-4.052
		c0.418-1.151,0.953-2.021,1.604-2.604c1.224-1.081,2.408-1.621,3.556-1.621c1.918,0,3.415,0.562,4.49,1.687
		s1.611,2.613,1.611,4.466c0,1.246-0.011,1.97-0.032,2.167H39.081c0,2.91,0.868,4.927,2.604,6.046
		c1.736,1.118,4.435,1.679,8.096,1.679v1.257c-1.356,0-2.547-0.055-3.573-0.165c-1.025-0.11-2.092-0.354-3.2-0.729
		c-1.107-0.374-2.018-0.88-2.729-1.514C39.569,22.43,38.981,21.556,38.519,20.441z M39.114,15.249h9.345v-0.762
		c0-1.488-0.425-2.707-1.272-3.654c-0.85-0.948-1.969-1.423-3.357-1.423s-2.483,0.549-3.283,1.646
		C39.745,12.153,39.268,13.551,39.114,15.249z"/>
	<path fill="#717274" d="M53.486,25.437V0.033h1.257v10.502c1.488-1.6,3.082-2.403,4.78-2.415c0.926,0,1.863,0.354,2.812,1.059
		c1.985,1.444,2.978,3.87,2.978,7.277l-0.033,8.979h-1.257l0.033-8.947c0-1.896-0.458-3.556-1.373-4.979
		c-0.915-1.422-2.034-2.134-3.357-2.134c-0.86,0-1.646,0.254-2.355,0.761c-0.712,0.508-1.453,1.202-2.226,2.084v13.215
		L53.486,25.437L53.486,25.437z"/>
	<path fill="#717274" d="M69.512,20.441c-0.452-1.112-0.679-2.37-0.679-3.771c0-1.401,0.142-2.604,0.422-3.613
		c0.281-1.01,0.643-1.812,1.083-2.407c0.44-0.595,0.932-1.086,1.473-1.472c0.947-0.694,1.885-1.047,2.812-1.059
		c1.698,0,3.292,0.806,4.78,2.415V8.501h1.257V25.47c-1.355,0-2.542-0.055-3.556-0.165c-1.016-0.11-2.07-0.354-3.167-0.729
		c-1.099-0.374-1.996-0.88-2.696-1.514C70.54,22.43,69.964,21.556,69.512,20.441z M70.091,16.489c0,2.955,0.916,5.012,2.746,6.17
		c1.621,1.015,3.811,1.521,6.566,1.521V12.222c-0.772-0.882-1.513-1.576-2.225-2.084c-0.712-0.507-1.497-0.761-2.356-0.761
		c-1.422,0-2.566,0.626-3.432,1.878C70.523,12.506,70.091,14.251,70.091,16.489z"/>
	<path fill="#717274" d="M83.405,8.501h1.24l5.59,14.9l5.392-14.9h1.257L90.88,25.437h-1.257L83.405,8.501z"/>
	<path fill="#717274" d="M99.117,20.441c-0.452-1.112-0.678-2.37-0.678-3.771c0-1.401,0.141-2.604,0.422-3.613
		c0.281-1.01,0.642-1.812,1.083-2.407c0.439-0.595,0.931-1.086,1.472-1.472c0.948-0.694,1.885-1.047,2.812-1.059
		c1.697,0,3.292,0.806,4.779,2.415V8.501h1.258V25.47c-1.356,0-2.542-0.055-3.557-0.165s-2.069-0.354-3.167-0.729
		c-1.098-0.374-1.996-0.88-2.695-1.514C100.145,22.43,99.569,21.556,99.117,20.441z M99.696,16.489c0,2.955,0.916,5.012,2.746,6.17
		c1.621,1.015,3.81,1.521,6.565,1.521V12.222c-0.771-0.882-1.513-1.576-2.225-2.084c-0.711-0.507-1.497-0.761-2.355-0.761
		c-1.423,0-2.566,0.626-3.433,1.878C100.128,12.506,99.696,14.251,99.696,16.489z"/>
	<path fill="#717274" d="M114.995,25.437V8.501h1.257v2.479c0.475-0.562,1.202-1.166,2.184-1.811
		c0.98-0.646,1.918-0.968,2.812-0.968c0.895,0,1.673,0.254,2.34,0.761s1.012,1.334,1.034,2.479h-1.257
		c0-0.628-0.204-1.124-0.612-1.487s-0.959-0.546-1.653-0.546s-1.547,0.339-2.556,1.018c-1.009,0.678-1.771,1.425-2.291,2.241v12.768
		L114.995,25.437L114.995,25.437z"/>
	<path fill="#717274" d="M127.001,20.441c-0.463-1.112-0.694-2.443-0.694-3.994c0-1.549,0.209-2.898,0.629-4.052
		c0.418-1.151,0.953-2.021,1.604-2.604c1.225-1.081,2.409-1.621,3.557-1.621c1.918,0,3.414,0.562,4.489,1.687
		s1.612,2.613,1.612,4.466c0,1.246-0.011,1.97-0.033,2.167h-10.601c0,2.91,0.868,4.927,2.604,6.046
		c1.737,1.118,4.436,1.679,8.097,1.679v1.257c-1.356,0-2.548-0.055-3.573-0.165c-1.026-0.11-2.092-0.354-3.2-0.729
		c-1.108-0.374-2.018-0.88-2.729-1.514C128.052,22.43,127.464,21.556,127.001,20.441z M127.597,15.249h9.345v-0.762
		c0-1.488-0.425-2.707-1.273-3.654c-0.849-0.948-1.968-1.423-3.356-1.423c-1.39,0-2.484,0.549-3.283,1.646
		C128.228,12.153,127.751,13.551,127.597,15.249z"/>
	<path fill="#717274" d="M141.969,25.437V8.501h1.257v2.034c1.466-1.577,3.06-2.365,4.779-2.365c1.146,0,2.344,0.54,3.59,1.621
		c0.628,0.584,1.151,1.452,1.57,2.604c0.419,1.152,0.628,2.506,0.628,4.062l-0.032,8.979h-1.258l0.033-8.947
		c0-1.896-0.458-3.551-1.373-4.962c-0.915-1.41-2.054-2.116-3.415-2.116s-2.87,0.938-4.522,2.812v13.215H141.969z"/>
	<path fill="#717274" d="M164.859,20.441c-0.452-1.112-0.678-2.37-0.678-3.771c0-1.401,0.141-2.604,0.422-3.613
		c0.28-1.01,0.642-1.812,1.083-2.407c0.439-0.595,0.931-1.086,1.472-1.472c0.948-0.694,1.885-1.047,2.812-1.059
		c1.697,0,3.292,0.806,4.779,2.415V8.501h1.257V25.47c-1.355,0-2.542-0.055-3.556-0.165c-1.015-0.11-2.07-0.354-3.167-0.729
		c-1.098-0.374-1.996-0.88-2.696-1.514C165.887,22.43,165.311,21.556,164.859,20.441z M165.438,16.489
		c0,2.955,0.916,5.012,2.746,6.17c1.621,1.015,3.81,1.521,6.565,1.521V12.222c-0.771-0.882-1.513-1.576-2.225-2.084
		c-0.711-0.507-1.497-0.761-2.356-0.761c-1.422,0-2.565,0.626-3.432,1.878C165.87,12.506,165.438,14.251,165.438,16.489z"/>
	<path fill="#717274" d="M178.751,8.501h1.24l5.59,14.9l5.393-14.9h1.257l-6.003,16.936h-1.257L178.751,8.501z"/>
	<path fill="#717274" d="M201.526,20.441c-0.452-1.112-0.678-2.37-0.678-3.771c0-1.401,0.141-2.604,0.422-3.613
		c0.28-1.01,0.642-1.812,1.083-2.407c0.439-0.595,0.931-1.086,1.472-1.472c0.948-0.694,1.885-1.047,2.812-1.059
		c1.697,0,3.292,0.806,4.779,2.415V0.033h1.257V25.47c-1.355,0-2.542-0.055-3.556-0.165c-1.015-0.11-2.07-0.354-3.167-0.729
		c-1.098-0.374-1.996-0.88-2.696-1.514C202.554,22.43,201.978,21.556,201.526,20.441z M203.478,11.511
		c-0.916,1.423-1.373,2.975-1.373,4.655c0,1.682,0.236,3.044,0.711,4.086c0.474,1.042,1.151,1.844,2.034,2.406
		c1.621,1.015,3.81,1.521,6.565,1.521V12.222c-0.771-0.882-1.513-1.576-2.225-2.084c-0.711-0.507-1.497-0.761-2.356-0.761
		C205.512,9.377,204.393,10.089,203.478,11.511z"/>
	<path fill="#717274" d="M216.957,20.441c-0.463-1.112-0.694-2.443-0.694-3.994c0-1.549,0.209-2.898,0.629-4.052
		c0.418-1.151,0.953-2.021,1.604-2.604c1.225-1.081,2.409-1.621,3.556-1.621c1.919,0,3.415,0.562,4.49,1.687
		s1.612,2.613,1.612,4.466c0,1.246-0.011,1.97-0.033,2.167h-10.601c0,2.91,0.868,4.927,2.604,6.046
		c1.737,1.118,4.436,1.679,8.097,1.679v1.257c-1.356,0-2.548-0.055-3.573-0.165c-1.026-0.11-2.092-0.354-3.2-0.729
		c-1.108-0.374-2.018-0.88-2.729-1.514C218.007,22.43,217.419,21.556,216.957,20.441z M217.552,15.249h9.345v-0.762
		c0-1.488-0.425-2.707-1.273-3.654c-0.849-0.948-1.968-1.423-3.356-1.423c-1.39,0-2.484,0.549-3.283,1.646
		C218.183,12.153,217.706,13.551,217.552,15.249z"/>
	<path fill="#717274" d="M229.625,9.758V8.501h3.903V2.91h1.257v5.591h3.919v1.257h-3.919v15.679h-1.257V9.758H229.625z"/>
	<path fill="#717274" d="M239.301,9.758V8.501h3.903V2.91h1.257v5.591h3.919v1.257h-3.919v15.679h-1.257V9.758H239.301z"/>
	<path fill="#717274" d="M250.332,20.441c-0.452-1.112-0.678-2.37-0.678-3.771c0-1.401,0.141-2.604,0.422-3.613
		c0.281-1.01,0.642-1.812,1.083-2.407c0.44-0.595,0.931-1.086,1.472-1.472c0.948-0.694,1.886-1.047,2.812-1.059
		c1.698,0,3.292,0.806,4.78,2.415V8.501h1.257V25.47c-1.356,0-2.542-0.055-3.557-0.165s-2.069-0.354-3.167-0.729
		c-1.098-0.374-1.996-0.88-2.695-1.514C251.36,22.43,250.784,21.556,250.332,20.441z M250.911,16.489
		c0,2.955,0.916,5.012,2.746,6.17c1.621,1.015,3.81,1.521,6.566,1.521V12.222c-0.772-0.882-1.514-1.576-2.226-2.084
		c-0.711-0.507-1.497-0.761-2.355-0.761c-1.422,0-2.566,0.626-3.433,1.878C251.343,12.506,250.911,14.251,250.911,16.489z"/>
	<path fill="#717274" d="M272.775,20.441c-0.452-1.112-0.678-2.37-0.678-3.771c0-1.401,0.141-2.604,0.422-3.613
		c0.28-1.01,0.642-1.812,1.083-2.407c0.439-0.595,0.931-1.086,1.472-1.472c0.948-0.694,1.885-1.047,2.812-1.059
		c1.697,0,3.292,0.806,4.779,2.415V0.033h1.257V25.47c-1.355,0-2.542-0.055-3.556-0.165c-1.015-0.11-2.07-0.354-3.167-0.729
		c-1.098-0.374-1.996-0.88-2.696-1.514C273.803,22.43,273.228,21.556,272.775,20.441z M274.727,11.511
		c-0.916,1.423-1.373,2.975-1.373,4.655c0,1.682,0.236,3.044,0.711,4.086c0.474,1.042,1.151,1.844,2.034,2.406
		c1.621,1.015,3.81,1.521,6.565,1.521V12.222c-0.771-0.882-1.513-1.576-2.225-2.084c-0.711-0.507-1.497-0.761-2.356-0.761
		C276.761,9.377,275.642,10.089,274.727,11.511z"/>
	<path fill="#717274" d="M288.653,25.437V8.501h1.257v16.936H288.653z M288.719,5.821V2.91h1.257v2.91H288.719z"/>
	<path fill="#717274" d="M294.64,33.904V8.501h1.257v2.034c1.488-1.6,3.082-2.403,4.78-2.415c0.926,0,1.862,0.354,2.812,1.059
		c1.985,1.444,2.977,3.87,2.977,7.277c0,4.023-1.5,6.653-4.499,7.889c-1.532,0.629-3.556,0.992-6.069,1.092v8.468L294.64,33.904
		L294.64,33.904z M295.897,24.18c0.021,0,0.039,0,0.049,0c4.499,0,7.349-1.307,8.551-3.92c0.475-1.036,0.711-2.398,0.711-4.085
		c0-1.688-0.458-3.241-1.373-4.664c-0.915-1.422-2.033-2.134-3.356-2.134c-0.86,0-1.646,0.254-2.356,0.761
		c-0.711,0.508-1.453,1.202-2.225,2.084V24.18L295.897,24.18z"/>
	<path fill="#717274" d="M310.236,25.437V0.066h1.241v25.37L310.236,25.437L310.236,25.437z"/>
	<path fill="#717274" d="M315.23,17.349c0-2.712,0.543-4.92,1.629-6.623c1.085-1.704,2.647-2.556,4.688-2.556s3.575,0.8,4.606,2.397
		c1.031,1.6,1.558,3.518,1.58,5.755c0,1.533-0.149,2.882-0.446,4.045c-0.298,1.163-0.665,2.062-1.1,2.695
		c-0.436,0.634-0.962,1.145-1.58,1.529c-0.959,0.629-1.984,0.943-3.076,0.943c-0.64,0-1.295-0.11-1.968-0.331
		c-0.629-0.198-1.293-0.565-1.993-1.101s-1.265-1.379-1.695-2.531C315.446,20.423,315.23,19.014,315.23,17.349z M316.487,17.415
		c0,1.875,0.383,3.447,1.15,4.722c0.766,1.273,1.916,1.977,3.447,2.109l0.414,0.031l0.364-0.031
		c3.076-0.299,4.614-2.885,4.614-7.758c0-2.007-0.408-3.688-1.225-5.045c-0.815-1.354-2.11-2.033-3.886-2.033
		c-1.146,0-2.105,0.396-2.878,1.19c-1.334,1.4-2.001,3.578-2.001,6.532L316.487,17.415L316.487,17.415z"/>
	<path fill="#717274" d="M331.339,25.437V8.501h1.258v2.034c1.466-1.577,3.06-2.365,4.779-2.365c0.694,0,1.455,0.248,2.282,0.744
		s1.521,1.272,2.084,2.332c1.599-2.052,3.44-3.076,5.524-3.076c1.146,0,2.343,0.54,3.589,1.621c0.628,0.584,1.151,1.452,1.57,2.604
		c0.42,1.152,0.629,2.506,0.629,4.062l-0.033,8.979h-1.257l0.032-8.947c0-1.896-0.458-3.551-1.373-4.962
		c-0.914-1.41-2.033-2.116-3.356-2.116c-0.882,0-1.771,0.307-2.663,0.918s-1.621,1.314-2.183,2.107
		c0.407,1.169,0.611,2.509,0.611,4.021l-0.033,8.979h-1.257l0.033-8.947c0-1.896-0.424-3.551-1.272-4.962
		c-0.85-1.41-1.934-2.116-3.25-2.116c-1.317,0-2.804,0.938-4.457,2.812v13.215H331.339z"/>
	<path fill="#717274" d="M364.417,25.437V0.033h1.257v10.502c1.488-1.6,3.082-2.403,4.78-2.415c0.926,0,1.863,0.354,2.812,1.059
		c1.984,1.444,2.977,3.87,2.977,7.277l-0.033,8.979h-1.257l0.033-8.947c0-1.896-0.458-3.556-1.373-4.979
		c-0.915-1.422-2.034-2.134-3.357-2.134c-0.859,0-1.646,0.254-2.355,0.761c-0.711,0.508-1.453,1.202-2.226,2.084v13.215
		L364.417,25.437L364.417,25.437z"/>
	<path fill="#717274" d="M380.443,20.441c-0.452-1.112-0.678-2.37-0.678-3.771c0-1.401,0.141-2.604,0.422-3.613
		c0.28-1.01,0.642-1.812,1.083-2.407c0.439-0.595,0.931-1.086,1.472-1.472c0.948-0.694,1.885-1.047,2.812-1.059
		c1.697,0,3.292,0.806,4.779,2.415V8.501h1.257V25.47c-1.355,0-2.542-0.055-3.556-0.165c-1.015-0.11-2.07-0.354-3.167-0.729
		c-1.098-0.374-1.996-0.88-2.696-1.514C381.471,22.43,380.895,21.556,380.443,20.441z M381.021,16.489
		c0,2.955,0.916,5.012,2.746,6.17c1.621,1.015,3.81,1.521,6.565,1.521V12.222c-0.771-0.882-1.513-1.576-2.225-2.084
		c-0.711-0.507-1.497-0.761-2.356-0.761c-1.422,0-2.565,0.626-3.432,1.878C381.454,12.506,381.021,14.251,381.021,16.489z"/>
	<path fill="#717274" d="M396.32,25.437V8.501h1.257v2.479c0.474-0.562,1.202-1.166,2.184-1.811c0.98-0.646,1.918-0.968,2.812-0.968
		s1.673,0.254,2.34,0.761s1.011,1.334,1.034,2.479h-1.257c0-0.628-0.204-1.124-0.612-1.487s-0.959-0.546-1.654-0.546
		c-0.693,0-1.546,0.339-2.555,1.018c-1.009,0.678-1.771,1.425-2.291,2.241v12.768L396.32,25.437L396.32,25.437z"/>
	<path fill="#717274" d="M415.373,20.441c-0.452-1.112-0.678-2.37-0.678-3.771c0-1.401,0.141-2.604,0.422-3.613
		c0.281-1.01,0.642-1.812,1.083-2.407c0.44-0.595,0.931-1.086,1.472-1.472c0.948-0.694,1.886-1.047,2.812-1.059
		c1.698,0,3.292,0.806,4.78,2.415V0.033h1.257V25.47c-1.356,0-2.542-0.055-3.556-0.165c-1.016-0.11-2.07-0.354-3.168-0.729
		c-1.098-0.374-1.996-0.88-2.695-1.514C416.401,22.43,415.825,21.556,415.373,20.441z M417.325,11.511
		c-0.916,1.423-1.373,2.975-1.373,4.655c0,1.682,0.237,3.044,0.711,4.086c0.475,1.042,1.152,1.844,2.034,2.406
		c1.621,1.015,3.811,1.521,6.566,1.521V12.222c-0.772-0.882-1.513-1.576-2.226-2.084c-0.711-0.507-1.496-0.761-2.355-0.761
		C419.359,9.377,418.24,10.089,417.325,11.511z"/>
	<path fill="#717274" d="M430.804,20.441c-0.463-1.112-0.695-2.443-0.695-3.994c0-1.549,0.209-2.898,0.629-4.052
		c0.418-1.151,0.953-2.021,1.604-2.604c1.224-1.081,2.408-1.621,3.556-1.621c1.918,0,3.415,0.562,4.49,1.687
		s1.612,2.613,1.612,4.466c0,1.246-0.012,1.97-0.032,2.167h-10.603c0,2.91,0.868,4.927,2.604,6.046
		c1.736,1.118,4.436,1.679,8.096,1.679v1.257c-1.354,0-2.547-0.055-3.572-0.165c-1.024-0.11-2.092-0.354-3.199-0.729
		c-1.108-0.374-2.019-0.88-2.729-1.514S431.267,21.556,430.804,20.441z M431.399,15.249h9.344v-0.762
		c0-1.488-0.424-2.707-1.272-3.654c-0.85-0.948-1.968-1.423-3.357-1.423c-1.389,0-2.483,0.549-3.283,1.646
		S431.553,13.551,431.399,15.249z"/>
	<path fill="#717274" d="M445.921,25.437V0.066h1.239v25.37L445.921,25.437L445.921,25.437z"/>
	<path fill="#717274" d="M449.956,9.758V8.501h3.903V2.91h1.257v5.591h3.92v1.257h-3.92v15.679h-1.257V9.758H449.956z"/>
	<path fill="#717274" d="M460.987,20.441c-0.452-1.112-0.678-2.37-0.678-3.771c0-1.401,0.141-2.604,0.421-3.613
		c0.281-1.01,0.643-1.812,1.084-2.407c0.44-0.595,0.932-1.086,1.472-1.472c0.948-0.694,1.887-1.047,2.812-1.059
		c1.698,0,3.291,0.806,4.78,2.415V8.501h1.257V25.47c-1.356,0-2.542-0.055-3.558-0.165c-1.014-0.11-2.068-0.354-3.167-0.729
		c-1.097-0.374-1.995-0.88-2.694-1.514C462.016,22.429,461.439,21.556,460.987,20.441z M461.566,16.489
		c0,2.955,0.915,5.012,2.745,6.17c1.621,1.015,3.81,1.521,6.566,1.521V12.222c-0.772-0.882-1.515-1.576-2.226-2.084
		c-0.712-0.507-1.497-0.761-2.356-0.761c-1.423,0-2.566,0.626-3.433,1.878C461.999,12.506,461.566,14.251,461.566,16.489z"/>
	<path fill="#717274" d="M475.757,16.456c0-3.407,0.991-5.833,2.977-7.277c0.948-0.694,1.886-1.047,2.812-1.059
		c1.697,0,3.291,0.806,4.779,2.415V8.501h1.257v17.515c0,1.555-0.192,2.913-0.578,4.076c-0.387,1.163-0.871,2.026-1.455,2.589
		c-1.147,1.104-2.288,1.659-3.425,1.67c-1.511,0-2.934-0.634-4.268-1.9v-1.621c1.423,1.511,2.834,2.266,4.234,2.266
		c1.399,0,2.456-0.673,3.167-2.018c0.711-1.347,1.066-3.043,1.066-5.095v-0.546c-4.047-0.153-6.87-1.036-8.469-2.646
		C476.455,21.346,475.757,19.234,475.757,16.456z M478.385,11.511c-0.915,1.423-1.372,2.975-1.372,4.655
		c0,1.682,0.235,3.044,0.711,4.086c0.474,1.042,1.152,1.844,2.034,2.406c1.621,1.015,3.81,1.521,6.565,1.521V12.222
		c-0.771-0.882-1.514-1.576-2.225-2.084c-0.712-0.507-1.497-0.761-2.357-0.761C480.42,9.377,479.301,10.089,478.385,11.511z"/>
	<path fill="#717274" d="M492.312,25.437V8.501h1.257v16.936H492.312z M492.379,5.821V2.91h1.257v2.91H492.379z"/>
	<path fill="#717274" d="M496.231,9.758V8.501h3.903V2.91h1.257v5.591h3.92v1.257h-3.92v15.679h-1.257V9.758H496.231z"/>
	<path fill="#717274" d="M513.861,17.349c0-2.712,0.543-4.92,1.629-6.623c1.086-1.704,2.648-2.556,4.688-2.556
		s3.575,0.8,4.605,2.397c1.03,1.6,1.558,3.518,1.579,5.755c0,1.533-0.147,2.882-0.445,4.045c-0.299,1.163-0.665,2.062-1.101,2.695
		c-0.437,0.634-0.963,1.145-1.58,1.529c-0.959,0.629-1.983,0.943-3.076,0.943c-0.64,0-1.296-0.11-1.968-0.331
		c-0.629-0.198-1.293-0.565-1.993-1.101c-0.699-0.535-1.266-1.379-1.694-2.531C514.076,20.423,513.861,19.014,513.861,17.349z
		 M515.118,17.415c0,1.875,0.383,3.447,1.149,4.722c0.766,1.273,1.915,1.977,3.448,2.109l0.413,0.031l0.363-0.031
		c3.076-0.299,4.614-2.885,4.614-7.758c0-2.007-0.408-3.688-1.224-5.045c-0.816-1.354-2.112-2.033-3.888-2.033
		c-1.146,0-2.105,0.396-2.878,1.19c-1.334,1.4-2.001,3.578-2.001,6.532v0.282H515.118z"/>
	<path fill="#717274" d="M529.805,20.441c-0.452-1.112-0.678-2.443-0.678-3.994c0-1.549,0.209-2.898,0.628-4.052
		c0.419-1.152,0.942-2.021,1.57-2.604c1.246-1.081,2.522-1.621,3.829-1.621c1.308,0,2.503,0.339,3.589,1.018s1.821,1.59,2.208,2.736
		l-1.29-0.032c-0.363-0.75-0.977-1.351-1.836-1.803s-1.765-0.679-2.713-0.679c-1.532,0-2.704,0.684-3.514,2.051
		c-0.812,1.367-1.216,3.043-1.216,5.027c0,2.91,0.855,4.927,2.57,6.046c1.715,1.118,4.393,1.679,8.03,1.679v1.257
		c-1.355,0-2.542-0.055-3.557-0.165c-1.016-0.11-2.075-0.354-3.185-0.729c-1.106-0.374-2.012-0.88-2.712-1.514
		S530.258,21.556,529.805,20.441z"/>
	<path fill="#717274" d="M544.177,25.437V0.033h1.257v10.502c1.488-1.6,3.082-2.403,4.779-2.415c0.927,0,1.862,0.354,2.812,1.059
		c1.985,1.444,2.979,3.87,2.979,7.277l-0.033,8.979h-1.257l0.032-8.947c0-1.896-0.458-3.556-1.372-4.979
		c-0.915-1.422-2.034-2.134-3.357-2.134c-0.86,0-1.646,0.254-2.356,0.761c-0.711,0.508-1.452,1.202-2.225,2.084v13.215
		L544.177,25.437L544.177,25.437z"/>
	<path fill="#717274" d="M566.092,12.09c0-2.613,2.012-3.92,6.036-3.92c0.021,0,0.039,0,0.05,0c1.487,0,3.22,0.153,5.192,0.463
		v1.323c-2.028-0.363-3.734-0.546-5.119-0.546c-1.384,0-2.555,0.197-3.515,0.596c-0.959,0.396-1.438,1.029-1.438,1.896
		s0.047,1.536,0.143,2.007c0.094,0.47,0.641,0.811,1.64,1.022s2.01,0.429,3.028,0.646c1.02,0.217,2.229,0.724,3.627,1.519
		c1.398,0.795,2.099,1.915,2.099,3.361c0,1.653-0.646,2.84-1.936,3.557c-0.629,0.363-1.234,0.652-1.818,0.868
		c-0.586,0.215-1.362,0.354-2.332,0.422c-1.533,0.132-3.006,0.198-4.416,0.198h-0.845v-1.257c2.934,0,5.083-0.18,6.45-0.535
		c1.367-0.356,2.315-0.817,2.845-1.383c0.53-0.566,0.794-1.326,0.794-2.281c0-0.954-0.34-1.701-1.019-2.239
		c-0.68-0.537-1.541-0.896-2.586-1.073c-1.044-0.178-2.091-0.355-3.141-0.537c-1.05-0.181-1.937-0.599-2.657-1.255
		C566.451,14.287,566.092,13.336,566.092,12.09z"/>
	<path fill="#717274" d="M581.488,25.437V0.066h1.24v25.37L581.488,25.437L581.488,25.437z"/>
	<path fill="#717274" d="M587.327,17.481l0.033-8.979h1.257l-0.032,8.946c0,1.896,0.457,3.552,1.373,4.963
		c0.914,1.41,2.053,2.116,3.414,2.116s2.869-0.938,4.523-2.812V8.501h1.257v16.936h-1.257v-2.034
		c-1.467,1.577-3.06,2.365-4.78,2.365c-1.146,0-2.332-0.54-3.556-1.621c-0.65-0.584-1.187-1.452-1.604-2.604
		C587.537,20.391,587.327,19.036,587.327,17.481z"/>
	<path fill="#717274" d="M601.815,9.758V8.501h3.903V2.91h1.257v5.591h3.92v1.257h-3.92v15.679h-1.257V9.758H601.815z"/>
	<path fill="#717274" d="M612.516,9.758V8.501h1.355V8.335c0-1.556,0.189-2.913,0.57-4.076c0.38-1.163,0.879-2.031,1.497-2.605
		C617.063,0.551,618.193,0,619.329,0c0.562,0,0.933,0.011,1.108,0.033V1.29c-0.132-0.022-0.437-0.033-0.909-0.033
		c-1.312,0-2.374,0.7-3.185,2.101s-1.216,3.07-1.216,5.012v0.133h3.241v1.257h-3.241v15.679h-1.257V9.758H612.516z"/>
	<path fill="#717274" d="M619.81,17.349c0-2.712,0.542-4.92,1.626-6.623c1.084-1.704,2.642-2.556,4.673-2.556s3.562,0.8,4.593,2.397
		c1.031,1.599,1.557,3.518,1.578,5.755c0,1.533-0.147,2.882-0.445,4.045c-0.297,1.163-0.662,2.062-1.097,2.695
		s-0.96,1.145-1.575,1.529c-1.527,0.992-3.206,1.196-5.03,0.612c-0.627-0.198-1.289-0.565-1.987-1.101s-1.262-1.379-1.691-2.531
		C620.023,20.423,619.81,19.014,619.81,17.349z M621.066,17.415c0,1.875,0.382,3.447,1.146,4.722
		c0.764,1.274,1.908,1.977,3.437,2.109l0.412,0.031l0.363-0.031c3.064-0.299,4.599-2.885,4.599-7.758
		c0-2.007-0.407-3.688-1.223-5.045c-0.814-1.354-2.108-2.033-3.882-2.033c-1.141,0-2.095,0.396-2.861,1.19
		c-1.327,1.4-1.99,3.578-1.99,6.532L621.066,17.415L621.066,17.415z M622.853,6.334V4.102h1.257v2.232H622.853z M628.593,6.334
		V4.102h1.257v2.232H628.593z"/>
	<path fill="#717274" d="M635.92,25.437V8.501h1.257v2.479c0.474-0.562,1.201-1.166,2.183-1.811
		c0.981-0.646,1.919-0.968,2.812-0.968c0.893,0,1.673,0.254,2.34,0.761s1.012,1.334,1.033,2.479h-1.258
		c0-0.628-0.203-1.124-0.61-1.487c-0.408-0.363-0.96-0.546-1.654-0.546s-1.546,0.339-2.555,1.018
		c-1.01,0.678-1.772,1.425-2.291,2.241v12.768L635.92,25.437L635.92,25.437z"/>
	<path fill="#717274" d="M646.34,9.758V8.501h3.902V2.91h1.257v5.591h3.921v1.257h-3.921v15.679h-1.257V9.758H646.34z"/>
	<path fill="#717274" d="M664.135,1.72h1.29l-0.198,4.614H664.3L664.135,1.72z M669.212,1.72h1.289l-0.197,4.614h-0.909
		L669.212,1.72z"/>
	<path fill="#717274" d="M673.312,8.021c0-2.128,0.593-3.711,1.778-4.747c1.185-1.036,2.602-1.555,4.25-1.555
		c1.647,0,3.454,0.16,5.417,0.479v1.258c-1.766-0.319-3.413-0.479-4.945-0.479c-1.533,0-2.79,0.431-3.771,1.29
		c-0.982,0.86-1.474,2.067-1.474,3.622c0,1.356,0.7,2.371,2.102,3.043c0.629,0.32,1.319,0.615,2.075,0.885
		c0.756,0.271,1.517,0.576,2.282,0.918c0.767,0.343,1.461,0.744,2.084,1.208c0.622,0.463,1.133,1.105,1.529,1.928
		c0.396,0.82,0.596,1.779,0.596,2.877s-0.254,2.062-0.761,2.895c-0.508,0.833-1.136,1.486-1.886,1.96
		c-0.75,0.476-1.621,0.86-2.613,1.158c-1.599,0.496-3.401,0.744-5.408,0.744h-0.858v-1.257c4.023,0,6.939-0.801,8.748-2.398
		c1.015-0.882,1.521-1.954,1.521-3.217s-0.367-2.274-1.101-3.035c-0.734-0.761-1.62-1.325-2.662-1.695
		c-1.042-0.369-2.087-0.746-3.136-1.133c-1.047-0.386-1.938-0.968-2.671-1.745C673.677,10.246,673.312,9.245,673.312,8.021z"/>
	<path fill="#717274" d="M688.909,25.437V8.501h1.258v2.034c1.466-1.577,3.06-2.365,4.778-2.365c0.695,0,1.456,0.248,2.283,0.744
		c0.826,0.496,1.521,1.272,2.083,2.332c1.599-2.052,3.44-3.076,5.524-3.076c1.146,0,2.343,0.54,3.589,1.621
		c0.629,0.584,1.151,1.452,1.57,2.604c0.419,1.152,0.628,2.506,0.628,4.062l-0.031,8.979h-1.257l0.031-8.947
		c0-1.896-0.457-3.551-1.372-4.962c-0.916-1.41-2.034-2.116-3.356-2.116c-0.883,0-1.771,0.307-2.663,0.918
		c-0.894,0.611-1.621,1.314-2.184,2.107c0.407,1.169,0.611,2.509,0.611,4.021l-0.033,8.979h-1.257l0.033-8.947
		c0-1.896-0.425-3.551-1.273-4.962c-0.85-1.41-1.933-2.116-3.25-2.116c-1.316,0-2.803,0.938-4.457,2.812v13.215H688.909z"/>
	<path fill="#717274" d="M714.825,20.441c-0.452-1.112-0.678-2.37-0.678-3.771c0-1.401,0.141-2.604,0.421-3.613
		c0.281-1.01,0.644-1.812,1.084-2.407c0.44-0.595,0.933-1.086,1.472-1.472c0.948-0.694,1.887-1.047,2.812-1.059
		c1.698,0,3.291,0.806,4.78,2.415V8.501h1.257V25.47c-1.356,0-2.542-0.055-3.557-0.165s-2.069-0.354-3.167-0.729
		c-1.098-0.374-1.995-0.88-2.695-1.514S715.277,21.556,714.825,20.441z M715.404,16.489c0,2.955,0.915,5.012,2.745,6.17
		c1.621,1.015,3.811,1.521,6.566,1.521V12.222c-0.772-0.882-1.515-1.576-2.226-2.084c-0.712-0.507-1.497-0.761-2.356-0.761
		c-1.422,0-2.566,0.626-3.433,1.878C715.838,12.506,715.404,14.251,715.404,16.489z"/>
	<path fill="#717274" d="M730.702,25.437V8.501h1.258v2.479c0.474-0.562,1.2-1.166,2.183-1.811c0.981-0.646,1.919-0.968,2.812-0.968
		c0.894,0,1.674,0.254,2.341,0.761s1.012,1.334,1.032,2.479h-1.257c0-0.628-0.204-1.124-0.61-1.487
		c-0.408-0.363-0.961-0.546-1.654-0.546c-0.694,0-1.546,0.339-2.555,1.018c-1.011,0.678-1.772,1.425-2.291,2.241v12.768
		L730.702,25.437L730.702,25.437z"/>
	<path fill="#717274" d="M741.122,9.758V8.501h3.903V2.91h1.257v5.591h3.92v1.257h-3.92v15.679h-1.257V9.758H741.122z"/>
	<path fill="#717274" d="M759.728,25.437V8.501h1.257v2.034c1.466-1.577,3.061-2.365,4.779-2.365c0.695,0,1.456,0.248,2.283,0.744
		c0.826,0.496,1.521,1.272,2.083,2.332c1.599-2.052,3.439-3.076,5.523-3.076c1.146,0,2.343,0.54,3.589,1.621
		c0.629,0.584,1.152,1.452,1.571,2.604c0.419,1.152,0.628,2.506,0.628,4.062l-0.032,8.979h-1.257l0.032-8.947
		c0-1.896-0.457-3.551-1.372-4.962c-0.916-1.41-2.034-2.116-3.357-2.116c-0.883,0-1.77,0.307-2.662,0.918
		c-0.894,0.611-1.621,1.314-2.184,2.107c0.407,1.169,0.611,2.509,0.611,4.021l-0.033,8.979h-1.257l0.033-8.947
		c0-1.896-0.426-3.551-1.273-4.962c-0.85-1.41-1.933-2.116-3.25-2.116s-2.803,0.938-4.457,2.812v13.215H759.728z"/>
	<path fill="#717274" d="M785.628,20.441c-0.464-1.112-0.694-2.443-0.694-3.994c0-1.549,0.209-2.898,0.628-4.052
		c0.419-1.152,0.954-2.021,1.604-2.604c1.225-1.081,2.409-1.621,3.557-1.621c1.919,0,3.415,0.562,4.49,1.687
		c1.074,1.125,1.612,2.613,1.612,4.466c0,1.246-0.012,1.97-0.032,2.167h-10.603c0,2.91,0.868,4.927,2.604,6.046
		c1.735,1.118,4.436,1.679,8.096,1.679v1.257c-1.355,0-2.547-0.055-3.572-0.165s-2.092-0.354-3.2-0.729
		c-1.107-0.374-2.018-0.88-2.729-1.514S786.091,21.556,785.628,20.441z M786.223,15.249h9.344v-0.762
		c0-1.488-0.424-2.707-1.272-3.654c-0.85-0.948-1.969-1.423-3.357-1.423s-2.483,0.549-3.282,1.646
		C786.854,12.153,786.378,13.551,786.223,15.249z"/>
	<path fill="#717274" d="M800.298,20.441c-0.452-1.112-0.679-2.37-0.679-3.771c0-1.401,0.142-2.604,0.421-3.613
		c0.281-1.01,0.644-1.812,1.084-2.407c0.44-0.595,0.933-1.086,1.473-1.472c0.948-0.694,1.886-1.047,2.812-1.059
		c1.698,0,3.291,0.806,4.78,2.415V0.033h1.257V25.47c-1.355,0-2.542-0.055-3.557-0.165c-1.014-0.11-2.069-0.354-3.167-0.729
		c-1.097-0.374-1.995-0.88-2.695-1.514S800.749,21.556,800.298,20.441z M802.248,11.511c-0.915,1.423-1.372,2.975-1.372,4.655
		c0,1.682,0.236,3.044,0.712,4.086c0.474,1.042,1.151,1.844,2.033,2.406c1.621,1.015,3.811,1.521,6.566,1.521V12.222
		c-0.772-0.882-1.514-1.576-2.225-2.084c-0.712-0.507-1.497-0.761-2.357-0.761C804.282,9.377,803.163,10.089,802.248,11.511z"/>
	<path fill="#717274" d="M823.254,25.437V1.687h1.62l5.788,13.281l5.757-13.281h1.67v23.75h-1.258l0.066-21.749l-5.656,12.983
		h-1.158l-5.655-12.983v21.749H823.254z"/>
	<path fill="#717274" d="M842.719,20.441c-0.452-1.112-0.678-2.37-0.678-3.771c0-1.401,0.141-2.604,0.421-3.613
		c0.28-1.01,0.643-1.812,1.084-2.407c0.439-0.595,0.932-1.086,1.472-1.472c0.948-0.694,1.886-1.047,2.812-1.059
		c1.698,0,3.291,0.806,4.78,2.415V8.501h1.257V25.47c-1.355,0-2.542-0.055-3.557-0.165c-1.014-0.11-2.069-0.354-3.167-0.729
		c-1.097-0.374-1.995-0.88-2.695-1.514C843.749,22.429,843.172,21.556,842.719,20.441z M843.299,16.489
		c0,2.955,0.915,5.012,2.745,6.17c1.62,1.015,3.81,1.521,6.565,1.521V12.222c-0.771-0.882-1.514-1.576-2.225-2.084
		c-0.712-0.507-1.497-0.761-2.357-0.761c-1.422,0-2.565,0.626-3.432,1.878C843.73,12.506,843.299,14.251,843.299,16.489z"/>
	<path fill="#717274" d="M856.529,9.758V8.501h3.903V2.91h1.257v5.591h3.92v1.257h-3.92v15.679h-1.257V9.758H856.529z"/>
	<path fill="#717274" d="M867.462,1.72h1.289l-0.197,4.614h-0.928L867.462,1.72z M872.538,1.72h1.29l-0.197,4.614h-0.909
		L872.538,1.72z"/>
</g>
<g>
	<g>
		<g>
			<path fill="#3E3D3F" d="M608.047,106.565c0.012-0.512-0.044-1.162,0.016-2.053c0.085-1.38,0.729-5.11-0.228-5.497
				c-0.953-0.389-10.493,1.477-10.44,2.194c0.048,0.717,2.898,1.9,4.171,2.784C604.213,105.837,608.026,107.833,608.047,106.565z"/>
		</g>
		<polygon fill="#3E3D3F" points="632.714,98.838 625.405,98.173 617.956,98.409 619.06,93.196 621.109,88.326 627.518,85.052 
			633.193,80.812 631.634,75.257 629.398,75.554 622.26,75.97 615.598,79.181 613.74,84.719 611.52,89.947 611.823,95.767 
			611.355,101.51 611.065,107.105 611.457,106.594 615.734,105.522 621.678,102.281 628.382,103.596 633.696,105.229 
			638.486,107.237 632.937,106.751 627.144,105.309 621.333,106.788 615.948,108.528 610.558,110.045 605.177,109.362 
			600.566,106.285 595.113,103.056 589.665,99.702 583.397,98.365 576.965,97.761 571.109,99.87 565.114,101.373 559.991,104.82 
			555.504,108.992 551.77,113.784 549.82,119.362 555.615,122.292 562.144,123.782 568.836,122.907 575.551,123.254 
			579.341,127.449 581.562,132.946 583.435,138.585 584.698,139.948 587.252,139.467 587.469,138.006 585.1,130.372 
			581.258,122.938 586.957,125.924 591.74,129.702 598.067,129.814 603.606,125.248 609.877,121.475 617.168,120.74 
			623.747,120.102 618.721,125.428 618.679,133.092 619.24,135.157 621.187,133.985 621.933,132.436 623.161,124.848 
			629.475,120.95 635.675,122.095 641.797,124.096 647.62,124.513 655.17,122.28 662.189,120.211 660.03,114.322 655.882,109.401 
			650.191,106.422 644.782,103.06 638.881,100.587 		"/>
		<g>
			<path fill="#3E3D3F" d="M628.328,188.792l-1.399,0.205l-0.928,4.662c-0.106,0.551-0.466,0.873-1.035,0.959l-0.456,0.068
				c-0.556,0.084-0.979-0.119-1.239-0.619l-2.273-4.178l-1.4,0.209l2.367,4.391c0.587,1.084,1.527,1.518,2.861,1.32l0.167-0.021
				c1.33-0.201,2.104-0.898,2.345-2.109L628.328,188.792z"/>
			<path fill="#3E3D3F" d="M637.008,193.984l-2.361-4.391c-0.588-1.082-1.527-1.521-2.865-1.322l-0.177,0.029
				c-1.336,0.197-2.105,0.895-2.351,2.104l-0.989,4.893l1.403-0.211l0.934-4.662c0.104-0.551,0.465-0.875,1.03-0.959l0.476-0.068
				c0.547-0.084,0.972,0.125,1.233,0.617l1.025,1.887l-3.342,0.502l-0.148,1.191l4.078-0.609l0.656,1.207L637.008,193.984z"/>
			<path fill="#3E3D3F" d="M660.246,190.609l-6.001,0.9l-0.984-6.549l6.003-0.902c0.51-0.078,0.979,0.027,1.436,0.324
				c0.452,0.295,0.718,0.699,0.794,1.195l0.438,2.924c0.083,0.537-0.046,1.008-0.368,1.393
				C661.227,190.288,660.785,190.529,660.246,190.609z M654.412,191.282l5.806-0.871c0.49-0.072,0.888-0.287,1.185-0.645
				c0.29-0.342,0.403-0.76,0.331-1.234l-0.441-2.926c-0.066-0.445-0.298-0.793-0.704-1.055c-0.411-0.27-0.834-0.367-1.295-0.297
				l-5.809,0.873L654.412,191.282z M651.509,191.921l-5.633,0.846l-0.2-1.346l5.633-0.842c0.387-0.059,0.536-0.23,0.487-0.551
				l-0.124-0.82l-4.562,0.686c-0.536,0.078-1.023-0.018-1.453-0.287c-0.429-0.283-0.692-0.695-0.771-1.234l-0.317-2.107l1.396-0.207
				l0.314,2.104c0.05,0.328,0.253,0.455,0.63,0.402l4.565-0.688l-0.39-2.59l1.396-0.207l0.71,4.74
				c0.081,0.527-0.048,0.996-0.381,1.391C652.477,191.601,652.04,191.839,651.509,191.921z M646.043,192.538l5.438-0.814
				c0.482-0.07,0.877-0.287,1.172-0.646c0.298-0.344,0.412-0.766,0.342-1.234l-0.684-4.541l-1.002,0.148l0.39,2.592l-4.758,0.713
				c-0.485,0.076-0.79-0.131-0.855-0.562l-0.29-1.912l-1.001,0.148l0.286,1.916c0.071,0.475,0.302,0.838,0.688,1.09
				c0.386,0.252,0.813,0.334,1.312,0.258l4.764-0.711l0.148,1.012c0.045,0.309-0.03,0.689-0.655,0.781l-5.433,0.814L646.043,192.538
				z M643.139,193.177l-5.005,0.752l-0.199-1.334l5.001-0.75c0.142-0.021,0.253-0.084,0.369-0.203
				c0.099-0.113,0.139-0.223,0.117-0.357l-0.048-0.328c-0.049-0.328-0.246-0.445-0.629-0.387l-3.777,0.557
				c-0.538,0.078-1.027-0.018-1.448-0.287c-0.435-0.283-0.697-0.693-0.776-1.225l-0.048-0.314c-0.076-0.502,0.062-0.961,0.408-1.375
				c0.344-0.408,0.771-0.656,1.276-0.732l5.281-0.789l0.203,1.33l-5.284,0.795c-0.145,0.02-0.256,0.084-0.359,0.205
				c-0.107,0.121-0.145,0.23-0.127,0.355l0.048,0.316c0.048,0.326,0.243,0.445,0.627,0.387l3.776-0.557
				c0.539-0.082,1.025,0.01,1.44,0.281c0.44,0.283,0.707,0.701,0.787,1.229l0.05,0.324c0.077,0.514-0.061,0.977-0.41,1.377
				C644.063,192.863,643.647,193.101,643.139,193.177z M638.302,193.697l4.805-0.717c0.464-0.07,0.838-0.287,1.152-0.662
				c0.313-0.363,0.432-0.758,0.364-1.217l-0.05-0.326c-0.071-0.479-0.299-0.832-0.7-1.094c-0.366-0.24-0.812-0.322-1.296-0.246
				l-3.781,0.555c-0.621,0.092-0.808-0.252-0.852-0.555l-0.045-0.318c-0.031-0.184,0.024-0.354,0.168-0.514
				c0.141-0.156,0.29-0.246,0.479-0.277l5.089-0.762l-0.14-0.938l-5.086,0.762c-0.462,0.068-0.838,0.287-1.148,0.662
				c-0.317,0.371-0.436,0.773-0.369,1.217l0.048,0.316c0.073,0.471,0.301,0.834,0.688,1.084c0.382,0.248,0.815,0.332,1.315,0.26
				l3.776-0.557c0.622-0.096,0.808,0.248,0.853,0.557l0.048,0.318c0.03,0.195-0.027,0.367-0.169,0.533
				c-0.144,0.15-0.301,0.232-0.479,0.262l-4.81,0.719L638.302,193.697z M660.074,189.462l-4.812,0.723l-0.643-4.271l4.815-0.719
				c0.19-0.027,0.36,0.01,0.542,0.123c0.183,0.111,0.286,0.26,0.311,0.441l0.441,2.926
				C660.775,188.99,660.699,189.372,660.074,189.462z M655.427,189.96l4.619-0.695c0.387-0.057,0.536-0.229,0.486-0.553l-0.438-2.92
				c-0.02-0.129-0.089-0.227-0.224-0.305c-0.138-0.086-0.267-0.117-0.408-0.094l-4.614,0.691L655.427,189.96z"/>
			<path fill="#3E3D3F" d="M665.14,186.068c1.182-0.182,1.987-1.275,1.813-2.455c-0.091-0.586-0.408-1.078-0.851-1.406l-1.731-1.279
				l-1.271,1.723c-0.335,0.445-0.492,1.014-0.403,1.604C662.872,185.429,663.969,186.24,665.14,186.068 M663.959,183.288
				l0.636-0.857l0.869,0.635c0.218,0.164,0.378,0.414,0.423,0.707c0.086,0.592-0.315,1.139-0.906,1.225
				c-0.588,0.088-1.133-0.318-1.221-0.904C663.715,183.798,663.795,183.511,663.959,183.288"/>
			<path fill="#3E3D3F" d="M663.427,174.63c-1.18,0.178-1.987,1.271-1.808,2.447c0.085,0.59,0.408,1.082,0.849,1.414l1.729,1.275
				l1.272-1.721c0.335-0.445,0.492-1.02,0.403-1.609C665.7,175.261,664.599,174.454,663.427,174.63 M664.611,177.407l-0.634,0.861
				l-0.871-0.645c-0.221-0.162-0.377-0.41-0.422-0.707c-0.088-0.586,0.312-1.131,0.904-1.219c0.587-0.09,1.135,0.316,1.22,0.902
				C664.859,176.896,664.777,177.179,664.611,177.407"/>
			<path fill="#3E3D3F" d="M670.004,179.491c-0.177-1.176-1.273-1.988-2.448-1.811c-0.589,0.09-1.085,0.406-1.41,0.852l-1.284,1.727
				l1.726,1.273c0.443,0.33,1.015,0.494,1.608,0.4C669.371,181.761,670.178,180.665,670.004,179.491 M667.229,180.671l-0.863-0.637
				l0.638-0.865c0.166-0.221,0.416-0.379,0.707-0.424c0.591-0.088,1.136,0.316,1.224,0.904c0.087,0.592-0.315,1.135-0.906,1.225
				C667.736,180.919,667.453,180.841,667.229,180.671"/>
			<path fill="#3E3D3F" d="M658.571,181.208c0.176,1.172,1.27,1.982,2.445,1.805c0.591-0.084,1.083-0.404,1.411-0.848l1.279-1.727
				l-1.724-1.275c-0.442-0.332-1.015-0.496-1.607-0.406C659.201,178.933,658.389,180.029,658.571,181.208 M661.341,180.019
				l0.867,0.639l-0.644,0.867c-0.161,0.221-0.413,0.379-0.707,0.424c-0.586,0.09-1.133-0.316-1.219-0.908
				c-0.091-0.584,0.313-1.135,0.904-1.221C660.837,179.773,661.118,179.857,661.341,180.019"/>
		</g>
		<polygon fill="#3E3D3F" points="658.009,205.835 652.413,203.554 645.965,202.962 639.448,202.712 633.37,200.224 
			631.776,199.152 629.039,198.782 629.454,200.718 634.287,204.288 640.391,206.521 646.918,206.47 652.948,207.99 
			647.309,210.763 641.061,213.392 634.957,216.493 628.298,218.316 621.172,217.402 614.026,217.031 607.336,214.507 
			600.587,213.152 593.699,214.417 586.564,214.937 579.546,214.669 574.012,212.956 568.401,211.368 563.838,208.394 
			570.344,205.681 577.431,204.163 584.632,202.835 590.349,198.542 592.142,195.657 591.26,193.765 588.299,194.259 
			587.059,196.204 586.795,197.585 580.368,200.298 573.483,202.038 566.547,203.779 560.665,206.552 561.61,212.581 
			566.04,217.388 571.243,221.228 577.029,224.048 582.724,227.152 588.901,229.134 595.297,230.202 601.639,231.693 
			608.126,232.198 614.623,231.845 621.288,230.857 627.735,229.116 634.056,226.95 639.83,223.579 645.808,220.484 651.43,216.667 
			655.923,211.568 		"/>
		<g>
			<path fill="#3E3D3F" d="M553.847,154.015l2.525,16.48l-4.81,0.734l-2.524-16.477l-5.035,0.768l-0.706-4.612l14.877-2.281
				l0.706,4.616L553.847,154.015z"/>
			<path fill="#3E3D3F" d="M558.454,170.177l4.267-22.471l3.291-0.506l10.751,20.168l-5.119,0.787l-2.411-4.838l-4.78,0.73
				l-0.851,5.338L558.454,170.177z M565.639,155.833l-0.455,3.408l1.884-0.285L565.639,155.833z"/>
			<path fill="#3E3D3F" d="M581.636,144.516c2.419-0.372,4.703-0.462,6.356-0.027l0.765,4.981c-3.139-0.761-4.872-0.58-6.414-0.342
				c-2.845,0.434-3.431,3.143-2.839,7.025c0.595,3.879,1.97,6.289,4.814,5.857c1.548-0.238,3.249-0.592,6.018-2.25l0.763,4.979
				c-1.442,0.91-3.653,1.512-6.076,1.883c-6.58,1.004-9.377-3.17-10.381-9.725C573.636,150.346,575.058,145.528,581.636,144.516z"/>
			<path fill="#3E3D3F" d="M597.891,155.929l-1.041,1.684l1.005,6.525l-4.726,0.719l-3.23-21.089l4.723-0.724l1.235,8.069
				l5.037-9.032l6.298-0.963l-6.707,10.697l10.644,10.285l-6.327,0.971L597.891,155.929z"/>
			<path fill="#3E3D3F" d="M626.552,150.987l-7.732,1.185l1.311,8.549l-4.782,0.736l-3.233-21.094l13.359-2.051l0.707,4.617
				l-8.577,1.311l0.503,3.292l7.735-1.187L626.552,150.987z"/>
			<path fill="#3E3D3F" d="M637.952,158.507c-7.343,1.123-9.174-4.262-10.016-9.776c-0.85-5.512-0.714-11.202,6.631-12.328
				c7.361-1.126,9.173,4.266,10.016,9.775C645.426,151.693,645.318,157.378,637.952,158.507z M630.232,130.675
				c1.491-0.228,2.851,0.772,3.081,2.264c0.234,1.521-0.77,2.852-2.263,3.082c-1.519,0.233-2.847-0.744-3.08-2.262
				C627.742,132.27,628.715,130.909,630.232,130.675z M635.274,141.015c-3.014,0.463-3.13,2.692-2.474,6.969
				c0.654,4.279,1.436,6.377,4.446,5.91c3.009-0.459,3.126-2.689,2.466-6.969C639.061,142.654,638.282,140.556,635.274,141.015z
				 M636.982,129.644c1.493-0.228,2.853,0.768,3.08,2.262c0.235,1.515-0.771,2.854-2.265,3.083c-1.518,0.23-2.845-0.747-3.077-2.269
				C634.49,131.234,635.464,129.874,636.982,129.644z"/>
			<path fill="#3E3D3F" d="M652.636,155.738l-4.749,0.73l-3.233-21.093l7.2-1.103c5.709-0.875,7.864,1.386,8.482,5.404
				c0.401,2.616,0.073,4.6-1.862,6.043l6.059,8.195l-5.706,0.877l-5.093-7.309l-2.304,0.352L652.636,155.738z M650.716,143.194
				l2.787-0.423c1.912-0.293,2.028-1.206,1.86-2.334c-0.17-1.091-0.557-1.898-2.466-1.603l-2.78,0.423L650.716,143.194z"/>
			<path fill="#3E3D3F" d="M574.375,189.816l-3.373,0.514l-4.864-7.682l1.792,10.746l-4.725,0.725l-3.233-21.094l4.946-0.754
				l6.685,10.713l3.159-12.229l4.949-0.758l3.233,21.094l-4.721,0.723l-1.516-10.82L574.375,189.816z"/>
			<path fill="#3E3D3F" d="M583.985,190.931l4.272-22.475l3.289-0.498l10.746,20.168l-5.116,0.783l-2.41-4.836l-4.781,0.734
				l-0.849,5.338L583.985,190.931z M591.171,176.591l-0.452,3.41l1.883-0.289L591.171,176.591z"/>
			<path fill="#3E3D3F" d="M606.096,170.677l2.521,16.479l-4.806,0.74l-2.523-16.48l-5.033,0.768l-0.705-4.607l14.874-2.281
				l0.708,4.609L606.096,170.677z"/>
			<path fill="#3E3D3F" d="M626.549,175.663l-7.986,1.221l0.604,3.939l8.8-1.354l0.707,4.613l-13.529,2.072l-3.232-21.094
				l13.528-2.068l0.706,4.607l-8.804,1.348l0.507,3.293l7.988-1.225L626.549,175.663z"/>
			<path fill="#3E3D3F" d="M642.538,181.956l-9.024-10.242l1.798,11.35l-4.669,0.717l-3.235-21.092l3.744-0.574l9.024,10.244
				l-1.798-11.35l4.667-0.717l3.235,21.092L642.538,181.956z"/>
			<path fill="#3E3D3F" d="M650.159,174.745l-3.346-15.033l5.29-0.807l1.317,15.34L650.159,174.745z M651.949,175.564
				c1.491-0.227,2.857,0.773,3.083,2.266c0.232,1.516-0.773,2.848-2.262,3.076c-1.521,0.236-2.85-0.742-3.08-2.26
				C649.46,177.156,650.432,175.794,651.949,175.564z"/>
		</g>
	</g>
	<g>
		<path fill="#3E3D3F" d="M252.115,169.988l-7.738-0.027l-8.798,24.489c-1.021,2.892-3.228,4.345-6.376,4.351l-2.527-0.006
			c-3.078,0.017-5.205-1.432-6.211-4.35l-8.92-24.446l-7.744-0.006l9.256,25.681c2.299,6.339,7.045,9.45,14.42,9.46l0.92,0.016
			c7.365-0.005,12.121-3.152,14.398-9.518L252.115,169.988z"/>
		<path fill="#3E3D3F" d="M294.894,205.112l-9.225-25.676c-2.309-6.338-7.039-9.476-14.44-9.481l-0.979,0.017
			c-7.392-0.011-12.128,3.138-14.432,9.486l-9.311,25.681l7.767-0.01l8.824-24.474c1.011-2.902,3.224-4.366,6.355-4.36l2.629,0.021
			c3.024-0.016,5.152,1.454,6.179,4.329l4.019,11.042l-18.491,0.017l-1.764,6.328h22.564l2.576,7.07L294.894,205.112z"/>
		<path fill="#3E3D3F" d="M423.405,205.647l-33.21,0.016l-0.027-36.247l33.227-0.027c2.823-0.016,5.281,0.941,7.509,2.919
			c2.208,1.961,3.314,4.366,3.325,7.113l0.011,16.179c0.011,2.977-1.074,5.408-3.121,7.242
			C428.979,204.7,426.387,205.647,423.405,205.647z M391.289,204.561l32.132-0.005c2.704-0.006,5.023-0.845,6.927-2.533
			c1.854-1.614,2.8-3.789,2.789-6.413l-0.021-16.194c0.006-2.464-0.972-4.532-2.955-6.275c-2.009-1.795-4.216-2.667-6.771-2.661
			l-32.143,0.021L391.289,204.561z M375.058,205.673l-31.181,0.027l0.012-7.446h31.169c2.139-0.005,3.083-0.822,3.083-2.586
			l-0.011-4.538l-25.248,0.016c-2.96-0.016-5.52-0.924-7.626-2.73c-2.09-1.887-3.185-4.329-3.174-7.312l-0.011-11.656l7.722,0.005
			v11.641c0.011,1.817,1.01,2.673,3.089,2.688l25.265-0.027l-0.011-14.333l7.718,0.01l0.006,26.227
			c0.021,2.923-1.059,5.355-3.191,7.226C380.558,204.722,377.996,205.662,375.058,205.673z M344.967,204.599l30.091-0.016
			c2.672,0.011,4.977-0.845,6.867-2.556c1.898-1.613,2.849-3.805,2.844-6.396l-0.021-25.137l-5.537-0.005v14.345l-26.322,0.006
			c-2.683,0.021-4.169-1.342-4.173-3.73l-0.021-10.588l-5.543-0.011l0.006,10.604c-0.006,2.624,0.951,4.783,2.837,6.451
			c1.887,1.684,4.132,2.475,6.895,2.464l26.36,0.016l-0.017,5.596c-0.011,1.705-0.728,3.698-4.19,3.693l-30.059,0.011
			L344.967,204.599z M328.737,205.705l-27.695,0.021v-7.386l27.674-0.011c0.785-0.005,1.438-0.256,2.164-0.808
			c0.625-0.528,0.931-1.084,0.926-1.832l0.01-1.812c-0.005-1.822-0.982-2.618-3.1-2.603l-20.897-0.054
			c-2.972-0.01-5.542-0.924-7.601-2.715c-2.127-1.887-3.217-4.318-3.217-7.258V179.5c-0.011-2.773,1.111-5.146,3.318-7.108
			c2.197-1.939,4.703-2.929,7.499-2.934l29.229,0.005l0.027,7.359l-29.252,0.026c-0.796-0.005-1.447,0.252-2.111,0.824
			c-0.679,0.571-0.961,1.133-0.973,1.822v1.753c0,1.801,0.963,2.608,3.079,2.592l20.897,0.048c2.982-0.005,5.537,0.877,7.568,2.688
			c2.158,1.887,3.26,4.361,3.26,7.285l0.011,1.796c0,2.838-1.112,5.237-3.335,7.124
			C333.995,204.753,331.548,205.705,328.737,205.705z M302.136,204.599l26.59,0.011c2.565-0.011,4.763-0.877,6.767-2.651
			c1.998-1.71,2.949-3.752,2.96-6.296l-0.011-1.807c0.006-2.645-0.94-4.74-2.896-6.483c-1.79-1.598-4.137-2.404-6.819-2.378
			l-20.919-0.059c-3.432,0-4.164-2.021-4.158-3.693l0.021-1.764c-0.027-1.015,0.412-1.887,1.32-2.641
			c0.887-0.731,1.77-1.09,2.816-1.11l28.166-0.011v-5.185l-28.145,0.01c-2.555-0.005-4.768,0.872-6.75,2.651
			c-2.021,1.754-2.988,3.832-2.982,6.285v1.753c0.016,2.614,0.956,4.757,2.838,6.43c1.871,1.646,4.152,2.459,6.916,2.464
			l20.893,0.048c3.447-0.016,4.168,1.989,4.163,3.704v1.759c0.005,1.085-0.438,1.961-1.348,2.747c-0.897,0.7-1.817,1.021-2.8,1.036
			l-26.616-0.011L302.136,204.599z M423.405,199.302l-26.621,0.006l-0.026-23.64l26.647,0.011c1.048,0.011,1.94,0.348,2.827,1.111
			c0.894,0.749,1.337,1.631,1.326,2.636l0.021,16.194C427.579,197.309,426.859,199.313,423.405,199.302z M397.848,198.239
			l25.562-0.026c2.139,0,3.089-0.808,3.078-2.608l-0.011-16.151c0.005-0.722-0.299-1.305-0.962-1.828
			c-0.668-0.583-1.347-0.86-2.138-0.845l-25.53,0.011V198.239z"/>
		<path fill="#3E3D3F" d="M453.569,185.027c6.553-0.026,11.791-5.302,11.807-11.822c-0.012-3.25-1.33-6.173-3.469-8.3l-8.343-8.333
			l-8.268,8.296c-2.175,2.148-3.476,5.098-3.484,8.358C441.806,179.736,447.102,185,453.569,185.027 M449.427,169.026l4.131-4.132
			l4.196,4.142c1.053,1.063,1.71,2.55,1.71,4.169c-0.005,3.271-2.624,5.906-5.896,5.9c-3.249-0.005-5.863-2.641-5.879-5.885
			C447.695,171.585,448.364,170.094,449.427,169.026"/>
		<path fill="#3E3D3F" d="M453.558,121.731c-6.531,0.005-11.784,5.274-11.763,11.785c-0.021,3.26,1.335,6.184,3.441,8.337
			l8.332,8.305l8.28-8.289c2.169-2.138,3.479-5.12,3.489-8.386C465.355,126.979,460.047,121.725,453.558,121.731 M457.722,137.722
			l-4.137,4.153l-4.18-4.201c-1.075-1.058-1.722-2.522-1.722-4.169c-0.005-3.238,2.614-5.868,5.885-5.862
			c3.25-0.011,5.885,2.635,5.874,5.874C459.475,135.152,458.797,136.616,457.722,137.722"/>
		<path fill="#3E3D3F" d="M485.22,153.365c-0.011-6.51-5.286-11.795-11.785-11.778c-3.261,0.005-6.205,1.313-8.327,3.462
			l-8.342,8.306l8.305,8.295c2.132,2.143,5.094,3.495,8.386,3.469C479.956,165.134,485.21,159.854,485.22,153.365 M469.246,157.502
			l-4.152-4.142l4.146-4.175c1.073-1.058,2.555-1.71,4.169-1.721c3.271,0.011,5.9,2.635,5.889,5.89
			c-0.005,3.265-2.618,5.884-5.894,5.895C471.79,159.255,470.319,158.609,469.246,157.502"/>
		<path fill="#3E3D3F" d="M421.956,153.408c-0.006,6.478,5.26,11.758,11.77,11.741c3.271,0.021,6.188-1.314,8.327-3.441l8.311-8.311
			l-8.289-8.295c-2.128-2.158-5.088-3.516-8.37-3.506C427.199,141.597,421.92,146.871,421.956,153.408 M437.905,149.207l4.174,4.158
			l-4.185,4.174c-1.047,1.063-2.539,1.721-4.163,1.721c-3.25,0.012-5.88-2.629-5.869-5.899c-0.027-3.239,2.608-5.891,5.88-5.88
			C435.377,147.465,436.825,148.15,437.905,149.207"/>
	</g>
</g>
</svg>
