<?xml version="1.0" encoding="utf-8"?>
<!-- Generator: Adobe Illustrator 15.0.2, SVG Export Plug-In . SVG Version: 6.00 Build 0)  -->
<!DOCTYPE svg PUBLIC "-//W3C//DTD SVG 1.1//EN" "http://www.w3.org/Graphics/SVG/1.1/DTD/svg11.dtd">
<svg version="1.1" id="Lager_1" xmlns="http://www.w3.org/2000/svg" xmlns:xlink="http://www.w3.org/1999/xlink" x="0px" y="0px"
	 width="114.778px" height="117.861px" viewBox="0 0 114.778 117.861" enable-background="new 0 0 114.778 117.861"
	 xml:space="preserve">
<g>
	<g>
		
			<path fill="#E39D7E" stroke="#E39D7E" stroke-width="1.0718" stroke-linecap="round" stroke-linejoin="round" stroke-miterlimit="10" d="
			M98.159,6.616V0.699H16.781v16.033c0,23.687,14.922,43.311,34.416,46.824v35.26H32.824v18.346h49.293V98.816H63.744v-35.26
			C76.268,61.3,86.896,52.385,92.902,40.022c0.353,0.016,0.707,0.023,1.063,0.023c11.18,0,20.276-7.581,20.276-16.896
			C114.242,15.029,107.334,8.231,98.159,6.616z M95.629,33.197c1.634-5.129,2.53-10.674,2.53-16.465v-3.212
			c5.402,1.328,9.32,5.14,9.32,9.629C107.479,28.313,102.297,32.578,95.629,33.197z"/>
		<g>
			<path fill="#CC7452" d="M16.781,0.699v5.919C7.606,8.231,0.699,15.029,0.699,23.149c0,9.315,9.096,16.896,20.275,16.896
				c0.356,0,0.71-0.008,1.062-0.023c6.006,12.363,16.636,21.277,29.16,23.534v35.26H32.824v18.346H57.47v-7.46V0.699H16.781z
				 M7.462,23.149c0-4.489,3.916-8.301,9.318-9.629v3.212c0,5.79,0.897,11.336,2.53,16.465C12.643,32.578,7.462,28.313,7.462,23.149
				z"/>
			<path fill="#CC7452" d="M58.169,0v117.162v0.699h-0.7H32.824c-0.387,0-0.7-0.313-0.7-0.699V98.816c0-0.386,0.312-0.699,0.7-0.699
				h17.672V64.138c-12.191-2.4-22.674-10.888-28.887-23.401c-0.211,0.007-0.421,0.009-0.635,0.009C9.409,40.745,0,32.853,0,23.149
				C0,15.037,6.729,7.918,16.082,6.037V0.699C16.082,0.313,16.394,0,16.781,0H57.47H58.169z M33.522,116.463h23.249V1.398H17.48
				v5.22c0,0.337-0.245,0.629-0.578,0.688C7.917,8.887,1.398,15.549,1.398,23.149c0,8.931,8.782,16.197,19.576,16.197
				c0.348,0,0.691-0.008,1.033-0.021c0.279-0.007,0.538,0.143,0.659,0.392c6.087,12.528,16.53,20.968,28.654,23.152
				c0.333,0.06,0.576,0.35,0.576,0.688v35.26c0,0.387-0.313,0.699-0.699,0.699H33.522V116.463z M19.311,33.896
				c-0.021,0-0.043-0.001-0.065-0.004C12.13,33.233,6.763,28.614,6.763,23.149c0-4.718,3.959-8.86,9.851-10.308
				c0.208-0.052,0.429-0.004,0.598,0.129c0.169,0.133,0.269,0.336,0.269,0.55v3.212c0,5.578,0.839,11.047,2.497,16.254
				c0.071,0.222,0.024,0.466-0.123,0.649C19.721,33.802,19.521,33.896,19.311,33.896z M16.082,14.438
				c-4.773,1.457-7.92,4.876-7.92,8.711c0,4.475,4.301,8.31,10.163,9.222c-1.488-5.029-2.243-10.286-2.243-15.639V14.438z"/>
		</g>
		<rect x="42.183" y="101.36" fill="#FFFFFF" width="37.193" height="13.397"/>
		<rect x="36.961" y="101.36" fill="#F5F5F6" width="21.208" height="13.397"/>
	</g>
	<g>
		<polygon fill="#FFD703" points="58.213,103.223 59.8,106.438 63.347,106.953 60.779,109.455 61.385,112.988 58.213,111.32 
			55.041,112.988 55.646,109.455 53.079,106.953 56.625,106.438 		"/>
		<polygon fill="#FFD703" points="58.213,103.223 59.8,106.438 63.347,106.953 60.779,109.455 61.385,112.988 58.213,111.32 
			55.041,112.988 55.646,109.455 53.079,106.953 56.625,106.438 		"/>
		<polygon fill="#FBC106" points="58.213,103.223 56.625,106.438 53.079,106.953 55.646,109.455 55.041,112.988 58.213,111.32 		"/>
	</g>
</g>
</svg>
