<?xml version="1.0" encoding="utf-8"?>
<!-- Generator: Adobe Illustrator 15.0.2, SVG Export Plug-In . SVG Version: 6.00 Build 0)  -->
<!DOCTYPE svg PUBLIC "-//W3C//DTD SVG 1.1//EN" "http://www.w3.org/Graphics/SVG/1.1/DTD/svg11.dtd">
<svg version="1.1" id="Lager_1" xmlns="http://www.w3.org/2000/svg" xmlns:xlink="http://www.w3.org/1999/xlink" x="0px" y="0px"
	 width="80.205px" height="81.244px" viewBox="0 0 80.205 81.244" enable-background="new 0 0 80.205 81.244" xml:space="preserve">
<g>
	<circle fill="#F4F3E2" cx="40.103" cy="41.659" r="39.103"/>
	<circle fill="none" stroke="#368E5C" stroke-width="2" stroke-miterlimit="10" cx="40.103" cy="41.14" r="39.103"/>
	<g>
		<defs>
			<path id="SVGID_1_" d="M1,40.654C1,19.325,18.233,2.94,39.561,2.94c21.329,0,38.627,16.624,38.627,37.952
				c0,21.328-17.242,38.379-38.571,38.379C18.289,79.271,1,61.981,1,40.654z"/>
		</defs>
		<clipPath id="SVGID_2_">
			<use xlink:href="#SVGID_1_"  overflow="visible"/>
		</clipPath>
		<path clip-path="url(#SVGID_2_)" fill="#F2F1F1" d="M32.009,81.702V37.814h49.718c0,0-0.867,24.217-11.633,34.023
			C57.468,83.337,32.009,81.702,32.009,81.702z"/>
	</g>
	<g>
		<polygon fill="#F2BE9B" points="20.817,66.378 22.538,62.358 19.096,62.358 		"/>
		<rect x="19.096" y="19.585" fill="#FFD505" width="3.442" height="42.773"/>
		<polygon fill="#58585A" points="20.817,66.378 19.982,64.432 21.651,64.432 		"/>
		<rect x="19.096" y="18.322" fill="#C5C6C8" width="3.442" height="1.264"/>
		<rect x="19.096" y="15.9" fill="#E15C59" width="3.442" height="2.421"/>
		<rect x="19.096" y="19.585" fill="#F9C008" width="1.722" height="42.773"/>
		<rect x="19.097" y="18.322" fill="#B1B1B2" width="1.721" height="1.264"/>
		<rect x="19.097" y="15.9" fill="#D45653" width="1.721" height="2.421"/>
	</g>
	
		<path fill="#D63938" stroke="#D63938" stroke-width="0.3833" stroke-linecap="round" stroke-linejoin="round" stroke-miterlimit="10" d="
		M46.535,28.725c0,0,0,0-6.433-7.958c-6.432,7.958-6.432,7.958-6.432,7.958V0.191h12.864V28.725z"/>
	<g>
		<defs>
			<circle id="SVGID_3_" cx="39.561" cy="40.599" r="38.561"/>
		</defs>
		<clipPath id="SVGID_4_">
			<use xlink:href="#SVGID_3_"  overflow="visible"/>
		</clipPath>
		<path clip-path="url(#SVGID_4_)" fill="#E8E7E8" d="M60.186,76.282v-31.64H31.776v36.16
			C31.776,80.803,47.844,84.878,60.186,76.282z"/>
	</g>
	<path fill="#58585A" d="M78.021,44.722H31.649v-7.163h46.36C78.01,37.559,78.573,40.855,78.021,44.722z"/>
	<rect x="31.649" y="37.559" fill="#3F3E40" width="28.808" height="7.163"/>
</g>
</svg>
