<?xml version="1.0" encoding="utf-8"?>
<!-- Generator: Adobe Illustrator 15.0.2, SVG Export Plug-In . SVG Version: 6.00 Build 0)  -->
<!DOCTYPE svg PUBLIC "-//W3C//DTD SVG 1.1//EN" "http://www.w3.org/Graphics/SVG/1.1/DTD/svg11.dtd">
<svg version="1.1" id="Lager_1" xmlns="http://www.w3.org/2000/svg" xmlns:xlink="http://www.w3.org/1999/xlink" x="0px" y="0px"
	 width="114.779px" height="117.86px" viewBox="0 0 114.779 117.86" enable-background="new 0 0 114.779 117.86"
	 xml:space="preserve">
<g>
	<g>
		
			<path fill="#ECECED" stroke="#ECECED" stroke-width="1.0718" stroke-linecap="round" stroke-linejoin="round" stroke-miterlimit="10" d="
			M98.16,6.615V0.699H16.782v16.032c0,23.687,14.922,43.312,34.415,46.824v35.26H32.824v18.346h49.293V98.815H63.745v-35.26
			C76.269,61.3,86.899,52.385,92.903,40.021c0.353,0.016,0.707,0.024,1.063,0.024c11.18,0,20.276-7.581,20.276-16.898
			C114.243,15.029,107.335,8.23,98.16,6.615z M95.631,33.196c1.633-5.129,2.529-10.674,2.529-16.465V13.52
			c5.403,1.328,9.32,5.139,9.32,9.628C107.48,28.312,102.298,32.578,95.631,33.196z"/>
		<g>
			<path fill="#D9DADB" d="M16.782,0.699v5.917C7.607,8.23,0.7,15.029,0.7,23.147c0,9.317,9.096,16.898,20.275,16.898
				c0.356,0,0.711-0.009,1.062-0.024C28.043,52.385,38.673,61.3,51.197,63.556v35.26H32.824v18.346h24.647v-7.459V0.699H16.782z
				 M7.462,23.147c0-4.489,3.916-8.3,9.32-9.628v3.212c0,5.791,0.896,11.336,2.529,16.465C12.645,32.578,7.462,28.312,7.462,23.147z
				"/>
			<path fill="#D9DADB" d="M58.171,0v117.161v0.699h-0.699H32.824c-0.386,0-0.699-0.313-0.699-0.699V98.815
				c0-0.386,0.313-0.699,0.699-0.699h17.674V64.137c-12.192-2.399-22.675-10.888-28.888-23.4c-0.212,0.005-0.422,0.008-0.635,0.008
				C9.41,40.744,0,32.852,0,23.147c0-8.111,6.729-15.23,16.081-17.11V0.699C16.081,0.312,16.395,0,16.782,0h40.689H58.171z
				 M33.523,116.462h23.248V1.398H17.48v5.218c0,0.339-0.245,0.63-0.579,0.688C7.918,8.886,1.398,15.549,1.398,23.147
				c0,8.933,8.782,16.199,19.577,16.199c0.347,0,0.69-0.009,1.032-0.023c0.28-0.006,0.537,0.144,0.659,0.393
				c6.086,12.527,16.53,20.967,28.655,23.151c0.332,0.061,0.573,0.353,0.573,0.688v35.26c0,0.388-0.312,0.699-0.698,0.699H33.523
				V116.462z M19.312,33.896c-0.022,0-0.044-0.001-0.065-0.002c-7.116-0.661-12.481-5.28-12.481-10.746
				c0-4.718,3.959-8.858,9.85-10.306c0.209-0.052,0.429-0.005,0.599,0.128c0.169,0.132,0.268,0.336,0.268,0.55v3.212
				c0,5.579,0.839,11.047,2.496,16.253c0.071,0.224,0.025,0.468-0.121,0.65C19.722,33.8,19.521,33.896,19.312,33.896z
				 M16.081,14.436c-4.771,1.459-7.918,4.878-7.918,8.712c0,4.476,4.299,8.312,10.163,9.224c-1.489-5.031-2.245-10.285-2.245-15.64
				V14.436z"/>
		</g>
		<rect x="42.184" y="101.359" fill="#FFFFFF" width="37.192" height="13.397"/>
		<rect x="36.963" y="101.359" fill="#F5F5F6" width="21.208" height="13.397"/>
	</g>
	<g>
		<polygon fill="#FFD703" points="52.158,103.39 53.745,106.604 57.292,107.12 54.724,109.622 55.33,113.155 52.158,111.487 
			48.986,113.155 49.591,109.622 47.024,107.12 50.57,106.604 		"/>
		<polygon fill="#FFD703" points="52.158,103.39 53.745,106.604 57.292,107.12 54.724,109.622 55.33,113.155 52.158,111.487 
			48.986,113.155 49.591,109.622 47.024,107.12 50.57,106.604 		"/>
		<polygon fill="#FBC106" points="52.158,103.39 50.57,106.604 47.024,107.12 49.591,109.622 48.986,113.155 52.158,111.487 		"/>
	</g>
	<g>
		<polygon fill="#FFD703" points="64.184,103.39 65.771,106.604 69.317,107.12 66.75,109.622 67.355,113.155 64.184,111.487 
			61.012,113.155 61.616,109.622 59.05,107.12 62.596,106.604 		"/>
		<polygon fill="#FFD703" points="64.184,103.39 65.771,106.604 69.317,107.12 66.75,109.622 67.355,113.155 64.184,111.487 
			61.012,113.155 61.616,109.622 59.05,107.12 62.596,106.604 		"/>
		<polygon fill="#FBC106" points="64.184,103.39 62.596,106.604 59.05,107.12 61.616,109.622 61.012,113.155 64.184,111.487 		"/>
	</g>
</g>
</svg>
