<?xml version="1.0" encoding="utf-8"?>
<!-- Generator: Adobe Illustrator 15.0.2, SVG Export Plug-In . SVG Version: 6.00 Build 0)  -->
<!DOCTYPE svg PUBLIC "-//W3C//DTD SVG 1.1//EN" "http://www.w3.org/Graphics/SVG/1.1/DTD/svg11.dtd">
<svg version="1.1" id="Lager_1" xmlns="http://www.w3.org/2000/svg" xmlns:xlink="http://www.w3.org/1999/xlink" x="0px" y="0px"
	 width="334.981px" height="27.341px" viewBox="0 0 334.981 27.341" enable-background="new 0 0 334.981 27.341"
	 xml:space="preserve">
<g>
	
		<polygon fill="#D83939" stroke="#D83939" stroke-width="0.2527" stroke-linecap="round" stroke-linejoin="round" stroke-miterlimit="10" points="
		334.855,0.126 214.573,0.126 200.68,0.126 130.941,0.126 117.293,0.126 0.126,0.126 9.765,13.785 0.126,27.215 117.293,27.215 
		130.941,27.215 200.68,27.215 214.573,27.215 334.855,27.215 325.217,13.785 	"/>
	<g>
		<path fill="#FFFFFF" d="M109.458,19.34c0.695-0.603,1.044-1.337,1.044-2.203c0-0.865-0.252-1.557-0.754-2.075
			c-0.502-0.518-1.109-0.904-1.82-1.16c-0.711-0.255-1.426-0.513-2.145-0.776c-0.719-0.263-1.33-0.661-1.832-1.194
			c-0.502-0.533-0.753-1.217-0.753-2.052c0-1.453,0.405-2.535,1.217-3.247c0.812-0.711,1.781-1.066,2.91-1.066
			c1.128,0,2.365,0.108,3.71,0.324v0.858c-1.206-0.216-2.334-0.325-3.386-0.325s-1.913,0.294-2.585,0.881
			c-0.672,0.588-1.008,1.415-1.008,2.481c0,0.928,0.478,1.624,1.437,2.087c0.433,0.217,0.908,0.417,1.426,0.603
			s1.04,0.394,1.565,0.626c0.526,0.232,1.001,0.506,1.426,0.823c0.425,0.317,0.773,0.758,1.044,1.322
			c0.27,0.564,0.405,1.222,0.405,1.972c0,0.749-0.174,1.41-0.521,1.982c-0.348,0.572-0.777,1.02-1.287,1.344
			c-0.51,0.326-1.105,0.589-1.786,0.789c-1.098,0.34-2.334,0.51-3.709,0.51h-0.581v-0.857
			C106.226,20.986,108.221,20.438,109.458,19.34z"/>
		<path fill="#FFFFFF" d="M123.324,21.798l0.047-14.887l-3.873,8.881h-0.789l-3.872-8.881v14.887h-0.812V5.543h1.113l3.965,9.09
			l3.942-9.09h1.136v16.255H123.324z"/>
		<path fill="#FFFFFF" d="M135.869,6.772v15.026h-0.858v-7.652h-6.585v7.652h-0.858V11.177c0-1.669,0.533-3.038,1.6-4.104
			c1.066-1.067,2.404-1.6,4.012-1.6C134.354,5.473,135.25,5.906,135.869,6.772z M135.011,13.288V7.096
			c-0.495-0.51-1.121-0.765-1.878-0.765c-1.36,0-2.485,0.495-3.374,1.484c-0.889,0.99-1.333,2.119-1.333,3.386v2.087H135.011z"/>
		<path fill="#FFFFFF" d="M147.649,21.798h-1.043l-4.499-6.887c-0.572,0.077-1.206,0.131-1.901,0.162v6.725h-0.858V5.543
			c5.179,0.015,7.768,1.569,7.768,4.661c0,2.489-1.36,4.011-4.081,4.568L147.649,21.798z M140.206,14.146l0.231,0.023
			c3.88-0.061,5.82-1.36,5.82-3.896c0-0.71-0.167-1.302-0.499-1.774c-0.333-0.471-0.707-0.838-1.125-1.101
			c-0.989-0.619-2.465-0.943-4.428-0.974V14.146z"/>
		<path fill="#FFFFFF" d="M152.286,21.798h-0.857V6.424h-3.71V5.566h8.301v0.857h-3.734V21.798z"/>
		<path fill="#FFFFFF" d="M172.089,21.798l0.047-14.887l-3.872,8.881h-0.789l-3.872-8.881v14.887h-0.812V5.543h1.113l3.966,9.09
			l3.941-9.09h1.135v16.255H172.089z"/>
		<path fill="#FFFFFF" d="M176.472,21.798V5.566h8.302v0.857h-7.444v5.937h7.444v0.858h-7.444v7.721h7.444v0.858H176.472z"/>
		<path fill="#FFFFFF" d="M195.88,14.006c0,1.145-0.139,2.191-0.417,3.142s-0.653,1.721-1.125,2.308s-1.07,1.059-1.797,1.415
			c-1.313,0.664-2.968,0.996-4.962,0.996V5.543c2.117,0,3.787,0.317,5.008,0.95c1.051,0.557,1.84,1.384,2.365,2.481
			C195.571,10.242,195.88,11.919,195.88,14.006z M195.022,13.751c0-4.869-2.196-7.305-6.586-7.305v14.54
			c2.505-0.031,4.252-0.75,5.24-2.156C194.574,17.562,195.022,15.869,195.022,13.751z"/>
		<path fill="#FFFFFF" d="M212.762,21.798l0.047-14.887l-3.873,8.881h-0.789l-3.872-8.881v14.887h-0.812V5.543h1.112l3.966,9.09
			l3.942-9.09h1.136v16.255H212.762z"/>
		<path fill="#FFFFFF" d="M225.306,6.772v15.026h-0.857v-7.652h-6.586v7.652h-0.857V11.177c0-1.669,0.533-3.038,1.6-4.104
			c1.066-1.067,2.403-1.6,4.012-1.6C223.791,5.473,224.688,5.906,225.306,6.772z M224.448,13.288V7.096
			c-0.495-0.51-1.121-0.765-1.879-0.765c-1.359,0-2.485,0.495-3.373,1.484c-0.889,0.99-1.334,2.119-1.334,3.386v2.087H224.448z"/>
		<path fill="#FFFFFF" d="M231.892,21.798h-0.857V6.424h-3.71V5.566h8.301v0.857h-3.733V21.798z"/>
	</g>
</g>
<g>
	<g opacity="0.5">
		<path fill="#020304" d="M69.899,11.706h0.439l1.623,5.28l1.547-5.28h0.449l1.615,5.275l1.551-5.275h0.439l-1.765,6H75.36
			l-1.623-5.259l-1.547,5.259h-0.446L69.899,11.706z"/>
		<path fill="#020304" d="M77.903,11.706h0.439l1.623,5.28l1.547-5.28h0.449l1.615,5.275l1.551-5.275h0.439l-1.765,6h-0.438
			l-1.623-5.259l-1.547,5.259h-0.446L77.903,11.706z"/>
		<path fill="#020304" d="M85.907,11.706h0.439l1.623,5.28l1.547-5.28h0.449l1.615,5.275l1.551-5.275h0.439l-1.765,6h-0.438
			l-1.623-5.259l-1.547,5.259h-0.446L85.907,11.706z"/>
		<path fill="#020304" d="M94.11,17.706v-1.043h0.926v1.043H94.11z"/>
	</g>
	<g opacity="0.5">
		<path fill="#020304" d="M242.834,17.706v-1.043h0.926v1.043H242.834z"/>
		<path fill="#020304" d="M244.768,12.977c0-0.926,0.713-1.389,2.139-1.389c0.008,0,0.014,0,0.018,0c0.527,0,1.141,0.055,1.84,0.164
			v0.469c-0.719-0.129-1.323-0.193-1.813-0.193s-0.905,0.07-1.245,0.211s-0.51,0.365-0.51,0.672c0,0.308,0.017,0.544,0.05,0.711
			c0.034,0.167,0.228,0.287,0.581,0.363c0.354,0.075,0.712,0.152,1.073,0.229c0.361,0.077,0.79,0.256,1.285,0.538
			c0.495,0.281,0.743,0.679,0.743,1.191c0,0.586-0.229,1.006-0.686,1.26c-0.223,0.129-0.438,0.231-0.645,0.308
			s-0.482,0.126-0.826,0.149c-0.543,0.047-1.064,0.07-1.564,0.07h-0.299v-0.445c1.039,0,1.801-0.063,2.285-0.189
			s0.82-0.29,1.008-0.49s0.281-0.47,0.281-0.808c0-0.339-0.121-0.604-0.361-0.794s-0.546-0.317-0.916-0.38s-0.74-0.126-1.112-0.19
			s-0.686-0.212-0.941-0.444S244.768,13.418,244.768,12.977z"/>
		<path fill="#020304" d="M250.059,15.937c-0.164-0.395-0.246-0.867-0.246-1.416s0.074-1.027,0.223-1.436s0.338-0.716,0.568-0.923
			c0.434-0.383,0.854-0.574,1.26-0.574c0.68,0,1.21,0.199,1.591,0.598s0.571,0.926,0.571,1.582c0,0.441-0.004,0.697-0.012,0.768
			h-3.756c0,1.032,0.308,1.746,0.923,2.142s1.571,0.595,2.868,0.595v0.445c-0.48,0-0.902-0.02-1.266-0.059s-0.741-0.125-1.134-0.258
			s-0.715-0.312-0.967-0.536S250.223,16.331,250.059,15.937z M250.27,14.096h3.311v-0.27c0-0.527-0.15-0.959-0.451-1.295
			s-0.697-0.504-1.189-0.504s-0.88,0.194-1.163,0.583S250.324,13.495,250.27,14.096z"/>
	</g>
</g>
</svg>
