<?xml version="1.0" encoding="utf-8"?>
<!-- Generator: Adobe Illustrator 15.0.2, SVG Export Plug-In . SVG Version: 6.00 Build 0)  -->
<!DOCTYPE svg PUBLIC "-//W3C//DTD SVG 1.1//EN" "http://www.w3.org/Graphics/SVG/1.1/DTD/svg11.dtd">
<svg version="1.1" id="Lager_1" xmlns="http://www.w3.org/2000/svg" xmlns:xlink="http://www.w3.org/1999/xlink" x="0px" y="0px"
	 width="528.923px" height="20.671px" viewBox="0 0 528.923 20.671" enable-background="new 0 0 528.923 20.671"
	 xml:space="preserve">
<g>
	<g>
		<path fill="#3E3D3F" d="M14.802,15.146c-1.017-1.456-1.524-3.556-1.524-6.299s0.504-4.903,1.513-6.48S17.202,0,19.002,0
			c1.072,0,1.986,0.276,2.74,0.829c0.755,0.553,1.313,1.301,1.677,2.245c0.646,1.734,0.968,3.691,0.968,5.869
			c0,4.479-1.214,7.173-3.643,8.084c0.282,0.791,0.666,1.442,1.149,1.955c0.484,0.512,1.033,0.769,1.646,0.769
			c0.25,0,0.516-0.041,0.799-0.121v0.92c-0.331,0.08-0.646,0.121-0.944,0.121c-0.613,0-1.263-0.285-1.948-0.854
			c-0.686-0.569-1.21-1.422-1.573-2.56c-0.299,0.049-0.613,0.072-0.944,0.072C17.194,17.33,15.818,16.603,14.802,15.146z
			 M14.197,8.871c0,2.904,0.661,5.047,1.984,6.426c0.742,0.743,1.666,1.113,2.771,1.113c0.823,0,1.541-0.211,2.154-0.635
			s1.085-0.999,1.416-1.725c0.629-1.404,0.943-3.253,0.943-5.549c0-2.295-0.387-4.133-1.161-5.513
			C21.531,1.61,20.419,0.92,18.972,0.92c-1.448,0-2.606,0.69-3.474,2.069C14.631,4.369,14.197,6.33,14.197,8.871z"/>
		<path fill="#3E3D3F" d="M27.376,11.473V0.121h0.92v11.328c0,1.686,0.343,2.967,1.028,3.842c0.686,0.876,1.521,1.313,2.506,1.313
			c0.983,0,1.814-0.434,2.492-1.301s1.017-2.152,1.017-3.854V0.121h0.92v11.352c0,1.904-0.381,3.389-1.144,4.454
			c-0.763,1.064-1.878,1.598-3.346,1.598c-1.469,0-2.568-0.587-3.298-1.762C27.741,14.589,27.376,13.159,27.376,11.473z"/>
		<path fill="#3E3D3F" d="M39.926,17.476V0.17h0.907v17.306H39.926z"/>
		<path fill="#3E3D3F" d="M42.964,17.476l7.212-16.435h-6.39v-0.92h7.782L44.38,16.556h7.467v0.92H42.964z"/>
		<path fill="#3E3D3F" d="M57.752,3.195V2.288l4.635-2.167v17.354h-0.919V1.513L57.752,3.195z"/>
	</g>
	<circle fill="#3E3D3F" cx="1.874" cy="9.782" r="1.874"/>
	<circle fill="#3E3D3F" cx="74.848" cy="9.782" r="1.875"/>
	<g>
		<path fill="#3E3D3F" d="M238.631,15.146c-1.017-1.456-1.524-3.556-1.524-6.299s0.504-4.903,1.513-6.48S241.031,0,242.831,0
			c1.072,0,1.986,0.276,2.74,0.829c0.755,0.553,1.313,1.301,1.677,2.245c0.646,1.734,0.968,3.691,0.968,5.869
			c0,4.479-1.214,7.173-3.643,8.084c0.282,0.791,0.666,1.442,1.149,1.955c0.484,0.512,1.033,0.769,1.646,0.769
			c0.25,0,0.516-0.041,0.799-0.121v0.92c-0.331,0.08-0.646,0.121-0.944,0.121c-0.613,0-1.263-0.285-1.948-0.854
			c-0.686-0.569-1.21-1.422-1.573-2.56c-0.299,0.049-0.613,0.072-0.944,0.072C241.023,17.33,239.647,16.603,238.631,15.146z
			 M238.026,8.871c0,2.904,0.661,5.047,1.984,6.426c0.742,0.743,1.666,1.113,2.771,1.113c0.823,0,1.541-0.211,2.154-0.635
			s1.085-0.999,1.416-1.725c0.629-1.404,0.943-3.253,0.943-5.549c0-2.295-0.387-4.133-1.161-5.513
			c-0.774-1.379-1.887-2.069-3.334-2.069c-1.448,0-2.606,0.69-3.474,2.069C238.46,4.369,238.026,6.33,238.026,8.871z"/>
		<path fill="#3E3D3F" d="M251.205,11.473V0.121h0.92v11.328c0,1.686,0.343,2.967,1.028,3.842c0.686,0.876,1.521,1.313,2.506,1.313
			c0.983,0,1.814-0.434,2.492-1.301s1.017-2.152,1.017-3.854V0.121h0.92v11.352c0,1.904-0.381,3.389-1.144,4.454
			c-0.763,1.064-1.878,1.598-3.346,1.598c-1.469,0-2.568-0.587-3.298-1.762C251.57,14.589,251.205,13.159,251.205,11.473z"/>
		<path fill="#3E3D3F" d="M263.755,17.476V0.17h0.907v17.306H263.755z"/>
		<path fill="#3E3D3F" d="M266.792,17.476l7.213-16.435h-6.39v-0.92h7.781l-7.188,16.435h7.467v0.92H266.792z"/>
		<path fill="#3E3D3F" d="M281.532,17.476l6.619-9.173c0.363-0.509,0.64-0.904,0.829-1.187s0.384-0.663,0.581-1.144
			c0.197-0.479,0.297-0.926,0.297-1.337c0-1.138-0.363-2.021-1.09-2.65c-0.726-0.63-1.569-0.944-2.529-0.944
			s-2.251,0.521-3.872,1.562V1.707c1.452-1.057,2.8-1.586,4.042-1.586s2.275,0.418,3.098,1.253c0.823,0.835,1.234,1.89,1.234,3.165
			c0,1.274-0.447,2.529-1.343,3.764l-5.942,8.253h7.491v0.92H281.532z"/>
	</g>
	<circle fill="#3E3D3F" cx="226.61" cy="9.782" r="1.874"/>
	<circle fill="#3E3D3F" cx="301.583" cy="9.782" r="1.875"/>
	<g>
		<path fill="#3E3D3F" d="M463.994,15.146c-1.017-1.456-1.525-3.556-1.525-6.299s0.504-4.903,1.513-6.48S466.394,0,468.193,0
			c1.073,0,1.986,0.276,2.741,0.829c0.754,0.553,1.312,1.301,1.676,2.245c0.646,1.734,0.968,3.691,0.968,5.869
			c0,4.479-1.214,7.173-3.643,8.084c0.282,0.791,0.666,1.442,1.15,1.955c0.483,0.512,1.032,0.769,1.646,0.769
			c0.25,0,0.517-0.041,0.799-0.121v0.92c-0.331,0.08-0.646,0.121-0.944,0.121c-0.613,0-1.263-0.285-1.948-0.854
			c-0.686-0.569-1.21-1.422-1.573-2.56c-0.299,0.049-0.613,0.072-0.944,0.072C466.386,17.33,465.011,16.603,463.994,15.146z
			 M463.389,8.871c0,2.904,0.661,5.047,1.984,6.426c0.742,0.743,1.666,1.113,2.771,1.113c0.823,0,1.541-0.211,2.154-0.635
			s1.085-0.999,1.416-1.725c0.629-1.404,0.944-3.253,0.944-5.549c0-2.295-0.388-4.133-1.162-5.513
			c-0.774-1.379-1.886-2.069-3.334-2.069s-2.606,0.69-3.474,2.069C463.822,4.369,463.389,6.33,463.389,8.871z"/>
		<path fill="#3E3D3F" d="M476.567,11.473V0.121h0.92v11.328c0,1.686,0.343,2.967,1.028,3.842c0.686,0.876,1.521,1.313,2.505,1.313
			s1.815-0.434,2.493-1.301s1.017-2.152,1.017-3.854V0.121h0.92v11.352c0,1.904-0.381,3.389-1.144,4.454
			c-0.763,1.064-1.878,1.598-3.347,1.598c-1.468,0-2.567-0.587-3.298-1.762C476.933,14.589,476.567,13.159,476.567,11.473z"/>
		<path fill="#3E3D3F" d="M489.117,17.476V0.17h0.908v17.306H489.117z"/>
		<path fill="#3E3D3F" d="M492.155,17.476l7.213-16.435h-6.39v-0.92h7.781l-7.188,16.435h7.467v0.92H492.155z"/>
		<path fill="#3E3D3F" d="M507.138,15.019l1.197-0.023c0.823,1.057,1.83,1.585,3.02,1.585c1.19,0,2.164-0.434,2.923-1.301
			s1.138-1.846,1.138-2.935c0-1.09-0.392-2.02-1.174-2.79c-0.783-0.771-1.734-1.155-2.856-1.155c-0.298,0-0.524,0.02-0.678,0.061
			V7.322c0.218,0.064,0.484,0.101,0.799,0.108c0.912,0,1.685-0.327,2.317-0.981c0.634-0.655,0.95-1.413,0.95-2.273
			c0-0.861-0.331-1.614-0.992-2.262c-0.662-0.646-1.479-0.97-2.45-0.97c-0.973,0-1.806,0.456-2.499,1.367h-1.15
			c0.347-0.693,0.859-1.248,1.537-1.664c0.678-0.415,1.432-0.623,2.263-0.623c1.187,0,2.185,0.402,2.996,1.206
			c0.811,0.804,1.216,1.8,1.216,2.987c0,1.622-0.678,2.837-2.033,3.644c0.839,0.411,1.495,1.013,1.967,1.807
			c0.472,0.793,0.708,1.702,0.708,2.725c0,1.452-0.471,2.667-1.41,3.643c-0.939,0.977-2.111,1.465-3.516,1.465
			c-0.928,0-1.765-0.224-2.511-0.672C508.151,16.38,507.564,15.777,507.138,15.019z"/>
	</g>
	<circle fill="#3E3D3F" cx="452.075" cy="9.782" r="1.874"/>
	<circle fill="#3E3D3F" cx="527.048" cy="9.782" r="1.875"/>
</g>
</svg>
