<?xml version="1.0" encoding="utf-8"?>
<!-- Generator: Adobe Illustrator 15.0.2, SVG Export Plug-In . SVG Version: 6.00 Build 0)  -->
<!DOCTYPE svg PUBLIC "-//W3C//DTD SVG 1.1//EN" "http://www.w3.org/Graphics/SVG/1.1/DTD/svg11.dtd">
<svg version="1.1" id="Lager_1" xmlns="http://www.w3.org/2000/svg" xmlns:xlink="http://www.w3.org/1999/xlink" x="0px" y="0px"
	 width="480.655px" height="371.381px" viewBox="0 0 480.655 371.381" enable-background="new 0 0 480.655 371.381"
	 xml:space="preserve">
<g>
	<rect x="197.896" fill="#D83939" width="99.443" height="121.033"/>
	<g>
		<g>
			<g>
				<path fill="#FFD941" stroke="#FFD941" stroke-width="0.5955" stroke-miterlimit="10" d="M151.921,128.408
					c0-52.855,42.846-95.7,95.698-95.7c52.855,0,95.696,42.845,95.696,95.7c0,52.852-42.841,95.698-95.696,95.698
					C194.767,224.106,151.921,181.259,151.921,128.408z"/>
				<path fill="#FFCE0E" stroke="#FFCE0E" stroke-width="0.5955" stroke-miterlimit="10" d="M247.619,224.106
					c-52.852,0-95.698-42.847-95.698-95.698c0-52.855,42.846-95.7,95.698-95.7V224.106z"/>
			</g>
			<g>
				<circle fill="#FBC017" stroke="#FBC017" stroke-width="0.4951" stroke-miterlimit="10" cx="247.617" cy="128.908" r="79.558"/>
				<path fill="#F9B61E" stroke="#F9B61E" stroke-width="0.4951" stroke-miterlimit="10" d="M247.619,208.468
					c-43.938,0-79.56-35.619-79.56-79.561c0-43.94,35.621-79.561,79.56-79.561V208.468z"/>
			</g>
		</g>
		<g>
			<g>
				<g>
					<path fill="#FFE678" d="M280.342,174.153c-8.816-5.131-15.081-18.313-15.081-33.765c0-15.386,6.217-28.521,14.975-33.697
						h-32.045h-32.038c8.754,5.177,14.975,18.311,14.975,33.697c0,15.451-6.271,28.634-15.086,33.765H280.342z"/>
				</g>
			</g>
			<g>
				<g>
					<path fill="#419D36" d="M248.82,89.787"/>
				</g>
			</g>
			<g>
				<g>
					<path fill="#FFD941" d="M248.191,174.153l32.566-0.254c-8.813-5.131-15.496-18.059-15.496-33.51
						c0-15.386,6.323-28.21,15.081-33.386l-32.151-0.122v65.642V174.153z"/>
				</g>
			</g>
			<g>
				<g>
					<path fill="#FFE267" stroke="#FFE267" stroke-width="0.3034" stroke-miterlimit="10" d="M248.606,89.487
						c0-8.752,6.763-15.875,15.661-15.875v4.589c-6.726,0-12.975,4.704-12.975,11.286H248.606z"/>
				</g>
			</g>
			<g>
				<g>
					<g>
						<path fill="#FFD941" d="M241.507,89.395c2.811-4.885,3.102-8.48,3.102-8.48c2.221-19.355-23.583-23.955-23.583-23.955
							s-6.936,25.279,11.492,31.592C232.517,88.552,235.889,89.834,241.507,89.395z"/>
					</g>
				</g>
			</g>
			<g>
				<g>
					<g>
						<path fill="#FFE678" d="M221.025,56.96c0,0-6.936,25.279,11.492,31.592c0,0,3.372,1.282,8.99,0.843"/>
					</g>
				</g>
			</g>
			<g>
				<g>
					
						<ellipse fill="#FBC017" stroke="#FBC017" stroke-width="0.3034" stroke-miterlimit="10" cx="242.394" cy="140.222" rx="1.645" ry="3.753"/>
				</g>
			</g>
			<g>
				<g>
					<path fill="#FBC017" stroke="#FBC017" stroke-width="0.3034" stroke-miterlimit="10" d="M256.291,140.222
						c0,2.074-0.738,3.753-1.649,3.753c-0.905,0-1.648-1.679-1.648-3.753c0-2.073,0.743-3.756,1.648-3.756
						C255.552,136.466,256.291,138.149,256.291,140.222z"/>
				</g>
			</g>
			<g>
				<g>
					
						<path fill="#FFD941" stroke="#FFD941" stroke-width="0.2588" stroke-linecap="round" stroke-linejoin="round" stroke-miterlimit="10" d="
						M280.833,106.691c0-6.545-6.04-13.077-13.485-13.077c-2.018,0-3.937,0.389-5.653,1.09l-3.499,1.259
						c-5.883,1.915-9.585,1.915-9.585,1.915h-0.049c0,0-3.701,0-9.587-1.915l-3.496-1.259c-1.72-0.701-3.636-1.09-5.656-1.09
						c-7.445,0-13.481,6.532-13.481,13.077H280.833z"/>
				</g>
			</g>
			<g>
				<g>
					
						<path fill="#FFD941" stroke="#FFD941" stroke-width="0.2585" stroke-linecap="round" stroke-linejoin="round" stroke-miterlimit="10" d="
						M280.757,174.153c0,6.536-6.027,17.146-13.465,17.146c0,0-3.521-0.041-9.143-1.732c-4.832-1.457-9.371-1.416-9.574-1.416h-0.35
						c-0.208,0-4.744-0.041-9.574,1.416c-5.623,1.691-9.142,1.732-9.142,1.732c-7.436,0-13.468-10.611-13.468-17.146H280.757z"/>
				</g>
			</g>
			<g>
				<g>
					<g>
						<path fill="#FFCE0E" d="M248.562,97.878h0.049c0,0,3.702,0,9.585-1.915l3.499-1.259c1.717-0.701,3.636-1.09,5.653-1.09
							c7.445,0,13.485,6.532,13.485,13.077h-32.643v-8.825L248.562,97.878z"/>
						<path fill="#FFCE0E" d="M248.204,97.528l0.369,0.013c0.079,0,3.766-0.025,9.521-1.899l3.485-1.255
							c1.799-0.734,3.751-1.111,5.769-1.111c7.231,0,13.819,6.394,13.819,13.416c0,0.186-0.153,0.338-0.334,0.338h-32.643
							L248.204,97.528z M248.533,106.353h31.955c-0.204-5.925-5.758-12.403-13.14-12.403c-1.932,0-3.794,0.359-5.529,1.065
							l-3.511,1.265c-5.875,1.915-9.542,1.936-9.697,1.936l-0.078-0.002V106.353z"/>
					</g>
				</g>
			</g>
			<g>
				<g>
					<g>
						<path fill="#FFCE0E" d="M248.576,188.151c0.203,0,4.742-0.041,9.574,1.416c5.621,1.691,9.143,1.732,9.143,1.732
							c7.438,0,13.465-10.611,13.465-17.146h-32.355v13.613v0.385H248.576z"/>
						<path fill="#FFCE0E" d="M248.214,173.814h32.543c0.188,0,0.339,0.153,0.339,0.338c0,6.904-6.184,17.484-13.804,17.484
							c-0.006,0-0.006,0-0.006,0c-0.145-0.002-3.631-0.062-9.236-1.748c-4.422-1.335-8.615-1.4-9.411-1.4h-0.425 M248.738,187.815
							c1.158,0.01,5.229,0.139,9.506,1.43c5.456,1.642,8.949,1.719,9.049,1.719c6.997-0.003,12.923-9.975,13.124-16.472h-31.679
							V187.815z"/>
					</g>
				</g>
			</g>
		</g>
	</g>
	<g>
		<g>
			<path fill="#3E3D3F" d="M111.584,322.454c0,7.121-0.866,13.639-2.597,19.556c-1.733,5.919-4.067,10.707-7.002,14.36
				c-2.934,3.658-6.664,6.594-11.185,8.806c-8.178,4.138-18.475,6.206-30.886,6.206V269.772c13.18,0,23.574,1.973,31.176,5.918
				c6.542,3.463,11.45,8.611,14.722,15.443C109.659,299.024,111.584,309.463,111.584,322.454z M106.246,320.866
				c0-30.311-13.665-45.466-40.992-45.466v90.497c15.589-0.192,26.462-4.667,32.621-13.424
				C103.452,344.586,106.246,334.047,106.246,320.866z"/>
			<path fill="#3E3D3F" d="M134.821,370.949h-5.338V270.204h5.338V370.949z"/>
			<path fill="#3E3D3F" d="M162.101,328.226v42.723h-5.339V269.772c16.836,0.096,29.661,2.669,38.464,7.721
				c8.804,5.053,13.206,12.148,13.206,21.289c0,10.777-4.235,18.283-12.701,22.516c-2.887,1.541-5.44,2.695-7.651,3.465
				c-2.215,0.771-5.196,1.442-8.948,2.02C174.415,327.36,168.741,327.842,162.101,328.226z M162.101,322.885l1.441,0.145
				c26.366-0.383,39.55-8.322,39.55-23.815c0-5.772-2.649-10.918-7.938-15.443c-2.889-2.501-7.146-4.521-12.775-6.061
				c-5.628-1.538-12.39-2.357-20.278-2.454V322.885z"/>
			<path fill="#3E3D3F" d="M272.946,370.949h-50.225V269.916h5.338v95.692h44.886V370.949z"/>
			<path fill="#3E3D3F" d="M339.338,321.297c0,15.877-2.695,28.123-8.084,36.733c-5.392,8.612-13.181,12.918-23.381,12.918
				c-10.203,0-18.282-4.353-24.243-13.063c-5.973-8.707-8.951-21.071-8.951-37.093c0-16.021,2.934-28.624,8.801-37.815
				c5.87-9.187,14.048-13.783,24.538-13.783c6.252,0,11.572,1.612,15.951,4.836c4.374,3.224,7.623,7.576,9.738,13.061
				C337.462,297.194,339.338,308.597,339.338,321.297z M333.998,318.844c0-13.373-2.26-24.055-6.784-32.041
				c-4.523-7.986-11.017-11.979-19.482-11.979c-8.471,0-15.203,3.968-20.208,11.907c-5,7.938-7.504,19.316-7.504,34.135
				c0,17.225,3.894,29.877,11.689,37.959c4.328,4.426,9.285,6.639,14.865,6.639c5.582,0,10.149-1.25,13.714-3.752
				c3.56-2.502,6.3-5.966,8.227-10.393C332.167,343.045,333.998,332.219,333.998,318.844z"/>
			<path fill="#3E3D3F" d="M415.399,370.949l0.287-92.662l-24.101,55.28h-4.905l-24.104-55.28v92.662h-5.051V269.772h6.926
				l24.681,56.578l24.539-56.578h7.07v101.177H415.399z"/>
		</g>
		<g>
			<circle fill="#FBC017" stroke="#FBC017" stroke-width="0.3542" stroke-miterlimit="10" cx="10.218" cy="320.29" r="10.041"/>
			<path fill="#F9B61E" stroke="#F9B61E" stroke-width="0.3542" stroke-miterlimit="10" d="M10.219,330.329
				c-5.544,0-10.042-4.496-10.042-10.039c0-5.547,4.497-10.043,10.042-10.043V330.329z"/>
		</g>
		<g>
			<circle fill="#FBC017" stroke="#FBC017" stroke-width="0.3542" stroke-miterlimit="10" cx="470.438" cy="320.29" r="10.041"/>
			<path fill="#F9B61E" stroke="#F9B61E" stroke-width="0.3542" stroke-miterlimit="10" d="M470.438,330.329
				c-5.545,0-10.041-4.496-10.041-10.039c0-5.547,4.496-10.043,10.041-10.043V330.329z"/>
		</g>
	</g>
</g>
</svg>
