<?xml version="1.0" encoding="utf-8"?>
<!-- Generator: Adobe Illustrator 15.0.2, SVG Export Plug-In . SVG Version: 6.00 Build 0)  -->
<!DOCTYPE svg PUBLIC "-//W3C//DTD SVG 1.1//EN" "http://www.w3.org/Graphics/SVG/1.1/DTD/svg11.dtd">
<svg version="1.1" id="Lager_1" xmlns="http://www.w3.org/2000/svg" xmlns:xlink="http://www.w3.org/1999/xlink" x="0px" y="0px"
	 width="873.828px" height="266.102px" viewBox="0 0 873.828 266.102" enable-background="new 0 0 873.828 266.102"
	 xml:space="preserve">
<g>
	<g>
		<path fill="#717274" d="M0,25.437V1.786h1.24v23.65H0z"/>
		<path fill="#717274" d="M6.186,25.437V8.501h1.257v2.034c1.466-1.577,3.06-2.365,4.78-2.365c1.146,0,2.343,0.54,3.589,1.621
			c0.628,0.584,1.152,1.452,1.571,2.604c0.419,1.152,0.628,2.506,0.628,4.061l-0.033,8.98h-1.257l0.033-8.947
			c0-1.896-0.458-3.551-1.373-4.962S13.327,9.41,11.966,9.41c-1.362,0-2.87,0.938-4.523,2.812v13.215H6.186z"/>
		<path fill="#717274" d="M22.509,25.437V8.501h1.257v2.034c1.466-1.577,3.06-2.365,4.78-2.365c1.146,0,2.343,0.54,3.589,1.621
			c0.628,0.584,1.152,1.452,1.571,2.604c0.419,1.152,0.628,2.506,0.628,4.061l-0.033,8.98h-1.257l0.033-8.947
			c0-1.896-0.458-3.551-1.373-4.962S29.651,9.41,28.29,9.41c-1.362,0-2.87,0.938-4.523,2.812v13.215H22.509z"/>
		<path fill="#717274" d="M38.519,20.441c-0.463-1.113-0.695-2.444-0.695-3.994c0-1.549,0.209-2.899,0.629-4.052
			c0.418-1.152,0.953-2.021,1.604-2.604c1.224-1.081,2.409-1.621,3.556-1.621c1.918,0,3.415,0.562,4.49,1.687
			c1.075,1.125,1.612,2.613,1.612,4.466c0,1.246-0.011,1.969-0.033,2.167H39.081c0,2.91,0.868,4.926,2.604,6.045
			c1.737,1.119,4.435,1.679,8.096,1.679v1.257c-1.356,0-2.547-0.055-3.573-0.165s-2.092-0.354-3.2-0.729
			c-1.108-0.374-2.018-0.879-2.729-1.513C39.569,22.43,38.981,21.556,38.519,20.441z M39.114,15.249h9.345v-0.761
			c0-1.489-0.425-2.707-1.273-3.655c-0.849-0.948-1.968-1.423-3.357-1.423s-2.484,0.549-3.283,1.646
			C39.745,12.153,39.268,13.551,39.114,15.249z"/>
		<path fill="#717274" d="M53.486,25.437V0.033h1.257v10.502c1.488-1.599,3.082-2.403,4.78-2.415c0.926,0,1.863,0.354,2.812,1.059
			c1.985,1.444,2.977,3.87,2.977,7.277l-0.033,8.98h-1.257l0.033-8.947c0-1.896-0.458-3.556-1.373-4.979
			c-0.915-1.422-2.034-2.134-3.357-2.134c-0.86,0-1.646,0.254-2.356,0.761c-0.711,0.508-1.453,1.202-2.225,2.084v13.215H53.486z"/>
		<path fill="#717274" d="M69.512,20.441c-0.452-1.113-0.678-2.37-0.678-3.771s0.141-2.604,0.422-3.613
			c0.281-1.01,0.642-1.812,1.083-2.407c0.44-0.595,0.931-1.086,1.472-1.472c0.948-0.694,1.885-1.047,2.812-1.059
			c1.698,0,3.292,0.806,4.78,2.415V8.501h1.257V25.47c-1.356,0-2.542-0.055-3.556-0.165c-1.015-0.11-2.07-0.354-3.167-0.729
			c-1.098-0.374-1.996-0.879-2.696-1.513C70.54,22.43,69.964,21.556,69.512,20.441z M70.091,16.489c0,2.955,0.916,5.011,2.746,6.169
			c1.621,1.015,3.81,1.521,6.566,1.521V12.222c-0.772-0.882-1.513-1.576-2.225-2.084c-0.711-0.507-1.497-0.761-2.356-0.761
			c-1.422,0-2.566,0.626-3.432,1.878C70.523,12.506,70.091,14.251,70.091,16.489z"/>
		<path fill="#717274" d="M83.405,8.501h1.24l5.59,14.901l5.392-14.901h1.257L90.88,25.437h-1.257L83.405,8.501z"/>
		<path fill="#717274" d="M99.117,20.441c-0.452-1.113-0.678-2.37-0.678-3.771s0.141-2.604,0.422-3.613
			c0.281-1.01,0.642-1.812,1.083-2.407c0.44-0.595,0.931-1.086,1.472-1.472c0.948-0.694,1.885-1.047,2.812-1.059
			c1.698,0,3.292,0.806,4.78,2.415V8.501h1.257V25.47c-1.356,0-2.542-0.055-3.556-0.165c-1.015-0.11-2.07-0.354-3.167-0.729
			c-1.098-0.374-1.996-0.879-2.696-1.513C100.145,22.43,99.569,21.556,99.117,20.441z M99.696,16.489
			c0,2.955,0.916,5.011,2.746,6.169c1.621,1.015,3.81,1.521,6.566,1.521V12.222c-0.772-0.882-1.513-1.576-2.225-2.084
			c-0.711-0.507-1.497-0.761-2.356-0.761c-1.422,0-2.566,0.626-3.432,1.878C100.128,12.506,99.696,14.251,99.696,16.489z"/>
		<path fill="#717274" d="M114.995,25.437V8.501h1.257v2.48c0.474-0.562,1.202-1.166,2.183-1.811
			c0.981-0.646,1.918-0.968,2.812-0.968s1.673,0.254,2.34,0.761c0.667,0.507,1.011,1.334,1.034,2.48h-1.257
			c0-0.628-0.204-1.124-0.612-1.488c-0.408-0.363-0.959-0.546-1.654-0.546c-0.694,0-1.546,0.339-2.555,1.018
			c-1.009,0.678-1.772,1.425-2.291,2.241v12.768H114.995z"/>
		<path fill="#717274" d="M127.001,20.441c-0.463-1.113-0.695-2.444-0.695-3.994c0-1.549,0.209-2.899,0.629-4.052
			c0.418-1.152,0.953-2.021,1.604-2.604c1.224-1.081,2.409-1.621,3.556-1.621c1.918,0,3.415,0.562,4.49,1.687
			c1.075,1.125,1.612,2.613,1.612,4.466c0,1.246-0.011,1.969-0.033,2.167h-10.601c0,2.91,0.868,4.926,2.604,6.045
			c1.737,1.119,4.435,1.679,8.096,1.679v1.257c-1.356,0-2.547-0.055-3.573-0.165s-2.092-0.354-3.2-0.729
			c-1.108-0.374-2.018-0.879-2.729-1.513C128.052,22.43,127.464,21.556,127.001,20.441z M127.597,15.249h9.345v-0.761
			c0-1.489-0.425-2.707-1.273-3.655c-0.849-0.948-1.968-1.423-3.357-1.423s-2.484,0.549-3.283,1.646
			C128.228,12.153,127.751,13.551,127.597,15.249z"/>
		<path fill="#717274" d="M141.969,25.437V8.501h1.257v2.034c1.466-1.577,3.06-2.365,4.78-2.365c1.146,0,2.343,0.54,3.589,1.621
			c0.628,0.584,1.152,1.452,1.571,2.604c0.419,1.152,0.628,2.506,0.628,4.061l-0.033,8.98h-1.257l0.033-8.947
			c0-1.896-0.458-3.551-1.373-4.962s-2.054-2.117-3.415-2.117c-1.362,0-2.87,0.938-4.523,2.812v13.215H141.969z"/>
		<path fill="#717274" d="M164.859,20.441c-0.452-1.113-0.678-2.37-0.678-3.771s0.141-2.604,0.422-3.613
			c0.281-1.01,0.642-1.812,1.083-2.407c0.44-0.595,0.931-1.086,1.472-1.472c0.948-0.694,1.885-1.047,2.812-1.059
			c1.698,0,3.292,0.806,4.78,2.415V8.501h1.257V25.47c-1.356,0-2.542-0.055-3.556-0.165c-1.015-0.11-2.07-0.354-3.167-0.729
			c-1.098-0.374-1.996-0.879-2.696-1.513C165.887,22.43,165.311,21.556,164.859,20.441z M165.438,16.489
			c0,2.955,0.916,5.011,2.746,6.169c1.621,1.015,3.81,1.521,6.566,1.521V12.222c-0.772-0.882-1.513-1.576-2.225-2.084
			c-0.711-0.507-1.497-0.761-2.356-0.761c-1.422,0-2.566,0.626-3.432,1.878C165.87,12.506,165.438,14.251,165.438,16.489z"/>
		<path fill="#717274" d="M178.751,8.501h1.24l5.59,14.901l5.392-14.901h1.257l-6.003,16.936h-1.257L178.751,8.501z"/>
		<path fill="#717274" d="M201.526,20.441c-0.452-1.113-0.678-2.37-0.678-3.771s0.141-2.604,0.422-3.613
			c0.281-1.01,0.642-1.812,1.083-2.407c0.44-0.595,0.931-1.086,1.472-1.472c0.948-0.694,1.885-1.047,2.812-1.059
			c1.698,0,3.292,0.806,4.78,2.415V0.033h1.257V25.47c-1.356,0-2.542-0.055-3.556-0.165c-1.015-0.11-2.07-0.354-3.167-0.729
			c-1.098-0.374-1.996-0.879-2.696-1.513C202.554,22.43,201.978,21.556,201.526,20.441z M203.478,11.511
			c-0.916,1.423-1.373,2.975-1.373,4.655c0,1.682,0.237,3.044,0.711,4.086s1.152,1.844,2.034,2.406
			c1.621,1.015,3.81,1.521,6.566,1.521V12.222c-0.772-0.882-1.513-1.576-2.225-2.084c-0.711-0.507-1.497-0.761-2.356-0.761
			C205.512,9.377,204.393,10.089,203.478,11.511z"/>
		<path fill="#717274" d="M216.957,20.441c-0.463-1.113-0.695-2.444-0.695-3.994c0-1.549,0.209-2.899,0.629-4.052
			c0.418-1.152,0.953-2.021,1.604-2.604c1.224-1.081,2.409-1.621,3.556-1.621c1.918,0,3.415,0.562,4.49,1.687
			c1.075,1.125,1.612,2.613,1.612,4.466c0,1.246-0.011,1.969-0.033,2.167h-10.601c0,2.91,0.868,4.926,2.604,6.045
			c1.737,1.119,4.435,1.679,8.096,1.679v1.257c-1.356,0-2.547-0.055-3.573-0.165s-2.092-0.354-3.2-0.729
			c-1.108-0.374-2.018-0.879-2.729-1.513C218.007,22.43,217.419,21.556,216.957,20.441z M217.552,15.249h9.345v-0.761
			c0-1.489-0.425-2.707-1.273-3.655c-0.849-0.948-1.968-1.423-3.357-1.423s-2.484,0.549-3.283,1.646
			C218.183,12.153,217.706,13.551,217.552,15.249z"/>
		<path fill="#717274" d="M229.625,9.758V8.501h3.903V2.91h1.257v5.591h3.919v1.257h-3.919v15.679h-1.257V9.758H229.625z"/>
		<path fill="#717274" d="M239.301,9.758V8.501h3.903V2.91h1.257v5.591h3.919v1.257h-3.919v15.679h-1.257V9.758H239.301z"/>
		<path fill="#717274" d="M250.332,20.441c-0.452-1.113-0.678-2.37-0.678-3.771s0.141-2.604,0.422-3.613
			c0.281-1.01,0.642-1.812,1.083-2.407c0.44-0.595,0.931-1.086,1.472-1.472c0.948-0.694,1.885-1.047,2.812-1.059
			c1.698,0,3.292,0.806,4.78,2.415V8.501h1.257V25.47c-1.356,0-2.542-0.055-3.556-0.165c-1.015-0.11-2.07-0.354-3.167-0.729
			c-1.098-0.374-1.996-0.879-2.696-1.513C251.36,22.43,250.784,21.556,250.332,20.441z M250.911,16.489
			c0,2.955,0.916,5.011,2.746,6.169c1.621,1.015,3.81,1.521,6.566,1.521V12.222c-0.772-0.882-1.513-1.576-2.225-2.084
			c-0.711-0.507-1.497-0.761-2.356-0.761c-1.422,0-2.566,0.626-3.432,1.878C251.343,12.506,250.911,14.251,250.911,16.489z"/>
		<path fill="#717274" d="M272.775,20.441c-0.452-1.113-0.678-2.37-0.678-3.771s0.141-2.604,0.422-3.613
			c0.281-1.01,0.642-1.812,1.083-2.407c0.44-0.595,0.931-1.086,1.472-1.472c0.948-0.694,1.885-1.047,2.812-1.059
			c1.698,0,3.292,0.806,4.78,2.415V0.033h1.257V25.47c-1.356,0-2.542-0.055-3.556-0.165c-1.015-0.11-2.07-0.354-3.167-0.729
			c-1.098-0.374-1.996-0.879-2.696-1.513C273.803,22.43,273.228,21.556,272.775,20.441z M274.727,11.511
			c-0.916,1.423-1.373,2.975-1.373,4.655c0,1.682,0.237,3.044,0.711,4.086s1.152,1.844,2.034,2.406
			c1.621,1.015,3.81,1.521,6.566,1.521V12.222c-0.772-0.882-1.513-1.576-2.225-2.084c-0.711-0.507-1.497-0.761-2.356-0.761
			C276.761,9.377,275.642,10.089,274.727,11.511z"/>
		<path fill="#717274" d="M288.653,25.437V8.501h1.257v16.936H288.653z M288.719,5.821V2.91h1.257v2.911H288.719z"/>
		<path fill="#717274" d="M294.64,33.904V8.501h1.257v2.034c1.488-1.599,3.082-2.403,4.78-2.415c0.926,0,1.863,0.354,2.812,1.059
			c1.985,1.444,2.977,3.87,2.977,7.277c0,4.024-1.5,6.654-4.499,7.889c-1.533,0.629-3.556,0.992-6.07,1.092v8.468H294.64z
			 M295.897,24.18c0.022,0,0.039,0,0.049,0c4.499,0,7.349-1.307,8.551-3.92c0.474-1.036,0.711-2.398,0.711-4.085
			s-0.458-3.241-1.373-4.664c-0.915-1.422-2.034-2.134-3.357-2.134c-0.86,0-1.646,0.254-2.356,0.761
			c-0.711,0.508-1.453,1.202-2.225,2.084V24.18z"/>
		<path fill="#717274" d="M310.236,25.437V0.066h1.241v25.37H310.236z"/>
		<path fill="#717274" d="M315.23,17.349c0-2.712,0.543-4.92,1.629-6.623c1.085-1.704,2.648-2.556,4.688-2.556
			c2.04,0,3.575,0.8,4.606,2.398c1.031,1.599,1.558,3.517,1.58,5.755c0,1.533-0.149,2.881-0.446,4.044
			c-0.298,1.164-0.665,2.062-1.1,2.696s-0.962,1.144-1.58,1.529c-0.959,0.629-1.984,0.943-3.076,0.943
			c-0.64,0-1.295-0.11-1.968-0.331c-0.629-0.198-1.293-0.565-1.993-1.1c-0.7-0.535-1.265-1.379-1.695-2.531
			C315.446,20.423,315.23,19.014,315.23,17.349z M316.487,17.415c0,1.875,0.383,3.448,1.15,4.722
			c0.766,1.273,1.916,1.977,3.448,2.109l0.414,0.032l0.364-0.032c3.076-0.298,4.614-2.884,4.614-7.757
			c0-2.007-0.408-3.688-1.224-5.045c-0.816-1.355-2.111-2.034-3.886-2.034c-1.147,0-2.106,0.397-2.878,1.191
			c-1.334,1.4-2.001,3.578-2.001,6.532V17.415z"/>
		<path fill="#717274" d="M331.339,25.437V8.501h1.257v2.034c1.466-1.577,3.06-2.365,4.78-2.365c0.694,0,1.455,0.248,2.282,0.744
			s1.521,1.273,2.084,2.332c1.599-2.051,3.44-3.076,5.524-3.076c1.146,0,2.343,0.54,3.589,1.621
			c0.628,0.584,1.152,1.452,1.571,2.604c0.419,1.152,0.628,2.506,0.628,4.061l-0.033,8.98h-1.257l0.033-8.947
			c0-1.896-0.458-3.551-1.373-4.962s-2.034-2.117-3.357-2.117c-0.882,0-1.77,0.307-2.663,0.918
			c-0.893,0.612-1.621,1.315-2.183,2.108c0.408,1.169,0.612,2.509,0.612,4.02l-0.033,8.98h-1.257l0.033-8.947
			c0-1.896-0.424-3.551-1.273-4.962s-1.933-2.117-3.25-2.117s-2.803,0.938-4.457,2.812v13.215H331.339z"/>
		<path fill="#717274" d="M364.417,25.437V0.033h1.257v10.502c1.488-1.599,3.082-2.403,4.78-2.415c0.926,0,1.863,0.354,2.812,1.059
			c1.985,1.444,2.977,3.87,2.977,7.277l-0.033,8.98h-1.257l0.033-8.947c0-1.896-0.458-3.556-1.373-4.979
			c-0.915-1.422-2.034-2.134-3.357-2.134c-0.86,0-1.646,0.254-2.356,0.761c-0.711,0.508-1.453,1.202-2.225,2.084v13.215H364.417z"/>
		<path fill="#717274" d="M380.443,20.441c-0.452-1.113-0.678-2.37-0.678-3.771s0.141-2.604,0.422-3.613
			c0.281-1.01,0.642-1.812,1.083-2.407c0.44-0.595,0.931-1.086,1.472-1.472c0.948-0.694,1.885-1.047,2.812-1.059
			c1.698,0,3.292,0.806,4.78,2.415V8.501h1.257V25.47c-1.356,0-2.542-0.055-3.556-0.165c-1.015-0.11-2.07-0.354-3.167-0.729
			c-1.098-0.374-1.996-0.879-2.696-1.513C381.471,22.43,380.895,21.556,380.443,20.441z M381.021,16.489
			c0,2.955,0.916,5.011,2.746,6.169c1.621,1.015,3.81,1.521,6.566,1.521V12.222c-0.772-0.882-1.513-1.576-2.225-2.084
			c-0.711-0.507-1.497-0.761-2.356-0.761c-1.422,0-2.566,0.626-3.432,1.878C381.454,12.506,381.021,14.251,381.021,16.489z"/>
		<path fill="#717274" d="M396.32,25.437V8.501h1.257v2.48c0.474-0.562,1.202-1.166,2.183-1.811
			c0.981-0.646,1.918-0.968,2.812-0.968s1.673,0.254,2.34,0.761c0.667,0.507,1.011,1.334,1.034,2.48h-1.257
			c0-0.628-0.204-1.124-0.612-1.488c-0.408-0.363-0.959-0.546-1.654-0.546c-0.694,0-1.546,0.339-2.555,1.018
			c-1.009,0.678-1.772,1.425-2.291,2.241v12.768H396.32z"/>
		<path fill="#717274" d="M415.373,20.441c-0.452-1.113-0.678-2.37-0.678-3.771s0.141-2.604,0.422-3.613
			c0.281-1.01,0.642-1.812,1.083-2.407c0.44-0.595,0.931-1.086,1.472-1.472c0.948-0.694,1.885-1.047,2.812-1.059
			c1.698,0,3.292,0.806,4.78,2.415V0.033h1.257V25.47c-1.356,0-2.542-0.055-3.556-0.165c-1.015-0.11-2.07-0.354-3.167-0.729
			c-1.098-0.374-1.996-0.879-2.696-1.513C416.401,22.43,415.825,21.556,415.373,20.441z M417.325,11.511
			c-0.916,1.423-1.373,2.975-1.373,4.655c0,1.682,0.237,3.044,0.711,4.086s1.152,1.844,2.034,2.406
			c1.621,1.015,3.81,1.521,6.566,1.521V12.222c-0.772-0.882-1.513-1.576-2.225-2.084c-0.711-0.507-1.497-0.761-2.356-0.761
			C419.359,9.377,418.24,10.089,417.325,11.511z"/>
		<path fill="#717274" d="M430.804,20.441c-0.463-1.113-0.695-2.444-0.695-3.994c0-1.549,0.209-2.899,0.629-4.052
			c0.418-1.152,0.953-2.021,1.604-2.604c1.224-1.081,2.409-1.621,3.556-1.621c1.918,0,3.415,0.562,4.49,1.687
			c1.075,1.125,1.613,2.613,1.613,4.466c0,1.246-0.012,1.969-0.033,2.167h-10.602c0,2.91,0.868,4.926,2.604,6.045
			c1.737,1.119,4.436,1.679,8.096,1.679v1.257c-1.355,0-2.547-0.055-3.572-0.165s-2.092-0.354-3.2-0.729
			c-1.108-0.374-2.018-0.879-2.729-1.513C431.854,22.43,431.267,21.556,430.804,20.441z M431.399,15.249h9.344v-0.761
			c0-1.489-0.424-2.707-1.273-3.655c-0.849-0.948-1.968-1.423-3.357-1.423s-2.484,0.549-3.283,1.646
			C432.03,12.153,431.553,13.551,431.399,15.249z"/>
		<path fill="#717274" d="M445.92,25.437V0.066h1.24v25.37H445.92z"/>
		<path fill="#717274" d="M449.956,9.758V8.501h3.903V2.91h1.257v5.591h3.92v1.257h-3.92v15.679h-1.257V9.758H449.956z"/>
		<path fill="#717274" d="M460.987,20.441c-0.452-1.113-0.678-2.37-0.678-3.771s0.141-2.604,0.421-3.613
			c0.281-1.01,0.643-1.812,1.084-2.407c0.44-0.595,0.932-1.086,1.472-1.472c0.948-0.694,1.886-1.047,2.812-1.059
			c1.698,0,3.291,0.806,4.78,2.415V8.501h1.257V25.47c-1.356,0-2.542-0.055-3.557-0.165c-1.014-0.11-2.069-0.354-3.167-0.729
			c-1.097-0.374-1.995-0.879-2.695-1.513S461.439,21.556,460.987,20.441z M461.566,16.489c0,2.955,0.915,5.011,2.745,6.169
			c1.621,1.015,3.81,1.521,6.566,1.521V12.222c-0.772-0.882-1.514-1.576-2.225-2.084c-0.712-0.507-1.497-0.761-2.357-0.761
			c-1.422,0-2.566,0.626-3.432,1.878C461.999,12.506,461.566,14.251,461.566,16.489z"/>
		<path fill="#717274" d="M475.756,16.456c0-3.407,0.992-5.833,2.977-7.277c0.948-0.694,1.886-1.047,2.812-1.059
			c1.698,0,3.291,0.806,4.78,2.415V8.501h1.257v17.515c0,1.555-0.193,2.913-0.579,4.076s-0.871,2.026-1.455,2.589
			c-1.147,1.103-2.288,1.659-3.424,1.67c-1.511,0-2.934-0.634-4.268-1.901v-1.621c1.423,1.511,2.834,2.266,4.234,2.266
			s2.456-0.673,3.167-2.018c0.711-1.346,1.067-3.043,1.067-5.094v-0.546c-4.047-0.154-6.87-1.036-8.469-2.646
			C476.455,21.346,475.756,19.234,475.756,16.456z M478.385,11.511c-0.915,1.423-1.372,2.975-1.372,4.655
			c0,1.682,0.236,3.044,0.711,4.086c0.474,1.042,1.152,1.844,2.034,2.406c1.621,1.015,3.81,1.521,6.566,1.521V12.222
			c-0.772-0.882-1.514-1.576-2.225-2.084c-0.712-0.507-1.497-0.761-2.357-0.761C480.419,9.377,479.3,10.089,478.385,11.511z"/>
		<path fill="#717274" d="M492.312,25.437V8.501h1.257v16.936H492.312z M492.378,5.821V2.91h1.257v2.911H492.378z"/>
		<path fill="#717274" d="M496.231,9.758V8.501h3.903V2.91h1.257v5.591h3.92v1.257h-3.92v15.679h-1.257V9.758H496.231z"/>
		<path fill="#717274" d="M513.861,17.349c0-2.712,0.543-4.92,1.629-6.623c1.086-1.704,2.648-2.556,4.688-2.556
			s3.575,0.8,4.606,2.398c1.03,1.599,1.557,3.517,1.579,5.755c0,1.533-0.148,2.881-0.446,4.044c-0.298,1.164-0.665,2.062-1.1,2.696
			c-0.437,0.634-0.963,1.144-1.58,1.529c-0.959,0.629-1.984,0.943-3.076,0.943c-0.64,0-1.296-0.11-1.968-0.331
			c-0.629-0.198-1.293-0.565-1.993-1.1c-0.7-0.535-1.266-1.379-1.695-2.531C514.076,20.423,513.861,19.014,513.861,17.349z
			 M515.118,17.415c0,1.875,0.383,3.448,1.149,4.722c0.766,1.273,1.915,1.977,3.448,2.109l0.413,0.032l0.364-0.032
			c3.076-0.298,4.614-2.884,4.614-7.757c0-2.007-0.408-3.688-1.224-5.045c-0.816-1.355-2.112-2.034-3.887-2.034
			c-1.147,0-2.106,0.397-2.878,1.191c-1.334,1.4-2.001,3.578-2.001,6.532V17.415z"/>
		<path fill="#717274" d="M529.805,20.441c-0.452-1.113-0.678-2.444-0.678-3.994c0-1.549,0.209-2.899,0.628-4.052
			s0.943-2.021,1.571-2.604c1.246-1.081,2.522-1.621,3.829-1.621s2.503,0.339,3.589,1.018c1.086,0.678,1.821,1.59,2.208,2.736
			l-1.29-0.032c-0.364-0.75-0.977-1.351-1.836-1.803c-0.86-0.452-1.765-0.679-2.713-0.679c-1.532,0-2.704,0.684-3.514,2.051
			c-0.811,1.367-1.216,3.043-1.216,5.028c0,2.91,0.856,4.926,2.571,6.045s4.392,1.679,8.03,1.679v1.257
			c-1.356,0-2.542-0.055-3.557-0.165s-2.075-0.354-3.184-0.729c-1.107-0.374-2.012-0.879-2.712-1.513S530.257,21.556,529.805,20.441
			z"/>
		<path fill="#717274" d="M544.177,25.437V0.033h1.257v10.502c1.488-1.599,3.082-2.403,4.779-2.415c0.927,0,1.863,0.354,2.812,1.059
			c1.985,1.444,2.978,3.87,2.978,7.277l-0.033,8.98h-1.257l0.033-8.947c0-1.896-0.458-3.556-1.373-4.979
			c-0.915-1.422-2.034-2.134-3.357-2.134c-0.86,0-1.646,0.254-2.356,0.761c-0.711,0.508-1.453,1.202-2.225,2.084v13.215H544.177z"/>
		<path fill="#717274" d="M566.091,12.09c0-2.613,2.012-3.92,6.036-3.92c0.022,0,0.039,0,0.05,0c1.488,0,3.22,0.154,5.193,0.463
			v1.323c-2.029-0.363-3.735-0.546-5.119-0.546s-2.555,0.198-3.515,0.596c-0.959,0.396-1.438,1.029-1.438,1.897
			c0,0.867,0.047,1.536,0.143,2.006c0.094,0.47,0.641,0.811,1.64,1.023s2.009,0.429,3.028,0.646s2.229,0.724,3.627,1.519
			c1.398,0.795,2.098,1.915,2.098,3.361c0,1.654-0.645,2.84-1.935,3.557c-0.629,0.363-1.235,0.652-1.819,0.868
			c-0.585,0.215-1.362,0.355-2.332,0.422c-1.533,0.132-3.005,0.198-4.416,0.198h-0.844v-1.257c2.933,0,5.083-0.179,6.45-0.535
			s2.315-0.817,2.845-1.383s0.794-1.326,0.794-2.281c0-0.954-0.34-1.701-1.019-2.239c-0.68-0.537-1.541-0.896-2.586-1.073
			c-1.044-0.178-2.091-0.356-3.141-0.537c-1.049-0.181-1.936-0.599-2.657-1.255C566.451,14.287,566.091,13.336,566.091,12.09z"/>
		<path fill="#717274" d="M581.488,25.437V0.066h1.24v25.37H581.488z"/>
		<path fill="#717274" d="M587.327,17.481l0.033-8.98h1.257l-0.033,8.947c0,1.896,0.457,3.551,1.373,4.962
			c0.915,1.411,2.053,2.117,3.415,2.117c1.361,0,2.869-0.938,4.523-2.812V8.501h1.257v16.936h-1.257v-2.034
			c-1.467,1.577-3.06,2.365-4.78,2.365c-1.146,0-2.332-0.54-3.556-1.621c-0.65-0.584-1.186-1.452-1.604-2.604
			S587.327,19.036,587.327,17.481z"/>
		<path fill="#717274" d="M601.815,9.758V8.501h3.903V2.91h1.257v5.591h3.92v1.257h-3.92v15.679h-1.257V9.758H601.815z"/>
		<path fill="#717274" d="M612.516,9.758V8.501h1.356V8.335c0-1.555,0.189-2.913,0.57-4.076c0.38-1.163,0.879-2.031,1.497-2.605
			C617.063,0.551,618.193,0,619.329,0c0.562,0,0.932,0.011,1.108,0.033V1.29c-0.132-0.022-0.436-0.033-0.909-0.033
			c-1.312,0-2.374,0.7-3.185,2.101c-0.81,1.4-1.215,3.07-1.215,5.011v0.133h3.241v1.257h-3.241v15.679h-1.257V9.758H612.516z"/>
		<path fill="#717274" d="M619.81,17.349c0-2.712,0.542-4.92,1.626-6.623c1.084-1.704,2.642-2.556,4.673-2.556
			s3.562,0.8,4.593,2.398s1.556,3.517,1.578,5.755c0,1.533-0.148,2.881-0.445,4.044c-0.297,1.164-0.663,2.062-1.097,2.696
			c-0.435,0.634-0.96,1.144-1.575,1.529c-1.528,0.992-3.206,1.196-5.031,0.612c-0.627-0.198-1.289-0.565-1.987-1.1
			c-0.698-0.535-1.262-1.379-1.691-2.531C620.023,20.423,619.81,19.014,619.81,17.349z M621.066,17.415
			c0,1.875,0.382,3.448,1.146,4.722s1.909,1.977,3.437,2.109l0.412,0.032l0.363-0.032c3.065-0.298,4.599-2.884,4.599-7.757
			c0-2.007-0.407-3.688-1.223-5.045c-0.814-1.355-2.108-2.034-3.881-2.034c-1.141,0-2.095,0.397-2.862,1.191
			c-1.327,1.4-1.99,3.578-1.99,6.532V17.415z M622.853,6.334V4.102h1.257v2.232H622.853z M628.592,6.334V4.102h1.257v2.232H628.592z
			"/>
		<path fill="#717274" d="M635.919,25.437V8.501h1.257v2.48c0.474-0.562,1.201-1.166,2.183-1.811
			c0.981-0.646,1.919-0.968,2.812-0.968c0.893,0,1.673,0.254,2.34,0.761s1.012,1.334,1.033,2.48h-1.257
			c0-0.628-0.204-1.124-0.611-1.488c-0.408-0.363-0.96-0.546-1.654-0.546s-1.546,0.339-2.555,1.018
			c-1.01,0.678-1.772,1.425-2.291,2.241v12.768H635.919z"/>
		<path fill="#717274" d="M646.339,9.758V8.501h3.903V2.91h1.257v5.591h3.92v1.257h-3.92v15.679h-1.257V9.758H646.339z"/>
		<path fill="#717274" d="M664.134,1.72h1.29l-0.198,4.614h-0.927L664.134,1.72z M669.211,1.72h1.29l-0.198,4.614h-0.909
			L669.211,1.72z"/>
		<path fill="#717274" d="M673.312,8.021c0-2.128,0.593-3.711,1.778-4.747c1.185-1.036,2.602-1.555,4.25-1.555
			s3.454,0.16,5.417,0.479v1.257c-1.765-0.319-3.413-0.479-4.945-0.479c-1.533,0-2.79,0.431-3.771,1.29
			c-0.982,0.86-1.473,2.067-1.473,3.622c0,1.356,0.7,2.371,2.101,3.043c0.629,0.32,1.32,0.615,2.076,0.885
			c0.755,0.271,1.516,0.576,2.282,0.918c0.766,0.342,1.461,0.744,2.084,1.208c0.622,0.463,1.133,1.105,1.529,1.927
			c0.397,0.821,0.596,1.78,0.596,2.877c0,1.098-0.254,2.062-0.761,2.895c-0.508,0.833-1.136,1.486-1.886,1.96
			c-0.75,0.475-1.621,0.86-2.613,1.158c-1.599,0.496-3.401,0.744-5.408,0.744h-0.859v-1.257c4.024,0,6.94-0.8,8.749-2.398
			c1.014-0.882,1.521-1.954,1.521-3.217s-0.367-2.274-1.101-3.035s-1.62-1.325-2.662-1.695c-1.042-0.369-2.087-0.746-3.135-1.133
			c-1.047-0.386-1.938-0.968-2.671-1.745S673.312,9.245,673.312,8.021z"/>
		<path fill="#717274" d="M688.909,25.437V8.501h1.257v2.034c1.466-1.577,3.06-2.365,4.779-2.365c0.695,0,1.456,0.248,2.283,0.744
			c0.826,0.496,1.521,1.273,2.083,2.332c1.599-2.051,3.44-3.076,5.524-3.076c1.146,0,2.343,0.54,3.589,1.621
			c0.629,0.584,1.152,1.452,1.571,2.604s0.628,2.506,0.628,4.061l-0.032,8.98h-1.257l0.032-8.947c0-1.896-0.457-3.551-1.372-4.962
			c-0.916-1.411-2.034-2.117-3.357-2.117c-0.883,0-1.77,0.307-2.663,0.918c-0.893,0.612-1.621,1.315-2.183,2.108
			c0.407,1.169,0.611,2.509,0.611,4.02l-0.033,8.98h-1.257l0.033-8.947c0-1.896-0.425-3.551-1.273-4.962
			c-0.85-1.411-1.933-2.117-3.25-2.117s-2.803,0.938-4.457,2.812v13.215H688.909z"/>
		<path fill="#717274" d="M714.825,20.441c-0.452-1.113-0.678-2.37-0.678-3.771s0.141-2.604,0.421-3.613
			c0.281-1.01,0.643-1.812,1.084-2.407c0.44-0.595,0.932-1.086,1.472-1.472c0.948-0.694,1.886-1.047,2.812-1.059
			c1.698,0,3.291,0.806,4.78,2.415V8.501h1.257V25.47c-1.356,0-2.542-0.055-3.557-0.165c-1.014-0.11-2.069-0.354-3.167-0.729
			c-1.097-0.374-1.995-0.879-2.695-1.513S715.277,21.556,714.825,20.441z M715.404,16.489c0,2.955,0.915,5.011,2.745,6.169
			c1.621,1.015,3.81,1.521,6.566,1.521V12.222c-0.772-0.882-1.514-1.576-2.225-2.084c-0.712-0.507-1.497-0.761-2.357-0.761
			c-1.422,0-2.566,0.626-3.432,1.878C715.837,12.506,715.404,14.251,715.404,16.489z"/>
		<path fill="#717274" d="M730.702,25.437V8.501h1.257v2.48c0.474-0.562,1.201-1.166,2.183-1.811
			c0.981-0.646,1.919-0.968,2.812-0.968c0.893,0,1.673,0.254,2.34,0.761s1.012,1.334,1.033,2.48h-1.257
			c0-0.628-0.204-1.124-0.611-1.488c-0.408-0.363-0.96-0.546-1.654-0.546s-1.546,0.339-2.555,1.018
			c-1.01,0.678-1.772,1.425-2.291,2.241v12.768H730.702z"/>
		<path fill="#717274" d="M741.122,9.758V8.501h3.903V2.91h1.257v5.591h3.92v1.257h-3.92v15.679h-1.257V9.758H741.122z"/>
		<path fill="#717274" d="M759.728,25.437V8.501h1.257v2.034c1.466-1.577,3.06-2.365,4.779-2.365c0.695,0,1.456,0.248,2.283,0.744
			c0.826,0.496,1.521,1.273,2.083,2.332c1.599-2.051,3.44-3.076,5.524-3.076c1.146,0,2.343,0.54,3.589,1.621
			c0.629,0.584,1.152,1.452,1.571,2.604s0.628,2.506,0.628,4.061l-0.032,8.98h-1.257l0.032-8.947c0-1.896-0.457-3.551-1.372-4.962
			c-0.916-1.411-2.034-2.117-3.357-2.117c-0.883,0-1.77,0.307-2.663,0.918c-0.893,0.612-1.621,1.315-2.183,2.108
			c0.407,1.169,0.611,2.509,0.611,4.02l-0.033,8.98h-1.257l0.033-8.947c0-1.896-0.425-3.551-1.273-4.962
			c-0.85-1.411-1.933-2.117-3.25-2.117s-2.803,0.938-4.457,2.812v13.215H759.728z"/>
		<path fill="#717274" d="M785.627,20.441c-0.463-1.113-0.694-2.444-0.694-3.994c0-1.549,0.209-2.899,0.628-4.052
			s0.954-2.021,1.604-2.604c1.224-1.081,2.409-1.621,3.556-1.621c1.919,0,3.415,0.562,4.49,1.687
			c1.075,1.125,1.613,2.613,1.613,4.466c0,1.246-0.012,1.969-0.033,2.167h-10.602c0,2.91,0.868,4.926,2.604,6.045
			s4.436,1.679,8.096,1.679v1.257c-1.355,0-2.547-0.055-3.572-0.165s-2.092-0.354-3.2-0.729c-1.108-0.374-2.018-0.879-2.729-1.513
			C786.677,22.43,786.09,21.556,785.627,20.441z M786.223,15.249h9.344v-0.761c0-1.489-0.424-2.707-1.273-3.655
			c-0.849-0.948-1.968-1.423-3.357-1.423c-1.389,0-2.483,0.549-3.282,1.646C786.854,12.153,786.377,13.551,786.223,15.249z"/>
		<path fill="#717274" d="M800.297,20.441c-0.452-1.113-0.678-2.37-0.678-3.771s0.141-2.604,0.421-3.613
			c0.281-1.01,0.643-1.812,1.084-2.407c0.44-0.595,0.932-1.086,1.472-1.472c0.948-0.694,1.886-1.047,2.812-1.059
			c1.698,0,3.291,0.806,4.78,2.415V0.033h1.257V25.47c-1.356,0-2.542-0.055-3.557-0.165c-1.014-0.11-2.069-0.354-3.167-0.729
			c-1.097-0.374-1.995-0.879-2.695-1.513S800.749,21.556,800.297,20.441z M802.248,11.511c-0.915,1.423-1.372,2.975-1.372,4.655
			c0,1.682,0.236,3.044,0.711,4.086c0.474,1.042,1.152,1.844,2.034,2.406c1.621,1.015,3.81,1.521,6.566,1.521V12.222
			c-0.772-0.882-1.514-1.576-2.225-2.084c-0.712-0.507-1.497-0.761-2.357-0.761C804.282,9.377,803.163,10.089,802.248,11.511z"/>
		<path fill="#717274" d="M823.253,25.437V1.687h1.621l5.788,13.281l5.756-13.281h1.67v23.75h-1.257l0.066-21.749l-5.656,12.983
			h-1.158l-5.656-12.983v21.749H823.253z"/>
		<path fill="#717274" d="M842.719,20.441c-0.452-1.113-0.678-2.37-0.678-3.771s0.141-2.604,0.421-3.613
			c0.281-1.01,0.643-1.812,1.084-2.407c0.44-0.595,0.932-1.086,1.472-1.472c0.948-0.694,1.886-1.047,2.812-1.059
			c1.698,0,3.291,0.806,4.78,2.415V8.501h1.257V25.47c-1.356,0-2.542-0.055-3.557-0.165c-1.014-0.11-2.069-0.354-3.167-0.729
			c-1.097-0.374-1.995-0.879-2.695-1.513S843.171,21.556,842.719,20.441z M843.298,16.489c0,2.955,0.915,5.011,2.745,6.169
			c1.621,1.015,3.81,1.521,6.566,1.521V12.222c-0.772-0.882-1.514-1.576-2.225-2.084c-0.712-0.507-1.497-0.761-2.357-0.761
			c-1.422,0-2.566,0.626-3.432,1.878C843.73,12.506,843.298,14.251,843.298,16.489z"/>
		<path fill="#717274" d="M856.529,9.758V8.501h3.903V2.91h1.257v5.591h3.92v1.257h-3.92v15.679h-1.257V9.758H856.529z"/>
		<path fill="#717274" d="M867.461,1.72h1.29l-0.198,4.614h-0.927L867.461,1.72z M872.538,1.72h1.29l-0.198,4.614h-0.909
			L872.538,1.72z"/>
	</g>
	<g>
		<path fill="#3E3D3F" d="M348.744,213.524h-1.495V185.3h1.495V213.524z"/>
		<path fill="#3E3D3F" d="M367.224,213.524l0.041-10.674c0-2.267-0.547-4.241-1.639-5.926c-1.092-1.685-2.454-2.524-4.084-2.524
			s-3.431,1.117-5.399,3.354v15.771h-1.495v-20.218h1.495v2.428c1.754-1.889,3.655-2.832,5.702-2.832
			c1.376,0,2.804,0.644,4.288,1.938c0.755,0.705,1.379,1.743,1.879,3.117c0.501,1.374,0.748,2.992,0.748,4.85l-0.038,10.717H367.224
			z"/>
		<path fill="#3E3D3F" d="M385.583,193.307h1.494v20.905c0,1.86-0.229,3.485-0.685,4.872c-0.459,1.39-1.039,2.42-1.739,3.097
			c-1.378,1.318-2.737,1.979-4.084,1.979c-1.807,0-3.507-0.755-5.097-2.264v-1.939c1.699,1.802,3.384,2.705,5.055,2.705
			c1.672,0,2.931-0.799,3.781-2.404c0.851-1.604,1.274-3.631,1.274-6.087v-0.646c-4.825-0.188-8.198-1.238-10.11-3.154
			c-1.67-1.723-2.506-4.244-2.506-7.562c0-4.071,1.186-6.967,3.558-8.691c1.132-0.838,2.25-1.255,3.357-1.255
			c2.021,0,3.921,0.957,5.702,2.873V193.307z M376.101,196.907c-1.092,1.694-1.639,3.552-1.639,5.557
			c0,2.011,0.282,3.634,0.85,4.873c0.565,1.241,1.374,2.198,2.428,2.872c1.938,1.214,4.555,1.819,7.844,1.819v-14.274
			c-0.918-1.053-1.801-1.88-2.648-2.485c-0.85-0.608-1.787-0.908-2.813-0.908C378.533,194.36,377.192,195.207,376.101,196.907z"/>
		<path fill="#3E3D3F" d="M405.639,212.072v1.493c-1.615,0-3.041-0.068-4.264-0.203c-1.227-0.133-2.501-0.423-3.823-0.868
			c-1.32-0.447-2.406-1.043-3.253-1.799c-0.851-0.756-1.553-1.802-2.104-3.135c-0.554-1.333-0.83-2.924-0.83-4.773
			c0-1.845,0.249-3.455,0.747-4.829c0.5-1.374,1.139-2.412,1.922-3.117c1.456-1.295,2.872-1.938,4.246-1.938
			c2.291,0,4.077,0.674,5.357,2.022c1.283,1.346,1.921,3.127,1.921,5.336c0,1.483-0.016,2.346-0.038,2.59h-12.658
			c0,3.479,1.036,5.883,3.113,7.217C398.049,211.402,401.27,212.072,405.639,212.072z M404.064,201.353v-0.889
			c0-1.78-0.506-3.233-1.519-4.368c-1.01-1.13-2.346-1.695-4.001-1.695c-1.661,0-2.966,0.651-3.922,1.96
			c-0.959,1.305-1.533,2.972-1.721,4.992H404.064z"/>
		<path fill="#3E3D3F" d="M411.746,213.524h-1.496v-30.286h1.496V213.524z"/>
		<path fill="#3E3D3F" d="M428.852,193.307h1.494v20.259c-1.618,0-3.033-0.068-4.244-0.203c-1.213-0.133-2.476-0.423-3.781-0.868
			c-1.308-0.447-2.382-1.043-3.216-1.799c-0.837-0.756-1.521-1.802-2.063-3.135c-0.537-1.333-0.807-2.84-0.807-4.511
			c0-1.67,0.168-3.107,0.504-4.303c0.338-1.201,0.769-2.158,1.295-2.873c0.527-0.715,1.112-1.3,1.758-1.758
			c1.135-0.838,2.252-1.255,3.359-1.255c2.02,0,3.921,0.957,5.702,2.873V193.307z M417.73,202.851c0,3.529,1.092,5.984,3.275,7.358
			c1.941,1.214,4.557,1.819,7.847,1.819v-14.274c-0.918-1.053-1.801-1.88-2.651-2.485c-0.848-0.608-1.787-0.908-2.809-0.908
			c-1.7,0-3.066,0.745-4.107,2.241C418.247,198.098,417.73,200.18,417.73,202.851z"/>
		<path fill="#3E3D3F" d="M460.675,213.524l0.079-25.963l-6.753,15.488h-1.374l-6.753-15.488v25.963h-1.417V185.18h1.941
			l6.918,15.852l6.873-15.852h1.979v28.345H460.675z"/>
		<path fill="#3E3D3F" d="M481.822,202.647c0,1.832-0.176,3.445-0.527,4.834c-0.349,1.39-0.788,2.458-1.315,3.214
			c-0.521,0.756-1.149,1.361-1.878,1.816c-1.834,1.188-3.842,1.431-6.027,0.73c-0.753-0.241-1.547-0.682-2.382-1.315
			c-0.84-0.634-1.514-1.639-2.025-3.01c-0.511-1.377-0.769-3.062-0.769-5.056c0-3.236,0.649-5.873,1.944-7.908
			c1.293-2.036,3.157-3.051,5.601-3.051c2.439,0,4.271,0.956,5.498,2.87C481.171,197.686,481.794,199.979,481.822,202.647z
			 M473.896,212.11l0.485,0.04l0.442-0.04c3.667-0.352,5.502-3.438,5.502-9.26c0-2.401-0.486-4.409-1.458-6.025
			c-0.967-1.618-2.52-2.425-4.649-2.425c-1.374,0-2.521,0.471-3.435,1.412c-1.593,1.672-2.387,4.275-2.387,7.805v0.325
			c0,2.239,0.455,4.114,1.374,5.639C470.688,211.105,472.064,211.947,473.896,212.11z"/>
		<path fill="#3E3D3F" d="M487.646,213.524h-1.499v-20.218h1.499v2.954c0.564-0.677,1.435-1.396,2.605-2.165
			c1.173-0.769,2.292-1.155,3.355-1.155c1.066,0,1.995,0.306,2.792,0.913c0.796,0.605,1.206,1.593,1.233,2.972h-1.496
			c0-0.755-0.241-1.348-0.728-1.78s-1.147-0.645-1.982-0.645c-0.837,0-1.854,0.402-3.053,1.212
			c-1.198,0.807-2.107,1.697-2.728,2.666V213.524z"/>
		<path fill="#3E3D3F" d="M506.811,193.307v1.496h-3.88v18.722h-1.499v-18.722h-1.615v-1.496h1.615v-0.201
			c0-1.859,0.229-3.483,0.689-4.872c0.458-1.39,1.051-2.423,1.779-3.095c1.348-1.322,2.694-1.984,4.043-1.984
			c0.674,0,1.119,0.016,1.336,0.041v1.498c-0.163-0.025-0.527-0.04-1.095-0.04c-1.562,0-2.829,0.834-3.799,2.506
			c-0.969,1.675-1.455,3.669-1.455,5.984v0.163H506.811z"/>
		<path fill="#3E3D3F" d="M522.825,212.072v1.493c-1.618,0-3.04-0.068-4.267-0.203c-1.227-0.133-2.501-0.423-3.822-0.868
			c-1.32-0.447-2.406-1.043-3.254-1.799c-0.85-0.756-1.55-1.802-2.104-3.135c-0.552-1.333-0.829-2.924-0.829-4.773
			c0-1.845,0.252-3.455,0.75-4.829c0.499-1.374,1.141-2.412,1.922-3.117c1.452-1.295,2.87-1.938,4.246-1.938
			c2.288,0,4.074,0.674,5.356,2.022c1.282,1.346,1.918,3.127,1.918,5.336c0,1.483-0.01,2.346-0.038,2.59h-12.656
			c0,3.479,1.036,5.883,3.112,7.217C515.235,211.402,518.459,212.072,522.825,212.072z M521.248,201.353v-0.889
			c0-1.78-0.507-3.233-1.514-4.368c-1.013-1.13-2.349-1.695-4.005-1.695c-1.659,0-2.967,0.651-3.924,1.96
			c-0.959,1.305-1.532,2.972-1.718,4.992H521.248z"/>
		<path fill="#3E3D3F" d="M528.93,213.524h-1.493v-30.286h1.493V213.524z"/>
		<path fill="#3E3D3F" d="M546.036,183.195h1.498v30.37c-1.618,0-3.035-0.068-4.249-0.203c-1.211-0.133-2.471-0.423-3.781-0.868
			c-1.305-0.447-2.379-1.043-3.213-1.799c-0.838-0.756-1.524-1.802-2.062-3.135c-0.542-1.333-0.809-2.84-0.809-4.511
			c0-1.67,0.168-3.107,0.506-4.303c0.333-1.201,0.766-2.158,1.29-2.873c0.527-0.715,1.112-1.3,1.761-1.758
			c1.133-0.838,2.249-1.255,3.356-1.255c2.021,0,3.924,0.957,5.702,2.873V183.195z M536.553,196.907
			c-1.092,1.694-1.639,3.552-1.639,5.557c0,2.011,0.282,3.634,0.85,4.873c0.565,1.241,1.374,2.198,2.428,2.872
			c1.938,1.214,4.555,1.819,7.845,1.819v-14.274c-0.919-1.053-1.802-1.88-2.649-2.485c-0.85-0.608-1.786-0.908-2.809-0.908
			C538.985,194.36,537.645,195.207,536.553,196.907z"/>
		<path fill="#3E3D3F" d="M555.377,194.803h-4.651v-1.496h4.651v-6.674h1.496v6.674h4.689v1.496h-4.689v18.722h-1.496V194.803z"/>
		<path fill="#717274" d="M332.781,258.396l-4.422-20.503h1.083l4.072,18.745l4.07-18.745h1.085l-4.365,20.503H332.781z"/>
		<path fill="#717274" d="M351.674,239.417v18.979h-1.084v-9.663h-8.319v9.663h-1.083v-13.414c0-2.109,0.673-3.837,2.02-5.183
			c1.347-1.349,3.037-2.023,5.067-2.023C349.759,237.775,350.893,238.323,351.674,239.417z M350.59,247.646v-7.818
			c-0.626-0.645-1.416-0.968-2.374-0.968c-1.717,0-3.138,0.626-4.259,1.876c-1.124,1.249-1.686,2.674-1.686,4.277v2.633H350.59z"/>
		<path fill="#717274" d="M368.778,255.292c0.88-0.764,1.319-1.688,1.319-2.784c0-1.094-0.318-1.964-0.953-2.62
			c-0.634-0.651-1.399-1.143-2.299-1.466c-0.898-0.32-1.802-0.648-2.708-0.982c-0.909-0.331-1.68-0.832-2.315-1.509
			c-0.632-0.672-0.951-1.534-0.951-2.59c0-1.835,0.512-3.201,1.537-4.102c1.025-0.896,2.25-1.347,3.675-1.347
			c1.426,0,2.988,0.138,4.687,0.41v1.084c-1.524-0.272-2.948-0.41-4.275-0.41c-1.329,0-2.417,0.372-3.267,1.114
			c-0.85,0.741-1.274,1.787-1.274,3.135c0,1.171,0.605,2.049,1.815,2.634c0.548,0.275,1.149,0.529,1.801,0.764
			c0.654,0.234,1.314,0.499,1.977,0.789c0.666,0.292,1.265,0.641,1.801,1.038c0.537,0.401,0.979,0.959,1.319,1.671
			c0.341,0.716,0.513,1.542,0.513,2.489c0,0.948-0.221,1.78-0.66,2.506c-0.439,0.72-0.979,1.287-1.623,1.697
			c-0.646,0.412-1.398,0.743-2.257,0.997c-1.388,0.431-2.948,0.644-4.687,0.644h-0.73v-1.084
			C364.696,257.37,367.215,256.676,368.778,255.292z"/>
		<path fill="#717274" d="M374.605,255.468l1.173,0.027c0.683,1.25,1.664,1.875,2.945,1.875c1.279,0,2.327-0.511,3.147-1.536
			c0.821-1.025,1.229-2.545,1.229-4.555v-2.52c-0.938,1.445-2.308,2.168-4.114,2.168c-1.808,0-3.14-0.694-3.999-2.081
			c-0.859-1.384-1.288-3.073-1.288-5.068v-5.886h1.083v5.86c0,2.008,0.391,3.529,1.173,4.552c0.78,1.025,1.712,1.539,2.795,1.539
			c1.085,0,2.013-0.323,2.784-0.967c0.772-0.644,1.294-1.601,1.566-2.87v-8.114h1.085v13.415c0,2.229-0.46,3.977-1.376,5.244
			c-0.918,1.27-2.295,1.902-4.131,1.902C376.844,258.454,375.486,257.46,374.605,255.468z"/>
		<path fill="#717274" d="M399.005,248.554c0,1.445-0.177,2.769-0.526,3.97c-0.351,1.201-0.827,2.17-1.421,2.916
			c-0.597,0.74-1.354,1.336-2.27,1.786c-1.66,0.84-3.749,1.26-6.268,1.26v-20.623c2.674,0,4.782,0.402,6.325,1.203
			c1.327,0.703,2.323,1.748,2.987,3.133C398.612,243.801,399.005,245.918,399.005,248.554z M397.92,248.233
			c0-6.149-2.772-9.229-8.318-9.229v18.365c3.163-0.038,5.37-0.943,6.619-2.722C397.355,253.045,397.92,250.907,397.92,248.233z"/>
		<path fill="#717274" d="M404.364,255.525l-3.192,6.122h-1.464l2.46-6.122H404.364z"/>
		<path fill="#717274" d="M421.88,243.753h1.084v14.671c-1.17,0-2.196-0.046-3.076-0.145c-0.878-0.097-1.791-0.306-2.738-0.632
			c-0.946-0.32-1.725-0.753-2.328-1.303c-0.608-0.547-1.102-1.303-1.494-2.27c-0.392-0.967-0.585-2.053-0.585-3.267
			c0-1.209,0.122-2.247,0.366-3.119c0.242-0.868,0.555-1.562,0.937-2.077c0.381-0.519,0.804-0.941,1.272-1.274
			c0.822-0.605,1.631-0.908,2.433-0.908c1.463,0,2.839,0.692,4.129,2.081V243.753z M413.824,250.663
			c0,2.561,0.792,4.334,2.374,5.331c1.405,0.878,3.3,1.318,5.682,1.318v-10.339c-0.664-0.761-1.303-1.361-1.918-1.801
			c-0.616-0.44-1.295-0.659-2.036-0.659c-1.229,0-2.221,0.539-2.974,1.626C414.198,247.224,413.824,248.732,413.824,250.663z"/>
		<path fill="#717274" d="M430.725,258.396l-5.387-14.643h1.082l4.834,12.885l4.656-12.885h1.084l-5.186,14.643H430.725z"/>
		<path fill="#717274" d="M443.523,243.753v1.084h-2.81v13.559h-1.084v-13.559h-1.173v-1.084h1.173v-0.147
			c0-1.349,0.165-2.524,0.496-3.529c0.334-1.008,0.764-1.753,1.29-2.242c0.978-0.956,1.952-1.435,2.929-1.435
			c0.488,0,0.812,0.01,0.967,0.03v1.084c-0.117-0.021-0.382-0.03-0.791-0.03c-1.132,0-2.048,0.605-2.753,1.816
			c-0.702,1.211-1.054,2.654-1.054,4.333v0.12H443.523z"/>
		<path fill="#717274" d="M453.953,243.753h1.084v14.671c-1.174,0-2.199-0.046-3.077-0.145c-0.88-0.097-1.791-0.306-2.737-0.632
			c-0.949-0.32-1.726-0.753-2.328-1.303c-0.605-0.547-1.104-1.303-1.496-2.27c-0.39-0.967-0.585-2.053-0.585-3.267
			c0-1.209,0.122-2.247,0.366-3.119c0.244-0.868,0.557-1.562,0.938-2.077c0.382-0.519,0.805-0.941,1.275-1.274
			c0.819-0.605,1.628-0.908,2.427-0.908c1.469,0,2.845,0.692,4.133,2.081V243.753z M445.896,250.663
			c0,2.561,0.792,4.334,2.374,5.331c1.405,0.878,3.301,1.318,5.683,1.318v-10.339c-0.664-0.761-1.303-1.361-1.919-1.801
			c-0.616-0.44-1.295-0.659-2.035-0.659c-1.229,0-2.222,0.539-2.975,1.626C446.273,247.224,445.896,248.732,445.896,250.663z"/>
		<path fill="#717274" d="M460.339,258.396h-1.086v-21.938h1.086V258.396z"/>
		<path fill="#717274" d="M465.756,258.396h-1.083v-21.938h1.083V258.396z"/>
		<path fill="#717274" d="M474.792,256.902c1.181-0.311,2-0.712,2.458-1.201c0.46-0.485,0.689-1.147,0.689-1.977
			c0-0.83-0.311-1.481-0.937-1.946c-0.626-0.471-1.382-0.771-2.272-0.911c-0.888-0.135-1.776-0.285-2.661-0.45
			c-0.891-0.168-1.646-0.535-2.272-1.103c-0.626-0.564-0.937-1.384-0.937-2.457c0-2.265,1.756-3.397,5.272-3.397
			c1.29,0,2.781,0.135,4.48,0.41v1.143c-1.756-0.313-3.231-0.471-4.422-0.471c-1.191,0-2.201,0.17-3.03,0.511
			c-0.832,0.344-1.245,0.921-1.245,1.73c0,0.812,0.311,1.433,0.935,1.875c0.626,0.438,1.382,0.743,2.271,0.906
			c0.889,0.168,1.781,0.356,2.68,0.572c0.898,0.214,1.659,0.639,2.285,1.274c0.623,0.632,0.937,1.527,0.937,2.68
			c0,1.428-0.555,2.45-1.667,3.076c-0.55,0.311-1.076,0.56-1.585,0.745c-0.507,0.187-1.181,0.309-2.021,0.367
			c-1.328,0.116-2.598,0.175-3.809,0.175h-0.73v-1.084C471.751,257.37,473.608,257.213,474.792,256.902z"/>
		<path fill="#717274" d="M490.355,243.753h1.087v14.671c-1.173,0-2.198-0.046-3.076-0.145c-0.878-0.097-1.791-0.306-2.737-0.632
			c-0.949-0.32-1.726-0.753-2.331-1.303c-0.604-0.547-1.102-1.303-1.494-2.27c-0.389-0.967-0.585-2.053-0.585-3.267
			c0-1.209,0.125-2.247,0.366-3.119c0.244-0.868,0.558-1.562,0.939-2.077c0.379-0.519,0.804-0.941,1.272-1.274
			c0.821-0.605,1.631-0.908,2.432-0.908c1.464,0,2.843,0.692,4.127,2.081V243.753z M482.303,250.663
			c0,2.561,0.791,4.334,2.374,5.331c1.404,0.878,3.3,1.318,5.679,1.318v-10.339c-0.661-0.761-1.3-1.361-1.915-1.801
			c-0.616-0.44-1.296-0.659-2.036-0.659c-1.231,0-2.221,0.539-2.975,1.626C482.68,247.224,482.303,248.732,482.303,250.663z"/>
		<path fill="#717274" d="M499.203,258.396l-5.39-14.643h1.084l4.835,12.885l4.656-12.885h1.081l-5.183,14.643H499.203z"/>
		<path fill="#717274" d="M515.958,236.43h1.081v21.994c-1.17,0-2.195-0.046-3.073-0.145c-0.878-0.097-1.791-0.306-2.738-0.632
			c-0.946-0.32-1.725-0.753-2.33-1.303c-0.605-0.547-1.102-1.303-1.494-2.27c-0.389-0.967-0.585-2.053-0.585-3.267
			c0-1.209,0.122-2.247,0.366-3.119c0.244-0.868,0.555-1.562,0.937-2.077c0.382-0.519,0.807-0.941,1.275-1.274
			c0.821-0.605,1.631-0.908,2.432-0.908c1.464,0,2.84,0.692,4.13,2.081V236.43z M509.091,246.358
			c-0.792,1.231-1.188,2.575-1.188,4.027c0,1.453,0.203,2.629,0.616,3.529c0.409,0.898,0.994,1.591,1.755,2.079
			c1.407,0.878,3.303,1.318,5.685,1.318v-10.339c-0.664-0.761-1.306-1.361-1.921-1.801c-0.613-0.44-1.293-0.659-2.035-0.659
			C510.849,244.514,509.88,245.127,509.091,246.358z"/>
		<path fill="#717274" d="M530.487,257.343v1.081c-1.174,0-2.204-0.046-3.092-0.145c-0.888-0.097-1.812-0.306-2.769-0.632
			c-0.957-0.32-1.743-0.753-2.358-1.303c-0.613-0.547-1.122-1.303-1.521-2.27s-0.601-2.116-0.601-3.455
			c0-1.338,0.181-2.504,0.542-3.498c0.361-0.998,0.824-1.748,1.389-2.258c1.057-0.936,2.082-1.404,3.076-1.404
			c1.662,0,2.954,0.486,3.881,1.461c0.929,0.979,1.392,2.27,1.392,3.867c0,1.076-0.01,1.7-0.03,1.875h-9.165
			c0,2.52,0.75,4.263,2.254,5.229S527.321,257.343,530.487,257.343z M529.345,249.579v-0.644c0-1.29-0.367-2.343-1.1-3.162
			c-0.732-0.822-1.699-1.231-2.9-1.231s-2.147,0.473-2.84,1.419c-0.694,0.949-1.109,2.155-1.247,3.618H529.345z"/>
		<path fill="#717274" d="M534.909,258.396h-1.087v-21.938h1.087V258.396z"/>
		<path fill="#717274" d="M548.234,258.396l0.028-7.732c0-1.641-0.395-3.068-1.187-4.29c-0.791-1.221-1.775-1.831-2.959-1.831
			c-1.181,0-2.483,0.812-3.908,2.432v11.422h-1.084v-14.643h1.084v1.758c1.27-1.369,2.646-2.051,4.13-2.051
			c0.997,0,2.03,0.469,3.104,1.404c0.547,0.51,1,1.26,1.361,2.258c0.363,0.994,0.542,2.165,0.542,3.514l-0.028,7.76H548.234z"/>
		<path fill="#717274" d="M554.326,258.396h-1.084v-14.643h1.084V258.396z M553.301,238.918h1.083v2.52h-1.083V238.918z"/>
		<path fill="#717274" d="M567.534,258.396l0.03-7.732c0-1.641-0.395-3.068-1.186-4.29c-0.791-1.221-1.778-1.831-2.959-1.831
			s-2.483,0.812-3.911,2.432v11.422h-1.081v-14.643h1.081v1.758c1.27-1.369,2.648-2.051,4.13-2.051c0.997,0,2.032,0.469,3.106,1.404
			c0.547,0.51,1,1.26,1.361,2.258c0.361,0.994,0.542,2.165,0.542,3.514l-0.028,7.76H567.534z"/>
		<path fill="#717274" d="M580.834,243.753h1.084v15.14c0,1.348-0.166,2.523-0.499,3.528c-0.331,1.008-0.753,1.756-1.26,2.242
			c-0.995,0.959-1.981,1.438-2.956,1.438c-1.311,0-2.54-0.55-3.692-1.642v-1.406c1.229,1.308,2.45,1.964,3.661,1.964
			c1.212,0,2.122-0.583,2.738-1.743c0.615-1.162,0.924-2.633,0.924-4.409v-0.469c-3.496-0.135-5.939-0.896-7.323-2.284
			c-1.211-1.25-1.816-3.074-1.816-5.476c0-2.949,0.859-5.049,2.577-6.298c0.819-0.605,1.631-0.908,2.433-0.908
			c1.463,0,2.84,0.692,4.13,2.081V243.753z M573.964,246.358c-0.789,1.231-1.186,2.575-1.186,4.027c0,1.453,0.206,2.629,0.615,3.529
			c0.41,0.898,0.995,1.591,1.759,2.079c1.404,0.878,3.297,1.318,5.682,1.318v-10.339c-0.667-0.761-1.306-1.361-1.919-1.801
			c-0.615-0.44-1.292-0.659-2.035-0.659C575.727,244.514,574.755,245.127,573.964,246.358z"/>
	</g>
	
		<line fill="none" stroke="#3E3D3F" stroke-width="0.75" stroke-miterlimit="10" x1="179.361" y1="138.299" x2="719.229" y2="138.299"/>
	<g>
		<g>
			<path fill="#3E3D3F" d="M365.719,125.745c-0.401-22.081,5.774-48.791,28.873-57.295c5.572-2.051,11.956-2.794,17.87-2.295
				c8.48,0.715-3.543,13.613-5.376,16.394c-7.787,11.81-13.981,26.072-13.944,40.424c0.003,1.041,1.963,0.768,1.961-0.134
				c-0.048-18.062,9.354-34.25,19.99-48.123c1.726-2.251,4.591-7.912,0.221-9.442c-5.272-1.846-12.174-0.512-17.457,0.719
				c-26.591,6.199-34.532,36.038-34.099,59.887C363.777,126.92,365.735,126.644,365.719,125.745L365.719,125.745z"/>
		</g>
	</g>
	<g>
		<g>
			<path fill="#3E3D3F" d="M362.779,110.045c13.3-7.8,27.108-16.985,42.694-19.315c6.831-1.021,1.167,11.219,0.23,13.427
				c-1.689,3.984-4.119,8.06-4.805,12.385c-0.127,0.801,1.259,0.532,1.597,0.285c4.464-3.271,8.076-7.681,12.273-11.305
				c4.437-3.831,8.476-7.9,11.588-12.893c0.527-0.846-1.325-0.79-1.708-0.307c-5.131,6.464-12.262,14.98-12.234,23.667
				c0.029,8.888,10.342,0.684,12.854-1.568c-0.587,0.008-1.173,0.017-1.76,0.025c1.157,7.007,16.729,3.515,21.279,3.934
				c18.979,1.749,38.121,1,57.152,1.291c0.847,0.013,2.012-1.258,0.703-1.278c-15.914-0.243-31.836,0.094-47.739-0.657
				c-5.303-0.25-10.501-0.834-15.809-0.608c-3.313,0.141-12.874,1.533-13.655-3.199c-0.126-0.763-1.451-0.252-1.76,0.025
				c-1.486,1.332-7.612,7.736-9.219,2.561c-0.876-2.823,1.017-6.592,2.139-9.034c2.436-5.295,6.031-10.148,9.637-14.692
				c-0.569-0.103-1.139-0.205-1.708-0.307c-3.06,4.908-7.026,8.794-11.351,12.574c-4.044,3.535-7.611,7.85-11.931,11.016
				c0.532,0.095,1.064,0.19,1.597,0.285c0.798-5.031,13.525-24.012,5.123-26.868c-2.032-0.691-5.134,0.476-7.053,1.016
				c-4.168,1.174-8.307,2.487-12.333,4.09c-9.532,3.796-18.235,9.526-27.05,14.696C360.403,109.951,362.051,110.472,362.779,110.045
				L362.779,110.045z"/>
		</g>
	</g>
	<g>
		<g>
			<path fill="#3E3D3F" d="M474.843,90.358c-0.913-6.055-6.219-12.344-10.747-16.117c-4.383-3.651-8.026-1.524-8.308,3.868
				c-0.01,0.186,0.056,0.353,0.225,0.45c5.427,3.102,12.3,1.637,17.843-0.424c7.233-2.689,14.619-6.681,19.873-12.45
				c-0.592-0.056-1.184-0.112-1.775-0.168c-2.879,20.328-7.284,40.404-14.489,59.664c-2.506,6.696-5.451,13.214-8.688,19.585
				c-2.608,5.135-5.526,10.954-10.167,14.547c-4.216,3.265-6.659-2.671-7.717-5.743c-1.441-4.188-1.264-8.797-0.643-13.111
				c0.674-4.678,2.488-9.476,5.264-13.313c3.252-4.497,9.118-4.916,14.173-5.027c6.223-0.136,12.816,0.3,18.497-2.699
				c4.629-2.443,5.964-7.593,6.367-12.419c0.076-0.916-1.66-0.637-1.894-0.002c-4.729,12.871,14.207,3.517,17.658-1.44
				c-0.632-0.001-1.263-0.001-1.894-0.002c-1.412,5.804-3.194,12.661,5.174,10.128c9.506-2.876,17.959-12.212,18.41-22.246
				c0.035-0.783-1.207-0.658-1.605-0.317c-8.126,6.951-5.892,18.771,2.341,24.667c8.079,5.787,23.113,3.524,30.563-2.23
				c1.04-0.803-0.542-1.359-1.26-0.805c-7.173,5.54-19.961,6.701-27.803,1.964c-7.842-4.736-9.67-16.729-2.582-22.792
				c-0.535-0.105-1.07-0.211-1.605-0.317c-0.34,7.563-4.822,13.379-10.776,17.687c-1.826,1.322-10.384,6.508-10.361,1.156
				c0.01-2.35,0.905-4.806,1.456-7.067c0.24-0.986-1.593-0.434-1.894-0.002c-1.886,2.71-5.102,4.513-8.022,5.877
				c-1.577,0.737-3.355,1.331-5.116,1.229c-2.731-0.157-1.319-4.032-0.848-5.314c-0.632-0.001-1.263-0.001-1.894-0.002
				c-0.346,4.14-1.206,8.152-4.667,10.813c-3.729,2.866-9.598,2.717-14.054,2.784c-7.404,0.112-14.684-0.095-19.966,5.871
				c-5.185,5.856-6.564,15.731-5.854,23.166c0.425,4.454,2.722,12.567,8.612,11.757c4.284-0.59,7.359-5.538,9.5-8.786
				c3.888-5.898,6.883-12.527,9.709-18.979c9.503-21.692,14.717-45.085,18.025-68.449c0.13-0.916-1.438-0.539-1.775-0.168
				c-3.943,4.33-9.151,7.423-14.379,9.947c-2.938,1.418-6.025,2.482-9.192,3.25c-1.518,0.368-10.936,1.804-10.765-1.461
				c0.365-7.01,7.122,0.46,8.987,2.709c2.59,3.124,5.512,7.147,6.131,11.253C473.037,91.712,474.975,91.233,474.843,90.358
				L474.843,90.358z"/>
		</g>
	</g>
</g>
</svg>
