<?xml version="1.0" encoding="utf-8"?>
<!-- Generator: Adobe Illustrator 15.0.2, SVG Export Plug-In . SVG Version: 6.00 Build 0)  -->
<!DOCTYPE svg PUBLIC "-//W3C//DTD SVG 1.1//EN" "http://www.w3.org/Graphics/SVG/1.1/DTD/svg11.dtd">
<svg version="1.1" id="Lager_1" xmlns="http://www.w3.org/2000/svg" xmlns:xlink="http://www.w3.org/1999/xlink" x="0px" y="0px"
	 width="272.294px" height="202.581px" viewBox="0 0 272.294 202.581" enable-background="new 0 0 272.294 202.581"
	 xml:space="preserve">
<g>
	
		<rect x="114.904" y="0.19" fill="#D83939" stroke="#D83939" stroke-width="0.3808" stroke-linecap="round" stroke-linejoin="round" stroke-miterlimit="10" width="49.787" height="69.058"/>
	<g>
		<g>
			<g>
				<circle fill="#FFD941" stroke="#FFD941" stroke-width="0.5955" stroke-miterlimit="10" cx="139.797" cy="72.941" r="47.911"/>
				<path fill="#FFCE0E" stroke="#FFCE0E" stroke-width="0.5955" stroke-miterlimit="10" d="M139.797,120.853
					c-26.46,0-47.912-21.452-47.912-47.912c0-26.462,21.451-47.913,47.912-47.913V120.853z"/>
			</g>
			<g>
				<circle fill="#FBC017" stroke="#FBC017" stroke-width="0.4951" stroke-miterlimit="10" cx="139.797" cy="73.191" r="39.832"/>
				<path fill="#F9B61E" stroke="#F9B61E" stroke-width="0.4951" stroke-miterlimit="10" d="M139.797,113.024
					c-21.998,0-39.832-17.833-39.832-39.833c0-21.999,17.834-39.833,39.832-39.833V113.024z"/>
			</g>
		</g>
		<g>
			<g>
				<g>
					<path fill="#FFE678" d="M156.181,95.844c-4.414-2.569-7.551-9.169-7.551-16.905c0-7.703,3.112-14.279,7.497-16.871h-16.044
						h-16.04c4.383,2.592,7.498,9.167,7.498,16.871c0,7.736-3.14,14.336-7.553,16.905H156.181z"/>
				</g>
			</g>
			<g>
				<g>
					<path fill="#419D36" d="M140.399,53.605"/>
				</g>
			</g>
			<g>
				<g>
					<path fill="#FFD941" d="M140.083,95.844l16.305-0.127c-4.412-2.569-7.758-9.042-7.758-16.777
						c0-7.703,3.166-14.124,7.551-16.714l-16.098-0.062v32.864V95.844z"/>
				</g>
			</g>
			<g>
				<g>
					<path fill="#FFE267" stroke="#FFE267" stroke-width="0.3034" stroke-miterlimit="10" d="M140.292,53.455
						c0-4.382,3.386-7.948,7.841-7.948v2.297c-3.367,0-6.495,2.354-6.495,5.65H140.292z"/>
				</g>
			</g>
			<g>
				<g>
					<g>
						<path fill="#FFD941" d="M136.738,53.409c1.407-2.446,1.553-4.246,1.553-4.246c1.111-9.69-11.807-11.993-11.807-11.993
							s-3.473,12.656,5.753,15.816C132.237,52.987,133.925,53.629,136.738,53.409z"/>
					</g>
				</g>
			</g>
			<g>
				<g>
					<g>
						<path fill="#FFE678" d="M126.483,37.17c0,0-3.473,12.656,5.753,15.816c0,0,1.688,0.642,4.501,0.422"/>
					</g>
				</g>
			</g>
			<g>
				<g>
					
						<ellipse fill="#FBC017" stroke="#FBC017" stroke-width="0.3034" stroke-miterlimit="10" cx="137.182" cy="78.855" rx="0.824" ry="1.879"/>
				</g>
			</g>
			<g>
				<g>
					<path fill="#FBC017" stroke="#FBC017" stroke-width="0.3034" stroke-miterlimit="10" d="M144.139,78.855
						c0,1.039-0.37,1.879-0.826,1.879c-0.453,0-0.825-0.841-0.825-1.879c0-1.038,0.372-1.88,0.825-1.88
						C143.769,76.976,144.139,77.818,144.139,78.855z"/>
				</g>
			</g>
			<g>
				<g>
					
						<path fill="#FFD941" stroke="#FFD941" stroke-width="0.2588" stroke-linecap="round" stroke-linejoin="round" stroke-miterlimit="10" d="
						M156.427,62.068c0-3.277-3.024-6.547-6.752-6.547c-1.011,0-1.971,0.195-2.831,0.546l-1.751,0.631
						c-2.945,0.958-4.799,0.958-4.799,0.958h-0.024c0,0-1.854,0-4.8-0.958l-1.75-0.631c-0.861-0.351-1.82-0.546-2.832-0.546
						c-3.727,0-6.75,3.271-6.75,6.547H156.427z"/>
				</g>
			</g>
			<g>
				<g>
					
						<path fill="#FFD941" stroke="#FFD941" stroke-width="0.2585" stroke-linecap="round" stroke-linejoin="round" stroke-miterlimit="10" d="
						M156.388,95.844c0,3.272-3.018,8.584-6.741,8.584c0,0-1.763-0.021-4.577-0.867c-2.419-0.729-4.691-0.709-4.793-0.709h-0.175
						c-0.104,0-2.376-0.021-4.794,0.709c-2.815,0.846-4.577,0.867-4.577,0.867c-3.723,0-6.743-5.312-6.743-8.584H156.388z"/>
				</g>
			</g>
			<g>
				<g>
					<g>
						<path fill="#FFCE0E" d="M140.27,57.656h0.024c0,0,1.854,0,4.799-0.958l1.751-0.631c0.86-0.351,1.82-0.546,2.831-0.546
							c3.728,0,6.752,3.271,6.752,6.547h-16.344V57.65L140.27,57.656z"/>
						<path fill="#FFCE0E" d="M140.09,57.481l0.185,0.006c0.039,0,1.886-0.013,4.768-0.951l1.745-0.629
							c0.9-0.367,1.877-0.556,2.888-0.556c3.62,0,6.918,3.202,6.918,6.717c0,0.093-0.076,0.169-0.166,0.169h-16.344L140.09,57.481z
							 M140.255,61.899h15.998c-0.102-2.966-2.883-6.209-6.578-6.209c-0.967,0-1.899,0.18-2.769,0.533l-1.758,0.633
							c-2.941,0.958-4.776,0.97-4.854,0.97l-0.039-0.001V61.899z"/>
					</g>
				</g>
			</g>
			<g>
				<g>
					<g>
						<path fill="#FFCE0E" d="M140.277,102.852c0.102,0,2.374-0.021,4.793,0.709c2.814,0.846,4.577,0.867,4.577,0.867
							c3.724,0,6.741-5.312,6.741-8.584H140.19v6.815v0.193H140.277z"/>
						<path fill="#FFCE0E" d="M140.095,95.674h16.293c0.095,0,0.17,0.076,0.17,0.169c0,3.457-3.096,8.753-6.911,8.753
							c-0.002,0-0.002,0-0.002,0c-0.073-0.001-1.818-0.031-4.625-0.875c-2.214-0.669-4.313-0.702-4.712-0.702h-0.213
							 M140.358,102.684c0.579,0.004,2.618,0.069,4.759,0.716c2.731,0.821,4.48,0.86,4.53,0.86c3.503-0.002,6.471-4.994,6.571-8.247
							h-15.86V102.684z"/>
					</g>
				</g>
			</g>
		</g>
	</g>
	<g>
		<path fill="#3E3D3F" d="M63.267,174.881c0,4.033-0.49,7.723-1.47,11.071c-0.98,3.351-2.302,6.062-3.963,8.13
			c-1.661,2.07-3.773,3.732-6.332,4.984c-4.63,2.343-10.458,3.514-17.484,3.514v-57.521c7.46,0,13.344,1.117,17.647,3.352
			c3.704,1.96,6.482,4.875,8.334,8.742C62.177,161.62,63.267,167.53,63.267,174.881z M60.245,173.983
			c0-17.158-7.735-25.736-23.206-25.736v51.229c8.825-0.108,14.98-2.642,18.466-7.599C58.663,187.411,60.245,181.446,60.245,173.983
			z"/>
		<path fill="#3E3D3F" d="M76.421,202.334h-3.022v-57.029h3.022V202.334z"/>
		<path fill="#3E3D3F" d="M91.864,178.151v24.184h-3.022v-57.275c9.531,0.055,16.791,1.512,21.774,4.372
			c4.984,2.86,7.476,6.877,7.476,12.052c0,6.101-2.397,10.35-7.189,12.746c-1.634,0.871-3.079,1.525-4.332,1.961
			c-1.253,0.437-2.94,0.816-5.065,1.143C98.835,177.661,95.623,177.933,91.864,178.151z M91.864,175.127l0.816,0.082
			c14.925-0.218,22.389-4.711,22.389-13.482c0-3.268-1.5-6.181-4.494-8.742c-1.636-1.416-4.045-2.559-7.232-3.432
			c-3.186-0.87-7.014-1.334-11.479-1.389V175.127z"/>
		<path fill="#3E3D3F" d="M154.612,202.334H126.18v-57.193h3.021v54.171h25.41V202.334z"/>
		<path fill="#3E3D3F" d="M192.197,174.229c0,8.986-1.526,15.92-4.576,20.793c-3.053,4.876-7.463,7.312-13.235,7.312
			c-5.776,0-10.35-2.463-13.726-7.395c-3.381-4.929-5.067-11.928-5.067-20.998c0-9.068,1.661-16.204,4.983-21.406
			c3.322-5.201,7.952-7.803,13.891-7.803c3.539,0,6.551,0.912,9.029,2.738c2.477,1.824,4.316,4.287,5.514,7.393
			C191.134,160.584,192.197,167.039,192.197,174.229z M189.172,172.839c0-7.57-1.279-13.616-3.84-18.138s-6.237-6.782-11.029-6.782
			c-4.795,0-8.606,2.247-11.439,6.741c-2.831,4.493-4.247,10.935-4.247,19.322c0,9.752,2.204,16.914,6.616,21.488
			c2.451,2.506,5.256,3.759,8.416,3.759c3.159,0,5.745-0.707,7.763-2.124c2.016-1.416,3.566-3.377,4.657-5.883
			C188.138,186.54,189.172,180.411,189.172,172.839z"/>
		<path fill="#3E3D3F" d="M235.253,202.334l0.163-52.455l-13.644,31.295h-2.776l-13.646-31.295v52.455h-2.858v-57.275h3.921
			l13.973,32.029l13.89-32.029h4.003v57.275H235.253z"/>
	</g>
	<g>
		<circle fill="#FBC017" stroke="#FBC017" stroke-width="0.4004" stroke-miterlimit="10" cx="5.884" cy="173.657" r="5.684"/>
		<path fill="#F9B61E" stroke="#F9B61E" stroke-width="0.4004" stroke-miterlimit="10" d="M5.884,179.34
			c-3.139,0-5.684-2.545-5.684-5.684c0-3.14,2.545-5.684,5.684-5.684V179.34z"/>
	</g>
	<g>
		<circle fill="#FBC017" stroke="#FBC017" stroke-width="0.4004" stroke-miterlimit="10" cx="266.41" cy="173.657" r="5.684"/>
		<path fill="#F9B61E" stroke="#F9B61E" stroke-width="0.4004" stroke-miterlimit="10" d="M266.411,179.34
			c-3.139,0-5.685-2.545-5.685-5.684c0-3.14,2.546-5.684,5.685-5.684V179.34z"/>
	</g>
</g>
</svg>
