<?xml version="1.0" encoding="utf-8"?>
<!-- Generator: Adobe Illustrator 15.0.2, SVG Export Plug-In . SVG Version: 6.00 Build 0)  -->
<!DOCTYPE svg PUBLIC "-//W3C//DTD SVG 1.1//EN" "http://www.w3.org/Graphics/SVG/1.1/DTD/svg11.dtd">
<svg version="1.1" id="Lager_1" xmlns="http://www.w3.org/2000/svg" xmlns:xlink="http://www.w3.org/1999/xlink" x="0px" y="0px"
	 width="566.755px" height="21.621px" viewBox="0 0 566.755 21.621" enable-background="new 0 0 566.755 21.621"
	 xml:space="preserve">
<g>
	<circle fill="#3E3D3F" cx="193.293" cy="11.899" r="1.874"/>
	<circle fill="#3E3D3F" cx="333.204" cy="11.899" r="1.875"/>
	<g>
		<path fill="#3E3D3F" d="M214.694,21.518l0.053-16.643l-4.33,9.929h-0.88l-4.331-9.929v16.643h-0.908V3.344h1.244l4.434,10.163
			l4.407-10.163h1.27v18.174H214.694z"/>
		<path fill="#3E3D3F" d="M220.551,21.518h-0.958V3.423h0.958V21.518z"/>
		<path fill="#3E3D3F" d="M233.514,21.518h-9.022V3.371h0.958v17.187h8.064V21.518z"/>
		<path fill="#3E3D3F" d="M234.29,17.628h0.96c0.035,1.314,0.361,2.179,0.984,2.592c0.468,0.295,0.926,0.441,1.375,0.441
			c1.227,0,2.169-0.417,2.825-1.257c0.657-0.837,0.986-2.233,0.986-4.187V3.371h0.959v11.872c0,4.251-1.605,6.378-4.823,6.378
			c-0.657,0-1.329-0.226-2.021-0.675c-0.365-0.26-0.662-0.674-0.895-1.243C234.408,19.133,234.29,18.442,234.29,17.628z"/>
		<path fill="#3E3D3F" d="M257.132,12.599c0,2.852-0.49,5.053-1.454,6.598c-0.968,1.548-2.368,2.321-4.198,2.321
			c-1.833,0-3.286-0.782-4.357-2.347c-1.073-1.564-1.607-3.785-1.607-6.662c0-2.877,0.527-5.141,1.582-6.792
			c1.053-1.65,2.522-2.476,4.408-2.476c1.122,0,2.076,0.29,2.864,0.868c0.784,0.58,1.368,1.362,1.748,2.347
			C256.792,8.27,257.132,10.318,257.132,12.599z M256.171,12.159c0-2.402-0.408-4.321-1.221-5.755
			c-0.81-1.435-1.977-2.151-3.499-2.151c-1.52,0-2.729,0.712-3.63,2.138c-0.898,1.426-1.347,3.469-1.347,6.13
			c0,3.095,0.7,5.368,2.099,6.818c0.78,0.795,1.668,1.193,2.671,1.193c1.002,0,1.825-0.225,2.465-0.674
			c0.635-0.45,1.13-1.071,1.476-1.867C255.843,16.505,256.171,14.56,256.171,12.159z M248.602,0h0.985v1.711h-0.985V0z M253.007,0
			h0.986v1.711h-0.986V0z"/>
		<path fill="#3E3D3F" d="M261.353,13.843v7.675h-0.954V3.344c3.02,0.018,5.325,0.481,6.906,1.387c1.58,0.908,2.37,2.182,2.37,3.824
			c0,1.937-0.759,3.284-2.282,4.044c-0.516,0.277-0.975,0.484-1.369,0.623c-0.398,0.139-0.935,0.258-1.611,0.362
			C263.568,13.688,262.549,13.775,261.353,13.843z M261.353,12.885l0.261,0.026c4.734-0.07,7.104-1.495,7.104-4.278
			c0-1.037-0.476-1.961-1.425-2.774c-0.521-0.449-1.285-0.812-2.294-1.089c-1.012-0.277-2.227-0.423-3.646-0.44V12.885z"/>
		<path fill="#3E3D3F" d="M281.522,21.518h-1.167l-5.03-7.7c-0.636,0.088-1.344,0.146-2.123,0.182v7.519h-0.96V3.344
			c5.791,0.018,8.686,1.754,8.686,5.21c0,2.784-1.521,4.486-4.561,5.108L281.522,21.518z M273.202,12.963l0.258,0.024
			c4.341-0.068,6.508-1.519,6.508-4.354c0-0.795-0.185-1.456-0.559-1.983c-0.371-0.527-0.79-0.938-1.255-1.231
			c-1.107-0.69-2.759-1.053-4.952-1.088V12.963z"/>
		<path fill="#3E3D3F" d="M294.846,12.599c0,2.852-0.482,5.053-1.45,6.598c-0.967,1.548-2.366,2.321-4.199,2.321
			s-3.282-0.782-4.354-2.347c-1.076-1.564-1.605-3.785-1.605-6.662c0-2.877,0.524-5.141,1.581-6.792
			c1.051-1.65,2.521-2.476,4.405-2.476c1.121,0,2.079,0.29,2.866,0.868c0.782,0.58,1.368,1.362,1.75,2.347
			C294.512,8.27,294.846,10.318,294.846,12.599z M293.894,12.159c0-2.402-0.414-4.321-1.227-5.755
			c-0.808-1.435-1.979-2.151-3.496-2.151c-1.524,0-2.733,0.712-3.632,2.138c-0.897,1.426-1.346,3.469-1.346,6.13
			c0,3.095,0.7,5.368,2.1,6.818c0.776,0.795,1.669,1.193,2.671,1.193c1,0,1.818-0.225,2.465-0.674
			c0.638-0.45,1.13-1.071,1.474-1.867C293.562,16.505,293.894,14.56,293.894,12.159z"/>
		<path fill="#3E3D3F" d="M299.071,21.518h-0.954V3.371h9.28V4.33h-8.326v6.636h8.326v0.959h-8.326V21.518z"/>
		<path fill="#3E3D3F" d="M311.312,21.518h-0.963V3.423h0.963V21.518z"/>
		<path fill="#3E3D3F" d="M324.271,21.518h-9.018V3.371h0.957v17.187h8.061V21.518z"/>
	</g>
	<g>
		<circle fill="#3E3D3F" cx="1.874" cy="11.438" r="1.874"/>
		<circle fill="#3E3D3F" cx="66.714" cy="11.438" r="1.875"/>
		<g>
			<path fill="#3E3D3F" d="M20.056,18.653c0.797-0.691,1.196-1.532,1.196-2.524c0-0.991-0.29-1.786-0.862-2.38
				c-0.578-0.594-1.272-1.037-2.087-1.328c-0.815-0.292-1.636-0.588-2.458-0.891c-0.824-0.3-1.524-0.757-2.1-1.369
				C13.168,9.55,12.88,8.766,12.88,7.809c0-1.665,0.465-2.906,1.396-3.721c0.93-0.816,2.042-1.223,3.334-1.223
				c1.294,0,2.711,0.125,4.252,0.372v0.985c-1.383-0.249-2.676-0.373-3.88-0.373s-2.191,0.336-2.962,1.009
				c-0.771,0.674-1.157,1.622-1.157,2.845c0,1.062,0.55,1.86,1.648,2.393c0.496,0.247,1.041,0.477,1.635,0.69
				c0.592,0.212,1.19,0.451,1.794,0.719c0.602,0.265,1.146,0.58,1.633,0.942c0.487,0.363,0.888,0.867,1.197,1.515
				c0.309,0.647,0.464,1.4,0.464,2.258c0,0.861-0.198,1.619-0.596,2.273c-0.4,0.657-0.892,1.171-1.475,1.541
				c-0.587,0.375-1.269,0.674-2.047,0.905c-1.258,0.39-2.676,0.584-4.254,0.584h-0.664v-0.982
				C16.352,20.541,18.637,19.91,20.056,18.653z"/>
			<path fill="#3E3D3F" d="M26.274,13.603v7.868h-0.983V2.839c3.101,0.019,5.461,0.492,7.084,1.421
				c1.619,0.931,2.431,2.238,2.431,3.921c0,1.985-0.779,3.367-2.338,4.146c-0.533,0.285-1.002,0.498-1.409,0.637
				c-0.408,0.143-0.958,0.266-1.647,0.373C28.543,13.444,27.497,13.533,26.274,13.603z M26.274,12.619l0.266,0.027
				c4.855-0.071,7.282-1.532,7.282-4.385c0-1.064-0.486-2.011-1.461-2.844c-0.532-0.46-1.315-0.833-2.353-1.116
				c-1.034-0.284-2.282-0.434-3.734-0.452V12.619z"/>
			<path fill="#3E3D3F" d="M37.437,21.471V2.865h9.515V3.85h-8.531v6.804h8.531v0.983h-8.531v8.85h8.531v0.984H37.437z"/>
			<path fill="#3E3D3F" d="M59.417,21.471h-9.248V2.865h0.981v17.621h8.267V21.471z"/>
		</g>
	</g>
	<g>
		<g>
			<path fill="#3E3D3F" d="M422.97,13.349v7.598h-0.951V2.953c2.995,0.017,5.275,0.475,6.841,1.373
				c1.566,0.899,2.349,2.161,2.349,3.787c0,1.917-0.753,3.251-2.259,4.004c-0.513,0.274-0.968,0.479-1.361,0.616
				c-0.393,0.138-0.923,0.258-1.589,0.359C425.16,13.194,424.151,13.28,422.97,13.349z M422.97,12.398l0.258,0.026
				c4.687-0.069,7.031-1.48,7.031-4.236c0-1.027-0.473-1.942-1.41-2.747c-0.516-0.445-1.273-0.804-2.272-1.078
				c-1.001-0.274-2.205-0.419-3.606-0.437V12.398z"/>
			<path fill="#3E3D3F" d="M442.94,20.946h-1.156l-4.981-7.623c-0.632,0.085-1.332,0.145-2.104,0.18v7.443h-0.947V2.953
				c5.731,0.017,8.596,1.737,8.596,5.159c0,2.755-1.504,4.442-4.516,5.057L442.94,20.946z M434.698,12.476l0.257,0.025
				c4.297-0.068,6.441-1.505,6.441-4.312c0-0.787-0.182-1.441-0.549-1.964c-0.368-0.522-0.783-0.928-1.246-1.22
				c-1.097-0.684-2.729-1.043-4.903-1.078V12.476z"/>
			<path fill="#3E3D3F" d="M445.325,20.946V2.979h9.19v0.949h-8.238v6.571h8.238v0.95h-8.238v8.548h8.238v0.949H445.325z"/>
			<path fill="#3E3D3F" d="M463.549,18.225c0.771-0.667,1.157-1.479,1.157-2.438s-0.278-1.723-0.837-2.297
				c-0.555-0.572-1.226-1.001-2.013-1.284c-0.789-0.282-1.581-0.567-2.376-0.86c-0.795-0.291-1.47-0.73-2.029-1.321
				c-0.554-0.591-0.831-1.348-0.831-2.271c0-1.609,0.448-2.807,1.348-3.594c0.899-0.788,1.975-1.18,3.22-1.18
				c1.25,0,2.619,0.118,4.108,0.358v0.95c-1.335-0.24-2.584-0.359-3.746-0.359c-1.168,0-2.117,0.326-2.864,0.976
				c-0.742,0.649-1.115,1.566-1.115,2.746c0,1.026,0.529,1.796,1.591,2.311c0.48,0.239,1.004,0.461,1.58,0.667
				c0.571,0.206,1.15,0.437,1.733,0.694c0.578,0.257,1.104,0.561,1.576,0.911c0.471,0.351,0.855,0.838,1.156,1.463
				c0.298,0.626,0.446,1.353,0.446,2.182c0,0.831-0.191,1.562-0.577,2.195c-0.384,0.634-0.857,1.129-1.422,1.488
				c-0.567,0.361-1.226,0.65-1.979,0.873c-1.215,0.377-2.581,0.565-4.105,0.565h-0.644v-0.95
				C459.973,20.048,462.181,19.44,463.549,18.225z"/>
			<path fill="#3E3D3F" d="M468.608,20.946V2.979h9.188v0.949h-8.242v6.571h8.242v0.95h-8.242v8.548h8.242v0.949H468.608z"/>
			<path fill="#3E3D3F" d="M481.849,4.595v16.351H480.9V2.953h1.361l6.879,15.811V2.979h0.949v17.967h-0.949L481.849,4.595z"/>
			<path fill="#3E3D3F" d="M497.432,20.946h-0.95V3.928h-4.106V2.979h9.188v0.949h-4.132V20.946z"/>
			<path fill="#3E3D3F" d="M512.087,4.313v16.633h-0.946v-8.471h-7.293v8.471h-0.949V9.19c0-1.849,0.592-3.362,1.772-4.544
				c1.181-1.181,2.66-1.771,4.443-1.771C510.412,2.875,511.403,3.355,512.087,4.313z M511.141,11.525V4.672
				c-0.552-0.565-1.244-0.846-2.081-0.846c-1.506,0-2.753,0.547-3.735,1.642c-0.982,1.096-1.477,2.345-1.477,3.748v2.31H511.141z"/>
			<path fill="#3E3D3F" d="M519.379,20.946h-0.95V3.928h-4.108V2.979h9.191v0.949h-4.133V20.946z"/>
			<path fill="#3E3D3F" d="M526.743,20.946h-0.947V3.03h0.947V20.946z"/>
			<path fill="#3E3D3F" d="M541.452,12.116c0,2.824-0.479,5.002-1.436,6.534c-0.962,1.531-2.349,2.297-4.161,2.297
				s-3.25-0.774-4.311-2.324c-1.062-1.549-1.594-3.746-1.594-6.596c0-2.848,0.523-5.09,1.565-6.726
				c1.046-1.633,2.502-2.45,4.364-2.45c1.113,0,2.059,0.286,2.839,0.858c0.776,0.575,1.355,1.349,1.732,2.324
				C541.119,7.829,541.452,9.857,541.452,12.116z M540.504,11.68c0-2.377-0.402-4.278-1.209-5.698
				c-0.803-1.42-1.959-2.13-3.465-2.13s-2.702,0.705-3.593,2.117c-0.888,1.412-1.335,3.435-1.335,6.069
				c0,3.064,0.693,5.314,2.081,6.752c0.768,0.787,1.65,1.181,2.642,1.181c0.992,0,1.805-0.223,2.439-0.667
				c0.633-0.445,1.121-1.061,1.461-1.85C540.178,15.983,540.504,14.058,540.504,11.68z"/>
			<path fill="#3E3D3F" d="M545.638,4.595v16.351h-0.95V2.953h1.359l6.879,15.811V2.979h0.95v17.967h-0.95L545.638,4.595z"/>
		</g>
		<circle fill="#3E3D3F" cx="564.881" cy="11.925" r="1.874"/>
		<circle fill="#3E3D3F" cx="411.013" cy="11.925" r="1.874"/>
	</g>
</g>
</svg>
