<?xml version="1.0" encoding="utf-8"?>
<!-- Generator: Adobe Illustrator 15.0.2, SVG Export Plug-In . SVG Version: 6.00 Build 0)  -->
<!DOCTYPE svg PUBLIC "-//W3C//DTD SVG 1.1//EN" "http://www.w3.org/Graphics/SVG/1.1/DTD/svg11.dtd">
<svg version="1.1" id="Lager_1" xmlns="http://www.w3.org/2000/svg" xmlns:xlink="http://www.w3.org/1999/xlink" x="0px" y="0px"
	 width="485.652px" height="53.625px" viewBox="0 0 485.652 53.625" enable-background="new 0 0 485.652 53.625"
	 xml:space="preserve">
<g>
	
		<polygon fill="#D83939" stroke="#D83939" stroke-width="0.3808" stroke-linecap="round" stroke-linejoin="round" stroke-miterlimit="10" points="
		485.461,0.19 337.504,0.19 310.195,0.19 173.112,0.19 146.287,0.19 0.19,0.19 19.136,27.038 0.19,53.435 146.287,53.435 
		173.112,53.435 310.195,53.435 337.504,53.435 485.461,53.435 466.516,27.038 	"/>
	<g>
		<path fill="#FFFFFF" d="M123.243,27.456c0,2.187-0.266,4.188-0.797,6.007c-0.533,1.816-1.25,3.286-2.15,4.408
			c-0.902,1.123-2.047,2.024-3.436,2.705c-2.511,1.27-5.673,1.905-9.484,1.905V11.277c4.047,0,7.238,0.606,9.573,1.818
			c2.009,1.064,3.516,2.645,4.521,4.743C122.652,20.26,123.243,23.467,123.243,27.456z M121.604,26.967
			c0-9.308-4.196-13.961-12.588-13.961v27.791c4.787-0.06,8.126-1.433,10.018-4.122C120.745,34.251,121.604,31.017,121.604,26.967z"
			/>
		<path fill="#FFFFFF" d="M130.378,42.349h-1.64V11.41h1.64V42.349z"/>
		<path fill="#FFFFFF" d="M138.755,14.114v28.235h-1.638V11.277h2.348l11.879,27.303V11.322h1.64v31.027h-1.64L138.755,14.114z"/>
		<path fill="#FFFFFF" d="M175.322,13.626v28.723h-1.64V27.722h-12.588v14.627h-1.64V22.048c0-3.191,1.021-5.807,3.059-7.846
			c2.039-2.038,4.594-3.057,7.667-3.057C172.425,11.145,174.14,11.971,175.322,13.626z M173.683,26.081V14.247
			c-0.946-0.975-2.143-1.462-3.59-1.462c-2.6,0-4.751,0.946-6.45,2.837c-1.701,1.892-2.549,4.048-2.549,6.471v3.989H173.683z"/>
		<path fill="#FFFFFF" d="M206.569,13.626v28.723h-1.639V27.722h-12.589v14.627h-1.638V22.048c0-3.191,1.018-5.807,3.056-7.846
			c2.041-2.038,4.596-3.057,7.669-3.057C203.674,11.145,205.387,11.971,206.569,13.626z M204.93,26.081V14.247
			c-0.945-0.975-2.144-1.462-3.59-1.462c-2.602,0-4.75,0.946-6.45,2.837c-1.7,1.892-2.549,4.048-2.549,6.471v3.989H204.93z"/>
		<path fill="#FFFFFF" d="M229.041,42.349h-1.64v-3.015c0-9.161-2.246-13.741-6.736-13.741c-0.946,0-1.849,0.244-2.705,0.732
			c-0.856,0.486-1.455,0.916-1.795,1.284c-0.34,0.371-0.776,0.91-1.308,1.619v13.121h-1.638V11.322h1.638v15.292l11.967-15.336
			h2.261L218.803,24.22c0.709-0.177,1.404-0.266,2.084-0.266c2.511,0,4.498,1.211,5.96,3.634c1.464,2.424,2.194,6.162,2.194,11.214
			V42.349z"/>
		<path fill="#FFFFFF" d="M239.857,42.349h-1.641V12.962h-7.093v-1.641h15.869v1.641h-7.135V42.349z"/>
		<path fill="#FFFFFF" d="M252.576,42.349h-1.64V11.41h1.64V42.349z"/>
		<path fill="#FFFFFF" d="M263.921,42.349l-6.691-31.027h1.641l6.159,28.367l6.162-28.367h1.641l-6.606,31.027H263.921z"/>
		<path fill="#FFFFFF" d="M279.17,42.349h-1.641V11.41h1.641V42.349z"/>
		<path fill="#FFFFFF" d="M291.845,42.349h-1.638V12.962h-7.094v-1.641h15.869v1.641h-7.138V42.349z"/>
		<path fill="#FFFFFF" d="M302.927,42.349V11.322h15.867v1.641h-14.228v11.347h14.228v1.639h-14.228v14.759h14.228v1.642H302.927z"
			/>
		<path fill="#FFFFFF" d="M330.095,42.349h-1.638V12.962h-7.092v-1.641h15.867v1.641h-7.138V42.349z"/>
		<path fill="#FFFFFF" d="M341.177,42.349V11.322h15.867v1.641h-14.227v11.347h14.227v1.639h-14.227v14.759h14.227v1.642H341.177z"
			/>
		<path fill="#FFFFFF" d="M378.275,42.349h-1.995l-8.599-13.165c-1.093,0.147-2.305,0.251-3.634,0.312v12.854h-1.639V11.277
			c9.898,0.031,14.848,3,14.848,8.91c0,4.758-2.601,7.667-7.802,8.731L378.275,42.349z M364.047,27.722l0.444,0.044
			c7.415-0.118,11.125-2.601,11.125-7.447c0-1.358-0.318-2.489-0.953-3.39c-0.636-0.902-1.353-1.603-2.15-2.107
			c-1.891-1.18-4.714-1.801-8.466-1.86V27.722z"/>
	</g>
</g>
</svg>
