<?xml version="1.0" encoding="utf-8"?>
<!-- Generator: Adobe Illustrator 15.1.0, SVG Export Plug-In . SVG Version: 6.00 Build 0)  -->
<!DOCTYPE svg PUBLIC "-//W3C//DTD SVG 1.1//EN" "http://www.w3.org/Graphics/SVG/1.1/DTD/svg11.dtd">
<svg version="1.1" xmlns="http://www.w3.org/2000/svg" xmlns:xlink="http://www.w3.org/1999/xlink" x="0px" y="0px"
	 width="985.812px" height="293.333px" viewBox="0 0 985.812 293.333" enable-background="new 0 0 985.812 293.333"
	 xml:space="preserve">
<g id="_x31_">
	<rect x="212.583" y="199.583" opacity="0.4" fill="#C6C7C8" width="4" height="71.25"/>
	<g>
		<rect x="143.005" y="20.334" fill="#FFFFFF" width="19.709" height="18.146"/>
		<rect x="143.005" y="20.334" fill="#F6F6F6" width="9.854" height="18.146"/>
	</g>
	<g>
		<rect x="164.401" y="20.334" fill="#E74D3D" width="14" height="18.146"/>
		<rect x="164.401" y="20.334" fill="#BF392A" width="7" height="18.146"/>
	</g>
	
		<path fill="#FFFFFF" stroke="#FFFFFF" stroke-width="6" stroke-linecap="round" stroke-linejoin="round" stroke-miterlimit="10" d="
		M194.038,38.927c-1.717-3.676-5.836-5.669-8.967-5.669H23.614c-3.131,0-5.669,2.538-5.669,5.669v95.346
		c0,3.131,2.538,5.669,5.669,5.669h189.543c3.131,0,5.67-2.538,5.67-5.669V78.435L194.038,38.927z M102.268,88.333H53.4
		c-11.12,0-20.133-9.014-20.133-20.133c0-11.12,9.014-20.133,20.133-20.133h48.867c11.119,0,20.133,9.014,20.133,20.133
		C122.4,79.32,113.387,88.333,102.268,88.333z"/>
	<g>
		<path fill="#F9FAFA" d="M50.822,51.285c-8.298,1.254-14.555,8.526-14.555,16.916c0,9.447,7.686,17.133,17.133,17.133h48.867
			c3.707,0,7.25-1.186,10.244-3.429l1.461-1.103l1.811,0.89l103.044,58.892c0,0-0.578,2.358-5.67,2.358H23.614
			c-4.78,0-8.669-3.889-8.669-8.669V38.927c0-4.78,3.889-8.669,8.669-8.669c0.516,0,1.022,0.133,1.472,0.386L59.566,51"/>
	</g>
	<g>
		<path fill="#B1B3B4" d="M221.817,106.333h-37.25c-1.105,0-2-0.896-2-2s0.895-2,2-2h37.25"/>
		<path fill="#B1B3B4" d="M221.817,115.63h-37.25c-1.105,0-2-0.896-2-2s0.895-2,2-2h37.25"/>
		<path fill="#B1B3B4" d="M221.817,124.927h-37.25c-1.105,0-2-0.896-2-2s0.895-2,2-2h37.25"/>
	</g>
	<rect x="205.164" y="199.583" fill="#C6C7C8" width="4" height="71.25"/>
	<rect x="197.768" y="199.583" opacity="0.4" fill="#C6C7C8" width="4" height="71.25"/>
	<rect x="205.067" y="142.734" fill="#C6C7C8" width="4" height="55.474"/>
	<path fill="none" stroke="#D9DADB" stroke-width="4" stroke-miterlimit="10" d="M229.317,255.734
		c0,9.394-7.615,17.008-17.008,17.008h-10.484c-9.393,0-17.008-7.614-17.008-17.008v-40.519c0-9.394,7.615-17.008,17.008-17.008
		h10.484c9.393,0,17.008,7.614,17.008,17.008V255.734z"/>
</g>
<g id="_x32_">
	<rect x="466.703" y="200.992" opacity="0.4" fill="#C6C7C8" width="4" height="68.968"/>
	<g>
		<rect x="389.458" y="20.334" fill="#FFFFFF" width="19.709" height="18.146"/>
		<rect x="389.458" y="20.334" fill="#F6F6F6" width="9.854" height="18.146"/>
	</g>
	<g>
		<rect x="410.854" y="20.334" fill="#E74D3D" width="14" height="18.146"/>
		<rect x="410.854" y="20.334" fill="#BF392A" width="7" height="18.146"/>
	</g>
	
		<path fill="#FFFFFF" stroke="#FFFFFF" stroke-width="6" stroke-linecap="round" stroke-linejoin="round" stroke-miterlimit="10" d="
		M440.491,38.927c-1.717-3.676-5.836-5.669-8.967-5.669H270.067c-3.131,0-5.669,2.538-5.669,5.669v95.346
		c0,3.131,2.538,5.669,5.669,5.669H459.61c3.131,0,5.67-2.538,5.67-5.669V78.435L440.491,38.927z M348.721,88.333h-48.867
		c-11.12,0-20.133-9.014-20.133-20.133c0-11.12,9.014-20.133,20.133-20.133h48.867c11.119,0,20.133,9.014,20.133,20.133
		C368.854,79.32,359.84,88.333,348.721,88.333z"/>
	<g>
		<path fill="#F9FAFA" d="M297.275,51.285c-8.298,1.254-14.555,8.526-14.555,16.916c0,9.447,7.686,17.133,17.133,17.133h48.867
			c3.707,0,7.25-1.186,10.244-3.429l1.461-1.103l1.811,0.89l103.044,58.892c0,0-0.578,2.358-5.67,2.358H270.067
			c-4.78,0-8.669-3.889-8.669-8.669V38.927c0-4.78,3.889-8.669,8.669-8.669c0.516,0,1.022,0.133,1.472,0.386L306.02,51"/>
	</g>
	<g>
		<path fill="#B1B3B4" d="M468.271,106.333h-37.25c-1.105,0-2-0.896-2-2s0.895-2,2-2h37.25"/>
		<path fill="#B1B3B4" d="M468.271,115.63h-37.25c-1.105,0-2-0.896-2-2s0.895-2,2-2h37.25"/>
		<path fill="#B1B3B4" d="M468.271,124.927h-37.25c-1.105,0-2-0.896-2-2s0.895-2,2-2h37.25"/>
	</g>
	<rect x="451.617" y="199.583" fill="#C6C7C8" width="4" height="71.25"/>
	<rect x="436.554" y="200.992" opacity="0.4" fill="#C6C7C8" width="4" height="68.968"/>
	<rect x="451.521" y="142.734" fill="#C6C7C8" width="4" height="55.474"/>
	<path fill="none" stroke="#D9DADB" stroke-width="4" stroke-miterlimit="10" d="M475.771,255.734
		c0,9.394-7.615,17.008-17.008,17.008h-10.484c-9.393,0-17.008-7.614-17.008-17.008v-40.519c0-9.394,7.615-17.008,17.008-17.008
		h10.484c9.393,0,17.008,7.614,17.008,17.008V255.734z"/>
</g>
<g id="_x33_">
	<rect x="705.488" y="199.583" opacity="0.4" fill="#C6C7C8" width="4" height="71.25"/>
	<g>
		<rect x="635.91" y="20.334" fill="#FFFFFF" width="19.709" height="18.146"/>
		<rect x="635.91" y="20.334" fill="#F6F6F6" width="9.854" height="18.146"/>
	</g>
	<g>
		<rect x="657.307" y="20.334" fill="#E74D3D" width="14" height="18.146"/>
		<rect x="657.307" y="20.334" fill="#BF392A" width="7" height="18.146"/>
	</g>
	
		<path fill="#FFFFFF" stroke="#FFFFFF" stroke-width="6" stroke-linecap="round" stroke-linejoin="round" stroke-miterlimit="10" d="
		M686.943,38.927c-1.717-3.676-5.836-5.669-8.967-5.669H516.52c-3.131,0-5.669,2.538-5.669,5.669v95.346
		c0,3.131,2.538,5.669,5.669,5.669h189.543c3.131,0,5.67-2.538,5.67-5.669V78.435L686.943,38.927z M595.174,88.333h-48.867
		c-11.12,0-20.134-9.014-20.134-20.133c0-11.12,9.014-20.133,20.134-20.133h48.867c11.119,0,20.133,9.014,20.133,20.133
		C615.307,79.32,606.293,88.333,595.174,88.333z"/>
	<g>
		<path fill="#F9FAFA" d="M543.729,51.285c-8.299,1.254-14.556,8.526-14.556,16.916c0,9.447,7.687,17.133,17.134,17.133h48.867
			c3.707,0,7.25-1.186,10.244-3.429l1.461-1.103l1.811,0.89l103.043,58.892c0,0-0.578,2.358-5.67,2.358H516.52
			c-4.779,0-8.669-3.889-8.669-8.669V38.927c0-4.78,3.89-8.669,8.669-8.669c0.516,0,1.023,0.133,1.473,0.386L552.473,51"/>
	</g>
	<g>
		<path fill="#B1B3B4" d="M714.723,106.333h-37.25c-1.105,0-2-0.896-2-2s0.895-2,2-2h37.25"/>
		<path fill="#B1B3B4" d="M714.723,115.63h-37.25c-1.105,0-2-0.896-2-2s0.895-2,2-2h37.25"/>
		<path fill="#B1B3B4" d="M714.723,124.927h-37.25c-1.105,0-2-0.896-2-2s0.895-2,2-2h37.25"/>
	</g>
	<rect x="698.07" y="199.583" fill="#C6C7C8" width="4" height="71.25"/>
	<rect x="690.674" y="199.583" opacity="0.4" fill="#C6C7C8" width="4" height="71.25"/>
	<rect x="697.973" y="142.734" fill="#C6C7C8" width="4" height="55.474"/>
	<path fill="none" stroke="#D9DADB" stroke-width="4" stroke-miterlimit="10" d="M722.223,255.734
		c0,9.394-7.615,17.008-17.008,17.008H694.73c-9.393,0-17.008-7.614-17.008-17.008v-40.519c0-9.394,7.615-17.008,17.008-17.008
		h10.484c9.393,0,17.008,7.614,17.008,17.008V255.734z"/>
</g>
<g id="_x34_">
	<rect x="959.609" y="200.992" opacity="0.4" fill="#C6C7C8" width="4" height="68.968"/>
	<g>
		<rect x="882.364" y="20.334" fill="#FFFFFF" width="19.709" height="18.146"/>
		<rect x="882.364" y="20.334" fill="#F6F6F6" width="9.854" height="18.146"/>
	</g>
	<g>
		<rect x="903.761" y="20.334" fill="#E74D3D" width="14" height="18.146"/>
		<rect x="903.761" y="20.334" fill="#BF392A" width="7" height="18.146"/>
	</g>
	
		<path fill="#FFFFFF" stroke="#FFFFFF" stroke-width="6" stroke-linecap="round" stroke-linejoin="round" stroke-miterlimit="10" d="
		M933.397,38.927c-1.717-3.676-5.836-5.669-8.967-5.669H762.974c-3.132,0-5.669,2.538-5.669,5.669v95.346
		c0,3.131,2.537,5.669,5.669,5.669h189.543c3.131,0,5.67-2.538,5.67-5.669V78.435L933.397,38.927z M841.627,88.333H792.76
		c-11.119,0-20.133-9.014-20.133-20.133c0-11.12,9.014-20.133,20.133-20.133h48.867c11.119,0,20.133,9.014,20.133,20.133
		C861.76,79.32,852.746,88.333,841.627,88.333z"/>
	<g>
		<path fill="#F9FAFA" d="M790.182,51.285c-8.298,1.254-14.555,8.526-14.555,16.916c0,9.447,7.686,17.133,17.133,17.133h48.867
			c3.707,0,7.25-1.186,10.244-3.429l1.461-1.103l1.811,0.89l103.044,58.892c0,0-0.578,2.358-5.67,2.358H762.974
			c-4.78,0-8.669-3.889-8.669-8.669V38.927c0-4.78,3.889-8.669,8.669-8.669c0.516,0,1.022,0.133,1.472,0.386L798.926,51"/>
	</g>
	<g>
		<path fill="#B1B3B4" d="M961.177,106.333h-37.25c-1.105,0-2-0.896-2-2s0.895-2,2-2h37.25"/>
		<path fill="#B1B3B4" d="M961.177,115.63h-37.25c-1.105,0-2-0.896-2-2s0.895-2,2-2h37.25"/>
		<path fill="#B1B3B4" d="M961.177,124.927h-37.25c-1.105,0-2-0.896-2-2s0.895-2,2-2h37.25"/>
	</g>
	<rect x="944.523" y="199.583" fill="#C6C7C8" width="4" height="71.25"/>
	<rect x="929.46" y="200.992" opacity="0.4" fill="#C6C7C8" width="4" height="68.968"/>
	<rect x="944.427" y="142.734" fill="#C6C7C8" width="4" height="55.474"/>
	<path fill="none" stroke="#D9DADB" stroke-width="4" stroke-miterlimit="10" d="M968.677,255.734
		c0,9.394-7.615,17.008-17.008,17.008h-10.484c-9.393,0-17.008-7.614-17.008-17.008v-40.519c0-9.394,7.615-17.008,17.008-17.008
		h10.484c9.393,0,17.008,7.614,17.008,17.008V255.734z"/>
</g>
</svg>
