<?xml version="1.0" encoding="utf-8"?>
<!-- Generator: Adobe Illustrator 15.0.2, SVG Export Plug-In . SVG Version: 6.00 Build 0)  -->
<!DOCTYPE svg PUBLIC "-//W3C//DTD SVG 1.1//EN" "http://www.w3.org/Graphics/SVG/1.1/DTD/svg11.dtd">
<svg version="1.1" id="Lager_1" xmlns="http://www.w3.org/2000/svg" xmlns:xlink="http://www.w3.org/1999/xlink" x="0px" y="0px"
	 width="794.171px" height="387.68px" viewBox="0 0 794.171 387.68" enable-background="new 0 0 794.171 387.68"
	 xml:space="preserve">
<g>
	<g>
		
			<rect x="0.583" y="92.229" fill="#EDE0CC" stroke="#EDE0CC" stroke-width="1.1654" stroke-miterlimit="10" width="793.006" height="294.867"/>
		
			<rect x="0.583" y="92.229" opacity="0.33" fill="#CABC9E" stroke="#CABC9E" stroke-width="0.8241" stroke-miterlimit="10" enable-background="new    " width="396.504" height="294.867"/>
	</g>
	
		<rect x="0.583" y="0.29" fill="#847365" stroke="#847365" stroke-width="0.5798" stroke-miterlimit="10" width="793.006" height="91.938"/>
	<g>
		<g>
			
				<rect x="307.637" y="286.033" fill="#847365" stroke="#847365" stroke-width="0.995" stroke-linecap="round" stroke-linejoin="round" stroke-miterlimit="10" width="17.188" height="21.992"/>
			
				<rect x="307.637" y="260.046" fill="#847365" stroke="#847365" stroke-width="0.995" stroke-linecap="round" stroke-linejoin="round" stroke-miterlimit="10" width="17.188" height="21.99"/>
			
				<rect x="329.003" y="260.046" fill="#847365" stroke="#847365" stroke-width="0.995" stroke-linecap="round" stroke-linejoin="round" stroke-miterlimit="10" width="17.187" height="21.99"/>
			
				<rect x="329.003" y="286.033" fill="#847365" stroke="#847365" stroke-width="0.995" stroke-linecap="round" stroke-linejoin="round" stroke-miterlimit="10" width="17.187" height="21.992"/>
		</g>
		<g>
			
				<rect x="307.637" y="196.272" fill="#847365" stroke="#847365" stroke-width="0.995" stroke-linecap="round" stroke-linejoin="round" stroke-miterlimit="10" width="17.188" height="21.988"/>
			
				<rect x="307.637" y="170.285" fill="#847365" stroke="#847365" stroke-width="0.995" stroke-linecap="round" stroke-linejoin="round" stroke-miterlimit="10" width="17.188" height="21.988"/>
			
				<rect x="329.003" y="170.285" fill="#847365" stroke="#847365" stroke-width="0.995" stroke-linecap="round" stroke-linejoin="round" stroke-miterlimit="10" width="17.187" height="21.988"/>
			
				<rect x="329.003" y="196.272" fill="#847365" stroke="#847365" stroke-width="0.995" stroke-linecap="round" stroke-linejoin="round" stroke-miterlimit="10" width="17.187" height="21.988"/>
		</g>
	</g>
	<g>
		<g>
			
				<rect x="237.464" y="286.033" fill="#847365" stroke="#847365" stroke-width="0.995" stroke-linecap="round" stroke-linejoin="round" stroke-miterlimit="10" width="17.188" height="21.992"/>
			
				<rect x="237.464" y="260.046" fill="#847365" stroke="#847365" stroke-width="0.995" stroke-linecap="round" stroke-linejoin="round" stroke-miterlimit="10" width="17.188" height="21.99"/>
			
				<rect x="258.829" y="260.046" fill="#847365" stroke="#847365" stroke-width="0.995" stroke-linecap="round" stroke-linejoin="round" stroke-miterlimit="10" width="17.187" height="21.99"/>
			
				<rect x="258.829" y="286.033" fill="#847365" stroke="#847365" stroke-width="0.995" stroke-linecap="round" stroke-linejoin="round" stroke-miterlimit="10" width="17.187" height="21.992"/>
		</g>
		<g>
			
				<rect x="237.464" y="196.272" fill="#847365" stroke="#847365" stroke-width="0.995" stroke-linecap="round" stroke-linejoin="round" stroke-miterlimit="10" width="17.188" height="21.988"/>
			
				<rect x="237.464" y="170.285" fill="#847365" stroke="#847365" stroke-width="0.995" stroke-linecap="round" stroke-linejoin="round" stroke-miterlimit="10" width="17.188" height="21.988"/>
			
				<rect x="258.829" y="170.285" fill="#847365" stroke="#847365" stroke-width="0.995" stroke-linecap="round" stroke-linejoin="round" stroke-miterlimit="10" width="17.187" height="21.988"/>
			
				<rect x="258.829" y="196.272" fill="#847365" stroke="#847365" stroke-width="0.995" stroke-linecap="round" stroke-linejoin="round" stroke-miterlimit="10" width="17.187" height="21.988"/>
		</g>
	</g>
	<g>
		<g>
			
				<rect x="167.292" y="286.033" fill="#847365" stroke="#847365" stroke-width="0.995" stroke-linecap="round" stroke-linejoin="round" stroke-miterlimit="10" width="17.188" height="21.992"/>
			
				<rect x="167.292" y="260.046" fill="#847365" stroke="#847365" stroke-width="0.995" stroke-linecap="round" stroke-linejoin="round" stroke-miterlimit="10" width="17.188" height="21.99"/>
			
				<rect x="188.657" y="260.046" fill="#847365" stroke="#847365" stroke-width="0.995" stroke-linecap="round" stroke-linejoin="round" stroke-miterlimit="10" width="17.187" height="21.99"/>
			
				<rect x="188.657" y="286.033" fill="#847365" stroke="#847365" stroke-width="0.995" stroke-linecap="round" stroke-linejoin="round" stroke-miterlimit="10" width="17.187" height="21.992"/>
		</g>
		<g>
			
				<rect x="167.292" y="196.272" fill="#847365" stroke="#847365" stroke-width="0.995" stroke-linecap="round" stroke-linejoin="round" stroke-miterlimit="10" width="17.188" height="21.988"/>
			
				<rect x="167.292" y="170.285" fill="#847365" stroke="#847365" stroke-width="0.995" stroke-linecap="round" stroke-linejoin="round" stroke-miterlimit="10" width="17.188" height="21.988"/>
			
				<rect x="188.657" y="170.285" fill="#847365" stroke="#847365" stroke-width="0.995" stroke-linecap="round" stroke-linejoin="round" stroke-miterlimit="10" width="17.187" height="21.988"/>
			
				<rect x="188.657" y="196.272" fill="#847365" stroke="#847365" stroke-width="0.995" stroke-linecap="round" stroke-linejoin="round" stroke-miterlimit="10" width="17.187" height="21.988"/>
		</g>
	</g>
	<g>
		<g>
			
				<rect x="97.118" y="286.033" fill="#847365" stroke="#847365" stroke-width="0.995" stroke-linecap="round" stroke-linejoin="round" stroke-miterlimit="10" width="17.188" height="21.992"/>
			
				<rect x="97.118" y="260.046" fill="#847365" stroke="#847365" stroke-width="0.995" stroke-linecap="round" stroke-linejoin="round" stroke-miterlimit="10" width="17.188" height="21.99"/>
			
				<rect x="118.483" y="260.046" fill="#847365" stroke="#847365" stroke-width="0.995" stroke-linecap="round" stroke-linejoin="round" stroke-miterlimit="10" width="17.187" height="21.99"/>
			
				<rect x="118.483" y="286.033" fill="#847365" stroke="#847365" stroke-width="0.995" stroke-linecap="round" stroke-linejoin="round" stroke-miterlimit="10" width="17.187" height="21.992"/>
		</g>
		<g>
			
				<rect x="97.118" y="196.272" fill="#847365" stroke="#847365" stroke-width="0.995" stroke-linecap="round" stroke-linejoin="round" stroke-miterlimit="10" width="17.188" height="21.988"/>
			
				<rect x="97.118" y="170.285" fill="#847365" stroke="#847365" stroke-width="0.995" stroke-linecap="round" stroke-linejoin="round" stroke-miterlimit="10" width="17.188" height="21.988"/>
			
				<rect x="118.483" y="170.285" fill="#847365" stroke="#847365" stroke-width="0.995" stroke-linecap="round" stroke-linejoin="round" stroke-miterlimit="10" width="17.187" height="21.988"/>
			
				<rect x="118.483" y="196.272" fill="#847365" stroke="#847365" stroke-width="0.995" stroke-linecap="round" stroke-linejoin="round" stroke-miterlimit="10" width="17.187" height="21.988"/>
		</g>
	</g>
	<g>
		<g>
			
				<rect x="26.944" y="286.033" fill="#847365" stroke="#847365" stroke-width="0.995" stroke-linecap="round" stroke-linejoin="round" stroke-miterlimit="10" width="17.188" height="21.992"/>
			
				<rect x="26.944" y="260.046" fill="#847365" stroke="#847365" stroke-width="0.995" stroke-linecap="round" stroke-linejoin="round" stroke-miterlimit="10" width="17.188" height="21.99"/>
			
				<rect x="48.309" y="260.046" fill="#847365" stroke="#847365" stroke-width="0.995" stroke-linecap="round" stroke-linejoin="round" stroke-miterlimit="10" width="17.186" height="21.99"/>
			
				<rect x="48.309" y="286.033" fill="#847365" stroke="#847365" stroke-width="0.995" stroke-linecap="round" stroke-linejoin="round" stroke-miterlimit="10" width="17.186" height="21.992"/>
		</g>
		<g>
			
				<rect x="26.944" y="196.272" fill="#847365" stroke="#847365" stroke-width="0.995" stroke-linecap="round" stroke-linejoin="round" stroke-miterlimit="10" width="17.188" height="21.988"/>
			
				<rect x="26.944" y="170.285" fill="#847365" stroke="#847365" stroke-width="0.995" stroke-linecap="round" stroke-linejoin="round" stroke-miterlimit="10" width="17.188" height="21.988"/>
			
				<rect x="48.309" y="170.285" fill="#847365" stroke="#847365" stroke-width="0.995" stroke-linecap="round" stroke-linejoin="round" stroke-miterlimit="10" width="17.186" height="21.988"/>
			
				<rect x="48.309" y="196.272" fill="#847365" stroke="#847365" stroke-width="0.995" stroke-linecap="round" stroke-linejoin="round" stroke-miterlimit="10" width="17.186" height="21.988"/>
		</g>
	</g>
	<g>
		<g>
			
				<rect x="377.811" y="286.033" fill="#847365" stroke="#847365" stroke-width="0.995" stroke-linecap="round" stroke-linejoin="round" stroke-miterlimit="10" width="17.188" height="21.992"/>
			
				<rect x="377.811" y="260.046" fill="#847365" stroke="#847365" stroke-width="0.995" stroke-linecap="round" stroke-linejoin="round" stroke-miterlimit="10" width="17.188" height="21.99"/>
		</g>
		<g>
			
				<rect x="377.811" y="196.272" fill="#847365" stroke="#847365" stroke-width="0.995" stroke-linecap="round" stroke-linejoin="round" stroke-miterlimit="10" width="17.188" height="21.988"/>
			
				<rect x="377.811" y="170.285" fill="#847365" stroke="#847365" stroke-width="0.995" stroke-linecap="round" stroke-linejoin="round" stroke-miterlimit="10" width="17.188" height="21.988"/>
		</g>
	</g>
	
		<rect x="0.583" y="0.29" fill="#776458" stroke="#776458" stroke-width="0.41" stroke-miterlimit="10" width="396.504" height="91.938"/>
	<g>
		<g>
			
				<rect x="469.348" y="170.285" fill="#A28878" stroke="#A28878" stroke-width="0.995" stroke-linecap="round" stroke-linejoin="round" stroke-miterlimit="10" width="17.188" height="21.992"/>
			
				<rect x="469.348" y="196.274" fill="#A28878" stroke="#A28878" stroke-width="0.995" stroke-linecap="round" stroke-linejoin="round" stroke-miterlimit="10" width="17.188" height="21.986"/>
			
				<rect x="447.985" y="196.274" fill="#A28878" stroke="#A28878" stroke-width="0.995" stroke-linecap="round" stroke-linejoin="round" stroke-miterlimit="10" width="17.187" height="21.986"/>
			
				<rect x="447.985" y="170.285" fill="#A28878" stroke="#A28878" stroke-width="0.995" stroke-linecap="round" stroke-linejoin="round" stroke-miterlimit="10" width="17.187" height="21.992"/>
		</g>
		<g>
			
				<rect x="469.348" y="260.046" fill="#A28878" stroke="#A28878" stroke-width="0.995" stroke-linecap="round" stroke-linejoin="round" stroke-miterlimit="10" width="17.188" height="21.992"/>
			
				<rect x="469.348" y="286.035" fill="#A28878" stroke="#A28878" stroke-width="0.995" stroke-linecap="round" stroke-linejoin="round" stroke-miterlimit="10" width="17.188" height="21.99"/>
			
				<rect x="447.985" y="286.035" fill="#A28878" stroke="#A28878" stroke-width="0.995" stroke-linecap="round" stroke-linejoin="round" stroke-miterlimit="10" width="17.187" height="21.99"/>
			
				<rect x="447.985" y="260.046" fill="#A28878" stroke="#A28878" stroke-width="0.995" stroke-linecap="round" stroke-linejoin="round" stroke-miterlimit="10" width="17.187" height="21.992"/>
		</g>
	</g>
	<g>
		<g>
			
				<rect x="539.521" y="170.285" fill="#A28878" stroke="#A28878" stroke-width="0.995" stroke-linecap="round" stroke-linejoin="round" stroke-miterlimit="10" width="17.188" height="21.992"/>
			
				<rect x="539.521" y="196.274" fill="#A28878" stroke="#A28878" stroke-width="0.995" stroke-linecap="round" stroke-linejoin="round" stroke-miterlimit="10" width="17.188" height="21.986"/>
			
				<rect x="518.159" y="196.274" fill="#A28878" stroke="#A28878" stroke-width="0.995" stroke-linecap="round" stroke-linejoin="round" stroke-miterlimit="10" width="17.187" height="21.986"/>
			
				<rect x="518.159" y="170.285" fill="#A28878" stroke="#A28878" stroke-width="0.995" stroke-linecap="round" stroke-linejoin="round" stroke-miterlimit="10" width="17.187" height="21.992"/>
		</g>
		<g>
			
				<rect x="539.521" y="260.046" fill="#A28878" stroke="#A28878" stroke-width="0.995" stroke-linecap="round" stroke-linejoin="round" stroke-miterlimit="10" width="17.188" height="21.992"/>
			
				<rect x="539.521" y="286.035" fill="#A28878" stroke="#A28878" stroke-width="0.995" stroke-linecap="round" stroke-linejoin="round" stroke-miterlimit="10" width="17.188" height="21.99"/>
			
				<rect x="518.159" y="286.035" fill="#A28878" stroke="#A28878" stroke-width="0.995" stroke-linecap="round" stroke-linejoin="round" stroke-miterlimit="10" width="17.187" height="21.99"/>
			
				<rect x="518.159" y="260.046" fill="#A28878" stroke="#A28878" stroke-width="0.995" stroke-linecap="round" stroke-linejoin="round" stroke-miterlimit="10" width="17.187" height="21.992"/>
		</g>
	</g>
	<g>
		<g>
			
				<rect x="609.694" y="170.285" fill="#A28878" stroke="#A28878" stroke-width="0.995" stroke-linecap="round" stroke-linejoin="round" stroke-miterlimit="10" width="17.188" height="21.992"/>
			
				<rect x="609.694" y="196.274" fill="#A28878" stroke="#A28878" stroke-width="0.995" stroke-linecap="round" stroke-linejoin="round" stroke-miterlimit="10" width="17.188" height="21.986"/>
			
				<rect x="588.331" y="196.274" fill="#A28878" stroke="#A28878" stroke-width="0.995" stroke-linecap="round" stroke-linejoin="round" stroke-miterlimit="10" width="17.187" height="21.986"/>
			
				<rect x="588.331" y="170.285" fill="#A28878" stroke="#A28878" stroke-width="0.995" stroke-linecap="round" stroke-linejoin="round" stroke-miterlimit="10" width="17.187" height="21.992"/>
		</g>
		<g>
			
				<rect x="609.694" y="260.046" fill="#A28878" stroke="#A28878" stroke-width="0.995" stroke-linecap="round" stroke-linejoin="round" stroke-miterlimit="10" width="17.188" height="21.992"/>
			
				<rect x="609.694" y="286.035" fill="#A28878" stroke="#A28878" stroke-width="0.995" stroke-linecap="round" stroke-linejoin="round" stroke-miterlimit="10" width="17.188" height="21.99"/>
			
				<rect x="588.331" y="286.035" fill="#A28878" stroke="#A28878" stroke-width="0.995" stroke-linecap="round" stroke-linejoin="round" stroke-miterlimit="10" width="17.187" height="21.99"/>
			
				<rect x="588.331" y="260.046" fill="#A28878" stroke="#A28878" stroke-width="0.995" stroke-linecap="round" stroke-linejoin="round" stroke-miterlimit="10" width="17.187" height="21.992"/>
		</g>
	</g>
	<g>
		<g>
			
				<rect x="750.042" y="170.285" fill="#A28878" stroke="#A28878" stroke-width="0.995" stroke-linecap="round" stroke-linejoin="round" stroke-miterlimit="10" width="17.188" height="21.992"/>
			
				<rect x="750.042" y="196.274" fill="#A28878" stroke="#A28878" stroke-width="0.995" stroke-linecap="round" stroke-linejoin="round" stroke-miterlimit="10" width="17.188" height="21.988"/>
			
				<rect x="728.678" y="196.274" fill="#A28878" stroke="#A28878" stroke-width="0.995" stroke-linecap="round" stroke-linejoin="round" stroke-miterlimit="10" width="17.186" height="21.988"/>
			
				<rect x="728.678" y="170.285" fill="#A28878" stroke="#A28878" stroke-width="0.995" stroke-linecap="round" stroke-linejoin="round" stroke-miterlimit="10" width="17.186" height="21.992"/>
		</g>
		<g>
			
				<rect x="750.042" y="260.048" fill="#A28878" stroke="#A28878" stroke-width="0.995" stroke-linecap="round" stroke-linejoin="round" stroke-miterlimit="10" width="17.188" height="21.99"/>
			
				<rect x="750.042" y="286.037" fill="#A28878" stroke="#A28878" stroke-width="0.995" stroke-linecap="round" stroke-linejoin="round" stroke-miterlimit="10" width="17.188" height="21.988"/>
			
				<rect x="728.678" y="286.037" fill="#A28878" stroke="#A28878" stroke-width="0.995" stroke-linecap="round" stroke-linejoin="round" stroke-miterlimit="10" width="17.186" height="21.988"/>
			
				<rect x="728.678" y="260.048" fill="#A28878" stroke="#A28878" stroke-width="0.995" stroke-linecap="round" stroke-linejoin="round" stroke-miterlimit="10" width="17.186" height="21.99"/>
		</g>
	</g>
	<g>
		<g>
			
				<rect x="399.175" y="170.285" fill="#A28878" stroke="#A28878" stroke-width="0.995" stroke-linecap="round" stroke-linejoin="round" stroke-miterlimit="10" width="17.187" height="21.992"/>
			
				<rect x="399.175" y="196.274" fill="#A28878" stroke="#A28878" stroke-width="0.995" stroke-linecap="round" stroke-linejoin="round" stroke-miterlimit="10" width="17.187" height="21.986"/>
		</g>
		<g>
			
				<rect x="399.175" y="260.046" fill="#A28878" stroke="#A28878" stroke-width="0.995" stroke-linecap="round" stroke-linejoin="round" stroke-miterlimit="10" width="17.187" height="21.992"/>
			
				<rect x="399.175" y="286.035" fill="#A28878" stroke="#A28878" stroke-width="0.995" stroke-linecap="round" stroke-linejoin="round" stroke-miterlimit="10" width="17.187" height="21.99"/>
		</g>
	</g>
	<g>
		<g>
			<path fill="#7A6A56" stroke="#7A6A56" stroke-width="0.4" stroke-miterlimit="10" d="M343.122,141.154
				c0.049,0.088,0.074,0.189,0.074,0.312c0,0.188-0.064,0.348-0.193,0.48c-0.13,0.137-0.299,0.203-0.509,0.203
				c-0.136,0-0.255-0.031-0.36-0.093c-0.104-0.062-0.188-0.153-0.248-0.276c-0.233-0.455-0.439-1.025-0.619-1.709
				c-0.18-0.685-0.334-1.445-0.463-2.281c-0.129-0.838-0.232-1.74-0.312-2.707s-0.146-1.969-0.191-3.004
				c-0.924,0.123-1.963,0.26-3.113,0.406c-1.152,0.146-2.467,0.319-3.945,0.518c-1.035,0.148-2.088,0.277-3.158,0.391
				c-2.638,2.87-5.412,5.047-8.324,6.529c-2.914,1.484-5.836,2.229-8.769,2.229c-1.306,0-2.437-0.125-3.392-0.379
				c-0.953-0.252-1.742-0.535-2.365-0.852c-0.621-0.313-1.09-0.605-1.402-0.877c-0.314-0.271-0.484-0.42-0.509-0.441
				c-0.123-0.123-0.185-0.283-0.185-0.48s0.065-0.363,0.203-0.5c0.136-0.135,0.295-0.203,0.479-0.203
				c0.209,0,0.382,0.074,0.52,0.225c0.022,0.021,0.172,0.148,0.441,0.379c0.271,0.227,0.674,0.471,1.21,0.729
				c0.536,0.261,1.217,0.494,2.042,0.703s1.807,0.314,2.938,0.314c1.554,0,3.037-0.211,4.453-0.629
				c1.416-0.419,2.756-0.965,4.02-1.637s2.438-1.438,3.527-2.301s2.08-1.736,2.967-2.623c-0.875,0.072-1.744,0.129-2.604,0.166
				s-1.712,0.055-2.55,0.055c-1.648,0-3.223-0.092-4.712-0.275c-1.489-0.185-2.802-0.496-3.937-0.934
				c-1.133-0.438-2.035-1.02-2.707-1.744c-0.672-0.729-1.008-1.635-1.008-2.719c0-0.491,0.104-0.984,0.307-1.479
				c0.204-0.492,0.445-0.939,0.729-1.34c0.283-0.401,0.58-0.729,0.889-0.979s0.573-0.379,0.794-0.379
				c0.173,0,0.333,0.061,0.479,0.184c0.147,0.125,0.224,0.291,0.224,0.5c0,0.111-0.024,0.221-0.074,0.322
				c-0.05,0.105-0.123,0.189-0.224,0.25c-0.022,0.025-0.129,0.111-0.312,0.26c-0.186,0.146-0.382,0.35-0.591,0.602
				c-0.21,0.252-0.399,0.555-0.573,0.906c-0.173,0.35-0.259,0.729-0.259,1.135c0,0.703,0.243,1.322,0.729,1.855
				c0.485,0.537,1.193,0.986,2.125,1.352c0.931,0.362,2.071,0.637,3.426,0.822c1.355,0.184,2.901,0.275,4.64,0.275
				c0.998,0,2.051-0.031,3.16-0.094c1.106-0.061,2.276-0.152,3.51-0.277c0.592-0.65,1.115-1.268,1.569-1.848
				c0.457-0.578,0.846-1.096,1.164-1.551c0.529-0.752,1.084-1.555,1.664-2.402c0.578-0.85,1.153-1.713,1.729-2.588
				c0.57-0.873,1.133-1.738,1.682-2.596c0.549-0.855,1.062-1.662,1.543-2.42c0.48-0.76,0.912-1.447,1.295-2.07
				c0.381-0.621,0.694-1.135,0.94-1.541c0.073-0.334,0.187-0.639,0.332-0.916c0.147-0.277,0.39-0.416,0.722-0.416
				c0.186,0,0.362,0.078,0.537,0.232c0.172,0.152,0.258,0.348,0.258,0.58c0,0.174-0.062,0.357-0.187,0.555
				c-0.123,0.195-0.237,0.365-0.353,0.5c-0.037,0.232-0.096,0.73-0.176,1.496c-0.078,0.764-0.16,1.695-0.24,2.799
				s-0.146,2.314-0.203,3.641c-0.056,1.325-0.082,2.664-0.082,4.021c0,0.504,0,1.004,0,1.496c0,0.49,0.014,0.99,0.037,1.494
				c1.849-0.232,3.195-0.396,4.047-0.486c0.851-0.094,1.299-0.141,1.35-0.141c0.16,0,0.316,0.064,0.473,0.193
				c0.152,0.129,0.229,0.299,0.229,0.508c0,0.172-0.06,0.324-0.176,0.453s-0.269,0.207-0.453,0.23
				c-0.224,0.023-0.479,0.057-0.774,0.092c-0.295,0.037-0.658,0.08-1.09,0.131c-0.433,0.049-0.938,0.107-1.517,0.176
				c-0.579,0.066-1.257,0.15-2.032,0.248c0.036,1.01,0.096,1.98,0.175,2.91s0.181,1.795,0.296,2.596
				c0.116,0.803,0.256,1.521,0.416,2.162C342.73,140.226,342.913,140.747,343.122,141.154z M333.052,131.62
				c1.453-0.197,2.774-0.373,3.963-0.527c1.188-0.152,2.265-0.293,3.226-0.416c-0.014-0.527-0.021-1.059-0.027-1.588
				c-0.006-0.527-0.009-1.064-0.009-1.605c0-1.736,0.03-3.396,0.093-4.98c0.062-1.582,0.146-2.959,0.258-4.129
				c-0.492,0.775-1.037,1.635-1.635,2.578c-0.6,0.941-1.217,1.902-1.855,2.881c-0.642,0.98-1.287,1.949-1.939,2.91
				s-1.275,1.861-1.866,2.699c-0.296,0.418-0.599,0.822-0.905,1.219c-0.309,0.395-0.615,0.781-0.924,1.164
				c0.271-0.025,0.539-0.055,0.806-0.092S332.769,131.658,333.052,131.62z"/>
			<path fill="#7A6A56" stroke="#7A6A56" stroke-width="0.4" stroke-miterlimit="10" d="M351.235,139.583
				c0.195-0.406,0.424-0.854,0.685-1.34s0.535-0.979,0.831-1.477c0.296-0.5,0.605-0.996,0.936-1.488
				c0.326-0.492,0.668-0.961,1.023-1.404c0.355-0.432,0.717-0.742,1.08-0.934c0.363-0.189,0.706-0.285,1.025-0.285
				c0.641,0,1.113,0.23,1.422,0.701c0.31,0.469,0.461,1.047,0.461,1.734c0,0.16-0.008,0.355-0.025,0.582
				c-0.02,0.229-0.037,0.475-0.057,0.73c-0.02,0.26-0.037,0.521-0.056,0.785c-0.019,0.266-0.028,0.514-0.028,0.748
				c0,0.297,0.018,0.578,0.047,0.85c0.03,0.271,0.09,0.51,0.176,0.713s0.209,0.363,0.369,0.48c0.16,0.115,0.369,0.176,0.629,0.176
				c0.467,0,0.924-0.186,1.367-0.547c0.443-0.363,0.854-0.793,1.229-1.293c0.376-0.498,0.702-1.008,0.979-1.523
				c0.276-0.517,0.482-0.938,0.619-1.258c0.062-0.135,0.149-0.24,0.269-0.312c0.117-0.072,0.243-0.109,0.379-0.109
				c0.209,0,0.379,0.076,0.508,0.229c0.13,0.154,0.194,0.318,0.194,0.49c0,0.086-0.021,0.172-0.058,0.258
				c-0.049,0.102-0.146,0.303-0.295,0.609c-0.147,0.309-0.342,0.662-0.582,1.062c-0.24,0.4-0.521,0.826-0.841,1.275
				s-0.675,0.858-1.062,1.229s-0.808,0.68-1.258,0.926c-0.449,0.244-0.92,0.367-1.412,0.367c-0.556,0-1.004-0.105-1.35-0.32
				c-0.346-0.216-0.616-0.498-0.812-0.852c-0.196-0.352-0.33-0.739-0.396-1.164c-0.066-0.426-0.104-0.854-0.104-1.284
				c0-0.185,0.01-0.396,0.028-0.628s0.043-0.479,0.073-0.738c0.031-0.259,0.057-0.52,0.074-0.775c0.02-0.26,0.027-0.506,0.027-0.74
				c0-0.393-0.062-0.661-0.187-0.803c-0.123-0.143-0.231-0.213-0.332-0.213c-0.196,0-0.422,0.113-0.675,0.342
				c-0.253,0.229-0.52,0.527-0.795,0.896c-0.275,0.368-0.562,0.783-0.852,1.248c-0.289,0.461-0.561,0.92-0.812,1.375
				c-0.253,0.456-0.487,0.891-0.702,1.303c-0.216,0.414-0.387,0.756-0.509,1.023c-0.246,0.52-0.492,0.865-0.737,1.046
				c-0.248,0.179-0.5,0.269-0.758,0.269c-0.356,0-0.645-0.107-0.858-0.324c-0.216-0.215-0.323-0.52-0.323-0.914
				c0-0.086,0.014-0.256,0.037-0.508s0.057-0.555,0.092-0.906c0.037-0.35,0.074-0.729,0.109-1.135
				c0.037-0.406,0.074-0.811,0.11-1.211s0.067-0.772,0.093-1.117c0.023-0.346,0.037-0.635,0.037-0.869
				c0-0.309-0.014-0.604-0.037-0.887s-0.074-0.455-0.146-0.518c-0.11,0.035-0.31,0.268-0.592,0.691
				c-0.283,0.424-0.646,1.174-1.09,2.244c-0.062,0.137-0.153,0.24-0.276,0.314c-0.123,0.073-0.253,0.109-0.39,0.109
				c-0.209,0-0.375-0.068-0.498-0.213c-0.123-0.141-0.187-0.305-0.187-0.489c0-0.087,0.021-0.179,0.056-0.276
				c0.557-1.316,1.076-2.287,1.562-2.91c0.486-0.621,0.971-0.932,1.45-0.932c0.284,0,0.524,0.068,0.722,0.213
				c0.196,0.141,0.354,0.328,0.473,0.562c0.118,0.234,0.203,0.492,0.259,0.775s0.083,0.574,0.083,0.869
				c0,0.223-0.018,0.564-0.047,1.035c-0.029,0.467-0.068,0.969-0.119,1.506c-0.05,0.534-0.098,1.066-0.141,1.598
				C351.31,138.783,351.27,139.228,351.235,139.583z"/>
			<path fill="#7A6A56" stroke="#7A6A56" stroke-width="0.4" stroke-miterlimit="10" d="M368.067,139.583
				c0.196-0.406,0.424-0.854,0.685-1.34s0.536-0.979,0.832-1.477c0.295-0.5,0.604-0.996,0.935-1.488
				c0.326-0.492,0.668-0.961,1.023-1.404c0.355-0.432,0.718-0.742,1.081-0.934c0.362-0.189,0.705-0.285,1.024-0.285
				c0.642,0,1.115,0.23,1.422,0.701c0.31,0.469,0.463,1.047,0.463,1.734c0,0.16-0.01,0.355-0.026,0.582
				c-0.021,0.229-0.037,0.475-0.058,0.73c-0.019,0.26-0.037,0.521-0.056,0.785c-0.019,0.266-0.026,0.514-0.026,0.748
				c0,0.297,0.016,0.578,0.045,0.85c0.031,0.271,0.09,0.51,0.176,0.713s0.209,0.363,0.369,0.48c0.16,0.115,0.371,0.176,0.629,0.176
				c0.47,0,0.924-0.186,1.367-0.547c0.443-0.363,0.854-0.793,1.229-1.293c0.376-0.498,0.702-1.008,0.979-1.523
				c0.274-0.518,0.481-0.938,0.617-1.258c0.062-0.135,0.15-0.24,0.27-0.312c0.117-0.072,0.243-0.109,0.379-0.109
				c0.209,0,0.378,0.076,0.508,0.229c0.13,0.154,0.193,0.318,0.193,0.49c0,0.086-0.02,0.172-0.057,0.258
				c-0.05,0.102-0.146,0.303-0.296,0.609c-0.146,0.309-0.342,0.662-0.582,1.062c-0.24,0.4-0.521,0.826-0.841,1.275
				s-0.674,0.858-1.062,1.229c-0.389,0.369-0.808,0.68-1.256,0.926c-0.451,0.244-0.922,0.367-1.414,0.367
				c-0.555,0-1.004-0.105-1.35-0.32c-0.346-0.216-0.615-0.498-0.812-0.852c-0.195-0.352-0.33-0.739-0.396-1.164
				c-0.065-0.426-0.103-0.854-0.103-1.284c0-0.185,0.008-0.396,0.026-0.628s0.043-0.479,0.074-0.738
				c0.03-0.259,0.056-0.52,0.073-0.775c0.02-0.26,0.027-0.506,0.027-0.74c0-0.393-0.062-0.661-0.186-0.803
				c-0.123-0.143-0.232-0.213-0.333-0.213c-0.196,0-0.422,0.113-0.675,0.342c-0.252,0.229-0.518,0.527-0.794,0.896
				c-0.276,0.368-0.562,0.783-0.851,1.248c-0.291,0.461-0.562,0.92-0.812,1.375c-0.252,0.456-0.484,0.891-0.702,1.303
				c-0.216,0.414-0.385,0.756-0.508,1.023c-0.246,0.52-0.493,0.865-0.737,1.046c-0.246,0.179-0.5,0.269-0.758,0.269
				c-0.357,0-0.646-0.107-0.859-0.324c-0.215-0.215-0.323-0.52-0.323-0.914c0-0.086,0.013-0.256,0.037-0.508
				s0.056-0.555,0.093-0.906c0.037-0.35,0.074-0.729,0.109-1.135c0.037-0.406,0.074-0.811,0.11-1.211s0.065-0.772,0.093-1.117
				c0.023-0.346,0.036-0.635,0.036-0.869c0-0.309-0.013-0.604-0.036-0.887s-0.074-0.455-0.146-0.518
				c-0.11,0.035-0.31,0.268-0.592,0.691c-0.283,0.424-0.646,1.174-1.09,2.244c-0.062,0.137-0.153,0.24-0.277,0.314
				c-0.123,0.072-0.252,0.109-0.389,0.109c-0.209,0-0.375-0.068-0.498-0.213c-0.123-0.141-0.187-0.305-0.187-0.489
				c0-0.087,0.021-0.179,0.058-0.276c0.555-1.316,1.074-2.287,1.562-2.91c0.485-0.621,0.97-0.932,1.45-0.932
				c0.283,0,0.523,0.068,0.721,0.213c0.197,0.141,0.354,0.328,0.473,0.562c0.117,0.234,0.203,0.492,0.259,0.775
				s0.083,0.574,0.083,0.869c0,0.223-0.016,0.564-0.046,1.035c-0.028,0.467-0.069,0.969-0.12,1.506
				c-0.049,0.534-0.098,1.066-0.141,1.598S368.103,139.228,368.067,139.583z"/>
			<path fill="#7A6A56" stroke="#7A6A56" stroke-width="0.4" stroke-miterlimit="10" d="M389.315,139.214
				c-0.309,0-0.578-0.023-0.812-0.074c-0.187,0.369-0.405,0.713-0.665,1.025c-0.259,0.314-0.559,0.588-0.896,0.822
				s-0.717,0.42-1.137,0.555s-0.875,0.203-1.367,0.203c-0.579,0-1.107-0.102-1.589-0.305s-0.899-0.486-1.257-0.852
				c-0.357-0.362-0.635-0.801-0.831-1.312c-0.196-0.513-0.296-1.074-0.296-1.689c0-0.789,0.143-1.477,0.425-2.061
				c0.283-0.586,0.608-1.072,0.979-1.461c0.369-0.388,0.737-0.679,1.106-0.867c0.369-0.191,0.646-0.287,0.831-0.287
				c0.21,0,0.367,0.055,0.473,0.166c0.104,0.111,0.158,0.26,0.158,0.443c0,0.209-0.065,0.366-0.194,0.473
				c-0.129,0.104-0.293,0.205-0.489,0.305c-0.195,0.1-0.405,0.236-0.629,0.414c-0.222,0.182-0.428,0.404-0.617,0.678
				c-0.19,0.271-0.35,0.59-0.473,0.961c-0.123,0.368-0.186,0.779-0.186,1.236c0,0.406,0.062,0.785,0.186,1.137
				c0.123,0.352,0.302,0.652,0.536,0.904c0.233,0.252,0.511,0.449,0.831,0.594c0.32,0.141,0.678,0.211,1.072,0.211
				c0.701,0,1.283-0.162,1.744-0.488c0.463-0.326,0.815-0.742,1.062-1.248c-0.728-0.381-1.324-0.924-1.792-1.625
				c-0.468-0.703-0.702-1.49-0.702-2.365c0-0.703,0.17-1.273,0.508-1.719c0.339-0.443,0.786-0.666,1.34-0.666
				c0.333,0,0.646,0.08,0.94,0.24c0.297,0.16,0.56,0.414,0.785,0.758c0.229,0.346,0.41,0.789,0.547,1.33
				c0.135,0.543,0.203,1.188,0.203,1.939c0,0.395-0.051,0.809-0.147,1.238c0.074,0.012,0.147,0.02,0.224,0.02
				c0.074,0,0.152,0,0.24,0c0.418,0,0.795-0.051,1.127-0.148s0.635-0.246,0.903-0.443c0.271-0.195,0.517-0.447,0.729-0.758
				c0.215-0.307,0.422-0.664,0.619-1.068c0.037-0.074,0.117-0.146,0.24-0.215c0.123-0.066,0.246-0.102,0.369-0.102
				c0.16,0,0.312,0.063,0.453,0.193c0.142,0.129,0.211,0.299,0.211,0.508c0,0.1-0.022,0.207-0.071,0.323
				c-0.051,0.116-0.101,0.226-0.147,0.321c-0.209,0.371-0.453,0.727-0.729,1.062c-0.276,0.34-0.604,0.635-0.979,0.889
				c-0.375,0.252-0.797,0.451-1.267,0.601C390.417,139.16,389.894,139.228,389.315,139.214z M386.155,134.558
				c0,0.234,0.031,0.48,0.095,0.738c0.062,0.26,0.155,0.518,0.285,0.77c0.131,0.252,0.291,0.49,0.479,0.721
				c0.191,0.229,0.416,0.422,0.676,0.582c0.037-0.258,0.056-0.512,0.056-0.758c0-0.332-0.024-0.672-0.074-1.018
				c-0.049-0.346-0.119-0.662-0.213-0.951c-0.092-0.291-0.205-0.521-0.342-0.701c-0.135-0.18-0.295-0.27-0.479-0.27
				c-0.072,0-0.172,0.055-0.295,0.166C386.216,133.949,386.155,134.19,386.155,134.558z"/>
			<path fill="#7A6A56" stroke="#7A6A56" stroke-width="0.4" stroke-miterlimit="10" d="M411.099,116.21
				c0,0.506-0.11,1.014-0.333,1.523c-0.223,0.512-0.443,1.002-0.665,1.471c0,0.85-0.003,1.812-0.009,2.891
				c-0.006,1.079-0.01,2.209-0.01,3.393s-0.003,2.391-0.009,3.621s-0.013,2.43-0.019,3.594s-0.01,2.258-0.01,3.279
				s-0.004,1.922-0.01,2.697s-0.008,1.393-0.008,1.85c0,0.455,0,0.693,0,0.721c0,0.197-0.068,0.363-0.203,0.498
				c-0.138,0.135-0.305,0.203-0.5,0.203c-0.196,0-0.359-0.068-0.49-0.203c-0.129-0.135-0.192-0.301-0.192-0.498
				c0-0.025,0-0.361,0-1.008c0-0.647,0.003-1.5,0.009-2.561s0.01-2.27,0.01-3.631c0-1.359,0.003-2.771,0.009-4.23
				c0.006-1.459,0.013-2.912,0.019-4.359s0.01-2.787,0.01-4.02c-0.641,0.875-1.32,1.666-2.041,2.375
				c-0.722,0.709-1.394,1.316-2.016,1.827c-0.622,0.513-1.146,0.911-1.57,1.2c-0.424,0.291-0.662,0.453-0.711,0.49
				c-0.136,0.074-0.258,0.111-0.369,0.111c-0.172,0-0.332-0.064-0.479-0.193c-0.146-0.131-0.224-0.299-0.224-0.51
				c0-0.246,0.111-0.443,0.334-0.59c0.013-0.016,0.143-0.104,0.389-0.271c0.246-0.166,0.564-0.398,0.961-0.701
				s0.846-0.672,1.35-1.107c0.506-0.438,1.021-0.924,1.543-1.459s1.033-1.121,1.523-1.756c0.491-0.636,0.932-1.305,1.312-2.004
				c0-0.197,0-0.416,0-0.656s0-0.48,0-0.722c0-0.24,0-0.47,0-0.685s0-0.396,0-0.545c0.024-0.555,0.14-0.957,0.342-1.211
				c0.205-0.252,0.482-0.379,0.842-0.379c0.356,0,0.648,0.153,0.877,0.463C410.987,115.428,411.099,115.792,411.099,116.21z"/>
			<path fill="#7A6A56" stroke="#7A6A56" stroke-width="0.4" stroke-miterlimit="10" d="M438.87,125.69
				c0,1.648-0.256,3.277-0.769,4.887c-0.513,1.606-1.229,3.111-2.161,4.51c-0.932,1.396-2.048,2.656-3.354,3.777
				c-1.307,1.121-2.746,2.021-4.324,2.697c-0.888,0.383-1.726,0.678-2.514,0.889c-0.788,0.209-1.486,0.363-2.098,0.461
				c-0.609,0.1-1.101,0.156-1.471,0.176c-0.369,0.02-0.572,0.027-0.609,0.027c-0.195,0.012-0.361-0.053-0.498-0.193
				c-0.137-0.143-0.203-0.311-0.203-0.508s0.066-0.361,0.203-0.49s0.301-0.191,0.498-0.191c0.015,0,0.188-0.012,0.526-0.029
				c0.339-0.018,0.789-0.072,1.349-0.166c0.562-0.092,1.215-0.236,1.959-0.434c0.746-0.198,1.53-0.477,2.355-0.832
				c1.38-0.604,2.664-1.404,3.854-2.402c1.188-0.996,2.217-2.133,3.086-3.408c0.867-1.274,1.549-2.66,2.041-4.158
				c0.492-1.496,0.739-3.039,0.739-4.627c0-1.244-0.183-2.355-0.546-3.336c-0.363-0.979-0.844-1.842-1.439-2.586
				c-0.599-0.746-1.289-1.381-2.069-1.904c-0.78-0.521-1.589-0.949-2.42-1.281c-0.832-0.334-1.657-0.574-2.478-0.723
				c-0.817-0.146-1.574-0.223-2.264-0.223c-0.961,0-1.896,0.096-2.809,0.287c-0.912,0.189-1.771,0.461-2.578,0.812
				c-0.809,0.354-1.554,0.777-2.235,1.275s-1.269,1.062-1.755,1.691c-0.486,0.627-0.869,1.309-1.146,2.041
				c-0.275,0.73-0.416,1.506-0.416,2.316c0,0.888,0.117,1.679,0.353,2.375c0.233,0.695,0.56,1.312,0.972,1.85
				c0.412,0.533,0.894,0.992,1.439,1.377c0.549,0.381,1.134,0.689,1.756,0.932s1.268,0.416,1.932,0.527
				c0.666,0.109,1.317,0.166,1.959,0.166c1.27,0,2.467-0.178,3.595-0.525c1.127-0.352,2.14-0.838,3.039-1.461
				c0.899-0.621,1.66-1.357,2.282-2.207c0.622-0.852,1.062-1.775,1.32-2.771c0.037-0.16,0.117-0.287,0.24-0.381
				s0.266-0.139,0.426-0.139c0.209,0,0.379,0.07,0.508,0.213s0.192,0.307,0.192,0.488c0,0.014,0,0.026,0,0.047
				c0,0.018-0.007,0.059-0.021,0.119c-0.246,1.146-0.721,2.209-1.422,3.188c-0.703,0.98-1.566,1.824-2.597,2.531
				c-1.028,0.709-2.185,1.268-3.465,1.672c-1.28,0.408-2.63,0.611-4.047,0.611c-1.256,0-2.476-0.18-3.658-0.537
				c-1.183-0.355-2.231-0.893-3.149-1.605c-0.918-0.717-1.652-1.607-2.209-2.68c-0.554-1.07-0.83-2.328-0.83-3.77
				c0-1.418,0.334-2.729,1.006-3.938s1.574-2.246,2.707-3.111c1.133-0.869,2.445-1.553,3.938-2.043
				c1.491-0.492,3.049-0.738,4.675-0.738c1.069,0,2.128,0.119,3.169,0.357c1.041,0.24,2.027,0.594,2.965,1.055
				c0.938,0.463,1.799,1.025,2.587,1.689c0.788,0.666,1.47,1.424,2.042,2.273c0.57,0.85,1.021,1.783,1.35,2.799
				S438.87,124.521,438.87,125.69z"/>
			<path fill="#7A6A56" stroke="#7A6A56" stroke-width="0.4" stroke-miterlimit="10" d="M463.37,134.281
				c0,1.107-0.183,2.104-0.545,2.982c-0.362,0.882-0.861,1.662-1.496,2.348c-0.635,0.684-1.391,1.266-2.265,1.746
				c-0.875,0.479-1.819,0.879-2.837,1.191s-2.088,0.541-3.215,0.686c-1.127,0.141-2.266,0.211-3.409,0.211
				c-1.229,0-2.362-0.104-3.397-0.312c-1.035-0.211-1.959-0.465-2.771-0.768s-1.509-0.621-2.088-0.961
				c-0.579-0.338-1.027-0.639-1.35-0.896c-0.074-0.061-0.127-0.133-0.156-0.213c-0.031-0.08-0.047-0.168-0.047-0.268
				c0-0.186,0.066-0.352,0.203-0.498c0.135-0.148,0.303-0.225,0.5-0.225c0.098,0,0.186,0.021,0.258,0.059
				c0.074,0.037,0.152,0.086,0.24,0.146c0.195,0.123,0.521,0.33,0.971,0.619c0.449,0.291,1.031,0.582,1.746,0.879
				c0.715,0.295,1.556,0.559,2.521,0.785s2.061,0.342,3.279,0.342c1.021,0,2.041-0.057,3.059-0.166s1.984-0.293,2.91-0.545
				c0.924-0.254,1.779-0.582,2.566-0.99c0.789-0.404,1.477-0.896,2.062-1.477c0.584-0.58,1.041-1.258,1.367-2.033
				c0.326-0.773,0.488-1.656,0.488-2.643c0-1.146-0.236-2.145-0.711-2.992c-0.476-0.852-1.152-1.562-2.033-2.135
				s-1.945-1.002-3.195-1.285s-2.65-0.424-4.203-0.424c-1.184,0-2.195,0.047-3.041,0.139c-0.844,0.092-1.551,0.203-2.123,0.332
				c-0.574,0.129-1.035,0.262-1.389,0.396c-0.351,0.138-0.625,0.255-0.82,0.353c-0.1,0.049-0.213,0.1-0.342,0.147
				c-0.129,0.049-0.256,0.073-0.379,0.073c-0.209,0-0.375-0.07-0.498-0.213s-0.18-0.311-0.166-0.508l0.555-12.361
				c0.013-0.195,0.088-0.355,0.23-0.479s0.314-0.188,0.525-0.188c0.16,0,0.444,0.011,0.858,0.029
				c0.412,0.018,0.873,0.035,1.386,0.055c0.512,0.02,1.035,0.037,1.569,0.057c0.537,0.02,1.015,0.025,1.433,0.025
				c1.563,0,3.004-0.033,4.313-0.102c1.312-0.066,2.449-0.141,3.41-0.211c0.961-0.074,1.72-0.146,2.271-0.213
				c0.556-0.068,0.855-0.104,0.904-0.104c0.174,0,0.33,0.062,0.473,0.186c0.144,0.122,0.213,0.281,0.213,0.479
				c0,0.174-0.057,0.33-0.166,0.473c-0.11,0.143-0.26,0.227-0.442,0.248c-0.015,0-0.304,0.035-0.869,0.104
				c-0.565,0.066-1.34,0.143-2.317,0.223c-0.979,0.08-2.138,0.154-3.476,0.222c-1.336,0.067-2.778,0.103-4.332,0.103
				c-0.739,0-1.494-0.008-2.265-0.027c-0.771-0.018-1.557-0.053-2.354-0.102l-0.479,10.588c0.332-0.111,0.737-0.234,1.221-0.369
				c0.479-0.137,1.027-0.26,1.645-0.369c0.617-0.111,1.293-0.205,2.033-0.275c0.738-0.074,1.533-0.111,2.383-0.111
				c1.553,0,3.029,0.156,4.437,0.471c1.403,0.315,2.636,0.809,3.694,1.479c1.057,0.671,1.898,1.525,2.521,2.566
				C463.059,131.601,463.37,132.839,463.37,134.281z"/>
			<path fill="#7A6A56" stroke="#7A6A56" stroke-width="0.4" stroke-miterlimit="10" d="M492.638,128.589
				c0,1.281-0.16,2.52-0.479,3.705c-0.319,1.189-0.771,2.297-1.356,3.326s-1.288,1.969-2.104,2.818
				c-0.819,0.85-1.727,1.574-2.717,2.18c-0.992,0.604-2.062,1.072-3.205,1.404c-1.146,0.332-2.336,0.498-3.566,0.498
				s-2.421-0.166-3.566-0.498c-1.145-0.332-2.213-0.803-3.205-1.404c-0.992-0.604-1.896-1.33-2.717-2.18
				c-0.816-0.852-1.521-1.789-2.104-2.818s-1.037-2.137-1.356-3.326c-0.319-1.188-0.479-2.424-0.479-3.705s0.16-2.516,0.479-3.703
				s0.771-2.299,1.356-3.324c0.585-1.029,1.288-1.971,2.104-2.818c0.819-0.85,1.727-1.576,2.717-2.18
				c0.992-0.604,2.062-1.072,3.205-1.404c1.146-0.334,2.336-0.5,3.566-0.5s2.421,0.166,3.566,0.5
				c1.146,0.332,2.213,0.801,3.205,1.404c0.992,0.603,1.896,1.33,2.717,2.18c0.816,0.85,1.521,1.789,2.104,2.818
				c0.585,1.025,1.037,2.137,1.356,3.324C492.478,126.074,492.638,127.308,492.638,128.589z M491.252,128.589
				c0-1.145-0.145-2.254-0.434-3.324c-0.291-1.07-0.693-2.072-1.211-3.004c-0.52-0.93-1.146-1.775-1.885-2.541
				c-0.738-0.764-1.554-1.416-2.438-1.957c-0.888-0.543-1.845-0.965-2.873-1.266c-1.028-0.303-2.099-0.453-3.206-0.453
				s-2.174,0.15-3.195,0.453c-1.021,0.301-1.979,0.723-2.873,1.266c-0.895,0.541-1.707,1.193-2.438,1.957
				c-0.731,0.766-1.36,1.611-1.885,2.541c-0.522,0.932-0.931,1.934-1.222,3.004c-0.289,1.07-0.434,2.182-0.434,3.324
				c0,1.146,0.145,2.256,0.434,3.326c0.291,1.072,0.696,2.072,1.222,3.004c0.522,0.93,1.151,1.775,1.885,2.539
				s1.546,1.418,2.438,1.959c0.894,0.543,1.852,0.965,2.873,1.266c1.021,0.305,2.088,0.453,3.195,0.453s2.178-0.148,3.206-0.453
				c1.028-0.301,1.985-0.723,2.873-1.266c0.888-0.541,1.7-1.195,2.438-1.959c0.737-0.764,1.367-1.609,1.885-2.539
				c0.518-0.932,0.92-1.928,1.211-2.994C491.108,130.86,491.252,129.747,491.252,128.589z"/>
		</g>
		<path fill="none" stroke="#7A6A56" stroke-width="2" stroke-linecap="round" stroke-miterlimit="10" d="M279.815,129.05
			c0,0,3.078-2.645,7.276-1.072c4.199,1.576,5.299,1.301,7.517,0.57"/>
		<path fill="none" stroke="#7A6A56" stroke-width="2" stroke-linecap="round" stroke-miterlimit="10" d="M503.163,129.05
			c0,0,3.078-2.645,7.276-1.072c4.198,1.576,5.299,1.301,7.517,0.57"/>
	</g>
</g>
</svg>
