<?xml version="1.0" encoding="utf-8"?>
<!-- Generator: Adobe Illustrator 15.0.2, SVG Export Plug-In . SVG Version: 6.00 Build 0)  -->
<!DOCTYPE svg PUBLIC "-//W3C//DTD SVG 1.1//EN" "http://www.w3.org/Graphics/SVG/1.1/DTD/svg11.dtd">
<svg version="1.1" id="Lager_1" xmlns="http://www.w3.org/2000/svg" xmlns:xlink="http://www.w3.org/1999/xlink" x="0px" y="0px"
	 width="668.197px" height="507.761px" viewBox="0 0 668.197 507.761" enable-background="new 0 0 668.197 507.761"
	 xml:space="preserve">
<g>
	<g>
		
			<line fill="none" stroke="#DADADA" stroke-width="6" stroke-linecap="round" stroke-linejoin="round" stroke-miterlimit="10" x1="168.031" y1="461.475" x2="80.014" y2="369.947"/>
		
			<path fill="#3C3C3B" stroke="#3C3C3B" stroke-width="7.448" stroke-linecap="round" stroke-linejoin="round" stroke-miterlimit="10" d="
			M210.407,332.076v26.61c0,5.142-4.168,9.311-9.311,9.311H20.482c-5.142,0-9.31-4.169-9.31-9.311V318.39l-7.448-13.947
			l32.585-47.558l64.705-29.786v84.118l94.962,11.543C195.977,322.76,210.407,323.823,210.407,332.076z"/>
		
			<line fill="none" stroke="#DADADA" stroke-width="6" stroke-linecap="round" stroke-linejoin="round" stroke-miterlimit="10" x1="48.014" y1="463.241" x2="231.347" y2="257.36"/>
		
			<circle fill="none" stroke="#3C3C3B" stroke-width="8.6707" stroke-linecap="round" stroke-linejoin="round" stroke-miterlimit="10" cx="172.329" cy="472.3" r="29.84"/>
		
			<circle fill="none" stroke="#DADADA" stroke-width="4.4927" stroke-linecap="round" stroke-linejoin="round" stroke-miterlimit="10" cx="172.329" cy="472.3" r="9.058"/>
		
			<circle fill="none" stroke="#3C3C3B" stroke-width="8.6707" stroke-linecap="round" stroke-linejoin="round" stroke-miterlimit="10" cx="41.803" cy="472.3" r="29.84"/>
		
			<circle fill="none" stroke="#DADADA" stroke-width="4.4927" stroke-linecap="round" stroke-linejoin="round" stroke-miterlimit="10" cx="41.803" cy="472.3" r="9.058"/>
		<path fill="#3C3C3B" d="M204.735,293.259l29.6-33.238c1.469-1.649,1.322-4.179-0.328-5.647c-1.648-1.469-4.177-1.322-5.646,0.327
			l-29.6,33.238L204.735,293.259z"/>
		<circle fill="#3C3C3B" cx="106.867" cy="398.023" r="7"/>
	</g>
	<g>
		<g>
			<path fill="#EDBB9A" d="M321.056,294.691"/>
			<path fill="#EDBB9A" d="M320.762,294.657c0.038,0.352,0.192,0.625,0.192,0.625c0.354,1.136,1.407,1.956,2.657,1.956
				c1.367,0,2.497-0.988,2.728-2.29c0.058,0.195,0.13,0.334,0.13,0.334c0.353,1.136,1.409,1.956,2.655,1.956
				c1.31,0,2.402-0.907,2.695-2.129c0.041,0.104,0.078,0.173,0.078,0.173c0.352,1.136,1.408,1.956,2.654,1.956
				c1.532,0,2.777-1.043,2.777-2.581l0.192,0.625c0.35,1.136,1.407,1.956,2.656,1.956c1.534,0,2.775-1.241,2.775-2.775v-6.131
				v-3.927v-6.188c0-3.185-2.136-7.764-4.854-8.235v-5.619h-15.464v3.093c-3.438,0.567-4.966,4.889-4.966,7.364l-0.016,5.783
				c0.073,0.913-0.415,2.104-1.187,3.269l-0.037-0.029l-0.064,0.083l0.044,0.035c-0.131,0.196-0.279,0.389-0.427,0.58l-0.036-0.029
				l-0.065,0.083l0.04,0.03c-0.43,0.553-0.909,1.078-1.413,1.551c-0.096,0.089-0.189,0.185-0.284,0.267
				c-0.252,0.223-0.508,0.434-0.765,0.619l-0.054,0.039l-0.487,0.377c-0.148,0.094-0.271,0.197-0.381,0.303
				c-0.038,0.036-0.068,0.079-0.103,0.12c-0.06,0.068-0.115,0.139-0.161,0.21c-0.028,0.048-0.054,0.095-0.076,0.143
				c-0.01,0.021-0.023,0.041-0.032,0.062c-0.014-0.021-0.032-0.042-0.033-0.059c-0.104,0.151-0.139,0.418-0.139,0.432
				c0,0.011,0.034,0.049,0.034,0.049c0.007,0.007,0.017,0.008,0.023,0.017c-0.072,0.578,0.143,1.174,0.395,1.621
				c1.146,2.053,3.987,1.454,3.987,1.454c2.21-0.516,3.521-2.376,3.521-2.376c0.491-0.571,0.756-1.313,0.756-2.126v1.361v3.711"/>
		</g>
		<g>
			<line fill="#FDEADF" x1="318.191" y1="286.192" x2="316.271" y2="284.666"/>
			<path fill="#FDEADF" d="M316.305,284.626l1.919,1.525c0.022,0.019,0.027,0.053,0.009,0.075s-0.052,0.026-0.072,0.007
				l-1.919-1.526L316.305,284.626z"/>
		</g>
		<g>
			<line fill="#FDEADF" x1="318.696" y1="285.558" x2="316.766" y2="284.021"/>
			<path fill="#FDEADF" d="M316.782,283.965l1.947,1.551c0.022,0.02,0.026,0.053,0.008,0.076c-0.018,0.022-0.051,0.026-0.073,0.007
				l-1.946-1.552L316.782,283.965z"/>
		</g>
		
			<path fill="#FDEADF" stroke="#FDEADF" stroke-width="0.1047" stroke-linecap="round" stroke-linejoin="round" stroke-miterlimit="10" d="
			M315.245,285.928c-0.446,0.454-0.92,0.867-1.394,1.214l-0.056,0.04l-0.479,0.371c-0.538,0.339-0.784,0.758-0.856,1.189
			c0.757,0.764,1.968,0.746,2.733-0.009l1.297-1.283c0.073-0.07,0.073-0.187,0.001-0.261l-1.241-1.256"/>
		<g>
			<path fill="#FFFFFF" d="M312.677,288.514c0.611,0.618,1.913,0.885,2.534,0.271l0,0c-0.766,0.758-2.02,0.771-2.772,0.008
				c0,0-0.033-0.034-0.033-0.048c0-0.013,0.033-0.273,0.134-0.425C312.548,288.389,312.677,288.514,312.677,288.514z"/>
		</g>
	</g>
	<g>
		<g>
			<path fill="#EDBB9A" d="M235.214,283.299"/>
			<path fill="#EDBB9A" d="M235.508,283.265c-0.038,0.352-0.192,0.625-0.192,0.625c-0.354,1.136-1.407,1.956-2.657,1.956
				c-1.367,0-2.497-0.988-2.728-2.29c-0.058,0.195-0.13,0.334-0.13,0.334c-0.353,1.136-1.409,1.956-2.655,1.956
				c-1.31,0-2.402-0.907-2.695-2.129c-0.041,0.104-0.078,0.173-0.078,0.173c-0.352,1.136-1.408,1.956-2.654,1.956
				c-1.532,0-2.777-1.043-2.777-2.581l-0.192,0.625c-0.35,1.136-1.407,1.956-2.656,1.956c-1.534,0-2.775-1.241-2.775-2.775v-6.131
				v-3.927v-6.188c0-3.185,2.136-7.764,4.854-8.235v-5.619h15.464v3.093c3.438,0.567,4.966,4.889,4.966,7.364l0.235,5.772
				c-0.073,0.913,0.307,2.039,1.078,3.203l-0.074,0.047l0.064,0.083l0.067-0.041c0.131,0.196,0.279,0.389,0.427,0.58l-0.075,0.047
				l0.065,0.083l0.071-0.046c0.43,0.553,0.798,1.154,1.302,1.627c0.096,0.089,0.189,0.185,0.284,0.267
				c0.252,0.223,0.508,0.434,0.765,0.619l0.054,0.039l0.487,0.377c0.148,0.094,0.271,0.197,0.381,0.303
				c0.038,0.036,0.068,0.079,0.103,0.12c0.06,0.068,0.115,0.139,0.161,0.21c0.028,0.048,0.054,0.095,0.076,0.143
				c0.01,0.021,0.023,0.041,0.032,0.062c0.014-0.021,0.032-0.042,0.033-0.059c0.104,0.151,0.139,0.418,0.139,0.432
				c0,0.011-0.034,0.049-0.034,0.049c-0.007,0.007-0.017,0.008-0.023,0.017c0.072,0.578-0.143,1.174-0.395,1.621
				c-1.146,2.053-3.987,1.454-3.987,1.454c-2.21-0.516-3.521-2.376-3.521-2.376c-0.491-0.571-0.756-1.313-0.756-2.126v1.361v3.711"
				/>
		</g>
		<g>
			<line fill="#FDEADF" x1="238.478" y1="274.65" x2="240.398" y2="273.124"/>
			<path fill="#FDEADF" d="M240.364,273.084l-1.919,1.525c-0.022,0.019-0.027,0.053-0.009,0.075s0.052,0.026,0.072,0.007
				l1.919-1.526L240.364,273.084z"/>
		</g>
		<g>
			<line fill="#FDEADF" x1="237.973" y1="274.016" x2="239.903" y2="272.479"/>
			<path fill="#FDEADF" d="M239.887,272.423l-1.947,1.551c-0.022,0.02-0.026,0.053-0.008,0.076c0.018,0.022,0.051,0.026,0.073,0.007
				l1.946-1.552L239.887,272.423z"/>
		</g>
		
			<path fill="#FDEADF" stroke="#FDEADF" stroke-width="0.1047" stroke-linecap="round" stroke-linejoin="round" stroke-miterlimit="10" d="
			M241.436,274.39c0.446,0.454,0.92,0.867,1.394,1.214l0.056,0.04l0.479,0.371c0.538,0.339,0.784,0.758,0.856,1.189
			c-0.757,0.764-1.968,0.746-2.733-0.009l-1.297-1.283c-0.073-0.07-0.073-0.187-0.001-0.261l1.241-1.256"/>
		<g>
			<path fill="#FFFFFF" d="M244.004,276.976c-0.611,0.618-1.913,0.885-2.534,0.271l0,0c0.766,0.758,2.02,0.771,2.772,0.008
				c0,0,0.033-0.034,0.033-0.048c0-0.013-0.033-0.273-0.134-0.425C244.133,276.851,244.004,276.976,244.004,276.976z"/>
		</g>
	</g>
	<path fill="#F0AF85" d="M307.645,104.065l-15.524,0.049V84.441h-24.955v19.672h-7.645c-15.885,27.557,23.043,26.508,23.043,42.27
		L307.645,104.065"/>
	<path fill="#EF9A66" d="M259.521,104.114h7.645V84.441h12.488v19.672v0.007v36.994c0,0-34.494-27.092-26.045-36.923
		C256.707,104.191,259.521,104.114,259.521,104.114z"/>
	<path fill="#EDBB9A" d="M305.257,65.768c0,13.256-10.747,24.003-24.004,24.003h-3.199c-13.258,0-24.004-10.747-24.004-24.003
		V38.765c0-13.256,10.746-24.003,24.004-24.003h3.199c13.257,0,24.004,10.747,24.004,24.003V65.768z"/>
	<path fill="#F0AF85" d="M279.806,89.818h-1.783c-13.258,0-24.004-10.747-24.004-24.003V38.812
		c0-13.256,10.746-24.003,24.004-24.003h1.783V89.818z"/>
	<rect x="276.146" y="57.375" opacity="0.4" fill="#F8BD98" width="7.363" height="9.208"/>
	<rect x="276.146" y="57.375" opacity="0.5" fill="#EF9A66" width="3.691" height="11.202"/>
	<path fill="#F0A87A" stroke="#F0A87A" stroke-width="0.3017" stroke-miterlimit="10" d="M285.486,54.083
		c-0.438,0-0.85,0.103-1.223,0.276v-0.238v-5.623v-1.715c0-2.546-2.064-4.61-4.611-4.61c-2.546,0-4.61,2.064-4.61,4.61v1.715v5.623
		v1.715c0,2.546,2.064,4.61,4.611,4.61c1.422,0,2.677-0.657,3.522-1.669c0.535,0.695,1.366,1.151,2.311,1.151
		c1.614,0,2.923-1.308,2.923-2.923C288.409,55.391,287.101,54.083,285.486,54.083z"/>
	<path fill="#EF9A66" stroke="#EF9A66" stroke-width="0.3017" stroke-miterlimit="10" d="M275.042,46.778v1.72v5.618v0.26
		c-0.382-0.183-0.804-0.293-1.255-0.293c-1.614,0-2.923,1.308-2.923,2.922c0,1.615,1.309,2.923,2.923,2.923
		c0.953,0,1.792-0.464,2.326-1.171c0.846,1.023,2.108,1.689,3.54,1.689v-6.415v-5.449v-6.415
		C277.106,42.168,275.042,44.232,275.042,46.778z"/>
	<g opacity="0.7">
		<path opacity="0.7" fill="#E56D21" stroke="#E56D21" stroke-miterlimit="10" d="M293.007,40.375c2.424,0,4.653,1.111,5.986,1.775
			c0.132,0.066,0.257,0.128,0.371,0.184c0.338,0.165,0.477,0.572,0.312,0.91c-0.165,0.337-0.571,0.478-0.908,0.313
			c-0.119-0.058-0.246-0.121-0.383-0.189c-1.225-0.61-3.275-1.632-5.379-1.632c-1.977,0-3.676,0.878-4.918,1.519
			c-0.214,0.111-0.414,0.214-0.596,0.303c-0.337,0.165-0.744,0.024-0.908-0.313c-0.166-0.338-0.025-0.745,0.312-0.91
			c0.173-0.084,0.363-0.183,0.568-0.288C288.753,41.38,290.699,40.375,293.007,40.375z"/>
	</g>
	<g opacity="0.8">
		<path opacity="0.7" fill="#E56D21" stroke="#E56D21" stroke-miterlimit="10" d="M265.841,40.375c2.424,0,4.653,1.111,5.986,1.775
			c0.132,0.066,0.257,0.128,0.371,0.184c0.338,0.165,0.477,0.572,0.312,0.91c-0.165,0.337-0.571,0.478-0.908,0.313
			c-0.119-0.058-0.246-0.121-0.383-0.189c-1.225-0.61-3.275-1.632-5.379-1.632c-1.977,0-3.676,0.878-4.918,1.519
			c-0.214,0.111-0.414,0.214-0.596,0.303c-0.337,0.165-0.744,0.024-0.908-0.313c-0.166-0.338-0.025-0.745,0.312-0.91
			c0.173-0.084,0.363-0.183,0.568-0.288C261.587,41.38,263.533,40.375,265.841,40.375z"/>
	</g>
	<path opacity="0.9" fill="#EF9A66" d="M289.916,68.609c-0.229,0-0.399-0.008-0.488-0.013h-19.546
		c-0.454,0.028-3.109,0.13-4.732-1.205c-0.43-0.353-0.491-0.988-0.138-1.417c0.353-0.43,0.987-0.491,1.417-0.138
		c0.902,0.743,2.766,0.79,3.348,0.749l0.072-0.002l19.684,0.002c0.625,0.042,2.449-0.01,3.348-0.749
		c0.43-0.353,1.064-0.292,1.418,0.138c0.352,0.429,0.291,1.064-0.139,1.417C292.851,68.467,290.872,68.609,289.916,68.609z"/>
	<path fill="#EF9A66" d="M279.654,68.596h-9.772c-0.454,0.028-3.109,0.13-4.732-1.205c-0.43-0.353-0.491-0.988-0.138-1.417
		c0.353-0.43,0.987-0.491,1.417-0.138c0.902,0.743,2.766,0.79,3.348,0.749l0.072-0.002l9.988,0.002"/>
	<path fill="#634E42" d="M279.943,11.754c-23.333,0-25.925,17.244-25.925,29.198c0,0-0.156-23.343,25.925-22.599
		c22.208,0.633,25.313,22.599,25.313,22.599C305.894,29.436,298.86,11.754,279.943,11.754z"/>
	<path fill="#634E42" d="M295.288,16.697c0.154,8.068-10.603,14.612-23.683,14.612c-13.079,0-23.682-6.542-23.682-14.612
		c0-4.004,2.61-7.633,6.838-10.272c0,0-2.855,7.167,4.689,8.979c-2.726-3.625-4.689-8.979-0.419-15.404c0,0,1.363,5.937,6.078,6.172
		C268.928,6.363,295.079,5.756,295.288,16.697z"/>
	<g>
		<path opacity="0.7" fill="#EF9A66" d="M279.837,74.752c-3.59,0-6.891-1.645-8.863-2.628c-0.197-0.099-0.381-0.189-0.551-0.272
			c-0.5-0.244-0.707-0.847-0.463-1.347s0.846-0.708,1.346-0.464c0.176,0.085,0.363,0.179,0.565,0.28
			c1.814,0.904,4.851,2.417,7.966,2.417c2.927,0,5.443-1.3,7.28-2.249c0.317-0.165,0.614-0.316,0.882-0.449
			c0.5-0.244,1.104-0.036,1.347,0.464c0.245,0.5,0.037,1.102-0.463,1.347c-0.257,0.125-0.538,0.27-0.841,0.427
			C286.134,73.264,283.253,74.752,279.837,74.752z"/>
		<path fill="#EF9A66" d="M279.837,74.752c-3.59,0-6.891-1.645-8.863-2.628c-0.197-0.099-0.381-0.189-0.551-0.272
			c-0.5-0.244-0.707-0.847-0.463-1.347s0.846-0.708,1.346-0.464c0.176,0.085,0.363,0.179,0.565,0.28
			c1.814,0.904,4.851,2.417,7.966,2.417"/>
	</g>
	<path fill="#E94D3E" d="M310.519,104.035c28.18,2.205,31.318,30.799,31.318,30.799v139.354H236.188V158.061l-10.003,36.75
		l9.984,64.875l-22.25,1.8l-11.4-70.675l14-55.25c0,0,6-31.181,33.901-31.453h8.083c0,0,11.12,14.701,21.984,13.786
		s23.698-13.859,23.698-13.859H310.519z"/>
	<path opacity="0.42" fill="#BC4131" d="M280.487,117.894c-10.864,0.915-21.984-13.786-21.984-13.786h-8.083
		c-27.901,0.272-33.901,31.453-33.901,31.453l-14,55.25l11.4,70.675l22.25-1.8l-9.984-64.875l10.003-36.75v78.943l45.49,0
		L280.487,117.894z"/>
	<path fill="#BC4131" d="M299.565,104.049c-4.332,6.186-11.451,9.92-19.08,9.92s-14.617-3.748-18.951-9.934c0,0-3.484,0-5.789,0
		c0.008,0.104,0.285,1.063,0.518,1.448c2.477,4.091,5.975,7.514,10.115,9.9c4.272,2.461,9.15,3.762,14.107,3.762
		c4.956,0,9.834-1.301,14.105-3.762c4.143-2.386,7.641-5.809,10.116-9.9c0.234-0.386,0.517-1.32,0.522-1.436
		C299.565,104.049,299.565,104.049,299.565,104.049z"/>
	<rect x="236.188" y="237.004" fill="#BC4131" width="87.999" height="10.578"/>
	<path fill="#1D71B8" d="M236.188,247.582v56.916h0.103l5.897,170.346h27.333l5.801-166.518v-3.002c0-2.688,2.178-4.867,4.865-4.867
		s4.867,2.18,4.867,4.867v3.021l5.801,166.498h27.332l5.898-170.346h0.102v-56.916H236.188z"/>
	<polygon fill="#1C5E99" points="242.188,474.844 269.521,474.844 269.787,467.184 241.922,467.184 	"/>
	<polygon fill="#1C5E99" points="290.896,474.844 318.229,474.844 318.495,467.184 290.63,467.184 	"/>
	<g>
		<defs>
			<path id="SVGID_1_" d="M236.188,247.582v56.916h0.103l3.897,170.346h31.333l3.801-166.518v-3.002
				c0-2.688,2.178-4.867,4.865-4.867s4.867,2.18,4.867,4.867v3.021l3.801,166.498h31.332l3.898-170.346h0.102v-56.916H236.188z"/>
		</defs>
		<clipPath id="SVGID_2_">
			<use xlink:href="#SVGID_1_"  overflow="visible"/>
		</clipPath>
		<path clip-path="url(#SVGID_2_)" fill="#1C5E99" d="M267.931,250.815c0,8.413-6.82,15.233-15.234,15.233h-36.617
			c-8.413,0-15.233-6.82-15.233-15.233l0,0c0-8.414,6.82-15.233,15.233-15.233h36.617
			C261.11,235.582,267.931,242.401,267.931,250.815L267.931,250.815z"/>
		<path clip-path="url(#SVGID_2_)" fill="#1C5E99" d="M359.729,250.815c0,8.413-6.82,15.233-15.234,15.233h-36.617
			c-8.413,0-15.233-6.82-15.233-15.233l0,0c0-8.414,6.82-15.233,15.233-15.233h36.617
			C352.909,235.582,359.729,242.401,359.729,250.815L359.729,250.815z"/>
	</g>
	<path fill="#1C5E99" d="M274.785,291.581L274.785,291.581c5.966,0,10.804-4.837,10.804-10.804v-33.195h-10.804V291.581z"/>
	<circle fill="#1D71B8" cx="280.188" cy="252.108" r="2.417"/>
	<g>
		<path stroke="#000000" stroke-width="1.0968" stroke-miterlimit="10" d="M272.231,504.687l-0.01-3.701c0,0,0.332-1.041-1.861-3.44
			c-0.359-0.687-0.505-3.475-0.505-3.475l-2.146-14.464c-0.454-4.617-2.19-6.811-6.249-7.347c-2.345-1.437-3.818-1.895-5.611-1.873
			l0,0c0,0,0,0-0.001,0l0,0l0,0c-1.794-0.021-3.268,0.437-5.611,1.873c-4.06,0.536-5.795,2.729-6.25,7.347l-2.145,14.464
			c0,0-0.146,2.788-0.505,3.475c-2.193,2.399-1.861,3.44-1.861,3.44l-0.01,3.701"/>
		<polyline stroke="#000000" stroke-width="1.0968" stroke-miterlimit="10" points="255.849,470.387 255.849,470.387 
			255.849,470.387 		"/>
		<path fill="#FFFFFF" stroke="#FFFFFF" stroke-width="1.0968" stroke-miterlimit="10" d="M272.222,500.985l0.01,3.701
			c0,0,0.004,2.593-3.037,2.524H255.85h-0.001h-13.345c-3.041,0.068-3.037-2.524-3.037-2.524l0.01-3.701
			C239.477,500.985,253.747,495.602,272.222,500.985z"/>
		<path fill="#FFFFFF" stroke="#FFFFFF" stroke-width="0.9564" stroke-miterlimit="10" d="M269.924,502.399
			c0-4.46-6.301-8.076-14.075-8.076s-14.075,3.616-14.075,8.076H269.924z"/>
		<path d="M272.805,501.613c-18.092-5.658-33.724-0.053-33.863,0v-1.155c0.144-0.055,14.458-6.013,33.863,0.036V501.613z"/>
		<path fill="none" stroke="#FFFFFF" stroke-width="1.0968" stroke-linecap="round" stroke-miterlimit="10" d="M248.572,479.417
			c1.548-1.561,4.32-2.571,7.466-2.51c2.989,0.059,5.606,1.068,7.134,2.558"/>
		<path fill="none" stroke="#FFFFFF" stroke-width="1.0968" stroke-linecap="round" stroke-miterlimit="10" d="M248.572,483.381
			c1.548-1.56,4.32-2.569,7.466-2.509c2.989,0.058,5.606,1.068,7.134,2.558"/>
		<path fill="none" stroke="#FFFFFF" stroke-width="1.0968" stroke-linecap="round" stroke-miterlimit="10" d="M248.572,487.347
			c1.548-1.561,4.32-2.57,7.466-2.51c2.989,0.058,5.606,1.068,7.134,2.558"/>
		<path fill="none" stroke="#FFFFFF" stroke-width="1.0968" stroke-linecap="round" stroke-miterlimit="10" d="M248.572,491.311
			c1.548-1.561,4.32-2.569,7.466-2.51c2.989,0.059,5.606,1.068,7.134,2.559"/>
	</g>
	<g>
		<path stroke="#000000" stroke-width="1.0968" stroke-miterlimit="10" d="M320.671,504.687l-0.01-3.701c0,0,0.332-1.041-1.861-3.44
			c-0.359-0.687-0.505-3.475-0.505-3.475l-2.146-14.464c-0.454-4.617-2.19-6.811-6.249-7.347c-2.345-1.437-3.818-1.895-5.611-1.873
			l0,0c0,0,0,0-0.001,0l0,0l0,0c-1.794-0.021-3.268,0.437-5.611,1.873c-4.06,0.536-5.795,2.729-6.25,7.347l-2.145,14.464
			c0,0-0.146,2.788-0.505,3.475c-2.193,2.399-1.861,3.44-1.861,3.44l-0.01,3.701"/>
		<polyline stroke="#000000" stroke-width="1.0968" stroke-miterlimit="10" points="304.288,470.387 304.288,470.387 
			304.288,470.387 		"/>
		<path fill="#FFFFFF" stroke="#FFFFFF" stroke-width="1.0968" stroke-miterlimit="10" d="M320.661,500.985l0.01,3.701
			c0,0,0.004,2.593-3.037,2.524h-13.345h-0.001h-13.345c-3.041,0.068-3.037-2.524-3.037-2.524l0.01-3.701
			C287.916,500.985,302.187,495.602,320.661,500.985z"/>
		<path fill="#FFFFFF" stroke="#FFFFFF" stroke-width="0.9564" stroke-miterlimit="10" d="M318.363,502.399
			c0-4.46-6.301-8.076-14.075-8.076s-14.075,3.616-14.075,8.076H318.363z"/>
		<path d="M321.244,501.613c-18.092-5.658-33.724-0.053-33.863,0v-1.155c0.144-0.055,14.458-6.013,33.863,0.036V501.613z"/>
		<path fill="none" stroke="#FFFFFF" stroke-width="1.0968" stroke-linecap="round" stroke-miterlimit="10" d="M297.012,479.417
			c1.548-1.561,4.32-2.571,7.466-2.51c2.989,0.059,5.606,1.068,7.134,2.558"/>
		<path fill="none" stroke="#FFFFFF" stroke-width="1.0968" stroke-linecap="round" stroke-miterlimit="10" d="M297.012,483.381
			c1.548-1.56,4.32-2.569,7.466-2.509c2.989,0.058,5.606,1.068,7.134,2.558"/>
		<path fill="none" stroke="#FFFFFF" stroke-width="1.0968" stroke-linecap="round" stroke-miterlimit="10" d="M297.012,487.347
			c1.548-1.561,4.32-2.57,7.466-2.51c2.989,0.058,5.606,1.068,7.134,2.558"/>
		<path fill="none" stroke="#FFFFFF" stroke-width="1.0968" stroke-linecap="round" stroke-miterlimit="10" d="M297.012,491.311
			c1.548-1.561,4.32-2.569,7.466-2.51c2.989,0.059,5.606,1.068,7.134,2.559"/>
	</g>
	<path fill="#FFFFFF" d="M553.873,507.212h86c0,0-0.999-9.76-11.667-9.76c-10.666,0-29.333,2.002-29.333,2.002
		s45.667-1.923,23-42.962c0,0,9-12,25-0.834l5.25,51.554h15c0,0,1-8.782-6.75-9.126c-3.5-29.094-3.5-29.094-3.5-29.094
		s0-13.75,5.5-24c5.5-6,6.584-29.5,4.792-36s-4.792-19.813-4.792-19.813v-33.437c0,0,1.667-15.249-11.122-19.834
		c-20.25-6.625-25.378,5.751-25.378,5.751c-3.5,6.958-8.5,6.7-8.5,6.7s-16.5,0-18,0c0.167,18.317,14.812,18.317,14.812,18.317h6.021
		c12.333-0.316,12.437,10.484,12.437,10.484c-4.395,7.728-10.02,15.081-16.77,18.831c-17.206,9.559-58.065,47.094-61.647,102.094
		c0,0-17.309-2.061-13.853-31.844C522.623,503.331,551.373,507.212,553.873,507.212z"/>
	<circle cx="631.062" cy="345.494" r="2.77"/>
	<path d="M599.903,353.711c0,0-0.608-2.609-0.53-5.352c1.5,0,5.656,0,5.656,0S603.654,353.148,599.903,353.711z"/>
	<path fill="#B17F4A" d="M639.452,367.239c0,4.282,3.473,7.754,7.754,7.754l0,0c4.282,0,7.754-3.472,7.754-7.754l-1.765-15.443
		c-0.804-4.103-1.707-6.803-5.989-6.803l0,0c-4.281,0-5.185,2.7-5.988,6.803L639.452,367.239z"/>
	<path fill="#B17F4A" d="M615.873,395.992c-2.75-1.25-35,24.593-44.97,48.741C570.903,444.733,636.088,451.063,615.873,395.992z"/>
	<path fill="#B17F4A" d="M667.239,431.017c1.334-4.274,1.178-18.212,0.126-22.024c-1.792-6.5-4.792-19.813-4.792-19.813
		S640.739,411.374,667.239,431.017z"/>
	<rect x="628.291" y="378.609" fill="#BC4131" width="34.359" height="4.781"/>
	<g>
		<circle fill="#FFDA3F" stroke="#FFDA3F" stroke-width="0.0591" stroke-miterlimit="10" cx="662.65" cy="386.846" r="3.647"/>
		<path fill="#FFCE0E" stroke="#FFCE0E" stroke-width="0.0591" stroke-miterlimit="10" d="M662.65,390.493
			c-2.015,0-3.647-1.633-3.647-3.647s1.633-3.647,3.647-3.647V390.493z"/>
		<g>
			<circle fill="#FCC016" stroke="#FCC016" stroke-width="0.0492" stroke-miterlimit="10" cx="662.65" cy="386.865" r="3.032"/>
			<path fill="#FAB519" stroke="#FAB519" stroke-width="0.0492" stroke-miterlimit="10" d="M662.65,389.896
				c-1.675,0-3.032-1.356-3.032-3.031c0-1.676,1.357-3.032,3.032-3.032V389.896z"/>
		</g>
	</g>
	<path fill="none" stroke="#BC4131" stroke-width="4" stroke-miterlimit="10" d="M485.65,358.083c0,0,48.016,61.997,143.875,22.917"
		/>
	<g>
		<g>
			<path fill="#EDBB9A" d="M407.054,362.506"/>
			<path fill="#EDBB9A" d="M407.298,362.478c-0.031,0.292-0.16,0.519-0.16,0.519c-0.293,0.942-1.166,1.623-2.203,1.623
				c-1.135,0-2.072-0.82-2.264-1.9c-0.047,0.162-0.107,0.277-0.107,0.277c-0.293,0.942-1.17,1.623-2.203,1.623
				c-1.086,0-1.992-0.753-2.236-1.767c-0.033,0.087-0.064,0.144-0.064,0.144c-0.291,0.942-1.168,1.623-2.203,1.623
				c-1.27,0-2.303-0.865-2.303-2.142l-0.16,0.519c-0.289,0.942-1.168,1.623-2.203,1.623c-1.273,0-2.303-1.029-2.303-2.303v-5.086
				v-3.258v-5.134c0-2.642,1.771-6.441,4.025-6.832v-4.662h12.83v2.565c2.854,0.471,4.121,4.056,4.121,6.11l0.012,4.798
				c-0.061,0.758,0.344,1.746,0.984,2.712l0.031-0.024l0.053,0.068l-0.035,0.029c0.107,0.163,0.23,0.322,0.354,0.481l0.029-0.024
				l0.055,0.069l-0.033,0.024c0.357,0.459,0.754,0.895,1.172,1.287c0.08,0.073,0.158,0.153,0.236,0.221
				c0.209,0.185,0.422,0.36,0.635,0.514l0.045,0.032l0.404,0.313c0.123,0.077,0.225,0.163,0.314,0.251
				c0.033,0.03,0.057,0.065,0.086,0.1c0.049,0.057,0.096,0.115,0.133,0.174c0.023,0.04,0.045,0.079,0.064,0.118
				c0.008,0.018,0.02,0.034,0.025,0.052c0.012-0.018,0.027-0.035,0.029-0.049c0.086,0.126,0.115,0.347,0.115,0.358
				c0,0.009-0.029,0.04-0.029,0.04c-0.006,0.006-0.014,0.007-0.02,0.014c0.061,0.479-0.119,0.974-0.328,1.345
				c-0.951,1.703-3.307,1.207-3.307,1.207c-1.834-0.428-2.922-1.972-2.922-1.972c-0.406-0.474-0.627-1.09-0.627-1.764v1.13v3.078"/>
		</g>
		<g>
			<line fill="#FDEADF" x1="409.431" y1="355.455" x2="411.024" y2="354.188"/>
			<path fill="#FDEADF" d="M410.995,354.155l-1.592,1.266c-0.018,0.016-0.021,0.044-0.006,0.062
				c0.014,0.019,0.043,0.021,0.059,0.006l1.592-1.267L410.995,354.155z"/>
		</g>
		<g>
			<line fill="#FDEADF" x1="409.013" y1="354.929" x2="410.614" y2="353.653"/>
			<path fill="#FDEADF" d="M410.601,353.606l-1.617,1.287c-0.018,0.017-0.021,0.044-0.006,0.063
				c0.016,0.019,0.043,0.021,0.061,0.005l1.615-1.287L410.601,353.606z"/>
		</g>
		
			<path fill="#FDEADF" stroke="#FDEADF" stroke-width="0.0869" stroke-linecap="round" stroke-linejoin="round" stroke-miterlimit="10" d="
			M411.876,355.235c0.369,0.377,0.762,0.72,1.156,1.007l0.045,0.033l0.396,0.309c0.447,0.28,0.652,0.628,0.711,0.986
			c-0.627,0.634-1.633,0.619-2.268-0.007l-1.076-1.065c-0.061-0.058-0.061-0.154,0-0.216l1.029-1.042"/>
		<g>
			<path fill="#FFFFFF" d="M414.007,357.381c-0.508,0.513-1.588,0.734-2.104,0.226l0,0c0.635,0.628,1.676,0.64,2.301,0.006
				c0,0,0.027-0.028,0.027-0.039s-0.027-0.228-0.111-0.353C414.112,357.277,414.007,357.381,414.007,357.381z"/>
		</g>
	</g>
	<g>
		<g>
			<path fill="#EDBB9A" d="M476.405,362.506"/>
			<path fill="#EDBB9A" d="M476.161,362.478c0.031,0.292,0.16,0.519,0.16,0.519c0.293,0.942,1.168,1.623,2.205,1.623
				c1.135,0,2.07-0.82,2.262-1.9c0.049,0.162,0.109,0.277,0.109,0.277c0.291,0.942,1.168,1.623,2.201,1.623
				c1.088,0,1.994-0.753,2.236-1.767c0.035,0.087,0.066,0.144,0.066,0.144c0.291,0.942,1.168,1.623,2.201,1.623
				c1.271,0,2.305-0.865,2.305-2.142l0.16,0.519c0.289,0.942,1.166,1.623,2.203,1.623c1.273,0,2.303-1.029,2.303-2.303v-5.086
				v-3.258v-5.134c0-2.642-1.771-6.441-4.027-6.832v-4.662h-12.83v2.565c-2.852,0.471-4.119,4.056-4.119,6.11l-0.014,4.798
				c0.061,0.758-0.344,1.746-0.984,2.712l-0.029-0.024l-0.055,0.068l0.037,0.029c-0.109,0.163-0.232,0.322-0.354,0.481l-0.031-0.024
				l-0.055,0.069l0.033,0.024c-0.355,0.459-0.754,0.895-1.172,1.287c-0.078,0.073-0.156,0.153-0.236,0.221
				c-0.209,0.185-0.42,0.36-0.633,0.514l-0.045,0.032l-0.404,0.313c-0.123,0.077-0.225,0.163-0.316,0.251
				c-0.031,0.03-0.057,0.065-0.084,0.1c-0.051,0.057-0.096,0.115-0.135,0.174c-0.023,0.04-0.045,0.079-0.062,0.118
				c-0.008,0.018-0.02,0.034-0.027,0.052c-0.012-0.018-0.027-0.035-0.027-0.049c-0.086,0.126-0.115,0.347-0.115,0.358
				c0,0.009,0.029,0.04,0.029,0.04c0.004,0.006,0.014,0.007,0.018,0.014c-0.059,0.479,0.119,0.974,0.328,1.345
				c0.951,1.703,3.309,1.207,3.309,1.207c1.834-0.428,2.92-1.972,2.92-1.972c0.408-0.474,0.627-1.09,0.627-1.764v1.13v3.078"/>
		</g>
		<g>
			<line fill="#FDEADF" x1="474.028" y1="355.455" x2="472.437" y2="354.188"/>
			<path fill="#FDEADF" d="M472.464,354.155l1.592,1.266c0.02,0.016,0.023,0.044,0.008,0.062s-0.043,0.021-0.061,0.006l-1.592-1.267
				L472.464,354.155z"/>
		</g>
		<g>
			<line fill="#FDEADF" x1="474.448" y1="354.929" x2="472.847" y2="353.653"/>
			<path fill="#FDEADF" d="M472.86,353.606l1.615,1.287c0.02,0.017,0.021,0.044,0.006,0.063c-0.014,0.019-0.041,0.021-0.061,0.005
				l-1.613-1.287L472.86,353.606z"/>
		</g>
		
			<path fill="#FDEADF" stroke="#FDEADF" stroke-width="0.0869" stroke-linecap="round" stroke-linejoin="round" stroke-miterlimit="10" d="
			M471.585,355.235c-0.371,0.377-0.764,0.72-1.156,1.007l-0.047,0.033l-0.396,0.309c-0.445,0.28-0.65,0.628-0.711,0.986
			c0.629,0.634,1.633,0.619,2.268-0.007l1.076-1.065c0.061-0.058,0.061-0.154,0.002-0.216l-1.031-1.042"/>
		<g>
			<path fill="#FFFFFF" d="M469.454,357.381c0.508,0.513,1.588,0.734,2.102,0.226l0,0c-0.635,0.628-1.674,0.64-2.299,0.006
				c0,0-0.027-0.028-0.027-0.039s0.027-0.228,0.109-0.353C469.347,357.277,469.454,357.381,469.454,357.381z"/>
		</g>
	</g>
	<path fill="#634E42" d="M441.452,153.173v77.387c0,0,26.697,2.756,34.541,0c11.496-4.04,8.996-25.583,4.33-32.843
		c-3.941-6.131-8.488-10.593-4.105-26.862c2.135-7.92-0.279-13.452-1.258-18.222c0,0-4.607-17.323-18.156-22.281"/>
	<path fill="#634E42" d="M405.714,152.633c-0.977,4.77-3.387,11.208-1.258,18.222c4.896,16.122-0.162,20.731-4.104,26.862
		c-4.668,7.26-7.166,28.803,4.33,32.843c7.844,2.756,34.541,0,34.541,0v-77.387"/>
	<path fill="#F0AF85" d="M465.79,210.43l-13.807,0.043v-17.495H429.79v17.495h-6.797c-14.127,24.506,20.492,23.574,20.492,37.59
		L465.79,210.43"/>
	<path fill="#EF9A66" d="M422.993,210.473h6.797v-17.495h11.107v17.495v0.006v32.899c0,0-30.676-24.092-23.162-32.835
		C420.491,210.542,422.993,210.473,422.993,210.473z"/>
	<path fill="#EDBB9A" d="M463.667,176.373c0,11.789-9.559,21.346-21.348,21.346h-2.846c-11.789,0-21.346-9.557-21.346-21.346
		v-24.014c0-11.789,9.557-21.346,21.346-21.346h2.846c11.789,0,21.348,9.558,21.348,21.346V176.373z"/>
	<path fill="#F0AF85" d="M441.032,197.76h-1.586c-11.789,0-21.346-9.557-21.346-21.346V152.4c0-11.789,9.557-21.346,21.346-21.346
		h1.586V197.76z"/>
	<rect x="438.272" y="171.436" opacity="0.4" fill="#F8BD98" width="5.477" height="6.85"/>
	<rect x="438.272" y="171.436" opacity="0.5" fill="#EF9A66" width="2.746" height="8.333"/>
	<path fill="#F0A87A" stroke="#F0A87A" stroke-width="0.1867" stroke-miterlimit="10" d="M444.489,168.899
		c-0.271,0-0.525,0.064-0.756,0.171v-0.147v-3.479v-1.062c0-1.576-1.277-2.853-2.855-2.853c-1.574,0-2.854,1.277-2.854,2.853v1.062
		v3.479v1.062c0,1.576,1.279,2.853,2.855,2.853c0.881,0,1.656-0.406,2.18-1.033c0.332,0.43,0.846,0.712,1.43,0.712
		c1,0,1.809-0.81,1.809-1.809C446.298,169.708,445.489,168.899,444.489,168.899z"/>
	<path fill="#EF9A66" stroke="#EF9A66" stroke-width="0.1867" stroke-miterlimit="10" d="M438.024,164.378v1.065v3.477v0.161
		c-0.234-0.113-0.496-0.182-0.775-0.182c-1,0-1.809,0.81-1.809,1.809c0,1,0.809,1.809,1.809,1.809c0.59,0,1.109-0.287,1.439-0.725
		c0.523,0.633,1.305,1.045,2.191,1.045v-3.97v-3.372v-3.97C439.304,161.525,438.024,162.803,438.024,164.378z"/>
	<g opacity="0.7">
		<path opacity="0.7" fill="#E56D21" stroke="#E56D21" stroke-width="0.7438" stroke-miterlimit="10" d="M450.815,158.791
			c1.803,0,3.461,0.827,4.451,1.32c0.098,0.049,0.191,0.095,0.277,0.136c0.252,0.123,0.354,0.426,0.232,0.677
			c-0.123,0.251-0.426,0.355-0.676,0.233c-0.09-0.043-0.184-0.09-0.285-0.141c-0.91-0.454-2.436-1.214-4-1.214
			c-1.471,0-2.734,0.652-3.66,1.129c-0.158,0.083-0.307,0.159-0.441,0.226c-0.252,0.122-0.555,0.018-0.676-0.233
			c-0.123-0.251-0.02-0.554,0.232-0.677c0.129-0.062,0.27-0.135,0.422-0.214C447.651,159.538,449.099,158.791,450.815,158.791z"/>
	</g>
	<g opacity="0.8">
		<path opacity="0.7" fill="#E56D21" stroke="#E56D21" stroke-width="0.7438" stroke-miterlimit="10" d="M430.606,158.791
			c1.805,0,3.463,0.827,4.453,1.32c0.098,0.049,0.191,0.095,0.277,0.136c0.25,0.123,0.354,0.426,0.232,0.677
			c-0.123,0.251-0.426,0.355-0.678,0.233c-0.088-0.043-0.182-0.09-0.283-0.141c-0.91-0.454-2.438-1.214-4.002-1.214
			c-1.469,0-2.732,0.652-3.658,1.129c-0.158,0.083-0.307,0.159-0.441,0.226c-0.252,0.122-0.555,0.018-0.676-0.233
			c-0.123-0.251-0.02-0.554,0.23-0.677c0.131-0.062,0.271-0.135,0.424-0.214C427.442,159.538,428.892,158.791,430.606,158.791z"/>
	</g>
	<path opacity="0.9" fill="#EF9A66" d="M448.517,179.792c-0.172,0-0.299-0.006-0.363-0.01h-14.541
		c-0.336,0.021-2.312,0.097-3.52-0.896c-0.32-0.262-0.365-0.734-0.102-1.054c0.262-0.32,0.734-0.366,1.053-0.103
		c0.672,0.552,2.057,0.587,2.49,0.558l0.055-0.002l14.643,0.002c0.465,0.03,1.82-0.008,2.488-0.558
		c0.32-0.262,0.793-0.217,1.055,0.103c0.262,0.319,0.217,0.792-0.102,1.054C450.698,179.687,449.226,179.792,448.517,179.792z"/>
	<path fill="#EF9A66" d="M440.882,179.782h-7.27c-0.336,0.021-2.312,0.097-3.52-0.896c-0.32-0.262-0.365-0.734-0.102-1.054
		c0.262-0.32,0.734-0.366,1.053-0.103c0.672,0.552,2.057,0.587,2.49,0.558l0.055-0.002l7.43,0.002"/>
	<path fill="#634E42" d="M441.155,128.738c-20.75,0-23.055,15.335-23.055,25.966c0,0-0.139-20.759,23.055-20.098
		c19.748,0.563,22.512,20.098,22.512,20.098C472.435,141.722,457.978,128.738,441.155,128.738z"/>
	<g>
		<path opacity="0.7" fill="#EF9A66" d="M441.019,184.362c-2.67,0-5.127-1.224-6.594-1.955c-0.146-0.073-0.283-0.141-0.41-0.203
			c-0.371-0.182-0.525-0.629-0.344-1.001c0.182-0.372,0.629-0.526,1.002-0.345c0.129,0.063,0.27,0.133,0.42,0.208
			c1.35,0.673,3.607,1.798,5.926,1.798c2.176,0,4.049-0.967,5.416-1.673c0.234-0.122,0.457-0.235,0.654-0.333
			c0.373-0.181,0.822-0.026,1.002,0.345c0.182,0.372,0.027,0.82-0.344,1.001c-0.191,0.093-0.4,0.201-0.625,0.317
			C445.702,183.255,443.56,184.362,441.019,184.362z"/>
		<path fill="#EF9A66" d="M441.019,184.362c-2.67,0-5.127-1.224-6.594-1.955c-0.146-0.073-0.283-0.141-0.41-0.203
			c-0.371-0.182-0.525-0.629-0.344-1.001c0.182-0.372,0.629-0.526,1.002-0.345c0.129,0.063,0.27,0.133,0.42,0.208
			c1.35,0.673,3.607,1.798,5.926,1.798"/>
	</g>
	<circle opacity="0.6" fill="#E56D21" cx="431.595" cy="166.1" r="0.889"/>
	<circle opacity="0.6" fill="#E56D21" cx="430.706" cy="169.967" r="0.889"/>
	<circle opacity="0.6" fill="#E56D21" cx="427.499" cy="168.19" r="0.889"/>
	<circle opacity="0.45" fill="#E56D21" cx="449.86" cy="165.699" r="0.889"/>
	<circle opacity="0.45" fill="#E56D21" cx="450.749" cy="169.566" r="0.889"/>
	<circle opacity="0.45" fill="#E56D21" cx="453.956" cy="167.79" r="0.889"/>
	<path fill="#634E42" d="M441.772,128.829c-4.25,2.917-0.188,11.659,6.477,18.234c6.992,6.901,15.447,8.128,18.871,4.272
		c3.424-3.855,0.525-12.019-6.475-18.234C453.646,126.886,444.854,126.711,441.772,128.829z"/>
	<path fill="#634E42" d="M441.257,126.146c5.555,7.27,0.117,20.47-11.836,29.25c-11.951,8.779-26.031,9.917-31.449,2.542
		c-2.688-3.659-2.736-8.727-0.645-13.977c0,0,2.199,8.466,10.312,5.058c-4.924-1.483-10.312-5.058-10.725-13.795
		c0,0,5.232,4.51,9.699,1.561C410.231,134.396,433.722,116.288,441.257,126.146z"/>
	<path fill="#87535A" stroke="#87535A" stroke-width="0.5843" stroke-miterlimit="10" d="M477.466,255.15v90.345h-87.652V241.881
		c0,0,2.604-29.724,25.982-31.553h5.254c0,0,10.648,10.74,19.662,11.499s18.238-11.438,18.238-11.438h6.707
		c23.148,0.226,28.127,32.094,28.127,32.094v103.012h-16.318V255.15z"/>
	<path fill="#6A3E49" d="M457.306,210.34c-3.594,5.132-9.5,8.23-15.83,8.23c-6.328,0-12.127-3.109-15.723-8.242c0,0-2.891,0-4.803,0
		c0.006,0.086,0.236,0.882,0.43,1.201c2.055,3.394,4.957,6.234,8.393,8.213c3.543,2.042,7.592,3.121,11.703,3.121
		s8.158-1.079,11.703-3.121c3.438-1.979,6.338-4.819,8.393-8.213c0.195-0.32,0.428-1.095,0.434-1.191
		C457.306,210.34,457.306,210.34,457.306,210.34z"/>
	<rect x="404.456" y="314.646" fill="#6A3E49" width="73.01" height="8.776"/>
	<path opacity="0.42" fill="#6A3E49" d="M441.478,345.495h-51.664V241.881c0,0,2.604-29.724,25.982-31.553h5.254
		c0,0,10.648,10.74,19.662,11.499L441.478,345.495z"/>
	<path fill="#C3E6F7" d="M404.724,323.422v47.221h0.086l4.893,109.326h22.678l4.812-106.15v-2.49c0-2.23,1.807-4.038,4.035-4.038
		c2.23,0,4.039,1.808,4.039,4.038v2.506l4.812,106.135h22.676l4.893-109.326h0.086v-47.221H404.724z"/>
	<polygon opacity="0.4" fill="#059AC1" points="409.702,479.969 432.38,479.969 432.601,473.614 409.481,473.614 	"/>
	<polygon opacity="0.4" fill="#059AC1" points="450.112,479.969 472.79,479.969 473.011,473.614 449.892,473.614 	"/>
	<g>
		<defs>
			<path id="SVGID_3_" d="M404.724,323.422v47.221h0.086l3.232,109.326h25.996l3.154-106.15v-2.49c0-2.23,1.807-4.038,4.035-4.038
				c2.23,0,4.039,1.808,4.039,4.038v2.506l3.152,106.135h25.994l3.234-109.326h0.086v-47.221H404.724z"/>
		</defs>
		<clipPath id="SVGID_4_">
			<use xlink:href="#SVGID_3_"  overflow="visible"/>
		</clipPath>
		<path opacity="0.4" clip-path="url(#SVGID_4_)" fill="#059AC1" d="M431.06,326.104c0,6.979-5.658,12.639-12.639,12.639h-30.379
			c-6.98,0-12.639-5.659-12.639-12.639l0,0c0-6.98,5.658-12.639,12.639-12.639h30.379
			C425.401,313.466,431.06,319.124,431.06,326.104L431.06,326.104z"/>
		<path opacity="0.4" clip-path="url(#SVGID_4_)" fill="#059AC1" d="M507.22,326.104c0,6.979-5.658,12.639-12.639,12.639h-30.379
			c-6.98,0-12.639-5.659-12.639-12.639l0,0c0-6.98,5.658-12.639,12.639-12.639h30.379
			C501.562,313.466,507.22,319.124,507.22,326.104L507.22,326.104z"/>
	</g>
	<path opacity="0.4" fill="#059AC1" d="M436.747,359.926L436.747,359.926c4.949,0,8.963-4.013,8.963-8.964v-27.54h-8.963V359.926z"
		/>
	<circle fill="#C3E6F7" cx="441.229" cy="327.178" r="2.005"/>
	<g>
		<path fill="#1D71B8" stroke="#1D71B8" stroke-width="0.91" stroke-miterlimit="10" d="M434.628,504.729l-0.008-3.071
			c0,0,0.275-0.863-1.545-2.854c-0.297-0.569-0.418-2.883-0.418-2.883l-1.781-11.999c-0.375-3.831-1.816-5.65-5.184-6.096
			c-1.945-1.191-3.168-1.571-4.656-1.554l0,0l0,0l0,0l0,0c-1.488-0.018-2.711,0.362-4.656,1.554
			c-3.367,0.445-4.807,2.265-5.184,6.096l-1.779,11.999c0,0-0.123,2.313-0.42,2.883c-1.82,1.991-1.545,2.854-1.545,2.854
			l-0.008,3.071"/>
		<polyline stroke="#000000" stroke-width="0.91" stroke-miterlimit="10" points="421.036,476.271 421.036,476.271 421.036,476.271 
					"/>
		<path fill="#FFFFFF" stroke="#FFFFFF" stroke-width="0.91" stroke-miterlimit="10" d="M434.62,501.657l0.008,3.071
			c0,0,0.004,2.15-2.52,2.094h-11.072l0,0h-11.072c-2.521,0.057-2.52-2.094-2.52-2.094l0.008-3.071
			C407.452,501.657,419.292,497.19,434.62,501.657z"/>
		<path fill="#FFFFFF" stroke="#FFFFFF" stroke-width="0.7935" stroke-miterlimit="10" d="M432.714,502.831
			c0-3.7-5.229-6.701-11.678-6.701s-11.678,3.001-11.678,6.701H432.714z"/>
		<path fill="#1D71B8" d="M435.104,502.179c-15.01-4.694-27.98-0.044-28.096,0v-0.959c0.119-0.045,11.996-4.988,28.096,0.03V502.179
			z"/>
		<path fill="none" stroke="#FFFFFF" stroke-width="0.91" stroke-linecap="round" stroke-miterlimit="10" d="M414.999,483.764
			c1.285-1.295,3.584-2.134,6.193-2.083c2.48,0.049,4.652,0.887,5.92,2.122"/>
		<path fill="none" stroke="#FFFFFF" stroke-width="0.91" stroke-linecap="round" stroke-miterlimit="10" d="M414.999,487.052
			c1.285-1.294,3.584-2.132,6.193-2.081c2.48,0.048,4.652,0.886,5.92,2.122"/>
		<path fill="none" stroke="#FFFFFF" stroke-width="0.91" stroke-linecap="round" stroke-miterlimit="10" d="M414.999,490.342
			c1.285-1.294,3.584-2.132,6.193-2.082c2.48,0.048,4.652,0.887,5.92,2.122"/>
		<path fill="none" stroke="#FFFFFF" stroke-width="0.91" stroke-linecap="round" stroke-miterlimit="10" d="M414.999,493.631
			c1.285-1.295,3.584-2.132,6.193-2.082c2.48,0.049,4.652,0.886,5.92,2.122"/>
	</g>
	<g>
		<path fill="#1D71B8" stroke="#1D71B8" stroke-width="0.91" stroke-miterlimit="10" d="M474.815,504.729l-0.008-3.071
			c0,0,0.275-0.863-1.545-2.854c-0.297-0.569-0.418-2.883-0.418-2.883l-1.779-11.999c-0.377-3.831-1.818-5.65-5.186-6.096
			c-1.945-1.191-3.168-1.571-4.656-1.554l0,0l0,0l0,0l0,0c-1.488-0.018-2.711,0.362-4.656,1.554
			c-3.367,0.445-4.807,2.265-5.184,6.096l-1.779,11.999c0,0-0.123,2.313-0.42,2.883c-1.818,1.991-1.543,2.854-1.543,2.854
			l-0.01,3.071"/>
		<polyline stroke="#000000" stroke-width="0.91" stroke-miterlimit="10" points="461.224,476.271 461.224,476.271 461.224,476.271 
					"/>
		<path fill="#FFFFFF" stroke="#FFFFFF" stroke-width="0.91" stroke-miterlimit="10" d="M474.808,501.657l0.008,3.071
			c0,0,0.004,2.15-2.52,2.094h-11.072l0,0h-11.072c-2.521,0.057-2.52-2.094-2.52-2.094l0.01-3.071
			C447.642,501.657,459.479,497.19,474.808,501.657z"/>
		<path fill="#FFFFFF" stroke="#FFFFFF" stroke-width="0.7935" stroke-miterlimit="10" d="M472.901,502.831
			c0-3.7-5.229-6.701-11.678-6.701s-11.678,3.001-11.678,6.701H472.901z"/>
		<path fill="#1D71B8" d="M475.292,502.179c-15.01-4.694-27.979-0.044-28.096,0v-0.959c0.119-0.045,11.996-4.988,28.096,0.03
			V502.179z"/>
		<path fill="none" stroke="#FFFFFF" stroke-width="0.91" stroke-linecap="round" stroke-miterlimit="10" d="M455.187,483.764
			c1.285-1.295,3.584-2.134,6.195-2.083c2.479,0.049,4.65,0.887,5.918,2.122"/>
		<path fill="none" stroke="#FFFFFF" stroke-width="0.91" stroke-linecap="round" stroke-miterlimit="10" d="M455.187,487.052
			c1.285-1.294,3.584-2.132,6.195-2.081c2.479,0.048,4.65,0.886,5.918,2.122"/>
		<path fill="none" stroke="#FFFFFF" stroke-width="0.91" stroke-linecap="round" stroke-miterlimit="10" d="M455.187,490.342
			c1.285-1.294,3.584-2.132,6.195-2.082c2.479,0.048,4.65,0.887,5.918,2.122"/>
		<path fill="none" stroke="#FFFFFF" stroke-width="0.91" stroke-linecap="round" stroke-miterlimit="10" d="M455.187,493.631
			c1.285-1.295,3.584-2.132,6.195-2.082c2.479,0.049,4.65,0.886,5.918,2.122"/>
	</g>
</g>
</svg>
