<?xml version="1.0" encoding="utf-8"?>
<!-- Generator: Adobe Illustrator 17.0.0, SVG Export Plug-In . SVG Version: 6.00 Build 0)  -->
<!DOCTYPE svg PUBLIC "-//W3C//DTD SVG 1.1//EN" "http://www.w3.org/Graphics/SVG/1.1/DTD/svg11.dtd">
<svg version="1.1" id="Layer_1" xmlns="http://www.w3.org/2000/svg" xmlns:xlink="http://www.w3.org/1999/xlink" x="0px" y="0px"
	 width="19.414px" height="69.739px" viewBox="0 0 19.414 69.739" enable-background="new 0 0 19.414 69.739" xml:space="preserve">
<polygon fill="#F6F6F6" stroke="#F6F6F6" stroke-width="1.5848" stroke-miterlimit="10" points="2.17,63.706 0.803,50.601 
	3.676,39.024 4.222,0.792 16.758,0.792 16.758,39.024 15.646,50.682 17.165,63.706 "/>
<polygon fill="#EDEDED" points="17.637,63.706 16.093,50.895 18.911,39.254 16.752,20.218 18.809,0.792 11.173,0.792 9.116,20.218 
	11.173,39.024 8.438,50.601 9.806,63.706 "/>
<polygon fill="#F9B233" stroke="#F9B233" stroke-width="1.2112" stroke-linecap="round" stroke-linejoin="round" stroke-miterlimit="10" points="
	3.537,39.024 1.487,20.218 3.537,0.792 18.809,0.792 16.758,20.218 18.581,39.024 "/>
<polygon fill="#F39200" stroke="#F39200" stroke-width="1.2112" stroke-linecap="round" stroke-linejoin="round" stroke-miterlimit="10" points="
	18.809,39.024 16.758,20.218 18.809,0.792 11.173,0.792 9.123,20.218 11.173,39.024 "/>
<polygon fill="#C6C6C6" stroke="#C6C6C6" stroke-width="1.5848" stroke-linecap="round" stroke-linejoin="round" stroke-miterlimit="10" points="
	16.933,59.117 17.257,61.957 17.441,63.706 2.17,63.706 1.991,61.996 1.665,59.118 "/>
<polygon fill="#3C3C3B" stroke="#3C3C3B" stroke-width="1.5848" stroke-linecap="round" stroke-linejoin="round" stroke-miterlimit="10" points="
	17.303,62.375 17.441,63.706 2.17,63.706 2.032,62.394 "/>
<circle fill="#3C3C3B" stroke="#3C3C3B" stroke-width="1.5848" stroke-linecap="round" stroke-linejoin="round" stroke-miterlimit="10" cx="3.932" cy="64.304" r="1.795"/>
<circle fill="#3C3C3B" stroke="#3C3C3B" stroke-width="1.5848" stroke-linecap="round" stroke-linejoin="round" stroke-miterlimit="10" cx="5.726" cy="65.671" r="1.795"/>
<circle fill="#3C3C3B" stroke="#3C3C3B" stroke-width="1.5848" stroke-linecap="round" stroke-linejoin="round" stroke-miterlimit="10" cx="8.139" cy="65.735" r="1.795"/>
<circle fill="#3C3C3B" stroke="#3C3C3B" stroke-width="1.5848" stroke-linecap="round" stroke-linejoin="round" stroke-miterlimit="10" cx="10.608" cy="67.152" r="1.795"/>
<circle fill="#3C3C3B" stroke="#3C3C3B" stroke-width="1.5848" stroke-linecap="round" stroke-linejoin="round" stroke-miterlimit="10" cx="11.035" cy="64.531" r="1.795"/>
<circle fill="#3C3C3B" stroke="#3C3C3B" stroke-width="1.5848" stroke-linecap="round" stroke-linejoin="round" stroke-miterlimit="10" cx="15.646" cy="64.229" r="1.795"/>
<circle fill="#3C3C3B" stroke="#3C3C3B" stroke-width="1.5848" stroke-linecap="round" stroke-linejoin="round" stroke-miterlimit="10" cx="13.173" cy="65.671" r="1.795"/>
<circle fill="#F9B233" stroke="#F9B233" stroke-width="0.8671" stroke-linecap="round" stroke-linejoin="round" stroke-miterlimit="10" cx="16.637" cy="3.035" r="0.991"/>
<circle fill="#F9B233" stroke="#F9B233" stroke-width="0.8671" stroke-linecap="round" stroke-linejoin="round" stroke-miterlimit="10" cx="13.173" cy="5.781" r="0.991"/>
<circle fill="#F9B233" stroke="#F9B233" stroke-width="0.8671" stroke-linecap="round" stroke-linejoin="round" stroke-miterlimit="10" cx="15.959" cy="8.896" r="0.991"/>
<circle fill="#F9B233" stroke="#F9B233" stroke-width="0.8671" stroke-linecap="round" stroke-linejoin="round" stroke-miterlimit="10" cx="12.83" cy="11.79" r="0.991"/>
<circle fill="#F9B233" stroke="#F9B233" stroke-width="0.8671" stroke-linecap="round" stroke-linejoin="round" stroke-miterlimit="10" cx="15.155" cy="14.999" r="0.991"/>
<circle fill="#F9B233" stroke="#F9B233" stroke-width="0.8671" stroke-linecap="round" stroke-linejoin="round" stroke-miterlimit="10" cx="12.182" cy="17.83" r="0.991"/>
</svg>
