<?xml version="1.0" encoding="utf-8"?>
<!-- Generator: Adobe Illustrator 17.0.0, SVG Export Plug-In . SVG Version: 6.00 Build 0)  -->
<!DOCTYPE svg PUBLIC "-//W3C//DTD SVG 1.1//EN" "http://www.w3.org/Graphics/SVG/1.1/DTD/svg11.dtd">
<svg version="1.1" id="Layer_1" xmlns="http://www.w3.org/2000/svg" xmlns:xlink="http://www.w3.org/1999/xlink" x="0px" y="0px"
	 width="310.666px" height="163.089px" viewBox="0 0 310.666 163.089" enable-background="new 0 0 310.666 163.089"
	 xml:space="preserve">
<g>
	
		<path fill="#60868B" stroke="#60868B" stroke-width="4.5252" stroke-linecap="round" stroke-linejoin="round" stroke-miterlimit="10" d="
		M70.758,63.79c0,7.818-3.898,15.025-3.898,15.025"/>
	
		<path fill="none" stroke="#575756" stroke-width="4.5696" stroke-linecap="round" stroke-linejoin="round" stroke-miterlimit="10" d="
		M191.093,14.502c0,0,15.426,49.761,0,99.521"/>
	
		<path fill="none" stroke="#575756" stroke-width="4.5696" stroke-linecap="round" stroke-linejoin="round" stroke-miterlimit="10" d="
		M157.243,23.824c0,0,11.434,40.438,0,80.876"/>
	
		<path fill="none" stroke="#575756" stroke-width="4.5696" stroke-linecap="round" stroke-linejoin="round" stroke-miterlimit="10" d="
		M123.391,34.498c0,0,8.416,29.765,0,59.527"/>
	
		<path fill="none" stroke="#575756" stroke-width="4.5696" stroke-linecap="round" stroke-linejoin="round" stroke-miterlimit="10" d="
		M89.54,49.305c0,0,4.23,14.957,0,29.913"/>
	
		<path fill="#90AFB0" stroke="#90AFB0" stroke-width="4.5696" stroke-linecap="round" stroke-linejoin="round" stroke-miterlimit="10" d="
		M59.342,63.988C5.521,68.107,2.285,23.977,2.285,23.977S44.879,11.988,59.342,63.988z"/>
	
		<path fill="#6D999E" stroke="#6D999E" stroke-width="4.5696" stroke-linecap="round" stroke-linejoin="round" stroke-miterlimit="10" d="
		M59.342,64.532c-53.82-4.115-57.057,40.015-57.057,40.015S44.879,116.534,59.342,64.532z"/>
	
		<path fill="#90AFB0" stroke="#90AFB0" stroke-width="4.5696" stroke-linecap="round" stroke-linejoin="round" stroke-miterlimit="10" d="
		M228.174,2.285c0,0,62.798,6.963,80.207,61.978c-17.409,55.013-80.207,61.978-80.207,61.978c6.561-21.524,8.565-43.05,8.385-61.979
		C236.222,28.688,228.174,2.286,228.174,2.285z"/>
	
		<path fill="#FFFFFF" stroke="#FFFFFF" stroke-width="4.5696" stroke-linecap="round" stroke-linejoin="round" stroke-miterlimit="10" d="
		M255.709,44.236c0,6.212,5.039,11.253,11.255,11.253c6.216,0,11.254-5.041,11.254-11.253c0-6.217-5.039-11.255-11.254-11.255
		C260.748,32.981,255.709,38.019,255.709,44.236z"/>
	<circle cx="266.964" cy="44.236" r="5.939"/>
	
		<path fill="#90AFB0" stroke="#90AFB0" stroke-width="4.5696" stroke-linecap="round" stroke-linejoin="round" stroke-miterlimit="10" d="
		M308.381,64.262"/>
	
		<path fill="#90AFB0" stroke="#90AFB0" stroke-width="4.5696" stroke-linecap="round" stroke-linejoin="round" stroke-miterlimit="10" d="
		M236.559,64.261"/>
	
		<path fill="#90AFB0" stroke="#90AFB0" stroke-width="4.5252" stroke-linecap="round" stroke-linejoin="round" stroke-miterlimit="10" d="
		M70.758,65.113c0-7.819-3.898-15.025-3.898-15.025C128.08,2.662,216.255,2.664,216.255,2.662c0,0.002,7.97,26.148,8.304,61.374
		v0.002v0.826v0.002c-0.333,35.228-8.304,61.373-8.304,61.374c0-0.001-88.175,0-149.396-47.425c0,0,3.898-7.207,3.898-15.025"/>
	
		<path fill="#6D999E" stroke="#6D999E" stroke-width="4.5696" stroke-linecap="round" stroke-linejoin="round" stroke-miterlimit="10" d="
		M236.559,64.261c0.18,18.929-1.824,40.454-8.385,61.979c0,0,62.798-6.965,80.207-61.978L236.559,64.261z"/>
	
		<path fill="#6D999E" stroke="#6D999E" stroke-width="4.5252" stroke-linecap="round" stroke-linejoin="round" stroke-miterlimit="10" d="
		M224.559,64.036v0.002v0.826v0.002c-0.333,35.228-8.304,61.373-8.304,61.374c0-0.001-88.175,0-149.396-47.425
		c0,0,3.898-7.207,3.898-15.025L224.559,64.036z"/>
	
		<path fill="#90AFB0" stroke="#90AFB0" stroke-width="4.5252" stroke-linecap="round" stroke-linejoin="round" stroke-miterlimit="10" d="
		M224.559,64.864"/>
	<g>
		
			<path fill="#6D999E" stroke="#6D999E" stroke-width="3.0523" stroke-linecap="round" stroke-linejoin="round" stroke-miterlimit="10" d="
			M212.275,137.832c-13.867,33.282-41.112,21.827-41.112,21.827S176.941,130.673,212.275,137.832z"/>
		
			<path fill="#62898E" stroke="#62898E" stroke-width="3.0523" stroke-linecap="round" stroke-linejoin="round" stroke-miterlimit="10" d="
			M171.163,159.659c0,0,27.245,11.455,41.112-21.827L171.163,159.659z"/>
	</g>
</g>
</svg>
