<?xml version="1.0" encoding="utf-8"?>
<!-- Generator: Adobe Illustrator 17.0.0, SVG Export Plug-In . SVG Version: 6.00 Build 0)  -->
<!DOCTYPE svg PUBLIC "-//W3C//DTD SVG 1.1//EN" "http://www.w3.org/Graphics/SVG/1.1/DTD/svg11.dtd">
<svg version="1.1" id="Layer_1" xmlns="http://www.w3.org/2000/svg" xmlns:xlink="http://www.w3.org/1999/xlink" x="0px" y="0px"
	 width="303.285px" height="129.211px" viewBox="0 0 303.285 129.211" enable-background="new 0 0 303.285 129.211"
	 xml:space="preserve">
<g>
	<g>
		
			<path fill="none" stroke="#575756" stroke-width="4.6247" stroke-linecap="round" stroke-linejoin="round" stroke-miterlimit="10" d="
			M93.758,3.036c0,0-1.156,52.713,27.704,96.836"/>
	</g>
	<g>
		
			<path fill="none" stroke="#575756" stroke-width="4.6247" stroke-linecap="round" stroke-linejoin="round" stroke-miterlimit="10" d="
			M132.973,2.312c0,0-2.218,42.47,18.128,79.82"/>
	</g>
	<g>
		
			<path fill="none" stroke="#575756" stroke-width="4.6247" stroke-linecap="round" stroke-linejoin="round" stroke-miterlimit="10" d="
			M170.915,9.709c0,0-2.88,31.172,10.992,59.236"/>
	</g>
	<g>
		
			<path fill="none" stroke="#575756" stroke-width="4.6247" stroke-linecap="round" stroke-linejoin="round" stroke-miterlimit="10" d="
			M208.985,26.92c0,0-2.519,15.525,3.465,30.072"/>
	</g>
	<g>
		
			<path fill="none" stroke="#575756" stroke-width="4.6247" stroke-linecap="round" stroke-linejoin="round" stroke-miterlimit="10" d="
			M53.595,88.137c19.951-28.419,66.809-48.372,121.433-48.372c24.625,0,47.675,4.055,67.389,11.115"/>
	</g>
	<g>
		
			<path fill="#90AFB0" stroke="#90AFB0" stroke-width="4.6247" stroke-linecap="round" stroke-linejoin="round" stroke-miterlimit="10" d="
			M58.334,6.399c0,0-57.688,27.588-55.985,85.957c34.974,46.77,97.305,32.49,97.305,32.49C60.94,71.916,58.334,6.399,58.334,6.399z"
			/>
	</g>
	<g>
		
			<path fill="#FFFFFF" stroke="#FFFFFF" stroke-width="4.6247" stroke-linecap="round" stroke-linejoin="round" stroke-miterlimit="10" d="
			M45.767,54.979c2.072,5.94-1.062,12.438-7.004,14.507c-5.938,2.076-12.432-1.065-14.503-6.998
			c-2.072-5.942,1.062-12.438,7.002-14.506C37.202,45.907,43.696,49.043,45.767,54.979z"/>
	</g>
	<g>
		<path d="M39.793,57.064c0.922,2.641-0.472,5.525-3.112,6.448c-2.64,0.919-5.526-0.473-6.447-3.111
			c-0.918-2.639,0.472-5.526,3.113-6.447C35.986,53.032,38.872,54.426,39.793,57.064z"/>
	</g>
	<g>
		
			<path fill="#90AFB0" stroke="#90AFB0" stroke-width="4.6247" stroke-linecap="round" stroke-linejoin="round" stroke-miterlimit="10" d="
			M237.05,48.466c52.903,13.609,63.923-29.798,63.923-29.798S260.644-0.8,237.05,48.466z"/>
	</g>
	<g>
		
			<path fill="#6D999E" stroke="#6D999E" stroke-width="4.6247" stroke-linecap="round" stroke-linejoin="round" stroke-miterlimit="10" d="
			M236.955,49.008c54.357,5.402,49.791,49.952,49.791,49.952S242.182,103.381,236.955,49.008z"/>
	</g>
	<g>
		
			<path fill="#6D999E" stroke="#6D999E" stroke-width="4.6247" stroke-linecap="round" stroke-linejoin="round" stroke-miterlimit="10" d="
			M71.565,70.123c6.127,17.683,15.064,36.914,28.089,54.723c0,0-60.968,13.969-96.142-30.97L71.565,70.123z"/>
	</g>
</g>
</svg>
