<?xml version="1.0" encoding="utf-8"?>
<!-- Generator: Adobe Illustrator 15.0.2, SVG Export Plug-In . SVG Version: 6.00 Build 0)  -->
<!DOCTYPE svg PUBLIC "-//W3C//DTD SVG 1.1//EN" "http://www.w3.org/Graphics/SVG/1.1/DTD/svg11.dtd">
<svg version="1.1" id="Fiskben" xmlns="http://www.w3.org/2000/svg" xmlns:xlink="http://www.w3.org/1999/xlink" x="0px" y="0px"
	 width="233.898px" height="134.911px" viewBox="0 0 233.898 134.911" enable-background="new 0 0 233.898 134.911"
	 xml:space="preserve">
<g>
	<g>
		
			<path fill="none" stroke="#58585A" stroke-width="4.6247" stroke-linecap="round" stroke-linejoin="round" stroke-miterlimit="10" d="
			M87.758,17.209c0,0-0.993,45.285,23.799,83.189"/>
	</g>
	<g>
		
			<path fill="none" stroke="#58585A" stroke-width="4.6247" stroke-linecap="round" stroke-linejoin="round" stroke-miterlimit="10" d="
			M122.05,16.588c0,0-1.906,36.484,15.572,68.571"/>
	</g>
	<g>
		
			<path fill="none" stroke="#58585A" stroke-width="4.6247" stroke-linecap="round" stroke-linejoin="round" stroke-miterlimit="10" d="
			M155.807,22.942c0,0-2.473,26.778,9.443,50.888"/>
	</g>
	<g>
		
			<path fill="none" stroke="#58585A" stroke-width="4.6247" stroke-linecap="round" stroke-linejoin="round" stroke-miterlimit="10" d="
			M53.595,93.837c19.951-28.42,66.81-48.372,121.433-48.372"/>
	</g>
	<g>
		
			<path fill="#D8D9DA" stroke="#D8D9DA" stroke-width="4.6247" stroke-linecap="round" stroke-linejoin="round" stroke-miterlimit="10" d="
			M58.334,12.099c0,0-57.688,27.588-55.985,85.957c34.974,46.77,97.305,32.49,97.305,32.49
			C60.939,77.616,58.334,12.099,58.334,12.099z"/>
	</g>
	<g>
		
			<path fill="#D8D9DA" stroke="#D8D9DA" stroke-width="4.6247" stroke-linecap="round" stroke-linejoin="round" stroke-miterlimit="10" d="
			M172.44,45.668c54.579,2.261,56.292-42.489,56.292-42.489S185.228-7.439,172.44,45.668z"/>
	</g>
	<g>
		<g>
			<path fill="#B0B2B3" d="M172.462,46.218c54.287-6.068,59.124,38.452,59.124,38.452S188.928,98.301,172.462,46.218z"/>
			<path fill="#B0B2B3" d="M170.063,46.015c0.017-0.24-0.12-1.47,0.502-1.746c0.622-0.275,1.639-0.35,1.639-0.35
				c18.518-2.069,33.503,1.365,44.536,10.208c15.001,12.023,17.063,29.554,17.145,30.293c0.118,1.093-0.548,2.118-1.595,2.452
				c-0.039,0.013-0.964,0.306-2.537,0.642c-10.253,2.189-44.849,5.733-59.497-40.6C170.256,46.914,170.047,46.255,170.063,46.015z
				 M175.571,48.24c13.924,39.757,44.128,36.692,53.216,34.752c0.062-0.014,0.122-0.026,0.182-0.04
				C227.363,74.772,218.525,44.755,175.571,48.24z"/>
		</g>
	</g>
	<g>
		<g>
			<path fill="#B0B2B3" d="M71.564,75.823c6.127,17.683,15.064,36.914,28.09,54.723c0,0-60.968,13.969-96.142-30.97L71.564,75.823z"
				/>
			<path fill="#B0B2B3" d="M73.75,75.066c7.053,20.356,16.396,38.562,27.77,54.114c0.46,0.628,0.572,1.444,0.301,2.174
				c-0.271,0.729-0.893,1.271-1.65,1.445c-0.377,0.086-9.369,2.111-22.508,2.111c-22.549,0-54.034-5.883-75.971-33.91
				c0,0-1.215-1.653-1.372-1.81S0.101,98.41,0.101,98.41l2.649-1.018L73.091,72.88L73.75,75.066z M7.387,100.673
				c20.676,24.395,49.452,29.613,70.275,29.613c7.883,0,14.285-0.775,17.989-1.359c-10.282-14.678-18.849-31.523-25.503-50.16
				L7.387,100.673z"/>
		</g>
	</g>
	
		<circle fill="#FFFFFF" stroke="#FFFFFF" stroke-width="4.5696" stroke-linecap="round" stroke-linejoin="round" stroke-miterlimit="10" cx="35.013" cy="64.433" r="11.255"/>
	<circle fill="#1A171B" cx="35.013" cy="64.433" r="5.939"/>
</g>
<path fill="none" stroke="#58585A" stroke-width="4.6247" stroke-linecap="round" stroke-linejoin="round" stroke-miterlimit="10" d="
	M-357.177-349.678c-7.211,27.033-27.922,49.773-56.717,58.277c-43.963,12.983-90.126-12.131-103.109-56.095"/>
<g>
	
		<path fill="#D8D9DA" stroke="#D8D9DA" stroke-width="4.6247" stroke-linecap="round" stroke-linejoin="round" stroke-miterlimit="10" d="
		M-369.722-321.987c43.795-32.65,16.912-68.47,16.912-68.47S-393.274-371.273-369.722-321.987z"/>
</g>
<g>
	<g>
		<path fill="#B0B2B3" d="M-369.358-321.574c38.316-38.933,70.137-7.421,70.137-7.421S-323.743-291.523-369.358-321.574z"/>
		<path fill="#B0B2B3" d="M-371.347-320.221c-0.139-0.197-1.021-1.065-0.713-1.67c0.311-0.606,1.051-1.306,1.051-1.306
			c13.072-13.279,26.867-20.061,41.01-20.15c19.225-0.124,31.875,12.185,32.404,12.707c0.781,0.774,0.908,1.99,0.307,2.91
			c-0.021,0.034-0.553,0.844-1.564,2.098c-6.578,8.163-31.199,32.721-71.779,5.988
			C-370.632-319.644-371.208-320.023-371.347-320.221z M-365.669-321.965c35.869,22.086,57.385,0.666,63.217-6.569
			c0.039-0.049,0.078-0.097,0.115-0.145C-308.739-334.018-334.522-351.748-365.669-321.965z"/>
	</g>
</g>
<g>
	
		<path fill="#D8D9DA" stroke="#D8D9DA" stroke-width="4.6247" stroke-linecap="round" stroke-linejoin="round" stroke-miterlimit="10" d="
		M-455.741-368.447c0,0-34.483-53.852-92.197-44.974c-42.107,40.468-20.261,100.565-20.261,100.565
		C-520.439-357.793-455.741-368.447-455.741-368.447z"/>
</g>
<g>
	<g>
		<path fill="#B0B2B3" d="M-517.352-347.47c-16.794,8.258-34.777,19.496-50.847,34.614c0,0-21.37-58.783,18.895-99.223
			L-517.352-347.47z"/>
		<path fill="#B0B2B3" d="M-516.332-345.395c-19.332,9.506-36.25,21.02-50.282,34.224c-0.566,0.532-1.362,0.745-2.12,0.565
			c-0.756-0.18-1.37-0.729-1.637-1.459c-0.132-0.363-3.25-9.037-4.868-22.077c-2.776-22.377-0.816-54.348,24.296-79.568
			c0,0,1.491-1.409,1.628-1.584c0.135-0.175,0.748-0.313,0.748-0.313l1.336,2.504l32.989,66.785L-516.332-345.395z
			 M-549.916-408.098c-21.663,23.522-23.298,52.723-20.732,73.387c0.97,7.823,2.529,14.082,3.564,17.685
			c13.3-12.012,28.962-22.587,46.637-31.486L-549.916-408.098z"/>
	</g>
</g>
<path fill="#FFFFFF" stroke="#FFFFFF" stroke-width="4.5696" stroke-linecap="round" stroke-linejoin="round" stroke-miterlimit="10" d="
	M-509.164-373.977c-6.164,0.765-11.788-3.614-12.552-9.784c-0.767-6.168,3.616-11.789,9.779-12.554
	c6.17-0.766,11.79,3.614,12.557,9.782C-498.615-380.364-502.994-374.742-509.164-373.977z"/>
<circle fill="#1A171B" cx="-510.549" cy="-385.146" r="5.939"/>
<path fill="none" stroke="#58585A" stroke-width="4.6247" stroke-linecap="round" stroke-linejoin="round" stroke-miterlimit="10" d="
	M-406.091-272.181c0,0-9.475-17.747-8.896-40.636"/>
<path fill="none" stroke="#58585A" stroke-width="4.6247" stroke-linecap="round" stroke-linejoin="round" stroke-miterlimit="10" d="
	M-376.878-293.185c0,0-10.746-11.025-15.197-27.97"/>
<path fill="none" stroke="#58585A" stroke-width="4.6247" stroke-linecap="round" stroke-linejoin="round" stroke-miterlimit="10" d="
	M-531.868-291.376c0,0,21.794-31.574,61.092-50.607"/>
<path fill="none" stroke="#58585A" stroke-width="4.6247" stroke-linecap="round" stroke-linejoin="round" stroke-miterlimit="10" d="
	M-500.878-272.18c0,0,14.346-29.562,45.137-50.785"/>
<path fill="none" stroke="#58585A" stroke-width="4.6247" stroke-linecap="round" stroke-linejoin="round" stroke-miterlimit="10" d="
	M-454.005-261.709c0,0,2.523-26.524,19.908-51.368"/>
</svg>
