<?xml version="1.0" encoding="utf-8"?>
<!-- Generator: Adobe Illustrator 15.0.2, SVG Export Plug-In . SVG Version: 6.00 Build 0)  -->
<!DOCTYPE svg PUBLIC "-//W3C//DTD SVG 1.1//EN" "http://www.w3.org/Graphics/SVG/1.1/DTD/svg11.dtd">
<svg version="1.1" id="Lager_1" xmlns="http://www.w3.org/2000/svg" xmlns:xlink="http://www.w3.org/1999/xlink" x="0px" y="0px"
	 width="221.975px" height="647.151px" viewBox="0 0 221.975 647.151" enable-background="new 0 0 221.975 647.151"
	 xml:space="preserve">
<g>
	<g>
		<g>
			<g>
				
					<rect x="40.766" y="0.593" fill="#FFFFFF" stroke="#FFFFFF" stroke-width="1.1853" stroke-linecap="round" stroke-linejoin="round" stroke-miterlimit="10" width="180.549" height="273.648"/>
				
					<polygon fill="#F5F5F6" stroke="#F5F5F6" stroke-width="1.1853" stroke-linecap="round" stroke-linejoin="round" stroke-miterlimit="10" points="
					221.314,274.241 40.766,274.241 40.766,0.593 				"/>
			</g>
		</g>
		<rect x="20.234" y="0.085" fill="#FFFFFF" width="20.531" height="647.066"/>
		<rect x="20.234" y="0.085" fill="#ECECED" width="10.266" height="647.066"/>
		<g>
			<g>
				<g>
					<path fill="#54B171" d="M129.635,152.05c0.1-6.35,0.201-43.484,5.879-55.488c13.947-29.544,59.764-29.544,59.764-29.544
						s6.914,62.758-39.318,70.79c-18.088,3.117-17.141,3.227-18.871,14.934v13.726h-7.453V152.05z"/>
				</g>
			</g>
			<g>
				<g>
					<path fill="#44A260" d="M122.891,127.682c-0.094-6.343-0.205-43.471-5.865-55.478c-13.967-29.553-59.781-29.553-59.781-29.553
						s-6.908,62.755,39.328,70.78c18.088,3.143,17.123,3.257,18.873,14.941v38.089h7.445V127.682z"/>
				</g>
				<g>
					<path fill="#44A260" d="M122.686,116.575c-0.373-13.806-1.564-35.674-5.66-44.37c-13.967-29.553-59.781-29.553-59.781-29.553"
						/>
				</g>
			</g>
		</g>
		<rect x="40.766" y="190.773" fill="#54B171" width="181.209" height="84.146"/>
		<polygon fill="#44A260" points="221.975,274.919 40.766,274.919 40.766,190.773 166.244,190.773 		"/>
		<g>
			<path fill="#FFFFFF" stroke="#FFFFFF" stroke-width="0.2" stroke-miterlimit="10" d="M87.031,222.27l-1.939-0.051
				c-0.316-1.893-1.098-3.391-2.336-4.49c-1.244-1.104-2.637-1.653-4.176-1.653c-2.588,0-4.639,1.322-6.143,3.965
				c-1.504,2.645-2.256,5.681-2.256,9.108c0,6.965,1.195,11.936,3.592,14.909c2.402,2.976,6.17,4.604,11.318,4.884v-14.438h-5.148
				v-1.941h7.088v18.376c-5.074,0-8.852-0.755-11.338-2.259c-0.979-0.598-1.971-1.438-2.965-2.521c-1-1.084-1.812-2.381-2.445-3.885
				c-1.363-3.395-2.047-7.788-2.047-13.178c0-2.557,0.352-4.85,1.053-6.877c0.699-2.031,1.576-3.605,2.623-4.727
				c2.135-2.242,4.289-3.359,6.459-3.359s4.152,0.877,5.957,2.626C86.131,218.509,87.031,220.347,87.031,222.27z"/>
			<path fill="#FFFFFF" stroke="#FFFFFF" stroke-width="0.2" stroke-miterlimit="10" d="M112.863,250.884H110.5l-10.186-15.594
				c-1.295,0.177-2.73,0.299-4.303,0.367v15.227h-1.943v-36.805c11.725,0.036,17.586,3.555,17.586,10.555
				c0,5.635-3.08,9.084-9.236,10.342L112.863,250.884z M96.012,233.559l0.521,0.051c8.789-0.139,13.182-3.078,13.182-8.818
				c0-1.609-0.377-2.946-1.129-4.016c-0.756-1.068-1.602-1.9-2.545-2.496c-2.244-1.396-5.586-2.134-10.029-2.204V233.559z"/>
			<path fill="#FFFFFF" stroke="#FFFFFF" stroke-width="0.2" stroke-miterlimit="10" d="M117.746,250.884v-36.75h18.795v1.94h-16.85
				v13.44h16.85v1.94h-16.85v17.483h16.85v1.941h-18.795V250.884z"/>
			<path fill="#FFFFFF" stroke="#FFFFFF" stroke-width="0.2" stroke-miterlimit="10" d="M142.895,250.884v-36.75h18.795v1.94
				h-16.852v13.44h16.852v1.94h-16.852v17.483h16.852v1.941h-18.795V250.884z"/>
			<path fill="#FFFFFF" stroke="#FFFFFF" stroke-width="0.2" stroke-miterlimit="10" d="M169.986,217.439v33.443h-1.943v-36.804
				h2.781l14.068,32.34v-32.285h1.945v36.75h-1.945L169.986,217.439z"/>
		</g>
	</g>
	<rect y="624.669" fill="#FFFFFF" width="61" height="22.482"/>
	<rect y="624.669" fill="#ECECED" width="30.5" height="22.482"/>
</g>
</svg>
