<?xml version="1.0" encoding="utf-8"?>
<!-- Generator: Adobe Illustrator 15.0.2, SVG Export Plug-In . SVG Version: 6.00 Build 0)  -->
<!DOCTYPE svg PUBLIC "-//W3C//DTD SVG 1.1//EN" "http://www.w3.org/Graphics/SVG/1.1/DTD/svg11.dtd">
<svg version="1.1" id="Lager_1" xmlns="http://www.w3.org/2000/svg" xmlns:xlink="http://www.w3.org/1999/xlink" x="0px" y="0px"
	 width="110.223px" height="75.714px" viewBox="0 0 110.223 75.714" enable-background="new 0 0 110.223 75.714"
	 xml:space="preserve">
<g>
	<g>
		
			<path fill="#5B5A5C" stroke="#5B5A5C" stroke-width="0.2433" stroke-linecap="round" stroke-linejoin="round" stroke-miterlimit="10" d="
			M55.099,30.85l-0.03,0.054l-0.045-0.044c0,0-1.979-1.579-3.358-0.728c-1.078,0.666-0.819,1.826-0.055,2.49
			c1.201,1.036,2.671-0.186,3.129-0.446c0,0,0.195-0.13,0.462-0.31"/>
		
			<path fill="#5B5A5C" stroke="#5B5A5C" stroke-width="0.2433" stroke-linecap="round" stroke-linejoin="round" stroke-miterlimit="10" d="
			M56.611,30.734l0.035,0.046l0.035-0.048c0,0,1.712-1.869,3.207-1.241c1.168,0.493,1.096,1.679,0.439,2.452
			c-1.024,1.211-2.664,0.233-3.16,0.045c0,0-0.213-0.1-0.504-0.234"/>
		
			<ellipse transform="matrix(0.0777 0.997 -0.997 0.0777 82.1713 -27.0792)" fill="#3F3E40" stroke="#3F3E40" stroke-width="0.2853" stroke-linecap="round" stroke-linejoin="round" stroke-miterlimit="10" cx="55.721" cy="30.872" rx="2.288" ry="0.911"/>
	</g>
	<g>
		
			<path fill="#5B5A5C" stroke="#5B5A5C" stroke-width="0.2433" stroke-linecap="round" stroke-linejoin="round" stroke-miterlimit="10" d="
			M104.66,2.992l-0.012,0.058l-0.057-0.022c0,0-2.391-0.841-3.41,0.422c-0.798,0.981-0.174,1.997,0.771,2.367
			c1.474,0.58,2.459-1.055,2.807-1.452c0,0,0.141-0.188,0.334-0.445"/>
		
			<path fill="#5B5A5C" stroke="#5B5A5C" stroke-width="0.2433" stroke-linecap="round" stroke-linejoin="round" stroke-miterlimit="10" d="
			M106.048,2.379l0.049,0.034l0.021-0.061c0,0,1-2.326,2.619-2.229c1.267,0.082,1.586,1.225,1.226,2.172
			c-0.57,1.48-2.44,1.1-2.97,1.084c0,0-0.233-0.021-0.556-0.055"/>
		
			<ellipse transform="matrix(0.402 0.9156 -0.9156 0.402 66.017 -94.9537)" fill="#3F3E40" stroke="#3F3E40" stroke-width="0.2853" stroke-linecap="round" stroke-linejoin="round" stroke-miterlimit="10" cx="105.703" cy="3.064" rx="2.287" ry="0.91"/>
	</g>
	<g>
		
			<path fill="#5B5A5C" stroke="#5B5A5C" stroke-width="0.2433" stroke-linecap="round" stroke-linejoin="round" stroke-miterlimit="10" d="
			M101.901,54.004l-0.03,0.052l-0.043-0.043c0,0-1.979-1.578-3.359-0.728c-1.077,0.669-0.818,1.829-0.052,2.492
			c1.2,1.034,2.669-0.187,3.127-0.446c0,0,0.194-0.129,0.464-0.312"/>
		
			<path fill="#5B5A5C" stroke="#5B5A5C" stroke-width="0.2433" stroke-linecap="round" stroke-linejoin="round" stroke-miterlimit="10" d="
			M103.412,53.885l0.037,0.049l0.037-0.049c0,0,1.709-1.868,3.206-1.241c1.168,0.493,1.095,1.68,0.438,2.452
			c-1.025,1.209-2.666,0.234-3.16,0.045c0,0-0.213-0.097-0.506-0.232"/>
		
			<ellipse transform="matrix(0.0783 0.9969 -0.9969 0.0783 148.9244 -52.4149)" fill="#3F3E40" stroke="#3F3E40" stroke-width="0.2853" stroke-linecap="round" stroke-linejoin="round" stroke-miterlimit="10" cx="102.809" cy="54.332" rx="2.289" ry="0.91"/>
	</g>
	<g>
		
			<path fill="#5B5A5C" stroke="#5B5A5C" stroke-width="0.2433" stroke-linecap="round" stroke-linejoin="round" stroke-miterlimit="10" d="
			M4.304,49.337l-0.035,0.051l-0.041-0.046c0,0-1.851-1.729-3.293-0.987c-1.127,0.581-0.959,1.76-0.246,2.479
			c1.115,1.128,2.676,0.026,3.152-0.199c0,0,0.205-0.113,0.484-0.271"/>
		
			<path fill="#5B5A5C" stroke="#5B5A5C" stroke-width="0.2433" stroke-linecap="round" stroke-linejoin="round" stroke-miterlimit="10" d="
			M5.82,49.337l0.033,0.051l0.041-0.046c0,0,1.85-1.729,3.291-0.987c1.129,0.581,0.962,1.76,0.249,2.479
			c-1.116,1.128-2.676,0.026-3.153-0.199c0,0-0.207-0.113-0.486-0.271"/>
		
			<path fill="#3F3E40" stroke="#3F3E40" stroke-width="0.2853" stroke-linecap="round" stroke-linejoin="round" stroke-miterlimit="10" d="
			M5.062,47.461c0.501,0,0.912,1.026,0.912,2.292c0,1.262-0.411,2.285-0.912,2.285c-0.503,0-0.912-1.023-0.912-2.285
			C4.15,48.49,4.558,47.461,5.062,47.461z"/>
	</g>
	<g>
		
			<path fill="#5B5A5C" stroke="#5B5A5C" stroke-width="0.2433" stroke-linecap="round" stroke-linejoin="round" stroke-miterlimit="10" d="
			M22.951,36.699l0.002,0.06l-0.059-0.013c0,0-2.512-0.35-3.26,1.09c-0.586,1.123,0.228,1.989,1.225,2.17
			c1.562,0.276,2.203-1.521,2.463-1.984c0,0,0.102-0.209,0.24-0.503"/>
		
			<path fill="#5B5A5C" stroke="#5B5A5C" stroke-width="0.2433" stroke-linecap="round" stroke-linejoin="round" stroke-miterlimit="10" d="
			M24.192,35.825l0.056,0.021l0.008-0.06c0,0,0.518-2.48,2.121-2.703c1.254-0.175,1.799,0.881,1.629,1.883
			c-0.262,1.563-2.172,1.562-2.69,1.652c0,0-0.231,0.022-0.556,0.057"/>
		
			<path fill="#3F3E40" stroke="#3F3E40" stroke-width="0.2853" stroke-linecap="round" stroke-linejoin="round" stroke-miterlimit="10" d="
			M22.49,34.728c0.411-0.289,1.337,0.312,2.064,1.35c0.729,1.031,0.981,2.104,0.574,2.393c-0.41,0.29-1.334-0.312-2.062-1.344
			C22.337,36.091,22.08,35.018,22.49,34.728z"/>
	</g>
	<g>
		
			<path fill="#5B5A5C" stroke="#5B5A5C" stroke-width="0.2433" stroke-linecap="round" stroke-linejoin="round" stroke-miterlimit="10" d="
			M23.573,66.631L23.53,66.67l-0.026-0.052c0,0-1.336-2.154-2.922-1.814c-1.237,0.27-1.388,1.444-0.887,2.329
			c0.784,1.377,2.576,0.722,3.096,0.629c0,0,0.229-0.057,0.543-0.138"/>
		
			<path fill="#5B5A5C" stroke="#5B5A5C" stroke-width="0.2433" stroke-linecap="round" stroke-linejoin="round" stroke-miterlimit="10" d="
			M25.036,67.031l0.021,0.056l0.051-0.031c0,0,2.238-1.187,3.438-0.095c0.937,0.855,0.468,1.948-0.408,2.457
			c-1.373,0.796-2.591-0.674-2.994-1.018c0,0-0.167-0.162-0.396-0.395"/>
		
			<path fill="#3F3E40" stroke="#3F3E40" stroke-width="0.2853" stroke-linecap="round" stroke-linejoin="round" stroke-miterlimit="10" d="
			M24.796,65.019c0.483,0.135,0.611,1.229,0.281,2.45c-0.331,1.218-0.994,2.102-1.477,1.973c-0.486-0.135-0.612-1.229-0.283-2.448
			C23.648,65.774,24.312,64.89,24.796,65.019z"/>
	</g>
	<g>
		
			<path fill="#5B5A5C" stroke="#5B5A5C" stroke-width="0.2433" stroke-linecap="round" stroke-linejoin="round" stroke-miterlimit="10" d="
			M47.335,51.722l-0.024,0.054l-0.044-0.044c0,0-1.98-1.579-3.359-0.729c-1.078,0.668-0.821,1.829-0.055,2.49
			c1.2,1.036,2.669-0.184,3.128-0.445c0,0,0.194-0.131,0.464-0.312"/>
		
			<path fill="#5B5A5C" stroke="#5B5A5C" stroke-width="0.2433" stroke-linecap="round" stroke-linejoin="round" stroke-miterlimit="10" d="
			M48.847,51.603l0.037,0.048l0.037-0.048c0,0,1.713-1.866,3.207-1.238c1.168,0.488,1.096,1.676,0.438,2.449
			c-1.024,1.209-2.666,0.234-3.16,0.047c0,0-0.213-0.1-0.505-0.234"/>
		
			<path fill="#3F3E40" stroke="#3F3E40" stroke-width="0.2853" stroke-linecap="round" stroke-linejoin="round" stroke-miterlimit="10" d="
			M47.949,49.792c0.498-0.039,0.986,0.951,1.086,2.211c0.1,1.262-0.23,2.312-0.729,2.352c-0.504,0.039-0.99-0.947-1.09-2.206
			C47.118,50.886,47.447,49.833,47.949,49.792z"/>
	</g>
	<g>
		
			<path fill="#5B5A5C" stroke="#5B5A5C" stroke-width="0.2433" stroke-linecap="round" stroke-linejoin="round" stroke-miterlimit="10" d="
			M62.798,72.101l0.006,0.061l-0.059-0.009c0,0-2.531-0.114-3.148,1.386c-0.479,1.172,0.41,1.961,1.42,2.047
			c1.578,0.133,2.054-1.717,2.271-2.197c0,0,0.083-0.221,0.191-0.523"/>
		
			<path fill="#5B5A5C" stroke="#5B5A5C" stroke-width="0.2433" stroke-linecap="round" stroke-linejoin="round" stroke-miterlimit="10" d="
			M63.954,71.12l0.056,0.016l0.002-0.061c0,0,0.289-2.519,1.867-2.889c1.236-0.285,1.871,0.715,1.795,1.729
			c-0.119,1.582-2.021,1.755-2.529,1.892c0,0-0.229,0.047-0.546,0.108"/>
		
			<ellipse transform="matrix(0.6482 0.7615 -0.7615 0.6482 77.2102 -23.1336)" fill="#3F3E40" stroke="#3F3E40" stroke-width="0.2853" stroke-linecap="round" stroke-linejoin="round" stroke-miterlimit="10" cx="63.642" cy="71.995" rx="2.289" ry="0.912"/>
	</g>
</g>
</svg>
