<?xml version="1.0" encoding="utf-8"?>
<!-- Generator: Adobe Illustrator 15.0.2, SVG Export Plug-In . SVG Version: 6.00 Build 0)  -->
<!DOCTYPE svg PUBLIC "-//W3C//DTD SVG 1.1//EN" "http://www.w3.org/Graphics/SVG/1.1/DTD/svg11.dtd">
<svg version="1.1" xmlns="http://www.w3.org/2000/svg" xmlns:xlink="http://www.w3.org/1999/xlink" x="0px" y="0px"
	 width="106.58px" height="111.874px" viewBox="0 0 106.58 111.874" enable-background="new 0 0 106.58 111.874"
	 xml:space="preserve">
<g id="Lager_1">
</g>
<g id="Höna">
	<g>
		<g>
			<path fill="#FFD93F" d="M41.917,33.127"/>
			<path fill="#FFD93F" d="M43.032,35.762c-0.038,0-0.075-0.001-0.113-0.003c-0.62-0.031-1.2-0.72-1.599-1.195
				C28.644,19.456,41.344,6.778,41.474,6.651c0.445-0.433,1.055-1.063,1.671-1.03c0.62,0.031,1.2,0.72,1.599,1.195
				c12.676,15.107-0.023,27.785-0.153,27.912C44.172,35.135,43.612,35.762,43.032,35.762z"/>
		</g>
		<g>
			<path fill="#FFCE09" d="M41.917,33.127"/>
			<path fill="#FFCE09" d="M43.032,35.762c-0.038,0-0.075-0.001-0.113-0.003c-0.62-0.031-1.2-0.72-1.599-1.195
				C28.644,19.456,41.344,6.778,41.474,6.651c0.445-0.433,1.055-1.063,1.671-1.03L43.032,35.762z"/>
		</g>
	</g>
	<g>
		<g>
			<path fill="#FFD93F" d="M98.13,92.722"/>
			<path fill="#FFD93F" d="M99.246,95.356c-0.037,0-0.074-0.001-0.113-0.003c-0.619-0.031-1.199-0.72-1.598-1.195
				c-12.678-15.107,0.023-27.785,0.152-27.912c0.445-0.433,1.055-1.063,1.672-1.03c0.619,0.031,1.199,0.72,1.598,1.195
				c12.677,15.107-0.023,27.785-0.152,27.912C100.386,94.729,99.826,95.356,99.246,95.356z"/>
		</g>
		<g>
			<path fill="#FFCE09" d="M98.13,92.722"/>
			<path fill="#FFCE09" d="M99.246,95.356c-0.037,0-0.074-0.001-0.113-0.003c-0.619-0.031-1.199-0.72-1.598-1.195
				c-12.678-15.107,0.023-27.785,0.152-27.912c0.445-0.433,1.055-1.063,1.672-1.03L99.246,95.356z"/>
		</g>
	</g>
	<g>
		<g>
			<path fill="#FFD93F" d="M75.263,56.999"/>
			<path fill="#FFD93F" d="M78.003,57.824c-0.024,0.028-0.049,0.057-0.074,0.084c-0.42,0.458-1.32,0.464-1.941,0.467
				C56.267,58.479,54.624,40.61,54.609,40.429c-0.048-0.618-0.145-1.49,0.275-1.943c0.42-0.457,1.32-0.463,1.94-0.467
				c19.721-0.104,21.364,17.766,21.379,17.946C78.249,56.546,78.374,57.377,78.003,57.824z"/>
		</g>
		<g>
			<path fill="#FFCE09" d="M75.263,56.999"/>
			<path fill="#FFCE09" d="M78.003,57.824c-0.024,0.028-0.049,0.057-0.074,0.084c-0.42,0.458-1.32,0.464-1.941,0.467
				C56.267,58.479,54.624,40.61,54.609,40.429c-0.048-0.618-0.145-1.49,0.275-1.943L78.003,57.824z"/>
		</g>
	</g>
	<g>
		<g>
			<path fill="#FFD93F" d="M90.061,49.216"/>
			<path fill="#FFD93F" d="M89.93,52.073c-0.033-0.017-0.066-0.033-0.1-0.051c-0.547-0.297-0.771-1.167-0.926-1.768
				c-4.92-19.099,12.006-25.058,12.179-25.116c0.588-0.198,1.41-0.504,1.951-0.208c0.546,0.295,0.771,1.166,0.927,1.768
				c4.919,19.098-12.008,25.057-12.18,25.115C91.23,51.999,90.455,52.323,89.93,52.073z"/>
		</g>
		<g>
			<path fill="#FFCE09" d="M90.061,49.216"/>
			<path fill="#FFCE09" d="M89.93,52.073c-0.033-0.017-0.066-0.033-0.1-0.051c-0.547-0.297-0.771-1.167-0.926-1.768
				c-4.92-19.099,12.006-25.058,12.179-25.116c0.588-0.198,1.41-0.504,1.951-0.208L89.93,52.073z"/>
		</g>
	</g>
	<g>
		<g>
			<path fill="#FFD93F" d="M29.325,108.926"/>
			<path fill="#FFD93F" d="M29.194,111.783c-0.033-0.017-0.066-0.033-0.1-0.051c-0.547-0.297-0.771-1.167-0.926-1.768
				c-4.92-19.099,12.006-25.058,12.179-25.116c0.588-0.198,1.41-0.504,1.951-0.208c0.546,0.295,0.771,1.166,0.927,1.768
				c4.919,19.098-12.008,25.057-12.18,25.115C30.494,111.709,29.719,112.033,29.194,111.783z"/>
		</g>
		<g>
			<path fill="#FFCE09" d="M29.325,108.926"/>
			<path fill="#FFCE09" d="M29.194,111.783c-0.033-0.017-0.066-0.033-0.1-0.051c-0.547-0.297-0.771-1.167-0.926-1.768
				c-4.92-19.099,12.006-25.058,12.179-25.116c0.588-0.198,1.41-0.504,1.951-0.208L29.194,111.783z"/>
		</g>
	</g>
	<g>
		<g>
			<path fill="#FFD93F" d="M74.198,24.853"/>
			<path fill="#FFD93F" d="M76.437,26.636c-0.033,0.018-0.066,0.034-0.1,0.05c-0.561,0.27-1.398-0.059-1.976-0.286
				C56.007,19.182,61.109,1.979,61.163,1.804c0.184-0.592,0.418-1.438,0.976-1.702c0.559-0.27,1.397,0.06,1.975,0.286
				C82.467,7.605,77.365,24.81,77.312,24.983C77.139,25.539,76.946,26.357,76.437,26.636z"/>
		</g>
		<g>
			<path fill="#FFCE09" d="M74.198,24.853"/>
			<path fill="#FFCE09" d="M76.437,26.636c-0.033,0.018-0.066,0.034-0.1,0.05c-0.561,0.27-1.398-0.059-1.976-0.286
				C56.007,19.182,61.109,1.979,61.163,1.804c0.184-0.592,0.418-1.438,0.976-1.702L76.437,26.636z"/>
		</g>
	</g>
	<g>
		<g>
			<path fill="#FFD93F" d="M13.726,87.818"/>
			<path fill="#FFD93F" d="M15.964,89.602c-0.033,0.018-0.066,0.034-0.1,0.05c-0.561,0.27-1.398-0.059-1.976-0.286
				C-4.465,82.147,0.637,64.944,0.691,64.77c0.184-0.592,0.418-1.438,0.976-1.702c0.559-0.27,1.397,0.06,1.975,0.286
				c18.353,7.218,13.251,24.422,13.198,24.596C16.667,88.505,16.474,89.323,15.964,89.602z"/>
		</g>
		<g>
			<path fill="#FFCE09" d="M13.726,87.818"/>
			<path fill="#FFCE09" d="M15.964,89.602c-0.033,0.018-0.066,0.034-0.1,0.05c-0.561,0.27-1.398-0.059-1.976-0.286
				C-4.465,82.147,0.637,64.944,0.691,64.77c0.184-0.592,0.418-1.438,0.976-1.702L15.964,89.602z"/>
		</g>
	</g>
	<g>
		<g>
			<path fill="#FFD93F" d="M73.415,98.196"/>
			<path fill="#FFD93F" d="M75.653,99.979c-0.033,0.018-0.066,0.034-0.1,0.05c-0.561,0.27-1.398-0.059-1.976-0.286
				C55.224,92.525,60.326,75.322,60.38,75.147c0.184-0.592,0.418-1.438,0.976-1.702c0.559-0.27,1.397,0.06,1.975,0.286
				c18.353,7.218,13.251,24.422,13.198,24.596C76.355,98.883,76.163,99.701,75.653,99.979z"/>
		</g>
		<g>
			<path fill="#FFCE09" d="M73.415,98.196"/>
			<path fill="#FFCE09" d="M75.653,99.979c-0.033,0.018-0.066,0.034-0.1,0.05c-0.561,0.27-1.398-0.059-1.976-0.286
				C55.224,92.525,60.326,75.322,60.38,75.147c0.184-0.592,0.418-1.438,0.976-1.702L75.653,99.979z"/>
		</g>
	</g>
	<g>
		<g>
			<path fill="#FFD93F" d="M13.426,50.195"/>
			<path fill="#FFD93F" d="M14.179,52.956c-0.037-0.005-0.074-0.012-0.11-0.02c-0.611-0.113-1.094-0.873-1.425-1.397
				c-10.544-16.666,3.735-27.532,3.882-27.642c0.498-0.369,1.187-0.913,1.793-0.797c0.61,0.113,1.092,0.873,1.425,1.397
				c10.544,16.666-3.736,27.533-3.882,27.642C15.393,52.486,14.754,53.032,14.179,52.956z"/>
		</g>
		<g>
			<path fill="#FFCE09" d="M13.426,50.195"/>
			<path fill="#FFCE09" d="M14.179,52.956c-0.037-0.005-0.074-0.012-0.11-0.02c-0.611-0.113-1.094-0.873-1.425-1.397
				c-10.544-16.666,3.735-27.532,3.882-27.642c0.498-0.369,1.187-0.913,1.793-0.797L14.179,52.956z"/>
		</g>
	</g>
	<g>
		<g>
			<path fill="#FFD93F" d="M30.897,73.344"/>
			<path fill="#FFD93F" d="M29.857,76.01c-0.026-0.026-0.053-0.053-0.078-0.08c-0.423-0.456-0.357-1.354-0.311-1.973
				C30.929,54.29,48.872,54.071,49.054,54.07c0.62,0.001,1.497-0.025,1.916,0.428c0.422,0.455,0.356,1.353,0.311,1.972
				c-1.462,19.667-19.405,19.887-19.586,19.888C31.111,76.356,30.273,76.415,29.857,76.01z"/>
		</g>
		<g>
			<path fill="#FFCE09" d="M30.897,73.344"/>
			<path fill="#FFCE09" d="M29.857,76.01c-0.026-0.026-0.053-0.053-0.078-0.08c-0.423-0.456-0.357-1.354-0.311-1.973
				C30.929,54.29,48.872,54.071,49.054,54.07c0.62,0.001,1.497-0.025,1.916,0.428L29.857,76.01z"/>
		</g>
	</g>
</g>
</svg>
