<?xml version="1.0" encoding="utf-8"?>
<!-- Generator: Adobe Illustrator 15.0.2, SVG Export Plug-In . SVG Version: 6.00 Build 0)  -->
<!DOCTYPE svg PUBLIC "-//W3C//DTD SVG 1.1//EN" "http://www.w3.org/Graphics/SVG/1.1/DTD/svg11.dtd">
<svg version="1.1" id="Lager_1" xmlns="http://www.w3.org/2000/svg" xmlns:xlink="http://www.w3.org/1999/xlink" x="0px" y="0px"
	 width="208.333px" height="274.161px" viewBox="0 0 208.333 274.161" enable-background="new 0 0 208.333 274.161"
	 xml:space="preserve">
<g>
	<g>
		<path fill="#F6F6F6" stroke="#F6F6F6" stroke-width="2" stroke-miterlimit="10" d="M8.39,67.321H1.058V33.755
			c0-15.095,12.279-27.375,27.374-27.375v7.333c-11.051,0-20.042,8.991-20.042,20.042V67.321z"/>
		
			<rect x="51.637" y="2.687" fill="#E74D3D" stroke="#E74D3D" stroke-width="5.3737" stroke-linecap="round" stroke-linejoin="round" stroke-miterlimit="10" width="139.113" height="255.498"/>
		
			<rect x="36.74" y="258.185" fill="#D9DADB" stroke="#D9DADB" stroke-width="5.3737" stroke-linecap="round" stroke-linejoin="round" stroke-miterlimit="10" width="168.906" height="13.289"/>
		<g>
			<path fill="#BF392A" d="M121.193,0h69.557c1.485,0,2.687,1.203,2.687,2.687v252.758h-72.243V2.687"/>
		</g>
		<rect x="68.8" y="13.462" fill="#FFFFFF" width="104.786" height="75.306"/>
		<rect x="121.193" y="13.462" fill="#F6F6F6" width="52.393" height="75.306"/>
		<path fill="#3E3D40" d="M21.826,235.559h-1.945c-10.945,0-19.85-8.905-19.85-19.851V96.891h10.747v118.817
			c0,5.02,4.083,9.103,9.103,9.103h1.945c5.02,0,9.103-4.083,9.103-9.103V109.97c0-2.968,2.406-5.374,5.374-5.374h12.69v10.747
			h-7.317v101.332c0,0.356-0.035,0.704-0.101,1.041C40.566,227.723,32.094,235.559,21.826,235.559z"/>
		<path fill="#3E3D40" stroke="#3E3D40" stroke-miterlimit="10" d="M0.5,60.127v34.829v3.56h11.522h1.314h0.209
			c8.824,0,15.736-6.615,15.736-15.059V68.803v-4.955v-3.763c0-1.966-1.595-3.56-3.561-3.56H0.5V60.127z M23.421,69.453v14.003
			c0,4.89-3.916,8.731-9.039,9.121h-3.772V69.412L23.421,69.453z"/>
		<g>
			<g>
				<g>
					<path fill="#54B06F" d="M152.384,50.173c-2.368-0.04-16.213-0.077-20.688-2.192c-11.019-5.202-11.019-22.285-11.019-22.285
						s23.4-2.576,26.394,14.661c1.166,6.744,1.206,6.39,5.569,7.035h5.117v2.782H152.384z"/>
				</g>
			</g>
			<g>
				<g>
					<path fill="#46A360" d="M143.299,52.686c-2.365,0.034-16.209,0.077-20.684,2.187c-11.021,5.208-11.021,22.291-11.021,22.291
						s23.399,2.576,26.392-14.665c1.172-6.744,1.212-6.384,5.571-7.037h14.2v-2.776H143.299z"/>
				</g>
				<g>
					<path fill="#46A360" d="M139.158,52.763c-5.148,0.138-13.303,0.583-16.543,2.11c-11.021,5.208-11.021,22.291-11.021,22.291"/>
				</g>
			</g>
			<g>
				<g>
					<path fill="#54B06F" d="M115.431,48.947c-2.363,0.034-16.207,0.077-20.682,2.187c-11.021,5.21-11.021,22.293-11.021,22.293
						s23.398,2.574,26.39-14.667c1.175-6.744,1.212-6.384,5.572-7.037h10.679v-2.776H115.431z"/>
				</g>
				<g>
					<path fill="#54B06F" d="M111.292,49.024c-5.146,0.138-13.302,0.583-16.543,2.109c-11.021,5.21-11.021,22.293-11.021,22.293"/>
				</g>
			</g>
		</g>
	</g>
</g>
</svg>
