<?xml version="1.0" encoding="utf-8"?>
<!-- Generator: Adobe Illustrator 15.0.2, SVG Export Plug-In . SVG Version: 6.00 Build 0)  -->
<!DOCTYPE svg PUBLIC "-//W3C//DTD SVG 1.1//EN" "http://www.w3.org/Graphics/SVG/1.1/DTD/svg11.dtd">
<svg version="1.1" id="Lager_1" xmlns="http://www.w3.org/2000/svg" xmlns:xlink="http://www.w3.org/1999/xlink" x="0px" y="0px"
	 width="367.268px" height="274.844px" viewBox="0 0 367.268 274.844" enable-background="new 0 0 367.268 274.844"
	 xml:space="preserve">
<g>
	<g>
		<path fill="#F6F6F6" stroke="#F6F6F6" stroke-width="2" stroke-miterlimit="10" d="M8.39,67.321H1.058V33.755
			c0-15.095,12.279-27.375,27.374-27.375v7.333c-11.051,0-20.042,8.991-20.042,20.042V67.321z"/>
		
			<rect x="51.637" y="2.687" fill="#E74D3D" stroke="#E74D3D" stroke-width="5.3737" stroke-linecap="round" stroke-linejoin="round" stroke-miterlimit="10" width="139.113" height="255.498"/>
		
			<rect x="36.74" y="258.185" fill="#D9DADB" stroke="#D9DADB" stroke-width="5.3737" stroke-linecap="round" stroke-linejoin="round" stroke-miterlimit="10" width="168.906" height="13.289"/>
		<g>
			<path fill="#BF392A" d="M121.193,0h69.557c1.485,0,2.687,1.203,2.687,2.687v252.758h-72.243V2.687"/>
		</g>
		<rect x="68.8" y="13.462" fill="#FFFFFF" width="104.786" height="75.306"/>
		<rect x="121.193" y="13.462" fill="#F6F6F6" width="52.393" height="75.306"/>
		<path fill="#3E3D40" d="M21.826,235.559h-1.945c-10.945,0-19.85-8.905-19.85-19.851V96.891h10.747v118.817
			c0,5.02,4.083,9.103,9.103,9.103h1.945c5.02,0,9.103-4.083,9.103-9.103V109.97c0-2.968,2.406-5.374,5.374-5.374h12.69v10.747
			h-7.317v101.332c0,0.356-0.035,0.704-0.101,1.041C40.566,227.723,32.094,235.559,21.826,235.559z"/>
		<path fill="#3E3D40" stroke="#3E3D40" stroke-miterlimit="10" d="M0.5,60.127v34.829v3.56h11.522h1.314h0.209
			c8.824,0,15.736-6.615,15.736-15.059V68.803v-4.955v-3.763c0-1.966-1.595-3.56-3.561-3.56H0.5V60.127z M23.421,69.453v14.003
			c0,4.89-3.916,8.731-9.039,9.121h-3.772V69.412L23.421,69.453z"/>
		<g>
			<g>
				<g>
					<path fill="#54B06F" d="M152.384,50.173c-2.368-0.04-16.213-0.077-20.688-2.192c-11.019-5.202-11.019-22.285-11.019-22.285
						s23.4-2.576,26.394,14.661c1.166,6.744,1.206,6.39,5.569,7.035h5.117v2.782H152.384z"/>
				</g>
			</g>
			<g>
				<g>
					<path fill="#46A360" d="M143.299,52.686c-2.365,0.034-16.209,0.077-20.684,2.187c-11.021,5.208-11.021,22.291-11.021,22.291
						s23.399,2.576,26.392-14.665c1.172-6.744,1.212-6.384,5.571-7.037h14.2v-2.776H143.299z"/>
				</g>
				<g>
					<path fill="#46A360" d="M139.158,52.763c-5.148,0.138-13.303,0.583-16.543,2.11c-11.021,5.208-11.021,22.291-11.021,22.291"/>
				</g>
			</g>
			<g>
				<g>
					<path fill="#54B06F" d="M115.431,48.947c-2.363,0.034-16.207,0.077-20.682,2.187c-11.021,5.21-11.021,22.293-11.021,22.293
						s23.398,2.574,26.39-14.667c1.175-6.744,1.212-6.384,5.572-7.037h10.679v-2.776H115.431z"/>
				</g>
				<g>
					<path fill="#54B06F" d="M111.292,49.024c-5.146,0.138-13.302,0.583-16.543,2.109c-11.021,5.21-11.021,22.293-11.021,22.293"/>
				</g>
			</g>
		</g>
	</g>
	<g>
		
			<line fill="none" stroke="#707173" stroke-width="1.2909" stroke-linecap="round" stroke-miterlimit="10" x1="320.444" y1="230.42" x2="307.615" y2="230.42"/>
		<path fill="#F6F6F6" d="M367.268,255.183c0,10.859-8.803,19.661-19.662,19.661h-30.734c-10.857,0-19.66-8.802-19.66-19.661V20.522
			c0-10.859,8.803-19.662,19.66-19.662h30.734c10.859,0,19.662,8.803,19.662,19.662V255.183z"/>
		<g>
			<path fill="#FFFFFF" d="M338.479,230.443V26.086c0-3.446-2.793-6.24-6.238-6.24c-3.447,0-6.24,2.793-6.24,6.24v204.357
				c-4.282,2.249-7.208,6.73-7.208,11.903c0,7.427,6.021,13.445,13.448,13.445c7.425,0,13.444-6.019,13.444-13.445
				C345.686,237.173,342.762,232.692,338.479,230.443z"/>
			<path fill="#FFFFFF" d="M332.241,252.565c-5.635,0-10.22-4.583-10.22-10.219c0-3.805,2.1-7.272,5.479-9.048l1.729-0.906V26.086
				c0-1.662,1.35-3.012,3.013-3.012c1.66,0,3.011,1.351,3.011,3.012v206.306l1.727,0.906c3.381,1.775,5.48,5.243,5.48,9.048
				C342.459,247.982,337.876,252.565,332.241,252.565z"/>
			<path fill="#E74D3D" d="M335.252,121.622v110.771l1.727,0.906c3.381,1.775,5.48,5.243,5.48,9.048
				c0,5.636-4.583,10.219-10.218,10.219s-10.22-4.583-10.22-10.219c0-3.805,2.1-7.272,5.479-9.048l1.729-0.906V121.622H335.252z"/>
		</g>
		
			<line fill="none" stroke="#707173" stroke-width="1.0877" stroke-linecap="round" stroke-miterlimit="10" x1="320.444" y1="144.962" x2="307.754" y2="144.962"/>
		
			<line fill="none" stroke="#707173" stroke-width="0.5439" stroke-linecap="round" stroke-miterlimit="10" x1="320.444" y1="149.236" x2="314.47" y2="149.236"/>
		
			<line fill="none" stroke="#707173" stroke-width="0.5439" stroke-linecap="round" stroke-miterlimit="10" x1="320.444" y1="153.507" x2="314.47" y2="153.507"/>
		
			<line fill="none" stroke="#707173" stroke-width="0.5439" stroke-linecap="round" stroke-miterlimit="10" x1="320.444" y1="157.781" x2="314.47" y2="157.781"/>
		
			<line fill="none" stroke="#707173" stroke-width="0.5439" stroke-linecap="round" stroke-miterlimit="10" x1="320.444" y1="162.054" x2="314.47" y2="162.054"/>
		
			<line fill="none" stroke="#707173" stroke-width="1.0877" stroke-linecap="round" stroke-miterlimit="10" x1="320.444" y1="166.326" x2="311.336" y2="166.326"/>
		
			<line fill="none" stroke="#707173" stroke-width="0.5439" stroke-linecap="round" stroke-miterlimit="10" x1="320.444" y1="170.6" x2="314.47" y2="170.6"/>
		
			<line fill="none" stroke="#707173" stroke-width="0.5439" stroke-linecap="round" stroke-miterlimit="10" x1="320.444" y1="174.874" x2="314.47" y2="174.874"/>
		
			<line fill="none" stroke="#707173" stroke-width="0.5439" stroke-linecap="round" stroke-miterlimit="10" x1="320.444" y1="179.145" x2="314.47" y2="179.145"/>
		
			<line fill="none" stroke="#707173" stroke-width="0.5439" stroke-linecap="round" stroke-miterlimit="10" x1="320.444" y1="183.418" x2="314.47" y2="183.418"/>
		
			<line fill="none" stroke="#707173" stroke-width="1.0877" stroke-linecap="round" stroke-miterlimit="10" x1="320.444" y1="187.692" x2="311.336" y2="187.692"/>
		
			<line fill="none" stroke="#707173" stroke-width="0.5439" stroke-linecap="round" stroke-miterlimit="10" x1="320.444" y1="191.964" x2="314.47" y2="191.964"/>
		
			<line fill="none" stroke="#707173" stroke-width="0.5439" stroke-linecap="round" stroke-miterlimit="10" x1="320.444" y1="196.238" x2="314.47" y2="196.238"/>
		
			<line fill="none" stroke="#707173" stroke-width="0.5439" stroke-linecap="round" stroke-miterlimit="10" x1="320.444" y1="200.51" x2="314.47" y2="200.51"/>
		
			<line fill="none" stroke="#707173" stroke-width="0.5439" stroke-linecap="round" stroke-miterlimit="10" x1="320.444" y1="204.784" x2="314.47" y2="204.784"/>
		
			<line fill="none" stroke="#707173" stroke-width="1.0877" stroke-linecap="round" stroke-miterlimit="10" x1="320.444" y1="209.055" x2="311.336" y2="209.055"/>
		
			<line fill="none" stroke="#707173" stroke-width="0.5439" stroke-linecap="round" stroke-miterlimit="10" x1="320.444" y1="213.329" x2="314.47" y2="213.329"/>
		
			<line fill="none" stroke="#707173" stroke-width="0.5439" stroke-linecap="round" stroke-miterlimit="10" x1="320.444" y1="217.603" x2="314.47" y2="217.603"/>
		
			<line fill="none" stroke="#707173" stroke-width="0.5439" stroke-linecap="round" stroke-miterlimit="10" x1="320.444" y1="221.874" x2="314.47" y2="221.874"/>
		
			<line fill="none" stroke="#707173" stroke-width="0.5439" stroke-linecap="round" stroke-miterlimit="10" x1="320.444" y1="226.148" x2="314.47" y2="226.148"/>
		
			<line fill="none" stroke="#707173" stroke-width="1.0877" stroke-linecap="round" stroke-miterlimit="10" x1="320.444" y1="59.217" x2="311.336" y2="59.217"/>
		
			<line fill="none" stroke="#707173" stroke-width="0.5439" stroke-linecap="round" stroke-miterlimit="10" x1="320.444" y1="63.49" x2="314.47" y2="63.49"/>
		
			<line fill="none" stroke="#707173" stroke-width="0.5439" stroke-linecap="round" stroke-miterlimit="10" x1="320.444" y1="67.762" x2="314.47" y2="67.762"/>
		
			<line fill="none" stroke="#707173" stroke-width="0.5439" stroke-linecap="round" stroke-miterlimit="10" x1="320.444" y1="72.036" x2="314.47" y2="72.036"/>
		
			<line fill="none" stroke="#707173" stroke-width="0.5439" stroke-linecap="round" stroke-miterlimit="10" x1="320.444" y1="76.308" x2="314.47" y2="76.308"/>
		
			<line fill="none" stroke="#707173" stroke-width="1.0877" stroke-linecap="round" stroke-miterlimit="10" x1="320.444" y1="37.937" x2="311.336" y2="37.937"/>
		
			<line fill="none" stroke="#707173" stroke-width="0.5439" stroke-linecap="round" stroke-miterlimit="10" x1="320.444" y1="42.21" x2="314.47" y2="42.21"/>
		
			<line fill="none" stroke="#707173" stroke-width="0.5439" stroke-linecap="round" stroke-miterlimit="10" x1="320.444" y1="46.482" x2="314.47" y2="46.482"/>
		
			<line fill="none" stroke="#707173" stroke-width="0.5439" stroke-linecap="round" stroke-miterlimit="10" x1="320.444" y1="50.755" x2="314.47" y2="50.755"/>
		
			<line fill="none" stroke="#707173" stroke-width="0.5439" stroke-linecap="round" stroke-miterlimit="10" x1="320.444" y1="55.028" x2="314.47" y2="55.028"/>
		
			<line fill="none" stroke="#707173" stroke-width="1.0877" stroke-linecap="round" stroke-miterlimit="10" x1="320.444" y1="80.581" x2="311.336" y2="80.581"/>
		
			<line fill="none" stroke="#707173" stroke-width="0.5439" stroke-linecap="round" stroke-miterlimit="10" x1="320.444" y1="84.854" x2="314.47" y2="84.854"/>
		
			<line fill="none" stroke="#707173" stroke-width="0.5439" stroke-linecap="round" stroke-miterlimit="10" x1="320.444" y1="89.127" x2="314.47" y2="89.127"/>
		
			<line fill="none" stroke="#707173" stroke-width="0.5439" stroke-linecap="round" stroke-miterlimit="10" x1="320.444" y1="93.399" x2="314.47" y2="93.399"/>
		
			<line fill="none" stroke="#707173" stroke-width="0.5439" stroke-linecap="round" stroke-miterlimit="10" x1="320.444" y1="97.673" x2="314.47" y2="97.673"/>
		
			<line fill="none" stroke="#707173" stroke-width="1.0877" stroke-linecap="round" stroke-miterlimit="10" x1="320.444" y1="101.945" x2="311.336" y2="101.945"/>
		
			<line fill="none" stroke="#707173" stroke-width="0.5439" stroke-linecap="round" stroke-miterlimit="10" x1="320.444" y1="106.219" x2="314.47" y2="106.219"/>
		
			<line fill="none" stroke="#707173" stroke-width="0.5439" stroke-linecap="round" stroke-miterlimit="10" x1="320.444" y1="110.491" x2="314.47" y2="110.491"/>
		
			<line fill="none" stroke="#707173" stroke-width="0.5439" stroke-linecap="round" stroke-miterlimit="10" x1="320.444" y1="114.764" x2="314.47" y2="114.764"/>
		
			<line fill="none" stroke="#707173" stroke-width="0.5439" stroke-linecap="round" stroke-miterlimit="10" x1="320.444" y1="119.036" x2="314.47" y2="119.036"/>
		
			<line fill="none" stroke="#707173" stroke-width="1.0877" stroke-linecap="round" stroke-miterlimit="10" x1="320.444" y1="123.31" x2="311.336" y2="123.31"/>
		
			<line fill="none" stroke="#707173" stroke-width="0.5439" stroke-linecap="round" stroke-miterlimit="10" x1="320.444" y1="127.582" x2="314.47" y2="127.582"/>
		
			<line fill="none" stroke="#707173" stroke-width="0.5439" stroke-linecap="round" stroke-miterlimit="10" x1="320.444" y1="131.854" x2="314.47" y2="131.854"/>
		
			<line fill="none" stroke="#707173" stroke-width="0.5439" stroke-linecap="round" stroke-miterlimit="10" x1="320.444" y1="136.129" x2="314.47" y2="136.129"/>
		
			<line fill="none" stroke="#707173" stroke-width="0.5439" stroke-linecap="round" stroke-miterlimit="10" x1="320.444" y1="140.402" x2="314.47" y2="140.402"/>
	</g>
	<g>
		<g>
			<path fill="#3E3D40" d="M273.902,125.195h-20.088v20.589h-4.65v-20.589h-20.209v-4.643h20.209v-19.716h4.65v19.716h20.088
				V125.195z"/>
			<path fill="#3E3D40" d="M254.314,146.284h-5.65v-20.589h-20.209v-5.643h20.209v-19.716h5.65v19.716h20.088v5.643h-20.088V146.284
				z M249.664,145.284h3.65v-20.589h20.088v-3.643h-20.088v-19.716h-3.65v19.716h-20.209v3.643h20.209V145.284z"/>
		</g>
	</g>
</g>
</svg>
