<?xml version="1.0" encoding="utf-8"?>
<!-- Generator: Adobe Illustrator 15.0.2, SVG Export Plug-In . SVG Version: 6.00 Build 0)  -->
<!DOCTYPE svg PUBLIC "-//W3C//DTD SVG 1.1//EN" "http://www.w3.org/Graphics/SVG/1.1/DTD/svg11.dtd">
<svg version="1.1" id="Fiskben" xmlns="http://www.w3.org/2000/svg" xmlns:xlink="http://www.w3.org/1999/xlink" x="0px" y="0px"
	 width="233.898px" height="134.911px" viewBox="0 0 233.898 134.911" enable-background="new 0 0 233.898 134.911"
	 xml:space="preserve">
<g>
	<g>
		
			<path fill="none" stroke="#FFFFFF" stroke-width="4.6247" stroke-linecap="round" stroke-linejoin="round" stroke-miterlimit="10" d="
			M90.069,17.209c0,0-0.993,45.285,23.799,83.189"/>
	</g>
	<g>
		
			<path fill="none" stroke="#FFFFFF" stroke-width="4.6247" stroke-linecap="round" stroke-linejoin="round" stroke-miterlimit="10" d="
			M122.05,16.588c0,0-1.906,36.484,15.572,68.571"/>
	</g>
	<g>
		
			<path fill="none" stroke="#FFFFFF" stroke-width="4.6247" stroke-linecap="round" stroke-linejoin="round" stroke-miterlimit="10" d="
			M155.807,22.942c0,0-2.473,26.778,9.443,50.888"/>
	</g>
	<g>
		
			<path fill="none" stroke="#FFFFFF" stroke-width="4.6247" stroke-linecap="round" stroke-linejoin="round" stroke-miterlimit="10" d="
			M51.034,91.86c19.951-28.42,69.371-46.396,123.994-46.396"/>
	</g>
	<g>
		
			<path fill="#FFFFFF" stroke="#FFFFFF" stroke-width="4.6247" stroke-linecap="round" stroke-linejoin="round" stroke-miterlimit="10" d="
			M58.334,12.099c0,0-57.688,27.588-55.985,85.957c34.974,46.77,97.305,32.49,97.305,32.49
			C60.939,77.616,58.334,12.099,58.334,12.099z"/>
	</g>
	<g>
		
			<path fill="#FFFFFF" stroke="#FFFFFF" stroke-width="4.6247" stroke-linecap="round" stroke-linejoin="round" stroke-miterlimit="10" d="
			M172.44,45.668c54.579,2.261,56.292-42.489,56.292-42.489S185.228-7.439,172.44,45.668z"/>
	</g>
	<path fill="#ECECED" d="M233.885,84.42c-0.081-0.739-2.144-18.27-17.145-30.293c-11.033-8.843-26.019-12.277-44.536-10.208
		c0,0-1.017,0.074-1.639,0.35c-0.622,0.276-0.485,1.506-0.502,1.746s0.192,0.899,0.192,0.899
		c14.648,46.333,49.244,42.789,59.497,40.6c1.573-0.336,2.498-0.629,2.537-0.642C233.337,86.538,234.003,85.513,233.885,84.42z"/>
	<path fill="#ECECED" d="M101.52,129.181c-11.374-15.552-20.717-33.758-27.77-54.114l-0.659-2.187L2.75,97.393L0.101,98.41
		c0,0,0.062,0.625,0.219,0.781s1.372,1.81,1.372,1.81c21.937,28.027,53.421,33.91,75.971,33.91c13.139,0,22.131-2.025,22.508-2.111
		c0.758-0.174,1.379-0.717,1.65-1.445C102.092,130.625,101.979,129.809,101.52,129.181z"/>
	<circle fill="#C5C6C8" cx="35.013" cy="64.433" r="11.255"/>
</g>
</svg>
