<?xml version="1.0" encoding="utf-8"?>
<!-- Generator: Adobe Illustrator 15.0.2, SVG Export Plug-In . SVG Version: 6.00 Build 0)  -->
<!DOCTYPE svg PUBLIC "-//W3C//DTD SVG 1.1//EN" "http://www.w3.org/Graphics/SVG/1.1/DTD/svg11.dtd">
<svg version="1.1" id="Lager_1" xmlns="http://www.w3.org/2000/svg" xmlns:xlink="http://www.w3.org/1999/xlink" x="0px" y="0px"
	 width="235.42px" height="151.286px" viewBox="0 0 235.42 151.286" enable-background="new 0 0 235.42 151.286"
	 xml:space="preserve">
<g>
	<path opacity="0.8" fill="#B19A7E" d="M201.656,37.004c-3.584-0.397-7.101-0.248-10.483,0.321
		c-4.865-16.476-19.202-29.262-37.345-31.273c-13.586-1.507-26.42,3.356-35.513,12.201C110.367,8.543,98.777,1.8,85.314,0.308
		C58.006-2.721,33.415,16.961,30.39,44.272c-0.287,2.589-0.309,5.141-0.2,7.667C14.562,55.201,2.086,68.157,0.234,84.891
		c-2.31,20.826,12.704,39.58,33.53,41.884c8.443,0.938,16.522-1.008,23.325-5c5.316,15.473,19.104,27.324,36.44,29.242
		c18.301,2.027,35.18-7.589,43.322-22.913c6.001,9.033,15.811,15.445,27.43,16.737c20.715,2.293,39.37-12.556,41.836-33.218
		c15.204-3.564,27.248-16.322,29.068-32.73C237.499,58.067,222.478,39.31,201.656,37.004z"/>
	<g>
		
			<path fill="#41281B" stroke="#41281B" stroke-width="2.0427" stroke-linecap="round" stroke-linejoin="round" stroke-miterlimit="10" d="
			M60.227,94.192c0,0,6.613,0.244,12.435-4.397c12.917-11.736,3.183-25.837,3.183-25.837L60.227,38.579L44.61,63.958
			c0,0-9.732,14.101,3.185,25.837C53.618,94.437,60.227,94.192,60.227,94.192z"/>
	</g>
	<g>
		
			<path fill="#41281B" stroke="#41281B" stroke-width="1.1534" stroke-linecap="round" stroke-linejoin="round" stroke-miterlimit="10" d="
			M102.375,70.255c0,0,3.733,0.138,7.022-2.482c7.294-6.627,1.796-14.589,1.796-14.589l-8.818-14.332l-8.818,14.332
			c0,0-5.496,7.962,1.798,14.589C98.643,70.394,102.375,70.255,102.375,70.255z"/>
	</g>
	<g>
		
			<path fill="#41281B" stroke="#41281B" stroke-width="1.2796" stroke-linecap="round" stroke-linejoin="round" stroke-miterlimit="10" d="
			M91.571,119.766c0,0,4.143,0.152,7.789-2.754c8.092-7.353,1.994-16.186,1.994-16.186l-9.783-15.899l-9.783,15.899
			c0,0-6.097,8.833,1.994,16.186C87.429,119.918,91.571,119.766,91.571,119.766z"/>
	</g>
	<g>
		
			<path fill="#1A171B" stroke="#1A171B" stroke-width="0.9636" stroke-linecap="round" stroke-linejoin="round" stroke-miterlimit="10" d="
			M123.071,76.571c0,0,21.248,7.936,22.017,7.68c0.768-0.256,12.8-12.032,12.8-12.032V57.115l-8.96-2.56l-8.447,4.096l-13.312,2.304
			L123.071,76.571z"/>
		
			<path fill="#1A171B" stroke="#1A171B" stroke-width="0.9636" stroke-linecap="round" stroke-linejoin="round" stroke-miterlimit="10" d="
			M166.477,66.387c0,0,7.051,12.578,7.729,13.019c0.68,0.44,17.389,2.5,17.389,2.5l11.807-9.421l-3.589-8.601l-8.47-4.048
			l-10.104-8.968L166.477,66.387z"/>
		
			<path fill="#1A171B" stroke="#1A171B" stroke-width="0.9636" stroke-linecap="round" stroke-linejoin="round" stroke-miterlimit="10" d="
			M148.015,99.777c0,0,7.051,12.579,7.729,13.019c0.68,0.439,17.39,2.5,17.39,2.5l11.807-9.422l-3.588-8.6l-8.616-7.877h-14.849
			L148.015,99.777z"/>
	</g>
</g>
</svg>
