<?xml version="1.0" encoding="utf-8"?>
<!-- Generator: Adobe Illustrator 15.0.2, SVG Export Plug-In . SVG Version: 6.00 Build 0)  -->
<!DOCTYPE svg PUBLIC "-//W3C//DTD SVG 1.1//EN" "http://www.w3.org/Graphics/SVG/1.1/DTD/svg11.dtd">
<svg version="1.1" id="Lager_1" xmlns="http://www.w3.org/2000/svg" xmlns:xlink="http://www.w3.org/1999/xlink" x="0px" y="0px"
	 width="164.707px" height="131.306px" viewBox="0 0 164.707 131.306" enable-background="new 0 0 164.707 131.306"
	 xml:space="preserve">
<g>
	<g>
		
			<path fill="#EFAB19" stroke="#EFAB19" stroke-width="0.979" stroke-linecap="round" stroke-linejoin="round" stroke-miterlimit="10" d="
			M156.166,100.974c-1.81,6.196-8.301,9.753-14.498,7.943l0,0c-6.196-1.809-9.752-8.299-7.942-14.497l7.579-25.955
			c1.81-6.196,8.3-9.752,14.496-7.942l0,0c6.197,1.809,9.756,8.299,7.943,14.497L156.166,100.974z"/>
		
			<path fill="#E49D11" stroke="#E49D11" stroke-width="0.979" stroke-linecap="round" stroke-linejoin="round" stroke-miterlimit="10" d="
			M155.8,60.523L155.8,60.523c-6.195-1.81-12.686,1.746-14.496,7.942l-7.579,25.955c-1.81,6.198,1.746,12.688,7.942,14.497l0,0
			L155.8,60.523z"/>
		<path fill="#EFAB19" d="M150.875,78.582l-7.153-5.344c-0.366-0.273-0.441-0.792-0.167-1.158c0.273-0.366,0.791-0.441,1.158-0.167
			l6.664,4.978"/>
		<path fill="#E49D11" d="M151.382,76.892l7.153,5.344c0.365,0.273,0.441,0.792,0.168,1.158s-0.791,0.441-1.158,0.167l-6.664-4.979"
			/>
		<path fill="#EFAB19" d="M148.808,85.66l-7.153-5.344c-0.365-0.273-0.441-0.792-0.167-1.158c0.273-0.367,0.791-0.441,1.158-0.168
			l6.664,4.979"/>
		<path fill="#E49D11" d="M149.315,83.971l7.154,5.344c0.365,0.273,0.441,0.792,0.167,1.158c-0.273,0.366-0.79,0.441-1.158,0.167
			l-6.664-4.979"/>
		<path fill="#EFAB19" d="M146.741,92.739l-7.154-5.345c-0.366-0.272-0.441-0.791-0.167-1.157c0.273-0.367,0.791-0.441,1.157-0.168
			l6.665,4.978"/>
		<path fill="#E49D11" d="M147.248,91.049l7.154,5.344c0.365,0.273,0.441,0.793,0.168,1.158c-0.274,0.367-0.792,0.44-1.159,0.168
			l-6.664-4.979"/>
	</g>
	<g>
		
			<path fill="#EFAB19" stroke="#EFAB19" stroke-width="0.979" stroke-linecap="round" stroke-linejoin="round" stroke-miterlimit="10" d="
			M31.125,41.811c2.681,5.023,0.781,11.27-4.243,13.951l0,0c-5.022,2.681-11.268,0.781-13.949-4.243L1.705,30.478
			c-2.68-5.023-0.781-11.269,4.242-13.948l0,0c5.023-2.682,11.27-0.784,13.949,4.242L31.125,41.811z"/>
		
			<path fill="#E49D11" stroke="#E49D11" stroke-width="0.979" stroke-linecap="round" stroke-linejoin="round" stroke-miterlimit="10" d="
			M5.947,16.53L5.947,16.53c-5.023,2.68-6.922,8.925-4.242,13.948l11.228,21.04c2.682,5.024,8.927,6.924,13.949,4.243l0,0
			L5.947,16.53z"/>
		<path fill="#EFAB19" d="M13.979,30.955l-7.807,1.042C5.773,32.05,5.405,31.77,5.353,31.37c-0.054-0.399,0.227-0.766,0.627-0.818
			l7.272-0.972"/>
		<path fill="#E49D11" d="M13.257,29.576l7.807-1.042c0.398-0.053,0.767,0.227,0.82,0.626c0.054,0.4-0.227,0.767-0.627,0.821
			l-7.273,0.971"/>
		<path fill="#EFAB19" d="M17.042,36.693l-7.807,1.042c-0.398,0.053-0.767-0.228-0.819-0.626c-0.055-0.4,0.226-0.766,0.626-0.821
			l7.272-0.971"/>
		<path fill="#E49D11" d="M16.319,35.314l7.806-1.042c0.399-0.053,0.767,0.228,0.82,0.627c0.054,0.4-0.226,0.766-0.627,0.819
			l-7.272,0.971"/>
		<path fill="#EFAB19" d="M20.104,42.431l-7.808,1.042c-0.398,0.053-0.766-0.227-0.819-0.627c-0.054-0.399,0.226-0.766,0.626-0.819
			l7.271-0.972"/>
		<path fill="#E49D11" d="M19.381,41.053l7.807-1.042c0.399-0.053,0.767,0.228,0.82,0.626c0.053,0.4-0.228,0.766-0.628,0.821
			l-7.272,0.97"/>
	</g>
	<g>
		
			<path fill="#FBD15A" stroke="#FBD15A" stroke-width="0.979" stroke-linecap="round" stroke-linejoin="round" stroke-miterlimit="10" d="
			M48.854,110.251c4.705,4.704,4.704,12.333,0,17.037l0,0c-4.704,4.703-12.331,4.703-17.036-0.001l-19.704-19.704
			c-4.705-4.704-4.705-12.332,0-17.035l0,0c4.704-4.704,12.333-4.705,17.037-0.002L48.854,110.251z"/>
		<path fill="#F8B81E" stroke="#F8B81E" stroke-width="0.979" stroke-miterlimit="10" d="M12.112,90.548L12.112,90.548
			c-4.704,4.703-4.705,12.331,0,17.035l19.704,19.705c4.705,4.704,12.332,4.704,17.036,0l0,0L12.112,90.548L12.112,90.548z"/>
		<g>
			<g>
				<path fill="#FBD15A" d="M25.995,103.943l-8.373,3.818c-0.428,0.195-0.934,0.007-1.13-0.423
					c-0.195-0.428-0.006-0.933,0.422-1.128l7.8-3.559"/>
				<path fill="#F8B81E" d="M24.719,102.647l8.372-3.818c0.428-0.195,0.935-0.007,1.13,0.422c0.195,0.43,0.006,0.934-0.423,1.13
					L26,103.938"/>
			</g>
			<g>
				<path fill="#FBD15A" d="M31.369,109.318l-8.373,3.817c-0.428,0.195-0.934,0.007-1.129-0.422s-0.007-0.934,0.422-1.129l7.8-3.558
					"/>
				<path fill="#F8B81E" d="M30.094,108.021l8.373-3.818c0.428-0.195,0.934-0.007,1.129,0.423c0.195,0.428,0.007,0.934-0.423,1.129
					l-7.799,3.558"/>
			</g>
			<g>
				<path fill="#FBD15A" d="M36.743,114.692l-8.373,3.818c-0.428,0.195-0.934,0.006-1.13-0.422c-0.195-0.43-0.006-0.934,0.422-1.131
					l7.8-3.557"/>
				<path fill="#F8B81E" d="M35.468,113.396l8.372-3.818c0.429-0.195,0.935-0.007,1.13,0.422c0.195,0.43,0.006,0.934-0.423,1.131
					l-7.799,3.557"/>
			</g>
		</g>
	</g>
	<g>
		
			<path fill="#FBD15A" stroke="#FBD15A" stroke-width="0.979" stroke-linecap="round" stroke-linejoin="round" stroke-miterlimit="10" d="
			M87.376,46.497c4.033-4.033,10.573-4.032,14.605,0l0,0c4.032,4.033,4.032,10.571,0,14.604L85.089,77.992
			c-4.033,4.033-10.572,4.033-14.604,0.001l0,0c-4.033-4.032-4.033-10.572-0.001-14.604L87.376,46.497z"/>
		<path fill="#F8B81E" stroke="#F8B81E" stroke-width="0.979" stroke-miterlimit="10" d="M70.486,77.993L70.486,77.993
			c4.032,4.032,10.571,4.033,14.604,0l16.892-16.891c4.033-4.033,4.033-10.572,0-14.604l0,0L70.486,77.993L70.486,77.993z"/>
		<g>
			<g>
				<path fill="#FBD15A" d="M81.969,66.092l3.273,7.177c0.167,0.368,0.006,0.802-0.363,0.969c-0.367,0.168-0.799,0.006-0.967-0.361
					l-3.05-6.687"/>
				<path fill="#F8B81E" d="M80.858,67.186l-3.273-7.177c-0.167-0.367-0.006-0.801,0.362-0.969c0.368-0.167,0.8-0.005,0.969,0.362
					l3.05,6.686"/>
			</g>
			<g>
				<path fill="#FBD15A" d="M86.577,61.485l3.272,7.177c0.167,0.367,0.006,0.801-0.362,0.969c-0.368,0.167-0.8,0.006-0.968-0.362
					l-3.05-6.687"/>
				<path fill="#F8B81E" d="M85.465,62.579l-3.273-7.178c-0.167-0.366-0.006-0.8,0.362-0.968c0.367-0.167,0.801-0.006,0.968,0.362
					l3.05,6.686"/>
			</g>
			<g>
				<path fill="#FBD15A" d="M91.184,56.878l3.273,7.177c0.167,0.367,0.005,0.801-0.361,0.969c-0.369,0.167-0.8,0.005-0.97-0.362
					l-3.049-6.686"/>
				<path fill="#F8B81E" d="M90.072,57.972l-3.273-7.177c-0.167-0.367-0.006-0.801,0.362-0.969c0.368-0.167,0.8-0.005,0.969,0.362
					l3.049,6.686"/>
			</g>
		</g>
	</g>
	<g>
		
			<path fill="#FBD15A" stroke="#FBD15A" stroke-width="0.979" stroke-linecap="round" stroke-linejoin="round" stroke-miterlimit="10" d="
			M121.976,11.929c-1.789-4.16,0.136-8.983,4.296-10.771l0,0c4.16-1.787,8.982,0.136,10.771,4.296l7.489,17.426
			c1.788,4.16-0.135,8.982-4.294,10.771l0,0c-4.16,1.788-8.983-0.135-10.771-4.294L121.976,11.929z"/>
		<path fill="#F8B81E" stroke="#F8B81E" stroke-width="0.979" stroke-miterlimit="10" d="M140.237,33.649L140.237,33.649
			c4.159-1.788,6.083-6.61,4.295-10.771l-7.489-17.426c-1.789-4.161-6.611-6.083-10.771-4.295l0,0L140.237,33.649L140.237,33.649z"
			/>
		<g>
			<g>
				<path fill="#FBD15A" d="M134.837,21.68l6.255-0.303c0.321-0.016,0.593,0.231,0.608,0.552c0.016,0.32-0.23,0.591-0.551,0.607
					l-5.829,0.282"/>
				<path fill="#F8B81E" d="M135.317,22.821l-6.255,0.303c-0.32,0.016-0.593-0.231-0.608-0.552c-0.015-0.32,0.231-0.591,0.552-0.608
					l5.829-0.283"/>
			</g>
			<g>
				<path fill="#FBD15A" d="M132.795,16.927l6.256-0.303c0.32-0.016,0.592,0.231,0.608,0.552c0.015,0.32-0.231,0.592-0.552,0.607
					l-5.828,0.283"/>
				<path fill="#F8B81E" d="M133.274,18.068l-6.257,0.303c-0.319,0.016-0.592-0.231-0.607-0.552
					c-0.016-0.32,0.231-0.593,0.552-0.608l5.828-0.282"/>
			</g>
			<g>
				<path fill="#FBD15A" d="M130.752,12.174l6.256-0.303c0.32-0.016,0.592,0.231,0.608,0.551c0.015,0.321-0.231,0.592-0.553,0.609
					l-5.827,0.282"/>
				<path fill="#F8B81E" d="M131.231,13.315l-6.256,0.304c-0.32,0.016-0.593-0.231-0.608-0.552s0.231-0.592,0.552-0.608l5.828-0.282
					"/>
			</g>
		</g>
	</g>
</g>
</svg>
