<?xml version="1.0" encoding="utf-8"?>
<!-- Generator: Adobe Illustrator 15.0.2, SVG Export Plug-In . SVG Version: 6.00 Build 0)  -->
<!DOCTYPE svg PUBLIC "-//W3C//DTD SVG 1.1//EN" "http://www.w3.org/Graphics/SVG/1.1/DTD/svg11.dtd">
<svg version="1.1" id="Lager_1" xmlns="http://www.w3.org/2000/svg" xmlns:xlink="http://www.w3.org/1999/xlink" x="0px" y="0px"
	 width="34.711px" height="73.727px" viewBox="0 0 34.711 73.727" enable-background="new 0 0 34.711 73.727" xml:space="preserve">
<g id="Lager_1_1_" display="none">
	
		<rect x="-153.527" y="-93.46" display="inline" fill="#786854" stroke="#786854" stroke-width="0.965" stroke-linecap="round" stroke-linejoin="round" stroke-miterlimit="10" width="563.958" height="405.076"/>
</g>
<g>
	
		<path fill="#FAD059" stroke="#FAD059" stroke-width="0.979" stroke-linecap="round" stroke-linejoin="round" stroke-miterlimit="10" d="
		M34.223,56.37c0,9.315-7.554,16.866-16.868,16.866l0,0c-9.314,0-16.865-7.551-16.865-16.866V17.355
		C0.49,8.041,8.041,0.49,17.355,0.49l0,0c9.314,0,16.868,7.551,16.868,16.865V56.37z"/>
	<path fill="#F7B719" stroke="#F7B719" stroke-width="0.979" stroke-miterlimit="10" d="M17.355,0.489L17.355,0.489
		C8.04,0.489,0.489,8.04,0.489,17.355V56.37c0,9.315,7.551,16.866,16.865,16.866l0,0L17.355,0.489L17.355,0.489z"/>
	<g>
		<g>
			<path fill="#FAD059" d="M17.836,27.495L5.767,22.986c-0.617-0.23-0.931-0.918-0.7-1.536s0.917-0.931,1.536-0.7l11.244,4.2"/>
			<path fill="#F7B719" d="M17.857,24.949l12.068,4.509c0.617,0.23,0.932,0.918,0.7,1.536s-0.917,0.931-1.536,0.7l-11.244-4.2"/>
		</g>
		<g>
			<path fill="#FAD059" d="M17.836,38.136l-12.069-4.51c-0.617-0.229-0.931-0.918-0.7-1.536c0.231-0.617,0.917-0.931,1.536-0.699
				l11.244,4.199"/>
			<path fill="#F7B719" d="M17.857,35.59l12.068,4.51c0.617,0.229,0.932,0.918,0.7,1.536c-0.231,0.617-0.917,0.931-1.536,0.699
				l-11.244-4.199"/>
		</g>
		<g>
			<path fill="#FAD059" d="M17.836,48.777L5.767,44.268c-0.617-0.23-0.931-0.918-0.7-1.536s0.917-0.931,1.536-0.7l11.244,4.2"/>
			<path fill="#F7B719" d="M17.857,46.231l12.068,4.509c0.617,0.23,0.932,0.918,0.7,1.536s-0.917,0.931-1.536,0.7l-11.244-4.2"/>
		</g>
	</g>
</g>
</svg>
