<?xml version="1.0" encoding="utf-8"?>
<!-- Generator: Adobe Illustrator 17.1.0, SVG Export Plug-In . SVG Version: 6.00 Build 0)  -->
<!DOCTYPE svg PUBLIC "-//W3C//DTD SVG 1.1//EN" "http://www.w3.org/Graphics/SVG/1.1/DTD/svg11.dtd">
<svg version="1.1" xmlns="http://www.w3.org/2000/svg" xmlns:xlink="http://www.w3.org/1999/xlink" x="0px" y="0px"
	 width="34.711px" height="73.726px" viewBox="0 0 34.711 73.726" enable-background="new 0 0 34.711 73.726" xml:space="preserve">
<g id="Lager_1" display="none">
	
		<rect x="-153.527" y="-93.46" display="inline" fill="#786854" stroke="#786854" stroke-width="0.965" stroke-linecap="round" stroke-linejoin="round" stroke-miterlimit="10" width="563.959" height="405.076"/>
</g>
<g id="Fralla">
	<g>
		
			<path fill="#FAD059" stroke="#FAD059" stroke-width="0.979" stroke-linecap="round" stroke-linejoin="round" stroke-miterlimit="10" d="
			M215.82,213.637c0,9.315-7.553,16.866-16.867,16.866l0,0c-9.314,0-16.865-7.551-16.865-16.866v-39.016
			c0-9.314,7.551-16.865,16.865-16.865l0,0c9.314,0,16.867,7.551,16.867,16.865V213.637z"/>
		<path fill="#F7B719" stroke="#F7B719" stroke-width="0.979" stroke-miterlimit="10" d="M198.953,157.757L198.953,157.757
			c-9.314,0-16.865,7.551-16.865,16.865v39.016c0,9.315,7.551,16.866,16.865,16.866l0,0V157.757z"/>
		<g>
			<g>
				<path fill="#FAD059" d="M199.434,184.762l-12.069-4.509c-0.617-0.23-0.931-0.918-0.7-1.536c0.23-0.618,0.917-0.931,1.536-0.7
					l11.244,4.2"/>
				<path fill="#F7B719" d="M199.455,182.217l12.069,4.509c0.617,0.23,0.931,0.918,0.7,1.536c-0.23,0.618-0.917,0.931-1.536,0.7
					l-11.244-4.2"/>
			</g>
			<g>
				<path fill="#FAD059" d="M199.434,195.403l-12.069-4.509c-0.617-0.23-0.931-0.918-0.7-1.536c0.23-0.618,0.917-0.931,1.536-0.7
					l11.244,4.2"/>
				<path fill="#F7B719" d="M199.455,192.857l12.069,4.509c0.617,0.23,0.931,0.918,0.7,1.536c-0.23,0.618-0.917,0.931-1.536,0.7
					l-11.244-4.2"/>
			</g>
			<g>
				<path fill="#FAD059" d="M199.434,206.044l-12.069-4.509c-0.617-0.23-0.931-0.918-0.7-1.536c0.23-0.618,0.917-0.931,1.536-0.7
					l11.244,4.2"/>
				<path fill="#F7B719" d="M199.455,203.498l12.069,4.509c0.617,0.23,0.931,0.918,0.7,1.536c-0.23,0.618-0.917,0.931-1.536,0.7
					l-11.244-4.2"/>
			</g>
		</g>
	</g>
	<g>
		
			<path fill="#FAD059" stroke="#FAD059" stroke-width="0.979" stroke-linecap="round" stroke-linejoin="round" stroke-miterlimit="10" d="
			M34.222,56.37c0,9.315-7.553,16.866-16.867,16.866l0,0c-9.314,0-16.865-7.551-16.865-16.866V17.355
			c0-9.314,7.551-16.865,16.865-16.865l0,0c9.314,0,16.867,7.551,16.867,16.865V56.37z"/>
		<path fill="#F7B719" stroke="#F7B719" stroke-width="0.979" stroke-miterlimit="10" d="M17.355,0.489L17.355,0.489
			C8.04,0.489,0.489,8.04,0.489,17.355V56.37c0,9.315,7.551,16.866,16.865,16.866l0,0V0.489z"/>
		<g>
			<g>
				<path fill="#FAD059" d="M17.836,27.495L5.767,22.986c-0.617-0.23-0.931-0.918-0.7-1.536c0.231-0.618,0.917-0.931,1.536-0.7
					l11.244,4.2"/>
				<path fill="#F7B719" d="M17.857,24.949l12.069,4.509c0.617,0.23,0.931,0.918,0.7,1.536c-0.231,0.618-0.917,0.931-1.536,0.7
					l-11.244-4.2"/>
			</g>
			<g>
				<path fill="#FAD059" d="M17.836,38.136L5.767,33.627c-0.617-0.23-0.931-0.918-0.7-1.536c0.231-0.618,0.917-0.931,1.536-0.7
					l11.244,4.2"/>
				<path fill="#F7B719" d="M17.857,35.59l12.069,4.509c0.617,0.23,0.931,0.918,0.7,1.536c-0.231,0.618-0.917,0.931-1.536,0.7
					l-11.244-4.2"/>
			</g>
			<g>
				<path fill="#FAD059" d="M17.836,48.777L5.767,44.268c-0.617-0.23-0.931-0.918-0.7-1.536c0.231-0.618,0.917-0.931,1.536-0.7
					l11.244,4.2"/>
				<path fill="#F7B719" d="M17.857,46.231l12.069,4.509c0.617,0.23,0.931,0.918,0.7,1.536c-0.231,0.618-0.917,0.931-1.536,0.7
					l-11.244-4.2"/>
			</g>
		</g>
	</g>
	<g>
		
			<path fill="#FAD059" stroke="#FAD059" stroke-width="0.979" stroke-linecap="round" stroke-linejoin="round" stroke-miterlimit="10" d="
			M113.569,146.256c4.421,8.199,1.357,18.43-6.841,22.851l0,0c-8.199,4.421-18.429,1.358-22.85-6.841l-18.518-34.342
			c-4.421-8.198-1.358-18.428,6.84-22.849l0,0c8.198-4.421,18.43-1.359,22.851,6.839L113.569,146.256z"/>
		<path fill="#F7B719" stroke="#F7B719" stroke-width="0.979" stroke-miterlimit="10" d="M72.201,105.075L72.201,105.075
			c-8.199,4.421-11.261,14.65-6.84,22.849l18.518,34.342c4.421,8.199,14.651,11.262,22.85,6.841l0,0L72.201,105.075z"/>
		<g>
			<g>
				<path fill="#FAD059" d="M85.442,128.617l-12.764,1.76c-0.652,0.09-1.255-0.366-1.345-1.02c-0.09-0.653,0.365-1.254,1.02-1.345
					l11.89-1.64"/>
				<path fill="#F7B719" d="M84.252,126.366l12.763-1.76c0.653-0.09,1.255,0.366,1.346,1.02c0.09,0.654-0.366,1.255-1.02,1.346
					l-11.891,1.64"/>
			</g>
			<g>
				<path fill="#FAD059" d="M90.492,137.982l-12.763,1.76c-0.652,0.09-1.255-0.366-1.345-1.02c-0.091-0.653,0.365-1.255,1.02-1.346
					l11.891-1.64"/>
				<path fill="#F7B719" d="M89.302,135.732l12.763-1.76c0.653-0.09,1.255,0.366,1.345,1.02c0.091,0.653-0.365,1.255-1.02,1.346
					l-11.891,1.64"/>
			</g>
			<g>
				<path fill="#FAD059" d="M95.542,147.348l-12.763,1.76c-0.653,0.09-1.255-0.366-1.345-1.02c-0.091-0.654,0.365-1.255,1.02-1.346
					l11.891-1.64"/>
				<path fill="#F7B719" d="M94.352,145.097l12.763-1.76c0.652-0.09,1.255,0.366,1.345,1.02c0.091,0.653-0.365,1.254-1.02,1.345
					l-11.891,1.64"/>
			</g>
		</g>
	</g>
	<g>
		
			<path fill="#FAD059" stroke="#FAD059" stroke-width="0.979" stroke-linecap="round" stroke-linejoin="round" stroke-miterlimit="10" d="
			M188.346,83.931c-4.2,8.314-14.346,11.648-22.659,7.449l0,0c-8.314-4.2-11.649-14.345-7.449-22.659l17.593-34.825
			c4.199-8.315,14.343-11.649,22.657-7.449l0,0c8.314,4.2,11.65,14.345,7.451,22.659L188.346,83.931z"/>
		<path fill="#F7B719" stroke="#F7B719" stroke-width="0.979" stroke-miterlimit="10" d="M198.488,26.448L198.488,26.448
			c-8.314-4.2-18.458-0.865-22.657,7.449l-17.593,34.825c-4.2,8.314-0.865,18.459,7.449,22.659l0,0L198.488,26.448z"/>
		<g>
			<g>
				<path fill="#FAD059" d="M186.741,50.77l-8.74-9.467c-0.446-0.484-0.417-1.239,0.068-1.686c0.484-0.448,1.238-0.418,1.687,0.068
					l8.143,8.819"/>
				<path fill="#F7B719" d="M187.907,48.506l8.74,9.467c0.447,0.484,0.417,1.238-0.067,1.687c-0.485,0.448-1.238,0.417-1.688-0.068
					l-8.143-8.819"/>
			</g>
			<g>
				<path fill="#FAD059" d="M181.943,60.267l-8.74-9.467c-0.446-0.484-0.416-1.238,0.068-1.687c0.484-0.448,1.238-0.417,1.686,0.067
					L183.1,58"/>
				<path fill="#F7B719" d="M183.109,58.005l8.74,9.466c0.447,0.485,0.417,1.239-0.068,1.686c-0.483,0.449-1.238,0.418-1.687-0.067
					l-8.143-8.819"/>
			</g>
			<g>
				<path fill="#FAD059" d="M177.145,69.765l-8.74-9.467c-0.446-0.484-0.416-1.239,0.067-1.687c0.486-0.448,1.239-0.417,1.688,0.067
					l8.143,8.819"/>
				<path fill="#F7B719" d="M178.312,67.501l8.739,9.466c0.446,0.484,0.418,1.24-0.068,1.688c-0.483,0.448-1.237,0.417-1.686-0.068
					l-8.143-8.819"/>
			</g>
		</g>
	</g>
</g>
<g id="alternativ">
	<g>
		<g>
			
				<path fill="#FAD059" stroke="#FAD059" stroke-width="0.979" stroke-linecap="round" stroke-linejoin="round" stroke-miterlimit="10" d="
				M755.896,177.263c0,9.315-7.553,16.866-16.867,16.866l0,0c-9.314,0-16.865-7.551-16.865-16.866v-39.016
				c0-9.314,7.551-16.865,16.865-16.865l0,0c9.315,0,16.867,7.551,16.867,16.865V177.263z"/>
			<path fill="#F7B719" stroke="#F7B719" stroke-width="0.979" stroke-miterlimit="10" d="M739.029,121.382L739.029,121.382
				c-9.314,0-16.865,7.551-16.865,16.865v39.016c0,9.315,7.551,16.866,16.865,16.866l0,0V121.382z"/>
		</g>
		<g>
			<g>
				<g>
					<path fill="#FAD059" d="M739.523,147.423h-10.199c-0.438,0-0.794-0.356-0.794-0.795c0-0.439,0.355-0.794,0.794-0.794h10.199"/>
				</g>
				<g>
					<path fill="#F7B719" d="M739.523,147.423h10.199c0.438,0,0.794-0.356,0.794-0.795c0-0.439-0.355-0.794-0.794-0.794h-10.199"/>
				</g>
			</g>
			<g>
				<g>
					<path fill="#FAD059" d="M739.523,158.551h-10.199c-0.438,0-0.794-0.355-0.794-0.795c0-0.439,0.355-0.795,0.794-0.795h10.199"/>
				</g>
				<g>
					<path fill="#F7B719" d="M739.523,158.551h10.199c0.438,0,0.794-0.355,0.794-0.795c0-0.439-0.355-0.795-0.794-0.795h-10.199"/>
				</g>
			</g>
			<g>
				<g>
					<path fill="#FAD059" d="M739.523,169.678h-10.199c-0.438,0-0.794-0.355-0.794-0.795c0-0.438,0.355-0.794,0.794-0.794h10.199"/>
				</g>
				<g>
					<path fill="#F7B719" d="M739.523,169.678h10.199c0.438,0,0.794-0.355,0.794-0.795c0-0.438-0.355-0.794-0.794-0.794h-10.199"/>
				</g>
			</g>
		</g>
	</g>
</g>
</svg>
