<?xml version="1.0" encoding="utf-8"?>
<!-- Generator: Adobe Illustrator 15.0.2, SVG Export Plug-In . SVG Version: 6.00 Build 0)  -->
<!DOCTYPE svg PUBLIC "-//W3C//DTD SVG 1.1//EN" "http://www.w3.org/Graphics/SVG/1.1/DTD/svg11.dtd">
<svg version="1.1" id="Lager_1" xmlns="http://www.w3.org/2000/svg" xmlns:xlink="http://www.w3.org/1999/xlink" x="0px" y="0px"
	 width="151.074px" height="142.324px" viewBox="0 0 151.074 142.324" enable-background="new 0 0 151.074 142.324"
	 xml:space="preserve">
<g>
	<g>
		
			<path fill="#EFAB19" stroke="#EFAB19" stroke-width="0.979" stroke-linecap="round" stroke-linejoin="round" stroke-miterlimit="10" d="
			M81.092,76.028c2.585,4.718,0.856,10.641-3.864,13.226l0,0c-4.717,2.587-10.638,0.856-13.224-3.863L53.176,65.627
			c-2.585-4.719-0.856-10.639,3.862-13.224l0,0c4.718-2.586,10.64-0.858,13.224,3.861L81.092,76.028z"/>
		
			<path fill="#E49D11" stroke="#E49D11" stroke-width="0.979" stroke-linecap="round" stroke-linejoin="round" stroke-miterlimit="10" d="
			M57.038,52.404L57.038,52.404c-4.718,2.584-6.447,8.505-3.862,13.224L64.004,85.39c2.586,4.72,8.507,6.45,13.224,3.863l0,0
			L57.038,52.404z"/>
		<path fill="#EFAB19" d="M64.776,65.949l-7.364,1.067c-0.377,0.054-0.727-0.207-0.781-0.583c-0.054-0.377,0.207-0.727,0.584-0.781
			l6.861-0.994"/>
		<path fill="#E49D11" d="M64.08,64.654l7.366-1.065c0.375-0.055,0.727,0.207,0.781,0.583c0.054,0.377-0.207,0.727-0.584,0.78
			l-6.861,0.995"/>
		<path fill="#EFAB19" d="M67.73,71.339l-7.365,1.065c-0.376,0.055-0.726-0.205-0.781-0.584c-0.054-0.376,0.206-0.726,0.584-0.78
			l6.861-0.994"/>
		<path fill="#E49D11" d="M67.034,70.044l7.365-1.067c0.376-0.054,0.727,0.207,0.782,0.585c0.054,0.377-0.206,0.726-0.584,0.78
			l-6.862,0.993"/>
		<path fill="#EFAB19" d="M70.685,76.73l-7.366,1.065c-0.375,0.056-0.725-0.205-0.781-0.584c-0.055-0.376,0.206-0.725,0.584-0.779
			l6.86-0.994"/>
		<path fill="#E49D11" d="M69.988,75.434l7.365-1.066c0.376-0.054,0.727,0.207,0.781,0.583c0.055,0.379-0.207,0.727-0.583,0.783
			l-6.862,0.992"/>
	</g>
	<g>
		
			<path fill="#EFAB19" stroke="#EFAB19" stroke-width="0.979" stroke-linecap="round" stroke-linejoin="round" stroke-miterlimit="10" d="
			M77.607,7.876c5.447,1.657,8.521,7.417,6.864,12.865l0,0c-1.655,5.447-7.415,8.52-12.864,6.863l-22.817-6.938
			c-5.447-1.657-8.521-7.416-6.863-12.862l0,0c1.656-5.449,7.415-8.523,12.863-6.864L77.607,7.876z"/>
		
			<path fill="#E49D11" stroke="#E49D11" stroke-width="0.979" stroke-linecap="round" stroke-linejoin="round" stroke-miterlimit="10" d="
			M41.927,7.804L41.927,7.804c-1.657,5.446,1.416,11.206,6.863,12.862l22.817,6.938c5.449,1.657,11.208-1.416,12.864-6.863l0,0
			L41.927,7.804z"/>
		<path fill="#EFAB19" d="M57.806,12.325l-4.784,6.257c-0.244,0.32-0.703,0.381-1.022,0.136c-0.321-0.244-0.381-0.702-0.135-1.022
			l4.455-5.83"/>
		<path fill="#E49D11" d="M56.321,11.86l4.783-6.257c0.245-0.319,0.703-0.382,1.022-0.137c0.321,0.245,0.382,0.702,0.137,1.023
			l-4.457,5.829"/>
		<path fill="#EFAB19" d="M64.029,14.216l-4.784,6.257c-0.244,0.319-0.703,0.381-1.022,0.136c-0.322-0.245-0.382-0.702-0.138-1.023
			l4.456-5.829"/>
		<path fill="#E49D11" d="M62.544,13.752l4.783-6.257c0.245-0.32,0.704-0.381,1.023-0.136c0.321,0.245,0.381,0.701,0.136,1.023
			l-4.456,5.829"/>
		<path fill="#EFAB19" d="M70.252,16.108l-4.784,6.258c-0.244,0.319-0.702,0.381-1.022,0.136c-0.321-0.244-0.382-0.701-0.137-1.022
			l4.455-5.829"/>
		<path fill="#E49D11" d="M68.767,15.645l4.783-6.257c0.245-0.32,0.704-0.381,1.023-0.137c0.321,0.246,0.381,0.703,0.137,1.024
			l-4.457,5.828"/>
	</g>
	<g>
		
			<path fill="#FBD15A" stroke="#FBD15A" stroke-width="0.979" stroke-linecap="round" stroke-linejoin="round" stroke-miterlimit="10" d="
			M138.537,43.735c6.653-0.001,12.047,5.395,12.047,12.047l0,0c0,6.651-5.394,12.045-12.047,12.045h-27.866
			c-6.653,0.001-12.046-5.394-12.046-12.045l0,0c0-6.653,5.394-12.047,12.045-12.048L138.537,43.735z"/>
		<path fill="#F8B81E" stroke="#F8B81E" stroke-width="0.979" stroke-miterlimit="10" d="M98.625,55.783L98.625,55.783
			c0,6.652,5.393,12.046,12.046,12.046l27.866,0.001c6.653-0.001,12.046-5.395,12.046-12.047l0,0H98.625L98.625,55.783z"/>
		<g>
			<g>
				<path fill="#FBD15A" d="M117.914,55.438l-3.22,8.621c-0.165,0.44-0.656,0.665-1.098,0.5c-0.44-0.164-0.664-0.655-0.499-1.097
					l3-8.032"/>
				<path fill="#F8B81E" d="M116.095,55.424l3.22-8.62c0.165-0.441,0.656-0.666,1.098-0.501c0.442,0.166,0.664,0.656,0.5,1.098
					l-3,8.03"/>
			</g>
			<g>
				<path fill="#FBD15A" d="M125.515,55.439l-3.221,8.62c-0.165,0.44-0.656,0.665-1.097,0.5s-0.665-0.655-0.5-1.097l3-8.031"/>
				<path fill="#F8B81E" d="M123.696,55.424l3.22-8.62c0.165-0.441,0.656-0.666,1.098-0.5c0.44,0.165,0.665,0.656,0.499,1.098
					l-2.999,8.03"/>
			</g>
			<g>
				<path fill="#FBD15A" d="M133.115,55.439l-3.221,8.62c-0.165,0.441-0.656,0.665-1.097,0.501
					c-0.442-0.166-0.665-0.656-0.501-1.099l3-8.03"/>
				<path fill="#F8B81E" d="M131.296,55.424l3.22-8.62c0.165-0.441,0.656-0.666,1.098-0.501c0.441,0.166,0.664,0.656,0.5,1.099
					l-3,8.03"/>
			</g>
		</g>
	</g>
	<g>
		
			<path fill="#FBD15A" stroke="#FBD15A" stroke-width="0.979" stroke-linecap="round" stroke-linejoin="round" stroke-miterlimit="10" d="
			M36.76,114.432c0-4.568,3.704-8.272,8.271-8.271l0,0c4.567,0,8.27,3.702,8.27,8.27v19.133c0,4.567-3.703,8.271-8.27,8.271l0,0
			c-4.568-0.001-8.271-3.704-8.272-8.271L36.76,114.432z"/>
		<path fill="#F8B81E" stroke="#F8B81E" stroke-width="0.979" stroke-miterlimit="10" d="M45.031,141.834L45.031,141.834
			c4.566,0,8.271-3.703,8.271-8.271l0-19.132c0-4.568-3.704-8.272-8.271-8.271l0,0V141.834L45.031,141.834z"/>
		<g>
			<g>
				<path fill="#FBD15A" d="M44.795,128.591l5.917,2.21c0.305,0.114,0.458,0.451,0.343,0.754c-0.112,0.303-0.449,0.456-0.752,0.343
					l-5.514-2.06"/>
				<path fill="#F8B81E" d="M44.786,129.84l-5.919-2.212c-0.303-0.113-0.457-0.45-0.344-0.754c0.114-0.303,0.451-0.456,0.754-0.343
					l5.514,2.059"/>
			</g>
			<g>
				<path fill="#FBD15A" d="M44.795,123.373l5.919,2.211c0.302,0.113,0.456,0.45,0.343,0.754c-0.115,0.302-0.45,0.456-0.754,0.342
					l-5.513-2.059"/>
				<path fill="#F8B81E" d="M44.785,124.622l-5.919-2.212c-0.303-0.113-0.456-0.449-0.343-0.753c0.114-0.302,0.45-0.457,0.754-0.343
					l5.514,2.059"/>
			</g>
			<g>
				<path fill="#FBD15A" d="M44.795,118.154l5.919,2.211c0.302,0.113,0.457,0.451,0.344,0.753c-0.114,0.305-0.45,0.457-0.755,0.345
					l-5.513-2.061"/>
				<path fill="#F8B81E" d="M44.785,119.403l-5.918-2.211c-0.304-0.113-0.457-0.45-0.345-0.754c0.115-0.302,0.452-0.455,0.755-0.343
					l5.513,2.06"/>
			</g>
		</g>
	</g>
	<g>
		
			<path fill="#FBD15A" stroke="#FBD15A" stroke-width="0.979" stroke-linecap="round" stroke-linejoin="round" stroke-miterlimit="10" d="
			M8.122,90.748c-4.518-0.32-7.919-4.244-7.599-8.761l0,0c0.322-4.517,4.242-7.918,8.759-7.597l18.92,1.343
			c4.517,0.321,7.919,4.242,7.599,8.758l0,0c-0.321,4.518-4.242,7.919-8.759,7.6L8.122,90.748z"/>
		<path fill="#F8B81E" stroke="#F8B81E" stroke-width="0.979" stroke-miterlimit="10" d="M35.8,84.491L35.8,84.491
			c0.32-4.516-3.081-8.439-7.599-8.758L9.283,74.387c-4.518-0.319-8.439,3.083-8.76,7.6l0,0L35.8,84.491L35.8,84.491z"/>
		<g>
			<g>
				<path fill="#FBD15A" d="M22.688,83.795l2.601-5.696c0.134-0.294,0.479-0.422,0.77-0.287c0.292,0.132,0.419,0.476,0.287,0.768
					l-2.424,5.309"/>
				<path fill="#F8B81E" d="M23.921,83.892l-2.602,5.698c-0.133,0.291-0.477,0.42-0.769,0.286s-0.42-0.477-0.288-0.769l2.424-5.309"
					/>
			</g>
			<g>
				<path fill="#FBD15A" d="M17.527,83.428l2.602-5.697c0.133-0.291,0.477-0.42,0.769-0.286c0.292,0.133,0.42,0.476,0.286,0.769
					l-2.423,5.308"/>
				<path fill="#F8B81E" d="M18.761,83.527l-2.602,5.697c-0.133,0.292-0.477,0.419-0.77,0.286c-0.291-0.133-0.421-0.477-0.286-0.77
					l2.423-5.307"/>
			</g>
			<g>
				<path fill="#FBD15A" d="M12.368,83.062l2.602-5.697c0.133-0.292,0.477-0.42,0.769-0.287c0.292,0.134,0.42,0.477,0.288,0.771
					l-2.424,5.306"/>
				<path fill="#F8B81E" d="M13.601,83.161L11,88.858c-0.133,0.292-0.478,0.42-0.77,0.286c-0.292-0.134-0.42-0.477-0.288-0.769
					l2.425-5.308"/>
			</g>
		</g>
	</g>
</g>
</svg>
