<?xml version="1.0" encoding="utf-8"?>
<!-- Generator: Adobe Illustrator 15.0.2, SVG Export Plug-In . SVG Version: 6.00 Build 0)  -->
<!DOCTYPE svg PUBLIC "-//W3C//DTD SVG 1.1//EN" "http://www.w3.org/Graphics/SVG/1.1/DTD/svg11.dtd">
<svg version="1.1" id="Lager_1" xmlns="http://www.w3.org/2000/svg" xmlns:xlink="http://www.w3.org/1999/xlink" x="0px" y="0px"
	 width="110.085px" height="90.944px" viewBox="0 0 110.085 90.944" enable-background="new 0 0 110.085 90.944"
	 xml:space="preserve">
<g>
	<g>
		
			<path fill="#EFAB19" stroke="#EFAB19" stroke-width="0.979" stroke-linecap="round" stroke-linejoin="round" stroke-miterlimit="10" d="
			M40.104,76.028c2.585,4.718,0.856,10.641-3.864,13.226l0,0c-4.717,2.587-10.638,0.856-13.224-3.863L12.187,65.627
			c-2.585-4.719-0.856-10.639,3.862-13.224l0,0c4.718-2.586,10.64-0.858,13.224,3.861L40.104,76.028z"/>
		
			<path fill="#E49D11" stroke="#E49D11" stroke-width="0.979" stroke-linecap="round" stroke-linejoin="round" stroke-miterlimit="10" d="
			M16.049,52.404L16.049,52.404c-4.718,2.585-6.447,8.505-3.862,13.224L23.016,85.39c2.586,4.72,8.507,6.45,13.224,3.863l0,0
			L16.049,52.404z"/>
		<path fill="#EFAB19" d="M23.788,65.949l-7.364,1.067c-0.377,0.054-0.727-0.207-0.781-0.583c-0.054-0.377,0.207-0.727,0.584-0.781
			l6.861-0.994"/>
		<path fill="#E49D11" d="M23.091,64.654l7.366-1.065c0.375-0.055,0.727,0.207,0.781,0.583c0.054,0.377-0.207,0.727-0.584,0.78
			l-6.861,0.995"/>
		<path fill="#EFAB19" d="M26.742,71.339l-7.365,1.065C19,72.459,18.65,72.2,18.595,71.821c-0.054-0.376,0.206-0.726,0.584-0.78
			l6.861-0.994"/>
		<path fill="#E49D11" d="M26.045,70.044l7.365-1.067c0.376-0.054,0.727,0.207,0.782,0.585c0.054,0.377-0.206,0.726-0.584,0.78
			l-6.862,0.993"/>
		<path fill="#EFAB19" d="M29.696,76.73l-7.366,1.065c-0.375,0.056-0.725-0.205-0.781-0.584c-0.055-0.376,0.206-0.725,0.584-0.779
			l6.86-0.994"/>
		<path fill="#E49D11" d="M29,75.434l7.365-1.066c0.376-0.054,0.727,0.207,0.781,0.583c0.055,0.379-0.207,0.727-0.583,0.783
			L29.7,76.726"/>
	</g>
	<g>
		
			<path fill="#EFAB19" stroke="#EFAB19" stroke-width="0.979" stroke-linecap="round" stroke-linejoin="round" stroke-miterlimit="10" d="
			M36.618,7.876c5.447,1.657,8.521,7.417,6.864,12.865l0,0c-1.655,5.447-7.415,8.52-12.864,6.863L7.802,20.666
			C2.354,19.009-0.719,13.25,0.938,7.804l0,0C2.594,2.355,8.354-0.72,13.802,0.939L36.618,7.876z"/>
		
			<path fill="#E49D11" stroke="#E49D11" stroke-width="0.979" stroke-linecap="round" stroke-linejoin="round" stroke-miterlimit="10" d="
			M0.938,7.804L0.938,7.804c-1.657,5.446,1.416,11.206,6.863,12.862l22.817,6.938c5.449,1.657,11.208-1.416,12.864-6.863l0,0
			L0.938,7.804z"/>
		<path fill="#EFAB19" d="M16.817,12.325l-4.784,6.257c-0.244,0.32-0.703,0.381-1.022,0.136c-0.321-0.244-0.381-0.702-0.135-1.022
			l4.455-5.83"/>
		<path fill="#E49D11" d="M15.332,11.86l4.783-6.257c0.245-0.319,0.703-0.382,1.022-0.137c0.321,0.245,0.382,0.702,0.137,1.023
			l-4.457,5.829"/>
		<path fill="#EFAB19" d="M23.041,14.216l-4.784,6.257c-0.244,0.319-0.703,0.381-1.022,0.136c-0.322-0.245-0.382-0.702-0.138-1.023
			l4.456-5.829"/>
		<path fill="#E49D11" d="M21.555,13.752l4.783-6.257c0.245-0.32,0.704-0.381,1.023-0.136c0.321,0.245,0.381,0.701,0.136,1.023
			l-4.456,5.829"/>
		<path fill="#EFAB19" d="M29.264,16.108l-4.784,6.258c-0.244,0.319-0.702,0.381-1.022,0.136c-0.321-0.244-0.382-0.701-0.137-1.022
			l4.455-5.829"/>
		<path fill="#E49D11" d="M27.778,15.645l4.783-6.257c0.245-0.32,0.704-0.381,1.023-0.137c0.321,0.246,0.381,0.703,0.137,1.024
			l-4.457,5.828"/>
	</g>
	<g>
		
			<path fill="#FBD15A" stroke="#FBD15A" stroke-width="0.979" stroke-linecap="round" stroke-linejoin="round" stroke-miterlimit="10" d="
			M97.549,43.735c6.652-0.001,12.047,5.394,12.047,12.047l0,0c-0.001,6.651-5.395,12.045-12.047,12.045H69.683
			c-6.653,0.001-12.046-5.394-12.046-12.045l0,0c0-6.653,5.394-12.047,12.045-12.048L97.549,43.735z"/>
		<path fill="#F8B81E" stroke="#F8B81E" stroke-width="0.979" stroke-miterlimit="10" d="M57.637,55.783L57.637,55.783
			c-0.001,6.652,5.393,12.046,12.045,12.046l27.867,0.001c6.652-0.001,12.046-5.395,12.046-12.047l0,0H57.637L57.637,55.783z"/>
		<g>
			<g>
				<path fill="#FBD15A" d="M76.925,55.438l-3.22,8.621c-0.166,0.44-0.656,0.665-1.099,0.5c-0.44-0.164-0.664-0.655-0.499-1.097
					l3-8.032"/>
				<path fill="#F8B81E" d="M75.106,55.424l3.22-8.62c0.165-0.44,0.656-0.666,1.098-0.501c0.442,0.166,0.664,0.656,0.5,1.098
					l-2.999,8.031"/>
			</g>
			<g>
				<path fill="#FBD15A" d="M84.525,55.439l-3.221,8.62c-0.164,0.44-0.656,0.665-1.098,0.5s-0.664-0.655-0.499-1.097l2.999-8.031"/>
				<path fill="#F8B81E" d="M82.707,55.424l3.221-8.621c0.164-0.44,0.655-0.665,1.098-0.5c0.439,0.166,0.664,0.656,0.498,1.098
					l-2.998,8.031"/>
			</g>
			<g>
				<path fill="#FBD15A" d="M92.126,55.439l-3.221,8.62c-0.165,0.441-0.656,0.665-1.097,0.501c-0.442-0.166-0.665-0.656-0.502-1.099
					l3.001-8.03"/>
				<path fill="#F8B81E" d="M90.307,55.424l3.221-8.621c0.164-0.44,0.656-0.666,1.098-0.5s0.664,0.656,0.5,1.098l-3,8.03"/>
			</g>
		</g>
	</g>
</g>
</svg>
