<?xml version="1.0" encoding="utf-8"?>
<!-- Generator: Adobe Illustrator 17.0.0, SVG Export Plug-In . SVG Version: 6.00 Build 0)  -->
<!DOCTYPE svg PUBLIC "-//W3C//DTD SVG 1.1//EN" "http://www.w3.org/Graphics/SVG/1.1/DTD/svg11.dtd">
<svg version="1.1" id="Layer_1" xmlns="http://www.w3.org/2000/svg" xmlns:xlink="http://www.w3.org/1999/xlink" x="0px" y="0px"
	 width="246.066px" height="317.872px" viewBox="0 0 246.066 317.872" enable-background="new 0 0 246.066 317.872"
	 xml:space="preserve">
<rect x="3.065" y="3.065" opacity="0.9" fill="#DFF2FD" stroke="#DFF2FD" stroke-width="5" stroke-linecap="round" stroke-linejoin="round" stroke-miterlimit="10" width="240" height="312.308"/>
<rect x="0.5" y="0.5" fill="#F5FBFF" stroke="#F5FBFF" stroke-miterlimit="10" width="245.066" height="288.205"/>
<g>
	<g>
		
			<path fill="#F4AACC" stroke="#F4AACC" stroke-width="0.329" stroke-linecap="round" stroke-linejoin="round" stroke-miterlimit="10" d="
			M104.39,266.398c1.207,0.393,2.504,0.604,3.87,0.604h0.385c6.852,0,13.858-2.96,13.858-9.828c0-6.869-6.037-9.293-13.858-9.293
			H97.342c5.808-4.43,8.006-11.869,8.312-16.326l0.018-0.248h8.102c17.004,0,26.66,9.523,26.66,23.399
			c0,13.875-12.101,21.056-26.003,21.056c-4.656,0-9.084-1.319-12.872-3.564L104.39,266.398z"/>
	</g>
	<g>
		
			<path fill="#F4AACC" stroke="#F4AACC" stroke-width="0.329" stroke-linecap="round" stroke-linejoin="round" stroke-miterlimit="10" d="
			M57.779,231.286h44.264c0,0-1.041,15.151-14.213,16.493C73.995,249.189,57.779,231.286,57.779,231.286z"/>
	</g>
	<g>
		<circle cx="74.681" cy="235.908" r="1.864"/>
	</g>
	<g>
		
			<line fill="none" stroke="#EA7DAF" stroke-width="0.987" stroke-linecap="round" stroke-miterlimit="10" x1="54.479" y1="231.603" x2="13.928" y2="231.603"/>
	</g>
	<g>
		
			<line fill="none" stroke="#EA7DAF" stroke-width="0.987" stroke-linecap="round" stroke-miterlimit="10" x1="54.479" y1="236.203" x2="27.747" y2="236.203"/>
	</g>
	<g>
		
			<path fill="#EA7DAF" stroke="#EA7DAF" stroke-width="0.329" stroke-linecap="round" stroke-linejoin="round" stroke-miterlimit="10" d="
			M98.816,270.682l-20.574-6.72l10.299-4.601c0,0,0,0,13.056,6.047C99.198,270.062,98.816,270.682,98.816,270.682z"/>
	</g>
</g>
<g>
	<g>
		
			<path fill="#F4AACC" stroke="#F4AACC" stroke-width="0.329" stroke-linecap="round" stroke-linejoin="round" stroke-miterlimit="10" d="
			M194.357,85.995c1.206,0.394,2.504,0.604,3.87,0.604h0.385c6.852,0,13.858-2.96,13.858-9.828c0-6.869-6.037-9.293-13.858-9.293
			H187.31c5.808-4.43,8.006-11.869,8.312-16.326l0.018-0.248h8.103c17.004,0,26.66,9.523,26.66,23.399
			c0,13.875-12.1,21.056-26.002,21.056c-4.656,0-9.084-1.319-12.872-3.564L194.357,85.995z"/>
	</g>
	<g>
		
			<path fill="#F4AACC" stroke="#F4AACC" stroke-width="0.329" stroke-linecap="round" stroke-linejoin="round" stroke-miterlimit="10" d="
			M147.747,50.883h44.264c0,0-1.041,15.151-14.213,16.493C163.963,68.786,147.747,50.883,147.747,50.883z"/>
	</g>
	<g>
		<circle cx="164.648" cy="55.505" r="1.864"/>
	</g>
	<g>
		
			<line fill="none" stroke="#EA7DAF" stroke-width="0.987" stroke-linecap="round" stroke-miterlimit="10" x1="144.447" y1="51.199" x2="103.896" y2="51.199"/>
	</g>
	<g>
		
			<line fill="none" stroke="#EA7DAF" stroke-width="0.987" stroke-linecap="round" stroke-miterlimit="10" x1="144.447" y1="55.8" x2="117.715" y2="55.8"/>
	</g>
	<g>
		
			<path fill="#EA7DAF" stroke="#EA7DAF" stroke-width="0.329" stroke-linecap="round" stroke-linejoin="round" stroke-miterlimit="10" d="
			M188.784,90.278l-20.574-6.72l10.299-4.601c0,0,0,0,13.056,6.047C189.165,89.659,188.784,90.278,188.784,90.278z"/>
	</g>
</g>
<g>
	<g>
		
			<path fill="#F4AACC" stroke="#F4AACC" stroke-width="0.329" stroke-linecap="round" stroke-linejoin="round" stroke-miterlimit="10" d="
			M187.113,259.55c0.885,0.909,1.935,1.699,3.144,2.335l0.341,0.18c6.064,3.189,13.643,3.832,16.84-2.247
			c3.198-6.079-1.017-11.035-7.939-14.676l-10.003-5.262c7.203-1.217,12.611-6.777,14.956-10.58l0.131-0.211l7.171,3.771
			c15.049,7.916,19.162,20.84,12.702,33.121c-6.459,12.279-20.512,13.001-32.815,6.529c-4.121-2.167-7.426-5.397-9.733-9.147
			L187.113,259.55z"/>
	</g>
	<g>
		
			<path fill="#F4AACC" stroke="#F4AACC" stroke-width="0.329" stroke-linecap="round" stroke-linejoin="round" stroke-miterlimit="10" d="
			M162.206,206.775l39.175,20.606c0,0-7.975,12.925-20.258,7.979C168.224,230.17,162.206,206.775,162.206,206.775z"/>
	</g>
	<g>
		<circle cx="175.013" cy="218.734" r="1.864"/>
	</g>
	<g>
		
			<line fill="none" stroke="#EA7DAF" stroke-width="0.987" stroke-linecap="round" stroke-miterlimit="10" x1="159.139" y1="205.52" x2="123.25" y2="186.642"/>
	</g>
	<g>
		
			<line fill="none" stroke="#EA7DAF" stroke-width="0.987" stroke-linecap="round" stroke-miterlimit="10" x1="156.997" y1="209.591" x2="133.338" y2="197.146"/>
	</g>
	<g>
		
			<path fill="#EA7DAF" stroke="#EA7DAF" stroke-width="0.329" stroke-linecap="round" stroke-linejoin="round" stroke-miterlimit="10" d="
			M180.186,260.745l-15.08-15.524l11.256,0.723c0,0,0,0,8.74,11.43C180.812,260.375,180.186,260.745,180.186,260.745z"/>
	</g>
</g>
<g>
	<g>
		
			<path fill="#F4AACC" stroke="#F4AACC" stroke-width="0.329" stroke-linecap="round" stroke-linejoin="round" stroke-miterlimit="10" d="
			M79.941,88.511c0.784-0.997,1.428-2.143,1.898-3.425l0.133-0.362c2.358-6.433,1.992-14.03-4.457-16.394
			c-6.449-2.365-10.804,2.469-13.496,9.812l-3.891,10.612c-2.16-6.978-8.388-11.602-12.467-13.423l-0.227-0.103l2.789-7.607
			c5.854-15.965,18.119-21.753,31.148-16.977c13.026,4.776,15.602,18.609,10.817,31.661c-1.603,4.371-4.366,8.075-7.777,10.858
			L79.941,88.511z"/>
	</g>
	<g>
		
			<path fill="#F4AACC" stroke="#F4AACC" stroke-width="0.329" stroke-linecap="round" stroke-linejoin="round" stroke-miterlimit="10" d="
			M30.93,120.187l15.237-41.559c0,0,13.867,6.193,10.592,19.023C53.322,111.124,30.93,120.187,30.93,120.187z"/>
	</g>
	<g>
		<circle cx="41.087" cy="105.909" r="1.864"/>
	</g>
	<g>
		
			<line fill="none" stroke="#EA7DAF" stroke-width="0.987" stroke-linecap="round" stroke-miterlimit="10" x1="30.091" y1="123.394" x2="16.132" y2="161.467"/>
	</g>
	<g>
		
			<line fill="none" stroke="#EA7DAF" stroke-width="0.987" stroke-linecap="round" stroke-miterlimit="10" x1="34.41" y1="124.977" x2="25.209" y2="150.076"/>
	</g>
	<g>
		
			<path fill="#EA7DAF" stroke="#EA7DAF" stroke-width="0.329" stroke-linecap="round" stroke-linejoin="round" stroke-miterlimit="10" d="
			M82.043,95.219l-13.391,17.003l-0.774-11.253c0,0,0,0,10.171-10.176C81.594,94.647,82.043,95.219,82.043,95.219z"/>
	</g>
</g>
<g>
	<g>
		
			<path fill="#F4AACC" stroke="#F4AACC" stroke-width="0.329" stroke-linecap="round" stroke-linejoin="round" stroke-miterlimit="10" d="
			M187.314,127.747c-0.398-1.205-0.996-2.374-1.805-3.475l-0.229-0.311c-4.058-5.521-10.591-9.416-16.126-5.348
			c-5.535,4.067-3.914,10.368,0.718,16.669l6.693,9.109c-7.009-2.057-14.305,0.576-18.078,2.969l-0.211,0.133l-4.798-6.529
			c-10.068-13.703-8.112-27.124,3.07-35.34c11.181-8.215,24.133-2.716,32.364,8.487c2.757,3.751,4.316,8.102,4.749,12.483
			L187.314,127.747z"/>
	</g>
	<g>
		
			<path fill="#F4AACC" stroke="#F4AACC" stroke-width="0.329" stroke-linecap="round" stroke-linejoin="round" stroke-miterlimit="10" d="
			M186.619,186.099l-26.21-35.67c0,0,12.826-8.132,21.707,1.689C191.444,162.431,186.619,186.099,186.619,186.099z"/>
	</g>
	<g>
		<circle cx="180.335" cy="169.742" r="1.865"/>
	</g>
	<g>
		
			<line fill="none" stroke="#EA7DAF" stroke-width="0.987" stroke-linecap="round" stroke-miterlimit="10" x1="188.828" y1="188.571" x2="212.839" y2="221.249"/>
	</g>
	<g>
		
			<line fill="none" stroke="#EA7DAF" stroke-width="0.987" stroke-linecap="round" stroke-miterlimit="10" x1="192.534" y1="185.847" x2="208.364" y2="207.388"/>
	</g>
	<g>
		
			<path fill="#EA7DAF" stroke="#EA7DAF" stroke-width="0.329" stroke-linecap="round" stroke-linejoin="round" stroke-miterlimit="10" d="
			M194.065,129.703l6.768,20.558l-9.806-5.574c0,0,0,0-2.858-14.102C193.34,129.762,194.065,129.703,194.065,129.703z"/>
	</g>
</g>
<g>
	<g>
		
			<path fill="#F4AACC" stroke="#F4AACC" stroke-width="0.329" stroke-linecap="round" stroke-linejoin="round" stroke-miterlimit="10" d="
			M73.363,199.688c-2.419,3.678-5.821,6.807-10.004,8.848c-12.493,6.098-26.517,4.953-32.603-7.516
			c-6.087-12.471-1.586-25.264,13.695-32.723l7.281-3.553l0.125,0.215c2.23,3.871,7.469,9.592,14.631,11.025l-10.157,4.957
			c-7.029,3.432-11.392,8.258-8.378,14.43c3.013,6.174,10.607,5.76,16.765,2.754l0.347-0.17c1.227-0.598,2.301-1.355,3.212-2.238
			L73.363,199.688z"/>
	</g>
	<g>
		
			<path fill="#F4AACC" stroke="#F4AACC" stroke-width="0.329" stroke-linecap="round" stroke-linejoin="round" stroke-miterlimit="10" d="
			M94.762,143.717l-39.778,19.416c0,0,7.582,13.16,20.008,8.588C88.042,166.92,94.762,143.717,94.762,143.717z"/>
	</g>
	<g>
		<circle cx="81.601" cy="155.284" r="1.864"/>
	</g>
	<g>
		
			<line fill="none" stroke="#EA7DAF" stroke-width="0.987" stroke-linecap="round" stroke-miterlimit="10" x1="97.866" y1="142.555" x2="134.308" y2="124.767"/>
	</g>
	<g>
		
			<line fill="none" stroke="#EA7DAF" stroke-width="0.987" stroke-linecap="round" stroke-miterlimit="10" x1="99.884" y1="146.688" x2="123.908" y2="134.963"/>
	</g>
	<g>
		
			<path fill="#EA7DAF" stroke="#EA7DAF" stroke-width="0.329" stroke-linecap="round" stroke-linejoin="round" stroke-miterlimit="10" d="
			M75.164,197.121l15.542-15.062l-11.273,0.383c0,0,0,0-9.08,11.16C74.55,196.732,75.164,197.121,75.164,197.121z"/>
	</g>
</g>
<rect x="3.065" y="3.065" opacity="0.15" fill="#00BAEE" stroke="#00BAEE" stroke-width="5" stroke-linecap="round" stroke-linejoin="round" stroke-miterlimit="10" width="120" height="312.308"/>
<line fill="none" stroke="#FFFFFF" stroke-width="3" stroke-linejoin="round" stroke-miterlimit="10" x1="0.5" y1="30.029" x2="245.566" y2="30.029"/>
<g>
	<g>
		
			<line fill="none" stroke="#FFFFFF" stroke-width="2.44" stroke-linecap="round" stroke-miterlimit="10" x1="50.865" y1="63.112" x2="50.865" y2="80.035"/>
		
			<line fill="none" stroke="#FFFFFF" stroke-width="2.44" stroke-linecap="round" stroke-miterlimit="10" x1="46.808" y1="67.283" x2="50.865" y2="71.807"/>
		
			<line fill="none" stroke="#FFFFFF" stroke-width="2.44" stroke-linecap="round" stroke-miterlimit="10" x1="54.926" y1="67.283" x2="50.865" y2="71.807"/>
	</g>
	<g>
		
			<line fill="none" stroke="#FFFFFF" stroke-width="2.44" stroke-linecap="round" stroke-miterlimit="10" x1="50.865" y1="96.967" x2="50.865" y2="80.035"/>
		
			<line fill="none" stroke="#FFFFFF" stroke-width="2.44" stroke-linecap="round" stroke-miterlimit="10" x1="54.926" y1="92.791" x2="50.865" y2="88.268"/>
		
			<line fill="none" stroke="#FFFFFF" stroke-width="2.44" stroke-linecap="round" stroke-miterlimit="10" x1="46.808" y1="92.791" x2="50.865" y2="88.268"/>
	</g>
	<g>
		
			<line fill="none" stroke="#FFFFFF" stroke-width="2.44" stroke-linecap="round" stroke-miterlimit="10" x1="65.418" y1="71.318" x2="50.759" y2="79.78"/>
		
			<line fill="none" stroke="#FFFFFF" stroke-width="2.44" stroke-linecap="round" stroke-miterlimit="10" x1="63.828" y1="76.914" x2="57.884" y2="75.666"/>
		
			<line fill="none" stroke="#FFFFFF" stroke-width="2.44" stroke-linecap="round" stroke-miterlimit="10" x1="59.775" y1="69.89" x2="57.884" y2="75.666"/>
	</g>
	<g>
		
			<line fill="none" stroke="#FFFFFF" stroke-width="2.44" stroke-linecap="round" stroke-miterlimit="10" x1="36.452" y1="71.314" x2="51.111" y2="79.78"/>
		
			<line fill="none" stroke="#FFFFFF" stroke-width="2.44" stroke-linecap="round" stroke-miterlimit="10" x1="38.039" y1="76.914" x2="43.982" y2="75.666"/>
		
			<line fill="none" stroke="#FFFFFF" stroke-width="2.44" stroke-linecap="round" stroke-miterlimit="10" x1="42.095" y1="69.89" x2="43.982" y2="75.666"/>
	</g>
	<g>
		
			<line fill="none" stroke="#FFFFFF" stroke-width="2.44" stroke-linecap="round" stroke-miterlimit="10" x1="36.452" y1="88.246" x2="51.111" y2="79.78"/>
		
			<line fill="none" stroke="#FFFFFF" stroke-width="2.44" stroke-linecap="round" stroke-miterlimit="10" x1="42.095" y1="89.67" x2="43.982" y2="83.895"/>
		
			<line fill="none" stroke="#FFFFFF" stroke-width="2.44" stroke-linecap="round" stroke-miterlimit="10" x1="38.039" y1="82.642" x2="43.982" y2="83.895"/>
	</g>
	<g>
		
			<line fill="none" stroke="#FFFFFF" stroke-width="2.44" stroke-linecap="round" stroke-miterlimit="10" x1="65.445" y1="88.246" x2="50.79" y2="79.78"/>
		
			<line fill="none" stroke="#FFFFFF" stroke-width="2.44" stroke-linecap="round" stroke-miterlimit="10" x1="59.805" y1="89.67" x2="57.919" y2="83.895"/>
		
			<line fill="none" stroke="#FFFFFF" stroke-width="2.44" stroke-linecap="round" stroke-miterlimit="10" x1="63.863" y1="82.642" x2="57.919" y2="83.895"/>
	</g>
</g>
<g>
	<g>
		
			<line fill="none" stroke="#FFFFFF" stroke-width="1.1242" stroke-linecap="round" stroke-miterlimit="10" x1="83.091" y1="92.882" x2="83.091" y2="100.679"/>
		
			<line fill="none" stroke="#FFFFFF" stroke-width="1.1242" stroke-linecap="round" stroke-miterlimit="10" x1="81.222" y1="94.804" x2="83.091" y2="96.888"/>
		
			<line fill="none" stroke="#FFFFFF" stroke-width="1.1242" stroke-linecap="round" stroke-miterlimit="10" x1="84.962" y1="94.804" x2="83.091" y2="96.888"/>
	</g>
	<g>
		
			<line fill="none" stroke="#FFFFFF" stroke-width="1.1242" stroke-linecap="round" stroke-miterlimit="10" x1="83.091" y1="108.48" x2="83.091" y2="100.679"/>
		
			<line fill="none" stroke="#FFFFFF" stroke-width="1.1242" stroke-linecap="round" stroke-miterlimit="10" x1="84.962" y1="106.557" x2="83.091" y2="104.472"/>
		
			<line fill="none" stroke="#FFFFFF" stroke-width="1.1242" stroke-linecap="round" stroke-miterlimit="10" x1="81.222" y1="106.557" x2="83.091" y2="104.472"/>
	</g>
	<g>
		
			<line fill="none" stroke="#FFFFFF" stroke-width="1.1242" stroke-linecap="round" stroke-miterlimit="10" x1="89.796" y1="96.663" x2="83.042" y2="100.562"/>
		
			<line fill="none" stroke="#FFFFFF" stroke-width="1.1242" stroke-linecap="round" stroke-miterlimit="10" x1="89.063" y1="99.241" x2="86.325" y2="98.666"/>
		
			<line fill="none" stroke="#FFFFFF" stroke-width="1.1242" stroke-linecap="round" stroke-miterlimit="10" x1="87.196" y1="96.004" x2="86.325" y2="98.666"/>
	</g>
	<g>
		
			<line fill="none" stroke="#FFFFFF" stroke-width="1.1242" stroke-linecap="round" stroke-miterlimit="10" x1="76.45" y1="96.661" x2="83.204" y2="100.562"/>
		
			<line fill="none" stroke="#FFFFFF" stroke-width="1.1242" stroke-linecap="round" stroke-miterlimit="10" x1="77.181" y1="99.241" x2="79.919" y2="98.666"/>
		
			<line fill="none" stroke="#FFFFFF" stroke-width="1.1242" stroke-linecap="round" stroke-miterlimit="10" x1="79.05" y1="96.004" x2="79.919" y2="98.666"/>
	</g>
	<g>
		
			<line fill="none" stroke="#FFFFFF" stroke-width="1.1242" stroke-linecap="round" stroke-miterlimit="10" x1="76.45" y1="104.462" x2="83.204" y2="100.562"/>
		
			<line fill="none" stroke="#FFFFFF" stroke-width="1.1242" stroke-linecap="round" stroke-miterlimit="10" x1="79.05" y1="105.119" x2="79.919" y2="102.457"/>
		
			<line fill="none" stroke="#FFFFFF" stroke-width="1.1242" stroke-linecap="round" stroke-miterlimit="10" x1="77.181" y1="101.88" x2="79.919" y2="102.457"/>
	</g>
	<g>
		
			<line fill="none" stroke="#FFFFFF" stroke-width="1.1242" stroke-linecap="round" stroke-miterlimit="10" x1="89.809" y1="104.462" x2="83.056" y2="100.562"/>
		
			<line fill="none" stroke="#FFFFFF" stroke-width="1.1242" stroke-linecap="round" stroke-miterlimit="10" x1="87.21" y1="105.119" x2="86.341" y2="102.457"/>
		
			<line fill="none" stroke="#FFFFFF" stroke-width="1.1242" stroke-linecap="round" stroke-miterlimit="10" x1="89.08" y1="101.88" x2="86.341" y2="102.457"/>
	</g>
</g>
</svg>
