<?xml version="1.0" encoding="utf-8"?>
<!-- Generator: Adobe Illustrator 15.0.2, SVG Export Plug-In . SVG Version: 6.00 Build 0)  -->
<!DOCTYPE svg PUBLIC "-//W3C//DTD SVG 1.1//EN" "http://www.w3.org/Graphics/SVG/1.1/DTD/svg11.dtd">
<svg version="1.1" id="Lager_1" xmlns="http://www.w3.org/2000/svg" xmlns:xlink="http://www.w3.org/1999/xlink" x="0px" y="0px"
	 width="171.341px" height="163.921px" viewBox="0 0 171.341 163.921" enable-background="new 0 0 171.341 163.921"
	 xml:space="preserve">
<g>
	<path fill="#E0E0E0" d="M45.772,124.327l-15.408,16.395l-0.942,1.052l0.04,13.021c0.015,5.022-3.326,9.105-7.458,9.12l0,0
		c-4.133,0.015-7.494-4.051-7.511-9.07l-0.012-3.675l-0.006-2.653l-2.496-0.008l-3.455-0.015c-4.717-0.018-8.538-3.594-8.523-7.991
		l0,0c0.013-4.397,3.851-7.95,8.572-7.935l12.236,0.042l0.989-1.002l15.408-16.396L45.772,124.327z"/>
	<path fill="#EDEDED" d="M104.783,38.976H66.876c-18.167,0-32.895,15.67-32.895,35v16c0,14.784,8.619,27.418,20.799,32.547
		c0,0.035-0.006,0.07-0.006,0.105v16.854c0,6.886,5.247,12.468,11.717,12.468h38.676c6.471,0,11.717-5.582,11.717-12.468v-16.854
		c0-0.035-0.005-0.07-0.005-0.105c12.18-5.129,20.799-17.763,20.799-32.547v-16C137.678,54.646,122.95,38.976,104.783,38.976z"/>
	<path fill="#E0E0E0" d="M85.829,151.949H66.491c-6.47,0-11.717-5.582-11.717-12.468v-16.854c0-0.035,0.006-0.07,0.006-0.105
		c-12.18-5.129-20.799-17.763-20.799-32.547v-16c0-19.33,14.728-35,32.895-35h18.953V151.949z"/>
	
		<line fill="none" stroke="#878787" stroke-width="2.9084" stroke-linecap="round" stroke-miterlimit="10" x1="65.034" y1="126.215" x2="65.034" y2="137.459"/>
	
		<path fill="none" stroke="#878787" stroke-width="3.8778" stroke-linecap="round" stroke-linejoin="round" stroke-miterlimit="10" d="
		M70.808,74.12c3.188,3.393,3.188,8.894,0,12.286c-3.188,3.394-8.358,3.394-11.547,0c-3.189-3.393-3.189-8.893,0-12.285
		C62.449,70.729,67.619,70.728,70.808,74.12z"/>
	<path fill="#A8A8A7" d="M110.428,74.12c3.188,3.393,3.188,8.894,0,12.286c-3.188,3.394-8.358,3.394-11.548,0
		c-3.189-3.393-3.189-8.893,0-12.285S107.239,70.728,110.428,74.12z"/>
	<path fill="#DADADA" d="M116.879,122.522"/>
	<path fill="#A8A8A7" d="M92.673,107.611c-0.006,0-0.013,0-0.02,0H79.006c-0.531,0-1.024-0.297-1.297-0.782
		c-0.273-0.484-0.288-1.087-0.038-1.586l6.824-13.59c0.264-0.523,0.776-0.851,1.334-0.851c0.559,0,1.072,0.327,1.335,0.851
		l6.723,13.389c0.187,0.268,0.298,0.6,0.298,0.96C94.185,106.891,93.509,107.611,92.673,107.611z"/>
	<path fill="#878787" d="M85.829,107.611h-6.823c-0.531,0-1.024-0.297-1.297-0.782c-0.273-0.484-0.288-1.087-0.038-1.586
		l6.824-13.59c0.264-0.523,0.776-0.851,1.334-0.851V107.611z"/>
	
		<line fill="none" stroke="#878787" stroke-width="2.9084" stroke-linecap="round" stroke-miterlimit="10" x1="73.353" y1="126.215" x2="73.353" y2="137.459"/>
	
		<line fill="none" stroke="#878787" stroke-width="2.9084" stroke-linecap="round" stroke-miterlimit="10" x1="81.671" y1="126.215" x2="81.671" y2="137.459"/>
	
		<line fill="none" stroke="#A8A8A7" stroke-width="2.9084" stroke-linecap="round" stroke-miterlimit="10" x1="89.988" y1="126.215" x2="89.988" y2="137.459"/>
	
		<line fill="none" stroke="#A8A8A7" stroke-width="2.9084" stroke-linecap="round" stroke-miterlimit="10" x1="98.307" y1="126.215" x2="98.307" y2="137.459"/>
	
		<line fill="none" stroke="#A8A8A7" stroke-width="2.9084" stroke-linecap="round" stroke-miterlimit="10" x1="106.625" y1="126.215" x2="106.625" y2="137.459"/>
	<path fill="#A8A8A7" d="M65.032,137.222c-0.834,0-1.562-0.649-1.688-1.553c-0.136-0.992,0.51-1.914,1.442-2.06l21.042-3.274
		l20.549-3.197c0.934-0.145,1.799,0.542,1.936,1.534s-0.51,1.914-1.441,2.06l-21.043,3.273l-20.549,3.198
		C65.197,137.216,65.114,137.222,65.032,137.222z"/>
	<path fill="#878787" d="M85.829,134.005l-20.549,3.198c-0.083,0.013-0.166,0.019-0.248,0.019c-0.834,0-1.562-0.649-1.688-1.553
		c-0.136-0.992,0.51-1.914,1.442-2.06l21.042-3.274"/>
	<path fill="#E0E0E0" d="M45.772,39.586L30.364,23.191l-0.942-1.051l0.04-13.021C29.476,4.098,26.136,0.014,22.003,0l0,0
		c-4.133-0.016-7.494,4.051-7.511,9.07l-0.012,3.674l-0.006,2.654l-2.496,0.008L8.523,15.42C3.806,15.438-0.014,19.014,0,23.412l0,0
		c0.013,4.396,3.851,7.949,8.572,7.934l12.236-0.041l0.989,1.002l15.408,16.395L45.772,39.586z"/>
	<path fill="#EDEDED" d="M125.568,39.594l15.408-16.395l0.941-1.053l-0.039-13.02c-0.015-5.023,3.325-9.105,7.458-9.121l0,0
		c4.133-0.014,7.494,4.051,7.511,9.07l0.013,3.676l0.006,2.652l2.495,0.008l3.455,0.016c4.718,0.018,8.538,3.594,8.524,7.99l0,0
		c-0.014,4.398-3.852,7.951-8.572,7.936l-12.236-0.043l-0.988,1.002l-15.408,16.396L125.568,39.594z"/>
	<path fill="#EDEDED" d="M125.568,124.334l15.408,16.395l0.941,1.052l-0.039,13.021c-0.015,5.022,3.325,9.105,7.458,9.12l0,0
		c4.133,0.015,7.494-4.051,7.511-9.07l0.013-3.675l0.006-2.653l2.495-0.008l3.455-0.015c4.718-0.018,8.538-3.594,8.524-7.991l0,0
		c-0.014-4.397-3.852-7.95-8.572-7.935l-12.236,0.042l-0.988-1.002l-15.408-16.396L125.568,124.334z"/>
</g>
</svg>
