<?xml version="1.0" encoding="utf-8"?>
<!-- Generator: Adobe Illustrator 17.0.0, SVG Export Plug-In . SVG Version: 6.00 Build 0)  -->
<!DOCTYPE svg PUBLIC "-//W3C//DTD SVG 1.1//EN" "http://www.w3.org/Graphics/SVG/1.1/DTD/svg11.dtd">
<svg version="1.1" id="Layer_1" xmlns="http://www.w3.org/2000/svg" xmlns:xlink="http://www.w3.org/1999/xlink" x="0px" y="0px"
	 width="16.581px" height="198.354px" viewBox="0 0 16.581 198.354" enable-background="new 0 0 16.581 198.354"
	 xml:space="preserve">
<path fill="#EFBB7C" stroke="#EFBB7C" stroke-miterlimit="10" d="M16.081,190.064c0,4.302-3.488,7.79-7.791,7.79l0,0
	c-4.302,0-7.79-3.488-7.79-7.79V8.291C0.5,3.988,3.988,0.5,8.29,0.5l0,0c4.303,0,7.791,3.488,7.791,7.791V190.064z"/>
<line fill="none" stroke="#DD9549" stroke-width="0.75" stroke-linecap="round" stroke-linejoin="round" stroke-miterlimit="10" x1="12.285" y1="179.865" x2="12.285" y2="185.869"/>
<line fill="none" stroke="#DD9549" stroke-width="0.75" stroke-linecap="round" stroke-linejoin="round" stroke-miterlimit="10" x1="8.288" y1="119.512" x2="8.288" y2="125.516"/>
<line fill="none" stroke="#DD9549" stroke-width="0.75" stroke-linecap="round" stroke-linejoin="round" stroke-miterlimit="10" x1="12.285" y1="109.988" x2="12.285" y2="115.992"/>
<line fill="none" stroke="#DD9549" stroke-width="0.75" stroke-linecap="round" stroke-linejoin="round" stroke-miterlimit="10" x1="4.809" y1="64.906" x2="4.809" y2="70.91"/>
<line fill="none" stroke="#DD9549" stroke-width="0.75" stroke-linecap="round" stroke-linejoin="round" stroke-miterlimit="10" x1="8.419" y1="76.365" x2="8.419" y2="82.369"/>
<line fill="none" stroke="#DD9549" stroke-width="0.75" stroke-linecap="round" stroke-linejoin="round" stroke-miterlimit="10" x1="12.122" y1="62.183" x2="12.122" y2="68.187"/>
<line fill="none" stroke="#DD9549" stroke-width="0.75" stroke-linecap="round" stroke-linejoin="round" stroke-miterlimit="10" x1="4.809" y1="42.245" x2="4.809" y2="48.249"/>
<line fill="none" stroke="#DD9549" stroke-width="0.75" stroke-linecap="round" stroke-linejoin="round" stroke-miterlimit="10" x1="8.419" y1="25.957" x2="8.419" y2="31.962"/>
<line fill="none" stroke="#DD9549" stroke-width="0.75" stroke-linecap="round" stroke-linejoin="round" stroke-miterlimit="10" x1="4.809" y1="17.366" x2="4.809" y2="23.37"/>
<line fill="none" stroke="#DD9549" stroke-width="0.75" stroke-linecap="round" stroke-linejoin="round" stroke-miterlimit="10" x1="12.285" y1="10.279" x2="12.285" y2="16.283"/>
<line fill="none" stroke="#DD9549" stroke-width="0.75" stroke-linecap="round" stroke-linejoin="round" stroke-miterlimit="10" x1="4.809" y1="103.873" x2="4.809" y2="109.877"/>
<line fill="none" stroke="#DD9549" stroke-width="0.75" stroke-linecap="round" stroke-linejoin="round" stroke-miterlimit="10" x1="8.288" y1="161.505" x2="8.288" y2="172.355"/>
<line fill="none" stroke="#DD9549" stroke-width="0.75" stroke-linecap="round" stroke-linejoin="round" stroke-miterlimit="10" x1="12.285" y1="133.998" x2="12.285" y2="144.847"/>
<line fill="none" stroke="#DD9549" stroke-width="0.75" stroke-linecap="round" stroke-linejoin="round" stroke-miterlimit="10" x1="12.285" y1="89.411" x2="12.285" y2="100.261"/>
<line fill="none" stroke="#DD9549" stroke-width="0.75" stroke-linecap="round" stroke-linejoin="round" stroke-miterlimit="10" x1="4.809" y1="85.371" x2="4.809" y2="96.221"/>
<line fill="none" stroke="#DD9549" stroke-width="0.75" stroke-linecap="round" stroke-linejoin="round" stroke-miterlimit="10" x1="8.419" y1="49.759" x2="8.419" y2="60.609"/>
<line fill="none" stroke="#DD9549" stroke-width="0.75" stroke-linecap="round" stroke-linejoin="round" stroke-miterlimit="10" x1="12.122" y1="31.962" x2="12.122" y2="42.812"/>
<line fill="none" stroke="#DD9549" stroke-width="0.75" stroke-linecap="round" stroke-linejoin="round" stroke-miterlimit="10" x1="4.809" y1="173.861" x2="4.809" y2="179.865"/>
<line fill="none" stroke="#DD9549" stroke-width="0.75" stroke-linecap="round" stroke-linejoin="round" stroke-miterlimit="10" x1="12.285" y1="153.662" x2="12.285" y2="159.666"/>
<line fill="none" stroke="#DD9549" stroke-width="0.75" stroke-linecap="round" stroke-linejoin="round" stroke-miterlimit="10" x1="4.809" y1="130.416" x2="4.809" y2="136.42"/>
<line fill="none" stroke="#DD9549" stroke-width="0.75" stroke-linecap="round" stroke-linejoin="round" stroke-miterlimit="10" x1="4.809" y1="147.297" x2="4.809" y2="153.301"/>
</svg>
