<?xml version="1.0" encoding="utf-8"?>
<!-- Generator: Adobe Illustrator 15.0.2, SVG Export Plug-In . SVG Version: 6.00 Build 0)  -->
<!DOCTYPE svg PUBLIC "-//W3C//DTD SVG 1.1//EN" "http://www.w3.org/Graphics/SVG/1.1/DTD/svg11.dtd">
<svg version="1.1" id="Lager_1" xmlns="http://www.w3.org/2000/svg" xmlns:xlink="http://www.w3.org/1999/xlink" x="0px" y="0px"
	 width="20.138px" height="73.998px" viewBox="0 0 20.138 73.998" enable-background="new 0 0 20.138 73.998" xml:space="preserve">
<g>
	<path fill="#007D40" d="M10.069,73.998c-0.001,0,7.095,0,7.095,0c1.643,0,2.974-1.331,2.974-2.973V30.301c0-0.849,0-1.367,0-1.859
		c0-4.981-0.682-7.8-5.062-11.301l-0.348-0.335c-1.127-1.128-1.419-2.019-1.419-3.259V1.398h0.575c0.387,0,0.699-0.313,0.699-0.699
		l0,0C14.583,0.312,14.271,0,13.884,0h-3.815H6.253C5.867,0,5.554,0.312,5.554,0.699l0,0c0,0.386,0.313,0.699,0.699,0.699h0.576
		v12.148c0,1.24-0.292,2.131-1.42,3.259l-0.348,0.335C0.682,20.642,0,23.46,0,28.441c0,0.492,0,1.011,0,1.859v40.725
		c0,1.642,1.331,2.973,2.973,2.973H10.069"/>
	<path fill="#006633" d="M10.069,73.998c-0.001,0,7.095,0,7.095,0c1.643,0,2.974-1.331,2.974-2.973V30.301c0-0.849,0-1.367,0-1.859
		c0-4.981-0.682-7.8-5.062-11.301l-0.348-0.335c-1.127-1.128-1.419-2.019-1.419-3.259V1.398h0.575c0.387,0,0.699-0.313,0.699-0.699
		l0,0C14.583,0.312,14.271,0,13.884,0h-3.815L10.069,73.998z"/>
	
		<rect x="2.235" y="30.618" fill="#FFFFFF" stroke="#FFFFFF" stroke-width="0.3772" stroke-linecap="round" stroke-linejoin="round" stroke-miterlimit="10" width="15.667" height="10.825"/>
	
		<rect x="10.069" y="30.618" fill="#EDEDED" stroke="#EDEDED" stroke-width="0.3772" stroke-linecap="round" stroke-linejoin="round" stroke-miterlimit="10" width="7.834" height="10.825"/>
</g>
</svg>
