<?xml version="1.0" encoding="utf-8"?>
<!-- Generator: Adobe Illustrator 17.0.0, SVG Export Plug-In . SVG Version: 6.00 Build 0)  -->
<!DOCTYPE svg PUBLIC "-//W3C//DTD SVG 1.1//EN" "http://www.w3.org/Graphics/SVG/1.1/DTD/svg11.dtd">
<svg version="1.1" id="Layer_1" xmlns="http://www.w3.org/2000/svg" xmlns:xlink="http://www.w3.org/1999/xlink" x="0px" y="0px"
	 width="134.57px" height="451.004px" viewBox="0 0 134.57 451.004" enable-background="new 0 0 134.57 451.004"
	 xml:space="preserve">
<path fill="#007D40" d="M0,5.383"/>
<path fill="#90AFB0" stroke="#90AFB0" stroke-width="2.2873" stroke-linecap="round" stroke-linejoin="round" stroke-miterlimit="10" d="
	M72.373,449.86c-0.001,0,43.027,0,43.027,0c9.955,0,18.026-8.072,18.026-18.027V184.884c0-5.144,0-8.289,0-11.27
	c0-30.209-4.134-47.3-30.692-68.529l-2.107-2.035c-6.841-6.84-8.611-12.244-8.611-19.764V9.623h3.492
	c2.342,0,4.239-1.898,4.239-4.239l0,0c0-2.342-1.897-4.24-4.239-4.24H72.372H49.236c-2.341,0-4.239,1.898-4.239,4.24l0,0
	c0,2.341,1.899,4.239,4.239,4.239h3.492v73.664c0,7.52-1.77,12.923-8.611,19.764l-2.106,2.035
	c-26.56,21.229-30.692,38.32-30.692,68.529c0,2.981,0,6.126,0,11.27v246.949c0,9.955,8.07,18.027,18.026,18.027
	c0,0,43.027,0,43.026,0"/>
<path fill="#007D40" d="M44.997,5.383"/>
<path fill="#6D999E" stroke="#6D999E" stroke-width="2.2873" stroke-linecap="round" stroke-linejoin="round" stroke-miterlimit="10" d="
	M72.373,449.86c-0.001,0,43.027,0,43.027,0c9.955,0,18.026-8.072,18.026-18.027V184.884c0-5.144,0-8.289,0-11.27
	c0-30.209-4.134-47.3-30.692-68.529l-2.107-2.035c-6.841-6.84-8.611-12.244-8.611-19.764V9.623h3.492
	c2.342,0,4.239-1.898,4.239-4.239l0,0c0-2.342-1.897-4.24-4.239-4.24H72.372L72.373,449.86z"/>
<rect x="24.872" y="186.812" fill="#FFFFFF" stroke="#FFFFFF" stroke-width="2.2873" stroke-linecap="round" stroke-linejoin="round" stroke-miterlimit="10" width="95" height="65.64"/>
<rect x="72.372" y="186.812" fill="#EDEDED" stroke="#EDEDED" stroke-width="2.2873" stroke-linecap="round" stroke-linejoin="round" stroke-miterlimit="10" width="47.5" height="65.64"/>
</svg>
