<?xml version="1.0" encoding="utf-8"?>
<!-- Generator: Adobe Illustrator 17.1.0, SVG Export Plug-In . SVG Version: 6.00 Build 0)  -->
<!DOCTYPE svg PUBLIC "-//W3C//DTD SVG 1.1//EN" "http://www.w3.org/Graphics/SVG/1.1/DTD/svg11.dtd">
<svg version="1.1" id="Layer_1" xmlns="http://www.w3.org/2000/svg" xmlns:xlink="http://www.w3.org/1999/xlink" x="0px" y="0px"
	 width="323.208px" height="156.407px" viewBox="580.001 113.195 323.208 156.407"
	 enable-background="new 580.001 113.195 323.208 156.407" xml:space="preserve">
<g id="Lager_2" display="none">
	
		<rect display="inline" fill="#786854" stroke="#786854" stroke-width="0.9524" stroke-linecap="round" stroke-linejoin="round" stroke-miterlimit="10" width="1000" height="800"/>
</g>
<g id="Lager_1">
	<path fill="#584C3F" d="M876.5,197.791c-2.338-5.217-6.789-9.211-12.222-10.816c0.677-1.591,1.058-3.344,1.058-5.192
		c0-6.013-3.977-11.053-9.359-12.502c-0.853-6.285-6.062-11.126-12.382-11.126c-0.326,0-0.647,0.025-0.967,0.05
		c-1.684-4.155-5.407-7.196-9.876-7.816c-2.008-4.374-6.309-7.406-11.306-7.406c-6.915,0-12.52,5.79-12.52,12.933
		c0,0.046,0.006,0.089,0.007,0.135c-2.137-1.752-4.833-2.806-7.773-2.806c-6.915,0-12.519,5.791-12.519,12.933
		c0,1.829,0.372,3.567,1.035,5.144c-0.967-0.154-1.957-0.234-2.966-0.234c-10.674,0-19.326,8.938-19.326,19.965
		c0,0.924,0.066,1.832,0.185,2.723c-0.775-0.068-1.56-0.11-2.352-0.11c-15.161,0-27.454,12.698-27.454,28.362
		c0,15.663,12.293,28.361,27.454,28.361c4.72,0,9.16-1.231,13.038-3.398c4.916,7.668,13.337,12.728,22.905,12.728
		c7.54,0,14.369-3.142,19.331-8.227c4.484,3.296,9.965,5.241,15.889,5.241c8.282,0,15.702-3.794,20.734-9.785
		c4.896,4.681,11.444,7.546,18.641,7.546c15.162,0,27.454-12.698,27.454-28.362C903.21,210.727,891.317,198.2,876.5,197.791z"/>
	<path fill="#635646" d="M772.031,186.627c-3.236-6.989-9.398-12.341-16.917-14.491c0.936-2.131,1.464-4.481,1.464-6.957
		c0-8.056-5.506-14.809-12.954-16.749c-1.181-8.42-8.394-14.907-17.14-14.907c-0.452,0-0.896,0.034-1.339,0.067
		c-2.329-5.566-7.483-9.643-13.669-10.472c-2.778-5.86-8.732-9.923-15.648-9.923c-9.57,0-17.328,7.758-17.328,17.328
		c0,0.062,0.009,0.121,0.009,0.182c-2.956-2.348-6.69-3.76-10.759-3.76c-9.57,0-17.328,7.758-17.328,17.328
		c0,2.451,0.515,4.779,1.433,6.892c-1.338-0.206-2.709-0.313-4.104-0.313c-14.773,0-26.75,11.977-26.75,26.75
		c0,1.238,0.092,2.455,0.254,3.648c-1.073-0.091-2.156-0.148-3.254-0.148c-20.986,0-38,17.013-38,38s17.014,38,38,38
		c6.532,0,12.679-1.65,18.048-4.553c6.803,10.274,18.458,17.053,31.702,17.053c10.436,0,19.889-4.21,26.756-11.021
		c6.209,4.416,13.795,7.021,21.994,7.021c11.463,0,21.732-5.083,28.7-13.11c6.776,6.272,15.838,10.11,25.8,10.11
		c20.986,0,38-17.013,38-38C809,203.96,792.539,187.175,772.031,186.627z"/>
</g>
</svg>
