<?xml version="1.0" encoding="utf-8"?>
<!-- Generator: Adobe Illustrator 15.0.2, SVG Export Plug-In . SVG Version: 6.00 Build 0)  -->
<!DOCTYPE svg PUBLIC "-//W3C//DTD SVG 1.1//EN" "http://www.w3.org/Graphics/SVG/1.1/DTD/svg11.dtd">
<svg version="1.1" id="Lager_1" xmlns="http://www.w3.org/2000/svg" xmlns:xlink="http://www.w3.org/1999/xlink" x="0px" y="0px"
	 width="244.764px" height="325.596px" viewBox="0 0 244.764 325.596" enable-background="new 0 0 244.764 325.596"
	 xml:space="preserve">
<g>
	<g>
		<rect x="103.282" y="165.075" fill="#8F5E35" width="36.471" height="160.521"/>
		<rect x="103.282" y="165.075" fill="#7F4D29" width="18.239" height="160.521"/>
	</g>
	<g>
		<polygon fill="#52AF6C" stroke="#52AF6C" stroke-width="0.7446" stroke-miterlimit="10" points="197.946,131.74 46.821,131.74 
			122.382,24.586 		"/>
		
			<polygon fill="#46A260" stroke="#46A260" stroke-width="0.8391" stroke-linecap="round" stroke-linejoin="round" stroke-miterlimit="10" points="
			46.821,131.74 122.382,24.586 122.382,131.74 		"/>
	</g>
	<g>
		<polygon fill="#52AF6C" stroke="#52AF6C" stroke-width="0.9201" stroke-miterlimit="10" points="215.485,181.206 29.281,181.206 
			122.385,48.409 		"/>
		
			<polygon fill="#46A260" stroke="#46A260" stroke-width="1.0369" stroke-linecap="round" stroke-linejoin="round" stroke-miterlimit="10" points="
			29.281,181.206 122.385,48.409 122.385,181.206 		"/>
	</g>
	<g>
		<polygon fill="#52AF6C" stroke="#52AF6C" stroke-width="1.0724" stroke-miterlimit="10" points="232.172,229.808 12.593,229.808 
			122.382,76.841 		"/>
		
			<polygon fill="#46A260" stroke="#46A260" stroke-width="1.2085" stroke-linecap="round" stroke-linejoin="round" stroke-miterlimit="10" points="
			12.593,229.808 122.382,76.841 122.382,229.808 		"/>
	</g>
	<g>
		<polygon fill="#52AF6C" stroke="#52AF6C" stroke-width="1.1841" stroke-miterlimit="10" points="243.611,276.146 1.154,276.146 
			122.382,107.24 		"/>
		
			<polygon fill="#46A260" stroke="#46A260" stroke-width="1.3344" stroke-linecap="round" stroke-linejoin="round" stroke-miterlimit="10" points="
			1.154,276.146 122.382,107.24 122.382,276.146 		"/>
	</g>
	<g>
		<polygon fill="#52AF6C" stroke="#52AF6C" stroke-width="0.5862" stroke-miterlimit="10" points="180.963,86.2 63.806,86.2 
			122.385,0.52 		"/>
		
			<polygon fill="#46A260" stroke="#46A260" stroke-width="0.6607" stroke-linecap="round" stroke-linejoin="round" stroke-miterlimit="10" points="
			63.806,86.2 122.385,0.52 122.385,86.2 		"/>
	</g>
</g>
</svg>
