<?xml version="1.0" encoding="utf-8"?>
<!-- Generator: Adobe Illustrator 15.0.2, SVG Export Plug-In . SVG Version: 6.00 Build 0)  -->
<!DOCTYPE svg PUBLIC "-//W3C//DTD SVG 1.1//EN" "http://www.w3.org/Graphics/SVG/1.1/DTD/svg11.dtd">
<svg version="1.1" id="Lager_1" xmlns="http://www.w3.org/2000/svg" xmlns:xlink="http://www.w3.org/1999/xlink" x="0px" y="0px"
	 width="108.223px" height="92.197px" viewBox="0 0 108.223 92.197" enable-background="new 0 0 108.223 92.197"
	 xml:space="preserve">
<g>
	<g>
		<g>
			<rect x="21.827" y="32.196" fill="#906037" width="7.706" height="31.403"/>
			<rect x="21.827" y="32.194" fill="#814F2A" width="3.854" height="31.403"/>
		</g>
		<g>
			<polygon fill="#54B16E" stroke="#54B16E" stroke-width="0.1514" stroke-miterlimit="10" points="41.845,25.686 9.914,25.662 
				25.894,4.709 			"/>
			
				<polygon fill="#46A260" stroke="#46A260" stroke-width="0.1706" stroke-linecap="round" stroke-linejoin="round" stroke-miterlimit="10" points="
				9.914,25.662 25.894,4.709 25.879,25.673 			"/>
		</g>
		<g>
			<polygon fill="#54B16E" stroke="#54B16E" stroke-width="0.1871" stroke-miterlimit="10" points="45.544,35.365 6.202,35.338 
				25.892,9.37 			"/>
			
				<polygon fill="#46A260" stroke="#46A260" stroke-width="0.2108" stroke-linecap="round" stroke-linejoin="round" stroke-miterlimit="10" points="
				6.202,35.338 25.892,9.37 25.873,35.352 			"/>
		</g>
		<g>
			<polygon fill="#54B16E" stroke="#54B16E" stroke-width="0.218" stroke-miterlimit="10" points="49.062,44.877 2.668,44.843 
				25.887,14.933 			"/>
			
				<polygon fill="#46A260" stroke="#46A260" stroke-width="0.2457" stroke-linecap="round" stroke-linejoin="round" stroke-miterlimit="10" points="
				2.668,44.843 25.887,14.933 25.865,44.862 			"/>
		</g>
		<g>
			<polygon fill="#54B16E" stroke="#54B16E" stroke-width="0.2407" stroke-miterlimit="10" points="51.472,53.946 0.245,53.908 
				25.882,20.88 			"/>
			
				<polygon fill="#46A260" stroke="#46A260" stroke-width="0.2713" stroke-linecap="round" stroke-linejoin="round" stroke-miterlimit="10" points="
				0.245,53.908 25.882,20.88 25.859,53.925 			"/>
		</g>
		<g>
			<polygon fill="#54B16E" stroke="#54B16E" stroke-width="0.1192" stroke-miterlimit="10" points="38.263,16.774 13.509,16.754 
				25.898,0 			"/>
			
				<polygon fill="#46A260" stroke="#46A260" stroke-width="0.1343" stroke-linecap="round" stroke-linejoin="round" stroke-miterlimit="10" points="
				13.509,16.754 25.898,0 25.886,16.763 			"/>
		</g>
	</g>
	<g>
		<g>
			<rect x="76.187" y="58.35" fill="#906037" width="8.265" height="33.675"/>
			<rect x="76.187" y="58.348" fill="#814F2A" width="4.133" height="33.676"/>
		</g>
		<g>
			<polygon fill="#54B16E" stroke="#54B16E" stroke-width="0.1514" stroke-miterlimit="10" points="97.651,51.369 63.412,51.345 
				80.549,28.875 			"/>
			
				<polygon fill="#46A260" stroke="#46A260" stroke-width="0.1706" stroke-linecap="round" stroke-linejoin="round" stroke-miterlimit="10" points="
				63.412,51.345 80.549,28.875 80.531,51.356 			"/>
		</g>
		<g>
			<polygon fill="#54B16E" stroke="#54B16E" stroke-width="0.1871" stroke-miterlimit="10" points="101.619,61.748 59.431,61.719 
				80.546,33.874 			"/>
			
				<polygon fill="#46A260" stroke="#46A260" stroke-width="0.2108" stroke-linecap="round" stroke-linejoin="round" stroke-miterlimit="10" points="
				59.431,61.719 80.546,33.874 80.525,61.735 			"/>
		</g>
		<g>
			<polygon fill="#54B16E" stroke="#54B16E" stroke-width="0.218" stroke-miterlimit="10" points="105.392,71.948 55.644,71.912 
				80.541,39.84 			"/>
			
				<polygon fill="#46A260" stroke="#46A260" stroke-width="0.2457" stroke-linecap="round" stroke-linejoin="round" stroke-miterlimit="10" points="
				55.644,71.912 80.541,39.84 80.518,71.931 			"/>
		</g>
		<g>
			<polygon fill="#54B16E" stroke="#54B16E" stroke-width="0.2407" stroke-miterlimit="10" points="107.977,81.67 53.044,81.631 
				80.535,46.215 			"/>
			
				<polygon fill="#46A260" stroke="#46A260" stroke-width="0.2713" stroke-linecap="round" stroke-linejoin="round" stroke-miterlimit="10" points="
				53.044,81.631 80.535,46.215 80.51,81.652 			"/>
		</g>
		<g>
			<polygon fill="#54B16E" stroke="#54B16E" stroke-width="0.1192" stroke-miterlimit="10" points="93.812,41.812 67.267,41.791 
				80.552,23.826 			"/>
			
				<polygon fill="#46A260" stroke="#46A260" stroke-width="0.1343" stroke-linecap="round" stroke-linejoin="round" stroke-miterlimit="10" points="
				67.267,41.791 80.552,23.826 80.54,41.802 			"/>
		</g>
	</g>
</g>
</svg>
