<?xml version="1.0" encoding="utf-8"?>
<!-- Generator: Adobe Illustrator 15.0.2, SVG Export Plug-In . SVG Version: 6.00 Build 0)  -->
<!DOCTYPE svg PUBLIC "-//W3C//DTD SVG 1.1//EN" "http://www.w3.org/Graphics/SVG/1.1/DTD/svg11.dtd">
<svg version="1.1" id="Lager_1" xmlns="http://www.w3.org/2000/svg" xmlns:xlink="http://www.w3.org/1999/xlink" x="0px" y="0px"
	 width="108.222px" height="92.198px" viewBox="0 0 108.222 92.198" enable-background="new 0 0 108.222 92.198"
	 xml:space="preserve">
<g>
	<g>
		<g>
			<rect x="21.827" y="60.794" fill="#906037" width="7.706" height="31.404"/>
			<rect x="21.827" y="60.792" fill="#814F2A" width="3.853" height="31.404"/>
		</g>
		<g>
			<polygon fill="#54B16E" stroke="#54B16E" stroke-width="0.1514" stroke-miterlimit="10" points="41.845,54.284 9.914,54.261 
				25.894,33.308 			"/>
			
				<polygon fill="#46A260" stroke="#46A260" stroke-width="0.1706" stroke-linecap="round" stroke-linejoin="round" stroke-miterlimit="10" points="
				9.914,54.261 25.894,33.308 25.879,54.272 			"/>
		</g>
		<g>
			<polygon fill="#54B16E" stroke="#54B16E" stroke-width="0.1871" stroke-miterlimit="10" points="45.544,63.964 6.202,63.937 
				25.892,37.969 			"/>
			
				<polygon fill="#46A260" stroke="#46A260" stroke-width="0.2108" stroke-linecap="round" stroke-linejoin="round" stroke-miterlimit="10" points="
				6.202,63.937 25.892,37.969 25.873,63.95 			"/>
		</g>
		<g>
			<polygon fill="#54B16E" stroke="#54B16E" stroke-width="0.218" stroke-miterlimit="10" points="49.062,73.476 2.668,73.442 
				25.887,43.532 			"/>
			
				<polygon fill="#46A260" stroke="#46A260" stroke-width="0.2457" stroke-linecap="round" stroke-linejoin="round" stroke-miterlimit="10" points="
				2.668,73.442 25.887,43.532 25.865,73.46 			"/>
		</g>
		<g>
			<polygon fill="#54B16E" stroke="#54B16E" stroke-width="0.2407" stroke-miterlimit="10" points="51.472,82.544 0.245,82.507 
				25.882,49.479 			"/>
			
				<polygon fill="#46A260" stroke="#46A260" stroke-width="0.2713" stroke-linecap="round" stroke-linejoin="round" stroke-miterlimit="10" points="
				0.245,82.507 25.882,49.479 25.859,82.524 			"/>
		</g>
		<g>
			<polygon fill="#54B16E" stroke="#54B16E" stroke-width="0.1192" stroke-miterlimit="10" points="38.263,45.372 13.509,45.353 
				25.898,28.599 			"/>
			
				<polygon fill="#46A260" stroke="#46A260" stroke-width="0.1343" stroke-linecap="round" stroke-linejoin="round" stroke-miterlimit="10" points="
				13.509,45.353 25.898,28.599 25.886,45.362 			"/>
		</g>
	</g>
	<g>
		<g>
			<rect x="76.187" y="34.623" fill="#906037" width="8.265" height="33.675"/>
			<rect x="76.187" y="34.621" fill="#814F2A" width="4.133" height="33.676"/>
		</g>
		<g>
			<polygon fill="#54B16E" stroke="#54B16E" stroke-width="0.1514" stroke-miterlimit="10" points="97.651,27.643 63.412,27.618 
				80.549,5.149 			"/>
			
				<polygon fill="#46A260" stroke="#46A260" stroke-width="0.1706" stroke-linecap="round" stroke-linejoin="round" stroke-miterlimit="10" points="
				63.412,27.618 80.549,5.149 80.531,27.629 			"/>
		</g>
		<g>
			<polygon fill="#54B16E" stroke="#54B16E" stroke-width="0.1871" stroke-miterlimit="10" points="101.619,38.022 59.431,37.992 
				80.546,10.148 			"/>
			
				<polygon fill="#46A260" stroke="#46A260" stroke-width="0.2108" stroke-linecap="round" stroke-linejoin="round" stroke-miterlimit="10" points="
				59.431,37.992 80.546,10.148 80.525,38.008 			"/>
		</g>
		<g>
			<polygon fill="#54B16E" stroke="#54B16E" stroke-width="0.218" stroke-miterlimit="10" points="105.392,48.221 55.644,48.186 
				80.541,16.114 			"/>
			
				<polygon fill="#46A260" stroke="#46A260" stroke-width="0.2457" stroke-linecap="round" stroke-linejoin="round" stroke-miterlimit="10" points="
				55.644,48.186 80.541,16.114 80.518,48.204 			"/>
		</g>
		<g>
			<polygon fill="#54B16E" stroke="#54B16E" stroke-width="0.2407" stroke-miterlimit="10" points="107.977,57.944 53.044,57.905 
				80.535,22.489 			"/>
			
				<polygon fill="#46A260" stroke="#46A260" stroke-width="0.2713" stroke-linecap="round" stroke-linejoin="round" stroke-miterlimit="10" points="
				53.044,57.905 80.535,22.489 80.51,57.925 			"/>
		</g>
		<g>
			<polygon fill="#54B16E" stroke="#54B16E" stroke-width="0.1192" stroke-miterlimit="10" points="93.812,18.085 67.267,18.065 
				80.552,0.1 			"/>
			
				<polygon fill="#46A260" stroke="#46A260" stroke-width="0.1343" stroke-linecap="round" stroke-linejoin="round" stroke-miterlimit="10" points="
				67.267,18.065 80.552,0.1 80.54,18.075 			"/>
		</g>
	</g>
</g>
</svg>
