<?xml version="1.0" encoding="utf-8"?>
<!-- Generator: Adobe Illustrator 15.0.2, SVG Export Plug-In . SVG Version: 6.00 Build 0)  -->
<!DOCTYPE svg PUBLIC "-//W3C//DTD SVG 1.1//EN" "http://www.w3.org/Graphics/SVG/1.1/DTD/svg11.dtd">
<svg version="1.1" id="Lager_1" xmlns="http://www.w3.org/2000/svg" xmlns:xlink="http://www.w3.org/1999/xlink" x="0px" y="0px"
	 width="242.833px" height="141.806px" viewBox="0 0 242.833 141.806" enable-background="new 0 0 242.833 141.806"
	 xml:space="preserve">
<g>
	<polyline fill="#EFC1D7" points="117.095,105.267 103.589,141.549 86.299,141.549 92.844,132.929 99.242,104.221 	"/>
	<polyline fill="#EFC1D7" points="195.588,82.78 226.385,105.256 226.467,132.875 222.907,141.806 239.506,141.806 238.682,92.593 
		215.299,56.756 181.381,23.256 	"/>
	<path fill="#FFFFFF" d="M216.682,0"/>
	<path fill="#F3DFEA" d="M9.334,50.304c0,0,10.285-11.956,13.926-16.335c16.074-19.328,35.539-21.237,58.617-25.81L166.321,0.5
		c0,0,93.512-4.859,58.252,82.031l-28.984,59.018h-17.289l6.344-8.62l14.6-28.708l-5.469-13.656c0,0-39.51,35.102-98.678,14.702
		L81.59,141.549H64.299l6.545-8.62l6.398-28.708c0,0-11.908-6.467-19.179-18.809c-23.01-2.881-39.396-12.105-45.396-19.438H0v-15.67
		H9.334z"/>
	<polygon fill="#EFC1D7" points="40,45.887 26,8.562 58.666,15.723 	"/>
	<path fill="#1C1D1A" d="M30.98,41.519c0,1.427-1.164,2.587-2.588,2.587c-1.43,0-2.592-1.16-2.592-2.587
		c0-1.429,1.162-2.591,2.592-2.591C29.816,38.928,30.98,40.09,30.98,41.519z"/>
	<path fill="none" stroke="#F3DFEA" stroke-width="3" stroke-linecap="round" stroke-miterlimit="10" d="M225.016,24.229
		c6.402-0.842,14.365-3.143,13.531-9.488c-0.389-2.952-3.096-5.03-6.047-4.642c-2.953,0.388-5.031,3.095-4.643,6.047
		c0,0,0.725,8.494,13.475,8.494"/>
</g>
</svg>
