<?xml version="1.0" encoding="utf-8"?>
<!-- Generator: Adobe Illustrator 15.0.2, SVG Export Plug-In . SVG Version: 6.00 Build 0)  -->
<!DOCTYPE svg PUBLIC "-//W3C//DTD SVG 1.1//EN" "http://www.w3.org/Graphics/SVG/1.1/DTD/svg11.dtd">
<svg version="1.1" id="Lager_1" xmlns="http://www.w3.org/2000/svg" xmlns:xlink="http://www.w3.org/1999/xlink" x="0px" y="0px"
	 width="389.39px" height="291.521px" viewBox="0 0 389.39 291.521" enable-background="new 0 0 389.39 291.521"
	 xml:space="preserve">
<path fill="#D9DADB" stroke="#D9DADB" stroke-width="3.9516" stroke-linecap="round" stroke-linejoin="round" stroke-miterlimit="10" d="
	M-346.919,13.692"/>
<rect x="-469.329" y="82.056" fill="#E7E7E8" stroke="#E7E7E8" stroke-width="4.5742" stroke-linecap="round" stroke-linejoin="round" stroke-miterlimit="10" width="7.532" height="15.5"/>
<rect x="-593.481" y="104.439" fill="#ECEDED" stroke="#ECEDED" stroke-width="5" stroke-linecap="round" stroke-linejoin="round" stroke-miterlimit="10" width="255.837" height="7.833"/>
<rect x="-487.563" y="77.972" fill="#9C9E9F" stroke="#9C9E9F" stroke-width="5" stroke-linecap="round" stroke-linejoin="round" stroke-miterlimit="10" width="44.167" height="8.167"/>
<g>
	<rect x="-593.481" y="104.439" fill="#E7E7E8" width="127.918" height="7.833"/>
	<path fill="#E7E7E8" d="M-465.562,114.772h-127.918c-1.381,0-2.5-1.119-2.5-2.5v-7.833c0-1.381,1.119-2.5,2.5-2.5h127.918V114.772z
		 M-590.981,109.772h122.918v-2.833h-122.918V109.772z"/>
</g>
<g>
	<rect x="-487.563" y="77.972" fill="#87888A" width="22.083" height="8.167"/>
	<path fill="#87888A" d="M-465.479,88.639h-22.083c-1.381,0-2.5-1.119-2.5-2.5v-8.167c0-1.381,1.119-2.5,2.5-2.5h22.083V88.639z
		 M-485.063,83.639h17.083v-3.167h-17.083V83.639z"/>
</g>
<g>
	<g>
		<path fill="#C8E8F7" d="M174.15,79.197c0-12.965-10.51-23.472-23.475-23.472c-12.967,0-23.48,10.507-23.48,23.472
			s10.513,23.478,23.48,23.478C163.64,102.675,174.15,92.162,174.15,79.197z"/>
		<path fill="#C8E8F7" d="M211.627,96.039c0-12.97-10.51-23.48-23.48-23.48c-12.965,0-23.478,10.511-23.478,23.48
			c0,12.962,10.513,23.473,23.478,23.473C201.117,119.511,211.627,109.001,211.627,96.039z"/>
		<path fill="#C8E8F7" d="M285.726,96.039c0-12.97-10.514-23.48-23.48-23.48s-23.479,10.511-23.479,23.48
			c0,12.962,10.512,23.473,23.479,23.473S285.726,109.001,285.726,96.039z"/>
		<path fill="#E4F4FC" d="M314.382,109.193c0-12.962-10.505-23.475-23.476-23.475c-12.964,0-23.478,10.513-23.478,23.475
			s10.514,23.475,23.478,23.475C303.877,132.668,314.382,122.155,314.382,109.193z"/>
		<path fill="#E4F4FC" d="M285.726,112.286c0-12.965-10.514-23.481-23.48-23.481s-23.479,10.516-23.479,23.481
			c0,12.964,10.512,23.475,23.479,23.475S285.726,125.25,285.726,112.286z"/>
		<path fill="#E4F4FC" d="M119.876,91.881c0-12.965-10.508-23.475-23.478-23.475c-12.962,0-23.478,10.51-23.478,23.475
			s10.516,23.478,23.478,23.478C109.368,115.359,119.876,104.846,119.876,91.881z"/>
		<path fill="#E4F4FC" d="M150.675,91.881c0-12.965-10.51-23.475-23.48-23.475c-12.965,0-23.476,10.51-23.476,23.475
			s10.511,23.478,23.476,23.478C140.165,115.359,150.675,104.846,150.675,91.881z"/>
		<path fill="#E4F4FC" d="M150.675,65.33c0-12.965-10.51-23.478-23.48-23.478c-12.965,0-23.476,10.513-23.476,23.478
			s10.511,23.475,23.476,23.475C140.165,88.805,150.675,78.295,150.675,65.33z"/>
		<path fill="#E4F4FC" d="M174.15,96.039c0-12.97-10.51-23.48-23.475-23.48c-12.967,0-23.48,10.511-23.48,23.48
			c0,12.962,10.513,23.473,23.48,23.473C163.64,119.511,174.15,109.001,174.15,96.039z"/>
		<path fill="#E4F4FC" d="M249.457,96.039c0-12.97-10.513-23.48-23.475-23.48c-12.971,0-23.481,10.511-23.481,23.48
			c0,12.962,10.51,23.473,23.481,23.473C238.944,119.511,249.457,109.001,249.457,96.039z"/>
		<path fill="#E4F4FC" d="M211.627,106.72c0-12.967-10.51-23.478-23.48-23.478c-12.965,0-23.478,10.511-23.478,23.478
			c0,12.968,10.513,23.481,23.478,23.481C201.117,130.201,211.627,119.688,211.627,106.72z"/>
		<path fill="#C8E8F7" d="M98.233,5.832c-7.311-7.315-19.161-7.317-26.477,0c-7.308,7.306-7.311,19.158,0,26.47
			c7.313,7.308,19.166,7.308,26.477,0C105.543,24.99,105.543,13.138,98.233,5.832z"/>
		<path fill="#E4F4FC" d="M98.233,32.302c-7.311,7.308-19.164,7.308-26.477,0c-7.311-7.312-7.308-19.164,0-26.47L98.233,32.302z"/>
		<path fill="#C8E8F7" d="M289.32,38.405c-4.614-4.618-12.096-4.618-16.709,0c-4.617,4.614-4.617,12.095,0,16.712
			c4.613,4.614,12.095,4.614,16.709,0C293.939,50.5,293.939,43.019,289.32,38.405z"/>
		<path fill="#E4F4FC" d="M289.32,55.117c-4.614,4.614-12.096,4.614-16.709,0c-4.617-4.617-4.617-12.098,0-16.712L289.32,55.117z"/>
		<path fill="#E4F4FC" d="M152.708,7.044c-2.749-2.754-7.208-2.754-9.955,0c-2.754,2.746-2.754,7.209,0,9.96
			c2.746,2.746,7.206,2.746,9.955,0C155.46,14.253,155.46,9.79,152.708,7.044z"/>
		<path fill="#E4F4FC" d="M152.708,17.004c-2.749,2.746-7.208,2.746-9.955,0c-2.754-2.751-2.754-7.214,0-9.96L152.708,17.004z"/>
		<path fill="#E4F4FC" d="M311.535,2.062c-2.754-2.75-7.214-2.75-9.963,0s-2.749,7.205,0,9.956c2.749,2.753,7.209,2.753,9.963,0
			C314.281,9.267,314.281,4.812,311.535,2.062z"/>
	</g>
	<g>
		
			<path fill="#E7E7E8" stroke="#E7E7E8" stroke-width="4.2344" stroke-linecap="round" stroke-linejoin="round" stroke-miterlimit="10" d="
			M57.274,137.841c0,1.403-1.138,2.541-2.541,2.541H4.658c-1.403,0-2.541-1.138-2.541-2.541v-11.254
			c0-1.403,1.138-2.541,2.541-2.541h50.076c1.403,0,2.541,1.138,2.541,2.541V137.841z"/>
		<g>
			<path fill="#C6C7C8" d="M2.117,132.214v5.627c0,1.403,1.138,2.541,2.541,2.541h50.076c1.403,0,2.541-1.138,2.541-2.541v-5.627
				H2.117z"/>
			<path fill="#C6C7C8" d="M59.392,132.214v5.627c0,2.568-2.089,4.658-4.658,4.658H4.658c-2.568,0-4.658-2.089-4.658-4.658v-5.627
				H59.392z M4.234,134.331v3.51c0,0.234,0.19,0.423,0.423,0.423h50.076c0.233,0,0.423-0.189,0.423-0.423v-3.51H4.234z"/>
		</g>
	</g>
	<g>
		
			<path fill="#E7E7E8" stroke="#E7E7E8" stroke-width="4.2344" stroke-linecap="round" stroke-linejoin="round" stroke-miterlimit="10" d="
			M387.273,137.841c0,1.403-1.139,2.541-2.541,2.541h-50.076c-1.402,0-2.541-1.138-2.541-2.541v-11.254
			c0-1.403,1.139-2.541,2.541-2.541h50.076c1.402,0,2.541,1.138,2.541,2.541V137.841z"/>
		<g>
			<path fill="#C6C7C8" d="M332.115,132.214v5.627c0,1.403,1.139,2.541,2.541,2.541h50.076c1.402,0,2.541-1.138,2.541-2.541v-5.627
				H332.115z"/>
			<path fill="#C6C7C8" d="M389.39,132.214v5.627c0,2.568-2.09,4.658-4.658,4.658h-50.076c-2.568,0-4.658-2.089-4.658-4.658v-5.627
				H389.39z M334.232,134.331v3.51c0,0.234,0.19,0.423,0.424,0.423h50.076c0.233,0,0.424-0.189,0.424-0.423v-3.51H334.232z"/>
		</g>
	</g>
	<g>
		
			<rect x="66.77" y="108.31" fill="#ECEDED" stroke="#ECEDED" stroke-width="5" stroke-linecap="round" stroke-linejoin="round" stroke-miterlimit="10" width="255.837" height="180.711"/>
		<g>
			<rect x="66.77" y="108.31" fill="#E7E7E8" width="127.918" height="180.711"/>
			<path fill="#E7E7E8" d="M194.688,291.521H66.77c-1.381,0-2.5-1.119-2.5-2.5V108.31c0-1.381,1.119-2.5,2.5-2.5h127.918V291.521z
				 M69.27,286.521h122.918V110.81H69.27V286.521z"/>
		</g>
	</g>
</g>
</svg>
