<?xml version="1.0" encoding="utf-8"?>
<!-- Generator: Adobe Illustrator 15.0.2, SVG Export Plug-In . SVG Version: 6.00 Build 0)  -->
<!DOCTYPE svg PUBLIC "-//W3C//DTD SVG 1.1//EN" "http://www.w3.org/Graphics/SVG/1.1/DTD/svg11.dtd">
<svg version="1.1" id="Layer_1" xmlns="http://www.w3.org/2000/svg" xmlns:xlink="http://www.w3.org/1999/xlink" x="0px" y="0px"
	 width="1521.705px" height="111.281px" viewBox="0 0 1521.705 111.281" enable-background="new 0 0 1521.705 111.281"
	 xml:space="preserve">
<g>
	<g>
		<line fill="none" x1="1475.173" y1="72.311" x2="1492.543" y2="82.164"/>
		<path fill="#EDBB9A" d="M1453.794,41.06"/>
		<path fill="#EDBB9A" d="M1451.715,61.334c10.583,2.075,19.46,5.814,23.055,7.516c0,0,11.521,4.122,17.341,14.844
			c0,0,7.184,13.884-1.819,22.754c-3.539,3.489-9.606,7.235-15.688,1.688l-2.651-1.978l-0.289-0.23
			c-11.406-9.068-30.06-15.914-39.466-12.507c0,0-24.993,3.453-36.154,1.937c-14.635-2.857-36.2-9.489-39.239-27.976H658.219V6.222
			h804.513h5.724c29.409,0,53.25,23.841,53.25,53.25c0,10.026-2.771,19.405-7.59,27.414l-1.498,2.296l-0.41,0.667l-0.316,0.606
			c-3.899,6.032-11.953,7.76-17.985,3.86c-6.033-3.901-7.761-11.955-3.861-17.985l0.628-1.091l0.113-0.175h0.008
			c3.096-4.422,4.912-9.799,4.912-15.593c0-15.026-12.225-27.25-27.25-27.25c0,0-11.161-0.287-18.911,7.713
			c-9.877,11.045-3.089,18.219-0.583,20.314C1449.543,60.737,1451.717,61.334,1451.715,61.334z"/>
		<line fill="none" x1="1455.157" y1="96.803" x2="1460.396" y2="84.502"/>
		<path fill="#FDEADF" d="M1455.42,96.915l5.238-12.302c0.063-0.141-0.003-0.311-0.149-0.37c-0.146-0.063-0.312,0.002-0.375,0.147
			l-5.239,12.301L1455.42,96.915z"/>
		<line fill="none" x1="1451.051" y1="95.139" x2="1456.329" y2="82.769"/>
		<path fill="#FDEADF" d="M1451.259,95.358l5.332-12.478c0.062-0.146-0.007-0.312-0.15-0.373c-0.146-0.062-0.313,0.005-0.374,0.15
			l-5.333,12.473L1451.259,95.358z"/>
		
			<path fill="#FDEADF" stroke="#FDEADF" stroke-width="0.5705" stroke-linecap="round" stroke-linejoin="round" stroke-miterlimit="10" d="
			M1463.301,100.319l4.795-8.342c0.275-0.479,0.888-0.644,1.367-0.369l8.621,4.953c5.079,2.92,6.926,9.271,4.008,14.349
			c-2.368,0.246-4.926-0.44-7.487-2.774l-2.651-1.978l-0.289-0.23c-2.504-1.99-5.357-3.873-8.385-5.564"/>
		<path fill="#FFFFFF" d="M1479.763,111.106c0.939,0.319,2.36,0.106,2.429,0.088c0.067-0.019,0.209-0.235,0.209-0.235
			c2.919-5.08,1.015-11.64-4.065-14.558l0,0c4.121,2.365,4.606,9.593,2.239,13.716
			C1480.575,110.117,1480.11,110.957,1479.763,111.106z"/>
		
			<path fill="#FDEADF" stroke="#FDEADF" stroke-width="0.5705" stroke-linecap="round" stroke-linejoin="round" stroke-miterlimit="10" d="
			M1517.457,79.975l-5.412-3.844c-0.439-0.338-1.067-0.256-1.406,0.183l-6.072,7.872c-3.577,4.641-5.162,8.315-0.524,11.892
			c2.283-0.677,3.104-0.72,6.078-3.442l1.771-2.181l0.181-0.324c1.553-2.797,3.938-6.673,5.425-10.124"/>
		<path fill="#FFFFFF" d="M1506.418,95.594c-0.742,0.653-2.29,0.778-2.359,0.788c-0.068,0.008-0.283-0.139-0.283-0.139
			c-4.638-3.58-3.077-7.469,0.5-12.107l0,0c-2.903,3.76-2.898,7.725,0.867,10.631C1505.142,94.766,1506.041,95.584,1506.418,95.594z
			"/>
		
			<line fill="none" stroke="#FDEADF" stroke-width="0.5705" stroke-linecap="round" stroke-miterlimit="10" x1="1509.41" y1="36.931" x2="1514.431" y2="33.346"/>
		
			<line fill="none" stroke="#FDEADF" stroke-width="0.5705" stroke-linecap="round" stroke-miterlimit="10" x1="1506.825" y1="33.345" x2="1512.212" y2="29.516"/>
		
			<line fill="none" stroke="#FDEADF" stroke-width="0.5705" stroke-linecap="round" stroke-miterlimit="10" x1="1504.239" y1="29.758" x2="1509.594" y2="25.933"/>
	</g>
	<rect x="0" y="2.5" fill="#3B4A61" width="1312.794" height="69.812"/>
	<rect x="0" y="36.931" fill="#344054" width="1312.794" height="34.904"/>
	
		<rect x="1281.294" y="2.5" fill="#27303F" stroke="#27303F" stroke-width="5" stroke-linecap="round" stroke-linejoin="round" stroke-miterlimit="10" width="31.5" height="69.336"/>
</g>
</svg>
