<?xml version="1.0" encoding="utf-8"?>
<!-- Generator: Adobe Illustrator 15.0.2, SVG Export Plug-In . SVG Version: 6.00 Build 0)  -->
<!DOCTYPE svg PUBLIC "-//W3C//DTD SVG 1.1//EN" "http://www.w3.org/Graphics/SVG/1.1/DTD/svg11.dtd">
<svg version="1.1" id="Lager_1" xmlns="http://www.w3.org/2000/svg" xmlns:xlink="http://www.w3.org/1999/xlink" x="0px" y="0px"
	 width="237.421px" height="401.37px" viewBox="0 0 237.421 401.37" enable-background="new 0 0 237.421 401.37"
	 xml:space="preserve">
<rect x="0.347" y="136.988" fill="#F2A095" stroke="#F2A095" stroke-width="0.6948" stroke-miterlimit="10" width="236.727" height="264.022"/>
<rect x="0.347" y="29.641" fill="#786854" stroke="#786854" stroke-width="0.6265" stroke-miterlimit="10" width="236.727" height="107.347"/>
<rect x="0.029" y="29.323" fill="#604C3F" width="118.363" height="107.619"/>
<rect x="65.259" y="0.313" fill="#786854" stroke="#786854" stroke-width="0.6265" stroke-miterlimit="10" width="33.555" height="62"/>
<polygon opacity="0.7" fill="#E6837C" points="118.71,401.01 0.029,401.37 0.029,137.26 118.71,137.26 "/>
<path fill="#A38978" stroke="#A38978" stroke-width="0.7141" stroke-miterlimit="10" d="M35.222,338"/>
<path fill="#C5E0E9" d="M53.18,263.344"/>
<path fill="#A38978" stroke="#A38978" stroke-width="0.7141" stroke-miterlimit="10" d="M51.423,337.684"/>
<path fill="#A38978" stroke="#A38978" stroke-width="0.7141" stroke-miterlimit="10" d="M92.939,338"/>
<path fill="#C5E0E9" d="M110.896,263.344"/>
<path fill="#A38978" stroke="#A38978" stroke-width="0.7141" stroke-miterlimit="10" d="M109.14,337.684"/>
<g>
	<g>
		
			<rect x="35.302" y="217.413" fill="#A04945" stroke="#A04945" stroke-width="0.995" stroke-miterlimit="10" width="17.188" height="21.992"/>
		
			<rect x="35.302" y="191.427" fill="#A04945" stroke="#A04945" stroke-width="0.995" stroke-miterlimit="10" width="17.188" height="21.989"/>
		
			<rect x="56.667" y="191.427" fill="#A04945" stroke="#A04945" stroke-width="0.995" stroke-miterlimit="10" width="17.187" height="21.989"/>
		
			<rect x="56.667" y="217.413" fill="#A04945" stroke="#A04945" stroke-width="0.995" stroke-miterlimit="10" width="17.187" height="21.992"/>
	</g>
	<g>
		
			<rect x="35.302" y="307.175" fill="#A04945" stroke="#A04945" stroke-width="0.995" stroke-miterlimit="10" width="17.188" height="21.991"/>
		
			<rect x="35.302" y="281.19" fill="#A04945" stroke="#A04945" stroke-width="0.995" stroke-miterlimit="10" width="17.188" height="21.988"/>
		
			<rect x="56.667" y="281.19" fill="#A04945" stroke="#A04945" stroke-width="0.995" stroke-miterlimit="10" width="17.187" height="21.988"/>
		
			<rect x="56.667" y="307.175" fill="#A04945" stroke="#A04945" stroke-width="0.995" stroke-miterlimit="10" width="17.187" height="21.991"/>
	</g>
</g>
<rect x="99.436" y="217.413" fill="#A04945" stroke="#A04945" stroke-width="0.995" stroke-miterlimit="10" width="17.188" height="21.992"/>
<rect x="99.436" y="191.427" fill="#A04945" stroke="#A04945" stroke-width="0.995" stroke-miterlimit="10" width="17.188" height="21.989"/>
<rect x="120.801" y="191.427" fill="#B45F57" stroke="#B45F57" stroke-width="0.995" stroke-miterlimit="10" width="17.186" height="21.989"/>
<rect x="120.801" y="217.413" fill="#B45F57" stroke="#B45F57" stroke-width="0.995" stroke-miterlimit="10" width="17.186" height="21.992"/>
<rect x="99.436" y="307.175" fill="#A04945" stroke="#A04945" stroke-width="0.995" stroke-miterlimit="10" width="17.188" height="21.991"/>
<rect x="99.436" y="281.19" fill="#A04945" stroke="#A04945" stroke-width="0.995" stroke-miterlimit="10" width="17.188" height="21.988"/>
<rect x="120.801" y="281.19" fill="#B45F57" stroke="#B45F57" stroke-width="0.995" stroke-miterlimit="10" width="17.186" height="21.988"/>
<rect x="120.801" y="307.175" fill="#B45F57" stroke="#B45F57" stroke-width="0.995" stroke-miterlimit="10" width="17.186" height="21.991"/>
<g>
	<g>
		
			<rect x="163.57" y="217.413" fill="#B45F57" stroke="#B45F57" stroke-width="0.995" stroke-miterlimit="10" width="17.188" height="21.992"/>
		
			<rect x="163.57" y="191.427" fill="#B45F57" stroke="#B45F57" stroke-width="0.995" stroke-miterlimit="10" width="17.188" height="21.989"/>
		
			<rect x="184.935" y="191.427" fill="#B45F57" stroke="#B45F57" stroke-width="0.995" stroke-miterlimit="10" width="17.186" height="21.989"/>
		
			<rect x="184.935" y="217.413" fill="#B45F57" stroke="#B45F57" stroke-width="0.995" stroke-miterlimit="10" width="17.186" height="21.992"/>
	</g>
	
		<rect x="163.57" y="281.19" fill="#B45F57" stroke="#B45F57" stroke-width="0.995" stroke-miterlimit="10" width="17.188" height="21.988"/>
	
		<rect x="184.935" y="281.19" fill="#B45F57" stroke="#B45F57" stroke-width="0.995" stroke-miterlimit="10" width="17.186" height="21.988"/>
	
		<rect x="163.57" y="307.177" fill="#B45F57" stroke="#B45F57" stroke-width="0.995" stroke-miterlimit="10" width="17.188" height="21.988"/>
	
		<rect x="184.935" y="307.177" fill="#B45F57" stroke="#B45F57" stroke-width="0.995" stroke-miterlimit="10" width="17.186" height="21.988"/>
</g>
</svg>
