<?xml version="1.0" encoding="utf-8"?>
<!-- Generator: Adobe Illustrator 15.0.2, SVG Export Plug-In . SVG Version: 6.00 Build 0)  -->
<!DOCTYPE svg PUBLIC "-//W3C//DTD SVG 1.1//EN" "http://www.w3.org/Graphics/SVG/1.1/DTD/svg11.dtd">
<svg version="1.1" id="Lager_1" xmlns="http://www.w3.org/2000/svg" xmlns:xlink="http://www.w3.org/1999/xlink" x="0px" y="0px"
	 width="273.74px" height="139.377px" viewBox="0 0 273.74 139.377" enable-background="new 0 0 273.74 139.377"
	 xml:space="preserve">
<path fill="#BE3B28" d="M40.056,0.807c-3.372-2.051-8.333-0.056-11.082,4.458c-0.037,0.062-0.067,0.123-0.104,0.185
	c-0.399-0.754-0.955-1.38-1.671-1.816c-3.027-1.842-7.708,0.324-10.458,4.838c-2.746,4.515-2.52,9.668,0.508,11.513
	c3.027,1.843,7.709-0.325,10.457-4.838c0.086-0.143,0.162-0.286,0.243-0.431c0.486,1.013,1.203,1.861,2.157,2.443
	c3.373,2.053,8.333,0.055,11.082-4.459C43.936,8.184,43.429,2.862,40.056,0.807z"/>
<g>
	<polyline fill="#F9B61E" stroke="#F9B61E" stroke-width="0.1561" stroke-miterlimit="10" points="11.602,26.36 0.329,19.697 
		15.114,20.828 	"/>
</g>
<g>
	<polyline fill="#F9B61E" stroke="#F9B61E" stroke-width="0.1561" stroke-miterlimit="10" points="13.564,27.608 1.052,30.318 
		11.708,22.705 	"/>
</g>
<g>
	<path fill="#BE3B28" d="M15.923,51.047c0,0,2.438-0.257,4.294-2.447c4.038-5.436-0.366-10.609-0.366-10.609l-7.229-9.414
		L8.408,39.671c0,0-2.729,6.222,2.699,10.268C13.516,51.501,15.923,51.047,15.923,51.047z"/>
</g>
<path fill="#FFFFFF" stroke="#FFFFFF" stroke-width="1.1776" stroke-miterlimit="10" d="M22.356,49.45
	c0,0-16.661,78.938,50.144,76.23c0,0,16.192-0.277,33.855-8.717c11.094-5.301,15.311-9.225,24.729-8.636
	c18.84,1.179,14.521-14.129,12.562-17.271c0,0,21.195-5.103,8.34-21.589c13.837-9.715,8.538-20.411-0.588-22.08
	c0,0,5.593-8.93,0.49-15.995c0,0-6.674-12.267-23.159,0.981c-16.486,13.247-21,19.625-28.654,20.214
	C92.421,53.177,81.92,44.74,72.5,37.086S46.298,8.53,28.929,8.824C11.56,9.118,5.96,21.775,13.72,30.217
	C19.314,36.303,24.219,40.913,22.356,49.45z"/>
<path fill="#C89D64" stroke="#C89D64" stroke-width="1.1776" stroke-miterlimit="10" d="M66.897,31.593
	c-9.421-7.654-21-23.062-38.369-22.77C11.159,9.117,5.56,21.775,13.318,30.217c5.594,6.086,10.5,10.696,8.637,19.233
	c0,0,3.529,7.46,12.755,0.197c7.851,4.711,12.169-2.551,12.169-2.551s9.812,2.551,12.561-6.281
	C71.411,41.404,66.897,31.593,66.897,31.593z"/>
<path fill="#1E1E1C" d="M16.958,18.798c0,0.886-0.723,1.606-1.606,1.606c-0.888,0-1.608-0.721-1.608-1.606
	c0-0.888,0.722-1.608,1.608-1.608C16.236,17.189,16.958,17.91,16.958,18.798z"/>
</svg>
