<?xml version="1.0" encoding="utf-8"?>
<!-- Generator: Adobe Illustrator 15.0.2, SVG Export Plug-In . SVG Version: 6.00 Build 0)  -->
<!DOCTYPE svg PUBLIC "-//W3C//DTD SVG 1.1//EN" "http://www.w3.org/Graphics/SVG/1.1/DTD/svg11.dtd">
<svg version="1.1" id="Lager_1" xmlns="http://www.w3.org/2000/svg" xmlns:xlink="http://www.w3.org/1999/xlink" x="0px" y="0px"
	 width="96.22px" height="56.084px" viewBox="0 0 96.22 56.084" enable-background="new 0 0 96.22 56.084" xml:space="preserve">
<g>
	<g>
		<path fill="#FFFFFF" stroke="#FFFFFF" stroke-width="0.6892" stroke-linejoin="round" stroke-miterlimit="10" d="M52.729,48.057
			c-1.521-1.902-2.444-4.273-2.347-7.231c2.682-1.273,4.64-1.52,7-0.893l-3.164,3.393l5.785-2.521
			c1.571,0.719,3.039,1.738,4.385,2.91l1.647,1.564c1.169,1.208,1.677,1.775,2.592,3.021l-2.354,2.883l3.721-1.004
			c2.085,3.041,3.27,5.561,3.27,5.561s-2.823-0.074-6.485-0.771l-1.339-0.274c-1.564-0.349-3.229-0.812-4.861-1.426l-0.468-5.089
			l-1.479,4.269c-1.611-0.758-3.13-1.688-4.415-2.831L52.729,48.057z"/>
		<path fill="#FFFFFF" stroke="#FFFFFF" stroke-width="0.6892" stroke-miterlimit="10" d="M67.037,51.995"/>
		<path fill="#ECECED" stroke="#ECECED" stroke-width="0.6892" stroke-linejoin="round" stroke-miterlimit="10" d="M73.262,55.739
			c0,0-1.185-2.52-3.27-5.561l-3.721,1.004l2.354-2.883c-0.915-1.246-1.423-1.812-2.592-3.021l-1.647-1.564
			c-1.346-1.172-2.812-2.191-4.385-2.91l-5.785,2.521l3.164-3.393c-2.36-0.627-4.318-0.381-7,0.893L73.262,55.739z"/>
		<path fill="#ECECED" stroke="#ECECED" stroke-width="0.6892" stroke-miterlimit="10" d="M60.108,48.179"/>
		
			<line fill="none" stroke="#D9DBDB" stroke-width="0.9154" stroke-linecap="round" stroke-miterlimit="10" x1="63.539" y1="49.399" x2="43.313" y2="36.218"/>
	</g>
	<g>
		<path fill="#FFFFFF" stroke="#FFFFFF" stroke-width="0.6892" stroke-linejoin="round" stroke-miterlimit="10" d="M15.483,13.915
			c-2.419,0.284-4.918-0.188-7.376-1.837c0.339-2.95,1.168-4.742,2.948-6.412l1.203,4.48l0.924-6.242
			c1.441-0.954,3.083-1.66,4.789-2.181l2.199-0.568c1.645-0.354,2.396-0.484,3.937-0.602l1.199,3.524l1.118-3.688
			c3.684-0.159,6.447,0.169,6.447,0.169s-1.56,2.356-4.088,5.095l-0.942,0.989c-1.125,1.145-2.398,2.312-3.784,3.371l-4.562-2.297
			l2.837,3.513c-1.495,0.966-3.088,1.763-4.738,2.248L15.483,13.915z"/>
		<path fill="#FFFFFF" stroke="#FFFFFF" stroke-width="0.6892" stroke-miterlimit="10" d="M26.398,3.858"/>
		<path fill="#ECECED" stroke="#ECECED" stroke-width="0.6892" stroke-linejoin="round" stroke-miterlimit="10" d="M32.873,0.559
			c0,0-2.765-0.328-6.447-0.169l-1.118,3.688l-1.199-3.524C22.567,0.67,21.816,0.8,20.171,1.155l-2.199,0.568
			c-1.706,0.521-3.348,1.227-4.789,2.181l-0.924,6.242l-1.203-4.48c-1.78,1.67-2.609,3.462-2.948,6.412L32.873,0.559z"/>
		<path fill="#ECECED" stroke="#ECECED" stroke-width="0.6892" stroke-miterlimit="10" d="M19.496,7.716"/>
		
			<line fill="none" stroke="#D9DBDB" stroke-width="0.9154" stroke-linecap="round" stroke-miterlimit="10" x1="22.347" y1="5.454" x2="0.458" y2="15.634"/>
	</g>
	<g>
		<path fill="#FFFFFF" stroke="#FFFFFF" stroke-width="0.6892" stroke-linejoin="round" stroke-miterlimit="10" d="M13.368,39.626
			c-1.768-1.688-3.007-3.92-3.316-6.871c2.474-1.625,4.374-2.133,6.791-1.824l-2.656,3.795l5.365-3.28
			c1.652,0.503,3.243,1.317,4.734,2.304l1.843,1.334c1.322,1.043,1.902,1.539,2.979,2.654l-1.929,3.18l3.536-1.496
			c2.479,2.742,3.997,5.086,3.997,5.086s-2.8,0.306-6.514,0.104l-1.359-0.093c-1.595-0.138-3.303-0.375-5-0.767l-1.164-4.992
			l-0.871,4.438c-1.696-0.537-3.325-1.257-4.753-2.221L13.368,39.626z"/>
		<path fill="#FFFFFF" stroke="#FFFFFF" stroke-width="0.6892" stroke-miterlimit="10" d="M28.044,41.618"/>
		<path fill="#ECECED" stroke="#ECECED" stroke-width="0.6892" stroke-linejoin="round" stroke-miterlimit="10" d="M34.711,44.505
			c0,0-1.519-2.344-3.997-5.086l-3.536,1.496l1.929-3.18c-1.074-1.115-1.655-1.611-2.979-2.654l-1.843-1.334
			c-1.491-0.984-3.082-1.801-4.734-2.304l-5.365,3.28l2.656-3.795c-2.417-0.309-4.317,0.199-6.791,1.824L34.711,44.505z"/>
		<path fill="#ECECED" stroke="#ECECED" stroke-width="0.6892" stroke-miterlimit="10" d="M20.674,38.757"/>
		
			<line fill="none" stroke="#D9DBDB" stroke-width="0.9154" stroke-linecap="round" stroke-miterlimit="10" x1="24.23" y1="39.511" x2="2.432" y2="29.124"/>
	</g>
	<g>
		<path fill="#FFFFFF" stroke="#FFFFFF" stroke-width="0.4866" stroke-linejoin="round" stroke-miterlimit="10" d="M80.547,38.222
			c-1.399-1.002-2.481-2.438-2.982-4.467c1.578-1.377,2.862-1.916,4.587-1.939l-1.5,2.908l3.448-2.814
			c1.205,0.188,2.399,0.602,3.538,1.143l1.42,0.752c1.026,0.597,1.48,0.886,2.342,1.559l-1.047,2.407l2.336-1.39
			c2,1.668,3.288,3.154,3.288,3.154s-1.934,0.487-4.556,0.711l-0.963,0.067c-1.131,0.062-2.353,0.063-3.578-0.044L85.586,36.9
			L85.4,40.083c-1.24-0.209-2.452-0.552-3.545-1.084L80.547,38.222z"/>
		<path fill="#FFFFFF" stroke="#FFFFFF" stroke-width="0.4866" stroke-miterlimit="10" d="M91.026,38.173"/>
		<path fill="#ECECED" stroke="#ECECED" stroke-width="0.4866" stroke-linejoin="round" stroke-miterlimit="10" d="M95.977,39.534
			c0,0-1.288-1.486-3.288-3.154l-2.336,1.39l1.047-2.407c-0.86-0.673-1.314-0.962-2.342-1.559l-1.42-0.752
			c-1.139-0.541-2.333-0.953-3.538-1.143l-3.448,2.814l1.5-2.908c-1.725,0.023-3.009,0.562-4.587,1.939L95.977,39.534z"/>
		<path fill="#ECECED" stroke="#ECECED" stroke-width="0.4866" stroke-miterlimit="10" d="M85.586,36.9"/>
		
			<line fill="none" stroke="#D9DBDB" stroke-width="0.6463" stroke-linecap="round" stroke-miterlimit="10" x1="88.151" y1="37.079" x2="71.876" y2="31.97"/>
	</g>
	<g>
		<path fill="#FFFFFF" stroke="#FFFFFF" stroke-width="0.3936" stroke-linejoin="round" stroke-miterlimit="10" d="M50,20.974
			c-1.357-0.316-2.612-1.057-3.619-2.418c0.752-1.516,1.543-2.316,2.824-2.865l-0.217,2.637l1.701-3.168
			c0.96-0.231,1.98-0.292,2.999-0.239l1.295,0.124c0.954,0.129,1.384,0.204,2.236,0.44l-0.034,2.123l1.313-1.761
			c2.014,0.631,3.438,1.344,3.438,1.344s-1.294,0.961-3.184,1.938l-0.698,0.349c-0.827,0.395-1.737,0.772-2.688,1.072l-2.017-2.119
			l0.853,2.437c-0.991,0.228-2.005,0.345-2.986,0.284L50,20.974z"/>
		<path fill="#FFFFFF" stroke="#FFFFFF" stroke-width="0.3936" stroke-miterlimit="10" d="M57.816,17.703"/>
		<path fill="#ECECED" stroke="#ECECED" stroke-width="0.3936" stroke-linejoin="round" stroke-miterlimit="10" d="M61.938,17.19
			c0,0-1.426-0.713-3.438-1.344l-1.313,1.761l0.034-2.123c-0.854-0.236-1.282-0.312-2.236-0.44l-1.295-0.124
			c-1.019-0.053-2.039,0.008-2.999,0.239l-1.701,3.168l0.217-2.637c-1.281,0.549-2.072,1.35-2.824,2.865L61.938,17.19z"/>
		<path fill="#ECECED" stroke="#ECECED" stroke-width="0.3936" stroke-miterlimit="10" d="M53.354,18.429"/>
		
			<line fill="none" stroke="#D9DBDB" stroke-width="0.5228" stroke-linecap="round" stroke-miterlimit="10" x1="55.328" y1="17.771" x2="41.575" y2="18.978"/>
	</g>
</g>
</svg>
