<?xml version="1.0" encoding="utf-8"?>
<!-- Generator: Adobe Illustrator 15.0.2, SVG Export Plug-In . SVG Version: 6.00 Build 0)  -->
<!DOCTYPE svg PUBLIC "-//W3C//DTD SVG 1.1//EN" "http://www.w3.org/Graphics/SVG/1.1/DTD/svg11.dtd">
<svg version="1.1" id="Lager_1" xmlns="http://www.w3.org/2000/svg" xmlns:xlink="http://www.w3.org/1999/xlink" x="0px" y="0px"
	 width="568.445px" height="122.966px" viewBox="0 0 568.445 122.966" enable-background="new 0 0 568.445 122.966"
	 xml:space="preserve">
<g>
	<g>
		<rect x="4.837" y="4.877" fill="#905F37" width="107.452" height="113.211"/>
		<rect x="117.567" y="4.877" fill="#905F37" width="107.451" height="113.211"/>
		<g>
			<g>
				<path fill="#B08048" d="M0,0v122.966h568.445V0H0z M337.749,118.088H230.298V4.877h107.451V118.088z"/>
			</g>
		</g>
		<rect x="343.028" y="4.877" fill="#905F37" width="107.452" height="113.211"/>
		<rect x="117.567" y="4.877" fill="#905F37" width="107.452" height="113.211"/>
		<rect x="4.837" y="4.877" fill="#905F37" width="107.452" height="113.211"/>
		<g>
			<rect x="455.316" y="4.877" fill="#905F37" width="107.451" height="113.211"/>
		</g>
	</g>
	
		<line fill="none" stroke="#F8B335" stroke-width="5.8879" stroke-linecap="round" stroke-miterlimit="10" x1="168.109" y1="94.424" x2="168.109" y2="111.269"/>
	<path fill="#BD3A27" d="M145.951,26.284c-1.916-1.166-4.736-0.031-6.299,2.535c-0.021,0.035-0.038,0.07-0.059,0.105
		c-0.228-0.429-0.542-0.785-0.949-1.033c-1.721-1.047-4.382,0.184-5.945,2.75c-1.561,2.566-1.432,5.495,0.29,6.544
		c1.719,1.047,4.382-0.185,5.942-2.75c0.05-0.081,0.092-0.163,0.139-0.245c0.277,0.576,0.684,1.058,1.226,1.389
		c1.917,1.167,4.736,0.031,6.299-2.534C148.157,30.478,147.869,27.452,145.951,26.284z"/>
	<g>
		<polyline fill="#F9B621" stroke="#F9B621" stroke-width="0.1561" stroke-miterlimit="10" points="132.914,44.334 125.717,43.256 
			132.077,37.725 		"/>
	</g>
	<g>
		<path fill="#BD3A27" d="M134.724,56.956c0,0,1.384-0.146,2.44-1.392c2.296-3.089-0.209-6.03-0.209-6.03l-4.107-5.351l-2.396,6.306
			c0,0-1.552,3.537,1.534,5.836C133.355,57.213,134.724,56.956,134.724,56.956z"/>
	</g>
	<path fill="#C79C63" stroke="#C79C63" stroke-width="1.1776" stroke-miterlimit="10" d="M138.38,56.048
		c0,0-9.47,44.869,28.503,43.331c0,0,9.203-0.158,19.244-4.955c6.306-3.013,8.703-5.242,14.057-4.908
		c10.708,0.67,8.254-8.03,7.14-9.815c0,0,12.047-2.901,4.74-12.272c7.864-5.522,4.853-11.602-0.334-12.55
		c0,0,3.178-5.076,0.278-9.092c0,0-3.793-6.972-13.164,0.559c-9.371,7.529-11.937,11.154-16.288,11.489
		c-4.351,0.334-10.319-4.462-15.673-8.812c-5.354-4.351-14.893-16.231-24.766-16.064c-9.873,0.167-13.056,7.362-8.645,12.16
		C136.651,48.575,139.439,51.195,138.38,56.048z"/>
	<path fill="#A57A42" stroke="#A57A42" stroke-width="1.1776" stroke-miterlimit="10" d="M163.698,45.898
		c-5.354-4.351-11.937-13.109-21.81-12.942s-13.055,7.362-8.645,12.16c3.18,3.459,5.968,6.08,4.909,10.932
		c0,0,2.006,4.24,7.25,0.112c4.462,2.678,6.917-1.45,6.917-1.45s5.578,1.45,7.139-3.57
		C166.263,51.475,163.698,45.898,163.698,45.898z"/>
	<circle fill="#1D1E1B" cx="134.398" cy="38.625" r="0.914"/>
	
		<line fill="none" stroke="#F8B335" stroke-width="5.8879" stroke-linecap="round" stroke-miterlimit="10" x1="505.859" y1="94.424" x2="505.859" y2="111.269"/>
	<path fill="#BD3A27" d="M483.701,26.284c-1.917-1.166-4.737-0.031-6.299,2.535c-0.021,0.035-0.039,0.07-0.059,0.105
		c-0.229-0.429-0.543-0.785-0.951-1.033c-1.721-1.047-4.382,0.184-5.943,2.75c-1.562,2.566-1.433,5.495,0.288,6.544
		c1.721,1.047,4.382-0.185,5.944-2.75c0.049-0.081,0.092-0.163,0.138-0.245c0.276,0.576,0.684,1.058,1.226,1.389
		c1.917,1.167,4.737,0.031,6.299-2.534C485.906,30.478,485.618,27.452,483.701,26.284z"/>
	<g>
		<polyline fill="#F9B621" stroke="#F9B621" stroke-width="0.1561" stroke-miterlimit="10" points="470.662,44.334 463.466,43.256 
			469.825,37.725 		"/>
	</g>
	<g>
		<path fill="#BD3A27" d="M472.473,56.956c0,0,1.386-0.146,2.441-1.392c2.295-3.089-0.209-6.03-0.209-6.03l-4.108-5.351
			l-2.396,6.306c0,0-1.553,3.537,1.534,5.836C471.105,57.213,472.473,56.956,472.473,56.956z"/>
	</g>
	<path fill="#7D4E26" d="M476.13,56.048c0,0-9.471,44.869,28.501,43.331c0,0,9.205-0.158,19.244-4.955
		c6.306-3.013,8.703-5.242,14.057-4.908c10.709,0.67,8.255-8.03,7.14-9.815c0,0,12.049-2.901,4.741-12.272
		c7.865-5.522,4.854-11.602-0.335-12.55c0,0,3.18-5.076,0.279-9.092c0,0-3.793-6.972-13.163,0.559
		c-9.371,7.529-11.938,11.154-16.288,11.489c-4.351,0.334-10.319-4.462-15.675-8.812c-5.354-4.351-14.893-16.231-24.766-16.064
		c-9.872,0.167-13.056,7.362-8.645,12.16C474.4,48.575,477.188,51.195,476.13,56.048z"/>
	<path fill="#A57A42" stroke="#A57A42" stroke-width="1.1776" stroke-miterlimit="10" d="M501.447,45.898
		c-5.355-4.351-11.937-13.109-21.81-12.942c-9.872,0.167-13.056,7.362-8.646,12.16c3.18,3.459,5.968,6.08,4.909,10.932
		c0,0,2.006,4.24,7.25,0.112c4.462,2.678,6.917-1.45,6.917-1.45s5.577,1.45,7.14-3.57C504.013,51.475,501.447,45.898,501.447,45.898
		z"/>
	<circle fill="#1D1E1B" cx="472.148" cy="38.625" r="0.914"/>
	
		<line fill="none" stroke="#F8B335" stroke-width="5.8879" stroke-linecap="round" stroke-miterlimit="10" x1="61.746" y1="94.424" x2="61.746" y2="111.269"/>
	<path fill="#BD3A27" d="M83.904,26.284c1.917-1.166,4.736-0.031,6.299,2.535c0.021,0.035,0.038,0.07,0.059,0.105
		c0.228-0.429,0.542-0.785,0.95-1.033c1.721-1.047,4.382,0.184,5.944,2.75c1.561,2.566,1.432,5.495-0.289,6.544
		c-1.72,1.047-4.382-0.185-5.943-2.75c-0.049-0.081-0.092-0.163-0.138-0.245c-0.276,0.576-0.684,1.058-1.226,1.389
		c-1.917,1.167-4.736,0.031-6.299-2.534C81.699,30.478,81.987,27.452,83.904,26.284z"/>
	<g>
		<polyline fill="#F9B621" stroke="#F9B621" stroke-width="0.1561" stroke-miterlimit="10" points="96.943,44.334 104.139,43.256 
			97.78,37.725 		"/>
	</g>
	<g>
		<path fill="#BD3A27" d="M95.132,56.956c0,0-1.385-0.146-2.44-1.392c-2.295-3.089,0.208-6.03,0.208-6.03l4.108-5.351l2.396,6.306
			c0,0,1.552,3.537-1.534,5.836C96.5,57.213,95.132,56.956,95.132,56.956z"/>
	</g>
	<path fill="#FFFFFF" stroke="#FFFFFF" stroke-width="1.1776" stroke-miterlimit="10" d="M91.476,56.048
		c0,0,9.47,44.869-28.502,43.331c0,0-9.204-0.158-19.244-4.955c-6.306-3.013-8.703-5.242-14.057-4.908
		c-10.709,0.67-8.254-8.03-7.14-9.815c0,0-12.048-2.901-4.74-12.272c-7.865-5.522-4.854-11.602,0.334-12.55
		c0,0-3.179-5.076-0.279-9.092c0,0,3.793-6.972,13.164,0.559c9.371,7.529,11.937,11.154,16.288,11.489
		c4.351,0.334,10.319-4.462,15.674-8.812c5.354-4.351,14.893-16.231,24.766-16.064c9.873,0.167,13.056,7.362,8.645,12.16
		C93.205,48.575,90.417,51.195,91.476,56.048z"/>
	<path fill="#D9DADB" stroke="#D9DADB" stroke-width="1.1776" stroke-miterlimit="10" d="M66.158,45.898
		c5.355-4.351,11.937-13.109,21.809-12.942c9.873,0.167,13.055,7.362,8.646,12.16c-3.179,3.459-5.968,6.08-4.909,10.932
		c0,0-2.006,4.24-7.25,0.112c-4.461,2.678-6.917-1.45-6.917-1.45s-5.578,1.45-7.139-3.57C63.592,51.475,66.158,45.898,66.158,45.898
		z"/>
	<circle fill="#1D1E1B" cx="95.458" cy="38.625" r="0.914"/>
	<g id="HÖna_1_">
		
			<line fill="none" stroke="#F8B335" stroke-width="5.8879" stroke-linecap="round" stroke-miterlimit="10" x1="399.938" y1="94.424" x2="399.938" y2="111.269"/>
		<path fill="#BD3A27" d="M422.097,26.284c1.916-1.166,4.735-0.031,6.299,2.535c0.021,0.035,0.038,0.07,0.059,0.105
			c0.228-0.429,0.542-0.785,0.949-1.033c1.721-1.047,4.382,0.184,5.945,2.75c1.561,2.566,1.433,5.495-0.29,6.544
			c-1.72,1.047-4.382-0.185-5.942-2.75c-0.05-0.081-0.093-0.163-0.139-0.245c-0.276,0.576-0.685,1.058-1.226,1.389
			c-1.918,1.167-4.736,0.031-6.3-2.534C419.891,30.478,420.18,27.452,422.097,26.284z"/>
		<g>
			<polyline fill="#F9B621" stroke="#F9B621" stroke-width="0.1561" stroke-miterlimit="10" points="435.135,44.334 442.33,43.256 
				435.972,37.725 			"/>
		</g>
		<g>
			<path fill="#BD3A27" d="M433.323,56.956c0,0-1.384-0.146-2.439-1.392c-2.296-3.089,0.208-6.03,0.208-6.03l4.108-5.351
				l2.396,6.306c0,0,1.552,3.537-1.534,5.836C434.692,57.213,433.323,56.956,433.323,56.956z"/>
		</g>
		<path fill="#FFFFFF" stroke="#FFFFFF" stroke-width="1.1776" stroke-miterlimit="10" d="M429.668,56.048
			c0,0,9.47,44.869-28.503,43.331c0,0-9.203-0.158-19.243-4.955c-6.307-3.013-8.703-5.242-14.058-4.908
			c-10.709,0.67-8.254-8.03-7.14-9.815c0,0-12.048-2.901-4.74-12.272c-7.864-5.522-4.853-11.602,0.334-12.55
			c0,0-3.178-5.076-0.278-9.092c0,0,3.793-6.972,13.164,0.559c9.371,7.529,11.937,11.154,16.288,11.489
			c4.351,0.334,10.318-4.462,15.673-8.812c5.354-4.351,14.894-16.231,24.766-16.064c9.873,0.167,13.056,7.362,8.646,12.16
			C431.396,48.575,428.608,51.195,429.668,56.048z"/>
		<path fill="#1D1E1B" d="M432.735,38.625c0,0.503,0.411,0.913,0.913,0.913c0.505,0,0.915-0.41,0.915-0.913
			c0-0.505-0.41-0.915-0.915-0.915C433.146,37.71,432.735,38.12,432.735,38.625z"/>
	</g>
	<g>
		<path id="Gräs_8_" fill="#FFD842" d="M230.286,101.267c7.941-0.634,11.503-3.634,18.571-3.979
			c7.061-0.344,14.049,2.265,18.053,2.636c6.25,0.578,10.066-0.709,17.644-3.291c6.177-2.104,13.236-2.91,21.325,0.891
			c4.23,1.987,8.823,3.743,14.43,3.743h17.506v16.772H230.363v-16.772H230.286z"/>
		<path id="Gräs_7_" fill="#FFD842" d="M4.799,101.267c7.941-0.634,11.504-3.634,18.571-3.979
			c7.061-0.344,14.049,2.265,18.053,2.636c6.25,0.578,10.066-0.709,17.644-3.291c6.176-2.104,13.236-2.91,21.325,0.891
			c4.231,1.987,8.824,3.743,14.431,3.743h17.505v16.772H4.876v-16.772H4.799z"/>
		<path id="Gräs_5_" fill="#FFD842" d="M225.057,101.267c-7.941-0.634-11.504-3.634-18.571-3.979
			c-7.061-0.344-14.049,2.265-18.052,2.636c-6.25,0.578-10.066-0.709-17.644-3.291c-6.177-2.104-13.237-2.91-21.326,0.891
			c-4.23,1.987-8.824,3.743-14.43,3.743h-17.505v16.772H224.98v-16.772H225.057z"/>
		<path id="Gräs_2_" fill="#FFD842" d="M562.807,101.267c-7.941-0.634-11.504-3.634-18.571-3.979
			c-7.061-0.344-14.049,2.265-18.052,2.636c-6.251,0.578-10.066-0.709-17.645-3.291c-6.177-2.104-13.236-2.91-21.325,0.891
			c-4.231,1.987-8.823,3.743-14.431,3.743h-17.505v16.772h107.45v-16.772H562.807z"/>
		<path id="Gräs_1_" fill="#FFD842" d="M450.52,101.267c-7.942-0.634-11.505-3.634-18.572-3.979
			c-7.06-0.344-14.049,2.265-18.053,2.636c-6.25,0.578-10.066-0.709-17.645-3.291c-6.176-2.104-13.235-2.91-21.324,0.891
			c-4.23,1.987-8.824,3.743-14.431,3.743h-17.504v16.772h107.45v-16.772H450.52z"/>
	</g>
</g>
</svg>
