<?xml version="1.0" encoding="utf-8"?>
<!-- Generator: Adobe Illustrator 15.0.2, SVG Export Plug-In . SVG Version: 6.00 Build 0)  -->
<!DOCTYPE svg PUBLIC "-//W3C//DTD SVG 1.1//EN" "http://www.w3.org/Graphics/SVG/1.1/DTD/svg11.dtd">
<svg version="1.1" id="Lager_1" xmlns="http://www.w3.org/2000/svg" xmlns:xlink="http://www.w3.org/1999/xlink" x="0px" y="0px"
	 width="162.445px" height="144.184px" viewBox="0 0 162.445 144.184" enable-background="new 0 0 162.445 144.184"
	 xml:space="preserve">
<g>
	<g>
		<rect x="68.363" fill="#5A595B" width="25.127" height="14.123"/>
		<g>
			<path fill="none" stroke="#ECECED" stroke-width="2.0399" stroke-miterlimit="10" d="M147.295,83.315
				c0,33.053-29.539,59.849-65.979,59.849s-65.98-26.795-65.98-59.849"/>
			<path fill="none" stroke="#ECECED" stroke-width="2.0399" stroke-miterlimit="10" d="M54.119,116.408
				c0,0,2.123,22.342,27.283,26.086l-0.086-26.114"/>
			<path fill="none" stroke="#ECECED" stroke-width="2.0399" stroke-miterlimit="10" d="M108.602,116.408
				c0,0-2.037,22.342-27.199,26.086"/>
			
				<line fill="none" stroke="#ECECED" stroke-width="2.0399" stroke-miterlimit="10" x1="39.285" y1="129.437" x2="123.732" y2="129.437"/>
		</g>
		<path fill="#7AC2AE" d="M159.67,110.83h-2.514c-2.525-30.777-25.281-67.939-51.975-77.271l-0.021-19.454l-5.232,0.002
			l-37.514,0.017H57.18l0.021,19.457C28.902,43.5,5.035,84.721,5.051,116.408l76.172-0.029v0.001h78.447
			c1.533,0,2.775-1.242,2.775-2.775C162.445,112.073,161.203,110.83,159.67,110.83z"/>
	</g>
	<path fill="#65B49B" d="M81.221,110.83l-0.037-96.707H57.18l0.021,19.457c-26.664,9.348-49.389,46.485-51.91,77.25H2.773
		c-1.531,0-2.773,1.243-2.773,2.775c0,1.533,1.242,2.775,2.773,2.775h2.277c0,0.01,0,0.019,0,0.028l76.172-0.028v-5.55H81.221z"/>
</g>
</svg>
