<?xml version="1.0" encoding="utf-8"?>
<!-- Generator: Adobe Illustrator 15.0.2, SVG Export Plug-In . SVG Version: 6.00 Build 0)  -->
<!DOCTYPE svg PUBLIC "-//W3C//DTD SVG 1.1//EN" "http://www.w3.org/Graphics/SVG/1.1/DTD/svg11.dtd">
<svg version="1.1" xmlns="http://www.w3.org/2000/svg" xmlns:xlink="http://www.w3.org/1999/xlink" x="0px" y="0px"
	 width="224.854px" height="174.254px" viewBox="0 0 224.854 174.254" enable-background="new 0 0 224.854 174.254"
	 xml:space="preserve">
<g id="Lager_1" display="none">
	
		<rect x="-392.349" y="-52.547" display="inline" fill="#51B07B" stroke="#51B07B" stroke-width="0.653" stroke-linecap="round" stroke-linejoin="round" stroke-miterlimit="10" width="1072.058" height="355.4"/>
</g>
<g id="Höna">
	<g>
		<g>
			
				<line fill="none" stroke="#F8B518" stroke-width="5" stroke-miterlimit="10" x1="-852.349" y1="131.152" x2="-849.016" y2="157.152"/>
			
				<line fill="none" stroke="#F8B518" stroke-width="5" stroke-linecap="round" stroke-miterlimit="10" x1="-865.016" y1="156.152" x2="-838.516" y2="156.152"/>
		</g>
		
			<ellipse transform="matrix(0.8542 0.52 -0.52 0.8542 -112.9743 470.9316)" fill="#BE3928" cx="-896.178" cy="34.028" rx="5.45" ry="8.126"/>
		
			<ellipse transform="matrix(0.8542 0.5199 -0.5199 0.8542 -112.6287 464.9021)" fill="#BE3928" cx="-885.26" cy="31.628" rx="6.071" ry="8.127"/>
		<g>
			<polyline fill="#F8B518" stroke="#F8B518" stroke-width="0.1326" stroke-miterlimit="10" points="-900.515,51.652 
				-911.266,50.042 -901.765,41.777 			"/>
		</g>
		<g>
			<path fill="#BE3928" d="M-897.81,70.507c0,0,2.069-0.218,3.646-2.078c3.429-4.616-0.312-9.01-0.312-9.01l-6.138-7.994
				l-3.579,9.422c0,0-2.319,5.283,2.292,8.719C-899.854,70.893-897.81,70.507-897.81,70.507z"/>
		</g>
		<path fill="#FFFFFF" stroke="#FFFFFF" stroke-miterlimit="10" d="M-892.347,69.152c0,0-14.148,67.034,42.582,64.734
			c0,0,13.75-0.234,28.75-7.401c9.421-4.501,13.002-7.833,21.001-7.333c15.999,1.001,12.332-11.999,10.666-14.666
			c0,0,18-4.333,7.083-18.334c11.75-8.25,7.25-17.333-0.5-18.75c0,0,4.75-7.583,0.417-13.583c0,0-5.667-10.417-19.667,0.833
			s-17.833,16.666-24.333,17.166s-15.417-6.666-23.417-13.166s-22.25-24.25-37-24s-19.505,10.998-12.916,18.167
			C-894.931,57.987-890.765,61.902-892.347,69.152z"/>
		<circle fill="#1D1D1B" cx="-898.265" cy="43.152" r="1.875"/>
	</g>
	<g>
		<g>
			
				<line fill="none" stroke="#F8B518" stroke-width="5" stroke-miterlimit="10" x1="-681.349" y1="131.152" x2="-678.016" y2="157.152"/>
			
				<line fill="none" stroke="#F8B518" stroke-width="5" stroke-linecap="round" stroke-miterlimit="10" x1="-694.016" y1="156.152" x2="-667.516" y2="156.152"/>
		</g>
		
			<ellipse transform="matrix(0.8542 0.52 -0.52 0.8542 -88.0416 382.0197)" fill="#BE3928" cx="-725.178" cy="34.028" rx="5.45" ry="8.126"/>
		
			<ellipse transform="matrix(0.8542 0.5199 -0.5199 0.8542 -87.6964 375.9907)" fill="#BE3928" cx="-714.26" cy="31.628" rx="6.071" ry="8.127"/>
		<g>
			<polyline fill="#F8B518" stroke="#F8B518" stroke-width="0.1326" stroke-miterlimit="10" points="-729.515,51.652 
				-740.266,50.042 -730.765,41.777 			"/>
		</g>
		<g>
			<path fill="#BE3928" d="M-726.81,70.507c0,0,2.069-0.218,3.646-2.078c3.429-4.616-0.312-9.01-0.312-9.01l-6.138-7.994
				l-3.579,9.422c0,0-2.319,5.283,2.292,8.719C-728.854,70.893-726.81,70.507-726.81,70.507z"/>
		</g>
		<path fill="#FFFFFF" stroke="#FFFFFF" stroke-miterlimit="10" d="M-721.347,69.152c0,0-14.148,67.034,42.582,64.734
			c0,0,13.75-0.234,28.75-7.401c9.421-4.501,13.002-7.833,21.001-7.333c15.999,1.001,12.332-11.999,10.666-14.666
			c0,0,18-4.333,7.083-18.334c11.75-8.25,7.25-17.333-0.5-18.75c0,0,4.75-7.583,0.417-13.583c0,0-5.667-10.417-19.667,0.833
			s-17.833,16.666-24.333,17.166s-15.417-6.666-23.417-13.166s-22.25-24.25-37-24s-19.505,10.998-12.916,18.167
			C-723.931,57.987-719.765,61.902-721.347,69.152z"/>
		<path fill="#C89D64" stroke="#C89D64" stroke-miterlimit="10" d="M-683.182,53.987c-8-6.5-17.833-19.585-32.583-19.335
			s-19.505,10.998-12.916,18.167c4.75,5.168,8.916,9.083,7.334,16.333c0,0,2.997,6.335,10.831,0.167
			c6.666,4.001,10.334-2.166,10.334-2.166s8.333,2.166,10.666-5.334C-679.349,62.319-683.182,53.987-683.182,53.987z"/>
		<circle fill="#1D1D1B" cx="-727.265" cy="43.152" r="1.875"/>
	</g>
	<g>
		<g>
			
				<line fill="none" stroke="#F7B234" stroke-width="5.8879" stroke-linecap="round" stroke-miterlimit="10" x1="74.76" y1="120.685" x2="74.76" y2="150.321"/>
			<polyline fill="none" stroke="#F7B234" stroke-width="5.8879" stroke-linecap="round" stroke-miterlimit="10" points="
				51.797,159.152 67.105,159.152 74.171,150.467 81.923,159.152 			"/>
			<path fill="#BE3928" d="M35.777,0.807c-3.372-2.051-8.333-0.056-11.082,4.458c-0.037,0.061-0.067,0.123-0.104,0.185
				c-0.4-0.754-0.955-1.381-1.671-1.817c-3.027-1.842-7.708,0.323-10.458,4.838c-2.746,4.515-2.52,9.668,0.508,11.513
				c3.027,1.842,7.709-0.325,10.457-4.838c0.086-0.143,0.162-0.286,0.243-0.431c0.486,1.013,1.203,1.861,2.157,2.443
				c3.372,2.053,8.333,0.055,11.082-4.459C39.657,8.184,39.15,2.861,35.777,0.807z"/>
			<g>
				<polyline fill="#F8B518" stroke="#F8B518" stroke-width="0.1561" stroke-miterlimit="10" points="12.839,32.562 0.179,30.666 
					11.367,20.934 				"/>
			</g>
			<g>
				<path fill="#BE3928" d="M16.024,54.766c0,0,2.437-0.257,4.294-2.447c4.038-5.436-0.367-10.609-0.367-10.609l-7.228-9.414
					L8.509,43.39c0,0-2.731,6.222,2.699,10.268C13.617,55.22,16.024,54.766,16.024,54.766z"/>
			</g>
			<path fill="#FFFFFF" stroke="#FFFFFF" stroke-width="1.1776" stroke-miterlimit="10" d="M22.457,53.169
				c0,0-16.661,78.938,50.144,76.23c0,0,16.192-0.276,33.855-8.716c11.094-5.301,15.311-9.224,24.73-8.636
				c18.84,1.179,14.521-14.129,12.561-17.27c0,0,21.196-5.103,8.34-21.59c13.837-9.715,8.538-20.411-0.588-22.08
				c0,0,5.593-8.93,0.49-15.995c0,0-6.673-12.267-23.159,0.981c-16.486,13.247-21,19.625-28.654,20.214s-18.154-7.85-27.575-15.504
				c-9.42-7.654-26.201-28.556-43.57-28.262S6.062,25.495,13.821,33.936C19.415,40.022,24.32,44.632,22.457,53.169z"/>
			<path fill="#C89D64" stroke="#C89D64" stroke-width="1.1776" stroke-miterlimit="10" d="M66.998,35.312
				c-9.421-7.654-21-23.062-38.369-22.769S5.661,25.495,13.419,33.936c5.594,6.086,10.5,10.696,8.636,19.233
				c0,0,3.529,7.46,12.755,0.197c7.85,4.711,12.169-2.551,12.169-2.551s9.812,2.551,12.56-6.281
				C71.512,45.124,66.998,35.312,66.998,35.312z"/>
			<circle fill="#1D1D1B" cx="15.451" cy="22.517" r="1.608"/>
		</g>
		<path fill="#635646" d="M216.604,153.682c0.586-0.976,0.928-2.113,0.928-3.333c0-3.59-2.91-6.5-6.5-6.5
			c-0.582,0-1.143,0.084-1.68,0.227c0.004-0.076,0.012-0.15,0.012-0.227c0-3.59-2.91-6.5-6.5-6.5c-0.1,0-0.197,0.011-0.295,0.015
			c-0.742-2.188-2.807-3.765-5.246-3.765c-3.061,0-5.541,2.481-5.541,5.542c0,0.053,0.008,0.104,0.008,0.157
			c-0.617-0.343-1.326-0.539-2.08-0.539c-2.383,0-4.312,1.931-4.312,4.312c0,0.61,0.129,1.189,0.357,1.715
			c-0.334-0.051-0.674-0.078-1.021-0.078c-3.676,0-6.656,2.98-6.656,6.656c0,0.308,0.023,0.61,0.062,0.907
			c-0.266-0.022-0.535-0.036-0.809-0.036c-5.223,0-9.455,4.232-9.455,9.454s4.232,9.455,9.455,9.455c1.625,0,3.154-0.41,4.49-1.133
			c1.693,2.557,4.592,4.243,7.889,4.243c2.596,0,4.947-1.048,6.656-2.742c1.545,1.099,3.434,1.747,5.473,1.747
			c2.852,0,5.408-1.265,7.141-3.262c1.688,1.561,3.941,2.515,6.42,2.515c5.221,0,9.455-4.232,9.455-9.454
			C224.854,158.245,221.257,154.274,216.604,153.682z"/>
		<circle fill="#635646" cx="177.854" cy="114.442" r="7.334"/>
		<circle fill="#635646" cx="165.283" cy="89.422" r="4.741"/>
	</g>
</g>
</svg>
