<?xml version="1.0" encoding="utf-8"?>
<!-- Generator: Adobe Illustrator 15.0.2, SVG Export Plug-In . SVG Version: 6.00 Build 0)  -->
<!DOCTYPE svg PUBLIC "-//W3C//DTD SVG 1.1//EN" "http://www.w3.org/Graphics/SVG/1.1/DTD/svg11.dtd">
<svg version="1.1" id="Lager_1" xmlns="http://www.w3.org/2000/svg" xmlns:xlink="http://www.w3.org/1999/xlink" x="0px" y="0px"
	 width="120.613px" height="94.693px" viewBox="0 0 120.613 94.693" enable-background="new 0 0 120.613 94.693"
	 xml:space="preserve">
<g>
	<path fill="#A3897B" stroke="#A3897B" stroke-width="0.2332" stroke-miterlimit="10" d="M37.99,76.425"/>
	<polygon fill="#F49F97" stroke="#F49F97" stroke-width="0.6948" stroke-miterlimit="10" points="114.972,94.346 13.485,94.346 
		13.485,38.589 64.229,2.671 114.972,38.589 	"/>
	<polygon opacity="0.7" fill="#E7827E" stroke="#E7827E" stroke-width="0.6948" stroke-miterlimit="10" points="64.229,94.346 
		13.485,94.346 13.485,38.589 64.229,2.671 	"/>
	
		<rect x="24.714" y="62.735" fill="#A24A47" stroke="#A24A47" stroke-width="0.995" stroke-linecap="round" stroke-linejoin="round" stroke-miterlimit="10" width="8.211" height="10.506"/>
	
		<rect x="24.714" y="49.922" fill="#A24A47" stroke="#A24A47" stroke-width="0.995" stroke-linecap="round" stroke-linejoin="round" stroke-miterlimit="10" width="8.211" height="10.503"/>
	
		<rect x="35.721" y="49.922" fill="#A24A47" stroke="#A24A47" stroke-width="0.995" stroke-linecap="round" stroke-linejoin="round" stroke-miterlimit="10" width="8.21" height="10.503"/>
	
		<rect x="35.721" y="62.735" fill="#A24A47" stroke="#A24A47" stroke-width="0.995" stroke-linecap="round" stroke-linejoin="round" stroke-miterlimit="10" width="8.21" height="10.506"/>
	
		<rect x="54.908" y="62.735" fill="#A24A47" stroke="#A24A47" stroke-width="0.95" stroke-linecap="round" stroke-linejoin="round" stroke-miterlimit="10" width="8.21" height="10.506"/>
	
		<rect x="54.908" y="49.922" fill="#A24A47" stroke="#A24A47" stroke-width="0.995" stroke-linecap="round" stroke-linejoin="round" stroke-miterlimit="10" width="8.21" height="10.503"/>
	
		<rect x="65.915" y="49.922" fill="#B66059" stroke="#B66059" stroke-width="0.995" stroke-linecap="round" stroke-linejoin="round" stroke-miterlimit="10" width="8.21" height="10.503"/>
	
		<rect x="65.915" y="62.735" fill="#B66059" stroke="#B66059" stroke-width="0.995" stroke-linecap="round" stroke-linejoin="round" stroke-miterlimit="10" width="8.21" height="10.506"/>
	
		<rect x="83.32" y="50.166" fill="#B66059" stroke="#B66059" stroke-width="0.995" stroke-linecap="round" stroke-linejoin="round" stroke-miterlimit="10" width="18.416" height="44.023"/>
	
		<rect x="83.32" y="50.166" fill="#A24A47" stroke="#A24A47" stroke-width="0.995" stroke-linecap="round" stroke-linejoin="round" stroke-miterlimit="10" width="9.208" height="44.023"/>
	
		<polyline fill="none" stroke="#634E42" stroke-width="5.1793" stroke-linecap="round" stroke-linejoin="round" stroke-miterlimit="10" points="
		11.003,40.539 64.229,2.671 118.042,40.539 	"/>
	
		<circle fill="#B66059" stroke="#B66059" stroke-width="0.995" stroke-linecap="round" stroke-linejoin="round" stroke-miterlimit="10" cx="64.522" cy="26.44" r="7.576"/>
	<g>
		<path fill="#A24A47" d="M64.522,34.017c-4.185,0-7.576-3.393-7.576-7.576c0-4.185,3.392-7.577,7.576-7.577V34.017z"/>
		<path fill="#A24A47" d="M64.522,34.514c-4.452,0-8.073-3.621-8.073-8.073s3.621-8.074,8.073-8.074V34.514z M64.025,19.378
			c-3.673,0.256-6.582,3.326-6.582,7.062s2.909,6.806,6.582,7.062V19.378z"/>
	</g>
	
		<polygon fill="#634E42" stroke="#634E42" stroke-width="1.1509" stroke-linecap="round" stroke-linejoin="round" stroke-miterlimit="10" points="
		41.754,18.863 28.888,27.693 28.888,10.032 41.754,10.032 	"/>
	
		<rect x="24.714" y="62.735" fill="#FFF0B4" stroke="#FFF0B4" stroke-width="0.995" stroke-linecap="round" stroke-linejoin="round" stroke-miterlimit="10" width="8.211" height="10.506"/>
	
		<rect x="24.714" y="49.922" fill="#FFF0B4" stroke="#FFF0B4" stroke-width="0.995" stroke-linecap="round" stroke-linejoin="round" stroke-miterlimit="10" width="8.211" height="10.503"/>
	
		<rect x="35.721" y="49.922" fill="#FFF0B4" stroke="#FFF0B4" stroke-width="0.995" stroke-linecap="round" stroke-linejoin="round" stroke-miterlimit="10" width="8.21" height="10.503"/>
	
		<rect x="35.721" y="62.735" fill="#FFF0B4" stroke="#FFF0B4" stroke-width="0.995" stroke-linecap="round" stroke-linejoin="round" stroke-miterlimit="10" width="8.21" height="10.506"/>
	
		<rect x="54.908" y="62.735" fill="#FFF0B4" stroke="#FFF0B4" stroke-width="0.995" stroke-linecap="round" stroke-linejoin="round" stroke-miterlimit="10" width="8.21" height="10.506"/>
	
		<rect x="54.908" y="49.922" fill="#FFF0B4" stroke="#FFF0B4" stroke-width="0.995" stroke-linecap="round" stroke-linejoin="round" stroke-miterlimit="10" width="8.21" height="10.503"/>
	
		<rect x="65.915" y="49.922" fill="#FFF0B4" stroke="#FFF0B4" stroke-width="0.995" stroke-linecap="round" stroke-linejoin="round" stroke-miterlimit="10" width="8.21" height="10.503"/>
	
		<rect x="65.915" y="62.735" fill="#FFF0B4" stroke="#FFF0B4" stroke-width="0.995" stroke-linecap="round" stroke-linejoin="round" stroke-miterlimit="10" width="8.21" height="10.506"/>
	
		<circle fill="#FFF0B4" stroke="#FFF0B4" stroke-width="0.995" stroke-linecap="round" stroke-linejoin="round" stroke-miterlimit="10" cx="64.522" cy="26.44" r="7.576"/>
	
		<circle opacity="0.3" fill="#FFF0B4" stroke="#FFF0B4" stroke-width="1.2528" stroke-linecap="round" stroke-linejoin="round" stroke-miterlimit="10" cx="64.586" cy="26.44" r="9.539"/>
	
		<rect x="22.852" y="48.041" opacity="0.4" fill="#FFF0B4" stroke="#FFF0B4" stroke-width="1.3423" stroke-linecap="round" stroke-linejoin="round" stroke-miterlimit="10" width="22.924" height="26.8"/>
	
		<rect x="53.124" y="48.041" opacity="0.4" fill="#FFF0B4" stroke="#FFF0B4" stroke-width="1.3423" stroke-linecap="round" stroke-linejoin="round" stroke-miterlimit="10" width="22.924" height="26.8"/>
	<g id="Blomma">
		<g>
			<g>
				<path fill="#4EB373" d="M5.518,93.601c0.006-0.479,0.004-3.28,0.43-4.188c1.043-2.233,4.499-2.245,4.499-2.245
					S10.985,91.9,7.5,92.519c-1.364,0.241-1.292,0.249-1.421,1.133l0.006,1.035l-0.563,0.003L5.518,93.601z"/>
			</g>
		</g>
		<g>
			<g>
				<path fill="#42A565" d="M5.002,91.764c-0.008-0.478-0.027-3.279-0.458-4.184c-1.061-2.227-4.519-2.213-4.519-2.213
					s-0.504,4.736,2.986,5.33c1.366,0.232,1.294,0.24,1.429,1.122l0.011,2.873l0.562-0.003L5.002,91.764z"/>
			</g>
			<g>
				<path fill="#42A565" d="M4.982,90.928c-0.031-1.042-0.127-2.692-0.438-3.348c-1.061-2.227-4.519-2.213-4.519-2.213"/>
			</g>
		</g>
		<path fill="#925BA1" d="M7.997,79.642v3.513c0,1.565-1.109,2.836-2.479,2.836l0,0c-1.37,0-2.48-1.271-2.48-2.836v-3.513
			l2.48,1.895L7.997,79.642z"/>
		<path fill="#844896" d="M5.518,85.99L5.518,85.99c-1.37,0-2.48-1.271-2.48-2.836v-3.513l2.48,1.895V85.99z"/>
	</g>
	<g id="Blomma_1_">
		<g>
			<g>
				<path fill="#4EB373" d="M21.319,93.601c0.007-0.479,0.004-3.28,0.43-4.188c1.045-2.233,4.501-2.245,4.501-2.245
					s0.538,4.732-2.948,5.351c-1.363,0.241-1.292,0.249-1.42,1.133l0.005,1.035l-0.563,0.003L21.319,93.601z"/>
			</g>
		</g>
		<g>
			<g>
				<path fill="#42A565" d="M20.805,91.764c-0.008-0.478-0.027-3.279-0.458-4.184c-1.062-2.227-4.519-2.213-4.519-2.213
					s-0.505,4.736,2.987,5.33c1.366,0.232,1.293,0.24,1.429,1.122l0.009,2.873l0.562-0.003L20.805,91.764z"/>
			</g>
			<g>
				<path fill="#42A565" d="M20.786,90.928c-0.032-1.042-0.127-2.692-0.439-3.348c-1.062-2.227-4.519-2.213-4.519-2.213"/>
			</g>
		</g>
		<path fill="#925BA1" d="M23.8,79.642v3.513c0,1.565-1.11,2.836-2.48,2.836l0,0c-1.369,0-2.479-1.271-2.479-2.836v-3.513
			l2.479,1.895L23.8,79.642z"/>
		<path fill="#844896" d="M21.319,85.99L21.319,85.99c-1.369,0-2.479-1.271-2.479-2.836v-3.513l2.479,1.895V85.99z"/>
	</g>
	<g id="Blomma_2_">
		<g>
			<g>
				<path fill="#4EB373" d="M35.935,93.601c0.007-0.479,0.004-3.28,0.43-4.188c1.044-2.233,4.5-2.245,4.5-2.245
					s0.538,4.732-2.947,5.351c-1.363,0.241-1.292,0.249-1.42,1.133l0.005,1.035l-0.563,0.003L35.935,93.601z"/>
			</g>
		</g>
		<g>
			<g>
				<path fill="#42A565" d="M35.419,91.764c-0.007-0.478-0.026-3.279-0.457-4.184c-1.062-2.227-4.519-2.213-4.519-2.213
					s-0.505,4.736,2.986,5.33c1.365,0.232,1.293,0.24,1.428,1.122l0.011,2.873l0.562-0.003L35.419,91.764z"/>
			</g>
			<g>
				<path fill="#42A565" d="M35.4,90.928c-0.031-1.042-0.126-2.692-0.438-3.348c-1.062-2.227-4.519-2.213-4.519-2.213"/>
			</g>
		</g>
		<path fill="#925BA1" d="M38.415,79.642v3.513c0,1.565-1.11,2.836-2.48,2.836l0,0c-1.37,0-2.48-1.271-2.48-2.836v-3.513l2.48,1.895
			L38.415,79.642z"/>
		<path fill="#844896" d="M35.935,85.99L35.935,85.99c-1.37,0-2.48-1.271-2.48-2.836v-3.513l2.48,1.895V85.99z"/>
	</g>
	<g id="Blomma_5_">
		<g>
			<g>
				<path fill="#4EB373" d="M51.607,93.601c0.007-0.479,0.004-3.28,0.43-4.188c1.044-2.233,4.5-2.245,4.5-2.245
					s0.538,4.732-2.947,5.351c-1.363,0.241-1.292,0.249-1.42,1.133l0.005,1.035l-0.563,0.003L51.607,93.601z"/>
			</g>
		</g>
		<g>
			<g>
				<path fill="#42A565" d="M51.093,91.764c-0.008-0.478-0.027-3.279-0.458-4.184c-1.062-2.227-4.519-2.213-4.519-2.213
					s-0.505,4.736,2.986,5.33c1.366,0.232,1.293,0.24,1.429,1.122l0.01,2.873l0.562-0.003L51.093,91.764z"/>
			</g>
			<g>
				<path fill="#42A565" d="M51.073,90.928c-0.031-1.042-0.127-2.692-0.438-3.348c-1.062-2.227-4.519-2.213-4.519-2.213"/>
			</g>
		</g>
		<path fill="#925BA1" d="M54.088,79.642v3.513c0,1.565-1.11,2.836-2.48,2.836l0,0c-1.369,0-2.479-1.271-2.479-2.836v-3.513
			l2.479,1.895L54.088,79.642z"/>
		<path fill="#844896" d="M51.607,85.99L51.607,85.99c-1.369,0-2.479-1.271-2.479-2.836v-3.513l2.479,1.895V85.99z"/>
	</g>
</g>
</svg>
