<?xml version="1.0" encoding="utf-8"?>
<!-- Generator: Adobe Illustrator 15.0.2, SVG Export Plug-In . SVG Version: 6.00 Build 0)  -->
<!DOCTYPE svg PUBLIC "-//W3C//DTD SVG 1.1//EN" "http://www.w3.org/Graphics/SVG/1.1/DTD/svg11.dtd">
<svg version="1.1" id="Lager_1" xmlns="http://www.w3.org/2000/svg" xmlns:xlink="http://www.w3.org/1999/xlink" x="0px" y="0px"
	 width="266px" height="266.001px" viewBox="0 0 266 266.001" enable-background="new 0 0 266 266.001" xml:space="preserve">
<g>
	<g>
		<polygon fill="#EEE1CD" stroke="#EEE1CD" stroke-width="0.4496" stroke-miterlimit="10" points="220.666,219.081 44.313,219.081 
			44.313,122.192 132.49,59.779 220.666,122.192 		"/>
		<polygon opacity="0.33" fill="#CBBB9D" stroke="#CBBB9D" stroke-width="0.3179" stroke-miterlimit="10" points="132.49,219.081 
			44.313,219.081 44.313,122.192 132.49,59.779 		"/>
		<rect x="64.521" y="164.152" fill="#604C3F" width="14.268" height="18.255"/>
		<rect x="64.521" y="142.581" fill="#604C3F" width="14.268" height="18.253"/>
		<rect x="82.257" y="142.581" fill="#604C3F" width="14.266" height="18.253"/>
		<rect x="82.257" y="164.152" fill="#604C3F" width="14.266" height="18.255"/>
		<rect x="116.99" y="164.152" fill="#604C3F" width="14.267" height="18.255"/>
		<rect x="116.99" y="142.581" fill="#604C3F" width="14.267" height="18.253"/>
		<rect x="134.725" y="142.581" fill="#604C3F" width="14.266" height="18.253"/>
		<rect x="134.725" y="164.152" fill="#604C3F" width="14.266" height="18.255"/>
		<rect x="165.666" y="142.581" fill="#604C3F" width="32.002" height="76.5"/>
		
			<polyline fill="none" stroke="#604C3F" stroke-width="9" stroke-linecap="round" stroke-linejoin="round" stroke-miterlimit="10" points="
			40,125.582 132.49,59.779 226,125.582 		"/>
		<circle fill="#604C3F" cx="133" cy="101.081" r="13.167"/>
		
			<polygon fill="#604C3F" stroke="#604C3F" stroke-width="2" stroke-linecap="round" stroke-linejoin="round" stroke-miterlimit="10" points="
			93.436,87.915 71.079,103.26 71.079,72.568 93.436,72.568 		"/>
	</g>
	<g>
		<defs>
			<circle id="SVGID_1_" cx="133" cy="133.001" r="133"/>
		</defs>
		<clipPath id="SVGID_2_">
			<use xlink:href="#SVGID_1_"  overflow="visible"/>
		</clipPath>
		<path clip-path="url(#SVGID_2_)" fill="#229A9A" d="M288.862,172.886l-3.173-2.469c-4.862-3.791-13.694-9.083-26.929-0.006
			c-17.082,11.714-29.104-0.42-28.707,0l-0.009,0.011l0.004,0.02c-4.893-3.785-13.679-8.873-26.778,0.11
			c-17.081,11.712-29.103-0.419-28.707,0l-0.008,0.009c-4.86-3.791-13.692-9.088-26.934-0.009
			c-13.051,8.949-22.656,4.492-26.656,1.689l-0.552-0.41c-4.308-3.517-13.657-11.736-28.69-1.43c-17.08,11.714-29.104-0.42-28.706,0
			l-0.008,0.009l0.003,0.02c-4.892-3.784-13.677-8.872-26.779,0.111c-17.08,11.713-29.101-0.42-28.705,0l-0.008,0.01
			c-4.861-3.792-13.693-9.088-26.935-0.01c0,0,33.066,123.667,145.566,110.667S288.862,172.886,288.862,172.886z"/>
	</g>
	<g>
		<defs>
			<circle id="SVGID_3_" cx="133" cy="133.001" r="133"/>
		</defs>
		<clipPath id="SVGID_4_">
			<use xlink:href="#SVGID_3_"  overflow="visible"/>
		</clipPath>
		<path clip-path="url(#SVGID_4_)" fill="#4EB2BB" d="M267,193.37c-5.778,0.815-12.311,3.269-19.632,8.289
			c-5.388,3.692-10.429,6.048-15.081,7.442c-20.221,4.896-33.274-8.272-32.73-7.697l-0.015,0.017l0.004,0.035
			c-4.557-3.525-11.083-7.7-19.684-8.337c-7.693-1.149-17.188,0.469-28.585,8.284c-10.894,7.471-20.59,9.294-28.444,8.674
			c-11.969-1.701-19.069-8.859-18.665-8.432l-0.016,0.016c-5.081-3.962-12.688-8.869-22.981-8.611
			c-7.059-0.272-15.467,1.86-25.288,8.594c-12.622,8.656-23.635,9.733-32.037,8.208c-5.194-1.231-9.204-3.471-11.818-5.301
			l-0.947-0.706c0,0,43.845,76.485,133.308,69.604C233.853,266.566,267,193.37,267,193.37z"/>
	</g>
</g>
</svg>
