<?xml version="1.0" encoding="utf-8"?>
<!-- Generator: Adobe Illustrator 15.0.2, SVG Export Plug-In . SVG Version: 6.00 Build 0)  -->
<!DOCTYPE svg PUBLIC "-//W3C//DTD SVG 1.1//EN" "http://www.w3.org/Graphics/SVG/1.1/DTD/svg11.dtd">
<svg version="1.1" id="Lager_1" xmlns="http://www.w3.org/2000/svg" xmlns:xlink="http://www.w3.org/1999/xlink" x="0px" y="0px"
	 width="412px" height="412px" viewBox="50 50 412 412" enable-background="new 50 50 412 412" xml:space="preserve">
<rect x="115.5" y="114.5" fill="#E85151" width="285" height="276"/>
<g>
	<path id="x-mark-3-icon" fill="#FFFFFF" d="M256,50C142.229,50,50,142.229,50,256c0,113.771,92.229,206,206,206
		c113.771,0,206-92.229,206-206C462,142.229,369.771,50,256,50z M334.124,378.546l-77.122-77.117l-77.123,77.127l-41.425-41.449
		l77.105-77.117l-77.115-77.11l41.448-41.424l77.104,77.092l77.09-77.102l41.459,41.432l-77.104,77.108l77.113,77.103
		L334.124,378.546z"/>
</g>
</svg>
