<svg xmlns="http://www.w3.org/2000/svg" xmlns:xlink="http://www.w3.org/1999/xlink" version="1.1" x="0px" y="0px" width="100px" height="100px" viewBox="0 0 100 100" enable-background="new 0 0 100 100" xml:space="preserve">
<g id="Captions">
</g>
<g id="Your_Icon">
	<g>
		<path fill="#FFFFFF" d="M30.558,45.613c0.659-4,2.454-6.768,5.218-9.529c3.544-3.548,8.25-5.27,13.248-5.27c3.288,0,6.52,0.977,9.345,2.604    l3.396,2.021l5.225-9.037l-3.391-1.942c-4.414-2.548-9.453-4.347-14.574-4.347c-14.993,0-27.393,13.5-29.026,25.5h-7.052    L25.264,65.66l12.11-20.047H30.558z"/>
		<path fill="#FFFFFF" d="M72.696,33.57l-12.11,20.043h6.81c-1.727,9-9.364,14.999-18.372,14.999c-3.275,0-6.497-0.896-9.318-2.515l-3.395-1.968    l-5.208,9.063l3.396,1.947C38.9,77.666,43.921,79,49.023,79c7.795,0,15.126-2.968,20.646-8.495    c4.613-4.618,7.508-9.892,8.324-16.892h7.021L72.696,33.57z"/>
	</g>
</g>
</svg>