<?xml version="1.0" encoding="utf-8"?>
<!-- Generator: Adobe Illustrator 15.0.2, SVG Export Plug-In . SVG Version: 6.00 Build 0)  -->
<!DOCTYPE svg PUBLIC "-//W3C//DTD SVG 1.1//EN" "http://www.w3.org/Graphics/SVG/1.1/DTD/svg11.dtd">
<svg version="1.1" id="Lager_1" xmlns="http://www.w3.org/2000/svg" xmlns:xlink="http://www.w3.org/1999/xlink" x="0px" y="0px"
	 width="576.78px" height="173.309px" viewBox="0 0 576.78 173.309" enable-background="new 0 0 576.78 173.309"
	 xml:space="preserve">
<g>
	
		<path fill="#FFFFFF" stroke="#FFFFFF" stroke-width="1.1833" stroke-linecap="round" stroke-linejoin="round" stroke-miterlimit="10" d="
		M542.367,115.092c-4.307,0-8.425,0.818-12.217,2.292c-2.147-23.657-22.086-42.255-46.292-42.255
		c-7.945,0-15.431,2.006-21.979,5.534c-7.991-22.702-29.639-39.022-55.038-39.022c-32.17,0-58.34,26.17-58.34,58.339
		c0,2.564,0.184,5.084,0.506,7.561c-4.896-2.229-10.326-3.481-16.046-3.481c-21.427,0-38.858,17.433-38.858,38.859
		c0,10.381,4.041,20.139,11.382,27.479c1.483,1.484,3.497,2.317,5.597,2.317l251.747,0.003c0.002,0,0.002,0,0.003,0
		c2.442,0,4.748-1.128,6.247-3.056c4.652-5.982,7.11-13.155,7.11-20.747C576.188,130.264,561.018,115.092,542.367,115.092z"/>
	<path fill="#FFFFFF" d="M351.935,85.584c0.016-0.682,0.051-1.36,0.051-2.046C351.985,37.475,314.511,0,268.447,0
		c-32.344,0-60.433,18.49-74.308,45.443c-11.038-11.004-26.193-17.549-42.141-17.549c-28.198,0-52.167,19.438-58.168,46.667
		c-8.271-3.474-17.033-5.232-26.09-5.232C30.388,69.328,0,99.717,0,137.068c0,11.714,3.039,23.26,8.787,33.387
		c0.79,1.393,2.275,2.258,3.876,2.258H350.79l36.727,0.004h0.001c1.269,0,2.48-0.543,3.323-1.488
		c8.43-9.44,13.071-21.615,13.071-34.282C403.912,109.735,384.388,83.538,351.935,85.584z"/>
</g>
</svg>
