<?xml version="1.0" encoding="utf-8"?>
<!-- Generator: Adobe Illustrator 15.0.2, SVG Export Plug-In . SVG Version: 6.00 Build 0)  -->
<!DOCTYPE svg PUBLIC "-//W3C//DTD SVG 1.1//EN" "http://www.w3.org/Graphics/SVG/1.1/DTD/svg11.dtd">
<svg version="1.1" xmlns="http://www.w3.org/2000/svg" xmlns:xlink="http://www.w3.org/1999/xlink" x="0px" y="0px"
	 width="511.724px" height="440.729px" viewBox="0 0 511.724 440.729" enable-background="new 0 0 511.724 440.729"
	 xml:space="preserve">
<g id="Original" display="none">
	<g display="inline">
		<path fill="#52AF6C" stroke="#52AF6C" stroke-miterlimit="10" d="M-1369.863-1.701c-2.474,2.587-0.75,1.25-4.25-3.5s-2-3-6.5-5
			s-8.75,1.139-13-3.056s-9.5-7.444-12.5-6.944s-3.5-0.352-6.5-0.051s-7.5,5.551-9,2.551s2.75-5.25,6-9s11.5-7.25,7.25-13
			s-3.5-9.25-8-8.5s-5,1.75-6.5-1.25s-2-5-2-5s-2.25-1.75-6.5,0s-4.5,3.25-4.75,6s0.75,4.5-2.75,4.75s-5.25,2.75-9,3.75
			s-3.25-2-9,1.75s-9.25,2.5-10.25,6.5s-1,5-1.25,6.75s1.5,3.75-3.5,3.75s-9.25-3.75-9.25,1.75s3.5,6,1,8.75s-2.75,3.25-5.25,1.5
			s-2.75-6-4.75-1.5s-1.75,6.25-4.25,5s-4.25-1-3.75,1.25s2.25,4.5,1.75,6.25s-2.5,5.25-0.5,7.5s3.25,4.25,2.25,8.25
			s-0.75,9.75-4.5,9s-1.75-1-0.5-5s3-5.25,1.5-9s-1.5-3.25-1.75-7.75s-0.75-4-0.75-7.25s4-7,0.75-9.25s-1.5-2-3.25-2.25
			s-4.5,8-5.75,9.25s-3,1-3,4s1.75,5,2.25,8.25s2.75,8.5,0.75,8s-4.25-4-6.25-4.75s-5.5-1.25-6.75-1.75s-2-2.5-3.5-3
			s-4.75-3-4.5-1.25s0.25,1.5,2,3.75s4.25,4.75,1.5,5s-1.456-0.23-4.75-0.75c-4.75-0.75-10.5,1-10.5,1c-3,0.5-3.25-0.25-5.75,1.75
			s-6,3-6,4.75s0.5,3.5-3,3.25s-5.25-1.5-3.75-2.5s6.25-2.75,3.5-3.75s-5.5-4.25-5.75-1s-2.25,2.5-1.5,4.75s4.25,3,1.5,4.25
			c0,0-8,1.583-7.75,8.5c0.055,1.52,1,4.5-1.25,2.75s-5-4.25-6.5-1.75s2.25,5.75-0.75,5.75s-4.75-0.75-4.75-4.5s0-5.25-1-7.25
			s-5-5,0.25-3.25s6.75,4.5,9,3.75s7.5-2.25,5.75-5.75s-2.5-6-5.75-8.25s-5.75-1.75-10.5-5.5s-8-5.25-8-5.25s-9.5-6.25-16-1.5
			s-12.75,7.5-19.5,18.5s-5.75,16.5-11.25,20.75s-8.25,6.75-8.25,10.25s-1,17.5,4.25,15.5s3.75-5.25,6.75-5s4.75,15.5,7,14.75
			s0.5-1.5,3-2.5s3,1.25,3.25-2.75s1.424-4,3.212-7.75s3.038-3.25,2.038-5s-2.326-0.5-2.038-3.25s-1.712-5.5,1.788-10.25
			s6-2.255,6-6.752s1.25-8.748,4.25-8.498s6-0.5,4,3s-3,5.75-5,7.75s-3.25-1.25-3.25,4.25s0,12.5,1.5,12.75s3.5,1.5,4.5,0.25
			s3.5-1.5,6-1.75s5.5-1.75,5.5,0.25s-1.25,4.75-2.5,4.75s-4.25-0.25-5.75,0s-3-0.25-3,2s0.75,4,0.75,4s1.5,1.25-0.25,1.5
			c0,0-4.583-1.916-6.25-0.083s-1.25,3.583-1.25,3.583c0.25,3.5,2.75,2.554,1,4.527s-2.75,5.473-4.25,4.473s-1.826-2.75-3.788-1.25
			s-2.712,2-4.212,2.5l-11-1.25c-1.25-1-0.75,1.5-1.25-1s-0.333-0.5-0.083-1.25s0.917,0.25,1-1.083s0.334-1.333-0.083-1.917
			s-0.667,0-0.417-1.833s0.583-2.25,0.583-3.5s0.75-1.833-0.25-1.917s-1.667,0.583-2.583,1.083s-1.25,0.416-2.083,1.083
			s-1.167,0.167-1.25,1.5s1.333,2.167,1.5,2.917s-0.167,1.667,0.167,3.167s0.917,0.917,0.583,2.333c0,0-6.583,4.792-8.458,6.167
			s-4.625,5.417-4.625,5.417s-3.625,4.458-7.125,5.958s-7,1.25-8.125,2.75s-2.393,3.45-0.75,3.375c1.26-0.057,3-0.583,3.5,0.333
			c0,0,4.5,6.251,1.5,13.083c0,0-6.014-0.417-9.757,0.333s-7.493-0.917-7.493,3.583s2.167,8.417,2.167,8.417s-1.5,2.75-0.833,4.75
			s2,2.333,3.167,2.167s2.5-0.201,2.5-0.201c1.667,0.867,1.334,3.617,3.167,2.617s2.5-2,4.417-1.917s3.083,0.667,3.917-1.833
			s1-1.333,2.917-5.333s0.417-2.333,3.917-5.5s0.917-4.25,3.833-5.583s2,1.417,6-0.5s4.167-4.083,6.167-3.5s5.25,1.083,5.5,2.75
			s2.167,4.667,2.917,5.25s2.75,1.167,3.667,2s4,1.5,4,4.25s-1.167,3.916-0.333,4.333s2,0.083,2.167-1.5s0.5-2.25,0.25-3
			s-1.083-2-0.167-1.667s2.083,1.667,2.75,1.167s1-1.166,0.167-1.833s-3-1.583-4.583-3.083s-2.417-2.417-3.833-3.833
			s-4.167-3.083-4.333-5.333s-0.25-3.333,0.917-3.5s1.166-0.584,2.833,1.333s1.917,2.334,4.25,4.417s3.667,2.083,5.167,3.667
			s1.667,0.083,2.25,3.083s0.416,4.25,1.333,5.25s0.667,5,1.667,4.833s1.667-1.417,3.667-0.5s4.583,2.833,4.333,1.083
			s-0.667-1.583-1.333-2.75s-3.917-1-1.083-3.167s2-3.333,4.75-2.25s3.917,2.167,3.583,5s3.75,6.083,4.167,6.583
			s1.417,2.833,2.25,1.333s1.333-3.5,3.083-2.083s2.25,1.75,3,1.75s1.75-0.333,3.583-0.75s3.5-2.416,3.5-0.333
			s0.083,3.333-0.333,5.083s-0.75,4.75-1.917,6.667s-1.833,3.417-3.583,3.25s-1.5-1.499-3.833-1.083s-2.667,1.108-5.25,1.096
			s-3.417,0.07-7.417-1.18s-5.583-2.832-8.25-2.416s-4.833,5.082-7.25,4.749s-3.333,0.666-6.25-1.667s-0.25-2.5-3.917-3.25
			s-3.75,0.834-5-1.583c0,0-3.084-11.916-8.417-11.916s-12.28,0.553-15.25,2.916c-2.966,2.36-2.5,2.833-5.583,3.25
			s-1.5,1.251-5,0.417s-2.917-2.167-5-0.917s-2,2.084-3,2.917s1.333-1.25-2.5,2.5s-1.2,7.417-3.517,9.417s-8.317,4.166-10.65,7.833
			s-3.667,11.5-3.5,16.667s-0.667,5.833-1.5,9.5s-0.167,3.501,1.667,7.167s9.167,12.666,12.833,15.166c0,0,9,2.833,15,2.5
			s9.833-2,9.833-2c4.833-1.666,6.833-4.166,8.667-0.833s6.75,4.024,8.25,3.929s2.068,2.904,2.034,6.154s-3.716,2.75,0,7.75
			s8.716,8.25,9.466,12.25s3,4.5,0.25,8.25s-4,5.5-4,9.75c0,4.25,5,12,5.25,17.25s-1,3,1.5,9.25s4.75,5.75,6,9.75
			s1.25,2.5,1.25,6.25s-4.75,5.75,3.25,5s8,3.75,14.5-1.75s10.75-9,12-13.25s-1.25-6.25,3-8.5s5.5,1.5,5-5.75s-7-4-0.5-9.5
			c6.5-5.5,12.25-2.75,12-10.5c-0.25-7.75-6.75-20-2.5-24.75s17.75-14,19.75-19s8.25-12.75,6.25-15s-4.25-2.75-6.5-1.25
			s-2.25,3-6,2.5s-3.25-1-5.5-2.75s-2.5-2-4.75-4.5s-4-2.25-5.5-6.25s-1-8.75-3.5-12.5s-2.5-5.5-4.75-8.25s-3.25-6.25-1.5-6.25
			s2.25-1.25,4.75,3.25s2.75,5.75,4.75,9.25s1.75,4.75,5.25,8.75s5.25,4.75,5.5,8s-1.25,8.25,2,7.25s9.25-3,14-5.25
			s6.75-1.75,10.75-5.75s5.5-5,7-8.5s4.25-3.75,1.25-5s-3.25-1-4.25-2.75s0.5-5.75-2.25-3.75s-3.5,3.5-6,3.5s-1.5,4-4.5-0.5
			s-1.75-2.5-4.5-5.75s-4.25-3.5-2.75-5.75s4.5-4,5.75-1.5s5.25,6.75,7.25,6.75s5.25-1.25,6.75,0s-0.75,2.25,3,3.25
			s6.25,2.5,8.75,2.5s2.25-3.5,7.25-1.5c0,0,13.71,3.206,16.75,14.75c0.7,2.659,3.75,14,4.75,16.25s1.75,2.5,2.5,5.5
			s3.25,3.5,4.25,2.25s5-8,5-9.75s-3.5-3.75,0-5.5s5.75-3.5,7-6.5s5.25-4,6.5-5.75s5.75-2,7-2.5s3-3.25,5-0.25s6.5,5.5,6.25,7.5
			s-0.98,6,0.01,6.25s0.99,0.75,2.74,0s0.25-2,1.75-0.75s3.5,4.75,4,5.75s0.5,4.5,0,6.75s-2.5,3,0.375,6.25s3.375,4.75,3.625,6.25
			s-2.5,3,0,4s5,4.25,6.25,2.75s1.75-3.25,0-6s-4-5-4.5-6s-4,0-3.25-5s-0.25-7.25,1.75-6.75s2.5,2,5.5,3.5s2,4.75,4.25,4.5
			s5-0.25,6.5-3.75s7-5.25,3.25-8.75s-6.5-1.5-5.5-6.75s1.5-9.5,4-8.5s4.75,0.5,9.75-2s8.75-0.75,13-6.5s9.25-14,6-18.5
			s-5.75-4.5-3.5-8s2.75-2.75,3.25-5s0.25-5.25-2-2.75s-3.5,3-4.5,1.25s-5.25,0-1.25-3s6.75-8.75,8-5.75s5.75,2,6.75,3.5
			s-1.25,3.5,0,5.5s1.25,5.75,2.25,7.5s5.25,6.41,6.25,2.705s3.25-7.705,2.5-9.205s-1.5-3-2.75-5.25s-0.25-3,1.75-5.5
			s3.5-4.75,5.25-5.5s3-1.5,4-1s4,2.5,6.25-2.75s6-8.25,6.5-10.25s4.25-5.5,4-9.5s0.023-3.25,0.012-7.5s1.488-4.25-1.012-6
			s2.75-2.25-2.5-1.75s-5.5-0.75-6.5-1s-4,0-1-2.25s10-11.5,12.75-14s-1-2.25,6.25-2.75s9.75-1.25,12.5-1.25s1.25-0.5,4,1
			s5.5,3.5,6,1s-1.25-1.75,0-4.25s4.25-8,7.25-7.75s4,1.5,4,2.5s0.75,3.5,2.25,2s2.25-8.75,5-8.25s5.5,1.75,2.75,4.75
			s-4.25,4.5-5.75,5.5s-4.5,6.5-6.75,9s-5.25,5-5.5,6.75s-0.5,16.25-0.25,18.75s1.25,5.25,3.75,1s1-4.25,3.25-6.5s0.25,0,2.25-2.25
			s2,0.75,3.5-4.5s1.25,0.75,1.5-5.25s0.75-4.75-0.5-7.5s-0.75-5.75,4.25-8s10.75-5.25,11.25-3s-1.25,6.5,2.5,2.75
			s12.75-12.25,14.5-12s4.75,4,4.25,0.5s0-5.5-1-8.25s3.75-7.75,7.5-7s5.75,0.5,6.5,2.25s5,9.25,5.75,3.75s5.75-3.75,6-8.25
			s-3-3.5-8.5-6s-16.75-15.75-22.5-16.5s-7.5-3.75-11-0.25s-3,4-10.75,3s-8.75,4-13.5-3s-0.5-8.5-9.25-8s-10.75-2.25-14.75-5.75
			s-8.25-5.25-11.75-5.25s-4.75-3.5-7.25,0s2,5-3,6.25C-1351.113-5.451-1360.862-11.118-1369.863-1.701z"/>
		
			<path fill="#52AF6C" stroke="#52AF6C" stroke-width="2" stroke-linecap="round" stroke-linejoin="round" stroke-miterlimit="10" d="
			M-1663.529,79.883c0,0,1.167,5.667,3.167,6.667s4.333,2,3.833,3.5s0,3.667-1.667,4.167s-4,1.167-5.333,1.167s-2.667-1.167-3.667,0
			s-3,4-4,2.5s-1.833-2.167,0-3s3.333-0.833,2.833-1.5s-0.667-0.167-1.333-1s0.833-1.905,0.333-3.286s-2-2.881-1-3.047
			s2.167,1.5,2.333-0.333s1.167-2.5-0.5-3.833s-2.167,0.167-2.167-2s-0.502-2.5-1.584-3.667s-1.916-3.333-2.082-5.5
			s2.833-1.5,2.833-3.5s0.166-3,1.833-2.667s4.667-1.459,3.667-0.063s-3.334,2.896-1.667,3.229s4.833-0.333,4,1.5
			s-1.938,4.667-1.719,5.5S-1663.529,79.883-1663.529,79.883z"/>
		<path fill="#52AF6C" stroke="#52AF6C" stroke-miterlimit="10" d="M-1676.196,79.883c1,0,2.834-1.5,3.167,0s1,2.833,0,3.333
			s-1.972,1.333-1.319,2.5s1.639,2.833-0.021,3.5s-1.994,0.833-3.327,1.833s-2.5,1.833-3.333,1.333s-2.667,0.333-2-1.833
			s1.667-2.833,1-4s-2.953-1.333-1.143-2.667s2.476-0.5,3.476-1.333S-1676.196,79.883-1676.196,79.883z"/>
		
			<path fill="#52AF6C" stroke="#52AF6C" stroke-width="3" stroke-linecap="round" stroke-linejoin="round" stroke-miterlimit="10" d="
			M-1694.863,27.716c1.333,1.5,0.5,1.667,2,2.667s3,0.833,2.5,2.667s-2.167,5.167-3.667,5.667s-5.333,4.167-7.333,4.167
			s-2.5-0.167-4-1.167s-1.333,0.5-2.833-1s0-0.667-0.667-2.667s-0.667-1-2.167-2s-1.333-1.667,0-1.667s2.667,0.833,2-0.833
			s-0.833-2.167-2.333-2s-0.667,1.667-1.5,0.167s-2-1.5,0-2.833s3-3.167,4-1.167s2,3.5,3.5,2.667s3.167-0.333,4.5-1.333
			s2.124-0.166,3.146-0.333S-1694.863,27.716-1694.863,27.716z"/>
		
			<path fill="#52AF6C" stroke="#52AF6C" stroke-width="2" stroke-linecap="round" stroke-linejoin="round" stroke-miterlimit="10" d="
			M-1706.363-62.701c-0.25,1-2.75,2.694,0,7.472s7.494,6.528,4.247,10.528s-2.935,3.5-2.216,7.5s7.713,1.25,2.216,7.25
			s-0.307,10-5.527,12.75s-6.22,1.5-3.97,7s4.25,10.5,2.75,11.25s-2.959,0.5-5.104,6s-5.396,8.5-9.896,9.75s-5-0.75-8,1.75
			s-1.75,7.5-5.25,9.75s-7,1.75-9.5,3.75s-2.5,1.5-3,6.5s-4.5,5-4.75,10.25s2.5,8.75-1.5,9.25s-6.25,1.25-8-2s-1.25-1.25-5.5-7.75
			s-2-1.75-4.5-10s-5.5-10-3.5-15.75s6.25-10.25,5.25-13.75s1-11-4-14.75s-6.5-1-6.5-8.25s-4-21.25-7-23.5s-1.5-3-10.75-3.25
			s-10.75,1.5-13-2.25s-4.25-3.5-3.5-5s6.25,0,5-4s-12.25-9.5-10.25-10.5S-1706.363-62.701-1706.363-62.701z"/>
		
			<path fill="#52AF6C" stroke="#52AF6C" stroke-width="2" stroke-linecap="round" stroke-linejoin="round" stroke-miterlimit="10" d="
			M-1933.363,8.549c0,0,15.5,8.5,24.5,9s6.5-2.5,14,0s11,8.5,16,3.5s12,3.5,9-8.5s-6.056-18.746,0.722-14.873
			s4.778,10.337,8.278,12.105s3.5-1.232,6,5.768s-1.5-11.536,6.5-5.768s12,9.63,8,13.199s-12.833,16.069-18.833,19.902
			s-13.333,14.96-8.333,21.063s9,6.77,14.667,10.437s9-0.175,9.667,6.746s4.666,13.887,6.333,11.404s-1-4.816,1.333-8.816
			s3.667,2.333,4.667-6.333s1.667-7.667,0-12s0.667-3.437-0.333-6.885s0,1.218-1-3.448s-4-6,0.667-6s5.015-2.666,9.174-0.333
			s7.492,2.666,7.492,5.333s1.333,10.127,2,9.897s1.334,1.563,3.667,0s2-7,4.667-5.449s5,11.886,7.333,14.219s6,7.158,8,8.412
			s9,4.254,7,8.921s-2.622,6.667,0.355,9.667s7.312,2,3.645,5s-3.667,5.333-8,3s-7.667-0.667-6-4s5-7.667,2.333-8
			s-2.667,3.522-6,2.594s-5-1.072-8,0s-7.667,0.739-5.667,2.406s3.667,1.666,5,5.333s5.333,5.667,1.333,7s1-1.333-4,1.333
			s-7,4.333-8.333,5.667s0,5.832-4.667,7.25s-6.667,3.084-6.667,6.084s4.667,3.667-0.667,7.667s-6.667,5.333-9,9
			s-2.333-1.333-2.333,3.667s1.667,7.334,1.333,9.667s-1.667,7.333-2.667,5.333s-3-3.001-3-5.667s2.333-3.333,0-4.333
			s-3.334-1.999-7.667-2.333s-6.667-2-8,0.333s-0.333,3.333-3.333,2.333s-2.334-2.334-5.667-1s-5-0.333-6.333,3.667
			s-1,4.257-1.333,7.462s0,8.205,1.333,9.538s8.666,9.001,10.333,5.667s1.333-5,4-5.667s9.667-4,8,0s-6.096,5.999-3.214,8.333
			s5.881,2,6.881,3s3,1.667,3,2.667s-0.667,11.666,3.333,12.333s5-1.334,6.333,0s4,3.666,6,2s4.349-4.667,7.174-6
			s12.159,2.668,14.826,2.334s10.667,0.666,13,2.333s9.667,5.999,11.667,6.333s9.667,12.334,13,13.667s15.667,6.334,19.667,7.667
			s3.667,0.666,6,2.666s4.667,0.334,6,2.667s2,6.001,0,7.667s-5.333,5-7,10.333s-0.334,4.333-1.667,8.333
			c-1.333,4-1,10-4.667,11.667c-3.667,1.668-5.333,1.002-8,2.668s-5-0.668-6,4.666s-1,5-2.667,8.334
			c-1.667,3.332-4.334,12.666-9.667,14.332c-5.333,1.668-5-2.332-7,0c-2,2.334,0,7-3.333,9.334s-4.333,1.334-7.333,4.334
			s-1.333,8-4.333,7s-2-4.74-3.667,0.129c-1.667,4.871-4.333,5.869-4,10.537c0.333,4.666,5,2.666,1.667,7s-8,6.668-7.333,12.334
			s7,14,7.333,15s-3.333,4-8,2.332c-4.667-1.666-7.333-3.332-8.667-8.332s-3-6.002-2.667-13.334c0.333-7.334,3-19,2.333-22
			s-2.333-5-1.333-12s7-12.666,6.333-18.666s-3-3.666-0.667-13s6.667-13.668,2.667-17.668s-8.333-4.667-11.667-9.667
			s-2.667-7.333-5.667-12.333s-5.333-5.001-6.333-7.667s2.333-4.333,1.667-8.333s-0.571-7,2.714-10s4.952-2.999,3.286-7.333
			s-2.238-4.334-3.286-5.334s0.62,0.667-4.047-0.333s-3.667-1.333-7.333-3.333s1.333,1.667-5-4s-11-9.666-16.333-11
			s-2.667,2-7.667-0.667s-9-4.666-11.667-6.333s-7,0-7-3.667s-1.333-7.667-5.333-10.333s-4.667-3-6.333-6s-2.667-5.999-4-7.666
			s-2.333-4.334-3.333-2.334s-1,2.001,0.333,5.334s2.334,7,3.667,8s5,4.666,4.667,5.666s-3.333,6.295-4.667-0.666
			s-2.667-6.667-4-8.667s-2-3.666-3.333-6.333s-2-6-3.333-7.667s-2.333,0.667-7.333-5c-5-5.667-4.667-8.333-6.167-10.667
			s0-124.333,0-124.333V8.549z"/>
		
			<path fill="#52AF6C" stroke="#52AF6C" stroke-width="2" stroke-linecap="round" stroke-linejoin="round" stroke-miterlimit="10" d="
			M-1934.029-3.418c1.5,1.136,8.167,3.197,7.833,0s-1.309-7.198,0.012-8.531s4.988-2.667,6.988-5s7.333-7.667,2.333-7.667
			s-5.421,2.333-7.544,0s-6.79-3-6.79-3s-2.334-2.667-2.833,0S-1934.029-3.418-1934.029-3.418z"/>
		
			<path fill="#52AF6C" stroke="#52AF6C" stroke-width="2" stroke-linecap="round" stroke-linejoin="round" stroke-miterlimit="10" d="
			M-1885.529,6.718c-1-4-3.667-4.75-5-9.042s-1.667-5.625-2.333-7.958s5.667-1.613,0-4.973s-3,1.306-7,2.306s-0.667,0-5.667-0.333
			s-5.333,1.333-6.333-0.333s0.333-5.946-4.333-1.64s-8,8.136-5.333,10.055s11.333-2.604,11,3.491s-1.175,6.428-4.254,6.428
			s-4.746-3-4.746,0s5,7.667,7,8s8.333,1,11,0s4.333-0.276,7.667,0.528s8.667,0.805,8.333-1.862S-1885.529,6.718-1885.529,6.718z"/>
		
			<path fill="#52AF6C" stroke="#52AF6C" stroke-width="2" stroke-linecap="round" stroke-linejoin="round" stroke-miterlimit="10" d="
			M-1876.529-20.282c-2.333-1-2.667-2-6,0s-1.97,2.333-2.985,6.667s0.318,4.333,2.318,6.333s2,1.495,4.667,5.581
			s-0.667-1.581,2-4.248s6.333,0.528,3.667-4.902S-1876.529-20.282-1876.529-20.282z"/>
		
			<path fill="#52AF6C" stroke="#52AF6C" stroke-width="2" stroke-linecap="round" stroke-linejoin="round" stroke-miterlimit="10" d="
			M-1849.196-21.436c-4,0.821-6.333,0.875-7.667,6.181s-0.667,9.034,0,11.837s0.896,5.802,3.448,6.469s2.885,1.667,9.885,2.667
			s0.762-5,8.047,0s18.619,10.333,15.286,16.667s-1,10-5.667,10s-9-2.055-7,2.473s2.333,5.194,6.333,4.527s10.666,9,14.333,9.333
			s8.333,3.333,6-2s5.587-3.333,0.627-9s-6.294-9.667-1.627-7.667s9,6.667,9.333,0.333s-4-6.333-5-9.333s-5,2.662-6.667-7.335
			s-6.652-10.937-12.826-17.134s-4.507-4.197-9.507-8.864s-7-9.34-11.333-4.837s-3.666,9.17-4.333,10.503s-3.667-0.472-4-4.236
			S-1849.196-21.436-1849.196-21.436z"/>
		
			<path fill="#52AF6C" stroke="#52AF6C" stroke-width="2" stroke-linecap="round" stroke-linejoin="round" stroke-miterlimit="10" d="
			M-1847.196,34.857c0,0-8.667,3.857-3.667,8.025s5,1.169,9,1.835s8.667-1.767,4.667-4.717s-3.692-5.144-6.846-5.144
			S-1847.196,34.857-1847.196,34.857z"/>
		
			<path fill="#52AF6C" stroke="#52AF6C" stroke-width="2" stroke-linecap="round" stroke-linejoin="round" stroke-miterlimit="10" d="
			M-1869.862-22.949c4.667-1,9-2,9.333,0s4,2.993,0,5.83s-2.667,6.365-5,6.268s-2.667,3.764-4.333,0
			S-1869.862-22.949-1869.862-22.949z"/>
		
			<path fill="#52AF6C" stroke="#52AF6C" stroke-width="4" stroke-linecap="round" stroke-linejoin="round" stroke-miterlimit="10" d="
			M-1827.738-63.145c0,0-0.124,2.863-2.124,5.53s-2.667,0.333-3.333,6.333s8.057,11-2.472,10.333s-6.302,3.119-16.749,0.06
			s-15.446-5.726-9.113-8.393s15-6,12-9.333s0.333-4.53,0.333-4.53H-1827.738z"/>
		
			<path fill="#52AF6C" stroke="#52AF6C" stroke-width="2" stroke-linecap="round" stroke-linejoin="round" stroke-miterlimit="10" d="
			M-1844.042-36.949c1.513-0.333,8.236-0.667,8.375,3.333s2.486,4.296-4.188,4.815s-7.341-0.852-11.007,0s-4.667,1.391-9,0.121
			s-3.886,0.569-4.776-3.85s-2.89-7.085-3.89-8.752s-4-5.667,0-3.333s6.46,7.31,10.896,7.988S-1844.042-36.949-1844.042-36.949z"/>
		
			<path fill="#52AF6C" stroke="#52AF6C" stroke-width="2" stroke-linecap="round" stroke-linejoin="round" stroke-miterlimit="10" d="
			M-1876.862-41.615c-1.333-1.333-1.667-5.426-4.667-3.713s-2,0.921-6.333,1.65s-8-0.398-2.667,3.999s8,2.04,8,3.052
			s2.594,4.678,3.63,4.678s1.036,3.333,2.036,0S-1876.862-41.615-1876.862-41.615z"/>
		
			<path fill="#52AF6C" stroke="#52AF6C" stroke-width="2" stroke-linecap="round" stroke-linejoin="round" stroke-miterlimit="10" d="
			M-1897.196-39.679c-3.667-3.603-2.333-6.854-5-6.062s-0.933,2.126-1.8,4.459s0.8,3.022-3.2,3.178s-6.175-0.868-7.587,1.477
			s-4.587,3.011,0,3.678s8.254-2.667,6.254,0s-6,4.712-0.667,5.023s5.667-0.393,8-0.875s7.667-3.814,6-6.481
			S-1897.196-39.679-1897.196-39.679z"/>
		<path fill="#52AF6C" stroke="#52AF6C" stroke-miterlimit="10" d="M-1093.863,18.049c-1.5-1.5-5.5-7.176-10-3.838
			s-8,9.838-12.5,3.838s-3-8.5-10.5-8.5s-1.5-0.5-10.5,0s-9,0.556-16.5-0.222s1-0.222-11,0s-13-0.778-18.5-2.778s-5-3-11.5-4.5
			s-10.5-4.631-17-2.315s-14,5.122-15,9.969s-6.5,6.244,0,10.795s11,6.551,8,8.551s-6.5,2.616-7.5,5.808s7.5,3.859,6,8.025
			s-5-3.214-3,6.976s3.5,24.19,12,22.69s8.5-5.206,10-8.603s-10.5-4,5-5.449s21.5,1.846,26,5.449s26.5,20.603,28,26.103
			s5,20.319,4,26.66s-4,9.34,2.5,20.34s7.5,8.5,15,19s12.5,16.5,12.5,14.5s-4.5-14.5-4.5-14.5s8.5,9,10.5,11s8.5,12.5,8.5,12.5
			V18.049z"/>
		<path fill="#52AF6C" stroke="#52AF6C" stroke-miterlimit="10" d="M-1093.863-3.418c0,0,1.5-11.369-2.5-13.701s-4.5,1.267-10,0.467
			s0,6.268-10.5-1.266s-7.5-7.839-15-6.187s-11,0.716-9,9.935s-1.5,14.284,5.5,10.751s-1-9.533,7-3.533s6-0.5,8,6s4.5,7.5,6.5,10
			s-6,9.833,4,4.667s10-6.167,13-7.167S-1093.863-3.418-1093.863-3.418z"/>
		<path fill="#52AF6C" stroke="#52AF6C" stroke-miterlimit="10" d="M-1320.863,297.55c0,0-1,22-10.5,21.5s-14,3.5-17-2
			s-4.5-9.5-6.5-11s-0.5,3-6.5-1s1-10-9-7.5s-12.5,5.5-17,7s-3,3.85-10.5,3.924c-7.5,0.076-7.5,5.076-8-2.424s3-9.5,0-15.5
			s-5.1-9-0.05-14s13.55-1.5,15.05-7.5c1.5-6,1-5.5,6.5-9s7,5.5,10.5,0c3.5-5.5,6-12.5,12-7.5s4.5,0,6,5s1.5,8.5,5.5,5.5
			c4-3,2-15.926,4.5-12.213s7,8.213,9.5,13.213c2.5,5,13.5,12.5,15.5,18.5S-1320.863,297.55-1320.863,297.55z"/>
		<path fill="#52AF6C" stroke="#52AF6C" stroke-miterlimit="10" d="M-1369.196,228.049c0,0,2.459,0.333,4.729,2s4.27,4,5.604,2.667
			s1.001-4.604,5.334-2.136s6.666,2.803,9.333,4.136s5,0.999,6,3.333s4.666,4.986,6.333,6.993s4.666,8.253,0,5.13
			s-5.333-4.137-9.333-5.13s-5.172,1.993-8.086,0s-2.247,2.007-2.914-1.993s-0.667-5.334-5-6s-6.541-1.667-7.271-3
			s-4.729-0.666-4.729-3.333S-1369.196,228.049-1369.196,228.049z"/>
		<path fill="#52AF6C" stroke="#52AF6C" stroke-miterlimit="10" d="M-1398.529,213.049c-4,0-6.334,1-7.667,3s-3.999,4-6.333,4.667
			s-5.334,0.334-5.334,3.667s-0.666,5.332,2.334,6.666s8.666,2.334,10.666,2.334s2.334-2.001,4.334-5.334s3.334-2.334,2-6
			s-2-4.332-1-6.666S-1398.529,213.049-1398.529,213.049z"/>
		<path fill="#52AF6C" stroke="#52AF6C" stroke-miterlimit="10" d="M-1447.696,215.05c0,0,1.668-0.834,3.334,0.833
			s4.333,3.166,5.333,4.333s3.5,1.666,5.5,3s2.167,2.834,4.167,5.667s5.834,2.167,5.5,4.5s0.833,6.647-1.667,6.157
			s-4.499-1.158-5.833-2.824s-4.501-4.499-5.334-6.166s-1.333-3-4.333-5.667s-3.166-3.666-5.833-5.833
			S-1447.696,215.05-1447.696,215.05z"/>
		<path fill="#52AF6C" stroke="#52AF6C" stroke-miterlimit="10" d="M-1420.862,239.579c0.5,0.472,6,2.304,6.5,2.138
			s3.974-0.166,5.403,0.834s6.263,2.666,3.263,2.833s-4,0.333-6,0s-2-1.167-4.5-1.167s-5.332,0.001-6.166-0.666s0-1.333,0-2
			S-1420.862,239.579-1420.862,239.579z"/>
		<path fill="#52AF6C" stroke="#52AF6C" stroke-miterlimit="10" d="M-1378.862,245.576c-0.5-0.192-3.668-0.475-4.334,0
			s-3.166,1.142-3.333,2.142s-1.167,3.244,0,2.455s1.833-2.236,2.333-2.346s2,0.776,2.667,0S-1378.862,245.576-1378.862,245.576z"/>
		<path fill="#52AF6C" stroke="#52AF6C" stroke-miterlimit="10" d="M-1391.529,185.05c-0.833,0-1.667,3-2.167,4.5s-1,0.834,0,2.667
			s2.5,3,3.167,2.5s-0.166-2.333,0.667-3.5s1.832-3.001,1.166-4.334S-1391.529,185.05-1391.529,185.05z"/>
		<path fill="#52AF6C" stroke="#52AF6C" stroke-miterlimit="10" d="M-1381.196,205.717c-2.333,0.5-1.832,1.499-3.166,1.666
			s-0.782-1-2.725,0s-1.841,2.501-1.392,2.334s1.449-0.641,1.949,0.013s1.166,2.818,2.333,3.319s3.833-0.665,3-2.332
			s2-1.668,1-3.334S-1381.196,205.717-1381.196,205.717z"/>
		<path fill="#52AF6C" stroke="#52AF6C" stroke-miterlimit="10" d="M-1392.362,229.217c1.5,0,0.999-1.669,2.666-1.168
			s3.719-0.26,2.609,0.537s-2.352,1.63-2.48,2.297s2.923,1.834,2.48,3.667s-1.019,2.667-2.48,2.5s-0.822-4.001-1.809-3.667
			s-2.153-1.667-2.153,0s0.167,2.541,0,3.688s-1.166,2.48-1.833,1.646s-0.667-1.334-0.667-3.167s0.833-1.666,0-2.833
			s0.167-1.5,0-2.667s1.845-3.347,1.756-2.84S-1392.362,229.217-1392.362,229.217z"/>
		<path fill="#52AF6C" stroke="#52AF6C" stroke-miterlimit="10" d="M-1275.363,330.216c0.167-1.166,2.834-2,0.667-3.166
			c-2.167-1.168-2.667-1.668-3.667-1c-1,0.666-0.833,1.332-2,3c-1.167,1.666-1.999,1.834-3.333,3.166
			c-1.334,1.334-0.334,1.168-3.334,3.5c-3,2.334-3.834,2.5-4,4s3.001,3,4.334,3.166c1.333,0.168,3.671,0.502,4.252-1.166
			c0.581-1.666,2.081-4,2.081-5.5s0.166-2.166,1.833-3S-1275.363,330.216-1275.363,330.216z"/>
		<path fill="#52AF6C" stroke="#52AF6C" stroke-miterlimit="10" d="M-1268.363,316.382c-1.333-0.832-2.333-3-2.833-3.5
			s-1.644-1.947-2.655-3.057s-2.845-1.223-2.012,0c0.833,1.225,1.856,3.557,2.012,4.225c0.155,0.666,2.777,2.832,1.633,3.832
			s-0.788,1.547-1.633,2.107s-1.345,1.227-1.012,1.727s4,0.332,4,1.666s-1.333,1.402-0.333,2.369c1,0.965,2.5,2.033,2.833,0
			c0.333-2.035-1.833-2.369,0-3.701c1.833-1.334,2.833-1.668,2.833-3c0-1.334,0.834-0.738-0.833-1.119
			S-1268.363,316.382-1268.363,316.382z"/>
	</g>
</g>
<g id="Himmel" display="none">
	<path fill="#52AF6C" stroke="#52AF6C" stroke-miterlimit="10" d="M-858.635,208.327"/>
	<rect x="-267.399" y="-35.674" display="inline" fill="#D3ECF9" width="960" height="600"/>
</g>
<g id="Jordglob_1_">
	<path display="none" fill="#156EA0" d="M155.677,392.66c-70.877,0-128.333-57.457-128.333-128.333
		c0-70.877,57.456-128.334,128.333-128.334V392.66z"/>
</g>
<g id="Sol">
	<g display="none">
		
			<polygon display="inline" fill="#FFCE09" stroke="#FFCE09" stroke-linecap="round" stroke-linejoin="round" stroke-miterlimit="10" points="
			783.041,97.431 795.478,132.403 829.001,116.468 813.067,149.992 848.041,162.429 813.067,174.866 829.001,208.389 
			795.478,192.454 783.041,227.428 770.606,192.454 737.081,208.389 753.017,174.866 718.041,162.429 753.017,149.992 
			737.081,116.468 770.606,132.403 		"/>
		
			<polygon display="inline" fill="#FFD93F" stroke="#FFD93F" stroke-width="2" stroke-linecap="round" stroke-linejoin="round" stroke-miterlimit="10" points="
			730.189,142.163 762.503,142.956 759.998,110.726 782.289,134.137 803.306,109.575 802.518,141.891 834.747,139.388 
			811.333,161.679 835.895,182.696 803.578,181.903 806.086,214.134 783.792,190.722 762.775,215.284 763.566,182.967 
			731.337,185.473 754.748,163.18 		"/>
		
			<circle display="inline" fill="#FFD93F" stroke="#FFD93F" stroke-width="2" stroke-linecap="round" stroke-linejoin="round" stroke-miterlimit="10" cx="783.042" cy="162.428" r="40.137"/>
	</g>
	<g display="none">
		
			<polygon display="inline" fill="#FFCE09" stroke="#FFCE09" stroke-linecap="round" stroke-linejoin="round" stroke-miterlimit="10" points="
			730.646,276.282 761.952,294.626 788.896,270.327 788.664,306.609 823.179,317.796 791.641,335.735 799.212,371.22 
			767.907,352.876 740.961,377.175 741.195,340.893 706.678,329.706 738.217,311.767 		"/>
		
			<polygon display="inline" fill="#FFD93F" stroke="#FFD93F" stroke-linecap="round" stroke-linejoin="round" stroke-miterlimit="10" points="
			719.844,306.05 750.526,305.153 758.942,275.636 775.059,301.759 804.831,294.29 790.266,321.308 811.622,343.356 
			780.939,344.253 772.524,373.771 756.406,347.647 726.633,355.117 741.199,328.099 		"/>
		
			<circle display="inline" fill="#FFD93F" stroke="#FFD93F" stroke-width="1.648" stroke-linecap="round" stroke-linejoin="round" stroke-miterlimit="10" cx="765.732" cy="324.703" r="33.073"/>
	</g>
	<g>
		<circle fill="#109B97" cx="202.899" cy="264.327" r="128.333"/>
		<g>
			<defs>
				<circle id="SVGID_1_" cx="202.899" cy="264.327" r="128.333"/>
			</defs>
			<clipPath id="SVGID_2_">
				<use xlink:href="#SVGID_1_"  overflow="visible"/>
			</clipPath>
			
				<path clip-path="url(#SVGID_2_)" fill="#6CD39D" stroke="#6CD39D" stroke-linecap="round" stroke-linejoin="round" stroke-miterlimit="10" d="
				M166.654,225.382"/>
			
				<path clip-path="url(#SVGID_2_)" fill="#83AF6E" stroke="#83AF6E" stroke-linecap="round" stroke-linejoin="round" stroke-miterlimit="10" d="
				M147.343,220.288c0,0,1.15,5.587,3.123,6.573c1.972,0.986,4.273,1.973,3.78,3.453c-0.493,1.479,0,3.616-1.644,4.108
				c-1.644,0.493-3.944,1.151-5.259,1.151c-1.315,0-2.63-1.15-3.616,0c-0.987,1.15-2.958,3.944-3.945,2.466
				c-0.986-1.479-1.808-2.137,0-2.958c1.808-0.823,3.288-0.822,2.794-1.48c-0.493-0.657-0.657-0.164-1.315-0.985
				c-0.657-0.822,0.822-1.879,0.329-3.241c-0.493-1.362-1.973-2.841-0.986-3.005c0.986-0.165,2.137,1.478,2.302-0.329
				c0.164-1.808,1.15-2.465-0.494-3.78c-1.644-1.315-2.137,0.165-2.137-1.972s-0.495-2.466-1.562-3.617
				c-1.067-1.15-1.889-3.287-2.053-5.424c-0.165-2.136,2.794-1.479,2.794-3.451s0.163-2.959,1.807-2.63
				c1.645,0.329,4.602-1.439,3.616-0.062c-0.986,1.377-3.287,2.856-1.644,3.185s4.766-0.329,3.944,1.479
				c-0.821,1.808-1.91,4.602-1.695,5.423C145.699,216.015,147.343,220.288,147.343,220.288z"/>
			
				<path clip-path="url(#SVGID_2_)" fill="#83AF6E" stroke="#83AF6E" stroke-linecap="round" stroke-linejoin="round" stroke-miterlimit="10" d="
				M130.851,222.288c0.986,0,2.795-1.479,3.124,0c0.328,1.479,0.986,2.793,0,3.287c-0.987,0.493-1.944,1.314-1.302,2.466
				c0.644,1.15,1.616,2.793-0.021,3.45c-1.636,0.659-1.966,0.823-3.281,1.809c-1.314,0.985-2.464,1.807-3.286,1.315
				c-0.822-0.494-2.629,0.328-1.973-1.809c0.658-2.136,1.644-2.794,0.986-3.945c-0.658-1.15-2.912-1.314-1.126-2.629
				c1.784-1.315,2.441-0.493,3.428-1.315C128.386,224.095,130.851,222.288,130.851,222.288z"/>
			
				<path display="none" clip-path="url(#SVGID_2_)" fill="#6CD39D" stroke="#6CD39D" stroke-linecap="round" stroke-linejoin="round" stroke-miterlimit="10" d="
				M116.443,168.844c1.315,1.479,0.493,1.644,1.972,2.63c1.479,0.986,2.959,0.821,2.465,2.63c-0.493,1.808-2.136,5.095-3.615,5.588
				c-1.479,0.493-5.26,4.109-7.232,4.109c-1.972,0-2.465-0.164-3.944-1.15c-1.479-0.987-1.315,0.492-2.794-0.987
				c-1.479-1.479,0-0.657-0.658-2.63c-0.658-1.972-0.658-0.985-2.136-1.972c-1.479-0.986-1.314-1.644,0-1.644
				c1.315,0,2.63,0.822,1.972-0.822c-0.657-1.643-0.821-2.137-2.301-1.972c-1.479,0.164-0.658,1.644-1.479,0.164
				c-0.821-1.479-1.972-1.479,0-2.794s2.959-3.123,3.944-1.15c0.986,1.973,1.972,3.452,3.452,2.63
				c1.479-0.822,3.123-0.329,4.438-1.315c1.315-0.986,2.095-0.164,3.102-0.328C114.636,169.666,116.443,168.844,116.443,168.844z"/>
			
				<path clip-path="url(#SVGID_2_)" fill="#6CD39D" stroke="#6CD39D" stroke-linecap="round" stroke-linejoin="round" stroke-miterlimit="10" d="
				M105.103,79.681c-0.247,0.986-2.711,2.657,0,7.368c2.712,4.711,7.39,6.438,4.188,10.382c-3.202,3.944-2.894,3.452-2.185,7.396
				s7.606,1.232,2.185,7.149c-5.42,5.917-0.301,9.862-5.45,12.573c-5.148,2.712-6.134,1.48-3.915,6.903
				c2.218,5.424,4.19,10.354,2.711,11.094c-1.479,0.74-2.917,0.493-5.033,5.917c-2.116,5.424-5.321,8.382-9.759,9.615
				c-4.437,1.232-4.931-0.74-7.889,1.725c-2.958,2.465-1.726,7.396-5.178,9.615c-3.451,2.219-6.903,1.727-9.368,3.699
				s-2.465,1.479-2.958,6.41c-0.493,4.93-4.438,4.93-4.684,10.107c-0.247,5.177,2.465,8.628-1.479,9.122
				c-3.945,0.493-6.164,1.232-7.889-1.973c-1.726-3.205-1.233-1.232-5.424-7.642s-1.972-1.726-4.438-9.861
				c-2.465-8.136-5.423-9.862-3.452-15.532c1.973-5.67,6.164-10.107,5.178-13.559c-0.987-3.452,0.986-10.848-3.945-14.545
				c-4.931-3.698-6.41-0.986-6.41-8.136c0-7.15-3.944-20.956-6.903-23.174c-2.958-2.219-1.479-2.958-10.601-3.205
				c-9.122-0.246-10.601,1.479-12.82-2.219s-4.191-3.452-3.452-4.931c0.739-1.479,6.163,0,4.931-3.945
				c-1.233-3.944-12.081-9.368-10.107-10.354C-7.07,78.694,105.103,79.681,105.103,79.681z"/>
			
				<path clip-path="url(#SVGID_2_)" fill="#6CD39D" stroke="#6CD39D" stroke-linecap="round" stroke-linejoin="round" stroke-miterlimit="10" d="
				M-118.75,149.943c0,0,15.286,8.382,24.161,8.875c8.875,0.493,6.41-2.466,13.806,0c7.397,2.465,10.848,8.382,15.778,3.451
				c4.931-4.93,11.834,3.452,8.875-8.382c-2.958-11.834-5.972-18.486,0.713-14.667c6.684,3.819,4.711,10.193,8.163,11.937
				c3.452,1.744,3.452-1.214,5.917,5.688c2.466,6.903-1.479-11.376,6.41-5.688c7.889,5.688,11.834,9.497,7.889,13.017
				c-3.944,3.52-12.655,15.846-18.572,19.626c-5.917,3.78-13.149,14.753-8.217,20.771c4.93,6.02,8.875,6.676,14.462,10.293
				c5.589,3.615,8.876-0.174,9.533,6.651c0.657,6.825,4.601,13.694,6.245,11.246c1.644-2.448-0.986-4.75,1.315-8.694
				c2.301-3.944,3.616,2.302,4.602-6.245c0.986-8.546,1.643-7.56,0-11.833c-1.644-4.273,0.657-3.389-0.329-6.79
				c-0.986-3.401,0,1.201-0.986-3.401c-0.986-4.602-3.944-5.917,0.657-5.917c4.601,0,4.945-2.629,9.047-0.329
				c4.102,2.3,7.389,2.629,7.389,5.259s1.314,9.986,1.972,9.759c0.658-0.226,1.315,1.542,3.616,0
				c2.301-1.541,1.973-6.903,4.602-5.373c2.629,1.53,4.931,11.721,7.232,14.021c2.301,2.3,5.917,7.059,7.889,8.295
				c1.972,1.236,8.875,4.195,6.903,8.798c-1.973,4.601-2.586,6.574,0.351,9.532c2.937,2.959,7.209,1.973,3.594,4.931
				c-3.616,2.958-3.616,5.26-7.889,2.958c-4.273-2.301-7.56-0.657-5.917-3.945c1.644-3.287,4.93-7.561,2.3-7.889
				c-2.629-0.329-2.63,3.474-5.917,2.558c-3.287-0.915-4.931-1.057-7.889,0c-2.958,1.058-7.56,0.73-5.588,2.373
				c1.972,1.644,3.616,1.643,4.931,5.259c1.315,3.616,5.259,5.587,1.315,6.903c-3.945,1.315,0.985-1.315-3.945,1.315
				c-4.931,2.629-6.903,4.274-8.218,5.587c-1.315,1.315,0,5.752-4.602,7.148c-4.603,1.398-6.575,3.042-6.575,5.999
				c0,2.96,4.603,3.617-0.657,7.561c-5.26,3.945-6.574,5.258-8.875,8.877c-2.301,3.614-2.301-1.315-2.301,3.614
				c0,4.932,1.644,7.235,1.315,9.535c-0.33,2.299-1.644,7.231-2.629,5.259c-0.987-1.974-2.959-2.96-2.959-5.589s2.301-3.288,0-4.273
				c-2.301-0.986-3.288-1.972-7.561-2.301c-4.272-0.328-6.575-1.973-7.889,0.329c-1.314,2.301-0.328,3.286-3.287,2.301
				c-2.958-0.986-2.302-2.304-5.588-0.986c-3.287,1.313-4.93-0.329-6.245,3.614c-1.314,3.945-0.986,4.2-1.314,7.359
				c-0.33,3.161,0,8.091,1.314,9.407c1.315,1.313,8.545,8.874,10.19,5.589c1.643-3.288,1.314-4.932,3.944-5.589
				c2.63-0.659,9.532-3.945,7.889,0c-1.644,3.943-6.012,5.915-3.169,8.217c2.841,2.301,5.799,1.974,6.786,2.958
				c0.986,0.987,2.958,1.645,2.958,2.629c0,0.986-0.658,11.505,3.287,12.165c3.944,0.656,4.931-1.318,6.246,0
				c1.315,1.312,3.945,3.613,5.917,1.97c1.973-1.642,4.289-4.602,7.075-5.917c2.787-1.312,11.991,2.631,14.62,2.303
				c2.629-0.33,10.519,0.657,12.82,2.301c2.301,1.645,9.532,5.915,11.504,6.245c1.972,0.328,9.532,12.163,12.82,13.478
				c3.288,1.313,15.45,6.246,19.395,7.561c3.945,1.314,3.616,0.658,5.917,2.63s4.602,0.329,5.917,2.628
				c1.314,2.302,1.972,5.921,0,7.562c-1.973,1.643-5.259,4.931-6.903,10.19c-1.644,5.258-0.33,4.273-1.644,8.218
				c-1.315,3.944-0.986,9.86-4.602,11.504c-3.617,1.646-5.26,0.988-7.889,2.63c-2.63,1.646-4.931-0.658-5.917,4.603
				c-0.985,5.26-0.985,4.932-2.629,8.217c-1.644,3.288-4.273,12.492-9.533,14.135c-5.259,1.645-4.931-2.299-6.903,0
				c-1.973,2.301,0,6.903-3.287,9.205c-3.287,2.301-4.273,1.315-7.231,4.273c-2.959,2.958-1.315,7.89-4.273,6.903
				c-2.958-0.986-1.973-4.676-3.616,0.128c-1.643,4.802-4.273,5.788-3.944,10.391c0.329,4.602,4.93,2.629,1.644,6.902
				c-3.287,4.274-7.889,6.575-7.232,12.163c0.658,5.588,6.903,13.806,7.232,14.792c0.329,0.986-3.288,3.945-7.889,2.302
				c-4.603-1.646-7.231-3.288-8.546-8.219c-1.315-4.932-2.958-5.918-2.629-13.148c0.328-7.232,2.958-18.737,2.3-21.696
				c-0.657-2.958-2.3-4.932-1.314-11.833c0.986-6.903,6.902-12.492,6.245-18.408c-0.658-5.915-2.958-3.615-0.658-12.819
				c2.302-9.205,6.575-13.477,2.63-17.423c-3.944-3.941-8.217-4.601-11.504-9.531s-2.63-7.231-5.588-12.163
				c-2.958-4.93-5.26-4.932-6.246-7.562c-0.986-2.629,2.3-4.271,1.643-8.215c-0.657-3.945-0.563-6.905,2.677-9.862
				c3.24-2.959,4.883-2.957,3.24-7.232c-1.644-4.272-2.207-4.272-3.24-5.26c-1.032-0.985,0.611,0.657-3.991-0.329
				c-4.603-0.984-3.616-1.312-7.232-3.285c-3.616-1.973,1.315,1.644-4.93-3.945c-6.246-5.589-10.848-9.53-16.107-10.849
				c-5.259-1.312-2.63,1.975-7.56-0.656c-4.931-2.63-8.875-4.602-11.505-6.246c-2.63-1.644-6.903,0-6.903-3.616
				c0-3.615-1.315-7.561-5.26-10.189c-3.944-2.63-4.602-2.957-6.246-5.915c-1.644-2.959-2.63-5.917-3.944-7.561
				c-1.315-1.645-2.3-4.275-3.287-2.301c-0.986,1.973-0.987,1.973,0.328,5.258c1.315,3.288,2.302,6.904,3.616,7.889
				c1.315,0.987,4.932,4.603,4.603,5.589c-0.33,0.985-3.287,6.207-4.603-0.656c-1.315-6.865-2.629-6.576-3.944-8.548
				c-1.315-1.97-1.972-3.615-3.287-6.245s-1.973-5.916-3.287-7.562c-1.314-1.642-2.301,0.659-7.232-4.93
				c-4.93-5.588-4.603-8.218-6.082-10.52c-1.479-2.3,0-122.607,0-122.607V149.943z"/>
			
				<path clip-path="url(#SVGID_2_)" fill="#6CD39D" stroke="#6CD39D" stroke-linecap="round" stroke-linejoin="round" stroke-miterlimit="10" d="
				M-119.407,138.142c1.479,1.12,8.053,3.153,7.725,0s-1.291-7.098,0.012-8.413c1.304-1.314,4.919-2.63,6.891-4.93
				c1.973-2.301,7.232-7.561,2.301-7.561s-5.346,2.302-7.439,0c-2.093-2.301-6.696-2.958-6.696-2.958s-2.301-2.629-2.793,0
				S-119.407,138.142-119.407,138.142z"/>
			
				<path clip-path="url(#SVGID_2_)" fill="#6CD39D" stroke="#6CD39D" stroke-linecap="round" stroke-linejoin="round" stroke-miterlimit="10" d="
				M-71.58,148.137c-0.986-3.945-3.616-4.685-4.931-8.916c-1.315-4.232-1.644-5.547-2.301-7.848c-0.658-2.301,5.588-1.59,0-4.904
				c-5.588-3.313-2.958,1.289-6.903,2.274c-3.945,0.986-0.657,0.001-5.588-0.328c-4.931-0.329-5.26,1.314-6.246-0.329
				s0.329-5.864-4.273-1.617c-4.603,4.247-7.889,8.024-5.259,9.916c2.629,1.892,11.176-2.567,10.847,3.442
				c-0.329,6.01-1.159,6.339-4.195,6.339c-3.037,0-4.681-2.958-4.681,0c0,2.959,4.931,7.561,6.904,7.889
				c1.972,0.329,8.218,0.987,10.847,0c2.629-0.986,4.273-0.272,7.561,0.521c3.287,0.794,8.546,0.794,8.217-1.836
				C-71.908,150.109-71.58,148.137-71.58,148.137z"/>
			
				<path clip-path="url(#SVGID_2_)" fill="#6CD39D" stroke="#6CD39D" stroke-linecap="round" stroke-linejoin="round" stroke-miterlimit="10" d="
				M-62.704,121.511c-2.301-0.986-2.629-1.972-5.917,0c-3.287,1.973-1.943,2.301-2.943,6.574c-1.001,4.273,0.313,4.273,2.286,6.246
				c1.972,1.972,1.972,1.474,4.602,5.503c2.63,4.03-0.657-1.559,1.973-4.188c2.629-2.63,6.246,0.521,3.616-4.834
				C-61.717,125.456-62.704,121.511-62.704,121.511z"/>
			
				<path clip-path="url(#SVGID_2_)" fill="#6CD39D" stroke="#6CD39D" stroke-linecap="round" stroke-linejoin="round" stroke-miterlimit="10" d="
				M-35.75,120.373c-3.944,0.81-6.245,0.864-7.56,6.096c-1.315,5.233-0.658,8.909,0,11.673c0.657,2.764,0.884,5.722,3.4,6.379
				c2.516,0.658,2.845,1.644,9.748,2.63c6.903,0.986,0.751-4.93,7.936,0c7.185,4.93,18.361,10.19,15.074,16.435
				c-3.287,6.247-0.986,9.862-5.588,9.862c-4.602,0-8.875-2.026-6.903,2.438c1.973,4.464,2.301,5.122,6.246,4.464
				c3.945-0.657,10.518,8.876,14.135,9.204c3.616,0.329,8.217,3.288,5.916-1.971c-2.3-5.26,5.51-3.288,0.619-8.875
				c-4.892-5.589-6.207-9.533-1.604-7.561c4.603,1.972,8.875,6.574,9.204,0.329c0.329-6.246-3.944-6.246-4.93-9.205
				c-0.986-2.958-4.93,2.626-6.574-7.233c-1.644-9.859-6.56-10.786-12.648-16.896c-6.088-6.112-4.445-4.14-9.375-8.741
				c-4.931-4.602-6.903-9.211-11.176-4.77c-4.273,4.441-3.615,9.043-4.273,10.358s-3.616-0.465-3.944-4.177
				C-38.379,127.099-35.75,120.373-35.75,120.373z"/>
			
				<path clip-path="url(#SVGID_2_)" fill="#6CD39D" stroke="#6CD39D" stroke-linecap="round" stroke-linejoin="round" stroke-miterlimit="10" d="
				M-33.777,175.886c0,0-8.546,3.803-3.616,7.914c4.931,4.11,4.931,1.153,8.875,1.81c3.944,0.658,8.546-1.742,4.602-4.651
				c-3.944-2.909-3.642-5.072-6.751-5.072C-33.777,175.886-33.777,175.886-33.777,175.886z"/>
			
				<path clip-path="url(#SVGID_2_)" fill="#6CD39D" stroke="#6CD39D" stroke-linecap="round" stroke-linejoin="round" stroke-miterlimit="10" d="
				M-56.13,118.881c4.603-0.986,8.876-1.972,9.205,0c0.328,1.972,3.944,2.952,0,5.749c-3.945,2.798-2.629,6.278-4.931,6.181
				c-2.301-0.096-2.63,3.711-4.274,0C-57.773,127.099-56.13,118.881-56.13,118.881z"/>
			
				<path clip-path="url(#SVGID_2_)" fill="#6CD39D" stroke="#6CD39D" stroke-linecap="round" stroke-linejoin="round" stroke-miterlimit="10" d="
				M-14.59,79.243c0,0-0.122,2.823-2.095,5.453c-1.972,2.63-2.63,0.329-3.287,6.246c-0.658,5.917,7.945,10.847-2.438,10.189
				c-10.382-0.657-6.214,3.076-16.517,0.059c-10.301-3.018-15.231-5.646-8.986-8.277c6.246-2.63,14.792-5.917,11.833-9.204
				c-2.958-3.288,0.329-4.467,0.329-4.467H-14.59z"/>
			
				<path clip-path="url(#SVGID_2_)" fill="#6CD39D" stroke="#6CD39D" stroke-linecap="round" stroke-linejoin="round" stroke-miterlimit="10" d="
				M-30.668,105.075c1.492-0.328,8.123-0.657,8.258,3.288c0.137,3.944,2.453,4.237-4.129,4.748c-6.581,0.512-7.238-0.839-10.854,0
				c-3.615,0.84-4.602,1.372-8.875,0.12c-4.274-1.252-3.833,0.562-4.71-3.796c-0.878-4.359-2.85-6.988-3.836-8.632
				c-0.986-1.644-3.945-5.587,0-3.287c3.944,2.301,6.371,7.209,10.745,7.877C-39.694,106.062-30.668,105.075-30.668,105.075z"/>
			
				<path clip-path="url(#SVGID_2_)" fill="#6CD39D" stroke="#6CD39D" stroke-linecap="round" stroke-linejoin="round" stroke-miterlimit="10" d="
				M-63.033,100.474c-1.315-1.315-1.644-5.351-4.602-3.662s-1.972,0.909-6.246,1.627c-4.273,0.72-7.889-0.392-2.63,3.944
				c5.259,4.336,7.889,2.012,7.889,3.009c0,0.998,2.559,4.614,3.58,4.614c1.022,0,1.022,3.287,2.008,0
				C-62.047,106.719-63.033,100.474-63.033,100.474z"/>
			
				<path clip-path="url(#SVGID_2_)" fill="#6CD39D" stroke="#6CD39D" stroke-linecap="round" stroke-linejoin="round" stroke-miterlimit="10" d="
				M-83.084,102.383c-3.616-3.553-2.301-6.759-4.931-5.978c-2.629,0.781-0.919,2.096-1.775,4.397
				c-0.854,2.301,0.789,2.981-3.155,3.134c-3.945,0.153-6.09-0.856-7.482,1.456c-1.393,2.313-4.524,2.97,0,3.627
				c4.523,0.658,8.139-2.63,6.167,0c-1.973,2.63-5.917,4.647-0.658,4.954c5.26,0.306,5.588-0.388,7.889-0.863
				c2.301-0.474,7.56-3.761,5.917-6.391C-82.756,104.09-83.084,102.383-83.084,102.383z"/>
			
				<path clip-path="url(#SVGID_2_)" fill="#6CD39D" stroke="#6CD39D" stroke-linecap="round" stroke-linejoin="round" stroke-miterlimit="10" d="
				M709.111,159.311c-1.479-1.479-5.422-7.077-9.861-3.785c-4.438,3.292-7.889,9.702-12.328,3.785
				c-4.436-5.917-2.957-8.382-10.352-8.382c-7.396,0-1.48-0.493-10.355,0c-8.875,0.493-8.875,0.548-16.27-0.219
				c-7.398-0.767,0.984-0.22-10.85,0c-11.834,0.219-12.818-0.767-18.242-2.74c-5.426-1.972-4.932-2.958-11.34-4.438
				c-6.412-1.479-10.355-4.566-16.766-2.283c-6.412,2.283-13.805,5.051-14.791,9.831c-0.988,4.779-6.412,6.157,0,10.646
				c6.408,4.488,10.846,6.46,7.889,8.433c-2.961,1.973-6.41,2.58-7.398,5.728c-0.984,3.147,7.398,3.805,5.918,7.914
				c-1.48,4.108-4.93-3.17-2.959,6.879c1.973,10.049,3.451,23.855,11.836,22.375c8.381-1.479,8.381-5.133,9.859-8.484
				c1.48-3.35-10.354-3.944,4.932-5.373s21.201,1.82,25.639,5.373c4.439,3.554,26.133,20.318,27.613,25.742
				c1.479,5.423,4.93,20.037,3.945,26.29c-0.988,6.251-3.945,9.211,2.463,20.058c6.41,10.849,7.396,8.383,14.793,18.737
				c7.396,10.354,12.326,16.271,12.326,14.298s-4.438-14.298-4.438-14.298s8.383,8.874,10.354,10.847
				c1.973,1.972,8.383,12.326,8.383,12.326V159.311z"/>
			
				<path clip-path="url(#SVGID_2_)" fill="#6CD39D" stroke="#6CD39D" stroke-linecap="round" stroke-linejoin="round" stroke-miterlimit="10" d="
				M709.111,138.142c0,0,1.479-11.211-2.465-13.511c-3.945-2.299-4.438,1.25-9.861,0.461c-5.424-0.789,0,6.181-10.354-1.248
				c-10.355-7.43-7.398-7.731-14.791-6.102c-7.398,1.63-10.85,0.707-8.877,9.797c1.973,9.091-1.479,14.086,5.424,10.603
				c6.902-3.484-0.986-9.4,6.902-3.484c7.891,5.917,5.916-0.494,7.891,5.917c1.971,6.41,4.436,7.396,6.408,9.862
				c1.973,2.465-5.916,9.697,3.945,4.602c9.861-5.095,9.861-6.082,12.818-7.068C709.111,146.984,709.111,138.142,709.111,138.142z"
				/>
			
				<path clip-path="url(#SVGID_2_)" fill="#6CD39D" stroke="#6CD39D" stroke-linecap="round" stroke-linejoin="round" stroke-miterlimit="10" d="
				M485.259,434.935c0,0-0.988,21.697-10.355,21.203c-9.369-0.493-13.807,3.451-16.764-1.974c-2.959-5.422-4.438-9.367-6.41-10.846
				s-0.492,2.957-6.41-0.986c-5.918-3.946,0.986-9.862-8.875-7.397c-9.861,2.467-12.326,5.424-16.764,6.905
				c-4.439,1.479-2.961,3.795-10.355,3.869c-7.396,0.075-7.396,5.004-7.891-2.391c-0.492-7.397,2.961-9.368,0-15.284
				c-2.957-5.919-5.027-8.878-0.047-13.808s13.361-1.479,14.842-7.396c1.479-5.916,0.984-5.423,6.408-8.875s6.904,5.422,10.355,0
				c3.451-5.425,5.916-12.326,11.834-7.397c5.916,4.932,4.436,0,5.916,4.932c1.48,4.931,1.48,8.382,5.424,5.425
				c3.945-2.959,1.973-15.704,4.438-12.044s6.902,8.098,9.369,13.028c2.465,4.932,13.312,12.327,15.285,18.245
				C487.232,426.061,485.259,434.935,485.259,434.935z"/>
			
				<path clip-path="url(#SVGID_2_)" fill="#6CD39D" stroke="#6CD39D" stroke-linecap="round" stroke-linejoin="round" stroke-miterlimit="10" d="
				M437.595,366.399c0,0,2.424,0.329,4.664,1.972c2.24,1.646,4.211,3.946,5.525,2.63c1.316-1.313,0.988-4.54,5.26-2.105
				c4.273,2.435,6.574,2.764,9.205,4.078c2.629,1.315,4.93,0.984,5.916,3.287c0.986,2.302,4.604,4.917,6.244,6.896
				c1.645,1.98,4.602,8.139,0,5.06c-4.598-3.079-5.258-4.08-9.203-5.06c-3.943-0.978-5.1,1.965-7.973,0
				c-2.873-1.966-2.217,1.98-2.873-1.966c-0.658-3.943-0.658-5.26-4.932-5.916c-4.271-0.656-6.449-1.645-7.17-2.957
				c-0.721-1.316-4.664-0.658-4.664-3.289C437.595,366.399,437.595,366.399,437.595,366.399z"/>
			
				<path clip-path="url(#SVGID_2_)" fill="#6CD39D" stroke="#6CD39D" stroke-linecap="round" stroke-linejoin="round" stroke-miterlimit="10" d="
				M408.669,351.606c-3.945,0-6.246,0.986-7.561,2.959c-1.314,1.974-3.943,3.945-6.246,4.603c-2.301,0.656-5.26,0.33-5.26,3.616
				c0,3.287-0.656,5.258,2.303,6.574c2.957,1.314,8.545,2.301,10.518,2.301s2.301-1.974,4.273-5.26
				c1.973-3.288,3.287-2.302,1.973-5.917c-1.316-3.616-1.973-4.272-0.986-6.573C408.669,351.606,408.669,351.606,408.669,351.606z"
				/>
			
				<path clip-path="url(#SVGID_2_)" fill="#6CD39D" stroke="#6CD39D" stroke-linecap="round" stroke-linejoin="round" stroke-miterlimit="10" d="
				M360.183,353.58c0,0,1.646-0.82,3.289,0.822s4.271,3.121,5.258,4.271s3.451,1.645,5.424,2.959
				c1.973,1.316,2.139,2.795,4.111,5.589c1.973,2.795,5.752,2.138,5.422,4.438c-0.33,2.301,0.822,6.556-1.643,6.072
				c-2.467-0.482-4.438-1.142-5.752-2.785c-1.316-1.645-4.439-4.438-5.26-6.081c-0.822-1.644-1.316-2.957-4.273-5.588
				c-2.959-2.629-3.123-3.617-5.752-5.752C358.376,355.388,360.183,353.58,360.183,353.58z"/>
			
				<path clip-path="url(#SVGID_2_)" fill="#6CD39D" stroke="#6CD39D" stroke-linecap="round" stroke-linejoin="round" stroke-miterlimit="10" d="
				M386.644,377.769c0.494,0.465,5.918,2.272,6.412,2.109c0.492-0.166,3.918-0.166,5.328,0.821s6.178,2.629,3.217,2.793
				c-2.959,0.165-3.943,0.328-5.916,0c-1.973-0.329-1.973-1.15-4.438-1.15s-5.258,0.002-6.082-0.655c-0.822-0.658,0-1.315,0-1.975
				C385.166,379.056,386.644,377.769,386.644,377.769z"/>
			
				<path clip-path="url(#SVGID_2_)" fill="#6CD39D" stroke="#6CD39D" stroke-linecap="round" stroke-linejoin="round" stroke-miterlimit="10" d="
				M428.064,383.684c-0.494-0.191-3.617-0.47-4.273,0c-0.658,0.466-3.123,1.125-3.287,2.111c-0.166,0.984-1.15,3.198,0,2.421
				s1.807-2.206,2.301-2.313c0.492-0.107,1.971,0.766,2.629,0C426.091,385.138,428.064,383.684,428.064,383.684z"/>
			
				<path clip-path="url(#SVGID_2_)" fill="#6CD39D" stroke="#6CD39D" stroke-linecap="round" stroke-linejoin="round" stroke-miterlimit="10" d="
				M415.574,323.996c-0.822,0-1.645,2.958-2.137,4.438c-0.496,1.479-0.988,0.821,0,2.628c0.984,1.81,2.465,2.96,3.121,2.467
				c0.656-0.494-0.162-2.301,0.656-3.451c0.824-1.15,1.809-2.959,1.15-4.275C417.71,324.489,415.574,323.996,415.574,323.996z"/>
			
				<path clip-path="url(#SVGID_2_)" fill="#6CD39D" stroke="#6CD39D" stroke-linecap="round" stroke-linejoin="round" stroke-miterlimit="10" d="
				M425.761,344.378c-2.299,0.492-1.805,1.477-3.121,1.643c-1.314,0.162-0.771-0.988-2.686,0c-1.916,0.985-1.816,2.466-1.373,2.299
				c0.443-0.162,1.428-0.63,1.922,0.015c0.492,0.646,1.15,2.778,2.301,3.272c1.15,0.495,3.779-0.655,2.957-2.299
				c-0.82-1.644,1.973-1.646,0.986-3.287C425.761,344.378,425.761,344.378,425.761,344.378z"/>
			
				<path clip-path="url(#SVGID_2_)" fill="#6CD39D" stroke="#6CD39D" stroke-linecap="round" stroke-linejoin="round" stroke-miterlimit="10" d="
				M414.751,367.55c1.479,0,0.984-1.644,2.629-1.15s3.666-0.256,2.574,0.529c-1.096,0.785-2.32,1.609-2.447,2.266
				s2.883,1.809,2.447,3.616c-0.439,1.808-1.006,2.628-2.447,2.464s-0.812-3.944-1.783-3.615c-0.973,0.33-2.123-1.643-2.123,0
				s0.162,2.506,0,3.637c-0.164,1.131-1.152,2.446-1.809,1.623c-0.656-0.822-0.656-1.316-0.656-3.121c0-1.809,0.818-1.645,0-2.795
				c-0.822-1.152,0.164-1.48,0-2.632c-0.168-1.149,1.818-3.301,1.729-2.799C412.779,366.071,414.751,367.55,414.751,367.55z"/>
			
				<path clip-path="url(#SVGID_2_)" fill="#6CD39D" stroke="#6CD39D" stroke-linecap="round" stroke-linejoin="round" stroke-miterlimit="10" d="
				M530.128,467.149c0.164-1.15,2.795-1.972,0.658-3.123c-2.139-1.15-2.631-1.644-3.619-0.987c-0.986,0.658-0.82,1.315-1.971,2.96
				c-1.15,1.644-1.971,1.809-3.287,3.125c-1.314,1.313-0.33,1.149-3.289,3.45c-2.957,2.301-3.779,2.464-3.941,3.942
				c-0.164,1.48,2.959,2.958,4.271,3.124c1.316,0.164,3.621,0.494,4.193-1.151c0.574-1.644,2.053-3.942,2.053-5.424
				c0-1.479,0.162-2.135,1.809-2.957C528.648,469.286,530.128,467.149,530.128,467.149z"/>
			
				<path clip-path="url(#SVGID_2_)" fill="#6CD39D" stroke="#6CD39D" stroke-linecap="round" stroke-linejoin="round" stroke-miterlimit="10" d="
				M537.031,453.508c-1.314-0.822-2.301-2.959-2.795-3.451c-0.49-0.493-1.619-1.922-2.617-3.015c-1-1.095-2.807-1.208-1.984,0
				c0.822,1.206,1.832,3.507,1.984,4.165c0.152,0.657,2.738,2.793,1.609,3.779c-1.129,0.987-0.775,1.525-1.609,2.078
				c-0.832,0.552-1.326,1.21-1,1.704c0.33,0.491,3.947,0.326,3.947,1.643c0,1.314-1.314,1.383-0.33,2.335
				c0.988,0.951,2.467,2.005,2.795,0c0.328-2.008-1.807-2.335,0-3.649c1.807-1.315,2.795-1.644,2.795-2.959
				c0-1.314,0.82-0.728-0.822-1.103C537.359,454.658,537.031,453.508,537.031,453.508z"/>
			
				<path clip-path="url(#SVGID_2_)" fill="#83AF6E" stroke="#83AF6E" stroke-linecap="round" stroke-linejoin="round" stroke-miterlimit="10" d="
				M132.805,286.479c-4.185,3.233-1.211,7.311-3.503,9.273c-2.292,1.964-8.217,4.076-10.532,7.684
				c-2.315,3.608-3.659,11.327-3.514,16.422c0.146,5.096-0.678,5.751-1.514,9.365c-0.835,3.61-0.178,3.45,1.617,7.071
				c1.795,3.624,8.993,12.524,12.599,15.004c0,0,8.864,2.828,14.782,2.521c5.918-0.305,9.704-1.936,9.704-1.936
				c4.772-1.626,6.754-4.083,8.55-0.789c1.795,3.295,6.642,3.994,8.121,3.904c1.479-0.088,2.028,2.873,1.982,6.077
				c-0.045,3.204-3.675,2.699-0.029,7.644s8.564,8.167,9.289,12.114c0.725,3.948,2.942,4.451,0.216,8.136
				c-2.726,3.689-3.965,5.41-3.981,9.602c-0.016,4.189,4.886,11.851,5.113,17.03c0.227,5.177-0.997,2.953,1.444,9.126
				c2.442,6.174,4.663,5.689,5.88,9.637c1.218,3.95,1.223,2.472,1.209,6.17c-0.014,3.697-4.705,5.652,3.187,4.941
				c7.893-0.708,7.875,3.728,14.305-1.671c6.43-5.399,10.635-8.835,11.884-13.021s-1.21-6.168,2.989-8.37
				c4.2-2.203,5.419,1.499,4.953-5.65c-0.467-7.152-6.889-3.973-0.459-9.373c6.431-5.397,12.092-2.663,11.873-10.309
				c-0.217-7.645-6.581-19.747-2.373-24.416c4.209-4.668,17.557-13.74,19.547-18.662c1.992-4.922,8.184-12.543,6.219-14.769
				c-1.963-2.227-4.18-2.729-6.404-1.259c-2.225,1.471-2.23,2.951-5.926,2.445c-3.695-0.508-3.201-1-5.413-2.732
				c-2.213-1.735-2.458-1.983-4.667-4.456c-2.211-2.474-3.937-2.233-5.401-6.184c-1.464-3.951-0.953-8.634-3.404-12.34
				c-2.451-3.708-2.444-5.434-4.653-8.154c-2.209-2.72-3.182-6.174-1.456-6.167s2.224-1.226,4.673,3.222
				c2.447,4.447,2.689,5.681,4.648,9.139c1.96,3.461,1.709,4.691,5.145,8.648c3.438,3.959,5.16,4.704,5.395,7.908
				c0.234,3.207-1.264,8.131,1.945,7.158s9.132-2.923,13.826-5.124c4.691-2.201,6.66-1.7,10.621-5.631
				c3.959-3.929,5.443-4.91,6.936-8.355c1.49-3.445,4.205-3.682,1.25-4.927c-2.953-1.243-3.201-0.997-4.182-2.728
				c-0.977-1.729,0.516-5.668-2.205-3.706c-2.719,1.962-3.465,3.438-5.93,3.429c-2.463-0.009-1.494,3.94-4.434-0.511
				c-2.94-4.448-1.718-2.471-4.416-5.687c-2.701-3.214-4.179-3.466-2.691-5.68c1.488-2.215,4.452-3.928,5.678-1.459
				c1.221,2.472,5.15,6.679,7.123,6.686c1.971,0.008,5.182-1.214,6.658,0.025c1.473,1.237-0.75,2.214,2.943,3.215
				c3.695,1,6.156,2.489,8.619,2.499c2.467,0.009,2.232-3.444,7.156-1.453c0,0,13.508,3.212,16.461,14.608
				c0.682,2.624,3.646,13.82,4.625,16.041c0.977,2.224,1.717,2.473,2.445,5.433c0.727,2.962,3.191,3.466,4.182,2.234
				c0.99-1.228,4.961-7.87,4.967-9.593c0.008-1.728-3.436-3.714,0.021-5.426s5.684-3.429,6.928-6.386
				c1.244-2.952,5.193-3.921,6.43-5.645c1.238-1.719,5.678-1.949,6.914-2.438c1.234-0.489,2.969-3.194,4.932-0.229
				c1.961,2.966,6.389,5.447,6.135,7.419c-0.256,1.971-0.988,5.913-0.014,6.164s0.973,0.744,2.701,0.01
				c1.729-0.733,0.256-1.971,1.729-0.733c1.477,1.237,3.434,4.698,3.924,5.685c0.488,0.989,0.477,4.439-0.025,6.658
				c-0.502,2.217-2.475,2.95,0.346,6.165c2.824,3.215,3.311,4.695,3.551,6.177c0.24,1.479-2.477,2.948-0.014,3.943
				c2.461,0.996,4.916,4.209,6.152,2.734c1.24-1.474,1.738-3.196,0.023-5.916s-3.928-4.947-4.416-5.934
				c-0.488-0.987-3.945-0.015-3.186-4.941c0.758-4.928-0.221-7.15,1.75-6.651c1.971,0.5,2.459,1.98,5.412,3.472
				s1.953,4.692,4.174,4.454c2.219-0.239,4.932-0.229,6.424-3.674c1.49-3.445,6.922-5.15,3.236-8.618
				c-3.684-3.464-6.402-1.503-5.398-6.676c1.008-5.172,1.514-9.361,3.977-8.366s4.682,0.511,9.623-1.937
				c4.939-2.445,8.631-0.706,12.844-6.36c4.211-5.654,9.174-13.771,5.984-18.222c-3.188-4.45-5.652-4.459-3.42-7.903
				c2.232-3.441,2.723-2.699,3.221-4.916c0.504-2.217,0.268-5.178-1.961-2.722c-2.229,2.458-3.463,2.945-4.441,1.219
				c-0.979-1.732-5.176-0.02-1.221-2.964c3.957-2.943,6.689-8.603,7.908-5.641c1.225,2.964,5.664,1.993,6.646,3.477
				c0.979,1.482-1.248,3.445-0.021,5.423c1.225,1.979,1.211,5.674,2.191,7.405c0.979,1.73,5.152,6.342,6.152,2.69
				c1-3.65,3.234-7.586,2.502-9.068c-0.736-1.481-1.469-2.965-2.693-5.188c-1.227-2.224-0.236-2.958,1.746-5.414
				c1.982-2.459,3.469-4.672,5.197-5.406c1.729-0.732,2.963-1.468,3.947-0.969c0.986,0.495,3.936,2.479,6.176-2.689
				c2.238-5.169,5.947-8.113,6.445-10.084c0.5-1.97,4.215-5.407,3.982-9.353c-0.234-3.946,0.033-3.205,0.039-7.396
				c0.004-4.191,1.482-4.186-0.977-5.921c-2.459-1.735,2.721-2.208-2.459-1.735c-5.178,0.473-5.42-0.76-6.404-1.011
				c-0.986-0.25-3.945-0.015-0.979-2.223c2.967-2.207,9.904-11.303,12.625-13.757c2.721-2.455-0.979-2.223,6.174-2.688
				c7.152-0.466,9.619-1.196,12.33-1.186c2.713,0.01,1.234-0.489,3.943,1c2.705,1.489,5.408,3.472,5.912,1.009
				c0.502-2.464-1.229-1.731,0.016-4.192c1.242-2.46,4.221-7.873,7.178-7.615c2.959,0.258,3.939,1.494,3.936,2.48
				s0.727,3.454,2.211,1.979c1.486-1.473,2.254-8.62,4.963-8.116c2.709,0.503,5.416,1.746,2.693,4.694
				c-2.723,2.948-4.209,4.421-5.691,5.402c-1.482,0.98-4.461,6.393-6.689,8.85c-2.227,2.457-5.195,4.911-5.449,6.635
				c-0.252,1.725-0.553,16.023-0.314,18.489c0.234,2.466,1.213,5.182,3.691,1c2.482-4.182,1.004-4.188,3.23-6.398
				c2.227-2.21,0.246,0.001,2.227-2.21c1.982-2.212,1.971,0.748,3.469-4.425c1.5-5.171,1.23,0.744,1.5-5.171
				c0.268-5.916,0.758-4.681-0.467-7.398c-1.223-2.717-0.719-5.674,4.221-7.873c4.939-2.2,10.623-5.137,11.105-2.916
				c0.484,2.22-1.256,6.405,2.455,2.72c3.713-3.683,12.619-12.032,14.344-11.779c1.725,0.253,4.668,3.962,4.189,0.509
				c-0.48-3.453,0.021-5.425-0.957-8.139c-0.973-2.716,3.729-7.628,7.424-6.875c3.697,0.754,5.668,0.515,6.402,2.244
				c0.732,1.728,4.895,9.14,5.656,3.72c0.76-5.421,5.684-3.677,5.947-8.113c0.262-4.437-2.943-3.463-8.361-5.949
				c-5.412-2.486-16.457-15.594-22.125-16.355s-7.381-3.726-10.846-0.288c-3.467,3.439-2.975,3.934-10.613,2.919
				s-8.643,3.912-13.301-3.009c-4.66-6.92-0.463-8.384-9.092-7.923c-8.631,0.46-10.594-2.258-14.525-5.726
				c-3.932-3.466-8.115-5.208-11.566-5.221c-3.451-0.013-4.672-3.469-7.148-0.027c-2.48,3.442,1.951,4.938-2.984,6.152
				c0,0-9.592-5.625-18.502,3.628c-2.449,2.542-0.744,1.23-4.178-3.468c-3.436-4.697-1.963-2.966-6.391-4.955
				c-4.43-1.989-8.635,1.09-12.811-3.061c-4.176-4.152-9.34-7.377-12.301-6.895c-2.959,0.482-3.449-0.36-6.408-0.075
				s-7.418,5.445-8.887,2.482c-1.467-2.964,2.732-5.167,5.951-8.853c3.219-3.686,11.367-7.107,7.199-12.793
				c-4.17-5.686-3.418-9.135-7.855-8.412c-4.443,0.723-4.939,1.707-6.406-1.257c-1.469-2.965-1.955-4.938-1.955-4.938
				s-2.213-1.734-6.41-0.024s-4.449,3.188-4.705,5.9c-0.258,2.71,0.721,4.439-2.73,4.672c-3.451,0.234-5.188,2.693-8.891,3.666
				c-3.699,0.972-3.197-1.984-8.881,1.692c-5.684,3.677-9.131,2.431-10.133,6.372c-1,3.941-1.004,4.927-1.258,6.652
				c-0.252,1.725,1.465,3.703-3.465,3.685s-9.105-3.732-9.127,1.691c-0.02,5.423,3.428,5.93,0.953,8.632
				c-2.477,2.702-2.725,3.194-5.182,1.459c-2.461-1.734-2.691-5.927-4.68-1.497c-1.99,4.43-1.75,6.158-4.209,4.915
				c-2.461-1.242-4.188-1.002-3.705,1.219c0.486,2.22,2.203,4.445,1.705,6.169c-0.5,1.724-2.486,5.167-0.521,7.394
				c1.965,2.226,3.188,4.203,2.186,8.144c-0.998,3.94-0.773,9.612-4.469,8.858s-1.723-0.993-0.475-4.933
				c1.246-3.939,2.979-5.166,1.512-8.869c-1.465-3.704-1.467-3.21-1.695-7.649c-0.232-4.438-0.727-3.947-0.715-7.152
				c0.014-3.205,3.973-6.888,0.775-9.119s-1.471-1.978-3.197-2.231c-1.723-0.253-4.467,7.873-5.705,9.101
				c-1.234,1.228-2.963,0.975-2.973,3.933c-0.012,2.959,1.709,4.938,2.188,8.144c0.482,3.207,2.682,8.393,0.711,7.892
				c-1.969-0.5-4.178-3.96-6.145-4.707c-1.971-0.748-5.42-1.253-6.65-1.751s-1.963-2.473-3.441-2.972
				c-1.477-0.498-4.672-2.976-4.432-1.249s0.242,1.48,1.957,3.706c1.719,2.226,4.172,4.7,1.461,4.936
				c-2.715,0.236-1.436-0.232-4.682-0.757c-4.684-0.757-10.359,0.947-10.359,0.947c-2.959,0.482-3.203-0.258-5.678,1.705
				c-2.471,1.963-5.926,2.936-5.932,4.662c-0.008,1.726,0.479,3.454-2.971,3.194s-5.172-1.499-3.688-2.48
				c1.482-0.98,6.173-2.688,3.466-3.685c-2.709-0.996-5.408-4.212-5.668-1.007c-0.258,3.204-2.228,2.457-1.496,4.678
				c0.73,2.222,4.18,2.975,1.463,4.197c0,0-7.895,1.531-7.674,8.354c0.049,1.499,0.969,4.441-1.242,2.707
				c-2.213-1.734-4.916-4.209-6.404-1.75s2.197,5.678-0.761,5.667c-2.958-0.011-4.681-0.756-4.667-4.455s0.02-5.177-0.959-7.153
				c-0.98-1.977-4.913-4.949,0.258-3.204c5.17,1.746,6.639,4.463,8.861,3.731c2.223-0.73,7.404-2.19,5.691-5.648
				c-1.713-3.458-2.442-5.926-5.639-8.157c-3.197-2.231-5.664-1.747-10.334-5.463c-4.671-3.716-7.869-5.208-7.869-5.208
				s-9.346-6.198-15.773-1.539c-6.427,4.66-12.601,7.348-19.298,18.17c-6.698,10.822-5.732,16.249-11.171,20.42
				c-5.44,4.171-8.162,6.626-8.175,10.077c-0.013,3.452-1.051,17.254,4.134,15.301c5.185-1.952,3.717-5.163,6.675-4.906
				c2.958,0.259,4.626,15.303,6.848,14.572c2.222-0.73,0.499-1.477,2.968-2.454c2.469-0.977,2.954,1.244,3.215-2.7
				c0.261-3.943,1.419-3.939,3.196-7.63c1.777-3.69,3.008-3.194,2.029-4.923c-0.979-1.729-2.292-0.501-1.998-3.212
				c0.294-2.71-1.667-5.43,1.802-10.101c3.469-4.671,5.925-2.201,5.942-6.637c0.017-4.435,1.265-8.622,4.223-8.364
				c2.957,0.258,5.918-0.471,3.933,2.974c-1.986,3.444-1.463,7.403-3.443,9.367c-1.98,1.964-3.201-1.245-3.221,4.179
				s-1.563,10.583-0.085,10.835c1.479,0.251,3.447,1.493,4.437,0.263c0.991-1.228,3.457-1.466,5.923-1.703
				c2.466-0.237,5.43-1.705,5.422,0.267c-0.007,1.973-1.25,4.68-2.483,4.675c-1.232-0.004-4.189-0.261-5.67-0.021
				c-1.481,0.242-2.958-0.257-2.966,1.961c-0.008,2.219,0.725,3.948,0.725,3.948s1.475,1.237-0.251,1.478
				c0,0-4.513-1.906-6.165-0.105c-1.649,1.802-1.245,3.529-1.245,3.529c0.233,3.451,2.703,2.528,0.97,4.467
				s-2.732,5.387-4.208,4.395c-1.476-0.991-1.791-2.718-3.731-1.247c-1.94,1.472-2.682,1.962-4.163,2.45l-10.843-1.274
				c-1.229-0.99-0.745,1.477-1.229-0.99c-0.483-2.467-0.927-0.498-0.678-1.236c0.25-0.739,0.903,0.25,0.99-1.064
				c0.087-1.314,0.334-1.313-0.075-1.89c-0.409-0.578-0.658-0.003-0.404-1.81c0.253-1.807,0.583-2.216,0.588-3.449
				c0.004-1.233,0.747-1.805-0.24-1.891c-0.985-0.086-1.646,0.569-2.552,1.058c-0.905,0.49-0.633,0.408-1.457,1.063
				c-0.825,0.654-1.751,0.157-1.839,1.472c-0.087,1.314,1.308,2.142,1.469,2.882c0.161,0.74-0.171,1.643,0.152,3.123
				c0.323,1.48,1.501,0.91,1.167,2.306c0,0-6.51,4.701-8.364,6.049c-1.854,1.349-4.581,5.324-4.581,5.324s-3.592,4.384-7.048,5.85
				c-3.457,1.466-6.908,1.206-8.023,2.681c-1.115,1.476-2.373,3.394-0.752,3.327c1.243-0.052,2.961-0.563,3.451,0.341
				c0,0,4.414,6.182,1.431,12.908c0,0-5.929-0.434-9.624,0.292c-3.694,0.725-7.386-0.932-7.402,3.506
				c-0.017,4.435,2.106,8.307,2.106,8.307s-1.49,2.708-0.841,4.681c0.65,1.976,1.964,2.307,3.115,2.147
				c1.151-0.158,2.466-0.187,2.466-0.187c1.641,0.861,1.302,3.571,3.114,2.591c1.811-0.979,2.472-1.961,4.362-1.872
				c1.889,0.088,3.037,0.668,3.868-1.795c0.832-2.46,0.991-1.309,2.896-5.247c1.905-3.937,0.42-2.3,3.883-5.408
				c3.463-3.11,0.92-4.187,3.801-5.492c2.881-1.304,1.967,1.406,5.919-0.469c3.952-1.877,4.124-4.012,6.094-3.43
				c1.971,0.583,5.173,1.088,5.414,2.733c0.241,1.643,2.12,4.608,2.856,5.188c0.738,0.576,2.708,1.162,3.609,1.986
				c0.9,0.823,3.938,1.495,3.928,4.205c-0.01,2.713-1.166,3.856-0.345,4.271c0.82,0.415,1.971,0.09,2.142-1.471
				c0.17-1.562,0.501-2.217,0.257-2.956c-0.243-0.741-1.06-1.977-0.158-1.647c0.903,0.334,2.049,1.654,2.708,1.162
				c0.659-0.49,0.99-1.146,0.171-1.806c-0.818-0.661-2.951-1.575-4.508-3.058c-1.556-1.486-2.374-2.394-3.766-3.796
				c-1.392-1.4-4.098-3.055-4.253-5.274c-0.156-2.219-0.233-3.287,0.917-3.449c1.151-0.16,1.152-0.57,2.789,1.326
				c1.637,1.897,1.881,2.309,4.175,4.371c2.292,2.064,3.608,2.07,5.082,3.636c1.473,1.566,1.644,0.088,2.207,3.048
				c0.564,2.962,0.395,4.192,1.295,5.184c0.9,0.987,0.64,4.932,1.625,4.77c0.987-0.16,1.649-1.39,3.618-0.479
				c1.968,0.913,4.509,2.812,4.269,1.086c-0.24-1.727-0.651-1.562-1.305-2.719c-0.652-1.15-3.859-0.999-1.056-3.125
				c2.802-2.126,1.984-3.279,4.692-2.2c2.708,1.078,3.854,2.148,3.515,4.942c-0.34,2.793,3.674,6.015,4.083,6.508
				c0.409,0.495,1.387,2.8,2.214,1.324c0.828-1.476,1.328-3.448,3.049-2.044c1.721,1.405,2.212,1.735,2.951,1.738
				c0.74,0.003,1.728-0.321,3.537-0.727c1.809-0.403,3.461-2.37,3.453-0.315c-0.008,2.053,0.069,3.285-0.349,5.012
				c-0.417,1.725-0.757,4.681-1.915,6.565c-1.158,1.888-1.82,3.363-3.545,3.192c-1.727-0.17-1.475-1.483-3.777-1.082
				c-2.302,0.401-2.633,1.084-5.18,1.061c-2.548-0.022-3.371,0.056-7.31-1.19c-3.94-1.248-5.495-2.814-8.126-2.413
				c-2.632,0.399-4.786,4.993-7.168,4.654c-2.382-0.337-3.29,0.646-6.157-1.666s-0.236-2.468-3.85-3.22
				c-3.614-0.755-3.702,0.809-4.925-1.58c0,0-2.996-11.762-8.255-11.782c-5.259-0.02-12.111,0.5-15.049,2.819
				c-2.934,2.315-2.476,2.785-5.518,3.184c-3.042,0.4-1.387,0.29-4.932,0.393C143.176,282.079,137.988,282.475,132.805,286.479z"/>
		</g>
		<g>
			<g>
				<path fill="#6E9659" d="M337.931,293.156c1.092,0.306,7.445,2.168,9.783,1.808c5.76-0.889,8.081-8.724,8.081-8.724
					s-10.38-4.359-14.094,3.138c-1.453,2.935-1.423,2.767-3.511,2.469l-2.347-0.694l-0.377,1.274L337.931,293.156z"/>
			</g>
		</g>
		<g>
			<g>
				<path fill="#83AF6E" d="M341.757,295.544c1.077,0.337,7.421,2.239,9.186,3.813c4.347,3.887,2.025,11.719,2.025,11.719
					s-11.08-1.997-10.111-10.31c0.379-3.252,0.314-3.092-1.598-3.983l-6.512-1.93l0.377-1.273L341.757,295.544z"/>
			</g>
			<g>
				<path fill="#83AF6E" d="M343.642,296.143c2.346,0.763,6.023,2.075,7.301,3.215c4.347,3.887,2.025,11.719,2.025,11.719"/>
			</g>
		</g>
		<g>
			
				<rect x="79.276" y="162.479" transform="matrix(0.6154 -0.7882 0.7882 0.6154 -107.3291 132.4977)" fill="#B07F48" width="5.685" height="27.52"/>
			
				<rect x="79.822" y="163.599" transform="matrix(0.6155 -0.7881 0.7881 0.6155 -108.542 132.2153)" fill="#905E36" width="2.844" height="27.52"/>
			
				<path fill="#83AF6E" stroke="#83AF6E" stroke-width="0.0544" stroke-linecap="round" stroke-linejoin="round" stroke-miterlimit="10" d="
				M71.507,131.738c-5.861-4.577-14.322-3.536-18.899,2.325c-0.867,1.111-1.532,2.315-2,3.567c-5.817-3.97-13.795-2.791-18.19,2.838
				c-4.577,5.861-3.536,14.323,2.325,18.899c1.186,0.926,2.48,1.619,3.826,2.091c-4.522,5.859-3.47,14.276,2.371,18.837
				c5.86,4.578,14.322,3.536,18.898-2.325c1.534-1.964,2.434-4.221,2.735-6.525c4.253,0.236,8.549-1.542,11.37-5.154
				c3.78-4.842,3.725-11.456,0.287-16.191C78.341,144.27,77.192,136.177,71.507,131.738z"/>
			
				<path fill="#6E9659" stroke="#6E9659" stroke-width="0.0544" stroke-linecap="round" stroke-linejoin="round" stroke-miterlimit="10" d="
				M32.417,140.468c-4.577,5.861-3.536,14.323,2.325,18.899c1.186,0.926,2.48,1.619,3.826,2.091
				c-4.522,5.859-3.47,14.276,2.371,18.837c5.86,4.578,14.322,3.536,18.898-2.325c1.534-1.964,2.434-4.221,2.735-6.525
				c3.36,0.187,6.746-0.884,9.41-3.122c0,0-37.696-29.436-37.922-29.613C33.325,139.242,32.417,140.468,32.417,140.468z"/>
		</g>
		<g>
			
				<rect x="327.695" y="326.237" transform="matrix(-0.515 0.8572 -0.8572 -0.515 788.8118 227.8838)" fill="#B07F48" width="4.486" height="21.716"/>
			
				<rect x="329.393" y="325.276" transform="matrix(-0.5153 0.857 -0.857 -0.5153 788.9031 226.1036)" fill="#905E36" width="2.244" height="21.716"/>
			
				<path fill="#83AF6E" stroke="#83AF6E" stroke-width="0.0429" stroke-linecap="round" stroke-linejoin="round" stroke-miterlimit="10" d="
				M342.522,370.933c5.031,3.021,11.559,1.394,14.58-3.637c0.574-0.953,0.979-1.96,1.225-2.986
				c4.938,2.549,11.072,0.859,13.977-3.97c3.021-5.033,1.393-11.559-3.637-14.58c-1.02-0.612-2.1-1.031-3.199-1.271
				c2.98-5.024,1.348-11.516-3.664-14.527c-5.031-3.022-11.559-1.394-14.58,3.636c-1.012,1.687-1.5,3.54-1.516,5.374
				c-3.354,0.223-6.549,2.029-8.412,5.128c-2.494,4.157-1.814,9.332,1.332,12.711C335.965,361.771,337.643,368.002,342.522,370.933z
				"/>
			
				<path fill="#6E9659" stroke="#6E9659" stroke-width="0.0429" stroke-linecap="round" stroke-linejoin="round" stroke-miterlimit="10" d="
				M372.303,360.34c3.021-5.033,1.393-11.559-3.637-14.58c-1.02-0.612-2.1-1.031-3.199-1.271c2.98-5.024,1.348-11.516-3.664-14.527
				c-5.031-3.022-11.559-1.394-14.58,3.636c-1.012,1.687-1.5,3.54-1.516,5.374c-2.648,0.177-5.197,1.341-7.07,3.35
				c0,0,32.352,19.434,32.547,19.552C371.709,361.386,372.303,360.34,372.303,360.34z"/>
		</g>
		<g>
			<g>
				
					<rect x="50.303" y="291.753" transform="matrix(-0.3224 -0.9466 0.9466 -0.3224 -221.415 462.8103)" fill="#8F5E35" width="9.275" height="37.801"/>
				
					<rect x="53.369" y="293.948" transform="matrix(-0.3225 -0.9466 0.9466 -0.3225 -222.4793 466.4659)" fill="#7F4D29" width="4.639" height="37.801"/>
			</g>
			<polygon fill="#83AF6E" stroke="#83AF6E" stroke-width="0.1822" stroke-miterlimit="10" points="23.352,300.881 35.747,337.261 
				5.663,327.208 			"/>
			
				<polygon fill="#6E9659" stroke="#46A260" stroke-width="0.2054" stroke-linecap="round" stroke-linejoin="round" stroke-miterlimit="10" points="
				35.747,337.261 5.663,327.208 29.55,319.069 			"/>
			<polygon fill="#83AF6E" stroke="#83AF6E" stroke-width="0.2252" stroke-miterlimit="10" points="32.94,292.902 48.21,337.727 
				10.973,325.397 			"/>
			
				<polygon fill="#6E9659" stroke="#46A260" stroke-width="0.2538" stroke-linecap="round" stroke-linejoin="round" stroke-miterlimit="10" points="
				48.21,337.727 10.973,325.397 40.575,315.312 			"/>
			<polygon fill="#83AF6E" stroke="#83AF6E" stroke-width="0.2624" stroke-miterlimit="10" points="42.407,285.194 60.412,338.054 
				17.311,323.239 			"/>
			
				<polygon fill="#6E9659" stroke="#46A260" stroke-width="0.2957" stroke-linecap="round" stroke-linejoin="round" stroke-miterlimit="10" points="
				60.412,338.054 17.311,323.239 51.409,311.623 			"/>
			<polygon fill="#83AF6E" stroke="#83AF6E" stroke-width="0.2898" stroke-miterlimit="10" points="51.796,278.923 71.68,337.289 
				24.088,320.932 			"/>
			
				<polygon fill="#6E9659" stroke="#46A260" stroke-width="0.3266" stroke-linecap="round" stroke-linejoin="round" stroke-miterlimit="10" points="
				71.68,337.289 24.088,320.932 61.739,308.105 			"/>
			<polygon fill="#83AF6E" stroke="#83AF6E" stroke-width="0.1435" stroke-miterlimit="10" points="13.74,309.276 24.246,337.158 
				0.113,330.333 			"/>
			
				<polygon fill="#6E9659" stroke="#46A260" stroke-width="0.1617" stroke-linecap="round" stroke-linejoin="round" stroke-miterlimit="10" points="
				24.246,337.158 0.113,330.333 18.993,323.218 			"/>
		</g>
		<g>
			<g>
				
					<rect x="88.995" y="64.42" transform="matrix(0.8781 -0.4784 0.4784 0.8781 -36.9884 69.4672)" fill="#EEE1CD" stroke="#EEE1CD" stroke-width="0.2766" stroke-miterlimit="10" width="57.722" height="85.828"/>
				
					<rect x="90.753" y="71.324" transform="matrix(0.8781 -0.4785 0.4785 0.8781 -41.8369 64.2493)" opacity="0.33" fill="#CABA9C" stroke="#CABA9C" stroke-width="0.1956" stroke-miterlimit="10" width="28.861" height="85.828"/>
			</g>
			
				<rect x="62.202" y="45.07" transform="matrix(0.8781 -0.4784 0.4784 0.8781 -16.7261 50.6562)" fill="#786854" stroke="#786854" stroke-width="0.1528" stroke-miterlimit="10" width="57.723" height="26.175"/>
			<path fill="#A38977" stroke="#A38977" stroke-width="0.1741" stroke-miterlimit="10" d="M113.16,141.266"/>
			<path fill="#C5E0E9" d="M108.296,123.186"/>
			<path fill="#A38977" stroke="#A38977" stroke-width="0.1741" stroke-miterlimit="10" d="M116.592,139.308"/>
			<path fill="#A38977" stroke="#A38977" stroke-width="0.1741" stroke-miterlimit="10" d="M125.519,134.532"/>
			<path fill="#C5E0E9" d="M120.654,116.453"/>
			<path fill="#A38977" stroke="#A38977" stroke-width="0.1741" stroke-miterlimit="10" d="M128.95,132.575"/>
			<g>
				
					<rect x="100.136" y="114.107" transform="matrix(0.8781 -0.4785 0.4785 0.8781 -43.4191 63.1534)" fill="#857162" width="4.191" height="5.362"/>
				
					<rect x="97.105" y="108.544" transform="matrix(0.8781 -0.4784 0.4784 0.8781 -41.1212 61.0104)" fill="#857162" width="4.191" height="5.361"/>
				
					<rect x="101.68" y="106.051" transform="matrix(0.8781 -0.4785 0.4785 0.8781 -39.3759 62.9098)" fill="#857162" width="4.191" height="5.361"/>
				
					<rect x="104.711" y="111.615" transform="matrix(0.8782 -0.4783 0.4783 0.8782 -41.6611 65.0152)" fill="#857162" width="4.191" height="5.362"/>
			</g>
			
				<rect x="113.869" y="106.626" transform="matrix(0.8781 -0.4784 0.4784 0.8781 -38.161 68.7965)" fill="#857162" width="4.191" height="5.362"/>
			
				<rect x="110.838" y="101.062" transform="matrix(0.8781 -0.4784 0.4784 0.8781 -35.8684 66.6682)" fill="#857162" width="4.191" height="5.361"/>
			
				<rect x="115.412" y="98.57" transform="matrix(0.8782 -0.4784 0.4784 0.8782 -34.1174 68.5459)" fill="#A38977" width="4.19" height="5.361"/>
			
				<rect x="118.443" y="104.133" transform="matrix(0.8781 -0.4785 0.4785 0.8781 -36.4149 70.6971)" fill="#A38977" width="4.191" height="5.363"/>
			<g>
				
					<rect x="127.601" y="99.144" transform="matrix(0.8782 -0.4783 0.4783 0.8782 -32.9069 74.445)" fill="#A38977" width="4.191" height="5.363"/>
				
					<rect x="124.57" y="93.58" transform="matrix(0.8781 -0.4784 0.4784 0.8781 -30.6168 72.3333)" fill="#A38977" width="4.192" height="5.362"/>
				
					<rect x="129.145" y="91.088" transform="matrix(0.8781 -0.4785 0.4785 0.8781 -28.8685 74.2284)" fill="#A38977" width="4.19" height="5.361"/>
				
					<rect x="132.176" y="96.651" transform="matrix(0.8781 -0.4784 0.4784 0.8781 -31.1598 76.3481)" fill="#A38977" width="4.19" height="5.363"/>
			</g>
			<g>
				
					<rect x="89.666" y="94.888" transform="matrix(0.8781 -0.4785 0.4785 0.8781 -35.5016 55.8074)" fill="#857162" width="4.191" height="5.363"/>
				
					<rect x="86.634" y="89.324" transform="matrix(0.8781 -0.4784 0.4784 0.8781 -33.2027 53.6589)" fill="#857162" width="4.191" height="5.362"/>
				
					<rect x="91.209" y="86.832" transform="matrix(0.8781 -0.4784 0.4784 0.8781 -31.4547 55.5507)" fill="#857162" width="4.19" height="5.361"/>
				
					<rect x="94.24" y="92.396" transform="matrix(0.878 -0.4786 0.4786 0.878 -33.7533 57.6998)" fill="#857162" width="4.19" height="5.363"/>
			</g>
			
				<rect x="103.398" y="87.406" transform="matrix(0.8781 -0.4784 0.4784 0.8781 -30.2423 61.4451)" fill="#857162" width="4.191" height="5.362"/>
			
				<rect x="100.366" y="81.843" transform="matrix(0.8781 -0.4784 0.4784 0.8781 -27.95 59.3167)" fill="#857162" width="4.191" height="5.361"/>
			
				<rect x="104.941" y="79.35" transform="matrix(0.8781 -0.4784 0.4784 0.8781 -26.2003 61.2016)" fill="#A38977" width="4.191" height="5.362"/>
			
				<rect x="107.973" y="84.914" transform="matrix(0.8781 -0.4785 0.4785 0.8781 -28.4955 63.3452)" fill="#A38977" width="4.19" height="5.362"/>
			<g>
				
					<rect x="117.13" y="79.925" transform="matrix(0.8781 -0.4784 0.4784 0.8781 -24.991 67.1108)" fill="#A38977" width="4.19" height="5.362"/>
				
					<rect x="114.099" y="74.361" transform="matrix(0.8782 -0.4783 0.4783 0.8782 -22.6962 64.9603)" fill="#A38977" width="4.191" height="5.361"/>
				
					<rect x="118.673" y="71.869" transform="matrix(0.8781 -0.4784 0.4784 0.8781 -20.9482 66.8671)" fill="#A38977" width="4.19" height="5.361"/>
				
					<rect x="121.705" y="77.432" transform="matrix(0.8781 -0.4785 0.4785 0.8781 -23.2415 69.0038)" fill="#A38977" width="4.19" height="5.362"/>
			</g>
			<g>
				
					<rect x="110.608" y="133.327" transform="matrix(0.8781 -0.4785 0.4785 0.8781 -51.3426 70.5161)" fill="#857162" width="4.191" height="5.362"/>
				
					<rect x="107.576" y="127.763" transform="matrix(0.8781 -0.4784 0.4784 0.8781 -49.0431 68.3705)" fill="#857162" width="4.19" height="5.363"/>
				
					<rect x="112.151" y="125.27" transform="matrix(0.8781 -0.4785 0.4785 0.8781 -47.2956 70.2632)" fill="#857162" width="4.191" height="5.362"/>
				
					<rect x="115.183" y="130.835" transform="matrix(0.8782 -0.4783 0.4783 0.8782 -49.579 72.3659)" fill="#857162" width="4.191" height="5.362"/>
			</g>
			
				<rect x="124.341" y="125.846" transform="matrix(0.8781 -0.4784 0.4784 0.8781 -46.0828 76.1578)" fill="#857162" width="4.19" height="5.362"/>
			
				<rect x="121.309" y="120.281" transform="matrix(0.878 -0.4786 0.4786 0.878 -43.7976 74.0554)" fill="#857162" width="4.19" height="5.362"/>
			
				<rect x="125.883" y="117.789" transform="matrix(0.8781 -0.4785 0.4785 0.8781 -42.0424 75.923)" fill="#A38977" width="4.19" height="5.363"/>
			
				<rect x="128.915" y="123.354" transform="matrix(0.8781 -0.4785 0.4785 0.8781 -44.335 78.0507)" fill="#A38977" width="4.191" height="5.362"/>
			
				<rect x="141.946" y="116.05" transform="matrix(0.8781 -0.4784 0.4784 0.8781 -43.1233 85.6991)" fill="#A38977" width="9.4" height="22.88"/>
			
				<rect x="135.041" y="112.799" transform="matrix(0.8781 -0.4784 0.4784 0.8781 -38.5362 79.6856)" fill="#A38977" width="4.192" height="5.362"/>
			
				<rect x="139.616" y="110.308" transform="matrix(0.8781 -0.4784 0.4784 0.8781 -36.7852 81.5637)" fill="#A38977" width="4.19" height="5.362"/>
			
				<rect x="63.961" y="51.974" transform="matrix(0.8781 -0.4784 0.4784 0.8781 -21.5734 45.4336)" fill="#604C3F" stroke="#604C3F" stroke-width="0.108" stroke-miterlimit="10" width="28.862" height="26.175"/>
			
				<rect x="73.053" y="43.742" transform="matrix(0.8781 -0.4785 0.4785 0.8781 -15.1426 43.1645)" fill="#786854" stroke="#786854" stroke-width="0.1528" stroke-miterlimit="10" width="8.182" height="15.118"/>
			
				<rect x="142.232" y="117.175" transform="matrix(0.8781 -0.4784 0.4784 0.8781 -43.911 84.841)" fill="#857162" width="4.699" height="22.88"/>
		</g>
		<g>
			<polygon fill="#ECECED" stroke="#ECECED" stroke-width="0.348" stroke-miterlimit="10" points="237.59,397.521 291.725,370.82 
				306.392,400.561 288.776,433.072 252.256,427.265 			"/>
			<polygon opacity="0.7" fill="#D8D9DA" stroke="#D8D9DA" stroke-width="0.348" stroke-miterlimit="10" points="264.656,384.174 
				291.725,370.82 306.392,400.561 288.776,433.072 			"/>
			<g>
				
					<rect x="287.826" y="385.894" transform="matrix(-0.8967 0.4427 -0.4427 -0.8967 722.7652 609.3267)" fill="#868789" stroke="#868789" stroke-width="0.2827" stroke-linecap="round" stroke-linejoin="round" stroke-miterlimit="10" width="4.881" height="6.25"/>
				
					<rect x="291.091" y="392.517" transform="matrix(-0.8967 0.4426 -0.4426 -0.8967 731.8494 620.5197)" fill="#868789" stroke="#868789" stroke-width="0.2827" stroke-linecap="round" stroke-linejoin="round" stroke-miterlimit="10" width="4.881" height="6.249"/>
				
					<rect x="285.644" y="395.201" transform="matrix(-0.8967 0.4426 -0.4426 -0.8967 722.7306 627.981)" fill="#868789" stroke="#868789" stroke-width="0.2827" stroke-linecap="round" stroke-linejoin="round" stroke-miterlimit="10" width="4.884" height="6.249"/>
				
					<rect x="282.376" y="388.58" transform="matrix(-0.8967 0.4426 -0.4426 -0.8967 713.5837 616.9059)" fill="#868789" stroke="#868789" stroke-width="0.2827" stroke-linecap="round" stroke-linejoin="round" stroke-miterlimit="10" width="4.888" height="6.248"/>
			</g>
			<g>
				
					<rect x="271.72" y="393.838" transform="matrix(-0.8967 0.4426 -0.4426 -0.8967 695.6923 631.6027)" fill="#868789" stroke="#868789" stroke-width="0.2827" stroke-linecap="round" stroke-linejoin="round" stroke-miterlimit="10" width="4.881" height="6.252"/>
				
					<rect x="274.984" y="400.461" transform="matrix(-0.8967 0.4426 -0.4426 -0.8967 704.8362 642.6766)" fill="#868789" stroke="#868789" stroke-width="0.2827" stroke-linecap="round" stroke-linejoin="round" stroke-miterlimit="10" width="4.882" height="6.247"/>
				
					<rect x="269.541" y="403.148" transform="matrix(-0.8967 0.4427 -0.4427 -0.8967 695.7231 650.1459)" fill="#9B9C9E" stroke="#9B9C9E" stroke-width="0.2827" stroke-linecap="round" stroke-linejoin="round" stroke-miterlimit="10" width="4.881" height="6.249"/>
				
					<polygon fill="#9B9C9E" stroke="#9B9C9E" stroke-width="0.2827" stroke-linecap="round" stroke-linejoin="round" stroke-miterlimit="10" points="
					265.142,397.929 269.521,395.767 272.282,401.372 267.906,403.532 				"/>
			</g>
			
				<polygon fill="#9B9C9E" stroke="#9B9C9E" stroke-width="0.2827" stroke-linecap="round" stroke-linejoin="round" stroke-miterlimit="10" points="
				244.648,394.038 254.472,389.196 266.058,412.679 256.232,417.522 			"/>
			
				<polygon fill="#868789" stroke="#868789" stroke-width="0.2827" stroke-linecap="round" stroke-linejoin="round" stroke-miterlimit="10" points="
				249.559,391.616 254.472,389.196 266.058,412.679 261.144,415.098 			"/>
			
				<polyline fill="none" stroke="#58585A" stroke-width="3.0805" stroke-linecap="round" stroke-linejoin="round" stroke-miterlimit="10" points="
				307.205,398.87 288.776,433.072 250.106,427.029 			"/>
			<g>
				<path fill="#9B9C9E" d="M278.325,422.464c-1.101-2.232-0.186-4.935,2.047-6.036c2.234-1.102,4.935-0.181,6.037,2.05
					c1.102,2.23,0.181,4.933-2.05,6.032C282.127,425.614,279.427,424.696,278.325,422.464z"/>
				<path fill="#868789" d="M280.372,416.428c2.234-1.102,4.935-0.181,6.037,2.05c1.102,2.23,0.181,4.933-2.05,6.032
					L280.372,416.428z"/>
			</g>
			
				<polygon fill="#58585A" stroke="#58585A" stroke-width="0.6846" stroke-linecap="round" stroke-linejoin="round" stroke-miterlimit="10" points="
				296.506,418.521 301.042,410.427 305.691,419.846 298.828,423.234 			"/>
		</g>
		<g>
			
				<rect x="338.107" y="201.026" transform="matrix(0.1979 0.9802 -0.9802 0.1979 518.286 -172.434)" fill="#F19E94" stroke="#F19E94" stroke-width="0.155" stroke-miterlimit="10" width="52.795" height="58.885"/>
			
				<rect x="378.7" y="210.305" transform="matrix(0.1978 0.9802 -0.9802 0.1978 542.8311 -218.7912)" fill="#786854" stroke="#786854" stroke-width="0.1397" stroke-miterlimit="10" width="52.795" height="23.94"/>
			
				<rect x="389.257" y="197.342" transform="matrix(0.1978 0.9802 -0.9802 0.1978 528.0351 -226.5754)" fill="#5F4C3F" stroke="#5F4C3F" stroke-width="0.1397" stroke-miterlimit="10" width="26.397" height="24.002"/>
			
				<rect x="411.106" y="205.048" transform="matrix(0.1981 0.9802 -0.9802 0.1981 540.4284 -236.6528)" fill="#786854" stroke="#786854" stroke-width="0.1397" stroke-miterlimit="10" width="7.483" height="13.828"/>
			
				<rect x="348.63" y="188.166" transform="matrix(0.1978 0.9802 -0.9802 0.1978 503.4852 -180.1729)" opacity="0.7" fill="#E4817C" stroke="#E4817C" stroke-width="0.155" stroke-miterlimit="10" width="26.397" height="58.755"/>
			<path fill="#A28878" stroke="#A28878" stroke-width="0.1593" stroke-miterlimit="10" d="M345.737,215.262"/>
			<path fill="#C5DFE9" d="M362.848,215.894"/>
			<path fill="#A28878" stroke="#A28878" stroke-width="0.1593" stroke-miterlimit="10" d="M346.52,218.79"/>
			<path fill="#A28878" stroke="#A28878" stroke-width="0.1593" stroke-miterlimit="10" d="M348.282,227.88"/>
			<path fill="#C5DFE9" d="M365.397,228.511"/>
			<path fill="#A28878" stroke="#A28878" stroke-width="0.1593" stroke-miterlimit="10" d="M349.067,231.408"/>
			<g>
				<g>
					
						<rect x="368.159" y="209.871" transform="matrix(0.1977 0.9803 -0.9803 0.1977 505.0403 -192.4259)" fill="#9F4945" width="3.833" height="4.904"/>
					
						<rect x="373.841" y="208.724" transform="matrix(0.1978 0.9803 -0.9803 0.1978 508.4535 -198.9225)" fill="#9F4945" width="3.832" height="4.904"/>
					
						<rect x="374.783" y="213.395" transform="matrix(0.1977 0.9803 -0.9803 0.1977 513.798 -196.096)" fill="#9F4945" width="3.833" height="4.902"/>
					
						<rect x="369.103" y="214.541" transform="matrix(0.1977 0.9803 -0.9803 0.1977 510.3747 -189.6042)" fill="#9F4945" width="3.833" height="4.904"/>
				</g>
				<g>
					
						<rect x="348.536" y="213.832" transform="matrix(0.1977 0.9803 -0.9803 0.1977 493.17 -170.016)" fill="#9F4945" width="3.833" height="4.903"/>
					
						<rect x="354.218" y="212.685" transform="matrix(0.1977 0.9803 -0.9803 0.1977 496.6135 -176.5023)" fill="#9F4945" width="3.833" height="4.903"/>
					
						<rect x="355.161" y="217.355" transform="matrix(0.1977 0.9803 -0.9803 0.1977 501.9488 -173.6798)" fill="#9F4945" width="3.833" height="4.904"/>
					
						<rect x="349.479" y="218.501" transform="matrix(0.1982 0.9802 -0.9802 0.1982 498.3207 -167.2637)" fill="#9F4945" width="3.833" height="4.905"/>
				</g>
			</g>
			
				<rect x="370.991" y="223.89" transform="matrix(0.1978 0.9802 -0.9802 0.1978 521.0239 -183.9641)" fill="#9F4945" width="3.832" height="4.906"/>
			
				<rect x="376.671" y="222.743" transform="matrix(0.1982 0.9802 -0.9802 0.1982 524.2598 -190.5217)" fill="#9F4945" width="3.832" height="4.906"/>
			
				<rect x="377.613" y="227.415" transform="matrix(0.1972 0.9804 -0.9804 0.1972 530.0302 -187.5424)" fill="#B46057" width="3.833" height="4.902"/>
			
				<rect x="371.933" y="228.561" transform="matrix(0.1977 0.9803 -0.9803 0.1977 526.3784 -181.1339)" fill="#B46057" width="3.833" height="4.904"/>
			
				<rect x="351.367" y="227.852" transform="matrix(0.1978 0.9803 -0.9803 0.1978 509.174 -161.5461)" fill="#9F4945" width="3.832" height="4.904"/>
			
				<rect x="357.049" y="226.704" transform="matrix(0.1978 0.9803 -0.9803 0.1978 512.6088 -168.0365)" fill="#9F4945" width="3.832" height="4.905"/>
			
				<rect x="357.991" y="231.375" transform="matrix(0.1977 0.9803 -0.9803 0.1977 517.9626 -165.2059)" fill="#B46057" width="3.833" height="4.904"/>
			
				<rect x="352.309" y="232.521" transform="matrix(0.1982 0.9802 -0.9802 0.1982 514.3317 -158.7964)" fill="#B46057" width="3.833" height="4.906"/>
			<g>
				<g>
					
						<rect x="373.82" y="237.911" transform="matrix(0.1977 0.9803 -0.9803 0.1977 537.0695 -175.4784)" fill="#B46057" width="3.833" height="4.906"/>
					
						<rect x="379.501" y="236.764" transform="matrix(0.1982 0.9802 -0.9802 0.1982 540.303 -182.0426)" fill="#B46057" width="3.834" height="4.905"/>
					
						<rect x="380.443" y="241.435" transform="matrix(0.1982 0.9802 -0.9802 0.1982 545.6257 -179.2255)" fill="#B46057" width="3.833" height="4.904"/>
					
						<rect x="374.762" y="242.582" transform="matrix(0.1977 0.9803 -0.9803 0.1977 542.4143 -172.651)" fill="#B46057" width="3.833" height="4.904"/>
				</g>
				
					<rect x="359.878" y="240.725" transform="matrix(0.1977 0.9803 -0.9803 0.1977 528.6418 -159.5539)" fill="#B46057" width="3.833" height="4.904"/>
				
					<rect x="360.821" y="245.397" transform="matrix(0.1977 0.9803 -0.9803 0.1977 533.9662 -156.7347)" fill="#B46057" width="3.833" height="4.902"/>
				
					<rect x="354.196" y="241.872" transform="matrix(0.1977 0.9803 -0.9803 0.1977 525.2076 -153.0643)" fill="#B46057" width="3.833" height="4.904"/>
				
					<rect x="355.139" y="246.542" transform="matrix(0.1982 0.9802 -0.9802 0.1982 530.3433 -150.3286)" fill="#B46057" width="3.833" height="4.906"/>
			</g>
		</g>
		<g>
			<g>
				<g>
					<path fill="#83AF6E" d="M66.447,244.636c-0.998-0.258-6.844-1.685-8.521-3.036c-4.128-3.323-2.386-10.542-2.386-10.542
						s10.15,1.294,9.662,8.887c-0.195,2.97-0.143,2.824,1.635,3.542l2.164,0.521l-0.284,1.175L66.447,244.636z"/>
				</g>
			</g>
			<g>
				<g>
					<path fill="#6E9659" d="M62.35,244.773c-1-0.228-6.859-1.621-8.966-1.184c-5.189,1.078-6.93,8.299-6.93,8.299
						s9.629,3.475,12.651-3.508c1.183-2.731,1.163-2.576,3.072-2.408l6.002,1.448l0.283-1.174L62.35,244.773z"/>
				</g>
				<g>
					<path fill="#6E9659" d="M60.594,244.384c-2.191-0.466-5.684-1.111-7.209-0.795c-5.189,1.078-6.93,8.299-6.93,8.299"/>
				</g>
			</g>
			<path fill="#BE87CC" d="M38.581,232.324l7.331,1.795c3.269,0.801,5.352,3.768,4.651,6.626l0,0
				c-0.701,2.858-3.918,4.526-7.188,3.725l-7.33-1.795l5.221-4.207L38.581,232.324z"/>
			<path fill="#AC80BF" d="M50.563,240.745L50.563,240.745c-0.701,2.858-3.918,4.526-7.188,3.725l-7.33-1.795l5.221-4.207
				L50.563,240.745z"/>
		</g>
		<g>
			<g>
				<g>
					<path fill="#83AF6E" d="M317.665,187.83c0.849-0.566,5.765-3.938,7.869-4.283c5.178-0.851,9.355,5.204,9.355,5.204
						s-7.662,6.636-12.941,1.259c-2.064-2.105-1.99-1.97-3.696-1.133l-1.812,1.253l-0.68-0.986L317.665,187.83z"/>
				</g>
			</g>
			<g>
				<g>
					<path fill="#6E9659" d="M320.271,184.716c0.828-0.589,5.725-3.992,6.795-5.835c2.632-4.541-1.545-10.596-1.545-10.596
						s-8.926,4.81-5.769,11.654c1.232,2.677,1.132,2.559-0.253,3.857l-5.034,3.473l0.679,0.984L320.271,184.716z"/>
				</g>
				<g>
					<path fill="#6E9659" d="M321.717,183.677c1.791-1.309,4.573-3.46,5.349-4.795c2.632-4.541-1.545-10.596-1.545-10.596"/>
				</g>
			</g>
			<path fill="#FF766C" d="M345.159,175.4l-6.167,4.223c-2.751,1.883-6.316,1.46-7.963-0.944l0,0
				c-1.646-2.405-0.752-5.881,1.999-7.765l6.166-4.223l-0.343,6.632L345.159,175.4z"/>
			<path fill="#F95C58" d="M331.029,178.678L331.029,178.678c-1.646-2.405-0.752-5.881,1.999-7.765l6.166-4.223l-0.343,6.632
				L331.029,178.678z"/>
		</g>
		<g>
			<path fill="#FFD13F" d="M469.494,51.641c0,0-16.873,10.987-5.252,25.724c0,0-19.903-4.066-21.904,14.478
				c0,0-9.228-16.039-25.725-5.251c0,0,5.722-17.29-14.477-21.903c0,0,16.463-9.626,5.252-25.726c0,0,19.136,4.418,21.903-14.477
				c0,0,9.915,16.126,25.725,5.252C455.016,29.737,450.877,48.456,469.494,51.641z"/>
			<circle fill="#FFE161" cx="435.815" cy="58.163" r="21.911"/>
		</g>
		<path fill="#F5F5F6" d="M421.238,66.838c0.112,0,0.224,0.005,0.336,0.008c-0.046-0.595-0.076-1.194-0.076-1.8
			c0-13.051,10.617-23.668,23.668-23.668c9.188,0,17.162,5.264,21.083,12.931c2.81-2.901,6.741-4.71,11.089-4.71
			c8.518,0,15.447,6.93,15.447,15.447c0,0.835-0.068,1.655-0.196,2.456c1.261-0.341,2.586-0.526,3.954-0.526
			c8.371,0,15.182,6.811,15.182,15.182c0,2.766-0.752,5.476-2.176,7.833c-0.134,0.222-0.373,0.358-0.633,0.358h-98.697
			c-0.232,0-0.451-0.109-0.592-0.295c-1.896-2.527-2.898-5.538-2.898-8.705C406.728,73.346,413.237,66.838,421.238,66.838z"/>
		<path fill="#F5F5F6" d="M333.032,25.46c0.112,0,0.224,0.005,0.336,0.008c-0.046-0.595-0.076-1.194-0.076-1.8
			C333.292,10.618,343.909,0,356.959,0c9.188,0,17.162,5.264,21.083,12.931c2.81-2.901,6.741-4.71,11.089-4.71
			c8.518,0,15.447,6.93,15.447,15.447c0,0.835-0.068,1.655-0.196,2.456c1.261-0.341,2.586-0.526,3.954-0.526
			c8.371,0,15.182,6.811,15.182,15.182c0,2.766-0.752,5.476-2.176,7.833c-0.134,0.222-0.373,0.358-0.633,0.358h-98.697
			c-0.232,0-0.451-0.109-0.592-0.295c-1.896-2.527-2.898-5.538-2.898-8.705C318.522,31.969,325.031,25.46,333.032,25.46z"/>
		<g>
			<g>
				<g>
					<circle fill="#FFFFFF" stroke="#1A171B" stroke-width="3.3262" stroke-miterlimit="10" cx="242.527" cy="127.737" r="4.891"/>
				</g>
				<g>
					<circle fill="#FFFFFF" stroke="#1A171B" stroke-width="3.3262" stroke-miterlimit="10" cx="286.42" cy="149.5" r="4.892"/>
				</g>
				<g>
					<path fill="#33485D" d="M301.051,155.896c0,0.001-0.004-0.001-0.005-0.003l-6.916-3.429c-0.234-0.117-0.345-0.39-0.261-0.639
						c1.294-3.736-0.402-7.88-3.948-9.637c-3.546-1.758-7.872-0.602-10.062,2.69c-0.145,0.219-0.431,0.295-0.665,0.179
						l-28.855-14.307c-0.233-0.116-0.347-0.391-0.261-0.638c1.296-3.735-0.403-7.881-3.948-9.638
						c-3.547-1.759-7.873-0.602-10.063,2.69c-0.146,0.219-0.431,0.296-0.666,0.179l-4.744-2.353
						c-0.257-0.127-0.363-0.44-0.235-0.699l5.918-11.935c0.047-0.097,0.125-0.177,0.221-0.229l13.319-7.146
						c0.148-0.08,0.329-0.083,0.479-0.008l28.432,14.097c0.072,0.037,0.136,0.09,0.186,0.154c3.145,4.181,9.307,14.678,9.909,15.709
						c1.254,1.032,14.892,12.273,16.019,13.647c0.109,0.134,0.146,0.312,0.097,0.476c-1.698,5.884-2.996,9.843-3.197,10.45
						c-0.01,0.052-0.024,0.103-0.049,0.152C301.625,155.919,301.311,156.024,301.051,155.896z"/>
					<path fill="#EEF7FB" d="M243.305,110.733l7.822-6.574l26.118,12.949c3.286,4.503,8.021,14.354,8.084,14.462L243.305,110.733z"
						/>
					
						<path fill="none" stroke="#2F9859" stroke-width="1.7518" stroke-linecap="round" stroke-linejoin="round" stroke-miterlimit="10" d="
						M248.03,114.609"/>
					<g>
						<g>
							<polygon fill="#FFFFFF" points="300.119,147.105 303.791,148.926 304.556,146.427 301.263,144.794 							"/>
							<path fill="#FFFFFF" d="M303.79,149.353l-3.842-1.905c-0.189-0.094-0.267-0.323-0.173-0.513l1.145-2.31
								c0.095-0.19,0.325-0.267,0.514-0.173l3.294,1.633L303.79,149.353z"/>
						</g>
					</g>
					<polygon fill="#DEEAEF" points="284.87,131.343 243.305,110.733 251.127,104.159 					"/>
					<polygon fill="#F19300" points="236.438,115.834 233.384,114.32 234.802,111.461 236.152,112.13 					"/>
					<g>
						
							<rect x="268.533" y="112.888" transform="matrix(-0.8961 -0.4439 0.4439 -0.8961 457.662 343.6847)" fill="#33485D" width="1.052" height="10.772"/>
					</g>
					<g>
						
							<rect x="251.003" y="104.196" transform="matrix(-0.8959 -0.4442 0.4442 -0.8959 428.1954 319.496)" fill="#33485D" width="1.051" height="10.772"/>
					</g>
					<path opacity="0.5" fill="none" stroke="#223140" stroke-width="1.0511" stroke-linejoin="round" stroke-miterlimit="10" d="
						M285.588,129.948l-6.162,12.426l-26.543-13.16c0.722-4.424-1.506-8.936-5.641-10.986l2.206-4.448"/>
					<g opacity="0.5">
						
							<line fill="none" stroke="#223140" stroke-width="1.0511" stroke-linejoin="round" stroke-miterlimit="10" x1="266.978" y1="122.471" x2="261.753" y2="133.01"/>
					</g>
					
						<line fill="none" stroke="#223140" stroke-width="1.0511" stroke-linecap="round" stroke-linejoin="round" stroke-miterlimit="10" x1="250.595" y1="117.39" x2="253.263" y2="118.712"/>
					
						<line fill="none" stroke="#223140" stroke-width="1.0511" stroke-linecap="round" stroke-linejoin="round" stroke-miterlimit="10" x1="267.961" y1="126" x2="270.63" y2="127.324"/>
					
						<circle fill="#33485D" stroke="#223140" stroke-width="0.6421" stroke-linecap="round" stroke-linejoin="round" stroke-miterlimit="10" cx="241.206" cy="114.153" r="1.93"/>
					<path fill="#223140" d="M286.569,131.046c-0.422,0.851-1.455,1.2-2.307,0.778l-2.312-1.146
						c-0.854-0.423-1.201-1.457-0.778-2.308l0,0c0.423-0.852,1.455-1.199,2.309-0.777l2.312,1.146
						C286.643,129.161,286.993,130.194,286.569,131.046L286.569,131.046z"/>
				</g>
			</g>
			<path fill="#C5C6C8" d="M220.861,106.434c-0.928-0.118-1.817,0.031-2.63,0.353c0.156-0.379,0.281-0.774,0.336-1.2
				c0.333-2.619-1.519-5.012-4.138-5.345c-0.589-0.075-1.162-0.025-1.705,0.104c0.001-0.01,0.004-0.021,0.005-0.031
				c0.525-4.128-2.395-7.9-6.524-8.426c-2.217-0.282-4.326,0.436-5.89,1.794c-1.252-3.315-4.247-5.848-8.008-6.327
				c-5.061-0.644-9.712,2.658-10.87,7.511c-0.596-0.244-1.229-0.422-1.898-0.507c-4.128-0.525-7.9,2.396-8.426,6.524
				c-0.525,4.128,2.396,7.901,6.524,8.426c0.474,0.061,0.94,0.069,1.399,0.043c-0.09,0.316-0.181,0.632-0.224,0.969
				c-0.459,3.61,2.096,6.91,5.706,7.369c2.257,0.287,4.391-0.603,5.787-2.191c1.005,2.891,3.569,5.118,6.812,5.522
				c3.802,0.476,7.315-1.704,8.704-5.085c0.801,1.751,2.446,3.068,4.496,3.329c2.718,0.346,5.224-1.266,6.126-3.732
				c0.806,0.796,1.854,1.358,3.067,1.513c2.93,0.373,5.609-1.701,5.982-4.631C225.866,109.485,223.791,106.806,220.861,106.434z
				 M215.164,109.567c0.067-0.02,0.128-0.053,0.194-0.076c-0.03,0.063-0.059,0.126-0.087,0.19
				C215.235,109.642,215.201,109.605,215.164,109.567z"/>
		</g>
		<g>
			<g>
				<g>
					<path fill="#BF3929" d="M88.88,356.483c0,0,0.003-0.002,0.004,0l6.018,4.279c0.204,0.146,0.27,0.424,0.153,0.644
						c-1.785,3.336-0.804,7.505,2.279,9.698c3.085,2.192,7.348,1.749,9.91-1.033c0.172-0.184,0.452-0.212,0.656-0.067l25.106,17.849
						c0.204,0.147,0.267,0.421,0.148,0.642c-1.784,3.336-0.802,7.506,2.282,9.696c3.087,2.197,7.349,1.753,9.911-1.031
						c0.171-0.186,0.451-0.213,0.656-0.067l4.127,2.937c0.225,0.157,0.278,0.468,0.116,0.695l-7.381,10.382
						c-0.062,0.084-0.143,0.148-0.245,0.183l-13.653,4.748c-0.154,0.054-0.321,0.03-0.454-0.063l-24.736-17.587
						c-0.063-0.043-0.114-0.104-0.154-0.172c-2.34-4.422-6.584-15.264-7.001-16.326c-1.028-1.163-12.221-13.827-13.077-15.297
						c-0.087-0.143-0.09-0.318-0.024-0.464c2.491-5.303,4.312-8.847,4.594-9.393c0.014-0.046,0.041-0.09,0.065-0.138
						C88.34,356.374,88.654,356.323,88.88,356.483z"/>
					<path fill="#EEF7FB" d="M136.642,407.815l-8.377,5.036l-22.727-16.155c-2.426-4.749-5.419-14.76-5.463-14.874L136.642,407.815z
						"/>
					
						<path fill="none" stroke="#2F9859" stroke-width="1.6755" stroke-linecap="round" stroke-linejoin="round" stroke-miterlimit="10" d="
						M132.758,403.445"/>
					<g>
						<g>
							<polygon fill="#FFFFFF" points="88.44,364.926 85.245,362.655 84.146,364.898 87.014,366.938 							"/>
							<path fill="#FFFFFF" d="M85.311,362.252l3.346,2.378c0.164,0.115,0.198,0.347,0.081,0.508l-1.429,2.014
								c-0.115,0.165-0.343,0.206-0.509,0.086l-2.865-2.037L85.311,362.252z"/>
						</g>
					</g>
					<polygon fill="#DEEAEF" points="100.478,382.105 136.642,407.815 128.265,412.852 					"/>
					<polygon fill="#F19300" points="143.895,404.029 146.549,405.922 144.782,408.403 143.609,407.571 					"/>
					<g>
						<path fill="#FFFFFF" stroke="#1A171B" stroke-width="3.1813" stroke-miterlimit="10" d="M136.118,389.162
							c1.497-2.107,4.417-2.599,6.523-1.102c2.108,1.494,2.602,4.416,1.101,6.523c-1.494,2.105-4.416,2.598-6.522,1.104
							C135.115,394.188,134.619,391.269,136.118,389.162z"/>
					</g>
					<g>
						<path fill="#FFFFFF" stroke="#1A171B" stroke-width="3.1813" stroke-miterlimit="10" d="M97.927,362.015
							c1.497-2.107,4.418-2.603,6.522-1.104c2.107,1.495,2.601,4.414,1.103,6.522c-1.495,2.104-4.417,2.6-6.52,1.103
							C96.921,367.038,96.43,364.116,97.927,362.015z"/>
					</g>
					<g>
						
							<rect x="112.946" y="391.673" transform="matrix(0.8138 0.5811 -0.5811 0.8138 251.7156 7.9515)" fill="#BF3929" width="1.005" height="10.305"/>
					</g>
					<g>
						
							<rect x="128.197" y="402.516" transform="matrix(0.8133 0.5818 -0.5818 0.8133 261.224 1.2281)" fill="#BF3929" width="1.002" height="10.305"/>
					</g>
					<path opacity="0.5" fill="none" stroke="#9F1E1C" stroke-width="1.0053" stroke-linejoin="round" stroke-miterlimit="10" d="
						M99.589,383.317l7.688-10.812l23.092,16.421c-1.344,4.066,0.079,8.662,3.679,11.219l-2.751,3.873"/>
					<g opacity="0.5">
						
							<line fill="none" stroke="#9F1E1C" stroke-width="1.0053" stroke-linejoin="round" stroke-miterlimit="10" x1="116.044" y1="393.175" x2="122.562" y2="384.005"/>
					</g>
					
						<line fill="none" stroke="#9F1E1C" stroke-width="1.0053" stroke-linecap="round" stroke-linejoin="round" stroke-miterlimit="10" x1="130.755" y1="400.435" x2="128.433" y2="398.784"/>
					
						<line fill="none" stroke="#9F1E1C" stroke-width="1.0053" stroke-linecap="round" stroke-linejoin="round" stroke-miterlimit="10" x1="115.645" y1="389.693" x2="113.324" y2="388.042"/>
					
						<path fill="#BF3929" stroke="#9F1E1C" stroke-width="0.6141" stroke-linecap="round" stroke-linejoin="round" stroke-miterlimit="10" d="
						M137.635,403.832c0.591-0.832,1.74-1.026,2.573-0.433c0.831,0.59,1.025,1.741,0.436,2.573c-0.591,0.83-1.744,1.022-2.579,0.435
						C137.235,405.818,137.042,404.665,137.635,403.832z"/>
					<path fill="#9F1E1C" d="M98.826,382.132c0.527-0.742,1.558-0.92,2.296-0.389l2.015,1.433c0.74,0.523,0.912,1.553,0.386,2.293
						l0,0c-0.525,0.741-1.557,0.918-2.299,0.391l-2.009-1.434C98.475,383.901,98.302,382.872,98.826,382.132L98.826,382.132z"/>
				</g>
				<path fill="#B0B2B3" d="M157.526,416.582c0.895,0.277,1.796,0.281,2.652,0.105c-0.219,0.347-0.409,0.714-0.537,1.124
					c-0.779,2.521,0.635,5.198,3.155,5.977c0.567,0.175,1.142,0.225,1.699,0.189c-0.004,0.01-0.009,0.021-0.012,0.03
					c-1.226,3.976,1.002,8.193,4.978,9.422c2.134,0.659,4.336,0.315,6.111-0.756c0.664,3.482,3.177,6.493,6.799,7.612
					c4.876,1.505,10.025-0.946,12-5.53c0.546,0.346,1.139,0.627,1.783,0.829c3.976,1.227,8.195-1.002,9.422-4.978
					c1.227-3.977-1-8.197-4.978-9.422c-0.455-0.144-0.914-0.23-1.371-0.287c0.144-0.294,0.288-0.591,0.388-0.915
					c1.073-3.474-0.875-7.166-4.35-8.24c-2.178-0.672-4.432-0.16-6.08,1.163c-0.494-3.02-2.637-5.654-5.761-6.611
					c-3.664-1.123-7.498,0.42-9.449,3.511c-0.488-1.86-1.882-3.443-3.855-4.051c-2.618-0.809-5.364,0.349-6.677,2.622
					c-0.658-0.924-1.592-1.657-2.761-2.019c-2.821-0.872-5.817,0.709-6.689,3.532C153.124,412.713,154.707,415.71,157.526,416.582z
					 M163.678,414.474c-0.071,0.009-0.135,0.032-0.204,0.042c0.04-0.056,0.079-0.113,0.117-0.171
					C163.622,414.39,163.647,414.433,163.678,414.474z"/>
			</g>
		</g>
	</g>
</g>
</svg>
