<?xml version="1.0" encoding="utf-8"?>
<!-- Generator: Adobe Illustrator 15.0.2, SVG Export Plug-In . SVG Version: 6.00 Build 0)  -->
<!DOCTYPE svg PUBLIC "-//W3C//DTD SVG 1.1//EN" "http://www.w3.org/Graphics/SVG/1.1/DTD/svg11.dtd">
<svg version="1.1" id="Lager_1" xmlns="http://www.w3.org/2000/svg" xmlns:xlink="http://www.w3.org/1999/xlink" x="0px" y="0px" viewBox="0 0 422.446 407.975" enable-background="new 0 0 422.446 407.975"
	 xml:space="preserve">
<g>
	<circle fill="#179B97" cx="202.899" cy="231.574" r="128.333"/>
	<g>
		<defs>
			<circle id="SVGID_1_" cx="202.899" cy="231.574" r="128.333"/>
		</defs>
		<clipPath id="SVGID_2_">
			<use xlink:href="#SVGID_1_"  overflow="visible"/>
		</clipPath>
		
			<path clip-path="url(#SVGID_2_)" fill="#77C198" stroke="#77C198" stroke-linecap="round" stroke-linejoin="round" stroke-miterlimit="10" d="
			M166.654,192.628"/>
		<path clip-path="url(#SVGID_2_)" fill="#83AF6E" d="M147.343,187.534c0,0,1.15,5.587,3.123,6.573
			c1.972,0.986,4.273,1.973,3.78,3.453c-0.493,1.479,0,3.616-1.644,4.108c-1.644,0.493-3.944,1.151-5.259,1.151
			c-1.315,0-2.63-1.15-3.616,0c-0.987,1.15-2.958,3.944-3.945,2.466c-0.986-1.479-1.808-2.137,0-2.958
			c1.808-0.823,3.288-0.822,2.794-1.48c-0.493-0.657-0.657-0.164-1.315-0.985c-0.657-0.822,0.822-1.879,0.329-3.241
			c-0.493-1.362-1.973-2.841-0.986-3.005c0.986-0.165,2.137,1.478,2.302-0.329c0.164-1.808,1.15-2.465-0.494-3.78
			c-1.644-1.315-2.137,0.165-2.137-1.972s-0.495-2.466-1.562-3.617c-1.067-1.15-1.889-3.287-2.053-5.424
			c-0.165-2.136,2.794-1.479,2.794-3.451s0.163-2.959,1.807-2.63c1.645,0.329,4.602-1.439,3.616-0.062
			c-0.986,1.377-3.287,2.856-1.644,3.185s4.766-0.329,3.944,1.479c-0.821,1.808-1.91,4.602-1.695,5.423
			C145.699,183.261,147.343,187.534,147.343,187.534z"/>
		<path clip-path="url(#SVGID_2_)" fill="#83AF6E" d="M130.851,189.534c0.986,0,2.795-1.479,3.124,0
			c0.328,1.479,0.986,2.793,0,3.287c-0.987,0.493-1.944,1.314-1.302,2.466c0.644,1.15,1.616,2.793-0.021,3.45
			c-1.636,0.659-1.966,0.823-3.281,1.809c-1.314,0.985-2.464,1.807-3.286,1.315c-0.822-0.494-2.629,0.328-1.973-1.809
			c0.658-2.136,1.644-2.794,0.986-3.945c-0.658-1.15-2.912-1.314-1.126-2.629c1.784-1.315,2.441-0.493,3.428-1.315
			C128.386,191.341,130.851,189.534,130.851,189.534z"/>
		
			<path display="none" clip-path="url(#SVGID_2_)" fill="#77C198" stroke="#77C198" stroke-linecap="round" stroke-linejoin="round" stroke-miterlimit="10" d="
			M116.443,136.09c1.315,1.479,0.493,1.644,1.972,2.63c1.479,0.986,2.959,0.821,2.465,2.63c-0.493,1.808-2.136,5.095-3.615,5.588
			c-1.479,0.493-5.26,4.109-7.232,4.109c-1.972,0-2.465-0.164-3.944-1.15c-1.479-0.987-1.315,0.492-2.794-0.987
			c-1.479-1.479,0-0.657-0.658-2.63c-0.658-1.972-0.658-0.985-2.136-1.972c-1.479-0.986-1.314-1.644,0-1.644
			c1.315,0,2.63,0.822,1.972-0.822c-0.657-1.643-0.821-2.137-2.301-1.972c-1.479,0.164-0.658,1.644-1.479,0.164
			c-0.821-1.479-1.972-1.479,0-2.794s2.959-3.123,3.944-1.15c0.986,1.973,1.972,3.452,3.452,2.63
			c1.479-0.822,3.123-0.329,4.438-1.315c1.315-0.986,2.095-0.164,3.102-0.328C114.636,136.912,116.443,136.09,116.443,136.09z"/>
		
			<path clip-path="url(#SVGID_2_)" fill="#77C198" stroke="#77C198" stroke-linecap="round" stroke-linejoin="round" stroke-miterlimit="10" d="
			M105.103,46.927c-0.247,0.986-2.711,2.657,0,7.368c2.712,4.711,7.39,6.438,4.188,10.382c-3.202,3.944-2.894,3.452-2.185,7.396
			s7.606,1.232,2.185,7.149c-5.42,5.917-0.301,9.862-5.45,12.573c-5.148,2.712-6.134,1.48-3.915,6.903
			c2.218,5.424,4.19,10.354,2.711,11.094c-1.479,0.74-2.917,0.493-5.033,5.917c-2.116,5.424-5.321,8.382-9.759,9.615
			c-4.437,1.232-4.931-0.74-7.889,1.725c-2.958,2.465-1.726,7.396-5.178,9.615c-3.451,2.219-6.903,1.727-9.368,3.699
			s-2.465,1.479-2.958,6.41c-0.493,4.93-4.438,4.93-4.684,10.107c-0.247,5.177,2.465,8.628-1.479,9.122
			c-3.945,0.493-6.164,1.232-7.889-1.973c-1.726-3.205-1.233-1.232-5.424-7.642s-1.972-1.726-4.438-9.861
			c-2.465-8.136-5.423-9.862-3.452-15.532c1.973-5.67,6.164-10.107,5.178-13.559c-0.987-3.452,0.986-10.848-3.945-14.545
			c-4.931-3.698-6.41-0.986-6.41-8.136c0-7.15-3.944-20.956-6.903-23.174c-2.958-2.219-1.479-2.958-10.601-3.205
			c-9.122-0.246-10.601,1.479-12.82-2.219s-4.191-3.452-3.452-4.931c0.739-1.479,6.163,0,4.931-3.945
			c-1.233-3.944-12.081-9.368-10.107-10.354C-7.07,45.941,105.103,46.927,105.103,46.927z"/>
		
			<path clip-path="url(#SVGID_2_)" fill="#77C198" stroke="#77C198" stroke-linecap="round" stroke-linejoin="round" stroke-miterlimit="10" d="
			M-119.407,105.388c1.479,1.12,8.053,3.153,7.725,0s-1.291-7.098,0.012-8.413c1.304-1.314,4.919-2.63,6.891-4.93
			c1.973-2.301,7.232-7.561,2.301-7.561s-5.346,2.302-7.439,0c-2.093-2.301-6.696-2.958-6.696-2.958s-2.301-2.629-2.793,0
			S-119.407,105.388-119.407,105.388z"/>
		
			<path clip-path="url(#SVGID_2_)" fill="#77C198" stroke="#77C198" stroke-linecap="round" stroke-linejoin="round" stroke-miterlimit="10" d="
			M-71.58,115.383c-0.986-3.945-3.616-4.685-4.931-8.916c-1.315-4.232-1.644-5.547-2.301-7.848c-0.658-2.301,5.588-1.59,0-4.904
			c-5.588-3.313-2.958,1.289-6.903,2.274c-3.945,0.986-0.657,0.001-5.588-0.328c-4.931-0.329-5.26,1.314-6.246-0.329
			s0.329-5.864-4.273-1.617c-4.603,4.247-7.889,8.024-5.259,9.916c2.629,1.892,11.176-2.567,10.847,3.442
			c-0.329,6.01-1.159,6.339-4.195,6.339c-3.037,0-4.681-2.958-4.681,0c0,2.959,4.931,7.561,6.904,7.889
			c1.972,0.329,8.218,0.987,10.847,0c2.629-0.986,4.273-0.272,7.561,0.521c3.287,0.794,8.546,0.794,8.217-1.836
			C-71.908,117.356-71.58,115.383-71.58,115.383z"/>
		
			<path clip-path="url(#SVGID_2_)" fill="#77C198" stroke="#77C198" stroke-linecap="round" stroke-linejoin="round" stroke-miterlimit="10" d="
			M-62.704,88.758c-2.301-0.986-2.629-1.972-5.917,0c-3.287,1.973-1.943,2.301-2.943,6.574c-1.001,4.273,0.313,4.273,2.286,6.246
			c1.972,1.972,1.972,1.474,4.602,5.503c2.63,4.03-0.657-1.559,1.973-4.188c2.629-2.63,6.246,0.521,3.616-4.834
			C-61.717,92.702-62.704,88.758-62.704,88.758z"/>
		
			<path clip-path="url(#SVGID_2_)" fill="#77C198" stroke="#77C198" stroke-linecap="round" stroke-linejoin="round" stroke-miterlimit="10" d="
			M-35.75,87.619c-3.944,0.81-6.245,0.864-7.56,6.096c-1.315,5.233-0.658,8.909,0,11.673c0.657,2.764,0.884,5.722,3.4,6.379
			c2.516,0.658,2.845,1.644,9.748,2.63c6.903,0.986,0.751-4.93,7.936,0c7.185,4.93,18.361,10.19,15.074,16.435
			c-3.287,6.247-0.986,9.862-5.588,9.862c-4.602,0-8.875-2.026-6.903,2.438c1.973,4.464,2.301,5.122,6.246,4.464
			c3.945-0.657,10.518,8.876,14.135,9.204c3.616,0.329,8.217,3.288,5.916-1.971c-2.3-5.26,5.51-3.288,0.619-8.875
			c-4.892-5.589-6.207-9.533-1.604-7.561c4.603,1.972,8.875,6.574,9.204,0.329c0.329-6.246-3.944-6.246-4.93-9.205
			c-0.986-2.958-4.93,2.626-6.574-7.233c-1.644-9.859-6.56-10.786-12.648-16.896c-6.088-6.112-4.445-4.14-9.375-8.741
			c-4.931-4.602-6.903-9.211-11.176-4.77c-4.273,4.441-3.615,9.043-4.273,10.358s-3.616-0.465-3.944-4.177
			C-38.379,94.346-35.75,87.619-35.75,87.619z"/>
		
			<path clip-path="url(#SVGID_2_)" fill="#77C198" stroke="#77C198" stroke-linecap="round" stroke-linejoin="round" stroke-miterlimit="10" d="
			M-33.777,143.133c0,0-8.546,3.803-3.616,7.914c4.931,4.11,4.931,1.153,8.875,1.81c3.944,0.658,8.546-1.742,4.602-4.651
			c-3.944-2.909-3.642-5.072-6.751-5.072C-33.777,143.133-33.777,143.133-33.777,143.133z"/>
		
			<path clip-path="url(#SVGID_2_)" fill="#77C198" stroke="#77C198" stroke-linecap="round" stroke-linejoin="round" stroke-miterlimit="10" d="
			M-56.13,86.128c4.603-0.986,8.876-1.972,9.205,0c0.328,1.972,3.944,2.952,0,5.749c-3.945,2.798-2.629,6.278-4.931,6.181
			c-2.301-0.096-2.63,3.711-4.274,0C-57.773,94.346-56.13,86.128-56.13,86.128z"/>
		
			<path clip-path="url(#SVGID_2_)" fill="#77C198" stroke="#77C198" stroke-linecap="round" stroke-linejoin="round" stroke-miterlimit="10" d="
			M-14.59,46.489c0,0-0.122,2.823-2.095,5.453c-1.972,2.63-2.63,0.329-3.287,6.246c-0.658,5.917,7.945,10.847-2.438,10.189
			c-10.382-0.657-6.214,3.076-16.517,0.059c-10.301-3.018-15.231-5.646-8.986-8.277c6.246-2.63,14.792-5.917,11.833-9.204
			c-2.958-3.288,0.329-4.467,0.329-4.467H-14.59z"/>
		
			<path clip-path="url(#SVGID_2_)" fill="#77C198" stroke="#77C198" stroke-linecap="round" stroke-linejoin="round" stroke-miterlimit="10" d="
			M-30.668,72.322c1.492-0.328,8.123-0.657,8.258,3.288c0.137,3.944,2.453,4.237-4.129,4.748c-6.581,0.512-7.238-0.839-10.854,0
			c-3.615,0.84-4.602,1.372-8.875,0.12c-4.274-1.252-3.833,0.562-4.71-3.796c-0.878-4.359-2.85-6.988-3.836-8.632
			c-0.986-1.644-3.945-5.587,0-3.287c3.944,2.301,6.371,7.209,10.745,7.877C-39.694,73.308-30.668,72.322-30.668,72.322z"/>
		
			<path clip-path="url(#SVGID_2_)" fill="#77C198" stroke="#77C198" stroke-linecap="round" stroke-linejoin="round" stroke-miterlimit="10" d="
			M-63.033,67.72c-1.315-1.315-1.644-5.351-4.602-3.662s-1.972,0.909-6.246,1.627c-4.273,0.72-7.889-0.392-2.63,3.944
			c5.259,4.336,7.889,2.012,7.889,3.009c0,0.998,2.559,4.614,3.58,4.614c1.022,0,1.022,3.287,2.008,0
			C-62.047,73.966-63.033,67.72-63.033,67.72z"/>
		
			<path clip-path="url(#SVGID_2_)" fill="#77C198" stroke="#77C198" stroke-linecap="round" stroke-linejoin="round" stroke-miterlimit="10" d="
			M-83.084,69.63c-3.616-3.553-2.301-6.759-4.931-5.978c-2.629,0.781-0.919,2.096-1.775,4.397c-0.854,2.301,0.789,2.981-3.155,3.134
			c-3.945,0.153-6.09-0.856-7.482,1.456c-1.393,2.313-4.524,2.97,0,3.627c4.523,0.658,8.139-2.63,6.167,0
			c-1.973,2.63-5.917,4.647-0.658,4.954c5.26,0.306,5.588-0.388,7.889-0.863c2.301-0.474,7.56-3.761,5.917-6.391
			C-82.756,71.336-83.084,69.63-83.084,69.63z"/>
		
			<path clip-path="url(#SVGID_2_)" fill="#77C198" stroke="#77C198" stroke-linecap="round" stroke-linejoin="round" stroke-miterlimit="10" d="
			M709.111,126.558c-1.479-1.479-5.422-7.077-9.861-3.785c-4.438,3.292-7.889,9.702-12.328,3.785
			c-4.436-5.917-2.957-8.382-10.352-8.382c-7.396,0-1.48-0.493-10.355,0c-8.875,0.493-8.875,0.548-16.27-0.219
			c-7.398-0.767,0.984-0.22-10.85,0c-11.834,0.219-12.818-0.767-18.242-2.74c-5.426-1.972-4.932-2.958-11.34-4.438
			c-6.412-1.479-10.355-4.566-16.766-2.283c-6.412,2.283-13.805,5.051-14.791,9.831c-0.988,4.779-6.412,6.157,0,10.646
			c6.408,4.488,10.846,6.46,7.889,8.433c-2.961,1.973-6.41,2.58-7.398,5.728c-0.984,3.147,7.398,3.805,5.918,7.914
			c-1.48,4.108-4.93-3.17-2.959,6.879c1.973,10.049,3.451,23.855,11.836,22.375c8.381-1.479,8.381-5.133,9.859-8.484
			c1.48-3.35-10.354-3.944,4.932-5.373s21.201,1.82,25.639,5.373c4.439,3.554,26.133,20.318,27.613,25.742
			c1.479,5.423,4.93,20.037,3.945,26.29c-0.988,6.251-3.945,9.211,2.463,20.058c6.41,10.849,7.396,8.383,14.793,18.737
			c7.396,10.354,12.326,16.271,12.326,14.298s-4.438-14.298-4.438-14.298s8.383,8.874,10.354,10.847
			c1.973,1.972,8.383,12.326,8.383,12.326V126.558z"/>
		
			<path clip-path="url(#SVGID_2_)" fill="#77C198" stroke="#77C198" stroke-linecap="round" stroke-linejoin="round" stroke-miterlimit="10" d="
			M709.111,105.388c0,0,1.479-11.211-2.465-13.511c-3.945-2.299-4.438,1.25-9.861,0.461c-5.424-0.789,0,6.181-10.354-1.248
			c-10.355-7.43-7.398-7.731-14.791-6.102c-7.398,1.63-10.85,0.707-8.877,9.797c1.973,9.091-1.479,14.086,5.424,10.603
			c6.902-3.484-0.986-9.4,6.902-3.484c7.891,5.917,5.916-0.494,7.891,5.917c1.971,6.41,4.436,7.396,6.408,9.862
			c1.973,2.465-5.916,9.697,3.945,4.602c9.861-5.095,9.861-6.082,12.818-7.068C709.111,114.231,709.111,105.388,709.111,105.388z"/>
		
			<path clip-path="url(#SVGID_2_)" fill="#77C198" stroke="#77C198" stroke-linecap="round" stroke-linejoin="round" stroke-miterlimit="10" d="
			M485.259,402.181c0,0-0.988,21.697-10.355,21.203c-9.369-0.493-13.807,3.451-16.764-1.974c-2.959-5.422-4.438-9.367-6.41-10.846
			s-0.492,2.957-6.41-0.986c-5.918-3.946,0.986-9.862-8.875-7.397c-9.861,2.467-12.326,5.424-16.764,6.905
			c-4.439,1.479-2.961,3.795-10.355,3.869c-7.396,0.075-7.396,5.004-7.891-2.391c-0.492-7.397,2.961-9.368,0-15.284
			c-2.957-5.919-5.027-8.878-0.047-13.808s13.361-1.479,14.842-7.396c1.479-5.916,0.984-5.423,6.408-8.875s6.904,5.422,10.355,0
			c3.451-5.425,5.916-12.326,11.834-7.397c5.916,4.932,4.436,0,5.916,4.932c1.48,4.931,1.48,8.382,5.424,5.425
			c3.945-2.959,1.973-15.704,4.438-12.044s6.902,8.098,9.369,13.028c2.465,4.932,13.312,12.327,15.285,18.245
			C487.232,393.307,485.259,402.181,485.259,402.181z"/>
		
			<path clip-path="url(#SVGID_2_)" fill="#77C198" stroke="#77C198" stroke-linecap="round" stroke-linejoin="round" stroke-miterlimit="10" d="
			M437.595,333.646c0,0,2.424,0.329,4.664,1.972c2.24,1.646,4.211,3.946,5.525,2.63c1.316-1.313,0.988-4.54,5.26-2.105
			c4.273,2.435,6.574,2.764,9.205,4.078c2.629,1.315,4.93,0.984,5.916,3.287c0.986,2.302,4.604,4.917,6.244,6.896
			c1.645,1.98,4.602,8.139,0,5.06c-4.598-3.079-5.258-4.08-9.203-5.06c-3.943-0.978-5.1,1.965-7.973,0
			c-2.873-1.966-2.217,1.98-2.873-1.966c-0.658-3.943-0.658-5.26-4.932-5.916c-4.271-0.656-6.449-1.645-7.17-2.957
			c-0.721-1.316-4.664-0.658-4.664-3.289C437.595,333.646,437.595,333.646,437.595,333.646z"/>
		
			<path clip-path="url(#SVGID_2_)" fill="#77C198" stroke="#77C198" stroke-linecap="round" stroke-linejoin="round" stroke-miterlimit="10" d="
			M408.669,318.853c-3.945,0-6.246,0.986-7.561,2.959c-1.314,1.974-3.943,3.945-6.246,4.603c-2.301,0.656-5.26,0.33-5.26,3.616
			c0,3.287-0.656,5.258,2.303,6.574c2.957,1.314,8.545,2.301,10.518,2.301s2.301-1.974,4.273-5.26
			c1.973-3.288,3.287-2.302,1.973-5.917c-1.316-3.616-1.973-4.272-0.986-6.573C408.669,318.853,408.669,318.853,408.669,318.853z"/>
		
			<path clip-path="url(#SVGID_2_)" fill="#77C198" stroke="#77C198" stroke-linecap="round" stroke-linejoin="round" stroke-miterlimit="10" d="
			M360.183,320.827c0,0,1.646-0.82,3.289,0.822s4.271,3.121,5.258,4.271s3.451,1.645,5.424,2.959
			c1.973,1.316,2.139,2.795,4.111,5.589c1.973,2.795,5.752,2.138,5.422,4.438c-0.33,2.301,0.822,6.556-1.643,6.072
			c-2.467-0.482-4.438-1.142-5.752-2.785c-1.316-1.645-4.439-4.438-5.26-6.081c-0.822-1.644-1.316-2.957-4.273-5.588
			c-2.959-2.629-3.123-3.617-5.752-5.752C358.376,322.634,360.183,320.827,360.183,320.827z"/>
		
			<path clip-path="url(#SVGID_2_)" fill="#77C198" stroke="#77C198" stroke-linecap="round" stroke-linejoin="round" stroke-miterlimit="10" d="
			M386.644,345.015c0.494,0.465,5.918,2.272,6.412,2.109c0.492-0.166,3.918-0.166,5.328,0.821s6.178,2.629,3.217,2.793
			c-2.959,0.165-3.943,0.328-5.916,0c-1.973-0.329-1.973-1.15-4.438-1.15s-5.258,0.002-6.082-0.655c-0.822-0.658,0-1.315,0-1.975
			C385.166,346.302,386.644,345.015,386.644,345.015z"/>
		
			<path clip-path="url(#SVGID_2_)" fill="#77C198" stroke="#77C198" stroke-linecap="round" stroke-linejoin="round" stroke-miterlimit="10" d="
			M428.064,350.93c-0.494-0.191-3.617-0.47-4.273,0c-0.658,0.466-3.123,1.125-3.287,2.111c-0.166,0.984-1.15,3.198,0,2.421
			s1.807-2.206,2.301-2.313c0.492-0.107,1.971,0.766,2.629,0C426.091,352.384,428.064,350.93,428.064,350.93z"/>
		
			<path clip-path="url(#SVGID_2_)" fill="#77C198" stroke="#77C198" stroke-linecap="round" stroke-linejoin="round" stroke-miterlimit="10" d="
			M415.574,291.243c-0.822,0-1.645,2.958-2.137,4.438c-0.496,1.479-0.988,0.821,0,2.628c0.984,1.81,2.465,2.96,3.121,2.467
			c0.656-0.494-0.162-2.301,0.656-3.451c0.824-1.15,1.809-2.959,1.15-4.275C417.71,291.736,415.574,291.243,415.574,291.243z"/>
		
			<path clip-path="url(#SVGID_2_)" fill="#77C198" stroke="#77C198" stroke-linecap="round" stroke-linejoin="round" stroke-miterlimit="10" d="
			M425.761,311.625c-2.299,0.492-1.805,1.477-3.121,1.643c-1.314,0.162-0.771-0.988-2.686,0c-1.916,0.985-1.816,2.466-1.373,2.299
			c0.443-0.162,1.428-0.63,1.922,0.015c0.492,0.646,1.15,2.778,2.301,3.272c1.15,0.495,3.779-0.655,2.957-2.299
			c-0.82-1.644,1.973-1.646,0.986-3.287C425.761,311.625,425.761,311.625,425.761,311.625z"/>
		
			<path clip-path="url(#SVGID_2_)" fill="#77C198" stroke="#77C198" stroke-linecap="round" stroke-linejoin="round" stroke-miterlimit="10" d="
			M414.751,334.796c1.479,0,0.984-1.644,2.629-1.15s3.666-0.256,2.574,0.529c-1.096,0.785-2.32,1.609-2.447,2.266
			s2.883,1.809,2.447,3.616c-0.439,1.808-1.006,2.628-2.447,2.464s-0.812-3.944-1.783-3.615c-0.973,0.33-2.123-1.643-2.123,0
			s0.162,2.506,0,3.637c-0.164,1.131-1.152,2.446-1.809,1.623c-0.656-0.822-0.656-1.316-0.656-3.121c0-1.809,0.818-1.645,0-2.795
			c-0.822-1.152,0.164-1.48,0-2.632c-0.168-1.149,1.818-3.301,1.729-2.799C412.779,333.318,414.751,334.796,414.751,334.796z"/>
		
			<path clip-path="url(#SVGID_2_)" fill="#77C198" stroke="#77C198" stroke-linecap="round" stroke-linejoin="round" stroke-miterlimit="10" d="
			M530.128,434.396c0.164-1.15,2.795-1.972,0.658-3.123c-2.139-1.15-2.631-1.644-3.619-0.987c-0.986,0.658-0.82,1.315-1.971,2.96
			c-1.15,1.644-1.971,1.809-3.287,3.125c-1.314,1.313-0.33,1.149-3.289,3.45c-2.957,2.301-3.779,2.464-3.941,3.942
			c-0.164,1.48,2.959,2.958,4.271,3.124c1.316,0.164,3.621,0.494,4.193-1.151c0.574-1.644,2.053-3.942,2.053-5.424
			c0-1.479,0.162-2.135,1.809-2.957C528.648,436.533,530.128,434.396,530.128,434.396z"/>
		
			<path clip-path="url(#SVGID_2_)" fill="#77C198" stroke="#77C198" stroke-linecap="round" stroke-linejoin="round" stroke-miterlimit="10" d="
			M537.031,420.754c-1.314-0.822-2.301-2.959-2.795-3.451c-0.49-0.493-1.619-1.922-2.617-3.015c-1-1.095-2.807-1.208-1.984,0
			c0.822,1.206,1.832,3.507,1.984,4.165c0.152,0.657,2.738,2.793,1.609,3.779c-1.129,0.987-0.775,1.525-1.609,2.078
			c-0.832,0.552-1.326,1.21-1,1.704c0.33,0.491,3.947,0.326,3.947,1.643c0,1.314-1.314,1.383-0.33,2.335
			c0.988,0.951,2.467,2.005,2.795,0c0.328-2.008-1.807-2.335,0-3.649c1.807-1.315,2.795-1.644,2.795-2.959
			c0-1.314,0.82-0.728-0.822-1.103C537.359,421.905,537.031,420.754,537.031,420.754z"/>
		<path clip-path="url(#SVGID_2_)" fill="#83AF6E" d="M333.106,291.333c-0.711,3.128-3.471,4.674-6.928,6.386
			s-0.014,3.698-0.021,5.426c-0.006,1.723-3.977,8.365-4.967,9.593c-0.99,1.231-3.455,0.728-4.182-2.234
			c-0.729-2.96-1.469-3.209-2.445-5.433c-0.979-2.221-3.943-13.417-4.625-16.041c-2.953-11.396-16.461-14.608-16.461-14.608
			c-4.924-1.991-4.689,1.462-7.156,1.453c-2.463-0.01-4.924-1.499-8.619-2.499c-3.693-1.001-1.471-1.978-2.943-3.215
			c-1.477-1.239-4.688-0.018-6.658-0.025c-1.973-0.007-5.902-4.214-7.123-6.686c-1.225-2.469-4.189-0.756-5.678,1.459
			c-1.486,2.214-0.01,2.466,2.691,5.68c2.699,3.216,1.477,1.238,4.416,5.687c2.939,4.451,1.971,0.502,4.434,0.511
			c2.465,0.01,3.211-1.467,5.93-3.429c2.721-1.962,1.229,1.977,2.205,3.706c0.98,1.73,1.229,1.484,4.182,2.728
			c2.955,1.245,0.24,1.481-1.25,4.927c-1.492,3.445-2.977,4.427-6.936,8.355c-3.961,3.931-5.93,3.43-10.621,5.631
			c-4.693,2.201-10.617,4.151-13.826,5.124s-1.711-3.951-1.945-7.158c-0.234-3.204-1.957-3.949-5.395-7.908
			c-3.435-3.957-3.184-5.188-5.144-8.648c-1.959-3.458-2.201-4.691-4.648-9.139c-2.449-4.447-2.947-3.215-4.673-3.222
			s-0.753,3.447,1.456,6.167c2.209,2.721,2.202,4.446,4.653,8.154c2.451,3.706,1.94,8.389,3.404,12.34
			c1.465,3.95,3.19,3.71,5.401,6.184c2.209,2.473,2.455,2.721,4.668,4.456c2.211,1.732,1.717,2.225,5.412,2.732
			c3.695,0.506,3.701-0.975,5.926-2.445c2.225-1.47,4.441-0.968,6.404,1.259c1.965,2.226-4.227,9.847-6.219,14.769
			c-1.99,4.922-15.338,13.994-19.546,18.662c-4.208,4.669,2.156,16.771,2.373,24.416l-62.378,1.49
			c0.016-4.191,1.255-5.912,3.981-9.602c2.726-3.685,0.509-4.188-0.216-8.136c-0.724-3.947-5.643-7.17-9.289-12.114
			s-0.017-4.439,0.029-7.644c0.046-3.204-0.503-6.165-1.982-6.077c-1.479,0.09-6.326-0.609-8.121-3.904
			c-1.795-3.294-3.778-0.837-8.55,0.789c0,0-3.786,1.631-9.704,1.936c-5.918,0.307-14.782-2.521-14.782-2.521
			c-3.606-2.479-10.804-11.38-12.599-15.004c-1.795-3.621-2.452-3.461-1.617-7.071c0.836-3.614,1.66-4.27,1.514-9.365
			c-0.145-5.095,1.199-12.813,3.514-16.422c2.315-3.607,8.24-5.72,10.532-7.684c2.292-1.963-0.682-6.04,3.503-9.273
			c5.184-4.004,10.371-4.398,10.371-4.398c3.545-0.104,1.89,0.008,4.932-0.393c3.042-0.398,2.583-0.869,5.518-3.184
			c2.938-2.32,9.79-2.84,15.049-2.82c5.259,0.021,8.255,11.782,8.255,11.782c1.224,2.389,1.312,0.825,4.925,1.58
			c3.613,0.752,0.982,0.908,3.85,3.22s3.775,1.329,6.157,1.666c2.382,0.339,4.536-4.255,7.168-4.654
			c2.631-0.401,4.186,1.165,8.126,2.413c3.939,1.246,4.762,1.168,7.31,1.19c2.547,0.023,2.878-0.659,5.18-1.061
			c2.303-0.401,2.051,0.912,3.777,1.082c1.725,0.171,2.387-1.305,3.545-3.192c1.158-1.885,1.498-4.841,1.915-6.565
			c0.418-1.727,0.341-2.959,0.349-5.012c0.008-2.055-1.645-0.088-3.453,0.316c-1.81,0.404-2.797,0.729-3.537,0.727
			c-0.739-0.004-1.23-0.334-2.951-1.738c-1.721-1.405-2.221,0.568-3.049,2.043c-0.827,1.477-1.805-0.828-2.214-1.324
			c-0.409-0.492-4.423-3.715-4.083-6.507c0.339-2.794-0.808-3.864-3.515-4.942c-2.708-1.079-1.89,0.074-4.692,2.2
			c-2.803,2.126,0.403,1.975,1.056,3.125c0.654,1.156,1.065,0.992,1.305,2.718c0.24,1.726-2.3-0.173-4.269-1.085
			c-1.969-0.91-2.631,0.319-3.618,0.479c-0.986,0.162-0.725-3.782-1.625-4.77c-0.9-0.992-0.731-2.222-1.295-5.184
			c-0.563-2.96-0.733-1.482-2.207-3.049c-1.474-1.565-2.789-1.571-5.082-3.636c-2.294-2.062-2.538-2.474-4.175-4.371
			c-1.637-1.896-1.638-1.485-2.789-1.326c-1.15,0.162-1.073,1.229-0.917,3.449c0.155,2.22,2.862,3.874,4.253,5.274
			c1.392,1.402,2.21,2.31,3.766,3.796c1.557,1.482,3.689,2.396,4.508,3.058c0.819,0.66,0.488,1.315-0.171,1.806
			c-0.659,0.492-1.805-0.828-2.708-1.162c-0.902-0.329-0.085,0.906,0.158,1.647c0.245,0.739-0.086,1.395-0.257,2.956
			c-0.171,1.561-1.322,1.885-2.142,1.471c-0.821-0.415,0.334-1.559,0.345-4.271c0.01-2.71-3.028-3.382-3.928-4.205
			c-0.901-0.824-2.871-1.409-3.609-1.986c-0.737-0.58-2.616-3.545-2.856-5.188c-0.24-1.645-3.443-2.15-5.414-2.732
			c-1.97-0.582-2.142,1.553-6.094,3.43c-3.952,1.875-3.038-0.835-5.919,0.469c-2.881,1.306-0.337,2.383-3.801,5.493
			c-3.463,3.108-1.978,1.472-3.883,5.408c-1.905,3.938-2.065,2.787-2.896,5.247c-0.832,2.464-1.979,1.884-3.868,1.796
			c-1.89-0.09-2.552,0.893-4.362,1.871c-1.812,0.98-1.473-1.729-3.114-2.59c0,0-1.315,0.027-2.466,0.186
			c-1.151,0.16-2.465-0.172-3.115-2.147c-0.649-1.972,0.841-4.68,0.841-4.68s-2.123-3.872-2.106-8.307
			c0.017-4.438,3.708-2.781,7.402-3.506c3.695-0.726,9.624-0.292,9.624-0.292c2.983-6.727-1.431-12.908-1.431-12.908
			c-0.49-0.905-2.208-0.394-3.451-0.341c-1.621,0.067-0.363-1.851,0.752-3.327c1.115-1.475,4.566-1.215,8.023-2.681
			c3.456-1.466,7.048-5.85,7.048-5.85s2.727-3.975,4.581-5.324c1.854-1.349,8.364-6.049,8.364-6.049
			c0.334-1.396-0.844-0.825-1.167-2.306c-0.323-1.48,0.009-2.383-0.152-3.123c-0.161-0.74-1.556-1.567-1.469-2.882
			c0.088-1.315,1.015-0.818,1.839-1.472c0.824-0.656,0.552-0.573,1.457-1.063c0.906-0.489,1.566-1.145,2.552-1.058
			c0.986,0.086,0.244,0.658,0.24,1.891c-0.005,1.232-0.335,1.642-0.588,3.449c-0.254,1.807-0.005,1.232,0.404,1.81
			c0.409,0.577,0.162,0.576,0.075,1.89c-0.087,1.314-0.741,0.326-0.99,1.064c-0.25,0.738,0.194-1.231,0.678,1.236
			c0.485,2.467,0,0,1.229,0.99l10.843,1.274c1.481-0.487,2.223-0.978,4.163-2.45c1.94-1.472,2.255,0.255,3.731,1.247
			c1.476,0.992,2.475-2.456,4.208-4.395s-0.736-1.016-0.97-4.467c0,0-0.404-1.728,1.245-3.529c1.651-1.801,6.165,0.105,6.165,0.105
			c1.726-0.241,0.251-1.478,0.251-1.478s-0.733-1.729-0.725-3.948c0.008-2.218,1.485-1.72,2.966-1.961
			c1.48-0.24,4.438,0.017,5.67,0.021c1.233,0.005,2.476-2.702,2.483-4.675c0.008-1.972-2.957-0.504-5.422-0.267
			c-2.467,0.237-4.933,0.475-5.923,1.703c-0.99,1.23-2.958-0.011-4.437-0.263c-1.478-0.252,0.064-5.412,0.085-10.835
			s1.241-2.214,3.221-4.179c1.98-1.964,1.457-5.923,3.443-9.367c1.985-3.444-0.976-2.715-3.933-2.974
			c-2.958-0.258-4.206,3.929-4.223,8.364c-0.017,4.436-2.473,1.966-5.942,6.637c-3.469,4.67-1.508,7.391-1.802,10.101
			c-0.294,2.711,1.019,1.484,1.998,3.212c0.979,1.729-0.251,1.233-2.029,4.923c-1.777,3.691-2.935,3.687-3.196,7.63
			c-0.262,3.944-0.746,1.723-3.215,2.7c-2.469,0.978-0.746,1.724-2.968,2.454c-2.222,0.731-3.89-14.313-6.848-14.572
			c-2.958-0.257-1.49,2.954-6.675,4.906c-5.185,1.954-4.146-11.849-4.134-15.301c0.013-3.451,2.735-5.906,8.175-10.077
			c5.438-4.171,4.473-9.598,11.171-20.42c6.697-10.822,12.871-13.511,19.298-18.17c6.428-4.66,15.773,1.539,15.773,1.539
			s3.198,1.491,7.869,5.208c4.67,3.716,7.137,3.231,10.334,5.463c3.197,2.231,3.925,4.699,5.638,8.157
			c1.713,3.458-3.469,4.917-5.691,5.648c-2.223,0.732-3.691-1.985-8.861-3.731c-5.171-1.745-1.238,1.228-0.258,3.204
			c0.979,1.976,0.973,3.455,0.959,7.153s1.709,4.444,4.667,4.455c2.958,0.011-0.728-3.208,0.761-5.667s4.191,0.016,6.404,1.75
			c2.211,1.735,1.291-1.208,1.242-2.707c-0.221-6.822,7.674-8.354,7.674-8.354c2.717-1.222-0.732-1.975-1.463-4.197
			c-0.73-2.221,1.238-1.474,1.496-4.678c0.26-3.205,2.959,0.011,5.668,1.007c2.707,0.997-1.982,2.705-3.465,3.685
			c-1.484,0.981,0.238,2.22,3.688,2.48c3.451,0.26,2.963-1.468,2.971-3.194c0.006-1.726,3.461-2.698,5.932-4.662
			c2.475-1.963,2.719-1.223,5.678-1.705c0,0,5.676-1.704,10.359-0.947c3.246,0.525,1.967,0.993,4.682,0.757
			c2.711-0.236,0.258-2.71-1.461-4.936c-1.715-2.226-1.717-1.979-1.957-3.706s2.955,0.751,4.432,1.249
			c1.479,0.499,2.211,2.474,3.441,2.972C287.168,117.601,356.75,187.307,333.106,291.333z"/>
	</g>
	<g>
		<g>
			<path fill="#6E9659" d="M337.931,260.403c1.092,0.306,7.445,2.168,9.783,1.808c5.76-0.889,8.081-8.724,8.081-8.724
				s-10.38-4.359-14.094,3.138c-1.453,2.935-1.423,2.767-3.511,2.469l-2.347-0.694l-0.377,1.274L337.931,260.403z"/>
		</g>
	</g>
	<g>
		<g>
			<path fill="#83AF6E" d="M341.757,262.791c1.077,0.337,7.421,2.239,9.186,3.813c4.347,3.887,2.025,11.719,2.025,11.719
				s-11.08-1.997-10.111-10.31c0.379-3.252,0.314-3.092-1.598-3.983l-6.512-1.93l0.377-1.273L341.757,262.791z"/>
		</g>
		<g>
			<path fill="#83AF6E" d="M343.642,263.389c2.346,0.763,6.023,2.075,7.301,3.215c4.347,3.887,2.025,11.719,2.025,11.719"/>
		</g>
	</g>
	<g>
		
			<rect x="79.276" y="129.726" transform="matrix(0.6154 -0.7882 0.7882 0.6154 -81.5135 119.9022)" fill="#B08048" width="5.685" height="27.52"/>
		
			<rect x="79.822" y="130.845" transform="matrix(0.6155 -0.7881 0.7881 0.6155 -82.7289 119.623)" fill="#905F37" width="2.844" height="27.52"/>
		
			<path fill="#83AF6E" stroke="#83AF6E" stroke-width="0.0544" stroke-linecap="round" stroke-linejoin="round" stroke-miterlimit="10" d="
			M71.507,98.985c-5.861-4.577-14.322-3.536-18.899,2.325c-0.867,1.111-1.532,2.315-2,3.567c-5.817-3.97-13.795-2.791-18.19,2.838
			c-4.577,5.861-3.536,14.323,2.325,18.899c1.186,0.926,2.48,1.619,3.826,2.091c-4.522,5.859-3.47,14.276,2.371,18.837
			c5.86,4.578,14.322,3.536,18.898-2.325c1.534-1.964,2.434-4.221,2.735-6.525c4.253,0.236,8.549-1.542,11.37-5.154
			c3.78-4.842,3.725-11.456,0.287-16.191C78.341,111.517,77.192,103.423,71.507,98.985z"/>
		
			<path fill="#6E9659" stroke="#6E9659" stroke-width="0.0544" stroke-linecap="round" stroke-linejoin="round" stroke-miterlimit="10" d="
			M32.417,107.715c-4.577,5.861-3.536,14.323,2.325,18.899c1.186,0.926,2.48,1.619,3.826,2.091
			c-4.522,5.859-3.47,14.276,2.371,18.837c5.86,4.578,14.322,3.536,18.898-2.325c1.534-1.964,2.434-4.221,2.735-6.525
			c3.36,0.187,6.746-0.884,9.41-3.122c0,0-37.696-29.436-37.922-29.613C33.325,106.489,32.417,107.715,32.417,107.715z"/>
	</g>
	<g>
		
			<rect x="327.695" y="293.484" transform="matrix(-0.515 0.8572 -0.8572 -0.515 760.736 178.2621)" fill="#B08048" width="4.486" height="21.716"/>
		
			<rect x="329.393" y="292.522" transform="matrix(-0.5153 0.857 -0.857 -0.5153 760.8336 176.4714)" fill="#905F37" width="2.244" height="21.716"/>
		
			<path fill="#83AF6E" stroke="#83AF6E" stroke-width="0.0429" stroke-linecap="round" stroke-linejoin="round" stroke-miterlimit="10" d="
			M342.522,338.179c5.031,3.021,11.559,1.394,14.58-3.637c0.574-0.953,0.979-1.96,1.225-2.986c4.938,2.549,11.072,0.859,13.977-3.97
			c3.021-5.033,1.393-11.559-3.637-14.58c-1.02-0.612-2.1-1.031-3.199-1.271c2.98-5.024,1.348-11.516-3.664-14.527
			c-5.031-3.022-11.559-1.394-14.58,3.636c-1.012,1.687-1.5,3.54-1.516,5.374c-3.354,0.223-6.549,2.029-8.412,5.128
			c-2.494,4.157-1.814,9.332,1.332,12.711C335.965,329.018,337.643,335.249,342.522,338.179z"/>
		
			<path fill="#6E9659" stroke="#6E9659" stroke-width="0.0429" stroke-linecap="round" stroke-linejoin="round" stroke-miterlimit="10" d="
			M372.303,327.586c3.021-5.033,1.393-11.559-3.637-14.58c-1.02-0.612-2.1-1.031-3.199-1.271c2.98-5.024,1.348-11.516-3.664-14.527
			c-5.031-3.022-11.559-1.394-14.58,3.636c-1.012,1.687-1.5,3.54-1.516,5.374c-2.648,0.177-5.197,1.341-7.07,3.35
			c0,0,32.352,19.434,32.547,19.552C371.709,328.632,372.303,327.586,372.303,327.586z"/>
	</g>
	<g>
		<g>
			
				<rect x="50.303" y="259" transform="matrix(-0.3224 -0.9466 0.9466 -0.3224 -190.4102 419.4979)" fill="#905F36" width="9.275" height="37.801"/>
			
				<rect x="53.369" y="261.195" transform="matrix(-0.3225 -0.9466 0.9466 -0.3225 -191.4763 423.1483)" fill="#804E29" width="4.639" height="37.801"/>
		</g>
		<polygon fill="#83AF6E" stroke="#83AF6E" stroke-width="0.1822" stroke-miterlimit="10" points="23.352,268.127 35.747,304.507 
			5.663,294.455 		"/>
		
			<polygon fill="#6E9659" stroke="#46A260" stroke-width="0.2054" stroke-linecap="round" stroke-linejoin="round" stroke-miterlimit="10" points="
			35.747,304.507 5.663,294.455 29.55,286.316 		"/>
		<polygon fill="#83AF6E" stroke="#83AF6E" stroke-width="0.2252" stroke-miterlimit="10" points="32.94,260.149 48.21,304.973 
			10.973,292.644 		"/>
		
			<polygon fill="#6E9659" stroke="#46A260" stroke-width="0.2538" stroke-linecap="round" stroke-linejoin="round" stroke-miterlimit="10" points="
			48.21,304.973 10.973,292.644 40.575,282.559 		"/>
		<polygon fill="#83AF6E" stroke="#83AF6E" stroke-width="0.2624" stroke-miterlimit="10" points="42.407,252.441 60.412,305.3 
			17.311,290.486 		"/>
		
			<polygon fill="#6E9659" stroke="#46A260" stroke-width="0.2957" stroke-linecap="round" stroke-linejoin="round" stroke-miterlimit="10" points="
			60.412,305.3 17.311,290.486 51.409,278.87 		"/>
		<polygon fill="#83AF6E" stroke="#83AF6E" stroke-width="0.2898" stroke-miterlimit="10" points="51.796,246.169 71.68,304.536 
			24.088,288.178 		"/>
		
			<polygon fill="#6E9659" stroke="#46A260" stroke-width="0.3266" stroke-linecap="round" stroke-linejoin="round" stroke-miterlimit="10" points="
			71.68,304.536 24.088,288.178 61.739,275.352 		"/>
		<polygon fill="#83AF6E" stroke="#83AF6E" stroke-width="0.1435" stroke-miterlimit="10" points="13.74,276.523 24.246,304.405 
			0.113,297.58 		"/>
		
			<polygon fill="#6E9659" stroke="#46A260" stroke-width="0.1617" stroke-linecap="round" stroke-linejoin="round" stroke-miterlimit="10" points="
			24.246,304.405 0.113,297.58 18.993,290.464 		"/>
	</g>
	<g>
		<g>
			
				<rect x="88.995" y="31.667" transform="matrix(0.8781 -0.4784 0.4784 0.8781 -21.3181 65.4754)" fill="#EEE1CD" stroke="#EEE1CD" stroke-width="0.2766" stroke-miterlimit="10" width="57.722" height="85.828"/>
			
				<rect x="90.753" y="38.571" transform="matrix(0.8781 -0.4785 0.4785 0.8781 -26.166 60.2571)" opacity="0.33" fill="#CABB9D" stroke="#CABB9D" stroke-width="0.1956" stroke-miterlimit="10" width="28.861" height="85.828"/>
		</g>
		
			<rect x="62.202" y="12.317" transform="matrix(0.8781 -0.4784 0.4784 0.8781 -1.0556 46.6643)" fill="#796955" stroke="#796955" stroke-width="0.1528" stroke-miterlimit="10" width="57.723" height="26.175"/>
		<path fill="#A38977" stroke="#A38977" stroke-width="0.1741" stroke-miterlimit="10" d="M113.16,108.512"/>
		<path fill="#C5E0E9" d="M108.296,90.433"/>
		<path fill="#A38977" stroke="#A38977" stroke-width="0.1741" stroke-miterlimit="10" d="M116.592,106.555"/>
		<path fill="#A38977" stroke="#A38977" stroke-width="0.1741" stroke-miterlimit="10" d="M125.519,101.779"/>
		<path fill="#C5E0E9" d="M120.654,83.7"/>
		<path fill="#A38977" stroke="#A38977" stroke-width="0.1741" stroke-miterlimit="10" d="M128.95,99.821"/>
		<g>
			
				<rect x="100.136" y="81.354" transform="matrix(0.8781 -0.4785 0.4785 0.8781 -27.747 59.1607)" fill="#867263" width="4.191" height="5.362"/>
			
				<rect x="97.105" y="75.791" transform="matrix(0.8781 -0.4784 0.4784 0.8781 -25.4521 57.0192)" fill="#867263" width="4.191" height="5.361"/>
			
				<rect x="101.68" y="73.298" transform="matrix(0.8781 -0.4785 0.4785 0.8781 -23.7039 58.917)" fill="#867263" width="4.191" height="5.361"/>
			
				<rect x="104.711" y="78.862" transform="matrix(0.8782 -0.4783 0.4783 0.8782 -25.9936 61.0249)" fill="#867263" width="4.191" height="5.362"/>
		</g>
		
			<rect x="113.869" y="73.872" transform="matrix(0.8781 -0.4784 0.4784 0.8781 -22.4919 64.8053)" fill="#867263" width="4.191" height="5.362"/>
		
			<rect x="110.838" y="68.309" transform="matrix(0.8781 -0.4784 0.4784 0.8781 -20.1993 62.677)" fill="#867263" width="4.191" height="5.361"/>
		
			<rect x="115.412" y="65.817" transform="matrix(0.8782 -0.4784 0.4784 0.8782 -18.4497 64.5554)" fill="#A38977" width="4.19" height="5.361"/>
		
			<rect x="118.443" y="71.38" transform="matrix(0.8781 -0.4785 0.4785 0.8781 -20.7429 66.7043)" fill="#A38977" width="4.191" height="5.363"/>
		<g>
			
				<rect x="127.601" y="66.39" transform="matrix(0.8782 -0.4783 0.4783 0.8782 -17.2395 70.4547)" fill="#A38977" width="4.191" height="5.363"/>
			
				<rect x="124.57" y="60.826" transform="matrix(0.8781 -0.4784 0.4784 0.8781 -14.9464 68.3414)" fill="#A38977" width="4.192" height="5.362"/>
			
				<rect x="129.145" y="58.335" transform="matrix(0.8781 -0.4785 0.4785 0.8781 -13.1962 70.2355)" fill="#A38977" width="4.19" height="5.361"/>
			
				<rect x="132.176" y="63.898" transform="matrix(0.8781 -0.4784 0.4784 0.8781 -15.4891 72.356)" fill="#A38977" width="4.19" height="5.363"/>
		</g>
		<g>
			
				<rect x="89.666" y="62.134" transform="matrix(0.8781 -0.4785 0.4785 0.8781 -19.828 51.8138)" fill="#867263" width="4.191" height="5.363"/>
			
				<rect x="86.634" y="56.571" transform="matrix(0.8781 -0.4784 0.4784 0.8781 -17.5336 49.6677)" fill="#867263" width="4.191" height="5.362"/>
			
				<rect x="91.209" y="54.079" transform="matrix(0.8781 -0.4784 0.4784 0.8781 -15.7841 51.5586)" fill="#867263" width="4.19" height="5.361"/>
			
				<rect x="94.24" y="59.642" transform="matrix(0.878 -0.4786 0.4786 0.878 -18.0781 53.7053)" fill="#867263" width="4.19" height="5.363"/>
		</g>
		
			<rect x="103.398" y="54.653" transform="matrix(0.8781 -0.4784 0.4784 0.8781 -14.5732 57.4539)" fill="#867263" width="4.191" height="5.362"/>
		
			<rect x="100.366" y="49.089" transform="matrix(0.8781 -0.4784 0.4784 0.8781 -12.2809 55.3256)" fill="#867263" width="4.191" height="5.361"/>
		
			<rect x="104.941" y="46.597" transform="matrix(0.8781 -0.4784 0.4784 0.8781 -10.5312 57.2104)" fill="#A38977" width="4.191" height="5.362"/>
		
			<rect x="107.973" y="52.161" transform="matrix(0.8781 -0.4785 0.4785 0.8781 -12.8232 59.3523)" fill="#A38977" width="4.19" height="5.362"/>
		<g>
			
				<rect x="117.13" y="47.172" transform="matrix(0.8781 -0.4784 0.4784 0.8781 -9.3203 63.1188)" fill="#A38977" width="4.19" height="5.362"/>
			
				<rect x="114.099" y="41.608" transform="matrix(0.8782 -0.4783 0.4783 0.8782 -7.0301 60.9707)" fill="#A38977" width="4.191" height="5.361"/>
			
				<rect x="118.673" y="39.115" transform="matrix(0.8781 -0.4784 0.4784 0.8781 -5.2775 62.875)" fill="#A38977" width="4.19" height="5.361"/>
			
				<rect x="121.705" y="44.679" transform="matrix(0.8781 -0.4785 0.4785 0.8781 -7.5692 65.0109)" fill="#A38977" width="4.19" height="5.362"/>
		</g>
		<g>
			
				<rect x="110.608" y="100.574" transform="matrix(0.8781 -0.4785 0.4785 0.8781 -35.669 66.5225)" fill="#867263" width="4.191" height="5.362"/>
			
				<rect x="107.576" y="95.009" transform="matrix(0.8781 -0.4784 0.4784 0.8781 -33.3724 64.3784)" fill="#867263" width="4.19" height="5.363"/>
			
				<rect x="112.151" y="92.517" transform="matrix(0.8781 -0.4785 0.4785 0.8781 -31.6236 66.2704)" fill="#867263" width="4.191" height="5.362"/>
			
				<rect x="115.183" y="98.082" transform="matrix(0.8782 -0.4783 0.4783 0.8782 -33.9115 68.3756)" fill="#867263" width="4.191" height="5.362"/>
		</g>
		
			<rect x="124.341" y="93.093" transform="matrix(0.8781 -0.4784 0.4784 0.8781 -30.4122 72.1658)" fill="#867263" width="4.19" height="5.362"/>
		
			<rect x="121.309" y="87.528" transform="matrix(0.878 -0.4786 0.4786 0.878 -28.1224 70.0608)" fill="#867263" width="4.19" height="5.362"/>
		
			<rect x="125.883" y="85.035" transform="matrix(0.8781 -0.4785 0.4785 0.8781 -26.3701 71.9301)" fill="#A38977" width="4.19" height="5.363"/>
		
			<rect x="128.915" y="90.6" transform="matrix(0.8781 -0.4785 0.4785 0.8781 -28.6629 74.0579)" fill="#A38977" width="4.191" height="5.362"/>
		
			<rect x="141.946" y="83.297" transform="matrix(0.8781 -0.4784 0.4784 0.8781 -27.4528 81.7072)" fill="#A38977" width="9.4" height="22.88"/>
		
			<rect x="135.041" y="80.046" transform="matrix(0.8781 -0.4784 0.4784 0.8781 -22.8658 75.6937)" fill="#A38977" width="4.192" height="5.362"/>
		
			<rect x="139.616" y="77.554" transform="matrix(0.8781 -0.4784 0.4784 0.8781 -21.1159 77.5724)" fill="#A38977" width="4.19" height="5.362"/>
		
			<rect x="63.961" y="19.221" transform="matrix(0.8781 -0.4784 0.4784 0.8781 -5.9034 41.4419)" fill="#604D40" stroke="#604D40" stroke-width="0.108" stroke-miterlimit="10" width="28.862" height="26.175"/>
		
			<rect x="73.053" y="10.989" transform="matrix(0.8781 -0.4785 0.4785 0.8781 0.5289 39.1721)" fill="#796955" stroke="#796955" stroke-width="0.1528" stroke-miterlimit="10" width="8.182" height="15.118"/>
		
			<rect x="142.232" y="84.422" transform="matrix(0.8781 -0.4784 0.4784 0.8781 -28.2417 80.8497)" fill="#867263" width="4.699" height="22.88"/>
	</g>
	<g>
		<polygon fill="#ECECED" stroke="#ECECED" stroke-width="0.348" stroke-miterlimit="10" points="237.59,364.768 291.725,338.067 
			306.392,367.807 288.776,400.319 252.256,394.511 		"/>
		<polygon opacity="0.7" fill="#D9DADB" stroke="#D9DADB" stroke-width="0.348" stroke-miterlimit="10" points="264.656,351.42 
			291.725,338.067 306.392,367.807 288.776,400.319 		"/>
		<g>
			
				<rect x="287.826" y="353.141" transform="matrix(-0.8967 0.4427 -0.4427 -0.8967 708.2644 547.2047)" fill="#868789" stroke="#868789" stroke-width="0.2827" stroke-linecap="round" stroke-linejoin="round" stroke-miterlimit="10" width="4.881" height="6.25"/>
			
				<rect x="291.091" y="359.763" transform="matrix(-0.8967 0.4426 -0.4426 -0.8967 717.3539 558.3951)" fill="#868789" stroke="#868789" stroke-width="0.2827" stroke-linecap="round" stroke-linejoin="round" stroke-miterlimit="10" width="4.881" height="6.249"/>
			
				<rect x="285.644" y="362.448" transform="matrix(-0.8967 0.4426 -0.4426 -0.8967 708.2324 565.8577)" fill="#868789" stroke="#868789" stroke-width="0.2827" stroke-linecap="round" stroke-linejoin="round" stroke-miterlimit="10" width="4.884" height="6.249"/>
			
				<rect x="282.376" y="355.827" transform="matrix(-0.8967 0.4426 -0.4426 -0.8967 699.088 554.7814)" fill="#868789" stroke="#868789" stroke-width="0.2827" stroke-linecap="round" stroke-linejoin="round" stroke-miterlimit="10" width="4.888" height="6.248"/>
		</g>
		<g>
			
				<rect x="271.72" y="361.085" transform="matrix(-0.8967 0.4426 -0.4426 -0.8967 681.1968 569.4781)" fill="#868789" stroke="#868789" stroke-width="0.2827" stroke-linecap="round" stroke-linejoin="round" stroke-miterlimit="10" width="4.881" height="6.252"/>
			
				<rect x="274.984" y="367.708" transform="matrix(-0.8967 0.4426 -0.4426 -0.8967 690.338 580.5533)" fill="#868789" stroke="#868789" stroke-width="0.2827" stroke-linecap="round" stroke-linejoin="round" stroke-miterlimit="10" width="4.882" height="6.247"/>
			
				<rect x="269.541" y="370.394" transform="matrix(-0.8967 0.4427 -0.4427 -0.8967 681.2223 588.0239)" fill="#9C9C9E" stroke="#9C9C9E" stroke-width="0.2827" stroke-linecap="round" stroke-linejoin="round" stroke-miterlimit="10" width="4.881" height="6.249"/>
			
				<polygon fill="#9C9C9E" stroke="#9C9C9E" stroke-width="0.2827" stroke-linecap="round" stroke-linejoin="round" stroke-miterlimit="10" points="
				265.142,365.175 269.521,363.013 272.282,368.619 267.906,370.779 			"/>
		</g>
		
			<polygon fill="#9C9C9E" stroke="#9C9C9E" stroke-width="0.2827" stroke-linecap="round" stroke-linejoin="round" stroke-miterlimit="10" points="
			244.648,361.285 254.472,356.443 266.058,379.925 256.232,384.769 		"/>
		
			<polygon fill="#868789" stroke="#868789" stroke-width="0.2827" stroke-linecap="round" stroke-linejoin="round" stroke-miterlimit="10" points="
			249.559,358.863 254.472,356.443 266.058,379.925 261.144,382.344 		"/>
		
			<polyline fill="none" stroke="#5A595B" stroke-width="3.0805" stroke-linecap="round" stroke-linejoin="round" stroke-miterlimit="10" points="
			307.205,366.117 288.776,400.319 250.106,394.276 		"/>
		<g>
			<path fill="#9C9C9E" d="M278.325,389.71c-1.101-2.232-0.186-4.935,2.047-6.036c2.234-1.102,4.935-0.181,6.037,2.05
				c1.102,2.23,0.181,4.933-2.05,6.032C282.127,392.861,279.427,391.943,278.325,389.71z"/>
			<path fill="#868789" d="M280.372,383.674c2.234-1.102,4.935-0.181,6.037,2.05c1.102,2.23,0.181,4.933-2.05,6.032L280.372,383.674
				z"/>
		</g>
		
			<polygon fill="#5A595B" stroke="#5A595B" stroke-width="0.6846" stroke-linecap="round" stroke-linejoin="round" stroke-miterlimit="10" points="
			296.506,385.767 301.042,377.673 305.691,387.092 298.828,390.481 		"/>
	</g>
	<g>
		
			<rect x="338.107" y="168.273" transform="matrix(0.1979 0.9802 -0.9802 0.1979 486.1803 -198.706)" fill="#F29F95" stroke="#F29F95" stroke-width="0.155" stroke-miterlimit="10" width="52.795" height="58.885"/>
		
			<rect x="378.7" y="177.551" transform="matrix(0.1978 0.9802 -0.9802 0.1978 510.7251 -245.0645)" fill="#796955" stroke="#796955" stroke-width="0.1397" stroke-miterlimit="10" width="52.795" height="23.94"/>
		
			<rect x="389.257" y="164.588" transform="matrix(0.1978 0.9802 -0.9802 0.1978 495.9291 -252.8486)" fill="#604D40" stroke="#604D40" stroke-width="0.1397" stroke-miterlimit="10" width="26.397" height="24.002"/>
		
			<rect x="411.106" y="172.295" transform="matrix(0.1981 0.9802 -0.9802 0.1981 508.3241 -262.9178)" fill="#796955" stroke="#796955" stroke-width="0.1397" stroke-miterlimit="10" width="7.483" height="13.828"/>
		
			<rect x="348.63" y="155.413" transform="matrix(0.1978 0.9802 -0.9802 0.1978 471.3792 -206.4461)" opacity="0.7" fill="#E5827D" stroke="#E5827D" stroke-width="0.155" stroke-miterlimit="10" width="26.397" height="58.755"/>
		<path fill="#A28878" stroke="#A28878" stroke-width="0.1593" stroke-miterlimit="10" d="M345.737,182.508"/>
		<path fill="#C5DFE9" d="M362.848,183.141"/>
		<path fill="#A28878" stroke="#A28878" stroke-width="0.1593" stroke-miterlimit="10" d="M346.52,186.036"/>
		<path fill="#A28878" stroke="#A28878" stroke-width="0.1593" stroke-miterlimit="10" d="M348.282,195.127"/>
		<path fill="#C5DFE9" d="M365.397,195.757"/>
		<path fill="#A28878" stroke="#A28878" stroke-width="0.1593" stroke-miterlimit="10" d="M349.067,198.654"/>
		<g>
			<g>
				
					<rect x="368.159" y="177.118" transform="matrix(0.1977 0.9803 -0.9803 0.1977 472.9334 -218.7037)" fill="#A04A46" width="3.833" height="4.904"/>
				
					<rect x="373.841" y="175.97" transform="matrix(0.1978 0.9803 -0.9803 0.1978 476.3469 -225.1987)" fill="#A04A46" width="3.832" height="4.904"/>
				
					<rect x="374.783" y="180.642" transform="matrix(0.1977 0.9803 -0.9803 0.1977 481.6913 -222.373)" fill="#A04A46" width="3.833" height="4.902"/>
				
					<rect x="369.103" y="181.787" transform="matrix(0.1977 0.9803 -0.9803 0.1977 478.2678 -215.882)" fill="#A04A46" width="3.833" height="4.904"/>
			</g>
			<g>
				
					<rect x="348.536" y="181.079" transform="matrix(0.1977 0.9803 -0.9803 0.1977 461.0632 -196.293)" fill="#A04A46" width="3.833" height="4.903"/>
				
					<rect x="354.218" y="179.931" transform="matrix(0.1977 0.9803 -0.9803 0.1977 464.5066 -202.7801)" fill="#A04A46" width="3.833" height="4.903"/>
				
					<rect x="355.161" y="184.602" transform="matrix(0.1977 0.9803 -0.9803 0.1977 469.8419 -199.9576)" fill="#A04A46" width="3.833" height="4.904"/>
				
					<rect x="349.479" y="185.748" transform="matrix(0.1982 0.9802 -0.9802 0.1982 466.217 -193.5255)" fill="#A04A46" width="3.833" height="4.905"/>
			</g>
		</g>
		
			<rect x="370.991" y="191.137" transform="matrix(0.1978 0.9802 -0.9802 0.1978 488.9175 -210.2395)" fill="#A04A46" width="3.832" height="4.906"/>
		
			<rect x="376.671" y="189.99" transform="matrix(0.1982 0.9802 -0.9802 0.1982 492.1565 -216.7818)" fill="#A04A46" width="3.832" height="4.906"/>
		
			<rect x="377.613" y="194.662" transform="matrix(0.1972 0.9804 -0.9804 0.1972 497.9201 -213.8362)" fill="#B46057" width="3.833" height="4.902"/>
		
			<rect x="371.933" y="195.807" transform="matrix(0.1977 0.9803 -0.9803 0.1977 494.2717 -207.4109)" fill="#B46057" width="3.833" height="4.904"/>
		
			<rect x="351.367" y="195.099" transform="matrix(0.1978 0.9803 -0.9803 0.1978 477.0675 -187.8223)" fill="#A04A46" width="3.832" height="4.904"/>
		
			<rect x="357.049" y="193.951" transform="matrix(0.1978 0.9803 -0.9803 0.1978 480.5022 -194.3126)" fill="#A04A46" width="3.832" height="4.905"/>
		
			<rect x="357.991" y="198.622" transform="matrix(0.1977 0.9803 -0.9803 0.1977 485.8557 -191.4837)" fill="#B46057" width="3.833" height="4.904"/>
		
			<rect x="352.309" y="199.768" transform="matrix(0.1982 0.9802 -0.9802 0.1982 482.2281 -185.0581)" fill="#B46057" width="3.833" height="4.906"/>
		<g>
			<g>
				
					<rect x="373.82" y="205.157" transform="matrix(0.1977 0.9803 -0.9803 0.1977 504.9626 -201.7562)" fill="#B46057" width="3.833" height="4.906"/>
				
					<rect x="379.501" y="204.01" transform="matrix(0.1982 0.9802 -0.9802 0.1982 508.1992 -208.3051)" fill="#B46057" width="3.834" height="4.905"/>
				
					<rect x="380.443" y="208.682" transform="matrix(0.1982 0.9802 -0.9802 0.1982 513.5221 -205.4873)" fill="#B46057" width="3.833" height="4.904"/>
				
					<rect x="374.762" y="209.829" transform="matrix(0.1977 0.9803 -0.9803 0.1977 510.3073 -198.9296)" fill="#B46057" width="3.833" height="4.904"/>
			</g>
			
				<rect x="359.878" y="207.972" transform="matrix(0.1977 0.9803 -0.9803 0.1977 496.5349 -185.8317)" fill="#B46057" width="3.833" height="4.904"/>
			
				<rect x="360.821" y="212.644" transform="matrix(0.1977 0.9803 -0.9803 0.1977 501.8594 -183.0117)" fill="#B46057" width="3.833" height="4.902"/>
			
				<rect x="354.196" y="209.119" transform="matrix(0.1977 0.9803 -0.9803 0.1977 493.1007 -179.3421)" fill="#B46057" width="3.833" height="4.904"/>
			
				<rect x="355.139" y="213.788" transform="matrix(0.1982 0.9802 -0.9802 0.1982 498.2396 -176.5904)" fill="#B46057" width="3.833" height="4.906"/>
		</g>
	</g>
	<g>
		<g>
			<g>
				<path fill="#83AF6E" d="M66.447,211.883c-0.998-0.258-6.844-1.685-8.521-3.036c-4.128-3.323-2.386-10.542-2.386-10.542
					s10.15,1.294,9.662,8.887c-0.195,2.97-0.143,2.824,1.635,3.542l2.164,0.521l-0.284,1.175L66.447,211.883z"/>
			</g>
		</g>
		<g>
			<g>
				<path fill="#6E9659" d="M62.35,212.02c-1-0.228-6.859-1.621-8.966-1.184c-5.189,1.078-6.93,8.299-6.93,8.299
					s9.629,3.475,12.651-3.508c1.183-2.731,1.163-2.576,3.072-2.408l6.002,1.448l0.283-1.174L62.35,212.02z"/>
			</g>
			<g>
				<path fill="#6E9659" d="M60.594,211.63c-2.191-0.466-5.684-1.111-7.209-0.795c-5.189,1.078-6.93,8.299-6.93,8.299"/>
			</g>
		</g>
		<path fill="#B888BC" d="M38.581,199.57l7.331,1.795c3.269,0.801,5.352,3.768,4.651,6.626l0,0
			c-0.701,2.858-3.918,4.526-7.188,3.725l-7.33-1.795l5.221-4.207L38.581,199.57z"/>
		<path fill="#AB80B8" d="M50.563,207.992L50.563,207.992c-0.701,2.858-3.918,4.526-7.188,3.725l-7.33-1.795l5.221-4.207
			L50.563,207.992z"/>
	</g>
	<g>
		<g>
			<g>
				<path fill="#83AF6E" d="M317.665,155.077c0.849-0.566,5.765-3.938,7.869-4.283c5.178-0.851,9.355,5.204,9.355,5.204
					s-7.662,6.636-12.941,1.259c-2.064-2.105-1.99-1.97-3.696-1.133l-1.812,1.253l-0.68-0.986L317.665,155.077z"/>
			</g>
		</g>
		<g>
			<g>
				<path fill="#6E9659" d="M320.271,151.963c0.828-0.589,5.725-3.992,6.795-5.835c2.632-4.541-1.545-10.596-1.545-10.596
					s-8.926,4.81-5.769,11.654c1.232,2.677,1.132,2.559-0.253,3.857l-5.034,3.473l0.679,0.984L320.271,151.963z"/>
			</g>
			<g>
				<path fill="#6E9659" d="M321.717,150.923c1.791-1.309,4.573-3.46,5.349-4.795c2.632-4.541-1.545-10.596-1.545-10.596"/>
			</g>
		</g>
		<path fill="#EE756E" d="M345.159,142.646l-6.167,4.223c-2.751,1.883-6.316,1.46-7.963-0.944l0,0
			c-1.646-2.405-0.752-5.881,1.999-7.765l6.166-4.223l-0.343,6.632L345.159,142.646z"/>
		<path fill="#EB5D5B" d="M331.029,145.925L331.029,145.925c-1.646-2.405-0.752-5.881,1.999-7.765l6.166-4.223l-0.343,6.632
			L331.029,145.925z"/>
	</g>
	<g>
		<g>
			<g>
				<circle fill="#FFFFFF" stroke="#1B181C" stroke-width="3.3262" stroke-miterlimit="10" cx="242.527" cy="94.983" r="4.891"/>
			</g>
			<g>
				<circle fill="#FFFFFF" stroke="#1B181C" stroke-width="3.3262" stroke-miterlimit="10" cx="286.42" cy="116.747" r="4.892"/>
			</g>
			<g>
				<path fill="#34495D" d="M301.051,123.143c0,0.001-0.004-0.001-0.005-0.003l-6.916-3.429c-0.234-0.117-0.345-0.39-0.261-0.639
					c1.294-3.736-0.402-7.88-3.948-9.637c-3.546-1.758-7.872-0.602-10.062,2.69c-0.145,0.219-0.431,0.295-0.665,0.179
					l-28.855-14.307c-0.233-0.116-0.347-0.391-0.261-0.638c1.296-3.735-0.403-7.881-3.948-9.638
					c-3.547-1.759-7.873-0.602-10.063,2.69c-0.146,0.219-0.431,0.296-0.666,0.179l-4.744-2.353c-0.257-0.127-0.363-0.44-0.235-0.699
					l5.918-11.935c0.047-0.097,0.125-0.177,0.221-0.229l13.319-7.146c0.148-0.08,0.329-0.083,0.479-0.008l28.432,14.097
					c0.072,0.037,0.136,0.09,0.186,0.154c3.145,4.181,9.307,14.678,9.909,15.709c1.254,1.032,14.892,12.273,16.019,13.647
					c0.109,0.134,0.146,0.312,0.097,0.476c-1.698,5.884-2.996,9.843-3.197,10.45c-0.01,0.052-0.024,0.103-0.049,0.152
					C301.625,123.166,301.311,123.271,301.051,123.143z"/>
				<path fill="#EDF7FB" d="M243.305,77.98l7.822-6.574l26.118,12.949c3.286,4.503,8.021,14.354,8.084,14.462L243.305,77.98z"/>
				
					<path fill="none" stroke="#319859" stroke-width="1.7518" stroke-linecap="round" stroke-linejoin="round" stroke-miterlimit="10" d="
					M248.03,81.856"/>
				<g>
					<g>
						<polygon fill="#FFFFFF" points="300.119,114.352 303.791,116.172 304.556,113.674 301.263,112.041 						"/>
						<path fill="#FFFFFF" d="M303.79,116.6l-3.842-1.905c-0.189-0.094-0.267-0.323-0.173-0.513l1.145-2.31
							c0.095-0.19,0.325-0.267,0.514-0.173l3.294,1.633L303.79,116.6z"/>
					</g>
				</g>
				<polygon fill="#DEEAEF" points="284.87,98.589 243.305,77.98 251.127,71.406 				"/>
				<polygon fill="#F19304" points="236.438,83.081 233.384,81.566 234.802,78.708 236.152,79.377 				"/>
				<g>
					
						<rect x="268.533" y="80.135" transform="matrix(-0.8961 -0.4439 0.4439 -0.8961 472.2002 281.5812)" fill="#34495D" width="1.052" height="10.772"/>
				</g>
				<g>
					
						<rect x="251.003" y="71.442" transform="matrix(-0.8959 -0.4442 0.4442 -0.8959 442.7457 257.3985)" fill="#34495D" width="1.051" height="10.772"/>
				</g>
				<path opacity="0.5" fill="none" stroke="#233241" stroke-width="1.0511" stroke-linejoin="round" stroke-miterlimit="10" d="
					M285.588,97.195l-6.162,12.426l-26.543-13.16c0.722-4.424-1.506-8.936-5.641-10.986l2.206-4.448"/>
				<g opacity="0.5">
					
						<line fill="none" stroke="#233241" stroke-width="1.0511" stroke-linejoin="round" stroke-miterlimit="10" x1="266.978" y1="89.718" x2="261.753" y2="100.257"/>
				</g>
				
					<line fill="none" stroke="#233241" stroke-width="1.0511" stroke-linecap="round" stroke-linejoin="round" stroke-miterlimit="10" x1="250.595" y1="84.636" x2="253.263" y2="85.959"/>
				
					<line fill="none" stroke="#233241" stroke-width="1.0511" stroke-linecap="round" stroke-linejoin="round" stroke-miterlimit="10" x1="267.961" y1="93.246" x2="270.63" y2="94.57"/>
				
					<circle fill="#34495D" stroke="#233241" stroke-width="0.6421" stroke-linecap="round" stroke-linejoin="round" stroke-miterlimit="10" cx="241.206" cy="81.399" r="1.93"/>
				<path fill="#233241" d="M286.569,98.292c-0.422,0.851-1.455,1.2-2.307,0.778l-2.312-1.146c-0.854-0.423-1.201-1.457-0.778-2.308
					l0,0c0.423-0.852,1.455-1.199,2.309-0.777l2.312,1.146C286.643,96.407,286.993,97.441,286.569,98.292L286.569,98.292z"/>
			</g>
		</g>
		<path fill="#C6C6C9" d="M220.861,73.68c-0.928-0.118-1.817,0.031-2.63,0.353c0.156-0.379,0.281-0.774,0.336-1.2
			c0.333-2.619-1.519-5.012-4.138-5.345c-0.589-0.075-1.162-0.025-1.705,0.104c0.001-0.01,0.004-0.021,0.005-0.031
			c0.525-4.128-2.395-7.9-6.524-8.426c-2.217-0.282-4.326,0.436-5.89,1.794c-1.252-3.315-4.247-5.848-8.008-6.327
			c-5.061-0.644-9.712,2.658-10.87,7.511c-0.596-0.244-1.229-0.422-1.898-0.507c-4.128-0.525-7.9,2.396-8.426,6.524
			c-0.525,4.128,2.396,7.901,6.524,8.426c0.474,0.061,0.94,0.069,1.399,0.043c-0.09,0.316-0.181,0.632-0.224,0.969
			c-0.459,3.61,2.096,6.91,5.706,7.369c2.257,0.287,4.391-0.603,5.787-2.191c1.005,2.891,3.569,5.118,6.812,5.522
			c3.802,0.476,7.315-1.704,8.704-5.085c0.801,1.751,2.446,3.068,4.496,3.329c2.718,0.346,5.224-1.266,6.126-3.732
			c0.806,0.796,1.854,1.358,3.067,1.513c2.93,0.373,5.609-1.701,5.982-4.631C225.866,76.731,223.791,74.053,220.861,73.68z
			 M215.164,76.813c0.067-0.02,0.128-0.053,0.194-0.076c-0.03,0.063-0.059,0.126-0.087,0.19
			C215.235,76.889,215.201,76.852,215.164,76.813z"/>
	</g>
	<g>
		<g>
			<g>
				<path fill="#BF3A29" d="M88.88,323.73c0,0,0.003-0.002,0.004,0l6.018,4.279c0.204,0.146,0.27,0.424,0.153,0.644
					c-1.785,3.336-0.804,7.505,2.279,9.698c3.085,2.192,7.348,1.749,9.91-1.033c0.172-0.184,0.452-0.212,0.656-0.067l25.106,17.849
					c0.204,0.147,0.267,0.421,0.148,0.642c-1.784,3.336-0.802,7.506,2.282,9.696c3.087,2.197,7.349,1.753,9.911-1.031
					c0.171-0.186,0.451-0.213,0.656-0.067l4.127,2.937c0.225,0.157,0.278,0.468,0.116,0.695l-7.381,10.382
					c-0.062,0.084-0.143,0.148-0.245,0.183l-13.653,4.748c-0.154,0.054-0.321,0.03-0.454-0.063l-24.736-17.587
					c-0.063-0.043-0.114-0.104-0.154-0.172c-2.34-4.422-6.584-15.264-7.001-16.326c-1.028-1.163-12.221-13.827-13.077-15.297
					c-0.087-0.143-0.09-0.318-0.024-0.464c2.491-5.303,4.312-8.847,4.594-9.393c0.014-0.046,0.041-0.09,0.065-0.138
					C88.34,323.621,88.654,323.57,88.88,323.73z"/>
				<path fill="#EDF7FB" d="M136.642,375.062l-8.377,5.036l-22.727-16.155c-2.426-4.749-5.419-14.76-5.463-14.874L136.642,375.062z"
					/>
				
					<path fill="none" stroke="#319859" stroke-width="1.6755" stroke-linecap="round" stroke-linejoin="round" stroke-miterlimit="10" d="
					M132.758,370.692"/>
				<g>
					<g>
						<polygon fill="#FFFFFF" points="88.44,332.172 85.245,329.902 84.146,332.145 87.014,334.184 						"/>
						<path fill="#FFFFFF" d="M85.311,329.499l3.346,2.378c0.164,0.115,0.198,0.347,0.081,0.508l-1.429,2.014
							c-0.115,0.165-0.343,0.206-0.509,0.086l-2.865-2.037L85.311,329.499z"/>
					</g>
				</g>
				<polygon fill="#DEEAEF" points="100.478,349.352 136.642,375.062 128.265,380.098 				"/>
				<polygon fill="#F19304" points="143.895,371.276 146.549,373.168 144.782,375.65 143.609,374.818 				"/>
				<g>
					<path fill="#FFFFFF" stroke="#1B181C" stroke-width="3.1813" stroke-miterlimit="10" d="M136.118,356.409
						c1.497-2.107,4.417-2.599,6.523-1.102c2.108,1.494,2.602,4.416,1.101,6.523c-1.494,2.105-4.416,2.598-6.522,1.104
						C135.115,361.435,134.619,358.515,136.118,356.409z"/>
				</g>
				<g>
					<path fill="#FFFFFF" stroke="#1B181C" stroke-width="3.1813" stroke-miterlimit="10" d="M97.927,329.261
						c1.497-2.107,4.418-2.603,6.522-1.104c2.107,1.495,2.601,4.414,1.103,6.522c-1.495,2.104-4.417,2.6-6.52,1.103
						C96.921,334.285,96.43,331.363,97.927,329.261z"/>
				</g>
				<g>
					
						<rect x="112.946" y="358.919" transform="matrix(0.8138 0.5811 -0.5811 0.8138 232.6826 1.8539)" fill="#BF3A29" width="1.005" height="10.305"/>
				</g>
				<g>
					
						<rect x="128.197" y="369.762" transform="matrix(0.8133 0.5818 -0.5818 0.8133 242.1668 -4.8867)" fill="#BF3A29" width="1.002" height="10.305"/>
				</g>
				<path opacity="0.5" fill="none" stroke="#A01F1D" stroke-width="1.0053" stroke-linejoin="round" stroke-miterlimit="10" d="
					M99.589,350.564l7.688-10.812l23.092,16.421c-1.344,4.066,0.079,8.662,3.679,11.219l-2.751,3.873"/>
				<g opacity="0.5">
					
						<line fill="none" stroke="#A01F1D" stroke-width="1.0053" stroke-linejoin="round" stroke-miterlimit="10" x1="116.044" y1="360.421" x2="122.562" y2="351.251"/>
				</g>
				
					<line fill="none" stroke="#A01F1D" stroke-width="1.0053" stroke-linecap="round" stroke-linejoin="round" stroke-miterlimit="10" x1="130.755" y1="367.681" x2="128.433" y2="366.031"/>
				
					<line fill="none" stroke="#A01F1D" stroke-width="1.0053" stroke-linecap="round" stroke-linejoin="round" stroke-miterlimit="10" x1="115.645" y1="356.94" x2="113.324" y2="355.289"/>
				
					<path fill="#BF3A29" stroke="#A01F1D" stroke-width="0.6141" stroke-linecap="round" stroke-linejoin="round" stroke-miterlimit="10" d="
					M137.635,371.079c0.591-0.832,1.74-1.026,2.573-0.433c0.831,0.59,1.025,1.741,0.436,2.573c-0.591,0.83-1.744,1.022-2.579,0.435
					C137.235,373.065,137.042,371.912,137.635,371.079z"/>
				<path fill="#A01F1D" d="M98.826,349.378c0.527-0.742,1.558-0.92,2.296-0.389l2.015,1.433c0.74,0.523,0.912,1.553,0.386,2.293
					l0,0c-0.525,0.741-1.557,0.918-2.299,0.391l-2.009-1.434C98.475,351.148,98.302,350.119,98.826,349.378L98.826,349.378z"/>
			</g>
			<path fill="#B1B3B3" d="M157.526,383.829c0.895,0.277,1.796,0.281,2.652,0.105c-0.219,0.347-0.409,0.714-0.537,1.124
				c-0.779,2.521,0.635,5.198,3.155,5.977c0.567,0.175,1.142,0.225,1.699,0.189c-0.004,0.01-0.009,0.021-0.012,0.03
				c-1.226,3.976,1.002,8.193,4.978,9.422c2.134,0.659,4.336,0.315,6.111-0.756c0.664,3.482,3.177,6.493,6.799,7.612
				c4.876,1.505,10.025-0.946,12-5.53c0.546,0.346,1.139,0.627,1.783,0.829c3.976,1.227,8.195-1.002,9.422-4.978
				c1.227-3.977-1-8.197-4.978-9.422c-0.455-0.144-0.914-0.23-1.371-0.287c0.144-0.294,0.288-0.591,0.388-0.915
				c1.073-3.474-0.875-7.166-4.35-8.24c-2.178-0.672-4.432-0.16-6.08,1.163c-0.494-3.02-2.637-5.654-5.761-6.611
				c-3.664-1.123-7.498,0.42-9.449,3.511c-0.488-1.86-1.882-3.443-3.855-4.051c-2.618-0.809-5.364,0.349-6.677,2.622
				c-0.658-0.924-1.592-1.657-2.761-2.019c-2.821-0.872-5.817,0.709-6.689,3.532C153.124,379.959,154.707,382.957,157.526,383.829z
				 M163.678,381.72c-0.071,0.009-0.135,0.032-0.204,0.042c0.04-0.056,0.079-0.113,0.117-0.171
				C163.622,381.636,163.647,381.679,163.678,381.72z"/>
		</g>
	</g>
</g>
</svg>
