<?xml version="1.0" encoding="utf-8"?>
<!-- Generator: Adobe Illustrator 15.0.2, SVG Export Plug-In . SVG Version: 6.00 Build 0)  -->
<!DOCTYPE svg PUBLIC "-//W3C//DTD SVG 1.1//EN" "http://www.w3.org/Graphics/SVG/1.1/DTD/svg11.dtd">
<svg version="1.1" id="Lager_1" xmlns="http://www.w3.org/2000/svg" xmlns:xlink="http://www.w3.org/1999/xlink" x="0px" y="0px" viewBox="0 0 355.263 381.676" enable-background="new 0 0 355.263 381.676"
	 xml:space="preserve">
<g>
	<circle fill="#88C2C5" cx="183.825" cy="206.531" r="128.333"/>
	<g>
		<defs>
			<circle id="SVGID_1_" cx="183.825" cy="206.531" r="128.333"/>
		</defs>
		<clipPath id="SVGID_2_">
			<use xlink:href="#SVGID_1_"  overflow="visible"/>
		</clipPath>
		
			<path clip-path="url(#SVGID_2_)" fill="#77C198" stroke="#77C198" stroke-linecap="round" stroke-linejoin="round" stroke-miterlimit="10" d="
			M147.581,167.585"/>
		<path clip-path="url(#SVGID_2_)" fill="#787F48" d="M128.27,162.491c0,0,1.15,5.587,3.123,6.573
			c1.972,0.986,4.273,1.973,3.78,3.453c-0.493,1.479,0,3.616-1.644,4.108c-1.644,0.493-3.944,1.151-5.259,1.151
			c-1.315,0-2.63-1.15-3.616,0c-0.987,1.15-2.958,3.944-3.945,2.466c-0.986-1.479-1.808-2.137,0-2.958
			c1.808-0.823,3.288-0.822,2.794-1.48c-0.493-0.657-0.657-0.164-1.315-0.985c-0.657-0.822,0.822-1.879,0.329-3.241
			c-0.493-1.362-1.973-2.841-0.986-3.005c0.986-0.165,2.137,1.478,2.302-0.329c0.164-1.808,1.15-2.465-0.494-3.78
			c-1.644-1.315-2.137,0.165-2.137-1.972s-0.495-2.466-1.562-3.617c-1.067-1.15-1.889-3.287-2.053-5.424
			c-0.165-2.136,2.794-1.479,2.794-3.451s0.163-2.959,1.807-2.63c1.645,0.329,4.602-1.439,3.616-0.062
			c-0.986,1.377-3.287,2.856-1.644,3.185s4.766-0.329,3.944,1.479c-0.821,1.808-1.91,4.602-1.695,5.423
			C126.625,158.218,128.27,162.491,128.27,162.491z"/>
		<path clip-path="url(#SVGID_2_)" fill="#787F48" d="M111.777,164.491c0.986,0,2.795-1.479,3.124,0
			c0.328,1.479,0.986,2.793,0,3.287c-0.987,0.493-1.944,1.314-1.302,2.466c0.644,1.15,1.616,2.793-0.021,3.45
			c-1.636,0.659-1.966,0.823-3.281,1.809c-1.314,0.985-2.464,1.807-3.286,1.315c-0.822-0.494-2.629,0.328-1.973-1.809
			c0.658-2.136,1.644-2.794,0.986-3.945c-0.658-1.15-2.912-1.314-1.126-2.629c1.784-1.315,2.441-0.493,3.428-1.315
			C109.312,166.298,111.777,164.491,111.777,164.491z"/>
		
			<path display="none" clip-path="url(#SVGID_2_)" fill="#77C198" stroke="#77C198" stroke-linecap="round" stroke-linejoin="round" stroke-miterlimit="10" d="
			M97.37,111.047c1.315,1.479,0.493,1.644,1.972,2.63c1.479,0.986,2.959,0.821,2.465,2.63c-0.493,1.808-2.136,5.095-3.615,5.588
			c-1.479,0.493-5.26,4.109-7.232,4.109c-1.972,0-2.465-0.164-3.944-1.15c-1.479-0.987-1.315,0.492-2.794-0.987
			c-1.479-1.479,0-0.657-0.658-2.63c-0.658-1.972-0.658-0.985-2.136-1.972c-1.479-0.986-1.314-1.644,0-1.644
			c1.315,0,2.63,0.822,1.972-0.822c-0.657-1.643-0.821-2.137-2.301-1.972c-1.479,0.164-0.658,1.644-1.479,0.164
			c-0.821-1.479-1.972-1.479,0-2.794s2.959-3.123,3.944-1.15c0.986,1.973,1.972,3.452,3.452,2.63
			c1.479-0.822,3.123-0.329,4.438-1.315c1.315-0.986,2.095-0.164,3.102-0.328C95.563,111.869,97.37,111.047,97.37,111.047z"/>
		
			<path clip-path="url(#SVGID_2_)" fill="#77C198" stroke="#77C198" stroke-linecap="round" stroke-linejoin="round" stroke-miterlimit="10" d="
			M86.03,21.884c-0.247,0.986-2.711,2.657,0,7.368c2.712,4.711,7.39,6.438,4.188,10.382c-3.202,3.944-2.894,3.452-2.185,7.396
			s7.606,1.232,2.185,7.149c-5.42,5.917-0.301,9.862-5.45,12.573c-5.148,2.712-6.134,1.48-3.915,6.903
			c2.218,5.424,4.19,10.354,2.711,11.094c-1.479,0.74-2.917,0.493-5.033,5.917c-2.116,5.424-5.321,8.382-9.759,9.615
			c-4.437,1.232-4.931-0.74-7.889,1.725c-2.958,2.465-1.726,7.396-5.178,9.615c-3.451,2.219-6.903,1.727-9.368,3.699
			s-2.465,1.479-2.958,6.41c-0.493,4.93-4.438,4.93-4.684,10.107c-0.247,5.177,2.465,8.628-1.479,9.122
			c-3.945,0.493-6.164,1.232-7.889-1.973c-1.726-3.205-1.233-1.232-5.424-7.642s-1.972-1.726-4.438-9.861
			c-2.465-8.136-5.423-9.862-3.452-15.532c1.973-5.67,6.164-10.107,5.178-13.559c-0.987-3.452,0.986-10.848-3.945-14.545
			c-4.931-3.698-6.41-0.986-6.41-8.136c0-7.15-3.944-20.956-6.903-23.174c-2.958-2.219-1.479-2.958-10.601-3.205
			c-9.122-0.246-10.601,1.479-12.82-2.219s-4.191-3.452-3.452-4.931c0.739-1.479,6.163,0,4.931-3.945
			c-1.233-3.944-12.081-9.368-10.107-10.354C-26.144,20.898,86.03,21.884,86.03,21.884z"/>
		
			<path clip-path="url(#SVGID_2_)" fill="#77C198" stroke="#77C198" stroke-linecap="round" stroke-linejoin="round" stroke-miterlimit="10" d="
			M-138.48,80.345c1.479,1.12,8.053,3.153,7.725,0s-1.291-7.098,0.012-8.413c1.304-1.314,4.919-2.63,6.891-4.93
			c1.973-2.301,7.232-7.561,2.301-7.561s-5.346,2.302-7.439,0c-2.093-2.301-6.696-2.958-6.696-2.958s-2.301-2.629-2.793,0
			S-138.48,80.345-138.48,80.345z"/>
		
			<path clip-path="url(#SVGID_2_)" fill="#77C198" stroke="#77C198" stroke-linecap="round" stroke-linejoin="round" stroke-miterlimit="10" d="
			M-90.653,90.34c-0.986-3.945-3.616-4.685-4.931-8.916c-1.315-4.232-1.644-5.547-2.301-7.848c-0.658-2.301,5.588-1.59,0-4.904
			c-5.588-3.313-2.958,1.289-6.903,2.274c-3.945,0.986-0.657,0.001-5.588-0.328c-4.931-0.329-5.26,1.314-6.246-0.329
			s0.329-5.864-4.273-1.617c-4.603,4.247-7.889,8.024-5.259,9.916c2.629,1.892,11.176-2.567,10.847,3.442
			c-0.329,6.01-1.159,6.339-4.195,6.339c-3.037,0-4.681-2.958-4.681,0c0,2.959,4.931,7.561,6.904,7.889
			c1.972,0.329,8.218,0.987,10.847,0c2.629-0.986,4.273-0.272,7.561,0.521c3.287,0.794,8.546,0.794,8.217-1.836
			C-90.981,92.313-90.653,90.34-90.653,90.34z"/>
		
			<path clip-path="url(#SVGID_2_)" fill="#77C198" stroke="#77C198" stroke-linecap="round" stroke-linejoin="round" stroke-miterlimit="10" d="
			M-81.777,63.715c-2.301-0.986-2.629-1.972-5.917,0c-3.287,1.973-1.943,2.301-2.943,6.574c-1.001,4.273,0.313,4.273,2.286,6.246
			c1.972,1.972,1.972,1.474,4.602,5.503c2.63,4.03-0.657-1.559,1.973-4.188c2.629-2.63,6.246,0.521,3.616-4.834
			C-80.791,67.659-81.777,63.715-81.777,63.715z"/>
		
			<path clip-path="url(#SVGID_2_)" fill="#77C198" stroke="#77C198" stroke-linecap="round" stroke-linejoin="round" stroke-miterlimit="10" d="
			M-54.823,62.576c-3.944,0.81-6.245,0.864-7.56,6.096c-1.315,5.233-0.658,8.909,0,11.673c0.657,2.764,0.884,5.722,3.4,6.379
			c2.516,0.658,2.845,1.644,9.748,2.63c6.903,0.986,0.751-4.93,7.936,0c7.185,4.93,18.361,10.19,15.074,16.435
			c-3.287,6.247-0.986,9.862-5.588,9.862c-4.602,0-8.875-2.026-6.903,2.438c1.973,4.464,2.301,5.122,6.246,4.464
			c3.945-0.657,10.518,8.876,14.135,9.204c3.616,0.329,8.217,3.288,5.916-1.971c-2.3-5.26,5.51-3.288,0.619-8.875
			c-4.892-5.589-6.207-9.533-1.604-7.561c4.603,1.972,8.875,6.574,9.204,0.329c0.329-6.246-3.944-6.246-4.93-9.205
			c-0.986-2.958-4.93,2.626-6.574-7.233c-1.644-9.859-6.56-10.786-12.648-16.896c-6.088-6.112-4.445-4.14-9.375-8.741
			c-4.931-4.602-6.903-9.211-11.176-4.77c-4.273,4.441-3.615,9.043-4.273,10.358s-3.616-0.465-3.944-4.177
			C-57.452,69.303-54.823,62.576-54.823,62.576z"/>
		
			<path clip-path="url(#SVGID_2_)" fill="#77C198" stroke="#77C198" stroke-linecap="round" stroke-linejoin="round" stroke-miterlimit="10" d="
			M-52.851,118.09c0,0-8.546,3.803-3.616,7.914c4.931,4.11,4.931,1.153,8.875,1.81c3.944,0.658,8.546-1.742,4.602-4.651
			c-3.944-2.909-3.642-5.072-6.751-5.072C-52.851,118.09-52.851,118.09-52.851,118.09z"/>
		
			<path clip-path="url(#SVGID_2_)" fill="#77C198" stroke="#77C198" stroke-linecap="round" stroke-linejoin="round" stroke-miterlimit="10" d="
			M-75.204,61.085c4.603-0.986,8.876-1.972,9.205,0c0.328,1.972,3.944,2.952,0,5.749c-3.945,2.798-2.629,6.278-4.931,6.181
			c-2.301-0.096-2.63,3.711-4.274,0C-76.846,69.303-75.204,61.085-75.204,61.085z"/>
		
			<path clip-path="url(#SVGID_2_)" fill="#77C198" stroke="#77C198" stroke-linecap="round" stroke-linejoin="round" stroke-miterlimit="10" d="
			M-33.663,21.446c0,0-0.122,2.823-2.095,5.453c-1.972,2.63-2.63,0.329-3.287,6.246c-0.658,5.917,7.945,10.847-2.438,10.189
			C-51.865,42.677-47.697,46.41-58,43.394c-10.301-3.018-15.231-5.646-8.986-8.277c6.246-2.63,14.792-5.917,11.833-9.204
			c-2.958-3.288,0.329-4.467,0.329-4.467H-33.663z"/>
		
			<path clip-path="url(#SVGID_2_)" fill="#77C198" stroke="#77C198" stroke-linecap="round" stroke-linejoin="round" stroke-miterlimit="10" d="
			M-49.741,47.279c1.492-0.328,8.123-0.657,8.258,3.288c0.137,3.944,2.453,4.237-4.129,4.748c-6.581,0.512-7.238-0.839-10.854,0
			c-3.615,0.84-4.602,1.372-8.875,0.12c-4.274-1.252-3.833,0.562-4.71-3.796c-0.878-4.359-2.85-6.988-3.836-8.632
			c-0.986-1.644-3.945-5.587,0-3.287c3.944,2.301,6.371,7.209,10.745,7.877C-58.768,48.265-49.741,47.279-49.741,47.279z"/>
		
			<path clip-path="url(#SVGID_2_)" fill="#77C198" stroke="#77C198" stroke-linecap="round" stroke-linejoin="round" stroke-miterlimit="10" d="
			M-82.106,42.677c-1.315-1.315-1.644-5.351-4.602-3.662s-1.972,0.909-6.246,1.627c-4.273,0.72-7.889-0.392-2.63,3.944
			c5.259,4.336,7.889,2.012,7.889,3.009c0,0.998,2.559,4.614,3.58,4.614c1.022,0,1.022,3.287,2.008,0
			C-81.12,48.923-82.106,42.677-82.106,42.677z"/>
		
			<path clip-path="url(#SVGID_2_)" fill="#77C198" stroke="#77C198" stroke-linecap="round" stroke-linejoin="round" stroke-miterlimit="10" d="
			M-102.158,44.587c-3.616-3.553-2.301-6.759-4.931-5.978c-2.629,0.781-0.919,2.096-1.775,4.397
			c-0.854,2.301,0.789,2.981-3.155,3.134c-3.945,0.153-6.09-0.856-7.482,1.456c-1.393,2.313-4.524,2.97,0,3.627
			c4.523,0.658,8.139-2.63,6.167,0c-1.973,2.63-5.917,4.647-0.658,4.954c5.26,0.306,5.588-0.388,7.889-0.863
			c2.301-0.474,7.56-3.761,5.917-6.391C-101.829,46.293-102.158,44.587-102.158,44.587z"/>
		
			<path clip-path="url(#SVGID_2_)" fill="#77C198" stroke="#77C198" stroke-linecap="round" stroke-linejoin="round" stroke-miterlimit="10" d="
			M690.038,101.515c-1.479-1.479-5.422-7.077-9.861-3.785c-4.438,3.292-7.889,9.702-12.328,3.785
			c-4.436-5.917-2.957-8.382-10.352-8.382c-7.396,0-1.48-0.493-10.355,0c-8.875,0.493-8.875,0.548-16.27-0.219
			c-7.398-0.767,0.984-0.22-10.85,0c-11.834,0.219-12.818-0.767-18.242-2.74c-5.426-1.972-4.932-2.958-11.34-4.438
			c-6.412-1.479-10.355-4.566-16.766-2.283c-6.412,2.283-13.805,5.051-14.791,9.831c-0.988,4.779-6.412,6.157,0,10.646
			c6.408,4.488,10.846,6.46,7.889,8.433c-2.961,1.973-6.41,2.58-7.398,5.728c-0.984,3.147,7.398,3.805,5.918,7.914
			c-1.48,4.108-4.93-3.17-2.959,6.879c1.973,10.049,3.451,23.855,11.836,22.375c8.381-1.479,8.381-5.133,9.859-8.484
			c1.48-3.35-10.354-3.944,4.932-5.373s21.201,1.82,25.639,5.373c4.439,3.554,26.133,20.318,27.613,25.742
			c1.479,5.423,4.93,20.037,3.945,26.29c-0.988,6.251-3.945,9.211,2.463,20.058c6.41,10.849,7.396,8.383,14.793,18.737
			c7.396,10.354,12.326,16.271,12.326,14.298s-4.438-14.298-4.438-14.298s8.383,8.874,10.354,10.847
			c1.973,1.972,8.383,12.326,8.383,12.326V101.515z"/>
		
			<path clip-path="url(#SVGID_2_)" fill="#77C198" stroke="#77C198" stroke-linecap="round" stroke-linejoin="round" stroke-miterlimit="10" d="
			M690.038,80.345c0,0,1.479-11.211-2.465-13.511c-3.945-2.299-4.438,1.25-9.861,0.461c-5.424-0.789,0,6.181-10.354-1.248
			c-10.355-7.43-7.398-7.731-14.791-6.102c-7.398,1.63-10.85,0.707-8.877,9.797c1.973,9.091-1.479,14.086,5.424,10.603
			c6.902-3.484-0.986-9.4,6.902-3.484c7.891,5.917,5.916-0.494,7.891,5.917c1.971,6.41,4.436,7.396,6.408,9.862
			c1.973,2.465-5.916,9.697,3.945,4.602c9.861-5.095,9.861-6.082,12.818-7.068C690.038,89.188,690.038,80.345,690.038,80.345z"/>
		
			<path clip-path="url(#SVGID_2_)" fill="#77C198" stroke="#77C198" stroke-linecap="round" stroke-linejoin="round" stroke-miterlimit="10" d="
			M466.186,377.138c0,0-0.988,21.697-10.355,21.203c-9.369-0.493-13.807,3.451-16.764-1.974c-2.959-5.422-4.438-9.367-6.41-10.846
			s-0.492,2.957-6.41-0.986c-5.918-3.946,0.986-9.862-8.875-7.397c-9.861,2.467-12.326,5.424-16.764,6.905
			c-4.439,1.479-2.961,3.795-10.355,3.869c-7.396,0.075-7.396,5.004-7.891-2.391c-0.492-7.397,2.961-9.368,0-15.284
			c-2.957-5.919-5.027-8.878-0.047-13.808s13.361-1.479,14.842-7.396c1.479-5.916,0.984-5.423,6.408-8.875s6.904,5.422,10.355,0
			c3.451-5.425,5.916-12.326,11.834-7.397c5.916,4.932,4.436,0,5.916,4.932c1.48,4.931,1.48,8.382,5.424,5.425
			c3.945-2.959,1.973-15.704,4.438-12.044s6.902,8.098,9.369,13.028c2.465,4.932,13.312,12.327,15.285,18.245
			C468.159,368.264,466.186,377.138,466.186,377.138z"/>
		
			<path clip-path="url(#SVGID_2_)" fill="#77C198" stroke="#77C198" stroke-linecap="round" stroke-linejoin="round" stroke-miterlimit="10" d="
			M418.522,308.603c0,0,2.424,0.329,4.664,1.972c2.24,1.646,4.211,3.946,5.525,2.63c1.316-1.313,0.988-4.54,5.26-2.105
			c4.273,2.435,6.574,2.764,9.205,4.078c2.629,1.315,4.93,0.984,5.916,3.287c0.986,2.302,4.604,4.917,6.244,6.896
			c1.645,1.98,4.602,8.139,0,5.06c-4.598-3.079-5.258-4.08-9.203-5.06c-3.943-0.978-5.1,1.965-7.973,0
			c-2.873-1.966-2.217,1.98-2.873-1.966c-0.658-3.943-0.658-5.26-4.932-5.916c-4.271-0.656-6.449-1.645-7.17-2.957
			c-0.721-1.316-4.664-0.658-4.664-3.289C418.522,308.603,418.522,308.603,418.522,308.603z"/>
		
			<path clip-path="url(#SVGID_2_)" fill="#77C198" stroke="#77C198" stroke-linecap="round" stroke-linejoin="round" stroke-miterlimit="10" d="
			M389.596,293.81c-3.945,0-6.246,0.986-7.561,2.959c-1.314,1.974-3.943,3.945-6.246,4.603c-2.301,0.656-5.26,0.33-5.26,3.616
			c0,3.287-0.656,5.258,2.303,6.574c2.957,1.314,8.545,2.301,10.518,2.301s2.301-1.974,4.273-5.26
			c1.973-3.288,3.287-2.302,1.973-5.917c-1.316-3.616-1.973-4.272-0.986-6.573C389.596,293.81,389.596,293.81,389.596,293.81z"/>
		
			<path clip-path="url(#SVGID_2_)" fill="#77C198" stroke="#77C198" stroke-linecap="round" stroke-linejoin="round" stroke-miterlimit="10" d="
			M341.11,295.784c0,0,1.646-0.82,3.289,0.822s4.271,3.121,5.258,4.271s3.451,1.645,5.424,2.959
			c1.973,1.316,2.139,2.795,4.111,5.589c1.973,2.795,5.752,2.138,5.422,4.438c-0.33,2.301,0.822,6.556-1.643,6.072
			c-2.467-0.482-4.438-1.142-5.752-2.785c-1.316-1.645-4.439-4.438-5.26-6.081c-0.822-1.644-1.316-2.957-4.273-5.588
			c-2.959-2.629-3.123-3.617-5.752-5.752C339.303,297.591,341.11,295.784,341.11,295.784z"/>
		
			<path clip-path="url(#SVGID_2_)" fill="#77C198" stroke="#77C198" stroke-linecap="round" stroke-linejoin="round" stroke-miterlimit="10" d="
			M367.571,319.972c0.494,0.465,5.918,2.272,6.412,2.109c0.492-0.166,3.918-0.166,5.328,0.821s6.178,2.629,3.217,2.793
			c-2.959,0.165-3.943,0.328-5.916,0c-1.973-0.329-1.973-1.15-4.438-1.15s-5.258,0.002-6.082-0.655c-0.822-0.658,0-1.315,0-1.975
			C366.092,321.259,367.571,319.972,367.571,319.972z"/>
		
			<path clip-path="url(#SVGID_2_)" fill="#77C198" stroke="#77C198" stroke-linecap="round" stroke-linejoin="round" stroke-miterlimit="10" d="
			M408.991,325.887c-0.494-0.191-3.617-0.47-4.273,0c-0.658,0.466-3.123,1.125-3.287,2.111c-0.166,0.984-1.15,3.198,0,2.421
			s1.807-2.206,2.301-2.313c0.492-0.107,1.971,0.766,2.629,0C407.018,327.341,408.991,325.887,408.991,325.887z"/>
		
			<path clip-path="url(#SVGID_2_)" fill="#77C198" stroke="#77C198" stroke-linecap="round" stroke-linejoin="round" stroke-miterlimit="10" d="
			M396.5,266.2c-0.822,0-1.645,2.958-2.137,4.438c-0.496,1.479-0.988,0.821,0,2.628c0.984,1.81,2.465,2.96,3.121,2.467
			c0.656-0.494-0.162-2.301,0.656-3.451c0.824-1.15,1.809-2.959,1.15-4.275C398.637,266.693,396.5,266.2,396.5,266.2z"/>
		
			<path clip-path="url(#SVGID_2_)" fill="#77C198" stroke="#77C198" stroke-linecap="round" stroke-linejoin="round" stroke-miterlimit="10" d="
			M406.688,286.582c-2.299,0.492-1.805,1.477-3.121,1.643c-1.314,0.162-0.771-0.988-2.686,0c-1.916,0.985-1.816,2.466-1.373,2.299
			c0.443-0.162,1.428-0.63,1.922,0.015c0.492,0.646,1.15,2.778,2.301,3.272c1.15,0.495,3.779-0.655,2.957-2.299
			c-0.82-1.644,1.973-1.646,0.986-3.287C406.688,286.582,406.688,286.582,406.688,286.582z"/>
		
			<path clip-path="url(#SVGID_2_)" fill="#77C198" stroke="#77C198" stroke-linecap="round" stroke-linejoin="round" stroke-miterlimit="10" d="
			M395.678,309.753c1.479,0,0.984-1.644,2.629-1.15s3.666-0.256,2.574,0.529c-1.096,0.785-2.32,1.609-2.447,2.266
			s2.883,1.809,2.447,3.616c-0.439,1.808-1.006,2.628-2.447,2.464s-0.812-3.944-1.783-3.615c-0.973,0.33-2.123-1.643-2.123,0
			s0.162,2.506,0,3.637c-0.164,1.131-1.152,2.446-1.809,1.623c-0.656-0.822-0.656-1.316-0.656-3.121c0-1.809,0.818-1.645,0-2.795
			c-0.822-1.152,0.164-1.48,0-2.632c-0.168-1.149,1.818-3.301,1.729-2.799C393.706,308.275,395.678,309.753,395.678,309.753z"/>
		
			<path clip-path="url(#SVGID_2_)" fill="#77C198" stroke="#77C198" stroke-linecap="round" stroke-linejoin="round" stroke-miterlimit="10" d="
			M511.055,409.353c0.164-1.15,2.795-1.972,0.658-3.123c-2.139-1.15-2.631-1.644-3.619-0.987c-0.986,0.658-0.82,1.315-1.971,2.96
			c-1.15,1.644-1.971,1.809-3.287,3.125c-1.314,1.313-0.33,1.149-3.289,3.45c-2.957,2.301-3.779,2.464-3.941,3.942
			c-0.164,1.48,2.959,2.958,4.271,3.124c1.316,0.164,3.621,0.494,4.193-1.151c0.574-1.644,2.053-3.942,2.053-5.424
			c0-1.479,0.162-2.135,1.809-2.957C509.575,411.49,511.055,409.353,511.055,409.353z"/>
		
			<path clip-path="url(#SVGID_2_)" fill="#77C198" stroke="#77C198" stroke-linecap="round" stroke-linejoin="round" stroke-miterlimit="10" d="
			M517.958,395.711c-1.314-0.822-2.301-2.959-2.795-3.451c-0.49-0.493-1.619-1.922-2.617-3.015c-1-1.095-2.807-1.208-1.984,0
			c0.822,1.206,1.832,3.507,1.984,4.165c0.152,0.657,2.738,2.793,1.609,3.779c-1.129,0.987-0.775,1.525-1.609,2.078
			c-0.832,0.552-1.326,1.21-1,1.704c0.33,0.491,3.947,0.326,3.947,1.643c0,1.314-1.314,1.383-0.33,2.335
			c0.988,0.951,2.467,2.005,2.795,0c0.328-2.008-1.807-2.335,0-3.649c1.807-1.315,2.795-1.644,2.795-2.959
			c0-1.314,0.82-0.728-0.822-1.103C518.286,396.862,517.958,395.711,517.958,395.711z"/>
		<path clip-path="url(#SVGID_2_)" fill="#787F48" d="M314.129,265.855c-0.711,3.128-3.471,4.674-6.928,6.386
			s-0.014,3.698-0.021,5.426c-0.006,1.723-3.977,8.365-4.967,9.593c-0.99,1.231-3.455,0.728-4.182-2.234
			c-0.729-2.96-1.469-3.209-2.445-5.433c-0.979-2.221-3.943-13.417-4.625-16.041c-2.953-11.396-16.46-14.608-16.46-14.608
			c-4.924-1.991-4.689,1.462-7.156,1.453c-2.463-0.01-4.924-1.499-8.619-2.499c-3.693-1.001-1.471-1.978-2.943-3.215
			c-1.477-1.239-4.688-0.018-6.658-0.025c-1.973-0.007-5.902-4.214-7.123-6.686c-1.226-2.469-4.189-0.756-5.678,1.459
			c-1.487,2.214-0.01,2.466,2.691,5.68c2.698,3.216,1.476,1.238,4.416,5.687c2.939,4.451,1.971,0.502,4.434,0.511
			c2.465,0.01,3.211-1.467,5.93-3.429c2.721-1.962,1.229,1.977,2.205,3.706c0.98,1.73,1.229,1.484,4.182,2.728
			c2.955,1.245,0.24,1.481-1.25,4.927c-1.492,3.445-2.977,4.427-6.936,8.355c-3.961,3.931-5.93,3.43-10.621,5.631
			c-4.694,2.201-10.617,4.151-13.826,5.124s-1.711-3.951-1.945-7.158c-0.234-3.204-1.957-3.949-5.395-7.908
			c-3.436-3.957-3.185-5.188-5.145-8.648c-1.959-3.458-2.201-4.691-4.648-9.139c-2.449-4.447-2.947-3.215-4.673-3.222
			s-0.753,3.447,1.456,6.167c2.209,2.721,2.202,4.446,4.653,8.154c2.451,3.706,1.94,8.389,3.404,12.34
			c1.465,3.95,3.19,3.71,5.401,6.184c2.209,2.473,2.454,2.721,4.667,4.456c2.212,1.732,1.718,2.225,5.413,2.732
			c3.695,0.506,3.701-0.975,5.926-2.445c2.225-1.47,4.441-0.968,6.404,1.259c1.965,2.226-4.227,9.847-6.219,14.769
			c-1.99,4.922-15.338,13.994-19.547,18.662c-4.208,4.669,2.156,16.771,2.373,24.416l-62.379,1.49
			c0.016-4.191,1.255-5.912,3.981-9.602c2.726-3.685,0.509-4.188-0.216-8.136c-0.724-3.947-5.643-7.17-9.289-12.114
			s-0.017-4.439,0.029-7.644c0.046-3.204-0.503-6.165-1.982-6.077c-1.479,0.09-6.326-0.609-8.121-3.904
			c-1.795-3.294-3.778-0.837-8.55,0.789c0,0-3.786,1.631-9.704,1.936c-5.918,0.307-14.782-2.521-14.782-2.521
			c-3.606-2.479-10.804-11.38-12.599-15.004c-1.795-3.621-2.452-3.461-1.617-7.071c0.836-3.614,1.66-4.27,1.514-9.365
			c-0.145-5.095,1.199-12.813,3.514-16.422c2.315-3.607,8.24-5.72,10.532-7.684c2.292-1.963-0.682-6.04,3.503-9.273
			c5.184-4.004,10.371-4.399,10.371-4.399c3.545-0.103,1.89,0.008,4.932-0.393c3.042-0.398,2.583-0.868,5.518-3.184
			c2.938-2.32,9.79-2.839,15.049-2.82c5.259,0.021,8.255,11.782,8.255,11.782c1.224,2.389,1.312,0.825,4.925,1.58
			c3.613,0.752,0.982,0.908,3.85,3.22s3.775,1.329,6.157,1.666c2.382,0.339,4.536-4.255,7.168-4.654
			c2.631-0.401,4.186,1.165,8.126,2.413c3.939,1.246,4.762,1.168,7.31,1.19c2.547,0.023,2.878-0.659,5.18-1.061
			c2.303-0.401,2.051,0.912,3.777,1.082c1.725,0.171,2.387-1.305,3.545-3.192c1.158-1.885,1.498-4.84,1.915-6.565
			c0.418-1.727,0.341-2.959,0.349-5.012c0.008-2.055-1.645-0.088-3.453,0.315c-1.81,0.405-2.797,0.729-3.537,0.727
			c-0.739-0.003-1.23-0.333-2.951-1.738c-1.721-1.405-2.221,0.568-3.049,2.044c-0.827,1.476-1.805-0.829-2.214-1.324
			c-0.409-0.493-4.423-3.715-4.083-6.508c0.339-2.794-0.808-3.864-3.515-4.942c-2.708-1.079-1.89,0.074-4.692,2.2
			c-2.803,2.126,0.403,1.975,1.056,3.125c0.654,1.156,1.065,0.992,1.305,2.719c0.24,1.726-2.3-0.173-4.269-1.086
			c-1.969-0.91-2.631,0.319-3.618,0.479c-0.986,0.162-0.725-3.782-1.625-4.77c-0.9-0.992-0.731-2.222-1.295-5.184
			c-0.563-2.96-0.733-1.483-2.207-3.049c-1.474-1.566-2.789-1.571-5.082-3.636c-2.294-2.062-2.538-2.474-4.175-4.371
			c-1.637-1.896-1.638-1.485-2.789-1.326c-1.15,0.162-1.073,1.229-0.917,3.449c0.155,2.219,2.862,3.874,4.253,5.274
			c1.392,1.402,2.21,2.31,3.766,3.796c1.557,1.482,3.689,2.396,4.508,3.058c0.819,0.66,0.488,1.315-0.171,1.806
			c-0.659,0.492-1.805-0.828-2.708-1.162c-0.902-0.329-0.085,0.906,0.158,1.647c0.245,0.739-0.086,1.395-0.257,2.956
			c-0.171,1.561-1.322,1.886-2.142,1.471c-0.821-0.415,0.334-1.559,0.345-4.271c0.01-2.71-3.028-3.382-3.928-4.205
			c-0.901-0.824-2.871-1.409-3.609-1.985c-0.737-0.581-2.616-3.545-2.856-5.188c-0.24-1.645-3.443-2.15-5.414-2.733
			c-1.97-0.582-2.142,1.553-6.094,3.43c-3.952,1.875-3.038-0.835-5.919,0.469c-2.881,1.305-0.337,2.382-3.801,5.492
			c-3.463,3.108-1.978,1.472-3.883,5.408c-1.905,3.938-2.065,2.787-2.896,5.247c-0.832,2.463-1.979,1.883-3.868,1.795
			c-1.89-0.089-2.552,0.894-4.362,1.872c-1.812,0.98-1.473-1.729-3.114-2.591c0,0-1.315,0.028-2.466,0.187
			c-1.151,0.159-2.465-0.172-3.115-2.148c-0.649-1.973,0.841-4.681,0.841-4.681s-2.123-3.872-2.106-8.307
			c0.017-4.438,3.708-2.781,7.402-3.506c3.695-0.726,9.624-0.292,9.624-0.292c2.983-6.726-1.431-12.908-1.431-12.908
			c-0.49-0.905-2.208-0.394-3.451-0.341c-1.621,0.067-0.363-1.851,0.752-3.327c1.115-1.475,4.566-1.215,8.023-2.681
			c3.456-1.466,7.048-5.85,7.048-5.85s2.727-3.975,4.581-5.324c1.854-1.349,8.364-6.049,8.364-6.049
			c0.334-1.396-0.844-0.825-1.167-2.306c-0.323-1.48,0.009-2.383-0.152-3.123c-0.161-0.74-1.556-1.567-1.469-2.882
			c0.088-1.315,1.015-0.818,1.839-1.472c0.824-0.656,0.552-0.573,1.457-1.063c0.906-0.489,1.566-1.145,2.552-1.058
			c0.986,0.086,0.244,0.658,0.24,1.891c-0.005,1.232-0.335,1.642-0.588,3.449c-0.254,1.807-0.005,1.232,0.404,1.81
			c0.409,0.577,0.162,0.576,0.075,1.89c-0.087,1.314-0.741,0.326-0.99,1.064c-0.25,0.738,0.194-1.231,0.678,1.236
			c0.485,2.467,0,0,1.229,0.99l10.843,1.274c1.481-0.487,2.223-0.978,4.163-2.45c1.94-1.472,2.255,0.255,3.731,1.247
			c1.476,0.992,2.475-2.456,4.208-4.395s-0.736-1.016-0.97-4.467c0,0-0.404-1.728,1.245-3.529c1.651-1.801,6.165,0.105,6.165,0.105
			c1.726-0.241,0.251-1.478,0.251-1.478s-0.733-1.729-0.725-3.948c0.008-2.218,1.485-1.72,2.966-1.961
			c1.48-0.24,4.438,0.017,5.67,0.021c1.233,0.005,2.476-2.702,2.483-4.675c0.008-1.972-2.957-0.504-5.422-0.267
			c-2.467,0.237-4.933,0.475-5.923,1.703c-0.99,1.23-2.958-0.011-4.437-0.263c-1.478-0.252,0.064-5.412,0.085-10.835
			s1.241-2.214,3.221-4.179c1.98-1.964,1.457-5.923,3.443-9.367c1.985-3.444-0.976-2.715-3.933-2.974
			c-2.958-0.258-4.206,3.929-4.223,8.364c-0.017,4.436-2.473,1.966-5.942,6.637c-3.469,4.67-1.508,7.391-1.802,10.101
			c-0.294,2.711,1.019,1.484,1.998,3.212c0.979,1.729-0.251,1.233-2.029,4.923c-1.777,3.691-2.935,3.687-3.196,7.63
			c-0.262,3.944-0.746,1.723-3.215,2.7c-2.469,0.978-0.746,1.724-2.968,2.454c-2.222,0.731-3.89-14.313-6.848-14.572
			c-2.958-0.257-1.49,2.954-6.675,4.906c-5.185,1.954-4.146-11.849-4.134-15.301c0.013-3.451,2.735-5.906,8.175-10.077
			c5.438-4.171,4.473-9.598,11.171-20.42c6.697-10.822,12.871-13.511,19.298-18.17c6.428-4.66,15.773,1.539,15.773,1.539
			s3.198,1.491,7.869,5.208c4.67,3.716,7.137,3.231,10.334,5.463c3.196,2.231,3.926,4.699,5.639,8.157
			c1.713,3.458-3.469,4.917-5.691,5.648c-2.223,0.732-3.691-1.985-8.861-3.731c-5.171-1.745-1.238,1.228-0.258,3.204
			c0.979,1.976,0.973,3.455,0.959,7.153s1.709,4.444,4.667,4.455c2.958,0.011-0.728-3.208,0.761-5.667s4.191,0.016,6.404,1.75
			c2.211,1.735,1.291-1.208,1.242-2.707c-0.221-6.822,7.674-8.354,7.674-8.354c2.717-1.222-0.732-1.975-1.463-4.197
			c-0.731-2.221,1.238-1.474,1.496-4.678c0.26-3.205,2.959,0.011,5.668,1.007c2.707,0.997-1.983,2.705-3.466,3.685
			c-1.483,0.981,0.238,2.22,3.688,2.48s2.963-1.468,2.971-3.194c0.006-1.726,3.461-2.698,5.932-4.662
			c2.475-1.963,2.719-1.223,5.678-1.705c0,0,5.676-1.704,10.359-0.947c3.246,0.525,1.967,0.993,4.682,0.757
			c2.711-0.236,0.258-2.71-1.461-4.936c-1.715-2.226-1.717-1.979-1.957-3.706s2.955,0.751,4.432,1.249
			c1.479,0.499,2.211,2.474,3.441,2.972C268.192,92.123,337.774,161.83,314.129,265.855z"/>
	</g>
	<g>
		
			<rect x="293.015" y="101.039" transform="matrix(0.6265 0.7794 -0.7794 0.6265 197.4937 -188.3376)" fill="#B08048" width="4.486" height="21.714"/>
		
			<rect x="293.433" y="100.166" transform="matrix(0.6263 0.7796 -0.7796 0.6263 196.6329 -188.1433)" fill="#905F37" width="2.245" height="21.714"/>
		
			<path fill="#787F48" stroke="#787F48" stroke-width="0.0544" stroke-linecap="round" stroke-linejoin="round" stroke-miterlimit="10" d="
			M331.361,111.772c4.571-3.678,5.301-10.366,1.623-14.938c-0.697-0.868-1.503-1.595-2.38-2.182
			c4.097-3.753,4.63-10.094,1.102-14.486c-3.681-4.575-10.367-5.299-14.939-1.625c-0.926,0.747-1.693,1.615-2.297,2.564
			c-3.687-4.532-10.343-5.242-14.899-1.578c-4.574,3.678-5.3,10.366-1.622,14.938c1.233,1.533,2.803,2.631,4.519,3.279
			c-0.949,3.224-0.356,6.847,1.909,9.666c3.038,3.777,8.128,4.927,12.386,3.14C320.5,114.763,326.926,115.34,331.361,111.772z"/>
		
			<path fill="#696E3E" stroke="#696E3E" stroke-width="0.0544" stroke-linecap="round" stroke-linejoin="round" stroke-miterlimit="10" d="
			M331.706,80.167c-3.681-4.575-10.367-5.299-14.939-1.625c-0.926,0.747-1.693,1.615-2.297,2.564
			c-3.687-4.532-10.343-5.242-14.899-1.578c-4.574,3.678-5.3,10.366-1.622,14.938c1.233,1.533,2.803,2.631,4.519,3.279
			c-0.748,2.547-0.536,5.341,0.701,7.792c0,0,29.413-23.648,29.59-23.792C332.481,81.085,331.706,80.167,331.706,80.167z"/>
	</g>
	<g>
		<g>
			
				<rect x="64.332" y="289.355" transform="matrix(-0.6948 -0.7192 0.7192 -0.6948 -103.7729 565.5594)" fill="#905F36" width="7.58" height="30.89"/>
			
				<rect x="67.543" y="290.718" transform="matrix(-0.695 -0.719 0.719 -0.695 -102.4267 568.8795)" fill="#804E29" width="3.791" height="30.89"/>
		</g>
		<polygon fill="#787F48" stroke="#787F48" stroke-width="0.1489" stroke-miterlimit="10" points="41.365,308.566 63.188,331.153 
			37.446,334.188 		"/>
		
			<polygon fill="#696E3E" stroke="#696E3E" stroke-width="0.1678" stroke-linecap="round" stroke-linejoin="round" stroke-miterlimit="10" points="
			63.188,331.153 37.446,334.188 52.276,319.859 		"/>
		<polygon fill="#787F48" stroke="#787F48" stroke-width="0.184" stroke-miterlimit="10" points="45.678,299.33 72.565,327.16 
			40.743,331 		"/>
		
			<polygon fill="#696E3E" stroke="#696E3E" stroke-width="0.2074" stroke-linecap="round" stroke-linejoin="round" stroke-miterlimit="10" points="
			72.565,327.16 40.743,331 59.121,313.244 		"/>
		<polygon fill="#787F48" stroke="#787F48" stroke-width="0.2145" stroke-miterlimit="10" points="49.996,290.336 81.702,323.157 
			44.678,327.2 		"/>
		
			<polygon fill="#696E3E" stroke="#696E3E" stroke-width="0.2417" stroke-linecap="round" stroke-linejoin="round" stroke-miterlimit="10" points="
			81.702,323.157 44.678,327.2 65.848,306.746 		"/>
		<polygon fill="#787F48" stroke="#787F48" stroke-width="0.2368" stroke-miterlimit="10" points="54.756,282.433 89.767,318.67 
			48.886,323.136 		"/>
		
			<polygon fill="#696E3E" stroke="#696E3E" stroke-width="0.2669" stroke-linecap="round" stroke-linejoin="round" stroke-miterlimit="10" points="
			89.767,318.67 48.886,323.136 72.262,300.551 		"/>
		<polygon fill="#787F48" stroke="#787F48" stroke-width="0.1172" stroke-miterlimit="10" points="37.515,317.193 54.432,334.705 
			34.115,337.405 		"/>
		
			<polygon fill="#696E3E" stroke="#696E3E" stroke-width="0.1321" stroke-linecap="round" stroke-linejoin="round" stroke-miterlimit="10" points="
			54.432,334.705 34.115,337.405 45.973,325.948 		"/>
	</g>
	<g>
		<g>
			
				<rect x="38.122" y="28.433" transform="matrix(0.7592 -0.6508 0.6508 0.7592 -30.3064 60.7703)" fill="#EEE1CD" stroke="#EEE1CD" stroke-width="0.2766" stroke-miterlimit="10" width="57.723" height="85.828"/>
			
				<rect x="41.596" y="37.824" transform="matrix(0.7592 -0.6508 0.6508 0.7592 -39.0567 55.9025)" opacity="0.33" fill="#CABB9D" stroke="#CABB9D" stroke-width="0.1956" stroke-miterlimit="10" width="28.862" height="85.828"/>
		</g>
		
			<rect x="1.676" y="15.741" transform="matrix(0.7592 -0.6508 0.6508 0.7592 -11.4096 26.8148)" fill="#796955" stroke="#796955" stroke-width="0.1528" stroke-miterlimit="10" width="57.722" height="26.174"/>
		<path fill="#A38977" stroke="#A38977" stroke-width="0.1741" stroke-miterlimit="10" d="M69.456,105.512"/>
		<path fill="#C5E0E9" d="M60.934,88.842"/>
		<path fill="#A38977" stroke="#A38977" stroke-width="0.1741" stroke-miterlimit="10" d="M72.405,102.883"/>
		<path fill="#A38977" stroke="#A38977" stroke-width="0.1741" stroke-miterlimit="10" d="M80.142,96.353"/>
		<path fill="#C5E0E9" d="M71.618,79.683"/>
		<path fill="#A38977" stroke="#A38977" stroke-width="0.1741" stroke-miterlimit="10" d="M83.09,93.724"/>
		<g>
			
				<rect x="51.575" y="81.166" transform="matrix(0.7591 -0.651 0.651 0.7591 -41.6539 55.1396)" fill="#867263" width="4.192" height="5.362"/>
			
				<rect x="47.452" y="76.356" transform="matrix(0.7591 -0.6509 0.6509 0.7591 -39.5128 51.287)" fill="#867263" width="4.191" height="5.362"/>
			
				<rect x="51.406" y="72.966" transform="matrix(0.7591 -0.6509 0.6509 0.7591 -36.3532 53.0446)" fill="#867263" width="4.191" height="5.361"/>
			
				<rect x="55.53" y="77.776" transform="matrix(0.7592 -0.6508 0.6508 0.7592 -38.4879 56.8734)" fill="#867263" width="4.192" height="5.362"/>
		</g>
		
			<rect x="63.449" y="70.99" transform="matrix(0.7593 -0.6507 0.6507 0.7593 -32.1636 60.3813)" fill="#867263" width="4.19" height="5.361"/>
		
			<rect x="59.325" y="66.179" transform="matrix(0.7593 -0.6508 0.6508 0.7593 -30.026 56.5482)" fill="#867263" width="4.19" height="5.361"/>
		
			<rect x="63.281" y="62.789" transform="matrix(0.7593 -0.6507 0.6507 0.7593 -26.8672 58.2968)" fill="#A38977" width="4.189" height="5.361"/>
		
			<rect x="67.404" y="67.599" transform="matrix(0.7593 -0.6508 0.6508 0.7593 -29.0062 62.1464)" fill="#A38977" width="4.19" height="5.362"/>
		<g>
			
				<rect x="75.321" y="60.811" transform="matrix(0.7594 -0.6507 0.6507 0.7594 -22.6832 65.6513)" fill="#A38977" width="4.191" height="5.363"/>
			
				<rect x="71.198" y="56" transform="matrix(0.7593 -0.6508 0.6508 0.7593 -20.5444 61.8259)" fill="#A38977" width="4.191" height="5.362"/>
			
				<rect x="75.153" y="52.611" transform="matrix(0.7591 -0.651 0.651 0.7591 -17.3837 63.6137)" fill="#A38977" width="4.19" height="5.361"/>
			
				<rect x="79.277" y="57.42" transform="matrix(0.7592 -0.6509 0.6509 0.7592 -19.5231 67.4344)" fill="#A38977" width="4.191" height="5.364"/>
		</g>
		<g>
			
				<rect x="37.332" y="64.55" transform="matrix(0.7592 -0.6508 0.6508 0.7592 -34.2626 41.8476)" fill="#867263" width="4.189" height="5.362"/>
			
				<rect x="33.208" y="59.739" transform="matrix(0.7592 -0.6508 0.6508 0.7592 -32.1248 38.007)" fill="#867263" width="4.191" height="5.361"/>
			
				<rect x="37.163" y="56.349" transform="matrix(0.7591 -0.651 0.651 0.7591 -28.969 39.7754)" fill="#867263" width="4.19" height="5.361"/>
			
				<rect x="41.287" y="61.159" transform="matrix(0.7592 -0.6508 0.6508 0.7592 -31.1038 43.6052)" fill="#867263" width="4.189" height="5.363"/>
		</g>
		
			<rect x="49.204" y="54.37" transform="matrix(0.759 -0.6511 0.6511 0.759 -24.7822 47.1465)" fill="#867263" width="4.192" height="5.364"/>
		
			<rect x="45.08" y="49.561" transform="matrix(0.7591 -0.6509 0.6509 0.7591 -22.6425 43.291)" fill="#867263" width="4.192" height="5.362"/>
		
			<rect x="49.036" y="46.171" transform="matrix(0.7593 -0.6508 0.6508 0.7593 -19.4828 45.0355)" fill="#A38977" width="4.19" height="5.362"/>
		
			<rect x="53.16" y="50.981" transform="matrix(0.7591 -0.651 0.651 0.7591 -21.6223 48.9025)" fill="#A38977" width="4.19" height="5.363"/>
		<g>
			
				<rect x="61.078" y="44.195" transform="matrix(0.7593 -0.6507 0.6507 0.7593 -15.2989 52.3898)" fill="#A38977" width="4.19" height="5.362"/>
			
				<rect x="56.954" y="39.384" transform="matrix(0.7594 -0.6507 0.6507 0.7594 -13.1607 48.543)" fill="#A38977" width="4.19" height="5.361"/>
			
				<rect x="60.909" y="35.993" transform="matrix(0.7593 -0.6508 0.6508 0.7593 -10.0008 50.3124)" fill="#A38977" width="4.19" height="5.361"/>
			
				<rect x="65.033" y="40.805" transform="matrix(0.7593 -0.6508 0.6508 0.7593 -12.1398 54.153)" fill="#A38977" width="4.19" height="5.361"/>
		</g>
		<g>
			
				<rect x="65.82" y="97.785" transform="matrix(0.7592 -0.6508 0.6508 0.7592 -49.0345 68.3925)" fill="#867263" width="4.19" height="5.363"/>
			
				<rect x="61.696" y="92.973" transform="matrix(0.7593 -0.6508 0.6508 0.7593 -46.8935 64.5413)" fill="#867263" width="4.19" height="5.362"/>
			
				<rect x="65.651" y="89.583" transform="matrix(0.7593 -0.6508 0.6508 0.7593 -43.7349 66.3008)" fill="#867263" width="4.191" height="5.362"/>
			
				<rect x="69.776" y="94.394" transform="matrix(0.7594 -0.6506 0.6506 0.7594 -45.8664 70.1135)" fill="#867263" width="4.191" height="5.362"/>
		</g>
		
			<rect x="77.694" y="87.607" transform="matrix(0.7591 -0.6509 0.6509 0.7591 -39.5528 73.6821)" fill="#867263" width="4.191" height="5.362"/>
		
			<rect x="73.569" y="82.796" transform="matrix(0.7591 -0.651 0.651 0.7591 -37.4156 69.8468)" fill="#867263" width="4.191" height="5.363"/>
		
			<rect x="77.524" y="79.405" transform="matrix(0.7591 -0.6509 0.6509 0.7591 -34.255 71.5961)" fill="#A38977" width="4.191" height="5.363"/>
		
			<rect x="81.648" y="84.216" transform="matrix(0.7591 -0.651 0.651 0.7591 -36.3943 75.45)" fill="#A38977" width="4.191" height="5.363"/>
		
			<rect x="94.64" y="73.626" transform="matrix(0.7592 -0.6508 0.6508 0.7592 -31.4447 85.1382)" fill="#A38977" width="9.4" height="22.88"/>
		
			<rect x="85.442" y="72.618" transform="matrix(0.7593 -0.6508 0.6508 0.7593 -27.9304 75.0966)" fill="#A38977" width="4.191" height="5.363"/>
		
			<rect x="89.398" y="69.229" transform="matrix(0.7594 -0.6506 0.6506 0.7594 -24.7729 76.8324)" fill="#A38977" width="4.19" height="5.362"/>
		
			<rect x="5.151" y="25.133" transform="matrix(0.7593 -0.6508 0.6508 0.7593 -20.159 21.9448)" fill="#604D40" stroke="#604D40" stroke-width="0.108" stroke-miterlimit="10" width="28.862" height="26.174"/>
		
			<rect x="11.404" y="17.462" transform="matrix(0.7592 -0.6508 0.6508 0.7592 -12.5535 16.11)" fill="#796955" stroke="#796955" stroke-width="0.1528" stroke-miterlimit="10" width="8.183" height="15.118"/>
		
			<rect x="95.206" y="75.155" transform="matrix(0.7591 -0.651 0.651 0.7591 -32.8701 84.3634)" fill="#867263" width="4.699" height="22.88"/>
	</g>
	<g>
		<polygon fill="#ECECED" stroke="#ECECED" stroke-width="0.348" stroke-miterlimit="10" points="248.651,329.446 295.155,290.963 
			316.292,316.513 306.664,352.213 269.792,354.998 		"/>
		<polygon opacity="0.7" fill="#D9DADB" stroke="#D9DADB" stroke-width="0.348" stroke-miterlimit="10" points="271.9,310.207 
			295.155,290.963 316.292,316.513 306.664,352.213 		"/>
		<g>
			
				<rect x="295.5" y="305.882" transform="matrix(-0.7703 0.6377 -0.6377 -0.7703 724.4898 357.0549)" fill="#868789" stroke="#868789" stroke-width="0.2827" stroke-linecap="round" stroke-linejoin="round" stroke-miterlimit="10" width="4.881" height="6.249"/>
			
				<rect x="300.203" y="311.572" transform="matrix(-0.7704 0.6376 -0.6376 -0.7704 736.4389 364.1819)" fill="#868789" stroke="#868789" stroke-width="0.2827" stroke-linecap="round" stroke-linejoin="round" stroke-miterlimit="10" width="4.882" height="6.248"/>
			
				<rect x="295.526" y="315.44" transform="matrix(-0.7706 0.6374 -0.6374 -0.7706 730.6119 374.1238)" fill="#868789" stroke="#868789" stroke-width="0.2827" stroke-linecap="round" stroke-linejoin="round" stroke-miterlimit="10" width="4.883" height="6.249"/>
			
				<rect x="290.817" y="309.753" transform="matrix(-0.7702 0.6377 -0.6377 -0.7702 718.6786 366.8472)" fill="#868789" stroke="#868789" stroke-width="0.2827" stroke-linecap="round" stroke-linejoin="round" stroke-miterlimit="10" width="4.886" height="6.249"/>
		</g>
		<g>
			
				<rect x="281.662" y="317.334" transform="matrix(-0.7704 0.6376 -0.6376 -0.7704 707.2874 386.2036)" fill="#868789" stroke="#868789" stroke-width="0.2827" stroke-linecap="round" stroke-linejoin="round" stroke-miterlimit="10" width="4.882" height="6.248"/>
			
				<rect x="286.368" y="323.022" transform="matrix(-0.7703 0.6377 -0.6377 -0.7703 719.2525 393.2168)" fill="#868789" stroke="#868789" stroke-width="0.2827" stroke-linecap="round" stroke-linejoin="round" stroke-miterlimit="10" width="4.881" height="6.244"/>
			
				<rect x="281.693" y="326.892" transform="matrix(-0.7702 0.6378 -0.6378 -0.7702 713.4564 402.9875)" fill="#9C9C9E" stroke="#9C9C9E" stroke-width="0.2827" stroke-linecap="round" stroke-linejoin="round" stroke-miterlimit="10" width="4.881" height="6.249"/>
			
				<polygon fill="#9C9C9E" stroke="#9C9C9E" stroke-width="0.2827" stroke-linecap="round" stroke-linejoin="round" stroke-miterlimit="10" points="
				275.552,323.48 279.314,320.363 283.295,325.18 279.536,328.292 			"/>
		</g>
		
			<polygon fill="#9C9C9E" stroke="#9C9C9E" stroke-width="0.2827" stroke-linecap="round" stroke-linejoin="round" stroke-miterlimit="10" points="
			254.713,324.427 263.154,317.447 279.85,337.619 271.409,344.6 		"/>
		
			<polygon fill="#868789" stroke="#868789" stroke-width="0.2827" stroke-linecap="round" stroke-linejoin="round" stroke-miterlimit="10" points="
			258.932,320.936 263.154,317.447 279.85,337.619 275.627,341.108 		"/>
		
			<polyline fill="none" stroke="#5A595B" stroke-width="3.0805" stroke-linecap="round" stroke-linejoin="round" stroke-miterlimit="10" points="
			316.695,314.681 306.664,352.213 267.644,355.266 		"/>
		<g>
			<circle fill="#9C9C9E" cx="297.517" cy="341.433" r="4.506"/>
			<path fill="#868789" d="M294.644,337.961c1.918-1.588,4.758-1.317,6.345,0.6c1.587,1.915,1.316,4.756-0.601,6.343
				L294.644,337.961z"/>
		</g>
		
			<polygon fill="#5A595B" stroke="#5A595B" stroke-width="0.6846" stroke-linecap="round" stroke-linejoin="round" stroke-miterlimit="10" points="
			310.824,336.269 313.369,327.345 320.067,335.437 314.17,340.318 		"/>
	</g>
	<path fill="#868789" d="M171.95,46.181c-0.935,0.047-1.782,0.353-2.526,0.81c0.086-0.399,0.14-0.811,0.119-1.238
		c-0.133-2.637-2.38-4.667-5.015-4.531c-0.593,0.03-1.15,0.181-1.661,0.403c0-0.009,0-0.021,0.001-0.031
		c-0.212-4.156-3.752-7.353-7.91-7.142c-2.231,0.114-4.18,1.191-5.479,2.807c-1.819-3.043-5.212-5.007-8.999-4.816
		c-5.096,0.261-9.091,4.333-9.373,9.314c-0.631-0.136-1.285-0.2-1.959-0.166c-4.156,0.214-7.353,3.754-7.141,7.91
		c0.211,4.156,3.753,7.354,7.908,7.142c0.477-0.023,0.937-0.098,1.385-0.204c-0.033,0.328-0.067,0.655-0.05,0.993
		c0.186,3.634,3.283,6.43,6.917,6.246c2.273-0.116,4.216-1.368,5.31-3.177c1.5,2.667,4.417,4.408,7.679,4.232
		c3.826-0.202,6.898-2.968,7.669-6.54c1.097,1.582,2.949,2.588,5.013,2.482c2.735-0.14,4.917-2.168,5.371-4.754
		c0.933,0.642,2.064,1.01,3.286,0.947c2.949-0.149,5.221-2.666,5.07-5.614C177.415,48.302,174.899,46.032,171.95,46.181z
		 M166.896,50.273c0.064-0.033,0.117-0.077,0.176-0.11c-0.017,0.067-0.034,0.135-0.049,0.201
		C166.978,50.332,166.939,50.302,166.896,50.273z"/>
	<g>
		<path fill="#555557" d="M265.142,83.848c-0.001,0.001-0.006,0-0.006-0.002l-7.713-2.346c-0.263-0.08-0.425-0.341-0.378-0.612
			c0.694-4.071-1.766-8.047-5.72-9.25c-3.956-1.203-8.213,0.731-9.903,4.498c-0.114,0.252-0.395,0.377-0.656,0.298l-32.178-9.787
			c-0.263-0.08-0.426-0.341-0.379-0.612c0.693-4.07-1.767-8.048-5.721-9.251c-3.955-1.202-8.212,0.731-9.904,4.5
			c-0.113,0.251-0.394,0.377-0.655,0.296l-5.29-1.608c-0.288-0.087-0.45-0.39-0.362-0.68l4.048-13.307
			c0.034-0.109,0.099-0.205,0.189-0.275l12.495-9.644c0.14-0.109,0.325-0.143,0.492-0.091l31.705,9.644
			c0.08,0.024,0.155,0.067,0.216,0.127c3.956,3.766,12.106,13.523,12.904,14.482c1.468,0.848,17.444,10.087,18.841,11.311
			c0.135,0.118,0.202,0.293,0.183,0.471c-0.74,6.353-1.401,10.652-1.502,11.313c0.001,0.054-0.007,0.11-0.025,0.166
			C265.736,83.776,265.428,83.935,265.142,83.848z"/>
		<path fill="#EDF7FB" d="M197.908,47.233l6.93-8.115l29.125,8.859c4.162,4.076,10.727,13.409,10.812,13.511L197.908,47.233z"/>
		
			<path fill="none" stroke="#319859" stroke-width="1.8294" stroke-linecap="round" stroke-linejoin="round" stroke-miterlimit="10" d="
			M203.442,50.415"/>
		<g>
			<g>
				<polygon fill="#FFFFFF" points="262.67,74.954 266.764,76.199 267.126,73.493 263.453,72.377 				"/>
				<path fill="#FFFFFF" d="M266.834,76.638l-4.28-1.302c-0.212-0.065-0.33-0.288-0.266-0.499l0.783-2.577
					c0.063-0.213,0.286-0.331,0.5-0.266l3.671,1.117L266.834,76.638z"/>
			</g>
		</g>
		<polygon fill="#DEEAEF" points="244.261,61.333 197.908,47.233 204.837,39.119 		"/>
		<polygon fill="#F19304" points="191.709,53.666 188.306,52.63 189.274,49.443 190.78,49.899 		"/>
		<g>
			<circle fill="#FFFFFF" stroke="#1B181C" stroke-width="3.4734" stroke-miterlimit="10" cx="200.025" cy="64.883" r="5.108"/>
		</g>
		<g>
			<circle fill="#FFFFFF" stroke="#1B181C" stroke-width="3.4734" stroke-miterlimit="10" cx="248.97" cy="79.771" r="5.108"/>
		</g>
		<g>
			
				<rect x="225.182" y="44.958" transform="matrix(-0.9568 -0.2906 0.2906 -0.9568 427.0196 164.5822)" fill="#555557" width="1.097" height="11.249"/>
		</g>
		<g>
			
				<rect x="205.632" y="39.012" transform="matrix(-0.9571 -0.2899 0.2899 -0.9571 390.5731 147.1229)" fill="#555557" width="1.1" height="11.249"/>
		</g>
		<path opacity="0.5" fill="none" stroke="#1B181C" stroke-width="1.0976" stroke-linejoin="round" stroke-miterlimit="10" d="
			M244.76,59.774l-4.214,13.856l-29.599-9.003c-0.016-4.681-3.084-8.947-7.697-10.35l1.509-4.958"/>
		<g opacity="0.5">
			
				<line fill="none" stroke="#1B181C" stroke-width="1.0976" stroke-linejoin="round" stroke-miterlimit="10" x1="224.306" y1="55.264" x2="220.734" y2="67.017"/>
		</g>
		
			<line fill="none" stroke="#3E3D3F" stroke-width="1.0976" stroke-linecap="round" stroke-linejoin="round" stroke-miterlimit="10" x1="206.559" y1="52.84" x2="209.536" y2="53.745"/>
		
			<line fill="none" stroke="#3E3D3F" stroke-width="1.0976" stroke-linecap="round" stroke-linejoin="round" stroke-miterlimit="10" x1="225.925" y1="58.73" x2="228.903" y2="59.636"/>
		
			<circle fill="#555557" stroke="#3E3D3F" stroke-width="0.6705" stroke-linecap="round" stroke-linejoin="round" stroke-miterlimit="10" cx="196.333" cy="51.115" r="2.017"/>
		<path fill="#3E3D3F" d="M245.96,60.735c-0.289,0.951-1.293,1.486-2.243,1.197l-2.577-0.784c-0.951-0.29-1.49-1.294-1.199-2.245
			l0,0c0.287-0.949,1.293-1.485,2.243-1.196l2.58,0.785C245.712,58.781,246.248,59.785,245.96,60.735L245.96,60.735z"/>
	</g>
	<path fill="#868789" d="M341.923,180.023c-0.141-0.925-0.531-1.737-1.062-2.431c0.406,0.044,0.82,0.058,1.245-0.006
		c2.61-0.398,4.402-2.838,4.003-5.447c-0.091-0.586-0.296-1.125-0.569-1.611c0.009-0.001,0.02-0.002,0.03-0.003
		c4.114-0.627,6.939-4.473,6.311-8.588c-0.338-2.208-1.606-4.039-3.345-5.168c2.846-2.117,4.459-5.69,3.888-9.439
		c-0.772-5.044-5.225-8.609-10.211-8.388c0.073-0.641,0.07-1.299-0.03-1.966c-0.632-4.113-4.476-6.938-8.589-6.309
		c-4.114,0.628-6.938,4.474-6.31,8.586c0.07,0.472,0.192,0.923,0.342,1.357c-0.328,0-0.658,0-0.992,0.051
		c-3.598,0.55-6.067,3.913-5.519,7.511c0.344,2.25,1.786,4.057,3.694,4.963c-2.501,1.76-3.939,4.837-3.437,8.066
		c0.585,3.787,3.647,6.564,7.277,6.972c-1.462,1.251-2.278,3.194-1.965,5.237c0.415,2.708,2.653,4.675,5.271,4.866
		c-0.544,0.993-0.797,2.156-0.61,3.364c0.444,2.919,3.178,4.926,6.095,4.48C340.363,185.673,342.369,182.942,341.923,180.023z
		 M337.343,175.407c0.038,0.059,0.088,0.108,0.128,0.164c-0.069-0.011-0.139-0.02-0.206-0.028
		C337.293,175.495,337.318,175.452,337.343,175.407z"/>
	<g>
		<path fill="#BF3A29" d="M313.823,276.534c-0.002-0.002-0.002-0.006,0-0.006l1.56-7.912c0.053-0.269,0.296-0.457,0.571-0.437
			c4.119,0.282,7.828-2.567,8.626-6.621c0.801-4.058-1.553-8.099-5.469-9.402c-0.264-0.088-0.417-0.354-0.364-0.621l6.5-32.999
			c0.054-0.271,0.298-0.459,0.571-0.44c4.12,0.281,7.829-2.565,8.63-6.621c0.798-4.056-1.556-8.097-5.475-9.402
			c-0.26-0.085-0.412-0.352-0.36-0.622l1.068-5.425c0.057-0.295,0.344-0.487,0.639-0.429l13.648,2.688
			c0.111,0.023,0.213,0.078,0.292,0.16l10.851,11.462c0.123,0.127,0.177,0.309,0.142,0.48l-6.406,32.514
			c-0.016,0.082-0.05,0.162-0.104,0.229c-3.349,4.314-12.236,13.404-13.11,14.295c-0.695,1.546-8.28,18.37-9.357,19.884
			c-0.104,0.146-0.27,0.229-0.449,0.229c-6.396-0.097-10.742-0.321-11.409-0.355c-0.054,0.007-0.109,0.003-0.166-0.01
			C313.953,277.116,313.764,276.826,313.823,276.534z"/>
		<path fill="#EDF7FB" d="M343.487,205.956l8.771,6.077l-5.884,29.869c-3.637,4.552-12.263,12.021-12.355,12.116L343.487,205.956z"
			/>
		
			<path fill="none" stroke="#319859" stroke-width="1.8294" stroke-linecap="round" stroke-linejoin="round" stroke-miterlimit="10" d="
			M340.878,211.782"/>
		<g>
			<g>
				<polygon fill="#FFFFFF" points="322.422,273.178 321.595,277.376 324.324,277.463 325.066,273.698 				"/>
				<path fill="#FFFFFF" d="M321.166,277.491l0.864-4.391c0.044-0.217,0.255-0.356,0.472-0.313l2.641,0.521
					c0.219,0.041,0.359,0.25,0.316,0.471l-0.743,3.765L321.166,277.491z"/>
			</g>
		</g>
		<polygon fill="#DEEAEF" points="334.122,253.493 343.487,205.956 352.258,212.033 		"/>
		<polygon fill="#F19304" points="336.463,200.436 337.152,196.945 340.42,197.588 340.118,199.133 		"/>
		<g>
			<circle fill="#FFFFFF" stroke="#1B181C" stroke-width="3.4734" stroke-miterlimit="10" cx="326.142" cy="209.838" r="5.108"/>
		</g>
		<g>
			<circle fill="#FFFFFF" stroke="#1B181C" stroke-width="3.4734" stroke-miterlimit="10" cx="316.252" cy="260.033" r="5.108"/>
		</g>
		<g>
			
				<rect x="342.406" y="228.349" transform="matrix(0.1922 -0.9814 0.9814 0.1922 47.4335 525.5706)" fill="#BF3A29" width="1.098" height="11.249"/>
		</g>
		<g>
			
				<rect x="346.353" y="208.301" transform="matrix(0.1936 -0.9811 0.9811 0.1936 69.8779 512.8632)" fill="#BF3A29" width="1.1" height="11.25"/>
		</g>
		<path opacity="0.5" fill="none" stroke="#A01F1D" stroke-width="1.0053" stroke-linejoin="round" stroke-miterlimit="10" d="
			M335.725,253.833l-14.211-2.798l5.979-30.355c4.655-0.486,8.592-3.969,9.523-8.7l5.085,1.004"/>
		<g>
			
				<line fill="none" stroke="#A01F1D" stroke-width="1.0053" stroke-linejoin="round" stroke-miterlimit="10" x1="338.154" y1="233.028" x2="326.101" y2="230.657"/>
		</g>
		
			<line fill="none" stroke="#A01F1D" stroke-width="1.0053" stroke-linecap="round" stroke-linejoin="round" stroke-miterlimit="10" x1="338.78" y1="215.126" x2="338.179" y2="218.179"/>
		
			<line fill="none" stroke="#A01F1D" stroke-width="1.0053" stroke-linecap="round" stroke-linejoin="round" stroke-miterlimit="10" x1="334.866" y1="234.987" x2="334.266" y2="238.041"/>
		
			<circle fill="#BF3A29" stroke="#A01F1D" stroke-width="0.6141" stroke-linecap="round" stroke-linejoin="round" stroke-miterlimit="10" cx="339.466" cy="204.779" r="2.017"/>
		<path fill="#A01F1D" d="M334.888,255.123c-0.976-0.191-1.607-1.137-1.418-2.111l0.521-2.644c0.193-0.976,1.139-1.611,2.114-1.417
			l0,0c0.972,0.188,1.605,1.136,1.414,2.109L337,253.707C336.808,254.678,335.863,255.312,334.888,255.123L334.888,255.123z"/>
	</g>
	<path fill="#868789" d="M190.911,367.078c0.937-0.021,1.792-0.305,2.549-0.741c-0.098,0.396-0.163,0.805-0.154,1.235
		c0.062,2.638,2.251,4.728,4.89,4.665c0.594-0.014,1.153-0.148,1.67-0.359c0,0.01,0,0.021,0,0.031
		c0.096,4.161,3.546,7.455,7.709,7.357c2.232-0.052,4.211-1.076,5.556-2.655c1.734,3.094,5.072,5.149,8.862,5.062
		c5.103-0.12,9.206-4.078,9.626-9.053c0.626,0.152,1.28,0.235,1.954,0.222c4.161-0.102,7.452-3.554,7.356-7.711
		c-0.099-4.162-3.551-7.455-7.709-7.356c-0.477,0.008-0.94,0.072-1.392,0.165c0.043-0.326,0.084-0.653,0.077-0.991
		c-0.084-3.639-3.104-6.519-6.743-6.434c-2.274,0.052-4.252,1.252-5.394,3.028c-1.427-2.705-4.295-4.525-7.562-4.439
		c-3.827,0.096-6.977,2.778-7.845,6.327c-1.053-1.61-2.877-2.67-4.941-2.62c-2.737,0.065-4.978,2.033-5.501,4.604
		c-0.916-0.667-2.036-1.065-3.259-1.036c-2.951,0.066-5.291,2.522-5.221,5.474C185.507,364.807,187.96,367.146,190.911,367.078z
		 M196.076,363.125c-0.065,0.032-0.118,0.074-0.179,0.106c0.018-0.067,0.038-0.136,0.052-0.201
		C195.996,363.064,196.035,363.095,196.076,363.125z"/>
	<g>
		<path fill="#BDC2C7" d="M98.788,326.862c0.002-0.001,0.005-0.001,0.005,0.001l7.648,2.559c0.26,0.087,0.415,0.353,0.361,0.623
			c-0.808,4.049,1.544,8.093,5.462,9.402c3.922,1.312,8.231-0.505,10.025-4.222c0.12-0.251,0.404-0.368,0.663-0.282l31.896,10.668
			c0.261,0.087,0.417,0.354,0.363,0.623c-0.806,4.051,1.544,8.093,5.464,9.406c3.92,1.311,8.229-0.507,10.024-4.227
			c0.118-0.247,0.402-0.364,0.662-0.279l5.245,1.756c0.285,0.092,0.439,0.402,0.345,0.688l-4.413,13.19
			c-0.038,0.108-0.105,0.202-0.196,0.271l-12.756,9.296c-0.142,0.105-0.329,0.135-0.495,0.079l-31.427-10.513
			c-0.08-0.026-0.154-0.07-0.213-0.133c-3.851-3.872-11.73-13.852-12.5-14.831c-1.445-0.889-17.161-10.562-18.524-11.824
			c-0.131-0.121-0.192-0.297-0.169-0.475c0.915-6.331,1.693-10.612,1.813-11.27c-0.001-0.054,0.011-0.109,0.03-0.164
			C98.195,326.917,98.506,326.767,98.788,326.862z"/>
		<path fill="#EDF7FB" d="M164.992,365.311l-7.149,7.922l-28.871-9.657c-4.05-4.188-10.353-13.699-10.436-13.803L164.992,365.311z"
			/>
		
			<path fill="none" stroke="#319859" stroke-width="1.8294" stroke-linecap="round" stroke-linejoin="round" stroke-miterlimit="10" d="
			M159.548,361.979"/>
		<g>
			<g>
				<polygon fill="#FFFFFF" points="101.015,335.82 96.958,334.463 96.523,337.159 100.164,338.375 				"/>
				<path fill="#FFFFFF" d="M96.9,334.024l4.244,1.417c0.209,0.072,0.321,0.3,0.25,0.508l-0.854,2.552
					c-0.068,0.212-0.294,0.326-0.507,0.254l-3.639-1.219L96.9,334.024z"/>
			</g>
		</g>
		<polygon fill="#DEEAEF" points="119.043,349.941 164.992,365.311 157.843,373.233 		"/>
		<polygon fill="#F19304" points="171.365,359.051 174.739,360.181 173.684,363.34 172.191,362.841 		"/>
		<g>
			<path fill="#FFFFFF" stroke="#1B181C" stroke-width="3.4734" stroke-miterlimit="10" d="M158.517,345.992
				c0.896-2.679,3.79-4.121,6.464-3.223c2.677,0.893,4.119,3.787,3.224,6.463c-0.894,2.672-3.787,4.117-6.462,3.221
				C159.065,351.56,157.621,348.664,158.517,345.992z"/>
		</g>
		<g>
			<path fill="#FFFFFF" stroke="#1B181C" stroke-width="3.4734" stroke-miterlimit="10" d="M109.998,329.763
				c0.893-2.676,3.791-4.116,6.464-3.225c2.674,0.895,4.118,3.789,3.225,6.464c-0.893,2.676-3.789,4.118-6.467,3.226
				C110.548,335.332,109.104,332.438,109.998,329.763z"/>
		</g>
		<g>
			
				<rect x="136.724" y="355.574" transform="matrix(0.9487 0.3161 -0.3161 0.9487 121.2108 -24.8717)" fill="#BDC2C7" width="1.097" height="11.248"/>
		</g>
		<g>
			
				<rect x="156.1" y="362.054" transform="matrix(0.9481 0.318 -0.318 0.9481 125.0364 -30.7273)" fill="#BDC2C7" width="1.1" height="11.25"/>
		</g>
		<path opacity="0.5" fill="none" stroke="#939495" stroke-width="1.0878" stroke-linejoin="round" stroke-miterlimit="10" d="
			M118.501,351.49l4.592-13.738l29.341,9.813c-0.113,4.679,2.837,9.03,7.411,10.559l-1.646,4.916"/>
		<g>
			
				<line fill="none" stroke="#939495" stroke-width="1.0878" stroke-linejoin="round" stroke-miterlimit="10" x1="138.824" y1="356.558" x2="142.717" y2="344.908"/>
		</g>
		
			<line fill="none" stroke="#8B8D8F" stroke-width="1.0878" stroke-linecap="round" stroke-linejoin="round" stroke-miterlimit="10" x1="156.499" y1="359.47" x2="153.547" y2="358.483"/>
		
			<line fill="none" stroke="#8B8D8F" stroke-width="1.0878" stroke-linecap="round" stroke-linejoin="round" stroke-miterlimit="10" x1="137.301" y1="353.047" x2="134.35" y2="352.06"/>
		
			<circle fill="#BDC2C7" stroke="#8B8D8F" stroke-width="0.6645" stroke-linecap="round" stroke-linejoin="round" stroke-miterlimit="10" cx="166.673" cy="361.473" r="2.016"/>
		<path fill="#8B8D8F" d="M117.328,350.495c0.316-0.943,1.334-1.449,2.276-1.137l2.555,0.854c0.943,0.318,1.453,1.338,1.135,2.278
			l0,0c-0.311,0.939-1.331,1.448-2.273,1.134l-2.559-0.855C117.523,352.454,117.016,351.436,117.328,350.495L117.328,350.495z"/>
	</g>
	<path fill="#868789" d="M24.378,228.462c0.109,0.932,0.47,1.757,0.975,2.469c-0.403-0.061-0.816-0.086-1.244-0.038
		c-2.621,0.308-4.497,2.682-4.19,5.303c0.069,0.591,0.255,1.135,0.513,1.629c-0.01,0.002-0.021,0.003-0.032,0.003
		c-4.134,0.483-7.093,4.224-6.609,8.359c0.259,2.22,1.462,4.094,3.161,5.285c-2.919,2.015-4.656,5.53-4.217,9.294
		c0.594,5.07,4.916,8.788,9.908,8.744c-0.094,0.638-0.115,1.296-0.039,1.966c0.487,4.135,4.23,7.09,8.361,6.608
		c4.134-0.484,7.093-4.229,6.608-8.359c-0.052-0.474-0.16-0.93-0.294-1.37c0.33,0.012,0.659,0.022,0.994-0.015
		c3.616-0.423,6.202-3.697,5.78-7.312c-0.263-2.259-1.642-4.118-3.516-5.088c2.561-1.674,4.106-4.698,3.717-7.944
		c-0.452-3.801-3.415-6.687-7.028-7.222c1.505-1.197,2.39-3.113,2.148-5.164c-0.319-2.719-2.486-4.768-5.095-5.048
		c0.579-0.975,0.872-2.128,0.729-3.343c-0.34-2.932-3.003-5.032-5.935-4.69C26.137,222.871,24.036,225.532,24.378,228.462z
		 M28.795,233.239c-0.039-0.063-0.085-0.111-0.123-0.169c0.068,0.012,0.138,0.025,0.205,0.034
		C28.847,233.153,28.819,233.194,28.795,233.239z"/>
	<g>
		<path fill="#34495D" d="M55.858,133.002c0,0.002,0.001,0.005,0,0.005l-1.836,7.853c-0.062,0.266-0.312,0.446-0.587,0.417
			c-4.107-0.428-7.914,2.29-8.854,6.312c-0.941,4.026,1.268,8.148,5.135,9.589c0.261,0.097,0.405,0.367,0.343,0.634L42.4,190.562
			c-0.062,0.269-0.314,0.449-0.586,0.419c-4.107-0.426-7.914,2.29-8.857,6.316c-0.94,4.024,1.269,8.146,5.139,9.587
			c0.258,0.096,0.4,0.367,0.34,0.633l-1.261,5.385c-0.065,0.293-0.36,0.475-0.652,0.408l-13.543-3.168
			c-0.112-0.027-0.211-0.088-0.288-0.171L12.25,198.135c-0.118-0.132-0.164-0.314-0.125-0.485l7.547-32.269
			c0.018-0.082,0.055-0.16,0.111-0.225c3.498-4.193,12.702-12.966,13.605-13.824c0.75-1.522,8.922-18.069,10.051-19.543
			c0.108-0.143,0.277-0.219,0.457-0.213c6.389,0.323,10.724,0.699,11.39,0.758c0.054-0.005,0.109,0.001,0.166,0.014
			C55.748,132.416,55.926,132.712,55.858,133.002z"/>
		<path fill="#EDF7FB" d="M23.729,202.494l-8.552-6.384l6.933-29.643c3.793-4.422,12.678-11.582,12.773-11.673L23.729,202.494z"/>
		
			<path fill="none" stroke="#319859" stroke-width="1.8294" stroke-linecap="round" stroke-linejoin="round" stroke-miterlimit="10" d="
			M26.54,196.763"/>
		<g>
			<g>
				<polygon fill="#FFFFFF" points="47.147,136.051 48.12,131.886 45.396,131.704 44.523,135.441 				"/>
				<path fill="#FFFFFF" d="M48.552,131.788l-1.017,4.357c-0.053,0.215-0.269,0.348-0.482,0.296l-2.62-0.613
					c-0.217-0.048-0.353-0.263-0.3-0.481l0.875-3.737L48.552,131.788z"/>
			</g>
		</g>
		<polygon fill="#DEEAEF" points="34.762,155.314 23.729,202.494 15.176,196.11 		"/>
		<polygon fill="#F19304" points="30.554,208.257 29.742,211.72 26.499,210.963 26.857,209.429 		"/>
		<g>
			<path fill="#FFFFFF" stroke="#1B181C" stroke-width="3.4734" stroke-miterlimit="10" d="M42.362,194.249
				c2.75,0.644,4.456,3.392,3.81,6.137c-0.64,2.748-3.388,4.453-6.135,3.81c-2.744-0.641-4.451-3.387-3.808-6.135
				C36.869,195.313,39.619,193.607,42.362,194.249z"/>
		</g>
		<g>
			<path fill="#FFFFFF" stroke="#1B181C" stroke-width="3.4734" stroke-miterlimit="10" d="M54.011,144.433
				c2.748,0.64,4.451,3.392,3.812,6.136c-0.643,2.746-3.39,4.452-6.137,3.812c-2.747-0.642-4.453-3.39-3.812-6.14
				C48.518,145.498,51.265,143.791,54.011,144.433z"/>
		</g>
		<g>
			
				<rect x="24.7" y="168.886" transform="matrix(-0.2264 0.974 -0.974 -0.2264 200.9433 189.4195)" fill="#34495D" width="1.096" height="11.248"/>
		</g>
		<g>
			
				<rect x="20.045" y="188.781" transform="matrix(-0.2287 0.9735 -0.9735 -0.2287 214.559 218.8214)" fill="#34495D" width="1.099" height="11.251"/>
		</g>
		<path opacity="0.5" fill="none" stroke="#233241" stroke-width="1.0511" stroke-linejoin="round" stroke-miterlimit="10" d="
			M33.169,154.918l14.105,3.295l-7.044,30.125c-4.668,0.324-8.727,3.665-9.824,8.361l-5.046-1.182"/>
		<g>
			
				<line fill="none" stroke="#233241" stroke-width="1.0511" stroke-linejoin="round" stroke-miterlimit="10" x1="30.011" y1="175.625" x2="41.973" y2="178.418"/>
		</g>
		
			<line fill="none" stroke="#233241" stroke-width="1.0511" stroke-linecap="round" stroke-linejoin="round" stroke-miterlimit="10" x1="28.755" y1="193.493" x2="29.463" y2="190.462"/>
		
			<line fill="none" stroke="#233241" stroke-width="1.0511" stroke-linecap="round" stroke-linejoin="round" stroke-miterlimit="10" x1="33.365" y1="173.782" x2="34.075" y2="170.751"/>
		
			<path fill="#34495D" stroke="#233241" stroke-width="0.6421" stroke-linecap="round" stroke-linejoin="round" stroke-miterlimit="10" d="
			M28.165,201.847c1.083,0.255,1.755,1.337,1.503,2.423c-0.253,1.081-1.336,1.757-2.421,1.503c-1.083-0.255-1.757-1.337-1.502-2.422
			C25.997,202.266,27.082,201.593,28.165,201.847z"/>
		<path fill="#233241" d="M34.051,153.658c0.969,0.227,1.566,1.194,1.343,2.161l-0.612,2.623c-0.23,0.968-1.198,1.571-2.164,1.342
			l0,0c-0.964-0.222-1.565-1.19-1.339-2.158l0.613-2.627C32.119,154.034,33.084,153.435,34.051,153.658L34.051,153.658z"/>
	</g>
</g>
</svg>
