<?xml version="1.0" encoding="utf-8"?>
<!-- Generator: Adobe Illustrator 15.0.2, SVG Export Plug-In . SVG Version: 6.00 Build 0)  -->
<!DOCTYPE svg PUBLIC "-//W3C//DTD SVG 1.1//EN" "http://www.w3.org/Graphics/SVG/1.1/DTD/svg11.dtd">
<svg version="1.1" xmlns="http://www.w3.org/2000/svg" xmlns:xlink="http://www.w3.org/1999/xlink" x="0px" y="0px"
	 width="489.531px" height="414.988px" viewBox="0 0 489.531 414.988" enable-background="new 0 0 489.531 414.988"
	 xml:space="preserve">
<g id="Original" display="none">
	<g display="inline">
		<path fill="#52AF6C" stroke="#52AF6C" stroke-miterlimit="10" d="M-1392.056-26.186c-2.474,2.587-0.75,1.25-4.25-3.5s-2-3-6.5-5
			s-8.75,1.139-13-3.056s-9.5-7.444-12.5-6.944s-3.5-0.352-6.5-0.051s-7.5,5.551-9,2.551s2.75-5.25,6-9s11.5-7.25,7.25-13
			s-3.5-9.25-8-8.5s-5,1.75-6.5-1.25s-2-5-2-5s-2.25-1.75-6.5,0s-4.5,3.25-4.75,6s0.75,4.5-2.75,4.75s-5.25,2.75-9,3.75
			s-3.25-2-9,1.75s-9.25,2.5-10.25,6.5s-1,5-1.25,6.75s1.5,3.75-3.5,3.75s-9.25-3.75-9.25,1.75s3.5,6,1,8.75s-2.75,3.25-5.25,1.5
			s-2.75-6-4.75-1.5s-1.75,6.25-4.25,5s-4.25-1-3.75,1.25s2.25,4.5,1.75,6.25s-2.5,5.25-0.5,7.5s3.25,4.25,2.25,8.25
			s-0.75,9.75-4.5,9s-1.75-1-0.5-5s3-5.25,1.5-9s-1.5-3.25-1.75-7.75s-0.75-4-0.75-7.25s4-7,0.75-9.25s-1.5-2-3.25-2.25
			s-4.5,8-5.75,9.25s-3,1-3,4s1.75,5,2.25,8.25s2.75,8.5,0.75,8s-4.25-4-6.25-4.75s-5.5-1.25-6.75-1.75s-2-2.5-3.5-3
			s-4.75-3-4.5-1.25s0.25,1.5,2,3.75s4.25,4.75,1.5,5s-1.456-0.23-4.75-0.75c-4.75-0.75-10.5,1-10.5,1c-3,0.5-3.25-0.25-5.75,1.75
			s-6,3-6,4.75s0.5,3.5-3,3.25s-5.25-1.5-3.75-2.5s6.25-2.75,3.5-3.75s-5.5-4.25-5.75-1s-2.25,2.5-1.5,4.75s4.25,3,1.5,4.25
			c0,0-8,1.583-7.75,8.5c0.055,1.52,1,4.5-1.25,2.75s-5-4.25-6.5-1.75s2.25,5.75-0.75,5.75s-4.75-0.75-4.75-4.5s0-5.25-1-7.25
			s-5-5,0.25-3.25s6.75,4.5,9,3.75s7.5-2.25,5.75-5.75s-2.5-6-5.75-8.25s-5.75-1.75-10.5-5.5s-8-5.25-8-5.25s-9.5-6.25-16-1.5
			s-12.75,7.5-19.5,18.5s-5.75,16.5-11.25,20.75s-8.25,6.75-8.25,10.25s-1,17.5,4.25,15.5s3.75-5.25,6.75-5s4.75,15.5,7,14.75
			s0.5-1.5,3-2.5s3,1.25,3.25-2.75s1.424-4,3.212-7.75s3.038-3.25,2.038-5s-2.326-0.5-2.038-3.25s-1.712-5.5,1.788-10.25
			s6-2.255,6-6.752s1.25-8.748,4.25-8.498s6-0.5,4,3s-3,5.75-5,7.75s-3.25-1.25-3.25,4.25s0,12.5,1.5,12.75s3.5,1.5,4.5,0.25
			s3.5-1.5,6-1.75s5.5-1.75,5.5,0.25s-1.25,4.75-2.5,4.75s-4.25-0.25-5.75,0s-3-0.25-3,2s0.75,4,0.75,4s1.5,1.25-0.25,1.5
			c0,0-4.583-1.916-6.25-0.083s-1.25,3.583-1.25,3.583c0.25,3.5,2.75,2.554,1,4.527s-2.75,5.473-4.25,4.473s-1.826-2.75-3.788-1.25
			s-2.712,2-4.212,2.5l-11-1.25c-1.25-1-0.75,1.5-1.25-1s-0.333-0.5-0.083-1.25s0.917,0.25,1-1.083s0.334-1.333-0.083-1.917
			s-0.667,0-0.417-1.833s0.583-2.25,0.583-3.5s0.75-1.833-0.25-1.917s-1.667,0.583-2.583,1.083s-1.25,0.416-2.083,1.083
			s-1.167,0.167-1.25,1.5s1.333,2.167,1.5,2.917s-0.167,1.667,0.167,3.167s0.917,0.917,0.583,2.333c0,0-6.583,4.792-8.458,6.167
			s-4.625,5.417-4.625,5.417s-3.625,4.458-7.125,5.958s-7,1.25-8.125,2.75s-2.393,3.45-0.75,3.375c1.26-0.057,3-0.583,3.5,0.333
			c0,0,4.5,6.251,1.5,13.083c0,0-6.014-0.417-9.757,0.333s-7.493-0.917-7.493,3.583s2.167,8.417,2.167,8.417s-1.5,2.75-0.833,4.75
			s2,2.333,3.167,2.167s2.5-0.201,2.5-0.201c1.667,0.867,1.334,3.617,3.167,2.617s2.5-2,4.417-1.917s3.083,0.667,3.917-1.833
			s1-1.333,2.917-5.333s0.417-2.333,3.917-5.5s0.917-4.25,3.833-5.583s2,1.417,6-0.5s4.167-4.083,6.167-3.5s5.25,1.083,5.5,2.75
			s2.167,4.667,2.917,5.25s2.75,1.167,3.667,2s4,1.5,4,4.25s-1.167,3.916-0.333,4.333s2,0.083,2.167-1.5s0.5-2.25,0.25-3
			s-1.083-2-0.167-1.667s2.083,1.667,2.75,1.167s1-1.166,0.167-1.833s-3-1.583-4.583-3.083s-2.417-2.417-3.833-3.833
			s-4.167-3.083-4.333-5.333s-0.25-3.333,0.917-3.5s1.166-0.584,2.833,1.333s1.917,2.334,4.25,4.417s3.667,2.083,5.167,3.667
			s1.667,0.083,2.25,3.083s0.416,4.25,1.333,5.25s0.667,5,1.667,4.833s1.667-1.417,3.667-0.5s4.583,2.833,4.333,1.083
			s-0.667-1.583-1.333-2.75s-3.917-1-1.083-3.167s2-3.333,4.75-2.25s3.917,2.167,3.583,5s3.75,6.083,4.167,6.583
			s1.417,2.833,2.25,1.333s1.333-3.5,3.083-2.083s2.25,1.75,3,1.75s1.75-0.333,3.583-0.75s3.5-2.416,3.5-0.333
			s0.083,3.333-0.333,5.083s-0.75,4.75-1.917,6.667s-1.833,3.417-3.583,3.25s-1.5-1.499-3.833-1.083s-2.667,1.108-5.25,1.096
			s-3.417,0.07-7.417-1.18s-5.583-2.832-8.25-2.416s-4.833,5.082-7.25,4.749s-3.333,0.666-6.25-1.667s-0.25-2.5-3.917-3.25
			s-3.75,0.834-5-1.583c0,0-3.084-11.916-8.417-11.916s-12.28,0.553-15.25,2.916c-2.966,2.36-2.5,2.833-5.583,3.25
			s-1.5,1.251-5,0.417s-2.917-2.167-5-0.917s-2,2.084-3,2.917s1.333-1.25-2.5,2.5s-1.2,7.417-3.517,9.417s-8.317,4.166-10.65,7.833
			s-3.667,11.5-3.5,16.667s-0.667,5.833-1.5,9.5s-0.167,3.501,1.667,7.167s9.167,12.666,12.833,15.166c0,0,9,2.833,15,2.5
			s9.833-2,9.833-2c4.833-1.666,6.833-4.166,8.667-0.833s6.75,4.024,8.25,3.929s2.068,2.904,2.034,6.154s-3.716,2.75,0,7.75
			s8.716,8.25,9.466,12.25s3,4.5,0.25,8.25s-4,5.5-4,9.75c0,4.25,5,12,5.25,17.25s-1,3,1.5,9.25s4.75,5.75,6,9.75
			s1.25,2.5,1.25,6.25s-4.75,5.75,3.25,5s8,3.75,14.5-1.75s10.75-9,12-13.25s-1.25-6.25,3-8.5s5.5,1.5,5-5.75s-7-4-0.5-9.5
			c6.5-5.5,12.25-2.75,12-10.5c-0.25-7.75-6.75-20-2.5-24.75s17.75-14,19.75-19s8.25-12.75,6.25-15s-4.25-2.75-6.5-1.25
			s-2.25,3-6,2.5s-3.25-1-5.5-2.75s-2.5-2-4.75-4.5s-4-2.25-5.5-6.25s-1-8.75-3.5-12.5s-2.5-5.5-4.75-8.25s-3.25-6.25-1.5-6.25
			s2.25-1.25,4.75,3.25s2.75,5.75,4.75,9.25s1.75,4.75,5.25,8.75s5.25,4.75,5.5,8s-1.25,8.25,2,7.25s9.25-3,14-5.25
			s6.75-1.75,10.75-5.75s5.5-5,7-8.5s4.25-3.75,1.25-5s-3.25-1-4.25-2.75s0.5-5.75-2.25-3.75s-3.5,3.5-6,3.5s-1.5,4-4.5-0.5
			s-1.75-2.5-4.5-5.75s-4.25-3.5-2.75-5.75s4.5-4,5.75-1.5s5.25,6.75,7.25,6.75s5.25-1.25,6.75,0s-0.75,2.25,3,3.25
			s6.25,2.5,8.75,2.5s2.25-3.5,7.25-1.5c0,0,13.71,3.206,16.75,14.75c0.7,2.659,3.75,14,4.75,16.25s1.75,2.5,2.5,5.5
			s3.25,3.5,4.25,2.25s5-8,5-9.75s-3.5-3.75,0-5.5s5.75-3.5,7-6.5s5.25-4,6.5-5.75s5.75-2,7-2.5s3-3.25,5-0.25s6.5,5.5,6.25,7.5
			s-0.98,6,0.01,6.25s0.99,0.75,2.74,0s0.25-2,1.75-0.75s3.5,4.75,4,5.75s0.5,4.5,0,6.75s-2.5,3,0.375,6.25s3.375,4.75,3.625,6.25
			s-2.5,3,0,4s5,4.25,6.25,2.75s1.75-3.25,0-6s-4-5-4.5-6s-4,0-3.25-5s-0.25-7.25,1.75-6.75s2.5,2,5.5,3.5s2,4.75,4.25,4.5
			s5-0.25,6.5-3.75s7-5.25,3.25-8.75s-6.5-1.5-5.5-6.75s1.5-9.5,4-8.5s4.75,0.5,9.75-2s8.75-0.75,13-6.5s9.25-14,6-18.5
			s-5.75-4.5-3.5-8s2.75-2.75,3.25-5s0.25-5.25-2-2.75s-3.5,3-4.5,1.25s-5.25,0-1.25-3s6.75-8.75,8-5.75s5.75,2,6.75,3.5
			s-1.25,3.5,0,5.5s1.25,5.75,2.25,7.5s5.25,6.41,6.25,2.705s3.25-7.705,2.5-9.205s-1.5-3-2.75-5.25s-0.25-3,1.75-5.5
			s3.5-4.75,5.25-5.5s3-1.5,4-1s4,2.5,6.25-2.75s6-8.25,6.5-10.25s4.25-5.5,4-9.5s0.023-3.25,0.012-7.5s1.488-4.25-1.012-6
			s2.75-2.25-2.5-1.75s-5.5-0.75-6.5-1s-4,0-1-2.25s10-11.5,12.75-14s-1-2.25,6.25-2.75s9.75-1.25,12.5-1.25s1.25-0.5,4,1
			s5.5,3.5,6,1s-1.25-1.75,0-4.25s4.25-8,7.25-7.75s4,1.5,4,2.5s0.75,3.5,2.25,2s2.25-8.75,5-8.25s5.5,1.75,2.75,4.75
			s-4.25,4.5-5.75,5.5s-4.5,6.5-6.75,9s-5.25,5-5.5,6.75s-0.5,16.25-0.25,18.75s1.25,5.25,3.75,1s1-4.25,3.25-6.5s0.25,0,2.25-2.25
			s2,0.75,3.5-4.5s1.25,0.75,1.5-5.25s0.75-4.75-0.5-7.5s-0.75-5.75,4.25-8s10.75-5.25,11.25-3s-1.25,6.5,2.5,2.75
			s12.75-12.25,14.5-12s4.75,4,4.25,0.5s0-5.5-1-8.25s3.75-7.75,7.5-7s5.75,0.5,6.5,2.25s5,9.25,5.75,3.75s5.75-3.75,6-8.25
			s-3-3.5-8.5-6s-16.75-15.75-22.5-16.5s-7.5-3.75-11-0.25s-3,4-10.75,3s-8.75,4-13.5-3s-0.5-8.5-9.25-8s-10.75-2.25-14.75-5.75
			s-8.25-5.25-11.75-5.25s-4.75-3.5-7.25,0s2,5-3,6.25C-1373.306-29.936-1383.055-35.603-1392.056-26.186z"/>
		
			<path fill="#52AF6C" stroke="#52AF6C" stroke-width="2" stroke-linecap="round" stroke-linejoin="round" stroke-miterlimit="10" d="
			M-1685.723,55.398c0,0,1.167,5.667,3.167,6.667s4.333,2,3.833,3.5s0,3.667-1.667,4.167s-4,1.167-5.333,1.167s-2.667-1.167-3.667,0
			s-3,4-4,2.5s-1.833-2.167,0-3s3.333-0.833,2.833-1.5s-0.667-0.167-1.333-1s0.833-1.905,0.333-3.286s-2-2.881-1-3.047
			s2.167,1.5,2.333-0.333s1.167-2.5-0.5-3.833s-2.167,0.167-2.167-2s-0.502-2.5-1.584-3.667s-1.916-3.333-2.082-5.5
			s2.833-1.5,2.833-3.5s0.166-3,1.833-2.667s4.667-1.459,3.667-0.063s-3.334,2.896-1.667,3.229s4.833-0.333,4,1.5
			s-1.938,4.667-1.719,5.5S-1685.723,55.398-1685.723,55.398z"/>
		<path fill="#52AF6C" stroke="#52AF6C" stroke-miterlimit="10" d="M-1698.39,55.398c1,0,2.834-1.5,3.167,0s1,2.833,0,3.333
			s-1.972,1.333-1.319,2.5s1.639,2.833-0.021,3.5s-1.994,0.833-3.327,1.833s-2.5,1.833-3.333,1.333s-2.667,0.333-2-1.833
			s1.667-2.833,1-4s-2.953-1.333-1.143-2.667s2.476-0.5,3.476-1.333S-1698.39,55.398-1698.39,55.398z"/>
		
			<path fill="#52AF6C" stroke="#52AF6C" stroke-width="3" stroke-linecap="round" stroke-linejoin="round" stroke-miterlimit="10" d="
			M-1717.056,3.231c1.333,1.5,0.5,1.667,2,2.667s3,0.833,2.5,2.667s-2.167,5.167-3.667,5.667s-5.333,4.167-7.333,4.167
			s-2.5-0.167-4-1.167s-1.333,0.5-2.833-1s0-0.667-0.667-2.667s-0.667-1-2.167-2s-1.333-1.667,0-1.667s2.667,0.833,2-0.833
			s-0.833-2.167-2.333-2s-0.667,1.667-1.5,0.167s-2-1.5,0-2.833s3-3.167,4-1.167s2,3.5,3.5,2.667s3.167-0.333,4.5-1.333
			s2.124-0.166,3.146-0.333S-1717.056,3.231-1717.056,3.231z"/>
		
			<path fill="#52AF6C" stroke="#52AF6C" stroke-width="2" stroke-linecap="round" stroke-linejoin="round" stroke-miterlimit="10" d="
			M-1728.556-87.186c-0.25,1-2.75,2.694,0,7.472s7.494,6.528,4.247,10.528s-2.935,3.5-2.216,7.5s7.713,1.25,2.216,7.25
			s-0.307,10-5.527,12.75s-6.22,1.5-3.97,7s4.25,10.5,2.75,11.25s-2.959,0.5-5.104,6s-5.396,8.5-9.896,9.75s-5-0.75-8,1.75
			s-1.75,7.5-5.25,9.75s-7,1.75-9.5,3.75s-2.5,1.5-3,6.5s-4.5,5-4.75,10.25s2.5,8.75-1.5,9.25s-6.25,1.25-8-2s-1.25-1.25-5.5-7.75
			s-2-1.75-4.5-10s-5.5-10-3.5-15.75s6.25-10.25,5.25-13.75s1-11-4-14.75s-6.5-1-6.5-8.25s-4-21.25-7-23.5s-1.5-3-10.75-3.25
			s-10.75,1.5-13-2.25s-4.25-3.5-3.5-5s6.25,0,5-4s-12.25-9.5-10.25-10.5S-1728.556-87.186-1728.556-87.186z"/>
		
			<path fill="#52AF6C" stroke="#52AF6C" stroke-width="2" stroke-linecap="round" stroke-linejoin="round" stroke-miterlimit="10" d="
			M-1955.556-15.936c0,0,15.5,8.5,24.5,9s6.5-2.5,14,0s11,8.5,16,3.5s12,3.5,9-8.5s-6.056-18.746,0.722-14.873
			s4.778,10.337,8.278,12.105s3.5-1.232,6,5.768s-1.5-11.536,6.5-5.768s12,9.63,8,13.199s-12.833,16.069-18.833,19.902
			s-13.333,14.96-8.333,21.063s9,6.77,14.667,10.437s9-0.175,9.667,6.746s4.666,13.887,6.333,11.404s-1-4.816,1.333-8.816
			s3.667,2.333,4.667-6.333s1.667-7.667,0-12s0.667-3.437-0.333-6.885s0,1.218-1-3.448s-4-6,0.667-6s5.015-2.666,9.174-0.333
			s7.492,2.666,7.492,5.333s1.333,10.127,2,9.897s1.334,1.563,3.667,0s2-7,4.667-5.449s5,11.886,7.333,14.219s6,7.158,8,8.412
			s9,4.254,7,8.921s-2.622,6.667,0.355,9.667s7.312,2,3.645,5s-3.667,5.333-8,3s-7.667-0.667-6-4s5-7.667,2.333-8
			s-2.667,3.522-6,2.594s-5-1.072-8,0s-7.667,0.739-5.667,2.406s3.667,1.666,5,5.333s5.333,5.667,1.333,7s1-1.333-4,1.333
			s-7,4.333-8.333,5.667s0,5.832-4.667,7.25s-6.667,3.084-6.667,6.084s4.667,3.667-0.667,7.667s-6.667,5.333-9,9
			s-2.333-1.333-2.333,3.667s1.667,7.334,1.333,9.667s-1.667,7.333-2.667,5.333s-3-3.001-3-5.667s2.333-3.333,0-4.333
			s-3.334-1.999-7.667-2.333s-6.667-2-8,0.333s-0.333,3.333-3.333,2.333s-2.334-2.334-5.667-1s-5-0.333-6.333,3.667
			s-1,4.257-1.333,7.462s0,8.205,1.333,9.538s8.666,9.001,10.333,5.667s1.333-5,4-5.667s9.667-4,8,0s-6.096,5.999-3.214,8.333
			s5.881,2,6.881,3s3,1.667,3,2.667s-0.667,11.666,3.333,12.333s5-1.334,6.333,0s4,3.666,6,2s4.349-4.667,7.174-6
			s12.159,2.668,14.826,2.334s10.667,0.666,13,2.333s9.667,5.999,11.667,6.333s9.667,12.334,13,13.667s15.667,6.334,19.667,7.667
			s3.667,0.666,6,2.666s4.667,0.334,6,2.667s2,6.001,0,7.667s-5.333,5-7,10.333s-0.334,4.333-1.667,8.333
			c-1.333,4-1,10-4.667,11.667c-3.667,1.668-5.333,1.002-8,2.668s-5-0.668-6,4.666s-1,5-2.667,8.334
			c-1.667,3.332-4.334,12.666-9.667,14.332c-5.333,1.668-5-2.332-7,0c-2,2.334,0,7-3.333,9.334s-4.333,1.334-7.333,4.334
			s-1.333,8-4.333,7s-2-4.74-3.667,0.129c-1.667,4.871-4.333,5.869-4,10.537c0.333,4.666,5,2.666,1.667,7s-8,6.668-7.333,12.334
			s7,14,7.333,15s-3.333,4-8,2.332c-4.667-1.666-7.333-3.332-8.667-8.332s-3-6.002-2.667-13.334c0.333-7.334,3-19,2.333-22
			s-2.333-5-1.333-12s7-12.666,6.333-18.666s-3-3.666-0.667-13s6.667-13.668,2.667-17.668s-8.333-4.667-11.667-9.667
			s-2.667-7.333-5.667-12.333s-5.333-5.001-6.333-7.667s2.333-4.333,1.667-8.333s-0.571-7,2.714-10s4.952-2.999,3.286-7.333
			s-2.238-4.334-3.286-5.334s0.62,0.667-4.047-0.333s-3.667-1.333-7.333-3.333s1.333,1.667-5-4s-11-9.666-16.333-11
			s-2.667,2-7.667-0.667s-9-4.666-11.667-6.333s-7,0-7-3.667s-1.333-7.667-5.333-10.333s-4.667-3-6.333-6s-2.667-5.999-4-7.666
			s-2.333-4.334-3.333-2.334s-1,2.001,0.333,5.334s2.334,7,3.667,8s5,4.666,4.667,5.666s-3.333,6.295-4.667-0.666
			s-2.667-6.667-4-8.667s-2-3.666-3.333-6.333s-2-6-3.333-7.667s-2.333,0.667-7.333-5c-5-5.667-4.667-8.333-6.167-10.667
			s0-124.333,0-124.333V-15.936z"/>
		
			<path fill="#52AF6C" stroke="#52AF6C" stroke-width="2" stroke-linecap="round" stroke-linejoin="round" stroke-miterlimit="10" d="
			M-1956.223-27.903c1.5,1.136,8.167,3.197,7.833,0s-1.309-7.198,0.012-8.531s4.988-2.667,6.988-5s7.333-7.667,2.333-7.667
			s-5.421,2.333-7.544,0s-6.79-3-6.79-3s-2.334-2.667-2.833,0S-1956.223-27.903-1956.223-27.903z"/>
		
			<path fill="#52AF6C" stroke="#52AF6C" stroke-width="2" stroke-linecap="round" stroke-linejoin="round" stroke-miterlimit="10" d="
			M-1907.722-17.767c-1-4-3.667-4.75-5-9.042s-1.667-5.625-2.333-7.958s5.667-1.613,0-4.973s-3,1.306-7,2.306s-0.667,0-5.667-0.333
			s-5.333,1.333-6.333-0.333s0.333-5.946-4.333-1.64s-8,8.136-5.333,10.055s11.333-2.604,11,3.491s-1.175,6.428-4.254,6.428
			s-4.746-3-4.746,0s5,7.667,7,8s8.333,1,11,0s4.333-0.276,7.667,0.528s8.667,0.805,8.333-1.862S-1907.722-17.767-1907.722-17.767z"
			/>
		
			<path fill="#52AF6C" stroke="#52AF6C" stroke-width="2" stroke-linecap="round" stroke-linejoin="round" stroke-miterlimit="10" d="
			M-1898.722-44.767c-2.333-1-2.667-2-6,0s-1.97,2.333-2.985,6.667s0.318,4.333,2.318,6.333s2,1.495,4.667,5.581
			s-0.667-1.581,2-4.248s6.333,0.528,3.667-4.902S-1898.722-44.767-1898.722-44.767z"/>
		
			<path fill="#52AF6C" stroke="#52AF6C" stroke-width="2" stroke-linecap="round" stroke-linejoin="round" stroke-miterlimit="10" d="
			M-1871.389-45.921c-4,0.821-6.333,0.875-7.667,6.181s-0.667,9.034,0,11.837s0.896,5.802,3.448,6.469s2.885,1.667,9.885,2.667
			s0.762-5,8.047,0s18.619,10.333,15.286,16.667s-1,10-5.667,10s-9-2.055-7,2.473s2.333,5.194,6.333,4.527s10.666,9,14.333,9.333
			s8.333,3.333,6-2s5.587-3.333,0.627-9s-6.294-9.667-1.627-7.667s9,6.667,9.333,0.333s-4-6.333-5-9.333s-5,2.662-6.667-7.335
			s-6.652-10.937-12.826-17.134s-4.507-4.197-9.507-8.864s-7-9.34-11.333-4.837s-3.666,9.17-4.333,10.503s-3.667-0.472-4-4.236
			S-1871.389-45.921-1871.389-45.921z"/>
		
			<path fill="#52AF6C" stroke="#52AF6C" stroke-width="2" stroke-linecap="round" stroke-linejoin="round" stroke-miterlimit="10" d="
			M-1869.389,10.373c0,0-8.667,3.857-3.667,8.025s5,1.169,9,1.835s8.667-1.767,4.667-4.717s-3.692-5.144-6.846-5.144
			S-1869.389,10.373-1869.389,10.373z"/>
		
			<path fill="#52AF6C" stroke="#52AF6C" stroke-width="2" stroke-linecap="round" stroke-linejoin="round" stroke-miterlimit="10" d="
			M-1892.056-47.434c4.667-1,9-2,9.333,0s4,2.993,0,5.83s-2.667,6.365-5,6.268s-2.667,3.764-4.333,0
			S-1892.056-47.434-1892.056-47.434z"/>
		
			<path fill="#52AF6C" stroke="#52AF6C" stroke-width="4" stroke-linecap="round" stroke-linejoin="round" stroke-miterlimit="10" d="
			M-1849.932-87.63c0,0-0.124,2.863-2.124,5.53s-2.667,0.333-3.333,6.333s8.057,11-2.472,10.333s-6.302,3.119-16.749,0.06
			s-15.446-5.726-9.113-8.393s15-6,12-9.333s0.333-4.53,0.333-4.53H-1849.932z"/>
		
			<path fill="#52AF6C" stroke="#52AF6C" stroke-width="2" stroke-linecap="round" stroke-linejoin="round" stroke-miterlimit="10" d="
			M-1866.235-61.434c1.513-0.333,8.236-0.667,8.375,3.333s2.486,4.296-4.188,4.815s-7.341-0.852-11.007,0s-4.667,1.391-9,0.121
			s-3.886,0.569-4.776-3.85s-2.89-7.085-3.89-8.752s-4-5.667,0-3.333s6.46,7.31,10.896,7.988S-1866.235-61.434-1866.235-61.434z"/>
		
			<path fill="#52AF6C" stroke="#52AF6C" stroke-width="2" stroke-linecap="round" stroke-linejoin="round" stroke-miterlimit="10" d="
			M-1899.056-66.1c-1.333-1.333-1.667-5.426-4.667-3.713s-2,0.921-6.333,1.65s-8-0.398-2.667,3.999s8,2.04,8,3.052
			s2.594,4.678,3.63,4.678s1.036,3.333,2.036,0S-1899.056-66.1-1899.056-66.1z"/>
		
			<path fill="#52AF6C" stroke="#52AF6C" stroke-width="2" stroke-linecap="round" stroke-linejoin="round" stroke-miterlimit="10" d="
			M-1919.389-64.164c-3.667-3.603-2.333-6.854-5-6.062s-0.933,2.126-1.8,4.459s0.8,3.022-3.2,3.178s-6.175-0.868-7.587,1.477
			s-4.587,3.011,0,3.678s8.254-2.667,6.254,0s-6,4.712-0.667,5.023s5.667-0.393,8-0.875s7.667-3.814,6-6.481
			S-1919.389-64.164-1919.389-64.164z"/>
		<path fill="#52AF6C" stroke="#52AF6C" stroke-miterlimit="10" d="M-1116.056-6.436c-1.5-1.5-5.5-7.176-10-3.838
			s-8,9.838-12.5,3.838s-3-8.5-10.5-8.5s-1.5-0.5-10.5,0s-9,0.556-16.5-0.222s1-0.222-11,0s-13-0.778-18.5-2.778s-5-3-11.5-4.5
			s-10.5-4.631-17-2.315s-14,5.122-15,9.969s-6.5,6.244,0,10.795s11,6.551,8,8.551s-6.5,2.616-7.5,5.808s7.5,3.859,6,8.025
			s-5-3.214-3,6.976s3.5,24.19,12,22.69s8.5-5.206,10-8.603s-10.5-4,5-5.449s21.5,1.846,26,5.449s26.5,20.603,28,26.103
			s5,20.319,4,26.66s-4,9.34,2.5,20.34s7.5,8.5,15,19s12.5,16.5,12.5,14.5s-4.5-14.5-4.5-14.5s8.5,9,10.5,11s8.5,12.5,8.5,12.5
			V-6.436z"/>
		<path fill="#52AF6C" stroke="#52AF6C" stroke-miterlimit="10" d="M-1116.056-27.903c0,0,1.5-11.369-2.5-13.701
			s-4.5,1.267-10,0.467s0,6.268-10.5-1.266s-7.5-7.839-15-6.187s-11,0.716-9,9.935s-1.5,14.284,5.5,10.751s-1-9.533,7-3.533
			s6-0.5,8,6s4.5,7.5,6.5,10s-6,9.833,4,4.667s10-6.167,13-7.167S-1116.056-27.903-1116.056-27.903z"/>
		<path fill="#52AF6C" stroke="#52AF6C" stroke-miterlimit="10" d="M-1343.056,273.065c0,0-1,22-10.5,21.5s-14,3.5-17-2
			s-4.5-9.5-6.5-11s-0.5,3-6.5-1s1-10-9-7.5s-12.5,5.5-17,7s-3,3.85-10.5,3.924c-7.5,0.076-7.5,5.076-8-2.424s3-9.5,0-15.5
			s-5.1-9-0.05-14s13.55-1.5,15.05-7.5c1.5-6,1-5.5,6.5-9s7,5.5,10.5,0c3.5-5.5,6-12.5,12-7.5s4.5,0,6,5s1.5,8.5,5.5,5.5
			c4-3,2-15.926,4.5-12.213s7,8.213,9.5,13.213c2.5,5,13.5,12.5,15.5,18.5S-1343.056,273.065-1343.056,273.065z"/>
		<path fill="#52AF6C" stroke="#52AF6C" stroke-miterlimit="10" d="M-1391.389,203.564c0,0,2.459,0.333,4.729,2s4.27,4,5.604,2.667
			s1.001-4.604,5.334-2.136s6.666,2.803,9.333,4.136s5,0.999,6,3.333s4.666,4.986,6.333,6.993s4.666,8.253,0,5.13
			s-5.333-4.137-9.333-5.13s-5.172,1.993-8.086,0s-2.247,2.007-2.914-1.993s-0.667-5.334-5-6s-6.541-1.667-7.271-3
			s-4.729-0.666-4.729-3.333S-1391.389,203.564-1391.389,203.564z"/>
		<path fill="#52AF6C" stroke="#52AF6C" stroke-miterlimit="10" d="M-1420.722,188.564c-4,0-6.334,1-7.667,3s-3.999,4-6.333,4.667
			s-5.334,0.334-5.334,3.667s-0.666,5.332,2.334,6.666s8.666,2.334,10.666,2.334s2.334-2.001,4.334-5.334s3.334-2.334,2-6
			s-2-4.332-1-6.666S-1420.722,188.564-1420.722,188.564z"/>
		<path fill="#52AF6C" stroke="#52AF6C" stroke-miterlimit="10" d="M-1469.889,190.565c0,0,1.668-0.834,3.334,0.833
			s4.333,3.166,5.333,4.333s3.5,1.666,5.5,3s2.167,2.834,4.167,5.667s5.834,2.167,5.5,4.5s0.833,6.647-1.667,6.157
			s-4.499-1.158-5.833-2.824s-4.501-4.499-5.334-6.166s-1.333-3-4.333-5.667s-3.166-3.666-5.833-5.833
			S-1469.889,190.565-1469.889,190.565z"/>
		<path fill="#52AF6C" stroke="#52AF6C" stroke-miterlimit="10" d="M-1443.055,215.094c0.5,0.472,6,2.304,6.5,2.138
			s3.974-0.166,5.403,0.834s6.263,2.666,3.263,2.833s-4,0.333-6,0s-2-1.167-4.5-1.167s-5.332,0.001-6.166-0.666s0-1.333,0-2
			S-1443.055,215.094-1443.055,215.094z"/>
		<path fill="#52AF6C" stroke="#52AF6C" stroke-miterlimit="10" d="M-1401.055,221.091c-0.5-0.192-3.668-0.475-4.334,0
			s-3.166,1.142-3.333,2.142s-1.167,3.244,0,2.455s1.833-2.236,2.333-2.346s2,0.776,2.667,0S-1401.055,221.091-1401.055,221.091z"/>
		<path fill="#52AF6C" stroke="#52AF6C" stroke-miterlimit="10" d="M-1413.722,160.565c-0.833,0-1.667,3-2.167,4.5s-1,0.834,0,2.667
			s2.5,3,3.167,2.5s-0.166-2.333,0.667-3.5s1.832-3.001,1.166-4.334S-1413.722,160.565-1413.722,160.565z"/>
		<path fill="#52AF6C" stroke="#52AF6C" stroke-miterlimit="10" d="M-1403.389,181.232c-2.333,0.5-1.832,1.499-3.166,1.666
			s-0.782-1-2.725,0s-1.841,2.501-1.392,2.334s1.449-0.641,1.949,0.013s1.166,2.818,2.333,3.319s3.833-0.665,3-2.332
			s2-1.668,1-3.334S-1403.389,181.232-1403.389,181.232z"/>
		<path fill="#52AF6C" stroke="#52AF6C" stroke-miterlimit="10" d="M-1414.555,204.732c1.5,0,0.999-1.669,2.666-1.168
			s3.719-0.26,2.609,0.537s-2.352,1.63-2.48,2.297s2.923,1.834,2.48,3.667s-1.019,2.667-2.48,2.5s-0.822-4.001-1.809-3.667
			s-2.153-1.667-2.153,0s0.167,2.541,0,3.688s-1.166,2.48-1.833,1.646s-0.667-1.334-0.667-3.167s0.833-1.666,0-2.833
			s0.167-1.5,0-2.667s1.845-3.347,1.756-2.84S-1414.555,204.732-1414.555,204.732z"/>
		<path fill="#52AF6C" stroke="#52AF6C" stroke-miterlimit="10" d="M-1297.556,305.731c0.167-1.166,2.834-2,0.667-3.166
			c-2.167-1.168-2.667-1.668-3.667-1c-1,0.666-0.833,1.332-2,3c-1.167,1.666-1.999,1.834-3.333,3.166
			c-1.334,1.334-0.334,1.168-3.334,3.5c-3,2.334-3.834,2.5-4,4s3.001,3,4.334,3.166c1.333,0.168,3.671,0.502,4.252-1.166
			c0.581-1.666,2.081-4,2.081-5.5s0.166-2.166,1.833-3S-1297.556,305.731-1297.556,305.731z"/>
		<path fill="#52AF6C" stroke="#52AF6C" stroke-miterlimit="10" d="M-1290.556,291.897c-1.333-0.832-2.333-3-2.833-3.5
			s-1.644-1.947-2.655-3.057s-2.845-1.223-2.012,0c0.833,1.225,1.856,3.557,2.012,4.225c0.155,0.666,2.777,2.832,1.633,3.832
			s-0.788,1.547-1.633,2.107s-1.345,1.227-1.012,1.727s4,0.332,4,1.666s-1.333,1.402-0.333,2.369c1,0.965,2.5,2.033,2.833,0
			c0.333-2.035-1.833-2.369,0-3.701c1.833-1.334,2.833-1.668,2.833-3c0-1.334,0.834-0.738-0.833-1.119
			S-1290.556,291.897-1290.556,291.897z"/>
	</g>
</g>
<g id="Himmel" display="none">
	<path fill="#52AF6C" stroke="#52AF6C" stroke-miterlimit="10" d="M-880.828,183.842"/>
	<rect x="-289.593" y="-60.159" display="inline" fill="#D3ECF9" width="960" height="600"/>
</g>
<g id="Jordglob_1_">
	<path display="none" fill="#156EA0" d="M133.484,368.175c-70.877,0-128.333-57.457-128.333-128.333
		c0-70.877,57.456-128.334,128.333-128.334V368.175z"/>
</g>
<g id="Sol">
	<g display="none">
		
			<polygon display="inline" fill="#FFCE09" stroke="#FFCE09" stroke-linecap="round" stroke-linejoin="round" stroke-miterlimit="10" points="
			760.847,72.946 773.285,107.918 806.808,91.983 790.874,125.507 825.847,137.944 790.874,150.381 806.808,183.904 
			773.285,167.969 760.847,202.943 748.413,167.969 714.887,183.904 730.824,150.381 695.847,137.944 730.824,125.507 
			714.887,91.983 748.413,107.918 		"/>
		
			<polygon display="inline" fill="#FFD93F" stroke="#FFD93F" stroke-width="2" stroke-linecap="round" stroke-linejoin="round" stroke-miterlimit="10" points="
			707.996,117.678 740.31,118.471 737.804,86.241 760.095,109.652 781.113,85.09 780.325,117.406 812.553,114.903 789.14,137.194 
			813.702,158.211 781.384,157.418 783.893,189.649 761.599,166.237 740.582,190.799 741.373,158.482 709.144,160.988 
			732.554,138.695 		"/>
		
			<circle display="inline" fill="#FFD93F" stroke="#FFD93F" stroke-width="2" stroke-linecap="round" stroke-linejoin="round" stroke-miterlimit="10" cx="760.849" cy="137.943" r="40.137"/>
	</g>
	<g display="none">
		
			<polygon display="inline" fill="#FFCE09" stroke="#FFCE09" stroke-linecap="round" stroke-linejoin="round" stroke-miterlimit="10" points="
			708.453,251.797 739.758,270.141 766.703,245.842 766.47,282.125 800.986,293.311 769.448,311.25 777.019,346.735 
			745.713,328.391 718.768,352.69 719.001,316.408 684.485,305.221 716.024,287.282 		"/>
		
			<polygon display="inline" fill="#FFD93F" stroke="#FFD93F" stroke-linecap="round" stroke-linejoin="round" stroke-miterlimit="10" points="
			697.651,281.565 728.333,280.668 736.749,251.151 752.866,277.274 782.637,269.805 768.073,296.823 789.428,318.872 
			758.746,319.768 750.331,349.286 734.212,323.163 704.44,330.632 719.005,303.614 		"/>
		
			<circle display="inline" fill="#FFD93F" stroke="#FFD93F" stroke-width="1.648" stroke-linecap="round" stroke-linejoin="round" stroke-miterlimit="10" cx="743.539" cy="300.218" r="33.073"/>
	</g>
	<g>
		<circle fill="#109B97" cx="180.705" cy="239.842" r="128.333"/>
		<g>
			<defs>
				<circle id="SVGID_1_" cx="180.705" cy="239.842" r="128.333"/>
			</defs>
			<clipPath id="SVGID_2_">
				<use xlink:href="#SVGID_1_"  overflow="visible"/>
			</clipPath>
			
				<path clip-path="url(#SVGID_2_)" fill="#6CD39D" stroke="#6CD39D" stroke-linecap="round" stroke-linejoin="round" stroke-miterlimit="10" d="
				M144.461,200.897"/>
			
				<path clip-path="url(#SVGID_2_)" fill="#83AF6E" stroke="#83AF6E" stroke-linecap="round" stroke-linejoin="round" stroke-miterlimit="10" d="
				M125.149,195.803c0,0,1.15,5.587,3.123,6.573c1.972,0.986,4.273,1.973,3.78,3.453c-0.493,1.479,0,3.616-1.644,4.108
				c-1.644,0.493-3.944,1.151-5.259,1.151c-1.315,0-2.63-1.15-3.616,0c-0.987,1.15-2.958,3.944-3.945,2.466
				c-0.986-1.479-1.808-2.137,0-2.958c1.808-0.823,3.288-0.822,2.794-1.48c-0.493-0.657-0.657-0.164-1.315-0.985
				c-0.657-0.822,0.822-1.879,0.329-3.241c-0.493-1.362-1.973-2.841-0.986-3.005c0.986-0.165,2.137,1.478,2.302-0.329
				c0.164-1.808,1.15-2.465-0.494-3.78c-1.644-1.315-2.137,0.165-2.137-1.972s-0.495-2.466-1.562-3.617
				c-1.067-1.15-1.889-3.287-2.053-5.424c-0.165-2.136,2.794-1.479,2.794-3.451s0.163-2.959,1.807-2.63
				c1.645,0.329,4.602-1.439,3.616-0.062c-0.986,1.377-3.287,2.856-1.644,3.185s4.766-0.329,3.944,1.479
				c-0.821,1.808-1.91,4.602-1.695,5.423C123.505,191.53,125.149,195.803,125.149,195.803z"/>
			
				<path clip-path="url(#SVGID_2_)" fill="#83AF6E" stroke="#83AF6E" stroke-linecap="round" stroke-linejoin="round" stroke-miterlimit="10" d="
				M108.657,197.803c0.986,0,2.795-1.479,3.124,0c0.328,1.479,0.986,2.793,0,3.287c-0.987,0.493-1.944,1.314-1.302,2.466
				c0.644,1.15,1.616,2.793-0.021,3.45c-1.636,0.659-1.966,0.823-3.281,1.809c-1.314,0.985-2.464,1.807-3.286,1.315
				c-0.822-0.494-2.629,0.328-1.973-1.809c0.658-2.136,1.644-2.794,0.986-3.945c-0.658-1.15-2.912-1.314-1.126-2.629
				c1.784-1.315,2.441-0.493,3.428-1.315C106.192,199.61,108.657,197.803,108.657,197.803z"/>
			
				<path display="none" clip-path="url(#SVGID_2_)" fill="#6CD39D" stroke="#6CD39D" stroke-linecap="round" stroke-linejoin="round" stroke-miterlimit="10" d="
				M94.25,144.359c1.315,1.479,0.493,1.644,1.972,2.63c1.479,0.986,2.959,0.821,2.465,2.63c-0.493,1.808-2.136,5.095-3.615,5.588
				c-1.479,0.493-5.26,4.109-7.232,4.109c-1.972,0-2.465-0.164-3.944-1.15c-1.479-0.987-1.315,0.492-2.794-0.987
				c-1.479-1.479,0-0.657-0.658-2.63c-0.658-1.972-0.658-0.985-2.136-1.972c-1.479-0.986-1.314-1.644,0-1.644
				c1.315,0,2.63,0.822,1.972-0.822c-0.657-1.643-0.821-2.137-2.301-1.972c-1.479,0.164-0.658,1.644-1.479,0.164
				c-0.821-1.479-1.972-1.479,0-2.794s2.959-3.123,3.944-1.15c0.986,1.973,1.972,3.452,3.452,2.63
				c1.479-0.822,3.123-0.329,4.438-1.315c1.315-0.986,2.095-0.164,3.102-0.328C92.443,145.181,94.25,144.359,94.25,144.359z"/>
			
				<path clip-path="url(#SVGID_2_)" fill="#6CD39D" stroke="#6CD39D" stroke-linecap="round" stroke-linejoin="round" stroke-miterlimit="10" d="
				M82.91,55.196c-0.247,0.986-2.711,2.657,0,7.368c2.712,4.711,7.39,6.438,4.188,10.382c-3.202,3.944-2.894,3.452-2.185,7.396
				s7.606,1.232,2.185,7.149c-5.42,5.917-0.301,9.862-5.45,12.573c-5.148,2.712-6.134,1.48-3.915,6.903
				c2.218,5.424,4.19,10.354,2.711,11.094c-1.479,0.74-2.917,0.493-5.033,5.917c-2.116,5.424-5.321,8.382-9.759,9.615
				c-4.437,1.232-4.931-0.74-7.889,1.725c-2.958,2.465-1.726,7.396-5.178,9.615c-3.451,2.219-6.903,1.727-9.368,3.699
				s-2.465,1.479-2.958,6.41c-0.493,4.93-4.438,4.93-4.684,10.107c-0.247,5.177,2.465,8.628-1.479,9.122
				c-3.945,0.493-6.164,1.232-7.889-1.973c-1.726-3.205-1.233-1.232-5.424-7.642s-1.972-1.726-4.438-9.861
				c-2.465-8.136-5.423-9.862-3.452-15.532c1.973-5.67,6.164-10.107,5.178-13.559c-0.987-3.452,0.986-10.848-3.945-14.545
				c-4.931-3.698-6.41-0.986-6.41-8.136c0-7.15-3.944-20.956-6.903-23.174c-2.958-2.219-1.479-2.958-10.601-3.205
				c-9.122-0.246-10.601,1.479-12.82-2.219s-4.191-3.452-3.452-4.931c0.739-1.479,6.163,0,4.931-3.945
				c-1.233-3.944-12.081-9.368-10.107-10.354C-29.264,54.209,82.91,55.196,82.91,55.196z"/>
			
				<path clip-path="url(#SVGID_2_)" fill="#6CD39D" stroke="#6CD39D" stroke-linecap="round" stroke-linejoin="round" stroke-miterlimit="10" d="
				M-140.944,125.458c0,0,15.286,8.382,24.161,8.875c8.875,0.493,6.41-2.466,13.806,0c7.397,2.465,10.848,8.382,15.778,3.451
				c4.931-4.93,11.834,3.452,8.875-8.382c-2.958-11.834-5.972-18.486,0.713-14.667c6.684,3.819,4.711,10.193,8.163,11.937
				c3.452,1.744,3.452-1.214,5.917,5.688c2.466,6.903-1.479-11.376,6.41-5.688c7.889,5.688,11.834,9.497,7.889,13.017
				c-3.944,3.52-12.655,15.846-18.572,19.626c-5.917,3.78-13.149,14.753-8.217,20.771c4.93,6.02,8.875,6.676,14.462,10.293
				c5.589,3.615,8.876-0.174,9.533,6.651c0.657,6.825,4.601,13.694,6.245,11.246c1.644-2.448-0.986-4.75,1.315-8.694
				c2.301-3.944,3.616,2.302,4.602-6.245c0.986-8.546,1.643-7.56,0-11.833c-1.644-4.273,0.657-3.389-0.329-6.79
				c-0.986-3.401,0,1.201-0.986-3.401c-0.986-4.602-3.944-5.917,0.657-5.917c4.601,0,4.945-2.629,9.047-0.329
				c4.102,2.3,7.389,2.629,7.389,5.259s1.314,9.986,1.972,9.759c0.658-0.226,1.315,1.542,3.616,0
				c2.301-1.541,1.973-6.903,4.602-5.373c2.629,1.53,4.931,11.721,7.232,14.021c2.301,2.3,5.917,7.059,7.889,8.295
				c1.972,1.236,8.875,4.195,6.903,8.798c-1.973,4.601-2.586,6.574,0.351,9.532c2.937,2.959,7.209,1.973,3.594,4.931
				c-3.616,2.958-3.616,5.26-7.889,2.958c-4.273-2.301-7.56-0.657-5.917-3.945c1.644-3.287,4.93-7.561,2.3-7.889
				c-2.629-0.329-2.63,3.474-5.917,2.558c-3.287-0.915-4.931-1.057-7.889,0c-2.958,1.058-7.56,0.73-5.588,2.373
				c1.972,1.644,3.616,1.643,4.931,5.259c1.315,3.616,5.259,5.587,1.315,6.903c-3.945,1.315,0.985-1.315-3.945,1.315
				c-4.931,2.629-6.903,4.274-8.218,5.587c-1.315,1.315,0,5.752-4.602,7.148c-4.603,1.398-6.575,3.042-6.575,5.999
				c0,2.96,4.603,3.617-0.657,7.561c-5.26,3.945-6.574,5.258-8.875,8.877c-2.301,3.614-2.301-1.315-2.301,3.614
				c0,4.932,1.644,7.235,1.315,9.535c-0.33,2.299-1.644,7.231-2.629,5.259c-0.987-1.974-2.959-2.96-2.959-5.589s2.301-3.288,0-4.273
				c-2.301-0.986-3.288-1.972-7.561-2.301c-4.272-0.328-6.575-1.973-7.889,0.329c-1.314,2.301-0.328,3.286-3.287,2.301
				c-2.958-0.986-2.302-2.304-5.588-0.986c-3.287,1.313-4.93-0.329-6.245,3.614c-1.314,3.945-0.986,4.2-1.314,7.359
				c-0.33,3.161,0,8.091,1.314,9.407c1.315,1.313,8.545,8.874,10.19,5.589c1.643-3.288,1.314-4.932,3.944-5.589
				c2.63-0.659,9.532-3.945,7.889,0c-1.644,3.943-6.012,5.915-3.169,8.217c2.841,2.301,5.799,1.974,6.786,2.958
				c0.986,0.987,2.958,1.645,2.958,2.629c0,0.986-0.658,11.505,3.287,12.165c3.944,0.656,4.931-1.318,6.246,0
				c1.315,1.312,3.945,3.613,5.917,1.97c1.973-1.642,4.289-4.602,7.075-5.917c2.787-1.312,11.991,2.631,14.62,2.303
				c2.629-0.33,10.519,0.657,12.82,2.301c2.301,1.645,9.532,5.915,11.504,6.245c1.972,0.328,9.532,12.163,12.82,13.478
				c3.288,1.313,15.45,6.246,19.395,7.561c3.945,1.314,3.616,0.658,5.917,2.63s4.602,0.329,5.917,2.628
				c1.314,2.302,1.972,5.921,0,7.562c-1.973,1.643-5.259,4.931-6.903,10.19c-1.644,5.258-0.33,4.273-1.644,8.218
				c-1.315,3.944-0.986,9.86-4.602,11.504c-3.617,1.646-5.26,0.988-7.889,2.63c-2.63,1.646-4.931-0.658-5.917,4.603
				c-0.985,5.26-0.985,4.932-2.629,8.217c-1.644,3.288-4.273,12.492-9.533,14.135c-5.259,1.645-4.931-2.299-6.903,0
				c-1.973,2.301,0,6.903-3.287,9.205c-3.287,2.301-4.273,1.315-7.231,4.273c-2.959,2.958-1.315,7.89-4.273,6.903
				c-2.958-0.986-1.973-4.676-3.616,0.128c-1.643,4.802-4.273,5.788-3.944,10.391c0.329,4.602,4.93,2.629,1.644,6.902
				c-3.287,4.274-7.889,6.575-7.232,12.163c0.658,5.588,6.903,13.806,7.232,14.792c0.329,0.986-3.288,3.945-7.889,2.302
				c-4.603-1.646-7.231-3.288-8.546-8.219c-1.315-4.932-2.958-5.918-2.629-13.148c0.328-7.232,2.958-18.737,2.3-21.696
				c-0.657-2.958-2.3-4.932-1.314-11.833c0.986-6.903,6.902-12.492,6.245-18.408c-0.658-5.915-2.958-3.615-0.658-12.819
				c2.302-9.205,6.575-13.477,2.63-17.423c-3.944-3.941-8.217-4.601-11.504-9.531s-2.63-7.231-5.588-12.163
				c-2.958-4.93-5.26-4.932-6.246-7.562c-0.986-2.629,2.3-4.271,1.643-8.215c-0.657-3.945-0.563-6.905,2.677-9.862
				c3.24-2.959,4.883-2.957,3.24-7.232c-1.644-4.272-2.207-4.272-3.24-5.26c-1.032-0.985,0.611,0.657-3.991-0.329
				c-4.603-0.984-3.616-1.312-7.232-3.285c-3.616-1.973,1.315,1.644-4.93-3.945c-6.246-5.589-10.848-9.53-16.107-10.849
				c-5.259-1.312-2.63,1.975-7.56-0.656c-4.931-2.63-8.875-4.602-11.505-6.246c-2.63-1.644-6.903,0-6.903-3.616
				c0-3.615-1.315-7.561-5.26-10.189c-3.944-2.63-4.602-2.957-6.246-5.915c-1.644-2.959-2.63-5.917-3.944-7.561
				c-1.315-1.645-2.3-4.275-3.287-2.301c-0.986,1.973-0.987,1.973,0.328,5.258c1.315,3.288,2.302,6.904,3.616,7.889
				c1.315,0.987,4.932,4.603,4.603,5.589c-0.33,0.985-3.287,6.207-4.603-0.656c-1.315-6.865-2.629-6.576-3.944-8.548
				c-1.315-1.97-1.972-3.615-3.287-6.245s-1.973-5.916-3.287-7.562c-1.314-1.642-2.301,0.659-7.232-4.93
				c-4.93-5.588-4.603-8.218-6.082-10.52c-1.479-2.3,0-122.607,0-122.607V125.458z"/>
			
				<path clip-path="url(#SVGID_2_)" fill="#6CD39D" stroke="#6CD39D" stroke-linecap="round" stroke-linejoin="round" stroke-miterlimit="10" d="
				M-141.601,113.657c1.479,1.12,8.053,3.153,7.725,0s-1.291-7.098,0.012-8.413c1.304-1.314,4.919-2.63,6.891-4.93
				c1.973-2.301,7.232-7.561,2.301-7.561s-5.346,2.302-7.439,0c-2.093-2.301-6.696-2.958-6.696-2.958s-2.301-2.629-2.793,0
				S-141.601,113.657-141.601,113.657z"/>
			
				<path clip-path="url(#SVGID_2_)" fill="#6CD39D" stroke="#6CD39D" stroke-linecap="round" stroke-linejoin="round" stroke-miterlimit="10" d="
				M-93.773,123.652c-0.986-3.945-3.616-4.685-4.931-8.916c-1.315-4.232-1.644-5.547-2.301-7.848c-0.658-2.301,5.588-1.59,0-4.904
				c-5.588-3.313-2.958,1.289-6.903,2.274c-3.945,0.986-0.657,0.001-5.588-0.328c-4.931-0.329-5.26,1.314-6.246-0.329
				s0.329-5.864-4.273-1.617c-4.603,4.247-7.889,8.024-5.259,9.916c2.629,1.892,11.176-2.567,10.847,3.442
				c-0.329,6.01-1.159,6.339-4.195,6.339c-3.037,0-4.681-2.958-4.681,0c0,2.959,4.931,7.561,6.904,7.889
				c1.972,0.329,8.218,0.987,10.847,0c2.629-0.986,4.273-0.272,7.561,0.521c3.287,0.794,8.546,0.794,8.217-1.836
				C-94.101,125.625-93.773,123.652-93.773,123.652z"/>
			
				<path clip-path="url(#SVGID_2_)" fill="#6CD39D" stroke="#6CD39D" stroke-linecap="round" stroke-linejoin="round" stroke-miterlimit="10" d="
				M-84.897,97.026c-2.301-0.986-2.629-1.972-5.917,0c-3.287,1.973-1.943,2.301-2.943,6.574c-1.001,4.273,0.313,4.273,2.286,6.246
				c1.972,1.972,1.972,1.474,4.602,5.503c2.63,4.03-0.657-1.559,1.973-4.188c2.629-2.63,6.246,0.521,3.616-4.834
				C-83.911,100.971-84.897,97.026-84.897,97.026z"/>
			
				<path clip-path="url(#SVGID_2_)" fill="#6CD39D" stroke="#6CD39D" stroke-linecap="round" stroke-linejoin="round" stroke-miterlimit="10" d="
				M-57.943,95.888c-3.944,0.81-6.245,0.864-7.56,6.096c-1.315,5.233-0.658,8.909,0,11.673c0.657,2.764,0.884,5.722,3.4,6.379
				c2.516,0.658,2.845,1.644,9.748,2.63c6.903,0.986,0.751-4.93,7.936,0c7.185,4.93,18.361,10.19,15.074,16.435
				c-3.287,6.247-0.986,9.862-5.588,9.862c-4.602,0-8.875-2.026-6.903,2.438c1.973,4.464,2.301,5.122,6.246,4.464
				c3.945-0.657,10.518,8.876,14.135,9.204c3.616,0.329,8.217,3.288,5.916-1.971c-2.3-5.26,5.51-3.288,0.619-8.875
				c-4.892-5.589-6.207-9.533-1.604-7.561c4.603,1.972,8.875,6.574,9.204,0.329c0.329-6.246-3.944-6.246-4.93-9.205
				c-0.986-2.958-4.93,2.626-6.574-7.233c-1.644-9.859-6.56-10.786-12.648-16.896c-6.088-6.112-4.445-4.14-9.375-8.741
				c-4.931-4.602-6.903-9.211-11.176-4.77c-4.273,4.441-3.615,9.043-4.273,10.358s-3.616-0.465-3.944-4.177
				C-60.572,102.614-57.943,95.888-57.943,95.888z"/>
			
				<path clip-path="url(#SVGID_2_)" fill="#6CD39D" stroke="#6CD39D" stroke-linecap="round" stroke-linejoin="round" stroke-miterlimit="10" d="
				M-55.971,151.401c0,0-8.546,3.803-3.616,7.914c4.931,4.11,4.931,1.153,8.875,1.81c3.944,0.658,8.546-1.742,4.602-4.651
				c-3.944-2.909-3.642-5.072-6.751-5.072C-55.971,151.401-55.971,151.401-55.971,151.401z"/>
			
				<path clip-path="url(#SVGID_2_)" fill="#6CD39D" stroke="#6CD39D" stroke-linecap="round" stroke-linejoin="round" stroke-miterlimit="10" d="
				M-78.324,94.396c4.603-0.986,8.876-1.972,9.205,0c0.328,1.972,3.944,2.952,0,5.749c-3.945,2.798-2.629,6.278-4.931,6.181
				c-2.301-0.096-2.63,3.711-4.274,0C-79.966,102.614-78.324,94.396-78.324,94.396z"/>
			
				<path clip-path="url(#SVGID_2_)" fill="#6CD39D" stroke="#6CD39D" stroke-linecap="round" stroke-linejoin="round" stroke-miterlimit="10" d="
				M-36.783,54.758c0,0-0.122,2.823-2.095,5.453c-1.972,2.63-2.63,0.329-3.287,6.246c-0.658,5.917,7.945,10.847-2.438,10.189
				c-10.382-0.657-6.214,3.076-16.517,0.059c-10.301-3.018-15.231-5.646-8.986-8.277c6.246-2.63,14.792-5.917,11.833-9.204
				c-2.958-3.288,0.329-4.467,0.329-4.467H-36.783z"/>
			
				<path clip-path="url(#SVGID_2_)" fill="#6CD39D" stroke="#6CD39D" stroke-linecap="round" stroke-linejoin="round" stroke-miterlimit="10" d="
				M-52.861,80.59c1.492-0.328,8.123-0.657,8.258,3.288c0.137,3.944,2.453,4.237-4.129,4.748c-6.581,0.512-7.238-0.839-10.854,0
				c-3.615,0.84-4.602,1.372-8.875,0.12c-4.274-1.252-3.833,0.562-4.71-3.796c-0.878-4.359-2.85-6.988-3.836-8.632
				c-0.986-1.644-3.945-5.587,0-3.287c3.944,2.301,6.371,7.209,10.745,7.877C-61.888,81.577-52.861,80.59-52.861,80.59z"/>
			
				<path clip-path="url(#SVGID_2_)" fill="#6CD39D" stroke="#6CD39D" stroke-linecap="round" stroke-linejoin="round" stroke-miterlimit="10" d="
				M-85.226,75.989c-1.315-1.315-1.644-5.351-4.602-3.662s-1.972,0.909-6.246,1.627c-4.273,0.72-7.889-0.392-2.63,3.944
				c5.259,4.336,7.889,2.012,7.889,3.009c0,0.998,2.559,4.614,3.58,4.614c1.022,0,1.022,3.287,2.008,0
				C-84.24,82.234-85.226,75.989-85.226,75.989z"/>
			
				<path clip-path="url(#SVGID_2_)" fill="#6CD39D" stroke="#6CD39D" stroke-linecap="round" stroke-linejoin="round" stroke-miterlimit="10" d="
				M-105.278,77.898c-3.616-3.553-2.301-6.759-4.931-5.978c-2.629,0.781-0.919,2.096-1.775,4.397
				c-0.854,2.301,0.789,2.981-3.155,3.134c-3.945,0.153-6.09-0.856-7.482,1.456c-1.393,2.313-4.524,2.97,0,3.627
				c4.523,0.658,8.139-2.63,6.167,0c-1.973,2.63-5.917,4.647-0.658,4.954c5.26,0.306,5.588-0.388,7.889-0.863
				c2.301-0.474,7.56-3.761,5.917-6.391C-104.949,79.605-105.278,77.898-105.278,77.898z"/>
			
				<path clip-path="url(#SVGID_2_)" fill="#6CD39D" stroke="#6CD39D" stroke-linecap="round" stroke-linejoin="round" stroke-miterlimit="10" d="
				M686.917,134.826c-1.479-1.479-5.422-7.077-9.861-3.785c-4.438,3.292-7.889,9.702-12.328,3.785
				c-4.436-5.917-2.957-8.382-10.352-8.382c-7.396,0-1.48-0.493-10.355,0c-8.875,0.493-8.875,0.548-16.27-0.219
				c-7.398-0.767,0.984-0.22-10.85,0c-11.834,0.219-12.818-0.767-18.242-2.74c-5.426-1.972-4.932-2.958-11.34-4.438
				c-6.412-1.479-10.355-4.566-16.766-2.283c-6.412,2.283-13.805,5.051-14.791,9.831c-0.988,4.779-6.412,6.157,0,10.646
				c6.408,4.488,10.846,6.46,7.889,8.433c-2.961,1.973-6.41,2.58-7.398,5.728c-0.984,3.147,7.398,3.805,5.918,7.914
				c-1.48,4.108-4.93-3.17-2.959,6.879c1.973,10.049,3.451,23.855,11.836,22.375c8.381-1.479,8.381-5.133,9.859-8.484
				c1.48-3.35-10.354-3.944,4.932-5.373s21.201,1.82,25.639,5.373c4.439,3.554,26.133,20.318,27.613,25.742
				c1.479,5.423,4.93,20.037,3.945,26.29c-0.988,6.251-3.945,9.211,2.463,20.058c6.41,10.849,7.396,8.383,14.793,18.737
				c7.396,10.354,12.326,16.271,12.326,14.298s-4.438-14.298-4.438-14.298s8.383,8.874,10.354,10.847
				c1.973,1.972,8.383,12.326,8.383,12.326V134.826z"/>
			
				<path clip-path="url(#SVGID_2_)" fill="#6CD39D" stroke="#6CD39D" stroke-linecap="round" stroke-linejoin="round" stroke-miterlimit="10" d="
				M686.917,113.657c0,0,1.479-11.211-2.465-13.511c-3.945-2.299-4.438,1.25-9.861,0.461c-5.424-0.789,0,6.181-10.354-1.248
				c-10.355-7.43-7.398-7.731-14.791-6.102c-7.398,1.63-10.85,0.707-8.877,9.797c1.973,9.091-1.479,14.086,5.424,10.603
				c6.902-3.484-0.986-9.4,6.902-3.484c7.891,5.917,5.916-0.494,7.891,5.917c1.971,6.41,4.436,7.396,6.408,9.862
				c1.973,2.465-5.916,9.697,3.945,4.602c9.861-5.095,9.861-6.082,12.818-7.068C686.917,122.5,686.917,113.657,686.917,113.657z"/>
			
				<path clip-path="url(#SVGID_2_)" fill="#6CD39D" stroke="#6CD39D" stroke-linecap="round" stroke-linejoin="round" stroke-miterlimit="10" d="
				M463.066,410.45c0,0-0.988,21.697-10.355,21.203c-9.369-0.493-13.807,3.451-16.764-1.974c-2.959-5.422-4.438-9.367-6.41-10.846
				s-0.492,2.957-6.41-0.986c-5.918-3.946,0.986-9.862-8.875-7.397c-9.861,2.467-12.326,5.424-16.764,6.905
				c-4.439,1.479-2.961,3.795-10.355,3.869c-7.396,0.075-7.396,5.004-7.891-2.391c-0.492-7.397,2.961-9.368,0-15.284
				c-2.957-5.919-5.027-8.878-0.047-13.808s13.361-1.479,14.842-7.396c1.479-5.916,0.984-5.423,6.408-8.875s6.904,5.422,10.355,0
				c3.451-5.425,5.916-12.326,11.834-7.397c5.916,4.932,4.436,0,5.916,4.932c1.48,4.931,1.48,8.382,5.424,5.425
				c3.945-2.959,1.973-15.704,4.438-12.044s6.902,8.098,9.369,13.028c2.465,4.932,13.312,12.327,15.285,18.245
				C465.039,401.576,463.066,410.45,463.066,410.45z"/>
			
				<path clip-path="url(#SVGID_2_)" fill="#6CD39D" stroke="#6CD39D" stroke-linecap="round" stroke-linejoin="round" stroke-miterlimit="10" d="
				M415.402,341.915c0,0,2.424,0.329,4.664,1.972c2.24,1.646,4.211,3.946,5.525,2.63c1.316-1.313,0.988-4.54,5.26-2.105
				c4.273,2.435,6.574,2.764,9.205,4.078c2.629,1.315,4.93,0.984,5.916,3.287c0.986,2.302,4.604,4.917,6.244,6.896
				c1.645,1.98,4.602,8.139,0,5.06c-4.598-3.079-5.258-4.08-9.203-5.06c-3.943-0.978-5.1,1.965-7.973,0
				c-2.873-1.966-2.217,1.98-2.873-1.966c-0.658-3.943-0.658-5.26-4.932-5.916c-4.271-0.656-6.449-1.645-7.17-2.957
				c-0.721-1.316-4.664-0.658-4.664-3.289C415.402,341.915,415.402,341.915,415.402,341.915z"/>
			
				<path clip-path="url(#SVGID_2_)" fill="#6CD39D" stroke="#6CD39D" stroke-linecap="round" stroke-linejoin="round" stroke-miterlimit="10" d="
				M386.476,327.122c-3.945,0-6.246,0.986-7.561,2.959c-1.314,1.974-3.943,3.945-6.246,4.603c-2.301,0.656-5.26,0.33-5.26,3.616
				c0,3.287-0.656,5.258,2.303,6.574c2.957,1.314,8.545,2.301,10.518,2.301s2.301-1.974,4.273-5.26
				c1.973-3.288,3.287-2.302,1.973-5.917c-1.316-3.616-1.973-4.272-0.986-6.573C386.476,327.122,386.476,327.122,386.476,327.122z"
				/>
			
				<path clip-path="url(#SVGID_2_)" fill="#6CD39D" stroke="#6CD39D" stroke-linecap="round" stroke-linejoin="round" stroke-miterlimit="10" d="
				M337.99,329.095c0,0,1.646-0.82,3.289,0.822s4.271,3.121,5.258,4.271s3.451,1.645,5.424,2.959
				c1.973,1.316,2.139,2.795,4.111,5.589c1.973,2.795,5.752,2.138,5.422,4.438c-0.33,2.301,0.822,6.556-1.643,6.072
				c-2.467-0.482-4.438-1.142-5.752-2.785c-1.316-1.645-4.439-4.438-5.26-6.081c-0.822-1.644-1.316-2.957-4.273-5.588
				c-2.959-2.629-3.123-3.617-5.752-5.752C336.183,330.903,337.99,329.095,337.99,329.095z"/>
			
				<path clip-path="url(#SVGID_2_)" fill="#6CD39D" stroke="#6CD39D" stroke-linecap="round" stroke-linejoin="round" stroke-miterlimit="10" d="
				M364.451,353.284c0.494,0.465,5.918,2.272,6.412,2.109c0.492-0.166,3.918-0.166,5.328,0.821s6.178,2.629,3.217,2.793
				c-2.959,0.165-3.943,0.328-5.916,0c-1.973-0.329-1.973-1.15-4.438-1.15s-5.258,0.002-6.082-0.655c-0.822-0.658,0-1.315,0-1.975
				C362.972,354.571,364.451,353.284,364.451,353.284z"/>
			
				<path clip-path="url(#SVGID_2_)" fill="#6CD39D" stroke="#6CD39D" stroke-linecap="round" stroke-linejoin="round" stroke-miterlimit="10" d="
				M405.871,359.199c-0.494-0.191-3.617-0.47-4.273,0c-0.658,0.466-3.123,1.125-3.287,2.111c-0.166,0.984-1.15,3.198,0,2.421
				s1.807-2.206,2.301-2.313c0.492-0.107,1.971,0.766,2.629,0C403.898,360.653,405.871,359.199,405.871,359.199z"/>
			
				<path clip-path="url(#SVGID_2_)" fill="#6CD39D" stroke="#6CD39D" stroke-linecap="round" stroke-linejoin="round" stroke-miterlimit="10" d="
				M393.38,299.511c-0.822,0-1.645,2.958-2.137,4.438c-0.496,1.479-0.988,0.821,0,2.628c0.984,1.81,2.465,2.96,3.121,2.467
				c0.656-0.494-0.162-2.301,0.656-3.451c0.824-1.15,1.809-2.959,1.15-4.275C395.517,300.004,393.38,299.511,393.38,299.511z"/>
			
				<path clip-path="url(#SVGID_2_)" fill="#6CD39D" stroke="#6CD39D" stroke-linecap="round" stroke-linejoin="round" stroke-miterlimit="10" d="
				M403.568,319.893c-2.299,0.492-1.805,1.477-3.121,1.643c-1.314,0.162-0.771-0.988-2.686,0c-1.916,0.985-1.816,2.466-1.373,2.299
				c0.443-0.162,1.428-0.63,1.922,0.015c0.492,0.646,1.15,2.778,2.301,3.272c1.15,0.495,3.779-0.655,2.957-2.299
				c-0.82-1.644,1.973-1.646,0.986-3.287C403.568,319.893,403.568,319.893,403.568,319.893z"/>
			
				<path clip-path="url(#SVGID_2_)" fill="#6CD39D" stroke="#6CD39D" stroke-linecap="round" stroke-linejoin="round" stroke-miterlimit="10" d="
				M392.558,343.065c1.479,0,0.984-1.644,2.629-1.15s3.666-0.256,2.574,0.529c-1.096,0.785-2.32,1.609-2.447,2.266
				s2.883,1.809,2.447,3.616c-0.439,1.808-1.006,2.628-2.447,2.464s-0.812-3.944-1.783-3.615c-0.973,0.33-2.123-1.643-2.123,0
				s0.162,2.506,0,3.637c-0.164,1.131-1.152,2.446-1.809,1.623c-0.656-0.822-0.656-1.316-0.656-3.121c0-1.809,0.818-1.645,0-2.795
				c-0.822-1.152,0.164-1.48,0-2.632c-0.168-1.149,1.818-3.301,1.729-2.799C390.585,341.586,392.558,343.065,392.558,343.065z"/>
			
				<path clip-path="url(#SVGID_2_)" fill="#6CD39D" stroke="#6CD39D" stroke-linecap="round" stroke-linejoin="round" stroke-miterlimit="10" d="
				M507.935,442.665c0.164-1.15,2.795-1.972,0.658-3.123c-2.139-1.15-2.631-1.644-3.619-0.987c-0.986,0.658-0.82,1.315-1.971,2.96
				c-1.15,1.644-1.971,1.809-3.287,3.125c-1.314,1.313-0.33,1.149-3.289,3.45c-2.957,2.301-3.779,2.464-3.941,3.942
				c-0.164,1.48,2.959,2.958,4.271,3.124c1.316,0.164,3.621,0.494,4.193-1.151c0.574-1.644,2.053-3.942,2.053-5.424
				c0-1.479,0.162-2.135,1.809-2.957C506.455,444.801,507.935,442.665,507.935,442.665z"/>
			
				<path clip-path="url(#SVGID_2_)" fill="#6CD39D" stroke="#6CD39D" stroke-linecap="round" stroke-linejoin="round" stroke-miterlimit="10" d="
				M514.837,429.023c-1.314-0.822-2.301-2.959-2.795-3.451c-0.49-0.493-1.619-1.922-2.617-3.015c-1-1.095-2.807-1.208-1.984,0
				c0.822,1.206,1.832,3.507,1.984,4.165c0.152,0.657,2.738,2.793,1.609,3.779c-1.129,0.987-0.775,1.525-1.609,2.078
				c-0.832,0.552-1.326,1.21-1,1.704c0.33,0.491,3.947,0.326,3.947,1.643c0,1.314-1.314,1.383-0.33,2.335
				c0.988,0.951,2.467,2.005,2.795,0c0.328-2.008-1.807-2.335,0-3.649c1.807-1.315,2.795-1.644,2.795-2.959
				c0-1.314,0.82-0.728-0.822-1.103C515.166,430.173,514.837,429.023,514.837,429.023z"/>
			
				<path clip-path="url(#SVGID_2_)" fill="#83AF6E" stroke="#83AF6E" stroke-linecap="round" stroke-linejoin="round" stroke-miterlimit="10" d="
				M110.611,261.994c-4.185,3.233-1.211,7.311-3.503,9.273c-2.292,1.964-8.217,4.076-10.532,7.684
				c-2.315,3.608-3.659,11.327-3.514,16.422c0.146,5.096-0.678,5.751-1.514,9.365c-0.835,3.61-0.178,3.45,1.617,7.071
				c1.795,3.624,8.993,12.524,12.599,15.004c0,0,8.864,2.828,14.782,2.521c5.918-0.305,9.704-1.936,9.704-1.936
				c4.772-1.626,6.754-4.083,8.55-0.789c1.795,3.295,6.642,3.994,8.121,3.904c1.479-0.088,2.028,2.873,1.982,6.077
				c-0.045,3.204-3.675,2.699-0.029,7.644s8.564,8.167,9.289,12.114c0.725,3.948,2.942,4.451,0.216,8.136
				c-2.726,3.689-3.965,5.41-3.981,9.602c-0.016,4.189,4.886,11.851,5.113,17.03c0.227,5.177-0.997,2.953,1.444,9.126
				c2.442,6.174,4.663,5.689,5.88,9.637c1.218,3.95,1.223,2.472,1.209,6.17c-0.014,3.697-4.705,5.652,3.187,4.941
				c7.893-0.708,7.875,3.728,14.305-1.671c6.43-5.399,10.635-8.835,11.884-13.021s-1.21-6.168,2.989-8.37
				c4.2-2.203,5.419,1.499,4.953-5.65c-0.467-7.152-6.889-3.973-0.459-9.373c6.431-5.397,12.092-2.663,11.873-10.309
				c-0.217-7.645-6.581-19.747-2.373-24.416c4.209-4.668,17.557-13.74,19.547-18.662c1.992-4.922,8.184-12.543,6.219-14.769
				c-1.963-2.227-4.18-2.729-6.404-1.259c-2.225,1.471-2.23,2.951-5.926,2.445c-3.695-0.508-3.201-1-5.413-2.732
				c-2.213-1.735-2.458-1.983-4.667-4.456c-2.211-2.474-3.937-2.233-5.401-6.184c-1.464-3.951-0.953-8.634-3.404-12.34
				c-2.451-3.708-2.444-5.434-4.653-8.154c-2.209-2.72-3.182-6.174-1.456-6.167s2.224-1.226,4.673,3.222
				c2.447,4.447,2.689,5.681,4.648,9.139c1.96,3.461,1.709,4.691,5.145,8.648c3.438,3.959,5.16,4.704,5.395,7.908
				c0.234,3.207-1.264,8.131,1.945,7.158s9.132-2.923,13.826-5.124c4.691-2.201,6.66-1.7,10.621-5.631
				c3.959-3.929,5.443-4.91,6.936-8.355c1.49-3.445,4.205-3.682,1.25-4.927c-2.953-1.243-3.201-0.997-4.182-2.728
				c-0.977-1.729,0.516-5.668-2.205-3.706c-2.719,1.962-3.465,3.438-5.93,3.429c-2.463-0.009-1.494,3.94-4.434-0.511
				c-2.94-4.448-1.718-2.471-4.416-5.687c-2.701-3.214-4.179-3.466-2.691-5.68c1.488-2.215,4.452-3.928,5.678-1.459
				c1.221,2.472,5.15,6.679,7.123,6.686c1.971,0.008,5.182-1.214,6.658,0.025c1.473,1.237-0.75,2.214,2.943,3.215
				c3.695,1,6.156,2.489,8.619,2.499c2.467,0.009,2.232-3.444,7.156-1.453c0,0,13.508,3.212,16.461,14.608
				c0.682,2.624,3.646,13.82,4.625,16.041c0.977,2.224,1.717,2.473,2.445,5.433c0.727,2.962,3.191,3.466,4.182,2.234
				c0.99-1.228,4.961-7.87,4.967-9.593c0.008-1.728-3.436-3.714,0.021-5.426s5.684-3.429,6.928-6.386
				c1.244-2.952,5.193-3.921,6.43-5.645c1.238-1.719,5.678-1.949,6.914-2.438c1.234-0.489,2.969-3.194,4.932-0.229
				c1.961,2.966,6.389,5.447,6.135,7.419c-0.256,1.971-0.988,5.913-0.014,6.164s0.973,0.744,2.701,0.01
				c1.729-0.733,0.256-1.971,1.729-0.733c1.477,1.237,3.434,4.698,3.924,5.685c0.488,0.989,0.477,4.439-0.025,6.658
				c-0.502,2.217-2.475,2.95,0.346,6.165c2.824,3.215,3.311,4.695,3.551,6.177c0.24,1.479-2.477,2.948-0.014,3.943
				c2.461,0.996,4.916,4.209,6.152,2.734c1.24-1.474,1.738-3.196,0.023-5.916s-3.928-4.947-4.416-5.934
				c-0.488-0.987-3.945-0.015-3.186-4.941c0.758-4.928-0.221-7.15,1.75-6.651c1.971,0.5,2.459,1.98,5.412,3.472
				s1.953,4.692,4.174,4.454c2.219-0.239,4.932-0.229,6.424-3.674c1.49-3.445,6.922-5.15,3.236-8.618
				c-3.684-3.464-6.402-1.503-5.398-6.676c1.008-5.172,1.514-9.361,3.977-8.366s4.682,0.511,9.623-1.937
				c4.939-2.445,8.631-0.706,12.844-6.36c4.211-5.654,9.174-13.771,5.984-18.222c-3.188-4.45-5.652-4.459-3.42-7.903
				c2.232-3.441,2.723-2.699,3.221-4.916c0.504-2.217,0.268-5.178-1.961-2.722c-2.229,2.458-3.463,2.945-4.441,1.219
				c-0.979-1.732-5.176-0.02-1.221-2.964c3.957-2.943,6.689-8.603,7.908-5.641c1.225,2.964,5.664,1.993,6.646,3.477
				c0.979,1.482-1.248,3.445-0.021,5.423c1.225,1.979,1.211,5.674,2.191,7.405c0.979,1.73,5.152,6.342,6.152,2.69
				c1-3.65,3.234-7.586,2.502-9.068c-0.736-1.481-1.469-2.965-2.693-5.188c-1.227-2.224-0.236-2.958,1.746-5.414
				c1.982-2.459,3.469-4.672,5.197-5.406c1.729-0.732,2.963-1.468,3.947-0.969c0.986,0.495,3.936,2.479,6.176-2.689
				c2.238-5.169,5.947-8.113,6.445-10.084c0.5-1.97,4.215-5.407,3.982-9.353c-0.234-3.946,0.033-3.205,0.039-7.396
				c0.004-4.191,1.482-4.186-0.977-5.921c-2.459-1.735,2.721-2.208-2.459-1.735c-5.178,0.473-5.42-0.76-6.404-1.011
				c-0.986-0.25-3.945-0.015-0.979-2.223c2.967-2.207,9.904-11.303,12.625-13.757c2.721-2.455-0.979-2.223,6.174-2.688
				c7.152-0.466,9.619-1.196,12.33-1.186c2.713,0.01,1.234-0.489,3.943,1c2.705,1.489,5.408,3.472,5.912,1.009
				c0.502-2.464-1.229-1.731,0.016-4.192c1.242-2.46,4.221-7.873,7.178-7.615c2.959,0.258,3.939,1.494,3.936,2.48
				s0.727,3.454,2.211,1.979c1.486-1.473,2.254-8.62,4.963-8.116c2.709,0.503,5.416,1.746,2.693,4.694
				c-2.723,2.948-4.209,4.421-5.691,5.402c-1.482,0.98-4.461,6.393-6.689,8.85c-2.227,2.457-5.195,4.911-5.449,6.635
				c-0.252,1.725-0.553,16.023-0.314,18.489c0.234,2.466,1.213,5.182,3.691,1c2.482-4.182,1.004-4.188,3.23-6.398
				c2.227-2.21,0.246,0.001,2.227-2.21c1.982-2.212,1.971,0.748,3.469-4.425c1.5-5.171,1.23,0.744,1.5-5.171
				c0.268-5.916,0.758-4.681-0.467-7.398c-1.223-2.717-0.719-5.674,4.221-7.873c4.939-2.2,10.623-5.137,11.105-2.916
				c0.484,2.22-1.256,6.405,2.455,2.72c3.713-3.683,12.619-12.032,14.344-11.779c1.725,0.253,4.668,3.962,4.189,0.509
				c-0.48-3.453,0.021-5.425-0.957-8.139c-0.973-2.716,3.729-7.628,7.424-6.875c3.697,0.754,5.668,0.515,6.402,2.244
				c0.732,1.728,4.895,9.14,5.656,3.72c0.76-5.421,5.684-3.677,5.947-8.113c0.262-4.437-2.943-3.463-8.361-5.949
				c-5.412-2.486-16.457-15.594-22.125-16.355s-7.381-3.726-10.846-0.288c-3.467,3.439-2.975,3.934-10.613,2.919
				s-8.643,3.912-13.301-3.009c-4.66-6.92-0.463-8.384-9.092-7.923c-8.631,0.46-10.594-2.258-14.525-5.726
				c-3.932-3.466-8.115-5.208-11.566-5.221c-3.451-0.013-4.672-3.469-7.148-0.027c-2.48,3.442,1.951,4.938-2.984,6.152
				c0,0-9.592-5.625-18.502,3.628c-2.449,2.542-0.744,1.23-4.178-3.468c-3.436-4.697-1.963-2.966-6.391-4.955
				c-4.43-1.989-8.635,1.09-12.811-3.061c-4.176-4.152-9.34-7.377-12.301-6.895c-2.959,0.482-3.449-0.36-6.408-0.075
				s-7.418,5.445-8.887,2.482c-1.467-2.964,2.732-5.167,5.951-8.853c3.219-3.686,11.367-7.107,7.199-12.793
				c-4.17-5.686-3.418-9.135-7.855-8.412c-4.443,0.723-4.939,1.707-6.406-1.257c-1.469-2.965-1.955-4.938-1.955-4.938
				s-2.213-1.734-6.41-0.024s-4.449,3.188-4.705,5.9c-0.258,2.71,0.721,4.439-2.73,4.672c-3.451,0.234-5.188,2.693-8.891,3.666
				c-3.699,0.972-3.197-1.984-8.881,1.692c-5.684,3.677-9.131,2.431-10.133,6.372c-1,3.941-1.004,4.927-1.258,6.652
				c-0.252,1.725,1.465,3.703-3.465,3.685s-9.105-3.732-9.127,1.691c-0.02,5.423,3.428,5.93,0.953,8.632
				c-2.477,2.702-2.725,3.194-5.182,1.459c-2.461-1.734-2.691-5.927-4.68-1.497c-1.99,4.43-1.75,6.158-4.209,4.915
				c-2.461-1.242-4.188-1.002-3.705,1.219c0.486,2.22,2.203,4.445,1.705,6.169c-0.5,1.724-2.486,5.167-0.521,7.394
				c1.965,2.226,3.188,4.203,2.186,8.144c-0.998,3.94-0.773,9.612-4.469,8.858s-1.723-0.993-0.475-4.933
				c1.246-3.939,2.979-5.166,1.512-8.869c-1.465-3.704-1.467-3.21-1.695-7.649c-0.232-4.438-0.727-3.947-0.715-7.152
				c0.014-3.205,3.973-6.888,0.775-9.119s-1.471-1.978-3.197-2.231c-1.723-0.253-4.467,7.873-5.705,9.101
				c-1.234,1.228-2.963,0.975-2.973,3.933c-0.012,2.959,1.709,4.938,2.188,8.144c0.482,3.207,2.682,8.393,0.711,7.892
				c-1.969-0.5-4.178-3.96-6.145-4.707c-1.971-0.748-5.42-1.253-6.65-1.751s-1.963-2.473-3.441-2.972
				c-1.477-0.498-4.672-2.976-4.432-1.249s0.242,1.48,1.957,3.706c1.719,2.226,4.172,4.7,1.461,4.936
				c-2.715,0.236-1.436-0.232-4.682-0.757c-4.684-0.757-10.359,0.947-10.359,0.947c-2.959,0.482-3.203-0.258-5.678,1.705
				c-2.471,1.963-5.926,2.936-5.932,4.662c-0.008,1.726,0.479,3.454-2.971,3.194s-5.172-1.499-3.688-2.48
				c1.482-0.98,6.173-2.688,3.466-3.685c-2.709-0.996-5.408-4.212-5.668-1.007c-0.258,3.204-2.228,2.457-1.496,4.678
				c0.73,2.222,4.18,2.975,1.463,4.197c0,0-7.895,1.531-7.674,8.354c0.049,1.499,0.969,4.441-1.242,2.707
				c-2.213-1.734-4.916-4.209-6.404-1.75s2.197,5.678-0.761,5.667c-2.958-0.011-4.681-0.756-4.667-4.455s0.02-5.177-0.959-7.153
				c-0.98-1.977-4.913-4.949,0.258-3.204c5.17,1.746,6.639,4.463,8.861,3.731c2.223-0.73,7.404-2.19,5.691-5.648
				c-1.713-3.458-2.442-5.926-5.639-8.157c-3.197-2.231-5.664-1.747-10.334-5.463c-4.671-3.716-7.869-5.208-7.869-5.208
				s-9.346-6.198-15.773-1.539c-6.427,4.66-12.601,7.348-19.298,18.17c-6.698,10.822-5.732,16.249-11.171,20.42
				c-5.44,4.171-8.162,6.626-8.175,10.077c-0.013,3.452-1.051,17.254,4.134,15.301c5.185-1.952,3.717-5.163,6.675-4.906
				c2.958,0.259,4.626,15.303,6.848,14.572c2.222-0.73,0.499-1.477,2.968-2.454c2.469-0.977,2.954,1.244,3.215-2.7
				c0.261-3.943,1.419-3.939,3.196-7.63c1.777-3.69,3.008-3.194,2.029-4.923c-0.979-1.729-2.292-0.501-1.998-3.212
				c0.294-2.71-1.667-5.43,1.802-10.101c3.469-4.671,5.925-2.201,5.942-6.637c0.017-4.435,1.265-8.622,4.223-8.364
				c2.957,0.258,5.918-0.471,3.933,2.974c-1.986,3.444-1.463,7.403-3.443,9.367c-1.98,1.964-3.201-1.245-3.221,4.179
				s-1.563,10.583-0.085,10.835c1.479,0.251,3.447,1.493,4.437,0.263c0.991-1.228,3.457-1.466,5.923-1.703
				c2.466-0.237,5.43-1.705,5.422,0.267c-0.007,1.973-1.25,4.68-2.483,4.675c-1.232-0.004-4.189-0.261-5.67-0.021
				c-1.481,0.242-2.958-0.257-2.966,1.961c-0.008,2.219,0.725,3.948,0.725,3.948s1.475,1.237-0.251,1.478
				c0,0-4.513-1.906-6.165-0.105c-1.649,1.802-1.245,3.529-1.245,3.529c0.233,3.451,2.703,2.528,0.97,4.467
				s-2.732,5.387-4.208,4.395c-1.476-0.991-1.791-2.718-3.731-1.247c-1.94,1.472-2.682,1.962-4.163,2.45l-10.843-1.274
				c-1.229-0.99-0.745,1.477-1.229-0.99c-0.483-2.467-0.927-0.498-0.678-1.236c0.25-0.739,0.903,0.25,0.99-1.064
				c0.087-1.314,0.334-1.313-0.075-1.89c-0.409-0.578-0.658-0.003-0.404-1.81c0.253-1.807,0.583-2.216,0.588-3.449
				c0.004-1.233,0.747-1.805-0.24-1.891c-0.985-0.086-1.646,0.569-2.552,1.058c-0.905,0.49-0.633,0.408-1.457,1.063
				c-0.825,0.654-1.751,0.157-1.839,1.472c-0.087,1.314,1.308,2.142,1.469,2.882c0.161,0.74-0.171,1.643,0.152,3.123
				c0.323,1.48,1.501,0.91,1.167,2.306c0,0-6.51,4.701-8.364,6.049c-1.854,1.349-4.581,5.324-4.581,5.324s-3.592,4.384-7.048,5.85
				c-3.457,1.466-6.908,1.206-8.023,2.681c-1.115,1.476-2.373,3.394-0.752,3.327c1.243-0.052,2.961-0.563,3.451,0.341
				c0,0,4.414,6.182,1.431,12.908c0,0-5.929-0.434-9.624,0.292c-3.694,0.725-7.386-0.932-7.402,3.506
				c-0.017,4.435,2.106,8.307,2.106,8.307s-1.49,2.708-0.841,4.681c0.65,1.976,1.964,2.307,3.115,2.147
				c1.151-0.158,2.466-0.187,2.466-0.187c1.641,0.861,1.302,3.571,3.114,2.591c1.811-0.979,2.472-1.961,4.362-1.872
				c1.889,0.088,3.037,0.668,3.868-1.795c0.832-2.46,0.991-1.309,2.896-5.247c1.905-3.937,0.42-2.3,3.883-5.408
				c3.463-3.11,0.92-4.187,3.801-5.492c2.881-1.304,1.967,1.406,5.919-0.469c3.952-1.877,4.124-4.012,6.094-3.43
				c1.971,0.583,5.173,1.088,5.414,2.733c0.241,1.643,2.12,4.608,2.856,5.188c0.738,0.576,2.708,1.162,3.609,1.986
				c0.9,0.823,3.938,1.495,3.928,4.205c-0.01,2.713-1.166,3.856-0.345,4.271c0.82,0.415,1.971,0.09,2.142-1.471
				c0.17-1.562,0.501-2.217,0.257-2.956c-0.243-0.741-1.06-1.977-0.158-1.647c0.903,0.334,2.049,1.654,2.708,1.162
				c0.659-0.49,0.99-1.146,0.171-1.806c-0.818-0.661-2.951-1.575-4.508-3.058c-1.556-1.486-2.374-2.394-3.766-3.796
				c-1.392-1.4-4.098-3.055-4.253-5.274c-0.156-2.219-0.233-3.287,0.917-3.449c1.151-0.16,1.152-0.57,2.789,1.326
				c1.637,1.897,1.881,2.309,4.175,4.371c2.292,2.064,3.608,2.07,5.082,3.636c1.473,1.566,1.644,0.088,2.207,3.048
				c0.564,2.962,0.395,4.192,1.295,5.184c0.9,0.987,0.64,4.932,1.625,4.77c0.987-0.16,1.649-1.39,3.618-0.479
				c1.968,0.913,4.509,2.812,4.269,1.086c-0.24-1.727-0.651-1.562-1.305-2.719c-0.652-1.15-3.859-0.999-1.056-3.125
				c2.802-2.126,1.984-3.279,4.692-2.2c2.708,1.078,3.854,2.148,3.515,4.942c-0.34,2.793,3.674,6.015,4.083,6.508
				c0.409,0.495,1.387,2.8,2.214,1.324c0.828-1.476,1.328-3.448,3.049-2.044c1.721,1.405,2.212,1.735,2.951,1.738
				c0.74,0.003,1.728-0.321,3.537-0.727c1.809-0.403,3.461-2.37,3.453-0.315c-0.008,2.053,0.069,3.285-0.349,5.012
				c-0.417,1.725-0.757,4.681-1.915,6.565c-1.158,1.888-1.82,3.363-3.545,3.192c-1.727-0.17-1.475-1.483-3.777-1.082
				c-2.302,0.401-2.633,1.084-5.18,1.061c-2.548-0.022-3.371,0.056-7.31-1.19c-3.94-1.248-5.495-2.814-8.126-2.413
				c-2.632,0.399-4.786,4.993-7.168,4.654c-2.382-0.337-3.29,0.646-6.157-1.666s-0.236-2.468-3.85-3.22
				c-3.614-0.755-3.702,0.809-4.925-1.58c0,0-2.996-11.762-8.255-11.782c-5.259-0.02-12.111,0.5-15.049,2.819
				c-2.934,2.315-2.476,2.785-5.518,3.184c-3.042,0.4-1.387,0.29-4.932,0.393C120.982,257.594,115.795,257.99,110.611,261.994z"/>
		</g>
		<g>
			<g>
				<g>
					<path fill="#6E9659" d="M179.411,101.521c0.031-1.133,0.289-7.75-0.63-9.929c-2.266-5.37-10.429-5.713-10.429-5.713
						s-1.7,11.129,6.476,12.905c3.2,0.694,3.03,0.706,3.249,2.804l-0.101,2.445l1.327,0.055L179.411,101.521z"/>
				</g>
			</g>
			<g>
				<g>
					<path fill="#83AF6E" d="M180.794,97.229c0.065-1.127,0.365-7.743,1.46-9.838c2.71-5.163,10.874-4.819,10.874-4.819
						s0.762,11.233-7.537,12.318c-3.246,0.425-3.075,0.449-3.474,2.52l-0.286,6.786l-1.327-0.055L180.794,97.229z"/>
				</g>
				<g>
					<path fill="#83AF6E" d="M180.916,95.254c0.169-2.461,0.545-6.347,1.339-7.864c2.71-5.163,10.874-4.819,10.874-4.819"/>
				</g>
			</g>
		</g>
		
			<rect x="314.823" y="285.057" transform="matrix(-0.4155 0.9096 -0.9096 -0.4155 717.9703 130.4683)" fill="#B07F48" width="4.487" height="21.715"/>
		
			<rect x="316.409" y="284.037" transform="matrix(-0.4158 0.9095 -0.9095 -0.4158 717.7552 128.7309)" fill="#905E36" width="2.245" height="21.715"/>
		
			<path fill="#83AF6E" stroke="#83AF6E" stroke-width="0.0429" stroke-linecap="round" stroke-linejoin="round" stroke-miterlimit="10" d="
			M333.378,328.122c5.337,2.435,11.641,0.085,14.077-5.254c0.463-1.012,0.752-2.059,0.881-3.106
			c5.193,1.978,11.099-0.39,13.44-5.516c2.437-5.341,0.085-11.642-5.252-14.078c-1.082-0.493-2.203-0.79-3.323-0.903
			c2.396-5.326,0.045-11.594-5.275-14.024c-5.339-2.437-11.642-0.083-14.077,5.255c-0.816,1.791-1.092,3.687-0.901,5.511
			c-3.308,0.597-6.279,2.753-7.782,6.042c-2.011,4.411-0.754,9.477,2.753,12.479C325.833,319.757,328.199,325.759,333.378,328.122z"
			/>
		
			<path fill="#6E9659" stroke="#6E9659" stroke-width="0.0429" stroke-linecap="round" stroke-linejoin="round" stroke-miterlimit="10" d="
			M361.777,314.246c2.437-5.341,0.085-11.642-5.252-14.078c-1.082-0.493-2.203-0.79-3.323-0.903
			c2.396-5.326,0.045-11.594-5.275-14.024c-5.339-2.437-11.642-0.083-14.077,5.255c-0.816,1.791-1.092,3.687-0.901,5.511
			c-2.613,0.475-5.014,1.916-6.649,4.123c0,0,34.333,15.672,34.54,15.766C361.304,315.35,361.777,314.246,361.777,314.246z"/>
		<g>
			<g>
				
					<rect x="43.746" y="300.493" transform="matrix(-0.5496 -0.8354 0.8354 -0.5496 -191.8486 535.3623)" fill="#8F5E35" width="9.276" height="37.803"/>
				
					<rect x="47.338" y="302.43" transform="matrix(-0.5498 -0.8353 0.8353 -0.5498 -191.4385 539.4883)" fill="#7F4D29" width="4.639" height="37.803"/>
			</g>
			<polygon fill="#83AF6E" stroke="#83AF6E" stroke-width="0.1822" stroke-miterlimit="10" points="15.353,317.859 36.479,349.965 
				4.835,347.784 			"/>
			
				<polygon fill="#6E9659" stroke="#6E9659" stroke-width="0.2054" stroke-linecap="round" stroke-linejoin="round" stroke-miterlimit="10" points="
				36.479,349.965 4.835,347.784 25.917,333.913 			"/>
			<polygon fill="#83AF6E" stroke="#83AF6E" stroke-width="0.2252" stroke-miterlimit="10" points="22.634,307.73 48.661,347.29 
				9.522,344.697 			"/>
			
				<polygon fill="#6E9659" stroke="#6E9659" stroke-width="0.2538" stroke-linecap="round" stroke-linejoin="round" stroke-miterlimit="10" points="
				48.661,347.29 9.522,344.697 35.646,327.508 			"/>
			<polygon fill="#83AF6E" stroke="#83AF6E" stroke-width="0.2624" stroke-miterlimit="10" points="29.864,297.893 60.556,344.546 
				15.115,341.019 			"/>
			
				<polygon fill="#6E9659" stroke="#6E9659" stroke-width="0.2957" stroke-linecap="round" stroke-linejoin="round" stroke-miterlimit="10" points="
				60.556,344.546 15.115,341.019 45.209,321.217 			"/>
			<polygon fill="#83AF6E" stroke="#83AF6E" stroke-width="0.2898" stroke-miterlimit="10" points="37.378,289.469 71.271,340.978 
				21.096,337.086 			"/>
			
				<polygon fill="#6E9659" stroke="#6E9659" stroke-width="0.3266" stroke-linecap="round" stroke-linejoin="round" stroke-miterlimit="10" points="
				71.271,340.978 21.096,337.086 54.326,315.223 			"/>
			<polygon fill="#83AF6E" stroke="#83AF6E" stroke-width="0.1435" stroke-miterlimit="10" points="8.768,327.362 25.145,352.253 
				0.101,350.898 			"/>
			
				<polygon fill="#6E9659" stroke="#6E9659" stroke-width="0.1617" stroke-linecap="round" stroke-linejoin="round" stroke-miterlimit="10" points="
				25.145,352.253 0.101,350.898 16.957,339.808 			"/>
		</g>
		<g>
			<g>
				
					<rect x="71.24" y="36.718" transform="matrix(0.9023 -0.4311 0.4311 0.9023 -24.5503 50.9362)" fill="#EEE1CD" stroke="#EEE1CD" stroke-width="0.2766" stroke-miterlimit="10" width="57.722" height="85.828"/>
				
					<rect x="72.65" y="42.939" transform="matrix(0.9023 -0.4311 0.4311 0.9023 -28.5054 45.9326)" opacity="0.33" fill="#CABA9C" stroke="#CABA9C" stroke-width="0.1956" stroke-miterlimit="10" width="28.861" height="85.828"/>
			</g>
			
				<rect x="47.097" y="16.014" transform="matrix(0.9023 -0.4311 0.4311 0.9023 -5.1245 35.5917)" fill="#786854" stroke="#786854" stroke-width="0.1528" stroke-miterlimit="10" width="57.723" height="26.175"/>
			<path fill="#A38977" stroke="#A38977" stroke-width="0.1741" stroke-miterlimit="10" d="M93.61,113.266"/>
			<path fill="#C5E0E9" d="M89.713,94.953"/>
			<path fill="#A38977" stroke="#A38977" stroke-width="0.1741" stroke-miterlimit="10" d="M97.142,111.493"/>
			<path fill="#A38977" stroke="#A38977" stroke-width="0.1741" stroke-miterlimit="10" d="M106.31,107.198"/>
			<path fill="#C5E0E9" d="M102.411,88.886"/>
			<path fill="#A38977" stroke="#A38977" stroke-width="0.1741" stroke-miterlimit="10" d="M109.839,105.426"/>
			<g>
				
					<rect x="81.902" y="85.561" transform="matrix(0.9023 -0.4312 0.4312 0.9023 -29.838 44.8398)" fill="#857162" width="4.191" height="5.363"/>
				
					<rect x="79.171" y="79.845" transform="matrix(0.9023 -0.431 0.431 0.9023 -27.6338 43.0859)" fill="#857162" width="4.19" height="5.361"/>
				
					<rect x="83.871" y="77.599" transform="matrix(0.9023 -0.4312 0.4312 0.9023 -26.214 44.9162)" fill="#857162" width="4.191" height="5.361"/>
				
					<rect x="86.603" y="83.316" transform="matrix(0.9023 -0.4312 0.4312 0.9023 -28.4103 46.6471)" fill="#857162" width="4.191" height="5.363"/>
			</g>
			
				<rect x="96.013" y="78.82" transform="matrix(0.9023 -0.4311 0.4311 0.9023 -25.5489 50.252)" fill="#857162" width="4.191" height="5.362"/>
			
				<rect x="93.281" y="73.103" transform="matrix(0.9023 -0.4312 0.4312 0.9023 -23.354 48.5283)" fill="#857162" width="4.191" height="5.361"/>
			
				<rect x="97.982" y="70.858" transform="matrix(0.9023 -0.4311 0.4311 0.9023 -21.9241 50.3221)" fill="#A38977" width="4.19" height="5.361"/>
			
				<rect x="100.713" y="76.574" transform="matrix(0.9023 -0.4311 0.4311 0.9023 -24.1232 52.0649)" fill="#A38977" width="4.191" height="5.362"/>
			<g>
				
					<rect x="110.123" y="72.078" transform="matrix(0.9023 -0.4311 0.4311 0.9023 -21.2646 55.6756)" fill="#A38977" width="4.191" height="5.362"/>
				
					<rect x="107.391" y="66.36" transform="matrix(0.9023 -0.4311 0.4311 0.9023 -19.0666 53.9404)" fill="#A38977" width="4.192" height="5.362"/>
				
					<rect x="112.092" y="64.116" transform="matrix(0.9023 -0.4311 0.4311 0.9023 -17.6403 55.7523)" fill="#A38977" width="4.19" height="5.361"/>
				
					<rect x="114.824" y="69.831" transform="matrix(0.9023 -0.4311 0.4311 0.9023 -19.8371 57.4826)" fill="#A38977" width="4.191" height="5.363"/>
			</g>
			<g>
				
					<rect x="72.467" y="65.813" transform="matrix(0.9023 -0.4312 0.4312 0.9023 -22.2469 38.8466)" fill="#857162" width="4.191" height="5.363"/>
				
					<rect x="69.735" y="60.097" transform="matrix(0.9023 -0.431 0.431 0.9023 -20.0435 37.0902)" fill="#857162" width="4.19" height="5.362"/>
				
					<rect x="74.436" y="57.851" transform="matrix(0.9023 -0.4311 0.4311 0.9023 -18.6186 38.9072)" fill="#857162" width="4.191" height="5.361"/>
				
					<rect x="77.167" y="63.567" transform="matrix(0.9022 -0.4313 0.4313 0.9022 -20.8217 40.6638)" fill="#857162" width="4.19" height="5.362"/>
			</g>
			
				<rect x="86.577" y="59.071" transform="matrix(0.9023 -0.4312 0.4312 0.9023 -17.9603 44.272)" fill="#857162" width="4.191" height="5.362"/>
			
				<rect x="83.845" y="53.355" transform="matrix(0.9023 -0.4311 0.4311 0.9023 -15.7602 42.5193)" fill="#857162" width="4.191" height="5.361"/>
			
				<rect x="88.546" y="51.108" transform="matrix(0.9023 -0.4311 0.4311 0.9023 -14.3334 44.3313)" fill="#A38977" width="4.191" height="5.362"/>
			
				<rect x="91.278" y="56.826" transform="matrix(0.9023 -0.4311 0.4311 0.9023 -16.5308 46.0617)" fill="#A38977" width="4.19" height="5.362"/>
			<g>
				
					<rect x="100.687" y="52.33" transform="matrix(0.9023 -0.4312 0.4312 0.9023 -13.6742 49.6909)" fill="#A38977" width="4.19" height="5.362"/>
				
					<rect x="97.956" y="46.613" transform="matrix(0.9023 -0.431 0.431 0.9023 -11.4756 47.937)" fill="#A38977" width="4.19" height="5.361"/>
				
					<rect x="102.656" y="44.367" transform="matrix(0.9023 -0.4312 0.4312 0.9023 -10.048 49.7678)" fill="#A38977" width="4.191" height="5.361"/>
				
					<rect x="105.388" y="50.084" transform="matrix(0.9023 -0.4312 0.4312 0.9023 -12.2465 51.504)" fill="#A38977" width="4.19" height="5.363"/>
			</g>
			<g>
				
					<rect x="91.339" y="105.311" transform="matrix(0.9022 -0.4312 0.4312 0.9022 -37.4366 50.8514)" fill="#857162" width="4.19" height="5.362"/>
				
					<rect x="88.607" y="99.592" transform="matrix(0.9023 -0.4312 0.4312 0.9023 -35.2323 49.1009)" fill="#857162" width="4.19" height="5.363"/>
				
					<rect x="93.307" y="97.347" transform="matrix(0.9022 -0.4313 0.4313 0.9022 -33.8099 50.9226)" fill="#857162" width="4.192" height="5.363"/>
				
					<rect x="96.04" y="103.064" transform="matrix(0.9023 -0.4311 0.4311 0.9023 -35.9974 52.6316)" fill="#857162" width="4.191" height="5.362"/>
			</g>
			
				<rect x="105.449" y="98.57" transform="matrix(0.9023 -0.431 0.431 0.9023 -33.1382 56.2408)" fill="#857162" width="4.19" height="5.362"/>
			
				<rect x="102.717" y="92.851" transform="matrix(0.9022 -0.4312 0.4312 0.9022 -30.951 54.5402)" fill="#857162" width="4.19" height="5.362"/>
			
				<rect x="107.418" y="90.605" transform="matrix(0.9023 -0.4312 0.4312 0.9023 -29.5208 56.3399)" fill="#A38977" width="4.19" height="5.363"/>
			
				<rect x="110.149" y="96.323" transform="matrix(0.9023 -0.4312 0.4312 0.9023 -31.7175 58.0704)" fill="#A38977" width="4.191" height="5.362"/>
			
				<rect x="123.081" y="89.848" transform="matrix(0.9023 -0.4311 0.4311 0.9023 -31.1833 64.9888)" fill="#A38977" width="9.399" height="22.88"/>
			
				<rect x="116.827" y="86.109" transform="matrix(0.9023 -0.431 0.431 0.9023 -26.6566 59.9288)" fill="#A38977" width="4.192" height="5.362"/>
			
				<rect x="121.528" y="83.864" transform="matrix(0.9023 -0.4311 0.4311 0.9023 -25.2308 61.7423)" fill="#A38977" width="4.19" height="5.362"/>
			
				<rect x="48.507" y="22.236" transform="matrix(0.9023 -0.4311 0.4311 0.9023 -9.0791 30.5849)" fill="#604C3F" stroke="#604C3F" stroke-width="0.108" stroke-miterlimit="10" width="28.862" height="26.175"/>
			
				<rect x="58.332" y="13.957" transform="matrix(0.9023 -0.4311 0.4311 0.9023 -3.1766 29.0163)" fill="#786854" stroke="#786854" stroke-width="0.1528" stroke-miterlimit="10" width="8.182" height="15.119"/>
			
				<rect x="123.311" y="90.861" transform="matrix(0.9023 -0.4311 0.4311 0.9023 -31.8273 64.1734)" fill="#857162" width="4.699" height="22.88"/>
		</g>
		<g>
			<polygon fill="#ECECED" stroke="#ECECED" stroke-width="0.348" stroke-miterlimit="10" points="245.986,364.435 290.826,324.024 
				313.023,348.66 304.909,384.734 268.187,389.073 			"/>
			<polygon opacity="0.7" fill="#D8D9DA" stroke="#D8D9DA" stroke-width="0.348" stroke-miterlimit="10" points="268.404,344.233 
				290.826,324.024 313.023,348.66 304.909,384.734 			"/>
			<g>
				
					<rect x="291.929" y="338.81" transform="matrix(-0.7428 0.6696 -0.6696 -0.7428 741.9597 398.8161)" fill="#868789" stroke="#868789" stroke-width="0.2827" stroke-linecap="round" stroke-linejoin="round" stroke-miterlimit="10" width="4.882" height="6.248"/>
				
					<rect x="296.87" y="344.296" transform="matrix(-0.743 0.6693 -0.6693 -0.743 754.2256 405.204)" fill="#868789" stroke="#868789" stroke-width="0.2827" stroke-linecap="round" stroke-linejoin="round" stroke-miterlimit="10" width="4.88" height="6.247"/>
				
					<rect x="292.36" y="348.359" transform="matrix(-0.7428 0.6696 -0.6696 -0.7428 749.1066 415.1627)" fill="#868789" stroke="#868789" stroke-width="0.2827" stroke-linecap="round" stroke-linejoin="round" stroke-miterlimit="10" width="4.883" height="6.249"/>
				
					<rect x="287.414" y="342.876" transform="matrix(-0.7427 0.6696 -0.6696 -0.7427 736.8223 408.8978)" fill="#868789" stroke="#868789" stroke-width="0.2827" stroke-linecap="round" stroke-linejoin="round" stroke-miterlimit="10" width="4.887" height="6.249"/>
			</g>
			<g>
				
					<rect x="278.589" y="350.834" transform="matrix(-0.7427 0.6696 -0.6696 -0.7427 726.7727 428.6447)" fill="#868789" stroke="#868789" stroke-width="0.2827" stroke-linecap="round" stroke-linejoin="round" stroke-miterlimit="10" width="4.881" height="6.249"/>
				
					<rect x="283.529" y="356.319" transform="matrix(-0.7428 0.6696 -0.6696 -0.7428 739.043 434.9523)" fill="#868789" stroke="#868789" stroke-width="0.2827" stroke-linecap="round" stroke-linejoin="round" stroke-miterlimit="10" width="4.882" height="6.246"/>
				
					<rect x="279.021" y="360.384" transform="matrix(-0.7427 0.6697 -0.6697 -0.7427 733.9216 444.9901)" fill="#9B9C9E" stroke="#9B9C9E" stroke-width="0.2827" stroke-linecap="round" stroke-linejoin="round" stroke-miterlimit="10" width="4.882" height="6.248"/>
				
					<rect x="274.076" y="354.9" transform="matrix(-0.7426 0.6698 -0.6698 -0.7426 721.6441 438.6787)" fill="#9B9C9E" stroke="#9B9C9E" stroke-width="0.2827" stroke-linecap="round" stroke-linejoin="round" stroke-miterlimit="10" width="4.883" height="6.249"/>
			</g>
			
				<polygon fill="#9B9C9E" stroke="#9B9C9E" stroke-width="0.2827" stroke-linecap="round" stroke-linejoin="round" stroke-miterlimit="10" points="
				251.833,359.166 259.97,351.834 277.503,371.286 269.363,378.616 			"/>
			
				<polygon fill="#868789" stroke="#868789" stroke-width="0.2827" stroke-linecap="round" stroke-linejoin="round" stroke-miterlimit="10" points="
				255.9,355.499 259.97,351.834 277.503,371.286 273.433,374.95 			"/>
			
				<polyline fill="none" stroke="#58585A" stroke-width="3.0805" stroke-linecap="round" stroke-linejoin="round" stroke-miterlimit="10" points="
				313.347,346.812 304.909,384.734 266.052,389.431 			"/>
			<g>
				<path fill="#9B9C9E" d="M291.967,377.365c-1.665-1.846-1.521-4.698,0.331-6.363c1.85-1.667,4.698-1.516,6.364,0.331
					c1.668,1.848,1.517,4.698-0.332,6.363C296.482,379.364,293.636,379.216,291.967,377.365z"/>
				<path fill="#868789" d="M292.298,371.001c1.85-1.667,4.698-1.516,6.364,0.331c1.668,1.848,1.517,4.698-0.332,6.363
					L292.298,371.001z"/>
			</g>
			
				<polygon fill="#58585A" stroke="#58585A" stroke-width="0.6846" stroke-linecap="round" stroke-linejoin="round" stroke-miterlimit="10" points="
				308.391,368.628 310.558,359.606 317.593,367.409 311.908,372.534 			"/>
		</g>
		<g>
			
				<rect x="226.366" y="61.556" transform="matrix(0.8982 0.4396 -0.4396 0.8982 65.7261 -101.8411)" fill="#F19E94" stroke="#F19E94" stroke-width="0.155" stroke-miterlimit="10" width="52.795" height="58.884"/>
			
				<rect x="244.569" y="41.832" transform="matrix(0.8982 0.4396 -0.4396 0.8982 51.2361 -113.6375)" fill="#786854" stroke="#786854" stroke-width="0.1397" stroke-miterlimit="10" width="52.796" height="23.941"/>
			
				<rect x="245.899" y="36.027" transform="matrix(0.8982 0.4396 -0.4396 0.8982 47.4919 -109.0112)" fill="#5F4C3F" stroke="#5F4C3F" stroke-width="0.1397" stroke-miterlimit="10" width="26.396" height="24.002"/>
			
				<rect x="264.976" y="32.876" transform="matrix(0.8983 0.4394 -0.4394 0.8983 44.8087 -114.0189)" fill="#786854" stroke="#786854" stroke-width="0.1397" stroke-miterlimit="10" width="7.483" height="13.828"/>
			
				<rect x="227.681" y="55.88" transform="matrix(0.8982 0.4396 -0.4396 0.8982 62.0089 -97.2176)" opacity="0.7" fill="#E4817C" stroke="#E4817C" stroke-width="0.155" stroke-miterlimit="10" width="26.396" height="58.754"/>
			<path fill="#A28878" stroke="#A28878" stroke-width="0.1593" stroke-miterlimit="10" d="M229.273,96.635"/>
			<path fill="#C5DFE9" d="M240.191,83.443"/>
			<path fill="#A28878" stroke="#A28878" stroke-width="0.1593" stroke-miterlimit="10" d="M232.552,98.161"/>
			<path fill="#A28878" stroke="#A28878" stroke-width="0.1593" stroke-miterlimit="10" d="M240.836,102.296"/>
			<path fill="#C5DFE9" d="M251.754,89.098"/>
			<path fill="#A28878" stroke="#A28878" stroke-width="0.1593" stroke-miterlimit="10" d="M244.112,103.82"/>
			<g>
				<g>
					
						<rect x="239.84" y="73.083" transform="matrix(0.898 0.44 -0.44 0.898 57.8871 -98.6594)" fill="#9F4945" width="3.831" height="4.903"/>
					
						<rect x="242.387" y="67.877" transform="matrix(0.8981 0.4398 -0.4398 0.8981 55.8177 -100.2684)" fill="#9F4945" width="3.832" height="4.904"/>
					
						<rect x="246.666" y="69.973" transform="matrix(0.898 0.4401 -0.4401 0.898 57.2342 -102.0019)" fill="#9F4945" width="3.831" height="4.9"/>
					
						<rect x="244.118" y="75.175" transform="matrix(0.8982 0.4397 -0.4397 0.8982 59.1846 -100.2661)" fill="#9F4945" width="3.834" height="4.905"/>
				</g>
				<g>
					
						<rect x="231.04" y="91.064" transform="matrix(0.8982 0.4397 -0.4397 0.8982 64.8374 -92.8974)" fill="#9F4945" width="3.833" height="4.904"/>
					
						<rect x="233.586" y="85.857" transform="matrix(0.8983 0.4395 -0.4395 0.8983 62.7663 -94.5083)" fill="#9F4945" width="3.833" height="4.905"/>
					
						<rect x="237.867" y="87.951" transform="matrix(0.8981 0.4398 -0.4398 0.8981 64.1855 -96.2361)" fill="#9F4945" width="3.833" height="4.903"/>
					
						<rect x="235.319" y="93.157" transform="matrix(0.8983 0.4395 -0.4395 0.8983 66.1503 -94.5264)" fill="#9F4945" width="3.832" height="4.905"/>
				</g>
			</g>
			
				<rect x="252.687" y="79.368" transform="matrix(0.8982 0.4397 -0.4397 0.8982 61.8996 -103.6051)" fill="#9F4945" width="3.832" height="4.906"/>
			
				<rect x="255.234" y="74.162" transform="matrix(0.8983 0.4393 -0.4393 0.8983 59.8085 -105.1879)" fill="#9F4945" width="3.832" height="4.906"/>
			
				<rect x="259.514" y="76.259" transform="matrix(0.8979 0.4403 -0.4403 0.8979 61.3549 -107.0608)" fill="#B46057" width="3.833" height="4.902"/>
			
				<rect x="256.967" y="81.463" transform="matrix(0.8982 0.4396 -0.4396 0.8982 63.2352 -105.2515)" fill="#B46057" width="3.832" height="4.904"/>
			
				<rect x="243.887" y="97.35" transform="matrix(0.8983 0.4393 -0.4393 0.8983 68.8425 -97.8454)" fill="#9F4945" width="3.833" height="4.905"/>
			
				<rect x="246.436" y="92.143" transform="matrix(0.8982 0.4397 -0.4397 0.8982 66.8798 -99.5557)" fill="#9F4945" width="3.832" height="4.906"/>
			
				<rect x="250.714" y="94.238" transform="matrix(0.8982 0.4396 -0.4396 0.8982 68.2144 -101.2036)" fill="#B46057" width="3.834" height="4.904"/>
			
				<rect x="248.166" y="99.444" transform="matrix(0.8984 0.4391 -0.4391 0.8984 70.1512 -99.471)" fill="#B46057" width="3.833" height="4.905"/>
			<g>
				<g>
					
						<rect x="265.535" y="85.655" transform="matrix(0.8981 0.4398 -0.4398 0.8981 65.9958 -108.6378)" fill="#B46057" width="3.834" height="4.906"/>
					
						<rect x="268.081" y="80.45" transform="matrix(0.8984 0.4393 -0.4393 0.8984 63.8566 -110.1711)" fill="#B46057" width="3.835" height="4.905"/>
					
						<rect x="272.36" y="82.546" transform="matrix(0.8984 0.4392 -0.4392 0.8984 65.2112 -111.8373)" fill="#B46057" width="3.834" height="4.903"/>
					
						<rect x="269.814" y="87.751" transform="matrix(0.8981 0.4398 -0.4398 0.8981 67.3529 -110.3063)" fill="#B46057" width="3.834" height="4.904"/>
				</g>
				
					<rect x="259.281" y="98.431" transform="matrix(0.8982 0.4396 -0.4396 0.8982 70.9298 -104.5426)" fill="#B46057" width="3.834" height="4.905"/>
				
					<rect x="263.563" y="100.527" transform="matrix(0.8982 0.4397 -0.4397 0.8982 72.3097 -106.2327)" fill="#B46057" width="3.833" height="4.902"/>
				
					<rect x="256.734" y="103.638" transform="matrix(0.8981 0.4399 -0.4399 0.8981 73.0301 -102.9561)" fill="#B46057" width="3.833" height="4.903"/>
				
					<rect x="261.013" y="105.731" transform="matrix(0.8983 0.4395 -0.4395 0.8983 74.291 -104.54)" fill="#B46057" width="3.834" height="4.905"/>
			</g>
		</g>
		<g>
			<g>
				<g>
					<circle fill="#FFFFFF" stroke="#1A171B" stroke-width="3.1607" stroke-miterlimit="10" cx="45.538" cy="198.581" r="4.648"/>
				</g>
				<g>
					<circle fill="#FFFFFF" stroke="#1A171B" stroke-width="3.1607" stroke-miterlimit="10" cx="67.217" cy="157.382" r="4.649"/>
				</g>
				<g>
					<path fill="#33485D" d="M73.627,143.629c0.002,0,0,0.003-0.002,0.004l-3.416,6.492c-0.116,0.22-0.377,0.318-0.613,0.233
						c-3.519-1.315-7.494,0.202-9.245,3.53c-1.751,3.329-0.752,7.465,2.325,9.622c0.206,0.141,0.272,0.416,0.155,0.636
						l-14.251,27.084c-0.115,0.219-0.378,0.321-0.612,0.234c-3.519-1.316-7.496,0.202-9.245,3.531
						c-1.753,3.327-0.753,7.466,2.324,9.62c0.205,0.143,0.272,0.417,0.156,0.638l-2.346,4.453c-0.127,0.242-0.426,0.335-0.667,0.206
						l-11.203-5.894c-0.091-0.046-0.166-0.122-0.212-0.214l-6.484-12.815c-0.072-0.144-0.07-0.314,0.004-0.457l14.041-26.686
						c0.038-0.069,0.089-0.128,0.152-0.173c4.043-2.892,14.157-8.505,15.149-9.054c1.011-1.167,12-13.866,13.331-14.905
						c0.13-0.101,0.299-0.132,0.454-0.082c5.551,1.749,9.284,3.071,9.854,3.276c0.05,0.011,0.098,0.026,0.144,0.05
						C73.663,143.085,73.756,143.385,73.627,143.629z"/>
					<path fill="#EEF7FB" d="M29.403,197.453l-6.066-7.582l12.898-24.515c4.354-3.019,13.819-7.292,13.923-7.349L29.403,197.453z"/>
					
						<path fill="none" stroke="#2F9859" stroke-width="1.6647" stroke-linecap="round" stroke-linejoin="round" stroke-miterlimit="10" d="
						M33.193,193.054"/>
					<g>
						<g>
							<polygon fill="#FFFFFF" points="65.255,144.314 67.069,140.867 64.712,140.082 63.087,143.173 							"/>
							<path fill="#FFFFFF" d="M67.475,140.878l-1.897,3.606c-0.093,0.177-0.314,0.246-0.491,0.153l-2.17-1.141
								c-0.177-0.094-0.245-0.314-0.151-0.491l1.626-3.092L67.475,140.878z"/>
						</g>
					</g>
					<polygon fill="#DEEAEF" points="49.933,158.439 29.403,197.453 23.337,189.871 					"/>
					<polygon fill="#F19300" points="34.093,204.093 32.583,206.959 29.9,205.548 30.566,204.281 					"/>
					<g>
						
							<rect x="36.657" y="168.041" transform="matrix(-0.4661 0.8847 -0.8847 -0.4661 207.6753 220.9939)" fill="#33485D" width="0.998" height="10.236"/>
					</g>
					<g>
						
							<rect x="27.998" y="184.495" transform="matrix(-0.4659 0.8848 -0.8848 -0.4659 209.5529 252.7375)" fill="#33485D" width="0.999" height="10.238"/>
					</g>
					<path opacity="0.5" fill="none" stroke="#223140" stroke-width="0.9988" stroke-linejoin="round" stroke-miterlimit="10" d="
						M48.625,157.724l11.663,6.139l-13.108,24.913c-4.188-0.785-8.524,1.227-10.565,5.107l-4.178-2.196"/>
					<g opacity="0.5">
						
							<line fill="none" stroke="#223140" stroke-width="0.9988" stroke-linejoin="round" stroke-miterlimit="10" x1="41.096" y1="175.233" x2="50.988" y2="180.437"/>
					</g>
					
						<line fill="none" stroke="#223140" stroke-width="0.9988" stroke-linecap="round" stroke-linejoin="round" stroke-miterlimit="10" x1="35.894" y1="190.681" x2="37.211" y2="188.177"/>
					
						<line fill="none" stroke="#223140" stroke-width="0.9988" stroke-linecap="round" stroke-linejoin="round" stroke-miterlimit="10" x1="44.469" y1="174.379" x2="45.788" y2="171.874"/>
					
						<circle fill="#33485D" stroke="#223140" stroke-width="0.6101" stroke-linecap="round" stroke-linejoin="round" stroke-miterlimit="10" cx="32.604" cy="199.525" r="1.835"/>
					<path fill="#223140" d="M49.69,156.818c0.8,0.42,1.105,1.409,0.686,2.209l-1.142,2.171c-0.421,0.8-1.412,1.108-2.211,0.686l0,0
						c-0.798-0.42-1.106-1.41-0.685-2.211l1.143-2.17C47.9,156.705,48.89,156.396,49.69,156.818L49.69,156.818z"/>
				</g>
			</g>
			<path fill="#B0B2B3" d="M20.358,219.064c-0.035,0.935,0.195,1.806,0.588,2.588c-0.392-0.122-0.796-0.21-1.225-0.227
				c-2.639-0.095-4.855,1.966-4.949,4.603c-0.021,0.594,0.081,1.161,0.258,1.689c-0.009,0-0.02-0.002-0.031-0.003
				c-4.158-0.149-7.651,3.099-7.801,7.259c-0.081,2.233,0.824,4.269,2.32,5.703c-3.19,1.548-5.442,4.76-5.579,8.548
				c-0.184,5.099,3.524,9.434,8.463,10.147c-0.189,0.615-0.308,1.261-0.333,1.937c-0.149,4.158,3.101,7.65,7.258,7.802
				c4.159,0.149,7.652-3.102,7.803-7.259c0.019-0.479-0.017-0.943-0.083-1.399c0.323,0.062,0.646,0.124,0.984,0.137
				c3.636,0.131,6.692-2.711,6.823-6.349c0.082-2.275-0.996-4.317-2.704-5.563c2.787-1.264,4.773-4.018,4.883-7.283
				c0.131-3.832-2.358-7.131-5.851-8.209c1.671-0.957,2.835-2.713,2.908-4.779c0.1-2.737-1.732-5.088-4.27-5.762
				c0.721-0.875,1.187-1.971,1.23-3.193c0.107-2.951-2.201-5.432-5.153-5.539C22.944,213.805,20.464,216.113,20.358,219.064z
				 M23.994,224.454c-0.026-0.065-0.064-0.122-0.093-0.186c0.064,0.023,0.13,0.047,0.195,0.069
				C24.061,224.376,24.027,224.415,23.994,224.454z"/>
		</g>
		<g>
			<g>
				<path fill="#BF3929" d="M325.772,256.663c0,0-0.002-0.002-0.001-0.004l-1.066-7.307c-0.036-0.248,0.119-0.486,0.359-0.555
					c3.645-1.016,5.979-4.605,5.433-8.35c-0.548-3.744-3.814-6.52-7.596-6.448c-0.252,0.004-0.466-0.179-0.503-0.427l-4.453-30.479
					c-0.034-0.25,0.119-0.485,0.36-0.551c3.644-1.017,5.978-4.609,5.43-8.353c-0.546-3.749-3.812-6.521-7.596-6.449
					c-0.251,0.004-0.465-0.18-0.502-0.428l-0.729-5.011c-0.042-0.272,0.145-0.525,0.422-0.564l12.604-1.842
					c0.104-0.014,0.206,0,0.301,0.051l12.868,6.585c0.146,0.074,0.244,0.211,0.268,0.372l4.389,30.031
					c0.013,0.077,0.004,0.155-0.019,0.23c-1.578,4.748-6.479,15.309-6.96,16.345c-0.13,1.547-1.546,18.389-2.016,20.023
					c-0.044,0.162-0.168,0.285-0.318,0.338c-5.555,1.865-9.374,2.998-9.964,3.172c-0.043,0.021-0.093,0.033-0.144,0.047
					C326.068,257.127,325.814,256.936,325.772,256.663z"/>
				<path fill="#EEF7FB" d="M329.858,186.666l9.429,2.573l4.033,27.591c-1.754,5.034-6.921,14.118-6.972,14.228L329.858,186.666z"/>
				
					<path fill="none" stroke="#2F9859" stroke-width="1.6755" stroke-linecap="round" stroke-linejoin="round" stroke-miterlimit="10" d="
					M329.383,192.492"/>
				<g>
					<g>
						<polygon fill="#FFFFFF" points="332.179,251.145 332.747,255.024 335.127,254.266 334.618,250.786 						"/>
						<path fill="#FFFFFF" d="M332.409,255.254l-0.594-4.061c-0.03-0.199,0.113-0.383,0.311-0.41l2.443-0.359
							c0.199-0.031,0.386,0.105,0.415,0.309l0.507,3.479L332.409,255.254z"/>
					</g>
				</g>
				<polygon fill="#DEEAEF" points="336.274,230.571 329.858,186.666 339.287,189.238 				"/>
				<polygon fill="#F19300" points="322.108,184.041 321.64,180.814 324.656,180.377 324.865,181.8 				"/>
				<g>
					<path fill="#FFFFFF" stroke="#1A171B" stroke-width="3.1813" stroke-miterlimit="10" d="M316.74,199.938
						c-2.558,0.375-4.931-1.396-5.305-3.953c-0.377-2.557,1.393-4.932,3.952-5.304c2.555-0.375,4.931,1.396,5.307,3.951
						C321.065,197.188,319.297,199.564,316.74,199.938z"/>
				</g>
				<g>
					<path fill="#FFFFFF" stroke="#1A171B" stroke-width="3.1813" stroke-miterlimit="10" d="M323.517,246.301
						c-2.558,0.375-4.935-1.395-5.307-3.951c-0.375-2.556,1.394-4.932,3.952-5.304c2.553-0.375,4.932,1.395,5.304,3.949
						C327.842,243.555,326.072,245.93,323.517,246.301z"/>
				</g>
				<g>
					
						<rect x="337.444" y="205.871" transform="matrix(-0.1418 -0.9899 0.9899 -0.1418 176.9617 575.4728)" fill="#BF3929" width="1.006" height="10.306"/>
				</g>
				<g>
					
						<rect x="334.74" y="187.355" transform="matrix(-0.1421 -0.9899 0.9899 -0.1421 192.3264 551.7031)" fill="#BF3929" width="1.003" height="10.306"/>
				</g>
				<path opacity="0.5" fill="none" stroke="#9F1E1C" stroke-width="1.0053" stroke-linejoin="round" stroke-miterlimit="10" d="
					M337.763,230.376l-13.127,1.918l-4.094-28.037c3.867-1.84,6.205-6.046,5.564-10.414l4.7-0.689"/>
				<g opacity="0.5">
					
						<line fill="none" stroke="#9F1E1C" stroke-width="1.0053" stroke-linejoin="round" stroke-miterlimit="10" x1="333.514" y1="211.67" x2="322.382" y2="213.298"/>
				</g>
				
					<line fill="none" stroke="#9F1E1C" stroke-width="1.0053" stroke-linecap="round" stroke-linejoin="round" stroke-miterlimit="10" x1="328.592" y1="196.021" x2="329.004" y2="198.841"/>
				
					<line fill="none" stroke="#9F1E1C" stroke-width="1.0053" stroke-linecap="round" stroke-linejoin="round" stroke-miterlimit="10" x1="331.274" y1="214.366" x2="331.685" y2="217.183"/>
				
					<circle fill="#BF3929" stroke="#9F1E1C" stroke-width="0.6141" stroke-linecap="round" stroke-linejoin="round" stroke-miterlimit="10" cx="326.025" cy="186.875" r="1.847"/>
				<path fill="#9F1E1C" d="M337.434,231.746c-0.901,0.133-1.741-0.49-1.868-1.389l-0.358-2.446
					c-0.132-0.898,0.493-1.734,1.392-1.866l0,0c0.898-0.132,1.739,0.491,1.87,1.394l0.354,2.441
					C338.956,230.778,338.332,231.614,337.434,231.746L337.434,231.746z"/>
			</g>
			<path fill="#B0B2B3" d="M321.757,165.514c-0.418-0.838-1.038-1.492-1.756-1.99c0.401-0.081,0.798-0.196,1.183-0.388
				c2.361-1.181,3.318-4.052,2.139-6.412c-0.266-0.531-0.627-0.98-1.037-1.359c0.01-0.004,0.021-0.008,0.03-0.012
				c3.721-1.862,5.229-6.387,3.369-10.11c-0.999-1.998-2.77-3.352-4.771-3.894c2.058-2.887,2.496-6.785,0.801-10.175
				c-2.282-4.564-7.613-6.591-12.291-4.851c-0.128-0.632-0.334-1.256-0.634-1.86c-1.862-3.722-6.388-5.23-10.109-3.37
				c-3.722,1.862-5.232,6.389-3.369,10.11c0.212,0.428,0.466,0.819,0.741,1.188c-0.312,0.1-0.626,0.201-0.93,0.352
				c-3.253,1.627-4.573,5.586-2.948,8.841c1.021,2.036,2.946,3.313,5.042,3.589c-1.84,2.444-2.264,5.814-0.795,8.732
				c1.721,3.424,5.485,5.128,9.068,4.402c-1.007,1.639-1.188,3.74-0.263,5.586c1.225,2.45,3.958,3.636,6.51,3.014
				c-0.213,1.112-0.098,2.295,0.45,3.39c1.319,2.641,4.533,3.713,7.176,2.392C322.005,171.37,323.077,168.154,321.757,165.514z
				 M315.982,162.525c0.056,0.045,0.116,0.076,0.172,0.118c-0.067,0.01-0.137,0.021-0.205,0.034
				C315.959,162.625,315.973,162.576,315.982,162.525z"/>
		</g>
		<path fill="#B0B2B3" d="M187.791,400.389c0.937-0.021,1.792-0.305,2.549-0.741c-0.098,0.396-0.163,0.805-0.154,1.235
			c0.062,2.638,2.251,4.728,4.89,4.665c0.594-0.014,1.153-0.148,1.67-0.359c0,0.01,0,0.021,0,0.031
			c0.096,4.161,3.546,7.455,7.709,7.357c2.232-0.052,4.211-1.076,5.556-2.655c1.734,3.094,5.072,5.149,8.862,5.062
			c5.103-0.12,9.206-4.078,9.626-9.053c0.626,0.152,1.28,0.235,1.954,0.222c4.161-0.102,7.452-3.554,7.356-7.711
			c-0.099-4.162-3.551-7.455-7.709-7.356c-0.477,0.008-0.94,0.072-1.392,0.165c0.043-0.326,0.084-0.653,0.077-0.991
			c-0.084-3.639-3.104-6.519-6.743-6.434c-2.274,0.052-4.252,1.252-5.394,3.028c-1.427-2.705-4.295-4.525-7.562-4.439
			c-3.827,0.096-6.977,2.778-7.845,6.327c-1.053-1.61-2.877-2.67-4.941-2.62c-2.737,0.065-4.978,2.033-5.501,4.604
			c-0.916-0.667-2.036-1.065-3.259-1.036c-2.951,0.066-5.291,2.522-5.221,5.474C182.387,398.119,184.84,400.458,187.791,400.389z
			 M192.956,396.436c-0.065,0.032-0.118,0.074-0.179,0.106c0.018-0.067,0.038-0.136,0.052-0.201
			C192.875,396.375,192.915,396.407,192.956,396.436z"/>
		<g>
			<path fill="#BCC2C6" d="M95.668,360.173c0.002-0.001,0.005-0.001,0.005,0.001l7.648,2.559c0.26,0.087,0.415,0.353,0.361,0.623
				c-0.808,4.049,1.544,8.093,5.462,9.402c3.922,1.312,8.231-0.505,10.025-4.222c0.12-0.251,0.404-0.368,0.663-0.282l31.896,10.668
				c0.261,0.087,0.417,0.354,0.363,0.623c-0.806,4.051,1.544,8.093,5.464,9.406c3.92,1.311,8.229-0.507,10.024-4.227
				c0.118-0.247,0.402-0.364,0.662-0.279l5.245,1.756c0.285,0.092,0.439,0.402,0.345,0.688l-4.413,13.19
				c-0.038,0.108-0.105,0.202-0.196,0.271l-12.756,9.296c-0.142,0.105-0.329,0.135-0.495,0.079l-31.427-10.513
				c-0.08-0.026-0.154-0.07-0.213-0.133c-3.851-3.872-11.73-13.852-12.5-14.831c-1.445-0.889-17.161-10.562-18.524-11.824
				c-0.131-0.121-0.192-0.297-0.169-0.475c0.915-6.331,1.693-10.612,1.813-11.27c-0.001-0.054,0.011-0.109,0.03-0.164
				C95.075,360.229,95.386,360.079,95.668,360.173z"/>
			<path fill="#EEF7FB" d="M161.872,398.623l-7.149,7.922l-28.871-9.657c-4.05-4.188-10.353-13.699-10.436-13.803L161.872,398.623z"
				/>
			
				<path fill="none" stroke="#2F9859" stroke-width="1.8294" stroke-linecap="round" stroke-linejoin="round" stroke-miterlimit="10" d="
				M156.428,395.291"/>
			<g>
				<g>
					<polygon fill="#FFFFFF" points="97.895,369.131 93.838,367.775 93.403,370.47 97.043,371.687 					"/>
					<path fill="#FFFFFF" d="M93.78,367.335l4.244,1.417c0.209,0.072,0.321,0.3,0.25,0.508l-0.854,2.552
						c-0.068,0.212-0.294,0.326-0.507,0.254l-3.639-1.219L93.78,367.335z"/>
				</g>
			</g>
			<polygon fill="#DEEAEF" points="115.923,383.252 161.872,398.623 154.723,406.544 			"/>
			<polygon fill="#F19300" points="168.245,392.363 171.619,393.493 170.564,396.652 169.071,396.153 			"/>
			<g>
				<path fill="#FFFFFF" stroke="#1A171B" stroke-width="3.4734" stroke-miterlimit="10" d="M155.396,379.303
					c0.896-2.679,3.79-4.121,6.464-3.223c2.677,0.893,4.119,3.787,3.224,6.463c-0.894,2.672-3.787,4.117-6.462,3.221
					C155.945,384.872,154.501,381.975,155.396,379.303z"/>
			</g>
			<g>
				<path fill="#FFFFFF" stroke="#1A171B" stroke-width="3.4734" stroke-miterlimit="10" d="M106.878,363.075
					c0.893-2.676,3.791-4.116,6.464-3.225c2.674,0.895,4.118,3.789,3.225,6.464c-0.893,2.676-3.789,4.118-6.467,3.226
					C107.428,368.643,105.983,365.75,106.878,363.075z"/>
			</g>
			<g>
				
					<rect x="133.604" y="388.885" transform="matrix(0.9487 0.3161 -0.3161 0.9487 131.5804 -22.1775)" fill="#BCC2C6" width="1.097" height="11.248"/>
			</g>
			<g>
				
					<rect x="152.98" y="395.365" transform="matrix(0.9481 0.318 -0.318 0.9481 135.4662 -28.0065)" fill="#BCC2C6" width="1.1" height="11.25"/>
			</g>
			<path opacity="0.5" fill="none" stroke="#929495" stroke-width="1.0878" stroke-linejoin="round" stroke-miterlimit="10" d="
				M115.381,384.801l4.592-13.738l29.341,9.813c-0.113,4.679,2.837,9.03,7.411,10.559l-1.646,4.916"/>
			<g>
				
					<line fill="none" stroke="#929495" stroke-width="1.0878" stroke-linejoin="round" stroke-miterlimit="10" x1="135.704" y1="389.87" x2="139.597" y2="378.219"/>
			</g>
			
				<line fill="none" stroke="#8B8D8F" stroke-width="1.0878" stroke-linecap="round" stroke-linejoin="round" stroke-miterlimit="10" x1="153.379" y1="392.782" x2="150.427" y2="391.794"/>
			
				<line fill="none" stroke="#8B8D8F" stroke-width="1.0878" stroke-linecap="round" stroke-linejoin="round" stroke-miterlimit="10" x1="134.181" y1="386.359" x2="131.229" y2="385.372"/>
			
				<circle fill="#BCC2C6" stroke="#8B8D8F" stroke-width="0.6645" stroke-linecap="round" stroke-linejoin="round" stroke-miterlimit="10" cx="163.553" cy="394.785" r="2.016"/>
			<path fill="#8B8D8F" d="M114.208,383.806c0.316-0.943,1.334-1.449,2.276-1.137l2.555,0.854c0.943,0.318,1.453,1.338,1.135,2.278
				l0,0c-0.311,0.939-1.331,1.448-2.273,1.134l-2.559-0.855C114.403,385.765,113.896,384.748,114.208,383.806L114.208,383.806z"/>
		</g>
		<g>
			<path fill="#FFD13F" d="M447.3,27.156c0,0-16.873,10.987-5.252,25.724c0,0-19.903-4.066-21.904,14.478
				c0,0-9.228-16.039-25.725-5.251c0,0,5.722-17.29-14.477-21.903c0,0,16.463-9.626,5.252-25.726c0,0,19.136,4.418,21.903-14.477
				c0,0,9.915,16.126,25.725,5.252C432.823,5.252,428.684,23.971,447.3,27.156z"/>
			<circle fill="#FFE161" cx="413.622" cy="33.678" r="21.911"/>
		</g>
		<path fill="#B0B2B3" d="M337.33,27.055c0.093,0,0.185,0.005,0.277,0.007c-0.038-0.491-0.063-0.986-0.063-1.487
			c0-10.779,8.77-19.548,19.548-19.548c7.588,0,14.175,4.348,17.413,10.68c2.32-2.396,5.567-3.89,9.158-3.89
			c7.035,0,12.758,5.723,12.758,12.758c0,0.69-0.056,1.367-0.162,2.028c1.042-0.282,2.136-0.435,3.266-0.435
			c6.914,0,12.539,5.625,12.539,12.539c0,2.284-0.621,4.522-1.797,6.469c-0.11,0.183-0.309,0.295-0.522,0.295h-81.516
			c-0.191,0-0.372-0.09-0.488-0.244c-1.566-2.087-2.395-4.574-2.395-7.189C325.345,32.431,330.721,27.055,337.33,27.055z"/>
		<path fill="#C5C6C8" d="M399.044,45.069c0.112,0,0.224,0.005,0.336,0.008c-0.046-0.595-0.076-1.194-0.076-1.8
			c0-13.051,10.617-23.668,23.668-23.668c9.188,0,17.162,5.264,21.083,12.931c2.81-2.901,6.741-4.71,11.089-4.71
			c8.518,0,15.447,6.93,15.447,15.447c0,0.835-0.068,1.655-0.196,2.456c1.261-0.341,2.586-0.526,3.954-0.526
			c8.371,0,15.182,6.811,15.182,15.182c0,2.766-0.752,5.476-2.176,7.833c-0.134,0.222-0.373,0.358-0.633,0.358h-98.697
			c-0.232,0-0.451-0.109-0.592-0.295c-1.896-2.527-2.898-5.538-2.898-8.705C384.535,51.577,391.043,45.069,399.044,45.069z"/>
	</g>
</g>
</svg>
