<?xml version="1.0" encoding="utf-8"?>
<!-- Generator: Adobe Illustrator 15.0.2, SVG Export Plug-In . SVG Version: 6.00 Build 0)  -->
<!DOCTYPE svg PUBLIC "-//W3C//DTD SVG 1.1//EN" "http://www.w3.org/Graphics/SVG/1.1/DTD/svg11.dtd">
<svg version="1.1" id="Lager_1" xmlns="http://www.w3.org/2000/svg" xmlns:xlink="http://www.w3.org/1999/xlink" x="0px" y="0px" viewBox="0 0 425.874 433.47" enable-background="new 0 0 425.874 433.47"
	 xml:space="preserve">
<g>
	<circle fill="#109BA8" cx="206.927" cy="230.773" r="128.333"/>
	<g>
		<defs>
			<circle id="SVGID_1_" cx="206.927" cy="230.773" r="128.333"/>
		</defs>
		<clipPath id="SVGID_2_">
			<use xlink:href="#SVGID_1_"  overflow="visible"/>
		</clipPath>
		
			<path clip-path="url(#SVGID_2_)" fill="#77C198" stroke="#77C198" stroke-linecap="round" stroke-linejoin="round" stroke-miterlimit="10" d="
			M170.683,191.828"/>
		<path clip-path="url(#SVGID_2_)" fill="#65BA88" d="M151.371,186.733c0,0,1.15,5.587,3.123,6.573
			c1.972,0.986,4.273,1.973,3.78,3.453c-0.493,1.479,0,3.616-1.644,4.108c-1.644,0.493-3.944,1.151-5.259,1.151
			c-1.315,0-2.63-1.15-3.616,0c-0.987,1.15-2.958,3.944-3.945,2.466c-0.986-1.479-1.808-2.137,0-2.958
			c1.808-0.823,3.288-0.822,2.794-1.48c-0.493-0.657-0.657-0.164-1.315-0.985c-0.657-0.822,0.822-1.879,0.329-3.241
			c-0.493-1.362-1.973-2.841-0.986-3.005c0.986-0.165,2.137,1.478,2.302-0.329c0.164-1.808,1.15-2.465-0.494-3.78
			c-1.644-1.315-2.137,0.165-2.137-1.972s-0.495-2.466-1.562-3.617c-1.067-1.15-1.889-3.287-2.053-5.424
			c-0.165-2.136,2.794-1.479,2.794-3.451s0.163-2.959,1.807-2.63c1.645,0.329,4.602-1.439,3.616-0.062
			c-0.986,1.377-3.287,2.856-1.644,3.185s4.766-0.329,3.944,1.479c-0.821,1.808-1.91,4.602-1.695,5.423
			C149.727,182.46,151.371,186.733,151.371,186.733z"/>
		<path clip-path="url(#SVGID_2_)" fill="#65BA88" d="M134.879,188.733c0.986,0,2.795-1.479,3.124,0
			c0.328,1.479,0.986,2.793,0,3.287c-0.987,0.493-1.944,1.314-1.302,2.466c0.644,1.15,1.616,2.793-0.021,3.45
			c-1.636,0.659-1.966,0.823-3.281,1.809c-1.314,0.985-2.464,1.807-3.286,1.315c-0.822-0.494-2.629,0.328-1.973-1.809
			c0.658-2.136,1.644-2.794,0.986-3.945c-0.658-1.15-2.912-1.314-1.126-2.629c1.784-1.315,2.441-0.493,3.428-1.315
			C132.414,190.541,134.879,188.733,134.879,188.733z"/>
		
			<path display="none" clip-path="url(#SVGID_2_)" fill="#77C198" stroke="#77C198" stroke-linecap="round" stroke-linejoin="round" stroke-miterlimit="10" d="
			M120.472,135.29c1.315,1.479,0.493,1.644,1.972,2.63c1.479,0.986,2.959,0.821,2.465,2.63c-0.493,1.808-2.136,5.095-3.615,5.588
			c-1.479,0.493-5.26,4.109-7.232,4.109c-1.972,0-2.465-0.164-3.944-1.15c-1.479-0.987-1.315,0.492-2.794-0.987
			c-1.479-1.479,0-0.657-0.658-2.63c-0.658-1.972-0.658-0.985-2.136-1.972c-1.479-0.986-1.314-1.644,0-1.644
			c1.315,0,2.63,0.822,1.972-0.822c-0.657-1.643-0.821-2.137-2.301-1.972c-1.479,0.164-0.658,1.644-1.479,0.164
			c-0.821-1.479-1.972-1.479,0-2.794s2.959-3.123,3.944-1.15c0.986,1.973,1.972,3.452,3.452,2.63
			c1.479-0.822,3.123-0.329,4.438-1.315c1.315-0.986,2.095-0.164,3.102-0.328C118.665,136.111,120.472,135.29,120.472,135.29z"/>
		
			<path clip-path="url(#SVGID_2_)" fill="#77C198" stroke="#77C198" stroke-linecap="round" stroke-linejoin="round" stroke-miterlimit="10" d="
			M77.74,343.363c1.314,2.302,1.972,5.921,0,7.562"/>
		<path clip-path="url(#SVGID_2_)" fill="#65BA88" d="M337.454,290.415c-0.711,3.128-3.471,4.674-6.928,6.386
			s-0.014,3.698-0.021,5.426c-0.006,1.723-3.977,8.365-4.967,9.593c-0.99,1.231-3.455,0.728-4.182-2.234
			c-0.729-2.96-1.469-3.209-2.445-5.433c-0.979-2.221-3.943-13.417-4.625-16.041c-2.953-11.396-16.461-14.608-16.461-14.608
			c-4.924-1.991-4.689,1.462-7.156,1.453c-2.463-0.01-4.924-1.499-8.619-2.499c-3.693-1.001-1.471-1.978-2.943-3.215
			c-1.477-1.239-4.688-0.018-6.658-0.025c-1.973-0.007-5.902-4.214-7.123-6.686c-1.226-2.469-4.189-0.756-5.678,1.459
			c-1.487,2.214-0.01,2.466,2.691,5.68c2.698,3.216,1.476,1.238,4.416,5.687c2.939,4.451,1.971,0.502,4.434,0.511
			c2.465,0.01,3.211-1.467,5.93-3.429c2.721-1.962,1.229,1.977,2.205,3.706c0.98,1.73,1.229,1.484,4.182,2.728
			c2.955,1.245,0.24,1.481-1.25,4.927c-1.492,3.445-2.977,4.427-6.936,8.355c-3.961,3.931-5.93,3.43-10.621,5.631
			c-4.694,2.201-10.617,4.151-13.826,5.124s-1.711-3.951-1.945-7.158c-0.234-3.204-1.957-3.949-5.395-7.908
			c-3.436-3.957-3.185-5.188-5.145-8.648c-1.959-3.458-2.201-4.691-4.648-9.139c-2.449-4.447-2.947-3.215-4.673-3.222
			s-0.753,3.447,1.456,6.167c2.209,2.721,2.202,4.446,4.653,8.154c2.451,3.706,1.94,8.389,3.404,12.34
			c1.465,3.95,3.19,3.71,5.401,6.184c2.209,2.473,2.454,2.721,4.667,4.456c2.212,1.732,1.718,2.225,5.413,2.732
			c3.695,0.506,3.701-0.975,5.926-2.445c2.225-1.47,4.441-0.968,6.404,1.259c1.965,2.226-4.227,9.847-6.219,14.769
			c-1.99,4.922-15.338,13.994-19.547,18.662c-4.208,4.669,2.156,16.771,2.373,24.416l-62.379,1.49
			c0.016-4.191,1.255-5.912,3.981-9.602c2.726-3.685,0.509-4.188-0.216-8.136c-0.724-3.947-5.643-7.17-9.289-12.114
			s-0.017-4.439,0.029-7.644c0.046-3.204-0.503-6.165-1.982-6.077c-1.479,0.09-6.326-0.609-8.121-3.904
			c-1.795-3.294-3.778-0.837-8.55,0.789c0,0-3.786,1.631-9.704,1.936c-5.918,0.307-14.782-2.521-14.782-2.521
			c-3.606-2.479-10.804-11.38-12.599-15.004c-1.795-3.621-2.452-3.461-1.617-7.071c0.836-3.614,1.66-4.27,1.514-9.365
			c-0.145-5.095,1.199-12.813,3.514-16.422c2.315-3.607,8.24-5.72,10.532-7.684c2.292-1.963-0.682-6.04,3.503-9.273
			c5.184-4.004,10.371-4.399,10.371-4.399c3.545-0.103,1.89,0.008,4.932-0.393c3.042-0.398,2.583-0.868,5.518-3.184
			c2.938-2.319,9.79-2.839,15.049-2.819c5.259,0.021,8.255,11.782,8.255,11.782c1.224,2.389,1.312,0.825,4.925,1.58
			c3.613,0.752,0.982,0.908,3.85,3.22s3.775,1.329,6.157,1.666c2.382,0.339,4.536-4.255,7.168-4.654
			c2.631-0.401,4.186,1.165,8.126,2.413c3.939,1.246,4.762,1.168,7.31,1.19c2.547,0.023,2.878-0.659,5.18-1.061
			c2.303-0.401,2.051,0.912,3.777,1.082c1.725,0.171,2.387-1.305,3.545-3.192c1.158-1.885,1.498-4.841,1.915-6.565
			c0.418-1.727,0.341-2.959,0.349-5.012c0.008-2.055-1.645-0.088-3.453,0.315c-1.81,0.405-2.797,0.729-3.537,0.727
			c-0.739-0.003-1.23-0.333-2.951-1.738c-1.721-1.404-2.221,0.568-3.049,2.044c-0.827,1.476-1.805-0.829-2.214-1.324
			c-0.409-0.493-4.423-3.715-4.083-6.508c0.339-2.794-0.808-3.864-3.515-4.942c-2.708-1.079-1.89,0.074-4.692,2.2
			c-2.803,2.126,0.403,1.975,1.056,3.125c0.654,1.156,1.065,0.992,1.305,2.719c0.24,1.726-2.3-0.173-4.269-1.086
			c-1.969-0.91-2.631,0.319-3.618,0.479c-0.986,0.162-0.725-3.782-1.625-4.77c-0.9-0.992-0.731-2.222-1.295-5.184
			c-0.563-2.961-0.733-1.482-2.207-3.049c-1.474-1.566-2.789-1.571-5.082-3.636c-2.294-2.062-2.538-2.474-4.175-4.371
			c-1.637-1.896-1.638-1.485-2.789-1.325c-1.15,0.161-1.073,1.229-0.917,3.448c0.155,2.22,2.862,3.874,4.253,5.274
			c1.392,1.402,2.21,2.31,3.766,3.796c1.557,1.482,3.689,2.396,4.508,3.058c0.819,0.66,0.488,1.315-0.171,1.806
			c-0.659,0.492-1.805-0.828-2.708-1.162c-0.902-0.329-0.085,0.906,0.158,1.647c0.245,0.739-0.086,1.395-0.257,2.956
			c-0.171,1.561-1.322,1.886-2.142,1.471c-0.821-0.415,0.334-1.559,0.345-4.271c0.01-2.71-3.028-3.382-3.928-4.205
			c-0.901-0.824-2.871-1.409-3.609-1.985c-0.737-0.58-2.616-3.545-2.856-5.188c-0.24-1.646-3.443-2.15-5.414-2.733
			c-1.97-0.581-2.142,1.553-6.094,3.431c-3.952,1.874-3.038-0.835-5.919,0.469c-2.881,1.306-0.337,2.382-3.801,5.492
			c-3.463,3.108-1.978,1.472-3.883,5.408c-1.905,3.938-2.065,2.787-2.896,5.247c-0.832,2.463-1.979,1.883-3.868,1.795
			c-1.89-0.089-2.552,0.894-4.362,1.872c-1.812,0.98-1.473-1.729-3.114-2.591c0,0-1.315,0.028-2.466,0.187
			c-1.151,0.159-2.465-0.172-3.115-2.147c-0.649-1.973,0.841-4.681,0.841-4.681s-2.123-3.872-2.106-8.308
			c0.017-4.438,3.708-2.781,7.402-3.506c3.695-0.725,9.624-0.291,9.624-0.291c2.983-6.727-1.431-12.908-1.431-12.908
			c-0.49-0.905-2.208-0.394-3.451-0.341c-1.621,0.067-0.363-1.851,0.752-3.327c1.115-1.475,4.566-1.215,8.023-2.681
			c3.456-1.466,7.048-5.85,7.048-5.85s2.727-3.975,4.581-5.324c1.854-1.349,8.364-6.049,8.364-6.049
			c0.334-1.396-0.844-0.825-1.167-2.306c-0.323-1.48,0.009-2.383-0.152-3.123c-0.161-0.74-1.556-1.567-1.469-2.882
			c0.088-1.315,1.015-0.818,1.839-1.472c0.824-0.656,0.552-0.573,1.457-1.063c0.906-0.489,1.566-1.145,2.552-1.058
			c0.986,0.086,0.244,0.658,0.24,1.891c-0.005,1.232-0.335,1.642-0.588,3.449c-0.254,1.807-0.005,1.232,0.404,1.81
			c0.409,0.577,0.162,0.576,0.075,1.89c-0.087,1.314-0.741,0.326-0.99,1.064c-0.25,0.738,0.194-1.231,0.678,1.236
			c0.485,2.467,0,0,1.229,0.99l10.843,1.274c1.481-0.487,2.223-0.978,4.163-2.45c1.94-1.472,2.255,0.255,3.731,1.247
			c1.476,0.992,2.475-2.456,4.208-4.395s-0.736-1.016-0.97-4.467c0,0-0.404-1.728,1.245-3.529c1.651-1.801,6.165,0.105,6.165,0.105
			c1.726-0.241,0.251-1.478,0.251-1.478s-0.733-1.729-0.725-3.948c0.008-2.218,1.485-1.72,2.966-1.961
			c1.48-0.24,4.438,0.017,5.67,0.021c1.232,0.005,2.476-2.702,2.482-4.675c0.008-1.972-2.956-0.504-5.422-0.267
			c-2.467,0.237-4.933,0.475-5.923,1.703c-0.99,1.23-2.958-0.011-4.437-0.263c-1.478-0.252,0.064-5.412,0.085-10.835
			s1.241-2.214,3.221-4.179c1.98-1.964,1.457-5.923,3.443-9.367c1.985-3.444-0.976-2.715-3.933-2.974
			c-2.958-0.258-4.206,3.929-4.223,8.364c-0.017,4.436-2.473,1.966-5.942,6.637c-3.469,4.67-1.508,7.391-1.802,10.101
			c-0.294,2.711,1.019,1.484,1.998,3.212c0.979,1.729-0.251,1.233-2.029,4.923c-1.777,3.691-2.935,3.687-3.196,7.63
			c-0.262,3.944-0.746,1.723-3.215,2.7c-2.469,0.978-0.746,1.724-2.968,2.454c-2.222,0.731-3.89-14.313-6.848-14.572
			c-2.958-0.257-1.49,2.954-6.675,4.906c-5.185,1.954-4.146-11.849-4.134-15.301c0.013-3.451,2.735-5.906,8.175-10.077
			c5.438-4.171,4.473-9.598,11.171-20.42c6.697-10.822,12.871-13.511,19.298-18.17c6.428-4.66,15.773,1.539,15.773,1.539
			s3.198,1.491,7.869,5.208c4.67,3.716,7.137,3.231,10.334,5.463c3.196,2.231,3.926,4.699,5.639,8.157
			c1.713,3.458-3.469,4.917-5.691,5.648c-2.223,0.732-3.691-1.985-8.861-3.731c-5.171-1.745-1.238,1.228-0.258,3.204
			c0.979,1.976,0.973,3.455,0.959,7.153s1.709,4.444,4.667,4.455c2.958,0.011-0.728-3.208,0.761-5.667s4.191,0.016,6.404,1.75
			c2.211,1.735,1.291-1.208,1.242-2.707c-0.221-6.822,7.674-8.354,7.674-8.354c2.717-1.222-0.732-1.975-1.463-4.197
			c-0.731-2.221,1.238-1.474,1.496-4.678c0.26-3.205,2.959,0.011,5.668,1.007c2.707,0.997-1.983,2.705-3.466,3.685
			c-1.483,0.981,0.238,2.22,3.688,2.48s2.963-1.468,2.971-3.194c0.006-1.726,3.461-2.698,5.932-4.662
			c2.475-1.963,2.719-1.223,5.678-1.705c0,0,5.676-1.704,10.359-0.947c3.246,0.525,1.967,0.993,4.682,0.757
			c2.711-0.236,0.258-2.71-1.461-4.936c-1.715-2.226-1.717-1.979-1.957-3.706s2.955,0.751,4.432,1.249
			c1.479,0.499,2.211,2.474,3.441,2.972C291.516,116.683,361.097,186.389,337.454,290.415z"/>
	</g>
	<g>
		<g>
			<g>
				<path fill="#53B36F" d="M160.607,360.937c-0.513,1.288-3.416,8.851-5.504,10.856c-5.139,4.943-14.482,1.388-14.482,1.388
					s3.463-13.333,13.513-11.383c3.932,0.766,3.746,0.672,5.007-1.58l1.065-2.798l1.52,0.578L160.607,360.937z"/>
			</g>
		</g>
		<g>
			<g>
				<path fill="#46A260" d="M160.09,366.429c-0.473,1.299-3.332,8.882-3.109,11.767c0.555,7.112,9.896,10.667,9.896,10.667
					s6.281-12.261-2.525-17.485c-3.443-2.045-3.24-1.993-2.688-4.513l2.957-7.766l-1.519-0.577L160.09,366.429z"/>
			</g>
			<g>
				<path fill="#46A260" d="M159.272,368.709c-0.997,2.845-2.451,7.396-2.291,9.486c0.555,7.112,9.896,10.667,9.896,10.667"/>
			</g>
		</g>
		<g>
			<g>
				<path fill="#53B36F" d="M152.245,380.89c-0.475,1.302-3.333,8.88-3.11,11.768c0.555,7.111,9.897,10.667,9.897,10.667
					s6.279-12.259-2.527-17.485c-3.444-2.046-3.239-1.993-2.69-4.512l2.225-5.84l-1.518-0.578L152.245,380.89z"/>
			</g>
			<g>
				<path fill="#53B36F" d="M151.424,383.172c-0.994,2.844-2.448,7.396-2.29,9.485c0.555,7.111,9.897,10.667,9.897,10.667"/>
			</g>
		</g>
	</g>
	<g>
		<g>
			<g>
				<path fill="#53B36F" d="M254.316,101.343c0.4-1.327,2.649-9.109,4.56-11.286c4.698-5.363,14.311-2.616,14.311-2.616
					s-2.315,13.58-12.494,12.492c-3.982-0.428-3.789-0.351-4.854,2l-0.823,2.878l-1.563-0.447L254.316,101.343z"/>
			</g>
		</g>
		<g>
			<g>
				<path fill="#46A260" d="M254.363,95.827c0.36-1.334,2.563-9.133,2.096-11.988c-1.157-7.04-10.769-9.786-10.769-9.786
					s-5.214,12.751,4.005,17.207c3.605,1.744,3.398,1.71,3.062,4.267l-2.284,7.99l1.562,0.446L254.363,95.827z"/>
			</g>
			<g>
				<path fill="#46A260" d="M254.984,93.485c0.75-2.919,1.812-7.578,1.475-9.646c-1.157-7.04-10.769-9.786-10.769-9.786"/>
			</g>
		</g>
		<g>
			<g>
				<path fill="#53B36F" d="M260.948,80.751c0.362-1.338,2.564-9.132,2.097-11.99c-1.157-7.039-10.769-9.786-10.769-9.786
					s-5.213,12.749,4.006,17.207c3.605,1.745,3.397,1.71,3.065,4.266l-1.72,6.008l1.562,0.447L260.948,80.751z"/>
			</g>
			<g>
				<path fill="#53B36F" d="M261.572,78.407c0.749-2.918,1.81-7.577,1.473-9.646c-1.157-7.039-10.769-9.786-10.769-9.786"/>
			</g>
		</g>
	</g>
	<g>
		<g>
			<g>
				<path fill="#46A260" d="M341.409,262.257c1.336,0.374,9.109,2.653,11.971,2.212c7.047-1.087,9.887-10.673,9.887-10.673
					s-12.699-5.334-17.244,3.839c-1.777,3.59-1.74,3.385-4.295,3.021l-2.871-0.85l-0.461,1.559L341.409,262.257z"/>
			</g>
		</g>
		<g>
			<g>
				<path fill="#53B36F" d="M346.09,265.179c1.318,0.412,9.08,2.739,11.238,4.666c5.318,4.755,2.479,14.338,2.479,14.338
					s-13.557-2.443-12.371-12.614c0.463-3.979,0.385-3.783-1.955-4.873l-7.967-2.361l0.461-1.559L346.09,265.179z"/>
			</g>
			<g>
				<path fill="#53B36F" d="M348.397,265.912c2.869,0.934,7.369,2.539,8.932,3.934c5.318,4.755,2.479,14.338,2.479,14.338"/>
			</g>
		</g>
		<g>
			<g>
				<path fill="#53B36F" d="M362.346,267.714c1.322,0.411,9.078,2.737,11.24,4.665c5.318,4.755,2.479,14.341,2.479,14.341
					s-13.559-2.446-12.369-12.617c0.461-3.979,0.383-3.783-1.955-4.874l-5.994-1.773l0.463-1.56L362.346,267.714z"/>
			</g>
			<g>
				<path fill="#53B36F" d="M364.655,268.445c2.865,0.936,7.367,2.541,8.932,3.935c5.318,4.755,2.479,14.341,2.479,14.341"/>
			</g>
		</g>
	</g>
	<g>
		
			<rect x="79.29" y="120.779" transform="matrix(0.6155 -0.7882 0.7882 0.6155 -78.0298 119.2261)" fill="#B08048" width="7.768" height="37.604"/>
		
			<rect x="80.036" y="122.309" transform="matrix(0.6155 -0.7881 0.7881 0.6155 -79.693 118.8578)" fill="#905F37" width="3.885" height="37.604"/>
		
			<path fill="#53B06E" stroke="#53B06E" stroke-width="0.0743" stroke-linecap="round" stroke-linejoin="round" stroke-miterlimit="10" d="
			M68.674,78.773c-8.008-6.254-19.571-4.832-25.825,3.177c-1.185,1.518-2.093,3.163-2.734,4.875
			c-7.948-5.425-18.85-3.813-24.856,3.878c-6.254,8.009-4.831,19.571,3.177,25.825c1.621,1.265,3.389,2.212,5.228,2.857
			c-6.18,8.006-4.741,19.508,3.239,25.74c8.008,6.255,19.57,4.832,25.824-3.177c2.096-2.684,3.325-5.767,3.737-8.917
			c5.812,0.322,11.683-2.107,15.537-7.042c5.166-6.616,5.089-15.654,0.392-22.125C78.012,95.897,76.441,84.838,68.674,78.773z"/>
		
			<path fill="#46A260" stroke="#46A260" stroke-width="0.0743" stroke-linecap="round" stroke-linejoin="round" stroke-miterlimit="10" d="
			M15.259,90.703c-6.254,8.009-4.831,19.571,3.177,25.825c1.621,1.265,3.389,2.212,5.228,2.857
			c-6.18,8.006-4.741,19.508,3.239,25.74c8.008,6.255,19.57,4.832,25.824-3.177c2.096-2.684,3.325-5.767,3.737-8.917
			c4.591,0.255,9.218-1.208,12.859-4.266c0,0-51.509-40.223-51.819-40.465C16.5,89.027,15.259,90.703,15.259,90.703z"/>
	</g>
	<g>
		
			<rect x="331.122" y="292.483" transform="matrix(-0.515 0.8572 -0.8572 -0.515 765.071 173.8074)" fill="#B08048" width="4.486" height="21.716"/>
		
			<rect x="332.821" y="291.521" transform="matrix(-0.5153 0.857 -0.857 -0.5153 765.1699 172.017)" fill="#905F37" width="2.244" height="21.716"/>
		
			<path fill="#53B06E" stroke="#53B06E" stroke-width="0.0429" stroke-linecap="round" stroke-linejoin="round" stroke-miterlimit="10" d="
			M345.95,337.178c5.031,3.021,11.559,1.394,14.58-3.637c0.574-0.953,0.979-1.96,1.225-2.986c4.938,2.549,11.072,0.859,13.977-3.97
			c3.021-5.033,1.393-11.559-3.637-14.58c-1.02-0.612-2.1-1.031-3.199-1.271c2.98-5.024,1.348-11.516-3.664-14.527
			c-5.031-3.022-11.559-1.394-14.58,3.636c-1.012,1.687-1.5,3.54-1.516,5.374c-3.354,0.223-6.549,2.029-8.412,5.128
			c-2.494,4.157-1.814,9.332,1.332,12.711C339.393,328.017,341.071,334.248,345.95,337.178z"/>
		
			<path fill="#46A260" stroke="#46A260" stroke-width="0.0429" stroke-linecap="round" stroke-linejoin="round" stroke-miterlimit="10" d="
			M375.731,326.585c3.021-5.033,1.393-11.559-3.637-14.58c-1.02-0.612-2.1-1.031-3.199-1.271c2.98-5.024,1.348-11.516-3.664-14.527
			c-5.031-3.022-11.559-1.394-14.58,3.636c-1.012,1.687-1.5,3.54-1.516,5.374c-2.648,0.177-5.197,1.341-7.07,3.35
			c0,0,32.352,19.434,32.547,19.552C375.137,327.631,375.731,326.585,375.731,326.585z"/>
	</g>
	<g>
		
			<rect x="292.733" y="93.782" transform="matrix(0.7885 0.615 -0.615 0.7885 129.7374 -158.8972)" fill="#B08048" width="6.371" height="30.837"/>
		
			<rect x="293.07" y="92.802" transform="matrix(0.7885 0.615 -0.615 0.7885 128.8695 -158.332)" fill="#905F37" width="3.185" height="30.837"/>
		
			<path fill="#53B06E" stroke="#53B06E" stroke-width="0.061" stroke-linecap="round" stroke-linejoin="round" stroke-miterlimit="10" d="
			M345.774,97.281c5.127-6.571,3.953-16.052-2.615-21.176c-1.248-0.971-2.596-1.714-4.002-2.239
			c4.445-6.521,3.117-15.459-3.191-20.381c-6.57-5.125-16.051-3.952-21.174,2.618c-1.039,1.331-1.814,2.78-2.342,4.289
			c-6.566-5.063-16-3.879-21.104,2.669c-5.127,6.569-3.953,16.051,2.615,21.175c2.203,1.716,4.732,2.723,7.314,3.06
			c-0.262,4.767,1.732,9.579,5.783,12.737c5.426,4.231,12.838,4.166,18.143,0.31C331.735,104.947,340.805,103.653,345.774,97.281z"
			/>
		
			<path fill="#46A260" stroke="#46A260" stroke-width="0.061" stroke-linecap="round" stroke-linejoin="round" stroke-miterlimit="10" d="
			M335.965,53.485c-6.57-5.125-16.051-3.952-21.174,2.618c-1.039,1.331-1.814,2.78-2.342,4.289c-6.566-5.063-16-3.879-21.104,2.669
			c-5.127,6.569-3.953,16.051,2.615,21.175c2.203,1.716,4.732,2.723,7.314,3.06c-0.207,3.764,0.994,7.558,3.504,10.542
			c0,0,32.957-42.258,33.156-42.513C337.338,54.502,335.965,53.485,335.965,53.485z"/>
	</g>
	<g>
		<g>
			
				<rect x="97.119" y="324.336" transform="matrix(-0.7157 -0.6984 0.6984 -0.7157 -65.1414 659.9559)" fill="#905F36" width="9.276" height="37.801"/>
			
				<rect x="101.096" y="325.955" transform="matrix(-0.7157 -0.6984 0.6984 -0.7157 -63.4038 663.9041)" fill="#804E29" width="4.64" height="37.801"/>
		</g>
		<g>
			<polygon fill="#53B06D" stroke="#53B06D" stroke-width="0.1822" stroke-miterlimit="10" points="69.163,348.809 96.672,375.649 
				65.295,380.291 			"/>
			
				<polygon fill="#46A260" stroke="#46A260" stroke-width="0.2054" stroke-linecap="round" stroke-linejoin="round" stroke-miterlimit="10" points="
				96.672,375.649 65.295,380.291 82.918,362.228 			"/>
		</g>
		<g>
			<polygon fill="#53B06D" stroke="#53B06D" stroke-width="0.2252" stroke-miterlimit="10" points="74.106,337.356 107.999,370.426 
				69.212,376.273 			"/>
			
				<polygon fill="#46A260" stroke="#46A260" stroke-width="0.2538" stroke-linecap="round" stroke-linejoin="round" stroke-miterlimit="10" points="
				107.999,370.426 69.212,376.273 91.051,353.89 			"/>
		</g>
		<g>
			<polygon fill="#53B06D" stroke="#53B06D" stroke-width="0.2624" stroke-miterlimit="10" points="79.062,326.2 119.03,365.2 
				73.889,371.482 			"/>
			
				<polygon fill="#46A260" stroke="#46A260" stroke-width="0.2957" stroke-linecap="round" stroke-linejoin="round" stroke-miterlimit="10" points="
				119.03,365.2 73.889,371.482 99.045,345.699 			"/>
		</g>
		<g>
			<polygon fill="#53B06D" stroke="#53B06D" stroke-width="0.2898" stroke-miterlimit="10" points="84.6,316.36 128.733,359.421 
				78.889,366.359 			"/>
			
				<polygon fill="#46A260" stroke="#46A260" stroke-width="0.3266" stroke-linecap="round" stroke-linejoin="round" stroke-miterlimit="10" points="
				128.733,359.421 78.889,366.359 106.667,337.889 			"/>
		</g>
		<g>
			<polygon fill="#53B06D" stroke="#53B06D" stroke-width="0.1435" stroke-miterlimit="10" points="64.765,359.5 86.09,380.309 
				61.337,384.346 			"/>
			
				<polygon fill="#46A260" stroke="#46A260" stroke-width="0.1617" stroke-linecap="round" stroke-linejoin="round" stroke-miterlimit="10" points="
				86.09,380.309 61.337,384.346 75.428,369.905 			"/>
		</g>
	</g>
	<g>
		<g>
			
				<rect x="199.987" y="57.025" transform="matrix(0.9987 0.0501 -0.0501 0.9987 4.062 -10.1591)" fill="#905F36" width="9.276" height="37.801"/>
			
				<rect x="199.99" y="56.909" transform="matrix(0.9987 0.0501 -0.0501 0.9987 4.0517 -10.0395)" fill="#804E29" width="4.64" height="37.801"/>
		</g>
		<g>
			<polygon fill="#53B06D" stroke="#53B06D" stroke-width="0.1822" stroke-miterlimit="10" points="225.375,50.181 186.991,48.259 
				207.445,24.017 			"/>
			
				<polygon fill="#46A260" stroke="#46A260" stroke-width="0.2054" stroke-linecap="round" stroke-linejoin="round" stroke-miterlimit="10" points="
				186.991,48.259 207.445,24.017 206.183,49.221 			"/>
		</g>
		<g>
			<polygon fill="#53B06D" stroke="#53B06D" stroke-width="0.2252" stroke-miterlimit="10" points="229.248,62.039 181.953,59.67 
				207.167,29.622 			"/>
			
				<polygon fill="#46A260" stroke="#46A260" stroke-width="0.2538" stroke-linecap="round" stroke-linejoin="round" stroke-miterlimit="10" points="
				181.953,59.67 207.167,29.622 205.602,60.854 			"/>
		</g>
		<g>
			<polygon fill="#53B06D" stroke="#53B06D" stroke-width="0.2624" stroke-miterlimit="10" points="232.914,73.683 177.141,70.888 
				206.83,36.308 			"/>
			
				<polygon fill="#46A260" stroke="#46A260" stroke-width="0.2957" stroke-linecap="round" stroke-linejoin="round" stroke-miterlimit="10" points="
				177.141,70.888 206.83,36.308 205.029,72.286 			"/>
		</g>
		<g>
			<polygon fill="#53B06D" stroke="#53B06D" stroke-width="0.2898" stroke-miterlimit="10" points="235.272,84.726 173.689,81.64 
				206.471,43.458 			"/>
			
				<polygon fill="#46A260" stroke="#46A260" stroke-width="0.3266" stroke-linecap="round" stroke-linejoin="round" stroke-miterlimit="10" points="
				173.689,81.64 206.471,43.458 204.481,83.184 			"/>
		</g>
		<g>
			<polygon fill="#53B06D" stroke="#53B06D" stroke-width="0.1435" stroke-miterlimit="10" points="221.599,39.254 191.841,37.763 
				207.729,18.358 			"/>
			
				<polygon fill="#46A260" stroke="#46A260" stroke-width="0.1617" stroke-linecap="round" stroke-linejoin="round" stroke-miterlimit="10" points="
				191.841,37.763 207.729,18.358 206.72,38.509 			"/>
		</g>
	</g>
	<g>
		<g>
			
				<rect x="93.023" y="31.667" transform="matrix(0.8781 -0.4784 0.4784 0.8781 -20.8272 67.4027)" fill="#EEE1CD" stroke="#EEE1CD" stroke-width="0.2766" stroke-miterlimit="10" width="57.722" height="85.828"/>
			
				<rect x="94.781" y="38.571" transform="matrix(0.8781 -0.4785 0.4785 0.8781 -25.675 62.1844)" opacity="0.33" fill="#CABB9D" stroke="#CABB9D" stroke-width="0.1956" stroke-miterlimit="10" width="28.861" height="85.828"/>
		</g>
		
			<rect x="66.23" y="12.317" transform="matrix(0.8781 -0.4784 0.4784 0.8781 -0.5646 48.5916)" fill="#796955" stroke="#796955" stroke-width="0.1528" stroke-miterlimit="10" width="57.723" height="26.175"/>
		<path fill="#A38977" stroke="#A38977" stroke-width="0.1741" stroke-miterlimit="10" d="M117.188,108.512"/>
		<path fill="#C5E0E9" d="M112.324,90.433"/>
		<path fill="#A38977" stroke="#A38977" stroke-width="0.1741" stroke-miterlimit="10" d="M120.62,106.555"/>
		<path fill="#A38977" stroke="#A38977" stroke-width="0.1741" stroke-miterlimit="10" d="M129.547,101.779"/>
		<path fill="#C5E0E9" d="M124.682,83.7"/>
		<path fill="#A38977" stroke="#A38977" stroke-width="0.1741" stroke-miterlimit="10" d="M132.978,99.821"/>
		<g>
			
				<rect x="104.165" y="81.354" transform="matrix(0.8781 -0.4785 0.4785 0.8781 -27.256 61.0881)" fill="#867263" width="4.191" height="5.362"/>
			
				<rect x="101.134" y="75.791" transform="matrix(0.8781 -0.4784 0.4784 0.8781 -24.9612 58.9464)" fill="#867263" width="4.191" height="5.361"/>
			
				<rect x="105.708" y="73.298" transform="matrix(0.8781 -0.4785 0.4785 0.8781 -23.2128 60.8445)" fill="#867263" width="4.191" height="5.361"/>
			
				<rect x="108.74" y="78.862" transform="matrix(0.8782 -0.4783 0.4783 0.8782 -25.5029 62.9518)" fill="#867263" width="4.191" height="5.362"/>
		</g>
		
			<rect x="117.897" y="73.872" transform="matrix(0.8781 -0.4784 0.4784 0.8781 -22.001 66.7324)" fill="#867263" width="4.191" height="5.362"/>
		
			<rect x="114.866" y="68.309" transform="matrix(0.8781 -0.4784 0.4784 0.8781 -19.7084 64.6041)" fill="#867263" width="4.191" height="5.361"/>
		
			<rect x="119.441" y="65.817" transform="matrix(0.8782 -0.4784 0.4784 0.8782 -17.9589 66.4824)" fill="#A38977" width="4.19" height="5.361"/>
		
			<rect x="122.472" y="71.38" transform="matrix(0.8781 -0.4785 0.4785 0.8781 -20.2518 68.6318)" fill="#A38977" width="4.191" height="5.363"/>
		<g>
			
				<rect x="131.629" y="66.39" transform="matrix(0.8782 -0.4783 0.4783 0.8782 -16.7487 72.3817)" fill="#A38977" width="4.191" height="5.363"/>
			
				<rect x="128.598" y="60.826" transform="matrix(0.8781 -0.4784 0.4784 0.8781 -14.4554 70.2687)" fill="#A38977" width="4.192" height="5.362"/>
			
				<rect x="133.173" y="58.335" transform="matrix(0.8781 -0.4785 0.4785 0.8781 -12.7051 72.163)" fill="#A38977" width="4.19" height="5.361"/>
			
				<rect x="136.204" y="63.898" transform="matrix(0.8781 -0.4784 0.4784 0.8781 -14.9982 74.2834)" fill="#A38977" width="4.19" height="5.363"/>
		</g>
		<g>
			
				<rect x="93.694" y="62.134" transform="matrix(0.8781 -0.4785 0.4785 0.8781 -19.3368 53.7414)" fill="#867263" width="4.191" height="5.363"/>
			
				<rect x="90.662" y="56.571" transform="matrix(0.8781 -0.4784 0.4784 0.8781 -17.0427 51.5949)" fill="#867263" width="4.191" height="5.362"/>
			
				<rect x="95.237" y="54.079" transform="matrix(0.8781 -0.4784 0.4784 0.8781 -15.2931 53.486)" fill="#867263" width="4.19" height="5.361"/>
			
				<rect x="98.269" y="59.642" transform="matrix(0.878 -0.4786 0.4786 0.878 -17.5868 55.6332)" fill="#867263" width="4.19" height="5.363"/>
		</g>
		
			<rect x="107.426" y="54.653" transform="matrix(0.8781 -0.4784 0.4784 0.8781 -14.0824 59.3811)" fill="#867263" width="4.191" height="5.362"/>
		
			<rect x="104.395" y="49.089" transform="matrix(0.8781 -0.4784 0.4784 0.8781 -11.79 57.2527)" fill="#867263" width="4.191" height="5.361"/>
		
			<rect x="108.969" y="46.597" transform="matrix(0.8781 -0.4784 0.4784 0.8781 -10.0403 59.1375)" fill="#A38977" width="4.191" height="5.362"/>
		
			<rect x="112.001" y="52.161" transform="matrix(0.8781 -0.4785 0.4785 0.8781 -12.3321 61.2798)" fill="#A38977" width="4.19" height="5.362"/>
		<g>
			
				<rect x="121.158" y="47.172" transform="matrix(0.8781 -0.4784 0.4784 0.8781 -8.8294 65.0461)" fill="#A38977" width="4.19" height="5.362"/>
			
				<rect x="118.127" y="41.608" transform="matrix(0.8782 -0.4783 0.4783 0.8782 -6.5394 62.8974)" fill="#A38977" width="4.191" height="5.361"/>
			
				<rect x="122.701" y="39.115" transform="matrix(0.8781 -0.4784 0.4784 0.8781 -4.7865 64.8024)" fill="#A38977" width="4.19" height="5.361"/>
			
				<rect x="125.733" y="44.679" transform="matrix(0.8781 -0.4785 0.4785 0.8781 -7.0781 66.9384)" fill="#A38977" width="4.19" height="5.362"/>
		</g>
		<g>
			
				<rect x="114.637" y="100.574" transform="matrix(0.8781 -0.4785 0.4785 0.8781 -35.1778 68.4501)" fill="#867263" width="4.191" height="5.362"/>
			
				<rect x="111.605" y="95.009" transform="matrix(0.8781 -0.4784 0.4784 0.8781 -32.8814 66.3057)" fill="#867263" width="4.19" height="5.363"/>
			
				<rect x="116.18" y="92.517" transform="matrix(0.8781 -0.4785 0.4785 0.8781 -31.1326 68.1979)" fill="#867263" width="4.191" height="5.362"/>
			
				<rect x="119.211" y="98.082" transform="matrix(0.8782 -0.4783 0.4783 0.8782 -33.4208 70.3026)" fill="#867263" width="4.191" height="5.362"/>
		</g>
		
			<rect x="128.369" y="93.093" transform="matrix(0.8781 -0.4784 0.4784 0.8781 -29.9212 74.0931)" fill="#867263" width="4.19" height="5.362"/>
		
			<rect x="125.338" y="87.528" transform="matrix(0.878 -0.4786 0.4786 0.878 -27.6311 71.9887)" fill="#867263" width="4.19" height="5.362"/>
		
			<rect x="129.912" y="85.035" transform="matrix(0.8781 -0.4785 0.4785 0.8781 -25.879 73.8576)" fill="#A38977" width="4.19" height="5.363"/>
		
			<rect x="132.943" y="90.6" transform="matrix(0.8781 -0.4785 0.4785 0.8781 -28.1719 75.9854)" fill="#A38977" width="4.191" height="5.362"/>
		
			<rect x="145.974" y="83.297" transform="matrix(0.8781 -0.4784 0.4784 0.8781 -26.9618 83.6345)" fill="#A38977" width="9.4" height="22.88"/>
		
			<rect x="139.069" y="80.046" transform="matrix(0.8781 -0.4784 0.4784 0.8781 -22.3749 77.621)" fill="#A38977" width="4.192" height="5.362"/>
		
			<rect x="143.644" y="77.554" transform="matrix(0.8781 -0.4784 0.4784 0.8781 -20.625 79.4995)" fill="#A38977" width="4.19" height="5.362"/>
		
			<rect x="67.989" y="19.221" transform="matrix(0.8781 -0.4784 0.4784 0.8781 -5.4125 43.3691)" fill="#604D40" stroke="#604D40" stroke-width="0.108" stroke-miterlimit="10" width="28.862" height="26.175"/>
		
			<rect x="77.082" y="10.989" transform="matrix(0.8781 -0.4785 0.4785 0.8781 1.0199 41.0995)" fill="#796955" stroke="#796955" stroke-width="0.1528" stroke-miterlimit="10" width="8.182" height="15.118"/>
		
			<rect x="146.261" y="84.422" transform="matrix(0.8781 -0.4784 0.4784 0.8781 -27.7508 82.7768)" fill="#867263" width="4.699" height="22.88"/>
	</g>
	<g>
		<polygon fill="#ECECED" stroke="#ECECED" stroke-width="0.348" stroke-miterlimit="10" points="255.731,360.709 305.991,327.279 
			324.354,354.89 311.057,389.395 274.094,388.323 		"/>
		<polygon opacity="0.7" fill="#D9DADB" stroke="#D9DADB" stroke-width="0.348" stroke-miterlimit="10" points="280.858,343.996 
			305.991,327.279 324.354,354.89 311.057,389.395 		"/>
		<g>
			
				<rect x="304.439" y="342.39" transform="matrix(-0.8326 0.5539 -0.5539 -0.8326 753.7645 463.1948)" fill="#868789" stroke="#868789" stroke-width="0.2827" stroke-linecap="round" stroke-linejoin="round" stroke-miterlimit="10" width="4.882" height="6.249"/>
			
				<rect x="308.526" y="348.539" transform="matrix(-0.8326 0.5539 -0.5539 -0.8326 764.6613 472.1971)" fill="#868789" stroke="#868789" stroke-width="0.2827" stroke-linecap="round" stroke-linejoin="round" stroke-miterlimit="10" width="4.882" height="6.246"/>
			
				<rect x="303.471" y="351.899" transform="matrix(-0.8326 0.5539 -0.5539 -0.8326 757.2531 481.1816)" fill="#868789" stroke="#868789" stroke-width="0.2827" stroke-linecap="round" stroke-linejoin="round" stroke-miterlimit="10" width="4.884" height="6.248"/>
			
				<rect x="299.38" y="345.752" transform="matrix(-0.8326 0.5538 -0.5538 -0.8326 746.3467 472.2063)" fill="#868789" stroke="#868789" stroke-width="0.2827" stroke-linecap="round" stroke-linejoin="round" stroke-miterlimit="10" width="4.886" height="6.249"/>
		</g>
		<g>
			
				<polygon fill="#868789" stroke="#868789" stroke-width="0.2827" stroke-linecap="round" stroke-linejoin="round" stroke-miterlimit="10" points="
				288.165,354.212 292.227,351.507 295.69,356.71 291.622,359.415 			"/>
			
				<rect x="293.573" y="358.485" transform="matrix(-0.8325 0.5541 -0.5541 -0.8325 742.7905 498.6318)" fill="#868789" stroke="#868789" stroke-width="0.2827" stroke-linecap="round" stroke-linejoin="round" stroke-miterlimit="10" width="4.882" height="6.246"/>
			
				<rect x="288.52" y="361.848" transform="matrix(-0.8326 0.5539 -0.5539 -0.8326 735.3696 507.6699)" fill="#9C9C9E" stroke="#9C9C9E" stroke-width="0.2827" stroke-linecap="round" stroke-linejoin="round" stroke-miterlimit="10" width="4.882" height="6.247"/>
			
				<rect x="284.428" y="355.7" transform="matrix(-0.8325 0.5541 -0.5541 -0.8325 724.4913 498.5981)" fill="#9C9C9E" stroke="#9C9C9E" stroke-width="0.2827" stroke-linecap="round" stroke-linejoin="round" stroke-miterlimit="10" width="4.882" height="6.25"/>
		</g>
		
			<polygon fill="#9C9C9E" stroke="#9C9C9E" stroke-width="0.2827" stroke-linecap="round" stroke-linejoin="round" stroke-miterlimit="10" points="
			262.283,356.349 271.405,350.285 285.909,372.086 276.786,378.15 		"/>
		
			<polygon fill="#868789" stroke="#868789" stroke-width="0.2827" stroke-linecap="round" stroke-linejoin="round" stroke-miterlimit="10" points="
			266.842,353.316 271.405,350.285 285.909,372.086 281.346,375.116 		"/>
		
			<polyline fill="none" stroke="#5A595B" stroke-width="3.0805" stroke-linecap="round" stroke-linejoin="round" stroke-miterlimit="10" points="
			324.942,353.11 311.057,389.395 271.93,388.366 		"/>
		<g>
			<circle fill="#9C9C9E" cx="303.083" cy="377.72" r="4.506"/>
			<path fill="#868789" d="M300.586,373.967c2.072-1.379,4.869-0.814,6.248,1.258c1.379,2.07,0.814,4.868-1.258,6.245
				L300.586,373.967z"/>
		</g>
		
			<polygon fill="#5A595B" stroke="#5A595B" stroke-width="0.6846" stroke-linecap="round" stroke-linejoin="round" stroke-miterlimit="10" points="
			316.854,373.97 320.315,365.361 326.133,374.107 319.762,378.347 		"/>
	</g>
	<g>
		<polygon fill="#ECECED" stroke="#ECECED" stroke-width="0.4252" stroke-miterlimit="10" points="63.888,234.409 85.963,304.788 
			47.301,316.911 11.352,289.536 25.223,246.533 		"/>
		<polygon opacity="0.7" fill="#D9DADB" stroke="#D9DADB" stroke-width="0.4252" stroke-miterlimit="10" points="74.925,269.593 
			85.963,304.788 47.301,316.911 11.352,289.536 		"/>
		<g>
			
				<rect x="61.281" y="295.79" transform="matrix(-0.2994 -0.9541 0.9541 -0.2994 -202.3619 450.6223)" fill="#868789" stroke="#868789" stroke-width="0.3454" stroke-linecap="round" stroke-linejoin="round" stroke-miterlimit="10" width="5.966" height="7.636"/>
			
				<rect x="52.672" y="298.489" transform="matrix(-0.2995 -0.9541 0.9541 -0.2995 -216.1107 445.9351)" fill="#868789" stroke="#868789" stroke-width="0.3454" stroke-linecap="round" stroke-linejoin="round" stroke-miterlimit="10" width="5.966" height="7.633"/>
			
				<rect x="50.453" y="291.411" transform="matrix(-0.2993 -0.9542 0.9542 -0.2993 -212.266 434.5749)" fill="#868789" stroke="#868789" stroke-width="0.3454" stroke-linecap="round" stroke-linejoin="round" stroke-miterlimit="10" width="5.968" height="7.635"/>
			
				<rect x="59.06" y="288.709" transform="matrix(-0.2993 -0.9542 0.9542 -0.2993 -198.5069 439.2728)" fill="#868789" stroke="#868789" stroke-width="0.3454" stroke-linecap="round" stroke-linejoin="round" stroke-miterlimit="10" width="5.97" height="7.636"/>
		</g>
		<g>
			
				<polygon fill="#868789" stroke="#868789" stroke-width="0.3454" stroke-linecap="round" stroke-linejoin="round" stroke-miterlimit="10" points="
				60.445,274.68 62.232,280.37 54.945,282.658 53.161,276.961 			"/>
			
				<rect x="46.106" y="277.551" transform="matrix(-0.2995 -0.9541 0.9541 -0.2995 -204.6605 412.4739)" fill="#868789" stroke="#868789" stroke-width="0.3454" stroke-linecap="round" stroke-linejoin="round" stroke-miterlimit="10" width="5.965" height="7.633"/>
			
				<rect x="43.883" y="270.472" transform="matrix(-0.2995 -0.9541 0.9541 -0.2995 -200.8014 401.1425)" fill="#9C9C9E" stroke="#9C9C9E" stroke-width="0.3454" stroke-linecap="round" stroke-linejoin="round" stroke-miterlimit="10" width="5.966" height="7.634"/>
			
				<polygon fill="#9C9C9E" stroke="#9C9C9E" stroke-width="0.3454" stroke-linecap="round" stroke-linejoin="round" stroke-miterlimit="10" points="
				58.225,267.601 60.012,273.292 52.724,275.574 50.939,269.883 			"/>
		</g>
		
			<polygon fill="#9C9C9E" stroke="#9C9C9E" stroke-width="0.3454" stroke-linecap="round" stroke-linejoin="round" stroke-miterlimit="10" points="
			66.769,243.583 70.772,256.356 40.242,265.934 36.241,253.162 		"/>
		
			<polygon fill="#868789" stroke="#868789" stroke-width="0.3454" stroke-linecap="round" stroke-linejoin="round" stroke-miterlimit="10" points="
			68.772,249.968 70.772,256.356 40.242,265.934 38.245,259.547 		"/>
		
			<polyline fill="none" stroke="#5A595B" stroke-width="3.7642" stroke-linecap="round" stroke-linejoin="round" stroke-miterlimit="10" points="
			49.189,318.208 11.352,289.536 25.911,243.978 		"/>
		<g>
			<circle fill="#9C9C9E" cx="27.772" cy="284.163" r="5.506"/>
			<path fill="#868789" d="M33.027,282.514c0.911,2.902-0.706,5.992-3.608,6.902c-2.9,0.911-5.99-0.706-6.899-3.606L33.027,282.514z
				"/>
		</g>
		
			<polygon fill="#5A595B" stroke="#5A595B" stroke-width="0.8365" stroke-linecap="round" stroke-linejoin="round" stroke-miterlimit="10" points="
			27.473,301.601 36.393,308.599 24.146,312.443 21.344,303.52 		"/>
	</g>
	<g>
		
			<rect x="341.535" y="167.472" transform="matrix(0.1979 0.9802 -0.9802 0.1979 488.1438 -202.7087)" fill="#F29F95" stroke="#F29F95" stroke-width="0.155" stroke-miterlimit="10" width="52.794" height="58.885"/>
		
			<rect x="382.127" y="176.75" transform="matrix(0.1978 0.9802 -0.9802 0.1978 512.6898 -249.0668)" fill="#796955" stroke="#796955" stroke-width="0.1397" stroke-miterlimit="10" width="52.795" height="23.94"/>
		
			<rect x="392.685" y="163.788" transform="matrix(0.1978 0.9802 -0.9802 0.1978 497.8937 -256.851)" fill="#604D40" stroke="#604D40" stroke-width="0.1397" stroke-miterlimit="10" width="26.397" height="24.002"/>
		
			<rect x="414.533" y="171.494" transform="matrix(0.1981 0.9802 -0.9802 0.1981 510.2879 -266.9198)" fill="#796955" stroke="#796955" stroke-width="0.1397" stroke-miterlimit="10" width="7.483" height="13.828"/>
		
			<rect x="352.058" y="154.612" transform="matrix(0.1978 0.9802 -0.9802 0.1978 473.3438 -210.4485)" opacity="0.7" fill="#E5827D" stroke="#E5827D" stroke-width="0.155" stroke-miterlimit="10" width="26.397" height="58.755"/>
		<path fill="#A28878" stroke="#A28878" stroke-width="0.1593" stroke-miterlimit="10" d="M349.165,181.708"/>
		<path fill="#C5DFE9" d="M366.276,182.34"/>
		<path fill="#A28878" stroke="#A28878" stroke-width="0.1593" stroke-miterlimit="10" d="M349.948,185.235"/>
		<path fill="#A28878" stroke="#A28878" stroke-width="0.1593" stroke-miterlimit="10" d="M351.709,194.326"/>
		<path fill="#C5DFE9" d="M368.825,194.957"/>
		<path fill="#A28878" stroke="#A28878" stroke-width="0.1593" stroke-miterlimit="10" d="M352.495,197.854"/>
		<g>
			<g>
				
					<rect x="371.587" y="176.317" transform="matrix(0.1977 0.9803 -0.9803 0.1977 474.8985 -222.7063)" fill="#A04A46" width="3.833" height="4.904"/>
				
					<rect x="377.269" y="175.169" transform="matrix(0.1978 0.9803 -0.9803 0.1978 478.3118 -229.2011)" fill="#A04A46" width="3.832" height="4.904"/>
				
					<rect x="378.211" y="179.841" transform="matrix(0.1977 0.9803 -0.9803 0.1977 483.6563 -226.3755)" fill="#A04A46" width="3.833" height="4.902"/>
				
					<rect x="372.53" y="180.986" transform="matrix(0.1977 0.9803 -0.9803 0.1977 480.2328 -219.8846)" fill="#A04A46" width="3.833" height="4.904"/>
			</g>
			<g>
				
					<rect x="351.964" y="180.278" transform="matrix(0.1977 0.9803 -0.9803 0.1977 463.0282 -200.2955)" fill="#A04A46" width="3.833" height="4.903"/>
				
					<rect x="357.646" y="179.131" transform="matrix(0.1977 0.9803 -0.9803 0.1977 466.4716 -206.7826)" fill="#A04A46" width="3.833" height="4.903"/>
				
					<rect x="358.589" y="183.801" transform="matrix(0.1977 0.9803 -0.9803 0.1977 471.8069 -203.9601)" fill="#A04A46" width="3.833" height="4.904"/>
				
					<rect x="352.907" y="184.947" transform="matrix(0.1982 0.9802 -0.9802 0.1982 468.1805 -197.5273)" fill="#A04A46" width="3.833" height="4.905"/>
			</g>
		</g>
		
			<rect x="374.419" y="190.336" transform="matrix(0.1978 0.9802 -0.9802 0.1978 490.8824 -214.2419)" fill="#A04A46" width="3.832" height="4.906"/>
		
			<rect x="380.099" y="189.189" transform="matrix(0.1982 0.9802 -0.9802 0.1982 494.1198 -220.7835)" fill="#A04A46" width="3.832" height="4.906"/>
		
			<rect x="381.04" y="193.861" transform="matrix(0.1972 0.9804 -0.9804 0.1972 499.8868 -217.8395)" fill="#B46057" width="3.833" height="4.902"/>
		
			<rect x="375.361" y="195.007" transform="matrix(0.1977 0.9803 -0.9803 0.1977 496.2367 -211.4134)" fill="#B46057" width="3.833" height="4.904"/>
		
			<rect x="354.794" y="194.298" transform="matrix(0.1978 0.9803 -0.9803 0.1978 479.0324 -191.8248)" fill="#A04A46" width="3.832" height="4.904"/>
		
			<rect x="360.477" y="193.15" transform="matrix(0.1978 0.9803 -0.9803 0.1978 482.4671 -198.3151)" fill="#A04A46" width="3.832" height="4.905"/>
		
			<rect x="361.419" y="197.821" transform="matrix(0.1977 0.9803 -0.9803 0.1977 487.8208 -195.4862)" fill="#B46057" width="3.833" height="4.904"/>
		
			<rect x="355.737" y="198.967" transform="matrix(0.1982 0.9802 -0.9802 0.1982 484.1915 -189.0599)" fill="#B46057" width="3.833" height="4.906"/>
		<g>
			<g>
				
					<rect x="377.248" y="204.357" transform="matrix(0.1977 0.9803 -0.9803 0.1977 506.9277 -205.7588)" fill="#B46057" width="3.833" height="4.906"/>
				
					<rect x="382.928" y="203.21" transform="matrix(0.1982 0.9802 -0.9802 0.1982 510.1627 -212.307)" fill="#B46057" width="3.834" height="4.905"/>
				
					<rect x="383.871" y="207.881" transform="matrix(0.1982 0.9802 -0.9802 0.1982 515.4855 -209.4891)" fill="#B46057" width="3.833" height="4.904"/>
				
					<rect x="378.19" y="209.028" transform="matrix(0.1977 0.9803 -0.9803 0.1977 512.2725 -202.9322)" fill="#B46057" width="3.833" height="4.904"/>
			</g>
			
				<rect x="363.306" y="207.171" transform="matrix(0.1977 0.9803 -0.9803 0.1977 498.5 -189.8342)" fill="#B46057" width="3.833" height="4.904"/>
			
				<rect x="364.248" y="211.843" transform="matrix(0.1977 0.9803 -0.9803 0.1977 503.8244 -187.0142)" fill="#B46057" width="3.833" height="4.902"/>
			
				<rect x="357.624" y="208.318" transform="matrix(0.1977 0.9803 -0.9803 0.1977 495.0658 -183.3447)" fill="#B46057" width="3.833" height="4.904"/>
			
				<rect x="358.567" y="212.987" transform="matrix(0.1982 0.9802 -0.9802 0.1982 500.2031 -180.5922)" fill="#B46057" width="3.833" height="4.906"/>
		</g>
	</g>
	<g>
		<g>
			<g>
				<path fill="#53B06E" d="M69.952,200.522c-2.296-0.592-15.749-3.877-19.606-6.985c-9.497-7.645-5.489-24.256-5.489-24.256
					s23.356,2.979,22.231,20.449c-0.448,6.834-0.327,6.498,3.764,8.151l4.979,1.198l-0.653,2.704L69.952,200.522z"/>
			</g>
		</g>
		<g>
			<g>
				<path fill="#44A160" d="M60.525,200.837c-2.303-0.524-15.783-3.728-20.63-2.724c-11.939,2.48-15.946,19.096-15.946,19.096
					s22.156,7.996,29.111-8.074c2.721-6.284,2.674-5.927,7.068-5.539l13.812,3.331l0.651-2.7L60.525,200.837z"/>
			</g>
			<g>
				<path fill="#44A160" d="M56.483,199.942c-5.042-1.073-13.077-2.557-16.588-1.829c-11.939,2.48-15.946,19.096-15.946,19.096"/>
			</g>
		</g>
		<path fill="#905C9E" d="M5.833,172.193l16.866,4.131c7.521,1.842,12.314,8.668,10.703,15.245l0,0
			c-1.611,6.577-9.015,10.415-16.537,8.572L0,196.01l12.012-9.681L5.833,172.193z"/>
		<path fill="#814892" d="M33.402,191.569L33.402,191.569c-1.611,6.577-9.015,10.415-16.537,8.572L0,196.01l12.012-9.681
			L33.402,191.569z"/>
	</g>
	<g>
		<g>
			<g>
				<path fill="#53B06E" d="M321.657,151.708c1.637-1.091,11.109-7.588,15.164-8.253c9.979-1.639,18.027,10.027,18.027,10.027
					s-14.764,12.787-24.938,2.426c-3.977-4.057-3.834-3.796-7.121-2.183l-3.492,2.416l-1.311-1.899L321.657,151.708z"/>
			</g>
		</g>
		<g>
			<g>
				<path fill="#44A160" d="M326.678,145.708c1.598-1.135,11.033-7.692,13.096-11.244c5.072-8.751-2.979-20.419-2.979-20.419
					s-17.199,9.27-11.115,22.458c2.377,5.158,2.182,4.932-0.488,7.432l-9.699,6.693l1.309,1.896L326.678,145.708z"/>
			</g>
			<g>
				<path fill="#44A160" d="M329.467,143.705c3.451-2.521,8.812-6.668,10.307-9.24c5.072-8.751-2.979-20.419-2.979-20.419"/>
			</g>
		</g>
		<path fill="#E74E3E" d="M374.637,127.756l-11.883,8.137c-5.301,3.629-12.172,2.814-15.344-1.819l0,0
			c-3.174-4.635-1.449-11.333,3.852-14.963l11.883-8.137l-0.662,12.78L374.637,127.756z"/>
		<path fill="#BF3A29" d="M347.411,134.073L347.411,134.073c-3.174-4.635-1.449-11.333,3.852-14.963l11.883-8.137l-0.662,12.78
			L347.411,134.073z"/>
	</g>
	<g>
		<g>
			<g>
				<path fill="#53B06E" d="M212.818,370.303c0.05,2.156,0.507,14.752-1.259,18.898c-4.341,10.212-19.88,10.816-19.88,10.816
					s-3.179-21.191,12.398-24.534c6.095-1.302,5.77-1.323,6.206-5.316l-0.187-4.656l2.529-0.099L212.818,370.303z"/>
			</g>
		</g>
		<g>
			<g>
				<path fill="#44A160" d="M215.429,378.479c0.112,2.146,0.647,14.746,2.728,18.741c5.129,9.841,20.672,9.232,20.672,9.232
					s1.512-21.384-14.283-23.491c-6.177-0.826-5.852-0.873-6.6-4.817l-0.508-12.919l-2.523,0.098L215.429,378.479z"/>
			</g>
			<g>
				<path fill="#44A160" d="M215.648,382.241c0.31,4.681,1.003,12.086,2.509,14.979c5.129,9.841,20.672,9.232,20.672,9.232"/>
			</g>
		</g>
		<path fill="#F0C30E" d="M203.897,433.47l-0.561-15.793c-0.25-7.043,4.54-12.932,10.698-13.149l0,0
			c6.158-0.219,11.355,5.313,11.605,12.356l0.561,15.793l-11.453-8.12L203.897,433.47z"/>
		<path fill="#F49D17" d="M214.034,404.528L214.034,404.528c6.158-0.219,11.355,5.313,11.605,12.356l0.561,15.793l-11.453-8.12
			L214.034,404.528z"/>
	</g>
</g>
</svg>
