<?xml version="1.0" encoding="utf-8"?>
<!-- Generator: Adobe Illustrator 15.0.2, SVG Export Plug-In . SVG Version: 6.00 Build 0)  -->
<!DOCTYPE svg PUBLIC "-//W3C//DTD SVG 1.1//EN" "http://www.w3.org/Graphics/SVG/1.1/DTD/svg11.dtd">
<svg version="1.1" id="Lager_1" xmlns="http://www.w3.org/2000/svg" xmlns:xlink="http://www.w3.org/1999/xlink" x="0px" y="0px"
	 width="622.713px" height="272.89px" viewBox="0 0 622.713 272.89" enable-background="new 0 0 622.713 272.89"
	 xml:space="preserve">
<g>
	
		<rect x="5.952" y="71.54" fill="#FFFFFF" stroke="#FFFFFF" stroke-width="2.0916" stroke-miterlimit="10" width="610.809" height="200.225"/>
	<path opacity="0.9" fill="#A28878" stroke="#A28878" stroke-width="0.9134" stroke-miterlimit="10" d="M288.612,191.174"/>
	<path opacity="0.93" fill="#C5DFE9" d="M311.581,95.686"/>
	<path opacity="0.9" fill="#A28878" stroke="#A28878" stroke-width="0.9134" stroke-miterlimit="10" d="M309.335,190.768"/>
	
		<rect x="5.952" y="71.54" fill="#F5F5F6" stroke="#F5F5F6" stroke-width="2.0916" stroke-miterlimit="10" width="305.404" height="200.225"/>
	
		<rect x="1.046" y="55.388" fill="#C6C6C9" stroke="#C6C6C9" stroke-width="2.0916" stroke-miterlimit="10" width="620.621" height="14.701"/>
	
		<rect x="1.046" y="55.388" fill="#B1B3B3" stroke="#B1B3B3" stroke-width="2.0916" stroke-miterlimit="10" width="310.311" height="14.701"/>
	<g>
		<path fill="#E7503F" stroke="#E7503F" stroke-width="0.6" stroke-miterlimit="10" d="M209.192,48.677h-2.543v-4.673
			c0-14.202-3.482-21.304-10.445-21.304c-1.467,0-2.863,0.379-4.191,1.136c-1.33,0.754-2.258,1.421-2.783,1.993
			c-0.527,0.572-1.203,1.407-2.027,2.507v20.341h-2.543V0.573h2.543V24.28l18.553-23.775h3.506l-15.943,20.066
			c1.1-0.276,2.176-0.414,3.23-0.414c3.893,0,6.975,1.879,9.242,5.636c2.268,3.758,3.402,9.552,3.402,17.386V48.677z"/>
		<path fill="#E7503F" stroke="#E7503F" stroke-width="0.6" stroke-miterlimit="10" d="M240.94,4.147v44.529h-2.543V26h-19.516
			v22.677h-2.543V17.202c0-4.946,1.58-9,4.74-12.162c3.162-3.16,7.125-4.74,11.889-4.74C236.448,0.3,239.106,1.582,240.94,4.147z
			 M238.397,23.457V5.109c-1.467-1.513-3.322-2.269-5.566-2.269c-4.031,0-7.365,1.469-9.998,4.398
			c-2.635,2.932-3.951,6.275-3.951,10.033v6.185H238.397z"/>
		<path fill="#E7503F" stroke="#E7503F" stroke-width="0.6" stroke-miterlimit="10" d="M247.261,38.368h2.543
			c0.092,3.481,0.961,5.773,2.611,6.873c1.236,0.779,2.451,1.166,3.641,1.166c3.254,0,5.75-1.108,7.492-3.33
			c1.74-2.223,2.611-5.922,2.611-11.1V0.573h2.541v31.474c0,11.271-4.26,16.903-12.781,16.903c-1.742,0-3.527-0.594-5.359-1.785
			c-0.963-0.688-1.752-1.787-2.371-3.297C247.571,42.355,247.261,40.523,247.261,38.368z"/>
		<path fill="#E7503F" stroke="#E7503F" stroke-width="0.6" stroke-miterlimit="10" d="M294.743,41.392
			c2.062-1.786,3.094-3.961,3.094-6.528c0-2.565-0.744-4.613-2.232-6.149c-1.49-1.534-3.289-2.682-5.395-3.436
			c-2.107-0.756-4.227-1.522-6.357-2.302c-2.131-0.78-3.939-1.96-5.428-3.54c-1.49-1.58-2.234-3.607-2.234-6.081
			c0-4.306,1.203-7.512,3.607-9.621c2.406-2.105,5.279-3.161,8.625-3.161c3.344,0,7.01,0.321,10.994,0.961v2.543
			c-3.572-0.64-6.918-0.961-10.031-0.961c-3.117,0-5.67,0.871-7.664,2.611c-1.992,1.741-2.988,4.192-2.988,7.352
			c0,2.75,1.42,4.812,4.26,6.186c1.281,0.643,2.691,1.237,4.227,1.787c1.533,0.551,3.08,1.168,4.639,1.855
			c1.557,0.688,2.967,1.5,4.227,2.439s2.289,2.246,3.092,3.918c0.801,1.672,1.203,3.619,1.203,5.84c0,2.223-0.516,4.18-1.547,5.875
			c-1.031,1.696-2.303,3.024-3.814,3.985c-1.512,0.962-3.275,1.743-5.291,2.337c-3.252,1.01-6.918,1.513-10.994,1.513h-1.719v-2.543
			C285.169,46.271,291.079,44.646,294.743,41.392z"/>
	</g>
	<g>
		<path fill="#E7503F" stroke="#E7503F" stroke-width="0.8" stroke-miterlimit="10" d="M335.913,48.154l0.09-28.427l-7.395,16.959
			h-1.506l-7.395-16.959v28.427h-1.551v-31.04h2.125l7.572,17.358l7.527-17.358h2.17v31.04H335.913z"/>
		<path fill="#E7503F" stroke="#E7503F" stroke-width="0.8" stroke-miterlimit="10" d="M356.55,26.015h1.637v22.184
			c-1.771,0-3.32-0.071-4.648-0.221c-1.328-0.148-2.709-0.465-4.141-0.951c-1.432-0.489-2.605-1.144-3.52-1.973
			c-0.916-0.826-1.67-1.969-2.258-3.432c-0.592-1.461-0.887-3.105-0.887-4.936c0-1.831,0.184-3.404,0.553-4.716
			c0.369-1.314,0.842-2.363,1.418-3.146c0.576-0.78,1.217-1.422,1.926-1.923c1.24-0.916,2.465-1.374,3.676-1.374
			c2.213,0,4.295,1.049,6.244,3.144V26.015z M344.372,36.463c0,3.869,1.195,6.555,3.586,8.062c2.125,1.326,4.988,1.99,8.592,1.99
			V30.886c-1.006-1.152-1.973-2.062-2.902-2.725c-0.93-0.664-1.955-0.997-3.076-0.997c-1.859,0-3.359,0.819-4.494,2.459
			C344.938,31.261,344.372,33.542,344.372,36.463z"/>
		<path fill="#E7503F" stroke="#E7503F" stroke-width="0.8" stroke-miterlimit="10" d="M366.776,27.652h-5.092v-1.638h5.092v-7.307
			h1.641v7.307h5.135v1.638h-5.135v20.502h-1.641V27.652z"/>
		<path fill="#E7503F" stroke="#E7503F" stroke-width="0.8" stroke-miterlimit="10" d="M377.048,14.944h1.641v13.727
			c1.887-2.095,3.896-3.144,6.021-3.144c1.623,0,3.248,0.723,4.871,2.169c0.857,0.739,1.557,1.859,2.104,3.365
			c0.545,1.506,0.818,3.27,0.818,5.291c0,2.022-0.295,3.771-0.885,5.248c-0.59,1.478-1.346,2.627-2.26,3.453
			c-0.914,0.829-2.088,1.483-3.52,1.973c-1.432,0.486-2.812,0.803-4.139,0.951c-1.33,0.149-2.879,0.221-4.652,0.221V14.944z
			 M390.864,36.73c0-3.011-0.576-5.358-1.727-7.04c-1.15-1.684-2.643-2.526-4.473-2.526c-1.828,0-3.822,1.241-5.977,3.722v15.629
			C386.806,46.515,390.864,43.255,390.864,36.73z"/>
		<path fill="#E7503F" stroke="#E7503F" stroke-width="0.8" stroke-miterlimit="10" d="M398.747,26.015l-0.045,11.689
			c0,2.48,0.598,4.643,1.793,6.486c1.195,1.846,2.686,2.769,4.473,2.769s3.756-1.225,5.912-3.675v-17.27h1.639v22.14h-1.639v-2.657
			c-1.92,2.066-4,3.102-6.242,3.102c-1.506,0-3.057-0.71-4.652-2.127c-0.855-0.768-1.557-1.904-2.102-3.409
			c-0.549-1.507-0.82-3.277-0.82-5.315l0.045-11.732H398.747z"/>
		<path fill="#E7503F" stroke="#E7503F" stroke-width="0.8" stroke-miterlimit="10" d="M421.106,27.652h-5.092v-1.638h5.092v-7.307
			h1.641v7.307h5.137v1.638h-5.137v20.502h-1.641V27.652z"/>
		<path fill="#E7503F" stroke="#E7503F" stroke-width="0.8" stroke-miterlimit="10" d="M433.019,48.154h-1.639v-22.14h1.639V48.154z
			 M431.468,18.708h1.639v3.808h-1.639V18.708z"/>
		<path fill="#E7503F" stroke="#E7503F" stroke-width="0.8" stroke-miterlimit="10" d="M455.114,48.154h-1.639v-3.012
			c0-2.45-0.539-4.554-1.617-6.31s-2.393-2.636-3.939-2.636c-1.551,0-3.049,0.651-4.496,1.951l-2.566,2.7v7.306h-1.639v-33.21h1.639
			v23.513l11.998-12.485h2.26l-8.326,8.721c0.355-0.088,0.805-0.132,1.352-0.132s1.195,0.169,1.947,0.509
			c0.754,0.34,1.521,0.871,2.303,1.593c0.783,0.726,1.432,1.779,1.949,3.167c0.516,1.39,0.775,2.982,0.775,4.783V48.154z"/>
	</g>
	<g>
		<rect x="37.335" y="221.215" fill="#E7503F" width="100.729" height="29.497"/>
		<g>
			<rect x="37.335" y="100.304" opacity="0.24" fill="#129CD8" width="100.729" height="120.911"/>
			<polygon opacity="0.15" fill="#129CD8" points="37.335,100.304 37.335,221.215 138.063,221.215 			"/>
		</g>
	</g>
	<g>
		<rect x="492.976" y="108.396" opacity="0.24" fill="#129CD8" width="77.701" height="112.818"/>
		<polygon opacity="0.15" fill="#129CD8" points="492.976,108.396 492.978,222.202 570.677,222.202 		"/>
	</g>
	<rect x="186.591" y="221.215" fill="#E7503F" width="100.727" height="29.497"/>
	<g>
		<rect x="186.591" y="100.304" opacity="0.24" fill="#129CD8" width="100.727" height="120.911"/>
		<polygon opacity="0.15" fill="#129CD8" points="186.591,100.304 186.591,221.215 287.317,221.215 		"/>
	</g>
	<g>
		<path opacity="0.93" fill="#C5DFE9" d="M362.487,94.139"/>
		<path opacity="0.9" fill="#A28878" stroke="#A28878" stroke-width="0.9134" stroke-miterlimit="10" d="M368.587,191.646"/>
		<path opacity="0.9" fill="#A28878" stroke="#A28878" stroke-width="0.9134" stroke-miterlimit="10" d="M389.31,191.24"/>
		
			<rect x="339.927" y="100.776" fill="#FFFFFF" stroke="#E7503F" stroke-width="4.6906" stroke-miterlimit="10" width="90.949" height="148.389"/>
	</g>
	<path fill="#E7503F" d="M570.677,100.304h-77.701h-7.621v8.093v112.818l0,0v51.675h92.943v-50.688v-0.987V108.396v-8.093H570.677z
		 M570.677,221.215h-77.701V108.396h77.701V221.215z"/>
</g>
</svg>
