<?xml version="1.0" encoding="utf-8"?>
<!-- Generator: Adobe Illustrator 15.0.2, SVG Export Plug-In . SVG Version: 6.00 Build 0)  -->
<!DOCTYPE svg PUBLIC "-//W3C//DTD SVG 1.1//EN" "http://www.w3.org/Graphics/SVG/1.1/DTD/svg11.dtd">
<svg version="1.1" xmlns="http://www.w3.org/2000/svg" xmlns:xlink="http://www.w3.org/1999/xlink" x="0px" y="0px"
	 width="247.674px" height="275.705px" viewBox="0 0 247.674 275.705" enable-background="new 0 0 247.674 275.705"
	 xml:space="preserve">
<g id="Lager_2" display="none">
	<rect x="-224.795" y="-107.322" display="inline" fill="#EEC3C0" width="658.25" height="484"/>
</g>
<g id="Lager_1">
	<g>
		<g>
			
				<rect x="39.565" y="41.366" transform="matrix(0.9068 -0.4216 0.4216 0.9068 -49.5016 66.5581)" fill="#F2F2F3" width="172.359" height="207.683"/>
			
				<rect x="43.583" y="59.535" transform="matrix(0.9068 -0.4216 0.4216 0.9068 -60.8051 51.7778)" fill="#EEEFEF" width="86.18" height="207.683"/>
			
				<rect x="199.552" y="172.584" transform="matrix(0.9068 -0.4216 0.4216 0.9068 -60.895 110.8701)" fill="#E9E9EA" width="41.389" height="41.088"/>
			<polygon fill="#FFFFFF" points="230.35,165.774 192.819,183.225 210.144,220.482 			"/>
			<g>
				
					<path fill="#E7511E" stroke="#E7511E" stroke-width="3" stroke-linecap="round" stroke-linejoin="round" stroke-miterlimit="10" d="
					M106.205,165.939l-3.988,1.854L70.796,100.22l-12.42,14.452l-1.805-3.881l15.481-18.301L106.205,165.939z"/>
				
					<path fill="#E7511E" stroke="#E7511E" stroke-width="3" stroke-linecap="round" stroke-linejoin="round" stroke-miterlimit="10" d="
					M149.755,101.79c5.366,11.54,7.535,21.318,6.492,29.331c-1.04,8.015-5.282,13.751-12.729,17.214
					c-7.451,3.465-14.793,3.052-22.021-1.246c-7.231-4.297-13.537-12.229-18.922-23.809c-5.384-11.578-7.412-21.435-6.094-29.578
					c1.317-8.141,5.86-14.018,13.623-17.627C125.285,69.015,138.501,77.586,149.755,101.79z M145.067,101.862
					c-4.506-9.688-9.621-16.434-15.345-20.236c-5.724-3.801-11.701-4.26-17.927-1.364c-6.225,2.895-9.901,7.841-11.034,14.831
					c-1.132,6.99,0.779,15.803,5.724,26.435c5.791,12.454,12.866,20.266,21.229,23.433c4.647,1.755,8.996,1.69,13.056-0.197
					c4.057-1.886,6.956-4.339,8.697-7.362c1.741-3.021,2.58-6.434,2.516-10.231C151.88,119.988,149.574,111.555,145.067,101.862z"/>
			</g>
			<g>
				
					<path fill="#58585A" stroke="#58585A" stroke-width="1.3947" stroke-linecap="round" stroke-linejoin="round" stroke-miterlimit="10" d="
					M143.755,207.306l-14.309-31.029l0.541,22.227l-1.642,0.764l-16.654-14.734l14.407,30.983l-1.69,0.786l-15.729-33.825
					l2.319-1.078l17.036,15.079l-0.581-22.73l2.36-1.098l15.729,33.825L143.755,207.306z"/>
				
					<path fill="#58585A" stroke="#58585A" stroke-width="1.3947" stroke-linecap="round" stroke-linejoin="round" stroke-miterlimit="10" d="
					M155.324,163.896l14.54,31.27l-1.789,0.832l-7.408-15.933l-13.704,6.372l7.408,15.933l-1.78,0.828l-10.279-22.105
					c-1.617-3.478-1.831-6.827-0.645-10.082c1.188-3.254,3.455-5.667,6.795-7.22C150.906,162.654,153.2,162.691,155.324,163.896z
					 M159.84,178.285l-5.992-12.886c-1.521-0.586-3.067-0.514-4.646,0.222c-2.842,1.321-4.68,3.435-5.59,6.355
					c-0.886,2.917-0.721,5.703,0.503,8.335l2.021,4.347L159.84,178.285z"/>
				
					<path fill="#58585A" stroke="#58585A" stroke-width="1.3947" stroke-linecap="round" stroke-linejoin="round" stroke-miterlimit="10" d="
					M170.938,185.857l1.787-0.831c1.199,2.416,2.554,3.739,4.073,3.975c1.123,0.15,2.101,0.019,2.938-0.37
					c2.284-1.062,3.674-2.661,4.169-4.774c0.498-2.138-0.101-5.019-1.789-8.65l-10.257-22.057l1.787-0.831l10.279,22.105
					c3.68,7.914,2.53,13.256-3.463,16.043c-1.208,0.562-2.66,0.727-4.345,0.491c-0.889-0.165-1.812-0.687-2.737-1.547
					C172.46,188.546,171.643,187.373,170.938,185.857z"/>
			</g>
		</g>
		<g>
			
				<rect x="30.04" y="23.026" transform="matrix(0.9411 0.3382 -0.3382 0.9411 49.7511 -31.828)" fill="#F2F2F3" width="172.36" height="207.684"/>
			
				<rect x="32.579" y="8.454" transform="matrix(0.9411 0.3382 -0.3382 0.9411 42.4334 -18.9731)" fill="#EEEFEF" width="86.18" height="207.684"/>
			
				<rect x="128.982" y="206.86" transform="matrix(0.9411 0.3382 -0.3382 0.9411 85.7214 -37.2194)" fill="#E9E9EA" width="41.39" height="41.088"/>
			<polygon fill="#FFFFFF" points="176.1,215.069 137.149,201.072 123.254,239.739 			"/>
			<g>
				
					<path fill="#E7511E" stroke="#E7511E" stroke-width="3" stroke-linecap="round" stroke-linejoin="round" stroke-miterlimit="10" d="
					M87.748,127.857l-4.139-1.487l25.202-70.13l-18.994,1.535l1.447-4.028l23.877-2.117L87.748,127.857z"/>
				
					<path fill="#E7511E" stroke="#E7511E" stroke-width="3" stroke-linecap="round" stroke-linejoin="round" stroke-miterlimit="10" d="
					M163.827,112.898c-4.304,11.977-9.641,20.453-16.019,25.414c-6.377,4.965-13.428,6.058-21.156,3.28
					c-7.733-2.778-12.661-8.237-14.774-16.376c-2.117-8.141-1.02-18.214,3.299-30.232c4.318-12.017,9.811-20.449,16.476-25.309
					c6.663-4.859,14.026-5.841,22.082-2.945C169.49,72.391,172.854,87.779,163.827,112.898z M160.444,109.652
					c3.613-10.056,4.723-18.448,3.329-25.177c-1.395-6.728-5.319-11.259-11.781-13.58c-6.461-2.322-12.554-1.393-18.275,2.779
					c-5.722,4.172-10.562,11.78-14.527,22.815c-4.646,12.925-5.111,23.454-1.396,31.589c2.069,4.516,5.205,7.529,9.418,9.043
					c4.21,1.514,7.997,1.81,11.361,0.886c3.362-0.923,6.359-2.758,8.985-5.503C152.536,127.327,156.829,119.712,160.444,109.652z"/>
			</g>
			<g>
				
					<path fill="#58585A" stroke="#58585A" stroke-width="1.3947" stroke-linecap="round" stroke-linejoin="round" stroke-miterlimit="10" d="
					M85.337,183.673l11.658-32.12l-15.251,16.179l-1.704-0.612l-1.472-22.188l-11.556,32.156l-1.755-0.631l12.616-35.105
					l2.406,0.865l1.501,22.701l15.577-16.563l2.449,0.88L87.192,184.34L85.337,183.673z"/>
				
					<path fill="#58585A" stroke="#58585A" stroke-width="1.3947" stroke-linecap="round" stroke-linejoin="round" stroke-miterlimit="10" d="
					M124.097,160.958l-11.662,32.453l-1.856-0.667l5.942-16.535l-14.223-5.111l-5.942,16.535l-1.849-0.664l8.244-22.942
					c1.297-3.608,3.502-6.14,6.635-7.619c3.134-1.477,6.441-1.597,9.908-0.352C121.83,156.967,123.435,158.607,124.097,160.958z
					 M117.185,174.361l4.806-13.373c-0.669-1.487-1.819-2.523-3.459-3.111c-2.949-1.06-5.741-0.851-8.443,0.585
					c-2.682,1.45-4.524,3.547-5.506,6.277l-1.621,4.512L117.185,174.361z"/>
				
					<path fill="#58585A" stroke="#58585A" stroke-width="1.3947" stroke-linecap="round" stroke-linejoin="round" stroke-miterlimit="10" d="
					M119.745,187.549l1.855,0.667c-0.848,2.561-0.815,4.454,0.099,5.69c0.692,0.896,1.48,1.49,2.349,1.804
					c2.371,0.852,4.483,0.692,6.322-0.461c1.857-1.169,3.459-3.638,4.813-7.406l8.226-22.893l1.854,0.667l-8.244,22.942
					c-2.951,8.213-7.526,11.201-13.746,8.966c-1.254-0.45-2.402-1.354-3.434-2.707c-0.516-0.742-0.805-1.762-0.857-3.024
					C118.936,190.532,119.181,189.123,119.745,187.549z"/>
			</g>
		</g>
		<g>
			<rect x="30.148" y="23.399" fill="#F8F8F8" width="172.359" height="229.112"/>
			<rect x="30.148" y="23.399" fill="#58585A" width="172.359" height="21.429"/>
			<rect x="30.148" y="23.399" fill="#3E3D40" width="86.18" height="21.429"/>
			<rect x="30.148" y="44.828" fill="#F2F2F3" width="86.18" height="207.683"/>
			<rect x="161.119" y="211.423" fill="#E9E9EA" width="41.389" height="41.088"/>
			<polygon fill="#FFFFFF" points="202.508,211.423 161.119,211.423 161.119,252.511 			"/>
		</g>
		<g>
			<path fill="#E7511E" stroke="#E7511E" stroke-miterlimit="10" d="M95.482,158.479l29.293-40.595
				c1.608-2.266,2.834-4.021,3.676-5.266c0.84-1.243,1.7-2.924,2.579-5.047c0.878-2.121,1.315-4.096,1.315-5.925
				c0-5.046-1.61-8.959-4.827-11.739c-3.22-2.778-6.949-4.169-11.19-4.169c-4.243,0-9.949,2.305-17.116,6.912V88.7
				c6.437-4.68,12.399-7.022,17.884-7.022c5.486,0,10.056,1.848,13.714,5.541c3.657,3.694,5.486,8.357,5.486,13.989
				c0,5.634-1.976,11.191-5.924,16.676l-26.333,36.536h33.134v4.059H95.482z"/>
		</g>
		<g>
			<path fill="#58585A" d="M67.773,200.689l0.041-10.679c0-2.266-0.506-4.24-1.517-5.927c-1.012-1.686-2.307-2.528-3.884-2.528
				c-1.578,0-3.351,1.119-5.319,3.358v15.775h-1.497v-20.226h1.497v2.427c1.752-1.888,3.654-2.832,5.703-2.832
				c0.836,0,1.746,0.298,2.731,0.89c0.983,0.594,1.812,1.525,2.487,2.792c1.915-2.453,4.112-3.682,6.594-3.682
				c1.376,0,2.805,0.647,4.288,1.942c0.754,0.701,1.382,1.739,1.881,3.115c0.499,1.375,0.748,2.992,0.748,4.854l-0.04,10.72H79.99
				l0.041-10.679c0-2.266-0.546-4.24-1.639-5.927c-1.092-1.686-2.434-2.528-4.025-2.528c-1.052,0-2.109,0.364-3.175,1.093
				s-1.936,1.564-2.609,2.508c0.485,1.402,0.728,3.007,0.728,4.813l-0.04,10.72H67.773z"/>
			<path fill="#58585A" d="M98.355,180.463h1.496v20.267c-1.618,0-3.033-0.067-4.247-0.203c-1.214-0.134-2.475-0.425-3.782-0.869
				c-1.309-0.445-2.381-1.045-3.216-1.8c-0.837-0.755-1.523-1.801-2.063-3.136s-0.809-2.838-0.809-4.51s0.168-3.108,0.505-4.308
				c0.337-1.201,0.769-2.158,1.295-2.873c0.526-0.714,1.112-1.301,1.76-1.76c1.133-0.835,2.251-1.254,3.357-1.254
				c2.022,0,3.924,0.958,5.704,2.872V180.463z M87.23,190.01c0,3.533,1.093,5.986,3.276,7.362c1.942,1.213,4.558,1.82,7.849,1.82
				v-14.279c-0.918-1.053-1.801-1.882-2.65-2.488c-0.849-0.606-1.786-0.91-2.811-0.91c-1.699,0-3.068,0.748-4.106,2.245
				C87.75,185.256,87.23,187.34,87.23,190.01z M95.807,176.944c-0.62,0.621-1.375,0.93-2.266,0.93c-0.89,0-1.645-0.309-2.266-0.93
				c-0.62-0.62-0.93-1.382-0.93-2.285s0.31-1.659,0.93-2.266c0.621-0.606,1.376-0.911,2.266-0.911c0.891,0,1.646,0.305,2.266,0.911
				s0.931,1.362,0.931,2.266S96.427,176.324,95.807,176.944z M95.604,174.638c0-0.593-0.196-1.078-0.587-1.456
				s-0.884-0.566-1.477-0.566c-0.594,0-1.085,0.188-1.477,0.566c-0.391,0.378-0.586,0.856-0.586,1.436
				c0,0.58,0.195,1.079,0.586,1.497c0.392,0.418,0.896,0.627,1.518,0.627c0.62,0,1.112-0.203,1.477-0.607
				S95.604,175.232,95.604,174.638z"/>
			<path fill="#58585A" d="M118.096,200.689l0.04-10.679c0-2.266-0.546-4.24-1.639-5.927c-1.092-1.686-2.453-2.528-4.085-2.528
				s-3.432,1.119-5.4,3.358v15.775h-1.497v-20.226h1.497v2.427c1.753-1.888,3.653-2.832,5.704-2.832
				c1.375,0,2.804,0.647,4.287,1.942c0.755,0.701,1.382,1.739,1.882,3.115c0.498,1.375,0.748,2.992,0.748,4.854l-0.041,10.72
				H118.096z"/>
			<path fill="#58585A" d="M136.46,180.463h1.497v20.267c-1.618,0-3.034-0.067-4.247-0.203c-1.214-0.134-2.475-0.425-3.782-0.869
				c-1.309-0.445-2.381-1.045-3.216-1.8c-0.837-0.755-1.524-1.801-2.063-3.136c-0.54-1.335-0.809-2.838-0.809-4.51
				s0.167-3.108,0.505-4.308c0.337-1.201,0.769-2.158,1.295-2.873c0.525-0.714,1.112-1.301,1.76-1.76
				c1.132-0.835,2.251-1.254,3.357-1.254c2.022,0,3.924,0.958,5.703,2.872V180.463z M125.336,190.01
				c0,3.533,1.092,5.986,3.276,7.362c1.942,1.213,4.558,1.82,7.848,1.82v-14.279c-0.917-1.053-1.8-1.882-2.649-2.488
				s-1.787-0.91-2.811-0.91c-1.7,0-3.068,0.748-4.106,2.245C125.855,185.256,125.336,187.34,125.336,190.01z"/>
			<path fill="#58585A" d="M154.906,170.35h1.497v30.38c-1.618,0-3.034-0.067-4.248-0.203c-1.213-0.134-2.474-0.425-3.781-0.869
				c-1.309-0.445-2.381-1.045-3.217-1.8s-1.523-1.801-2.062-3.136c-0.54-1.335-0.81-2.838-0.81-4.51s0.168-3.108,0.506-4.308
				c0.337-1.201,0.769-2.158,1.295-2.873c0.525-0.714,1.112-1.301,1.76-1.76c1.132-0.835,2.251-1.254,3.357-1.254
				c2.022,0,3.924,0.958,5.703,2.872V170.35z M145.42,184.063c-1.092,1.699-1.638,3.554-1.638,5.562c0,2.01,0.283,3.635,0.85,4.874
				c0.566,1.241,1.375,2.198,2.427,2.873c1.942,1.213,4.558,1.82,7.848,1.82v-14.279c-0.917-1.053-1.8-1.882-2.649-2.488
				s-1.787-0.91-2.812-0.91C147.854,181.515,146.513,182.365,145.42,184.063z"/>
			<path fill="#58585A" d="M174.97,199.233v1.497c-1.617,0-3.04-0.067-4.268-0.203c-1.228-0.134-2.501-0.425-3.822-0.869
				c-1.321-0.445-2.407-1.045-3.256-1.8c-0.851-0.755-1.552-1.801-2.104-3.136c-0.554-1.335-0.83-2.926-0.83-4.772
				s0.249-3.459,0.748-4.834c0.499-1.376,1.14-2.414,1.922-3.115c1.456-1.295,2.872-1.942,4.247-1.942
				c2.292,0,4.079,0.675,5.36,2.023c1.28,1.349,1.922,3.129,1.922,5.34c0,1.483-0.015,2.346-0.041,2.589h-12.661
				c0,3.479,1.037,5.886,3.114,7.22C167.378,198.565,170.602,199.233,174.97,199.233z M173.393,188.513v-0.89
				c0-1.78-0.506-3.236-1.517-4.369c-1.012-1.133-2.347-1.699-4.005-1.699c-1.659,0-2.967,0.654-3.924,1.962
				c-0.958,1.309-1.531,2.974-1.72,4.996H173.393z"/>
			<path fill="#58585A" d="M180.917,200.689h-1.497v-20.226h1.497v2.953c0.566-0.674,1.437-1.396,2.609-2.164
				s2.292-1.153,3.357-1.153s1.995,0.303,2.791,0.91c0.795,0.607,1.207,1.598,1.234,2.974h-1.497c0-0.755-0.242-1.349-0.729-1.78
				c-0.485-0.431-1.146-0.647-1.982-0.647s-1.854,0.404-3.054,1.214s-2.11,1.699-2.73,2.67V200.689z"/>
		</g>
	</g>
</g>
</svg>
