<?xml version="1.0" encoding="utf-8"?>
<!-- Generator: Adobe Illustrator 15.0.2, SVG Export Plug-In . SVG Version: 6.00 Build 0)  -->
<!DOCTYPE svg PUBLIC "-//W3C//DTD SVG 1.1//EN" "http://www.w3.org/Graphics/SVG/1.1/DTD/svg11.dtd">
<svg version="1.1" id="Lager_1" xmlns="http://www.w3.org/2000/svg" xmlns:xlink="http://www.w3.org/1999/xlink" x="0px" y="0px"
	 width="172.359px" height="229.112px" viewBox="0 0 172.359 229.112" enable-background="new 0 0 172.359 229.112"
	 xml:space="preserve">
<g>
	<g>
		<rect fill="#F8F7F7" width="172.359" height="229.112"/>
		<rect fill="#5A595B" width="172.359" height="21.429"/>
		<rect fill="#3E3D3F" width="86.18" height="21.429"/>
		<rect x="0.092" y="21.429" fill="#F2F2F2" width="86.18" height="207.683"/>
		<rect x="130.97" y="188.024" fill="#E9E9E9" width="41.389" height="41.088"/>
		<polygon fill="#FFFFFF" points="172.359,188.024 130.97,188.024 130.97,229.112 		"/>
		<g>
			<g>
				<path fill="#E7531F" stroke="#E7531F" stroke-width="0.6" stroke-miterlimit="10" d="M83.788,59.712v25.832h-1.475V72.389
					H70.992v13.155h-1.475V67.286c0-2.869,0.916-5.222,2.75-7.055c1.834-1.835,4.133-2.752,6.896-2.752
					C81.183,57.479,82.725,58.225,83.788,59.712z M82.313,70.914V60.271c-0.851-0.877-1.927-1.315-3.229-1.315
					c-2.34,0-4.272,0.851-5.801,2.551c-1.528,1.702-2.292,3.642-2.292,5.82v3.588H82.313z M79.244,55.885
					c-0.611,0.612-1.355,0.917-2.232,0.917s-1.621-0.305-2.232-0.917c-0.611-0.61-0.917-1.36-0.917-2.252
					c0-0.89,0.306-1.634,0.917-2.232s1.355-0.897,2.232-0.897s1.621,0.299,2.232,0.897c0.61,0.598,0.917,1.342,0.917,2.232
					C80.161,54.524,79.854,55.274,79.244,55.885z M79.044,53.613c0-0.584-0.193-1.062-0.578-1.436
					c-0.386-0.372-0.871-0.558-1.455-0.558c-0.585,0-1.07,0.186-1.455,0.558c-0.386,0.373-0.578,0.845-0.578,1.416
					s0.192,1.062,0.578,1.475c0.385,0.412,0.883,0.617,1.494,0.617s1.097-0.198,1.456-0.597
					C78.865,54.689,79.044,54.198,79.044,53.613z"/>
				<path fill="#E7531F" stroke="#E7531F" stroke-width="0.6" stroke-miterlimit="10" d="M104.039,85.544h-1.794l-7.733-11.84
					c-0.983,0.134-2.073,0.227-3.269,0.279v11.561h-1.476V57.6c8.903,0.026,13.354,2.698,13.354,8.013
					c0,4.279-2.338,6.896-7.016,7.854L104.039,85.544z M91.243,72.389l0.398,0.04c6.67-0.105,10.006-2.338,10.006-6.696
					c0-1.223-0.286-2.239-0.857-3.051c-0.572-0.81-1.216-1.44-1.934-1.893c-1.7-1.062-4.238-1.621-7.613-1.674V72.389z"/>
			</g>
			
				<line fill="none" stroke="#E7531F" stroke-width="2" stroke-linecap="round" stroke-miterlimit="10" x1="59.955" y1="71.572" x2="47.2" y2="71.572"/>
			
				<line fill="none" stroke="#E7531F" stroke-width="2" stroke-linecap="round" stroke-miterlimit="10" x1="126.355" y1="71.572" x2="113.601" y2="71.572"/>
		</g>
	</g>
	<g>
		<path fill="#010202" d="M24.903,156.163l19.271-26.706c1.058-1.49,1.864-2.646,2.417-3.465c0.553-0.816,1.12-1.923,1.697-3.319
			c0.577-1.395,0.866-2.692,0.866-3.897c0-3.32-1.06-5.894-3.176-7.723c-2.119-1.828-4.573-2.744-7.362-2.744
			c-2.792,0-6.545,1.517-11.26,4.547v-2.598c4.234-3.078,8.156-4.62,11.765-4.62c3.609,0,6.616,1.217,9.022,3.646
			c2.406,2.429,3.608,5.497,3.608,9.201c0,3.705-1.298,7.363-3.897,10.971l-17.322,24.036H52.33v2.67H24.903z"/>
		<path fill="#010202" d="M91.233,131.333c0,7.939-1.347,14.038-4.042,18.297c-2.696,4.259-6.604,6.388-11.729,6.388
			c-5.125,0-9.166-2.166-12.126-6.496c-2.959-4.331-4.438-10.477-4.438-18.441c0-7.962,1.443-14.073,4.331-18.332
			c2.886-4.258,7.001-6.388,12.342-6.388C86.012,106.361,91.233,114.684,91.233,131.333z M88.563,130.142
			c0-6.663-1.12-11.824-3.356-15.481c-2.238-3.656-5.498-5.484-9.781-5.484c-4.282,0-7.662,1.829-10.14,5.484
			c-2.479,3.657-3.717,9.143-3.717,16.456c0,8.565,1.949,14.846,5.846,18.839c2.165,2.213,4.643,3.32,7.434,3.32
			s5.076-0.625,6.857-1.877c1.78-1.251,3.151-2.96,4.114-5.125C87.648,142.184,88.563,136.807,88.563,130.142z"/>
		<path fill="#010202" d="M109.925,156.163h-2.742V109.68l-10.826,4.908v-2.67l13.568-6.28V156.163z"/>
		<path fill="#010202" d="M143.343,151.977c-2.742,2.84-6.16,4.258-10.249,4.258c-4.091,0-7.507-1.418-10.249-4.258
			c-2.743-2.84-4.115-6.377-4.115-10.611c0-2.935,0.711-5.594,2.13-7.976c1.419-2.381,3.356-4.15,5.812-5.304
			c-1.732-1.059-3.117-2.526-4.151-4.403c-1.035-1.877-1.552-3.921-1.552-6.136c0-3.465,1.202-6.362,3.608-8.697
			c2.405-2.334,5.329-3.5,8.77-3.5s6.34,1.166,8.698,3.5c2.355,2.334,3.537,5.232,3.537,8.697c0,4.718-1.975,8.253-5.92,10.61
			c2.455,1.204,4.367,2.959,5.739,5.269c1.37,2.311,2.056,4.957,2.056,7.939C147.457,145.6,146.085,149.137,143.343,151.977z
			 M144.787,141.222c0-3.176-1.145-5.883-3.428-8.12c-2.287-2.237-5.029-3.356-8.229-3.356s-5.954,1.132-8.265,3.393
			c-2.309,2.263-3.463,4.957-3.463,8.084c0,3.128,1.142,5.967,3.428,8.517c2.284,2.551,5.076,3.825,8.373,3.825
			c3.295,0,6.05-1.263,8.265-3.788C143.679,147.249,144.787,144.398,144.787,141.222z M142.91,117.404
			c0-2.503-0.963-4.692-2.887-6.569c-1.926-1.876-4.162-2.813-6.712-2.813c-2.551,0-4.8,0.95-6.749,2.85
			c-1.949,1.902-2.924,4.066-2.924,6.495c0,2.432,0.963,4.62,2.888,6.569c1.925,1.948,4.21,2.923,6.856,2.923
			s4.896-0.949,6.748-2.852C141.984,122.107,142.91,119.906,142.91,117.404z"/>
	</g>
</g>
</svg>
