<?xml version="1.0" encoding="utf-8"?>
<!-- Generator: Adobe Illustrator 15.0.2, SVG Export Plug-In . SVG Version: 6.00 Build 0)  -->
<!DOCTYPE svg PUBLIC "-//W3C//DTD SVG 1.1//EN" "http://www.w3.org/Graphics/SVG/1.1/DTD/svg11.dtd">
<svg version="1.1" id="Lager_1" xmlns="http://www.w3.org/2000/svg" xmlns:xlink="http://www.w3.org/1999/xlink" x="0px" y="0px"
	 width="172.359px" height="229.112px" viewBox="0 0 172.359 229.112" enable-background="new 0 0 172.359 229.112"
	 xml:space="preserve">
<g>
	<rect fill="#F7F7F7" width="172.359" height="229.112"/>
	<rect fill="#58585A" width="172.359" height="21.429"/>
	<rect fill="#3D3D3F" width="86.18" height="21.429"/>
	<rect x="0.092" y="21.429" fill="#F2F2F2" width="86.18" height="207.683"/>
	<rect x="130.971" y="188.024" fill="#E8E9E9" width="41.389" height="41.088"/>
	<polygon fill="#FFFFFF" points="172.359,188.024 130.971,188.024 130.971,229.112 	"/>
	<g>
		<path fill="#E6511E" stroke="#E6511E" stroke-width="0.5" stroke-miterlimit="10" d="M14.997,115.238l17.625-24.423
			c0.967-1.365,1.703-2.42,2.211-3.17c0.505-0.746,1.023-1.758,1.55-3.035c0.529-1.276,0.792-2.465,0.792-3.563
			c0-3.039-0.967-5.391-2.903-7.064c-1.936-1.671-4.182-2.509-6.733-2.509c-2.551,0-5.984,1.386-10.298,4.158v-2.375
			c3.874-2.817,7.459-4.225,10.76-4.225c3.301,0,6.051,1.112,8.251,3.333c2.2,2.221,3.301,5.028,3.301,8.415
			c0,3.39-1.187,6.734-3.563,10.035l-15.842,21.982H40.08v2.44H14.997z"/>
		<path fill="#E6511E" stroke="#E6511E" stroke-width="0.5" stroke-miterlimit="10" d="M47.144,92.861v-23.83h21.651v2.441H49.386
			v15.909c2.2-1.584,4.644-2.377,7.328-2.377c4.797,0,8.439,1.365,10.923,4.094c2.488,2.729,3.731,6.117,3.731,10.166
			c0,4.048-1.312,7.711-3.928,10.991c-2.619,3.276-5.997,4.915-10.134,4.915c-2.949,0-5.575-0.847-7.888-2.542
			c-2.31-1.69-3.529-3.814-3.664-6.367H48.2c0.174,1.673,1.13,3.136,2.871,4.39c1.738,1.253,3.927,1.878,6.567,1.878
			c3.344,0,6.04-1.318,8.087-3.956c2.046-2.642,3.069-5.655,3.069-9.044s-1.036-6.249-3.104-8.582
			c-2.068-2.332-5.082-3.497-9.041-3.497c-1.983,0-3.83,0.504-5.546,1.518C49.386,89.979,48.067,91.277,47.144,92.861z"/>
	</g>
	<path fill="#E6511E" d="M92.071,96.317H81.175v-2.724h10.896V96.317z"/>
	<g>
		<path fill="#E6511E" stroke="#E6511E" stroke-width="0.5" stroke-miterlimit="10" d="M118.648,115.238h-2.442v-10.561h-19.34
			v-2.442l21.782-33.204v33.204h4.75v2.442h-4.75V115.238z M116.206,77.284l-16.57,24.952h16.57V77.284z"/>
		<path fill="#E6511E" stroke="#E6511E" stroke-width="0.5" stroke-miterlimit="10" d="M158.055,92.531
			c0,7.26-1.235,12.839-3.696,16.731c-2.465,3.896-6.042,5.844-10.727,5.844c-4.683,0-8.385-1.979-11.09-5.94
			c-2.707-3.963-4.062-9.582-4.062-16.866c0-7.284,1.323-12.871,3.962-16.765c2.64-3.895,6.402-5.843,11.287-5.843
			C153.279,69.692,158.055,77.305,158.055,92.531z M155.61,91.44c0-6.094-1.02-10.812-3.067-14.156
			c-2.047-3.345-5.028-5.018-8.945-5.018c-3.92,0-7.01,1.673-9.276,5.018c-2.268,3.344-3.399,8.36-3.399,15.048
			c0,7.834,1.781,13.577,5.347,17.228c1.978,2.026,4.246,3.038,6.797,3.038c2.552,0,4.647-0.573,6.274-1.718
			c1.627-1.143,2.879-2.706,3.761-4.685C154.773,102.456,155.61,97.539,155.61,91.44z"/>
	</g>
	<g>
		<path fill="#58585A" d="M48.963,132.977h1.817v36.847c-1.963,0-3.682-0.08-5.153-0.243c-1.471-0.164-3.001-0.517-4.588-1.054
			c-1.587-0.544-2.886-1.271-3.898-2.185c-1.017-0.915-1.849-2.185-2.504-3.802c-0.654-1.621-0.98-3.445-0.98-5.475
			c0-2.023,0.204-3.769,0.613-5.223c0.407-1.457,0.932-2.619,1.569-3.486c0.639-0.865,1.349-1.576,2.134-2.131
			c1.374-1.016,2.731-1.521,4.073-1.521c2.453,0,4.759,1.161,6.917,3.481V132.977z M37.457,149.612
			c-1.324,2.06-1.986,4.309-1.986,6.743c0,2.44,0.343,4.408,1.03,5.915c0.687,1.504,1.669,2.666,2.945,3.48
			c2.354,1.475,5.526,2.209,9.518,2.209v-17.317c-1.113-1.278-2.182-2.285-3.213-3.019c-1.03-0.735-2.168-1.105-3.41-1.105
			C40.41,146.518,38.783,147.552,37.457,149.612z"/>
		<path fill="#58585A" d="M71.337,145.244h1.817v24.58c-1.963,0-3.682-0.08-5.153-0.243c-1.471-0.164-3.001-0.517-4.588-1.054
			c-1.587-0.544-2.887-1.271-3.899-2.185c-1.017-0.915-1.849-2.185-2.504-3.802c-0.655-1.621-0.98-3.445-0.98-5.475
			c0-2.023,0.203-3.769,0.613-5.223c0.407-1.457,0.932-2.619,1.569-3.486c0.639-0.865,1.35-1.576,2.134-2.131
			c1.374-1.016,2.731-1.521,4.073-1.521c2.454,0,4.759,1.161,6.917,3.481V145.244z M57.845,156.823c0,4.284,1.324,7.263,3.975,8.928
			c2.354,1.475,5.526,2.209,9.517,2.209v-17.317c-1.112-1.278-2.182-2.285-3.212-3.019c-1.031-0.735-2.168-1.105-3.41-1.105
			c-2.062,0-3.722,0.909-4.981,2.722C58.474,151.057,57.845,153.584,57.845,156.823z"/>
		<path fill="#58585A" d="M93.711,145.244h1.817v25.367c0,2.255-0.279,4.228-0.834,5.913c-0.557,1.681-1.26,2.935-2.11,3.753
			c-1.669,1.602-3.32,2.404-4.955,2.404c-2.192,0-4.252-0.919-6.183-2.747v-2.356c2.062,2.192,4.105,3.286,6.133,3.286
			c2.027,0,3.558-0.974,4.587-2.919c1.031-1.948,1.545-4.408,1.545-7.383v-0.787c-5.855-0.227-9.943-1.505-12.266-3.824
			c-2.028-2.098-3.041-5.155-3.041-9.176c0-4.939,1.437-8.458,4.316-10.549c1.374-1.016,2.731-1.521,4.073-1.521
			c2.454,0,4.759,1.161,6.917,3.481V145.244z M82.206,149.612c-1.324,2.06-1.986,4.309-1.986,6.743c0,2.44,0.343,4.408,1.029,5.915
			c0.688,1.504,1.669,2.666,2.945,3.48c2.354,1.475,5.527,2.209,9.517,2.209v-17.317c-1.111-1.278-2.182-2.285-3.212-3.019
			c-1.029-0.735-2.167-1.105-3.41-1.105C85.159,146.518,83.531,147.552,82.206,149.612z"/>
		<path fill="#58585A" d="M116.083,145.244h1.817v24.58c-1.962,0-3.682-0.08-5.154-0.243c-1.47-0.164-2.999-0.517-4.587-1.054
			c-1.587-0.544-2.887-1.271-3.899-2.185c-1.016-0.915-1.848-2.185-2.503-3.802c-0.655-1.621-0.981-3.445-0.981-5.475
			c0-2.023,0.204-3.769,0.614-5.223c0.406-1.457,0.932-2.619,1.569-3.486c0.639-0.865,1.35-1.576,2.134-2.131
			c1.374-1.016,2.731-1.521,4.072-1.521c2.454,0,4.76,1.161,6.917,3.481V145.244z M102.591,156.823c0,4.284,1.324,7.263,3.976,8.928
			c2.354,1.475,5.526,2.209,9.517,2.209v-17.317c-1.111-1.278-2.182-2.285-3.212-3.019c-1.03-0.735-2.168-1.105-3.41-1.105
			c-2.062,0-3.722,0.909-4.981,2.722C103.22,151.057,102.591,153.584,102.591,156.823z"/>
		<path fill="#58585A" d="M126.585,169.775h-1.816v-24.531h1.816v3.581c0.688-0.818,1.742-1.693,3.165-2.623
			c1.42-0.935,2.779-1.402,4.072-1.402c1.292,0,2.421,0.372,3.385,1.106c0.963,0.735,1.463,1.937,1.497,3.605h-1.815
			c0-0.914-0.294-1.633-0.884-2.159c-0.589-0.523-1.39-0.784-2.404-0.784c-1.014,0-2.25,0.492-3.703,1.47
			c-1.458,0.983-2.562,2.065-3.313,3.238V169.775z"/>
	</g>
</g>
</svg>
