<?xml version="1.0" encoding="utf-8"?>
<!-- Generator: Adobe Illustrator 15.0.2, SVG Export Plug-In . SVG Version: 6.00 Build 0)  -->
<!DOCTYPE svg PUBLIC "-//W3C//DTD SVG 1.1//EN" "http://www.w3.org/Graphics/SVG/1.1/DTD/svg11.dtd">
<svg version="1.1" id="Lager_1" xmlns="http://www.w3.org/2000/svg" xmlns:xlink="http://www.w3.org/1999/xlink" x="0px" y="0px"
	 width="172.36px" height="229.112px" viewBox="0 0 172.36 229.112" enable-background="new 0 0 172.36 229.112"
	 xml:space="preserve">
<g>
	<g>
		<rect fill="#F8F7F7" width="172.36" height="229.112"/>
		<rect fill="#5A595B" width="172.36" height="21.429"/>
		<rect fill="#3E3D3F" width="86.18" height="21.429"/>
		<rect x="0.092" y="21.429" fill="#F2F2F2" width="86.18" height="207.683"/>
		<rect x="130.971" y="188.024" fill="#E9E9E9" width="41.39" height="41.088"/>
		<polygon fill="#FFFFFF" points="172.36,188.024 130.971,188.024 130.971,229.112 		"/>
		<g>
			<g>
				<path fill="#E7531F" stroke="#E7531F" stroke-width="0.6" stroke-miterlimit="10" d="M83.788,59.712v25.832h-1.475V72.389
					H70.992v13.155h-1.475V67.286c0-2.869,0.916-5.222,2.75-7.055c1.834-1.835,4.133-2.752,6.896-2.752
					C81.183,57.479,82.725,58.225,83.788,59.712z M82.313,70.914V60.271c-0.851-0.877-1.927-1.315-3.229-1.315
					c-2.34,0-4.272,0.851-5.801,2.551c-1.528,1.702-2.292,3.642-2.292,5.82v3.588H82.313z M79.244,55.885
					c-0.611,0.612-1.355,0.917-2.232,0.917s-1.621-0.305-2.232-0.917c-0.611-0.61-0.917-1.36-0.917-2.252
					c0-0.89,0.306-1.634,0.917-2.232s1.355-0.897,2.232-0.897s1.621,0.299,2.232,0.897c0.61,0.598,0.917,1.342,0.917,2.232
					C80.161,54.524,79.854,55.274,79.244,55.885z M79.044,53.613c0-0.584-0.193-1.062-0.578-1.436
					c-0.386-0.372-0.871-0.558-1.455-0.558c-0.585,0-1.07,0.186-1.455,0.558c-0.386,0.373-0.578,0.845-0.578,1.416
					s0.192,1.062,0.578,1.475c0.385,0.412,0.883,0.617,1.494,0.617s1.097-0.198,1.456-0.597
					C78.865,54.689,79.044,54.198,79.044,53.613z"/>
				<path fill="#E7531F" stroke="#E7531F" stroke-width="0.6" stroke-miterlimit="10" d="M104.038,85.544h-1.793l-7.734-11.84
					c-0.982,0.134-2.072,0.227-3.268,0.279v11.561h-1.477V57.6c8.904,0.026,13.355,2.698,13.355,8.013
					c0,4.279-2.338,6.896-7.016,7.854L104.038,85.544z M91.243,72.389l0.398,0.04c6.67-0.105,10.006-2.338,10.006-6.696
					c0-1.223-0.287-2.239-0.857-3.051c-0.572-0.81-1.217-1.44-1.934-1.893c-1.701-1.062-4.238-1.621-7.613-1.674V72.389z"/>
			</g>
			
				<line fill="none" stroke="#E7531F" stroke-width="2" stroke-linecap="round" stroke-miterlimit="10" x1="59.955" y1="71.572" x2="47.2" y2="71.572"/>
			
				<line fill="none" stroke="#E7531F" stroke-width="2" stroke-linecap="round" stroke-miterlimit="10" x1="126.355" y1="71.572" x2="113.601" y2="71.572"/>
		</g>
	</g>
	<g>
		<path fill="#010202" d="M17.829,156.251L37.1,129.546c1.058-1.49,1.864-2.645,2.417-3.465c0.553-0.816,1.12-1.922,1.697-3.318
			c0.578-1.395,0.866-2.693,0.866-3.898c0-3.32-1.06-5.893-3.176-7.723c-2.119-1.826-4.573-2.744-7.362-2.744
			c-2.792,0-6.545,1.518-11.26,4.549v-2.6c4.234-3.078,8.156-4.619,11.765-4.619s6.616,1.217,9.022,3.646
			c2.406,2.43,3.608,5.498,3.608,9.201c0,3.705-1.298,7.363-3.897,10.971l-17.322,24.035h21.797v2.67H17.829z"/>
		<path fill="#010202" d="M84.159,131.423c0,7.939-1.347,14.039-4.042,18.297c-2.696,4.26-6.604,6.389-11.729,6.389
			s-9.166-2.166-12.126-6.496c-2.959-4.332-4.438-10.477-4.438-18.441c0-7.963,1.444-14.074,4.331-18.332
			c2.886-4.26,7.001-6.389,12.341-6.389C78.938,106.451,84.159,114.775,84.159,131.423z M81.488,130.232
			c0-6.662-1.12-11.824-3.356-15.482c-2.238-3.654-5.498-5.482-9.781-5.482c-4.282,0-7.663,1.828-10.14,5.482
			c-2.479,3.658-3.717,9.145-3.717,16.457c0,8.566,1.949,14.846,5.846,18.84c2.165,2.213,4.643,3.318,7.434,3.318
			c2.791,0,5.076-0.625,6.857-1.875c1.78-1.252,3.152-2.961,4.114-5.125C80.574,142.275,81.488,136.898,81.488,130.232z"/>
		<path fill="#010202" d="M88.2,156.251l19.271-26.705c1.059-1.49,1.865-2.645,2.418-3.465c0.553-0.816,1.119-1.922,1.697-3.318
			c0.577-1.395,0.866-2.693,0.866-3.898c0-3.32-1.06-5.893-3.177-7.723c-2.117-1.826-4.571-2.744-7.362-2.744
			s-6.544,1.518-11.259,4.549v-2.6c4.233-3.078,8.156-4.619,11.764-4.619c3.609,0,6.617,1.217,9.023,3.646
			c2.405,2.43,3.607,5.498,3.607,9.201c0,3.705-1.299,7.363-3.896,10.971l-17.322,24.035h21.797v2.67H88.2z"/>
		<path fill="#010202" d="M154.532,131.423c0,7.939-1.348,14.039-4.043,18.297c-2.695,4.26-6.604,6.389-11.729,6.389
			s-9.166-2.166-12.127-6.496c-2.959-4.332-4.438-10.477-4.438-18.441c0-7.963,1.443-14.074,4.33-18.332
			c2.887-4.26,7.002-6.389,12.342-6.389C149.312,106.451,154.532,114.775,154.532,131.423z M151.862,130.232
			c0-6.662-1.121-11.824-3.357-15.482c-2.236-3.654-5.498-5.482-9.781-5.482c-4.281,0-7.662,1.828-10.141,5.482
			c-2.479,3.658-3.717,9.145-3.717,16.457c0,8.566,1.949,14.846,5.846,18.84c2.166,2.213,4.643,3.318,7.434,3.318
			s5.076-0.625,6.859-1.875c1.779-1.252,3.15-2.961,4.113-5.125C150.946,142.275,151.862,136.898,151.862,130.232z"/>
	</g>
</g>
</svg>
