<?xml version="1.0" encoding="utf-8"?>
<!-- Generator: Adobe Illustrator 15.0.2, SVG Export Plug-In . SVG Version: 6.00 Build 0)  -->
<!DOCTYPE svg PUBLIC "-//W3C//DTD SVG 1.1//EN" "http://www.w3.org/Graphics/SVG/1.1/DTD/svg11.dtd">
<svg version="1.1" id="Lager_1" xmlns="http://www.w3.org/2000/svg" xmlns:xlink="http://www.w3.org/1999/xlink" x="0px" y="0px"
	 width="172.36px" height="229.112px" viewBox="0 0 172.36 229.112" enable-background="new 0 0 172.36 229.112"
	 xml:space="preserve">
<g>
	<g>
		<rect fill="#F8F7F7" width="172.36" height="229.112"/>
		<rect fill="#5A595B" width="172.36" height="21.429"/>
		<rect fill="#3E3D3F" width="86.18" height="21.429"/>
		<rect x="0.093" y="21.429" fill="#F2F2F2" width="86.18" height="207.683"/>
		<rect x="130.971" y="188.024" fill="#E9E9E9" width="41.39" height="41.088"/>
		<polygon fill="#FFFFFF" points="172.36,188.024 130.971,188.024 130.971,229.112 		"/>
		<g>
			<g>
				<path fill="#E7531F" stroke="#E7531F" stroke-width="0.6" stroke-miterlimit="10" d="M83.788,59.712v25.832h-1.475V72.389
					H70.991v13.155h-1.475V67.286c0-2.869,0.916-5.222,2.75-7.055c1.834-1.835,4.133-2.752,6.896-2.752
					C81.183,57.479,82.726,58.225,83.788,59.712z M82.313,70.914V60.271c-0.852-0.877-1.928-1.315-3.229-1.315
					c-2.34,0-4.273,0.851-5.801,2.551c-1.529,1.702-2.293,3.642-2.293,5.82v3.588H82.313z M79.243,55.885
					c-0.611,0.612-1.355,0.917-2.232,0.917s-1.621-0.305-2.232-0.917c-0.611-0.61-0.916-1.36-0.916-2.252
					c0-0.89,0.305-1.634,0.916-2.232s1.355-0.897,2.232-0.897s1.621,0.299,2.232,0.897s0.918,1.342,0.918,2.232
					C80.161,54.524,79.854,55.274,79.243,55.885z M79.044,53.613c0-0.584-0.193-1.062-0.578-1.436
					c-0.385-0.372-0.871-0.558-1.455-0.558s-1.07,0.186-1.455,0.558c-0.385,0.373-0.578,0.845-0.578,1.416s0.193,1.062,0.578,1.475
					s0.883,0.617,1.494,0.617s1.098-0.198,1.457-0.597C78.864,54.689,79.044,54.198,79.044,53.613z"/>
				<path fill="#E7531F" stroke="#E7531F" stroke-width="0.6" stroke-miterlimit="10" d="M104.038,85.544h-1.793l-7.734-11.84
					c-0.982,0.134-2.072,0.227-3.268,0.279v11.561h-1.477V57.6c8.904,0.026,13.355,2.698,13.355,8.013
					c0,4.279-2.338,6.896-7.016,7.854L104.038,85.544z M91.243,72.389l0.398,0.04c6.67-0.105,10.006-2.338,10.006-6.696
					c0-1.223-0.287-2.239-0.857-3.051c-0.572-0.81-1.217-1.44-1.934-1.893c-1.701-1.062-4.238-1.621-7.613-1.674V72.389z"/>
			</g>
			
				<line fill="none" stroke="#E7531F" stroke-width="2" stroke-linecap="round" stroke-miterlimit="10" x1="59.954" y1="71.572" x2="47.2" y2="71.572"/>
			
				<line fill="none" stroke="#E7531F" stroke-width="2" stroke-linecap="round" stroke-miterlimit="10" x1="126.355" y1="71.572" x2="113.601" y2="71.572"/>
		</g>
	</g>
	<g>
		<path fill="#010202" d="M17.793,156.649l19.271-26.705c1.059-1.49,1.865-2.645,2.418-3.465c0.553-0.816,1.119-1.922,1.697-3.318
			c0.578-1.395,0.865-2.693,0.865-3.898c0-3.32-1.059-5.893-3.176-7.723c-2.117-1.826-4.572-2.744-7.361-2.744
			c-2.791,0-6.545,1.518-11.26,4.549v-2.6c4.234-3.078,8.156-4.619,11.764-4.619c3.609,0,6.617,1.217,9.023,3.646
			s3.607,5.498,3.607,9.201c0,3.705-1.299,7.363-3.896,10.971l-17.322,24.035h21.797v2.67H17.793z"/>
		<path fill="#010202" d="M84.123,131.821c0,7.939-1.348,14.039-4.041,18.297c-2.695,4.26-6.605,6.389-11.729,6.389
			c-5.127,0-9.166-2.166-12.127-6.496c-2.959-4.332-4.438-10.477-4.438-18.441c0-7.963,1.443-14.074,4.33-18.332
			c2.887-4.26,7.002-6.389,12.344-6.389C78.902,106.848,84.123,115.172,84.123,131.821z M81.453,130.629
			c0-6.662-1.119-11.824-3.355-15.482c-2.238-3.654-5.498-5.482-9.781-5.482c-4.281,0-7.662,1.828-10.141,5.482
			c-2.48,3.658-3.717,9.145-3.717,16.457c0,8.566,1.949,14.846,5.846,18.84c2.166,2.213,4.645,3.318,7.434,3.318
			c2.793,0,5.078-0.625,6.859-1.875c1.777-1.252,3.148-2.961,4.111-5.125C80.539,142.672,81.453,137.295,81.453,130.629z"/>
		<path fill="#010202" d="M88.166,156.649l19.271-26.705c1.057-1.49,1.865-2.645,2.418-3.465c0.553-0.816,1.119-1.922,1.697-3.318
			c0.578-1.395,0.865-2.693,0.865-3.898c0-3.32-1.061-5.893-3.176-7.723c-2.119-1.826-4.572-2.744-7.361-2.744
			c-2.793,0-6.545,1.518-11.26,4.549v-2.6c4.232-3.078,8.154-4.619,11.764-4.619c3.607,0,6.617,1.217,9.021,3.646
			c2.408,2.43,3.607,5.498,3.607,9.201c0,3.705-1.297,7.363-3.895,10.971l-17.324,24.035h21.797v2.67H88.166z"/>
		<path fill="#010202" d="M146.412,152.463c-2.742,2.84-6.158,4.258-10.25,4.258c-4.09,0-7.506-1.418-10.246-4.258
			c-2.744-2.84-4.115-6.375-4.115-10.609c0-2.936,0.709-5.594,2.127-7.977c1.422-2.381,3.357-4.15,5.812-5.303
			c-1.732-1.059-3.117-2.527-4.15-4.404c-1.035-1.877-1.553-3.92-1.553-6.135c0-3.465,1.203-6.363,3.607-8.697
			c2.408-2.334,5.33-3.5,8.77-3.5c3.441,0,6.342,1.166,8.699,3.5s3.535,5.232,3.535,8.697c0,4.717-1.973,8.252-5.918,10.609
			c2.455,1.205,4.369,2.959,5.74,5.27c1.369,2.311,2.055,4.957,2.055,7.939C150.525,146.088,149.154,149.624,146.412,152.463z
			 M147.855,141.709c0-3.176-1.145-5.883-3.428-8.121c-2.287-2.236-5.027-3.355-8.23-3.355c-3.199,0-5.953,1.133-8.262,3.393
			c-2.311,2.262-3.465,4.957-3.465,8.084c0,3.129,1.141,5.967,3.43,8.518c2.281,2.551,5.074,3.824,8.371,3.824
			s6.051-1.264,8.266-3.789C146.748,147.737,147.855,144.885,147.855,141.709z M145.979,117.891c0-2.502-0.961-4.693-2.887-6.568
			c-1.924-1.877-4.162-2.814-6.713-2.814s-4.797,0.951-6.746,2.852s-2.926,4.066-2.926,6.494c0,2.432,0.963,4.621,2.887,6.57
			c1.926,1.947,4.211,2.922,6.859,2.922c2.645,0,4.893-0.949,6.748-2.852C145.053,122.594,145.979,120.393,145.979,117.891z"/>
	</g>
</g>
</svg>
