<?xml version="1.0" encoding="utf-8"?>
<!-- Generator: Adobe Illustrator 15.0.2, SVG Export Plug-In . SVG Version: 6.00 Build 0)  -->
<!DOCTYPE svg PUBLIC "-//W3C//DTD SVG 1.1//EN" "http://www.w3.org/Graphics/SVG/1.1/DTD/svg11.dtd">
<svg version="1.1" id="Lager_1" xmlns="http://www.w3.org/2000/svg" xmlns:xlink="http://www.w3.org/1999/xlink" x="0px" y="0px"
	 width="172.361px" height="229.112px" viewBox="0 0 172.361 229.112" enable-background="new 0 0 172.361 229.112"
	 xml:space="preserve">
<g>
	<g>
		<rect fill="#F8F7F7" width="172.361" height="229.112"/>
		<rect fill="#5A595B" width="172.361" height="21.429"/>
		<rect fill="#3E3D3F" width="86.18" height="21.429"/>
		<rect x="0.094" y="21.429" fill="#F2F2F2" width="86.18" height="207.683"/>
		<rect x="130.971" y="188.024" fill="#E9E9E9" width="41.391" height="41.088"/>
		<polygon fill="#FFFFFF" points="172.361,188.024 130.971,188.024 130.971,229.112 		"/>
		<g>
			<g>
				<path fill="#E7531F" stroke="#E7531F" stroke-width="0.6" stroke-miterlimit="10" d="M83.789,59.712v25.832h-1.475V72.389
					H70.992v13.155h-1.475V67.286c0-2.869,0.916-5.222,2.75-7.055c1.834-1.835,4.133-2.752,6.896-2.752
					C81.184,57.479,82.727,58.225,83.789,59.712z M82.314,70.914V60.271c-0.852-0.877-1.928-1.315-3.229-1.315
					c-2.34,0-4.273,0.851-5.801,2.551c-1.529,1.702-2.293,3.642-2.293,5.82v3.588H82.314z M79.244,55.885
					c-0.611,0.612-1.355,0.917-2.232,0.917s-1.621-0.305-2.232-0.917c-0.611-0.61-0.916-1.36-0.916-2.252
					c0-0.89,0.305-1.634,0.916-2.232s1.355-0.897,2.232-0.897s1.621,0.299,2.232,0.897s0.918,1.342,0.918,2.232
					C80.162,54.524,79.855,55.274,79.244,55.885z M79.045,53.613c0-0.584-0.193-1.062-0.578-1.436
					c-0.385-0.372-0.871-0.558-1.455-0.558s-1.07,0.186-1.455,0.558c-0.385,0.373-0.578,0.845-0.578,1.416s0.193,1.062,0.578,1.475
					s0.883,0.617,1.494,0.617s1.098-0.198,1.457-0.597C78.865,54.689,79.045,54.198,79.045,53.613z"/>
				<path fill="#E7531F" stroke="#E7531F" stroke-width="0.6" stroke-miterlimit="10" d="M104.039,85.544h-1.793l-7.734-11.84
					c-0.982,0.134-2.072,0.227-3.268,0.279v11.561h-1.477V57.6c8.904,0.026,13.355,2.698,13.355,8.013
					c0,4.279-2.338,6.896-7.016,7.854L104.039,85.544z M91.244,72.389l0.398,0.04c6.67-0.105,10.006-2.338,10.006-6.696
					c0-1.223-0.287-2.239-0.857-3.051c-0.572-0.81-1.217-1.44-1.934-1.893c-1.701-1.062-4.238-1.621-7.613-1.674V72.389z"/>
			</g>
			
				<line fill="none" stroke="#E7531F" stroke-width="2" stroke-linecap="round" stroke-miterlimit="10" x1="59.955" y1="71.572" x2="47.201" y2="71.572"/>
			
				<line fill="none" stroke="#E7531F" stroke-width="2" stroke-linecap="round" stroke-miterlimit="10" x1="126.355" y1="71.572" x2="113.602" y2="71.572"/>
		</g>
	</g>
	<g>
		<path fill="#010202" d="M19.057,157.046l19.271-26.705c1.059-1.49,1.865-2.645,2.418-3.465c0.553-0.816,1.119-1.922,1.697-3.318
			c0.576-1.395,0.865-2.693,0.865-3.898c0-3.32-1.061-5.893-3.176-7.723c-2.119-1.826-4.572-2.744-7.363-2.744
			s-6.543,1.518-11.258,4.549v-2.6c4.232-3.078,8.154-4.619,11.764-4.619s6.617,1.217,9.021,3.646
			c2.406,2.43,3.609,5.498,3.609,9.201c0,3.705-1.299,7.363-3.896,10.971l-17.324,24.035h21.799v2.67H19.057z"/>
		<path fill="#010202" d="M85.387,132.218c0,7.939-1.348,14.039-4.041,18.297c-2.697,4.26-6.605,6.389-11.73,6.389
			s-9.164-2.166-12.125-6.496c-2.959-4.332-4.438-10.477-4.438-18.441c0-7.963,1.443-14.074,4.33-18.332
			c2.887-4.26,7.002-6.389,12.342-6.389C80.166,107.246,85.387,115.57,85.387,132.218z M82.717,131.027
			c0-6.662-1.119-11.824-3.355-15.482c-2.238-3.654-5.498-5.482-9.781-5.482s-7.664,1.828-10.141,5.482
			c-2.479,3.658-3.717,9.145-3.717,16.457c0,8.566,1.949,14.846,5.846,18.84c2.164,2.213,4.643,3.318,7.434,3.318
			s5.076-0.625,6.857-1.875c1.779-1.252,3.152-2.961,4.113-5.125C81.803,143.07,82.717,137.693,82.717,131.027z"/>
		<path fill="#010202" d="M91.088,149.902l3.465-0.072c2.404,3.08,5.34,4.619,8.805,4.619s6.303-1.264,8.518-3.789
			c2.213-2.525,3.32-5.377,3.32-8.553s-1.145-5.883-3.43-8.121c-2.285-2.236-5.064-3.355-8.336-3.355
			c-0.865,0-1.516,0.049-1.949,0.145v-3.32c0.625,0.193,1.396,0.289,2.311,0.289c2.645,0,4.895-0.949,6.748-2.852
			c1.852-1.9,2.779-4.102,2.779-6.604s-0.963-4.693-2.887-6.568c-1.926-1.877-4.307-2.814-7.145-2.814
			c-2.84,0-5.27,1.324-7.291,3.969h-3.32c1.012-2.02,2.502-3.633,4.475-4.836c1.973-1.201,4.162-1.803,6.568-1.803
			c3.465,0,6.375,1.166,8.732,3.5s3.537,5.232,3.537,8.697c0,4.717-1.973,8.252-5.918,10.609c2.453,1.205,4.365,2.959,5.738,5.27
			c1.371,2.311,2.057,4.957,2.057,7.939c0,4.234-1.371,7.77-4.113,10.609c-2.744,2.84-6.16,4.258-10.25,4.258
			c-2.695,0-5.123-0.648-7.291-1.947C94.047,153.871,92.338,152.117,91.088,149.902z"/>
		<path fill="#010202" d="M149.189,152.861c-2.742,2.84-6.16,4.258-10.248,4.258c-4.092,0-7.508-1.418-10.25-4.258
			s-4.115-6.375-4.115-10.609c0-2.936,0.711-5.594,2.131-7.977c1.418-2.381,3.355-4.15,5.811-5.303
			c-1.732-1.059-3.117-2.527-4.15-4.404c-1.037-1.877-1.553-3.92-1.553-6.135c0-3.465,1.203-6.363,3.607-8.697
			c2.406-2.334,5.33-3.5,8.771-3.5c3.439,0,6.34,1.166,8.697,3.5c2.355,2.334,3.537,5.232,3.537,8.697
			c0,4.717-1.975,8.252-5.92,10.609c2.455,1.205,4.367,2.959,5.738,5.27s2.057,4.957,2.057,7.939
			C153.303,146.486,151.932,150.021,149.189,152.861z M150.633,142.107c0-3.176-1.145-5.883-3.428-8.121
			c-2.287-2.236-5.029-3.355-8.229-3.355c-3.201,0-5.955,1.133-8.266,3.393c-2.309,2.262-3.463,4.957-3.463,8.084
			c0,3.129,1.141,5.967,3.428,8.518c2.285,2.551,5.076,3.824,8.373,3.824c3.295,0,6.049-1.264,8.264-3.789
			C149.525,148.134,150.633,145.283,150.633,142.107z M148.756,118.289c0-2.502-0.963-4.693-2.887-6.568
			c-1.926-1.877-4.162-2.814-6.711-2.814c-2.551,0-4.801,0.951-6.75,2.852s-2.924,4.066-2.924,6.494c0,2.432,0.963,4.621,2.887,6.57
			c1.926,1.947,4.211,2.922,6.857,2.922s4.895-0.949,6.748-2.852C147.83,122.992,148.756,120.791,148.756,118.289z"/>
	</g>
</g>
</svg>
