<?xml version="1.0" encoding="utf-8"?>
<!-- Generator: Adobe Illustrator 15.0.2, SVG Export Plug-In . SVG Version: 6.00 Build 0)  -->
<!DOCTYPE svg PUBLIC "-//W3C//DTD SVG 1.1//EN" "http://www.w3.org/Graphics/SVG/1.1/DTD/svg11.dtd">
<svg version="1.1" id="Lager_1" xmlns="http://www.w3.org/2000/svg" xmlns:xlink="http://www.w3.org/1999/xlink" x="0px" y="0px"
	 width="172.36px" height="229.112px" viewBox="0 0 172.36 229.112" enable-background="new 0 0 172.36 229.112"
	 xml:space="preserve">
<g>
	<g>
		<rect fill="#F8F7F7" width="172.36" height="229.112"/>
		<rect fill="#5A595B" width="172.36" height="21.429"/>
		<rect fill="#3E3D3F" width="86.18" height="21.429"/>
		<rect x="0.093" y="21.429" fill="#F2F2F2" width="86.18" height="207.683"/>
		<rect x="130.971" y="188.024" fill="#E9E9E9" width="41.39" height="41.088"/>
		<polygon fill="#FFFFFF" points="172.36,188.024 130.971,188.024 130.971,229.112 		"/>
		<g>
			<g>
				<path fill="#E7531F" stroke="#E7531F" stroke-width="0.6" stroke-miterlimit="10" d="M83.788,59.712v25.832h-1.475V72.389
					H70.991v13.155h-1.475V67.286c0-2.869,0.916-5.222,2.75-7.055c1.834-1.835,4.133-2.752,6.896-2.752
					C81.183,57.479,82.726,58.225,83.788,59.712z M82.313,70.914V60.271c-0.852-0.877-1.928-1.315-3.229-1.315
					c-2.34,0-4.273,0.851-5.801,2.551c-1.529,1.702-2.293,3.642-2.293,5.82v3.588H82.313z M79.243,55.885
					c-0.611,0.612-1.355,0.917-2.232,0.917s-1.621-0.305-2.232-0.917c-0.611-0.61-0.916-1.36-0.916-2.252
					c0-0.89,0.305-1.634,0.916-2.232s1.355-0.897,2.232-0.897s1.621,0.299,2.232,0.897s0.918,1.342,0.918,2.232
					C80.161,54.524,79.854,55.274,79.243,55.885z M79.044,53.613c0-0.584-0.193-1.062-0.578-1.436
					c-0.385-0.372-0.871-0.558-1.455-0.558s-1.07,0.186-1.455,0.558c-0.385,0.373-0.578,0.845-0.578,1.416s0.193,1.062,0.578,1.475
					s0.883,0.617,1.494,0.617s1.098-0.198,1.457-0.597C78.864,54.689,79.044,54.198,79.044,53.613z"/>
				<path fill="#E7531F" stroke="#E7531F" stroke-width="0.6" stroke-miterlimit="10" d="M104.038,85.544h-1.793l-7.734-11.84
					c-0.982,0.134-2.072,0.227-3.268,0.279v11.561h-1.477V57.6c8.904,0.026,13.355,2.698,13.355,8.013
					c0,4.279-2.338,6.896-7.016,7.854L104.038,85.544z M91.243,72.389l0.398,0.04c6.67-0.105,10.006-2.338,10.006-6.696
					c0-1.223-0.287-2.239-0.857-3.051c-0.572-0.81-1.217-1.44-1.934-1.893c-1.701-1.062-4.238-1.621-7.613-1.674V72.389z"/>
			</g>
			
				<line fill="none" stroke="#E7531F" stroke-width="2" stroke-linecap="round" stroke-miterlimit="10" x1="59.954" y1="71.572" x2="47.2" y2="71.572"/>
			
				<line fill="none" stroke="#E7531F" stroke-width="2" stroke-linecap="round" stroke-miterlimit="10" x1="126.355" y1="71.572" x2="113.601" y2="71.572"/>
		</g>
	</g>
	<g>
		<path fill="#010202" d="M17.073,157.046l19.27-26.705c1.059-1.49,1.865-2.645,2.418-3.465c0.553-0.816,1.121-1.922,1.697-3.318
			c0.578-1.395,0.867-2.693,0.867-3.898c0-3.32-1.061-5.893-3.176-7.723c-2.119-1.826-4.574-2.744-7.363-2.744
			c-2.791,0-6.545,1.518-11.26,4.549v-2.6c4.234-3.078,8.156-4.619,11.766-4.619s6.615,1.217,9.021,3.646s3.607,5.498,3.607,9.201
			c0,3.705-1.297,7.363-3.896,10.971l-17.322,24.035h21.797v2.67H17.073z"/>
		<path fill="#010202" d="M83.403,132.218c0,7.939-1.348,14.039-4.043,18.297c-2.695,4.26-6.604,6.389-11.729,6.389
			s-9.166-2.166-12.127-6.496c-2.959-4.332-4.438-10.477-4.438-18.441c0-7.963,1.443-14.074,4.332-18.332
			c2.885-4.26,7-6.389,12.34-6.389C78.181,107.246,83.403,115.57,83.403,132.218z M80.731,131.027
			c0-6.662-1.119-11.824-3.355-15.482c-2.238-3.654-5.498-5.482-9.781-5.482c-4.281,0-7.662,1.828-10.141,5.482
			c-2.479,3.658-3.717,9.145-3.717,16.457c0,8.566,1.949,14.846,5.848,18.84c2.164,2.213,4.643,3.318,7.434,3.318
			c2.789,0,5.076-0.625,6.855-1.875c1.781-1.252,3.152-2.961,4.115-5.125C79.817,143.07,80.731,137.693,80.731,131.027z"/>
		<path fill="#010202" d="M89.104,149.902l3.463-0.072c2.406,3.08,5.342,4.619,8.807,4.619s6.303-1.264,8.516-3.789
			s3.32-5.377,3.32-8.553s-1.143-5.883-3.428-8.121c-2.285-2.236-5.064-3.355-8.336-3.355c-0.867,0-1.516,0.049-1.949,0.145v-3.32
			c0.623,0.193,1.395,0.289,2.309,0.289c2.646,0,4.896-0.949,6.75-2.852c1.852-1.9,2.777-4.102,2.777-6.604
			s-0.961-4.693-2.887-6.568c-1.924-1.877-4.307-2.814-7.145-2.814c-2.84,0-5.27,1.324-7.289,3.969H90.69
			c1.012-2.02,2.502-3.633,4.477-4.836c1.973-1.201,4.16-1.803,6.566-1.803c3.465,0,6.375,1.166,8.734,3.5
			c2.357,2.334,3.535,5.232,3.535,8.697c0,4.717-1.973,8.252-5.918,10.609c2.455,1.205,4.367,2.959,5.738,5.27
			c1.373,2.311,2.059,4.957,2.059,7.939c0,4.234-1.373,7.77-4.115,10.609s-6.16,4.258-10.25,4.258c-2.693,0-5.123-0.648-7.289-1.947
			C92.063,153.871,90.353,152.117,89.104,149.902z"/>
		<path fill="#010202" d="M155.288,132.218c0,7.939-1.346,14.039-4.041,18.297c-2.695,4.26-6.604,6.389-11.729,6.389
			s-9.166-2.166-12.127-6.496c-2.959-4.332-4.438-10.477-4.438-18.441c0-7.963,1.443-14.074,4.33-18.332
			c2.887-4.26,7.002-6.389,12.342-6.389C150.067,107.246,155.288,115.57,155.288,132.218z M152.618,131.027
			c0-6.662-1.119-11.824-3.355-15.482c-2.238-3.654-5.498-5.482-9.781-5.482c-4.281,0-7.662,1.828-10.141,5.482
			c-2.479,3.658-3.717,9.145-3.717,16.457c0,8.566,1.949,14.846,5.846,18.84c2.166,2.213,4.643,3.318,7.434,3.318
			s5.076-0.625,6.857-1.875c1.781-1.252,3.152-2.961,4.115-5.125C151.704,143.07,152.618,137.693,152.618,131.027z"/>
	</g>
</g>
</svg>
