<?xml version="1.0" encoding="utf-8"?>
<!-- Generator: Adobe Illustrator 15.0.2, SVG Export Plug-In . SVG Version: 6.00 Build 0)  -->
<!DOCTYPE svg PUBLIC "-//W3C//DTD SVG 1.1//EN" "http://www.w3.org/Graphics/SVG/1.1/DTD/svg11.dtd">
<svg version="1.1" id="Lager_1" xmlns="http://www.w3.org/2000/svg" xmlns:xlink="http://www.w3.org/1999/xlink" x="0px" y="0px"
	 width="115.644px" height="115.643px" viewBox="0 0 115.644 115.643" enable-background="new 0 0 115.644 115.643"
	 xml:space="preserve">
<g>
	<circle fill="#575756" cx="57.822" cy="57.822" r="57.822"/>
	<path fill="#3C3C3B" d="M57.822,115.643c31.933,0,57.821-25.888,57.821-57.821S89.755,0,57.822,0V115.643z"/>
	<circle fill="#FFFFFF" cx="57.823" cy="57.822" r="48.985"/>
	<path fill="#DADADA" d="M82.081,100.386c14.771-8.436,24.727-24.337,24.727-42.564c0-27.053-21.932-48.984-48.985-48.984V57.6"/>
	<g>
		<path fill="#575756" d="M69.13,51.179V39.703h10.428v1.177h-9.346v7.661c1.06-0.76,2.234-1.143,3.527-1.143
			c2.311,0,4.065,0.657,5.262,1.971c1.196,1.315,1.797,2.947,1.797,4.895c0,1.951-0.631,3.715-1.891,5.294
			c-1.264,1.581-2.888,2.369-4.88,2.369c-1.421,0-2.688-0.408-3.802-1.225c-1.111-0.816-1.699-1.838-1.764-3.068h1.179
			c0.084,0.805,0.545,1.511,1.381,2.114c0.839,0.604,1.894,0.906,3.164,0.906c1.611,0,2.907-0.636,3.894-1.907
			c0.985-1.273,1.479-2.725,1.479-4.356c0-1.631-0.498-3.01-1.494-4.133c-0.996-1.123-2.447-1.683-4.354-1.683
			c-0.954,0-1.845,0.243-2.67,0.729C70.212,49.793,69.574,50.416,69.13,51.179z"/>
		<path fill="#575756" d="M94.959,61.958l0.03-8.393c0-1.78-0.429-3.338-1.287-4.672c-0.857-1.334-1.912-2.005-3.161-2.005
			c-0.809,0-1.543,0.24-2.21,0.717c-0.668,0.475-1.363,1.127-2.084,1.956v12.397h-1.176V38.115h1.176v9.855
			c1.398-1.503,2.893-2.257,4.482-2.257c0.868,0,1.748,0.329,2.637,0.986c1.866,1.356,2.801,3.636,2.801,6.835l-0.034,8.424H94.959z
			"/>
	</g>
	<circle fill="#E94B3D" cx="57.751" cy="57.695" r="4.545"/>
	<path fill="none" stroke="#E94B3D" stroke-width="4.5449" stroke-linecap="round" stroke-miterlimit="10" d="M57.751,18.568
		c0-1.357,0,39.127,0,39.127"/>
	<path fill="none" stroke="#E94B3D" stroke-width="4.5449" stroke-linecap="round" stroke-miterlimit="10" d="M70.085,79.839
		c-0.73-1.144-12.209-21.542-12.209-21.542"/>
</g>
</svg>
