<?xml version="1.0" encoding="utf-8"?>
<!-- Generator: Adobe Illustrator 15.0.2, SVG Export Plug-In . SVG Version: 6.00 Build 0)  -->
<!DOCTYPE svg PUBLIC "-//W3C//DTD SVG 1.1//EN" "http://www.w3.org/Graphics/SVG/1.1/DTD/svg11.dtd">
<svg version="1.1" id="Lager_1" xmlns="http://www.w3.org/2000/svg" xmlns:xlink="http://www.w3.org/1999/xlink" x="0px" y="0px"
	 width="229px" height="229px" viewBox="0 0 229 229" enable-background="new 0 0 229 229" xml:space="preserve">
<circle fill="#575756" cx="114.57" cy="114.294" r="114.5"/>
<path fill="#3C3C3B" d="M114.57,228.793c-63.236,0-114.5-51.264-114.5-114.5c0-63.237,51.263-114.5,114.5-114.5V228.793z"/>
<circle fill="#FFFFFF" cx="114.57" cy="114.294" r="97"/>
<path fill="#F6F6F6" d="M114.57,211.293c-53.571,0-97-43.43-97-97c0-53.572,43.428-97,97-97V211.293z"/>
<g>
	<path stroke="#000000" stroke-width="0.5839" stroke-miterlimit="10" d="M109.882,44.952h-1.065V26.903l-4.203,1.905v-1.037
		l5.269-2.438L109.882,44.952L109.882,44.952z"/>
	<path stroke="#000000" stroke-width="0.5839" stroke-miterlimit="10" d="M112.489,44.952l7.484-10.37
		c0.409-0.579,0.723-1.027,0.938-1.346c0.214-0.317,0.436-0.747,0.658-1.289c0.225-0.542,0.336-1.046,0.336-1.513
		c0-1.29-0.41-2.289-1.232-2.999s-1.775-1.065-2.859-1.065c-1.082,0-2.539,0.588-4.372,1.766v-1.009
		c1.645-1.195,3.167-1.793,4.568-1.793s2.569,0.472,3.505,1.415c0.934,0.944,1.4,2.135,1.4,3.574c0,1.438-0.504,2.858-1.514,4.26
		l-6.727,9.333h8.465v1.037L112.489,44.952L112.489,44.952z"/>
</g>
<g>
	<path stroke="#000000" stroke-width="0.5839" stroke-miterlimit="10" d="M37.24,110.393l-0.027,3.111v3.277
		c0,1.048-0.141,1.986-0.421,2.818c-0.281,0.832-0.622,1.494-1.023,1.989c-0.403,0.496-0.864,0.902-1.388,1.22
		c-0.878,0.578-1.719,0.869-2.521,0.869c-1.85,0-3.494-0.523-4.934-1.57l0.056-1.037c0.617,0.43,1.388,0.799,2.312,1.105
		c0.925,0.309,1.723,0.463,2.396,0.463c1.195,0,2.242-0.541,3.14-1.625c0.896-1.084,1.344-2.504,1.344-4.261v-3.615
		c-0.466,0.729-1.097,1.303-1.892,1.724c-0.794,0.419-1.667,0.63-2.62,0.63c-1.588,0-2.915-0.551-3.98-1.654
		c-1.065-1.102-1.598-2.475-1.598-4.12c0-0.878,0.154-1.663,0.462-2.354c0.309-0.691,0.682-1.237,1.121-1.64
		c0.439-0.401,0.939-0.724,1.5-0.967c0.953-0.448,1.822-0.672,2.607-0.672c1.531,0,2.826,0.5,3.882,1.499
		c1.055,1,1.583,2.378,1.583,4.134v0.675H37.24z M36.204,109.664c0-1.233-0.445-2.284-1.332-3.153
		c-0.887-0.868-1.953-1.303-3.194-1.303c-1.243,0-2.312,0.439-3.209,1.317c-0.897,0.878-1.346,1.925-1.346,3.139
		s0.444,2.317,1.332,3.307c0.887,0.99,1.971,1.485,3.25,1.485c1.28,0,2.351-0.49,3.209-1.472
		C35.773,112.004,36.204,110.897,36.204,109.664z"/>
</g>
<g>
	<path stroke="#000000" stroke-width="0.5839" stroke-miterlimit="10" d="M108.299,196.227l0.027-3.14v-3.251
		c0-1.047,0.14-1.984,0.42-2.816c0.281-0.83,0.621-1.494,1.023-1.99c0.401-0.493,0.863-0.91,1.387-1.246
		c0.878-0.561,1.72-0.842,2.522-0.842c1.849,0,3.494,0.522,4.933,1.57l-0.057,1.037c-0.615-0.432-1.388-0.8-2.312-1.107
		c-0.926-0.309-1.724-0.463-2.396-0.463c-1.196,0-2.242,0.541-3.14,1.625c-0.896,1.084-1.346,2.504-1.346,4.26v3.615
		c0.468-0.728,1.099-1.301,1.892-1.723c0.795-0.421,1.669-0.631,2.621-0.631c1.589,0,2.915,0.553,3.979,1.652
		c1.065,1.104,1.599,2.477,1.599,4.119c0,0.881-0.153,1.664-0.464,2.355c-0.307,0.691-0.682,1.236-1.12,1.639
		s-0.938,0.734-1.499,0.996c-0.952,0.43-1.821,0.645-2.606,0.645c-1.532,0-2.825-0.5-3.882-1.5
		c-1.056-0.998-1.582-2.377-1.582-4.135v-0.67H108.299z M109.335,196.956c0,1.231,0.443,2.282,1.331,3.151
		c0.887,0.869,1.952,1.305,3.195,1.305s2.312-0.439,3.209-1.318c0.896-0.878,1.345-1.924,1.345-3.138
		c0-1.215-0.444-2.317-1.331-3.308c-0.889-0.99-1.973-1.484-3.251-1.484c-1.28,0-2.35,0.49-3.209,1.471
		S109.335,195.721,109.335,196.956z"/>
</g>
<g>
	<path stroke="#000000" stroke-width="0.5839" stroke-miterlimit="10" d="M190.042,120.959l1.345-0.027
		c0.934,1.195,2.074,1.793,3.42,1.793s2.447-0.49,3.307-1.472s1.289-2.088,1.289-3.321c0-1.232-0.442-2.285-1.33-3.153
		c-0.889-0.869-1.967-1.304-3.237-1.304c-0.336,0-0.588,0.019-0.757,0.057v-1.289c0.242,0.075,0.542,0.112,0.896,0.112
		c1.027,0,1.9-0.369,2.621-1.107c0.719-0.738,1.078-1.593,1.078-2.565c0-0.971-0.374-1.822-1.121-2.55
		c-0.748-0.729-1.673-1.093-2.773-1.093c-1.104,0-2.047,0.514-2.831,1.541h-1.289c0.392-0.785,0.972-1.411,1.737-1.877
		c0.767-0.467,1.615-0.701,2.549-0.701c1.347,0,2.478,0.454,3.393,1.359c0.916,0.907,1.373,2.032,1.373,3.377
		c0,1.831-0.766,3.205-2.298,4.12c0.953,0.467,1.696,1.149,2.229,2.046c0.532,0.898,0.799,1.924,0.799,3.083
		c0,1.645-0.533,3.018-1.599,4.119c-1.063,1.104-2.392,1.654-3.979,1.654c-1.047,0-1.988-0.252-2.83-0.757
		C191.189,122.5,190.525,121.818,190.042,120.959z"/>
</g>
</svg>
