<?xml version="1.0" encoding="utf-8"?>
<!-- Generator: Adobe Illustrator 15.0.2, SVG Export Plug-In . SVG Version: 6.00 Build 0)  -->
<!DOCTYPE svg PUBLIC "-//W3C//DTD SVG 1.1//EN" "http://www.w3.org/Graphics/SVG/1.1/DTD/svg11.dtd">
<svg version="1.1" id="Lager_1" xmlns="http://www.w3.org/2000/svg" xmlns:xlink="http://www.w3.org/1999/xlink" x="0px" y="0px"
	 width="229px" height="229px" viewBox="0 0 229 229" enable-background="new 0 0 229 229" xml:space="preserve">
<circle fill="#575756" cx="114.57" cy="114.294" r="114.5"/>
<path fill="#3C3C3B" d="M114.57,228.793c-63.236,0-114.5-51.264-114.5-114.5c0-63.237,51.263-114.5,114.5-114.5V228.793z"/>
<circle fill="#FFFFFF" cx="114.57" cy="114.294" r="97"/>
<path fill="#F6F6F6" d="M114.57,211.293c-53.571,0-97-43.429-97-97c0-53.572,43.428-97,97-97V211.293z"/>
<g>
	<path stroke="#000000" stroke-width="0.5839" stroke-miterlimit="10" d="M109.882,44.952h-1.065V26.903l-4.203,1.905v-1.037
		l5.269-2.438V44.952z"/>
	<path stroke="#000000" stroke-width="0.5839" stroke-miterlimit="10" d="M112.489,44.952l7.483-10.37
		c0.41-0.579,0.723-1.027,0.938-1.346c0.214-0.317,0.435-0.747,0.658-1.289c0.225-0.542,0.336-1.046,0.336-1.513
		c0-1.29-0.41-2.289-1.232-2.999c-0.822-0.71-1.775-1.065-2.859-1.065c-1.083,0-2.54,0.588-4.372,1.766v-1.009
		c1.645-1.195,3.167-1.793,4.568-1.793s2.569,0.472,3.504,1.415c0.934,0.944,1.401,2.135,1.401,3.574
		c0,1.438-0.504,2.858-1.514,4.26l-6.726,9.333h8.464v1.037H112.489z"/>
</g>
<g>
	<path stroke="#000000" stroke-width="0.5839" stroke-miterlimit="10" d="M37.24,110.393l-0.027,3.111v3.278
		c0,1.047-0.141,1.986-0.421,2.817c-0.281,0.832-0.622,1.495-1.023,1.99c-0.403,0.496-0.864,0.902-1.388,1.219
		c-0.878,0.579-1.719,0.869-2.521,0.869c-1.85,0-3.494-0.523-4.934-1.57l0.056-1.037c0.617,0.43,1.388,0.799,2.312,1.106
		c0.925,0.309,1.723,0.463,2.396,0.463c1.195,0,2.242-0.542,3.14-1.626c0.896-1.083,1.344-2.503,1.344-4.26v-3.615
		c-0.466,0.729-1.097,1.303-1.892,1.724c-0.794,0.42-1.667,0.63-2.62,0.63c-1.588,0-2.915-0.551-3.98-1.654
		c-1.065-1.102-1.598-2.475-1.598-4.12c0-0.878,0.154-1.663,0.462-2.354c0.309-0.691,0.682-1.237,1.121-1.64
		c0.439-0.401,0.939-0.724,1.5-0.967c0.953-0.448,1.822-0.672,2.607-0.672c1.531,0,2.826,0.5,3.882,1.499
		c1.055,1,1.583,2.378,1.583,4.134V110.393z M36.204,109.664c0-1.233-0.445-2.284-1.332-3.153c-0.887-0.868-1.953-1.303-3.194-1.303
		c-1.243,0-2.312,0.439-3.209,1.317c-0.897,0.878-1.346,1.925-1.346,3.139s0.444,2.317,1.332,3.307
		c0.887,0.99,1.971,1.485,3.25,1.485c1.28,0,2.351-0.49,3.209-1.472C35.773,112.004,36.204,110.897,36.204,109.664z"/>
</g>
<g>
	<path stroke="#000000" stroke-width="0.5839" stroke-miterlimit="10" d="M108.299,196.226l0.027-3.139v-3.251
		c0-1.047,0.14-1.985,0.42-2.816c0.281-0.831,0.621-1.495,1.023-1.991c0.401-0.493,0.863-0.91,1.387-1.246
		c0.878-0.561,1.72-0.841,2.522-0.841c1.85,0,3.494,0.522,4.934,1.569l-0.058,1.038c-0.615-0.432-1.387-0.8-2.312-1.108
		s-1.724-0.462-2.396-0.462c-1.196,0-2.242,0.541-3.14,1.625c-0.896,1.084-1.346,2.504-1.346,4.26v3.615
		c0.468-0.728,1.099-1.302,1.892-1.723c0.795-0.421,1.669-0.631,2.621-0.631c1.589,0,2.915,0.552,3.979,1.653
		c1.065,1.103,1.598,2.476,1.598,4.119c0,0.88-0.153,1.664-0.463,2.355c-0.308,0.691-0.682,1.237-1.121,1.639
		c-0.438,0.402-0.938,0.734-1.499,0.995c-0.952,0.43-1.821,0.645-2.606,0.645c-1.532,0-2.825-0.5-3.882-1.499
		c-1.056-0.999-1.582-2.377-1.582-4.135V196.226z M109.335,196.956c0,1.232,0.443,2.282,1.331,3.151
		c0.887,0.869,1.952,1.305,3.195,1.305c1.242,0,2.312-0.44,3.209-1.318c0.896-0.878,1.345-1.924,1.345-3.138
		c0-1.215-0.444-2.317-1.331-3.308c-0.888-0.99-1.972-1.484-3.251-1.484c-1.28,0-2.35,0.49-3.209,1.471
		S109.335,195.721,109.335,196.956z"/>
</g>
<g>
	<path stroke="#000000" stroke-width="0.5839" stroke-miterlimit="10" d="M190.042,120.959l1.345-0.028
		c0.934,1.196,2.074,1.794,3.419,1.794c1.346,0,2.448-0.491,3.307-1.472c0.86-0.981,1.29-2.088,1.29-3.321
		c0-1.233-0.443-2.285-1.331-3.153c-0.888-0.869-1.967-1.304-3.237-1.304c-0.336,0-0.588,0.019-0.757,0.057v-1.289
		c0.242,0.075,0.542,0.112,0.897,0.112c1.027,0,1.9-0.369,2.62-1.107c0.719-0.738,1.079-1.593,1.079-2.565
		c0-0.971-0.374-1.822-1.121-2.55c-0.748-0.729-1.673-1.093-2.774-1.093c-1.103,0-2.046,0.514-2.831,1.541h-1.289
		c0.392-0.785,0.972-1.411,1.737-1.877c0.767-0.467,1.616-0.701,2.55-0.701c1.346,0,2.477,0.454,3.392,1.359
		c0.916,0.907,1.373,2.032,1.373,3.377c0,1.831-0.766,3.205-2.298,4.12c0.953,0.467,1.696,1.149,2.229,2.046
		c0.533,0.897,0.799,1.924,0.799,3.083c0,1.645-0.533,3.018-1.598,4.12c-1.064,1.103-2.392,1.654-3.979,1.654
		c-1.047,0-1.989-0.252-2.831-0.757C191.19,122.5,190.526,121.819,190.042,120.959z"/>
</g>
<circle cx="114.57" cy="114.294" r="9"/>
<line fill="none" stroke="#000000" stroke-width="9" stroke-linecap="round" stroke-miterlimit="10" x1="114.5" y1="114.5" x2="57.25" y2="61.083"/>
<line fill="none" stroke="#000000" stroke-width="9" stroke-linecap="round" stroke-miterlimit="10" x1="114.5" y1="115.089" x2="172.492" y2="81.51"/>
</svg>
