<?xml version="1.0" encoding="utf-8"?>
<!-- Generator: Adobe Illustrator 17.1.0, SVG Export Plug-In . SVG Version: 6.00 Build 0)  -->
<!DOCTYPE svg PUBLIC "-//W3C//DTD SVG 1.1//EN" "http://www.w3.org/Graphics/SVG/1.1/DTD/svg11.dtd">
<svg version="1.1" xmlns="http://www.w3.org/2000/svg" xmlns:xlink="http://www.w3.org/1999/xlink" x="0px" y="0px"
	 viewBox="0 0 301.6 274.6" enable-background="new 0 0 301.6 274.6" xml:space="preserve">
<g id="Layer_1" display="none">
	<g display="inline">
		
			<path fill="#7D4E24" stroke="#7D4E24" stroke-width="3" stroke-linecap="round" stroke-linejoin="round" stroke-miterlimit="10" d="
			M137.3,266.3c-71.2,0-129-57.7-129-129c0-71.2,57.7-129,129-129V266.3z"/>
		
			<path fill="#7D4E24" stroke="#7D4E24" stroke-width="3" stroke-linecap="round" stroke-linejoin="round" stroke-miterlimit="10" d="
			M144.2,273.1h-6.9c-74.9,0-135.8-60.9-135.8-135.8C1.5,62.4,62.4,1.5,137.3,1.5h6.9V273.1z M130.5,15.4
			C66.3,19,15.2,72.3,15.2,137.3s51.1,118.3,115.2,121.9V15.4z"/>
	</g>
	
		<circle display="inline" fill="#FFFFFF" stroke="#FFFFFF" stroke-width="8" stroke-miterlimit="10" cx="137.3" cy="137.3" r="115.7"/>
	<path display="inline" fill="#EDEDED" d="M144.6,225.3c-2.4,0.2-4.8,0.3-7.3,0.3c-48.7,0-88.3-39.5-88.3-88.3
		c0-48.7,39.5-88.3,88.3-88.3c2.4,0,4.9,0.1,7.3,0.3"/>
	<g display="inline">
		
			<path fill="#7D4E24" stroke="#7D4E24" stroke-width="3" stroke-linecap="round" stroke-linejoin="round" stroke-miterlimit="10" d="
			M164.3,266.3c71.2,0,129-57.7,129-129c0-71.2-57.7-129-129-129L164.3,266.3L164.3,266.3z"/>
		
			<path fill="#7D4E24" stroke="#7D4E24" stroke-width="3" stroke-linecap="round" stroke-linejoin="round" stroke-miterlimit="10" d="
			M157.4,1.5h6.9c74.9,0,135.8,60.9,135.8,135.8s-60.9,135.8-135.8,135.8h-6.9L157.4,1.5L157.4,1.5z M171.2,259.2
			c64.1-3.6,115.2-56.9,115.2-121.9S235.3,19,171.2,15.4V259.2z"/>
	</g>
	<g display="inline">
		
			<path fill="#7D4E24" stroke="#7D4E24" stroke-width="3" stroke-linecap="round" stroke-linejoin="round" stroke-miterlimit="10" d="
			M164.3,266.3c71.2,0,129-57.7,129-129c0-71.2-57.7-129-129-129L164.3,266.3L164.3,266.3z"/>
		
			<path fill="#683C11" stroke="#683C11" stroke-width="3" stroke-linecap="round" stroke-linejoin="round" stroke-miterlimit="10" d="
			M300.1,137.3c0,74.9-60.9,135.8-135.8,135.8h-6.9V137.5L300.1,137.3z"/>
	</g>
</g>
<g id="Layer_2">
	<g>
		<g>
			
				<circle fill="#7C4D25" stroke="#7C4D25" stroke-width="2.8085" stroke-linecap="round" stroke-linejoin="round" stroke-miterlimit="10" cx="151.8" cy="137.2" r="131.2"/>
			
				<path fill="#673A15" stroke="#673A15" stroke-width="3" stroke-linecap="round" stroke-linejoin="round" stroke-miterlimit="10" d="
				M282.9,137.2c0,72.5-58.7,131.2-131.2,131.2c-72.5,0-131.2-58.7-131.2-131.2H282.9z"/>
		</g>
		<circle fill="#553011" cx="72.4" cy="94" r="9.1"/>
		<circle fill="#553011" cx="97.1" cy="70.7" r="9.1"/>
		<circle fill="#553011" cx="100.2" cy="103" r="9.1"/>
	</g>
</g>
</svg>
