<?xml version="1.0" encoding="utf-8"?>
<!-- Generator: Adobe Illustrator 17.0.0, SVG Export Plug-In . SVG Version: 6.00 Build 0)  -->
<!DOCTYPE svg PUBLIC "-//W3C//DTD SVG 1.1//EN" "http://www.w3.org/Graphics/SVG/1.1/DTD/svg11.dtd">
<svg version="1.1" id="Layer_1" xmlns="http://www.w3.org/2000/svg" xmlns:xlink="http://www.w3.org/1999/xlink" x="0px" y="0px"
	 width="301.613px" height="274.635px" viewBox="0 0 301.613 274.635" enable-background="new 0 0 301.613 274.635"
	 xml:space="preserve">
<g>
	
		<path fill="#7D4E24" stroke="#7D4E24" stroke-width="3" stroke-linecap="round" stroke-linejoin="round" stroke-miterlimit="10" d="
		M137.317,266.275c-71.22,0-128.957-57.737-128.957-128.959c0-71.22,57.737-128.957,128.957-128.957V266.275z"/>
	
		<path fill="#7D4E24" stroke="#7D4E24" stroke-width="3" stroke-linecap="round" stroke-linejoin="round" stroke-miterlimit="10" d="
		M144.176,273.135h-6.859C62.427,273.135,1.5,212.206,1.5,137.317C1.5,62.427,62.427,1.5,137.317,1.5h6.859V273.135z
		 M130.457,15.409C66.309,18.978,15.219,72.293,15.219,137.317c0,65.024,51.091,118.34,115.238,121.909V15.409z"/>
</g>
<circle fill="#FFFFFF" stroke="#FFFFFF" stroke-width="8" stroke-miterlimit="10" cx="137.317" cy="137.317" r="115.696"/>
<path fill="#EDEDED" d="M144.577,225.281c-2.394,0.196-4.815,0.295-7.26,0.295c-48.742,0-88.257-39.515-88.257-88.259
	c0-48.743,39.515-88.257,88.257-88.257c2.445,0,4.866,0.099,7.26,0.295"/>
<g>
	
		<path fill="#7D4E24" stroke="#7D4E24" stroke-width="3" stroke-linecap="round" stroke-linejoin="round" stroke-miterlimit="10" d="
		M164.296,266.275c71.22,0,128.957-57.737,128.957-128.959c0-71.22-57.737-128.957-128.957-128.957V266.275z"/>
	
		<path fill="#7D4E24" stroke="#7D4E24" stroke-width="3" stroke-linecap="round" stroke-linejoin="round" stroke-miterlimit="10" d="
		M157.437,1.5h6.859c74.888,0,135.817,60.927,135.817,135.817c0,74.89-60.928,135.818-135.817,135.818h-6.859V1.5z M171.156,259.226
		c64.146-3.569,115.238-56.885,115.238-121.909c0-65.024-51.092-118.338-115.238-121.907V259.226z"/>
</g>
<g>
	
		<path fill="#7D4E24" stroke="#7D4E24" stroke-width="3" stroke-linecap="round" stroke-linejoin="round" stroke-miterlimit="10" d="
		M164.296,266.275c71.22,0,128.957-57.737,128.957-128.959c0-71.22-57.737-128.957-128.957-128.957V266.275z"/>
	
		<path fill="#683C11" stroke="#683C11" stroke-width="3" stroke-linecap="round" stroke-linejoin="round" stroke-miterlimit="10" d="
		M300.113,137.317c0,74.89-60.928,135.818-135.817,135.818h-6.859V137.468L300.113,137.317z"/>
</g>
</svg>
