<?xml version="1.0" encoding="utf-8"?>
<!-- Generator: Adobe Illustrator 15.0.2, SVG Export Plug-In . SVG Version: 6.00 Build 0)  -->
<!DOCTYPE svg PUBLIC "-//W3C//DTD SVG 1.1//EN" "http://www.w3.org/Graphics/SVG/1.1/DTD/svg11.dtd">
<svg version="1.1" id="Lager_1" xmlns="http://www.w3.org/2000/svg" xmlns:xlink="http://www.w3.org/1999/xlink" x="0px" y="0px"
	 width="700.191px" height="89.375px" viewBox="0 0 700.191 89.375" enable-background="new 0 0 700.191 89.375"
	 xml:space="preserve">
<path fill="#F0F0F0" stroke="#F0F0F0" stroke-width="1.2444" stroke-linecap="round" stroke-linejoin="round" stroke-miterlimit="10" d="
	M59.762,269.597"/>
<g>
	
		<path fill="#B17F4A" stroke="#B17F4A" stroke-width="5" stroke-linecap="round" stroke-linejoin="round" stroke-miterlimit="10" d="
		M397.836,8.773L671.105,2.5c14.682,0,26.586,10.829,26.586,30.361c0,19.528-11.904,30.359-26.586,30.359l-273.27-6.273V8.773z"/>
	
		<path fill="#936037" stroke="#936037" stroke-width="5" stroke-linecap="round" stroke-linejoin="round" stroke-miterlimit="10" d="
		M697.691,32.861c0,19.528-11.904,30.359-26.586,30.359l-273.27-6.273V32.859L697.691,32.861z"/>
	<path fill="#DADADA" d="M400.003,8.704v71.884l-0.126,6.336c-0.026,1.361-1.138,2.45-2.499,2.45l-132.896-0.001
		C116.245,89.375,30.943,48.507,0.543,10.26c-0.597-0.751-0.711-1.778-0.294-2.642S1.541,6.204,2.5,6.204h395.003h2.5V8.704z"/>
	<path fill="#C6C6C6" d="M400.003,30.525v50.063l-0.126,6.336c-0.026,1.361-1.138,2.45-2.499,2.45l-132.896-0.001
		c-122,0.001-201.371-27.681-242.592-58.799L400.003,30.525z"/>
</g>
</svg>
