<?xml version="1.0" encoding="utf-8"?>
<!-- Generator: Adobe Illustrator 15.0.2, SVG Export Plug-In . SVG Version: 6.00 Build 0)  -->
<!DOCTYPE svg PUBLIC "-//W3C//DTD SVG 1.1//EN" "http://www.w3.org/Graphics/SVG/1.1/DTD/svg11.dtd">
<svg version="1.1" xmlns="http://www.w3.org/2000/svg" xmlns:xlink="http://www.w3.org/1999/xlink" x="0px" y="0px"
	 width="777.942px" height="440.571px" viewBox="0 0 777.942 440.571" enable-background="new 0 0 777.942 440.571"
	 xml:space="preserve">
<g id="Lager_2">
	<g id="Lager_1">
		<path fill="#AED8E5" d="M141.653,231.658h-7.294v-4.232H114.96v4.232h-7.295c-0.165,0.386-0.082,0.834,0.208,1.137l10.479,10.915
			c0.007,0.005,0.014,0.011,0.021,0.017v24.288h4.524c-0.262-0.36-0.421-0.8-0.421-1.279v-17.856c0-1.205,0.979-2.184,2.184-2.184
			c1.205,0,2.183,0.979,2.183,2.184v17.856c0,0.479-0.16,0.919-0.421,1.279h4.524v-24.288c0.007-0.006,0.014-0.012,0.021-0.017
			l10.479-10.915C141.737,232.492,141.818,232.044,141.653,231.658z"/>
		
			<path fill="#AED8E5" stroke="#AED8E5" stroke-width="0.0144" stroke-linecap="round" stroke-linejoin="round" stroke-miterlimit="10" d="
			M359.322,262.203c-0.375,0-0.734,0.058-1.072,0.164c-0.105-1.65-1.334-2.991-2.929-3.278c0-0.001,0-0.007,0-0.007
			c-0.231-0.065-0.636-0.055-0.636-0.055c-1.973,0-3.571,1.599-3.571,3.571c0,0.399,0.065,0.782,0.187,1.142
			c-1.963,0.011-3.552,1.605-3.552,3.571c0,1.974,1.599,3.572,3.571,3.572c0.662,0,1.28-0.181,1.812-0.493
			c0.114,0.163,0.244,0.312,0.383,0.455c0.032,0.031,0.062,0.062,0.095,0.094c0.141,0.133,0.289,0.258,0.449,0.366
			c0.025,0.018,0.053,0.032,0.08,0.05c0.146,0.094,0.301,0.177,0.461,0.249c0.003,0.002,0.006,0.005,0.01,0.006h-0.042v7.302h0.755
			h0.754v-6.985c1.625-0.006,2.995-1.095,3.423-2.584c1.892-0.092,3.396-1.654,3.396-3.567
			C362.895,263.802,361.295,262.203,359.322,262.203z"/>
		
			<path fill="#AED8E5" stroke="#AED8E5" stroke-width="0.0144" stroke-linecap="round" stroke-linejoin="round" stroke-miterlimit="10" d="
			M338.889,262.203c-0.374,0-0.733,0.058-1.071,0.164c-0.106-1.65-1.334-2.991-2.929-3.278c0-0.001,0-0.007,0-0.007
			c-0.231-0.065-0.636-0.055-0.636-0.055c-1.972,0-3.571,1.599-3.571,3.571c0,0.399,0.065,0.782,0.186,1.142
			c-1.963,0.011-3.551,1.605-3.551,3.571c0,1.974,1.599,3.572,3.572,3.572c0.661,0,1.28-0.181,1.811-0.493
			c0.113,0.163,0.244,0.312,0.383,0.455c0.031,0.031,0.062,0.062,0.095,0.094c0.141,0.133,0.289,0.258,0.449,0.366
			c0.025,0.018,0.053,0.032,0.079,0.05c0.147,0.094,0.302,0.177,0.461,0.249c0.004,0.002,0.006,0.005,0.01,0.006h-0.041v7.302h0.754
			h0.755v-6.985c1.625-0.006,2.995-1.095,3.423-2.584c1.892-0.092,3.396-1.654,3.396-3.567
			C342.462,263.802,340.862,262.203,338.889,262.203z"/>
		
			<path fill="#AED8E5" stroke="#AED8E5" stroke-width="0.0144" stroke-linecap="round" stroke-linejoin="round" stroke-miterlimit="10" d="
			M379.756,262.203c-0.375,0-0.734,0.058-1.072,0.164c-0.107-1.65-1.334-2.991-2.929-3.278c0-0.001,0-0.007,0-0.007
			c-0.231-0.065-0.637-0.055-0.637-0.055c-1.972,0-3.571,1.599-3.571,3.571c0,0.399,0.066,0.782,0.188,1.142
			c-1.964,0.011-3.552,1.605-3.552,3.571c0,1.974,1.599,3.572,3.571,3.572c0.662,0,1.281-0.181,1.812-0.493
			c0.114,0.163,0.244,0.312,0.383,0.455c0.031,0.031,0.062,0.062,0.095,0.094c0.141,0.133,0.289,0.258,0.448,0.366
			c0.026,0.018,0.054,0.032,0.081,0.05c0.146,0.094,0.301,0.177,0.46,0.249c0.004,0.002,0.007,0.005,0.011,0.006h-0.042v7.302h0.755
			h0.754v-6.985c1.625-0.006,2.995-1.095,3.424-2.584c1.891-0.092,3.395-1.654,3.395-3.567
			C383.328,263.802,381.729,262.203,379.756,262.203z"/>
		
			<path fill="#AED8E5" stroke="#AED8E5" stroke-width="0.0144" stroke-linecap="round" stroke-linejoin="round" stroke-miterlimit="10" d="
			M400.189,262.203c-0.375,0-0.734,0.058-1.073,0.164c-0.105-1.65-1.333-2.991-2.928-3.278c0-0.001,0-0.007,0-0.007
			c-0.231-0.065-0.637-0.055-0.637-0.055c-1.972,0-3.571,1.599-3.571,3.571c0,0.399,0.066,0.782,0.188,1.142
			c-1.964,0.011-3.553,1.605-3.553,3.571c0,1.974,1.6,3.572,3.572,3.572c0.662,0,1.281-0.181,1.812-0.493
			c0.114,0.163,0.244,0.312,0.383,0.455c0.031,0.031,0.062,0.062,0.095,0.094c0.141,0.133,0.288,0.258,0.448,0.366
			c0.026,0.018,0.054,0.032,0.081,0.05c0.146,0.094,0.301,0.177,0.46,0.249c0.004,0.002,0.007,0.005,0.011,0.006h-0.042v7.302h0.755
			h0.754v-6.985c1.625-0.006,2.995-1.095,3.424-2.584c1.891-0.092,3.395-1.654,3.395-3.567
			C403.762,263.802,402.162,262.203,400.189,262.203z"/>
		
			<path fill="#AED8E5" stroke="#AED8E5" stroke-width="0.3346" stroke-linecap="round" stroke-linejoin="round" stroke-miterlimit="10" d="
			M441.48,262.532l-15.646-11.011c-0.261-0.184-0.609-0.184-0.869,0.003l-6.099,4.338v-1.585h-3.741v4.247l-5.636,4.01
			c-0.34,0.241-0.419,0.712-0.177,1.051c0.241,0.339,0.71,0.418,1.049,0.176l0.286-0.202v15.234h29.508v-15.352l0.458,0.323
			c0.133,0.092,0.283,0.136,0.433,0.136c0.237,0,0.47-0.11,0.617-0.319C441.902,263.241,441.82,262.771,441.48,262.532z"/>
		
			<path fill="#786854" stroke="#786854" stroke-width="1.1357" stroke-linecap="round" stroke-linejoin="round" stroke-miterlimit="10" d="
			M691.698,277.997"/>
		<g>
			<g>
				<g>
					<path fill="#53AF6E" d="M656.341,308.846v-3.02c0.146-2.437,0.177-2.538,4.067-3.206c9.953-1.701,8.498-15.209,8.498-15.209
						s-9.857-0.024-12.879,6.328c0,0-1.308,3.115-1.308,9.961v5.146H656.341z"/>
				</g>
			</g>
		</g>
		<g>
			<g>
				<g>
					<path fill="#45A260" d="M680.612,315.686v-3.555c0.064-1.058,0.077-1.102,1.768-1.393c4.321-0.737,3.689-6.604,3.689-6.604
						s-4.28-0.011-5.592,2.748c0,0-0.568,1.353-0.568,4.326v4.477H680.612z"/>
				</g>
			</g>
			<g>
				<g>
					<path fill="#53AF6E" d="M678.573,315.686v-1.312c-0.064-1.059-0.078-1.104-1.768-1.392c-4.32-0.74-3.688-6.604-3.688-6.604
						s4.279-0.012,5.591,2.747c0,0,0.568,1.353,0.568,4.325v2.235H678.573z"/>
				</g>
			</g>
		</g>
		<g>
			<g>
				<g>
					<path fill="#4B4135" d="M709.009,295.867v-3.919c-0.07-1.168-0.084-1.217-1.949-1.535c-4.764-0.815-4.067-7.281-4.067-7.281
						s4.719-0.012,6.166,3.03c0,0,0.625,1.49,0.625,4.769v4.937H709.009z"/>
				</g>
			</g>
			<g>
				<g>
					<path fill="#4B4135" d="M711.256,295.867v-1.446c0.072-1.166,0.087-1.217,1.949-1.534c4.763-0.816,4.068-7.281,4.068-7.281
						s-4.72-0.013-6.166,3.028c0,0-0.626,1.492-0.626,4.77v2.464H711.256z"/>
				</g>
			</g>
		</g>
		<g>
			<g>
				<g>
					<path fill="#45A260" d="M623.569,304.681v-3.554c0.063-1.059,0.077-1.104,1.768-1.394c4.32-0.738,3.689-6.604,3.689-6.604
						s-4.28-0.011-5.593,2.748c0,0-0.567,1.353-0.567,4.327v4.477H623.569z"/>
				</g>
			</g>
			<g>
				<g>
					<path fill="#53AF6E" d="M621.53,304.681v-1.312c-0.064-1.059-0.077-1.104-1.767-1.393c-4.322-0.739-3.689-6.604-3.689-6.604
						s4.279-0.012,5.592,2.747c0,0,0.566,1.354,0.566,4.326v2.234H621.53z"/>
				</g>
			</g>
		</g>
		
			<path id="Gr채s_3_" fill="#3B8452" stroke="#44935C" stroke-width="0.4188" stroke-linecap="round" stroke-linejoin="round" stroke-miterlimit="10" d="
			M-258.104,363.541"/>
		<g id="Tr채d">
			<rect x="199.527" y="285.369" fill="#AF7F48" width="3.308" height="16.004"/>
			<rect x="201.181" y="285.369" fill="#905E35" width="1.655" height="16.004"/>
			
				<path fill="#53AF6F" stroke="#53AF6F" stroke-width="0.0316" stroke-linecap="round" stroke-linejoin="round" stroke-miterlimit="10" d="
				M184.583,272.578c0-4.323,3.504-7.83,7.83-7.83c0.819,0,1.608,0.126,2.351,0.359c0.262-4.087,3.66-7.321,7.812-7.321
				c4.326,0,7.83,3.506,7.83,7.83c0,0.874-0.146,1.716-0.41,2.502c4.304,0.024,7.786,3.52,7.786,7.828
				c0,4.326-3.505,7.831-7.831,7.831c-1.448,0-2.806-0.396-3.969-1.082c-1.415,2.034-3.767,3.367-6.432,3.367
				c-3.572,0-6.585-2.394-7.524-5.663C187.88,280.196,184.583,276.772,184.583,272.578z"/>
			
				<path fill="#45A260" stroke="#45A260" stroke-width="0.0316" stroke-linecap="round" stroke-linejoin="round" stroke-miterlimit="10" d="
				M202.575,257.786c4.326,0,7.83,3.506,7.83,7.83c0,0.874-0.146,1.716-0.41,2.502c4.304,0.024,7.786,3.52,7.786,7.828
				c0,4.326-3.505,7.831-7.831,7.831c-1.448,0-2.806-0.396-3.969-1.082c-1.117,1.607-2.82,2.776-4.799,3.196c0,0,0-27.815,0-27.982
				C201.688,257.763,202.575,257.786,202.575,257.786z"/>
		</g>
		<g id="Tr채d_2_">
			<rect x="241.514" y="296.765" fill="#AF7F48" width="3.765" height="18.22"/>
			<rect x="243.395" y="296.765" fill="#905E35" width="1.883" height="18.22"/>
			
				<path fill="#53AF6F" stroke="#53AF6F" stroke-width="0.036" stroke-linecap="round" stroke-linejoin="round" stroke-miterlimit="10" d="
				M224.499,282.203c0-4.923,3.99-8.914,8.914-8.914c0.933,0,1.832,0.143,2.676,0.409c0.298-4.653,4.165-8.336,8.894-8.336
				c4.924,0,8.914,3.991,8.914,8.914c0,0.997-0.166,1.954-0.468,2.85c4.9,0.027,8.865,4.007,8.865,8.912
				c0,4.924-3.992,8.914-8.916,8.914c-1.648,0-3.194-0.449-4.519-1.23c-1.61,2.315-4.289,3.832-7.323,3.832
				c-4.067,0-7.496-2.725-8.566-6.446C228.253,290.876,224.499,286.978,224.499,282.203z"/>
			
				<path fill="#45A260" stroke="#45A260" stroke-width="0.036" stroke-linecap="round" stroke-linejoin="round" stroke-miterlimit="10" d="
				M244.982,265.362c4.924,0,8.914,3.991,8.914,8.914c0,0.997-0.166,1.954-0.468,2.85c4.9,0.027,8.865,4.007,8.865,8.912
				c0,4.924-3.992,8.914-8.916,8.914c-1.648,0-3.194-0.449-4.519-1.23c-1.272,1.829-3.211,3.159-5.463,3.639c0,0,0-31.666,0-31.856
				C243.973,265.337,244.982,265.362,244.982,265.362z"/>
		</g>
		<g id="Tr채d_8_">
			<rect x="151.873" y="254.835" fill="#AF7F48" width="2.244" height="10.854"/>
			<rect x="152.994" y="254.835" fill="#905E35" width="1.123" height="10.854"/>
			
				<path fill="#53AF6F" stroke="#53AF6F" stroke-width="0.0215" stroke-linecap="round" stroke-linejoin="round" stroke-miterlimit="10" d="
				M141.737,246.16c0-2.933,2.377-5.311,5.311-5.311c0.556,0,1.091,0.086,1.594,0.243c0.178-2.772,2.482-4.965,5.299-4.965
				c2.933,0,5.311,2.377,5.311,5.311c0,0.593-0.099,1.163-0.279,1.696c2.919,0.017,5.281,2.388,5.281,5.311
				c0,2.934-2.377,5.31-5.31,5.31c-0.983,0-1.904-0.267-2.693-0.733c-0.959,1.381-2.555,2.283-4.362,2.283
				c-2.423,0-4.465-1.623-5.103-3.84C143.974,251.327,141.737,249.005,141.737,246.16z"/>
			
				<path fill="#45A260" stroke="#45A260" stroke-width="0.0215" stroke-linecap="round" stroke-linejoin="round" stroke-miterlimit="10" d="
				M153.94,236.128c2.933,0,5.311,2.377,5.311,5.311c0,0.593-0.099,1.163-0.279,1.696c2.919,0.017,5.281,2.388,5.281,5.311
				c0,2.934-2.377,5.31-5.31,5.31c-0.983,0-1.904-0.267-2.693-0.733c-0.757,1.091-1.913,1.884-3.255,2.168c0,0,0-18.864,0-18.979
				C153.339,236.112,153.94,236.128,153.94,236.128z"/>
		</g>
		<g>
			<g>
				<rect x="216.347" y="232.959" fill="#8E5E35" width="4.07" height="17.908"/>
				<rect x="218.381" y="232.959" fill="#7F4D28" width="2.036" height="17.908"/>
			</g>
			<g>
				<polygon fill="#54AF6C" stroke="#54AF6C" stroke-width="0.0831" stroke-miterlimit="10" points="209.854,229.24 226.715,229.24 
					218.285,217.284 				"/>
				
					<polygon fill="#45A260" stroke="#45A260" stroke-width="0.0936" stroke-linecap="round" stroke-linejoin="round" stroke-miterlimit="10" points="
					226.715,229.24 218.285,217.284 218.285,229.24 				"/>
			</g>
			<g>
				<polygon fill="#54AF6C" stroke="#54AF6C" stroke-width="0.1027" stroke-miterlimit="10" points="207.898,234.759 
					228.671,234.759 218.284,219.944 				"/>
				
					<polygon fill="#45A260" stroke="#45A260" stroke-width="0.1157" stroke-linecap="round" stroke-linejoin="round" stroke-miterlimit="10" points="
					228.671,234.759 218.284,219.944 218.284,234.759 				"/>
			</g>
			<g>
				<polygon fill="#54AF6C" stroke="#54AF6C" stroke-width="0.1196" stroke-miterlimit="10" points="206.036,240.18 230.534,240.18 
					218.285,223.115 				"/>
				
					<polygon fill="#45A260" stroke="#45A260" stroke-width="0.1348" stroke-linecap="round" stroke-linejoin="round" stroke-miterlimit="10" points="
					230.534,240.18 218.285,223.115 218.285,240.18 				"/>
			</g>
			<g>
				<polygon fill="#54AF6C" stroke="#54AF6C" stroke-width="0.1321" stroke-miterlimit="10" points="204.76,245.351 231.81,245.351 
					218.285,226.506 				"/>
				
					<polygon fill="#45A260" stroke="#45A260" stroke-width="0.1489" stroke-linecap="round" stroke-linejoin="round" stroke-miterlimit="10" points="
					231.81,245.351 218.285,226.506 218.285,245.351 				"/>
			</g>
			<g>
				<polygon fill="#54AF6C" stroke="#54AF6C" stroke-width="0.0654" stroke-miterlimit="10" points="211.75,224.159 224.82,224.159 
					218.284,214.601 				"/>
				
					<polygon fill="#45A260" stroke="#45A260" stroke-width="0.0737" stroke-linecap="round" stroke-linejoin="round" stroke-miterlimit="10" points="
					224.82,224.159 218.284,214.601 218.284,224.159 				"/>
			</g>
		</g>
		<g>
			<g>
				<rect x="183.398" y="242.403" fill="#8E5E35" width="2.997" height="13.188"/>
				<rect x="184.896" y="242.403" fill="#7F4D28" width="1.499" height="13.188"/>
			</g>
			<g>
				<polygon fill="#54AF6C" stroke="#54AF6C" stroke-width="0.0612" stroke-miterlimit="10" points="178.617,239.665 
					191.034,239.665 184.826,230.86 				"/>
				
					<polygon fill="#45A260" stroke="#45A260" stroke-width="0.0689" stroke-linecap="round" stroke-linejoin="round" stroke-miterlimit="10" points="
					191.034,239.665 184.826,230.86 184.826,239.665 				"/>
			</g>
			<g>
				<polygon fill="#54AF6C" stroke="#54AF6C" stroke-width="0.0756" stroke-miterlimit="10" points="177.176,243.728 
					192.475,243.728 184.825,232.818 				"/>
				
					<polygon fill="#45A260" stroke="#45A260" stroke-width="0.0852" stroke-linecap="round" stroke-linejoin="round" stroke-miterlimit="10" points="
					192.475,243.728 184.825,232.818 184.825,243.728 				"/>
			</g>
			<g>
				<polygon fill="#54AF6C" stroke="#54AF6C" stroke-width="0.0881" stroke-miterlimit="10" points="175.806,247.721 
					193.846,247.721 184.826,235.154 				"/>
				
					<polygon fill="#45A260" stroke="#45A260" stroke-width="0.0993" stroke-linecap="round" stroke-linejoin="round" stroke-miterlimit="10" points="
					193.846,247.721 184.826,235.154 184.826,247.721 				"/>
			</g>
			<g>
				<polygon fill="#54AF6C" stroke="#54AF6C" stroke-width="0.0973" stroke-miterlimit="10" points="174.865,251.527 
					194.786,251.527 184.826,237.65 				"/>
				
					<polygon fill="#45A260" stroke="#45A260" stroke-width="0.1096" stroke-linecap="round" stroke-linejoin="round" stroke-miterlimit="10" points="
					194.786,251.527 184.826,237.65 184.826,251.527 				"/>
			</g>
			<g>
				<polygon fill="#54AF6C" stroke="#54AF6C" stroke-width="0.0482" stroke-miterlimit="10" points="180.012,235.921 
					189.639,235.921 184.825,228.883 				"/>
				
					<polygon fill="#45A260" stroke="#45A260" stroke-width="0.0543" stroke-linecap="round" stroke-linejoin="round" stroke-miterlimit="10" points="
					189.639,235.921 184.825,228.883 184.825,235.921 				"/>
			</g>
		</g>
	</g>
</g>
<g id="Lager_3">
	<path fill="#635646" stroke="#635646" stroke-width="13" stroke-miterlimit="10" d="M694.438,260.021
		c-6.981-13.854-19.745-24.223-35.026-28.048c1.742-4.354,2.649-9.119,2.483-14.106c-0.536-16.221-12.071-29.448-27.196-32.861
		c-2.938-16.874-17.894-29.452-35.502-28.871c-0.911,0.03-1.801,0.127-2.692,0.225c-5.06-11.053-15.708-18.915-28.218-20.172
		c-5.372-10.43-15.805-17.745-27.955-18.806c0.369-2.835,0.523-5.733,0.427-8.683c-0.972-29.352-25.552-52.357-54.905-51.388
		c-6.523,0.216-12.732,1.604-18.436,3.947c0.845-27.467-19.565-51.395-47.346-54.438c-20.093-2.201-38.794,7.096-49.543,22.624
		c-3.986-0.809-8.126-1.185-12.369-1.044c-24.729,0.818-44.953,18.397-50.129,41.469c-7.775-3.989-16.64-6.125-25.995-5.814
		c-25.509,0.843-46.216,19.524-50.566,43.67c-18.676,1.266-33.128,17.113-32.505,35.969c0.004,0.125,0.025,0.244,0.029,0.366
		c-6.108-4.53-13.719-7.125-21.913-6.854c-19.269,0.637-34.372,16.772-33.734,36.042c0.163,4.936,1.354,9.589,3.343,13.781
		c-2.708-0.327-5.475-0.452-8.285-0.358c-29.745,0.984-53.062,25.895-52.078,55.641c0.082,2.492,0.349,4.936,0.754,7.328
		c-2.167-0.112-4.351-0.155-6.562-0.082c-42.254,1.398-75.376,36.787-73.979,79.041c1.398,42.253,36.787,75.375,79.041,73.978
		c13.152-0.435,25.417-4.166,36.034-10.369c14.382,20.232,38.299,33.106,64.965,32.225c21.013-0.695,39.764-9.802,53.137-23.973
		c12.795,8.478,28.243,13.217,44.75,12.672c19.544-0.646,37.121-8.576,50.242-21.085c14.25,13.083,33.43,20.818,54.29,20.129
		c13.153-0.437,25.418-4.168,36.036-10.37c14.38,20.231,38.299,33.105,64.964,32.224c21.013-0.695,39.763-9.802,53.138-23.973
		c12.795,8.478,28.242,13.217,44.749,12.671c23.081-0.764,43.418-11.681,56.912-28.305c14.062,12.176,32.562,19.3,52.62,18.636
		c42.254-1.397,75.376-36.786,73.979-79.041C770.025,292.458,735.765,259.76,694.438,260.021z"/>
	<circle opacity="0.8" fill="#7C4D25" cx="101.706" cy="243.542" r="4.658"/>
	<circle opacity="0.8" fill="#7C4D25" cx="145.624" cy="235.048" r="4.658"/>
	<circle opacity="0.8" fill="#C89D64" cx="168.593" cy="258.494" r="8.033"/>
	<circle opacity="0.8" fill="#E6511E" cx="145.624" cy="235.048" r="8.033"/>
	<circle opacity="0.8" fill="#E6511E" cx="472.973" cy="159.06" r="4.659"/>
	<circle opacity="0.8" fill="#C89D64" cx="473.356" cy="126.816" r="4.658"/>
	<circle opacity="0.8" fill="#C89D64" cx="476.76" cy="273.524" r="4.658"/>
	<circle opacity="0.8" fill="#E6511E" cx="250.719" cy="328.921" r="4.658"/>
	<circle opacity="0.8" fill="#C89D64" cx="279.954" cy="342.531" r="4.658"/>
	<circle opacity="0.8" fill="#7C4D25" cx="283.891" cy="265.929" r="4.658"/>
	<circle opacity="0.8" fill="#C89D64" cx="340.057" cy="338.087" r="8.033"/>
	<circle opacity="0.8" fill="#E6511E" cx="252.551" cy="363.74" r="8.033"/>
	<circle opacity="0.8" fill="#E6511E" cx="260.389" cy="157.391" r="4.658"/>
	<circle opacity="0.8" fill="#C89D64" cx="243.761" cy="185.021" r="4.658"/>
	<circle opacity="0.8" fill="#7C4D25" cx="592.62" cy="381.516" r="4.658"/>
	<circle opacity="0.8" fill="#C89D64" cx="241.813" cy="245.256" r="8.033"/>
	<circle opacity="0.8" fill="#E6511E" cx="225.573" cy="155.526" r="8.033"/>
	<g>
		<circle opacity="0.8" fill="#E6511E" cx="517.089" cy="233.892" r="6.813"/>
		<circle opacity="0.8" fill="#C89D64" cx="546.754" cy="195.708" r="3.95"/>
		<circle opacity="0.8" fill="#7C4D25" cx="517.7" cy="272.026" r="3.951"/>
		<circle opacity="0.8" fill="#7C4D25" cx="543.351" cy="376.654" r="3.951"/>
		<circle opacity="0.8" fill="#C89D64" cx="586.915" cy="209.014" r="6.814"/>
		<circle opacity="0.8" fill="#C89D64" cx="529.557" cy="343.58" r="6.814"/>
	</g>
	<g>
		<circle opacity="0.8" fill="#E6511E" cx="430.357" cy="165.131" r="6.812"/>
		<circle opacity="0.8" fill="#C89D64" cx="388.673" cy="240.287" r="3.952"/>
		<circle opacity="0.8" fill="#7C4D25" cx="441.602" cy="197.552" r="3.951"/>
		<circle opacity="0.8" fill="#7C4D25" cx="367.856" cy="167.544" r="3.952"/>
		<circle opacity="0.8" fill="#7C4D25" cx="353.249" cy="55.294" r="3.951"/>
		<circle opacity="0.8" fill="#C89D64" cx="346.366" cy="240.241" r="6.815"/>
		<circle opacity="0.8" fill="#C89D64" cx="338.086" cy="140.52" r="6.813"/>
	</g>
	<g>
		<g>
			
				<path fill="none" stroke="#F5F5F6" stroke-width="2.2084" stroke-linecap="round" stroke-linejoin="round" stroke-miterlimit="10" d="
				M430.424,313.186c0,0,0.241,21.627,12.671,39.327"/>
		</g>
		<g>
			
				<path fill="none" stroke="#F5F5F6" stroke-width="2.2084" stroke-linecap="round" stroke-linejoin="round" stroke-miterlimit="10" d="
				M446.782,312.348c0,0-0.337,17.443,8.513,32.482"/>
		</g>
		<g>
			
				<path fill="none" stroke="#F5F5F6" stroke-width="2.2084" stroke-linecap="round" stroke-linejoin="round" stroke-miterlimit="10" d="
				M462.992,314.849c0,0-0.758,12.818,5.311,24.136"/>
		</g>
		<g>
			
				<path fill="none" stroke="#F5F5F6" stroke-width="2.2084" stroke-linecap="round" stroke-linejoin="round" stroke-miterlimit="10" d="
				M415.331,350.295c9.073-13.876,31.12-24.139,57.19-25.002"/>
		</g>
		<g>
			
				<path fill="#D8D9DA" stroke="#D8D9DA" stroke-width="2.2084" stroke-linecap="round" stroke-linejoin="round" stroke-miterlimit="10" d="
				M416.301,311.212c0,0-27.095,14.077-25.361,41.907c17.43,21.769,46.953,13.969,46.953,13.969
				C418.58,342.44,416.301,311.212,416.301,311.212z"/>
		</g>
		<g>
			
				<path fill="#D8D9DA" stroke="#D8D9DA" stroke-width="2.2084" stroke-linecap="round" stroke-linejoin="round" stroke-miterlimit="10" d="
				M471.288,325.43c26.084,0.218,26.195-21.166,26.195-21.166S476.555,299.885,471.288,325.43z"/>
		</g>
		<g>
			<g>
				<path fill="#B0B2B3" d="M471.307,325.694c25.812-3.754,28.824,17.417,28.824,17.417S479.988,350.289,471.307,325.694z"/>
				<path fill="#B0B2B3" d="M470.16,325.635c0.004-0.116-0.08-0.7,0.21-0.84c0.293-0.144,0.777-0.193,0.777-0.193
					c8.807-1.282,16.011,0.122,21.418,4.167c7.349,5.502,8.61,13.836,8.66,14.188c0.073,0.52-0.229,1.02-0.724,1.197
					c-0.018,0.005-0.452,0.161-1.199,0.346c-4.859,1.204-21.314,3.444-29.038-18.439C470.265,326.06,470.154,325.75,470.16,325.635z
					 M472.823,326.61c7.274,18.754,21.64,16.815,25.946,15.743c0.03-0.006,0.058-0.015,0.086-0.02
					C497.96,338.455,493.268,324.268,472.823,326.61z"/>
			</g>
		</g>
		<g>
			<g>
				<path fill="#B0B2B3" d="M423.621,341.417c3.203,8.343,7.771,17.378,14.271,25.671c0,0-28.876,7.631-46.374-13.262
					L423.621,341.417z"/>
				<path fill="#B0B2B3" d="M424.653,341.02c3.686,9.604,8.434,18.146,14.105,25.388c0.229,0.293,0.298,0.681,0.179,1.034
					c-0.118,0.352-0.404,0.62-0.766,0.714c-0.177,0.048-4.438,1.156-10.707,1.364c-10.764,0.356-25.881-1.954-36.794-14.984
					c0,0-0.607-0.77-0.683-0.842c-0.078-0.072-0.116-0.37-0.116-0.37l1.248-0.526l33.185-12.81L424.653,341.02z M393.385,354.289
					c10.252,11.315,24.068,13.352,34.007,13.022c3.762-0.124,6.806-0.595,8.562-0.932c-5.138-6.842-9.491-14.749-12.963-23.537
					L393.385,354.289z"/>
			</g>
		</g>
		
			<path fill="#FFFFFF" stroke="#FFFFFF" stroke-width="2.1821" stroke-linecap="round" stroke-linejoin="round" stroke-miterlimit="10" d="
			M411.368,336.378c0.099,2.966-2.228,5.452-5.192,5.549c-2.968,0.099-5.454-2.228-5.551-5.192
			c-0.098-2.966,2.229-5.451,5.196-5.549C408.785,331.088,411.271,333.413,411.368,336.378z"/>
		<circle fill="#1A171B" cx="405.996" cy="336.557" r="2.837"/>
	</g>
	<g>
		<g>
			<g>
				<path fill="#E2E481" d="M396.849,92.544c-2.017-5.315-0.111-13.232,5.313-19.933c5.403-6.671,12.71-10.185,18.326-9.354
					l-13.897-11.248l-13.892-11.247c1.979,5.317,0.063,13.195-5.336,19.865c-5.424,6.701-12.771,10.215-18.392,9.346L396.849,92.544
					z"/>
			</g>
		</g>
		<g>
			<g>
				<path fill="#409C2B" d="M412.798,44.898"/>
			</g>
		</g>
		<g>
			<g>
				<path fill="#CBDA81" d="M383.089,81.038l13.939,11.286c-2.02-5.317-0.291-13.013,5.134-19.713
					c5.403-6.671,12.581-10.026,18.196-9.197l-13.892-11.25l-22.982,28.389L383.089,81.038z"/>
			</g>
		</g>
		<g>
			<g>
				<path fill="#41281B" stroke="#41281B" stroke-width="0.441" stroke-miterlimit="10" d="M413.232,45.033
					c3.073-3.795,8.505-4.504,12.362-1.385l-1.608,1.991c-2.92-2.363-7.277-2.518-9.589,0.339L413.232,45.033z"/>
			</g>
		</g>
		<g>
			<g>
				<g>
					<g>
						<path fill="#00632E" d="M411.11,43.247c2.933-1.13,4.323-2.587,4.323-2.587c7.754-7.612-1.822-18.666-1.822-18.666
							s-11.881,8.527-6.105,17.733C407.506,39.728,408.519,41.467,411.11,43.247z"/>
					</g>
				</g>
			</g>
			<g>
				<g>
					<g>
						<path fill="#007B38" d="M413.611,21.994c0,0-11.881,8.527-6.105,17.733c0,0,1.013,1.739,3.604,3.52"/>
					</g>
				</g>
			</g>
		</g>
		<g>
			<g>
				<g>
					
						<ellipse transform="matrix(0.7769 0.6296 -0.6296 0.7769 128.1367 -232.6085)" fill="#41281B" stroke="#41281B" stroke-width="0.441" stroke-miterlimit="10" cx="392.306" cy="64.512" rx="0.918" ry="2.094"/>
				</g>
			</g>
			<g>
				<g>
					<path fill="#41281B" stroke="#41281B" stroke-width="0.441" stroke-miterlimit="10" d="M398.333,69.392
						c-0.729,0.896-1.64,1.364-2.033,1.048c-0.395-0.319-0.121-1.307,0.606-2.206c0.728-0.901,1.635-1.37,2.031-1.049
						C399.332,67.503,399.061,68.49,398.333,69.392z"/>
				</g>
			</g>
		</g>
		<g>
			<g>
				
					<path fill="#40A52B" stroke="#40A52B" stroke-width="0.3762" stroke-linecap="round" stroke-linejoin="round" stroke-miterlimit="10" d="
					M420.743,63.467c2.299-2.836,1.977-7.789-1.254-10.403c-0.876-0.71-1.842-1.212-2.833-1.511l-1.96-0.683
					c-3.221-1.234-4.828-2.537-4.828-2.537l-0.023-0.017c0,0-1.607-1.3-3.483-4.196l-1.074-1.772c-0.5-0.908-1.194-1.749-2.068-2.46
					c-3.23-2.611-8.141-1.899-10.437,0.938L420.743,63.467z"/>
			</g>
		</g>
		<g>
			<g>
				
					<path fill="#40A52B" stroke="#40A52B" stroke-width="0.3758" stroke-linecap="round" stroke-linejoin="round" stroke-miterlimit="10" d="
					M397.028,92.691c-2.294,2.833-8.633,5.318-11.855,2.708c0,0-1.513-1.254-3.356-3.961c-1.581-2.327-3.565-3.905-3.656-3.976
					l-0.149-0.122c-0.089-0.073-2.042-1.685-4.649-2.747c-3.031-1.241-4.573-2.459-4.573-2.459
					c-3.225-2.61-2.112-9.327,0.184-12.162L397.028,92.691z"/>
			</g>
		</g>
	</g>
	<g>
		<g>
			<g>
				<path fill="#E2E481" d="M119.909,320.025c-5.558,1.196-13.099-1.875-18.91-8.243c-5.785-6.342-8.164-14.093-6.501-19.521
					l-13.205,12.054L68.09,316.362c5.554-1.158,13.056,1.916,18.841,8.255c5.812,6.367,8.184,14.158,6.482,19.585L119.909,320.025z"
					/>
			</g>
		</g>
		<g>
			<g>
				<path fill="#409C2B" d="M75.194,297.111"/>
			</g>
		</g>
		<g>
			<g>
				<path fill="#CBDA81" d="M106.47,331.904l13.249-12.09c-5.56,1.199-12.909-1.664-18.72-8.032
					c-5.785-6.342-8.026-13.942-6.365-19.369l-13.206,12.048l24.622,26.979L106.47,331.904z"/>
			</g>
		</g>
		<g>
			<g>
				<path fill="#41281B" stroke="#41281B" stroke-width="0.441" stroke-miterlimit="10" d="M75.393,296.702
					c-3.291-3.607-3.178-9.084,0.485-12.431l1.728,1.89c-2.774,2.532-3.581,6.817-1.103,9.531L75.393,296.702z"/>
			</g>
		</g>
		<g>
			<g>
				<g>
					<g>
						<path fill="#00632E" d="M73.309,298.532c-0.677-3.068-1.91-4.662-1.91-4.662c-6.363-8.808-18.728-0.997-18.728-0.997
							s6.649,13.025,16.617,8.695C69.288,301.568,71.16,300.828,73.309,298.532z"/>
					</g>
				</g>
			</g>
			<g>
				<g>
					<g>
						<path fill="#007B38" d="M52.671,292.873c0,0,6.649,13.025,16.617,8.695c0,0,1.872-0.74,4.021-3.036"/>
					</g>
				</g>
			</g>
		</g>
		<g>
			<g>
				<g>
					
						<ellipse transform="matrix(0.7389 -0.6738 0.6738 0.7389 -191.9303 145.2845)" fill="#41281B" stroke="#41281B" stroke-width="0.441" stroke-miterlimit="10" cx="91.513" cy="320.313" rx="0.918" ry="2.094"/>
				</g>
			</g>
			<g>
				<g>
					<path fill="#41281B" stroke="#41281B" stroke-width="0.441" stroke-miterlimit="10" d="M97.242,315.086
						c0.777,0.854,1.103,1.825,0.731,2.167c-0.375,0.343-1.31-0.076-2.09-0.931c-0.782-0.854-1.109-1.821-0.732-2.165
						C95.524,313.814,96.459,314.231,97.242,315.086z"/>
				</g>
			</g>
		</g>
		<g>
			<g>
				
					<path fill="#40A52B" stroke="#40A52B" stroke-width="0.3762" stroke-linecap="round" stroke-linejoin="round" stroke-miterlimit="10" d="
					M94.744,292.04c-2.459-2.697-7.405-3.122-10.474-0.319c-0.833,0.759-1.475,1.639-1.918,2.574l-0.969,1.835
					c-1.703,2.999-3.232,4.394-3.232,4.394l-0.02,0.021c0,0-1.526,1.395-4.671,2.814l-1.914,0.797
					c-0.973,0.357-1.908,0.918-2.742,1.676c-3.066,2.803-3.099,7.764-0.637,10.459L94.744,292.04z"/>
			</g>
		</g>
		<g>
			<g>
				
					<path fill="#40A52B" stroke="#40A52B" stroke-width="0.3758" stroke-linecap="round" stroke-linejoin="round" stroke-miterlimit="10" d="
					M120.082,319.869c2.457,2.693,3.964,9.333,0.9,12.128c0,0-1.467,1.308-4.419,2.725c-2.538,1.214-4.396,2.939-4.479,3.019
					l-0.143,0.129c-0.086,0.077-1.972,1.767-3.413,4.186c-1.682,2.811-3.117,4.152-3.117,4.152
					c-3.064,2.797-9.538,0.69-11.997-2.005L120.082,319.869z"/>
			</g>
		</g>
	</g>
	<g>
		<g>
			<g>
				
					<path fill="#FFD600" stroke="#FFD600" stroke-width="0.4985" stroke-linecap="round" stroke-linejoin="round" stroke-miterlimit="10" d="
					M287.847,194.214c15.012,1.724,28.575,11.54,34.358,26.626c6.899,17.994,0.875,40.562-19.441,52.667l-3.897-2.754
					c10.597-13.806,10.767-30.417,5.86-43.214c-3.495-9.119-9.833-16.312-17.613-20.956c-0.287-0.173-0.51-0.861-0.801-1.025
					L287.847,194.214z"/>
			</g>
			<g>
				
					<path fill="#786854" stroke="#786854" stroke-width="0.4985" stroke-linecap="round" stroke-linejoin="round" stroke-miterlimit="10" d="
					M287.848,194.211c15.008,1.73,28.563,11.543,34.348,26.624c7.259,18.935,0.266,41.062-19.441,52.666l-1.762-1.24
					c12.714-10.922,17.979-32.671,12.121-47.946c-4.684-12.218-14.464-20.975-25.988-24.778L287.848,194.211z"/>
			</g>
		</g>
		<g>
			<g>
				
					<path fill="#FBC100" stroke="#FBC100" stroke-width="0.6455" stroke-linecap="round" stroke-linejoin="round" stroke-miterlimit="10" d="
					M344.707,182.207"/>
			</g>
			<g>
				<g>
					
						<polygon fill="#604C3F" stroke="#604C3F" stroke-width="0.6131" stroke-linecap="round" stroke-linejoin="round" stroke-miterlimit="10" points="
						274.708,176.905 268.086,183.637 265.172,178.961 269.981,174.067 					"/>
				</g>
				<g>
					
						<polygon fill="#786854" stroke="#786854" stroke-width="0.6131" stroke-linecap="round" stroke-linejoin="round" stroke-miterlimit="10" points="
						274.708,176.905 269.981,174.067 265.172,178.961 					"/>
				</g>
			</g>
			<g>
				
					<path fill="#FFD600" stroke="#FFD600" stroke-width="0.6455" stroke-linecap="round" stroke-linejoin="round" stroke-miterlimit="10" d="
					M367.617,155.694c-7.929,21.095-26.071,32.647-43.495,36.007c-17.425,3.363-34.508-2.02-46.715-13.087l-7.568,7.71
					c10.548,21.335,34.376,33.901,58.873,29.174c24.501-4.727,45.189-26.784,44.599-57.401L367.617,155.694z"/>
			</g>
			<g>
				
					<path fill="#FBC100" stroke="#FBC100" stroke-width="0.6455" stroke-linecap="round" stroke-linejoin="round" stroke-miterlimit="10" d="
					M373.311,158.097c0.727,29.604-18.812,52.427-44.599,57.401c-24.497,4.728-48.325-7.839-58.873-29.174l3.26-3.32
					c12.118,15.694,32.431,24.146,53.229,20.132c20.799-4.012,41.105-24.682,44.411-46.127L373.311,158.097z"/>
			</g>
			<g>
				<path fill="#604C3F" d="M340.116,207.217c0.242,0.219,0.258,0.595,0.036,0.834c-0.221,0.242-0.596,0.256-0.838,0.035
					c-0.238-0.222-0.257-0.595-0.034-0.834C339.503,207.01,339.877,206.994,340.116,207.217z"/>
			</g>
			<g>
				<circle fill="#604C3F" cx="342.761" cy="207.498" r="0.591"/>
			</g>
			<g>
				<path fill="#604C3F" d="M346.021,207.422c0.241,0.222,0.257,0.596,0.04,0.836c-0.225,0.244-0.599,0.257-0.841,0.035
					c-0.239-0.22-0.256-0.593-0.033-0.835C345.407,207.217,345.783,207.2,346.021,207.422z"/>
			</g>
			<g>
				<path fill="#604C3F" d="M345.829,205.445c0.243,0.224,0.255,0.595,0.037,0.836c-0.224,0.241-0.597,0.258-0.839,0.034
					c-0.238-0.22-0.255-0.594-0.032-0.835C345.212,205.237,345.587,205.221,345.829,205.445z"/>
			</g>
			<g>
				<path fill="#604C3F" d="M349.172,205.368c0.242,0.223,0.259,0.596,0.038,0.837c-0.223,0.239-0.596,0.256-0.838,0.033
					c-0.238-0.221-0.255-0.592-0.032-0.834C348.559,205.162,348.933,205.147,349.172,205.368z"/>
			</g>
			<g>
				<circle fill="#604C3F" cx="348.709" cy="203.709" r="0.592"/>
			</g>
			<g>
				<path fill="#604C3F" d="M340.223,209.722c0.242,0.223,0.257,0.596,0.035,0.838c-0.222,0.241-0.595,0.257-0.839,0.036
					c-0.238-0.223-0.253-0.598-0.032-0.838C339.607,209.516,339.981,209.503,340.223,209.722z"/>
			</g>
			<g>
				<path fill="#604C3F" d="M336.696,210.062c0.238,0.221,0.257,0.595,0.036,0.834c-0.225,0.242-0.596,0.26-0.838,0.037
					c-0.24-0.221-0.255-0.594-0.036-0.839C336.081,209.855,336.454,209.84,336.696,210.062z"/>
			</g>
		</g>
	</g>
	<g>
		<g>
			<g>
				
					<path fill="#FFD600" stroke="#FFD600" stroke-width="0.4985" stroke-linecap="round" stroke-linejoin="round" stroke-miterlimit="10" d="
					M632.794,258.197c3.321,14.741-1.475,30.782-13.811,41.216c-14.713,12.446-38.005,14.198-56.132-0.991l1.315-4.587
					c16.527,5.452,32.266,0.137,42.729-8.715c7.457-6.306,12.159-14.661,13.979-23.537c0.068-0.328,0.645-0.766,0.703-1.094
					L632.794,258.197z"/>
			</g>
			<g>
				
					<path fill="#786854" stroke="#786854" stroke-width="0.4985" stroke-linecap="round" stroke-linejoin="round" stroke-miterlimit="10" d="
					M632.797,258.197c3.314,14.739-1.48,30.772-13.812,41.205c-15.483,13.096-38.679,13.788-56.131-0.991l0.59-2.072
					c14.503,8.402,36.771,6.202,49.262-4.363c9.99-8.45,15.033-20.57,14.825-32.705L632.797,258.197z"/>
			</g>
		</g>
		<g>
			<g>
				
					<path fill="#FBC100" stroke="#FBC100" stroke-width="0.6455" stroke-linecap="round" stroke-linejoin="round" stroke-miterlimit="10" d="
					M662.875,307.921"/>
			</g>
			<g>
				<g>
					
						<polygon fill="#604C3F" stroke="#604C3F" stroke-width="0.6131" stroke-linecap="round" stroke-linejoin="round" stroke-miterlimit="10" points="
						644.804,240.087 636.265,236.055 639.719,231.762 645.924,234.689 					"/>
				</g>
				<g>
					
						<polygon fill="#786854" stroke="#786854" stroke-width="0.6131" stroke-linecap="round" stroke-linejoin="round" stroke-miterlimit="10" points="
						644.804,240.087 645.924,234.689 639.719,231.762 					"/>
				</g>
			</g>
			<g>
				
					<path fill="#FFD600" stroke="#FFD600" stroke-width="0.6455" stroke-linecap="round" stroke-linejoin="round" stroke-miterlimit="10" d="
					M695.459,320.81c-22.529-0.531-39.418-13.851-48.334-29.193c-8.92-15.342-9.47-33.244-3.045-48.417l-9.774-4.604
					c-16.665,16.991-20.673,43.631-8.134,65.199c12.54,21.573,40.185,33.833,68.896,23.182L695.459,320.81z"/>
			</g>
			<g>
				
					<path fill="#FBC100" stroke="#FBC100" stroke-width="0.6455" stroke-linecap="round" stroke-linejoin="round" stroke-miterlimit="10" d="
					M695.067,326.977c-27.71,10.446-55.697-0.476-68.896-23.182c-12.539-21.568-8.531-48.208,8.134-65.199l4.209,1.982
					c-10.821,16.615-12.104,38.578-1.458,56.89c10.645,18.313,36.854,30.671,58.189,26.722L695.067,326.977z"/>
			</g>
			<g>
				<circle fill="#604C3F" cx="637.208" cy="311.597" r="0.591"/>
			</g>
			<g>
				<circle fill="#604C3F" cx="638.357" cy="314.421" r="0.591"/>
			</g>
			<g>
				<path fill="#604C3F" d="M639.503,317.475c-0.13,0.301-0.478,0.438-0.775,0.313c-0.305-0.132-0.44-0.48-0.311-0.782
					c0.129-0.299,0.476-0.438,0.777-0.307C639.494,316.827,639.634,317.177,639.503,317.475z"/>
			</g>
			<g>
				<path fill="#604C3F" d="M641.306,316.642c-0.131,0.303-0.478,0.437-0.776,0.311c-0.302-0.132-0.44-0.479-0.309-0.781
					c0.129-0.297,0.476-0.437,0.777-0.306C641.299,315.99,641.438,316.339,641.306,316.642z"/>
			</g>
			<g>
				<path fill="#604C3F" d="M642.48,319.771c-0.13,0.302-0.477,0.44-0.777,0.312c-0.299-0.132-0.438-0.479-0.308-0.78
					c0.13-0.298,0.475-0.436,0.777-0.306C642.474,319.125,642.61,319.474,642.48,319.771z"/>
			</g>
			<g>
				<path fill="#604C3F" d="M644.438,319.022c-0.128,0.301-0.476,0.438-0.776,0.309c-0.301-0.128-0.438-0.477-0.31-0.777
					c0.13-0.303,0.477-0.439,0.778-0.309C644.43,318.372,644.569,318.722,644.438,319.022z"/>
			</g>
			<g>
				<path fill="#604C3F" d="M635.42,312.758c-0.13,0.302-0.478,0.439-0.779,0.31c-0.301-0.13-0.438-0.477-0.311-0.78
					c0.132-0.298,0.481-0.436,0.78-0.307C635.412,312.109,635.547,312.458,635.42,312.758z"/>
			</g>
			<g>
				<path fill="#604C3F" d="M633.936,309.541c-0.129,0.298-0.477,0.438-0.775,0.31c-0.303-0.133-0.441-0.477-0.311-0.779
					c0.129-0.3,0.477-0.437,0.779-0.311C633.929,308.892,634.066,309.239,633.936,309.541z"/>
			</g>
		</g>
	</g>
	<g>
		<g>
			
				<path fill="#F1A9C7" stroke="#F1A9C7" stroke-width="0.4086" stroke-linecap="round" stroke-linejoin="round" stroke-miterlimit="10" d="
				M477.965,228.174l39.8,37.912c0,0-13.914,12.731-26.907,2.656C477.21,258.161,477.965,228.174,477.965,228.174z"/>
		</g>
		<g>
			<circle fill="#1A171B" cx="489.201" cy="246.806" r="2.315"/>
		</g>
		<g>
			
				<line fill="none" stroke="#E67CAA" stroke-width="1.2257" stroke-linecap="round" stroke-miterlimit="10" x1="474.727" y1="225.632" x2="438.265" y2="190.9"/>
		</g>
		<g>
			
				<line fill="none" stroke="#E67CAA" stroke-width="1.2257" stroke-linecap="round" stroke-miterlimit="10" x1="470.785" y1="229.77" x2="446.749" y2="206.874"/>
		</g>
	</g>
	<g>
		<g>
			
				<path fill="#F19300" stroke="#F19300" stroke-width="3.1507" stroke-linecap="round" stroke-linejoin="round" stroke-miterlimit="10" d="
				M531.878,150.282h0.095h6.474c9.769,0,16.513-6.627,18.445-17.007h-25.014V150.282z"/>
		</g>
		<g>
			<g>
				<path fill="#EE8300" d="M531.878,150.282h-0.094h-6.476c-9.769,0-16.512-6.627-18.445-17.007h25.015V150.282z"/>
			</g>
			<g>
				<path fill="#EE8300" d="M531.878,151.857h-6.569c-10.388,0-17.862-6.84-19.994-18.295c-0.086-0.46,0.038-0.935,0.336-1.295
					c0.301-0.36,0.745-0.569,1.213-0.569h25.015V151.857z"/>
			</g>
		</g>
		<g>
			
				<path fill="#00892E" stroke="#00892E" stroke-width="1.6939" stroke-linecap="round" stroke-linejoin="round" stroke-miterlimit="10" d="
				M541.357,182.323c0,0,16.847,5.271,17.293,16.551c0.348,8.826-7.341,11.857-14.162,10.01
				c-10.659-2.894-10.152-19.57-9.941-22.007c0,0,0.106-2.61,0.317-7.058c0-6.035,0-24.04,0-24.04h3.104v25.802L541.357,182.323z"/>
		</g>
		<g>
			
				<path fill="#00892E" stroke="#00892E" stroke-width="1.6939" stroke-linecap="round" stroke-linejoin="round" stroke-miterlimit="10" d="
				M524.812,165.486c0,0-16.847,5.272-17.292,16.552c-0.348,8.826,7.341,11.857,14.16,10.008c10.66-2.893,9.341-16.121,9.612-19.788
				c0,0,0.012-4.448,0.012-9.275c0,1.042,0-7.203,0-7.203h-3.104v8.968L524.812,165.486z"/>
		</g>
	</g>
	<g>
		<g>
			
				<path fill="#F19300" stroke="#F19300" stroke-width="3.1507" stroke-linecap="round" stroke-linejoin="round" stroke-miterlimit="10" d="
				M185.452,337.128l-0.085-0.042l-5.797-2.882c-8.748-4.348-17.736-1.415-24.087,7.02l22.399,11.134L185.452,337.128z"/>
		</g>
		<g>
			<g>
				<path fill="#EE8300" d="M185.452,337.128l0.084,0.042l5.799,2.882c8.748,4.348,11.836,13.283,8.948,23.439l-22.4-11.134
					L185.452,337.128z"/>
			</g>
			<g>
				<path fill="#EE8300" d="M186.153,335.718l5.883,2.924c9.302,4.623,12.951,14.075,9.762,25.281
					c-0.128,0.45-0.45,0.82-0.877,1.011c-0.43,0.188-0.921,0.178-1.34-0.03l-22.4-11.134L186.153,335.718z"/>
			</g>
		</g>
		<g>
			
				<path fill="#00892E" stroke="#00892E" stroke-width="1.6939" stroke-linecap="round" stroke-linejoin="round" stroke-miterlimit="10" d="
				M191.224,304.216c0,0-12.74-12.219-8.119-22.518c3.617-8.059,11.852-7.351,17.137-2.66c8.257,7.335,0.381,22.044-0.892,24.132
				c0,0-1.257,2.29-3.426,6.179c-2.686,5.404-10.7,21.527-10.7,21.527l-2.78-1.382l11.484-23.104L191.224,304.216z"/>
		</g>
		<g>
			
				<path fill="#00892E" stroke="#00892E" stroke-width="1.6939" stroke-linecap="round" stroke-linejoin="round" stroke-miterlimit="10" d="
				M198.547,326.658c0,0,17.433,2.776,22.852-7.126c4.24-7.749-1.296-13.886-8.226-15.264c-10.833-2.155-15.54,10.278-17.415,13.441
				c0,0-1.99,3.978-4.139,8.301c0.464-0.934-3.206,6.45-3.206,6.45l2.78,1.382l3.991-8.031L198.547,326.658z"/>
		</g>
	</g>
	<g>
		
			<path fill="#007B38" stroke="#007B38" stroke-width="1.9652" stroke-linecap="round" stroke-linejoin="round" stroke-miterlimit="10" d="
			M324.688,83.457c-15.5,7.28-20.968,16.104-20.968,16.104l-7.059-15.307l-2.287,1.054l-2.289,1.056l8.58,18.607
			c0,0-14.617-4.979-30.216,2.077c15.239,0.142,19.515,2.917,19.515,2.917s-16.729,8.288-20.023,23.739
			c0,0,12.682-17.66,35.557-24.964C305.497,108.74,308.709,95.084,324.688,83.457z"/>
	</g>
	<g>
		<g>
			
				<path fill="#40A52B" stroke="#40A52B" stroke-width="2.6634" stroke-linecap="round" stroke-linejoin="round" stroke-miterlimit="10" d="
				M595.099,406.582"/>
			
				<path fill="#40A52B" stroke="#40A52B" stroke-width="2.6634" stroke-linecap="round" stroke-linejoin="round" stroke-miterlimit="10" d="
				M572.901,338.825l-2.835,2.634c-1.463,1.263-2.533,2.888-3.551,4.755c-0.905,1.654-1.85,5.347-1.85,9.104l0.01,0.8
				c0.31,20.368,11.269,39.997,30.423,50.465l23.467-42.608L572.901,338.825z"/>
			<path fill="#E2E481" d="M597.016,403.077"/>
		</g>
		<path fill="#E2E481" d="M620.577,363.516l-41.748-22.992l-5.315,3.188l-0.84,0.779c-0.88,0.759-1.672,1.84-2.65,3.634
			c-0.476,0.871-1.361,3.873-1.366,7.144l0.012,0.79c0.301,19.605,12.518,38.377,29.707,47.769L620.577,363.516z"/>
		<g>
			<g>
				<path fill="#41281B" stroke="#41281B" stroke-width="1.1805" stroke-miterlimit="10" d="M618.309,366.104
					c-2.718-1.488-5.455-1.724-6.107-0.533c-0.647,1.194,1.029,3.364,3.746,4.853L618.309,366.104z"/>
			</g>
		</g>
	</g>
	<g>
		
			<circle fill="#422918" stroke="#422918" stroke-width="6.7234" stroke-linecap="round" stroke-linejoin="round" stroke-miterlimit="10" cx="497.82" cy="78.684" r="12.854"/>
	</g>
	<g>
		
			<path fill="none" stroke="#ED7670" stroke-width="16.7754" stroke-linecap="round" stroke-linejoin="round" stroke-miterlimit="10" d="
			M577.628,65.226c-1.218,15.212,10.129,28.535,25.343,29.75l0,0"/>
	</g>
	<g>
		
			<path fill="none" stroke="#ED7670" stroke-width="16.7754" stroke-linecap="round" stroke-linejoin="round" stroke-miterlimit="10" d="
			M522.354,41.269c4.596-16.575,16.224-25.842,31.438-24.627l0,0c15.213,1.219,26.561,14.538,25.343,29.755"/>
	</g>
	<g>
		<polyline fill="none" stroke="#F7C6C6" stroke-width="16.7754" stroke-miterlimit="10" points="579.134,46.396 577.682,64.55 
			579.08,47.07 577.628,65.226 		"/>
	</g>
</g>
</svg>
