<?xml version="1.0" encoding="utf-8"?>
<!-- Generator: Adobe Illustrator 17.0.0, SVG Export Plug-In . SVG Version: 6.00 Build 0)  -->
<!DOCTYPE svg PUBLIC "-//W3C//DTD SVG 1.1//EN" "http://www.w3.org/Graphics/SVG/1.1/DTD/svg11.dtd">
<svg version="1.1" id="Layer_1" xmlns="http://www.w3.org/2000/svg" xmlns:xlink="http://www.w3.org/1999/xlink" x="0px" y="0px"
	 width="107.389px" height="281.794px" viewBox="0 0 107.389 281.794" enable-background="new 0 0 107.389 281.794"
	 xml:space="preserve">
<rect x="2.567" y="118.074" fill="#EDEDED" stroke="#EDEDED" stroke-width="3" stroke-linecap="round" stroke-linejoin="round" stroke-miterlimit="10" width="102.062" height="155.67"/>
<rect x="2.191" y="118.074" fill="#C6C6C6" stroke="#C6C6C6" stroke-width="3.011" stroke-miterlimit="10" width="51.407" height="155.67"/>
<line fill="none" stroke="#C6C6C6" stroke-width="2.9658" stroke-linejoin="round" stroke-miterlimit="10" x1="37.16" y1="151.409" x2="106.094" y2="151.409"/>
<line fill="none" stroke="#C6C6C6" stroke-width="3" stroke-linejoin="round" stroke-miterlimit="10" x1="35.562" y1="173.659" x2="106.094" y2="173.659"/>
<line fill="none" stroke="#C6C6C6" stroke-width="3" stroke-linejoin="round" stroke-miterlimit="10" x1="35.505" y1="195.909" x2="106.177" y2="195.909"/>
<line fill="none" stroke="#C6C6C6" stroke-width="3" stroke-linejoin="round" stroke-miterlimit="10" x1="35.505" y1="218.159" x2="106.157" y2="218.159"/>
<line fill="none" stroke="#C6C6C6" stroke-width="3" stroke-linejoin="round" stroke-miterlimit="10" x1="35.562" y1="240.409" x2="106.135" y2="240.409"/>
<line fill="none" stroke="#EDEDED" stroke-width="2.4411" stroke-linejoin="round" stroke-miterlimit="10" x1="0.744" y1="151.409" x2="55.494" y2="151.409"/>
<line fill="none" stroke="#EDEDED" stroke-width="2.4411" stroke-linejoin="round" stroke-miterlimit="10" x1="0.744" y1="173.659" x2="54.372" y2="173.659"/>
<line fill="none" stroke="#EDEDED" stroke-width="2.4411" stroke-linejoin="round" stroke-miterlimit="10" x1="0.744" y1="195.909" x2="54.372" y2="195.909"/>
<line fill="none" stroke="#EDEDED" stroke-width="2.4411" stroke-linejoin="round" stroke-miterlimit="10" x1="0.744" y1="218.159" x2="54.372" y2="218.159"/>
<line fill="none" stroke="#EDEDED" stroke-width="2.4421" stroke-linejoin="round" stroke-miterlimit="10" x1="0.661" y1="240.409" x2="54.372" y2="240.409"/>
<circle fill="#C6C6C6" stroke="#C6C6C6" stroke-width="2.4239" stroke-miterlimit="10" cx="54.372" cy="53.017" r="51.805"/>
<circle fill="#C6C6C6" stroke="#EDEDED" stroke-width="3" stroke-miterlimit="10" cx="54.372" cy="53.018" r="36.424"/>
<path fill="#EDEDED" stroke="#EDEDED" stroke-width="1.0066" stroke-linecap="round" stroke-linejoin="round" stroke-miterlimit="10" d="
	M106.693,111.748c0,0.927-0.752,1.678-1.678,1.678H2.181c-0.927,0-1.678-0.751-1.678-1.678l0,0c0-0.927,0.751-1.678,1.678-1.678
	h102.834C105.941,110.07,106.693,110.821,106.693,111.748L106.693,111.748z"/>
<path fill="#C6C6C6" stroke="#C6C6C6" stroke-width="1.0066" stroke-linecap="round" stroke-linejoin="round" stroke-miterlimit="10" d="
	M55.494,113.426H2.181c-0.927,0-1.678-0.751-1.678-1.678l0,0c0-0.927,0.751-1.678,1.678-1.678h53.313V113.426z"/>
<path fill="#EDEDED" stroke="#EDEDED" stroke-width="1.0066" stroke-linecap="round" stroke-linejoin="round" stroke-miterlimit="10" d="
	M106.693,279.613c0,0.927-0.752,1.678-1.678,1.678H2.181c-0.927,0-1.678-0.751-1.678-1.678l0,0c0-0.927,0.751-1.678,1.678-1.678
	h102.834C105.941,277.936,106.693,278.687,106.693,279.613L106.693,279.613z"/>
<path fill="#C6C6C6" stroke="#C6C6C6" stroke-width="1.0066" stroke-linecap="round" stroke-linejoin="round" stroke-miterlimit="10" d="
	M55.494,281.291H2.181c-0.927,0-1.678-0.751-1.678-1.678l0,0c0-0.927,0.751-1.678,1.678-1.678h53.313V281.291z"/>
</svg>
