<?xml version="1.0" encoding="utf-8"?>
<!-- Generator: Adobe Illustrator 17.0.0, SVG Export Plug-In . SVG Version: 6.00 Build 0)  -->
<!DOCTYPE svg PUBLIC "-//W3C//DTD SVG 1.1//EN" "http://www.w3.org/Graphics/SVG/1.1/DTD/svg11.dtd">
<svg version="1.1" id="Layer_1" xmlns="http://www.w3.org/2000/svg" xmlns:xlink="http://www.w3.org/1999/xlink" x="0px" y="0px"
	 width="281.573px" height="355.228px" viewBox="0 0 281.573 355.228" enable-background="new 0 0 281.573 355.228"
	 xml:space="preserve">
<g>
	
		<path fill="#E94B3D" stroke="#FFFFFF" stroke-width="18" stroke-linecap="round" stroke-linejoin="round" stroke-miterlimit="10" d="
		M272.573,188.229c0,87.264-58.701,158-131.117,158c-72.417,0-143.098-57.643-131.122-147.98
		c8.303-62.633,51.253-79.815,73.038-108.863C108.592,55.759,125.982,9,175.907,9C248.323,9,272.573,100.965,272.573,188.229z"/>
</g>
<g>
	<path fill="#CE4435" d="M239.805,185.311c0,63.284-42.57,114.584-95.087,114.584c-21.05,0-41.897-6.716-58.764-18.983
		c-25.214-18.337-41.531-49.079-36.327-88.333c6.021-45.423,37.169-57.884,52.968-78.95c18.29-24.386,30.901-58.296,67.108-58.296
		C222.219,55.333,239.805,122.027,239.805,185.311z"/>
</g>
<g>
	<path fill="#C54233" d="M195.306,61.701c32.802,18.12,44.499,71.999,44.499,123.611c0,63.284-42.57,114.584-95.087,114.584
		c-21.05,0-41.897-6.716-58.764-18.983"/>
</g>
<circle fill="none" stroke="#FFFFFF" stroke-width="7" stroke-linecap="round" stroke-linejoin="round" stroke-miterlimit="10" cx="164.681" cy="123.865" r="27.333"/>
</svg>
