<?xml version="1.0" encoding="utf-8"?>
<!-- Generator: Adobe Illustrator 17.0.0, SVG Export Plug-In . SVG Version: 6.00 Build 0)  -->
<!DOCTYPE svg PUBLIC "-//W3C//DTD SVG 1.1//EN" "http://www.w3.org/Graphics/SVG/1.1/DTD/svg11.dtd">
<svg version="1.1" id="Layer_1" xmlns="http://www.w3.org/2000/svg" xmlns:xlink="http://www.w3.org/1999/xlink" x="0px" y="0px"
	 width="106.214px" height="273.366px" viewBox="0 0 106.214 273.366" enable-background="new 0 0 106.214 273.366"
	 xml:space="preserve">
<g>
	<g>
		<path fill="#EDEDED" d="M64.797,181.815v16.336v30.278l0.064,2.629l16.718,16.611c6.449,6.411,7.129,16.189,1.519,21.834l0,0
			c-5.611,5.65-15.391,5.026-21.841-1.378l-4.723-4.69l-3.406-3.385l-3.408,3.385l-4.722,4.69
			c-6.449,6.403-16.229,7.027-21.84,1.378l0,0c-5.612-5.645-4.932-15.423,1.518-21.834l16.719-16.611l0.063-2.629v-30.278v-16.336
			H64.797z"/>
	</g>
	<g>
		
			<path fill="none" stroke="#CACACA" stroke-width="1.9728" stroke-linecap="round" stroke-linejoin="round" stroke-miterlimit="10" d="
			M23.159,269.504"/>
	</g>
	<g>
		
			<path fill="#CA9E67" stroke="#CA9E67" stroke-width="1.9728" stroke-linecap="round" stroke-linejoin="round" stroke-miterlimit="10" d="
			M72.415,19.445c0-4.705,0.893-9.199,2.503-13.334C68.92,2.815,62.32,0.986,55.387,0.986h-4.561
			c-27.526,0-49.84,28.764-49.84,64.248c0,17.742,5.579,33.803,14.598,45.43c0,0,25.778,30.649,25.778,62.821h23.491
			c0-32.172,25.779-62.821,25.779-62.821c9.014-11.627,14.596-27.688,14.596-45.43c0-3.158-0.185-6.259-0.526-9.295
			C86.51,53.722,72.415,38.235,72.415,19.445z"/>
	</g>
	<g>
		
			<path fill="#BD8855" stroke="#BD8855" stroke-width="1.9728" stroke-linecap="round" stroke-linejoin="round" stroke-miterlimit="10" d="
			M72.415,19.445c0-4.705,0.893-9.199,2.503-13.334C68.92,2.815,62.32,0.986,55.387,0.986l-2.28,172.499h11.746
			c0-32.172,25.779-62.821,25.779-62.821c9.014-11.627,14.596-27.688,14.596-45.43c0-3.158-0.185-6.259-0.526-9.295
			C86.51,53.722,72.415,38.235,72.415,19.445z"/>
	</g>
</g>
</svg>
