<?xml version="1.0" encoding="utf-8"?>
<!-- Generator: Adobe Illustrator 15.0.2, SVG Export Plug-In . SVG Version: 6.00 Build 0)  -->
<!DOCTYPE svg PUBLIC "-//W3C//DTD SVG 1.1//EN" "http://www.w3.org/Graphics/SVG/1.1/DTD/svg11.dtd">
<svg version="1.1" id="Lager_1" xmlns="http://www.w3.org/2000/svg" xmlns:xlink="http://www.w3.org/1999/xlink" x="0px" y="0px"
	 width="260.065px" height="462.276px" viewBox="0 0 260.065 462.276" enable-background="new 0 0 260.065 462.276"
	 xml:space="preserve">
<path fill="#DADADA" stroke="#DADADA" stroke-width="3.9516" stroke-linecap="round" stroke-linejoin="round" stroke-miterlimit="10" d="
	M242.32,76.82"/>
<g>
	<g>
		
			<line fill="none" stroke="#FFFFFF" stroke-width="0.5421" stroke-linecap="round" stroke-miterlimit="10" x1="46.956" y1="17.693" x2="46.956" y2="21.454"/>
		
			<line fill="none" stroke="#FFFFFF" stroke-width="0.5421" stroke-linecap="round" stroke-miterlimit="10" x1="46.055" y1="18.621" x2="46.956" y2="19.625"/>
		
			<line fill="none" stroke="#FFFFFF" stroke-width="0.5421" stroke-linecap="round" stroke-miterlimit="10" x1="47.858" y1="18.621" x2="46.956" y2="19.625"/>
	</g>
	<g>
		
			<line fill="none" stroke="#FFFFFF" stroke-width="0.5421" stroke-linecap="round" stroke-miterlimit="10" x1="46.956" y1="25.215" x2="46.956" y2="21.454"/>
		
			<line fill="none" stroke="#FFFFFF" stroke-width="0.5421" stroke-linecap="round" stroke-miterlimit="10" x1="47.858" y1="24.288" x2="46.956" y2="23.283"/>
		
			<line fill="none" stroke="#FFFFFF" stroke-width="0.5421" stroke-linecap="round" stroke-miterlimit="10" x1="46.055" y1="24.288" x2="46.956" y2="23.283"/>
	</g>
	<g>
		
			<line fill="none" stroke="#FFFFFF" stroke-width="0.5421" stroke-linecap="round" stroke-miterlimit="10" x1="50.189" y1="19.517" x2="46.933" y2="21.397"/>
		
			<line fill="none" stroke="#FFFFFF" stroke-width="0.5421" stroke-linecap="round" stroke-miterlimit="10" x1="49.836" y1="20.761" x2="48.516" y2="20.483"/>
		
			<line fill="none" stroke="#FFFFFF" stroke-width="0.5421" stroke-linecap="round" stroke-miterlimit="10" x1="48.936" y1="19.2" x2="48.516" y2="20.483"/>
	</g>
	<g>
		
			<line fill="none" stroke="#FFFFFF" stroke-width="0.5421" stroke-linecap="round" stroke-miterlimit="10" x1="43.754" y1="19.516" x2="47.011" y2="21.396"/>
		
			<line fill="none" stroke="#FFFFFF" stroke-width="0.5421" stroke-linecap="round" stroke-miterlimit="10" x1="44.106" y1="20.761" x2="45.427" y2="20.483"/>
		
			<line fill="none" stroke="#FFFFFF" stroke-width="0.5421" stroke-linecap="round" stroke-miterlimit="10" x1="45.008" y1="19.199" x2="45.427" y2="20.483"/>
	</g>
	<g>
		
			<line fill="none" stroke="#FFFFFF" stroke-width="0.5421" stroke-linecap="round" stroke-miterlimit="10" x1="43.754" y1="23.277" x2="47.011" y2="21.397"/>
		
			<line fill="none" stroke="#FFFFFF" stroke-width="0.5421" stroke-linecap="round" stroke-miterlimit="10" x1="45.008" y1="23.594" x2="45.427" y2="22.311"/>
		
			<line fill="none" stroke="#FFFFFF" stroke-width="0.5421" stroke-linecap="round" stroke-miterlimit="10" x1="44.106" y1="22.033" x2="45.427" y2="22.311"/>
	</g>
	<g>
		
			<line fill="none" stroke="#FFFFFF" stroke-width="0.5421" stroke-linecap="round" stroke-miterlimit="10" x1="50.195" y1="23.277" x2="46.939" y2="21.396"/>
		
			<line fill="none" stroke="#FFFFFF" stroke-width="0.5421" stroke-linecap="round" stroke-miterlimit="10" x1="48.942" y1="23.594" x2="48.523" y2="22.311"/>
		
			<line fill="none" stroke="#FFFFFF" stroke-width="0.5421" stroke-linecap="round" stroke-miterlimit="10" x1="49.844" y1="22.033" x2="48.523" y2="22.311"/>
	</g>
</g>
<g>
	<g>
		
			<line fill="none" stroke="#FFFFFF" stroke-width="0.5457" stroke-linecap="round" stroke-miterlimit="10" x1="237.662" y1="87.881" x2="237.662" y2="91.667"/>
		
			<line fill="none" stroke="#FFFFFF" stroke-width="0.5457" stroke-linecap="round" stroke-miterlimit="10" x1="236.755" y1="88.814" x2="237.662" y2="89.826"/>
		
			<line fill="none" stroke="#FFFFFF" stroke-width="0.5457" stroke-linecap="round" stroke-miterlimit="10" x1="238.57" y1="88.814" x2="237.662" y2="89.826"/>
	</g>
	<g>
		
			<line fill="none" stroke="#FFFFFF" stroke-width="0.5457" stroke-linecap="round" stroke-miterlimit="10" x1="237.662" y1="95.453" x2="237.662" y2="91.667"/>
		
			<line fill="none" stroke="#FFFFFF" stroke-width="0.5457" stroke-linecap="round" stroke-miterlimit="10" x1="238.57" y1="94.519" x2="237.662" y2="93.508"/>
		
			<line fill="none" stroke="#FFFFFF" stroke-width="0.5457" stroke-linecap="round" stroke-miterlimit="10" x1="236.755" y1="94.519" x2="237.662" y2="93.508"/>
	</g>
	<g>
		
			<line fill="none" stroke="#FFFFFF" stroke-width="0.5457" stroke-linecap="round" stroke-miterlimit="10" x1="240.917" y1="89.717" x2="237.639" y2="91.609"/>
		
			<line fill="none" stroke="#FFFFFF" stroke-width="0.5457" stroke-linecap="round" stroke-miterlimit="10" x1="240.562" y1="90.969" x2="239.232" y2="90.689"/>
		
			<line fill="none" stroke="#FFFFFF" stroke-width="0.5457" stroke-linecap="round" stroke-miterlimit="10" x1="239.654" y1="89.397" x2="239.232" y2="90.689"/>
	</g>
	<g>
		
			<line fill="none" stroke="#FFFFFF" stroke-width="0.5457" stroke-linecap="round" stroke-miterlimit="10" x1="234.438" y1="89.716" x2="237.717" y2="91.609"/>
		
			<line fill="none" stroke="#FFFFFF" stroke-width="0.5457" stroke-linecap="round" stroke-miterlimit="10" x1="234.794" y1="90.969" x2="236.123" y2="90.689"/>
		
			<line fill="none" stroke="#FFFFFF" stroke-width="0.5457" stroke-linecap="round" stroke-miterlimit="10" x1="235.701" y1="89.397" x2="236.123" y2="90.689"/>
	</g>
	<g>
		
			<line fill="none" stroke="#FFFFFF" stroke-width="0.5457" stroke-linecap="round" stroke-miterlimit="10" x1="234.438" y1="93.502" x2="237.717" y2="91.609"/>
		
			<line fill="none" stroke="#FFFFFF" stroke-width="0.5457" stroke-linecap="round" stroke-miterlimit="10" x1="235.701" y1="93.821" x2="236.123" y2="92.529"/>
		
			<line fill="none" stroke="#FFFFFF" stroke-width="0.5457" stroke-linecap="round" stroke-miterlimit="10" x1="234.794" y1="92.25" x2="236.123" y2="92.529"/>
	</g>
	<g>
		
			<line fill="none" stroke="#FFFFFF" stroke-width="0.5457" stroke-linecap="round" stroke-miterlimit="10" x1="240.923" y1="93.502" x2="237.646" y2="91.609"/>
		
			<line fill="none" stroke="#FFFFFF" stroke-width="0.5457" stroke-linecap="round" stroke-miterlimit="10" x1="239.662" y1="93.821" x2="239.24" y2="92.529"/>
		
			<line fill="none" stroke="#FFFFFF" stroke-width="0.5457" stroke-linecap="round" stroke-miterlimit="10" x1="240.569" y1="92.25" x2="239.24" y2="92.529"/>
	</g>
</g>
<g>
	<g>
		<path fill="#FFFFFF" d="M80.206,10.784l-2.282,17.055c-0.02,0.142-0.14,0.248-0.282,0.248c-0.144,0-0.264-0.106-0.283-0.248
			l-2.282-17.055H80.206z"/>
		<path fill="#FFFFFF" stroke="#FFFFFF" stroke-width="0.2853" stroke-linecap="round" stroke-miterlimit="10" d="M80.488,10.884
			l-2.282,17.055c-0.037,0.282-0.28,0.495-0.564,0.495c-0.285,0-0.528-0.213-0.565-0.495l-2.282-17.055H80.488z M77.642,27.864
			v0.285V27.864L77.642,27.864L77.642,27.864z M75.402,11.132l2.239,16.73l2.238-16.73H75.402z"/>
	</g>
</g>
<g>
	<g>
		<path fill="#FFFFFF" d="M228.335,10.701l-2.297,17.167c-0.02,0.143-0.141,0.249-0.284,0.249c-0.145,0-0.266-0.106-0.285-0.249
			l-2.297-17.167H228.335z"/>
		<path fill="#FFFFFF" stroke="#FFFFFF" stroke-width="0.2872" stroke-linecap="round" stroke-miterlimit="10" d="M228.619,10.801
			l-2.297,17.168c-0.037,0.284-0.282,0.498-0.568,0.498c-0.287,0-0.531-0.214-0.569-0.498l-2.297-17.168H228.619z M225.754,27.893
			v0.287V27.893L225.754,27.893L225.754,27.893z M223.5,11.051l2.254,16.84l2.253-16.84H223.5z"/>
	</g>
</g>
<g>
	<g>
		<path fill="#FFFFFF" d="M234.639,10.701l-1.225,9.155c-0.012,0.076-0.076,0.133-0.152,0.133c-0.077,0-0.141-0.057-0.152-0.133
			l-1.225-9.155H234.639z"/>
		<path fill="#FFFFFF" stroke="#FFFFFF" stroke-width="0.1531" stroke-linecap="round" stroke-miterlimit="10" d="M234.79,10.754
			l-1.225,9.155c-0.021,0.151-0.15,0.265-0.304,0.265c-0.152,0-0.283-0.114-0.303-0.265l-1.227-9.155H234.79z M233.262,19.869v0.153
			V19.869L233.262,19.869L233.262,19.869z M232.06,10.887l1.202,8.98l1.202-8.98H232.06z"/>
	</g>
</g>
<g>
	<path fill="#F6F6F6" stroke="#F6F6F6" stroke-width="1.3198" stroke-miterlimit="10" d="M259.405,103.898
		c0,5.831-4.728,10.558-10.558,10.558H37.016c-5.83,0-10.558-4.728-10.558-10.558V11.22c0-5.831,4.728-10.56,10.558-10.56h211.832
		c5.83,0,10.558,4.729,10.558,10.56V103.898z"/>
	
		<rect x="37.47" y="12.739" fill="#CBDBE6" stroke="#CBDBE6" stroke-width="4.0264" stroke-linecap="round" stroke-linejoin="round" stroke-miterlimit="10" width="209.856" height="90.159"/>
	<path fill="#F6F6F6" stroke="#F6F6F6" stroke-width="1.3172" stroke-miterlimit="10" d="M258.869,451.081
		c0,5.819-4.718,10.537-10.537,10.537H36.927c-5.819,0-10.537-4.718-10.537-10.537V134.297c0-5.82,4.718-10.537,10.537-10.537
		h211.405c5.819,0,10.537,4.717,10.537,10.537V451.081z"/>
	<path fill="#F0F0F0" stroke="#F0F0F0" stroke-width="1.3172" stroke-miterlimit="10" d="M113.933,114.98"/>
	
		<path fill="#DADADA" stroke="#DADADA" stroke-width="3.9516" stroke-linecap="round" stroke-linejoin="round" stroke-miterlimit="10" d="
		M-3.368,76.82"/>
	
		<path fill="#DADADA" stroke="#DADADA" stroke-width="3.9516" stroke-linecap="round" stroke-linejoin="round" stroke-miterlimit="10" d="
		M-3.368,148.641"/>
	<path fill="#F0F0F0" stroke="#F0F0F0" stroke-width="1.3172" stroke-miterlimit="10" d="M68.445,114.98"/>
	
		<polyline fill="#B1CCDB" stroke="#B1CCDB" stroke-width="4.0264" stroke-linecap="round" stroke-linejoin="round" stroke-miterlimit="10" points="
		97.361,102.903 37.47,12.739 37.47,102.898 97.361,102.903 	"/>
	
		<path fill="#B1CCDB" stroke="#B1CCDB" stroke-width="4.0264" stroke-linecap="round" stroke-linejoin="round" stroke-miterlimit="10" d="
		M97.361,102.903"/>
	<g>
		
			<rect x="38.39" y="135.614" fill="#CBDBE6" stroke="#CBDBE6" stroke-width="5" stroke-linecap="round" stroke-linejoin="round" stroke-miterlimit="10" width="208.479" height="313.858"/>
		
			<path fill="#DADADA" stroke="#DADADA" stroke-width="3.9516" stroke-linecap="round" stroke-linejoin="round" stroke-miterlimit="10" d="
			M242.32,148.495"/>
		<g>
			
				<polygon fill="#B1CCDB" stroke="#B1CCDB" stroke-width="5" stroke-linecap="round" stroke-linejoin="round" stroke-miterlimit="10" points="
				246.869,449.473 38.39,449.473 38.39,135.614 			"/>
			
				<line fill="none" stroke="#FFFFFF" stroke-width="3" stroke-linecap="round" stroke-linejoin="round" stroke-miterlimit="10" x1="50.237" y1="203.635" x2="235.021" y2="203.635"/>
			
				<line fill="none" stroke="#FFFFFF" stroke-width="3" stroke-linecap="round" stroke-linejoin="round" stroke-miterlimit="10" x1="50.237" y1="279.182" x2="235.021" y2="279.182"/>
			
				<line fill="none" stroke="#FFFFFF" stroke-width="3" stroke-linecap="round" stroke-linejoin="round" stroke-miterlimit="10" x1="50.237" y1="354.729" x2="235.021" y2="354.729"/>
			<g>
				
					<rect x="52.721" y="371.91" fill="#E7E7E7" stroke="#E7E7E7" stroke-width="4.0833" stroke-linecap="round" stroke-linejoin="round" stroke-miterlimit="10" width="80.142" height="64.766"/>
				<g>
					<path fill="#F6F6F6" d="M130.332,383.872v48.232c0,1.127-0.913,2.041-2.042,2.041H57.293c-1.128,0-2.042-0.914-2.042-2.041
						v-48.232H130.332z"/>
				</g>
				<g>
					<path fill="#F0F0F0" d="M130.332,432.104c0,1.127-0.913,2.041-2.042,2.041H57.293c-1.128,0-2.042-0.914-2.042-2.041v-48.232
						L130.332,432.104z"/>
				</g>
			</g>
			<g>
				<path fill="#DEDEDE" d="M135.526,383.607h-85.47c-1.203,0-2.178-0.975-2.178-2.178v-9.763c0-1.203,0.975-2.178,2.178-2.178
					h85.47c1.204,0,2.179,0.975,2.179,2.178v9.763C137.705,382.633,136.73,383.607,135.526,383.607z"/>
			</g>
			<g>
				
					<rect x="152.304" y="371.91" fill="#E7E7E7" stroke="#E7E7E7" stroke-width="4.0833" stroke-linecap="round" stroke-linejoin="round" stroke-miterlimit="10" width="80.142" height="64.766"/>
				<g>
					<path fill="#F6F6F6" d="M229.914,383.872v48.232c0,1.127-0.913,2.041-2.042,2.041h-70.997c-1.129,0-2.042-0.914-2.042-2.041
						v-48.232H229.914z"/>
				</g>
				<g>
					<path fill="#F0F0F0" d="M229.914,432.104c0,1.127-0.913,2.041-2.042,2.041h-70.997c-1.129,0-2.042-0.914-2.042-2.041v-48.232
						L229.914,432.104z"/>
				</g>
			</g>
			<g>
				<path fill="#DEDEDE" d="M235.109,383.607h-85.471c-1.202,0-2.178-0.975-2.178-2.178v-9.763c0-1.203,0.976-2.178,2.178-2.178
					h85.471c1.203,0,2.178,0.975,2.178,2.178v9.763C237.287,382.633,236.312,383.607,235.109,383.607z"/>
			</g>
		</g>
	</g>
	
		<line fill="none" stroke="#FFFFFF" stroke-width="3.0198" stroke-linecap="round" stroke-linejoin="round" stroke-miterlimit="10" x1="49.396" y1="57.819" x2="235.4" y2="57.819"/>
	<g>
		<g>
			
				<line fill="none" stroke="#FFFFFF" stroke-width="0.3292" stroke-linecap="round" stroke-miterlimit="10" x1="42.842" y1="26.403" x2="42.842" y2="28.687"/>
			
				<line fill="none" stroke="#FFFFFF" stroke-width="0.3292" stroke-linecap="round" stroke-miterlimit="10" x1="42.295" y1="26.966" x2="42.842" y2="27.577"/>
			
				<line fill="none" stroke="#FFFFFF" stroke-width="0.3292" stroke-linecap="round" stroke-miterlimit="10" x1="43.39" y1="26.966" x2="42.842" y2="27.577"/>
		</g>
		<g>
			
				<line fill="none" stroke="#FFFFFF" stroke-width="0.3292" stroke-linecap="round" stroke-miterlimit="10" x1="42.842" y1="30.971" x2="42.842" y2="28.687"/>
			
				<line fill="none" stroke="#FFFFFF" stroke-width="0.3292" stroke-linecap="round" stroke-miterlimit="10" x1="43.39" y1="30.408" x2="42.842" y2="29.797"/>
			
				<line fill="none" stroke="#FFFFFF" stroke-width="0.3292" stroke-linecap="round" stroke-miterlimit="10" x1="42.295" y1="30.408" x2="42.842" y2="29.797"/>
		</g>
		<g>
			
				<line fill="none" stroke="#FFFFFF" stroke-width="0.3292" stroke-linecap="round" stroke-miterlimit="10" x1="44.806" y1="27.511" x2="42.828" y2="28.652"/>
			
				<line fill="none" stroke="#FFFFFF" stroke-width="0.3292" stroke-linecap="round" stroke-miterlimit="10" x1="44.591" y1="28.266" x2="43.789" y2="28.097"/>
			
				<line fill="none" stroke="#FFFFFF" stroke-width="0.3292" stroke-linecap="round" stroke-miterlimit="10" x1="44.044" y1="27.318" x2="43.789" y2="28.097"/>
		</g>
		<g>
			
				<line fill="none" stroke="#FFFFFF" stroke-width="0.3292" stroke-linecap="round" stroke-miterlimit="10" x1="40.897" y1="27.51" x2="42.875" y2="28.652"/>
			
				<line fill="none" stroke="#FFFFFF" stroke-width="0.3292" stroke-linecap="round" stroke-miterlimit="10" x1="41.111" y1="28.266" x2="41.913" y2="28.097"/>
			
				<line fill="none" stroke="#FFFFFF" stroke-width="0.3292" stroke-linecap="round" stroke-miterlimit="10" x1="41.659" y1="27.318" x2="41.913" y2="28.097"/>
		</g>
		<g>
			
				<line fill="none" stroke="#FFFFFF" stroke-width="0.3292" stroke-linecap="round" stroke-miterlimit="10" x1="40.897" y1="29.794" x2="42.875" y2="28.652"/>
			
				<line fill="none" stroke="#FFFFFF" stroke-width="0.3292" stroke-linecap="round" stroke-miterlimit="10" x1="41.659" y1="29.987" x2="41.913" y2="29.208"/>
			
				<line fill="none" stroke="#FFFFFF" stroke-width="0.3292" stroke-linecap="round" stroke-miterlimit="10" x1="41.111" y1="29.039" x2="41.913" y2="29.208"/>
		</g>
		<g>
			
				<line fill="none" stroke="#FFFFFF" stroke-width="0.3292" stroke-linecap="round" stroke-miterlimit="10" x1="44.809" y1="29.794" x2="42.832" y2="28.652"/>
			
				<line fill="none" stroke="#FFFFFF" stroke-width="0.3292" stroke-linecap="round" stroke-miterlimit="10" x1="44.048" y1="29.987" x2="43.794" y2="29.208"/>
			
				<line fill="none" stroke="#FFFFFF" stroke-width="0.3292" stroke-linecap="round" stroke-miterlimit="10" x1="44.596" y1="29.039" x2="43.794" y2="29.208"/>
		</g>
	</g>
	<g>
		<g>
			
				<line fill="none" stroke="#FFFFFF" stroke-width="0.5457" stroke-linecap="round" stroke-miterlimit="10" x1="171.566" y1="68.997" x2="171.566" y2="72.782"/>
			
				<line fill="none" stroke="#FFFFFF" stroke-width="0.5457" stroke-linecap="round" stroke-miterlimit="10" x1="170.659" y1="69.93" x2="171.566" y2="70.941"/>
			
				<line fill="none" stroke="#FFFFFF" stroke-width="0.5457" stroke-linecap="round" stroke-miterlimit="10" x1="172.475" y1="69.93" x2="171.566" y2="70.941"/>
		</g>
		<g>
			
				<line fill="none" stroke="#FFFFFF" stroke-width="0.5457" stroke-linecap="round" stroke-miterlimit="10" x1="171.566" y1="76.568" x2="171.566" y2="72.782"/>
			
				<line fill="none" stroke="#FFFFFF" stroke-width="0.5457" stroke-linecap="round" stroke-miterlimit="10" x1="172.475" y1="75.634" x2="171.566" y2="74.623"/>
			
				<line fill="none" stroke="#FFFFFF" stroke-width="0.5457" stroke-linecap="round" stroke-miterlimit="10" x1="170.659" y1="75.634" x2="171.566" y2="74.623"/>
		</g>
		<g>
			
				<line fill="none" stroke="#FFFFFF" stroke-width="0.5457" stroke-linecap="round" stroke-miterlimit="10" x1="174.821" y1="70.833" x2="171.543" y2="72.725"/>
			
				<line fill="none" stroke="#FFFFFF" stroke-width="0.5457" stroke-linecap="round" stroke-miterlimit="10" x1="174.465" y1="72.084" x2="173.137" y2="71.805"/>
			
				<line fill="none" stroke="#FFFFFF" stroke-width="0.5457" stroke-linecap="round" stroke-miterlimit="10" x1="173.559" y1="70.513" x2="173.137" y2="71.805"/>
		</g>
		<g>
			
				<line fill="none" stroke="#FFFFFF" stroke-width="0.5457" stroke-linecap="round" stroke-miterlimit="10" x1="168.343" y1="70.832" x2="171.621" y2="72.724"/>
			
				<line fill="none" stroke="#FFFFFF" stroke-width="0.5457" stroke-linecap="round" stroke-miterlimit="10" x1="168.698" y1="72.084" x2="170.027" y2="71.805"/>
			
				<line fill="none" stroke="#FFFFFF" stroke-width="0.5457" stroke-linecap="round" stroke-miterlimit="10" x1="169.605" y1="70.513" x2="170.027" y2="71.805"/>
		</g>
		<g>
			
				<line fill="none" stroke="#FFFFFF" stroke-width="0.5457" stroke-linecap="round" stroke-miterlimit="10" x1="168.343" y1="74.618" x2="171.621" y2="72.725"/>
			
				<line fill="none" stroke="#FFFFFF" stroke-width="0.5457" stroke-linecap="round" stroke-miterlimit="10" x1="169.605" y1="74.937" x2="170.027" y2="73.645"/>
			
				<line fill="none" stroke="#FFFFFF" stroke-width="0.5457" stroke-linecap="round" stroke-miterlimit="10" x1="168.698" y1="73.365" x2="170.027" y2="73.645"/>
		</g>
		<g>
			
				<line fill="none" stroke="#FFFFFF" stroke-width="0.5457" stroke-linecap="round" stroke-miterlimit="10" x1="174.827" y1="74.618" x2="171.55" y2="72.724"/>
			
				<line fill="none" stroke="#FFFFFF" stroke-width="0.5457" stroke-linecap="round" stroke-miterlimit="10" x1="173.566" y1="74.937" x2="173.145" y2="73.645"/>
			
				<line fill="none" stroke="#FFFFFF" stroke-width="0.5457" stroke-linecap="round" stroke-miterlimit="10" x1="174.474" y1="73.365" x2="173.145" y2="73.645"/>
		</g>
	</g>
	<g>
		<g>
			
				<line fill="none" stroke="#FFFFFF" stroke-width="0.5421" stroke-linecap="round" stroke-miterlimit="10" x1="66.572" y1="81.967" x2="66.572" y2="85.728"/>
			
				<line fill="none" stroke="#FFFFFF" stroke-width="0.5421" stroke-linecap="round" stroke-miterlimit="10" x1="65.671" y1="82.895" x2="66.572" y2="83.899"/>
			
				<line fill="none" stroke="#FFFFFF" stroke-width="0.5421" stroke-linecap="round" stroke-miterlimit="10" x1="67.475" y1="82.895" x2="66.572" y2="83.899"/>
		</g>
		<g>
			
				<line fill="none" stroke="#FFFFFF" stroke-width="0.5421" stroke-linecap="round" stroke-miterlimit="10" x1="66.572" y1="89.489" x2="66.572" y2="85.728"/>
			
				<line fill="none" stroke="#FFFFFF" stroke-width="0.5421" stroke-linecap="round" stroke-miterlimit="10" x1="67.475" y1="88.562" x2="66.572" y2="87.557"/>
			
				<line fill="none" stroke="#FFFFFF" stroke-width="0.5421" stroke-linecap="round" stroke-miterlimit="10" x1="65.671" y1="88.562" x2="66.572" y2="87.557"/>
		</g>
		<g>
			
				<line fill="none" stroke="#FFFFFF" stroke-width="0.5421" stroke-linecap="round" stroke-miterlimit="10" x1="69.806" y1="83.791" x2="66.549" y2="85.671"/>
			
				<line fill="none" stroke="#FFFFFF" stroke-width="0.5421" stroke-linecap="round" stroke-miterlimit="10" x1="69.452" y1="85.035" x2="68.132" y2="84.757"/>
			
				<line fill="none" stroke="#FFFFFF" stroke-width="0.5421" stroke-linecap="round" stroke-miterlimit="10" x1="68.552" y1="83.474" x2="68.132" y2="84.757"/>
		</g>
		<g>
			
				<line fill="none" stroke="#FFFFFF" stroke-width="0.5421" stroke-linecap="round" stroke-miterlimit="10" x1="63.37" y1="83.79" x2="66.627" y2="85.67"/>
			
				<line fill="none" stroke="#FFFFFF" stroke-width="0.5421" stroke-linecap="round" stroke-miterlimit="10" x1="63.723" y1="85.035" x2="65.043" y2="84.757"/>
			
				<line fill="none" stroke="#FFFFFF" stroke-width="0.5421" stroke-linecap="round" stroke-miterlimit="10" x1="64.624" y1="83.473" x2="65.043" y2="84.757"/>
		</g>
		<g>
			
				<line fill="none" stroke="#FFFFFF" stroke-width="0.5421" stroke-linecap="round" stroke-miterlimit="10" x1="63.37" y1="87.551" x2="66.627" y2="85.671"/>
			
				<line fill="none" stroke="#FFFFFF" stroke-width="0.5421" stroke-linecap="round" stroke-miterlimit="10" x1="64.624" y1="87.868" x2="65.043" y2="86.585"/>
			
				<line fill="none" stroke="#FFFFFF" stroke-width="0.5421" stroke-linecap="round" stroke-miterlimit="10" x1="63.723" y1="86.307" x2="65.043" y2="86.585"/>
		</g>
		<g>
			
				<line fill="none" stroke="#FFFFFF" stroke-width="0.5421" stroke-linecap="round" stroke-miterlimit="10" x1="69.812" y1="87.551" x2="66.556" y2="85.67"/>
			
				<line fill="none" stroke="#FFFFFF" stroke-width="0.5421" stroke-linecap="round" stroke-miterlimit="10" x1="68.559" y1="87.868" x2="68.14" y2="86.585"/>
			
				<line fill="none" stroke="#FFFFFF" stroke-width="0.5421" stroke-linecap="round" stroke-miterlimit="10" x1="69.46" y1="86.307" x2="68.14" y2="86.585"/>
		</g>
	</g>
	<g>
		<g>
			<path fill="#FFFFFF" d="M68.62,10.784l-4,29.892c-0.033,0.248-0.244,0.434-0.495,0.434s-0.462-0.186-0.495-0.434l-4-29.892H68.62
				z"/>
			<path fill="#FFFFFF" stroke="#FFFFFF" stroke-width="0.5" stroke-linecap="round" stroke-miterlimit="10" d="M69.115,10.96
				l-4,29.892c-0.065,0.494-0.491,0.867-0.99,0.867s-0.925-0.373-0.99-0.867l-4-29.892H69.115z M64.125,40.719v0.5V40.719
				L64.125,40.719L64.125,40.719z M60.201,11.394l3.924,29.322l3.924-29.322H60.201z"/>
		</g>
	</g>
	<path fill="#F0F0F0" stroke="#F0F0F0" stroke-width="0.7365" stroke-miterlimit="10" d="M0.632,125.146
		c0-0.926,0.751-1.677,1.677-1.677h16.044c0.927,0,1.678,0.751,1.678,1.677v334.969c0,0.927-0.751,1.678-1.678,1.678H2.309
		c-0.926,0-1.677-0.751-1.677-1.678V125.146z"/>
	<path fill="#F0F0F0" stroke="#F0F0F0" stroke-width="0.7365" stroke-miterlimit="10" d="M0.632,3.087
		c0-0.926,0.751-1.677,1.677-1.677h16.044c0.927,0,1.678,0.751,1.678,1.677V113.3c0,0.928-0.751,1.678-1.678,1.678H2.309
		c-0.926,0-1.677-0.75-1.677-1.678V3.087z"/>
	<path fill="#C6C6C6" d="M25.147,24.741c0-1.143-0.927-2.07-2.07-2.07l0,0c-1.143,0-2.069,0.927-2.069,2.07v16.72
		c0,1.143,0.927,2.07,2.069,2.07l0,0c1.144,0,2.07-0.927,2.07-2.07V24.741z"/>
	<path fill="#9D9D9C" d="M25.147,33.101v8.36c0,1.143-0.927,2.07-2.07,2.07l0,0c-1.143,0-2.069-0.927-2.069-2.07v-8.36H25.147z"/>
	<path fill="#C6C6C6" d="M25.147,74.926c0-1.143-0.927-2.07-2.07-2.07l0,0c-1.143,0-2.069,0.927-2.069,2.07v16.72
		c0,1.143,0.927,2.07,2.069,2.07l0,0c1.144,0,2.07-0.927,2.07-2.07V74.926z"/>
	<path fill="#9D9D9C" d="M25.147,83.347v8.36c0,1.143-0.927,2.07-2.07,2.07l0,0c-1.143,0-2.069-0.927-2.069-2.07v-8.36H25.147z"/>
	<path fill="#C6C6C6" d="M25.147,147.549c0-1.143-0.927-2.07-2.07-2.07l0,0c-1.143,0-2.069,0.927-2.069,2.07v16.72
		c0,1.143,0.927,2.07,2.069,2.07l0,0c1.144,0,2.07-0.927,2.07-2.07V147.549z"/>
	<path fill="#9D9D9C" d="M25.147,155.909v8.36c0,1.143-0.927,2.07-2.07,2.07l0,0c-1.143,0-2.069-0.927-2.069-2.07v-8.36H25.147z"/>
</g>
<path fill="#C6C6C6" d="M25.147,421.485c0-1.144-0.927-2.07-2.07-2.07l0,0c-1.143,0-2.069,0.927-2.069,2.07v16.72
	c0,1.144,0.927,2.069,2.069,2.069l0,0c1.144,0,2.07-0.926,2.07-2.069V421.485z"/>
<path fill="#9D9D9C" d="M25.147,429.845v8.36c0,1.144-0.927,2.069-2.07,2.069l0,0c-1.143,0-2.069-0.926-2.069-2.069v-8.36H25.147z"
	/>
</svg>
