<?xml version="1.0" encoding="utf-8"?>
<!-- Generator: Adobe Illustrator 17.0.0, SVG Export Plug-In . SVG Version: 6.00 Build 0)  -->
<!DOCTYPE svg PUBLIC "-//W3C//DTD SVG 1.1//EN" "http://www.w3.org/Graphics/SVG/1.1/DTD/svg11.dtd">
<svg version="1.1" id="Layer_1" xmlns="http://www.w3.org/2000/svg" xmlns:xlink="http://www.w3.org/1999/xlink" x="0px" y="0px" viewBox="0 0 263.433 462.277" enable-background="new 0 0 263.433 462.277"
	 xml:space="preserve">
<g id="Layer_2">
	<rect x="316.619" y="370.542" fill="#65C1C1" width="213.059" height="102.393"/>
</g>
<path fill="#F6F6F6" stroke="#F6F6F6" stroke-width="1.3198" stroke-miterlimit="10" d="M262.773,103.898
	c0,5.831-4.728,10.558-10.558,10.558H40.384c-5.83,0-10.558-4.728-10.558-10.558V11.22c0-5.831,4.727-10.56,10.558-10.56h211.832
	c5.83,0,10.558,4.728,10.558,10.56v92.678H262.773z"/>
<rect x="40.838" y="12.739" fill="#CBDBE6" stroke="#CBDBE6" stroke-width="4.0264" stroke-linecap="round" stroke-linejoin="round" stroke-miterlimit="10" width="209.856" height="90.159"/>
<path fill="#F6F6F6" stroke="#F6F6F6" stroke-width="1.3172" stroke-miterlimit="10" d="M262.237,451.081
	c0,5.819-4.718,10.537-10.537,10.537H40.295c-5.819,0-10.537-4.718-10.537-10.537V134.297c0-5.82,4.718-10.537,10.537-10.537H251.7
	c5.819,0,10.537,4.717,10.537,10.537V451.081z"/>
<path fill="#DADADA" stroke="#DADADA" stroke-width="3.9516" stroke-linecap="round" stroke-linejoin="round" stroke-miterlimit="10" d="
	M245.688,76.82"/>
<path fill="#F0F0F0" stroke="#F0F0F0" stroke-width="1.3172" stroke-miterlimit="10" d="M117.301,114.98"/>
<path fill="#DADADA" stroke="#DADADA" stroke-width="3.9516" stroke-linecap="round" stroke-linejoin="round" stroke-miterlimit="10" d="
	M0,76.82"/>
<path fill="#DADADA" stroke="#DADADA" stroke-width="3.9516" stroke-linecap="round" stroke-linejoin="round" stroke-miterlimit="10" d="
	M0,148.64"/>
<path fill="#F0F0F0" stroke="#F0F0F0" stroke-width="1.3172" stroke-miterlimit="10" d="M71.813,114.98"/>
<polyline fill="#B1CCDB" stroke="#B1CCDB" stroke-width="4.0264" stroke-linecap="round" stroke-linejoin="round" stroke-miterlimit="10" points="
	100.729,102.903 40.838,12.739 40.838,102.898 100.729,102.903 "/>
<path fill="#B1CCDB" stroke="#B1CCDB" stroke-width="4.0264" stroke-linecap="round" stroke-linejoin="round" stroke-miterlimit="10" d="
	M100.729,102.903"/>
<rect x="41.758" y="135.614" fill="#CBDBE6" stroke="#CBDBE6" stroke-width="5" stroke-linecap="round" stroke-linejoin="round" stroke-miterlimit="10" width="208.479" height="313.858"/>
<path fill="#DADADA" stroke="#DADADA" stroke-width="3.9516" stroke-linecap="round" stroke-linejoin="round" stroke-miterlimit="10" d="
	M245.688,148.495"/>
<polygon fill="#B1CCDB" stroke="#B1CCDB" stroke-width="5" stroke-linecap="round" stroke-linejoin="round" stroke-miterlimit="10" points="
	250.237,449.472 41.758,449.472 41.758,135.614 "/>
<line fill="none" stroke="#FFFFFF" stroke-width="3" stroke-linecap="round" stroke-linejoin="round" stroke-miterlimit="10" x1="53.605" y1="203.635" x2="238.39" y2="203.635"/>
<line fill="none" stroke="#FFFFFF" stroke-width="3" stroke-linecap="round" stroke-linejoin="round" stroke-miterlimit="10" x1="53.605" y1="279.181" x2="238.39" y2="279.181"/>
<line fill="none" stroke="#FFFFFF" stroke-width="3" stroke-linecap="round" stroke-linejoin="round" stroke-miterlimit="10" x1="53.605" y1="354.728" x2="238.39" y2="354.728"/>
<g>
	<g>
		
			<line fill="none" stroke="#FFFFFF" stroke-width="0.5421" stroke-linecap="round" stroke-miterlimit="10" x1="50.324" y1="17.693" x2="50.324" y2="21.454"/>
		
			<line fill="none" stroke="#FFFFFF" stroke-width="0.5421" stroke-linecap="round" stroke-miterlimit="10" x1="49.423" y1="18.62" x2="50.324" y2="19.625"/>
		
			<line fill="none" stroke="#FFFFFF" stroke-width="0.5421" stroke-linecap="round" stroke-miterlimit="10" x1="51.227" y1="18.62" x2="50.324" y2="19.625"/>
	</g>
	<g>
		
			<line fill="none" stroke="#FFFFFF" stroke-width="0.5421" stroke-linecap="round" stroke-miterlimit="10" x1="50.324" y1="25.215" x2="50.324" y2="21.454"/>
		
			<line fill="none" stroke="#FFFFFF" stroke-width="0.5421" stroke-linecap="round" stroke-miterlimit="10" x1="51.227" y1="24.287" x2="50.324" y2="23.283"/>
		
			<line fill="none" stroke="#FFFFFF" stroke-width="0.5421" stroke-linecap="round" stroke-miterlimit="10" x1="49.423" y1="24.287" x2="50.324" y2="23.283"/>
	</g>
	<g>
		
			<line fill="none" stroke="#FFFFFF" stroke-width="0.5421" stroke-linecap="round" stroke-miterlimit="10" x1="53.558" y1="19.517" x2="50.301" y2="21.397"/>
		
			<line fill="none" stroke="#FFFFFF" stroke-width="0.5421" stroke-linecap="round" stroke-miterlimit="10" x1="53.204" y1="20.761" x2="51.884" y2="20.483"/>
		
			<line fill="none" stroke="#FFFFFF" stroke-width="0.5421" stroke-linecap="round" stroke-miterlimit="10" x1="52.304" y1="19.2" x2="51.884" y2="20.483"/>
	</g>
	<g>
		
			<line fill="none" stroke="#FFFFFF" stroke-width="0.5421" stroke-linecap="round" stroke-miterlimit="10" x1="47.122" y1="19.516" x2="50.379" y2="21.396"/>
		
			<line fill="none" stroke="#FFFFFF" stroke-width="0.5421" stroke-linecap="round" stroke-miterlimit="10" x1="47.475" y1="20.761" x2="48.795" y2="20.483"/>
		
			<line fill="none" stroke="#FFFFFF" stroke-width="0.5421" stroke-linecap="round" stroke-miterlimit="10" x1="48.376" y1="19.199" x2="48.795" y2="20.483"/>
	</g>
	<g>
		
			<line fill="none" stroke="#FFFFFF" stroke-width="0.5421" stroke-linecap="round" stroke-miterlimit="10" x1="47.122" y1="23.277" x2="50.379" y2="21.397"/>
		
			<line fill="none" stroke="#FFFFFF" stroke-width="0.5421" stroke-linecap="round" stroke-miterlimit="10" x1="48.376" y1="23.594" x2="48.795" y2="22.311"/>
		
			<line fill="none" stroke="#FFFFFF" stroke-width="0.5421" stroke-linecap="round" stroke-miterlimit="10" x1="47.475" y1="22.033" x2="48.795" y2="22.311"/>
	</g>
	<g>
		
			<line fill="none" stroke="#FFFFFF" stroke-width="0.5421" stroke-linecap="round" stroke-miterlimit="10" x1="53.563" y1="23.277" x2="50.308" y2="21.396"/>
		
			<line fill="none" stroke="#FFFFFF" stroke-width="0.5421" stroke-linecap="round" stroke-miterlimit="10" x1="52.311" y1="23.594" x2="51.892" y2="22.311"/>
		
			<line fill="none" stroke="#FFFFFF" stroke-width="0.5421" stroke-linecap="round" stroke-miterlimit="10" x1="53.212" y1="22.033" x2="51.892" y2="22.311"/>
	</g>
</g>
<g>
	<g>
		
			<line fill="none" stroke="#FFFFFF" stroke-width="0.3292" stroke-linecap="round" stroke-miterlimit="10" x1="46.21" y1="26.403" x2="46.21" y2="28.687"/>
		
			<line fill="none" stroke="#FFFFFF" stroke-width="0.3292" stroke-linecap="round" stroke-miterlimit="10" x1="45.663" y1="26.966" x2="46.21" y2="27.576"/>
		
			<line fill="none" stroke="#FFFFFF" stroke-width="0.3292" stroke-linecap="round" stroke-miterlimit="10" x1="46.758" y1="26.966" x2="46.21" y2="27.576"/>
	</g>
	<g>
		
			<line fill="none" stroke="#FFFFFF" stroke-width="0.3292" stroke-linecap="round" stroke-miterlimit="10" x1="46.21" y1="30.971" x2="46.21" y2="28.687"/>
		
			<line fill="none" stroke="#FFFFFF" stroke-width="0.3292" stroke-linecap="round" stroke-miterlimit="10" x1="46.758" y1="30.408" x2="46.21" y2="29.797"/>
		
			<line fill="none" stroke="#FFFFFF" stroke-width="0.3292" stroke-linecap="round" stroke-miterlimit="10" x1="45.663" y1="30.408" x2="46.21" y2="29.797"/>
	</g>
	<g>
		
			<line fill="none" stroke="#FFFFFF" stroke-width="0.3292" stroke-linecap="round" stroke-miterlimit="10" x1="48.174" y1="27.511" x2="46.196" y2="28.652"/>
		
			<line fill="none" stroke="#FFFFFF" stroke-width="0.3292" stroke-linecap="round" stroke-miterlimit="10" x1="47.959" y1="28.266" x2="47.157" y2="28.097"/>
		
			<line fill="none" stroke="#FFFFFF" stroke-width="0.3292" stroke-linecap="round" stroke-miterlimit="10" x1="47.412" y1="27.318" x2="47.157" y2="28.097"/>
	</g>
	<g>
		
			<line fill="none" stroke="#FFFFFF" stroke-width="0.3292" stroke-linecap="round" stroke-miterlimit="10" x1="44.266" y1="27.51" x2="46.243" y2="28.652"/>
		
			<line fill="none" stroke="#FFFFFF" stroke-width="0.3292" stroke-linecap="round" stroke-miterlimit="10" x1="44.479" y1="28.266" x2="45.281" y2="28.097"/>
		
			<line fill="none" stroke="#FFFFFF" stroke-width="0.3292" stroke-linecap="round" stroke-miterlimit="10" x1="45.027" y1="27.318" x2="45.281" y2="28.097"/>
	</g>
	<g>
		
			<line fill="none" stroke="#FFFFFF" stroke-width="0.3292" stroke-linecap="round" stroke-miterlimit="10" x1="44.266" y1="29.794" x2="46.243" y2="28.652"/>
		
			<line fill="none" stroke="#FFFFFF" stroke-width="0.3292" stroke-linecap="round" stroke-miterlimit="10" x1="45.027" y1="29.987" x2="45.281" y2="29.207"/>
		
			<line fill="none" stroke="#FFFFFF" stroke-width="0.3292" stroke-linecap="round" stroke-miterlimit="10" x1="44.479" y1="29.038" x2="45.281" y2="29.207"/>
	</g>
	<g>
		
			<line fill="none" stroke="#FFFFFF" stroke-width="0.3292" stroke-linecap="round" stroke-miterlimit="10" x1="48.177" y1="29.794" x2="46.2" y2="28.652"/>
		
			<line fill="none" stroke="#FFFFFF" stroke-width="0.3292" stroke-linecap="round" stroke-miterlimit="10" x1="47.416" y1="29.987" x2="47.162" y2="29.207"/>
		
			<line fill="none" stroke="#FFFFFF" stroke-width="0.3292" stroke-linecap="round" stroke-miterlimit="10" x1="47.964" y1="29.038" x2="47.162" y2="29.207"/>
	</g>
</g>
<g>
	<g>
		
			<line fill="none" stroke="#FFFFFF" stroke-width="0.5457" stroke-linecap="round" stroke-miterlimit="10" x1="241.03" y1="87.881" x2="241.03" y2="91.667"/>
		
			<line fill="none" stroke="#FFFFFF" stroke-width="0.5457" stroke-linecap="round" stroke-miterlimit="10" x1="240.123" y1="88.814" x2="241.03" y2="89.826"/>
		
			<line fill="none" stroke="#FFFFFF" stroke-width="0.5457" stroke-linecap="round" stroke-miterlimit="10" x1="241.938" y1="88.814" x2="241.03" y2="89.826"/>
	</g>
	<g>
		
			<line fill="none" stroke="#FFFFFF" stroke-width="0.5457" stroke-linecap="round" stroke-miterlimit="10" x1="241.03" y1="95.452" x2="241.03" y2="91.667"/>
		
			<line fill="none" stroke="#FFFFFF" stroke-width="0.5457" stroke-linecap="round" stroke-miterlimit="10" x1="241.938" y1="94.519" x2="241.03" y2="93.508"/>
		
			<line fill="none" stroke="#FFFFFF" stroke-width="0.5457" stroke-linecap="round" stroke-miterlimit="10" x1="240.123" y1="94.519" x2="241.03" y2="93.508"/>
	</g>
	<g>
		
			<line fill="none" stroke="#FFFFFF" stroke-width="0.5457" stroke-linecap="round" stroke-miterlimit="10" x1="244.285" y1="89.717" x2="241.007" y2="91.609"/>
		
			<line fill="none" stroke="#FFFFFF" stroke-width="0.5457" stroke-linecap="round" stroke-miterlimit="10" x1="243.93" y1="90.969" x2="242.601" y2="90.689"/>
		
			<line fill="none" stroke="#FFFFFF" stroke-width="0.5457" stroke-linecap="round" stroke-miterlimit="10" x1="243.022" y1="89.397" x2="242.601" y2="90.689"/>
	</g>
	<g>
		
			<line fill="none" stroke="#FFFFFF" stroke-width="0.5457" stroke-linecap="round" stroke-miterlimit="10" x1="237.807" y1="89.716" x2="241.085" y2="91.609"/>
		
			<line fill="none" stroke="#FFFFFF" stroke-width="0.5457" stroke-linecap="round" stroke-miterlimit="10" x1="238.162" y1="90.969" x2="239.491" y2="90.689"/>
		
			<line fill="none" stroke="#FFFFFF" stroke-width="0.5457" stroke-linecap="round" stroke-miterlimit="10" x1="239.069" y1="89.397" x2="239.491" y2="90.689"/>
	</g>
	<g>
		
			<line fill="none" stroke="#FFFFFF" stroke-width="0.5457" stroke-linecap="round" stroke-miterlimit="10" x1="237.807" y1="93.502" x2="241.085" y2="91.609"/>
		
			<line fill="none" stroke="#FFFFFF" stroke-width="0.5457" stroke-linecap="round" stroke-miterlimit="10" x1="239.069" y1="93.821" x2="239.491" y2="92.529"/>
		
			<line fill="none" stroke="#FFFFFF" stroke-width="0.5457" stroke-linecap="round" stroke-miterlimit="10" x1="238.162" y1="92.249" x2="239.491" y2="92.529"/>
	</g>
	<g>
		
			<line fill="none" stroke="#FFFFFF" stroke-width="0.5457" stroke-linecap="round" stroke-miterlimit="10" x1="244.291" y1="93.502" x2="241.014" y2="91.609"/>
		
			<line fill="none" stroke="#FFFFFF" stroke-width="0.5457" stroke-linecap="round" stroke-miterlimit="10" x1="243.03" y1="93.821" x2="242.608" y2="92.529"/>
		
			<line fill="none" stroke="#FFFFFF" stroke-width="0.5457" stroke-linecap="round" stroke-miterlimit="10" x1="243.938" y1="92.249" x2="242.608" y2="92.529"/>
	</g>
</g>
<g>
	<g>
		
			<line fill="none" stroke="#FFFFFF" stroke-width="0.5457" stroke-linecap="round" stroke-miterlimit="10" x1="174.935" y1="68.996" x2="174.935" y2="72.782"/>
		
			<line fill="none" stroke="#FFFFFF" stroke-width="0.5457" stroke-linecap="round" stroke-miterlimit="10" x1="174.027" y1="69.93" x2="174.935" y2="70.941"/>
		
			<line fill="none" stroke="#FFFFFF" stroke-width="0.5457" stroke-linecap="round" stroke-miterlimit="10" x1="175.843" y1="69.93" x2="174.935" y2="70.941"/>
	</g>
	<g>
		
			<line fill="none" stroke="#FFFFFF" stroke-width="0.5457" stroke-linecap="round" stroke-miterlimit="10" x1="174.935" y1="76.568" x2="174.935" y2="72.782"/>
		
			<line fill="none" stroke="#FFFFFF" stroke-width="0.5457" stroke-linecap="round" stroke-miterlimit="10" x1="175.843" y1="75.634" x2="174.935" y2="74.623"/>
		
			<line fill="none" stroke="#FFFFFF" stroke-width="0.5457" stroke-linecap="round" stroke-miterlimit="10" x1="174.027" y1="75.634" x2="174.935" y2="74.623"/>
	</g>
	<g>
		
			<line fill="none" stroke="#FFFFFF" stroke-width="0.5457" stroke-linecap="round" stroke-miterlimit="10" x1="178.189" y1="70.832" x2="174.911" y2="72.724"/>
		
			<line fill="none" stroke="#FFFFFF" stroke-width="0.5457" stroke-linecap="round" stroke-miterlimit="10" x1="177.833" y1="72.084" x2="176.505" y2="71.805"/>
		
			<line fill="none" stroke="#FFFFFF" stroke-width="0.5457" stroke-linecap="round" stroke-miterlimit="10" x1="176.927" y1="70.513" x2="176.505" y2="71.805"/>
	</g>
	<g>
		
			<line fill="none" stroke="#FFFFFF" stroke-width="0.5457" stroke-linecap="round" stroke-miterlimit="10" x1="171.711" y1="70.831" x2="174.989" y2="72.724"/>
		
			<line fill="none" stroke="#FFFFFF" stroke-width="0.5457" stroke-linecap="round" stroke-miterlimit="10" x1="172.066" y1="72.084" x2="173.395" y2="71.805"/>
		
			<line fill="none" stroke="#FFFFFF" stroke-width="0.5457" stroke-linecap="round" stroke-miterlimit="10" x1="172.974" y1="70.513" x2="173.395" y2="71.805"/>
	</g>
	<g>
		
			<line fill="none" stroke="#FFFFFF" stroke-width="0.5457" stroke-linecap="round" stroke-miterlimit="10" x1="171.711" y1="74.618" x2="174.989" y2="72.724"/>
		
			<line fill="none" stroke="#FFFFFF" stroke-width="0.5457" stroke-linecap="round" stroke-miterlimit="10" x1="172.974" y1="74.936" x2="173.395" y2="73.645"/>
		
			<line fill="none" stroke="#FFFFFF" stroke-width="0.5457" stroke-linecap="round" stroke-miterlimit="10" x1="172.066" y1="73.365" x2="173.395" y2="73.645"/>
	</g>
	<g>
		
			<line fill="none" stroke="#FFFFFF" stroke-width="0.5457" stroke-linecap="round" stroke-miterlimit="10" x1="178.195" y1="74.618" x2="174.918" y2="72.724"/>
		
			<line fill="none" stroke="#FFFFFF" stroke-width="0.5457" stroke-linecap="round" stroke-miterlimit="10" x1="176.935" y1="74.936" x2="176.513" y2="73.645"/>
		
			<line fill="none" stroke="#FFFFFF" stroke-width="0.5457" stroke-linecap="round" stroke-miterlimit="10" x1="177.842" y1="73.365" x2="176.513" y2="73.645"/>
	</g>
</g>
<g>
	<g>
		
			<line fill="none" stroke="#FFFFFF" stroke-width="0.5421" stroke-linecap="round" stroke-miterlimit="10" x1="69.94" y1="81.967" x2="69.94" y2="85.728"/>
		
			<line fill="none" stroke="#FFFFFF" stroke-width="0.5421" stroke-linecap="round" stroke-miterlimit="10" x1="69.039" y1="82.894" x2="69.94" y2="83.899"/>
		
			<line fill="none" stroke="#FFFFFF" stroke-width="0.5421" stroke-linecap="round" stroke-miterlimit="10" x1="70.843" y1="82.894" x2="69.94" y2="83.899"/>
	</g>
	<g>
		
			<line fill="none" stroke="#FFFFFF" stroke-width="0.5421" stroke-linecap="round" stroke-miterlimit="10" x1="69.94" y1="89.489" x2="69.94" y2="85.728"/>
		
			<line fill="none" stroke="#FFFFFF" stroke-width="0.5421" stroke-linecap="round" stroke-miterlimit="10" x1="70.843" y1="88.561" x2="69.94" y2="87.556"/>
		
			<line fill="none" stroke="#FFFFFF" stroke-width="0.5421" stroke-linecap="round" stroke-miterlimit="10" x1="69.039" y1="88.561" x2="69.94" y2="87.556"/>
	</g>
	<g>
		
			<line fill="none" stroke="#FFFFFF" stroke-width="0.5421" stroke-linecap="round" stroke-miterlimit="10" x1="73.174" y1="83.791" x2="69.917" y2="85.671"/>
		
			<line fill="none" stroke="#FFFFFF" stroke-width="0.5421" stroke-linecap="round" stroke-miterlimit="10" x1="72.82" y1="85.034" x2="71.5" y2="84.757"/>
		
			<line fill="none" stroke="#FFFFFF" stroke-width="0.5421" stroke-linecap="round" stroke-miterlimit="10" x1="71.92" y1="83.473" x2="71.5" y2="84.757"/>
	</g>
	<g>
		
			<line fill="none" stroke="#FFFFFF" stroke-width="0.5421" stroke-linecap="round" stroke-miterlimit="10" x1="66.738" y1="83.79" x2="69.995" y2="85.67"/>
		
			<line fill="none" stroke="#FFFFFF" stroke-width="0.5421" stroke-linecap="round" stroke-miterlimit="10" x1="67.091" y1="85.034" x2="68.411" y2="84.757"/>
		
			<line fill="none" stroke="#FFFFFF" stroke-width="0.5421" stroke-linecap="round" stroke-miterlimit="10" x1="67.992" y1="83.473" x2="68.411" y2="84.757"/>
	</g>
	<g>
		
			<line fill="none" stroke="#FFFFFF" stroke-width="0.5421" stroke-linecap="round" stroke-miterlimit="10" x1="66.738" y1="87.551" x2="69.995" y2="85.671"/>
		
			<line fill="none" stroke="#FFFFFF" stroke-width="0.5421" stroke-linecap="round" stroke-miterlimit="10" x1="67.992" y1="87.868" x2="68.411" y2="86.585"/>
		
			<line fill="none" stroke="#FFFFFF" stroke-width="0.5421" stroke-linecap="round" stroke-miterlimit="10" x1="67.091" y1="86.306" x2="68.411" y2="86.585"/>
	</g>
	<g>
		
			<line fill="none" stroke="#FFFFFF" stroke-width="0.5421" stroke-linecap="round" stroke-miterlimit="10" x1="73.18" y1="87.551" x2="69.924" y2="85.67"/>
		
			<line fill="none" stroke="#FFFFFF" stroke-width="0.5421" stroke-linecap="round" stroke-miterlimit="10" x1="71.927" y1="87.868" x2="71.508" y2="86.585"/>
		
			<line fill="none" stroke="#FFFFFF" stroke-width="0.5421" stroke-linecap="round" stroke-miterlimit="10" x1="72.828" y1="86.306" x2="71.508" y2="86.585"/>
	</g>
</g>
<g>
	<g>
		<path fill="#FFFFFF" d="M71.988,10.784l-4,29.892c-0.033,0.248-0.244,0.434-0.495,0.434s-0.462-0.186-0.495-0.434l-4-29.892
			C62.998,10.784,71.988,10.784,71.988,10.784z"/>
		<path fill="#FFFFFF" stroke="#FFFFFF" stroke-width="0.5" stroke-linecap="round" stroke-miterlimit="10" d="M72.483,10.96
			l-4,29.892c-0.065,0.494-0.491,0.867-0.99,0.867s-0.925-0.373-0.99-0.867l-4-29.892C62.503,10.96,72.483,10.96,72.483,10.96z
			 M67.493,40.719v0.5V40.719L67.493,40.719L67.493,40.719z M63.569,11.393l3.924,29.322l3.924-29.322H63.569z"/>
	</g>
</g>
<g>
	<g>
		<path fill="#FFFFFF" d="M83.574,10.784l-2.282,17.055c-0.02,0.142-0.14,0.248-0.282,0.248c-0.144,0-0.264-0.106-0.283-0.248
			l-2.282-17.055H83.574z"/>
		<path fill="#FFFFFF" stroke="#FFFFFF" stroke-width="0.2853" stroke-linecap="round" stroke-miterlimit="10" d="M83.856,10.884
			l-2.282,17.055c-0.037,0.282-0.28,0.495-0.564,0.495c-0.285,0-0.528-0.213-0.565-0.495l-2.282-17.055
			C78.163,10.884,83.856,10.884,83.856,10.884z M81.01,27.864v0.285V27.864L81.01,27.864L81.01,27.864z M78.771,11.132l2.239,16.73
			l2.238-16.73H78.771z"/>
	</g>
</g>
<g>
	<g>
		<path fill="#FFFFFF" d="M231.703,10.701l-2.297,17.167c-0.02,0.143-0.141,0.249-0.284,0.249c-0.145,0-0.266-0.107-0.285-0.249
			l-2.297-17.167H231.703z"/>
		<path fill="#FFFFFF" stroke="#FFFFFF" stroke-width="0.2872" stroke-linecap="round" stroke-miterlimit="10" d="M231.987,10.801
			l-2.297,17.168c-0.037,0.284-0.282,0.498-0.568,0.498c-0.287,0-0.531-0.214-0.569-0.498l-2.297-17.168
			C226.256,10.801,231.987,10.801,231.987,10.801z M229.122,27.893v0.287V27.893L229.122,27.893L229.122,27.893z M226.868,11.051
			l2.254,16.84l2.253-16.84C231.375,11.051,226.868,11.051,226.868,11.051z"/>
	</g>
</g>
<g>
	<g>
		<path fill="#FFFFFF" d="M238.007,10.701l-1.225,9.155c-0.012,0.076-0.076,0.133-0.152,0.133c-0.077,0-0.141-0.057-0.152-0.133
			l-1.225-9.155C235.253,10.701,238.007,10.701,238.007,10.701z"/>
		<path fill="#FFFFFF" stroke="#FFFFFF" stroke-width="0.1531" stroke-linecap="round" stroke-miterlimit="10" d="M238.158,10.754
			l-1.225,9.155c-0.02,0.151-0.15,0.265-0.304,0.265c-0.152,0-0.283-0.114-0.303-0.265l-1.227-9.155
			C235.099,10.754,238.158,10.754,238.158,10.754z M236.63,19.868v0.153V19.868L236.63,19.868L236.63,19.868z M235.428,10.887
			l1.202,8.981l1.202-8.981H235.428z"/>
	</g>
</g>
<path fill="#F0F0F0" stroke="#F0F0F0" stroke-width="0.7365" stroke-miterlimit="10" d="M4,125.145c0-0.926,0.751-1.677,1.677-1.677
	h16.044c0.927,0,1.678,0.751,1.678,1.677v334.969c0,0.927-0.751,1.678-1.678,1.678H5.677c-0.926,0-1.677-0.751-1.677-1.678V125.145z
	"/>
<path fill="#F0F0F0" stroke="#F0F0F0" stroke-width="0.7365" stroke-miterlimit="10" d="M4,3.087C4,2.161,4.751,1.41,5.677,1.41
	h16.044c0.927,0,1.678,0.751,1.678,1.677V113.3c0,0.928-0.751,1.678-1.678,1.678H5.677c-0.926,0-1.677-0.75-1.677-1.678V3.087z"/>
<path fill="#C6C6C6" d="M28.516,24.741c0-1.143-0.927-2.07-2.07-2.07l0,0c-1.142,0-2.069,0.927-2.069,2.07v16.72
	c0,1.143,0.927,2.07,2.069,2.07l0,0c1.144,0,2.07-0.927,2.07-2.07V24.741z"/>
<path fill="#9D9D9C" d="M28.516,33.1v8.36c0,1.143-0.927,2.07-2.07,2.07l0,0c-1.142,0-2.069-0.927-2.069-2.07V33.1H28.516z"/>
<path fill="#C6C6C6" d="M28.516,74.926c0-1.143-0.927-2.07-2.07-2.07l0,0c-1.142,0-2.069,0.927-2.069,2.07v16.72
	c0,1.143,0.927,2.07,2.069,2.07l0,0c1.144,0,2.07-0.927,2.07-2.07V74.926z"/>
<path fill="#9D9D9C" d="M28.516,83.347v8.36c0,1.143-0.927,2.07-2.07,2.07l0,0c-1.142,0-2.069-0.927-2.069-2.07v-8.36H28.516z"/>
<path fill="#C6C6C6" d="M28.516,147.549c0-1.143-0.927-2.07-2.07-2.07l0,0c-1.142,0-2.069,0.927-2.069,2.07v16.72
	c0,1.143,0.927,2.07,2.069,2.07l0,0c1.144,0,2.07-0.927,2.07-2.07V147.549z"/>
<path fill="#9D9D9C" d="M28.516,155.909v8.36c0,1.143-0.927,2.07-2.07,2.07l0,0c-1.142,0-2.069-0.927-2.069-2.07v-8.36H28.516z"/>
<path fill="#C6C6C6" d="M28.516,421.485c0-1.143-0.927-2.07-2.07-2.07l0,0c-1.142,0-2.069,0.927-2.069,2.07v16.72
	c0,1.143,0.927,2.069,2.069,2.069l0,0c1.144,0,2.07-0.926,2.07-2.069V421.485z"/>
<path fill="#9D9D9C" d="M28.516,429.845v8.36c0,1.143-0.927,2.069-2.07,2.069l0,0c-1.142,0-2.069-0.926-2.069-2.069v-8.36H28.516z"
	/>
<g>
	<g opacity="0.6">
		
			<rect x="291.5" y="275.397" fill="#E7E7E7" stroke="#E7E7E7" stroke-width="4.0833" stroke-linecap="round" stroke-linejoin="round" stroke-miterlimit="10" width="80.142" height="64.766"/>
		<g>
			<path fill="#F6F6F6" d="M369.111,287.359v48.232c0,1.127-0.913,2.041-2.042,2.041h-70.997c-1.128,0-2.042-0.914-2.042-2.041
				v-48.232H369.111z"/>
		</g>
		<g>
			<path fill="#F0F0F0" d="M369.111,335.591c0,1.127-0.913,2.041-2.042,2.041h-70.997c-1.128,0-2.042-0.914-2.042-2.041v-48.232
				L369.111,335.591z"/>
		</g>
		<g>
			<path fill="#DEDEDE" d="M374.306,287.094h-85.47c-1.203,0-2.178-0.975-2.178-2.178v-9.763c0-1.203,0.975-2.178,2.178-2.178h85.47
				c1.204,0,2.179,0.975,2.179,2.178v9.763C376.484,286.119,375.51,287.094,374.306,287.094z"/>
		</g>
	</g>
	<g opacity="0.6">
		
			<rect x="393.923" y="275.397" fill="#E7E7E7" stroke="#E7E7E7" stroke-width="4.0833" stroke-linecap="round" stroke-linejoin="round" stroke-miterlimit="10" width="80.142" height="64.766"/>
		<g>
			<path fill="#F6F6F6" d="M471.534,287.359v48.232c0,1.127-0.913,2.041-2.042,2.041h-70.997c-1.128,0-2.042-0.914-2.042-2.041
				v-48.232H471.534z"/>
		</g>
		<g>
			<path fill="#F0F0F0" d="M471.534,335.591c0,1.127-0.913,2.041-2.042,2.041h-70.997c-1.128,0-2.042-0.914-2.042-2.041v-48.232
				L471.534,335.591z"/>
		</g>
		<g>
			<path fill="#DEDEDE" d="M476.728,287.094h-85.47c-1.203,0-2.178-0.975-2.178-2.178v-9.763c0-1.203,0.975-2.178,2.178-2.178h85.47
				c1.204,0,2.179,0.975,2.179,2.178v9.763C478.907,286.119,477.932,287.094,476.728,287.094z"/>
		</g>
	</g>
</g>
</svg>
