<?xml version="1.0" encoding="utf-8"?>
<!-- Generator: Adobe Illustrator 15.0.2, SVG Export Plug-In . SVG Version: 6.00 Build 0)  -->
<!DOCTYPE svg PUBLIC "-//W3C//DTD SVG 1.1//EN" "http://www.w3.org/Graphics/SVG/1.1/DTD/svg11.dtd">
<svg version="1.1" id="Lager_1" xmlns="http://www.w3.org/2000/svg" xmlns:xlink="http://www.w3.org/1999/xlink" x="0px" y="0px"
	 width="192.25px" height="69.229px" viewBox="0 0 192.25 69.229" enable-background="new 0 0 192.25 69.229" xml:space="preserve">
<rect x="4.842" y="2.421" opacity="0.6" fill="#E7E7E7" stroke="#E7E7E7" stroke-width="4.0833" stroke-linecap="round" stroke-linejoin="round" stroke-miterlimit="10" enable-background="new    " width="80.142" height="64.767"/>
<g opacity="0.6">
	<path fill="#F6F6F6" d="M82.453,14.118v48.486c0,1.133-0.913,2.052-2.042,2.052H9.414c-1.128,0-2.042-0.919-2.042-2.052V14.118
		H82.453z"/>
</g>
<g opacity="0.6">
	<path fill="#F0F0F0" d="M82.453,62.615c0,1.127-0.913,2.041-2.042,2.041H9.414c-1.128,0-2.042-0.914-2.042-2.041V14.383
		L82.453,62.615z"/>
</g>
<g opacity="0.9">
	<path fill="#DEDEDE" d="M87.648,14.118H2.178C0.975,14.118,0,13.144,0,11.941V2.178C0,0.975,0.975,0,2.178,0h85.47
		c1.204,0,2.179,0.976,2.179,2.179v9.763C89.826,13.144,88.852,14.118,87.648,14.118z"/>
</g>
<rect x="107.265" y="2.421" opacity="0.6" fill="#E7E7E7" stroke="#E7E7E7" stroke-width="4.0833" stroke-linecap="round" stroke-linejoin="round" stroke-miterlimit="10" enable-background="new    " width="80.143" height="64.767"/>
<g opacity="0.6">
	<path fill="#F6F6F6" d="M184.876,14.118v48.486c0,1.133-0.914,2.052-2.043,2.052h-70.996c-1.129,0-2.043-0.919-2.043-2.052V14.118
		H184.876z"/>
</g>
<g opacity="0.6">
	<path fill="#F0F0F0" d="M184.876,62.615c0,1.127-0.914,2.041-2.043,2.041h-70.996c-1.129,0-2.043-0.914-2.043-2.041V14.383
		L184.876,62.615z"/>
</g>
<g opacity="0.9">
	<path fill="#DEDEDE" d="M190.07,14.118H104.6c-1.203,0-2.179-0.975-2.179-2.178V2.178c0-1.203,0.976-2.179,2.179-2.179h85.47
		c1.204,0,2.18,0.976,2.18,2.179v9.763C192.25,13.144,191.274,14.118,190.07,14.118z"/>
</g>
</svg>
