<?xml version="1.0" encoding="utf-8"?>
<!-- Generator: Adobe Illustrator 15.0.2, SVG Export Plug-In . SVG Version: 6.00 Build 0)  -->
<!DOCTYPE svg PUBLIC "-//W3C//DTD SVG 1.1//EN" "http://www.w3.org/Graphics/SVG/1.1/DTD/svg11.dtd">
<svg version="1.1" xmlns="http://www.w3.org/2000/svg" xmlns:xlink="http://www.w3.org/1999/xlink" x="0px" y="0px"
	 width="614.696px" height="190.574px" viewBox="0 0 614.696 190.574" enable-background="new 0 0 614.696 190.574"
	 xml:space="preserve">
<g id="Lager_2">
</g>
<g id="Lager_1">
	<g>
		<g>
			<g>
				
					<path fill="#3E3D3F" stroke="#3E3D3F" stroke-width="5.6393" stroke-linecap="round" stroke-linejoin="round" stroke-miterlimit="10" d="
					M208.257,156.036h-0.345c-1.657,3.271-2.738,6.883-3.106,10.697L208.257,156.036z"/>
				
					<path fill="#3E3D3F" stroke="#3E3D3F" stroke-width="5.6393" stroke-linecap="round" stroke-linejoin="round" stroke-miterlimit="10" d="
					M492.296,156.035l-151.152,0.002c-1.48-15.322-14.431-16.644-30.134-16.644c-15.706,0-23.983,1.791-28.263,16.643h-20.775
					c-1.481-15.32-19.313-16.643-27.029-16.643c-11.793,0-22.035,6.778-27.03,16.643h-49.274v-25.244h333.657V156.035z"/>
			</g>
			<g>
				
					<path fill="#0771B2" stroke="#0771B2" stroke-width="9.0229" stroke-linecap="round" stroke-linejoin="round" stroke-miterlimit="10" d="
					M504.096,156.037V23.04l97.372,12.971l8.717,120.025h-37.79c0,0-6.411-18.705-29.157-18.705
					c-26.129,0-29.513,18.705-29.513,18.705L504.096,156.037z"/>
			</g>
			<g>
				<path fill="#1A171A" d="M365.25,150.813"/>
			</g>
			<g>
				<circle fill="none" stroke="#1A171A" stroke-width="9.0229" stroke-miterlimit="10" cx="542.259" cy="169.559" r="16.503"/>
			</g>
			<g>
				<circle fill="none" stroke="#1A171A" stroke-width="9.0229" stroke-miterlimit="10" cx="310.905" cy="169.55" r="16.503"/>
			</g>
			<g>
				<circle fill="none" stroke="#1A171A" stroke-width="9.0229" stroke-miterlimit="10" cx="234.612" cy="169.55" r="16.503"/>
			</g>
			<g>
				
					<rect x="158.842" y="4.511" fill="#FFFFFF" stroke="#FFFFFF" stroke-width="9.0229" stroke-linecap="round" stroke-linejoin="round" stroke-miterlimit="10" width="327.483" height="114.661"/>
			</g>
			<g>
				<g>
					<line fill="#FFFFFF" x1="602.685" y1="152.951" x2="602.685" y2="144.647"/>
				</g>
				<g>
					<path fill="#FFFFFF" d="M614.527,154.182h-11.372v-10.768h10.644L614.527,154.182z"/>
				</g>
			</g>
			<g>
				<g>
					<path fill="#EF9201" d="M603.155,154.182h-7.135c-0.68,0-1.233-0.551-1.233-1.231v-8.304c0-0.681,0.554-1.232,1.233-1.232
						h7.135V154.182z"/>
				</g>
			</g>
			<g>
				
					<path fill="#575759" stroke="#575759" stroke-width="5.6393" stroke-linecap="round" stroke-linejoin="round" stroke-miterlimit="10" d="
					M234.943,139.393"/>
			</g>
			<g>
				
					<path fill="#575759" stroke="#575759" stroke-width="5.6393" stroke-linecap="round" stroke-linejoin="round" stroke-miterlimit="10" d="
					M311.01,139.393"/>
			</g>
			<g>
				
					<path fill="#575759" stroke="#575759" stroke-width="5.6393" stroke-linecap="round" stroke-linejoin="round" stroke-miterlimit="10" d="
					M234.943,139.393"/>
			</g>
			<g>
				
					<path fill="#575759" stroke="#575759" stroke-width="5.6393" stroke-linecap="round" stroke-linejoin="round" stroke-miterlimit="10" d="
					M311.01,139.393"/>
			</g>
			<g>
				
					<path fill="none" stroke="#3E3D3F" stroke-width="6.7671" stroke-linecap="round" stroke-linejoin="round" stroke-miterlimit="10" d="
					M265.078,166.733c-1.481-15.32-14.432-27.34-30.135-27.34c-15.705,0-28.657,12.02-30.137,27.34"/>
			</g>
			<g>
				
					<path fill="none" stroke="#3E3D3F" stroke-width="6.7671" stroke-linecap="round" stroke-linejoin="round" stroke-miterlimit="10" d="
					M341.144,166.735c-1.48-15.322-14.431-27.342-30.134-27.342c-15.706,0-28.657,12.02-30.138,27.34"/>
			</g>
			<g>
				
					<path fill="none" stroke="#00578B" stroke-width="6.7671" stroke-linecap="round" stroke-linejoin="round" stroke-miterlimit="10" d="
					M572.395,166.735c-1.48-15.322-14.433-27.342-30.136-27.342c-15.705,0-28.656,12.02-30.137,27.34"/>
			</g>
			
				<polygon fill="#DEE9EE" stroke="#DEE9EE" stroke-width="3.5518" stroke-linecap="round" stroke-linejoin="round" stroke-miterlimit="10" points="
				601.322,95.787 564.586,95.787 564.586,53.029 599.398,53.029 			"/>
			
				<rect x="535.657" y="53.029" fill="#DEE9EE" stroke="#DEE9EE" stroke-width="3.5518" stroke-linecap="round" stroke-linejoin="round" stroke-miterlimit="10" width="17.407" height="42.758"/>
			<g>
				<circle fill="#EAEAEC" cx="542.259" cy="169.559" r="12.5"/>
				<path fill="#D8D8D9" d="M542.259,182.06c-6.903,0-12.5-5.597-12.5-12.501c0-6.903,5.597-12.5,12.5-12.5V182.06z"/>
			</g>
			<g>
				<circle fill="#EAEAEC" cx="310.905" cy="169.559" r="12.5"/>
				<path fill="#D8D8D9" d="M310.906,182.06c-6.904,0-12.501-5.597-12.501-12.501c0-6.903,5.597-12.5,12.501-12.5V182.06z"/>
			</g>
			<g>
				<circle fill="#EAEAEC" cx="234.612" cy="169.559" r="12.5"/>
				<path fill="#D8D8D9" d="M234.613,182.06c-6.904,0-12.501-5.597-12.501-12.501c0-6.903,5.597-12.5,12.501-12.5V182.06z"/>
			</g>
			<g>
				<g>
					<polygon fill="#F5F4F5" points="486.325,119.172 158.842,119.172 158.842,4.511 					"/>
					<path fill="#F5F4F5" d="M490.859,119.172c0,2.491-2.019,4.512-4.512,4.512c-0.008-0.002-0.014-0.002-0.022,0H158.842
						c-2.491,0-4.511-2.021-4.511-4.512V4.511c0-1.462,0.709-2.834,1.901-3.68L490.859,119.172z M163.354,114.662h296.436
						L163.354,10.871V114.662z"/>
				</g>
			</g>
		</g>
		<path fill="#FFFFFF" d="M128.376,122.788c0.001-0.056,0.009-0.11,0.009-0.167c0-11.046-8.954-20-20-20
			c-2.101,0-4.124,0.327-6.026,0.928C97.337,89.931,84.246,80.22,68.885,80.22c-16.889,0-31.025,11.741-34.717,27.504
			c-0.529,1.001-1.026,2.029-1.464,3.104c-16.21-1.551-30.721,10.18-32.519,26.418c-1.819,16.395,9.997,31.154,26.389,32.969
			c2.475,0.273,4.903,0.205,7.267-0.113c3.551,9.443,12.129,16.605,22.843,17.789c11.706,1.301,22.484-4.916,27.6-14.778
			c3.801,4.152,9.047,7.011,15.078,7.677c13.205,1.467,25.103-8.055,26.57-21.262c0.064-0.581,0.1-1.158,0.121-1.733
			c0.008,0,0.017,0.001,0.024,0.001c9.713,0,17.587-7.874,17.587-17.587C143.663,131.276,137,123.917,128.376,122.788z"/>
		<g>
			<g>
				<g>
					<path fill="#53AF6E" d="M105.615,132.799c-2.527-0.041-17.311-0.081-22.088-2.341c-11.765-5.554-11.765-23.794-11.765-23.794
						s24.985-2.751,28.182,15.653c1.243,7.201,1.286,6.824,5.947,7.513h5.463v2.969H105.615z"/>
				</g>
			</g>
			<g>
				<g>
					<path fill="#45A260" d="M95.916,135.483c-2.526,0.037-17.308,0.083-22.086,2.335c-11.767,5.561-11.767,23.8-11.767,23.8
						s24.985,2.751,28.18-15.656c1.251-7.201,1.295-6.816,5.949-7.514h15.162v-2.965H95.916z"/>
				</g>
				<g>
					<path fill="#45A260" d="M91.494,135.566c-5.496,0.147-14.203,0.623-17.664,2.252c-11.767,5.561-11.767,23.8-11.767,23.8"/>
				</g>
			</g>
			<g>
				<g>
					<path fill="#53AF6E" d="M66.16,131.491c-2.523,0.036-17.305,0.084-22.083,2.336c-11.768,5.562-11.768,23.801-11.768,23.801
						s24.983,2.75,28.177-15.659c1.254-7.201,1.294-6.816,5.95-7.514h11.401v-2.964H66.16z"/>
				</g>
				<g>
					<path fill="#53AF6E" d="M61.74,131.575c-5.494,0.146-14.202,0.621-17.663,2.252c-11.768,5.562-11.768,23.801-11.768,23.801"/>
				</g>
			</g>
		</g>
	</g>
</g>
</svg>
