<?xml version="1.0" encoding="utf-8"?>
<!-- Generator: Adobe Illustrator 15.0.2, SVG Export Plug-In . SVG Version: 6.00 Build 0)  -->
<!DOCTYPE svg PUBLIC "-//W3C//DTD SVG 1.1//EN" "http://www.w3.org/Graphics/SVG/1.1/DTD/svg11.dtd">
<svg version="1.1" id="Lager_1" xmlns="http://www.w3.org/2000/svg" xmlns:xlink="http://www.w3.org/1999/xlink" x="0px" y="0px"
	 width="247.199px" height="185.56px" viewBox="0 0 247.199 185.56" enable-background="new 0 0 247.199 185.56"
	 xml:space="preserve">
<g>
	<path fill="#FFFFFF" d="M220.896,73.245c0-0.098,0.012-0.191,0.012-0.289c0-19.003-15.404-34.413-34.412-34.413
		c-3.613,0-7.096,0.562-10.369,1.596C167.486,16.707,144.963,0,118.531,0C89.471,0,65.146,20.199,58.793,47.324
		c-0.91,1.723-1.764,3.493-2.521,5.34C28.379,49.996,3.41,70.183,0.318,98.123c-3.131,28.209,17.203,53.604,45.404,56.727
		c4.262,0.473,8.441,0.354,12.506-0.191c6.107,16.248,20.871,28.569,39.305,30.606c20.145,2.238,38.689-8.458,47.49-25.428
		c6.539,7.146,15.566,12.062,25.943,13.206c22.725,2.525,43.197-13.856,45.719-36.582c0.113-1.001,0.174-1.994,0.211-2.98
		c0.014,0,0.029,0.003,0.041,0.003c16.711,0,30.262-13.552,30.262-30.267C247.199,87.848,235.732,75.189,220.896,73.245z"/>
	<g>
		<g>
			<g>
				<path fill="#54B171" d="M181.732,90.469c-4.35-0.066-29.789-0.138-38.012-4.025c-20.238-9.557-20.238-40.939-20.238-40.939
					s42.99-4.736,48.492,26.937c2.137,12.391,2.211,11.739,10.23,12.927h9.4v5.104L181.732,90.469L181.732,90.469z"/>
			</g>
		</g>
		<g>
			<g>
				<path fill="#44A260" d="M165.039,95.089c-4.344,0.063-29.777,0.143-38.002,4.02c-20.244,9.565-20.244,40.949-20.244,40.949
					s42.988,4.732,48.486-26.938c2.152-12.392,2.23-11.729,10.236-12.929h26.09v-5.102H165.039L165.039,95.089z"/>
			</g>
			<g>
				<path fill="#44A260" d="M157.432,95.231c-9.457,0.255-24.439,1.069-30.395,3.877c-20.244,9.565-20.244,40.949-20.244,40.949"/>
			</g>
		</g>
		<g>
			<g>
				<path fill="#54B171" d="M113.84,88.218c-4.34,0.062-29.775,0.146-37.996,4.021c-20.248,9.567-20.248,40.951-20.248,40.951
					s42.988,4.731,48.48-26.942c2.16-12.391,2.229-11.729,10.24-12.93h19.617v-5.103L113.84,88.218L113.84,88.218z"/>
			</g>
			<g>
				<path fill="#54B171" d="M106.236,88.364c-9.455,0.247-24.439,1.067-30.393,3.876c-20.248,9.569-20.248,40.951-20.248,40.951"/>
			</g>
		</g>
	</g>
</g>
</svg>
