<?xml version="1.0" encoding="utf-8"?>
<!-- Generator: Adobe Illustrator 15.0.2, SVG Export Plug-In . SVG Version: 6.00 Build 0)  -->
<!DOCTYPE svg PUBLIC "-//W3C//DTD SVG 1.1//EN" "http://www.w3.org/Graphics/SVG/1.1/DTD/svg11.dtd">
<svg version="1.1" id="Lager_1" xmlns="http://www.w3.org/2000/svg" xmlns:xlink="http://www.w3.org/1999/xlink" x="0px" y="0px"
	 width="792.145px" height="327.916px" viewBox="0 0 792.145 327.916" enable-background="new 0 0 792.145 327.916"
	 xml:space="preserve">
<g>
	<g>
		
			<path fill="#3F3E3F" stroke="#3F3E3F" stroke-width="9.7034" stroke-linecap="round" stroke-linejoin="round" stroke-miterlimit="10" d="
			M92.79,268.487h-0.592c-2.854,5.631-4.711,11.844-5.348,18.406L92.79,268.487z"/>
		
			<path fill="#3F3E3F" stroke="#3F3E3F" stroke-width="9.7034" stroke-linecap="round" stroke-linejoin="round" stroke-miterlimit="10" d="
			M581.532,268.487l-260.084,0.001c-2.547-26.362-24.832-28.638-51.85-28.638c-27.027,0-41.271,3.084-48.635,28.637h-35.746
			c-2.549-26.361-33.23-28.637-46.51-28.637c-20.293,0-37.914,11.664-46.51,28.637H7.413V225.05h574.119V268.487z"/>
	</g>
	<g>
		
			<path fill="#0973B4" stroke="#0973B4" stroke-width="15.5254" stroke-linecap="round" stroke-linejoin="round" stroke-miterlimit="10" d="
			M601.837,268.488V39.645l167.545,22.316l15,206.525h-65.025c0,0-11.031-32.187-50.174-32.187
			c-44.957,0-50.779,32.187-50.779,32.187L601.837,268.488z"/>
	</g>
	<g>
		<path fill="#1C191C" d="M362.923,259.502"/>
	</g>
	<g>
		<path fill="none" stroke="#1C191C" stroke-width="15.5254" stroke-miterlimit="10" d="M639.106,291.757
			c0,15.68,12.715,28.396,28.396,28.396c15.68,0,28.396-12.718,28.396-28.396c0-15.681-12.717-28.396-28.396-28.396
			C651.821,263.361,639.106,276.076,639.106,291.757z"/>
	</g>
	<g>
		<path fill="none" stroke="#1C191C" stroke-width="15.5254" stroke-miterlimit="10" d="M241.019,291.74
			c0,15.684,12.713,28.396,28.396,28.396c15.68,0,28.398-12.715,28.398-28.396c0-15.681-12.719-28.392-28.398-28.392
			C253.731,263.351,241.019,276.062,241.019,291.74z"/>
	</g>
	<g>
		<path fill="none" stroke="#1C191C" stroke-width="15.5254" stroke-miterlimit="10" d="M109.741,291.74
			c0,15.684,12.717,28.396,28.398,28.396s28.395-12.715,28.395-28.396c0-15.681-12.713-28.392-28.395-28.392
			S109.741,276.062,109.741,291.74z"/>
	</g>
	<g>
		
			<rect x="7.763" y="7.763" fill="#FFFFFF" stroke="#FFFFFF" stroke-width="15.5254" stroke-linecap="round" stroke-linejoin="round" stroke-miterlimit="10" width="563.494" height="197.298"/>
	</g>
	<g>
		<g>
			<line fill="none" x1="771.476" y1="263.181" x2="771.476" y2="248.893"/>
		</g>
		<g>
			<path fill="#FFFFFF" d="M791.853,265.299h-19.568v-18.528h18.316L791.853,265.299z"/>
		</g>
	</g>
	<g>
		<g>
			<path fill="#EE9107" d="M772.284,265.299h-12.277c-1.166,0-2.121-0.947-2.121-2.118v-14.288c0-1.174,0.955-2.122,2.121-2.122
				h12.277V265.299z"/>
		</g>
	</g>
	<g>
		
			<path fill="#59595C" stroke="#59595C" stroke-width="9.7034" stroke-linecap="round" stroke-linejoin="round" stroke-miterlimit="10" d="
			M138.708,239.852"/>
	</g>
	<g>
		
			<path fill="#59595C" stroke="#59595C" stroke-width="9.7034" stroke-linecap="round" stroke-linejoin="round" stroke-miterlimit="10" d="
			M269.599,239.852"/>
	</g>
	<g>
		
			<path fill="#59595C" stroke="#59595C" stroke-width="9.7034" stroke-linecap="round" stroke-linejoin="round" stroke-miterlimit="10" d="
			M138.708,239.852"/>
	</g>
	<g>
		
			<path fill="#59595C" stroke="#59595C" stroke-width="9.7034" stroke-linecap="round" stroke-linejoin="round" stroke-miterlimit="10" d="
			M269.599,239.852"/>
	</g>
	<g>
		
			<path fill="none" stroke="#3F3E3F" stroke-width="11.6441" stroke-linecap="round" stroke-linejoin="round" stroke-miterlimit="10" d="
			M190.563,286.895c-2.549-26.362-24.836-47.043-51.855-47.043c-27.023,0-49.309,20.681-51.857,47.043"/>
	</g>
	<g>
		
			<path fill="none" stroke="#3F3E3F" stroke-width="11.6441" stroke-linecap="round" stroke-linejoin="round" stroke-miterlimit="10" d="
			M321.448,286.897c-2.547-26.366-24.832-47.047-51.85-47.047c-27.027,0-49.312,20.681-51.859,47.043"/>
	</g>
	<g>
		
			<path fill="none" stroke="#05598C" stroke-width="11.6441" stroke-linecap="round" stroke-linejoin="round" stroke-miterlimit="10" d="
			M719.356,286.897c-2.549-26.366-24.832-47.047-51.854-47.047c-27.023,0-49.309,20.681-51.857,47.043"/>
	</g>
	
		<polygon fill="#DEEAED" stroke="#DEEAED" stroke-width="6.1115" stroke-linecap="round" stroke-linejoin="round" stroke-miterlimit="10" points="
		769.134,164.817 705.919,164.817 705.919,91.245 765.817,91.245 	"/>
	
		<rect x="656.144" y="91.245" fill="#DEEAED" stroke="#DEEAED" stroke-width="6.1115" stroke-linecap="round" stroke-linejoin="round" stroke-miterlimit="10" width="29.947" height="73.571"/>
	<g>
		<circle fill="#E9E8EB" cx="667.501" cy="291.757" r="21.509"/>
		<path fill="#D8D8DA" d="M667.503,313.27c-11.881,0-21.51-9.633-21.51-21.513c0-11.878,9.629-21.508,21.51-21.508V313.27z"/>
	</g>
	<g>
		<path fill="#E9E8EB" d="M290.925,291.757c0,11.881-9.625,21.513-21.51,21.513c-11.877,0-21.51-9.632-21.51-21.513
			c0-11.878,9.633-21.508,21.51-21.508C281.3,270.249,290.925,279.879,290.925,291.757z"/>
		<path fill="#D8D8DA" d="M269.415,313.27c-11.877,0-21.51-9.633-21.51-21.513c0-11.878,9.633-21.508,21.51-21.508V313.27z"/>
	</g>
	<g>
		<circle fill="#E9E8EB" cx="138.14" cy="291.757" r="21.509"/>
		<path fill="#D8D8DA" d="M138.142,313.27c-11.879,0-21.51-9.633-21.51-21.513c0-11.878,9.631-21.508,21.51-21.508V313.27z"/>
	</g>
	<g>
		<g>
			<polygon fill="#F5F3F4" points="571.259,205.061 7.765,205.061 7.765,7.763 			"/>
			<path fill="#F5F3F4" d="M579.06,205.061c0,4.283-3.475,7.763-7.762,7.763c-0.014-0.005-0.023-0.005-0.039,0H7.765
				c-4.287,0-7.76-3.479-7.76-7.763V7.763c0-2.519,1.219-4.875,3.266-6.331L579.06,205.061z M15.528,197.295h510.066L15.528,18.703
				V197.295z"/>
		</g>
	</g>
</g>
</svg>
