<?xml version="1.0" encoding="utf-8"?>
<!-- Generator: Adobe Illustrator 15.0.2, SVG Export Plug-In . SVG Version: 6.00 Build 0)  -->
<!DOCTYPE svg PUBLIC "-//W3C//DTD SVG 1.1//EN" "http://www.w3.org/Graphics/SVG/1.1/DTD/svg11.dtd">
<svg version="1.1" id="Lager_1" xmlns="http://www.w3.org/2000/svg" xmlns:xlink="http://www.w3.org/1999/xlink" x="0px" y="0px"
	 width="93.468px" height="115.752px" viewBox="0 0 93.468 115.752" enable-background="new 0 0 93.468 115.752"
	 xml:space="preserve">
<g>
	<g>
		<path fill="#3E3D3F" d="M47.754,23.091c0.008-0.377-0.033-0.857,0.011-1.514c0.063-1.018,0.537-3.769-0.168-4.054
			c-0.702-0.287-7.738,1.089-7.699,1.618c0.035,0.529,2.137,1.402,3.076,2.054C44.927,22.554,47.739,24.027,47.754,23.091z"/>
	</g>
	<polygon fill="#3E3D3F" points="65.947,17.392 60.556,16.902 55.062,17.076 55.876,13.231 57.388,9.639 62.115,7.224 66.301,4.097 
		65.15,0 63.502,0.219 58.237,0.526 53.324,2.894 51.952,6.979 50.316,10.834 50.538,15.127 50.194,19.363 49.98,23.49 
		50.269,23.113 53.423,22.322 57.808,19.931 62.751,20.902 66.672,22.106 70.204,23.587 66.112,23.229 61.84,22.165 57.553,23.256 
		53.581,24.539 49.606,25.658 45.638,25.154 42.237,22.885 38.215,20.503 34.197,18.03 29.574,17.043 24.831,16.598 20.511,18.154 
		16.091,19.262 12.312,21.804 9.002,24.882 6.249,28.416 4.81,32.53 9.084,34.691 13.9,35.79 18.834,35.144 23.788,35.4 
		26.582,38.495 28.221,42.548 29.603,46.708 30.533,47.713 32.416,47.359 32.576,46.281 30.831,40.65 27.997,35.167 32.2,37.37 
		35.727,40.156 40.394,40.238 44.479,36.871 49.103,34.088 54.481,33.546 59.334,33.075 55.627,37.004 55.596,42.657 56.009,44.179 
		57.446,43.314 57.995,42.172 58.901,36.576 63.558,33.701 68.13,34.546 72.646,36.021 76.941,36.329 82.509,34.681 87.687,33.156 
		86.094,28.813 83.035,25.183 78.837,22.986 74.848,20.506 70.496,18.682 	"/>
	<g>
		<path fill="#3E3D3F" d="M62.713,83.737l-1.033,0.153l-0.685,3.438c-0.078,0.406-0.343,0.644-0.763,0.707l-0.336,0.051
			c-0.41,0.062-0.723-0.089-0.914-0.458l-1.677-3.081l-1.033,0.155l1.746,3.239c0.433,0.799,1.127,1.119,2.111,0.972l0.123-0.016
			c0.981-0.147,1.552-0.661,1.729-1.555L62.713,83.737z"/>
		<path fill="#3E3D3F" d="M69.114,87.567l-1.742-3.239c-0.433-0.797-1.127-1.122-2.112-0.975l-0.132,0.021
			c-0.985,0.147-1.553,0.661-1.733,1.552l-0.729,3.608l1.035-0.155l0.688-3.438c0.078-0.407,0.343-0.645,0.76-0.708l0.35-0.051
			c0.404-0.061,0.717,0.092,0.91,0.456l0.756,1.392L64.7,86.399l-0.109,0.88l3.008-0.45l0.485,0.891L69.114,87.567z"/>
		<path fill="#3E3D3F" d="M86.254,85.078l-4.427,0.664l-0.726-4.831l4.428-0.665c0.376-0.058,0.722,0.021,1.058,0.239
			c0.334,0.217,0.529,0.515,0.586,0.881l0.323,2.157c0.061,0.397-0.033,0.743-0.272,1.028
			C86.977,84.842,86.651,85.018,86.254,85.078z M81.951,85.574l4.282-0.641c0.361-0.054,0.654-0.214,0.873-0.476
			c0.214-0.252,0.298-0.561,0.244-0.911l-0.325-2.158c-0.049-0.328-0.22-0.585-0.52-0.778c-0.303-0.198-0.615-0.27-0.954-0.219
			l-4.285,0.644L81.951,85.574z M79.809,86.045l-4.154,0.624l-0.147-0.992l4.154-0.621c0.285-0.043,0.395-0.171,0.359-0.407
			l-0.092-0.605l-3.364,0.506c-0.396,0.059-0.755-0.013-1.071-0.211c-0.317-0.209-0.511-0.514-0.569-0.911l-0.234-1.555l1.03-0.152
			l0.232,1.552c0.037,0.242,0.186,0.336,0.465,0.296l3.366-0.507l-0.287-1.911l1.03-0.152l0.524,3.496
			c0.059,0.39-0.036,0.735-0.282,1.025C80.524,85.809,80.201,85.986,79.809,86.045z M75.778,86.501l4.011-0.601
			c0.355-0.051,0.646-0.211,0.864-0.476c0.219-0.255,0.303-0.565,0.252-0.911l-0.504-3.349l-0.74,0.109l0.288,1.911L76.44,83.71
			c-0.359,0.056-0.583-0.095-0.631-0.415l-0.214-1.41l-0.738,0.109l0.211,1.413c0.052,0.351,0.222,0.62,0.507,0.804
			c0.285,0.186,0.601,0.247,0.967,0.19l3.514-0.523l0.109,0.745c0.033,0.227-0.022,0.509-0.483,0.577l-4.007,0.601L75.778,86.501z
			 M73.636,86.972l-3.691,0.555l-0.147-0.985l3.689-0.552c0.104-0.016,0.186-0.063,0.272-0.15c0.073-0.084,0.102-0.165,0.086-0.265
			l-0.035-0.241c-0.036-0.242-0.181-0.328-0.464-0.285l-2.786,0.41c-0.396,0.058-0.758-0.013-1.068-0.212
			c-0.32-0.208-0.514-0.511-0.572-0.903l-0.036-0.231c-0.056-0.371,0.046-0.71,0.301-1.015c0.254-0.301,0.569-0.483,0.941-0.54
			l3.896-0.582l0.15,0.981l-3.898,0.586c-0.107,0.015-0.188,0.061-0.265,0.152c-0.079,0.089-0.106,0.17-0.094,0.262l0.035,0.234
			c0.036,0.239,0.181,0.328,0.463,0.285l2.786-0.41c0.397-0.061,0.756,0.006,1.062,0.206c0.325,0.209,0.521,0.517,0.58,0.906
			l0.038,0.239c0.056,0.379-0.046,0.72-0.303,1.015C74.318,86.74,74.011,86.915,73.636,86.972z M70.069,87.355l3.544-0.529
			c0.341-0.051,0.618-0.211,0.85-0.488c0.231-0.268,0.318-0.56,0.268-0.898l-0.036-0.241c-0.053-0.352-0.221-0.613-0.517-0.805
			c-0.271-0.178-0.598-0.238-0.956-0.183l-2.789,0.409c-0.458,0.069-0.596-0.186-0.628-0.409l-0.033-0.234
			c-0.023-0.135,0.018-0.26,0.124-0.379c0.103-0.114,0.214-0.181,0.354-0.204l3.754-0.562l-0.104-0.692l-3.751,0.562
			c-0.341,0.051-0.618,0.211-0.847,0.488c-0.234,0.274-0.321,0.57-0.272,0.898l0.035,0.233c0.054,0.347,0.222,0.616,0.507,0.8
			c0.282,0.183,0.601,0.244,0.97,0.19l2.786-0.409c0.458-0.071,0.595,0.183,0.628,0.409l0.036,0.236
			c0.022,0.143-0.021,0.271-0.125,0.393c-0.106,0.111-0.222,0.173-0.354,0.193l-3.547,0.531L70.069,87.355z M86.127,84.231
			l-3.55,0.534l-0.473-3.15l3.552-0.531c0.14-0.021,0.265,0.007,0.399,0.091c0.135,0.082,0.211,0.191,0.229,0.326l0.326,2.157
			C86.644,83.883,86.587,84.165,86.127,84.231z M82.699,84.598l3.407-0.512c0.285-0.041,0.395-0.168,0.358-0.407l-0.323-2.155
			c-0.015-0.094-0.065-0.165-0.165-0.224c-0.102-0.063-0.196-0.086-0.3-0.068l-3.404,0.509L82.699,84.598z"/>
		<path fill="#3E3D3F" d="M89.864,81.728c0.871-0.133,1.466-0.941,1.336-1.81c-0.066-0.433-0.3-0.796-0.626-1.038l-1.277-0.943
			l-0.938,1.27c-0.247,0.328-0.364,0.748-0.298,1.183C88.19,81.257,88.999,81.854,89.864,81.728 M88.992,79.679l0.468-0.633
			l0.642,0.468c0.16,0.122,0.279,0.306,0.312,0.521c0.063,0.436-0.233,0.84-0.669,0.903c-0.433,0.066-0.835-0.234-0.9-0.666
			C88.812,80.053,88.87,79.842,88.992,79.679"/>
		<path fill="#3E3D3F" d="M88.6,73.293c-0.87,0.13-1.465,0.936-1.333,1.804c0.063,0.435,0.301,0.799,0.626,1.043l1.274,0.941
			l0.939-1.27c0.247-0.328,0.363-0.751,0.298-1.186C90.276,73.758,89.465,73.163,88.6,73.293 M89.473,75.341l-0.468,0.634
			l-0.642-0.474c-0.163-0.119-0.277-0.303-0.311-0.521c-0.065-0.433,0.231-0.835,0.667-0.9c0.433-0.066,0.837,0.233,0.9,0.666
			C89.656,74.964,89.595,75.173,89.473,75.341"/>
		<path fill="#3E3D3F" d="M93.45,76.878c-0.13-0.868-0.939-1.466-1.805-1.336c-0.435,0.066-0.801,0.3-1.04,0.628l-0.947,1.275
			l1.272,0.938c0.328,0.244,0.748,0.364,1.186,0.295C92.984,78.552,93.579,77.743,93.45,76.878 M91.404,77.748l-0.637-0.469
			l0.471-0.639c0.122-0.162,0.306-0.279,0.522-0.312c0.435-0.066,0.837,0.234,0.902,0.667c0.064,0.435-0.233,0.837-0.669,0.903
			C91.778,77.931,91.569,77.873,91.404,77.748"/>
		<path fill="#3E3D3F" d="M85.018,78.143c0.13,0.865,0.937,1.463,1.804,1.333c0.436-0.063,0.799-0.3,1.041-0.626l0.943-1.274
			l-1.271-0.941c-0.326-0.244-0.748-0.364-1.186-0.298C85.483,76.466,84.885,77.274,85.018,78.143 M87.061,77.267l0.639,0.471
			l-0.474,0.639c-0.119,0.163-0.305,0.28-0.521,0.313c-0.433,0.066-0.837-0.234-0.9-0.669c-0.066-0.431,0.231-0.838,0.667-0.901
			C86.689,77.086,86.897,77.147,87.061,77.267"/>
	</g>
	<polygon fill="#3E3D3F" points="84.603,96.307 80.476,94.625 75.72,94.188 70.914,94.004 66.431,92.17 65.255,91.379 
		63.237,91.106 63.542,92.533 67.107,95.167 71.61,96.813 76.423,96.777 80.87,97.897 76.712,99.943 72.104,101.882 67.601,104.169 
		62.69,105.513 57.434,104.839 52.164,104.566 47.229,102.704 42.253,101.704 37.172,102.638 31.91,103.021 26.734,102.823 
		22.653,101.559 18.514,100.389 15.149,98.195 19.948,96.195 25.175,95.075 30.485,94.094 34.701,90.928 36.024,88.801 
		35.373,87.406 33.189,87.771 32.276,89.205 32.08,90.224 27.34,92.224 22.262,93.508 17.147,94.791 12.809,96.836 13.506,101.284 
		16.773,104.828 20.61,107.66 24.877,109.741 29.078,112.031 33.633,113.492 38.35,114.281 43.029,115.38 47.812,115.752 
		52.604,115.492 57.52,114.762 62.275,113.479 66.937,111.882 71.196,109.396 75.605,107.113 79.751,104.297 83.065,100.536 	"/>
	<g>
		<path fill="#3E3D3F" d="M7.781,58.087l1.862,12.155l-3.547,0.542L4.234,58.632l-3.713,0.567L0,55.797l10.972-1.682l0.521,3.404
			L7.781,58.087z"/>
		<path fill="#3E3D3F" d="M11.178,70.008l3.147-16.574l2.428-0.372l7.928,14.875l-3.775,0.58l-1.778-3.569l-3.526,0.539
			l-0.627,3.938L11.178,70.008z M16.478,59.428l-0.336,2.514l1.39-0.211L16.478,59.428z"/>
		<path fill="#3E3D3F" d="M28.276,51.082c1.784-0.274,3.468-0.341,4.688-0.021l0.564,3.675c-2.315-0.561-3.593-0.428-4.73-0.252
			c-2.099,0.32-2.531,2.317-2.094,5.181c0.438,2.862,1.453,4.638,3.55,4.32c1.142-0.176,2.396-0.436,4.438-1.659l0.562,3.672
			c-1.063,0.671-2.694,1.114-4.48,1.387c-4.853,0.742-6.916-2.336-7.656-7.171C22.376,55.382,23.424,51.828,28.276,51.082z"/>
		<path fill="#3E3D3F" d="M40.264,59.499l-0.767,1.242l0.741,4.812l-3.486,0.531L34.37,50.53l3.483-0.534l0.911,5.953l3.715-6.663
			l4.644-0.71l-4.946,7.89l7.85,7.585l-4.666,0.716L40.264,59.499z"/>
		<path fill="#3E3D3F" d="M61.402,55.855l-5.704,0.873l0.967,6.305l-3.527,0.542l-2.384-15.557l9.853-1.512l0.521,3.405
			l-6.326,0.967l0.372,2.427l5.704-0.875L61.402,55.855z"/>
		<path fill="#3E3D3F" d="M69.81,61.402c-5.415,0.827-6.766-3.145-7.387-7.211c-0.626-4.066-0.526-8.262,4.891-9.094
			c5.43-0.829,6.766,3.147,7.387,7.211C75.323,56.375,75.244,60.567,69.81,61.402z M64.117,40.874c1.1-0.168,2.102,0.57,2.272,1.669
			c0.173,1.122-0.567,2.104-1.669,2.274c-1.12,0.171-2.1-0.549-2.272-1.669C62.28,42.05,62.998,41.047,64.117,40.874z M67.835,48.5
			c-2.222,0.341-2.308,1.986-1.824,5.14c0.483,3.155,1.059,4.702,3.279,4.358c2.219-0.339,2.306-1.984,1.819-5.14
			C70.629,49.708,70.054,48.161,67.835,48.5z M69.095,40.113c1.102-0.168,2.104,0.567,2.271,1.669
			c0.174,1.117-0.567,2.104-1.669,2.272c-1.119,0.17-2.099-0.55-2.27-1.672C67.257,41.286,67.975,40.283,69.095,40.113z"/>
		<path fill="#3E3D3F" d="M80.641,59.359l-3.503,0.539L74.753,44.34l5.311-0.812c4.211-0.646,5.801,1.021,6.257,3.985
			c0.295,1.929,0.054,3.392-1.374,4.457l4.468,6.044l-4.208,0.646l-3.756-5.389l-1.699,0.26L80.641,59.359z M79.224,50.107
			l2.056-0.312c1.41-0.217,1.496-0.889,1.372-1.721c-0.125-0.806-0.41-1.401-1.819-1.183l-2.051,0.312L79.224,50.107z"/>
		<path fill="#3E3D3F" d="M22.921,84.493l-2.489,0.379l-3.587-5.666l1.322,7.926l-3.485,0.534l-2.384-15.557l3.648-0.558
			l4.929,7.903l2.33-9.02l3.651-0.558l2.385,15.557l-3.483,0.534l-1.117-7.981L22.921,84.493z"/>
		<path fill="#3E3D3F" d="M30.009,85.315l3.15-16.575l2.425-0.368l7.926,14.874l-3.773,0.578l-1.778-3.567l-3.526,0.542
			l-0.626,3.937L30.009,85.315z M35.307,74.74l-0.333,2.514l1.389-0.213L35.307,74.74z"/>
		<path fill="#3E3D3F" d="M46.316,70.377l1.86,12.154l-3.545,0.545L42.77,70.921l-3.712,0.567l-0.521-3.399l10.971-1.682
			l0.522,3.399L46.316,70.377z"/>
		<path fill="#3E3D3F" d="M61.4,74.054l-5.891,0.9l0.445,2.906l6.491-0.998l0.521,3.402l-9.978,1.529l-2.384-15.557l9.977-1.527
			l0.521,3.399l-6.493,0.995l0.374,2.428l5.891-0.903L61.4,74.054z"/>
		<path fill="#3E3D3F" d="M73.193,78.697l-6.656-7.555l1.326,8.371l-3.443,0.529l-2.387-15.557l2.761-0.423l6.656,7.555
			l-1.325-8.371l3.442-0.529l2.385,15.557L73.193,78.697z"/>
		<path fill="#3E3D3F" d="M78.814,73.377L76.346,62.29l3.901-0.595l0.972,11.314L78.814,73.377z M80.135,73.982
			c1.099-0.168,2.106,0.569,2.272,1.669c0.173,1.119-0.57,2.102-1.667,2.27c-1.122,0.173-2.102-0.547-2.272-1.667
			C78.298,75.155,79.015,74.152,80.135,73.982z"/>
	</g>
</g>
</svg>
