<?xml version="1.0" encoding="utf-8"?>
<!-- Generator: Adobe Illustrator 15.0.2, SVG Export Plug-In . SVG Version: 6.00 Build 0)  -->
<!DOCTYPE svg PUBLIC "-//W3C//DTD SVG 1.1//EN" "http://www.w3.org/Graphics/SVG/1.1/DTD/svg11.dtd">
<svg version="1.1" id="Lager_1" xmlns="http://www.w3.org/2000/svg" xmlns:xlink="http://www.w3.org/1999/xlink" x="0px" y="0px"
	 width="200.961px" height="259.292px" viewBox="0 0 200.961 259.292" enable-background="new 0 0 200.961 259.292"
	 xml:space="preserve">
<g>
	<path fill="#FCC10D" stroke="#FCC10D" stroke-linecap="round" stroke-linejoin="round" stroke-miterlimit="10" d="M134.455,115.995
		"/>
</g>
<g>
	<path fill="#30995A" d="M104.186,83.314l-0.801-0.801L21.475,0.603l-0.801-0.801L19.873-1
		C-3.592,22.464-3.592,60.646,19.875,84.112s61.648,23.467,85.112,0.002L104.186,83.314z"/>
	<path fill="#DBE59B" d="M101.625,80.753l-0.844-0.844L24.08,3.208l-0.845-0.845L22.39,1.518c-22.077,22.077-22.075,58,0.002,80.077
		c22.077,22.077,58.001,22.079,80.078,0.002L101.625,80.753z"/>
	<path fill="#E95252" d="M96.274,75.402l-0.824-0.824L29.976,9.104L29.152,8.28l-0.824-0.824
		c-18.96,18.96-18.958,49.809,0.001,68.768C47.291,95.186,78.14,95.188,97.1,76.227L96.274,75.402z"/>
	<g>
		<g>
			<path fill="#42291C" stroke="#42291C" stroke-width="2.1288" stroke-miterlimit="10" d="M68.631,57.912
				c0.114,1.407,0.967,2.484,1.906,2.408c0.937-0.077,1.604-1.279,1.49-2.685c-0.114-1.407-0.999-2.877-1.937-2.801
				C69.15,54.911,68.515,56.506,68.631,57.912z"/>
		</g>
		<g>
			<path fill="#42291C" stroke="#42291C" stroke-width="2.1288" stroke-miterlimit="10" d="M59.405,55.972
				c-0.458,1.334-0.108,2.664,0.782,2.972c0.889,0.305,1.982-0.529,2.44-1.863c0.459-1.335,0.238-3.036-0.651-3.345
				C61.086,53.431,59.864,54.638,59.405,55.972z"/>
		</g>
		<g>
			<path fill="#42291C" stroke="#42291C" stroke-width="2.1288" stroke-miterlimit="10" d="M51.862,50.036
				c-0.977,1.019-1.216,2.37-0.538,3.024c0.679,0.653,2.021,0.354,2.999-0.665c0.977-1.019,1.49-2.657,0.812-3.308
				C54.455,48.434,52.841,49.018,51.862,50.036z"/>
		</g>
		<g>
			<path fill="#42291C" stroke="#42291C" stroke-width="2.1288" stroke-miterlimit="10" d="M45.86,35.57
				c-1.407-0.115-2.484-0.968-2.409-1.907c0.077-0.938,1.279-1.604,2.685-1.49c1.405,0.115,2.877,0.999,2.8,1.938
				C48.862,35.05,47.268,35.686,45.86,35.57z"/>
		</g>
		<g>
			<path fill="#42291C" stroke="#42291C" stroke-width="2.1288" stroke-miterlimit="10" d="M48.337,44.904
				c-1.334,0.458-2.664,0.108-2.972-0.782c-0.305-0.888,0.53-1.981,1.863-2.44c1.335-0.46,3.037-0.238,3.345,0.651
				C50.877,43.222,49.67,44.445,48.337,44.904z"/>
		</g>
	</g>
</g>
<g>
	<g>
		<path fill="#96C222" stroke="#056734" stroke-width="4" stroke-miterlimit="10" d="M153.177,69.565
			c-8.227,16.975-26.312,25.202-40.399,18.375c-14.085-6.826-18.836-26.12-10.61-43.094c8.226-16.975,28.614-29.947,42.7-23.121
			C158.955,28.551,161.404,52.591,153.177,69.565z"/>
	</g>
	<g>
		<path fill="#8DB624" stroke="#056734" stroke-width="4" stroke-miterlimit="10" d="M144.868,21.724
			c14.087,6.827,16.536,30.867,8.31,47.841c-8.227,16.975-26.312,25.202-40.399,18.375"/>
	</g>
	<circle fill="#683D14" stroke="#683D14" stroke-width="1.3691" stroke-miterlimit="10" cx="125.246" cy="62.72" r="15.067"/>
	<path fill="#442A19" stroke="#442A19" stroke-width="1.3691" stroke-miterlimit="10" d="M118.675,76.279
		c7.488,3.629,16.501,0.501,20.13-6.988c3.629-7.488,0.5-16.5-6.988-20.129L118.675,76.279z"/>
</g>
<g>
	<path fill="#FFDA41" d="M102.122,30.06c-11.891-11.89-21.908-2.988-33.577,8.68c-11.67,11.67-20.571,21.688-8.682,33.576
		c12.872,12.874,31.367,12.277,43.038,0.607C114.571,61.255,115.855,43.793,102.122,30.06z"/>
	<g>
		<g>
			<defs>
				<path id="SVGID_1_" d="M102.477,30.416c-3.004-3.058-11.427-11.427-26.208,1.381C55.297,49.969,47.836,61.385,60.392,72.501
					c12.75,11.289,27.561,13.612,42.509,0.422C114.571,62.628,114.222,42.38,102.477,30.416z"/>
			</defs>
			<clipPath id="SVGID_2_">
				<use xlink:href="#SVGID_1_"  overflow="visible"/>
			</clipPath>
			
				<line clip-path="url(#SVGID_2_)" fill="none" stroke="#FFCF15" stroke-width="5.3913" stroke-miterlimit="10" x1="134.083" y1="44.73" x2="90.521" y2="1.168"/>
		</g>
		<g>
			<defs>
				<path id="SVGID_3_" d="M102.477,30.416c-3.004-3.058-11.427-11.427-26.208,1.381C55.297,49.969,47.836,61.385,60.392,72.501
					c12.75,11.289,27.561,13.612,42.509,0.422C114.571,62.628,114.222,42.38,102.477,30.416z"/>
			</defs>
			<clipPath id="SVGID_4_">
				<use xlink:href="#SVGID_3_"  overflow="visible"/>
			</clipPath>
			
				<line clip-path="url(#SVGID_4_)" fill="none" stroke="#FFCF15" stroke-width="5.3913" stroke-miterlimit="10" x1="126.603" y1="52.208" x2="83.042" y2="8.648"/>
		</g>
		<g>
			<defs>
				<path id="SVGID_5_" d="M102.477,30.416c-3.004-3.058-11.427-11.427-26.208,1.381C55.297,49.969,47.836,61.385,60.392,72.501
					c12.75,11.289,27.561,13.612,42.509,0.422C114.571,62.628,114.222,42.38,102.477,30.416z"/>
			</defs>
			<clipPath id="SVGID_6_">
				<use xlink:href="#SVGID_5_"  overflow="visible"/>
			</clipPath>
			
				<line clip-path="url(#SVGID_6_)" fill="none" stroke="#FFCF15" stroke-width="5.3913" stroke-miterlimit="10" x1="119.124" y1="59.689" x2="75.561" y2="16.126"/>
		</g>
		<g>
			<defs>
				<path id="SVGID_7_" d="M102.477,30.416c-3.004-3.058-11.427-11.427-26.208,1.381C55.297,49.969,47.836,61.385,60.392,72.501
					c12.75,11.289,27.561,13.612,42.509,0.422C114.571,62.628,114.222,42.38,102.477,30.416z"/>
			</defs>
			<clipPath id="SVGID_8_">
				<use xlink:href="#SVGID_7_"  overflow="visible"/>
			</clipPath>
			
				<line clip-path="url(#SVGID_8_)" fill="none" stroke="#FFCF15" stroke-width="5.3913" stroke-miterlimit="10" x1="111.642" y1="67.168" x2="68.081" y2="23.608"/>
		</g>
		<g>
			<defs>
				<path id="SVGID_9_" d="M102.477,30.416c-3.004-3.058-11.427-11.427-26.208,1.381C55.297,49.969,47.836,61.385,60.392,72.501
					c12.75,11.289,27.561,13.612,42.509,0.422C114.571,62.628,114.222,42.38,102.477,30.416z"/>
			</defs>
			<clipPath id="SVGID_10_">
				<use xlink:href="#SVGID_9_"  overflow="visible"/>
			</clipPath>
			
				<line clip-path="url(#SVGID_10_)" fill="none" stroke="#FFCF15" stroke-width="5.3913" stroke-miterlimit="10" x1="104.163" y1="74.648" x2="60.601" y2="31.087"/>
		</g>
		<g>
			<defs>
				<path id="SVGID_11_" d="M102.477,30.416c-3.004-3.058-11.427-11.427-26.208,1.381C55.297,49.969,47.836,61.385,60.392,72.501
					c12.75,11.289,27.561,13.612,42.509,0.422C114.571,62.628,114.222,42.38,102.477,30.416z"/>
			</defs>
			<clipPath id="SVGID_12_">
				<use xlink:href="#SVGID_11_"  overflow="visible"/>
			</clipPath>
			
				<line clip-path="url(#SVGID_12_)" fill="none" stroke="#FFCF15" stroke-width="5.3913" stroke-miterlimit="10" x1="96.683" y1="82.128" x2="53.123" y2="38.568"/>
		</g>
		<g>
			<defs>
				<path id="SVGID_13_" d="M102.477,30.416c-3.004-3.058-11.427-11.427-26.208,1.381C55.297,49.969,47.836,61.385,60.392,72.501
					c12.75,11.289,27.561,13.612,42.509,0.422C114.571,62.628,114.222,42.38,102.477,30.416z"/>
			</defs>
			<clipPath id="SVGID_14_">
				<use xlink:href="#SVGID_13_"  overflow="visible"/>
			</clipPath>
			
				<line clip-path="url(#SVGID_14_)" fill="none" stroke="#FFCF15" stroke-width="5.3913" stroke-miterlimit="10" x1="89.204" y1="89.607" x2="45.643" y2="46.046"/>
		</g>
	</g>
</g>
<g>
	
		<polygon fill="#C89D64" stroke="#C89D64" stroke-width="1.3504" stroke-linecap="round" stroke-linejoin="round" stroke-miterlimit="10" points="
		166.661,258.617 163.016,184.824 163.034,71.585 84.511,71.585 5.99,71.585 6.006,184.824 2.362,258.617 	"/>
	
		<polyline fill="#BE915C" stroke="#BE915C" stroke-width="1.3504" stroke-linecap="round" stroke-linejoin="round" stroke-miterlimit="10" points="
		166.661,258.617 163.016,184.824 163.034,94.316 84.511,94.316 5.99,94.316 	"/>
	
		<rect y="65.958" fill="#C89D64" stroke="#C89D64" stroke-width="1.3697" stroke-linecap="round" stroke-linejoin="round" stroke-miterlimit="10" width="169.024" height="28.358"/>
</g>
<g id="Larv">
</g>
</svg>
