<?xml version="1.0" encoding="utf-8"?>
<!-- Generator: Adobe Illustrator 15.0.2, SVG Export Plug-In . SVG Version: 6.00 Build 0)  -->
<!DOCTYPE svg PUBLIC "-//W3C//DTD SVG 1.1//EN" "http://www.w3.org/Graphics/SVG/1.1/DTD/svg11.dtd">
<svg version="1.1" xmlns="http://www.w3.org/2000/svg" xmlns:xlink="http://www.w3.org/1999/xlink" x="0px" y="0px"
	 width="170.395px" height="194.019px" viewBox="0 0 170.395 194.019" enable-background="new 0 0 170.395 194.019"
	 xml:space="preserve">
<g id="Äppelskrutt">
</g>
<g id="Ben">
</g>
<g id="Morot">
</g>
<g id="Påse">
	<g>
		<g>
			<g>
				
					<polygon fill="#CA9E64" stroke="#CA9E64" stroke-width="1.3504" stroke-linecap="round" stroke-linejoin="round" stroke-miterlimit="10" points="
					167.347,193.344 163.703,119.552 163.72,6.312 85.198,6.312 6.676,6.312 6.692,119.552 3.048,193.344 				"/>
			</g>
			<g>
				
					<polyline fill="#BF925C" stroke="#BF925C" stroke-width="1.3504" stroke-linecap="round" stroke-linejoin="round" stroke-miterlimit="10" points="
					167.347,193.344 163.703,119.552 163.72,29.043 85.198,29.043 6.676,29.043 				"/>
			</g>
			<g>
				
					<rect x="0.685" y="0.685" fill="#CA9E64" stroke="#CA9E64" stroke-width="1.3697" stroke-linecap="round" stroke-linejoin="round" stroke-miterlimit="10" width="169.025" height="28.358"/>
			</g>
		</g>
		<g>
			
				<polyline fill="#BF925C" stroke="#BF925C" stroke-width="1.3504" stroke-linecap="round" stroke-linejoin="round" stroke-miterlimit="10" points="
				167.347,193.344 163.703,119.552 163.72,29.043 85.198,29.043 6.676,29.043 			"/>
		</g>
		<g>
			
				<rect x="0.685" y="0.685" fill="#CA9E64" stroke="#CA9E64" stroke-width="1.3697" stroke-linecap="round" stroke-linejoin="round" stroke-miterlimit="10" width="169.025" height="28.358"/>
		</g>
		<g>
			
				<path fill="#9C7040" stroke="#9C7040" stroke-width="1.3504" stroke-linecap="round" stroke-linejoin="round" stroke-miterlimit="10" d="
				M164.882,143.415c0,0-16.629,5.25-31.631,4.901c-10.87-0.253-25.998-7.401-43.091-7.401c-17.241,0-26.987,6.875-48.237,6.875
				c-16.5,0-36.088-10.875-36.088-10.875l-2.786,56.429h164.298l-2.205-44.675L164.882,143.415z"/>
		</g>
		<g opacity="0.79">
			
				<path fill="#936A3D" stroke="#936A3D" stroke-width="1.3504" stroke-linecap="round" stroke-linejoin="round" stroke-miterlimit="10" d="
				M167.347,193.344l-2.205-44.675l-0.26-5.254c0,0-16.629,5.25-31.631,4.901c-3.578-0.083-7.616-0.913-12.034-1.989
				L167.347,193.344z"/>
		</g>
	</g>
</g>
</svg>
