<?xml version="1.0" encoding="utf-8"?>
<!-- Generator: Adobe Illustrator 15.0.2, SVG Export Plug-In . SVG Version: 6.00 Build 0)  -->
<!DOCTYPE svg PUBLIC "-//W3C//DTD SVG 1.1//EN" "http://www.w3.org/Graphics/SVG/1.1/DTD/svg11.dtd">
<svg version="1.1" xmlns="http://www.w3.org/2000/svg" xmlns:xlink="http://www.w3.org/1999/xlink" x="0px" y="0px"
	 width="239.461px" height="380.04px" viewBox="0 0 239.461 380.04" enable-background="new 0 0 239.461 380.04"
	 xml:space="preserve">
<g id="Äppelskrutt">
</g>
<g id="Ben">
</g>
<g id="Morot">
</g>
<g id="Påse">
	<g>
		<g>
			<g>
				
					<path fill="none" stroke="#575759" stroke-width="2.0888" stroke-linecap="round" stroke-linejoin="round" stroke-miterlimit="10" d="
					M176.328,119.485c0,0-23.778,1.298-42.652,15.815"/>
			</g>
			<g>
				
					<path fill="none" stroke="#575759" stroke-width="2.0888" stroke-linecap="round" stroke-linejoin="round" stroke-miterlimit="10" d="
					M178.007,137.121c0,0-19.202,0.465-35.321,10.914"/>
			</g>
			<g>
				
					<path fill="none" stroke="#575759" stroke-width="2.0888" stroke-linecap="round" stroke-linejoin="round" stroke-miterlimit="10" d="
					M175.984,154.462c0,0-14.138-0.222-26.298,6.992"/>
			</g>
			<g>
				
					<path fill="none" stroke="#575759" stroke-width="2.0888" stroke-linecap="round" stroke-linejoin="round" stroke-miterlimit="10" d="
					M169.544,172.201c0,0-7.076-0.6-13.421,2.596"/>
			</g>
			<g>
				
					<path fill="none" stroke="#575759" stroke-width="2.0888" stroke-linecap="round" stroke-linejoin="round" stroke-miterlimit="10" d="
					M136.62,104.332c13.486,8.005,24.088,28.419,25.971,53.019c0.849,11.089-0.185,21.609-2.682,30.73"/>
			</g>
			<g>
				
					<path fill="#D8D8D8" stroke="#D8D8D8" stroke-width="2.0888" stroke-linecap="round" stroke-linejoin="round" stroke-miterlimit="10" d="
					M173.593,103.648c0,0-14.412-25.026-40.639-22.248c-19.856,17.362-11.277,44.94-11.277,44.94
					C144.178,107.082,173.593,103.648,173.593,103.648z"/>
			</g>
			<g>
				
					<path fill="#D8D8D8" stroke="#D8D8D8" stroke-width="2.0888" stroke-linecap="round" stroke-linejoin="round" stroke-miterlimit="10" d="
					M160.81,185.582c-4.306,24.292,15.622,27.758,15.622,27.758S183.809,194.509,160.81,185.582z"/>
			</g>
			<g>
				<g>
					<path fill="#B0B1B2" d="M160.562,185.558c-0.56,24.664-20.779,24.143-20.779,24.143S136.256,189.786,160.562,185.558z"/>
					<path fill="#B0B1B2" d="M160.797,184.497c0.108,0.021,0.667,0.034,0.752,0.328c0.085,0.296,0.059,0.756,0.059,0.756
						c-0.192,8.412-2.633,14.913-7.255,19.319c-6.288,5.989-14.26,5.853-14.597,5.847c-0.496-0.014-0.914-0.375-1-0.863
						c-0.005-0.018-0.08-0.449-0.134-1.174c-0.362-4.721,0.139-20.42,21.76-24.182C160.382,184.528,160.691,184.474,160.797,184.497
						z M159.471,186.827c-18.637,3.833-19.086,17.539-18.766,21.723c0,0.029,0.002,0.057,0.005,0.084
						C144.469,208.409,158.439,206.265,159.471,186.827z"/>
				</g>
			</g>
			<g>
				<g>
					<path fill="#B0B1B2" d="M145.351,111.805c-7.751,3.368-16.103,8.056-23.674,14.536c0,0-8.393-26.974,10.633-44.364
						L145.351,111.805z"/>
					<path fill="#B0B1B2" d="M145.771,112.762c-8.927,3.878-16.802,8.714-23.414,14.371c-0.268,0.229-0.632,0.308-0.969,0.211
						c-0.336-0.096-0.603-0.358-0.708-0.693c-0.052-0.166-1.274-4.147-1.727-10.063c-0.777-10.155,0.787-24.537,12.652-35.381
						c0,0,0.704-0.604,0.768-0.681c0.065-0.077,0.344-0.126,0.344-0.126l0.549,1.159l13.465,30.831L145.771,112.762z
						 M131.949,83.761c-10.273,10.151-11.632,23.29-10.914,32.667c0.271,3.548,0.842,6.407,1.232,8.054
						c6.255-5.137,13.545-9.575,21.71-13.214L131.949,83.761z"/>
				</g>
			</g>
			
				<circle fill="#FFFFFF" stroke="#FFFFFF" stroke-width="2.0639" stroke-linecap="round" stroke-linejoin="round" stroke-miterlimit="10" cx="149.223" cy="94.951" r="5.084"/>
			<path fill="#191619" d="M149.427,97.625c-1.478,0.114-2.766-0.992-2.879-2.47c-0.115-1.476,0.993-2.766,2.469-2.879
				c1.478-0.112,2.769,0.992,2.882,2.47C152.009,96.225,150.905,97.512,149.427,97.625z"/>
		</g>
		<g>
			<polygon fill="#FFD502" points="217.051,171.059 174.533,122.281 137.215,198.361 			"/>
			<polygon fill="#F9C003" points="137.215,198.361 174.533,122.281 196.104,147.027 			"/>
			<circle fill="#FFD502" cx="147.968" cy="184.376" r="2.706"/>
			<circle fill="#F9C003" cx="185.4" cy="174.75" r="2.707"/>
			<circle fill="#F9C003" cx="200.411" cy="165.175" r="2.356"/>
			<path fill="#FFD502" d="M179.746,144.009c1.127-0.982,1.242-2.69,0.26-3.816c-0.98-1.127-2.69-1.245-3.817-0.263
				c-1.125,0.982-1.242,2.69-0.26,3.817C176.908,144.875,178.618,144.991,179.746,144.009z"/>
			<circle fill="#F9C003" cx="182.661" cy="158.737" r="2.707"/>
			<path fill="#F9C003" d="M165.118,180.372c1.987-1.733,2.193-4.749,0.464-6.736c-1.736-1.988-4.75-2.195-6.739-0.462
				c-1.985,1.733-2.19,4.748-0.461,6.735C160.115,181.896,163.131,182.104,165.118,180.372z"/>
			<circle fill="#FFD502" cx="167.053" cy="157.817" r="4.774"/>
			<path fill="#FFD502" d="M165.582,173.636c-1.736-1.988-4.75-2.195-6.739-0.462c-1.985,1.733-2.19,4.748-0.461,6.735
				L165.582,173.636z"/>
			<path fill="#FFD502" d="M184.7,156.959c-0.981-1.128-2.691-1.245-3.818-0.262c-1.126,0.982-1.243,2.692-0.261,3.816
				L184.7,156.959z"/>
		</g>
		<g>
			
				<path fill="#FFEDD1" stroke="#FFEDD1" stroke-width="1.7505" stroke-linecap="round" stroke-linejoin="round" stroke-miterlimit="10" d="
				M216.729,198.274c-0.322-2.029-0.621-4.09,0.237-6.122c1.328-3.152,4.197-7.288,7.207-8.286
				c-1.388-2.852-1.875-4.367-0.543-7.519c2.039-4.841,5.947-8.979,10.914-8.32c-1.861-3.028-1.202-5.428,0.283-8.951
				c0.505-1.199,0.866-1.881,1.689-2.799c-2.606-3.167-3.083-8.015-1.38-12.055c0.653-1.552,1.614-2.883,2.778-3.955
				c-0.834-0.361-1.685-0.726-2.554-1.092c-14.835-6.253-25.499-9.501-30.817-1.081c-2.713,5.765,0.443,8.96,0.443,8.96
				l-19.77,33.749c-0.888,2.104,0.1,4.527,2.203,5.415C187.421,186.219,211.041,194.499,216.729,198.274z"/>
			
				<path fill="#F9C003" stroke="#F9C003" stroke-width="0.276" stroke-linecap="round" stroke-linejoin="round" stroke-miterlimit="10" d="
				M225.033,184.495c-1.306-2.682-1.493-5.888-0.243-8.851c1.917-4.549,6.606-7.078,11.275-6.456
				c-1.749-2.847-2.146-6.462-0.751-9.775c0.474-1.127,1.121-2.127,1.895-2.989c-2.449-2.976-3.204-7.174-1.604-10.971
				c0.265-0.628,0.584-1.212,0.947-1.761l-27.201-0.346l-0.587,46.08l10.22,0.132C220.317,187.091,222.514,185.329,225.033,184.495z
				 M231.264,153.042c2.078,0.028,3.742,1.732,3.716,3.81c-0.028,2.078-1.732,3.74-3.812,3.716c-2.078-0.028-3.74-1.734-3.715-3.812
				C227.479,154.678,229.187,153.016,231.264,153.042z M217.982,152.874c-0.992-0.014-1.784-0.827-1.771-1.816
				c0.011-0.992,0.824-1.784,1.816-1.771c0.99,0.011,1.784,0.825,1.771,1.815C219.784,152.093,218.972,152.886,217.982,152.874z
				 M217.823,165.347c0.019-1.548,1.291-2.789,2.841-2.769c1.549,0.021,2.79,1.292,2.771,2.841c-0.019,1.55-1.29,2.791-2.842,2.772
				C219.041,168.171,217.803,166.897,217.823,165.347z M214.854,180.034c0.028-2.318,1.931-4.172,4.248-4.142
				c2.317,0.027,4.174,1.932,4.145,4.25c-0.03,2.316-1.933,4.174-4.25,4.143C216.679,184.255,214.823,182.353,214.854,180.034z"/>
			
				<path fill="#FFD502" stroke="#FFD502" stroke-width="0.276" stroke-linecap="round" stroke-linejoin="round" stroke-miterlimit="10" d="
				M229.592,170.369c1.953-1.045,4.215-1.482,6.474-1.181c-1.749-2.847-2.146-6.462-0.751-9.775
				c0.474-1.127,1.121-2.127,1.895-2.989c-2.449-2.976-3.204-7.174-1.604-10.971c0.265-0.628,0.584-1.212,0.947-1.761l-27.201-0.346
				L229.592,170.369z M231.264,153.042c2.078,0.028,3.742,1.732,3.716,3.81c-0.028,2.078-1.732,3.74-3.812,3.716
				c-2.078-0.028-3.74-1.734-3.715-3.812C227.479,154.678,229.187,153.016,231.264,153.042z M217.982,152.874
				c-0.992-0.014-1.784-0.827-1.771-1.816c0.011-0.992,0.824-1.784,1.816-1.771c0.99,0.011,1.784,0.825,1.771,1.815
				C219.784,152.093,218.972,152.886,217.982,152.874z"/>
			
				<path fill="none" stroke="#BC8852" stroke-width="2.0422" stroke-linecap="round" stroke-linejoin="round" stroke-miterlimit="10" d="
				M238.317,140.423c-15.271-7.081-28.399-11.242-33.891-2.042c-3.137,6.371,0.439,8.961,0.439,8.961l-19.771,33.753
				c-0.888,2.104,0.099,4.529,2.202,5.416c0,0,16.505,5.083,29.688,12.17"/>
		</g>
		<g>
			<g>
				
					<path fill="#E3342E" stroke="#E3342E" stroke-width="0.372" stroke-linecap="round" stroke-linejoin="round" stroke-miterlimit="10" d="
					M183.175,191.766c9.494-2.442,16.441-10.276,16.441-19.565c0-9.288-6.947-13.089-16.443-14.13L183.175,191.766z"/>
			</g>
			<g>
				
					<path fill="#ED8277" stroke="#ED8277" stroke-width="0.184" stroke-linecap="round" stroke-linejoin="round" stroke-miterlimit="10" d="
					M183.083,180.775c4.696-1.208,8.131-5.083,8.131-9.677s-3.435-6.474-8.131-6.989V180.775z"/>
			</g>
			<g>
				
					<path fill="#FFDF9B" stroke="#FFDF9B" stroke-width="0.0409" stroke-linecap="round" stroke-linejoin="round" stroke-miterlimit="10" d="
					M190.992,164.638c0.396-0.468,0.467-1.061,0.155-1.326c-0.312-0.265-0.886-0.101-1.282,0.367
					c-0.396,0.468-0.577,1.192-0.266,1.458C189.911,165.401,190.596,165.106,190.992,164.638z"/>
			</g>
			<g>
				
					<path fill="#FFDF9B" stroke="#FFDF9B" stroke-width="0.0409" stroke-linecap="round" stroke-linejoin="round" stroke-miterlimit="10" d="
					M193.232,168.07c0.552-0.27,0.854-0.785,0.673-1.154c-0.178-0.367-0.771-0.446-1.321-0.177
					c-0.551,0.268-1.007,0.859-0.829,1.228C191.936,168.334,192.682,168.339,193.232,168.07z"/>
			</g>
			<g>
				
					<path fill="#FFDF9B" stroke="#FFDF9B" stroke-width="0.0409" stroke-linecap="round" stroke-linejoin="round" stroke-miterlimit="10" d="
					M193.728,172.213c0.612-0.013,1.102-0.354,1.094-0.765c-0.007-0.409-0.513-0.729-1.125-0.717
					c-0.615,0.013-1.274,0.357-1.268,0.767C192.438,171.909,193.111,172.225,193.728,172.213z"/>
			</g>
			<g>
				
					<path fill="#FFDF9B" stroke="#FFDF9B" stroke-width="0.0409" stroke-linecap="round" stroke-linejoin="round" stroke-miterlimit="10" d="
					M191.127,178.503c0.396,0.467,0.465,1.061,0.151,1.327c-0.31,0.265-0.886,0.1-1.282-0.368c-0.396-0.466-0.576-1.191-0.265-1.456
					C190.043,177.742,190.728,178.036,191.127,178.503z"/>
			</g>
			<g>
				
					<path fill="#FFDF9B" stroke="#FFDF9B" stroke-width="0.0409" stroke-linecap="round" stroke-linejoin="round" stroke-miterlimit="10" d="
					M193.232,174.875c0.552,0.269,0.854,0.785,0.673,1.153c-0.178,0.367-0.771,0.446-1.321,0.178
					c-0.551-0.27-1.007-0.861-0.829-1.228C191.936,174.609,192.682,174.605,193.232,174.875z"/>
			</g>
			<g>
				
					<path fill="#008E35" stroke="#008E35" stroke-width="0.7924" stroke-linecap="round" stroke-linejoin="round" stroke-miterlimit="10" d="
					M171.882,149.236c6.903,0.05,10.398,2.356,10.398,2.356v-6.798h1.014h1.017v8.262c0,0,4.512-4.292,11.415-4.34
					c-5.557,2.624-6.653,4.361-6.653,4.361s7.526,0.21,11.342,5.312c0,0-7.627-4.326-17.235-3.136
					C183.179,155.253,179.694,150.795,171.882,149.236z"/>
			</g>
		</g>
		<g>
			<g>
				<g>
					
						<path fill="#FFD502" stroke="#FFD502" stroke-width="0.5348" stroke-linecap="round" stroke-linejoin="round" stroke-miterlimit="10" d="
						M80.31,127.76c1.458,16.146-5.902,32.53-20.489,41.888c-17.397,11.164-42.415,9.75-59.554-8.956l2.044-4.693
						c16.809,8.125,34.296,4.688,46.668-3.251c8.818-5.656,14.994-13.879,18.178-23.063c0.12-0.341,0.795-0.724,0.904-1.066
						L80.31,127.76z"/>
				</g>
				<g>
					
						<path fill="#786854" stroke="#786854" stroke-width="0.5348" stroke-linecap="round" stroke-linejoin="round" stroke-miterlimit="10" d="
						M80.314,127.762c1.452,16.141-5.908,32.516-20.489,41.876c-18.309,11.746-43.074,9.217-59.556-8.957l0.921-2.122
						c14.239,10.976,38.231,11.773,53.002,2.294c11.812-7.58,18.883-19.759,20.37-32.692L80.314,127.762z"/>
				</g>
			</g>
			<g>
				<g>
					
						<path fill="#F9C003" stroke="#F9C003" stroke-width="0.6924" stroke-linecap="round" stroke-linejoin="round" stroke-miterlimit="10" d="
						M105.301,184.876"/>
				</g>
				<g>
					<g>
						
							<polygon fill="#5F4B3F" stroke="#5F4B3F" stroke-width="0.6577" stroke-linecap="round" stroke-linejoin="round" stroke-miterlimit="10" points="
							95.632,110.191 87.12,104.701 91.398,100.623 97.583,104.61 						"/>
					</g>
					<g>
						
							<polygon fill="#786854" stroke="#786854" stroke-width="0.6577" stroke-linecap="round" stroke-linejoin="round" stroke-miterlimit="10" points="
							95.632,110.191 97.583,104.61 91.398,100.623 						"/>
					</g>
				</g>
				<g>
					
						<path fill="#FFD502" stroke="#FFD502" stroke-width="0.6924" stroke-linecap="round" stroke-linejoin="round" stroke-miterlimit="10" d="
						M138.138,203.169c-23.884-3.737-39.969-20.279-47.292-37.85c-7.325-17.57-5.39-36.688,3.578-51.92l-9.745-6.271
						c-20.116,15.726-28.127,43.488-17.831,68.191c10.3,24.709,37.974,41.638,70.008,34.354L138.138,203.169z"/>
				</g>
				<g>
					
						<path fill="#F9C003" stroke="#F9C003" stroke-width="0.6924" stroke-linecap="round" stroke-linejoin="round" stroke-miterlimit="10" d="
						M136.855,209.673c-30.941,7.205-59.167-8.348-70.008-34.354c-10.296-24.703-2.285-52.465,17.831-68.191l4.196,2.703
						c-13.848,16.145-18.3,39.321-9.557,60.295c8.741,20.972,34.874,37.804,58.121,36.606L136.855,209.673z"/>
				</g>
				<g>
					<path fill="#5F4B3F" d="M78.032,185.495c-0.178,0.304-0.567,0.402-0.869,0.221c-0.302-0.179-0.399-0.57-0.218-0.873
						c0.178-0.299,0.566-0.396,0.868-0.216C78.116,184.808,78.214,185.196,78.032,185.495z"/>
				</g>
				<g>
					<path fill="#5F4B3F" d="M78.855,188.659c-0.176,0.301-0.565,0.398-0.869,0.22c-0.302-0.179-0.399-0.569-0.22-0.867
						c0.179-0.302,0.568-0.4,0.87-0.22C78.938,187.972,79.036,188.36,78.855,188.659z"/>
				</g>
				<g>
					<path fill="#5F4B3F" d="M79.102,191.745c-0.18,0.3-0.571,0.399-0.871,0.222c-0.302-0.181-0.4-0.571-0.22-0.876
						c0.178-0.297,0.567-0.395,0.87-0.215C79.182,191.056,79.284,191.444,79.102,191.745z"/>
				</g>
				<g>
					<path fill="#5F4B3F" d="M81.136,191.111c-0.182,0.304-0.57,0.397-0.871,0.223c-0.301-0.183-0.399-0.571-0.218-0.876
						c0.178-0.298,0.57-0.396,0.87-0.216C81.221,190.419,81.317,190.809,81.136,191.111z"/>
				</g>
				<g>
					<path fill="#5F4B3F" d="M81.944,194.606c-0.182,0.303-0.569,0.4-0.873,0.223c-0.298-0.184-0.396-0.572-0.214-0.873
						c0.178-0.299,0.566-0.398,0.867-0.217C82.026,193.917,82.124,194.308,81.944,194.606z"/>
				</g>
				<g>
					<circle fill="#5F4B3F" cx="83.586" cy="193.759" r="0.635"/>
				</g>
				<g>
					<circle fill="#5F4B3F" cx="74.877" cy="185.827" r="0.636"/>
				</g>
				<g>
					<path fill="#5F4B3F" d="M74.299,182.524c-0.181,0.298-0.57,0.397-0.87,0.219c-0.302-0.184-0.401-0.57-0.22-0.871
						c0.179-0.302,0.568-0.398,0.872-0.221C74.379,181.833,74.478,182.22,74.299,182.524z"/>
				</g>
			</g>
		</g>
		<g>
			<path fill="#EAEAEC" d="M117.33,193.864v10.857v19.043l0.04,1.651l10.514,10.446c4.056,4.031,4.483,10.178,0.954,13.729l0,0
				c-3.527,3.552-9.678,3.159-13.734-0.868l-2.969-2.947l-2.141-2.131l-2.143,2.131l-2.97,2.947
				c-4.056,4.027-10.207,4.42-13.733,0.868l0,0c-3.53-3.552-3.102-9.698,0.954-13.729l10.515-10.446l0.039-1.651v-19.043v-10.857
				l-0.002-1.248v-10.857v-19.041l-0.04-1.653l-10.514-10.446c-4.056-4.031-4.483-10.179-0.954-13.729l0,0
				c3.528-3.553,9.678-3.159,13.734,0.867l2.968,2.949l2.142,2.128l2.144-2.128l2.969-2.949c4.056-4.026,10.207-4.42,13.734-0.867
				l0,0c3.53,3.55,3.102,9.699-0.954,13.729l-10.515,10.446l-0.04,1.653v19.041v10.857L117.33,193.864z"/>
		</g>
		<g>
			<g>
				<g>
					<path fill="#F39E16" d="M91.685,198.216l3.203-11.638c1.683-9.122-2.152-15.702-8.99-15.702h-3.197h-0.046h-3.197
						c-6.838,0-10.674,6.58-8.99,15.702l3.203,11.638H91.685z"/>
					<path fill="#F39E16" d="M72.922,198.423l-3.205-11.639c-0.005-0.021-0.01-0.043-0.014-0.065
						c-0.996-5.397-0.117-10.236,2.413-13.276c1.822-2.188,4.359-3.343,7.342-3.343h6.44c2.981,0,5.519,1.156,7.341,3.343
						c2.53,3.04,3.409,7.879,2.414,13.277c-0.004,0.022-0.009,0.044-0.016,0.065l-3.203,11.639H72.922z"/>
				</g>
			</g>
			<g>
				
					<path fill="#57B06A" stroke="#57B06A" stroke-width="0.8757" stroke-linecap="round" stroke-linejoin="round" stroke-miterlimit="10" d="
					M77.924,155.166c0,0-8.491-2.657-8.715-8.342c-0.175-4.448,3.7-5.975,7.136-5.042c5.373,1.457,5.118,9.862,5.011,11.089
					c0,0-0.053,1.316-0.16,3.558c0,3.041,0,12.115,0,12.115h-1.565v-13.004L77.924,155.166z"/>
			</g>
			<g>
				
					<path fill="#57B06A" stroke="#57B06A" stroke-width="0.8577" stroke-linecap="round" stroke-linejoin="round" stroke-miterlimit="10" d="
					M86.19,163.371c0,0,8.314-2.603,8.536-8.171c0.169-4.356-3.625-5.853-6.991-4.94c-5.263,1.428-4.61,7.958-4.746,9.769
					c0,0-0.007,2.195-0.007,4.579c0-0.515,0,3.555,0,3.555h1.534v-4.426L86.19,163.371z"/>
			</g>
		</g>
		<g>
			<g>
				<path fill="#004C7C" stroke="#004C7C" stroke-width="0.6307" stroke-miterlimit="10" d="M121.826,194.486
					c-4.499,7.679-13.311,10.875-19.681,7.144c-6.372-3.734-7.89-12.986-3.392-20.664c4.499-7.677,17.534-18.081,23.907-14.346
					C129.03,170.352,126.325,186.81,121.826,194.486z"/>
			</g>
			<g>
				<path fill="#02416B" stroke="#02416B" stroke-width="0.6307" stroke-miterlimit="10" d="M122.66,166.62
					c-6.373-3.734-19.408,6.669-23.907,14.346c-4.498,7.678-2.98,16.93,3.392,20.664l20.451-34.967"/>
			</g>
			<g>
				<path fill="#013960" stroke="#013960" stroke-width="0.5631" stroke-miterlimit="10" d="M122.026,187.81
					c-3.421,5.839-10.122,8.27-14.967,5.432c-4.845-2.84-6-9.874-2.58-15.713c3.421-5.837,13.334-13.749,18.18-10.909
					C127.504,169.458,125.447,181.972,122.026,187.81z"/>
			</g>
			<g>
				<path fill="#002E52" stroke="#002E52" stroke-width="0.5631" stroke-miterlimit="10" d="M122.66,166.62
					c-4.846-2.84-14.759,5.071-18.18,10.909c-3.42,5.839-2.265,12.873,2.58,15.713l15.537-26.579"/>
			</g>
			<g>
				<path fill="#004C7C" stroke="#004C7C" stroke-width="0.6307" stroke-miterlimit="10" d="M122.167,179.786
					c-2.134,3.645-6.317,5.16-9.34,3.389s-3.744-6.161-1.609-9.805c2.136-3.643,8.321-8.58,11.344-6.808
					C125.586,168.333,124.302,176.143,122.167,179.786z"/>
			</g>
			<g>
				<path fill="#03416C" stroke="#03416C" stroke-width="0.6307" stroke-miterlimit="10" d="M112.827,183.175
					c-3.023-1.771-3.744-6.161-1.609-9.805c2.136-3.643,8.321-8.58,11.344-6.808L112.827,183.175z"/>
			</g>
			<g>
				<path fill="#388EC8" stroke="#388EC8" stroke-width="0.6307" stroke-miterlimit="10" d="M122.332,175.563
					c-1.438,2.453-4.253,3.474-6.287,2.282c-2.036-1.192-2.52-4.147-1.083-6.601c1.437-2.451,5.599-5.774,7.634-4.582
					C124.632,167.855,123.767,173.112,122.332,175.563z"/>
			</g>
			<g>
				<path fill="#3080B4" stroke="#3080B4" stroke-width="0.6307" stroke-miterlimit="10" d="M122.596,166.663
					c-2.035-1.192-6.197,2.131-7.634,4.582c-1.437,2.453-0.953,5.408,1.083,6.601L122.596,166.663z"/>
			</g>
		</g>
		<g>
			<g>
				<g>
					<path fill="#E2E381" d="M121.189,198.896c5.096-2.968,8.722-10.59,8.722-19.524c0-8.896-3.596-16.494-8.661-19.487h18.529
						h18.528c-5.063,2.993-8.659,10.59-8.659,19.487c0,8.935,3.627,16.557,8.722,19.524H121.189z"/>
				</g>
			</g>
			<g>
				<g>
					<path fill="#409B2C" d="M139.418,150.109"/>
				</g>
			</g>
			<g>
				<g>
					<path fill="#CBDA81" d="M139.78,198.6h-18.591c5.096-2.968,8.722-10.294,8.722-19.229c0-8.896-3.596-16.285-8.661-19.277
						h18.529v37.858V198.6z"/>
				</g>
			</g>
			<g>
				<g>
					<path fill="#41281A" stroke="#41281A" stroke-width="0.457" stroke-miterlimit="10" d="M138.979,149.938
						c0-5.062-3.911-9.18-9.056-9.18v2.652c3.892,0,7.503,2.719,7.503,6.528H138.979z"/>
				</g>
			</g>
			<g>
				<g>
					<g>
						
							<ellipse fill="#41281A" stroke="#41281A" stroke-width="0.457" stroke-miterlimit="10" cx="143.134" cy="179.274" rx="0.952" ry="2.17"/>
					</g>
				</g>
				<g>
					<g>
						
							<ellipse fill="#41281A" stroke="#41281A" stroke-width="0.457" stroke-miterlimit="10" cx="136.05" cy="179.274" rx="0.952" ry="2.17"/>
					</g>
				</g>
			</g>
			<g>
				<g>
					
						<path fill="#40A42C" stroke="#40A42C" stroke-width="0.39" stroke-linecap="round" stroke-linejoin="round" stroke-miterlimit="10" d="
						M120.907,159.884c0-3.784,3.491-7.56,7.796-7.56c1.167,0,2.276,0.224,3.271,0.63l2.021,0.727
						c3.402,1.108,5.545,1.108,5.545,1.108h0.027c0,0,2.143,0,5.547-1.108l2.021-0.727c0.995-0.407,2.102-0.63,3.271-0.63
						c4.306,0,7.794,3.776,7.794,7.56H120.907z"/>
				</g>
			</g>
			<g>
				<g>
					
						<path fill="#40A42C" stroke="#40A42C" stroke-width="0.3895" stroke-linecap="round" stroke-linejoin="round" stroke-miterlimit="10" d="
						M120.949,198.896c0,3.778,3.487,9.915,7.787,9.915c0,0,2.035-0.023,5.286-1.001c2.792-0.844,5.419-0.82,5.537-0.82h0.203
						c0.117,0,2.742-0.023,5.537,0.82c3.251,0.978,5.286,1.001,5.286,1.001c4.3,0,7.786-6.137,7.786-9.915H120.949z"/>
				</g>
			</g>
		</g>
		<g>
			<g>
				
					<polygon fill="#C89D64" stroke="#C89D64" stroke-width="1.3504" stroke-linecap="round" stroke-linejoin="round" stroke-miterlimit="10" points="
					225.706,379.365 222.062,305.573 222.079,192.333 143.557,192.333 65.036,192.333 65.051,305.573 61.408,379.365 				"/>
			</g>
			<g>
				
					<polyline fill="#BE915C" stroke="#BE915C" stroke-width="1.3504" stroke-linecap="round" stroke-linejoin="round" stroke-miterlimit="10" points="
					225.706,379.365 222.062,305.573 222.079,215.065 143.557,215.065 65.036,215.065 				"/>
			</g>
			<g>
				
					<rect x="59.044" y="186.706" fill="#C89D64" stroke="#C89D64" stroke-width="1.3697" stroke-linecap="round" stroke-linejoin="round" stroke-miterlimit="10" width="169.025" height="28.359"/>
			</g>
		</g>
		<g>
			
				<polyline fill="#BE915C" stroke="#BE915C" stroke-width="1.3504" stroke-linecap="round" stroke-linejoin="round" stroke-miterlimit="10" points="
				225.706,379.365 222.062,305.573 222.079,215.065 143.557,215.065 65.036,215.065 			"/>
		</g>
		<g>
			
				<rect x="59.044" y="186.706" fill="#C89D64" stroke="#C89D64" stroke-width="1.3697" stroke-linecap="round" stroke-linejoin="round" stroke-miterlimit="10" width="169.025" height="28.359"/>
		</g>
		<g>
			
				<path fill="#9B7040" stroke="#9B7040" stroke-width="1.3504" stroke-linecap="round" stroke-linejoin="round" stroke-miterlimit="10" d="
				M223.241,329.437c0,0-16.629,5.25-31.631,4.901c-10.87-0.253-25.998-7.401-43.091-7.401c-17.241,0-26.987,6.875-48.237,6.875
				c-16.5,0-36.088-10.875-36.088-10.875l-2.786,56.429h164.298l-2.205-44.675L223.241,329.437z"/>
		</g>
		<g opacity="0.79">
			
				<path fill="#936A3D" stroke="#936A3D" stroke-width="1.3504" stroke-linecap="round" stroke-linejoin="round" stroke-miterlimit="10" d="
				M225.706,379.365l-2.205-44.675l-0.26-5.254c0,0-16.629,5.25-31.631,4.901c-3.578-0.083-7.616-0.913-12.034-1.989
				L225.706,379.365z"/>
		</g>
		<g>
			
				<path fill="#58585A" stroke="#58585A" stroke-width="0.3376" stroke-linecap="round" stroke-linejoin="round" stroke-miterlimit="10" d="
				M108.845,24.377l-0.041,0.071l-0.061-0.058c0,0-2.748-2.192-4.662-1.011c-1.496,0.927-1.139,2.536-0.074,3.456
				c1.666,1.438,3.705-0.254,4.341-0.618c0,0,0.271-0.181,0.644-0.432"/>
			
				<path fill="#58585A" stroke="#58585A" stroke-width="0.3376" stroke-linecap="round" stroke-linejoin="round" stroke-miterlimit="10" d="
				M110.943,24.212l0.051,0.065l0.05-0.066c0,0,2.374-2.592,4.449-1.722c1.621,0.684,1.519,2.328,0.61,3.402
				c-1.423,1.679-3.699,0.324-4.385,0.062c0,0-0.295-0.134-0.701-0.325"/>
			
				<ellipse transform="matrix(-0.078 -0.997 0.997 -0.078 93.7192 136.4095)" fill="#3D3D3F" stroke="#3D3D3F" stroke-width="0.3958" stroke-linecap="round" stroke-linejoin="round" stroke-miterlimit="10" cx="109.939" cy="24.866" rx="3.176" ry="1.263"/>
		</g>
		<g>
			
				<path fill="#58585A" stroke="#58585A" stroke-width="0.3376" stroke-linecap="round" stroke-linejoin="round" stroke-miterlimit="10" d="
				M186.599,39.245l-0.015,0.081l-0.076-0.035c0,0-3.317-1.164-4.734,0.583c-1.107,1.369-0.239,2.77,1.07,3.287
				c2.045,0.808,3.412-1.461,3.893-2.015c0,0,0.196-0.26,0.465-0.62"/>
			
				<path fill="#58585A" stroke="#58585A" stroke-width="0.3376" stroke-linecap="round" stroke-linejoin="round" stroke-miterlimit="10" d="
				M188.524,38.397l0.069,0.045l0.025-0.08c0,0,1.387-3.229,3.633-3.093c1.756,0.111,2.201,1.697,1.697,3.011
				c-0.789,2.054-3.385,1.526-4.118,1.504c0,0-0.323-0.029-0.77-0.076"/>
			
				<ellipse transform="matrix(-0.4023 -0.9155 0.9155 -0.4023 227.3114 227.1024)" fill="#3D3D3F" stroke="#3D3D3F" stroke-width="0.3958" stroke-linecap="round" stroke-linejoin="round" stroke-miterlimit="10" cx="187.793" cy="39.346" rx="3.175" ry="1.263"/>
		</g>
		<g>
			
				<path fill="#58585A" stroke="#58585A" stroke-width="0.3376" stroke-linecap="round" stroke-linejoin="round" stroke-miterlimit="10" d="
				M228.898,85.386l-0.041,0.071l-0.061-0.058c0,0-2.748-2.192-4.662-1.011c-1.496,0.927-1.139,2.536-0.074,3.456
				c1.666,1.438,3.705-0.254,4.341-0.618c0,0,0.271-0.181,0.644-0.432"/>
			
				<path fill="#58585A" stroke="#58585A" stroke-width="0.3376" stroke-linecap="round" stroke-linejoin="round" stroke-miterlimit="10" d="
				M230.996,85.221l0.051,0.065l0.05-0.066c0,0,2.374-2.592,4.449-1.722c1.621,0.684,1.519,2.328,0.61,3.402
				c-1.423,1.679-3.699,0.324-4.385,0.062c0,0-0.295-0.134-0.701-0.325"/>
			
				<ellipse transform="matrix(-0.078 -0.997 0.997 -0.078 162.308 321.8621)" fill="#3D3D3F" stroke="#3D3D3F" stroke-width="0.3958" stroke-linecap="round" stroke-linejoin="round" stroke-miterlimit="10" cx="229.993" cy="85.875" rx="3.176" ry="1.263"/>
		</g>
		<g>
			
				<path fill="#58585A" stroke="#58585A" stroke-width="0.3376" stroke-linecap="round" stroke-linejoin="round" stroke-miterlimit="10" d="
				M37.11,82.938l-0.046,0.068l-0.055-0.062c0,0-2.569-2.4-4.569-1.371c-1.564,0.807-1.333,2.439-0.344,3.439
				c1.549,1.563,3.713,0.035,4.376-0.279c0,0,0.284-0.157,0.675-0.38"/>
			
				<path fill="#58585A" stroke="#58585A" stroke-width="0.3376" stroke-linecap="round" stroke-linejoin="round" stroke-miterlimit="10" d="
				M39.214,82.938l0.046,0.068l0.055-0.062c0,0,2.569-2.4,4.569-1.371c1.564,0.807,1.333,2.439,0.344,3.439
				c-1.549,1.563-3.713,0.035-4.376-0.279c0,0-0.284-0.157-0.675-0.38"/>
			
				<ellipse fill="#3D3D3F" stroke="#3D3D3F" stroke-width="0.3958" stroke-linecap="round" stroke-linejoin="round" stroke-miterlimit="10" cx="38.163" cy="83.511" rx="1.264" ry="3.176"/>
		</g>
		<g>
			
				<path fill="#58585A" stroke="#58585A" stroke-width="0.3376" stroke-linecap="round" stroke-linejoin="round" stroke-miterlimit="10" d="
				M49.891,50.825l0.002,0.082l-0.081-0.019c0,0-3.483-0.481-4.524,1.512c-0.813,1.561,0.315,2.762,1.701,3.009
				c2.167,0.386,3.055-2.111,3.416-2.75c0,0,0.141-0.292,0.333-0.699"/>
			
				<path fill="#58585A" stroke="#58585A" stroke-width="0.3376" stroke-linecap="round" stroke-linejoin="round" stroke-miterlimit="10" d="
				M51.61,49.613l0.077,0.029l0.01-0.082c0,0,0.717-3.442,2.945-3.753c1.743-0.242,2.495,1.226,2.263,2.613
				c-0.365,2.17-3.015,2.168-3.738,2.293c0,0-0.322,0.035-0.77,0.078"/>
			
				<ellipse transform="matrix(-0.5762 -0.8173 0.8173 -0.5762 39.0851 121.6417)" fill="#3D3D3F" stroke="#3D3D3F" stroke-width="0.3958" stroke-linecap="round" stroke-linejoin="round" stroke-miterlimit="10" cx="51.081" cy="50.687" rx="3.176" ry="1.264"/>
		</g>
		<g>
			
				<path fill="#58585A" stroke="#58585A" stroke-width="0.3376" stroke-linecap="round" stroke-linejoin="round" stroke-miterlimit="10" d="
				M231.685,48.036l-0.062,0.054l-0.037-0.074c0,0-1.854-2.987-4.053-2.517c-1.721,0.37-1.924,2.006-1.23,3.23
				c1.086,1.913,3.575,1.004,4.297,0.874c0,0,0.315-0.079,0.75-0.19"/>
			
				<path fill="#58585A" stroke="#58585A" stroke-width="0.3376" stroke-linecap="round" stroke-linejoin="round" stroke-miterlimit="10" d="
				M233.716,48.584l0.025,0.078l0.07-0.045c0,0,3.105-1.646,4.769-0.129c1.298,1.188,0.649,2.702-0.567,3.409
				c-1.903,1.104-3.593-0.936-4.15-1.413c0,0-0.233-0.226-0.553-0.542"/>
			
				<ellipse transform="matrix(0.2611 -0.9653 0.9653 0.2611 124.6658 260.5909)" fill="#3D3D3F" stroke="#3D3D3F" stroke-width="0.3958" stroke-linecap="round" stroke-linejoin="round" stroke-miterlimit="10" cx="232.551" cy="48.864" rx="3.176" ry="1.264"/>
		</g>
		<g>
			
				<path fill="#58585A" stroke="#58585A" stroke-width="0.3376" stroke-linecap="round" stroke-linejoin="round" stroke-miterlimit="10" d="
				M98.077,53.336l-0.04,0.071l-0.061-0.058c0,0-2.748-2.192-4.662-1.011c-1.496,0.927-1.14,2.536-0.074,3.456
				c1.665,1.438,3.704-0.254,4.34-0.618c0,0,0.271-0.181,0.644-0.432"/>
			
				<path fill="#58585A" stroke="#58585A" stroke-width="0.3376" stroke-linecap="round" stroke-linejoin="round" stroke-miterlimit="10" d="
				M100.174,53.171l0.051,0.065l0.05-0.066c0,0,2.375-2.592,4.449-1.722c1.621,0.684,1.52,2.328,0.61,3.402
				c-1.423,1.679-3.698,0.324-4.384,0.062c0,0-0.296-0.134-0.702-0.325"/>
			
				<ellipse transform="matrix(-0.078 -0.997 0.997 -0.078 53.2398 156.8907)" fill="#3D3D3F" stroke="#3D3D3F" stroke-width="0.3958" stroke-linecap="round" stroke-linejoin="round" stroke-miterlimit="10" cx="99.171" cy="53.826" rx="3.176" ry="1.264"/>
		</g>
		<g>
			
				<path fill="#58585A" stroke="#58585A" stroke-width="0.3376" stroke-linecap="round" stroke-linejoin="round" stroke-miterlimit="10" d="
				M166.154,5.669l0.008,0.082L166.08,5.74c0,0-3.512-0.161-4.367,1.919c-0.668,1.629,0.566,2.722,1.969,2.841
				c2.192,0.187,2.85-2.38,3.15-3.049c0,0,0.113-0.305,0.268-0.727"/>
			
				<path fill="#58585A" stroke="#58585A" stroke-width="0.3376" stroke-linecap="round" stroke-linejoin="round" stroke-miterlimit="10" d="
				M167.755,4.304l0.079,0.023l0.002-0.084c0,0,0.4-3.491,2.591-4.006c1.714-0.398,2.597,0.993,2.491,2.396
				c-0.166,2.194-2.804,2.434-3.513,2.624c0,0-0.317,0.065-0.759,0.148"/>
			
				<ellipse transform="matrix(-0.6484 -0.7613 0.7613 -0.6484 271.6963 136.322)" fill="#3D3D3F" stroke="#3D3D3F" stroke-width="0.3958" stroke-linecap="round" stroke-linejoin="round" stroke-miterlimit="10" cx="167.327" cy="5.423" rx="3.176" ry="1.263"/>
		</g>
	</g>
</g>
</svg>
