<?xml version="1.0" encoding="utf-8"?>
<!-- Generator: Adobe Illustrator 17.1.0, SVG Export Plug-In . SVG Version: 6.00 Build 0)  -->
<!DOCTYPE svg PUBLIC "-//W3C//DTD SVG 1.1//EN" "http://www.w3.org/Graphics/SVG/1.1/DTD/svg11.dtd">
<svg version="1.1" xmlns="http://www.w3.org/2000/svg" xmlns:xlink="http://www.w3.org/1999/xlink" x="0px" y="0px"
	 viewBox="0 0 170.394 142.539" enable-background="new 0 0 170.394 142.539" xml:space="preserve">
<g id="Äppelskrutt">
</g>
<g id="Ben">
</g>
<g id="Morot">
</g>
<g id="Påse">
	<g>
		<g>
			
				<polygon fill="#CA9E64" stroke="#CA9E64" stroke-width="1.3504" stroke-linecap="round" stroke-linejoin="round" stroke-miterlimit="10" points="
				167.346,141.864 163.703,54.686 153.444,4.165 85.907,4.165 18.444,4.165 6.692,54.686 3.048,141.864 			"/>
		</g>
		<g>
			
				<polyline fill="#BF925C" stroke="#BF925C" stroke-width="1.3504" stroke-linecap="round" stroke-linejoin="round" stroke-miterlimit="10" points="
				167.346,141.864 163.703,54.686 159.833,33.185 87.278,33.185 11.125,33.185 			"/>
		</g>
	</g>
	<g>
		
			<path fill="#9C7040" stroke="#9C7040" stroke-width="1.3504" stroke-linecap="round" stroke-linejoin="round" stroke-miterlimit="10" d="
			M164.881,91.935c0,0-16.629,5.25-31.631,4.901c-10.869-0.253-25.998-7.401-43.09-7.401c-17.241,0-26.988,6.875-48.238,6.875
			c-16.5,0-36.088-10.875-36.088-10.875l-2.786,56.429h164.298l-2.205-44.675L164.881,91.935z"/>
	</g>
	<g>
		
			<rect x="0.685" y="0.685" fill="#CA9E64" stroke="#CA9E64" stroke-width="1.3697" stroke-linecap="round" stroke-linejoin="round" stroke-miterlimit="10" width="169.024" height="32.5"/>
	</g>
	<g>
		
			<path fill="#936A3D" stroke="#936A3D" stroke-width="1.3504" stroke-linecap="round" stroke-linejoin="round" stroke-miterlimit="10" d="
			M167.346,141.864l-2.205-44.675l-0.26-5.254c0,0-16.629,5.25-31.631,4.901c-10.869-0.253-24.715-7.401-41.807-7.401
			L167.346,141.864z"/>
	</g>
</g>
</svg>
