<?xml version="1.0" encoding="utf-8"?>
<!-- Generator: Adobe Illustrator 15.0.2, SVG Export Plug-In . SVG Version: 6.00 Build 0)  -->
<!DOCTYPE svg PUBLIC "-//W3C//DTD SVG 1.1//EN" "http://www.w3.org/Graphics/SVG/1.1/DTD/svg11.dtd">
<svg version="1.1" xmlns="http://www.w3.org/2000/svg" xmlns:xlink="http://www.w3.org/1999/xlink" x="0px" y="0px"
	 width="165.135px" height="326.903px" viewBox="0 0 165.135 326.903" enable-background="new 0 0 165.135 326.903"
	 xml:space="preserve">
<g id="Matavfallspåse">
	<g id="Bananskal_1_">
		<g>
			
				<path fill="#FFD600" stroke="#FFD600" stroke-width="0.1912" stroke-linecap="round" stroke-linejoin="round" stroke-miterlimit="10" d="
				M129.968,62.879c4.864,3.149,7.854,8.832,7.273,15c-0.694,7.358-6.607,14.088-15.651,14.788l-0.87-1.61
				c5.993-2.939,8.88-8.62,9.374-13.852c0.364-3.867-0.673-7.543-2.698-10.523"/>
		</g>
		<g>
			
				<path fill="#786855" stroke="#786855" stroke-width="0.1912" stroke-linecap="round" stroke-linejoin="round" stroke-miterlimit="10" d="
				M121.589,92.665c8.748-0.632,14.92-7.045,15.649-14.789c0.692-7.358-3.694-14.024-10.286-16.525l-0.884,1.058
				c4.974,3.123,8.046,8.871,7.458,15.117c-0.592,6.246-6.104,12.823-12.333,14.412L121.589,92.665z"/>
		</g>
		<g>
			
				<path fill="#FCC200" stroke="#FCC200" stroke-width="0.2501" stroke-linecap="round" stroke-linejoin="round" stroke-miterlimit="10" d="
				M153.92,61.141"/>
		</g>
		<g>
			<g>
				
					<polygon fill="#5F4C3F" stroke="#5F4C3F" stroke-width="0.2376" stroke-linecap="round" stroke-linejoin="round" stroke-miterlimit="10" points="
					126.796,59.09 124.229,61.698 123.101,59.886 124.964,57.991 				"/>
			</g>
			<g>
				
					<polygon fill="#786855" stroke="#786855" stroke-width="0.2376" stroke-linecap="round" stroke-linejoin="round" stroke-miterlimit="10" points="
					126.796,59.09 124.964,57.991 123.101,59.886 				"/>
			</g>
		</g>
		<g>
			
				<path fill="#FFD600" stroke="#FFD600" stroke-width="0.2501" stroke-linecap="round" stroke-linejoin="round" stroke-miterlimit="10" d="
				M162.797,50.866c-3.072,8.175-10.103,12.652-16.853,13.955c-6.752,1.304-13.372-0.782-18.104-5.07l-2.932,2.987
				c4.087,8.267,13.321,13.136,22.814,11.303c9.493-1.833,17.508-10.38,17.278-22.245L162.797,50.866z"/>
		</g>
		<g>
			
				<path fill="#FCC200" stroke="#FCC200" stroke-width="0.2501" stroke-linecap="round" stroke-linejoin="round" stroke-miterlimit="10" d="
				M165.002,51.797c0.283,11.472-7.287,20.316-17.278,22.245c-9.493,1.833-18.728-3.036-22.814-11.303l1.264-1.286
				c4.695,6.082,12.566,9.354,20.627,7.799c8.058-1.556,15.925-9.564,17.204-17.875L165.002,51.797z"/>
		</g>
		<g>
			<circle fill="#5F4C3F" cx="151.985" cy="71" r="0.229"/>
		</g>
		<g>
			<circle fill="#5F4C3F" cx="153.166" cy="70.941" r="0.23"/>
		</g>
		<g>
			<circle fill="#5F4C3F" cx="154.275" cy="71.081" r="0.229"/>
		</g>
		<g>
			<circle fill="#5F4C3F" cx="154.2" cy="70.314" r="0.229"/>
		</g>
		<g>
			<circle fill="#5F4C3F" cx="155.496" cy="70.285" r="0.23"/>
		</g>
		<g>
			<circle fill="#5F4C3F" cx="155.47" cy="69.473" r="0.229"/>
		</g>
		<g>
			<circle fill="#5F4C3F" cx="152.028" cy="71.972" r="0.229"/>
		</g>
		<g>
			<circle fill="#5F4C3F" cx="150.661" cy="72.104" r="0.229"/>
		</g>
	</g>
	<g id="Ben_1_">
		<path fill="#ECEDED" d="M117.29,89.631v4.436v7.778l0.015,0.677l4.296,4.266c1.655,1.646,1.83,4.158,0.391,5.608l0,0
			c-1.441,1.452-3.954,1.291-5.611-0.355l-1.213-1.203l-0.875-0.871l-0.877,0.871l-1.211,1.203c-1.657,1.646-4.17,1.807-5.61,0.355
			l0,0c-1.442-1.45-1.268-3.962,0.391-5.608l4.293-4.266l0.018-0.677v-7.778v-4.436l-0.002-0.51v-4.434v-7.779l-0.017-0.676
			l-4.295-4.266c-1.656-1.646-1.83-4.158-0.389-5.608l0,0c1.44-1.452,3.952-1.291,5.61,0.354l1.212,1.206l0.875,0.869l0.875-0.869
			l1.213-1.206c1.656-1.644,4.17-1.805,5.61-0.354l0,0c1.442,1.45,1.267,3.962-0.39,5.608l-4.294,4.266l-0.018,0.676v7.779v4.434
			L117.29,89.631z"/>
	</g>
	<g id="Äppelskrutt_1_">
		<g>
			<path fill="#E3E582" d="M103.358,84.744c-2.406-1.402-4.12-5.001-4.12-9.222c0-4.203,1.699-7.792,4.092-9.206h-8.753h-8.754
				c2.394,1.414,4.093,5.002,4.093,9.206c0,4.22-1.713,7.82-4.123,9.222H103.358z"/>
		</g>
		<g>
			
				<path fill="#41A62A" stroke="#41A62A" stroke-width="0.1842" stroke-linecap="round" stroke-linejoin="round" stroke-miterlimit="10" d="
				M103.492,66.316c0-1.788-1.648-3.572-3.683-3.572c-0.552,0-1.075,0.106-1.544,0.298l-0.957,0.344
				c-1.606,0.523-2.617,0.523-2.617,0.523h-0.015c0,0-1.011,0-2.618-0.523l-0.955-0.344c-0.47-0.191-0.994-0.298-1.545-0.298
				c-2.034,0-3.684,1.784-3.684,3.572H103.492z"/>
		</g>
		<g>
			
				<path fill="#41A62A" stroke="#41A62A" stroke-width="0.184" stroke-linecap="round" stroke-linejoin="round" stroke-miterlimit="10" d="
				M103.473,84.744c0,1.786-1.646,4.685-3.678,4.685c0,0-0.961-0.011-2.498-0.473c-1.319-0.398-2.56-0.388-2.615-0.388h-0.096
				c-0.057,0-1.298-0.011-2.616,0.388c-1.534,0.462-2.495,0.473-2.495,0.473c-2.032,0-3.682-2.899-3.682-4.685H103.473z"/>
		</g>
		<g>
			<g>
				
					<ellipse fill="#41281B" stroke="#41281B" stroke-width="0.2159" stroke-miterlimit="10" cx="92.993" cy="75.476" rx="0.45" ry="1.025"/>
			</g>
			<g>
				
					<ellipse fill="#41281B" stroke="#41281B" stroke-width="0.2159" stroke-miterlimit="10" cx="96.339" cy="75.476" rx="0.451" ry="1.025"/>
			</g>
		</g>
		<g>
			<path fill="#409D2B" d="M94.748,61.698"/>
		</g>
		<g>
			<path fill="#41281B" stroke="#41281B" stroke-width="0.2159" stroke-miterlimit="10" d="M94.955,61.617
				c0-2.391,1.848-4.336,4.278-4.336v1.253c-1.841,0-3.546,1.285-3.546,3.083H94.955z"/>
		</g>
		<g>
			<g>
				<g>
					<path fill="#00632E" d="M93.596,61.592c0.768-1.335,0.848-2.316,0.848-2.316c0.605-5.287-6.441-6.543-6.441-6.543
						s-1.896,6.905,3.139,8.629C91.141,61.362,92.061,61.712,93.596,61.592z"/>
				</g>
			</g>
			<g>
				<g>
					<path fill="#007A38" d="M88.002,52.732c0,0-1.896,6.905,3.139,8.629c0,0,0.92,0.35,2.455,0.23"/>
				</g>
			</g>
		</g>
	</g>
	<g>
		<g>
			
				<polygon fill="#CA9E64" stroke="#CA9E64" stroke-width="0.5029" stroke-linecap="round" stroke-linejoin="round" stroke-miterlimit="10" points="
				143.613,153.455 142.257,125.973 142.263,83.8 113.019,83.8 83.776,83.8 83.782,125.973 82.426,153.455 			"/>
		</g>
		<g>
			
				<polyline fill="#BF925C" stroke="#BF925C" stroke-width="0.5029" stroke-linecap="round" stroke-linejoin="round" stroke-miterlimit="10" points="
				143.613,153.455 142.257,125.973 142.263,92.266 113.019,92.266 83.776,92.266 			"/>
		</g>
		<g>
			
				<rect x="81.544" y="81.706" fill="#CA9E64" stroke="#CA9E64" stroke-width="0.5101" stroke-linecap="round" stroke-linejoin="round" stroke-miterlimit="10" width="62.951" height="10.56"/>
		</g>
	</g>
</g>
<g id="Matavfallstunna">
	<g>
		
			<polygon fill="#7C4D25" stroke="#7C4D25" stroke-width="2.8856" stroke-linecap="round" stroke-linejoin="round" stroke-miterlimit="10" points="
			120.721,7.999 13.751,104.022 1.443,90.312 114.835,1.443 		"/>
	</g>
	<g>
		<circle fill="#FFFFFF" stroke="#000000" stroke-width="12.0508" stroke-miterlimit="10" cx="61.748" cy="302.114" r="18.764"/>
	</g>
	<g>
		
			<path fill="#6F4423" stroke="#6F4423" stroke-width="3.2046" stroke-linecap="round" stroke-linejoin="round" stroke-miterlimit="10" d="
			M137.251,324.618H84.605c6.465-5.828,10.553-14.244,10.553-23.634c0-17.587-14.258-31.847-31.846-31.847
			c-8.831,0-16.821,3.599-22.588,9.407L23.985,117.854L137.251,324.618z"/>
	</g>
	<g>
		
			<polygon fill="#7C4D25" stroke="#7C4D25" stroke-width="3.2046" stroke-linecap="round" stroke-linejoin="round" stroke-miterlimit="10" points="
			137.251,324.618 151.271,117.854 23.985,117.854 		"/>
	</g>
</g>
</svg>
