<?xml version="1.0" encoding="utf-8"?>
<!-- Generator: Adobe Illustrator 15.0.2, SVG Export Plug-In . SVG Version: 6.00 Build 0)  -->
<!DOCTYPE svg PUBLIC "-//W3C//DTD SVG 1.1//EN" "http://www.w3.org/Graphics/SVG/1.1/DTD/svg11.dtd">
<svg version="1.1" id="Lager_1" xmlns="http://www.w3.org/2000/svg" xmlns:xlink="http://www.w3.org/1999/xlink" x="0px" y="0px"
	 width="200.963px" height="259.292px" viewBox="0 0 200.963 259.292" enable-background="new 0 0 200.963 259.292"
	 xml:space="preserve">
<g>
	
		<path fill="#FFEED4" stroke="#FFEED4" stroke-width="6" stroke-linecap="round" stroke-linejoin="round" stroke-miterlimit="10" d="
		M73.805,144.273c-0.244-3.884-0.437-7.822,1.543-11.502c3.07-5.707,9.218-12.994,15.075-14.336
		c-2.108-5.627-2.753-8.571,0.316-14.278c4.713-8.761,12.825-15.869,22.073-13.734c-2.967-6.042-1.297-10.451,2.135-16.831
		c1.167-2.17,1.971-3.393,3.687-4.975c-4.345-6.437-4.38-15.666-0.446-22.98c1.513-2.812,3.562-5.147,5.95-6.959
		c-1.509-0.832-3.05-1.67-4.626-2.518c-26.854-14.445-46.385-22.478-57.914-7.551c-6.15,10.388-0.77,16.976-0.77,16.976
		l-43.319,60.103c-2.05,3.809-0.622,8.559,3.188,10.608C20.696,116.295,63.756,136.135,73.805,144.273z"/>
	
		<path fill="#FCC108" stroke="#FCC108" stroke-width="0.946" stroke-linecap="round" stroke-linejoin="round" stroke-miterlimit="10" d="
		M91.931,119.773c-1.981-5.289-1.761-11.37,1.124-16.734c4.429-8.234,13.726-12.166,22.417-10.16
		c-2.788-5.678-2.892-12.57,0.333-18.566c1.097-2.04,2.496-3.81,4.107-5.298c-4.082-6.049-4.758-14.102-1.061-20.976
		c0.611-1.136,1.32-2.184,2.104-3.151l-51.235-5.52l-9.349,86.791l19.245,2.074C82.573,123.824,87.031,120.895,91.931,119.773z
		 M109.308,61.576c3.914,0.422,6.744,3.936,6.323,7.849c-0.422,3.913-3.936,6.744-7.85,6.323c-3.915-0.422-6.744-3.936-6.322-7.849
		C101.88,63.985,105.393,61.154,109.308,61.576z M84.291,58.881c-1.868-0.201-3.218-1.877-3.016-3.743
		c0.201-1.866,1.877-3.216,3.744-3.015c1.866,0.201,3.216,1.877,3.015,3.743C87.832,57.731,86.156,59.082,84.291,58.881z
		 M81.76,82.376c0.313-2.918,2.934-5.029,5.854-4.715c2.918,0.314,5.029,2.936,4.715,5.855c-0.313,2.918-2.935,5.031-5.854,4.716
		C83.555,87.917,81.444,85.295,81.76,82.376z M73.531,109.54c0.469-4.365,4.392-7.524,8.757-7.053
		c4.365,0.469,7.523,4.39,7.054,8.756c-0.471,4.365-4.392,7.524-8.756,7.053C76.219,117.827,73.062,113.906,73.531,109.54z"/>
	
		<path fill="#FFD703" stroke="#FFD703" stroke-width="0.946" stroke-linecap="round" stroke-linejoin="round" stroke-miterlimit="10" d="
		M103.055,93.951c3.868-1.623,8.214-2.042,12.418-1.072c-2.788-5.678-2.893-12.57,0.333-18.566c1.097-2.04,2.496-3.81,4.108-5.298
		c-4.084-6.049-4.759-14.102-1.062-20.976c0.611-1.136,1.32-2.184,2.103-3.151l-51.234-5.52L103.055,93.951z M109.308,61.576
		c3.914,0.422,6.744,3.936,6.323,7.849c-0.422,3.913-3.936,6.744-7.85,6.323c-3.915-0.422-6.744-3.936-6.322-7.849
		C101.88,63.985,105.393,61.154,109.308,61.576z M84.291,58.881c-1.868-0.201-3.218-1.877-3.016-3.743
		c0.201-1.866,1.877-3.216,3.744-3.015c1.866,0.201,3.216,1.877,3.015,3.743C87.832,57.731,86.156,59.082,84.291,58.881z"/>
	<path fill="none" stroke="#BD8855" stroke-width="7" stroke-linecap="round" stroke-linejoin="round" stroke-miterlimit="10" d="
		M124.867,39.04c-27.534-16.085-51.543-26.28-63.548-9.915c-7.055,11.454-0.77,16.978-0.77,16.978l-43.324,60.112
		c-2.049,3.81-0.622,8.559,3.188,10.609c0,0,30.212,12.538,53.808,28.261"/>
	<g>
		<g>
			<path fill="#EEEDED" d="M34.313,78.258l-4.85-7.275l-8.99-13.485l-0.81-1.152L7.287,53.912c-4.775-0.94-7.98-5.093-7.158-9.273
				l0,0c0.82-4.182,5.361-6.808,10.136-5.871l3.496,0.686l2.521,0.496l0.513-2.519l0.712-3.491c0.971-4.767,5.141-7.948,9.316-7.098
				l0,0c4.175,0.848,6.776,5.404,5.808,10.175l-2.515,12.362l0.752,1.19l8.99,13.485l4.85,7.275L34.313,78.258z"/>
		</g>
		<g>
			
				<path fill="none" stroke="#CBCACA" stroke-width="1.9728" stroke-linecap="round" stroke-linejoin="round" stroke-miterlimit="10" d="
				M26.822,26.843"/>
		</g>
		<g>
			
				<path fill="#CA9E67" stroke="#CA9E67" stroke-width="1.9728" stroke-linecap="round" stroke-linejoin="round" stroke-miterlimit="10" d="
				M79.13,152.832c1.396,2.094,2.333,4.361,2.844,6.682c3.649-0.312,7.132-1.458,10.22-3.518l2.031-1.354
				c12.259-8.173,13.656-27.608,3.121-43.411c-5.269-7.901-12.521-13.398-19.989-15.898c0,0-20.58-5.996-30.132-20.324
				l-10.462,6.975c9.552,14.328,7.171,35.631,7.171,35.631c-0.562,7.855,1.72,16.665,6.988,24.566
				c0.938,1.406,1.94,2.732,2.994,3.982C62.676,141.751,73.551,144.464,79.13,152.832z"/>
		</g>
		<g>
			
				<path fill="#BD8855" stroke="#BD8855" stroke-width="1.9728" stroke-linecap="round" stroke-linejoin="round" stroke-miterlimit="10" d="
				M79.13,152.832c1.396,2.094,2.333,4.361,2.844,6.682c3.649-0.312,7.132-1.458,10.22-3.518l-50.2-77.5l-5.23,3.487
				c9.552,14.328,7.171,35.631,7.171,35.631c-0.562,7.855,1.72,16.665,6.988,24.566c0.938,1.405,1.94,2.733,2.994,3.983
				C62.676,141.751,73.551,144.464,79.13,152.832z"/>
		</g>
	</g>
	<circle fill="#FBC717" stroke="#FBC717" stroke-width="0.9468" stroke-miterlimit="10" cx="27.674" cy="70.585" r="24.035"/>
	<path fill="#FAB61B" stroke="#FAB61B" stroke-width="0.9468" stroke-miterlimit="10" d="M27.674,94.62
		c-13.274,0-24.035-10.761-24.035-24.035S14.399,46.55,27.674,46.55V94.62z"/>
	<circle fill="#F9AE1B" stroke="#F9AE1B" stroke-width="1.0362" stroke-miterlimit="10" cx="32.995" cy="49.487" r="0.716"/>
	<circle fill="#F9AE1B" stroke="#F9AE1B" stroke-width="1.0362" stroke-miterlimit="10" cx="36.383" cy="50.92" r="0.716"/>
	<circle fill="#F9AE1B" stroke="#F9AE1B" stroke-width="1.0362" stroke-miterlimit="10" cx="32.995" cy="53.33" r="0.716"/>
	<circle fill="#F9AE1B" stroke="#F9AE1B" stroke-width="1.0362" stroke-miterlimit="10" cx="29.464" cy="51.636" r="0.716"/>
	<circle fill="#F9AE1B" stroke="#F9AE1B" stroke-width="1.0362" stroke-miterlimit="10" cx="37.815" cy="54.982" r="0.716"/>
	<circle fill="#F9AE1B" stroke="#F9AE1B" stroke-width="1.0362" stroke-miterlimit="10" cx="38.976" cy="59.061" r="0.716"/>
	<circle fill="#F9AE1B" stroke="#F9AE1B" stroke-width="1.0362" stroke-miterlimit="10" cx="30.549" cy="57.628" r="0.716"/>
	<circle fill="#F9AE1B" stroke="#F9AE1B" stroke-width="1.0362" stroke-miterlimit="10" cx="32.996" cy="61.798" r="0.716"/>
	<circle fill="#F9AE1B" stroke="#F9AE1B" stroke-width="1.0362" stroke-miterlimit="10" cx="34.429" cy="57.628" r="0.716"/>
	<circle fill="#F9AE1B" stroke="#F9AE1B" stroke-width="1.0362" stroke-miterlimit="10" cx="40.717" cy="53.069" r="0.716"/>
	<g>
		<g>
			<path fill="#E3E684" d="M132.95,91.496c-4.675-2.722-8.002-9.716-8.002-17.912c0-8.163,3.3-15.132,7.946-17.878h-16.999H98.896
				c4.645,2.746,7.946,9.715,7.946,17.878c0,8.196-3.328,15.19-8.003,17.912H132.95z"/>
		</g>
	</g>
	<g>
		<g>
			<path fill="#3CA036" d="M116.228,46.737"/>
		</g>
	</g>
	<g>
		<g>
			<path fill="#CDDD86" d="M115.895,91.226h17.056c-4.675-2.722-8.002-9.445-8.002-17.642c0-8.163,3.3-14.941,7.946-17.687h-16.999
				v34.734L115.895,91.226L115.895,91.226z"/>
		</g>
	</g>
	<g>
		<g>
			<path fill="#442A19" stroke="#442A19" stroke-miterlimit="10" d="M116.628,46.579c0-4.644,3.589-8.421,8.309-8.421v2.433
				c-3.571,0-6.884,2.495-6.884,5.988H116.628z"/>
		</g>
	</g>
	<g>
		<g>
			<g>
				<g>
					<path fill="#056734" d="M113.989,46.53c1.491-2.592,1.646-4.499,1.646-4.499c1.177-10.268-12.514-12.709-12.514-12.709
						s-3.68,13.411,6.098,16.761C109.22,46.083,111.008,46.763,113.989,46.53z"/>
				</g>
			</g>
		</g>
		<g>
			<g>
				<g>
					<path fill="#017E41" d="M103.121,29.322c0,0-3.68,13.411,6.098,16.761c0,0,1.788,0.68,4.77,0.447"/>
				</g>
			</g>
		</g>
	</g>
	<g>
		<g>
			<g>
				<ellipse fill="#442A19" stroke="#442A19" stroke-miterlimit="10" cx="112.816" cy="73.495" rx="0.874" ry="1.992"/>
			</g>
		</g>
		<g>
			<g>
				<ellipse fill="#442A19" stroke="#442A19" stroke-miterlimit="10" cx="119.316" cy="73.495" rx="0.874" ry="1.992"/>
			</g>
		</g>
	</g>
	<g>
		<g>
			
				<path fill="#3EAB37" stroke="#3EAB37" stroke-width="0.8532" stroke-linecap="round" stroke-linejoin="round" stroke-miterlimit="10" d="
				M133.209,55.706c0-3.473-3.201-6.938-7.151-6.938c-1.071,0-2.088,0.207-3.001,0.579l-1.854,0.667
				c-3.122,1.016-5.086,1.016-5.086,1.016h-0.026c0,0-1.965,0-5.087-1.016l-1.854-0.667c-0.913-0.372-1.929-0.579-3.002-0.579
				c-3.95,0-7.152,3.465-7.152,6.938H133.209z"/>
		</g>
	</g>
	<g>
		<g>
			
				<path fill="#3EAB37" stroke="#3EAB37" stroke-width="0.8522" stroke-linecap="round" stroke-linejoin="round" stroke-miterlimit="10" d="
				M133.17,91.496c0,3.468-3.198,9.097-7.144,9.097c0,0-1.867-0.021-4.851-0.919c-2.562-0.773-4.971-0.753-5.08-0.753h-0.186
				c-0.108,0-2.517-0.02-5.08,0.753c-2.982,0.898-4.849,0.919-4.849,0.919c-3.945,0-7.145-5.629-7.145-9.097H133.17z"/>
		</g>
	</g>
	<g>
		
			<path fill="none" stroke="#585857" stroke-width="4.6247" stroke-linecap="round" stroke-linejoin="round" stroke-miterlimit="10" d="
			M18.366,108.565c0,0,23.632,0.518,43.413-12.42"/>
	</g>
	<g>
		
			<path fill="none" stroke="#585857" stroke-width="4.6247" stroke-linecap="round" stroke-linejoin="round" stroke-miterlimit="10" d="
			M18.041,90.984c0,0,19.041,0.994,35.785-8.127"/>
	</g>
	<g>
		
			<path fill="none" stroke="#585857" stroke-width="4.6247" stroke-linecap="round" stroke-linejoin="round" stroke-miterlimit="10" d="
			M21.357,73.974c0,0,13.975,1.291,26.557-4.928"/>
	</g>
	<g>
		
			<path fill="none" stroke="#585857" stroke-width="4.6247" stroke-linecap="round" stroke-linejoin="round" stroke-miterlimit="10" d="
			M29.073,56.906c0,0,6.96,1.13,13.482-1.553"/>
	</g>
	<g>
		
			<path fill="none" stroke="#585857" stroke-width="4.6247" stroke-linecap="round" stroke-linejoin="round" stroke-miterlimit="10" d="
			M56.519,126.57c-12.741-8.944-21.687-29.952-21.687-54.441c0-11.04,1.818-21.373,4.983-30.211"/>
	</g>
	<g>
		
			<path fill="#90AFB0" stroke="#90AFB0" stroke-width="4.6247" stroke-linecap="round" stroke-linejoin="round" stroke-miterlimit="10" d="
			M19.873,124.446c0,0,12.368,25.863,38.536,25.099c20.969-15.678,14.566-43.623,14.566-43.623
			C49.246,123.278,19.873,124.446,19.873,124.446z"/>
	</g>
	<g>
		
			<circle fill="#FFFFFF" stroke="#FFFFFF" stroke-width="4.6247" stroke-linecap="round" stroke-linejoin="round" stroke-miterlimit="10" cx="43.336" cy="134.901" r="5.106"/>
	</g>
	<g>
		<circle fill="#010202" cx="43.336" cy="134.901" r="2.271"/>
	</g>
	<g>
		
			<path fill="#90AFB0" stroke="#90AFB0" stroke-width="4.6247" stroke-linecap="round" stroke-linejoin="round" stroke-miterlimit="10" d="
			M38.733,44.325c6.101-23.717-13.358-28.658-13.358-28.658S16.646,33.747,38.733,44.325z"/>
	</g>
	<g>
		
			<path fill="#6E999E" stroke="#6E999E" stroke-width="4.6247" stroke-linecap="round" stroke-linejoin="round" stroke-miterlimit="10" d="
			M38.976,44.367c2.422-24.369,22.394-22.322,22.394-22.322S63.353,42.024,38.976,44.367z"/>
	</g>
	<g>
		
			<path fill="#6E999E" stroke="#6E999E" stroke-width="4.6247" stroke-linecap="round" stroke-linejoin="round" stroke-miterlimit="10" d="
			M48.442,118.514c7.927-2.747,16.549-6.753,24.533-12.593c0,0,6.262,27.333-13.884,43.102L48.442,118.514z"/>
	</g>
	<g>
		
			<polygon fill="#FFD703" stroke="#FFD703" stroke-width="1.9262" stroke-linecap="round" stroke-linejoin="round" stroke-miterlimit="10" points="
			112.076,83.347 134.735,111.036 126.77,109.416 123.131,114.803 116.427,112.775 112.431,118.277 106.082,116.133 
			102.324,121.558 95.739,119.491 91.164,125.182 93.236,89.463 70.578,61.774 77.623,63.692 81.738,58.151 87.967,60.334 
			91.844,54.87 98.311,56.976 102.545,51.396 108.653,53.618 114.148,47.628 		"/>
		
			<polygon fill="#FCC108" stroke="#FCC108" stroke-width="1.1319" stroke-linecap="round" stroke-linejoin="round" stroke-miterlimit="10" points="
			112.431,118.277 106.082,116.133 102.324,121.558 95.739,119.491 91.164,125.182 93.236,89.463 70.578,61.774 77.623,63.692 
			81.738,58.151 87.967,60.334 91.844,54.87 		"/>
	</g>
	<g>
		<g>
			<path fill="#164D7D" stroke="#164D7D" stroke-width="3.4067" stroke-miterlimit="10" d="M70.806,66.473
				c3.18,6.487,1.395,13.884-3.988,16.523s-12.325-0.48-15.505-6.966c-3.18-6.486-4.379-19.973,1.004-22.612
				C57.698,50.779,67.625,59.987,70.806,66.473z"/>
		</g>
		<g>
			<path fill="#12426A" stroke="#12426A" stroke-width="3.4067" stroke-miterlimit="10" d="M52.315,53.418
				c-5.383,2.639-4.184,16.125-1.004,22.612c3.18,6.487,10.122,9.605,15.505,6.966L52.317,53.479"/>
		</g>
		<g>
			<path fill="#0E3C61" stroke="#0E3C61" stroke-width="3.0417" stroke-miterlimit="10" d="M66.375,63.346
				c2.418,4.933,1.062,10.558-3.032,12.565c-4.093,2.007-9.372-0.365-11.79-5.297c-2.418-4.932-3.33-15.188,0.763-17.194
				C56.409,51.412,63.957,58.413,66.375,63.346z"/>
		</g>
		<g>
			<path fill="#143150" stroke="#143150" stroke-width="3.0417" stroke-miterlimit="10" d="M52.315,53.418
				c-4.093,2.007-3.181,12.262-0.763,17.194c2.418,4.933,7.697,7.304,11.79,5.297l-11.025-22.43"/>
		</g>
		<g>
			<path fill="#164D7D" stroke="#164D7D" stroke-width="3.4067" stroke-miterlimit="10" d="M61.008,59.653
				c1.509,3.078,0.662,6.588-1.894,7.841c-2.554,1.252-5.848-0.228-7.356-3.306c-1.51-3.078-2.078-9.478,0.476-10.73
				C54.789,52.206,59.498,56.575,61.008,59.653z"/>
		</g>
		<g>
			<path fill="#13436D" stroke="#13436D" stroke-width="3.4067" stroke-miterlimit="10" d="M52.234,53.458
				c-2.554,1.252-1.984,7.652-0.476,10.73s4.803,4.558,7.356,3.306L52.234,53.458z"/>
		</g>
		<g>
			<path fill="#3A8FCE" stroke="#3A8FCE" stroke-width="3.4067" stroke-miterlimit="10" d="M58.224,57.65
				c1.016,2.072,0.444,4.435-1.274,5.278c-1.719,0.843-3.937-0.153-4.952-2.225c-1.016-2.072-1.398-6.379,0.321-7.222
				C54.039,52.638,57.207,55.578,58.224,57.65z"/>
		</g>
		<g>
			<path fill="#3782BA" stroke="#3782BA" stroke-width="3.4067" stroke-miterlimit="10" d="M52.318,53.48
				c-1.719,0.843-1.336,5.151-0.321,7.222c1.017,2.072,3.233,3.068,4.952,2.225L52.318,53.48z"/>
		</g>
	</g>
	<g>
		
			<path fill="#FFD703" stroke="#FFD703" stroke-width="0.566" stroke-linecap="round" stroke-linejoin="round" stroke-miterlimit="10" d="
			M180.588,54.898c-12.139,4.62-26.369,2.49-36.746-6.736c-12.379-11.005-16.703-30.608-5.985-47.879l4.063,0.56
			c-2.629,14.725,3.808,27.471,12.61,35.296c6.505,5.784,14.523,8.779,22.593,9.072L180.588,54.898z"/>
	</g>
	<g>
		
			<path fill="#7C6B59" stroke="#7C6B59" stroke-width="0.566" stroke-linecap="round" stroke-linejoin="round" stroke-miterlimit="10" d="
			M180.588,54.901c-12.137,4.615-26.36,2.483-36.736-6.739c-13.025-11.582-16.438-31.231-5.985-47.879l1.836,0.252
			c-5.384,13.36-0.805,32.039,9.703,41.382c8.403,7.47,19.331,10.287,29.629,8.636L180.588,54.901z"/>
	</g>
	<g>
		<path fill="#FCC108" stroke="#FCC108" stroke-linecap="round" stroke-linejoin="round" stroke-miterlimit="10" d="
			M134.455,115.995"/>
	</g>
	<g>
		<g>
			
				<polygon fill="#644F43" stroke="#644F43" stroke-width="0.9498" stroke-linecap="round" stroke-linejoin="round" stroke-miterlimit="10" points="
				194.301,59.451 193.686,48.391 200.043,49.555 200.488,57.589 			"/>
		</g>
		<g>
			
				<polygon fill="#7C6B59" stroke="#7C6B59" stroke-width="0.9498" stroke-linecap="round" stroke-linejoin="round" stroke-miterlimit="10" points="
				194.301,59.451 200.488,57.589 200.043,49.555 			"/>
		</g>
	</g>
	<g>
		<path fill="#FFD703" stroke="#FFD703" stroke-linecap="round" stroke-linejoin="round" stroke-miterlimit="10" d="M139.38,156.796
			c-12.048-23.527-7.749-48.386,3.085-66.154c10.834-17.77,28.986-28.341,48.222-30.2l-0.715-12.65
			c-26.834-7.685-56.541,3.068-71.775,28.052c-15.235,24.986-12.425,60.343,14.605,83.995L139.38,156.796z"/>
	</g>
	<g>
		<path fill="#FCC108" stroke="#FCC108" stroke-linecap="round" stroke-linejoin="round" stroke-miterlimit="10" d="
			M132.802,159.839c-26.257-22.734-30.642-57.697-14.605-83.994c15.233-24.984,44.941-35.738,71.775-28.052l0.306,5.451
			c-23.18-1.875-46.54,9.079-59.473,30.289c-12.934,21.211-11.027,55.138,4.97,74.931L132.802,159.839z"/>
	</g>
	<g>
		<circle fill="#644F43" cx="116.321" cy="91.584" r="0.694"/>
	</g>
	<g>
		<circle fill="#644F43" cx="114.052" cy="94.346" r="0.694"/>
	</g>
	<g>
		<circle fill="#644F43" cx="111.481" cy="96.544" r="0.694"/>
	</g>
	<g>
		<circle fill="#644F43" cx="113.349" cy="97.937" r="0.694"/>
	</g>
	<g>
		<circle fill="#644F43" cx="110.776" cy="100.899" r="0.694"/>
	</g>
	<g>
		<circle fill="#644F43" cx="112.644" cy="102.497" r="0.694"/>
	</g>
	<g>
		<circle fill="#644F43" cx="114.062" cy="89.697" r="0.694"/>
	</g>
	<g>
		<circle fill="#644F43" cx="116.551" cy="86.37" r="0.694"/>
	</g>
	
		<polygon fill="#C89D64" stroke="#C89D64" stroke-width="1.3504" stroke-linecap="round" stroke-linejoin="round" stroke-miterlimit="10" points="
		168.012,258.617 164.368,184.824 164.385,71.585 85.863,71.585 7.342,71.585 7.357,184.824 3.714,258.617 	"/>
	
		<polyline fill="#BE915C" stroke="#BE915C" stroke-width="1.3504" stroke-linecap="round" stroke-linejoin="round" stroke-miterlimit="10" points="
		168.012,258.617 164.368,184.824 164.385,94.316 85.863,94.316 7.342,94.316 	"/>
	
		<rect x="1.351" y="65.958" fill="#C89D64" stroke="#C89D64" stroke-width="1.3697" stroke-linecap="round" stroke-linejoin="round" stroke-miterlimit="10" width="169.024" height="28.358"/>
</g>
</svg>
