<?xml version="1.0" encoding="utf-8"?>
<!-- Generator: Adobe Illustrator 17.0.0, SVG Export Plug-In . SVG Version: 6.00 Build 0)  -->
<!DOCTYPE svg PUBLIC "-//W3C//DTD SVG 1.1//EN" "http://www.w3.org/Graphics/SVG/1.1/DTD/svg11.dtd">
<svg version="1.1" id="Layer_1" xmlns="http://www.w3.org/2000/svg" xmlns:xlink="http://www.w3.org/1999/xlink" x="0px" y="0px"
	 width="155.04px" height="238.632px" viewBox="0 0 155.04 238.632" enable-background="new 0 0 155.04 238.632"
	 xml:space="preserve">
<g>
	<g>
		
			<rect x="102.315" y="0.21" fill="#FFFFFF" stroke="#FFFFFF" stroke-width="0.4209" stroke-miterlimit="10" width="39.526" height="118.148"/>
		
			<rect x="102.315" y="0.21" fill="#F0F0F0" stroke="#F0F0F0" stroke-width="0.0955" stroke-miterlimit="10" width="39.526" height="6.081"/>
		
			<rect x="102.315" y="29.814" fill="#F8F8F8" stroke="#F8F8F8" stroke-width="0.3644" stroke-miterlimit="10" width="39.526" height="88.544"/>
		<g>
			<circle fill="#3F96D2" cx="122.346" cy="16.686" r="6.868"/>
			<path fill="#2D7FBD" d="M122.347,23.553c-3.793,0-6.868-3.075-6.868-6.868c0-3.792,3.075-6.867,6.868-6.867V23.553z"/>
		</g>
		<polygon fill="#F0F0F0" stroke="#F0F0F0" stroke-width="0.3644" stroke-miterlimit="10" points="141.841,118.358 102.314,118.358 
			102.314,29.814 		"/>
		<g>
			<circle fill="#53A5D9" cx="122.348" cy="16.686" r="4.915"/>
			<path fill="#3F96D2" d="M122.347,21.601c-2.715,0-4.914-2.2-4.914-4.915c0-2.714,2.199-4.915,4.914-4.915V21.601z"/>
		</g>
		<g>
			
				<path fill="#575756" stroke="#575756" stroke-width="0.202" stroke-linecap="round" stroke-linejoin="round" stroke-miterlimit="10" d="
				M113.107,46.915l0.025-7.523l-1.959,4.488h-0.396l-1.957-4.488v7.523h-0.41v-8.213h0.562l2.004,4.593l1.99-4.593h0.574v8.213
				H113.107z"/>
			
				<path fill="#575756" stroke="#575756" stroke-width="0.202" stroke-linecap="round" stroke-linejoin="round" stroke-miterlimit="10" d="
				M114.643,45.157h0.436c0.014,0.594,0.162,0.984,0.443,1.171c0.211,0.133,0.417,0.2,0.622,0.2c0.555,0,0.98-0.19,1.277-0.569
				c0.297-0.378,0.443-1.009,0.443-1.892v-5.355h0.434v5.367c0,1.922-0.725,2.882-2.178,2.882c-0.299,0-0.603-0.101-0.913-0.304
				c-0.166-0.117-0.299-0.305-0.406-0.563C114.695,45.836,114.643,45.524,114.643,45.157z"/>
			
				<path fill="#575756" stroke="#575756" stroke-width="0.202" stroke-linecap="round" stroke-linejoin="round" stroke-miterlimit="10" d="
				M124.966,42.884c0,1.289-0.219,2.283-0.656,2.981c-0.438,0.7-1.07,1.049-1.898,1.049c-0.828,0-1.484-0.353-1.969-1.06
				c-0.484-0.707-0.727-1.711-0.727-3.011c0-1.301,0.238-2.324,0.717-3.07c0.475-0.746,1.139-1.12,1.99-1.12
				c0.508,0,0.939,0.131,1.295,0.392c0.356,0.262,0.619,0.616,0.791,1.061C124.813,40.927,124.966,41.853,124.966,42.884z
				 M124.532,42.685c0-1.085-0.184-1.952-0.551-2.601c-0.367-0.648-0.895-0.972-1.582-0.972s-1.234,0.322-1.641,0.967
				c-0.406,0.644-0.609,1.568-0.609,2.771c0,1.399,0.316,2.426,0.949,3.082c0.352,0.359,0.754,0.539,1.207,0.539
				c0.453,0,0.824-0.102,1.113-0.305c0.289-0.204,0.512-0.485,0.668-0.844C124.384,44.649,124.532,43.771,124.532,42.685z
				 M121.11,37.189h0.445v0.773h-0.445V37.189z M123.103,37.189h0.445v0.773h-0.445V37.189z"/>
			
				<path fill="#575756" stroke="#575756" stroke-width="0.202" stroke-linecap="round" stroke-linejoin="round" stroke-miterlimit="10" d="
				M130.52,46.915h-4.078v-8.202h0.434v7.769h3.644V46.915z"/>
			
				<path fill="#575756" stroke="#575756" stroke-width="0.202" stroke-linecap="round" stroke-linejoin="round" stroke-miterlimit="10" d="
				M135.733,46.915H135.3v-0.796c0-2.422-0.594-3.633-1.781-3.633c-0.25,0-0.488,0.065-0.715,0.193
				c-0.227,0.129-0.385,0.242-0.473,0.34c-0.092,0.099-0.207,0.24-0.348,0.428v3.468h-0.434v-8.202h0.434v4.043l3.164-4.054h0.598
				l-2.719,3.421c0.188-0.046,0.371-0.07,0.551-0.07c0.664,0,1.189,0.32,1.576,0.96c0.387,0.641,0.58,1.628,0.58,2.964V46.915z"/>
		</g>
		<g>
			
				<path fill="#3F96D2" stroke="#3F96D2" stroke-width="0.7433" stroke-linecap="round" stroke-linejoin="round" stroke-miterlimit="10" d="
				M122.347,75.933c0,0,2.406,0.088,4.525-1.6c4.699-4.271,1.158-9.401,1.158-9.401l-5.684-9.236l-5.682,9.236
				c0,0-3.542,5.131,1.158,9.401C119.942,76.021,122.347,75.933,122.347,75.933z"/>
			
				<path fill="#2F88C1" stroke="#2F88C1" stroke-width="0.7433" stroke-linecap="round" stroke-linejoin="round" stroke-miterlimit="10" d="
				M122.347,75.933c0,0-2.404,0.088-4.523-1.6c-4.7-4.271-1.158-9.401-1.158-9.401l5.682-9.236V75.933z"/>
		</g>
		<path fill="#3F96D2" d="M142.048,87.862c0-2.303-1.861-4.176-4.146-4.176c-1.846,0-3.41,1.222-3.947,2.903
			c-0.535-1.682-2.102-2.903-3.947-2.903c-1.879,0-3.467,1.266-3.975,2.996c-0.508-1.729-2.096-2.996-3.975-2.996
			c-1.846,0-3.41,1.222-3.947,2.902c-0.537-1.681-2.104-2.902-3.948-2.902c-1.846,0-3.412,1.222-3.947,2.902
			c-0.535-1.681-2.102-2.902-3.947-2.902c-2.285,0-4.146,1.872-4.146,4.176c0,0.066,0.008,0.131,0.01,0.197v30.481h39.917V88.005
			h-0.008C142.042,87.958,142.048,87.911,142.048,87.862z"/>
	</g>
	<g>
		
			<path fill="#575756" stroke="#575756" stroke-width="0.073" stroke-linecap="round" stroke-linejoin="round" stroke-miterlimit="10" d="
			M103.859,4.147l-0.004-1.885c0.277,0.009,0.488,0.047,0.629,0.114c0.141,0.067,0.211,0.167,0.211,0.3
			c0,0.133-0.037,0.232-0.111,0.297c-0.076,0.064-0.166,0.104-0.273,0.117c0.139,0.013,0.262,0.062,0.359,0.148
			c0.1,0.086,0.15,0.212,0.15,0.377s-0.084,0.295-0.246,0.389C104.41,4.098,104.172,4.146,103.859,4.147z M104.598,2.675
			c0-0.1-0.059-0.177-0.174-0.231c-0.113-0.054-0.27-0.08-0.469-0.08v0.681C104.383,3.04,104.598,2.917,104.598,2.675z
			 M104.721,3.601c0-0.093-0.025-0.171-0.078-0.234c-0.053-0.062-0.123-0.107-0.209-0.134c-0.146-0.048-0.305-0.072-0.477-0.072
			v0.885c0.146-0.002,0.271-0.018,0.377-0.049c0.105-0.031,0.185-0.072,0.238-0.12C104.67,3.786,104.721,3.693,104.721,3.601z"/>
		
			<path fill="#575756" stroke="#575756" stroke-width="0.073" stroke-linecap="round" stroke-linejoin="round" stroke-miterlimit="10" d="
			M106.066,2.402v1.737h-0.1V3.254h-0.762v0.885h-0.1V2.911c0-0.193,0.063-0.351,0.186-0.475c0.123-0.124,0.277-0.185,0.465-0.185
			C105.891,2.251,105.994,2.302,106.066,2.402z M105.967,3.155V2.439c-0.057-0.059-0.129-0.088-0.217-0.088
			c-0.158,0-0.287,0.057-0.391,0.171c-0.104,0.115-0.154,0.245-0.154,0.392v0.241H105.967z M105.32,1.914h0.102V2.09h-0.102V1.914z
			 M105.777,1.914h0.102V2.09h-0.102V1.914z"/>
		
			<path fill="#575756" stroke="#575756" stroke-width="0.073" stroke-linecap="round" stroke-linejoin="round" stroke-miterlimit="10" d="
			M107.088,3.855c0.082-0.069,0.121-0.154,0.121-0.254c0-0.1-0.029-0.181-0.088-0.24c-0.059-0.061-0.127-0.105-0.209-0.134
			c-0.084-0.03-0.166-0.06-0.25-0.09c-0.082-0.031-0.152-0.076-0.211-0.138c-0.059-0.061-0.088-0.14-0.088-0.237
			c0-0.168,0.047-0.293,0.143-0.375c0.092-0.082,0.205-0.123,0.334-0.123c0.133,0,0.275,0.012,0.432,0.038v0.099
			c-0.141-0.025-0.271-0.037-0.393-0.037c-0.123,0-0.221,0.033-0.299,0.101c-0.078,0.068-0.117,0.164-0.117,0.287
			c0,0.108,0.055,0.188,0.166,0.242c0.051,0.025,0.105,0.048,0.166,0.069c0.061,0.022,0.121,0.046,0.182,0.073
			c0.061,0.027,0.113,0.059,0.164,0.095c0.049,0.037,0.09,0.087,0.119,0.153c0.033,0.065,0.049,0.141,0.049,0.228
			c0,0.086-0.021,0.163-0.061,0.229c-0.041,0.066-0.09,0.118-0.15,0.155c-0.057,0.038-0.127,0.068-0.205,0.091
			c-0.127,0.039-0.27,0.059-0.43,0.059h-0.066V4.045C106.715,4.045,106.945,3.982,107.088,3.855z"/>
		
			<path fill="#575756" stroke="#575756" stroke-width="0.073" stroke-linecap="round" stroke-linejoin="round" stroke-miterlimit="10" d="
			M107.934,4.139h-0.1V2.362h-0.43v-0.1h0.961v0.1h-0.432V4.139z"/>
		
			<path fill="#575756" stroke="#575756" stroke-width="0.073" stroke-linecap="round" stroke-linejoin="round" stroke-miterlimit="10" d="
			M109.246,4.139h-0.1V2.262h0.961v0.1h-0.861v0.686h0.861v0.099h-0.861V4.139z"/>
		
			<path fill="#575756" stroke="#575756" stroke-width="0.073" stroke-linecap="round" stroke-linejoin="round" stroke-miterlimit="10" d="
			M111.541,3.217c0,0.295-0.049,0.522-0.148,0.682c-0.102,0.16-0.244,0.24-0.436,0.24c-0.189,0-0.34-0.081-0.449-0.242
			c-0.111-0.162-0.166-0.392-0.166-0.689c0-0.298,0.053-0.532,0.162-0.703c0.109-0.171,0.262-0.256,0.457-0.256
			c0.115,0,0.213,0.03,0.295,0.089c0.082,0.06,0.143,0.141,0.182,0.243C111.508,2.769,111.541,2.981,111.541,3.217z M111.443,3.171
			c0-0.249-0.043-0.447-0.125-0.595c-0.084-0.148-0.207-0.223-0.363-0.223c-0.158,0-0.283,0.074-0.375,0.222
			c-0.094,0.147-0.141,0.359-0.141,0.634c0,0.32,0.072,0.555,0.219,0.705c0.08,0.082,0.172,0.123,0.275,0.123
			s0.188-0.023,0.256-0.07c0.064-0.047,0.117-0.111,0.15-0.193C111.408,3.621,111.443,3.419,111.443,3.171z M110.66,1.914h0.102
			V2.09h-0.102V1.914z M111.115,1.914h0.101V2.09h-0.101V1.914z"/>
		
			<path fill="#575756" stroke="#575756" stroke-width="0.073" stroke-linecap="round" stroke-linejoin="round" stroke-miterlimit="10" d="
			M112.84,4.139h-0.119l-0.521-0.796c-0.066,0.009-0.141,0.016-0.219,0.019v0.777h-0.1v-1.88c0.598,0.002,0.898,0.182,0.898,0.539
			c0,0.288-0.158,0.464-0.473,0.528L112.84,4.139z M111.98,3.254l0.025,0.002c0.449-0.007,0.674-0.157,0.674-0.45
			c0-0.082-0.02-0.151-0.059-0.206c-0.039-0.054-0.082-0.097-0.129-0.127c-0.115-0.072-0.287-0.109-0.512-0.112V3.254z"/>
		
			<path fill="#575756" stroke="#575756" stroke-width="0.073" stroke-linecap="round" stroke-linejoin="round" stroke-miterlimit="10" d="
			M113.09,4.139V2.262h0.959v0.1h-0.859v0.686h0.859v0.099h-0.859V4.04h0.859v0.099H113.09z"/>
	</g>
	<g>
		
			<path fill="#575756" stroke="#575756" stroke-width="0.0714" stroke-linecap="round" stroke-linejoin="round" stroke-miterlimit="10" d="
			M116.407,4.144h-0.104V2.389l-0.41,0.186V2.474l0.514-0.237V4.144z"/>
		
			<path fill="#575756" stroke="#575756" stroke-width="0.0714" stroke-linecap="round" stroke-linejoin="round" stroke-miterlimit="10" d="
			M116.661,4.144l0.727-1.008c0.039-0.057,0.07-0.1,0.092-0.131c0.022-0.031,0.043-0.073,0.065-0.125
			c0.021-0.053,0.031-0.102,0.031-0.147c0-0.125-0.039-0.223-0.119-0.291c-0.08-0.069-0.174-0.104-0.277-0.104
			c-0.105,0-0.248,0.057-0.426,0.172V2.411c0.158-0.116,0.309-0.174,0.445-0.174c0.135,0,0.25,0.046,0.34,0.137
			c0.09,0.092,0.137,0.208,0.137,0.348c0,0.14-0.051,0.278-0.148,0.414l-0.652,0.908h0.822v0.101H116.661z"/>
		
			<path fill="#575756" stroke="#575756" stroke-width="0.0714" stroke-linecap="round" stroke-linejoin="round" stroke-miterlimit="10" d="
			M119.657,4.144l0.006-1.75l-0.455,1.044h-0.092l-0.455-1.044v1.75h-0.096v-1.91h0.131l0.465,1.068l0.465-1.068h0.133v1.91H119.657
			z"/>
		
			<path fill="#575756" stroke="#575756" stroke-width="0.0714" stroke-linecap="round" stroke-linejoin="round" stroke-miterlimit="10" d="
			M121.132,2.378v1.766h-0.1V3.245h-0.775v0.899h-0.1V2.896c0-0.197,0.062-0.357,0.188-0.482s0.283-0.188,0.471-0.188
			C120.954,2.226,121.06,2.276,121.132,2.378z M121.032,3.144V2.417c-0.059-0.06-0.133-0.09-0.221-0.09
			c-0.162,0-0.291,0.059-0.396,0.174c-0.105,0.117-0.158,0.25-0.158,0.398v0.245H121.032z"/>
		
			<path fill="#575756" stroke="#575756" stroke-width="0.0714" stroke-linecap="round" stroke-linejoin="round" stroke-miterlimit="10" d="
			M121.384,3.735h0.1c0.004,0.138,0.039,0.228,0.105,0.273c0.049,0.031,0.096,0.046,0.145,0.046c0.129,0,0.227-0.043,0.295-0.131
			c0.07-0.089,0.104-0.235,0.104-0.44V2.236h0.102v1.249c0,0.447-0.168,0.67-0.508,0.67c-0.068,0-0.139-0.024-0.211-0.071
			c-0.039-0.027-0.07-0.071-0.094-0.131C121.397,3.894,121.384,3.821,121.384,3.735z"/>
	</g>
</g>
<path fill="#007D40" stroke="#007D40" stroke-width="0.75" stroke-linecap="round" stroke-linejoin="round" stroke-miterlimit="10" d="
	M28.953,7.818"/>
<g>
	<path fill="#009640" stroke="#009640" stroke-width="0.3904" stroke-miterlimit="10" d="M27.239,59.811"/>
</g>
<g>
	<path fill="none" stroke="#E94E1B" stroke-width="17.9384" stroke-linecap="round" stroke-miterlimit="10" d="M69.312,86.486
		c-16.719,9-38.416,1.172-48.462-17.485"/>
	<path fill="#BE1622" d="M77.21,82.235c2.348,4.361,0.717,9.802-3.645,12.148c-21.047,11.333-48.238,1.852-60.61-21.131
		C8.533,65.042,6.437,55.92,6.894,46.876c0.25-4.949,4.464-8.756,9.411-8.505c4.947,0.249,8.754,4.462,8.504,9.408
		c-0.29,5.774,1.07,11.641,3.939,16.97c7.685,14.274,23.975,20.481,36.312,13.839C69.424,76.24,74.862,77.872,77.21,82.235z"/>
	<path fill="#E20714" d="M16.548,38.387c-4.947-0.25-9.403,3.54-9.653,8.489c-0.457,9.043,1.639,18.165,6.061,26.376
		c12.372,22.982,39.563,32.463,60.61,21.131c4.361-2.347,5.848-8.04,3.501-12.402l-7.987,4.07
		c-16.452,8.857-37.892,1.103-47.791-17.284c-3.604-6.692-5.311-14.095-4.941-21.414C16.352,47.256,16.548,38.387,16.548,38.387z"/>
	
		<polygon fill="#E20714" stroke="#E20714" stroke-width="0.3322" stroke-linecap="round" stroke-linejoin="round" stroke-miterlimit="10" points="
		79.573,83.305 77.617,79.671 80.143,77.221 79.487,79.861 81.565,79.864 80.4,81.562 83.01,82.546 	"/>
	
		<polygon fill="#BE1622" stroke="#BE1622" stroke-width="0.3322" stroke-linecap="round" stroke-linejoin="round" stroke-miterlimit="10" points="
		78.596,81.488 77.617,79.671 80.143,77.221 79.487,79.861 81.565,79.864 	"/>
	
		<polygon fill="#BE1622" stroke="#BE1622" stroke-width="0.3322" stroke-linecap="round" stroke-linejoin="round" stroke-miterlimit="10" points="
		18.835,36.909 14.732,36.46 14.144,32.991 15.948,35.027 17.127,33.315 17.865,35.236 20.156,33.645 	"/>
	
		<polygon fill="#E20714" stroke="#E20714" stroke-width="0.3322" stroke-linecap="round" stroke-linejoin="round" stroke-miterlimit="10" points="
		16.783,36.682 14.732,36.46 14.144,32.991 15.948,35.027 17.127,33.315 	"/>
</g>
<g>
	<g>
		
			<path fill="#F39200" stroke="#F39200" stroke-width="1.545" stroke-linecap="round" stroke-linejoin="round" stroke-miterlimit="10" d="
			M90.208,101.889l12.13-44.066c1.671-9.062-2.138-15.597-8.931-15.597h-3.176h-0.046h-3.177c-6.792,0-10.603,6.535-8.931,15.597
			L90.208,101.889z"/>
	</g>
	<g>
		<g>
			<path fill="#F08100" d="M90.208,101.889l12.13-44.066c1.671-9.062-2.138-15.597-8.931-15.597h-3.176h-0.046L90.208,101.889z"/>
		</g>
		<g>
			<path fill="#F08100" d="M90.186,41.453h3.222c2.962,0,5.483,1.149,7.291,3.322c2.515,3.021,3.389,7.827,2.398,13.189
				c-0.004,0.021-0.009,0.043-0.015,0.064l-12.13,44.067c-0.093,0.338-0.401,0.567-0.744,0.567c-0.033,0-0.068-0.002-0.105-0.007
				L90.186,41.453z"/>
		</g>
	</g>
	<g>
		
			<path fill="#007C5A" stroke="#007C5A" stroke-width="0.8306" stroke-linecap="round" stroke-linejoin="round" stroke-miterlimit="10" d="
			M85.583,26.513c0,0-8.261-2.584-8.48-8.115c-0.171-4.328,3.599-5.814,6.944-4.907c5.226,1.417,4.978,9.596,4.874,10.791
			c0,0-0.052,1.28-0.155,3.461c0,2.959,0,11.787,0,11.787h-1.523V26.876L85.583,26.513z"/>
	</g>
	<g>
		
			<path fill="#007C5A" stroke="#007C5A" stroke-width="0.8306" stroke-linecap="round" stroke-linejoin="round" stroke-miterlimit="10" d="
			M93.696,34.77c0,0,8.261-2.586,8.479-8.117c0.17-4.327-3.6-5.815-6.944-4.907c-5.228,1.417-4.58,7.904-4.714,9.703
			c0,0-0.007,2.182-0.007,4.549c0-0.511,0,3.532,0,3.532h1.524v-4.396L93.696,34.77z"/>
	</g>
</g>
<g>
	<circle fill="#FBC715" stroke="#FBC715" stroke-width="0.2424" stroke-miterlimit="10" cx="52.292" cy="51.133" r="23.339"/>
	<path fill="#FAB515" stroke="#FAB515" stroke-width="0.2424" stroke-miterlimit="10" d="M52.292,74.473
		c-12.891,0-23.339-10.45-23.339-23.339c0-12.89,10.448-23.34,23.339-23.34V74.473z"/>
	<circle fill="#F8AD17" stroke="#F8AD17" stroke-width="0.2653" stroke-miterlimit="10" cx="57.46" cy="30.646" r="0.696"/>
	<circle fill="#F8AD17" stroke="#F8AD17" stroke-width="0.2653" stroke-miterlimit="10" cx="60.75" cy="32.037" r="0.695"/>
	<circle fill="#F8AD17" stroke="#F8AD17" stroke-width="0.2653" stroke-miterlimit="10" cx="57.46" cy="34.377" r="0.696"/>
	<circle fill="#F8AD17" stroke="#F8AD17" stroke-width="0.2653" stroke-miterlimit="10" cx="54.03" cy="32.733" r="0.695"/>
	<circle fill="#F8AD17" stroke="#F8AD17" stroke-width="0.2653" stroke-miterlimit="10" cx="62.141" cy="35.981" r="0.696"/>
	<circle fill="#F8AD17" stroke="#F8AD17" stroke-width="0.2653" stroke-miterlimit="10" cx="67.044" cy="37.16" r="0.696"/>
	<circle fill="#F8AD17" stroke="#F8AD17" stroke-width="0.2653" stroke-miterlimit="10" cx="67.044" cy="40.638" r="0.696"/>
	<circle fill="#F8AD17" stroke="#F8AD17" stroke-width="0.2653" stroke-miterlimit="10" cx="63.267" cy="39.943" r="0.695"/>
	<circle fill="#F8AD17" stroke="#F8AD17" stroke-width="0.2653" stroke-miterlimit="10" cx="55.085" cy="38.551" r="0.695"/>
	<circle fill="#F8AD17" stroke="#F8AD17" stroke-width="0.2653" stroke-miterlimit="10" cx="57.46" cy="42.601" r="0.696"/>
	<circle fill="#F8AD17" stroke="#F8AD17" stroke-width="0.2653" stroke-miterlimit="10" cx="58.852" cy="38.551" r="0.695"/>
	<circle fill="#F8AD17" stroke="#F8AD17" stroke-width="0.2653" stroke-miterlimit="10" cx="64.957" cy="34.124" r="0.696"/>
</g>
<path fill="#F6F6F6" d="M155.04,238.632l-7.751-65.579l0.015-100.636H111.07v0.273c0-15.519-12.625-28.144-28.142-28.144H72.113
	c-15.518,0-28.143,12.625-28.143,28.144v-0.273H7.738v66.506L0,238.632H155.04z M55.316,72.407c0-7.057,5.74-16.515,12.797-16.515
	h18.814c7.056,0,12.797,9.741,12.797,16.798v-0.273H77.521H59.316L55.316,72.407z"/>
<path fill="#F0F0F0" d="M7.738,138.923L7.738,138.923L0,238.632h155.04L7.738,138.923z"/>
<path fill="#E9E9E9" d="M1.021,225.473L0,238.632h155.04L1.021,225.473z"/>
</svg>
