<?xml version="1.0" encoding="utf-8"?>
<!-- Generator: Adobe Illustrator 17.0.0, SVG Export Plug-In . SVG Version: 6.00 Build 0)  -->
<!DOCTYPE svg PUBLIC "-//W3C//DTD SVG 1.1//EN" "http://www.w3.org/Graphics/SVG/1.1/DTD/svg11.dtd">
<svg version="1.1" id="Layer_1" xmlns="http://www.w3.org/2000/svg" xmlns:xlink="http://www.w3.org/1999/xlink" x="0px" y="0px"
	 width="148.859px" height="234.953px" viewBox="0 0 148.859 234.953" enable-background="new 0 0 148.859 234.953"
	 xml:space="preserve">
<g>
	<g>
		<g>
			
				<path fill="#FFD600" stroke="#FFD600" stroke-width="0.4432" stroke-linecap="round" stroke-linejoin="round" stroke-miterlimit="10" d="
				M129.968,55.168c-14.027,6.534-28.478,3.475-38.637-3.251C81.173,45.19,75.386,34.338,74.72,23.044l-7.418,0.143
				c-5.082,15.53,0.559,33.145,14.842,42.604c14.285,9.459,35.031,8.588,49.461-6.708L129.968,55.168z"/>
		</g>
		<g>
			
				<path fill="#FDC100" stroke="#FDC100" stroke-width="0.4432" stroke-linecap="round" stroke-linejoin="round" stroke-miterlimit="10" d="
				M131.605,59.083c-13.875,14.864-34.426,16.664-49.461,6.708C67.861,56.332,62.22,38.717,67.302,23.187l3.195-0.062
				c-1.604,13.521,4.295,27.427,16.42,35.457c12.127,8.031,32.018,7.657,43.947-1.269L131.605,59.083z"/>
		</g>
	</g>
	<g>
		<g>
			
				<path fill="#FFD600" stroke="#FFD600" stroke-width="0.4432" stroke-linecap="round" stroke-linejoin="round" stroke-miterlimit="10" d="
				M141.501,28.947c-10.211,11.628-24.668,14.643-36.676,12.575C92.82,39.452,83.154,31.85,77.998,21.779l-6.732,3.116
				c1.598,16.262,13.854,30.116,30.734,33.025c16.885,2.91,35.525-6.238,42.576-26.048L141.501,28.947z"/>
		</g>
		<g>
			
				<path fill="#FDC100" stroke="#FDC100" stroke-width="0.4432" stroke-linecap="round" stroke-linejoin="round" stroke-miterlimit="10" d="
				M144.576,31.872c-6.719,19.192-24.805,29.111-42.576,26.048c-16.881-2.909-29.137-16.763-30.734-33.025l2.9-1.342
				c3.975,13.021,14.971,23.378,29.303,25.848c14.334,2.469,32.391-5.877,39.719-18.851L144.576,31.872z"/>
		</g>
	</g>
	<g>
		
			<path fill="#FDC100" stroke="#FDC100" stroke-width="0.4432" stroke-linecap="round" stroke-linejoin="round" stroke-miterlimit="10" d="
			M91.164,66.082"/>
	</g>
	<g>
		<g>
			
				<polygon fill="#634E42" stroke="#634E42" stroke-width="0.421" stroke-linecap="round" stroke-linejoin="round" stroke-miterlimit="10" points="
				78.324,19.622 72.433,16.908 74.779,13.939 79.056,15.911 			"/>
		</g>
		<g>
			
				<polygon fill="#7B6A58" stroke="#7B6A58" stroke-width="0.421" stroke-linecap="round" stroke-linejoin="round" stroke-miterlimit="10" points="
				78.324,19.622 79.056,15.911 74.779,13.939 			"/>
		</g>
	</g>
	<g>
		
			<path fill="#FFD600" stroke="#FFD600" stroke-width="0.4432" stroke-linecap="round" stroke-linejoin="round" stroke-miterlimit="10" d="
			M113.621,74.721c-15.473-0.218-27.154-9.258-33.375-19.733c-6.221-10.476-6.713-22.765-2.4-33.224l-6.74-3.099
			c-11.332,11.774-13.914,30.089-5.168,44.818c8.748,14.731,27.809,22.971,47.453,15.474L113.621,74.721z"/>
	</g>
	<g>
		
			<path fill="#FDC100" stroke="#FDC100" stroke-width="0.4432" stroke-linecap="round" stroke-linejoin="round" stroke-miterlimit="10" d="
			M113.39,78.958c-18.959,7.349-38.246,0.03-47.453-15.474c-8.746-14.729-6.164-33.044,5.168-44.818l2.904,1.336
			c-7.324,11.477-8.064,26.563-0.639,39.068c7.428,12.506,25.498,20.822,40.123,17.974L113.39,78.958z"/>
	</g>
	<g>
		
			<path fill="#FDC100" stroke="#FDC100" stroke-width="0.4432" stroke-linecap="round" stroke-linejoin="round" stroke-miterlimit="10" d="
			M112.113,48.44"/>
	</g>
</g>
<g>
	<path fill="#009640" stroke="#009640" stroke-width="0.3904" stroke-miterlimit="10" d="M127.8,56.132"/>
</g>
<g>
	<g>
		
			<rect x="17.297" y="0.21" fill="#FFFFFF" stroke="#FFFFFF" stroke-width="0.4209" stroke-miterlimit="10" width="39.527" height="118.148"/>
		
			<rect x="17.297" y="0.21" fill="#F0F0F0" stroke="#F0F0F0" stroke-width="0.0955" stroke-miterlimit="10" width="39.527" height="6.081"/>
		
			<rect x="17.297" y="29.814" fill="#F8F8F8" stroke="#F8F8F8" stroke-width="0.3644" stroke-miterlimit="10" width="39.527" height="88.544"/>
		<g>
			<circle fill="#3F96D2" cx="37.329" cy="16.686" r="6.867"/>
			<path fill="#2D7FBD" d="M37.33,23.553c-3.793,0-6.868-3.075-6.868-6.868c0-3.792,3.075-6.867,6.868-6.867V23.553z"/>
		</g>
		<polygon fill="#F0F0F0" stroke="#F0F0F0" stroke-width="0.3644" stroke-miterlimit="10" points="56.824,118.358 17.297,118.358 
			17.297,29.814 		"/>
		<g>
			<circle fill="#53A5D9" cx="37.331" cy="16.686" r="4.915"/>
			<path fill="#3F96D2" d="M37.33,21.601c-2.715,0-4.914-2.2-4.914-4.915c0-2.714,2.199-4.915,4.914-4.915V21.601z"/>
		</g>
		<g>
			
				<path fill="#575756" stroke="#575756" stroke-width="0.202" stroke-linecap="round" stroke-linejoin="round" stroke-miterlimit="10" d="
				M28.091,46.915l0.024-7.523l-1.958,4.488H25.76l-1.957-4.488v7.523h-0.41v-8.213h0.562l2.004,4.593l1.991-4.593h0.574v8.213
				H28.091z"/>
			
				<path fill="#575756" stroke="#575756" stroke-width="0.202" stroke-linecap="round" stroke-linejoin="round" stroke-miterlimit="10" d="
				M29.626,45.157h0.435c0.015,0.594,0.163,0.984,0.444,1.171c0.21,0.133,0.417,0.2,0.622,0.2c0.555,0,0.98-0.19,1.277-0.569
				c0.297-0.378,0.443-1.009,0.443-1.892v-5.355h0.434v5.367c0,1.922-0.725,2.882-2.178,2.882c-0.299,0-0.602-0.101-0.913-0.304
				c-0.165-0.117-0.299-0.305-0.405-0.563C29.679,45.836,29.626,45.524,29.626,45.157z"/>
			
				<path fill="#575756" stroke="#575756" stroke-width="0.202" stroke-linecap="round" stroke-linejoin="round" stroke-miterlimit="10" d="
				M39.949,42.884c0,1.289-0.219,2.283-0.656,2.981c-0.438,0.7-1.07,1.049-1.898,1.049c-0.828,0-1.484-0.353-1.969-1.06
				c-0.484-0.707-0.727-1.711-0.727-3.011c0-1.301,0.238-2.324,0.717-3.07c0.475-0.746,1.139-1.12,1.99-1.12
				c0.508,0,0.939,0.131,1.295,0.392c0.355,0.262,0.619,0.616,0.791,1.061C39.796,40.927,39.949,41.853,39.949,42.884z
				 M39.515,42.685c0-1.085-0.184-1.952-0.551-2.601c-0.367-0.648-0.895-0.972-1.582-0.972s-1.234,0.322-1.641,0.967
				c-0.406,0.644-0.609,1.568-0.609,2.771c0,1.399,0.316,2.426,0.949,3.082c0.351,0.359,0.754,0.539,1.207,0.539
				c0.453,0,0.824-0.102,1.113-0.305c0.289-0.204,0.512-0.485,0.668-0.844C39.367,44.649,39.515,43.771,39.515,42.685z
				 M36.093,37.189h0.445v0.773h-0.445V37.189z M38.085,37.189h0.445v0.773h-0.445V37.189z"/>
			
				<path fill="#575756" stroke="#575756" stroke-width="0.202" stroke-linecap="round" stroke-linejoin="round" stroke-miterlimit="10" d="
				M45.503,46.915h-4.078v-8.202h0.434v7.769h3.645V46.915z"/>
			
				<path fill="#575756" stroke="#575756" stroke-width="0.202" stroke-linecap="round" stroke-linejoin="round" stroke-miterlimit="10" d="
				M50.716,46.915h-0.434v-0.796c0-2.422-0.594-3.633-1.781-3.633c-0.25,0-0.488,0.065-0.715,0.193
				c-0.226,0.129-0.385,0.242-0.473,0.34c-0.092,0.099-0.207,0.24-0.348,0.428v3.468h-0.434v-8.202h0.434v4.043l3.164-4.054h0.598
				l-2.719,3.421c0.188-0.046,0.371-0.07,0.551-0.07c0.664,0,1.189,0.32,1.576,0.96c0.387,0.641,0.58,1.628,0.58,2.964V46.915z"/>
		</g>
		<g>
			
				<path fill="#3F96D2" stroke="#3F96D2" stroke-width="0.7433" stroke-linecap="round" stroke-linejoin="round" stroke-miterlimit="10" d="
				M37.33,75.933c0,0,2.406,0.088,4.525-1.6c4.699-4.271,1.158-9.401,1.158-9.401l-5.684-9.236l-5.682,9.236
				c0,0-3.542,5.131,1.158,9.401C34.925,76.021,37.33,75.933,37.33,75.933z"/>
			
				<path fill="#2F88C1" stroke="#2F88C1" stroke-width="0.7433" stroke-linecap="round" stroke-linejoin="round" stroke-miterlimit="10" d="
				M37.33,75.933c0,0-2.404,0.088-4.523-1.6c-4.701-4.271-1.158-9.401-1.158-9.401l5.682-9.236V75.933z"/>
		</g>
		<path fill="#3F96D2" d="M57.031,87.862c0-2.303-1.861-4.176-4.146-4.176c-1.846,0-3.41,1.222-3.947,2.903
			c-0.535-1.682-2.102-2.903-3.947-2.903c-1.879,0-3.467,1.266-3.975,2.996c-0.508-1.729-2.096-2.996-3.975-2.996
			c-1.846,0-3.41,1.222-3.947,2.902c-0.537-1.681-2.104-2.902-3.949-2.902c-1.845,0-3.411,1.222-3.947,2.902
			c-0.535-1.681-2.101-2.902-3.946-2.902c-2.286,0-4.146,1.873-4.146,4.176c0,0.066,0.007,0.131,0.01,0.197v30.482h39.917V88.005
			h-0.008C57.025,87.958,57.031,87.911,57.031,87.862z"/>
	</g>
	<g>
		
			<path fill="#575756" stroke="#575756" stroke-width="0.073" stroke-linecap="round" stroke-linejoin="round" stroke-miterlimit="10" d="
			M18.842,4.147l-0.003-1.885c0.277,0.009,0.487,0.047,0.628,0.114c0.142,0.067,0.212,0.167,0.212,0.3
			c0,0.133-0.038,0.233-0.112,0.297C19.491,3.037,19.4,3.077,19.293,3.09c0.14,0.013,0.262,0.062,0.36,0.148
			c0.1,0.086,0.149,0.212,0.149,0.377S19.72,3.91,19.557,4.004C19.393,4.098,19.155,4.146,18.842,4.147z M19.58,2.675
			c0-0.101-0.058-0.177-0.173-0.231c-0.113-0.054-0.271-0.08-0.469-0.08v0.681C19.366,3.04,19.58,2.917,19.58,2.675z M19.703,3.601
			c0-0.093-0.025-0.171-0.078-0.234c-0.052-0.062-0.122-0.107-0.209-0.134c-0.147-0.048-0.305-0.072-0.476-0.072v0.885
			c0.146-0.002,0.271-0.018,0.376-0.049c0.105-0.031,0.186-0.072,0.239-0.12C19.653,3.786,19.703,3.693,19.703,3.601z"/>
		
			<path fill="#575756" stroke="#575756" stroke-width="0.073" stroke-linecap="round" stroke-linejoin="round" stroke-miterlimit="10" d="
			M21.049,2.402v1.737h-0.1V3.254h-0.761v0.885h-0.1V2.911c0-0.193,0.062-0.351,0.186-0.475c0.123-0.124,0.277-0.185,0.464-0.185
			C20.873,2.251,20.978,2.302,21.049,2.402z M20.949,3.155V2.439c-0.057-0.059-0.129-0.088-0.216-0.088
			c-0.158,0-0.288,0.057-0.391,0.171c-0.104,0.115-0.154,0.245-0.154,0.392v0.241H20.949z M20.304,1.914h0.102V2.09h-0.102V1.914z
			 M20.76,1.914h0.101V2.09H20.76V1.914z"/>
		
			<path fill="#575756" stroke="#575756" stroke-width="0.073" stroke-linecap="round" stroke-linejoin="round" stroke-miterlimit="10" d="
			M22.071,3.855c0.081-0.069,0.121-0.154,0.121-0.254c0-0.1-0.029-0.181-0.088-0.24c-0.059-0.061-0.128-0.105-0.21-0.134
			c-0.083-0.03-0.166-0.059-0.249-0.09c-0.083-0.031-0.153-0.076-0.212-0.138c-0.058-0.061-0.087-0.14-0.087-0.237
			c0-0.168,0.047-0.293,0.142-0.375c0.093-0.082,0.205-0.123,0.335-0.123c0.132,0,0.274,0.012,0.431,0.038v0.099
			c-0.141-0.025-0.27-0.037-0.393-0.037c-0.122,0-0.221,0.033-0.299,0.101c-0.077,0.068-0.116,0.164-0.116,0.287
			c0,0.108,0.055,0.188,0.166,0.242c0.051,0.025,0.104,0.048,0.165,0.069c0.06,0.022,0.121,0.046,0.182,0.073
			c0.06,0.027,0.114,0.059,0.164,0.095c0.05,0.037,0.09,0.087,0.12,0.153c0.032,0.065,0.048,0.141,0.048,0.228
			c0,0.086-0.021,0.163-0.061,0.229c-0.041,0.066-0.09,0.118-0.149,0.155c-0.058,0.038-0.127,0.068-0.206,0.091
			c-0.127,0.04-0.27,0.059-0.429,0.059h-0.067V4.045C21.697,4.045,21.929,3.982,22.071,3.855z"/>
		
			<path fill="#575756" stroke="#575756" stroke-width="0.073" stroke-linecap="round" stroke-linejoin="round" stroke-miterlimit="10" d="
			M22.916,4.139h-0.099V2.362h-0.431v-0.1h0.961v0.1h-0.432V4.139z"/>
		
			<path fill="#575756" stroke="#575756" stroke-width="0.073" stroke-linecap="round" stroke-linejoin="round" stroke-miterlimit="10" d="
			M24.229,4.139h-0.1V2.262h0.96v0.1h-0.86v0.686h0.86v0.099h-0.86V4.139z"/>
		
			<path fill="#575756" stroke="#575756" stroke-width="0.073" stroke-linecap="round" stroke-linejoin="round" stroke-miterlimit="10" d="
			M26.524,3.217c0,0.295-0.05,0.522-0.149,0.682c-0.101,0.16-0.244,0.24-0.435,0.24c-0.189,0-0.34-0.081-0.45-0.242
			c-0.111-0.162-0.166-0.392-0.166-0.689c0-0.298,0.054-0.532,0.163-0.703c0.109-0.171,0.261-0.256,0.456-0.256
			c0.116,0,0.214,0.03,0.296,0.089c0.081,0.06,0.142,0.141,0.182,0.243C26.49,2.769,26.524,2.981,26.524,3.217z M26.426,3.171
			c0-0.249-0.042-0.447-0.125-0.595c-0.084-0.148-0.206-0.223-0.363-0.223s-0.282,0.074-0.375,0.222
			c-0.094,0.147-0.14,0.359-0.14,0.634c0,0.32,0.072,0.555,0.218,0.705c0.08,0.082,0.172,0.124,0.275,0.124
			c0.104,0,0.189-0.023,0.256-0.07c0.065-0.047,0.117-0.111,0.151-0.193C26.392,3.621,26.426,3.419,26.426,3.171z M25.643,1.914
			h0.102V2.09h-0.102V1.914z M26.099,1.914H26.2V2.09h-0.102V1.914z"/>
		
			<path fill="#575756" stroke="#575756" stroke-width="0.073" stroke-linecap="round" stroke-linejoin="round" stroke-miterlimit="10" d="
			M27.823,4.139h-0.12l-0.521-0.796c-0.066,0.009-0.14,0.016-0.219,0.019v0.777h-0.1v-1.88c0.599,0.002,0.898,0.182,0.898,0.539
			c0,0.288-0.158,0.464-0.473,0.528L27.823,4.139z M26.963,3.254l0.026,0.002c0.449-0.007,0.673-0.157,0.673-0.45
			c0-0.082-0.019-0.151-0.058-0.206c-0.039-0.054-0.082-0.097-0.13-0.127c-0.115-0.072-0.286-0.109-0.512-0.112V3.254z"/>
		
			<path fill="#575756" stroke="#575756" stroke-width="0.073" stroke-linecap="round" stroke-linejoin="round" stroke-miterlimit="10" d="
			M28.072,4.139V2.262h0.96v0.1h-0.86v0.686h0.86v0.099h-0.86V4.04h0.86v0.099H28.072z"/>
	</g>
	<g>
		
			<path fill="#575756" stroke="#575756" stroke-width="0.0714" stroke-linecap="round" stroke-linejoin="round" stroke-miterlimit="10" d="
			M31.39,4.144h-0.104V2.389l-0.41,0.186V2.474l0.514-0.237V4.144z"/>
		
			<path fill="#575756" stroke="#575756" stroke-width="0.0714" stroke-linecap="round" stroke-linejoin="round" stroke-miterlimit="10" d="
			M31.644,4.144l0.726-1.008c0.039-0.057,0.07-0.1,0.092-0.131c0.021-0.031,0.043-0.073,0.064-0.125
			c0.022-0.053,0.031-0.102,0.031-0.147c0-0.125-0.039-0.223-0.119-0.291c-0.08-0.069-0.174-0.104-0.277-0.104
			c-0.105,0-0.248,0.057-0.426,0.172V2.411c0.158-0.116,0.309-0.174,0.445-0.174c0.135,0,0.25,0.046,0.34,0.137
			c0.09,0.092,0.137,0.208,0.137,0.348c0,0.14-0.051,0.278-0.148,0.414l-0.652,0.908h0.822v0.101H31.644z"/>
		
			<path fill="#575756" stroke="#575756" stroke-width="0.0714" stroke-linecap="round" stroke-linejoin="round" stroke-miterlimit="10" d="
			M34.64,4.144l0.006-1.75l-0.455,1.044h-0.092l-0.455-1.044v1.75h-0.096v-1.91h0.131l0.465,1.068l0.465-1.068h0.133v1.91H34.64z"/>
		
			<path fill="#575756" stroke="#575756" stroke-width="0.0714" stroke-linecap="round" stroke-linejoin="round" stroke-miterlimit="10" d="
			M36.115,2.378v1.766h-0.1V3.245H35.24v0.899h-0.1V2.896c0-0.197,0.062-0.357,0.188-0.482s0.283-0.188,0.471-0.188
			C35.937,2.226,36.042,2.276,36.115,2.378z M36.015,3.144V2.417c-0.059-0.06-0.133-0.09-0.221-0.09
			c-0.162,0-0.291,0.059-0.396,0.174c-0.105,0.117-0.158,0.25-0.158,0.398v0.245H36.015z"/>
		
			<path fill="#575756" stroke="#575756" stroke-width="0.0714" stroke-linecap="round" stroke-linejoin="round" stroke-miterlimit="10" d="
			M36.367,3.735h0.1c0.004,0.138,0.039,0.228,0.105,0.273c0.049,0.031,0.096,0.046,0.145,0.046c0.129,0,0.227-0.043,0.295-0.131
			c0.07-0.089,0.104-0.235,0.104-0.44V2.236h0.102v1.249c0,0.447-0.168,0.67-0.508,0.67c-0.068,0-0.139-0.024-0.211-0.071
			c-0.039-0.027-0.07-0.071-0.094-0.131C36.38,3.894,36.367,3.821,36.367,3.735z"/>
	</g>
</g>
<path fill="#F6F6F6" d="M148.859,234.953l-1.572-48.918l0.016-117.297H111.07v0.273c0-15.519-12.625-28.144-28.144-28.144H72.113
	c-15.52,0-28.145,12.625-28.145,28.144v-0.273H7.736l-0.044,97.963L0,234.953H148.859z M95.724,68.738H77.517H55.314l0,0
	c0-7.057,5.742-16.524,12.799-16.524h18.812c7.059,0,12.799,9.741,12.799,16.798L95.724,68.738z"/>
<path fill="#F0F0F0" d="M0,234.953h148.859l0,0L7.571,167.778L0,234.953z"/>
<path fill="#E9E9E9" d="M0,234.953h148.859L4.445,195.515L0,234.953z"/>
</svg>
