<?xml version="1.0" encoding="utf-8"?>
<!-- Generator: Adobe Illustrator 15.0.2, SVG Export Plug-In . SVG Version: 6.00 Build 0)  -->
<!DOCTYPE svg PUBLIC "-//W3C//DTD SVG 1.1//EN" "http://www.w3.org/Graphics/SVG/1.1/DTD/svg11.dtd">
<svg version="1.1" id="Lager_1" xmlns="http://www.w3.org/2000/svg" xmlns:xlink="http://www.w3.org/1999/xlink" x="0px" y="0px"
	 width="106.239px" height="107.083px" viewBox="0 0 106.239 107.083" enable-background="new 0 0 106.239 107.083"
	 xml:space="preserve">
<g>
	<g>
		
			<polygon fill="#D83939" stroke="#D83939" stroke-width="0.3808" stroke-linecap="round" stroke-linejoin="round" stroke-miterlimit="10" points="
			29.899,103.526 38.531,96.27 42.464,106.893 55.471,58.336 42.907,54.969 		"/>
		
			<polygon fill="#CE302F" stroke="#CE302F" stroke-width="0.3808" stroke-linecap="round" stroke-linejoin="round" stroke-miterlimit="10" points="
			38.531,96.27 42.464,106.893 55.471,58.336 49.189,56.653 		"/>
	</g>
	<g>
		
			<polygon fill="#D83939" stroke="#D83939" stroke-width="0.3808" stroke-linecap="round" stroke-linejoin="round" stroke-miterlimit="10" points="
			77.368,103.526 68.736,96.27 64.805,106.893 51.797,58.336 64.361,54.969 		"/>
		
			<polygon fill="#CE302F" stroke="#CE302F" stroke-width="0.3808" stroke-linecap="round" stroke-linejoin="round" stroke-miterlimit="10" points="
			68.736,96.27 64.805,106.893 51.797,58.336 58.079,56.653 		"/>
	</g>
	<g>
		<g>
			<circle fill="#F0F0F0" stroke="#F0F0F0" stroke-width="0.6326" stroke-miterlimit="10" cx="53.598" cy="39.172" r="38.855"/>
			<path fill="#DCDDDE" stroke="#DCDDDE" stroke-width="0.5259" stroke-miterlimit="10" d="M53.598,78.032
				c-21.458,0-38.854-17.402-38.854-38.86c0-21.46,17.396-38.855,38.854-38.855V78.032z"/>
		</g>
		<circle fill="#E1E1E1" stroke="#E1E1E1" stroke-width="0.5259" stroke-miterlimit="10" cx="53.598" cy="39.375" r="32.302"/>
		<path opacity="0.8" fill="#C6C6C9" stroke="#C6C6C9" stroke-width="0.5259" stroke-miterlimit="10" d="M53.598,71.68
			c-17.84,0-32.301-14.465-32.301-32.305c0-17.841,14.461-32.303,32.301-32.303V71.68z"/>
	</g>
	
		<path fill="#F0F0F0" stroke="#F0F0F0" stroke-width="0.238" stroke-linecap="round" stroke-linejoin="round" stroke-miterlimit="10" d="
		M7.179,74.605"/>
	
		<path fill="#F0F0F0" stroke="#F0F0F0" stroke-width="0.238" stroke-linecap="round" stroke-linejoin="round" stroke-miterlimit="10" d="
		M8.706,7.191c-0.34,0-0.615,0.274-0.615,0.614v9.65H6.782v-9.65c0-0.34-0.275-0.614-0.615-0.614c-0.34,0-0.615,0.274-0.615,0.614
		v9.65H4.006v-9.65c0-0.34-0.275-0.614-0.615-0.614c-0.339,0-0.615,0.274-0.615,0.614v9.65H1.349v-9.65
		c0-0.34-0.275-0.614-0.615-0.614c-0.339,0-0.615,0.274-0.615,0.614v9.65v0.186v6.805c0,1.635,0.856,3.067,2.142,3.884v46.275
		c0,1.358,1.101,2.46,2.459,2.46c1.358,0,2.459-1.102,2.459-2.46V28.33c1.286-0.816,2.142-2.249,2.142-3.884v-6.805v-0.186v-9.65
		C9.321,7.466,9.045,7.191,8.706,7.191z"/>
	
		<path fill="#D9DADB" stroke="#D9DADB" stroke-width="0.238" stroke-linecap="round" stroke-linejoin="round" stroke-miterlimit="10" d="
		M9.321,17.456"/>
	<g>
		<path fill="#DCDDDE" d="M4.72,77.065c-1.358,0-2.459-1.102-2.459-2.46V28.33c-1.286-0.816-2.142-2.249-2.142-3.884v-6.805v-0.186
			v-9.65c0-0.34,0.275-0.614,0.615-0.614c0.34,0,0.615,0.274,0.615,0.614v9.65h1.428v-9.65c0-0.34,0.275-0.614,0.615-0.614
			c0.34,0,0.615,0.274,0.615,0.614v9.65H4.72V77.065z"/>
		<path fill="#DCDDDE" d="M4.839,17.456v59.609c0,0.066-0.053,0.119-0.119,0.119c-1.422,0-2.578-1.156-2.578-2.579v-46.21
			C0.8,27.518,0,26.046,0,24.446V7.806c0-0.404,0.33-0.733,0.734-0.733c0.405,0,0.734,0.329,0.734,0.733v9.531h1.19V7.806
			c0-0.404,0.329-0.733,0.733-0.733c0.405,0,0.734,0.329,0.734,0.733v9.531h0.714V17.456z M0.734,7.31
			c-0.273,0-0.496,0.223-0.496,0.496v16.641c0,1.539,0.78,2.954,2.086,3.783c0.035,0.021,0.055,0.06,0.055,0.101v46.275
			c0,1.251,0.986,2.274,2.221,2.338V17.575H4.006c-0.065,0-0.119-0.053-0.119-0.119v-9.65c0-0.273-0.223-0.496-0.496-0.496
			S2.896,7.532,2.896,7.806v9.65c0,0.066-0.053,0.119-0.119,0.119H1.349c-0.065,0-0.119-0.053-0.119-0.119v-9.65
			C1.23,7.532,1.007,7.31,0.734,7.31z"/>
	</g>
	
		<line fill="#F0F0F0" stroke="#F0F0F0" stroke-width="0.2281" stroke-linecap="round" stroke-linejoin="round" stroke-miterlimit="10" x1="102.704" y1="74.711" x2="102.704" y2="35.23"/>
	
		<path fill="#F0F0F0" stroke="#F0F0F0" stroke-width="0.2281" stroke-linecap="round" stroke-linejoin="round" stroke-miterlimit="10" d="
		M102.704,35.708v39.003c0,1.303-1.056,2.358-2.358,2.358c-1.301,0-2.357-1.056-2.357-2.358V7.851c0-1.302,1.057-2.357,2.357-2.357
		c0.096,0,0.189,0.008,0.281,0.019c0.018,0.002,0.035,0.006,0.052,0.008c0.081,0.012,0.161,0.027,0.24,0.047
		c0.011,0.003,0.023,0.006,0.035,0.009c0.087,0.023,0.172,0.051,0.255,0.083c0.008,0.004,0.017,0.006,0.025,0.01
		c0.051,0.02,0.099,0.044,0.147,0.067c2.696,1.252,4.743,7.305,4.743,14.587c0,5.877-1.162,11.964-3.064,14.465
		C103.061,34.787,102.704,35.23,102.704,35.708z"/>
	<g>
		<path fill="#DCDDDE" d="M100.346,77.07c-1.301,0-2.357-1.056-2.357-2.358V7.851c0-1.302,1.057-2.357,2.357-2.357V77.07z"/>
		<path fill="#DCDDDE" d="M100.461,5.493V77.07c0,0.063-0.051,0.114-0.115,0.114c-1.361,0-2.471-1.109-2.471-2.473V7.851
			c0-1.362,1.109-2.471,2.471-2.471h0.115V5.493z M100.232,5.61c-1.184,0.06-2.129,1.042-2.129,2.24v66.861
			c0,1.199,0.945,2.182,2.129,2.242V5.61z"/>
	</g>
	<g>
		
			<path fill="#FFFFFF" stroke="#FFFFFF" stroke-width="2.2297" stroke-linecap="round" stroke-linejoin="round" stroke-miterlimit="10" d="
			M42.024,60.739L58.288,38.2c0.894-1.258,1.573-2.232,2.04-2.924c0.467-0.689,0.945-1.623,1.432-2.802
			c0.488-1.178,0.731-2.274,0.731-3.289c0-2.803-0.894-4.975-2.681-6.519c-1.787-1.543-3.857-2.314-6.213-2.314
			s-5.523,1.279-9.502,3.838v-2.193c3.573-2.599,6.883-3.898,9.929-3.898c3.046,0,5.583,1.026,7.615,3.076
			c2.029,2.051,3.045,4.64,3.045,7.767c0,3.128-1.096,6.213-3.289,9.259L46.775,58.485h18.396v2.254H42.024z"/>
	</g>
</g>
</svg>
