<?xml version="1.0" encoding="utf-8"?>
<!-- Generator: Adobe Illustrator 15.0.2, SVG Export Plug-In . SVG Version: 6.00 Build 0)  -->
<!DOCTYPE svg PUBLIC "-//W3C//DTD SVG 1.1//EN" "http://www.w3.org/Graphics/SVG/1.1/DTD/svg11.dtd">
<svg version="1.1" id="Lager_1" xmlns="http://www.w3.org/2000/svg" xmlns:xlink="http://www.w3.org/1999/xlink" x="0px" y="0px"
	 width="324.607px" height="327.141px" viewBox="0 0 324.607 327.141" enable-background="new 0 0 324.607 327.141"
	 xml:space="preserve">
<g>
	<g>
		
			<polygon fill="#D83939" stroke="#D83939" stroke-width="1.1636" stroke-linecap="round" stroke-linejoin="round" stroke-miterlimit="10" points="
			91.354,316.273 117.728,294.107 129.744,326.559 169.486,178.237 131.097,167.951 		"/>
		
			<polygon fill="#CE302F" stroke="#CE302F" stroke-width="1.1636" stroke-linecap="round" stroke-linejoin="round" stroke-miterlimit="10" points="
			117.728,294.107 129.744,326.559 169.486,178.237 150.292,173.093 		"/>
	</g>
	<g>
		
			<polygon fill="#D83939" stroke="#D83939" stroke-width="1.1636" stroke-linecap="round" stroke-linejoin="round" stroke-miterlimit="10" points="
			236.392,316.273 210.019,294.107 198.002,326.559 158.26,178.237 196.649,167.951 		"/>
		
			<polygon fill="#CE302F" stroke="#CE302F" stroke-width="1.1636" stroke-linecap="round" stroke-linejoin="round" stroke-miterlimit="10" points="
			210.019,294.107 198.002,326.559 158.26,178.237 177.455,173.093 		"/>
	</g>
	<g>
		<g>
			<path fill="#FFDA40" stroke="#FFDA40" stroke-width="1.9249" stroke-miterlimit="10" d="M45.046,119.682
				c0-65.568,53.151-118.719,118.717-118.719c65.572,0,118.72,53.151,118.72,118.719c0,65.565-53.148,118.719-118.72,118.719
				C98.198,238.401,45.046,185.247,45.046,119.682z"/>
			<path fill="#FFCE08" stroke="#FFCE08" stroke-width="1.9249" stroke-miterlimit="10" d="M163.763,238.401
				c-65.565,0-118.717-53.154-118.717-118.719c0-65.568,53.151-118.719,118.717-118.719V238.401z"/>
		</g>
		<g>
			<path fill="#FCC113" stroke="#FCC113" stroke-width="1.6003" stroke-miterlimit="10" d="M262.46,120.303
				c0,54.509-44.186,98.698-98.697,98.698c-54.51,0-98.695-44.188-98.695-98.698s44.186-98.698,98.695-98.698
				C218.274,21.604,262.46,65.793,262.46,120.303z"/>
			<path fill="#F9B618" stroke="#F9B618" stroke-width="1.6003" stroke-miterlimit="10" d="M163.763,219
				c-54.51,0-98.695-44.188-98.695-98.698s44.186-98.698,98.695-98.698V219z"/>
		</g>
	</g>
	<g>
		
			<path fill="#F0F1F1" stroke="#F0F1F1" stroke-width="0.7271" stroke-linecap="round" stroke-linejoin="round" stroke-miterlimit="10" d="
			M21.934,227.936"/>
		
			<path fill="#FFDA40" stroke="#FFDA40" stroke-width="0.7271" stroke-linecap="round" stroke-linejoin="round" stroke-miterlimit="10" d="
			M26.6,21.968c-1.038,0-1.879,0.841-1.879,1.878v29.485h-3.999V23.847c0-1.038-0.841-1.878-1.878-1.878
			c-1.038,0-1.879,0.841-1.879,1.878v29.485h-4.726V23.847c0-1.038-0.841-1.878-1.878-1.878c-1.038,0-1.879,0.841-1.879,1.878
			v29.485H4.121V23.847c0-1.038-0.841-1.878-1.878-1.878c-1.038,0-1.878,0.841-1.878,1.878v29.485V53.9v20.79
			c0,4.997,2.615,9.374,6.544,11.867v141.38c0,4.15,3.363,7.514,7.513,7.514c4.149,0,7.513-3.363,7.513-7.514V86.556
			c3.929-2.493,6.544-6.87,6.544-11.867V53.9v-0.568V23.847C28.478,22.809,27.637,21.968,26.6,21.968z"/>
		
			<path fill="#D9DADB" stroke="#D9DADB" stroke-width="0.7271" stroke-linecap="round" stroke-linejoin="round" stroke-miterlimit="10" d="
			M28.478,53.332"/>
		<g>
			<path fill="#FCC113" d="M14.421,235.45c-4.15,0-7.513-3.363-7.513-7.514V86.556c-3.929-2.493-6.544-6.87-6.544-11.867V53.9
				v-0.568V23.847c0-1.038,0.84-1.878,1.878-1.878c1.038,0,1.878,0.841,1.878,1.878v29.485h4.362V23.847
				c0-1.038,0.841-1.878,1.879-1.878c1.037,0,1.878,0.841,1.878,1.878v29.485h2.182V235.45z"/>
			<path fill="#FCC113" d="M14.784,53.332V235.45c0,0.201-0.163,0.363-0.363,0.363c-4.343,0-7.877-3.533-7.877-7.877V86.754
				C2.442,84.073,0,79.578,0,74.689V23.847c0-1.236,1.006-2.242,2.242-2.242s2.242,1.006,2.242,2.242v29.122h3.635V23.847
				c0-1.236,1.005-2.242,2.242-2.242c1.236,0,2.242,1.006,2.242,2.242v29.122h2.181V53.332z M2.242,22.332
				c-0.835,0-1.515,0.68-1.515,1.515v50.843c0,4.705,2.383,9.026,6.375,11.56c0.105,0.067,0.168,0.183,0.168,0.307v141.38
				c0,3.82,3.012,6.949,6.786,7.141V53.696h-1.818c-0.201,0-0.363-0.163-0.363-0.364V23.847c0-0.835-0.68-1.515-1.515-1.515
				c-0.835,0-1.515,0.68-1.515,1.515v29.485c0,0.201-0.163,0.364-0.364,0.364H4.121c-0.201,0-0.364-0.163-0.364-0.364V23.847
				C3.757,23.011,3.078,22.332,2.242,22.332z"/>
		</g>
	</g>
	<g>
		
			<line fill="#F0F1F1" stroke="#F0F1F1" stroke-width="0.6971" stroke-linecap="round" stroke-linejoin="round" stroke-miterlimit="10" x1="313.804" y1="228.262" x2="313.804" y2="107.64"/>
		
			<path fill="#FFDA40" stroke="#FFDA40" stroke-width="0.6971" stroke-linecap="round" stroke-linejoin="round" stroke-miterlimit="10" d="
			M313.804,109.099v119.163c0,3.978-3.227,7.202-7.205,7.202c-3.977,0-7.203-3.225-7.203-7.202V23.984
			c0-3.978,3.227-7.203,7.203-7.203c0.291,0,0.576,0.022,0.857,0.056c0.053,0.006,0.107,0.017,0.158,0.024
			c0.25,0.036,0.494,0.083,0.734,0.143c0.035,0.01,0.072,0.018,0.107,0.027c0.266,0.072,0.525,0.155,0.779,0.255
			c0.025,0.01,0.051,0.018,0.076,0.028c0.154,0.062,0.303,0.133,0.451,0.207c8.242,3.826,14.496,22.317,14.496,44.57
			c0,17.955-3.553,36.552-9.367,44.194C314.892,106.285,313.804,107.64,313.804,109.099z"/>
		<g>
			<path fill="#FCC113" d="M306.599,235.464c-3.977,0-7.203-3.225-7.203-7.202V23.984c0-3.978,3.227-7.203,7.203-7.203V235.464z"/>
			<path fill="#FCC113" d="M306.948,16.781v218.683c0,0.192-0.156,0.349-0.35,0.349c-4.162,0-7.551-3.387-7.551-7.551V23.984
				c0-4.164,3.389-7.551,7.551-7.551h0.35V16.781z M306.251,17.138c-3.617,0.183-6.506,3.183-6.506,6.846v204.278
				c0,3.662,2.889,6.663,6.506,6.846V17.138z"/>
		</g>
	</g>
	
		<path fill="#FFE266" stroke="#FFE266" stroke-width="7.2452" stroke-linecap="round" stroke-linejoin="round" stroke-miterlimit="10" d="
		M166.986,185.369h-7.127V64.507l-28.15,12.764v-6.943l35.278-16.333V185.369z"/>
</g>
</svg>
