<?xml version="1.0" encoding="utf-8"?>
<!-- Generator: Adobe Illustrator 15.0.2, SVG Export Plug-In . SVG Version: 6.00 Build 0)  -->
<!DOCTYPE svg PUBLIC "-//W3C//DTD SVG 1.1//EN" "http://www.w3.org/Graphics/SVG/1.1/DTD/svg11.dtd">
<svg version="1.1" id="Lager_1" xmlns="http://www.w3.org/2000/svg" xmlns:xlink="http://www.w3.org/1999/xlink" x="0px" y="0px"
	 width="106.246px" height="107.083px" viewBox="0 0 106.246 107.083" enable-background="new 0 0 106.246 107.083"
	 xml:space="preserve">
<g>
	<g>
		
			<polygon fill="#D83939" stroke="#D83939" stroke-width="0.3808" stroke-linecap="round" stroke-linejoin="round" stroke-miterlimit="10" points="
			29.9,103.526 38.531,96.271 42.463,106.893 55.471,58.336 42.906,54.969 		"/>
		
			<polygon fill="#CE302F" stroke="#CE302F" stroke-width="0.3808" stroke-linecap="round" stroke-linejoin="round" stroke-miterlimit="10" points="
			38.531,96.271 42.463,106.893 55.471,58.336 49.189,56.652 		"/>
	</g>
	<g>
		
			<polygon fill="#D83939" stroke="#D83939" stroke-width="0.3808" stroke-linecap="round" stroke-linejoin="round" stroke-miterlimit="10" points="
			77.369,103.526 68.736,96.271 64.805,106.893 51.797,58.336 64.361,54.969 		"/>
		
			<polygon fill="#CE302F" stroke="#CE302F" stroke-width="0.3808" stroke-linecap="round" stroke-linejoin="round" stroke-miterlimit="10" points="
			68.736,96.271 64.805,106.893 51.797,58.336 58.078,56.652 		"/>
	</g>
	<circle fill="#EDB197" stroke="#EDB197" stroke-width="0.6326" stroke-miterlimit="10" cx="53.599" cy="39.172" r="38.854"/>
	<path fill="#DA8E73" stroke="#DA8E73" stroke-width="0.6326" stroke-miterlimit="10" d="M53.598,78.031
		c-21.459,0-38.854-17.401-38.854-38.859c0-21.46,17.395-38.855,38.854-38.855V78.031z"/>
	<circle fill="#E39D7E" stroke="#E39D7E" stroke-width="0.5259" stroke-miterlimit="10" cx="53.599" cy="39.375" r="32.302"/>
	<path opacity="0.8" fill="#CC7452" stroke="#CC7452" stroke-width="0.5259" stroke-miterlimit="10" d="M53.598,71.681
		c-17.84,0-32.301-14.466-32.301-32.306c0-17.841,14.461-32.303,32.301-32.303V71.681z"/>
	
		<path fill="#F0F0F0" stroke="#F0F0F0" stroke-width="0.238" stroke-linecap="round" stroke-linejoin="round" stroke-miterlimit="10" d="
		M7.18,74.605"/>
	
		<path fill="#EDB197" stroke="#EDB197" stroke-width="0.238" stroke-linecap="round" stroke-linejoin="round" stroke-miterlimit="10" d="
		M8.707,7.191c-0.34,0-0.615,0.274-0.615,0.614v9.65H6.783v-9.65c0-0.34-0.275-0.614-0.615-0.614S5.553,7.466,5.553,7.806v9.65
		H4.006v-9.65c0-0.34-0.275-0.614-0.615-0.614c-0.338,0-0.613,0.274-0.613,0.614v9.65H1.35v-9.65c0-0.34-0.275-0.614-0.615-0.614
		S0.119,7.466,0.119,7.806v9.65v0.186v6.805c0,1.635,0.855,3.067,2.143,3.884v46.275c0,1.357,1.1,2.459,2.459,2.459
		c1.357,0,2.459-1.102,2.459-2.459V28.33c1.285-0.816,2.141-2.249,2.141-3.884v-6.805v-0.186v-9.65
		C9.32,7.466,9.047,7.191,8.707,7.191z"/>
	
		<path fill="#D9DADB" stroke="#D9DADB" stroke-width="0.238" stroke-linecap="round" stroke-linejoin="round" stroke-miterlimit="10" d="
		M9.32,17.456"/>
	<g>
		<path fill="#DA8E73" d="M4.721,77.064c-1.359,0-2.459-1.102-2.459-2.459V28.33c-1.287-0.816-2.143-2.249-2.143-3.884v-6.805
			v-0.186v-9.65c0-0.34,0.275-0.614,0.615-0.614S1.35,7.466,1.35,7.806v9.65h1.428v-9.65c0-0.34,0.275-0.614,0.613-0.614
			c0.34,0,0.615,0.274,0.615,0.614v9.65h0.715V77.064z"/>
		<path fill="#DA8E73" d="M4.84,17.456v59.608c0,0.066-0.055,0.12-0.119,0.12c-1.422,0-2.578-1.157-2.578-2.579V28.395
			C0.801,27.518,0,26.046,0,24.446V7.806c0-0.404,0.33-0.733,0.734-0.733s0.734,0.329,0.734,0.733v9.531h1.189V7.806
			c0-0.404,0.328-0.733,0.732-0.733c0.406,0,0.734,0.329,0.734,0.733v9.531H4.84V17.456z M0.734,7.31
			c-0.273,0-0.496,0.223-0.496,0.496v16.641c0,1.539,0.779,2.954,2.086,3.783c0.035,0.021,0.057,0.06,0.057,0.101v46.275
			c0,1.25,0.984,2.273,2.221,2.338V17.575H4.006c-0.066,0-0.119-0.053-0.119-0.119v-9.65c0-0.273-0.223-0.496-0.496-0.496
			c-0.271,0-0.494,0.223-0.494,0.496v9.65c0,0.066-0.055,0.119-0.119,0.119H1.35c-0.066,0-0.119-0.053-0.119-0.119v-9.65
			C1.23,7.532,1.008,7.31,0.734,7.31z"/>
	</g>
	
		<line fill="#F0F0F0" stroke="#F0F0F0" stroke-width="0.2281" stroke-linecap="round" stroke-linejoin="round" stroke-miterlimit="10" x1="102.705" y1="74.711" x2="102.705" y2="35.23"/>
	
		<path fill="#EDB197" stroke="#EDB197" stroke-width="0.238" stroke-linecap="round" stroke-linejoin="round" stroke-miterlimit="10" d="
		M102.705,35.708v39.003c0,1.303-1.057,2.359-2.359,2.359c-1.301,0-2.357-1.057-2.357-2.359V7.851c0-1.302,1.057-2.357,2.357-2.357
		c0.096,0,0.189,0.008,0.281,0.019c0.018,0.002,0.035,0.006,0.053,0.008c0.08,0.012,0.16,0.027,0.24,0.047
		c0.01,0.003,0.023,0.006,0.035,0.009c0.086,0.023,0.172,0.051,0.254,0.083c0.008,0.004,0.018,0.006,0.025,0.01
		c0.051,0.02,0.1,0.044,0.148,0.067c2.697,1.252,4.744,7.305,4.744,14.587c0,5.877-1.164,11.964-3.066,14.465
		C103.061,34.787,102.705,35.23,102.705,35.708z"/>
	<g>
		<path fill="#DA8E73" d="M100.346,77.07c-1.301,0-2.357-1.057-2.357-2.359V7.851c0-1.302,1.057-2.357,2.357-2.357V77.07z"/>
		<path fill="#DA8E73" d="M100.461,5.493V77.07c0,0.062-0.051,0.114-0.115,0.114c-1.361,0-2.471-1.11-2.471-2.474V7.851
			c0-1.362,1.109-2.471,2.471-2.471h0.115V5.493z M100.232,5.61c-1.184,0.06-2.129,1.042-2.129,2.24v66.86
			c0,1.199,0.945,2.182,2.129,2.242V5.61z"/>
	</g>
	<g>
		
			<path fill="#EDB197" stroke="#EDB197" stroke-width="2.2297" stroke-linecap="round" stroke-linejoin="round" stroke-miterlimit="10" d="
			M42.289,54.977l2.926-0.061c2.033,2.603,4.512,3.904,7.438,3.904c2.928,0,5.324-1.068,7.195-3.202
			c1.867-2.133,2.805-4.542,2.805-7.225s-0.967-4.969-2.896-6.859c-1.932-1.889-4.277-2.834-7.041-2.834
			c-0.732,0-1.281,0.041-1.646,0.122v-2.805c0.527,0.164,1.178,0.244,1.951,0.244c2.234,0,4.135-0.802,5.699-2.408
			c1.564-1.605,2.348-3.464,2.348-5.578c0-2.113-0.814-3.963-2.439-5.548c-1.625-1.586-3.637-2.378-6.035-2.378
			s-4.451,1.119-6.156,3.354h-2.805c0.854-1.708,2.111-3.068,3.779-4.085c1.666-1.016,3.516-1.524,5.549-1.524
			c2.926,0,5.383,0.986,7.375,2.958c1.992,1.971,2.988,4.419,2.988,7.346c0,3.983-1.668,6.971-5,8.961
			c2.074,1.017,3.689,2.5,4.848,4.451c1.158,1.952,1.736,4.188,1.736,6.707c0,3.577-1.158,6.564-3.475,8.963
			c-2.316,2.397-5.203,3.596-8.656,3.596c-2.277,0-4.328-0.548-6.158-1.646C44.789,58.33,43.346,56.848,42.289,54.977z"/>
	</g>
</g>
</svg>
