<?xml version="1.0" encoding="utf-8"?>
<!-- Generator: Adobe Illustrator 15.0.2, SVG Export Plug-In . SVG Version: 6.00 Build 0)  -->
<!DOCTYPE svg PUBLIC "-//W3C//DTD SVG 1.1//EN" "http://www.w3.org/Graphics/SVG/1.1/DTD/svg11.dtd">
<svg version="1.1" id="Lager_1" xmlns="http://www.w3.org/2000/svg" xmlns:xlink="http://www.w3.org/1999/xlink" x="0px" y="0px"
	 width="179.342px" height="179.345px" viewBox="0 0 179.342 179.345" enable-background="new 0 0 179.342 179.345"
	 xml:space="preserve">
<g>
	<g>
		<defs>
			<path id="SVGID_1_" d="M0,89.672C0,40.146,40.146,0,89.67,0c49.527,0,89.672,40.146,89.672,89.672
				c0,49.523-40.145,89.673-89.672,89.673C40.146,179.345,0,139.195,0,89.672z"/>
		</defs>
		<clipPath id="SVGID_2_">
			<use xlink:href="#SVGID_1_"  overflow="visible"/>
		</clipPath>
		<g clip-path="url(#SVGID_2_)">
			<g>
				<rect x="-6.508" y="-121.029" fill="#D4ECF9" width="819.661" height="272.583"/>
				
					<path fill="none" stroke="#813588" stroke-width="0.4579" stroke-linecap="round" stroke-linejoin="round" stroke-miterlimit="10" d="
					M182.803-36.143"/>
				<path fill="#AFD8E5" d="M246.487,104.891l-42.442-0.479H7.831l-14.367-0.262V23.526h7.208v12.202h12.243V20.616h15.008V35.83
					h8.973V16.631h23.14V35.83h8.244v-5.921h18.312v18.776h10.533v-9.389h15.566v9.389h5.268V28.993h16.028v19.691h7.324
					l5.956-33.254l5.951,33.254h6.412V21.437h22.893v27.248h7.329V42.73h18.404V61.6h11.548v-7.542h15.467v11.07
					c2.291,0.082,11.785,0,11.785,0V47.238h23.015v56.913L246.487,104.891z"/>
				<polygon opacity="0.7" fill="#5EB4CC" points="246.72,92.813 213.386,92.894 -6.413,92.894 -6.413,56.787 12.832,56.787 
					12.832,69.945 24.845,69.945 24.845,47.726 51.38,47.726 51.38,69.945 62.026,69.945 62.026,61.356 82.648,61.356 
					82.648,69.945 90.461,69.945 90.461,58.836 111.928,58.836 111.928,66.664 124.325,66.664 124.325,60.279 140.721,60.279 
					140.721,66.664 149.708,66.664 149.708,55.857 169.455,55.857 169.455,62.254 178.186,62.254 178.186,53.509 190.382,53.509 
					190.382,70.309 193.432,70.309 193.432,65.061 204.792,65.061 204.792,73.963 208.711,73.963 208.711,70.309 216.955,70.309 
					216.955,76.982 223.364,76.982 223.364,65.25 230.995,65.25 230.995,72.512 235.575,72.512 235.575,76.356 240.99,76.356 
					240.99,71.71 251.082,71.71 251.082,92.813 				"/>
				<path fill="#AFD8E5" d="M295.142,60.536h-4.03v-2.339h-10.734v2.339h-4.034c-0.091,0.216-0.045,0.461,0.116,0.631l5.795,6.038
					c0.003,0.003,0.009,0.005,0.009,0.006v13.438h2.507c-0.147-0.198-0.232-0.441-0.232-0.707v-9.879
					c0-0.668,0.539-1.209,1.207-1.209c0.665,0,1.207,0.541,1.207,1.209v9.879c0,0.266-0.09,0.509-0.233,0.707h2.504V67.211
					c0-0.001,0.005-0.003,0.01-0.006l5.796-6.038C295.191,60.997,295.238,60.752,295.142,60.536z"/>
				
					<path fill="#AFD8E5" stroke="#AFD8E5" stroke-width="0.008" stroke-linecap="round" stroke-linejoin="round" stroke-miterlimit="10" d="
					M754.395,73.771c-0.207,0-0.406,0.034-0.594,0.09c-0.057-0.912-0.736-1.652-1.617-1.812v-0.004
					c-0.129-0.037-0.354-0.031-0.354-0.031c-1.096,0-1.975,0.885-1.975,1.977c0,0.222,0.033,0.433,0.1,0.631
					c-1.082,0.006-1.967,0.891-1.967,1.975c0,1.091,0.889,1.979,1.979,1.979c0.367,0,0.711-0.101,1.004-0.271
					c0.064,0.086,0.131,0.171,0.211,0.248c0.014,0.019,0.029,0.034,0.059,0.054c0.072,0.075,0.15,0.141,0.244,0.202
					c0.018,0.01,0.029,0.016,0.041,0.025c0.084,0.057,0.166,0.102,0.258,0.139c0,0,0,0.004,0.004,0.007h-0.023v4.038h0.422h0.414
					v-3.867c0.898-0.001,1.652-0.605,1.893-1.428c1.045-0.047,1.879-0.914,1.879-1.972
					C756.372,74.656,755.493,73.771,754.395,73.771z"/>
				
					<path fill="#AFD8E5" stroke="#AFD8E5" stroke-width="0.008" stroke-linecap="round" stroke-linejoin="round" stroke-miterlimit="10" d="
					M743.09,73.771c-0.201,0-0.404,0.034-0.588,0.09c-0.062-0.912-0.744-1.652-1.623-1.812v-0.004
					c-0.131-0.037-0.346-0.031-0.346-0.031c-1.098,0-1.982,0.885-1.982,1.977c0,0.222,0.039,0.433,0.102,0.631
					c-1.08,0.006-1.963,0.891-1.963,1.975c0,1.091,0.889,1.979,1.975,1.979c0.367,0,0.709-0.101,1.004-0.271
					c0.061,0.086,0.135,0.171,0.209,0.248c0.021,0.019,0.039,0.034,0.059,0.054c0.076,0.075,0.156,0.141,0.244,0.202
					c0.016,0.01,0.029,0.016,0.043,0.025c0.088,0.057,0.17,0.102,0.254,0.139c0,0,0.004,0.004,0.006,0.007h-0.02v4.038h0.416h0.418
					v-3.867c0.9-0.001,1.654-0.605,1.891-1.428c1.047-0.047,1.881-0.914,1.881-1.972C745.069,74.656,744.182,73.771,743.09,73.771z"
					/>
				
					<path fill="#AFD8E5" stroke="#AFD8E5" stroke-width="0.008" stroke-linecap="round" stroke-linejoin="round" stroke-miterlimit="10" d="
					M716.254,67.823c-0.203,0-0.404,0.029-0.592,0.088c-0.057-0.912-0.738-1.651-1.619-1.811c0-0.002,0-0.005,0-0.005
					c-0.127-0.037-0.35-0.035-0.35-0.035c-1.094,0-1.979,0.889-1.979,1.984c0,0.215,0.035,0.43,0.104,0.628
					c-1.084,0.008-1.963,0.888-1.963,1.976c0,1.092,0.883,1.977,1.975,1.977c0.365,0,0.711-0.1,0.998-0.274
					c0.066,0.09,0.141,0.175,0.211,0.25c0.021,0.019,0.043,0.036,0.055,0.053c0.076,0.074,0.162,0.143,0.254,0.204
					c0.012,0.01,0.027,0.018,0.039,0.029c0.084,0.049,0.168,0.096,0.256,0.135c0.004,0,0.004,0.004,0.004,0.004h-0.02v4.041h0.416
					h0.414v-3.865c0.904-0.005,1.658-0.606,1.896-1.431c1.045-0.05,1.879-0.913,1.879-1.974
					C718.233,68.707,717.348,67.823,716.254,67.823z"/>
				
					<path fill="#AFD8E5" stroke="#AFD8E5" stroke-width="0.008" stroke-linecap="round" stroke-linejoin="round" stroke-miterlimit="10" d="
					M704.383,66.726c-0.211,0-0.406,0.032-0.594,0.089c-0.057-0.914-0.736-1.654-1.619-1.813v-0.004
					c-0.127-0.034-0.354-0.03-0.354-0.03c-1.09,0-1.975,0.886-1.975,1.977c0,0.221,0.041,0.432,0.1,0.631
					c-1.084,0.007-1.963,0.887-1.963,1.975c0,1.091,0.887,1.979,1.98,1.979c0.363,0,0.701-0.1,1-0.274
					c0.061,0.091,0.137,0.175,0.211,0.251c0.018,0.018,0.033,0.035,0.055,0.053c0.072,0.072,0.156,0.143,0.246,0.203
					c0.016,0.01,0.029,0.018,0.047,0.026c0.078,0.054,0.164,0.099,0.252,0.137l0.006,0.005h-0.021v4.04h0.418h0.414v-3.864
					c0.898-0.004,1.66-0.606,1.896-1.43c1.045-0.051,1.879-0.914,1.879-1.975C706.362,67.607,705.473,66.726,704.383,66.726z"/>
				
					<path fill="#AFD8E5" stroke="#AFD8E5" stroke-width="0.008" stroke-linecap="round" stroke-linejoin="round" stroke-miterlimit="10" d="
					M578.403,62.702c-0.205,0-0.404,0.036-0.59,0.091c-0.062-0.91-0.742-1.652-1.621-1.814v-0.001
					c-0.129-0.037-0.354-0.032-0.354-0.032c-1.092,0-1.977,0.886-1.977,1.978c0,0.221,0.037,0.431,0.105,0.629
					c-1.088,0.01-1.967,0.89-1.967,1.977c0,1.09,0.887,1.976,1.977,1.976c0.365,0,0.711-0.099,1.002-0.272
					c0.061,0.091,0.135,0.174,0.213,0.252c0.014,0.018,0.035,0.034,0.051,0.053c0.078,0.073,0.158,0.142,0.248,0.201
					c0.016,0.009,0.029,0.018,0.045,0.029c0.082,0.051,0.166,0.096,0.256,0.137l0.004,0.002h-0.023v4.041h0.42h0.416V68.08
					c0.9-0.002,1.654-0.602,1.893-1.428c1.047-0.049,1.877-0.915,1.877-1.972C580.377,63.588,579.495,62.702,578.403,62.702z"/>
				
					<path fill="#AFD8E5" stroke="#AFD8E5" stroke-width="0.008" stroke-linecap="round" stroke-linejoin="round" stroke-miterlimit="10" d="
					M566.528,61.604c-0.203,0-0.404,0.034-0.588,0.092c-0.059-0.914-0.74-1.654-1.623-1.813c0-0.001,0-0.004,0-0.004
					c-0.125-0.036-0.352-0.029-0.352-0.029c-1.09,0-1.971,0.884-1.971,1.974c0,0.221,0.033,0.434,0.102,0.631
					c-1.086,0.008-1.967,0.891-1.967,1.976c0,1.094,0.883,1.978,1.975,1.978c0.369,0,0.707-0.1,1-0.273
					c0.064,0.09,0.137,0.174,0.217,0.251c0.018,0.019,0.033,0.034,0.051,0.052c0.08,0.074,0.156,0.143,0.248,0.204
					c0.012,0.011,0.029,0.019,0.045,0.027c0.08,0.052,0.166,0.099,0.254,0.14c0.002,0,0.002,0,0.01,0h-0.025v4.041h0.414h0.42
					v-3.865c0.898-0.004,1.652-0.603,1.893-1.428c1.043-0.051,1.879-0.916,1.879-1.975C568.508,62.49,567.622,61.604,566.528,61.604
					z"/>
				
					<path fill="#AFD8E5" stroke="#AFD8E5" stroke-width="0.008" stroke-linecap="round" stroke-linejoin="round" stroke-miterlimit="10" d="
					M765.696,73.771c-0.205,0-0.4,0.034-0.59,0.09c-0.061-0.912-0.74-1.652-1.625-1.812v-0.004
					c-0.127-0.037-0.352-0.031-0.352-0.031c-1.092,0-1.973,0.885-1.973,1.977c0,0.222,0.033,0.433,0.105,0.631
					c-1.09,0.006-1.965,0.891-1.965,1.975c0,1.091,0.883,1.979,1.975,1.979c0.365,0,0.705-0.101,1.002-0.271
					c0.061,0.086,0.135,0.171,0.211,0.248c0.018,0.019,0.035,0.034,0.049,0.054c0.082,0.075,0.164,0.141,0.25,0.202
					c0.016,0.01,0.033,0.016,0.045,0.025c0.08,0.057,0.168,0.102,0.26,0.139c0,0,0,0.004,0.006,0.007h-0.027v4.038h0.414h0.426
					v-3.867c0.896-0.001,1.652-0.605,1.891-1.428c1.047-0.047,1.873-0.914,1.873-1.972C767.67,74.656,766.788,73.771,765.696,73.771
					z"/>
				
					<path fill="#AFD8E5" stroke="#AFD8E5" stroke-width="0.008" stroke-linecap="round" stroke-linejoin="round" stroke-miterlimit="10" d="
					M777.002,73.771c-0.209,0-0.41,0.034-0.598,0.09c-0.057-0.912-0.732-1.652-1.615-1.812v-0.004
					c-0.129-0.037-0.355-0.031-0.355-0.031c-1.088,0-1.975,0.885-1.975,1.977c0,0.222,0.037,0.433,0.104,0.631
					c-1.082,0.006-1.963,0.891-1.963,1.975c0,1.091,0.883,1.979,1.971,1.979c0.371,0,0.707-0.101,1.004-0.271
					c0.062,0.086,0.141,0.171,0.211,0.248c0.023,0.019,0.033,0.034,0.055,0.054c0.076,0.075,0.158,0.141,0.246,0.202
					c0.016,0.01,0.029,0.016,0.043,0.025c0.082,0.057,0.174,0.102,0.258,0.139c0,0,0,0.004,0.004,0.007h-0.021v4.038h0.42h0.412
					v-3.867c0.898-0.001,1.662-0.605,1.895-1.428c1.049-0.047,1.879-0.914,1.879-1.972
					C778.975,74.656,778.088,73.771,777.002,73.771z"/>
				
					<path fill="#AFD8E5" stroke="#AFD8E5" stroke-width="0.1851" stroke-linecap="round" stroke-linejoin="round" stroke-miterlimit="10" d="
					M799.84,73.952l-8.652-6.089c-0.145-0.102-0.342-0.102-0.48,0l-3.379,2.402v-0.878h-2.062v2.351l-3.119,2.217
					c-0.191,0.133-0.232,0.394-0.1,0.579c0.133,0.188,0.391,0.233,0.578,0.097l0.164-0.109v8.428h16.32v-8.493l0.252,0.179
					c0.07,0.054,0.154,0.074,0.24,0.074c0.133,0,0.258-0.062,0.336-0.176C800.075,74.346,800.022,74.088,799.84,73.952z"/>
				
					<path fill="#796955" stroke="#796955" stroke-width="0.6282" stroke-linecap="round" stroke-linejoin="round" stroke-miterlimit="10" d="
					M599.401,86.166"/>
				
					<path fill="#645747" stroke="#645747" stroke-width="0.6282" stroke-linecap="round" stroke-linejoin="round" stroke-miterlimit="10" d="
					M752.752,128.948H333.92V84.486c27.682,1.743,59.104-3.937,59.104-3.937c37.031-12.342,71.041-2.625,82.945,0
					c11.9,2.619,38.85,2.679,38.85,2.679s3.662,0.137,8.117-0.945c13.252-2.551,26.844,12.255,41.801,12.255
					c13.65,0,23.414-16.543,42.48-13.05c0,0,5.555,0.999,10.383,0.795c0,0,6.773,0.204,10.895-1.59
					c2.375-1.031,7.783-3.173,13.51-3.173c0,0,4.65-0.378,12.793,3.228c5.371,1.916,12.312,1.535,12.312,1.535h2.91
					c11.91-0.557,19.25-6.515,33.074-6.515c13.49,0,13.252,5.39,33.48,7.498h84.395v34.78v10.901H752.752z"/>
				
					<path fill="#796955" stroke="#796955" stroke-width="0.3941" stroke-linecap="round" stroke-linejoin="round" stroke-miterlimit="10" d="
					M621.86,109.22c18.051-0.11,24.139-2.802,24.139-2.802c29.271-10.872,45.025-2.9,56.145-0.237
					c7.439,1.776,25.086,1.68,25.086,1.68c9.152-0.587,20.709-6.25,31.791-6.25c10.816,0,19.914,5.539,38.484,7.04h78.264v27.891
					H621.86h-8.82H359.131V108.65h78.258c18.574-1.501,27.672-7.04,38.488-7.04c11.084,0,22.639,5.663,31.791,6.25
					c0,0,17.646,0.097,25.084-1.68c11.119-2.663,26.871-10.635,56.145,0.237c0,0,9.727,2.957,24.189,2.802
					C613.086,109.22,621.624,109.225,621.86,109.22z"/>
				<g>
					<g>
						<g>
							<path fill="#44A260" d="M577.249,103.232v-4.525c-0.084-1.35-0.1-1.408-2.254-1.776c-5.504-0.939-4.697-8.411-4.697-8.411
								s5.451-0.015,7.123,3.5c0,0,0.719,1.723,0.719,5.511v5.702H577.249z"/>
						</g>
					</g>
					<g>
						<g>
							<path fill="#53B06E" d="M579.842,103.232v-1.667c0.086-1.353,0.1-1.406,2.25-1.777c5.506-0.939,4.703-8.411,4.703-8.411
								s-5.453-0.018-7.127,3.5c0,0-0.721,1.724-0.721,5.511v2.845H579.842z"/>
						</g>
					</g>
				</g>
				<g>
					<g>
						<g>
							<path fill="#44A260" d="M676.295,100.862v-2.387c-0.049-0.714-0.057-0.743-1.189-0.938c-2.902-0.498-2.477-4.436-2.477-4.436
								s2.875-0.01,3.756,1.848c0,0,0.379,0.905,0.379,2.903v3.009H676.295z"/>
						</g>
					</g>
					<g>
						<g>
							<path fill="#53B06E" d="M677.667,100.862V99.98c0.043-0.712,0.049-0.744,1.182-0.94c2.904-0.487,2.48-4.428,2.48-4.428
								s-2.875-0.009-3.758,1.841c0,0-0.383,0.911-0.383,2.907v1.502H677.667z"/>
						</g>
					</g>
				</g>
				<g>
					<g>
						<g>
							<path fill="#44A260" d="M664.862,101.805v-4.531c0.082-1.338,0.1-1.4,2.254-1.773c5.502-0.94,4.697-8.409,4.697-8.409
								s-5.451-0.011-7.123,3.506c0,0-0.723,1.72-0.723,5.505v5.703H664.862z"/>
						</g>
					</g>
					<g>
						<g>
							<path fill="#53B06E" d="M662.266,101.805v-1.671c-0.084-1.347-0.098-1.402-2.25-1.773c-5.506-0.941-4.703-8.414-4.703-8.414
								s5.451-0.014,7.127,3.504c0,0,0.719,1.722,0.719,5.508v2.847H662.266z"/>
						</g>
					</g>
				</g>
				<g>
					<g>
						<g>
							<path fill="#44A260" d="M746.106,103.148v-2.392c-0.039-0.704-0.051-0.74-1.188-0.932c-2.9-0.497-2.479-4.438-2.479-4.438
								s2.881-0.005,3.76,1.847c0,0,0.379,0.915,0.379,2.903v3.012H746.106z"/>
						</g>
					</g>
					<g>
						<g>
							<path fill="#53B06E" d="M747.481,103.148v-0.885c0.035-0.71,0.047-0.736,1.186-0.932c2.898-0.498,2.475-4.437,2.475-4.437
								s-2.879-0.008-3.752,1.845c0,0-0.383,0.907-0.383,2.906v1.502H747.481z"/>
						</g>
					</g>
				</g>
				<g>
					<g>
						<g>
							<path fill="#44A260" d="M802.233,108.455v-2.388c-0.039-0.71-0.051-0.742-1.184-0.936c-2.906-0.495-2.482-4.435-2.482-4.435
								s2.877-0.01,3.76,1.844c0,0,0.381,0.907,0.381,2.908v3.006H802.233z"/>
						</g>
					</g>
					<g>
						<g>
							<path fill="#53B06E" d="M803.606,108.455v-0.884c0.043-0.71,0.049-0.742,1.184-0.929c2.906-0.499,2.48-4.441,2.48-4.441
								s-2.871-0.007-3.762,1.845c0,0-0.375,0.909-0.375,2.904v1.505H803.606z"/>
						</g>
					</g>
				</g>
				<g>
					<g>
						<g>
							<path fill="#44A260" d="M733.081,107.247v-4.532c0.082-1.345,0.098-1.403,2.254-1.771c5.5-0.941,4.693-8.414,4.693-8.414
								s-5.451-0.014-7.123,3.504c0,0-0.725,1.721-0.725,5.512v5.702H733.081z"/>
						</g>
					</g>
					<g>
						<g>
							<path fill="#53B06E" d="M730.483,107.247v-1.674c-0.084-1.348-0.096-1.399-2.25-1.771c-5.51-0.949-4.701-8.415-4.701-8.415
								s5.449-0.012,7.123,3.502c0,0,0.719,1.725,0.719,5.511v2.848H730.483z"/>
						</g>
					</g>
				</g>
				<g>
					<g>
						<g>
							<path fill="#44A260" d="M593.27,107.016v-1.965c0.033-0.586,0.043-0.609,0.979-0.771c2.389-0.408,2.039-3.651,2.039-3.651
								s-2.367-0.003-3.092,1.52c0,0-0.316,0.751-0.316,2.394v2.475H593.27z"/>
						</g>
					</g>
					<g>
						<g>
							<path fill="#53B06E" d="M592.143,107.016v-0.728c-0.037-0.58-0.043-0.608-0.979-0.769c-2.391-0.406-2.039-3.651-2.039-3.651
								s2.363-0.008,3.094,1.519c0,0,0.312,0.746,0.312,2.393v1.236H592.143z"/>
						</g>
					</g>
				</g>
				<g>
					<g>
						<g>
							<path fill="#4C4236" d="M569.622,82.988v-2.165c0.039-0.649,0.045-0.675,1.076-0.854c2.639-0.445,2.25-4.027,2.25-4.027
								s-2.607-0.002-3.408,1.678c0,0-0.348,0.828-0.348,2.641v2.729H569.622z"/>
						</g>
					</g>
					<g>
						<g>
							<path fill="#4C4236" d="M568.379,82.988v-0.8c-0.045-0.646-0.053-0.674-1.08-0.85c-2.633-0.452-2.25-4.025-2.25-4.025
								s2.607-0.009,3.406,1.673c0,0,0.35,0.826,0.35,2.64v1.362H568.379z"/>
						</g>
					</g>
				</g>
				<g>
					<g>
						<g>
							<path fill="#4C4236" d="M703.481,96.736v-2.163c0.043-0.647,0.049-0.676,1.076-0.854c2.643-0.445,2.254-4.025,2.254-4.025
								s-2.611-0.009-3.408,1.677c0,0-0.348,0.826-0.348,2.638v2.729H703.481z"/>
						</g>
					</g>
					<g>
						<g>
							<path fill="#4C4236" d="M702.241,96.736v-0.797c-0.041-0.648-0.049-0.676-1.08-0.852c-2.633-0.449-2.25-4.025-2.25-4.025
								s2.611-0.009,3.412,1.676c0,0,0.348,0.822,0.348,2.637v1.361H702.241z"/>
						</g>
					</g>
				</g>
				<g>
					<g>
						<g>
							<path fill="#4C4236" d="M623.803,92.041v-2.166c0.041-0.645,0.049-0.674,1.082-0.85c2.631-0.45,2.25-4.025,2.25-4.025
								s-2.611-0.009-3.412,1.674c0,0-0.35,0.826-0.35,2.639v2.729H623.803z"/>
						</g>
					</g>
					<g>
						<g>
							<path fill="#4C4236" d="M622.561,92.041v-0.8c-0.037-0.641-0.047-0.672-1.078-0.847c-2.631-0.454-2.248-4.028-2.248-4.028
								s2.609-0.005,3.41,1.676c0,0,0.348,0.827,0.348,2.638v1.361H622.561z"/>
						</g>
					</g>
				</g>
				<g>
					<g>
						<g>
							<path fill="#4C4236" d="M608.977,96.05v-2.161c-0.039-0.65-0.045-0.675-1.078-0.854c-2.633-0.45-2.25-4.023-2.25-4.023
								s2.611-0.012,3.414,1.674c0,0,0.346,0.824,0.346,2.641v2.724H608.977z"/>
						</g>
					</g>
					<g>
						<g>
							<path fill="#4C4236" d="M610.221,96.05v-0.797c0.037-0.641,0.047-0.672,1.076-0.848c2.635-0.452,2.252-4.028,2.252-4.028
								s-2.609-0.007-3.412,1.675c0,0-0.344,0.824-0.344,2.641v1.357H610.221z"/>
						</g>
					</g>
				</g>
				<g>
					<g>
						<g>
							<path fill="#4C4236" d="M689.438,89.691v-2.17c-0.039-0.641-0.043-0.672-1.076-0.848c-2.633-0.451-2.252-4.024-2.252-4.024
								s2.607-0.011,3.414,1.675c0,0,0.346,0.822,0.346,2.635v2.732H689.438z"/>
						</g>
					</g>
					<g>
						<g>
							<path fill="#4C4236" d="M690.684,89.691v-0.801c0.037-0.645,0.045-0.672,1.076-0.846c2.633-0.452,2.248-4.027,2.248-4.027
								s-2.607-0.01-3.408,1.668c0,0-0.348,0.83-0.348,2.645v1.361H690.684z"/>
						</g>
					</g>
				</g>
				<g>
					<g>
						<g>
							<path fill="#4C4236" d="M767.836,93.469v-2.167c-0.035-0.642-0.041-0.671-1.076-0.845c-2.633-0.454-2.248-4.032-2.248-4.032
								s2.607-0.003,3.41,1.675c0,0,0.35,0.827,0.35,2.642v2.728H767.836z"/>
						</g>
					</g>
					<g>
						<g>
							<path fill="#4C4236" d="M769.083,93.469v-0.797c0.041-0.646,0.049-0.675,1.078-0.85c2.637-0.452,2.248-4.029,2.248-4.029
								s-2.605-0.008-3.406,1.678c0,0-0.344,0.826-0.344,2.636v1.362H769.083z"/>
						</g>
					</g>
				</g>
				<g>
					<g>
						<g>
							<path fill="#44A260" d="M561.719,100.93v-1.965c0.031-0.584,0.041-0.612,0.975-0.77c2.391-0.409,2.043-3.657,2.043-3.657
								s-2.369-0.003-3.096,1.521c0,0-0.314,0.747-0.314,2.393v2.478H561.719z"/>
						</g>
					</g>
					<g>
						<g>
							<path fill="#53B06E" d="M560.59,100.93v-0.727c-0.037-0.585-0.043-0.609-0.979-0.767c-2.391-0.409-2.043-3.655-2.043-3.655
								s2.369-0.006,3.092,1.518c0,0,0.316,0.749,0.316,2.394v1.237H560.59z"/>
						</g>
					</g>
				</g>
				
					<path id="Gräs_1_" fill="#55B06D" stroke="#55B06D" stroke-width="0.2317" stroke-linecap="round" stroke-linejoin="round" stroke-miterlimit="10" d="
					M286.012,91.667c16.446-11.347,31.133-5.777,47.92,4.296c8.785,5.271,14.666,4.401,26.297,4.401h85.879v51.659H-6.508v-51.659
					h179.874h80.864C254.23,100.364,272.694,100.862,286.012,91.667z"/>
				
					<path id="Gräs_5_" fill="#3D8553" stroke="#45935C" stroke-width="0.2317" stroke-linecap="round" stroke-linejoin="round" stroke-miterlimit="10" d="
					M-6.508,133.485h495.026V87.17h-85.877c-11.637,0-26.305-1.441-35.092-6.712c-16.787-10.071-31.439-7.937-44.26-2.358
					c-15.73,6.846-18.514,1.702-31.489,0.17c-8.535-1.012-17.484-9.457-31.832-8.563c-14.67,0.914-28.819,15.354-49.576,18.508
					c0,0-9.771,1.489-21.37-1.044c-13.914-3.039-23.58-2.559-43.177,0.406c-26.966,4.077-31.036,5.967-46.603,3.128
					c-15.57-2.833-21.065-9.25-35.717-6.958c-14.652,2.291-27.672,5.883-40.853,6.379c-13.18,0.49-29.181-0.391-29.181-0.391
					l-0.027,43.751"/>
				
					<path id="Gräs_2_" fill="#51B07C" stroke="#51B07C" stroke-width="0.265" stroke-linecap="round" stroke-linejoin="round" stroke-miterlimit="10" d="
					M173.366,107.089c16.485-1.674,23.881-9.622,38.55-10.54c14.656-0.91,29.163,6.002,37.471,6.982
					c12.976,1.534,20.899-1.874,36.625-8.717c12.821-5.58,27.477-7.719,44.264,2.354c8.787,5.271,18.322,9.92,29.953,9.92h85.879
					v44.466H-6.508v-44.466H173.366z"/>
				
					<rect x="-6.508" y="142.729" fill="#51B07C" stroke="#51B07C" stroke-width="0.4501" stroke-linecap="round" stroke-linejoin="round" stroke-miterlimit="10" width="819.661" height="99.091"/>
				<g>
					<rect x="419.139" y="45.043" fill="#F5F5F6" width="56.582" height="72.997"/>
					<rect x="419.079" y="39.015" fill="#D3D3D3" width="1.311" height="6.256"/>
					<rect x="432.911" y="39.015" fill="#D3D3D3" width="1.311" height="6.256"/>
					<g>
						<rect x="446.772" y="39.015" fill="#D3D3D3" width="0.658" height="6.256"/>
						<rect x="447.43" y="39.015" fill="#F5F5F6" width="0.658" height="6.256"/>
					</g>
					<rect x="447.43" y="38.78" fill="#F5F5F6" width="28.291" height="1.313"/>
					<rect x="419.079" y="38.78" fill="#D3D3D3" width="28.352" height="1.313"/>
					<rect x="460.573" y="39.015" fill="#F5F5F6" width="1.314" height="6.256"/>
					<rect x="474.411" y="39.015" fill="#F5F5F6" width="1.311" height="6.256"/>
					<rect x="419.139" y="45.043" fill="#D3D3D3" width="28.291" height="72.997"/>
				</g>
				<g>
					<path fill="#717173" stroke="#717173" stroke-width="0.2774" stroke-miterlimit="10" d="M424.704,70.828
						c-3.947-10.725-15.059-18.453-28.146-18.453c-13.094,0-24.209,7.728-28.157,18.453H424.704z"/>
					<path fill="#58585B" stroke="#58585B" stroke-width="0.2774" stroke-linecap="round" stroke-miterlimit="10" d="
						M396.538,70.828H368.4c3.948-10.725,15.063-18.453,28.157-18.453L396.538,70.828z"/>
					<rect x="368.26" y="70.857" fill="#F5F5F6" width="56.583" height="47.183"/>
					<rect x="368.26" y="70.857" fill="#D3D3D3" width="28.297" height="47.183"/>
				</g>
				<g>
					<rect x="460.643" y="84.758" fill="#F5F5F6" width="84.268" height="33.282"/>
					<rect x="460.643" y="84.758" fill="#D3D3D3" width="42.135" height="33.282"/>
					<g>
						<path fill="#67A29F" stroke="#67A29F" stroke-width="0.482" stroke-linejoin="round" stroke-miterlimit="10" d="
							M460.821,84.527c-0.025-0.131,0.041-0.268,0.164-0.314l41.662-18.289c0.072-0.033,0.152-0.033,0.227,0l41.662,18.289
							c0.123,0.047,0.189,0.184,0.162,0.314H460.821z"/>
					</g>
					<g>
						<g>
							<path fill="#498E84" d="M502.76,84.527h-41.939c-0.025-0.131,0.041-0.268,0.164-0.314l41.662-18.289"/>
							<path fill="#498E84" d="M502.76,84.767h-41.939c-0.113,0-0.213-0.076-0.234-0.192c-0.053-0.234,0.078-0.481,0.301-0.583
								l41.666-18.292c0.012-0.003,0.025-0.012,0.047-0.015l0.16-0.023V84.767z M461.415,84.285h41.105V66.24L461.415,84.285z"/>
						</g>
					</g>
				</g>
				<g>
					<g>
						
							<rect x="14.458" y="45.331" fill="#EDE0CC" stroke="#EDE0CC" stroke-width="0.2341" stroke-miterlimit="10" width="48.844" height="72.624"/>
						
							<rect x="14.458" y="45.331" opacity="0.33" fill="#CABB9D" stroke="#CABB9D" stroke-width="0.1655" stroke-miterlimit="10" width="24.421" height="72.624"/>
					</g>
					
						<rect x="14.458" y="23.182" fill="#796955" stroke="#796955" stroke-width="0.1293" stroke-miterlimit="10" width="48.844" height="22.149"/>
					<path fill="#A28878" stroke="#A28878" stroke-width="0.1473" stroke-miterlimit="10" d="M21.655,104.957"/>
					<path fill="#C5DFE9" d="M25.357,89.553"/>
					<path fill="#A28878" stroke="#A28878" stroke-width="0.1473" stroke-miterlimit="10" d="M24.991,104.891"/>
					<path fill="#A28878" stroke="#A28878" stroke-width="0.1473" stroke-miterlimit="10" d="M33.561,104.957"/>
					<path fill="#C5DFE9" d="M37.265,89.553"/>
					<path fill="#A28878" stroke="#A28878" stroke-width="0.1473" stroke-miterlimit="10" d="M36.904,104.891"/>
					<g>
						
							<rect x="21.667" y="80.076" fill="#847364" stroke="#847364" stroke-width="0.2053" stroke-linecap="round" stroke-linejoin="round" stroke-miterlimit="10" width="3.546" height="4.535"/>
						
							<rect x="21.667" y="74.712" fill="#847364" stroke="#847364" stroke-width="0.2053" stroke-linecap="round" stroke-linejoin="round" stroke-miterlimit="10" width="3.546" height="4.54"/>
						
							<rect x="26.075" y="74.712" fill="#847364" stroke="#847364" stroke-width="0.2053" stroke-linecap="round" stroke-linejoin="round" stroke-miterlimit="10" width="3.548" height="4.54"/>
						
							<rect x="26.075" y="80.076" fill="#847364" stroke="#847364" stroke-width="0.2053" stroke-linecap="round" stroke-linejoin="round" stroke-miterlimit="10" width="3.548" height="4.535"/>
					</g>
					
						<rect x="34.901" y="80.076" fill="#847364" stroke="#847364" stroke-width="0.2053" stroke-linecap="round" stroke-linejoin="round" stroke-miterlimit="10" width="3.544" height="4.535"/>
					
						<rect x="34.901" y="74.712" fill="#847364" stroke="#847364" stroke-width="0.2053" stroke-linecap="round" stroke-linejoin="round" stroke-miterlimit="10" width="3.544" height="4.54"/>
					
						<rect x="39.308" y="74.712" fill="#A28878" stroke="#A28878" stroke-width="0.2053" stroke-linecap="round" stroke-linejoin="round" stroke-miterlimit="10" width="3.547" height="4.54"/>
					
						<rect x="39.308" y="80.076" fill="#A28878" stroke="#A28878" stroke-width="0.2053" stroke-linecap="round" stroke-linejoin="round" stroke-miterlimit="10" width="3.547" height="4.535"/>
					<g>
						
							<rect x="48.134" y="80.076" fill="#A28878" stroke="#A28878" stroke-width="0.2053" stroke-linecap="round" stroke-linejoin="round" stroke-miterlimit="10" width="3.547" height="4.535"/>
						
							<rect x="48.134" y="74.712" fill="#A28878" stroke="#A28878" stroke-width="0.2053" stroke-linecap="round" stroke-linejoin="round" stroke-miterlimit="10" width="3.547" height="4.54"/>
						
							<rect x="52.541" y="74.712" fill="#A28878" stroke="#A28878" stroke-width="0.2053" stroke-linecap="round" stroke-linejoin="round" stroke-miterlimit="10" width="3.548" height="4.54"/>
						
							<rect x="52.541" y="80.076" fill="#A28878" stroke="#A28878" stroke-width="0.2053" stroke-linecap="round" stroke-linejoin="round" stroke-miterlimit="10" width="3.548" height="4.535"/>
					</g>
					<g>
						
							<rect x="21.667" y="61.553" fill="#847364" stroke="#847364" stroke-width="0.2053" stroke-linecap="round" stroke-linejoin="round" stroke-miterlimit="10" width="3.546" height="4.539"/>
						
							<rect x="21.667" y="56.193" fill="#847364" stroke="#847364" stroke-width="0.2053" stroke-linecap="round" stroke-linejoin="round" stroke-miterlimit="10" width="3.546" height="4.537"/>
						
							<rect x="26.075" y="56.193" fill="#847364" stroke="#847364" stroke-width="0.2053" stroke-linecap="round" stroke-linejoin="round" stroke-miterlimit="10" width="3.548" height="4.537"/>
						
							<rect x="26.075" y="61.553" fill="#847364" stroke="#847364" stroke-width="0.2053" stroke-linecap="round" stroke-linejoin="round" stroke-miterlimit="10" width="3.548" height="4.539"/>
					</g>
					
						<rect x="34.901" y="61.553" fill="#847364" stroke="#847364" stroke-width="0.2053" stroke-linecap="round" stroke-linejoin="round" stroke-miterlimit="10" width="3.544" height="4.539"/>
					
						<rect x="34.901" y="56.193" fill="#847364" stroke="#847364" stroke-width="0.2053" stroke-linecap="round" stroke-linejoin="round" stroke-miterlimit="10" width="3.544" height="4.537"/>
					
						<rect x="39.308" y="56.193" fill="#A28878" stroke="#A28878" stroke-width="0.2053" stroke-linecap="round" stroke-linejoin="round" stroke-miterlimit="10" width="3.547" height="4.537"/>
					
						<rect x="39.308" y="61.553" fill="#A28878" stroke="#A28878" stroke-width="0.2053" stroke-linecap="round" stroke-linejoin="round" stroke-miterlimit="10" width="3.547" height="4.539"/>
					<g>
						
							<rect x="48.134" y="61.553" fill="#A28878" stroke="#A28878" stroke-width="0.2053" stroke-linecap="round" stroke-linejoin="round" stroke-miterlimit="10" width="3.547" height="4.539"/>
						
							<rect x="48.134" y="56.193" fill="#A28878" stroke="#A28878" stroke-width="0.2053" stroke-linecap="round" stroke-linejoin="round" stroke-miterlimit="10" width="3.547" height="4.537"/>
						
							<rect x="52.541" y="56.193" fill="#A28878" stroke="#A28878" stroke-width="0.2053" stroke-linecap="round" stroke-linejoin="round" stroke-miterlimit="10" width="3.548" height="4.537"/>
						
							<rect x="52.541" y="61.553" fill="#A28878" stroke="#A28878" stroke-width="0.2053" stroke-linecap="round" stroke-linejoin="round" stroke-miterlimit="10" width="3.548" height="4.539"/>
					</g>
					<g>
						
							<rect x="21.667" y="98.595" fill="#847364" stroke="#847364" stroke-width="0.2053" stroke-linecap="round" stroke-linejoin="round" stroke-miterlimit="10" width="3.546" height="4.537"/>
						
							<rect x="21.667" y="93.23" fill="#847364" stroke="#847364" stroke-width="0.2053" stroke-linecap="round" stroke-linejoin="round" stroke-miterlimit="10" width="3.546" height="4.539"/>
						
							<rect x="26.075" y="93.23" fill="#847364" stroke="#847364" stroke-width="0.2053" stroke-linecap="round" stroke-linejoin="round" stroke-miterlimit="10" width="3.548" height="4.539"/>
						
							<rect x="26.075" y="98.595" fill="#847364" stroke="#847364" stroke-width="0.2053" stroke-linecap="round" stroke-linejoin="round" stroke-miterlimit="10" width="3.548" height="4.537"/>
					</g>
					
						<rect x="34.901" y="98.595" fill="#847364" stroke="#847364" stroke-width="0.2053" stroke-linecap="round" stroke-linejoin="round" stroke-miterlimit="10" width="3.544" height="4.537"/>
					
						<rect x="34.901" y="93.23" fill="#847364" stroke="#847364" stroke-width="0.2053" stroke-linecap="round" stroke-linejoin="round" stroke-miterlimit="10" width="3.544" height="4.539"/>
					
						<rect x="39.308" y="93.23" fill="#A28878" stroke="#A28878" stroke-width="0.2053" stroke-linecap="round" stroke-linejoin="round" stroke-miterlimit="10" width="3.547" height="4.539"/>
					
						<rect x="39.308" y="98.595" fill="#A28878" stroke="#A28878" stroke-width="0.2053" stroke-linecap="round" stroke-linejoin="round" stroke-miterlimit="10" width="3.547" height="4.537"/>
					
						<rect x="48.134" y="98.595" fill="#A28878" stroke="#A28878" stroke-width="0.2053" stroke-linecap="round" stroke-linejoin="round" stroke-miterlimit="10" width="7.955" height="19.36"/>
					
						<rect x="48.134" y="93.23" fill="#A28878" stroke="#A28878" stroke-width="0.2053" stroke-linecap="round" stroke-linejoin="round" stroke-miterlimit="10" width="3.547" height="4.539"/>
					
						<rect x="52.541" y="93.23" fill="#A28878" stroke="#A28878" stroke-width="0.2053" stroke-linecap="round" stroke-linejoin="round" stroke-miterlimit="10" width="3.548" height="4.539"/>
					
						<rect x="14.458" y="23.182" fill="#604D40" stroke="#604D40" stroke-width="0.0914" stroke-miterlimit="10" width="24.421" height="22.149"/>
					
						<rect x="27.847" y="17.129" fill="#796955" stroke="#796955" stroke-width="0.1293" stroke-miterlimit="10" width="6.923" height="12.792"/>
					
						<rect x="48.134" y="98.595" fill="#847364" stroke="#847364" stroke-width="0.2053" stroke-linecap="round" stroke-linejoin="round" stroke-miterlimit="10" width="3.979" height="19.36"/>
				</g>
				<g>
					<polygon fill="#F29F95" stroke="#F29F95" stroke-width="0.1072" stroke-miterlimit="10" points="172.403,118.03 118.98,118.03 
						118.98,88.676 145.692,69.768 172.403,88.676 					"/>
					<polygon opacity="0.7" fill="#E5827D" stroke="#E5827D" stroke-width="0.1072" stroke-miterlimit="10" points="145.692,118.03 
						118.98,118.03 118.98,88.676 145.692,69.768 					"/>
					
						<rect x="125.101" y="101.387" fill="#A04A46" stroke="#A04A46" stroke-width="0.1535" stroke-linecap="round" stroke-linejoin="round" stroke-miterlimit="10" width="4.323" height="5.53"/>
					
						<rect x="125.101" y="94.852" fill="#A04A46" stroke="#A04A46" stroke-width="0.1535" stroke-linecap="round" stroke-linejoin="round" stroke-miterlimit="10" width="4.323" height="5.529"/>
					
						<rect x="130.475" y="94.852" fill="#A04A46" stroke="#A04A46" stroke-width="0.1535" stroke-linecap="round" stroke-linejoin="round" stroke-miterlimit="10" width="4.321" height="5.529"/>
					
						<rect x="130.475" y="101.387" fill="#A04A46" stroke="#A04A46" stroke-width="0.1535" stroke-linecap="round" stroke-linejoin="round" stroke-miterlimit="10" width="4.321" height="5.53"/>
					
						<rect x="140.993" y="101.387" fill="#A04A46" stroke="#A04A46" stroke-width="0.1535" stroke-linecap="round" stroke-linejoin="round" stroke-miterlimit="10" width="4.326" height="5.53"/>
					
						<rect x="140.993" y="94.852" fill="#A04A46" stroke="#A04A46" stroke-width="0.1535" stroke-linecap="round" stroke-linejoin="round" stroke-miterlimit="10" width="4.326" height="5.529"/>
					
						<rect x="146.367" y="94.852" fill="#B46057" stroke="#B46057" stroke-width="0.1535" stroke-linecap="round" stroke-linejoin="round" stroke-miterlimit="10" width="4.324" height="5.529"/>
					
						<rect x="146.367" y="101.387" fill="#B46057" stroke="#B46057" stroke-width="0.1535" stroke-linecap="round" stroke-linejoin="round" stroke-miterlimit="10" width="4.324" height="5.53"/>
					
						<rect x="155.74" y="94.852" fill="#B46057" stroke="#B46057" stroke-width="0.1535" stroke-linecap="round" stroke-linejoin="round" stroke-miterlimit="10" width="9.696" height="23.179"/>
					
						<rect x="155.74" y="94.852" fill="#A04A46" stroke="#A04A46" stroke-width="0.1535" stroke-linecap="round" stroke-linejoin="round" stroke-miterlimit="10" width="4.85" height="23.179"/>
					
						<polyline fill="none" stroke="#604D40" stroke-width="2.7265" stroke-linecap="round" stroke-linejoin="round" stroke-miterlimit="10" points="
						117.671,89.703 145.692,69.768 174.021,89.703 					"/>
					
						<circle fill="#B46057" stroke="#B46057" stroke-width="0.1535" stroke-linecap="round" stroke-linejoin="round" stroke-miterlimit="10" cx="145.845" cy="82.279" r="3.989"/>
					
						<path fill="#A04A46" stroke="#A04A46" stroke-width="0.1535" stroke-linecap="round" stroke-linejoin="round" stroke-miterlimit="10" d="
						M145.847,86.269c-2.202,0-3.99-1.786-3.99-3.989s1.788-3.987,3.99-3.987V86.269z"/>
					
						<polygon fill="#604D40" stroke="#604D40" stroke-width="0.6059" stroke-linecap="round" stroke-linejoin="round" stroke-miterlimit="10" points="
						133.857,78.292 127.085,82.941 127.085,73.643 133.857,73.643 					"/>
				</g>
				<g>
					
						<rect x="68.869" y="67.518" fill="#ECECED" stroke="#ECECED" stroke-width="0.2993" stroke-miterlimit="10" width="45.427" height="50.659"/>
					
						<rect x="68.869" y="46.918" fill="#5A595B" stroke="#5A595B" stroke-width="0.1202" stroke-miterlimit="10" width="45.427" height="20.6"/>
					
						<rect x="68.869" y="46.918" fill="#3E3D3F" stroke="#604D40" stroke-width="0.1202" stroke-miterlimit="10" width="22.713" height="20.651"/>
					
						<rect x="81.325" y="41.292" fill="#5A595B" stroke="#5A595B" stroke-width="0.1202" stroke-miterlimit="10" width="6.438" height="11.895"/>
					
						<rect x="68.869" y="67.629" fill="#E1E1E1" stroke="#E1E1E1" stroke-width="0.2993" stroke-miterlimit="10" width="22.713" height="50.548"/>
					<path fill="#A28878" stroke="#A28878" stroke-width="0.137" stroke-miterlimit="10" d="M75.56,106.087"/>
					<path fill="#C5DFE9" d="M79.011,91.765"/>
					<path fill="#A28878" stroke="#A28878" stroke-width="0.137" stroke-miterlimit="10" d="M78.672,106.028"/>
					<path fill="#A28878" stroke="#A28878" stroke-width="0.137" stroke-miterlimit="10" d="M86.637,106.087"/>
					<path fill="#C5DFE9" d="M90.081,91.765"/>
					<path fill="#A28878" stroke="#A28878" stroke-width="0.137" stroke-miterlimit="10" d="M89.747,106.028"/>
					<g>
						<g>
							
								<rect x="75.575" y="82.949" fill="#2F6A82" stroke="#2F6A82" stroke-width="0.2993" stroke-miterlimit="10" width="3.298" height="4.221"/>
							
								<rect x="75.575" y="77.961" fill="#2F6A82" stroke="#2F6A82" stroke-width="0.2993" stroke-miterlimit="10" width="3.298" height="4.219"/>
							
								<rect x="79.673" y="77.961" fill="#2F6A82" stroke="#2F6A82" stroke-width="0.2993" stroke-miterlimit="10" width="3.302" height="4.219"/>
							
								<rect x="79.673" y="82.949" fill="#2F6A82" stroke="#2F6A82" stroke-width="0.2993" stroke-miterlimit="10" width="3.302" height="4.221"/>
						</g>
						<g>
							
								<rect x="75.575" y="100.172" fill="#2F6A82" stroke="#2F6A82" stroke-width="0.2993" stroke-miterlimit="10" width="3.298" height="4.22"/>
							
								<rect x="75.575" y="95.189" fill="#2F6A82" stroke="#2F6A82" stroke-width="0.2993" stroke-miterlimit="10" width="3.298" height="4.217"/>
							
								<rect x="79.673" y="95.189" fill="#2F6A82" stroke="#2F6A82" stroke-width="0.2993" stroke-miterlimit="10" width="3.302" height="4.217"/>
							
								<rect x="79.673" y="100.172" fill="#2F6A82" stroke="#2F6A82" stroke-width="0.2993" stroke-miterlimit="10" width="3.302" height="4.22"/>
						</g>
					</g>
					
						<rect x="87.885" y="82.949" fill="#2F6A82" stroke="#2F6A82" stroke-width="0.2993" stroke-miterlimit="10" width="3.294" height="4.221"/>
					
						<rect x="87.885" y="77.961" fill="#2F6A82" stroke="#2F6A82" stroke-width="0.2993" stroke-miterlimit="10" width="3.294" height="4.219"/>
					
						<rect x="91.982" y="77.961" fill="#4C86A9" stroke="#4C86A9" stroke-width="0.2993" stroke-miterlimit="10" width="3.295" height="4.219"/>
					
						<rect x="91.982" y="82.949" fill="#4C86A9" stroke="#4C86A9" stroke-width="0.2993" stroke-miterlimit="10" width="3.295" height="4.221"/>
					
						<rect x="87.885" y="100.172" fill="#2F6A82" stroke="#2F6A82" stroke-width="0.2993" stroke-miterlimit="10" width="3.294" height="4.22"/>
					
						<rect x="87.885" y="95.189" fill="#2F6A82" stroke="#2F6A82" stroke-width="0.2993" stroke-miterlimit="10" width="3.294" height="4.217"/>
					
						<rect x="91.982" y="95.189" fill="#4C86A9" stroke="#4C86A9" stroke-width="0.2993" stroke-miterlimit="10" width="3.295" height="4.217"/>
					
						<rect x="91.982" y="100.172" fill="#4C86A9" stroke="#4C86A9" stroke-width="0.2993" stroke-miterlimit="10" width="3.295" height="4.22"/>
					<g>
						
							<rect x="100.187" y="82.949" fill="#4C86A9" stroke="#4C86A9" stroke-width="0.2993" stroke-miterlimit="10" width="3.303" height="4.221"/>
						
							<rect x="100.187" y="77.961" fill="#4C86A9" stroke="#4C86A9" stroke-width="0.2993" stroke-miterlimit="10" width="3.303" height="4.219"/>
						
							<rect x="104.291" y="77.961" fill="#4C86A9" stroke="#4C86A9" stroke-width="0.2993" stroke-miterlimit="10" width="3.297" height="4.219"/>
						
							<rect x="104.291" y="82.949" fill="#4C86A9" stroke="#4C86A9" stroke-width="0.2993" stroke-miterlimit="10" width="3.297" height="4.221"/>
					</g>
					
						<rect x="100.187" y="95.189" fill="#4C86A9" stroke="#4C86A9" stroke-width="0.2993" stroke-miterlimit="10" width="3.303" height="4.217"/>
					
						<rect x="104.291" y="95.189" fill="#4C86A9" stroke="#4C86A9" stroke-width="0.2993" stroke-miterlimit="10" width="3.297" height="4.217"/>
					
						<rect x="100.187" y="100.172" fill="#4C86A9" stroke="#4C86A9" stroke-width="0.2993" stroke-miterlimit="10" width="3.303" height="4.22"/>
					
						<rect x="104.291" y="100.172" fill="#4C86A9" stroke="#4C86A9" stroke-width="0.2993" stroke-miterlimit="10" width="3.297" height="4.22"/>
				</g>
				<g id="Träd">
					<rect x="327.16" y="90.245" fill="#AF8048" width="1.826" height="8.854"/>
					<rect x="328.072" y="90.245" fill="#905F36" width="0.914" height="8.854"/>
					
						<path fill="#53B070" stroke="#53B070" stroke-width="0.0175" stroke-linecap="round" stroke-linejoin="round" stroke-miterlimit="10" d="
						M318.893,83.173c0-2.392,1.936-4.33,4.33-4.33c0.451,0,0.889,0.07,1.299,0.196c0.146-2.26,2.027-4.053,4.322-4.053
						c2.393,0,4.332,1.941,4.332,4.336c0,0.48-0.082,0.951-0.23,1.382c2.385,0.015,4.309,1.947,4.309,4.329
						c0,2.396-1.941,4.334-4.328,4.334c-0.805,0-1.555-0.217-2.197-0.6c-0.781,1.129-2.084,1.863-3.559,1.863
						c-1.977,0-3.643-1.322-4.164-3.131C320.715,87.383,318.893,85.492,318.893,83.173z"/>
					
						<path fill="#44A260" stroke="#44A260" stroke-width="0.0175" stroke-linecap="round" stroke-linejoin="round" stroke-miterlimit="10" d="
						M328.844,74.986c2.393,0,4.332,1.941,4.332,4.336c0,0.48-0.082,0.951-0.23,1.382c2.385,0.015,4.309,1.947,4.309,4.329
						c0,2.396-1.941,4.334-4.328,4.334c-0.805,0-1.555-0.217-2.197-0.6c-0.619,0.891-1.562,1.535-2.656,1.77c0,0,0-15.387,0-15.479
						C328.352,74.975,328.844,74.986,328.844,74.986z"/>
				</g>
				<g id="Träd_5_">
					<rect x="607.604" y="100.441" fill="#AF8048" width="3.604" height="17.435"/>
					<rect x="609.407" y="100.441" fill="#905F36" width="1.801" height="17.435"/>
					
						<path fill="#53B070" stroke="#53B070" stroke-width="0.0345" stroke-linecap="round" stroke-linejoin="round" stroke-miterlimit="10" d="
						M591.321,86.504c0-4.711,3.818-8.526,8.529-8.526c0.893,0,1.754,0.135,2.559,0.39c0.289-4.451,3.988-7.978,8.514-7.978
						c4.713,0,8.529,3.82,8.529,8.529c0,0.954-0.158,1.87-0.445,2.726c4.688,0.027,8.482,3.838,8.482,8.528
						c0,4.715-3.816,8.534-8.529,8.534c-1.578,0-3.059-0.43-4.326-1.177c-1.543,2.216-4.104,3.665-7.008,3.665
						c-3.893,0-7.17-2.606-8.195-6.17C594.915,94.804,591.321,91.075,591.321,86.504z"/>
					
						<path fill="#44A260" stroke="#44A260" stroke-width="0.0345" stroke-linecap="round" stroke-linejoin="round" stroke-miterlimit="10" d="
						M610.922,70.39c4.713,0,8.529,3.82,8.529,8.529c0,0.954-0.158,1.87-0.445,2.726c4.688,0.027,8.482,3.838,8.482,8.528
						c0,4.715-3.816,8.534-8.529,8.534c-1.578,0-3.059-0.43-4.326-1.177c-1.217,1.747-3.072,3.023-5.225,3.48c0,0,0-30.304,0-30.485
						C609.954,70.365,610.922,70.39,610.922,70.39z"/>
				</g>
				<g id="Träd_8_">
					<rect x="300.797" y="73.357" fill="#AF8048" width="1.241" height="6.004"/>
					<rect x="301.419" y="73.357" fill="#905F36" width="0.619" height="6.004"/>
					
						<path fill="#53B070" stroke="#53B070" stroke-width="0.0119" stroke-linecap="round" stroke-linejoin="round" stroke-miterlimit="10" d="
						M295.191,68.559c0-1.622,1.313-2.939,2.94-2.939c0.305,0,0.599,0.051,0.878,0.138c0.098-1.534,1.371-2.75,2.929-2.75
						c1.621,0,2.939,1.32,2.939,2.941c0,0.327-0.055,0.644-0.15,0.937c1.611,0.008,2.919,1.32,2.919,2.938
						c0,1.624-1.319,2.938-2.941,2.938c-0.542,0-1.052-0.146-1.488-0.406c-0.534,0.765-1.413,1.266-2.414,1.266
						c-1.339,0-2.47-0.898-2.824-2.126C296.429,71.416,295.191,70.131,295.191,68.559z"/>
					
						<path fill="#44A260" stroke="#44A260" stroke-width="0.0119" stroke-linecap="round" stroke-linejoin="round" stroke-miterlimit="10" d="
						M301.939,63.007c1.621,0,2.939,1.32,2.939,2.941c0,0.327-0.055,0.644-0.15,0.937c1.611,0.008,2.919,1.32,2.919,2.938
						c0,1.624-1.319,2.938-2.941,2.938c-0.542,0-1.052-0.146-1.488-0.406c-0.419,0.604-1.059,1.043-1.799,1.201
						c0,0,0-10.435,0-10.498C301.607,62.999,301.939,63.007,301.939,63.007z"/>
				</g>
				<g id="Träd_3_">
					<rect x="210.602" y="84.013" fill="#AF8048" width="0.987" height="4.795"/>
					<rect x="211.094" y="84.013" fill="#905F36" width="0.495" height="4.795"/>
					
						<path fill="#53B070" stroke="#53B070" stroke-width="0.0095" stroke-linecap="round" stroke-linejoin="round" stroke-miterlimit="10" d="
						M206.125,80.182c0-1.293,1.048-2.342,2.342-2.342c0.249,0,0.485,0.036,0.706,0.105c0.078-1.225,1.097-2.191,2.34-2.191
						c1.297,0,2.346,1.05,2.346,2.344c0,0.262-0.044,0.515-0.121,0.748c1.286,0.01,2.328,1.056,2.328,2.344
						c0,1.299-1.048,2.349-2.342,2.349c-0.435,0-0.843-0.118-1.19-0.326c-0.422,0.606-1.128,1.011-1.927,1.011
						c-1.07,0-1.972-0.72-2.253-1.697C207.113,82.463,206.125,81.441,206.125,80.182z"/>
					
						<path fill="#44A260" stroke="#44A260" stroke-width="0.0095" stroke-linecap="round" stroke-linejoin="round" stroke-miterlimit="10" d="
						M211.513,75.754c1.297,0,2.346,1.05,2.346,2.344c0,0.262-0.044,0.515-0.121,0.748c1.286,0.01,2.328,1.056,2.328,2.344
						c0,1.299-1.048,2.349-2.342,2.349c-0.435,0-0.843-0.118-1.19-0.326c-0.333,0.482-0.846,0.835-1.439,0.958c0,0,0-8.329,0-8.377
						C211.247,75.747,211.513,75.754,211.513,75.754z"/>
				</g>
				<g id="Träd_9_">
					<rect x="196.521" y="83.275" fill="#AF8048" width="0.986" height="4.795"/>
					<rect x="197.015" y="83.275" fill="#905F36" width="0.492" height="4.795"/>
					
						<path fill="#53B070" stroke="#53B070" stroke-width="0.0095" stroke-linecap="round" stroke-linejoin="round" stroke-miterlimit="10" d="
						M192.044,79.445c0-1.295,1.046-2.344,2.346-2.344c0.243,0,0.481,0.037,0.699,0.104c0.084-1.224,1.101-2.19,2.344-2.19
						c1.296,0,2.344,1.049,2.344,2.342c0,0.262-0.043,0.513-0.119,0.75c1.287,0.009,2.327,1.056,2.327,2.347
						c0,1.299-1.049,2.346-2.343,2.346c-0.435,0-0.837-0.118-1.187-0.325c-0.425,0.609-1.13,1.01-1.931,1.01
						c-1.066,0-1.969-0.719-2.251-1.703C193.032,81.727,192.044,80.702,192.044,79.445z"/>
					
						<path fill="#44A260" stroke="#44A260" stroke-width="0.0095" stroke-linecap="round" stroke-linejoin="round" stroke-miterlimit="10" d="
						M197.433,75.016c1.296,0,2.344,1.049,2.344,2.342c0,0.262-0.043,0.513-0.119,0.75c1.287,0.009,2.327,1.056,2.327,2.347
						c0,1.299-1.049,2.346-2.343,2.346c-0.435,0-0.837-0.118-1.187-0.325c-0.335,0.479-0.849,0.832-1.439,0.959c0,0,0-8.329,0-8.384
						C197.167,75.01,197.433,75.016,197.433,75.016z"/>
				</g>
				<g id="Träd_4_">
					<rect x="629.28" y="77.082" fill="#AF8048" width="1.068" height="5.176"/>
					<rect x="629.28" y="77.082" fill="#905F36" width="0.531" height="5.176"/>
					
						<path fill="#53B070" stroke="#53B070" stroke-width="0.0102" stroke-linecap="round" stroke-linejoin="round" stroke-miterlimit="10" d="
						M635.182,72.948c0-1.399-1.133-2.532-2.533-2.532c-0.264,0-0.518,0.04-0.758,0.113c-0.084-1.317-1.184-2.364-2.525-2.364
						c-1.4,0-2.533,1.134-2.533,2.53c0,0.284,0.049,0.556,0.135,0.809c-1.393,0.01-2.521,1.138-2.521,2.534
						c0,1.396,1.135,2.53,2.537,2.53c0.465,0,0.904-0.127,1.279-0.35c0.457,0.661,1.221,1.089,2.08,1.089
						c1.158,0,2.129-0.772,2.432-1.831C634.118,75.411,635.182,74.306,635.182,72.948z"/>
					
						<path fill="#44A260" stroke="#44A260" stroke-width="0.0102" stroke-linecap="round" stroke-linejoin="round" stroke-miterlimit="10" d="
						M629.366,68.165c-1.4,0-2.533,1.134-2.533,2.53c0,0.284,0.049,0.556,0.135,0.809c-1.393,0.01-2.521,1.138-2.521,2.534
						c0,1.396,1.135,2.53,2.537,2.53c0.465,0,0.904-0.127,1.279-0.35c0.361,0.522,0.912,0.9,1.549,1.033c0,0,0-8.994,0-9.049
						C629.651,68.157,629.366,68.165,629.366,68.165z"/>
				</g>
				<g id="Träd_10_">
					<rect x="647.766" y="73.885" fill="#AF8048" width="1.07" height="5.174"/>
					<rect x="647.766" y="73.885" fill="#905F36" width="0.535" height="5.174"/>
					
						<path fill="#53B070" stroke="#53B070" stroke-width="0.0102" stroke-linecap="round" stroke-linejoin="round" stroke-miterlimit="10" d="
						M653.665,69.75c0-1.397-1.129-2.532-2.531-2.532c-0.264,0-0.518,0.042-0.756,0.116c-0.086-1.32-1.188-2.367-2.529-2.367
						c-1.396,0-2.529,1.134-2.529,2.531c0,0.283,0.047,0.555,0.133,0.811c-1.395,0.008-2.521,1.138-2.521,2.529
						c0,1.4,1.137,2.535,2.535,2.535c0.469,0,0.906-0.129,1.283-0.352c0.459,0.661,1.219,1.09,2.078,1.09
						c1.158,0,2.129-0.774,2.434-1.832C652.602,72.214,653.665,71.105,653.665,69.75z"/>
					
						<path fill="#44A260" stroke="#44A260" stroke-width="0.0102" stroke-linecap="round" stroke-linejoin="round" stroke-miterlimit="10" d="
						M647.848,64.967c-1.396,0-2.529,1.134-2.529,2.531c0,0.283,0.047,0.555,0.133,0.811c-1.395,0.008-2.521,1.138-2.521,2.529
						c0,1.4,1.137,2.535,2.535,2.535c0.469,0,0.906-0.129,1.283-0.352c0.359,0.521,0.91,0.897,1.553,1.033c0,0,0-8.993,0-9.047
						C648.135,64.959,647.848,64.967,647.848,64.967z"/>
				</g>
				<g>
					<g>
						<rect x="336.463" y="61.257" fill="#8E5F36" width="2.248" height="9.905"/>
						<rect x="337.586" y="61.257" fill="#804E29" width="1.125" height="9.905"/>
					</g>
					<g>
						<polygon fill="#55B06D" stroke="#55B06D" stroke-width="0.0459" stroke-miterlimit="10" points="332.871,59.197 
							342.197,59.197 337.531,52.586 						"/>
						
							<polygon fill="#44A260" stroke="#44A260" stroke-width="0.0518" stroke-linecap="round" stroke-linejoin="round" stroke-miterlimit="10" points="
							342.197,59.197 337.531,52.586 337.531,59.197 						"/>
					</g>
					<g>
						<polygon fill="#55B06D" stroke="#55B06D" stroke-width="0.0568" stroke-miterlimit="10" points="331.787,62.254 
							343.279,62.254 337.531,54.059 						"/>
						
							<polygon fill="#44A260" stroke="#44A260" stroke-width="0.064" stroke-linecap="round" stroke-linejoin="round" stroke-miterlimit="10" points="
							343.279,62.254 337.531,54.059 337.531,62.254 						"/>
					</g>
					<g>
						<polygon fill="#55B06D" stroke="#55B06D" stroke-width="0.0662" stroke-miterlimit="10" points="330.762,65.25 344.311,65.25 
							337.531,55.81 						"/>
						
							<polygon fill="#44A260" stroke="#44A260" stroke-width="0.0746" stroke-linecap="round" stroke-linejoin="round" stroke-miterlimit="10" points="
							344.311,65.25 337.531,55.81 337.531,65.25 						"/>
					</g>
					<g>
						<polygon fill="#55B06D" stroke="#55B06D" stroke-width="0.0731" stroke-miterlimit="10" points="330.053,68.112 
							345.014,68.112 337.531,57.687 						"/>
						
							<polygon fill="#44A260" stroke="#44A260" stroke-width="0.0824" stroke-linecap="round" stroke-linejoin="round" stroke-miterlimit="10" points="
							345.014,68.112 337.531,57.687 337.531,68.112 						"/>
					</g>
					<g>
						<polygon fill="#55B06D" stroke="#55B06D" stroke-width="0.0362" stroke-miterlimit="10" points="333.92,56.387 
							341.146,56.387 337.531,51.103 						"/>
						
							<polygon fill="#44A260" stroke="#44A260" stroke-width="0.0408" stroke-linecap="round" stroke-linejoin="round" stroke-miterlimit="10" points="
							341.146,56.387 337.531,51.103 337.531,56.387 						"/>
					</g>
				</g>
				<g>
					<g>
						<rect x="318.234" y="66.48" fill="#8E5F36" width="1.66" height="7.294"/>
						<rect x="319.064" y="66.48" fill="#804E29" width="0.83" height="7.294"/>
					</g>
					<g>
						<polygon fill="#55B06D" stroke="#55B06D" stroke-width="0.0338" stroke-miterlimit="10" points="315.596,64.965 
							322.459,64.965 319.027,60.095 						"/>
						
							<polygon fill="#44A260" stroke="#44A260" stroke-width="0.0381" stroke-linecap="round" stroke-linejoin="round" stroke-miterlimit="10" points="
							322.459,64.965 319.027,60.095 319.027,64.965 						"/>
					</g>
					<g>
						<polygon fill="#55B06D" stroke="#55B06D" stroke-width="0.0418" stroke-miterlimit="10" points="314.795,67.211 
							323.256,67.211 319.027,61.177 						"/>
						
							<polygon fill="#44A260" stroke="#44A260" stroke-width="0.0471" stroke-linecap="round" stroke-linejoin="round" stroke-miterlimit="10" points="
							323.256,67.211 319.027,61.177 319.027,67.211 						"/>
					</g>
					<g>
						<polygon fill="#55B06D" stroke="#55B06D" stroke-width="0.0487" stroke-miterlimit="10" points="314.037,69.424 
							324.014,69.424 319.027,62.471 						"/>
						
							<polygon fill="#44A260" stroke="#44A260" stroke-width="0.0549" stroke-linecap="round" stroke-linejoin="round" stroke-miterlimit="10" points="
							324.014,69.424 319.027,62.471 319.027,69.424 						"/>
					</g>
					<g>
						<polygon fill="#55B06D" stroke="#55B06D" stroke-width="0.0538" stroke-miterlimit="10" points="313.514,71.527 
							324.535,71.527 319.027,63.852 						"/>
						
							<polygon fill="#44A260" stroke="#44A260" stroke-width="0.0606" stroke-linecap="round" stroke-linejoin="round" stroke-miterlimit="10" points="
							324.535,71.527 319.027,63.852 319.027,71.527 						"/>
					</g>
					<g>
						<polygon fill="#55B06D" stroke="#55B06D" stroke-width="0.0266" stroke-miterlimit="10" points="316.363,62.895 
							321.691,62.895 319.027,59.002 						"/>
						
							<polygon fill="#44A260" stroke="#44A260" stroke-width="0.03" stroke-linecap="round" stroke-linejoin="round" stroke-miterlimit="10" points="
							321.691,62.895 319.027,59.002 319.027,62.895 						"/>
					</g>
				</g>
				<g id="Väg">
					
						<line fill="none" stroke="#3E3D3F" stroke-width="33.2913" stroke-linejoin="round" stroke-miterlimit="10" x1="-6.508" y1="134.841" x2="813.153" y2="134.841"/>
					
						<line fill="none" stroke="#FFFFFF" stroke-width="2.3119" stroke-linejoin="round" stroke-miterlimit="10" stroke-dasharray="11.0971" x1="-6.508" y1="132.274" x2="813.153" y2="132.274"/>
				</g>
				
					<path fill="#FFFFFF" stroke="#FFFFFF" stroke-width="0.6411" stroke-linecap="round" stroke-linejoin="round" stroke-miterlimit="10" d="
					M522.637,43.962c-0.652,0-1.279,0.127-1.85,0.35c-0.326-3.587-3.35-6.409-7.025-6.409c-1.209,0-2.338,0.304-3.334,0.837
					c-1.211-3.443-4.498-5.918-8.348-5.918c-4.881,0-8.852,3.97-8.852,8.852c0,0.387,0.027,0.769,0.08,1.143
					c-0.742-0.336-1.568-0.527-2.438-0.527c-3.25,0-5.893,2.645-5.893,5.894c0,1.577,0.613,3.057,1.729,4.171
					c0.223,0.223,0.527,0.35,0.85,0.35l38.186,0.002l0,0c0.373,0,0.723-0.171,0.947-0.465c0.707-0.907,1.078-1.997,1.078-3.147
					C527.768,46.265,525.467,43.962,522.637,43.962z"/>
				
					<path opacity="0.42" fill="#FFFFFF" stroke="#FFFFFF" stroke-width="0.7994" stroke-linecap="round" stroke-linejoin="round" stroke-miterlimit="10" d="
					M484.151,15.143c-0.65,0-1.273,0.124-1.852,0.348c-0.328-3.591-3.35-6.413-7.021-6.413c-1.205,0-2.342,0.305-3.332,0.841
					C470.733,6.476,467.446,4,463.594,4c-4.879,0-8.85,3.971-8.85,8.849c0,0.39,0.029,0.772,0.076,1.146
					c-0.74-0.336-1.564-0.526-2.432-0.526c-3.252,0-5.895,2.645-5.895,5.894c0,1.575,0.615,3.056,1.727,4.169
					c0.223,0.224,0.527,0.352,0.848,0.352h38.188c0,0,0,0,0.002,0c0.369,0,0.719-0.172,0.947-0.464
					c0.703-0.906,1.076-1.995,1.076-3.146C489.282,17.443,486.983,15.143,484.151,15.143z"/>
				<path fill="#FFFFFF" d="M114.062-44.297c0.001-0.11,0.009-0.219,0.009-0.328c0-7.366-5.992-13.357-13.357-13.357
					c-5.171,0-9.667,2.957-11.882,7.265c-1.764-1.758-4.188-2.804-6.736-2.804c-4.51,0-8.343,3.108-9.301,7.46
					c-1.322-0.556-2.725-0.835-4.171-0.835c-5.97,0-10.835,4.859-10.835,10.829c0,1.872,0.49,3.719,1.408,5.338
					c0.124,0.224,0.363,0.362,0.621,0.362h54.062h5.873l0,0c0.2,0,0.396-0.086,0.529-0.239c1.347-1.508,2.089-3.456,2.089-5.481
					C122.371-40.435,119.249-44.625,114.062-44.297z"/>
				<g>
					
						<rect x="272.992" y="79.58" fill="#ECECED" stroke="#ECECED" stroke-width="0.1205" stroke-miterlimit="10" width="1.677" height="38.593"/>
					
						<rect x="272.992" y="79.58" fill="#D9DADB" stroke="#D9DADB" stroke-width="0.1205" stroke-miterlimit="10" width="0.836" height="38.593"/>
					<rect x="267.624" y="64.194" fill="#37A962" width="12.409" height="3.054"/>
					<rect x="267.624" y="64.194" fill="#FFFFFF" width="12.409" height="15.386"/>
					<polygon fill="#F5F5F6" points="280.033,79.58 267.624,79.58 267.624,64.194 					"/>
					<g>
						
							<path fill="#5A595B" stroke="#5A595B" stroke-width="0.1001" stroke-linecap="round" stroke-linejoin="round" stroke-miterlimit="10" d="
							M270.53,72.963l-0.002-2.197c0.32,0.012,0.564,0.055,0.731,0.131c0.163,0.078,0.246,0.195,0.246,0.353
							c0,0.154-0.044,0.271-0.128,0.344c-0.092,0.075-0.199,0.122-0.321,0.139c0.167,0.015,0.307,0.07,0.423,0.171
							c0.111,0.102,0.171,0.25,0.171,0.439c0,0.195-0.095,0.344-0.286,0.454C271.175,72.904,270.894,72.959,270.53,72.963z
							 M271.388,71.249c0-0.12-0.064-0.212-0.196-0.272c-0.136-0.065-0.32-0.092-0.548-0.092v0.791
							C271.142,71.672,271.388,71.527,271.388,71.249z M271.534,72.325c0-0.108-0.029-0.2-0.091-0.271
							c-0.062-0.074-0.142-0.127-0.248-0.16c-0.167-0.053-0.352-0.083-0.548-0.083v1.034c0.168-0.002,0.311-0.024,0.438-0.061
							c0.122-0.035,0.216-0.082,0.277-0.139C271.478,72.541,271.534,72.432,271.534,72.325z"/>
						
							<path fill="#5A595B" stroke="#5A595B" stroke-width="0.1001" stroke-linecap="round" stroke-linejoin="round" stroke-miterlimit="10" d="
							M272.078,71.39l-0.003,0.827c0,0.174,0.04,0.326,0.123,0.458c0.09,0.13,0.192,0.194,0.319,0.194
							c0.124,0,0.263-0.086,0.418-0.26v-1.22h0.114v1.563h-0.114v-0.189c-0.133,0.146-0.284,0.219-0.442,0.219
							c-0.108,0-0.214-0.049-0.331-0.145c-0.057-0.057-0.109-0.137-0.145-0.243c-0.041-0.106-0.061-0.233-0.061-0.376l0.003-0.829
							H272.078z"/>
						
							<path fill="#5A595B" stroke="#5A595B" stroke-width="0.1001" stroke-linecap="round" stroke-linejoin="round" stroke-miterlimit="10" d="
							M274,72.793c0.129-0.033,0.216-0.077,0.266-0.126c0.05-0.052,0.072-0.124,0.072-0.213c0-0.091-0.032-0.156-0.099-0.208
							c-0.069-0.051-0.147-0.082-0.243-0.094c-0.096-0.018-0.189-0.033-0.286-0.053c-0.093-0.016-0.175-0.055-0.241-0.117
							c-0.068-0.06-0.1-0.145-0.1-0.262c0-0.242,0.185-0.361,0.562-0.361c0.138,0,0.3,0.014,0.479,0.044v0.12
							c-0.188-0.033-0.342-0.049-0.47-0.049c-0.129,0-0.236,0.019-0.323,0.054c-0.092,0.037-0.135,0.097-0.135,0.187
							c0,0.087,0.033,0.154,0.1,0.2c0.069,0.046,0.147,0.077,0.243,0.095c0.094,0.02,0.189,0.039,0.285,0.062
							c0.096,0.022,0.179,0.067,0.245,0.136c0.065,0.066,0.1,0.163,0.1,0.284c0,0.154-0.06,0.264-0.177,0.329
							c-0.061,0.034-0.116,0.06-0.17,0.083c-0.055,0.016-0.125,0.029-0.216,0.038c-0.138,0.011-0.273,0.017-0.404,0.017h-0.081
							v-0.113C273.678,72.846,273.875,72.826,274,72.793z"/>
						
							<path fill="#5A595B" stroke="#5A595B" stroke-width="0.1001" stroke-linecap="round" stroke-linejoin="round" stroke-miterlimit="10" d="
							M275.291,72.793c0.13-0.033,0.219-0.077,0.268-0.126c0.046-0.052,0.072-0.124,0.072-0.213c0-0.091-0.036-0.156-0.102-0.208
							c-0.064-0.051-0.146-0.082-0.24-0.094c-0.098-0.018-0.191-0.033-0.285-0.053c-0.095-0.016-0.178-0.055-0.243-0.117
							c-0.067-0.06-0.103-0.145-0.103-0.262c0-0.242,0.193-0.361,0.563-0.361c0.142,0,0.299,0.014,0.478,0.044v0.12
							c-0.185-0.033-0.343-0.049-0.468-0.049c-0.131,0-0.238,0.019-0.326,0.054c-0.091,0.037-0.131,0.097-0.131,0.187
							c0,0.087,0.032,0.154,0.097,0.2c0.068,0.046,0.147,0.077,0.243,0.095c0.093,0.02,0.19,0.039,0.289,0.062
							c0.092,0.022,0.176,0.067,0.241,0.136c0.065,0.066,0.102,0.163,0.102,0.284c0,0.154-0.057,0.264-0.18,0.329
							c-0.055,0.034-0.114,0.06-0.167,0.083c-0.059,0.016-0.125,0.029-0.219,0.038c-0.141,0.011-0.275,0.017-0.406,0.017h-0.079
							v-0.113C274.969,72.846,275.165,72.826,275.291,72.793z"/>
						
							<path fill="#5A595B" stroke="#5A595B" stroke-width="0.1001" stroke-linecap="round" stroke-linejoin="round" stroke-miterlimit="10" d="
							M277.134,72.953h-0.118v-2.012l-0.47,0.211v-0.116l0.588-0.271V72.953z"/>
					</g>
					<rect x="267.624" y="64.194" fill="#37A962" width="12.409" height="3.054"/>
					<rect x="267.624" y="77.721" fill="#37A962" width="12.409" height="1.859"/>
					<polygon fill="#319859" points="270.089,67.248 267.624,67.248 267.624,64.194 267.624,64.194 					"/>
					<polygon fill="#319859" points="280.033,79.58 267.624,79.58 267.624,77.721 278.537,77.721 					"/>
				</g>
				<g>
					
						<rect x="715.227" y="79.58" fill="#ECECED" stroke="#ECECED" stroke-width="0.1205" stroke-miterlimit="10" width="1.67" height="38.593"/>
					
						<rect x="715.227" y="79.58" fill="#D9DADB" stroke="#D9DADB" stroke-width="0.1205" stroke-miterlimit="10" width="0.828" height="38.593"/>
					<rect x="709.856" y="64.194" fill="#37A962" width="12.404" height="3.054"/>
					<rect x="709.856" y="64.194" fill="#FFFFFF" width="12.404" height="15.386"/>
					<polygon fill="#F5F5F6" points="722.26,79.58 709.856,79.58 709.856,64.194 					"/>
					<g>
						
							<path fill="#5A595B" stroke="#5A595B" stroke-width="0.1001" stroke-linecap="round" stroke-linejoin="round" stroke-miterlimit="10" d="
							M712.762,72.963l-0.006-2.197c0.326,0.012,0.564,0.055,0.73,0.131c0.168,0.078,0.242,0.195,0.242,0.353
							c0,0.154-0.035,0.271-0.123,0.344c-0.092,0.075-0.201,0.122-0.32,0.139c0.164,0.015,0.305,0.07,0.42,0.171
							c0.117,0.102,0.168,0.25,0.168,0.439c0,0.195-0.09,0.344-0.281,0.454C713.401,72.904,713.124,72.959,712.762,72.963z
							 M713.622,71.249c0-0.12-0.072-0.212-0.203-0.272c-0.133-0.065-0.316-0.092-0.547-0.092v0.791
							C713.37,71.672,713.622,71.527,713.622,71.249z M713.76,72.325c0-0.108-0.031-0.2-0.086-0.271
							c-0.062-0.074-0.146-0.127-0.248-0.16c-0.17-0.053-0.359-0.083-0.555-0.083v1.034c0.168-0.002,0.314-0.024,0.439-0.061
							c0.125-0.035,0.215-0.082,0.279-0.139C713.706,72.541,713.76,72.432,713.76,72.325z"/>
						
							<path fill="#5A595B" stroke="#5A595B" stroke-width="0.1001" stroke-linecap="round" stroke-linejoin="round" stroke-miterlimit="10" d="
							M714.305,71.39l-0.002,0.827c0,0.174,0.037,0.326,0.123,0.458c0.088,0.13,0.189,0.194,0.318,0.194s0.27-0.086,0.42-0.26v-1.22
							h0.115v1.563h-0.115v-0.189c-0.133,0.146-0.283,0.219-0.445,0.219c-0.104,0-0.213-0.049-0.322-0.145
							c-0.064-0.057-0.117-0.137-0.154-0.243c-0.035-0.106-0.055-0.233-0.055-0.376V71.39H714.305z"/>
						
							<path fill="#5A595B" stroke="#5A595B" stroke-width="0.1001" stroke-linecap="round" stroke-linejoin="round" stroke-miterlimit="10" d="
							M716.225,72.793c0.129-0.033,0.221-0.077,0.268-0.126c0.049-0.052,0.076-0.124,0.076-0.213c0-0.091-0.035-0.156-0.102-0.208
							c-0.068-0.051-0.148-0.082-0.244-0.094c-0.098-0.018-0.188-0.033-0.283-0.053c-0.092-0.016-0.178-0.055-0.242-0.117
							c-0.068-0.06-0.098-0.145-0.098-0.262c0-0.242,0.186-0.361,0.561-0.361c0.139,0,0.297,0.014,0.479,0.044v0.12
							c-0.186-0.033-0.348-0.049-0.475-0.049s-0.232,0.019-0.322,0.054c-0.09,0.037-0.131,0.097-0.131,0.187
							c0,0.087,0.033,0.154,0.104,0.2c0.059,0.046,0.145,0.077,0.238,0.095c0.098,0.02,0.189,0.039,0.287,0.062
							c0.094,0.022,0.178,0.067,0.242,0.136c0.066,0.066,0.1,0.163,0.1,0.284c0,0.154-0.062,0.264-0.172,0.329
							c-0.061,0.034-0.119,0.06-0.176,0.083c-0.051,0.016-0.125,0.029-0.219,0.038c-0.139,0.011-0.273,0.017-0.402,0.017h-0.08
							v-0.113C715.907,72.846,716.102,72.826,716.225,72.793z"/>
						
							<path fill="#5A595B" stroke="#5A595B" stroke-width="0.1001" stroke-linecap="round" stroke-linejoin="round" stroke-miterlimit="10" d="
							M717.52,72.793c0.131-0.033,0.217-0.077,0.264-0.126c0.059-0.052,0.072-0.124,0.072-0.213c0-0.091-0.031-0.156-0.1-0.208
							c-0.061-0.051-0.141-0.082-0.242-0.094c-0.09-0.018-0.188-0.033-0.283-0.053c-0.094-0.016-0.176-0.055-0.238-0.117
							c-0.066-0.06-0.104-0.145-0.104-0.262c0-0.242,0.186-0.361,0.562-0.361c0.139,0,0.297,0.014,0.48,0.044v0.12
							c-0.189-0.033-0.35-0.049-0.469-0.049c-0.135,0-0.24,0.019-0.328,0.054c-0.092,0.037-0.131,0.097-0.131,0.187
							c0,0.087,0.031,0.154,0.098,0.2c0.062,0.046,0.148,0.077,0.242,0.095c0.096,0.02,0.188,0.039,0.287,0.062
							c0.094,0.022,0.178,0.067,0.242,0.136c0.066,0.066,0.1,0.163,0.1,0.284c0,0.154-0.057,0.264-0.18,0.329
							c-0.057,0.034-0.111,0.06-0.164,0.083c-0.057,0.016-0.131,0.029-0.217,0.038c-0.145,0.011-0.277,0.017-0.404,0.017h-0.08
							v-0.113C717.2,72.846,717.399,72.826,717.52,72.793z"/>
						
							<path fill="#5A595B" stroke="#5A595B" stroke-width="0.1001" stroke-linecap="round" stroke-linejoin="round" stroke-miterlimit="10" d="
							M719.364,72.953h-0.121v-2.012l-0.473,0.211v-0.116l0.594-0.271V72.953z"/>
					</g>
					<rect x="709.856" y="64.194" fill="#37A962" width="12.404" height="3.054"/>
					<rect x="709.856" y="77.721" fill="#37A962" width="12.404" height="1.859"/>
					<polygon fill="#319859" points="712.315,67.248 709.856,67.248 709.856,64.194 709.856,64.194 					"/>
					<polygon fill="#319859" points="722.26,79.58 709.856,79.58 709.856,77.721 720.772,77.721 					"/>
				</g>
			</g>
		</g>
	</g>
</g>
</svg>
