<?xml version="1.0" encoding="utf-8"?>
<!-- Generator: Adobe Illustrator 15.0.2, SVG Export Plug-In . SVG Version: 6.00 Build 0)  -->
<!DOCTYPE svg PUBLIC "-//W3C//DTD SVG 1.1//EN" "http://www.w3.org/Graphics/SVG/1.1/DTD/svg11.dtd">
<svg version="1.1" id="Lager_1" xmlns="http://www.w3.org/2000/svg" xmlns:xlink="http://www.w3.org/1999/xlink" x="0px" y="0px"
	 width="179.342px" height="179.345px" viewBox="0 0 179.342 179.345" enable-background="new 0 0 179.342 179.345"
	 xml:space="preserve">
<g>
	<g>
		<defs>
			<path id="SVGID_1_" d="M0,89.672C0,40.146,40.146,0,89.67,0c49.527,0,89.672,40.146,89.672,89.672
				c0,49.523-40.145,89.673-89.672,89.673C40.146,179.345,0,139.195,0,89.672z"/>
		</defs>
		<clipPath id="SVGID_2_">
			<use xlink:href="#SVGID_1_"  overflow="visible"/>
		</clipPath>
		<g clip-path="url(#SVGID_2_)">
			<g>
				<rect x="-615.438" y="-121.029" fill="#D4ECF9" width="819.66" height="272.583"/>
				
					<path fill="none" stroke="#813588" stroke-width="0.4579" stroke-linecap="round" stroke-linejoin="round" stroke-miterlimit="10" d="
					M-426.126-36.143"/>
				
					<path fill="#AFD8E5" stroke="#AFD8E5" stroke-width="0.008" stroke-linecap="round" stroke-linejoin="round" stroke-miterlimit="10" d="
					M145.465,73.771c-0.207,0-0.406,0.034-0.595,0.09c-0.057-0.912-0.736-1.652-1.616-1.812v-0.004
					c-0.13-0.037-0.354-0.031-0.354-0.031c-1.095,0-1.975,0.885-1.975,1.977c0,0.222,0.033,0.433,0.101,0.631
					c-1.082,0.006-1.967,0.891-1.967,1.975c0,1.091,0.889,1.979,1.978,1.979c0.367,0,0.711-0.101,1.005-0.271
					c0.064,0.086,0.131,0.171,0.21,0.248c0.015,0.019,0.03,0.034,0.06,0.054c0.072,0.075,0.15,0.141,0.244,0.202
					c0.018,0.01,0.029,0.016,0.04,0.025c0.084,0.057,0.166,0.102,0.259,0.139c0,0,0,0.004,0.004,0.007h-0.023v4.038h0.422h0.413
					v-3.867c0.898-0.001,1.653-0.605,1.894-1.428c1.044-0.047,1.878-0.914,1.878-1.972C147.44,74.656,146.562,73.771,145.465,73.771
					z"/>
				
					<path fill="#AFD8E5" stroke="#AFD8E5" stroke-width="0.008" stroke-linecap="round" stroke-linejoin="round" stroke-miterlimit="10" d="
					M97.524,65.9c-0.204,0-0.404,0.029-0.592,0.088c-0.058-0.912-0.739-1.652-1.619-1.811c0-0.002,0-0.005,0-0.005
					c-0.128-0.037-0.351-0.035-0.351-0.035c-1.093,0-1.979,0.888-1.979,1.983c0,0.216,0.036,0.431,0.104,0.629
					c-1.083,0.008-1.962,0.887-1.962,1.976c0,1.091,0.882,1.977,1.974,1.977c0.365,0,0.711-0.1,0.998-0.274
					c0.067,0.09,0.141,0.175,0.212,0.25c0.021,0.018,0.042,0.035,0.055,0.053c0.075,0.074,0.161,0.143,0.254,0.203
					c0.012,0.011,0.026,0.018,0.038,0.029c0.085,0.05,0.168,0.096,0.256,0.136c0.004,0,0.004,0.003,0.004,0.003h-0.02v4.041h0.417
					h0.413v-3.865c0.904-0.004,1.658-0.605,1.897-1.43c1.045-0.051,1.878-0.913,1.878-1.974C99.502,66.784,98.617,65.9,97.524,65.9z
					"/>
				
					<path fill="#AFD8E5" stroke="#AFD8E5" stroke-width="0.008" stroke-linecap="round" stroke-linejoin="round" stroke-miterlimit="10" d="
					M114.759,70.693c-0.204,0-0.404,0.029-0.592,0.088c-0.058-0.912-0.739-1.652-1.619-1.811c0-0.002,0-0.005,0-0.005
					c-0.128-0.037-0.351-0.035-0.351-0.035c-1.093,0-1.979,0.888-1.979,1.983c0,0.216,0.036,0.431,0.104,0.629
					c-1.083,0.008-1.962,0.887-1.962,1.976c0,1.091,0.882,1.977,1.974,1.977c0.365,0,0.711-0.1,0.998-0.274
					c0.067,0.09,0.141,0.175,0.212,0.25c0.021,0.018,0.042,0.035,0.055,0.053c0.075,0.074,0.161,0.143,0.254,0.203
					c0.012,0.011,0.026,0.018,0.038,0.029c0.085,0.05,0.168,0.096,0.256,0.136c0.004,0,0.004,0.003,0.004,0.003h-0.02v4.041h0.417
					h0.413V76.07c0.904-0.004,1.658-0.605,1.897-1.43c1.045-0.051,1.878-0.913,1.878-1.974
					C116.736,71.577,115.852,70.693,114.759,70.693z"/>
				
					<path fill="#AFD8E5" stroke="#AFD8E5" stroke-width="0.008" stroke-linecap="round" stroke-linejoin="round" stroke-miterlimit="10" d="
					M83.152,67.785c-0.212,0-0.407,0.033-0.594,0.09c-0.057-0.914-0.737-1.655-1.62-1.814v-0.004
					c-0.127-0.034-0.353-0.029-0.353-0.029c-1.091,0-1.975,0.885-1.975,1.977c0,0.22,0.04,0.432,0.1,0.631
					c-1.085,0.006-1.964,0.887-1.964,1.975c0,1.09,0.888,1.979,1.981,1.979c0.363,0,0.701-0.1,0.999-0.275
					c0.061,0.092,0.137,0.176,0.211,0.252c0.019,0.017,0.033,0.034,0.055,0.053c0.072,0.071,0.157,0.143,0.247,0.203
					c0.015,0.009,0.029,0.017,0.046,0.025c0.078,0.055,0.165,0.1,0.252,0.137l0.006,0.005h-0.021v4.04h0.417h0.415v-3.864
					c0.897-0.003,1.659-0.606,1.896-1.429c1.044-0.052,1.878-0.914,1.878-1.975C85.13,68.668,84.242,67.785,83.152,67.785z"/>
				
					<path fill="#AFD8E5" stroke="#AFD8E5" stroke-width="0.008" stroke-linecap="round" stroke-linejoin="round" stroke-miterlimit="10" d="
					M-30.527,62.702c-0.206,0-0.405,0.036-0.591,0.091c-0.062-0.91-0.742-1.652-1.621-1.814v-0.001
					c-0.129-0.037-0.353-0.032-0.353-0.032c-1.093,0-1.978,0.886-1.978,1.978c0,0.221,0.038,0.431,0.105,0.629
					c-1.087,0.01-1.967,0.89-1.967,1.977c0,1.09,0.887,1.976,1.977,1.976c0.365,0,0.711-0.099,1.002-0.272
					c0.061,0.091,0.135,0.174,0.213,0.252c0.014,0.018,0.035,0.034,0.051,0.053c0.078,0.073,0.159,0.142,0.248,0.201
					c0.016,0.009,0.029,0.018,0.045,0.029c0.082,0.051,0.166,0.096,0.256,0.137l0.004,0.002h-0.022v4.041h0.419h0.416V68.08
					c0.9-0.002,1.654-0.602,1.893-1.428c1.047-0.049,1.877-0.915,1.877-1.972C-28.554,63.588-29.437,62.702-30.527,62.702z"/>
				
					<path fill="#AFD8E5" stroke="#AFD8E5" stroke-width="0.008" stroke-linecap="round" stroke-linejoin="round" stroke-miterlimit="10" d="
					M-42.402,61.604c-0.204,0-0.405,0.034-0.589,0.092c-0.059-0.914-0.739-1.654-1.623-1.813c0-0.001,0-0.004,0-0.004
					c-0.125-0.036-0.351-0.029-0.351-0.029c-1.091,0-1.972,0.884-1.972,1.974c0,0.221,0.033,0.434,0.102,0.631
					c-1.086,0.008-1.967,0.891-1.967,1.976c0,1.094,0.884,1.978,1.975,1.978c0.369,0,0.708-0.1,1.001-0.273
					c0.063,0.09,0.136,0.174,0.216,0.251c0.018,0.019,0.033,0.034,0.051,0.052c0.08,0.074,0.157,0.143,0.249,0.204
					c0.012,0.011,0.028,0.019,0.044,0.027c0.08,0.052,0.166,0.099,0.254,0.14c0.002,0,0.002,0,0.01,0h-0.025v4.041h0.414h0.42
					v-3.865c0.898-0.004,1.653-0.603,1.893-1.428c1.043-0.051,1.879-0.916,1.879-1.975C-40.423,62.49-41.309,61.604-42.402,61.604z"
					/>
				
					<path fill="#AFD8E5" stroke="#AFD8E5" stroke-width="0.008" stroke-linecap="round" stroke-linejoin="round" stroke-miterlimit="10" d="
					M156.766,73.771c-0.206,0-0.4,0.034-0.591,0.09c-0.06-0.912-0.739-1.652-1.624-1.812v-0.004
					c-0.127-0.037-0.352-0.031-0.352-0.031c-1.092,0-1.974,0.885-1.974,1.977c0,0.222,0.034,0.433,0.105,0.631
					c-1.09,0.006-1.965,0.891-1.965,1.975c0,1.091,0.883,1.979,1.976,1.979c0.364,0,0.705-0.101,1.001-0.271
					c0.061,0.086,0.135,0.171,0.212,0.248c0.017,0.019,0.034,0.034,0.048,0.054c0.082,0.075,0.165,0.141,0.251,0.202
					c0.016,0.01,0.032,0.016,0.044,0.025c0.081,0.057,0.169,0.102,0.261,0.139c0,0,0,0.004,0.006,0.007h-0.028v4.038h0.415h0.426
					v-3.867c0.896-0.001,1.651-0.605,1.891-1.428c1.046-0.047,1.872-0.914,1.872-1.972
					C158.739,74.656,157.856,73.771,156.766,73.771z"/>
				
					<path fill="#AFD8E5" stroke="#AFD8E5" stroke-width="0.008" stroke-linecap="round" stroke-linejoin="round" stroke-miterlimit="10" d="
					M168.071,73.771c-0.209,0-0.41,0.034-0.597,0.09c-0.057-0.912-0.733-1.652-1.616-1.812v-0.004
					c-0.128-0.037-0.354-0.031-0.354-0.031c-1.089,0-1.976,0.885-1.976,1.977c0,0.222,0.038,0.433,0.104,0.631
					c-1.081,0.006-1.962,0.891-1.962,1.975c0,1.091,0.883,1.979,1.971,1.979c0.371,0,0.707-0.101,1.003-0.271
					c0.062,0.086,0.141,0.171,0.211,0.248c0.024,0.019,0.034,0.034,0.056,0.054c0.076,0.075,0.158,0.141,0.246,0.202
					c0.016,0.01,0.028,0.016,0.043,0.025c0.081,0.057,0.174,0.102,0.258,0.139c0,0,0,0.004,0.004,0.007h-0.022v4.038h0.42h0.413
					v-3.867c0.897-0.001,1.661-0.605,1.894-1.428c1.049-0.047,1.88-0.914,1.88-1.972C170.045,74.656,169.158,73.771,168.071,73.771z
					"/>
				
					<path fill="#796955" stroke="#796955" stroke-width="0.6282" stroke-linecap="round" stroke-linejoin="round" stroke-miterlimit="10" d="
					M-9.529,86.166"/>
				
					<path fill="#645747" stroke="#645747" stroke-width="0.6282" stroke-linecap="round" stroke-linejoin="round" stroke-miterlimit="10" d="
					M143.821,128.948H-275.01V84.486c27.681,1.743,59.104-3.937,59.104-3.937c37.03-12.342,71.041-2.625,82.945,0
					c11.9,2.619,38.849,2.679,38.849,2.679s3.662,0.137,8.117-0.945c13.252-2.551,26.844,12.255,41.801,12.255
					c13.65,0,23.414-16.543,42.481-13.05c0,0,5.554,0.999,10.383,0.795c0,0,6.772,0.204,10.894-1.59
					c2.375-1.031,7.783-3.173,13.51-3.173c0,0,4.65-0.378,12.793,3.228c5.372,1.916,12.313,1.535,12.313,1.535h2.909
					c11.91-0.557,19.251-6.515,33.074-6.515c13.491,0,13.252,5.39,33.48,7.498h84.396v34.78v10.901H143.821z"/>
				
					<path fill="#796955" stroke="#796955" stroke-width="0.3941" stroke-linecap="round" stroke-linejoin="round" stroke-miterlimit="10" d="
					M12.929,109.22c18.052-0.11,24.14-2.802,24.14-2.802c29.271-10.872,45.025-2.9,56.144-0.237c7.44,1.776,25.087,1.68,25.087,1.68
					c9.151-0.587,20.708-6.25,31.79-6.25c10.816,0,19.914,5.539,38.485,7.04h78.264v27.891H12.929h-8.82H-249.8V108.65h78.259
					c18.573-1.501,27.671-7.04,38.487-7.04c11.084,0,22.639,5.663,31.791,6.25c0,0,17.647,0.097,25.084-1.68
					c11.119-2.663,26.872-10.635,56.146,0.237c0,0,9.726,2.957,24.189,2.802C4.156,109.22,12.692,109.225,12.929,109.22z"/>
				<g>
					<g>
						<g>
							<path fill="#44A260" d="M-31.683,103.232v-4.525c-0.084-1.35-0.1-1.408-2.253-1.776c-5.505-0.939-4.698-8.411-4.698-8.411
								s5.452-0.015,7.123,3.5c0,0,0.72,1.723,0.72,5.511v5.702H-31.683z"/>
						</g>
					</g>
					<g>
						<g>
							<path fill="#53B06E" d="M-29.088,103.232v-1.667c0.085-1.353,0.099-1.406,2.25-1.777c5.505-0.939,4.702-8.411,4.702-8.411
								s-5.453-0.018-7.126,3.5c0,0-0.722,1.724-0.722,5.511v2.845H-29.088z"/>
						</g>
					</g>
				</g>
				<g>
					<g>
						<g>
							<path fill="#44A260" d="M70.044,101.895v-4.531c-0.082-1.338-0.1-1.4-2.254-1.773c-5.503-0.94-4.698-8.409-4.698-8.409
								s5.452-0.011,7.124,3.506c0,0,0.722,1.72,0.722,5.505v5.703H70.044z"/>
						</g>
					</g>
					<g>
						<g>
							<path fill="#53B06E" d="M72.639,101.895v-1.671c0.085-1.347,0.099-1.402,2.251-1.773c5.506-0.941,4.703-8.414,4.703-8.414
								s-5.451-0.014-7.127,3.504c0,0-0.72,1.722-0.72,5.508v2.847H72.639z"/>
						</g>
					</g>
				</g>
				<g>
					<g>
						<g>
							<path fill="#44A260" d="M131.649,105.398v-2.392c-0.04-0.704-0.052-0.74-1.188-0.932c-2.9-0.497-2.478-4.438-2.478-4.438
								s2.881-0.005,3.76,1.847c0,0,0.379,0.915,0.379,2.903v3.012H131.649z"/>
						</g>
					</g>
					<g>
						<g>
							<path fill="#53B06E" d="M133.023,105.398v-0.885c0.036-0.71,0.047-0.736,1.186-0.932c2.899-0.498,2.476-4.437,2.476-4.437
								s-2.879-0.008-3.752,1.845c0,0-0.384,0.907-0.384,2.906v1.502H133.023z"/>
						</g>
					</g>
				</g>
				<g>
					<g>
						<g>
							<path fill="#44A260" d="M193.303,108.455v-2.388c-0.04-0.71-0.051-0.742-1.185-0.936c-2.905-0.495-2.482-4.435-2.482-4.435
								s2.878-0.01,3.761,1.844c0,0,0.38,0.907,0.38,2.908v3.006H193.303z"/>
						</g>
					</g>
					<g>
						<g>
							<path fill="#53B06E" d="M194.676,108.455v-0.884c0.042-0.71,0.048-0.742,1.184-0.929c2.906-0.499,2.48-4.441,2.48-4.441
								s-2.871-0.007-3.763,1.845c0,0-0.374,0.909-0.374,2.904v1.505H194.676z"/>
						</g>
					</g>
				</g>
				<g>
					<g>
						<g>
							<path fill="#44A260" d="M118.197,107.987v-4.532c0.082-1.345,0.098-1.403,2.253-1.771c5.501-0.941,4.694-8.414,4.694-8.414
								s-5.452-0.014-7.124,3.504c0,0-0.724,1.721-0.724,5.512v5.702H118.197z"/>
						</g>
					</g>
					<g>
						<g>
							<path fill="#53B06E" d="M115.6,107.987v-1.674c-0.085-1.348-0.097-1.399-2.25-1.771c-5.51-0.949-4.702-8.415-4.702-8.415
								s5.45-0.012,7.123,3.502c0,0,0.72,1.725,0.72,5.511v2.848H115.6z"/>
						</g>
					</g>
				</g>
				<g>
					<g>
						<g>
							<path fill="#44A260" d="M-15.661,107.016v-1.965c0.033-0.586,0.043-0.609,0.979-0.771c2.389-0.408,2.039-3.651,2.039-3.651
								s-2.368-0.003-3.093,1.52c0,0-0.316,0.751-0.316,2.394v2.475H-15.661z"/>
						</g>
					</g>
					<g>
						<g>
							<path fill="#53B06E" d="M-16.788,107.016v-0.728c-0.037-0.58-0.042-0.608-0.979-0.769c-2.39-0.406-2.039-3.651-2.039-3.651
								s2.364-0.008,3.094,1.519c0,0,0.312,0.746,0.312,2.393v1.236H-16.788z"/>
						</g>
					</g>
				</g>
				<g>
					<g>
						<g>
							<path fill="#4C4236" d="M-39.31,82.988v-2.165c0.039-0.649,0.045-0.675,1.076-0.854c2.639-0.445,2.25-4.027,2.25-4.027
								s-2.607-0.002-3.408,1.678c0,0-0.348,0.828-0.348,2.641v2.729H-39.31z"/>
						</g>
					</g>
					<g>
						<g>
							<path fill="#4C4236" d="M-40.552,82.988v-0.8c-0.045-0.646-0.053-0.674-1.08-0.85c-2.633-0.452-2.25-4.025-2.25-4.025
								s2.607-0.009,3.407,1.673c0,0,0.349,0.826,0.349,2.64v1.362H-40.552z"/>
						</g>
					</g>
				</g>
				<g>
					<g>
						<g>
							<path fill="#4C4236" d="M98.014,100.826v-2.163c0.043-0.647,0.049-0.676,1.077-0.854c2.642-0.445,2.253-4.024,2.253-4.024
								s-2.61-0.01-3.408,1.676c0,0-0.348,0.826-0.348,2.638v2.729H98.014z"/>
						</g>
					</g>
					<g>
						<g>
							<path fill="#4C4236" d="M96.773,100.826v-0.797c-0.04-0.648-0.048-0.676-1.08-0.852c-2.633-0.449-2.249-4.025-2.249-4.025
								s2.61-0.009,3.412,1.676c0,0,0.347,0.822,0.347,2.637v1.361H96.773z"/>
						</g>
					</g>
				</g>
				<g>
					<g>
						<g>
							<path fill="#4C4236" d="M86.754,90.701v-2.17c-0.039-0.641-0.043-0.672-1.076-0.848c-2.633-0.45-2.253-4.023-2.253-4.023
								s2.608-0.011,3.414,1.675c0,0,0.346,0.821,0.346,2.636v2.73H86.754z"/>
						</g>
					</g>
					<g>
						<g>
							<path fill="#4C4236" d="M88,90.701V89.9c0.036-0.645,0.044-0.672,1.075-0.846c2.634-0.451,2.249-4.027,2.249-4.027
								s-2.608-0.009-3.409,1.669c0,0-0.347,0.829-0.347,2.644v1.361H88z"/>
						</g>
					</g>
				</g>
				<g>
					<g>
						<g>
							<path fill="#4C4236" d="M158.906,93.469v-2.167c-0.035-0.642-0.042-0.671-1.076-0.845c-2.634-0.454-2.249-4.032-2.249-4.032
								s2.608-0.003,3.41,1.675c0,0,0.351,0.827,0.351,2.642v2.728H158.906z"/>
						</g>
					</g>
					<g>
						<g>
							<path fill="#4C4236" d="M160.152,93.469v-0.797c0.04-0.646,0.049-0.675,1.077-0.85c2.637-0.452,2.249-4.029,2.249-4.029
								s-2.606-0.008-3.407,1.678c0,0-0.343,0.826-0.343,2.636v1.362H160.152z"/>
						</g>
					</g>
				</g>
				<g>
					<g>
						<g>
							<path fill="#44A260" d="M-47.212,100.93v-1.965c0.031-0.584,0.041-0.612,0.975-0.77c2.391-0.409,2.043-3.657,2.043-3.657
								s-2.369-0.003-3.096,1.521c0,0-0.313,0.747-0.313,2.393v2.478H-47.212z"/>
						</g>
					</g>
					<g>
						<g>
							<path fill="#53B06E" d="M-48.341,100.93v-0.727c-0.037-0.585-0.043-0.609-0.978-0.767c-2.392-0.409-2.044-3.655-2.044-3.655
								s2.37-0.006,3.092,1.518c0,0,0.316,0.749,0.316,2.394v1.237H-48.341z"/>
						</g>
					</g>
				</g>
				
					<rect x="-615.438" y="142.729" fill="#51B07C" stroke="#51B07C" stroke-width="0.4501" stroke-linecap="round" stroke-linejoin="round" stroke-miterlimit="10" width="819.66" height="99.091"/>
				<g id="Träd_19_">
					<rect x="153.278" y="95.774" fill="#AF8048" width="4.568" height="22.102"/>
					<rect x="155.563" y="95.774" fill="#905F36" width="2.283" height="22.102"/>
					
						<path fill="#53B070" stroke="#53B070" stroke-width="0.0437" stroke-linecap="round" stroke-linejoin="round" stroke-miterlimit="10" d="
						M132.636,78.105c0-5.972,4.841-10.809,10.814-10.809c1.13,0,2.223,0.17,3.243,0.492c0.365-5.643,5.055-10.112,10.792-10.112
						c5.974,0,10.813,4.842,10.813,10.813c0,1.209-0.202,2.369-0.564,3.455c5.942,0.035,10.752,4.864,10.752,10.811
						c0,5.978-4.838,10.819-10.812,10.819c-2.001,0-3.878-0.545-5.484-1.491c-1.955,2.809-5.202,4.646-8.883,4.646
						c-4.936,0-9.091-3.304-10.391-7.821C137.191,88.627,132.636,83.9,132.636,78.105z"/>
					
						<path fill="#44A260" stroke="#44A260" stroke-width="0.0437" stroke-linecap="round" stroke-linejoin="round" stroke-miterlimit="10" d="
						M157.485,57.677c5.974,0,10.813,4.842,10.813,10.813c0,1.209-0.202,2.369-0.564,3.455c5.942,0.035,10.752,4.864,10.752,10.811
						c0,5.978-4.838,10.819-10.812,10.819c-2.001,0-3.878-0.545-5.484-1.491c-1.543,2.215-3.896,3.832-6.624,4.412
						c0,0,0-38.417,0-38.647C156.257,57.646,157.485,57.677,157.485,57.677z"/>
				</g>
				<g id="Väg_2_">
					
						<line fill="none" stroke="#3E3D3F" stroke-width="33.2913" stroke-linejoin="round" stroke-miterlimit="10" x1="-615.438" y1="134.841" x2="204.222" y2="134.841"/>
					
						<line fill="none" stroke="#FFFFFF" stroke-width="2.3119" stroke-linejoin="round" stroke-miterlimit="10" stroke-dasharray="11.0971" x1="-615.438" y1="132.274" x2="204.222" y2="132.274"/>
				</g>
			</g>
		</g>
	</g>
	<g>
		<ellipse fill="#F7CCDE" cx="28.337" cy="81.123" rx="6.177" ry="4.64"/>
		<polyline fill="#ECECED" points="24.938,81.496 17.57,86.872 17.551,95.396 18.402,97.53 14.432,97.53 14.629,83.845 
			20.224,75.271 28.337,67.256 		"/>
		<polyline fill="#ECECED" points="48.268,80.369 45.653,95.151 46.232,97.47 42.676,97.47 42.428,95.151 44.296,81.496 		"/>
		<path fill="#FFFFFF" d="M49.583,81.951c-15.521,6.456-23.073-2.818-23.073-2.818l-2.445,7.493l3.589,8.781l1.422,2.062h-4.138
			l-9.079-20.401V65.662c0-2.193,1.778-3.97,3.972-3.97l0,0h0.062h38.343l3.104,10.214c0,0-4.393,7.844-7.867,9.137l-2.522,14.108
			l0.579,2.318h-3.557l-0.249-2.318L49.583,81.951z"/>
		<path fill="#3E3D3F" d="M50.915,70.576c-0.248-2.234-2.316-1.406-4.633-3.32s-0.272-5.563-0.272-5.563H19.83h0.062h38.343
			l3.104,10.214c0,0-1.434,2.891-3.521,5.268C57.816,77.174,50.088,78.443,50.915,70.576z"/>
		<path fill="#3E3D3F" d="M56.64,56.222c0.47,1.784,2.86,3.061,6.391,3.061c3.528,0,5.919-1.379,6.39-3.061
			C69.42,56.222,63.03,59.283,56.64,56.222z"/>
		<path fill="#3E3D3F" d="M53.779,58.58h7.614h0.278h2.201h0.278h7.614c0,1.263-1.276,2.807-4.309,2.854l-0.824,9.431
			c0,1.828-1.481,2.332-3.31,2.332h-1.103c-1.827,0-3.309-0.504-3.309-2.332l-0.824-9.431C55.056,61.386,53.779,59.842,53.779,58.58
			z"/>
		<path fill="#FFFFFF" d="M61.725,68.359v-0.012l0.006-2.92l-0.906-1.473c0,0-1.214-2.032,0.397-3.495
			c0.726-0.579,1.55-0.548,1.55-0.548s0.826-0.031,1.552,0.548c1.61,1.463,0.396,3.495,0.396,3.495l-0.905,1.473l0.006,2.93v0.002
			c2.027,0.764,2.812,2.506,2.812,2.506c0,1.828-1.481,2.332-3.31,2.332h-0.552h-0.551c-1.827,0-3.309-0.504-3.309-2.332
			C58.912,70.865,59.697,69.123,61.725,68.359z"/>
		<path fill="#3E3D3F" d="M25.709,61.692c0,3.367,4.18,6.097,9.335,6.097c5.156,0,9.336-2.729,9.336-6.097H25.709z"/>
		<path fill="#3E3D3F" d="M22.834,61.692h-4.172H18.6l0,0c-2.192,0-3.925,1.841-3.925,4.034v10.637c0,0,4.632,3.787,7.036,1.451
			c2.813-2.73,1.114-5.887-1.557-7.738c0,0-1.41-1.266,0-2.562C21.428,66.345,24.479,65.888,22.834,61.692z"/>
		<path fill="#FFFFFF" d="M19.892,61.692"/>
		<polygon fill="#3E3D3F" points="24.938,97.47 29.075,97.47 27.653,95.407 24.021,95.407 		"/>
		<polygon fill="#3E3D3F" points="47.722,95.151 47.971,97.47 51.527,97.47 50.948,95.151 		"/>
		<polygon fill="#3E3D3F" points="42.428,95.151 42.676,97.47 46.232,97.47 45.653,95.151 		"/>
		<polygon fill="#3E3D3F" points="14.432,97.53 18.402,97.53 17.551,95.396 14.432,95.396 		"/>
		<path fill="#3E3D3F" d="M13.472,85.433c0,0-0.04-1.156,1.009-1.564c0.068-0.023,0.132-0.035,0.194-0.043V66.811h1.139v16.566
			l-0.008,1.655c-0.062,0.777-0.727,1.225-0.727,1.225l-1.634,1.207L13.472,85.433z"/>
		<path fill="#3E3D3F" d="M39.404,79.582c4.178,2.533,7.011,0.004,6.818-2.33c-0.171-2.055-1.611-4.042-4.156-4.525
			c-2.201-0.42-2.486,1.226-4.614,1.51c-2.128,0.281-1.647-2.957-4.001-3.49c-2.254-0.508-4.208,1.133-4.607,3.972
			c0,0-1.367,5.579,4.397,4.212C36.384,78.188,39.404,79.582,39.404,79.582z"/>
	</g>
</g>
</svg>
