<?xml version="1.0" encoding="utf-8"?>
<!-- Generator: Adobe Illustrator 15.0.2, SVG Export Plug-In . SVG Version: 6.00 Build 0)  -->
<!DOCTYPE svg PUBLIC "-//W3C//DTD SVG 1.1//EN" "http://www.w3.org/Graphics/SVG/1.1/DTD/svg11.dtd">
<svg version="1.1" id="Lager_1" xmlns="http://www.w3.org/2000/svg" xmlns:xlink="http://www.w3.org/1999/xlink" x="0px" y="0px"
	 width="179.342px" height="179.345px" viewBox="0 0 179.342 179.345" enable-background="new 0 0 179.342 179.345"
	 xml:space="preserve">
<g>
	<g>
		<defs>
			<path id="SVGID_1_" d="M0,89.672C0,40.146,40.146,0,89.67,0c49.527,0,89.672,40.146,89.672,89.672
				c0,49.523-40.145,89.673-89.672,89.673C40.146,179.345,0,139.195,0,89.672z"/>
		</defs>
		<clipPath id="SVGID_2_">
			<use xlink:href="#SVGID_1_"  overflow="visible"/>
		</clipPath>
		<g clip-path="url(#SVGID_2_)">
			<g>
				<rect x="-375.304" y="-120.775" fill="#D4ECF9" width="819.661" height="272.583"/>
				
					<path fill="none" stroke="#813588" stroke-width="0.4579" stroke-linecap="round" stroke-linejoin="round" stroke-miterlimit="10" d="
					M-185.992-35.889"/>
				
					<path fill="#796955" stroke="#796955" stroke-width="0.6282" stroke-linecap="round" stroke-linejoin="round" stroke-miterlimit="10" d="
					M230.605,86.42"/>
				
					<rect x="-375.304" y="142.982" fill="#51B07C" stroke="#51B07C" stroke-width="0.4501" stroke-linecap="round" stroke-linejoin="round" stroke-miterlimit="10" width="819.661" height="99.091"/>
				<g>
					<rect x="50.344" y="45.297" fill="#F5F5F6" width="56.582" height="72.997"/>
					<rect x="50.282" y="39.269" fill="#D3D3D3" width="1.312" height="6.256"/>
					<rect x="64.115" y="39.269" fill="#D3D3D3" width="1.31" height="6.256"/>
					<g>
						<rect x="77.977" y="39.269" fill="#D3D3D3" width="0.658" height="6.256"/>
						<rect x="78.635" y="39.269" fill="#F5F5F6" width="0.657" height="6.256"/>
					</g>
					<rect x="78.635" y="39.034" fill="#F5F5F6" width="28.291" height="1.313"/>
					<rect x="50.282" y="39.034" fill="#D3D3D3" width="28.353" height="1.313"/>
					<rect x="91.777" y="39.269" fill="#F5F5F6" width="1.314" height="6.256"/>
					<rect x="105.614" y="39.269" fill="#F5F5F6" width="1.312" height="6.256"/>
					<rect x="50.344" y="45.297" fill="#D3D3D3" width="28.291" height="72.997"/>
				</g>
				<g>
					<path fill="#717173" stroke="#717173" stroke-width="0.2774" stroke-miterlimit="10" d="M55.908,71.082
						C51.961,60.357,40.85,52.629,27.761,52.629c-13.093,0-24.208,7.729-28.155,18.453H55.908z"/>
					<path fill="#58585B" stroke="#58585B" stroke-width="0.2774" stroke-linecap="round" stroke-miterlimit="10" d="M27.742,71.082
						H-0.395c3.947-10.725,15.062-18.453,28.155-18.453L27.742,71.082z"/>
					<rect x="-0.535" y="71.111" fill="#F5F5F6" width="56.582" height="47.183"/>
					<rect x="-0.535" y="71.111" fill="#D3D3D3" width="28.296" height="47.183"/>
				</g>
				<g>
					<rect x="104.363" y="84.926" fill="#F5F5F6" width="84.267" height="33.282"/>
					<rect x="104.363" y="84.926" fill="#D3D3D3" width="42.135" height="33.282"/>
					<g>
						<path fill="#67A29F" stroke="#67A29F" stroke-width="0.482" stroke-linejoin="round" stroke-miterlimit="10" d="
							M104.54,84.695c-0.024-0.131,0.042-0.268,0.165-0.314l41.661-18.289c0.073-0.033,0.153-0.033,0.228,0l41.661,18.289
							c0.124,0.047,0.19,0.184,0.163,0.314H104.54z"/>
					</g>
					<g>
						<g>
							<path fill="#498E84" d="M146.48,84.695h-41.94c-0.024-0.131,0.042-0.268,0.165-0.314l41.661-18.289"/>
							<path fill="#498E84" d="M146.48,84.935h-41.94c-0.112,0-0.212-0.076-0.233-0.192c-0.053-0.234,0.078-0.481,0.301-0.583
								l41.666-18.292c0.012-0.003,0.025-0.012,0.046-0.015l0.161-0.023V84.935z M105.135,84.453h41.105V66.408L105.135,84.453z"/>
						</g>
					</g>
				</g>
				<g id="Väg_3_">
					
						<line fill="none" stroke="#3E3D3F" stroke-width="33.2913" stroke-linejoin="round" stroke-miterlimit="10" x1="-375.304" y1="135.095" x2="444.357" y2="135.095"/>
					
						<line fill="none" stroke="#FFFFFF" stroke-width="2.3119" stroke-linejoin="round" stroke-miterlimit="10" stroke-dasharray="11.0971" x1="-375.304" y1="132.528" x2="444.357" y2="132.528"/>
				</g>
				
					<path fill="#FFFFFF" stroke="#FFFFFF" stroke-width="0.6411" stroke-linecap="round" stroke-linejoin="round" stroke-miterlimit="10" d="
					M153.842,44.216c-0.652,0-1.279,0.127-1.851,0.35c-0.325-3.587-3.349-6.409-7.024-6.409c-1.209,0-2.338,0.305-3.335,0.838
					c-1.21-3.443-4.497-5.919-8.347-5.919c-4.881,0-8.852,3.97-8.852,8.853c0,0.387,0.027,0.768,0.08,1.143
					c-0.742-0.336-1.568-0.527-2.438-0.527c-3.25,0-5.893,2.645-5.893,5.894c0,1.577,0.613,3.058,1.729,4.171
					c0.223,0.223,0.526,0.351,0.85,0.351l38.186,0.002l0,0c0.373,0,0.722-0.171,0.946-0.465c0.708-0.907,1.079-1.997,1.079-3.147
					C158.973,46.519,156.672,44.216,153.842,44.216z"/>
				
					<path opacity="0.42" fill="#FFFFFF" stroke="#FFFFFF" stroke-width="0.7994" stroke-linecap="round" stroke-linejoin="round" stroke-miterlimit="10" d="
					M115.355,15.396c-0.651,0-1.273,0.124-1.853,0.348c-0.327-3.59-3.349-6.412-7.021-6.412c-1.205,0-2.342,0.305-3.332,0.841
					c-1.213-3.443-4.5-5.919-8.352-5.919c-4.879,0-8.85,3.971-8.85,8.849c0,0.39,0.029,0.772,0.076,1.146
					c-0.74-0.336-1.564-0.526-2.432-0.526c-3.252,0-5.896,2.645-5.896,5.895c0,1.575,0.616,3.056,1.728,4.169
					c0.223,0.224,0.527,0.353,0.848,0.353h38.188c0,0,0,0,0.001,0c0.37,0,0.72-0.172,0.948-0.465
					c0.702-0.906,1.075-1.995,1.075-3.146C120.485,17.697,118.188,15.396,115.355,15.396z"/>
			</g>
		</g>
	</g>
</g>
</svg>
