<?xml version="1.0" encoding="utf-8"?>
<!-- Generator: Adobe Illustrator 15.0.2, SVG Export Plug-In . SVG Version: 6.00 Build 0)  -->
<!DOCTYPE svg PUBLIC "-//W3C//DTD SVG 1.1//EN" "http://www.w3.org/Graphics/SVG/1.1/DTD/svg11.dtd">
<svg version="1.1" id="Äppelskrutt" xmlns="http://www.w3.org/2000/svg" xmlns:xlink="http://www.w3.org/1999/xlink" x="0px"
	 y="0px" width="40.219px" height="37.471px" viewBox="0 0 40.219 37.471" enable-background="new 0 0 40.219 37.471"
	 xml:space="preserve">
<g>
	<g>
		
			<path fill="#F6F6F6" stroke="#F6F6F6" stroke-width="0.1267" stroke-linecap="round" stroke-linejoin="round" stroke-miterlimit="10" d="
			M37.697,0.457c-0.024-0.012-0.05-0.025-0.077-0.035c-0.003-0.002-0.007-0.003-0.012-0.004c-0.043-0.017-0.087-0.032-0.133-0.043
			c-0.006-0.002-0.012-0.003-0.018-0.005c-0.041-0.01-0.082-0.019-0.125-0.024c-0.009-0.001-0.018-0.003-0.027-0.004
			c-0.047-0.005-0.096-0.009-0.145-0.009c-0.674,0-1.222,0.547-1.222,1.221v34.635c0,0.674,0.548,1.221,1.222,1.221
			c0.675,0,1.222-0.547,1.222-1.221V15.983c0-0.247,0.185-0.477,0.185-0.477c0.986-1.295,1.588-4.449,1.588-7.493
			C40.155,4.24,39.095,1.105,37.697,0.457z"/>
		
			<path fill="#F6F6F6" stroke="#F6F6F6" stroke-width="0.1267" stroke-linecap="round" stroke-linejoin="round" stroke-miterlimit="10" d="
			M4.636,0.063c-0.18,0-0.326,0.147-0.326,0.328v5.14H3.612v-5.14c0-0.181-0.146-0.328-0.327-0.328S2.957,0.21,2.957,0.391v5.14
			H2.134v-5.14c0-0.181-0.146-0.328-0.327-0.328c-0.182,0-0.327,0.147-0.327,0.328v5.14H0.718v-5.14
			c0-0.181-0.146-0.328-0.326-0.328c-0.182,0-0.328,0.147-0.328,0.328v5.14V5.63v3.624c0,0.871,0.455,1.634,1.141,2.068v24.644
			c0,0.724,0.586,1.31,1.309,1.31c0.725,0,1.311-0.586,1.311-1.31V11.322c0.686-0.435,1.141-1.197,1.141-2.068V5.63V5.531v-5.14
			C4.964,0.21,4.817,0.063,4.636,0.063z"/>
	</g>
	<g>
		
			<path fill="#EC7BAA" stroke="#EC7BAA" stroke-width="0.034" stroke-linecap="round" stroke-linejoin="round" stroke-miterlimit="10" d="
			M24.469,21.896c0-0.602-0.488-1.09-1.092-1.09l0,0c-0.602,0-1.089,0.488-1.089,1.09v7.061c0,1.014-0.823,1.836-1.835,1.836l0,0
			c-1.016,0-1.838-0.822-1.838-1.836v-7.061c0-0.602-0.488-1.09-1.089-1.09l0,0c-0.603,0-1.091,0.488-1.091,1.09h-0.004v7.061
			c0,1.014-0.822,1.836-1.837,1.836l0,0c-1.015,0-1.835-0.822-1.835-1.836v-7.061v-7.657c0-4.248,3.441-7.693,7.693-7.693l0,0
			c4.248,0,7.69,3.445,7.69,7.693v7.657v7.061c0,1.014-0.819,1.836-1.835,1.836l0,0c-1.015,0-1.838-0.822-1.838-1.836v-7.061"/>
		
			<path fill="#E6458F" stroke="#E6458F" stroke-width="0.034" stroke-linecap="round" stroke-linejoin="round" stroke-miterlimit="10" d="
			M20.453,6.546L20.453,6.546c-4.252,0-7.693,3.445-7.693,7.693v7.657v7.061c0,1.014,0.82,1.836,1.835,1.836l0,0
			c1.015,0,1.837-0.822,1.837-1.836v-7.061h0.004c0-0.602,0.488-1.09,1.091-1.09l0,0c0.601,0,1.089,0.488,1.089,1.09v7.061
			c0,1.014,0.822,1.836,1.838,1.836l0,0V6.546z"/>
		
			<circle fill="#E6458F" stroke="#E6458F" stroke-width="0.034" stroke-linecap="round" stroke-linejoin="round" stroke-miterlimit="10" cx="23.695" cy="9.556" r="1.182"/>
		
			<circle fill="#E6458F" stroke="#E6458F" stroke-width="0.034" stroke-linecap="round" stroke-linejoin="round" stroke-miterlimit="10" cx="25.284" cy="11.022" r="0.731"/>
		<path fill="none" stroke="#D1277D" stroke-width="0.3379" stroke-linecap="round" stroke-miterlimit="10" d="M23.544,16.908
			c0,0-2.825-1.803-6.185,0"/>
		<g>
			
				<line fill="none" stroke="#D1277D" stroke-width="0.3672" stroke-linecap="round" stroke-linejoin="round" stroke-miterlimit="10" x1="23.544" y1="14.288" x2="21.979" y2="12.72"/>
			
				<line fill="none" stroke="#D1277D" stroke-width="0.3672" stroke-linecap="round" stroke-linejoin="round" stroke-miterlimit="10" x1="21.979" y1="14.288" x2="23.544" y2="12.72"/>
		</g>
		<g>
			
				<line fill="none" stroke="#D1277D" stroke-width="0.3672" stroke-linecap="round" stroke-linejoin="round" stroke-miterlimit="10" x1="18.92" y1="14.288" x2="17.354" y2="12.72"/>
			
				<line fill="none" stroke="#D1277D" stroke-width="0.3672" stroke-linecap="round" stroke-linejoin="round" stroke-miterlimit="10" x1="17.354" y1="14.288" x2="18.92" y2="12.72"/>
		</g>
	</g>
</g>
</svg>
