<?xml version="1.0" encoding="utf-8"?>
<!-- Generator: Adobe Illustrator 15.0.2, SVG Export Plug-In . SVG Version: 6.00 Build 0)  -->
<!DOCTYPE svg PUBLIC "-//W3C//DTD SVG 1.1//EN" "http://www.w3.org/Graphics/SVG/1.1/DTD/svg11.dtd">
<svg version="1.1" id="Lager_1" xmlns="http://www.w3.org/2000/svg" xmlns:xlink="http://www.w3.org/1999/xlink" x="0px" y="0px"
	 width="200.374px" height="285.544px" viewBox="0 0 200.374 285.544" enable-background="new 0 0 200.374 285.544"
	 xml:space="preserve">
<g>
	
		<path fill="#905B9D" stroke="#905B9D" stroke-width="0.5298" stroke-linecap="round" stroke-linejoin="round" stroke-miterlimit="10" d="
		M148.001,180.703c0-7.073-5.737-12.811-12.814-12.811l0,0c-7.074,0-12.811,5.737-12.811,12.811v82.987
		c0,11.923-9.663,21.589-21.586,21.589l0,0c-11.922,0-21.588-9.666-21.588-21.589v-82.987c0-7.073-5.736-12.811-12.812-12.811l0,0
		c-7.077,0-12.813,5.737-12.813,12.811h-0.04v82.987c0,11.923-9.663,21.589-21.586,21.589l0,0c-11.923,0-21.589-9.666-21.589-21.589
		v-82.987V90.692c0-49.941,40.486-90.427,90.428-90.427l0,0c49.941,0,90.424,40.486,90.424,90.427v90.011v82.987
		c0,11.923-9.662,21.589-21.585,21.589l0,0c-11.923,0-21.589-9.666-21.589-21.589v-82.987"/>
	
		<path fill="#814893" stroke="#814893" stroke-width="0.5298" stroke-linecap="round" stroke-linejoin="round" stroke-miterlimit="10" d="
		M100.79,0.265L100.79,0.265c-49.942,0-90.428,40.486-90.428,90.427v90.011v82.987c0,11.923,9.666,21.589,21.589,21.589l0,0
		c11.923,0,21.586-9.666,21.586-21.589v-82.987h0.04c0-7.073,5.736-12.811,12.813-12.811l0,0c7.077,0,12.812,5.737,12.812,12.811
		v82.987c0,11.923,9.666,21.589,21.588,21.589l0,0V0.265z"/>
	
		<circle fill="#814893" stroke="#814893" stroke-width="0.5298" stroke-linecap="round" stroke-linejoin="round" stroke-miterlimit="10" cx="138.921" cy="35.633" r="13.904"/>
	
		<circle fill="#814893" stroke="#814893" stroke-width="0.328" stroke-linecap="round" stroke-linejoin="round" stroke-miterlimit="10" cx="157.598" cy="52.889" r="8.606"/>
	
		<path fill="none" stroke="#6D3C7C" stroke-width="6.1907" stroke-linecap="round" stroke-linejoin="round" stroke-miterlimit="10" d="
		M59.69,80.678c0-6.931,6.183-12.545,13.812-12.545c7.629,0,13.812,5.614,13.812,12.545"/>
	
		<path fill="none" stroke="#6D3C7C" stroke-width="6.1907" stroke-linecap="round" stroke-linejoin="round" stroke-miterlimit="10" d="
		M113.419,80.678c0-6.931,6.183-12.545,13.811-12.545c7.628,0,13.814,5.614,13.814,12.545"/>
	<path fill="none" stroke="#6D3C7C" stroke-width="3.9722" stroke-linecap="round" stroke-miterlimit="10" d="M64.434,112.665
		c0,0,33.211,21.188,72.712,0"/>
	<g>
		<path stroke="#000000" stroke-width="0.1015" stroke-linecap="round" stroke-linejoin="round" stroke-miterlimit="10" d="
			M199.163,45.687l-30.122-4.628c-5.057-1.154-11.079-2.022-17.773-2.022c-11.479,0-22.553,2.557-32.917,7.602
			c-0.278,0.134-0.525,0.291-0.789,0.436l0.009-0.033c0,0-5.731,3.566-17.384,3.461c-11.653,0.105-17.384-3.461-17.384-3.461
			l0.008,0.033c-0.263-0.145-0.511-0.301-0.789-0.436c-10.363-5.044-21.438-7.602-32.916-7.602c-6.693,0-12.716,0.868-17.772,2.022
			L1.212,45.687c-0.668,0.104-1.161,0.677-1.161,1.354V59.7c0,0.566,0.349,1.075,0.878,1.278l5.299,2.034
			c0.022,1.031,0.106,2.089,0.259,3.172l2.534,19.89c0.213,2.271,3.121,22.039,39.583,22.039c1.568,0,3.2-0.037,4.853-0.111
			l0.03,0.001h0c2.45,0,24.177-0.561,33.271-19.963c0.025-0.054,0.049-0.107,0.071-0.161c0.201-0.486,2.035-5.012,3.381-10.968
			l0.009,0.036c0,0,2.335-11.783,9.969-12.485c7.634,0.702,9.969,12.485,9.969,12.485l0.009-0.035
			c1.346,5.956,3.179,10.481,3.381,10.967c0.021,0.053,0.045,0.107,0.07,0.161c9.093,19.403,30.824,19.963,33.271,19.963l0.03-0.001
			c1.653,0.074,3.286,0.111,4.854,0.111c36.463,0,39.37-19.768,39.582-22.039l2.526-19.838c0.156-1.102,0.242-2.176,0.264-3.221
			l5.301-2.036c0.53-0.203,0.878-0.711,0.878-1.278v-12.66C200.323,46.364,199.83,45.791,199.163,45.687z M79.873,84.926
			c-7.266,15.344-25.605,15.521-26.424,15.521h-0.001c-0.081-0.002-0.159-0.001-0.238,0.004c-1.572,0.071-3.122,0.107-4.607,0.107
			c-30.318,0-32.001-14.547-32.055-15.107c-0.005-0.085-0.013-0.171-0.023-0.256l-2.55-20.016c-0.8-5.667,0.848-9.923,4.52-11.676
			c0.055-0.027,0.117-0.058,0.171-0.087c0.126-0.067,12.865-6.823,30.441-6.823c10.323,0,20.285,2.301,29.61,6.839
			C89.877,58.863,80.448,83.463,79.873,84.926z M186.392,65.23l-2.542,19.964c-0.011,0.085-0.019,0.17-0.024,0.256
			c-0.009,0.15-1.241,15.107-32.054,15.107c-1.484,0-3.034-0.036-4.606-0.107c-0.058-0.003-0.22-0.004-0.277-0.004
			c-0.778,0-19.123-0.176-26.387-15.521c-0.583-1.475-10.038-26.047,1.157-31.493c9.325-4.539,19.287-6.839,29.61-6.839
			c17.577,0,30.316,6.756,30.437,6.82c0.058,0.031,0.116,0.061,0.177,0.09C185.552,55.256,187.2,59.511,186.392,65.23z"/>
		<path opacity="0.78" d="M186.392,65.23l-2.542,19.964c-0.011,0.085-0.019,0.17-0.024,0.256
			c-0.009,0.15-1.241,15.107-32.054,15.107c-1.484,0-3.034-0.036-4.606-0.107c-0.058-0.003-0.22-0.004-0.277-0.004
			c-0.778,0-19.123-0.176-26.387-15.521c-0.583-1.475-10.038-26.047,1.157-31.493c9.325-4.539,19.287-6.839,29.61-6.839
			c17.577,0,30.316,6.756,30.437,6.82c0.058,0.031,0.116,0.061,0.177,0.09C185.552,55.256,187.2,59.511,186.392,65.23z"/>
		<path opacity="0.78" d="M79.873,84.926c-7.266,15.344-25.605,15.521-26.424,15.521h-0.001c-0.081-0.002-0.159-0.001-0.238,0.004
			c-1.572,0.071-3.122,0.107-4.607,0.107c-30.318,0-32.001-14.547-32.055-15.107c-0.005-0.085-0.013-0.171-0.023-0.256l-2.55-20.016
			c-0.8-5.667,0.848-9.923,4.52-11.676c0.055-0.027,0.117-0.058,0.171-0.087c0.126-0.067,12.865-6.823,30.441-6.823
			c10.323,0,20.285,2.301,29.61,6.839C89.877,58.863,80.448,83.463,79.873,84.926z"/>
		<path opacity="0.78" d="M181.881,53.503"/>
		<path opacity="0.78" d="M183.849,85.194"/>
	</g>
</g>
</svg>
