<?xml version="1.0" encoding="utf-8"?>
<!-- Generator: Adobe Illustrator 15.0.2, SVG Export Plug-In . SVG Version: 6.00 Build 0)  -->
<!DOCTYPE svg PUBLIC "-//W3C//DTD SVG 1.1//EN" "http://www.w3.org/Graphics/SVG/1.1/DTD/svg11.dtd">
<svg version="1.1" id="Äppelskrutt" xmlns="http://www.w3.org/2000/svg" xmlns:xlink="http://www.w3.org/1999/xlink" x="0px"
	 y="0px" width="39.073px" height="110.459px" viewBox="0 0 39.073 110.459" enable-background="new 0 0 39.073 110.459"
	 xml:space="preserve">
<g>
	<g>
		<g>
			
				<path fill="#F29400" stroke="#F29400" stroke-width="2.313" stroke-linecap="round" stroke-linejoin="round" stroke-miterlimit="10" d="
				M19.52,78.797h0.069h4.753c7.171,0,12.121-4.863,13.54-12.485H19.52V78.797z"/>
		</g>
		<g>
			<g>
				<path fill="#EF8400" d="M19.52,78.797h-0.068h-4.754c-7.171,0-12.122-4.863-13.541-12.485H19.52V78.797z"/>
			</g>
			<g>
				<path fill="#EF8400" d="M19.52,79.955h-4.822c-7.626,0-13.112-5.021-14.678-13.432c-0.063-0.338,0.027-0.686,0.247-0.949
					s0.546-0.418,0.89-0.418H19.52V79.955z"/>
			</g>
		</g>
		<g>
			
				<path fill="#008A2E" stroke="#008A2E" stroke-width="1.2435" stroke-linecap="round" stroke-linejoin="round" stroke-miterlimit="10" d="
				M13.602,89.96c0,0-12.367,3.869-12.693,12.15c-0.256,6.479,5.389,8.703,10.396,7.346c7.825-2.123,6.856-11.832,7.056-14.526
				c0,0,0.009-3.266,0.009-6.809c0,0.765,0-5.288,0-5.288h-2.279v6.584L13.602,89.96z"/>
		</g>
		<g>
			
				<path fill="#008A2E" stroke="#008A2E" stroke-width="1.2435" stroke-linecap="round" stroke-linejoin="round" stroke-miterlimit="10" d="
				M25.749,89.96c0,0,12.367,3.869,12.694,12.15c0.256,6.479-5.389,8.703-10.396,7.346c-7.825-2.123-6.856-11.832-7.056-14.526
				c0,0-0.01-3.266-0.01-6.809c0,0.765,0-5.288,0-5.288h2.279v6.584L25.749,89.96z"/>
		</g>
	</g>
	<g>
		
			<path fill="#905B9D" stroke="#905B9D" stroke-width="0.1117" stroke-linecap="round" stroke-linejoin="round" stroke-miterlimit="10" d="
			M29.18,38.103c0-1.49-1.209-2.699-2.701-2.699l0,0c-1.49,0-2.701,1.209-2.701,2.699v17.501c0,2.513-2.037,4.552-4.552,4.552l0,0
			c-2.516,0-4.553-2.039-4.553-4.552V38.103c0-1.49-1.209-2.699-2.702-2.699l0,0c-1.494,0-2.701,1.209-2.701,2.699H9.261v17.501
			c0,2.513-2.039,4.552-4.553,4.552l0,0c-2.514,0-4.55-2.039-4.55-4.552V38.103V19.127c0-10.533,8.538-19.072,19.067-19.072l0,0
			c10.53,0,19.068,8.539,19.068,19.072v18.975v17.501c0,2.513-2.04,4.552-4.553,4.552l0,0c-2.515,0-4.555-2.039-4.555-4.552V38.103"
			/>
		
			<path fill="#814893" stroke="#814893" stroke-width="0.1117" stroke-linecap="round" stroke-linejoin="round" stroke-miterlimit="10" d="
			M19.226,0.056L19.226,0.056c-10.529,0-19.067,8.539-19.067,19.072v18.975v17.501c0,2.513,2.036,4.552,4.55,4.552l0,0
			c2.514,0,4.553-2.039,4.553-4.552V38.103H9.27c0-1.49,1.207-2.699,2.701-2.699l0,0c1.493,0,2.702,1.209,2.702,2.699v17.501
			c0,2.513,2.037,4.552,4.553,4.552l0,0V0.056z"/>
		
			<circle fill="#814893" stroke="#814893" stroke-width="0.1117" stroke-linecap="round" stroke-linejoin="round" stroke-miterlimit="10" cx="27.266" cy="7.514" r="2.931"/>
		
			<path fill="#814893" stroke="#814893" stroke-width="0.0692" stroke-linecap="round" stroke-linejoin="round" stroke-miterlimit="10" d="
			M33.016,11.153c0,1.001-0.81,1.814-1.814,1.814c-0.997,0-1.812-0.813-1.812-1.814c0-1.004,0.814-1.815,1.812-1.815
			C32.206,9.338,33.016,10.149,33.016,11.153z"/>
		
			<path fill="none" stroke="#6D3C7C" stroke-width="1.3054" stroke-linecap="round" stroke-linejoin="round" stroke-miterlimit="10" d="
			M10.559,17.015c0-1.462,1.305-2.648,2.912-2.648c1.608,0,2.914,1.186,2.914,2.648"/>
		
			<path fill="none" stroke="#6D3C7C" stroke-width="1.3054" stroke-linecap="round" stroke-linejoin="round" stroke-miterlimit="10" d="
			M21.888,17.015c0-1.462,1.305-2.648,2.911-2.648c1.609,0,2.915,1.186,2.915,2.648"/>
		<path fill="none" stroke="#6D3C7C" stroke-width="0.8376" stroke-linecap="round" stroke-miterlimit="10" d="M11.561,23.759
			c0,0,7.003,4.466,15.332,0"/>
	</g>
</g>
</svg>
