<?xml version="1.0" encoding="utf-8"?>
<!-- Generator: Adobe Illustrator 17.0.0, SVG Export Plug-In . SVG Version: 6.00 Build 0)  -->
<!DOCTYPE svg PUBLIC "-//W3C//DTD SVG 1.1//EN" "http://www.w3.org/Graphics/SVG/1.1/DTD/svg11.dtd">
<svg version="1.1" id="Layer_1" xmlns="http://www.w3.org/2000/svg" xmlns:xlink="http://www.w3.org/1999/xlink" x="0px" y="0px"
	 width="76.83px" height="227.914px" viewBox="0 0 76.83 227.914" enable-background="new 0 0 76.83 227.914" xml:space="preserve">
<g>
	<g>
		
			<rect x="0.37" y="0.21" fill="#FFFFFF" stroke="#FFFFFF" stroke-width="0.4209" stroke-miterlimit="10" width="76.061" height="227.352"/>
		
			<rect x="0.37" y="0.21" fill="#F0F0F0" stroke="#F0F0F0" stroke-width="0.0955" stroke-miterlimit="10" width="76.061" height="11.702"/>
		
			<rect x="0.37" y="57.177" fill="#F8F8F8" stroke="#F8F8F8" stroke-width="0.3644" stroke-miterlimit="10" width="76.061" height="170.385"/>
		<g>
			<circle fill="#3F96D2" cx="38.919" cy="31.913" r="13.215"/>
			<path fill="#2D7FBD" d="M38.919,45.129c-7.299,0-13.215-5.917-13.215-13.216c0-7.298,5.917-13.215,13.215-13.215V45.129z"/>
		</g>
		<polygon fill="#F0F0F0" stroke="#F0F0F0" stroke-width="0.3644" stroke-miterlimit="10" points="76.432,227.562 0.37,227.562 
			0.37,57.177 		"/>
		<g>
			<circle fill="#53A5D9" cx="38.921" cy="31.913" r="9.458"/>
			<path fill="#3F96D2" d="M38.919,41.371c-5.224,0-9.456-4.234-9.456-9.458c0-5.223,4.232-9.458,9.456-9.458V41.371z"/>
		</g>
		<g>
			
				<path fill="#575756" stroke="#575756" stroke-width="0.202" stroke-linecap="round" stroke-linejoin="round" stroke-miterlimit="10" d="
				M21.141,90.083l0.047-14.476l-3.768,8.636h-0.765l-3.766-8.636v14.476H12.1V74.278h1.082l3.856,8.839l3.832-8.839h1.105v15.805
				H21.141z"/>
			
				<path fill="#575756" stroke="#575756" stroke-width="0.202" stroke-linecap="round" stroke-linejoin="round" stroke-miterlimit="10" d="
				M24.095,86.701h0.836c0.028,1.142,0.314,1.894,0.855,2.254c0.404,0.257,0.801,0.384,1.196,0.384c1.067,0,1.887-0.366,2.458-1.095
				c0.571-0.728,0.853-1.942,0.853-3.641V74.3h0.834v10.327c0,3.698-1.394,5.546-4.191,5.546c-0.575,0-1.158-0.195-1.758-0.585
				c-0.318-0.226-0.575-0.586-0.78-1.083C24.197,88.008,24.095,87.408,24.095,86.701z"/>
			
				<path fill="#575756" stroke="#575756" stroke-width="0.202" stroke-linecap="round" stroke-linejoin="round" stroke-miterlimit="10" d="
				M43.959,82.328c0,2.48-0.421,4.393-1.263,5.737c-0.842,1.346-2.06,2.018-3.653,2.018c-1.594,0-2.856-0.679-3.789-2.04
				c-0.932-1.361-1.398-3.292-1.398-5.795c0-2.504,0.459-4.472,1.379-5.907c0.913-1.436,2.191-2.154,3.83-2.154
				c0.977,0,1.808,0.252,2.492,0.755c0.684,0.504,1.191,1.185,1.522,2.041C43.666,78.562,43.959,80.343,43.959,82.328z
				 M43.125,81.943c0-2.089-0.353-3.756-1.06-5.005c-0.707-1.248-1.722-1.871-3.044-1.871c-1.323,0-2.375,0.62-3.157,1.86
				c-0.782,1.239-1.173,3.017-1.173,5.331c0,2.692,0.609,4.668,1.827,5.931c0.676,0.692,1.451,1.037,2.323,1.037
				s1.586-0.196,2.142-0.586c0.556-0.392,0.985-0.933,1.285-1.624C42.839,85.724,43.125,84.033,43.125,81.943z M36.54,71.369h0.857
				v1.488H36.54V71.369z M40.374,71.369h0.857v1.488h-0.857V71.369z"/>
			
				<path fill="#575756" stroke="#575756" stroke-width="0.202" stroke-linecap="round" stroke-linejoin="round" stroke-miterlimit="10" d="
				M54.648,90.083H46.8V74.3h0.834v14.949h7.013V90.083z"/>
			
				<path fill="#575756" stroke="#575756" stroke-width="0.202" stroke-linecap="round" stroke-linejoin="round" stroke-miterlimit="10" d="
				M64.679,90.083h-0.834v-1.533c0-4.66-1.142-6.991-3.428-6.991c-0.481,0-0.94,0.124-1.376,0.372
				c-0.436,0.248-0.74,0.466-0.909,0.654c-0.177,0.19-0.399,0.462-0.669,0.823v6.674h-0.834V74.3h0.834v7.78l6.089-7.801h1.15
				l-5.232,6.583c0.361-0.089,0.714-0.134,1.06-0.134c1.278,0,2.289,0.616,3.033,1.848c0.744,1.233,1.116,3.134,1.116,5.704V90.083z
				"/>
		</g>
		<g>
			
				<path fill="#3F96D2" stroke="#3F96D2" stroke-width="0.7433" stroke-linecap="round" stroke-linejoin="round" stroke-miterlimit="10" d="
				M38.919,145.923c0,0,4.63,0.17,8.708-3.078c9.043-8.218,2.229-18.091,2.229-18.091l-10.937-17.773l-10.933,17.773
				c0,0-6.817,9.873,2.229,18.091C34.293,146.093,38.919,145.923,38.919,145.923z"/>
			
				<path fill="#2F88C1" stroke="#2F88C1" stroke-width="0.7433" stroke-linecap="round" stroke-linejoin="round" stroke-miterlimit="10" d="
				M38.919,145.923c0,0-4.627,0.17-8.704-3.078c-9.046-8.218-2.229-18.091-2.229-18.091l10.933-17.773V145.923z"/>
		</g>
		<path fill="#3F96D2" d="M76.83,168.878c0-4.432-3.582-8.035-7.979-8.035c-3.552,0-6.562,2.351-7.596,5.587
			c-1.03-3.236-4.044-5.587-7.596-5.587c-3.616,0-6.671,2.436-7.648,5.764c-0.977-3.328-4.033-5.764-7.649-5.764
			c-3.552,0-6.562,2.351-7.596,5.585c-1.034-3.234-4.048-5.585-7.599-5.585c-3.55,0-6.564,2.351-7.596,5.585
			c-1.03-3.234-4.042-5.585-7.594-5.585c-4.399,0-7.979,3.603-7.979,8.035c0,0.128,0.013,0.252,0.019,0.379v58.657H76.83v-58.76
			h-0.015C76.819,169.062,76.83,168.973,76.83,168.878z"/>
	</g>
	<g>
		
			<path fill="#575756" stroke="#575756" stroke-width="0.073" stroke-linecap="round" stroke-linejoin="round" stroke-miterlimit="10" d="
			M3.343,7.786L3.338,4.159c0.534,0.018,0.938,0.09,1.208,0.219c0.273,0.13,0.408,0.321,0.408,0.578S4.88,5.403,4.737,5.527
			C4.593,5.65,4.418,5.726,4.211,5.752c0.269,0.025,0.504,0.12,0.693,0.285c0.192,0.165,0.287,0.407,0.287,0.725
			S5.032,7.33,4.719,7.51C4.403,7.692,3.946,7.783,3.343,7.786z M4.764,4.954c0-0.194-0.111-0.341-0.333-0.445
			C4.213,4.406,3.911,4.355,3.529,4.355v1.31C4.352,5.655,4.764,5.418,4.764,4.954z M5,6.734c0-0.179-0.049-0.329-0.15-0.45
			C4.751,6.165,4.615,6.078,4.448,6.027C4.166,5.934,3.862,5.888,3.533,5.888V7.59c0.28-0.004,0.521-0.035,0.724-0.095
			c0.203-0.06,0.357-0.138,0.46-0.23C4.905,7.09,5,6.913,5,6.734z"/>
		
			<path fill="#575756" stroke="#575756" stroke-width="0.073" stroke-linecap="round" stroke-linejoin="round" stroke-miterlimit="10" d="
			M7.59,4.427V7.77H7.398V6.068H5.935V7.77H5.743V5.407c0-0.372,0.118-0.676,0.357-0.913c0.237-0.238,0.534-0.356,0.893-0.356
			C7.252,4.138,7.453,4.235,7.59,4.427z M7.398,5.877V4.5C7.289,4.386,7.15,4.33,6.983,4.33c-0.304,0-0.554,0.109-0.752,0.329
			C6.032,4.879,5.935,5.13,5.935,5.413v0.464H7.398z M6.156,3.488h0.196v0.34H6.156V3.488z M7.034,3.488h0.195v0.34H7.034V3.488z"/>
		
			<path fill="#575756" stroke="#575756" stroke-width="0.073" stroke-linecap="round" stroke-linejoin="round" stroke-miterlimit="10" d="
			M9.558,7.224c0.156-0.133,0.233-0.297,0.233-0.49c0-0.193-0.056-0.348-0.169-0.461C9.509,6.156,9.375,6.07,9.217,6.014
			C9.058,5.956,8.898,5.9,8.738,5.841C8.579,5.781,8.443,5.694,8.33,5.575C8.22,5.456,8.163,5.305,8.163,5.118
			c0-0.322,0.09-0.564,0.272-0.722C8.614,4.239,8.83,4.159,9.08,4.159c0.254,0,0.528,0.023,0.829,0.072v0.191
			C9.638,4.373,9.388,4.35,9.153,4.35c-0.235,0-0.425,0.064-0.575,0.195C8.43,4.676,8.355,4.861,8.355,5.097
			c0,0.208,0.105,0.362,0.319,0.465C8.772,5.61,8.875,5.655,8.992,5.696c0.116,0.042,0.233,0.088,0.349,0.14
			c0.116,0.052,0.22,0.113,0.316,0.183C9.753,6.09,9.83,6.187,9.888,6.313C9.95,6.439,9.98,6.585,9.98,6.752
			c0,0.166-0.039,0.314-0.116,0.441C9.785,7.32,9.691,7.42,9.576,7.491C9.466,7.565,9.332,7.623,9.18,7.667
			C8.936,7.743,8.661,7.781,8.355,7.781h-0.13V7.59C8.838,7.59,9.283,7.468,9.558,7.224z"/>
		
			<path fill="#575756" stroke="#575756" stroke-width="0.073" stroke-linecap="round" stroke-linejoin="round" stroke-miterlimit="10" d="
			M11.183,7.77h-0.19V4.35h-0.829V4.159h1.849V4.35h-0.831V7.77z"/>
		
			<path fill="#575756" stroke="#575756" stroke-width="0.073" stroke-linecap="round" stroke-linejoin="round" stroke-miterlimit="10" d="
			M13.711,7.77h-0.192V4.159h1.847V4.35h-1.656v1.32h1.656v0.191h-1.656V7.77z"/>
		
			<path fill="#575756" stroke="#575756" stroke-width="0.073" stroke-linecap="round" stroke-linejoin="round" stroke-miterlimit="10" d="
			M18.127,5.996c0,0.568-0.096,1.004-0.288,1.313c-0.194,0.307-0.47,0.461-0.836,0.461c-0.364,0-0.654-0.155-0.866-0.466
			c-0.214-0.311-0.319-0.755-0.319-1.327c0-0.573,0.103-1.023,0.314-1.352s0.502-0.492,0.878-0.492c0.224,0,0.411,0.057,0.569,0.172
			c0.156,0.116,0.272,0.272,0.349,0.468C18.061,5.134,18.127,5.542,18.127,5.996z M17.937,5.908c0-0.479-0.081-0.86-0.241-1.145
			c-0.162-0.286-0.397-0.429-0.699-0.429s-0.543,0.142-0.722,0.427c-0.18,0.284-0.269,0.691-0.269,1.22
			c0,0.616,0.139,1.067,0.419,1.357c0.154,0.158,0.331,0.238,0.53,0.238c0.199,0,0.363-0.045,0.492-0.135
			c0.126-0.09,0.226-0.213,0.291-0.371C17.871,6.774,17.937,6.386,17.937,5.908z M16.43,3.488h0.196v0.34H16.43V3.488z
			 M17.307,3.488h0.196v0.34h-0.196V3.488z"/>
		
			<path fill="#575756" stroke="#575756" stroke-width="0.073" stroke-linecap="round" stroke-linejoin="round" stroke-miterlimit="10" d="
			M20.626,7.77h-0.231l-1.003-1.533c-0.126,0.018-0.269,0.03-0.421,0.037V7.77h-0.192V4.153c1.152,0.004,1.729,0.35,1.729,1.037
			c0,0.554-0.304,0.894-0.909,1.017L20.626,7.77z M18.97,6.068l0.051,0.005c0.864-0.014,1.295-0.302,1.295-0.866
			c0-0.158-0.036-0.29-0.111-0.396c-0.075-0.104-0.158-0.187-0.25-0.244c-0.222-0.138-0.551-0.211-0.985-0.216V6.068z"/>
		
			<path fill="#575756" stroke="#575756" stroke-width="0.073" stroke-linecap="round" stroke-linejoin="round" stroke-miterlimit="10" d="
			M21.105,7.77V4.159h1.847V4.35h-1.655v1.32h1.655v0.191h-1.655V7.58h1.655V7.77H21.105z"/>
	</g>
	<g>
		
			<path fill="#575756" stroke="#575756" stroke-width="0.0714" stroke-linecap="round" stroke-linejoin="round" stroke-miterlimit="10" d="
			M27.49,7.78h-0.199V4.402L26.501,4.76V4.566l0.989-0.457V7.78z"/>
		
			<path fill="#575756" stroke="#575756" stroke-width="0.0714" stroke-linecap="round" stroke-linejoin="round" stroke-miterlimit="10" d="
			M27.979,7.78l1.398-1.94c0.075-0.109,0.135-0.193,0.177-0.252c0.041-0.059,0.083-0.14,0.124-0.241
			c0.041-0.101,0.06-0.195,0.06-0.284c0-0.241-0.075-0.429-0.229-0.561c-0.154-0.134-0.334-0.199-0.534-0.199
			c-0.203,0-0.477,0.11-0.819,0.331v-0.19c0.304-0.224,0.594-0.335,0.857-0.335c0.259,0,0.481,0.089,0.654,0.264
			c0.173,0.178,0.263,0.4,0.263,0.67c0,0.269-0.098,0.535-0.286,0.797l-1.255,1.747h1.582V7.78H27.979z"/>
		
			<path fill="#575756" stroke="#575756" stroke-width="0.0714" stroke-linecap="round" stroke-linejoin="round" stroke-miterlimit="10" d="
			M33.744,7.78l0.011-3.367l-0.876,2.009h-0.177l-0.876-2.009V7.78h-0.184V4.104h0.252l0.895,2.056l0.894-2.056h0.256V7.78H33.744z"
			/>
		
			<path fill="#575756" stroke="#575756" stroke-width="0.0714" stroke-linecap="round" stroke-linejoin="round" stroke-miterlimit="10" d="
			M36.581,4.381V7.78H36.39V6.049h-1.492V7.78h-0.192V5.378c0-0.379,0.12-0.687,0.361-0.928c0.241-0.241,0.545-0.362,0.906-0.362
			C36.239,4.088,36.442,4.186,36.581,4.381z M36.39,5.856v-1.4c-0.113-0.116-0.256-0.174-0.425-0.174
			c-0.312,0-0.56,0.113-0.763,0.335c-0.203,0.225-0.304,0.48-0.304,0.767v0.472H36.39z"/>
		
			<path fill="#575756" stroke="#575756" stroke-width="0.0714" stroke-linecap="round" stroke-linejoin="round" stroke-miterlimit="10" d="
			M37.066,6.993h0.192c0.008,0.265,0.075,0.44,0.203,0.524c0.094,0.06,0.184,0.088,0.278,0.088c0.248,0,0.436-0.084,0.567-0.253
			c0.135-0.171,0.199-0.452,0.199-0.847V4.109h0.195v2.402c0,0.861-0.323,1.29-0.977,1.29c-0.131,0-0.267-0.046-0.406-0.137
			c-0.075-0.053-0.135-0.136-0.18-0.252C37.093,7.298,37.066,7.158,37.066,6.993z"/>
	</g>
</g>
</svg>
