<?xml version="1.0" encoding="utf-8"?>
<!-- Generator: Adobe Illustrator 15.0.2, SVG Export Plug-In . SVG Version: 6.00 Build 0)  -->
<!DOCTYPE svg PUBLIC "-//W3C//DTD SVG 1.1//EN" "http://www.w3.org/Graphics/SVG/1.1/DTD/svg11.dtd">
<svg version="1.1" id="Lager_1" xmlns="http://www.w3.org/2000/svg" xmlns:xlink="http://www.w3.org/1999/xlink" x="0px" y="0px"
	 width="104.427px" height="49.35px" viewBox="0 0 104.427 49.35" enable-background="new 0 0 104.427 49.35" xml:space="preserve">
<path fill="#FFFFFF" stroke="#FFFFFF" stroke-width="1.5414" stroke-linecap="round" stroke-linejoin="round" stroke-miterlimit="10" d="
	M91.32,27.561c-1.569,0-3.071,0.299-4.456,0.837c-0.782-8.629-8.055-15.412-16.883-15.412c-2.898,0-5.629,0.731-8.017,2.018
	C59.051,6.725,51.154,0.771,41.89,0.771c-11.732,0-21.278,9.546-21.278,21.278c0,0.936,0.066,1.854,0.184,2.757
	c-1.785-0.812-3.765-1.269-5.852-1.269c-7.815,0-14.173,6.357-14.173,14.173c0,3.786,1.475,7.346,4.152,10.022
	c0.542,0.541,1.275,0.846,2.042,0.846l91.819,0.001h0.001c0.892,0,1.732-0.412,2.279-1.115c1.697-2.182,2.593-4.799,2.593-7.566
	C103.656,33.095,98.124,27.561,91.32,27.561z"/>
</svg>
