<?xml version="1.0" encoding="utf-8"?>
<!-- Generator: Adobe Illustrator 15.0.2, SVG Export Plug-In . SVG Version: 6.00 Build 0)  -->
<!DOCTYPE svg PUBLIC "-//W3C//DTD SVG 1.1//EN" "http://www.w3.org/Graphics/SVG/1.1/DTD/svg11.dtd">
<svg version="1.1" id="Lager_1" xmlns="http://www.w3.org/2000/svg" xmlns:xlink="http://www.w3.org/1999/xlink" x="0px" y="0px"
	 width="104.282px" height="49.662px" viewBox="0 0 104.282 49.662" enable-background="new 0 0 104.282 49.662"
	 xml:space="preserve">
<path opacity="0.42" fill="#FFFFFF" stroke="#FFFFFF" stroke-width="1.9222" stroke-linecap="round" stroke-linejoin="round" stroke-miterlimit="10" d="
	M89.176,25.781c-0.108,0-0.217,0.007-0.326,0.01c0.044-0.58,0.072-1.164,0.072-1.755c0-12.724-10.351-23.075-23.073-23.075
	c-8.957,0-16.73,5.132-20.554,12.607c-2.739-2.828-6.572-4.592-10.811-4.592c-8.305,0-15.06,6.756-15.06,15.06
	c0,0.813,0.066,1.613,0.191,2.394c-1.229-0.332-2.521-0.512-3.854-0.512c-8.161,0-14.801,6.639-14.801,14.799
	c0,2.697,0.732,5.338,2.119,7.637c0.133,0.217,0.365,0.348,0.618,0.348H99.92c0.227,0,0.439-0.105,0.576-0.287
	c1.849-2.464,2.825-5.398,2.825-8.486C103.321,32.129,96.977,25.781,89.176,25.781z"/>
</svg>
