<?xml version="1.0" encoding="utf-8"?>
<!-- Generator: Adobe Illustrator 15.0.2, SVG Export Plug-In . SVG Version: 6.00 Build 0)  -->
<!DOCTYPE svg PUBLIC "-//W3C//DTD SVG 1.1//EN" "http://www.w3.org/Graphics/SVG/1.1/DTD/svg11.dtd">
<svg version="1.1" id="Lager_1" xmlns="http://www.w3.org/2000/svg" xmlns:xlink="http://www.w3.org/1999/xlink" x="0px" y="0px"
	 width="246.523px" height="341.143px" viewBox="0 0 246.523 341.143" enable-background="new 0 0 246.523 341.143"
	 xml:space="preserve">
<g>
	<g>
		<g>
			
				<path fill="#F19300" stroke="#F19300" stroke-width="5.1997" stroke-linecap="round" stroke-linejoin="round" stroke-miterlimit="10" d="
				M180.754,338.543l9.355-153.533c-0.783-31.001-17.864-49.88-40.234-45.165l-10.458,2.205l-0.151,0.032l-10.458,2.205
				c-22.37,4.715-30.381,28.884-18.582,57.562L180.754,338.543z"/>
		</g>
		<g>
			<g>
				<path fill="#EE8300" d="M180.754,338.543l9.355-153.533c-0.783-31.001-17.864-49.88-40.234-45.165l-10.458,2.205l-0.151,0.032
					L180.754,338.543z"/>
			</g>
			<g>
				<path fill="#EE8300" d="M138.729,139.538l10.609-2.236c9.754-2.056,18.854-0.024,26.318,5.875
					c10.374,8.2,16.588,23.423,17.051,41.768c0.002,0.074,0.001,0.148-0.003,0.223l-9.356,153.534
					c-0.072,1.18-0.927,2.147-2.057,2.386c-0.112,0.023-0.229,0.04-0.347,0.049L138.729,139.538z"/>
			</g>
		</g>
	</g>
	<g>
		
			<path fill="#00892E" stroke="#00892E" stroke-width="3.727" stroke-linecap="round" stroke-linejoin="round" stroke-miterlimit="10" d="
			M114.818,61.441c0,0-37.067-11.598-38.047-36.415c-0.767-19.42,16.15-26.089,31.157-22.019
			c23.454,6.362,22.34,43.059,21.876,48.417c0,0-0.234,5.746-0.698,15.531c0,13.277,0,52.891,0,52.891h-6.835V63.072L114.818,61.441
			z"/>
	</g>
	<g>
		
			<path fill="#00892E" stroke="#00892E" stroke-width="3.727" stroke-linecap="round" stroke-linejoin="round" stroke-miterlimit="10" d="
			M151.227,98.485c0,0,37.06-11.599,38.046-36.417c0.762-19.417-16.154-26.089-31.159-22.018
			c-23.456,6.362-20.551,35.467-21.152,43.538c0,0-0.029,9.787-0.029,20.411c0-2.292,0,15.848,0,15.848h6.835v-19.73L151.227,98.485
			z"/>
	</g>
	<g>
		<g>
			
				<path fill="#F19300" stroke="#F19300" stroke-width="5.1997" stroke-linecap="round" stroke-linejoin="round" stroke-miterlimit="10" d="
				M93.54,338.305l60.417-141.455c9.683-29.46-0.06-52.983-22.713-56.061l-10.591-1.439l-0.153-0.021l-10.59-1.439
				c-22.654-3.078-38.322,16.992-36.85,47.968L93.54,338.305z"/>
		</g>
		<g>
			<g>
				<path fill="#EE8300" d="M93.54,338.305l60.417-141.455c9.683-29.46-0.06-52.983-22.713-56.061l-10.591-1.439l-0.153-0.021
					L93.54,338.305z"/>
			</g>
			<g>
				<path fill="#EE8300" d="M120.85,136.753l10.745,1.46c9.876,1.342,17.764,6.314,22.812,14.38
					c7.013,11.21,7.749,27.636,2.019,45.069c-0.022,0.07-0.048,0.14-0.078,0.209L95.93,339.326
					c-0.464,1.088-1.595,1.712-2.738,1.556c-0.114-0.015-0.23-0.039-0.343-0.069L120.85,136.753z"/>
			</g>
		</g>
	</g>
	<g>
		<g>
			
				<path fill="#F19300" stroke="#F19300" stroke-width="5.1997" stroke-linecap="round" stroke-linejoin="round" stroke-miterlimit="10" d="
				M2.6,291.645l124.975-89.671c23.547-20.18,27.405-45.346,9.625-59.717l-8.312-6.718l-0.121-0.098l-8.312-6.718
				c-17.78-14.373-41.581-5.327-56.373,21.929L2.6,291.645z"/>
		</g>
		<g>
			<g>
				<path fill="#EE8300" d="M2.6,291.645l124.975-89.671c23.547-20.18,27.405-45.346,9.625-59.717l-8.312-6.718l-0.121-0.098
					L2.6,291.645z"/>
			</g>
			<g>
				<path fill="#EE8300" d="M130.402,133.418l8.433,6.817c7.751,6.266,11.921,14.605,12.058,24.12
					c0.189,13.221-7.693,27.651-21.627,39.59c-0.056,0.051-0.114,0.096-0.176,0.139L4.116,293.758
					c-0.96,0.689-2.251,0.638-3.149-0.089c-0.09-0.071-0.175-0.152-0.257-0.238L130.402,133.418z"/>
			</g>
		</g>
	</g>
	<g>
		<g>
			
				<path fill="#F19300" stroke="#F19300" stroke-width="5.1997" stroke-linecap="round" stroke-linejoin="round" stroke-miterlimit="10" d="
				M243.922,304.651l-40.088-148.502c-10.629-29.132-32.839-41.579-52.537-29.977l-9.209,5.425l-0.134,0.078l-9.208,5.424
				c-19.7,11.602-19.586,37.064,0.742,60.484L243.922,304.651z"/>
		</g>
		<g>
			<g>
				<path fill="#EE8300" d="M243.922,304.651l-40.088-148.502c-10.629-29.132-32.839-41.579-52.537-29.977l-9.209,5.425
					l-0.134,0.078L243.922,304.651z"/>
			</g>
			<g>
				<path fill="#EE8300" d="M140.634,129.436l9.345-5.504c8.588-5.058,17.86-6.033,26.817-2.822
					c12.446,4.463,23.19,16.91,29.479,34.15c0.027,0.068,0.047,0.139,0.066,0.213l40.092,148.501
					c0.309,1.141-0.192,2.332-1.189,2.918c-0.097,0.059-0.205,0.109-0.312,0.158L140.634,129.436z"/>
			</g>
		</g>
	</g>
</g>
</svg>
