<?xml version="1.0" encoding="utf-8"?>
<!-- Generator: Adobe Illustrator 17.0.0, SVG Export Plug-In . SVG Version: 6.00 Build 0)  -->
<!DOCTYPE svg PUBLIC "-//W3C//DTD SVG 1.1//EN" "http://www.w3.org/Graphics/SVG/1.1/DTD/svg11.dtd">
<svg version="1.1" id="Layer_1" xmlns="http://www.w3.org/2000/svg" xmlns:xlink="http://www.w3.org/1999/xlink" x="0px" y="0px"
	 width="153.262px" height="230.793px" viewBox="0 0 153.262 230.793" enable-background="new 0 0 153.262 230.793"
	 xml:space="preserve">
<g>
	<path fill="#164C7C" stroke="#164C7C" stroke-width="3.4067" stroke-miterlimit="10" d="M151.559,138.8
		c0,49.867-33.545,90.29-74.926,90.29c-41.382,0-74.929-40.423-74.929-90.29C1.703,88.934,35.25,1.703,76.632,1.703
		C118.014,1.703,151.559,88.934,151.559,138.8z"/>
</g>
<g>
	<path fill="#12416A" stroke="#12416A" stroke-width="3.4067" stroke-miterlimit="10" d="M76.632,1.703
		C35.25,1.703,1.703,88.934,1.703,138.8c0,49.867,33.547,90.29,74.929,90.29L76.46,2.091"/>
</g>
<g>
	<path fill="#103B61" stroke="#103B61" stroke-width="3.0417" stroke-miterlimit="10" d="M133.607,105.954
		c0,37.92-25.508,68.658-56.975,68.658c-31.468,0-56.978-30.739-56.978-68.658c0-37.918,25.51-104.25,56.978-104.25
		C108.099,1.703,133.607,68.035,133.607,105.954z"/>
</g>
<g>
	<path fill="#0A3051" stroke="#0A3051" stroke-width="3.0417" stroke-miterlimit="10" d="M76.632,1.703
		c-31.468,0-56.978,66.332-56.978,104.25c0,37.92,25.51,68.658,56.978,68.658L76.46,2.091"/>
</g>
<g>
	<path fill="#164C7C" stroke="#164C7C" stroke-width="3.4067" stroke-miterlimit="10" d="M111.559,66.759
		c0,23.663-15.918,42.845-35.555,42.845c-19.637,0-35.556-19.182-35.556-42.845c0-23.662,15.919-65.056,35.556-65.056
		C95.641,1.703,111.559,43.097,111.559,66.759z"/>
</g>
<g>
	<path fill="#13426C" stroke="#13426C" stroke-width="3.4067" stroke-miterlimit="10" d="M76.005,109.604
		c-19.637,0-35.556-19.182-35.556-42.845c0-23.662,15.919-65.056,35.556-65.056V109.604z"/>
</g>
<g>
	<path fill="#388FCE" stroke="#388FCE" stroke-width="3.4067" stroke-miterlimit="10" d="M100.392,45.88
		c0,15.928-10.715,28.839-23.932,28.839c-13.217,0-23.932-12.911-23.932-28.839c0-15.926,10.715-43.788,23.932-43.788
		C89.677,2.091,100.392,29.953,100.392,45.88z"/>
</g>
<g>
	<path fill="#3481B9" stroke="#3481B9" stroke-width="3.4067" stroke-miterlimit="10" d="M76.46,2.091
		c-13.217,0-23.932,27.862-23.932,43.788c0,15.928,10.715,28.839,23.932,28.839V2.091z"/>
</g>
</svg>
