<?xml version="1.0" encoding="utf-8"?>
<!-- Generator: Adobe Illustrator 17.1.0, SVG Export Plug-In . SVG Version: 6.00 Build 0)  -->
<!DOCTYPE svg PUBLIC "-//W3C//DTD SVG 1.1//EN" "http://www.w3.org/Graphics/SVG/1.1/DTD/svg11.dtd">
<svg version="1.1" id="Layer_1" xmlns="http://www.w3.org/2000/svg" xmlns:xlink="http://www.w3.org/1999/xlink" x="0px" y="0px"
	 viewBox="0 0 297.031 232.814" enable-background="new 0 0 297.031 232.814" xml:space="preserve">
<g>
	<circle fill="#FFDA43" stroke="#FFDA43" stroke-width="0.6988" stroke-miterlimit="10" cx="120.501" cy="43.459" r="43.099"/>
	<path fill="#FFCE0E" stroke="#FFCE0E" stroke-width="0.6988" stroke-miterlimit="10" d="M100.635,81.708
		C79.511,70.737,71.281,44.718,82.251,23.594C93.222,2.469,119.24-5.762,140.364,5.209L100.635,81.708z"/>
	<g>
		<circle fill="#FCC116" stroke="#FCC116" stroke-width="0.5809" stroke-miterlimit="10" cx="120.397" cy="43.659" r="35.831"/>
		<path fill="#FAB71D" stroke="#FAB71D" stroke-width="0.5809" stroke-miterlimit="10" d="M103.881,75.457
			c-17.562-9.121-24.404-30.75-15.283-48.312S119.348,2.74,136.91,11.86L103.881,75.457z"/>
	</g>
	<g>
		
			<path fill="#FFE267" stroke="#FFE267" stroke-width="2.1807" stroke-linecap="round" stroke-linejoin="round" stroke-miterlimit="10" d="
			M102.241,56.254l-1.904-0.989l16.766-32.283l-9.29-0.496l0.963-1.855l11.689,0.531L102.241,56.254L102.241,56.254z"/>
		
			<path fill="#FFE267" stroke="#FFE267" stroke-width="2.1807" stroke-linecap="round" stroke-linejoin="round" stroke-miterlimit="10" d="
			M140.208,54.074c-2.864,5.515-6,9.263-9.408,11.25c-3.405,1.985-6.89,2.054-10.45,0.205c-3.559-1.848-5.585-4.809-6.078-8.884
			c-0.491-4.076,0.697-8.877,3.57-14.409c2.872-5.53,6.078-9.255,9.62-11.171c3.54-1.915,7.166-1.91,10.875,0.016
			C145.589,34.848,146.212,42.513,140.208,54.074z M138.783,52.284c2.404-4.628,3.489-8.616,3.253-11.963
			c-0.235-3.344-1.84-5.793-4.814-7.338c-2.974-1.544-5.982-1.491-9.021,0.152c-3.04,1.646-5.878,5.009-8.516,10.088
			c-3.09,5.95-4.001,11.013-2.736,15.193c0.706,2.317,2.029,3.981,3.966,4.987c1.939,1.007,3.75,1.4,5.438,1.169
			c1.688-0.226,3.256-0.917,4.707-2.073C133.804,60.319,136.379,56.913,138.783,52.284z"/>
	</g>
</g>
<g>
	<circle fill="#D9DBDB" stroke="#D9DBDB" stroke-width="0.9614" stroke-miterlimit="10" cx="59.774" cy="103.337" r="59.293"/>
	<path fill="#C9CACA" stroke="#C9CACA" stroke-width="0.9614" stroke-miterlimit="10" d="M59.774,162.63
		c-32.746,0-59.292-26.547-59.292-59.293c0-32.747,26.546-59.293,59.292-59.293V162.63z"/>
	<circle fill="#ECEDED" stroke="#ECEDED" stroke-width="0.8519" stroke-miterlimit="10" cx="59.774" cy="103.337" r="52.543"/>
	<path fill="#DFE0E0" stroke="#DFE0E0" stroke-width="0.8519" stroke-miterlimit="10" d="M59.774,155.88
		c-29.019,0-52.542-23.523-52.542-52.543c0-29.019,23.523-52.543,52.542-52.543V155.88z"/>
	
		<path fill="#C3C3C5" stroke="#C3C3C5" stroke-width="3.503" stroke-linecap="round" stroke-linejoin="round" stroke-miterlimit="10" d="
		M44.344,106.084V70.599h29.252v3.637h-26.22v23.69c2.973-2.358,6.271-3.538,9.899-3.538c6.479,0,11.401,2.031,14.761,6.094
		c3.357,4.063,5.039,9.109,5.039,15.138s-1.771,11.485-5.308,16.365c-3.537,4.886-8.103,7.324-13.69,7.324
		c-3.982,0-7.535-1.259-10.656-3.783c-3.121-2.523-4.771-5.686-4.95-9.486h3.3c0.237,2.49,1.53,4.669,3.88,6.537
		c2.348,1.867,5.305,2.8,8.874,2.8c4.518,0,8.16-1.965,10.926-5.897c2.764-3.931,4.146-8.421,4.146-13.467s-1.397-9.305-4.19-12.777
		c-2.795-3.476-6.867-5.21-12.219-5.21c-2.676,0-5.172,0.753-7.492,2.26C47.376,101.792,45.593,103.724,44.344,106.084z"/>
</g>
<g>
	<circle fill="#D9DBDB" stroke="#D9DBDB" stroke-width="0.9614" stroke-miterlimit="10" cx="193.581" cy="126.159" r="59.293"/>
	<path fill="#C9CACA" stroke="#C9CACA" stroke-width="0.9614" stroke-miterlimit="10" d="M202.808,184.73
		c-32.347,5.096-62.701-16.997-67.797-49.344c-5.096-32.348,16.996-62.702,49.343-67.797L202.808,184.73z"/>
	<circle fill="#ECEDED" stroke="#ECEDED" stroke-width="0.8519" stroke-miterlimit="10" cx="193.581" cy="126.159" r="52.543"/>
	<path fill="#DFE0E0" stroke="#DFE0E0" stroke-width="0.8519" stroke-miterlimit="10" d="M201.757,178.062
		c-28.665,4.516-55.562-15.06-60.078-43.727c-4.516-28.665,15.06-55.563,43.725-60.079L201.757,178.062z"/>
	
		<path fill="#C3C3C5" stroke="#C3C3C5" stroke-width="3.503" stroke-linecap="round" stroke-linejoin="round" stroke-miterlimit="10" d="
		M178.766,131.274l-5.522-35.053l28.896-4.552l0.566,3.593l-25.901,4.08l3.687,23.401c2.57-2.792,5.644-4.471,9.228-5.035
		c6.4-1.008,11.578,0.232,15.529,3.723c3.948,3.491,6.395,8.214,7.333,14.169c0.938,5.956,0.038,11.621-2.697,16.992
		c-2.734,5.377-6.865,8.496-12.383,9.365c-3.933,0.62-7.639-0.071-11.115-2.079c-3.476-2.007-5.598-4.874-6.366-8.6l3.26-0.514
		c0.622,2.423,2.238,4.374,4.85,5.854c2.61,1.479,5.676,1.94,9.202,1.385c4.463-0.703,7.755-3.211,9.875-7.525
		c2.119-4.313,2.785-8.964,2-13.948c-0.785-4.985-2.828-8.974-6.127-11.969c-3.302-2.999-7.594-4.078-12.881-3.245
		c-2.643,0.416-4.992,1.549-7.049,3.398C181.093,126.562,179.633,128.748,178.766,131.274z"/>
</g>
<g>
	<circle fill="#FFDA43" stroke="#FFDA43" stroke-width="0.6988" stroke-miterlimit="10" cx="253.581" cy="189.363" r="43.099"/>
	<path fill="#FFCE0E" stroke="#FFCE0E" stroke-width="0.6988" stroke-miterlimit="10" d="M256.092,232.39
		c-23.763,1.387-44.15-16.753-45.537-40.516c-1.387-23.764,16.752-44.151,40.515-45.538L256.092,232.39z"/>
	<g>
		<circle fill="#FCC116" stroke="#FCC116" stroke-width="0.5809" stroke-miterlimit="10" cx="253.595" cy="189.589" r="35.831"/>
		<path fill="#FAB71D" stroke="#FAB71D" stroke-width="0.5809" stroke-miterlimit="10" d="M255.681,225.359
			c-19.755,1.153-36.704-13.927-37.857-33.683c-1.153-19.755,13.926-36.705,33.681-37.858L255.681,225.359z"/>
	</g>
	<g>
		
			<path fill="#FFE267" stroke="#FFE267" stroke-width="2.1807" stroke-linecap="round" stroke-linejoin="round" stroke-miterlimit="10" d="
			M244.444,209.701l-2.142,0.125l-2.119-36.315l-8.235,4.329l-0.122-2.086l10.314-5.526l2.304,39.474L244.444,209.701z"/>
		
			<path fill="#FFE267" stroke="#FFE267" stroke-width="2.1807" stroke-linecap="round" stroke-linejoin="round" stroke-miterlimit="10" d="
			M275.945,188.396c0.362,6.203-0.413,11.029-2.324,14.48c-1.909,3.448-4.868,5.291-8.872,5.524
			c-4.003,0.234-7.259-1.273-9.769-4.521c-2.508-3.25-3.945-7.983-4.308-14.206c-0.363-6.22,0.484-11.062,2.547-14.521
			c2.061-3.457,5.178-5.309,9.35-5.552C270.727,169.125,275.186,175.39,275.945,188.396z M273.804,187.588
			c-0.304-5.206-1.413-9.187-3.328-11.942c-1.914-2.752-4.546-4.035-7.891-3.84c-3.345,0.195-5.902,1.781-7.672,4.748
			c-1.769,2.97-2.486,7.312-2.153,13.026c0.391,6.693,2.199,11.509,5.425,14.452c1.792,1.629,3.78,2.382,5.959,2.255
			c2.181-0.127,3.938-0.717,5.27-1.779c1.335-1.059,2.328-2.454,2.983-4.19C273.64,197.038,274.108,192.795,273.804,187.588z"/>
	</g>
</g>
<g>
	<circle fill="#FFDA43" stroke="#FFDA43" stroke-width="0.6988" stroke-miterlimit="10" cx="60.034" cy="180.946" r="43.099"/>
	<path fill="#FFCE0E" stroke="#FFCE0E" stroke-width="0.6988" stroke-miterlimit="10" d="M79.353,219.475
		c-21.278,10.669-47.176,2.069-57.846-19.209c-10.67-21.279-2.07-47.177,19.208-57.846L79.353,219.475z"/>
	<g>
		<circle fill="#FCC116" stroke="#FCC116" stroke-width="0.5809" stroke-miterlimit="10" cx="60.136" cy="181.149" r="35.831"/>
		<path fill="#FAB71D" stroke="#FAB71D" stroke-width="0.5809" stroke-miterlimit="10" d="M76.196,213.179
			c-17.69,8.87-39.22,1.72-48.09-15.97s-1.721-39.22,15.968-48.09L76.196,213.179z"/>
	</g>
	<g>
		
			<path fill="#FFE267" stroke="#FFE267" stroke-width="2.1807" stroke-linecap="round" stroke-linejoin="round" stroke-miterlimit="10" d="
			M59.683,203.24l-1.918,0.962l-16.306-32.518l-5.852,7.232l-0.937-1.868l7.288-9.154L59.683,203.24L59.683,203.24z"/>
		
			<path fill="#FFE267" stroke="#FFE267" stroke-width="2.1807" stroke-linecap="round" stroke-linejoin="round" stroke-miterlimit="10" d="
			M80.194,171.216c2.785,5.555,3.981,10.293,3.59,14.219c-0.39,3.922-2.379,6.784-5.965,8.582c-3.585,1.797-7.171,1.701-10.761-0.29
			c-3.589-1.994-6.78-5.772-9.574-11.345c-2.793-5.57-3.929-10.352-3.402-14.345c0.526-3.99,2.657-6.924,6.393-8.797
			C67.781,155.578,74.354,159.57,80.194,171.216z M77.908,171.32c-2.338-4.662-4.93-7.88-7.779-9.653
			c-2.846-1.771-5.771-1.909-8.766-0.407c-2.996,1.502-4.717,3.969-5.17,7.395c-0.45,3.428,0.608,7.699,3.173,12.815
			c3.005,5.993,6.571,9.702,10.698,11.13c2.29,0.788,4.414,0.693,6.365-0.285c1.953-0.979,3.334-2.215,4.137-3.718
			c0.807-1.5,1.168-3.174,1.083-5.028C81.493,180.066,80.246,175.983,77.908,171.32z"/>
	</g>
</g>
</svg>
