<?xml version="1.0" encoding="utf-8"?>
<!-- Generator: Adobe Illustrator 15.0.2, SVG Export Plug-In . SVG Version: 6.00 Build 0)  -->
<!DOCTYPE svg PUBLIC "-//W3C//DTD SVG 1.1//EN" "http://www.w3.org/Graphics/SVG/1.1/DTD/svg11.dtd">
<svg version="1.1" id="Lager_1" xmlns="http://www.w3.org/2000/svg" xmlns:xlink="http://www.w3.org/1999/xlink" x="0px" y="0px"
	 width="79.561px" height="33.953px" viewBox="0 0 79.561 33.953" enable-background="new 0 0 79.561 33.953" xml:space="preserve">
<g>
	<rect opacity="0.6" fill="#FFFFFF" width="79.561" height="33.953"/>
	<g>
		<path fill="#3C3C3B" d="M17.662,22.79c0.723-0.627,1.084-1.389,1.084-2.289c0-0.898-0.261-1.617-0.783-2.156
			c-0.522-0.538-1.153-0.939-1.892-1.205c-0.739-0.265-1.481-0.533-2.229-0.807s-1.382-0.688-1.903-1.241
			c-0.522-0.554-0.783-1.265-0.783-2.132c0-1.51,0.421-2.635,1.265-3.373c0.844-0.739,1.852-1.109,3.024-1.109
			s2.458,0.113,3.855,0.338v0.892c-1.253-0.226-2.426-0.337-3.518-0.337s-1.988,0.305-2.687,0.915s-1.048,1.47-1.048,2.578
			c0,0.964,0.498,1.687,1.494,2.169c0.45,0.225,0.943,0.434,1.482,0.626c0.538,0.192,1.08,0.409,1.626,0.65
			c0.546,0.241,1.04,0.526,1.481,0.855s0.803,0.787,1.084,1.374c0.281,0.586,0.421,1.269,0.421,2.047
			c0,0.779-0.181,1.467-0.542,2.061c-0.361,0.595-0.807,1.061-1.337,1.397c-0.53,0.337-1.148,0.61-1.855,0.819
			c-1.141,0.354-2.426,0.53-3.855,0.53h-0.603v-0.892C14.304,24.501,16.376,23.931,17.662,22.79z"/>
		<path fill="#3C3C3B" d="M32.552,17.056c0,2.65-0.45,4.695-1.35,6.133s-2.201,2.156-3.903,2.156s-3.052-0.727-4.048-2.182
			c-0.996-1.453-1.494-3.518-1.494-6.191c0-2.675,0.49-4.779,1.47-6.312c0.979-1.534,2.345-2.302,4.096-2.302
			c1.044,0,1.931,0.27,2.662,0.808s1.273,1.265,1.626,2.18C32.239,13.032,32.552,14.936,32.552,17.056z M31.661,16.646
			c0-2.232-0.377-4.015-1.132-5.348c-0.755-1.334-1.84-2-3.253-2c-1.414,0-2.538,0.662-3.373,1.987
			c-0.835,1.325-1.253,3.225-1.253,5.698c0,2.875,0.65,4.988,1.952,6.337c0.723,0.739,1.55,1.108,2.481,1.108
			s1.695-0.209,2.289-0.627c0.594-0.417,1.052-0.995,1.374-1.734C31.355,20.687,31.661,18.879,31.661,16.646z"/>
		<path fill="#3C3C3B" d="M36.479,18.212v7.133h-0.892V8.454c2.811,0.016,4.952,0.445,6.421,1.289
			c1.471,0.844,2.205,2.027,2.205,3.554c0,1.8-0.707,3.052-2.12,3.759c-0.481,0.258-0.907,0.45-1.277,0.578
			c-0.37,0.129-0.867,0.241-1.494,0.338C38.536,18.067,37.588,18.148,36.479,18.212z M36.479,17.321l0.241,0.023
			c4.402-0.064,6.602-1.389,6.602-3.976c0-0.964-0.442-1.823-1.325-2.578c-0.482-0.417-1.192-0.755-2.132-1.012
			c-0.939-0.257-2.068-0.394-3.385-0.409V17.321z"/>
		<path fill="#3C3C3B" d="M56.743,17.056c0,2.65-0.451,4.695-1.35,6.133c-0.9,1.438-2.201,2.156-3.904,2.156
			c-1.702,0-3.051-0.727-4.047-2.182c-0.996-1.453-1.494-3.518-1.494-6.191c0-2.675,0.49-4.779,1.47-6.312
			c0.979-1.534,2.345-2.302,4.097-2.302c1.043,0,1.931,0.27,2.662,0.808c0.73,0.538,1.272,1.265,1.626,2.18
			C56.429,13.032,56.743,14.936,56.743,17.056z M55.851,16.646c0-2.232-0.377-4.015-1.132-5.348c-0.755-1.334-1.84-2-3.253-2
			c-1.414,0-2.538,0.662-3.373,1.987c-0.836,1.325-1.253,3.225-1.253,5.698c0,2.875,0.65,4.988,1.952,6.337
			c0.723,0.739,1.549,1.108,2.48,1.108s1.695-0.209,2.289-0.627c0.595-0.417,1.053-0.995,1.374-1.734
			C55.546,20.687,55.851,18.879,55.851,16.646z"/>
		<path fill="#3C3C3B" d="M68.404,25.345h-1.085l-4.674-7.156c-0.594,0.08-1.253,0.137-1.976,0.168v6.988h-0.892V8.454
			c5.381,0.016,8.072,1.631,8.072,4.843c0,2.587-1.414,4.169-4.241,4.747L68.404,25.345z M60.67,17.394l0.241,0.023
			c4.031-0.064,6.047-1.413,6.047-4.048c0-0.738-0.172-1.353-0.518-1.843s-0.734-0.871-1.168-1.145
			c-1.029-0.643-2.562-0.98-4.603-1.012V17.394z"/>
	</g>
</g>
</svg>
