<?xml version="1.0" encoding="utf-8"?>
<!-- Generator: Adobe Illustrator 15.0.2, SVG Export Plug-In . SVG Version: 6.00 Build 0)  -->
<!DOCTYPE svg PUBLIC "-//W3C//DTD SVG 1.1//EN" "http://www.w3.org/Graphics/SVG/1.1/DTD/svg11.dtd">
<svg version="1.1" id="Lager_1" xmlns="http://www.w3.org/2000/svg" xmlns:xlink="http://www.w3.org/1999/xlink" x="0px" y="0px"
	 width="127.957px" height="33.953px" viewBox="0 0 127.957 33.953" enable-background="new 0 0 127.957 33.953"
	 xml:space="preserve">
<g>
	<rect fill="#FFFFFF" enable-background="new    " width="127.957" height="33.953"/>
	<g>
		<path fill="#3C3C3B" d="M12.754,25.344h-0.892V9.369H8.007v-0.89h8.626V9.37h-3.879V25.344z"/>
		<path fill="#3C3C3B" d="M21.283,25.344L17.645,8.479h0.892l3.349,15.419l3.349-15.419h0.892l-3.59,16.865H21.283z"/>
		<path fill="#3C3C3B" d="M36.824,9.73v15.614h-0.892v-7.952H29.09v7.952h-0.892V14.309c0-1.734,0.554-3.156,1.663-4.264
			c1.108-1.109,2.498-1.663,4.168-1.663C35.25,8.382,36.182,8.832,36.824,9.73z M35.933,16.502v-6.434
			c-0.514-0.53-1.165-0.795-1.952-0.795c-1.414,0-2.582,0.514-3.506,1.543c-0.924,1.027-1.385,2.199-1.385,3.517v2.169H35.933z
			 M34.077,7.418c-0.37,0.369-0.819,0.555-1.349,0.555s-0.98-0.186-1.349-0.555c-0.37-0.369-0.554-0.823-0.554-1.361
			s0.185-0.988,0.554-1.35c0.369-0.361,0.819-0.542,1.349-0.542s0.979,0.181,1.349,0.542c0.37,0.361,0.554,0.812,0.554,1.35
			S34.447,7.049,34.077,7.418z M33.957,6.045c0-0.354-0.117-0.643-0.35-0.867c-0.233-0.224-0.526-0.338-0.879-0.338
			c-0.354,0-0.646,0.113-0.879,0.338C31.616,5.403,31.5,5.688,31.5,6.033c0,0.345,0.116,0.643,0.349,0.891
			c0.233,0.25,0.534,0.373,0.903,0.373s0.663-0.12,0.88-0.361C33.849,6.695,33.957,6.398,33.957,6.045z"/>
		<path fill="#3C3C3B" d="M41.33,25.344h-0.892V8.479h8.626V9.37H41.33v6.168h7.734v0.893H41.33V25.344z"/>
		<path fill="#3C3C3B" d="M60.292,9.73v15.614H59.4v-7.952h-6.843v7.952h-0.892V14.309c0-1.734,0.554-3.156,1.663-4.264
			c1.108-1.109,2.498-1.663,4.168-1.663C58.717,8.382,59.649,8.832,60.292,9.73z M59.4,16.502v-6.434
			c-0.514-0.53-1.165-0.795-1.952-0.795c-1.414,0-2.582,0.514-3.506,1.543c-0.924,1.027-1.385,2.199-1.385,3.517v2.169H59.4z"/>
		<path fill="#3C3C3B" d="M71.88,12.213l-0.892-0.024c-0.145-0.867-0.503-1.554-1.071-2.06c-0.57-0.506-1.209-0.76-1.916-0.76
			c-1.189,0-2.129,0.607-2.818,1.82c-0.691,1.213-1.037,2.605-1.037,4.18c0,4.418,1.141,7.18,3.421,8.289
			c1.093,0.546,2.529,0.818,4.312,0.818v0.892c-2.328,0-4.063-0.345-5.203-1.036c-0.45-0.273-0.903-0.658-1.361-1.156
			s-0.831-1.092-1.121-1.783c-0.626-1.558-0.939-3.574-0.939-6.046c0-1.173,0.16-2.225,0.482-3.157
			c0.321-0.931,0.723-1.654,1.205-2.169c0.98-1.027,1.967-1.541,2.964-1.541c0.995,0,1.906,0.401,2.734,1.204
			C71.466,10.486,71.88,11.33,71.88,12.213z"/>
		<path fill="#3C3C3B" d="M82.892,25.344H82v-1.638c0-4.979-1.222-7.47-3.662-7.47c-0.515,0-1.004,0.133-1.469,0.398
			c-0.468,0.264-0.791,0.498-0.978,0.698c-0.185,0.199-0.422,0.493-0.711,0.88v7.132h-0.892V8.479h0.892v8.312l6.506-8.337h1.229
			l-5.59,7.036c0.385-0.098,0.764-0.145,1.133-0.145c1.364,0,2.444,0.658,3.239,1.975c0.796,1.319,1.193,3.35,1.193,6.096
			L82.892,25.344L82.892,25.344z"/>
		<path fill="#3C3C3B" d="M90.939,22.79c0.723-0.626,1.085-1.39,1.085-2.288c0-0.9-0.261-1.619-0.782-2.156
			c-0.522-0.539-1.154-0.94-1.893-1.205c-0.738-0.266-1.48-0.534-2.229-0.808c-0.748-0.272-1.383-0.687-1.904-1.241
			c-0.521-0.554-0.782-1.265-0.782-2.133c0-1.509,0.421-2.633,1.265-3.373c0.844-0.738,1.852-1.107,3.023-1.107
			c1.173,0,2.459,0.112,3.855,0.338v0.891c-1.252-0.225-2.427-0.338-3.519-0.338c-1.093,0-1.988,0.306-2.687,0.916
			c-0.699,0.611-1.049,1.47-1.049,2.578c0,0.964,0.498,1.688,1.494,2.168c0.449,0.226,0.943,0.434,1.48,0.627
			c0.539,0.193,1.08,0.41,1.627,0.65c0.547,0.241,1.039,0.526,1.482,0.855c0.44,0.33,0.803,0.787,1.084,1.373
			c0.28,0.587,0.422,1.27,0.422,2.049s-0.183,1.467-0.543,2.061c-0.361,0.594-0.808,1.061-1.338,1.396
			c-0.529,0.338-1.147,0.611-1.854,0.818c-1.141,0.354-2.426,0.531-3.855,0.531h-0.603V24.5
			C87.582,24.501,89.654,23.932,90.939,22.79z"/>
		<path fill="#3C3C3B" d="M95.686,25.416L95.662,8.479c2.49,0.08,4.369,0.422,5.639,1.023c1.27,0.603,1.904,1.502,1.904,2.699
			c0,1.196-0.338,2.084-1.013,2.662c-0.675,0.578-1.494,0.932-2.458,1.061c1.27,0.111,2.35,0.554,3.24,1.324
			c0.893,0.771,1.338,1.9,1.338,3.386c0,1.486-0.734,2.65-2.205,3.493C100.638,24.971,98.498,25.4,95.686,25.416z M102.312,12.188
			c0-0.899-0.514-1.59-1.542-2.071c-1.028-0.482-2.435-0.724-4.216-0.724v6.12C100.392,15.465,102.312,14.357,102.312,12.188z
			 M103.419,20.502c0-0.836-0.232-1.535-0.697-2.098c-0.467-0.562-1.094-0.963-1.881-1.204c-1.316-0.434-2.738-0.65-4.264-0.65
			v7.951c1.301-0.017,2.426-0.165,3.373-0.446c0.946-0.279,1.661-0.639,2.145-1.072C102.978,22.164,103.419,21.336,103.419,20.502z"
			/>
		<path fill="#3C3C3B" d="M107.925,25.344h-0.891V8.526h0.891V25.344z"/>
		<path fill="#3C3C3B" d="M119.972,25.344h-8.385V8.479h0.893v15.975h7.492V25.344z"/>
	</g>
</g>
</svg>
