<?xml version="1.0" encoding="utf-8"?>
<!-- Generator: Adobe Illustrator 15.0.2, SVG Export Plug-In . SVG Version: 6.00 Build 0)  -->
<!DOCTYPE svg PUBLIC "-//W3C//DTD SVG 1.1//EN" "http://www.w3.org/Graphics/SVG/1.1/DTD/svg11.dtd">
<svg version="1.1" id="Lager_1" xmlns="http://www.w3.org/2000/svg" xmlns:xlink="http://www.w3.org/1999/xlink" x="0px" y="0px"
	 width="145.251px" height="33.953px" viewBox="0 0 145.251 33.953" enable-background="new 0 0 145.251 33.953"
	 xml:space="preserve">
<g>
	<rect opacity="0.6" fill="#FFFFFF" width="145.251" height="33.953"/>
	<g>
		<path fill="#3C3C3B" d="M20.041,9.731v15.613h-0.892v-7.951h-6.843v7.951h-0.892V14.31c0-1.734,0.554-3.157,1.663-4.266
			c1.108-1.107,2.498-1.662,4.168-1.662C18.466,8.382,19.398,8.831,20.041,9.731z M19.149,16.501v-6.433
			c-0.514-0.53-1.165-0.795-1.952-0.795c-1.414,0-2.582,0.515-3.506,1.542s-1.385,2.201-1.385,3.518v2.168H19.149z M17.293,7.418
			c-0.37,0.37-0.819,0.554-1.349,0.554c-0.53,0-0.98-0.184-1.349-0.554c-0.37-0.369-0.554-0.823-0.554-1.361
			s0.185-0.987,0.554-1.349c0.369-0.362,0.819-0.543,1.349-0.543c0.53,0,0.979,0.181,1.349,0.543
			c0.37,0.361,0.554,0.811,0.554,1.349S17.663,7.049,17.293,7.418z M17.173,6.044c0-0.353-0.117-0.642-0.35-0.867
			c-0.233-0.225-0.526-0.337-0.879-0.337c-0.354,0-0.646,0.112-0.879,0.337c-0.233,0.226-0.349,0.511-0.349,0.855
			c0,0.346,0.116,0.643,0.349,0.892s0.534,0.374,0.903,0.374s0.663-0.121,0.88-0.361C17.065,6.695,17.173,6.397,17.173,6.044z"/>
		<path fill="#3C3C3B" d="M26.883,25.345h-0.892V9.37h-3.855V8.478h8.626V9.37h-3.879V25.345z"/>
		<path fill="#3C3C3B" d="M32.906,25.345V8.478h8.626V9.37h-7.734v6.168h7.734v0.891h-7.734v8.023h7.734v0.893H32.906z"/>
		<path fill="#3C3C3B" d="M53.073,25.345h-1.084l-4.674-7.156c-0.594,0.08-1.253,0.137-1.976,0.168v6.988h-0.892V8.454
			c5.381,0.016,8.072,1.631,8.072,4.843c0,2.587-1.414,4.169-4.241,4.747L53.073,25.345z M45.339,17.394l0.241,0.023
			c4.032-0.064,6.048-1.413,6.048-4.048c0-0.738-0.173-1.353-0.518-1.843c-0.346-0.49-0.735-0.871-1.168-1.145
			c-1.028-0.643-2.562-0.98-4.602-1.012V17.394z"/>
		<path fill="#3C3C3B" d="M63.795,9.731v15.613h-0.892v-7.951h-6.843v7.951h-0.892V14.31c0-1.734,0.554-3.157,1.663-4.266
			C57.94,8.937,59.329,8.382,61,8.382C62.22,8.382,63.152,8.831,63.795,9.731z M62.903,16.501v-6.433
			c-0.514-0.53-1.165-0.795-1.952-0.795c-1.414,0-2.582,0.515-3.506,1.542s-1.385,2.201-1.385,3.518v2.168H62.903z"/>
		<path fill="#3C3C3B" d="M68.3,9.996v15.349h-0.892V8.454h1.277l6.457,14.842V8.478h0.892v16.867h-0.892L68.3,9.996z"/>
		<path fill="#3C3C3B" d="M82.203,25.345L78.564,8.478h0.893l3.349,15.421l3.349-15.421h0.893l-3.591,16.867H82.203z"/>
		<path fill="#3C3C3B" d="M97.744,9.731v15.613h-0.891v-7.951h-6.844v7.951h-0.891V14.31c0-1.734,0.554-3.157,1.662-4.266
			c1.108-1.107,2.498-1.662,4.168-1.662C96.169,8.382,97.101,8.831,97.744,9.731z M96.853,16.501v-6.433
			c-0.515-0.53-1.165-0.795-1.952-0.795c-1.413,0-2.582,0.515-3.506,1.542s-1.386,2.201-1.386,3.518v2.168H96.853z M91.046,5.346
			h0.915v1.591h-0.915V5.346z M95.142,5.346h0.916v1.591h-0.916V5.346z"/>
		<path fill="#3C3C3B" d="M102.25,9.996v15.349h-0.892V8.454h1.277l6.457,14.842V8.478h0.892v16.867h-0.892L102.25,9.996z"/>
		<path fill="#3C3C3B" d="M122.272,17.249c0,1.188-0.145,2.276-0.434,3.264c-0.289,0.988-0.679,1.787-1.169,2.398
			c-0.49,0.61-1.112,1.1-1.867,1.469c-1.365,0.691-3.084,1.037-5.156,1.037V8.454c2.201,0,3.936,0.329,5.205,0.988
			c1.092,0.578,1.91,1.438,2.457,2.578C121.951,13.337,122.272,15.08,122.272,17.249z M121.38,16.983c0-5.06-2.281-7.59-6.843-7.59
			v15.107c2.603-0.032,4.417-0.779,5.445-2.24C120.915,20.943,121.38,19.185,121.38,16.983z"/>
		<path fill="#3C3C3B" d="M133.741,9.731v15.613h-0.892v-7.951h-6.843v7.951h-0.892V14.31c0-1.734,0.555-3.157,1.662-4.266
			c1.109-1.107,2.498-1.662,4.169-1.662C132.166,8.382,133.098,8.831,133.741,9.731z M132.849,16.501v-6.433
			c-0.514-0.53-1.164-0.795-1.951-0.795c-1.414,0-2.582,0.515-3.506,1.542s-1.386,2.201-1.386,3.518v2.168H132.849z"/>
	</g>
</g>
</svg>
