<?xml version="1.0" encoding="utf-8"?>
<!-- Generator: Adobe Illustrator 15.0.2, SVG Export Plug-In . SVG Version: 6.00 Build 0)  -->
<!DOCTYPE svg PUBLIC "-//W3C//DTD SVG 1.1//EN" "http://www.w3.org/Graphics/SVG/1.1/DTD/svg11.dtd">
<svg version="1.1" id="Lager_1" xmlns="http://www.w3.org/2000/svg" xmlns:xlink="http://www.w3.org/1999/xlink" x="0px" y="0px"
	 width="65.083px" height="33.953px" viewBox="0 0 65.083 33.953" enable-background="new 0 0 65.083 33.953" xml:space="preserve">
<g>
	<rect opacity="0.6" fill="#FFFFFF" width="65.083" height="33.953"/>
	<g>
		<path fill="#3C3C3B" d="M12.532,25.345H11.64V8.478h8.626V9.37h-7.734v6.168h7.734v0.891h-7.734V25.345z"/>
		<path fill="#3C3C3B" d="M30.409,23.839c-0.739,1.035-1.823,1.554-3.252,1.554c-1.43,0-2.498-0.57-3.205-1.711
			c-0.707-1.14-1.06-2.53-1.06-4.169V8.478h0.891v11.012c0,1.639,0.333,2.883,1,3.734s1.478,1.277,2.434,1.277
			c0.956,0,1.763-0.422,2.421-1.266c0.659-0.843,0.988-2.092,0.988-3.746V8.478h0.892v11.035
			C31.518,21.36,31.148,22.802,30.409,23.839z"/>
		<path fill="#3C3C3B" d="M43.686,25.345h-0.893v-1.639c0-4.979-1.221-7.47-3.662-7.47c-0.514,0-1.004,0.133-1.47,0.397
			c-0.466,0.266-0.791,0.498-0.976,0.699c-0.186,0.201-0.422,0.494-0.711,0.879v7.133h-0.892V8.478h0.892v8.312l6.506-8.336h1.229
			l-5.59,7.035c0.385-0.096,0.763-0.145,1.133-0.145c1.365,0,2.445,0.659,3.24,1.977c0.795,1.316,1.193,3.349,1.193,6.096V25.345z"
			/>
		<path fill="#3C3C3B" d="M49.565,25.345h-0.893V9.37h-3.855V8.478h8.627V9.37h-3.879V25.345z"/>
	</g>
</g>
</svg>
