<?xml version="1.0" encoding="utf-8"?>
<!-- Generator: Adobe Illustrator 15.0.2, SVG Export Plug-In . SVG Version: 6.00 Build 0)  -->
<!DOCTYPE svg PUBLIC "-//W3C//DTD SVG 1.1//EN" "http://www.w3.org/Graphics/SVG/1.1/DTD/svg11.dtd">
<svg version="1.1" id="Lager_1" xmlns="http://www.w3.org/2000/svg" xmlns:xlink="http://www.w3.org/1999/xlink" x="0px" y="0px"
	 width="84.846px" height="33.953px" viewBox="0 0 84.846 33.953" enable-background="new 0 0 84.846 33.953" xml:space="preserve">
<g>
	<rect opacity="0.6" fill="#FFFFFF" width="84.846" height="33.953"/>
	<g>
		<path fill="#3C3C3B" d="M12.907,25.417L12.883,8.478c2.49,0.081,4.369,0.422,5.638,1.024c1.269,0.603,1.903,1.503,1.903,2.698
			c0,1.197-0.337,2.084-1.012,2.663c-0.675,0.578-1.494,0.932-2.458,1.06c1.269,0.113,2.349,0.555,3.241,1.326
			c0.892,0.771,1.337,1.898,1.337,3.385s-0.735,2.65-2.205,3.494C17.859,24.971,15.718,25.4,12.907,25.417z M19.533,12.188
			c0-0.899-0.514-1.59-1.542-2.072c-1.028-0.481-2.434-0.723-4.216-0.723v6.12C17.614,15.466,19.533,14.356,19.533,12.188z
			 M20.642,20.501c0-0.835-0.233-1.533-0.699-2.096s-1.092-0.964-1.879-1.205c-1.317-0.434-2.739-0.65-4.265-0.65v7.951
			c1.301-0.016,2.425-0.164,3.373-0.445s1.663-0.639,2.145-1.072C20.2,22.163,20.642,21.337,20.642,20.501z"/>
		<path fill="#3C3C3B" d="M25.147,25.345h-0.892V8.526h0.892V25.345z"/>
		<path fill="#3C3C3B" d="M38.953,17.056c0,2.65-0.45,4.695-1.35,6.133s-2.201,2.156-3.903,2.156s-3.052-0.727-4.048-2.182
			c-0.996-1.453-1.494-3.518-1.494-6.191c0-2.675,0.49-4.779,1.47-6.312c0.979-1.534,2.345-2.302,4.096-2.302
			c1.044,0,1.931,0.27,2.662,0.808s1.273,1.265,1.626,2.18C38.64,13.032,38.953,14.936,38.953,17.056z M38.062,16.646
			c0-2.232-0.377-4.015-1.132-5.348c-0.755-1.334-1.84-2-3.253-2c-1.414,0-2.538,0.662-3.373,1.987
			c-0.835,1.325-1.253,3.225-1.253,5.698c0,2.875,0.65,4.988,1.952,6.337c0.723,0.739,1.55,1.108,2.481,1.108
			s1.695-0.209,2.289-0.627c0.594-0.417,1.052-0.995,1.374-1.734C37.756,20.687,38.062,18.879,38.062,16.646z"/>
		<path fill="#3C3C3B" d="M49.964,12.213l-0.891-0.024c-0.145-0.867-0.503-1.554-1.072-2.061c-0.57-0.506-1.209-0.758-1.916-0.758
			c-1.189,0-2.129,0.605-2.819,1.818c-0.691,1.213-1.036,2.606-1.036,4.181c0,3.196,0.55,5.478,1.65,6.843
			c1.101,1.365,2.832,2.112,5.193,2.24v-6.625h-2.361v-0.893h3.252v8.434c-2.329,0-4.064-0.346-5.204-1.036
			c-0.45-0.272-0.903-0.658-1.361-1.156c-0.458-0.497-0.831-1.093-1.121-1.783c-0.626-1.558-0.939-3.573-0.939-6.048
			c0-1.172,0.16-2.225,0.482-3.156c0.321-0.932,0.723-1.654,1.205-2.168c0.98-1.028,1.967-1.543,2.964-1.543
			c0.995,0,1.906,0.402,2.734,1.205C49.55,10.486,49.964,11.329,49.964,12.213z"/>
		<path fill="#3C3C3B" d="M61.674,9.731v15.613h-0.892v-7.951h-6.843v7.951h-0.892V14.31c0-1.735,0.555-3.157,1.662-4.266
			c1.109-1.107,2.498-1.662,4.169-1.662C60.099,8.382,61.031,8.831,61.674,9.731z M60.782,16.501v-6.433
			c-0.514-0.53-1.164-0.795-1.951-0.795c-1.414,0-2.582,0.515-3.506,1.542s-1.386,2.201-1.386,3.518v2.168H60.782z"/>
		<path fill="#3C3C3B" d="M70.854,22.79c0.723-0.627,1.085-1.389,1.085-2.289c0-0.898-0.262-1.617-0.783-2.156
			c-0.523-0.538-1.153-0.939-1.893-1.205c-0.738-0.265-1.48-0.533-2.229-0.807c-0.746-0.273-1.381-0.688-1.902-1.241
			c-0.523-0.554-0.783-1.265-0.783-2.132c0-1.51,0.421-2.635,1.264-3.373c0.844-0.739,1.852-1.109,3.024-1.109
			s2.458,0.113,3.855,0.338v0.892c-1.253-0.226-2.426-0.337-3.519-0.337c-1.092,0-1.987,0.305-2.686,0.915
			c-0.699,0.61-1.049,1.47-1.049,2.578c0,0.964,0.498,1.687,1.494,2.169c0.449,0.225,0.943,0.434,1.482,0.626
			c0.537,0.192,1.08,0.409,1.626,0.65s1.04,0.526,1.481,0.855s0.803,0.787,1.084,1.374c0.281,0.586,0.422,1.269,0.422,2.047
			c0,0.779-0.181,1.467-0.542,2.061c-0.361,0.595-0.808,1.061-1.337,1.397c-0.53,0.337-1.148,0.61-1.855,0.819
			c-1.141,0.354-2.426,0.53-3.855,0.53h-0.602v-0.892C67.496,24.501,69.568,23.931,70.854,22.79z"/>
	</g>
</g>
</svg>
