<?xml version="1.0" encoding="utf-8"?>
<!-- Generator: Adobe Illustrator 15.0.2, SVG Export Plug-In . SVG Version: 6.00 Build 0)  -->
<!DOCTYPE svg PUBLIC "-//W3C//DTD SVG 1.1//EN" "http://www.w3.org/Graphics/SVG/1.1/DTD/svg11.dtd">
<svg version="1.1" id="Lager_1" xmlns="http://www.w3.org/2000/svg" xmlns:xlink="http://www.w3.org/1999/xlink" x="0px" y="0px"
	 width="117.172px" height="33.953px" viewBox="0 0 117.172 33.953" enable-background="new 0 0 117.172 33.953"
	 xml:space="preserve">
<g>
	<rect fill="#FFFFFF" enable-background="new    " width="117.172" height="33.953"/>
	<g>
		<path fill="#3C3C3B" d="M14.554,25.344h-0.892V8.479h8.626V9.37h-7.734v6.168h7.734v0.893h-7.734V25.344z"/>
		<path fill="#3C3C3B" d="M35.179,17.056c0,2.65-0.45,4.694-1.35,6.131c-0.9,1.438-2.201,2.156-3.903,2.156
			c-1.702,0-3.052-0.727-4.048-2.18c-0.996-1.454-1.494-3.518-1.494-6.193c0-2.674,0.49-4.777,1.47-6.312
			c0.979-1.533,2.345-2.301,4.096-2.301c1.044,0,1.931,0.27,2.662,0.807c0.731,0.539,1.273,1.266,1.626,2.182
			C34.865,13.031,35.179,14.936,35.179,17.056z M34.287,16.646c0-2.232-0.377-4.016-1.132-5.35c-0.755-1.333-1.84-2-3.253-2
			c-1.414,0-2.538,0.663-3.373,1.988c-0.835,1.325-1.253,3.225-1.253,5.698c0,2.875,0.65,4.987,1.952,6.336
			c0.723,0.738,1.55,1.109,2.481,1.109s1.695-0.209,2.289-0.627c0.594-0.418,1.052-0.996,1.374-1.734
			C33.982,20.686,34.287,18.879,34.287,16.646z M27.251,5.346h0.916v1.59h-0.916V5.346z M31.348,5.346h0.916v1.59h-0.916V5.346z"/>
		<path fill="#3C3C3B" d="M46.84,25.344h-1.084l-4.674-7.156c-0.594,0.082-1.253,0.138-1.976,0.17v6.986h-0.892V8.454
			c5.381,0.017,8.072,1.63,8.072,4.843c0,2.586-1.414,4.168-4.241,4.746L46.84,25.344z M39.106,17.393l0.241,0.024
			c4.032-0.063,6.048-1.413,6.048-4.048c0-0.738-0.173-1.354-0.518-1.844c-0.346-0.489-0.735-0.871-1.168-1.145
			c-1.028-0.642-2.562-0.979-4.602-1.012L39.106,17.393L39.106,17.393z"/>
		<path fill="#3C3C3B" d="M49.972,9.996v15.348H49.08V8.454h1.277l6.457,14.843V8.479h0.892v16.865h-0.892L49.972,9.996z"/>
		<path fill="#3C3C3B" d="M61.417,22.936l0.964,0.023c0.562,1.027,1.369,1.542,2.422,1.542c1.051,0,1.915-0.422,2.59-1.265
			c0.674-0.844,1.012-2.092,1.012-3.748v-2.071c-0.771,1.188-1.898,1.783-3.385,1.783c-1.485,0-2.582-0.569-3.289-1.712
			c-0.707-1.139-1.061-2.529-1.061-4.167V8.479h0.893v4.818c0,1.654,0.32,2.903,0.963,3.746c0.644,0.844,1.41,1.266,2.302,1.266
			s1.653-0.266,2.289-0.795c0.635-0.53,1.063-1.316,1.288-2.361V8.479h0.893v11.035c0,1.832-0.378,3.27-1.132,4.312
			c-0.756,1.045-1.89,1.566-3.397,1.566C63.258,25.393,62.141,24.572,61.417,22.936z"/>
		<path fill="#3C3C3B" d="M72.861,25.416L72.838,8.479c2.489,0.08,4.369,0.422,5.639,1.023c1.269,0.603,1.902,1.502,1.902,2.699
			c0,1.196-0.338,2.084-1.012,2.662c-0.676,0.578-1.494,0.932-2.458,1.061c1.269,0.111,2.349,0.554,3.241,1.324
			c0.891,0.771,1.336,1.9,1.336,3.386c0,1.486-0.734,2.65-2.203,3.493C77.812,24.971,75.672,25.4,72.861,25.416z M79.486,12.188
			c0-0.899-0.514-1.59-1.541-2.071c-1.028-0.482-2.434-0.724-4.217-0.724v6.12C77.568,15.465,79.486,14.357,79.486,12.188z
			 M80.596,20.502c0-0.836-0.232-1.535-0.699-2.098c-0.465-0.562-1.092-0.963-1.879-1.204c-1.316-0.434-2.738-0.65-4.265-0.65v7.951
			c1.302-0.017,2.425-0.165,3.373-0.446c0.948-0.279,1.663-0.639,2.146-1.072C80.154,22.164,80.596,21.336,80.596,20.502z"/>
		<path fill="#3C3C3B" d="M92.691,9.73v15.614h-0.894v-7.952h-6.842v7.952h-0.894V14.309c0-1.734,0.556-3.156,1.664-4.264
			c1.107-1.109,2.496-1.663,4.168-1.663C91.116,8.382,92.049,8.832,92.691,9.73z M91.799,16.502v-6.434
			c-0.514-0.53-1.164-0.795-1.951-0.795c-1.414,0-2.582,0.514-3.506,1.542c-0.924,1.028-1.385,2.2-1.385,3.518v2.169H91.799z"/>
		<path fill="#3C3C3B" d="M104.932,25.344h-1.086l-4.674-7.156c-0.594,0.082-1.253,0.138-1.977,0.17v6.986h-0.891V8.454
			c5.381,0.017,8.071,1.63,8.071,4.843c0,2.586-1.414,4.168-4.241,4.746L104.932,25.344z M97.195,17.393l0.242,0.024
			c4.03-0.063,6.047-1.413,6.047-4.048c0-0.738-0.172-1.354-0.519-1.844c-0.346-0.489-0.733-0.871-1.168-1.145
			c-1.028-0.642-2.562-0.979-4.603-1.012V17.393L97.195,17.393z"/>
	</g>
</g>
</svg>
