<?xml version="1.0" encoding="utf-8"?>
<!-- Generator: Adobe Illustrator 15.0.2, SVG Export Plug-In . SVG Version: 6.00 Build 0)  -->
<!DOCTYPE svg PUBLIC "-//W3C//DTD SVG 1.1//EN" "http://www.w3.org/Graphics/SVG/1.1/DTD/svg11.dtd">
<svg version="1.1" id="Lager_1" xmlns="http://www.w3.org/2000/svg" xmlns:xlink="http://www.w3.org/1999/xlink" x="0px" y="0px"
	 width="93.586px" height="33.953px" viewBox="0 0 93.586 33.953" enable-background="new 0 0 93.586 33.953" xml:space="preserve">
<g>
	<rect opacity="0.6" fill="#FFFFFF" width="93.586" height="33.953"/>
	<g>
		<path fill="#3C3C3B" d="M24.265,25.344h-1.084l-4.674-7.156c-0.594,0.081-1.253,0.137-1.976,0.17v6.986h-0.892V8.454
			c5.381,0.017,8.072,1.63,8.072,4.843c0,2.586-1.414,4.168-4.241,4.746L24.265,25.344z M16.531,17.393l0.241,0.024
			c4.032-0.063,6.048-1.413,6.048-4.048c0-0.738-0.173-1.354-0.518-1.844c-0.346-0.489-0.735-0.871-1.168-1.145
			c-1.028-0.642-2.562-0.979-4.602-1.012V17.393z"/>
		<path fill="#3C3C3B" d="M26.505,25.344V8.479h8.626v0.891h-7.734v6.168h7.734v0.893h-7.734v8.023h7.734v0.891H26.505z"/>
		<path fill="#3C3C3B" d="M43.612,22.79c0.723-0.626,1.084-1.39,1.084-2.288c0-0.9-0.261-1.619-0.783-2.157
			c-0.522-0.538-1.153-0.939-1.892-1.204c-0.739-0.266-1.481-0.534-2.229-0.808c-0.747-0.272-1.382-0.687-1.903-1.241
			c-0.522-0.554-0.783-1.265-0.783-2.133c0-1.509,0.421-2.633,1.265-3.373c0.844-0.738,1.852-1.107,3.024-1.107
			s2.458,0.112,3.855,0.337v0.892c-1.253-0.225-2.426-0.338-3.518-0.338s-1.988,0.306-2.687,0.916
			c-0.699,0.611-1.048,1.47-1.048,2.578c0,0.964,0.498,1.687,1.494,2.168c0.45,0.226,0.943,0.434,1.482,0.627
			c0.538,0.193,1.08,0.41,1.626,0.65c0.546,0.241,1.04,0.526,1.481,0.855c0.442,0.33,0.803,0.787,1.084,1.373
			c0.281,0.587,0.421,1.27,0.421,2.049s-0.181,1.466-0.542,2.06c-0.361,0.595-0.807,1.061-1.337,1.397
			c-0.53,0.338-1.148,0.611-1.855,0.819c-1.141,0.354-2.426,0.53-3.855,0.53h-0.603v-0.892
			C40.255,24.501,42.327,23.932,43.612,22.79z"/>
		<path fill="#3C3C3B" d="M55.756,23.838c-0.738,1.037-1.823,1.555-3.252,1.555c-1.431,0-2.498-0.57-3.205-1.711
			s-1.061-2.529-1.061-4.168V8.479h0.892v11.011c0,1.639,0.333,2.884,1,3.735s1.478,1.276,2.434,1.276s1.763-0.422,2.421-1.265
			c0.659-0.844,0.988-2.092,0.988-3.747V8.479h0.892v11.035C56.864,21.361,56.494,22.803,55.756,23.838z"/>
		<path fill="#3C3C3B" d="M69.057,25.344h-1.085l-4.675-7.156c-0.594,0.081-1.252,0.137-1.975,0.17v6.986H60.43V8.454
			c5.381,0.017,8.072,1.63,8.072,4.843c0,2.586-1.414,4.168-4.24,4.746L69.057,25.344z M61.322,17.393l0.24,0.024
			c4.031-0.063,6.048-1.413,6.048-4.048c0-0.738-0.173-1.354-0.519-1.844c-0.346-0.489-0.734-0.871-1.168-1.145
			c-1.028-0.642-2.562-0.979-4.602-1.012V17.393z"/>
		<path fill="#3C3C3B" d="M76.862,22.79c0.723-0.626,1.085-1.39,1.085-2.288c0-0.9-0.262-1.619-0.783-2.157
			c-0.523-0.538-1.153-0.939-1.893-1.204c-0.738-0.266-1.48-0.534-2.229-0.808c-0.746-0.272-1.381-0.687-1.902-1.241
			c-0.523-0.554-0.783-1.265-0.783-2.133c0-1.509,0.421-2.633,1.264-3.373c0.844-0.738,1.852-1.107,3.024-1.107
			s2.458,0.112,3.855,0.337v0.892c-1.253-0.225-2.426-0.338-3.519-0.338c-1.092,0-1.987,0.306-2.686,0.916
			c-0.699,0.611-1.049,1.47-1.049,2.578c0,0.964,0.498,1.687,1.494,2.168c0.449,0.226,0.943,0.434,1.482,0.627
			c0.537,0.193,1.08,0.41,1.626,0.65c0.546,0.241,1.04,0.526,1.481,0.855c0.441,0.33,0.803,0.787,1.084,1.373
			c0.281,0.587,0.422,1.27,0.422,2.049s-0.181,1.466-0.542,2.06c-0.361,0.595-0.808,1.061-1.337,1.397
			c-0.53,0.338-1.148,0.611-1.855,0.819c-1.141,0.354-2.426,0.53-3.855,0.53h-0.602v-0.892
			C73.505,24.501,75.577,23.932,76.862,22.79z"/>
	</g>
</g>
</svg>
