<?xml version="1.0" encoding="utf-8"?>
<!-- Generator: Adobe Illustrator 15.0.2, SVG Export Plug-In . SVG Version: 6.00 Build 0)  -->
<!DOCTYPE svg PUBLIC "-//W3C//DTD SVG 1.1//EN" "http://www.w3.org/Graphics/SVG/1.1/DTD/svg11.dtd">
<svg version="1.1" id="Lager_1" xmlns="http://www.w3.org/2000/svg" xmlns:xlink="http://www.w3.org/1999/xlink" x="0px" y="0px"
	 width="136.656px" height="33.953px" viewBox="0 0 136.656 33.953" enable-background="new 0 0 136.656 33.953"
	 xml:space="preserve">
<g>
	<rect fill="#36895B" width="136.656" height="33.953"/>
	<g>
		<path fill="#FFFFFF" d="M9.484,25.119L9.461,8.951c2.377,0.076,4.17,0.402,5.382,0.977c1.211,0.576,1.817,1.434,1.817,2.576
			s-0.322,1.99-0.967,2.541c-0.644,0.553-1.426,0.891-2.346,1.012c1.211,0.107,2.242,0.529,3.094,1.266s1.276,1.814,1.276,3.232
			s-0.702,2.529-2.104,3.334S12.167,25.104,9.484,25.119z M15.809,12.492c0-0.857-0.49-1.518-1.472-1.979
			c-0.981-0.459-2.323-0.689-4.024-0.689v5.842C13.977,15.621,15.809,14.562,15.809,12.492z M16.867,20.428
			c0-0.797-0.223-1.465-0.668-2.002c-0.444-0.535-1.043-0.92-1.793-1.148c-1.258-0.414-2.615-0.621-4.071-0.621v7.59
			c1.241-0.016,2.315-0.158,3.22-0.426s1.587-0.609,2.047-1.023C16.445,22.014,16.867,21.225,16.867,20.428z"/>
		<path fill="#FFFFFF" d="M21.168,25.051h-0.852V8.996h0.852V25.051z"/>
		<path fill="#FFFFFF" d="M34.347,17.139c0,2.529-0.43,4.48-1.288,5.854c-0.859,1.373-2.102,2.059-3.727,2.059
			s-2.913-0.693-3.863-2.082c-0.951-1.387-1.426-3.357-1.426-5.91s0.467-4.562,1.402-6.027c0.936-1.463,2.238-2.195,3.91-2.195
			c0.996,0,1.844,0.256,2.541,0.77c0.698,0.514,1.216,1.209,1.553,2.082C34.047,13.297,34.347,15.115,34.347,17.139z M33.496,16.748
			c0-2.131-0.361-3.834-1.082-5.107c-0.721-1.271-1.756-1.908-3.104-1.908c-1.35,0-2.423,0.633-3.22,1.898
			c-0.798,1.264-1.196,3.078-1.196,5.439c0,2.744,0.621,4.76,1.862,6.049c0.69,0.705,1.48,1.057,2.369,1.057
			c0.89,0,1.618-0.199,2.186-0.598c0.566-0.398,1.004-0.949,1.311-1.656C33.204,20.604,33.496,18.879,33.496,16.748z"/>
		<path fill="#FFFFFF" d="M45.479,17.322c0,1.135-0.138,2.174-0.414,3.117c-0.275,0.943-0.648,1.705-1.115,2.287
			c-0.469,0.584-1.062,1.051-1.783,1.404c-1.303,0.658-2.943,0.988-4.922,0.988V8.928c2.102,0,3.757,0.314,4.969,0.943
			c1.043,0.551,1.824,1.371,2.346,2.461C45.172,13.59,45.479,15.252,45.479,17.322z M44.627,17.07c0-4.83-2.177-7.246-6.531-7.246
			v14.422c2.484-0.031,4.217-0.744,5.197-2.139C44.183,20.85,44.627,19.17,44.627,17.07z"/>
		<path fill="#FFFFFF" d="M56.564,25.051h-1.035l-4.462-6.832c-0.567,0.078-1.196,0.131-1.886,0.162v6.67H48.33V8.928
			c5.137,0.016,7.705,1.557,7.705,4.623c0,2.469-1.35,3.979-4.048,4.531L56.564,25.051z M49.182,17.461l0.23,0.023
			c3.848-0.062,5.772-1.35,5.772-3.865c0-0.705-0.165-1.291-0.495-1.76c-0.329-0.467-0.701-0.83-1.115-1.092
			c-0.98-0.613-2.445-0.936-4.393-0.967V17.461z"/>
		<path fill="#FFFFFF" d="M59.555,25.051h-0.852V8.996h0.852V25.051z"/>
		<path fill="#FFFFFF" d="M65.441,25.051l-3.473-16.1h0.852l3.196,14.719l3.197-14.719h0.851l-3.427,16.1H65.441z"/>
		<path fill="#FFFFFF" d="M81.727,25.051l0.045-14.766l-3.841,8.809h-0.782l-3.84-8.809v14.766h-0.806V8.928h1.104l3.933,9.016
			l3.909-9.016h1.127v16.123H81.727z"/>
		<path fill="#FFFFFF" d="M86.072,25.051v-16.1h8.234v0.85h-7.383v5.889h7.383v0.852h-7.383v7.658h7.383v0.852H86.072z"/>
		<path fill="#FFFFFF" d="M105.323,17.322c0,1.135-0.138,2.174-0.414,3.117s-0.647,1.705-1.115,2.287
			c-0.468,0.584-1.062,1.051-1.782,1.404c-1.304,0.658-2.944,0.988-4.922,0.988V8.928c2.1,0,3.756,0.314,4.967,0.943
			c1.043,0.551,1.825,1.371,2.347,2.461C105.017,13.59,105.323,15.252,105.323,17.322z M104.473,17.07
			c0-4.83-2.178-7.246-6.532-7.246v14.422c2.483-0.031,4.216-0.744,5.198-2.139C104.027,20.85,104.473,19.17,104.473,17.07z"/>
		<path fill="#FFFFFF" d="M108.176,25.051v-16.1h8.233v0.85h-7.383v5.889h7.383v0.852h-7.383v7.658h7.383v0.852H108.176z"/>
		<path fill="#FFFFFF" d="M127.195,25.051h-8.004v-16.1h0.852v15.248h7.152V25.051z"/>
	</g>
</g>
</svg>
