<?xml version="1.0" encoding="utf-8"?>
<!-- Generator: Adobe Illustrator 15.0.2, SVG Export Plug-In . SVG Version: 6.00 Build 0)  -->
<!DOCTYPE svg PUBLIC "-//W3C//DTD SVG 1.1//EN" "http://www.w3.org/Graphics/SVG/1.1/DTD/svg11.dtd">
<svg version="1.1" id="Lager_1" xmlns="http://www.w3.org/2000/svg" xmlns:xlink="http://www.w3.org/1999/xlink" x="0px" y="0px"
	 width="48.512px" height="33.953px" viewBox="0 0 48.512 33.953" enable-background="new 0 0 48.512 33.953" xml:space="preserve">
<g>
	<rect opacity="0.6" fill="#FFFFFF" width="48.512" height="33.953"/>
	<g>
		<path fill="#3C3C3B" d="M18.221,9.731v15.613h-0.892v-7.951h-6.843v7.951H9.595V14.31c0-1.734,0.554-3.157,1.663-4.266
			c1.108-1.107,2.498-1.662,4.168-1.662C16.646,8.382,17.578,8.831,18.221,9.731z M17.329,16.501v-6.433
			c-0.514-0.53-1.165-0.795-1.952-0.795c-1.414,0-2.582,0.515-3.506,1.542s-1.385,2.201-1.385,3.518v2.168H17.329z M11.522,5.346
			h0.916v1.591h-0.916V5.346z M15.619,5.346h0.916v1.591h-0.916V5.346z"/>
		<path fill="#3C3C3B" d="M25.063,25.345h-0.892V9.37h-3.855V8.478h8.626V9.37h-3.879V25.345z"/>
		<path fill="#3C3C3B" d="M38.821,9.731v15.613H37.93v-7.951h-6.843v7.951h-0.892V14.31c0-1.734,0.555-3.157,1.662-4.266
			c1.109-1.107,2.498-1.662,4.169-1.662C37.246,8.382,38.179,8.831,38.821,9.731z M37.93,16.501v-6.433
			c-0.514-0.53-1.164-0.795-1.951-0.795c-1.414,0-2.582,0.515-3.506,1.542s-1.386,2.201-1.386,3.518v2.168H37.93z"/>
	</g>
</g>
</svg>
