<?xml version="1.0" encoding="utf-8"?>
<!-- Generator: Adobe Illustrator 15.0.2, SVG Export Plug-In . SVG Version: 6.00 Build 0)  -->
<!DOCTYPE svg PUBLIC "-//W3C//DTD SVG 1.1//EN" "http://www.w3.org/Graphics/SVG/1.1/DTD/svg11.dtd">
<svg version="1.1" id="Lager_1" xmlns="http://www.w3.org/2000/svg" xmlns:xlink="http://www.w3.org/1999/xlink" x="0px" y="0px"
	 width="54.666px" height="33.953px" viewBox="0 0 54.666 33.953" enable-background="new 0 0 54.666 33.953" xml:space="preserve">
<g>
	<rect fill="#FFFFFF" enable-background="new    " width="54.666" height="33.953"/>
	<g>
		<path fill="#3C3C3B" d="M20.333,12.213l-0.892-0.024c-0.145-0.867-0.502-1.554-1.072-2.061C17.8,9.622,17.16,9.37,16.453,9.37
			c-1.188,0-2.128,0.605-2.818,1.818c-0.691,1.213-1.036,2.606-1.036,4.181c0,3.195,0.55,5.479,1.649,6.843
			c1.101,1.365,2.831,2.112,5.192,2.24v-6.625h-2.361v-0.893h3.253v8.434c-2.33,0-4.063-0.347-5.205-1.036
			c-0.449-0.271-0.902-0.658-1.36-1.156c-0.458-0.496-0.831-1.093-1.121-1.783c-0.627-1.558-0.94-3.572-0.94-6.047
			c0-1.172,0.16-2.225,0.482-3.156c0.321-0.932,0.723-1.654,1.205-2.168c0.979-1.028,1.967-1.543,2.964-1.543
			c0.996,0,1.907,0.402,2.734,1.205C19.919,10.486,20.333,11.329,20.333,12.213z"/>
		<path fill="#3C3C3B" d="M32.042,9.731v15.613h-0.891v-7.951h-6.843v7.951h-0.892V14.31c0-1.735,0.555-3.157,1.663-4.266
			c1.108-1.107,2.498-1.662,4.168-1.662C30.468,8.382,31.399,8.831,32.042,9.731z M31.151,16.501v-6.433
			c-0.516-0.53-1.165-0.795-1.952-0.795c-1.414,0-2.582,0.515-3.506,1.542c-0.924,1.027-1.385,2.201-1.385,3.518v2.168H31.151z"/>
		<path fill="#3C3C3B" d="M41.222,22.79c0.724-0.627,1.086-1.39,1.086-2.289c0-0.897-0.262-1.617-0.783-2.155
			c-0.522-0.539-1.153-0.94-1.893-1.206c-0.738-0.265-1.48-0.533-2.229-0.807s-1.383-0.688-1.903-1.241
			c-0.521-0.554-0.782-1.265-0.782-2.132c0-1.51,0.422-2.635,1.266-3.373c0.844-0.739,1.852-1.109,3.023-1.109
			s2.459,0.113,3.854,0.338v0.892c-1.252-0.226-2.426-0.337-3.518-0.337c-1.094,0-1.988,0.305-2.688,0.915s-1.048,1.47-1.048,2.578
			c0,0.964,0.498,1.688,1.494,2.169c0.449,0.225,0.941,0.434,1.479,0.626c0.538,0.192,1.08,0.409,1.626,0.65
			c0.549,0.241,1.04,0.526,1.482,0.855c0.441,0.329,0.803,0.787,1.084,1.374c0.281,0.586,0.422,1.269,0.422,2.047
			s-0.182,1.468-0.543,2.062c-0.361,0.596-0.807,1.062-1.338,1.396c-0.529,0.335-1.147,0.609-1.854,0.818
			c-1.142,0.354-2.427,0.531-3.855,0.531h-0.598V24.5C37.864,24.501,39.937,23.932,41.222,22.79z"/>
	</g>
</g>
</svg>
