<?xml version="1.0" encoding="utf-8"?>
<!-- Generator: Adobe Illustrator 15.0.2, SVG Export Plug-In . SVG Version: 6.00 Build 0)  -->
<!DOCTYPE svg PUBLIC "-//W3C//DTD SVG 1.1//EN" "http://www.w3.org/Graphics/SVG/1.1/DTD/svg11.dtd">
<svg version="1.1" id="Lager_1" xmlns="http://www.w3.org/2000/svg" xmlns:xlink="http://www.w3.org/1999/xlink" x="0px" y="0px"
	 width="79.383px" height="33.954px" viewBox="0 0 79.383 33.954" enable-background="new 0 0 79.383 33.954" xml:space="preserve">
<rect fill="#36895B" width="79.383" height="33.954"/>
<g>
	<path fill="#FFFFFF" d="M11.103,25.119L11.08,8.95c2.376,0.077,4.17,0.403,5.382,0.978c1.211,0.575,1.817,1.434,1.817,2.576
		s-0.322,1.989-0.966,2.541c-0.644,0.553-1.426,0.89-2.346,1.012c1.211,0.107,2.243,0.529,3.094,1.266s1.276,1.813,1.276,3.231
		c0,1.419-0.702,2.53-2.104,3.335S13.786,25.104,11.103,25.119z M17.428,12.492c0-0.858-0.491-1.518-1.472-1.979
		c-0.981-0.459-2.323-0.689-4.025-0.689v5.842C15.595,15.62,17.428,14.562,17.428,12.492z M18.485,20.428
		c0-0.797-0.222-1.465-0.667-2.002c-0.445-0.536-1.043-0.92-1.794-1.149c-1.257-0.414-2.614-0.621-4.071-0.621v7.59
		c1.242-0.015,2.315-0.157,3.22-0.425c0.905-0.269,1.587-0.609,2.047-1.023C18.063,22.014,18.485,21.225,18.485,20.428z"/>
	<path fill="#FFFFFF" d="M22.787,25.051h-0.851V8.996h0.851V25.051z"/>
	<path fill="#FFFFFF" d="M35.965,17.139c0,2.529-0.43,4.48-1.288,5.854c-0.859,1.372-2.101,2.059-3.726,2.059
		c-1.625,0-2.914-0.693-3.864-2.082c-0.951-1.388-1.426-3.357-1.426-5.911c0-2.553,0.468-4.562,1.403-6.026
		c0.936-1.463,2.239-2.195,3.91-2.195c0.997,0,1.844,0.256,2.542,0.77s1.215,1.208,1.553,2.082
		C35.666,13.297,35.965,15.114,35.965,17.139z M35.114,16.747c0-2.131-0.36-3.833-1.081-5.106c-0.721-1.271-1.756-1.908-3.105-1.908
		c-1.35,0-2.423,0.633-3.22,1.897s-1.196,3.078-1.196,5.439c0,2.745,0.621,4.761,1.863,6.049c0.69,0.706,1.479,1.058,2.369,1.058
		c0.889,0,1.618-0.199,2.185-0.598c0.567-0.398,1.004-0.95,1.311-1.656C34.823,20.604,35.114,18.879,35.114,16.747z"/>
	<path fill="#FFFFFF" d="M46.476,12.516l-0.851-0.023c-0.138-0.828-0.479-1.483-1.023-1.967c-0.544-0.482-1.154-0.725-1.828-0.725
		c-1.135,0-2.032,0.58-2.691,1.736c-0.659,1.158-0.989,2.488-0.989,3.991c0,3.052,0.525,5.229,1.576,6.532
		c1.05,1.303,2.702,2.016,4.956,2.139v-6.324h-2.254v-0.852h3.105v8.05c-2.223,0-3.879-0.329-4.968-0.989
		c-0.43-0.26-0.863-0.629-1.3-1.104c-0.437-0.475-0.793-1.043-1.069-1.702c-0.598-1.487-0.897-3.411-0.897-5.772
		c0-1.119,0.153-2.124,0.46-3.014c0.307-0.889,0.69-1.579,1.15-2.07c0.935-0.98,1.878-1.472,2.829-1.472s1.821,0.384,2.61,1.149
		C46.081,10.867,46.476,11.672,46.476,12.516z"/>
	<path fill="#FFFFFF" d="M57.654,10.146v14.904h-0.851v-7.59h-6.532v7.59H49.42V14.516c0-1.655,0.529-3.012,1.587-4.07
		c1.058-1.059,2.384-1.587,3.979-1.587C56.151,8.858,57.041,9.287,57.654,10.146z M56.803,16.609v-6.141
		c-0.491-0.506-1.112-0.76-1.863-0.76c-1.349,0-2.465,0.491-3.346,1.473c-0.882,0.98-1.323,2.101-1.323,3.357v2.07H56.803z"/>
	<path fill="#FFFFFF" d="M66.417,22.612c0.69-0.599,1.035-1.326,1.035-2.185c0-0.859-0.25-1.545-0.748-2.059
		c-0.499-0.514-1.101-0.897-1.806-1.15c-0.706-0.253-1.415-0.51-2.127-0.771s-1.319-0.655-1.817-1.185
		c-0.499-0.529-0.748-1.207-0.748-2.035c0-1.441,0.402-2.515,1.208-3.221c0.805-0.705,1.767-1.058,2.886-1.058
		s2.346,0.107,3.68,0.322v0.851c-1.196-0.215-2.315-0.322-3.358-0.322c-1.043,0-1.897,0.292-2.564,0.875
		c-0.667,0.582-1,1.402-1,2.461c0,0.92,0.475,1.609,1.426,2.069c0.429,0.216,0.901,0.414,1.415,0.599
		c0.514,0.184,1.031,0.391,1.553,0.621c0.521,0.229,0.992,0.502,1.414,0.816s0.767,0.751,1.035,1.311
		c0.268,0.561,0.402,1.211,0.402,1.955s-0.172,1.399-0.517,1.967c-0.345,0.566-0.771,1.012-1.277,1.334
		c-0.506,0.322-1.096,0.582-1.771,0.781c-1.089,0.338-2.315,0.506-3.68,0.506h-0.575v-0.851
		C63.212,24.245,65.19,23.701,66.417,22.612z"/>
</g>
</svg>
