<?xml version="1.0" encoding="utf-8"?>
<!-- Generator: Adobe Illustrator 15.0.2, SVG Export Plug-In . SVG Version: 6.00 Build 0)  -->
<!DOCTYPE svg PUBLIC "-//W3C//DTD SVG 1.1//EN" "http://www.w3.org/Graphics/SVG/1.1/DTD/svg11.dtd">
<svg version="1.1" id="Lager_1" xmlns="http://www.w3.org/2000/svg" xmlns:xlink="http://www.w3.org/1999/xlink" x="0px" y="0px"
	 width="84.746px" height="33.953px" viewBox="0 0 84.746 33.953" enable-background="new 0 0 84.746 33.953" xml:space="preserve">
<g>
	<rect fill="#FFFFFF" enable-background="new    " width="84.746" height="33.953"/>
	<g>
		<path fill="#3C3C3B" d="M17.183,22.79c0.723-0.627,1.084-1.39,1.084-2.289c0-0.897-0.261-1.617-0.783-2.155
			c-0.522-0.539-1.153-0.94-1.892-1.206c-0.739-0.265-1.481-0.533-2.229-0.807c-0.748-0.274-1.382-0.688-1.903-1.241
			c-0.522-0.554-0.783-1.265-0.783-2.132c0-1.51,0.421-2.635,1.265-3.373c0.844-0.739,1.852-1.109,3.024-1.109
			c1.172,0,2.458,0.113,3.855,0.338v0.892c-1.253-0.226-2.426-0.337-3.518-0.337c-1.092,0-1.988,0.305-2.687,0.915
			c-0.699,0.61-1.048,1.47-1.048,2.578c0,0.964,0.498,1.688,1.494,2.169c0.45,0.225,0.943,0.434,1.482,0.626
			c0.538,0.192,1.08,0.409,1.626,0.65c0.546,0.241,1.04,0.526,1.481,0.855s0.803,0.787,1.084,1.374
			c0.281,0.586,0.421,1.269,0.421,2.047s-0.181,1.468-0.542,2.062c-0.361,0.595-0.807,1.061-1.337,1.396
			c-0.53,0.337-1.148,0.609-1.855,0.818c-1.141,0.354-2.426,0.531-3.855,0.531h-0.603V24.5
			C13.825,24.501,15.897,23.932,17.183,22.79z"/>
		<path fill="#3C3C3B" d="M30.314,25.346h-8.385V8.478h0.892v15.975h7.493V25.346z"/>
		<path fill="#3C3C3B" d="M38.892,23.839c-0.739,1.035-1.823,1.554-3.252,1.554c-1.43,0-2.498-0.57-3.205-1.711
			c-0.707-1.14-1.06-2.529-1.06-4.168V8.478h0.891V19.49c0,1.639,0.333,2.883,1,3.734c0.667,0.851,1.478,1.276,2.434,1.276
			c0.956,0,1.763-0.422,2.421-1.267c0.659-0.842,0.988-2.092,0.988-3.746V8.478H40v11.036C40,21.359,39.63,22.803,38.892,23.839z"/>
		<path fill="#3C3C3B" d="M52.191,25.346h-1.084l-4.674-7.156c-0.595,0.08-1.254,0.137-1.977,0.168v6.988h-0.893V8.454
			c5.381,0.016,8.072,1.631,8.072,4.843c0,2.587-1.414,4.169-4.24,4.747L52.191,25.346z M44.458,17.394l0.241,0.023
			c4.031-0.064,6.047-1.413,6.047-4.048c0-0.738-0.172-1.353-0.518-1.843c-0.347-0.49-0.734-0.871-1.168-1.145
			c-1.029-0.643-2.562-0.98-4.604-1.012L44.458,17.394L44.458,17.394z"/>
		<path fill="#3C3C3B" d="M63.059,25.346h-1.084l-4.676-7.156c-0.595,0.08-1.253,0.137-1.977,0.168v6.988h-0.891V8.454
			c5.381,0.016,8.07,1.631,8.07,4.843c0,2.587-1.413,4.169-4.24,4.747L63.059,25.346z M55.324,17.394l0.24,0.023
			c4.031-0.064,6.049-1.413,6.049-4.048c0-0.738-0.174-1.353-0.52-1.843c-0.346-0.49-0.734-0.871-1.169-1.145
			c-1.026-0.643-2.562-0.98-4.602-1.012L55.324,17.394L55.324,17.394z"/>
		<path fill="#3C3C3B" d="M65.348,22.936l0.963,0.023c0.562,1.027,1.369,1.542,2.422,1.542c1.052,0,1.916-0.422,2.59-1.267
			c0.675-0.842,1.012-2.092,1.012-3.746v-2.071c-0.771,1.188-1.898,1.783-3.385,1.783c-1.487,0-2.582-0.57-3.289-1.712
			c-0.707-1.14-1.061-2.528-1.061-4.167V8.478h0.893v4.819c0,1.655,0.32,2.903,0.963,3.747c0.643,0.845,1.41,1.265,2.301,1.265
			c0.893,0,1.654-0.265,2.289-0.795c0.635-0.53,1.064-1.317,1.289-2.361V8.478h0.893v11.036c0,1.832-0.377,3.27-1.133,4.312
			c-0.756,1.044-1.888,1.566-3.396,1.566C67.186,25.393,66.07,24.572,65.348,22.936z"/>
	</g>
</g>
</svg>
