<?xml version="1.0" encoding="utf-8"?>
<!-- Generator: Adobe Illustrator 15.0.2, SVG Export Plug-In . SVG Version: 6.00 Build 0)  -->
<!DOCTYPE svg PUBLIC "-//W3C//DTD SVG 1.1//EN" "http://www.w3.org/Graphics/SVG/1.1/DTD/svg11.dtd">
<svg version="1.1" id="Lager_1" xmlns="http://www.w3.org/2000/svg" xmlns:xlink="http://www.w3.org/1999/xlink" x="0px" y="0px"
	 width="117.25px" height="33.953px" viewBox="0 0 117.25 33.953" enable-background="new 0 0 117.25 33.953" xml:space="preserve">
<g>
	<rect fill="#FFFFFF" enable-background="new    " width="117.25" height="33.953"/>
	<g>
		<path fill="#3C3C3B" d="M14.45,25.344h-0.892V9.369H9.703V8.477h8.626V9.37H14.45V25.344z"/>
		<path fill="#3C3C3B" d="M29.099,25.344h-1.084l-4.674-7.156c-0.594,0.08-1.253,0.138-1.976,0.168v6.988h-0.892V8.453
			c5.381,0.016,8.072,1.631,8.072,4.843c0,2.587-1.414,4.169-4.241,4.747L29.099,25.344z M21.364,17.393l0.241,0.023
			c4.032-0.064,6.048-1.413,6.048-4.048c0-0.738-0.173-1.353-0.518-1.843c-0.346-0.49-0.735-0.871-1.168-1.145
			c-1.028-0.643-2.562-0.98-4.602-1.012v8.025H21.364z"/>
		<path fill="#3C3C3B" d="M39.82,9.73v15.613h-0.892v-7.951h-6.843v7.951h-0.892V14.309c0-1.735,0.554-3.157,1.663-4.266
			c1.108-1.107,2.498-1.662,4.168-1.662C38.246,8.381,39.178,8.83,39.82,9.73z M38.929,16.5v-6.433
			c-0.514-0.53-1.165-0.795-1.952-0.795c-1.414,0-2.582,0.515-3.506,1.542c-0.924,1.027-1.385,2.201-1.385,3.518V16.5H38.929z"/>
		<path fill="#3C3C3B" d="M44.326,9.995v15.349h-0.892V8.453h1.277l6.457,14.841V8.477h0.892v16.867h-0.892L44.326,9.995z"/>
		<path fill="#3C3C3B" d="M61.29,22.789c0.723-0.627,1.084-1.389,1.084-2.289c0-0.897-0.263-1.617-0.783-2.155
			c-0.522-0.538-1.152-0.939-1.893-1.205c-0.739-0.265-1.481-0.533-2.229-0.807c-0.748-0.274-1.382-0.688-1.903-1.241
			c-0.522-0.554-0.783-1.265-0.783-2.132c0-1.51,0.421-2.635,1.265-3.373c0.844-0.739,1.852-1.109,3.024-1.109
			c1.173,0,2.458,0.113,3.856,0.338v0.893c-1.254-0.227-2.426-0.338-3.52-0.338c-1.092,0-1.988,0.305-2.687,0.915
			c-0.699,0.61-1.048,1.47-1.048,2.578c0,0.964,0.498,1.687,1.494,2.169c0.45,0.225,0.943,0.434,1.482,0.626
			c0.538,0.192,1.08,0.409,1.627,0.65c0.545,0.241,1.039,0.526,1.479,0.855c0.443,0.329,0.805,0.788,1.086,1.374
			c0.279,0.586,0.421,1.27,0.421,2.047c0,0.779-0.181,1.468-0.541,2.062c-0.361,0.595-0.808,1.062-1.339,1.397
			c-0.528,0.336-1.147,0.609-1.854,0.818c-1.141,0.354-2.426,0.53-3.855,0.53h-0.603V24.5C57.931,24.5,60.002,23.93,61.29,22.789z"
			/>
		<path fill="#3C3C3B" d="M66.926,18.21v7.134h-0.893V8.453c2.812,0.016,4.951,0.445,6.422,1.289
			c1.469,0.844,2.205,2.027,2.205,3.554c0,1.8-0.707,3.052-2.121,3.759c-0.481,0.258-0.908,0.45-1.276,0.577
			c-0.369,0.13-0.867,0.242-1.494,0.339C68.982,18.066,68.036,18.147,66.926,18.21z M66.926,17.32l0.24,0.023
			c4.4-0.064,6.603-1.389,6.603-3.976c0-0.964-0.44-1.823-1.325-2.577c-0.48-0.418-1.191-0.756-2.132-1.013
			c-0.94-0.257-2.067-0.394-3.386-0.409V17.32z"/>
		<path fill="#3C3C3B" d="M87.189,17.055c0,2.649-0.448,4.694-1.351,6.133c-0.897,1.438-2.199,2.156-3.901,2.156
			c-1.703,0-3.054-0.728-4.049-2.183c-0.996-1.453-1.493-3.518-1.493-6.19c0-2.675,0.488-4.779,1.471-6.312
			c0.979-1.534,2.346-2.302,4.096-2.302c1.045,0,1.932,0.27,2.662,0.808s1.272,1.265,1.627,2.18
			C86.875,13.031,87.189,14.935,87.189,17.055z M86.297,16.645c0-2.232-0.377-4.015-1.133-5.348c-0.756-1.334-1.84-2-3.252-2
			c-1.414,0-2.539,0.662-3.373,1.987c-0.836,1.325-1.254,3.225-1.254,5.698c0,2.875,0.65,4.988,1.951,6.337
			c0.723,0.739,1.551,1.108,2.482,1.108c0.931,0,1.693-0.209,2.289-0.627c0.594-0.418,1.051-0.995,1.373-1.734
			C85.993,20.686,86.297,18.878,86.297,16.645z"/>
		<path fill="#3C3C3B" d="M98.851,25.344h-1.084l-4.675-7.156c-0.596,0.08-1.254,0.138-1.977,0.168v6.988h-0.892V8.453
			c5.382,0.016,8.071,1.631,8.071,4.843c0,2.587-1.414,4.169-4.24,4.747L98.851,25.344z M91.118,17.393l0.239,0.023
			c4.032-0.064,6.049-1.413,6.049-4.048c0-0.738-0.174-1.353-0.519-1.843c-0.346-0.49-0.735-0.871-1.17-1.145
			c-1.026-0.643-2.562-0.98-4.602-1.012v8.025H91.118z"/>
		<path fill="#3C3C3B" d="M103.668,25.344h-0.891V9.369h-3.855V8.477h8.625V9.37h-3.879V25.344z"/>
	</g>
</g>
</svg>
