<?xml version="1.0" encoding="utf-8"?>
<!-- Generator: Adobe Illustrator 15.0.2, SVG Export Plug-In . SVG Version: 6.00 Build 0)  -->
<!DOCTYPE svg PUBLIC "-//W3C//DTD SVG 1.1//EN" "http://www.w3.org/Graphics/SVG/1.1/DTD/svg11.dtd">
<svg version="1.1" id="Lager_1" xmlns="http://www.w3.org/2000/svg" xmlns:xlink="http://www.w3.org/1999/xlink" x="0px" y="0px"
	 width="89.049px" height="33.953px" viewBox="0 0 89.049 33.953" enable-background="new 0 0 89.049 33.953" xml:space="preserve">
<g>
	<rect opacity="0.6" fill="#FFFFFF" width="89.049" height="33.953"/>
	<g>
		<path fill="#3C3C3B" d="M22.273,25.345h-1.084l-4.674-7.156c-0.594,0.08-1.253,0.137-1.976,0.168v6.988h-0.892V8.454
			c5.381,0.016,8.072,1.631,8.072,4.843c0,2.587-1.414,4.169-4.241,4.747L22.273,25.345z M14.539,17.394l0.241,0.023
			c4.032-0.064,6.048-1.413,6.048-4.048c0-0.738-0.173-1.353-0.518-1.843c-0.346-0.49-0.735-0.871-1.168-1.145
			c-1.028-0.643-2.562-0.98-4.602-1.012V17.394z"/>
		<path fill="#3C3C3B" d="M24.514,25.345V8.478h8.626V9.37h-7.734v6.168h7.734v0.891h-7.734v8.023h7.734v0.893H24.514z"/>
		<path fill="#3C3C3B" d="M41.621,22.79c0.723-0.627,1.084-1.389,1.084-2.289c0-0.898-0.261-1.617-0.783-2.156
			c-0.522-0.538-1.153-0.939-1.892-1.205c-0.739-0.265-1.481-0.533-2.229-0.807s-1.382-0.688-1.903-1.241
			c-0.522-0.554-0.783-1.265-0.783-2.132c0-1.51,0.421-2.635,1.265-3.373c0.844-0.739,1.852-1.109,3.024-1.109
			s2.458,0.113,3.855,0.338v0.892c-1.253-0.226-2.426-0.337-3.518-0.337s-1.988,0.305-2.687,0.915s-1.048,1.47-1.048,2.578
			c0,0.964,0.498,1.687,1.494,2.169c0.45,0.225,0.943,0.434,1.482,0.626c0.538,0.192,1.08,0.409,1.626,0.65
			c0.546,0.241,1.04,0.526,1.481,0.855s0.803,0.787,1.084,1.374c0.281,0.586,0.421,1.269,0.421,2.047
			c0,0.779-0.181,1.467-0.542,2.061c-0.361,0.595-0.807,1.061-1.337,1.397c-0.53,0.337-1.148,0.61-1.855,0.819
			c-1.141,0.354-2.426,0.53-3.855,0.53h-0.603v-0.892C38.263,24.501,40.335,23.931,41.621,22.79z"/>
		<path fill="#3C3C3B" d="M49.211,25.345h-0.892V9.37h-3.855V8.478h8.626V9.37h-3.879V25.345z"/>
		<path fill="#3C3C3B" d="M55.233,25.345V8.478h8.627V9.37h-7.734v6.168h7.734v0.891h-7.734v8.023h7.734v0.893H55.233z"/>
		<path fill="#3C3C3B" d="M75.401,25.345h-1.085l-4.675-7.156c-0.594,0.08-1.252,0.137-1.975,0.168v6.988h-0.893V8.454
			c5.381,0.016,8.072,1.631,8.072,4.843c0,2.587-1.414,4.169-4.24,4.747L75.401,25.345z M67.667,17.394l0.24,0.023
			c4.031-0.064,6.048-1.413,6.048-4.048c0-0.738-0.173-1.353-0.519-1.843s-0.734-0.871-1.168-1.145
			c-1.028-0.643-2.562-0.98-4.602-1.012V17.394z"/>
	</g>
</g>
</svg>
