<?xml version="1.0" encoding="utf-8"?>
<!-- Generator: Adobe Illustrator 15.0.2, SVG Export Plug-In . SVG Version: 6.00 Build 0)  -->
<!DOCTYPE svg PUBLIC "-//W3C//DTD SVG 1.1//EN" "http://www.w3.org/Graphics/SVG/1.1/DTD/svg11.dtd">
<svg version="1.1" id="Lager_1" xmlns="http://www.w3.org/2000/svg" xmlns:xlink="http://www.w3.org/1999/xlink" x="0px" y="0px"
	 width="118.505px" height="33.953px" viewBox="0 0 118.505 33.953" enable-background="new 0 0 118.505 33.953"
	 xml:space="preserve">
<g>
	<rect opacity="0.6" fill="#FFFFFF" width="118.505" height="33.953"/>
	<g>
		<path fill="#3C3C3B" d="M14.426,25.416L14.402,8.479c2.49,0.08,4.369,0.422,5.638,1.023c1.269,0.603,1.903,1.502,1.903,2.699
			c0,1.196-0.337,2.084-1.012,2.662c-0.675,0.578-1.494,0.932-2.458,1.061c1.269,0.111,2.349,0.554,3.241,1.324
			c0.892,0.771,1.337,1.9,1.337,3.386s-0.735,2.65-2.205,3.493C19.377,24.971,17.237,25.4,14.426,25.416z M21.052,12.188
			c0-0.899-0.514-1.59-1.542-2.071c-1.028-0.482-2.434-0.724-4.216-0.724v6.12C19.132,15.465,21.052,14.357,21.052,12.188z
			 M22.16,20.502c0-0.836-0.233-1.535-0.699-2.098c-0.466-0.562-1.092-0.963-1.879-1.204c-1.317-0.434-2.739-0.65-4.265-0.65v7.951
			c1.301-0.016,2.425-0.165,3.373-0.446c0.948-0.28,1.663-0.639,2.145-1.072C21.718,22.164,22.16,21.336,22.16,20.502z"/>
		<path fill="#3C3C3B" d="M34.255,9.73v15.613h-0.892v-7.951h-6.843v7.951h-0.892V14.309c0-1.734,0.554-3.156,1.663-4.264
			C28.4,8.936,29.79,8.382,31.46,8.382C32.681,8.382,33.613,8.832,34.255,9.73z M33.364,16.502v-6.434
			c-0.514-0.53-1.165-0.795-1.952-0.795c-1.414,0-2.582,0.514-3.506,1.542s-1.385,2.2-1.385,3.518v2.169H33.364z"/>
		<path fill="#3C3C3B" d="M46.471,25.344H45.58v-1.638c0-4.979-1.221-7.47-3.663-7.47c-0.514,0-1.004,0.133-1.47,0.398
			c-0.466,0.264-0.791,0.498-0.976,0.698c-0.185,0.2-0.422,0.493-0.711,0.88v7.131h-0.892V8.479h0.892v8.312l6.505-8.337h1.229
			l-5.59,7.036c0.385-0.098,0.763-0.145,1.132-0.145c1.365,0,2.446,0.658,3.241,1.975c0.795,1.318,1.193,3.35,1.193,6.096V25.344z"
			/>
		<path fill="#3C3C3B" d="M52.35,25.344h-0.892V9.369h-3.855V8.479h8.626v0.891H52.35V25.344z"/>
		<path fill="#3C3C3B" d="M58.373,25.344V8.479h8.626v0.891h-7.734v6.168h7.734v0.893h-7.734v8.023h7.734v0.891H58.373z"/>
		<path fill="#3C3C3B" d="M78.54,25.344h-1.084l-4.675-7.156c-0.595,0.081-1.253,0.137-1.976,0.17v6.986h-0.892V8.454
			c5.381,0.017,8.071,1.63,8.071,4.843c0,2.586-1.413,4.168-4.24,4.746L78.54,25.344z M70.806,17.393l0.24,0.024
			c4.032-0.063,6.049-1.413,6.049-4.048c0-0.738-0.174-1.354-0.519-1.844c-0.346-0.489-0.735-0.871-1.169-1.145
			c-1.027-0.642-2.562-0.979-4.602-1.012V17.393z"/>
		<path fill="#3C3C3B" d="M81.672,25.344H80.78V8.526h0.892V25.344z"/>
		<path fill="#3C3C3B" d="M85.334,25.344V8.479h8.626v0.891h-7.734v6.168h7.734v0.893h-7.734v8.023h7.734v0.891H85.334z"/>
		<path fill="#3C3C3B" d="M105.501,25.344h-1.084l-4.675-7.156c-0.595,0.081-1.253,0.137-1.976,0.17v6.986h-0.892V8.454
			c5.381,0.017,8.071,1.63,8.071,4.843c0,2.586-1.413,4.168-4.24,4.746L105.501,25.344z M97.767,17.393l0.24,0.024
			c4.032-0.063,6.049-1.413,6.049-4.048c0-0.738-0.174-1.354-0.519-1.844c-0.346-0.489-0.735-0.871-1.169-1.145
			c-1.027-0.642-2.562-0.979-4.602-1.012V17.393z"/>
	</g>
</g>
</svg>
