<?xml version="1.0" encoding="utf-8"?>
<!-- Generator: Adobe Illustrator 15.0.2, SVG Export Plug-In . SVG Version: 6.00 Build 0)  -->
<!DOCTYPE svg PUBLIC "-//W3C//DTD SVG 1.1//EN" "http://www.w3.org/Graphics/SVG/1.1/DTD/svg11.dtd">
<svg version="1.1" id="Lager_1" xmlns="http://www.w3.org/2000/svg" xmlns:xlink="http://www.w3.org/1999/xlink" x="0px" y="0px"
	 width="71.5px" height="33.953px" viewBox="0 0 71.5 33.953" enable-background="new 0 0 71.5 33.953" xml:space="preserve">
<g>
	<rect x="-1.827" fill="#FFFFFF" enable-background="new    " width="71.5" height="33.953"/>
	<g>
		<path fill="#3C3C3B" d="M19.346,25.344l0.048-15.469l-4.022,9.229h-0.819l-4.024-9.229v15.469H9.684V8.454h1.157l4.12,9.444
			l4.096-9.444h1.181v16.89H19.346z"/>
		<path fill="#3C3C3B" d="M24.792,25.344H23.9V8.526h0.893L24.792,25.344L24.792,25.344z"/>
		<path fill="#3C3C3B" d="M36.838,25.344h-8.384V8.479h0.892v15.975h7.493L36.838,25.344L36.838,25.344z"/>
		<path fill="#3C3C3B" d="M37.561,21.73h0.895c0.029,1.221,0.337,2.021,0.915,2.408c0.435,0.271,0.858,0.408,1.274,0.408
			c1.143,0,2.019-0.389,2.627-1.168c0.61-0.777,0.916-2.074,0.916-3.893V8.479h0.893v11.035c0,3.951-1.493,5.928-4.48,5.928
			c-0.611,0-1.238-0.209-1.879-0.627c-0.338-0.239-0.615-0.627-0.832-1.154C37.67,23.127,37.561,22.484,37.561,21.73z"/>
		<path fill="#3C3C3B" d="M58.789,17.056c0,2.65-0.451,4.694-1.352,6.131c-0.898,1.438-2.201,2.156-3.902,2.156
			c-1.702,0-3.053-0.728-4.049-2.181c-0.994-1.454-1.492-3.519-1.492-6.193s0.488-4.777,1.47-6.312
			c0.979-1.533,2.345-2.301,4.097-2.301c1.043,0,1.933,0.27,2.662,0.807c0.73,0.539,1.272,1.266,1.627,2.182
			C58.475,13.031,58.789,14.936,58.789,17.056z M57.896,16.646c0-2.232-0.377-4.016-1.133-5.35c-0.755-1.333-1.84-2-3.252-2
			c-1.414,0-2.539,0.663-3.373,1.988c-0.836,1.325-1.254,3.225-1.254,5.698c0,2.875,0.65,4.987,1.952,6.336
			c0.724,0.738,1.55,1.109,2.479,1.109c0.932,0,1.695-0.209,2.289-0.628c0.596-0.418,1.054-0.995,1.373-1.733
			C57.592,20.686,57.896,18.879,57.896,16.646z M50.861,5.346h0.916v1.59h-0.916V5.346z M54.957,5.346h0.916v1.59h-0.916V5.346z"/>
	</g>
</g>
</svg>
