<?xml version="1.0" encoding="utf-8"?>
<!-- Generator: Adobe Illustrator 15.0.2, SVG Export Plug-In . SVG Version: 6.00 Build 0)  -->
<!DOCTYPE svg PUBLIC "-//W3C//DTD SVG 1.1//EN" "http://www.w3.org/Graphics/SVG/1.1/DTD/svg11.dtd">
<svg version="1.1" id="Lager_1" xmlns="http://www.w3.org/2000/svg" xmlns:xlink="http://www.w3.org/1999/xlink" x="0px" y="0px"
	 width="89px" height="33.953px" viewBox="2.713 0 89 33.953" enable-background="new 2.713 0 89 33.953" xml:space="preserve">
<g>
	<rect x="2.713" opacity="0.6" fill="#FFFFFF" enable-background="new    " width="89" height="33.953"/>
	<g>
		<path fill="#3C3C3B" d="M13.059,21.729h0.892c0.032,1.223,0.337,2.024,0.916,2.41c0.434,0.273,0.859,0.41,1.277,0.41
			c1.141,0,2.016-0.391,2.626-1.17c0.61-0.777,0.916-2.074,0.916-3.891V8.478h0.892v11.036c0,3.951-1.494,5.928-4.481,5.928
			c-0.611,0-1.237-0.209-1.879-0.627c-0.337-0.24-0.615-0.627-0.832-1.156C13.167,23.128,13.059,22.484,13.059,21.729z"/>
		<path fill="#3C3C3B" d="M34.287,17.056c0,2.65-0.45,4.695-1.35,6.133c-0.9,1.438-2.201,2.156-3.903,2.156
			c-1.702,0-3.052-0.728-4.048-2.183c-0.996-1.453-1.494-3.519-1.494-6.191c0-2.675,0.49-4.779,1.47-6.312
			c0.979-1.534,2.345-2.302,4.096-2.302c1.044,0,1.931,0.27,2.662,0.808c0.731,0.538,1.273,1.265,1.626,2.18
			C33.973,13.032,34.287,14.936,34.287,17.056z M33.395,16.646c0-2.232-0.377-4.015-1.132-5.348c-0.755-1.334-1.84-2-3.253-2
			c-1.414,0-2.538,0.662-3.373,1.987c-0.835,1.325-1.253,3.225-1.253,5.698c0,2.875,0.65,4.988,1.952,6.337
			c0.723,0.738,1.55,1.107,2.481,1.107c0.931,0,1.695-0.209,2.289-0.627c0.594-0.417,1.052-0.994,1.374-1.734
			C33.09,20.688,33.395,18.879,33.395,16.646z"/>
		<path fill="#3C3C3B" d="M45.948,25.346h-1.084l-4.674-7.156c-0.594,0.08-1.253,0.137-1.976,0.168v6.988h-0.892V8.454
			c5.381,0.016,8.072,1.631,8.072,4.843c0,2.587-1.414,4.169-4.241,4.747L45.948,25.346z M38.214,17.394l0.241,0.023
			c4.032-0.064,6.048-1.413,6.048-4.048c0-0.738-0.173-1.353-0.518-1.843c-0.346-0.49-0.735-0.871-1.168-1.145
			c-1.028-0.643-2.562-0.98-4.602-1.012L38.214,17.394L38.214,17.394z"/>
		<path fill="#3C3C3B" d="M56.815,17.249c0,1.188-0.146,2.276-0.435,3.265c-0.289,0.987-0.68,1.786-1.17,2.397
			c-0.488,0.61-1.11,1.101-1.866,1.469c-1.365,0.69-3.085,1.037-5.156,1.037V8.454c2.201,0,3.937,0.329,5.205,0.988
			c1.092,0.578,1.911,1.438,2.457,2.578C56.494,13.337,56.815,15.08,56.815,17.249z M55.921,16.983c0-5.06-2.279-7.59-6.842-7.59
			V24.5c2.603-0.031,4.416-0.779,5.445-2.24C55.458,20.943,55.921,19.186,55.921,16.983z"/>
		<path fill="#3C3C3B" d="M59.8,25.346V8.478h8.628V9.37h-7.734v6.168h7.734v0.891h-7.734v8.023h7.734v0.894H59.8z"/>
		<path fill="#3C3C3B" d="M72.235,9.996v15.35h-0.894V8.454h1.277l6.457,14.842V8.478h0.894v16.868h-0.894L72.235,9.996z"/>
	</g>
</g>
</svg>
