<?xml version="1.0" encoding="utf-8"?>
<!-- Generator: Adobe Illustrator 15.0.2, SVG Export Plug-In . SVG Version: 6.00 Build 0)  -->
<!DOCTYPE svg PUBLIC "-//W3C//DTD SVG 1.1//EN" "http://www.w3.org/Graphics/SVG/1.1/DTD/svg11.dtd">
<svg version="1.1" id="Lager_1" xmlns="http://www.w3.org/2000/svg" xmlns:xlink="http://www.w3.org/1999/xlink" x="0px" y="0px"
	 width="83.042px" height="33.953px" viewBox="0 0 83.042 33.953" enable-background="new 0 0 83.042 33.953" xml:space="preserve">
<g>
	<rect opacity="0.6" fill="#FFFFFF" width="83.042" height="33.953"/>
	<g>
		<path fill="#3C3C3B" d="M22.403,25.344l0.048-15.469l-4.023,9.229h-0.819l-4.024-9.229v15.469h-0.843V8.454h1.156l4.12,9.444
			l4.097-9.444h1.181v16.89H22.403z"/>
		<path fill="#3C3C3B" d="M36.619,17.056c0,2.65-0.45,4.694-1.35,6.132s-2.201,2.156-3.903,2.156c-1.703,0-3.052-0.727-4.048-2.18
			c-0.996-1.454-1.494-3.518-1.494-6.193c0-2.674,0.49-4.777,1.47-6.312c0.979-1.533,2.346-2.301,4.097-2.301
			c1.044,0,1.931,0.27,2.662,0.807c0.73,0.539,1.272,1.266,1.626,2.182C36.306,13.031,36.619,14.936,36.619,17.056z M35.728,16.646
			c0-2.232-0.378-4.016-1.133-5.35c-0.755-1.333-1.84-2-3.253-2s-2.538,0.663-3.373,1.988s-1.253,3.225-1.253,5.698
			c0,2.876,0.65,4.987,1.952,6.337c0.723,0.738,1.55,1.108,2.481,1.108s1.694-0.208,2.289-0.626
			c0.594-0.418,1.052-0.996,1.373-1.735C35.422,20.686,35.728,18.879,35.728,16.646z M28.691,5.346h0.916v1.59h-0.916V5.346z
			 M32.788,5.346h0.915v1.59h-0.915V5.346z"/>
		<path fill="#3C3C3B" d="M47.148,12.213l-0.892-0.024c-0.145-0.867-0.503-1.554-1.072-2.06c-0.57-0.506-1.209-0.76-1.916-0.76
			c-1.188,0-2.128,0.607-2.818,1.82c-0.691,1.213-1.036,2.605-1.036,4.18c0,3.197,0.55,5.478,1.65,6.843
			c1.1,1.366,2.831,2.112,5.192,2.241v-6.627h-2.361v-0.891h3.253v8.433c-2.33,0-4.064-0.345-5.205-1.036
			c-0.449-0.273-0.903-0.658-1.361-1.156s-0.831-1.092-1.12-1.783c-0.627-1.558-0.939-3.574-0.939-6.047
			c0-1.173,0.16-2.225,0.481-3.157c0.321-0.931,0.723-1.654,1.205-2.169c0.979-1.027,1.967-1.541,2.964-1.541
			c0.995,0,1.907,0.401,2.734,1.204C46.734,10.486,47.148,11.33,47.148,12.213z"/>
		<path fill="#3C3C3B" d="M50.376,25.344V8.479h8.626v0.891h-7.734v6.168h7.734v0.893h-7.734v8.023h7.734v0.891H50.376z"/>
		<path fill="#3C3C3B" d="M70.302,25.344h-8.385V8.479h0.892v15.975h7.493V25.344z"/>
	</g>
</g>
</svg>
