<?xml version="1.0" encoding="utf-8"?>
<!-- Generator: Adobe Illustrator 15.0.2, SVG Export Plug-In . SVG Version: 6.00 Build 0)  -->
<!DOCTYPE svg PUBLIC "-//W3C//DTD SVG 1.1//EN" "http://www.w3.org/Graphics/SVG/1.1/DTD/svg11.dtd">
<svg version="1.1" id="Lager_1" xmlns="http://www.w3.org/2000/svg" xmlns:xlink="http://www.w3.org/1999/xlink" x="0px" y="0px"
	 width="117.172px" height="33.953px" viewBox="0 0 117.172 33.953" enable-background="new 0 0 117.172 33.953"
	 xml:space="preserve">
<g>
	<rect opacity="0.6" fill="#FFFFFF" width="117.172" height="33.953"/>
	<g>
		<path fill="#3C3C3B" d="M13.313,25.344h-0.892V8.479h8.626v0.891h-7.734v6.168h7.734v0.893h-7.734V25.344z"/>
		<path fill="#3C3C3B" d="M33.938,17.056c0,2.65-0.45,4.694-1.35,6.132s-2.201,2.156-3.903,2.156s-3.052-0.727-4.048-2.18
			c-0.996-1.454-1.494-3.518-1.494-6.193c0-2.674,0.49-4.777,1.47-6.312c0.979-1.533,2.345-2.301,4.096-2.301
			c1.044,0,1.931,0.27,2.662,0.807c0.731,0.539,1.273,1.266,1.626,2.182C33.624,13.031,33.938,14.936,33.938,17.056z M33.046,16.646
			c0-2.232-0.377-4.016-1.132-5.35c-0.755-1.333-1.84-2-3.253-2c-1.414,0-2.538,0.663-3.373,1.988
			c-0.835,1.325-1.253,3.225-1.253,5.698c0,2.876,0.65,4.987,1.952,6.337c0.723,0.738,1.55,1.108,2.481,1.108
			s1.695-0.208,2.289-0.626s1.052-0.996,1.374-1.735C32.741,20.686,33.046,18.879,33.046,16.646z M26.01,5.346h0.916v1.59H26.01
			V5.346z M30.106,5.346h0.916v1.59h-0.916V5.346z"/>
		<path fill="#3C3C3B" d="M45.599,25.344h-1.084l-4.674-7.156c-0.594,0.081-1.253,0.137-1.976,0.17v6.986h-0.892V8.454
			c5.381,0.017,8.072,1.63,8.072,4.843c0,2.586-1.414,4.168-4.241,4.746L45.599,25.344z M37.865,17.393l0.241,0.024
			c4.032-0.063,6.048-1.413,6.048-4.048c0-0.738-0.173-1.354-0.518-1.844c-0.346-0.489-0.735-0.871-1.168-1.145
			c-1.028-0.642-2.562-0.979-4.602-1.012V17.393z"/>
		<path fill="#3C3C3B" d="M50.345,25.344L46.707,8.479h0.892l3.349,15.42l3.349-15.42h0.892l-3.59,16.865H50.345z"/>
		<path fill="#3C3C3B" d="M65.887,9.73v15.613h-0.893v-7.951h-6.842v7.951h-0.892V14.309c0-1.734,0.554-3.156,1.663-4.264
			c1.108-1.109,2.497-1.663,4.169-1.663C64.312,8.382,65.245,8.832,65.887,9.73z M64.995,16.502v-6.434
			c-0.514-0.53-1.164-0.795-1.951-0.795c-1.414,0-2.582,0.514-3.506,1.542s-1.385,2.2-1.385,3.518v2.169H64.995z"/>
		<path fill="#3C3C3B" d="M78.126,25.344h-1.085l-4.674-7.156c-0.594,0.081-1.253,0.137-1.976,0.17v6.986H69.5V8.454
			c5.381,0.017,8.072,1.63,8.072,4.843c0,2.586-1.414,4.168-4.241,4.746L78.126,25.344z M70.392,17.393l0.241,0.024
			c4.031-0.063,6.047-1.413,6.047-4.048c0-0.738-0.172-1.354-0.518-1.844c-0.346-0.489-0.734-0.871-1.168-1.145
			c-1.029-0.642-2.562-0.979-4.603-1.012V17.393z"/>
		<path fill="#3C3C3B" d="M81.258,25.344h-0.892V8.526h0.892V25.344z"/>
		<path fill="#3C3C3B" d="M85.812,9.996v15.348H84.92V8.454h1.277l6.457,14.843V8.479h0.892v16.865h-0.892L85.812,9.996z"/>
		<path fill="#3C3C3B" d="M105.184,12.213l-0.892-0.024c-0.145-0.867-0.503-1.554-1.072-2.06c-0.57-0.506-1.209-0.76-1.915-0.76
			c-1.189,0-2.129,0.607-2.819,1.82s-1.036,2.605-1.036,4.18c0,3.197,0.55,5.478,1.65,6.843c1.1,1.366,2.831,2.112,5.192,2.241
			v-6.627h-2.361v-0.891h3.253v8.433c-2.33,0-4.064-0.345-5.205-1.036c-0.449-0.273-0.902-0.658-1.361-1.156
			c-0.457-0.498-0.83-1.092-1.12-1.783c-0.626-1.558-0.939-3.574-0.939-6.047c0-1.173,0.16-2.225,0.481-3.157
			c0.322-0.931,0.723-1.654,1.205-2.169c0.979-1.027,1.967-1.541,2.964-1.541c0.995,0,1.907,0.401,2.734,1.204
			C104.77,10.486,105.184,11.33,105.184,12.213z"/>
	</g>
</g>
</svg>
