<?xml version="1.0" encoding="utf-8"?>
<!-- Generator: Adobe Illustrator 15.0.2, SVG Export Plug-In . SVG Version: 6.00 Build 0)  -->
<!DOCTYPE svg PUBLIC "-//W3C//DTD SVG 1.1//EN" "http://www.w3.org/Graphics/SVG/1.1/DTD/svg11.dtd">
<svg version="1.1" id="Lager_1" xmlns="http://www.w3.org/2000/svg" xmlns:xlink="http://www.w3.org/1999/xlink" x="0px" y="0px"
	 width="198.812px" height="33.953px" viewBox="0 0 198.812 33.953" enable-background="new 0 0 198.812 33.953"
	 xml:space="preserve">
<g>
	<rect x="0" fill="#FFFFFF" enable-background="new    " width="198.812" height="33.953"/>
	<g>
		<path fill="#3C3C3B" d="M15.025,25.416L15.001,8.479c2.49,0.08,4.369,0.422,5.639,1.023c1.269,0.603,1.902,1.502,1.902,2.699
			c0,1.196-0.337,2.084-1.012,2.662c-0.675,0.578-1.494,0.932-2.458,1.061c1.269,0.111,2.349,0.554,3.241,1.324
			c0.892,0.771,1.337,1.9,1.337,3.386c0,1.486-0.735,2.65-2.205,3.493C19.977,24.971,17.836,25.4,15.025,25.416z M21.651,12.188
			c0-0.899-0.514-1.59-1.542-2.071c-1.028-0.482-2.435-0.724-4.216-0.724v6.12C19.732,15.465,21.651,14.357,21.651,12.188z
			 M22.76,20.502c0-0.836-0.232-1.535-0.698-2.098s-1.092-0.963-1.879-1.204c-1.317-0.434-2.739-0.65-4.266-0.65v7.951
			c1.301-0.017,2.425-0.165,3.373-0.446c0.948-0.279,1.663-0.639,2.146-1.072C22.318,22.164,22.76,21.336,22.76,20.502z"/>
		<path fill="#3C3C3B" d="M27.265,25.344h-0.893V8.526h0.893V25.344z"/>
		<path fill="#3C3C3B" d="M41.071,17.056c0,2.65-0.45,4.694-1.35,6.131c-0.9,1.438-2.201,2.156-3.903,2.156s-3.052-0.727-4.048-2.18
			c-0.996-1.454-1.494-3.518-1.494-6.193c0-2.674,0.49-4.777,1.47-6.312c0.979-1.533,2.345-2.301,4.096-2.301
			c1.045,0,1.932,0.27,2.662,0.807c0.731,0.539,1.273,1.266,1.626,2.182C40.758,13.031,41.071,14.936,41.071,17.056z M40.18,16.646
			c0-2.232-0.377-4.016-1.133-5.35c-0.755-1.333-1.84-2-3.253-2c-1.414,0-2.538,0.663-3.373,1.988
			c-0.835,1.325-1.253,3.225-1.253,5.698c0,2.875,0.65,4.987,1.952,6.336c0.724,0.738,1.55,1.109,2.481,1.109
			c0.931,0,1.694-0.209,2.289-0.627c0.594-0.418,1.052-0.996,1.374-1.734C39.875,20.686,40.18,18.879,40.18,16.646z"/>
		<path fill="#3C3C3B" d="M52.083,12.213l-0.892-0.024c-0.146-0.867-0.502-1.554-1.072-2.06c-0.57-0.506-1.209-0.76-1.916-0.76
			c-1.188,0-2.128,0.607-2.819,1.82c-0.69,1.213-1.035,2.605-1.035,4.18c0,3.197,0.55,5.479,1.649,6.843
			c1.101,1.366,2.831,2.112,5.192,2.241v-6.627h-2.36v-0.891h3.253v8.433c-2.33,0-4.063-0.345-5.205-1.036
			c-0.449-0.273-0.902-0.658-1.36-1.156s-0.831-1.092-1.121-1.783c-0.626-1.558-0.939-3.574-0.939-6.046
			c0-1.173,0.16-2.225,0.482-3.157c0.32-0.931,0.723-1.654,1.205-2.169c0.979-1.027,1.967-1.541,2.964-1.541
			c0.996,0,1.907,0.401,2.733,1.204C51.668,10.486,52.083,11.33,52.083,12.213z"/>
		<path fill="#3C3C3B" d="M63.792,9.73v15.614H62.9v-7.952h-6.843v7.952h-0.893V14.309c0-1.734,0.555-3.156,1.663-4.264
			c1.108-1.109,2.498-1.663,4.168-1.663C62.217,8.382,63.149,8.832,63.792,9.73z M62.9,16.502v-6.434
			c-0.514-0.53-1.165-0.795-1.952-0.795c-1.414,0-2.582,0.514-3.506,1.542c-0.924,1.028-1.385,2.2-1.385,3.518v2.169H62.9z"/>
		<path fill="#3C3C3B" d="M72.972,22.79c0.723-0.626,1.084-1.39,1.084-2.288c0-0.9-0.262-1.619-0.783-2.156
			c-0.522-0.539-1.153-0.94-1.893-1.205c-0.738-0.266-1.48-0.534-2.229-0.808c-0.747-0.272-1.382-0.687-1.903-1.241
			c-0.521-0.554-0.783-1.265-0.783-2.133c0-1.509,0.422-2.633,1.266-3.373c0.844-0.738,1.852-1.107,3.023-1.107
			c1.173,0,2.458,0.112,3.855,0.337v0.892c-1.253-0.225-2.426-0.338-3.519-0.338c-1.092,0-1.987,0.306-2.687,0.916
			c-0.699,0.611-1.048,1.47-1.048,2.578c0,0.964,0.498,1.688,1.494,2.168c0.45,0.226,0.942,0.434,1.481,0.627
			c0.538,0.193,1.08,0.41,1.626,0.65c0.546,0.241,1.04,0.526,1.481,0.855c0.441,0.33,0.803,0.787,1.084,1.373
			c0.281,0.587,0.421,1.27,0.421,2.049s-0.181,1.467-0.542,2.061s-0.807,1.061-1.337,1.396c-0.53,0.338-1.148,0.611-1.855,0.818
			c-1.141,0.354-2.426,0.531-3.854,0.531h-0.604V24.5C69.614,24.501,71.687,23.932,72.972,22.79z"/>
		<path fill="#3C3C3B" d="M86.2,9.73v15.614h-0.892v-7.952h-6.844v7.952h-0.892V14.309c0-1.734,0.554-3.156,1.663-4.264
			c1.108-1.109,2.498-1.663,4.168-1.663C84.625,8.382,85.557,8.832,86.2,9.73z M85.308,16.502v-6.434
			c-0.515-0.53-1.165-0.795-1.952-0.795c-1.414,0-2.582,0.514-3.506,1.542c-0.925,1.028-1.386,2.2-1.386,3.518v2.169H85.308z"/>
		<path fill="#3C3C3B" d="M90.705,9.996v15.348h-0.892V8.454h1.276l6.457,14.843V8.479h0.893v16.865h-0.893L90.705,9.996z"/>
		<path fill="#3C3C3B" d="M110.486,25.344h-8.385V8.479h0.892v15.975h7.493V25.344z"/>
		<path fill="#3C3C3B" d="M121.088,9.73v15.614h-0.892v-7.952h-6.843v7.952h-0.893V14.309c0-1.734,0.555-3.156,1.663-4.264
			c1.107-1.109,2.497-1.663,4.168-1.663C119.514,8.382,120.445,8.832,121.088,9.73z M120.196,16.502v-6.434
			c-0.515-0.53-1.165-0.795-1.952-0.795c-1.413,0-2.582,0.514-3.506,1.542c-0.924,1.028-1.385,2.2-1.385,3.518v2.169H120.196z
			 M114.39,5.346h0.915v1.59h-0.915V5.346z M118.486,5.346h0.915v1.59h-0.915V5.346z"/>
		<path fill="#3C3C3B" d="M132.678,12.213l-0.894-0.024c-0.145-0.867-0.502-1.554-1.072-2.06c-0.569-0.506-1.209-0.76-1.915-0.76
			c-1.188,0-2.128,0.607-2.818,1.82s-1.035,2.605-1.035,4.18c0,3.197,0.549,5.479,1.649,6.843c1.101,1.366,2.83,2.112,5.191,2.241
			v-6.627h-2.361v-0.891h3.255v8.433c-2.33,0-4.064-0.345-5.205-1.036c-0.449-0.273-0.903-0.658-1.361-1.156
			s-0.831-1.092-1.121-1.783c-0.626-1.558-0.939-3.574-0.939-6.046c0-1.173,0.16-2.225,0.482-3.157
			c0.321-0.931,0.723-1.654,1.205-2.169c0.979-1.027,1.967-1.541,2.963-1.541s1.908,0.401,2.734,1.204
			C132.264,10.486,132.678,11.33,132.678,12.213z"/>
		<path fill="#3C3C3B" d="M143.881,12.213l-0.892-0.024c-0.145-0.867-0.503-1.554-1.072-2.06c-0.569-0.506-1.209-0.76-1.915-0.76
			c-1.188,0-2.129,0.607-2.818,1.82c-0.69,1.213-1.036,2.605-1.036,4.18c0,3.197,0.55,5.479,1.649,6.843
			c1.101,1.366,2.831,2.112,5.192,2.241v-6.627h-2.361v-0.891h3.253v8.433c-2.33,0-4.063-0.345-5.205-1.036
			c-0.448-0.273-0.901-0.658-1.36-1.156c-0.457-0.498-0.83-1.092-1.12-1.783c-0.626-1.558-0.939-3.574-0.939-6.046
			c0-1.173,0.16-2.225,0.481-3.157c0.322-0.931,0.723-1.654,1.205-2.169c0.979-1.027,1.967-1.541,2.964-1.541
			c0.995,0,1.907,0.401,2.734,1.204C143.467,10.486,143.881,11.33,143.881,12.213z"/>
		<path fill="#3C3C3B" d="M148,9.996v15.348h-0.891V8.454h1.277l6.456,14.843V8.479h0.892v16.865h-0.892L148,9.996z"/>
		<path fill="#3C3C3B" d="M160.289,25.344h-0.893V8.526h0.893V25.344z"/>
		<path fill="#3C3C3B" d="M164.842,9.996v15.348h-0.891V8.454h1.277l6.457,14.843V8.479h0.891v16.865h-0.891L164.842,9.996z"/>
		<path fill="#3C3C3B" d="M184.215,12.213l-0.893-0.024c-0.146-0.867-0.502-1.554-1.072-2.06c-0.569-0.506-1.209-0.76-1.915-0.76
			c-1.188,0-2.128,0.607-2.818,1.82s-1.035,2.605-1.035,4.18c0,3.197,0.549,5.479,1.649,6.843c1.101,1.366,2.83,2.112,5.191,2.241
			v-6.627h-2.361v-0.891h3.254v8.433c-2.33,0-4.063-0.345-5.205-1.036c-0.448-0.273-0.902-0.658-1.36-1.156
			s-0.831-1.092-1.121-1.783c-0.626-1.558-0.939-3.574-0.939-6.046c0-1.173,0.16-2.225,0.482-3.157
			c0.321-0.931,0.723-1.654,1.205-2.169c0.979-1.027,1.967-1.541,2.963-1.541s1.908,0.401,2.734,1.204
			C183.801,10.486,184.215,11.33,184.215,12.213z"/>
	</g>
</g>
</svg>
