<?xml version="1.0" encoding="utf-8"?>
<!-- Generator: Adobe Illustrator 15.0.2, SVG Export Plug-In . SVG Version: 6.00 Build 0)  -->
<!DOCTYPE svg PUBLIC "-//W3C//DTD SVG 1.1//EN" "http://www.w3.org/Graphics/SVG/1.1/DTD/svg11.dtd">
<svg version="1.1" id="Lager_1" xmlns="http://www.w3.org/2000/svg" xmlns:xlink="http://www.w3.org/1999/xlink" x="0px" y="0px"
	 width="65.083px" height="33.953px" viewBox="0 0 65.083 33.953" enable-background="new 0 0 65.083 33.953" xml:space="preserve">
<g>
	<rect fill="#FFFFFF" enable-background="new    " width="65.083" height="33.953"/>
	<g>
		<path fill="#3C3C3B" d="M12.532,25.346H11.64V8.478h8.626V9.37h-7.734v6.168h7.734v0.891h-7.734V25.346z"/>
		<path fill="#3C3C3B" d="M30.409,23.839c-0.739,1.035-1.823,1.554-3.252,1.554c-1.43,0-2.498-0.57-3.205-1.711
			c-0.707-1.14-1.06-2.529-1.06-4.168V8.478h0.891V19.49c0,1.639,0.333,2.883,1,3.734c0.667,0.851,1.478,1.276,2.434,1.276
			c0.956,0,1.763-0.422,2.421-1.267c0.659-0.842,0.988-2.092,0.988-3.746V8.478h0.892v11.036
			C31.518,21.359,31.148,22.803,30.409,23.839z"/>
		<path fill="#3C3C3B" d="M43.686,25.346h-0.893v-1.64c0-4.979-1.222-7.47-3.662-7.47c-0.514,0-1.004,0.133-1.471,0.397
			c-0.466,0.266-0.791,0.498-0.976,0.699c-0.187,0.201-0.422,0.494-0.711,0.879v7.133h-0.892V8.478h0.892v8.312l6.506-8.336h1.229
			l-5.59,7.035c0.385-0.096,0.762-0.145,1.133-0.145c1.365,0,2.444,0.659,3.24,1.977c0.795,1.316,1.192,3.349,1.192,6.096
			L43.686,25.346L43.686,25.346z"/>
		<path fill="#3C3C3B" d="M49.565,25.346h-0.893V9.37h-3.855V8.478h8.627V9.37h-3.879V25.346z"/>
	</g>
</g>
</svg>
