<?xml version="1.0" encoding="utf-8"?>
<!-- Generator: Adobe Illustrator 15.0.2, SVG Export Plug-In . SVG Version: 6.00 Build 0)  -->
<!DOCTYPE svg PUBLIC "-//W3C//DTD SVG 1.1//EN" "http://www.w3.org/Graphics/SVG/1.1/DTD/svg11.dtd">
<svg version="1.1" id="Lager_1" xmlns="http://www.w3.org/2000/svg" xmlns:xlink="http://www.w3.org/1999/xlink" x="0px" y="0px"
	 width="136.656px" height="33.953px" viewBox="0 0 136.656 33.953" enable-background="new 0 0 136.656 33.953"
	 xml:space="preserve">
<g>
	<rect x="0" fill="#FFFFFF" width="136.656" height="33.953"/>
	<g>
		<path fill="#3C3C3B" d="M9.484,25.119L9.461,8.951c2.377,0.076,4.17,0.402,5.382,0.977c1.213,0.576,1.817,1.434,1.817,2.576
			s-0.322,1.99-0.967,2.541c-0.646,0.553-1.426,0.891-2.346,1.012c1.211,0.107,2.24,0.529,3.094,1.266
			c0.852,0.738,1.274,1.814,1.274,3.232s-0.7,2.529-2.104,3.334S12.167,25.104,9.484,25.119z M15.809,12.492
			c0-0.857-0.49-1.518-1.474-1.979c-0.979-0.459-2.321-0.689-4.022-0.689v5.842C13.977,15.621,15.809,14.562,15.809,12.492z
			 M16.867,20.428c0-0.797-0.223-1.465-0.668-2.002c-0.444-0.535-1.043-0.92-1.793-1.148c-1.258-0.414-2.615-0.621-4.071-0.621v7.59
			c1.241-0.017,2.315-0.158,3.222-0.427c0.903-0.268,1.587-0.608,2.047-1.022C16.445,22.014,16.867,21.225,16.867,20.428z"/>
		<path fill="#3C3C3B" d="M21.168,25.051h-0.852V8.996h0.852V25.051z"/>
		<path fill="#3C3C3B" d="M34.347,17.139c0,2.529-0.432,4.48-1.288,5.854c-0.859,1.373-2.104,2.06-3.729,2.06
			s-2.913-0.693-3.861-2.082c-0.951-1.388-1.428-3.357-1.428-5.911c0-2.554,0.467-4.562,1.402-6.027
			c0.936-1.463,2.238-2.195,3.91-2.195c0.996,0,1.844,0.256,2.541,0.77c0.697,0.514,1.216,1.209,1.553,2.082
			C34.047,13.297,34.347,15.115,34.347,17.139z M33.496,16.748c0-2.131-0.361-3.834-1.082-5.107
			c-0.721-1.271-1.756-1.908-3.104-1.908c-1.352,0-2.423,0.633-3.222,1.898c-0.798,1.264-1.194,3.078-1.194,5.439
			c0,2.745,0.621,4.76,1.86,6.049c0.69,0.705,1.48,1.057,2.369,1.057c0.892,0,1.618-0.199,2.188-0.598
			c0.564-0.398,1.004-0.949,1.311-1.656C33.204,20.604,33.496,18.879,33.496,16.748z"/>
		<path fill="#3C3C3B" d="M45.479,17.322c0,1.135-0.14,2.174-0.414,3.118c-0.275,0.942-0.648,1.705-1.115,2.287
			c-0.469,0.584-1.062,1.051-1.783,1.403c-1.303,0.658-2.941,0.988-4.922,0.988V8.928c2.104,0,3.757,0.314,4.969,0.943
			c1.043,0.551,1.824,1.371,2.348,2.461C45.172,13.59,45.479,15.252,45.479,17.322z M44.627,17.07c0-4.83-2.177-7.246-6.529-7.246
			v14.422c2.482-0.031,4.217-0.744,5.195-2.139C44.183,20.85,44.627,19.17,44.627,17.07z"/>
		<path fill="#3C3C3B" d="M56.564,25.051h-1.035l-4.462-6.832c-0.567,0.078-1.196,0.131-1.886,0.162v6.67H48.33V8.928
			c5.137,0.016,7.705,1.557,7.705,4.623c0,2.469-1.35,3.978-4.048,4.531L56.564,25.051z M49.182,17.461l0.229,0.023
			c3.848-0.062,5.772-1.352,5.772-3.865c0-0.705-0.165-1.291-0.495-1.76c-0.329-0.467-0.701-0.83-1.115-1.092
			c-0.979-0.613-2.445-0.936-4.393-0.967L49.182,17.461L49.182,17.461z"/>
		<path fill="#3C3C3B" d="M59.555,25.051h-0.854V8.996h0.854V25.051z"/>
		<path fill="#3C3C3B" d="M65.441,25.051l-3.475-16.1h0.854l3.196,14.719l3.195-14.719h0.853l-3.427,16.1H65.441z"/>
		<path fill="#3C3C3B" d="M81.727,25.051l0.045-14.766l-3.841,8.809h-0.782l-3.84-8.809v14.766h-0.808V8.928h1.104l3.933,9.015
			l3.909-9.015h1.127v16.123H81.727z"/>
		<path fill="#3C3C3B" d="M86.072,25.051v-16.1h8.234v0.85h-7.385v5.889h7.385v0.852h-7.385V24.2h7.385v0.853h-8.234V25.051z"/>
		<path fill="#3C3C3B" d="M105.323,17.322c0,1.135-0.138,2.174-0.414,3.118c-0.276,0.942-0.646,1.705-1.115,2.287
			c-0.468,0.584-1.062,1.051-1.78,1.403c-1.306,0.658-2.944,0.988-4.924,0.988V8.928c2.102,0,3.758,0.314,4.969,0.943
			c1.043,0.551,1.823,1.371,2.347,2.461C105.017,13.59,105.323,15.252,105.323,17.322z M104.473,17.07
			c0-4.83-2.18-7.246-6.532-7.246v14.422c2.481-0.031,4.216-0.744,5.198-2.139C104.027,20.85,104.473,19.17,104.473,17.07z"/>
		<path fill="#3C3C3B" d="M108.176,25.051v-16.1h8.233v0.85h-7.383v5.889h7.383v0.852h-7.383V24.2h7.383v0.853h-8.233V25.051z"/>
		<path fill="#3C3C3B" d="M127.195,25.051h-8.004v-16.1h0.852v15.248h7.152V25.051z"/>
	</g>
</g>
</svg>
