<?xml version="1.0" encoding="utf-8"?>
<!-- Generator: Adobe Illustrator 15.0.2, SVG Export Plug-In . SVG Version: 6.00 Build 0)  -->
<!DOCTYPE svg PUBLIC "-//W3C//DTD SVG 1.1//EN" "http://www.w3.org/Graphics/SVG/1.1/DTD/svg11.dtd">
<svg version="1.1" id="Lager_1" xmlns="http://www.w3.org/2000/svg" xmlns:xlink="http://www.w3.org/1999/xlink" x="0px" y="0px"
	 width="86.705px" height="33.953px" viewBox="0 0 86.705 33.953" enable-background="new 0 0 86.705 33.953" xml:space="preserve">
<g>
	<rect opacity="0.6" fill="#FFFFFF" width="86.705" height="33.953"/>
	<g>
		<path fill="#3C3C3B" d="M14.427,9.996v15.349h-0.892V8.454h1.277l6.457,14.842V8.478h0.892v16.867H21.27L14.427,9.996z"/>
		<path fill="#3C3C3B" d="M34.305,9.731v15.613h-0.892v-7.951h-6.843v7.951h-0.892V14.31c0-1.735,0.554-3.157,1.663-4.266
			c1.108-1.107,2.498-1.662,4.168-1.662C32.73,8.382,33.663,8.831,34.305,9.731z M33.414,16.501v-6.433
			c-0.514-0.53-1.165-0.795-1.952-0.795c-1.414,0-2.582,0.515-3.506,1.542s-1.385,2.201-1.385,3.518v2.168H33.414z M27.607,5.346
			h0.916v1.591h-0.916V5.346z M31.703,5.346h0.916v1.591h-0.916V5.346z"/>
		<path fill="#3C3C3B" d="M46.545,25.345h-1.084l-4.675-7.156c-0.594,0.08-1.253,0.137-1.976,0.168v6.988h-0.892V8.454
			c5.381,0.016,8.071,1.631,8.071,4.843c0,2.587-1.413,4.169-4.24,4.747L46.545,25.345z M38.811,17.394l0.241,0.023
			c4.032-0.064,6.048-1.413,6.048-4.048c0-0.738-0.174-1.353-0.519-1.843c-0.346-0.49-0.735-0.871-1.168-1.145
			c-1.028-0.643-2.562-0.98-4.602-1.012V17.394z"/>
		<path fill="#3C3C3B" d="M49.677,25.345h-0.892V8.526h0.892V25.345z"/>
		<path fill="#3C3C3B" d="M54.23,9.996v15.349h-0.892V8.454h1.277l6.457,14.842V8.478h0.892v16.867h-0.892L54.23,9.996z"/>
		<path fill="#3C3C3B" d="M73.603,12.213l-0.892-0.024c-0.145-0.867-0.502-1.554-1.072-2.061c-0.57-0.506-1.209-0.758-1.916-0.758
			c-1.188,0-2.128,0.605-2.818,1.818c-0.691,1.213-1.036,2.606-1.036,4.181c0,3.196,0.55,5.478,1.65,6.843s2.831,2.112,5.192,2.24
			v-6.625H70.35v-0.893h3.253v8.434c-2.329,0-4.064-0.346-5.204-1.036c-0.45-0.272-0.904-0.658-1.361-1.156
			c-0.459-0.497-0.832-1.093-1.121-1.783c-0.627-1.558-0.939-3.573-0.939-6.048c0-1.172,0.16-2.225,0.482-3.156
			c0.32-0.932,0.723-1.654,1.204-2.168c0.979-1.028,1.968-1.543,2.964-1.543s1.907,0.402,2.734,1.205
			C73.188,10.486,73.603,11.329,73.603,12.213z"/>
	</g>
</g>
</svg>
