<?xml version="1.0" encoding="utf-8"?>
<!-- Generator: Adobe Illustrator 15.0.2, SVG Export Plug-In . SVG Version: 6.00 Build 0)  -->
<!DOCTYPE svg PUBLIC "-//W3C//DTD SVG 1.1//EN" "http://www.w3.org/Graphics/SVG/1.1/DTD/svg11.dtd">
<svg version="1.1" id="Lager_1" xmlns="http://www.w3.org/2000/svg" xmlns:xlink="http://www.w3.org/1999/xlink" x="0px" y="0px"
	 width="80.092px" height="33.953px" viewBox="0 0 80.092 33.953" enable-background="new 0 0 80.092 33.953" xml:space="preserve">
<g>
	<rect fill="#FFFFFF" enable-background="new    " width="80.092" height="33.953"/>
	<g>
		<path fill="#3C3C3B" d="M15.241,25.346L11.603,8.478h0.892l3.349,15.42l3.349-15.42h0.892l-3.59,16.868H15.241z"/>
		<path fill="#3C3C3B" d="M30.782,9.731v15.613H29.89v-7.951h-6.843v7.951h-0.892V14.31c0-1.735,0.554-3.157,1.663-4.266
			c1.108-1.107,2.498-1.662,4.168-1.662C29.208,8.382,30.14,8.831,30.782,9.731z M29.891,16.501v-6.433
			c-0.514-0.53-1.165-0.795-1.952-0.795c-1.414,0-2.582,0.515-3.506,1.542c-0.924,1.027-1.385,2.201-1.385,3.518v2.168H29.891z
			 M24.084,5.346H25v1.591h-0.916V5.346z M28.18,5.346h0.916v1.591H28.18V5.346z"/>
		<path fill="#3C3C3B" d="M43.022,25.346h-1.084l-4.675-7.156c-0.594,0.08-1.253,0.137-1.976,0.168v6.988h-0.892V8.454
			c5.381,0.016,8.071,1.631,8.071,4.843c0,2.587-1.412,4.169-4.24,4.747L43.022,25.346z M35.288,17.394l0.241,0.023
			c4.032-0.064,6.048-1.413,6.048-4.048c0-0.738-0.174-1.353-0.52-1.843c-0.346-0.49-0.735-0.871-1.167-1.145
			c-1.028-0.643-2.562-0.98-4.602-1.012V17.394z"/>
		<path fill="#3C3C3B" d="M54.924,25.346l0.05-15.47l-4.024,9.229H50.13l-4.023-9.229v15.47h-0.844V8.454h1.156l4.121,9.444
			l4.096-9.444h1.182v16.892H54.924z"/>
		<path fill="#3C3C3B" d="M59.478,25.346V8.478h8.627V9.37H60.37v6.168h7.734v0.891H60.37v8.023h7.734v0.894H59.478z"/>
	</g>
</g>
</svg>
