<?xml version="1.0" encoding="utf-8"?>
<!-- Generator: Adobe Illustrator 15.0.2, SVG Export Plug-In . SVG Version: 6.00 Build 0)  -->
<!DOCTYPE svg PUBLIC "-//W3C//DTD SVG 1.1//EN" "http://www.w3.org/Graphics/SVG/1.1/DTD/svg11.dtd">
<svg version="1.1" id="Lager_1" xmlns="http://www.w3.org/2000/svg" xmlns:xlink="http://www.w3.org/1999/xlink" x="0px" y="0px"
	 width="76.078px" height="33.953px" viewBox="0 0 76.078 33.953" enable-background="new 0 0 76.078 33.953" xml:space="preserve">
<g>
	<rect opacity="0.6" fill="#FFFFFF" width="76.078" height="33.953"/>
	<g>
		<path fill="#3C3C3B" d="M15.716,25.345h-0.892V9.37h-3.855V8.478h8.626V9.37h-3.879V25.345z"/>
		<path fill="#3C3C3B" d="M29.474,9.731v15.613h-0.892v-7.951h-6.843v7.951h-0.892V14.31c0-1.735,0.555-3.157,1.663-4.266
			c1.108-1.107,2.497-1.662,4.168-1.662C27.899,8.382,28.831,8.831,29.474,9.731z M28.582,16.501v-6.433
			c-0.514-0.53-1.164-0.795-1.951-0.795c-1.414,0-2.582,0.515-3.506,1.542s-1.386,2.201-1.386,3.518v2.168H28.582z"/>
		<path fill="#3C3C3B" d="M33.979,9.996v15.349h-0.892V8.454h1.277l6.457,14.842V8.478h0.893v16.867h-0.893L33.979,9.996z"/>
		<path fill="#3C3C3B" d="M53.978,25.345h-0.893v-1.639c0-4.979-1.221-7.47-3.662-7.47c-0.514,0-1.004,0.133-1.469,0.397
			c-0.467,0.266-0.791,0.498-0.977,0.699s-0.422,0.494-0.711,0.879v7.133h-0.891V8.478h0.891v8.312l6.506-8.336h1.229l-5.59,7.035
			c0.385-0.096,0.764-0.145,1.133-0.145c1.365,0,2.445,0.659,3.24,1.977c0.795,1.316,1.193,3.349,1.193,6.096V25.345z"/>
		<path fill="#3C3C3B" d="M65.109,9.731v15.613h-0.891v-7.951h-6.844v7.951h-0.891V14.31c0-1.735,0.553-3.157,1.662-4.266
			c1.107-1.107,2.498-1.662,4.168-1.662C63.535,8.382,64.466,8.831,65.109,9.731z M64.218,16.501v-6.433
			c-0.516-0.53-1.166-0.795-1.953-0.795c-1.412,0-2.582,0.515-3.506,1.542s-1.385,2.201-1.385,3.518v2.168H64.218z"/>
	</g>
</g>
</svg>
