<?xml version="1.0" encoding="utf-8"?>
<!-- Generator: Adobe Illustrator 15.0.2, SVG Export Plug-In . SVG Version: 6.00 Build 0)  -->
<!DOCTYPE svg PUBLIC "-//W3C//DTD SVG 1.1//EN" "http://www.w3.org/Graphics/SVG/1.1/DTD/svg11.dtd">
<svg version="1.1" id="Lager_1" xmlns="http://www.w3.org/2000/svg" xmlns:xlink="http://www.w3.org/1999/xlink" x="0px" y="0px"
	 width="67.846px" height="33.953px" viewBox="0 0 67.846 33.953" enable-background="new 0 0 67.846 33.953" xml:space="preserve">
<g>
	<rect opacity="0.6" fill="#FFFFFF" width="67.846" height="33.953"/>
	<g>
		<path fill="#3C3C3B" d="M22.683,17.056c0,2.65-0.45,4.694-1.35,6.132s-2.201,2.156-3.903,2.156s-3.052-0.727-4.048-2.18
			c-0.996-1.454-1.494-3.518-1.494-6.193c0-2.674,0.49-4.777,1.47-6.312c0.979-1.533,2.345-2.301,4.096-2.301
			c1.044,0,1.931,0.27,2.662,0.807c0.731,0.539,1.273,1.266,1.626,2.182C22.37,13.031,22.683,14.936,22.683,17.056z M21.792,16.646
			c0-2.232-0.377-4.016-1.132-5.35c-0.755-1.333-1.84-2-3.253-2c-1.414,0-2.538,0.663-3.373,1.988
			c-0.835,1.325-1.253,3.225-1.253,5.698c0,2.876,0.65,4.987,1.952,6.337c0.723,0.738,1.55,1.108,2.481,1.108
			s1.695-0.208,2.289-0.626s1.052-0.996,1.374-1.735C21.486,20.686,21.792,18.879,21.792,16.646z"/>
		<path fill="#3C3C3B" d="M33.381,17.248c0,1.189-0.145,2.277-0.434,3.266c-0.289,0.987-0.679,1.787-1.169,2.396
			c-0.49,0.611-1.112,1.102-1.867,1.471c-1.365,0.69-3.084,1.035-5.156,1.035V8.454c2.201,0,3.936,0.329,5.205,0.987
			c1.092,0.578,1.911,1.438,2.458,2.578C33.059,13.338,33.381,15.08,33.381,17.248z M32.489,16.983c0-5.06-2.281-7.59-6.843-7.59
			v15.107c2.602-0.032,4.417-0.778,5.445-2.241C32.023,20.943,32.489,19.185,32.489,16.983z"/>
		<path fill="#3C3C3B" d="M44.752,25.344h-8.385V8.479h0.893v15.975h7.492V25.344z"/>
		<path fill="#3C3C3B" d="M55.354,9.73v15.613h-0.891v-7.951H47.62v7.951h-0.891V14.309c0-1.734,0.554-3.156,1.662-4.264
			c1.108-1.109,2.498-1.663,4.168-1.663C53.78,8.382,54.711,8.832,55.354,9.73z M54.463,16.502v-6.434
			c-0.515-0.53-1.165-0.795-1.952-0.795c-1.413,0-2.582,0.514-3.506,1.542s-1.386,2.2-1.386,3.518v2.169H54.463z"/>
	</g>
</g>
</svg>
