<?xml version="1.0" encoding="utf-8"?>
<!-- Generator: Adobe Illustrator 15.0.2, SVG Export Plug-In . SVG Version: 6.00 Build 0)  -->
<!DOCTYPE svg PUBLIC "-//W3C//DTD SVG 1.1//EN" "http://www.w3.org/Graphics/SVG/1.1/DTD/svg11.dtd">
<svg version="1.1" id="Lager_1" xmlns="http://www.w3.org/2000/svg" xmlns:xlink="http://www.w3.org/1999/xlink" x="0px" y="0px"
	 width="53.121px" height="33.953px" viewBox="0 0 53.121 33.953" enable-background="new 0 0 53.121 33.953" xml:space="preserve">
<g>
	<rect fill="#FFFFFF" enable-background="new    " width="53.121" height="33.953"/>
	<g>
		<path fill="#3C3C3B" d="M19.513,25.346l0.048-15.47l-4.023,9.229h-0.819l-4.024-9.229v15.47H9.851V8.454h1.157l4.12,9.444
			l4.096-9.444h1.181v16.892H19.513z"/>
		<path fill="#3C3C3B" d="M32.546,9.731v15.613h-0.891v-7.951h-6.843v7.951h-0.892V14.31c0-1.735,0.554-3.157,1.663-4.266
			c1.108-1.107,2.498-1.662,4.167-1.662C30.973,8.382,31.905,8.831,32.546,9.731z M31.658,16.501v-6.433
			c-0.516-0.53-1.166-0.795-1.953-0.795c-1.412,0-2.582,0.515-3.505,1.542c-0.924,1.027-1.385,2.201-1.385,3.518v2.168H31.658z"/>
		<path fill="#3C3C3B" d="M39.391,25.346h-0.894V9.37h-3.854V8.478h8.627V9.37h-3.879V25.346z"/>
	</g>
</g>
</svg>
