<?xml version="1.0" encoding="utf-8"?>
<!-- Generator: Adobe Illustrator 15.0.2, SVG Export Plug-In . SVG Version: 6.00 Build 0)  -->
<!DOCTYPE svg PUBLIC "-//W3C//DTD SVG 1.1//EN" "http://www.w3.org/Graphics/SVG/1.1/DTD/svg11.dtd">
<svg version="1.1" id="Lager_1" xmlns="http://www.w3.org/2000/svg" xmlns:xlink="http://www.w3.org/1999/xlink" x="0px" y="0px"
	 width="48.513px" height="33.953px" viewBox="0 0 48.513 33.953" enable-background="new 0 0 48.513 33.953" xml:space="preserve">
<g>
	<rect opacity="0.6" fill="#FFFFFF" width="48.513" height="33.953"/>
	<g>
		<path fill="#3C3C3B" d="M12.884,25.417L12.86,8.478c2.49,0.081,4.369,0.422,5.638,1.024c1.269,0.603,1.903,1.502,1.903,2.699
			c0,1.197-0.337,2.084-1.012,2.663c-0.675,0.578-1.494,0.932-2.458,1.06c1.269,0.112,2.349,0.554,3.241,1.325
			s1.337,1.899,1.337,3.385s-0.735,2.65-2.205,3.494C17.835,24.971,15.695,25.4,12.884,25.417z M19.51,12.188
			c0-0.899-0.514-1.59-1.542-2.072c-1.028-0.482-2.434-0.723-4.216-0.723v6.12C17.59,15.465,19.51,14.357,19.51,12.188z
			 M20.618,20.501c0-0.835-0.233-1.533-0.699-2.096s-1.092-0.964-1.879-1.205c-1.317-0.434-2.739-0.65-4.265-0.65v7.951
			c1.301-0.016,2.425-0.164,3.373-0.445s1.663-0.639,2.145-1.072C20.176,22.163,20.618,21.337,20.618,20.501z"/>
		<path fill="#3C3C3B" d="M25.124,25.345h-0.892V8.526h0.892V25.345z"/>
		<path fill="#3C3C3B" d="M37.171,25.345h-8.385V8.478h0.891v15.974h7.494V25.345z"/>
	</g>
</g>
</svg>
