<?xml version="1.0" encoding="utf-8"?>
<!-- Generator: Adobe Illustrator 15.0.2, SVG Export Plug-In . SVG Version: 6.00 Build 0)  -->
<!DOCTYPE svg PUBLIC "-//W3C//DTD SVG 1.1//EN" "http://www.w3.org/Graphics/SVG/1.1/DTD/svg11.dtd">
<svg version="1.1" id="Lager_1" xmlns="http://www.w3.org/2000/svg" xmlns:xlink="http://www.w3.org/1999/xlink" x="0px" y="0px"
	 width="94.4px" height="33.953px" viewBox="0 0 94.4 33.953" enable-background="new 0 0 94.4 33.953" xml:space="preserve">
<g>
	<rect x="0" fill="#FFFFFF" enable-background="new    " width="94.4" height="33.953"/>
	<g>
		<path fill="#3C3C3B" d="M18.36,23.839c-0.739,1.035-1.823,1.554-3.252,1.554c-1.43,0-2.498-0.57-3.205-1.711
			c-0.707-1.14-1.061-2.529-1.061-4.168V8.478h0.892V19.49c0,1.639,0.333,2.883,1,3.734c0.667,0.851,1.478,1.276,2.434,1.276
			s1.764-0.422,2.421-1.267c0.659-0.842,0.988-2.092,0.988-3.746V8.478h0.893v11.036C19.468,21.359,19.099,22.803,18.36,23.839z"/>
		<path fill="#3C3C3B" d="M26.263,25.346h-0.893V9.37h-3.854V8.478h8.626V9.37h-3.879V25.346z"/>
		<path fill="#3C3C3B" d="M37.732,22.79c0.723-0.627,1.084-1.39,1.084-2.289c0-0.897-0.261-1.617-0.783-2.155
			c-0.521-0.539-1.153-0.94-1.892-1.206c-0.739-0.265-1.481-0.533-2.229-0.807s-1.382-0.688-1.903-1.241
			c-0.521-0.554-0.782-1.265-0.782-2.132c0-1.51,0.421-2.635,1.265-3.373c0.844-0.739,1.852-1.109,3.024-1.109
			c1.172,0,2.458,0.113,3.854,0.338v0.892c-1.253-0.226-2.426-0.337-3.518-0.337c-1.093,0-1.988,0.305-2.688,0.915
			s-1.048,1.47-1.048,2.578c0,0.964,0.498,1.688,1.494,2.169c0.45,0.225,0.943,0.434,1.481,0.626c0.538,0.192,1.08,0.409,1.626,0.65
			c0.547,0.241,1.04,0.526,1.481,0.855s0.803,0.787,1.084,1.374c0.281,0.586,0.421,1.269,0.421,2.047s-0.181,1.468-0.542,2.062
			c-0.361,0.595-0.807,1.061-1.337,1.396c-0.53,0.337-1.147,0.609-1.854,0.818c-1.142,0.354-2.427,0.531-3.855,0.531h-0.603V24.5
			C34.375,24.501,36.447,23.932,37.732,22.79z"/>
		<path fill="#3C3C3B" d="M50.863,25.346h-8.384V8.478h0.892v15.975h7.493L50.863,25.346L50.863,25.346z"/>
		<path fill="#3C3C3B" d="M61.464,9.731v15.613h-0.891v-7.951H53.73v7.951h-0.892V14.31c0-1.735,0.555-3.157,1.662-4.266
			C55.61,8.937,57,8.382,58.669,8.382C59.89,8.382,60.822,8.831,61.464,9.731z M60.574,16.501v-6.433
			c-0.515-0.53-1.165-0.795-1.952-0.795c-1.413,0-2.582,0.515-3.506,1.542s-1.386,2.201-1.386,3.518v2.168H60.574z M54.767,5.347
			h0.915v1.59h-0.915V5.347z M58.863,5.347h0.916v1.59h-0.916V5.347z"/>
		<path fill="#3C3C3B" d="M65.97,18.212v7.134h-0.893V8.454C67.89,8.47,70.031,8.899,71.5,9.743
			c1.472,0.844,2.205,2.027,2.205,3.554c0,1.8-0.707,3.052-2.12,3.759c-0.48,0.258-0.906,0.45-1.276,0.578
			c-0.37,0.13-0.867,0.241-1.493,0.339C68.027,18.066,67.079,18.148,65.97,18.212z M65.97,17.321l0.239,0.023
			c4.402-0.064,6.604-1.389,6.604-3.976c0-0.964-0.442-1.823-1.325-2.578c-0.482-0.417-1.192-0.755-2.133-1.012
			c-0.939-0.257-2.068-0.394-3.385-0.409V17.321z"/>
		<path fill="#3C3C3B" d="M76.981,18.212v7.134h-0.893V8.454C78.9,8.47,81.04,8.899,82.511,9.743
			c1.469,0.844,2.203,2.027,2.203,3.554c0,1.8-0.707,3.052-2.119,3.759c-0.482,0.258-0.908,0.45-1.277,0.578
			c-0.369,0.13-0.867,0.241-1.494,0.339C79.037,18.066,78.089,18.148,76.981,18.212z M76.981,17.321l0.241,0.023
			c4.399-0.064,6.602-1.389,6.602-3.976c0-0.964-0.441-1.823-1.325-2.578c-0.48-0.417-1.191-0.755-2.132-1.012
			c-0.939-0.257-2.068-0.394-3.386-0.409V17.321z"/>
	</g>
</g>
</svg>
