<?xml version="1.0" encoding="utf-8"?>
<!-- Generator: Adobe Illustrator 15.0.2, SVG Export Plug-In . SVG Version: 6.00 Build 0)  -->
<!DOCTYPE svg PUBLIC "-//W3C//DTD SVG 1.1//EN" "http://www.w3.org/Graphics/SVG/1.1/DTD/svg11.dtd">
<svg version="1.1" id="Lager_1" xmlns="http://www.w3.org/2000/svg" xmlns:xlink="http://www.w3.org/1999/xlink" x="0px" y="0px"
	 width="94.401px" height="33.953px" viewBox="0 0 94.401 33.953" enable-background="new 0 0 94.401 33.953" xml:space="preserve">
<g>
	<rect opacity="0.6" fill="#FFFFFF" width="94.401" height="33.953"/>
	<g>
		<path fill="#3C3C3B" d="M15.866,22.79c0.723-0.627,1.084-1.389,1.084-2.289c0-0.898-0.261-1.617-0.783-2.156
			c-0.522-0.538-1.153-0.939-1.892-1.205c-0.739-0.265-1.481-0.533-2.229-0.807s-1.382-0.688-1.903-1.241
			C9.621,14.538,9.36,13.827,9.36,12.96c0-1.51,0.421-2.635,1.265-3.373c0.844-0.739,1.852-1.109,3.024-1.109
			s2.458,0.113,3.855,0.338v0.892c-1.253-0.226-2.426-0.337-3.518-0.337s-1.988,0.305-2.687,0.915s-1.048,1.47-1.048,2.578
			c0,0.964,0.498,1.687,1.494,2.169c0.45,0.225,0.943,0.434,1.482,0.626c0.538,0.192,1.08,0.409,1.626,0.65
			c0.546,0.241,1.04,0.526,1.481,0.855s0.803,0.787,1.084,1.374c0.281,0.586,0.421,1.269,0.421,2.047
			c0,0.779-0.181,1.467-0.542,2.061c-0.361,0.595-0.807,1.061-1.337,1.397c-0.53,0.337-1.148,0.61-1.855,0.819
			c-1.141,0.354-2.426,0.53-3.855,0.53H9.649v-0.892C12.508,24.501,14.581,23.931,15.866,22.79z"/>
		<path fill="#3C3C3B" d="M30.756,17.056c0,2.65-0.45,4.695-1.35,6.133s-2.201,2.156-3.903,2.156s-3.052-0.727-4.048-2.182
			c-0.996-1.453-1.494-3.518-1.494-6.191c0-2.675,0.49-4.779,1.47-6.312c0.979-1.534,2.345-2.302,4.096-2.302
			c1.044,0,1.931,0.27,2.662,0.808s1.273,1.266,1.626,2.18C30.443,13.032,30.756,14.936,30.756,17.056z M29.865,16.646
			c0-2.232-0.377-4.015-1.132-5.348c-0.755-1.334-1.84-2-3.253-2c-1.414,0-2.538,0.662-3.373,1.987
			c-0.835,1.325-1.253,3.225-1.253,5.698c0,2.875,0.65,4.988,1.952,6.337c0.723,0.739,1.55,1.108,2.481,1.108
			s1.695-0.209,2.289-0.627c0.594-0.417,1.052-0.995,1.374-1.734C29.56,20.687,29.865,18.879,29.865,16.646z"/>
		<path fill="#3C3C3B" d="M42.418,25.345h-1.084l-4.674-7.156c-0.594,0.08-1.253,0.137-1.976,0.168v6.988h-0.892V8.454
			c5.381,0.016,8.072,1.631,8.072,4.843c0,2.587-1.414,4.169-4.241,4.747L42.418,25.345z M34.684,17.394l0.241,0.023
			c4.032-0.064,6.048-1.413,6.048-4.048c0-0.738-0.173-1.353-0.518-1.843c-0.346-0.49-0.735-0.871-1.168-1.145
			c-1.028-0.643-2.562-0.98-4.602-1.012V17.394z"/>
		<path fill="#3C3C3B" d="M47.237,25.345h-0.892V9.37H42.49V8.478h8.626V9.37h-3.879V25.345z"/>
		<path fill="#3C3C3B" d="M53.26,25.345V8.478h8.625V9.37h-7.734v6.168h7.734v0.891h-7.734v8.023h7.734v0.893H53.26z"/>
		<path fill="#3C3C3B" d="M73.426,25.345h-1.084l-4.674-7.156c-0.595,0.08-1.254,0.137-1.977,0.168v6.988h-0.891V8.454
			c5.381,0.016,8.071,1.631,8.071,4.843c0,2.587-1.413,4.169-4.241,4.747L73.426,25.345z M65.692,17.394l0.241,0.023
			c4.032-0.064,6.048-1.413,6.048-4.048c0-0.738-0.173-1.353-0.518-1.843c-0.346-0.49-0.735-0.871-1.169-1.145
			c-1.028-0.643-2.562-0.98-4.603-1.012V17.394z"/>
		<path fill="#3C3C3B" d="M84.149,9.731v15.613h-0.893v-7.951h-6.842v7.951h-0.893V14.31c0-1.735,0.555-3.157,1.663-4.266
			c1.108-1.107,2.497-1.662,4.169-1.662C82.574,8.382,83.506,8.831,84.149,9.731z M83.256,16.501v-6.433
			c-0.514-0.53-1.164-0.795-1.951-0.795c-1.414,0-2.582,0.515-3.506,1.542s-1.385,2.201-1.385,3.518v2.168H83.256z"/>
	</g>
</g>
</svg>
