<?xml version="1.0" encoding="utf-8"?>
<!-- Generator: Adobe Illustrator 15.0.2, SVG Export Plug-In . SVG Version: 6.00 Build 0)  -->
<!DOCTYPE svg PUBLIC "-//W3C//DTD SVG 1.1//EN" "http://www.w3.org/Graphics/SVG/1.1/DTD/svg11.dtd">
<svg version="1.1" id="Lager_1" xmlns="http://www.w3.org/2000/svg" xmlns:xlink="http://www.w3.org/1999/xlink" x="0px" y="0px"
	 width="81.59px" height="33.954px" viewBox="0 0 81.59 33.954" enable-background="new 0 0 81.59 33.954" xml:space="preserve">
<g>
	<rect opacity="0.6" fill="#FFFFFF" width="81.59" height="33.954"/>
	<g>
		<path fill="#3C3C3B" d="M22.182,9.731v15.613h-0.892v-7.951h-6.843v7.951h-0.892V14.309c0-1.735,0.554-3.157,1.663-4.265
			c1.108-1.108,2.498-1.663,4.168-1.663C20.607,8.382,21.54,8.832,22.182,9.731z M21.291,16.501v-6.433
			c-0.514-0.53-1.165-0.795-1.952-0.795c-1.414,0-2.582,0.514-3.506,1.542s-1.385,2.201-1.385,3.518v2.168H21.291z"/>
		<path fill="#3C3C3B" d="M26.688,25.344h-0.892V8.478h8.626V9.37h-7.734v6.168h7.734v0.892h-7.734V25.344z"/>
		<path fill="#3C3C3B" d="M38.06,25.344h-0.892V8.478h8.626V9.37H38.06v6.168h7.734v0.892H38.06V25.344z"/>
		<path fill="#3C3C3B" d="M57.021,9.731v15.613H56.13v-7.951h-6.843v7.951h-0.892V14.309c0-1.735,0.555-3.157,1.662-4.265
			c1.109-1.108,2.498-1.663,4.169-1.663C55.446,8.382,56.379,8.832,57.021,9.731z M56.13,16.501v-6.433
			c-0.514-0.53-1.164-0.795-1.951-0.795c-1.414,0-2.582,0.514-3.506,1.542s-1.386,2.201-1.386,3.518v2.168H56.13z M50.323,5.346
			h0.916v1.59h-0.916V5.346z M54.419,5.346h0.916v1.59h-0.916V5.346z"/>
		<path fill="#3C3C3B" d="M69.261,25.344h-1.084l-4.674-7.156c-0.595,0.081-1.254,0.137-1.977,0.169v6.987h-0.891V8.454
			c5.381,0.016,8.071,1.63,8.071,4.843c0,2.586-1.413,4.168-4.241,4.747L69.261,25.344z M61.526,17.393l0.241,0.024
			c4.032-0.064,6.048-1.413,6.048-4.048c0-0.738-0.173-1.353-0.518-1.843c-0.346-0.49-0.735-0.871-1.169-1.145
			c-1.028-0.642-2.562-0.979-4.603-1.012V17.393z"/>
	</g>
</g>
</svg>
