<?xml version="1.0" encoding="utf-8"?>
<!-- Generator: Adobe Illustrator 15.0.2, SVG Export Plug-In . SVG Version: 6.00 Build 0)  -->
<!DOCTYPE svg PUBLIC "-//W3C//DTD SVG 1.1//EN" "http://www.w3.org/Graphics/SVG/1.1/DTD/svg11.dtd">
<svg version="1.1" id="Lager_1" xmlns="http://www.w3.org/2000/svg" xmlns:xlink="http://www.w3.org/1999/xlink" x="0px" y="0px"
	 width="73.739px" height="33.953px" viewBox="0 0 73.739 33.953" enable-background="new 0 0 73.739 33.953" xml:space="preserve">
<g>
	<rect opacity="0.6" fill="#FFFFFF" width="73.739" height="33.953"/>
	<g>
		<path fill="#3C3C3B" d="M16.077,22.79c0.723-0.627,1.084-1.389,1.084-2.289c0-0.898-0.261-1.617-0.783-2.156
			c-0.522-0.538-1.153-0.939-1.892-1.205c-0.739-0.265-1.481-0.533-2.229-0.807s-1.382-0.688-1.903-1.241
			c-0.522-0.554-0.783-1.265-0.783-2.132c0-1.51,0.421-2.635,1.265-3.373c0.844-0.739,1.852-1.109,3.024-1.109
			s2.458,0.113,3.855,0.338v0.892C16.462,9.481,15.29,9.37,14.197,9.37s-1.988,0.305-2.687,0.915s-1.048,1.47-1.048,2.578
			c0,0.964,0.498,1.687,1.494,2.169c0.45,0.225,0.943,0.434,1.482,0.626c0.538,0.192,1.08,0.409,1.626,0.65
			c0.546,0.241,1.04,0.526,1.481,0.855s0.803,0.787,1.084,1.374c0.281,0.586,0.421,1.269,0.421,2.047
			c0,0.779-0.181,1.467-0.542,2.061c-0.361,0.595-0.807,1.061-1.337,1.397c-0.53,0.337-1.148,0.61-1.855,0.819
			c-1.141,0.354-2.426,0.53-3.855,0.53H9.86v-0.892C12.719,24.501,14.792,23.931,16.077,22.79z"/>
		<path fill="#3C3C3B" d="M21.715,18.212v7.133h-0.892V8.454c2.811,0.016,4.952,0.445,6.421,1.289s2.205,2.027,2.205,3.554
			c0,1.8-0.707,3.052-2.12,3.759c-0.482,0.258-0.908,0.45-1.277,0.578c-0.37,0.129-0.867,0.241-1.494,0.338
			C23.771,18.067,22.823,18.148,21.715,18.212z M21.715,17.321l0.241,0.023c4.401-0.064,6.602-1.389,6.602-3.976
			c0-0.964-0.442-1.823-1.325-2.578c-0.482-0.417-1.192-0.755-2.132-1.012c-0.939-0.257-2.068-0.394-3.385-0.409V17.321z"/>
		<path fill="#3C3C3B" d="M40.315,9.731v15.613h-0.892v-7.951h-6.843v7.951h-0.892V14.31c0-1.735,0.554-3.157,1.663-4.266
			c1.108-1.107,2.498-1.662,4.168-1.662C38.741,8.382,39.673,8.831,40.315,9.731z M39.424,16.501v-6.433
			c-0.515-0.53-1.165-0.795-1.952-0.795c-1.414,0-2.582,0.515-3.506,1.542s-1.385,2.201-1.385,3.518v2.168H39.424z"/>
		<path fill="#3C3C3B" d="M52.556,25.345h-1.085l-4.675-7.156c-0.594,0.08-1.252,0.137-1.975,0.168v6.988h-0.893V8.454
			c5.382,0.016,8.072,1.631,8.072,4.843c0,2.587-1.414,4.169-4.24,4.747L52.556,25.345z M44.821,17.394l0.24,0.023
			c4.031-0.064,6.048-1.413,6.048-4.048c0-0.738-0.173-1.353-0.519-1.843s-0.734-0.871-1.168-1.145
			c-1.028-0.643-2.562-0.98-4.602-1.012V17.394z"/>
		<path fill="#3C3C3B" d="M63.276,9.731v15.613h-0.891v-7.951h-6.844v7.951h-0.891V14.31c0-1.735,0.554-3.157,1.662-4.266
			c1.108-1.107,2.498-1.662,4.168-1.662C61.702,8.382,62.634,8.831,63.276,9.731z M62.386,16.501v-6.433
			c-0.515-0.53-1.165-0.795-1.952-0.795c-1.413,0-2.582,0.515-3.506,1.542s-1.386,2.201-1.386,3.518v2.168H62.386z"/>
	</g>
</g>
</svg>
