<?xml version="1.0" encoding="utf-8"?>
<!-- Generator: Adobe Illustrator 15.0.2, SVG Export Plug-In . SVG Version: 6.00 Build 0)  -->
<!DOCTYPE svg PUBLIC "-//W3C//DTD SVG 1.1//EN" "http://www.w3.org/Graphics/SVG/1.1/DTD/svg11.dtd">
<svg version="1.1" id="Lager_1" xmlns="http://www.w3.org/2000/svg" xmlns:xlink="http://www.w3.org/1999/xlink" x="0px" y="0px"
	 width="178.696px" height="33.953px" viewBox="0 0 178.696 33.953" enable-background="new 0 0 178.696 33.953"
	 xml:space="preserve">
<g>
	<rect opacity="0.6" fill="#FFFFFF" width="178.696" height="33.953"/>
	<g>
		<path fill="#3C3C3B" d="M23.089,25.344l0.048-15.469l-4.023,9.229h-0.819l-4.024-9.229v15.469h-0.843V8.454h1.157l4.12,9.444
			L22.8,8.454h1.181v16.89H23.089z"/>
		<path fill="#3C3C3B" d="M36.125,9.73v15.613h-0.892v-7.951H28.39v7.951h-0.892V14.309c0-1.734,0.554-3.156,1.663-4.264
			c1.108-1.109,2.498-1.663,4.168-1.663C34.55,8.382,35.482,8.832,36.125,9.73z M35.233,16.502v-6.434
			c-0.514-0.53-1.165-0.795-1.952-0.795c-1.414,0-2.582,0.514-3.506,1.542s-1.385,2.2-1.385,3.518v2.169H35.233z"/>
		<path fill="#3C3C3B" d="M42.967,25.344h-0.892V9.369H38.22V8.479h8.626v0.891h-3.879V25.344z"/>
		<path fill="#3C3C3B" d="M56.725,9.73v15.613h-0.892v-7.951h-6.843v7.951h-0.892V14.309c0-1.734,0.554-3.156,1.663-4.264
			c1.108-1.109,2.498-1.663,4.168-1.663C55.15,8.382,56.083,8.832,56.725,9.73z M55.833,16.502v-6.434
			c-0.514-0.53-1.165-0.795-1.952-0.795c-1.414,0-2.582,0.514-3.506,1.542s-1.385,2.2-1.385,3.518v2.169H55.833z"/>
		<path fill="#3C3C3B" d="M62.845,25.344L59.207,8.479h0.892l3.349,15.42l3.349-15.42h0.892l-3.59,16.865H62.845z"/>
		<path fill="#3C3C3B" d="M71.133,25.344h-0.892V8.479h8.626v0.891h-7.734v6.168h7.734v0.893h-7.734V25.344z"/>
		<path fill="#3C3C3B" d="M90.095,9.73v15.613h-0.892v-7.951h-6.843v7.951h-0.892V14.309c0-1.734,0.554-3.156,1.663-4.264
			c1.108-1.109,2.498-1.663,4.168-1.663C88.521,8.382,89.453,8.832,90.095,9.73z M89.204,16.502v-6.434
			c-0.514-0.53-1.165-0.795-1.952-0.795c-1.414,0-2.582,0.514-3.506,1.542s-1.385,2.2-1.385,3.518v2.169H89.204z"/>
		<path fill="#3C3C3B" d="M102.094,25.344h-8.385V8.479h0.892v15.975h7.493V25.344z"/>
		<path fill="#3C3C3B" d="M112.599,25.344h-8.385V8.479h0.892v15.975h7.493V25.344z"/>
		<path fill="#3C3C3B" d="M119.225,22.79c0.723-0.626,1.085-1.39,1.085-2.288c0-0.9-0.262-1.619-0.783-2.157
			c-0.523-0.538-1.153-0.939-1.893-1.204c-0.738-0.266-1.48-0.534-2.229-0.808c-0.746-0.272-1.381-0.687-1.902-1.241
			c-0.523-0.554-0.783-1.265-0.783-2.133c0-1.509,0.421-2.633,1.264-3.373c0.844-0.738,1.852-1.107,3.024-1.107
			s2.458,0.112,3.855,0.337v0.892c-1.253-0.225-2.426-0.338-3.519-0.338c-1.092,0-1.987,0.306-2.686,0.916
			c-0.699,0.611-1.049,1.47-1.049,2.578c0,0.964,0.498,1.687,1.494,2.168c0.449,0.226,0.943,0.434,1.482,0.627
			c0.537,0.193,1.08,0.41,1.626,0.65c0.546,0.241,1.04,0.526,1.481,0.855c0.441,0.33,0.803,0.787,1.084,1.373
			c0.281,0.587,0.422,1.27,0.422,2.049s-0.181,1.466-0.542,2.06c-0.361,0.595-0.808,1.061-1.337,1.397
			c-0.53,0.338-1.148,0.611-1.855,0.819c-1.141,0.354-2.426,0.53-3.855,0.53h-0.602v-0.892
			C115.867,24.501,117.939,23.932,119.225,22.79z"/>
		<path fill="#3C3C3B" d="M124.862,18.213v7.131h-0.891V8.454c2.811,0.017,4.951,0.446,6.421,1.289s2.204,2.028,2.204,3.554
			c0,1.799-0.707,3.053-2.119,3.759c-0.482,0.257-0.908,0.45-1.277,0.578c-0.37,0.129-0.867,0.241-1.494,0.337
			C126.919,18.068,125.972,18.148,124.862,18.213z M124.862,17.32l0.241,0.024c4.401-0.063,6.603-1.39,6.603-3.976
			c0-0.964-0.442-1.822-1.326-2.578c-0.481-0.418-1.191-0.755-2.132-1.012c-0.939-0.257-2.068-0.394-3.386-0.41V17.32z"/>
		<path fill="#3C3C3B" d="M143.464,9.73v15.613h-0.893v-7.951h-6.842v7.951h-0.893V14.309c0-1.734,0.555-3.156,1.663-4.264
			c1.108-1.109,2.497-1.663,4.169-1.663C141.889,8.382,142.821,8.832,143.464,9.73z M142.571,16.502v-6.434
			c-0.514-0.53-1.164-0.795-1.951-0.795c-1.414,0-2.582,0.514-3.506,1.542s-1.385,2.2-1.385,3.518v2.169H142.571z M140.716,7.418
			c-0.369,0.369-0.818,0.555-1.349,0.555s-0.979-0.186-1.349-0.555c-0.37-0.369-0.555-0.823-0.555-1.361s0.185-0.988,0.555-1.35
			c0.369-0.361,0.818-0.542,1.349-0.542s0.979,0.181,1.349,0.542c0.37,0.361,0.555,0.812,0.555,1.35S141.086,7.049,140.716,7.418z
			 M140.597,6.045c0-0.354-0.117-0.643-0.35-0.867c-0.233-0.225-0.527-0.338-0.88-0.338c-0.354,0-0.646,0.113-0.88,0.338
			c-0.232,0.225-0.349,0.51-0.349,0.855c0,0.345,0.116,0.643,0.349,0.891c0.233,0.25,0.534,0.373,0.904,0.373
			c0.369,0,0.662-0.12,0.879-0.361C140.487,6.695,140.597,6.398,140.597,6.045z"/>
		<path fill="#3C3C3B" d="M152.644,22.79c0.723-0.626,1.084-1.39,1.084-2.288c0-0.9-0.262-1.619-0.783-2.157
			c-0.522-0.538-1.152-0.939-1.892-1.204c-0.739-0.266-1.481-0.534-2.229-0.808c-0.747-0.272-1.382-0.687-1.903-1.241
			c-0.522-0.554-0.783-1.265-0.783-2.133c0-1.509,0.422-2.633,1.265-3.373c0.844-0.738,1.852-1.107,3.024-1.107
			c1.172,0,2.457,0.112,3.855,0.337v0.892c-1.254-0.225-2.426-0.338-3.519-0.338s-1.987,0.306-2.687,0.916
			c-0.699,0.611-1.048,1.47-1.048,2.578c0,0.964,0.497,1.687,1.493,2.168c0.45,0.226,0.943,0.434,1.482,0.627
			c0.538,0.193,1.08,0.41,1.627,0.65c0.545,0.241,1.039,0.526,1.48,0.855c0.442,0.33,0.804,0.787,1.085,1.373
			c0.28,0.587,0.421,1.27,0.421,2.049s-0.18,1.466-0.541,2.06c-0.361,0.595-0.808,1.061-1.338,1.397
			c-0.529,0.338-1.148,0.611-1.855,0.819c-1.141,0.354-2.426,0.53-3.854,0.53h-0.603v-0.892
			C149.286,24.501,151.358,23.932,152.644,22.79z"/>
		<path fill="#3C3C3B" d="M157.39,25.344V8.479h8.626v0.891h-7.734v6.168h7.734v0.893h-7.734v8.023h7.734v0.891H157.39z"/>
	</g>
</g>
</svg>
