<?xml version="1.0" encoding="utf-8"?>
<!-- Generator: Adobe Illustrator 15.0.2, SVG Export Plug-In . SVG Version: 6.00 Build 0)  -->
<!DOCTYPE svg PUBLIC "-//W3C//DTD SVG 1.1//EN" "http://www.w3.org/Graphics/SVG/1.1/DTD/svg11.dtd">
<svg version="1.1" id="Layer_1" xmlns="http://www.w3.org/2000/svg" xmlns:xlink="http://www.w3.org/1999/xlink" x="0px" y="0px"
	 width="207.484px" height="215.75px" viewBox="0 34.75 207.484 215.75" enable-background="new 0 34.75 207.484 215.75"
	 xml:space="preserve">
<polygon fill="#FFD600" points="207.484,250.5 0,250.5 105.268,34.75 "/>
<polygon fill="#FDC100" points="105.268,34.75 0,250.5 105.268,250.5 "/>
<circle fill="#FFD600" cx="81.12" cy="160.452" r="8.676"/>
<circle fill="#FDC100" cx="129.719" cy="161.218" r="8.676"/>
<circle fill="#FDC100" cx="105.245" cy="188.33" r="8.676"/>
<circle fill="#FDC100" cx="105.268" cy="124.344" r="12.242"/>
<circle fill="#FDC100" cx="145.027" cy="210.315" r="15.308"/>
<circle fill="#FFD600" cx="65.137" cy="200.541" r="15.308"/>
<path fill="#FFD600" d="M105.268,136.586c-6.762,0-12.243-5.481-12.243-12.242c0-6.76,5.481-12.243,12.243-12.243V136.586z"/>
<path fill="#FFD600" d="M105.245,197.005c-4.792,0-8.676-3.883-8.676-8.676c0-4.789,3.884-8.675,8.676-8.675V197.005z"/>
</svg>
