<?xml version="1.0" encoding="utf-8"?>
<!-- Generator: Adobe Illustrator 17.0.0, SVG Export Plug-In . SVG Version: 6.00 Build 0)  -->
<!DOCTYPE svg PUBLIC "-//W3C//DTD SVG 1.1//EN" "http://www.w3.org/Graphics/SVG/1.1/DTD/svg11.dtd">
<svg version="1.1" id="Layer_1" xmlns="http://www.w3.org/2000/svg" xmlns:xlink="http://www.w3.org/1999/xlink" x="0px" y="0px"
	 width="112.524px" height="166.989px" viewBox="0 0 112.524 166.989" enable-background="new 0 0 112.524 166.989"
	 xml:space="preserve">
<path fill="#FFEED3" stroke="#FFEED3" stroke-width="6" stroke-linecap="round" stroke-linejoin="round" stroke-miterlimit="10" d="
	M95.338,161.974c-2.781-4.473-5.536-9.045-5.536-14.698c0-8.771,2.656-21.398,8.776-26.753c-6.121-5.355-8.777-8.451-8.777-17.221
	c0-13.464,5.112-27.136,17.503-30.522c-7.41-5.299-8.246-11.625-8.246-21.429c0-3.335,0.175-5.308,1.204-8.294
	c-9.306-4.886-15.265-15.864-15.265-27.104c0-4.321,0.946-8.419,2.63-12.109c-2.331-0.024-4.705-0.036-7.128-0.036
	c-41.267,0-69.698,2.949-73.869,28.131c-0.67,16.325,9.967,20.726,9.967,20.726L3.5,152.078c0,5.853,4.746,10.6,10.601,10.6
	C14.101,162.677,78.143,158.718,95.338,161.974z"/>
<path fill="#FDC100" stroke="#FDC100" stroke-width="0.946" stroke-linecap="round" stroke-linejoin="round" stroke-miterlimit="10" d="
	M101.234,121.151c-5.752-5.034-9.388-12.423-9.388-20.666c0-12.653,8.56-23.301,20.205-26.483
	c-6.964-4.98-11.507-13.128-11.507-22.342c0-3.134,0.532-6.142,1.499-8.948C93.299,38.12,87.33,28.955,87.33,18.392
	c0-1.746,0.173-3.45,0.486-5.104L23.211,39.558l44.502,109.44l24.27-9.868C92.679,131.979,96.115,125.63,101.234,121.151z
	 M84.633,40.645c4.935-2.007,10.562,0.367,12.569,5.302c2.006,4.935-0.367,10.562-5.302,12.569
	c-4.937,2.007-10.561-0.367-12.569-5.302C77.325,48.279,79.696,42.652,84.633,40.645z M53.087,53.473
	c-2.355,0.958-5.038-0.175-5.994-2.528c-0.958-2.353,0.175-5.037,2.529-5.994c2.353-0.957,5.036,0.175,5.993,2.528
	C56.571,49.832,55.441,52.516,53.087,53.473z M65.134,83.099c-1.496-3.679,0.273-7.876,3.956-9.373
	c3.68-1.496,7.877,0.275,9.373,3.955c1.497,3.68-0.273,7.878-3.954,9.374C70.826,88.552,66.63,86.78,65.134,83.099z M72.744,120.751
	c-2.239-5.504,0.41-11.783,5.915-14.021c5.504-2.239,11.781,0.409,14.021,5.915c2.239,5.504-0.409,11.783-5.915,14.021
	C81.259,128.905,74.982,126.257,72.744,120.751z"/>
<path fill="#FFD600" stroke="#FFD600" stroke-width="0.946" stroke-linecap="round" stroke-linejoin="round" stroke-miterlimit="10" d="
	M97.937,83.242c3.569-4.414,8.481-7.701,14.113-9.24c-6.964-4.98-11.507-13.128-11.507-22.342c0-3.134,0.532-6.142,1.499-8.948
	C93.299,38.12,87.33,28.955,87.33,18.392c0-1.746,0.173-3.45,0.486-5.104L23.211,39.558L97.937,83.242z M84.633,40.645
	c4.935-2.007,10.562,0.367,12.569,5.302c2.006,4.935-0.367,10.562-5.302,12.569c-4.937,2.007-10.561-0.367-12.569-5.302
	C77.325,48.279,79.696,42.652,84.633,40.645z M53.087,53.473c-2.355,0.958-5.038-0.175-5.994-2.528
	c-0.958-2.353,0.175-5.037,2.529-5.994c2.353-0.957,5.036,0.175,5.993,2.528C56.571,49.832,55.441,52.516,53.087,53.473z"/>
<path fill="none" stroke="#BD8855" stroke-width="7" stroke-linecap="round" stroke-linejoin="round" stroke-miterlimit="10" d="
	M88.731,3.809C45.6,2.291,10.448,5.532,6.63,32.735c-1.065,18.174,9.967,20.729,9.967,20.729L3.5,152.888
	c0,5.855,4.746,10.601,10.601,10.601c0,0,44.048-4.426,82.252-0.812"/>
</svg>
