<?xml version="1.0" encoding="utf-8"?>
<!-- Generator: Adobe Illustrator 17.0.0, SVG Export Plug-In . SVG Version: 6.00 Build 0)  -->
<!DOCTYPE svg PUBLIC "-//W3C//DTD SVG 1.1//EN" "http://www.w3.org/Graphics/SVG/1.1/DTD/svg11.dtd">
<svg version="1.1" id="Layer_1" xmlns="http://www.w3.org/2000/svg" xmlns:xlink="http://www.w3.org/1999/xlink" x="0px" y="0px"
	 width="101.676px" height="128.281px" viewBox="0 0 101.676 128.281" enable-background="new 0 0 101.676 128.281"
	 xml:space="preserve">
<g>
	<path fill="#9D9D9C" d="M101.676,77.941c0,27.803-22.759,50.34-50.837,50.34C22.762,128.281,0,105.744,0,77.941
		C0,50.14,22.762,1.505,50.839,1.505C78.917,1.505,101.676,50.14,101.676,77.941z"/>
</g>
<g>
	<path fill="#878787" d="M50.839,1.505C22.762,1.505,0,50.14,0,77.941c0,27.803,22.762,50.34,50.839,50.34L50.722,1.722"/>
</g>
<g>
	<path fill="#FFFFFF" d="M99.246,74.4c0,26.474-21.67,47.933-48.405,47.933c-26.735,0-48.408-21.459-48.408-47.933
		c0-26.471,21.673-72.781,48.408-72.781C77.576,1.619,99.246,47.929,99.246,74.4z"/>
</g>
<g opacity="0.49">
	<path fill="#A7B7D8" stroke="#A7B7D8" stroke-miterlimit="10" d="M92.139,64.693c0,22.887-18.736,41.438-41.847,41.438
		c-23.114,0-41.85-18.551-41.85-41.438c0-22.886,18.736-62.921,41.85-62.921C73.404,1.772,92.139,41.806,92.139,64.693z"/>
</g>
<g opacity="0.49">
	<path fill="#A7B7D8" stroke="#A7B7D8" stroke-width="1.0015" stroke-miterlimit="10" d="M50.475,1.65
		c-23.148,0-41.911,40.094-41.911,63.013c0,22.921,18.763,41.5,41.911,41.5V1.65z"/>
</g>
<g>
	<path fill="#A7B7D8" stroke="#A7B7D8" stroke-width="3.0417" stroke-miterlimit="10" d="M85.706,55.498
		c0,19.634-16.073,35.549-35.9,35.549c-19.828,0-35.901-15.915-35.901-35.549c0-19.632,16.073-53.977,35.901-53.977
		C69.633,1.521,85.706,35.865,85.706,55.498z"/>
</g>
<g>
	<path fill="#7788B2" stroke="#7788B2" stroke-width="3.0417" stroke-miterlimit="10" d="M49.806,1.521
		c-19.828,0-35.901,34.344-35.901,53.977c0,19.634,16.073,35.549,35.901,35.549V1.521z"/>
</g>
<circle opacity="0.5" fill="#7788B2" stroke="#7788B2" stroke-width="3.1645" stroke-miterlimit="10" cx="50.694" cy="29.368" r="18.953"/>
<circle fill="#FFFFFF" cx="50.718" cy="29.369" r="15.582"/>
<path fill="#EDEDED" d="M40.959,41.516c-6.708-5.389-7.778-15.198-2.388-21.906c5.39-6.709,15.198-7.778,21.907-2.388"/>
</svg>
