<?xml version="1.0" encoding="utf-8"?>
<!-- Generator: Adobe Illustrator 15.0.2, SVG Export Plug-In . SVG Version: 6.00 Build 0)  -->
<!DOCTYPE svg PUBLIC "-//W3C//DTD SVG 1.1//EN" "http://www.w3.org/Graphics/SVG/1.1/DTD/svg11.dtd">
<svg version="1.1" id="Lager_1" xmlns="http://www.w3.org/2000/svg" xmlns:xlink="http://www.w3.org/1999/xlink" x="0px" y="0px"
	 width="484.349px" height="275.986px" viewBox="0 0 484.349 275.986" enable-background="new 0 0 484.349 275.986"
	 xml:space="preserve">
<g>
	<g>
		<g>
			<path fill="#3D3D3F" stroke="#3D3D3F" stroke-width="1.0659" stroke-miterlimit="10" d="M262.013,141.545l210.342-21.996
				c7.025-0.735,12.127-7.026,11.391-14.052l-0.758-7.242c-0.734-7.026-7.025-12.127-14.051-11.392L258.595,108.86L262.013,141.545z
				"/>
			<g>
				<circle fill="#B0B2B3" stroke="#B0B2B3" stroke-width="0.9651" stroke-miterlimit="10" cx="137.993" cy="137.993" r="137.5"/>
				<path fill="#3D3D3F" stroke="#3D3D3F" stroke-width="2.1318" stroke-miterlimit="10" d="M7.599,151.629
					C0.081,79.73,52.457,15.119,124.356,7.601c71.898-7.52,136.51,44.857,144.029,116.756c7.52,71.9-44.859,136.511-116.756,144.03
					C79.73,275.906,15.118,223.528,7.599,151.629z"/>
			</g>
		</g>
	</g>
	<g>
		<g>
			<g>
				<g>
					<path fill="#915E36" d="M206.486,146.316c0,39.233-30.509,71.036-68.146,71.036s-74.372-25.914-68.148-66.531
						c4.315-28.159,26.638-35.884,37.96-48.943c13.107-15.118,22.146-36.141,48.093-36.141
						C193.882,65.737,206.486,107.084,206.486,146.316z"/>
				</g>
				<g>
					<path fill="#673B15" d="M189.455,145.005c0,28.451-22.125,51.518-49.419,51.518c-10.94,0-21.776-3.02-30.542-8.535
						c-13.105-8.244-21.585-22.066-18.881-39.714c3.13-20.423,19.318-26.025,27.529-35.496
						c9.506-10.963,16.061-26.209,34.878-26.209C180.314,86.568,189.455,116.553,189.455,145.005z"/>
				</g>
			</g>
		</g>
		<g>
			
				<line fill="#41281B" stroke="#41281B" stroke-width="10" stroke-linecap="round" stroke-miterlimit="10" x1="105.604" y1="139.906" x2="147.784" y2="185.325"/>
			
				<line fill="#41281B" stroke="#41281B" stroke-width="10" stroke-linecap="round" stroke-miterlimit="10" x1="122.292" y1="124.407" x2="164.472" y2="169.827"/>
			
				<line fill="#41281B" stroke="#41281B" stroke-width="10" stroke-linecap="round" stroke-miterlimit="10" x1="138.981" y1="108.909" x2="181.162" y2="154.328"/>
		</g>
	</g>
</g>
</svg>
