<?xml version="1.0" encoding="utf-8"?>
<!-- Generator: Adobe Illustrator 15.0.2, SVG Export Plug-In . SVG Version: 6.00 Build 0)  -->
<!DOCTYPE svg PUBLIC "-//W3C//DTD SVG 1.1//EN" "http://www.w3.org/Graphics/SVG/1.1/DTD/svg11.dtd">
<svg version="1.1" id="Lager_1" xmlns="http://www.w3.org/2000/svg" xmlns:xlink="http://www.w3.org/1999/xlink" x="0px" y="0px"
	 width="188.671px" height="210.008px" viewBox="0 0 188.671 210.008" enable-background="new 0 0 188.671 210.008"
	 xml:space="preserve">
<g>
	<g>
		
			<path fill="#FFFFFF" stroke="#FFFFFF" stroke-width="3.5941" stroke-linecap="round" stroke-linejoin="round" stroke-miterlimit="10" d="
			M164.491,97.232c0.141-1.266,0.215-2.556,0.215-3.857c0-14.285-8.624-26.736-21.42-33.391
			c-0.969-12.839-13.088-23.433-29.205-26.426l25.125-17.514l-1.129-11.975l-11.309-2.272L98.026,33.015L67.652,2.989L56.083,6.272
			l-0.188,11.531l29.772,18.729C79.803,39.063,74.912,42.7,71.5,47.07C60.1,51.75,51.741,61.417,49.886,72.99
			c-15.108,5.019-26.198,17.52-27.754,32.521c-12.43,9.457-20.334,23.599-20.334,39.414c0,28.377,25.423,51.39,56.847,51.538
			c10.402,7.358,23.492,11.747,37.726,11.747c19.007,0,35.983-7.808,47.212-20.062c24.864-5.587,43.291-25.853,43.291-50.013
			C186.874,121.461,178.095,106.657,164.491,97.232z"/>
		
			<path fill="#FFFFFF" stroke="#FFFFFF" stroke-width="3.5941" stroke-linecap="round" stroke-linejoin="round" stroke-miterlimit="10" d="
			M164.491,97.232c0.141-1.266,0.215-2.556,0.215-3.857c0-14.285-8.624-26.736-21.42-33.391
			c-0.969-12.839-13.088-23.433-29.205-26.426l25.125-17.514l-1.129-11.975l-11.309-2.272L99.387,34.005L67.652,2.989L56.083,6.272
			l-0.188,11.531l29.772,18.729C79.803,39.063,74.912,42.7,71.5,47.07C60.1,51.75,51.741,61.417,49.886,72.99
			c-15.108,5.019-26.198,17.52-27.754,32.521c-12.43,9.457-20.334,23.599-20.334,39.414c0,28.377,25.423,51.39,56.847,51.538
			c10.402,7.358,23.492,11.747,37.726,11.747c19.007,0,35.983-7.808,47.212-20.062c24.864-5.587,43.291-25.853,43.291-50.013
			C186.874,121.461,178.095,106.657,164.491,97.232z"/>
		
			<path fill="#F5F5F6" stroke="#F5F5F6" stroke-width="3.5967" stroke-linecap="round" stroke-linejoin="round" stroke-miterlimit="10" d="
			M96.371,208.209c-14.234,0-27.324-4.389-37.726-11.747c-31.424-0.148-56.847-23.161-56.847-51.538
			c0-15.815,7.904-29.957,20.334-39.414c1.556-15.001,12.646-27.502,27.754-32.521C51.741,61.417,60.1,51.75,71.5,47.07
			c3.411-4.37,8.303-8.006,14.167-10.537L55.896,17.803l0.188-11.531l11.568-3.283l30.375,30.025L96.371,208.209z"/>
	</g>
	<g>
		<g>
			<polygon fill="#1A171B" points="125.949,127.289 130.057,127.289 130.057,144.305 131.471,144.305 131.471,127.289 
				135.605,127.289 135.605,125.865 125.949,125.865 			"/>
			<path fill="#1A171B" d="M144.99,126.649c-0.812-0.604-1.812-0.909-2.972-0.909c-1.941,0-3.477,0.86-4.562,2.56
				c-1.064,1.665-1.604,3.973-1.604,6.852c0,2.886,0.55,5.148,1.636,6.727c1.105,1.609,2.623,2.428,4.503,2.428
				c1.888,0,3.351-0.81,4.351-2.408c0.979-1.558,1.478-3.797,1.478-6.658c0-2.253-0.342-4.325-1.017-6.166
				C146.413,128.066,145.806,127.251,144.99,126.649z M141.964,127.211c1.424,0,2.49,0.657,3.261,2.008
				c0.778,1.382,1.174,3.262,1.174,5.587c0,2.344-0.32,4.254-0.954,5.679c-0.32,0.74-0.786,1.329-1.384,1.749
				c-0.584,0.415-1.359,0.625-2.302,0.625c-0.927,0-1.764-0.373-2.478-1.105c-1.333-1.393-2.009-3.609-2.009-6.591
				c0-2.579,0.436-4.576,1.301-5.94C139.418,127.869,140.53,127.211,141.964,127.211z"/>
			<polygon fill="#1A171B" points="158.818,125.865 158.818,140.758 152.334,125.844 150.588,125.844 150.588,144.305 
				152.003,144.305 152.003,128.829 158.839,144.166 158.9,144.305 160.239,144.305 160.239,125.865 			"/>
			<path fill="#1A171B" d="M51.463,126.188c-1.967,0-3.504,0.796-4.569,2.366c-1.045,1.544-1.576,3.775-1.576,6.634
				s0.543,5.104,1.615,6.672c1.09,1.595,2.602,2.403,4.492,2.403c1.893,0,3.358-0.799,4.354-2.373
				c0.976-1.539,1.471-3.767,1.471-6.612C57.25,129.247,55.302,126.188,51.463,126.188z M51.412,127.645
				c1.447,0,2.519,0.601,3.275,1.836c0.768,1.257,1.157,3.062,1.157,5.372c0,2.321-0.32,4.215-0.954,5.632
				c-0.323,0.728-0.788,1.307-1.382,1.724c-0.589,0.414-1.363,0.624-2.302,0.624c-0.935,0-1.745-0.362-2.474-1.109
				c-1.334-1.366-2.009-3.559-2.009-6.522c0-2.536,0.43-4.457,1.279-5.709C48.845,128.246,49.96,127.645,51.412,127.645z"/>
			<path fill="#1A171B" d="M65.574,126.188c-1.968,0-3.505,0.796-4.569,2.366c-1.046,1.544-1.577,3.775-1.577,6.634
				s0.544,5.104,1.615,6.672c1.09,1.595,2.602,2.403,4.491,2.403c1.894,0,3.359-0.799,4.355-2.373
				c0.975-1.539,1.47-3.766,1.47-6.612C71.359,129.247,69.413,126.188,65.574,126.188z M65.521,127.645
				c1.448,0,2.518,0.601,3.274,1.836c0.769,1.255,1.158,3.062,1.158,5.372c0,2.321-0.32,4.215-0.953,5.632
				c-0.323,0.727-0.789,1.307-1.382,1.724c-0.589,0.414-1.363,0.624-2.302,0.624c-0.934,0-1.745-0.362-2.474-1.109
				c-1.333-1.366-2.01-3.559-2.01-6.522c0-2.536,0.432-4.458,1.281-5.71C62.956,128.246,64.07,127.645,65.521,127.645z"/>
			<path fill="#1A171B" d="M84.882,126.188c-1.967,0-3.504,0.796-4.569,2.366c-1.046,1.544-1.577,3.775-1.577,6.634
				s0.543,5.104,1.615,6.672c1.091,1.595,2.602,2.403,4.491,2.403c1.893,0,3.359-0.799,4.355-2.373
				c0.975-1.539,1.469-3.766,1.469-6.612C90.667,129.247,88.72,126.188,84.882,126.188z M84.83,127.645
				c1.447,0,2.518,0.601,3.274,1.836c0.768,1.255,1.157,3.062,1.157,5.372c0,2.322-0.32,4.216-0.954,5.632
				c-0.322,0.728-0.788,1.307-1.381,1.724c-0.589,0.414-1.363,0.624-2.301,0.624c-0.935,0-1.745-0.362-2.475-1.109
				c-1.333-1.366-2.009-3.559-2.009-6.522c0-2.536,0.431-4.457,1.28-5.709C82.263,128.246,83.378,127.645,84.83,127.645z"/>
			<path fill="#1A171B" d="M98.991,126.188c-1.966,0-3.504,0.796-4.568,2.366c-1.046,1.544-1.576,3.775-1.576,6.634
				s0.543,5.104,1.615,6.672c1.09,1.595,2.602,2.403,4.49,2.403c1.893,0,3.358-0.799,4.355-2.373c0.975-1.539,1.47-3.766,1.47-6.612
				C104.777,129.247,102.831,126.188,98.991,126.188z M98.94,127.645c1.448,0,2.519,0.601,3.274,1.836
				c0.768,1.255,1.158,3.062,1.158,5.372c0,2.322-0.321,4.216-0.954,5.632c-0.323,0.727-0.788,1.307-1.382,1.724
				c-0.589,0.414-1.363,0.624-2.302,0.624c-0.935,0-1.744-0.362-2.474-1.109c-1.333-1.366-2.01-3.559-2.01-6.522
				c0-2.536,0.431-4.457,1.28-5.709C96.373,128.246,97.488,127.645,98.94,127.645z"/>
			<path fill="#1A171B" d="M113.102,126.188c-1.966,0-3.504,0.796-4.57,2.366c-1.045,1.544-1.575,3.775-1.575,6.634
				s0.543,5.104,1.615,6.672c1.091,1.595,2.602,2.403,4.492,2.403c1.892,0,3.357-0.799,4.353-2.373
				c0.977-1.539,1.47-3.766,1.47-6.612C118.886,129.247,116.938,126.188,113.102,126.188z M113.049,127.645
				c1.449,0,2.52,0.601,3.275,1.836c0.767,1.255,1.157,3.062,1.157,5.372c0,2.321-0.319,4.215-0.954,5.632
				c-0.321,0.728-0.786,1.307-1.382,1.724c-0.588,0.414-1.363,0.624-2.3,0.624s-1.746-0.362-2.475-1.109
				c-1.334-1.366-2.008-3.559-2.008-6.522c0-2.536,0.429-4.457,1.28-5.709C110.483,128.246,111.599,127.645,113.049,127.645z"/>
		</g>
		<polygon fill="#1A171B" points="35.813,129.636 39.663,127.89 39.663,144.291 41.105,144.291 41.105,125.72 35.813,128.171 		"/>
	</g>
</g>
</svg>
