<?xml version="1.0" encoding="utf-8"?>
<!-- Generator: Adobe Illustrator 15.0.2, SVG Export Plug-In . SVG Version: 6.00 Build 0)  -->
<!DOCTYPE svg PUBLIC "-//W3C//DTD SVG 1.1//EN" "http://www.w3.org/Graphics/SVG/1.1/DTD/svg11.dtd">
<svg version="1.1" id="Lager_1" xmlns="http://www.w3.org/2000/svg" xmlns:xlink="http://www.w3.org/1999/xlink" x="0px" y="0px"
	 width="308.998px" height="343.942px" viewBox="0 0 308.998 343.942" enable-background="new 0 0 308.998 343.942"
	 xml:space="preserve">
<g>
	<g>
		
			<path fill="#FFFFFF" stroke="#FFFFFF" stroke-width="5.8862" stroke-linecap="round" stroke-linejoin="round" stroke-miterlimit="10" d="
			M269.397,159.243c0.231-2.073,0.353-4.185,0.353-6.318c0-23.396-14.124-43.787-35.081-54.685
			c-1.588-21.028-21.434-38.379-47.831-43.279l41.148-28.684l-1.849-19.612l-18.522-3.722L160.543,54.07L110.797,4.896
			l-18.945,5.377l-0.309,18.885l48.76,30.674c-9.604,4.145-17.614,10.102-23.202,17.258c-18.671,7.664-32.36,23.496-35.398,42.45
			c-24.745,8.22-42.907,28.693-45.453,53.261c-20.357,15.488-33.304,38.648-33.304,64.55c0,46.477,41.638,84.164,93.102,84.408
			c17.036,12.051,38.473,19.238,61.786,19.238c31.128,0,58.932-12.787,77.321-32.857c40.722-9.15,70.9-42.34,70.9-81.91
			C306.055,198.925,291.678,174.679,269.397,159.243z"/>
		<g>
			
				<path fill="#FFFFFF" stroke="#FFFFFF" stroke-width="5.8862" stroke-linecap="round" stroke-linejoin="round" stroke-miterlimit="10" d="
				M269.397,159.243c0.231-2.073,0.353-4.185,0.353-6.318c0-23.396-14.124-43.787-35.081-54.685
				c-1.588-21.028-21.434-38.379-47.831-43.279l41.148-28.684l-1.849-19.612l-18.522-3.722l-44.844,52.749L110.797,4.896
				l-18.945,5.377l-0.309,18.885l48.76,30.674c-9.604,4.145-17.614,10.102-23.202,17.258c-18.671,7.664-32.36,23.496-35.398,42.45
				c-24.745,8.22-42.907,28.693-45.453,53.261c-20.357,15.488-33.304,38.648-33.304,64.55c0,46.477,41.638,84.164,93.102,84.408
				c17.036,12.051,38.473,19.238,61.786,19.238c31.128,0,58.932-12.787,77.321-32.857c40.722-9.15,70.9-42.34,70.9-81.91
				C306.055,198.925,291.678,174.679,269.397,159.243z"/>
			
				<path fill="#F5F5F6" stroke="#F5F5F6" stroke-width="5.8906" stroke-linecap="round" stroke-linejoin="round" stroke-miterlimit="10" d="
				M157.833,340.997c-23.313,0-44.75-7.188-61.786-19.238c-51.464-0.244-93.102-37.932-93.102-84.408
				c0-25.902,12.946-49.062,33.304-64.55c2.546-24.567,20.708-45.041,45.453-53.261c3.038-18.954,16.728-34.786,35.398-42.45
				c5.588-7.156,13.599-13.113,23.202-17.258l-48.76-30.674l0.309-18.885l18.945-5.377l49.746,49.174L157.833,340.997z"/>
		</g>
	</g>
	<g>
		<polygon fill="#1A171B" points="95.375,210.173 99.958,208.095 99.958,227.628 101.678,227.628 101.678,205.507 95.375,208.429 		
			"/>
		<polygon fill="#1A171B" points="118.945,217.198 113.899,205.64 111.971,205.64 111.971,227.628 113.604,227.628 113.604,209.062 
			118.242,219.704 119.646,219.704 124.284,209.071 124.226,227.628 125.915,227.628 125.915,205.64 123.956,205.64 		"/>
		<rect x="130.003" y="205.731" fill="#1A171B" width="1.692" height="21.896"/>
		<polygon fill="#1A171B" points="137.472,205.667 135.783,205.667 135.783,227.628 146.978,227.628 146.978,225.937 
			137.472,225.937 		"/>
		<path fill="#1A171B" d="M155.738,219.915c0,2.229-0.371,3.832-1.104,4.766c-0.723,0.924-1.74,1.375-3.11,1.375
			c-0.477,0-0.973-0.16-1.465-0.471c-0.649-0.438-0.999-1.391-1.039-2.83l-0.008-0.271h-1.681v0.279
			c0,0.998,0.147,1.855,0.436,2.549c0.282,0.709,0.669,1.244,1.159,1.598c0.854,0.555,1.708,0.838,2.536,0.838
			c3.959,0,5.967-2.625,5.967-7.799v-14.281h-1.691V219.915z"/>
		<path fill="#1A171B" d="M171.449,206.599c-0.974-0.719-2.166-1.082-3.546-1.082c-2.307,0-4.134,1.025-5.432,3.049
			c-1.266,1.986-1.907,4.73-1.907,8.16s0.654,6.125,1.945,8.012c1.313,1.918,3.12,2.891,5.368,2.891c2.247,0,3.99-0.965,5.181-2.867
			c1.167-1.863,1.759-4.531,1.759-7.932c0-2.705-0.409-5.176-1.216-7.342C173.147,208.29,172.425,207.319,171.449,206.599z
			 M167.839,207.269c1.707,0,2.979,0.781,3.889,2.391c0.929,1.646,1.399,3.885,1.399,6.654c0,2.791-0.383,5.066-1.138,6.766
			c-0.382,0.881-0.935,1.582-1.646,2.084c-0.699,0.492-1.621,0.74-2.741,0.74c-1.104,0-2.097-0.443-2.952-1.314
			c-1.588-1.652-2.394-4.295-2.394-7.85c0-3.07,0.52-5.449,1.545-7.074C164.821,208.052,166.142,207.269,167.839,207.269z"/>
		<polygon fill="#1A171B" points="187.92,223.405 180.189,205.64 178.109,205.64 178.109,227.628 179.794,227.628 179.794,209.192 
			188.019,227.628 189.606,227.628 189.606,205.667 187.92,205.667 		"/>
		<polygon fill="#1A171B" points="197.973,207.36 202.865,207.36 202.865,227.628 204.551,227.628 204.551,207.36 209.477,207.36 
			209.477,205.667 197.973,205.667 		"/>
		<path fill="#1A171B" d="M220.653,206.599c-0.967-0.719-2.157-1.082-3.54-1.082c-2.312,0-4.14,1.025-5.435,3.049
			c-1.268,1.982-1.911,4.729-1.911,8.16c0,3.436,0.655,6.131,1.949,8.012c1.317,1.918,3.122,2.891,5.364,2.891
			c2.247,0,3.991-0.965,5.182-2.867c1.167-1.855,1.759-4.523,1.759-7.932c0-2.682-0.407-5.15-1.21-7.342
			C222.35,208.288,221.623,207.315,220.653,206.599z M217.049,207.269c1.696,0,2.966,0.781,3.883,2.391
			c0.928,1.646,1.397,3.885,1.397,6.654c0,2.791-0.382,5.066-1.136,6.766c-0.382,0.881-0.937,1.582-1.646,2.084
			c-0.698,0.492-1.621,0.74-2.741,0.74c-1.106,0-2.101-0.443-2.953-1.314c-1.588-1.658-2.393-4.299-2.393-7.85
			c0-3.07,0.521-5.451,1.549-7.074C214.019,208.052,215.339,207.269,217.049,207.269z"/>
		<polygon fill="#1A171B" points="237.123,205.667 237.123,223.405 229.4,205.64 227.319,205.64 227.319,227.628 229.006,227.628 
			229.006,209.192 237.147,227.462 237.222,227.628 238.815,227.628 238.815,205.667 		"/>
	</g>
</g>
</svg>
