<?xml version="1.0" encoding="utf-8"?>
<!-- Generator: Adobe Illustrator 15.0.2, SVG Export Plug-In . SVG Version: 6.00 Build 0)  -->
<!DOCTYPE svg PUBLIC "-//W3C//DTD SVG 1.1//EN" "http://www.w3.org/Graphics/SVG/1.1/DTD/svg11.dtd">
<svg version="1.1" id="Lager_1" xmlns="http://www.w3.org/2000/svg" xmlns:xlink="http://www.w3.org/1999/xlink" x="0px" y="0px"
	 width="257.647px" height="286.785px" viewBox="0 0 257.647 286.785" enable-background="new 0 0 257.647 286.785"
	 xml:space="preserve">
<rect x="-243.341" y="733.734" fill="none" width="945.743" height="347.91"/>
<text transform="matrix(1 0 0 1 -243.3408 841.5591)" fill="#1A171B" font-family="'BubblerOne'" font-size="143.9601">500 000 TON</text>
<g>
	<g>
		
			<path fill="#FFFFFF" stroke="#FFFFFF" stroke-width="4.908" stroke-linecap="round" stroke-linejoin="round" stroke-miterlimit="10" d="
			M224.628,132.78c0.192-1.729,0.294-3.49,0.294-5.268c0-19.509-11.777-36.512-29.251-45.599c-1.324-17.533-17.872-32-39.882-36.086
			l34.31-23.916l-1.542-16.354l-15.443-3.103l-39.25,42.631L92.385,4.082L76.587,8.565L76.33,24.312l40.657,25.578
			c-8.01,3.455-14.688,8.421-19.347,14.389C82.071,70.669,70.657,83.87,68.125,99.675c-20.633,6.854-35.776,23.925-37.901,44.41
			c-16.975,12.914-27.768,32.227-27.768,53.822c0,38.752,34.717,70.178,77.629,70.381c14.204,10.049,32.08,16.041,51.52,16.041
			c25.955,0,49.138-10.662,64.471-27.396c33.955-7.629,59.118-35.305,59.118-68.297C255.193,165.868,243.205,145.651,224.628,132.78
			z"/>
		
			<path fill="#FFFFFF" stroke="#FFFFFF" stroke-width="4.908" stroke-linecap="round" stroke-linejoin="round" stroke-miterlimit="10" d="
			M224.628,132.78c0.192-1.729,0.294-3.49,0.294-5.268c0-19.509-11.777-36.512-29.251-45.599c-1.324-17.533-17.872-32-39.882-36.086
			l34.31-23.916l-1.542-16.354l-15.443-3.103l-37.392,43.982L92.385,4.082L76.587,8.565L76.33,24.312l40.657,25.578
			c-8.01,3.455-14.688,8.421-19.347,14.389C82.071,70.669,70.657,83.87,68.125,99.675c-20.633,6.854-35.776,23.925-37.901,44.41
			c-16.975,12.914-27.768,32.227-27.768,53.822c0,38.752,34.717,70.178,77.629,70.381c14.204,10.049,32.08,16.041,51.52,16.041
			c25.955,0,49.138-10.662,64.471-27.396c33.955-7.629,59.118-35.305,59.118-68.297C255.193,165.868,243.205,145.651,224.628,132.78
			z"/>
		
			<path fill="#F5F5F6" stroke="#F5F5F6" stroke-width="4.9117" stroke-linecap="round" stroke-linejoin="round" stroke-miterlimit="10" d="
			M131.604,284.329c-19.439,0-37.315-5.992-51.52-16.041c-42.912-0.203-77.629-31.629-77.629-70.381
			c0-21.596,10.793-40.908,27.768-53.822c2.125-20.484,17.269-37.556,37.901-44.41c2.532-15.805,13.946-29.006,29.516-35.396
			c4.658-5.968,11.337-10.934,19.347-14.389L76.33,24.312l0.257-15.746l15.798-4.483l41.479,41.003L131.604,284.329z"/>
	</g>
	<g>
		<polygon fill="#1A171B" points="168.71,164.989 173.603,164.989 173.603,185.258 175.289,185.258 175.289,164.989 
			180.214,164.989 180.214,163.295 168.71,163.295 		"/>
		<path fill="#1A171B" d="M191.392,164.229c-0.967-0.719-2.158-1.084-3.54-1.084c-2.312,0-4.14,1.027-5.435,3.051
			c-1.269,1.982-1.912,4.729-1.912,8.16c0,3.436,0.656,6.131,1.949,8.012c1.318,1.918,3.123,2.891,5.364,2.891
			c2.247,0,3.992-0.965,5.183-2.867c1.166-1.855,1.758-4.523,1.758-7.932c0-2.682-0.406-5.15-1.209-7.344
			C193.087,165.917,192.361,164.946,191.392,164.229z M187.787,164.897c1.695,0,2.966,0.783,3.882,2.393
			c0.928,1.646,1.397,3.885,1.397,6.654c0,2.791-0.381,5.066-1.135,6.766c-0.382,0.879-0.937,1.58-1.646,2.084
			c-0.699,0.49-1.622,0.74-2.742,0.74c-1.105,0-2.101-0.443-2.953-1.314c-1.588-1.658-2.393-4.299-2.393-7.85
			c0-3.072,0.521-5.451,1.55-7.076C184.756,165.682,186.077,164.897,187.787,164.897z"/>
		<polygon fill="#1A171B" points="207.861,163.295 207.861,181.036 200.139,163.27 198.058,163.27 198.058,185.258 199.743,185.258 
			199.743,166.823 207.885,185.092 207.959,185.258 209.554,185.258 209.554,163.295 		"/>
		<path fill="#1A171B" d="M63.524,170.756c-1.12,0-2.166,0.289-3.114,0.863v-6.57h8.968v-1.676H58.829v12.291l0.507-0.869
			c0.401-0.688,0.984-1.26,1.733-1.701c0.748-0.441,1.563-0.666,2.424-0.666c1.739,0,3.077,0.514,3.976,1.525
			c0.905,1.023,1.364,2.295,1.364,3.785c0,1.496-0.458,2.846-1.361,4.012c-0.899,1.16-2.051,1.725-3.521,1.725
			c-1.156,0-2.125-0.275-2.876-0.818c-0.745-0.537-1.142-1.137-1.214-1.836l-0.026-0.244h-1.661l0.015,0.287
			c0.065,1.26,0.673,2.318,1.804,3.15c1.111,0.812,2.391,1.227,3.806,1.227c1.989,0,3.637-0.801,4.895-2.377
			c1.244-1.555,1.875-3.32,1.875-5.246c0-1.934-0.604-3.574-1.795-4.883C67.576,171.422,65.81,170.756,63.524,170.756z"/>
		<path fill="#1A171B" d="M79.994,163.68c-2.343,0-4.174,0.949-5.441,2.818c-1.245,1.838-1.877,4.494-1.877,7.9
			c0,3.404,0.647,6.078,1.923,7.947c1.299,1.9,3.099,2.863,5.35,2.863c2.255,0,4-0.951,5.187-2.826
			c1.161-1.836,1.751-4.486,1.751-7.879C86.886,167.323,84.566,163.68,79.994,163.68z M79.934,165.413
			c1.724,0,2.999,0.717,3.899,2.189c0.915,1.496,1.379,3.648,1.379,6.4c0,2.764-0.382,5.02-1.136,6.705
			c-0.385,0.865-0.938,1.557-1.646,2.055c-0.701,0.494-1.623,0.744-2.741,0.744c-1.113,0-2.077-0.434-2.945-1.322
			c-1.589-1.627-2.395-4.24-2.395-7.77c0-3.021,0.513-5.311,1.524-6.801C76.876,166.133,78.203,165.413,79.934,165.413z"/>
		<path fill="#1A171B" d="M96.8,163.68c-2.343,0-4.173,0.949-5.441,2.818c-1.245,1.838-1.877,4.494-1.877,7.9
			c0,3.404,0.647,6.078,1.924,7.947c1.298,1.9,3.099,2.863,5.349,2.863c2.255,0,4-0.951,5.188-2.826
			c1.161-1.836,1.75-4.486,1.75-7.879C103.691,167.323,101.373,163.68,96.8,163.68z M96.738,165.413c1.725,0,3.001,0.717,3.9,2.189
			c0.916,1.496,1.379,3.648,1.379,6.4c0,2.764-0.382,5.02-1.136,6.705c-0.384,0.865-0.938,1.557-1.646,2.055
			c-0.701,0.494-1.623,0.744-2.74,0.744c-1.114,0-2.078-0.434-2.947-1.322c-1.588-1.627-2.393-4.24-2.393-7.77
			c0-3.021,0.513-5.311,1.523-6.801C93.682,166.133,95.009,165.413,96.738,165.413z"/>
		<path fill="#1A171B" d="M119.797,163.68c-2.342,0-4.173,0.949-5.44,2.818c-1.246,1.838-1.878,4.494-1.878,7.9
			c0,3.404,0.647,6.078,1.924,7.947c1.299,1.9,3.099,2.863,5.349,2.863c2.255,0,4-0.951,5.188-2.826
			c1.161-1.836,1.75-4.486,1.75-7.879C126.688,167.323,124.369,163.68,119.797,163.68z M119.736,165.413c1.724,0,3,0.717,3.9,2.189
			c0.914,1.494,1.378,3.648,1.378,6.4c0,2.764-0.382,5.02-1.136,6.705c-0.384,0.865-0.938,1.557-1.646,2.055
			c-0.702,0.494-1.624,0.744-2.741,0.744c-1.114,0-2.078-0.434-2.947-1.322c-1.588-1.627-2.393-4.24-2.393-7.77
			c0-3.021,0.513-5.311,1.523-6.801C116.679,166.133,118.007,165.413,119.736,165.413z"/>
		<path fill="#1A171B" d="M136.604,163.68c-2.344,0-4.174,0.949-5.442,2.818c-1.245,1.838-1.877,4.494-1.877,7.9
			c0,3.404,0.647,6.078,1.924,7.947c1.299,1.9,3.099,2.863,5.349,2.863c2.255,0,4-0.951,5.187-2.826
			c1.162-1.836,1.75-4.486,1.75-7.879C143.493,167.323,141.176,163.68,136.604,163.68z M136.542,165.413
			c1.724,0,2.999,0.717,3.9,2.189c0.914,1.494,1.378,3.648,1.378,6.4c0,2.766-0.382,5.021-1.135,6.705
			c-0.385,0.865-0.939,1.557-1.646,2.055c-0.702,0.494-1.624,0.744-2.741,0.744c-1.114,0-2.078-0.434-2.946-1.322
			c-1.589-1.627-2.394-4.24-2.394-7.77c0-3.021,0.513-5.311,1.524-6.801C133.484,166.133,134.812,165.413,136.542,165.413z"/>
		<path fill="#1A171B" d="M153.409,163.68c-2.343,0-4.173,0.949-5.441,2.818c-1.246,1.838-1.877,4.494-1.877,7.9
			c0,3.404,0.647,6.078,1.923,7.947c1.3,1.9,3.099,2.863,5.349,2.863c2.256,0,4.001-0.951,5.187-2.826
			c1.162-1.836,1.751-4.486,1.751-7.879C160.3,167.323,157.981,163.68,153.409,163.68z M153.348,165.413c1.724,0,3,0.717,3.9,2.189
			c0.914,1.496,1.378,3.648,1.378,6.4c0,2.764-0.382,5.02-1.135,6.705c-0.386,0.865-0.939,1.557-1.646,2.055
			c-0.702,0.494-1.624,0.744-2.741,0.744c-1.113,0-2.077-0.434-2.946-1.322c-1.588-1.627-2.394-4.24-2.394-7.77
			c0-3.021,0.513-5.311,1.524-6.801C150.29,166.133,151.618,165.413,153.348,165.413z"/>
	</g>
</g>
</svg>
