<?xml version="1.0" encoding="utf-8"?>
<!-- Generator: Adobe Illustrator 15.0.2, SVG Export Plug-In . SVG Version: 6.00 Build 0)  -->
<!DOCTYPE svg PUBLIC "-//W3C//DTD SVG 1.1//EN" "http://www.w3.org/Graphics/SVG/1.1/DTD/svg11.dtd">
<svg version="1.1" id="Lager_1" xmlns="http://www.w3.org/2000/svg" xmlns:xlink="http://www.w3.org/1999/xlink" x="0px" y="0px"
	 width="211.029px" height="234.896px" viewBox="0 0 211.029 234.896" enable-background="new 0 0 211.029 234.896"
	 xml:space="preserve">
<g>
	<g>
		
			<path fill="#FFFFFF" stroke="#FFFFFF" stroke-width="4.02" stroke-linecap="round" stroke-linejoin="round" stroke-miterlimit="10" d="
			M183.985,108.756c0.157-1.416,0.24-2.859,0.24-4.314c0-15.979-9.646-29.906-23.958-37.349
			c-1.085-14.361-14.64-26.21-32.667-29.557l28.103-19.589l-1.264-13.396L141.791,2.01l-32.148,34.917L75.668,3.344L62.729,7.016
			l-0.211,12.897l33.302,20.95c-6.561,2.83-12.031,6.897-15.847,11.785c-12.752,5.234-22.101,16.047-24.176,28.992
			c-16.899,5.614-29.303,19.597-31.043,36.375C10.852,128.593,2.012,144.411,2.012,162.1c0,31.74,28.436,57.48,63.583,57.646
			c11.634,8.23,26.275,13.139,42.198,13.139c21.259,0,40.246-8.733,52.806-22.439c27.812-6.249,48.421-28.917,48.421-55.94
			C209.02,135.857,199.2,119.298,183.985,108.756z"/>
		
			<path fill="#FFFFFF" stroke="#FFFFFF" stroke-width="4.02" stroke-linecap="round" stroke-linejoin="round" stroke-miterlimit="10" d="
			M183.985,108.756c0.157-1.416,0.24-2.859,0.24-4.314c0-15.979-9.646-29.906-23.958-37.349
			c-1.085-14.361-14.64-26.21-32.667-29.557l28.103-19.589l-1.264-13.396L141.791,2.01l-30.626,36.024L75.668,3.344L62.729,7.016
			l-0.211,12.897l33.302,20.95c-6.561,2.83-12.031,6.897-15.847,11.785c-12.752,5.234-22.101,16.047-24.176,28.992
			c-16.899,5.614-29.303,19.597-31.043,36.375C10.852,128.593,2.012,144.411,2.012,162.1c0,31.74,28.436,57.48,63.583,57.646
			c11.634,8.23,26.275,13.139,42.198,13.139c21.259,0,40.246-8.733,52.806-22.439c27.812-6.249,48.421-28.917,48.421-55.94
			C209.02,135.857,199.2,119.298,183.985,108.756z"/>
		
			<path fill="#F5F5F6" stroke="#F5F5F6" stroke-width="4.023" stroke-linecap="round" stroke-linejoin="round" stroke-miterlimit="10" d="
			M107.793,232.885c-15.923,0-30.564-4.908-42.198-13.139C30.447,219.58,2.012,193.84,2.012,162.1
			c0-17.688,8.84-33.507,22.743-44.084c1.74-16.778,14.144-30.761,31.043-36.375c2.075-12.945,11.424-23.758,24.176-28.992
			c3.815-4.888,9.286-8.955,15.847-11.785l-33.302-20.95l0.211-12.897l12.938-3.672l33.975,33.584L107.793,232.885z"/>
	</g>
	<g>
		<polygon fill="#1A171B" points="140.906,142.486 145.159,142.486 145.159,160.101 146.623,160.101 146.623,142.486 
			150.904,142.486 150.904,141.016 140.906,141.016 		"/>
		<path fill="#1A171B" d="M160.617,141.825c-0.84-0.623-1.875-0.941-3.076-0.941c-2.009,0-3.597,0.894-4.723,2.651
			c-1.103,1.722-1.661,4.109-1.661,7.091c0,2.985,0.57,5.327,1.694,6.963c1.146,1.666,2.714,2.512,4.66,2.512
			c1.953,0,3.471-0.839,4.505-2.492c1.013-1.612,1.528-3.931,1.528-6.892c0-2.331-0.354-4.476-1.052-6.383
			C162.091,143.292,161.459,142.448,160.617,141.825z M161.087,156.147c-0.331,0.765-0.813,1.373-1.432,1.811
			c-0.607,0.427-1.409,0.643-2.383,0.643c-0.961,0-1.825-0.384-2.566-1.142c-1.38-1.44-2.079-3.735-2.079-6.82
			c0-2.67,0.454-4.738,1.348-6.15c0.875-1.399,2.024-2.081,3.51-2.081c1.474,0,2.578,0.681,3.374,2.078
			c0.807,1.431,1.215,3.376,1.215,5.783C162.073,152.694,161.741,154.672,161.087,156.147z"/>
		<polygon fill="#1A171B" points="174.929,141.016 174.929,156.431 168.218,140.992 166.411,140.992 166.411,160.101 
			167.875,160.101 167.875,144.08 174.948,159.956 175.014,160.101 176.4,160.101 176.4,141.016 		"/>
		<path fill="#1A171B" d="M78.418,141.35c-2.037,0-3.627,0.825-4.729,2.448c-1.083,1.598-1.63,3.906-1.63,6.866
			c0,2.958,0.562,5.281,1.671,6.905c1.127,1.652,2.692,2.488,4.647,2.488c1.961,0,3.476-0.826,4.509-2.456
			c1.009-1.595,1.52-3.898,1.52-6.846C84.406,144.514,82.392,141.35,78.418,141.35z M81.965,156.146
			c-0.334,0.751-0.814,1.352-1.43,1.784c-0.61,0.431-1.411,0.647-2.382,0.647c-0.969,0-1.806-0.377-2.562-1.149
			c-1.379-1.413-2.079-3.685-2.079-6.752c0-2.625,0.445-4.614,1.324-5.91c0.871-1.285,2.025-1.912,3.527-1.912
			c1.498,0,2.608,0.624,3.389,1.902c0.796,1.301,1.198,3.171,1.198,5.562C82.951,152.721,82.62,154.682,81.965,156.146z"/>
		<path fill="#1A171B" d="M98.401,141.35c-2.035,0-3.625,0.825-4.727,2.448c-1.083,1.598-1.633,3.906-1.633,6.866
			c0,2.958,0.563,5.281,1.672,6.905c1.129,1.652,2.693,2.488,4.648,2.488c1.959,0,3.477-0.826,4.508-2.456
			c1.008-1.595,1.521-3.898,1.521-6.846C104.391,144.514,102.375,141.35,98.401,141.35z M101.949,156.146
			c-0.333,0.751-0.814,1.352-1.429,1.784c-0.611,0.431-1.413,0.647-2.383,0.647c-0.968,0-1.806-0.377-2.562-1.149
			c-1.379-1.413-2.079-3.685-2.079-6.752c0-2.625,0.447-4.614,1.324-5.91c0.872-1.285,2.026-1.912,3.528-1.912
			c1.499,0,2.607,0.624,3.39,1.902c0.794,1.299,1.198,3.171,1.198,5.562C102.936,152.721,102.604,154.682,101.949,156.146z"/>
		<path fill="#1A171B" d="M113.006,141.35c-2.036,0-3.627,0.825-4.728,2.448c-1.083,1.598-1.631,3.906-1.631,6.866
			c0,2.958,0.562,5.281,1.671,6.905c1.129,1.652,2.692,2.488,4.647,2.488c1.96,0,3.476-0.826,4.508-2.456
			c1.01-1.595,1.521-3.898,1.521-6.846C118.995,144.514,116.979,141.35,113.006,141.35z M116.554,156.146
			c-0.334,0.751-0.816,1.352-1.431,1.784c-0.609,0.431-1.411,0.647-2.381,0.647c-0.97,0-1.806-0.377-2.561-1.149
			c-1.38-1.413-2.08-3.685-2.08-6.752c0-2.625,0.445-4.614,1.324-5.91c0.871-1.285,2.025-1.912,3.529-1.912
			c1.498,0,2.605,0.624,3.39,1.902c0.793,1.299,1.196,3.171,1.196,5.562C117.54,152.723,117.209,154.683,116.554,156.146z"/>
		<path fill="#1A171B" d="M127.612,141.35c-2.037,0-3.628,0.825-4.729,2.448c-1.083,1.598-1.631,3.906-1.631,6.866
			c0,2.958,0.562,5.281,1.671,6.905c1.13,1.652,2.693,2.488,4.648,2.488c1.96,0,3.476-0.826,4.506-2.456
			c1.01-1.595,1.522-3.898,1.522-6.846C133.599,144.514,131.584,141.35,127.612,141.35z M131.159,156.146
			c-0.336,0.751-0.816,1.352-1.431,1.784c-0.611,0.431-1.412,0.647-2.383,0.647c-0.967,0-1.804-0.377-2.56-1.149
			c-1.38-1.413-2.081-3.685-2.081-6.752c0-2.625,0.447-4.614,1.326-5.91c0.871-1.285,2.025-1.912,3.527-1.912
			c1.499,0,2.607,0.624,3.39,1.902c0.793,1.301,1.198,3.171,1.198,5.562C132.145,152.721,131.812,154.682,131.159,156.146z"/>
		<path fill="#1A171B" d="M54.763,150.305c0.969-1.347,1.461-2.734,1.461-4.126c0-1.401-0.464-2.582-1.378-3.505
			c-0.916-0.925-2.074-1.394-3.443-1.394c-1.356,0-2.841,0.581-4.414,1.725l-0.089,0.066v1.455l0.335-0.216
			c1.673-1.076,3.014-1.623,3.985-1.623c0.958,0,1.813,0.319,2.54,0.946c0.729,0.631,1.083,1.497,1.083,2.651
			c0,0.408-0.101,0.857-0.299,1.336c-0.203,0.491-0.404,0.887-0.598,1.173c-0.2,0.297-0.494,0.716-0.876,1.256l-7.272,10.077h10.637
			v-1.409h-7.737L54.763,150.305z"/>
		<path fill="#1A171B" d="M63.715,147.646c-0.973,0-1.881,0.255-2.703,0.758v-5.716h7.733v-1.407h-9.061v10.519l0.405-0.698
			c0.345-0.594,0.851-1.089,1.5-1.473c0.647-0.381,1.354-0.575,2.098-0.575c1.506,0,2.664,0.445,3.441,1.32
			c0.784,0.885,1.181,1.986,1.181,3.276c0,1.296-0.395,2.462-1.177,3.469c-0.777,1.006-1.775,1.495-3.05,1.495
			c-1.002,0-1.84-0.237-2.491-0.708c-0.646-0.467-0.991-0.988-1.055-1.597l-0.02-0.194H59.12l0.012,0.229
			c0.056,1.082,0.577,1.991,1.548,2.702c0.954,0.7,2.054,1.056,3.271,1.056c1.71,0,3.125-0.687,4.207-2.041
			c1.071-1.341,1.614-2.861,1.614-4.516c0-1.66-0.52-3.072-1.544-4.195C67.199,148.217,65.68,147.646,63.715,147.646z"/>
	</g>
</g>
</svg>
