<?xml version="1.0" encoding="utf-8"?>
<!-- Generator: Adobe Illustrator 17.0.0, SVG Export Plug-In . SVG Version: 6.00 Build 0)  -->
<!DOCTYPE svg PUBLIC "-//W3C//DTD SVG 1.1//EN" "http://www.w3.org/Graphics/SVG/1.1/DTD/svg11.dtd">
<svg version="1.1" id="Layer_1" xmlns="http://www.w3.org/2000/svg" xmlns:xlink="http://www.w3.org/1999/xlink" x="0px" y="0px"
	 width="380.915px" height="194.883px" viewBox="0 0 380.915 194.883" enable-background="new 0 0 380.915 194.883"
	 xml:space="preserve">
<rect x="197.772" y="77.747" fill="#FFD600" stroke="#FFD600" stroke-width="1.9262" stroke-linecap="round" stroke-linejoin="round" stroke-miterlimit="10" width="80.323" height="24.743"/>
<rect x="197.772" y="77.747" fill="#FDC100" stroke="#FDC100" stroke-width="1.1319" stroke-linecap="round" stroke-linejoin="round" stroke-miterlimit="10" width="80.323" height="7.715"/>
<rect x="197.772" y="136.74" transform="matrix(0.9343 -0.3564 0.3564 0.9343 -37.5189 94.5914)" fill="#FFD600" stroke="#FFD600" stroke-width="1.9262" stroke-linecap="round" stroke-linejoin="round" stroke-miterlimit="10" width="80.322" height="24.742"/>
<rect x="194.737" y="137.299" transform="matrix(0.9343 -0.3564 0.3564 0.9343 -34.8833 92.9893)" fill="#FDC100" stroke="#FDC100" stroke-width="1.1319" stroke-linecap="round" stroke-linejoin="round" stroke-miterlimit="10" width="80.324" height="7.714"/>
<rect x="297.772" y="90.118" transform="matrix(0.9601 0.2796 -0.2796 0.9601 42.1403 -90.4083)" fill="#FFD600" stroke="#FFD600" stroke-width="1.9262" stroke-linecap="round" stroke-linejoin="round" stroke-miterlimit="10" width="80.324" height="24.742"/>
<rect x="300.152" y="90.458" transform="matrix(0.9601 0.2796 -0.2796 0.9601 39.9494 -91.3998)" fill="#FDC100" stroke="#FDC100" stroke-width="1.1319" stroke-linecap="round" stroke-linejoin="round" stroke-miterlimit="10" width="80.323" height="7.715"/>
<path fill="none" stroke="#FFD600" stroke-width="6" stroke-linejoin="round" stroke-miterlimit="10" d="M249.096,18.128
	c-4.069,0-7.369-3.299-7.369-7.368c0-4.07,3.3-7.369,7.369-7.369"/>
<path fill="none" stroke="#FFD600" stroke-width="6" stroke-linejoin="round" stroke-miterlimit="10" d="M231.847,31.44
	c-2.811,2.942-7.475,3.048-10.418,0.236c-2.941-2.812-3.047-7.477-0.235-10.419"/>
<path fill="none" stroke="#FFD600" stroke-width="6" stroke-linejoin="round" stroke-miterlimit="10" d="M247.878,30.824
	c3.569,1.954,4.88,6.432,2.926,10.002c-1.955,3.569-6.433,4.879-10.003,2.925"/>
<path fill="none" stroke="#FFD600" stroke-width="6" stroke-linejoin="round" stroke-miterlimit="10" d="M204.708,14.915
	c-2.511-3.202-1.951-7.834,1.251-10.345c3.203-2.511,7.835-1.95,10.346,1.253"/>
<path fill="none" stroke="#FFD600" stroke-width="6" stroke-linejoin="round" stroke-miterlimit="10" d="M268.785,27.215
	c-2.511-3.202-1.951-7.834,1.251-10.345c3.203-2.511,7.835-1.95,10.346,1.252"/>
<polygon fill="#FFD600" stroke="#FFD600" stroke-width="1.9262" stroke-linecap="round" stroke-linejoin="round" stroke-miterlimit="10" points="
	41.386,161.111 74.719,148.11 70.719,155.186 74.719,160.311 70.719,166.061 74.719,171.561 70.719,176.936 74.719,182.186 
	70.719,187.811 74.719,193.919 41.386,180.919 8.053,193.919 12.053,187.811 8.053,182.186 12.053,176.936 8.053,171.561 
	12.053,166.061 8.053,160.311 12.053,155.186 8.053,148.11 "/>
<polygon fill="#FDC100" stroke="#FDC100" stroke-width="1.1319" stroke-linecap="round" stroke-linejoin="round" stroke-miterlimit="10" points="
	74.719,171.561 70.719,176.936 74.719,182.186 70.719,187.811 74.719,193.919 41.386,180.919 8.053,193.919 12.053,187.811 
	8.053,182.186 12.053,176.936 8.053,171.561 "/>
<polygon fill="#FFD600" stroke="#FFD600" stroke-width="1.9262" stroke-linecap="round" stroke-linejoin="round" stroke-miterlimit="10" points="
	46.729,85.976 81.809,93.011 74.624,96.812 75.227,103.285 68.757,105.968 69.158,112.757 62.89,115.126 63.426,121.704 
	57.024,124.282 57.097,131.584 36.043,102.656 0.963,95.62 7.626,92.634 7.293,85.74 13.493,83.478 13.025,76.794 19.36,74.32 
	19.093,67.321 25.226,65.164 25.675,57.047 "/>
<polygon fill="#FDC100" stroke="#FDC100" stroke-width="1.1319" stroke-linecap="round" stroke-linejoin="round" stroke-miterlimit="10" points="
	69.158,112.757 62.89,115.126 63.426,121.704 57.024,124.282 57.097,131.584 36.043,102.656 0.963,95.62 7.626,92.634 7.293,85.74 
	13.493,83.478 13.025,76.794 "/>
<polygon fill="#FFD600" stroke="#FFD600" stroke-width="1.9262" stroke-linecap="round" stroke-linejoin="round" stroke-miterlimit="10" points="
	83.787,39.258 107.27,12.265 107.014,20.389 112.936,23.07 112.064,30.02 118.16,33.034 117.114,39.651 123.095,42.443 
	122.164,49.282 128.544,52.835 92.986,56.801 69.503,83.794 70.209,76.527 64.054,73.403 65.158,66.896 59.12,63.993 60.108,57.265 
	53.895,54.03 55.057,47.634 48.229,43.224 "/>
<polygon fill="#FDC100" stroke="#FDC100" stroke-width="1.1319" stroke-linecap="round" stroke-linejoin="round" stroke-miterlimit="10" points="
	118.16,33.034 117.114,39.651 123.095,42.443 122.164,49.282 128.544,52.835 92.986,56.801 69.503,83.794 70.209,76.527 
	64.054,73.403 65.158,66.896 59.12,63.993 "/>
<polygon fill="#FFD600" stroke="#FFD600" stroke-width="1.9262" stroke-linecap="round" stroke-linejoin="round" stroke-miterlimit="10" points="
	133.437,120.192 165.993,105.352 162.395,112.64 166.674,117.534 163.001,123.498 167.301,128.766 163.608,134.356 167.894,139.375 
	164.214,145.213 168.549,151.09 134.542,139.969 101.986,154.808 105.639,148.488 101.332,143.093 105.033,137.628 100.739,132.485 
	104.426,126.77 100.112,121.252 103.82,115.913 99.431,109.07 "/>
<polygon fill="#FDC100" stroke="#FDC100" stroke-width="1.1319" stroke-linecap="round" stroke-linejoin="round" stroke-miterlimit="10" points="
	167.301,128.766 163.608,134.356 167.894,139.375 164.214,145.213 168.549,151.09 134.542,139.969 101.986,154.808 105.639,148.488 
	101.332,143.093 105.033,137.628 100.739,132.485 "/>
</svg>
