<?xml version="1.0" encoding="utf-8"?>
<!-- Generator: Adobe Illustrator 17.0.0, SVG Export Plug-In . SVG Version: 6.00 Build 0)  -->
<!DOCTYPE svg PUBLIC "-//W3C//DTD SVG 1.1//EN" "http://www.w3.org/Graphics/SVG/1.1/DTD/svg11.dtd">
<svg version="1.1" id="Layer_1" xmlns="http://www.w3.org/2000/svg" xmlns:xlink="http://www.w3.org/1999/xlink" x="0px" y="0px"
	 width="131.108px" height="405.237px" viewBox="0 0 131.108 405.237" enable-background="new 0 0 131.108 405.237"
	 xml:space="preserve">
<path opacity="0.7" fill="#DFF2FD" stroke="#DFF2FD" stroke-width="3" stroke-linecap="round" stroke-linejoin="round" stroke-miterlimit="10" d="
	M68.553,403.737c0.001,0-49.026,0-49.026,0c-9.956,0-18.026-8.072-18.026-18.027V138.761c0-5.144,0-8.289,0-11.27
	c0-30.209,4.133-47.3,30.692-68.529l2.107-2.035c6.842-6.84,8.611-12.244,8.611-19.764V1.5h45.287v35.664
	c0,7.52,1.771,12.923,8.611,19.764l2.107,2.035c26.559,21.229,30.692,38.32,30.692,68.529c0,2.981,0,6.126,0,11.27V385.71
	c0,9.955-8.071,18.027-18.026,18.027c0,0-43.028,0-43.027,0"/>
<path fill="#F5FBFF" d="M68.555,395.737h43.027c5.528,0,10.026-4.498,10.026-10.027V138.761v-11.27
	c0-29.629-4.183-43.493-27.688-62.28l-0.292-0.234l-0.27-0.26l-2.107-2.035l-0.051-0.049l-0.049-0.049
	c-7.781-7.781-10.955-15.146-10.955-25.421V0.002H50.91v37.162c0,10.276-3.174,17.642-10.955,25.421l-0.049,0.049l-0.05,0.048
	l-2.106,2.035l-0.27,0.261l-0.293,0.234C13.683,83.998,9.5,97.861,9.5,127.491v11.27V385.71c0,5.529,4.498,10.027,10.026,10.027
	h49.026"/>
<path fill="#F5FBFF" d="M65.555,403.737"/>
<path opacity="0.12" fill="#00BAEE" stroke="#00BAEE" stroke-width="3" stroke-linecap="round" stroke-linejoin="round" stroke-miterlimit="10" d="
	M65.699,403.737V1.5H42.91v35.664c0,7.52-1.77,12.923-8.611,19.764l-2.107,2.035C5.633,80.191,1.5,97.282,1.5,127.491
	c0,2.981,0,6.126,0,11.27V385.71c0,9.955,8.07,18.027,18.026,18.027H65.699z"/>
<g>
	
		<line fill="none" stroke="#ACCEE1" stroke-width="5" stroke-linecap="round" stroke-miterlimit="10" x1="41.185" y1="26.179" x2="90.215" y2="26.179"/>
	
		<line fill="none" stroke="#8EC4DA" stroke-width="3" stroke-linecap="round" stroke-miterlimit="10" x1="40.269" y1="16.449" x2="90.84" y2="16.449"/>
	
		<line fill="none" stroke="#ACCEE1" stroke-width="4" stroke-linecap="round" stroke-miterlimit="10" x1="41.185" y1="9.5" x2="90.215" y2="9.5"/>
</g>
</svg>
