<?xml version="1.0" encoding="utf-8"?>
<!-- Generator: Adobe Illustrator 15.0.2, SVG Export Plug-In . SVG Version: 6.00 Build 0)  -->
<!DOCTYPE svg PUBLIC "-//W3C//DTD SVG 1.1//EN" "http://www.w3.org/Graphics/SVG/1.1/DTD/svg11.dtd">
<svg version="1.1" id="Lager_1" xmlns="http://www.w3.org/2000/svg" xmlns:xlink="http://www.w3.org/1999/xlink" x="0px" y="0px"
	 width="845.578px" height="557.831px" viewBox="0 0 845.578 557.831" enable-background="new 0 0 845.578 557.831"
	 xml:space="preserve">
<g>
	<g>
		<g>
			<path fill="#A8D9F4" d="M18.375,50.495v-9.383c-0.168-2.793-0.201-2.912-4.664-3.678C2.3,35.483,3.968,19.997,3.968,19.997
				s11.302-0.027,14.766,7.256c0,0,1.5,3.572,1.5,11.422v11.82H18.375z"/>
		</g>
	</g>
	<g>
		<g>
			<path fill="#A8D9F4" d="M23.761,50.495v-3.463c0.169-2.793,0.201-2.912,4.664-3.676c11.411-1.951,9.743-17.438,9.743-17.438
				s-11.302-0.029-14.766,7.256c0,0-1.5,3.57-1.5,11.42v5.9H23.761z"/>
		</g>
	</g>
</g>
<g>
	<g>
		<g>
			<path fill="#A8D9F4" d="M69.353,37.407v-9.383c-0.168-2.793-0.201-2.912-4.664-3.678c-11.411-1.951-9.743-17.438-9.743-17.438
				s11.302-0.027,14.766,7.256c0,0,1.5,3.572,1.5,11.422v11.82H69.353z"/>
		</g>
	</g>
	<g>
		<g>
			<path fill="#A8D9F4" d="M74.739,37.407v-3.463c0.169-2.793,0.201-2.912,4.664-3.676c11.411-1.951,9.743-17.438,9.743-17.438
				s-11.302-0.029-14.766,7.256c0,0-1.5,3.57-1.5,11.42v5.9H74.739z"/>
		</g>
	</g>
</g>
<g>
	<g>
		<g>
			<path fill="#A8D9F4" d="M825.7,281.053v-9.384c-0.168-2.793-0.201-2.912-4.664-3.677c-11.41-1.951-9.742-17.438-9.742-17.438
				s11.301-0.028,14.766,7.256c0,0,1.5,3.571,1.5,11.421v11.821H825.7z"/>
		</g>
	</g>
	<g>
		<g>
			<path fill="#A8D9F4" d="M831.087,281.053v-3.463c0.168-2.793,0.201-2.912,4.664-3.677c11.41-1.951,9.742-17.438,9.742-17.438
				s-11.301-0.028-14.766,7.256c0,0-1.5,3.571-1.5,11.421v5.9H831.087z"/>
		</g>
	</g>
</g>
<g>
	<g>
		<g>
			<path fill="#A8D9F4" d="M775.226,296.302v-9.384c-0.168-2.793-0.201-2.912-4.664-3.677c-11.412-1.951-9.744-17.438-9.744-17.438
				s11.303-0.028,14.766,7.256c0,0,1.5,3.571,1.5,11.421v11.821H775.226z"/>
		</g>
	</g>
	<g>
		<g>
			<path fill="#A8D9F4" d="M780.61,296.302v-3.463c0.17-2.793,0.201-2.912,4.664-3.677c11.412-1.951,9.744-17.438,9.744-17.438
				s-11.303-0.028-14.766,7.256c0,0-1.5,3.571-1.5,11.421v5.9H780.61z"/>
		</g>
	</g>
</g>
<g>
	<g>
		<g>
			<path fill="#A8D9F4" d="M65.802,406.849v-9.384c-0.168-2.793-0.201-2.912-4.664-3.677c-11.412-1.951-9.742-17.438-9.742-17.438
				s11.301-0.028,14.764,7.256c0,0,1.5,3.571,1.5,11.421v11.821H65.802z"/>
		</g>
	</g>
	<g>
		<g>
			<path fill="#A8D9F4" d="M71.187,406.849v-3.463c0.17-2.793,0.201-2.912,4.664-3.677c11.412-1.951,9.744-17.438,9.744-17.438
				s-11.303-0.028-14.766,7.256c0,0-1.5,3.571-1.5,11.421v5.9H71.187z"/>
		</g>
	</g>
</g>
<g>
	<g>
		<g>
			<path fill="#A8D9F4" d="M14.492,424.809v-9.384c-0.168-2.793-0.201-2.912-4.664-3.677c-11.41-1.951-9.742-17.438-9.742-17.438
				s11.301-0.028,14.766,7.256c0,0,1.5,3.571,1.5,11.421v11.821H14.492z"/>
		</g>
	</g>
	<g>
		<g>
			<path fill="#A8D9F4" d="M19.878,424.809v-3.463c0.168-2.793,0.201-2.912,4.664-3.677c11.41-1.951,9.742-17.438,9.742-17.438
				s-11.301-0.028-14.766,7.256c0,0-1.5,3.571-1.5,11.421v5.9H19.878z"/>
		</g>
	</g>
</g>
<path fill="#A8D9F4" d="M820.493,504.357c-1.195,0-2.348,0.185-3.432,0.524c-0.34-5.283-4.268-9.588-9.371-10.506
	c0-0.001,0-0.003,0-0.003c-0.74-0.214-2.035-0.181-2.035-0.181c-6.314,0-11.434,5.118-11.434,11.433c0,1.277,0.213,2.505,0.6,3.652
	c-6.283,0.035-11.367,5.139-11.367,11.431c0,6.314,5.119,11.433,11.434,11.433c2.115,0,4.096-0.576,5.795-1.579
	c0.119,0.17,0.242,0.335,0.367,0.497c0.039,0.05,0.08,0.099,0.119,0.147c0.092,0.114,0.186,0.226,0.281,0.336
	c0.045,0.053,0.092,0.104,0.137,0.156c0.102,0.111,0.205,0.22,0.309,0.327c0.041,0.042,0.08,0.084,0.121,0.124
	c0.145,0.146,0.295,0.287,0.447,0.424c0.023,0.021,0.047,0.039,0.068,0.059c0.133,0.116,0.268,0.229,0.404,0.34
	c0.053,0.041,0.105,0.081,0.156,0.121c0.115,0.089,0.23,0.175,0.348,0.259c0.057,0.04,0.111,0.079,0.168,0.118
	c0.131,0.091,0.264,0.177,0.398,0.262c0.041,0.026,0.082,0.053,0.123,0.078c0.178,0.108,0.355,0.211,0.539,0.309
	c0.041,0.023,0.084,0.043,0.127,0.065c0.143,0.074,0.285,0.146,0.432,0.215c0.047,0.021,0.094,0.044,0.141,0.065h-0.092v23.367
	h2.414h2.414v-22.354c5.203-0.014,9.586-3.503,10.955-8.269c6.051-0.295,10.867-5.294,10.867-11.418
	C831.927,509.476,826.808,504.357,820.493,504.357z"/>
<path fill="#A8D9F4" d="M762.558,455.08c-1.195,0-2.348,0.185-3.432,0.524c-0.34-5.283-4.268-9.588-9.371-10.506
	c0-0.001,0-0.003,0-0.003c-0.74-0.214-2.035-0.181-2.035-0.181c-6.314,0-11.434,5.118-11.434,11.433c0,1.277,0.213,2.505,0.6,3.652
	c-6.283,0.035-11.367,5.139-11.367,11.431c0,6.314,5.119,11.433,11.434,11.433c2.115,0,4.096-0.576,5.795-1.579
	c0.119,0.17,0.242,0.335,0.367,0.497c0.039,0.05,0.08,0.099,0.119,0.147c0.092,0.114,0.186,0.226,0.281,0.336
	c0.045,0.053,0.092,0.104,0.137,0.156c0.102,0.111,0.205,0.22,0.309,0.327c0.041,0.042,0.08,0.084,0.121,0.124
	c0.145,0.146,0.295,0.287,0.447,0.424c0.023,0.021,0.047,0.039,0.068,0.059c0.133,0.116,0.268,0.229,0.404,0.34
	c0.053,0.041,0.105,0.081,0.156,0.121c0.115,0.089,0.23,0.175,0.348,0.259c0.057,0.04,0.111,0.079,0.168,0.118
	c0.131,0.091,0.264,0.177,0.398,0.262c0.041,0.026,0.082,0.053,0.123,0.078c0.178,0.108,0.355,0.211,0.539,0.309
	c0.041,0.023,0.084,0.043,0.127,0.065c0.143,0.074,0.285,0.146,0.432,0.215c0.047,0.021,0.094,0.044,0.141,0.065h-0.092v23.367
	h2.414h2.414v-22.354c5.203-0.014,9.586-3.503,10.955-8.269c6.051-0.295,10.867-5.294,10.867-11.418
	C773.991,460.198,768.872,455.08,762.558,455.08z"/>
<g>
	<path fill="#A8D9F4" d="M32.216,361.567c-1.34,2.875-1.34,11.743-1.363,13.26l0.023,3.441l1.777-0.007l-0.014-3.276
		c0.406-2.794,0.164-2.819,4.506-3.584c11.018-1.957,9.316-16.94,9.316-16.94S35.52,354.501,32.216,361.567z"/>
	<path fill="#A8D9F4" d="M29.173,366.359v0.002c-0.003-0.1-0.008-0.215-0.012-0.319c-0.004-0.137-0.01-0.277-0.014-0.419
		c-0.018-0.459-0.039-0.938-0.066-1.438c-0.004-0.097-0.01-0.19-0.014-0.288c-0.014-0.225-0.028-0.449-0.042-0.679
		c-0.017-0.24-0.034-0.481-0.052-0.725c-0.013-0.175-0.024-0.346-0.038-0.521c-0.036-0.427-0.075-0.852-0.12-1.271
		c-0.01-0.089-0.021-0.173-0.029-0.262c-0.043-0.382-0.091-0.757-0.143-1.123c-0.011-0.078-0.02-0.154-0.033-0.23
		c-0.064-0.433-0.135-0.85-0.213-1.238c-0.004-0.017-0.008-0.032-0.01-0.05c-0.074-0.356-0.154-0.684-0.242-0.989
		c-0.02-0.07-0.041-0.14-0.061-0.208c-0.097-0.31-0.195-0.599-0.309-0.836c-3.36-7.047-14.311-7.002-14.311-7.002
		s-1.593,14.991,9.455,16.874c4.33,0.737,4.104,0.76,4.528,3.551l0.032,9.092l1.789-0.011l-0.043-9.256
		C29.222,368.597,29.21,367.611,29.173,366.359z"/>
	<path fill="#A8D9F4" d="M30.853,350.737c4.34,0,7.854-4.02,7.854-8.979v-11.115l-7.854,5.994L23,330.644v11.115
		C23,346.718,26.521,350.737,30.853,350.737z"/>
</g>
<g>
	<path fill="#A8D9F4" d="M711.859,527.861c-1.34,2.875-1.34,11.743-1.363,13.26l0.023,3.441l1.777-0.007l-0.014-3.276
		c0.406-2.794,0.164-2.819,4.506-3.584c11.018-1.957,9.316-16.94,9.316-16.94S715.164,520.795,711.859,527.861z"/>
	<path fill="#A8D9F4" d="M708.816,532.653v0.002c-0.002-0.1-0.008-0.215-0.012-0.319c-0.004-0.137-0.01-0.277-0.014-0.419
		c-0.018-0.459-0.039-0.938-0.066-1.438c-0.004-0.097-0.01-0.19-0.014-0.288c-0.014-0.225-0.027-0.449-0.041-0.679
		c-0.018-0.24-0.035-0.481-0.053-0.725c-0.012-0.175-0.023-0.346-0.037-0.521c-0.037-0.427-0.076-0.852-0.121-1.271
		c-0.01-0.089-0.02-0.173-0.029-0.262c-0.043-0.382-0.09-0.757-0.143-1.123c-0.01-0.078-0.02-0.154-0.033-0.23
		c-0.064-0.433-0.135-0.85-0.213-1.238c-0.004-0.017-0.008-0.032-0.01-0.05c-0.074-0.356-0.154-0.684-0.242-0.989
		c-0.02-0.07-0.041-0.14-0.061-0.208c-0.096-0.31-0.195-0.599-0.309-0.836c-3.359-7.047-14.311-7.002-14.311-7.002
		s-1.592,14.991,9.455,16.874c4.33,0.737,4.104,0.76,4.529,3.551l0.031,9.092l1.789-0.011l-0.043-9.256
		C708.865,534.891,708.854,533.905,708.816,532.653z"/>
	<path fill="#A8D9F4" d="M710.496,517.031c4.34,0,7.854-4.02,7.854-8.979v-11.115l-7.854,5.994l-7.854-5.994v11.115
		C702.643,513.012,706.164,517.031,710.496,517.031z"/>
</g>
<g>
	<path fill="#A8D9F4" d="M772.697,30.924c-1.34,2.875-1.34,11.743-1.363,13.26l0.023,3.441l1.777-0.007l-0.014-3.276
		c0.406-2.794,0.164-2.819,4.506-3.584c11.018-1.957,9.316-16.94,9.316-16.94S776.002,23.857,772.697,30.924z"/>
	<path fill="#A8D9F4" d="M769.654,35.716v0.002c-0.002-0.1-0.008-0.215-0.012-0.319c-0.004-0.137-0.01-0.277-0.014-0.419
		c-0.018-0.459-0.039-0.938-0.066-1.438c-0.004-0.097-0.01-0.19-0.014-0.288c-0.014-0.225-0.027-0.449-0.041-0.679
		c-0.018-0.24-0.035-0.481-0.053-0.725c-0.012-0.175-0.023-0.346-0.037-0.521c-0.037-0.427-0.076-0.852-0.121-1.271
		c-0.01-0.089-0.02-0.173-0.029-0.262c-0.043-0.382-0.09-0.757-0.143-1.123c-0.01-0.078-0.02-0.154-0.033-0.23
		c-0.064-0.433-0.135-0.85-0.213-1.238c-0.004-0.017-0.008-0.032-0.01-0.05c-0.074-0.356-0.154-0.684-0.242-0.989
		c-0.02-0.07-0.041-0.14-0.061-0.208c-0.096-0.31-0.195-0.599-0.309-0.836c-3.359-7.047-14.311-7.002-14.311-7.002
		s-1.592,14.991,9.455,16.874c4.33,0.737,4.104,0.76,4.529,3.551l0.031,9.092l1.789-0.011l-0.043-9.256
		C769.703,37.953,769.691,36.968,769.654,35.716z"/>
	<path fill="#A8D9F4" d="M771.334,20.094c4.34,0,7.854-4.02,7.854-8.979V0l-7.854,5.994L763.48,0v11.115
		C763.48,16.074,767.002,20.094,771.334,20.094z"/>
</g>
<g>
	<path fill="#A8D9F4" d="M814.043,54.188c-1.34,2.875-1.34,11.743-1.363,13.26l0.023,3.441l1.777-0.007l-0.014-3.276
		c0.406-2.794,0.164-2.819,4.506-3.584c11.018-1.957,9.316-16.94,9.316-16.94S817.348,47.122,814.043,54.188z"/>
	<path fill="#A8D9F4" d="M811,58.98v0.002c-0.002-0.1-0.008-0.215-0.012-0.319c-0.004-0.137-0.01-0.277-0.014-0.419
		c-0.018-0.459-0.039-0.938-0.066-1.438c-0.004-0.097-0.01-0.19-0.014-0.288c-0.014-0.225-0.027-0.449-0.041-0.679
		c-0.018-0.24-0.035-0.481-0.053-0.725c-0.012-0.175-0.023-0.346-0.037-0.521c-0.037-0.427-0.076-0.852-0.121-1.271
		c-0.01-0.089-0.02-0.173-0.029-0.262c-0.043-0.382-0.09-0.757-0.143-1.123c-0.01-0.078-0.02-0.154-0.033-0.23
		c-0.064-0.433-0.135-0.85-0.213-1.238c-0.004-0.017-0.008-0.032-0.01-0.05c-0.074-0.356-0.154-0.684-0.242-0.989
		c-0.02-0.07-0.041-0.14-0.061-0.208c-0.096-0.31-0.195-0.599-0.309-0.836c-3.359-7.047-14.311-7.002-14.311-7.002
		s-1.592,14.991,9.455,16.874c4.33,0.737,4.104,0.76,4.529,3.551l0.031,9.092l1.789-0.011l-0.043-9.256
		C811.049,61.218,811.037,60.232,811,58.98z"/>
	<path fill="#A8D9F4" d="M812.68,43.358c4.34,0,7.854-4.02,7.854-8.979V23.265l-7.854,5.994l-7.854-5.994V34.38
		C804.826,39.339,808.348,43.358,812.68,43.358z"/>
</g>
<path fill="none" stroke="#FFFFFF" stroke-width="2.9991" stroke-linecap="round" stroke-linejoin="round" stroke-miterlimit="10" stroke-dasharray="11.9906" d="
	M154.01,171.032c0,0,47.205-144.654,254.13-161.062c0,0,240.845-34.477,292.831,182.061
	c49.814,207.49-70.842,289.731-265.028,284.706C291.593,473.001,85.681,454.518,154.01,171.032z"/>
<circle fill="#FFFFFF" cx="156.684" cy="168.36" r="11.493"/>
<g>
	
		<polyline fill="none" stroke="#A8D9F4" stroke-width="4" stroke-linecap="round" stroke-linejoin="round" stroke-miterlimit="10" points="
		290.888,31.469 298.748,35.005 295.213,42.866 	"/>
	<path fill="none" stroke="#A8D9F4" stroke-width="4" stroke-linecap="round" stroke-linejoin="round" stroke-miterlimit="10" d="
		M298.389,35.442c0,0-17.971,4.544-34.734,15.918"/>
</g>
<g>
	
		<polyline fill="none" stroke="#A8D9F4" stroke-width="4" stroke-linecap="round" stroke-linejoin="round" stroke-miterlimit="10" points="
		716.057,244.032 710.423,250.555 703.899,244.922 	"/>
	<path fill="none" stroke="#A8D9F4" stroke-width="4" stroke-linecap="round" stroke-linejoin="round" stroke-miterlimit="10" d="
		M710.106,250.085c0,0,0.779-18.52-5.333-37.833"/>
</g>
<g>
	
		<polyline fill="none" stroke="#A8D9F4" stroke-width="4" stroke-linecap="round" stroke-linejoin="round" stroke-miterlimit="10" points="
		328.756,474.229 324.112,466.97 331.375,462.325 	"/>
	<path fill="none" stroke="#A8D9F4" stroke-width="4" stroke-linecap="round" stroke-linejoin="round" stroke-miterlimit="10" d="
		M324.654,466.801c0,0,17.527,6.032,37.78,5.688"/>
</g>
</svg>
