<?xml version="1.0" encoding="utf-8"?>
<!-- Generator: Adobe Illustrator 15.0.2, SVG Export Plug-In . SVG Version: 6.00 Build 0)  -->
<!DOCTYPE svg PUBLIC "-//W3C//DTD SVG 1.1//EN" "http://www.w3.org/Graphics/SVG/1.1/DTD/svg11.dtd">
<svg version="1.1" id="Lager_1" xmlns="http://www.w3.org/2000/svg" xmlns:xlink="http://www.w3.org/1999/xlink" x="0px" y="0px"
	 width="885.227px" height="631.184px" viewBox="0 0 885.227 631.184" enable-background="new 0 0 885.227 631.184"
	 xml:space="preserve">
<path fill="#FFFFFF" d="M704.906,580.425c-3.443-0.002-6.881-0.119-10.216-0.352c-0.826-0.058-1.449-0.774-1.392-1.601
	c0.058-0.824,0.729-1.449,1.601-1.392c3.864,0.27,7.854,0.383,11.865,0.333c0.006,0,0.013-0.001,0.019-0.001
	c0.82,0,1.489,0.659,1.499,1.481c0.011,0.828-0.652,1.508-1.48,1.518C706.169,580.421,705.536,580.425,704.906,580.425z
	 M718.761,579.808c-0.769,0-1.423-0.588-1.492-1.368c-0.072-0.825,0.538-1.553,1.362-1.626c3.9-0.343,7.87-0.836,11.799-1.464
	c0.81-0.131,1.586,0.425,1.717,1.243s-0.426,1.587-1.244,1.718c-3.997,0.64-8.038,1.142-12.008,1.491
	C718.85,579.806,718.805,579.808,718.761,579.808z M682.882,578.714c-0.08,0-0.16-0.007-0.241-0.02
	c-4.071-0.657-8.067-1.511-11.877-2.537c-0.8-0.216-1.273-1.038-1.059-1.838c0.216-0.8,1.04-1.274,1.838-1.059
	c3.711,1,7.605,1.832,11.576,2.473c0.817,0.132,1.373,0.902,1.241,1.72C684.241,578.189,683.605,578.714,682.882,578.714z
	 M742.439,576.034c-0.684,0-1.301-0.47-1.46-1.164c-0.187-0.807,0.317-1.611,1.125-1.797c3.828-0.881,7.697-1.906,11.5-3.048
	c0.788-0.237,1.628,0.21,1.867,1.006c0.237,0.793-0.212,1.629-1.006,1.867c-3.864,1.16-7.798,2.202-11.689,3.097
	C742.662,576.021,742.55,576.034,742.439,576.034z M659.778,572.423c-0.188,0-0.377-0.035-0.561-0.109
	c-3.875-1.561-7.567-3.354-10.973-5.328c-0.717-0.415-0.961-1.332-0.545-2.049c0.415-0.717,1.335-0.958,2.049-0.546
	c3.283,1.903,6.846,3.633,10.59,5.142c0.768,0.31,1.14,1.183,0.83,1.951C660.933,572.067,660.371,572.423,659.778,572.423z
	 M765.407,569.15c-0.609,0-1.182-0.374-1.406-0.979c-0.288-0.776,0.108-1.64,0.885-1.928c3.699-1.371,7.408-2.881,11.023-4.485
	c0.755-0.334,1.643,0.006,1.979,0.763c0.337,0.757-0.005,1.643-0.762,1.979c-3.672,1.629-7.439,3.162-11.197,4.556
	C765.757,569.12,765.581,569.15,765.407,569.15z M639.168,560.338c-0.34,0-0.681-0.115-0.962-0.351
	c-0.627-0.524-1.24-1.059-1.84-1.602c-2.237-2.026-4.519-4.405-6.78-7.072c-0.536-0.631-0.458-1.577,0.174-2.113
	c0.63-0.536,1.577-0.457,2.113,0.174c2.178,2.566,4.366,4.851,6.506,6.788c0.571,0.517,1.155,1.025,1.753,1.526
	c0.635,0.531,0.719,1.478,0.187,2.112C640.023,560.155,639.597,560.338,639.168,560.338z M787.325,559.426
	c-0.541,0-1.064-0.294-1.331-0.808c-0.383-0.735-0.097-1.641,0.638-2.022c3.494-1.818,6.988-3.774,10.386-5.815
	c0.709-0.428,1.63-0.198,2.058,0.513c0.427,0.71,0.197,1.632-0.513,2.058c-3.45,2.073-6.998,4.06-10.546,5.905
	C787.795,559.371,787.559,559.426,787.325,559.426z M807.876,547.075c-0.477,0-0.946-0.228-1.236-0.65
	c-0.47-0.683-0.297-1.616,0.386-2.085c3.25-2.234,6.479-4.603,9.599-7.04c0.65-0.509,1.594-0.396,2.104,0.259
	c0.51,0.652,0.395,1.595-0.259,2.104c-3.167,2.475-6.445,4.88-9.745,7.147C808.465,546.989,808.169,547.075,807.876,547.075z
	 M623.474,542.294c-0.476,0-0.942-0.226-1.234-0.646c-2.064-2.982-4.219-6.296-6.586-10.13c-0.435-0.705-0.216-1.629,0.488-2.064
	c0.707-0.435,1.628-0.216,2.064,0.488c2.339,3.789,4.465,7.06,6.5,9.999c0.471,0.681,0.301,1.615-0.38,2.087
	C624.066,542.207,623.769,542.294,623.474,542.294z M826.771,532.314c-0.415,0-0.828-0.172-1.125-0.507
	c-0.548-0.621-0.489-1.568,0.131-2.117c2.956-2.612,5.876-5.354,8.678-8.147c0.585-0.585,1.535-0.584,2.12,0.003
	c0.585,0.586,0.584,1.535-0.003,2.12c-2.844,2.837-5.808,5.62-8.809,8.272C827.478,532.19,827.123,532.314,826.771,532.314z
	 M220.111,529.193c-0.81,0-1.477-0.646-1.499-1.461c-0.022-0.828,0.632-1.517,1.459-1.538c3.971-0.104,7.967-0.322,11.875-0.647
	c0.829-0.077,1.55,0.544,1.619,1.37c0.068,0.825-0.545,1.55-1.37,1.618c-3.965,0.331-8.018,0.552-12.045,0.657
	C220.137,529.192,220.124,529.193,220.111,529.193z M208.122,529.177c-0.015,0-0.029-0.001-0.043-0.001
	c-3.969-0.112-8.024-0.335-12.055-0.66c-0.826-0.067-1.441-0.79-1.374-1.616c0.067-0.825,0.797-1.447,1.615-1.373
	c3.979,0.321,7.982,0.54,11.899,0.651c0.828,0.023,1.48,0.714,1.457,1.542C209.597,528.532,208.93,529.177,208.122,529.177z
	 M184.217,527.257c-0.065,0-0.131-0.005-0.198-0.014c-0.663-0.087-1.329-0.177-1.996-0.269c-0.092-0.013-0.183-0.034-0.269-0.062
	c-0.673-0.219-4.161-1.373-9.506-3.597c-0.765-0.318-1.127-1.196-0.809-1.961c0.318-0.765,1.195-1.127,1.961-0.809
	c5.012,2.085,8.328,3.202,9.166,3.477c0.616,0.085,1.231,0.167,1.844,0.248c0.821,0.107,1.399,0.861,1.291,1.682
	C185.602,526.707,184.958,527.257,184.217,527.257z M243.973,527.2c-0.735,0-1.376-0.541-1.482-1.289
	c-0.117-0.819,0.453-1.579,1.273-1.695c3.911-0.557,7.854-1.236,11.718-2.021c0.815-0.166,1.603,0.359,1.768,1.171
	c0.165,0.812-0.36,1.604-1.171,1.769c-3.922,0.797-7.923,1.486-11.893,2.051C244.115,527.195,244.044,527.2,243.973,527.2z
	 M267.447,522.435c-0.664,0-1.271-0.444-1.449-1.116c-0.212-0.801,0.265-1.621,1.066-1.833c3.802-1.007,7.64-2.143,11.408-3.376
	c0.786-0.257,1.634,0.171,1.892,0.958c0.257,0.787-0.172,1.635-0.958,1.892c-3.822,1.252-7.716,2.404-11.574,3.425
	C267.703,522.419,267.574,522.435,267.447,522.435z M610.766,521.926c-0.516,0-1.017-0.267-1.296-0.744
	c-1.51-2.584-3.034-5.223-4.58-7.898l-1.443-2.497c-0.415-0.717-0.17-1.635,0.547-2.049s1.635-0.17,2.049,0.547l1.444,2.499
	c1.544,2.672,3.065,5.306,4.573,7.887c0.418,0.715,0.177,1.633-0.538,2.051C611.283,521.859,611.023,521.926,610.766,521.926z
	 M161.865,518.47c-0.221,0-0.446-0.049-0.658-0.153c-3.612-1.767-7.218-3.66-10.715-5.63c-0.722-0.406-0.977-1.32-0.571-2.042
	s1.321-0.977,2.042-0.571c3.447,1.941,7,3.809,10.561,5.55c0.744,0.363,1.052,1.262,0.688,2.006
	C162.953,518.161,162.42,518.47,161.865,518.47z M843.426,515.105c-0.32,0-0.644-0.103-0.917-0.314
	c-0.654-0.507-0.774-1.448-0.269-2.104c2.321-2.999,4.582-6.276,6.72-9.738c0.437-0.705,1.36-0.923,2.064-0.487
	c0.704,0.435,0.923,1.358,0.488,2.063c-2.193,3.551-4.515,6.915-6.9,9.998C844.318,514.905,843.874,515.105,843.426,515.105z
	 M290.223,514.993c-0.601,0-1.167-0.363-1.398-0.956c-0.3-0.771,0.082-1.641,0.854-1.941c3.651-1.421,7.345-2.974,10.98-4.612
	c0.754-0.34,1.643-0.004,1.983,0.751c0.34,0.755,0.004,1.643-0.751,1.983c-3.683,1.66-7.425,3.232-11.125,4.673
	C290.588,514.96,290.404,514.993,290.223,514.993z M140.938,506.678c-0.278,0-0.56-0.078-0.812-0.24
	c-3.425-2.209-6.777-4.523-9.961-6.878c-0.666-0.493-0.807-1.432-0.314-2.098s1.433-0.806,2.097-0.314
	c3.133,2.317,6.432,4.595,9.804,6.771c0.696,0.448,0.896,1.377,0.447,2.072C141.913,506.436,141.431,506.678,140.938,506.678z
	 M312.087,505.162c-0.546,0-1.072-0.3-1.337-0.819c-0.376-0.738-0.083-1.641,0.655-2.017c3.466-1.766,7.001-3.665,10.507-5.647
	c0.719-0.409,1.636-0.152,2.043,0.567c0.408,0.722,0.154,1.636-0.567,2.044c-3.543,2.003-7.117,3.924-10.621,5.708
	C312.548,505.109,312.316,505.162,312.087,505.162z M598.691,501.165c-0.512,0-1.011-0.263-1.291-0.736
	c-2.216-3.741-4.248-7.089-6.213-10.232c-0.439-0.702-0.226-1.628,0.477-2.066c0.701-0.438,1.628-0.227,2.066,0.477
	c1.978,3.165,4.022,6.532,6.25,10.295c0.422,0.712,0.187,1.632-0.526,2.054C599.214,501.097,598.95,501.165,598.691,501.165z
	 M856.077,494.763c-0.228,0-0.458-0.052-0.675-0.161c-0.739-0.373-1.036-1.274-0.663-2.014c1.727-3.424,3.395-7.059,4.958-10.805
	c0.319-0.765,1.199-1.126,1.961-0.807c0.765,0.319,1.126,1.197,0.807,1.961c-1.591,3.812-3.289,7.514-5.048,11
	C857.154,494.462,856.625,494.763,856.077,494.763z M332.978,493.382c-0.503,0-0.995-0.253-1.278-0.713
	c-0.435-0.705-0.215-1.629,0.49-2.063c3.264-2.012,6.65-4.178,10.067-6.437c0.691-0.456,1.622-0.267,2.078,0.424
	s0.267,1.621-0.424,2.078c-3.443,2.276-6.857,4.459-10.148,6.487C333.518,493.309,333.246,493.382,332.978,493.382z
	 M121.655,492.388c-0.345,0-0.691-0.118-0.974-0.359c-3.109-2.656-6.108-5.419-8.912-8.211c-0.587-0.584-0.589-1.534-0.004-2.121
	c0.584-0.586,1.534-0.587,2.121-0.004c2.75,2.738,5.691,5.448,8.744,8.055c0.629,0.538,0.704,1.484,0.166,2.114
	C122.499,492.21,122.078,492.388,121.655,492.388z M585.927,480.83c-0.481,0-0.953-0.231-1.243-0.66
	c-2.315-3.426-4.639-6.7-6.903-9.731c-0.496-0.663-0.359-1.604,0.304-2.099c0.665-0.495,1.604-0.36,2.099,0.304
	c2.293,3.068,4.644,6.382,6.985,9.847c0.464,0.687,0.284,1.618-0.402,2.082C586.508,480.746,586.216,480.83,585.927,480.83z
	 M353.002,480.162c-0.473,0-0.938-0.224-1.23-0.641c-0.475-0.679-0.31-1.613,0.369-2.088c3.077-2.153,6.263-4.431,9.74-6.963
	c0.668-0.488,1.607-0.342,2.095,0.329c0.488,0.669,0.34,1.607-0.329,2.095c-3.492,2.544-6.693,4.832-9.786,6.996
	C353.599,480.074,353.299,480.162,353.002,480.162z M104.688,475.441c-0.426,0-0.849-0.181-1.145-0.53
	c-2.642-3.119-5.135-6.35-7.411-9.604c-0.475-0.679-0.31-1.613,0.369-2.088c0.678-0.476,1.614-0.31,2.088,0.369
	c2.223,3.178,4.66,6.335,7.242,9.383c0.536,0.633,0.457,1.579-0.175,2.114C105.374,475.324,105.03,475.441,104.688,475.441z
	 M865.352,472.652c-0.163,0-0.329-0.026-0.491-0.083c-0.783-0.271-1.197-1.126-0.926-1.908c1.271-3.659,2.48-7.481,3.6-11.36
	c0.228-0.796,1.06-1.257,1.855-1.025c0.796,0.229,1.255,1.06,1.025,1.855c-1.133,3.931-2.359,7.804-3.646,11.513
	C866.553,472.263,865.973,472.652,865.352,472.652z M372.418,466.052c-0.457,0-0.908-0.208-1.203-0.603
	c-0.496-0.664-0.359-1.604,0.305-2.099c3.032-2.265,6.023-4.515,8.978-6.738l0.617-0.464c0.662-0.497,1.602-0.365,2.1,0.297
	c0.498,0.661,0.365,1.602-0.297,2.1l-0.616,0.464c-2.958,2.226-5.952,4.479-8.987,6.744
	C373.045,465.955,372.73,466.052,372.418,466.052z M571.521,461.635c-0.427,0-0.85-0.181-1.146-0.532
	c-2.62-3.102-5.308-6.065-7.986-8.812c-0.578-0.592-0.566-1.542,0.026-2.12c0.592-0.576,1.542-0.567,2.12,0.026
	c2.729,2.796,5.464,5.813,8.131,8.97c0.534,0.633,0.455,1.579-0.178,2.113C572.206,461.518,571.863,461.635,571.521,461.635z
	 M90.985,455.799c-0.525,0-1.035-0.276-1.31-0.768c-1.985-3.546-3.791-7.21-5.366-10.89c-0.326-0.761,0.027-1.643,0.788-1.969
	c0.762-0.324,1.643,0.028,1.969,0.789c1.534,3.582,3.292,7.15,5.226,10.604c0.404,0.723,0.146,1.637-0.576,2.041
	C91.485,455.737,91.233,455.799,90.985,455.799z M391.628,451.656c-0.458,0-0.911-0.21-1.205-0.606
	c-0.494-0.665-0.354-1.604,0.311-2.098c3.634-2.696,6.812-5.016,9.716-7.091c0.675-0.482,1.61-0.325,2.092,0.348
	c0.481,0.674,0.326,1.61-0.348,2.092c-2.889,2.065-6.053,4.374-9.673,7.06C392.252,451.559,391.938,451.656,391.628,451.656z
	 M872.021,449.612c-0.114,0-0.231-0.014-0.348-0.041c-0.806-0.191-1.304-1-1.112-1.806c0.904-3.803,1.748-7.729,2.507-11.668
	c0.157-0.813,0.938-1.349,1.757-1.188c0.812,0.157,1.345,0.943,1.188,1.757c-0.768,3.98-1.62,7.948-2.534,11.793
	C873.315,449.148,872.699,449.612,872.021,449.612z M554.738,444.507c-0.348,0-0.697-0.121-0.98-0.366
	c-3.029-2.623-6.157-5.09-9.298-7.331c-0.674-0.481-0.831-1.418-0.35-2.092c0.481-0.675,1.419-0.83,2.092-0.35
	c3.217,2.296,6.419,4.821,9.519,7.505c0.626,0.542,0.694,1.489,0.152,2.115C555.575,444.331,555.157,444.507,554.738,444.507z
	 M411.186,437.75c-0.485,0-0.96-0.234-1.249-0.668c-0.459-0.689-0.273-1.62,0.416-2.08c3.608-2.405,6.943-4.518,10.197-6.459
	c0.713-0.424,1.632-0.191,2.056,0.52c0.424,0.712,0.192,1.632-0.52,2.057c-3.209,1.914-6.503,4.001-10.069,6.379
	C411.761,437.668,411.472,437.75,411.186,437.75z M81.581,433.801c-0.643,0-1.237-0.417-1.434-1.063
	c-1.17-3.847-2.143-7.812-2.89-11.785c-0.153-0.814,0.383-1.598,1.197-1.751c0.805-0.154,1.597,0.383,1.75,1.196
	c0.727,3.867,1.673,7.725,2.812,11.467c0.241,0.792-0.206,1.63-0.998,1.871C81.872,433.779,81.725,433.801,81.581,433.801z
	 M535.245,430.632c-0.252,0-0.507-0.063-0.741-0.197c-3.423-1.95-6.974-3.732-10.555-5.298c-0.759-0.332-1.105-1.216-0.773-1.975
	c0.331-0.759,1.215-1.103,1.975-0.773c3.677,1.607,7.323,3.438,10.838,5.44c0.72,0.41,0.971,1.325,0.561,2.045
	C536.273,430.359,535.766,430.632,535.245,430.632z M876.581,426.058c-0.075,0-0.151-0.006-0.228-0.018
	c-0.819-0.125-1.382-0.89-1.257-1.708c0.59-3.872,1.122-7.855,1.581-11.839c0.095-0.823,0.842-1.413,1.661-1.317
	c0.822,0.095,1.413,0.838,1.317,1.661c-0.463,4.02-0.999,8.039-1.595,11.946C877.948,425.526,877.31,426.058,876.581,426.058z
	 M431.822,425.551c-0.55,0-1.08-0.304-1.342-0.828c-0.371-0.741-0.071-1.642,0.669-2.013c3.786-1.896,7.52-3.543,11.098-4.896
	c0.777-0.293,1.641,0.097,1.933,0.872c0.293,0.774-0.098,1.64-0.872,1.933c-3.482,1.317-7.122,2.924-10.816,4.773
	C432.276,425.5,432.047,425.551,431.822,425.551z M513.349,421.057c-0.149,0-0.302-0.022-0.452-0.07
	c-3.702-1.172-7.547-2.176-11.429-2.984c-0.811-0.169-1.331-0.963-1.162-1.773c0.169-0.812,0.958-1.331,1.773-1.162
	c3.98,0.828,7.924,1.858,11.722,3.061c0.79,0.25,1.228,1.093,0.978,1.882C514.576,420.649,513.986,421.057,513.349,421.057z
	 M454.214,417.221c-0.684,0-1.301-0.47-1.461-1.164c-0.185-0.808,0.319-1.612,1.126-1.798c4.051-0.931,8.109-1.523,12.062-1.764
	c0.845-0.063,1.537,0.579,1.588,1.406c0.05,0.827-0.58,1.537-1.406,1.588c-3.789,0.229-7.683,0.799-11.572,1.693
	C454.438,417.209,454.324,417.221,454.214,417.221z M489.961,416.157c-0.056,0-0.111-0.003-0.168-0.01
	c-3.838-0.428-7.812-0.699-11.812-0.806c-0.828-0.022-1.481-0.711-1.459-1.539s0.724-1.454,1.539-1.459
	c4.085,0.108,8.144,0.386,12.064,0.823c0.823,0.092,1.416,0.833,1.324,1.656C491.365,415.59,490.715,416.157,489.961,416.157z
	 M77.149,410.312c-0.774,0-1.431-0.596-1.493-1.381c-0.252-3.148-0.38-6.376-0.38-9.595c0-0.837,0.009-1.678,0.026-2.523
	c0.017-0.828,0.667-1.492,1.53-1.469c0.828,0.017,1.485,0.702,1.468,1.529c-0.017,0.826-0.025,1.647-0.025,2.464
	c0,3.138,0.125,6.286,0.37,9.355c0.066,0.825-0.549,1.548-1.375,1.614C77.23,410.31,77.189,410.312,77.149,410.312z
	 M879.334,402.224c-0.04,0-0.081-0.002-0.122-0.005c-0.825-0.066-1.44-0.789-1.375-1.615c0.314-3.921,0.569-7.933,0.756-11.922
	c0.039-0.827,0.712-1.465,1.568-1.428c0.827,0.039,1.467,0.741,1.428,1.568c-0.188,4.022-0.445,8.067-0.762,12.021
	C880.764,401.629,880.108,402.224,879.334,402.224z M77.606,386.378c-0.056,0-0.113-0.004-0.17-0.01
	c-0.823-0.093-1.415-0.836-1.322-1.658c0.236-2.085,0.524-4.206,0.857-6.306c0.297-1.873,0.566-3.756,0.799-5.597
	c0.104-0.821,0.856-1.409,1.676-1.299c0.822,0.104,1.403,0.854,1.299,1.676c-0.237,1.872-0.511,3.786-0.812,5.689
	c-0.326,2.056-0.608,4.132-0.838,6.172C79.007,385.811,78.358,386.378,77.606,386.378z M880.46,378.261
	c-0.008,0-0.016-0.001-0.023-0.001c-0.828-0.012-1.489-0.693-1.477-1.521c0.027-1.849,0.041-3.702,0.041-5.559
	c0-2.122-0.017-4.25-0.053-6.38c-0.015-0.828,0.646-1.511,1.474-1.524c0.859-0.021,1.511,0.646,1.524,1.474
	c0.036,2.147,0.055,4.291,0.055,6.432c-0.002,1.871-0.016,3.738-0.043,5.603C881.947,377.604,881.278,378.261,880.46,378.261z
	 M80.341,362.552c-0.026,0-0.053-0.001-0.081-0.003c-0.827-0.044-1.461-0.749-1.418-1.576c0.137-2.584,0.207-5.169,0.207-7.684
	c0-1.413-0.022-2.808-0.064-4.183c-0.025-0.828,0.625-1.52,1.453-1.545c0.851,0.009,1.52,0.626,1.545,1.453
	c0.043,1.406,0.065,2.83,0.065,4.274c0,2.567-0.071,5.205-0.21,7.842C81.795,361.93,81.133,362.552,80.341,362.552z
	 M880.057,354.288c-0.795,0-1.458-0.625-1.497-1.428c-0.188-3.94-0.444-7.953-0.76-11.927c-0.065-0.825,0.551-1.548,1.377-1.613
	c0.81-0.059,1.548,0.552,1.613,1.377c0.317,4.004,0.575,8.048,0.766,12.019c0.039,0.827-0.599,1.53-1.426,1.57
	C880.106,354.287,880.081,354.288,880.057,354.288z M79.571,338.619c-0.746,0-1.393-0.557-1.486-1.316
	c-0.482-3.909-1.161-7.831-2.016-11.657c-0.181-0.809,0.328-1.61,1.136-1.791c0.809-0.18,1.61,0.328,1.791,1.137
	c0.876,3.921,1.571,7.939,2.065,11.944c0.102,0.822-0.482,1.57-1.305,1.672C79.695,338.615,79.633,338.619,79.571,338.619z
	 M878.152,330.369c-0.754,0-1.402-0.567-1.488-1.334c-0.44-3.945-0.951-7.936-1.517-11.857c-0.118-0.819,0.45-1.58,1.271-1.698
	c0.814-0.115,1.579,0.451,1.698,1.271c0.57,3.953,1.084,7.975,1.528,11.953c0.092,0.823-0.501,1.564-1.324,1.656
	C878.264,330.366,878.207,330.369,878.152,330.369z M74.364,315.266c-0.632,0-1.22-0.403-1.425-1.036
	c-1.195-3.675-2.552-7.309-4.148-11.109c-0.32-0.764,0.039-1.643,0.802-1.963c0.761-0.32,1.643,0.039,1.963,0.802
	c1.628,3.877,3.013,7.588,4.234,11.343c0.256,0.788-0.174,1.634-0.962,1.89C74.674,315.242,74.518,315.266,74.364,315.266z
	 M874.715,306.613c-0.712,0-1.345-0.51-1.475-1.236c-0.704-3.938-1.48-7.885-2.308-11.73c-0.175-0.81,0.341-1.607,1.15-1.781
	c0.812-0.175,1.606,0.341,1.781,1.15c0.835,3.879,1.618,7.86,2.329,11.833c0.146,0.815-0.397,1.594-1.213,1.74
	C874.892,306.605,874.803,306.613,874.715,306.613z M65.166,293.15c-0.551,0-1.083-0.306-1.344-0.833
	c-1.567-3.159-3.324-6.521-5.526-10.579c-0.395-0.728-0.125-1.638,0.603-2.033c0.728-0.397,1.638-0.125,2.033,0.603
	c2.221,4.092,3.993,7.484,5.577,10.677c0.368,0.742,0.065,1.642-0.677,2.01C65.617,293.099,65.39,293.15,65.166,293.15z
	 M869.661,283.149c-0.67,0-1.28-0.452-1.452-1.131c-0.988-3.893-2.052-7.767-3.16-11.515c-0.234-0.794,0.219-1.628,1.014-1.863
	c0.79-0.231,1.628,0.218,1.862,1.013c1.12,3.785,2.193,7.696,3.19,11.627c0.204,0.803-0.281,1.619-1.084,1.823
	C869.907,283.134,869.783,283.149,869.661,283.149z M273.82,282.409c-2.598,0-5.207-0.158-7.755-0.47
	c-0.822-0.1-1.407-0.848-1.306-1.67c0.1-0.822,0.843-1.412,1.67-1.306c3.824,0.468,7.776,0.569,11.692,0.298
	c0.833-0.058,1.542,0.566,1.6,1.393s-0.566,1.542-1.393,1.6C276.829,282.357,275.313,282.409,273.82,282.409z M290.041,280.304
	c-0.664,0-1.271-0.444-1.449-1.116c-0.212-0.801,0.265-1.622,1.065-1.834c3.823-1.013,7.5-2.391,10.931-4.097
	c0.74-0.367,1.641-0.067,2.01,0.675c0.369,0.741,0.066,1.641-0.675,2.01c-3.612,1.796-7.48,3.247-11.498,4.311
	C290.298,280.288,290.168,280.304,290.041,280.304z M254.563,279.312c-0.159,0-0.321-0.026-0.48-0.08
	c-3.965-1.341-7.716-3.097-11.146-5.219c-0.704-0.436-0.922-1.36-0.486-2.064c0.435-0.704,1.359-0.921,2.064-0.486
	c3.237,2.003,6.779,3.661,10.529,4.929c0.784,0.265,1.206,1.116,0.94,1.901C255.772,278.918,255.189,279.312,254.563,279.312z
	 M53.835,272.014c-0.529,0-1.042-0.281-1.315-0.777c-1.731-3.147-3.761-6.866-5.688-10.597c-0.38-0.736-0.091-1.641,0.645-2.021
	c0.737-0.381,1.64-0.091,2.021,0.645c1.91,3.699,3.928,7.397,5.65,10.526c0.399,0.726,0.135,1.638-0.59,2.037
	C54.327,271.954,54.079,272.014,53.835,272.014z M311.318,269.617c-0.433,0-0.863-0.187-1.159-0.547
	c-0.526-0.64-0.434-1.585,0.206-2.111c3.044-2.503,5.72-5.334,7.954-8.415c0.486-0.671,1.422-0.82,2.094-0.333
	c0.67,0.486,0.82,1.424,0.333,2.094c-2.384,3.288-5.236,6.306-8.477,8.971C311.99,269.505,311.653,269.617,311.318,269.617z
	 M234.411,266.736c-0.394,0-0.787-0.154-1.081-0.46c-2.849-2.963-5.316-6.302-7.334-9.924c-0.403-0.723-0.143-1.636,0.581-2.04
	c0.723-0.405,1.636-0.144,2.04,0.58c1.892,3.397,4.206,6.528,6.876,9.306c0.574,0.597,0.555,1.546-0.042,2.12
	C235.159,266.597,234.785,266.736,234.411,266.736z M862.852,260.144c-0.624,0-1.206-0.392-1.419-1.016
	c-1.3-3.807-2.681-7.576-4.104-11.202c-0.303-0.771,0.077-1.641,0.848-1.944c0.768-0.302,1.641,0.076,1.943,0.848
	c1.44,3.668,2.837,7.48,4.15,11.329c0.268,0.784-0.15,1.636-0.935,1.903C863.176,260.118,863.012,260.144,862.852,260.144z
	 M42.951,250.657c-0.575,0-1.123-0.332-1.372-0.891c-1.734-3.906-3.193-7.592-4.46-11.27c-0.27-0.783,0.146-1.636,0.93-1.906
	c0.784-0.269,1.636,0.147,1.906,0.93c1.238,3.595,2.666,7.203,4.366,11.029c0.336,0.757-0.005,1.643-0.762,1.979
	C43.361,250.616,43.155,250.657,42.951,250.657z M325.188,250.39c-0.174,0-0.352-0.031-0.524-0.095
	c-0.776-0.29-1.17-1.153-0.88-1.929c0.2-0.535,0.39-1.076,0.57-1.625c0.15-0.429,1.415-4.002,3.674-9.705
	c0.305-0.77,1.177-1.146,1.946-0.842c0.77,0.305,1.147,1.176,0.842,1.946c-2.233,5.637-3.479,9.155-3.618,9.552
	c-0.191,0.581-0.393,1.155-0.605,1.722C326.367,250.017,325.796,250.39,325.188,250.39z M222.789,246.049
	c-0.657,0-1.259-0.434-1.444-1.097c-1.06-3.8-1.756-7.866-2.071-12.086c-0.062-0.826,0.558-1.545,1.384-1.606
	c0.829-0.065,1.544,0.558,1.607,1.384c0.3,4.023,0.962,7.894,1.968,11.503c0.223,0.798-0.244,1.625-1.042,1.847
	C223.057,246.031,222.922,246.049,222.789,246.049z M854.077,237.819c-0.572,0-1.118-0.329-1.368-0.885
	c-1.648-3.662-3.389-7.274-5.175-10.734c-0.379-0.736-0.091-1.64,0.646-2.02c0.734-0.381,1.641-0.091,2.021,0.645
	c1.81,3.507,3.574,7.167,5.243,10.878c0.34,0.755,0.003,1.643-0.752,1.983C854.492,237.777,854.282,237.819,854.077,237.819z
	 M596.879,232.906c-1.098,0-2.194-0.038-3.26-0.111c-0.826-0.058-1.45-0.774-1.393-1.6c0.057-0.826,0.775-1.451,1.6-1.392
	c3.65,0.252,7.562,0.039,11.583-0.64c0.82-0.134,1.59,0.412,1.729,1.229c0.138,0.817-0.412,1.59-1.229,1.729
	C602.822,232.642,599.783,232.906,596.879,232.906z M582.095,230.33c-0.172,0-0.348-0.03-0.519-0.093
	c-3.728-1.373-7.383-3.319-10.862-5.784c-0.676-0.479-0.836-1.415-0.357-2.09s1.415-0.836,2.09-0.357
	c3.266,2.312,6.686,4.135,10.167,5.417c0.777,0.286,1.175,1.148,0.889,1.925C583.279,229.954,582.705,230.33,582.095,230.33z
	 M617.251,229.107c-0.625,0-1.208-0.393-1.42-1.018c-0.267-0.784,0.153-1.636,0.938-1.902c3.669-1.247,7.369-2.714,10.999-4.362
	c0.755-0.34,1.644-0.008,1.985,0.746c0.343,0.754,0.009,1.643-0.745,1.985c-3.72,1.688-7.513,3.192-11.274,4.471
	C617.573,229.081,617.411,229.107,617.251,229.107z M35.225,227.998c-0.683,0-1.3-0.47-1.46-1.164
	c-0.906-3.936-1.598-7.962-2.055-11.966c-0.094-0.823,0.497-1.566,1.319-1.66c0.818-0.101,1.566,0.497,1.66,1.319
	c0.445,3.893,1.117,7.808,1.999,11.634c0.186,0.807-0.318,1.612-1.125,1.798C35.449,227.986,35.337,227.998,35.225,227.998z
	 M334.008,227.961c-0.197,0-0.396-0.039-0.589-0.121c-0.761-0.326-1.115-1.208-0.789-1.969c1.576-3.683,3.22-7.395,4.887-11.034
	c0.345-0.753,1.236-1.084,1.988-0.739c0.753,0.345,1.084,1.235,0.739,1.988c-1.657,3.616-3.29,7.305-4.855,10.964
	C335.144,227.619,334.591,227.961,334.008,227.961z M220.856,222.272c-0.042,0-0.083-0.001-0.125-0.005
	c-0.825-0.068-1.439-0.792-1.372-1.618c0.319-3.87,0.914-7.922,1.77-12.042c0.168-0.811,0.964-1.335,1.773-1.164
	c0.811,0.168,1.332,0.962,1.164,1.773c-0.831,4.001-1.408,7.931-1.717,11.679C222.284,221.679,221.628,222.272,220.856,222.272z
	 M639.07,219.25c-0.522,0-1.031-0.274-1.307-0.763c-0.407-0.721-0.153-1.636,0.568-2.043c3.316-1.873,6.719-3.971,10.113-6.234
	c0.688-0.459,1.62-0.273,2.08,0.416c0.459,0.689,0.273,1.62-0.416,2.08c-3.456,2.304-6.922,4.441-10.303,6.35
	C639.573,219.188,639.32,219.25,639.07,219.25z M562.584,216.854c-0.396,0-0.79-0.155-1.085-0.464
	c-2.613-2.739-5.163-5.797-7.795-9.349c-0.493-0.666-0.354-1.604,0.312-2.098c0.665-0.493,1.604-0.353,2.098,0.312
	c2.557,3.451,5.028,6.416,7.555,9.064c0.571,0.599,0.55,1.548-0.05,2.12C563.329,216.717,562.956,216.854,562.584,216.854z
	 M843.061,216.517c-0.512,0-1.011-0.262-1.291-0.734c-2.053-3.46-4.205-6.834-6.396-10.028c-0.469-0.683-0.295-1.616,0.388-2.085
	c0.684-0.468,1.616-0.294,2.085,0.388c2.229,3.248,4.417,6.678,6.504,10.195c0.422,0.712,0.188,1.632-0.525,2.055
	C843.585,216.449,843.322,216.517,843.061,216.517z M344.028,206.091c-0.222,0-0.446-0.049-0.658-0.153
	c-0.744-0.364-1.052-1.262-0.688-2.006c1.78-3.637,3.615-7.259,5.452-10.765c0.384-0.733,1.292-1.016,2.024-0.632
	c0.733,0.384,1.016,1.291,0.632,2.024c-1.825,3.481-3.646,7.079-5.415,10.691C345.115,205.782,344.582,206.091,344.028,206.091z
	 M659.049,206.003c-0.454,0-0.903-0.206-1.198-0.597c-0.499-0.662-0.367-1.602,0.295-2.1c2.967-2.237,6.033-4.655,9.371-7.393
	c0.642-0.526,1.586-0.432,2.11,0.209c0.525,0.641,0.432,1.585-0.208,2.11c-3.371,2.763-6.468,5.206-9.469,7.468
	C659.681,205.905,659.364,206.003,659.049,206.003z M32.496,204.246c-0.825,0-1.496-0.667-1.5-1.492l-0.001-0.607
	c0-3.745,0.183-7.62,0.543-11.516c0.076-0.825,0.809-1.435,1.631-1.355c0.825,0.076,1.431,0.807,1.355,1.631
	c-0.352,3.805-0.531,7.586-0.531,11.24l0.001,0.593c0.004,0.828-0.664,1.503-1.492,1.507
	C32.501,204.246,32.499,204.246,32.496,204.246z M225.622,198.809c-0.147,0-0.298-0.022-0.446-0.068
	c-0.791-0.246-1.232-1.086-0.986-1.877c0.997-3.205,2.154-6.513,3.44-9.835c0.202-0.521,0.401-1.04,0.597-1.556
	c0.294-0.775,1.161-1.164,1.934-0.87c0.774,0.294,1.164,1.16,0.87,1.934c-0.199,0.523-0.4,1.048-0.604,1.575
	c-1.261,3.258-2.396,6.502-3.373,9.642C226.854,198.397,226.261,198.809,225.622,198.809z M548.166,197.721
	c-0.497,0-0.984-0.248-1.27-0.7c-1.917-3.041-3.945-6.427-6.201-10.354c-0.413-0.718-0.165-1.635,0.553-2.047
	c0.717-0.411,1.634-0.166,2.047,0.553c2.236,3.891,4.244,7.243,6.139,10.249c0.441,0.701,0.231,1.626-0.469,2.068
	C548.717,197.647,548.44,197.721,548.166,197.721z M829.476,196.767c-0.44,0-0.876-0.192-1.172-0.563
	c-2.506-3.133-5.123-6.149-7.778-8.964c-0.568-0.603-0.541-1.551,0.062-2.12c0.604-0.569,1.552-0.541,2.12,0.062
	c2.711,2.874,5.382,5.952,7.938,9.149c0.518,0.646,0.412,1.59-0.234,2.107C830.135,196.66,829.804,196.767,829.476,196.767z
	 M677.653,190.848c-0.423,0-0.843-0.178-1.14-0.523c-0.539-0.628-0.466-1.575,0.162-2.114c1.797-1.541,3.577-3.079,5.345-4.605
	l3.742-3.229c0.629-0.541,1.575-0.468,2.115,0.159c0.54,0.627,0.469,1.574-0.158,2.115l-3.739,3.225
	c-1.77,1.529-3.553,3.069-5.352,4.612C678.345,190.73,677.997,190.848,677.653,190.848z M355.198,184.797
	c-0.249,0-0.501-0.062-0.734-0.193c-0.722-0.406-0.978-1.32-0.572-2.042c2-3.556,4.049-7.062,6.09-10.423
	c0.43-0.708,1.353-0.933,2.06-0.503c0.708,0.43,0.933,1.352,0.503,2.06c-2.023,3.333-4.055,6.811-6.039,10.337
	C356.231,184.522,355.722,184.797,355.198,184.797z M34.653,180.386c-0.087,0-0.176-0.008-0.265-0.023
	c-0.815-0.145-1.359-0.924-1.214-1.739c0.682-3.834,1.54-7.813,2.55-11.826c0.202-0.804,1.019-1.292,1.82-1.088
	c0.803,0.202,1.291,1.017,1.088,1.82c-0.993,3.945-1.835,7.855-2.505,11.62C35.998,179.876,35.365,180.386,34.653,180.386z
	 M813.011,179.364c-0.353,0-0.707-0.124-0.992-0.376c-1.62-1.433-3.288-2.832-4.957-4.157c-1.438-1.141-2.877-2.252-4.277-3.302
	c-0.663-0.497-0.797-1.437-0.301-2.099c0.499-0.663,1.438-0.796,2.1-0.3c1.422,1.066,2.884,2.194,4.343,3.352
	c1.711,1.358,3.42,2.791,5.079,4.259c0.621,0.549,0.679,1.497,0.13,2.117C813.839,179.193,813.426,179.364,813.011,179.364z
	 M536.112,176.948c-0.527,0-1.039-0.279-1.312-0.773l-1.271-2.294c-1.506-2.722-3.021-5.461-4.558-8.199
	c-0.405-0.723-0.148-1.636,0.574-2.042c0.718-0.405,1.635-0.149,2.041,0.574c1.539,2.743,3.058,5.488,4.566,8.215l1.27,2.293
	c0.401,0.725,0.14,1.637-0.585,2.038C536.607,176.888,536.358,176.948,536.112,176.948z M233.597,176.185
	c-0.152,0-0.306-0.023-0.458-0.072c-0.789-0.253-1.223-1.097-0.97-1.886c1.245-3.885,2.349-7.733,3.281-11.437
	c0.202-0.803,1.018-1.291,1.82-1.088c0.803,0.202,1.291,1.017,1.088,1.82c-0.947,3.765-2.069,7.674-3.333,11.62
	C234.821,175.78,234.232,176.185,233.597,176.185z M695.905,175.266c-0.433,0-0.862-0.186-1.158-0.546
	c-0.526-0.639-0.436-1.584,0.204-2.111c3.464-2.853,6.569-5.292,9.492-7.46c0.666-0.494,1.605-0.354,2.098,0.312
	c0.494,0.665,0.354,1.604-0.311,2.098c-2.883,2.137-5.948,4.546-9.373,7.366C696.577,175.154,696.24,175.266,695.905,175.266z
	 M793.846,164.972c-0.277,0-0.559-0.077-0.809-0.237c-3.469-2.226-6.918-4.222-10.252-5.934c-0.737-0.378-1.027-1.282-0.649-2.019
	s1.283-1.029,2.019-0.649c3.42,1.755,6.953,3.8,10.502,6.077c0.697,0.447,0.899,1.375,0.452,2.072
	C794.823,164.729,794.339,164.972,793.846,164.972z M367.688,164.259c-0.283,0-0.57-0.08-0.824-0.248
	c-0.691-0.456-0.882-1.386-0.426-2.078c2.264-3.431,4.576-6.779,6.873-9.95c0.485-0.671,1.424-0.821,2.094-0.335
	c0.671,0.485,0.821,1.423,0.335,2.094c-2.271,3.137-4.558,6.448-6.798,9.843C368.653,164.022,368.176,164.259,367.688,164.259z
	 M715.251,161.107c-0.504,0-0.996-0.254-1.279-0.715c-0.433-0.706-0.212-1.629,0.494-2.062c3.713-2.277,7.233-4.143,10.762-5.703
	c0.76-0.335,1.644,0.009,1.978,0.765c0.335,0.757-0.007,1.643-0.765,1.978c-3.405,1.506-6.809,3.31-10.406,5.517
	C715.789,161.035,715.519,161.107,715.251,161.107z M40.455,157.126c-0.149,0-0.301-0.022-0.451-0.07
	c-0.79-0.249-1.229-1.091-0.979-1.881c1.169-3.709,2.487-7.55,3.916-11.414c0.027-0.073,0.06-0.144,0.097-0.212l0.326-0.582
	c0.405-0.722,1.318-0.979,2.042-0.575c0.722,0.405,0.979,1.319,0.575,2.042l-0.268,0.477c-1.396,3.782-2.684,7.538-3.828,11.166
	C41.683,156.717,41.093,157.126,40.455,157.126z M524.289,156.039c-0.511,0-1.01-0.262-1.29-0.733
	c-2.222-3.736-4.289-7.051-6.319-10.134c-0.456-0.691-0.265-1.622,0.427-2.077c0.693-0.454,1.622-0.264,2.077,0.428
	c2.057,3.122,4.148,6.475,6.394,10.25c0.423,0.712,0.189,1.632-0.522,2.056C524.815,155.97,524.55,156.039,524.289,156.039z
	 M772.493,154.156c-0.169,0-0.341-0.029-0.509-0.089c-3.826-1.379-7.634-2.414-11.316-3.077c-0.815-0.147-1.356-0.927-1.21-1.742
	c0.146-0.814,0.925-1.36,1.741-1.21c3.848,0.692,7.818,1.771,11.803,3.207c0.778,0.281,1.183,1.14,0.902,1.919
	C773.684,153.775,773.108,154.156,772.493,154.156z M239.394,152.926c-0.084,0-0.168-0.007-0.253-0.021
	c-0.816-0.139-1.366-0.914-1.227-1.73c0.685-4.024,1.17-7.98,1.441-11.758c0.06-0.826,0.778-1.447,1.603-1.388
	c0.826,0.059,1.448,0.777,1.388,1.603c-0.278,3.874-0.774,7.927-1.475,12.046C240.746,152.409,240.111,152.926,239.394,152.926z
	 M737.152,151.629c-0.678,0-1.293-0.463-1.457-1.151c-0.193-0.806,0.304-1.615,1.109-1.808c4.016-0.961,8.107-1.5,12.159-1.599
	c0.796-0.041,1.516,0.634,1.536,1.462c0.021,0.828-0.634,1.516-1.462,1.536c-3.843,0.095-7.724,0.605-11.536,1.518
	C737.384,151.615,737.267,151.629,737.152,151.629z M381.803,144.818c-0.33,0-0.662-0.108-0.939-0.332
	c-0.645-0.519-0.747-1.463-0.228-2.108c2.596-3.226,5.243-6.32,7.867-9.199c0.558-0.612,1.507-0.655,2.119-0.098
	c0.612,0.558,0.656,1.506,0.098,2.119c-2.583,2.833-5.189,5.881-7.748,9.059C382.676,144.627,382.241,144.818,381.803,144.818z
	 M511.012,136.042c-0.452,0-0.898-0.203-1.193-0.59c-2.508-3.29-5.065-6.347-7.603-9.085c-0.563-0.607-0.527-1.556,0.08-2.119
	c0.607-0.562,1.557-0.528,2.119,0.081c2.603,2.808,5.223,5.939,7.788,9.305c0.502,0.659,0.375,1.6-0.283,2.102
	C511.649,135.942,511.329,136.042,511.012,136.042z M50.815,134.904c-0.274,0-0.552-0.076-0.801-0.233
	c-0.7-0.443-0.907-1.37-0.464-2.069c2.176-3.433,4.448-6.8,6.754-10.008c0.484-0.672,1.42-0.827,2.093-0.342
	c0.672,0.484,0.826,1.421,0.342,2.093c-2.272,3.16-4.512,6.479-6.656,9.862C51.797,134.657,51.311,134.904,50.815,134.904z
	 M241.008,129.043c-0.794,0-1.457-0.624-1.496-1.425c-0.201-4.036-0.682-7.955-1.431-11.649c-0.165-0.812,0.36-1.603,1.172-1.768
	c0.813-0.167,1.603,0.36,1.768,1.172c0.778,3.841,1.279,7.911,1.486,12.096c0.041,0.827-0.596,1.531-1.423,1.572
	C241.058,129.043,241.033,129.043,241.008,129.043z M398.016,127.115c-0.398,0-0.796-0.158-1.091-0.47
	c-0.568-0.602-0.542-1.551,0.061-2.12c3.039-2.87,6.132-5.538,9.192-7.93c0.652-0.51,1.595-0.394,2.105,0.258
	c0.51,0.652,0.395,1.595-0.258,2.105c-2.987,2.334-6.008,4.941-8.979,7.747C398.755,126.979,398.385,127.115,398.016,127.115z
	 M494.656,118.572c-0.34,0-0.681-0.115-0.962-0.35c-3.077-2.577-6.284-4.874-9.532-6.828c-0.709-0.427-0.938-1.348-0.512-2.058
	c0.427-0.709,1.347-0.939,2.059-0.512c3.38,2.034,6.715,4.422,9.911,7.098c0.635,0.532,0.719,1.478,0.187,2.112
	C495.511,118.389,495.085,118.572,494.656,118.572z M64.822,115.461c-0.334,0-0.671-0.111-0.95-0.34
	c-0.64-0.525-0.733-1.47-0.208-2.11c2.583-3.148,5.271-6.202,7.989-9.077c0.569-0.601,1.519-0.628,2.12-0.06
	c0.602,0.569,0.629,1.518,0.06,2.12c-2.67,2.825-5.311,5.826-7.85,8.919C65.685,115.274,65.255,115.461,64.822,115.461z
	 M416.951,112.441c-0.507,0-1.001-0.257-1.283-0.722c-0.43-0.708-0.205-1.63,0.503-2.06c3.592-2.182,7.242-4.055,10.847-5.569
	c0.761-0.321,1.642,0.039,1.963,0.802c0.32,0.764-0.039,1.643-0.802,1.963c-3.469,1.456-6.985,3.262-10.451,5.367
	C417.485,112.37,417.216,112.441,416.951,112.441z M474.212,106.356c-0.18,0-0.361-0.032-0.539-0.101
	c-3.593-1.383-7.367-2.465-11.218-3.216c-0.812-0.158-1.343-0.946-1.185-1.759s0.955-1.343,1.759-1.185
	c4.021,0.784,7.965,1.915,11.722,3.361c0.772,0.297,1.158,1.165,0.86,1.938C475.382,105.99,474.815,106.356,474.212,106.356z
	 M236.156,105.707c-0.595,0-1.158-0.356-1.393-0.943c-1.46-3.649-3.272-7.126-5.386-10.334c-0.456-0.692-0.265-1.622,0.427-2.078
	c0.693-0.454,1.622-0.263,2.077,0.427c2.226,3.377,4.132,7.035,5.667,10.871c0.308,0.769-0.066,1.642-0.835,1.949
	C236.53,105.673,236.341,105.707,236.156,105.707z M438.975,103.331c-0.688,0-1.309-0.477-1.463-1.178
	c-0.178-0.809,0.333-1.608,1.142-1.787c4.033-0.888,8.12-1.363,12.148-1.411c0.825-0.034,1.507,0.654,1.517,1.481
	c0.01,0.828-0.653,1.508-1.481,1.518c-3.823,0.045-7.705,0.497-11.538,1.34C439.191,103.32,439.082,103.331,438.975,103.331z
	 M81.297,98.065c-0.408,0-0.814-0.166-1.11-0.491c-0.557-0.613-0.512-1.562,0.101-2.119c3.009-2.734,6.132-5.351,9.282-7.777
	c0.657-0.505,1.598-0.383,2.103,0.273c0.505,0.656,0.383,1.598-0.273,2.103c-3.086,2.376-6.146,4.94-9.095,7.621
	C82.017,97.936,81.656,98.065,81.297,98.065z M223.057,85.842c-0.383,0-0.766-0.146-1.059-0.438
	c-2.702-2.695-5.741-5.194-9.033-7.429c-0.685-0.465-0.864-1.398-0.398-2.083c0.466-0.685,1.399-0.862,2.083-0.398
	c3.446,2.34,6.631,4.96,9.466,7.788c0.586,0.584,0.587,1.534,0.002,2.121C223.826,85.695,223.441,85.842,223.057,85.842z
	 M100.291,83.469c-0.495,0-0.979-0.244-1.265-0.691c-0.446-0.698-0.242-1.625,0.455-2.071c3.419-2.187,6.953-4.227,10.502-6.063
	c0.736-0.38,1.64-0.092,2.021,0.643c0.38,0.735,0.093,1.64-0.643,2.021c-3.468,1.794-6.921,3.788-10.264,5.926
	C100.847,83.393,100.568,83.469,100.291,83.469z M121.572,72.476c-0.594,0-1.157-0.355-1.392-0.941
	c-0.309-0.769,0.064-1.642,0.833-1.951c3.759-1.51,7.619-2.845,11.473-3.969c0.797-0.229,1.628,0.226,1.859,1.021
	c0.232,0.795-0.225,1.627-1.02,1.859c-3.759,1.096-7.525,2.398-11.193,3.873C121.948,72.441,121.758,72.476,121.572,72.476z
	 M203.36,72.344c-0.211,0-0.426-0.045-0.63-0.14c-3.48-1.614-7.19-3.024-11.028-4.19c-0.792-0.241-1.239-1.078-0.999-1.871
	c0.241-0.792,1.077-1.24,1.871-0.999c3.971,1.207,7.812,2.667,11.418,4.339c0.751,0.349,1.078,1.24,0.729,1.991
	C204.467,72.022,203.926,72.344,203.36,72.344z M144.572,65.785c-0.709,0-1.34-0.506-1.473-1.229
	c-0.15-0.814,0.389-1.596,1.203-1.746c4.021-0.741,8.077-1.268,12.056-1.568c0.84-0.066,1.546,0.557,1.608,1.382
	c0.062,0.826-0.556,1.546-1.382,1.608c-3.874,0.292-7.823,0.807-11.739,1.527C144.754,65.777,144.662,65.785,144.572,65.785z
	 M180.436,65.342c-0.082,0-0.164-0.007-0.246-0.021c-3.746-0.619-6.023-0.738-6.045-0.739v0c-0.061-0.002-0.123-0.009-0.184-0.02
	c-0.02-0.003-2.039-0.344-5.568-0.518c-0.827-0.041-1.465-0.744-1.424-1.571c0.041-0.828,0.75-1.481,1.571-1.424
	c3.732,0.184,5.841,0.542,5.929,0.558l-0.002,0.009c0.951,0.011,2.713,0.169,6.211,0.747c0.817,0.135,1.37,0.907,1.235,1.724
	C181.793,64.821,181.157,65.342,180.436,65.342z"/>
<circle fill="#FFFFFF" cx="32.854" cy="197.364" r="11.493"/>
<g>
	<path fill="none" stroke="#36895B" stroke-width="4" stroke-linecap="round" stroke-linejoin="round" stroke-miterlimit="10" d="
		M850.76,282.291"/>
	<path fill="none" stroke="#36895B" stroke-width="4" stroke-linecap="round" stroke-linejoin="round" stroke-miterlimit="10" d="
		M862.098,277.808"/>
</g>
<g opacity="0.3">
	<g>
		<g>
			<path fill="#36895B" d="M845.168,64.935v-9.384c-0.168-2.794-0.201-2.912-4.664-3.678c-11.411-1.951-9.742-17.438-9.742-17.438
				s11.301-0.028,14.765,7.256c0,0,1.5,3.571,1.5,11.421v11.821L845.168,64.935L845.168,64.935z"/>
		</g>
	</g>
	<g>
		<g>
			<path fill="#36895B" d="M850.554,64.935v-3.463c0.169-2.793,0.201-2.912,4.664-3.678c11.411-1.95,9.743-17.438,9.743-17.438
				s-11.303-0.028-14.767,7.256c0,0-1.5,3.571-1.5,11.421v5.9L850.554,64.935L850.554,64.935z"/>
		</g>
	</g>
</g>
<g opacity="0.3">
	<g>
		<g>
			<path fill="#36895B" d="M794.692,80.184V70.8c-0.168-2.793-0.201-2.911-4.664-3.677c-11.411-1.951-9.743-17.438-9.743-17.438
				s11.303-0.028,14.767,7.256c0,0,1.5,3.571,1.5,11.421v11.821L794.692,80.184L794.692,80.184z"/>
		</g>
	</g>
	<g>
		<g>
			<path fill="#36895B" d="M800.077,80.184v-3.463c0.169-2.793,0.201-2.912,4.664-3.678c11.411-1.95,9.743-17.438,9.743-17.438
				s-11.302-0.028-14.766,7.256c0,0-1.5,3.571-1.5,11.421v5.9L800.077,80.184L800.077,80.184z"/>
		</g>
	</g>
</g>
<g opacity="0.3">
	<g>
		<g>
			<path fill="#36895B" d="M355.866,76.205v-9.384c-0.169-2.793-0.201-2.912-4.664-3.677c-11.411-1.951-9.742-17.438-9.742-17.438
				s11.301-0.027,14.765,7.256c0,0,1.5,3.571,1.5,11.421v11.821L355.866,76.205L355.866,76.205z"/>
		</g>
	</g>
	<g>
		<g>
			<path fill="#36895B" d="M361.252,76.205v-3.463c0.169-2.793,0.201-2.912,4.664-3.677c11.411-1.951,9.743-17.438,9.743-17.438
				s-11.303-0.027-14.767,7.256c0,0-1.5,3.571-1.5,11.422v5.899L361.252,76.205L361.252,76.205z"/>
		</g>
	</g>
</g>
<g opacity="0.3">
	<g>
		<g>
			<path fill="#36895B" d="M304.557,94.165v-9.384c-0.168-2.793-0.201-2.912-4.664-3.677c-11.411-1.951-9.743-17.438-9.743-17.438
				s11.303-0.027,14.767,7.256c0,0,1.5,3.571,1.5,11.422v11.82L304.557,94.165L304.557,94.165z"/>
		</g>
	</g>
	<g>
		<g>
			<path fill="#36895B" d="M309.942,94.165v-3.463c0.169-2.793,0.201-2.912,4.664-3.677c11.411-1.951,9.743-17.438,9.743-17.438
				s-11.302-0.027-14.766,7.257c0,0-1.5,3.57-1.5,11.421v5.899L309.942,94.165L309.942,94.165z"/>
		</g>
	</g>
</g>
<path fill="none" stroke="#4AB37F" stroke-width="2" stroke-miterlimit="10" d="M579.037,392.326"/>
<path fill="none" stroke="#4AB37F" stroke-width="2" stroke-miterlimit="10" d="M192.497,285.331"/>
<path opacity="0.3" fill="#36895B" enable-background="new    " d="M167.577,569.316c-1.195,0-2.35,0.186-3.434,0.524
	c-0.339-5.283-4.267-9.589-9.37-10.507v-0.003c-0.739-0.214-2.035-0.181-2.035-0.181c-6.313,0-11.434,5.118-11.434,11.433
	c0,1.277,0.213,2.506,0.6,3.652c-6.282,0.035-11.366,5.139-11.366,11.431c0,6.314,5.117,11.434,11.433,11.434
	c2.116,0,4.097-0.576,5.796-1.579c0.118,0.17,0.241,0.335,0.367,0.497c0.039,0.05,0.08,0.099,0.119,0.146
	c0.092,0.114,0.186,0.227,0.281,0.336c0.045,0.054,0.091,0.104,0.137,0.156c0.102,0.111,0.204,0.22,0.309,0.327
	c0.041,0.042,0.08,0.084,0.121,0.124c0.146,0.146,0.294,0.287,0.447,0.424c0.021,0.021,0.047,0.039,0.068,0.06
	c0.133,0.115,0.268,0.229,0.403,0.34c0.052,0.041,0.104,0.081,0.156,0.121c0.115,0.089,0.23,0.175,0.348,0.259
	c0.057,0.04,0.111,0.079,0.168,0.118c0.132,0.091,0.265,0.177,0.398,0.262c0.041,0.026,0.082,0.053,0.123,0.078
	c0.177,0.107,0.354,0.211,0.538,0.309c0.042,0.023,0.085,0.043,0.128,0.065c0.143,0.074,0.285,0.146,0.432,0.215
	c0.047,0.021,0.094,0.044,0.142,0.065h-0.093v23.366h2.414h2.413v-22.354c5.203-0.014,9.587-3.503,10.956-8.27
	c6.051-0.295,10.867-5.294,10.867-11.418C179.01,574.434,173.891,569.316,167.577,569.316z"/>
<path opacity="0.3" fill="#36895B" enable-background="new    " d="M99.153,545.608c-1.194,0-2.349,0.185-3.433,0.524
	c-0.339-5.283-4.267-9.588-9.37-10.506v-0.004c-0.74-0.214-2.035-0.181-2.035-0.181c-6.313,0-11.434,5.118-11.434,11.433
	c0,1.277,0.213,2.506,0.6,3.652c-6.283,0.035-11.367,5.139-11.367,11.431c0,6.314,5.118,11.434,11.434,11.434
	c2.116,0,4.097-0.576,5.796-1.579c0.118,0.17,0.241,0.335,0.367,0.497c0.039,0.05,0.08,0.099,0.119,0.146
	c0.092,0.114,0.186,0.227,0.28,0.336c0.045,0.054,0.092,0.104,0.138,0.156c0.102,0.111,0.204,0.22,0.309,0.327
	c0.041,0.042,0.08,0.084,0.121,0.124c0.145,0.146,0.294,0.287,0.447,0.424c0.021,0.021,0.047,0.039,0.067,0.06
	c0.134,0.115,0.269,0.229,0.404,0.34c0.052,0.041,0.104,0.081,0.156,0.121c0.115,0.089,0.229,0.175,0.348,0.259
	c0.056,0.04,0.111,0.079,0.168,0.118c0.131,0.091,0.265,0.177,0.398,0.262c0.041,0.026,0.082,0.053,0.123,0.078
	c0.177,0.107,0.354,0.211,0.538,0.309c0.042,0.023,0.085,0.043,0.128,0.065c0.143,0.074,0.285,0.146,0.432,0.215
	c0.047,0.021,0.094,0.044,0.141,0.065h-0.092v23.366h2.414h2.413v-22.354c5.203-0.014,9.587-3.503,10.956-8.269
	c6.051-0.296,10.867-5.295,10.867-11.419C110.586,550.726,105.467,545.608,99.153,545.608z"/>
<g opacity="0.3">
	<path fill="#36895B" d="M322.28,30.924c-1.339,2.875-1.339,11.743-1.361,13.261l0.022,3.44l1.777-0.007l-0.013-3.276
		c0.404-2.794,0.163-2.818,4.506-3.584c11.018-1.956,9.315-16.939,9.315-16.939S325.584,23.857,322.28,30.924z"/>
	<path fill="#36895B" d="M319.237,35.716v0.003c-0.002-0.101-0.007-0.216-0.012-0.319c-0.003-0.137-0.009-0.277-0.014-0.419
		c-0.018-0.459-0.039-0.938-0.066-1.438c-0.003-0.097-0.01-0.189-0.014-0.288c-0.013-0.225-0.028-0.448-0.042-0.679
		c-0.018-0.24-0.034-0.48-0.052-0.725c-0.013-0.176-0.024-0.347-0.038-0.521c-0.036-0.427-0.076-0.852-0.12-1.271
		c-0.009-0.089-0.021-0.173-0.029-0.263c-0.042-0.382-0.091-0.757-0.143-1.123c-0.011-0.077-0.021-0.153-0.032-0.229
		c-0.064-0.433-0.135-0.85-0.213-1.238c-0.004-0.017-0.008-0.032-0.01-0.05c-0.074-0.356-0.153-0.684-0.242-0.989
		c-0.02-0.069-0.041-0.14-0.061-0.208c-0.097-0.31-0.194-0.599-0.309-0.836c-3.36-7.047-14.311-7.002-14.311-7.002
		s-1.593,14.991,9.455,16.874c4.33,0.737,4.104,0.76,4.528,3.551l0.033,9.093l1.789-0.012l-0.043-9.256
		C319.287,37.953,319.274,36.969,319.237,35.716z"/>
	<path fill="#36895B" d="M320.918,20.094c4.339,0,7.854-4.021,7.854-8.979V0l-7.854,5.994L313.063,0v11.115
		C313.063,16.074,316.586,20.094,320.918,20.094z"/>
</g>
<g opacity="0.3">
	<path fill="#36895B" d="M18.829,614.471c-1.341,2.875-1.341,11.743-1.362,13.26l0.021,3.441l1.777-0.008l-0.013-3.275
		c0.405-2.794,0.163-2.819,4.506-3.584c11.018-1.957,9.315-16.94,9.315-16.94S22.133,607.405,18.829,614.471z"/>
	<path fill="#36895B" d="M15.786,619.263v0.002c-0.002-0.1-0.009-0.215-0.013-0.319c-0.004-0.137-0.01-0.276-0.014-0.419
		c-0.018-0.459-0.039-0.938-0.066-1.438c-0.003-0.098-0.01-0.19-0.014-0.288c-0.013-0.226-0.027-0.449-0.041-0.68
		c-0.018-0.239-0.034-0.48-0.053-0.725c-0.012-0.175-0.023-0.346-0.037-0.521c-0.037-0.428-0.076-0.853-0.121-1.271
		c-0.009-0.089-0.02-0.173-0.029-0.262c-0.042-0.382-0.09-0.757-0.143-1.123c-0.01-0.078-0.021-0.154-0.032-0.23
		c-0.063-0.433-0.135-0.85-0.214-1.237c-0.004-0.018-0.008-0.032-0.01-0.051c-0.074-0.355-0.153-0.684-0.242-0.988
		c-0.021-0.07-0.041-0.141-0.062-0.208c-0.096-0.311-0.194-0.6-0.309-0.836c-3.359-7.047-14.31-7.002-14.31-7.002
		s-1.594,14.99,9.455,16.874c4.329,0.736,4.103,0.76,4.527,3.551l0.032,9.092l1.789-0.011l-0.043-9.256
		C15.835,621.5,15.823,620.515,15.786,619.263z"/>
	<path fill="#36895B" d="M17.466,603.641c4.339,0,7.854-4.021,7.854-8.979v-11.114l-7.854,5.993l-7.854-5.993v11.114
		C9.612,599.622,13.134,603.641,17.466,603.641z"/>
</g>
<g opacity="0.3">
	<path fill="#36895B" d="M461.135,572.852c-1.34,2.875-1.34,11.743-1.363,13.26l0.023,3.441l1.776-0.007l-0.014-3.276
		c0.406-2.794,0.164-2.819,4.506-3.584c11.019-1.957,9.316-16.94,9.316-16.94S464.438,565.786,461.135,572.852z"/>
	<path fill="#36895B" d="M458.092,577.644v0.002c-0.003-0.1-0.008-0.215-0.013-0.319c-0.004-0.137-0.01-0.276-0.014-0.419
		c-0.018-0.459-0.039-0.938-0.065-1.438c-0.005-0.098-0.011-0.19-0.015-0.288c-0.014-0.226-0.028-0.449-0.042-0.679
		c-0.017-0.24-0.034-0.481-0.052-0.726c-0.013-0.175-0.024-0.346-0.038-0.521c-0.036-0.428-0.075-0.853-0.12-1.271
		c-0.01-0.089-0.021-0.173-0.029-0.262c-0.043-0.382-0.091-0.757-0.143-1.123c-0.011-0.078-0.02-0.154-0.033-0.23
		c-0.063-0.433-0.135-0.85-0.213-1.237c-0.004-0.018-0.008-0.032-0.01-0.05c-0.074-0.356-0.154-0.685-0.242-0.989
		c-0.02-0.07-0.041-0.141-0.061-0.208c-0.098-0.311-0.195-0.6-0.31-0.836c-3.359-7.047-14.311-7.002-14.311-7.002
		s-1.594,14.99,9.455,16.874c4.33,0.736,4.104,0.76,4.527,3.551l0.032,9.092l1.789-0.011l-0.043-9.256
		C458.141,579.882,458.129,578.896,458.092,577.644z"/>
	<path fill="#36895B" d="M459.771,562.022c4.34,0,7.854-4.021,7.854-8.979v-11.114l-7.854,5.994l-7.854-5.994v11.114
		C451.918,558.003,455.439,562.022,459.771,562.022z"/>
</g>
<g opacity="0.3">
	<path fill="#36895B" d="M502.48,596.117c-1.34,2.875-1.34,11.743-1.363,13.261l0.023,3.44l1.777-0.007l-0.015-3.276
		c0.406-2.794,0.164-2.818,4.506-3.584c11.019-1.957,9.316-16.939,9.316-16.939S505.783,589.051,502.48,596.117z"/>
	<path fill="#36895B" d="M499.438,600.909v0.002c-0.003-0.1-0.008-0.215-0.012-0.318c-0.004-0.138-0.011-0.277-0.015-0.419
		c-0.018-0.459-0.039-0.938-0.065-1.438c-0.004-0.097-0.01-0.189-0.015-0.288c-0.014-0.225-0.027-0.449-0.042-0.679
		c-0.017-0.24-0.033-0.481-0.052-0.725c-0.013-0.176-0.023-0.347-0.038-0.521c-0.036-0.427-0.075-0.852-0.12-1.271
		c-0.01-0.09-0.021-0.174-0.028-0.263c-0.043-0.382-0.091-0.757-0.144-1.123c-0.011-0.078-0.02-0.153-0.032-0.229
		c-0.064-0.434-0.136-0.851-0.214-1.238c-0.004-0.017-0.008-0.032-0.01-0.05c-0.074-0.356-0.154-0.685-0.242-0.989
		c-0.02-0.07-0.041-0.14-0.061-0.208c-0.097-0.31-0.195-0.599-0.31-0.836c-3.359-7.047-14.311-7.002-14.311-7.002
		s-1.593,14.991,9.455,16.874c4.33,0.737,4.104,0.76,4.528,3.551l0.031,9.092l1.789-0.011l-0.043-9.256
		C499.486,603.146,499.475,602.161,499.438,600.909z"/>
	<path fill="#36895B" d="M501.116,585.287c4.34,0,7.854-4.02,7.854-8.979v-11.115l-7.854,5.994l-7.854-5.994v11.115
		C493.264,581.267,496.784,585.287,501.116,585.287z"/>
</g>
<g>
	
		<polyline fill="none" stroke="#36895B" stroke-width="4" stroke-linecap="round" stroke-linejoin="round" stroke-miterlimit="10" points="
		175.989,57.31 181.776,63.697 175.389,69.485 	"/>
	<path fill="none" stroke="#36895B" stroke-width="4" stroke-linecap="round" stroke-linejoin="round" stroke-miterlimit="10" d="
		M181.271,63.954c0,0-18.288-3.031-38.202,0.682"/>
</g>
<g>
	
		<polyline fill="none" stroke="#36895B" stroke-width="4" stroke-linecap="round" stroke-linejoin="round" stroke-miterlimit="10" points="
		883.227,324.6 877.607,331.136 871.07,325.518 	"/>
	<path fill="none" stroke="#36895B" stroke-width="4" stroke-linecap="round" stroke-linejoin="round" stroke-miterlimit="10" d="
		M877.289,330.668c0,0,0.736-18.522-5.419-37.822"/>
</g>
<g>
	
		<polyline fill="none" stroke="#36895B" stroke-width="4" stroke-linecap="round" stroke-linejoin="round" stroke-miterlimit="10" points="
		527.19,147.201 525.21,155.59 516.821,153.611 	"/>
	<path fill="none" stroke="#36895B" stroke-width="4" stroke-linecap="round" stroke-linejoin="round" stroke-miterlimit="10" d="
		M524.714,155.321c0,0-7.874-16.782-22.225-31.081"/>
</g>
<g>
	
		<polyline fill="none" stroke="#36895B" stroke-width="4" stroke-linecap="round" stroke-linejoin="round" stroke-miterlimit="10" points="
		458.586,409.243 453.03,415.834 459.62,421.39 	"/>
	<path fill="none" stroke="#36895B" stroke-width="4" stroke-linecap="round" stroke-linejoin="round" stroke-miterlimit="10" d="
		M453.543,416.073c0,0,18.169-3.683,38.201-0.688"/>
</g>
<g>
	
		<polyline fill="none" stroke="#36895B" stroke-width="4" stroke-linecap="round" stroke-linejoin="round" stroke-miterlimit="10" points="
		724.243,583.431 717.466,578.105 722.791,571.327 	"/>
	<path fill="none" stroke="#36895B" stroke-width="4" stroke-linecap="round" stroke-linejoin="round" stroke-miterlimit="10" d="
		M717.921,577.766c0,0,18.536-0.078,37.547-7.075"/>
</g>
<g>
	
		<polyline fill="none" stroke="#36895B" stroke-width="4" stroke-linecap="round" stroke-linejoin="round" stroke-miterlimit="10" points="
		70.369,403.504 76.008,396.984 82.528,402.624 	"/>
	<path fill="none" stroke="#36895B" stroke-width="4" stroke-linecap="round" stroke-linejoin="round" stroke-miterlimit="10" d="
		M76.326,397.454c0,0-0.797,18.521,5.296,37.841"/>
</g>
</svg>
