<?xml version="1.0" encoding="utf-8"?>
<!-- Generator: Adobe Illustrator 15.0.2, SVG Export Plug-In . SVG Version: 6.00 Build 0)  -->
<!DOCTYPE svg PUBLIC "-//W3C//DTD SVG 1.1//EN" "http://www.w3.org/Graphics/SVG/1.1/DTD/svg11.dtd">
<svg version="1.1" id="Lager_1" xmlns="http://www.w3.org/2000/svg" xmlns:xlink="http://www.w3.org/1999/xlink" x="0px" y="0px"
	 width="885.227px" height="631.183px" viewBox="0 0 885.227 631.183" enable-background="new 0 0 885.227 631.183"
	 xml:space="preserve">
<g>
	<g>
		
			<path fill="none" stroke="#FFFFFF" stroke-width="2.9991" stroke-linecap="round" stroke-linejoin="round" stroke-dasharray="11.9964,11.9964" d="
			M44.347,144.281C-0.006,264.182,95.659,270.12,78.451,378.638C61.241,487.16,182.229,525.489,182.229,525.489
			c150.451,20.871,209.752-108.446,285.098-111.562c112.161-4.639,131.09,108.1,170.046,143.346
			c38.956,35.244,133.412,30.059,198.339-34.867c64.927-64.928,62.253-277.329-27.717-348.749
			c-89.97-71.419-113.911,29.681-193.102,54.724c-79.191,25.043-73.776-113.158-153.543-127.071
			C381.583,87.398,325.778,247.21,325.778,247.21c-18.554,56.326-137.527,45.683-96.749-59.64
			c46.186-119.29-54.814-124.485-54.814-124.485S97.086,49.786,44.347,144.281z"/>
	</g>
	<circle fill="#FFFFFF" cx="32.854" cy="197.364" r="11.493"/>
	<g>
		<path fill="none" stroke="#36895B" stroke-width="4" stroke-linecap="round" stroke-linejoin="round" stroke-miterlimit="10" d="
			M850.76,282.291"/>
		<path fill="none" stroke="#36895B" stroke-width="4" stroke-linecap="round" stroke-linejoin="round" stroke-miterlimit="10" d="
			M862.098,277.808"/>
	</g>
	<g opacity="0.3">
		<g>
			<g>
				<path fill="#36895B" d="M845.168,64.935v-9.384c-0.168-2.793-0.201-2.912-4.664-3.677c-11.411-1.951-9.742-17.438-9.742-17.438
					s11.301-0.028,14.765,7.256c0,0,1.5,3.571,1.5,11.421v11.821H845.168z"/>
			</g>
		</g>
		<g>
			<g>
				<path fill="#36895B" d="M850.554,64.935v-3.463c0.169-2.793,0.201-2.912,4.664-3.677c11.411-1.951,9.743-17.438,9.743-17.438
					s-11.302-0.028-14.766,7.256c0,0-1.5,3.571-1.5,11.421v5.9H850.554z"/>
			</g>
		</g>
	</g>
	<g opacity="0.3">
		<g>
			<g>
				<path fill="#36895B" d="M794.692,80.184V70.8c-0.168-2.793-0.201-2.912-4.664-3.677c-11.411-1.951-9.743-17.438-9.743-17.438
					s11.302-0.028,14.766,7.256c0,0,1.5,3.571,1.5,11.421v11.821H794.692z"/>
			</g>
		</g>
		<g>
			<g>
				<path fill="#36895B" d="M800.078,80.184v-3.463c0.169-2.793,0.201-2.912,4.664-3.677c11.411-1.951,9.743-17.438,9.743-17.438
					s-11.302-0.028-14.766,7.256c0,0-1.5,3.571-1.5,11.421v5.9H800.078z"/>
			</g>
		</g>
	</g>
	<g opacity="0.3">
		<g>
			<g>
				<path fill="#36895B" d="M355.866,76.205v-9.384c-0.168-2.793-0.201-2.912-4.664-3.677c-11.411-1.951-9.742-17.438-9.742-17.438
					s11.301-0.028,14.765,7.256c0,0,1.5,3.571,1.5,11.421v11.821H355.866z"/>
			</g>
		</g>
		<g>
			<g>
				<path fill="#36895B" d="M361.252,76.205v-3.463c0.169-2.793,0.201-2.912,4.664-3.677c11.411-1.951,9.743-17.438,9.743-17.438
					s-11.302-0.028-14.766,7.256c0,0-1.5,3.571-1.5,11.421v5.9H361.252z"/>
			</g>
		</g>
	</g>
	<g opacity="0.3">
		<g>
			<g>
				<path fill="#36895B" d="M304.557,94.165v-9.384c-0.168-2.793-0.201-2.912-4.664-3.677c-11.411-1.951-9.743-17.438-9.743-17.438
					s11.302-0.028,14.766,7.256c0,0,1.5,3.571,1.5,11.421v11.821H304.557z"/>
			</g>
		</g>
		<g>
			<g>
				<path fill="#36895B" d="M309.942,94.165v-3.463c0.169-2.793,0.201-2.912,4.664-3.677c11.411-1.951,9.743-17.438,9.743-17.438
					s-11.302-0.028-14.766,7.256c0,0-1.5,3.571-1.5,11.421v5.9H309.942z"/>
			</g>
		</g>
	</g>
	<path fill="none" stroke="#4AB37F" stroke-width="2" stroke-miterlimit="10" d="M579.038,392.326"/>
	<path fill="none" stroke="#4AB37F" stroke-width="2" stroke-miterlimit="10" d="M192.497,285.331"/>
	<path opacity="0.3" fill="#36895B" d="M167.577,569.316c-1.195,0-2.349,0.185-3.433,0.524c-0.339-5.283-4.267-9.588-9.37-10.506
		v-0.003c-0.74-0.214-2.035-0.181-2.035-0.181c-6.314,0-11.434,5.118-11.434,11.433c0,1.277,0.213,2.505,0.6,3.652
		c-6.283,0.035-11.367,5.139-11.367,11.431c0,6.314,5.118,11.433,11.433,11.433c2.116,0,4.097-0.576,5.796-1.579
		c0.118,0.17,0.241,0.335,0.367,0.497c0.039,0.05,0.08,0.099,0.119,0.147c0.092,0.114,0.186,0.226,0.281,0.336
		c0.045,0.053,0.091,0.104,0.137,0.156c0.102,0.111,0.204,0.22,0.309,0.327c0.041,0.042,0.08,0.084,0.121,0.124
		c0.145,0.146,0.294,0.287,0.447,0.424c0.022,0.021,0.047,0.039,0.068,0.059c0.133,0.116,0.268,0.229,0.404,0.34
		c0.052,0.041,0.104,0.081,0.156,0.121c0.115,0.089,0.23,0.175,0.348,0.259c0.056,0.04,0.111,0.079,0.168,0.118
		c0.131,0.091,0.264,0.177,0.398,0.262c0.041,0.026,0.082,0.053,0.123,0.078c0.177,0.108,0.355,0.211,0.538,0.309
		c0.042,0.023,0.085,0.043,0.128,0.065c0.143,0.074,0.285,0.146,0.432,0.215c0.047,0.021,0.094,0.044,0.141,0.065h-0.092v23.367
		h2.414h2.413v-22.354c5.203-0.014,9.587-3.503,10.956-8.269c6.051-0.295,10.867-5.294,10.867-11.418
		C179.01,574.434,173.891,569.316,167.577,569.316z"/>
	<path opacity="0.3" fill="#36895B" d="M99.153,545.608c-1.195,0-2.349,0.185-3.433,0.524c-0.339-5.283-4.267-9.588-9.37-10.506
		v-0.003c-0.74-0.214-2.035-0.181-2.035-0.181c-6.314,0-11.434,5.118-11.434,11.433c0,1.277,0.213,2.505,0.6,3.652
		c-6.283,0.035-11.367,5.139-11.367,11.431c0,6.314,5.118,11.433,11.433,11.433c2.116,0,4.097-0.576,5.796-1.579
		c0.118,0.17,0.241,0.335,0.367,0.497c0.039,0.05,0.08,0.099,0.119,0.147c0.092,0.114,0.186,0.226,0.281,0.336
		c0.045,0.053,0.091,0.104,0.137,0.156c0.102,0.111,0.204,0.22,0.309,0.327c0.041,0.042,0.08,0.084,0.121,0.124
		c0.145,0.146,0.294,0.287,0.447,0.424c0.022,0.021,0.047,0.039,0.068,0.059c0.133,0.116,0.268,0.229,0.404,0.34
		c0.052,0.041,0.104,0.081,0.156,0.121c0.115,0.089,0.23,0.175,0.348,0.259c0.056,0.04,0.111,0.079,0.168,0.118
		c0.131,0.091,0.264,0.177,0.398,0.262c0.041,0.026,0.082,0.053,0.123,0.078c0.177,0.108,0.355,0.211,0.538,0.309
		c0.042,0.023,0.085,0.043,0.128,0.065c0.143,0.074,0.285,0.146,0.432,0.215c0.047,0.021,0.094,0.044,0.141,0.065h-0.092v23.367
		h2.414h2.413v-22.354c5.203-0.014,9.587-3.503,10.956-8.269c6.051-0.295,10.867-5.294,10.867-11.418
		C110.586,550.726,105.467,545.608,99.153,545.608z"/>
	<g opacity="0.3">
		<path fill="#36895B" d="M322.28,30.924c-1.339,2.875-1.339,11.743-1.362,13.26l0.023,3.441l1.777-0.007l-0.013-3.276
			c0.405-2.794,0.163-2.819,4.506-3.584c11.018-1.957,9.316-16.94,9.316-16.94S325.584,23.857,322.28,30.924z"/>
		<path fill="#36895B" d="M319.237,35.716v0.002c-0.002-0.1-0.007-0.215-0.012-0.319c-0.003-0.137-0.009-0.277-0.014-0.419
			c-0.017-0.459-0.039-0.938-0.066-1.438c-0.003-0.097-0.01-0.19-0.014-0.288c-0.013-0.225-0.028-0.449-0.042-0.679
			c-0.017-0.24-0.034-0.481-0.052-0.725c-0.012-0.175-0.024-0.346-0.038-0.521c-0.036-0.427-0.076-0.852-0.12-1.271
			c-0.009-0.089-0.021-0.173-0.029-0.262c-0.042-0.382-0.091-0.757-0.143-1.123c-0.01-0.078-0.02-0.154-0.032-0.23
			c-0.064-0.433-0.135-0.85-0.213-1.238c-0.004-0.017-0.008-0.032-0.01-0.05c-0.074-0.356-0.153-0.684-0.242-0.989
			c-0.019-0.07-0.041-0.14-0.06-0.208c-0.097-0.31-0.195-0.599-0.309-0.836c-3.36-7.047-14.31-7.002-14.31-7.002
			s-1.593,14.991,9.455,16.874c4.33,0.737,4.103,0.76,4.528,3.551l0.033,9.092l1.789-0.011l-0.043-9.256
			C319.287,37.953,319.274,36.968,319.237,35.716z"/>
		<path fill="#36895B" d="M320.918,20.094c4.339,0,7.854-4.02,7.854-8.979V0l-7.854,5.994L313.063,0v11.115
			C313.063,16.074,316.586,20.094,320.918,20.094z"/>
	</g>
	<g opacity="0.3">
		<path fill="#36895B" d="M18.829,614.471c-1.34,2.875-1.34,11.743-1.362,13.26l0.022,3.441l1.777-0.007l-0.013-3.276
			c0.405-2.794,0.163-2.819,4.506-3.584c11.018-1.957,9.315-16.94,9.315-16.94S22.133,607.405,18.829,614.471z"/>
		<path fill="#36895B" d="M15.786,619.263v0.002c-0.002-0.1-0.008-0.215-0.012-0.319c-0.004-0.137-0.01-0.277-0.014-0.419
			c-0.018-0.459-0.039-0.938-0.066-1.438c-0.003-0.097-0.01-0.19-0.014-0.288c-0.013-0.225-0.027-0.449-0.041-0.679
			c-0.018-0.24-0.034-0.481-0.053-0.725c-0.012-0.175-0.023-0.346-0.037-0.521c-0.037-0.427-0.076-0.852-0.121-1.271
			c-0.009-0.089-0.02-0.173-0.029-0.262c-0.042-0.382-0.09-0.757-0.143-1.123c-0.01-0.078-0.02-0.154-0.032-0.23
			c-0.064-0.433-0.135-0.85-0.214-1.238c-0.004-0.017-0.008-0.032-0.01-0.05c-0.074-0.356-0.153-0.684-0.242-0.989
			c-0.02-0.07-0.041-0.14-0.061-0.208c-0.096-0.31-0.195-0.599-0.309-0.836c-3.359-7.047-14.31-7.002-14.31-7.002
			s-1.593,14.991,9.455,16.874c4.33,0.737,4.103,0.76,4.528,3.551l0.032,9.092l1.789-0.011l-0.043-9.256
			C15.835,621.5,15.823,620.515,15.786,619.263z"/>
		<path fill="#36895B" d="M17.466,603.641c4.339,0,7.854-4.02,7.854-8.979v-11.115l-7.854,5.994l-7.854-5.994v11.115
			C9.612,599.622,13.134,603.641,17.466,603.641z"/>
	</g>
	<g opacity="0.3">
		<path fill="#36895B" d="M461.135,572.852c-1.34,2.875-1.34,11.743-1.363,13.26l0.023,3.441l1.777-0.007l-0.014-3.276
			c0.406-2.794,0.164-2.819,4.506-3.584c11.018-1.957,9.316-16.94,9.316-16.94S464.438,565.786,461.135,572.852z"/>
		<path fill="#36895B" d="M458.092,577.644v0.002c-0.003-0.1-0.008-0.215-0.012-0.319c-0.004-0.137-0.01-0.277-0.014-0.419
			c-0.018-0.459-0.039-0.938-0.066-1.438c-0.004-0.097-0.01-0.19-0.014-0.288c-0.014-0.225-0.028-0.449-0.042-0.679
			c-0.017-0.24-0.034-0.481-0.052-0.725c-0.013-0.175-0.024-0.346-0.038-0.521c-0.036-0.427-0.075-0.852-0.12-1.271
			c-0.01-0.089-0.021-0.173-0.029-0.262c-0.043-0.382-0.091-0.757-0.143-1.123c-0.011-0.078-0.02-0.154-0.033-0.23
			c-0.064-0.433-0.135-0.85-0.213-1.238c-0.004-0.017-0.008-0.032-0.01-0.05c-0.074-0.356-0.154-0.684-0.242-0.989
			c-0.02-0.07-0.041-0.14-0.061-0.208c-0.097-0.31-0.195-0.599-0.309-0.836c-3.36-7.047-14.311-7.002-14.311-7.002
			s-1.593,14.991,9.455,16.874c4.33,0.737,4.104,0.76,4.528,3.551l0.032,9.092l1.789-0.011l-0.043-9.256
			C458.141,579.881,458.129,578.896,458.092,577.644z"/>
		<path fill="#36895B" d="M459.771,562.022c4.34,0,7.854-4.02,7.854-8.979v-11.115l-7.854,5.994l-7.854-5.994v11.115
			C451.918,558.002,455.439,562.022,459.771,562.022z"/>
	</g>
	<g opacity="0.3">
		<path fill="#36895B" d="M502.48,596.117c-1.34,2.875-1.34,11.743-1.363,13.26l0.023,3.441l1.777-0.007l-0.014-3.276
			c0.406-2.794,0.164-2.819,4.506-3.584c11.018-1.957,9.316-16.94,9.316-16.94S505.784,589.05,502.48,596.117z"/>
		<path fill="#36895B" d="M499.438,600.909v0.002c-0.003-0.1-0.008-0.215-0.012-0.319c-0.004-0.137-0.01-0.277-0.014-0.419
			c-0.018-0.459-0.039-0.938-0.066-1.438c-0.004-0.097-0.01-0.19-0.014-0.288c-0.014-0.225-0.028-0.449-0.042-0.679
			c-0.017-0.24-0.034-0.481-0.052-0.725c-0.013-0.175-0.024-0.346-0.038-0.521c-0.036-0.427-0.075-0.852-0.12-1.271
			c-0.01-0.089-0.021-0.173-0.029-0.262c-0.043-0.382-0.091-0.757-0.143-1.123c-0.011-0.078-0.02-0.154-0.033-0.23
			c-0.064-0.433-0.135-0.85-0.213-1.238c-0.004-0.017-0.008-0.032-0.01-0.05c-0.074-0.356-0.154-0.684-0.242-0.989
			c-0.02-0.07-0.041-0.14-0.061-0.208c-0.097-0.31-0.195-0.599-0.309-0.836c-3.36-7.047-14.311-7.002-14.311-7.002
			s-1.593,14.991,9.455,16.874c4.33,0.737,4.104,0.76,4.528,3.551l0.032,9.092l1.789-0.011l-0.043-9.256
			C499.486,603.146,499.475,602.161,499.438,600.909z"/>
		<path fill="#36895B" d="M501.117,585.287c4.34,0,7.854-4.02,7.854-8.979v-11.115l-7.854,5.994l-7.854-5.994v11.115
			C493.264,581.267,496.785,585.287,501.117,585.287z"/>
	</g>
	<g>
		
			<polyline fill="none" stroke="#36895B" stroke-width="4" stroke-linecap="round" stroke-linejoin="round" stroke-miterlimit="10" points="
			175.989,57.31 181.776,63.697 175.389,69.485 		"/>
		<path fill="none" stroke="#36895B" stroke-width="4" stroke-linecap="round" stroke-linejoin="round" stroke-miterlimit="10" d="
			M181.271,63.954c0,0-18.288-3.031-38.202,0.681"/>
	</g>
	<g>
		
			<polyline fill="none" stroke="#36895B" stroke-width="4" stroke-linecap="round" stroke-linejoin="round" stroke-miterlimit="10" points="
			883.227,324.6 877.607,331.136 871.07,325.518 		"/>
		<path fill="none" stroke="#36895B" stroke-width="4" stroke-linecap="round" stroke-linejoin="round" stroke-miterlimit="10" d="
			M877.29,330.667c0,0,0.736-18.522-5.419-37.822"/>
	</g>
	<g>
		
			<polyline fill="none" stroke="#36895B" stroke-width="4" stroke-linecap="round" stroke-linejoin="round" stroke-miterlimit="10" points="
			527.19,147.201 525.21,155.59 516.821,153.611 		"/>
		<path fill="none" stroke="#36895B" stroke-width="4" stroke-linecap="round" stroke-linejoin="round" stroke-miterlimit="10" d="
			M524.714,155.321c0,0-7.874-16.782-22.224-31.081"/>
	</g>
	<g>
		
			<polyline fill="none" stroke="#36895B" stroke-width="4" stroke-linecap="round" stroke-linejoin="round" stroke-miterlimit="10" points="
			458.586,409.243 453.03,415.833 459.621,421.39 		"/>
		<path fill="none" stroke="#36895B" stroke-width="4" stroke-linecap="round" stroke-linejoin="round" stroke-miterlimit="10" d="
			M453.543,416.073c0,0,18.169-3.683,38.202-0.688"/>
	</g>
	<g>
		
			<polyline fill="none" stroke="#36895B" stroke-width="4" stroke-linecap="round" stroke-linejoin="round" stroke-miterlimit="10" points="
			724.244,583.431 717.466,578.105 722.792,571.327 		"/>
		<path fill="none" stroke="#36895B" stroke-width="4" stroke-linecap="round" stroke-linejoin="round" stroke-miterlimit="10" d="
			M717.921,577.766c0,0,18.537-0.078,37.547-7.075"/>
	</g>
	<g>
		
			<polyline fill="none" stroke="#36895B" stroke-width="4" stroke-linecap="round" stroke-linejoin="round" stroke-miterlimit="10" points="
			70.369,403.503 76.008,396.984 82.528,402.624 		"/>
		<path fill="none" stroke="#36895B" stroke-width="4" stroke-linecap="round" stroke-linejoin="round" stroke-miterlimit="10" d="
			M76.326,397.454c0,0-0.796,18.521,5.296,37.84"/>
	</g>
</g>
</svg>
