<?xml version="1.0" encoding="utf-8"?>
<!-- Generator: Adobe Illustrator 15.0.2, SVG Export Plug-In . SVG Version: 6.00 Build 0)  -->
<!DOCTYPE svg PUBLIC "-//W3C//DTD SVG 1.1//EN" "http://www.w3.org/Graphics/SVG/1.1/DTD/svg11.dtd">
<svg version="1.1" id="Lager_1" xmlns="http://www.w3.org/2000/svg" xmlns:xlink="http://www.w3.org/1999/xlink" x="0px" y="0px"
	 width="196.099px" height="198.492px" viewBox="0 0 196.099 198.492" enable-background="new 0 0 196.099 198.492"
	 xml:space="preserve">
<g>
	<rect x="30.375" y="57.064" fill="#4194CD" width="22" height="127"/>
	<rect x="30.375" y="47.001" fill="#1B181B" width="22" height="10.062"/>
	<rect x="1.611" fill="#1B181B" width="79.527" height="8.283"/>
	<rect x="38.375" y="8.283" fill="#FFFFFF" width="6" height="38.719"/>
	<polygon fill="#1B181B" points="52.375,193.46 52.375,184.064 30.375,184.064 30.375,193.46 0,193.46 0,198.492 82.75,198.492 
		82.75,193.46 	"/>
	<rect x="30.375" y="57.064" fill="#2378A7" width="11" height="127"/>
	<g>
		<path fill="#1B181C" d="M151.924,132.254c-2.611,2.95-8.932,8.615-18.052,10.192c-10.361,1.792-20.97-2.121-31.533-11.631
			c-14.139-12.725-25.402-12.544-31.23-8.13c-5.076,3.847-6.405,11.018-3.231,17.444c6.901,13.979,10.517,32.954,3.043,43.833
			c-2.837,4.131-8.598,8.834-19.931,7.793l0.534-5.821c6.834,0.627,11.739-1.148,14.578-5.281
			c5.829-8.484,2.668-25.507-3.467-37.935c-4.431-8.978-2.398-19.131,4.944-24.692c5.907-4.475,15.659-6.01,27.474,0.377
			c3.56,1.924,7.31,4.569,11.197,8.066c8.649,7.787,17.135,11.29,25.221,10.414c10.449-1.136,16.683-9.227,16.739-9.309
			c-0.078,0.107-0.117,0.189-0.139,0.229L151.924,132.254z"/>
		
			<rect x="149.666" y="125.133" transform="matrix(0.7525 -0.6585 0.6585 0.7525 -47.4942 131.4782)" fill="#1B181C" stroke="#1B181C" stroke-width="1.2014" stroke-linecap="round" stroke-linejoin="round" stroke-miterlimit="10" width="3.065" height="7.604"/>
		<polygon fill="#1B181C" points="154.3,129.384 151.144,125.829 161.534,118.2 163.11,119.976 		"/>
		<path fill="#CCE9F8" d="M180.436,114.08c2.551,0.755,5.397,0.474,7.841-1.029c3.789-2.325,5.407-6.83,4.264-10.906
			c3.531-2.242,4.62-6.909,2.423-10.483c-2.217-3.611-6.941-4.738-10.55-2.519c-0.547,0.335-1.025,0.732-1.456,1.169
			c-2.212-1.353-5.08-1.452-7.438,0c-2.577,1.583-3.779,4.544-3.262,7.35c-1.427-0.24-2.94,0.006-4.268,0.824
			c-2.907,1.787-3.816,5.593-2.03,8.502c0.228,0.374-3.368,8.897-3.368,8.897l2.624,2.681L180.436,114.08z"/>
	</g>
</g>
</svg>
