<?xml version="1.0" encoding="utf-8"?>
<!-- Generator: Adobe Illustrator 15.0.2, SVG Export Plug-In . SVG Version: 6.00 Build 0)  -->
<!DOCTYPE svg PUBLIC "-//W3C//DTD SVG 1.1//EN" "http://www.w3.org/Graphics/SVG/1.1/DTD/svg11.dtd">
<svg version="1.1" id="Lager_1" xmlns="http://www.w3.org/2000/svg" xmlns:xlink="http://www.w3.org/1999/xlink" x="0px" y="0px"
	 width="239.362px" height="239.364px" viewBox="0 0 239.362 239.364" enable-background="new 0 0 239.362 239.364"
	 xml:space="preserve">
<g>
	<g>
		<g>
			<g>
				<path fill="#FFDA40" stroke="#FFDA40" stroke-width="1.9249" stroke-miterlimit="10" d="M0.962,119.682
					c0-65.568,53.152-118.719,118.716-118.719c65.572,0,118.721,53.151,118.721,118.719c0,65.565-53.148,118.719-118.721,118.719
					C54.114,238.401,0.962,185.247,0.962,119.682z"/>
				<path fill="#FFCE08" stroke="#FFCE08" stroke-width="1.9249" stroke-miterlimit="10" d="M119.679,238.401
					c-65.564,0-118.716-53.154-118.716-118.719c0-65.568,53.152-118.719,118.716-118.719V238.401z"/>
			</g>
			<g>
				<path fill="#FCC113" stroke="#FCC113" stroke-width="1.6003" stroke-miterlimit="10" d="M218.376,120.303
					c0,54.509-44.186,98.698-98.697,98.698c-54.509,0-98.695-44.188-98.695-98.698s44.186-98.698,98.695-98.698
					C174.19,21.604,218.376,65.793,218.376,120.303z"/>
				<path fill="#F9B618" stroke="#F9B618" stroke-width="1.6003" stroke-miterlimit="10" d="M119.679,219
					c-54.509,0-98.695-44.188-98.695-98.698s44.186-98.698,98.695-98.698V219z"/>
			</g>
		</g>
	</g>
	<g>
		<g>
			<path fill="#FFE576" d="M107.767,187.571v-37.7c-0.677-11.221-0.81-11.698-18.739-14.771
				c-45.845-7.838-39.142-70.056-39.142-70.056s45.402-0.112,59.32,29.15c0,0,6.027,14.348,6.027,45.884v47.493H107.767z"/>
		</g>
	</g>
	<g>
		<g>
			<path fill="#FFDA40" d="M129.405,187.571v-13.913c0.677-11.219,0.807-11.696,18.735-14.771
				c45.846-7.838,39.144-70.055,39.144-70.055s-45.404-0.113-59.321,29.15c0,0-6.024,14.349-6.024,45.883v23.705H129.405z"/>
		</g>
	</g>
</g>
</svg>
