<?xml version="1.0" encoding="utf-8"?>
<!-- Generator: Adobe Illustrator 15.0.2, SVG Export Plug-In . SVG Version: 6.00 Build 0)  -->
<!DOCTYPE svg PUBLIC "-//W3C//DTD SVG 1.1//EN" "http://www.w3.org/Graphics/SVG/1.1/DTD/svg11.dtd">
<svg version="1.1" id="Räkskal" xmlns="http://www.w3.org/2000/svg" xmlns:xlink="http://www.w3.org/1999/xlink" x="0px" y="0px"
	 width="476.974px" height="168.102px" viewBox="0 0 476.974 168.102" enable-background="new 0 0 476.974 168.102"
	 xml:space="preserve">
<g>
	<g>
		
			<path fill="#F2AAC8" stroke="#F2AAC8" stroke-width="1.2341" stroke-linecap="round" stroke-linejoin="round" stroke-miterlimit="10" d="
			M341.159,132.363c4.526,1.479,9.393,2.264,14.516,2.264h1.444c25.702,0,51.98-11.1,51.98-36.861
			c0-25.765-22.645-34.854-51.98-34.854l-42.395-0.005c21.785-16.61,30.029-44.519,31.177-61.232l0.065-0.93h30.392
			c63.78,0,99.999,35.721,99.999,87.765s-45.388,78.976-97.531,78.976c-17.463,0-34.073-4.947-48.281-13.367L341.159,132.363z"/>
	</g>
	<g>
		
			<path fill="#F2AAC8" stroke="#F2AAC8" stroke-width="1.2341" stroke-linecap="round" stroke-linejoin="round" stroke-miterlimit="10" d="
			M166.328,0.664h166.03c0,0-3.905,56.829-53.312,61.864C227.154,67.818,166.328,0.664,166.328,0.664z"/>
	</g>
	<g>
		<circle cx="229.725" cy="17.999" r="6.993"/>
	</g>
	<g>
		
			<line fill="none" stroke="#E77CAB" stroke-width="3.7023" stroke-linecap="round" stroke-miterlimit="10" x1="153.954" y1="1.851" x2="1.851" y2="1.851"/>
	</g>
	<g>
		
			<line fill="none" stroke="#E77CAB" stroke-width="3.7023" stroke-linecap="round" stroke-miterlimit="10" x1="153.954" y1="19.108" x2="53.683" y2="19.108"/>
	</g>
	<g>
		
			<path fill="#E77CAB" stroke="#E77CAB" stroke-width="1.2341" stroke-linecap="round" stroke-linejoin="round" stroke-miterlimit="10" d="
			M320.253,148.43l-77.171-25.203l38.63-17.256c0,0,0,0,48.969,22.68C321.685,146.109,320.253,148.43,320.253,148.43z"/>
	</g>
</g>
</svg>
