<?xml version="1.0" encoding="utf-8"?>
<!-- Generator: Adobe Illustrator 17.0.0, SVG Export Plug-In . SVG Version: 6.00 Build 0)  -->
<!DOCTYPE svg PUBLIC "-//W3C//DTD SVG 1.1//EN" "http://www.w3.org/Graphics/SVG/1.1/DTD/svg11.dtd">
<svg version="1.1" id="Layer_1" xmlns="http://www.w3.org/2000/svg" xmlns:xlink="http://www.w3.org/1999/xlink" x="0px" y="0px"
	 width="177.022px" height="63.399px" viewBox="0 0 177.022 63.399" enable-background="new 0 0 177.022 63.399"
	 xml:space="preserve">
<g>
	<g>
		
			<path fill="#F4AACC" stroke="#F4AACC" stroke-width="1.2341" stroke-linecap="round" stroke-linejoin="round" stroke-miterlimit="10" d="
			M126.67,49.862c1.665,0.544,3.455,0.833,5.34,0.833h0.531c9.455,0,19.122-4.083,19.122-13.56c0-9.478-8.33-12.822-19.122-12.822
			l-15.595-0.002c8.014-6.11,11.047-16.377,11.469-22.525l0.024-0.342h11.18c23.463,0,36.786,13.141,36.786,32.286
			c0,19.145-16.697,29.052-35.878,29.052c-6.424,0-12.534-1.82-17.761-4.917L126.67,49.862z"/>
	</g>
	<g>
		
			<path fill="#F4AACC" stroke="#F4AACC" stroke-width="1.2341" stroke-linecap="round" stroke-linejoin="round" stroke-miterlimit="10" d="
			M62.356,1.414h61.077c0,0-1.437,20.905-19.612,22.758C84.732,26.118,62.356,1.414,62.356,1.414z"/>
	</g>
	<g>
		<circle cx="85.678" cy="7.791" r="2.572"/>
	</g>
	<g>
		
			<line fill="none" stroke="#EA7DAF" stroke-width="3.7023" stroke-linecap="round" stroke-miterlimit="10" x1="57.804" y1="1.851" x2="1.851" y2="1.851"/>
	</g>
	<g>
		
			<line fill="none" stroke="#EA7DAF" stroke-width="3.7023" stroke-linecap="round" stroke-miterlimit="10" x1="57.804" y1="8.199" x2="20.918" y2="8.199"/>
	</g>
	<g>
		
			<path fill="#EA7DAF" stroke="#EA7DAF" stroke-width="1.2341" stroke-linecap="round" stroke-linejoin="round" stroke-miterlimit="10" d="
			M118.98,55.772l-28.388-9.271l14.211-6.348c0,0,0,0,18.014,8.343C119.507,54.919,118.98,55.772,118.98,55.772z"/>
	</g>
</g>
</svg>
