<?xml version="1.0" encoding="utf-8"?>
<!-- Generator: Adobe Illustrator 15.0.2, SVG Export Plug-In . SVG Version: 6.00 Build 0)  -->
<!DOCTYPE svg PUBLIC "-//W3C//DTD SVG 1.1//EN" "http://www.w3.org/Graphics/SVG/1.1/DTD/svg11.dtd">
<svg version="1.1" id="Lager_1" xmlns="http://www.w3.org/2000/svg" xmlns:xlink="http://www.w3.org/1999/xlink" x="0px" y="0px"
	 width="203.532px" height="203.775px" viewBox="0 0 203.532 203.775" enable-background="new 0 0 203.532 203.775"
	 xml:space="preserve">
<g>
	<circle fill="#FFFFFF" stroke="#FAFAFA" stroke-width="0.5063" stroke-miterlimit="10" cx="101.766" cy="101.766" r="101.513"/>
</g>
<g>
	<circle fill="#FFFFFF" stroke="#D8D8D8" stroke-width="0.5063" stroke-miterlimit="10" cx="102.92" cy="101.529" r="56.153"/>
</g>
<g>
	<g>
		<g>
			<g>
				<g>
					<g>
						
							<path fill="#FBC100" stroke="#FBC100" stroke-width="0.852" stroke-linecap="round" stroke-linejoin="round" stroke-miterlimit="10" d="
							M64.387,131.418"/>
					</g>
					<g>
						<g>
							
								<polygon fill="#604C3F" stroke="#604C3F" stroke-width="0.8092" stroke-linecap="round" stroke-linejoin="round" stroke-miterlimit="10" points="
								91.553,42.833 84.808,32.35 91.677,29.957 96.576,37.573 							"/>
						</g>
						<g>
							
								<polygon fill="#786854" stroke="#786854" stroke-width="0.8092" stroke-linecap="round" stroke-linejoin="round" stroke-miterlimit="10" points="
								91.553,42.833 96.576,37.573 91.677,29.957 							"/>
						</g>
					</g>
					<g>
						
							<path fill="#FFD600" stroke="#FFD600" stroke-width="0.852" stroke-linecap="round" stroke-linejoin="round" stroke-miterlimit="10" d="
							M91.87,168.618c-24.86-16.335-34.461-43.055-33.727-66.463c0.733-23.411,12.628-43.84,30.423-56.343l-7.727-11.984
							c-30.533,7.382-53.637,34.408-54.668,67.324c-1.033,32.918,21.357,65.964,60.951,74.1L91.87,168.618z"/>
					</g>
					<g>
						
							<path fill="#FBC100" stroke="#FBC100" stroke-width="0.852" stroke-linecap="round" stroke-linejoin="round" stroke-miterlimit="10" d="
							M87.123,175.251c-38.328-7.668-62.039-39.454-60.951-74.1c1.031-32.916,24.135-59.942,54.668-67.324l3.328,5.164
							c-23.73,11.041-40.51,34.737-41.387,62.681c-0.877,27.945,19.835,60.093,46.486,70.58L87.123,175.251z"/>
					</g>
				</g>
				
					<path fill="#FFEEA8" stroke="#FFEEA8" stroke-width="0.852" stroke-linecap="round" stroke-linejoin="round" stroke-miterlimit="10" d="
					M36.383,128.82c-3.63-8.714-5.394-18.226-5.103-27.509c0.896-28.601,20.152-53.428,47.286-61.575l3.124,4.844
					c-17.57,14.054-27.945,34.716-28.658,57.415c-0.377,12.045,1.842,24.214,6.417,35.195c5.298,12.714,15.438,23.378,26.269,31.764
					c-1.68,3.417,0,0-1.68,3.417c-19.419-6.593-39.958-25.077-47.654-43.548C36.384,128.821,36.384,128.82,36.383,128.82z"/>
			</g>
		</g>
		<g>
			<path fill="none" stroke="#665949" stroke-width="5" stroke-linecap="round" stroke-linejoin="round" stroke-miterlimit="10" d="
				M72.523,45.826c0,0-66.316,49.191-3.584,113.375"/>
			<g>
				
					<rect x="41.436" y="65.103" transform="matrix(0.3525 0.9358 -0.9358 0.3525 100.4955 1.1989)" fill="#554438" stroke="#554438" stroke-width="0.4886" stroke-linecap="round" stroke-linejoin="round" stroke-miterlimit="10" width="15.89" height="16.24"/>
				
					<rect x="43.26" y="67.395" transform="matrix(-0.9358 0.3525 -0.3525 -0.9358 121.4027 124.3396)" fill="#786854" stroke="#786854" stroke-width="0.4886" stroke-linecap="round" stroke-linejoin="round" stroke-miterlimit="10" width="12.242" height="11.654"/>
				
					<polygon fill="#665949" stroke="#665949" stroke-width="0.4886" stroke-linecap="round" stroke-linejoin="round" stroke-miterlimit="10" points="
					45.708,80.833 41.599,69.927 53.055,65.612 				"/>
			</g>
			<g>
				
					<rect x="34.619" y="93.088" transform="matrix(0.6728 0.7398 -0.7398 0.6728 88.8006 1.6243)" fill="#554438" stroke="#554438" stroke-width="0.4886" stroke-linecap="round" stroke-linejoin="round" stroke-miterlimit="10" width="15.89" height="16.24"/>
				
					<rect x="36.443" y="95.381" transform="matrix(-0.7398 0.6729 -0.6729 -0.7398 142.1499 147.4406)" fill="#786854" stroke="#786854" stroke-width="0.4886" stroke-linecap="round" stroke-linejoin="round" stroke-miterlimit="10" width="12.242" height="11.654"/>
				
					<polygon fill="#665949" stroke="#665949" stroke-width="0.4886" stroke-linecap="round" stroke-linejoin="round" stroke-miterlimit="10" points="
					41.957,109.637 34.115,101.016 43.171,92.779 				"/>
			</g>
			<g>
				
					<rect x="41.435" y="121.768" transform="matrix(0.9058 0.4238 -0.4238 0.9058 59.6935 -8.6868)" fill="#554438" stroke="#554438" stroke-width="0.4886" stroke-linecap="round" stroke-linejoin="round" stroke-miterlimit="10" width="15.89" height="16.24"/>
				
					<rect x="43.259" y="124.06" transform="matrix(-0.4237 0.9058 -0.9058 -0.4237 187.9552 140.1928)" fill="#786854" stroke="#786854" stroke-width="0.4886" stroke-linecap="round" stroke-linejoin="round" stroke-miterlimit="10" width="12.243" height="11.654"/>
				
					<polygon fill="#665949" stroke="#665949" stroke-width="0.4886" stroke-linecap="round" stroke-linejoin="round" stroke-miterlimit="10" points="
					52.066,137.901 41.508,132.964 46.696,121.874 				"/>
			</g>
			<g>
				
					<rect x="56.957" y="145.238" transform="matrix(0.9907 0.1362 -0.1362 0.9907 21.4916 -7.4104)" fill="#554438" stroke="#554438" stroke-width="0.4886" stroke-linecap="round" stroke-linejoin="round" stroke-miterlimit="10" width="15.889" height="16.241"/>
				
					<rect x="58.78" y="147.531" transform="matrix(-0.1362 0.9907 -0.9907 -0.1362 225.6727 109.9552)" fill="#786854" stroke="#786854" stroke-width="0.4886" stroke-linecap="round" stroke-linejoin="round" stroke-miterlimit="10" width="12.243" height="11.655"/>
				
					<polygon fill="#665949" stroke="#665949" stroke-width="0.4886" stroke-linecap="round" stroke-linejoin="round" stroke-miterlimit="10" points="
					69.841,160.216 58.294,158.63 59.962,146.501 				"/>
			</g>
			<g>
				
					<rect x="59.163" y="42.748" transform="matrix(0.0656 0.9978 -0.9978 0.0656 113.4619 -19.4336)" fill="#554438" stroke="#554438" stroke-width="0.4886" stroke-linecap="round" stroke-linejoin="round" stroke-miterlimit="10" width="15.89" height="16.24"/>
				
					<rect x="60.987" y="45.041" transform="matrix(-0.9978 0.0657 -0.0657 -0.9978 137.4108 97.221)" fill="#786854" stroke="#786854" stroke-width="0.4886" stroke-linecap="round" stroke-linejoin="round" stroke-miterlimit="10" width="12.241" height="11.654"/>
				
					<polygon fill="#665949" stroke="#665949" stroke-width="0.4886" stroke-linecap="round" stroke-linejoin="round" stroke-miterlimit="10" points="
					61.383,57.085 60.618,45.456 72.833,44.652 				"/>
			</g>
		</g>
	</g>
	<g>
		<g>
			<g>
				<g>
					<g>
						
							<path fill="#FBC100" stroke="#FBC100" stroke-width="0.852" stroke-linecap="round" stroke-linejoin="round" stroke-miterlimit="10" d="
							M127.519,131.418"/>
					</g>
					<g>
						<g>
							
								<polygon fill="#604C3F" stroke="#604C3F" stroke-width="0.8092" stroke-linecap="round" stroke-linejoin="round" stroke-miterlimit="10" points="
								154.685,42.833 147.94,32.35 154.809,29.957 159.708,37.573 							"/>
						</g>
						<g>
							
								<polygon fill="#786854" stroke="#786854" stroke-width="0.8092" stroke-linecap="round" stroke-linejoin="round" stroke-miterlimit="10" points="
								154.685,42.833 159.708,37.573 154.809,29.957 							"/>
						</g>
					</g>
					<g>
						
							<path fill="#FFD600" stroke="#FFD600" stroke-width="0.852" stroke-linecap="round" stroke-linejoin="round" stroke-miterlimit="10" d="
							M155.001,168.618c-24.86-16.335-34.461-43.055-33.727-66.463c0.733-23.411,12.628-43.84,30.423-56.343l-7.727-11.984
							c-30.533,7.382-53.637,34.408-54.668,67.324c-1.033,32.918,21.357,65.964,60.951,74.1L155.001,168.618z"/>
					</g>
					<g>
						
							<path fill="#FBC100" stroke="#FBC100" stroke-width="0.852" stroke-linecap="round" stroke-linejoin="round" stroke-miterlimit="10" d="
							M150.254,175.251c-38.328-7.668-62.039-39.454-60.951-74.1c1.031-32.916,24.135-59.942,54.668-67.324l3.328,5.164
							c-23.73,11.041-40.51,34.737-41.387,62.681c-0.877,27.945,19.835,60.093,46.486,70.58L150.254,175.251z"/>
					</g>
				</g>
				
					<path fill="#FFEEA8" stroke="#FFEEA8" stroke-width="0.852" stroke-linecap="round" stroke-linejoin="round" stroke-miterlimit="10" d="
					M99.515,128.82c-3.63-8.714-5.394-18.226-5.103-27.509c0.896-28.601,20.152-53.428,47.286-61.575l3.124,4.844
					c-17.57,14.054-27.945,34.716-28.658,57.415c-0.377,12.045,1.842,24.214,6.417,35.195c5.298,12.714,15.438,23.378,26.269,31.764
					c-1.68,3.417,0,0-1.68,3.417c-19.419-6.593-39.958-25.077-47.654-43.548C99.516,128.821,99.516,128.82,99.515,128.82z"/>
			</g>
		</g>
		<g>
			<path fill="none" stroke="#665949" stroke-width="5" stroke-linecap="round" stroke-linejoin="round" stroke-miterlimit="10" d="
				M135.655,45.826c0,0-66.316,49.191-3.584,113.375"/>
			<g>
				
					<rect x="104.568" y="65.103" transform="matrix(0.3525 0.9358 -0.9358 0.3525 141.3723 -57.8802)" fill="#554438" stroke="#554438" stroke-width="0.4886" stroke-linecap="round" stroke-linejoin="round" stroke-miterlimit="10" width="15.89" height="16.24"/>
				
					<rect x="106.392" y="67.395" transform="matrix(-0.9358 0.3525 -0.3525 -0.9358 243.6146 102.087)" fill="#786854" stroke="#786854" stroke-width="0.4886" stroke-linecap="round" stroke-linejoin="round" stroke-miterlimit="10" width="12.242" height="11.654"/>
				
					<polygon fill="#665949" stroke="#665949" stroke-width="0.4886" stroke-linecap="round" stroke-linejoin="round" stroke-miterlimit="10" points="
					108.839,80.833 104.731,69.927 116.187,65.612 				"/>
			</g>
			<g>
				
					<rect x="97.751" y="93.088" transform="matrix(0.6728 0.7398 -0.7398 0.6728 109.4561 -45.0811)" fill="#554438" stroke="#554438" stroke-width="0.4886" stroke-linecap="round" stroke-linejoin="round" stroke-miterlimit="10" width="15.89" height="16.24"/>
				
					<rect x="99.575" y="95.381" transform="matrix(-0.7398 0.6729 -0.6729 -0.7398 251.9853 104.9623)" fill="#786854" stroke="#786854" stroke-width="0.4886" stroke-linecap="round" stroke-linejoin="round" stroke-miterlimit="10" width="12.242" height="11.654"/>
				
					<polygon fill="#665949" stroke="#665949" stroke-width="0.4886" stroke-linecap="round" stroke-linejoin="round" stroke-miterlimit="10" points="
					105.088,109.637 97.247,101.016 106.303,92.779 				"/>
			</g>
			<g>
				
					<rect x="104.567" y="121.768" transform="matrix(0.9058 0.4238 -0.4238 0.9058 65.642 -35.4393)" fill="#554438" stroke="#554438" stroke-width="0.4886" stroke-linecap="round" stroke-linejoin="round" stroke-miterlimit="10" width="15.89" height="16.24"/>
				
					<rect x="106.391" y="124.06" transform="matrix(-0.4237 0.9058 -0.9058 -0.4237 277.8363 83.008)" fill="#786854" stroke="#786854" stroke-width="0.4886" stroke-linecap="round" stroke-linejoin="round" stroke-miterlimit="10" width="12.243" height="11.654"/>
				
					<polygon fill="#665949" stroke="#665949" stroke-width="0.4886" stroke-linecap="round" stroke-linejoin="round" stroke-miterlimit="10" points="
					115.198,137.901 104.64,132.964 109.828,121.874 				"/>
			</g>
			<g>
				
					<rect x="120.089" y="145.238" transform="matrix(0.9907 0.1362 -0.1362 0.9907 22.0799 -16.0087)" fill="#554438" stroke="#554438" stroke-width="0.4886" stroke-linecap="round" stroke-linejoin="round" stroke-miterlimit="10" width="15.889" height="16.241"/>
				
					<rect x="121.912" y="147.531" transform="matrix(-0.1362 0.9907 -0.9907 -0.1362 297.4055 47.412)" fill="#786854" stroke="#786854" stroke-width="0.4886" stroke-linecap="round" stroke-linejoin="round" stroke-miterlimit="10" width="12.243" height="11.655"/>
				
					<polygon fill="#665949" stroke="#665949" stroke-width="0.4886" stroke-linecap="round" stroke-linejoin="round" stroke-miterlimit="10" points="
					132.973,160.216 121.426,158.63 123.094,146.501 				"/>
			</g>
			<g>
				
					<rect x="122.295" y="42.748" transform="matrix(0.0656 0.9978 -0.9978 0.0656 172.4501 -82.4293)" fill="#554438" stroke="#554438" stroke-width="0.4886" stroke-linecap="round" stroke-linejoin="round" stroke-miterlimit="10" width="15.89" height="16.24"/>
				
					<rect x="124.119" y="45.041" transform="matrix(-0.9978 0.0657 -0.0657 -0.9978 263.5383 93.0761)" fill="#786854" stroke="#786854" stroke-width="0.4886" stroke-linecap="round" stroke-linejoin="round" stroke-miterlimit="10" width="12.241" height="11.654"/>
				
					<polygon fill="#665949" stroke="#665949" stroke-width="0.4886" stroke-linecap="round" stroke-linejoin="round" stroke-miterlimit="10" points="
					124.515,57.085 123.75,45.456 135.964,44.652 				"/>
			</g>
		</g>
	</g>
</g>
</svg>
