<?xml version="1.0" encoding="utf-8"?>
<!-- Generator: Adobe Illustrator 15.0.2, SVG Export Plug-In . SVG Version: 6.00 Build 0)  -->
<!DOCTYPE svg PUBLIC "-//W3C//DTD SVG 1.1//EN" "http://www.w3.org/Graphics/SVG/1.1/DTD/svg11.dtd">
<svg version="1.1" id="Lager_1" xmlns="http://www.w3.org/2000/svg" xmlns:xlink="http://www.w3.org/1999/xlink" x="0px" y="0px"
	 width="205.073px" height="205.073px" viewBox="0 0 205.073 205.073" enable-background="new 0 0 205.073 205.073"
	 xml:space="preserve">
<g>
	<circle fill="#FFE093" cx="102.536" cy="102.536" r="102.536"/>
	<circle fill="#E94E1B" cx="102.537" cy="102.537" r="91.321"/>
	<path fill="#DD3914" d="M102.536,193.857c-50.434,0-91.32-40.887-91.32-91.321c0-50.436,40.886-91.321,91.32-91.321V193.857z"/>
	<g>
		<g>
			
				<path fill="#FFD600" stroke="#FFD600" stroke-width="0.2392" stroke-linecap="round" stroke-linejoin="round" stroke-miterlimit="10" d="
				M25.67,111.151l30.051,30.065l20.429-20.418l-30.05-30.066L25.67,111.151z M35.18,109.248c0.646-0.646,1.695-0.646,2.341,0.001
				s0.646,1.694,0,2.341c-0.647,0.647-1.694,0.646-2.341,0C34.534,110.943,34.533,109.895,35.18,109.248z M58.916,131.149
				c-1.512,1.512-3.964,1.511-5.476-0.001c-1.511-1.512-1.51-3.963,0.001-5.477c1.512-1.51,3.964-1.509,5.475,0.002
				C60.429,127.188,60.428,129.639,58.916,131.149z M49.316,119.729c-1.013,1.011-2.65,1.011-3.661,0
				c-1.011-1.012-1.011-2.65,0.001-3.662c1.01-1.01,2.65-1.01,3.661,0.002S50.327,118.72,49.316,119.729z M62.354,119.104
				c-0.646,0.646-1.694,0.646-2.339,0.001c-0.647-0.647-0.647-1.695,0-2.342c0.647-0.646,1.695-0.645,2.341,0.001
				C63.001,117.411,63.002,118.458,62.354,119.104z M51.093,107.837c-1.356,1.356-3.552,1.355-4.908,0
				c-1.356-1.357-1.355-3.553,0.001-4.909c1.355-1.355,3.553-1.354,4.907,0.001C52.449,104.284,52.449,106.481,51.093,107.837z"/>
			<g>
				
					<path fill="#FDC100" stroke="#FDC100" stroke-width="0.2392" stroke-linecap="round" stroke-linejoin="round" stroke-miterlimit="10" d="
					M47.442,115.312l1.042,0.2C48.153,115.373,47.797,115.307,47.442,115.312z"/>
				
					<path fill="#FDC100" stroke="#FDC100" stroke-width="0.2392" stroke-linecap="round" stroke-linejoin="round" stroke-miterlimit="10" d="
					M62.81,118.248c-0.06,0.314-0.211,0.614-0.455,0.855c-0.646,0.646-1.694,0.646-2.339,0.001
					c-0.402-0.402-0.554-0.959-0.456-1.477l-11.075-2.116c0.303,0.126,0.586,0.312,0.832,0.558c1.011,1.012,1.01,2.65,0,3.66
					c-1.013,1.011-2.65,1.011-3.661,0c-1.011-1.012-1.011-2.65,0.001-3.662c0.494-0.494,1.139-0.744,1.786-0.756l-21.772-4.16
					l30.051,30.065l20.429-20.418L62.81,118.248z M58.916,131.149c-1.512,1.512-3.964,1.511-5.476-0.001
					c-1.511-1.512-1.51-3.963,0.001-5.477c1.512-1.51,3.964-1.509,5.475,0.002C60.429,127.188,60.428,129.639,58.916,131.149z"/>
			</g>
		</g>
		<g>
			
				<path fill="#FFD600" stroke="#FFD600" stroke-width="0.2392" stroke-linecap="round" stroke-linejoin="round" stroke-miterlimit="10" d="
				M65.385,150.867l30.051,30.065l20.429-20.419l-30.05-30.065L65.385,150.867z M74.895,148.964
				c0.646-0.646,1.695-0.646,2.341,0.001c0.646,0.646,0.646,1.693,0,2.341c-0.646,0.646-1.694,0.646-2.34,0
				C74.25,150.659,74.249,149.61,74.895,148.964z M98.63,170.864c-1.512,1.513-3.964,1.512-5.476-0.001
				c-1.51-1.511-1.51-3.963,0.002-5.476c1.512-1.511,3.964-1.51,5.475,0.001C100.145,166.902,100.144,169.354,98.63,170.864z
				 M89.032,159.445c-1.013,1.011-2.651,1.01-3.662-0.001s-1.01-2.649,0.001-3.661c1.01-1.01,2.649-1.01,3.661,0.002
				C90.043,156.797,90.042,158.435,89.032,159.445z M102.071,158.819c-0.646,0.646-1.695,0.646-2.34,0.001
				c-0.647-0.648-0.647-1.696-0.002-2.342c0.647-0.646,1.695-0.645,2.343,0.001C102.717,157.127,102.717,158.174,102.071,158.819z
				 M90.808,147.552c-1.356,1.356-3.552,1.356-4.907,0.001c-1.356-1.358-1.354-3.554,0.002-4.909c1.355-1.355,3.552-1.354,4.906,0
				C92.165,143.999,92.164,146.196,90.808,147.552z"/>
			<g>
				
					<path fill="#FDC100" stroke="#FDC100" stroke-width="0.2392" stroke-linecap="round" stroke-linejoin="round" stroke-miterlimit="10" d="
					M87.158,155.027l1.042,0.199C87.869,155.089,87.513,155.022,87.158,155.027z"/>
				
					<path fill="#FDC100" stroke="#FDC100" stroke-width="0.2392" stroke-linecap="round" stroke-linejoin="round" stroke-miterlimit="10" d="
					M102.525,157.964c-0.06,0.313-0.211,0.612-0.454,0.855c-0.646,0.646-1.695,0.646-2.34,0.001
					c-0.402-0.404-0.555-0.959-0.457-1.477L88.2,155.227c0.303,0.127,0.586,0.312,0.833,0.559c1.011,1.012,1.01,2.649,0,3.66
					c-1.013,1.011-2.651,1.01-3.662-0.001s-1.01-2.649,0.001-3.661c0.494-0.494,1.138-0.744,1.786-0.756l-21.772-4.16l30.051,30.065
					l20.429-20.419L102.525,157.964z M98.63,170.864c-1.512,1.513-3.964,1.512-5.476-0.001c-1.51-1.511-1.51-3.963,0.002-5.476
					c1.512-1.511,3.964-1.51,5.475,0.001C100.145,166.902,100.144,169.354,98.63,170.864z"/>
			</g>
		</g>
		<g>
			
				<path fill="#FFD600" stroke="#FFD600" stroke-width="0.2392" stroke-linecap="round" stroke-linejoin="round" stroke-miterlimit="10" d="
				M92.705,44.118l30.05,30.065l20.43-20.419l-30.052-30.065L92.705,44.118z M102.214,42.214c0.646-0.646,1.694-0.645,2.34,0.001
				c0.646,0.646,0.646,1.695,0,2.342c-0.646,0.646-1.694,0.646-2.341,0C101.567,43.91,101.568,42.86,102.214,42.214z M125.95,64.115
				c-1.513,1.512-3.964,1.511-5.476-0.001c-1.511-1.511-1.51-3.962,0.001-5.476c1.513-1.51,3.965-1.51,5.476,0.001
				C127.463,60.153,127.462,62.604,125.95,64.115z M116.35,52.696c-1.013,1.011-2.649,1.01-3.661-0.001
				c-1.011-1.011-1.011-2.649,0.002-3.662c1.009-1.009,2.649-1.01,3.66,0.002C117.361,50.047,117.361,51.685,116.35,52.696z
				 M129.388,52.07c-0.646,0.646-1.694,0.646-2.339,0c-0.647-0.647-0.648-1.695-0.001-2.342c0.647-0.646,1.695-0.645,2.342,0.001
				C130.036,50.377,130.036,51.425,129.388,52.07z M118.127,40.803c-1.356,1.356-3.553,1.356-4.908,0
				c-1.355-1.358-1.354-3.553,0.002-4.909c1.354-1.355,3.553-1.354,4.906,0.001C119.483,37.25,119.483,39.447,118.127,40.803z"/>
			<g>
				
					<path fill="#FDC100" stroke="#FDC100" stroke-width="0.2392" stroke-linecap="round" stroke-linejoin="round" stroke-miterlimit="10" d="
					M114.476,48.278l1.042,0.2C115.187,48.34,114.832,48.273,114.476,48.278z"/>
				
					<path fill="#FDC100" stroke="#FDC100" stroke-width="0.2392" stroke-linecap="round" stroke-linejoin="round" stroke-miterlimit="10" d="
					M129.843,51.214c-0.06,0.314-0.211,0.614-0.455,0.855c-0.646,0.646-1.694,0.646-2.339,0c-0.402-0.402-0.554-0.958-0.456-1.477
					l-11.075-2.116c0.304,0.126,0.587,0.311,0.833,0.558c1.01,1.011,1.01,2.649-0.001,3.66c-1.013,1.011-2.649,1.01-3.661-0.001
					c-1.011-1.011-1.011-2.649,0.002-3.662c0.493-0.494,1.138-0.744,1.785-0.755l-21.771-4.16l30.05,30.065l20.43-20.419
					L129.843,51.214z M125.95,64.115c-1.513,1.512-3.964,1.511-5.476-0.001c-1.511-1.511-1.51-3.962,0.001-5.476
					c1.513-1.51,3.965-1.51,5.476,0.001C127.463,60.153,127.462,62.604,125.95,64.115z"/>
			</g>
		</g>
		<g>
			
				<path fill="#FFD600" stroke="#FFD600" stroke-width="0.2392" stroke-linecap="round" stroke-linejoin="round" stroke-miterlimit="10" d="
				M132.419,83.833l30.051,30.066l20.429-20.419l-30.051-30.064L132.419,83.833z M141.929,81.929
				c0.646-0.646,1.694-0.645,2.341,0.001c0.646,0.646,0.646,1.694-0.001,2.341c-0.646,0.646-1.694,0.646-2.34,0
				C141.283,83.625,141.283,82.576,141.929,81.929z M165.665,103.83c-1.513,1.513-3.964,1.511-5.476,0
				c-1.511-1.511-1.51-3.963,0.002-5.477c1.512-1.511,3.964-1.51,5.475,0.001C167.178,99.869,167.178,102.319,165.665,103.83z
				 M156.066,92.412c-1.013,1.01-2.65,1.01-3.661-0.001c-1.011-1.011-1.011-2.649,0.001-3.661c1.01-1.009,2.65-1.01,3.661,0.002
				C157.077,89.763,157.077,91.401,156.066,92.412z M169.104,91.785c-0.646,0.646-1.695,0.647-2.339,0.001
				c-0.647-0.648-0.648-1.695-0.002-2.342c0.646-0.646,1.695-0.644,2.343,0.001C169.75,90.093,169.75,91.14,169.104,91.785z
				 M157.842,80.518c-1.356,1.356-3.553,1.356-4.908,0c-1.355-1.358-1.354-3.553,0.002-4.909c1.355-1.354,3.553-1.353,4.906,0.001
				C159.198,76.966,159.197,79.163,157.842,80.518z"/>
			<g>
				
					<path fill="#FDC100" stroke="#FDC100" stroke-width="0.2392" stroke-linecap="round" stroke-linejoin="round" stroke-miterlimit="10" d="
					M154.192,87.994l1.042,0.2C154.903,88.055,154.547,87.988,154.192,87.994z"/>
				
					<path fill="#FDC100" stroke="#FDC100" stroke-width="0.2392" stroke-linecap="round" stroke-linejoin="round" stroke-miterlimit="10" d="
					M169.558,90.931c-0.06,0.313-0.21,0.612-0.454,0.854c-0.646,0.646-1.695,0.647-2.339,0.001
					c-0.403-0.403-0.556-0.958-0.457-1.477l-11.074-2.116c0.304,0.126,0.586,0.312,0.833,0.558c1.01,1.012,1.01,2.65-0.001,3.661
					c-1.013,1.01-2.65,1.01-3.661-0.001c-1.011-1.011-1.011-2.649,0.001-3.661c0.494-0.494,1.139-0.744,1.786-0.755l-21.772-4.161
					l30.051,30.066l20.429-20.419L169.558,90.931z M165.665,103.83c-1.513,1.513-3.964,1.511-5.476,0
					c-1.511-1.511-1.51-3.963,0.002-5.477c1.512-1.511,3.964-1.51,5.475,0.001C167.178,99.869,167.178,102.319,165.665,103.83z"/>
			</g>
		</g>
		<g>
			
				<path fill="#FFD600" stroke="#FFD600" stroke-width="0.2392" stroke-linecap="round" stroke-linejoin="round" stroke-miterlimit="10" d="
				M35.847,55.121l30.051,30.065l20.428-20.418l-30.05-30.065L35.847,55.121z M45.357,53.217c0.646-0.646,1.695-0.645,2.341,0.001
				c0.646,0.646,0.646,1.693-0.001,2.34s-1.694,0.646-2.34,0C44.711,54.913,44.711,53.864,45.357,53.217z M69.092,75.118
				c-1.512,1.512-3.964,1.511-5.475,0c-1.51-1.512-1.51-3.963,0.001-5.476c1.513-1.512,3.964-1.51,5.476,0.001
				C70.607,71.156,70.606,73.607,69.092,75.118z M59.494,63.7c-1.012,1.009-2.65,1.009-3.661-0.001
				c-1.011-1.011-1.01-2.649,0.001-3.661c1.01-1.01,2.649-1.01,3.661,0.001C60.505,61.05,60.505,62.688,59.494,63.7z M72.532,63.073
				c-0.646,0.646-1.695,0.647-2.339,0.001c-0.647-0.648-0.647-1.696-0.001-2.342c0.647-0.646,1.695-0.645,2.342,0.001
				C73.18,61.38,73.18,62.427,72.532,63.073z M61.271,51.805c-1.356,1.356-3.552,1.356-4.908,0
				c-1.356-1.357-1.354-3.553,0.002-4.909c1.355-1.355,3.552-1.354,4.906,0C62.627,48.253,62.625,50.45,61.271,51.805z"/>
			<g>
				
					<path fill="#FDC100" stroke="#FDC100" stroke-width="0.2392" stroke-linecap="round" stroke-linejoin="round" stroke-miterlimit="10" d="
					M57.62,59.282l1.043,0.199C58.331,59.342,57.975,59.275,57.62,59.282z"/>
				
					<path fill="#FDC100" stroke="#FDC100" stroke-width="0.2392" stroke-linecap="round" stroke-linejoin="round" stroke-miterlimit="10" d="
					M72.987,62.218c-0.06,0.313-0.21,0.612-0.455,0.855c-0.646,0.646-1.695,0.647-2.339,0.001c-0.402-0.404-0.555-0.959-0.457-1.477
					L58.663,59.48c0.302,0.127,0.586,0.312,0.833,0.558c1.01,1.011,1.01,2.65-0.001,3.661c-1.012,1.009-2.65,1.009-3.661-0.001
					c-1.011-1.011-1.01-2.649,0.001-3.661c0.494-0.495,1.139-0.745,1.786-0.755l-21.772-4.161l30.051,30.065l20.428-20.418
					L72.987,62.218z M69.092,75.118c-1.512,1.512-3.964,1.511-5.475,0c-1.51-1.512-1.51-3.963,0.001-5.476
					c1.513-1.512,3.964-1.51,5.476,0.001C70.607,71.156,70.606,73.607,69.092,75.118z"/>
			</g>
		</g>
		<g>
			
				<path fill="#FFD600" stroke="#FFD600" stroke-width="0.2392" stroke-linecap="round" stroke-linejoin="round" stroke-miterlimit="10" d="
				M76.773,94.662l30.051,30.065l20.429-20.418L97.203,74.243L76.773,94.662z M86.283,92.758c0.646-0.646,1.695-0.645,2.341,0.001
				c0.646,0.646,0.646,1.693-0.001,2.34s-1.694,0.646-2.34,0C85.638,94.454,85.637,93.405,86.283,92.758z M110.019,114.66
				c-1.512,1.512-3.964,1.511-5.476-0.002c-1.511-1.511-1.51-3.962,0.001-5.476c1.514-1.511,3.965-1.51,5.476,0.001
				C111.534,110.697,111.533,113.149,110.019,114.66z M100.42,103.24c-1.013,1.01-2.65,1.01-3.662-0.001
				c-1.011-1.011-1.01-2.649,0.002-3.661c1.01-1.01,2.649-1.01,3.661,0.001C101.431,100.591,101.431,102.229,100.42,103.24z
				 M113.458,102.614c-0.646,0.646-1.694,0.648-2.339,0.002c-0.646-0.648-0.648-1.697-0.002-2.343
				c0.647-0.645,1.696-0.644,2.343,0.002C114.106,100.922,114.106,101.969,113.458,102.614z M102.197,91.346
				c-1.356,1.356-3.552,1.356-4.907,0c-1.356-1.357-1.354-3.553,0.002-4.909c1.354-1.355,3.552-1.354,4.906,0
				C103.553,87.794,103.551,89.991,102.197,91.346z"/>
			<g>
				
					<path fill="#FDC100" stroke="#FDC100" stroke-width="0.2392" stroke-linecap="round" stroke-linejoin="round" stroke-miterlimit="10" d="
					M98.546,98.823l1.042,0.199C99.257,98.883,98.902,98.816,98.546,98.823z"/>
				
					<path fill="#FDC100" stroke="#FDC100" stroke-width="0.2392" stroke-linecap="round" stroke-linejoin="round" stroke-miterlimit="10" d="
					M113.913,101.759c-0.059,0.313-0.21,0.613-0.454,0.855c-0.646,0.646-1.694,0.648-2.339,0.002
					c-0.402-0.404-0.555-0.959-0.456-1.477l-11.075-2.117c0.303,0.127,0.587,0.312,0.833,0.558c1.01,1.011,1.01,2.65-0.001,3.661
					c-1.013,1.01-2.65,1.01-3.662-0.001c-1.011-1.011-1.01-2.649,0.002-3.661c0.494-0.495,1.139-0.745,1.786-0.755l-21.773-4.161
					l30.051,30.065l20.429-20.418L113.913,101.759z M110.019,114.66c-1.512,1.512-3.964,1.511-5.476-0.002
					c-1.511-1.511-1.51-3.962,0.001-5.476c1.514-1.511,3.965-1.51,5.476,0.001C111.534,110.697,111.533,113.149,110.019,114.66z"/>
			</g>
		</g>
		<g>
			
				<path fill="#FFD600" stroke="#FFD600" stroke-width="0.2392" stroke-linecap="round" stroke-linejoin="round" stroke-miterlimit="10" d="
				M117.295,134.607l30.051,30.064l20.429-20.418l-30.05-30.064L117.295,134.607z M126.805,132.704
				c0.646-0.646,1.694-0.645,2.341,0.002c0.646,0.645,0.646,1.692-0.001,2.34c-0.646,0.647-1.694,0.646-2.34,0.001
				C126.16,134.399,126.159,133.351,126.805,132.704z M150.541,154.605c-1.513,1.512-3.964,1.511-5.476-0.002
				c-1.511-1.511-1.51-3.962,0.001-5.476c1.514-1.511,3.965-1.51,5.476,0.001C152.055,150.643,152.054,153.095,150.541,154.605z
				 M140.942,143.187c-1.013,1.01-2.65,1.01-3.661-0.001s-1.011-2.649,0.001-3.661c1.011-1.011,2.649-1.012,3.661,0.001
				C141.954,140.537,141.953,142.176,140.942,143.187z M153.98,142.559c-0.646,0.646-1.694,0.648-2.339,0.003
				c-0.647-0.648-0.648-1.697-0.002-2.344c0.647-0.645,1.695-0.644,2.343,0.002C154.627,140.867,154.627,141.914,153.98,142.559z
				 M142.718,131.292c-1.355,1.356-3.552,1.356-4.908,0c-1.355-1.356-1.354-3.552,0.003-4.908c1.355-1.354,3.553-1.354,4.905,0
				C144.075,127.74,144.074,129.938,142.718,131.292z"/>
			<g>
				
					<path fill="#FDC100" stroke="#FDC100" stroke-width="0.2392" stroke-linecap="round" stroke-linejoin="round" stroke-miterlimit="10" d="
					M139.068,138.769l1.042,0.198C139.779,138.829,139.422,138.762,139.068,138.769z"/>
				
					<path fill="#FDC100" stroke="#FDC100" stroke-width="0.2392" stroke-linecap="round" stroke-linejoin="round" stroke-miterlimit="10" d="
					M154.434,141.704c-0.06,0.313-0.21,0.613-0.454,0.854c-0.646,0.646-1.694,0.648-2.339,0.003
					c-0.402-0.404-0.555-0.96-0.457-1.478l-11.074-2.117c0.303,0.128,0.586,0.312,0.833,0.559c1.011,1.012,1.01,2.65-0.001,3.661
					c-1.013,1.01-2.65,1.01-3.661-0.001s-1.011-2.649,0.001-3.661c0.495-0.495,1.139-0.746,1.786-0.756l-21.772-4.161l30.051,30.064
					l20.429-20.418L154.434,141.704z M150.541,154.605c-1.513,1.512-3.964,1.511-5.476-0.002c-1.511-1.511-1.51-3.962,0.001-5.476
					c1.514-1.511,3.965-1.51,5.476,0.001C152.055,150.643,152.054,153.095,150.541,154.605z"/>
			</g>
		</g>
	</g>
</g>
</svg>
