<?xml version="1.0" encoding="utf-8"?>
<!-- Generator: Adobe Illustrator 15.0.2, SVG Export Plug-In . SVG Version: 6.00 Build 0)  -->
<!DOCTYPE svg PUBLIC "-//W3C//DTD SVG 1.1//EN" "http://www.w3.org/Graphics/SVG/1.1/DTD/svg11.dtd">
<svg version="1.1" id="Lager_1" xmlns="http://www.w3.org/2000/svg" xmlns:xlink="http://www.w3.org/1999/xlink" x="0px" y="0px"
	 width="206.072px" height="206.073px" viewBox="0 0 206.072 206.073" enable-background="new 0 0 206.072 206.073"
	 xml:space="preserve">
<g>
	<circle fill="#575756" stroke="#575756" stroke-miterlimit="10" cx="103.036" cy="103.036" r="102.536"/>
	<path fill="#FFEFAF" d="M103.037,199.573c-53.23,0-96.537-43.307-96.537-96.537C6.5,49.806,49.807,6.5,103.037,6.5
		c53.229,0,96.535,43.306,96.535,96.536C199.572,156.267,156.267,199.573,103.037,199.573z"/>
	<path fill="#FFEC9C" d="M103.037,199.573c-53.23,0-96.537-43.307-96.537-96.537C6.5,49.806,49.807,6.5,103.037,6.5V199.573z"/>
	<g>
		
			<rect x="70.64" y="57.666" transform="matrix(0.8197 0.5729 -0.5729 0.8197 51.0952 -37.783)" fill="#FFD600" stroke="#FFD600" stroke-width="0.7154" stroke-linecap="round" stroke-linejoin="round" stroke-miterlimit="10" width="29.832" height="9.189"/>
		
			<rect x="72.452" y="58.236" transform="matrix(0.8197 0.5729 -0.5729 0.8197 49.9372 -39.2882)" fill="#FDC100" stroke="#FDC100" stroke-width="0.4204" stroke-linecap="round" stroke-linejoin="round" stroke-miterlimit="10" width="29.832" height="2.865"/>
	</g>
	<g>
		
			<rect x="120.786" y="97.918" transform="matrix(-0.4228 0.9062 -0.9062 -0.4228 285.9799 22.8855)" fill="#FFD600" stroke="#FFD600" stroke-width="0.7154" stroke-linecap="round" stroke-linejoin="round" stroke-miterlimit="10" width="29.832" height="9.189"/>
		
			<rect x="123.652" y="102.417" transform="matrix(-0.4229 0.9062 -0.9062 -0.4229 291.27 22.1929)" fill="#FDC100" stroke="#FDC100" stroke-width="0.4204" stroke-linecap="round" stroke-linejoin="round" stroke-miterlimit="10" width="29.831" height="2.864"/>
	</g>
	<g>
		
			<rect x="68.555" y="16.462" transform="matrix(-0.9414 0.3373 -0.3373 -0.9414 169.1528 12.7215)" fill="#FFD600" stroke="#FFD600" stroke-width="0.7154" stroke-linecap="round" stroke-linejoin="round" stroke-miterlimit="10" width="29.832" height="9.189"/>
		
			<rect x="69.623" y="22.601" transform="matrix(-0.9414 0.3373 -0.3373 -0.9414 172.2282 18.1411)" fill="#FDC100" stroke="#FDC100" stroke-width="0.4204" stroke-linecap="round" stroke-linejoin="round" stroke-miterlimit="10" width="29.831" height="2.865"/>
	</g>
	<g>
		
			<rect x="133.775" y="164.803" transform="matrix(-0.8566 0.516 -0.516 -0.8566 363.4644 237.7849)" fill="#FFD600" stroke="#FFD600" stroke-width="0.7154" stroke-linecap="round" stroke-linejoin="round" stroke-miterlimit="10" width="29.832" height="9.189"/>
		
			<rect x="135.407" y="170.674" transform="matrix(-0.8566 0.516 -0.516 -0.8566 367.8908 241.9739)" fill="#FDC100" stroke="#FDC100" stroke-width="0.4204" stroke-linecap="round" stroke-linejoin="round" stroke-miterlimit="10" width="29.831" height="2.864"/>
	</g>
	<g>
		
			<rect x="20.445" y="90.361" fill="#FFD600" stroke="#FFD600" stroke-width="0.7154" stroke-linecap="round" stroke-linejoin="round" stroke-miterlimit="10" width="29.832" height="9.189"/>
		
			<rect x="20.443" y="90.36" fill="#FDC100" stroke="#FDC100" stroke-width="0.4204" stroke-linecap="round" stroke-linejoin="round" stroke-miterlimit="10" width="29.832" height="2.865"/>
	</g>
	<path fill="none" stroke="#FFD600" stroke-width="6.7645" stroke-linejoin="round" stroke-miterlimit="10" d="M126.88,79.886
		c-3.17,3.317-8.431,3.437-11.748,0.266c-3.313-3.171-3.435-8.43-0.265-11.745"/>
	<path fill="none" stroke="#FFD600" stroke-width="6.7645" stroke-linejoin="round" stroke-miterlimit="10" d="M75.009,88.074
		c4.024,2.203,5.5,7.251,3.296,11.274c-2.203,4.026-7.25,5.502-11.277,3.299"/>
	<path fill="none" stroke="#FFD600" stroke-width="6.7645" stroke-linejoin="round" stroke-miterlimit="10" d="M29.267,124.372
		c-3.937-2.354-5.218-7.456-2.86-11.392c2.356-3.938,7.456-5.22,11.396-2.863"/>
	<path fill="none" stroke="#FFD600" stroke-width="6.7645" stroke-linejoin="round" stroke-miterlimit="10" d="M133.101,160.123
		c-2.831-3.607-2.202-8.832,1.411-11.662c3.609-2.83,8.831-2.197,11.662,1.41"/>
	<path fill="none" stroke="#FFD600" stroke-width="6.7645" stroke-linejoin="round" stroke-miterlimit="10" d="M45.133,48.725
		c-0.943-4.488,1.933-8.895,6.425-9.834c4.489-0.941,8.892,1.937,9.834,6.424"/>
	<path fill="none" stroke="#FFD600" stroke-width="6.7645" stroke-linejoin="round" stroke-miterlimit="10" d="M118.188,138.451
		c-2.831-3.607-2.202-8.832,1.411-11.662c3.609-2.83,8.831-2.197,11.662,1.41"/>
	<path fill="none" stroke="#FFD600" stroke-width="6.7645" stroke-linejoin="round" stroke-miterlimit="10" d="M26.243,61.564
		c3.798,2.571,4.794,7.738,2.218,11.536c-2.572,3.797-7.738,4.79-11.536,2.219"/>
	<path fill="none" stroke="#FFD600" stroke-width="6.7645" stroke-linejoin="round" stroke-miterlimit="10" d="M176.744,93.267
		c-2.356-3.935-1.079-9.038,2.86-11.395c3.936-2.355,9.037-1.074,11.394,2.861"/>
	<path fill="none" stroke="#FFD600" stroke-width="6.7645" stroke-linejoin="round" stroke-miterlimit="10" d="M164.779,48.371
		c3.787-2.587,8.958-1.616,11.545,2.176c2.586,3.788,1.61,8.957-2.177,11.544"/>
	<path fill="none" stroke="#FFD600" stroke-width="6.7645" stroke-linejoin="round" stroke-miterlimit="10" d="M178.367,127.712
		c4.303,1.586,6.51,6.362,4.92,10.668c-1.587,4.304-6.363,6.505-10.668,4.92"/>
	<path fill="none" stroke="#FFD600" stroke-width="6.7645" stroke-linejoin="round" stroke-miterlimit="10" d="M120.385,17.531
		c3.787-2.587,8.958-1.616,11.545,2.176c2.586,3.788,1.61,8.957-2.177,11.544"/>
	<g>
		
			<polygon fill="#FFD600" stroke="#FFD600" stroke-width="0.7154" stroke-linecap="round" stroke-linejoin="round" stroke-miterlimit="10" points="
			73.177,160.602 85.557,155.771 84.071,158.4 85.557,160.305 84.071,162.439 85.557,164.482 84.071,166.479 85.557,168.428 
			84.071,170.518 85.557,172.787 73.177,167.959 60.797,172.787 62.282,170.518 60.797,168.428 62.282,166.479 60.797,164.482 
			62.282,162.439 60.797,160.305 62.282,158.4 60.797,155.771 		"/>
		
			<polygon fill="#FDC100" stroke="#FDC100" stroke-width="0.4204" stroke-linecap="round" stroke-linejoin="round" stroke-miterlimit="10" points="
			85.557,164.482 84.071,166.479 85.557,168.428 84.071,170.518 85.557,172.787 73.177,167.959 60.797,172.787 62.282,170.518 
			60.797,168.428 62.282,166.479 60.797,164.482 		"/>
	</g>
	<g>
		
			<polygon fill="#FFD600" stroke="#FFD600" stroke-width="0.7154" stroke-linecap="round" stroke-linejoin="round" stroke-miterlimit="10" points="
			175.608,103.028 188.638,105.64 185.969,107.052 186.192,109.456 183.79,110.452 183.938,112.974 181.61,113.854 181.81,116.296 
			179.434,117.255 179.46,119.966 171.639,109.222 158.611,106.608 161.086,105.499 160.963,102.938 163.265,102.099 
			163.091,99.616 165.444,98.698 165.344,96.099 167.622,95.298 167.789,92.283 		"/>
		
			<polygon fill="#FDC100" stroke="#FDC100" stroke-width="0.4204" stroke-linecap="round" stroke-linejoin="round" stroke-miterlimit="10" points="
			183.938,112.974 181.61,113.854 181.81,116.296 179.434,117.255 179.46,119.966 171.639,109.222 158.611,106.608 161.086,105.499 
			160.963,102.938 163.265,102.099 163.091,99.616 		"/>
	</g>
	<g>
		
			<polygon fill="#FFD600" stroke="#FFD600" stroke-width="0.7154" stroke-linecap="round" stroke-linejoin="round" stroke-miterlimit="10" points="
			40.766,144.588 53.173,149.346 50.306,150.291 50.124,152.698 47.588,153.278 47.312,155.789 44.869,156.267 44.656,158.707 
			42.153,159.255 41.725,161.932 35.814,150.028 23.409,145.27 26.035,144.591 26.343,142.045 28.752,141.604 28.997,139.127 
			31.471,138.616 31.808,136.036 34.188,135.629 34.858,132.685 		"/>
		
			<polygon fill="#FDC100" stroke="#FDC100" stroke-width="0.4204" stroke-linecap="round" stroke-linejoin="round" stroke-miterlimit="10" points="
			47.312,155.789 44.869,156.267 44.656,158.707 42.153,159.255 41.725,161.932 35.814,150.028 23.409,145.27 26.035,144.591 
			26.343,142.045 28.752,141.604 28.997,139.127 		"/>
	</g>
	<g>
		
			<polygon fill="#FFD600" stroke="#FFD600" stroke-width="0.7154" stroke-linecap="round" stroke-linejoin="round" stroke-miterlimit="10" points="
			90.889,121.335 103.918,123.945 101.249,125.357 101.473,127.762 99.07,128.758 99.219,131.279 96.891,132.16 97.09,134.602 
			94.714,135.561 94.74,138.271 86.919,127.527 73.892,124.914 76.366,123.805 76.243,121.246 78.545,120.406 78.371,117.924 
			80.725,117.005 80.624,114.405 82.902,113.604 83.069,110.59 		"/>
		
			<polygon fill="#FDC100" stroke="#FDC100" stroke-width="0.4204" stroke-linecap="round" stroke-linejoin="round" stroke-miterlimit="10" points="
			99.219,131.279 96.891,132.16 97.09,134.602 94.714,135.561 94.74,138.271 86.919,127.527 73.892,124.914 76.366,123.805 
			76.243,121.246 78.545,120.406 78.371,117.924 		"/>
	</g>
	<g>
		
			<polygon fill="#FFD600" stroke="#FFD600" stroke-width="0.7154" stroke-linecap="round" stroke-linejoin="round" stroke-miterlimit="10" points="
			138.883,41.36 147.604,31.335 147.509,34.352 149.708,35.348 149.384,37.929 151.647,39.049 151.261,41.506 153.48,42.543 
			153.135,45.083 155.505,46.402 142.298,47.876 133.576,57.901 133.839,55.202 131.554,54.042 131.964,51.625 129.722,50.547 
			130.088,48.048 127.78,46.846 128.212,44.471 125.675,42.833 		"/>
		
			<polygon fill="#FDC100" stroke="#FDC100" stroke-width="0.4204" stroke-linecap="round" stroke-linejoin="round" stroke-miterlimit="10" points="
			151.647,39.049 151.261,41.506 153.48,42.543 153.135,45.083 155.505,46.402 142.298,47.876 133.576,57.901 133.839,55.202 
			131.554,54.042 131.964,51.625 129.722,50.547 		"/>
	</g>
	<g>
		<g>
			
				<circle fill="#006633" stroke="#006633" stroke-width="0.4244" stroke-linecap="round" stroke-linejoin="round" stroke-miterlimit="10" cx="98.588" cy="148.457" r="7.071"/>
		</g>
		<g>
			
				<path fill="#3AAA35" stroke="#3AAA35" stroke-width="0.4244" stroke-linecap="round" stroke-linejoin="round" stroke-miterlimit="10" d="
				M111.675,146.59"/>
		</g>
		<g>
			
				<path fill="#3AAA35" stroke="#3AAA35" stroke-width="0.4244" stroke-linecap="round" stroke-linejoin="round" stroke-miterlimit="10" d="
				M105.547,150.305"/>
		</g>
		<g>
			
				<circle fill="#006633" stroke="#006633" stroke-width="0.4244" stroke-linecap="round" stroke-linejoin="round" stroke-miterlimit="10" cx="95.977" cy="160.48" r="7.071"/>
		</g>
		<g>
			
				<path fill="#044924" stroke="#044924" stroke-width="0.4244" stroke-linecap="round" stroke-linejoin="round" stroke-miterlimit="10" d="
				M107.875,155.238c2.025,3.34,0.959,7.688-2.38,9.713c-3.34,2.023-7.688,0.959-9.713-2.383c-2.024-3.336-0.96-7.686,2.381-9.711
				C101.502,150.834,105.852,151.9,107.875,155.238z"/>
		</g>
		<g>
			
				<circle fill="#006633" stroke="#006633" stroke-width="0.4244" stroke-linecap="round" stroke-linejoin="round" stroke-miterlimit="10" cx="112.651" cy="148.2" r="7.071"/>
		</g>
		<g>
			
				<circle fill="#044924" stroke="#044924" stroke-width="0.4244" stroke-linecap="round" stroke-linejoin="round" stroke-miterlimit="10" cx="111.621" cy="154.205" r="7.071"/>
		</g>
		<g>
			
				<polygon fill="#95C11F" stroke="#95C11F" stroke-width="0.4727" stroke-linecap="round" stroke-linejoin="round" stroke-miterlimit="10" points="
				118.749,172.969 116.108,168.615 115.053,161.631 113.502,162.568 114.57,168.803 111.52,163.771 110.961,164.109 
				110.684,164.279 110.125,164.617 113.175,169.648 108.141,165.82 106.592,166.76 112.296,170.926 114.937,175.281 			"/>
		</g>
		<g>
			
				<circle fill="#006633" stroke="#006633" stroke-width="0.4244" stroke-linecap="round" stroke-linejoin="round" stroke-miterlimit="10" cx="107.407" cy="147.254" r="7.071"/>
		</g>
		<g>
			
				<circle fill="#006633" stroke="#006633" stroke-width="0.4244" stroke-linecap="round" stroke-linejoin="round" stroke-miterlimit="10" cx="109.433" cy="150.594" r="7.071"/>
		</g>
		<g>
			
				<circle fill="#006633" stroke="#006633" stroke-width="0.4244" stroke-linecap="round" stroke-linejoin="round" stroke-miterlimit="10" cx="101.062" cy="155.227" r="7.071"/>
		</g>
		<g>
			
				<path fill="#3AAA35" stroke="#3AAA35" stroke-width="0.4244" stroke-linecap="round" stroke-linejoin="round" stroke-miterlimit="10" d="
				M110.489,147.309"/>
		</g>
		<g>
			
				<path fill="#3AAA35" stroke="#3AAA35" stroke-width="0.4244" stroke-linecap="round" stroke-linejoin="round" stroke-miterlimit="10" d="
				M104.361,151.023"/>
		</g>
		<g>
			<g>
				<polygon fill="#79AA22" points="114.937,175.281 112.296,170.926 106.592,166.76 108.141,165.82 113.175,169.648 
					110.125,164.617 110.684,164.279 116.704,174.209 				"/>
			</g>
			<g>
				<path fill="#79AA22" d="M117.021,174.293l-1.962,1.188c-0.111,0.068-0.257,0.033-0.325-0.08l-2.615-4.311l-5.666-4.139
					c-0.064-0.047-0.1-0.121-0.097-0.201c0.003-0.078,0.046-0.152,0.113-0.193l1.55-0.939c0.083-0.049,0.188-0.045,0.266,0.014
					l4.044,3.076l-2.405-3.967c-0.067-0.113-0.032-0.256,0.079-0.324l0.753-0.457L117.021,174.293z M115.016,174.955l1.363-0.826
					l-5.775-9.527l-0.153,0.096l2.927,4.828c0.06,0.098,0.041,0.223-0.045,0.299c-0.085,0.074-0.21,0.082-0.3,0.012l-4.905-3.73
					l-1.11,0.672l5.419,3.957c0.026,0.02,0.047,0.043,0.063,0.068L115.016,174.955z"/>
			</g>
		</g>
	</g>
	<g>
		<g>
			
				<circle fill="#006633" stroke="#006633" stroke-width="0.4244" stroke-linecap="round" stroke-linejoin="round" stroke-miterlimit="10" cx="96.311" cy="93.304" r="7.072"/>
		</g>
		<g>
			
				<path fill="#3AAA35" stroke="#3AAA35" stroke-width="0.4244" stroke-linecap="round" stroke-linejoin="round" stroke-miterlimit="10" d="
				M109.397,91.437"/>
		</g>
		<g>
			
				<path fill="#3AAA35" stroke="#3AAA35" stroke-width="0.4244" stroke-linecap="round" stroke-linejoin="round" stroke-miterlimit="10" d="
				M103.27,95.152"/>
		</g>
		<g>
			
				<circle fill="#006633" stroke="#006633" stroke-width="0.4244" stroke-linecap="round" stroke-linejoin="round" stroke-miterlimit="10" cx="93.699" cy="105.326" r="7.071"/>
		</g>
		<g>
			
				<circle fill="#044924" stroke="#044924" stroke-width="0.4244" stroke-linecap="round" stroke-linejoin="round" stroke-miterlimit="10" cx="99.551" cy="103.751" r="7.071"/>
		</g>
		<g>
			
				<circle fill="#006633" stroke="#006633" stroke-width="0.4244" stroke-linecap="round" stroke-linejoin="round" stroke-miterlimit="10" cx="110.374" cy="93.047" r="7.071"/>
		</g>
		<g>
			
				<circle fill="#044924" stroke="#044924" stroke-width="0.4244" stroke-linecap="round" stroke-linejoin="round" stroke-miterlimit="10" cx="109.344" cy="99.052" r="7.072"/>
		</g>
		<g>
			
				<polygon fill="#95C11F" stroke="#95C11F" stroke-width="0.4727" stroke-linecap="round" stroke-linejoin="round" stroke-miterlimit="10" points="
				116.471,117.814 113.831,113.463 112.775,106.477 111.225,107.416 112.293,113.648 109.242,108.617 108.684,108.957 
				108.406,109.127 107.847,109.463 110.897,114.496 105.863,110.666 104.313,111.607 110.019,115.773 112.659,120.127 			"/>
		</g>
		<g>
			
				<circle fill="#006633" stroke="#006633" stroke-width="0.4244" stroke-linecap="round" stroke-linejoin="round" stroke-miterlimit="10" cx="105.129" cy="92.1" r="7.071"/>
		</g>
		<g>
			
				<circle fill="#006633" stroke="#006633" stroke-width="0.4244" stroke-linecap="round" stroke-linejoin="round" stroke-miterlimit="10" cx="107.155" cy="95.442" r="7.072"/>
		</g>
		<g>
			
				<circle fill="#006633" stroke="#006633" stroke-width="0.4244" stroke-linecap="round" stroke-linejoin="round" stroke-miterlimit="10" cx="98.784" cy="100.074" r="7.071"/>
		</g>
		<g>
			
				<path fill="#3AAA35" stroke="#3AAA35" stroke-width="0.4244" stroke-linecap="round" stroke-linejoin="round" stroke-miterlimit="10" d="
				M108.211,92.156"/>
		</g>
		<g>
			
				<path fill="#3AAA35" stroke="#3AAA35" stroke-width="0.4244" stroke-linecap="round" stroke-linejoin="round" stroke-miterlimit="10" d="
				M102.084,95.872"/>
		</g>
		<g>
			<g>
				<polygon fill="#79AA22" points="112.659,120.127 110.019,115.773 104.313,111.607 105.863,110.666 110.897,114.496 
					107.847,109.463 108.406,109.127 114.427,119.055 				"/>
			</g>
			<g>
				<path fill="#79AA22" d="M114.743,119.139l-1.963,1.189c-0.11,0.068-0.257,0.031-0.324-0.08l-2.615-4.312l-5.667-4.139
					c-0.063-0.045-0.1-0.121-0.096-0.201c0.003-0.078,0.046-0.15,0.113-0.191l1.55-0.939c0.083-0.051,0.188-0.045,0.266,0.014
					l4.044,3.074l-2.405-3.967c-0.067-0.111-0.032-0.256,0.079-0.322l0.752-0.457L114.743,119.139z M112.738,119.803l1.363-0.826
					l-5.775-9.527l-0.154,0.094l2.928,4.83c0.06,0.098,0.041,0.221-0.045,0.299c-0.085,0.074-0.21,0.08-0.3,0.012l-4.905-3.73
					l-1.11,0.672l5.419,3.955c0.025,0.02,0.047,0.043,0.063,0.07L112.738,119.803z"/>
			</g>
		</g>
	</g>
	<g>
		<g>
			
				<circle fill="#006633" stroke="#006633" stroke-width="0.4244" stroke-linecap="round" stroke-linejoin="round" stroke-miterlimit="10" cx="49.764" cy="118.562" r="7.071"/>
		</g>
		<g>
			
				<path fill="#3AAA35" stroke="#3AAA35" stroke-width="0.4244" stroke-linecap="round" stroke-linejoin="round" stroke-miterlimit="10" d="
				M62.851,116.694"/>
		</g>
		<g>
			
				<path fill="#3AAA35" stroke="#3AAA35" stroke-width="0.4244" stroke-linecap="round" stroke-linejoin="round" stroke-miterlimit="10" d="
				M56.723,120.409"/>
		</g>
		<g>
			
				<circle fill="#006633" stroke="#006633" stroke-width="0.4244" stroke-linecap="round" stroke-linejoin="round" stroke-miterlimit="10" cx="47.153" cy="130.585" r="7.071"/>
		</g>
		<g>
			
				<path fill="#044924" stroke="#044924" stroke-width="0.4244" stroke-linecap="round" stroke-linejoin="round" stroke-miterlimit="10" d="
				M59.051,125.343c2.025,3.34,0.959,7.688-2.38,9.713c-3.34,2.023-7.688,0.959-9.713-2.383c-2.024-3.336-0.96-7.686,2.381-9.711
				C52.678,120.938,57.027,122.005,59.051,125.343z"/>
		</g>
		<g>
			
				<circle fill="#006633" stroke="#006633" stroke-width="0.4244" stroke-linecap="round" stroke-linejoin="round" stroke-miterlimit="10" cx="63.827" cy="118.305" r="7.071"/>
		</g>
		<g>
			
				<circle fill="#044924" stroke="#044924" stroke-width="0.4244" stroke-linecap="round" stroke-linejoin="round" stroke-miterlimit="10" cx="62.797" cy="124.31" r="7.071"/>
		</g>
		<g>
			
				<polygon fill="#95C11F" stroke="#95C11F" stroke-width="0.4727" stroke-linecap="round" stroke-linejoin="round" stroke-miterlimit="10" points="
				69.925,143.073 67.284,138.72 66.229,131.735 64.678,132.673 65.746,138.907 62.695,133.876 62.137,134.214 61.859,134.384 
				61.301,134.722 64.351,139.753 59.316,135.925 57.768,136.864 63.472,141.03 66.112,145.386 			"/>
		</g>
		<g>
			
				<circle fill="#006633" stroke="#006633" stroke-width="0.4244" stroke-linecap="round" stroke-linejoin="round" stroke-miterlimit="10" cx="58.583" cy="117.358" r="7.071"/>
		</g>
		<g>
			
				<circle fill="#006633" stroke="#006633" stroke-width="0.4244" stroke-linecap="round" stroke-linejoin="round" stroke-miterlimit="10" cx="60.608" cy="120.698" r="7.071"/>
		</g>
		<g>
			
				<circle fill="#006633" stroke="#006633" stroke-width="0.4244" stroke-linecap="round" stroke-linejoin="round" stroke-miterlimit="10" cx="52.237" cy="125.331" r="7.071"/>
		</g>
		<g>
			
				<path fill="#3AAA35" stroke="#3AAA35" stroke-width="0.4244" stroke-linecap="round" stroke-linejoin="round" stroke-miterlimit="10" d="
				M61.665,117.413"/>
		</g>
		<g>
			
				<path fill="#3AAA35" stroke="#3AAA35" stroke-width="0.4244" stroke-linecap="round" stroke-linejoin="round" stroke-miterlimit="10" d="
				M55.537,121.128"/>
		</g>
		<g>
			<g>
				<polygon fill="#79AA22" points="66.112,145.386 63.472,141.03 57.768,136.864 59.316,135.925 64.351,139.753 61.301,134.722 
					61.859,134.384 67.88,144.313 				"/>
			</g>
			<g>
				<path fill="#79AA22" d="M68.196,144.397l-1.962,1.188c-0.111,0.068-0.257,0.033-0.325-0.08l-2.615-4.311l-5.666-4.139
					c-0.064-0.047-0.1-0.121-0.097-0.201c0.003-0.078,0.046-0.152,0.113-0.193l1.55-0.939c0.083-0.049,0.188-0.045,0.266,0.014
					l4.044,3.076l-2.405-3.967c-0.067-0.113-0.032-0.256,0.079-0.324l0.753-0.457L68.196,144.397z M66.191,145.06l1.363-0.826
					l-5.775-9.527l-0.153,0.096l2.927,4.828c0.06,0.098,0.041,0.223-0.045,0.299c-0.085,0.074-0.21,0.082-0.3,0.012l-4.905-3.73
					l-1.11,0.672l5.419,3.957c0.026,0.02,0.047,0.043,0.063,0.068L66.191,145.06z"/>
			</g>
		</g>
	</g>
	<g>
		<g>
			
				<circle fill="#006633" stroke="#006633" stroke-width="0.4244" stroke-linecap="round" stroke-linejoin="round" stroke-miterlimit="10" cx="47.486" cy="63.408" r="7.072"/>
		</g>
		<g>
			
				<path fill="#3AAA35" stroke="#3AAA35" stroke-width="0.4244" stroke-linecap="round" stroke-linejoin="round" stroke-miterlimit="10" d="
				M60.573,61.542"/>
		</g>
		<g>
			
				<path fill="#3AAA35" stroke="#3AAA35" stroke-width="0.4244" stroke-linecap="round" stroke-linejoin="round" stroke-miterlimit="10" d="
				M54.445,65.257"/>
		</g>
		<g>
			
				<circle fill="#006633" stroke="#006633" stroke-width="0.4244" stroke-linecap="round" stroke-linejoin="round" stroke-miterlimit="10" cx="44.875" cy="75.431" r="7.071"/>
		</g>
		<g>
			
				<circle fill="#044924" stroke="#044924" stroke-width="0.4244" stroke-linecap="round" stroke-linejoin="round" stroke-miterlimit="10" cx="50.727" cy="73.855" r="7.071"/>
		</g>
		<g>
			
				<circle fill="#006633" stroke="#006633" stroke-width="0.4244" stroke-linecap="round" stroke-linejoin="round" stroke-miterlimit="10" cx="61.549" cy="63.151" r="7.071"/>
		</g>
		<g>
			
				<circle fill="#044924" stroke="#044924" stroke-width="0.4244" stroke-linecap="round" stroke-linejoin="round" stroke-miterlimit="10" cx="60.52" cy="69.156" r="7.072"/>
		</g>
		<g>
			
				<polygon fill="#95C11F" stroke="#95C11F" stroke-width="0.4727" stroke-linecap="round" stroke-linejoin="round" stroke-miterlimit="10" points="
				67.646,87.919 65.007,83.567 63.951,76.582 62.4,77.521 63.469,83.753 60.418,78.722 59.859,79.062 59.582,79.231 59.022,79.567 
				62.073,84.601 57.039,80.771 55.489,81.712 61.194,85.878 63.835,90.231 			"/>
		</g>
		<g>
			
				<circle fill="#006633" stroke="#006633" stroke-width="0.4244" stroke-linecap="round" stroke-linejoin="round" stroke-miterlimit="10" cx="56.305" cy="62.205" r="7.071"/>
		</g>
		<g>
			
				<circle fill="#006633" stroke="#006633" stroke-width="0.4244" stroke-linecap="round" stroke-linejoin="round" stroke-miterlimit="10" cx="58.331" cy="65.546" r="7.072"/>
		</g>
		<g>
			
				<circle fill="#006633" stroke="#006633" stroke-width="0.4244" stroke-linecap="round" stroke-linejoin="round" stroke-miterlimit="10" cx="49.96" cy="70.178" r="7.071"/>
		</g>
		<g>
			
				<path fill="#3AAA35" stroke="#3AAA35" stroke-width="0.4244" stroke-linecap="round" stroke-linejoin="round" stroke-miterlimit="10" d="
				M59.387,62.26"/>
		</g>
		<g>
			
				<path fill="#3AAA35" stroke="#3AAA35" stroke-width="0.4244" stroke-linecap="round" stroke-linejoin="round" stroke-miterlimit="10" d="
				M53.26,65.976"/>
		</g>
		<g>
			<g>
				<polygon fill="#79AA22" points="63.835,90.231 61.194,85.878 55.489,81.712 57.039,80.771 62.073,84.601 59.022,79.567 
					59.582,79.231 65.603,89.159 				"/>
			</g>
			<g>
				<path fill="#79AA22" d="M65.919,89.243l-1.963,1.189c-0.11,0.068-0.257,0.031-0.324-0.08l-2.615-4.312l-5.667-4.139
					c-0.063-0.045-0.1-0.121-0.096-0.201c0.003-0.078,0.046-0.15,0.113-0.191l1.55-0.939c0.083-0.051,0.188-0.045,0.266,0.014
					l4.044,3.074l-2.405-3.967c-0.067-0.111-0.032-0.256,0.079-0.322l0.752-0.457L65.919,89.243z M63.914,89.907l1.363-0.826
					l-5.775-9.527l-0.154,0.094l2.928,4.83c0.06,0.098,0.041,0.221-0.045,0.299c-0.085,0.074-0.21,0.08-0.3,0.012l-4.905-3.73
					l-1.11,0.672l5.419,3.955c0.025,0.02,0.047,0.043,0.063,0.07L63.914,89.907z"/>
			</g>
		</g>
	</g>
	<g>
		<g>
			
				<circle fill="#006633" stroke="#006633" stroke-width="0.4244" stroke-linecap="round" stroke-linejoin="round" stroke-miterlimit="10" cx="147.662" cy="118.562" r="7.071"/>
		</g>
		<g>
			
				<path fill="#3AAA35" stroke="#3AAA35" stroke-width="0.4244" stroke-linecap="round" stroke-linejoin="round" stroke-miterlimit="10" d="
				M160.749,116.694"/>
		</g>
		<g>
			
				<path fill="#3AAA35" stroke="#3AAA35" stroke-width="0.4244" stroke-linecap="round" stroke-linejoin="round" stroke-miterlimit="10" d="
				M154.621,120.409"/>
		</g>
		<g>
			
				<circle fill="#006633" stroke="#006633" stroke-width="0.4244" stroke-linecap="round" stroke-linejoin="round" stroke-miterlimit="10" cx="145.051" cy="130.585" r="7.071"/>
		</g>
		<g>
			
				<path fill="#044924" stroke="#044924" stroke-width="0.4244" stroke-linecap="round" stroke-linejoin="round" stroke-miterlimit="10" d="
				M156.949,125.343c2.025,3.34,0.959,7.688-2.38,9.713c-3.34,2.023-7.688,0.959-9.713-2.383c-2.024-3.336-0.96-7.686,2.381-9.711
				C150.576,120.938,154.926,122.005,156.949,125.343z"/>
		</g>
		<g>
			
				<circle fill="#006633" stroke="#006633" stroke-width="0.4244" stroke-linecap="round" stroke-linejoin="round" stroke-miterlimit="10" cx="161.725" cy="118.305" r="7.071"/>
		</g>
		<g>
			
				<circle fill="#044924" stroke="#044924" stroke-width="0.4244" stroke-linecap="round" stroke-linejoin="round" stroke-miterlimit="10" cx="160.695" cy="124.31" r="7.071"/>
		</g>
		<g>
			
				<polygon fill="#95C11F" stroke="#95C11F" stroke-width="0.4727" stroke-linecap="round" stroke-linejoin="round" stroke-miterlimit="10" points="
				167.823,143.073 165.183,138.72 164.127,131.735 162.576,132.673 163.645,138.907 160.594,133.876 160.035,134.214 
				159.758,134.384 159.199,134.722 162.249,139.753 157.215,135.925 155.666,136.864 161.37,141.03 164.011,145.386 			"/>
		</g>
		<g>
			
				<circle fill="#006633" stroke="#006633" stroke-width="0.4244" stroke-linecap="round" stroke-linejoin="round" stroke-miterlimit="10" cx="156.481" cy="117.358" r="7.071"/>
		</g>
		<g>
			
				<circle fill="#006633" stroke="#006633" stroke-width="0.4244" stroke-linecap="round" stroke-linejoin="round" stroke-miterlimit="10" cx="158.507" cy="120.698" r="7.071"/>
		</g>
		<g>
			
				<circle fill="#006633" stroke="#006633" stroke-width="0.4244" stroke-linecap="round" stroke-linejoin="round" stroke-miterlimit="10" cx="150.136" cy="125.331" r="7.071"/>
		</g>
		<g>
			
				<path fill="#3AAA35" stroke="#3AAA35" stroke-width="0.4244" stroke-linecap="round" stroke-linejoin="round" stroke-miterlimit="10" d="
				M159.563,117.413"/>
		</g>
		<g>
			
				<path fill="#3AAA35" stroke="#3AAA35" stroke-width="0.4244" stroke-linecap="round" stroke-linejoin="round" stroke-miterlimit="10" d="
				M153.436,121.128"/>
		</g>
		<g>
			<g>
				<polygon fill="#79AA22" points="164.011,145.386 161.37,141.03 155.666,136.864 157.215,135.925 162.249,139.753 
					159.199,134.722 159.758,134.384 165.778,144.313 				"/>
			</g>
			<g>
				<path fill="#79AA22" d="M166.095,144.397l-1.962,1.188c-0.111,0.068-0.257,0.033-0.325-0.08l-2.615-4.311l-5.666-4.139
					c-0.064-0.047-0.1-0.121-0.097-0.201c0.003-0.078,0.046-0.152,0.113-0.193l1.55-0.939c0.083-0.049,0.188-0.045,0.266,0.014
					l4.044,3.076l-2.405-3.967c-0.067-0.113-0.032-0.256,0.079-0.324l0.753-0.457L166.095,144.397z M164.09,145.06l1.363-0.826
					l-5.775-9.527l-0.153,0.096l2.927,4.828c0.06,0.098,0.041,0.223-0.045,0.299c-0.085,0.074-0.21,0.082-0.3,0.012l-4.905-3.73
					l-1.11,0.672l5.419,3.957c0.026,0.02,0.047,0.043,0.063,0.068L164.09,145.06z"/>
			</g>
		</g>
	</g>
	<g>
		<g>
			
				<circle fill="#006633" stroke="#006633" stroke-width="0.4244" stroke-linecap="round" stroke-linejoin="round" stroke-miterlimit="10" cx="145.385" cy="63.408" r="7.072"/>
		</g>
		<g>
			
				<path fill="#3AAA35" stroke="#3AAA35" stroke-width="0.4244" stroke-linecap="round" stroke-linejoin="round" stroke-miterlimit="10" d="
				M158.472,61.542"/>
		</g>
		<g>
			
				<path fill="#3AAA35" stroke="#3AAA35" stroke-width="0.4244" stroke-linecap="round" stroke-linejoin="round" stroke-miterlimit="10" d="
				M152.344,65.257"/>
		</g>
		<g>
			
				<circle fill="#006633" stroke="#006633" stroke-width="0.4244" stroke-linecap="round" stroke-linejoin="round" stroke-miterlimit="10" cx="142.773" cy="75.431" r="7.071"/>
		</g>
		<g>
			
				<circle fill="#044924" stroke="#044924" stroke-width="0.4244" stroke-linecap="round" stroke-linejoin="round" stroke-miterlimit="10" cx="148.625" cy="73.855" r="7.071"/>
		</g>
		<g>
			
				<circle fill="#006633" stroke="#006633" stroke-width="0.4244" stroke-linecap="round" stroke-linejoin="round" stroke-miterlimit="10" cx="159.448" cy="63.151" r="7.071"/>
		</g>
		<g>
			
				<circle fill="#044924" stroke="#044924" stroke-width="0.4244" stroke-linecap="round" stroke-linejoin="round" stroke-miterlimit="10" cx="158.418" cy="69.156" r="7.072"/>
		</g>
		<g>
			
				<polygon fill="#95C11F" stroke="#95C11F" stroke-width="0.4727" stroke-linecap="round" stroke-linejoin="round" stroke-miterlimit="10" points="
				165.545,87.919 162.905,83.567 161.85,76.582 160.299,77.521 161.367,83.753 158.316,78.722 157.758,79.062 157.48,79.231 
				156.921,79.567 159.972,84.601 154.938,80.771 153.388,81.712 159.093,85.878 161.733,90.231 			"/>
		</g>
		<g>
			
				<circle fill="#006633" stroke="#006633" stroke-width="0.4244" stroke-linecap="round" stroke-linejoin="round" stroke-miterlimit="10" cx="154.203" cy="62.205" r="7.071"/>
		</g>
		<g>
			
				<circle fill="#006633" stroke="#006633" stroke-width="0.4244" stroke-linecap="round" stroke-linejoin="round" stroke-miterlimit="10" cx="156.229" cy="65.546" r="7.072"/>
		</g>
		<g>
			
				<circle fill="#006633" stroke="#006633" stroke-width="0.4244" stroke-linecap="round" stroke-linejoin="round" stroke-miterlimit="10" cx="147.858" cy="70.178" r="7.071"/>
		</g>
		<g>
			
				<path fill="#3AAA35" stroke="#3AAA35" stroke-width="0.4244" stroke-linecap="round" stroke-linejoin="round" stroke-miterlimit="10" d="
				M157.285,62.26"/>
		</g>
		<g>
			
				<path fill="#3AAA35" stroke="#3AAA35" stroke-width="0.4244" stroke-linecap="round" stroke-linejoin="round" stroke-miterlimit="10" d="
				M151.158,65.976"/>
		</g>
		<g>
			<g>
				<polygon fill="#79AA22" points="161.733,90.231 159.093,85.878 153.388,81.712 154.938,80.771 159.972,84.601 156.921,79.567 
					157.48,79.231 163.501,89.159 				"/>
			</g>
			<g>
				<path fill="#79AA22" d="M163.817,89.243l-1.963,1.189c-0.11,0.068-0.257,0.031-0.324-0.08l-2.615-4.312l-5.667-4.139
					c-0.063-0.045-0.1-0.121-0.096-0.201c0.003-0.078,0.046-0.15,0.113-0.191l1.55-0.939c0.083-0.051,0.188-0.045,0.266,0.014
					l4.044,3.074l-2.405-3.967c-0.067-0.111-0.032-0.256,0.079-0.322l0.752-0.457L163.817,89.243z M161.812,89.907l1.363-0.826
					l-5.775-9.527l-0.154,0.094l2.928,4.83c0.06,0.098,0.041,0.221-0.045,0.299c-0.085,0.074-0.21,0.08-0.3,0.012l-4.905-3.73
					l-1.11,0.672l5.419,3.955c0.025,0.02,0.047,0.043,0.063,0.07L161.812,89.907z"/>
			</g>
		</g>
	</g>
	<g>
		<g>
			
				<circle fill="#006633" stroke="#006633" stroke-width="0.4244" stroke-linecap="round" stroke-linejoin="round" stroke-miterlimit="10" cx="96.311" cy="34.508" r="7.072"/>
		</g>
		<g>
			
				<path fill="#3AAA35" stroke="#3AAA35" stroke-width="0.4244" stroke-linecap="round" stroke-linejoin="round" stroke-miterlimit="10" d="
				M109.397,32.641"/>
		</g>
		<g>
			
				<path fill="#3AAA35" stroke="#3AAA35" stroke-width="0.4244" stroke-linecap="round" stroke-linejoin="round" stroke-miterlimit="10" d="
				M103.27,36.357"/>
		</g>
		<g>
			
				<circle fill="#006633" stroke="#006633" stroke-width="0.4244" stroke-linecap="round" stroke-linejoin="round" stroke-miterlimit="10" cx="93.699" cy="46.531" r="7.071"/>
		</g>
		<g>
			
				<circle fill="#044924" stroke="#044924" stroke-width="0.4244" stroke-linecap="round" stroke-linejoin="round" stroke-miterlimit="10" cx="99.551" cy="44.955" r="7.071"/>
		</g>
		<g>
			
				<circle fill="#006633" stroke="#006633" stroke-width="0.4244" stroke-linecap="round" stroke-linejoin="round" stroke-miterlimit="10" cx="110.374" cy="34.251" r="7.071"/>
		</g>
		<g>
			
				<circle fill="#044924" stroke="#044924" stroke-width="0.4244" stroke-linecap="round" stroke-linejoin="round" stroke-miterlimit="10" cx="109.344" cy="40.256" r="7.072"/>
		</g>
		<g>
			
				<polygon fill="#95C11F" stroke="#95C11F" stroke-width="0.4727" stroke-linecap="round" stroke-linejoin="round" stroke-miterlimit="10" points="
				116.471,59.02 113.831,54.667 112.775,47.682 111.225,48.621 112.293,54.854 109.242,49.822 108.684,50.162 108.406,50.331 
				107.847,50.668 110.897,55.7 105.863,51.872 104.313,52.812 110.019,56.978 112.659,61.332 			"/>
		</g>
		<g>
			
				<circle fill="#006633" stroke="#006633" stroke-width="0.4244" stroke-linecap="round" stroke-linejoin="round" stroke-miterlimit="10" cx="105.129" cy="33.305" r="7.071"/>
		</g>
		<g>
			
				<circle fill="#006633" stroke="#006633" stroke-width="0.4244" stroke-linecap="round" stroke-linejoin="round" stroke-miterlimit="10" cx="107.155" cy="36.646" r="7.071"/>
		</g>
		<g>
			
				<circle fill="#006633" stroke="#006633" stroke-width="0.4244" stroke-linecap="round" stroke-linejoin="round" stroke-miterlimit="10" cx="98.784" cy="41.278" r="7.071"/>
		</g>
		<g>
			
				<path fill="#3AAA35" stroke="#3AAA35" stroke-width="0.4244" stroke-linecap="round" stroke-linejoin="round" stroke-miterlimit="10" d="
				M108.211,33.36"/>
		</g>
		<g>
			
				<path fill="#3AAA35" stroke="#3AAA35" stroke-width="0.4244" stroke-linecap="round" stroke-linejoin="round" stroke-miterlimit="10" d="
				M102.084,37.076"/>
		</g>
		<g>
			<g>
				<polygon fill="#79AA22" points="112.659,61.332 110.019,56.978 104.313,52.812 105.863,51.872 110.897,55.7 107.847,50.668 
					108.406,50.331 114.427,60.26 				"/>
			</g>
			<g>
				<path fill="#79AA22" d="M114.743,60.344l-1.963,1.189c-0.11,0.067-0.257,0.032-0.324-0.08l-2.615-4.312l-5.667-4.14
					c-0.063-0.046-0.1-0.121-0.096-0.201c0.003-0.078,0.046-0.151,0.113-0.192l1.55-0.94c0.083-0.05,0.188-0.044,0.266,0.014
					l4.044,3.075l-2.405-3.967c-0.067-0.112-0.032-0.256,0.079-0.323l0.752-0.457L114.743,60.344z M112.738,61.006l1.363-0.826
					l-5.775-9.526l-0.154,0.094l2.928,4.829c0.06,0.098,0.041,0.222-0.045,0.298c-0.085,0.075-0.21,0.082-0.3,0.013l-4.905-3.73
					l-1.11,0.671l5.419,3.957c0.025,0.02,0.047,0.042,0.063,0.069L112.738,61.006z"/>
			</g>
		</g>
	</g>
</g>
</svg>
