<?xml version="1.0" encoding="utf-8"?>
<!-- Generator: Adobe Illustrator 15.0.2, SVG Export Plug-In . SVG Version: 6.00 Build 0)  -->
<!DOCTYPE svg PUBLIC "-//W3C//DTD SVG 1.1//EN" "http://www.w3.org/Graphics/SVG/1.1/DTD/svg11.dtd">
<svg version="1.1" id="Lager_1" xmlns="http://www.w3.org/2000/svg" xmlns:xlink="http://www.w3.org/1999/xlink" x="0px" y="0px"
	 width="206.072px" height="206.073px" viewBox="0 0 206.072 206.073" enable-background="new 0 0 206.072 206.073"
	 xml:space="preserve">
<g>
	<circle fill="#58585A" stroke="#58585A" stroke-miterlimit="10" cx="103.036" cy="103.036" r="102.536"/>
	<path fill="#FFEFAF" d="M103.037,199.573c-53.23,0-96.537-43.307-96.537-96.537C6.5,49.806,49.807,6.5,103.037,6.5
		c53.229,0,96.535,43.306,96.535,96.536C199.572,156.267,156.267,199.573,103.037,199.573z"/>
	<path opacity="0.7" fill="#FFE67D" d="M103.037,199.573c-53.23,0-96.537-43.307-96.537-96.537C6.5,49.806,49.807,6.5,103.037,6.5
		V199.573z"/>
	<g>
		<g>
			
				<circle fill="#00632E" stroke="#00632E" stroke-width="0.3859" stroke-linecap="round" stroke-linejoin="round" stroke-miterlimit="10" cx="98.208" cy="146.83" r="6.43"/>
		</g>
		<g>
			
				<path fill="#41A62A" stroke="#41A62A" stroke-width="0.3859" stroke-linecap="round" stroke-linejoin="round" stroke-miterlimit="10" d="
				M110.108,145.132"/>
		</g>
		<g>
			
				<path fill="#41A62A" stroke="#41A62A" stroke-width="0.3859" stroke-linecap="round" stroke-linejoin="round" stroke-miterlimit="10" d="
				M104.536,148.51"/>
		</g>
		<g>
			
				<circle fill="#00632E" stroke="#00632E" stroke-width="0.3859" stroke-linecap="round" stroke-linejoin="round" stroke-miterlimit="10" cx="95.833" cy="157.764" r="6.43"/>
		</g>
		<g>
			
				<path fill="#004721" stroke="#004721" stroke-width="0.3859" stroke-linecap="round" stroke-linejoin="round" stroke-miterlimit="10" d="
				M106.653,152.996c1.842,3.037,0.872,6.991-2.164,8.833c-3.037,1.84-6.991,0.872-8.833-2.167
				c-1.841-3.033-0.873-6.989,2.165-8.831C100.857,148.991,104.813,149.961,106.653,152.996z"/>
		</g>
		<g>
			
				<circle fill="#00632E" stroke="#00632E" stroke-width="0.3859" stroke-linecap="round" stroke-linejoin="round" stroke-miterlimit="10" cx="110.996" cy="146.596" r="6.43"/>
		</g>
		<g>
			
				<circle fill="#004721" stroke="#004721" stroke-width="0.3859" stroke-linecap="round" stroke-linejoin="round" stroke-miterlimit="10" cx="110.06" cy="152.057" r="6.431"/>
		</g>
		<g>
			
				<polygon fill="#97BF0D" stroke="#97BF0D" stroke-width="0.4299" stroke-linecap="round" stroke-linejoin="round" stroke-miterlimit="10" points="
				116.542,169.12 114.141,165.161 113.181,158.81 111.771,159.662 112.741,165.331 109.967,160.756 109.459,161.063 
				109.207,161.218 108.699,161.525 111.473,166.101 106.895,162.619 105.486,163.474 110.673,167.262 113.074,171.223 			"/>
		</g>
		<g>
			
				<circle fill="#00632E" stroke="#00632E" stroke-width="0.3859" stroke-linecap="round" stroke-linejoin="round" stroke-miterlimit="10" cx="106.227" cy="145.735" r="6.43"/>
		</g>
		<g>
			
				<circle fill="#00632E" stroke="#00632E" stroke-width="0.3859" stroke-linecap="round" stroke-linejoin="round" stroke-miterlimit="10" cx="108.069" cy="148.773" r="6.431"/>
		</g>
		<g>
			
				<circle fill="#00632E" stroke="#00632E" stroke-width="0.3859" stroke-linecap="round" stroke-linejoin="round" stroke-miterlimit="10" cx="100.457" cy="152.986" r="6.431"/>
		</g>
		<g>
			
				<path fill="#41A62A" stroke="#41A62A" stroke-width="0.3859" stroke-linecap="round" stroke-linejoin="round" stroke-miterlimit="10" d="
				M109.03,145.785"/>
		</g>
		<g>
			
				<path fill="#41A62A" stroke="#41A62A" stroke-width="0.3859" stroke-linecap="round" stroke-linejoin="round" stroke-miterlimit="10" d="
				M103.458,149.164"/>
		</g>
		<g>
			<g>
				<polygon fill="#7AA718" points="113.074,171.223 110.673,167.262 105.486,163.474 106.895,162.619 111.473,166.101 
					108.699,161.525 109.207,161.218 114.682,170.248 				"/>
			</g>
			<g>
				<path fill="#7AA718" d="M114.97,170.324l-1.784,1.08c-0.102,0.062-0.233,0.03-0.296-0.073l-2.378-3.92l-5.152-3.764
					c-0.059-0.042-0.091-0.109-0.088-0.183c0.003-0.071,0.042-0.139,0.103-0.176l1.409-0.854c0.076-0.044,0.172-0.041,0.242,0.013
					l3.677,2.797l-2.187-3.607c-0.062-0.103-0.029-0.232,0.071-0.294l0.685-0.416L114.97,170.324z M113.146,170.926l1.239-0.751
					l-5.252-8.664l-0.139,0.087l2.661,4.391c0.055,0.089,0.037,0.203-0.041,0.272c-0.077,0.067-0.19,0.074-0.272,0.011l-4.461-3.393
					l-1.01,0.61l4.928,3.599c0.024,0.018,0.043,0.039,0.059,0.062L113.146,170.926z"/>
			</g>
		</g>
	</g>
	<g>
		<g>
			
				<circle fill="#00632E" stroke="#00632E" stroke-width="0.3859" stroke-linecap="round" stroke-linejoin="round" stroke-miterlimit="10" cx="94.874" cy="88.927" r="6.431"/>
		</g>
		<g>
			
				<path fill="#41A62A" stroke="#41A62A" stroke-width="0.3859" stroke-linecap="round" stroke-linejoin="round" stroke-miterlimit="10" d="
				M106.775,87.23"/>
		</g>
		<g>
			
				<path fill="#41A62A" stroke="#41A62A" stroke-width="0.3859" stroke-linecap="round" stroke-linejoin="round" stroke-miterlimit="10" d="
				M101.202,90.608"/>
		</g>
		<g>
			
				<circle fill="#00632E" stroke="#00632E" stroke-width="0.3859" stroke-linecap="round" stroke-linejoin="round" stroke-miterlimit="10" cx="92.5" cy="99.86" r="6.43"/>
		</g>
		<g>
			
				<circle fill="#004721" stroke="#004721" stroke-width="0.3859" stroke-linecap="round" stroke-linejoin="round" stroke-miterlimit="10" cx="97.821" cy="98.427" r="6.43"/>
		</g>
		<g>
			
				<circle fill="#00632E" stroke="#00632E" stroke-width="0.3859" stroke-linecap="round" stroke-linejoin="round" stroke-miterlimit="10" cx="107.663" cy="88.694" r="6.43"/>
		</g>
		<g>
			
				<circle fill="#004721" stroke="#004721" stroke-width="0.3859" stroke-linecap="round" stroke-linejoin="round" stroke-miterlimit="10" cx="106.726" cy="94.155" r="6.43"/>
		</g>
		<g>
			
				<polygon fill="#97BF0D" stroke="#97BF0D" stroke-width="0.4299" stroke-linecap="round" stroke-linejoin="round" stroke-miterlimit="10" points="
				113.207,111.216 110.807,107.259 109.847,100.906 108.437,101.76 109.408,107.428 106.634,102.853 106.126,103.162 
				105.873,103.316 105.364,103.622 108.139,108.199 103.562,104.716 102.151,105.572 107.34,109.36 109.741,113.319 			"/>
		</g>
		<g>
			
				<circle fill="#00632E" stroke="#00632E" stroke-width="0.3859" stroke-linecap="round" stroke-linejoin="round" stroke-miterlimit="10" cx="102.893" cy="87.833" r="6.43"/>
		</g>
		<g>
			
				<circle fill="#00632E" stroke="#00632E" stroke-width="0.3859" stroke-linecap="round" stroke-linejoin="round" stroke-miterlimit="10" cx="104.736" cy="90.872" r="6.43"/>
		</g>
		<g>
			
				<circle fill="#00632E" stroke="#00632E" stroke-width="0.3859" stroke-linecap="round" stroke-linejoin="round" stroke-miterlimit="10" cx="97.124" cy="95.084" r="6.43"/>
		</g>
		<g>
			
				<path fill="#41A62A" stroke="#41A62A" stroke-width="0.3859" stroke-linecap="round" stroke-linejoin="round" stroke-miterlimit="10" d="
				M105.696,87.883"/>
		</g>
		<g>
			
				<path fill="#41A62A" stroke="#41A62A" stroke-width="0.3859" stroke-linecap="round" stroke-linejoin="round" stroke-miterlimit="10" d="
				M100.124,91.262"/>
		</g>
		<g>
			<g>
				<polygon fill="#7AA718" points="109.741,113.319 107.34,109.36 102.151,105.572 103.562,104.716 108.139,108.199 
					105.364,103.622 105.873,103.316 111.349,112.344 				"/>
			</g>
			<g>
				<path fill="#7AA718" d="M111.636,112.42l-1.784,1.082c-0.101,0.062-0.234,0.028-0.295-0.073l-2.379-3.921l-5.153-3.764
					c-0.058-0.041-0.09-0.11-0.087-0.183c0.003-0.071,0.042-0.137,0.104-0.174l1.409-0.854c0.075-0.046,0.171-0.041,0.241,0.013
					l3.678,2.795l-2.188-3.607c-0.062-0.102-0.029-0.233,0.072-0.293l0.684-0.416L111.636,112.42z M109.812,113.024l1.24-0.751
					l-5.252-8.664l-0.141,0.085l2.662,4.392c0.055,0.089,0.038,0.201-0.04,0.272c-0.077,0.067-0.191,0.073-0.272,0.01l-4.461-3.392
					l-1.01,0.611l4.928,3.597c0.023,0.018,0.043,0.039,0.058,0.064L109.812,113.024z"/>
			</g>
		</g>
	</g>
	<g>
		<g>
			
				<circle fill="#00632E" stroke="#00632E" stroke-width="0.3859" stroke-linecap="round" stroke-linejoin="round" stroke-miterlimit="10" cx="43.948" cy="121.346" r="6.43"/>
		</g>
		<g>
			
				<path fill="#41A62A" stroke="#41A62A" stroke-width="0.3859" stroke-linecap="round" stroke-linejoin="round" stroke-miterlimit="10" d="
				M55.849,119.648"/>
		</g>
		<g>
			
				<path fill="#41A62A" stroke="#41A62A" stroke-width="0.3859" stroke-linecap="round" stroke-linejoin="round" stroke-miterlimit="10" d="
				M50.275,123.027"/>
		</g>
		<g>
			
				<circle fill="#00632E" stroke="#00632E" stroke-width="0.3859" stroke-linecap="round" stroke-linejoin="round" stroke-miterlimit="10" cx="41.573" cy="132.28" r="6.43"/>
		</g>
		<g>
			
				<path fill="#004721" stroke="#004721" stroke-width="0.3859" stroke-linecap="round" stroke-linejoin="round" stroke-miterlimit="10" d="
				M52.393,127.513c1.842,3.037,0.872,6.991-2.164,8.833c-3.037,1.839-6.99,0.871-8.832-2.167c-1.841-3.034-0.873-6.989,2.165-8.831
				C46.598,123.508,50.553,124.478,52.393,127.513z"/>
		</g>
		<g>
			
				<circle fill="#00632E" stroke="#00632E" stroke-width="0.3859" stroke-linecap="round" stroke-linejoin="round" stroke-miterlimit="10" cx="56.736" cy="121.113" r="6.431"/>
		</g>
		<g>
			
				<circle fill="#004721" stroke="#004721" stroke-width="0.3859" stroke-linecap="round" stroke-linejoin="round" stroke-miterlimit="10" cx="55.799" cy="126.573" r="6.43"/>
		</g>
		<g>
			
				<polygon fill="#97BF0D" stroke="#97BF0D" stroke-width="0.4299" stroke-linecap="round" stroke-linejoin="round" stroke-miterlimit="10" points="
				62.281,143.637 59.88,139.678 58.92,133.326 57.51,134.179 58.481,139.848 55.707,135.273 55.199,135.581 54.947,135.735 
				54.439,136.042 57.212,140.617 52.635,137.135 51.226,137.99 56.413,141.777 58.814,145.738 			"/>
		</g>
		<g>
			
				<circle fill="#00632E" stroke="#00632E" stroke-width="0.3859" stroke-linecap="round" stroke-linejoin="round" stroke-miterlimit="10" cx="51.967" cy="120.252" r="6.43"/>
		</g>
		<g>
			
				<circle fill="#00632E" stroke="#00632E" stroke-width="0.3859" stroke-linecap="round" stroke-linejoin="round" stroke-miterlimit="10" cx="53.81" cy="123.289" r="6.431"/>
		</g>
		<g>
			
				<circle fill="#00632E" stroke="#00632E" stroke-width="0.3859" stroke-linecap="round" stroke-linejoin="round" stroke-miterlimit="10" cx="46.197" cy="127.502" r="6.431"/>
		</g>
		<g>
			
				<path fill="#41A62A" stroke="#41A62A" stroke-width="0.3859" stroke-linecap="round" stroke-linejoin="round" stroke-miterlimit="10" d="
				M54.771,120.302"/>
		</g>
		<g>
			
				<path fill="#41A62A" stroke="#41A62A" stroke-width="0.3859" stroke-linecap="round" stroke-linejoin="round" stroke-miterlimit="10" d="
				M49.198,123.68"/>
		</g>
		<g>
			<g>
				<polygon fill="#7AA718" points="58.814,145.738 56.413,141.777 51.226,137.99 52.635,137.135 57.212,140.617 54.439,136.042 
					54.947,135.735 60.422,144.764 				"/>
			</g>
			<g>
				<path fill="#7AA718" d="M60.71,144.84l-1.784,1.08c-0.102,0.062-0.233,0.031-0.296-0.072l-2.378-3.92l-5.153-3.764
					c-0.059-0.043-0.09-0.11-0.088-0.184c0.003-0.07,0.042-0.139,0.104-0.176l1.409-0.853c0.075-0.045,0.172-0.041,0.241,0.012
					l3.678,2.797l-2.188-3.607c-0.061-0.103-0.029-0.233,0.072-0.295l0.685-0.415L60.71,144.84z M58.887,145.441l1.239-0.75
					l-5.252-8.664l-0.14,0.087l2.662,4.39c0.054,0.089,0.037,0.202-0.041,0.272c-0.077,0.066-0.191,0.074-0.272,0.01l-4.461-3.392
					l-1.01,0.611l4.928,3.598c0.024,0.018,0.043,0.039,0.058,0.062L58.887,145.441z"/>
			</g>
		</g>
	</g>
	<g>
		<g>
			
				<circle fill="#00632E" stroke="#00632E" stroke-width="0.3859" stroke-linecap="round" stroke-linejoin="round" stroke-miterlimit="10" cx="42.255" cy="61.106" r="6.431"/>
		</g>
		<g>
			
				<path fill="#41A62A" stroke="#41A62A" stroke-width="0.3859" stroke-linecap="round" stroke-linejoin="round" stroke-miterlimit="10" d="
				M54.155,59.409"/>
		</g>
		<g>
			
				<path fill="#41A62A" stroke="#41A62A" stroke-width="0.3859" stroke-linecap="round" stroke-linejoin="round" stroke-miterlimit="10" d="
				M48.583,62.787"/>
		</g>
		<g>
			
				<circle fill="#00632E" stroke="#00632E" stroke-width="0.3859" stroke-linecap="round" stroke-linejoin="round" stroke-miterlimit="10" cx="39.88" cy="72.039" r="6.431"/>
		</g>
		<g>
			
				<circle fill="#004721" stroke="#004721" stroke-width="0.3859" stroke-linecap="round" stroke-linejoin="round" stroke-miterlimit="10" cx="45.201" cy="70.606" r="6.43"/>
		</g>
		<g>
			
				<circle fill="#00632E" stroke="#00632E" stroke-width="0.3859" stroke-linecap="round" stroke-linejoin="round" stroke-miterlimit="10" cx="55.043" cy="60.873" r="6.43"/>
		</g>
		<g>
			
				<circle fill="#004721" stroke="#004721" stroke-width="0.3859" stroke-linecap="round" stroke-linejoin="round" stroke-miterlimit="10" cx="54.106" cy="66.333" r="6.431"/>
		</g>
		<g>
			
				<polygon fill="#97BF0D" stroke="#97BF0D" stroke-width="0.4299" stroke-linecap="round" stroke-linejoin="round" stroke-miterlimit="10" points="
				60.588,83.396 58.188,79.438 57.228,73.085 55.816,73.939 56.788,79.607 54.014,75.032 53.506,75.341 53.254,75.495 
				52.745,75.801 55.52,80.378 50.941,76.895 49.532,77.751 54.72,81.54 57.121,85.498 			"/>
		</g>
		<g>
			
				<circle fill="#00632E" stroke="#00632E" stroke-width="0.3859" stroke-linecap="round" stroke-linejoin="round" stroke-miterlimit="10" cx="50.274" cy="60.011" r="6.43"/>
		</g>
		<g>
			
				<circle fill="#00632E" stroke="#00632E" stroke-width="0.3859" stroke-linecap="round" stroke-linejoin="round" stroke-miterlimit="10" cx="52.116" cy="63.05" r="6.431"/>
		</g>
		<g>
			
				<circle fill="#00632E" stroke="#00632E" stroke-width="0.3859" stroke-linecap="round" stroke-linejoin="round" stroke-miterlimit="10" cx="44.504" cy="67.262" r="6.431"/>
		</g>
		<g>
			
				<path fill="#41A62A" stroke="#41A62A" stroke-width="0.3859" stroke-linecap="round" stroke-linejoin="round" stroke-miterlimit="10" d="
				M53.076,60.062"/>
		</g>
		<g>
			
				<path fill="#41A62A" stroke="#41A62A" stroke-width="0.3859" stroke-linecap="round" stroke-linejoin="round" stroke-miterlimit="10" d="
				M47.505,63.441"/>
		</g>
		<g>
			<g>
				<polygon fill="#7AA718" points="57.121,85.498 54.72,81.54 49.532,77.751 50.941,76.895 55.52,80.378 52.745,75.801 
					53.254,75.495 58.729,84.523 				"/>
			</g>
			<g>
				<path fill="#7AA718" d="M59.017,84.6l-1.785,1.082c-0.101,0.062-0.233,0.028-0.295-0.073l-2.378-3.922l-5.153-3.763
					c-0.058-0.041-0.091-0.11-0.087-0.183c0.002-0.071,0.041-0.137,0.103-0.174l1.409-0.854c0.076-0.046,0.172-0.041,0.242,0.012
					l3.677,2.796l-2.187-3.607c-0.062-0.101-0.029-0.232,0.071-0.293l0.685-0.416L59.017,84.6z M57.193,85.204l1.239-0.751
					l-5.251-8.664l-0.141,0.085l2.662,4.392c0.055,0.089,0.037,0.201-0.041,0.272c-0.077,0.067-0.19,0.073-0.272,0.011l-4.461-3.393
					l-1.01,0.611l4.928,3.596c0.023,0.018,0.043,0.039,0.059,0.064L57.193,85.204z"/>
			</g>
		</g>
	</g>
	<g>
		<g>
			
				<circle fill="#00632E" stroke="#00632E" stroke-width="0.3859" stroke-linecap="round" stroke-linejoin="round" stroke-miterlimit="10" cx="149.458" cy="121.346" r="6.431"/>
		</g>
		<g>
			
				<path fill="#41A62A" stroke="#41A62A" stroke-width="0.3859" stroke-linecap="round" stroke-linejoin="round" stroke-miterlimit="10" d="
				M161.358,119.648"/>
		</g>
		<g>
			
				<path fill="#41A62A" stroke="#41A62A" stroke-width="0.3859" stroke-linecap="round" stroke-linejoin="round" stroke-miterlimit="10" d="
				M155.786,123.026"/>
		</g>
		<g>
			
				<circle fill="#00632E" stroke="#00632E" stroke-width="0.3859" stroke-linecap="round" stroke-linejoin="round" stroke-miterlimit="10" cx="147.083" cy="132.28" r="6.43"/>
		</g>
		<g>
			
				<path fill="#004721" stroke="#004721" stroke-width="0.3859" stroke-linecap="round" stroke-linejoin="round" stroke-miterlimit="10" d="
				M157.903,127.513c1.842,3.037,0.872,6.991-2.164,8.833c-3.037,1.84-6.991,0.872-8.833-2.167
				c-1.841-3.034-0.873-6.989,2.165-8.831C152.107,123.508,156.063,124.478,157.903,127.513z"/>
		</g>
		<g>
			
				<circle fill="#00632E" stroke="#00632E" stroke-width="0.3859" stroke-linecap="round" stroke-linejoin="round" stroke-miterlimit="10" cx="162.246" cy="121.113" r="6.43"/>
		</g>
		<g>
			
				<circle fill="#004721" stroke="#004721" stroke-width="0.3859" stroke-linecap="round" stroke-linejoin="round" stroke-miterlimit="10" cx="161.31" cy="126.573" r="6.431"/>
		</g>
		<g>
			
				<polygon fill="#97BF0D" stroke="#97BF0D" stroke-width="0.4299" stroke-linecap="round" stroke-linejoin="round" stroke-miterlimit="10" points="
				167.792,143.637 165.391,139.678 164.431,133.326 163.021,134.179 163.992,139.848 161.218,135.272 160.71,135.58 
				160.457,135.734 159.949,136.042 162.723,140.617 158.145,137.136 156.736,137.99 161.924,141.779 164.325,145.74 			"/>
		</g>
		<g>
			
				<circle fill="#00632E" stroke="#00632E" stroke-width="0.3859" stroke-linecap="round" stroke-linejoin="round" stroke-miterlimit="10" cx="157.478" cy="120.252" r="6.43"/>
		</g>
		<g>
			
				<circle fill="#00632E" stroke="#00632E" stroke-width="0.3859" stroke-linecap="round" stroke-linejoin="round" stroke-miterlimit="10" cx="159.32" cy="123.289" r="6.43"/>
		</g>
		<g>
			
				<circle fill="#00632E" stroke="#00632E" stroke-width="0.3859" stroke-linecap="round" stroke-linejoin="round" stroke-miterlimit="10" cx="151.708" cy="127.502" r="6.43"/>
		</g>
		<g>
			
				<path fill="#41A62A" stroke="#41A62A" stroke-width="0.3859" stroke-linecap="round" stroke-linejoin="round" stroke-miterlimit="10" d="
				M160.28,120.302"/>
		</g>
		<g>
			
				<path fill="#41A62A" stroke="#41A62A" stroke-width="0.3859" stroke-linecap="round" stroke-linejoin="round" stroke-miterlimit="10" d="
				M154.708,123.68"/>
		</g>
		<g>
			<g>
				<polygon fill="#7AA718" points="164.325,145.74 161.924,141.779 156.736,137.99 158.145,137.136 162.723,140.617 
					159.949,136.042 160.457,135.734 165.932,144.765 				"/>
			</g>
			<g>
				<path fill="#7AA718" d="M166.22,144.841l-1.784,1.079c-0.101,0.062-0.233,0.031-0.296-0.072l-2.378-3.92l-5.152-3.764
					c-0.059-0.042-0.091-0.11-0.088-0.183c0.003-0.071,0.042-0.139,0.104-0.176l1.409-0.854c0.075-0.044,0.171-0.041,0.241,0.012
					l3.678,2.797l-2.188-3.607c-0.062-0.103-0.029-0.232,0.072-0.294l0.685-0.416L166.22,144.841z M164.396,145.443l1.24-0.752
					l-5.252-8.664l-0.14,0.087l2.661,4.392c0.055,0.088,0.037,0.202-0.041,0.271c-0.077,0.067-0.19,0.074-0.272,0.01l-4.46-3.392
					l-1.01,0.611l4.928,3.6c0.023,0.018,0.042,0.039,0.058,0.062L164.396,145.443z"/>
			</g>
		</g>
	</g>
	<g>
		<g>
			
				<circle fill="#00632E" stroke="#00632E" stroke-width="0.3859" stroke-linecap="round" stroke-linejoin="round" stroke-miterlimit="10" cx="151.059" cy="61.106" r="6.43"/>
		</g>
		<g>
			
				<path fill="#41A62A" stroke="#41A62A" stroke-width="0.3859" stroke-linecap="round" stroke-linejoin="round" stroke-miterlimit="10" d="
				M162.96,59.409"/>
		</g>
		<g>
			
				<path fill="#41A62A" stroke="#41A62A" stroke-width="0.3859" stroke-linecap="round" stroke-linejoin="round" stroke-miterlimit="10" d="
				M157.387,62.787"/>
		</g>
		<g>
			
				<circle fill="#00632E" stroke="#00632E" stroke-width="0.3859" stroke-linecap="round" stroke-linejoin="round" stroke-miterlimit="10" cx="148.685" cy="72.039" r="6.431"/>
		</g>
		<g>
			
				<circle fill="#004721" stroke="#004721" stroke-width="0.3859" stroke-linecap="round" stroke-linejoin="round" stroke-miterlimit="10" cx="154.005" cy="70.606" r="6.43"/>
		</g>
		<g>
			
				<circle fill="#00632E" stroke="#00632E" stroke-width="0.3859" stroke-linecap="round" stroke-linejoin="round" stroke-miterlimit="10" cx="163.847" cy="60.873" r="6.43"/>
		</g>
		<g>
			
				<circle fill="#004721" stroke="#004721" stroke-width="0.3859" stroke-linecap="round" stroke-linejoin="round" stroke-miterlimit="10" cx="162.911" cy="66.333" r="6.431"/>
		</g>
		<g>
			
				<polygon fill="#97BF0D" stroke="#97BF0D" stroke-width="0.4299" stroke-linecap="round" stroke-linejoin="round" stroke-miterlimit="10" points="
				169.392,83.396 166.991,79.438 166.031,73.085 164.621,73.939 165.593,79.607 162.818,75.032 162.311,75.341 162.059,75.495 
				161.55,75.801 164.324,80.378 159.746,76.895 158.337,77.751 163.524,81.54 165.926,85.498 			"/>
		</g>
		<g>
			
				<circle fill="#00632E" stroke="#00632E" stroke-width="0.3859" stroke-linecap="round" stroke-linejoin="round" stroke-miterlimit="10" cx="159.078" cy="60.011" r="6.431"/>
		</g>
		<g>
			
				<circle fill="#00632E" stroke="#00632E" stroke-width="0.3859" stroke-linecap="round" stroke-linejoin="round" stroke-miterlimit="10" cx="160.921" cy="63.05" r="6.431"/>
		</g>
		<g>
			
				<circle fill="#00632E" stroke="#00632E" stroke-width="0.3859" stroke-linecap="round" stroke-linejoin="round" stroke-miterlimit="10" cx="153.309" cy="67.262" r="6.431"/>
		</g>
		<g>
			
				<path fill="#41A62A" stroke="#41A62A" stroke-width="0.3859" stroke-linecap="round" stroke-linejoin="round" stroke-miterlimit="10" d="
				M161.881,60.062"/>
		</g>
		<g>
			
				<path fill="#41A62A" stroke="#41A62A" stroke-width="0.3859" stroke-linecap="round" stroke-linejoin="round" stroke-miterlimit="10" d="
				M156.31,63.441"/>
		</g>
		<g>
			<g>
				<polygon fill="#7AA718" points="165.926,85.498 163.524,81.54 158.337,77.751 159.746,76.895 164.324,80.378 161.55,75.801 
					162.059,75.495 167.533,84.523 				"/>
			</g>
			<g>
				<path fill="#7AA718" d="M167.821,84.6l-1.785,1.082c-0.101,0.062-0.233,0.028-0.295-0.073l-2.378-3.922l-5.153-3.763
					c-0.058-0.041-0.091-0.11-0.088-0.183c0.003-0.071,0.042-0.137,0.104-0.174l1.409-0.854c0.075-0.046,0.172-0.041,0.241,0.012
					l3.678,2.796l-2.188-3.607c-0.061-0.101-0.029-0.232,0.072-0.293l0.684-0.416L167.821,84.6z M165.998,85.204l1.239-0.751
					l-5.252-8.664l-0.14,0.085l2.662,4.392c0.054,0.089,0.037,0.201-0.041,0.272c-0.077,0.067-0.191,0.073-0.272,0.011l-4.461-3.393
					l-1.01,0.611l4.928,3.596c0.023,0.018,0.043,0.039,0.058,0.064L165.998,85.204z"/>
			</g>
		</g>
	</g>
	<g>
		<g>
			
				<circle fill="#00632E" stroke="#00632E" stroke-width="0.3859" stroke-linecap="round" stroke-linejoin="round" stroke-miterlimit="10" cx="92.095" cy="31.027" r="6.431"/>
		</g>
		<g>
			
				<path fill="#41A62A" stroke="#41A62A" stroke-width="0.3859" stroke-linecap="round" stroke-linejoin="round" stroke-miterlimit="10" d="
				M103.996,29.329"/>
		</g>
		<g>
			
				<path fill="#41A62A" stroke="#41A62A" stroke-width="0.3859" stroke-linecap="round" stroke-linejoin="round" stroke-miterlimit="10" d="
				M98.423,32.708"/>
		</g>
		<g>
			
				<circle fill="#00632E" stroke="#00632E" stroke-width="0.3859" stroke-linecap="round" stroke-linejoin="round" stroke-miterlimit="10" cx="89.72" cy="41.96" r="6.43"/>
		</g>
		<g>
			
				<circle fill="#004721" stroke="#004721" stroke-width="0.3859" stroke-linecap="round" stroke-linejoin="round" stroke-miterlimit="10" cx="95.042" cy="40.526" r="6.43"/>
		</g>
		<g>
			
				<circle fill="#00632E" stroke="#00632E" stroke-width="0.3859" stroke-linecap="round" stroke-linejoin="round" stroke-miterlimit="10" cx="104.883" cy="30.793" r="6.43"/>
		</g>
		<g>
			
				<circle fill="#004721" stroke="#004721" stroke-width="0.3859" stroke-linecap="round" stroke-linejoin="round" stroke-miterlimit="10" cx="103.947" cy="36.253" r="6.43"/>
		</g>
		<g>
			
				<polygon fill="#97BF0D" stroke="#97BF0D" stroke-width="0.4299" stroke-linecap="round" stroke-linejoin="round" stroke-miterlimit="10" points="
				110.428,53.316 108.027,49.358 107.067,43.006 105.657,43.86 106.629,49.528 103.854,44.952 103.347,45.261 103.094,45.415 
				102.585,45.721 105.359,50.297 100.782,46.816 99.372,47.671 104.561,51.459 106.962,55.418 			"/>
		</g>
		<g>
			
				<circle fill="#00632E" stroke="#00632E" stroke-width="0.3859" stroke-linecap="round" stroke-linejoin="round" stroke-miterlimit="10" cx="100.114" cy="29.932" r="6.43"/>
		</g>
		<g>
			
				<circle fill="#00632E" stroke="#00632E" stroke-width="0.3859" stroke-linecap="round" stroke-linejoin="round" stroke-miterlimit="10" cx="101.957" cy="32.97" r="6.43"/>
		</g>
		<g>
			
				<circle fill="#00632E" stroke="#00632E" stroke-width="0.3859" stroke-linecap="round" stroke-linejoin="round" stroke-miterlimit="10" cx="94.344" cy="37.183" r="6.43"/>
		</g>
		<g>
			
				<path fill="#41A62A" stroke="#41A62A" stroke-width="0.3859" stroke-linecap="round" stroke-linejoin="round" stroke-miterlimit="10" d="
				M102.917,29.982"/>
		</g>
		<g>
			
				<path fill="#41A62A" stroke="#41A62A" stroke-width="0.3859" stroke-linecap="round" stroke-linejoin="round" stroke-miterlimit="10" d="
				M97.345,33.361"/>
		</g>
		<g>
			<g>
				<polygon fill="#7AA718" points="106.962,55.418 104.561,51.459 99.372,47.671 100.782,46.816 105.359,50.297 102.585,45.721 
					103.094,45.415 108.569,54.444 				"/>
			</g>
			<g>
				<path fill="#7AA718" d="M108.856,54.52l-1.784,1.082c-0.101,0.061-0.234,0.029-0.295-0.073l-2.379-3.921l-5.153-3.765
					c-0.058-0.042-0.09-0.109-0.087-0.182c0.003-0.071,0.042-0.137,0.104-0.175l1.409-0.854c0.075-0.045,0.171-0.041,0.241,0.013
					l3.678,2.796l-2.188-3.607c-0.062-0.102-0.029-0.233,0.072-0.294l0.684-0.416L108.856,54.52z M107.033,55.123l1.24-0.751
					l-5.252-8.663l-0.141,0.086l2.662,4.391c0.055,0.089,0.038,0.202-0.04,0.271c-0.077,0.068-0.191,0.075-0.272,0.011l-4.461-3.392
					l-1.01,0.61l4.928,3.598c0.023,0.018,0.043,0.039,0.058,0.063L107.033,55.123z"/>
			</g>
		</g>
	</g>
	<g>
		<g>
			<g>
				
					<path fill="#E4352E" stroke="#E4352E" stroke-width="0.2573" stroke-linecap="round" stroke-linejoin="round" stroke-miterlimit="10" d="
					M34.707,107.25c4.277-5.088,4.594-11.886,0.273-16.611s-10.05-3.848-15.948-0.531L34.707,107.25z"/>
			</g>
			<g>
				
					<path fill="#EE8377" stroke="#EE8377" stroke-width="0.1273" stroke-linecap="round" stroke-linejoin="round" stroke-miterlimit="10" d="
					M29.543,101.693c2.114-2.516,2.272-5.877,0.135-8.215c-2.137-2.338-4.972-1.904-7.889-0.264L29.543,101.693z"/>
			</g>
			<g>
				
					<path fill="#FFE09D" stroke="#FFE09D" stroke-width="0.0283" stroke-linecap="round" stroke-linejoin="round" stroke-miterlimit="10" d="
					M26.546,90.281c0.008-0.398-0.227-0.73-0.528-0.736c-0.302-0.01-0.552,0.307-0.561,0.705c-0.01,0.4,0.224,0.84,0.527,0.848
					C26.283,91.107,26.539,90.678,26.546,90.281z"/>
			</g>
			<g>
				
					<path fill="#FFE09D" stroke="#FFE09D" stroke-width="0.0283" stroke-linecap="round" stroke-linejoin="round" stroke-miterlimit="10" d="
					M29.42,91.121c0.189-0.361,0.12-0.746-0.151-0.86c-0.274-0.113-0.648,0.085-0.838,0.444c-0.189,0.361-0.174,0.846,0.099,0.961
					C28.804,91.778,29.23,91.481,29.42,91.121z"/>
			</g>
			<g>
				
					<path fill="#FFE09D" stroke="#FFE09D" stroke-width="0.0283" stroke-linecap="round" stroke-linejoin="round" stroke-miterlimit="10" d="
					M31.629,93.027c0.344-0.252,0.464-0.625,0.268-0.83c-0.193-0.205-0.63-0.164-0.976,0.091c-0.343,0.254-0.561,0.697-0.364,0.901
					C30.752,93.395,31.285,93.283,31.629,93.027z"/>
			</g>
			<g>
				
					<path fill="#FFE09D" stroke="#FFE09D" stroke-width="0.0283" stroke-linecap="round" stroke-linejoin="round" stroke-miterlimit="10" d="
					M33.07,97.283c0.446,0.078,0.761,0.35,0.708,0.611c-0.056,0.262-0.461,0.41-0.904,0.332c-0.444-0.076-0.882-0.373-0.828-0.633
					C32.101,97.333,32.628,97.205,33.07,97.283z"/>
			</g>
			<g>
				
					<path fill="#FFE09D" stroke="#FFE09D" stroke-width="0.0283" stroke-linecap="round" stroke-linejoin="round" stroke-miterlimit="10" d="
					M32.585,94.582c0.439-0.085,0.852,0.057,0.921,0.315c0.069,0.258-0.233,0.54-0.671,0.624c-0.44,0.089-0.976-0.029-1.044-0.289
					C31.722,94.972,32.146,94.668,32.585,94.582z"/>
			</g>
		</g>
	</g>
	<g>
		<g>
			<g>
				
					<path fill="#E4352E" stroke="#E4352E" stroke-width="0.2573" stroke-linecap="round" stroke-linejoin="round" stroke-miterlimit="10" d="
					M85.245,75.556c4.277-5.088,4.594-11.886,0.273-16.611s-10.05-3.848-15.948-0.531L85.245,75.556z"/>
			</g>
			<g>
				
					<path fill="#EE8377" stroke="#EE8377" stroke-width="0.1273" stroke-linecap="round" stroke-linejoin="round" stroke-miterlimit="10" d="
					M80.081,69.999c2.114-2.516,2.272-5.877,0.135-8.215c-2.137-2.338-4.972-1.904-7.889-0.264L80.081,69.999z"/>
			</g>
			<g>
				
					<path fill="#FFE09D" stroke="#FFE09D" stroke-width="0.0283" stroke-linecap="round" stroke-linejoin="round" stroke-miterlimit="10" d="
					M77.084,58.587c0.008-0.398-0.227-0.73-0.528-0.736c-0.302-0.01-0.552,0.307-0.561,0.705c-0.01,0.4,0.224,0.84,0.527,0.848
					C76.821,59.413,77.077,58.984,77.084,58.587z"/>
			</g>
			<g>
				
					<path fill="#FFE09D" stroke="#FFE09D" stroke-width="0.0283" stroke-linecap="round" stroke-linejoin="round" stroke-miterlimit="10" d="
					M79.958,59.427c0.189-0.361,0.12-0.746-0.151-0.86c-0.274-0.113-0.648,0.085-0.838,0.444c-0.189,0.361-0.174,0.846,0.099,0.961
					C79.342,60.084,79.769,59.787,79.958,59.427z"/>
			</g>
			<g>
				
					<path fill="#FFE09D" stroke="#FFE09D" stroke-width="0.0283" stroke-linecap="round" stroke-linejoin="round" stroke-miterlimit="10" d="
					M82.167,61.333c0.344-0.252,0.464-0.625,0.268-0.83c-0.193-0.205-0.63-0.164-0.976,0.091c-0.343,0.254-0.561,0.697-0.364,0.901
					C81.29,61.701,81.823,61.589,82.167,61.333z"/>
			</g>
			<g>
				
					<path fill="#FFE09D" stroke="#FFE09D" stroke-width="0.0283" stroke-linecap="round" stroke-linejoin="round" stroke-miterlimit="10" d="
					M83.608,65.589c0.446,0.078,0.761,0.35,0.708,0.611c-0.056,0.262-0.461,0.41-0.904,0.332c-0.444-0.076-0.882-0.373-0.828-0.633
					C82.639,65.639,83.166,65.511,83.608,65.589z"/>
			</g>
			<g>
				
					<path fill="#FFE09D" stroke="#FFE09D" stroke-width="0.0283" stroke-linecap="round" stroke-linejoin="round" stroke-miterlimit="10" d="
					M83.123,62.888c0.439-0.085,0.852,0.057,0.921,0.315c0.069,0.258-0.233,0.54-0.671,0.624c-0.44,0.089-0.976-0.029-1.044-0.289
					C82.26,63.278,82.684,62.975,83.123,62.888z"/>
			</g>
		</g>
	</g>
	<g>
		<g>
			<g>
				
					<path fill="#E4352E" stroke="#E4352E" stroke-width="0.2573" stroke-linecap="round" stroke-linejoin="round" stroke-miterlimit="10" d="
					M85.245,133.653c4.277-5.088,4.594-11.886,0.273-16.612s-10.05-3.848-15.948-0.531L85.245,133.653z"/>
			</g>
			<g>
				
					<path fill="#EE8377" stroke="#EE8377" stroke-width="0.1273" stroke-linecap="round" stroke-linejoin="round" stroke-miterlimit="10" d="
					M80.081,128.096c2.114-2.516,2.272-5.877,0.135-8.215c-2.137-2.338-4.972-1.904-7.889-0.264L80.081,128.096z"/>
			</g>
			<g>
				
					<path fill="#FFE09D" stroke="#FFE09D" stroke-width="0.0283" stroke-linecap="round" stroke-linejoin="round" stroke-miterlimit="10" d="
					M77.084,116.684c0.008-0.398-0.227-0.73-0.528-0.736c-0.302-0.01-0.552,0.307-0.561,0.705c-0.01,0.4,0.224,0.84,0.527,0.848
					C76.821,117.51,77.077,117.082,77.084,116.684z"/>
			</g>
			<g>
				
					<path fill="#FFE09D" stroke="#FFE09D" stroke-width="0.0283" stroke-linecap="round" stroke-linejoin="round" stroke-miterlimit="10" d="
					M79.958,117.524c0.189-0.361,0.12-0.746-0.151-0.86c-0.274-0.113-0.648,0.085-0.838,0.444c-0.189,0.361-0.174,0.846,0.099,0.961
					C79.342,118.181,79.769,117.884,79.958,117.524z"/>
			</g>
			<g>
				
					<path fill="#FFE09D" stroke="#FFE09D" stroke-width="0.0283" stroke-linecap="round" stroke-linejoin="round" stroke-miterlimit="10" d="
					M82.167,119.43c0.344-0.252,0.464-0.625,0.268-0.83c-0.193-0.205-0.63-0.164-0.976,0.091c-0.343,0.254-0.561,0.697-0.364,0.901
					C81.29,119.798,81.823,119.686,82.167,119.43z"/>
			</g>
			<g>
				
					<path fill="#FFE09D" stroke="#FFE09D" stroke-width="0.0283" stroke-linecap="round" stroke-linejoin="round" stroke-miterlimit="10" d="
					M83.608,123.686c0.446,0.078,0.761,0.35,0.708,0.611c-0.056,0.262-0.461,0.41-0.904,0.332c-0.444-0.076-0.882-0.373-0.828-0.633
					C82.639,123.736,83.166,123.608,83.608,123.686z"/>
			</g>
			<g>
				
					<path fill="#FFE09D" stroke="#FFE09D" stroke-width="0.0283" stroke-linecap="round" stroke-linejoin="round" stroke-miterlimit="10" d="
					M83.123,120.985c0.439-0.085,0.852,0.057,0.921,0.315c0.069,0.258-0.233,0.54-0.671,0.624c-0.44,0.089-0.976-0.029-1.044-0.289
					C82.26,121.375,82.684,121.072,83.123,120.985z"/>
			</g>
		</g>
	</g>
	<g>
		<g>
			<g>
				
					<path fill="#E4352E" stroke="#E4352E" stroke-width="0.2573" stroke-linecap="round" stroke-linejoin="round" stroke-miterlimit="10" d="
					M85.245,188.284c4.277-5.089,4.594-11.887,0.273-16.612s-10.05-3.848-15.948-0.531L85.245,188.284z"/>
			</g>
			<g>
				
					<path fill="#EE8377" stroke="#EE8377" stroke-width="0.1273" stroke-linecap="round" stroke-linejoin="round" stroke-miterlimit="10" d="
					M80.081,182.727c2.114-2.516,2.272-5.877,0.135-8.215c-2.137-2.338-4.972-1.904-7.889-0.264L80.081,182.727z"/>
			</g>
			<g>
				
					<path fill="#FFE09D" stroke="#FFE09D" stroke-width="0.0283" stroke-linecap="round" stroke-linejoin="round" stroke-miterlimit="10" d="
					M77.084,171.314c0.008-0.398-0.227-0.73-0.528-0.736c-0.302-0.01-0.552,0.307-0.561,0.705c-0.01,0.4,0.224,0.84,0.527,0.848
					C76.821,172.141,77.077,171.712,77.084,171.314z"/>
			</g>
			<g>
				
					<path fill="#FFE09D" stroke="#FFE09D" stroke-width="0.0283" stroke-linecap="round" stroke-linejoin="round" stroke-miterlimit="10" d="
					M79.958,172.154c0.189-0.361,0.12-0.746-0.151-0.86c-0.274-0.113-0.648,0.085-0.838,0.444c-0.189,0.361-0.174,0.846,0.099,0.961
					C79.342,172.812,79.769,172.515,79.958,172.154z"/>
			</g>
			<g>
				
					<path fill="#FFE09D" stroke="#FFE09D" stroke-width="0.0283" stroke-linecap="round" stroke-linejoin="round" stroke-miterlimit="10" d="
					M82.167,174.061c0.344-0.252,0.464-0.625,0.268-0.83c-0.193-0.205-0.63-0.164-0.976,0.091c-0.343,0.254-0.561,0.697-0.364,0.901
					C81.29,174.429,81.823,174.316,82.167,174.061z"/>
			</g>
			<g>
				
					<path fill="#FFE09D" stroke="#FFE09D" stroke-width="0.0283" stroke-linecap="round" stroke-linejoin="round" stroke-miterlimit="10" d="
					M83.608,178.316c0.446,0.078,0.761,0.35,0.708,0.611c-0.056,0.262-0.461,0.41-0.904,0.332c-0.444-0.076-0.882-0.373-0.828-0.633
					C82.639,178.366,83.166,178.238,83.608,178.316z"/>
			</g>
			<g>
				
					<path fill="#FFE09D" stroke="#FFE09D" stroke-width="0.0283" stroke-linecap="round" stroke-linejoin="round" stroke-miterlimit="10" d="
					M83.123,175.615c0.439-0.085,0.852,0.057,0.921,0.315c0.069,0.258-0.233,0.54-0.671,0.624c-0.44,0.089-0.976-0.029-1.044-0.289
					C82.26,176.006,82.684,175.702,83.123,175.615z"/>
			</g>
		</g>
	</g>
	<g>
		<g>
			<g>
				
					<path fill="#E4352E" stroke="#E4352E" stroke-width="0.2573" stroke-linecap="round" stroke-linejoin="round" stroke-miterlimit="10" d="
					M137.288,39.287c4.277-5.088,4.594-11.886,0.273-16.611s-10.05-3.848-15.948-0.531L137.288,39.287z"/>
			</g>
			<g>
				
					<path fill="#EE8377" stroke="#EE8377" stroke-width="0.1273" stroke-linecap="round" stroke-linejoin="round" stroke-miterlimit="10" d="
					M132.124,33.73c2.114-2.516,2.272-5.877,0.135-8.215c-2.137-2.338-4.972-1.904-7.889-0.264L132.124,33.73z"/>
			</g>
			<g>
				
					<path fill="#FFE09D" stroke="#FFE09D" stroke-width="0.0283" stroke-linecap="round" stroke-linejoin="round" stroke-miterlimit="10" d="
					M129.127,22.318c0.008-0.398-0.227-0.73-0.528-0.736c-0.302-0.01-0.552,0.307-0.561,0.705c-0.01,0.4,0.224,0.84,0.527,0.848
					C128.864,23.145,129.12,22.716,129.127,22.318z"/>
			</g>
			<g>
				
					<path fill="#FFE09D" stroke="#FFE09D" stroke-width="0.0283" stroke-linecap="round" stroke-linejoin="round" stroke-miterlimit="10" d="
					M132.001,23.158c0.189-0.361,0.12-0.746-0.151-0.86c-0.274-0.113-0.648,0.085-0.838,0.444c-0.189,0.361-0.174,0.846,0.099,0.961
					C131.385,23.815,131.812,23.519,132.001,23.158z"/>
			</g>
			<g>
				
					<path fill="#FFE09D" stroke="#FFE09D" stroke-width="0.0283" stroke-linecap="round" stroke-linejoin="round" stroke-miterlimit="10" d="
					M134.21,25.064c0.344-0.252,0.464-0.625,0.268-0.83c-0.193-0.205-0.63-0.164-0.976,0.091c-0.343,0.254-0.561,0.697-0.364,0.901
					C133.333,25.433,133.866,25.32,134.21,25.064z"/>
			</g>
			<g>
				
					<path fill="#FFE09D" stroke="#FFE09D" stroke-width="0.0283" stroke-linecap="round" stroke-linejoin="round" stroke-miterlimit="10" d="
					M135.651,29.32c0.446,0.078,0.761,0.35,0.708,0.611c-0.056,0.262-0.461,0.41-0.904,0.332c-0.444-0.076-0.882-0.373-0.828-0.633
					C134.682,29.37,135.209,29.242,135.651,29.32z"/>
			</g>
			<g>
				
					<path fill="#FFE09D" stroke="#FFE09D" stroke-width="0.0283" stroke-linecap="round" stroke-linejoin="round" stroke-miterlimit="10" d="
					M135.166,26.619c0.439-0.085,0.852,0.057,0.921,0.315c0.069,0.258-0.233,0.54-0.671,0.624c-0.44,0.089-0.976-0.029-1.044-0.289
					C134.303,27.01,134.727,26.706,135.166,26.619z"/>
			</g>
		</g>
	</g>
	<g>
		<g>
			<g>
				
					<path fill="#E4352E" stroke="#E4352E" stroke-width="0.2573" stroke-linecap="round" stroke-linejoin="round" stroke-miterlimit="10" d="
					M137.288,97.385c4.277-5.088,4.594-11.886,0.273-16.612s-10.05-3.848-15.948-0.531L137.288,97.385z"/>
			</g>
			<g>
				
					<path fill="#EE8377" stroke="#EE8377" stroke-width="0.1273" stroke-linecap="round" stroke-linejoin="round" stroke-miterlimit="10" d="
					M132.124,91.828c2.114-2.516,2.272-5.877,0.135-8.215c-2.137-2.338-4.972-1.904-7.889-0.264L132.124,91.828z"/>
			</g>
			<g>
				
					<path fill="#FFE09D" stroke="#FFE09D" stroke-width="0.0283" stroke-linecap="round" stroke-linejoin="round" stroke-miterlimit="10" d="
					M129.127,80.416c0.008-0.398-0.227-0.73-0.528-0.736c-0.302-0.01-0.552,0.307-0.561,0.705c-0.01,0.4,0.224,0.84,0.527,0.848
					C128.864,81.242,129.12,80.813,129.127,80.416z"/>
			</g>
			<g>
				
					<path fill="#FFE09D" stroke="#FFE09D" stroke-width="0.0283" stroke-linecap="round" stroke-linejoin="round" stroke-miterlimit="10" d="
					M132.001,81.255c0.189-0.361,0.12-0.746-0.151-0.86c-0.274-0.113-0.648,0.085-0.838,0.444c-0.189,0.361-0.174,0.846,0.099,0.961
					C131.385,81.913,131.812,81.616,132.001,81.255z"/>
			</g>
			<g>
				
					<path fill="#FFE09D" stroke="#FFE09D" stroke-width="0.0283" stroke-linecap="round" stroke-linejoin="round" stroke-miterlimit="10" d="
					M134.21,83.162c0.344-0.252,0.464-0.625,0.268-0.83c-0.193-0.205-0.63-0.164-0.976,0.091c-0.343,0.254-0.561,0.697-0.364,0.901
					C133.333,83.53,133.866,83.417,134.21,83.162z"/>
			</g>
			<g>
				
					<path fill="#FFE09D" stroke="#FFE09D" stroke-width="0.0283" stroke-linecap="round" stroke-linejoin="round" stroke-miterlimit="10" d="
					M135.651,87.417c0.446,0.078,0.761,0.35,0.708,0.611c-0.056,0.262-0.461,0.41-0.904,0.332c-0.444-0.076-0.882-0.373-0.828-0.633
					C134.682,87.467,135.209,87.339,135.651,87.417z"/>
			</g>
			<g>
				
					<path fill="#FFE09D" stroke="#FFE09D" stroke-width="0.0283" stroke-linecap="round" stroke-linejoin="round" stroke-miterlimit="10" d="
					M135.166,84.716c0.439-0.085,0.852,0.057,0.921,0.315c0.069,0.258-0.233,0.54-0.671,0.624c-0.44,0.089-0.976-0.029-1.044-0.289
					C134.303,85.107,134.727,84.803,135.166,84.716z"/>
			</g>
		</g>
	</g>
	<g>
		<g>
			<g>
				
					<path fill="#E4352E" stroke="#E4352E" stroke-width="0.2573" stroke-linecap="round" stroke-linejoin="round" stroke-miterlimit="10" d="
					M185.952,121.052c4.277-5.088,4.594-11.886,0.273-16.612s-10.05-3.848-15.948-0.531L185.952,121.052z"/>
			</g>
			<g>
				
					<path fill="#EE8377" stroke="#EE8377" stroke-width="0.1273" stroke-linecap="round" stroke-linejoin="round" stroke-miterlimit="10" d="
					M180.788,115.495c2.114-2.516,2.272-5.877,0.135-8.215c-2.137-2.338-4.972-1.904-7.889-0.264L180.788,115.495z"/>
			</g>
			<g>
				
					<path fill="#FFE09D" stroke="#FFE09D" stroke-width="0.0283" stroke-linecap="round" stroke-linejoin="round" stroke-miterlimit="10" d="
					M177.791,104.083c0.008-0.398-0.227-0.73-0.528-0.736c-0.302-0.01-0.552,0.307-0.561,0.705c-0.01,0.4,0.224,0.84,0.527,0.848
					C177.528,104.909,177.784,104.48,177.791,104.083z"/>
			</g>
			<g>
				
					<path fill="#FFE09D" stroke="#FFE09D" stroke-width="0.0283" stroke-linecap="round" stroke-linejoin="round" stroke-miterlimit="10" d="
					M180.665,104.923c0.189-0.361,0.12-0.746-0.151-0.86c-0.274-0.113-0.648,0.085-0.838,0.444
					c-0.189,0.361-0.174,0.846,0.099,0.961C180.049,105.58,180.476,105.283,180.665,104.923z"/>
			</g>
			<g>
				
					<path fill="#FFE09D" stroke="#FFE09D" stroke-width="0.0283" stroke-linecap="round" stroke-linejoin="round" stroke-miterlimit="10" d="
					M182.874,106.829c0.344-0.252,0.464-0.625,0.268-0.83c-0.193-0.205-0.63-0.164-0.976,0.091
					c-0.343,0.254-0.561,0.697-0.364,0.901C181.997,107.197,182.53,107.085,182.874,106.829z"/>
			</g>
			<g>
				
					<path fill="#FFE09D" stroke="#FFE09D" stroke-width="0.0283" stroke-linecap="round" stroke-linejoin="round" stroke-miterlimit="10" d="
					M184.315,111.085c0.446,0.078,0.761,0.35,0.708,0.611c-0.056,0.262-0.461,0.41-0.904,0.332
					c-0.444-0.076-0.882-0.373-0.828-0.633C183.346,111.135,183.873,111.007,184.315,111.085z"/>
			</g>
			<g>
				
					<path fill="#FFE09D" stroke="#FFE09D" stroke-width="0.0283" stroke-linecap="round" stroke-linejoin="round" stroke-miterlimit="10" d="
					M183.83,108.384c0.439-0.085,0.852,0.057,0.921,0.315c0.069,0.258-0.233,0.54-0.671,0.624c-0.44,0.089-0.976-0.029-1.044-0.289
					C182.967,108.774,183.391,108.471,183.83,108.384z"/>
			</g>
		</g>
	</g>
	<g>
		<g>
			<g>
				
					<path fill="#E4352E" stroke="#E4352E" stroke-width="0.2573" stroke-linecap="round" stroke-linejoin="round" stroke-miterlimit="10" d="
					M137.288,157.628c4.277-5.088,4.594-11.886,0.273-16.611s-10.05-3.848-15.948-0.531L137.288,157.628z"/>
			</g>
			<g>
				
					<path fill="#EE8377" stroke="#EE8377" stroke-width="0.1273" stroke-linecap="round" stroke-linejoin="round" stroke-miterlimit="10" d="
					M132.124,152.071c2.114-2.516,2.272-5.877,0.135-8.215c-2.137-2.338-4.972-1.904-7.889-0.264L132.124,152.071z"/>
			</g>
			<g>
				
					<path fill="#FFE09D" stroke="#FFE09D" stroke-width="0.0283" stroke-linecap="round" stroke-linejoin="round" stroke-miterlimit="10" d="
					M129.127,140.659c0.008-0.398-0.227-0.73-0.528-0.736c-0.302-0.01-0.552,0.307-0.561,0.705c-0.01,0.4,0.224,0.84,0.527,0.848
					C128.864,141.485,129.12,141.057,129.127,140.659z"/>
			</g>
			<g>
				
					<path fill="#FFE09D" stroke="#FFE09D" stroke-width="0.0283" stroke-linecap="round" stroke-linejoin="round" stroke-miterlimit="10" d="
					M132.001,141.499c0.189-0.361,0.12-0.746-0.151-0.86c-0.274-0.113-0.648,0.085-0.838,0.444
					c-0.189,0.361-0.174,0.846,0.099,0.961C131.385,142.156,131.812,141.859,132.001,141.499z"/>
			</g>
			<g>
				
					<path fill="#FFE09D" stroke="#FFE09D" stroke-width="0.0283" stroke-linecap="round" stroke-linejoin="round" stroke-miterlimit="10" d="
					M134.21,143.405c0.344-0.252,0.464-0.625,0.268-0.83c-0.193-0.205-0.63-0.164-0.976,0.091c-0.343,0.254-0.561,0.697-0.364,0.901
					C133.333,143.773,133.866,143.661,134.21,143.405z"/>
			</g>
			<g>
				
					<path fill="#FFE09D" stroke="#FFE09D" stroke-width="0.0283" stroke-linecap="round" stroke-linejoin="round" stroke-miterlimit="10" d="
					M135.651,147.661c0.446,0.078,0.761,0.35,0.708,0.611c-0.056,0.262-0.461,0.41-0.904,0.332
					c-0.444-0.076-0.882-0.373-0.828-0.633C134.682,147.711,135.209,147.583,135.651,147.661z"/>
			</g>
			<g>
				
					<path fill="#FFE09D" stroke="#FFE09D" stroke-width="0.0283" stroke-linecap="round" stroke-linejoin="round" stroke-miterlimit="10" d="
					M135.166,144.96c0.439-0.085,0.852,0.057,0.921,0.315c0.069,0.258-0.233,0.54-0.671,0.624c-0.44,0.089-0.976-0.029-1.044-0.289
					C134.303,145.351,134.727,145.047,135.166,144.96z"/>
			</g>
		</g>
	</g>
</g>
</svg>
