<?xml version="1.0" encoding="utf-8"?>
<!-- Generator: Adobe Illustrator 15.0.2, SVG Export Plug-In . SVG Version: 6.00 Build 0)  -->
<!DOCTYPE svg PUBLIC "-//W3C//DTD SVG 1.1//EN" "http://www.w3.org/Graphics/SVG/1.1/DTD/svg11.dtd">
<svg version="1.1" id="Lager_1" xmlns="http://www.w3.org/2000/svg" xmlns:xlink="http://www.w3.org/1999/xlink" x="0px" y="0px"
	 width="316.112px" height="89.667px" viewBox="-1.5 -10.751 316.112 89.667" enable-background="new -1.5 -10.751 316.112 89.667"
	 xml:space="preserve">
<g>
	<path fill="#FFFFFF" stroke="#1A171B" stroke-width="5" stroke-miterlimit="10" d="M312.113,71.416c0,2.762-2.238,5-5,5H6
		c-2.762,0-5-2.238-5-5V-3.251c0-2.761,2.238-5,5-5h301.112c2.762,0,5,2.239,5,5V71.416z"/>
	<path fill="#0A71B3" d="M37.015,73.952H5.871c-1.109,0-2.523-1.001-2.523-2.11V-3.24c0-1.292,1.229-2.542,2.523-2.542h31.144"/>
	<path fill="#FFFFFF" d="M26.732,49.933c-0.482-1.006-1.116-1.807-1.883-2.379c-0.732-0.544-1.561-1.022-2.464-1.422
		c-0.864-0.382-1.749-0.736-2.631-1.054c-0.834-0.297-1.612-0.626-2.319-0.979c-1.415-0.684-2.103-1.67-2.103-3.013
		c0-1.634,0.492-2.857,1.503-3.742c1.018-0.888,2.351-1.339,3.963-1.339c1.703,0,3.564,0.18,5.53,0.531l0.588,0.105v-2.448
		l-0.421-0.067c-2.252-0.362-4.351-0.545-6.237-0.545c-1.988,0-3.724,0.637-5.159,1.894c-1.455,1.273-2.192,3.213-2.192,5.764
		c0,1.513,0.467,2.774,1.387,3.75c0.883,0.938,1.971,1.646,3.234,2.109c1.191,0.436,2.38,0.866,3.562,1.289
		c1.101,0.395,2.053,1.002,2.83,1.801c0.747,0.771,1.11,1.785,1.11,3.097c0,1.298-0.51,2.37-1.564,3.283
		c-1.948,1.729-5.177,2.606-9.598,2.606h-0.5v2.424h1.463c2.323,0,4.445-0.293,6.299-0.868c1.163-0.342,2.202-0.802,3.09-1.365
		c0.908-0.577,1.68-1.383,2.295-2.395c0.623-1.021,0.938-2.216,0.938-3.551C27.455,52.109,27.212,50.935,26.732,49.933z"/>
	<g>
		<g>
			<polygon fill="#FFDD00" points="20.182,0.894 20.904,2.356 22.518,2.591 21.35,3.729 21.625,5.337 20.182,4.578 18.738,5.337 
				19.014,3.729 17.846,2.591 19.459,2.356 			"/>
			<polygon fill="#FFDD00" points="20.182,17.409 20.904,18.872 22.518,19.106 21.35,20.245 21.625,21.853 20.182,21.094 
				18.738,21.853 19.014,20.245 17.846,19.106 19.459,18.872 			"/>
		</g>
		<g>
			<polygon fill="#FFDD00" points="9.701,11.374 11.164,10.651 11.399,9.037 12.537,10.205 14.146,9.929 13.387,11.374 
				14.146,12.817 12.537,12.542 11.399,13.709 11.164,12.095 			"/>
			<polygon fill="#FFDD00" points="26.217,11.374 27.68,10.651 27.914,9.037 29.053,10.205 30.661,9.929 29.903,11.374 
				30.661,12.817 29.053,12.542 27.914,13.709 27.68,12.095 			"/>
		</g>
		<g>
			<polygon fill="#FFDD00" points="12.772,3.963 14.317,4.487 15.623,3.511 15.603,5.142 16.934,6.084 15.377,6.568 14.893,8.126 
				13.95,6.794 12.32,6.815 13.295,5.508 			"/>
			<polygon fill="#FFDD00" points="24.449,15.641 25.994,16.165 27.302,15.189 27.281,16.821 28.614,17.763 27.055,18.247 
				26.571,19.805 25.629,18.473 23.998,18.494 24.973,17.186 			"/>
		</g>
		<g>
			<polygon fill="#FFDD00" points="27.592,3.963 27.069,5.508 28.043,6.815 26.412,6.794 25.471,8.126 24.987,6.568 23.428,6.084 
				24.76,5.143 24.74,3.511 26.047,4.487 			"/>
			<polygon fill="#FFDD00" points="15.913,15.641 15.39,17.186 16.365,18.494 14.735,18.473 13.792,19.805 13.308,18.247 
				11.75,17.763 13.082,16.821 13.061,15.189 14.369,16.165 			"/>
		</g>
	</g>
	<g>
		<polygon fill="#1A171B" points="52.265,21.894 60.665,18.085 60.665,53.874 63.793,53.874 63.793,13.391 52.265,18.726 		"/>
		<path fill="#1A171B" d="M111.116,14.233c-4.3,0-7.661,1.741-9.99,5.175c-2.287,3.374-3.446,8.253-3.446,14.505
			c0,6.252,1.188,11.16,3.531,14.59c2.384,3.489,5.688,5.258,9.821,5.258c4.139,0,7.343-1.745,9.522-5.188
			c2.132-3.37,3.213-8.236,3.213-14.463C123.768,20.92,119.511,14.233,111.116,14.233z M111.004,17.417
			c3.165,0,5.507,1.314,7.161,4.017c1.679,2.745,2.531,6.699,2.531,11.751c0,5.076-0.701,9.218-2.085,12.313
			c-0.707,1.589-1.724,2.856-3.023,3.771c-1.288,0.905-2.981,1.364-5.032,1.364c-2.044,0-3.814-0.794-5.41-2.425
			c-2.916-2.987-4.394-7.787-4.394-14.267c0-5.547,0.941-9.749,2.798-12.487C105.391,18.738,107.829,17.417,111.004,17.417z"/>
		<path fill="#1A171B" d="M153.339,14.233c-4.3,0-7.661,1.741-9.99,5.175c-2.287,3.374-3.446,8.253-3.446,14.505
			c0,6.252,1.188,11.16,3.531,14.59c2.384,3.489,5.688,5.258,9.821,5.258c4.139,0,7.342-1.745,9.523-5.188
			c2.132-3.37,3.213-8.237,3.213-14.463C165.99,20.92,161.734,14.233,153.339,14.233z M153.227,17.417
			c3.165,0,5.508,1.314,7.161,4.017c1.68,2.747,2.531,6.7,2.531,11.751c0,5.076-0.701,9.218-2.086,12.313
			c-0.706,1.589-1.724,2.857-3.021,3.771c-1.289,0.905-2.982,1.364-5.033,1.364c-2.044,0-3.814-0.794-5.41-2.425
			c-2.916-2.987-4.394-7.787-4.394-14.267c0-5.547,0.941-9.749,2.798-12.487C147.614,18.738,150.052,17.417,153.227,17.417z"/>
		<path fill="#1A171B" d="M184.195,14.233c-4.3,0-7.661,1.741-9.99,5.175c-2.287,3.373-3.446,8.253-3.446,14.505
			c0,6.253,1.188,11.162,3.531,14.59c2.385,3.489,5.688,5.258,9.821,5.258c4.139,0,7.342-1.745,9.522-5.188
			c2.133-3.372,3.214-8.238,3.214-14.463C196.847,20.92,192.59,14.233,184.195,14.233z M184.082,17.417
			c3.165,0,5.508,1.314,7.16,4.017c1.681,2.746,2.532,6.7,2.532,11.751c0,5.074-0.701,9.216-2.086,12.313
			c-0.705,1.588-1.722,2.856-3.021,3.771c-1.29,0.905-2.983,1.364-5.033,1.364c-2.045,0-3.814-0.794-5.41-2.425
			c-2.915-2.987-4.394-7.787-4.394-14.267c0-5.548,0.941-9.749,2.798-12.488C178.468,18.738,180.906,17.417,184.082,17.417z"/>
		<path fill="#1A171B" d="M215.05,14.233c-4.3,0-7.661,1.741-9.99,5.175c-2.286,3.372-3.445,8.252-3.445,14.505
			c0,6.254,1.188,11.162,3.53,14.59c2.384,3.489,5.688,5.258,9.821,5.258c4.139,0,7.342-1.745,9.522-5.188
			c2.133-3.372,3.214-8.238,3.214-14.463C227.702,20.92,223.446,14.233,215.05,14.233z M214.937,17.417
			c3.166,0,5.509,1.314,7.161,4.017c1.681,2.746,2.532,6.7,2.532,11.751c0,5.074-0.701,9.216-2.086,12.313
			c-0.705,1.588-1.722,2.856-3.021,3.771c-1.29,0.905-2.983,1.364-5.033,1.364c-2.045,0-3.814-0.794-5.41-2.425
			c-2.916-2.988-4.395-7.789-4.395-14.267c0-5.547,0.941-9.748,2.799-12.488C209.323,18.738,211.762,17.417,214.937,17.417z"/>
		<path fill="#1A171B" d="M271.431,33.96c-1.055-0.785-2.246-1.473-3.542-2.044c-1.272-0.562-2.556-1.075-3.813-1.525
			c-1.225-0.438-2.364-0.92-3.394-1.435c-2.146-1.038-3.19-2.54-3.19-4.59c0-2.446,0.741-4.283,2.265-5.616
			c1.523-1.33,3.514-2.004,5.915-2.004c2.494,0,5.216,0.261,8.088,0.776l0.588,0.105v-3.095l-0.421-0.068
			c-3.261-0.524-6.302-0.791-9.038-0.791c-2.837,0-5.312,0.908-7.359,2.7c-2.063,1.81-3.109,4.574-3.109,8.216
			c0,2.138,0.658,3.92,1.956,5.299c1.262,1.339,2.814,2.353,4.616,3.011c1.737,0.635,3.465,1.26,5.183,1.877
			c1.638,0.587,3.053,1.489,4.206,2.677c1.114,1.149,1.68,2.719,1.68,4.664c0,1.956-0.768,3.573-2.352,4.946
			c-2.879,2.555-7.629,3.85-14.117,3.85h-0.5v3.072h1.9c3.358,0,6.423-0.422,9.101-1.253c1.678-0.495,3.171-1.155,4.439-1.962
			c1.29-0.82,2.39-1.968,3.268-3.41c0.885-1.453,1.333-3.152,1.333-5.047c0-1.875-0.347-3.549-1.029-4.977
			C273.416,35.908,272.517,34.771,271.431,33.96z"/>
		<polygon fill="#1A171B" points="276.148,13.673 276.148,16.746 285.109,16.746 285.109,53.874 288.179,53.874 288.179,16.746 
			297.197,16.746 297.197,13.673 		"/>
		<path fill="#1A171B" d="M76.761,50.589l12.444-17.267c2.027-2.815,3.054-5.717,3.054-8.627c0-2.944-0.974-5.42-2.894-7.36
			c-1.923-1.941-4.354-2.924-7.227-2.924c-2.838,0-5.944,1.211-9.231,3.601l-0.235,0.171v3.301l0.879-0.565
			c3.456-2.22,6.216-3.347,8.204-3.347c1.986,0,3.685,0.634,5.193,1.935c1.482,1.282,2.203,3.05,2.203,5.407
			c0,0.83-0.206,1.747-0.612,2.729c-0.417,1.01-0.83,1.82-1.227,2.409c-0.418,0.615-1.025,1.485-1.818,2.604L70.273,53.75h22.422
			v-3.161H76.761z"/>
	</g>
</g>
</svg>
