<?xml version="1.0" encoding="utf-8"?>
<!-- Generator: Adobe Illustrator 15.0.2, SVG Export Plug-In . SVG Version: 6.00 Build 0)  -->
<!DOCTYPE svg PUBLIC "-//W3C//DTD SVG 1.1//EN" "http://www.w3.org/Graphics/SVG/1.1/DTD/svg11.dtd">
<svg version="1.1" id="Lager_1" xmlns="http://www.w3.org/2000/svg" xmlns:xlink="http://www.w3.org/1999/xlink" x="0px" y="0px"
	 width="316.112px" height="89.667px" viewBox="0 0 316.112 89.667" enable-background="new 0 0 316.112 89.667"
	 xml:space="preserve">
<g>
	<path fill="#FFFFFF" stroke="#000000" stroke-width="5" stroke-miterlimit="10" d="M313.612,82.167c0,2.761-2.238,5-5,5H7.5
		c-2.761,0-5-2.239-5-5V7.5c0-2.761,2.239-5,5-5h301.112c2.762,0,5,2.239,5,5V82.167z"/>
	<path fill="#0B72B5" d="M38.515,84.703H7.371c-1.109,0-2.522-1-2.522-2.11V7.511c0-1.292,1.229-2.542,2.522-2.542h31.144"/>
	<path fill="#FFFFFF" d="M28.233,60.684c-0.482-1.006-1.116-1.806-1.884-2.378c-0.73-0.543-1.559-1.021-2.463-1.422
		c-0.87-0.383-1.755-0.737-2.632-1.053c-0.834-0.297-1.612-0.625-2.319-0.98c-1.415-0.684-2.103-1.669-2.103-3.012
		c0-1.633,0.492-2.857,1.503-3.742c1.018-0.888,2.351-1.338,3.963-1.338c1.703,0,3.564,0.179,5.531,0.531l0.588,0.105v-2.448
		l-0.421-0.067c-2.252-0.362-4.351-0.545-6.237-0.545c-1.988,0-3.724,0.637-5.159,1.894c-1.455,1.274-2.192,3.213-2.192,5.764
		c0,1.512,0.467,2.774,1.388,3.75c0.883,0.938,1.971,1.647,3.233,2.109c1.192,0.436,2.381,0.867,3.562,1.29
		c1.101,0.396,2.054,1.002,2.831,1.801c0.747,0.771,1.11,1.784,1.11,3.096c0,1.297-0.51,2.37-1.564,3.283
		c-1.948,1.729-5.177,2.606-9.598,2.606h-0.5v2.424h1.463c2.322,0,4.444-0.292,6.299-0.868c1.163-0.342,2.203-0.801,3.091-1.365
		c0.907-0.577,1.679-1.383,2.294-2.395c0.623-1.021,0.939-2.216,0.939-3.551C28.956,62.861,28.712,61.688,28.233,60.684z"/>
	<g>
		<g>
			<polygon fill="#FFDD00" points="21.682,11.645 22.404,13.108 24.018,13.342 22.85,14.481 23.126,16.089 21.682,15.33 
				20.238,16.089 20.514,14.481 19.346,13.342 20.96,13.108 			"/>
			<polygon fill="#FFDD00" points="21.682,28.161 22.404,29.624 24.018,29.858 22.85,30.997 23.126,32.604 21.682,31.845 
				20.238,32.604 20.514,30.997 19.346,29.858 20.96,29.624 			"/>
		</g>
		<g>
			<polygon fill="#FFDD00" points="11.202,22.125 12.665,21.403 12.899,19.789 14.038,20.957 15.646,20.681 14.887,22.125 
				15.646,23.569 14.038,23.293 12.899,24.461 12.665,22.847 			"/>
			<polygon fill="#FFDD00" points="27.718,22.125 29.181,21.403 29.415,19.789 30.554,20.957 32.162,20.681 31.402,22.125 
				32.162,23.569 30.554,23.293 29.415,24.461 29.181,22.847 			"/>
		</g>
		<g>
			<polygon fill="#FFDD00" points="14.271,14.714 15.816,15.238 17.124,14.263 17.103,15.894 18.435,16.835 16.877,17.32 
				16.393,18.878 15.451,17.546 13.82,17.567 14.795,16.259 			"/>
			<polygon fill="#FFDD00" points="25.95,26.393 27.495,26.917 28.802,25.941 28.781,27.572 30.113,28.514 28.555,28.999 
				28.071,30.556 27.129,29.224 25.498,29.245 26.474,27.938 			"/>
		</g>
		<g>
			<polygon fill="#FFDD00" points="29.092,14.714 28.568,16.259 29.544,17.567 27.913,17.546 26.971,18.878 26.486,17.32 
				24.929,16.836 26.261,15.894 26.24,14.263 27.547,15.238 			"/>
			<polygon fill="#FFDD00" points="17.414,26.393 16.89,27.938 17.866,29.245 16.234,29.224 15.292,30.556 14.808,28.999 
				13.25,28.514 14.583,27.572 14.562,25.941 15.869,26.917 			"/>
		</g>
	</g>
	<g>
		<polygon points="67.654,32.645 76.054,28.837 76.054,64.625 79.182,64.625 79.182,24.143 67.654,29.478 		"/>
		<path d="M98.729,24.985c-4.3,0-7.661,1.741-9.99,5.175c-2.287,3.374-3.446,8.253-3.446,14.505c0,6.252,1.188,11.161,3.531,14.59
			c2.384,3.489,5.688,5.258,9.821,5.258c4.139,0,7.343-1.746,9.522-5.189c2.132-3.37,3.213-8.236,3.213-14.463
			C111.381,31.672,107.125,24.985,98.729,24.985z M98.618,28.169c3.165,0,5.507,1.314,7.161,4.017
			c1.679,2.745,2.531,6.699,2.531,11.751c0,5.076-0.701,9.218-2.085,12.313c-0.707,1.588-1.724,2.857-3.023,3.77
			c-1.288,0.906-2.981,1.365-5.032,1.365c-2.044,0-3.814-0.793-5.41-2.425c-2.916-2.987-4.394-7.788-4.394-14.267
			c0-5.547,0.941-9.749,2.798-12.487C93.004,29.489,95.442,28.169,98.618,28.169z"/>
		<path d="M140.952,24.985c-4.3,0-7.661,1.741-9.99,5.175c-2.287,3.374-3.446,8.253-3.446,14.505c0,6.252,1.188,11.161,3.531,14.59
			c2.384,3.489,5.688,5.258,9.821,5.258c4.139,0,7.343-1.746,9.522-5.189c2.132-3.37,3.213-8.236,3.213-14.463
			C153.604,31.672,149.347,24.985,140.952,24.985z M140.84,28.169c3.165,0,5.507,1.314,7.161,4.017
			c1.679,2.745,2.531,6.699,2.531,11.751c0,5.076-0.701,9.218-2.085,12.313c-0.707,1.588-1.724,2.857-3.023,3.77
			c-1.288,0.906-2.981,1.365-5.032,1.365c-2.044,0-3.814-0.793-5.41-2.425c-2.916-2.987-4.394-7.788-4.394-14.267
			c0-5.547,0.941-9.749,2.798-12.487C135.227,29.489,137.665,28.169,140.84,28.169z"/>
		<path d="M171.808,24.985c-4.3,0-7.661,1.741-9.99,5.175c-2.287,3.374-3.446,8.253-3.446,14.505c0,6.252,1.188,11.161,3.531,14.59
			c2.384,3.489,5.688,5.258,9.821,5.258c4.139,0,7.343-1.746,9.523-5.188c2.132-3.37,3.213-8.236,3.213-14.464
			C184.459,31.672,180.203,24.985,171.808,24.985z M171.696,28.169c3.165,0,5.507,1.314,7.161,4.017
			c1.679,2.745,2.53,6.699,2.53,11.751c0,5.077-0.701,9.219-2.084,12.313c-0.707,1.588-1.724,2.857-3.023,3.77
			c-1.288,0.906-2.981,1.365-5.032,1.365c-2.044,0-3.814-0.793-5.41-2.425c-2.916-2.987-4.394-7.788-4.394-14.267
			c0-5.547,0.941-9.749,2.798-12.487C166.083,29.489,168.521,28.169,171.696,28.169z"/>
		<path d="M202.663,24.985c-4.3,0-7.661,1.741-9.99,5.176c-2.286,3.374-3.445,8.253-3.445,14.504s1.188,11.16,3.53,14.59
			c2.386,3.489,5.689,5.258,9.821,5.258c4.141,0,7.344-1.746,9.522-5.188c2.133-3.369,3.214-8.235,3.214-14.464
			C215.315,31.672,211.058,24.985,202.663,24.985z M202.551,28.169c3.164,0,5.507,1.314,7.161,4.017
			c1.679,2.744,2.53,6.698,2.53,11.751c0,5.076-0.701,9.219-2.084,12.312c-0.707,1.589-1.725,2.857-3.024,3.771
			c-1.287,0.906-2.979,1.365-5.03,1.365c-2.046,0-3.816-0.793-5.412-2.425c-2.914-2.988-4.393-7.788-4.393-14.267
			c0-5.547,0.941-9.748,2.799-12.488C196.938,29.489,199.376,28.169,202.551,28.169z"/>
		<path d="M259.043,44.712c-1.054-0.784-2.244-1.472-3.54-2.044c-1.275-0.562-2.559-1.076-3.814-1.525
			c-1.23-0.44-2.37-0.922-3.395-1.435c-2.146-1.039-3.19-2.54-3.19-4.59c0-2.447,0.741-4.284,2.267-5.616
			c1.521-1.33,3.512-2.004,5.915-2.004c2.494,0,5.216,0.261,8.088,0.776l0.588,0.105v-3.095l-0.421-0.068
			c-3.261-0.524-6.303-0.791-9.04-0.791c-2.837,0-5.312,0.909-7.356,2.7c-2.064,1.808-3.11,4.572-3.11,8.216
			c0,2.139,0.657,3.921,1.954,5.299c1.261,1.338,2.814,2.352,4.618,3.011c1.735,0.635,3.463,1.26,5.183,1.877
			c1.636,0.586,3.051,1.487,4.204,2.677c1.114,1.149,1.68,2.719,1.68,4.664c0,1.957-0.768,3.573-2.352,4.946
			c-2.877,2.555-7.626,3.85-14.115,3.85h-0.5v3.072h1.898c3.36,0,6.425-0.422,9.103-1.252c1.678-0.495,3.171-1.155,4.439-1.961
			c1.291-0.822,2.391-1.969,3.266-3.41c0.885-1.454,1.333-3.152,1.333-5.048c0-1.878-0.347-3.553-1.029-4.976
			C261.031,46.659,260.131,45.523,259.043,44.712z"/>
		<polygon points="263.76,24.425 263.76,27.497 272.721,27.497 272.721,64.625 275.793,64.625 275.793,27.497 284.809,27.497 
			284.809,24.425 		"/>
	</g>
</g>
</svg>
