<?xml version="1.0" encoding="utf-8"?>
<!-- Generator: Adobe Illustrator 15.0.2, SVG Export Plug-In . SVG Version: 6.00 Build 0)  -->
<!DOCTYPE svg PUBLIC "-//W3C//DTD SVG 1.1//EN" "http://www.w3.org/Graphics/SVG/1.1/DTD/svg11.dtd">
<svg version="1.1" id="Lager_1" xmlns="http://www.w3.org/2000/svg" xmlns:xlink="http://www.w3.org/1999/xlink" x="0px" y="0px"
	 width="71.796px" height="79.915px" viewBox="0 0 71.796 79.915" enable-background="new 0 0 71.796 79.915" xml:space="preserve">
<g>
	
		<path fill="#FFFFFF" stroke="#FFFFFF" stroke-width="1.3677" stroke-linecap="round" stroke-linejoin="round" stroke-miterlimit="10" d="
		M62.595,37c0.055-0.481,0.083-0.973,0.083-1.468c0-5.436-3.282-10.174-8.151-12.706c-0.369-4.886-4.98-8.917-11.113-10.057
		l9.56-6.664l-0.43-4.557l-4.304-0.865l-10.937,11.88L25.743,1.137l-4.402,1.25l-0.07,4.388L32.6,13.902
		c-2.231,0.963-4.095,2.347-5.391,4.01c-4.339,1.78-7.52,5.459-8.227,9.863c-5.748,1.91-9.969,6.667-10.562,12.375
		c-4.729,3.599-7.737,8.98-7.737,14.999c0,10.798,9.676,19.556,21.635,19.612c3.955,2.8,8.938,4.47,14.355,4.47
		c7.231,0,13.691-2.972,17.964-7.635c9.463-2.125,16.475-9.838,16.475-19.032C71.112,46.22,67.772,40.587,62.595,37z"/>
	
		<path fill="#FFFFFF" stroke="#FFFFFF" stroke-width="1.3677" stroke-linecap="round" stroke-linejoin="round" stroke-miterlimit="10" d="
		M62.595,37c0.055-0.481,0.083-0.973,0.083-1.468c0-5.436-3.282-10.174-8.151-12.706c-0.369-4.886-4.98-8.917-11.113-10.057
		l9.56-6.664l-0.43-4.557l-4.304-0.865l-10.937,11.88L25.743,1.137l-4.402,1.25l-0.07,4.388L32.6,13.902
		c-2.231,0.963-4.095,2.347-5.391,4.01c-4.339,1.78-7.52,5.459-8.227,9.863c-5.748,1.91-9.969,6.667-10.562,12.375
		c-4.729,3.599-7.737,8.98-7.737,14.999c0,10.798,9.676,19.556,21.635,19.612c3.955,2.8,8.938,4.47,14.355,4.47
		c7.231,0,13.691-2.972,17.964-7.635c9.463-2.125,16.475-9.838,16.475-19.032C71.112,46.22,67.772,40.587,62.595,37z"/>
	
		<path fill="#F6F6F6" stroke="#F6F6F6" stroke-width="0.3667" stroke-linecap="round" stroke-linejoin="round" stroke-miterlimit="10" d="
		M37.303,12.563L25.743,1.137l-4.402,1.25l-0.07,4.388L32.6,13.902c-2.231,0.963-4.095,2.347-5.391,4.01
		c-4.339,1.78-7.52,5.459-8.227,9.863c-5.748,1.91-9.969,6.667-10.562,12.375c-4.729,3.599-7.737,8.98-7.737,14.999
		c0,10.798,9.676,19.556,21.635,19.612c3.955,2.8,8.938,4.47,14.355,4.47"/>
</g>
</svg>
