<?xml version="1.0" encoding="utf-8"?>
<!-- Generator: Adobe Illustrator 17.0.0, SVG Export Plug-In . SVG Version: 6.00 Build 0)  -->
<!DOCTYPE svg PUBLIC "-//W3C//DTD SVG 1.1//EN" "http://www.w3.org/Graphics/SVG/1.1/DTD/svg11.dtd">
<svg version="1.1" id="Layer_1" xmlns="http://www.w3.org/2000/svg" xmlns:xlink="http://www.w3.org/1999/xlink" x="0px" y="0px"
	 width="205.529px" height="272.467px" viewBox="0 0 205.529 272.467" enable-background="new 0 0 205.529 272.467"
	 xml:space="preserve">
<g>
	<g>
		<path fill="none" stroke="#802175" stroke-width="7" stroke-linecap="round" stroke-linejoin="round" stroke-miterlimit="10" d="
			M123.812,266.877c-7.102,1.372-14.435,2.091-21.932,2.091c-7.69,0-15.269-0.748-22.65-2.21"/>
	</g>
	<g>
		<g>
			
				<path fill="#C79AC6" stroke="#951B81" stroke-width="5.0959" stroke-linecap="round" stroke-linejoin="round" stroke-miterlimit="10" d="
				M96.964,67.105c-0.268,0-0.534,0.001-0.801,0.003c-51.775,0.431-93.615,42.535-93.615,94.414
				c0,52.145,42.271,94.416,94.416,94.416V67.105z"/>
		</g>
		<g>
			
				<path fill="none" stroke="#951B81" stroke-width="5.0959" stroke-linecap="round" stroke-linejoin="round" stroke-miterlimit="10" d="
				M96.964,243.938c-45.444,0-82.416-36.972-82.416-82.416S51.52,79.105,96.964,79.105"/>
		</g>
		<g>
			
				<path fill="none" stroke="#951B81" stroke-width="5.0959" stroke-linecap="round" stroke-linejoin="round" stroke-miterlimit="10" d="
				M96.964,231.938c-38.828,0-70.416-31.589-70.416-70.416c0-38.827,31.588-70.417,70.416-70.417"/>
		</g>
		<g>
			
				<path fill="none" stroke="#951B81" stroke-width="5.0959" stroke-linecap="round" stroke-linejoin="round" stroke-miterlimit="10" d="
				M96.964,217.938c-31.108,0-56.416-25.309-56.416-56.416c0-31.108,25.308-56.417,56.416-56.417"/>
		</g>
	</g>
	<g>
		
			<path fill="#951B81" stroke="#951B81" stroke-width="5.0959" stroke-linecap="round" stroke-linejoin="round" stroke-miterlimit="10" d="
			M108.565,255.938c52.145,0,94.416-42.271,94.416-94.416c0-52.146-42.271-94.417-94.416-94.417V255.938z"/>
	</g>
	<g>
		
			<path fill="#802175" stroke="#802175" stroke-width="5.0959" stroke-linecap="round" stroke-linejoin="round" stroke-miterlimit="10" d="
			M202.981,161.522c0,52.145-42.271,94.416-94.416,94.416v-94.416H202.981z"/>
	</g>
	<g>
		<path fill="none" stroke="#802175" stroke-width="7" stroke-linecap="round" stroke-linejoin="round" stroke-miterlimit="10" d="
			M111.855,17.966l8,37.334c0,6.811-11.521-4.333-18.333-4.333l0,0c-6.812,0-18.333,11.145-18.333,4.333l8-37.334"/>
	</g>
	<g>
		
			<line fill="none" stroke="#951B81" stroke-width="5.0959" stroke-linecap="round" stroke-linejoin="round" stroke-miterlimit="10" x1="101.522" y1="39.736" x2="101.522" y2="2.548"/>
	</g>
</g>
</svg>
