<?xml version="1.0" encoding="utf-8"?>
<!-- Generator: Adobe Illustrator 17.1.0, SVG Export Plug-In . SVG Version: 6.00 Build 0)  -->
<!DOCTYPE svg PUBLIC "-//W3C//DTD SVG 1.1//EN" "http://www.w3.org/Graphics/SVG/1.1/DTD/svg11.dtd">
<svg version="1.1" id="Layer_1" xmlns="http://www.w3.org/2000/svg" xmlns:xlink="http://www.w3.org/1999/xlink" x="0px" y="0px"
	 width="126.557px" height="121.004px" viewBox="0 0 126.557 121.004" enable-background="new 0 0 126.557 121.004"
	 xml:space="preserve">
<g>
	
		<path fill="#EAC9A1" stroke="#EAC9A1" stroke-width="3.1811" stroke-linecap="round" stroke-linejoin="round" stroke-miterlimit="10" d="
		M63.279,4.152V108.51v7.127c-12.189-2.308-52.12,1.106-52.12,1.106c-4.15,0-7.515-3.364-7.515-7.514l9.285-70.469
		c0,0-7.54-3.12-7.065-14.692C8.819,6.217,28.974,4.128,58.226,4.128C59.943,4.128,61.626,4.135,63.279,4.152
		c-1.194,2.616-1.865,5.521-1.865,8.584"/>
	<path fill="#FFEED3" d="M63.279,4.152V108.51v7.127c12.189-2.308,52.121,1.106,52.121,1.106c4.15,0,7.514-3.364,7.514-7.514
		l-9.285-70.469c0,0,7.54-3.12,7.065-14.692C117.738,6.217,97.584,4.128,68.331,4.128C66.614,4.128,64.931,4.135,63.279,4.152
		c1.194,2.616-7.166-3.088-7.166-0.025"/>
	
		<path fill="#FEDFBC" stroke="#FEDFBC" stroke-width="3.1811" stroke-linecap="round" stroke-linejoin="round" stroke-miterlimit="10" d="
		M63.279,4.152V108.51v7.127c-12.189-2.308-52.12,1.106-52.12,1.106c-4.15,0-7.515-3.364-7.515-7.514l9.285-70.469
		c0,0-7.54-3.12-7.065-14.692C8.819,6.217,28.974,4.128,58.226,4.128C59.943,4.128,61.626,4.135,63.279,4.152
		c-1.194,2.616-1.865,5.521-1.865,8.584"/>
	<path fill="none" stroke="#FCC87E" stroke-width="6" stroke-linecap="round" stroke-linejoin="round" stroke-miterlimit="10" d="
		M116.042,118.004c4.15,0,7.515-3.364,7.515-7.515l-9.284-70.479c0,0,7.82-1.812,7.065-14.694
		C118.652,6.169,93.844,2.867,63.279,3.004C31.99,2.867,7.906,6.169,5.219,25.317C4.464,38.2,12.284,40.011,12.284,40.011L3,110.49
		c0,4.15,3.364,7.515,7.515,7.515C10.515,118.004,48.199,115.019,116.042,118.004z"/>
</g>
</svg>
