<?xml version="1.0" encoding="utf-8"?>
<!-- Generator: Adobe Illustrator 15.0.2, SVG Export Plug-In . SVG Version: 6.00 Build 0)  -->
<!DOCTYPE svg PUBLIC "-//W3C//DTD SVG 1.1//EN" "http://www.w3.org/Graphics/SVG/1.1/DTD/svg11.dtd">
<svg version="1.1" id="Lager_1" xmlns="http://www.w3.org/2000/svg" xmlns:xlink="http://www.w3.org/1999/xlink" x="0px" y="0px"
	 width="260.239px" height="398.681px" viewBox="0 0 260.239 398.681" enable-background="new 0 0 260.239 398.681"
	 xml:space="preserve">
<g>
	<g>
		
			<rect x="105.302" y="50.486" transform="matrix(0.3777 -0.9259 0.9259 0.3777 23.8697 177.7921)" fill="#FFFFFF" stroke="#FFFFFF" stroke-width="0.1704" stroke-miterlimit="10" width="77.817" height="41.302"/>
		<g>
			<defs>
				<polygon id="SVGID_1_" points="172.894,44.417 154.223,90.185 122.143,76.37 140.815,30.599 				"/>
			</defs>
			<clipPath id="SVGID_2_">
				<use xlink:href="#SVGID_1_"  overflow="visible"/>
			</clipPath>
			<g clip-path="url(#SVGID_2_)">
				<path fill="#139383" d="M118.134,163.438l-1.033,2.532c1.477,2.491,1.385,5.583,0.383,8.04c-1.003,2.457-3.101,4.73-5.897,5.478
					l-1.032,2.53c-1.407,3.45,0.248,7.385,3.697,8.793l6.293,3.297l12.931-31.696l-6.549-2.672
					C123.477,158.334,119.541,159.991,118.134,163.438z"/>
				<path fill="#139383" d="M120.42,194.413l-6.294-3.297c-3.611-1.473-5.351-5.61-3.877-9.222l1.032-2.53
					c0.039-0.096,0.12-0.168,0.22-0.193c2.476-0.662,4.598-2.638,5.678-5.285c1.079-2.646,0.944-5.543-0.36-7.747
					c-0.054-0.089-0.061-0.197-0.022-0.292l1.033-2.532c1.473-3.61,5.609-5.351,9.221-3.877l6.549,2.672 M120.365,193.681
					l12.682-31.088l-6.244-2.547c-3.275-1.336-7.028,0.241-8.364,3.518l-0.972,2.382c1.335,2.36,1.458,5.409,0.322,8.19
					c-1.133,2.779-3.353,4.871-5.959,5.626l-0.971,2.382c-1.338,3.276,0.24,7.028,3.517,8.364L120.365,193.681z"/>
			</g>
			<g clip-path="url(#SVGID_2_)">
				<g>
					<path fill="#139383" d="M99.989,177.594c-5.624-2.295-8.489-8.303-6.401-13.422s8.338-7.408,13.962-5.113
						c5.624,2.293,10.062,8.943,7.975,14.062C113.435,178.241,105.611,179.888,99.989,177.594z"/>
					<path fill="#139383" d="M115.646,173.17c-2.157,5.289-10.216,6.787-15.707,4.546c-5.683-2.317-8.586-8.415-6.474-13.595
						c2.112-5.178,8.452-7.504,14.135-5.186C113.091,161.176,117.803,167.882,115.646,173.17z M93.71,164.221
						c-2.059,5.044,0.781,10.986,6.328,13.25c5.379,2.193,13.262,0.75,15.363-4.4c2.101-5.15-2.523-11.695-7.902-13.89
						C101.953,156.918,95.767,159.18,93.71,164.221z"/>
				</g>
			</g>
		</g>
		<polygon fill="#F6F6F6" stroke="#F6F6F6" stroke-width="0.1704" stroke-linejoin="round" stroke-miterlimit="10" points="
			178.029,42.912 148.634,114.963 110.392,99.363 		"/>
		
			<rect x="122.077" y="43.393" transform="matrix(0.3777 -0.9259 0.9259 0.3777 34.9578 175.4956)" fill="#855156" stroke="#855156" stroke-width="0.1312" stroke-miterlimit="10" width="51.937" height="36.693"/>
		<polygon fill="#673B45" stroke="#673B45" stroke-width="0.1312" stroke-miterlimit="10" points="174.841,44.625 155.223,92.714 
			121.249,78.854 		"/>
		<g>
			
				<path fill="#673B45" stroke="#673B45" stroke-width="0.3374" stroke-linecap="round" stroke-linejoin="round" stroke-miterlimit="10" d="
				M119.791,91.038c0.963,0.392,1.635,0.856,2.018,1.393c0.384,0.538,0.447,1.117,0.194,1.739c-0.253,0.62-0.715,1.003-1.386,1.147
				c-0.672,0.145-1.49,0.02-2.455-0.374s-1.636-0.871-2.008-1.431c-0.374-0.561-0.428-1.165-0.164-1.812
				C116.505,90.434,117.773,90.213,119.791,91.038z M119.515,91.301c-0.809-0.33-1.488-0.448-2.043-0.358
				c-0.554,0.09-0.937,0.396-1.148,0.915c-0.212,0.518-0.158,1.018,0.164,1.498c0.32,0.482,0.924,0.904,1.811,1.266
				c1.038,0.424,1.895,0.497,2.571,0.223c0.377-0.152,0.633-0.398,0.771-0.736c0.137-0.338,0.174-0.646,0.111-0.924
				c-0.064-0.279-0.204-0.528-0.419-0.752C120.929,92.008,120.323,91.63,119.515,91.301z"/>
			
				<path fill="#673B45" stroke="#673B45" stroke-width="0.3374" stroke-linecap="round" stroke-linejoin="round" stroke-miterlimit="10" d="
				M121.856,85.974c0.962,0.393,1.635,0.857,2.018,1.396c0.384,0.537,0.448,1.116,0.195,1.736c-0.254,0.621-0.717,1.004-1.388,1.148
				s-1.489,0.021-2.455-0.373c-0.964-0.395-1.635-0.871-2.007-1.432c-0.374-0.561-0.429-1.164-0.164-1.812
				C118.571,85.374,119.837,85.151,121.856,85.974z M121.58,86.239c-0.808-0.329-1.488-0.449-2.042-0.357
				c-0.555,0.089-0.937,0.395-1.148,0.912c-0.212,0.52-0.157,1.02,0.163,1.502c0.321,0.48,0.925,0.902,1.812,1.264
				c1.038,0.423,1.894,0.498,2.57,0.223c0.377-0.152,0.634-0.398,0.771-0.736c0.138-0.339,0.174-0.646,0.111-0.924
				c-0.064-0.278-0.203-0.529-0.417-0.754C122.995,86.946,122.387,86.569,121.58,86.239z"/>
			
				<path fill="#673B45" stroke="#673B45" stroke-width="0.3374" stroke-linecap="round" stroke-linejoin="round" stroke-miterlimit="10" d="
				M116.625,99.008l-3.164-1.291l1.064-2.609l0.325,0.133l-0.954,2.338l2.111,0.861c-0.101-0.35-0.086-0.688,0.045-1.01
				c0.237-0.58,0.597-0.944,1.08-1.096c0.485-0.152,0.997-0.117,1.534,0.102s0.96,0.575,1.267,1.068
				c0.306,0.494,0.359,0.99,0.155,1.488c-0.145,0.355-0.387,0.625-0.726,0.812c-0.34,0.187-0.68,0.219-1.025,0.096l0.12-0.295
				c0.23,0.07,0.472,0.033,0.724-0.107c0.251-0.142,0.442-0.371,0.572-0.689c0.165-0.404,0.122-0.8-0.128-1.189
				c-0.251-0.389-0.601-0.676-1.05-0.859c-0.45-0.184-0.881-0.214-1.293-0.092c-0.412,0.123-0.715,0.424-0.909,0.9
				c-0.097,0.239-0.12,0.489-0.07,0.75C116.354,98.581,116.462,98.81,116.625,99.008z"/>
		</g>
		<g>
			
				<path fill="#B28086" stroke="#B28086" stroke-width="0.3374" stroke-linecap="round" stroke-linejoin="round" stroke-miterlimit="10" d="
				M168.004,49.061c0.962,0.393,1.635,0.857,2.018,1.394c0.383,0.538,0.448,1.116,0.194,1.739c-0.254,0.62-0.716,1.004-1.387,1.148
				c-0.673,0.145-1.49,0.02-2.455-0.374c-0.964-0.394-1.635-0.872-2.007-1.433c-0.374-0.561-0.429-1.164-0.164-1.811
				C164.719,48.459,165.987,48.238,168.004,49.061z M167.728,49.327c-0.808-0.33-1.489-0.449-2.042-0.359
				c-0.555,0.091-0.937,0.395-1.148,0.914s-0.158,1.02,0.163,1.501c0.319,0.481,0.923,0.901,1.811,1.264
				c1.037,0.423,1.896,0.497,2.572,0.222c0.375-0.151,0.632-0.398,0.77-0.736s0.175-0.646,0.112-0.924
				c-0.063-0.277-0.203-0.527-0.419-0.752C169.142,50.033,168.537,49.656,167.728,49.327z"/>
			
				<path fill="#B28086" stroke="#B28086" stroke-width="0.3374" stroke-linecap="round" stroke-linejoin="round" stroke-miterlimit="10" d="
				M170.069,44c0.962,0.392,1.635,0.855,2.019,1.393c0.382,0.537,0.448,1.116,0.194,1.737c-0.254,0.622-0.717,1.004-1.388,1.149
				c-0.671,0.143-1.489,0.019-2.454-0.375c-0.964-0.394-1.635-0.87-2.007-1.431c-0.374-0.561-0.429-1.165-0.164-1.812
				C166.785,43.397,168.051,43.176,170.069,44z M169.793,44.264c-0.808-0.33-1.489-0.451-2.043-0.359
				c-0.554,0.09-0.937,0.396-1.147,0.914c-0.212,0.52-0.158,1.019,0.162,1.5c0.32,0.48,0.925,0.903,1.812,1.266
				c1.037,0.423,1.895,0.496,2.571,0.222c0.376-0.153,0.633-0.399,0.77-0.737c0.139-0.337,0.176-0.645,0.113-0.923
				c-0.064-0.278-0.203-0.529-0.419-0.751C171.208,44.969,170.601,44.593,169.793,44.264z"/>
			
				<path fill="#B28086" stroke="#B28086" stroke-width="0.3374" stroke-linecap="round" stroke-linejoin="round" stroke-miterlimit="10" d="
				M164.839,57.032l-3.164-1.291l1.064-2.609l0.323,0.133l-0.954,2.338l2.114,0.862c-0.104-0.35-0.088-0.687,0.044-1.01
				c0.236-0.579,0.596-0.943,1.08-1.097c0.485-0.15,0.996-0.117,1.534,0.102c0.537,0.22,0.96,0.576,1.266,1.07
				c0.307,0.492,0.358,0.988,0.155,1.487c-0.146,0.354-0.387,0.625-0.725,0.812c-0.34,0.188-0.682,0.219-1.026,0.098l0.12-0.296
				c0.231,0.07,0.473,0.033,0.724-0.108c0.253-0.14,0.443-0.37,0.573-0.688c0.164-0.403,0.121-0.8-0.128-1.188
				c-0.251-0.391-0.601-0.678-1.051-0.861c-0.449-0.184-0.881-0.213-1.292-0.09c-0.412,0.122-0.715,0.422-0.909,0.9
				c-0.097,0.238-0.122,0.487-0.071,0.75C164.568,56.605,164.675,56.836,164.839,57.032z"/>
		</g>
	</g>
	<g>
		
			<rect x="91.329" y="23.287" transform="matrix(0.3777 -0.9259 0.9259 0.3777 40.3592 147.9297)" fill="#FFFFFF" stroke="#FFFFFF" stroke-width="0.1704" stroke-miterlimit="10" width="77.817" height="41.302"/>
		<g>
			<defs>
				<polygon id="SVGID_3_" points="158.921,17.217 140.25,62.986 108.17,49.17 126.842,3.4 				"/>
			</defs>
			<clipPath id="SVGID_4_">
				<use xlink:href="#SVGID_3_"  overflow="visible"/>
			</clipPath>
			<g clip-path="url(#SVGID_4_)">
				<path fill="#139383" d="M104.162,136.239l-1.033,2.532c1.477,2.491,1.385,5.583,0.383,8.04c-1.003,2.457-3.101,4.73-5.897,5.478
					l-1.032,2.53c-1.407,3.45,0.248,7.386,3.697,8.793l6.293,3.297l12.931-31.695l-6.549-2.672
					C109.504,131.135,105.568,132.792,104.162,136.239z"/>
				<path fill="#139383" d="M106.448,167.214l-6.294-3.298c-3.611-1.473-5.351-5.609-3.877-9.222l1.032-2.53
					c0.039-0.096,0.12-0.168,0.22-0.193c2.476-0.662,4.598-2.638,5.678-5.285c1.079-2.646,0.944-5.543-0.36-7.747
					c-0.054-0.089-0.061-0.197-0.022-0.292l1.033-2.532c1.473-3.61,5.609-5.351,9.221-3.877l6.549,2.672 M106.392,166.481
					l12.682-31.088l-6.244-2.547c-3.275-1.336-7.028,0.241-8.364,3.518l-0.972,2.382c1.335,2.36,1.458,5.409,0.322,8.19
					c-1.133,2.779-3.353,4.871-5.959,5.626l-0.971,2.382c-1.338,3.276,0.24,7.027,3.517,8.363L106.392,166.481z"/>
			</g>
			<g clip-path="url(#SVGID_4_)">
				<g>
					<path fill="#139383" d="M86.016,150.395c-5.624-2.295-8.489-8.303-6.401-13.422s8.338-7.408,13.962-5.113
						c5.624,2.293,10.062,8.943,7.975,14.062C99.462,151.042,91.638,152.689,86.016,150.395z"/>
					<path fill="#139383" d="M101.673,145.971c-2.157,5.289-10.216,6.787-15.707,4.546c-5.683-2.317-8.586-8.415-6.474-13.595
						c2.112-5.178,8.452-7.504,14.135-5.186C99.119,133.977,103.831,140.683,101.673,145.971z M79.738,137.022
						c-2.059,5.044,0.781,10.986,6.328,13.25c5.379,2.193,13.262,0.75,15.363-4.4c2.101-5.15-2.523-11.695-7.902-13.89
						C87.98,129.719,81.794,131.981,79.738,137.022z"/>
				</g>
			</g>
		</g>
		<polygon fill="#F6F6F6" stroke="#F6F6F6" stroke-width="0.1704" stroke-linejoin="round" stroke-miterlimit="10" points="
			164.056,15.712 134.662,87.764 96.419,72.164 		"/>
		
			<rect x="108.104" y="16.194" transform="matrix(0.3777 -0.9259 0.9259 0.3777 51.4472 145.6329)" fill="#855156" stroke="#855156" stroke-width="0.1312" stroke-miterlimit="10" width="51.937" height="36.693"/>
		<polygon fill="#673B45" stroke="#673B45" stroke-width="0.1312" stroke-miterlimit="10" points="160.869,17.426 141.25,65.515 
			107.276,51.655 		"/>
		<g>
			
				<path fill="#673B45" stroke="#673B45" stroke-width="0.3374" stroke-linecap="round" stroke-linejoin="round" stroke-miterlimit="10" d="
				M105.818,63.838c0.963,0.392,1.635,0.856,2.018,1.393c0.384,0.538,0.447,1.117,0.194,1.739c-0.253,0.62-0.715,1.003-1.386,1.147
				c-0.672,0.145-1.49,0.02-2.455-0.374s-1.636-0.871-2.008-1.431c-0.374-0.561-0.428-1.165-0.164-1.812
				C102.533,63.235,103.8,63.014,105.818,63.838z M105.542,64.102c-0.809-0.33-1.488-0.448-2.043-0.358
				c-0.554,0.09-0.937,0.396-1.148,0.915c-0.212,0.518-0.158,1.018,0.164,1.498c0.32,0.482,0.924,0.904,1.811,1.266
				c1.038,0.424,1.895,0.497,2.571,0.223c0.377-0.152,0.633-0.398,0.771-0.736c0.137-0.338,0.174-0.646,0.111-0.924
				c-0.064-0.279-0.204-0.528-0.419-0.752C106.957,64.809,106.35,64.431,105.542,64.102z"/>
			
				<path fill="#673B45" stroke="#673B45" stroke-width="0.3374" stroke-linecap="round" stroke-linejoin="round" stroke-miterlimit="10" d="
				M107.883,58.775c0.962,0.393,1.635,0.857,2.018,1.396c0.384,0.537,0.448,1.116,0.195,1.736c-0.254,0.621-0.717,1.004-1.388,1.148
				s-1.489,0.021-2.455-0.373c-0.964-0.395-1.635-0.871-2.007-1.432c-0.374-0.561-0.429-1.164-0.164-1.812
				C104.598,58.174,105.865,57.952,107.883,58.775z M107.607,59.04c-0.808-0.329-1.488-0.449-2.042-0.357
				c-0.555,0.089-0.937,0.395-1.148,0.912c-0.212,0.52-0.157,1.02,0.163,1.502c0.321,0.48,0.925,0.902,1.812,1.264
				c1.038,0.423,1.894,0.498,2.57,0.223c0.377-0.152,0.634-0.398,0.771-0.736c0.138-0.339,0.174-0.646,0.111-0.924
				c-0.064-0.278-0.203-0.529-0.417-0.754C109.022,59.747,108.415,59.37,107.607,59.04z"/>
			
				<path fill="#673B45" stroke="#673B45" stroke-width="0.3374" stroke-linecap="round" stroke-linejoin="round" stroke-miterlimit="10" d="
				M102.653,71.809l-3.164-1.291l1.064-2.609l0.325,0.133l-0.954,2.338l2.111,0.861c-0.101-0.35-0.086-0.688,0.045-1.01
				c0.237-0.58,0.597-0.944,1.08-1.096c0.485-0.152,0.997-0.117,1.534,0.102s0.96,0.575,1.267,1.068
				c0.306,0.494,0.359,0.99,0.155,1.488c-0.145,0.355-0.387,0.625-0.726,0.812c-0.34,0.187-0.68,0.219-1.025,0.096l0.12-0.295
				c0.23,0.07,0.472,0.033,0.724-0.107c0.251-0.142,0.442-0.371,0.572-0.689c0.165-0.404,0.122-0.8-0.128-1.189
				c-0.251-0.389-0.601-0.676-1.05-0.859c-0.45-0.184-0.881-0.214-1.293-0.092c-0.412,0.123-0.715,0.424-0.909,0.9
				c-0.097,0.239-0.12,0.489-0.07,0.75C102.381,71.381,102.49,71.611,102.653,71.809z"/>
		</g>
		<g>
			
				<path fill="#B28086" stroke="#B28086" stroke-width="0.3374" stroke-linecap="round" stroke-linejoin="round" stroke-miterlimit="10" d="
				M154.032,21.862c0.962,0.393,1.635,0.857,2.018,1.394c0.383,0.538,0.448,1.116,0.194,1.739c-0.254,0.62-0.716,1.004-1.387,1.148
				c-0.673,0.145-1.49,0.02-2.455-0.374c-0.964-0.394-1.635-0.872-2.007-1.433c-0.374-0.561-0.429-1.164-0.164-1.811
				C150.747,21.26,152.014,21.039,154.032,21.862z M153.755,22.127c-0.808-0.33-1.489-0.449-2.042-0.359
				c-0.555,0.091-0.937,0.395-1.148,0.914s-0.158,1.02,0.163,1.501c0.319,0.481,0.923,0.901,1.811,1.264
				c1.037,0.423,1.896,0.497,2.572,0.222c0.375-0.151,0.632-0.398,0.77-0.736s0.175-0.646,0.112-0.924
				c-0.063-0.277-0.203-0.527-0.419-0.752C155.169,22.833,154.564,22.457,153.755,22.127z"/>
			
				<path fill="#B28086" stroke="#B28086" stroke-width="0.3374" stroke-linecap="round" stroke-linejoin="round" stroke-miterlimit="10" d="
				M156.096,16.801c0.962,0.392,1.635,0.855,2.019,1.393c0.382,0.537,0.448,1.116,0.194,1.737c-0.254,0.622-0.717,1.004-1.388,1.149
				c-0.671,0.143-1.489,0.019-2.454-0.375c-0.964-0.394-1.635-0.87-2.007-1.431c-0.374-0.561-0.429-1.165-0.164-1.812
				C152.812,16.198,154.079,15.977,156.096,16.801z M155.821,17.065c-0.808-0.33-1.489-0.451-2.043-0.359
				c-0.554,0.09-0.937,0.396-1.147,0.914c-0.212,0.52-0.158,1.019,0.162,1.5c0.32,0.48,0.925,0.903,1.812,1.266
				c1.037,0.423,1.895,0.496,2.571,0.222c0.376-0.153,0.633-0.399,0.77-0.737c0.139-0.337,0.176-0.645,0.113-0.923
				c-0.064-0.278-0.203-0.529-0.419-0.751C157.235,17.77,156.628,17.394,155.821,17.065z"/>
			
				<path fill="#B28086" stroke="#B28086" stroke-width="0.3374" stroke-linecap="round" stroke-linejoin="round" stroke-miterlimit="10" d="
				M150.867,29.833l-3.164-1.291l1.064-2.609l0.323,0.133l-0.954,2.338l2.114,0.862c-0.104-0.35-0.088-0.687,0.044-1.01
				c0.236-0.579,0.596-0.943,1.08-1.097c0.485-0.15,0.996-0.117,1.534,0.102c0.537,0.22,0.96,0.576,1.266,1.07
				c0.307,0.492,0.358,0.988,0.155,1.487c-0.146,0.354-0.387,0.625-0.725,0.812c-0.34,0.188-0.682,0.219-1.026,0.098l0.12-0.296
				c0.231,0.07,0.473,0.033,0.724-0.108c0.253-0.14,0.443-0.37,0.573-0.688c0.164-0.403,0.121-0.8-0.128-1.188
				c-0.251-0.391-0.601-0.678-1.051-0.861c-0.449-0.184-0.881-0.213-1.292-0.09c-0.412,0.122-0.715,0.422-0.909,0.9
				c-0.097,0.238-0.122,0.487-0.071,0.75C150.595,29.406,150.703,29.637,150.867,29.833z"/>
		</g>
	</g>
	<g>
		
			<rect x="72.764" y="44.821" transform="matrix(0.3742 0.9273 -0.9273 0.3742 130.5968 -62.5871)" fill="#FFFFFF" stroke="#FFFFFF" stroke-width="0.1704" stroke-miterlimit="10" width="77.817" height="41.302"/>
		<g>
			<defs>
				<polygon id="SVGID_5_" points="109.717,104.625 91.218,58.786 123.855,46.342 142.354,92.184 				"/>
			</defs>
			<clipPath id="SVGID_6_">
				<use xlink:href="#SVGID_5_"  overflow="visible"/>
			</clipPath>
			<g clip-path="url(#SVGID_6_)">
				<path fill="#139383" d="M66.063-18.904l-1.023-2.536c-2.795-0.758-4.883-3.04-5.877-5.5c-0.992-2.461-1.072-5.554,0.413-8.038
					l-1.022-2.535c-1.395-3.455-5.324-5.124-8.778-3.73l-6.812,2.02L55.774-7.479l6.559-2.647
					C65.786-11.519,67.457-15.45,66.063-18.904z"/>
				<path fill="#139383" d="M42.839-39.529l6.812-2.019c3.616-1.46,7.747,0.294,9.206,3.913l1.023,2.534
					c0.038,0.096,0.031,0.204-0.023,0.292c-1.313,2.199-1.459,5.095-0.39,7.746c1.069,2.65,3.185,4.634,5.657,5.306
					c0.1,0.026,0.181,0.099,0.219,0.194l1.023,2.536c1.459,3.616-0.296,7.747-3.912,9.206l-6.56,2.646 M43.391-39.041L55.956-7.906
					l6.254-2.523c3.28-1.324,4.873-5.071,3.549-8.351l-0.963-2.386c-2.603-0.763-4.814-2.864-5.938-5.649
					c-1.124-2.784-0.989-5.832,0.354-8.188l-0.963-2.385c-1.324-3.282-5.07-4.873-8.352-3.548L43.391-39.041z"/>
			</g>
			<g clip-path="url(#SVGID_6_)">
				<g>
					<path fill="#139383" d="M69.214-41.701c5.633-2.273,11.875,0.041,13.944,5.167c2.068,5.126-0.82,11.124-6.453,13.397
						c-5.632,2.273-13.449,0.595-15.518-4.53C59.12-32.794,63.583-39.428,69.214-41.701z"/>
					<path fill="#139383" d="M61.065-27.618c-2.137-5.297,2.601-11.986,8.101-14.206c5.69-2.297,12.022,0.054,14.115,5.241
						c2.093,5.186-0.834,11.272-6.526,13.568C71.256-20.794,63.204-22.321,61.065-27.618z M83.036-36.483
						c-2.038-5.052-8.215-7.336-13.771-5.094c-5.388,2.174-10.036,8.703-7.954,13.861c2.081,5.158,9.959,6.631,15.346,4.457
						C82.212-25.501,85.074-31.434,83.036-36.483z"/>
				</g>
			</g>
		</g>
		<polygon fill="#F6F6F6" stroke="#F6F6F6" stroke-width="0.1704" stroke-linejoin="round" stroke-miterlimit="10" points="
			107.083,109.282 77.961,37.119 116.262,21.663 		"/>
		
			<rect x="89.501" y="56.539" transform="matrix(0.3742 0.9273 -0.9273 0.3742 141.7019 -60.2181)" fill="#855156" stroke="#855156" stroke-width="0.1312" stroke-miterlimit="10" width="51.938" height="36.693"/>
		<polygon fill="#673B45" stroke="#673B45" stroke-width="0.1312" stroke-miterlimit="10" points="108.174,105.833 88.738,57.668 
			122.765,43.938 		"/>
		<g>
			
				<path fill="#673B45" stroke="#673B45" stroke-width="0.3374" stroke-linecap="round" stroke-linejoin="round" stroke-miterlimit="10" d="
				M115.323,34.182c-0.964,0.391-1.771,0.525-2.419,0.406c-0.649-0.117-1.099-0.488-1.351-1.111
				c-0.251-0.621-0.186-1.217,0.194-1.789c0.381-0.572,1.056-1.052,2.022-1.441c0.966-0.391,1.779-0.515,2.437-0.373
				c0.659,0.142,1.119,0.537,1.38,1.186C118.098,32.327,117.343,33.368,115.323,34.182z M115.336,33.801
				c0.81-0.326,1.38-0.715,1.715-1.166c0.334-0.45,0.396-0.936,0.187-1.456c-0.209-0.52-0.597-0.841-1.162-0.962
				s-1.292-0.004-2.181,0.355c-1.04,0.419-1.705,0.963-1.999,1.631c-0.164,0.373-0.178,0.727-0.04,1.066
				c0.137,0.338,0.326,0.584,0.563,0.74c0.24,0.154,0.515,0.236,0.824,0.248C113.829,34.28,114.527,34.128,115.336,33.801z"/>
			
				<path fill="#673B45" stroke="#673B45" stroke-width="0.3374" stroke-linecap="round" stroke-linejoin="round" stroke-miterlimit="10" d="
				M117.369,39.253c-0.963,0.389-1.77,0.524-2.42,0.405c-0.648-0.117-1.099-0.488-1.349-1.109c-0.251-0.623-0.187-1.219,0.193-1.791
				c0.381-0.57,1.056-1.052,2.022-1.442c0.966-0.39,1.779-0.515,2.436-0.372c0.66,0.141,1.119,0.537,1.382,1.186
				C120.144,37.395,119.39,38.438,117.369,39.253z M117.382,38.872c0.809-0.328,1.381-0.715,1.715-1.166
				c0.335-0.451,0.396-0.937,0.187-1.455c-0.21-0.521-0.597-0.842-1.162-0.963c-0.566-0.122-1.292-0.004-2.18,0.355
				c-1.041,0.42-1.707,0.962-2,1.631c-0.164,0.372-0.177,0.727-0.039,1.066c0.136,0.338,0.325,0.584,0.563,0.74
				c0.239,0.154,0.514,0.236,0.824,0.248C115.875,39.35,116.573,39.197,117.382,38.872z"/>
			
				<path fill="#673B45" stroke="#673B45" stroke-width="0.3374" stroke-linecap="round" stroke-linejoin="round" stroke-miterlimit="10" d="
				M112.039,26.26l3.17-1.279l1.054,2.613l-0.326,0.132l-0.944-2.342l-2.115,0.853c0.316,0.182,0.541,0.434,0.673,0.758
				c0.233,0.58,0.229,1.092-0.013,1.537c-0.242,0.447-0.633,0.779-1.171,0.996c-0.537,0.217-1.089,0.256-1.652,0.117
				c-0.563-0.142-0.947-0.461-1.149-0.96c-0.143-0.356-0.157-0.718-0.045-1.088c0.114-0.371,0.335-0.632,0.67-0.784l0.118,0.295
				c-0.215,0.111-0.362,0.305-0.443,0.582c-0.082,0.277-0.06,0.573,0.069,0.894c0.163,0.404,0.47,0.658,0.921,0.764
				c0.451,0.104,0.901,0.066,1.352-0.115c0.451-0.183,0.781-0.46,0.991-0.835c0.209-0.375,0.218-0.802,0.024-1.279
				c-0.097-0.239-0.255-0.435-0.472-0.588C112.531,26.377,112.294,26.288,112.039,26.26z"/>
		</g>
		<g>
			
				<path fill="#B28086" stroke="#B28086" stroke-width="0.3374" stroke-linecap="round" stroke-linejoin="round" stroke-miterlimit="10" d="
				M109.987,97.886c-0.962,0.389-1.77,0.524-2.418,0.406c-0.648-0.119-1.099-0.489-1.35-1.112c-0.251-0.621-0.187-1.219,0.193-1.789
				c0.382-0.572,1.055-1.053,2.021-1.443c0.966-0.39,1.779-0.514,2.438-0.371c0.659,0.143,1.119,0.537,1.38,1.185
				C112.763,96.029,112.008,97.071,109.987,97.886z M110,97.503c0.811-0.326,1.382-0.716,1.715-1.165
				c0.335-0.451,0.397-0.936,0.188-1.456s-0.597-0.842-1.163-0.963c-0.564-0.123-1.29-0.004-2.179,0.355
				c-1.039,0.419-1.707,0.964-2,1.633c-0.163,0.37-0.176,0.726-0.039,1.064s0.324,0.585,0.563,0.741
				c0.239,0.154,0.513,0.236,0.824,0.248C108.495,97.982,109.192,97.831,110,97.503z"/>
			
				<path fill="#B28086" stroke="#B28086" stroke-width="0.3374" stroke-linecap="round" stroke-linejoin="round" stroke-miterlimit="10" d="
				M112.034,102.956c-0.964,0.389-1.77,0.523-2.419,0.406c-0.648-0.119-1.1-0.488-1.351-1.11c-0.251-0.623-0.185-1.22,0.195-1.791
				c0.382-0.57,1.055-1.052,2.021-1.44c0.966-0.391,1.778-0.516,2.437-0.373c0.659,0.141,1.118,0.537,1.381,1.186
				C114.809,101.099,114.053,102.14,112.034,102.956z M112.047,102.575c0.809-0.327,1.382-0.715,1.715-1.168
				c0.335-0.449,0.396-0.936,0.187-1.455s-0.596-0.84-1.162-0.962c-0.564-0.122-1.291-0.004-2.181,0.354
				c-1.038,0.419-1.705,0.964-1.999,1.633c-0.163,0.372-0.175,0.727-0.038,1.065c0.136,0.337,0.323,0.585,0.562,0.739
				c0.239,0.156,0.514,0.239,0.824,0.248C110.542,103.053,111.238,102.901,112.047,102.575z"/>
			
				<path fill="#B28086" stroke="#B28086" stroke-width="0.3374" stroke-linecap="round" stroke-linejoin="round" stroke-miterlimit="10" d="
				M106.704,89.963l3.17-1.278l1.054,2.612l-0.324,0.131l-0.945-2.342l-2.116,0.855c0.318,0.178,0.541,0.43,0.672,0.755
				c0.233,0.579,0.229,1.091-0.011,1.538c-0.242,0.447-0.633,0.779-1.172,0.996c-0.537,0.217-1.089,0.256-1.651,0.115
				c-0.564-0.14-0.947-0.459-1.148-0.959c-0.144-0.355-0.159-0.718-0.046-1.087c0.113-0.371,0.336-0.632,0.668-0.785l0.12,0.296
				c-0.215,0.111-0.363,0.305-0.444,0.582c-0.083,0.275-0.06,0.574,0.069,0.893c0.163,0.404,0.471,0.658,0.92,0.765
				c0.452,0.104,0.902,0.066,1.353-0.116c0.45-0.181,0.78-0.461,0.991-0.834c0.209-0.375,0.218-0.802,0.024-1.28
				c-0.097-0.237-0.253-0.435-0.472-0.587S106.958,89.989,106.704,89.963z"/>
		</g>
	</g>
	<g>
		
			<rect x="62.376" y="37.639" transform="matrix(0.8523 0.5231 -0.5231 0.8523 45.4483 -44.3681)" fill="#FFFFFF" stroke="#FFFFFF" stroke-width="0.1704" stroke-miterlimit="10" width="77.818" height="41.301"/>
		<g>
			<defs>
				<polygon id="SVGID_7_" points="122.994,90.93 80.864,65.077 99.704,35.665 141.836,61.52 				"/>
			</defs>
			<clipPath id="SVGID_8_">
				<use xlink:href="#SVGID_7_"  overflow="visible"/>
			</clipPath>
			<g clip-path="url(#SVGID_8_)">
				<path fill="#139383" d="M14.442,17.572l-2.331-1.43c-2.696,1.052-5.733,0.46-7.995-0.928c-2.262-1.389-4.164-3.827-4.447-6.708
					l-2.33-1.43c-3.175-1.949-7.327-0.954-9.275,2.221l-4.275,5.674l29.176,17.904l3.699-6.027
					C18.61,23.674,17.616,19.52,14.442,17.572z"/>
				<path fill="#139383" d="M-16.494,14.799l4.275-5.675c2.04-3.325,6.404-4.37,9.729-2.329l2.329,1.429
					c0.088,0.055,0.146,0.146,0.156,0.248c0.25,2.55,1.855,4.965,4.291,6.461c2.437,1.494,5.316,1.832,7.704,0.902
					c0.096-0.039,0.204-0.028,0.292,0.025l2.33,1.43c3.324,2.04,4.369,6.404,2.328,9.729l-3.699,6.028 M-15.761,14.863
					l28.617,17.562l3.526-5.748c1.851-3.015,0.903-6.975-2.112-8.824l-2.193-1.346c-2.545,0.934-5.574,0.561-8.133-1.012
					c-2.559-1.569-4.264-4.1-4.584-6.793l-2.193-1.346c-3.016-1.852-6.974-0.903-8.824,2.113L-15.761,14.863z"/>
			</g>
			<g clip-path="url(#SVGID_8_)">
				<g>
					<path fill="#139383" d="M3.42-2.631c3.176-5.177,9.57-7.029,14.283-4.138c4.711,2.892,5.955,9.431,2.777,14.609
						c-3.176,5.176-10.459,8.475-15.17,5.584C0.599,10.533,0.244,2.544,3.42-2.631z"/>
					<path fill="#139383" d="M5.243,13.538C0.374,10.549,0.206,2.354,3.307-2.7c3.21-5.23,9.699-7.105,14.465-4.18
						c4.767,2.925,6.033,9.559,2.822,14.79C17.493,12.963,10.11,16.524,5.243,13.538z M17.634-6.655
						C12.992-9.504,6.667-7.668,3.534-2.562C0.495,2.39,0.639,10.403,5.381,13.312c4.74,2.909,11.949-0.591,14.988-5.542
						C23.502,2.665,22.276-3.807,17.634-6.655z"/>
				</g>
			</g>
		</g>
		<polygon fill="#F6F6F6" stroke="#F6F6F6" stroke-width="0.1704" stroke-linejoin="round" stroke-miterlimit="10" points="
			123.645,96.241 57.321,55.538 78.924,20.337 		"/>
		
			<rect x="83.966" y="45.252" transform="matrix(0.8523 0.523 -0.523 0.8523 49.5017 -48.1075)" fill="#855156" stroke="#855156" stroke-width="0.1312" stroke-miterlimit="10" width="51.936" height="36.693"/>
		<polygon fill="#673B45" stroke="#673B45" stroke-width="0.1312" stroke-miterlimit="10" points="122.471,92.818 78.206,65.653 
			97.398,34.379 		"/>
		<g>
			
				<path fill="#673B45" stroke="#673B45" stroke-width="0.3374" stroke-linecap="round" stroke-linejoin="round" stroke-miterlimit="10" d="
				M85.614,30.961c-0.543,0.887-1.111,1.475-1.703,1.766c-0.593,0.291-1.174,0.26-1.747-0.091c-0.571-0.351-0.873-0.868-0.907-1.554
				c-0.035-0.688,0.223-1.475,0.768-2.362s1.125-1.472,1.738-1.749s1.219-0.232,1.814,0.133
				C86.741,27.819,86.753,29.105,85.614,30.961z M85.398,30.647c0.456-0.744,0.685-1.396,0.685-1.957
				c0.002-0.561-0.238-0.988-0.715-1.281c-0.478-0.294-0.98-0.322-1.506-0.082c-0.527,0.238-1.041,0.765-1.543,1.582
				c-0.587,0.955-0.798,1.788-0.637,2.5c0.09,0.396,0.289,0.689,0.602,0.881c0.311,0.189,0.609,0.275,0.893,0.26
				c0.285-0.019,0.555-0.116,0.811-0.291C84.47,31.928,84.942,31.391,85.398,30.647z"/>
			
				<path fill="#673B45" stroke="#673B45" stroke-width="0.3374" stroke-linecap="round" stroke-linejoin="round" stroke-miterlimit="10" d="
				M90.274,33.822c-0.543,0.886-1.111,1.474-1.705,1.765c-0.592,0.291-1.174,0.261-1.744-0.09c-0.572-0.352-0.875-0.869-0.909-1.555
				c-0.033-0.686,0.224-1.474,0.769-2.362c0.545-0.888,1.125-1.472,1.736-1.748c0.615-0.278,1.219-0.233,1.816,0.132
				C91.401,30.678,91.415,31.964,90.274,33.822z M90.057,33.506c0.455-0.744,0.686-1.396,0.686-1.957
				c0.002-0.562-0.238-0.988-0.715-1.281c-0.479-0.293-0.98-0.32-1.508-0.083c-0.527,0.239-1.04,0.767-1.541,1.582
				c-0.586,0.957-0.8,1.789-0.638,2.501c0.089,0.396,0.29,0.689,0.603,0.881c0.311,0.191,0.609,0.276,0.893,0.26
				c0.285-0.018,0.555-0.115,0.812-0.291C89.131,34.788,89.6,34.25,90.057,33.506z"/>
			
				<path fill="#673B45" stroke="#673B45" stroke-width="0.3374" stroke-linecap="round" stroke-linejoin="round" stroke-miterlimit="10" d="
				M78.262,26.545l1.788-2.914l2.401,1.475l-0.184,0.3l-2.152-1.321l-1.193,1.943c0.362-0.042,0.693,0.027,0.99,0.209
				c0.533,0.327,0.834,0.741,0.904,1.244c0.072,0.503-0.045,1.002-0.349,1.496s-0.724,0.854-1.259,1.077
				c-0.537,0.222-1.035,0.192-1.495-0.089c-0.326-0.201-0.554-0.482-0.683-0.848c-0.129-0.366-0.106-0.707,0.072-1.028l0.27,0.167
				c-0.105,0.217-0.109,0.46-0.01,0.73c0.099,0.271,0.293,0.497,0.587,0.678c0.372,0.229,0.769,0.25,1.194,0.066
				c0.425-0.186,0.765-0.482,1.019-0.896c0.255-0.414,0.354-0.834,0.3-1.26c-0.055-0.427-0.301-0.775-0.74-1.044
				c-0.221-0.135-0.463-0.198-0.729-0.191C78.727,26.346,78.485,26.415,78.262,26.545z"/>
		</g>
		<g>
			
				<path fill="#B28086" stroke="#B28086" stroke-width="0.3374" stroke-linecap="round" stroke-linejoin="round" stroke-miterlimit="10" d="
				M119.204,85.352c-0.542,0.885-1.11,1.475-1.702,1.764c-0.593,0.291-1.175,0.261-1.747-0.091c-0.57-0.351-0.874-0.868-0.908-1.554
				c-0.033-0.688,0.223-1.474,0.768-2.362c0.545-0.888,1.125-1.471,1.738-1.747c0.615-0.279,1.219-0.234,1.814,0.131
				C120.332,82.208,120.344,83.495,119.204,85.352z M118.987,85.036c0.458-0.744,0.687-1.396,0.687-1.957
				c0-0.562-0.237-0.987-0.716-1.281c-0.478-0.293-0.98-0.322-1.508-0.082c-0.526,0.236-1.039,0.764-1.539,1.581
				c-0.587,0.954-0.801,1.79-0.638,2.502c0.089,0.395,0.29,0.688,0.602,0.879s0.608,0.277,0.894,0.261
				c0.284-0.018,0.553-0.115,0.811-0.291C118.061,86.317,118.532,85.78,118.987,85.036z"/>
			
				<path fill="#B28086" stroke="#B28086" stroke-width="0.3374" stroke-linecap="round" stroke-linejoin="round" stroke-miterlimit="10" d="
				M123.863,88.209c-0.543,0.887-1.109,1.475-1.703,1.766c-0.591,0.291-1.174,0.262-1.745-0.09
				c-0.572-0.352-0.874-0.869-0.908-1.556c-0.032-0.686,0.224-1.472,0.769-2.36c0.545-0.888,1.123-1.472,1.737-1.748
				c0.614-0.279,1.218-0.234,1.815,0.132C124.992,85.067,125.002,86.354,123.863,88.209z M123.648,87.895
				c0.456-0.742,0.687-1.396,0.686-1.957c0.001-0.562-0.238-0.988-0.716-1.281s-0.979-0.321-1.507-0.082
				c-0.525,0.237-1.04,0.764-1.543,1.581c-0.585,0.954-0.797,1.789-0.636,2.501c0.091,0.396,0.292,0.689,0.603,0.88
				s0.608,0.278,0.893,0.26c0.285-0.017,0.555-0.112,0.811-0.29C122.722,89.176,123.191,88.639,123.648,87.895z"/>
			
				<path fill="#B28086" stroke="#B28086" stroke-width="0.3374" stroke-linecap="round" stroke-linejoin="round" stroke-miterlimit="10" d="
				M111.853,80.934l1.788-2.912l2.4,1.474l-0.182,0.298l-2.152-1.32l-1.193,1.945c0.361-0.046,0.69,0.024,0.988,0.207
				c0.532,0.327,0.834,0.742,0.906,1.244c0.07,0.503-0.045,1.002-0.35,1.497c-0.303,0.494-0.724,0.854-1.26,1.074
				c-0.537,0.224-1.034,0.194-1.494-0.088c-0.326-0.2-0.554-0.481-0.682-0.847c-0.131-0.365-0.105-0.707,0.07-1.027l0.271,0.166
				c-0.106,0.217-0.11,0.461-0.012,0.731c0.098,0.271,0.294,0.497,0.588,0.677c0.371,0.229,0.77,0.25,1.193,0.068
				c0.426-0.186,0.766-0.484,1.02-0.898c0.254-0.412,0.354-0.834,0.3-1.26c-0.055-0.426-0.302-0.773-0.741-1.044
				c-0.219-0.134-0.461-0.198-0.729-0.191C112.319,80.736,112.073,80.803,111.853,80.934z"/>
		</g>
	</g>
	<g>
		
			<rect x="131.46" y="34.716" transform="matrix(-0.7545 0.6563 -0.6563 -0.7545 335.2506 -14.6659)" fill="#FFFFFF" stroke="#FFFFFF" stroke-width="0.1704" stroke-miterlimit="10" width="77.817" height="41.301"/>
		<g>
			<defs>
				<polygon id="SVGID_9_" points="132.719,66.291 170.015,33.85 192.425,60.642 155.127,93.084 				"/>
			</defs>
			<clipPath id="SVGID_10_">
				<use xlink:href="#SVGID_9_"  overflow="visible"/>
			</clipPath>
			<g clip-path="url(#SVGID_10_)">
				<path fill="#139383" d="M235.249-15.273l2.062-1.795c-0.194-2.888,1.28-5.608,3.282-7.349c2.003-1.742,4.899-2.825,7.732-2.232
					l2.063-1.794c2.811-2.445,3.106-6.704,0.662-9.515l-4.131-5.78l-25.828,22.466l4.641,5.336
					C228.177-13.127,232.438-12.83,235.249-15.273z"/>
				<path fill="#139383" d="M247.168-43.955l4.132,5.78c2.561,2.943,2.249,7.42-0.695,9.98l-2.062,1.793
					c-0.078,0.067-0.182,0.096-0.283,0.075c-2.507-0.526-5.293,0.282-7.45,2.156c-2.155,1.876-3.342,4.523-3.171,7.08
					c0.009,0.103-0.033,0.203-0.111,0.271l-2.062,1.794c-2.942,2.56-7.42,2.248-9.979-0.696l-4.643-5.336 M246.888-43.275
					l-25.334,22.036l4.427,5.087c2.321,2.669,6.383,2.953,9.052,0.63l1.941-1.689c-0.128-2.708,1.137-5.486,3.403-7.455
					c2.265-1.971,5.189-2.839,7.854-2.337l1.941-1.689c2.671-2.322,2.953-6.382,0.63-9.052L246.888-43.275z"/>
			</g>
			<g clip-path="url(#SVGID_10_)">
				<g>
					<path fill="#139383" d="M257.826-19.731c3.987,4.582,3.837,11.237-0.334,14.867c-4.172,3.627-10.783,2.854-14.77-1.73
						c-3.986-4.581-4.949-12.519-0.779-16.146C246.114-26.369,253.841-24.313,257.826-19.731z"/>
					<path fill="#139383" d="M241.855-22.84c4.311-3.75,12.179-1.453,16.071,3.022c4.027,4.63,3.871,11.383-0.349,15.052
						c-4.22,3.67-10.928,2.89-14.956-1.742C238.73-10.981,237.547-19.092,241.855-22.84z M257.404-4.964
						c4.11-3.575,4.254-10.159,0.322-14.679c-3.812-4.384-11.5-6.648-15.697-2.997c-4.196,3.65-3.019,11.577,0.793,15.96
						C246.753-2.16,253.294-1.39,257.404-4.964z"/>
				</g>
			</g>
		</g>
		<polygon fill="#F6F6F6" stroke="#F6F6F6" stroke-width="0.1704" stroke-linejoin="round" stroke-miterlimit="10" points="
			127.458,65.32 186.173,14.25 213.278,45.414 		"/>
		
			<rect x="136.741" y="43.68" transform="matrix(-0.7545 0.6563 -0.6563 -0.7545 326.1833 2.0435)" fill="#855156" stroke="#855156" stroke-width="0.1312" stroke-miterlimit="10" width="51.936" height="36.694"/>
		<polygon fill="#673B45" stroke="#673B45" stroke-width="0.1312" stroke-miterlimit="10" points="131.076,65.227 170.262,31.142 
			194.343,58.828 		"/>
		<g>
			
				<path fill="#673B45" stroke="#673B45" stroke-width="0.3374" stroke-linecap="round" stroke-linejoin="round" stroke-miterlimit="10" d="
				M201.136,48.61c-0.683-0.784-1.073-1.502-1.174-2.154c-0.1-0.653,0.104-1.198,0.611-1.64c0.505-0.44,1.09-0.573,1.754-0.4
				c0.666,0.173,1.34,0.655,2.023,1.441c0.684,0.786,1.066,1.514,1.147,2.183c0.081,0.668-0.144,1.232-0.671,1.691
				C203.796,50.627,202.566,50.254,201.136,48.61z M201.501,48.499c0.573,0.658,1.127,1.072,1.661,1.24
				c0.534,0.17,1.015,0.069,1.437-0.298c0.424-0.368,0.602-0.839,0.53-1.412c-0.069-0.575-0.417-1.222-1.047-1.946
				c-0.735-0.846-1.467-1.297-2.194-1.357c-0.404-0.033-0.744,0.069-1.021,0.31c-0.273,0.24-0.445,0.499-0.515,0.774
				c-0.068,0.278-0.056,0.564,0.034,0.86C200.557,47.229,200.928,47.84,201.501,48.499z"/>
			
				<path fill="#673B45" stroke="#673B45" stroke-width="0.3374" stroke-linecap="round" stroke-linejoin="round" stroke-miterlimit="10" d="
				M197.01,52.198c-0.682-0.784-1.072-1.502-1.172-2.156c-0.101-0.652,0.104-1.198,0.608-1.637c0.507-0.441,1.092-0.574,1.756-0.401
				c0.664,0.174,1.339,0.655,2.023,1.441c0.684,0.786,1.066,1.515,1.146,2.181c0.082,0.67-0.143,1.232-0.67,1.693
				C199.671,54.216,198.441,53.843,197.01,52.198z M197.376,52.086c0.573,0.657,1.127,1.073,1.661,1.241
				c0.535,0.17,1.015,0.069,1.437-0.298c0.424-0.369,0.6-0.839,0.531-1.414c-0.069-0.575-0.419-1.222-1.047-1.944
				c-0.737-0.846-1.467-1.299-2.194-1.358c-0.405-0.034-0.745,0.07-1.021,0.311c-0.275,0.239-0.446,0.499-0.515,0.773
				c-0.069,0.277-0.057,0.564,0.034,0.861C196.432,50.819,196.804,51.427,197.376,52.086z"/>
			
				<path fill="#673B45" stroke="#673B45" stroke-width="0.3374" stroke-linecap="round" stroke-linejoin="round" stroke-miterlimit="10" d="
				M207.553,42.92l2.244,2.58l-2.127,1.849l-0.23-0.265l1.905-1.657l-1.496-1.721c-0.068,0.358-0.233,0.653-0.496,0.882
				c-0.472,0.411-0.957,0.574-1.458,0.49c-0.501-0.082-0.942-0.344-1.322-0.781c-0.381-0.438-0.598-0.946-0.65-1.524
				c-0.051-0.579,0.127-1.045,0.533-1.4c0.289-0.251,0.626-0.384,1.013-0.397c0.389-0.013,0.707,0.11,0.96,0.377l-0.24,0.207
				c-0.176-0.166-0.406-0.242-0.694-0.229c-0.288,0.013-0.562,0.13-0.822,0.357c-0.33,0.286-0.469,0.658-0.422,1.119
				c0.05,0.461,0.231,0.874,0.55,1.241c0.319,0.367,0.689,0.588,1.112,0.664c0.424,0.076,0.83-0.054,1.218-0.393
				c0.194-0.17,0.328-0.382,0.401-0.638C207.604,43.424,207.612,43.172,207.553,42.92z"/>
		</g>
		<g>
			
				<path fill="#B28086" stroke="#B28086" stroke-width="0.3374" stroke-linecap="round" stroke-linejoin="round" stroke-miterlimit="10" d="
				M139.177,64.348c-0.682-0.782-1.074-1.501-1.172-2.153c-0.1-0.653,0.104-1.199,0.61-1.64c0.505-0.438,1.09-0.573,1.755-0.4
				c0.665,0.175,1.339,0.654,2.023,1.44c0.683,0.786,1.065,1.514,1.145,2.182c0.082,0.671-0.142,1.233-0.668,1.692
				C141.839,66.366,140.607,65.993,139.177,64.348z M139.544,64.236c0.572,0.66,1.126,1.073,1.661,1.241
				c0.535,0.168,1.013,0.07,1.437-0.299c0.423-0.367,0.602-0.838,0.53-1.414c-0.067-0.573-0.417-1.22-1.047-1.942
				c-0.734-0.846-1.468-1.3-2.195-1.358c-0.403-0.034-0.743,0.071-1.019,0.311c-0.276,0.24-0.447,0.497-0.518,0.774
				c-0.068,0.276-0.056,0.562,0.035,0.861C138.599,62.968,138.97,63.579,139.544,64.236z"/>
			
				<path fill="#B28086" stroke="#B28086" stroke-width="0.3374" stroke-linecap="round" stroke-linejoin="round" stroke-miterlimit="10" d="
				M135.054,67.936c-0.683-0.784-1.074-1.501-1.174-2.154c-0.101-0.651,0.103-1.198,0.609-1.638c0.507-0.44,1.091-0.573,1.756-0.4
				c0.664,0.175,1.338,0.654,2.021,1.441c0.684,0.786,1.067,1.513,1.146,2.181c0.083,0.67-0.141,1.232-0.67,1.693
				C137.714,69.955,136.483,69.579,135.054,67.936z M135.418,67.825c0.571,0.658,1.126,1.073,1.662,1.241
				c0.535,0.169,1.014,0.069,1.437-0.299s0.601-0.838,0.53-1.413c-0.069-0.572-0.417-1.221-1.046-1.946
				c-0.734-0.844-1.468-1.296-2.195-1.356c-0.405-0.032-0.745,0.072-1.02,0.311c-0.275,0.239-0.448,0.497-0.516,0.773
				c-0.07,0.277-0.06,0.563,0.033,0.86C134.474,66.558,134.846,67.166,135.418,67.825z"/>
			
				<path fill="#B28086" stroke="#B28086" stroke-width="0.3374" stroke-linecap="round" stroke-linejoin="round" stroke-miterlimit="10" d="
				M145.596,58.66l2.241,2.579l-2.125,1.848l-0.229-0.263l1.904-1.658l-1.498-1.722c-0.064,0.358-0.229,0.651-0.493,0.881
				c-0.472,0.41-0.958,0.573-1.459,0.492c-0.501-0.083-0.942-0.343-1.323-0.783c-0.381-0.437-0.598-0.946-0.647-1.523
				c-0.052-0.58,0.125-1.045,0.532-1.399c0.289-0.251,0.625-0.384,1.012-0.396c0.388-0.015,0.706,0.112,0.959,0.375L144.23,57.3
				c-0.175-0.167-0.407-0.244-0.694-0.23c-0.288,0.012-0.562,0.131-0.822,0.358c-0.329,0.286-0.469,0.659-0.423,1.118
				c0.05,0.462,0.232,0.875,0.552,1.242c0.316,0.365,0.689,0.587,1.111,0.664c0.423,0.075,0.829-0.056,1.219-0.394
				c0.193-0.169,0.327-0.38,0.4-0.638C145.645,59.164,145.655,58.909,145.596,58.66z"/>
		</g>
	</g>
	
		<path fill="#CA9E67" stroke="#CA9E67" stroke-width="1.0271" stroke-linecap="round" stroke-linejoin="round" stroke-miterlimit="10" d="
		M154.005,118.424l29.054-44.69l-13.112-8.667l-13.238,8.793h0.001h-0.003h0.002l-13.113-8.666l-13.238,8.792l0,0l0,0l0,0
		l-13.113-8.666l-13.24,8.792l0,0l-13.112-8.666l-13.238,8.792l26.122,45.081C44.953,139.884,0.75,222.421,0.75,280.31
		c0,66.295,57.974,105.592,129.487,105.592s129.487-39.297,129.487-105.592C259.725,221.539,214.167,137.299,154.005,118.424z"/>
	
		<path fill="#C0925E" stroke="#C0925E" stroke-width="1.5009" stroke-linecap="round" stroke-linejoin="round" stroke-miterlimit="10" d="
		M130.238,385.901C58.724,385.901,0.75,346.604,0.75,280.31c0-57.889,44.202-140.425,103.024-160.991L77.653,74.237l13.238-8.792
		l13.112,8.666l0,0l13.24-8.792l13.113,8.666l0,0l0,0l0,0L130.238,385.901z"/>
	
		<path fill="#CA9E67" stroke="#CA9E67" stroke-width="0.924" stroke-linecap="round" stroke-linejoin="round" stroke-miterlimit="10" d="
		M154.053,105.157"/>
	
		<line fill="#CA9E67" stroke="#CA9E67" stroke-width="0.924" stroke-linecap="round" stroke-linejoin="round" stroke-miterlimit="10" x1="154.053" y1="105.157" x2="154.054" y2="105.157"/>
	<polygon fill="#FFFFFF" points="163.861,121.46 96.246,121.46 102.543,118.867 99.58,113.871 158.007,113.871 154.849,118.078 	"/>
	<g>
		<path fill="none" stroke="#FFFFFF" stroke-width="8.8918" stroke-linecap="round" stroke-miterlimit="10" d="M137.814,121.46
			c0,0-2.223,43.256,18.896,54.926"/>
		<path fill="none" stroke="#FFFFFF" stroke-width="8.8918" stroke-linecap="round" stroke-miterlimit="10" d="M126.18,119.676
			c0,0-6.76,12.354-1.131,28.156c5.63,15.802-7.872,23.445-17.098,25.996"/>
	</g>
	<g>
		
			<rect x="8.984" y="338.676" transform="matrix(0.9668 -0.2556 0.2556 0.9668 -90.2556 24.1782)" fill="#FFFFFF" stroke="#FFFFFF" stroke-width="0.1704" stroke-miterlimit="10" width="77.817" height="41.304"/>
		<g>
			<defs>
				<polygon id="SVGID_11_" points="86.496,366.153 38.708,378.79 30.433,344.854 78.223,332.218 				"/>
			</defs>
			<clipPath id="SVGID_12_">
				<use xlink:href="#SVGID_11_"  overflow="visible"/>
			</clipPath>
			<g clip-path="url(#SVGID_12_)">
				<path fill="#139383" d="M-41.513,394.058l-2.644,0.699c-1.101,2.678-3.626,4.465-6.19,5.145
					c-2.566,0.678-5.645,0.371-7.924-1.414l-2.643,0.699c-3.602,0.953-5.749,4.643-4.797,8.244l1.154,7.01l33.095-8.748
					l-1.808-6.838C-34.221,395.253-37.914,393.104-41.513,394.058z"/>
				<path fill="#139383" d="M-64.875,414.526l-1.154-7.012c-0.997-3.77,1.259-7.648,5.031-8.646l2.642-0.699
					c0.1-0.025,0.207-0.004,0.287,0.061c2.019,1.578,4.874,2.084,7.638,1.354c2.763-0.732,4.995-2.582,5.97-4.951
					c0.039-0.096,0.121-0.168,0.22-0.193l2.645-0.699c3.77-0.998,7.648,1.26,8.646,5.029l1.808,6.84 M-64.322,414.04l32.459-8.582
					l-1.724-6.52c-0.904-3.422-4.423-5.469-7.843-4.564l-2.488,0.658c-1.081,2.486-3.441,4.42-6.347,5.188
					c-2.9,0.768-5.908,0.254-8.079-1.373l-2.486,0.658c-3.422,0.904-5.468,4.422-4.562,7.842L-64.322,414.04z"/>
			</g>
			<g clip-path="url(#SVGID_12_)">
				<g>
					<path fill="#139383" d="M-63.74,388.087c-1.552-5.873,1.522-11.777,6.867-13.191c5.344-1.412,10.934,2.201,12.486,8.072
						c1.553,5.873-1.087,13.42-6.431,14.832C-56.163,399.214-62.187,393.956-63.74,388.087z"/>
					<path fill="#139383" d="M-50.784,397.929c-5.521,1.459-11.567-4.074-13.083-9.809c-1.569-5.934,1.553-11.922,6.961-13.352
						c5.405-1.43,11.079,2.232,12.647,8.166C-42.742,388.669-45.261,396.468-50.784,397.929z M-56.838,375.024
						c-5.267,1.391-8.304,7.236-6.772,13.027c1.485,5.615,7.383,11.043,12.761,9.621c5.377-1.422,7.821-9.055,6.336-14.67
						C-46.045,377.21-51.574,373.632-56.838,375.024z"/>
				</g>
			</g>
		</g>
		<polygon fill="#F6F6F6" stroke="#F6F6F6" stroke-width="0.1704" stroke-linejoin="round" stroke-miterlimit="10" points="
			90.788,369.349 15.555,389.239 4.998,349.308 		"/>
		
			<rect x="31.737" y="338.388" transform="matrix(0.9668 -0.2556 0.2556 0.9668 -89.2781 26.6054)" fill="#855156" stroke="#855156" stroke-width="0.1312" stroke-miterlimit="10" width="51.938" height="36.694"/>
		<polygon fill="#673B45" stroke="#673B45" stroke-width="0.1312" stroke-miterlimit="10" points="87.501,367.833 37.29,381.11 
			27.91,345.636 		"/>
		<g>
			
				<path fill="#673B45" stroke="#673B45" stroke-width="0.3374" stroke-linecap="round" stroke-linejoin="round" stroke-miterlimit="10" d="
				M17.303,351.804c0.267,1.004,0.3,1.82,0.102,2.449c-0.198,0.631-0.623,1.029-1.271,1.201s-1.23,0.033-1.75-0.416
				c-0.521-0.449-0.913-1.178-1.18-2.186c-0.266-1.006-0.289-1.83-0.065-2.465c0.223-0.635,0.673-1.041,1.349-1.221
				C15.807,348.817,16.747,349.696,17.303,351.804z M16.927,351.741c-0.224-0.844-0.538-1.457-0.944-1.846
				c-0.404-0.389-0.879-0.51-1.421-0.367s-0.909,0.486-1.099,1.033c-0.191,0.545-0.165,1.281,0.079,2.207
				c0.286,1.084,0.743,1.812,1.37,2.188c0.349,0.209,0.698,0.266,1.053,0.174c0.352-0.096,0.621-0.252,0.805-0.469
				c0.184-0.219,0.299-0.48,0.349-0.787C17.213,353.298,17.15,352.585,16.927,351.741z"/>
			
				<path fill="#673B45" stroke="#673B45" stroke-width="0.3374" stroke-linecap="round" stroke-linejoin="round" stroke-miterlimit="10" d="
				M22.59,350.405c0.265,1.004,0.299,1.822,0.1,2.451c-0.198,0.629-0.622,1.029-1.27,1.201c-0.648,0.172-1.233,0.031-1.753-0.416
				c-0.519-0.449-0.912-1.178-1.179-2.186c-0.266-1.008-0.288-1.83-0.065-2.465c0.224-0.637,0.672-1.043,1.349-1.221
				C21.092,347.421,22.033,348.298,22.59,350.405z M22.211,350.345c-0.223-0.844-0.536-1.459-0.942-1.848
				c-0.405-0.389-0.879-0.51-1.421-0.367c-0.542,0.145-0.908,0.488-1.1,1.033c-0.191,0.547-0.164,1.283,0.081,2.209
				c0.286,1.082,0.741,1.811,1.368,2.186c0.35,0.209,0.7,0.268,1.053,0.174c0.354-0.094,0.621-0.25,0.805-0.467
				c0.184-0.219,0.3-0.48,0.351-0.787C22.5,351.899,22.434,351.188,22.211,350.345z"/>
			
				<path fill="#673B45" stroke="#673B45" stroke-width="0.3374" stroke-linecap="round" stroke-linejoin="round" stroke-miterlimit="10" d="
				M9.033,354.073l-0.873-3.305l2.725-0.719l0.09,0.338l-2.442,0.646l0.583,2.205c0.22-0.293,0.498-0.484,0.834-0.572
				c0.605-0.16,1.113-0.092,1.525,0.203c0.413,0.295,0.693,0.725,0.842,1.285s0.118,1.113-0.091,1.654
				c-0.21,0.541-0.574,0.883-1.096,1.02c-0.37,0.1-0.731,0.068-1.085-0.09s-0.584-0.41-0.693-0.762l0.308-0.08
				c0.082,0.227,0.257,0.396,0.521,0.512c0.264,0.115,0.562,0.131,0.896,0.043c0.422-0.111,0.712-0.385,0.872-0.818
				c0.159-0.434,0.179-0.887,0.055-1.355c-0.124-0.471-0.359-0.832-0.705-1.088c-0.347-0.254-0.769-0.316-1.267-0.184
				c-0.249,0.066-0.463,0.197-0.642,0.395S9.093,353.823,9.033,354.073z"/>
		</g>
		<g>
			
				<path fill="#B28086" stroke="#B28086" stroke-width="0.3374" stroke-linecap="round" stroke-linejoin="round" stroke-miterlimit="10" d="
				M79.843,365.044c0.266,1.004,0.3,1.82,0.102,2.449c-0.199,0.629-0.622,1.031-1.271,1.203c-0.648,0.172-1.232,0.033-1.752-0.418
				c-0.521-0.449-0.913-1.178-1.179-2.186c-0.267-1.006-0.288-1.83-0.064-2.465c0.223-0.635,0.672-1.043,1.347-1.221
				C78.347,362.058,79.287,362.937,79.843,365.044z M79.465,364.981c-0.223-0.842-0.537-1.459-0.942-1.846
				c-0.406-0.389-0.879-0.51-1.421-0.367c-0.543,0.143-0.909,0.486-1.101,1.033c-0.192,0.545-0.165,1.279,0.08,2.207
				c0.286,1.082,0.744,1.812,1.371,2.188c0.347,0.209,0.698,0.266,1.052,0.172c0.353-0.094,0.62-0.25,0.805-0.467
				c0.184-0.217,0.3-0.48,0.349-0.787C79.752,366.536,79.689,365.827,79.465,364.981z"/>
			
				<path fill="#B28086" stroke="#B28086" stroke-width="0.3374" stroke-linecap="round" stroke-linejoin="round" stroke-miterlimit="10" d="
				M85.127,363.646c0.267,1.004,0.301,1.822,0.103,2.451c-0.199,0.629-0.621,1.029-1.271,1.201s-1.232,0.031-1.753-0.416
				c-0.518-0.451-0.911-1.18-1.177-2.188c-0.267-1.006-0.29-1.828-0.066-2.463c0.223-0.637,0.672-1.043,1.35-1.223
				C83.632,360.661,84.571,361.54,85.127,363.646z M84.751,363.585c-0.223-0.844-0.537-1.461-0.943-1.848
				c-0.405-0.389-0.879-0.51-1.421-0.365c-0.542,0.143-0.908,0.486-1.1,1.031s-0.165,1.283,0.08,2.209
				c0.286,1.082,0.743,1.811,1.37,2.186c0.349,0.209,0.7,0.266,1.052,0.172c0.353-0.092,0.621-0.248,0.806-0.465
				c0.183-0.219,0.3-0.48,0.348-0.787C85.04,365.138,84.974,364.429,84.751,363.585z"/>
			
				<path fill="#B28086" stroke="#B28086" stroke-width="0.3374" stroke-linecap="round" stroke-linejoin="round" stroke-miterlimit="10" d="
				M71.573,367.313l-0.873-3.305l2.725-0.719l0.089,0.336l-2.442,0.646l0.585,2.207c0.216-0.293,0.495-0.482,0.833-0.572
				c0.604-0.16,1.111-0.092,1.525,0.203c0.412,0.295,0.693,0.725,0.842,1.285s0.117,1.115-0.092,1.656s-0.574,0.881-1.095,1.02
				c-0.371,0.098-0.732,0.066-1.085-0.09c-0.354-0.16-0.585-0.414-0.695-0.762l0.309-0.082c0.083,0.227,0.258,0.398,0.521,0.514
				c0.265,0.117,0.562,0.131,0.896,0.043c0.421-0.111,0.711-0.385,0.872-0.818c0.16-0.436,0.18-0.889,0.055-1.357
				c-0.123-0.471-0.359-0.832-0.705-1.088c-0.346-0.254-0.768-0.316-1.266-0.184c-0.249,0.066-0.463,0.195-0.643,0.395
				C71.75,366.839,71.63,367.063,71.573,367.313z"/>
		</g>
	</g>
	<g>
		
			<rect x="80.879" y="347.774" transform="matrix(0.9649 0.2628 -0.2628 0.9649 101.0166 -18.5295)" fill="#FFFFFF" stroke="#FFFFFF" stroke-width="0.1704" stroke-miterlimit="10" width="77.817" height="41.303"/>
		<g>
			<defs>
				<polygon id="SVGID_13_" points="149.788,393.661 102.093,380.675 111.92,347.156 159.617,360.144 				"/>
			</defs>
			<clipPath id="SVGID_14_">
				<use xlink:href="#SVGID_13_"  overflow="visible"/>
			</clipPath>
			<g clip-path="url(#SVGID_14_)">
				<path fill="#139383" d="M25.007,353.728l-2.639-0.718c-2.293,1.767-5.374,2.05-7.935,1.354
					c-2.561-0.699-5.072-2.506-6.151-5.191l-2.638-0.718c-3.595-0.979-7.301,1.14-8.279,4.735l-2.511,6.646l33.028,8.996
					l1.858-6.824C30.721,358.413,28.6,354.705,25.007,353.728z"/>
				<path fill="#139383" d="M-5.463,359.751l2.511-6.648c1.024-3.762,4.919-5.99,8.685-4.965l2.637,0.717
					c0.099,0.027,0.182,0.1,0.219,0.196c0.957,2.376,3.176,4.244,5.934,4.995c2.758,0.75,5.616,0.266,7.646-1.297
					c0.082-0.063,0.188-0.085,0.287-0.058l2.639,0.719c3.764,1.023,5.99,4.92,4.967,8.683l-1.86,6.825 M-4.742,359.606l32.395,8.822
					l1.772-6.507c0.931-3.415-1.091-6.948-4.504-7.878l-2.483-0.676c-2.181,1.611-5.192,2.104-8.091,1.312
					c-2.896-0.787-5.242-2.738-6.307-5.232l-2.482-0.676c-3.414-0.93-6.946,1.09-7.875,4.504L-4.742,359.606z"/>
			</g>
			<g clip-path="url(#SVGID_14_)">
				<g>
					<path fill="#139383" d="M8.756,337.432c1.597-5.86,7.214-9.433,12.549-7.981c5.332,1.453,8.362,7.38,6.767,13.239
						c-1.596,5.861-7.659,11.073-12.992,9.62C9.745,350.857,7.162,343.29,8.756,337.432z"/>
					<path fill="#139383" d="M15.043,352.438c-5.51-1.501-7.973-9.317-6.414-15.04c1.612-5.923,7.312-9.543,12.71-8.073
						c5.396,1.468,8.474,7.479,6.86,13.401C26.641,348.448,20.556,353.938,15.043,352.438z M21.27,329.579
						c-5.256-1.433-10.812,2.107-12.385,7.887c-1.525,5.604,0.862,13.256,6.229,14.717c5.366,1.461,11.304-3.922,12.829-9.526
						C29.519,336.874,26.524,331.01,21.27,329.579z"/>
				</g>
			</g>
		</g>
		<polygon fill="#F6F6F6" stroke="#F6F6F6" stroke-width="0.1704" stroke-linejoin="round" stroke-miterlimit="10" points="
			151.904,398.575 76.821,378.128 87.672,338.276 		"/>
		
			<rect x="103.613" y="352.748" transform="matrix(0.9649 0.2627 -0.2627 0.9649 102.0508 -21.0081)" fill="#855156" stroke="#855156" stroke-width="0.1312" stroke-miterlimit="10" width="51.937" height="36.693"/>
		<polygon fill="#673B45" stroke="#673B45" stroke-width="0.1312" stroke-miterlimit="10" points="149.817,395.619 99.705,381.974 
			109.345,346.569 		"/>
		<g>
			
				<path fill="#673B45" stroke="#673B45" stroke-width="0.3374" stroke-linecap="round" stroke-linejoin="round" stroke-miterlimit="10" d="
				M97.076,346.599c-0.272,1.002-0.652,1.726-1.139,2.171c-0.487,0.446-1.055,0.579-1.702,0.403s-1.081-0.588-1.307-1.236
				c-0.226-0.649-0.2-1.477,0.073-2.482c0.274-1.005,0.666-1.729,1.178-2.166c0.511-0.439,1.104-0.566,1.778-0.382
				C97.275,343.265,97.649,344.495,97.076,346.599z M96.781,346.356c0.229-0.843,0.264-1.531,0.107-2.07s-0.506-0.883-1.047-1.029
				c-0.54-0.148-1.03-0.035-1.468,0.344c-0.438,0.376-0.784,1.027-1.037,1.95c-0.295,1.081-0.264,1.941,0.091,2.579
				c0.197,0.355,0.472,0.58,0.824,0.678c0.353,0.094,0.664,0.094,0.932-0.002c0.269-0.098,0.499-0.268,0.696-0.508
				C96.25,347.847,96.551,347.198,96.781,346.356z"/>
			
				<path fill="#673B45" stroke="#673B45" stroke-width="0.3374" stroke-linecap="round" stroke-linejoin="round" stroke-miterlimit="10" d="
				M102.352,348.035c-0.273,1.001-0.653,1.728-1.141,2.171c-0.486,0.445-1.054,0.58-1.7,0.404c-0.647-0.176-1.084-0.59-1.309-1.238
				c-0.225-0.647-0.201-1.475,0.073-2.482c0.274-1.004,0.667-1.728,1.177-2.165c0.513-0.438,1.104-0.566,1.779-0.382
				C102.549,344.702,102.924,345.932,102.352,348.035z M102.054,347.793c0.23-0.842,0.268-1.532,0.109-2.071
				c-0.156-0.539-0.506-0.881-1.046-1.029c-0.541-0.146-1.03-0.032-1.47,0.344c-0.439,0.378-0.783,1.027-1.035,1.952
				c-0.294,1.081-0.265,1.938,0.09,2.577c0.198,0.356,0.473,0.582,0.825,0.678s0.663,0.094,0.931-0.002
				c0.268-0.098,0.5-0.266,0.696-0.505C101.526,349.282,101.825,348.635,102.054,347.793z"/>
			
				<path fill="#673B45" stroke="#673B45" stroke-width="0.3374" stroke-linecap="round" stroke-linejoin="round" stroke-miterlimit="10" d="
				M88.78,344.423l0.898-3.299l2.72,0.742l-0.093,0.338l-2.438-0.663l-0.599,2.2c0.336-0.143,0.673-0.17,1.008-0.078
				c0.604,0.165,1.01,0.478,1.219,0.939c0.21,0.463,0.237,0.975,0.085,1.535c-0.151,0.559-0.455,1.022-0.906,1.387
				c-0.453,0.363-0.939,0.477-1.459,0.334c-0.37-0.1-0.668-0.308-0.895-0.621c-0.227-0.315-0.3-0.648-0.219-1.007l0.307,0.085
				c-0.042,0.236,0.023,0.471,0.194,0.703s0.421,0.395,0.754,0.486c0.421,0.115,0.81,0.023,1.165-0.271
				c0.355-0.297,0.599-0.679,0.726-1.146c0.129-0.47,0.105-0.9-0.065-1.295c-0.173-0.395-0.507-0.658-1.005-0.793
				c-0.248-0.067-0.499-0.061-0.752,0.021C89.171,344.101,88.958,344.236,88.78,344.423z"/>
		</g>
		<g>
			
				<path fill="#B28086" stroke="#B28086" stroke-width="0.3374" stroke-linecap="round" stroke-linejoin="round" stroke-miterlimit="10" d="
				M144.584,389.37c-0.272,1.003-0.652,1.727-1.139,2.172c-0.487,0.444-1.054,0.58-1.702,0.404
				c-0.647-0.176-1.084-0.589-1.309-1.238c-0.225-0.65-0.2-1.477,0.074-2.482c0.273-1.004,0.667-1.729,1.179-2.166
				c0.511-0.438,1.104-0.566,1.776-0.383C144.785,386.036,145.158,387.269,144.584,389.37z M144.289,389.128
				c0.229-0.842,0.266-1.532,0.108-2.07c-0.157-0.539-0.505-0.882-1.047-1.029c-0.541-0.148-1.03-0.033-1.47,0.344
				c-0.439,0.375-0.783,1.025-1.035,1.951c-0.295,1.08-0.264,1.941,0.092,2.58c0.195,0.354,0.472,0.578,0.824,0.674
				c0.352,0.096,0.662,0.096,0.93,0c0.269-0.097,0.5-0.266,0.696-0.507C143.758,390.617,144.059,389.971,144.289,389.128z"/>
			
				<path fill="#B28086" stroke="#B28086" stroke-width="0.3374" stroke-linecap="round" stroke-linejoin="round" stroke-miterlimit="10" d="
				M149.859,390.806c-0.272,1.002-0.651,1.728-1.139,2.174c-0.486,0.443-1.053,0.58-1.701,0.402
				c-0.647-0.176-1.082-0.589-1.309-1.238c-0.223-0.648-0.199-1.477,0.076-2.481c0.272-1.004,0.664-1.728,1.176-2.165
				c0.511-0.439,1.104-0.566,1.78-0.383C150.059,387.474,150.431,388.704,149.859,390.806z M149.563,390.565
				c0.23-0.842,0.267-1.533,0.108-2.072c-0.156-0.539-0.505-0.881-1.046-1.028s-1.03-0.034-1.469,0.343s-0.785,1.027-1.036,1.952
				c-0.295,1.081-0.264,1.94,0.091,2.579c0.197,0.355,0.474,0.58,0.825,0.674c0.352,0.098,0.661,0.098,0.93,0.002
				c0.268-0.099,0.5-0.267,0.695-0.508C149.036,392.054,149.334,391.406,149.563,390.565z"/>
			
				<path fill="#B28086" stroke="#B28086" stroke-width="0.3374" stroke-linecap="round" stroke-linejoin="round" stroke-miterlimit="10" d="
				M136.289,387.194l0.898-3.297l2.719,0.74l-0.092,0.336l-2.438-0.662l-0.599,2.203c0.334-0.146,0.671-0.171,1.008-0.078
				c0.603,0.163,1.009,0.476,1.22,0.938c0.208,0.462,0.237,0.974,0.084,1.534c-0.152,0.561-0.456,1.023-0.908,1.387
				c-0.451,0.364-0.938,0.476-1.458,0.335c-0.37-0.101-0.667-0.31-0.894-0.621c-0.227-0.315-0.3-0.651-0.221-1.007l0.308,0.083
				c-0.041,0.237,0.024,0.474,0.194,0.706c0.171,0.234,0.422,0.395,0.754,0.485c0.42,0.114,0.809,0.022,1.164-0.272
				c0.357-0.297,0.601-0.678,0.728-1.146c0.129-0.469,0.104-0.9-0.066-1.295c-0.171-0.394-0.506-0.658-1.003-0.792
				c-0.249-0.067-0.499-0.063-0.754,0.02C136.68,386.873,136.463,387.007,136.289,387.194z"/>
		</g>
	</g>
	<g>
		
			<rect x="51.878" y="307.791" transform="matrix(0.9649 0.2628 -0.2628 0.9649 89.4915 -12.3141)" fill="#FFFFFF" stroke="#FFFFFF" stroke-width="0.1704" stroke-miterlimit="10" width="77.817" height="41.303"/>
		<g>
			<defs>
				<polygon id="SVGID_15_" points="120.787,353.677 73.092,340.69 82.919,307.173 130.616,320.16 				"/>
			</defs>
			<clipPath id="SVGID_16_">
				<use xlink:href="#SVGID_15_"  overflow="visible"/>
			</clipPath>
			<g clip-path="url(#SVGID_16_)">
				<path fill="#139383" d="M-3.994,313.744l-2.639-0.718c-2.293,1.767-5.374,2.049-7.935,1.354
					c-2.561-0.698-5.072-2.505-6.151-5.191l-2.638-0.717c-3.595-0.979-7.301,1.14-8.279,4.734l-2.511,6.646l33.028,8.996
					l1.858-6.824C1.72,318.43-0.401,314.722-3.994,313.744z"/>
				<path fill="#139383" d="M-34.464,319.767l2.511-6.647c1.024-3.763,4.919-5.991,8.685-4.966l2.637,0.717
					c0.099,0.028,0.182,0.101,0.219,0.197c0.957,2.376,3.176,4.244,5.934,4.995c2.758,0.749,5.616,0.266,7.646-1.298
					c0.082-0.062,0.188-0.084,0.287-0.057l2.639,0.719c3.764,1.023,5.99,4.92,4.967,8.682l-1.86,6.826 M-33.743,319.623
					l32.395,8.821l1.772-6.506c0.931-3.416-1.091-6.949-4.504-7.879l-2.483-0.676c-2.181,1.611-5.192,2.104-8.091,1.313
					c-2.896-0.788-5.242-2.738-6.307-5.233l-2.482-0.676c-3.414-0.93-6.946,1.091-7.875,4.504L-33.743,319.623z"/>
			</g>
			<g clip-path="url(#SVGID_16_)">
				<g>
					<path fill="#139383" d="M-20.245,297.448c1.597-5.861,7.214-9.434,12.549-7.981c5.332,1.452,8.362,7.38,6.767,13.239
						c-1.596,5.861-7.659,11.072-12.992,9.619C-19.256,310.874-21.839,303.306-20.245,297.448z"/>
					<path fill="#139383" d="M-13.958,312.454c-5.51-1.502-7.973-9.318-6.414-15.041c1.612-5.922,7.312-9.543,12.71-8.072
						c5.396,1.468,8.474,7.479,6.86,13.4C-2.36,308.464-8.445,313.954-13.958,312.454z M-7.731,289.595
						c-5.256-1.432-10.812,2.107-12.385,7.887c-1.525,5.605,0.862,13.256,6.229,14.718c5.366,1.461,11.304-3.923,12.829-9.526
						C0.518,296.891-2.477,291.026-7.731,289.595z"/>
				</g>
			</g>
		</g>
		<polygon fill="#F6F6F6" stroke="#F6F6F6" stroke-width="0.1704" stroke-linejoin="round" stroke-miterlimit="10" points="
			122.903,358.592 47.82,338.145 58.671,298.293 		"/>
		
			<rect x="74.611" y="312.764" transform="matrix(0.9649 0.2627 -0.2627 0.9649 90.5332 -14.7935)" fill="#855156" stroke="#855156" stroke-width="0.1312" stroke-miterlimit="10" width="51.937" height="36.693"/>
		<polygon fill="#673B45" stroke="#673B45" stroke-width="0.1312" stroke-miterlimit="10" points="120.816,355.636 70.704,341.989 
			80.344,306.585 		"/>
		<g>
			
				<path fill="#673B45" stroke="#673B45" stroke-width="0.3374" stroke-linecap="round" stroke-linejoin="round" stroke-miterlimit="10" d="
				M68.075,306.614c-0.272,1.003-0.652,1.727-1.139,2.172c-0.487,0.446-1.055,0.578-1.702,0.402s-1.081-0.587-1.307-1.236
				c-0.226-0.648-0.2-1.477,0.073-2.482c0.274-1.004,0.666-1.729,1.178-2.166c0.511-0.439,1.104-0.565,1.778-0.381
				C68.274,303.28,68.648,304.512,68.075,306.614z M67.78,306.372c0.229-0.842,0.264-1.53,0.107-2.07
				c-0.156-0.539-0.506-0.883-1.047-1.029c-0.54-0.148-1.03-0.034-1.468,0.344c-0.438,0.377-0.784,1.027-1.037,1.951
				c-0.295,1.081-0.264,1.941,0.091,2.579c0.197,0.355,0.472,0.579,0.824,0.678c0.353,0.093,0.664,0.093,0.932-0.003
				c0.269-0.098,0.499-0.267,0.696-0.507C67.249,307.862,67.55,307.214,67.78,306.372z"/>
			
				<path fill="#673B45" stroke="#673B45" stroke-width="0.3374" stroke-linecap="round" stroke-linejoin="round" stroke-miterlimit="10" d="
				M73.351,308.052c-0.273,1.001-0.653,1.727-1.141,2.171c-0.486,0.445-1.054,0.579-1.7,0.404c-0.647-0.177-1.084-0.591-1.309-1.239
				c-0.225-0.646-0.201-1.475,0.073-2.481c0.274-1.005,0.667-1.728,1.177-2.165c0.513-0.439,1.104-0.566,1.779-0.383
				C73.548,304.718,73.923,305.948,73.351,308.052z M73.053,307.81c0.23-0.842,0.268-1.533,0.109-2.072
				c-0.156-0.539-0.506-0.881-1.046-1.029c-0.541-0.146-1.03-0.031-1.47,0.344c-0.439,0.379-0.783,1.028-1.035,1.953
				c-0.294,1.08-0.265,1.938,0.09,2.577c0.198,0.356,0.473,0.581,0.825,0.677s0.663,0.094,0.931-0.002
				c0.268-0.097,0.5-0.266,0.696-0.504C72.525,309.299,72.824,308.651,73.053,307.81z"/>
			
				<path fill="#673B45" stroke="#673B45" stroke-width="0.3374" stroke-linecap="round" stroke-linejoin="round" stroke-miterlimit="10" d="
				M59.779,304.438l0.898-3.298l2.72,0.741l-0.093,0.338l-2.438-0.662l-0.599,2.199c0.336-0.143,0.673-0.169,1.008-0.078
				c0.604,0.166,1.01,0.479,1.219,0.939c0.21,0.463,0.237,0.976,0.085,1.535c-0.151,0.56-0.455,1.023-0.906,1.387
				c-0.453,0.363-0.939,0.477-1.459,0.334c-0.37-0.1-0.668-0.307-0.895-0.621s-0.3-0.648-0.219-1.006l0.307,0.084
				c-0.042,0.236,0.023,0.472,0.194,0.704c0.171,0.231,0.421,0.395,0.754,0.485c0.421,0.115,0.81,0.023,1.165-0.271
				c0.355-0.297,0.599-0.678,0.726-1.146c0.129-0.469,0.105-0.9-0.065-1.295c-0.173-0.394-0.507-0.658-1.005-0.793
				c-0.248-0.066-0.499-0.061-0.752,0.021C60.17,304.116,59.957,304.253,59.779,304.438z"/>
		</g>
		<g>
			
				<path fill="#B28086" stroke="#B28086" stroke-width="0.3374" stroke-linecap="round" stroke-linejoin="round" stroke-miterlimit="10" d="
				M115.583,349.386c-0.272,1.004-0.652,1.727-1.139,2.172c-0.487,0.445-1.054,0.58-1.702,0.404
				c-0.647-0.176-1.084-0.588-1.309-1.238s-0.2-1.477,0.074-2.482c0.273-1.004,0.667-1.729,1.179-2.166
				c0.511-0.438,1.104-0.566,1.776-0.382C115.784,346.053,116.157,347.284,115.583,349.386z M115.288,349.144
				c0.229-0.841,0.266-1.531,0.108-2.069c-0.157-0.54-0.505-0.882-1.047-1.029c-0.541-0.148-1.03-0.034-1.47,0.343
				c-0.439,0.376-0.783,1.025-1.035,1.951c-0.295,1.08-0.264,1.941,0.092,2.58c0.195,0.354,0.472,0.578,0.824,0.674
				c0.352,0.097,0.662,0.096,0.93,0c0.269-0.096,0.5-0.266,0.696-0.506C114.757,350.634,115.058,349.987,115.288,349.144z"/>
			
				<path fill="#B28086" stroke="#B28086" stroke-width="0.3374" stroke-linecap="round" stroke-linejoin="round" stroke-miterlimit="10" d="
				M120.858,350.821c-0.272,1.003-0.651,1.729-1.139,2.174c-0.486,0.443-1.053,0.58-1.701,0.402
				c-0.647-0.176-1.082-0.588-1.309-1.237c-0.223-0.649-0.199-1.477,0.076-2.481c0.272-1.004,0.664-1.729,1.176-2.166
				c0.511-0.439,1.104-0.566,1.78-0.383C121.058,347.489,121.43,348.72,120.858,350.821z M120.562,350.581
				c0.23-0.842,0.267-1.533,0.108-2.071c-0.156-0.54-0.505-0.882-1.046-1.028c-0.541-0.147-1.03-0.034-1.469,0.343
				c-0.438,0.376-0.785,1.027-1.036,1.952c-0.295,1.08-0.264,1.939,0.091,2.578c0.197,0.355,0.474,0.58,0.825,0.674
				c0.352,0.098,0.661,0.098,0.93,0.002c0.268-0.098,0.5-0.266,0.695-0.507C120.035,352.069,120.333,351.423,120.562,350.581z"/>
			
				<path fill="#B28086" stroke="#B28086" stroke-width="0.3374" stroke-linecap="round" stroke-linejoin="round" stroke-miterlimit="10" d="
				M107.288,347.211l0.898-3.298l2.719,0.741l-0.092,0.336l-2.438-0.663l-0.599,2.203c0.334-0.146,0.671-0.17,1.008-0.078
				c0.603,0.164,1.009,0.477,1.22,0.939c0.208,0.462,0.237,0.974,0.084,1.534c-0.152,0.56-0.456,1.022-0.908,1.387
				c-0.451,0.364-0.938,0.476-1.458,0.335c-0.37-0.102-0.667-0.31-0.894-0.621c-0.227-0.316-0.3-0.652-0.221-1.008l0.308,0.084
				c-0.041,0.237,0.024,0.474,0.194,0.705c0.171,0.234,0.422,0.395,0.754,0.486c0.42,0.113,0.809,0.022,1.164-0.272
				c0.357-0.297,0.601-0.679,0.728-1.147c0.129-0.469,0.104-0.899-0.066-1.294c-0.171-0.394-0.506-0.658-1.003-0.792
				c-0.249-0.068-0.499-0.063-0.754,0.02C107.679,346.89,107.462,347.023,107.288,347.211z"/>
		</g>
	</g>
	<g>
		<path fill="#FFFFFF" stroke="#FFFFFF" stroke-miterlimit="10" d="M62.995,273.871h-2.362v-40.039l-9.33,4.228v-2.3l11.692-5.409
			V273.871z"/>
		<path fill="#FFFFFF" stroke="#FFFFFF" stroke-miterlimit="10" d="M98.742,252.483c0,6.839-1.164,12.094-3.481,15.762
			c-2.322,3.668-5.692,5.502-10.104,5.502c-4.417,0-7.897-1.865-10.448-5.596c-2.545-3.731-3.819-9.024-3.819-15.885
			c0-6.861,1.24-12.123,3.729-15.791c2.484-3.668,6.032-5.502,10.63-5.502C94.244,230.974,98.742,238.143,98.742,252.483z
			 M96.439,251.456c0-5.74-0.961-10.185-2.889-13.334s-4.735-4.726-8.425-4.726c-3.693,0-6.603,1.576-8.737,4.726
			c-2.136,3.149-3.203,7.876-3.203,14.175c0,7.38,1.68,12.788,5.039,16.226c1.863,1.908,3.998,2.861,6.402,2.861
			c2.401,0,4.375-0.538,5.908-1.616c1.533-1.077,2.712-2.55,3.542-4.415C95.65,261.831,96.439,257.2,96.439,251.456z"/>
		<path fill="#FFFFFF" stroke="#FFFFFF" stroke-miterlimit="10" d="M145.619,252.483c0,6.839-1.164,12.094-3.481,15.762
			c-2.322,3.668-5.691,5.502-10.104,5.502c-4.417,0-7.898-1.865-10.448-5.596c-2.546-3.731-3.82-9.024-3.82-15.885
			c0-6.861,1.24-12.123,3.729-15.791c2.483-3.668,6.031-5.502,10.63-5.502C141.121,230.974,145.619,238.143,145.619,252.483z
			 M143.316,251.456c0-5.74-0.961-10.185-2.888-13.334c-1.929-3.149-4.736-4.726-8.426-4.726c-3.692,0-6.603,1.576-8.737,4.726
			s-3.202,7.876-3.202,14.175c0,7.38,1.68,12.788,5.039,16.226c1.862,1.908,3.998,2.861,6.401,2.861
			c2.402,0,4.375-0.538,5.908-1.616c1.533-1.077,2.712-2.55,3.542-4.415C142.527,261.831,143.316,257.2,143.316,251.456z"/>
		<path fill="#FFFFFF" stroke="#FFFFFF" stroke-miterlimit="10" d="M179.877,252.483c0,6.839-1.163,12.094-3.481,15.762
			c-2.322,3.668-5.69,5.502-10.103,5.502c-4.418,0-7.899-1.865-10.448-5.596c-2.546-3.731-3.82-9.024-3.82-15.885
			c0-6.861,1.238-12.123,3.729-15.791c2.482-3.668,6.029-5.502,10.629-5.502C175.379,230.974,179.877,238.143,179.877,252.483z
			 M177.576,251.456c0-5.74-0.962-10.185-2.889-13.334c-1.929-3.149-4.736-4.726-8.424-4.726c-3.694,0-6.604,1.576-8.738,4.726
			c-2.136,3.149-3.203,7.876-3.203,14.175c0,7.38,1.679,12.788,5.039,16.226c1.861,1.908,3.997,2.861,6.4,2.861
			c2.404,0,4.377-0.538,5.91-1.616c1.532-1.077,2.711-2.55,3.541-4.415C176.787,261.831,177.576,257.2,177.576,251.456z"/>
		<path fill="#FFFFFF" stroke="#FFFFFF" stroke-miterlimit="10" d="M214.137,252.483c0,6.839-1.164,12.094-3.481,15.762
			c-2.322,3.668-5.692,5.502-10.104,5.502c-4.417,0-7.899-1.865-10.449-5.596c-2.545-3.731-3.819-9.024-3.819-15.885
			c0-6.861,1.239-12.123,3.729-15.791c2.484-3.668,6.03-5.502,10.63-5.502C209.638,230.974,214.137,238.143,214.137,252.483z
			 M211.834,251.456c0-5.74-0.961-10.185-2.89-13.334c-1.927-3.149-4.736-4.726-8.424-4.726c-3.694,0-6.604,1.576-8.738,4.726
			s-3.202,7.876-3.202,14.175c0,7.38,1.68,12.788,5.039,16.226c1.862,1.908,3.997,2.861,6.399,2.861
			c2.404,0,4.377-0.538,5.911-1.616c1.533-1.077,2.712-2.55,3.542-4.415C211.045,261.831,211.834,257.2,211.834,251.456z"/>
	</g>
	<g>
		
			<rect x="131.391" y="347.727" transform="matrix(0.9892 0.1463 -0.1463 0.9892 55.5415 -20.6819)" fill="#FFFFFF" stroke="#FFFFFF" stroke-width="0.1622" stroke-miterlimit="10" width="74.064" height="39.309"/>
		<g>
			<defs>
				<polygon id="SVGID_17_" points="199.208,389.581 150.307,382.354 156.083,347.905 204.983,355.134 				"/>
			</defs>
			<clipPath id="SVGID_18_">
				<use xlink:href="#SVGID_17_"  overflow="visible"/>
			</clipPath>
			<g clip-path="url(#SVGID_18_)">
				<path fill="#139383" d="M70.566,364.759l-2.705-0.4c-2.068,2.025-5.094,2.677-7.718,2.289c-2.626-0.389-5.334-1.887-6.726-4.424
					l-2.704-0.4c-3.686-0.545-7.113,2.002-7.658,5.688l-1.703,6.898l33.865,5.006l1.034-6.998
					C76.796,368.731,74.25,365.304,70.566,364.759z"/>
				<path fill="#139383" d="M41.028,374.36l1.701-6.898c0.57-3.859,4.174-6.535,8.031-5.964l2.706,0.399
					c0.102,0.016,0.19,0.078,0.24,0.168c1.232,2.246,3.655,3.838,6.485,4.255c2.826,0.419,5.608-0.403,7.438-2.196
					c0.073-0.073,0.176-0.105,0.277-0.09l2.706,0.398c3.857,0.57,6.532,4.174,5.962,8.032l-1.034,6.996 M41.726,374.13l33.213,4.91
					l0.986-6.672c0.518-3.499-1.909-6.767-5.409-7.285l-2.545-0.375c-1.975,1.857-4.904,2.703-7.877,2.265
					c-2.971-0.438-5.529-2.097-6.884-4.448l-2.546-0.375c-3.499-0.518-6.766,1.908-7.282,5.409L41.726,374.13z"/>
			</g>
			<g clip-path="url(#SVGID_18_)">
				<g>
					<path fill="#139383" d="M52.493,350.51c0.889-6.009,6.042-10.226,11.511-9.415c5.469,0.809,9.182,6.334,8.294,12.342
						c-0.889,6.008-6.29,11.902-11.759,11.095C55.071,363.724,51.605,356.515,52.493,350.51z"/>
					<path fill="#139383" d="M60.52,364.661c-5.651-0.835-9.024-8.305-8.158-14.172c0.898-6.07,6.128-10.344,11.661-9.527
						c5.533,0.818,9.303,6.422,8.405,12.494C71.56,359.323,66.17,365.497,60.52,364.661z M63.985,341.224
						c-5.39-0.797-10.485,3.378-11.361,9.305c-0.85,5.746,2.432,13.059,7.935,13.871c5.504,0.814,10.759-5.236,11.608-10.983
						C73.042,347.49,69.373,342.021,63.985,341.224z"/>
				</g>
			</g>
		</g>
		
			<polygon fill="#F6F6F6" stroke="#F6F6F6" stroke-width="0.1622" stroke-linecap="round" stroke-linejoin="round" stroke-miterlimit="10" points="
			202.182,392.241 128.915,381.409 134.664,342.522 		"/>
		
			<rect x="153.263" y="351.332" transform="matrix(0.9892 0.1462 -0.1462 0.9892 55.8492 -22.0639)" fill="#1CB1A3" stroke="#1CB1A3" stroke-width="0.1249" stroke-miterlimit="10" width="49.433" height="34.923"/>
		<polygon fill="#15A594" stroke="#15A594" stroke-width="0.1249" stroke-miterlimit="10" points="199.875,389.682 150.974,382.452 
			156.083,347.905 		"/>
		<g>
			
				<path fill="#139383" stroke="#139383" stroke-width="0.3374" stroke-linecap="round" stroke-linejoin="round" stroke-miterlimit="10" d="
				M137.227,351.804l-0.353-0.052l0.89-6.02l-1.498,0.428l0.051-0.345l1.878-0.553L137.227,351.804z"/>
			
				<path fill="#139383" stroke="#139383" stroke-width="0.3374" stroke-linecap="round" stroke-linejoin="round" stroke-miterlimit="10" d="
				M143.113,349.388c-0.151,1.027-0.444,1.794-0.875,2.292c-0.429,0.5-0.977,0.7-1.64,0.603c-0.664-0.098-1.146-0.455-1.447-1.073
				c-0.3-0.618-0.374-1.442-0.222-2.472c0.153-1.032,0.456-1.795,0.912-2.293c0.456-0.497,1.027-0.693,1.722-0.59
				C142.913,346.055,143.432,347.231,143.113,349.388z M142.789,349.183c0.128-0.863,0.083-1.553-0.139-2.07
				c-0.219-0.516-0.606-0.814-1.16-0.896c-0.555-0.082-1.027,0.091-1.418,0.516c-0.392,0.428-0.656,1.115-0.798,2.061
				c-0.162,1.109-0.031,1.961,0.396,2.551c0.239,0.328,0.539,0.52,0.901,0.573c0.36,0.053,0.667,0.019,0.922-0.112
				c0.255-0.129,0.466-0.322,0.631-0.582C142.44,350.726,142.662,350.046,142.789,349.183z"/>
			
				<path fill="#139383" stroke="#139383" stroke-width="0.3374" stroke-linecap="round" stroke-linejoin="round" stroke-miterlimit="10" d="
				M148.522,350.187c-0.154,1.029-0.444,1.793-0.874,2.294c-0.432,0.499-0.978,0.7-1.643,0.601
				c-0.662-0.098-1.145-0.455-1.444-1.072c-0.302-0.617-0.375-1.443-0.224-2.473c0.153-1.031,0.458-1.795,0.913-2.291
				c0.455-0.497,1.028-0.693,1.719-0.592C148.323,346.854,148.839,348.03,148.522,350.187z M148.196,349.981
				c0.128-0.861,0.082-1.551-0.136-2.068c-0.22-0.516-0.607-0.814-1.161-0.898c-0.555-0.08-1.029,0.091-1.418,0.517
				c-0.395,0.428-0.658,1.113-0.798,2.062c-0.164,1.109-0.032,1.96,0.397,2.551c0.236,0.327,0.536,0.52,0.897,0.57
				c0.361,0.056,0.67,0.02,0.926-0.11c0.252-0.13,0.464-0.323,0.63-0.583C147.848,351.524,148.07,350.845,148.196,349.981z"/>
		</g>
		<g>
			
				<path fill="#98D2D1" stroke="#98D2D1" stroke-width="0.3374" stroke-linecap="round" stroke-linejoin="round" stroke-miterlimit="10" d="
				M187.919,386.55l-0.354-0.053l0.889-6.018l-1.495,0.428l0.053-0.346l1.874-0.554L187.919,386.55z"/>
			
				<path fill="#98D2D1" stroke="#98D2D1" stroke-width="0.3374" stroke-linecap="round" stroke-linejoin="round" stroke-miterlimit="10" d="
				M193.804,384.134c-0.151,1.027-0.442,1.793-0.873,2.291c-0.431,0.5-0.978,0.703-1.642,0.604
				c-0.664-0.096-1.146-0.455-1.445-1.073c-0.301-0.616-0.374-1.442-0.223-2.472c0.154-1.031,0.455-1.797,0.912-2.291
				c0.455-0.497,1.028-0.694,1.721-0.592C193.606,380.8,194.124,381.979,193.804,384.134z M193.481,383.93
				c0.128-0.864,0.083-1.555-0.138-2.07c-0.22-0.515-0.607-0.814-1.161-0.897c-0.557-0.083-1.027,0.092-1.418,0.518
				c-0.392,0.426-0.656,1.112-0.797,2.06c-0.164,1.109-0.032,1.957,0.396,2.55c0.238,0.33,0.538,0.521,0.899,0.574
				c0.362,0.053,0.668,0.016,0.921-0.113c0.256-0.126,0.467-0.322,0.635-0.584C193.132,385.472,193.354,384.792,193.481,383.93z"/>
			
				<path fill="#98D2D1" stroke="#98D2D1" stroke-width="0.3374" stroke-linecap="round" stroke-linejoin="round" stroke-miterlimit="10" d="
				M199.212,384.933c-0.152,1.029-0.443,1.794-0.872,2.291c-0.431,0.502-0.979,0.703-1.642,0.605s-1.145-0.457-1.446-1.075
				c-0.301-0.616-0.375-1.438-0.223-2.472c0.154-1.031,0.457-1.795,0.913-2.291c0.455-0.496,1.029-0.693,1.72-0.592
				C199.015,381.6,199.532,382.778,199.212,384.933z M198.89,384.729c0.126-0.863,0.08-1.555-0.138-2.07
				c-0.221-0.516-0.606-0.815-1.162-0.898c-0.555-0.083-1.027,0.092-1.418,0.518c-0.393,0.426-0.656,1.111-0.797,2.059
				c-0.163,1.111-0.03,1.96,0.398,2.553c0.237,0.327,0.536,0.518,0.897,0.572c0.361,0.053,0.67,0.016,0.925-0.111
				c0.254-0.128,0.463-0.323,0.629-0.586C198.542,386.272,198.762,385.591,198.89,384.729z"/>
		</g>
	</g>
</g>
</svg>
