<?xml version="1.0" encoding="utf-8"?>
<!-- Generator: Adobe Illustrator 15.0.2, SVG Export Plug-In . SVG Version: 6.00 Build 0)  -->
<!DOCTYPE svg PUBLIC "-//W3C//DTD SVG 1.1//EN" "http://www.w3.org/Graphics/SVG/1.1/DTD/svg11.dtd">
<svg version="1.1" id="Lager_1" xmlns="http://www.w3.org/2000/svg" xmlns:xlink="http://www.w3.org/1999/xlink" x="0px" y="0px"
	 width="735.025px" height="54.795px" viewBox="0 0 735.025 54.795" enable-background="new 0 0 735.025 54.795"
	 xml:space="preserve">
<g>
	<g>
		<g>
			<path fill="#5BB5D0" d="M320.083,30.441c0,0-5.816,0.049-7.219,0v-6.782h-9.475v4.621h-7.072v-11.56h-11.272v3.646h-4.488V3.679
				h-14.022v16.688h-3.927L258.961,0l-3.646,20.367h-4.487V8.307h-9.815v12.06h-3.226v-5.749h-9.536v5.749h-6.451V8.868H210.58
				v3.627h-5.049V0.734H191.36v11.761h-5.497V3.176h-9.19v9.256h-7.502V4.959h-4.412v32.64l-8.137-5.726
				c-0.148-0.105-0.35-0.105-0.498,0.001l-3.495,2.486v-0.908h-2.146v2.435l-3.23,2.298c-0.194,0.139-0.24,0.408-0.102,0.603
				c0.138,0.194,0.407,0.239,0.602,0.102l0.164-0.116v8.732h16.842v6.836l8.799,0.162h120.182l25.994,0.291l14.447-0.453V19.483
				h-14.098V30.441z"/>
			<polyline fill="#5BB5D0" points="410.773,38.305 410.773,29.938 410.773,25.042 397.348,25.042 397.348,31.99 392.46,31.99 
				392.46,26.618 379.562,26.618 379.562,31.99 372.902,31.99 372.902,18.093 356.307,18.093 356.307,31.99 348.792,31.99 
				348.792,23.759 336.756,23.759 336.756,46.345 336.756,46.461 410.773,46.461 410.773,38.943 			"/>
		</g>
		<path fill="#5BB5D0" d="M446.763,34.968c-0.261,0-0.511,0.04-0.745,0.113c-0.074-1.147-0.928-2.079-2.037-2.279
			c0-0.001,0-0.004,0-0.004c-0.16-0.046-0.441-0.039-0.441-0.039c-1.372,0-2.483,1.112-2.483,2.484c0,0.277,0.046,0.544,0.129,0.793
			c-1.364,0.008-2.469,1.116-2.469,2.484c0,1.371,1.112,2.482,2.484,2.482c0.459,0,0.89-0.125,1.259-0.342
			c0.078,0.113,0.17,0.217,0.266,0.315c0.022,0.022,0.043,0.044,0.065,0.065c0.098,0.093,0.201,0.18,0.312,0.255
			c0.019,0.013,0.037,0.022,0.056,0.035c0.103,0.065,0.21,0.122,0.321,0.172c0.002,0.002,0.004,0.004,0.006,0.005h-0.029v5.077
			h0.525h0.524v-4.857c1.13-0.004,2.083-0.761,2.38-1.796c1.315-0.064,2.36-1.151,2.36-2.481
			C449.246,36.08,448.135,34.968,446.763,34.968z"/>
		<path fill="#5BB5D0" d="M432.557,34.968c-0.261,0-0.511,0.04-0.746,0.113c-0.073-1.147-0.927-2.079-2.036-2.279
			c0-0.001,0-0.004,0-0.004c-0.161-0.046-0.441-0.039-0.441-0.039c-1.371,0-2.483,1.112-2.483,2.484
			c0,0.277,0.046,0.544,0.129,0.793c-1.364,0.008-2.469,1.116-2.469,2.484c0,1.371,1.111,2.482,2.483,2.482
			c0.46,0,0.891-0.125,1.26-0.342c0.078,0.113,0.17,0.217,0.266,0.315c0.021,0.022,0.043,0.044,0.065,0.065
			c0.098,0.093,0.201,0.18,0.312,0.255c0.018,0.013,0.037,0.022,0.056,0.035c0.103,0.065,0.209,0.122,0.321,0.172
			c0.002,0.002,0.003,0.004,0.006,0.005h-0.029v5.077h0.525h0.524v-4.857c1.13-0.004,2.082-0.761,2.38-1.796
			c1.315-0.064,2.36-1.151,2.36-2.481C435.04,36.08,433.929,34.968,432.557,34.968z"/>
		<path fill="#5BB5D0" d="M460.97,34.968c-0.261,0-0.511,0.04-0.745,0.113c-0.075-1.147-0.928-2.079-2.037-2.279
			c0-0.001,0-0.004,0-0.004c-0.16-0.046-0.442-0.039-0.442-0.039c-1.371,0-2.482,1.112-2.482,2.484c0,0.277,0.046,0.544,0.129,0.793
			c-1.365,0.008-2.469,1.116-2.469,2.484c0,1.371,1.112,2.482,2.483,2.482c0.46,0,0.89-0.125,1.26-0.342
			c0.078,0.113,0.169,0.217,0.266,0.315c0.022,0.022,0.044,0.044,0.065,0.065c0.098,0.093,0.201,0.18,0.312,0.255
			c0.019,0.013,0.037,0.022,0.057,0.035c0.101,0.065,0.208,0.122,0.319,0.172c0.003,0.002,0.004,0.004,0.007,0.005h-0.029v5.077
			h0.525h0.524v-4.857c1.13-0.004,2.082-0.761,2.38-1.796c1.314-0.064,2.36-1.151,2.36-2.481
			C463.453,36.08,462.342,34.968,460.97,34.968z"/>
		<path fill="#5BB5D0" d="M475.177,34.968c-0.261,0-0.511,0.04-0.746,0.113c-0.074-1.147-0.927-2.079-2.035-2.279
			c0-0.001,0-0.004,0-0.004c-0.161-0.046-0.443-0.039-0.443-0.039c-1.371,0-2.483,1.112-2.483,2.484c0,0.277,0.046,0.544,0.13,0.793
			c-1.365,0.008-2.47,1.116-2.47,2.484c0,1.371,1.112,2.482,2.483,2.482c0.461,0,0.891-0.125,1.261-0.342
			c0.078,0.113,0.169,0.217,0.266,0.315c0.021,0.022,0.043,0.044,0.065,0.065c0.098,0.093,0.2,0.18,0.312,0.255
			c0.019,0.013,0.038,0.022,0.057,0.035c0.102,0.065,0.208,0.122,0.32,0.172c0.003,0.002,0.004,0.004,0.007,0.005h-0.029v5.077
			h0.525h0.523v-4.857c1.13-0.004,2.083-0.761,2.381-1.796c1.314-0.064,2.36-1.151,2.36-2.481
			C477.66,36.08,476.548,34.968,475.177,34.968z"/>
	</g>
	<g>
		<path fill="#5BB5D0" d="M22.867,34.553c-0.267,0-0.523,0.041-0.766,0.117c-0.076-1.179-0.953-2.137-2.093-2.342
			c0,0,0-0.003,0-0.003c-0.164-0.048-0.454-0.04-0.454-0.04c-1.409,0-2.552,1.142-2.552,2.552c0,0.285,0.047,0.559,0.134,0.815
			c-1.403,0.007-2.538,1.146-2.538,2.552c0,1.41,1.143,2.552,2.553,2.552c0.472,0,0.914-0.129,1.294-0.352
			c0.08,0.116,0.174,0.223,0.273,0.324c0.022,0.022,0.044,0.045,0.066,0.067c0.101,0.095,0.208,0.184,0.322,0.262
			c0.018,0.013,0.037,0.022,0.057,0.035c0.105,0.067,0.215,0.127,0.329,0.178c0.003,0.002,0.005,0.003,0.007,0.005h-0.03v5.216h0.54
			h0.538V41.5c1.162-0.003,2.141-0.782,2.446-1.845c1.352-0.066,2.426-1.183,2.426-2.55C25.42,35.695,24.277,34.553,22.867,34.553z"
			/>
		<path fill="#5BB5D0" d="M8.269,34.553c-0.268,0-0.524,0.041-0.766,0.117c-0.075-1.179-0.953-2.137-2.093-2.342
			c0,0,0-0.003,0-0.003c-0.165-0.048-0.454-0.04-0.454-0.04c-1.409,0-2.552,1.142-2.552,2.552c0,0.285,0.047,0.559,0.134,0.815
			C1.135,35.659,0,36.798,0,38.203c0,1.41,1.143,2.552,2.553,2.552c0.472,0,0.914-0.129,1.294-0.352
			c0.081,0.116,0.174,0.223,0.272,0.324c0.023,0.022,0.045,0.045,0.067,0.067c0.101,0.095,0.207,0.184,0.322,0.262
			c0.018,0.013,0.037,0.022,0.057,0.035c0.105,0.067,0.215,0.127,0.329,0.178c0.002,0.002,0.004,0.003,0.007,0.005H4.872v5.216
			h0.539H5.95V41.5c1.161-0.003,2.14-0.782,2.445-1.845c1.352-0.066,2.426-1.183,2.426-2.55
			C10.821,35.695,9.679,34.553,8.269,34.553z"/>
		<path fill="#5BB5D0" d="M37.467,34.553c-0.268,0-0.524,0.041-0.766,0.117c-0.076-1.179-0.953-2.137-2.093-2.342
			c0,0,0-0.003,0-0.003c-0.165-0.048-0.454-0.04-0.454-0.04c-1.41,0-2.553,1.142-2.553,2.552c0,0.285,0.048,0.559,0.134,0.815
			c-1.402,0.007-2.537,1.146-2.537,2.552c0,1.41,1.143,2.552,2.552,2.552c0.473,0,0.915-0.129,1.295-0.352
			c0.08,0.116,0.174,0.223,0.272,0.324c0.023,0.022,0.045,0.045,0.067,0.067c0.101,0.095,0.207,0.184,0.321,0.262
			c0.019,0.013,0.038,0.022,0.058,0.035c0.104,0.067,0.215,0.127,0.329,0.178c0.002,0.002,0.004,0.003,0.007,0.005h-0.03v5.216
			h0.539h0.539V41.5c1.161-0.003,2.141-0.782,2.446-1.845c1.351-0.066,2.425-1.183,2.425-2.55
			C40.019,35.695,38.877,34.553,37.467,34.553z"/>
		<path fill="#5BB5D0" d="M52.066,34.553c-0.268,0-0.524,0.041-0.767,0.117c-0.076-1.179-0.953-2.137-2.092-2.342
			c0,0,0-0.003,0-0.003c-0.166-0.048-0.455-0.04-0.455-0.04c-1.409,0-2.552,1.142-2.552,2.552c0,0.285,0.048,0.559,0.134,0.815
			c-1.403,0.007-2.538,1.146-2.538,2.552c0,1.41,1.144,2.552,2.553,2.552c0.473,0,0.915-0.129,1.294-0.352
			c0.081,0.116,0.174,0.223,0.273,0.324c0.022,0.022,0.045,0.045,0.067,0.067c0.1,0.095,0.206,0.184,0.321,0.262
			c0.019,0.013,0.038,0.022,0.057,0.035c0.104,0.067,0.215,0.127,0.329,0.178c0.002,0.002,0.005,0.003,0.008,0.005h-0.03v5.216h0.54
			h0.538V41.5c1.161-0.003,2.14-0.782,2.445-1.845c1.352-0.066,2.427-1.183,2.427-2.55C54.619,35.695,53.476,34.553,52.066,34.553z"
			/>
		<path fill="#5BB5D0" d="M81.567,34.788l-11.179-7.867c-0.187-0.131-0.436-0.131-0.622,0.002l-4.355,3.099V28.89h-2.674v3.035
			l-4.026,2.865c-0.242,0.172-0.299,0.508-0.127,0.75c0.173,0.242,0.508,0.299,0.75,0.126l0.204-0.145v10.884h21.083V35.438
			l0.327,0.23c0.095,0.066,0.201,0.098,0.309,0.098c0.17,0,0.336-0.08,0.441-0.229C81.868,35.295,81.81,34.959,81.567,34.788z"/>
	</g>
	<polygon fill="#5BB5D0" points="562.52,47.612 585.234,47.667 735.025,47.667 735.025,23.06 721.91,23.06 721.91,32.028 
		713.723,32.028 713.723,16.886 695.642,16.886 695.642,32.028 688.387,32.028 688.387,26.175 674.332,26.175 674.332,32.028 
		669.006,32.028 669.006,24.457 654.379,24.457 654.379,29.792 645.928,29.792 645.928,25.44 634.756,25.44 634.756,29.792 
		628.631,29.792 628.631,22.426 615.174,22.426 615.174,26.785 609.225,26.785 609.225,20.827 600.913,20.827 600.913,32.276 
		598.835,32.276 598.835,28.699 591.09,28.699 591.09,34.763 588.421,34.763 588.421,32.276 582.804,32.276 582.804,36.823 
		578.436,36.823 578.436,28.828 573.234,28.828 573.234,33.777 570.114,33.777 570.114,36.398 566.422,36.398 566.422,33.23 
		559.543,33.23 559.543,47.612 	"/>
</g>
</svg>
