<?xml version="1.0" encoding="utf-8"?>
<!-- Generator: Adobe Illustrator 15.0.2, SVG Export Plug-In . SVG Version: 6.00 Build 0)  -->
<!DOCTYPE svg PUBLIC "-//W3C//DTD SVG 1.1//EN" "http://www.w3.org/Graphics/SVG/1.1/DTD/svg11.dtd">
<svg version="1.1" id="Lager_1" xmlns="http://www.w3.org/2000/svg" xmlns:xlink="http://www.w3.org/1999/xlink" x="0px" y="0px"
	 width="105.686px" height="383.592px" viewBox="0 0 105.686 383.592" enable-background="new 0 0 105.686 383.592"
	 xml:space="preserve">
<path fill="#269BD7" d="M104.896,222.135v-6.623v-25.277v-70.982c0,0-2.117-13.516-9.985-23.006
	c1.361-7.799-0.66-17.378-3.476-21.76c-3.941-6.131-8.488-10.593-4.105-26.862c2.135-7.92-0.279-13.452-1.258-18.222
	c0,0-4.607-17.323-18.156-22.281l-0.003,0.004C62.372,3.984,56.58,3.855,53.669,5.171c-0.334-0.8-0.766-1.556-1.3-2.256
	c-7.535-9.858-31.025,8.25-34.643,10.638c-4.467,2.949-9.699-1.561-9.699-1.561c0.412,8.738,5.801,12.312,10.725,13.795
	C10.639,29.196,8.439,20.73,8.439,20.73c-2.092,5.25-2.043,10.317,0.645,13.977c1.41,1.92,3.416,3.25,5.81,4.031
	c-0.319,2.787-0.269,5.78,0.675,8.887c4.896,16.122-0.162,20.731-4.104,26.862c-3.028,4.71-5.139,15.432-3.11,23.486
	c-6.416,9.141-7.429,20.677-7.429,20.677v71.585v25.277v6.313C0.347,223.05,0,224.442,0,225.608v5.134V234v5.086
	c0,1.273,1.029,2.303,2.303,2.303c1.035,0,1.914-0.681,2.203-1.623l0.16-0.519c0,1.276,1.033,2.142,2.303,2.142
	c1.035,0,1.912-0.681,2.203-1.623c0,0,0.031-0.057,0.064-0.144c0.244,1.014,1.15,1.767,2.236,1.767c1.033,0,1.91-0.681,2.203-1.623
	c0,0,0.061-0.115,0.107-0.277c0.179,1.012,1.016,1.786,2.053,1.882v6.042h0.086l3.232,109.326h1.66h2.72
	c-0.664,0.964-1.059,2.249-1.226,3.952l-1.779,11.999c0,0-0.123,2.313-0.42,2.883c-0.946,1.035-1.321,1.759-1.468,2.222
	c-0.325,0.116-0.507,0.19-0.521,0.195v0.959c0.012-0.005,0.168-0.061,0.442-0.147l-0.007,2.697c0,0-0.002,2.15,2.52,2.094h11.072
	h11.072c2.523,0.057,2.52-2.094,2.52-2.094l-0.007-2.692c0.161,0.049,0.321,0.092,0.483,0.143v-0.929
	c-0.183-0.057-0.362-0.106-0.544-0.16c-0.13-0.458-0.49-1.198-1.485-2.287c-0.297-0.569-0.418-2.883-0.418-2.883l-1.781-11.999
	c-0.167-1.703-0.561-2.988-1.225-3.952h2.729h1.658l3.154-106.15v-2.49c0-2.23,1.807-4.038,4.035-4.038
	c2.23,0,4.039,1.808,4.039,4.038v2.506l3.152,106.135h1.66h0.033h2.497c-0.664,0.964-1.059,2.249-1.226,3.952l-1.779,11.999
	c0,0-0.123,2.313-0.42,2.883c-0.944,1.034-1.319,1.758-1.466,2.221c-0.326,0.116-0.509,0.191-0.522,0.196v0.959
	c0.013-0.005,0.169-0.061,0.444-0.147l-0.009,2.697c0,0-0.002,2.15,2.52,2.094h11.072h11.072c2.523,0.057,2.52-2.094,2.52-2.094
	l-0.007-2.692c0.161,0.049,0.321,0.092,0.483,0.143v-0.929c-0.183-0.057-0.362-0.106-0.544-0.16c-0.13-0.458-0.49-1.198-1.485-2.287
	c-0.297-0.569-0.418-2.883-0.418-2.883l-1.779-11.999c-0.167-1.703-0.562-2.988-1.226-3.952h2.915h0.035h1.623l3.234-109.326h0.086
	v-6.167c0.248,0.091,0.514,0.144,0.793,0.144c1.135,0,2.07-0.82,2.262-1.9c0.049,0.162,0.109,0.277,0.109,0.277
	c0.291,0.942,1.168,1.623,2.201,1.623c1.088,0,1.994-0.753,2.236-1.767c0.035,0.087,0.066,0.144,0.066,0.144
	c0.291,0.942,1.168,1.623,2.201,1.623c1.271,0,2.305-0.865,2.305-2.142l0.16,0.519c0.289,0.942,1.166,1.623,2.203,1.623
	c1.273,0,2.303-1.029,2.303-2.303V234v-3.258v-5.134C105.686,224.539,105.392,223.282,104.896,222.135z"/>
</svg>
