<?xml version="1.0" encoding="utf-8"?>
<!-- Generator: Adobe Illustrator 15.0.2, SVG Export Plug-In . SVG Version: 6.00 Build 0)  -->
<!DOCTYPE svg PUBLIC "-//W3C//DTD SVG 1.1//EN" "http://www.w3.org/Graphics/SVG/1.1/DTD/svg11.dtd">
<svg version="1.1" id="Lager_1" xmlns="http://www.w3.org/2000/svg" xmlns:xlink="http://www.w3.org/1999/xlink" x="0px" y="0px"
	 width="152.083px" height="187.417px" viewBox="0 0 152.083 187.417" enable-background="new 0 0 152.083 187.417"
	 xml:space="preserve">
<g>
	<g>
		<g>
			<g>
				
					<rect x="72.157" y="64.217" fill="#906038" stroke="#906038" stroke-width="0.5826" stroke-linecap="round" stroke-linejoin="round" stroke-miterlimit="10" width="7.768" height="122.908"/>
				
					<rect x="72.159" y="64.673" fill="#7E4F27" stroke="#7E4F27" stroke-width="0.412" stroke-linecap="round" stroke-linejoin="round" stroke-miterlimit="10" width="3.883" height="122.452"/>
			</g>
			<g>
				
					<rect x="0.292" y="0.292" fill="#906038" stroke="#906038" stroke-width="0.5826" stroke-linecap="round" stroke-linejoin="round" stroke-miterlimit="10" width="151.498" height="63.927"/>
				
					<polygon fill="#7E4F27" stroke="#7E4F27" stroke-width="0.5826" stroke-linecap="round" stroke-linejoin="round" stroke-miterlimit="10" points="
					151.792,64.217 0.293,64.217 0.293,0.292 				"/>
			</g>
			<rect x="5.594" y="4.887" fill="#FFFFFF" width="140.895" height="54.733"/>
			<polygon fill="#F5F5F6" points="139.377,59.622 4.94,59.622 4.94,4.887 12.811,4.887 			"/>
		</g>
	</g>
	<g>
		<path fill="#3F3E40" d="M27.422,40.095h-0.984V21.497h9.51v0.98h-8.525v6.805h8.525v0.981h-8.525V40.095z"/>
		<path fill="#3F3E40" d="M39.641,40.095h-0.982V26.811h0.982v1.938c0.373-0.441,0.943-0.916,1.713-1.421
			c0.773-0.507,1.508-0.759,2.205-0.759c0.701,0,1.311,0.199,1.834,0.599c0.523,0.396,0.795,1.051,0.811,1.953h-0.982
			c0-0.495-0.158-0.888-0.479-1.17c-0.318-0.282-0.752-0.425-1.303-0.425c-0.547,0-1.215,0.266-2.006,0.798
			c-0.787,0.529-1.385,1.114-1.793,1.755V40.095z"/>
		<path fill="#3F3E40" d="M55.85,26.81h0.982v13.312c-1.062,0-1.992-0.045-2.789-0.136c-0.799-0.089-1.627-0.277-2.486-0.569
			c-0.857-0.292-1.562-0.688-2.111-1.184c-0.549-0.497-1.002-1.183-1.355-2.06s-0.529-1.863-0.529-2.963s0.109-2.04,0.33-2.831
			c0.223-0.786,0.506-1.415,0.852-1.885c0.344-0.47,0.73-0.854,1.154-1.155c0.744-0.55,1.479-0.824,2.205-0.824
			c1.328,0,2.578,0.629,3.748,1.887V26.81z M48.542,33.082c0,2.318,0.719,3.933,2.154,4.836c1.275,0.797,2.992,1.194,5.154,1.194
			v-9.381c-0.604-0.688-1.184-1.232-1.74-1.633c-0.559-0.397-1.174-0.598-1.846-0.598c-1.117,0-2.018,0.492-2.697,1.475
			C48.883,29.959,48.542,31.328,48.542,33.082z"/>
		<path fill="#3F3E40" d="M68.549,40.095l0.025-7.015c0-1.487-0.332-2.784-0.996-3.894c-0.664-1.106-1.514-1.66-2.551-1.66
			s-2.199,0.735-3.492,2.203v10.363h-0.984V26.809h0.984v1.594c1.148-1.238,2.398-1.857,3.744-1.857
			c0.549,0,1.148,0.193,1.795,0.584c0.646,0.39,1.191,1.001,1.635,1.834c1.256-1.612,2.699-2.418,4.33-2.418
			c0.902,0,1.84,0.425,2.816,1.272c0.494,0.461,0.908,1.146,1.234,2.047c0.328,0.902,0.492,1.968,0.492,3.188l-0.027,7.041h-0.982
			l0.025-7.015c0-1.487-0.357-2.784-1.076-3.894c-0.717-1.106-1.598-1.66-2.643-1.66c-0.691,0-1.387,0.239-2.086,0.717
			c-0.701,0.479-1.271,1.027-1.713,1.647c0.318,0.921,0.479,1.975,0.479,3.161l-0.025,7.041L68.549,40.095L68.549,40.095z"/>
		<path fill="#3F3E40" d="M81.991,27.793h-3.055v-0.981h3.055v-4.385h0.982v4.385h3.084v0.981h-3.084v12.303h-0.982V27.793z"/>
		<path fill="#3F3E40" d="M89.139,40.095h-0.982V26.811h0.982V40.095z M88.209,22.426h0.982v2.284h-0.982V22.426z"/>
		<path fill="#3F3E40" d="M100.272,20.168h0.982v19.954c-1.061,0-1.99-0.045-2.789-0.136c-0.799-0.089-1.627-0.277-2.484-0.569
			s-1.564-0.688-2.113-1.184c-0.549-0.497-1-1.183-1.352-2.06c-0.357-0.877-0.533-1.863-0.533-2.963s0.109-2.04,0.33-2.831
			c0.223-0.786,0.506-1.415,0.854-1.885c0.344-0.47,0.73-0.854,1.152-1.155c0.744-0.55,1.479-0.824,2.207-0.824
			c1.328,0,2.576,0.629,3.746,1.887V20.168z M94.042,29.174c-0.717,1.115-1.078,2.335-1.078,3.654c0,1.317,0.188,2.387,0.561,3.2
			c0.371,0.814,0.902,1.443,1.594,1.888c1.275,0.797,2.994,1.194,5.154,1.194V29.73c-0.602-0.688-1.182-1.232-1.74-1.633
			C97.975,27.7,97.358,27.5,96.686,27.5C95.639,27.501,94.758,28.058,94.042,29.174z"/>
		<path fill="#3F3E40" d="M113.45,39.137v0.984c-1.061,0-1.998-0.045-2.803-0.136c-0.807-0.089-1.643-0.277-2.51-0.569
			c-0.869-0.292-1.582-0.688-2.141-1.184c-0.559-0.497-1.02-1.183-1.383-2.06c-0.361-0.877-0.543-1.921-0.543-3.136
			c0-1.213,0.162-2.271,0.492-3.176c0.326-0.901,0.748-1.586,1.262-2.047c0.957-0.85,1.885-1.272,2.791-1.272
			c1.504,0,2.678,0.44,3.518,1.327c0.842,0.886,1.264,2.056,1.264,3.509c0,0.974-0.01,1.54-0.027,1.699h-8.316
			c0,2.282,0.682,3.864,2.047,4.741C108.463,38.7,110.581,39.137,113.45,39.137z M112.415,32.097v-0.585
			c0-1.168-0.334-2.125-0.998-2.869s-1.541-1.115-2.629-1.115c-1.09,0-1.951,0.431-2.576,1.287c-0.631,0.86-1.008,1.953-1.133,3.282
			H112.415L112.415,32.097z"/>
		<path fill="#3F3E40" d="M124.637,40.095l0.025-7.015c0-1.487-0.359-2.784-1.076-3.894c-0.717-1.106-1.611-1.66-2.684-1.66
			c-1.07,0-2.254,0.735-3.545,2.203v10.363h-0.986V26.809h0.986v1.594c1.148-1.238,2.398-1.857,3.744-1.857
			c0.902,0,1.842,0.425,2.816,1.272c0.496,0.461,0.908,1.146,1.234,2.048c0.33,0.901,0.494,1.967,0.494,3.188l-0.029,7.041
			L124.637,40.095L124.637,40.095z"/>
	</g>
</g>
</svg>
