<?xml version="1.0" encoding="utf-8"?>
<!-- Generator: Adobe Illustrator 15.0.2, SVG Export Plug-In . SVG Version: 6.00 Build 0)  -->
<!DOCTYPE svg PUBLIC "-//W3C//DTD SVG 1.1//EN" "http://www.w3.org/Graphics/SVG/1.1/DTD/svg11.dtd">
<svg version="1.1" id="Lager_1" xmlns="http://www.w3.org/2000/svg" xmlns:xlink="http://www.w3.org/1999/xlink" x="0px" y="0px"
	 width="152.08px" height="187.417px" viewBox="0 0 152.08 187.417" enable-background="new 0 0 152.08 187.417"
	 xml:space="preserve">
<g>
	<g>
		<g>
			
				<rect x="72.157" y="64.218" fill="#905F37" stroke="#905F37" stroke-width="0.5826" stroke-linecap="round" stroke-linejoin="round" stroke-miterlimit="10" width="7.768" height="122.908"/>
			
				<rect x="72.157" y="64.674" fill="#7D4E26" stroke="#7D4E26" stroke-width="0.412" stroke-linecap="round" stroke-linejoin="round" stroke-miterlimit="10" width="3.882" height="122.452"/>
		</g>
		<g>
			
				<rect x="0.292" y="0.292" fill="#905F37" stroke="#905F37" stroke-width="0.5826" stroke-linecap="round" stroke-linejoin="round" stroke-miterlimit="10" width="151.497" height="63.927"/>
			
				<polygon fill="#7D4E26" stroke="#7D4E26" stroke-width="0.5826" stroke-linecap="round" stroke-linejoin="round" stroke-miterlimit="10" points="
				151.789,64.218 0.292,64.218 0.292,0.292 			"/>
		</g>
		<rect x="5.593" y="4.939" fill="#FFFFFF" width="140.894" height="54.733"/>
		<polygon fill="#F5F5F6" points="139.376,59.622 4.938,59.622 4.938,4.888 12.808,4.888 		"/>
	</g>
	<g>
		<path fill="#3E3D3F" stroke="#3E3D3F" stroke-width="0.4982" stroke-miterlimit="10" d="M50.212,48.598h-1.768V18.655
			l-6.974,3.162v-1.72l8.741-4.045V48.598z"/>
		<path fill="#3E3D3F" stroke="#3E3D3F" stroke-width="0.4982" stroke-miterlimit="10" d="M74.018,26.513l-0.047,5.161v5.44
			c0,1.736-0.232,3.294-0.697,4.673s-1.031,2.479-1.697,3.301c-0.667,0.821-1.434,1.496-2.302,2.022
			c-1.457,0.961-2.852,1.441-4.185,1.441c-3.068,0-5.797-0.868-8.183-2.604L57,44.228c1.022,0.714,2.302,1.325,3.836,1.837
			s2.859,0.767,3.976,0.767c1.983,0,3.72-0.898,5.207-2.696c1.488-1.798,2.232-4.154,2.232-7.068v-5.998
			c-0.775,1.208-1.821,2.162-3.139,2.859c-1.318,0.697-2.767,1.046-4.348,1.046c-2.635,0-4.836-0.914-6.603-2.743
			c-1.767-1.829-2.65-4.107-2.65-6.835c0-1.457,0.256-2.758,0.768-3.906c0.512-1.146,1.131-2.053,1.859-2.72
			c0.729-0.667,1.558-1.201,2.488-1.604c1.58-0.744,3.021-1.116,4.324-1.116c2.541,0,4.688,0.83,6.439,2.488
			c1.751,1.658,2.627,3.945,2.627,6.858V26.513z M72.297,25.304c0-2.046-0.736-3.79-2.208-5.231
			c-1.473-1.441-3.24-2.162-5.301-2.162c-2.062,0-3.836,0.729-5.324,2.186c-1.487,1.457-2.231,3.193-2.231,5.208
			c0,2.015,0.736,3.844,2.208,5.486c1.473,1.644,3.271,2.464,5.394,2.464s3.898-0.813,5.324-2.441S72.297,27.35,72.297,25.304z"/>
		<path fill="#3E3D3F" stroke="#3E3D3F" stroke-width="0.4982" stroke-miterlimit="10" d="M86.432,48.598h-1.768V18.655
			l-6.974,3.162v-1.72l8.741-4.045V48.598z"/>
		<path fill="#3E3D3F" stroke="#3E3D3F" stroke-width="0.4982" stroke-miterlimit="10" d="M107.959,45.901
			c-1.767,1.829-3.969,2.743-6.603,2.743c-2.635,0-4.836-0.914-6.603-2.743s-2.65-4.106-2.65-6.835c0-1.89,0.457-3.604,1.372-5.138
			c0.914-1.535,2.162-2.674,3.742-3.417c-1.115-0.682-2.007-1.627-2.673-2.836c-0.667-1.209-1-2.526-1-3.952
			c0-2.232,0.774-4.099,2.325-5.603c1.55-1.503,3.433-2.255,5.649-2.255c2.216,0,4.083,0.752,5.603,2.255
			c1.519,1.504,2.278,3.371,2.278,5.603c0,3.038-1.271,5.316-3.812,6.835c1.58,0.775,2.812,1.906,3.696,3.394
			c0.883,1.488,1.325,3.193,1.325,5.115C110.61,41.795,109.726,44.072,107.959,45.901z M108.889,38.974
			c0-2.046-0.736-3.79-2.208-5.231c-1.473-1.441-3.24-2.162-5.301-2.162c-2.062,0-3.836,0.729-5.324,2.186
			c-1.487,1.457-2.231,3.193-2.231,5.208s0.735,3.844,2.208,5.486c1.473,1.644,3.271,2.464,5.394,2.464s3.898-0.812,5.324-2.44
			S108.889,41.02,108.889,38.974z M107.68,23.63c0-1.611-0.62-3.022-1.859-4.231c-1.24-1.209-2.682-1.813-4.324-1.813
			c-1.644,0-3.092,0.612-4.348,1.836c-1.255,1.225-1.883,2.62-1.883,4.185c0,1.565,0.619,2.976,1.859,4.231
			c1.239,1.256,2.712,1.883,4.417,1.883s3.154-0.612,4.348-1.836C107.083,26.66,107.68,25.242,107.68,23.63z"/>
	</g>
</g>
</svg>
