<?xml version="1.0" encoding="utf-8"?>
<!-- Generator: Adobe Illustrator 17.1.0, SVG Export Plug-In . SVG Version: 6.00 Build 0)  -->
<!DOCTYPE svg PUBLIC "-//W3C//DTD SVG 1.1//EN" "http://www.w3.org/Graphics/SVG/1.1/DTD/svg11.dtd">
<svg version="1.1" id="Layer_1" xmlns="http://www.w3.org/2000/svg" xmlns:xlink="http://www.w3.org/1999/xlink" x="0px" y="0px"
	 width="105.765px" height="105.81px" viewBox="0 0 105.765 105.81" enable-background="new 0 0 105.765 105.81"
	 xml:space="preserve">
<g>
	<g>
		<g>
			
				<rect x="0.164" y="0.164" fill="#FFFFFF" stroke="#FFFFFF" stroke-width="0.3289" stroke-linecap="round" stroke-linejoin="round" stroke-miterlimit="10" width="105.437" height="36.091"/>
			
				<polygon fill="#F6F6F6" stroke="#F6F6F6" stroke-width="0.3289" stroke-linecap="round" stroke-linejoin="round" stroke-miterlimit="10" points="
				105.601,36.256 0.164,36.256 0.164,0.164 			"/>
		</g>
		
			<rect x="3.301" y="2.76" fill="#3F96D2" stroke="#3F96D2" stroke-width="0.3007" stroke-linecap="round" stroke-linejoin="round" stroke-miterlimit="10" width="99.45" height="30.9"/>
		
			<polygon fill="#2D7FBD" stroke="#2D7FBD" stroke-width="0.3007" stroke-linecap="round" stroke-linejoin="round" stroke-miterlimit="10" points="
			99.106,33.66 3.301,33.66 3.301,2.76 7.746,2.76 		"/>
	</g>
	
		<rect x="50.69" y="36.256" fill="#F6F6F6" stroke="#F6F6F6" stroke-width="0.3289" stroke-linecap="round" stroke-linejoin="round" stroke-miterlimit="10" width="4.385" height="69.39"/>
	
		<rect x="50.69" y="36.513" fill="#DADADA" stroke="#DADADA" stroke-width="0.2326" stroke-linecap="round" stroke-linejoin="round" stroke-miterlimit="10" width="2.192" height="69.133"/>
	<g>
		
			<path fill="#FFFFFF" stroke="#FFFFFF" stroke-width="0.1316" stroke-linecap="round" stroke-linejoin="round" stroke-miterlimit="10" d="
			M17.418,22.975c0.623-0.539,0.933-1.195,0.933-1.969c0-0.773-0.225-1.392-0.673-1.855c-0.449-0.463-0.992-0.809-1.627-1.035
			c-0.634-0.229-1.274-0.461-1.917-0.695c-0.643-0.234-1.188-0.59-1.638-1.066c-0.449-0.477-0.673-1.088-0.673-1.835
			c0-1.298,0.363-2.266,1.088-2.902c0.725-0.635,1.592-0.953,2.601-0.953c1.008,0,2.113,0.097,3.316,0.291v0.767
			c-1.078-0.193-2.086-0.29-3.026-0.29c-0.939,0-1.71,0.263-2.311,0.788c-0.602,0.525-0.902,1.264-0.902,2.218
			c0,0.829,0.429,1.451,1.286,1.865c0.386,0.193,0.811,0.373,1.275,0.539c0.462,0.166,0.929,0.352,1.398,0.56
			c0.47,0.208,0.896,0.452,1.275,0.735c0.379,0.283,0.691,0.678,0.933,1.182c0.241,0.505,0.363,1.092,0.363,1.762
			c0,0.67-0.155,1.262-0.465,1.771c-0.312,0.512-0.695,0.912-1.15,1.203c-0.457,0.29-0.989,0.525-1.598,0.704
			c-0.979,0.304-2.086,0.456-3.316,0.456h-0.517v-0.767C14.53,24.446,16.313,23.955,17.418,22.975z"/>
		
			<path fill="#FFFFFF" stroke="#FFFFFF" stroke-width="0.1316" stroke-linecap="round" stroke-linejoin="round" stroke-miterlimit="10" d="
			M21.916,15.575h-2.384v-0.767h2.384v-3.42h0.765v3.42h2.406v0.767h-2.406v9.597h-0.765V15.575z"/>
		
			<path fill="#FFFFFF" stroke="#FFFFFF" stroke-width="0.1316" stroke-linecap="round" stroke-linejoin="round" stroke-miterlimit="10" d="
			M32.341,14.809h0.766v10.384c-0.828,0-1.553-0.034-2.175-0.104c-0.623-0.069-1.269-0.218-1.938-0.446
			c-0.67-0.228-1.22-0.534-1.648-0.922c-0.428-0.387-0.781-0.922-1.056-1.606c-0.276-0.685-0.414-1.455-0.414-2.312
			c0-0.856,0.086-1.593,0.258-2.208c0.174-0.613,0.395-1.105,0.665-1.471c0.269-0.366,0.57-0.667,0.9-0.901
			c0.581-0.428,1.154-0.643,1.721-0.643c1.036,0,2.011,0.49,2.923,1.472V14.809z M26.641,19.699c0,1.811,0.56,3.068,1.68,3.773
			c0.995,0.621,2.334,0.932,4.021,0.932v-7.316c-0.471-0.539-0.922-0.963-1.357-1.274c-0.436-0.311-0.916-0.466-1.441-0.466
			c-0.871,0-1.572,0.384-2.104,1.15C26.907,17.265,26.641,18.332,26.641,19.699z"/>
		
			<path fill="#FFFFFF" stroke="#FFFFFF" stroke-width="0.1316" stroke-linecap="round" stroke-linejoin="round" stroke-miterlimit="10" d="
			M41.79,9.627h0.765v15.565c-0.828,0-1.553-0.034-2.176-0.104c-0.622-0.069-1.269-0.218-1.938-0.446
			c-0.67-0.228-1.22-0.534-1.649-0.922c-0.428-0.387-0.781-0.922-1.056-1.606c-0.276-0.685-0.415-1.455-0.415-2.312
			c0-0.856,0.086-1.593,0.258-2.208c0.174-0.613,0.395-1.105,0.665-1.471c0.268-0.366,0.57-0.667,0.9-0.901
			c0.58-0.428,1.154-0.643,1.721-0.643c1.036,0,2.01,0.49,2.923,1.472V9.627z M36.929,16.652c-0.56,0.871-0.84,1.821-0.84,2.85
			c0,1.031,0.146,1.863,0.437,2.498c0.29,0.637,0.704,1.127,1.243,1.473c0.995,0.621,2.334,0.932,4.021,0.932v-7.316
			c-0.471-0.539-0.923-0.963-1.358-1.274c-0.435-0.311-0.915-0.466-1.44-0.466C38.175,15.348,37.489,15.783,36.929,16.652z"/>
		
			<path fill="#FFFFFF" stroke="#FFFFFF" stroke-width="0.1316" stroke-linecap="round" stroke-linejoin="round" stroke-miterlimit="10" d="
			M52.068,24.426v0.767c-0.828,0-1.559-0.034-2.186-0.104c-0.63-0.069-1.282-0.218-1.958-0.446c-0.679-0.228-1.235-0.534-1.67-0.922
			c-0.436-0.387-0.795-0.922-1.078-1.606c-0.283-0.685-0.423-1.499-0.423-2.446c0-0.946,0.126-1.772,0.383-2.477
			c0.255-0.703,0.583-1.236,0.985-1.595c0.746-0.664,1.471-0.995,2.176-0.995c1.173,0,2.09,0.345,2.746,1.036
			c0.656,0.69,0.985,1.602,0.985,2.735c0,0.76-0.008,1.202-0.022,1.326h-6.487c0,1.783,0.531,3.017,1.596,3.701
			C48.179,24.084,49.83,24.426,52.068,24.426z M51.261,18.934v-0.456c0-0.912-0.26-1.658-0.778-2.239
			c-0.518-0.58-1.203-0.87-2.051-0.87c-0.85,0-1.521,0.335-2.01,1.004c-0.491,0.67-0.785,1.523-0.882,2.561H51.261z"/>
		
			<path fill="#FFFFFF" stroke="#FFFFFF" stroke-width="0.1316" stroke-linecap="round" stroke-linejoin="round" stroke-miterlimit="10" d="
			M60.795,25.172l0.021-5.473c0-1.16-0.28-2.172-0.84-3.035c-0.558-0.864-1.256-1.295-2.093-1.295c-0.834,0-1.757,0.574-2.766,1.719
			v8.084h-0.768V14.809h0.768v1.244c0.897-0.967,1.872-1.451,2.921-1.451c0.705,0,1.437,0.331,2.198,0.995
			c0.386,0.359,0.708,0.892,0.963,1.595c0.256,0.705,0.384,1.535,0.384,2.488l-0.022,5.492H60.795z"/>
		
			<path fill="#FFFFFF" stroke="#FFFFFF" stroke-width="0.1316" stroke-linecap="round" stroke-linejoin="round" stroke-miterlimit="10" d="
			M82.977,25.172h-0.788V11.824l-3.111,1.409v-0.767l3.899-1.803V25.172z"/>
		
			<path fill="#FFFFFF" stroke="#FFFFFF" stroke-width="0.1316" stroke-linecap="round" stroke-linejoin="round" stroke-miterlimit="10" d="
			M94.893,18.042c0,2.279-0.388,4.031-1.16,5.254c-0.773,1.223-1.897,1.835-3.368,1.835c-1.473,0-2.633-0.622-3.483-1.865
			c-0.848-1.244-1.273-3.009-1.273-5.297c0-2.286,0.413-4.04,1.243-5.263c0.828-1.223,2.01-1.835,3.543-1.835
			C93.393,10.871,94.893,13.261,94.893,18.042z M94.125,17.699c0-1.913-0.32-3.394-0.962-4.445c-0.644-1.05-1.58-1.575-2.809-1.575
			c-1.231,0-2.201,0.525-2.913,1.575c-0.712,1.05-1.068,2.625-1.068,4.725c0,2.46,0.56,4.263,1.68,5.409
			c0.621,0.636,1.333,0.954,2.133,0.954c0.801,0,1.459-0.18,1.97-0.539c0.511-0.359,0.904-0.851,1.181-1.472
			C93.862,21.158,94.125,19.614,94.125,17.699z"/>
	</g>
</g>
</svg>
