<?xml version="1.0" encoding="utf-8"?>
<!-- Generator: Adobe Illustrator 15.0.2, SVG Export Plug-In . SVG Version: 6.00 Build 0)  -->
<!DOCTYPE svg PUBLIC "-//W3C//DTD SVG 1.1//EN" "http://www.w3.org/Graphics/SVG/1.1/DTD/svg11.dtd">
<svg version="1.1" id="Lager_1" xmlns="http://www.w3.org/2000/svg" xmlns:xlink="http://www.w3.org/1999/xlink" x="0px" y="0px"
	 width="152.08px" height="187.417px" viewBox="0 0 152.08 187.417" enable-background="new 0 0 152.08 187.417"
	 xml:space="preserve">
<g>
	<g>
		
			<rect x="72.157" y="64.218" fill="#905F37" stroke="#905F37" stroke-width="0.5826" stroke-linecap="round" stroke-linejoin="round" stroke-miterlimit="10" width="7.767" height="122.908"/>
		
			<rect x="72.157" y="64.674" fill="#7D4E26" stroke="#7D4E26" stroke-width="0.412" stroke-linecap="round" stroke-linejoin="round" stroke-miterlimit="10" width="3.882" height="122.452"/>
	</g>
	<g>
		
			<rect x="0.292" y="0.292" fill="#905F37" stroke="#905F37" stroke-width="0.5826" stroke-linecap="round" stroke-linejoin="round" stroke-miterlimit="10" width="151.498" height="63.927"/>
		
			<polygon fill="#7D4E26" stroke="#7D4E26" stroke-width="0.5826" stroke-linecap="round" stroke-linejoin="round" stroke-miterlimit="10" points="
			151.789,64.218 0.292,64.218 0.292,0.292 		"/>
	</g>
	<rect x="5.593" y="4.939" fill="#FFFFFF" width="140.894" height="54.733"/>
	<polygon fill="#F5F5F6" points="139.376,59.622 4.938,59.622 4.938,4.888 12.808,4.888 	"/>
	<g>
		<path fill="#3E3D3F" stroke="#3E3D3F" stroke-width="0.4982" stroke-miterlimit="10" d="M43.45,48.65h-1.766V18.705l-6.975,3.163
			v-1.72l8.741-4.044V48.65z"/>
		<path fill="#3E3D3F" stroke="#3E3D3F" stroke-width="0.4982" stroke-miterlimit="10" d="M64.978,45.952
			c-1.767,1.829-3.969,2.744-6.602,2.744c-2.635,0-4.836-0.915-6.604-2.744c-1.766-1.829-2.65-4.105-2.65-6.834
			c0-1.891,0.458-3.603,1.372-5.137c0.913-1.534,2.162-2.676,3.743-3.418c-1.116-0.682-2.007-1.629-2.674-2.835
			c-0.667-1.21-0.999-2.526-0.999-3.954c0-2.231,0.773-4.1,2.324-5.601c1.55-1.505,3.433-2.258,5.65-2.258
			c2.215,0,4.083,0.753,5.603,2.258c1.518,1.501,2.278,3.369,2.278,5.601c0,3.039-1.271,5.316-3.812,6.834
			c1.581,0.775,2.812,1.907,3.695,3.396c0.884,1.489,1.325,3.191,1.325,5.114C67.627,41.846,66.745,44.123,64.978,45.952z
			 M65.908,39.024c0-2.046-0.738-3.788-2.209-5.231c-1.474-1.439-3.24-2.159-5.301-2.159s-3.835,0.726-5.324,2.186
			c-1.487,1.456-2.231,3.191-2.231,5.205c0,2.018,0.736,3.844,2.209,5.488c1.471,1.644,3.269,2.465,5.394,2.465
			c2.123,0,3.896-0.814,5.323-2.442C65.194,42.907,65.908,41.071,65.908,39.024z M64.698,23.68c0-1.612-0.621-3.022-1.86-4.229
			c-1.24-1.21-2.68-1.812-4.323-1.812c-1.644,0-3.092,0.609-4.348,1.836c-1.255,1.226-1.882,2.62-1.882,4.184
			c0,1.566,0.619,2.978,1.858,4.232c1.24,1.255,2.713,1.881,4.417,1.881c1.704,0,3.154-0.609,4.348-1.836
			C64.102,26.712,64.698,25.292,64.698,23.68z"/>
		<path fill="#3E3D3F" stroke="#3E3D3F" stroke-width="0.4982" stroke-miterlimit="10" d="M72.603,38.142l0.047-5.209V27.54
			c0-1.735,0.231-3.292,0.697-4.674c0.465-1.378,1.029-2.478,1.697-3.298c0.665-0.824,1.434-1.512,2.302-2.069
			c1.456-0.931,2.851-1.395,4.184-1.395c3.07,0,5.796,0.866,8.185,2.601l-0.094,1.723c-1.023-0.714-2.302-1.326-3.836-1.836
			c-1.533-0.513-2.858-0.769-3.976-0.769c-1.983,0-3.719,0.898-5.207,2.695c-1.487,1.8-2.231,4.154-2.231,7.07v5.997
			c0.773-1.21,1.82-2.163,3.138-2.86c1.316-0.697,2.767-1.045,4.348-1.045c2.634,0,4.836,0.915,6.602,2.741
			c1.768,1.832,2.651,4.108,2.651,6.836c0,1.456-0.256,2.761-0.767,3.905c-0.513,1.148-1.132,2.053-1.86,2.721
			c-0.729,0.665-1.559,1.217-2.487,1.651c-1.581,0.714-3.023,1.067-4.325,1.067c-2.541,0-4.688-0.827-6.439-2.488
			c-1.752-1.657-2.627-3.943-2.627-6.856V38.142z M74.323,39.352c0,2.043,0.735,3.788,2.208,5.228
			c1.473,1.443,3.238,2.164,5.302,2.164c2.061,0,3.835-0.727,5.323-2.187c1.487-1.456,2.231-3.191,2.231-5.205
			c0-2.018-0.736-3.844-2.208-5.488c-1.473-1.644-3.271-2.465-5.394-2.465c-2.123,0-3.898,0.814-5.324,2.442
			C75.036,35.466,74.323,37.305,74.323,39.352z"/>
		<path fill="#3E3D3F" stroke="#3E3D3F" stroke-width="0.4982" stroke-miterlimit="10" d="M110.868,45.952
			c-1.766,1.829-3.968,2.744-6.602,2.744c-2.635,0-4.836-0.915-6.604-2.744c-1.766-1.829-2.649-4.105-2.649-6.834
			c0-1.891,0.457-3.603,1.372-5.137c0.913-1.534,2.161-2.676,3.742-3.418c-1.115-0.682-2.008-1.629-2.674-2.835
			c-0.666-1.21-0.999-2.526-0.999-3.954c0-2.231,0.773-4.1,2.324-5.601c1.55-1.505,3.433-2.258,5.649-2.258
			c2.215,0,4.083,0.753,5.603,2.258c1.519,1.501,2.279,3.369,2.279,5.601c0,3.039-1.271,5.316-3.813,6.834
			c1.582,0.775,2.812,1.907,3.696,3.396c0.884,1.489,1.325,3.191,1.325,5.114C113.519,41.846,112.636,44.123,110.868,45.952z
			 M111.799,39.024c0-2.046-0.737-3.788-2.208-5.231c-1.475-1.439-3.24-2.159-5.302-2.159c-2.061,0-3.835,0.726-5.323,2.186
			c-1.487,1.456-2.231,3.191-2.231,5.205c0,2.018,0.736,3.844,2.208,5.488c1.472,1.644,3.27,2.465,5.395,2.465
			c2.122,0,3.896-0.814,5.323-2.442C111.086,42.907,111.799,41.071,111.799,39.024z M110.59,23.68c0-1.612-0.621-3.022-1.86-4.229
			c-1.24-1.21-2.681-1.812-4.323-1.812c-1.645,0-3.093,0.609-4.348,1.836c-1.255,1.226-1.883,2.62-1.883,4.184
			c0,1.566,0.619,2.978,1.858,4.232c1.24,1.255,2.713,1.881,4.417,1.881c1.705,0,3.154-0.609,4.348-1.836
			C109.993,26.712,110.59,25.292,110.59,23.68z"/>
	</g>
</g>
</svg>
