<?xml version="1.0" encoding="utf-8"?>
<!-- Generator: Adobe Illustrator 15.0.2, SVG Export Plug-In . SVG Version: 6.00 Build 0)  -->
<!DOCTYPE svg PUBLIC "-//W3C//DTD SVG 1.1//EN" "http://www.w3.org/Graphics/SVG/1.1/DTD/svg11.dtd">
<svg version="1.1" id="Lager_1" xmlns="http://www.w3.org/2000/svg" xmlns:xlink="http://www.w3.org/1999/xlink" x="0px" y="0px"
	 width="185.526px" height="336.352px" viewBox="0 0 185.526 336.352" enable-background="new 0 0 185.526 336.352"
	 xml:space="preserve">
<g>
	<path fill="none" stroke="#CAC9C9" stroke-width="12" stroke-miterlimit="10" d="M30.538,203.161v-19.821c0-16.568,13.432-30,30-30
		h104"/>
	<path fill="#E3E3E2" d="M57.538,203.161h-50v-19.821c0-30.327,24.673-55,55-55h104v50h-104c-2.757,0-5,2.243-5,5V203.161z"/>
	<rect x="110.019" y="67.324" fill="#E3E3E2" width="48.469" height="257.028"/>
	<polygon fill="#D5D5D5" points="127.02,324.352 127.02,176.664 110.02,176.664 110.02,324.352 102.378,324.352 102.378,336.352 
		166.128,336.352 166.128,324.352 	"/>
	<polygon fill="#D5D5D5" points="102.378,55.324 102.378,67.324 110.02,67.324 110.02,144.539 127.02,144.539 127.02,67.324 
		166.128,67.324 166.128,55.324 	"/>
	<path fill="#E3E3E2" d="M172.472,4.003c-5.257,0-9.775,3.113-11.845,7.59h-10.226C148.121,4.856,141.76,0,134.253,0
		s-13.867,4.856-16.147,11.593h-10.167c-2.069-4.477-6.588-7.59-11.845-7.59c-7.209,0-13.055,5.845-13.055,13.055
		s5.846,13.055,13.055,13.055c5.257,0,9.775-3.113,11.845-7.59h10.167c1.356,4.007,4.153,7.344,7.783,9.392v23.41h16.729v-23.41
		c3.631-2.048,6.428-5.385,7.784-9.393h10.226c2.069,4.477,6.588,7.59,11.845,7.59c7.209,0,13.055-5.845,13.055-13.055
		S179.681,4.003,172.472,4.003z"/>
	<path fill="#D5D5D5" d="M23.483,172.923c0.044-18.728,21.938-29.085,37.055-29.085h104v-16h-104
		c-25.528,0-52.9,18.042-53.054,44.915l-0.975,29.085H0v12h63.75v-12H22.518l0.961-28.666L23.483,172.923z"/>
	<circle fill="#E3E3E2" cx="134.253" cy="153.339" r="42.5"/>
</g>
<g>
	<path fill="#7C4D25" d="M30.537,320.732c0,0,5.708,0.211,10.735-3.795c11.151-10.132,2.747-22.306,2.747-22.306l-13.482-21.91
		l-13.481,21.91c0,0-8.402,12.174,2.748,22.306C24.831,320.943,30.537,320.732,30.537,320.732z"/>
	<path fill="#905E36" d="M30.537,320.732c0,0-5.707,0.211-10.733-3.795c-11.15-10.132-2.748-22.306-2.748-22.306l13.481-21.91
		V320.732z"/>
</g>
<g>
	<path fill="#7C4D25" d="M30.537,255.448c0,0,3.95,0.147,7.427-2.625c7.715-7.009,1.9-15.431,1.9-15.431l-9.327-15.158
		l-9.326,15.158c0,0-5.813,8.422,1.901,15.431C26.59,255.595,30.537,255.448,30.537,255.448z"/>
	<path fill="#905E36" d="M30.537,255.448c0,0-3.947,0.147-7.425-2.625c-7.714-7.009-1.901-15.431-1.901-15.431l9.326-15.158V255.448
		z"/>
</g>
</svg>
