<?xml version="1.0" encoding="utf-8"?>
<!-- Generator: Adobe Illustrator 15.0.2, SVG Export Plug-In . SVG Version: 6.00 Build 0)  -->
<!DOCTYPE svg PUBLIC "-//W3C//DTD SVG 1.1//EN" "http://www.w3.org/Graphics/SVG/1.1/DTD/svg11.dtd">
<svg version="1.1" id="Lager_1" xmlns="http://www.w3.org/2000/svg" xmlns:xlink="http://www.w3.org/1999/xlink" x="0px" y="0px"
	 width="54.393px" height="85px" viewBox="0 0 54.393 85" enable-background="new 0 0 54.393 85" xml:space="preserve">
<g>
	<g>
		<path fill="#7D4E26" d="M27.945,84.998c0,0,5.709,0.211,10.735-3.795c11.151-10.132,2.747-22.306,2.747-22.306l-13.482-21.91
			l-13.481,21.91c0,0-8.402,12.174,2.748,22.306C22.239,85.209,27.945,84.998,27.945,84.998z"/>
		<path fill="#905F37" d="M27.945,84.998c0,0-5.707,0.211-10.733-3.795c-11.15-10.132-2.748-22.306-2.748-22.306l13.481-21.91
			V84.998z"/>
	</g>
	<g>
		<path fill="#7D4E26" d="M11.427,33.214c0,0,3.95,0.147,7.427-2.625c7.716-7.009,1.9-15.431,1.9-15.431L11.427,0L2.101,15.158
			c0,0-5.813,8.422,1.901,15.431C7.479,33.361,11.427,33.214,11.427,33.214z"/>
		<path fill="#905F37" d="M11.427,33.214c0,0-3.947,0.147-7.425-2.625c-7.714-7.009-1.901-15.431-1.901-15.431L11.427,0V33.214z"/>
	</g>
	<g>
		<path fill="#7D4E26" d="M45.464,36.581c0,0,3.086,0.115,5.802-2.051c6.028-5.476,1.485-12.055,1.485-12.055l-7.287-11.842
			l-7.286,11.842c0,0-4.541,6.58,1.485,12.055C42.38,36.696,45.464,36.581,45.464,36.581z"/>
		<path fill="#905F37" d="M45.464,36.581c0,0-3.084,0.115-5.801-2.051c-6.026-5.476-1.485-12.055-1.485-12.055l7.286-11.842V36.581z
			"/>
	</g>
</g>
</svg>
