<?xml version="1.0" encoding="utf-8"?>
<!-- Generator: Adobe Illustrator 15.0.2, SVG Export Plug-In . SVG Version: 6.00 Build 0)  -->
<!DOCTYPE svg PUBLIC "-//W3C//DTD SVG 1.1//EN" "http://www.w3.org/Graphics/SVG/1.1/DTD/svg11.dtd">
<svg version="1.1" id="Lager_1" xmlns="http://www.w3.org/2000/svg" xmlns:xlink="http://www.w3.org/1999/xlink" x="0px" y="0px"
	 width="193.202px" height="91.842px" viewBox="0 0 193.202 91.842" enable-background="new 0 0 193.202 91.842"
	 xml:space="preserve">
<g>
	<path fill="#FFD142" d="M150.972,51.641c0,0-16.873,10.986-5.252,25.725c0,0-19.903-4.066-21.904,14.477
		c0,0-9.228-16.038-25.725-5.251c0,0,5.722-17.29-14.477-21.903c0,0,16.463-9.627,5.252-25.726c0,0,19.136,4.418,21.903-14.477
		c0,0,9.915,16.126,25.725,5.252C136.494,29.737,132.355,48.456,150.972,51.641z"/>
	<circle fill="#FFE161" cx="117.293" cy="58.163" r="21.911"/>
</g>
<path fill="#F6F5F6" d="M102.716,66.838c0.112,0,0.224,0.006,0.336,0.008c-0.046-0.595-0.076-1.193-0.076-1.8
	c0-13.051,10.617-23.668,23.668-23.668c9.188,0,17.162,5.264,21.083,12.931c2.81-2.901,6.741-4.71,11.089-4.71
	c8.518,0,15.447,6.93,15.447,15.447c0,0.835-0.068,1.655-0.196,2.456c1.261-0.342,2.586-0.527,3.954-0.527
	c8.371,0,15.182,6.811,15.182,15.183c0,2.767-0.752,5.476-2.176,7.833c-0.134,0.221-0.373,0.357-0.633,0.357H91.696
	c-0.232,0-0.451-0.109-0.592-0.295c-1.896-2.527-2.898-5.538-2.898-8.705C88.206,73.346,94.715,66.838,102.716,66.838z"/>
<path fill="#F6F5F6" d="M14.51,25.46c0.112,0,0.224,0.005,0.336,0.008c-0.046-0.595-0.076-1.194-0.076-1.8
	C14.77,10.618,25.387,0,38.438,0C47.625,0,55.6,5.264,59.521,12.931c2.81-2.901,6.741-4.71,11.089-4.71
	c8.518,0,15.447,6.93,15.447,15.447c0,0.835-0.068,1.655-0.196,2.456c1.261-0.341,2.586-0.526,3.954-0.526
	c8.371,0,15.182,6.811,15.182,15.182c0,2.766-0.752,5.476-2.176,7.833c-0.134,0.222-0.373,0.358-0.633,0.358H3.49
	c-0.232,0-0.451-0.109-0.592-0.295C1.002,46.147,0,43.137,0,39.97C0,31.969,6.509,25.46,14.51,25.46z"/>
</svg>
