<?xml version="1.0" encoding="utf-8"?>
<!-- Generator: Adobe Illustrator 15.0.2, SVG Export Plug-In . SVG Version: 6.00 Build 0)  -->
<!DOCTYPE svg PUBLIC "-//W3C//DTD SVG 1.1//EN" "http://www.w3.org/Graphics/SVG/1.1/DTD/svg11.dtd">
<svg version="1.1" id="Lager_1" xmlns="http://www.w3.org/2000/svg" xmlns:xlink="http://www.w3.org/1999/xlink" x="0px" y="0px"
	 width="292.706px" height="325.808px" viewBox="0 0 292.706 325.808" enable-background="new 0 0 292.706 325.808"
	 xml:space="preserve">
<g>
	
		<path fill="#FFFFFF" stroke="#FFFFFF" stroke-width="5.5759" stroke-linecap="round" stroke-linejoin="round" stroke-miterlimit="10" d="
		M255.193,150.847c0.219-1.963,0.334-3.965,0.334-5.986c0-22.16-13.375-41.477-33.232-51.801
		c-1.498-19.92-20.303-36.353-45.309-40.998l38.982-27.171l-1.757-18.579l-17.545-3.524l-44.588,48.43L104.955,4.636L87.008,9.73
		l-0.294,17.89l46.19,29.057c-9.098,3.926-16.687,9.567-21.98,16.347c-17.688,7.26-30.654,22.257-33.533,40.214
		c-23.439,7.786-40.644,27.179-43.058,50.451C15.051,178.36,2.788,200.302,2.788,224.838c0,44.024,39.443,79.727,88.195,79.955
		c16.136,11.417,36.444,18.227,58.527,18.227c29.482,0,55.825-12.114,73.245-31.125c38.576-8.667,67.163-40.107,67.163-77.592
		C289.917,188.436,276.305,165.47,255.193,150.847z"/>
	
		<path fill="#FFFFFF" stroke="#FFFFFF" stroke-width="5.5759" stroke-linecap="round" stroke-linejoin="round" stroke-miterlimit="10" d="
		M255.193,150.847c0.219-1.963,0.334-3.965,0.334-5.986c0-22.16-13.375-41.477-33.232-51.801
		c-1.498-19.92-20.303-36.353-45.309-40.998l38.982-27.171l-1.757-18.579l-17.545-3.524l-44.588,48.43L104.955,4.636L87.008,9.73
		l-0.294,17.89l46.19,29.057c-9.098,3.926-16.687,9.567-21.98,16.347c-17.688,7.26-30.654,22.257-33.533,40.214
		c-23.439,7.786-40.644,27.179-43.058,50.451C15.051,178.36,2.788,200.302,2.788,224.838c0,44.024,39.443,79.727,88.195,79.955
		c16.136,11.417,36.444,18.227,58.527,18.227c29.482,0,55.825-12.114,73.245-31.125c38.576-8.667,67.163-40.107,67.163-77.592
		C289.917,188.436,276.305,165.47,255.193,150.847z"/>
	
		<path fill="#F6F6F6" stroke="#F6F6F6" stroke-width="1.4951" stroke-linecap="round" stroke-linejoin="round" stroke-miterlimit="10" d="
		M152.078,51.218L104.955,4.636L87.008,9.73l-0.294,17.89l46.19,29.057c-9.098,3.926-16.687,9.567-21.98,16.347
		c-17.688,7.26-30.654,22.257-33.533,40.214c-23.439,7.786-40.644,27.179-43.058,50.451C15.051,178.36,2.788,200.302,2.788,224.838
		c0,44.024,39.443,79.727,88.195,79.955c16.136,11.417,36.444,18.227,58.527,18.227"/>
</g>
</svg>
