<?xml version="1.0" encoding="utf-8"?>
<!-- Generator: Adobe Illustrator 15.0.2, SVG Export Plug-In . SVG Version: 6.00 Build 0)  -->
<!DOCTYPE svg PUBLIC "-//W3C//DTD SVG 1.1//EN" "http://www.w3.org/Graphics/SVG/1.1/DTD/svg11.dtd">
<svg version="1.1" id="Lager_1" xmlns="http://www.w3.org/2000/svg" xmlns:xlink="http://www.w3.org/1999/xlink" x="0px" y="0px"
	 width="873.475px" height="76.384px" viewBox="0 0 873.475 76.384" enable-background="new 0 0 873.475 76.384"
	 xml:space="preserve">
<g>
	<path opacity="0.8" fill="#E75425" enable-background="new    " d="M113.591,30.631c0.069,2.146-1.61,3.942-3.758,4.013
		c-2.145,0.071-3.942-1.608-4.013-3.757c-0.069-2.143,1.611-3.939,3.757-4.011C111.721,26.806,113.516,28.49,113.591,30.631z"/>
	<path opacity="0.8" fill="#C79C63" enable-background="new    " d="M116.141,55.624c0.056,1.573-1.178,2.889-2.752,2.942
		c-1.567,0.05-2.885-1.184-2.937-2.757c-0.055-1.569,1.179-2.885,2.75-2.938C114.776,52.821,116.092,54.053,116.141,55.624z"/>
	<path opacity="0.8" fill="#C79C63" enable-background="new    " d="M155.516,68.602c0.087,2.553-1.916,4.688-4.47,4.777
		c-2.554,0.081-4.688-1.921-4.775-4.475c-0.083-2.556,1.918-4.692,4.473-4.776C153.295,64.045,155.432,66.048,155.516,68.602z"/>
	<path opacity="0.8" fill="#E75425" enable-background="new    " d="M232.252,54.631c0.101,2.969-2.229,5.457-5.197,5.555
		c-2.971,0.101-5.459-2.228-5.557-5.197c-0.097-2.97,2.231-5.453,5.2-5.557C229.666,49.334,232.151,51.663,232.252,54.631z"/>
	<path opacity="0.8" fill="#C79C63" enable-background="new    " d="M11.236,50.719c0.055,1.57-1.178,2.885-2.75,2.938
		c-1.57,0.051-2.885-1.183-2.938-2.751c-0.057-1.573,1.179-2.89,2.748-2.941C9.873,47.914,11.188,49.146,11.236,50.719z"/>
	<path opacity="0.8" fill="#C79C63" enable-background="new    " d="M54.751,60.813c0.087,2.554-1.914,4.689-4.468,4.777
		c-2.553,0.081-4.692-1.918-4.778-4.472c-0.083-2.556,1.918-4.693,4.474-4.777C52.531,56.258,54.668,58.26,54.751,60.813z"/>
	<path opacity="0.8" fill="#E75425" enable-background="new    " d="M10.757,63.891c0.1,2.971-2.229,5.458-5.196,5.558
		c-2.972,0.098-5.459-2.229-5.558-5.199c-0.097-2.971,2.231-5.454,5.2-5.556C8.17,58.594,10.657,60.923,10.757,63.891z"/>
	<path opacity="0.8" fill="#E75425" enable-background="new    " d="M648.225,30.631c-0.067,2.146,1.611,3.942,3.758,4.013
		c2.145,0.071,3.943-1.608,4.014-3.757c0.068-2.143-1.612-3.939-3.757-4.011C650.094,26.806,648.298,28.49,648.225,30.631z"/>
	<circle opacity="0.8" fill="#E75425" enable-background="new    " cx="530.022" cy="51.864" r="3.887"/>
	<path opacity="0.8" fill="#C79C63" enable-background="new    " d="M645.676,55.624c-0.055,1.573,1.178,2.889,2.75,2.942
		c1.569,0.05,2.885-1.184,2.938-2.757c0.056-1.569-1.179-2.885-2.749-2.938C647.039,52.821,645.725,54.053,645.676,55.624z"/>
	<path opacity="0.8" fill="#C79C63" enable-background="new    " d="M597.05,56.749c-0.086,2.552,1.913,4.688,4.466,4.773
		c2.557,0.084,4.693-1.919,4.78-4.473c0.082-2.554-1.919-4.688-4.473-4.772C599.27,52.189,597.131,54.196,597.05,56.749z"/>
	<path opacity="0.8" fill="#E75425" enable-background="new    " d="M618.319,55.095c-0.1,2.969,2.229,5.457,5.198,5.557
		c2.972,0.099,5.459-2.229,5.558-5.2c0.096-2.971-2.231-5.454-5.202-5.555C620.906,49.796,618.421,52.126,618.319,55.095z"/>
	<circle opacity="0.8" fill="#E75425" enable-background="new    " cx="385.1" cy="24.404" r="3.888"/>
	<path opacity="0.8" fill="#C79C63" enable-background="new    " d="M370.684,63.721c0.056,1.57-1.178,2.885-2.75,2.938
		c-1.568,0.05-2.888-1.183-2.938-2.751c-0.055-1.574,1.179-2.892,2.75-2.942C369.32,60.916,370.637,62.148,370.684,63.721z"/>
	<path opacity="0.8" fill="#C79C63" enable-background="new    " d="M439.368,65.352c0.086,2.555-1.914,4.69-4.468,4.777
		c-2.555,0.083-4.692-1.918-4.779-4.472c-0.083-2.556,1.919-4.693,4.473-4.777C437.148,60.796,439.286,62.798,439.368,65.352z"/>
	<path opacity="0.8" fill="#C79C63" enable-background="new    " d="M479.911,61.705c0.055,1.572-1.175,2.889-2.75,2.938
		c-1.569,0.054-2.885-1.179-2.938-2.751c-0.054-1.57,1.181-2.889,2.752-2.938C478.547,58.901,479.863,60.134,479.911,61.705z"/>
	<path opacity="0.8" fill="#C79C63" enable-background="new    " d="M734.555,57.807c0.055,1.573-1.177,2.89-2.752,2.941
		c-1.566,0.051-2.885-1.182-2.937-2.752c-0.055-1.573,1.178-2.889,2.75-2.941C733.19,55.004,734.506,56.238,734.555,57.807z"/>
	<circle opacity="0.8" fill="#E75425" enable-background="new    " cx="869.588" cy="71.438" r="3.887"/>
	<path opacity="0.8" fill="#C79C63" enable-background="new    " d="M857.667,69.079c0.054,1.573-1.177,2.888-2.75,2.938
		c-1.569,0.053-2.885-1.18-2.938-2.753c-0.056-1.568,1.18-2.886,2.751-2.938C856.303,66.276,857.618,67.507,857.667,69.079z"/>
	<circle opacity="0.8" fill="#C79C63" enable-background="new    " cx="543.973" cy="63.492" r="4.626"/>
	<path opacity="0.8" fill="#E75425" enable-background="new    " d="M410.114,36.935c0.098,2.971-2.229,5.457-5.196,5.558
		c-2.972,0.098-5.46-2.229-5.559-5.199c-0.096-2.971,2.23-5.455,5.201-5.557C407.529,31.638,410.014,33.964,410.114,36.935z"/>
	<circle opacity="0.8" fill="#E75425" enable-background="new    " cx="645.059" cy="10.676" r="1.348"/>
	<circle opacity="0.8" fill="#C79C63" enable-background="new    " cx="645.17" cy="1.347" r="1.347"/>
	<circle opacity="0.8" fill="#C79C63" enable-background="new    " cx="646.156" cy="43.792" r="1.348"/>
	<circle opacity="0.8" fill="#7E4F26" enable-background="new    " cx="679.676" cy="75.036" r="1.348"/>
	<g>
		<circle opacity="0.8" fill="#E75425" enable-background="new    " cx="678.891" cy="57.487" r="1.971"/>
		<circle opacity="0.8" fill="#7E4F26" enable-background="new    " cx="676.153" cy="68.934" r="1.143"/>
		<circle opacity="0.8" fill="#7E4F26" enable-background="new    " cx="702.141" cy="41.45" r="1.143"/>
		<circle opacity="0.8" fill="#C79C63" enable-background="new    " cx="703.082" cy="57.379" r="1.971"/>
	</g>
</g>
</svg>
