<?xml version="1.0" encoding="utf-8"?>
<!-- Generator: Adobe Illustrator 15.0.2, SVG Export Plug-In . SVG Version: 6.00 Build 0)  -->
<!DOCTYPE svg PUBLIC "-//W3C//DTD SVG 1.1//EN" "http://www.w3.org/Graphics/SVG/1.1/DTD/svg11.dtd">
<svg version="1.1" id="Lager_1" xmlns="http://www.w3.org/2000/svg" xmlns:xlink="http://www.w3.org/1999/xlink" x="0px" y="0px"
	 width="929.806px" height="80.845px" viewBox="0 0 929.806 80.845" enable-background="new 0 0 929.806 80.845"
	 xml:space="preserve">
<g>
	<g>
		
			<rect x="189.462" y="49.487" transform="matrix(0.9496 -0.3135 0.3135 0.9496 -9.1781 64.8156)" fill="#EAEBEC" stroke="#EAEBEC" stroke-width="0.4418" stroke-linecap="round" stroke-linejoin="round" stroke-miterlimit="10" width="15.029" height="22.926"/>
		<polygon fill="#C7C7C9" stroke="#C7C7C9" stroke-width="0.4434" stroke-miterlimit="10" points="200.573,71.791 193.383,74.167 
			186.2,52.394 193.39,50.023 		"/>
		
			<line fill="none" stroke="#C7C7C9" stroke-width="0.4368" stroke-linejoin="round" stroke-miterlimit="10" x1="192.628" y1="55.445" x2="202.269" y2="52.262"/>
		
			<line fill="none" stroke="#C7C7C9" stroke-width="0.4418" stroke-linejoin="round" stroke-miterlimit="10" x1="193.43" y1="58.626" x2="203.293" y2="55.372"/>
		
			<line fill="none" stroke="#C7C7C9" stroke-width="0.4418" stroke-linejoin="round" stroke-miterlimit="10" x1="194.45" y1="61.74" x2="204.331" y2="58.481"/>
		
			<line fill="none" stroke="#C7C7C9" stroke-width="0.4418" stroke-linejoin="round" stroke-miterlimit="10" x1="195.477" y1="64.854" x2="205.357" y2="61.592"/>
		
			<line fill="none" stroke="#C7C7C9" stroke-width="0.4418" stroke-linejoin="round" stroke-miterlimit="10" x1="196.512" y1="67.964" x2="206.381" y2="64.707"/>
		
			<line fill="none" stroke="#EAEBEC" stroke-width="0.3595" stroke-linejoin="round" stroke-miterlimit="10" x1="187.534" y1="57.121" x2="195.189" y2="54.597"/>
		
			<line fill="none" stroke="#EAEBEC" stroke-width="0.3595" stroke-linejoin="round" stroke-miterlimit="10" x1="188.56" y1="60.236" x2="196.06" y2="57.76"/>
		
			<line fill="none" stroke="#EAEBEC" stroke-width="0.3595" stroke-linejoin="round" stroke-miterlimit="10" x1="189.588" y1="63.348" x2="197.089" y2="60.874"/>
		
			<line fill="none" stroke="#EAEBEC" stroke-width="0.3595" stroke-linejoin="round" stroke-miterlimit="10" x1="190.614" y1="66.455" x2="198.114" y2="63.981"/>
		
			<line fill="none" stroke="#EAEBEC" stroke-width="0.3596" stroke-linejoin="round" stroke-miterlimit="10" x1="191.628" y1="69.573" x2="199.141" y2="67.096"/>
		<path fill="#C7C7C9" stroke="#C7C7C9" stroke-width="0.357" stroke-miterlimit="10" d="M197.575,38.011
			c-1.318-4.003-5.636-6.176-9.636-4.854c-4.002,1.316-6.174,5.635-4.854,9.635c1.321,3.999,5.636,6.177,9.635,4.856
			C196.723,46.324,198.896,42.011,197.575,38.011z"/>
		<path fill="#C7C7C9" stroke="#EAEBEC" stroke-width="0.4418" stroke-miterlimit="10" d="M195.425,38.719
			c-0.929-2.812-3.961-4.343-6.772-3.413c-2.813,0.93-4.344,3.963-3.417,6.774c0.932,2.813,3.964,4.342,6.777,3.413
			C194.829,44.564,196.352,41.531,195.425,38.719z"/>
		
			<path fill="#EAEBEC" stroke="#EAEBEC" stroke-width="0.1482" stroke-linecap="round" stroke-linejoin="round" stroke-miterlimit="10" d="
			M200.359,46.198c0.043,0.131-0.026,0.269-0.154,0.312l-14.384,4.746c-0.129,0.044-0.269-0.026-0.312-0.158l0,0
			c-0.041-0.126,0.028-0.271,0.158-0.311l14.381-4.747C200.176,45.998,200.318,46.068,200.359,46.198L200.359,46.198z"/>
		
			<path fill="#C7C7C9" stroke="#C7C7C9" stroke-width="0.1482" stroke-linecap="round" stroke-linejoin="round" stroke-miterlimit="10" d="
			M193.278,48.797l-7.457,2.46c-0.129,0.044-0.269-0.026-0.312-0.158l0,0c-0.041-0.126,0.028-0.271,0.158-0.311l7.456-2.461
			L193.278,48.797z"/>
		
			<path fill="#EAEBEC" stroke="#EAEBEC" stroke-width="0.1482" stroke-linecap="round" stroke-linejoin="round" stroke-miterlimit="10" d="
			M208.431,70.651c0.04,0.13-0.03,0.269-0.157,0.312l-14.385,4.743c-0.128,0.045-0.269-0.024-0.31-0.154l0,0
			c-0.044-0.128,0.027-0.271,0.155-0.312l14.379-4.746C208.246,70.451,208.386,70.522,208.431,70.651L208.431,70.651z"/>
		
			<path fill="#C7C7C9" stroke="#C7C7C9" stroke-width="0.1482" stroke-linecap="round" stroke-linejoin="round" stroke-miterlimit="10" d="
			M201.346,73.249l-7.457,2.459c-0.128,0.044-0.27-0.024-0.311-0.154l0,0c-0.043-0.128,0.028-0.271,0.156-0.312l7.455-2.46
			L201.346,73.249z"/>
	</g>
	<g>
		<g>
			
				<path fill="none" stroke="#F5F5F6" stroke-width="0.7215" stroke-linecap="round" stroke-linejoin="round" stroke-miterlimit="10" d="
				M169.142,39.766c0,0-4.35-5.571-11.085-7.703"/>
		</g>
		<g>
			
				<path fill="none" stroke="#F5F5F6" stroke-width="0.7215" stroke-linecap="round" stroke-linejoin="round" stroke-miterlimit="10" d="
				M165.059,43.224c0,0-3.368-4.596-8.647-6.748"/>
		</g>
		<g>
			
				<path fill="none" stroke="#F5F5F6" stroke-width="0.7215" stroke-linecap="round" stroke-linejoin="round" stroke-miterlimit="10" d="
				M160.354,45.788c0,0-2.345-3.479-6.162-5.217"/>
		</g>
		<g>
			
				<path fill="none" stroke="#F5F5F6" stroke-width="0.7215" stroke-linecap="round" stroke-linejoin="round" stroke-miterlimit="10" d="
				M165.708,27.135c0.396,5.402-3.298,12.439-9.902,17.829"/>
		</g>
		<g>
			
				<path fill="#D9DBDB" stroke="#D9DBDB" stroke-width="0.7215" stroke-linecap="round" stroke-linejoin="round" stroke-miterlimit="10" d="
				M173.2,37.477c0,0,4.252-9.023-1.717-15.912c-8.845-2.197-14.965,5.677-14.965,5.677C166.424,29.817,173.2,37.477,173.2,37.477z"
				/>
		</g>
		<g>
			
				<path fill="#D9DBDB" stroke="#D9DBDB" stroke-width="0.7215" stroke-linecap="round" stroke-linejoin="round" stroke-miterlimit="10" d="
				M156.102,44.683c-6.818,5.113-2.611,10.688-2.611,10.688S159.794,52.36,156.102,44.683z"/>
		</g>
		<g>
			<g>
				<path fill="#B2B4B3" d="M156.044,44.619c-5.962,6.092-10.94,1.189-10.94,1.189S148.917,39.95,156.044,44.619z"/>
				<path fill="#B2B4B3" d="M156.353,44.407c0.022,0.03,0.161,0.164,0.114,0.258c-0.051,0.1-0.167,0.207-0.167,0.207
					c-2.031,2.078-4.18,3.144-6.387,3.164c-2.999,0.025-4.98-1.89-5.062-1.972c-0.121-0.123-0.141-0.31-0.05-0.452
					c0.005-0.009,0.087-0.134,0.244-0.329c1.021-1.276,4.854-5.118,11.195-0.966C156.241,44.317,156.333,44.375,156.353,44.407z
					 M155.468,44.683c-5.604-3.432-8.953-0.08-9.86,1.05c-0.006,0.009-0.012,0.017-0.019,0.022
					C146.592,46.588,150.622,49.341,155.468,44.683z"/>
			</g>
		</g>
		<g>
			<g>
				<path fill="#B2B4B3" d="M165.315,31.083c-2.484-1.531-5.463-2.972-8.795-3.842c0,0,5.988-7.704,14.674-5.743L165.315,31.083z"/>
				<path fill="#B2B4B3" d="M165.126,31.392c-2.862-1.764-5.789-3.042-8.696-3.797c-0.119-0.033-0.212-0.119-0.253-0.237
					c-0.037-0.112-0.017-0.238,0.06-0.336c0.036-0.048,0.924-1.179,2.511-2.476c2.727-2.229,7.109-4.62,12.527-3.4
					c0,0,0.311,0.08,0.345,0.085c0.033,0.004,0.104,0.072,0.104,0.072l-0.22,0.384l-6.081,9.904L165.126,31.392z M170.618,21.748
					c-4.906-0.905-8.897,1.304-11.416,3.357c-0.951,0.777-1.646,1.504-2.038,1.938c2.689,0.761,5.389,1.95,8.031,3.548
					L170.618,21.748z"/>
			</g>
		</g>
		
			<circle fill="#FFFFFF" stroke="#FFFFFF" stroke-width="0.7129" stroke-linecap="round" stroke-linejoin="round" stroke-miterlimit="10" cx="170.856" cy="28.854" r="1.756"/>
		<path fill="#1C191C" d="M170.138,29.44c-0.324-0.396-0.266-0.979,0.133-1.305c0.396-0.321,0.98-0.268,1.307,0.133
			c0.318,0.396,0.262,0.979-0.136,1.304C171.046,29.897,170.461,29.835,170.138,29.44z"/>
	</g>
	<g>
		<path fill="#EAEBEC" d="M131.79,34.488l1.869,1.822l3.272,3.193l0.294,0.269l3.562-0.056c1.371-0.024,2.502,0.936,2.52,2.137l0,0
			c0.021,1.206-1.077,2.197-2.453,2.22l-1.005,0.02l-0.728,0.009l0.008,0.729l0.013,1.003c0.011,1.374-0.953,2.499-2.157,2.513l0,0
			c-1.202,0.011-2.188-1.096-2.202-2.469l-0.032-3.562l-0.276-0.283l-3.278-3.195l-1.868-1.818l-0.215-0.208l-1.869-1.82
			l-3.274-3.196l-0.289-0.269l-3.562,0.058c-1.376,0.022-2.505-0.938-2.522-2.143l0,0c-0.021-1.2,1.079-2.194,2.454-2.217
			l1.004-0.016l0.727-0.013l-0.007-0.729l-0.013-1.005c-0.008-1.368,0.957-2.495,2.157-2.507l0,0
			c1.203-0.012,2.188,1.093,2.203,2.465l0.031,3.563l0.277,0.285l3.276,3.191l1.866,1.823L131.79,34.488z"/>
	</g>
	<g>
		<g>
			<g>
				<path fill="#E2E482" d="M109.965,52.885c-2.978,0.763-7.106-0.734-10.371-4.053c-3.256-3.297-4.701-7.43-3.919-10.392
					l-6.867,6.777l-6.872,6.773c2.972-0.742,7.083,0.761,10.34,4.059c3.266,3.313,4.707,7.466,3.903,10.431L109.965,52.885z"/>
			</g>
		</g>
		<g>
			<g>
				<path fill="#439B35" d="M85.366,41.46"/>
			</g>
		</g>
		<g>
			<g>
				<path fill="#CDDC84" d="M102.964,59.571l6.893-6.797c-2.975,0.765-6.998-0.625-10.263-3.941
					c-3.256-3.297-4.624-7.35-3.84-10.312l-6.871,6.775l13.843,14.037L102.964,59.571z"/>
			</g>
		</g>
		<g>
			<g>
				<path fill="#422A1C" stroke="#422A1C" stroke-width="0.238" stroke-miterlimit="10" d="M85.466,41.235
					c-1.851-1.877-1.905-4.831,0.004-6.713l0.969,0.983c-1.442,1.424-1.789,3.75-0.395,5.161L85.466,41.235z"/>
			</g>
		</g>
		<g>
			<g>
				<g>
					<g>
						<path fill="#086530" d="M84.379,42.268c-0.432-1.644-1.126-2.474-1.126-2.474c-3.617-4.618-10.122-0.148-10.122-0.148
							s3.858,6.887,9.143,4.344C82.274,43.989,83.268,43.55,84.379,42.268z"/>
					</g>
				</g>
			</g>
			<g>
				<g>
					<g>
						<path fill="#087D39" d="M73.131,39.646c0,0,3.857,6.887,9.143,4.344c0,0,0.994-0.438,2.105-1.722"/>
					</g>
				</g>
			</g>
		</g>
		<g>
			<g>
				<g>
					<path fill="#422A1C" stroke="#422A1C" stroke-width="0.238" stroke-miterlimit="10" d="M95.008,53.286
						c0.435,0.444,0.637,0.96,0.438,1.151c-0.196,0.192-0.709-0.011-1.146-0.454c-0.44-0.449-0.639-0.962-0.44-1.152
						C94.054,52.637,94.569,52.843,95.008,53.286z"/>
				</g>
			</g>
			<g>
				<g>
					<path fill="#422A1C" stroke="#422A1C" stroke-width="0.238" stroke-miterlimit="10" d="M97.633,50.696
						c0.438,0.443,0.636,0.959,0.441,1.152c-0.195,0.192-0.713-0.015-1.149-0.458c-0.438-0.441-0.634-0.96-0.44-1.152
						C96.681,50.048,97.196,50.25,97.633,50.696z"/>
				</g>
			</g>
		</g>
		<g>
			<g>
				
					<path fill="#43A535" stroke="#43A535" stroke-width="0.2031" stroke-linecap="round" stroke-linejoin="round" stroke-miterlimit="10" d="
					M95.804,38.319c-1.381-1.409-4.06-1.529-5.655,0.047c-0.433,0.425-0.759,0.912-0.979,1.424l-0.483,1.012
					c-0.856,1.655-1.651,2.438-1.651,2.438l-0.01,0.013c0,0-0.795,0.786-2.46,1.618l-1.017,0.47
					c-0.521,0.215-1.013,0.531-1.444,0.964c-1.596,1.573-1.509,4.248-0.125,5.648L95.804,38.319z"/>
			</g>
		</g>
		<g>
			<g>
				
					<path fill="#43A535" stroke="#43A535" stroke-width="0.2028" stroke-linecap="round" stroke-linejoin="round" stroke-miterlimit="10" d="
					M110.053,52.8c1.383,1.4,2.335,4.951,0.737,6.521c0,0-0.763,0.735-2.326,1.562c-1.342,0.709-2.308,1.679-2.354,1.723
					l-0.071,0.073c-0.045,0.046-1.026,0.997-1.756,2.327c-0.848,1.551-1.594,2.305-1.594,2.305
					c-1.595,1.575-5.131,0.573-6.513-0.828L110.053,52.8z"/>
			</g>
		</g>
	</g>
	<g>
		<g>
			
				<path fill="none" stroke="#F5F5F6" stroke-width="0.7215" stroke-linecap="round" stroke-linejoin="round" stroke-miterlimit="10" d="
				M656.292,39.766c0,0,4.349-5.571,11.085-7.703"/>
		</g>
		<g>
			
				<path fill="none" stroke="#F5F5F6" stroke-width="0.7215" stroke-linecap="round" stroke-linejoin="round" stroke-miterlimit="10" d="
				M660.374,43.224c0,0,3.37-4.596,8.648-6.748"/>
		</g>
		<g>
			
				<path fill="none" stroke="#F5F5F6" stroke-width="0.7215" stroke-linecap="round" stroke-linejoin="round" stroke-miterlimit="10" d="
				M665.079,45.788c0,0,2.347-3.479,6.164-5.217"/>
		</g>
		<g>
			
				<path fill="none" stroke="#F5F5F6" stroke-width="0.7215" stroke-linecap="round" stroke-linejoin="round" stroke-miterlimit="10" d="
				M659.725,27.135c-0.395,5.402,3.298,12.439,9.902,17.829"/>
		</g>
		<g>
			
				<path fill="#D9DBDB" stroke="#D9DBDB" stroke-width="0.7215" stroke-linecap="round" stroke-linejoin="round" stroke-miterlimit="10" d="
				M652.233,37.477c0,0-4.251-9.023,1.715-15.912c8.846-2.197,14.968,5.677,14.968,5.677
				C659.009,29.817,652.233,37.477,652.233,37.477z"/>
		</g>
		<g>
			
				<path fill="#D9DBDB" stroke="#D9DBDB" stroke-width="0.7215" stroke-linecap="round" stroke-linejoin="round" stroke-miterlimit="10" d="
				M669.333,44.683c6.82,5.113,2.606,10.688,2.606,10.688S665.639,52.36,669.333,44.683z"/>
		</g>
		<g>
			<g>
				<path fill="#B2B4B3" d="M669.39,44.619c5.962,6.092,10.938,1.189,10.938,1.189S676.519,39.95,669.39,44.619z"/>
				<path fill="#B2B4B3" d="M669.194,44.317c6.342-4.152,10.17-0.312,11.195,0.966c0.158,0.195,0.239,0.32,0.245,0.329
					c0.093,0.145,0.07,0.329-0.051,0.452c-0.082,0.082-2.062,1.997-5.062,1.972c-2.207-0.021-4.355-1.086-6.389-3.164
					c0,0-0.115-0.107-0.167-0.207c-0.047-0.094,0.093-0.228,0.115-0.258C669.1,44.375,669.194,44.317,669.194,44.317z
					 M679.845,45.756c-0.007-0.008-0.014-0.016-0.019-0.022c-0.907-1.13-4.257-4.48-9.86-1.05
					C674.812,49.341,678.842,46.588,679.845,45.756z"/>
			</g>
		</g>
		<g>
			<g>
				<path fill="#B2B4B3" d="M660.122,31.083c2.482-1.531,5.461-2.972,8.793-3.842c0,0-5.989-7.704-14.674-5.743L660.122,31.083z"/>
				<path fill="#B2B4B3" d="M660.013,31.592l-6.08-9.904l-0.223-0.384c0,0,0.071-0.068,0.104-0.072
					c0.033-0.005,0.345-0.085,0.345-0.085c5.416-1.22,9.803,1.174,12.526,3.4c1.588,1.297,2.474,2.428,2.511,2.476
					c0.076,0.098,0.098,0.224,0.062,0.336c-0.042,0.118-0.135,0.204-0.254,0.237c-2.909,0.755-5.833,2.033-8.696,3.797
					L660.013,31.592z M660.237,30.59c2.646-1.598,5.344-2.787,8.034-3.548c-0.39-0.434-1.087-1.158-2.041-1.938
					c-2.516-2.056-6.507-4.265-11.414-3.357L660.237,30.59z"/>
			</g>
		</g>
		
			<path fill="#FFFFFF" stroke="#FFFFFF" stroke-width="0.7129" stroke-linecap="round" stroke-linejoin="round" stroke-miterlimit="10" d="
			M655.938,29.965c0.614-0.752,0.5-1.856-0.25-2.473c-0.751-0.611-1.857-0.501-2.471,0.25c-0.611,0.751-0.502,1.855,0.251,2.471
			C654.217,30.825,655.323,30.719,655.938,29.965z"/>
		<circle fill="#1C191C" cx="654.579" cy="28.854" r="0.927"/>
	</g>
	<g>
		<g>
			
				<path fill="none" stroke="#F5F5F6" stroke-width="0.7215" stroke-linecap="round" stroke-linejoin="round" stroke-miterlimit="10" d="
				M331.208,64.882c0,0,4.351-5.572,11.087-7.705"/>
		</g>
		<g>
			
				<path fill="none" stroke="#F5F5F6" stroke-width="0.7215" stroke-linecap="round" stroke-linejoin="round" stroke-miterlimit="10" d="
				M335.291,68.339c0,0,3.37-4.598,8.648-6.75"/>
		</g>
		<g>
			
				<path fill="none" stroke="#F5F5F6" stroke-width="0.7215" stroke-linecap="round" stroke-linejoin="round" stroke-miterlimit="10" d="
				M339.995,70.9c0,0,2.348-3.482,6.162-5.217"/>
		</g>
		<g>
			
				<path fill="none" stroke="#F5F5F6" stroke-width="0.7215" stroke-linecap="round" stroke-linejoin="round" stroke-miterlimit="10" d="
				M334.641,52.247c-0.395,5.402,3.299,12.439,9.902,17.829"/>
		</g>
		<g>
			
				<path fill="#D9DBDB" stroke="#D9DBDB" stroke-width="0.7215" stroke-linecap="round" stroke-linejoin="round" stroke-miterlimit="10" d="
				M327.149,62.591c0,0-4.25-9.024,1.715-15.911c8.847-2.198,14.969,5.677,14.969,5.677
				C333.927,54.932,327.149,62.591,327.149,62.591z"/>
		</g>
		<g>
			
				<path fill="#D9DBDB" stroke="#D9DBDB" stroke-width="0.7215" stroke-linecap="round" stroke-linejoin="round" stroke-miterlimit="10" d="
				M344.25,69.796c6.816,5.112,2.606,10.688,2.606,10.688S340.555,77.475,344.25,69.796z"/>
		</g>
		<g>
			<g>
				<path fill="#B2B4B3" d="M344.307,69.734c5.961,6.089,10.938,1.188,10.938,1.188S351.435,65.064,344.307,69.734z"/>
				<path fill="#B2B4B3" d="M344.11,69.432c6.342-4.154,10.172-0.312,11.195,0.965c0.158,0.196,0.239,0.322,0.245,0.328
					c0.091,0.145,0.069,0.332-0.051,0.452c-0.083,0.082-2.062,1.996-5.062,1.973c-2.206-0.022-4.354-1.088-6.387-3.166
					c0,0-0.116-0.106-0.167-0.204c-0.048-0.094,0.093-0.229,0.115-0.259C344.016,69.489,344.11,69.432,344.11,69.432z
					 M354.76,70.869c-0.006-0.008-0.013-0.015-0.018-0.021c-0.906-1.132-4.257-4.483-9.861-1.052
					C349.73,74.452,353.757,71.7,354.76,70.869z"/>
			</g>
		</g>
		<g>
			<g>
				<path fill="#B2B4B3" d="M335.036,56.197c2.484-1.533,5.463-2.971,8.795-3.842c0,0-5.989-7.705-14.675-5.744L335.036,56.197z"/>
				<path fill="#B2B4B3" d="M334.928,56.702l-6.079-9.901l-0.222-0.385c0,0,0.07-0.067,0.104-0.071
					c0.034-0.006,0.342-0.083,0.342-0.083c5.42-1.225,9.806,1.173,12.529,3.398c1.588,1.294,2.477,2.43,2.512,2.479
					c0.074,0.095,0.095,0.22,0.059,0.335c-0.041,0.116-0.135,0.203-0.254,0.233c-2.906,0.758-5.834,2.032-8.695,3.8L334.928,56.702z
					 M335.153,55.701c2.646-1.594,5.346-2.786,8.033-3.545c-0.39-0.434-1.085-1.159-2.039-1.937
					c-2.518-2.058-6.507-4.268-11.414-3.359L335.153,55.701z"/>
			</g>
		</g>
		
			<path fill="#FFFFFF" stroke="#FFFFFF" stroke-width="0.7129" stroke-linecap="round" stroke-linejoin="round" stroke-miterlimit="10" d="
			M330.854,55.077c0.615-0.751,0.501-1.855-0.247-2.472c-0.752-0.611-1.86-0.5-2.473,0.249c-0.613,0.752-0.503,1.858,0.251,2.473
			C329.135,55.938,330.241,55.829,330.854,55.077z"/>
		<circle fill="#1C191C" cx="329.495" cy="53.966" r="0.927"/>
	</g>
	<g>
		
			<path fill="#8FADAF" stroke="#8FADAF" stroke-width="0.2232" stroke-linecap="round" stroke-linejoin="round" stroke-miterlimit="10" d="
			M925.149,75.316l-3.652,2.069c-0.846,0.479-1.918,0.183-2.397-0.664l-11.874-20.963c-0.249-0.438-0.398-0.704-0.542-0.958
			c-1.452-2.562-1.925-4.211-0.69-7.291l0.08-0.273c0.252-0.912,0.144-1.456-0.218-2.094l-3.543-6.251l-0.296,0.164
			c-0.197,0.114-0.449,0.044-0.563-0.152l0,0c-0.112-0.2-0.04-0.453,0.155-0.563l1.966-1.112l1.962-1.111
			c0.199-0.114,0.449-0.045,0.563,0.155l0,0c0.112,0.197,0.043,0.45-0.157,0.562L905.647,37l3.543,6.255
			c0.359,0.639,0.77,1.014,1.682,1.265l0.272,0.071c3.275,0.522,4.45,1.775,5.902,4.341c0.146,0.255,0.297,0.52,0.545,0.957
			l11.875,20.964c0.479,0.846,0.18,1.918-0.665,2.395L925.149,75.316"/>
		
			<path fill="#6E989F" stroke="#6E989F" stroke-width="0.2232" stroke-linecap="round" stroke-linejoin="round" stroke-miterlimit="10" d="
			M925.149,75.316l-3.652,2.069c-0.846,0.479-1.918,0.183-2.397-0.664l-11.874-20.963c-0.249-0.438-0.398-0.704-0.542-0.958
			c-1.452-2.562-1.925-4.211-0.69-7.291l0.08-0.273c0.252-0.912,0.144-1.456-0.218-2.094l-3.543-6.251l-0.296,0.164
			c-0.197,0.114-0.449,0.044-0.563-0.152l0,0c-0.112-0.2-0.04-0.453,0.155-0.563l1.966-1.112L925.149,75.316z"/>
		
			<rect x="909.429" y="52.502" transform="matrix(-0.8701 0.4929 -0.4929 -0.8701 1736.8152 -346.4053)" fill="#FFFFFF" stroke="#FFFFFF" stroke-width="0.2232" stroke-linecap="round" stroke-linejoin="round" stroke-miterlimit="10" width="9.268" height="6.402"/>
		
			<rect x="909.778" y="53.855" transform="matrix(0.87 -0.493 0.493 0.87 90.4077 457.0599)" fill="#EAEBEB" stroke="#EAEBEB" stroke-width="0.2232" stroke-linecap="round" stroke-linejoin="round" stroke-miterlimit="10" width="4.633" height="6.402"/>
	</g>
	<g>
		<path fill="#EAEBEC" d="M693.643,34.488l-1.869,1.822l-3.273,3.193l-0.292,0.269l-3.562-0.056
			c-1.373-0.024-2.502,0.936-2.521,2.137l0,0c-0.021,1.206,1.078,2.197,2.452,2.22l1.005,0.02l0.727,0.009l-0.007,0.729l-0.01,1.003
			c-0.014,1.374,0.951,2.499,2.154,2.513l0,0c1.2,0.011,2.188-1.096,2.2-2.469l0.035-3.562l0.276-0.283l3.275-3.195l1.87-1.818
			l0.215-0.208l1.868-1.82l3.275-3.196l0.291-0.269l3.561,0.058c1.376,0.022,2.504-0.938,2.523-2.143l0,0
			c0.021-1.2-1.08-2.194-2.455-2.217l-1.004-0.016l-0.727-0.013l0.008-0.729l0.012-1.005c0.009-1.368-0.955-2.495-2.156-2.507l0,0
			c-1.203-0.012-2.188,1.093-2.205,2.465l-0.031,3.563l-0.275,0.285l-3.278,3.191l-1.869,1.823L693.643,34.488z"/>
	</g>
	<g>
		<path fill="#EAEBEC" d="M300.17,44.606l-1.869,1.823l-3.273,3.191l-0.293,0.271l-3.562-0.059
			c-1.373-0.021-2.501,0.937-2.521,2.139l0,0c-0.021,1.206,1.079,2.195,2.453,2.22l1.006,0.016l0.727,0.012l-0.006,0.729
			l-0.012,1.002c-0.014,1.376,0.951,2.5,2.155,2.515l0,0c1.201,0.011,2.188-1.099,2.201-2.471l0.035-3.562l0.274-0.283l3.277-3.194
			l1.868-1.818l0.216-0.208l1.868-1.822l3.272-3.194l0.29-0.271l3.563,0.058c1.375,0.022,2.503-0.935,2.522-2.14l0,0
			c0.021-1.202-1.081-2.194-2.457-2.217l-1.003-0.016l-0.724-0.014l0.007-0.729l0.009-1.006c0.011-1.369-0.954-2.496-2.155-2.508
			l0,0c-1.202-0.011-2.188,1.095-2.203,2.468l-0.032,3.563l-0.274,0.283l-3.278,3.19l-1.868,1.822L300.17,44.606z"/>
	</g>
	<g>
		<g>
			<g>
				<path fill="#E2E482" d="M725.413,51.222c2.974,0.764,7.104-0.735,10.371-4.05c3.254-3.301,4.698-7.434,3.916-10.396l6.868,6.778
					l6.872,6.771c-2.971-0.741-7.084,0.764-10.34,4.06c-3.263,3.312-4.707,7.468-3.902,10.43L725.413,51.222z"/>
			</g>
		</g>
		<g>
			<g>
				<path fill="#439B35" d="M750.011,39.799"/>
			</g>
		</g>
		<g>
			<g>
				<path fill="#CDDC84" d="M732.414,57.91l-6.896-6.797c2.978,0.761,7-0.627,10.266-3.939c3.254-3.301,4.623-7.354,3.84-10.314
					l6.872,6.773l-13.843,14.04L732.414,57.91z"/>
			</g>
		</g>
		<g>
			<g>
				<path fill="#422A1C" stroke="#422A1C" stroke-width="0.238" stroke-miterlimit="10" d="M749.911,39.572
					c1.851-1.875,1.905-4.832-0.004-6.714l-0.969,0.984c1.444,1.424,1.789,3.75,0.396,5.163L749.911,39.572z"/>
			</g>
		</g>
		<g>
			<g>
				<g>
					<g>
						<path fill="#086530" d="M750.999,40.604c0.43-1.639,1.126-2.474,1.126-2.474c3.616-4.617,10.122-0.146,10.122-0.146
							s-3.858,6.886-9.146,4.345C753.102,42.328,752.108,41.887,750.999,40.604z"/>
					</g>
				</g>
			</g>
			<g>
				<g>
					<g>
						<path fill="#087D39" d="M762.247,37.983c0,0-3.858,6.886-9.146,4.345c0,0-0.992-0.44-2.104-1.725"/>
					</g>
				</g>
			</g>
		</g>
		<g>
			<g>
				<g>
					<path fill="#422A1C" stroke="#422A1C" stroke-width="0.238" stroke-miterlimit="10" d="M740.37,51.625
						c-0.437,0.444-0.639,0.957-0.44,1.149c0.198,0.191,0.709-0.011,1.146-0.454c0.442-0.447,0.64-0.961,0.442-1.153
						C741.323,50.973,740.808,51.179,740.37,51.625z"/>
				</g>
			</g>
			<g>
				<g>
					<path fill="#422A1C" stroke="#422A1C" stroke-width="0.238" stroke-miterlimit="10" d="M737.743,49.033
						c-0.438,0.443-0.636,0.959-0.441,1.154c0.197,0.192,0.712-0.014,1.148-0.461c0.438-0.441,0.637-0.957,0.441-1.151
						C738.696,48.387,738.182,48.589,737.743,49.033z"/>
				</g>
			</g>
		</g>
		<g>
			<g>
				
					<path fill="#43A535" stroke="#43A535" stroke-width="0.2031" stroke-linecap="round" stroke-linejoin="round" stroke-miterlimit="10" d="
					M739.573,36.654c1.383-1.406,4.062-1.525,5.655,0.048c0.434,0.427,0.759,0.915,0.98,1.427l0.481,1.012
					c0.857,1.654,1.652,2.438,1.652,2.438l0.01,0.012c0,0,0.794,0.785,2.46,1.616l1.019,0.471c0.518,0.214,1.012,0.532,1.443,0.964
					c1.597,1.57,1.51,4.249,0.125,5.649L739.573,36.654z"/>
			</g>
		</g>
		<g>
			<g>
				
					<path fill="#43A535" stroke="#43A535" stroke-width="0.2028" stroke-linecap="round" stroke-linejoin="round" stroke-miterlimit="10" d="
					M725.323,51.137c-1.381,1.399-2.334,4.951-0.735,6.521c0,0,0.764,0.735,2.327,1.562c1.342,0.711,2.308,1.681,2.352,1.722
					l0.073,0.075c0.045,0.045,1.024,0.996,1.753,2.326c0.847,1.552,1.595,2.306,1.595,2.306c1.594,1.573,5.13,0.572,6.513-0.83
					L725.323,51.137z"/>
			</g>
		</g>
	</g>
	<g>
		
			<rect x="816.007" y="48.163" transform="matrix(0.7775 -0.6289 0.6289 0.7775 145.7375 531.1677)" fill="#EAEBEC" stroke="#EAEBEC" stroke-width="0.4418" stroke-linecap="round" stroke-linejoin="round" stroke-miterlimit="10" width="15.028" height="22.927"/>
		
			<rect x="816.691" y="50.291" transform="matrix(0.7774 -0.629 0.629 0.7774 143.7687 529.7947)" fill="#C7C7C9" stroke="#C7C7C9" stroke-width="0.4434" stroke-miterlimit="10" width="7.571" height="22.927"/>
		
			<line fill="none" stroke="#C7C7C9" stroke-width="0.4368" stroke-linejoin="round" stroke-miterlimit="10" x1="817.52" y1="56.053" x2="825.415" y2="49.667"/>
		
			<line fill="none" stroke="#C7C7C9" stroke-width="0.4418" stroke-linejoin="round" stroke-miterlimit="10" x1="819.395" y1="58.746" x2="827.472" y2="52.219"/>
		
			<line fill="none" stroke="#C7C7C9" stroke-width="0.4418" stroke-linejoin="round" stroke-miterlimit="10" x1="821.45" y1="61.301" x2="829.541" y2="54.762"/>
		
			<line fill="none" stroke="#C7C7C9" stroke-width="0.4418" stroke-linejoin="round" stroke-miterlimit="10" x1="823.51" y1="63.85" x2="831.601" y2="57.307"/>
		
			<line fill="none" stroke="#C7C7C9" stroke-width="0.4418" stroke-linejoin="round" stroke-miterlimit="10" x1="825.577" y1="66.391" x2="833.657" y2="59.858"/>
		
			<line fill="none" stroke="#EAEBEC" stroke-width="0.3595" stroke-linejoin="round" stroke-miterlimit="10" x1="813.349" y1="59.426" x2="819.616" y2="54.354"/>
		
			<line fill="none" stroke="#EAEBEC" stroke-width="0.3595" stroke-linejoin="round" stroke-miterlimit="10" x1="815.407" y1="61.972" x2="821.549" y2="57.01"/>
		
			<line fill="none" stroke="#EAEBEC" stroke-width="0.3595" stroke-linejoin="round" stroke-miterlimit="10" x1="817.467" y1="64.522" x2="823.612" y2="59.556"/>
		
			<line fill="none" stroke="#EAEBEC" stroke-width="0.3595" stroke-linejoin="round" stroke-miterlimit="10" x1="819.526" y1="67.065" x2="825.671" y2="62.101"/>
		
			<line fill="none" stroke="#EAEBEC" stroke-width="0.3596" stroke-linejoin="round" stroke-miterlimit="10" x1="821.577" y1="69.623" x2="827.73" y2="64.653"/>
		<path fill="#C7C7C9" stroke="#C7C7C9" stroke-width="0.357" stroke-miterlimit="10" d="M815.989,37.995
			c-2.646-3.275-7.451-3.784-10.729-1.137c-3.277,2.646-3.785,7.454-1.136,10.729c2.649,3.271,7.455,3.782,10.729,1.14
			C818.13,46.074,818.64,41.27,815.989,37.995z"/>
		<path fill="#C7C7C9" stroke="#EAEBEC" stroke-width="0.4418" stroke-miterlimit="10" d="M814.226,39.416
			c-1.857-2.301-5.237-2.656-7.542-0.8c-2.303,1.865-2.662,5.243-0.8,7.549c1.865,2.305,5.242,2.657,7.542,0.798
			C815.734,45.096,816.088,41.723,814.226,39.416z"/>
		
			<path fill="#EAEBEC" stroke="#EAEBEC" stroke-width="0.1482" stroke-linecap="round" stroke-linejoin="round" stroke-miterlimit="10" d="
			M821.485,44.674c0.087,0.105,0.069,0.258-0.035,0.346l-11.776,9.521c-0.105,0.092-0.261,0.07-0.349-0.033l0,0
			c-0.082-0.106-0.067-0.265,0.039-0.349l11.777-9.521C821.243,44.55,821.401,44.566,821.485,44.674L821.485,44.674z"/>
		
			<path fill="#C7C7C9" stroke="#C7C7C9" stroke-width="0.1482" stroke-linecap="round" stroke-linejoin="round" stroke-miterlimit="10" d="
			M815.777,49.606l-6.104,4.934c-0.105,0.092-0.261,0.07-0.349-0.033l0,0c-0.082-0.106-0.067-0.265,0.039-0.349l6.105-4.937
			L815.777,49.606z"/>
		
			<path fill="#EAEBEC" stroke="#EAEBEC" stroke-width="0.1482" stroke-linecap="round" stroke-linejoin="round" stroke-miterlimit="10" d="
			M837.676,64.697c0.084,0.107,0.066,0.26-0.037,0.345l-11.778,9.524c-0.103,0.084-0.263,0.069-0.347-0.038l0,0
			c-0.085-0.103-0.066-0.263,0.037-0.347l11.773-9.521C837.432,64.573,837.587,64.59,837.676,64.697L837.676,64.697z"/>
		
			<path fill="#C7C7C9" stroke="#C7C7C9" stroke-width="0.1482" stroke-linecap="round" stroke-linejoin="round" stroke-miterlimit="10" d="
			M831.966,69.63l-6.104,4.938c-0.104,0.084-0.264,0.069-0.348-0.038l0,0c-0.085-0.103-0.065-0.263,0.037-0.347l6.106-4.938
			L831.966,69.63z"/>
	</g>
	<g>
		
			<rect x="374.07" y="39.509" transform="matrix(0.9526 0.3041 -0.3041 0.9526 33.5753 -113.6314)" fill="#EAEBEC" stroke="#EAEBEC" stroke-width="0.4418" stroke-linecap="round" stroke-linejoin="round" stroke-miterlimit="10" width="15.028" height="22.927"/>
		
			<rect x="374.037" y="38.204" transform="matrix(0.9528 0.3037 -0.3037 0.9528 32.9374 -112.4162)" fill="#C7C7C9" stroke="#C7C7C9" stroke-width="0.4434" stroke-miterlimit="10" width="7.575" height="22.928"/>
		
			<line fill="none" stroke="#C7C7C9" stroke-width="0.4368" stroke-linejoin="round" stroke-miterlimit="10" x1="381.114" y1="43.842" x2="390.786" y2="46.929"/>
		
			<line fill="none" stroke="#C7C7C9" stroke-width="0.4418" stroke-linejoin="round" stroke-miterlimit="10" x1="379.894" y1="46.889" x2="389.791" y2="50.048"/>
		
			<line fill="none" stroke="#C7C7C9" stroke-width="0.4418" stroke-linejoin="round" stroke-miterlimit="10" x1="378.892" y1="50.007" x2="388.803" y2="53.174"/>
		
			<line fill="none" stroke="#C7C7C9" stroke-width="0.4418" stroke-linejoin="round" stroke-miterlimit="10" x1="377.894" y1="53.13" x2="387.804" y2="56.292"/>
		
			<line fill="none" stroke="#C7C7C9" stroke-width="0.4418" stroke-linejoin="round" stroke-miterlimit="10" x1="376.905" y1="56.256" x2="386.807" y2="59.415"/>
		
			<line fill="none" stroke="#EAEBEC" stroke-width="0.3595" stroke-linejoin="round" stroke-miterlimit="10" x1="376.007" y1="42.205" x2="383.687" y2="44.659"/>
		
			<line fill="none" stroke="#EAEBEC" stroke-width="0.3595" stroke-linejoin="round" stroke-miterlimit="10" x1="375.009" y1="45.327" x2="382.532" y2="47.729"/>
		
			<line fill="none" stroke="#EAEBEC" stroke-width="0.3595" stroke-linejoin="round" stroke-miterlimit="10" x1="374.014" y1="48.45" x2="381.536" y2="50.853"/>
		
			<line fill="none" stroke="#EAEBEC" stroke-width="0.3595" stroke-linejoin="round" stroke-miterlimit="10" x1="373.017" y1="51.568" x2="380.542" y2="53.974"/>
		
			<line fill="none" stroke="#EAEBEC" stroke-width="0.3596" stroke-linejoin="round" stroke-miterlimit="10" x1="372.008" y1="54.69" x2="379.543" y2="57.095"/>
		<circle fill="#C7C7C9" stroke="#C7C7C9" stroke-width="0.357" stroke-miterlimit="10" cx="388.094" cy="30.316" r="7.628"/>
		<path fill="#C7C7C9" stroke="#EAEBEC" stroke-width="0.4418" stroke-miterlimit="10" d="M393.202,31.947
			c0.902-2.82-0.654-5.84-3.478-6.74c-2.823-0.897-5.84,0.658-6.743,3.479c-0.898,2.822,0.658,5.841,3.479,6.741
			C389.289,36.327,392.301,34.769,393.202,31.947z"/>
		
			<path fill="#EAEBEC" stroke="#EAEBEC" stroke-width="0.1482" stroke-linecap="round" stroke-linejoin="round" stroke-miterlimit="10" d="
			M392.802,40.9c-0.04,0.129-0.181,0.2-0.308,0.16l-14.429-4.606c-0.131-0.042-0.204-0.181-0.159-0.312l0,0
			c0.041-0.129,0.181-0.2,0.309-0.159l14.427,4.606C392.773,40.631,392.846,40.77,392.802,40.9L392.802,40.9z"/>
		
			<path fill="#C7C7C9" stroke="#C7C7C9" stroke-width="0.1482" stroke-linecap="round" stroke-linejoin="round" stroke-miterlimit="10" d="
			M385.546,38.843l-7.479-2.39c-0.131-0.042-0.204-0.181-0.16-0.312l0,0c0.041-0.129,0.182-0.2,0.31-0.159l7.479,2.388
			L385.546,38.843z"/>
		
			<path fill="#EAEBEC" stroke="#EAEBEC" stroke-width="0.1482" stroke-linecap="round" stroke-linejoin="round" stroke-miterlimit="10" d="
			M384.973,65.43c-0.044,0.129-0.181,0.198-0.312,0.16l-14.43-4.608c-0.127-0.041-0.201-0.18-0.156-0.31l0,0
			c0.037-0.128,0.184-0.2,0.312-0.157l14.425,4.604C384.941,65.161,385.012,65.301,384.973,65.43L384.973,65.43z"/>
		
			<path fill="#C7C7C9" stroke="#C7C7C9" stroke-width="0.1482" stroke-linecap="round" stroke-linejoin="round" stroke-miterlimit="10" d="
			M377.714,63.372l-7.482-2.391c-0.127-0.041-0.2-0.18-0.155-0.31l0,0c0.037-0.13,0.183-0.2,0.311-0.157l7.479,2.387L377.714,63.372
			z"/>
	</g>
	<g>
		
			<path fill="#8FADAF" stroke="#8FADAF" stroke-width="0.2232" stroke-linecap="round" stroke-linejoin="round" stroke-miterlimit="10" d="
			M445.423,70.201l3.651,2.069c0.845,0.479,1.918,0.183,2.397-0.664l11.873-20.964c0.25-0.437,0.399-0.702,0.541-0.956
			c1.455-2.562,1.926-4.212,0.693-7.291l-0.08-0.274c-0.254-0.91-0.146-1.455,0.216-2.092l3.543-6.253l0.298,0.167
			c0.198,0.111,0.449,0.041,0.563-0.155l0,0c0.111-0.2,0.042-0.453-0.155-0.562l-1.967-1.113L465.036,31
			c-0.199-0.112-0.45-0.045-0.565,0.156l0,0c-0.11,0.199-0.043,0.449,0.157,0.563l0.295,0.166l-3.542,6.253
			c-0.361,0.64-0.771,1.014-1.682,1.265l-0.274,0.071c-3.273,0.522-4.449,1.775-5.9,4.341c-0.146,0.255-0.299,0.521-0.545,0.96
			l-11.875,20.961c-0.479,0.845-0.182,1.921,0.664,2.397L445.423,70.201"/>
		
			<path fill="#6E989F" stroke="#6E989F" stroke-width="0.2232" stroke-linecap="round" stroke-linejoin="round" stroke-miterlimit="10" d="
			M445.423,70.201l3.651,2.069c0.845,0.479,1.918,0.183,2.397-0.664l11.873-20.964c0.25-0.437,0.399-0.702,0.541-0.956
			c1.455-2.562,1.926-4.212,0.693-7.291l-0.08-0.274c-0.254-0.91-0.146-1.455,0.216-2.092l3.543-6.253l0.298,0.167
			c0.198,0.111,0.449,0.041,0.563-0.155l0,0c0.111-0.2,0.042-0.453-0.155-0.562l-1.967-1.113L445.423,70.201z"/>
		
			<rect x="451.743" y="47.559" transform="matrix(0.8701 0.4929 -0.4929 0.8701 84.3204 -218.3687)" fill="#FFFFFF" stroke="#FFFFFF" stroke-width="0.2232" stroke-linecap="round" stroke-linejoin="round" stroke-miterlimit="10" width="9.268" height="6.402"/>
		
			<rect x="456.233" y="48.602" transform="matrix(-0.8701 -0.4929 0.4929 -0.8701 831.9893 322.9003)" fill="#EAEBEB" stroke="#EAEBEB" stroke-width="0.2232" stroke-linecap="round" stroke-linejoin="round" stroke-miterlimit="10" width="4.632" height="6.402"/>
	</g>
	<g>
		<path fill="#EAEBEC" d="M418.45,45.954l1.867,1.823l3.275,3.194l0.292,0.269l3.563-0.057c1.371-0.023,2.5,0.936,2.521,2.138l0,0
			c0.02,1.206-1.079,2.196-2.453,2.22l-1.006,0.019l-0.728,0.009l0.008,0.729l0.012,1.004c0.012,1.375-0.952,2.499-2.157,2.512l0,0
			c-1.2,0.011-2.188-1.095-2.201-2.469l-0.032-3.563l-0.276-0.283l-3.277-3.192l-1.868-1.82l-0.216-0.208l-1.868-1.822l-3.273-3.192
			l-0.29-0.271l-3.562,0.06c-1.375,0.02-2.502-0.938-2.523-2.145l0,0c-0.02-1.201,1.081-2.193,2.456-2.219l1.003-0.013l0.727-0.016
			l-0.008-0.727l-0.011-1.006c-0.009-1.37,0.955-2.496,2.157-2.509l0,0c1.203-0.014,2.188,1.096,2.203,2.469l0.031,3.562
			l0.275,0.281l3.277,3.193l1.868,1.821L418.45,45.954z"/>
	</g>
	<g>
		
			<path fill="#8FADAF" stroke="#8FADAF" stroke-width="0.2232" stroke-linecap="round" stroke-linejoin="round" stroke-miterlimit="10" d="
			M3.505,62.898l2.901,3.033c0.672,0.704,1.784,0.728,2.488,0.054l17.401-16.659c0.366-0.348,0.586-0.56,0.795-0.764
			c2.126-2.034,3.054-3.479,2.759-6.781l0.003-0.288c0.021-0.942,0.28-1.436,0.81-1.938l5.193-4.969l0.235,0.24
			c0.158,0.168,0.418,0.173,0.584,0.019l0,0c0.165-0.161,0.17-0.422,0.015-0.586l-1.562-1.632l-1.562-1.629
			c-0.161-0.166-0.418-0.174-0.585-0.014l0,0c-0.164,0.156-0.172,0.418-0.012,0.585l0.233,0.243l-5.191,4.97
			c-0.531,0.509-1.028,0.751-1.973,0.729L25.754,37.5c-3.289-0.44-4.772,0.421-6.901,2.458c-0.215,0.202-0.434,0.412-0.797,0.766
			L0.652,57.382c-0.699,0.672-0.724,1.785-0.052,2.485L3.505,62.898"/>
		
			<path fill="#6E989F" stroke="#6E989F" stroke-width="0.2232" stroke-linecap="round" stroke-linejoin="round" stroke-miterlimit="10" d="
			M3.505,62.898l2.901,3.033c0.672,0.704,1.784,0.728,2.488,0.054l17.401-16.659c0.366-0.348,0.586-0.56,0.795-0.764
			c2.126-2.034,3.054-3.479,2.759-6.781l0.003-0.288c0.021-0.942,0.28-1.436,0.81-1.938l5.193-4.969l0.235,0.24
			c0.158,0.168,0.418,0.173,0.584,0.019l0,0c0.165-0.161,0.17-0.422,0.015-0.586l-1.562-1.632L3.505,62.898z"/>
		
			<polygon fill="#FFFFFF" stroke="#FFFFFF" stroke-width="0.2232" stroke-linecap="round" stroke-linejoin="round" stroke-miterlimit="10" points="
			20.624,52.929 14.213,46.235 18.836,41.806 25.247,48.505 		"/>
		
			<rect x="19.014" y="45.843" transform="matrix(-0.6922 -0.7217 0.7217 -0.6922 0.702 98.3853)" fill="#EAEBEB" stroke="#EAEBEB" stroke-width="0.2232" stroke-linecap="round" stroke-linejoin="round" stroke-miterlimit="10" width="4.634" height="6.4"/>
	</g>
	<g>
		
			<rect x="712.926" y="18.146" transform="matrix(0.9568 -0.2907 0.2907 0.9568 23.7896 209.5639)" fill="#EAEBEC" stroke="#EAEBEC" stroke-width="0.2531" stroke-linecap="round" stroke-linejoin="round" stroke-miterlimit="10" width="8.61" height="13.132"/>
		
			<rect x="712.837" y="18.714" transform="matrix(0.9567 -0.2911 0.2911 0.9567 23.5986 209.2065)" fill="#C7C7C9" stroke="#C7C7C9" stroke-width="0.254" stroke-miterlimit="10" width="4.338" height="13.134"/>
		
			<line fill="none" stroke="#C7C7C9" stroke-width="0.2502" stroke-linejoin="round" stroke-miterlimit="10" x1="714.812" y1="21.523" x2="720.377" y2="19.833"/>
		
			<line fill="none" stroke="#C7C7C9" stroke-width="0.2531" stroke-linejoin="round" stroke-miterlimit="10" x1="715.229" y1="23.358" x2="720.922" y2="21.63"/>
		
			<line fill="none" stroke="#C7C7C9" stroke-width="0.2531" stroke-linejoin="round" stroke-miterlimit="10" x1="715.769" y1="25.155" x2="721.474" y2="23.424"/>
		
			<line fill="none" stroke="#C7C7C9" stroke-width="0.2531" stroke-linejoin="round" stroke-miterlimit="10" x1="716.315" y1="26.951" x2="722.018" y2="25.22"/>
		
			<line fill="none" stroke="#C7C7C9" stroke-width="0.2531" stroke-linejoin="round" stroke-miterlimit="10" x1="716.866" y1="28.746" x2="722.562" y2="27.016"/>
		
			<line fill="none" stroke="#EAEBEC" stroke-width="0.206" stroke-linejoin="round" stroke-miterlimit="10" x1="711.872" y1="22.416" x2="716.292" y2="21.073"/>
		
			<line fill="none" stroke="#EAEBEC" stroke-width="0.206" stroke-linejoin="round" stroke-miterlimit="10" x1="712.417" y1="24.213" x2="716.748" y2="22.897"/>
		
			<line fill="none" stroke="#EAEBEC" stroke-width="0.206" stroke-linejoin="round" stroke-miterlimit="10" x1="712.963" y1="26.009" x2="717.292" y2="24.693"/>
		
			<line fill="none" stroke="#EAEBEC" stroke-width="0.206" stroke-linejoin="round" stroke-miterlimit="10" x1="713.509" y1="27.804" x2="717.837" y2="26.489"/>
		
			<line fill="none" stroke="#EAEBEC" stroke-width="0.206" stroke-linejoin="round" stroke-miterlimit="10" x1="714.048" y1="29.603" x2="718.383" y2="28.285"/>
		<circle fill="#C7C7C9" stroke="#C7C7C9" stroke-width="0.2045" stroke-miterlimit="10" cx="713.702" cy="12.876" r="4.37"/>
		<circle fill="#C7C7C9" stroke="#EAEBEC" stroke-width="0.2531" stroke-miterlimit="10" cx="713.704" cy="12.876" r="3.073"/>
		
			<path fill="#EAEBEC" stroke="#EAEBEC" stroke-width="0.0849" stroke-linecap="round" stroke-linejoin="round" stroke-miterlimit="10" d="
			M719.366,16.333c0.023,0.075-0.019,0.154-0.093,0.179l-8.302,2.521c-0.074,0.022-0.153-0.02-0.177-0.094l0,0
			c-0.022-0.075,0.021-0.154,0.095-0.177l8.301-2.521C719.265,16.218,719.344,16.26,719.366,16.333L719.366,16.333z"/>
		
			<path fill="#C7C7C9" stroke="#C7C7C9" stroke-width="0.0849" stroke-linecap="round" stroke-linejoin="round" stroke-miterlimit="10" d="
			M715.275,17.726l-4.304,1.307c-0.074,0.022-0.153-0.02-0.177-0.094l0,0c-0.022-0.075,0.021-0.154,0.095-0.177l4.304-1.31
			L715.275,17.726z"/>
		
			<path fill="#EAEBEC" stroke="#EAEBEC" stroke-width="0.0849" stroke-linecap="round" stroke-linejoin="round" stroke-miterlimit="10" d="
			M723.655,30.449c0.022,0.074-0.021,0.153-0.095,0.178l-8.301,2.521c-0.075,0.021-0.154-0.021-0.177-0.095l0,0
			c-0.023-0.074,0.02-0.153,0.094-0.179l8.302-2.521C723.552,30.332,723.631,30.375,723.655,30.449L723.655,30.449z"/>
		
			<path fill="#C7C7C9" stroke="#C7C7C9" stroke-width="0.0849" stroke-linecap="round" stroke-linejoin="round" stroke-miterlimit="10" d="
			M719.562,31.841l-4.303,1.308c-0.075,0.021-0.154-0.021-0.177-0.095l0,0c-0.023-0.074,0.02-0.153,0.094-0.178l4.304-1.309
			L719.562,31.841z"/>
	</g>
	<g>
		
			<path fill="#FCD8A1" stroke="#FCD8A1" stroke-width="0.269" stroke-linecap="round" stroke-linejoin="round" stroke-miterlimit="10" d="
			M691.784,1.151c-0.271-0.021-0.483-0.215-0.548-0.463l-0.454-0.036c-0.102,0.235-0.344,0.393-0.611,0.371
			c-0.271-0.022-0.483-0.215-0.548-0.463l-0.455-0.036c-0.101,0.235-0.344,0.393-0.61,0.37c-0.271-0.021-0.485-0.213-0.55-0.462
			l-0.452-0.036c-0.103,0.234-0.345,0.392-0.612,0.371c-0.271-0.022-0.484-0.215-0.548-0.463l-0.453-0.036
			c-0.103,0.233-0.344,0.393-0.612,0.371c-0.271-0.022-0.483-0.214-0.548-0.464l-0.512-0.041l-1.309,16.512l0.496,0.038
			c0.087-0.264,0.343-0.442,0.631-0.42c0.289,0.021,0.516,0.241,0.561,0.515l0.424,0.034c0.086-0.263,0.344-0.443,0.631-0.421
			c0.289,0.021,0.514,0.24,0.56,0.516l0.425,0.032c0.086-0.263,0.343-0.443,0.632-0.42c0.288,0.021,0.515,0.241,0.56,0.515
			l0.425,0.034c0.086-0.264,0.343-0.443,0.632-0.42c0.287,0.021,0.514,0.24,0.557,0.514l0.425,0.034
			c0.088-0.264,0.345-0.443,0.633-0.421c0.289,0.021,0.515,0.241,0.558,0.515l0.477,0.038l1.309-16.51l-0.489-0.039
			C692.296,1.016,692.053,1.173,691.784,1.151z"/>
		<g>
			<path fill="#7A6A56" d="M683.13,12.821l0.379,0.03c0.056,0.004,0.096,0.053,0.092,0.106c-0.004,0.057-0.052,0.099-0.106,0.094
				l-0.381-0.029L683.13,12.821z"/>
			<path fill="#7A6A56" d="M690.977,13.546c-0.005,0.055-0.053,0.096-0.106,0.092l-0.738-0.061
				c-0.055-0.004-0.097-0.053-0.092-0.105c0.004-0.059,0.053-0.1,0.105-0.096l0.737,0.061
				C690.94,13.44,690.981,13.488,690.977,13.546z M689.501,13.429c-0.004,0.056-0.054,0.097-0.108,0.092l-0.738-0.061
				c-0.055-0.004-0.097-0.053-0.093-0.106c0.005-0.056,0.056-0.098,0.109-0.092l0.737,0.058
				C689.464,13.323,689.505,13.372,689.501,13.429z M688.026,13.311c-0.004,0.056-0.052,0.098-0.106,0.092l-0.736-0.058
				c-0.056-0.005-0.098-0.053-0.093-0.108c0.004-0.056,0.053-0.098,0.105-0.093l0.737,0.059
				C687.989,13.206,688.03,13.256,688.026,13.311z M686.551,13.193c-0.005,0.057-0.053,0.098-0.107,0.093l-0.737-0.059
				c-0.056-0.004-0.097-0.053-0.093-0.108c0.004-0.055,0.054-0.096,0.107-0.093l0.738,0.06
				C686.514,13.09,686.556,13.139,686.551,13.193z M685.077,13.077c-0.007,0.057-0.054,0.099-0.108,0.094l-0.738-0.061
				c-0.055-0.004-0.097-0.053-0.092-0.107c0.005-0.056,0.053-0.098,0.106-0.094l0.737,0.061
				C685.041,12.973,685.082,13.022,685.077,13.077z"/>
			<path fill="#7A6A56" d="M692.013,13.524l-0.392-0.031c-0.058-0.004-0.104,0.039-0.108,0.095
				c-0.005,0.057,0.036,0.104,0.092,0.107L692,13.726L692.013,13.524z"/>
		</g>
		
			<rect x="682.705" y="3.238" transform="matrix(0.0789 -0.9969 0.9969 0.0789 626.8962 692.2601)" fill="none" stroke="#7A6A56" stroke-width="0.1009" stroke-linecap="round" stroke-linejoin="round" stroke-miterlimit="10" width="10.716" height="7.298"/>
		<g>
			
				<path fill="#7A6A56" stroke="#7A6A56" stroke-width="0.0375" stroke-linecap="round" stroke-linejoin="round" stroke-miterlimit="10" d="
				M687.892,9.045l-2.81-0.221c0.047-0.412,0.128-0.719,0.244-0.921c0.115-0.202,0.272-0.296,0.473-0.28
				c0.199,0.018,0.341,0.084,0.429,0.203c0.087,0.119,0.135,0.262,0.144,0.421c0.035-0.208,0.123-0.382,0.264-0.52
				c0.14-0.139,0.333-0.197,0.579-0.178c0.246,0.019,0.43,0.155,0.55,0.41C687.883,8.218,687.926,8.579,687.892,9.045z
				 M685.786,7.772c-0.149-0.011-0.271,0.064-0.363,0.229c-0.096,0.162-0.153,0.395-0.176,0.688l1.015,0.081
				C686.303,8.135,686.145,7.801,685.786,7.772z M687.179,7.697c-0.14-0.011-0.258,0.021-0.356,0.088
				c-0.101,0.069-0.175,0.169-0.226,0.296c-0.089,0.215-0.144,0.445-0.164,0.699l1.319,0.104c0.015-0.217,0.005-0.404-0.03-0.565
				c-0.034-0.161-0.083-0.284-0.149-0.37C687.45,7.792,687.318,7.708,687.179,7.697z"/>
			
				<path fill="#7A6A56" stroke="#7A6A56" stroke-width="0.0375" stroke-linecap="round" stroke-linejoin="round" stroke-miterlimit="10" d="
				M688.041,7.014L688.03,7.16l-2.791-0.221l0.013-0.146L688.041,7.014z"/>
			
				<path fill="#7A6A56" stroke="#7A6A56" stroke-width="0.0375" stroke-linecap="round" stroke-linejoin="round" stroke-miterlimit="10" d="
				M686.847,4.615c0.44,0.035,0.772,0.136,1,0.305c0.226,0.17,0.328,0.395,0.306,0.678c-0.021,0.281-0.16,0.496-0.415,0.643
				c-0.253,0.146-0.603,0.201-1.046,0.166c-0.443-0.036-0.785-0.145-1.027-0.326c-0.24-0.184-0.351-0.42-0.326-0.71
				c0.015-0.174,0.068-0.314,0.17-0.432c0.099-0.114,0.226-0.194,0.383-0.24C686.177,4.614,686.497,4.589,686.847,4.615z
				 M686.769,4.758c-0.371-0.029-0.672,0.011-0.903,0.116c-0.229,0.108-0.354,0.279-0.375,0.515
				c-0.019,0.232,0.077,0.43,0.285,0.585c0.21,0.157,0.521,0.251,0.93,0.283c0.478,0.038,0.836-0.042,1.076-0.24
				c0.133-0.109,0.203-0.242,0.217-0.396c0.014-0.153-0.013-0.281-0.072-0.388c-0.062-0.104-0.151-0.188-0.271-0.25
				C687.434,4.861,687.139,4.787,686.769,4.758z"/>
		</g>
		<g>
			<path fill="#7A6A56" d="M689.833,8.238c0.004,0.002,0.013,0.008,0.024,0.019c0.014,0.009,0.028,0.02,0.045,0.031
				c0.02,0.015,0.037,0.028,0.057,0.048c0.02,0.019,0.037,0.037,0.052,0.059c0.016,0.021,0.028,0.042,0.038,0.064
				c0.009,0.023,0.013,0.048,0.011,0.07c-0.003,0.038-0.013,0.07-0.028,0.099c-0.016,0.023-0.033,0.047-0.052,0.062
				c0.024,0.015,0.048,0.031,0.068,0.05c0.02,0.021,0.038,0.04,0.052,0.062c0.014,0.021,0.025,0.045,0.032,0.067
				c0.007,0.024,0.01,0.051,0.008,0.073c-0.004,0.046-0.021,0.083-0.05,0.113s-0.066,0.054-0.113,0.068
				c-0.048,0.02-0.102,0.031-0.162,0.038c-0.061,0.009-0.123,0.014-0.189,0.014c-0.064,0.003-0.133,0-0.198-0.003
				c-0.066-0.005-0.13-0.01-0.191-0.015c-0.112-0.01-0.215-0.021-0.299-0.033c-0.084-0.015-0.156-0.027-0.214-0.046
				c-0.061-0.016-0.104-0.031-0.143-0.051c-0.035-0.019-0.062-0.037-0.082-0.056c-0.02-0.021-0.031-0.037-0.038-0.059
				c-0.006-0.018-0.008-0.034-0.007-0.054c0.003-0.025,0.012-0.05,0.03-0.071c0.019-0.02,0.042-0.034,0.073-0.047
				c0.029-0.013,0.065-0.021,0.107-0.023s0.088-0.004,0.139,0c0.08,0.007,0.161,0.021,0.245,0.046
				c0.083,0.021,0.166,0.053,0.249,0.086c0.082,0.034,0.162,0.071,0.242,0.111c0.078,0.04,0.152,0.077,0.225,0.115
				c0.035-0.001,0.07-0.006,0.105-0.011c0.033-0.008,0.062-0.016,0.09-0.029c0.027-0.012,0.051-0.024,0.065-0.045
				c0.019-0.019,0.024-0.039,0.026-0.062c0.004-0.025-0.002-0.051-0.016-0.073s-0.03-0.045-0.053-0.062
				c-0.022-0.021-0.047-0.034-0.076-0.045c-0.029-0.014-0.061-0.021-0.091-0.021c-0.021-0.002-0.043-0.002-0.063,0.001
				c-0.021,0.002-0.041,0.008-0.059,0.015c-0.02,0.009-0.032,0.019-0.043,0.028c-0.012,0.011-0.02,0.027-0.021,0.045
				c-0.001,0.015,0.001,0.023,0.007,0.031c0.006,0.009,0.012,0.015,0.019,0.019s0.014,0.009,0.021,0.011
				c0.008,0.001,0.013,0.001,0.015,0.001c0.01,0.002,0.021,0,0.03-0.004c0.013-0.006,0.021-0.013,0.029-0.023
				c0.01-0.012,0.023-0.018,0.039-0.016c0.014,0.001,0.022,0.006,0.028,0.016c0.008,0.009,0.01,0.019,0.01,0.029
				c-0.002,0.015-0.007,0.025-0.017,0.038c-0.01,0.012-0.022,0.021-0.036,0.025c-0.015,0.007-0.03,0.013-0.046,0.017
				c-0.018,0.004-0.03,0.005-0.045,0.005c-0.021-0.003-0.041-0.009-0.059-0.019c-0.019-0.009-0.032-0.021-0.045-0.035
				c-0.013-0.014-0.021-0.027-0.026-0.047c-0.007-0.018-0.009-0.033-0.007-0.054c0.002-0.032,0.013-0.059,0.029-0.082
				c0.017-0.021,0.037-0.04,0.062-0.054c0.023-0.016,0.055-0.023,0.087-0.028c0.031-0.005,0.062-0.006,0.096-0.003
				c0.021,0.002,0.037,0.003,0.056,0.008c0.006-0.003,0.014-0.007,0.022-0.013c0.011-0.006,0.021-0.014,0.031-0.025
				c0.01-0.01,0.02-0.021,0.025-0.038c0.009-0.015,0.013-0.03,0.015-0.054c0.002-0.018-0.004-0.036-0.016-0.058
				c-0.014-0.021-0.029-0.039-0.049-0.061c-0.02-0.019-0.039-0.036-0.062-0.054c-0.021-0.019-0.043-0.03-0.062-0.042
				c-0.007-0.004-0.013-0.01-0.017-0.019c-0.004-0.008-0.005-0.016-0.005-0.021c0.001-0.013,0.007-0.021,0.018-0.029
				s0.021-0.011,0.03-0.01C689.821,8.231,689.827,8.234,689.833,8.238z M689.62,9.091c-0.062-0.03-0.123-0.062-0.19-0.094
				c-0.065-0.03-0.135-0.061-0.204-0.087c-0.07-0.024-0.143-0.05-0.213-0.066c-0.071-0.021-0.145-0.032-0.214-0.037
				c-0.027-0.003-0.056-0.005-0.085-0.003c-0.03,0-0.057,0.003-0.083,0.006c-0.024,0.006-0.045,0.013-0.063,0.021
				c-0.017,0.012-0.024,0.024-0.027,0.043c0,0.006,0.004,0.016,0.012,0.022c0.007,0.011,0.02,0.021,0.039,0.034
				c0.019,0.011,0.045,0.021,0.079,0.037c0.034,0.014,0.077,0.024,0.132,0.039c0.054,0.013,0.118,0.022,0.193,0.036
				c0.074,0.012,0.165,0.021,0.267,0.028c0.035,0.003,0.069,0.005,0.105,0.007c0.034,0.002,0.069,0.005,0.102,0.007
				s0.062,0.003,0.091,0.004C689.582,9.091,689.604,9.091,689.62,9.091z"/>
			<path fill="#7A6A56" d="M689.275,8.085c0.027,0.005,0.052,0.017,0.07,0.036c0.019,0.021,0.024,0.046,0.022,0.074
				c-0.002,0.029-0.016,0.052-0.035,0.069c-0.021,0.018-0.046,0.025-0.074,0.022c-0.015-0.001-0.027-0.005-0.039-0.011
				c-0.013-0.007-0.023-0.015-0.03-0.023c-0.009-0.012-0.016-0.021-0.02-0.033c-0.004-0.015-0.007-0.026-0.005-0.04
				c0.001-0.016,0.005-0.027,0.011-0.04c0.006-0.011,0.015-0.021,0.024-0.03c0.011-0.009,0.021-0.015,0.032-0.02
				C689.247,8.088,689.259,8.085,689.275,8.085z M689.915,8.319c-0.106-0.009-0.215-0.021-0.319-0.045
				c-0.01-0.003-0.019-0.009-0.026-0.017c-0.007-0.011-0.01-0.021-0.009-0.031s0.007-0.021,0.018-0.027
				c0.009-0.007,0.019-0.01,0.028-0.009c0.004,0.001,0.021,0.002,0.039,0.006c0.022,0.004,0.052,0.008,0.08,0.013
				c0.03,0.008,0.063,0.013,0.099,0.017c0.034,0.005,0.065,0.009,0.096,0.011c0.039,0.003,0.071,0.002,0.097-0.004
				c0.024-0.006,0.044-0.015,0.06-0.026c0.014-0.011,0.023-0.021,0.03-0.036c0.006-0.014,0.01-0.025,0.01-0.038
				c0.001-0.021-0.004-0.044-0.019-0.066c-0.013-0.022-0.03-0.048-0.058-0.073c-0.023-0.024-0.057-0.053-0.092-0.079
				c-0.037-0.024-0.074-0.054-0.121-0.079c-0.007-0.006-0.012-0.011-0.016-0.019c-0.004-0.007-0.006-0.014-0.005-0.021
				c0.001-0.015,0.007-0.022,0.015-0.029c0.01-0.007,0.021-0.011,0.031-0.01c0.008,0.001,0.014,0.003,0.02,0.006
				c0.018,0.011,0.036,0.021,0.062,0.038c0.022,0.017,0.047,0.031,0.072,0.053c0.022,0.019,0.049,0.04,0.071,0.062
				c0.023,0.022,0.045,0.048,0.063,0.07c0.019,0.025,0.034,0.051,0.044,0.077c0.011,0.026,0.015,0.053,0.014,0.079
				c-0.003,0.033-0.014,0.062-0.029,0.086c-0.015,0.023-0.037,0.045-0.062,0.06c-0.024,0.019-0.054,0.027-0.087,0.032
				C689.989,8.321,689.952,8.322,689.915,8.319z M689.27,8.149c-0.011-0.001-0.021,0.002-0.029,0.009
				c-0.008,0.009-0.013,0.019-0.014,0.027s0.002,0.019,0.01,0.025c0.009,0.01,0.019,0.015,0.026,0.016
				c0.011,0,0.021-0.002,0.028-0.01c0.007-0.009,0.012-0.018,0.013-0.025c0-0.011-0.002-0.021-0.009-0.028
				C689.288,8.156,689.28,8.149,689.27,8.149z"/>
			<path fill="#7A6A56" d="M689.917,7.196c0.017,0.011,0.035,0.021,0.058,0.037c0.023,0.014,0.046,0.029,0.07,0.048
				s0.048,0.037,0.072,0.06c0.021,0.021,0.043,0.045,0.061,0.066c0.021,0.024,0.032,0.05,0.043,0.077
				c0.011,0.026,0.015,0.055,0.013,0.083c-0.004,0.045-0.021,0.082-0.052,0.112c-0.03,0.026-0.066,0.054-0.114,0.07
				c-0.048,0.021-0.1,0.033-0.154,0.045c-0.061,0.009-0.118,0.016-0.18,0.019c-0.06,0.002-0.116,0.002-0.174,0
				c-0.056-0.002-0.104-0.004-0.147-0.008c-0.062-0.005-0.126-0.014-0.193-0.021c-0.065-0.01-0.132-0.021-0.195-0.036
				c-0.062-0.014-0.124-0.028-0.18-0.049c-0.057-0.019-0.104-0.038-0.146-0.061c-0.041-0.023-0.073-0.047-0.099-0.073
				c-0.022-0.027-0.032-0.056-0.03-0.088c0.002-0.023,0.01-0.045,0.021-0.064c0.014-0.02,0.034-0.031,0.062-0.046
				c0.026-0.011,0.062-0.019,0.104-0.021c0.043-0.004,0.095-0.003,0.154,0.001c0.074,0.006,0.149,0.02,0.229,0.042
				c0.078,0.021,0.156,0.05,0.235,0.082c0.078,0.032,0.156,0.069,0.231,0.112c0.077,0.043,0.151,0.09,0.227,0.138
				c0.096-0.013,0.173-0.029,0.229-0.059c0.058-0.025,0.086-0.062,0.091-0.104c0.003-0.03-0.009-0.062-0.028-0.089
				c-0.021-0.029-0.047-0.059-0.077-0.082c-0.028-0.026-0.061-0.052-0.093-0.069c-0.031-0.021-0.057-0.036-0.076-0.047
				c-0.008-0.005-0.013-0.011-0.017-0.02c-0.003-0.007-0.005-0.015-0.005-0.021c0.002-0.013,0.007-0.022,0.016-0.03
				c0.012-0.006,0.021-0.01,0.031-0.009C689.903,7.191,689.909,7.194,689.917,7.196z M689.422,7.722
				c0.048,0.004,0.093,0.007,0.138,0.007c0.044,0.001,0.087,0.002,0.127,0.001c-0.058-0.035-0.119-0.071-0.187-0.104
				c-0.064-0.031-0.134-0.062-0.2-0.091c-0.067-0.025-0.136-0.05-0.203-0.066c-0.067-0.02-0.133-0.03-0.195-0.035
				c-0.088-0.007-0.15-0.005-0.188,0.006c-0.04,0.011-0.062,0.029-0.062,0.053c-0.001,0.018,0.008,0.032,0.029,0.048
				c0.021,0.019,0.049,0.031,0.085,0.048s0.08,0.03,0.129,0.048c0.05,0.014,0.104,0.025,0.162,0.038
				c0.057,0.013,0.116,0.021,0.18,0.029C689.296,7.708,689.362,7.718,689.422,7.722z"/>
			<path fill="#7A6A56" d="M690.265,7.217c-0.027-0.03-0.056-0.062-0.088-0.095c-0.03-0.029-0.062-0.062-0.092-0.092
				c-0.031-0.026-0.062-0.057-0.093-0.081c-0.031-0.023-0.062-0.045-0.088-0.06c-0.019-0.008-0.023-0.021-0.021-0.041
				c0.001-0.014,0.006-0.022,0.015-0.029s0.021-0.01,0.029-0.01c0.006,0.001,0.012,0.003,0.017,0.005
				c0.039,0.021,0.075,0.047,0.115,0.08s0.079,0.069,0.117,0.106s0.075,0.074,0.112,0.114c0.037,0.039,0.069,0.075,0.102,0.107
				c0.062,0.005,0.117,0.008,0.175,0.011c0.06,0.004,0.112,0.008,0.164,0.012c0.205,0.019,0.354,0.051,0.451,0.099
				c0.096,0.048,0.142,0.109,0.135,0.189c-0.002,0.027-0.011,0.054-0.022,0.074c-0.014,0.021-0.032,0.041-0.057,0.056
				c-0.023,0.017-0.054,0.026-0.086,0.031c-0.034,0.008-0.07,0.009-0.112,0.006c-0.046-0.003-0.096-0.014-0.148-0.029
				c-0.054-0.017-0.109-0.04-0.168-0.072c-0.062-0.032-0.121-0.072-0.184-0.121c-0.062-0.048-0.124-0.105-0.188-0.171
				c-0.062-0.006-0.127-0.011-0.189-0.019c-0.062-0.007-0.126-0.013-0.186-0.019c-0.059-0.007-0.111-0.014-0.162-0.021
				c-0.051-0.009-0.098-0.017-0.137-0.022c-0.011-0.003-0.019-0.008-0.024-0.017c-0.005-0.01-0.009-0.019-0.009-0.028
				c0.002-0.011,0.007-0.021,0.015-0.028c0.01-0.008,0.021-0.012,0.032-0.01c0.004,0.001,0.02,0.003,0.043,0.007
				c0.023,0.005,0.062,0.01,0.107,0.019c0.047,0.007,0.105,0.015,0.176,0.021C690.086,7.2,690.169,7.208,690.265,7.217z
				 M690.715,7.331c-0.038-0.003-0.076-0.005-0.114-0.008s-0.079-0.005-0.124-0.008c0.053,0.052,0.104,0.095,0.156,0.131
				c0.052,0.038,0.102,0.068,0.148,0.093c0.05,0.024,0.096,0.044,0.14,0.059c0.045,0.013,0.084,0.021,0.121,0.021
				c0.021,0.002,0.042,0.002,0.062,0c0.021,0,0.041-0.005,0.061-0.011c0.019-0.007,0.033-0.017,0.046-0.029
				c0.012-0.013,0.019-0.027,0.02-0.049c0.001-0.009,0-0.019-0.003-0.03c-0.002-0.012-0.01-0.021-0.021-0.034
				c-0.013-0.014-0.029-0.024-0.052-0.038c-0.021-0.015-0.053-0.025-0.092-0.037c-0.037-0.015-0.086-0.023-0.143-0.033
				C690.864,7.346,690.795,7.339,690.715,7.331z M689.357,7.036c0.029,0.002,0.052,0.016,0.07,0.035
				c0.019,0.021,0.024,0.046,0.022,0.075c-0.002,0.027-0.015,0.051-0.034,0.068c-0.021,0.019-0.046,0.024-0.074,0.022
				c-0.015-0.001-0.026-0.005-0.039-0.011c-0.012-0.006-0.022-0.016-0.03-0.024c-0.009-0.01-0.016-0.021-0.021-0.032
				c-0.003-0.015-0.005-0.026-0.004-0.04c0.002-0.017,0.005-0.028,0.011-0.039c0.007-0.015,0.015-0.022,0.025-0.031
				c0.01-0.009,0.021-0.015,0.032-0.021C689.329,7.036,689.343,7.034,689.357,7.036z M689.353,7.1
				c-0.012-0.001-0.021,0.002-0.028,0.01c-0.009,0.006-0.014,0.018-0.015,0.025c0,0.011,0.003,0.02,0.011,0.026
				c0.008,0.01,0.018,0.015,0.026,0.016s0.019-0.002,0.027-0.009c0.008-0.01,0.012-0.019,0.013-0.027s-0.002-0.021-0.009-0.028
				S689.364,7.101,689.353,7.1z"/>
			<path fill="#7A6A56" d="M690.138,6.773c0.022-0.014,0.041-0.032,0.056-0.056c0.018-0.024,0.024-0.055,0.026-0.089
				c0.003-0.037-0.002-0.07-0.019-0.104c-0.017-0.03-0.035-0.06-0.062-0.087c-0.026-0.026-0.059-0.051-0.089-0.072
				c-0.034-0.021-0.067-0.044-0.104-0.062c-0.008-0.004-0.014-0.013-0.02-0.02c-0.002-0.007-0.004-0.015-0.004-0.021
				c0.002-0.015,0.009-0.022,0.018-0.029c0.01-0.007,0.021-0.011,0.03-0.01c0.004,0,0.006,0.002,0.009,0.002
				c0.003,0.001,0.005,0.003,0.009,0.004c0.109,0.061,0.189,0.123,0.242,0.188s0.076,0.138,0.072,0.215
				c-0.004,0.049-0.02,0.09-0.039,0.125c-0.021,0.031-0.05,0.062-0.08,0.082c-0.033,0.021-0.067,0.033-0.107,0.044
				c-0.038,0.008-0.075,0.01-0.112,0.007c-0.039-0.003-0.072-0.01-0.104-0.022c-0.031-0.011-0.06-0.025-0.081-0.046
				c-0.021-0.02-0.04-0.042-0.05-0.065c-0.013-0.025-0.018-0.055-0.015-0.082c0-0.019,0.007-0.033,0.015-0.052
				c0.009-0.017,0.021-0.028,0.032-0.043c0.017-0.013,0.031-0.021,0.052-0.026c0.019-0.007,0.042-0.009,0.063-0.009
				c0.03,0.004,0.061,0.011,0.085,0.021c0.025,0.013,0.052,0.029,0.07,0.049c0.021,0.021,0.042,0.044,0.06,0.07
				C690.112,6.716,690.125,6.743,690.138,6.773z M690.062,6.803c-0.008-0.024-0.019-0.046-0.032-0.066
				c-0.013-0.02-0.027-0.037-0.043-0.053c-0.02-0.014-0.034-0.026-0.056-0.035c-0.02-0.009-0.038-0.015-0.059-0.016
				c-0.022-0.002-0.041,0.002-0.054,0.013c-0.013,0.01-0.021,0.022-0.021,0.038c-0.001,0.021,0.003,0.036,0.013,0.053
				c0.011,0.015,0.023,0.026,0.041,0.037c0.019,0.01,0.037,0.021,0.061,0.025c0.021,0.006,0.043,0.009,0.062,0.011
				c0.015,0,0.027,0,0.043-0.001C690.034,6.808,690.048,6.804,690.062,6.803z"/>
			<path fill="#7A6A56" d="M689.25,5.34c0.012,0.001,0.021,0.006,0.025,0.015c0.009,0.01,0.011,0.02,0.011,0.031l-0.047,0.564
				l0.014,0.001c0.045,0.005,0.094,0.012,0.145,0.021s0.103,0.022,0.151,0.04c0.05,0.016,0.099,0.033,0.146,0.051
				c0.049,0.019,0.092,0.037,0.129,0.056c0.041,0.021,0.076,0.037,0.105,0.055c0.029,0.019,0.05,0.031,0.063,0.046
				c0.033-0.006,0.067-0.018,0.1-0.027c0.03-0.01,0.057-0.021,0.08-0.039c0.021-0.015,0.042-0.031,0.057-0.05
				c0.015-0.02,0.022-0.038,0.022-0.062c0.004-0.025-0.007-0.054-0.025-0.078c-0.021-0.028-0.044-0.056-0.072-0.078
				c-0.027-0.024-0.059-0.046-0.088-0.065c-0.027-0.019-0.053-0.033-0.07-0.043c-0.018-0.008-0.023-0.021-0.022-0.041
				c0.001-0.012,0.006-0.021,0.017-0.028s0.021-0.011,0.03-0.011c0.007,0.001,0.011,0.002,0.015,0.005
				c0.004,0.002,0.018,0.01,0.034,0.021c0.02,0.01,0.039,0.021,0.062,0.039c0.022,0.015,0.049,0.032,0.073,0.054
				c0.024,0.021,0.05,0.043,0.068,0.068c0.021,0.021,0.037,0.05,0.051,0.075c0.014,0.026,0.019,0.057,0.016,0.084
				c-0.003,0.053-0.023,0.098-0.061,0.137c-0.037,0.038-0.088,0.066-0.148,0.093c-0.062,0.023-0.137,0.041-0.221,0.049
				c-0.083,0.009-0.174,0.009-0.272,0c-0.023-0.001-0.055-0.004-0.086-0.008c-0.032-0.003-0.067-0.008-0.104-0.014
				c-0.037-0.004-0.073-0.011-0.113-0.021c-0.038-0.008-0.076-0.016-0.111-0.024l-0.031,0.399c-0.002,0.015-0.006,0.022-0.014,0.029
				c-0.009,0.008-0.019,0.011-0.029,0.01c-0.012-0.001-0.021-0.005-0.027-0.015c-0.006-0.008-0.01-0.021-0.008-0.03l0.031-0.421
				c-0.024-0.009-0.05-0.021-0.07-0.032s-0.039-0.022-0.057-0.039c-0.016-0.014-0.024-0.028-0.033-0.046
				c-0.01-0.018-0.014-0.036-0.012-0.055c0.002-0.021,0.01-0.034,0.021-0.048c0.01-0.015,0.022-0.023,0.041-0.031
				c0.018-0.009,0.037-0.016,0.061-0.02c0.021-0.006,0.048-0.007,0.074-0.009l0.045-0.568c0.001-0.014,0.006-0.021,0.014-0.029
				C689.227,5.342,689.237,5.34,689.25,5.34z M689.878,6.236c-0.048-0.025-0.102-0.051-0.154-0.073
				c-0.056-0.021-0.111-0.043-0.168-0.062c-0.058-0.02-0.114-0.031-0.17-0.044c-0.055-0.011-0.106-0.021-0.152-0.022l-0.011,0.133
				c0.044,0.015,0.102,0.026,0.169,0.037c0.068,0.015,0.149,0.021,0.248,0.029c0.055,0.005,0.101,0.008,0.137,0.008
				C689.815,6.242,689.848,6.239,689.878,6.236z M689.051,6.065c0,0.008,0.005,0.018,0.02,0.031
				c0.015,0.013,0.039,0.026,0.075,0.044l0.009-0.107c-0.029,0.001-0.057,0.006-0.072,0.013
				C689.061,6.05,689.052,6.057,689.051,6.065z"/>
			<path fill="#7A6A56" d="M689.292,4.805c0.012,0.001,0.021,0.006,0.027,0.015c0.006,0.009,0.01,0.021,0.009,0.031l-0.046,0.564
				l0.013,0.001c0.046,0.006,0.094,0.013,0.146,0.021c0.051,0.011,0.103,0.022,0.151,0.04c0.05,0.015,0.101,0.032,0.146,0.05
				c0.048,0.021,0.092,0.037,0.132,0.057c0.039,0.021,0.073,0.036,0.103,0.055c0.028,0.018,0.053,0.032,0.064,0.047
				c0.035-0.008,0.065-0.019,0.098-0.027c0.031-0.012,0.061-0.022,0.082-0.039c0.023-0.016,0.041-0.031,0.057-0.05
				c0.014-0.02,0.021-0.04,0.023-0.062c0.002-0.025-0.008-0.054-0.027-0.08c-0.02-0.027-0.044-0.055-0.072-0.077
				c-0.027-0.024-0.057-0.047-0.088-0.065c-0.027-0.02-0.053-0.033-0.07-0.042c-0.017-0.009-0.024-0.021-0.022-0.042
				c0.001-0.012,0.008-0.021,0.019-0.027c0.01-0.009,0.02-0.013,0.028-0.011c0.004,0,0.011,0.001,0.015,0.004
				c0.006,0.005,0.018,0.011,0.036,0.021c0.018,0.01,0.037,0.021,0.062,0.039c0.022,0.016,0.049,0.034,0.074,0.055
				c0.024,0.021,0.05,0.043,0.069,0.066c0.021,0.022,0.037,0.051,0.05,0.078c0.013,0.025,0.018,0.056,0.016,0.085
				c-0.004,0.051-0.023,0.096-0.061,0.134c-0.039,0.038-0.088,0.07-0.149,0.094c-0.062,0.024-0.137,0.04-0.221,0.048
				c-0.083,0.008-0.175,0.01-0.272,0.002c-0.023-0.002-0.054-0.005-0.086-0.009c-0.033-0.004-0.068-0.007-0.104-0.012
				c-0.038-0.006-0.074-0.013-0.113-0.021c-0.039-0.008-0.077-0.018-0.112-0.025l-0.03,0.399c-0.002,0.014-0.007,0.022-0.015,0.029
				c-0.009,0.008-0.019,0.011-0.028,0.01c-0.013-0.001-0.021-0.006-0.028-0.015c-0.007-0.008-0.009-0.021-0.007-0.031l0.03-0.419
				c-0.024-0.011-0.05-0.021-0.069-0.032c-0.021-0.013-0.041-0.023-0.058-0.04c-0.015-0.015-0.024-0.027-0.032-0.047
				c-0.011-0.016-0.013-0.034-0.013-0.054c0.002-0.021,0.009-0.034,0.021-0.048c0.011-0.014,0.022-0.023,0.041-0.032
				c0.018-0.009,0.037-0.014,0.061-0.019c0.022-0.004,0.049-0.008,0.074-0.008l0.046-0.569c0-0.014,0.005-0.022,0.013-0.03
				C689.269,4.807,689.28,4.805,689.292,4.805z M689.921,5.701c-0.048-0.024-0.102-0.05-0.154-0.072
				c-0.057-0.021-0.112-0.044-0.17-0.062c-0.057-0.018-0.113-0.032-0.168-0.043c-0.056-0.012-0.106-0.021-0.153-0.023l-0.011,0.134
				c0.045,0.014,0.103,0.025,0.169,0.039c0.068,0.011,0.15,0.021,0.248,0.027c0.056,0.005,0.102,0.005,0.139,0.006
				C689.857,5.707,689.891,5.705,689.921,5.701z M689.093,5.531c0,0.006,0.006,0.019,0.021,0.031
				c0.015,0.014,0.039,0.027,0.075,0.044l0.007-0.107c-0.029,0.003-0.055,0.006-0.072,0.013
				C689.104,5.516,689.093,5.523,689.093,5.531z"/>
		</g>
		<g>
			
				<path fill="#7A6A56" stroke="#7A6A56" stroke-width="0.0336" stroke-linecap="round" stroke-linejoin="round" stroke-miterlimit="10" d="
				M686.609,15.496l-0.061-0.005l0.082-1.036l-0.25,0.093l0.004-0.062l0.312-0.116L686.609,15.496z"/>
			
				<path fill="#7A6A56" stroke="#7A6A56" stroke-width="0.0336" stroke-linecap="round" stroke-linejoin="round" stroke-miterlimit="10" d="
				M687.841,15.595l-0.06-0.005l0.009-0.109c0.008-0.088-0.007-0.167-0.04-0.233c-0.034-0.064-0.079-0.103-0.137-0.105
				c-0.057-0.004-0.111,0.016-0.168,0.059l-0.102,0.09l-0.021,0.268l-0.061-0.004l0.097-1.207l0.062,0.004l-0.067,0.854l0.472-0.42
				l0.082,0.007l-0.327,0.295c0.013-0.005,0.028-0.005,0.05-0.002c0.021,0.002,0.043,0.011,0.069,0.022
				c0.026,0.016,0.053,0.037,0.08,0.065c0.026,0.026,0.046,0.066,0.062,0.12c0.016,0.053,0.021,0.108,0.016,0.176L687.841,15.595z"
				/>
			
				<path fill="#7A6A56" stroke="#7A6A56" stroke-width="0.0336" stroke-linecap="round" stroke-linejoin="round" stroke-miterlimit="10" d="
				M688.064,15.611l-0.06-0.005l0.062-0.804l0.062,0.005l-0.01,0.117c0.023-0.025,0.062-0.054,0.108-0.078
				c0.049-0.026,0.096-0.039,0.137-0.035c0.043,0.003,0.08,0.019,0.109,0.045c0.028,0.026,0.043,0.067,0.039,0.121l-0.062-0.004
				c0.004-0.029-0.004-0.057-0.021-0.073c-0.021-0.018-0.044-0.029-0.077-0.031c-0.032-0.003-0.075,0.013-0.125,0.039
				c-0.05,0.027-0.09,0.062-0.116,0.099L688.064,15.611z"/>
		</g>
	</g>
	<g>
		<g>
			
				<path fill="none" stroke="#F5F5F6" stroke-width="0.4134" stroke-linecap="round" stroke-linejoin="round" stroke-miterlimit="10" d="
				M703.866,49.08c0,0-2.49-3.189-6.352-4.414"/>
		</g>
		<g>
			
				<path fill="none" stroke="#F5F5F6" stroke-width="0.4134" stroke-linecap="round" stroke-linejoin="round" stroke-miterlimit="10" d="
				M701.527,51.062c0,0-1.93-2.633-4.955-3.866"/>
		</g>
		<g>
			
				<path fill="none" stroke="#F5F5F6" stroke-width="0.4134" stroke-linecap="round" stroke-linejoin="round" stroke-miterlimit="10" d="
				M698.832,52.53c0,0-1.343-1.993-3.531-2.989"/>
		</g>
		<g>
			
				<path fill="none" stroke="#F5F5F6" stroke-width="0.4134" stroke-linecap="round" stroke-linejoin="round" stroke-miterlimit="10" d="
				M701.9,41.845c0.227,3.097-1.892,7.126-5.673,10.214"/>
		</g>
		<g>
			
				<path fill="#D9DBDB" stroke="#D9DBDB" stroke-width="0.4134" stroke-linecap="round" stroke-linejoin="round" stroke-miterlimit="10" d="
				M706.193,47.771c0,0,2.435-5.172-0.982-9.116c-5.066-1.26-8.573,3.252-8.573,3.252C702.308,43.383,706.193,47.771,706.193,47.771
				z"/>
		</g>
		<g>
			
				<path fill="#D9DBDB" stroke="#D9DBDB" stroke-width="0.4134" stroke-linecap="round" stroke-linejoin="round" stroke-miterlimit="10" d="
				M696.395,51.898c-3.906,2.93-1.495,6.124-1.495,6.124S698.512,56.298,696.395,51.898z"/>
		</g>
		<g>
			<g>
				<path fill="#B2B4B3" d="M696.364,51.861c-3.418,3.488-6.269,0.68-6.269,0.68S692.278,49.187,696.364,51.861z"/>
				<path fill="#B2B4B3" d="M696.54,51.739c0.013,0.02,0.092,0.097,0.062,0.148c-0.025,0.055-0.094,0.118-0.094,0.118
					c-1.165,1.188-2.396,1.799-3.661,1.811c-1.717,0.016-2.852-1.08-2.896-1.127c-0.07-0.069-0.082-0.179-0.029-0.261
					c0.003-0.003,0.051-0.075,0.142-0.188c0.586-0.729,2.779-2.934,6.414-0.554C696.476,51.688,696.528,51.721,696.54,51.739z
					 M696.032,51.897c-3.211-1.965-5.129-0.046-5.646,0.603c-0.004,0.007-0.008,0.011-0.011,0.016
					C690.948,52.988,693.256,54.566,696.032,51.897z"/>
			</g>
		</g>
		<g>
			<g>
				<path fill="#B2B4B3" d="M701.673,44.106c-1.424-0.877-3.129-1.703-5.038-2.2c0,0,3.431-4.414,8.406-3.291L701.673,44.106z"/>
				<path fill="#B2B4B3" d="M701.565,44.283c-1.639-1.011-3.313-1.743-4.979-2.177c-0.068-0.018-0.121-0.067-0.146-0.134
					c-0.021-0.065-0.01-0.139,0.032-0.193c0.021-0.024,0.53-0.676,1.439-1.418c1.562-1.275,4.071-2.646,7.177-1.948
					c0,0,0.178,0.048,0.196,0.048c0.021,0.004,0.06,0.044,0.06,0.044l-0.125,0.221l-3.483,5.673L701.565,44.283z M704.711,38.759
					c-2.812-0.521-5.098,0.745-6.539,1.924c-0.546,0.443-0.945,0.859-1.169,1.109c1.542,0.436,3.087,1.116,4.603,2.029
					L704.711,38.759z"/>
			</g>
		</g>
		
			<circle fill="#FFFFFF" stroke="#FFFFFF" stroke-width="0.4084" stroke-linecap="round" stroke-linejoin="round" stroke-miterlimit="10" cx="704.847" cy="42.829" r="1.006"/>
		<circle fill="#1C191C" cx="704.848" cy="42.829" r="0.531"/>
	</g>
	<g>
		<path fill="#EAEBEC" d="M734.644,44.487l-0.653,1.344l-1.146,2.356l-0.095,0.208l0.672,1.926c0.26,0.744-0.059,1.53-0.709,1.757
			l0,0c-0.648,0.229-1.388-0.189-1.646-0.935l-0.188-0.544l-0.137-0.395l-0.396,0.137l-0.546,0.186
			c-0.745,0.255-1.528-0.065-1.752-0.72l0,0c-0.223-0.652,0.2-1.388,0.945-1.645l1.931-0.657l0.104-0.201l1.146-2.358l0.654-1.344
			l0.074-0.154l0.652-1.344l1.147-2.356l0.095-0.206l-0.673-1.928c-0.259-0.743,0.062-1.529,0.709-1.757l0,0
			c0.649-0.228,1.389,0.191,1.647,0.937l0.189,0.544l0.137,0.392l0.396-0.135l0.545-0.188c0.743-0.254,1.528,0.069,1.752,0.723l0,0
			c0.224,0.65-0.2,1.388-0.945,1.642l-1.931,0.66l-0.104,0.201l-1.146,2.356l-0.654,1.343L734.644,44.487z"/>
	</g>
	<g>
		<g>
			<g>
				<path fill="#E2E482" d="M684.426,28.681c-1.031,0.264-2.464-0.256-3.598-1.405c-1.128-1.144-1.629-2.576-1.357-3.604
					l-2.383,2.351l-2.382,2.349c1.03-0.257,2.456,0.266,3.585,1.407c1.133,1.148,1.633,2.589,1.354,3.616L684.426,28.681z"/>
			</g>
		</g>
		<g>
			<g>
				<path fill="#439B35" d="M675.896,24.72"/>
			</g>
		</g>
		<g>
			<g>
				<path fill="#CDDC84" d="M681.999,31l2.391-2.355c-1.031,0.264-2.427-0.218-3.561-1.367c-1.128-1.144-1.604-2.549-1.33-3.576
					l-2.383,2.351l4.8,4.866L681.999,31z"/>
			</g>
		</g>
		<g>
			<g>
				<path fill="#422A1C" stroke="#422A1C" stroke-width="0.0825" stroke-miterlimit="10" d="M675.93,24.641
					c-0.643-0.65-0.66-1.676,0.001-2.329l0.337,0.342c-0.502,0.493-0.62,1.301-0.137,1.791L675.93,24.641z"/>
			</g>
		</g>
		<g>
			<g>
				<g>
					<g>
						<path fill="#086530" d="M675.554,24.998c-0.149-0.566-0.392-0.855-0.392-0.855c-1.254-1.604-3.512-0.052-3.512-0.052
							s1.337,2.389,3.17,1.507C674.823,25.596,675.168,25.443,675.554,24.998z"/>
					</g>
				</g>
			</g>
			<g>
				<g>
					<g>
						<path fill="#087D39" d="M671.653,24.09c0,0,1.338,2.389,3.17,1.507c0,0,0.347-0.152,0.731-0.6"/>
					</g>
				</g>
			</g>
		</g>
		<g>
			<g>
				<g>
					
						<ellipse transform="matrix(-0.7128 0.7014 -0.7014 -0.7128 1183.708 -426.9588)" fill="#422A1C" stroke="#422A1C" stroke-width="0.0825" stroke-miterlimit="10" cx="679.277" cy="28.895" rx="0.172" ry="0.393"/>
				</g>
			</g>
			<g>
				<g>
					
						<ellipse transform="matrix(-0.7142 0.7 -0.7 -0.7142 1185.6145 -427.9108)" fill="#422A1C" stroke="#422A1C" stroke-width="0.0825" stroke-miterlimit="10" cx="680.177" cy="28.121" rx="0.172" ry="0.392"/>
				</g>
			</g>
		</g>
		<g>
			<g>
				
					<path fill="#43A535" stroke="#43A535" stroke-width="0.0704" stroke-linecap="round" stroke-linejoin="round" stroke-miterlimit="10" d="
					M679.516,23.629c-0.48-0.486-1.408-0.529-1.961,0.018c-0.15,0.146-0.264,0.317-0.341,0.494l-0.168,0.351
					c-0.298,0.573-0.573,0.846-0.573,0.846l-0.003,0.006c0,0-0.274,0.271-0.853,0.561l-0.354,0.162
					c-0.18,0.073-0.353,0.186-0.501,0.334c-0.553,0.546-0.523,1.474-0.044,1.96L679.516,23.629z"/>
			</g>
		</g>
		<g>
			<g>
				
					<path fill="#43A535" stroke="#43A535" stroke-width="0.0703" stroke-linecap="round" stroke-linejoin="round" stroke-miterlimit="10" d="
					M684.457,28.649c0.479,0.486,0.81,1.718,0.257,2.263c0,0-0.266,0.254-0.807,0.541c-0.467,0.245-0.801,0.582-0.816,0.599
					l-0.023,0.024c-0.018,0.018-0.356,0.347-0.608,0.809c-0.294,0.538-0.553,0.799-0.553,0.799
					c-0.554,0.547-1.779,0.199-2.259-0.287L684.457,28.649z"/>
			</g>
		</g>
	</g>
</g>
</svg>
