<?xml version="1.0" encoding="utf-8"?>
<!-- Generator: Adobe Illustrator 15.0.2, SVG Export Plug-In . SVG Version: 6.00 Build 0)  -->
<!DOCTYPE svg PUBLIC "-//W3C//DTD SVG 1.1//EN" "http://www.w3.org/Graphics/SVG/1.1/DTD/svg11.dtd">
<svg version="1.1" id="Lager_1" xmlns="http://www.w3.org/2000/svg" xmlns:xlink="http://www.w3.org/1999/xlink" x="0px" y="0px"
	 width="189.371px" height="156.471px" viewBox="9.762 15.728 189.371 156.471"
	 enable-background="new 9.762 15.728 189.371 156.471" xml:space="preserve">
<g>
	<g>
		<g>
			<circle fill="#FFFFFF" stroke="#1C191D" stroke-width="6.5392" stroke-miterlimit="10" cx="39.916" cy="158.746" r="10.183"/>
		</g>
		<g>
			<path fill="#FFFFFF" stroke="#1C191D" stroke-width="6.5392" stroke-miterlimit="10" d="M158.801,158.747
				c0,5.623,4.562,10.181,10.184,10.181c5.627,0,10.186-4.558,10.186-10.181c0-5.62-4.559-10.186-10.186-10.186
				C163.363,148.563,158.801,153.127,158.801,158.747z"/>
		</g>
	</g>
	<g>
		<path fill="#004891" d="M199.133,15.728l-8.293,118.323c0,4.579-3.713,8.292-8.295,8.292H26.352c-4.58,0-8.293-3.713-8.293-8.292
			L9.764,15.728H199.133z"/>
	</g>
	<g>
		<path fill="#003B6D" d="M104.45,142.344h-78.1c-4.58,0-8.293-3.713-8.293-8.292L9.762,15.729h94.429L104.45,142.344z"/>
	</g>
</g>
<g>
	<rect x="79.302" y="46.256" fill="#011F41" width="50.215" height="67.132"/>
	<g>
		<rect x="113.802" y="78.179" fill="#C5C7C7" width="13.596" height="0.629"/>
		<rect x="113.802" y="79.961" fill="#C5C7C7" width="13.596" height="0.63"/>
		<rect x="113.802" y="81.743" fill="#C5C7C7" width="13.596" height="0.629"/>
	</g>
	<g>
		<rect x="113.802" y="84.56" fill="#C5C7C7" width="13.596" height="0.629"/>
		<rect x="113.802" y="86.342" fill="#C5C7C7" width="13.596" height="0.629"/>
		<rect x="113.802" y="88.123" fill="#C5C7C7" width="13.596" height="0.634"/>
	</g>
	<g>
		<rect x="97.703" y="104.109" fill="#C5C7C7" width="13.594" height="0.625"/>
		<rect x="97.703" y="105.89" fill="#C5C7C7" width="13.594" height="0.629"/>
		<rect x="97.703" y="107.669" fill="#C5C7C7" width="13.594" height="0.633"/>
	</g>
	<g>
		<rect x="113.873" y="104.109" fill="#C5C7C7" width="13.594" height="0.625"/>
		<rect x="113.873" y="105.89" fill="#C5C7C7" width="13.594" height="0.629"/>
		<rect x="113.873" y="107.669" fill="#C5C7C7" width="13.594" height="0.633"/>
	</g>
	<rect x="81.541" y="65.366" fill="#C5C7C7" width="29.752" height="23.391"/>
	<rect x="97.707" y="92.857" fill="#C5C7C7" width="13.586" height="9.271"/>
	<rect x="113.877" y="92.857" fill="#C5C7C7" width="13.585" height="9.271"/>
	
		<rect x="79.304" y="46.257" transform="matrix(0.963 -0.2696 0.2696 0.963 -17.6541 31.105)" fill="#011F41" width="50.211" height="67.129"/>
	<g>
		
			<rect x="112.847" y="73.863" transform="matrix(0.9629 -0.2697 0.2697 0.9629 -15.5723 35.0153)" fill="#004891" width="13.592" height="0.632"/>
		
			<rect x="113.326" y="75.58" transform="matrix(0.963 -0.2696 0.2696 0.963 -16.0145 35.2002)" fill="#004891" width="13.596" height="0.628"/>
		
			<rect x="113.807" y="77.296" transform="matrix(0.963 -0.2694 0.2694 0.963 -16.4491 35.3584)" fill="#004891" width="13.592" height="0.631"/>
	</g>
	<g>
		
			<rect x="114.566" y="80.009" transform="matrix(0.963 -0.2697 0.2697 0.963 -17.1638 35.7014)" fill="#004891" width="13.593" height="0.628"/>
		
			<rect x="115.044" y="81.726" transform="matrix(0.963 -0.2696 0.2696 0.963 -17.606 35.8859)" fill="#004891" width="13.598" height="0.627"/>
		
			<rect x="115.529" y="83.44" transform="matrix(0.963 -0.2694 0.2694 0.963 -18.0391 36.0445)" fill="#004891" width="13.592" height="0.632"/>
	</g>
	<g>
		
			<rect x="88.764" y="107.53" transform="matrix(0.9631 -0.2693 0.2693 0.9631 -25.5104 29.715)" fill="#004891" width="13.593" height="0.633"/>
		<polygon fill="#004891" points="102.501,107.425 89.409,111.091 89.579,111.695 102.67,108.034 		"/>
		
			<rect x="89.724" y="110.963" transform="matrix(0.963 -0.2697 0.2697 0.963 -26.4326 30.1515)" fill="#004891" width="13.594" height="0.63"/>
	</g>
	<g>
		<polygon fill="#004891" points="117.591,101.348 104.5,105.019 104.671,105.622 117.764,101.957 		"/>
		
			<rect x="104.812" y="104.887" transform="matrix(0.9629 -0.2698 0.2698 0.9629 -24.2413 34.0072)" fill="#004891" width="13.594" height="0.631"/>
		
			<rect x="105.294" y="106.604" transform="matrix(0.963 -0.2696 0.2696 0.963 -24.6769 34.1835)" fill="#004891" width="13.596" height="0.627"/>
	</g>
	<g>
		
			<rect x="119.906" y="98.812" transform="matrix(0.963 -0.2694 0.2694 0.963 -22.0178 37.7916)" fill="#004891" width="13.592" height="0.632"/>
		
			<rect x="120.383" y="100.526" transform="matrix(0.963 -0.2696 0.2696 0.963 -22.4795 38.0271)" fill="#004891" width="13.596" height="0.628"/>
		<polygon fill="#004891" points="134.123,100.418 121.031,104.089 121.199,104.693 134.292,101.028 		"/>
	</g>
	
		<rect x="81.093" y="67.626" transform="matrix(0.963 -0.2696 0.2696 0.963 -17.8315 28.8115)" opacity="0.76" fill="#004891" width="29.752" height="23.386"/>
	
		<rect x="86.9" y="96.537" transform="matrix(0.963 -0.2696 0.2696 0.963 -23.8074 29.0063)" opacity="0.76" fill="#004891" width="13.583" height="9.27"/>
	
		<rect x="102.47" y="92.178" transform="matrix(0.963 -0.2695 0.2695 0.963 -22.051 33.0338)" opacity="0.76" fill="#004891" width="13.583" height="9.269"/>
	
		<rect x="118.041" y="87.816" transform="matrix(0.9629 -0.2699 0.2699 0.9629 -20.3204 37.125)" opacity="0.76" fill="#004891" width="13.582" height="9.269"/>
</g>
</svg>
