<?xml version="1.0" encoding="utf-8"?>
<!-- Generator: Adobe Illustrator 15.0.2, SVG Export Plug-In . SVG Version: 6.00 Build 0)  -->
<!DOCTYPE svg PUBLIC "-//W3C//DTD SVG 1.1//EN" "http://www.w3.org/Graphics/SVG/1.1/DTD/svg11.dtd">
<svg version="1.1" id="Lager_1" xmlns="http://www.w3.org/2000/svg" xmlns:xlink="http://www.w3.org/1999/xlink" x="0px" y="0px"
	 width="120.821px" height="68.427px" viewBox="0 0 120.821 68.427" enable-background="new 0 0 120.821 68.427"
	 xml:space="preserve">
<g>
	<path fill="#635848" stroke="#635848" stroke-width="2.019" stroke-miterlimit="10" d="M1.016,51.882
		c-0.217,6.562,4.927,12.057,11.491,12.271c3.115,0.106,5.986-1.001,8.172-2.893c2.094,2.582,5.254,4.276,8.837,4.396
		c2.565,0.083,4.965-0.655,6.951-1.97c2.077,2.202,4.989,3.616,8.254,3.723c4.142,0.14,7.854-1.862,10.09-5.004
		c1.647,0.964,3.554,1.544,5.596,1.608c3.239,0.108,6.218-1.093,8.431-3.124c2.037,1.938,4.77,3.175,7.807,3.271
		c2.562,0.084,4.961-0.648,6.947-1.966c2.078,2.2,4.991,3.615,8.254,3.724c4.143,0.138,7.854-1.863,10.088-5.009
		c1.649,0.964,3.557,1.544,5.599,1.613c6.562,0.215,12.058-4.931,12.272-11.49c0.221-6.562-4.924-12.058-11.486-12.274
		c-0.345-0.014-0.687-0.006-1.021,0.014c0.063-0.373,0.104-0.751,0.116-1.139c0.156-4.621-3.467-8.487-8.088-8.642
		c-0.438-0.018-0.863,0.004-1.286,0.056c0.312-0.652,0.494-1.373,0.521-2.142c0.101-2.993-2.246-5.5-5.238-5.597
		c-1.273-0.044-2.454,0.361-3.403,1.061c0-0.018,0.004-0.035,0.004-0.055c0.101-2.93-2.146-5.391-5.049-5.587
		c-0.677-3.75-3.893-6.649-7.854-6.782c-1.451-0.046-2.83,0.283-4.035,0.903c-0.807-3.582-3.946-6.313-7.787-6.441
		c-0.659-0.021-1.303,0.039-1.92,0.163c-1.672-2.411-4.572-3.854-7.692-3.514c-4.315,0.473-7.486,4.188-7.356,8.456
		c-0.884-0.365-1.85-0.581-2.861-0.614c-4.56-0.147-8.375,3.425-8.525,7.98c-0.016,0.459,0.009,0.907,0.066,1.351
		c-1.89,0.164-3.511,1.298-4.344,2.919c-1.943,0.196-3.597,1.416-4.381,3.134c-0.139-0.015-0.275-0.029-0.421-0.034
		c-2.731-0.092-5.056,1.861-5.512,4.481c-2.352,0.533-4.144,2.586-4.228,5.106c-0.023,0.772,0.118,1.513,0.387,2.188
		c-2.375,0.595-4.356,2.203-5.438,4.355C6.551,40.347,1.229,45.427,1.016,51.882z"/>
</g>
</svg>
