<?xml version="1.0" encoding="utf-8"?>
<!-- Generator: Adobe Illustrator 15.0.2, SVG Export Plug-In . SVG Version: 6.00 Build 0)  -->
<!DOCTYPE svg PUBLIC "-//W3C//DTD SVG 1.1//EN" "http://www.w3.org/Graphics/SVG/1.1/DTD/svg11.dtd">
<svg version="1.1" id="Lager_1" xmlns="http://www.w3.org/2000/svg" xmlns:xlink="http://www.w3.org/1999/xlink" x="0px" y="0px"
	 width="99.428px" height="178.024px" viewBox="0 0 99.428 178.024" enable-background="new 0 0 99.428 178.024"
	 xml:space="preserve">
<g>
	<g>
		<g>
			<circle fill="#FFFFFF" stroke="#1C191D" stroke-width="9.063" stroke-miterlimit="10" cx="69.141" cy="159.382" r="14.111"/>
		</g>
		<g>
			
				<polygon fill="#7E4F27" stroke="#7E4F27" stroke-width="1.9565" stroke-linecap="round" stroke-linejoin="round" stroke-miterlimit="10" points="
				98.449,13.514 0.979,13.472 0.985,0.978 98.447,7.538 			"/>
		</g>
		<path fill="#7E4F27" d="M12.359,176.305h39.592c-4.863-4.386-7.936-10.713-7.936-17.774c0-13.228,10.723-23.947,23.951-23.947
			c6.639,0,12.65,2.704,16.988,7.071L97.5,21.203l0.756-1.368c-0.205-0.147-0.451-0.233-0.713-0.233H1.813
			c-0.333,0-0.653,0.14-0.878,0.382c-0.229,0.245-0.346,0.574-0.324,0.906l10.301,154.485c0.021,0.322,0.172,0.612,0.402,0.82"/>
	</g>
	<g>
		<circle fill="#FFFFFF" stroke="#1C191D" stroke-width="9.063" stroke-miterlimit="10" cx="69.141" cy="159.382" r="14.111"/>
	</g>
	<g>
		
			<polygon fill="#7E4F27" stroke="#7E4F27" stroke-width="1.9565" stroke-linecap="round" stroke-linejoin="round" stroke-miterlimit="10" points="
			98.449,13.514 0.979,13.472 0.985,0.978 98.447,7.538 		"/>
	</g>
	<path fill="#6F4623" d="M44.016,158.53c0-7.062,3.074-13.39,7.936-17.771V19.599H1.813c-0.333,0-0.653,0.14-0.878,0.382
		c-0.229,0.245-0.346,0.574-0.324,0.906l10.301,154.484c0.021,0.323,0.172,0.613,0.402,0.821H51.84
		C47.043,171.813,44.016,165.534,44.016,158.53z"/>
	<g>
		<g>
			<polygon fill="#6F4623" points="51.951,13.514 0.979,13.472 0.985,0.978 51.951,4.407 			"/>
			<path fill="#6F4623" d="M51.951,14.49L51.951,14.49L0.979,14.45C0.439,14.45,0,14.012,0,13.471L0.008,0.977
				c0-0.27,0.109-0.53,0.312-0.715c0.2-0.188,0.485-0.277,0.731-0.26l50.967,3.429L51.951,14.49z M1.957,12.493l49.018,0.04V5.322
				L1.963,2.025L1.957,12.493z"/>
		</g>
	</g>
	<g opacity="0.8">
		<path fill="#4D2F18" d="M64.035,102.584h0.32c-3.424-1.997-5.861-6.923-5.861-12.93c0-5.981,2.418-10.947,5.82-12.962h-0.223
			c0.074-0.051,0.148-0.097,0.223-0.14h0.23c0-2.545-2.344-5.089-5.24-5.089c-0.783,0-1.531,0.148-2.197,0.425l-1.361,0.492
			c-2.289,0.742-3.729,0.742-3.729,0.742H52c0,0-1.439,0-3.727-0.742l-1.361-0.492c-0.67-0.274-1.416-0.425-2.199-0.425
			c-2.896,0-5.242,2.544-5.242,5.089h-0.072c3.402,2.013,5.822,7.118,5.822,13.102c0,6.008-2.441,11.129-5.865,13.127
			c0,2.544,2.342,6.669,5.236,6.669c0,0,1.365-0.017,3.553-0.676c1.879-0.564,3.645-0.551,3.727-0.551h0.135
			c0.08,0,1.844-0.017,3.723,0.551c2.182,0.659,3.555,0.676,3.555,0.676c2.891,0,5.232-4.125,5.232-6.669h-0.16
			C64.248,102.721,64.143,102.652,64.035,102.584z"/>
		<path fill="#4D2F18" d="M58.484,65.473v-1.785c-3.459,0-6.094,2.768-6.094,6.171h1.045C53.436,67.299,55.869,65.473,58.484,65.473
			z"/>
		<path fill="#4D2F18" d="M46.965,69.499c0,0,1.309,0.503,3.498,0.327c1.09-1.899,1.203-3.302,1.203-3.302
			c0.865-7.521-9.172-9.31-9.172-9.31S39.797,67.04,46.965,69.499z"/>
	</g>
</g>
</svg>
