<?xml version="1.0" encoding="utf-8"?>
<!-- Generator: Adobe Illustrator 15.0.2, SVG Export Plug-In . SVG Version: 6.00 Build 0)  -->
<!DOCTYPE svg PUBLIC "-//W3C//DTD SVG 1.1//EN" "http://www.w3.org/Graphics/SVG/1.1/DTD/svg11.dtd">
<svg version="1.1" id="Lager_1" xmlns="http://www.w3.org/2000/svg" xmlns:xlink="http://www.w3.org/1999/xlink" x="0px" y="0px"
	 width="97.648px" height="158.426px" viewBox="0.608 19.599 97.648 158.426" enable-background="new 0.608 19.599 97.648 158.426"
	 xml:space="preserve">
<g>
	<g>
		<g>
			<circle fill="#FFFFFF" stroke="#1C191D" stroke-width="9.063" stroke-miterlimit="10" cx="69.141" cy="159.382" r="14.111"/>
		</g>
		<path fill="#7E4F27" d="M12.359,176.305h39.593c-4.863-4.386-7.937-10.713-7.937-17.774c0-13.228,10.723-23.946,23.951-23.946
			c6.639,0,12.65,2.704,16.988,7.07L97.5,21.203l0.756-1.368c-0.205-0.147-0.451-0.233-0.713-0.233H1.813
			c-0.333,0-0.652,0.141-0.878,0.382c-0.229,0.245-0.346,0.574-0.324,0.906l10.302,154.485c0.021,0.321,0.172,0.611,0.401,0.819"/>
	</g>
	<g>
		<circle fill="#FFFFFF" stroke="#1C191D" stroke-width="9.063" stroke-miterlimit="10" cx="69.141" cy="159.382" r="14.111"/>
	</g>
	<path fill="#6F4623" d="M44.016,158.53c0-7.062,3.074-13.39,7.937-17.771V19.599H1.813c-0.333,0-0.652,0.14-0.878,0.382
		c-0.229,0.245-0.346,0.574-0.324,0.906l10.302,154.484c0.021,0.322,0.172,0.612,0.401,0.82H51.84
		C47.043,171.813,44.016,165.534,44.016,158.53z"/>
	<g opacity="0.8">
		<path fill="#4D2F18" d="M64.035,102.584h0.319c-3.424-1.997-5.86-6.923-5.86-12.931c0-5.98,2.418-10.946,5.819-12.962h-0.223
			c0.074-0.051,0.147-0.097,0.223-0.14h0.23c0-2.545-2.344-5.089-5.24-5.089c-0.783,0-1.531,0.147-2.197,0.425l-1.36,0.492
			c-2.289,0.742-3.729,0.742-3.729,0.742H52c0,0-1.439,0-3.728-0.742l-1.36-0.492c-0.67-0.274-1.416-0.425-2.199-0.425
			c-2.896,0-5.242,2.544-5.242,5.089h-0.072c3.402,2.013,5.822,7.118,5.822,13.102c0,6.009-2.441,11.13-5.865,13.127
			c0,2.545,2.342,6.67,5.236,6.67c0,0,1.365-0.018,3.553-0.677c1.879-0.563,3.646-0.551,3.728-0.551h0.135
			c0.08,0,1.844-0.017,3.723,0.551c2.183,0.659,3.556,0.677,3.556,0.677c2.891,0,5.231-4.125,5.231-6.67h-0.16
			C64.248,102.721,64.143,102.652,64.035,102.584z"/>
		<path fill="#4D2F18" d="M58.484,65.473v-1.785c-3.459,0-6.094,2.769-6.094,6.171h1.045C53.436,67.299,55.869,65.473,58.484,65.473
			z"/>
		<path fill="#4D2F18" d="M46.965,69.499c0,0,1.309,0.503,3.498,0.327c1.09-1.899,1.203-3.303,1.203-3.303
			c0.864-7.521-9.172-9.31-9.172-9.31S39.797,67.04,46.965,69.499z"/>
	</g>
</g>
</svg>
