<?xml version="1.0" encoding="utf-8"?>
<!-- Generator: Adobe Illustrator 15.0.2, SVG Export Plug-In . SVG Version: 6.00 Build 0)  -->
<!DOCTYPE svg PUBLIC "-//W3C//DTD SVG 1.1//EN" "http://www.w3.org/Graphics/SVG/1.1/DTD/svg11.dtd">
<svg version="1.1" id="Lager_1" xmlns="http://www.w3.org/2000/svg" xmlns:xlink="http://www.w3.org/1999/xlink" x="0px" y="0px"
	 width="259.178px" height="162.115px" viewBox="0 42.781 259.178 162.115" enable-background="new 0 42.781 259.178 162.115"
	 xml:space="preserve">
<g>
	<path fill="#38AA62" stroke="#38AA62" stroke-width="2.0734" stroke-linecap="round" stroke-miterlimit="10" d="M244.666,190.138
		v-89.579c0-21.512-6.553-40.908-17.771-56.741h-80.006c-0.7,8.73-8.008,15.358-16.489,15.358c-8.482,0-15.811-6.828-16.311-15.358
		H32.288C21.07,59.652,14.516,79.047,14.516,100.559v89.579H1.037v13.722h257.104v-13.722H244.666z"/>
	<path fill="#409C5E" stroke="#409C5E" stroke-width="2.0734" stroke-linecap="round" stroke-miterlimit="10" d="M114.09,43.818
		h-81.8c-11.218,15.833-17.771,35.229-17.771,56.741v89.578H1.041v13.721h128.551l0.577-144.693
		C121.795,59.039,114.09,52.222,114.09,43.818z"/>
	<g opacity="0.5">
		<path fill="#135D36" d="M129.766,150.501h6.336c1.162,0,2.11-0.94,2.11-2.104v-28.835c0-0.6,0-0.964,0-1.316
			c0-3.527-0.485-5.521-3.589-8l-0.243-0.234c-0.805-0.803-1.011-1.435-1.011-2.308v-7.323h0.408c0.276,0,0.498-0.22,0.498-0.494
			v-2.221c0-0.271-0.222-0.491-0.498-0.491h-3.658h0.1h-3.658c-0.276,0-0.498,0.223-0.498,0.491v2.221
			c0,0.274,0.222,0.494,0.498,0.494h0.409v7.323c0,0.873-0.209,1.505-1.013,2.308l-0.245,0.234c-3.104,2.479-3.589,4.473-3.589,8
			c0,0.354,0,0.72,0,1.316v28.835c0,1.16,0.951,2.104,2.112,2.104h6.335"/>
	</g>
</g>
</svg>
