<?xml version="1.0" encoding="utf-8"?>
<!-- Generator: Adobe Illustrator 15.0.2, SVG Export Plug-In . SVG Version: 6.00 Build 0)  -->
<!DOCTYPE svg PUBLIC "-//W3C//DTD SVG 1.1//EN" "http://www.w3.org/Graphics/SVG/1.1/DTD/svg11.dtd">
<svg version="1.1" id="Lager_1" xmlns="http://www.w3.org/2000/svg" xmlns:xlink="http://www.w3.org/1999/xlink" x="0px" y="0px"
	 width="422.227px" height="239.115px" viewBox="0 0 422.227 239.115" enable-background="new 0 0 422.227 239.115"
	 xml:space="preserve">
<path fill="#635848" stroke="#635848" stroke-width="7.0557" stroke-miterlimit="10" d="M376.906,141.125
	c-3.787-7.521-10.718-13.146-19.011-15.226c0.944-2.359,1.438-4.946,1.35-7.654c-0.292-8.804-6.553-15.98-14.76-17.834
	c-1.598-9.16-9.716-15.985-19.271-15.67c-0.495,0.016-0.979,0.066-1.464,0.122c-2.747-6-8.524-10.269-15.314-10.949
	c-2.916-5.659-8.58-9.631-15.172-10.207c0.2-1.539,0.282-3.11,0.23-4.711c-0.527-15.933-13.868-28.417-29.802-27.894
	c-3.542,0.118-6.907,0.871-10.007,2.146c0.458-14.908-10.619-27.896-25.694-29.546c-10.905-1.195-21.057,3.852-26.892,12.275
	c-2.164-0.438-4.41-0.645-6.712-0.564c-13.423,0.442-24.396,9.984-27.207,22.508c-4.221-2.165-9.032-3.323-14.108-3.154
	c-13.846,0.458-25.083,10.597-27.443,23.702c-10.138,0.688-17.98,9.286-17.646,19.521c0.002,0.065,0.015,0.132,0.019,0.198
	c-3.314-2.459-7.443-3.866-11.895-3.722C85.651,74.811,77.454,83.57,77.8,94.028c0.086,2.68,0.732,5.202,1.812,7.479
	c-1.47-0.177-2.97-0.243-4.494-0.191c-16.146,0.534-28.8,14.055-28.265,30.198c0.043,1.354,0.188,2.678,0.406,3.979
	c-1.177-0.062-2.359-0.082-3.562-0.045c-22.933,0.76-40.906,19.966-40.146,42.898c0.759,22.934,19.965,40.907,42.896,40.149
	c7.14-0.233,13.797-2.262,19.56-5.628c7.807,10.979,20.789,17.968,35.262,17.487c11.402-0.376,21.582-5.317,28.84-13.01
	c6.943,4.602,15.328,7.172,24.287,6.878c10.607-0.354,20.148-4.655,27.271-11.444c7.732,7.102,18.146,11.301,29.467,10.928
	c7.141-0.239,13.795-2.264,19.56-5.631c7.806,10.979,20.786,17.969,35.261,17.488c11.401-0.378,21.582-5.318,28.841-13.011
	c6.942,4.603,15.327,7.172,24.287,6.875c12.522-0.413,23.562-6.34,30.889-15.358c7.634,6.604,17.675,10.476,28.56,10.112
	c22.937-0.761,40.91-19.967,40.15-42.896C417.928,158.729,399.334,140.981,376.906,141.125z"/>
<g>
	
		<rect x="303.334" y="168.449" transform="matrix(-0.9496 0.3135 -0.3135 -0.9496 663.4707 254.4471)" fill="#EAEBEC" stroke="#EAEBEC" stroke-width="0.4418" stroke-linecap="round" stroke-linejoin="round" stroke-miterlimit="10" width="15.887" height="24.235"/>
	<polygon fill="#C7C7C9" stroke="#C7C7C9" stroke-width="0.4434" stroke-miterlimit="10" points="315.077,192.035 307.477,194.548 
		299.884,171.532 307.485,169.026 	"/>
	
		<line fill="none" stroke="#C7C7C9" stroke-width="0.4368" stroke-linejoin="round" stroke-miterlimit="10" x1="306.679" y1="174.757" x2="316.87" y2="171.392"/>
	
		<line fill="none" stroke="#C7C7C9" stroke-width="0.4418" stroke-linejoin="round" stroke-miterlimit="10" x1="307.528" y1="178.119" x2="317.952" y2="174.679"/>
	
		<line fill="none" stroke="#C7C7C9" stroke-width="0.4418" stroke-linejoin="round" stroke-miterlimit="10" x1="308.605" y1="181.411" x2="319.049" y2="177.967"/>
	
		<line fill="none" stroke="#C7C7C9" stroke-width="0.4418" stroke-linejoin="round" stroke-miterlimit="10" x1="309.691" y1="184.703" x2="320.134" y2="181.254"/>
	
		<line fill="none" stroke="#C7C7C9" stroke-width="0.4418" stroke-linejoin="round" stroke-miterlimit="10" x1="310.785" y1="187.99" x2="321.216" y2="184.547"/>
	
		<line fill="none" stroke="#EAEBEC" stroke-width="0.3595" stroke-linejoin="round" stroke-miterlimit="10" x1="301.294" y1="176.528" x2="309.387" y2="173.861"/>
	
		<line fill="none" stroke="#EAEBEC" stroke-width="0.3595" stroke-linejoin="round" stroke-miterlimit="10" x1="302.379" y1="179.821" x2="310.307" y2="177.205"/>
	
		<line fill="none" stroke="#EAEBEC" stroke-width="0.3595" stroke-linejoin="round" stroke-miterlimit="10" x1="303.465" y1="183.111" x2="311.394" y2="180.495"/>
	
		<line fill="none" stroke="#EAEBEC" stroke-width="0.3595" stroke-linejoin="round" stroke-miterlimit="10" x1="304.55" y1="186.394" x2="312.479" y2="183.78"/>
	
		<line fill="none" stroke="#EAEBEC" stroke-width="0.3596" stroke-linejoin="round" stroke-miterlimit="10" x1="305.622" y1="189.691" x2="313.564" y2="187.073"/>
	<path fill="#C7C7C9" stroke="#C7C7C9" stroke-width="0.357" stroke-miterlimit="10" d="M311.908,156.328
		c-1.394-4.232-5.958-6.528-10.187-5.132c-4.229,1.393-6.525,5.957-5.131,10.186c1.396,4.228,5.958,6.53,10.186,5.134
		C311.008,165.115,313.305,160.556,311.908,156.328z"/>
	<path fill="#C7C7C9" stroke="#EAEBEC" stroke-width="0.4418" stroke-miterlimit="10" d="M309.635,157.076
		c-0.981-2.972-4.187-4.591-7.158-3.607c-2.974,0.983-4.592,4.189-3.611,7.16c0.984,2.975,4.19,4.59,7.164,3.608
		C309.005,163.256,310.615,160.049,309.635,157.076z"/>
	
		<path fill="#EAEBEC" stroke="#EAEBEC" stroke-width="0.1482" stroke-linecap="round" stroke-linejoin="round" stroke-miterlimit="10" d="
		M314.852,164.982c0.045,0.139-0.028,0.284-0.163,0.331l-15.205,5.016c-0.136,0.046-0.285-0.027-0.33-0.167l0,0
		c-0.044-0.134,0.029-0.287,0.167-0.329l15.201-5.019C314.657,164.77,314.808,164.845,314.852,164.982L314.852,164.982z"/>
	
		<path fill="#C7C7C9" stroke="#C7C7C9" stroke-width="0.1482" stroke-linecap="round" stroke-linejoin="round" stroke-miterlimit="10" d="
		M307.366,167.728l-7.883,2.602c-0.136,0.047-0.284-0.027-0.33-0.166l0,0c-0.044-0.134,0.029-0.287,0.167-0.33l7.881-2.602
		L307.366,167.728z"/>
	
		<path fill="#EAEBEC" stroke="#EAEBEC" stroke-width="0.1482" stroke-linecap="round" stroke-linejoin="round" stroke-miterlimit="10" d="
		M323.385,190.831c0.041,0.138-0.032,0.284-0.166,0.329l-15.207,5.014c-0.135,0.048-0.284-0.024-0.328-0.161l0,0
		c-0.047-0.137,0.029-0.287,0.165-0.331l15.198-5.017C323.188,190.619,323.337,190.694,323.385,190.831L323.385,190.831z"/>
	
		<path fill="#C7C7C9" stroke="#C7C7C9" stroke-width="0.1482" stroke-linecap="round" stroke-linejoin="round" stroke-miterlimit="10" d="
		M315.895,193.577l-7.883,2.599c-0.135,0.047-0.286-0.024-0.328-0.162l0,0c-0.047-0.135,0.029-0.287,0.165-0.33l7.88-2.601
		L315.895,193.577z"/>
</g>
<g>
	<g>
		
			<path fill="none" stroke="#F5F5F6" stroke-width="0.7215" stroke-linecap="round" stroke-linejoin="round" stroke-miterlimit="10" d="
			M281.853,158.183c0,0-4.599-5.89-11.718-8.143"/>
	</g>
	<g>
		
			<path fill="none" stroke="#F5F5F6" stroke-width="0.7215" stroke-linecap="round" stroke-linejoin="round" stroke-miterlimit="10" d="
			M277.536,161.839c0,0-3.56-4.859-9.141-7.133"/>
	</g>
	<g>
		
			<path fill="none" stroke="#F5F5F6" stroke-width="0.7215" stroke-linecap="round" stroke-linejoin="round" stroke-miterlimit="10" d="
			M272.564,164.549c0,0-2.48-3.677-6.514-5.515"/>
	</g>
	<g>
		
			<path fill="none" stroke="#F5F5F6" stroke-width="0.7215" stroke-linecap="round" stroke-linejoin="round" stroke-miterlimit="10" d="
			M278.222,144.832c0.419,5.71-3.486,13.147-10.466,18.845"/>
	</g>
	<g>
		
			<path fill="#D9DBDB" stroke="#D9DBDB" stroke-width="0.7215" stroke-linecap="round" stroke-linejoin="round" stroke-miterlimit="10" d="
			M286.142,155.763c0,0,4.495-9.538-1.814-16.819c-9.35-2.323-15.818,6-15.818,6C278.979,147.666,286.142,155.763,286.142,155.763z"
			/>
	</g>
	<g>
		
			<path fill="#D9DBDB" stroke="#D9DBDB" stroke-width="0.7215" stroke-linecap="round" stroke-linejoin="round" stroke-miterlimit="10" d="
			M268.069,163.381c-7.207,5.404-2.76,11.298-2.76,11.298S271.971,171.496,268.069,163.381z"/>
	</g>
	<g>
		<g>
			<path fill="#B2B4B3" d="M268.007,163.313c-6.302,6.439-11.563,1.257-11.563,1.257S260.474,158.378,268.007,163.313z"/>
			<path fill="#B2B4B3" d="M268.334,163.089c0.022,0.032,0.17,0.173,0.119,0.272c-0.054,0.106-0.176,0.219-0.176,0.219
				c-2.146,2.197-4.418,3.324-6.751,3.345c-3.171,0.027-5.265-1.997-5.351-2.084c-0.128-0.13-0.149-0.328-0.055-0.479
				c0.007-0.009,0.094-0.141,0.259-0.348c1.08-1.349,5.132-5.41,11.834-1.021C268.215,162.994,268.312,163.054,268.334,163.089z
				 M267.398,163.381c-5.923-3.628-9.463-0.084-10.422,1.11c-0.007,0.009-0.013,0.017-0.021,0.022
				C258.016,165.394,262.276,168.304,267.398,163.381z"/>
		</g>
	</g>
	<g>
		<g>
			<path fill="#B2B4B3" d="M277.808,149.005c-2.626-1.618-5.775-3.143-9.297-4.062c0,0,6.329-8.144,15.511-6.071L277.808,149.005z"
				/>
			<path fill="#B2B4B3" d="M277.608,149.332c-3.025-1.865-6.12-3.216-9.192-4.015c-0.125-0.034-0.225-0.125-0.267-0.25
				c-0.04-0.119-0.02-0.252,0.062-0.355c0.038-0.05,0.977-1.246,2.654-2.618c2.884-2.354,7.515-4.883,13.242-3.593
				c0,0,0.328,0.085,0.364,0.09c0.035,0.004,0.111,0.076,0.111,0.076l-0.234,0.406l-6.428,10.468L277.608,149.332z M283.413,139.136
				c-5.188-0.955-9.404,1.379-12.068,3.549c-1.005,0.82-1.739,1.59-2.154,2.049c2.844,0.805,5.697,2.061,8.49,3.75L283.413,139.136z
				"/>
		</g>
	</g>
	
		<circle fill="#FFFFFF" stroke="#FFFFFF" stroke-width="0.7129" stroke-linecap="round" stroke-linejoin="round" stroke-miterlimit="10" cx="283.664" cy="146.649" r="1.856"/>
	<path fill="#1C191C" d="M282.906,147.268c-0.343-0.419-0.281-1.036,0.141-1.38c0.419-0.339,1.035-0.284,1.381,0.141
		c0.338,0.418,0.277,1.034-0.143,1.378C283.865,147.751,283.246,147.685,282.906,147.268z"/>
</g>
<g>
	<path fill="#EAEBEC" d="M242.369,152.604l1.975,1.926l3.46,3.375l0.311,0.284l3.765-0.06c1.449-0.025,2.645,0.99,2.664,2.26l0,0
		c0.021,1.274-1.138,2.321-2.592,2.347l-1.063,0.021l-0.771,0.01l0.009,0.77l0.015,1.06c0.012,1.453-1.008,2.643-2.28,2.658l0,0
		c-1.271,0.011-2.313-1.16-2.328-2.611l-0.033-3.765l-0.292-0.299l-3.465-3.379l-1.976-1.921l-0.227-0.22l-1.976-1.924l-3.46-3.379
		l-0.306-0.284l-3.766,0.061c-1.455,0.024-2.648-0.99-2.666-2.264l0,0c-0.022-1.269,1.141-2.32,2.594-2.344l1.062-0.018l0.768-0.013
		l-0.006-0.771l-0.015-1.062c-0.009-1.445,1.012-2.638,2.279-2.649l0,0c1.272-0.013,2.313,1.154,2.329,2.604l0.033,3.768
		l0.293,0.302l3.463,3.372l1.973,1.927L242.369,152.604z"/>
</g>
<g>
	<g>
		<g>
			<path fill="#E2E482" d="M219.298,172.052c-3.147,0.806-7.511-0.776-10.962-4.285c-3.443-3.485-4.97-7.854-4.144-10.985
				l-7.258,7.164l-7.264,7.159c3.141-0.784,7.487,0.805,10.93,4.29c3.452,3.503,4.976,7.894,4.126,11.027L219.298,172.052z"/>
		</g>
	</g>
	<g>
		<g>
			<path fill="#439B35" d="M193.296,159.973"/>
		</g>
	</g>
	<g>
		<g>
			<path fill="#CDDC84" d="M211.898,179.118l7.287-7.185c-3.146,0.809-7.397-0.66-10.849-4.166c-3.443-3.485-4.888-7.77-4.06-10.899
				l-7.263,7.16l14.634,14.839L211.898,179.118z"/>
		</g>
	</g>
	<g>
		<g>
			<path fill="#422A1C" stroke="#422A1C" stroke-width="0.238" stroke-miterlimit="10" d="M193.401,159.736
				c-1.956-1.984-2.013-5.106,0.005-7.096l1.024,1.038c-1.525,1.507-1.892,3.964-0.418,5.455L193.401,159.736z"/>
		</g>
	</g>
	<g>
		<g>
			<g>
				<g>
					<path fill="#086530" d="M192.252,160.828c-0.456-1.738-1.19-2.615-1.19-2.615c-3.823-4.882-10.7-0.156-10.7-0.156
						s4.079,7.279,9.665,4.592C190.027,162.647,191.078,162.182,192.252,160.828z"/>
				</g>
			</g>
		</g>
		<g>
			<g>
				<g>
					<path fill="#087D39" d="M180.362,158.056c0,0,4.078,7.279,9.665,4.592c0,0,1.051-0.462,2.225-1.82"/>
				</g>
			</g>
		</g>
	</g>
	<g>
		<g>
			<g>
				<path fill="#422A1C" stroke="#422A1C" stroke-width="0.238" stroke-miterlimit="10" d="M203.488,172.474
					c0.46,0.47,0.674,1.015,0.463,1.217c-0.208,0.202-0.75-0.012-1.212-0.479c-0.464-0.476-0.675-1.018-0.464-1.219
					C202.48,171.789,203.024,172.008,203.488,172.474z"/>
			</g>
		</g>
		<g>
			<g>
				<path fill="#422A1C" stroke="#422A1C" stroke-width="0.238" stroke-miterlimit="10" d="M206.262,169.737
					c0.464,0.468,0.673,1.014,0.467,1.218c-0.207,0.202-0.753-0.017-1.215-0.484c-0.462-0.467-0.67-1.015-0.465-1.218
					C205.257,169.052,205.801,169.265,206.262,169.737z"/>
			</g>
		</g>
	</g>
	<g>
		<g>
			
				<path fill="#43A535" stroke="#43A535" stroke-width="0.2031" stroke-linecap="round" stroke-linejoin="round" stroke-miterlimit="10" d="
				M204.33,156.654c-1.46-1.49-4.292-1.617-5.978,0.049c-0.458,0.449-0.802,0.965-1.036,1.505l-0.51,1.07
				c-0.905,1.75-1.746,2.577-1.746,2.577l-0.01,0.014c0,0-0.84,0.831-2.601,1.71l-1.076,0.497c-0.55,0.229-1.07,0.562-1.525,1.02
				c-1.688,1.662-1.595,4.491-0.132,5.97L204.33,156.654z"/>
		</g>
	</g>
	<g>
		<g>
			
				<path fill="#43A535" stroke="#43A535" stroke-width="0.2028" stroke-linecap="round" stroke-linejoin="round" stroke-miterlimit="10" d="
				M219.392,171.961c1.462,1.48,2.468,5.233,0.778,6.894c0,0-0.807,0.777-2.459,1.65c-1.418,0.749-2.439,1.775-2.487,1.822
				l-0.075,0.077c-0.048,0.048-1.085,1.055-1.856,2.459c-0.896,1.64-1.685,2.438-1.685,2.438c-1.686,1.664-5.424,0.605-6.886-0.876
				L219.392,171.961z"/>
		</g>
	</g>
</g>
<g>
	<g>
		
			<path fill="none" stroke="#F5F5F6" stroke-width="0.7215" stroke-linecap="round" stroke-linejoin="round" stroke-miterlimit="10" d="
			M160.517,103.064c0,0,4.6-5.89,11.719-8.144"/>
	</g>
	<g>
		
			<path fill="none" stroke="#F5F5F6" stroke-width="0.7215" stroke-linecap="round" stroke-linejoin="round" stroke-miterlimit="10" d="
			M164.832,106.719c0,0,3.562-4.86,9.142-7.135"/>
	</g>
	<g>
		
			<path fill="none" stroke="#F5F5F6" stroke-width="0.7215" stroke-linecap="round" stroke-linejoin="round" stroke-miterlimit="10" d="
			M169.805,109.427c0,0,2.481-3.682,6.514-5.516"/>
	</g>
	<g>
		
			<path fill="none" stroke="#F5F5F6" stroke-width="0.7215" stroke-linecap="round" stroke-linejoin="round" stroke-miterlimit="10" d="
			M164.146,89.708c-0.418,5.711,3.486,13.149,10.467,18.847"/>
	</g>
	<g>
		
			<path fill="#D9DBDB" stroke="#D9DBDB" stroke-width="0.7215" stroke-linecap="round" stroke-linejoin="round" stroke-miterlimit="10" d="
			M156.226,100.642c0,0-4.492-9.539,1.813-16.818c9.351-2.324,15.822,6.001,15.822,6.001
			C163.391,92.547,156.226,100.642,156.226,100.642z"/>
	</g>
	<g>
		
			<path fill="#D9DBDB" stroke="#D9DBDB" stroke-width="0.7215" stroke-linecap="round" stroke-linejoin="round" stroke-miterlimit="10" d="
			M174.302,108.259c7.206,5.404,2.756,11.299,2.756,11.299S170.397,116.376,174.302,108.259z"/>
	</g>
	<g>
		<g>
			<path fill="#B2B4B3" d="M174.363,108.193c6.302,6.437,11.562,1.256,11.562,1.256S181.899,103.257,174.363,108.193z"/>
			<path fill="#B2B4B3" d="M174.156,107.874c6.703-4.391,10.751-0.329,11.834,1.021c0.166,0.208,0.252,0.341,0.257,0.347
				c0.099,0.153,0.074,0.352-0.053,0.479c-0.088,0.086-2.18,2.108-5.351,2.085c-2.332-0.024-4.604-1.15-6.752-3.347
				c0,0-0.122-0.112-0.177-0.216c-0.051-0.099,0.1-0.241,0.122-0.273C174.056,107.934,174.156,107.874,174.156,107.874z
				 M185.413,109.393c-0.008-0.009-0.015-0.016-0.02-0.022c-0.959-1.196-4.5-4.738-10.424-1.112
				C180.096,113.18,184.352,110.271,185.413,109.393z"/>
		</g>
	</g>
	<g>
		<g>
			<path fill="#B2B4B3" d="M164.563,93.884c2.626-1.621,5.775-3.14,9.297-4.061c0,0-6.331-8.146-15.513-6.072L164.563,93.884z"/>
			<path fill="#B2B4B3" d="M164.448,94.417l-6.425-10.465l-0.236-0.407c0,0,0.075-0.071,0.111-0.075
				c0.036-0.007,0.36-0.087,0.36-0.087c5.729-1.296,10.365,1.239,13.245,3.592c1.679,1.367,2.617,2.567,2.655,2.62
				c0.078,0.101,0.1,0.232,0.062,0.354c-0.044,0.121-0.143,0.214-0.269,0.245c-3.071,0.801-6.167,2.148-9.19,4.017L164.448,94.417z
				 M164.687,93.359c2.796-1.685,5.651-2.945,8.492-3.747c-0.414-0.458-1.147-1.226-2.156-2.047
				c-2.662-2.176-6.878-4.513-12.065-3.552L164.687,93.359z"/>
		</g>
	</g>
	
		<path fill="#FFFFFF" stroke="#FFFFFF" stroke-width="0.7129" stroke-linecap="round" stroke-linejoin="round" stroke-miterlimit="10" d="
		M160.143,92.7c0.649-0.794,0.529-1.961-0.262-2.613c-0.795-0.646-1.966-0.528-2.615,0.263c-0.646,0.795-0.531,1.964,0.267,2.614
		C158.325,93.61,159.493,93.495,160.143,92.7z"/>
	<circle fill="#1C191C" cx="158.705" cy="91.526" r="0.98"/>
</g>
<g>
	<path fill="#EAEBEC" d="M365.788,173.968l-1.975,1.927l-3.46,3.373l-0.31,0.286l-3.766-0.062c-1.451-0.022-2.645,0.99-2.665,2.261
		l0,0c-0.022,1.275,1.142,2.319,2.594,2.347l1.062,0.017l0.769,0.014l-0.006,0.77l-0.013,1.059
		c-0.015,1.455,1.005,2.644,2.278,2.659l0,0c1.269,0.012,2.312-1.162,2.325-2.612l0.037-3.765l0.29-0.299l3.465-3.377l1.974-1.921
		l0.229-0.221l1.974-1.926l3.459-3.377l0.307-0.286l3.766,0.062c1.454,0.023,2.646-0.988,2.667-2.262l0,0
		c0.021-1.271-1.143-2.319-2.598-2.344l-1.06-0.017l-0.766-0.015l0.008-0.771l0.009-1.063c0.012-1.447-1.009-2.638-2.277-2.65l0,0
		c-1.271-0.012-2.312,1.156-2.329,2.608l-0.034,3.768l-0.29,0.299l-3.465,3.371l-1.975,1.927L365.788,173.968z"/>
</g>
<g>
	
		<rect x="203.548" y="45.598" transform="matrix(-0.9526 -0.3041 0.3041 -0.9526 395.4109 177.0153)" fill="#EAEBEC" stroke="#EAEBEC" stroke-width="0.4418" stroke-linecap="round" stroke-linejoin="round" stroke-miterlimit="10" width="15.885" height="24.234"/>
	
		<rect x="203.548" y="44.21" transform="matrix(-0.9527 -0.3038 0.3038 -0.9527 388.1756 173.0556)" fill="#C7C7C9" stroke="#C7C7C9" stroke-width="0.4434" stroke-miterlimit="10" width="8.006" height="24.237"/>
	
		<line fill="none" stroke="#C7C7C9" stroke-width="0.4368" stroke-linejoin="round" stroke-miterlimit="10" x1="211.007" y1="50.185" x2="221.231" y2="53.449"/>
	
		<line fill="none" stroke="#C7C7C9" stroke-width="0.4418" stroke-linejoin="round" stroke-miterlimit="10" x1="209.718" y1="53.407" x2="220.179" y2="56.746"/>
	
		<line fill="none" stroke="#C7C7C9" stroke-width="0.4418" stroke-linejoin="round" stroke-miterlimit="10" x1="208.658" y1="56.702" x2="219.135" y2="60.05"/>
	
		<line fill="none" stroke="#C7C7C9" stroke-width="0.4418" stroke-linejoin="round" stroke-miterlimit="10" x1="207.603" y1="60.004" x2="218.079" y2="63.346"/>
	
		<line fill="none" stroke="#C7C7C9" stroke-width="0.4418" stroke-linejoin="round" stroke-miterlimit="10" x1="206.558" y1="63.307" x2="217.025" y2="66.647"/>
	
		<line fill="none" stroke="#EAEBEC" stroke-width="0.3595" stroke-linejoin="round" stroke-miterlimit="10" x1="205.609" y1="48.456" x2="213.727" y2="51.049"/>
	
		<line fill="none" stroke="#EAEBEC" stroke-width="0.3595" stroke-linejoin="round" stroke-miterlimit="10" x1="204.553" y1="51.756" x2="212.506" y2="54.295"/>
	
		<line fill="none" stroke="#EAEBEC" stroke-width="0.3595" stroke-linejoin="round" stroke-miterlimit="10" x1="203.502" y1="55.057" x2="211.452" y2="57.597"/>
	
		<line fill="none" stroke="#EAEBEC" stroke-width="0.3595" stroke-linejoin="round" stroke-miterlimit="10" x1="202.448" y1="58.352" x2="210.403" y2="60.896"/>
	
		<line fill="none" stroke="#EAEBEC" stroke-width="0.3596" stroke-linejoin="round" stroke-miterlimit="10" x1="201.381" y1="61.653" x2="209.346" y2="64.196"/>
	<circle fill="#C7C7C9" stroke="#C7C7C9" stroke-width="0.357" stroke-miterlimit="10" cx="218.386" cy="35.888" r="8.063"/>
	<path fill="#C7C7C9" stroke="#EAEBEC" stroke-width="0.4418" stroke-miterlimit="10" d="M223.784,37.612
		c0.954-2.981-0.691-6.174-3.676-7.124c-2.984-0.948-6.174,0.695-7.128,3.677c-0.95,2.982,0.695,6.175,3.677,7.126
		C219.648,42.242,222.831,40.595,223.784,37.612z"/>
	
		<path fill="#EAEBEC" stroke="#EAEBEC" stroke-width="0.1482" stroke-linecap="round" stroke-linejoin="round" stroke-miterlimit="10" d="
		M223.363,47.076c-0.043,0.137-0.192,0.212-0.326,0.17l-15.252-4.87c-0.139-0.044-0.217-0.19-0.169-0.329l0,0
		c0.044-0.136,0.191-0.211,0.326-0.168l15.252,4.868C223.331,46.791,223.408,46.939,223.363,47.076L223.363,47.076z"/>
	
		<path fill="#C7C7C9" stroke="#C7C7C9" stroke-width="0.1482" stroke-linecap="round" stroke-linejoin="round" stroke-miterlimit="10" d="
		M215.692,44.902l-7.906-2.526c-0.138-0.045-0.215-0.192-0.169-0.33l0,0c0.044-0.137,0.192-0.211,0.328-0.169l7.906,2.524
		L215.692,44.902z"/>
	
		<path fill="#EAEBEC" stroke="#EAEBEC" stroke-width="0.1482" stroke-linecap="round" stroke-linejoin="round" stroke-miterlimit="10" d="
		M215.087,73.007c-0.047,0.136-0.192,0.209-0.331,0.168l-15.253-4.87c-0.135-0.044-0.213-0.189-0.165-0.329l0,0
		c0.038-0.135,0.194-0.21,0.33-0.165l15.247,4.866C215.052,72.721,215.128,72.87,215.087,73.007L215.087,73.007z"/>
	
		<path fill="#C7C7C9" stroke="#C7C7C9" stroke-width="0.1482" stroke-linecap="round" stroke-linejoin="round" stroke-miterlimit="10" d="
		M207.412,70.831l-7.908-2.528c-0.134-0.042-0.212-0.189-0.164-0.327l0,0c0.039-0.138,0.193-0.211,0.329-0.166l7.905,2.523
		L207.412,70.831z"/>
</g>
<g>
	
		<path fill="#8FADAF" stroke="#8FADAF" stroke-width="0.2232" stroke-linecap="round" stroke-linejoin="round" stroke-miterlimit="10" d="
		M252.077,108.181l3.858,2.188c0.895,0.505,2.028,0.192,2.534-0.702l12.552-22.16c0.264-0.463,0.421-0.742,0.571-1.011
		c1.538-2.709,2.036-4.453,0.732-7.708l-0.085-0.289c-0.269-0.963-0.154-1.539,0.229-2.211l3.746-6.61l0.314,0.177
		c0.21,0.117,0.475,0.043,0.595-0.164l0,0c0.117-0.212,0.044-0.479-0.163-0.595l-2.08-1.176l-2.072-1.177
		c-0.209-0.118-0.475-0.048-0.597,0.165l0,0c-0.116,0.21-0.045,0.475,0.166,0.596l0.312,0.175l-3.744,6.61
		c-0.381,0.676-0.815,1.071-1.777,1.337l-0.29,0.075c-3.46,0.552-4.703,1.876-6.237,4.588c-0.153,0.27-0.315,0.551-0.576,1.016
		l-12.552,22.157c-0.507,0.893-0.192,2.03,0.702,2.533L252.077,108.181"/>
	
		<path fill="#6E989F" stroke="#6E989F" stroke-width="0.2232" stroke-linecap="round" stroke-linejoin="round" stroke-miterlimit="10" d="
		M252.077,108.181l3.858,2.188c0.895,0.505,2.028,0.192,2.534-0.702l12.552-22.16c0.264-0.463,0.421-0.742,0.571-1.011
		c1.538-2.709,2.036-4.453,0.732-7.708l-0.085-0.289c-0.269-0.963-0.154-1.539,0.229-2.211l3.746-6.61l0.314,0.177
		c0.21,0.117,0.475,0.043,0.595-0.164l0,0c0.117-0.212,0.044-0.479-0.163-0.595l-2.08-1.176L252.077,108.181z"/>
	
		<rect x="258.776" y="84.232" transform="matrix(-0.8701 -0.4929 0.4929 -0.8701 449.9083 293.8148)" fill="#FFFFFF" stroke="#FFFFFF" stroke-width="0.2232" stroke-linecap="round" stroke-linejoin="round" stroke-miterlimit="10" width="9.797" height="6.767"/>
	
		<rect x="263.494" y="85.354" transform="matrix(0.8701 0.4929 -0.4929 0.8701 78.2864 -119.5529)" fill="#EAEBEB" stroke="#EAEBEB" stroke-width="0.2232" stroke-linecap="round" stroke-linejoin="round" stroke-miterlimit="10" width="4.896" height="6.767"/>
</g>
<g>
	<path fill="#EAEBEC" d="M56.279,173.527l1.974,1.927l3.462,3.377l0.309,0.284l3.767-0.061c1.449-0.024,2.642,0.989,2.665,2.26l0,0
		c0.021,1.275-1.142,2.321-2.594,2.347l-1.062,0.021l-0.771,0.01l0.009,0.77l0.013,1.062c0.013,1.453-1.006,2.642-2.28,2.655l0,0
		c-1.269,0.012-2.313-1.157-2.326-2.61l-0.035-3.767l-0.291-0.3l-3.464-3.373l-1.975-1.925l-0.228-0.219l-1.976-1.927l-3.46-3.374
		l-0.307-0.287l-3.765,0.064c-1.454,0.021-2.646-0.992-2.667-2.268l0,0c-0.021-1.271,1.143-2.318,2.596-2.346l1.061-0.014
		l0.769-0.018l-0.009-0.768l-0.012-1.063c-0.01-1.448,1.009-2.639,2.28-2.652l0,0c1.271-0.016,2.313,1.158,2.328,2.61l0.034,3.765
		l0.29,0.298l3.464,3.374l1.975,1.925L56.279,173.527z"/>
</g>
<g>
	
		<path fill="#8FADAF" stroke="#8FADAF" stroke-width="0.2232" stroke-linecap="round" stroke-linejoin="round" stroke-miterlimit="10" d="
		M106.762,182.635l3.067,3.206c0.71,0.744,1.886,0.77,2.63,0.057l18.393-17.609c0.387-0.368,0.62-0.592,0.841-0.808
		c2.247-2.15,3.229-3.678,2.917-7.168l0.003-0.305c0.022-0.996,0.295-1.518,0.856-2.048l5.489-5.253l0.248,0.254
		c0.167,0.178,0.442,0.183,0.617,0.021l0,0c0.175-0.171,0.181-0.447,0.017-0.62l-1.651-1.727l-1.65-1.721
		c-0.171-0.176-0.442-0.185-0.619-0.015l0,0c-0.173,0.165-0.182,0.442-0.013,0.618l0.247,0.257l-5.488,5.254
		c-0.561,0.537-1.086,0.794-2.085,0.771l-0.299-0.012c-3.477-0.465-5.044,0.444-7.294,2.598c-0.227,0.214-0.459,0.436-0.842,0.811
		l-18.397,17.607c-0.739,0.712-0.765,1.888-0.055,2.628L106.762,182.635"/>
	
		<path fill="#6E989F" stroke="#6E989F" stroke-width="0.2232" stroke-linecap="round" stroke-linejoin="round" stroke-miterlimit="10" d="
		M106.762,182.635l3.067,3.206c0.71,0.744,1.886,0.77,2.63,0.057l18.393-17.609c0.387-0.368,0.62-0.592,0.841-0.808
		c2.247-2.15,3.229-3.678,2.917-7.168l0.003-0.305c0.022-0.996,0.295-1.518,0.856-2.048l5.489-5.253l0.248,0.254
		c0.167,0.178,0.442,0.183,0.617,0.021l0,0c0.175-0.171,0.181-0.447,0.017-0.62l-1.651-1.727L106.762,182.635z"/>
	
		<polygon fill="#FFFFFF" stroke="#FFFFFF" stroke-width="0.2232" stroke-linecap="round" stroke-linejoin="round" stroke-miterlimit="10" points="
		124.859,172.097 118.081,165.021 122.969,160.34 129.745,167.421 	"/>
	
		<rect x="123.157" y="164.607" transform="matrix(0.6923 0.7217 -0.7217 0.6923 159.8858 -38.9462)" fill="#EAEBEB" stroke="#EAEBEB" stroke-width="0.2232" stroke-linecap="round" stroke-linejoin="round" stroke-miterlimit="10" width="4.899" height="6.765"/>
</g>
<path opacity="0.8" fill="#E75425" enable-background="new    " d="M247,63.129c0.1,2.97-2.23,5.457-5.197,5.556
	c-2.971,0.101-5.459-2.229-5.557-5.197c-0.098-2.97,2.23-5.453,5.199-5.557C244.414,57.832,246.899,60.161,247,63.129z"/>
<path opacity="0.8" fill="#C79C63" enable-background="new    " d="M87.034,122.313c0.056,1.569-1.178,2.885-2.75,2.938
	c-1.569,0.051-2.885-1.183-2.938-2.751c-0.057-1.573,1.179-2.89,2.748-2.941C85.672,119.508,86.987,120.74,87.034,122.313z"/>
<path opacity="0.8" fill="#C79C63" enable-background="new    " d="M130.55,132.407c0.087,2.554-1.914,4.688-4.468,4.776
	c-2.554,0.081-4.692-1.918-4.778-4.472c-0.083-2.556,1.918-4.693,4.474-4.777C128.329,127.851,130.467,129.854,130.55,132.407z"/>
<path opacity="0.8" fill="#E75425" enable-background="new    " d="M86.556,135.485c0.1,2.971-2.229,5.458-5.196,5.558
	c-2.972,0.098-5.459-2.229-5.558-5.199c-0.098-2.971,2.23-5.454,5.2-5.556C83.969,130.188,86.456,132.516,86.556,135.485z"/>
<path opacity="0.8" fill="#E75425" enable-background="new    " d="M336.272,144.664c-0.067,2.146,1.611,3.942,3.758,4.014
	c2.146,0.07,3.943-1.608,4.014-3.757c0.068-2.144-1.611-3.939-3.757-4.012C338.141,140.84,336.345,142.523,336.272,144.664z"/>
<circle opacity="0.8" fill="#E75425" enable-background="new    " cx="219.135" cy="111.804" r="3.887"/>
<path opacity="0.8" fill="#C79C63" enable-background="new    " d="M167.613,54.144c-0.086,2.553,1.913,4.688,4.466,4.773
	c2.557,0.084,4.693-1.919,4.78-4.474c0.082-2.554-1.919-4.688-4.474-4.771C169.832,49.585,167.694,51.592,167.613,54.144z"/>
<circle opacity="0.8" fill="#E75425" enable-background="new    " cx="106.762" cy="100.642" r="3.888"/>
<path opacity="0.8" fill="#C79C63" enable-background="new    " d="M304.138,115.6c0.056,1.569-1.178,2.885-2.75,2.938
	c-1.567,0.05-2.888-1.183-2.938-2.751c-0.056-1.574,1.179-2.892,2.75-2.942C302.774,112.795,304.091,114.027,304.138,115.6z"/>
<path opacity="0.8" fill="#C79C63" enable-background="new    " d="M165.14,177.967c0.086,2.555-1.914,4.689-4.468,4.776
	c-2.555,0.083-4.691-1.918-4.779-4.472c-0.083-2.556,1.919-4.693,4.474-4.777C162.92,173.41,165.058,175.412,165.14,177.967z"/>
<path opacity="0.8" fill="#C79C63" enable-background="new    " d="M210.321,125.159c0.056,1.572-1.175,2.89-2.75,2.938
	c-1.568,0.054-2.885-1.18-2.938-2.751c-0.054-1.57,1.181-2.89,2.752-2.938C208.957,122.355,210.273,123.588,210.321,125.159z"/>
<path opacity="0.8" fill="#C79C63" enable-background="new    " d="M346.89,166.125c0.055,1.572-1.177,2.89-2.752,2.94
	c-1.566,0.051-2.885-1.182-2.938-2.752c-0.055-1.573,1.178-2.889,2.75-2.94C345.525,163.321,346.841,164.555,346.89,166.125z"/>
<circle opacity="0.8" fill="#E75425" enable-background="new    " cx="247.272" cy="196.19" r="3.887"/>
<path opacity="0.8" fill="#C79C63" enable-background="new    " d="M260.115,52.932c0.055,1.573-1.177,2.888-2.75,2.938
	c-1.568,0.053-2.885-1.181-2.938-2.753c-0.056-1.568,1.18-2.887,2.751-2.938C258.752,50.13,260.067,51.36,260.115,52.932z"/>
<path opacity="0.8" fill="#E75425" enable-background="new    " d="M301.561,100.463c0.099,2.971-2.229,5.457-5.195,5.558
	c-2.973,0.098-5.46-2.229-5.56-5.199c-0.096-2.971,2.23-5.455,5.201-5.557C298.976,95.166,301.461,97.491,301.561,100.463z"/>
<circle opacity="0.8" fill="#E75425" enable-background="new    " cx="324.744" cy="134.948" r="1.348"/>
<circle opacity="0.8" fill="#C79C63" enable-background="new    " cx="338.811" cy="130.284" r="1.347"/>
<g>
	<path opacity="0.8" fill="#C79C63" enable-background="new    " d="M275.842,199.755c-0.056,1.573,1.178,2.89,2.75,2.942
		c1.568,0.05,2.885-1.185,2.938-2.757c0.057-1.569-1.179-2.886-2.749-2.938C277.204,196.952,275.891,198.184,275.842,199.755z"/>
	<circle opacity="0.8" fill="#C79C63" enable-background="new    " cx="276.322" cy="187.923" r="1.348"/>
</g>
<circle opacity="0.8" fill="#E75425" enable-background="new    " cx="129.742" cy="104.53" r="1.971"/>
<circle opacity="0.8" fill="#C79C63" enable-background="new    " cx="84.19" cy="164.802" r="1.971"/>
</svg>
