<?xml version="1.0" encoding="utf-8"?>
<!-- Generator: Adobe Illustrator 15.0.2, SVG Export Plug-In . SVG Version: 6.00 Build 0)  -->
<!DOCTYPE svg PUBLIC "-//W3C//DTD SVG 1.1//EN" "http://www.w3.org/Graphics/SVG/1.1/DTD/svg11.dtd">
<svg version="1.1" id="Lager_1" xmlns="http://www.w3.org/2000/svg" xmlns:xlink="http://www.w3.org/1999/xlink" x="0px" y="0px"
	 width="422.227px" height="239.115px" viewBox="0 0 422.227 239.115" enable-background="new 0 0 422.227 239.115"
	 xml:space="preserve">
<path fill="#635848" stroke="#635848" stroke-width="7.0557" stroke-miterlimit="10" d="M376.906,141.125
	c-3.788-7.521-10.718-13.146-19.011-15.226c0.944-2.359,1.438-4.946,1.349-7.654c-0.292-8.804-6.552-15.981-14.759-17.834
	c-1.598-9.16-9.716-15.985-19.271-15.67c-0.495,0.016-0.979,0.066-1.464,0.122c-2.747-6-8.524-10.269-15.314-10.949
	c-2.916-5.659-8.58-9.631-15.172-10.207c0.2-1.539,0.282-3.111,0.23-4.711c-0.527-15.933-13.868-28.417-29.801-27.894
	c-3.542,0.118-6.908,0.871-10.007,2.146c0.458-14.908-10.619-27.896-25.695-29.546c-10.905-1.195-21.056,3.851-26.891,12.275
	c-2.164-0.438-4.41-0.644-6.712-0.564c-13.423,0.442-24.396,9.984-27.207,22.508c-4.221-2.165-9.032-3.324-14.109-3.155
	c-13.845,0.458-25.083,10.597-27.443,23.702c-10.138,0.688-17.98,9.287-17.645,19.521c0.002,0.065,0.014,0.132,0.018,0.198
	c-3.314-2.459-7.443-3.866-11.894-3.721C85.651,74.811,77.454,83.57,77.8,94.028c0.086,2.68,0.732,5.202,1.812,7.479
	c-1.47-0.177-2.97-0.244-4.495-0.192c-16.145,0.534-28.799,14.055-28.264,30.198c0.043,1.354,0.188,2.678,0.406,3.979
	c-1.177-0.062-2.359-0.082-3.562-0.045c-22.933,0.76-40.907,19.966-40.147,42.898c0.759,22.934,19.965,40.908,42.896,40.15
	c7.139-0.234,13.796-2.262,19.559-5.628c7.807,10.979,20.789,17.968,35.262,17.487c11.402-0.376,21.582-5.317,28.84-13.01
	c6.943,4.602,15.328,7.172,24.287,6.878c10.607-0.354,20.148-4.655,27.271-11.444c7.733,7.102,18.146,11.301,29.467,10.928
	c7.141-0.239,13.795-2.264,19.56-5.631c7.805,10.979,20.786,17.969,35.26,17.488c11.402-0.378,21.582-5.318,28.841-13.011
	c6.943,4.603,15.327,7.172,24.287,6.875c12.523-0.413,23.562-6.339,30.889-15.358c7.634,6.604,17.675,10.476,28.56,10.112
	c22.936-0.76,40.91-19.966,40.15-42.896C417.928,158.729,399.334,140.981,376.906,141.125z"/>
</svg>
