<?xml version="1.0" encoding="utf-8"?>
<!-- Generator: Adobe Illustrator 15.0.2, SVG Export Plug-In . SVG Version: 6.00 Build 0)  -->
<!DOCTYPE svg PUBLIC "-//W3C//DTD SVG 1.1//EN" "http://www.w3.org/Graphics/SVG/1.1/DTD/svg11.dtd">
<svg version="1.1" id="Lager_1" xmlns="http://www.w3.org/2000/svg" xmlns:xlink="http://www.w3.org/1999/xlink" x="0px" y="0px"
	 width="192.203px" height="191.887px" viewBox="0 0 192.203 191.887" enable-background="new 0 0 192.203 191.887"
	 xml:space="preserve">
<g>
	<g>
		<circle fill="#FFE093" cx="56.851" cy="56.851" r="56.851"/>
		<circle fill="#E94E1B" cx="56.851" cy="56.851" r="50.633"/>
		<path fill="#DD3914" d="M56.851,107.483c-27.963,0-50.632-22.669-50.632-50.632c0-27.964,22.669-50.633,50.632-50.633V107.483z"/>
		<g>
			<g>
				
					<path fill="#FFD600" stroke="#FFD600" stroke-width="0.2392" stroke-linecap="round" stroke-linejoin="round" stroke-miterlimit="10" d="
					M14.232,61.628l16.662,16.669l11.327-11.32L25.56,50.307L14.232,61.628z M19.505,60.572c0.358-0.358,0.939-0.358,1.298,0
					c0.358,0.359,0.358,0.939,0,1.299c-0.359,0.358-0.939,0.357-1.298,0C19.147,61.512,19.147,60.931,19.505,60.572z M32.666,72.715
					c-0.838,0.839-2.198,0.838-3.036,0c-0.837-0.838-0.837-2.197,0.001-3.036c0.838-0.838,2.198-0.837,3.036,0.001
					C33.505,70.519,33.504,71.878,32.666,72.715z M27.343,66.384c-0.562,0.561-1.47,0.561-2.03,0c-0.561-0.562-0.561-1.47,0-2.03
					c0.56-0.561,1.469-0.561,2.03,0.001C27.904,64.915,27.904,65.824,27.343,66.384z M34.572,66.036
					c-0.358,0.358-0.939,0.358-1.297,0.001c-0.358-0.359-0.359-0.94,0-1.299c0.358-0.357,0.939-0.357,1.298,0.001
					C34.931,65.099,34.932,65.679,34.572,66.036z M28.329,59.79c-0.752,0.752-1.97,0.751-2.721,0
					c-0.752-0.753-0.751-1.97,0.001-2.722c0.751-0.751,1.97-0.75,2.72,0C29.08,57.82,29.08,59.038,28.329,59.79z"/>
				<g>
					
						<path fill="#FDC100" stroke="#FDC100" stroke-width="0.2392" stroke-linecap="round" stroke-linejoin="round" stroke-miterlimit="10" d="
						M26.304,63.934l0.578,0.111C26.698,63.968,26.501,63.932,26.304,63.934z"/>
					
						<path fill="#FDC100" stroke="#FDC100" stroke-width="0.2392" stroke-linecap="round" stroke-linejoin="round" stroke-miterlimit="10" d="
						M34.825,65.562c-0.034,0.174-0.117,0.34-0.252,0.474c-0.358,0.358-0.939,0.358-1.297,0.001
						c-0.223-0.223-0.307-0.531-0.252-0.818l-6.14-1.174c0.168,0.07,0.325,0.173,0.461,0.31c0.56,0.561,0.56,1.47,0,2.029
						c-0.562,0.561-1.47,0.561-2.03,0c-0.561-0.562-0.561-1.47,0-2.03c0.274-0.274,0.631-0.413,0.99-0.42l-12.072-2.306
						l16.662,16.669l11.327-11.32L34.825,65.562z M32.666,72.715c-0.838,0.839-2.198,0.838-3.036,0
						c-0.837-0.838-0.837-2.197,0.001-3.036c0.838-0.838,2.198-0.837,3.036,0.001C33.505,70.519,33.504,71.878,32.666,72.715z"/>
				</g>
			</g>
			<g>
				
					<path fill="#FFD600" stroke="#FFD600" stroke-width="0.2392" stroke-linecap="round" stroke-linejoin="round" stroke-miterlimit="10" d="
					M36.252,83.647l16.662,16.67l11.327-11.321L47.58,72.326L36.252,83.647z M41.525,82.593c0.358-0.358,0.939-0.358,1.298,0
					c0.358,0.358,0.358,0.939,0,1.298s-0.939,0.358-1.297,0C41.167,83.532,41.167,82.951,41.525,82.593z M54.685,94.735
					c-0.838,0.839-2.198,0.838-3.036-0.001c-0.837-0.838-0.837-2.197,0.001-3.036c0.838-0.837,2.198-0.837,3.035,0.001
					C55.525,92.538,55.524,93.897,54.685,94.735z M49.364,88.404c-0.562,0.56-1.47,0.56-2.03-0.001c-0.561-0.561-0.56-1.469,0-2.03
					c0.56-0.56,1.469-0.56,2.03,0.001C49.924,86.936,49.924,87.844,49.364,88.404z M56.593,88.057
					c-0.358,0.358-0.94,0.358-1.297,0.001c-0.359-0.359-0.359-0.94-0.001-1.299c0.359-0.358,0.94-0.357,1.299,0.001
					C56.951,87.118,56.951,87.699,56.593,88.057z M50.348,81.81c-0.752,0.752-1.969,0.752-2.721,0.001
					c-0.752-0.754-0.751-1.971,0.001-2.723c0.751-0.751,1.97-0.75,2.72,0C51.1,79.84,51.1,81.058,50.348,81.81z"/>
				<g>
					
						<path fill="#FDC100" stroke="#FDC100" stroke-width="0.2392" stroke-linecap="round" stroke-linejoin="round" stroke-miterlimit="10" d="
						M48.324,85.954l0.578,0.11C48.718,85.988,48.521,85.951,48.324,85.954z"/>
					
						<path fill="#FDC100" stroke="#FDC100" stroke-width="0.2392" stroke-linecap="round" stroke-linejoin="round" stroke-miterlimit="10" d="
						M56.844,87.582c-0.033,0.174-0.117,0.34-0.251,0.475c-0.358,0.358-0.94,0.358-1.297,0.001
						c-0.223-0.225-0.308-0.532-0.253-0.819l-6.14-1.174c0.167,0.07,0.325,0.174,0.461,0.31c0.561,0.562,0.56,1.47,0,2.03
						c-0.562,0.56-1.47,0.56-2.03-0.001c-0.561-0.561-0.56-1.469,0-2.03c0.274-0.273,0.631-0.412,0.99-0.419l-12.072-2.307
						l16.662,16.67l11.327-11.321L56.844,87.582z M54.685,94.735c-0.838,0.839-2.198,0.838-3.036-0.001
						c-0.837-0.838-0.837-2.197,0.001-3.036c0.838-0.837,2.198-0.837,3.035,0.001C55.525,92.538,55.524,93.897,54.685,94.735z"/>
				</g>
			</g>
			<g>
				
					<path fill="#FFD600" stroke="#FFD600" stroke-width="0.2392" stroke-linecap="round" stroke-linejoin="round" stroke-miterlimit="10" d="
					M51.4,24.461l16.661,16.67L79.388,29.81L62.726,13.14L51.4,24.461z M56.672,23.405c0.358-0.358,0.939-0.357,1.297,0
					c0.358,0.358,0.358,0.94,0,1.298c-0.358,0.359-0.939,0.358-1.298,0S56.314,23.764,56.672,23.405z M69.833,35.548
					c-0.839,0.838-2.198,0.838-3.036,0c-0.838-0.837-0.837-2.197,0.001-3.036c0.838-0.837,2.198-0.837,3.035,0.001
					C70.671,33.352,70.671,34.71,69.833,35.548z M64.51,29.217c-0.562,0.561-1.47,0.561-2.03,0c-0.561-0.561-0.561-1.468,0.001-2.03
					c0.56-0.56,1.469-0.56,2.029,0.001C65.07,27.749,65.07,28.657,64.51,29.217z M71.739,28.87c-0.358,0.358-0.939,0.358-1.297,0
					c-0.359-0.359-0.359-0.939-0.001-1.298c0.359-0.358,0.94-0.357,1.299,0C72.098,27.932,72.098,28.512,71.739,28.87z
					 M65.496,22.623c-0.753,0.752-1.97,0.752-2.722,0c-0.752-0.753-0.751-1.97,0.001-2.722c0.751-0.751,1.97-0.751,2.721,0
					S66.247,21.872,65.496,22.623z"/>
				<g>
					
						<path fill="#FDC100" stroke="#FDC100" stroke-width="0.2392" stroke-linecap="round" stroke-linejoin="round" stroke-miterlimit="10" d="
						M63.471,26.768l0.577,0.111C63.865,26.802,63.667,26.765,63.471,26.768z"/>
					
						<path fill="#FDC100" stroke="#FDC100" stroke-width="0.2392" stroke-linecap="round" stroke-linejoin="round" stroke-miterlimit="10" d="
						M71.991,28.396c-0.033,0.174-0.116,0.34-0.252,0.475c-0.358,0.358-0.939,0.358-1.297,0c-0.223-0.223-0.307-0.531-0.253-0.818
						l-6.141-1.173c0.169,0.07,0.325,0.172,0.462,0.309c0.56,0.561,0.56,1.469,0,2.029c-0.562,0.561-1.47,0.561-2.03,0
						c-0.561-0.561-0.561-1.468,0.001-2.03c0.273-0.274,0.631-0.413,0.99-0.419L51.4,24.461l16.661,16.67L79.388,29.81
						L71.991,28.396z M69.833,35.548c-0.839,0.838-2.198,0.838-3.036,0c-0.838-0.837-0.837-2.197,0.001-3.036
						c0.838-0.837,2.198-0.837,3.035,0.001C70.671,33.352,70.671,34.71,69.833,35.548z"/>
				</g>
			</g>
			<g>
				
					<path fill="#FFD600" stroke="#FFD600" stroke-width="0.2392" stroke-linecap="round" stroke-linejoin="round" stroke-miterlimit="10" d="
					M73.419,46.48l16.661,16.67l11.327-11.321L84.746,35.16L73.419,46.48z M78.692,45.425c0.358-0.358,0.939-0.357,1.298,0.001
					c0.358,0.358,0.358,0.939,0,1.298c-0.358,0.358-0.939,0.358-1.298,0C78.333,46.366,78.333,45.784,78.692,45.425z M91.852,57.568
					c-0.839,0.839-2.198,0.838-3.036,0s-0.837-2.198,0.001-3.037c0.838-0.837,2.198-0.837,3.035,0
					C92.691,55.372,92.691,56.73,91.852,57.568z M86.53,51.237c-0.562,0.56-1.469,0.56-2.029-0.001c-0.561-0.56-0.561-1.469,0-2.03
					c0.561-0.56,1.47-0.56,2.03,0.001C87.09,49.769,87.09,50.677,86.53,51.237z M93.759,50.89c-0.358,0.358-0.94,0.359-1.297,0
					c-0.359-0.359-0.359-0.94-0.001-1.298c0.358-0.358,0.939-0.357,1.299,0C94.118,49.952,94.118,50.532,93.759,50.89z
					 M87.515,44.643c-0.752,0.751-1.97,0.751-2.722,0c-0.751-0.753-0.75-1.97,0.001-2.722c0.752-0.751,1.97-0.75,2.721,0
					C88.266,42.673,88.266,43.892,87.515,44.643z"/>
				<g>
					
						<path fill="#FDC100" stroke="#FDC100" stroke-width="0.2392" stroke-linecap="round" stroke-linejoin="round" stroke-miterlimit="10" d="
						M85.491,48.788l0.578,0.111C85.885,48.822,85.688,48.785,85.491,48.788z"/>
					
						<path fill="#FDC100" stroke="#FDC100" stroke-width="0.2392" stroke-linecap="round" stroke-linejoin="round" stroke-miterlimit="10" d="
						M94.01,50.416c-0.032,0.174-0.116,0.34-0.251,0.474c-0.358,0.358-0.94,0.359-1.297,0c-0.224-0.224-0.309-0.532-0.254-0.819
						l-6.14-1.173c0.168,0.07,0.325,0.173,0.462,0.309c0.56,0.561,0.56,1.469-0.001,2.03c-0.562,0.56-1.469,0.56-2.029-0.001
						c-0.561-0.56-0.561-1.469,0-2.03c0.274-0.273,0.632-0.413,0.99-0.419L73.419,46.48l16.661,16.67l11.327-11.321L94.01,50.416z
						 M91.852,57.568c-0.839,0.839-2.198,0.838-3.036,0s-0.837-2.198,0.001-3.037c0.838-0.837,2.198-0.837,3.035,0
						C92.691,55.372,92.691,56.73,91.852,57.568z"/>
				</g>
			</g>
			<g>
				
					<path fill="#FFD600" stroke="#FFD600" stroke-width="0.2392" stroke-linecap="round" stroke-linejoin="round" stroke-miterlimit="10" d="
					M19.875,30.562l16.662,16.669L47.863,35.91L31.202,19.241L19.875,30.562z M25.148,29.506c0.358-0.358,0.939-0.358,1.298,0
					c0.358,0.358,0.358,0.939,0,1.298c-0.359,0.358-0.939,0.358-1.298,0C24.79,30.446,24.79,29.865,25.148,29.506z M38.308,41.649
					c-0.839,0.838-2.198,0.838-3.036,0c-0.837-0.838-0.837-2.197,0-3.036c0.839-0.838,2.198-0.837,3.036,0
					C39.148,39.452,39.147,40.812,38.308,41.649z M32.986,35.318c-0.561,0.56-1.469,0.56-2.03-0.001s-0.56-1.469,0.001-2.03
					c0.56-0.56,1.469-0.56,2.03,0C33.547,33.849,33.547,34.757,32.986,35.318z M40.215,34.971c-0.358,0.358-0.94,0.358-1.297,0
					c-0.358-0.359-0.359-0.94,0-1.298c0.358-0.358,0.94-0.357,1.298,0C40.574,34.032,40.574,34.612,40.215,34.971z M33.971,28.723
					c-0.752,0.752-1.97,0.752-2.721,0c-0.751-0.753-0.75-1.97,0.001-2.722c0.751-0.751,1.97-0.75,2.72,0
					C34.723,26.754,34.722,27.972,33.971,28.723z"/>
				<g>
					
						<path fill="#FDC100" stroke="#FDC100" stroke-width="0.2392" stroke-linecap="round" stroke-linejoin="round" stroke-miterlimit="10" d="
						M31.947,32.869l0.579,0.11C32.341,32.902,32.144,32.865,31.947,32.869z"/>
					
						<path fill="#FDC100" stroke="#FDC100" stroke-width="0.2392" stroke-linecap="round" stroke-linejoin="round" stroke-miterlimit="10" d="
						M40.467,34.497c-0.033,0.174-0.117,0.339-0.252,0.474c-0.358,0.358-0.94,0.358-1.297,0c-0.223-0.224-0.307-0.532-0.253-0.819
						l-6.14-1.173c0.167,0.07,0.325,0.172,0.461,0.309c0.56,0.561,0.56,1.469-0.001,2.03c-0.561,0.56-1.469,0.56-2.03-0.001
						s-0.56-1.469,0.001-2.03c0.274-0.274,0.631-0.414,0.99-0.419l-12.071-2.307l16.662,16.669L47.863,35.91L40.467,34.497z
						 M38.308,41.649c-0.839,0.838-2.198,0.838-3.036,0c-0.837-0.838-0.837-2.197,0-3.036c0.839-0.838,2.198-0.837,3.036,0
						C39.148,39.452,39.147,40.812,38.308,41.649z"/>
				</g>
			</g>
			<g>
				
					<path fill="#FFD600" stroke="#FFD600" stroke-width="0.2392" stroke-linecap="round" stroke-linejoin="round" stroke-miterlimit="10" d="
					M42.567,52.485l16.661,16.669l11.327-11.321L53.894,41.164L42.567,52.485z M47.839,51.43c0.358-0.358,0.939-0.358,1.298,0
					c0.358,0.358,0.358,0.939,0,1.298c-0.358,0.358-0.939,0.358-1.297,0C47.481,52.37,47.481,51.788,47.839,51.43z M61,63.573
					c-0.838,0.838-2.197,0.837-3.036-0.001c-0.838-0.838-0.837-2.197,0-3.036c0.839-0.838,2.198-0.837,3.036,0
					C61.839,61.376,61.838,62.735,61,63.573z M55.678,57.241c-0.562,0.56-1.47,0.56-2.031,0c-0.56-0.561-0.56-1.469,0.001-2.03
					c0.56-0.561,1.469-0.561,2.03,0C56.238,55.772,56.238,56.681,55.678,57.241z M62.907,56.894
					c-0.358,0.358-0.939,0.359-1.297,0.001c-0.358-0.36-0.359-0.941-0.001-1.299s0.94-0.357,1.299,0.001
					C63.265,55.956,63.265,56.536,62.907,56.894z M56.663,50.646c-0.752,0.752-1.969,0.752-2.721,0
					c-0.752-0.753-0.751-1.97,0.001-2.722c0.751-0.751,1.969-0.75,2.72,0C57.415,48.677,57.414,49.896,56.663,50.646z"/>
				<g>
					
						<path fill="#FDC100" stroke="#FDC100" stroke-width="0.2392" stroke-linecap="round" stroke-linejoin="round" stroke-miterlimit="10" d="
						M54.639,54.792l0.578,0.11C55.033,54.826,54.835,54.789,54.639,54.792z"/>
					
						<path fill="#FDC100" stroke="#FDC100" stroke-width="0.2392" stroke-linecap="round" stroke-linejoin="round" stroke-miterlimit="10" d="
						M63.159,56.42c-0.033,0.174-0.117,0.34-0.252,0.474c-0.358,0.358-0.939,0.359-1.297,0.001
						c-0.223-0.224-0.308-0.532-0.253-0.819l-6.141-1.174c0.168,0.07,0.325,0.172,0.462,0.309c0.56,0.561,0.56,1.469,0,2.03
						c-0.562,0.56-1.47,0.56-2.031,0c-0.56-0.561-0.56-1.469,0.001-2.03c0.274-0.274,0.631-0.413,0.99-0.419l-12.072-2.307
						l16.661,16.669l11.327-11.321L63.159,56.42z M61,63.573c-0.838,0.838-2.197,0.837-3.036-0.001
						c-0.838-0.838-0.837-2.197,0-3.036c0.839-0.838,2.198-0.837,3.036,0C61.839,61.376,61.838,62.735,61,63.573z"/>
				</g>
			</g>
			<g>
				
					<path fill="#FFD600" stroke="#FFD600" stroke-width="0.2392" stroke-linecap="round" stroke-linejoin="round" stroke-miterlimit="10" d="
					M65.034,74.633l16.662,16.669l11.326-11.32l-16.661-16.67L65.034,74.633z M70.306,73.577c0.358-0.358,0.939-0.357,1.298,0.001
					c0.358,0.357,0.358,0.938,0,1.298c-0.358,0.358-0.939,0.357-1.298,0C69.949,74.518,69.948,73.936,70.306,73.577z M83.466,85.721
					c-0.839,0.838-2.197,0.837-3.036-0.001c-0.837-0.838-0.837-2.197,0.001-3.036c0.839-0.838,2.198-0.837,3.036,0
					C84.306,83.523,84.306,84.883,83.466,85.721z M78.145,79.39c-0.562,0.56-1.47,0.56-2.03-0.001s-0.561-1.469,0.001-2.03
					c0.56-0.56,1.469-0.561,2.029,0.001C78.706,77.92,78.705,78.829,78.145,79.39z M85.374,79.041
					c-0.358,0.358-0.939,0.359-1.297,0.002c-0.359-0.359-0.359-0.941-0.001-1.3c0.359-0.357,0.94-0.356,1.299,0.001
					C85.733,78.104,85.733,78.684,85.374,79.041z M79.129,72.794c-0.751,0.753-1.969,0.753-2.722,0
					c-0.751-0.752-0.75-1.969,0.002-2.721c0.752-0.751,1.97-0.751,2.72,0C79.881,70.825,79.881,72.043,79.129,72.794z"/>
				<g>
					
						<path fill="#FDC100" stroke="#FDC100" stroke-width="0.2392" stroke-linecap="round" stroke-linejoin="round" stroke-miterlimit="10" d="
						M77.106,76.939l0.577,0.11C77.5,76.974,77.302,76.936,77.106,76.939z"/>
					
						<path fill="#FDC100" stroke="#FDC100" stroke-width="0.2392" stroke-linecap="round" stroke-linejoin="round" stroke-miterlimit="10" d="
						M85.625,78.567c-0.033,0.174-0.116,0.34-0.252,0.474c-0.358,0.358-0.939,0.359-1.297,0.002
						c-0.223-0.225-0.308-0.532-0.253-0.819l-6.141-1.174c0.168,0.07,0.325,0.173,0.462,0.31c0.561,0.561,0.56,1.47,0,2.03
						c-0.562,0.56-1.47,0.56-2.03-0.001s-0.561-1.469,0.001-2.03c0.274-0.274,0.631-0.413,0.99-0.419l-12.072-2.307l16.662,16.669
						l11.326-11.32L85.625,78.567z M83.466,85.721c-0.839,0.838-2.197,0.837-3.036-0.001c-0.837-0.838-0.837-2.197,0.001-3.036
						c0.839-0.838,2.198-0.837,3.036,0C84.306,83.523,84.306,84.883,83.466,85.721z"/>
				</g>
			</g>
		</g>
	</g>
	<g>
		<path fill="#F8BF45" d="M186.961,83.916c3.078-1.316,5.241-4.373,5.241-7.927c0-3.534-2.14-6.573-5.188-7.902
			c1.793-1.58,2.933-3.886,2.933-6.459c0-4.523-3.506-8.236-7.942-8.583c0.793-1.305,1.26-2.829,1.26-4.464
			c0-4.753-3.867-8.618-8.619-8.618c-0.678,0-1.333,0.086-1.967,0.234c0.157-0.648,0.249-1.321,0.249-2.017
			c0-4.752-3.866-8.618-8.618-8.618c-1.626,0-3.143,0.461-4.442,1.247c-0.383-4.4-4.082-7.866-8.581-7.866
			c-2.582,0-4.896,1.148-6.478,2.953c-1.321-3.067-4.372-5.222-7.918-5.222c-3.539,0-6.585,2.146-7.909,5.204
			c-1.581-1.795-3.889-2.936-6.463-2.936c-4.503,0-8.204,3.474-8.58,7.881c-1.305-0.795-2.83-1.262-4.467-1.262
			c-4.752,0-8.617,3.866-8.617,8.618c0,0.695,0.092,1.368,0.248,2.017c-0.633-0.148-1.29-0.234-1.969-0.234
			c-4.752,0-8.617,3.865-8.617,8.618c0,1.636,0.467,3.162,1.262,4.466c-4.406,0.377-7.88,4.078-7.88,8.581
			c0,2.562,1.13,4.858,2.909,6.438c-3.072,1.318-5.23,4.373-5.23,7.923c0,3.57,2.184,6.64,5.285,7.945
			c-1.812,1.581-2.964,3.901-2.964,6.489c0,4.478,3.434,8.165,7.806,8.576c-0.75,1.277-1.188,2.759-1.188,4.345
			c0,4.752,3.865,8.618,8.617,8.618c0.703,0,1.382-0.094,2.035-0.253c-0.158,0.654-0.252,1.333-0.252,2.034
			c0,4.753,3.865,8.619,8.617,8.619c1.561,0,3.021-0.423,4.283-1.15c0.429,4.354,4.11,7.769,8.576,7.769
			c2.611,0,4.951-1.173,6.533-3.014c1.293,3.127,4.375,5.335,7.964,5.335c3.57,0,6.64-2.184,7.946-5.285
			c1.581,1.812,3.9,2.964,6.487,2.964c4.49,0,8.186-3.453,8.579-7.843c1.292,0.772,2.795,1.225,4.406,1.225
			c4.752,0,8.618-3.866,8.618-8.619c0-0.695-0.092-1.368-0.249-2.016c0.634,0.147,1.289,0.234,1.967,0.234
			c4.752,0,8.619-3.866,8.619-8.618c0-1.584-0.437-3.064-1.187-4.342c4.402-0.382,7.869-4.081,7.869-8.579
			C189.947,87.825,188.786,85.498,186.961,83.916z"/>
		<circle fill="#FFE093" cx="136.889" cy="75.988" r="46.796"/>
		<g opacity="0.8">
			<defs>
				<circle id="SVGID_1_" opacity="0.8" cx="136.889" cy="75.988" r="46.796"/>
			</defs>
			<clipPath id="SVGID_2_">
				<use xlink:href="#SVGID_1_"  overflow="visible"/>
			</clipPath>
			<path clip-path="url(#SVGID_2_)" fill="#FBD059" d="M187.586,67.521l-21.434-10.032V33.875c0-1.938-1.57-3.508-3.507-3.508
				c-1.938,0-3.508,1.57-3.508,3.508v20.33l-18.524-8.67V27.959c0-1.938-1.57-3.508-3.507-3.508s-3.507,1.57-3.507,3.508v14.293
				l-18.54-8.678c-0.153-1.796-1.656-3.207-3.491-3.207c-1.072,0-2.031,0.482-2.674,1.241c-0.96,0.261-1.803,0.925-2.258,1.896
				c-0.777,1.662-0.138,3.622,1.424,4.521v20.471l-12.945-6.06c-1.754-0.821-3.842-0.065-4.662,1.689
				c-0.821,1.754-0.064,3.842,1.689,4.663l15.918,7.451v20.453l-18.412-8.618c-1.755-0.821-3.842-0.065-4.664,1.688
				c-0.82,1.755-0.064,3.843,1.69,4.663l21.386,10.011v23.665c0,1.938,1.57,3.507,3.508,3.507c1.936,0,3.506-1.569,3.506-3.507
				V97.72l18.525,8.671v17.576c0,1.937,1.57,3.507,3.507,3.507s3.507-1.57,3.507-3.507v-14.293l18.537,8.676
				c0.127,1.821,1.641,3.26,3.495,3.26c1.084,0,2.054-0.492,2.696-1.267c0.97-0.256,1.823-0.92,2.28-1.899
				c0.786-1.679,0.124-3.659-1.47-4.547V93.43l12.944,6.059c0.481,0.226,0.987,0.332,1.484,0.332c1.319,0,2.583-0.747,3.179-2.021
				c0.821-1.755,0.064-3.843-1.689-4.663l-15.918-7.451V65.232l18.46,8.641c0.481,0.225,0.987,0.332,1.484,0.332
				c1.319,0,2.583-0.748,3.178-2.021C190.097,70.43,189.34,68.342,187.586,67.521z M133.6,70.449l-18.525-8.671V41.325l18.525,8.671
				V70.449z M133.6,78.193v20.453l-18.525-8.67V69.522L133.6,78.193z M140.614,81.476l18.524,8.671V110.6l-18.524-8.67V81.476z
				 M140.614,73.732V53.279l18.524,8.67v20.453L140.614,73.732z"/>
		</g>
		<g>
			<g>
				<g>
					
						<path fill="#3AAA35" stroke="#3AAA35" stroke-width="1.1915" stroke-linecap="round" stroke-linejoin="round" stroke-miterlimit="10" d="
						M140.139,88.992c-1.697,0.575-2.426,0.469-2.426,0.469c-0.4,0-0.785-0.114-1.146-0.311l0.002,0.007
						c-4.707-2.273-7.961-7.086-7.98-12.665c-0.016-5.269,2.857-9.872,7.127-12.309l0.169-0.096
						c0.794-0.438,1.686-0.667,2.141-0.669c0.513-0.001,0.981,0.035,1.418,0.198l0.887,0.292v25.015L140.139,88.992z"/>
					<path fill="#E3E683" d="M139.445,88.203"/>
					<path fill="#E3E683" d="M139.445,88.203c-0.913,0.275-1.417,0.3-1.562,0.301c-0.028,0.001-0.049,0-0.061-0.002l-0.071-0.01
						l-0.04,0.005c-0.216,0-0.446-0.064-0.679-0.192l-1.385-0.76c-3.779-2.391-6.079-6.502-6.094-11.057
						c-0.016-4.727,2.529-9.121,6.641-11.468l0.166-0.094c0.691-0.38,1.43-0.542,1.668-0.544c0.494-0.002,0.815,0.04,1.078,0.138
						l0.262,0.087l1.293,0.752v22.508L139.445,88.203"/>
					
						<path fill="#E9EBA1" stroke="#E9EBA1" stroke-width="1.1915" stroke-linecap="round" stroke-linejoin="round" stroke-miterlimit="10" d="
						M139.445,88.203"/>
					<path fill="#BE1622" stroke="#BE1622" stroke-width="0.1802" stroke-miterlimit="10" d="M136.569,89.157"/>
				</g>
				<g>
					<g>
						
							<ellipse fill="#432918" stroke="#432918" stroke-width="0.5281" stroke-miterlimit="10" cx="139.255" cy="76.44" rx="0.594" ry="1.353"/>
					</g>
				</g>
			</g>
			<g>
				<g>
					
						<path fill="#3AAA35" stroke="#3AAA35" stroke-width="1.1915" stroke-linecap="round" stroke-linejoin="round" stroke-miterlimit="10" d="
						M114.674,75.242c-1.697,0.576-2.426,0.469-2.426,0.469c-0.4,0-0.786-0.113-1.146-0.311l0.002,0.007
						c-4.708-2.273-7.961-7.086-7.98-12.665c-0.017-5.269,2.856-9.871,7.127-12.309l0.168-0.095c0.795-0.438,1.686-0.668,2.141-0.67
						c0.514-0.001,0.981,0.036,1.418,0.198l0.888,0.293v25.014L114.674,75.242z"/>
					<path fill="#E3E683" d="M113.979,74.453"/>
					<path fill="#E3E683" d="M113.979,74.453c-0.913,0.275-1.417,0.301-1.562,0.301c-0.028,0.001-0.05,0-0.062-0.002l-0.07-0.01
						l-0.041,0.004c-0.216,0.001-0.445-0.062-0.678-0.191l-1.385-0.76c-3.78-2.391-6.079-6.502-6.094-11.057
						c-0.016-4.727,2.529-9.121,6.641-11.467l0.165-0.095c0.692-0.38,1.43-0.542,1.669-0.544c0.493-0.001,0.814,0.04,1.077,0.139
						l0.263,0.086l1.293,0.753v22.508L113.979,74.453"/>
					
						<path fill="#E9EBA1" stroke="#E9EBA1" stroke-width="1.1915" stroke-linecap="round" stroke-linejoin="round" stroke-miterlimit="10" d="
						M113.979,74.453"/>
					<path fill="#BE1622" stroke="#BE1622" stroke-width="0.1802" stroke-miterlimit="10" d="M111.104,75.407"/>
				</g>
				<g>
					<g>
						
							<ellipse fill="#432918" stroke="#432918" stroke-width="0.5281" stroke-miterlimit="10" cx="113.79" cy="62.69" rx="0.594" ry="1.353"/>
					</g>
				</g>
			</g>
			<g>
				<g>
					
						<path fill="#3AAA35" stroke="#3AAA35" stroke-width="1.1915" stroke-linecap="round" stroke-linejoin="round" stroke-miterlimit="10" d="
						M114.674,105.44c-1.697,0.575-2.426,0.469-2.426,0.469c-0.4,0.001-0.786-0.114-1.146-0.31l0.002,0.006
						c-4.708-2.273-7.961-7.086-7.98-12.665c-0.017-5.269,2.856-9.872,7.127-12.308l0.168-0.096c0.795-0.438,1.686-0.668,2.141-0.67
						c0.514-0.001,0.981,0.035,1.418,0.198l0.888,0.293v25.014L114.674,105.44z"/>
					<path fill="#E3E683" d="M113.979,104.651"/>
					<path fill="#E3E683" d="M113.979,104.651c-0.913,0.275-1.417,0.301-1.562,0.302c-0.028,0-0.05-0.001-0.062-0.002l-0.07-0.011
						l-0.041,0.005c-0.216,0-0.445-0.064-0.678-0.192l-1.385-0.76c-3.78-2.39-6.079-6.502-6.094-11.056
						c-0.016-4.728,2.529-9.122,6.641-11.469l0.165-0.094c0.692-0.38,1.43-0.542,1.669-0.543c0.493-0.002,0.814,0.04,1.077,0.137
						l0.263,0.087l1.293,0.753v22.508L113.979,104.651"/>
					
						<path fill="#E9EBA1" stroke="#E9EBA1" stroke-width="1.1915" stroke-linecap="round" stroke-linejoin="round" stroke-miterlimit="10" d="
						M113.979,104.651"/>
					<path fill="#BE1622" stroke="#BE1622" stroke-width="0.1802" stroke-miterlimit="10" d="M111.104,105.605"/>
				</g>
				<g>
					<g>
						
							<ellipse fill="#432918" stroke="#432918" stroke-width="0.5281" stroke-miterlimit="10" cx="113.79" cy="92.889" rx="0.594" ry="1.354"/>
					</g>
				</g>
			</g>
			<g>
				<g>
					
						<path fill="#3AAA35" stroke="#3AAA35" stroke-width="1.1915" stroke-linecap="round" stroke-linejoin="round" stroke-miterlimit="10" d="
						M165.66,75.242c-1.698,0.576-2.426,0.469-2.426,0.469c-0.4,0-0.786-0.113-1.146-0.311l0.002,0.007
						c-4.708-2.273-7.962-7.086-7.98-12.665c-0.017-5.269,2.856-9.871,7.127-12.309l0.168-0.095c0.795-0.438,1.686-0.668,2.141-0.67
						c0.513-0.001,0.981,0.036,1.418,0.198l0.888,0.293v25.014L165.66,75.242z"/>
					<path fill="#E3E683" d="M164.965,74.453"/>
					<path fill="#E3E683" d="M164.965,74.453c-0.914,0.275-1.418,0.301-1.563,0.301c-0.028,0.001-0.048,0-0.06-0.002l-0.072-0.01
						l-0.04,0.004c-0.216,0.001-0.445-0.062-0.679-0.191l-1.384-0.76c-3.78-2.391-6.079-6.502-6.095-11.057
						c-0.016-4.727,2.53-9.121,6.642-11.467l0.165-0.095c0.692-0.38,1.43-0.542,1.669-0.544c0.493-0.001,0.814,0.04,1.077,0.139
						l0.263,0.086l1.293,0.753v22.508L164.965,74.453"/>
					
						<path fill="#E9EBA1" stroke="#E9EBA1" stroke-width="1.1915" stroke-linecap="round" stroke-linejoin="round" stroke-miterlimit="10" d="
						M164.965,74.453"/>
					<path fill="#BE1622" stroke="#BE1622" stroke-width="0.1802" stroke-miterlimit="10" d="M162.089,75.407"/>
				</g>
				<g>
					<g>
						
							<ellipse fill="#432918" stroke="#432918" stroke-width="0.5281" stroke-miterlimit="10" cx="164.776" cy="62.69" rx="0.594" ry="1.353"/>
					</g>
				</g>
			</g>
			<g>
				<g>
					
						<path fill="#3AAA35" stroke="#3AAA35" stroke-width="1.1915" stroke-linecap="round" stroke-linejoin="round" stroke-miterlimit="10" d="
						M165.66,105.44c-1.698,0.575-2.426,0.469-2.426,0.469c-0.4,0.001-0.786-0.114-1.146-0.31l0.002,0.006
						c-4.708-2.273-7.962-7.086-7.98-12.665c-0.017-5.269,2.856-9.872,7.127-12.308l0.168-0.096c0.795-0.438,1.686-0.668,2.141-0.67
						c0.513-0.001,0.981,0.035,1.418,0.198l0.888,0.293v25.014L165.66,105.44z"/>
					<path fill="#E3E683" d="M164.965,104.651"/>
					<path fill="#E3E683" d="M164.965,104.651c-0.914,0.275-1.418,0.301-1.563,0.302c-0.028,0-0.048-0.001-0.06-0.002l-0.072-0.011
						l-0.04,0.005c-0.216,0-0.445-0.064-0.679-0.192l-1.384-0.76c-3.78-2.39-6.079-6.502-6.095-11.056
						c-0.016-4.728,2.53-9.122,6.642-11.469l0.165-0.094c0.692-0.38,1.43-0.542,1.669-0.543c0.493-0.002,0.814,0.04,1.077,0.137
						l0.263,0.087l1.293,0.753v22.508L164.965,104.651"/>
					
						<path fill="#E9EBA1" stroke="#E9EBA1" stroke-width="1.1915" stroke-linecap="round" stroke-linejoin="round" stroke-miterlimit="10" d="
						M164.965,104.651"/>
					<path fill="#BE1622" stroke="#BE1622" stroke-width="0.1802" stroke-miterlimit="10" d="M162.089,105.605"/>
				</g>
				<g>
					<g>
						
							<ellipse fill="#432918" stroke="#432918" stroke-width="0.5281" stroke-miterlimit="10" cx="164.776" cy="92.889" rx="0.594" ry="1.354"/>
					</g>
				</g>
			</g>
			<g>
				<g>
					
						<path fill="#3AAA35" stroke="#3AAA35" stroke-width="1.1915" stroke-linecap="round" stroke-linejoin="round" stroke-miterlimit="10" d="
						M140.139,118.873c-1.697,0.575-2.426,0.468-2.426,0.468c-0.4,0.001-0.785-0.113-1.146-0.311l0.002,0.007
						c-4.707-2.273-7.961-7.086-7.98-12.665c-0.016-5.269,2.857-9.871,7.127-12.309l0.169-0.095c0.794-0.438,1.686-0.668,2.141-0.67
						c0.513-0.001,0.981,0.036,1.418,0.198l0.887,0.293v25.014L140.139,118.873z"/>
					<path fill="#E3E683" d="M139.445,118.083"/>
					<path fill="#E3E683" d="M139.445,118.083c-0.913,0.276-1.417,0.301-1.562,0.302c-0.028,0-0.049,0-0.061-0.002l-0.071-0.01
						l-0.04,0.004c-0.216,0-0.446-0.063-0.679-0.192l-1.385-0.76c-3.779-2.39-6.079-6.501-6.094-11.056
						c-0.016-4.728,2.529-9.122,6.641-11.468l0.166-0.095c0.691-0.38,1.43-0.542,1.668-0.543c0.494-0.002,0.815,0.039,1.078,0.138
						l0.262,0.087l1.293,0.752v22.508L139.445,118.083"/>
					
						<path fill="#E9EBA1" stroke="#E9EBA1" stroke-width="1.1915" stroke-linecap="round" stroke-linejoin="round" stroke-miterlimit="10" d="
						M139.445,118.083"/>
					<path fill="#BE1622" stroke="#BE1622" stroke-width="0.1802" stroke-miterlimit="10" d="M136.569,119.037"/>
				</g>
				<g>
					<g>
						
							<ellipse fill="#432918" stroke="#432918" stroke-width="0.5281" stroke-miterlimit="10" cx="139.255" cy="106.321" rx="0.594" ry="1.352"/>
					</g>
				</g>
			</g>
			<g>
				<g>
					
						<path fill="#3AAA35" stroke="#3AAA35" stroke-width="1.1915" stroke-linecap="round" stroke-linejoin="round" stroke-miterlimit="10" d="
						M139.974,59.112c-1.698,0.575-2.427,0.468-2.427,0.468c-0.399,0.001-0.785-0.113-1.146-0.31l0.001,0.007
						c-4.707-2.273-7.96-7.086-7.979-12.666c-0.017-5.268,2.856-9.871,7.127-12.308l0.169-0.095c0.795-0.438,1.686-0.668,2.141-0.67
						c0.513-0.002,0.98,0.035,1.417,0.197l0.888,0.293v25.014L139.974,59.112z"/>
					<path fill="#E3E683" d="M139.28,58.323"/>
					<path fill="#E3E683" d="M139.28,58.323c-0.914,0.275-1.418,0.3-1.562,0.301c-0.028,0.001-0.049,0-0.061-0.002l-0.071-0.01
						l-0.04,0.004c-0.217,0.001-0.445-0.063-0.679-0.192l-1.385-0.759c-3.78-2.391-6.079-6.502-6.094-11.056
						c-0.016-4.729,2.529-9.122,6.64-11.469l0.166-0.094c0.693-0.381,1.43-0.543,1.669-0.544c0.493-0.001,0.815,0.04,1.077,0.138
						l0.263,0.087l1.293,0.753v22.508L139.28,58.323"/>
					
						<path fill="#E9EBA1" stroke="#E9EBA1" stroke-width="1.1915" stroke-linecap="round" stroke-linejoin="round" stroke-miterlimit="10" d="
						M139.28,58.323"/>
					<path fill="#BE1622" stroke="#BE1622" stroke-width="0.1802" stroke-miterlimit="10" d="M136.403,59.277"/>
				</g>
				<g>
					<g>
						
							<ellipse fill="#432918" stroke="#432918" stroke-width="0.5281" stroke-miterlimit="10" cx="139.09" cy="46.561" rx="0.594" ry="1.353"/>
					</g>
				</g>
			</g>
		</g>
	</g>
	<g>
		<circle fill="#575756" stroke="#575756" stroke-miterlimit="10" cx="98.384" cy="124.789" r="66.595"/>
		<path fill="#FFEFAF" d="M98.385,187.488c-34.572,0-62.699-28.127-62.699-62.699c0-34.571,28.127-62.698,62.699-62.698
			c34.571,0,62.698,28.126,62.698,62.698C161.083,159.361,132.956,187.488,98.385,187.488z"/>
		<path fill="#FFEC9C" d="M98.385,187.488c-34.572,0-62.699-28.127-62.699-62.699c0-34.571,28.127-62.698,62.699-62.698V187.488z"/>
		<g>
			
				<rect x="77.343" y="95.324" transform="matrix(0.8197 0.5729 -0.5729 0.8197 72.0126 -32.1273)" fill="#FFD600" stroke="#FFD600" stroke-width="0.7154" stroke-linecap="round" stroke-linejoin="round" stroke-miterlimit="10" width="19.376" height="5.967"/>
			
				<rect x="78.52" y="95.694" transform="matrix(0.8197 0.5728 -0.5728 0.8197 71.2531 -33.1041)" fill="#FDC100" stroke="#FDC100" stroke-width="0.4204" stroke-linecap="round" stroke-linejoin="round" stroke-miterlimit="10" width="19.376" height="1.86"/>
		</g>
		<g>
			
				<rect x="109.912" y="121.466" transform="matrix(-0.4228 0.9062 -0.9062 -0.4228 282.947 68.6868)" fill="#FFD600" stroke="#FFD600" stroke-width="0.7154" stroke-linecap="round" stroke-linejoin="round" stroke-miterlimit="10" width="19.376" height="5.969"/>
			
				<rect x="111.774" y="124.388" transform="matrix(-0.4229 0.9062 -0.9062 -0.4229 286.3845 68.2423)" fill="#FDC100" stroke="#FDC100" stroke-width="0.4204" stroke-linecap="round" stroke-linejoin="round" stroke-miterlimit="10" width="19.374" height="1.86"/>
		</g>
		<g>
			
				<rect x="75.988" y="68.562" transform="matrix(-0.9414 0.3373 -0.3373 -0.9414 190.465 109.9969)" fill="#FFD600" stroke="#FFD600" stroke-width="0.7154" stroke-linecap="round" stroke-linejoin="round" stroke-miterlimit="10" width="19.376" height="5.969"/>
			
				<rect x="76.682" y="72.549" transform="matrix(-0.9414 0.3373 -0.3373 -0.9414 192.4625 113.5172)" fill="#FDC100" stroke="#FDC100" stroke-width="0.4204" stroke-linecap="round" stroke-linejoin="round" stroke-miterlimit="10" width="19.375" height="1.861"/>
		</g>
		<g>
			
				<rect x="118.348" y="164.906" transform="matrix(-0.8566 0.5159 -0.5159 -0.8566 324.3334 245.6553)" fill="#FFD600" stroke="#FFD600" stroke-width="0.7154" stroke-linecap="round" stroke-linejoin="round" stroke-miterlimit="10" width="19.375" height="5.968"/>
			
				<rect x="119.408" y="168.72" transform="matrix(-0.8566 0.5159 -0.5159 -0.8566 327.2115 248.3705)" fill="#FDC100" stroke="#FDC100" stroke-width="0.4204" stroke-linecap="round" stroke-linejoin="round" stroke-miterlimit="10" width="19.375" height="1.86"/>
		</g>
		<g>
			
				<rect x="44.742" y="116.558" fill="#FFD600" stroke="#FFD600" stroke-width="0.7154" stroke-linecap="round" stroke-linejoin="round" stroke-miterlimit="10" width="19.375" height="5.968"/>
			
				<rect x="44.742" y="116.557" fill="#FDC100" stroke="#FDC100" stroke-width="0.4204" stroke-linecap="round" stroke-linejoin="round" stroke-miterlimit="10" width="19.375" height="1.861"/>
		</g>
		<path fill="none" stroke="#FFD600" stroke-width="6.7645" stroke-linejoin="round" stroke-miterlimit="10" d="M113.87,109.755
			c-2.059,2.153-5.476,2.231-7.63,0.173c-2.152-2.06-2.231-5.476-0.172-7.629"/>
		<path fill="none" stroke="#FFD600" stroke-width="6.7645" stroke-linejoin="round" stroke-miterlimit="10" d="M80.18,115.072
			c2.614,1.431,3.572,4.709,2.141,7.322c-1.431,2.615-4.709,3.573-7.324,2.144"/>
		<path fill="none" stroke="#FFD600" stroke-width="6.7645" stroke-linejoin="round" stroke-miterlimit="10" d="M50.472,138.647
			c-2.557-1.528-3.389-4.843-1.858-7.399c1.53-2.557,4.843-3.39,7.401-1.859"/>
		<path fill="none" stroke="#FFD600" stroke-width="6.7645" stroke-linejoin="round" stroke-miterlimit="10" d="M117.91,161.867
			c-1.838-2.344-1.43-5.736,0.917-7.574c2.345-1.838,5.735-1.428,7.575,0.915"/>
		<path fill="none" stroke="#FFD600" stroke-width="6.7645" stroke-linejoin="round" stroke-miterlimit="10" d="M60.776,89.516
			c-0.612-2.915,1.256-5.777,4.174-6.388c2.915-0.61,5.774,1.259,6.387,4.173"/>
		<path fill="none" stroke="#FFD600" stroke-width="6.7645" stroke-linejoin="round" stroke-miterlimit="10" d="M108.225,147.791
			c-1.839-2.343-1.43-5.736,0.916-7.574c2.344-1.838,5.736-1.427,7.575,0.916"/>
		<path fill="none" stroke="#FFD600" stroke-width="6.7645" stroke-linejoin="round" stroke-miterlimit="10" d="M48.508,97.855
			c2.466,1.67,3.113,5.025,1.441,7.492c-1.671,2.467-5.027,3.11-7.493,1.441"/>
		<path fill="none" stroke="#FFD600" stroke-width="6.7645" stroke-linejoin="round" stroke-miterlimit="10" d="M146.255,118.444
			c-1.53-2.555-0.701-5.868,1.858-7.399c2.556-1.53,5.868-0.698,7.399,1.857"/>
		<path fill="none" stroke="#FFD600" stroke-width="6.7645" stroke-linejoin="round" stroke-miterlimit="10" d="M138.485,89.285
			c2.46-1.68,5.818-1.049,7.498,1.414c1.68,2.46,1.046,5.816-1.414,7.498"/>
		<path fill="none" stroke="#FFD600" stroke-width="6.7645" stroke-linejoin="round" stroke-miterlimit="10" d="M147.31,140.816
			c2.795,1.029,4.228,4.133,3.195,6.929c-1.031,2.795-4.133,4.226-6.929,3.194"/>
		<path fill="none" stroke="#FFD600" stroke-width="6.7645" stroke-linejoin="round" stroke-miterlimit="10" d="M109.651,69.255
			c2.46-1.679,5.818-1.049,7.498,1.415c1.68,2.46,1.046,5.816-1.413,7.496"/>
		<path fill="none" stroke="#FFD600" stroke-width="6.7645" stroke-linejoin="round" stroke-miterlimit="10" d="M101.515,175.654
			c-0.059,2.979-2.519,5.35-5.5,5.291c-2.979-0.059-5.347-2.521-5.289-5.5"/>
		<g>
			
				<polygon fill="#FFD600" stroke="#FFD600" stroke-width="0.7154" stroke-linecap="round" stroke-linejoin="round" stroke-miterlimit="10" points="
				78.991,162.178 87.031,159.04 86.067,160.748 87.031,161.984 86.067,163.371 87.031,164.698 86.067,165.994 87.031,167.261 
				86.067,168.618 87.031,170.092 78.991,166.957 70.95,170.092 71.915,168.618 70.95,167.261 71.915,165.994 70.95,164.698 
				71.915,163.371 70.95,161.984 71.915,160.748 70.95,159.04 			"/>
			
				<polygon fill="#FDC100" stroke="#FDC100" stroke-width="0.4204" stroke-linecap="round" stroke-linejoin="round" stroke-miterlimit="10" points="
				87.031,164.698 86.067,165.994 87.031,167.261 86.067,168.618 87.031,170.092 78.991,166.957 70.95,170.092 71.915,168.618 
				70.95,167.261 71.915,165.994 70.95,164.698 			"/>
		</g>
		<g>
			
				<polygon fill="#FFD600" stroke="#FFD600" stroke-width="0.7154" stroke-linecap="round" stroke-linejoin="round" stroke-miterlimit="10" points="
				145.518,124.785 153.981,126.48 152.248,127.398 152.391,128.96 150.833,129.607 150.928,131.244 149.417,131.816 
				149.545,133.402 148.002,134.025 148.019,135.785 142.94,128.808 134.478,127.109 136.085,126.391 136.005,124.727 
				137.5,124.182 137.388,122.568 138.916,121.973 138.851,120.285 140.331,119.764 140.44,117.807 			"/>
			
				<polygon fill="#FDC100" stroke="#FDC100" stroke-width="0.4204" stroke-linecap="round" stroke-linejoin="round" stroke-miterlimit="10" points="
				150.928,131.244 149.417,131.816 149.545,133.402 148.002,134.025 148.019,135.785 142.94,128.808 134.478,127.109 
				136.085,126.391 136.005,124.727 137.5,124.182 137.388,122.568 			"/>
		</g>
		<g>
			
				<polygon fill="#FFD600" stroke="#FFD600" stroke-width="0.7154" stroke-linecap="round" stroke-linejoin="round" stroke-miterlimit="10" points="
				57.94,151.777 65.999,154.867 64.137,155.48 64.018,157.045 62.371,157.422 62.192,159.052 60.605,159.361 60.467,160.947 
				58.842,161.303 58.563,163.041 54.724,155.311 46.667,152.221 48.373,151.779 48.573,150.125 50.138,149.839 50.297,148.23 
				51.903,147.898 52.123,146.224 53.668,145.959 54.103,144.046 			"/>
			
				<polygon fill="#FDC100" stroke="#FDC100" stroke-width="0.4204" stroke-linecap="round" stroke-linejoin="round" stroke-miterlimit="10" points="
				62.192,159.052 60.605,159.361 60.467,160.947 58.842,161.303 58.563,163.041 54.724,155.311 46.667,152.221 48.373,151.779 
				48.573,150.125 50.138,149.839 50.297,148.23 			"/>
		</g>
		<g>
			
				<polygon fill="#FFD600" stroke="#FFD600" stroke-width="0.7154" stroke-linecap="round" stroke-linejoin="round" stroke-miterlimit="10" points="
				90.494,136.675 98.957,138.371 97.223,139.287 97.368,140.85 95.808,141.496 95.904,143.133 94.392,143.705 94.522,145.291 
				92.979,145.914 92.996,147.675 87.916,140.696 79.455,139 81.062,138.279 80.982,136.617 82.477,136.072 82.364,134.459 
				83.893,133.862 83.827,132.174 85.307,131.654 85.416,129.695 			"/>
			
				<polygon fill="#FDC100" stroke="#FDC100" stroke-width="0.4204" stroke-linecap="round" stroke-linejoin="round" stroke-miterlimit="10" points="
				95.904,143.133 94.392,143.705 94.522,145.291 92.979,145.914 92.996,147.675 87.916,140.696 79.455,139 81.062,138.279 
				80.982,136.617 82.477,136.072 82.364,134.459 			"/>
		</g>
		<g>
			
				<polygon fill="#FFD600" stroke="#FFD600" stroke-width="0.7154" stroke-linecap="round" stroke-linejoin="round" stroke-miterlimit="10" points="
				121.666,84.732 127.33,78.222 127.268,80.182 128.697,80.828 128.486,82.504 129.957,83.231 129.705,84.828 131.146,85.501 
				130.921,87.15 132.461,88.008 123.884,88.965 118.219,95.475 118.39,93.723 116.905,92.969 117.171,91.4 115.716,90.699 
				115.954,89.076 114.455,88.295 114.735,86.753 113.087,85.689 			"/>
			
				<polygon fill="#FDC100" stroke="#FDC100" stroke-width="0.4204" stroke-linecap="round" stroke-linejoin="round" stroke-miterlimit="10" points="
				129.957,83.231 129.705,84.828 131.146,85.501 130.921,87.15 132.461,88.008 123.884,88.965 118.219,95.475 118.39,93.723 
				116.905,92.969 117.171,91.4 115.716,90.699 			"/>
		</g>
		<g>
			<g>
				
					<circle fill="#006633" stroke="#006633" stroke-width="0.4244" stroke-linecap="round" stroke-linejoin="round" stroke-miterlimit="10" cx="95.494" cy="154.29" r="4.593"/>
			</g>
			<g>
				
					<path fill="#3AAA35" stroke="#3AAA35" stroke-width="0.4244" stroke-linecap="round" stroke-linejoin="round" stroke-miterlimit="10" d="
					M103.994,153.077"/>
			</g>
			<g>
				
					<path fill="#3AAA35" stroke="#3AAA35" stroke-width="0.4244" stroke-linecap="round" stroke-linejoin="round" stroke-miterlimit="10" d="
					M100.015,155.49"/>
			</g>
			<g>
				
					<circle fill="#006633" stroke="#006633" stroke-width="0.4244" stroke-linecap="round" stroke-linejoin="round" stroke-miterlimit="10" cx="93.799" cy="162.099" r="4.592"/>
			</g>
			<g>
				
					<circle fill="#044924" stroke="#044924" stroke-width="0.4244" stroke-linecap="round" stroke-linejoin="round" stroke-miterlimit="10" cx="97.599" cy="161.075" r="4.592"/>
			</g>
			<g>
				
					<circle fill="#006633" stroke="#006633" stroke-width="0.4244" stroke-linecap="round" stroke-linejoin="round" stroke-miterlimit="10" cx="104.629" cy="154.124" r="4.593"/>
			</g>
			<g>
				
					<circle fill="#044924" stroke="#044924" stroke-width="0.4244" stroke-linecap="round" stroke-linejoin="round" stroke-miterlimit="10" cx="103.959" cy="158.023" r="4.593"/>
			</g>
			<g>
				
					<polygon fill="#95C11F" stroke="#95C11F" stroke-width="0.4727" stroke-linecap="round" stroke-linejoin="round" stroke-miterlimit="10" points="
					108.588,170.211 106.875,167.383 106.188,162.846 105.181,163.455 105.875,167.504 103.894,164.236 103.53,164.455 
					103.351,164.566 102.988,164.786 104.969,168.055 101.7,165.567 100.693,166.178 104.398,168.883 106.113,171.712 				"/>
			</g>
			<g>
				
					<circle fill="#006633" stroke="#006633" stroke-width="0.4244" stroke-linecap="round" stroke-linejoin="round" stroke-miterlimit="10" cx="101.222" cy="153.509" r="4.593"/>
			</g>
			<g>
				
					<circle fill="#006633" stroke="#006633" stroke-width="0.4244" stroke-linecap="round" stroke-linejoin="round" stroke-miterlimit="10" cx="102.539" cy="155.678" r="4.593"/>
			</g>
			<g>
				
					<circle fill="#006633" stroke="#006633" stroke-width="0.4244" stroke-linecap="round" stroke-linejoin="round" stroke-miterlimit="10" cx="97.101" cy="158.687" r="4.593"/>
			</g>
			<g>
				
					<path fill="#3AAA35" stroke="#3AAA35" stroke-width="0.4244" stroke-linecap="round" stroke-linejoin="round" stroke-miterlimit="10" d="
					M103.225,153.543"/>
			</g>
			<g>
				
					<path fill="#3AAA35" stroke="#3AAA35" stroke-width="0.4244" stroke-linecap="round" stroke-linejoin="round" stroke-miterlimit="10" d="
					M99.244,155.957"/>
			</g>
			<g>
				<g>
					<polygon fill="#79AA22" points="106.113,171.712 104.398,168.883 100.693,166.178 101.7,165.567 104.969,168.055 
						102.988,164.786 103.351,164.566 107.26,171.016 					"/>
				</g>
				<g>
					<path fill="#79AA22" d="M107.466,171.07l-1.274,0.771c-0.072,0.043-0.166,0.021-0.211-0.053l-1.699-2.799l-3.68-2.688
						c-0.042-0.03-0.064-0.079-0.062-0.13s0.03-0.1,0.074-0.126l1.006-0.611c0.054-0.031,0.122-0.028,0.172,0.01l2.626,1.997
						l-1.562-2.576c-0.044-0.072-0.021-0.166,0.051-0.21l0.489-0.297L107.466,171.07z M106.165,171.5l0.886-0.537l-3.752-6.188
						l-0.1,0.062l1.901,3.135c0.039,0.064,0.027,0.146-0.03,0.195c-0.055,0.047-0.136,0.053-0.194,0.008l-3.187-2.424l-0.722,0.437
						l3.52,2.571c0.017,0.012,0.031,0.027,0.042,0.043L106.165,171.5z"/>
				</g>
			</g>
		</g>
		<g>
			<g>
				
					<circle fill="#006633" stroke="#006633" stroke-width="0.4244" stroke-linecap="round" stroke-linejoin="round" stroke-miterlimit="10" cx="94.016" cy="118.469" r="4.593"/>
			</g>
			<g>
				
					<path fill="#3AAA35" stroke="#3AAA35" stroke-width="0.4244" stroke-linecap="round" stroke-linejoin="round" stroke-miterlimit="10" d="
					M102.515,117.256"/>
			</g>
			<g>
				
					<path fill="#3AAA35" stroke="#3AAA35" stroke-width="0.4244" stroke-linecap="round" stroke-linejoin="round" stroke-miterlimit="10" d="
					M98.535,119.67"/>
			</g>
			<g>
				
					<circle fill="#006633" stroke="#006633" stroke-width="0.4244" stroke-linecap="round" stroke-linejoin="round" stroke-miterlimit="10" cx="92.319" cy="126.277" r="4.592"/>
			</g>
			<g>
				
					<circle fill="#044924" stroke="#044924" stroke-width="0.4244" stroke-linecap="round" stroke-linejoin="round" stroke-miterlimit="10" cx="96.12" cy="125.254" r="4.593"/>
			</g>
			<g>
				
					<circle fill="#006633" stroke="#006633" stroke-width="0.4244" stroke-linecap="round" stroke-linejoin="round" stroke-miterlimit="10" cx="103.149" cy="118.302" r="4.593"/>
			</g>
			<g>
				
					<circle fill="#044924" stroke="#044924" stroke-width="0.4244" stroke-linecap="round" stroke-linejoin="round" stroke-miterlimit="10" cx="102.48" cy="122.202" r="4.593"/>
			</g>
			<g>
				
					<polygon fill="#95C11F" stroke="#95C11F" stroke-width="0.4727" stroke-linecap="round" stroke-linejoin="round" stroke-miterlimit="10" points="
					107.109,134.389 105.395,131.562 104.709,127.024 103.702,127.635 104.396,131.683 102.414,128.414 102.052,128.636 
					101.872,128.746 101.508,128.964 103.49,132.233 100.22,129.745 99.213,130.357 102.918,133.062 104.633,135.891 				"/>
			</g>
			<g>
				
					<circle fill="#006633" stroke="#006633" stroke-width="0.4244" stroke-linecap="round" stroke-linejoin="round" stroke-miterlimit="10" cx="99.743" cy="117.688" r="4.593"/>
			</g>
			<g>
				
					<circle fill="#006633" stroke="#006633" stroke-width="0.4244" stroke-linecap="round" stroke-linejoin="round" stroke-miterlimit="10" cx="101.059" cy="119.857" r="4.593"/>
			</g>
			<g>
				
					<circle fill="#006633" stroke="#006633" stroke-width="0.4244" stroke-linecap="round" stroke-linejoin="round" stroke-miterlimit="10" cx="95.622" cy="122.866" r="4.593"/>
			</g>
			<g>
				
					<path fill="#3AAA35" stroke="#3AAA35" stroke-width="0.4244" stroke-linecap="round" stroke-linejoin="round" stroke-miterlimit="10" d="
					M101.744,117.724"/>
			</g>
			<g>
				
					<path fill="#3AAA35" stroke="#3AAA35" stroke-width="0.4244" stroke-linecap="round" stroke-linejoin="round" stroke-miterlimit="10" d="
					M97.766,120.137"/>
			</g>
			<g>
				<g>
					<polygon fill="#79AA22" points="104.633,135.891 102.918,133.062 99.213,130.357 100.22,129.745 103.49,132.233 
						101.508,128.964 101.872,128.746 105.782,135.193 					"/>
				</g>
				<g>
					<path fill="#79AA22" d="M105.987,135.248l-1.275,0.773c-0.072,0.043-0.167,0.02-0.21-0.053l-1.698-2.801l-3.681-2.688
						c-0.042-0.029-0.065-0.079-0.062-0.131c0.001-0.051,0.029-0.098,0.073-0.125l1.007-0.609c0.053-0.033,0.122-0.029,0.172,0.009
						l2.627,1.997l-1.562-2.578c-0.043-0.071-0.021-0.164,0.051-0.209l0.489-0.297L105.987,135.248z M104.685,135.68l0.886-0.536
						l-3.751-6.188l-0.101,0.061l1.901,3.138c0.039,0.063,0.027,0.144-0.029,0.194c-0.055,0.048-0.137,0.052-0.195,0.008
						l-3.186-2.424l-0.721,0.438l3.52,2.568c0.016,0.013,0.03,0.027,0.041,0.045L104.685,135.68z"/>
				</g>
			</g>
		</g>
		<g>
			<g>
				
					<circle fill="#006633" stroke="#006633" stroke-width="0.4244" stroke-linecap="round" stroke-linejoin="round" stroke-miterlimit="10" cx="63.784" cy="134.873" r="4.593"/>
			</g>
			<g>
				
					<path fill="#3AAA35" stroke="#3AAA35" stroke-width="0.4244" stroke-linecap="round" stroke-linejoin="round" stroke-miterlimit="10" d="
					M72.284,133.66"/>
			</g>
			<g>
				
					<path fill="#3AAA35" stroke="#3AAA35" stroke-width="0.4244" stroke-linecap="round" stroke-linejoin="round" stroke-miterlimit="10" d="
					M68.304,136.074"/>
			</g>
			<g>
				
					<circle fill="#006633" stroke="#006633" stroke-width="0.4244" stroke-linecap="round" stroke-linejoin="round" stroke-miterlimit="10" cx="62.088" cy="142.682" r="4.592"/>
			</g>
			<g>
				
					<circle fill="#044924" stroke="#044924" stroke-width="0.4244" stroke-linecap="round" stroke-linejoin="round" stroke-miterlimit="10" cx="65.889" cy="141.659" r="4.592"/>
			</g>
			<g>
				
					<circle fill="#006633" stroke="#006633" stroke-width="0.4244" stroke-linecap="round" stroke-linejoin="round" stroke-miterlimit="10" cx="72.918" cy="134.706" r="4.593"/>
			</g>
			<g>
				
					<circle fill="#044924" stroke="#044924" stroke-width="0.4244" stroke-linecap="round" stroke-linejoin="round" stroke-miterlimit="10" cx="72.249" cy="138.607" r="4.593"/>
			</g>
			<g>
				
					<polygon fill="#95C11F" stroke="#95C11F" stroke-width="0.4727" stroke-linecap="round" stroke-linejoin="round" stroke-miterlimit="10" points="
					76.879,150.793 75.163,147.966 74.478,143.43 73.47,144.039 74.165,148.088 72.183,144.82 71.82,145.039 71.64,145.149 
					71.277,145.369 73.259,148.637 69.988,146.15 68.983,146.761 72.688,149.467 74.402,152.295 				"/>
			</g>
			<g>
				
					<circle fill="#006633" stroke="#006633" stroke-width="0.4244" stroke-linecap="round" stroke-linejoin="round" stroke-miterlimit="10" cx="69.512" cy="134.092" r="4.593"/>
			</g>
			<g>
				
					<circle fill="#006633" stroke="#006633" stroke-width="0.4244" stroke-linecap="round" stroke-linejoin="round" stroke-miterlimit="10" cx="70.827" cy="136.262" r="4.593"/>
			</g>
			<g>
				
					<circle fill="#006633" stroke="#006633" stroke-width="0.4244" stroke-linecap="round" stroke-linejoin="round" stroke-miterlimit="10" cx="65.391" cy="139.27" r="4.593"/>
			</g>
			<g>
				
					<path fill="#3AAA35" stroke="#3AAA35" stroke-width="0.4244" stroke-linecap="round" stroke-linejoin="round" stroke-miterlimit="10" d="
					M71.514,134.127"/>
			</g>
			<g>
				
					<path fill="#3AAA35" stroke="#3AAA35" stroke-width="0.4244" stroke-linecap="round" stroke-linejoin="round" stroke-miterlimit="10" d="
					M67.534,136.541"/>
			</g>
			<g>
				<g>
					<polygon fill="#79AA22" points="74.402,152.295 72.688,149.467 68.983,146.761 69.988,146.15 73.259,148.637 71.277,145.369 
						71.64,145.149 75.55,151.6 					"/>
				</g>
				<g>
					<path fill="#79AA22" d="M75.755,151.654l-1.274,0.771c-0.072,0.043-0.166,0.021-0.211-0.053l-1.699-2.801l-3.68-2.688
						c-0.042-0.029-0.064-0.078-0.062-0.131c0.002-0.051,0.03-0.098,0.074-0.125l1.006-0.61c0.054-0.031,0.123-0.028,0.172,0.009
						l2.626,1.998l-1.562-2.576c-0.044-0.074-0.021-0.166,0.051-0.211l0.489-0.297L75.755,151.654z M74.454,152.084l0.885-0.537
						l-3.751-6.188l-0.1,0.062l1.901,3.136c0.039,0.064,0.026,0.146-0.03,0.194c-0.055,0.048-0.136,0.054-0.194,0.008l-3.186-2.423
						l-0.722,0.437l3.52,2.569c0.017,0.014,0.031,0.027,0.042,0.045L74.454,152.084z"/>
				</g>
			</g>
		</g>
		<g>
			<g>
				
					<circle fill="#006633" stroke="#006633" stroke-width="0.4244" stroke-linecap="round" stroke-linejoin="round" stroke-miterlimit="10" cx="62.305" cy="99.053" r="4.593"/>
			</g>
			<g>
				
					<path fill="#3AAA35" stroke="#3AAA35" stroke-width="0.4244" stroke-linecap="round" stroke-linejoin="round" stroke-miterlimit="10" d="
					M70.805,97.84"/>
			</g>
			<g>
				
					<path fill="#3AAA35" stroke="#3AAA35" stroke-width="0.4244" stroke-linecap="round" stroke-linejoin="round" stroke-miterlimit="10" d="
					M66.825,100.253"/>
			</g>
			<g>
				
					<circle fill="#006633" stroke="#006633" stroke-width="0.4244" stroke-linecap="round" stroke-linejoin="round" stroke-miterlimit="10" cx="60.609" cy="106.861" r="4.593"/>
			</g>
			<g>
				
					<circle fill="#044924" stroke="#044924" stroke-width="0.4244" stroke-linecap="round" stroke-linejoin="round" stroke-miterlimit="10" cx="64.41" cy="105.837" r="4.592"/>
			</g>
			<g>
				
					<circle fill="#006633" stroke="#006633" stroke-width="0.4244" stroke-linecap="round" stroke-linejoin="round" stroke-miterlimit="10" cx="71.439" cy="98.886" r="4.593"/>
			</g>
			<g>
				
					<circle fill="#044924" stroke="#044924" stroke-width="0.4244" stroke-linecap="round" stroke-linejoin="round" stroke-miterlimit="10" cx="70.77" cy="102.786" r="4.593"/>
			</g>
			<g>
				
					<polygon fill="#95C11F" stroke="#95C11F" stroke-width="0.4727" stroke-linecap="round" stroke-linejoin="round" stroke-miterlimit="10" points="
					75.398,114.972 73.685,112.146 72.999,107.608 71.992,108.218 72.685,112.267 70.704,108.998 70.341,109.219 70.161,109.33 
					69.798,109.547 71.779,112.816 68.51,110.328 67.503,110.939 71.208,113.646 72.924,116.475 				"/>
			</g>
			<g>
				
					<circle fill="#006633" stroke="#006633" stroke-width="0.4244" stroke-linecap="round" stroke-linejoin="round" stroke-miterlimit="10" cx="68.032" cy="98.271" r="4.592"/>
			</g>
			<g>
				
					<circle fill="#006633" stroke="#006633" stroke-width="0.4244" stroke-linecap="round" stroke-linejoin="round" stroke-miterlimit="10" cx="69.349" cy="100.441" r="4.593"/>
			</g>
			<g>
				
					<circle fill="#006633" stroke="#006633" stroke-width="0.4244" stroke-linecap="round" stroke-linejoin="round" stroke-miterlimit="10" cx="63.912" cy="103.449" r="4.592"/>
			</g>
			<g>
				
					<path fill="#3AAA35" stroke="#3AAA35" stroke-width="0.4244" stroke-linecap="round" stroke-linejoin="round" stroke-miterlimit="10" d="
					M70.034,98.307"/>
			</g>
			<g>
				
					<path fill="#3AAA35" stroke="#3AAA35" stroke-width="0.4244" stroke-linecap="round" stroke-linejoin="round" stroke-miterlimit="10" d="
					M66.055,100.721"/>
			</g>
			<g>
				<g>
					<polygon fill="#79AA22" points="72.924,116.475 71.208,113.646 67.503,110.939 68.51,110.328 71.779,112.816 69.798,109.547 
						70.161,109.33 74.071,115.777 					"/>
				</g>
				<g>
					<path fill="#79AA22" d="M74.277,115.832l-1.275,0.772c-0.072,0.044-0.167,0.021-0.211-0.052l-1.698-2.801l-3.68-2.689
						c-0.041-0.028-0.065-0.078-0.062-0.129c0.002-0.052,0.029-0.099,0.073-0.125l1.007-0.611c0.053-0.031,0.122-0.028,0.172,0.01
						l2.626,1.996l-1.563-2.576c-0.043-0.072-0.02-0.166,0.052-0.209l0.488-0.297L74.277,115.832z M72.975,116.264l0.885-0.537
						l-3.75-6.188l-0.101,0.061l1.901,3.137c0.039,0.063,0.027,0.144-0.029,0.194c-0.055,0.048-0.137,0.052-0.195,0.007
						l-3.186-2.422l-0.722,0.436l3.519,2.569c0.017,0.013,0.031,0.028,0.042,0.046L72.975,116.264z"/>
				</g>
			</g>
		</g>
		<g>
			<g>
				
					<circle fill="#006633" stroke="#006633" stroke-width="0.4244" stroke-linecap="round" stroke-linejoin="round" stroke-miterlimit="10" cx="127.367" cy="134.873" r="4.593"/>
			</g>
			<g>
				
					<path fill="#3AAA35" stroke="#3AAA35" stroke-width="0.4244" stroke-linecap="round" stroke-linejoin="round" stroke-miterlimit="10" d="
					M135.868,133.66"/>
			</g>
			<g>
				
					<path fill="#3AAA35" stroke="#3AAA35" stroke-width="0.4244" stroke-linecap="round" stroke-linejoin="round" stroke-miterlimit="10" d="
					M131.887,136.074"/>
			</g>
			<g>
				
					<circle fill="#006633" stroke="#006633" stroke-width="0.4244" stroke-linecap="round" stroke-linejoin="round" stroke-miterlimit="10" cx="125.672" cy="142.682" r="4.593"/>
			</g>
			<g>
				
					<circle fill="#044924" stroke="#044924" stroke-width="0.4244" stroke-linecap="round" stroke-linejoin="round" stroke-miterlimit="10" cx="129.472" cy="141.659" r="4.592"/>
			</g>
			<g>
				
					<circle fill="#006633" stroke="#006633" stroke-width="0.4244" stroke-linecap="round" stroke-linejoin="round" stroke-miterlimit="10" cx="136.501" cy="134.706" r="4.592"/>
			</g>
			<g>
				
					<circle fill="#044924" stroke="#044924" stroke-width="0.4244" stroke-linecap="round" stroke-linejoin="round" stroke-miterlimit="10" cx="135.833" cy="138.607" r="4.592"/>
			</g>
			<g>
				
					<polygon fill="#95C11F" stroke="#95C11F" stroke-width="0.4727" stroke-linecap="round" stroke-linejoin="round" stroke-miterlimit="10" points="
					140.461,150.793 138.748,147.966 138.061,143.43 137.053,144.039 137.748,148.088 135.767,144.82 135.404,145.039 
					135.224,145.149 134.861,145.369 136.841,148.637 133.572,146.15 132.566,146.761 136.27,149.467 137.986,152.295 				"/>
			</g>
			<g>
				
					<circle fill="#006633" stroke="#006633" stroke-width="0.4244" stroke-linecap="round" stroke-linejoin="round" stroke-miterlimit="10" cx="133.095" cy="134.092" r="4.592"/>
			</g>
			<g>
				
					<circle fill="#006633" stroke="#006633" stroke-width="0.4244" stroke-linecap="round" stroke-linejoin="round" stroke-miterlimit="10" cx="134.411" cy="136.262" r="4.593"/>
			</g>
			<g>
				
					<circle fill="#006633" stroke="#006633" stroke-width="0.4244" stroke-linecap="round" stroke-linejoin="round" stroke-miterlimit="10" cx="128.974" cy="139.27" r="4.593"/>
			</g>
			<g>
				
					<path fill="#3AAA35" stroke="#3AAA35" stroke-width="0.4244" stroke-linecap="round" stroke-linejoin="round" stroke-miterlimit="10" d="
					M135.097,134.127"/>
			</g>
			<g>
				
					<path fill="#3AAA35" stroke="#3AAA35" stroke-width="0.4244" stroke-linecap="round" stroke-linejoin="round" stroke-miterlimit="10" d="
					M131.117,136.541"/>
			</g>
			<g>
				<g>
					<polygon fill="#79AA22" points="137.986,152.295 136.27,149.467 132.566,146.761 133.572,146.15 136.841,148.637 
						134.861,145.369 135.224,145.149 139.133,151.6 					"/>
				</g>
				<g>
					<path fill="#79AA22" d="M139.338,151.654l-1.273,0.771c-0.072,0.043-0.166,0.021-0.211-0.053l-1.698-2.801l-3.681-2.688
						c-0.042-0.029-0.064-0.078-0.062-0.131c0.001-0.051,0.029-0.098,0.072-0.125l1.006-0.61c0.055-0.031,0.123-0.028,0.174,0.009
						l2.627,1.998l-1.564-2.576c-0.042-0.074-0.02-0.166,0.053-0.211l0.489-0.297L139.338,151.654z M138.037,152.084l0.887-0.537
						l-3.752-6.188l-0.1,0.062l1.901,3.136c0.038,0.064,0.026,0.146-0.03,0.194c-0.055,0.048-0.137,0.054-0.194,0.008l-3.186-2.423
						l-0.722,0.437l3.52,2.569c0.018,0.014,0.031,0.027,0.042,0.045L138.037,152.084z"/>
				</g>
			</g>
		</g>
		<g>
			<g>
				
					<circle fill="#006633" stroke="#006633" stroke-width="0.4244" stroke-linecap="round" stroke-linejoin="round" stroke-miterlimit="10" cx="125.889" cy="99.053" r="4.593"/>
			</g>
			<g>
				
					<path fill="#3AAA35" stroke="#3AAA35" stroke-width="0.4244" stroke-linecap="round" stroke-linejoin="round" stroke-miterlimit="10" d="
					M134.387,97.84"/>
			</g>
			<g>
				
					<path fill="#3AAA35" stroke="#3AAA35" stroke-width="0.4244" stroke-linecap="round" stroke-linejoin="round" stroke-miterlimit="10" d="
					M130.408,100.253"/>
			</g>
			<g>
				
					<circle fill="#006633" stroke="#006633" stroke-width="0.4244" stroke-linecap="round" stroke-linejoin="round" stroke-miterlimit="10" cx="124.192" cy="106.861" r="4.593"/>
			</g>
			<g>
				
					<circle fill="#044924" stroke="#044924" stroke-width="0.4244" stroke-linecap="round" stroke-linejoin="round" stroke-miterlimit="10" cx="127.993" cy="105.837" r="4.592"/>
			</g>
			<g>
				
					<circle fill="#006633" stroke="#006633" stroke-width="0.4244" stroke-linecap="round" stroke-linejoin="round" stroke-miterlimit="10" cx="135.022" cy="98.886" r="4.593"/>
			</g>
			<g>
				
					<circle fill="#044924" stroke="#044924" stroke-width="0.4244" stroke-linecap="round" stroke-linejoin="round" stroke-miterlimit="10" cx="134.353" cy="102.786" r="4.593"/>
			</g>
			<g>
				
					<polygon fill="#95C11F" stroke="#95C11F" stroke-width="0.4727" stroke-linecap="round" stroke-linejoin="round" stroke-miterlimit="10" points="
					138.982,114.972 137.268,112.146 136.583,107.608 135.576,108.218 136.268,112.267 134.288,108.998 133.923,109.219 
					133.746,109.33 133.38,109.547 135.363,112.816 132.093,110.328 131.086,110.939 134.792,113.646 136.507,116.475 				"/>
			</g>
			<g>
				
					<circle fill="#006633" stroke="#006633" stroke-width="0.4244" stroke-linecap="round" stroke-linejoin="round" stroke-miterlimit="10" cx="131.616" cy="98.271" r="4.592"/>
			</g>
			<g>
				
					<circle fill="#006633" stroke="#006633" stroke-width="0.4244" stroke-linecap="round" stroke-linejoin="round" stroke-miterlimit="10" cx="132.932" cy="100.441" r="4.593"/>
			</g>
			<g>
				
					<circle fill="#006633" stroke="#006633" stroke-width="0.4244" stroke-linecap="round" stroke-linejoin="round" stroke-miterlimit="10" cx="127.495" cy="103.449" r="4.593"/>
			</g>
			<g>
				
					<path fill="#3AAA35" stroke="#3AAA35" stroke-width="0.4244" stroke-linecap="round" stroke-linejoin="round" stroke-miterlimit="10" d="
					M133.618,98.307"/>
			</g>
			<g>
				
					<path fill="#3AAA35" stroke="#3AAA35" stroke-width="0.4244" stroke-linecap="round" stroke-linejoin="round" stroke-miterlimit="10" d="
					M129.638,100.721"/>
			</g>
			<g>
				<g>
					<polygon fill="#79AA22" points="136.507,116.475 134.792,113.646 131.086,110.939 132.093,110.328 135.363,112.816 
						133.38,109.547 133.746,109.33 137.655,115.777 					"/>
				</g>
				<g>
					<path fill="#79AA22" d="M137.86,115.832l-1.274,0.772c-0.072,0.044-0.166,0.021-0.21-0.052l-1.7-2.801l-3.68-2.689
						c-0.041-0.028-0.065-0.078-0.062-0.129c0.002-0.052,0.03-0.099,0.074-0.125l1.006-0.611c0.054-0.031,0.123-0.028,0.172,0.01
						l2.627,1.996l-1.562-2.576c-0.043-0.072-0.02-0.166,0.053-0.209l0.488-0.297L137.86,115.832z M136.558,116.264l0.886-0.537
						l-3.751-6.188l-0.102,0.061l1.902,3.137c0.039,0.063,0.027,0.144-0.029,0.194c-0.055,0.048-0.137,0.052-0.194,0.007
						l-3.187-2.422l-0.721,0.436l3.52,2.569c0.017,0.013,0.031,0.028,0.041,0.046L136.558,116.264z"/>
				</g>
			</g>
		</g>
		<g>
			<g>
				
					<circle fill="#006633" stroke="#006633" stroke-width="0.4244" stroke-linecap="round" stroke-linejoin="round" stroke-miterlimit="10" cx="94.016" cy="80.283" r="4.593"/>
			</g>
			<g>
				
					<path fill="#3AAA35" stroke="#3AAA35" stroke-width="0.4244" stroke-linecap="round" stroke-linejoin="round" stroke-miterlimit="10" d="
					M102.515,79.069"/>
			</g>
			<g>
				
					<path fill="#3AAA35" stroke="#3AAA35" stroke-width="0.4244" stroke-linecap="round" stroke-linejoin="round" stroke-miterlimit="10" d="
					M98.535,81.482"/>
			</g>
			<g>
				
					<circle fill="#006633" stroke="#006633" stroke-width="0.4244" stroke-linecap="round" stroke-linejoin="round" stroke-miterlimit="10" cx="92.319" cy="88.092" r="4.592"/>
			</g>
			<g>
				
					<circle fill="#044924" stroke="#044924" stroke-width="0.4244" stroke-linecap="round" stroke-linejoin="round" stroke-miterlimit="10" cx="96.12" cy="87.068" r="4.592"/>
			</g>
			<g>
				
					<circle fill="#006633" stroke="#006633" stroke-width="0.4244" stroke-linecap="round" stroke-linejoin="round" stroke-miterlimit="10" cx="103.149" cy="80.116" r="4.593"/>
			</g>
			<g>
				
					<circle fill="#044924" stroke="#044924" stroke-width="0.4244" stroke-linecap="round" stroke-linejoin="round" stroke-miterlimit="10" cx="102.48" cy="84.015" r="4.593"/>
			</g>
			<g>
				
					<polygon fill="#95C11F" stroke="#95C11F" stroke-width="0.4727" stroke-linecap="round" stroke-linejoin="round" stroke-miterlimit="10" points="
					107.109,96.202 105.395,93.375 104.709,88.839 103.702,89.448 104.396,93.496 102.414,90.229 102.052,90.449 101.872,90.559 
					101.508,90.777 103.49,94.046 100.22,91.559 99.213,92.17 102.918,94.875 104.633,97.703 				"/>
			</g>
			<g>
				
					<circle fill="#006633" stroke="#006633" stroke-width="0.4244" stroke-linecap="round" stroke-linejoin="round" stroke-miterlimit="10" cx="99.743" cy="79.501" r="4.593"/>
			</g>
			<g>
				
					<circle fill="#006633" stroke="#006633" stroke-width="0.4244" stroke-linecap="round" stroke-linejoin="round" stroke-miterlimit="10" cx="101.059" cy="81.671" r="4.593"/>
			</g>
			<g>
				
					<circle fill="#006633" stroke="#006633" stroke-width="0.4244" stroke-linecap="round" stroke-linejoin="round" stroke-miterlimit="10" cx="95.622" cy="84.68" r="4.593"/>
			</g>
			<g>
				
					<path fill="#3AAA35" stroke="#3AAA35" stroke-width="0.4244" stroke-linecap="round" stroke-linejoin="round" stroke-miterlimit="10" d="
					M101.744,79.537"/>
			</g>
			<g>
				
					<path fill="#3AAA35" stroke="#3AAA35" stroke-width="0.4244" stroke-linecap="round" stroke-linejoin="round" stroke-miterlimit="10" d="
					M97.766,81.949"/>
			</g>
			<g>
				<g>
					<polygon fill="#79AA22" points="104.633,97.703 102.918,94.875 99.213,92.17 100.22,91.559 103.49,94.046 101.508,90.777 
						101.872,90.559 105.782,97.008 					"/>
				</g>
				<g>
					<path fill="#79AA22" d="M105.987,97.062l-1.275,0.771c-0.072,0.043-0.167,0.021-0.21-0.053l-1.698-2.799l-3.681-2.689
						c-0.042-0.029-0.065-0.078-0.062-0.13c0.001-0.051,0.029-0.099,0.073-0.124l1.007-0.611c0.053-0.031,0.122-0.029,0.172,0.009
						l2.627,1.997l-1.562-2.576c-0.043-0.072-0.021-0.166,0.051-0.21l0.489-0.296L105.987,97.062z M104.685,97.492l0.886-0.536
						l-3.751-6.188l-0.101,0.062l1.901,3.137c0.039,0.063,0.027,0.145-0.029,0.193c-0.055,0.049-0.137,0.053-0.195,0.008
						l-3.186-2.422l-0.721,0.436l3.52,2.57c0.016,0.012,0.03,0.027,0.041,0.045L104.685,97.492z"/>
				</g>
			</g>
		</g>
	</g>
</g>
</svg>
