<?xml version="1.0" encoding="utf-8"?>
<!-- Generator: Adobe Illustrator 15.0.2, SVG Export Plug-In . SVG Version: 6.00 Build 0)  -->
<!DOCTYPE svg PUBLIC "-//W3C//DTD SVG 1.1//EN" "http://www.w3.org/Graphics/SVG/1.1/DTD/svg11.dtd">
<svg version="1.1" id="Lager_1" xmlns="http://www.w3.org/2000/svg" xmlns:xlink="http://www.w3.org/1999/xlink" x="0px" y="0px"
	 width="134.497px" height="181.443px" viewBox="0 0 134.497 181.443" enable-background="new 0 0 134.497 181.443"
	 xml:space="preserve">
<g>
	<rect y="45.724" fill="#F6F6F6" width="131.971" height="135.719"/>
	
		<rect x="8.455" y="71.604" fill="#878787" stroke="#878787" stroke-width="1.4744" stroke-linecap="round" stroke-linejoin="round" stroke-miterlimit="10" width="115.063" height="64.974"/>
	
		<polygon fill="#575756" stroke="#575756" stroke-width="1.4744" stroke-linecap="round" stroke-linejoin="round" stroke-miterlimit="10" points="
		123.518,136.578 8.455,136.578 8.455,71.604 	"/>
	<g>
		<circle fill="#B2B2B2" cx="104.608" cy="58.151" r="5.535"/>
		
			<rect x="103.975" y="54.588" fill="#EDEDED" stroke="#EDEDED" stroke-width="1.1718" stroke-linecap="round" stroke-linejoin="round" stroke-miterlimit="10" width="1.38" height="7.126"/>
	</g>
	<g>
		<circle fill="#B2B2B2" cx="119.655" cy="58.151" r="5.536"/>
		
			<rect x="119.024" y="54.588" fill="#EDEDED" stroke="#EDEDED" stroke-width="1.1718" stroke-linecap="round" stroke-linejoin="round" stroke-miterlimit="10" width="1.379" height="7.126"/>
	</g>
	<g>
		<circle fill="#B2B2B2" cx="27.173" cy="58.15" r="5.536"/>
		
			<rect x="26.533" y="54.561" transform="matrix(0.8683 -0.496 0.496 0.8683 -25.2441 21.1551)" fill="#EDEDED" stroke="#EDEDED" stroke-width="1.1718" stroke-linecap="round" stroke-linejoin="round" stroke-miterlimit="10" width="1.378" height="7.126"/>
	</g>
	<g>
		<circle fill="#B2B2B2" cx="12.769" cy="58.151" r="5.536"/>
		
			<rect x="12.136" y="54.588" fill="#EDEDED" stroke="#EDEDED" stroke-width="1.1718" stroke-linecap="round" stroke-linejoin="round" stroke-miterlimit="10" width="1.379" height="7.126"/>
	</g>
	<g>
		<circle fill="#B2B2B2" cx="55.983" cy="58.151" r="5.535"/>
		
			<rect x="55.351" y="54.588" fill="#EDEDED" stroke="#EDEDED" stroke-width="1.1718" stroke-linecap="round" stroke-linejoin="round" stroke-miterlimit="10" width="1.379" height="7.126"/>
	</g>
	<g>
		<circle fill="#B2B2B2" cx="41.578" cy="58.151" r="5.535"/>
		
			<rect x="40.859" y="54.54" transform="matrix(-0.5431 -0.8397 0.8397 -0.5431 15.3264 124.5456)" fill="#EDEDED" stroke="#EDEDED" stroke-width="1.1718" stroke-linecap="round" stroke-linejoin="round" stroke-miterlimit="10" width="1.378" height="7.125"/>
	</g>
	<g>
		<rect x="17.434" y="80.376" fill="#EDEDED" width="95.239" height="4.598"/>
		<polygon fill="#C6C6C6" points="17.434,84.974 112.672,84.974 112.672,82.675 17.434,82.76 		"/>
	</g>
	<rect y="41.909" fill="#575756" width="131.971" height="3.814"/>
	
		<path fill="#D21B37" stroke="#D21B37" stroke-width="0.7979" stroke-linecap="round" stroke-linejoin="round" stroke-miterlimit="10" d="
		M134.082,16.667c0,0.254-0.224,0.459-0.501,0.459h-9.855c-0.276,0-0.5-0.205-0.5-0.459v-2.031c0-0.252,0.224-0.458,0.5-0.458h9.855
		c0.277,0,0.501,0.205,0.501,0.458V16.667z"/>
	<path fill="#C11733" d="M134.497,15.651v1.015c0,0.464-0.41,0.841-0.916,0.841h-9.855c-0.506,0-0.917-0.377-0.917-0.841v-1.015
		H134.497z"/>
	<rect x="72.615" y="9.438" fill="#AF183A" width="51.54" height="1.899"/>
	<rect x="72.615" y="9.438" fill="#A01928" width="25.667" height="1.899"/>
	<rect x="7.409" y="14.221" fill="#BDBCBC" width="48.574" height="1.899"/>
	<rect x="7.409" y="14.221" fill="#9D9D9C" width="24.302" height="1.899"/>
	
		<path fill="#D21B37" stroke="#D21B37" stroke-width="0.7979" stroke-linecap="round" stroke-linejoin="round" stroke-miterlimit="10" d="
		M73.342,16.667c0,0.254-0.223,0.459-0.5,0.459h-9.855c-0.277,0-0.5-0.205-0.5-0.459v-2.031c0-0.252,0.223-0.458,0.5-0.458h9.855
		c0.277,0,0.5,0.205,0.5,0.458V16.667z"/>
	<g>
		<path fill="#C11733" d="M62.489,15.651v1.015c0,0.254,0.223,0.459,0.499,0.459h9.855c0.276,0,0.501-0.205,0.501-0.459v-1.015
			H62.489z"/>
		<path fill="#C11733" d="M73.76,15.651v1.015c0,0.464-0.412,0.841-0.917,0.841h-9.855c-0.506,0-0.917-0.377-0.917-0.841v-1.015
			H73.76z M62.903,16.033v0.634c0,0.042,0.039,0.075,0.085,0.075h9.855c0.046,0,0.083-0.033,0.083-0.075v-0.634H62.903z"/>
	</g>
	
		<rect x="97.727" y="1.407" fill="#3C3C3B" stroke="#3C3C3B" stroke-width="0.977" stroke-linecap="round" stroke-linejoin="round" stroke-miterlimit="10" width="1.609" height="3.311"/>
	<g>
		<rect x="73.106" y="11.338" fill="#D21B37" width="50.354" height="27.088"/>
		<path fill="#D21B37" d="M124.155,11.338v27.088c0,0.259-0.211,0.471-0.471,0.471H73.332c-0.261,0-0.472-0.212-0.472-0.471V11.338
			 M73.578,37.955h49.41V11.81h-49.41V37.955z"/>
	</g>
	<g>
		<rect x="73.106" y="11.338" fill="#C11733" width="25.176" height="27.088"/>
		<path fill="#C11733" d="M98.282,11.338v27.539H73.106c-0.271,0-0.491-0.202-0.491-0.451V11.338H98.282z M73.598,37.975h24.193
			V11.79H73.598V37.975z"/>
	</g>
	
		<rect x="93.833" y="0.534" fill="#575756" stroke="#575756" stroke-width="1.068" stroke-linecap="round" stroke-linejoin="round" stroke-miterlimit="10" width="9.434" height="1.746"/>
	<g>
		<rect x="93.833" y="0.534" fill="#3C3C3B" width="4.717" height="1.746"/>
		<path fill="#3C3C3B" d="M98.549,2.813h-4.717c-0.295,0-0.534-0.24-0.534-0.534V0.534c0-0.293,0.239-0.532,0.534-0.532h4.717V2.813
			z M94.368,1.745h3.648V1.069h-3.648V1.745z"/>
	</g>
	<g>
		<path fill="#D21B37" d="M98.299,6.118c18.939,0,25.193,1.907,25.193,1.907v1.413H98.299H73.106V8.025
			C73.106,8.025,79.36,6.118,98.299,6.118z"/>
		<path fill="#D21B37" d="M72.635,9.438V8.025c0-0.207,0.136-0.391,0.334-0.45c0.257-0.08,6.536-1.929,25.33-1.929
			c18.793,0,25.277,1.849,25.535,1.929c0.197,0.059,0.334,0.243,0.334,0.45v1.413 M73.578,8.967h49.647V8.389
			c-1.524-0.371-8.655-1.799-24.926-1.799S75.102,8.018,73.578,8.389V8.967z"/>
	</g>
	<g>
		<polyline fill="#C11733" points="98.299,9.438 73.106,9.438 73.106,8.025 		"/>
		<path fill="#C11733" d="M98.282,9.438H72.615V8.025c0-0.194,0.136-0.366,0.337-0.429c0.258-0.078,6.545-1.93,25.348-1.93
			L98.282,9.438z"/>
	</g>
	<g>
		<path fill="#DADADA" d="M56.012,16.145v22.391c0,0.256-0.209,0.465-0.467,0.465H7.874c-0.257,0-0.465-0.209-0.465-0.465V16.145
			H56.012z"/>
	</g>
	<g>
		<polyline fill="#DADADA" points="55.535,12.761 7.862,12.761 7.862,14.221 		"/>
		<path fill="#DADADA" d="M7.396,14.221v-1.46c0-0.256,0.209-0.466,0.466-0.466h47.672c0.257,0,0.466,0.21,0.466,0.466v1.46H7.396z"
			/>
	</g>
	
		<path fill="none" stroke="#575756" stroke-width="1.8633" stroke-linecap="round" stroke-linejoin="round" stroke-miterlimit="10" d="
		M24.758,10.492V7.511c0-0.309,0.249-0.561,0.559-0.561h13.416c0.309,0,0.559,0.252,0.559,0.561v2.981"/>
	<path fill="#3C3C3B" d="M31.745,7.883h-6.055v2.609c0,0.512-0.418,0.931-0.932,0.931c-0.514,0-0.933-0.418-0.933-0.931V7.511
		c0-0.824,0.669-1.492,1.491-1.492h6.428V7.883z"/>
	<g>
		<rect x="7.862" y="12.761" fill="#C6C6C6" width="23.837" height="1.46"/>
		<path fill="#C6C6C6" d="M7.398,14.221v-1.46c0-0.256,0.208-0.466,0.464-0.466h23.837v1.926H7.398 M8.329,13.755h22.904v-0.528
			H8.329V13.755z"/>
	</g>
	<g>
		<path fill="#C6C6C6" d="M31.71,16.145v22.856H7.874c-0.257,0-0.465-0.209-0.465-0.465V16.3v-0.156H31.71z M8.341,16.608"/>
	</g>
</g>
</svg>
