<?xml version="1.0" encoding="utf-8"?>
<!-- Generator: Adobe Illustrator 15.0.2, SVG Export Plug-In . SVG Version: 6.00 Build 0)  -->
<!DOCTYPE svg PUBLIC "-//W3C//DTD SVG 1.1//EN" "http://www.w3.org/Graphics/SVG/1.1/DTD/svg11.dtd">
<svg version="1.1" id="Lager_1" xmlns="http://www.w3.org/2000/svg" xmlns:xlink="http://www.w3.org/1999/xlink" x="0px" y="0px"
	 width="663.791px" height="488.553px" viewBox="0 0 663.791 488.553" enable-background="new 0 0 663.791 488.553"
	 xml:space="preserve">
<g>
	<g>
		<g>
			<g>
				<circle fill="none" stroke="#E7503F" stroke-width="2.2081" stroke-miterlimit="10" cx="331.896" cy="196.317" r="114.822"/>
				<path fill="none" stroke="#E7503F" stroke-width="2.2081" stroke-miterlimit="10" d="M331.896,289.056
					c-51.139,0-92.742-41.604-92.742-92.739c0-51.138,41.604-92.739,92.742-92.739c51.139,0,92.742,41.604,92.742,92.739
					C424.638,247.453,383.032,289.056,331.896,289.056z"/>
			</g>
			<g>
				<g>
					<circle fill="none" stroke="#C5C6CB" stroke-width="2" stroke-miterlimit="10" cx="588.378" cy="75.412" r="74.414"/>
					<path fill="none" stroke="#C5C6CB" stroke-width="2" stroke-miterlimit="10" d="M588.378,129.826
						c-30.006,0-54.413-24.41-54.413-54.414S558.372,21,588.378,21c30.004,0,54.413,24.408,54.413,54.412
						S618.382,129.826,588.378,129.826z"/>
				</g>
				<g>
					<circle fill="none" stroke="#C5C6CB" stroke-width="2" stroke-miterlimit="10" cx="588.378" cy="317.219" r="74.414"/>
					<path fill="none" stroke="#C5C6CB" stroke-width="2" stroke-miterlimit="10" d="M588.378,371.633
						c-30.006,0-54.413-24.41-54.413-54.414s24.407-54.412,54.413-54.412c30.004,0,54.413,24.408,54.413,54.412
						S618.382,371.633,588.378,371.633z"/>
				</g>
			</g>
			<g>
				<g>
					<circle fill="none" stroke="#C5C6CB" stroke-width="2" stroke-miterlimit="10" cx="75.414" cy="75.412" r="74.414"/>
					<path fill="none" stroke="#C5C6CB" stroke-width="2" stroke-miterlimit="10" d="M75.413,129.826
						C45.409,129.826,21,105.416,21,75.412S45.409,21,75.413,21s54.414,24.408,54.414,54.412S105.417,129.826,75.413,129.826z"/>
				</g>
				<g>
					<circle fill="none" stroke="#C5C6CB" stroke-width="2" stroke-miterlimit="10" cx="75.414" cy="317.219" r="74.414"/>
					<path fill="none" stroke="#C5C6CB" stroke-width="2" stroke-miterlimit="10" d="M75.413,371.633
						c-30.004,0-54.413-24.41-54.413-54.414s24.409-54.412,54.413-54.412s54.414,24.408,54.414,54.412
						S105.417,371.633,75.413,371.633z"/>
				</g>
			</g>
		</g>
	</g>
	<g>
		<g>
			<circle fill="#C5C6CB" stroke="#C5C6CB" stroke-width="0.6757" stroke-miterlimit="10" cx="278.918" cy="474.425" r="4.712"/>
			<g>
				<circle fill="none" stroke="#C5C6CB" stroke-width="0.6757" stroke-miterlimit="10" cx="257.928" cy="483.503" r="4.712"/>
				<circle fill="none" stroke="#C5C6CB" stroke-width="0.6757" stroke-miterlimit="10" cx="257.928" cy="465.349" r="4.712"/>
			</g>
		</g>
		<g>
			<g>
				<circle fill="none" stroke="#C5C6CB" stroke-width="0.6757" stroke-miterlimit="10" cx="383.918" cy="465.349" r="4.712"/>
				<circle fill="none" stroke="#C5C6CB" stroke-width="0.6757" stroke-miterlimit="10" cx="383.918" cy="483.503" r="4.712"/>
			</g>
		</g>
		<g>
			<g>
				<circle fill="none" stroke="#C5C6CB" stroke-miterlimit="10" cx="331.418" cy="472.423" r="8.389"/>
				<line fill="none" stroke="#C5C6CB" stroke-miterlimit="10" x1="331.418" y1="467.505" x2="331.418" y2="477.339"/>
			</g>
			<path fill="none" stroke="#C5C6CB" stroke-miterlimit="10" d="M316.834,472.422c-0.666,0-10.166,0-10.166,0"/>
			<g>
				<path fill="none" stroke="#C5C6CB" stroke-miterlimit="10" d="M356.168,472.422c-0.666,0-10.166,0-10.166,0"/>
				<path fill="none" stroke="#C5C6CB" stroke-miterlimit="10" d="M351.086,467.338c0,0.667,0,10.167,0,10.167"/>
			</g>
		</g>
	</g>
</g>
</svg>
