<?xml version="1.0" encoding="utf-8"?>
<!-- Generator: Adobe Illustrator 15.0.2, SVG Export Plug-In . SVG Version: 6.00 Build 0)  -->
<!DOCTYPE svg PUBLIC "-//W3C//DTD SVG 1.1//EN" "http://www.w3.org/Graphics/SVG/1.1/DTD/svg11.dtd">
<svg version="1.1" id="Lager_1" xmlns="http://www.w3.org/2000/svg" xmlns:xlink="http://www.w3.org/1999/xlink" x="0px" y="0px"
	 width="299.093px" height="255.327px" viewBox="0 0 299.093 255.327" enable-background="new 0 0 299.093 255.327"
	 xml:space="preserve">
<g>
	<polygon fill="#F3A096" stroke="#E85140" stroke-width="0.7034" stroke-miterlimit="10" points="287.669,254.906 12.951,254.906 
		12.951,102.714 150.311,4.673 287.669,102.714 	"/>
	
		<line opacity="0.4" fill="none" stroke="#E5837E" stroke-width="9.3467" stroke-miterlimit="10" enable-background="new    " x1="37.134" y1="85.453" x2="37.134" y2="254.906"/>
	
		<line opacity="0.4" fill="none" stroke="#E5837E" stroke-width="9.3467" stroke-miterlimit="10" enable-background="new    " x1="57.652" y1="69.487" x2="57.652" y2="254.906"/>
	
		<line opacity="0.4" fill="none" stroke="#E5837E" stroke-width="9.3467" stroke-miterlimit="10" enable-background="new    " x1="78.171" y1="48.505" x2="78.171" y2="254.906"/>
	
		<line opacity="0.4" fill="none" stroke="#E5837E" stroke-width="9.3467" stroke-miterlimit="10" enable-background="new    " x1="98.692" y1="41.518" x2="98.692" y2="254.906"/>
	
		<line opacity="0.4" fill="none" stroke="#E5837E" stroke-width="9.3467" stroke-miterlimit="10" enable-background="new    " x1="119.21" y1="24.598" x2="119.21" y2="254.906"/>
	
		<line opacity="0.4" fill="none" stroke="#E5837E" stroke-width="9.3467" stroke-miterlimit="10" enable-background="new    " x1="139.728" y1="12.042" x2="139.728" y2="254.906"/>
	
		<line opacity="0.4" fill="none" stroke="#E5837E" stroke-width="9.3467" stroke-miterlimit="10" enable-background="new    " x1="160.25" y1="14.882" x2="160.25" y2="254.906"/>
	
		<line opacity="0.4" fill="none" stroke="#E5837E" stroke-width="9.3467" stroke-miterlimit="10" enable-background="new    " x1="180.769" y1="27.205" x2="180.769" y2="254.906"/>
	
		<line opacity="0.4" fill="none" stroke="#E5837E" stroke-width="9.3467" stroke-miterlimit="10" enable-background="new    " x1="201.288" y1="42.764" x2="201.288" y2="254.906"/>
	
		<line opacity="0.4" fill="none" stroke="#E5837E" stroke-width="9.3467" stroke-miterlimit="10" enable-background="new    " x1="221.805" y1="57.195" x2="221.805" y2="254.906"/>
	
		<line opacity="0.4" fill="none" stroke="#E5837E" stroke-width="9.3467" stroke-miterlimit="10" enable-background="new    " x1="242.325" y1="72.409" x2="242.325" y2="254.906"/>
	
		<line opacity="0.4" fill="none" stroke="#E5837E" stroke-width="9.3467" stroke-miterlimit="10" enable-background="new    " x1="262.844" y1="84.994" x2="262.844" y2="254.906"/>
	<polygon fill="#7A6A56" points="87.913,48.506 53.086,72.409 53.086,24.6 87.913,24.6 	"/>
	
		<rect x="196.336" y="135.819" fill="#FFFFFF" stroke="#FFFFFF" stroke-width="0.6781" stroke-linecap="round" stroke-linejoin="round" stroke-miterlimit="10" width="60.753" height="119.169"/>
	<rect x="201.286" y="141.06" fill="#7A6A56" width="50.852" height="114.141"/>
	
		<rect x="44.429" y="166.307" fill="#BEE3F6" stroke="#F5F5F6" stroke-width="4.6733" stroke-miterlimit="10" width="22.226" height="28.438"/>
	
		<rect x="44.429" y="137.873" fill="#BEE3F6" stroke="#F5F5F6" stroke-width="4.6733" stroke-miterlimit="10" width="22.226" height="28.436"/>
	
		<rect x="66.655" y="137.873" fill="#BEE3F6" stroke="#F5F5F6" stroke-width="4.6733" stroke-miterlimit="10" width="22.226" height="28.436"/>
	
		<rect x="66.655" y="166.307" fill="#BEE3F6" stroke="#F5F5F6" stroke-width="4.6733" stroke-miterlimit="10" width="22.226" height="28.438"/>
	
		<rect x="126.853" y="166.307" fill="#BEE3F6" stroke="#F5F5F6" stroke-width="4.6733" stroke-miterlimit="10" width="22.226" height="28.438"/>
	
		<rect x="126.853" y="137.873" fill="#BEE3F6" stroke="#F5F5F6" stroke-width="4.6733" stroke-miterlimit="10" width="22.226" height="28.436"/>
	
		<rect x="149.077" y="137.873" fill="#BEE3F6" stroke="#F5F5F6" stroke-width="4.6733" stroke-miterlimit="10" width="22.225" height="28.436"/>
	
		<rect x="149.077" y="166.307" fill="#BEE3F6" stroke="#F5F5F6" stroke-width="4.6733" stroke-miterlimit="10" width="22.225" height="28.438"/>
	
		<rect x="132.409" y="73.365" fill="#BEE3F6" stroke="#F5F5F6" stroke-width="3.1115" stroke-miterlimit="10" width="16.668" height="16.807"/>
	
		<rect x="132.409" y="56.557" fill="#BEE3F6" stroke="#F5F5F6" stroke-width="3.1115" stroke-miterlimit="10" width="16.668" height="16.809"/>
	
		<rect x="149.077" y="56.557" fill="#BEE3F6" stroke="#F5F5F6" stroke-width="3.1115" stroke-miterlimit="10" width="16.67" height="16.809"/>
	
		<rect x="149.077" y="73.365" fill="#BEE3F6" stroke="#F5F5F6" stroke-width="3.1115" stroke-miterlimit="10" width="16.67" height="16.807"/>
	<polygon fill="#F5F5F6" points="279.967,255.2 287.979,255.2 287.979,100.559 279.967,96.049 	"/>
	<polygon fill="#F5F5F6" points="19.991,255.2 11.98,255.2 11.98,100.559 19.991,96.049 	"/>
	
		<polyline fill="none" stroke="#614E41" stroke-width="9.3467" stroke-linecap="round" stroke-linejoin="round" stroke-miterlimit="10" points="
		4.673,107.182 148.75,4.673 294.419,107.182 	"/>
</g>
</svg>
