<?xml version="1.0" encoding="utf-8"?>
<!-- Generator: Adobe Illustrator 15.0.2, SVG Export Plug-In . SVG Version: 6.00 Build 0)  -->
<!DOCTYPE svg PUBLIC "-//W3C//DTD SVG 1.1//EN" "http://www.w3.org/Graphics/SVG/1.1/DTD/svg11.dtd">
<svg version="1.1" id="Lager_1" xmlns="http://www.w3.org/2000/svg" xmlns:xlink="http://www.w3.org/1999/xlink" x="0px" y="0px"
	 width="299.093px" height="255.327px" viewBox="0 0 299.093 255.327" enable-background="new 0 0 299.093 255.327"
	 xml:space="preserve">
<polygon fill="#ECECED" stroke="#ECECED" stroke-width="0.7034" stroke-miterlimit="10" points="286.903,254.906 12.184,254.906 
	12.184,102.714 149.544,4.673 286.903,102.714 "/>
<line opacity="0.47" fill="none" stroke="#E1E1E1" stroke-width="9.3467" stroke-miterlimit="10" enable-background="new    " x1="36.366" y1="85.453" x2="36.366" y2="254.906"/>
<line opacity="0.47" fill="none" stroke="#E1E1E1" stroke-width="9.3467" stroke-miterlimit="10" enable-background="new    " x1="56.886" y1="69.487" x2="56.886" y2="254.906"/>
<line opacity="0.47" fill="none" stroke="#E1E1E1" stroke-width="9.3467" stroke-miterlimit="10" enable-background="new    " x1="77.407" y1="48.505" x2="77.407" y2="254.906"/>
<line opacity="0.47" fill="none" stroke="#E1E1E1" stroke-width="9.3467" stroke-miterlimit="10" enable-background="new    " x1="97.925" y1="41.518" x2="97.925" y2="254.906"/>
<line opacity="0.47" fill="none" stroke="#E1E1E1" stroke-width="9.3467" stroke-miterlimit="10" enable-background="new    " x1="118.444" y1="24.598" x2="118.444" y2="254.906"/>
<line opacity="0.47" fill="none" stroke="#E1E1E1" stroke-width="9.3467" stroke-miterlimit="10" enable-background="new    " x1="138.96" y1="12.042" x2="138.96" y2="254.906"/>
<line opacity="0.47" fill="none" stroke="#E1E1E1" stroke-width="9.3467" stroke-miterlimit="10" enable-background="new    " x1="159.483" y1="14.882" x2="159.483" y2="254.906"/>
<line opacity="0.47" fill="none" stroke="#E1E1E1" stroke-width="9.3467" stroke-miterlimit="10" enable-background="new    " x1="180.002" y1="27.205" x2="180.002" y2="254.906"/>
<line opacity="0.47" fill="none" stroke="#E1E1E1" stroke-width="9.3467" stroke-miterlimit="10" enable-background="new    " x1="200.522" y1="42.764" x2="200.522" y2="254.906"/>
<line opacity="0.47" fill="none" stroke="#E1E1E1" stroke-width="9.3467" stroke-miterlimit="10" enable-background="new    " x1="221.04" y1="57.195" x2="221.04" y2="254.906"/>
<line opacity="0.47" fill="none" stroke="#E1E1E1" stroke-width="9.3467" stroke-miterlimit="10" enable-background="new    " x1="241.557" y1="72.409" x2="241.557" y2="254.906"/>
<line opacity="0.47" fill="none" stroke="#E1E1E1" stroke-width="9.3467" stroke-miterlimit="10" enable-background="new    " x1="262.077" y1="84.994" x2="262.077" y2="254.906"/>
<polygon fill="#717173" points="87.145,48.506 52.319,72.409 52.319,24.6 87.145,24.6 "/>
<rect x="195.569" y="135.819" fill="#FFFFFF" stroke="#FFFFFF" stroke-width="0.6781" stroke-linecap="round" stroke-linejoin="round" stroke-miterlimit="10" width="60.754" height="119.169"/>
<rect x="200.519" y="141.06" fill="#7A6A56" width="50.854" height="114.141"/>
<rect x="43.663" y="137.873" fill="#AECFDC" stroke="#F5F5F6" stroke-width="4.6733" stroke-miterlimit="10" width="22.227" height="28.436"/>
<rect x="65.889" y="137.873" fill="#AECFDC" stroke="#F5F5F6" stroke-width="4.6733" stroke-miterlimit="10" width="22.223" height="28.436"/>
<rect x="126.085" y="137.873" fill="#AECFDC" stroke="#F5F5F6" stroke-width="4.6733" stroke-miterlimit="10" width="22.226" height="28.436"/>
<rect x="148.311" y="137.873" fill="#AECFDC" stroke="#F5F5F6" stroke-width="4.6733" stroke-miterlimit="10" width="22.223" height="28.436"/>
<polygon fill="#F5F5F6" points="279.2,255.2 287.213,255.2 287.213,100.559 279.2,96.049 "/>
<polygon fill="#F5F5F6" points="19.224,255.2 11.213,255.2 11.213,100.559 19.224,96.049 "/>
<polyline fill="none" stroke="#5B5A5C" stroke-width="9.3467" stroke-linecap="round" stroke-linejoin="round" stroke-miterlimit="10" points="
	3.907,107.182 147.985,4.673 293.653,107.182 "/>
<rect x="132.862" y="73.365" fill="#BEE3F6" stroke="#F5F5F6" stroke-width="3.1115" stroke-miterlimit="10" width="16.668" height="16.807"/>
<rect x="132.862" y="56.557" fill="#BEE3F6" stroke="#F5F5F6" stroke-width="3.1115" stroke-miterlimit="10" width="16.668" height="16.809"/>
<rect x="149.53" y="56.557" fill="#BEE3F6" stroke="#F5F5F6" stroke-width="3.1115" stroke-miterlimit="10" width="16.668" height="16.809"/>
<rect x="149.53" y="73.365" fill="#BEE3F6" stroke="#F5F5F6" stroke-width="3.1115" stroke-miterlimit="10" width="16.668" height="16.807"/>
<rect x="43.663" y="166.307" fill="#AECFDC" stroke="#F5F5F6" stroke-width="4.6733" stroke-miterlimit="10" width="22.227" height="28.438"/>
<rect x="65.889" y="166.307" fill="#AECFDC" stroke="#F5F5F6" stroke-width="4.6733" stroke-miterlimit="10" width="22.223" height="28.438"/>
<rect x="126.085" y="166.307" fill="#AECFDC" stroke="#F5F5F6" stroke-width="4.6733" stroke-miterlimit="10" width="22.226" height="28.438"/>
<rect x="148.311" y="166.307" fill="#AECFDC" stroke="#F5F5F6" stroke-width="4.6733" stroke-miterlimit="10" width="22.223" height="28.438"/>
</svg>
