<?xml version="1.0" encoding="utf-8"?>
<!-- Generator: Adobe Illustrator 15.0.2, SVG Export Plug-In . SVG Version: 6.00 Build 0)  -->
<!DOCTYPE svg PUBLIC "-//W3C//DTD SVG 1.1//EN" "http://www.w3.org/Graphics/SVG/1.1/DTD/svg11.dtd">
<svg version="1.1" id="Lager_1" xmlns="http://www.w3.org/2000/svg" xmlns:xlink="http://www.w3.org/1999/xlink" x="0px" y="0px" viewBox="0 0 248.137 208.726" enable-background="new 0 0 248.137 208.726"
	 xml:space="preserve">
<g>
	<polygon fill="#EDE0CC" stroke="#EDE0CC" stroke-width="0.5722" stroke-miterlimit="10" points="235.624,208.44 11.213,208.44 
		11.213,85.15 123.418,5.726 235.624,85.15 	"/>
	
		<polygon opacity="0.33" fill="#CABC9E" stroke="#CABC9E" stroke-width="0.4046" stroke-miterlimit="10" enable-background="new    " points="
		123.418,208.44 11.213,208.44 11.213,85.15 123.418,5.726 	"/>
	
		<rect x="36.927" y="138.542" fill="#847365" stroke="#847365" stroke-width="0.5018" stroke-linecap="round" stroke-linejoin="round" stroke-miterlimit="10" width="18.158" height="23.229"/>
	
		<rect x="36.927" y="111.093" fill="#847365" stroke="#847365" stroke-width="0.5018" stroke-linecap="round" stroke-linejoin="round" stroke-miterlimit="10" width="18.158" height="23.229"/>
	
		<rect x="59.498" y="111.093" fill="#847365" stroke="#847365" stroke-width="0.5018" stroke-linecap="round" stroke-linejoin="round" stroke-miterlimit="10" width="18.152" height="23.229"/>
	
		<rect x="59.498" y="138.542" fill="#847365" stroke="#847365" stroke-width="0.5018" stroke-linecap="round" stroke-linejoin="round" stroke-miterlimit="10" width="18.152" height="23.229"/>
	
		<rect x="103.697" y="138.542" fill="#847365" stroke="#847365" stroke-width="0.5018" stroke-linecap="round" stroke-linejoin="round" stroke-miterlimit="10" width="18.152" height="23.229"/>
	
		<rect x="103.697" y="111.093" fill="#847365" stroke="#847365" stroke-width="0.5018" stroke-linecap="round" stroke-linejoin="round" stroke-miterlimit="10" width="18.152" height="23.229"/>
	
		<rect x="126.263" y="111.093" fill="#A28878" stroke="#A28878" stroke-width="0.5018" stroke-linecap="round" stroke-linejoin="round" stroke-miterlimit="10" width="18.15" height="23.229"/>
	
		<rect x="126.263" y="138.542" fill="#A28878" stroke="#A28878" stroke-width="0.5018" stroke-linecap="round" stroke-linejoin="round" stroke-miterlimit="10" width="18.15" height="23.229"/>
	
		<rect x="165.636" y="111.093" fill="#A28878" stroke="#A28878" stroke-width="0.5018" stroke-linecap="round" stroke-linejoin="round" stroke-miterlimit="10" width="40.725" height="97.348"/>
	
		<rect x="165.636" y="111.093" fill="#847365" stroke="#847365" stroke-width="0.5018" stroke-linecap="round" stroke-linejoin="round" stroke-miterlimit="10" width="20.36" height="97.348"/>
	
		<polyline fill="none" stroke="#614E41" stroke-width="11.4526" stroke-linecap="round" stroke-linejoin="round" stroke-miterlimit="10" points="
		5.726,89.46 123.418,5.726 242.411,89.46 	"/>
	
		<path fill="#A28878" stroke="#A28878" stroke-width="0.5018" stroke-linecap="round" stroke-linejoin="round" stroke-miterlimit="10" d="
		M140.822,58.285c0,9.253-7.499,16.755-16.755,16.755c-9.252,0-16.751-7.502-16.751-16.755c0-9.255,7.499-16.756,16.751-16.756
		C133.323,41.529,140.822,49.03,140.822,58.285z"/>
	
		<path fill="#847365" stroke="#847365" stroke-width="0.5018" stroke-linecap="round" stroke-linejoin="round" stroke-miterlimit="10" d="
		M124.066,75.04c-9.252,0-16.75-7.502-16.75-16.755c0-9.255,7.498-16.756,16.75-16.756V75.04z"/>
	
		<polygon fill="#614E41" stroke="#614E41" stroke-width="2.545" stroke-linecap="round" stroke-linejoin="round" stroke-miterlimit="10" points="
		73.722,41.529 45.273,61.058 45.273,22.001 73.722,22.001 	"/>
</g>
</svg>
