<?xml version="1.0" encoding="utf-8"?>
<!-- Generator: Adobe Illustrator 17.1.0, SVG Export Plug-In . SVG Version: 6.00 Build 0)  -->
<!DOCTYPE svg PUBLIC "-//W3C//DTD SVG 1.1//EN" "http://www.w3.org/Graphics/SVG/1.1/DTD/svg11.dtd">
<svg version="1.1" id="Layer_1" xmlns="http://www.w3.org/2000/svg" xmlns:xlink="http://www.w3.org/1999/xlink" x="0px" y="0px"
	 width="253.616px" height="521.309px" viewBox="0 0 253.616 521.309" enable-background="new 0 0 253.616 521.309"
	 xml:space="preserve">
<path fill="#50B17B" stroke="#50B17B" stroke-linecap="round" stroke-linejoin="round" stroke-miterlimit="10" d="M24.791,471.258
	c-2.768,5.214-11.532,6.083-9.532,14.083s4.669,18.377,8.084,29.917c2,6.76,16.441,5.631,20.226,5.212
	c3.785-0.419,7.491-3.539,8.451-12.795c0.96-9.256,11.987-15.171,18.709-14.096c6.723,1.075,21.688,6.018,21.822-5.943
	c0.135-11.961,6.415-19.729,13.542-30.628c8.5-13,0.755-49.234,9.925-53.84c9.17-4.605,34.85-11.777,39.689-18.77
	c4.84-6.992,7.41-31.131,5.99-36.81c-1.42-5.679-7.145-22.261-14.865-23.428s-14.663-2.636-14.735-11.257
	c-0.072-8.621-2.564-40.307,8.013-55.435c10.577-15.128,15.061-32,25.01-35.227c9.949-3.228,29.296-17.233,35.765-19.9
	c6.469-2.667,17.264-13.072,15.866-24.203c-1.397-11.131-9.065-13.233,0.846-28.936c9.911-15.704,22.195-18.098,30.451-23.854
	c8.256-5.755,1.541-18.268,3.204-27.02c1.663-8.752,5.335-53.829-6.555-61.578c0,0-7.808-1.81-18.803-15.121
	c0,0-8.18-8.327-9.968-12.289c0,0-4.414-5.834-5.914-6.709c-1.594-0.93-4.544-2.25-7.794-2.125s-2.875,1.625-3.25,8.25
	s-7.123,7.205-7.123,7.205c-10.218,2.151-19.045-10.315-23.769,1.365c-4.724,11.68,0.807,19.547-8.057,19.424
	c-8.863-0.124-23.05,10.812-22.062,17.687c0.988,6.875,0.201,16.93-7.305,26.827c-7.506,9.897-2.914,14.586-9.906,19.427
	c0,0-7.752,4.841-15.528,8.949c-7.776,4.108-17.207,47.749-17.207,57.828c0,10.078-8.459,16.476-16.429,12.823
	c-7.97-3.653-24.202,30.119-23.07,37.29c1.132,7.172-7.902,53.604-7.902,53.604c3.227,6.453,15.619,16.853,8.874,21.243
	s-13.086,1.135-10.711,15.896c2.375,14.761,2.67,26.313-6.89,29.277c-9.56,2.964-9.676,10.494-13.517,22.595
	c-3.841,12.101,0.233,12.243-5.3,14.727c0,0-5.939-5.914-8.474-0.415c-2.535,5.499-6.705,14.915-1.852,18.348
	c4.853,3.433,4.353,7.933,3.353,15.933s-2.408,15.452,0.95,18.22c0,0,5.8,6.751,6.3,11.917c0.5,5.166,0.299,9.594,1.5,12.166
	C17.175,456.091,27.489,466.175,24.791,471.258z"/>
</svg>
