<?xml version="1.0" encoding="utf-8"?>
<!-- Generator: Adobe Illustrator 15.0.2, SVG Export Plug-In . SVG Version: 6.00 Build 0)  -->
<!DOCTYPE svg PUBLIC "-//W3C//DTD SVG 1.1//EN" "http://www.w3.org/Graphics/SVG/1.1/DTD/svg11.dtd">
<svg version="1.1" id="Lager_1" xmlns="http://www.w3.org/2000/svg" xmlns:xlink="http://www.w3.org/1999/xlink" x="0px" y="0px"
	 width="182.373px" height="117.268px" viewBox="0 0 182.373 117.268" enable-background="new 0 0 182.373 117.268"
	 xml:space="preserve">
<g>
	<path opacity="0.75" fill="#80C6E2" d="M165.495,7.25c-4.57-0.507-8.942,0.659-12.504,3c-3.909-5.452-10.008-9.303-17.202-10.099
		c-11.136-1.237-21.335,5.207-25.369,15.091c-10.499-1.004-19.897,6.594-21.062,17.111c-1.178,10.618,6.475,20.179,17.092,21.354
		c1.603,0.177,3.176,0.132,4.706-0.074c2.301,6.116,7.857,10.755,14.796,11.522c7.582,0.842,14.563-3.184,17.876-9.572
		c2.462,2.689,5.86,4.541,9.767,4.973c8.553,0.95,16.259-5.217,17.21-13.771c0.122-1.097,0.122-2.18,0.019-3.238
		c6.092-2.596,10.653-8.306,11.434-15.357C183.412,17.78,175.902,8.404,165.495,7.25z"/>
	<g>
		<path opacity="0.8" fill="#CBEAF9" d="M117.735,27.694c-7.057-0.783-13.807,1.018-19.306,4.633
			c-6.035-8.418-15.451-14.363-26.558-15.592c-17.194-1.91-32.94,8.04-39.169,23.299c-16.21-1.551-30.72,10.18-32.519,26.418
			c-1.819,16.394,9.997,31.154,26.389,32.968c2.475,0.273,4.903,0.205,7.266-0.113c3.551,9.443,12.13,16.605,22.843,17.789
			c11.706,1.301,22.484-4.916,27.6-14.778c3.801,4.152,9.047,7.011,15.078,7.677c13.205,1.467,25.103-8.055,26.57-21.261
			c0.188-1.694,0.188-3.365,0.029-4.999c9.405-4.009,16.447-12.824,17.653-23.711C145.398,43.951,133.804,29.475,117.735,27.694z"/>
		<g>
			<path fill="#80C6E2" stroke="#80C6E2" stroke-miterlimit="10" d="M82.593,63.01c0,7.226-1.228,12.801-3.679,16.72
				c-2.456,3.922-6,5.881-10.647,5.881c-4.642,0-8.32-1.981-11.035-5.945c-2.717-3.963-4.075-9.592-4.075-16.885
				s1.337-13.031,4.012-17.214c2.667-4.182,6.393-6.275,11.168-6.275c2.846,0,5.267,0.733,7.256,2.2
				c1.994,1.469,3.477,3.449,4.437,5.946C81.736,52.038,82.593,57.228,82.593,63.01z M80.158,61.892
				c0-6.087-1.026-10.951-3.085-14.585c-2.058-3.637-5.015-5.454-8.87-5.454c-3.856,0-6.919,1.806-9.197,5.421
				c-2.277,3.615-3.417,8.793-3.417,15.538c0,7.842,1.775,13.601,5.321,17.282c1.974,2.013,4.229,3.021,6.768,3.021
				c2.541,0,4.62-0.569,6.242-1.709c1.619-1.139,2.871-2.716,3.747-4.729C79.328,72.91,80.158,67.983,80.158,61.892z"/>
		</g>
		<g>
			<path fill="#80C6E2" stroke="#80C6E2" stroke-width="0.7" stroke-miterlimit="10" d="M84.593,92.811l6.528-9.045
				c0.357-0.506,0.629-0.897,0.818-1.175c0.188-0.275,0.379-0.651,0.574-1.124c0.197-0.472,0.295-0.913,0.295-1.32
				c0-1.126-0.361-1.997-1.076-2.617c-0.72-0.619-1.55-0.929-2.494-0.929c-0.947,0-2.218,0.513-3.813,1.54v-0.878
				c1.433-1.043,2.762-1.566,3.985-1.566c1.22,0,2.239,0.413,3.056,1.235c0.813,0.822,1.221,1.862,1.221,3.116
				c0,1.256-0.439,2.494-1.32,3.717l-5.868,8.141h7.384v0.904H84.593z"/>
		</g>
	</g>
</g>
</svg>
