<?xml version="1.0" encoding="utf-8"?>
<!-- Generator: Adobe Illustrator 15.0.2, SVG Export Plug-In . SVG Version: 6.00 Build 0)  -->
<!DOCTYPE svg PUBLIC "-//W3C//DTD SVG 1.1//EN" "http://www.w3.org/Graphics/SVG/1.1/DTD/svg11.dtd">
<svg version="1.1" id="Lager_1" xmlns="http://www.w3.org/2000/svg" xmlns:xlink="http://www.w3.org/1999/xlink" x="0px" y="0px"
	 width="317.52px" height="327.975px" viewBox="0 0 317.52 327.975" enable-background="new 0 0 317.52 327.975"
	 xml:space="preserve">
<g>
	<g>
		<rect y="213.645" fill="#F5F5F6" width="88.668" height="114.33"/>
		<rect x="88.668" y="167.403" fill="#ECECED" width="228.852" height="7.332"/>
		<rect x="88.668" y="313.667" fill="#ECECED" width="228.852" height="14.308"/>
		<rect x="88.668" y="174.735" fill="#C2E5F3" width="114.426" height="138.932"/>
		<rect x="203.094" y="174.735" fill="#C2E5F3" width="114.426" height="138.932"/>
		<rect x="44.334" y="213.645" fill="#D2D3D4" width="44.334" height="114.33"/>
		<rect x="188.094" fill="#F5F5F6" width="30" height="327.975"/>
		<rect x="203.094" fill="#D2D3D4" width="15" height="327.975"/>
		<g opacity="0.15">
			<polygon opacity="0.7" fill="#0399BC" points="317.52,174.735 317.52,209.534 267.807,209.534 			"/>
			<polygon opacity="0.7" fill="#0399BC" points="267.807,174.735 267.807,209.534 218.094,209.534 			"/>
			<polygon opacity="0.7" fill="#0399BC" points="317.52,209.534 317.52,244.331 267.807,244.331 			"/>
			<polygon opacity="0.7" fill="#0399BC" points="267.807,209.534 267.807,244.331 218.094,244.331 			"/>
			<polygon opacity="0.7" fill="#0399BC" points="317.52,244.071 317.52,278.869 267.807,278.869 			"/>
			<polygon opacity="0.7" fill="#0399BC" points="267.807,244.071 267.807,278.869 218.094,278.869 			"/>
			<polygon opacity="0.7" fill="#0399BC" points="317.52,278.87 317.52,313.667 267.807,313.667 			"/>
			<polygon opacity="0.7" fill="#0399BC" points="267.807,278.87 267.807,313.667 218.094,313.667 			"/>
		</g>
		<g opacity="0.15">
			<polygon opacity="0.7" fill="#0399BC" points="188.094,174.735 188.094,209.534 138.381,209.534 			"/>
			<polygon opacity="0.7" fill="#0399BC" points="138.381,174.735 138.381,209.534 88.668,209.534 			"/>
			<polygon opacity="0.7" fill="#0399BC" points="188.094,209.534 188.094,244.331 138.381,244.331 			"/>
			<polygon opacity="0.7" fill="#0399BC" points="138.381,209.534 138.381,244.331 88.668,244.331 			"/>
			<polygon opacity="0.7" fill="#0399BC" points="188.094,244.071 188.094,278.869 138.381,278.869 			"/>
			<polygon opacity="0.7" fill="#0399BC" points="138.381,244.071 138.381,278.869 88.668,278.869 			"/>
			<polygon opacity="0.7" fill="#0399BC" points="188.094,278.87 188.094,313.667 138.381,313.667 			"/>
			<polygon opacity="0.7" fill="#0399BC" points="138.381,278.87 138.381,313.667 88.668,313.667 			"/>
		</g>
	</g>
	<rect y="234.667" fill="#868789" width="23.103" height="3.708"/>
	<rect y="242.938" fill="#868789" width="23.103" height="3.709"/>
	<rect y="251.211" fill="#868789" width="23.103" height="3.708"/>
</g>
</svg>
