<?xml version="1.0" encoding="utf-8"?>
<!-- Generator: Adobe Illustrator 15.0.2, SVG Export Plug-In . SVG Version: 6.00 Build 0)  -->
<!DOCTYPE svg PUBLIC "-//W3C//DTD SVG 1.1//EN" "http://www.w3.org/Graphics/SVG/1.1/DTD/svg11.dtd">
<svg version="1.1" xmlns="http://www.w3.org/2000/svg" xmlns:xlink="http://www.w3.org/1999/xlink" x="0px" y="0px"
	 width="275.706px" height="275.707px" viewBox="0 0 275.706 275.707" enable-background="new 0 0 275.706 275.707"
	 xml:space="preserve">
<g id="Lager_2">
</g>
<g id="Lager_1">
	<g>
		<g>
			<g>
				<circle fill="#FFFFFF" stroke="#FFFFFF" stroke-width="0.6858" stroke-miterlimit="10" cx="137.853" cy="137.854" r="137.51"/>
				<path fill="#FFFFFF" stroke="#FFFFFF" stroke-width="0.6858" stroke-miterlimit="10" d="M137.854,275.364
					c-75.945,0-137.511-61.566-137.511-137.511c0-75.945,61.565-137.511,137.511-137.511V275.364z"/>
				<circle fill="#F5F5F6" stroke="#F5F5F6" stroke-width="0.5569" stroke-miterlimit="10" cx="137.853" cy="137.854" r="111.661"/>
				<path fill="#F5F5F6" stroke="#F5F5F6" stroke-width="0.5569" stroke-miterlimit="10" d="M137.854,249.516
					c-61.669,0-111.661-49.994-111.661-111.662c0-61.669,49.992-111.661,111.661-111.661V249.516z"/>
			</g>
			
				<rect x="173.656" y="143.95" fill="#FFD600" stroke="#FFD600" stroke-width="0.8029" stroke-linecap="round" stroke-linejoin="round" stroke-miterlimit="10" width="10.314" height="33.483"/>
			
				<rect x="180.754" y="143.95" fill="#FCC000" stroke="#FCC000" stroke-width="0.4718" stroke-linecap="round" stroke-linejoin="round" stroke-miterlimit="10" width="3.217" height="33.483"/>
			
				<rect x="137.48" y="155.534" transform="matrix(0.3564 0.9343 -0.9343 0.3564 249.3948 -40.6743)" fill="#FFD600" stroke="#FFD600" stroke-width="0.8029" stroke-linecap="round" stroke-linejoin="round" stroke-miterlimit="10" width="33.483" height="10.314"/>
			
				<rect x="140.796" y="157.819" transform="matrix(0.3564 0.9343 -0.9343 0.3564 250.3442 -44.5884)" fill="#FCC000" stroke="#FCC000" stroke-width="0.4718" stroke-linecap="round" stroke-linejoin="round" stroke-miterlimit="10" width="33.484" height="3.216"/>
			
				<rect x="156.914" y="197.221" transform="matrix(-0.2796 0.9601 -0.9601 -0.2796 416.5207 92.2408)" fill="#FFD600" stroke="#FFD600" stroke-width="0.8029" stroke-linecap="round" stroke-linejoin="round" stroke-miterlimit="10" width="33.484" height="10.314"/>
			
				<rect x="160.322" y="201.762" transform="matrix(-0.2796 0.9601 -0.9601 -0.2796 421.8342 90.2412)" fill="#FCC000" stroke="#FCC000" stroke-width="0.4718" stroke-linecap="round" stroke-linejoin="round" stroke-miterlimit="10" width="33.483" height="3.216"/>
			<g>
				
					<polygon fill="#FFD600" stroke="#FFD600" stroke-width="0.8029" stroke-linecap="round" stroke-linejoin="round" stroke-miterlimit="10" points="
					76.667,99.797 82.086,113.692 79.137,112.024 77,113.692 74.604,112.024 72.311,113.692 70.07,112.024 67.882,113.692 
					65.537,112.024 62.99,113.692 68.409,99.797 62.99,85.902 65.537,87.57 67.882,85.902 70.07,87.57 72.311,85.902 74.604,87.57 
					77,85.902 79.137,87.57 82.086,85.902 				"/>
				
					<polygon fill="#FCC000" stroke="#FCC000" stroke-width="0.4718" stroke-linecap="round" stroke-linejoin="round" stroke-miterlimit="10" points="
					72.311,113.692 70.07,112.024 67.882,113.692 65.537,112.024 62.99,113.692 68.409,99.797 62.99,85.902 65.537,87.57 
					67.882,85.902 70.07,87.57 72.311,85.902 				"/>
			</g>
			<g>
				
					<polygon fill="#FFD600" stroke="#FFD600" stroke-width="0.8029" stroke-linecap="round" stroke-linejoin="round" stroke-miterlimit="10" points="
					97.82,128.283 94.888,142.906 93.304,139.911 90.605,140.163 89.486,137.466 86.656,137.633 85.669,135.021 82.927,135.244 
					81.853,132.574 78.809,132.605 90.867,123.828 93.801,109.206 95.045,111.983 97.919,111.845 98.861,114.429 101.647,114.233 
					102.68,116.874 105.597,116.763 106.496,119.319 109.88,119.507 				"/>
				
					<polygon fill="#FCC000" stroke="#FCC000" stroke-width="0.4718" stroke-linecap="round" stroke-linejoin="round" stroke-miterlimit="10" points="
					86.656,137.633 85.669,135.021 82.927,135.244 81.853,132.574 78.809,132.605 90.867,123.828 93.801,109.206 95.045,111.983 
					97.919,111.845 98.861,114.429 101.647,114.233 				"/>
			</g>
			<g>
				
					<polygon fill="#FFD600" stroke="#FFD600" stroke-width="0.8029" stroke-linecap="round" stroke-linejoin="round" stroke-miterlimit="10" points="
					174.494,67.494 185.747,77.283 182.36,77.176 181.242,79.645 178.346,79.281 177.089,81.822 174.33,81.387 173.167,83.88 
					170.315,83.492 168.835,86.151 167.182,71.328 155.929,61.539 158.959,61.834 160.261,59.268 162.974,59.729 164.184,57.211 
					166.988,57.623 168.337,55.033 171.003,55.518 172.841,52.671 				"/>
				
					<polygon fill="#FCC000" stroke="#FCC000" stroke-width="0.4718" stroke-linecap="round" stroke-linejoin="round" stroke-miterlimit="10" points="
					177.089,81.822 174.33,81.387 173.167,83.88 170.315,83.492 168.835,86.151 167.182,71.328 155.929,61.539 158.959,61.834 
					160.261,59.268 162.974,59.729 164.184,57.211 				"/>
			</g>
			
				<polygon fill="#FFD600" stroke="#FFD600" stroke-width="0.8029" stroke-linecap="round" stroke-linejoin="round" stroke-miterlimit="10" points="
				166.277,117.132 172.463,130.702 169.425,129.202 167.385,130.986 164.898,129.455 162.703,131.248 160.372,129.708 
				158.28,131.495 155.847,129.961 153.396,131.769 158.032,117.592 151.847,104.021 154.481,105.543 156.73,103.748 
				159.009,105.291 161.152,103.501 163.535,105.038 165.835,103.239 168.061,104.785 170.913,102.956 			"/>
			
				<polygon fill="#FCC000" stroke="#FCC000" stroke-width="0.4718" stroke-linecap="round" stroke-linejoin="round" stroke-miterlimit="10" points="
				162.703,131.248 160.372,129.708 158.28,131.495 155.847,129.961 153.396,131.769 158.032,117.592 151.847,104.021 
				154.481,105.543 156.73,103.748 159.009,105.291 161.152,103.501 			"/>
			<g>
				<g>
					<path fill="#FFFFFF" d="M131.268,126.057v7.27v13.476l0.028,1.169l7.439,7.393c2.87,2.853,3.173,7.204,0.676,9.717l0,0
						c-2.496,2.514-6.849,2.236-9.72-0.613l-2.102-2.087l-1.515-1.507l-1.518,1.507l-2.102,2.087
						c-2.87,2.85-7.222,3.127-9.719,0.613l0,0c-2.498-2.513-2.195-6.864,0.676-9.717l7.44-7.393l0.027-1.169v-13.476v-7.27H131.268z
						"/>
				</g>
				<g>
					
						<path fill="none" stroke="#C9CACB" stroke-width="0.9492" stroke-linecap="round" stroke-linejoin="round" stroke-miterlimit="10" d="
						M112.737,165.08"/>
				</g>
				<g>
					
						<path fill="#C89D64" stroke="#C89D64" stroke-width="0.9492" stroke-linecap="round" stroke-linejoin="round" stroke-miterlimit="10" d="
						M134.657,53.798c0-2.095,0.397-4.095,1.114-5.934c-2.669-1.468-5.606-2.281-8.691-2.281h-2.03
						c-12.249,0-22.18,12.8-22.18,28.592c0,7.896,2.482,15.043,6.496,20.217c0,0,11.472,13.64,11.472,27.958h10.454
						c0-14.318,11.472-27.958,11.472-27.958c4.012-5.174,6.496-12.321,6.496-20.217c0-1.405-0.082-2.786-0.234-4.137
						C140.93,69.051,134.657,62.159,134.657,53.798z"/>
				</g>
				<g>
					
						<path fill="#BC8852" stroke="#BC8852" stroke-width="0.9492" stroke-linecap="round" stroke-linejoin="round" stroke-miterlimit="10" d="
						M134.657,53.798c0-2.095,0.397-4.095,1.114-5.934c-2.669-1.468-5.606-2.281-8.691-2.281l-1.016,76.767h5.228
						c0-14.318,11.472-27.958,11.472-27.958c4.012-5.174,6.496-12.321,6.496-20.217c0-1.405-0.082-2.786-0.234-4.137
						C140.93,69.051,134.657,62.159,134.657,53.798z"/>
				</g>
			</g>
			<g>
				<g>
					
						<path fill="#E4342D" stroke="#E4342D" stroke-width="0.5412" stroke-linecap="round" stroke-linejoin="round" stroke-miterlimit="10" d="
						M196.476,203.465c14.236-0.879,26.315-10.161,28.871-23.431c2.555-13.27-6.324-20.61-19.604-24.709L196.476,203.465z"/>
				</g>
				<g>
					
						<path fill="#ED8377" stroke="#ED8377" stroke-width="0.2677" stroke-linecap="round" stroke-linejoin="round" stroke-miterlimit="10" d="
						M199.369,187.738c7.042-0.436,13.017-5.026,14.28-11.589c1.264-6.563-3.129-10.195-9.697-12.223L199.369,187.738z"/>
				</g>
				<g>
					
						<path fill="#FFE09C" stroke="#FFE09C" stroke-width="0.0595" stroke-linecap="round" stroke-linejoin="round" stroke-miterlimit="10" d="
						M215.11,166.858c0.696-0.56,0.958-1.388,0.584-1.853c-0.371-0.464-1.237-0.387-1.934,0.171c-0.696,0.56-1.152,1.544-0.78,2.008
						C213.354,167.649,214.414,167.417,215.11,166.858z"/>
				</g>
				<g>
					
						<path fill="#FFE09C" stroke="#FFE09C" stroke-width="0.0595" stroke-linecap="round" stroke-linejoin="round" stroke-miterlimit="10" d="
						M217.366,172.377c0.861-0.232,1.433-0.888,1.279-1.463c-0.156-0.573-0.98-0.85-1.842-0.617
						c-0.862,0.232-1.675,0.952-1.521,1.526C215.438,172.398,216.504,172.61,217.366,172.377z"/>
				</g>
				<g>
					
						<path fill="#FFE09C" stroke="#FFE09C" stroke-width="0.0595" stroke-linecap="round" stroke-linejoin="round" stroke-miterlimit="10" d="
						M216.932,178.432c0.88,0.15,1.672-0.203,1.775-0.791c0.1-0.586-0.532-1.183-1.412-1.334c-0.88-0.15-1.921,0.161-2.021,0.748
						C215.174,177.643,216.051,178.281,216.932,178.432z"/>
				</g>
				<g>
					
						<path fill="#FFE09C" stroke="#FFE09C" stroke-width="0.0595" stroke-linecap="round" stroke-linejoin="round" stroke-miterlimit="10" d="
						M211.484,186.704c0.438,0.778,0.374,1.644-0.145,1.938c-0.518,0.292-1.294-0.102-1.732-0.879
						c-0.438-0.776-0.497-1.86,0.021-2.152C210.147,185.317,211.047,185.927,211.484,186.704z"/>
				</g>
				<g>
					
						<path fill="#FFE09C" stroke="#FFE09C" stroke-width="0.0595" stroke-linecap="round" stroke-linejoin="round" stroke-miterlimit="10" d="
						M215.494,182.099c0.713,0.537,1.001,1.355,0.645,1.833c-0.357,0.476-1.226,0.426-1.938-0.109
						c-0.715-0.535-1.202-1.507-0.846-1.983C213.712,181.364,214.78,181.562,215.494,182.099z"/>
				</g>
				<g>
					
						<path fill="#008F36" stroke="#008F36" stroke-width="1.1529" stroke-linecap="round" stroke-linejoin="round" stroke-miterlimit="10" d="
						M192.043,139.595c9.849,1.969,14.204,6.227,14.204,6.227l1.87-9.712l1.451,0.279l1.451,0.279l-2.272,11.805
						c0,0,7.626-4.891,17.504-3.062c-8.661,2.222-10.706,4.402-10.706,4.402s10.693,2.37,14.743,10.708
						c0,0-9.709-8.277-23.763-9.223C206.525,151.299,202.775,143.973,192.043,139.595z"/>
				</g>
			</g>
			<g>
				<g>
					
						<path fill="#E4342D" stroke="#E4342D" stroke-width="0.5412" stroke-linecap="round" stroke-linejoin="round" stroke-miterlimit="10" d="
						M228.785,138.366c7.701-12.006,7.348-27.235-1.85-37.137c-9.197-9.9-20.365-7.073-31.518,1.221L228.785,138.366z"/>
				</g>
				<g>
					
						<path fill="#ED8377" stroke="#ED8377" stroke-width="0.2677" stroke-linecap="round" stroke-linejoin="round" stroke-miterlimit="10" d="
						M217.806,126.741c3.809-5.939,3.634-13.473-0.914-18.368c-4.55-4.897-10.075-3.499-15.591,0.604L217.806,126.741z"/>
				</g>
				<g>
					
						<path fill="#FFE09C" stroke="#FFE09C" stroke-width="0.0595" stroke-linecap="round" stroke-linejoin="round" stroke-miterlimit="10" d="
						M210.258,101.705c-0.04-0.893-0.554-1.593-1.149-1.565c-0.594,0.025-1.043,0.77-1.005,1.661
						c0.04,0.893,0.565,1.842,1.159,1.815C209.858,103.589,210.297,102.597,210.258,101.705z"/>
				</g>
				<g>
					
						<path fill="#FFE09C" stroke="#FFE09C" stroke-width="0.0595" stroke-linecap="round" stroke-linejoin="round" stroke-miterlimit="10" d="
						M216.043,103.146c0.321-0.833,0.13-1.681-0.425-1.896c-0.555-0.213-1.265,0.289-1.586,1.121
						c-0.321,0.833-0.221,1.914,0.334,2.129C214.922,104.713,215.722,103.979,216.043,103.146z"/>
				</g>
				<g>
					
						<path fill="#FFE09C" stroke="#FFE09C" stroke-width="0.0595" stroke-linecap="round" stroke-linejoin="round" stroke-miterlimit="10" d="
						M220.672,107.072c0.641-0.621,0.823-1.469,0.41-1.899c-0.414-0.427-1.269-0.27-1.91,0.352s-1.005,1.645-0.59,2.072
						S220.03,107.694,220.672,107.072z"/>
				</g>
				<g>
					
						<path fill="#FFE09C" stroke="#FFE09C" stroke-width="0.0595" stroke-linecap="round" stroke-linejoin="round" stroke-miterlimit="10" d="
						M224.128,116.354c0.888,0.106,1.548,0.669,1.479,1.262c-0.07,0.591-0.847,0.984-1.733,0.879
						c-0.885-0.104-1.794-0.698-1.724-1.289C222.22,116.614,223.243,116.248,224.128,116.354z"/>
				</g>
				<g>
					
						<path fill="#FFE09C" stroke="#FFE09C" stroke-width="0.0595" stroke-linecap="round" stroke-linejoin="round" stroke-miterlimit="10" d="
						M222.781,110.398c0.854-0.258,1.685-0.007,1.859,0.563c0.173,0.569-0.38,1.24-1.233,1.499c-0.854,0.261-1.926,0.08-2.1-0.489
						C221.136,111.403,221.927,110.658,222.781,110.398z"/>
				</g>
				<g>
					
						<path fill="#008F36" stroke="#008F36" stroke-width="1.1529" stroke-linecap="round" stroke-linejoin="round" stroke-miterlimit="10" d="
						M174.633,104.211c7.407-6.783,13.415-7.782,13.415-7.782l-6.731-7.246l1.083-1.006l1.083-1.006l8.182,8.807
						c0,0,0.56-9.042,7.87-15.932c-3.323,8.301-2.772,11.239-2.772,11.239s8.229-7.228,17.35-5.569c0,0-12.414,2.943-21.479,13.725
						C192.632,99.44,184.506,98.138,174.633,104.211z"/>
				</g>
			</g>
			<g>
				<g>
					
						<circle fill="#006633" stroke="#006633" stroke-width="0.6392" stroke-linecap="round" stroke-linejoin="round" stroke-miterlimit="10" cx="126.065" cy="188.822" r="10.65"/>
				</g>
				<g>
					
						<path fill="#39A935" stroke="#39A935" stroke-width="0.6392" stroke-linecap="round" stroke-linejoin="round" stroke-miterlimit="10" d="
						M144.377,196.636"/>
				</g>
				<g>
					
						<path fill="#39A935" stroke="#39A935" stroke-width="0.6392" stroke-linecap="round" stroke-linejoin="round" stroke-miterlimit="10" d="
						M133.585,196.636"/>
				</g>
				<g>
					
						<circle fill="#006633" stroke="#006633" stroke-width="0.6392" stroke-linecap="round" stroke-linejoin="round" stroke-miterlimit="10" cx="113.314" cy="202.267" r="10.65"/>
				</g>
				<g>
					
						<circle fill="#044924" stroke="#044924" stroke-width="0.6392" stroke-linecap="round" stroke-linejoin="round" stroke-miterlimit="10" cx="122.08" cy="204.808" r="10.65"/>
				</g>
				<g>
					
						<circle fill="#006633" stroke="#006633" stroke-width="0.6392" stroke-linecap="round" stroke-linejoin="round" stroke-miterlimit="10" cx="144.377" cy="199.472" r="10.65"/>
				</g>
				<g>
					
						<circle fill="#044924" stroke="#044924" stroke-width="0.6392" stroke-linecap="round" stroke-linejoin="round" stroke-miterlimit="10" cx="138.362" cy="206.401" r="10.65"/>
				</g>
				<g>
					
						<polygon fill="#93C01F" stroke="#93C01F" stroke-width="0.7119" stroke-linecap="round" stroke-linejoin="round" stroke-miterlimit="10" points="
						132.889,236.133 132.889,228.464 136.982,218.644 134.253,218.644 130.76,227.505 130.76,218.644 129.776,218.644 
						129.287,218.644 128.303,218.644 128.303,227.505 124.811,218.644 122.08,218.644 126.175,228.464 126.175,236.133 					"/>
				</g>
				<g>
					
						<circle fill="#006633" stroke="#006633" stroke-width="0.6392" stroke-linecap="round" stroke-linejoin="round" stroke-miterlimit="10" cx="138.362" cy="194.158" r="10.65"/>
				</g>
				<g>
					
						<circle fill="#006633" stroke="#006633" stroke-width="0.6392" stroke-linecap="round" stroke-linejoin="round" stroke-miterlimit="10" cx="123.964" cy="199.472" r="10.65"/>
				</g>
				<g>
					
						<path fill="#39A935" stroke="#39A935" stroke-width="0.6392" stroke-linecap="round" stroke-linejoin="round" stroke-miterlimit="10" d="
						M142.289,196.636"/>
				</g>
				<g>
					
						<path fill="#39A935" stroke="#39A935" stroke-width="0.6392" stroke-linecap="round" stroke-linejoin="round" stroke-miterlimit="10" d="
						M131.497,196.636"/>
				</g>
				<g>
					<g>
						<polygon fill="#7AA922" points="126.175,236.133 126.175,228.464 122.08,218.644 124.811,218.644 128.303,227.505 
							128.303,218.644 129.287,218.644 129.287,236.133 						"/>
					</g>
					<g>
						<path fill="#7AA922" d="M129.629,236.488h-3.454c-0.197,0-0.356-0.159-0.356-0.355v-7.598l-4.066-9.755
							c-0.046-0.109-0.034-0.235,0.032-0.334c0.065-0.099,0.177-0.159,0.296-0.159h2.73c0.146,0,0.277,0.09,0.331,0.227l2.806,7.117
							v-6.987c0-0.196,0.159-0.356,0.355-0.356h1.326V236.488z M126.53,235.776h2.4V219h-0.271v8.505c0,0.171-0.122,0.317-0.29,0.35
							c-0.168,0.031-0.335-0.06-0.397-0.219L124.567,219h-1.953l3.889,9.327c0.019,0.044,0.027,0.09,0.027,0.137V235.776z"/>
					</g>
				</g>
				<g>
					
						<circle fill="#006633" stroke="#006633" stroke-width="0.6392" stroke-linecap="round" stroke-linejoin="round" stroke-miterlimit="10" cx="143.571" cy="202.171" r="10.649"/>
				</g>
			</g>
			<g>
				<g>
					
						<circle fill="#006633" stroke="#006633" stroke-width="0.6392" stroke-linecap="round" stroke-linejoin="round" stroke-miterlimit="10" cx="89.925" cy="178.353" r="10.65"/>
				</g>
				<g>
					
						<path fill="#39A935" stroke="#39A935" stroke-width="0.6392" stroke-linecap="round" stroke-linejoin="round" stroke-miterlimit="10" d="
						M74.681,191.158"/>
				</g>
				<g>
					
						<path fill="#39A935" stroke="#39A935" stroke-width="0.6392" stroke-linecap="round" stroke-linejoin="round" stroke-miterlimit="10" d="
						M79.557,181.531"/>
				</g>
				<g>
					
						<circle fill="#006633" stroke="#006633" stroke-width="0.6392" stroke-linecap="round" stroke-linejoin="round" stroke-miterlimit="10" cx="83.692" cy="160.903" r="10.65"/>
				</g>
				<g>
					
						<circle fill="#044924" stroke="#044924" stroke-width="0.6392" stroke-linecap="round" stroke-linejoin="round" stroke-miterlimit="10" cx="77.465" cy="167.575" r="10.65"/>
				</g>
				<g>
					
						<circle fill="#006633" stroke="#006633" stroke-width="0.6392" stroke-linecap="round" stroke-linejoin="round" stroke-miterlimit="10" cx="72.15" cy="189.877" r="10.651"/>
				</g>
				<g>
					
						<circle fill="#044924" stroke="#044924" stroke-width="0.6392" stroke-linecap="round" stroke-linejoin="round" stroke-miterlimit="10" cx="68.686" cy="181.38" r="10.65"/>
				</g>
				<g>
					
						<polygon fill="#93C01F" stroke="#93C01F" stroke-width="0.7119" stroke-linecap="round" stroke-linejoin="round" stroke-miterlimit="10" points="
						44.636,163.063 51.478,166.528 58.388,174.618 59.621,172.183 53.295,165.062 61.2,169.066 61.645,168.189 61.865,167.753 
						62.31,166.875 54.405,162.871 63.888,163.759 65.122,161.323 54.511,160.539 47.67,157.074 					"/>
				</g>
				<g>
					
						<circle fill="#006633" stroke="#006633" stroke-width="0.6392" stroke-linecap="round" stroke-linejoin="round" stroke-miterlimit="10" cx="79.608" cy="186.912" r="10.65"/>
				</g>
				<g>
					
						<circle fill="#006633" stroke="#006633" stroke-width="0.6392" stroke-linecap="round" stroke-linejoin="round" stroke-miterlimit="10" cx="81.374" cy="171.667" r="10.65"/>
				</g>
				<g>
					
						<path fill="#39A935" stroke="#39A935" stroke-width="0.6392" stroke-linecap="round" stroke-linejoin="round" stroke-miterlimit="10" d="
						M75.624,189.296"/>
				</g>
				<g>
					
						<path fill="#39A935" stroke="#39A935" stroke-width="0.6392" stroke-linecap="round" stroke-linejoin="round" stroke-miterlimit="10" d="
						M80.5,179.668"/>
				</g>
				<g>
					<g>
						<polygon fill="#7AA922" points="47.67,157.074 54.511,160.539 65.122,161.323 63.888,163.759 54.405,162.871 62.31,166.875 
							61.865,167.753 46.264,159.851 						"/>
					</g>
					<g>
						<path fill="#7AA922" d="M45.792,159.994l1.561-3.081c0.089-0.176,0.303-0.245,0.478-0.157l6.778,3.434l10.54,0.779
							c0.118,0.009,0.225,0.076,0.283,0.18c0.058,0.104,0.062,0.23,0.008,0.336l-1.233,2.436c-0.066,0.131-0.205,0.207-0.352,0.193
							l-7.617-0.713l6.233,3.157c0.175,0.089,0.246,0.303,0.157,0.479l-0.599,1.183L45.792,159.994z M47.827,157.553l-1.085,2.141
							l14.966,7.58l0.123-0.242l-7.587-3.843c-0.152-0.077-0.229-0.252-0.182-0.416c0.049-0.165,0.205-0.272,0.375-0.256
							l9.242,0.865l0.883-1.743l-10.078-0.745c-0.047-0.004-0.093-0.016-0.134-0.037L47.827,157.553z"/>
					</g>
				</g>
				<g>
					
						<circle fill="#006633" stroke="#006633" stroke-width="0.6392" stroke-linecap="round" stroke-linejoin="round" stroke-miterlimit="10" cx="70.106" cy="187.939" r="10.65"/>
				</g>
			</g>
		</g>
	</g>
</g>
</svg>
