<?xml version="1.0" encoding="utf-8"?>
<!-- Generator: Adobe Illustrator 15.0.2, SVG Export Plug-In . SVG Version: 6.00 Build 0)  -->
<!DOCTYPE svg PUBLIC "-//W3C//DTD SVG 1.1//EN" "http://www.w3.org/Graphics/SVG/1.1/DTD/svg11.dtd">
<svg version="1.1" xmlns="http://www.w3.org/2000/svg" xmlns:xlink="http://www.w3.org/1999/xlink" x="0px" y="0px"
	 width="359.346px" height="275.707px" viewBox="0 0 359.346 275.707" enable-background="new 0 0 359.346 275.707"
	 xml:space="preserve">
<g id="Lager_2">
</g>
<g id="Lager_1">
	<g>
		<g>
			<circle fill="#FFFFFF" stroke="#FFFFFF" stroke-width="0.6858" stroke-miterlimit="10" cx="181.952" cy="137.854" r="137.51"/>
			<path fill="#F9F9F9" stroke="#F9F9F9" stroke-width="0.6858" stroke-miterlimit="10" d="M181.952,275.364
				c-75.945,0-137.511-61.566-137.511-137.511c0-75.945,61.565-137.511,137.511-137.511V275.364z"/>
			<circle fill="#F5F5F6" stroke="#F5F5F6" stroke-width="0.5569" stroke-miterlimit="10" cx="181.952" cy="137.854" r="111.661"/>
			<path fill="#EFF0F0" stroke="#EFF0F0" stroke-width="0.5569" stroke-miterlimit="10" d="M181.952,249.516
				c-61.669,0-111.661-49.994-111.661-111.662c0-61.669,49.992-111.661,111.661-111.661V249.516z"/>
		</g>
		<g>
			<g>
				<path fill="#FFFFFF" stroke="#FFFFFF" stroke-width="1.3866" stroke-miterlimit="10" d="M254.968,142.269
					c0,48.349-32.523,87.538-72.647,87.538c-40.121,0-79.282-31.935-72.646-81.985c4.6-34.703,28.396-41.292,40.467-57.384
					c13.974-18.632,23.607-44.538,51.269-44.538C241.534,45.899,254.968,93.92,254.968,142.269z"/>
			</g>
			<g>
				<g>
					<circle fill="#FFEC00" stroke="#FFEC00" stroke-width="1.0401" stroke-miterlimit="10" cx="181.952" cy="155.522" r="29.171"/>
				</g>
				<g>
					<path fill="#FFD400" stroke="#FFD400" stroke-width="1.0401" stroke-miterlimit="10" d="M181.951,126.353
						c16.111,0,29.171,13.062,29.171,29.17c0,16.111-13.061,29.171-29.171,29.171"/>
				</g>
			</g>
		</g>
		<g>
			
				<path fill="#ECECED" stroke="#ECECED" stroke-width="0.7972" stroke-linecap="round" stroke-linejoin="round" stroke-miterlimit="10" d="
				M348.99,122.294v136.281c0,4.55-3.688,8.238-8.237,8.238s-8.237-3.688-8.237-8.238V36.952c0-4.55,3.688-8.238,8.237-8.238
				c0.332,0,0.658,0.025,0.98,0.063c0.061,0.008,0.12,0.019,0.181,0.028c0.285,0.04,0.564,0.095,0.841,0.163
				c0.04,0.011,0.08,0.021,0.12,0.031c0.305,0.081,0.604,0.177,0.894,0.292c0.028,0.011,0.058,0.02,0.086,0.031
				c0.176,0.071,0.346,0.152,0.515,0.236c9.427,4.375,14.579,21.162,14.579,46.611c0,20.533-2.061,34.165-8.711,42.905
				C350.237,119.076,348.99,120.625,348.99,122.294z"/>
			<g>
				<path fill="#D8D9DA" d="M340.752,266.813c-4.55,0-8.237-3.688-8.237-8.238V36.952c0-4.55,3.688-8.238,8.237-8.238V266.813z"/>
				<path fill="#D8D9DA" d="M341.151,28.714v238.1c0,0.22-0.178,0.398-0.398,0.398c-4.762,0-8.636-3.874-8.636-8.637V36.952
					c0-4.762,3.874-8.637,8.636-8.637h0.398V28.714z M340.354,29.122c-4.138,0.209-7.44,3.641-7.44,7.83v221.623
					c0,4.189,3.303,7.621,7.44,7.829V29.122z"/>
			</g>
		</g>
		<g>
			
				<path fill="#EFF0F0" stroke="#EFF0F0" stroke-width="0.7972" stroke-linecap="round" stroke-linejoin="round" stroke-miterlimit="10" d="
				M24.049,258.177"/>
			
				<path fill="#ECECED" stroke="#ECECED" stroke-width="0.7972" stroke-linecap="round" stroke-linejoin="round" stroke-miterlimit="10" d="
				M29.165,32.351c-1.138,0-2.06,0.922-2.06,2.06v32.328H22.72V34.41c0-1.138-0.922-2.06-2.059-2.06c-1.138,0-2.06,0.922-2.06,2.06
				v32.328h-5.181V34.41c0-1.138-0.922-2.06-2.059-2.06c-1.138,0-2.06,0.922-2.06,2.06v32.328H4.518V34.41
				c0-1.138-0.922-2.06-2.06-2.06c-1.138,0-2.06,0.922-2.06,2.06v32.328v0.622v22.795c0,5.478,2.868,10.276,7.175,13.011v155.011
				c0,4.549,3.688,8.238,8.237,8.238s8.238-3.689,8.238-8.238V103.166c4.308-2.734,7.175-7.533,7.175-13.011V67.36v-0.622V34.41
				C31.224,33.272,30.302,32.351,29.165,32.351z"/>
			
				<path fill="#D8D9DA" stroke="#D8D9DA" stroke-width="0.7972" stroke-linecap="round" stroke-linejoin="round" stroke-miterlimit="10" d="
				M31.224,66.738"/>
			<g>
				<path fill="#D8D9DA" d="M15.811,266.415c-4.55,0-8.237-3.689-8.237-8.238V103.166c-4.308-2.734-7.175-7.533-7.175-13.011V67.36
					v-0.622V34.41c0-1.138,0.922-2.06,2.06-2.06c1.138,0,2.06,0.922,2.06,2.06v32.328H9.3V34.41c0-1.138,0.922-2.06,2.06-2.06
					c1.137,0,2.059,0.922,2.059,2.06v32.328h2.392V266.415z"/>
				<path fill="#D8D9DA" d="M16.209,66.738v199.677c0,0.219-0.178,0.398-0.398,0.398c-4.761,0-8.636-3.874-8.636-8.637V103.382
					C2.677,100.442,0,95.515,0,90.155V34.41c0-1.355,1.103-2.458,2.458-2.458s2.458,1.103,2.458,2.458v31.929h3.985V34.41
					c0-1.355,1.103-2.458,2.458-2.458s2.458,1.103,2.458,2.458v31.929h2.392V66.738z M2.458,32.749
					c-0.916,0-1.661,0.745-1.661,1.661v55.745c0,5.158,2.613,9.896,6.99,12.674c0.115,0.073,0.185,0.199,0.185,0.337v155.011
					c0,4.188,3.303,7.62,7.44,7.828V67.137h-1.993c-0.22,0-0.398-0.179-0.398-0.398V34.41c0-0.916-0.745-1.661-1.661-1.661
					c-0.917,0-1.662,0.745-1.662,1.661v32.328c0,0.22-0.178,0.398-0.398,0.398H4.518c-0.221,0-0.399-0.179-0.399-0.398V34.41
					C4.119,33.494,3.374,32.749,2.458,32.749z"/>
			</g>
		</g>
	</g>
</g>
</svg>
