<?xml version="1.0" encoding="utf-8"?>
<!-- Generator: Adobe Illustrator 15.0.2, SVG Export Plug-In . SVG Version: 6.00 Build 0)  -->
<!DOCTYPE svg PUBLIC "-//W3C//DTD SVG 1.1//EN" "http://www.w3.org/Graphics/SVG/1.1/DTD/svg11.dtd">
<svg version="1.1" id="Lager_1" xmlns="http://www.w3.org/2000/svg" xmlns:xlink="http://www.w3.org/1999/xlink" x="0px" y="0px"
	 width="208.333px" height="274.161px" viewBox="0 0 208.333 274.161" enable-background="new 0 0 208.333 274.161"
	 xml:space="preserve">
<g>
	<path fill="#F6F6F6" stroke="#F6F6F6" stroke-width="2" stroke-miterlimit="10" d="M8.39,67.321H1.058V33.755
		c0-15.095,12.279-27.375,27.374-27.375v7.333c-11.051,0-20.042,8.991-20.042,20.042V67.321z"/>
	
		<rect x="51.637" y="2.687" fill="#E74D3D" stroke="#E74D3D" stroke-width="5.3737" stroke-linecap="round" stroke-linejoin="round" stroke-miterlimit="10" width="139.113" height="255.498"/>
	
		<rect x="36.74" y="258.185" fill="#D9DADB" stroke="#D9DADB" stroke-width="5.3737" stroke-linecap="round" stroke-linejoin="round" stroke-miterlimit="10" width="168.906" height="13.289"/>
	<g>
		<path fill="#BF392A" d="M121.193,0h69.557c1.485,0,2.687,1.203,2.687,2.687v252.758h-72.243V2.687"/>
	</g>
	<rect x="68.8" y="13.462" fill="#FFFFFF" width="104.786" height="75.306"/>
	<rect x="121.193" y="13.462" fill="#F6F6F6" width="52.393" height="75.306"/>
	<path fill="none" stroke="#707173" stroke-width="10.7473" stroke-linejoin="round" stroke-miterlimit="10" d="M48.993,109.97
		h-12.69v106.705v-0.967c0,7.994-6.481,14.477-14.477,14.477h-1.945c-7.996,0-14.477-6.482-14.477-14.477V96.891"/>
	<path fill="#3E3D40" stroke="#3E3D40" stroke-miterlimit="10" d="M0.5,60.127v34.829v3.56h11.522h1.314h0.209
		c8.824,0,15.736-6.615,15.736-15.059V68.803v-4.955v-3.763c0-1.966-1.595-3.56-3.561-3.56H0.5V60.127z M23.421,69.453v14.003
		c0,4.89-3.916,8.731-9.039,9.121h-3.772V69.412L23.421,69.453z"/>
	<g>
		<path stroke="#000000" stroke-width="3" stroke-miterlimit="10" d="M121.409,68.277h-3.19V57.064
			c4.313-0.288,8.093-1.927,11.34-4.917c3.25-2.987,4.874-6.71,4.874-11.167s-1.295-8.065-3.882-10.827
			c-2.586-2.758-5.808-4.138-9.658-4.138c-3.854,0-6.917,0.818-9.188,2.457c-2.271,1.639-3.523,3.552-3.752,5.738h-3.189
			c0.172-3.334,1.769-6.11,4.787-8.325c3.018-2.214,6.453-3.32,10.307-3.32c1.092,0,2.643,0.186,4.657,0.562
			c2.011,0.372,3.664,0.948,4.959,1.723c1.296,0.776,2.601,1.769,3.924,2.976c2.818,2.586,4.226,6.756,4.226,12.504
			c0,5.752-1.537,10.279-4.615,13.585c-3.074,3.31-6.941,5.334-11.599,6.082V68.277z M117.959,77.248h3.277v4.491h-3.277V77.248z"/>
	</g>
</g>
</svg>
