<?xml version="1.0" encoding="utf-8"?>
<!-- Generator: Adobe Illustrator 15.0.2, SVG Export Plug-In . SVG Version: 6.00 Build 0)  -->
<!DOCTYPE svg PUBLIC "-//W3C//DTD SVG 1.1//EN" "http://www.w3.org/Graphics/SVG/1.1/DTD/svg11.dtd">
<svg version="1.1" id="Lager_1" xmlns="http://www.w3.org/2000/svg" xmlns:xlink="http://www.w3.org/1999/xlink" x="0px" y="0px"
	 width="178.163px" height="234.461px" viewBox="0 0 178.163 234.461" enable-background="new 0 0 178.163 234.461"
	 xml:space="preserve">
<g>
	<path fill="#F5F5F6" stroke="#F5F5F6" stroke-width="1.7104" stroke-miterlimit="10" d="M7.176,57.573H0.904V28.867
		c0-12.909,10.504-23.41,23.412-23.41v6.271c-9.451,0-17.141,7.688-17.141,17.141V57.573z"/>
	
		<rect x="44.16" y="2.3" fill="#E84F3F" stroke="#E84F3F" stroke-width="4.5955" stroke-linecap="round" stroke-linejoin="round" stroke-miterlimit="10" width="118.967" height="218.502"/>
	
		<rect x="31.42" y="220.802" fill="#5B5A5C" stroke="#5B5A5C" stroke-width="4.5955" stroke-linecap="round" stroke-linejoin="round" stroke-miterlimit="10" width="144.445" height="11.361"/>
	<g>
		<path fill="#BF3B29" d="M103.645,0h59.484c1.27,0,2.297,1.029,2.297,2.3v216.155h-61.781V2.3"/>
	</g>
	<rect x="58.836" y="11.515" fill="#FFFFFF" width="89.611" height="64.398"/>
	<rect x="103.645" y="11.515" fill="#F5F5F6" width="44.805" height="64.398"/>
	<path fill="none" stroke="#717173" stroke-width="9.191" stroke-linejoin="round" stroke-miterlimit="10" d="M41.9,94.046H31.047
		v91.253v-0.825c0,6.838-5.545,12.383-12.383,12.383h-1.66c-6.842,0-12.381-5.545-12.381-12.383V82.86"/>
	<path fill="#3F3E40" stroke="#3F3E40" stroke-width="0.8552" stroke-miterlimit="10" d="M0.428,51.422v29.784v3.044h9.854h1.123
		h0.182c7.545,0,13.457-5.654,13.457-12.878v-12.53v-4.237v-3.216c0-1.686-1.363-3.046-3.045-3.046H0.428V51.422z M20.029,59.396
		v11.977c0,4.184-3.348,7.465-7.73,7.802H9.074V59.361L20.029,59.396z"/>
	<g>
		<g>
			<g>
				<path fill="#54B16F" d="M130.318,42.907c-2.025-0.034-13.865-0.067-17.693-1.876c-9.422-4.445-9.422-19.058-9.422-19.058
					s20.012-2.203,22.572,12.539c0.996,5.767,1.031,5.464,4.764,6.015h4.375v2.38H130.318L130.318,42.907z"/>
			</g>
		</g>
		<g>
			<g>
				<path fill="#44A260" d="M122.549,45.059c-2.021,0.027-13.861,0.064-17.689,1.868c-9.424,4.454-9.424,19.062-9.424,19.062
					s20.01,2.203,22.57-12.541c1.002-5.768,1.035-5.458,4.766-6.017h12.143v-2.375L122.549,45.059L122.549,45.059z"/>
			</g>
			<g>
				<path fill="#44A260" d="M119.008,45.123c-4.404,0.119-11.377,0.499-14.148,1.804c-9.424,4.454-9.424,19.062-9.424,19.062"/>
			</g>
		</g>
		<g>
			<g>
				<path fill="#54B16F" d="M98.717,41.86c-2.021,0.029-13.861,0.067-17.689,1.871c-9.422,4.455-9.422,19.062-9.422,19.062
					s20.008,2.201,22.568-12.542c1.004-5.768,1.035-5.461,4.766-6.018h9.131v-2.375L98.717,41.86L98.717,41.86z"/>
			</g>
			<g>
				<path fill="#54B16F" d="M95.178,41.929c-4.402,0.114-11.375,0.497-14.15,1.804c-9.422,4.455-9.422,19.062-9.422,19.062"/>
			</g>
		</g>
	</g>
</g>
</svg>
