<?xml version="1.0" encoding="utf-8"?>
<!-- Generator: Adobe Illustrator 17.0.0, SVG Export Plug-In . SVG Version: 6.00 Build 0)  -->
<!DOCTYPE svg PUBLIC "-//W3C//DTD SVG 1.1//EN" "http://www.w3.org/Graphics/SVG/1.1/DTD/svg11.dtd">
<svg version="1.1" id="Layer_1" xmlns="http://www.w3.org/2000/svg" xmlns:xlink="http://www.w3.org/1999/xlink" x="0px" y="0px"
	 width="71.766px" height="317.375px" viewBox="0 0 71.766 317.375" enable-background="new 0 0 71.766 317.375"
	 xml:space="preserve">
<g>
	<path fill="#DFF2FD" d="M60.531,278.064L59.508,9.63c-0.02-5.339-4.365-9.65-9.703-9.63c-5.339,0.021-9.65,4.365-9.63,9.704
		l1.022,268.433c-6.62,3.51-11.125,10.474-11.095,18.487c0.044,11.505,9.406,20.795,20.912,20.751
		c11.504-0.044,20.795-9.405,20.751-20.91C71.735,288.451,67.178,281.522,60.531,278.064z M50.996,312.375
		c-8.729,0.033-15.859-7.041-15.892-15.771c-0.023-5.896,3.21-11.279,8.437-14.05l2.669-1.415L45.175,9.685
		C45.166,7.111,47.251,5.01,49.824,5c2.573-0.01,4.674,2.076,4.684,4.649l1.034,271.455l2.68,1.396
		c5.247,2.73,8.521,8.09,8.543,13.985C66.799,305.214,59.725,312.342,50.996,312.375z"/>
	<path opacity="0" fill="#FFFFFF" d="M58.223,282.499l-2.68-1.396L54.508,9.649C54.498,7.076,52.397,4.99,49.824,5
		c-2.573,0.01-4.659,2.111-4.649,4.685L46.21,281.14l-2.669,1.415c-5.227,2.771-8.459,8.154-8.437,14.05
		c0.034,8.729,7.163,15.804,15.892,15.771c8.729-0.033,15.804-7.161,15.771-15.891C66.744,290.589,63.47,285.23,58.223,282.499z"/>
</g>
<line fill="none" stroke="#FFFFFF" stroke-width="2" stroke-linecap="round" stroke-miterlimit="10" x1="28.697" y1="143.116" x2="1" y2="143.222"/>
<line fill="none" stroke="#FFFFFF" stroke-linecap="round" stroke-miterlimit="10" x1="28.722" y1="149.736" x2="15.685" y2="149.786"/>
<line fill="none" stroke="#FFFFFF" stroke-linecap="round" stroke-miterlimit="10" x1="28.748" y1="156.356" x2="15.709" y2="156.406"/>
<line fill="none" stroke="#FFFFFF" stroke-linecap="round" stroke-miterlimit="10" x1="28.773" y1="162.977" x2="15.735" y2="163.026"/>
<line fill="none" stroke="#FFFFFF" stroke-linecap="round" stroke-miterlimit="10" x1="28.798" y1="169.597" x2="15.76" y2="169.647"/>
<line fill="none" stroke="#FFFFFF" stroke-width="2" stroke-linecap="round" stroke-miterlimit="10" x1="28.823" y1="176.216" x2="8.944" y2="176.291"/>
<line fill="none" stroke="#FFFFFF" stroke-linecap="round" stroke-miterlimit="10" x1="28.849" y1="182.836" x2="15.811" y2="182.886"/>
<line fill="none" stroke="#FFFFFF" stroke-linecap="round" stroke-miterlimit="10" x1="28.874" y1="189.456" x2="15.835" y2="189.506"/>
<line fill="none" stroke="#FFFFFF" stroke-linecap="round" stroke-miterlimit="10" x1="28.899" y1="196.076" x2="15.861" y2="196.126"/>
<line fill="none" stroke="#FFFFFF" stroke-linecap="round" stroke-miterlimit="10" x1="28.924" y1="202.696" x2="15.886" y2="202.745"/>
<line fill="none" stroke="#FFFFFF" stroke-width="2" stroke-linecap="round" stroke-miterlimit="10" x1="28.949" y1="209.316" x2="9.07" y2="209.392"/>
<line fill="none" stroke="#FFFFFF" stroke-linecap="round" stroke-miterlimit="10" x1="28.975" y1="215.936" x2="15.937" y2="215.984"/>
<line fill="none" stroke="#FFFFFF" stroke-linecap="round" stroke-miterlimit="10" x1="29" y1="222.556" x2="15.962" y2="222.605"/>
<line fill="none" stroke="#FFFFFF" stroke-linecap="round" stroke-miterlimit="10" x1="29.025" y1="229.175" x2="15.987" y2="229.225"/>
<line fill="none" stroke="#FFFFFF" stroke-linecap="round" stroke-miterlimit="10" x1="29.05" y1="235.795" x2="16.012" y2="235.845"/>
<line fill="none" stroke="#FFFFFF" stroke-width="2" stroke-linecap="round" stroke-miterlimit="10" x1="29.075" y1="242.415" x2="9.197" y2="242.491"/>
<line fill="none" stroke="#FFFFFF" stroke-linecap="round" stroke-miterlimit="10" x1="29.101" y1="249.035" x2="16.062" y2="249.085"/>
<line fill="none" stroke="#FFFFFF" stroke-linecap="round" stroke-miterlimit="10" x1="29.126" y1="255.654" x2="16.088" y2="255.704"/>
<line fill="none" stroke="#FFFFFF" stroke-linecap="round" stroke-miterlimit="10" x1="29.151" y1="262.275" x2="16.113" y2="262.324"/>
<line fill="none" stroke="#FFFFFF" stroke-linecap="round" stroke-miterlimit="10" x1="29.176" y1="268.895" x2="16.138" y2="268.944"/>
<line fill="none" stroke="#FFFFFF" stroke-width="2" stroke-linecap="round" stroke-miterlimit="10" x1="29.202" y1="275.515" x2="9.323" y2="275.591"/>
<line fill="none" stroke="#FFFFFF" stroke-width="2" stroke-linecap="round" stroke-miterlimit="10" x1="28.191" y1="10.272" x2="8.312" y2="10.348"/>
<line fill="none" stroke="#FFFFFF" stroke-linecap="round" stroke-miterlimit="10" x1="28.216" y1="16.892" x2="15.178" y2="16.942"/>
<line fill="none" stroke="#FFFFFF" stroke-linecap="round" stroke-miterlimit="10" x1="28.241" y1="23.512" x2="15.204" y2="23.562"/>
<line fill="none" stroke="#FFFFFF" stroke-linecap="round" stroke-miterlimit="10" x1="28.267" y1="30.132" x2="15.228" y2="30.182"/>
<line fill="none" stroke="#FFFFFF" stroke-linecap="round" stroke-miterlimit="10" x1="28.292" y1="36.752" x2="15.254" y2="36.802"/>
<line fill="none" stroke="#FFFFFF" stroke-width="2" stroke-linecap="round" stroke-miterlimit="10" x1="28.317" y1="43.372" x2="8.438" y2="43.447"/>
<line fill="none" stroke="#FFFFFF" stroke-linecap="round" stroke-miterlimit="10" x1="28.342" y1="49.992" x2="15.304" y2="50.041"/>
<line fill="none" stroke="#FFFFFF" stroke-linecap="round" stroke-miterlimit="10" x1="28.368" y1="56.611" x2="15.33" y2="56.661"/>
<line fill="none" stroke="#FFFFFF" stroke-linecap="round" stroke-miterlimit="10" x1="28.393" y1="63.231" x2="15.355" y2="63.281"/>
<line fill="none" stroke="#FFFFFF" stroke-linecap="round" stroke-miterlimit="10" x1="28.418" y1="69.852" x2="15.38" y2="69.901"/>
<line fill="none" stroke="#FFFFFF" stroke-width="2" stroke-linecap="round" stroke-miterlimit="10" x1="28.443" y1="76.472" x2="8.564" y2="76.547"/>
<line fill="none" stroke="#FFFFFF" stroke-linecap="round" stroke-miterlimit="10" x1="28.468" y1="83.091" x2="15.431" y2="83.141"/>
<line fill="none" stroke="#FFFFFF" stroke-linecap="round" stroke-miterlimit="10" x1="28.494" y1="89.71" x2="15.456" y2="89.76"/>
<line fill="none" stroke="#FFFFFF" stroke-linecap="round" stroke-miterlimit="10" x1="28.519" y1="96.332" x2="15.481" y2="96.381"/>
<line fill="none" stroke="#FFFFFF" stroke-linecap="round" stroke-miterlimit="10" x1="28.544" y1="102.951" x2="15.506" y2="103.001"/>
<line fill="none" stroke="#FFFFFF" stroke-width="2" stroke-linecap="round" stroke-miterlimit="10" x1="28.569" y1="109.572" x2="8.691" y2="109.647"/>
<line fill="none" stroke="#FFFFFF" stroke-linecap="round" stroke-miterlimit="10" x1="28.595" y1="116.191" x2="15.557" y2="116.24"/>
<line fill="none" stroke="#FFFFFF" stroke-linecap="round" stroke-miterlimit="10" x1="28.62" y1="122.81" x2="15.582" y2="122.859"/>
<line fill="none" stroke="#FFFFFF" stroke-linecap="round" stroke-miterlimit="10" x1="28.645" y1="129.431" x2="15.607" y2="129.48"/>
<line fill="none" stroke="#FFFFFF" stroke-linecap="round" stroke-miterlimit="10" x1="28.67" y1="136.05" x2="15.632" y2="136.1"/>
</svg>
