<?xml version="1.0" encoding="utf-8"?>
<!-- Generator: Adobe Illustrator 15.0.2, SVG Export Plug-In . SVG Version: 6.00 Build 0)  -->
<!DOCTYPE svg PUBLIC "-//W3C//DTD SVG 1.1//EN" "http://www.w3.org/Graphics/SVG/1.1/DTD/svg11.dtd">
<svg version="1.1" id="Lager_1" xmlns="http://www.w3.org/2000/svg" xmlns:xlink="http://www.w3.org/1999/xlink" x="0px" y="0px"
	 width="135.212px" height="236.5px" viewBox="0 0 135.212 236.5" enable-background="new 0 0 135.212 236.5" xml:space="preserve">
<g>
	<path fill="#FFD141" d="M89.216,190.769c0,0-20.478-35.595-57.089-11.654c0,0,12.697-38.371-32.127-48.608
		c0,0,36.534-21.364,11.654-57.093c0,0,42.468,9.805,48.609-32.128c0,0,22.004,35.788,57.089,11.656L89.216,190.769z"/>
	<circle fill="#FFDF61" cx="74.74" cy="116.027" r="48.626"/>
	<g>
		<g>
			
				<line fill="none" stroke="#6F6F6E" stroke-width="1.1143" stroke-linecap="round" stroke-miterlimit="10" x1="94.796" y1="201.108" x2="83.722" y2="201.108"/>
			<path fill="#FFFFFF" d="M135.212,219.528c0,9.374-7.599,16.972-16.973,16.972H91.711c-9.372,0-16.971-7.598-16.971-16.972V16.972
				C74.74,7.599,82.339,0,91.711,0h26.528c9.374,0,16.973,7.599,16.973,16.972V219.528z"/>
			<g>
				<path fill="#FFFFFF" d="M110.363,201.126V24.729c0-2.975-2.412-5.386-5.386-5.386c-2.975,0-5.386,2.411-5.386,5.386v176.397
					c-3.696,1.94-6.222,5.812-6.222,10.276c0,6.41,5.196,11.605,11.607,11.605c6.409,0,11.604-5.195,11.604-11.605
					C116.582,206.938,114.06,203.066,110.363,201.126z"/>
				<path fill="#E3F3FD" d="M104.978,220.223c-4.863,0-8.82-3.957-8.82-8.82c0-3.284,1.812-6.277,4.729-7.81l1.49-0.783V24.729
					c0-1.435,1.167-2.6,2.601-2.6s2.6,1.166,2.6,2.6V202.81l1.489,0.783c2.919,1.532,4.73,4.525,4.73,7.81
					C113.797,216.266,109.841,220.223,104.978,220.223z"/>
				<path fill="#E84A3C" d="M107.577,55.645V202.81l1.489,0.783c2.919,1.532,4.73,4.525,4.73,7.81c0,4.863-3.956,8.82-8.819,8.82
					s-8.82-3.957-8.82-8.82c0-3.284,1.812-6.277,4.729-7.81l1.49-0.783V55.645H107.577z"/>
			</g>
			
				<line fill="none" stroke="#6F6F6E" stroke-width="0.9389" stroke-linecap="round" stroke-miterlimit="10" x1="94.796" y1="127.341" x2="83.84" y2="127.341"/>
			
				<line fill="none" stroke="#6F6F6E" stroke-width="0.4695" stroke-linecap="round" stroke-miterlimit="10" x1="94.796" y1="131.03" x2="89.638" y2="131.03"/>
			
				<line fill="none" stroke="#6F6F6E" stroke-width="0.4695" stroke-linecap="round" stroke-miterlimit="10" x1="94.796" y1="134.718" x2="89.638" y2="134.718"/>
			
				<line fill="none" stroke="#6F6F6E" stroke-width="0.4695" stroke-linecap="round" stroke-miterlimit="10" x1="94.796" y1="138.407" x2="89.638" y2="138.407"/>
			
				<line fill="none" stroke="#6F6F6E" stroke-width="0.4695" stroke-linecap="round" stroke-miterlimit="10" x1="94.796" y1="142.095" x2="89.638" y2="142.095"/>
			
				<line fill="none" stroke="#6F6F6E" stroke-width="0.9389" stroke-linecap="round" stroke-miterlimit="10" x1="94.796" y1="145.783" x2="86.933" y2="145.783"/>
			
				<line fill="none" stroke="#6F6F6E" stroke-width="0.4695" stroke-linecap="round" stroke-miterlimit="10" x1="94.796" y1="149.471" x2="89.638" y2="149.471"/>
			
				<line fill="none" stroke="#6F6F6E" stroke-width="0.4695" stroke-linecap="round" stroke-miterlimit="10" x1="94.796" y1="153.16" x2="89.638" y2="153.16"/>
			
				<line fill="none" stroke="#6F6F6E" stroke-width="0.4695" stroke-linecap="round" stroke-miterlimit="10" x1="94.796" y1="156.848" x2="89.638" y2="156.848"/>
			
				<line fill="none" stroke="#6F6F6E" stroke-width="0.4695" stroke-linecap="round" stroke-miterlimit="10" x1="94.796" y1="160.537" x2="89.638" y2="160.537"/>
			
				<line fill="none" stroke="#6F6F6E" stroke-width="0.9389" stroke-linecap="round" stroke-miterlimit="10" x1="94.796" y1="164.225" x2="86.933" y2="164.225"/>
			
				<line fill="none" stroke="#6F6F6E" stroke-width="0.4695" stroke-linecap="round" stroke-miterlimit="10" x1="94.796" y1="167.912" x2="89.638" y2="167.912"/>
			
				<line fill="none" stroke="#6F6F6E" stroke-width="0.4695" stroke-linecap="round" stroke-miterlimit="10" x1="94.796" y1="171.601" x2="89.638" y2="171.601"/>
			
				<line fill="none" stroke="#6F6F6E" stroke-width="0.4695" stroke-linecap="round" stroke-miterlimit="10" x1="94.796" y1="175.289" x2="89.638" y2="175.289"/>
			
				<line fill="none" stroke="#6F6F6E" stroke-width="0.4695" stroke-linecap="round" stroke-miterlimit="10" x1="94.796" y1="178.979" x2="89.638" y2="178.979"/>
			
				<line fill="none" stroke="#6F6F6E" stroke-width="0.9389" stroke-linecap="round" stroke-miterlimit="10" x1="94.796" y1="182.665" x2="86.933" y2="182.665"/>
			
				<line fill="none" stroke="#6F6F6E" stroke-width="0.4695" stroke-linecap="round" stroke-miterlimit="10" x1="94.796" y1="186.354" x2="89.638" y2="186.354"/>
			
				<line fill="none" stroke="#6F6F6E" stroke-width="0.4695" stroke-linecap="round" stroke-miterlimit="10" x1="94.796" y1="190.042" x2="89.638" y2="190.042"/>
			
				<line fill="none" stroke="#6F6F6E" stroke-width="0.4695" stroke-linecap="round" stroke-miterlimit="10" x1="94.796" y1="193.73" x2="89.638" y2="193.73"/>
			
				<line fill="none" stroke="#6F6F6E" stroke-width="0.4695" stroke-linecap="round" stroke-miterlimit="10" x1="94.796" y1="197.419" x2="89.638" y2="197.419"/>
			
				<line fill="none" stroke="#6F6F6E" stroke-width="0.9389" stroke-linecap="round" stroke-miterlimit="10" x1="94.796" y1="53.327" x2="86.933" y2="53.327"/>
			
				<line fill="none" stroke="#6F6F6E" stroke-width="0.4695" stroke-linecap="round" stroke-miterlimit="10" x1="94.796" y1="57.015" x2="89.638" y2="57.015"/>
			
				<line fill="none" stroke="#6F6F6E" stroke-width="0.4695" stroke-linecap="round" stroke-miterlimit="10" x1="94.796" y1="60.703" x2="89.638" y2="60.703"/>
			
				<line fill="none" stroke="#6F6F6E" stroke-width="0.4695" stroke-linecap="round" stroke-miterlimit="10" x1="94.796" y1="64.392" x2="89.638" y2="64.392"/>
			
				<line fill="none" stroke="#6F6F6E" stroke-width="0.4695" stroke-linecap="round" stroke-miterlimit="10" x1="94.796" y1="68.08" x2="89.638" y2="68.08"/>
			
				<line fill="none" stroke="#6F6F6E" stroke-width="0.9389" stroke-linecap="round" stroke-miterlimit="10" x1="94.796" y1="34.958" x2="86.933" y2="34.958"/>
			
				<line fill="none" stroke="#6F6F6E" stroke-width="0.4695" stroke-linecap="round" stroke-miterlimit="10" x1="94.796" y1="38.647" x2="89.638" y2="38.647"/>
			
				<line fill="none" stroke="#6F6F6E" stroke-width="0.4695" stroke-linecap="round" stroke-miterlimit="10" x1="94.796" y1="42.335" x2="89.638" y2="42.335"/>
			
				<line fill="none" stroke="#6F6F6E" stroke-width="0.4695" stroke-linecap="round" stroke-miterlimit="10" x1="94.796" y1="46.023" x2="89.638" y2="46.023"/>
			
				<line fill="none" stroke="#6F6F6E" stroke-width="0.4695" stroke-linecap="round" stroke-miterlimit="10" x1="94.796" y1="49.711" x2="89.638" y2="49.711"/>
			
				<line fill="none" stroke="#6F6F6E" stroke-width="0.9389" stroke-linecap="round" stroke-miterlimit="10" x1="94.796" y1="71.768" x2="86.933" y2="71.768"/>
			
				<line fill="none" stroke="#6F6F6E" stroke-width="0.4695" stroke-linecap="round" stroke-miterlimit="10" x1="94.796" y1="75.456" x2="89.638" y2="75.456"/>
			
				<line fill="none" stroke="#6F6F6E" stroke-width="0.4695" stroke-linecap="round" stroke-miterlimit="10" x1="94.796" y1="79.145" x2="89.638" y2="79.145"/>
			
				<line fill="none" stroke="#6F6F6E" stroke-width="0.4695" stroke-linecap="round" stroke-miterlimit="10" x1="94.796" y1="82.833" x2="89.638" y2="82.833"/>
			
				<line fill="none" stroke="#6F6F6E" stroke-width="0.4695" stroke-linecap="round" stroke-miterlimit="10" x1="94.796" y1="86.521" x2="89.638" y2="86.521"/>
			
				<line fill="none" stroke="#6F6F6E" stroke-width="0.9389" stroke-linecap="round" stroke-miterlimit="10" x1="94.796" y1="90.209" x2="86.933" y2="90.209"/>
			
				<line fill="none" stroke="#6F6F6E" stroke-width="0.4695" stroke-linecap="round" stroke-miterlimit="10" x1="94.796" y1="93.898" x2="89.638" y2="93.898"/>
			
				<line fill="none" stroke="#6F6F6E" stroke-width="0.4695" stroke-linecap="round" stroke-miterlimit="10" x1="94.796" y1="97.586" x2="89.638" y2="97.586"/>
			
				<line fill="none" stroke="#6F6F6E" stroke-width="0.4695" stroke-linecap="round" stroke-miterlimit="10" x1="94.796" y1="101.275" x2="89.638" y2="101.275"/>
			
				<line fill="none" stroke="#6F6F6E" stroke-width="0.4695" stroke-linecap="round" stroke-miterlimit="10" x1="94.796" y1="104.963" x2="89.638" y2="104.963"/>
			
				<line fill="none" stroke="#6F6F6E" stroke-width="0.9389" stroke-linecap="round" stroke-miterlimit="10" x1="94.796" y1="108.651" x2="86.933" y2="108.651"/>
			
				<line fill="none" stroke="#6F6F6E" stroke-width="0.4695" stroke-linecap="round" stroke-miterlimit="10" x1="94.796" y1="112.339" x2="89.638" y2="112.339"/>
			
				<line fill="none" stroke="#6F6F6E" stroke-width="0.4695" stroke-linecap="round" stroke-miterlimit="10" x1="94.796" y1="116.026" x2="89.638" y2="116.026"/>
			
				<line fill="none" stroke="#6F6F6E" stroke-width="0.4695" stroke-linecap="round" stroke-miterlimit="10" x1="94.796" y1="119.717" x2="89.638" y2="119.717"/>
			
				<line fill="none" stroke="#6F6F6E" stroke-width="0.4695" stroke-linecap="round" stroke-miterlimit="10" x1="94.796" y1="123.404" x2="89.638" y2="123.404"/>
		</g>
	</g>
</g>
</svg>
