<?xml version="1.0" encoding="utf-8"?>
<!-- Generator: Adobe Illustrator 15.0.2, SVG Export Plug-In . SVG Version: 6.00 Build 0)  -->
<!DOCTYPE svg PUBLIC "-//W3C//DTD SVG 1.1//EN" "http://www.w3.org/Graphics/SVG/1.1/DTD/svg11.dtd">
<svg version="1.1" id="Lager_1" xmlns="http://www.w3.org/2000/svg" xmlns:xlink="http://www.w3.org/1999/xlink" x="0px" y="0px" viewBox="0 0 71.182 317.378" enable-background="new 0 0 71.182 317.378"
	 xml:space="preserve">
<g>
	<path fill="#E0F2FB" d="M60.017,278.103V9.667C60.017,4.328,55.688,0,50.351,0c-5.339,0-9.667,4.328-9.667,9.667v268.436
		c-6.634,3.484-11.165,10.43-11.165,18.443c0,11.506,9.326,20.832,20.832,20.832c11.504,0,20.831-9.326,20.831-20.832
		C71.182,288.532,66.65,281.587,60.017,278.103z"/>
	<path fill="#FFFFFF" d="M50.351,312.378c-8.729,0-15.832-7.102-15.832-15.832c0-5.895,3.253-11.268,8.49-14.018l2.675-1.404V9.667
		C45.684,7.093,47.777,5,50.351,5s4.666,2.093,4.666,4.667v271.458l2.675,1.404c5.237,2.75,8.49,8.123,8.49,14.018
		C66.182,305.276,59.08,312.378,50.351,312.378z"/>
	
		<line fill="none" stroke="#FFFFFF" stroke-width="2" stroke-linecap="round" stroke-miterlimit="10" x1="28.697" y1="143.034" x2="1" y2="143.034"/>
	
		<line fill="none" stroke="#FFFFFF" stroke-linecap="round" stroke-miterlimit="10" x1="28.697" y1="149.655" x2="15.659" y2="149.655"/>
	
		<line fill="none" stroke="#FFFFFF" stroke-linecap="round" stroke-miterlimit="10" x1="28.697" y1="156.274" x2="15.659" y2="156.274"/>
	
		<line fill="none" stroke="#FFFFFF" stroke-linecap="round" stroke-miterlimit="10" x1="28.697" y1="162.896" x2="15.659" y2="162.896"/>
	
		<line fill="none" stroke="#FFFFFF" stroke-linecap="round" stroke-miterlimit="10" x1="28.697" y1="169.515" x2="15.659" y2="169.515"/>
	
		<line fill="none" stroke="#FFFFFF" stroke-width="2" stroke-linecap="round" stroke-miterlimit="10" x1="28.697" y1="176.134" x2="8.818" y2="176.134"/>
	
		<line fill="none" stroke="#FFFFFF" stroke-linecap="round" stroke-miterlimit="10" x1="28.697" y1="182.755" x2="15.659" y2="182.755"/>
	
		<line fill="none" stroke="#FFFFFF" stroke-linecap="round" stroke-miterlimit="10" x1="28.697" y1="189.374" x2="15.659" y2="189.374"/>
	
		<line fill="none" stroke="#FFFFFF" stroke-linecap="round" stroke-miterlimit="10" x1="28.697" y1="195.995" x2="15.659" y2="195.995"/>
	
		<line fill="none" stroke="#FFFFFF" stroke-linecap="round" stroke-miterlimit="10" x1="28.697" y1="202.614" x2="15.659" y2="202.614"/>
	
		<line fill="none" stroke="#FFFFFF" stroke-width="2" stroke-linecap="round" stroke-miterlimit="10" x1="28.697" y1="209.235" x2="8.818" y2="209.235"/>
	
		<line fill="none" stroke="#FFFFFF" stroke-linecap="round" stroke-miterlimit="10" x1="28.697" y1="215.854" x2="15.659" y2="215.854"/>
	
		<line fill="none" stroke="#FFFFFF" stroke-linecap="round" stroke-miterlimit="10" x1="28.697" y1="222.474" x2="15.659" y2="222.474"/>
	
		<line fill="none" stroke="#FFFFFF" stroke-linecap="round" stroke-miterlimit="10" x1="28.697" y1="229.095" x2="15.659" y2="229.095"/>
	
		<line fill="none" stroke="#FFFFFF" stroke-linecap="round" stroke-miterlimit="10" x1="28.697" y1="235.714" x2="15.659" y2="235.714"/>
	
		<line fill="none" stroke="#FFFFFF" stroke-width="2" stroke-linecap="round" stroke-miterlimit="10" x1="28.697" y1="242.335" x2="8.818" y2="242.335"/>
	
		<line fill="none" stroke="#FFFFFF" stroke-linecap="round" stroke-miterlimit="10" x1="28.697" y1="248.954" x2="15.659" y2="248.954"/>
	
		<line fill="none" stroke="#FFFFFF" stroke-linecap="round" stroke-miterlimit="10" x1="28.697" y1="255.573" x2="15.659" y2="255.573"/>
	
		<line fill="none" stroke="#FFFFFF" stroke-linecap="round" stroke-miterlimit="10" x1="28.697" y1="262.194" x2="15.659" y2="262.194"/>
	
		<line fill="none" stroke="#FFFFFF" stroke-linecap="round" stroke-miterlimit="10" x1="28.697" y1="268.813" x2="15.659" y2="268.813"/>
	
		<line fill="none" stroke="#FFFFFF" stroke-width="2" stroke-linecap="round" stroke-miterlimit="10" x1="28.697" y1="275.435" x2="8.818" y2="275.435"/>
	
		<line fill="none" stroke="#FFFFFF" stroke-width="2" stroke-linecap="round" stroke-miterlimit="10" x1="28.697" y1="10.189" x2="8.818" y2="10.189"/>
	
		<line fill="none" stroke="#FFFFFF" stroke-linecap="round" stroke-miterlimit="10" x1="28.697" y1="16.81" x2="15.659" y2="16.81"/>
	
		<line fill="none" stroke="#FFFFFF" stroke-linecap="round" stroke-miterlimit="10" x1="28.697" y1="23.43" x2="15.659" y2="23.43"/>
	
		<line fill="none" stroke="#FFFFFF" stroke-linecap="round" stroke-miterlimit="10" x1="28.697" y1="30.05" x2="15.659" y2="30.05"/>
	
		<line fill="none" stroke="#FFFFFF" stroke-linecap="round" stroke-miterlimit="10" x1="28.697" y1="36.67" x2="15.659" y2="36.67"/>
	
		<line fill="none" stroke="#FFFFFF" stroke-width="2" stroke-linecap="round" stroke-miterlimit="10" x1="28.697" y1="43.289" x2="8.818" y2="43.289"/>
	
		<line fill="none" stroke="#FFFFFF" stroke-linecap="round" stroke-miterlimit="10" x1="28.697" y1="49.909" x2="15.659" y2="49.909"/>
	
		<line fill="none" stroke="#FFFFFF" stroke-linecap="round" stroke-miterlimit="10" x1="28.697" y1="56.529" x2="15.659" y2="56.529"/>
	
		<line fill="none" stroke="#FFFFFF" stroke-linecap="round" stroke-miterlimit="10" x1="28.697" y1="63.149" x2="15.659" y2="63.149"/>
	
		<line fill="none" stroke="#FFFFFF" stroke-linecap="round" stroke-miterlimit="10" x1="28.697" y1="69.77" x2="15.659" y2="69.77"/>
	
		<line fill="none" stroke="#FFFFFF" stroke-width="2" stroke-linecap="round" stroke-miterlimit="10" x1="28.697" y1="76.39" x2="8.818" y2="76.39"/>
	
		<line fill="none" stroke="#FFFFFF" stroke-linecap="round" stroke-miterlimit="10" x1="28.697" y1="83.009" x2="15.659" y2="83.009"/>
	
		<line fill="none" stroke="#FFFFFF" stroke-linecap="round" stroke-miterlimit="10" x1="28.697" y1="89.628" x2="15.659" y2="89.628"/>
	
		<line fill="none" stroke="#FFFFFF" stroke-linecap="round" stroke-miterlimit="10" x1="28.697" y1="96.249" x2="15.659" y2="96.249"/>
	
		<line fill="none" stroke="#FFFFFF" stroke-linecap="round" stroke-miterlimit="10" x1="28.697" y1="102.868" x2="15.659" y2="102.868"/>
	
		<line fill="none" stroke="#FFFFFF" stroke-width="2" stroke-linecap="round" stroke-miterlimit="10" x1="28.697" y1="109.489" x2="8.818" y2="109.489"/>
	
		<line fill="none" stroke="#FFFFFF" stroke-linecap="round" stroke-miterlimit="10" x1="28.697" y1="116.108" x2="15.659" y2="116.108"/>
	
		<line fill="none" stroke="#FFFFFF" stroke-linecap="round" stroke-miterlimit="10" x1="28.697" y1="122.728" x2="15.659" y2="122.728"/>
	
		<line fill="none" stroke="#FFFFFF" stroke-linecap="round" stroke-miterlimit="10" x1="28.697" y1="129.349" x2="15.659" y2="129.349"/>
	
		<line fill="none" stroke="#FFFFFF" stroke-linecap="round" stroke-miterlimit="10" x1="28.697" y1="135.968" x2="15.659" y2="135.968"/>
	<path fill="#E74D3D" d="M55.017,109.509v171.615l2.675,1.404c5.237,2.75,8.49,8.123,8.49,14.018c0,8.73-7.102,15.832-15.831,15.832
		s-15.832-7.102-15.832-15.832c0-5.895,3.253-11.268,8.49-14.018l2.675-1.404V109.509H55.017z"/>
</g>
</svg>
