<?xml version="1.0" encoding="utf-8"?>
<!-- Generator: Adobe Illustrator 15.0.2, SVG Export Plug-In . SVG Version: 6.00 Build 0)  -->
<!DOCTYPE svg PUBLIC "-//W3C//DTD SVG 1.1//EN" "http://www.w3.org/Graphics/SVG/1.1/DTD/svg11.dtd">
<svg version="1.1" id="Layer_1" xmlns="http://www.w3.org/2000/svg" xmlns:xlink="http://www.w3.org/1999/xlink" x="0px" y="0px"
	 width="71.766px" height="317.375px" viewBox="0 0 71.766 317.375" enable-background="new 0 0 71.766 317.375"
	 xml:space="preserve">
<g>
	<path fill="#DFF2FD" d="M1,296.465c-0.044,11.506,9.247,20.866,20.751,20.911c11.506,0.044,20.868-9.246,20.912-20.752
		c0.03-8.013-4.476-14.977-11.095-18.486L32.59,9.704C32.611,4.365,28.299,0.021,22.96,0c-5.338-0.02-9.683,4.291-9.703,9.63
		l-1.022,268.435C5.587,281.522,1.031,288.451,1,296.465z M6,296.485c0.021-5.896,3.296-11.255,8.543-13.985l2.68-1.396
		L18.257,9.649C18.267,7.076,20.368,4.99,22.941,5c2.573,0.011,4.658,2.111,4.649,4.686l-1.035,271.454l2.669,1.415
		c5.228,2.771,8.46,8.153,8.438,14.05c-0.033,8.73-7.163,15.804-15.893,15.771C13.04,312.343,5.966,305.215,6,296.485z"/>
	<path fill="#FFFFFF" fill-opacity="0" d="M5.998,296.485c-0.033,8.73,7.042,15.858,15.771,15.892
		c8.729,0.032,15.858-7.042,15.893-15.771c0.021-5.896-3.21-11.279-8.438-14.05l-2.669-1.415L27.59,9.685
		C27.6,7.111,25.514,5.01,22.941,5c-2.572-0.01-4.674,2.076-4.684,4.649l-1.035,271.454l-2.68,1.396
		C9.295,285.23,6.021,290.589,5.998,296.485z"/>
</g>
<line fill="none" stroke="#FFFFFF" stroke-width="2" stroke-linecap="round" stroke-miterlimit="10" x1="71.765" y1="143.222" x2="44.069" y2="143.116"/>
<line fill="none" stroke="#FFFFFF" stroke-linecap="round" stroke-miterlimit="10" x1="57.08" y1="149.786" x2="44.043" y2="149.736"/>
<line fill="none" stroke="#FFFFFF" stroke-linecap="round" stroke-miterlimit="10" x1="57.056" y1="156.406" x2="44.017" y2="156.356"/>
<line fill="none" stroke="#FFFFFF" stroke-linecap="round" stroke-miterlimit="10" x1="57.031" y1="163.026" x2="43.992" y2="162.977"/>
<line fill="none" stroke="#FFFFFF" stroke-linecap="round" stroke-miterlimit="10" x1="57.005" y1="169.647" x2="43.967" y2="169.597"/>
<line fill="none" stroke="#FFFFFF" stroke-width="2" stroke-linecap="round" stroke-miterlimit="10" x1="63.822" y1="176.291" x2="43.942" y2="176.216"/>
<line fill="none" stroke="#FFFFFF" stroke-linecap="round" stroke-miterlimit="10" x1="56.954" y1="182.886" x2="43.916" y2="182.836"/>
<line fill="none" stroke="#FFFFFF" stroke-linecap="round" stroke-miterlimit="10" x1="56.93" y1="189.506" x2="43.891" y2="189.456"/>
<line fill="none" stroke="#FFFFFF" stroke-linecap="round" stroke-miterlimit="10" x1="56.905" y1="196.126" x2="43.866" y2="196.076"/>
<line fill="none" stroke="#FFFFFF" stroke-linecap="round" stroke-miterlimit="10" x1="56.879" y1="202.745" x2="43.841" y2="202.696"/>
<line fill="none" stroke="#FFFFFF" stroke-width="2" stroke-linecap="round" stroke-miterlimit="10" x1="63.696" y1="209.392" x2="43.816" y2="209.316"/>
<line fill="none" stroke="#FFFFFF" stroke-linecap="round" stroke-miterlimit="10" x1="56.828" y1="215.984" x2="43.79" y2="215.936"/>
<line fill="none" stroke="#FFFFFF" stroke-linecap="round" stroke-miterlimit="10" x1="56.803" y1="222.605" x2="43.765" y2="222.556"/>
<line fill="none" stroke="#FFFFFF" stroke-linecap="round" stroke-miterlimit="10" x1="56.779" y1="229.225" x2="43.74" y2="229.175"/>
<line fill="none" stroke="#FFFFFF" stroke-linecap="round" stroke-miterlimit="10" x1="56.753" y1="235.845" x2="43.715" y2="235.795"/>
<line fill="none" stroke="#FFFFFF" stroke-width="2" stroke-linecap="round" stroke-miterlimit="10" x1="63.569" y1="242.491" x2="43.69" y2="242.415"/>
<line fill="none" stroke="#FFFFFF" stroke-linecap="round" stroke-miterlimit="10" x1="56.703" y1="249.085" x2="43.664" y2="249.035"/>
<line fill="none" stroke="#FFFFFF" stroke-linecap="round" stroke-miterlimit="10" x1="56.677" y1="255.704" x2="43.639" y2="255.654"/>
<line fill="none" stroke="#FFFFFF" stroke-linecap="round" stroke-miterlimit="10" x1="56.653" y1="262.324" x2="43.615" y2="262.275"/>
<line fill="none" stroke="#FFFFFF" stroke-linecap="round" stroke-miterlimit="10" x1="56.627" y1="268.944" x2="43.589" y2="268.895"/>
<line fill="none" stroke="#FFFFFF" stroke-width="2" stroke-linecap="round" stroke-miterlimit="10" x1="63.442" y1="275.591" x2="43.563" y2="275.515"/>
<line fill="none" stroke="#FFFFFF" stroke-width="2" stroke-linecap="round" stroke-miterlimit="10" x1="64.453" y1="10.348" x2="44.574" y2="10.272"/>
<line fill="none" stroke="#FFFFFF" stroke-linecap="round" stroke-miterlimit="10" x1="57.587" y1="16.942" x2="44.549" y2="16.892"/>
<line fill="none" stroke="#FFFFFF" stroke-linecap="round" stroke-miterlimit="10" x1="57.561" y1="23.562" x2="44.524" y2="23.512"/>
<line fill="none" stroke="#FFFFFF" stroke-linecap="round" stroke-miterlimit="10" x1="57.537" y1="30.182" x2="44.498" y2="30.132"/>
<line fill="none" stroke="#FFFFFF" stroke-linecap="round" stroke-miterlimit="10" x1="57.511" y1="36.802" x2="44.473" y2="36.752"/>
<line fill="none" stroke="#FFFFFF" stroke-width="2" stroke-linecap="round" stroke-miterlimit="10" x1="64.327" y1="43.447" x2="44.448" y2="43.372"/>
<line fill="none" stroke="#FFFFFF" stroke-linecap="round" stroke-miterlimit="10" x1="57.461" y1="50.041" x2="44.423" y2="49.992"/>
<line fill="none" stroke="#FFFFFF" stroke-linecap="round" stroke-miterlimit="10" x1="57.435" y1="56.661" x2="44.397" y2="56.611"/>
<line fill="none" stroke="#FFFFFF" stroke-linecap="round" stroke-miterlimit="10" x1="57.41" y1="63.281" x2="44.372" y2="63.231"/>
<line fill="none" stroke="#FFFFFF" stroke-linecap="round" stroke-miterlimit="10" x1="57.385" y1="69.901" x2="44.347" y2="69.852"/>
<line fill="none" stroke="#FFFFFF" stroke-width="2" stroke-linecap="round" stroke-miterlimit="10" x1="64.201" y1="76.547" x2="44.323" y2="76.472"/>
<line fill="none" stroke="#FFFFFF" stroke-linecap="round" stroke-miterlimit="10" x1="57.334" y1="83.141" x2="44.297" y2="83.091"/>
<line fill="none" stroke="#FFFFFF" stroke-linecap="round" stroke-miterlimit="10" x1="57.309" y1="89.76" x2="44.271" y2="89.71"/>
<line fill="none" stroke="#FFFFFF" stroke-linecap="round" stroke-miterlimit="10" x1="57.284" y1="96.381" x2="44.246" y2="96.332"/>
<line fill="none" stroke="#FFFFFF" stroke-linecap="round" stroke-miterlimit="10" x1="57.259" y1="103.001" x2="44.221" y2="102.951"/>
<line fill="none" stroke="#FFFFFF" stroke-width="2" stroke-linecap="round" stroke-miterlimit="10" x1="64.074" y1="109.647" x2="44.197" y2="109.572"/>
<line fill="none" stroke="#FFFFFF" stroke-linecap="round" stroke-miterlimit="10" x1="57.208" y1="116.24" x2="44.17" y2="116.191"/>
<line fill="none" stroke="#FFFFFF" stroke-linecap="round" stroke-miterlimit="10" x1="57.183" y1="122.859" x2="44.145" y2="122.81"/>
<line fill="none" stroke="#FFFFFF" stroke-linecap="round" stroke-miterlimit="10" x1="57.158" y1="129.48" x2="44.12" y2="129.431"/>
<line fill="none" stroke="#FFFFFF" stroke-linecap="round" stroke-miterlimit="10" x1="57.133" y1="136.1" x2="44.095" y2="136.05"/>
</svg>
