<?xml version="1.0" encoding="utf-8"?>
<!-- Generator: Adobe Illustrator 15.0.2, SVG Export Plug-In . SVG Version: 6.00 Build 0)  -->
<!DOCTYPE svg PUBLIC "-//W3C//DTD SVG 1.1//EN" "http://www.w3.org/Graphics/SVG/1.1/DTD/svg11.dtd">
<svg version="1.1" id="Lager_1" xmlns="http://www.w3.org/2000/svg" xmlns:xlink="http://www.w3.org/1999/xlink" x="0px" y="0px"
	 width="68.824px" height="84.667px" viewBox="0 0 68.824 84.667" enable-background="new 0 0 68.824 84.667" xml:space="preserve">
<g>
	<g>
		<rect x="5.851" y="4.15" fill="#F8F8F9" width="57.123" height="76.366"/>
		<rect x="5.851" y="4.15" fill="#F3F2F4" width="28.562" height="76.366"/>
		
			<line fill="none" stroke="#424043" stroke-width="0.1826" stroke-miterlimit="10" x1="7.776" y1="11.457" x2="60.562" y2="11.457"/>
		
			<line fill="none" stroke="#424043" stroke-width="0.1826" stroke-miterlimit="10" x1="7.776" y1="21.502" x2="60.562" y2="21.502"/>
		<rect x="8.396" y="13.283" fill="none" width="52.785" height="9.314"/>
		<text transform="matrix(1 0 0 1 8.3965 19.8496)" font-family="'BubblerOne'" font-size="8.7672">STADSNYTT</text>
		<rect x="55.477" y="13.283" fill="none" width="4.932" height="7.185"/>
		<text transform="matrix(1 0 0 1 55.4766 19.8496)" font-family="'BubblerOne'" font-size="8.7672">4</text>
		<rect x="8.396" y="8.651" fill="#C6C7CB" width="9.376" height="1.129"/>
		<rect x="44.835" y="18.702" fill="#C6C7CB" width="9.376" height="0.913"/>
		<rect x="44.835" y="17.027" fill="#C6C7CB" width="9.376" height="0.913"/>
		<g>
			<rect x="45.114" y="25.947" fill="#C6C7CB" width="15.466" height="0.717"/>
			<rect x="45.114" y="27.975" fill="#C6C7CB" width="15.466" height="0.716"/>
			<rect x="45.114" y="30.001" fill="#C6C7CB" width="15.466" height="0.717"/>
		</g>
		<g>
			<rect x="45.099" y="33.207" fill="#C6C7CB" width="15.466" height="0.716"/>
			<rect x="45.099" y="35.234" fill="#C6C7CB" width="15.466" height="0.716"/>
			<rect x="45.099" y="37.261" fill="#C6C7CB" width="15.466" height="0.716"/>
		</g>
		<g>
			<rect x="45.099" y="40.466" fill="#C6C7CB" width="15.466" height="0.716"/>
			<rect x="45.099" y="42.493" fill="#C6C7CB" width="15.466" height="0.716"/>
			<rect x="45.099" y="44.52" fill="#C6C7CB" width="15.466" height="0.716"/>
		</g>
		<g>
			<rect x="45.099" y="47.726" fill="#C6C7CB" width="15.466" height="0.716"/>
			<rect x="45.099" y="49.752" fill="#C6C7CB" width="15.466" height="0.717"/>
			<rect x="45.099" y="51.779" fill="#C6C7CB" width="15.466" height="0.717"/>
		</g>
		<g>
			<rect x="8.391" y="69.96" fill="#C6C7CB" width="15.465" height="0.717"/>
			<rect x="8.391" y="71.986" fill="#C6C7CB" width="15.465" height="0.717"/>
			<rect x="8.391" y="74.014" fill="#C6C7CB" width="15.465" height="0.717"/>
		</g>
		<g>
			<rect x="26.784" y="69.96" fill="#C6C7CB" width="15.466" height="0.717"/>
			<rect x="26.784" y="71.986" fill="#C6C7CB" width="15.466" height="0.717"/>
			<rect x="26.784" y="74.014" fill="#C6C7CB" width="15.466" height="0.717"/>
		</g>
		<g>
			<rect x="45.179" y="69.96" fill="#C6C7CB" width="15.466" height="0.717"/>
			<rect x="45.179" y="71.986" fill="#C6C7CB" width="15.466" height="0.717"/>
			<rect x="45.179" y="74.014" fill="#C6C7CB" width="15.466" height="0.717"/>
		</g>
		<rect x="8.396" y="25.892" fill="#C6C7CB" width="33.848" height="26.604"/>
		<rect x="8.396" y="57.162" fill="#C6C7CB" width="15.453" height="10.544"/>
		<rect x="26.79" y="57.162" fill="#C6C7CB" width="15.454" height="10.544"/>
		<rect x="45.185" y="57.162" fill="#C6C7CB" width="15.453" height="10.544"/>
	</g>
	<g>
		
			<rect x="5.851" y="4.151" transform="matrix(0.9866 -0.1632 0.1632 0.9866 -6.4493 6.1856)" fill="#F8F8F9" width="57.123" height="76.366"/>
		
			<rect x="6.042" y="6.482" transform="matrix(0.9866 -0.1633 0.1633 0.9866 -7.0196 3.9174)" fill="#F3F2F4" width="28.561" height="76.366"/>
		<line fill="none" stroke="#424043" stroke-width="0.1826" stroke-miterlimit="10" x1="3.093" y1="16.22" x2="55.171" y2="7.602"/>
		
			<line fill="none" stroke="#424043" stroke-width="0.1826" stroke-miterlimit="10" x1="4.732" y1="26.13" x2="56.811" y2="17.512"/>
		
			<rect x="4.409" y="13.549" transform="matrix(0.9866 -0.1633 0.1633 0.9866 -2.5591 5.2729)" fill="none" width="52.785" height="9.314"/>
		<text transform="matrix(0.9866 -0.1633 0.1633 0.9866 5.0732 24.3354)" font-family="'BubblerOne'" font-size="8.7672">STADSNYTT</text>
		
			<rect x="51.005" y="9.784" transform="matrix(0.9866 -0.1633 0.1633 0.9866 -1.4664 8.91)" fill="none" width="4.931" height="7.185"/>
		<text transform="matrix(0.9866 -0.1633 0.1633 0.9866 51.5215 16.6494)" font-family="'BubblerOne'" font-size="8.7672">4</text>
		
			<rect x="3.276" y="12.578" transform="matrix(0.9866 -0.1633 0.1633 0.9866 -2.0388 1.4766)" fill="#C6C7CB" width="9.376" height="1.129"/>
		
			<rect x="40.849" y="16.546" transform="matrix(0.9866 -0.1632 0.1632 0.9866 -2.1645 7.6603)" fill="#C6C7CB" width="9.376" height="0.913"/>
		
			<rect x="40.575" y="14.894" transform="matrix(0.9866 -0.1632 0.1632 0.9866 -1.8985 7.5935)" fill="#C6C7CB" width="9.376" height="0.913"/>
		<g>
			
				<rect x="42.251" y="23.153" transform="matrix(0.9866 -0.1633 0.1633 0.9866 -3.1678 8.4759)" fill="#C6C7CB" width="15.465" height="0.717"/>
			
				<rect x="42.581" y="25.153" transform="matrix(0.9866 -0.1633 0.1633 0.9866 -3.4899 8.5567)" fill="#C6C7CB" width="15.465" height="0.716"/>
			
				<rect x="42.912" y="27.152" transform="matrix(0.9866 -0.1633 0.1633 0.9866 -3.8117 8.637)" fill="#C6C7CB" width="15.466" height="0.716"/>
		</g>
		<g>
			
				<rect x="43.42" y="30.318" transform="matrix(0.9866 -0.1633 0.1633 0.9866 -4.3225 8.7646)" fill="#C6C7CB" width="15.465" height="0.716"/>
			
				<rect x="43.751" y="32.318" transform="matrix(0.9866 -0.1632 0.1632 0.9866 -4.643 8.8415)" fill="#C6C7CB" width="15.466" height="0.716"/>
			
				<rect x="44.082" y="34.317" transform="matrix(0.9866 -0.1632 0.1632 0.9866 -4.9648 8.9223)" fill="#C6C7CB" width="15.466" height="0.716"/>
		</g>
		<g>
			
				<rect x="44.605" y="37.479" transform="matrix(0.9866 -0.1632 0.1632 0.9866 -5.4739 9.0502)" fill="#C6C7CB" width="15.466" height="0.716"/>
			
				<rect x="44.936" y="39.479" transform="matrix(0.9866 -0.1632 0.1632 0.9866 -5.7962 9.1315)" fill="#C6C7CB" width="15.465" height="0.716"/>
			
				<rect x="45.267" y="41.478" transform="matrix(0.9866 -0.1632 0.1632 0.9866 -6.1182 9.2123)" fill="#C6C7CB" width="15.465" height="0.717"/>
		</g>
		<g>
			
				<rect x="45.79" y="44.641" transform="matrix(0.9866 -0.1632 0.1632 0.9866 -6.6275 9.3402)" fill="#C6C7CB" width="15.465" height="0.717"/>
			
				<rect x="46.121" y="46.641" transform="matrix(0.9866 -0.1633 0.1633 0.9866 -6.9514 9.4242)" fill="#C6C7CB" width="15.466" height="0.717"/>
			
				<rect x="46.452" y="48.641" transform="matrix(0.9866 -0.1633 0.1633 0.9866 -7.2735 9.5051)" fill="#C6C7CB" width="15.466" height="0.717"/>
		</g>
		<g>
			
				<rect x="13.205" y="72.57" transform="matrix(0.9866 -0.1633 0.1633 0.9866 -11.6284 4.3981)" fill="#C6C7CB" width="15.464" height="0.717"/>
			
				<rect x="13.536" y="74.569" transform="matrix(0.9866 -0.1633 0.1633 0.9866 -11.9504 4.479)" fill="#C6C7CB" width="15.464" height="0.717"/>
			
				<rect x="13.866" y="76.57" transform="matrix(0.9866 -0.1632 0.1632 0.9866 -12.2682 4.5577)" fill="#C6C7CB" width="15.464" height="0.717"/>
		</g>
		<g>
			
				<rect x="31.351" y="69.567" transform="matrix(0.9866 -0.1633 0.1633 0.9866 -10.8931 7.3203)" fill="#C6C7CB" width="15.466" height="0.717"/>
			
				<rect x="31.682" y="71.566" transform="matrix(0.9866 -0.1633 0.1633 0.9866 -11.2158 7.4016)" fill="#C6C7CB" width="15.465" height="0.717"/>
			
				<rect x="32.013" y="73.566" transform="matrix(0.9866 -0.1633 0.1633 0.9866 -11.5372 7.4821)" fill="#C6C7CB" width="15.466" height="0.717"/>
		</g>
		<g>
			
				<rect x="49.499" y="66.565" transform="matrix(0.9866 -0.1633 0.1633 0.9866 -10.1598 10.2438)" fill="#C6C7CB" width="15.465" height="0.717"/>
			
				<rect x="49.83" y="68.564" transform="matrix(0.9866 -0.1633 0.1633 0.9866 -10.4812 10.324)" fill="#C6C7CB" width="15.466" height="0.717"/>
			
				<rect x="50.161" y="70.564" transform="matrix(0.9866 -0.1633 0.1633 0.9866 -10.8033 10.4049)" fill="#C6C7CB" width="15.466" height="0.717"/>
		</g>
		
			<rect x="8.006" y="27.418" transform="matrix(0.9866 -0.1632 0.1632 0.9866 -6.3129 4.6158)" fill="#C6C7CB" width="33.848" height="26.604"/>
		
			<rect x="11.923" y="59.877" transform="matrix(0.9866 -0.1633 0.1633 0.9866 -10.3747 4.0831)" fill="#C6C7CB" width="15.454" height="10.545"/>
		
			<rect x="30.07" y="56.876" transform="matrix(0.9866 -0.1633 0.1633 0.9866 -9.6403 7.0057)" fill="#C6C7CB" width="15.454" height="10.544"/>
		
			<rect x="48.218" y="53.872" transform="matrix(0.9866 -0.1633 0.1633 0.9866 -8.9074 9.9298)" fill="#C6C7CB" width="15.453" height="10.545"/>
	</g>
</g>
</svg>
