<?xml version="1.0" encoding="utf-8"?>
<!-- Generator: Adobe Illustrator 15.0.2, SVG Export Plug-In . SVG Version: 6.00 Build 0)  -->
<!DOCTYPE svg PUBLIC "-//W3C//DTD SVG 1.1//EN" "http://www.w3.org/Graphics/SVG/1.1/DTD/svg11.dtd">
<svg version="1.1" id="Lager_1" xmlns="http://www.w3.org/2000/svg" xmlns:xlink="http://www.w3.org/1999/xlink" x="0px" y="0px"
	 width="13686.158px" height="437.046px" viewBox="0 0 13686.158 437.046" enable-background="new 0 0 13686.158 437.046"
	 xml:space="preserve">
<g>
	
		<path opacity="0.7" fill="#77B6A4" stroke="#77B6A4" stroke-width="0.0474" stroke-linecap="round" stroke-linejoin="round" stroke-miterlimit="10" d="
		M1398.025,292.353c-1.8,0-3.528,0.274-5.152,0.782c-0.509-7.928-6.41-14.372-14.076-15.752c0-0.005,0-0.026,0-0.026
		c-1.109-0.321-3.052-0.271-3.052-0.271c-9.481,0-17.165,7.686-17.165,17.17c0,1.918,0.314,3.758,0.894,5.481
		c-9.435,0.053-17.068,7.715-17.068,17.165c0,9.481,7.685,17.165,17.169,17.165c3.179,0,6.151-0.865,8.702-2.367
		c0.544,0.784,1.174,1.501,1.84,2.184c0.151,0.152,0.297,0.303,0.452,0.453c0.676,0.638,1.393,1.236,2.161,1.761
		c0.125,0.087,0.256,0.153,0.386,0.237c0.706,0.453,1.444,0.851,2.214,1.194c0.017,0.012,0.026,0.023,0.047,0.031h-0.204v35.088
		h3.628h3.625v-33.572c7.81-0.023,14.395-5.259,16.451-12.412c9.09-0.442,16.316-7.955,16.316-17.149
		C1415.193,300.036,1407.508,292.353,1398.025,292.353z"/>
	
		<path opacity="0.7" fill="#77B6A4" stroke="#77B6A4" stroke-width="0.0474" stroke-linecap="round" stroke-linejoin="round" stroke-miterlimit="10" d="
		M1299.83,292.353c-1.799,0-3.527,0.274-5.152,0.782c-0.507-7.928-6.41-14.372-14.076-15.752c0-0.005,0-0.026,0-0.026
		c-1.111-0.321-3.052-0.271-3.052-0.271c-9.48,0-17.166,7.686-17.166,17.17c0,1.918,0.316,3.758,0.895,5.481
		c-9.435,0.053-17.068,7.715-17.068,17.165c0,9.481,7.686,17.165,17.17,17.165c3.178,0,6.149-0.865,8.701-2.367
		c0.545,0.784,1.175,1.501,1.838,2.184c0.151,0.152,0.297,0.303,0.455,0.453c0.675,0.638,1.39,1.236,2.16,1.761
		c0.123,0.087,0.257,0.153,0.383,0.237c0.709,0.453,1.448,0.851,2.216,1.194c0.016,0.012,0.026,0.023,0.047,0.031h-0.203v35.088
		h3.63h3.624v-33.572c7.811-0.023,14.396-5.259,16.448-12.412c9.093-0.442,16.319-7.955,16.319-17.149
		C1316.999,300.036,1309.314,292.353,1299.83,292.353z"/>
	
		<path opacity="0.7" fill="#77B6A4" stroke="#77B6A4" stroke-width="0.0474" stroke-linecap="round" stroke-linejoin="round" stroke-miterlimit="10" d="
		M289.966,298.012c-1.799,0-3.527,0.274-5.152,0.782c-0.507-7.928-6.411-14.372-14.077-15.752c0-0.005,0-0.026,0-0.026
		c-1.111-0.321-3.051-0.271-3.051-0.271c-9.48,0-17.166,7.686-17.166,17.17c0,1.918,0.315,3.758,0.895,5.481
		c-9.435,0.053-17.068,7.715-17.068,17.165c0,9.481,7.686,17.165,17.17,17.165c3.177,0,6.149-0.865,8.701-2.367
		c0.545,0.784,1.175,1.501,1.838,2.184c0.151,0.152,0.298,0.303,0.455,0.453c0.676,0.638,1.39,1.236,2.16,1.761
		c0.123,0.087,0.257,0.153,0.383,0.237c0.709,0.453,1.448,0.851,2.217,1.194c0.016,0.012,0.025,0.023,0.047,0.031h-0.204v35.088
		h3.63h3.624v-33.572c7.811-0.023,14.396-5.259,16.448-12.412c9.093-0.442,16.319-7.955,16.319-17.149
		C307.135,305.695,299.45,298.012,289.966,298.012z"/>
	
		<path opacity="0.7" fill="#77B6A4" stroke="#77B6A4" stroke-width="0.0474" stroke-linecap="round" stroke-linejoin="round" stroke-miterlimit="10" d="
		M2411.812,292.353c-1.8,0-3.528,0.274-5.152,0.782c-0.509-7.928-6.41-14.372-14.076-15.752c0-0.005,0-0.026,0-0.026
		c-1.109-0.321-3.052-0.271-3.052-0.271c-9.481,0-17.165,7.686-17.165,17.17c0,1.918,0.314,3.758,0.894,5.481
		c-9.435,0.053-17.068,7.715-17.068,17.165c0,9.481,7.686,17.165,17.168,17.165c3.179,0,6.152-0.865,8.703-2.367
		c0.544,0.784,1.173,1.501,1.839,2.184c0.152,0.152,0.297,0.303,0.453,0.453c0.676,0.638,1.393,1.236,2.161,1.761
		c0.125,0.087,0.256,0.153,0.386,0.237c0.706,0.453,1.444,0.851,2.214,1.194c0.017,0.012,0.026,0.023,0.047,0.031h-0.204v35.088
		h3.629h3.625v-33.572c7.81-0.023,14.395-5.259,16.451-12.412c9.091-0.442,16.316-7.955,16.316-17.149
		C2428.979,300.036,2421.295,292.353,2411.812,292.353z"/>
	
		<path opacity="0.7" fill="#77B6A4" stroke="#77B6A4" stroke-width="0.0474" stroke-linecap="round" stroke-linejoin="round" stroke-miterlimit="10" d="
		M2313.616,292.353c-1.799,0-3.527,0.274-5.152,0.782c-0.507-7.928-6.41-14.372-14.076-15.752c0-0.005,0-0.026,0-0.026
		c-1.111-0.321-3.052-0.271-3.052-0.271c-9.48,0-17.166,7.686-17.166,17.17c0,1.918,0.315,3.758,0.895,5.481
		c-9.435,0.053-17.068,7.715-17.068,17.165c0,9.481,7.686,17.165,17.17,17.165c3.178,0,6.149-0.865,8.701-2.367
		c0.545,0.784,1.175,1.501,1.838,2.184c0.151,0.152,0.298,0.303,0.455,0.453c0.676,0.638,1.39,1.236,2.16,1.761
		c0.123,0.087,0.257,0.153,0.383,0.237c0.709,0.453,1.448,0.851,2.217,1.194c0.016,0.012,0.025,0.023,0.047,0.031h-0.203v35.088
		h3.63h3.624v-33.572c7.811-0.023,14.396-5.259,16.448-12.412c9.093-0.442,16.319-7.955,16.319-17.149
		C2330.785,300.036,2323.101,292.353,2313.616,292.353z"/>
	
		<path opacity="0.7" fill="#77B6A4" stroke="#77B6A4" stroke-width="0.0474" stroke-linecap="round" stroke-linejoin="round" stroke-miterlimit="10" d="
		M2765.106,270.75c-2.284,0-4.478,0.349-6.539,0.993c-0.646-10.061-8.135-18.238-17.863-19.99c0-0.006,0-0.033,0-0.033
		c-1.408-0.407-3.873-0.343-3.873-0.343c-12.032,0-21.783,9.753-21.783,21.789c0,2.434,0.399,4.769,1.134,6.956
		c-11.973,0.066-21.66,9.79-21.66,21.783c0,12.032,9.753,21.782,21.788,21.782c4.034,0,7.806-1.098,11.043-3.004
		c0.69,0.995,1.489,1.905,2.334,2.771c0.192,0.193,0.377,0.384,0.574,0.575c0.858,0.809,1.768,1.568,2.743,2.234
		c0.159,0.11,0.325,0.194,0.49,0.301c0.896,0.575,1.833,1.079,2.809,1.516c0.021,0.015,0.034,0.029,0.06,0.04h-0.259v44.527h4.605
		h4.601v-42.604c9.91-0.029,18.267-6.674,20.877-15.751c11.537-0.562,20.706-10.096,20.706-21.764
		C2786.893,280.5,2777.141,270.75,2765.106,270.75z"/>
	
		<path opacity="0.7" fill="#77B6A4" stroke="#77B6A4" stroke-width="0.0474" stroke-linecap="round" stroke-linejoin="round" stroke-miterlimit="10" d="
		M2640.493,270.75c-2.283,0-4.476,0.349-6.539,0.993c-0.643-10.061-8.134-18.238-17.863-19.99c0-0.006,0-0.033,0-0.033
		c-1.411-0.407-3.873-0.343-3.873-0.343c-12.031,0-21.784,9.753-21.784,21.789c0,2.434,0.4,4.769,1.135,6.956
		c-11.973,0.066-21.66,9.79-21.66,21.783c0,12.032,9.753,21.782,21.789,21.782c4.033,0,7.804-1.098,11.042-3.004
		c0.691,0.995,1.491,1.905,2.333,2.771c0.192,0.193,0.378,0.384,0.578,0.575c0.857,0.809,1.763,1.568,2.741,2.234
		c0.156,0.11,0.326,0.194,0.486,0.301c0.899,0.575,1.838,1.079,2.813,1.516c0.02,0.015,0.032,0.029,0.06,0.04h-0.258v44.527h4.606
		h4.599v-42.604c9.912-0.029,18.268-6.674,20.873-15.751c11.539-0.562,20.71-10.096,20.71-21.764
		C2662.281,280.5,2652.529,270.75,2640.493,270.75z"/>
	
		<path opacity="0.7" fill="#77B6A4" stroke="#77B6A4" stroke-width="0.0474" stroke-linecap="round" stroke-linejoin="round" stroke-miterlimit="10" d="
		M2502.592,292.353c-1.799,0-3.527,0.274-5.152,0.782c-0.507-7.928-6.41-14.372-14.076-15.752c0-0.005,0-0.026,0-0.026
		c-1.111-0.321-3.052-0.271-3.052-0.271c-9.48,0-17.166,7.686-17.166,17.17c0,1.918,0.315,3.758,0.895,5.481
		c-9.435,0.053-17.068,7.715-17.068,17.165c0,9.481,7.686,17.165,17.17,17.165c3.178,0,6.149-0.865,8.701-2.367
		c0.545,0.784,1.175,1.501,1.838,2.184c0.151,0.152,0.298,0.303,0.455,0.453c0.676,0.638,1.39,1.236,2.16,1.761
		c0.123,0.087,0.257,0.153,0.383,0.237c0.709,0.453,1.448,0.851,2.217,1.194c0.016,0.012,0.025,0.023,0.047,0.031h-0.203v35.088
		h3.63h3.624v-33.572c7.811-0.023,14.396-5.259,16.448-12.412c9.093-0.442,16.319-7.955,16.319-17.149
		C2519.761,300.036,2512.077,292.353,2502.592,292.353z"/>
	
		<path opacity="0.7" fill="#77B6A4" stroke="#77B6A4" stroke-width="0.0474" stroke-linecap="round" stroke-linejoin="round" stroke-miterlimit="10" d="
		M108.859,315.833c-1.273,0-2.496,0.194-3.646,0.554c-0.359-5.609-4.535-10.169-9.96-11.146c0-0.004,0-0.019,0-0.019
		c-0.784-0.228-2.158-0.191-2.158-0.191c-6.709,0-12.146,5.438-12.146,12.148c0,1.357,0.222,2.659,0.632,3.879
		c-6.675,0.037-12.077,5.459-12.077,12.146c0,6.709,5.438,12.146,12.148,12.146c2.249,0,4.353-0.612,6.158-1.675
		c0.384,0.555,0.831,1.062,1.302,1.545c0.107,0.107,0.21,0.214,0.32,0.32c0.478,0.451,0.985,0.875,1.528,1.246
		c0.089,0.062,0.182,0.108,0.273,0.168c0.5,0.32,1.022,0.602,1.567,0.845c0.012,0.009,0.019,0.017,0.033,0.022h-0.144v24.827h2.568
		h2.565v-23.755c5.526-0.017,10.185-3.721,11.64-8.782c6.432-0.313,11.545-5.629,11.545-12.135
		C121.007,321.27,115.569,315.833,108.859,315.833z"/>
	
		<path opacity="0.7" fill="#77B6A4" stroke="#77B6A4" stroke-width="0.0474" stroke-linecap="round" stroke-linejoin="round" stroke-miterlimit="10" d="
		M178.62,315.833c-1.273,0-2.496,0.194-3.646,0.554c-0.359-5.609-4.535-10.169-9.96-11.146c0-0.004,0-0.019,0-0.019
		c-0.784-0.228-2.158-0.191-2.158-0.191c-6.709,0-12.146,5.438-12.146,12.148c0,1.357,0.222,2.659,0.631,3.879
		c-6.675,0.037-12.077,5.459-12.077,12.146c0,6.709,5.438,12.146,12.148,12.146c2.249,0,4.353-0.612,6.157-1.675
		c0.385,0.555,0.831,1.062,1.302,1.545c0.107,0.107,0.21,0.214,0.32,0.32c0.478,0.451,0.985,0.875,1.528,1.246
		c0.089,0.062,0.182,0.108,0.273,0.168c0.5,0.32,1.022,0.602,1.567,0.845c0.012,0.009,0.019,0.017,0.033,0.022h-0.144v24.827h2.568
		h2.565v-23.755c5.526-0.017,10.185-3.721,11.64-8.782c6.432-0.313,11.545-5.629,11.545-12.135
		C190.768,321.27,185.331,315.833,178.62,315.833z"/>
	
		<path opacity="0.7" fill="#77B6A4" stroke="#77B6A4" stroke-width="0.0474" stroke-linecap="round" stroke-linejoin="round" stroke-miterlimit="10" d="
		M39.379,315.833c-1.273,0-2.496,0.194-3.646,0.554c-0.358-5.609-4.535-10.169-9.96-11.146c0-0.004,0-0.019,0-0.019
		c-0.786-0.228-2.159-0.191-2.159-0.191c-6.708,0-12.146,5.438-12.146,12.148c0,1.357,0.223,2.659,0.633,3.879
		c-6.676,0.037-12.077,5.459-12.077,12.146c0,6.709,5.437,12.146,12.148,12.146c2.249,0,4.352-0.612,6.158-1.675
		c0.385,0.555,0.831,1.062,1.3,1.545c0.107,0.107,0.211,0.214,0.322,0.32c0.478,0.451,0.983,0.875,1.528,1.246
		c0.087,0.062,0.182,0.108,0.271,0.168c0.501,0.32,1.024,0.602,1.568,0.845c0.011,0.009,0.018,0.017,0.033,0.022h-0.143v24.827
		h2.568h2.564v-23.755c5.526-0.017,10.185-3.721,11.638-8.782c6.434-0.313,11.547-5.629,11.547-12.135
		C51.527,321.27,46.09,315.833,39.379,315.833z"/>
	
		<path opacity="0.7" fill="#77B6A4" stroke="#77B6A4" stroke-width="0.0474" stroke-linecap="round" stroke-linejoin="round" stroke-miterlimit="10" d="
		M1472.529,315.833c-1.273,0-2.497,0.194-3.646,0.554c-0.363-5.609-4.536-10.169-9.958-11.146c0-0.004,0-0.019,0-0.019
		c-0.788-0.228-2.165-0.191-2.165-0.191c-6.707,0-12.145,5.438-12.145,12.148c0,1.357,0.225,2.659,0.634,3.879
		c-6.677,0.037-12.076,5.459-12.076,12.146c0,6.709,5.438,12.146,12.145,12.146c2.252,0,4.354-0.612,6.163-1.675
		c0.383,0.555,0.829,1.062,1.297,1.545c0.11,0.107,0.214,0.214,0.323,0.32c0.479,0.451,0.984,0.875,1.526,1.246
		c0.09,0.062,0.184,0.108,0.275,0.168c0.497,0.32,1.022,0.602,1.564,0.845c0.014,0.009,0.02,0.017,0.036,0.022h-0.144v24.827h2.567
		h2.566v-23.755c5.525-0.017,10.184-3.721,11.638-8.782c6.431-0.313,11.546-5.629,11.546-12.135
		C1484.676,321.27,1479.239,315.833,1472.529,315.833z"/>
	
		<path opacity="0.7" fill="#77B6A4" stroke="#77B6A4" stroke-width="0.0474" stroke-linecap="round" stroke-linejoin="round" stroke-miterlimit="10" d="
		M1010.529,315.833c-1.273,0-2.497,0.194-3.646,0.554c-0.363-5.609-4.536-10.169-9.958-11.146c0-0.004,0-0.019,0-0.019
		c-0.788-0.228-2.165-0.191-2.165-0.191c-6.707,0-12.145,5.438-12.145,12.148c0,1.357,0.225,2.659,0.634,3.879
		c-6.677,0.037-12.076,5.459-12.076,12.146c0,6.709,5.438,12.146,12.145,12.146c2.252,0,4.354-0.612,6.163-1.675
		c0.383,0.555,0.829,1.062,1.297,1.545c0.11,0.107,0.214,0.214,0.323,0.32c0.479,0.451,0.984,0.875,1.526,1.246
		c0.09,0.062,0.184,0.108,0.275,0.168c0.497,0.32,1.022,0.602,1.564,0.845c0.014,0.009,0.02,0.017,0.036,0.022h-0.144v24.827h2.567
		h2.566v-23.755c5.525-0.017,10.184-3.721,11.638-8.782c6.431-0.313,11.546-5.629,11.546-12.135
		C1022.676,321.27,1017.239,315.833,1010.529,315.833z"/>
	
		<path opacity="0.7" fill="#77B6A4" stroke="#77B6A4" stroke-width="0.0474" stroke-linecap="round" stroke-linejoin="round" stroke-miterlimit="10" d="
		M1542.013,315.833c-1.272,0-2.498,0.194-3.648,0.554c-0.361-5.609-4.533-10.169-9.956-11.146c0-0.004,0-0.019,0-0.019
		c-0.787-0.228-2.164-0.191-2.164-0.191c-6.708,0-12.146,5.438-12.146,12.148c0,1.357,0.226,2.659,0.635,3.879
		c-6.677,0.037-12.079,5.459-12.079,12.146c0,6.709,5.44,12.146,12.148,12.146c2.251,0,4.354-0.612,6.161-1.675
		c0.385,0.555,0.829,1.062,1.3,1.545c0.106,0.107,0.212,0.214,0.321,0.32c0.479,0.451,0.982,0.875,1.526,1.246
		c0.09,0.062,0.185,0.108,0.274,0.168c0.497,0.32,1.02,0.602,1.565,0.845c0.013,0.009,0.022,0.017,0.035,0.022h-0.143v24.827h2.567
		h2.564v-23.755c5.525-0.017,10.185-3.721,11.641-8.782c6.43-0.313,11.545-5.629,11.545-12.135
		C1554.161,321.27,1548.719,315.833,1542.013,315.833z"/>
	
		<path opacity="0.7" fill="#77B6A4" stroke="#77B6A4" stroke-width="0.0474" stroke-linecap="round" stroke-linejoin="round" stroke-miterlimit="10" d="
		M1895.859,292.353c-1.8,0-3.528,0.274-5.152,0.782c-0.509-7.928-6.41-14.372-14.076-15.752c0-0.005,0-0.026,0-0.026
		c-1.109-0.321-3.052-0.271-3.052-0.271c-9.481,0-17.165,7.686-17.165,17.17c0,1.918,0.314,3.758,0.894,5.481
		c-9.435,0.053-17.068,7.715-17.068,17.165c0,9.481,7.686,17.165,17.169,17.165c3.179,0,6.151-0.865,8.702-2.367
		c0.544,0.784,1.174,1.501,1.84,2.184c0.151,0.152,0.297,0.303,0.452,0.453c0.676,0.638,1.393,1.236,2.162,1.761
		c0.125,0.087,0.255,0.153,0.386,0.237c0.706,0.453,1.444,0.851,2.214,1.194c0.017,0.012,0.026,0.023,0.047,0.031h-0.204v35.088
		h3.629h3.625v-33.572c7.809-0.023,14.394-5.259,16.451-12.412c9.091-0.442,16.316-7.955,16.316-17.149
		C1913.027,300.036,1905.343,292.353,1895.859,292.353z"/>
	
		<path opacity="0.7" fill="#77B6A4" stroke="#77B6A4" stroke-width="0.0474" stroke-linecap="round" stroke-linejoin="round" stroke-miterlimit="10" d="
		M1797.664,292.353c-1.799,0-3.527,0.274-5.152,0.782c-0.507-7.928-6.41-14.372-14.076-15.752c0-0.005,0-0.026,0-0.026
		c-1.111-0.321-3.052-0.271-3.052-0.271c-9.481,0-17.166,7.686-17.166,17.17c0,1.918,0.315,3.758,0.894,5.481
		c-9.434,0.053-17.068,7.715-17.068,17.165c0,9.481,7.686,17.165,17.17,17.165c3.178,0,6.149-0.865,8.701-2.367
		c0.545,0.784,1.175,1.501,1.838,2.184c0.151,0.152,0.298,0.303,0.455,0.453c0.676,0.638,1.39,1.236,2.16,1.761
		c0.123,0.087,0.257,0.153,0.383,0.237c0.709,0.453,1.448,0.851,2.217,1.194c0.016,0.012,0.025,0.023,0.047,0.031h-0.203v35.088
		h3.63h3.624v-33.572c7.811-0.023,14.396-5.259,16.448-12.412c9.093-0.442,16.319-7.955,16.319-17.149
		C1814.833,300.036,1807.148,292.353,1797.664,292.353z"/>
	
		<path opacity="0.7" fill="#77B6A4" stroke="#77B6A4" stroke-width="0.0474" stroke-linecap="round" stroke-linejoin="round" stroke-miterlimit="10" d="
		M1970.363,315.833c-1.273,0-2.497,0.194-3.646,0.554c-0.363-5.609-4.535-10.169-9.957-11.146c0-0.004,0-0.019,0-0.019
		c-0.788-0.228-2.165-0.191-2.165-0.191c-6.707,0-12.145,5.438-12.145,12.148c0,1.357,0.225,2.659,0.634,3.879
		c-6.677,0.037-12.077,5.459-12.077,12.146c0,6.709,5.438,12.146,12.145,12.146c2.252,0,4.354-0.612,6.163-1.675
		c0.383,0.555,0.829,1.062,1.297,1.545c0.11,0.107,0.214,0.214,0.323,0.32c0.479,0.451,0.984,0.875,1.526,1.246
		c0.09,0.062,0.184,0.108,0.275,0.168c0.497,0.32,1.023,0.602,1.564,0.845c0.014,0.009,0.02,0.017,0.036,0.022h-0.145v24.827h2.567
		h2.566v-23.755c5.525-0.017,10.184-3.721,11.638-8.782c6.432-0.313,11.546-5.629,11.546-12.135
		C1982.51,321.27,1977.073,315.833,1970.363,315.833z"/>
	
		<path opacity="0.7" fill="#77B6A4" stroke="#77B6A4" stroke-width="0.0474" stroke-linecap="round" stroke-linejoin="round" stroke-miterlimit="10" d="
		M2039.847,315.833c-1.272,0-2.498,0.194-3.648,0.554c-0.361-5.609-4.533-10.169-9.956-11.146c0-0.004,0-0.019,0-0.019
		c-0.787-0.228-2.164-0.191-2.164-0.191c-6.708,0-12.146,5.438-12.146,12.148c0,1.357,0.226,2.659,0.635,3.879
		c-6.677,0.037-12.079,5.459-12.079,12.146c0,6.709,5.44,12.146,12.148,12.146c2.251,0,4.354-0.612,6.161-1.675
		c0.385,0.555,0.829,1.062,1.3,1.545c0.106,0.107,0.212,0.214,0.321,0.32c0.479,0.451,0.982,0.875,1.526,1.246
		c0.09,0.062,0.185,0.108,0.274,0.168c0.496,0.32,1.02,0.602,1.565,0.845c0.013,0.009,0.022,0.017,0.035,0.022h-0.143v24.827h2.567
		h2.564v-23.755c5.525-0.017,10.185-3.721,11.641-8.782c6.43-0.313,11.545-5.629,11.545-12.135
		C2051.995,321.27,2046.554,315.833,2039.847,315.833z"/>
	
		<path opacity="0.7" fill="#77B6A4" stroke="#77B6A4" stroke-width="0.0474" stroke-linecap="round" stroke-linejoin="round" stroke-miterlimit="10" d="
		M6743.797,317.951c-1.272,0-2.496,0.194-3.645,0.554c-0.364-5.609-4.537-10.169-9.959-11.146c0-0.004,0-0.019,0-0.019
		c-0.787-0.228-2.164-0.191-2.164-0.191c-6.707,0-12.145,5.438-12.145,12.148c0,1.357,0.225,2.659,0.634,3.879
		c-6.677,0.037-12.075,5.459-12.075,12.146c0,6.709,5.438,12.146,12.145,12.146c2.252,0,4.354-0.612,6.162-1.675
		c0.383,0.555,0.828,1.062,1.298,1.545c0.109,0.107,0.214,0.214,0.322,0.32c0.479,0.451,0.984,0.875,1.526,1.246
		c0.09,0.062,0.184,0.108,0.275,0.168c0.496,0.32,1.021,0.602,1.563,0.845c0.014,0.009,0.021,0.017,0.036,0.022h-0.145v24.827h2.568
		h2.564v-23.755c5.525-0.017,10.186-3.721,11.639-8.782c6.432-0.313,11.545-5.629,11.545-12.135
		C6755.943,323.387,6750.508,317.951,6743.797,317.951z"/>
	<g opacity="0.7">
		
			<path fill="#77B6A4" stroke="#77B6A4" stroke-width="0.0474" stroke-linecap="round" stroke-linejoin="round" stroke-miterlimit="10" d="
			M1694.418,316.951l-53.205-37.44c-0.885-0.624-2.072-0.624-2.957,0.012l-20.733,14.75v-5.391h-12.725v14.443l-19.166,13.635
			c-1.15,0.819-1.421,2.42-0.601,3.57c0.821,1.152,2.415,1.424,3.57,0.601l0.972-0.688v51.801h100.342v-52.2l1.556,1.097
			c0.451,0.315,0.96,0.467,1.472,0.467c0.804,0,1.596-0.378,2.095-1.087C1695.853,319.363,1695.573,317.765,1694.418,316.951z"/>
		
			<path fill="#77B6A4" stroke="#77B6A4" stroke-width="0.0474" stroke-linecap="round" stroke-linejoin="round" stroke-miterlimit="10" d="
			M1690.485,372.813h-101.479v-51.271l-0.075,0.053c-1.357,0.966-3.395,0.622-4.362-0.735c-0.485-0.68-0.675-1.509-0.537-2.334
			c0.139-0.824,0.59-1.545,1.271-2.03l18.927-13.465v-14.719h13.863v4.856l19.834-14.11c1.054-0.757,2.549-0.764,3.615-0.013
			l53.204,37.44c1.41,0.994,1.75,2.951,0.758,4.361c-0.956,1.357-2.983,1.72-4.358,0.76l-0.661-0.466V372.813z"/>
	</g>
	<g opacity="0.7">
		
			<path fill="#77B6A4" stroke="#77B6A4" stroke-width="0.0474" stroke-linecap="round" stroke-linejoin="round" stroke-miterlimit="10" d="
			M944.418,316.951l-53.205-37.44c-0.885-0.624-2.072-0.624-2.957,0.012l-20.733,14.75v-5.391h-12.725v14.443l-19.166,13.635
			c-1.15,0.819-1.421,2.42-0.601,3.57c0.821,1.152,2.415,1.424,3.57,0.601l0.972-0.688v51.801h100.342v-52.2l1.556,1.097
			c0.451,0.315,0.96,0.467,1.472,0.467c0.804,0,1.596-0.378,2.095-1.087C945.853,319.363,945.573,317.765,944.418,316.951z"/>
		
			<path fill="#77B6A4" stroke="#77B6A4" stroke-width="0.0474" stroke-linecap="round" stroke-linejoin="round" stroke-miterlimit="10" d="
			M940.485,372.813H839.005v-51.271l-0.075,0.053c-1.357,0.966-3.395,0.622-4.362-0.735c-0.485-0.68-0.675-1.509-0.537-2.334
			c0.139-0.824,0.59-1.545,1.271-2.03l18.927-13.465v-14.719h13.863v4.856l19.834-14.11c1.054-0.757,2.549-0.764,3.615-0.013
			l53.204,37.44c1.41,0.994,1.75,2.951,0.758,4.361c-0.956,1.357-2.983,1.72-4.358,0.76l-0.661-0.466V372.813z"/>
	</g>
	
		<path opacity="0.7" fill="#77B6A4" stroke="#77B6A4" stroke-width="0.0474" stroke-linecap="round" stroke-linejoin="round" stroke-miterlimit="10" d="
		M6833.394,284.71c-1.971,0-3.864,0.301-5.643,0.857c-0.558-8.683-7.021-15.74-15.416-17.252c0-0.005,0-0.028,0-0.028
		c-1.215-0.352-3.342-0.296-3.342-0.296c-10.384,0-18.799,8.417-18.799,18.804c0,2.101,0.345,4.115,0.979,6.003
		c-10.332,0.058-18.692,8.449-18.692,18.799c0,10.384,8.417,18.799,18.803,18.799c3.481,0,6.737-0.947,9.531-2.593
		c0.595,0.858,1.286,1.645,2.015,2.392c0.166,0.167,0.326,0.331,0.496,0.496c0.74,0.698,1.525,1.354,2.366,1.929
		c0.137,0.096,0.28,0.168,0.423,0.26c0.773,0.496,1.582,0.931,2.424,1.308c0.019,0.013,0.029,0.025,0.051,0.035h-0.223v38.427h3.974
		h3.97v-36.768c8.552-0.025,15.765-5.76,18.017-13.593c9.956-0.485,17.869-8.713,17.869-18.782
		C6852.195,293.125,6843.78,284.71,6833.394,284.71z"/>
	
		<path opacity="0.7" fill="#77B6A4" stroke="#77B6A4" stroke-width="0.0474" stroke-linecap="round" stroke-linejoin="round" stroke-miterlimit="10" d="
		M6908.087,315.833c-1.272,0-2.497,0.194-3.646,0.554c-0.363-5.609-4.536-10.169-9.958-11.146c0-0.004,0-0.019,0-0.019
		c-0.788-0.228-2.165-0.191-2.165-0.191c-6.707,0-12.145,5.438-12.145,12.148c0,1.357,0.226,2.659,0.635,3.879
		c-6.678,0.037-12.076,5.459-12.076,12.146c0,6.709,5.438,12.146,12.145,12.146c2.252,0,4.354-0.612,6.162-1.675
		c0.383,0.555,0.829,1.062,1.299,1.545c0.109,0.107,0.213,0.214,0.322,0.32c0.479,0.451,0.984,0.875,1.525,1.246
		c0.09,0.062,0.184,0.108,0.275,0.168c0.496,0.32,1.022,0.602,1.564,0.845c0.014,0.009,0.02,0.017,0.035,0.022h-0.144v24.827h2.567
		h2.565v-23.755c5.524-0.017,10.185-3.721,11.638-8.782c6.432-0.313,11.547-5.629,11.547-12.135
		C6920.234,321.27,6914.797,315.833,6908.087,315.833z"/>
	
		<path opacity="0.7" fill="#77B6A4" stroke="#77B6A4" stroke-width="0.0474" stroke-linecap="round" stroke-linejoin="round" stroke-miterlimit="10" d="
		M6976.129,315.833c-1.272,0-2.498,0.194-3.648,0.554c-0.361-5.609-4.533-10.169-9.956-11.146c0-0.004,0-0.019,0-0.019
		c-0.786-0.228-2.164-0.191-2.164-0.191c-6.708,0-12.146,5.438-12.146,12.148c0,1.357,0.225,2.659,0.635,3.879
		c-6.678,0.037-12.079,5.459-12.079,12.146c0,6.709,5.44,12.146,12.147,12.146c2.252,0,4.355-0.612,6.161-1.675
		c0.386,0.555,0.829,1.062,1.3,1.545c0.107,0.107,0.213,0.214,0.321,0.32c0.479,0.451,0.981,0.875,1.526,1.246
		c0.09,0.062,0.185,0.108,0.274,0.168c0.497,0.32,1.021,0.602,1.565,0.845c0.013,0.009,0.021,0.017,0.035,0.022h-0.143v24.827h2.566
		h2.564v-23.755c5.525-0.017,10.186-3.721,11.641-8.782c6.43-0.313,11.546-5.629,11.546-12.135
		C6988.276,321.27,6982.835,315.833,6976.129,315.833z"/>
	
		<path opacity="0.7" fill="#77B6A4" stroke="#77B6A4" stroke-width="0.0474" stroke-linecap="round" stroke-linejoin="round" stroke-miterlimit="10" d="
		M7233.988,316.951l-53.204-37.44c-0.886-0.624-2.073-0.624-2.958,0.012l-20.732,14.75v-5.391h-12.725v14.443l-19.166,13.635
		c-1.15,0.819-1.422,2.42-0.602,3.57c0.822,1.152,2.416,1.424,3.57,0.601l0.973-0.688v51.801h100.342v-52.2l1.555,1.097
		c0.452,0.315,0.961,0.467,1.473,0.467c0.804,0,1.596-0.378,2.095-1.087C7235.422,319.363,7235.143,317.765,7233.988,316.951z"/>
	<g>
		
			<path opacity="0.7" fill="#77B6A4" stroke="#77B6A4" stroke-width="0.0474" stroke-linecap="round" stroke-linejoin="round" stroke-miterlimit="10" d="
			M5629.423,316.951l-53.204-37.44c-0.886-0.624-2.073-0.624-2.958,0.012l-20.733,14.75v-5.391h-12.725v14.443l-14.121,10.046
			v-86.376h-44.076v21.498h-32.9V194.72h-52.436v16.961h-20.875v-77.629h-65.234v77.629h-16.801h-1.464h-54.796V155.58h-45.664
			v56.102h-15.004v-26.746h-44.359v26.746h-30.008v-53.492h-52.188v16.873h-23.484v-54.708h-65.922v40.093h-31.154v31.337h-47.957
			v-78.381h-76.433v24.723h-30.428V24.97h-95.089v113.156h-26.625L4628.061,0.024l-24.724,138.102h-30.428V56.349h-66.562v81.776
			h-21.871V99.139h-64.66v38.986h-43.741V60.153h-76.071v24.595h-34.231V5.001h-96.092v268.531l-55.644-39.157
			c-1.317-0.928-3.082-0.928-4.397,0.018l-30.824,21.929v-8.015h-18.919v21.474l-28.001,19.921l-50.114-35.267
			c-1.125-0.793-2.633-0.793-3.757,0.015l-26.339,18.739v-6.849h-16.166v18.349l-24.348,17.321
			c-1.462,1.041-1.806,3.075-0.764,4.536c1.043,1.464,3.068,1.809,4.535,0.763l1.235-0.873v65.808h121.085h6.389h126.029v0.162
			l790.789-0.155v0.155l565.212-0.111v-0.051h99.238v-52.2l1.556,1.097c0.452,0.315,0.961,0.467,1.473,0.467
			c0.804,0,1.596-0.378,2.095-1.087C5630.856,319.363,5630.577,317.765,5629.423,316.951z"/>
		
			<path opacity="0.7" fill="#77B6A4" stroke="#77B6A4" stroke-width="0.0474" stroke-linecap="round" stroke-linejoin="round" stroke-miterlimit="10" d="
			M3571.539,284.71c-1.971,0-3.864,0.301-5.643,0.857c-0.558-8.683-7.021-15.74-15.416-17.252c0-0.005,0-0.028,0-0.028
			c-1.215-0.352-3.342-0.296-3.342-0.296c-10.384,0-18.799,8.417-18.799,18.804c0,2.101,0.345,4.115,0.979,6.003
			c-10.332,0.058-18.692,8.449-18.692,18.799c0,10.384,8.417,18.799,18.803,18.799c3.481,0,6.737-0.947,9.531-2.593
			c0.595,0.858,1.286,1.645,2.015,2.392c0.166,0.167,0.326,0.331,0.496,0.496c0.74,0.698,1.525,1.354,2.366,1.929
			c0.137,0.096,0.28,0.168,0.423,0.26c0.773,0.496,1.582,0.931,2.424,1.308c0.019,0.013,0.029,0.025,0.051,0.035h-0.223v38.427
			h3.974h3.97v-36.768c8.552-0.025,15.765-5.76,18.017-13.593c9.956-0.485,17.869-8.713,17.869-18.782
			C3590.34,293.125,3581.924,284.71,3571.539,284.71z"/>
		
			<path opacity="0.7" fill="#77B6A4" stroke="#77B6A4" stroke-width="0.0474" stroke-linecap="round" stroke-linejoin="round" stroke-miterlimit="10" d="
			M3432.454,284.71c-1.97,0-3.863,0.301-5.643,0.857c-0.555-8.683-7.02-15.74-15.415-17.252c0-0.005,0-0.028,0-0.028
			c-1.218-0.352-3.343-0.296-3.343-0.296c-10.383,0-18.8,8.417-18.8,18.804c0,2.101,0.346,4.115,0.979,6.003
			c-10.332,0.058-18.692,8.449-18.692,18.799c0,10.384,8.417,18.799,18.804,18.799c3.48,0,6.735-0.947,9.529-2.593
			c0.597,0.858,1.287,1.645,2.013,2.392c0.166,0.167,0.326,0.331,0.499,0.496c0.74,0.698,1.521,1.354,2.366,1.929
			c0.135,0.096,0.281,0.168,0.419,0.26c0.776,0.496,1.586,0.931,2.427,1.308c0.017,0.013,0.028,0.025,0.051,0.035h-0.222v38.427
			h3.975h3.969v-36.768c8.554-0.025,15.765-5.76,18.013-13.593c9.958-0.485,17.873-8.713,17.873-18.782
			C3451.257,293.125,3442.841,284.71,3432.454,284.71z"/>
		
			<path opacity="0.7" fill="#77B6A4" stroke="#77B6A4" stroke-width="0.0474" stroke-linecap="round" stroke-linejoin="round" stroke-miterlimit="10" d="
			M3643.318,315.833c-1.273,0-2.497,0.194-3.646,0.554c-0.364-5.609-4.536-10.169-9.958-11.146c0-0.004,0-0.019,0-0.019
			c-0.788-0.228-2.165-0.191-2.165-0.191c-6.707,0-12.145,5.438-12.145,12.148c0,1.357,0.226,2.659,0.634,3.879
			c-6.677,0.037-12.075,5.459-12.075,12.146c0,6.709,5.438,12.146,12.145,12.146c2.252,0,4.354-0.612,6.162-1.675
			c0.383,0.555,0.829,1.062,1.298,1.545c0.109,0.107,0.214,0.214,0.322,0.32c0.479,0.451,0.984,0.875,1.526,1.246
			c0.09,0.062,0.184,0.108,0.275,0.168c0.496,0.32,1.022,0.602,1.563,0.845c0.014,0.009,0.021,0.017,0.036,0.022h-0.144v24.827
			h2.567h2.565v-23.755c5.524-0.017,10.185-3.721,11.638-8.782c6.432-0.313,11.546-5.629,11.546-12.135
			C3655.465,321.27,3650.028,315.833,3643.318,315.833z"/>
		
			<path opacity="0.7" fill="#77B6A4" stroke="#77B6A4" stroke-width="0.0474" stroke-linecap="round" stroke-linejoin="round" stroke-miterlimit="10" d="
			M3708.446,315.833c-1.272,0-2.498,0.194-3.648,0.554c-0.361-5.609-4.533-10.169-9.956-11.146c0-0.004,0-0.019,0-0.019
			c-0.786-0.228-2.164-0.191-2.164-0.191c-6.708,0-12.146,5.438-12.146,12.148c0,1.357,0.226,2.659,0.635,3.879
			c-6.677,0.037-12.079,5.459-12.079,12.146c0,6.709,5.44,12.146,12.148,12.146c2.251,0,4.354-0.612,6.16-1.675
			c0.386,0.555,0.829,1.062,1.301,1.545c0.106,0.107,0.212,0.214,0.32,0.32c0.479,0.451,0.982,0.875,1.526,1.246
			c0.091,0.062,0.185,0.108,0.274,0.168c0.497,0.32,1.021,0.602,1.565,0.845c0.013,0.009,0.022,0.017,0.035,0.022h-0.143v24.827
			h2.567h2.564v-23.755c5.525-0.017,10.185-3.721,11.641-8.782c6.429-0.313,11.545-5.629,11.545-12.135
			C3720.594,321.27,3715.152,315.833,3708.446,315.833z"/>
		
			<path opacity="0.7" fill="#77B6A4" stroke="#77B6A4" stroke-width="0.0474" stroke-linecap="round" stroke-linejoin="round" stroke-miterlimit="10" d="
			M3886.665,316.951l-53.204-37.44c-0.886-0.624-2.073-0.624-2.958,0.012l-20.733,14.75v-5.391h-12.725v14.443l-19.166,13.635
			c-1.151,0.819-1.422,2.42-0.601,3.57c0.821,1.152,2.415,1.424,3.57,0.601l0.972-0.688v51.801h100.342v-52.2l1.556,1.097
			c0.452,0.315,0.96,0.467,1.473,0.467c0.803,0,1.595-0.378,2.094-1.087C3888.099,319.363,3887.819,317.765,3886.665,316.951z"/>
	</g>
	<g>
		
			<path opacity="0.7" fill="#77B6A4" stroke="#77B6A4" stroke-width="0.0474" stroke-linecap="round" stroke-linejoin="round" stroke-miterlimit="10" d="
			M7473.648,288.597c-1.972,0-3.865,0.301-5.643,0.857c-0.559-8.683-7.021-15.74-15.416-17.252c0-0.005,0-0.028,0-0.028
			c-1.215-0.352-3.343-0.296-3.343-0.296c-10.384,0-18.8,8.417-18.8,18.804c0,2.101,0.346,4.115,0.979,6.003
			c-10.332,0.058-18.691,8.449-18.691,18.799c0,10.384,8.416,18.799,18.803,18.799c3.48,0,6.736-0.947,9.53-2.593
			c0.595,0.858,1.286,1.645,2.015,2.392c0.166,0.167,0.326,0.331,0.496,0.496c0.74,0.698,1.525,1.354,2.365,1.929
			c0.138,0.096,0.281,0.168,0.424,0.26c0.773,0.496,1.581,0.931,2.424,1.308c0.019,0.013,0.029,0.025,0.051,0.035h-0.223v38.427
			h3.975h3.97v-36.768c8.552-0.025,15.765-5.76,18.017-13.593c9.957-0.485,17.869-8.713,17.869-18.782
			C7492.449,297.011,7484.033,288.597,7473.648,288.597z"/>
		
			<path opacity="0.7" fill="#77B6A4" stroke="#77B6A4" stroke-width="0.0474" stroke-linecap="round" stroke-linejoin="round" stroke-miterlimit="10" d="
			M7365.059,288.597c-1.97,0-3.862,0.301-5.643,0.857c-0.555-8.683-7.02-15.74-15.415-17.252c0-0.005,0-0.028,0-0.028
			c-1.218-0.352-3.343-0.296-3.343-0.296c-10.383,0-18.8,8.417-18.8,18.804c0,2.101,0.346,4.115,0.979,6.003
			c-10.332,0.058-18.692,8.449-18.692,18.799c0,10.384,8.417,18.799,18.804,18.799c3.48,0,6.734-0.947,9.529-2.593
			c0.597,0.858,1.287,1.645,2.014,2.392c0.165,0.167,0.326,0.331,0.498,0.496c0.74,0.698,1.521,1.354,2.365,1.929
			c0.135,0.096,0.281,0.168,0.42,0.26c0.775,0.496,1.586,0.931,2.428,1.308c0.017,0.013,0.027,0.025,0.051,0.035h-0.223v38.427
			h3.976h3.97v-36.768c8.553-0.025,15.765-5.76,18.013-13.593c9.958-0.485,17.873-8.713,17.873-18.782
			C7383.862,297.011,7375.446,288.597,7365.059,288.597z"/>
		
			<path opacity="0.7" fill="#77B6A4" stroke="#77B6A4" stroke-width="0.0474" stroke-linecap="round" stroke-linejoin="round" stroke-miterlimit="10" d="
			M7560.676,319.72c-1.273,0-2.497,0.194-3.646,0.554c-0.363-5.609-4.535-10.169-9.957-11.146c0-0.004,0-0.019,0-0.019
			c-0.788-0.228-2.166-0.191-2.166-0.191c-6.707,0-12.145,5.438-12.145,12.148c0,1.357,0.227,2.659,0.635,3.879
			c-6.678,0.037-12.076,5.459-12.076,12.146c0,6.709,5.438,12.146,12.145,12.146c2.253,0,4.355-0.612,6.163-1.675
			c0.383,0.555,0.829,1.062,1.298,1.545c0.109,0.107,0.213,0.214,0.322,0.32c0.479,0.451,0.984,0.875,1.525,1.246
			c0.091,0.062,0.185,0.108,0.276,0.168c0.496,0.32,1.022,0.602,1.563,0.845c0.014,0.009,0.021,0.017,0.036,0.022h-0.144v24.827
			h2.566h2.566v-23.755c5.524-0.017,10.184-3.721,11.638-8.782c6.431-0.313,11.546-5.629,11.546-12.135
			C7572.822,325.157,7567.385,319.72,7560.676,319.72z"/>
		
			<path opacity="0.7" fill="#77B6A4" stroke="#77B6A4" stroke-width="0.0474" stroke-linecap="round" stroke-linejoin="round" stroke-miterlimit="10" d="
			M7641.052,319.72c-1.272,0-2.497,0.194-3.648,0.554c-0.36-5.609-4.533-10.169-9.956-11.146c0-0.004,0-0.019,0-0.019
			c-0.786-0.228-2.164-0.191-2.164-0.191c-6.707,0-12.146,5.438-12.146,12.148c0,1.357,0.226,2.659,0.635,3.879
			c-6.677,0.037-12.079,5.459-12.079,12.146c0,6.709,5.441,12.146,12.148,12.146c2.251,0,4.354-0.612,6.16-1.675
			c0.386,0.555,0.829,1.062,1.301,1.545c0.106,0.107,0.213,0.214,0.32,0.32c0.479,0.451,0.982,0.875,1.527,1.246
			c0.09,0.062,0.184,0.108,0.273,0.168c0.498,0.32,1.021,0.602,1.566,0.845c0.012,0.009,0.021,0.017,0.035,0.022h-0.144v24.827
			h2.567h2.564v-23.755c5.525-0.017,10.185-3.721,11.641-8.782c6.43-0.313,11.545-5.629,11.545-12.135
			C7653.199,325.157,7647.758,319.72,7641.052,319.72z"/>
		
			<path opacity="0.7" fill="#77B6A4" stroke="#77B6A4" stroke-width="0.0474" stroke-linecap="round" stroke-linejoin="round" stroke-miterlimit="10" d="
			M7819.271,320.837l-53.204-37.44c-0.886-0.624-2.072-0.624-2.957,0.012l-20.733,14.75v-5.391h-12.726v14.443l-19.165,13.635
			c-1.151,0.819-1.422,2.42-0.601,3.57c0.82,1.152,2.414,1.424,3.569,0.601l0.972-0.688v51.801h100.342v-52.2l1.557,1.097
			c0.451,0.315,0.96,0.467,1.473,0.467c0.803,0,1.595-0.378,2.094-1.087C7820.705,323.25,7820.425,321.652,7819.271,320.837z"/>
		
			<path opacity="0.7" fill="#77B6A4" stroke="#77B6A4" stroke-width="0.0474" stroke-linecap="round" stroke-linejoin="round" stroke-miterlimit="10" d="
			M10907.682,377.988v-86.376h-44.076v21.498h-32.9v-53.772h-52.436v16.961h-20.875v-77.629h-65.234v77.629h-16.801h-1.465h-54.796
			v-56.102h-45.664v56.102h-15.004v-26.746h-44.359v26.746h-30.008v-53.492h-52.188v16.873h-23.483V184.97h-65.923v40.094h-31.154
			v31.337h-47.957v-78.382h-76.433v24.724h-30.429V89.587h-95.089v113.156h-26.625l-24.723-138.102l-24.724,138.102h-30.428v-81.776
			h-66.562v81.776h-21.87v-38.986h-64.66v38.986h-43.741V124.77h-76.071v24.595h-34.231V69.619h-96.092v243.937l-42.856-30.158
			c-0.886-0.624-2.073-0.624-2.958,0.012l-20.733,14.75v-5.391h-12.725v14.443l-14.121,10.046v-86.376h-44.076v21.498h-32.9v-53.772
			h-52.436v16.961H9308v-77.629h-65.234v77.629h-16.801h-1.465h-54.796v-56.102h-45.664v56.102h-15.004v-26.746h-44.359v26.746
			h-30.008v-53.492h-52.188v16.873h-23.483V124.24h-65.923v40.093h-31.154v31.337h-47.957v-78.381h-76.433v24.723h-30.429V28.856
			h-95.089v113.156h-26.625L8560.666,3.911l-24.724,138.102h-30.428V60.236h-66.562v81.776h-21.87v-38.986h-64.66v38.986h-43.741
			V64.04h-76.071v24.595h-34.231V8.888h-96.092v268.531l-55.644-39.157c-1.317-0.928-3.082-0.928-4.397,0.018l-30.823,21.929v-8.015
			h-18.92v21.474l-28.001,19.921l-50.114-35.267c-1.125-0.793-2.633-0.793-3.758,0.015l-26.339,18.739v-6.849h-16.165v18.349
			l-24.349,17.321c-1.462,1.041-1.806,3.075-0.764,4.536c1.044,1.464,3.068,1.809,4.535,0.763l1.235-0.873v65.808h121.084h6.39
			h126.029v0.162l790.789-0.155v0.155l565.212-0.111v-0.051h42.443l-81.469,60.73h6.39h126.029v0.162l790.789-0.155v0.155
			l565.212-0.111v-0.051h99.238L10907.682,377.988z"/>
	</g>
	
		<path opacity="0.7" fill="#77B6A4" stroke="#77B6A4" stroke-width="0.0474" stroke-linecap="round" stroke-linejoin="round" stroke-miterlimit="10" d="
		M11051.862,317.109c-1.272,0-2.496,0.194-3.645,0.554c-0.364-5.609-4.537-10.169-9.959-11.146c0-0.004,0-0.019,0-0.019
		c-0.787-0.228-2.164-0.191-2.164-0.191c-6.707,0-12.145,5.438-12.145,12.148c0,1.357,0.225,2.659,0.634,3.879
		c-6.677,0.037-12.075,5.459-12.075,12.146c0,6.709,5.438,12.146,12.145,12.146c2.252,0,4.354-0.612,6.162-1.675
		c0.383,0.555,0.828,1.062,1.298,1.545c0.109,0.107,0.214,0.214,0.322,0.32c0.479,0.451,0.984,0.875,1.526,1.246
		c0.09,0.062,0.184,0.108,0.275,0.168c0.496,0.32,1.021,0.602,1.563,0.845c0.014,0.009,0.021,0.017,0.036,0.022h-0.145v24.827h2.568
		h2.564v-23.755c5.525-0.017,10.186-3.721,11.639-8.782c6.432-0.313,11.545-5.629,11.545-12.135
		C11064.009,322.545,11058.573,317.109,11051.862,317.109z"/>
	
		<path opacity="0.7" fill="#77B6A4" stroke="#77B6A4" stroke-width="0.0474" stroke-linecap="round" stroke-linejoin="round" stroke-miterlimit="10" d="
		M11141.459,283.869c-1.971,0-3.863,0.301-5.643,0.857c-0.557-8.683-7.02-15.74-15.416-17.252c0-0.005,0-0.028,0-0.028
		c-1.215-0.352-3.342-0.296-3.342-0.296c-10.383,0-18.799,8.417-18.799,18.804c0,2.101,0.344,4.115,0.979,6.003
		c-10.332,0.058-18.693,8.449-18.693,18.799c0,10.384,8.418,18.799,18.803,18.799c3.482,0,6.738-0.947,9.531-2.593
		c0.596,0.858,1.285,1.645,2.016,2.392c0.166,0.167,0.324,0.331,0.494,0.496c0.74,0.698,1.525,1.354,2.367,1.929
		c0.137,0.096,0.279,0.168,0.422,0.26c0.773,0.496,1.582,0.931,2.426,1.308c0.018,0.013,0.027,0.025,0.051,0.035h-0.223v38.427
		h3.973h3.971V335.04c8.553-0.025,15.766-5.76,18.018-13.593c9.955-0.485,17.869-8.713,17.869-18.782
		C11160.262,292.283,11151.846,283.869,11141.459,283.869z"/>
	
		<path opacity="0.7" fill="#77B6A4" stroke="#77B6A4" stroke-width="0.0474" stroke-linecap="round" stroke-linejoin="round" stroke-miterlimit="10" d="
		M11884.849,283.869c-1.972,0-3.864,0.301-5.643,0.857c-0.558-8.683-7.021-15.74-15.416-17.252c0-0.005,0-0.028,0-0.028
		c-1.215-0.352-3.343-0.296-3.343-0.296c-10.383,0-18.799,8.417-18.799,18.804c0,2.101,0.345,4.115,0.979,6.003
		c-10.332,0.058-18.692,8.449-18.692,18.799c0,10.384,8.417,18.799,18.803,18.799c3.481,0,6.737-0.947,9.53-2.593
		c0.596,0.858,1.286,1.645,2.016,2.392c0.166,0.167,0.325,0.331,0.495,0.496c0.74,0.698,1.525,1.354,2.366,1.929
		c0.137,0.096,0.28,0.168,0.423,0.26c0.773,0.496,1.581,0.931,2.425,1.308c0.018,0.013,0.028,0.025,0.051,0.035h-0.223v38.427h3.974
		h3.97V335.04c8.553-0.025,15.766-5.76,18.018-13.593c9.956-0.485,17.869-8.713,17.869-18.782
		C11903.65,292.283,11895.234,283.869,11884.849,283.869z"/>
	
		<path opacity="0.7" fill="#77B6A4" stroke="#77B6A4" stroke-width="0.0474" stroke-linecap="round" stroke-linejoin="round" stroke-miterlimit="10" d="
		M12008.091,283.869c-1.972,0-3.864,0.301-5.643,0.857c-0.558-8.683-7.021-15.74-15.416-17.252c0-0.005,0-0.028,0-0.028
		c-1.215-0.352-3.343-0.296-3.343-0.296c-10.383,0-18.799,8.417-18.799,18.804c0,2.101,0.345,4.115,0.979,6.003
		c-10.332,0.058-18.693,8.449-18.693,18.799c0,10.384,8.418,18.799,18.804,18.799c3.481,0,6.737-0.947,9.53-2.593
		c0.596,0.858,1.285,1.645,2.016,2.392c0.166,0.167,0.325,0.331,0.495,0.496c0.739,0.698,1.525,1.354,2.366,1.929
		c0.137,0.096,0.28,0.168,0.423,0.26c0.773,0.496,1.581,0.931,2.425,1.308c0.018,0.013,0.028,0.025,0.051,0.035h-0.223v38.427h3.974
		h3.97V335.04c8.553-0.025,15.766-5.76,18.018-13.593c9.956-0.485,17.869-8.713,17.869-18.782
		C12026.893,292.283,12018.477,283.869,12008.091,283.869z"/>
	
		<path opacity="0.7" fill="#77B6A4" stroke="#77B6A4" stroke-width="0.0474" stroke-linecap="round" stroke-linejoin="round" stroke-miterlimit="10" d="
		M12131.333,283.869c-1.972,0-3.864,0.301-5.643,0.857c-0.558-8.683-7.021-15.74-15.416-17.252c0-0.005,0-0.028,0-0.028
		c-1.215-0.352-3.343-0.296-3.343-0.296c-10.383,0-18.799,8.417-18.799,18.804c0,2.101,0.344,4.115,0.979,6.003
		c-10.332,0.058-18.692,8.449-18.692,18.799c0,10.384,8.417,18.799,18.803,18.799c3.481,0,6.737-0.947,9.53-2.593
		c0.596,0.858,1.286,1.645,2.016,2.392c0.166,0.167,0.325,0.331,0.495,0.496c0.74,0.698,1.525,1.354,2.366,1.929
		c0.137,0.096,0.28,0.168,0.423,0.26c0.773,0.496,1.581,0.931,2.425,1.308c0.018,0.013,0.028,0.025,0.051,0.035h-0.223v38.427h3.974
		h3.97V335.04c8.553-0.025,15.766-5.76,18.018-13.593c9.956-0.485,17.869-8.713,17.869-18.782
		C12150.135,292.283,12141.719,283.869,12131.333,283.869z"/>
	
		<path opacity="0.7" fill="#77B6A4" stroke="#77B6A4" stroke-width="0.0474" stroke-linecap="round" stroke-linejoin="round" stroke-miterlimit="10" d="
		M13420.848,283.869c-1.971,0-3.863,0.301-5.642,0.857c-0.558-8.683-7.021-15.74-15.416-17.252c0-0.005,0-0.028,0-0.028
		c-1.215-0.352-3.343-0.296-3.343-0.296c-10.383,0-18.799,8.417-18.799,18.804c0,2.101,0.345,4.115,0.979,6.003
		c-10.332,0.058-18.692,8.449-18.692,18.799c0,10.384,8.417,18.799,18.804,18.799c3.48,0,6.736-0.947,9.529-2.593
		c0.596,0.858,1.286,1.645,2.016,2.392c0.166,0.167,0.325,0.331,0.496,0.496c0.739,0.698,1.524,1.354,2.365,1.929
		c0.137,0.096,0.28,0.168,0.423,0.26c0.773,0.496,1.581,0.931,2.425,1.308c0.018,0.013,0.028,0.025,0.051,0.035h-0.223v38.427h3.974
		h3.97V335.04c8.553-0.025,15.766-5.76,18.018-13.593c9.957-0.485,17.869-8.713,17.869-18.782
		C13439.65,292.283,13431.234,283.869,13420.848,283.869z"/>
	
		<path opacity="0.7" fill="#77B6A4" stroke="#77B6A4" stroke-width="0.0474" stroke-linecap="round" stroke-linejoin="round" stroke-miterlimit="10" d="
		M13544.091,283.869c-1.972,0-3.864,0.301-5.644,0.857c-0.557-8.683-7.02-15.74-15.416-17.252c0-0.005,0-0.028,0-0.028
		c-1.214-0.352-3.342-0.296-3.342-0.296c-10.383,0-18.799,8.417-18.799,18.804c0,2.101,0.345,4.115,0.979,6.003
		c-10.332,0.058-18.693,8.449-18.693,18.799c0,10.384,8.418,18.799,18.804,18.799c3.481,0,6.737-0.947,9.53-2.593
		c0.596,0.858,1.285,1.645,2.016,2.392c0.166,0.167,0.325,0.331,0.495,0.496c0.739,0.698,1.525,1.354,2.366,1.929
		c0.137,0.096,0.28,0.168,0.423,0.26c0.773,0.496,1.581,0.931,2.425,1.308c0.018,0.013,0.028,0.025,0.051,0.035h-0.223v38.427h3.974
		h3.97V335.04c8.553-0.025,15.766-5.76,18.018-13.593c9.956-0.485,17.869-8.713,17.869-18.782
		C13562.893,292.283,13554.477,283.869,13544.091,283.869z"/>
	
		<path opacity="0.7" fill="#77B6A4" stroke="#77B6A4" stroke-width="0.0474" stroke-linecap="round" stroke-linejoin="round" stroke-miterlimit="10" d="
		M13667.332,283.869c-1.971,0-3.863,0.301-5.642,0.857c-0.558-8.683-7.021-15.74-15.416-17.252c0-0.005,0-0.028,0-0.028
		c-1.215-0.352-3.343-0.296-3.343-0.296c-10.383,0-18.799,8.417-18.799,18.804c0,2.101,0.344,4.115,0.979,6.003
		c-10.332,0.058-18.692,8.449-18.692,18.799c0,10.384,8.417,18.799,18.803,18.799c3.481,0,6.737-0.947,9.53-2.593
		c0.596,0.858,1.286,1.645,2.016,2.392c0.166,0.167,0.325,0.331,0.495,0.496c0.74,0.698,1.525,1.354,2.366,1.929
		c0.137,0.096,0.28,0.168,0.423,0.26c0.773,0.496,1.581,0.931,2.425,1.308c0.018,0.013,0.028,0.025,0.051,0.035h-0.223v38.427h3.975
		h3.969V335.04c8.553-0.025,15.766-5.76,18.018-13.593c9.956-0.485,17.869-8.713,17.869-18.782
		C13686.135,292.283,13677.719,283.869,13667.332,283.869z"/>
	
		<path opacity="0.7" fill="#77B6A4" stroke="#77B6A4" stroke-width="0.0474" stroke-linecap="round" stroke-linejoin="round" stroke-miterlimit="10" d="
		M11216.152,314.992c-1.272,0-2.497,0.194-3.646,0.554c-0.363-5.609-4.536-10.169-9.958-11.146c0-0.004,0-0.019,0-0.019
		c-0.788-0.228-2.165-0.191-2.165-0.191c-6.707,0-12.145,5.438-12.145,12.148c0,1.357,0.226,2.659,0.635,3.879
		c-6.678,0.037-12.076,5.459-12.076,12.146c0,6.709,5.438,12.146,12.145,12.146c2.252,0,4.354-0.612,6.162-1.675
		c0.383,0.555,0.829,1.062,1.299,1.545c0.109,0.107,0.213,0.214,0.322,0.32c0.479,0.451,0.984,0.875,1.525,1.246
		c0.09,0.062,0.184,0.108,0.275,0.168c0.496,0.32,1.022,0.602,1.564,0.845c0.014,0.009,0.02,0.017,0.035,0.022h-0.144v24.827h2.567
		h2.565v-23.755c5.524-0.017,10.185-3.721,11.638-8.782c6.432-0.313,11.547-5.629,11.547-12.135
		C11228.3,320.428,11222.862,314.992,11216.152,314.992z"/>
	
		<path opacity="0.7" fill="#77B6A4" stroke="#77B6A4" stroke-width="0.0474" stroke-linecap="round" stroke-linejoin="round" stroke-miterlimit="10" d="
		M11443.822,317.109c-1.272,0-2.496,0.194-3.645,0.554c-0.364-5.609-4.537-10.169-9.959-11.146c0-0.004,0-0.019,0-0.019
		c-0.787-0.228-2.164-0.191-2.164-0.191c-6.707,0-12.145,5.438-12.145,12.148c0,1.357,0.225,2.659,0.634,3.879
		c-6.677,0.037-12.075,5.459-12.075,12.146c0,6.709,5.438,12.146,12.145,12.146c2.252,0,4.354-0.612,6.162-1.675
		c0.383,0.555,0.828,1.062,1.298,1.545c0.109,0.107,0.214,0.214,0.322,0.32c0.479,0.451,0.984,0.875,1.526,1.246
		c0.09,0.062,0.184,0.108,0.275,0.168c0.496,0.32,1.021,0.602,1.563,0.845c0.014,0.009,0.021,0.017,0.036,0.022h-0.145v24.827h2.568
		h2.564v-23.755c5.525-0.017,10.186-3.721,11.639-8.782c6.432-0.313,11.545-5.629,11.545-12.135
		C11455.969,322.545,11450.533,317.109,11443.822,317.109z"/>
	
		<path opacity="0.7" fill="#77B6A4" stroke="#77B6A4" stroke-width="0.0474" stroke-linecap="round" stroke-linejoin="round" stroke-miterlimit="10" d="
		M11537.436,283.869c-1.973,0-3.865,0.301-5.643,0.857c-0.559-8.683-7.021-15.74-15.416-17.252c0-0.005,0-0.028,0-0.028
		c-1.215-0.352-3.344-0.296-3.344-0.296c-10.383,0-18.799,8.417-18.799,18.804c0,2.101,0.346,4.115,0.979,6.003
		c-10.332,0.058-18.691,8.449-18.691,18.799c0,10.384,8.416,18.799,18.803,18.799c3.48,0,6.736-0.947,9.529-2.593
		c0.596,0.858,1.287,1.645,2.016,2.392c0.166,0.167,0.326,0.331,0.496,0.496c0.74,0.698,1.525,1.354,2.365,1.929
		c0.137,0.096,0.281,0.168,0.424,0.26c0.773,0.496,1.58,0.931,2.424,1.308c0.018,0.013,0.029,0.025,0.051,0.035h-0.223v38.427h3.975
		h3.969V335.04c8.553-0.025,15.766-5.76,18.018-13.593c9.957-0.485,17.869-8.713,17.869-18.782
		C11556.236,292.283,11547.82,283.869,11537.436,283.869z"/>
	
		<path opacity="0.7" fill="#77B6A4" stroke="#77B6A4" stroke-width="0.0474" stroke-linecap="round" stroke-linejoin="round" stroke-miterlimit="10" d="
		M11616.144,314.992c-1.272,0-2.497,0.194-3.646,0.554c-0.363-5.609-4.536-10.169-9.958-11.146c0-0.004,0-0.019,0-0.019
		c-0.788-0.228-2.165-0.191-2.165-0.191c-6.707,0-12.145,5.438-12.145,12.148c0,1.357,0.226,2.659,0.635,3.879
		c-6.678,0.037-12.076,5.459-12.076,12.146c0,6.709,5.438,12.146,12.145,12.146c2.252,0,4.354-0.612,6.162-1.675
		c0.383,0.555,0.829,1.062,1.299,1.545c0.109,0.107,0.213,0.214,0.322,0.32c0.479,0.451,0.984,0.875,1.525,1.246
		c0.09,0.062,0.184,0.108,0.275,0.168c0.496,0.32,1.022,0.602,1.564,0.845c0.014,0.009,0.02,0.017,0.035,0.022h-0.144v24.827h2.567
		h2.565v-23.755c5.524-0.017,10.185-3.721,11.638-8.782c6.432-0.313,11.547-5.629,11.547-12.135
		C11628.291,320.428,11622.854,314.992,11616.144,314.992z"/>
	
		<path opacity="0.7" fill="#77B6A4" stroke="#77B6A4" stroke-width="0.0474" stroke-linecap="round" stroke-linejoin="round" stroke-miterlimit="10" d="
		M11284.194,314.992c-1.272,0-2.498,0.194-3.648,0.554c-0.361-5.609-4.533-10.169-9.956-11.146c0-0.004,0-0.019,0-0.019
		c-0.786-0.228-2.164-0.191-2.164-0.191c-6.708,0-12.146,5.438-12.146,12.148c0,1.357,0.225,2.659,0.635,3.879
		c-6.678,0.037-12.079,5.459-12.079,12.146c0,6.709,5.44,12.146,12.147,12.146c2.252,0,4.355-0.612,6.161-1.675
		c0.386,0.555,0.829,1.062,1.3,1.545c0.107,0.107,0.213,0.214,0.321,0.32c0.479,0.451,0.981,0.875,1.526,1.246
		c0.09,0.062,0.185,0.108,0.274,0.168c0.497,0.32,1.021,0.602,1.565,0.845c0.013,0.009,0.021,0.017,0.035,0.022h-0.143v24.827h2.566
		h2.564v-23.755c5.525-0.017,10.186-3.721,11.641-8.782c6.43-0.313,11.546-5.629,11.546-12.135
		C11296.342,320.428,11290.9,314.992,11284.194,314.992z"/>
	
		<path opacity="0.7" fill="#77B6A4" stroke="#77B6A4" stroke-width="0.0474" stroke-linecap="round" stroke-linejoin="round" stroke-miterlimit="10" d="
		M13031.822,317.109c-1.272,0-2.496,0.194-3.645,0.554c-0.365-5.609-4.537-10.169-9.959-11.146c0-0.004,0-0.019,0-0.019
		c-0.787-0.228-2.164-0.191-2.164-0.191c-6.707,0-12.145,5.438-12.145,12.148c0,1.357,0.225,2.659,0.633,3.879
		c-6.676,0.037-12.074,5.459-12.074,12.146c0,6.709,5.438,12.146,12.145,12.146c2.252,0,4.354-0.612,6.162-1.675
		c0.383,0.555,0.828,1.062,1.298,1.545c0.109,0.107,0.214,0.214,0.322,0.32c0.479,0.451,0.983,0.875,1.526,1.246
		c0.09,0.062,0.184,0.108,0.275,0.168c0.496,0.32,1.021,0.602,1.562,0.845c0.015,0.009,0.021,0.017,0.037,0.022h-0.145v24.827h2.568
		h2.564v-23.755c5.525-0.017,10.186-3.721,11.639-8.782c6.432-0.313,11.545-5.629,11.545-12.135
		C13043.969,322.545,13038.533,317.109,13031.822,317.109z"/>
	
		<path opacity="0.7" fill="#77B6A4" stroke="#77B6A4" stroke-width="0.0474" stroke-linecap="round" stroke-linejoin="round" stroke-miterlimit="10" d="
		M13121.42,283.869c-1.973,0-3.865,0.301-5.643,0.857c-0.559-8.683-7.021-15.74-15.416-17.252c0-0.005,0-0.028,0-0.028
		c-1.215-0.352-3.344-0.296-3.344-0.296c-10.383,0-18.799,8.417-18.799,18.804c0,2.101,0.346,4.115,0.979,6.003
		c-10.332,0.058-18.691,8.449-18.691,18.799c0,10.384,8.416,18.799,18.803,18.799c3.48,0,6.736-0.947,9.529-2.593
		c0.596,0.858,1.287,1.645,2.016,2.392c0.166,0.167,0.326,0.331,0.496,0.496c0.74,0.698,1.525,1.354,2.365,1.929
		c0.137,0.096,0.281,0.168,0.424,0.26c0.773,0.496,1.58,0.931,2.424,1.308c0.018,0.013,0.029,0.025,0.051,0.035h-0.223v38.427h3.975
		h3.969V335.04c8.553-0.025,15.766-5.76,18.018-13.593c9.957-0.485,17.869-8.713,17.869-18.782
		C13140.221,292.283,13131.805,283.869,13121.42,283.869z"/>
	
		<path opacity="0.7" fill="#77B6A4" stroke="#77B6A4" stroke-width="0.0474" stroke-linecap="round" stroke-linejoin="round" stroke-miterlimit="10" d="
		M13196.113,314.992c-1.273,0-2.498,0.194-3.646,0.554c-0.363-5.609-4.536-10.169-9.958-11.146c0-0.004,0-0.019,0-0.019
		c-0.788-0.228-2.165-0.191-2.165-0.191c-6.707,0-12.145,5.438-12.145,12.148c0,1.357,0.226,2.659,0.635,3.879
		c-6.678,0.037-12.076,5.459-12.076,12.146c0,6.709,5.438,12.146,12.145,12.146c2.252,0,4.354-0.612,6.162-1.675
		c0.383,0.555,0.828,1.062,1.299,1.545c0.109,0.107,0.213,0.214,0.322,0.32c0.479,0.451,0.984,0.875,1.525,1.246
		c0.09,0.062,0.184,0.108,0.275,0.168c0.496,0.32,1.022,0.602,1.564,0.845c0.014,0.009,0.02,0.017,0.035,0.022h-0.144v24.827h2.567
		h2.565v-23.755c5.524-0.017,10.185-3.721,11.638-8.782c6.432-0.313,11.547-5.629,11.547-12.135
		C13208.26,320.428,13202.822,314.992,13196.113,314.992z"/>
	
		<path opacity="0.7" fill="#77B6A4" stroke="#77B6A4" stroke-width="0.0474" stroke-linecap="round" stroke-linejoin="round" stroke-miterlimit="10" d="
		M13264.154,314.992c-1.273,0-2.498,0.194-3.648,0.554c-0.361-5.609-4.533-10.169-9.956-11.146c0-0.004,0-0.019,0-0.019
		c-0.786-0.228-2.164-0.191-2.164-0.191c-6.708,0-12.146,5.438-12.146,12.148c0,1.357,0.225,2.659,0.635,3.879
		c-6.678,0.037-12.08,5.459-12.08,12.146c0,6.709,5.441,12.146,12.148,12.146c2.252,0,4.355-0.612,6.161-1.675
		c0.386,0.555,0.829,1.062,1.3,1.545c0.107,0.107,0.213,0.214,0.321,0.32c0.479,0.451,0.981,0.875,1.526,1.246
		c0.09,0.062,0.185,0.108,0.274,0.168c0.497,0.32,1.021,0.602,1.565,0.845c0.013,0.009,0.021,0.017,0.035,0.022h-0.143v24.827h2.566
		h2.564v-23.755c5.525-0.017,10.186-3.721,11.641-8.782c6.43-0.313,11.546-5.629,11.546-12.135
		C13276.302,320.428,13270.86,314.992,13264.154,314.992z"/>
	
		<path opacity="0.7" fill="#77B6A4" stroke="#77B6A4" stroke-width="0.0474" stroke-linecap="round" stroke-linejoin="round" stroke-miterlimit="10" d="
		M12940.79,320.837l-53.204-37.44c-0.886-0.624-2.072-0.624-2.957,0.012l-20.733,14.75v-5.391h-12.726v14.443l-19.165,13.635
		c-1.151,0.819-1.422,2.42-0.601,3.57c0.82,1.152,2.414,1.424,3.569,0.601l0.972-0.688v51.801h100.342v-52.2l1.557,1.097
		c0.451,0.315,0.96,0.467,1.473,0.467c0.803,0,1.594-0.378,2.094-1.087C12942.225,323.25,12941.944,321.652,12940.79,320.837z"/>
	
		<path opacity="0.7" fill="#77B6A4" stroke="#77B6A4" stroke-width="0.0654" stroke-linecap="round" stroke-linejoin="round" stroke-miterlimit="10" d="
		M12810.682,299.792l-73.454-51.69c-1.224-0.862-2.86-0.862-4.083,0.016l-28.625,20.364v-7.442h-17.568v19.94l-26.459,18.824
		c-1.59,1.132-1.963,3.341-0.83,4.93c1.133,1.591,3.334,1.966,4.928,0.829l1.342-0.949v71.517h138.533v-72.068l2.148,1.515
		c0.623,0.436,1.326,0.645,2.033,0.645c1.109,0,2.201-0.522,2.891-1.501C12812.662,303.123,12812.275,300.917,12810.682,299.792z"/>
</g>
</svg>
