<?xml version="1.0" encoding="utf-8"?>
<!-- Generator: Adobe Illustrator 15.0.2, SVG Export Plug-In . SVG Version: 6.00 Build 0)  -->
<!DOCTYPE svg PUBLIC "-//W3C//DTD SVG 1.1//EN" "http://www.w3.org/Graphics/SVG/1.1/DTD/svg11.dtd">
<svg version="1.1" id="Lager_1" xmlns="http://www.w3.org/2000/svg" xmlns:xlink="http://www.w3.org/1999/xlink" x="0px" y="0px"
	 width="229px" height="264.055px" viewBox="0 0 229 264.055" enable-background="new 0 0 229 264.055" xml:space="preserve">
<g>
	<polygon fill="#3C3C3B" points="132.417,0 96.584,0 96.584,14.86 107.07,14.86 107.07,40.763 121.931,40.763 121.931,14.86 
		132.417,14.86 	"/>
	<g>
		<circle fill="#3C3C3B" cx="114.5" cy="149.555" r="114.5"/>
		<path fill="#3C3C3B" d="M114.5,264.055c-63.236,0-114.5-51.264-114.5-114.5c0-63.237,51.264-114.5,114.5-114.5V264.055z"/>
		<circle fill="#FFFFFF" cx="114.5" cy="149.555" r="97"/>
		<path fill="#F6F6F6" d="M114.5,246.555c-53.571,0-97-43.429-97-97c0-53.572,43.429-97,97-97V246.555z"/>
	</g>
	<path fill="#3C3C3B" d="M123.785,133.395l-6.149-63.062c0-2.818-0.497-5.103-3.315-5.103c-2.817,0-3.314,2.285-3.314,5.103
		l-6.174,63.294c-5.379,3.272-8.984,9.172-8.984,15.929c0,10.3,8.353,18.651,18.652,18.651c10.301,0,18.652-8.352,18.652-18.651
		C133.152,142.639,129.378,136.615,123.785,133.395z"/>
	<polygon fill="#3C3C3B" points="211.901,48.442 190.809,30.106 183.204,38.853 189.378,44.22 176.122,59.467 184.869,67.072 
		198.124,51.824 204.297,57.19 	"/>
</g>
</svg>
