<?xml version="1.0" encoding="utf-8"?>
<!-- Generator: Adobe Illustrator 15.0.2, SVG Export Plug-In . SVG Version: 6.00 Build 0)  -->
<!DOCTYPE svg PUBLIC "-//W3C//DTD SVG 1.1//EN" "http://www.w3.org/Graphics/SVG/1.1/DTD/svg11.dtd">
<svg version="1.1" id="Lager_1" xmlns="http://www.w3.org/2000/svg" xmlns:xlink="http://www.w3.org/1999/xlink" x="0px" y="0px"
	 width="389.89px" height="94.338px" viewBox="0 0 389.89 94.338" enable-background="new 0 0 389.89 94.338" xml:space="preserve">
<g>
	
		<path fill="#77B6A4" stroke="#77B6A4" stroke-width="0.0491" stroke-linecap="round" stroke-linejoin="round" stroke-miterlimit="10" d="
		M108.861,37.359c-1.273,0-2.497,0.192-3.646,0.554c-0.357-5.609-4.535-10.169-9.96-11.146c0-0.005,0-0.02,0-0.02
		c-0.784-0.228-2.159-0.191-2.159-0.191c-6.709,0-12.146,5.438-12.146,12.148c0,1.357,0.222,2.659,0.632,3.879
		c-6.675,0.037-12.077,5.459-12.077,12.146c0,6.709,5.438,12.146,12.148,12.146c2.249,0,4.353-0.612,6.157-1.675
		c0.385,0.555,0.829,1.062,1.302,1.545c0.105,0.107,0.21,0.214,0.318,0.32c0.479,0.45,0.985,0.875,1.529,1.246
		c0.088,0.062,0.183,0.106,0.273,0.168c0.5,0.318,1.021,0.602,1.564,0.845c0.013,0.009,0.021,0.017,0.033,0.021h-0.145v24.827h2.567
		h2.564V70.417c5.525-0.017,10.186-3.721,11.641-8.782c6.432-0.312,11.545-5.629,11.545-12.135
		C121.008,42.793,115.571,37.359,108.861,37.359z"/>
	
		<path fill="#77B6A4" stroke="#77B6A4" stroke-width="0.0491" stroke-linecap="round" stroke-linejoin="round" stroke-miterlimit="10" d="
		M39.38,37.359c-1.271,0-2.495,0.192-3.646,0.554c-0.359-5.609-4.536-10.169-9.96-11.146c0-0.005,0-0.02,0-0.02
		c-0.787-0.228-2.16-0.191-2.16-0.191c-6.708,0-12.146,5.438-12.146,12.148c0,1.357,0.223,2.659,0.633,3.879
		C5.426,42.621,0.024,48.042,0.024,54.73c0,6.709,5.438,12.146,12.146,12.146c2.249,0,4.354-0.612,6.157-1.675
		c0.385,0.555,0.831,1.062,1.3,1.545c0.107,0.107,0.212,0.214,0.322,0.32c0.479,0.45,0.983,0.875,1.528,1.246
		c0.087,0.062,0.182,0.106,0.271,0.168c0.501,0.318,1.024,0.602,1.568,0.845c0.011,0.009,0.018,0.017,0.033,0.021h-0.145v24.827
		h2.568h2.562V70.417c5.526-0.017,10.188-3.721,11.64-8.782c6.434-0.312,11.547-5.629,11.547-12.135
		C51.529,42.793,46.091,37.359,39.38,37.359z"/>
	
		<path fill="#77B6A4" stroke="#77B6A4" stroke-width="0.0491" stroke-linecap="round" stroke-linejoin="round" stroke-miterlimit="10" d="
		M178.344,37.359c-1.271,0-2.495,0.192-3.646,0.554c-0.363-5.609-4.536-10.169-9.958-11.146c0-0.005,0-0.02,0-0.02
		c-0.788-0.228-2.165-0.191-2.165-0.191c-6.707,0-12.146,5.438-12.146,12.148c0,1.357,0.226,2.659,0.635,3.879
		c-6.678,0.037-12.076,5.459-12.076,12.146c0,6.709,5.438,12.146,12.145,12.146c2.252,0,4.354-0.612,6.163-1.675
		c0.384,0.555,0.829,1.062,1.297,1.545c0.11,0.107,0.214,0.214,0.323,0.32c0.479,0.45,0.984,0.875,1.526,1.246
		c0.09,0.062,0.184,0.106,0.273,0.168c0.497,0.318,1.022,0.602,1.564,0.845c0.014,0.009,0.02,0.017,0.036,0.021h-0.146v24.827h2.567
		h2.566V70.417c5.523-0.017,10.184-3.721,11.638-8.782c6.431-0.312,11.546-5.629,11.546-12.135
		C190.491,42.793,185.055,37.359,178.344,37.359z"/>
	
		<path fill="#77B6A4" stroke="#77B6A4" stroke-width="0.0491" stroke-linecap="round" stroke-linejoin="round" stroke-miterlimit="10" d="
		M247.828,37.359c-1.271,0-2.498,0.192-3.646,0.554c-0.361-5.609-4.533-10.169-9.956-11.146c0-0.005,0-0.02,0-0.02
		c-0.787-0.228-2.164-0.191-2.164-0.191c-6.708,0-12.146,5.438-12.146,12.148c0,1.357,0.228,2.659,0.636,3.879
		c-6.678,0.037-12.078,5.459-12.078,12.146c0,6.709,5.438,12.146,12.146,12.146c2.251,0,4.354-0.612,6.161-1.675
		c0.385,0.555,0.829,1.062,1.3,1.545c0.106,0.107,0.212,0.214,0.321,0.32c0.479,0.45,0.982,0.875,1.526,1.246
		c0.09,0.062,0.185,0.106,0.272,0.168c0.497,0.318,1.021,0.602,1.565,0.845c0.013,0.009,0.021,0.017,0.035,0.021h-0.145v24.827
		h2.567h2.562V70.417c5.525-0.017,10.187-3.721,11.642-8.782c6.431-0.312,11.546-5.629,11.546-12.135
		C259.977,42.793,254.534,37.359,247.828,37.359z"/>
	<path fill="#77B6A4" stroke="#77B6A4" stroke-width="1.138" stroke-miterlimit="10" d="M388.234,38.474L335.029,1.036
		c-0.885-0.624-2.072-0.624-2.957,0.012l-20.733,14.75v-5.391h-12.725v14.441l-19.166,13.637c-1.15,0.817-1.421,2.42-0.601,3.568
		c0.819,1.152,2.415,1.425,3.568,0.603l0.974-0.688v51.802h100.342V41.57l1.556,1.097c0.451,0.315,0.96,0.467,1.474,0.467
		c0.804,0,1.596-0.378,2.095-1.087C389.668,40.886,389.389,39.29,388.234,38.474z"/>
</g>
</svg>
