<?xml version="1.0" encoding="utf-8"?>
<!-- Generator: Adobe Illustrator 15.0.2, SVG Export Plug-In . SVG Version: 6.00 Build 0)  -->
<!DOCTYPE svg PUBLIC "-//W3C//DTD SVG 1.1//EN" "http://www.w3.org/Graphics/SVG/1.1/DTD/svg11.dtd">
<svg version="1.1" id="Lager_1" xmlns="http://www.w3.org/2000/svg" xmlns:xlink="http://www.w3.org/1999/xlink" x="0px" y="0px"
	 width="389.891px" height="94.338px" viewBox="0 0 389.891 94.338" enable-background="new 0 0 389.891 94.338"
	 xml:space="preserve">
<g>
	
		<path fill="#77B6A4" stroke="#77B6A4" stroke-width="0.0491" stroke-linecap="round" stroke-linejoin="round" stroke-miterlimit="10" d="
		M108.861,37.359c-1.273,0-2.497,0.192-3.646,0.554c-0.356-5.609-4.534-10.169-9.96-11.146c0-0.005,0-0.02,0-0.02
		c-0.783-0.228-2.158-0.191-2.158-0.191c-6.709,0-12.146,5.438-12.146,12.148c0,1.357,0.222,2.659,0.632,3.879
		c-6.675,0.037-12.077,5.459-12.077,12.146c0,6.709,5.438,12.146,12.148,12.146c2.249,0,4.353-0.612,6.157-1.675
		c0.385,0.555,0.829,1.062,1.302,1.545c0.104,0.107,0.21,0.214,0.318,0.32c0.479,0.449,0.984,0.875,1.528,1.246
		c0.088,0.062,0.184,0.105,0.273,0.168c0.5,0.317,1.021,0.602,1.563,0.844c0.014,0.01,0.021,0.018,0.033,0.021h-0.145v24.827h2.566
		h2.564V70.417c5.524-0.018,10.186-3.721,11.641-8.781c6.433-0.312,11.545-5.63,11.545-12.136
		C121.008,42.793,115.571,37.359,108.861,37.359z"/>
	
		<path fill="#77B6A4" stroke="#77B6A4" stroke-width="0.0491" stroke-linecap="round" stroke-linejoin="round" stroke-miterlimit="10" d="
		M39.38,37.359c-1.271,0-2.495,0.192-3.646,0.554c-0.359-5.609-4.536-10.169-9.96-11.146c0-0.005,0-0.02,0-0.02
		c-0.787-0.228-2.16-0.191-2.16-0.191c-6.708,0-12.146,5.438-12.146,12.148c0,1.357,0.224,2.659,0.634,3.879
		C5.426,42.621,0.024,48.042,0.024,54.729c0,6.709,5.438,12.146,12.146,12.146c2.249,0,4.354-0.611,6.157-1.675
		c0.385,0.555,0.831,1.062,1.3,1.545c0.107,0.106,0.212,0.214,0.322,0.319c0.479,0.451,0.983,0.875,1.528,1.246
		c0.087,0.062,0.182,0.106,0.271,0.168c0.501,0.318,1.024,0.603,1.568,0.846c0.011,0.009,0.018,0.017,0.033,0.021h-0.146v24.826
		h2.568h2.562V70.417c5.526-0.018,10.188-3.721,11.641-8.781c6.434-0.312,11.547-5.63,11.547-12.136
		C51.529,42.793,46.091,37.359,39.38,37.359z"/>
	
		<path fill="#77B6A4" stroke="#77B6A4" stroke-width="0.0491" stroke-linecap="round" stroke-linejoin="round" stroke-miterlimit="10" d="
		M178.344,37.359c-1.271,0-2.495,0.192-3.646,0.554c-0.363-5.609-4.536-10.169-9.958-11.146c0-0.005,0-0.02,0-0.02
		c-0.788-0.228-2.165-0.191-2.165-0.191c-6.707,0-12.146,5.438-12.146,12.148c0,1.357,0.226,2.659,0.635,3.879
		c-6.678,0.037-12.076,5.459-12.076,12.146c0,6.709,5.438,12.146,12.145,12.146c2.252,0,4.354-0.612,6.163-1.675
		c0.385,0.555,0.829,1.062,1.297,1.545c0.11,0.107,0.215,0.214,0.323,0.32c0.479,0.449,0.984,0.875,1.526,1.246
		c0.09,0.062,0.184,0.105,0.272,0.168c0.497,0.317,1.022,0.602,1.564,0.844c0.014,0.01,0.02,0.018,0.036,0.021h-0.146v24.827h2.567
		h2.565V70.417c5.523-0.018,10.185-3.721,11.639-8.781c6.431-0.312,11.546-5.63,11.546-12.136
		C190.491,42.793,185.055,37.359,178.344,37.359z"/>
	
		<path fill="#77B6A4" stroke="#77B6A4" stroke-width="0.0491" stroke-linecap="round" stroke-linejoin="round" stroke-miterlimit="10" d="
		M247.828,37.359c-1.271,0-2.498,0.192-3.646,0.554c-0.361-5.609-4.533-10.169-9.956-11.146c0-0.005,0-0.02,0-0.02
		c-0.787-0.228-2.164-0.191-2.164-0.191c-6.708,0-12.146,5.438-12.146,12.148c0,1.357,0.229,2.659,0.637,3.879
		c-6.679,0.037-12.078,5.459-12.078,12.146c0,6.709,5.438,12.146,12.146,12.146c2.251,0,4.354-0.612,6.161-1.675
		c0.385,0.555,0.829,1.062,1.3,1.545c0.106,0.107,0.212,0.214,0.321,0.32c0.479,0.449,0.981,0.875,1.526,1.246
		c0.09,0.062,0.185,0.105,0.271,0.168c0.497,0.317,1.021,0.602,1.565,0.844c0.013,0.01,0.021,0.018,0.034,0.021h-0.145v24.827h2.567
		h2.562V70.417c5.525-0.018,10.188-3.721,11.642-8.781c6.432-0.312,11.547-5.63,11.547-12.136
		C259.977,42.793,254.534,37.359,247.828,37.359z"/>
	<path fill="#77B6A4" d="M388.234,38.474L335.029,1.036c-0.885-0.624-2.072-0.624-2.957,0.012l-20.733,14.75v-5.391h-12.725v14.441
		l-19.166,13.637c-1.15,0.817-1.421,2.42-0.601,3.568c0.818,1.152,2.415,1.425,3.567,0.603l0.975-0.688v51.802h100.342V41.57
		l1.556,1.097c0.451,0.315,0.96,0.467,1.475,0.467c0.804,0,1.596-0.378,2.095-1.087C389.668,40.886,389.389,39.29,388.234,38.474z"
		/>
</g>
</svg>
