<?xml version="1.0" encoding="utf-8"?>
<!-- Generator: Adobe Illustrator 15.0.2, SVG Export Plug-In . SVG Version: 6.00 Build 0)  -->
<!DOCTYPE svg PUBLIC "-//W3C//DTD SVG 1.1//EN" "http://www.w3.org/Graphics/SVG/1.1/DTD/svg11.dtd">
<svg version="1.1" id="Lager_1" xmlns="http://www.w3.org/2000/svg" xmlns:xlink="http://www.w3.org/1999/xlink" x="0px" y="0px"
	 width="251.897px" height="161.051px" viewBox="0 0 251.897 161.051" enable-background="new 0 0 251.897 161.051"
	 xml:space="preserve">
<g>
	<g>
		<g>
			<g>
				<path fill="#55B270" d="M25.95,154.771c0.026-2.258,0.019-15.434,2.018-19.697c4.915-10.507,21.172-10.562,21.172-10.562
					s2.534,22.258-13.863,25.172c-6.416,1.136-6.076,1.17-6.681,5.322l0.021,4.872l-2.646,0.011L25.95,154.771z"/>
			</g>
		</g>
		<g>
			<g>
				<path fill="#44A260" d="M23.525,146.128c-0.035-2.247-0.128-15.428-2.151-19.68c-4.994-10.472-21.255-10.413-21.255-10.413
					s-2.373,22.283,14.05,25.072c6.422,1.093,6.082,1.13,6.718,5.275l0.05,13.519l2.645-0.009L23.525,146.128z"/>
			</g>
			<g>
				<path fill="#44A260" d="M23.436,142.192c-0.146-4.901-0.598-12.663-2.062-15.742c-4.994-10.472-21.255-10.413-21.255-10.413"/>
			</g>
		</g>
		<path fill="#925EA0" d="M37.615,89.108v16.52c0,7.368-5.225,13.343-11.665,13.343l0,0c-6.441,0-11.664-5.975-11.664-13.343v-16.52
			l11.664,8.906L37.615,89.108z"/>
		<path fill="#834A94" d="M25.95,118.969L25.95,118.969c-6.441,0-11.664-5.975-11.664-13.343v-16.52l11.664,8.908V118.969z"/>
	</g>
	<g>
		<path fill="#0B7E3A" d="M173.791,147.353v-8.636c0-1.994-1.619-3.614-3.616-3.614h-49.549c-1.031,0-1.663,0-2.262,0
			c-6.062,0-9.49,0.827-13.749,6.155l-0.409,0.426c-1.373,1.37-2.456,1.728-3.966,1.728H85.461v-0.701c0-0.469-0.38-0.85-0.852-0.85
			l0,0c-0.47,0-0.853,0.381-0.853,0.85v4.646v4.643c0,0.472,0.383,0.852,0.853,0.852l0,0c0.472,0,0.852-0.38,0.852-0.852v-0.7
			h14.779c1.51,0,2.593,0.355,3.966,1.729l0.409,0.422c4.259,5.329,7.688,6.159,13.749,6.159c0.599,0,1.229,0,2.262,0h49.549
			c1.997,0,3.616-1.62,3.616-3.617V147.353"/>
		<path fill="#0B6631" d="M173.791,147.353v-8.636c0-1.994-1.619-3.614-3.616-3.614h-49.549c-1.031,0-1.663,0-2.262,0
			c-6.062,0-9.49,0.827-13.749,6.155l-0.409,0.426c-1.373,1.37-2.456,1.728-3.966,1.728H85.461v-0.701c0-0.469-0.38-0.85-0.852-0.85
			l0,0c-0.47,0-0.853,0.381-0.853,0.85v4.646L173.791,147.353L173.791,147.353z"/>
		
			<rect x="121.014" y="137.819" fill="#FFFFFF" stroke="#FFFFFF" stroke-width="0.4589" stroke-linecap="round" stroke-linejoin="round" stroke-miterlimit="10" width="13.171" height="19.062"/>
		
			<rect x="121.014" y="137.819" fill="#ECECED" stroke="#ECECED" stroke-width="0.4589" stroke-linecap="round" stroke-linejoin="round" stroke-miterlimit="10" width="13.171" height="9.531"/>
	</g>
	<g>
		<path fill="#0B7E3A" d="M227.254,161.051h8.633c1.996,0,3.617-1.616,3.617-3.613v-49.551c0-1.029,0-1.662,0-2.263
			c0-6.061-0.829-9.49-6.158-13.749l-0.424-0.409c-1.371-1.372-1.727-2.455-1.727-3.966V72.722h0.701c0.469,0,0.85-0.381,0.85-0.853
			l0,0c0-0.468-0.381-0.851-0.85-0.851h-4.646h-4.643c-0.474,0-0.854,0.383-0.854,0.851l0,0c0,0.472,0.38,0.853,0.854,0.853h0.698
			V87.5c0,1.511-0.354,2.594-1.729,3.966l-0.422,0.409c-5.329,4.259-6.159,7.688-6.159,13.749c0,0.601,0,1.23,0,2.263v49.551
			c0,1.997,1.62,3.613,3.617,3.613H227.254"/>
		<path fill="#0B6631" d="M227.254,161.051h8.633c1.996,0,3.617-1.616,3.617-3.613v-49.551c0-1.029,0-1.662,0-2.263
			c0-6.061-0.829-9.49-6.158-13.749l-0.424-0.409c-1.371-1.372-1.727-2.455-1.727-3.966V72.722h0.701c0.469,0,0.85-0.381,0.85-0.853
			l0,0c0-0.468-0.381-0.851-0.85-0.851h-4.646L227.254,161.051L227.254,161.051z"/>
		
			<rect x="217.724" y="108.275" fill="#FFFFFF" stroke="#FFFFFF" stroke-width="0.4589" stroke-linecap="round" stroke-linejoin="round" stroke-miterlimit="10" width="19.062" height="13.17"/>
		
			<rect x="227.254" y="108.275" fill="#ECECED" stroke="#ECECED" stroke-width="0.4589" stroke-linecap="round" stroke-linejoin="round" stroke-miterlimit="10" width="9.531" height="13.17"/>
	</g>
	<g>
		<g>
			<path fill="#55B270" d="M228.564,65.662c0.028-2.256,0.021-15.431,2.02-19.697c4.915-10.507,21.172-10.562,21.172-10.562
				s2.534,22.257-13.864,25.172c-6.416,1.134-6.077,1.169-6.68,5.323l0.021,4.872l-2.646,0.01L228.564,65.662z"/>
		</g>
	</g>
	<g>
		<g>
			<path fill="#44A260" d="M226.14,57.024c-0.036-2.247-0.128-15.43-2.15-19.683c-4.994-10.472-21.256-10.412-21.256-10.412
				s-2.373,22.282,14.051,25.071c6.423,1.094,6.082,1.13,6.718,5.278l0.049,13.516l2.645-0.009L226.14,57.024z"/>
		</g>
		<g>
			<path fill="#44A260" d="M226.051,53.085c-0.146-4.898-0.598-12.663-2.062-15.741c-4.994-10.473-21.256-10.413-21.256-10.413"/>
		</g>
	</g>
	<path fill="#925EA0" d="M240.229,0.001v16.521c0,7.367-5.223,13.342-11.665,13.342l0,0c-6.439,0-11.665-5.975-11.665-13.342V0.001
		l11.665,8.908L240.229,0.001z"/>
	<path fill="#834A94" d="M228.564,29.863L228.564,29.863c-6.439,0-11.665-5.974-11.665-13.342V0l11.665,8.908V29.863z"/>
</g>
<g>
	<g>
		
			<path fill="none" stroke="#F5F5F6" stroke-width="1.0994" stroke-linecap="round" stroke-linejoin="round" stroke-miterlimit="10" d="
			M121.682,65.409c0,0-0.272,12.531,6.586,23.021"/>
	</g>
	<g>
		
			<path fill="none" stroke="#F5F5F6" stroke-width="1.0994" stroke-linecap="round" stroke-linejoin="round" stroke-miterlimit="10" d="
			M131.003,65.237c0,0-0.526,10.096,4.311,18.975"/>
	</g>
	<g>
		
			<path fill="none" stroke="#F5F5F6" stroke-width="1.0994" stroke-linecap="round" stroke-linejoin="round" stroke-miterlimit="10" d="
			M140.024,66.995c0,0-0.686,7.41,2.613,14.081"/>
	</g>
	<g>
		
			<path fill="none" stroke="#F5F5F6" stroke-width="1.0994" stroke-linecap="round" stroke-linejoin="round" stroke-miterlimit="10" d="
			M149.074,71.086c0,0-0.601,3.69,0.822,7.148"/>
	</g>
	<g>
		
			<path fill="none" stroke="#F5F5F6" stroke-width="1.0994" stroke-linecap="round" stroke-linejoin="round" stroke-miterlimit="10" d="
			M112.134,85.642c4.742-6.757,15.883-11.499,28.867-11.499c5.854,0,11.334,0.964,16.021,2.643"/>
	</g>
	<g>
		
			<path fill="#92AEAB" stroke="#92AEAB" stroke-width="1.0994" stroke-linecap="round" stroke-linejoin="round" stroke-miterlimit="10" d="
			M113.261,66.208c0,0-13.715,6.561-13.311,20.437c8.312,11.116,23.132,7.724,23.132,7.724
			C113.879,81.783,113.261,66.208,113.261,66.208z"/>
	</g>
	<g>
		
			<path fill="#92AEAB" stroke="#92AEAB" stroke-width="1.0994" stroke-linecap="round" stroke-linejoin="round" stroke-miterlimit="10" d="
			M155.746,76.208c12.577,3.235,15.194-7.083,15.194-7.083S161.355,64.497,155.746,76.208z"/>
	</g>
	<g>
		<g>
			<path fill="#6E969A" d="M155.724,76.337c12.923,1.284,11.837,11.875,11.837,11.875S156.967,89.266,155.724,76.337z"/>
			<path fill="#6E969A" d="M155.177,76.171c0.016-0.056,0.045-0.349,0.202-0.382c0.158-0.031,0.398,0,0.398,0
				c4.406,0.438,7.721,1.98,9.848,4.585c2.892,3.54,2.499,7.718,2.479,7.896c-0.024,0.26-0.23,0.465-0.49,0.489
				c-0.012,0.001-0.239,0.021-0.622,0.021c-2.492,0-10.711-0.893-11.815-12.392C155.177,76.393,155.161,76.228,155.177,76.171z
				 M156.347,76.961c1.264,9.937,8.438,10.724,10.646,10.724c0.015,0,0.027,0,0.044,0C167.07,85.701,166.505,78.284,156.347,76.961z
				"/>
		</g>
	</g>
	<g>
		<g>
			<path fill="#6E969A" d="M116.405,81.357c1.457,4.204,3.582,8.772,6.678,13.009c0,0-14.493,3.321-22.854-7.362L116.405,81.357z"/>
			<path fill="#6E969A" d="M116.925,81.178c1.677,4.841,3.897,9.167,6.602,12.863c0.11,0.149,0.138,0.345,0.072,0.52
				c-0.062,0.173-0.212,0.303-0.394,0.344c-0.09,0.021-2.229,0.502-5.353,0.502c-5.358,0-12.847-1.397-18.062-8.062
				c0,0-0.289-0.394-0.326-0.431c-0.036-0.037-0.052-0.187-0.052-0.187l0.63-0.241l16.723-5.828L116.925,81.178z M101.148,87.267
				c4.916,5.8,11.758,7.039,16.707,7.039c1.874,0,3.396-0.187,4.275-0.322c-2.443-3.489-4.479-7.494-6.062-11.924L101.148,87.267z"
				/>
		</g>
	</g>
	
		<circle fill="#FFFFFF" stroke="#FFFFFF" stroke-width="1.0863" stroke-linecap="round" stroke-linejoin="round" stroke-miterlimit="10" cx="107.715" cy="78.65" r="2.675"/>
	<circle fill="#1D1A1D" cx="107.715" cy="78.65" r="1.412"/>
</g>
<g>
	<g>
		<path fill="#FFFFFF" d="M87.556,72.284l-2.762,3.212l-5.114,5.952l-0.433,0.527l0.479,6.09c0.187,2.35-1.333,4.387-3.392,4.549
			l0,0c-2.057,0.162-3.875-1.612-4.06-3.961l-0.138-1.72l-0.099-1.24l-1.242,0.089l-1.721,0.124
			c-2.352,0.169-4.377-1.36-4.525-3.419l0,0c-0.146-2.058,1.637-3.865,3.987-4.036l6.093-0.439l0.457-0.507l5.115-5.949l2.761-3.214
			L87.556,72.284z"/>
	</g>
	<g>
		
			<path fill="none" stroke="#CBCACB" stroke-width="0.5529" stroke-linecap="round" stroke-linejoin="round" stroke-miterlimit="10" d="
			M64.554,82.486"/>
	</g>
	<g>
		
			<path fill="#C89D64" stroke="#C89D64" stroke-width="0.5529" stroke-linecap="round" stroke-linejoin="round" stroke-miterlimit="10" d="
			M116.486,41.653c0.795-0.926,1.729-1.657,2.744-2.199c-0.623-1.661-1.609-3.136-2.975-4.307l-0.896-0.771
			c-5.411-4.648-14.657-2.767-20.652,4.209c-2.998,3.488-4.614,7.588-4.806,11.397c0,0-0.111,10.38-5.549,16.704l4.618,3.969
			c5.438-6.324,15.684-7.993,15.684-7.993c3.734-0.763,7.547-2.978,10.545-6.465c0.532-0.62,1.021-1.261,1.467-1.916
			C113.465,50.773,113.312,45.346,116.486,41.653z"/>
	</g>
	<g>
		
			<path fill="#BC8852" stroke="#BC8852" stroke-width="0.5529" stroke-linecap="round" stroke-linejoin="round" stroke-miterlimit="10" d="
			M116.486,41.653c0.795-0.926,1.729-1.657,2.744-2.199c-0.623-1.661-1.609-3.136-2.975-4.307L86.663,68.669l2.31,1.983
			c5.438-6.324,15.684-7.993,15.684-7.993c3.734-0.763,7.547-2.977,10.545-6.465c0.532-0.62,1.021-1.261,1.467-1.916
			C113.465,50.773,113.312,45.346,116.486,41.653z"/>
	</g>
</g>
<g>
	<path fill="#FFFFFF" d="M122.858,50.147l1.824-3.627l3.989,0.763l1.854-3.645l3.991,0.765l1.798-3.614l3.991,0.763l1.827-3.629
		l3.966,0.774c2.034,7.403,0.405,15.979-5.206,18.744C135.282,60.204,127.49,56.271,122.858,50.147z"/>
	<path fill="#FAF9F8" d="M140.894,57.441c-5.609,2.765-13.401-1.17-18.035-7.294l1.824-3.627l3.989,0.763l1.854-3.645l3.991,0.765
		L140.894,57.441z"/>
</g>
<g>
	<g>
		<g>
			<path fill="#E2E481" d="M170.797,58.579c-2.524-1.471-4.323-5.25-4.323-9.679c0-4.411,1.782-8.178,4.294-9.66h-9.187h-9.187
				c2.512,1.482,4.294,5.249,4.294,9.66c0,4.429-1.798,8.208-4.323,9.679H170.797z"/>
		</g>
	</g>
	<g>
		<g>
			<path fill="#429D35" d="M161.762,34.395"/>
		</g>
	</g>
	<g>
		<g>
			<path fill="#CBDA84" d="M161.582,58.435h9.215c-2.524-1.474-4.323-5.104-4.323-9.532c0-4.411,1.782-8.073,4.294-9.559h-9.187
				v18.771L161.582,58.435L161.582,58.435z"/>
		</g>
	</g>
	<g>
		<g>
			<path fill="#432B1E" stroke="#432B1E" stroke-width="0.2266" stroke-miterlimit="10" d="M161.979,34.31
				c0-2.513,1.938-4.553,4.49-4.553v1.314c-1.93,0-3.721,1.348-3.721,3.234L161.979,34.31L161.979,34.31z"/>
		</g>
	</g>
	<g>
		<g>
			<g>
				<g>
					<path fill="#0B6631" d="M160.553,34.282c0.806-1.4,0.889-2.431,0.889-2.431c0.638-5.55-6.761-6.867-6.761-6.867
						s-1.989,7.247,3.295,9.057C157.976,34.04,158.941,34.408,160.553,34.282z"/>
				</g>
			</g>
		</g>
		<g>
			<g>
				<g>
					<path fill="#0B7E3A" d="M154.681,24.984c0,0-1.989,7.247,3.295,9.057c0,0,0.967,0.367,2.577,0.241"/>
				</g>
			</g>
		</g>
	</g>
	<g>
		<g>
			<g>
				
					<ellipse fill="#432B1E" stroke="#432B1E" stroke-width="0.2266" stroke-miterlimit="10" cx="159.919" cy="48.853" rx="0.474" ry="1.075"/>
			</g>
		</g>
		<g>
			<g>
				
					<ellipse fill="#432B1E" stroke="#432B1E" stroke-width="0.2266" stroke-miterlimit="10" cx="163.432" cy="48.853" rx="0.474" ry="1.075"/>
			</g>
		</g>
	</g>
	<g>
		<g>
			
				<path fill="#40A635" stroke="#40A635" stroke-width="0.1933" stroke-linecap="round" stroke-linejoin="round" stroke-miterlimit="10" d="
				M170.938,39.241c0-1.877-1.729-3.749-3.863-3.749c-0.578,0-1.128,0.111-1.621,0.312l-1.003,0.359
				c-1.688,0.55-2.748,0.55-2.748,0.55h-0.016c0,0-1.062,0-2.749-0.55l-1.001-0.359c-0.492-0.199-1.043-0.312-1.622-0.312
				c-2.135,0-3.863,1.872-3.863,3.749H170.938z"/>
		</g>
	</g>
	<g>
		<g>
			
				<path fill="#40A635" stroke="#40A635" stroke-width="0.1931" stroke-linecap="round" stroke-linejoin="round" stroke-miterlimit="10" d="
				M170.917,58.579c0,1.874-1.729,4.916-3.858,4.916c0,0-1.009-0.012-2.621-0.497c-1.385-0.418-2.687-0.405-2.745-0.405h-0.101
				c-0.06,0-1.36-0.013-2.745,0.405c-1.611,0.485-2.621,0.497-2.621,0.497c-2.131,0-3.858-3.042-3.858-4.916H170.917z"/>
		</g>
	</g>
</g>
<g>
	
		<path fill="#BD1B2C" stroke="#BD1B2C" stroke-width="0.2202" stroke-linecap="round" stroke-linejoin="round" stroke-miterlimit="10" d="
		M137.678,11.018l-0.142-0.079c-0.667-0.364-1.415-0.558-1.796-0.558c-0.431,0-0.821,0.032-1.188,0.171l-0.742,0.248
		c-0.984,0.298-1.684,0.315-1.935,0.328c-0.251-0.013-0.946-0.03-1.934-0.328l-0.742-0.248c-0.366-0.139-0.759-0.171-1.188-0.171
		c-0.382,0-1.128,0.19-1.795,0.558l-0.142,0.079c-3.586,2.029-6.007,5.882-6.007,10.298c0,4.676,2.715,8.718,6.651,10.637
		l-0.001-0.006c0.302,0.167,0.625,0.265,0.96,0.265c0,0,0.609,0.092,2.034-0.386c1.064-0.356,2.087-0.315,2.132-0.315h0.061
		c0.046,0,1.065-0.041,2.132,0.315c1.424,0.478,2.035,0.386,2.035,0.386c0.335,0,0.656-0.098,0.96-0.265l-0.001,0.006
		c3.938-1.919,6.651-5.961,6.651-10.637C143.685,16.899,141.264,13.047,137.678,11.018z"/>
	<g>
		<g>
			<path fill="#429D35" d="M131.979,9.489"/>
		</g>
	</g>
	<g>
		<g>
			<path fill="#432B1E" stroke="#432B1E" stroke-width="0.1759" stroke-miterlimit="10" d="M132.147,9.42
				c0-1.944,1.508-3.531,3.487-3.531V6.91c-1.498,0-2.89,1.047-2.89,2.512L132.147,9.42L132.147,9.42z"/>
		</g>
	</g>
	<g>
		<g>
			<g>
				<g>
					<path fill="#0B6631" d="M131.04,9.402c0.626-1.088,0.688-1.889,0.688-1.889c0.494-4.311-5.25-5.331-5.25-5.331
						s-1.544,5.626,2.56,7.029C129.039,9.213,129.789,9.499,131.04,9.402z"/>
				</g>
			</g>
		</g>
		<g>
			<g>
				<g>
					<path fill="#0B7E3A" d="M126.481,2.184c0,0-1.544,5.626,2.56,7.029c0,0,0.75,0.285,2.001,0.188"/>
				</g>
			</g>
		</g>
	</g>
	
		<path fill="#B11D30" stroke="#B11D30" stroke-width="0.2202" stroke-linecap="round" stroke-linejoin="round" stroke-miterlimit="10" d="
		M131.906,31.506h-0.061c-0.045,0-1.065-0.041-2.132,0.316c-1.424,0.477-2.034,0.386-2.034,0.386c-0.335,0-0.658-0.098-0.96-0.265
		l0.001,0.006c-3.938-1.919-6.651-5.961-6.651-10.637c0-4.416,2.421-8.269,6.007-10.3l0.142-0.078
		c0.667-0.363,1.414-0.557,1.795-0.557c0.429,0,0.821,0.032,1.188,0.17l0.74,0.248c0.987,0.298,1.685,0.316,1.936,0.329
		L131.906,31.506z"/>
	<circle fill="#5F1B29" stroke="#5F1B29" stroke-width="0.0815" stroke-miterlimit="10" cx="131.837" cy="13.066" r="1.962"/>
	<circle fill="#5F1B29" stroke="#5F1B29" stroke-width="0.0815" stroke-miterlimit="10" cx="137.781" cy="18.153" r="1.962"/>
	<circle fill="#5F1B29" stroke="#5F1B29" stroke-width="0.0815" stroke-miterlimit="10" cx="140.333" cy="19.189" r="1.962"/>
	<circle fill="#5F1B29" stroke="#5F1B29" stroke-width="0.0815" stroke-miterlimit="10" cx="141.72" cy="21.315" r="1.962"/>
	<circle fill="#5F1B29" stroke="#5F1B29" stroke-width="0.0815" stroke-miterlimit="10" cx="134.681" cy="15.848" r="3.34"/>
	<path fill="#5F1B29" stroke="#5F1B29" stroke-width="0.0815" stroke-miterlimit="10" d="M143.685,21.315
		c0-4.416-2.42-8.269-6.007-10.298l-0.142-0.079c-0.667-0.364-1.415-0.558-1.796-0.558c-0.431,0-0.821,0.032-1.188,0.171
		l-0.742,0.247c-0.984,0.299-1.684,0.316-1.935,0.329L143.685,21.315z"/>
	<path fill="#BD1B2C" stroke="#BD1B2C" stroke-width="0.0815" stroke-miterlimit="10" d="M126.722,31.951"/>
	
		<path fill="#511922" stroke="#511922" stroke-width="0.2202" stroke-linecap="round" stroke-linejoin="round" stroke-miterlimit="10" d="
		M143.685,21.315c0-1.864-0.433-3.627-1.198-5.195c-1.053-2.146-2.735-3.929-4.809-5.104l-0.142-0.078
		c-0.667-0.364-1.415-0.558-1.796-0.558c-0.431,0-0.821,0.032-1.188,0.171l-0.742,0.247L143.685,21.315z"/>
</g>
<g>
	<g>
		<g>
			<g>
				<path fill="#432B1E" stroke="#432B1E" stroke-width="0.2316" stroke-miterlimit="10" d="M80.41,36.017
					c1.632-1.979,4.487-2.327,6.501-0.669l-0.854,1.034c-1.521-1.255-3.812-1.354-5.038,0.137L80.41,36.017z"/>
			</g>
		</g>
		<g>
			<g>
				<g>
					<g>
						<path fill="#0B6631" d="M79.303,35.068c1.546-0.579,2.281-1.339,2.281-1.339c4.11-3.963-0.866-9.813-0.866-9.813
							s-6.28,4.423-3.291,9.285C77.427,33.201,77.949,34.12,79.303,35.068z"/>
					</g>
				</g>
			</g>
			<g>
				<g>
					<g>
						<path fill="#0B7E3A" d="M80.717,23.915c0,0-6.28,4.423-3.291,9.285c0,0,0.521,0.92,1.876,1.867"/>
					</g>
				</g>
			</g>
		</g>
	</g>
	
		<path fill="#40A635" stroke="#40A635" stroke-width="0.1298" stroke-linecap="round" stroke-linejoin="round" stroke-miterlimit="10" d="
		M58.743,63.187c2.908,2.396,6.486,3.604,9.847,2.634c7.998-2.312,8.224-11.869,8.224-11.869c0.275-4.299,2.299-6.875,3.458-8.313
		c2.52-3.054,2.075-6.043-0.396-8.08l0,0l0,0c-2.469-2.033-5.489-1.897-8.007,1.152c-1.19,1.414-3.337,3.89-7.502,4.979
		c0,0-9.34,2.042-10.084,10.335C53.97,57.506,55.835,60.788,58.743,63.187z"/>
	
		<circle fill="#432B1E" stroke="#432B1E" stroke-width="0.039" stroke-linecap="round" stroke-linejoin="round" stroke-miterlimit="10" cx="73.627" cy="60.264" r="1.386"/>
	
		<path opacity="0.7" fill="#389136" stroke="#0E8C38" stroke-width="0.1298" stroke-linecap="round" stroke-linejoin="round" stroke-miterlimit="10" enable-background="new    " d="
		M58.743,63.187c-2.908-2.397-4.772-5.681-4.46-9.163c0.745-8.293,10.084-10.335,10.084-10.335c4.166-1.092,6.312-3.564,7.502-4.979
		c2.519-3.053,5.538-3.188,8.007-1.152l0,0l0,0L58.743,63.187z"/>
	
		<path fill="#432B1E" stroke="#432B1E" stroke-width="0.1298" stroke-linecap="round" stroke-linejoin="round" stroke-miterlimit="10" d="
		M58.743,63.187c2.908,2.396,6.486,3.604,9.847,2.634c2.965-0.856,4.86-2.707,6.074-4.698L58.743,63.187"/>
	
		<path fill="#40A635" stroke="#40A635" stroke-width="0.1298" stroke-linecap="round" stroke-linejoin="round" stroke-miterlimit="10" d="
		M79.877,37.558"/>
	
		<circle fill="#432B1E" stroke="#432B1E" stroke-width="0.0683" stroke-linecap="round" stroke-linejoin="round" stroke-miterlimit="10" cx="59.544" cy="62.038" r="1.426"/>
	
		<circle fill="#432B1E" stroke="#432B1E" stroke-width="0.0683" stroke-linecap="round" stroke-linejoin="round" stroke-miterlimit="10" cx="61.268" cy="62.193" r="1.427"/>
	
		<circle fill="#432B1E" stroke="#432B1E" stroke-width="0.0683" stroke-linecap="round" stroke-linejoin="round" stroke-miterlimit="10" cx="61.92" cy="60.721" r="1.427"/>
	
		<circle fill="#432B1E" stroke="#432B1E" stroke-width="0.1298" stroke-linecap="round" stroke-linejoin="round" stroke-miterlimit="10" cx="66.788" cy="61.751" r="2.711"/>
	
		<circle fill="#432B1E" stroke="#432B1E" stroke-width="0.1298" stroke-linecap="round" stroke-linejoin="round" stroke-miterlimit="10" cx="70.211" cy="60.35" r="2.711"/>
	
		<circle fill="#432B1E" stroke="#432B1E" stroke-width="0.039" stroke-linecap="round" stroke-linejoin="round" stroke-miterlimit="10" cx="63.677" cy="59.656" r="1.385"/>
	
		<circle fill="#432B1E" stroke="#432B1E" stroke-width="0.039" stroke-linecap="round" stroke-linejoin="round" stroke-miterlimit="10" cx="63.631" cy="61.888" r="1.386"/>
	
		<path fill="#432B1E" stroke="#432B1E" stroke-width="0.1298" stroke-linecap="round" stroke-linejoin="round" stroke-miterlimit="10" d="
		M58.743,63.188"/>
	
		<path fill="#392317" stroke="#392317" stroke-width="0.1298" stroke-linecap="round" stroke-linejoin="round" stroke-miterlimit="10" d="
		M58.743,63.187c2.908,2.396,6.486,3.604,9.847,2.634c1.146-0.33,2.132-0.812,2.979-1.39L58.743,63.187z"/>
</g>
</svg>
