<?xml version="1.0" encoding="utf-8"?>
<!-- Generator: Adobe Illustrator 15.0.2, SVG Export Plug-In . SVG Version: 6.00 Build 0)  -->
<!DOCTYPE svg PUBLIC "-//W3C//DTD SVG 1.1//EN" "http://www.w3.org/Graphics/SVG/1.1/DTD/svg11.dtd">
<svg version="1.1" id="Layer_1" xmlns="http://www.w3.org/2000/svg" xmlns:xlink="http://www.w3.org/1999/xlink" x="0px" y="0px"
	 width="127.127px" height="111.154px" viewBox="-19.207 53.691 127.127 111.154"
	 enable-background="new -19.207 53.691 127.127 111.154" xml:space="preserve">
<g>
	<g>
		
			<path fill="#E6332A" stroke="#E6332A" stroke-width="1.1541" stroke-linecap="round" stroke-linejoin="round" stroke-miterlimit="10" d="
			M44.63,164.268c36.778,0,62.713-22.635,62.713-58.172c0-35.539-27.494-51.828-62.713-51.828V164.268z"/>
	</g>
	<g>
		
			<path fill="#F08479" stroke="#F08479" stroke-width="0.5708" stroke-linecap="round" stroke-linejoin="round" stroke-miterlimit="10" d="
			M50.314,141.906c14.372-4.624,24.888-19.45,24.888-37.028c0-17.579-10.518-24.771-24.889-26.741L50.314,141.906z"/>
	</g>
	<g>
		
			<path fill="#FFE19D" stroke="#FFE19D" stroke-width="0.1268" stroke-linecap="round" stroke-linejoin="round" stroke-miterlimit="10" d="
			M74.354,80.158c1.52-1.79,1.785-4.059,0.59-5.074c-1.192-1.013-3.391-0.384-4.909,1.404c-1.521,1.789-2.209,4.56-1.017,5.574
			C70.213,83.076,72.836,81.948,74.354,80.158z"/>
	</g>
	<g>
		
			<path fill="#FFE19D" stroke="#FFE19D" stroke-width="0.1268" stroke-linecap="round" stroke-linejoin="round" stroke-miterlimit="10" d="
			M82.924,93.29c2.109-1.029,3.261-3.004,2.576-4.414c-0.687-1.404-2.953-1.709-5.062-0.679c-2.109,1.029-3.852,3.291-3.168,4.699
			C77.958,94.302,80.815,94.319,82.924,93.29z"/>
	</g>
	<g>
		
			<path fill="#FFE19D" stroke="#FFE19D" stroke-width="0.1268" stroke-linecap="round" stroke-linejoin="round" stroke-miterlimit="10" d="
			M84.813,109.142c2.346-0.05,4.217-1.356,4.188-2.925c-0.03-1.565-1.961-2.791-4.308-2.744c-2.348,0.049-4.879,1.372-4.846,2.936
			C79.88,107.978,82.465,109.19,84.813,109.142z"/>
	</g>
	<g>
		
			<path fill="#FFE19D" stroke="#FFE19D" stroke-width="0.1268" stroke-linecap="round" stroke-linejoin="round" stroke-miterlimit="10" d="
			M74.86,133.213c1.519,1.789,1.783,4.06,0.589,5.074c-1.191,1.014-3.39,0.383-4.909-1.406c-1.52-1.786-2.209-4.559-1.016-5.572
			C70.717,130.295,73.34,131.424,74.86,133.213z"/>
	</g>
	<g>
		
			<path fill="#FFE19D" stroke="#FFE19D" stroke-width="0.1268" stroke-linecap="round" stroke-linejoin="round" stroke-miterlimit="10" d="
			M82.924,119.325c2.109,1.03,3.261,3.004,2.576,4.414c-0.687,1.403-2.953,1.708-5.062,0.68c-2.109-1.029-3.852-3.293-3.168-4.7
			C77.958,118.313,80.815,118.295,82.924,119.325z"/>
	</g>
	<g>
		
			<path fill="#E6332A" stroke="#E6332A" stroke-width="1.1541" stroke-linecap="round" stroke-linejoin="round" stroke-miterlimit="10" d="
			M44.63,54.268c-37.326,0-63.26,16.289-63.26,51.828c0,35.537,25.934,58.172,63.26,58.172V54.268z"/>
	</g>
	<g>
		
			<path fill="#F08479" stroke="#F08479" stroke-width="0.5708" stroke-linecap="round" stroke-linejoin="round" stroke-miterlimit="10" d="
			M40.063,78.136c-15.332,1.97-26.553,9.163-26.553,26.741c0,17.578,11.219,32.404,26.552,37.028L40.063,78.136z"/>
	</g>
	<g>
		
			<path fill="#FFE19D" stroke="#FFE19D" stroke-width="0.1268" stroke-linecap="round" stroke-linejoin="round" stroke-miterlimit="10" d="
			M19.694,82.062c1.192-1.014,0.504-3.785-1.017-5.574c-1.519-1.788-3.717-2.417-4.909-1.404c-1.195,1.015-0.93,3.284,0.59,5.074
			C15.877,81.948,18.5,83.076,19.694,82.062z"/>
	</g>
	<g>
		
			<path fill="#FFE19D" stroke="#FFE19D" stroke-width="0.1268" stroke-linecap="round" stroke-linejoin="round" stroke-miterlimit="10" d="
			M11.442,92.896c0.684-1.408-1.059-3.67-3.168-4.699c-2.108-1.03-4.375-0.725-5.062,0.679C2.528,90.285,3.68,92.26,5.789,93.29
			C7.897,94.319,10.755,94.302,11.442,92.896z"/>
	</g>
	<g>
		
			<path fill="#FFE19D" stroke="#FFE19D" stroke-width="0.1268" stroke-linecap="round" stroke-linejoin="round" stroke-miterlimit="10" d="
			M8.864,106.409c0.033-1.563-2.498-2.887-4.846-2.936c-2.347-0.047-4.277,1.179-4.308,2.744c-0.028,1.568,1.843,2.875,4.188,2.925
			C6.248,109.19,8.833,107.978,8.864,106.409z"/>
	</g>
	<g>
		
			<path fill="#FFE19D" stroke="#FFE19D" stroke-width="0.1268" stroke-linecap="round" stroke-linejoin="round" stroke-miterlimit="10" d="
			M19.188,131.309c1.193,1.014,0.504,3.786-1.016,5.572c-1.52,1.789-3.718,2.42-4.909,1.406c-1.194-1.015-0.93-3.285,0.589-5.074
			C15.373,131.424,17.996,130.295,19.188,131.309z"/>
	</g>
	<g>
		
			<path fill="#FFE19D" stroke="#FFE19D" stroke-width="0.1268" stroke-linecap="round" stroke-linejoin="round" stroke-miterlimit="10" d="
			M11.442,119.718c0.684,1.407-1.059,3.671-3.168,4.7c-2.108,1.028-4.375,0.724-5.062-0.68c-0.685-1.41,0.467-3.384,2.576-4.414
			C7.897,118.295,10.755,118.313,11.442,119.718z"/>
	</g>
</g>
<g>
	
		<path fill="#009640" stroke="#009640" stroke-width="2.4584" stroke-linecap="round" stroke-linejoin="round" stroke-miterlimit="10" d="
		M27.675,22.591c13.615,0.097,20.505,4.647,20.505,4.647V13.831h2.004h2.003v16.298c0,0,8.901-8.466,22.517-8.564
		c-10.96,5.178-13.123,8.605-13.123,8.605s14.845,0.414,22.37,10.477c0,0-15.045-8.531-33.996-6.187
		C49.955,34.46,43.085,25.668,27.675,22.591z"/>
</g>
</svg>
