<?xml version="1.0" encoding="utf-8"?>
<!-- Generator: Adobe Illustrator 15.0.2, SVG Export Plug-In . SVG Version: 6.00 Build 0)  -->
<!DOCTYPE svg PUBLIC "-//W3C//DTD SVG 1.1//EN" "http://www.w3.org/Graphics/SVG/1.1/DTD/svg11.dtd">
<svg version="1.1" id="Lager_1" xmlns="http://www.w3.org/2000/svg" xmlns:xlink="http://www.w3.org/1999/xlink" x="0px" y="0px"
	 width="54.2px" height="42.879px" viewBox="0 0 54.2 42.879" enable-background="new 0 0 54.2 42.879" xml:space="preserve">
<g>
	
		<path fill="#AFD8E5" stroke="#AFD8E5" stroke-width="0.024" stroke-linecap="round" stroke-linejoin="round" stroke-miterlimit="10" d="
		M5.956,15.097c0.622,0,1.221,0.096,1.781,0.271c0.177-2.742,2.218-4.97,4.866-5.448c0-0.001,0-0.009,0-0.009
		c0.387-0.11,1.059-0.093,1.059-0.093c3.275,0,5.936,2.657,5.936,5.937c0,0.664-0.107,1.3-0.31,1.896
		c3.263,0.019,5.9,2.668,5.9,5.936c0,3.279-2.655,5.937-5.937,5.937c-1.102,0-2.127-0.299-3.01-0.817
		c-0.188,0.271-0.406,0.521-0.638,0.755c-0.053,0.055-0.104,0.104-0.156,0.157c-0.232,0.221-0.479,0.428-0.746,0.608
		c-0.043,0.028-0.09,0.053-0.135,0.082c-0.244,0.156-0.5,0.293-0.766,0.412c-0.006,0.004-0.01,0.01-0.017,0.012h0.068v12.135h-1.255
		h-1.254V31.258c-2.7-0.008-4.979-1.818-5.688-4.293c-3.145-0.152-5.644-2.75-5.644-5.93C0.017,17.755,2.676,15.097,5.956,15.097z"
		/>
	
		<path fill="#AFD8E5" stroke="#AFD8E5" stroke-width="0.024" stroke-linecap="round" stroke-linejoin="round" stroke-miterlimit="10" d="
		M34.956,5.292c0.622,0,1.221,0.096,1.781,0.271c0.177-2.742,2.218-4.97,4.866-5.448c0-0.001,0-0.009,0-0.009
		c0.387-0.11,1.059-0.093,1.059-0.093c3.275,0,5.936,2.657,5.936,5.937c0,0.664-0.107,1.3-0.31,1.896
		c3.263,0.019,5.9,2.668,5.9,5.936c0,3.279-2.655,5.937-5.937,5.937c-1.102,0-2.127-0.299-3.01-0.819
		c-0.188,0.271-0.406,0.519-0.638,0.755c-0.053,0.053-0.104,0.105-0.156,0.157c-0.232,0.221-0.479,0.428-0.746,0.609
		c-0.043,0.029-0.09,0.054-0.135,0.082c-0.244,0.157-0.5,0.294-0.766,0.413c-0.006,0.004-0.01,0.009-0.017,0.011h0.068v12.133
		h-1.255h-1.254V21.452c-2.7-0.008-4.979-1.819-5.688-4.293c-3.145-0.153-5.644-2.75-5.644-5.93
		C29.017,7.95,31.676,5.292,34.956,5.292z"/>
</g>
</svg>
