<?xml version="1.0" encoding="utf-8"?>
<!-- Generator: Adobe Illustrator 17.1.0, SVG Export Plug-In . SVG Version: 6.00 Build 0)  -->
<!DOCTYPE svg PUBLIC "-//W3C//DTD SVG 1.1//EN" "http://www.w3.org/Graphics/SVG/1.1/DTD/svg11.dtd">
<svg version="1.1" id="Layer_1" xmlns="http://www.w3.org/2000/svg" xmlns:xlink="http://www.w3.org/1999/xlink" x="0px" y="0px"
	 width="144.824px" height="422.006px" viewBox="0 0 144.824 422.006" enable-background="new 0 0 144.824 422.006"
	 xml:space="preserve">
<path stroke="#000000" stroke-width="2.6321" stroke-linecap="round" stroke-linejoin="round" stroke-miterlimit="10" d="
	M111.608,420.69c-3.186,0-5.769-2.584-5.769-5.77v-39.773c0-3.186,2.583-5.769,5.769-5.769h-0.395c3.187,0,5.769,2.583,5.769,5.769
	v39.773c0,3.186-2.583,5.77-5.769,5.77H111.608z"/>
<g>
	<g>
		<g>
			
				<line fill="none" stroke="#2C9B5C" stroke-width="5" stroke-linecap="round" stroke-linejoin="round" stroke-miterlimit="10" x1="72.24" y1="232.542" x2="72.24" y2="179.481"/>
		</g>
	</g>
	<g>
		<g>
			<g>
				
					<polygon fill="#2C9B5C" stroke="#2C9B5C" stroke-width="5" stroke-linecap="round" stroke-linejoin="round" stroke-miterlimit="10" points="
					21.091,195.784 21.091,15.924 21.091,2.5 123.391,2.5 123.391,195.784 				"/>
			</g>
		</g>
		
			<polygon fill="#7D4E24" stroke="#7D4E24" stroke-width="3" stroke-linecap="round" stroke-linejoin="round" stroke-miterlimit="10" points="
			26.091,7.523 118.39,7.523 118.39,190.76 26.091,189.891 		"/>
		
			<polygon fill="#683C11" stroke="#683C11" stroke-width="3" stroke-linecap="round" stroke-linejoin="round" stroke-miterlimit="10" points="
			26.091,189.891 26.091,7.523 118.39,7.523 		"/>
	</g>
</g>
<path fill="#DFEBF1" stroke="#2C9B5C" stroke-width="2" stroke-miterlimit="10" d="M47.272,326.986l-6.764-13.838
	c0-2.207,0.807-25.648,3.015-25.648h57.991c2.208,0,2.632,23.426,2.632,25.633l-6.387,13.853H47.272z"/>
<path fill="#2C9B5C" stroke="#2C9B5C" stroke-width="3.7098" stroke-linecap="round" stroke-linejoin="round" stroke-miterlimit="10" d="
	M44.961,315.001c-2.093,0-3.789-1.697-3.789-3.789v-59.637c0-2.093,1.696-3.789,3.789-3.789H99.89c2.093,0,3.79,1.696,3.79,3.789
	v59.637c0,2.092-1.697,3.789-3.79,3.789H44.961z"/>
<path fill="#2C9B5C" stroke="#2C9B5C" stroke-width="3.7098" stroke-linecap="round" stroke-linejoin="round" stroke-miterlimit="10" d="
	M51.605,403.564c-2.209,0-4-1.791-4-4v-68.578c0-2.209,1.791-4,4-4H93.76c2.209,0,4,1.791,4,4v68.578c0,2.209-1.791,4-4,4H51.605z"
	/>
<g>
	<g>
		<path stroke="#000000" stroke-width="3.9162" stroke-linecap="round" stroke-linejoin="round" stroke-miterlimit="10" d="
			M123.677,299.621c-4.74,0-8.583-3.844-8.583-8.584V231.69c0-4.74,3.843-8.584,8.583-8.584h7.605c4.741,0,8.584,3.844,8.584,8.584
			v59.347c0,4.74-3.843,8.584-8.584,8.584H123.677z"/>
		<g>
			<path fill="#3C3C3B" d="M113.388,230.148l13.363,8.493c0.694,0.44,1.585,0.419,2.257-0.055l12.547-8.855
				c0-2.083-1.689-3.791-1.689-3.791l-12.087,8.551l-12.975-8.301C114.805,226.19,113.596,227.856,113.388,230.148z"/>
			<path fill="#3C3C3B" d="M141.803,243.934l-12.795,8.991c-0.672,0.474-1.562,0.495-2.257,0.055l-13.632-8.665v-4.537l14.66,9.052
				l14.023-9.576V243.934z"/>
			<path fill="#3C3C3B" d="M141.803,258.33l-12.795,8.936c-0.672,0.473-1.562,0.494-2.257,0.055l-13.632-8.666v-4.47l14.66,8.985
				l14.016-9.57L141.803,258.33z"/>
			<path fill="#3C3C3B" d="M141.804,272.622l-12.796,8.982c-0.672,0.474-1.562,0.495-2.257,0.055l-13.632-8.665v-4.497l14.66,9.012
				l14.024-9.576V272.622z"/>
			<path fill="#3C3C3B" d="M141.739,287.027l-12.732,8.916c-0.672,0.474-1.562,0.495-2.257,0.055l-13.632-8.665v-4.539l14.66,9.054
				l13.92-9.505L141.739,287.027z"/>
		</g>
	</g>
	<g>
		<path stroke="#000000" stroke-width="3.9162" stroke-linecap="round" stroke-linejoin="round" stroke-miterlimit="10" d="
			M13.559,299.621c-4.74,0-8.583-3.844-8.583-8.584V231.69c0-4.74,3.843-8.584,8.583-8.584h7.606c4.741,0,8.584,3.844,8.584,8.584
			v59.347c0,4.74-3.843,8.584-8.584,8.584H13.559z"/>
		<g>
			<path fill="#3C3C3B" d="M3.27,230.148l13.364,8.493c0.693,0.44,1.584,0.419,2.256-0.055l12.547-8.855
				c0-2.083-1.688-3.791-1.688-3.791l-12.087,8.551L4.687,226.19C4.687,226.19,3.478,227.856,3.27,230.148z"/>
			<path fill="#3C3C3B" d="M31.685,243.934l-12.795,8.991c-0.672,0.474-1.562,0.495-2.256,0.055l-13.633-8.665v-4.537l14.66,9.052
				l14.024-9.576V243.934z"/>
			<path fill="#3C3C3B" d="M31.685,258.33l-12.795,8.936c-0.672,0.473-1.562,0.494-2.256,0.055l-13.633-8.666v-4.47l14.66,8.985
				l14.016-9.57L31.685,258.33z"/>
			<path fill="#3C3C3B" d="M31.686,272.622l-12.796,8.982c-0.672,0.474-1.562,0.495-2.256,0.055l-13.633-8.665v-4.497l14.66,9.012
				l14.024-9.576V272.622z"/>
			<path fill="#3C3C3B" d="M31.622,287.027l-12.732,8.916c-0.672,0.474-1.562,0.495-2.256,0.055l-13.633-8.665v-4.539l14.66,9.054
				l13.92-9.505L31.622,287.027z"/>
		</g>
	</g>
</g>
<g>
	<defs>
		<path id="SVGID_1_" d="M104.524,414.92v-39.773c0-3.691,2.775-6.708,6.397-7.052c0.094-0.021,0.192-0.033,0.292-0.033h0.395
			c0.12,0,0.236,0.017,0.347,0.047c3.634,0.402,6.344,3.391,6.344,7.038v39.773c0,3.692-2.776,6.709-6.398,7.053
			c-0.094,0.022-0.192,0.033-0.293,0.033h-0.395c-0.12,0-0.236-0.017-0.347-0.047C107.233,421.556,104.524,418.568,104.524,414.92z"
			/>
	</defs>
	<clipPath id="SVGID_2_">
		<use xlink:href="#SVGID_1_"  overflow="visible"/>
	</clipPath>
	<g clip-path="url(#SVGID_2_)">
		<path fill="#3C3C3B" d="M101.753,373.175l9.171,5.828c0.476,0.303,1.087,0.287,1.549-0.037l8.61-6.077
			c0-1.43-1.159-2.602-1.159-2.602l-8.294,5.868l-8.904-5.697C102.726,370.458,101.896,371.602,101.753,373.175z"/>
		<path fill="#3C3C3B" d="M121.253,382.636l-8.78,6.17c-0.461,0.325-1.073,0.34-1.549,0.038l-9.355-5.947v-3.112l10.061,6.211
			l9.623-6.572V382.636z"/>
		<path fill="#3C3C3B" d="M121.253,392.515l-8.78,6.131c-0.461,0.325-1.073,0.34-1.549,0.038l-9.355-5.947v-3.066l10.061,6.165
			l9.618-6.567L121.253,392.515z"/>
		<path fill="#3C3C3B" d="M121.254,402.323l-8.781,6.164c-0.461,0.325-1.073,0.34-1.549,0.037l-9.355-5.946v-3.086l10.061,6.184
			l9.624-6.57V402.323z"/>
		<path fill="#3C3C3B" d="M121.21,412.208l-8.736,6.118c-0.461,0.325-1.073,0.34-1.549,0.037l-9.355-5.945v-3.116l10.061,6.214
			l9.552-6.523L121.21,412.208z"/>
	</g>
</g>
<path stroke="#000000" stroke-width="2.6321" stroke-linecap="round" stroke-linejoin="round" stroke-miterlimit="10" d="
	M33.818,420.69c-3.186,0-5.769-2.584-5.769-5.77v-39.773c0-3.186,2.583-5.769,5.769-5.769h-0.395c3.187,0,5.77,2.583,5.77,5.769
	v39.773c0,3.186-2.583,5.77-5.77,5.77H33.818z"/>
<g>
	<defs>
		<path id="SVGID_3_" d="M26.734,414.92v-39.773c0-3.691,2.775-6.708,6.397-7.052c0.094-0.021,0.192-0.033,0.293-0.033h0.395
			c0.12,0,0.236,0.017,0.347,0.047c3.634,0.402,6.344,3.391,6.344,7.038v39.773c0,3.692-2.776,6.709-6.397,7.053
			c-0.094,0.022-0.192,0.033-0.293,0.033h-0.395c-0.12,0-0.236-0.017-0.347-0.047C29.443,421.556,26.734,418.568,26.734,414.92z"/>
	</defs>
	<clipPath id="SVGID_4_">
		<use xlink:href="#SVGID_3_"  overflow="visible"/>
	</clipPath>
	<g clip-path="url(#SVGID_4_)">
		<path fill="#3C3C3B" d="M23.963,373.175l9.172,5.828c0.476,0.303,1.087,0.287,1.549-0.037l8.609-6.077
			c0-1.43-1.158-2.602-1.158-2.602l-8.295,5.868l-8.904-5.697C24.936,370.458,24.107,371.602,23.963,373.175z"/>
		<path fill="#3C3C3B" d="M43.463,382.636l-8.779,6.17c-0.462,0.325-1.073,0.34-1.549,0.038l-9.355-5.947v-3.112l10.061,6.211
			l9.623-6.572V382.636z"/>
		<path fill="#3C3C3B" d="M43.463,392.515l-8.779,6.131c-0.462,0.325-1.073,0.34-1.549,0.038l-9.355-5.947v-3.066l10.061,6.165
			l9.617-6.567L43.463,392.515z"/>
		<path fill="#3C3C3B" d="M43.464,402.323l-8.78,6.164c-0.462,0.325-1.073,0.34-1.549,0.037l-9.355-5.946v-3.086l10.061,6.184
			l9.624-6.57V402.323z"/>
		<path fill="#3C3C3B" d="M43.42,412.208l-8.736,6.118c-0.462,0.325-1.073,0.34-1.549,0.037l-9.355-5.945v-3.116l10.061,6.214
			l9.553-6.523L43.42,412.208z"/>
	</g>
</g>
<path d="M135.556,62.406c-2.721,0-4.926-2.205-4.926-4.925V24.406c0-2.72,2.205-4.925,4.926-4.925l0,0
	c2.72,0,4.925,2.205,4.925,4.925v33.075C140.481,60.201,138.276,62.406,135.556,62.406L135.556,62.406z"/>
<path d="M8.926,62.406C6.205,62.406,4,60.201,4,57.481V24.406c0-2.72,2.205-4.925,4.926-4.925l0,0c2.72,0,4.925,2.205,4.925,4.925
	v33.075C13.851,60.201,11.646,62.406,8.926,62.406L8.926,62.406z"/>
</svg>
