<?xml version="1.0" encoding="utf-8"?>
<!-- Generator: Adobe Illustrator 15.0.2, SVG Export Plug-In . SVG Version: 6.00 Build 0)  -->
<!DOCTYPE svg PUBLIC "-//W3C//DTD SVG 1.1//EN" "http://www.w3.org/Graphics/SVG/1.1/DTD/svg11.dtd">
<svg version="1.1" id="Lager_1" xmlns="http://www.w3.org/2000/svg" xmlns:xlink="http://www.w3.org/1999/xlink" x="0px" y="0px"
	 width="339.298px" height="65.415px" viewBox="0 -2.82 339.298 65.415" enable-background="new 0 -2.82 339.298 65.415"
	 xml:space="preserve">
<g>
	<g>
		
			<path fill="#3E3D3F" stroke="#3E3D3F" stroke-width="5.6393" stroke-linecap="round" stroke-linejoin="round" stroke-miterlimit="10" d="
			M52.438,28.064h-0.345c-1.657,3.271-2.738,6.883-3.106,10.697L52.438,28.064z"/>
		
			<path fill="#3E3D3F" stroke="#3E3D3F" stroke-width="5.6393" stroke-linecap="round" stroke-linejoin="round" stroke-miterlimit="10" d="
			M336.479,28.063l-151.152,0.002c-1.48-15.321-14.432-16.644-30.134-16.644c-15.706,0-23.983,1.791-28.263,16.643h-20.775
			c-1.481-15.319-19.313-16.643-27.029-16.643c-11.793,0-22.035,6.777-27.03,16.643H2.82V0h333.659V28.063z"/>
	</g>
	<g>
		<path fill="#1B181C" d="M209.432,22.841"/>
	</g>
	<g>
		<circle fill="none" stroke="#1B181C" stroke-width="9.0229" stroke-miterlimit="10" cx="155.086" cy="41.579" r="16.504"/>
	</g>
	<g>
		<circle fill="none" stroke="#1B181C" stroke-width="9.0229" stroke-miterlimit="10" cx="78.793" cy="41.579" r="16.503"/>
	</g>
	<g>
		
			<path fill="#5A595B" stroke="#5A595B" stroke-width="5.6393" stroke-linecap="round" stroke-linejoin="round" stroke-miterlimit="10" d="
			M79.124,11.421"/>
	</g>
	<g>
		
			<path fill="#5A595B" stroke="#5A595B" stroke-width="5.6393" stroke-linecap="round" stroke-linejoin="round" stroke-miterlimit="10" d="
			M155.191,11.421"/>
	</g>
	<g>
		
			<path fill="#5A595B" stroke="#5A595B" stroke-width="5.6393" stroke-linecap="round" stroke-linejoin="round" stroke-miterlimit="10" d="
			M79.124,11.421"/>
	</g>
	<g>
		
			<path fill="#5A595B" stroke="#5A595B" stroke-width="5.6393" stroke-linecap="round" stroke-linejoin="round" stroke-miterlimit="10" d="
			M155.191,11.421"/>
	</g>
	<g>
		
			<path fill="none" stroke="#3E3D3F" stroke-width="6.7671" stroke-linecap="round" stroke-linejoin="round" stroke-miterlimit="10" d="
			M109.259,38.761c-1.481-15.32-14.432-27.34-30.135-27.34c-15.705,0-28.657,12.02-30.137,27.34"/>
	</g>
	<g>
		
			<path fill="none" stroke="#3E3D3F" stroke-width="6.7671" stroke-linecap="round" stroke-linejoin="round" stroke-miterlimit="10" d="
			M185.325,38.763c-1.479-15.322-14.431-27.342-30.134-27.342c-15.706,0-28.657,12.02-30.138,27.34"/>
	</g>
	<g>
		<circle fill="#ECECED" cx="155.086" cy="41.587" r="12.5"/>
		<path fill="#D9DADB" d="M155.087,54.088c-6.904,0-12.501-5.597-12.501-12.501c0-6.903,5.597-12.5,12.501-12.5V54.088z"/>
	</g>
	<g>
		<circle fill="#ECECED" cx="78.793" cy="41.587" r="12.5"/>
		<path fill="#D9DADB" d="M78.794,54.088c-6.904,0-12.501-5.597-12.501-12.501c0-6.903,5.597-12.5,12.501-12.5V54.088z"/>
	</g>
</g>
</svg>
