<?xml version="1.0" encoding="utf-8"?>
<!-- Generator: Adobe Illustrator 17.1.0, SVG Export Plug-In . SVG Version: 6.00 Build 0)  -->
<!DOCTYPE svg PUBLIC "-//W3C//DTD SVG 1.1//EN" "http://www.w3.org/Graphics/SVG/1.1/DTD/svg11.dtd">
<svg version="1.1" id="Lager_1" xmlns="http://www.w3.org/2000/svg" xmlns:xlink="http://www.w3.org/1999/xlink" x="0px" y="0px"
	 viewBox="0 0 523.4 284.7" enable-background="new 0 0 523.4 284.7" xml:space="preserve">
<g>
	
		<circle fill="#EE8AB3" stroke="#EE8AB3" stroke-width="4.9878" stroke-linecap="round" stroke-linejoin="round" stroke-miterlimit="10" cx="463.4" cy="89.6" r="16.8"/>
	
		<circle fill="#EA6BA1" stroke="#EA6BA1" stroke-width="5.346" stroke-linecap="round" stroke-linejoin="round" stroke-miterlimit="10" cx="479" cy="98.4" r="18"/>
	
		<circle fill="#EA6BA1" stroke="#EA6BA1" stroke-width="5.346" stroke-linecap="round" stroke-linejoin="round" stroke-miterlimit="10" cx="497" cy="96.7" r="18"/>
	
		<circle fill="#EA6BA1" stroke="#EA6BA1" stroke-width="4.2911" stroke-linecap="round" stroke-linejoin="round" stroke-miterlimit="10" cx="496" cy="80.4" r="14.4"/>
	
		<circle fill="#EE8AB3" stroke="#EE8AB3" stroke-width="5.346" stroke-linecap="round" stroke-linejoin="round" stroke-miterlimit="10" cx="502.7" cy="94.3" r="18"/>
	
		<circle fill="#EE8AB3" stroke="#EE8AB3" stroke-width="4.94" stroke-linecap="round" stroke-linejoin="round" stroke-miterlimit="10" cx="477.7" cy="92" r="16.6"/>
	
		<circle fill="#EE8AB3" stroke="#EE8AB3" stroke-width="4.94" stroke-linecap="round" stroke-linejoin="round" stroke-miterlimit="10" cx="480" cy="84.7" r="16.6"/>
</g>
<rect x="76.8" y="10.4" fill="#EA6BA1" stroke="#EA6BA1" stroke-width="2" stroke-linecap="round" stroke-linejoin="round" stroke-miterlimit="10" width="268.5" height="84.5"/>
<path fill="#ECEDED" d="M316,26.2c0-4.8-3.9-8.7-8.7-8.7c-0.1,0-0.1,0-0.2,0v0c0.1,0,0.1,0,0.2,0c4.8,0,8.7-3.9,8.7-8.7
	c0-4.8-3.9-8.7-8.7-8.7c-0.1,0-0.1,0-0.2,0v0H298v103.9h9.2v0c0.1,0,0.1,0,0.2,0c4.8,0,8.7-3.9,8.7-8.7c0-4.8-3.9-8.7-8.7-8.7
	c-0.1,0-0.1,0-0.2,0v0c0.1,0,0.1,0,0.2,0c4.8,0,8.7-3.9,8.7-8.7c0-4.8-3.9-8.7-8.7-8.7c-0.1,0-0.1,0-0.2,0v0c0.1,0,0.1,0,0.2,0
	c4.8,0,8.7-3.9,8.7-8.7c0-4.8-3.9-8.7-8.7-8.7c-0.1,0-0.1,0-0.2,0v0c0.1,0,0.1,0,0.2,0c4.8,0,8.7-3.9,8.7-8.7c0-4-2.6-7.3-6.3-8.4
	C313.4,33.5,316,30.1,316,26.2z"/>
<rect x="0" y="0" fill="#F6C6DB" width="298" height="103.9"/>
<polygon fill="#F2ACCA" points="298,103.9 0,103.9 0,0 "/>
<g>
	<path fill="#EA6BA1" stroke="#EA6BA1" stroke-miterlimit="10" d="M94.8,73.3h-2.2V34.1h-9.4V32h21.1v2.2h-9.5V73.3z"/>
	<path fill="#EA6BA1" stroke="#EA6BA1" stroke-miterlimit="10" d="M127.7,69.6c-1.8,2.5-4.5,3.8-8,3.8c-3.5,0-6.1-1.4-7.8-4.2
		c-1.7-2.8-2.6-6.2-2.6-10.2V32h2.2v27c0,4,0.8,7.1,2.4,9.1c1.6,2.1,3.6,3.1,6,3.1c2.3,0,4.3-1,5.9-3.1c1.6-2.1,2.4-5.1,2.4-9.2V32
		h2.2v27C130.4,63.5,129.5,67,127.7,69.6z"/>
	<path fill="#EA6BA1" stroke="#EA6BA1" stroke-miterlimit="10" d="M158.7,41.1l-2.2-0.1c-0.4-2.1-1.2-3.8-2.6-5
		c-1.4-1.2-3-1.9-4.7-1.9c-2.9,0-5.2,1.5-6.9,4.5c-1.7,3-2.5,6.4-2.5,10.2c0,7.8,1.3,13.4,4,16.8c2.7,3.3,6.9,5.2,12.7,5.5V54.8
		h-5.8v-2.2h8v20.6c-5.7,0-10-0.8-12.7-2.5c-1.1-0.7-2.2-1.6-3.3-2.8c-1.1-1.2-2-2.7-2.7-4.4c-1.5-3.8-2.3-8.8-2.3-14.8
		c0-2.9,0.4-5.4,1.2-7.7c0.8-2.3,1.8-4.1,3-5.3c2.4-2.5,4.8-3.8,7.3-3.8c2.4,0,4.7,1,6.7,2.9C157.6,36.9,158.7,38.9,158.7,41.1z"/>
	<path fill="#EA6BA1" stroke="#EA6BA1" stroke-miterlimit="10" d="M186.1,41.1l-2.2-0.1c-0.4-2.1-1.2-3.8-2.6-5
		c-1.4-1.2-3-1.9-4.7-1.9c-2.9,0-5.2,1.5-6.9,4.5c-1.7,3-2.5,6.4-2.5,10.2c0,7.8,1.3,13.4,4,16.8c2.7,3.3,6.9,5.2,12.7,5.5V54.8
		h-5.8v-2.2h8v20.6c-5.7,0-10-0.8-12.7-2.5c-1.1-0.7-2.2-1.6-3.3-2.8c-1.1-1.2-2-2.7-2.7-4.4c-1.5-3.8-2.3-8.8-2.3-14.8
		c0-2.9,0.4-5.4,1.2-7.7c0.8-2.3,1.8-4.1,3-5.3c2.4-2.5,4.8-3.8,7.3-3.8c2.4,0,4.7,1,6.7,2.9C185.1,36.9,186.1,38.9,186.1,41.1z"/>
	<path fill="#EA6BA1" stroke="#EA6BA1" stroke-miterlimit="10" d="M214.8,35v38.2h-2.2V53.8h-16.8v19.5h-2.2v-27
		c0-4.2,1.4-7.7,4.1-10.4c2.7-2.7,6.1-4.1,10.2-4.1C210.9,31.7,213.2,32.8,214.8,35z M212.6,51.6V35.8c-1.3-1.3-2.9-1.9-4.8-1.9
		c-3.5,0-6.3,1.3-8.6,3.8c-2.3,2.5-3.4,5.4-3.4,8.6v5.3H212.6z"/>
</g>
<g>
	
		<path fill="#EE8AB3" stroke="#EE8AB3" stroke-width="2" stroke-linecap="round" stroke-linejoin="round" stroke-miterlimit="10" d="
		M432.5,195.3c-5.9,0-10.9-3.9-12.6-9.3c-1.5,0.6-3.2,1-4.9,1c-6.6,0-12-4.8-13-11.1c-1.5,0.6-3.2,1-5,1c-6.8,0-12.4-5.2-13.1-11.9
		c-1.7,0.9-3.7,1.4-5.8,1.4c-5.7,0-10.6-3.7-12.4-8.8L165,201.1l17.9,82.6l262.3-57l-7.1-32.7C436.4,194.9,434.5,195.3,432.5,195.3z
		"/>
	
		<polygon fill="#EA6BA1" stroke="#EA6BA1" stroke-width="2" stroke-linecap="round" stroke-linejoin="round" stroke-miterlimit="10" points="
		445.3,226.7 182.9,283.7 165,201.1 	"/>
</g>
</svg>
