<?xml version="1.0" encoding="utf-8"?>
<!-- Generator: Adobe Illustrator 15.0.2, SVG Export Plug-In . SVG Version: 6.00 Build 0)  -->
<!DOCTYPE svg PUBLIC "-//W3C//DTD SVG 1.1//EN" "http://www.w3.org/Graphics/SVG/1.1/DTD/svg11.dtd">
<svg version="1.1" id="Lager_1" xmlns="http://www.w3.org/2000/svg" xmlns:xlink="http://www.w3.org/1999/xlink" x="0px" y="0px"
	 width="355.521px" height="482.196px" viewBox="0 0 355.521 482.196" enable-background="new 0 0 355.521 482.196"
	 xml:space="preserve">
<g>
	<g>
		<g>
			<g>
				<g>
					
						<path fill="#FFD600" stroke="#FFD600" stroke-width="1.004" stroke-linecap="round" stroke-linejoin="round" stroke-miterlimit="10" d="
						M83.782,46.354c20.856,22.165,28.961,54.897,18.252,85.617c-12.775,36.651-51.375,63.539-98.365,55.759l-2.418-9.303
						c34.248-7.465,56.104-32.801,65.186-58.865c6.715-19.261,6.037-39.306-0.541-57.045L83.782,46.354z"/>
				</g>
				<g>
					
						<path fill="#786855" stroke="#786855" stroke-width="1.004" stroke-linecap="round" stroke-linejoin="round" stroke-miterlimit="10" d="
						M83.788,46.35c20.843,22.167,28.938,54.882,18.236,85.6c-13.445,38.571-52.961,63.52-98.365,55.757l-1.094-4.2
						c33.751-0.28,70.12-26.894,80.967-58.004c8.671-24.881,5.004-51.07-7.774-71.901L83.788,46.35z"/>
				</g>
			</g>
			<g>
				<g>
					
						<path fill="#FCC200" stroke="#FCC200" stroke-width="1.7739" stroke-linecap="round" stroke-linejoin="round" stroke-miterlimit="10" d="
						M257.358,91.677"/>
				</g>
				<g>
					<g>
						
							<polygon fill="#5F4C3F" stroke="#5F4C3F" stroke-width="1.6849" stroke-linecap="round" stroke-linejoin="round" stroke-miterlimit="10" points="
							81.385,12.58 57.978,23.798 54.819,8.987 71.823,0.842 						"/>
					</g>
					<g>
						
							<polygon fill="#786855" stroke="#786855" stroke-width="1.6849" stroke-linecap="round" stroke-linejoin="round" stroke-miterlimit="10" points="
							81.385,12.58 71.823,0.842 54.819,8.987 						"/>
					</g>
				</g>
				<g>
					
						<path fill="#FFD600" stroke="#FFD600" stroke-width="1.7739" stroke-linecap="round" stroke-linejoin="round" stroke-miterlimit="10" d="
						M341.338,44.544c-40.193,47.125-97.886,60.032-146.056,52.445c-48.176-7.589-87.301-37.46-108.517-77.466L60.001,32.379
						c7.336,64.996,57.181,119.736,124.915,130.402c67.743,10.669,141.819-27.019,168.894-106.708L341.338,44.544z"/>
				</g>
				<g>
					
						<path fill="#FCC200" stroke="#FCC200" stroke-width="1.7739" stroke-linecap="round" stroke-linejoin="round" stroke-miterlimit="10" d="
						M353.811,56.074c-25.779,77.195-97.598,117.939-168.894,106.708C117.182,152.116,67.337,97.375,60.001,32.379l11.534-5.534
						c16.657,51.888,61.263,92.699,118.767,101.757c57.506,9.057,129.292-25.397,157.871-77.738L353.811,56.074z"/>
				</g>
				<g>
					<circle fill="#5F4C3F" cx="220.688" cy="152.776" r="1.627"/>
				</g>
				<g>
					<path fill="#5F4C3F" d="M230.141,154.472c0.416,0.797,0.107,1.778-0.688,2.194c-0.796,0.417-1.776,0.107-2.193-0.689
						c-0.415-0.797-0.106-1.776,0.692-2.193C228.744,153.367,229.727,153.676,230.141,154.472z"/>
				</g>
				<g>
					<circle fill="#5F4C3F" cx="235.759" cy="158.827" r="1.627"/>
				</g>
				<g>
					<circle fill="#5F4C3F" cx="237.107" cy="153.538" r="1.627"/>
				</g>
				<g>
					<path fill="#5F4C3F" d="M247.264,155.709c0.417,0.799,0.106,1.779-0.688,2.194c-0.798,0.417-1.778,0.108-2.194-0.69
						c-0.414-0.796-0.106-1.778,0.69-2.195C245.867,154.604,246.85,154.915,247.264,155.709z"/>
				</g>
				<g>
					<path fill="#5F4C3F" d="M249.056,150.237c0.417,0.796,0.108,1.778-0.688,2.195c-0.797,0.416-1.777,0.105-2.194-0.691
						c-0.413-0.795-0.106-1.777,0.693-2.193C247.659,149.133,248.645,149.44,249.056,150.237z"/>
				</g>
				<g>
					<path fill="#5F4C3F" d="M220.061,158.604c0.417,0.798,0.107,1.779-0.689,2.193c-0.797,0.418-1.78,0.108-2.193-0.688
						c-0.416-0.798-0.105-1.777,0.691-2.193C218.664,157.498,219.646,157.807,220.061,158.604z"/>
				</g>
				<g>
					<path fill="#5F4C3F" d="M210.629,156.187c0.414,0.8,0.105,1.78-0.688,2.194c-0.799,0.414-1.781,0.107-2.195-0.691
						c-0.417-0.796-0.106-1.774,0.689-2.193C209.232,155.085,210.214,155.39,210.629,156.187z"/>
				</g>
			</g>
		</g>
		<path opacity="0.7" fill="#E0F2FB" stroke="#E0F2FB" stroke-width="1.5404" stroke-miterlimit="10" d="M94.723,481.425h46.948
			c10.208,0,18.485-8.275,18.485-18.484V300.017c0-8.541-2.35-17.812-12.388-25.756c0,0-8.104-4.985-8.489-15.641v-22.334H94.723
			h-28.52H21.647v22.334c-0.385,10.655-8.489,15.641-8.489,15.641C3.12,282.206,0.77,291.476,0.77,300.017v162.924
			c0,10.209,8.277,18.484,18.485,18.484h46.948H94.723z"/>
		<path opacity="0.56" fill="#D0ECF9" stroke="#D0ECF9" stroke-width="1.5404" stroke-miterlimit="10" d="M80.462,481.425H66.203
			H19.255c-10.208,0-18.485-8.275-18.485-18.484V300.017c0-8.541,2.35-17.812,12.388-25.756c0,0,8.104-4.985,8.489-15.641v-22.334
			h44.556h14.259V481.425z"/>
		
			<line fill="none" stroke="#ACCEDF" stroke-width="4" stroke-linecap="round" stroke-miterlimit="10" x1="19.99" y1="237.601" x2="141.115" y2="237.601"/>
		
			<line fill="none" stroke="#ACCEDF" stroke-width="5" stroke-linecap="round" stroke-miterlimit="10" x1="19.99" y1="254.28" x2="141.115" y2="254.28"/>
		
			<line fill="none" stroke="#8FC4D6" stroke-width="3" stroke-linecap="round" stroke-miterlimit="10" x1="19.073" y1="244.55" x2="141.74" y2="244.55"/>
		
			<line fill="none" stroke="#ACCEDF" stroke-width="4" stroke-linecap="round" stroke-miterlimit="10" x1="19.99" y1="237.601" x2="141.115" y2="237.601"/>
		<path opacity="0.7" fill="#E0F2FB" stroke="#E0F2FB" stroke-width="1.5404" stroke-miterlimit="10" d="M289.318,481.425h46.947
			c10.208,0,18.485-8.275,18.485-18.484V300.017c0-8.541-2.35-17.812-12.388-25.756c0,0-8.104-4.985-8.489-15.641v-22.334h-44.556
			h-28.521h-44.556v22.334c-0.385,10.655-8.489,15.641-8.489,15.641c-10.038,7.944-12.388,17.215-12.388,25.756v162.924
			c0,10.209,8.277,18.484,18.484,18.484h46.948H289.318z"/>
		<path opacity="0.58" fill="#39A9DC" stroke="#39A9DC" stroke-width="1.4305" stroke-miterlimit="10" d="M349.008,322.119v136.809
			c0,9.48-7.687,17.166-17.166,17.166h-43.598H261.76h-43.599c-9.479,0-17.165-7.686-17.165-17.166V322.119H349.008z"/>
		<path opacity="0.56" fill="#D0ECF9" stroke="#D0ECF9" stroke-width="1.5404" stroke-miterlimit="10" d="M275.057,481.425h-14.259
			H213.85c-10.207,0-18.484-8.275-18.484-18.484V300.017c0-8.541,2.35-17.812,12.388-25.756c0,0,8.104-4.985,8.489-15.641v-22.334
			h44.556h14.259V481.425z"/>
		
			<line fill="none" stroke="#ACCEDF" stroke-width="4" stroke-linecap="round" stroke-miterlimit="10" x1="214.585" y1="237.601" x2="335.71" y2="237.601"/>
		
			<line fill="none" stroke="#ACCEDF" stroke-width="5" stroke-linecap="round" stroke-miterlimit="10" x1="214.585" y1="254.28" x2="335.71" y2="254.28"/>
		
			<line fill="none" stroke="#8FC4D6" stroke-width="3" stroke-linecap="round" stroke-miterlimit="10" x1="213.668" y1="244.55" x2="336.335" y2="244.55"/>
		
			<line fill="none" stroke="#ACCEDF" stroke-width="4" stroke-linecap="round" stroke-miterlimit="10" x1="214.585" y1="237.601" x2="335.71" y2="237.601"/>
	</g>
	<g>
		<path fill="#3E3D40" stroke="#3E3D40" stroke-width="1.0236" stroke-miterlimit="10" d="M82.2,348.457
			c0,0.93-0.204,1.862-0.612,2.803c-0.408,0.941-0.816,1.842-1.224,2.703c0,1.563-0.006,3.336-0.017,5.318
			c-0.012,1.982-0.017,4.062-0.017,6.236c0,2.176-0.006,4.396-0.017,6.661c-0.012,2.267-0.023,4.47-0.034,6.611
			c-0.012,2.141-0.017,4.152-0.017,6.032c0,1.881-0.006,3.535-0.017,4.962c-0.012,1.427-0.017,2.562-0.017,3.398
			c0,0.839,0,1.281,0,1.325c0,0.362-0.125,0.669-0.374,0.919c-0.25,0.248-0.556,0.373-0.918,0.373c-0.362,0-0.663-0.125-0.9-0.373
			c-0.238-0.25-0.357-0.557-0.357-0.919c0-0.044,0-0.662,0-1.852s0.005-2.758,0.017-4.707c0.011-1.948,0.017-4.175,0.017-6.679
			s0.005-5.098,0.017-7.783c0.011-2.685,0.022-5.358,0.034-8.021c0.011-2.662,0.017-5.126,0.017-7.392
			c-1.178,1.608-2.43,3.064-3.755,4.366c-1.326,1.303-2.561,2.425-3.705,3.365c-1.145,0.94-2.107,1.677-2.889,2.209
			c-0.782,0.532-1.219,0.833-1.309,0.9c-0.25,0.137-0.476,0.204-0.68,0.204c-0.318,0-0.611-0.118-0.883-0.356
			s-0.408-0.549-0.408-0.935c0-0.453,0.204-0.816,0.612-1.088c0.022-0.021,0.26-0.187,0.714-0.493
			c0.453-0.306,1.042-0.736,1.767-1.291c0.725-0.555,1.551-1.234,2.481-2.039c0.929-0.805,1.875-1.7,2.838-2.686
			c0.963-0.985,1.897-2.062,2.804-3.229c0.906-1.166,1.71-2.396,2.413-3.688c0-0.362,0-0.765,0-1.206c0-0.442,0-0.884,0-1.326
			c0-0.441,0-0.86,0-1.258c0-0.396,0-0.729,0-1.002c0.045-1.02,0.255-1.761,0.628-2.226c0.374-0.466,0.889-0.697,1.546-0.697
			c0.657,0,1.195,0.283,1.615,0.85C81.99,347.017,82.2,347.686,82.2,348.457z"/>
	</g>
	<g>
		<path fill="#3E3D40" stroke="#3E3D40" stroke-width="1.1389" stroke-miterlimit="10" d="M308.101,390.462
			c-0.044,0.044-0.222,0.234-0.534,0.567c-0.312,0.334-0.773,0.739-1.386,1.218c-0.611,0.479-1.368,0.995-2.269,1.552
			c-0.9,0.556-1.962,1.063-3.186,1.519c-1.223,0.456-2.609,0.84-4.155,1.15c-1.546,0.312-3.264,0.468-5.154,0.468
			c-1.646,0-3.287-0.134-4.923-0.4c-1.635-0.267-3.259-0.601-4.871-1.002c-1.613-0.399-3.196-0.845-4.754-1.334
			s-3.08-0.957-4.571-1.401c-2.848,1.379-5.568,2.392-8.159,3.036c-2.591,0.646-4.932,0.968-7.022,0.968
			c-1.379,0-2.565-0.139-3.555-0.417c-0.99-0.277-1.806-0.646-2.452-1.102c-0.645-0.455-1.119-0.979-1.419-1.567
			c-0.301-0.589-0.449-1.195-0.449-1.818c0-0.601,0.155-1.201,0.468-1.802c0.311-0.601,0.778-1.14,1.4-1.619
			c0.623-0.478,1.413-0.872,2.369-1.185c0.957-0.312,2.08-0.467,3.371-0.467c0.956,0,2.006,0.089,3.15,0.267
			c1.146,0.179,2.359,0.418,3.638,0.719c1.279,0.3,2.625,0.646,4.037,1.033c1.413,0.39,2.854,0.807,4.322,1.252
			c1.536-0.801,3.093-1.73,4.672-2.787c1.579-1.056,3.097-2.224,4.554-3.503s2.82-2.656,4.088-4.138
			c1.268-1.479,2.369-3.047,3.304-4.705c0.935-1.656,1.673-3.397,2.218-5.221c0.546-1.824,0.819-3.716,0.819-5.673
			c0-2.357-0.39-4.476-1.169-6.356c-0.778-1.88-1.879-3.47-3.303-4.771c-1.424-1.301-3.132-2.296-5.123-2.987
			c-1.99-0.688-4.197-1.034-6.622-1.034c-1.224,0-2.509,0.134-3.855,0.401c-1.346,0.267-2.674,0.663-3.986,1.185
			c-1.312,0.522-2.565,1.173-3.754,1.952c-1.19,0.778-2.24,1.678-3.153,2.702c-0.911,1.022-1.635,2.165-2.169,3.42
			c-0.534,1.257-0.8,2.63-0.8,4.121c0,0.957,0.089,1.846,0.266,2.67c0.18,0.822,0.379,1.551,0.602,2.185
			c0.223,0.635,0.427,1.141,0.617,1.519c0.188,0.378,0.306,0.601,0.351,0.668c0.111,0.222,0.167,0.433,0.167,0.634
			c0,0.311-0.11,0.601-0.334,0.867c-0.223,0.268-0.534,0.4-0.935,0.4c-0.488,0-0.856-0.211-1.101-0.635
			c0-0.021-0.111-0.25-0.334-0.684c-0.222-0.433-0.467-1.028-0.734-1.785c-0.267-0.756-0.512-1.636-0.733-2.637
			c-0.223-1-0.333-2.079-0.333-3.235c0-1.669,0.281-3.232,0.849-4.688s1.341-2.79,2.32-4.004c0.979-1.213,2.124-2.285,3.438-3.22
			c1.312-0.935,2.724-1.729,4.237-2.386c1.513-0.655,3.081-1.151,4.704-1.485c1.624-0.334,3.226-0.5,4.806-0.5
			c2.758,0,5.283,0.417,7.574,1.252c2.291,0.833,4.252,2.019,5.887,3.552c1.636,1.536,2.904,3.394,3.805,5.573
			s1.353,4.616,1.353,7.308c0,2.536-0.456,5.071-1.367,7.607c-0.913,2.535-2.199,4.972-3.855,7.308
			c-1.657,2.335-3.638,4.532-5.94,6.59c-2.301,2.058-4.831,3.898-7.589,5.521c1.49,0.445,2.97,0.874,4.438,1.286
			c1.467,0.412,2.874,0.767,4.219,1.066c1.346,0.301,2.632,0.54,3.855,0.718c1.224,0.179,2.357,0.267,3.403,0.267
			c2.514,0,4.687-0.278,6.521-0.834s3.359-1.173,4.571-1.852c1.213-0.679,2.12-1.308,2.722-1.886c0.601-0.578,0.922-0.9,0.967-0.967
			c0.268-0.312,0.601-0.468,1.001-0.468c0.355,0,0.649,0.129,0.883,0.384c0.234,0.255,0.352,0.551,0.352,0.885
			C308.367,389.962,308.278,390.218,308.101,390.462z M268.562,391.698c-2.225-0.646-4.334-1.196-6.325-1.652
			c-1.99-0.454-3.708-0.684-5.153-0.684c-0.846,0-1.599,0.078-2.254,0.233c-0.656,0.155-1.213,0.351-1.668,0.583
			c-0.456,0.234-0.806,0.507-1.05,0.819c-0.245,0.311-0.367,0.61-0.367,0.9c0,0.267,0.1,0.545,0.3,0.833
			c0.2,0.29,0.516,0.546,0.95,0.769c0.434,0.222,0.986,0.405,1.652,0.55c0.668,0.146,1.479,0.217,2.437,0.217
			c1.623,0,3.408-0.211,5.354-0.634C264.383,393.209,266.425,392.565,268.562,391.698z"/>
	</g>
</g>
</svg>
