<?xml version="1.0" encoding="utf-8"?>
<!-- Generator: Adobe Illustrator 15.0.2, SVG Export Plug-In . SVG Version: 6.00 Build 0)  -->
<!DOCTYPE svg PUBLIC "-//W3C//DTD SVG 1.1//EN" "http://www.w3.org/Graphics/SVG/1.1/DTD/svg11.dtd">
<svg version="1.1" id="Lager_1" xmlns="http://www.w3.org/2000/svg" xmlns:xlink="http://www.w3.org/1999/xlink" x="0px" y="0px"
	 width="397.983px" height="599.734px" viewBox="0 0 397.983 599.734" enable-background="new 0 0 397.983 599.734"
	 xml:space="preserve">
<g>
	<path fill="#F0AF85" d="M266.481,349.027h-25.696v-65.948h-83.656v65.948h-25.627C78.25,441.406,0.069,417.296,0.069,470.138
		v129.597h397.846"/>
	<path fill="#EF9A66" d="M157.129,283.079v65.948h-25.627c-97.701,0,0.188,141.303-77.986,149.155L0.069,599.734h198.922v-4.125
		V349.051v-0.023v-65.948H157.129z"/>
	<g>
		<path fill="#EDBB9A" d="M284.822,220.479c0,44.44-36.025,80.466-80.467,80.466h-10.729c-44.44,0-80.467-36.026-80.467-80.466
			v-90.526c0-44.44,36.026-80.467,80.467-80.467h10.729c44.441,0,80.467,36.026,80.467,80.467V220.479z"/>
		<path fill="#F0AF85" d="M199.609,300.945h-5.982c-44.44,0-80.467-36.026-80.467-80.466v-90.526
			c0-44.44,36.026-80.467,80.467-80.467h5.982V300.945z"/>
		<rect x="187.234" y="192.339" opacity="0.4" fill="#F8BD98" width="24.682" height="30.87"/>
		<circle fill="#F0AF85" stroke="#F0AF85" stroke-width="1.0115" stroke-miterlimit="10" cx="218.547" cy="191.103" r="9.797"/>
		<circle fill="#EF9A66" stroke="#EF9A66" stroke-width="1.0115" stroke-miterlimit="10" cx="179.326" cy="191.103" r="9.797"/>
		<rect x="187.234" y="192.339" opacity="0.5" fill="#EF9A66" width="12.375" height="37.555"/>
		<path fill="#F0A87A" stroke="#F0A87A" stroke-width="1.0115" stroke-miterlimit="10" d="M214.447,128.988v58.195
			c0,8.537-6.92,15.457-15.456,15.457l0,0c-8.537,0-15.458-6.92-15.458-15.457v-58.195"/>
		<path fill="#EF9A66" stroke="#EF9A66" stroke-width="1.0115" stroke-miterlimit="10" d="M198.991,128.988v3.256
			c-8.537,0-15.458-8.487-15.458,0.05v54.889c0,8.537,6.921,15.457,15.458,15.457l0,0V128.988z"/>
		<path opacity="0.7" fill="#EF9A66" d="M233.396,230.002c-0.771,0-1.342-0.027-1.637-0.045h-65.524
			c-1.522,0.094-10.422,0.436-15.862-4.038c-1.44-1.184-1.648-3.311-0.464-4.751c1.184-1.44,3.311-1.647,4.75-0.464
			c3.025,2.487,9.272,2.646,11.223,2.51l0.241-0.008l65.987,0.008c2.096,0.139,8.209-0.032,11.224-2.51
			c1.438-1.182,3.567-0.977,4.75,0.464c1.185,1.44,0.978,3.567-0.463,4.751C243.234,229.525,236.6,230.002,233.396,230.002z"/>
		<path fill="#EF9A66" d="M198.996,229.957h-32.762c-1.522,0.094-10.422,0.436-15.862-4.038c-1.44-1.184-1.648-3.311-0.464-4.751
			c1.184-1.44,3.311-1.647,4.75-0.464c3.025,2.487,9.272,2.646,11.223,2.51l0.241-0.008l33.487,0.008"/>
		<g>
			<path opacity="0.7" fill="#EF9A66" d="M199.609,250.597c-12.035,0-23.104-5.516-29.715-8.812
				c-0.659-0.329-1.275-0.635-1.845-0.913c-1.676-0.817-2.371-2.838-1.554-4.514s2.837-2.372,4.513-1.554
				c0.587,0.286,1.22,0.602,1.896,0.939c6.081,3.031,16.259,8.104,26.704,8.104c9.81,0,18.244-4.358,24.404-7.541
				c1.068-0.551,2.058-1.062,2.959-1.502c1.674-0.817,3.698-0.121,4.514,1.554c0.818,1.675,0.123,3.696-1.553,4.514
				c-0.861,0.419-1.805,0.907-2.82,1.433C220.72,245.606,211.061,250.597,199.609,250.597z"/>
			<path fill="#EF9A66" d="M199.609,250.597c-12.035,0-23.104-5.516-29.715-8.812c-0.659-0.329-1.275-0.635-1.845-0.913
				c-1.676-0.817-2.371-2.838-1.554-4.514s2.837-2.372,4.513-1.554c0.587,0.286,1.22,0.602,1.896,0.939
				c6.081,3.031,16.259,8.104,26.704,8.104"/>
		</g>
	</g>
	<path fill="#3B4A61" d="M270.822,349.073c-14.688,24.263-41.33,40.479-71.761,40.479c-30.433,0-57.073-16.216-71.761-40.479
		c-76.553,57.543-61.286,73.269-61.286,125.331L0.139,599.734h397.844L267.406,504.09
		C267.406,452.026,342.578,378.148,270.822,349.073z"/>
	<path fill="#344054" d="M127.162,348.936c14.688,24.262,41.329,40.478,71.761,40.478v210.206l-0.62-0.022H0"/>
	<path fill="#27303F" d="M119.943,353.306c8.074,13.337,19.479,24.499,32.983,32.279c13.93,8.024,29.835,12.266,45.997,12.266
		c16.161,0,32.067-4.241,45.997-12.266c13.504-7.78,24.908-18.942,32.982-32.279c0.762-1.26-3.967-1.438-3.95-1.814
		c-6.472-0.648-13.321-2.579-13.321-2.579c-14.129,20.171-36.834,32.062-61.708,32.062s-47.579-11.891-61.708-32.062"/>
	<polygon fill="#F0F0F0" points="137.951,326.043 157.129,326.043 157.129,349.027 148.13,349.027 	"/>
	<polygon fill="#F0F0F0" points="260.102,326.043 240.925,326.043 240.925,349.027 249.922,349.027 	"/>
	<path fill="#F8F8F8" d="M196.526,599.734l201.457-0.024V470.114c0-52.064-32.748-119.102-127.161-121.063
		c-14.688,24.262-41.475,102.722-71.905,102.722l0.074,147.962H196.526z"/>
	<path fill="#F2F2F2" d="M198.373,599.71H0.069V470.114c0-52.064,32.749-119.102,127.162-121.063
		c14.687,24.262,48.08,122.552,78.511,122.552v128.132L198.373,599.71z"/>
	<polygon fill="#FFFFFF" points="205.668,498.183 134.365,431.942 145.334,395.237 104.409,388.485 125.325,349.188 
		138.584,326.043 205.668,471.603 	"/>
	<polygon fill="#FFFFFF" points="198.923,481.026 250.514,414.787 252.719,395.237 293.644,388.485 272.727,349.188 
		259.469,326.043 185.961,454.446 	"/>
	<g>
		<rect x="85.054" y="454.977" fill="#FFD600" width="10.301" height="91.332"/>
		<rect x="85.054" y="451.194" fill="#C6C6C6" width="10.301" height="3.782"/>
		<rect x="85.054" y="443.951" fill="#E5595B" width="10.301" height="7.243"/>
		<rect x="85.054" y="454.977" fill="#FDC100" width="5.15" height="91.332"/>
		<rect x="85.055" y="451.194" fill="#B2B2B2" width="5.15" height="3.782"/>
		<rect x="85.055" y="443.951" fill="#D55455" width="5.15" height="7.243"/>
	</g>
	<path fill="#FFFFFF" d="M150.577,495.13v58.974c0,13.211-10.709,23.921-23.92,23.921H91.239c-13.21,0-23.919-10.71-23.919-23.921
		V495.13H150.577z"/>
	<path fill="#FFFFFF" d="M332.108,495.13v58.974c0,13.211-10.708,23.921-23.919,23.921h-35.418c-13.211,0-23.92-10.71-23.92-23.921
		V495.13H332.108z"/>
	<g>
		<circle fill="#FFFFFF" cx="190.084" cy="529.122" r="7.455"/>
		<g>
			<circle fill="#9D9D9C" cx="188.115" cy="529.122" r="1.055"/>
			<circle fill="#9D9D9C" cx="192.053" cy="529.122" r="1.055"/>
		</g>
	</g>
	<g>
		<circle fill="#FFFFFF" cx="190.084" cy="575.252" r="7.455"/>
		<g>
			<circle fill="#9D9D9C" cx="188.115" cy="575.251" r="1.055"/>
			<circle fill="#9D9D9C" cx="192.053" cy="575.251" r="1.055"/>
		</g>
	</g>
	<path fill="#634E42" d="M199.964,39.403c-78.223,0-88.491,59.494-88.491,97.884c0,0,1.06-78.254,88.491-75.761
		c74.449,2.124,88.491,75.761,88.491,75.761C288.455,98.897,263.382,39.403,199.964,39.403z"/>
	<path fill="#634E42" d="M251.406,55.974c0.52,27.049-35.545,48.988-79.391,48.988S92.625,83.028,92.625,55.974
		c0-13.424,8.75-25.585,22.923-34.434c0,0-9.574,24.025,15.719,30.1c-9.134-12.15-15.719-30.1-1.405-51.64
		c0,0,4.572,19.901,20.374,20.691C163.038,21.331,250.705,19.299,251.406,55.974z"/>
	<g>
		<g>
			
				<path fill="none" stroke="#3C3C3B" stroke-width="7.4438" stroke-linecap="round" stroke-linejoin="round" stroke-miterlimit="10" d="
				M179.467,127.312c-32.958-16.041-62.567,0.058-62.567,0.058c-4.415,2.108-7.689,7.209-6.535,15.383l2.506,19.67
				c0,0,1.172,20.042,40.005,18.279c0,0,21.121,0.383,29.516-17.526C182.391,163.176,194.245,134.503,179.467,127.312z"/>
			
				<path fill="#3C3C3B" stroke="#3C3C3B" stroke-width="2.6968" stroke-linecap="round" stroke-linejoin="round" stroke-miterlimit="10" d="
				M137.338,118.882l-35.659,5.479v12.473l5.883,2.259C107.563,139.094,113.076,123.017,137.338,118.882z"/>
			<path fill="#3C3C3B" d="M199.457,141.489c-7.895,0.24-10.287,12.337-10.287,12.337l-7.306-29.465c0,0,5.79,3.618,17.593,3.412"/>
		</g>
		<g>
			
				<path fill="none" stroke="#3C3C3B" stroke-width="7.4438" stroke-linecap="round" stroke-linejoin="round" stroke-miterlimit="10" d="
				M218.518,127.312c32.958-16.041,62.568,0.058,62.568,0.058c4.414,2.108,7.688,7.209,6.533,15.383l-2.505,19.67
				c0,0-1.172,20.042-40.005,18.279c0,0-21.123,0.383-29.516-17.526C215.594,163.176,203.738,134.503,218.518,127.312z"/>
			
				<path fill="#3C3C3B" stroke="#3C3C3B" stroke-width="2.6968" stroke-linecap="round" stroke-linejoin="round" stroke-miterlimit="10" d="
				M260.646,118.882l35.658,5.479v12.473l-5.884,2.259C290.421,139.094,284.908,123.017,260.646,118.882z"/>
			<path fill="#3C3C3B" d="M198.527,141.489c7.895,0.24,10.287,12.337,10.287,12.337l7.306-29.465c0,0-5.79,3.618-17.593,3.412"/>
		</g>
	</g>
</g>
</svg>
