<?xml version="1.0" encoding="utf-8"?>
<!-- Generator: Adobe Illustrator 15.0.2, SVG Export Plug-In . SVG Version: 6.00 Build 0)  -->
<!DOCTYPE svg PUBLIC "-//W3C//DTD SVG 1.1//EN" "http://www.w3.org/Graphics/SVG/1.1/DTD/svg11.dtd">
<svg version="1.1" id="Lager_1" xmlns="http://www.w3.org/2000/svg" xmlns:xlink="http://www.w3.org/1999/xlink" x="0px" y="0px"
	 width="100px" height="182.709px" viewBox="0 0 100 182.709" enable-background="new 0 0 100 182.709" xml:space="preserve">
<g>
	
		<rect x="5.832" y="11.194" fill="#DC4037" stroke="#DC4037" stroke-width="0.6014" stroke-miterlimit="10" width="87.004" height="171.214"/>
	<g>
		
			<line fill="none" stroke="#BF3B32" stroke-width="8.0001" stroke-miterlimit="10" x1="17.834" y1="12.259" x2="17.834" y2="182.408"/>
		
			<line fill="none" stroke="#BF3B32" stroke-width="8.0001" stroke-miterlimit="10" x1="33.586" y1="12.259" x2="33.586" y2="182.408"/>
		
			<line fill="none" stroke="#BF3B32" stroke-width="8.0001" stroke-miterlimit="10" x1="49.334" y1="12.259" x2="49.334" y2="182.408"/>
		
			<line fill="none" stroke="#BF3B32" stroke-width="8.0001" stroke-miterlimit="10" x1="65.086" y1="12.259" x2="65.086" y2="182.408"/>
		
			<line fill="none" stroke="#BF3B32" stroke-width="8.0001" stroke-miterlimit="10" x1="80.834" y1="12.259" x2="80.834" y2="182.408"/>
	</g>
	<rect fill="#FFFFFF" width="100" height="11.194"/>
	<polyline fill="none" stroke="#FFFFFF" stroke-width="4.7318" stroke-miterlimit="10" points="17.834,182.408 17.834,26.649 
		80.834,26.649 80.834,182.408 	"/>
	
		<line fill="none" stroke="#3F3E40" stroke-width="4.7318" stroke-linecap="round" stroke-miterlimit="10" x1="17.834" y1="47.943" x2="39.047" y2="47.943"/>
	
		<line fill="none" stroke="#3F3E40" stroke-width="4.7318" stroke-linecap="round" stroke-miterlimit="10" x1="17.834" y1="148.101" x2="39.047" y2="148.101"/>
	<path id="favorite-2-icon" fill="#FFFFFF" d="M58.711,64.523C56.899,60.819,51.4,61.105,50,64.334
		c-1.398-3.229-6.896-3.515-8.709,0.189C39.156,68.89,44.108,73.049,50,79.008C55.893,73.05,60.846,68.891,58.711,64.523z"/>
</g>
</svg>
