<?xml version="1.0" encoding="utf-8"?>
<!-- Generator: Adobe Illustrator 15.0.2, SVG Export Plug-In . SVG Version: 6.00 Build 0)  -->
<!DOCTYPE svg PUBLIC "-//W3C//DTD SVG 1.1//EN" "http://www.w3.org/Graphics/SVG/1.1/DTD/svg11.dtd">
<svg version="1.1" id="Lager_1" xmlns="http://www.w3.org/2000/svg" xmlns:xlink="http://www.w3.org/1999/xlink" x="0px" y="0px"
	 width="51.421px" height="15.348px" viewBox="0 0 51.421 15.348" enable-background="new 0 0 51.421 15.348" xml:space="preserve">
<g>
	<path fill="#3E3D3F" d="M8.828,8.817L7.414,8.812l-1.606,4.475c-0.187,0.528-0.591,0.794-1.166,0.795l-0.461-0.001
		c-0.562,0.003-0.951-0.262-1.135-0.795l-1.63-4.467L0,8.818l1.692,4.692c0.42,1.158,1.287,1.727,2.635,1.729l0.168,0.003
		c1.345-0.001,2.214-0.576,2.63-1.739L8.828,8.817z"/>
	<path fill="#3E3D3F" d="M16.645,15.235l-1.686-4.691c-0.421-1.158-1.286-1.731-2.638-1.732l-0.179,0.003
		c-1.351-0.002-2.215,0.573-2.637,1.733L7.804,15.24l1.418-0.002l1.613-4.472c0.185-0.53,0.589-0.798,1.161-0.797l0.48,0.004
		c0.554-0.003,0.942,0.266,1.129,0.791l0.735,2.018l-3.379,0.003l-0.323,1.156h4.124l0.47,1.292L16.645,15.235z"/>
	<path fill="#3E3D3F" d="M40.126,15.333l-6.068,0.003l-0.005-6.623l6.071-0.005c0.516-0.003,0.965,0.172,1.372,0.533
		c0.403,0.358,0.605,0.798,0.607,1.3l0.002,2.956c0.002,0.544-0.196,0.988-0.57,1.323C41.145,15.16,40.671,15.333,40.126,15.333z
		 M34.258,15.135l5.871-0.001c0.494-0.001,0.918-0.154,1.266-0.463c0.339-0.295,0.512-0.692,0.51-1.172l-0.004-2.959
		c0.001-0.45-0.178-0.828-0.54-1.146c-0.367-0.328-0.771-0.487-1.237-0.486L34.25,8.911L34.258,15.135z M31.292,15.338l-5.697,0.005
		l0.002-1.36h5.695c0.391-0.001,0.563-0.15,0.563-0.473l-0.002-0.829l-4.613,0.003c-0.541-0.003-1.009-0.169-1.394-0.499
		c-0.382-0.345-0.582-0.791-0.58-1.336l-0.002-2.13l1.411,0.001v2.127c0.002,0.332,0.185,0.488,0.564,0.491l4.616-0.005
		l-0.002-2.619l1.41,0.002l0.001,4.792c0.004,0.534-0.193,0.979-0.583,1.32C32.297,15.164,31.83,15.336,31.292,15.338z
		 M25.794,15.142l5.498-0.003c0.488,0.002,0.909-0.154,1.255-0.467c0.347-0.295,0.521-0.695,0.52-1.169L33.063,8.91l-1.012-0.001
		v2.621l-4.81,0.001c-0.49,0.004-0.762-0.245-0.763-0.682l-0.004-1.935l-1.013-0.002l0.001,1.938
		c-0.001,0.479,0.174,0.874,0.519,1.179c0.345,0.308,0.755,0.452,1.26,0.45l4.816,0.003l-0.003,1.022
		c-0.002,0.312-0.133,0.676-0.766,0.675l-5.492,0.002L25.794,15.142z M22.829,15.344l-5.061,0.004v-1.35l5.056-0.002
		c0.144-0.001,0.263-0.047,0.396-0.147c0.114-0.097,0.17-0.198,0.168-0.335l0.002-0.331c0-0.333-0.179-0.479-0.565-0.476
		l-3.818-0.01c-0.543-0.002-1.013-0.169-1.39-0.496c-0.388-0.345-0.587-0.789-0.587-1.326l-0.001-0.319
		c-0.001-0.507,0.204-0.94,0.607-1.299c0.401-0.354,0.859-0.535,1.371-0.536l5.34,0.001l0.005,1.345l-5.345,0.005
		c-0.146-0.001-0.265,0.046-0.385,0.15c-0.125,0.104-0.177,0.207-0.178,0.333l0,0.32c-0.001,0.329,0.175,0.477,0.562,0.474
		l3.817,0.009c0.545-0.001,1.012,0.16,1.383,0.491c0.395,0.345,0.596,0.797,0.597,1.331l0.002,0.328c0,0.519-0.204,0.957-0.61,1.302
		C23.789,15.17,23.342,15.344,22.829,15.344z M17.968,15.142l4.858,0.002c0.469-0.002,0.871-0.16,1.237-0.484
		c0.364-0.312,0.539-0.686,0.541-1.15l-0.001-0.33c0-0.483-0.172-0.866-0.53-1.185c-0.327-0.292-0.755-0.439-1.245-0.435
		l-3.822-0.011c-0.627,0-0.761-0.369-0.76-0.675l0.003-0.322c-0.004-0.186,0.076-0.345,0.242-0.482
		c0.162-0.134,0.324-0.199,0.515-0.203l5.146-0.002l0.001-0.947l-5.143,0.002c-0.467-0.001-0.871,0.159-1.233,0.484
		c-0.369,0.32-0.546,0.7-0.545,1.148v0.32c0.003,0.478,0.174,0.869,0.519,1.175c0.342,0.301,0.758,0.449,1.263,0.45l3.817,0.009
		c0.629-0.003,0.762,0.363,0.761,0.677v0.321c0,0.198-0.081,0.358-0.246,0.502c-0.164,0.128-0.332,0.187-0.513,0.189l-4.863-0.002
		L17.968,15.142z M40.126,14.174l-4.864,0.001l-0.005-4.319l4.869,0.002c0.191,0.002,0.354,0.063,0.517,0.203
		c0.163,0.137,0.244,0.298,0.242,0.481l0.004,2.959C40.889,13.81,40.757,14.176,40.126,14.174z M35.457,13.979l4.671-0.005
		c0.391,0,0.564-0.147,0.562-0.477l-0.002-2.951c0.001-0.132-0.055-0.238-0.176-0.334c-0.122-0.106-0.246-0.157-0.391-0.154
		l-4.665,0.002V13.979z"/>
	<path fill="#3E3D3F" d="M45.638,11.565c1.197-0.005,2.154-0.969,2.157-2.16c-0.002-0.594-0.243-1.128-0.634-1.517l-1.524-1.522
		l-1.511,1.516c-0.397,0.393-0.635,0.932-0.637,1.527C43.489,10.599,44.457,11.561,45.638,11.565 M44.881,8.642l0.755-0.755
		l0.767,0.757c0.192,0.194,0.312,0.466,0.312,0.762c-0.001,0.598-0.479,1.079-1.077,1.078c-0.594-0.001-1.071-0.482-1.074-1.075
		C44.565,9.109,44.687,8.837,44.881,8.642"/>
	<path fill="#3E3D3F" d="M45.636,0c-1.193,0-2.153,0.963-2.149,2.153c-0.004,0.596,0.244,1.13,0.629,1.524l1.522,1.517l1.513-1.514
		c0.396-0.391,0.636-0.936,0.638-1.532C47.792,0.959,46.822-0.001,45.636,0 M46.397,2.922L45.641,3.68l-0.764-0.767
		c-0.196-0.193-0.314-0.461-0.314-0.761c-0.001-0.592,0.478-1.073,1.075-1.072c0.594-0.002,1.075,0.481,1.073,1.073
		C46.717,2.452,46.593,2.72,46.397,2.922"/>
	<path fill="#3E3D3F" d="M51.421,5.78c-0.002-1.19-0.966-2.155-2.153-2.153c-0.596,0.001-1.134,0.241-1.521,0.633l-1.524,1.518
		l1.518,1.516c0.39,0.392,0.931,0.639,1.532,0.634C50.459,7.931,51.419,6.966,51.421,5.78 M48.502,6.536l-0.759-0.757l0.758-0.762
		c0.196-0.193,0.467-0.312,0.762-0.314c0.598,0.001,1.078,0.481,1.076,1.076c-0.001,0.597-0.479,1.075-1.077,1.077
		C48.967,6.856,48.699,6.738,48.502,6.536"/>
	<path fill="#3E3D3F" d="M39.862,5.788c-0.001,1.184,0.961,2.148,2.15,2.146c0.598,0.004,1.131-0.24,1.521-0.629l1.519-1.519
		L43.538,4.27c-0.389-0.395-0.93-0.642-1.529-0.64C40.82,3.63,39.855,4.594,39.862,5.788 M42.776,5.021l0.763,0.76l-0.765,0.763
		c-0.191,0.194-0.464,0.314-0.761,0.314c-0.594,0.002-1.074-0.48-1.072-1.078c-0.005-0.592,0.477-1.076,1.074-1.074
		C42.314,4.702,42.579,4.827,42.776,5.021"/>
</g>
</svg>
