<?xml version="1.0" encoding="utf-8"?>
<!-- Generator: Adobe Illustrator 15.0.2, SVG Export Plug-In . SVG Version: 6.00 Build 0)  -->
<!DOCTYPE svg PUBLIC "-//W3C//DTD SVG 1.1//EN" "http://www.w3.org/Graphics/SVG/1.1/DTD/svg11.dtd">
<svg version="1.1" id="Lager_1" xmlns="http://www.w3.org/2000/svg" xmlns:xlink="http://www.w3.org/1999/xlink" x="0px" y="0px"
	 width="262.462px" height="176.881px" viewBox="0 0 262.462 176.881" enable-background="new 0 0 262.462 176.881"
	 xml:space="preserve">
<g>
	<path fill="#3C3C3B" d="M12.764,39.55C2.321,51.764-2.728,64.59,1.488,68.195l0.005-0.006c1.106,0.945,2.769,0.815,3.714-0.29
		l2.396-2.803l20.719-1.385l15.486,13.24l10.727-12.547L39.05,51.165l-1.847-20.688l2.396-2.803c0.946-1.105,0.815-2.769-0.29-3.715
		C35.091,20.356,23.208,27.334,12.764,39.55z"/>
	<circle fill="none" stroke="#FFCF46" stroke-width="11.4286" stroke-miterlimit="10" cx="208.749" cy="53.714" r="48"/>
	<path fill="#FFD941" d="M224.818,173.395c0,1.925-1.562,3.486-3.486,3.486h-104.23c-1.925,0-3.486-1.562-3.486-3.486V44.88
		c0-1.924,1.562-3.485,3.486-3.485h104.23c1.925,0,3.486,1.562,3.486,3.485V173.395z"/>
	<path fill="#FFCF46" d="M167.473,176.881h-50.372c-1.925,0-3.486-1.562-3.486-3.486V44.88c0-1.924,1.562-3.485,3.486-3.485h50.372
		V176.881z"/>
	<polygon fill="#FFCF46" points="150.574,129.394 139.726,160.758 43.619,76.545 54.346,64.177 	"/>
	<g>
		<circle fill="#FFFFFF" cx="8.112" cy="56.847" r="1.14"/>
		<circle fill="#FFFFFF" cx="8.413" cy="51.856" r="1.14"/>
		<circle fill="#FFFFFF" cx="13.597" cy="45.794" r="1.14"/>
		<circle fill="#FFFFFF" cx="18.781" cy="39.73" r="1.14"/>
		<circle fill="#FFFFFF" cx="23.965" cy="33.667" r="1.14"/>
		<circle fill="#FFFFFF" cx="13.296" cy="50.784" r="1.14"/>
		<circle fill="#FFFFFF" cx="18.48" cy="44.72" r="1.14"/>
		<circle fill="#FFFFFF" cx="23.664" cy="38.657" r="1.14"/>
		<circle fill="#FFFFFF" cx="28.847" cy="32.594" r="1.14"/>
	</g>
</g>
</svg>
