<?xml version="1.0" encoding="utf-8"?>
<!-- Generator: Adobe Illustrator 15.0.2, SVG Export Plug-In . SVG Version: 6.00 Build 0)  -->
<!DOCTYPE svg PUBLIC "-//W3C//DTD SVG 1.1//EN" "http://www.w3.org/Graphics/SVG/1.1/DTD/svg11.dtd">
<svg version="1.1" xmlns="http://www.w3.org/2000/svg" xmlns:xlink="http://www.w3.org/1999/xlink" x="0px" y="0px"
	 width="53.511px" height="79.414px" viewBox="0 0 53.511 79.414" enable-background="new 0 0 53.511 79.414" xml:space="preserve">
<g id="Lager_1">
</g>
<g id="Lager_2">
	<g>
		<g>
			
				<path fill="#B1DEEE" stroke="#B1DEEE" stroke-width="1.1937" stroke-linecap="round" stroke-linejoin="round" stroke-miterlimit="10" d="
				M11.779,33.097c0,0,3.864,0.142,7.265-2.568c7.549-6.859,1.862-15.1,1.862-15.1L11.779,0.597L2.653,15.429
				c0,0-5.689,8.24,1.86,15.1C7.915,33.238,11.779,33.097,11.779,33.097z"/>
			
				<path opacity="0.4" fill="#7CC1DB" stroke="#7CC1DB" stroke-width="1.1937" stroke-linecap="round" stroke-linejoin="round" stroke-miterlimit="10" d="
				M11.779,33.097c0,0-3.865,0.142-7.266-2.568c-7.55-6.859-1.86-15.1-1.86-15.1l9.126-14.832V33.097z"/>
		</g>
		<g>
			
				<path fill="#B1DEEE" stroke="#B1DEEE" stroke-width="0.8134" stroke-linecap="round" stroke-linejoin="round" stroke-miterlimit="10" d="
				M45.486,25.774c0,0,2.633,0.097,4.951-1.75c5.143-4.674,1.268-10.288,1.268-10.288L45.486,3.63l-6.219,10.106
				c0,0-3.877,5.614,1.268,10.288C42.853,25.871,45.486,25.774,45.486,25.774z"/>
			
				<path opacity="0.4" fill="#7CC1DB" stroke="#7CC1DB" stroke-width="0.8134" stroke-linecap="round" stroke-linejoin="round" stroke-miterlimit="10" d="
				M45.486,25.774c0,0-2.633,0.097-4.951-1.75c-5.145-4.674-1.268-10.288-1.268-10.288L45.486,3.63V25.774z"/>
		</g>
		<g>
			
				<path fill="#B1DEEE" stroke="#B1DEEE" stroke-width="1.7569" stroke-linecap="round" stroke-linejoin="round" stroke-miterlimit="10" d="
				M31.861,78.534c0,0,5.687,0.209,10.692-3.78c11.11-10.095,2.74-22.222,2.74-22.222l-13.432-21.83l-13.433,21.83
				c0,0-8.374,12.127,2.738,22.222C26.174,78.743,31.861,78.534,31.861,78.534z"/>
			
				<path opacity="0.4" fill="#7CC1DB" stroke="#7CC1DB" stroke-width="1.7569" stroke-linecap="round" stroke-linejoin="round" stroke-miterlimit="10" d="
				M31.861,78.534c0,0-5.687,0.209-10.695-3.78c-11.112-10.095-2.738-22.222-2.738-22.222l13.433-21.83V78.534z"/>
		</g>
	</g>
</g>
</svg>
