<?xml version="1.0" encoding="utf-8"?>
<!-- Generator: Adobe Illustrator 15.0.2, SVG Export Plug-In . SVG Version: 6.00 Build 0)  -->
<!DOCTYPE svg PUBLIC "-//W3C//DTD SVG 1.1//EN" "http://www.w3.org/Graphics/SVG/1.1/DTD/svg11.dtd">
<svg version="1.1" id="Lager_1" xmlns="http://www.w3.org/2000/svg" xmlns:xlink="http://www.w3.org/1999/xlink" x="0px" y="0px"
	 width="207.533px" height="209.092px" viewBox="0 0 207.533 209.092" enable-background="new 0 0 207.533 209.092"
	 xml:space="preserve">
<g>
	<g>
		<polygon fill="#F4FAFD" points="177.123,208.322 0.77,208.322 0.77,111.433 88.947,49.02 177.123,111.433 		"/>
		<polygon opacity="0.12" fill="#05B9E8" stroke="#05B9E8" stroke-width="1.5404" stroke-miterlimit="10" points="88.947,208.322 
			0.77,208.322 0.77,111.433 88.947,49.02 		"/>
		<g>
			<g>
				<g>
					<path fill="#45A260" d="M81.538,208.953v-29.107c-0.523-8.664-0.626-9.031-14.467-11.404
						c-35.395-6.051-30.222-54.089-30.222-54.089s35.054-0.086,45.801,22.507c0,0,4.652,11.078,4.652,35.426v36.668H81.538z"/>
				</g>
			</g>
			<g>
				<g>
					<path fill="#53AF6E" d="M98.243,208.953V198.21c0.523-8.662,0.625-9.029,14.466-11.402
						c35.397-6.053,30.224-54.088,30.224-54.088s-35.057-0.088-45.802,22.504c0,0-4.652,11.078-4.652,35.426v18.303H98.243z"/>
				</g>
			</g>
		</g>
	</g>
	<g>
		<path fill="#FFD041" d="M207.533,51.875c0,0-32.232,20.988-10.033,49.142c0,0-38.021-7.768-41.842,27.655
			c0,0-17.629-30.639-49.142-10.031c0,0,10.929-33.029-27.654-41.842c0,0,31.45-18.39,10.032-49.144c0,0,36.556,8.44,41.842-27.654
			c0,0,18.94,30.805,49.142,10.033C179.877,10.033,171.972,45.791,207.533,51.875z"/>
		<path fill="#FFE061" d="M170.527,86.547c-12.27,15.091-34.447,17.385-49.54,5.116c-15.095-12.27-17.383-34.448-5.118-49.54
			c12.268-15.092,34.445-17.383,49.54-5.115C180.502,49.276,182.792,71.455,170.527,86.547z"/>
	</g>
</g>
</svg>
