<?xml version="1.0" encoding="utf-8"?>
<!-- Generator: Adobe Illustrator 15.0.2, SVG Export Plug-In . SVG Version: 6.00 Build 0)  -->
<!DOCTYPE svg PUBLIC "-//W3C//DTD SVG 1.1//EN" "http://www.w3.org/Graphics/SVG/1.1/DTD/svg11.dtd">
<svg version="1.1" id="Lager_1" xmlns="http://www.w3.org/2000/svg" xmlns:xlink="http://www.w3.org/1999/xlink" x="0px" y="0px"
	 width="564.123px" height="517.759px" viewBox="0 0 564.123 517.759" enable-background="new 0 0 564.123 517.759"
	 xml:space="preserve">
<g>
	<g>
		<polygon fill="#F4FAFD" points="564.123,516.989 387.77,516.989 387.77,420.1 475.947,357.686 564.123,420.1 		"/>
		<polygon opacity="0.12" fill="#05B9E8" stroke="#05B9E8" stroke-width="1.5404" stroke-miterlimit="10" points="475.947,516.989 
			387.77,516.989 387.77,420.1 475.947,357.686 		"/>
		<g>
			<g>
				<g>
					<path fill="#45A260" d="M468.538,517.619v-29.107c-0.523-8.663-0.626-9.03-14.467-11.403
						c-35.395-6.051-30.222-54.09-30.222-54.09s35.054-0.086,45.801,22.508c0,0,4.652,11.078,4.652,35.425v36.668H468.538z"/>
				</g>
			</g>
			<g>
				<g>
					<path fill="#53AF6E" d="M485.243,517.619v-10.741c0.523-8.662,0.625-9.03,14.466-11.403
						c35.397-6.052,30.224-54.087,30.224-54.087s-35.057-0.088-45.802,22.504c0,0-4.652,11.078-4.652,35.426v18.302H485.243z"/>
				</g>
			</g>
		</g>
	</g>
	<g>
		<polygon fill="#F4FAFD" points="370.623,516.989 194.27,516.989 194.27,420.1 282.447,357.686 370.623,420.1 		"/>
		<polygon opacity="0.12" fill="#05B9E8" stroke="#05B9E8" stroke-width="1.5404" stroke-miterlimit="10" points="282.447,516.989 
			194.27,516.989 194.27,420.1 282.447,357.686 		"/>
		<g>
			<g>
				<g>
					<path fill="#45A260" d="M275.038,517.619v-29.107c-0.523-8.663-0.626-9.03-14.467-11.403
						c-35.395-6.051-30.222-54.09-30.222-54.09s35.054-0.086,45.801,22.508c0,0,4.652,11.078,4.652,35.425v36.668H275.038z"/>
				</g>
			</g>
			<g>
				<g>
					<path fill="#53AF6E" d="M291.743,517.619v-10.741c0.523-8.662,0.625-9.03,14.466-11.403
						c35.397-6.052,30.224-54.087,30.224-54.087s-35.057-0.088-45.802,22.504c0,0-4.652,11.078-4.652,35.426v18.302H291.743z"/>
				</g>
			</g>
		</g>
	</g>
	<g>
		<polygon fill="#F4FAFD" points="177.123,516.989 0.77,516.989 0.77,420.1 88.947,357.686 177.123,420.1 		"/>
		<polygon opacity="0.12" fill="#05B9E8" stroke="#05B9E8" stroke-width="1.5404" stroke-miterlimit="10" points="88.947,516.989 
			0.77,516.989 0.77,420.1 88.947,357.686 		"/>
		<g>
			<g>
				<g>
					<path fill="#45A260" d="M81.538,517.619v-29.107c-0.523-8.663-0.626-9.03-14.467-11.403
						c-35.395-6.051-30.222-54.09-30.222-54.09s35.054-0.086,45.801,22.508c0,0,4.652,11.078,4.652,35.425v36.668H81.538z"/>
				</g>
			</g>
			<g>
				<g>
					<path fill="#53AF6E" d="M98.243,517.619v-10.741c0.523-8.662,0.625-9.03,14.466-11.403
						c35.397-6.052,30.224-54.087,30.224-54.087s-35.057-0.088-45.802,22.504c0,0-4.652,11.078-4.652,35.426v18.302H98.243z"/>
				</g>
			</g>
		</g>
	</g>
	<g>
		<polygon fill="#F4FAFD" points="280.802,332.989 104.45,332.989 104.45,236.1 192.626,173.687 280.802,236.1 		"/>
		<polygon opacity="0.12" fill="#05B9E8" stroke="#05B9E8" stroke-width="1.5404" stroke-miterlimit="10" points="192.626,332.989 
			104.45,332.989 104.45,236.1 192.626,173.687 		"/>
		<g>
			<g>
				<g>
					<path fill="#45A260" d="M185.217,333.619v-29.107c-0.523-8.663-0.626-9.03-14.467-11.403
						c-35.395-6.051-30.222-54.089-30.222-54.089s35.054-0.086,45.801,22.507c0,0,4.652,11.078,4.652,35.425v36.668H185.217z"/>
				</g>
			</g>
			<g>
				<g>
					<path fill="#53AF6E" d="M201.922,333.619v-10.741c0.523-8.662,0.625-9.03,14.466-11.403
						c35.397-6.052,30.224-54.087,30.224-54.087s-35.057-0.087-45.802,22.504c0,0-4.652,11.078-4.652,35.426v18.302H201.922z"/>
				</g>
			</g>
		</g>
	</g>
	<g>
		<polygon fill="#F4FAFD" points="475.947,332.989 299.594,332.989 299.594,236.1 387.771,173.687 475.947,236.1 		"/>
		<polygon opacity="0.12" fill="#05B9E8" stroke="#05B9E8" stroke-width="1.5404" stroke-miterlimit="10" points="387.771,332.989 
			299.594,332.989 299.594,236.1 387.771,173.687 		"/>
		<g>
			<g>
				<g>
					<path fill="#45A260" d="M380.362,333.619v-29.107c-0.523-8.663-0.626-9.03-14.467-11.403
						c-35.395-6.051-30.222-54.089-30.222-54.089s35.054-0.086,45.801,22.507c0,0,4.652,11.078,4.652,35.425v36.668H380.362z"/>
				</g>
			</g>
			<g>
				<g>
					<path fill="#53AF6E" d="M397.067,333.619v-10.741c0.523-8.662,0.625-9.03,14.466-11.403
						c35.397-6.052,30.224-54.087,30.224-54.087s-35.057-0.087-45.802,22.504c0,0-4.652,11.078-4.652,35.426v18.302H397.067z"/>
				</g>
			</g>
		</g>
	</g>
	<g>
		<polygon fill="#F4FAFD" points="379.126,160.791 202.774,160.791 202.774,63.902 290.951,1.489 379.126,63.902 		"/>
		<polygon opacity="0.12" fill="#05B9E8" stroke="#05B9E8" stroke-width="1.5404" stroke-miterlimit="10" points="290.951,160.791 
			202.774,160.791 202.774,63.902 290.951,1.489 		"/>
		<g>
			<g>
				<g>
					<path fill="#45A260" d="M283.542,161.421v-29.107c-0.523-8.663-0.626-9.03-14.467-11.403
						c-35.395-6.051-30.222-54.089-30.222-54.089s35.054-0.086,45.801,22.507c0,0,4.652,11.078,4.652,35.425v36.668H283.542z"/>
				</g>
			</g>
			<g>
				<g>
					<path fill="#53AF6E" d="M300.247,161.421V150.68c0.523-8.662,0.625-9.03,14.466-11.403
						c35.397-6.052,30.224-54.087,30.224-54.087s-35.057-0.087-45.802,22.504c0,0-4.652,11.078-4.652,35.426v18.302H300.247z"/>
				</g>
			</g>
		</g>
	</g>
</g>
</svg>
