<?xml version="1.0" encoding="utf-8"?>
<!-- Generator: Adobe Illustrator 15.0.2, SVG Export Plug-In . SVG Version: 6.00 Build 0)  -->
<!DOCTYPE svg PUBLIC "-//W3C//DTD SVG 1.1//EN" "http://www.w3.org/Graphics/SVG/1.1/DTD/svg11.dtd">
<svg version="1.1" id="Lager_1" xmlns="http://www.w3.org/2000/svg" xmlns:xlink="http://www.w3.org/1999/xlink" x="0px" y="0px"
	 width="2441.583px" height="1307.893px" viewBox="0 0 2441.583 1307.893" enable-background="new 0 0 2441.583 1307.893"
	 xml:space="preserve">
<path fill="#BFD2E2" d="M0,0v1307.893h2441.583V0H0z"/>
<g>
	<circle fill="#BFD2E2" cx="1407.635" cy="653.946" r="93.421"/>
	<circle fill="#BFD2E2" cx="1220.792" cy="467.104" r="93.421"/>
	<circle fill="#BFD2E2" cx="1220.792" cy="653.946" r="93.422"/>
	<circle fill="#BFD2E2" cx="1220.792" cy="280.263" r="93.421"/>
	<circle fill="#BFD2E2" cx="1220.792" cy="93.421" r="93.421"/>
	<circle fill="#BFD2E2" cx="1220.792" cy="1214.473" r="93.421"/>
	<circle fill="#BFD2E2" cx="1220.792" cy="1027.631" r="93.421"/>
	<circle fill="#BFD2E2" cx="1220.792" cy="840.789" r="93.421"/>
	<circle fill="#BFD2E2" cx="1597.635" cy="653.946" r="93.421"/>
	<circle fill="#BFD2E2" cx="1784.477" cy="653.946" r="93.421"/>
	<circle fill="#BFD2E2" cx="1974.477" cy="653.946" r="93.421"/>
	<circle fill="#BFD2E2" cx="2161.319" cy="653.946" r="93.421"/>
	<circle fill="#BFD2E2" cx="2348.161" cy="653.946" r="93.421"/>
	<circle fill="#BFD2E2" cx="843.95" cy="653.946" r="93.421"/>
	<circle fill="#BFD2E2" cx="1033.95" cy="653.946" r="93.421"/>
	<circle fill="#BFD2E2" cx="467.107" cy="653.946" r="93.421"/>
	<circle fill="#BFD2E2" cx="280.264" cy="653.946" r="93.421"/>
	<circle fill="#BFD2E2" cx="93.421" cy="653.946" r="93.421"/>
	<circle fill="#BFD2E2" cx="657.107" cy="653.946" r="93.421"/>
</g>
<path fill="#FFFFFF" stroke="#FFFFFF" stroke-width="1.5414" stroke-linecap="round" stroke-linejoin="round" stroke-miterlimit="10" d="
	M1073.056,507.763c-1.569,0-3.071,0.299-4.456,0.837c-0.782-8.629-8.055-15.412-16.883-15.412c-2.898,0-5.629,0.731-8.018,2.019
	c-2.913-8.279-10.81-14.233-20.073-14.233c-11.732,0-21.278,9.546-21.278,21.278c0,0.936,0.066,1.854,0.184,2.757
	c-1.784-0.812-3.765-1.269-5.852-1.269c-7.815,0-14.173,6.356-14.173,14.173c0,3.786,1.475,7.346,4.151,10.021
	c0.542,0.541,1.275,0.847,2.042,0.847l91.819,0.001h0.001c0.892,0,1.732-0.412,2.279-1.115c1.697-2.183,2.593-4.799,2.593-7.566
	C1085.392,513.297,1079.859,507.763,1073.056,507.763z"/>
<path fill="#FFFFFF" stroke="#FFFFFF" stroke-width="1.5414" stroke-linecap="round" stroke-linejoin="round" stroke-miterlimit="10" d="
	M1421.056,787.763c-1.57,0-3.072,0.299-4.457,0.837c-0.781-8.629-8.055-15.412-16.883-15.412c-2.898,0-5.629,0.731-8.018,2.019
	c-2.912-8.279-10.809-14.233-20.072-14.233c-11.732,0-21.279,9.546-21.279,21.278c0,0.936,0.066,1.854,0.184,2.757
	c-1.783-0.812-3.764-1.269-5.852-1.269c-7.814,0-14.172,6.356-14.172,14.173c0,3.786,1.475,7.346,4.15,10.021
	c0.543,0.541,1.275,0.847,2.043,0.847l91.818,0.001h0.002c0.891,0,1.732-0.412,2.279-1.115c1.697-2.183,2.592-4.799,2.592-7.566
	C1433.392,793.297,1427.859,787.763,1421.056,787.763z"/>
<path fill="#FFFFFF" d="M835.845,537.777c0.005-0.261,0.021-0.522,0.021-0.785c0-17.709-14.408-32.115-32.115-32.115
	c-12.436,0-23.233,7.107-28.567,17.47c-4.242-4.229-10.068-6.746-16.2-6.746c-10.84,0-20.056,7.474-22.361,17.939
	c-3.18-1.335-6.548-2.012-10.03-2.012c-14.358,0-26.041,11.683-26.041,26.041c0,4.503,1.168,8.942,3.377,12.836
	c0.305,0.535,0.874,0.867,1.49,0.867h129.986l14.119,0.001l0,0c0.487,0,0.955-0.208,1.276-0.571c3.241-3.63,5.026-8.31,5.026-13.179
	C855.828,547.063,848.321,536.992,835.845,537.777z"/>
<path fill="#FFFFFF" d="M1079.533,769.862c0.003-0.157,0.012-0.315,0.012-0.476c0-10.736-8.735-19.471-19.47-19.471
	c-7.54,0-14.086,4.31-17.319,10.592c-2.572-2.564-6.104-4.09-9.822-4.09c-6.572,0-12.159,4.53-13.557,10.876
	c-1.928-0.81-3.97-1.22-6.081-1.22c-8.705,0-15.788,7.083-15.788,15.788c0,2.729,0.708,5.421,2.047,7.782
	c0.185,0.324,0.53,0.525,0.903,0.525h78.807h8.56l0,0c0.295,0,0.579-0.125,0.774-0.346c1.965-2.201,3.047-5.038,3.047-7.99
	C1091.647,775.493,1087.097,769.387,1079.533,769.862z"/>
<path fill="#FFFFFF" d="M1471.576,685.731c0.002-0.135,0.011-0.271,0.011-0.408c0-9.19-7.478-16.667-16.667-16.667
	c-6.453,0-12.058,3.688-14.825,9.066c-2.202-2.195-5.226-3.501-8.407-3.501c-5.626,0-10.409,3.879-11.605,9.31
	c-1.65-0.693-3.398-1.044-5.205-1.044c-7.452,0-13.515,6.063-13.515,13.514c0,2.337,0.606,4.641,1.753,6.662
	c0.158,0.277,0.453,0.449,0.773,0.449h67.458l7.328,0.001l0,0c0.253,0,0.495-0.108,0.662-0.297c1.682-1.884,2.608-4.312,2.608-6.839
	C1481.946,690.55,1478.05,685.323,1471.576,685.731z"/>
<path opacity="0.42" fill="#FFFFFF" stroke="#FFFFFF" stroke-width="1.9222" stroke-linecap="round" stroke-linejoin="round" stroke-miterlimit="10" enable-background="new    " d="
	M989.215,631.024c-0.108,0-0.217,0.008-0.326,0.011c0.044-0.58,0.072-1.164,0.072-1.755c0-12.724-10.352-23.075-23.073-23.075
	c-8.957,0-16.73,5.132-20.554,12.607c-2.739-2.828-6.572-4.592-10.811-4.592c-8.305,0-15.06,6.756-15.06,15.06
	c0,0.813,0.066,1.613,0.191,2.395c-1.229-0.332-2.521-0.513-3.854-0.513c-8.161,0-14.801,6.64-14.801,14.799
	c0,2.697,0.732,5.339,2.119,7.638c0.133,0.217,0.365,0.348,0.618,0.348h96.224c0.227,0,0.438-0.105,0.576-0.287
	c1.849-2.464,2.824-5.398,2.824-8.486C1003.36,637.373,997.016,631.024,989.215,631.024z"/>
<path opacity="0.42" fill="#FFFFFF" stroke="#FFFFFF" stroke-width="1.9222" stroke-linecap="round" stroke-linejoin="round" stroke-miterlimit="10" enable-background="new    " d="
	M1629.994,748.635c-0.145,0-0.289,0.01-0.436,0.014c0.06-0.774,0.097-1.554,0.097-2.343c0-16.988-13.82-30.809-30.806-30.809
	c-11.959,0-22.338,6.854-27.443,16.833c-3.656-3.776-8.773-6.131-14.434-6.131c-11.088,0-20.108,9.02-20.108,20.106
	c0,1.086,0.089,2.154,0.256,3.197c-1.641-0.443-3.365-0.685-5.145-0.685c-10.896,0-19.762,8.864-19.762,19.759
	c0,3.601,0.977,7.128,2.829,10.197c0.178,0.289,0.486,0.464,0.824,0.464h128.473c0.302,0,0.585-0.141,0.769-0.384
	c2.469-3.289,3.771-7.207,3.771-11.33C1648.879,757.11,1640.409,748.635,1629.994,748.635z"/>
<path opacity="0.42" fill="#FFFFFF" stroke="#FFFFFF" stroke-width="1.9222" stroke-linecap="round" stroke-linejoin="round" stroke-miterlimit="10" enable-background="new    " d="
	M1408.194,543.72c-0.08,0-0.16,0.005-0.241,0.008c0.033-0.429,0.054-0.86,0.054-1.296c0-9.399-7.646-17.045-17.044-17.045
	c-6.617,0-12.359,3.792-15.184,9.313c-2.023-2.089-4.854-3.392-7.986-3.392c-6.135,0-11.125,4.99-11.125,11.125
	c0,0.601,0.049,1.192,0.142,1.769c-0.908-0.246-1.862-0.379-2.847-0.379c-6.028,0-10.934,4.904-10.934,10.932
	c0,1.992,0.54,3.944,1.565,5.642c0.099,0.16,0.269,0.257,0.456,0.257h71.08c0.167,0,0.324-0.078,0.426-0.212
	c1.365-1.82,2.086-3.987,2.086-6.269C1418.642,548.409,1413.956,543.72,1408.194,543.72z"/>
</svg>
