<?xml version="1.0" encoding="utf-8"?>
<!-- Generator: Adobe Illustrator 15.0.2, SVG Export Plug-In . SVG Version: 6.00 Build 0)  -->
<!DOCTYPE svg PUBLIC "-//W3C//DTD SVG 1.1//EN" "http://www.w3.org/Graphics/SVG/1.1/DTD/svg11.dtd">
<svg version="1.1" id="Lager_1" xmlns="http://www.w3.org/2000/svg" xmlns:xlink="http://www.w3.org/1999/xlink" x="0px" y="0px"
	 width="2441.582px" height="1307.893px" viewBox="0 0 2441.582 1307.893" enable-background="new 0 0 2441.582 1307.893"
	 xml:space="preserve">
<path fill="#1D3853" d="M0,0v1307.893h2441.582V0H0z M1220.791,747.365c-51.596,0-93.422-41.823-93.422-93.421
	c0-51.595,41.826-93.421,93.422-93.421s93.422,41.826,93.422,93.421C1314.213,705.542,1272.387,747.365,1220.791,747.365z"/>
<g opacity="0">
	<circle fill="#BFD2E2" cx="1407.635" cy="653.946" r="93.421"/>
	<circle fill="#BFD2E2" cx="1220.791" cy="467.104" r="93.421"/>
	<circle fill="#BFD2E2" cx="1220.791" cy="280.263" r="93.421"/>
	<circle fill="#BFD2E2" cx="1220.791" cy="93.421" r="93.421"/>
	<circle fill="#BFD2E2" cx="1220.791" cy="1214.473" r="93.421"/>
	<circle fill="#BFD2E2" cx="1220.791" cy="1027.631" r="93.421"/>
	<circle fill="#BFD2E2" cx="1220.791" cy="840.789" r="93.421"/>
	<circle fill="#BFD2E2" cx="1597.635" cy="653.946" r="93.421"/>
	<circle fill="#BFD2E2" cx="1784.477" cy="653.946" r="93.421"/>
	<circle fill="#BFD2E2" cx="1974.477" cy="653.946" r="93.421"/>
	<circle fill="#BFD2E2" cx="2161.319" cy="653.946" r="93.421"/>
	<circle fill="#BFD2E2" cx="2348.159" cy="653.946" r="93.421"/>
	<circle fill="#BFD2E2" cx="843.948" cy="653.946" r="93.421"/>
	<circle fill="#BFD2E2" cx="1033.948" cy="653.946" r="93.421"/>
	<circle fill="#BFD2E2" cx="467.107" cy="653.946" r="93.421"/>
	<circle fill="#BFD2E2" cx="280.264" cy="653.946" r="93.421"/>
	<circle fill="#BFD2E2" cx="93.421" cy="653.946" r="93.421"/>
	<circle fill="#BFD2E2" cx="657.107" cy="653.946" r="93.421"/>
</g>
<circle fill="#FFFFFF" cx="500.291" cy="435.447" r="11"/>
<circle fill="#FFFFFF" cx="720.062" cy="736.366" r="11"/>
<circle fill="#FFFFFF" cx="1691.056" cy="747.366" r="11"/>
<circle fill="#FFFFFF" cx="2056.898" cy="617.262" r="11"/>
<circle fill="#FFFFFF" cx="887.077" cy="398.24" r="11"/>
<circle fill="#FFFFFF" cx="560.528" cy="146.215" r="11"/>
</svg>
