<?xml version="1.0" encoding="utf-8"?>
<!-- Generator: Adobe Illustrator 15.0.2, SVG Export Plug-In . SVG Version: 6.00 Build 0)  -->
<!DOCTYPE svg PUBLIC "-//W3C//DTD SVG 1.1//EN" "http://www.w3.org/Graphics/SVG/1.1/DTD/svg11.dtd">
<svg version="1.1" xmlns="http://www.w3.org/2000/svg" xmlns:xlink="http://www.w3.org/1999/xlink" x="0px" y="0px"
	 width="290.958px" height="196.65px" viewBox="0 0 290.958 196.65" enable-background="new 0 0 290.958 196.65"
	 xml:space="preserve">
<g id="Lager_1">
</g>
<g id="Sladd">
</g>
<g id="Kontroll">
	<path fill="#F6F6F6" stroke="#F6F6F6" stroke-width="1.4508" stroke-miterlimit="10" d="M144.028,135.269"/>
	<path fill="#F6F6F6" stroke="#F6F6F6" stroke-width="1.4508" stroke-miterlimit="10" d="M161.817,136.198
		c8.416,0,37.084,2.08,52.628,28.827c0.081,0.136,0.166,0.271,0.256,0.402c18.411,26.421,31.301,30.365,37.344,30.365
		c0.733,0.084,3.724,0.132,3.724,0.132c22.536-0.005,28.608-29.597,28.858-30.855c19-95.723-15.999-137.005-20.773-142.103
		c-2.392-3.567-15.962-22.241-37.878-22.241c-6.813,0-13.728,1.842-20.552,5.476c-2.959,1.574-5.514,3.181-7.981,4.735
		c-10.386,6.533-14.391,13.574-53.415,13.574c-39.022,0-40.126-7.042-50.512-13.574c-2.469-1.555-5.022-3.161-7.981-4.735
		C78.71,2.567,71.795,0.726,64.982,0.726c-21.916,0-35.486,18.673-37.879,22.241c-4.774,5.098-39.772,46.38-20.772,142.103
		c0.248,1.259,6.321,30.851,28.857,30.855c0.001,0,0.003,0,0.004,0l3.719-0.132c6.044,0,18.933-3.944,37.345-30.365
		c0.09-0.132,0.176-0.267,0.256-0.402c15.543-26.747,44.211-28.827,52.626-28.827H161.817z"/>
	<path fill="#ECEDED" stroke="#ECEDED" stroke-width="1.4508" stroke-miterlimit="10" d="M144.028,136.198H129.14
		c-8.416,0-37.083,2.08-52.626,28.827c-0.08,0.136-0.166,0.271-0.256,0.402c-18.412,26.421-31.301,30.365-37.345,30.365
		l-3.719,0.132c-0.001,0-0.002,0-0.004,0c-22.536-0.005-28.61-29.597-28.857-30.855c-19-95.723,15.998-137.005,20.772-142.103
		c2.393-3.567,15.963-22.241,37.879-22.241c6.813,0,13.728,1.842,20.552,5.476c2.959,1.574,5.513,3.181,7.981,4.735
		c10.386,6.533,11.489,13.574,50.512,13.574V136.198z"/>
</g>
<g id="Knappar">
	<circle fill="#D9DADB" cx="186.18" cy="111.541" r="17.759"/>
	<g>
		<circle fill="#F0C40D" cx="229.575" cy="25.973" r="10.155"/>
		<g>
			<path opacity="0.54" fill="#F49D16" d="M229.575,36.128c-5.609,0-10.155-4.544-10.155-10.155c0-5.607,4.546-10.155,10.155-10.155
				V36.128z"/>
		</g>
	</g>
	<g>
		<circle fill="#53B06B" cx="229.575" cy="70.465" r="10.155"/>
		<path fill="#32A860" d="M229.575,80.621c-5.609,0-10.155-4.546-10.155-10.155c0-5.608,4.546-10.156,10.155-10.156V80.621z"/>
	</g>
	<g>
		<circle fill="#646567" cx="186.181" cy="111.541" r="13.891"/>
		<path fill="#58585A" d="M186.181,125.43c-7.672,0-13.891-6.217-13.891-13.89c0-7.672,6.219-13.89,13.891-13.89V125.43z"/>
	</g>
	<circle fill="#D9DADB" cx="144.572" cy="50.627" r="15.217"/>
	<g>
		<circle fill="#C6C7C8" cx="144.572" cy="50.627" r="11.901"/>
		<path fill="#B1B3B4" d="M144.572,62.528c-6.574,0-11.901-5.328-11.901-11.9c0-6.573,5.327-11.903,11.901-11.903V62.528z"/>
	</g>
	<g>
		<circle fill="#D9DADB" cx="54.039" cy="51.955" r="17.759"/>
		<path fill="#646567" d="M67.929,51.955c0,7.671-6.218,13.889-13.891,13.889c-7.672,0-13.89-6.218-13.89-13.889
			c0-7.674,6.218-13.891,13.89-13.891C61.711,38.064,67.929,44.281,67.929,51.955z"/>
		<path fill="#58585A" d="M54.039,65.843c-7.672,0-13.89-6.218-13.89-13.889c0-7.674,6.218-13.891,13.89-13.891V65.843z"/>
	</g>
	<g>
		<g>
			<circle fill="#E74D3D" cx="251.941" cy="48.219" r="10.156"/>
			<path fill="#BF392A" d="M251.941,58.375c-5.61,0-10.156-4.548-10.156-10.156c0-5.61,4.546-10.155,10.156-10.155V58.375z"/>
		</g>
		<g>
			<circle fill="#3F96CE" cx="207.208" cy="48.219" r="10.156"/>
			<path fill="#2880B9" d="M207.208,58.375c-5.609,0-10.156-4.548-10.156-10.156c0-5.61,4.547-10.155,10.156-10.155V58.375z"/>
		</g>
	</g>
	<path fill="#D9DADB" d="M106.294,107.366c0,13.181-10.684,23.865-23.866,23.865c-13.181,0-23.865-10.685-23.865-23.865
		c0-13.184,10.684-23.867,23.865-23.867C95.61,83.499,106.294,94.182,106.294,107.366z"/>
	<circle fill="#646567" cx="82.428" cy="107.366" r="20.069"/>
	<path fill="#646567" d="M82.428,127.436c-11.084,0-20.069-8.984-20.069-20.07c0-11.085,8.985-20.07,20.069-20.07V127.436z"/>
	
		<path fill="#4B4B4D" stroke="#4B4B4D" stroke-width="2.5665" stroke-linecap="round" stroke-linejoin="round" stroke-miterlimit="10" d="
		M100.339,102.387H87.536V89.621c-5.107-2.199-10.215,0-10.215,0v12.767H64.555c-2.199,5.106,0,10.215,0,10.215h12.766v12.803
		c0,0,5.107,2.116,10.215,0v-12.803h12.804C100.339,112.602,102.454,107.494,100.339,102.387z"/>
</g>
</svg>
