<?xml version="1.0" encoding="utf-8"?>
<!-- Generator: Adobe Illustrator 15.0.2, SVG Export Plug-In . SVG Version: 6.00 Build 0)  -->
<!DOCTYPE svg PUBLIC "-//W3C//DTD SVG 1.1//EN" "http://www.w3.org/Graphics/SVG/1.1/DTD/svg11.dtd">
<svg version="1.1" id="Lager_1" xmlns="http://www.w3.org/2000/svg" xmlns:xlink="http://www.w3.org/1999/xlink" x="0px" y="0px"
	 width="48.513px" height="33.953px" viewBox="0 0 48.513 33.953" enable-background="new 0 0 48.513 33.953" xml:space="preserve">
<g>
	<rect opacity="0.6" fill="#FFFFFF" width="48.513" height="33.953"/>
	<g>
		<path fill="#3C3C3B" d="M17.257,12.213l-0.892-0.024c-0.145-0.867-0.502-1.554-1.072-2.061c-0.57-0.506-1.209-0.758-1.916-0.758
			c-1.189,0-2.128,0.605-2.819,1.818c-0.691,1.213-1.036,2.606-1.036,4.181c0,3.196,0.55,5.478,1.65,6.843
			c1.1,1.365,2.831,2.112,5.192,2.24v-6.625h-2.361v-0.893h3.253v8.434c-2.33,0-4.064-0.346-5.205-1.036
			c-0.45-0.272-0.903-0.658-1.361-1.156c-0.458-0.497-0.831-1.093-1.121-1.783c-0.626-1.558-0.939-3.573-0.939-6.048
			c0-1.172,0.16-2.225,0.482-3.156c0.321-0.932,0.723-1.654,1.205-2.168c0.979-1.028,1.967-1.543,2.964-1.543
			c0.996,0,1.907,0.402,2.734,1.205C16.843,10.486,17.257,11.329,17.257,12.213z"/>
		<path fill="#3C3C3B" d="M28.966,9.731v15.613h-0.891v-7.951h-6.843v7.951H20.34V14.31c0-1.735,0.554-3.157,1.663-4.266
			c1.108-1.107,2.498-1.662,4.168-1.662C27.392,8.382,28.323,8.831,28.966,9.731z M28.075,16.501v-6.433
			c-0.515-0.53-1.165-0.795-1.952-0.795c-1.414,0-2.582,0.515-3.506,1.542s-1.385,2.201-1.385,3.518v2.168H28.075z"/>
		<path fill="#3C3C3B" d="M38.146,22.79c0.723-0.627,1.085-1.389,1.085-2.289c0-0.898-0.261-1.617-0.783-2.156
			c-0.522-0.538-1.153-0.939-1.892-1.205c-0.738-0.265-1.481-0.533-2.229-0.807s-1.382-0.688-1.903-1.241
			c-0.522-0.554-0.783-1.265-0.783-2.132c0-1.51,0.421-2.635,1.265-3.373c0.844-0.739,1.852-1.109,3.023-1.109
			c1.173,0,2.459,0.113,3.855,0.338v0.892c-1.252-0.226-2.426-0.337-3.518-0.337s-1.988,0.305-2.687,0.915s-1.048,1.47-1.048,2.578
			c0,0.964,0.498,1.687,1.494,2.169c0.449,0.225,0.943,0.434,1.481,0.626s1.08,0.409,1.626,0.65c0.547,0.241,1.04,0.526,1.482,0.855
			c0.441,0.329,0.803,0.787,1.084,1.374c0.281,0.586,0.422,1.269,0.422,2.047c0,0.779-0.182,1.467-0.543,2.061
			c-0.361,0.595-0.807,1.061-1.337,1.397s-1.148,0.61-1.854,0.819c-1.141,0.354-2.426,0.53-3.855,0.53H31.93v-0.892
			C34.788,24.501,36.86,23.931,38.146,22.79z"/>
	</g>
</g>
</svg>
